<svg xmlns="http://www.w3.org/2000/svg" viewBox="0 0 115 45.66"><defs><style>.cls-1{fill:#252e35;}.cls-2{fill:#131c21;}</style></defs><title>자산 9</title><g id="레이어_2" data-name="레이어 2"><g id="레이어_1-2" data-name="레이어 1"><rect class="cls-1" width="115" height="45.66"/><path class="cls-2" d="M19.18,29.48a20.54,20.54,0,0,0,1.13-6.69,3.2,3.2,0,0,0-.2-1,1.57,1.57,0,0,1-.14-.71,5.34,5.34,0,0,1-1.79-3.72,10.28,10.28,0,0,1-3.9-2.1c-2.38-1.82-.86-2.21-.86-2.21,2.59-.61,5.92,3.16,5.92,3.16.72-.61,4.3,0,4.3,0a12.34,12.34,0,0,0,1.45-1.37c1.46-2.43,7.53-5.56,7.53-5.56,2.82-1.81,2,.09,2,.09C32.05,14.09,26,16.75,26,16.75a5.81,5.81,0,0,1,2.2.8l4.59,2.82a1,1,0,0,1,.81.53l4,2.64a5,5,0,0,1,2.17-.3c1.75.22,3.1,2.57,3.1,2.57,1.27,1,2.41,2,2.41,2l.9-.07A20.59,20.59,0,0,1,43.91,26l-.82-.58c-.53-.61.23-.38.23-.38l4.49,2.46s43-7,42.32-3.45-33.25,9.78-33.25,9.78c5.74.65,4.94,1,4.94,1-.3.78-7.58.43-7.58.43-.06,2.55-1,2.72-1,2.72L52.29,38l.16.74c0-.2.28-.2.28-.2.38.13.38.74.38.74s0,.78-.39.78a.47.47,0,0,1-.46-.41l-.16-.14v-.74l-.25-.87a99.56,99.56,0,0,1-12.8-2.24l-1.66,0-.06.89H37.2l0,.39a1.86,1.86,0,0,1,1.66,1.19,7.85,7.85,0,0,1,0,3.19s-.42,1.73-2,1.5-1.82-2.26-1.82-2.26c-.71,0-.71-.45-.71-.45V38.55c.22-1.85,1.21-2,1.21-2a.69.69,0,0,0,.52-.84H34.32a.81.81,0,0,0-.14.31,36,36,0,0,1-7.33-.49L26.14,37a4.24,4.24,0,0,1,0,3.43l-.73,0C24.58,43,22.59,42,22.59,42a3,3,0,0,1-1.09-3.18c.46-2.19,2.18-2,2.18-2a2.15,2.15,0,0,1,.92-.42,1,1,0,0,1,.76-.49l.25-1a.62.62,0,0,1-.36-.73l-5.58-1.05s-.21,2.22-.87,2.18S18.56,33,18.56,33l-1.15-.21c-1.24.3-1.38-.28-1.38-.28S14.2,32,8,30.77,2.73,29,2.73,29c.65-.26,9.77.05,9.77.05L9.9,27.92c-.42-.27.08-.39.08-.39l5.43,1.77Zm1.32-2.17a9.34,9.34,0,0,0-.29,2.23c.19,0,1.77,0,1.77,0A5.39,5.39,0,0,1,20.5,27.31ZM38.41,24c.92-.58.77-.73.77-.73a3.75,3.75,0,0,0-1.54.29ZM39,24s-.2.23.17.48,1.18.85,1.18.85.35.17.21-.26a7.68,7.68,0,0,0-.53-1.12s-.32-.5-.62-.26S39,24,39,24Zm.87-.63A4.15,4.15,0,0,1,41,25.48s.86.7,1.87,1.36A4.92,4.92,0,0,0,39.89,23.35Z"/><polygon class="cls-2" points="38.6 23.07 38.75 22.59 39.46 22.59 39.32 23.07 39.22 23.07 39.21 23.3 38.97 23.3 38.97 23.08 38.6 23.07"/></g></g></svg>