<svg xmlns="http://www.w3.org/2000/svg" viewBox="0 0 124.7 70.57"><defs><style>.cls-1{fill:#252e35;}.cls-2{fill:#131c21;}.cls-3{font-size:20px;fill:#fff;font-family:Jost-Light, Jost*;}</style></defs><title>자산 4</title><g id="레이어_2" data-name="레이어 2"><g id="레이어_1-2" data-name="레이어 1"><rect class="cls-1" width="124.7" height="70.57"/><path class="cls-2" d="M24.7,41.39a26.24,26.24,0,0,0,1.44-8.47,4.16,4.16,0,0,0-.25-1.26,1.89,1.89,0,0,1-.18-.9,6.77,6.77,0,0,1-2.27-4.71A12.81,12.81,0,0,1,18.5,23.4c-3-2.31-1.08-2.8-1.08-2.8,3.27-.77,7.48,4,7.48,4,.92-.78,5.46-.07,5.46-.07a16.54,16.54,0,0,0,1.83-1.74c1.85-3.07,9.53-7,9.53-7,3.57-2.29,2.59.12,2.59.12-3.3,6-11,9.39-11,9.39a7.27,7.27,0,0,1,2.78,1l5.81,3.57a1.26,1.26,0,0,1,1,.67l5,3.33a6.29,6.29,0,0,1,2.75-.37c2.22.27,3.93,3.25,3.93,3.25,1.6,1.21,3,2.53,3,2.53l1.14-.09A24.93,24.93,0,0,1,56,37L55,36.28c-.66-.77.3-.49.3-.49L61,38.9s54.43-8.89,53.58-4.36S72.45,46.92,72.45,46.92c7.26.83,6.25,1.28,6.25,1.28-.39,1-9.6.54-9.6.54C69,52,67.79,52.19,67.79,52.19l-1.17-.07.21.93c0-.26.36-.26.36-.26.48.17.48.94.48.94s0,1-.49,1a.58.58,0,0,1-.59-.51l-.2-.19v-.93L66.07,52a124.38,124.38,0,0,1-16.21-2.85l-2.1,0-.08,1.13-.16,0,0,.48a2.42,2.42,0,0,1,2.12,1.51,10.17,10.17,0,0,1,0,4s-.55,2.19-2.56,1.89-2.29-2.86-2.29-2.86c-.91-.06-.91-.56-.91-.56v-2c.28-2.34,1.53-2.54,1.53-2.54a.87.87,0,0,0,.66-1.06l-2.21,0a1.08,1.08,0,0,0-.18.41A45.68,45.68,0,0,1,34.42,49L33.52,51c1.1,1.87,0,4.34,0,4.34l-.93-.06c-1,3.2-3.56,2-3.56,2a3.76,3.76,0,0,1-1.39-4c.59-2.78,2.76-2.52,2.76-2.52a2.83,2.83,0,0,1,1.17-.52,1.22,1.22,0,0,1,1-.62l.32-1.27a.79.79,0,0,1-.46-.93l-7.06-1.32s-.26,2.81-1.11,2.75-.3-3-.3-3l-1.45-.26c-1.57.38-1.75-.36-1.75-.36S18.41,44.54,10.54,43s-6.66-2.32-6.66-2.32c.82-.32,12.36.08,12.36.08L13,39.41c-.53-.34.1-.49.1-.49l6.87,2.24Zm1.68-2.75s-.6,2.8-.36,2.83,2.23,0,2.23,0A6.93,6.93,0,0,1,26.38,38.64ZM49.06,34.5c1.16-.73,1-.92,1-.92a4.68,4.68,0,0,0-1.94.36Zm.77-.07s-.25.29.21.61,1.49,1.06,1.49,1.06.45.22.27-.31a10.29,10.29,0,0,0-.67-1.43s-.41-.63-.78-.33Zm1.1-.81a5.38,5.38,0,0,1,1.39,2.7s1.08.89,2.37,1.73C54.69,38.05,54,34.62,50.93,33.62Z"/><polygon class="cls-2" points="49.3 33.28 49.49 32.67 50.38 32.67 50.21 33.28 50.08 33.28 50.07 33.56 49.76 33.56 49.76 33.29 49.3 33.28"/><text class="cls-3" transform="translate(37.28 40.39)">Britain</text></g></g></svg>