<svg xmlns="http://www.w3.org/2000/svg" viewBox="0 0 124.7 70.57"><defs><style>.cls-1{fill:#344256;}.cls-2{fill:#1e2d3f;}.cls-3{font-size:20px;fill:#fff;font-family:Jost-Light, Jost*;}.cls-4{letter-spacing:-0.02em;}</style></defs><title>자산 6</title><g id="레이어_2" data-name="레이어 2"><g id="레이어_1-2" data-name="레이어 1"><rect class="cls-1" width="124.7" height="70.57"/><path class="cls-2" d="M28.63,20.84c1.4-1.23,9.27-7.78,13.82-11s1.54.63,1.54.63S37,16.55,35.18,18s-4.52,3.17-4.52,3.17c4.12.12,4.88.88,4.88.88C42,26,53.91,35,53.91,35A5.54,5.54,0,0,1,57,34.33c1.54.24,5.36,4.68,5.36,4.68l44.23-4.08s9.87-1.55,10.92.89-5.32,4.38-5.32,4.38c-14.2,3.66-36.93,7-36.93,7,6.7.07,7.51.57,7.51.57s2.09.66.29,1.12-10.79.29-10.79.29v2.2A7.71,7.71,0,0,1,72,53.1c-.24.8-2.16.66-2.16.66l-.57.38v.78c.33,0,.43.57.43.57v.57s.23-.09.23.23-.26.31-.26.31l-.1.22s-.15.46-.48.46-.64-.36-.64-1.13a1,1,0,0,1,.64-1V55H69v-.83h-.18l0-.4a66.44,66.44,0,0,1-8.47-1.14l-.45,1.22c.93,1.3.45,4.19.45,4.19l-1.69,1.12c-.51,3.94-3.34,2.7-3.34,2.7S53.14,60.59,53,57s1.88-4.36,1.88-4.36h1.73a2.5,2.5,0,0,1,1.31-.28v-.57L56,51.75a19.85,19.85,0,0,1-8.34.2c-5.23-.81-6.07-2.82-6.07-2.82L30.89,47.66l-2.19,5s2.19,1.27,1.38,4.51-3.15,2.89-3.15,2.89a3.84,3.84,0,0,1-2.18-.88c-.92-.84-.85-2.84-.85-2.84l-.52-.41c.78-4.3,3.05-3.7,3.05-3.7.1-.43.39-.39.39-.39l1.82-4.58s-11.83-1.55-17-3.06-4.56-2-4.56-2l26-.81c-5.38-4.73-7-7.49-7-7.49,0,2.43-3.1,11.8-4.54,12.85s-1.62,0-1.62,0-.3.74.44-7.3,3.76-12.26,3.76-12.26C21.67,24.91,21.59,23,21.59,23,18.67,22,17,20,15.65,18.81s-1-2.06-1-2.06a1.19,1.19,0,0,1,.27-.6c.2-.19.86-.1.86-.1,5.42,1.75,7.2,4.24,7.2,4.24A9.07,9.07,0,0,1,28.63,20.84Zm26.1,14.75c2.23-1,2.05-1.22,2.05-1.22A4.72,4.72,0,0,0,54,35Zm4,2.77c.34.27.22-.09.22-.09A6.4,6.4,0,0,0,57.83,35s-.66-.59-.85-.34A13.09,13.09,0,0,1,55,35.77,43.66,43.66,0,0,1,58.68,38.36ZM58.1,35a6.19,6.19,0,0,1,1.27,3.49.81.81,0,0,0,.24.44c.22.19.39.37.39.37h1.36S61.39,37.28,58.1,35Zm2.81,2.6a14.79,14.79,0,0,1,.65,1.52H62A7.18,7.18,0,0,0,60.91,37.57Z"/><text class="cls-3" transform="translate(34.93 40.39)"><tspan class="cls-4">F</tspan><tspan x="9.2" y="0">rance</tspan></text></g></g></svg>