<svg xmlns="http://www.w3.org/2000/svg" viewBox="0 0 124.7 70.57"><defs><style>.cls-1{fill:#263324;}.cls-2{fill:#121e11;}.cls-3{font-size:20px;fill:#fff;font-family:Jost-Light, Jost*;}</style></defs><title>자산 8</title><g id="레이어_2" data-name="레이어 2"><g id="레이어_1-2" data-name="레이어 1"><rect class="cls-1" width="124.7" height="70.57"/><path class="cls-2" d="M28.59,12.4c1.75-4.6,1.88-.79,1.88-.79.88,5.84-2.26,13.94-2.26,13.94a10.34,10.34,0,0,1,1.63.64,13.9,13.9,0,0,1,3.6.19c7.94,1.91,18,8.91,18,8.91a2.18,2.18,0,0,1,2.41-.6c2.24,1.05,5.93,5.55,5.93,5.55l.68.18S95,37.18,105.1,36.28s11.59,1,11.59,1c3.76,3-9.89,5-9.89,5L66.28,47.61l2,2.06c1.65,0,11.34.6,10.72,1.35s-9.41.74-9.41.74L70.42,53l-1,.18v.15l-.52.45h-.14l.29-.6c-.46-.34-.68,0-.68,0V54c.59.05.57.9.57.9a.22.22,0,0,1,0,.36s0,1.24-.62,1.06-.64-1.24-.64-1.24a.48.48,0,0,1-.18-.53v-.35a1.07,1.07,0,0,1-1.13-1,37.17,37.17,0,0,1-5.7-.92l-.26,3.61-.13.29V58l-1.45.34c-.51,2-1.63,2.11-1.63,2.11H55.75S54.09,59.61,54,56.7s1.48-3.86,1.48-3.86l-5-.12-1.8-.82L47.63,51V49L44,48.51s0-.06,0,.85-.7.36-.7.36l-1.4-1.44L32.3,47.22l-2.41,1.69-.25.92c-.26,1-.39.89-.39.89s-.2.57-.36,1.17a.78.78,0,0,0,.45.87c.52.37.1,1,.1,1a2,2,0,0,1,.11.81l0,1.39s-.19,2.68-2.7,2.71a2.54,2.54,0,0,1-2.58-2.52l-1-.58s.41-2.52,1.66-3.12a7.5,7.5,0,0,0,2.1-1.6l1.36-3.66a2.56,2.56,0,0,1-.6-.57A108.76,108.76,0,0,1,15,45.46c-10.09-2-7.28-2.84-7.28-2.84l17.18-.31-1.85-.79c-.78-.68.38-.53.38-.53L27,42.31h3.87a4.1,4.1,0,0,1-1.84-1.19,1.73,1.73,0,0,1,.51-2.33,2.88,2.88,0,0,0-.68-.62C25.76,36.29,25.93,36,25.93,36V34.36a17.89,17.89,0,0,1-2.67-2.44c-2.61,1.63-7.65,5.36-10.67,7.67s-.1-.34-.1-.34l9.81-8.53a5,5,0,0,1-.76-3.47c.69-2.39,4.1-2.21,4.1-2.21A51.58,51.58,0,0,1,28.59,12.4Zm2,34.58-.39,1.3,1.56-1.17Zm22-11.08,1.09-1.12a1.79,1.79,0,0,0-2,.6Zm3.18,2.47c-.82-3.93-1.82-3.32-1.82-3.32l-.93,1Zm.25.05.45.5c-.05-.32.34-.45.34-.45l-.66-1.84-.92-.73A19.18,19.18,0,0,1,56,38.42Zm.36-1.55L57,38.51s.3-.11.88.54l-.32-1Z"/><text class="cls-3" transform="translate(46.87 40.39)">Italy</text></g></g></svg>