<svg xmlns="http://www.w3.org/2000/svg" viewBox="0 0 124.7 70.57"><defs><style>.cls-1{fill:#513131;}.cls-2{fill:#211314;}.cls-3{font-size:20px;fill:#fff;font-family:Jost-Light, Jost*;}</style></defs><title>자산 5</title><g id="레이어_2" data-name="레이어 2"><g id="레이어_1-2" data-name="레이어 1"><rect class="cls-1" width="124.7" height="70.57"/><path class="cls-2" d="M29.86,32.63c-1.38-1.49-1-4.8-1-4.8a3.68,3.68,0,0,1-1.47-3.29l-.14-.09a43.42,43.42,0,0,1-5.15-3.38c-1.42-1-.58-1.77-.58-1.77,2.73-.38,8,3.77,8,3.77a11,11,0,0,1,1.87.14c2-2.49,5.59-2.07,5.59-2.07s2.75-2.22,6.5-4.85,3.78-1.7,3.78-1.7c.88,1.47-6.57,7.82-6.57,7.82l2.86,1.81a6,6,0,0,1,1.71,1.43l1.55.39a5.8,5.8,0,0,1,3.81-.54,21.45,21.45,0,0,1,8.45,8.43s49.88-6.59,54.32-7.16,4.44,2.52,4.44,2.52a4.06,4.06,0,0,1-3.34,4.87l-46.17,9,.19.64a16.94,16.94,0,0,0,3,.26,132.28,132.28,0,0,1,13.77,1c4.22.77,0,1.06,0,1.06l-12.65.4a7,7,0,0,0,.28,2.07,1.15,1.15,0,0,1,.2.78H72.2L71.68,49h-.15v.4H71.4l0,.91a.7.7,0,0,1,.23.05s-.48-.51,0,0a.77.77,0,0,1,0,1.08.67.67,0,0,1-.51,0c-.26-.13-.29-.93-.29-.93l-.82-1.47A67.08,67.08,0,0,1,62,47.52l-.09,1.24a7.9,7.9,0,0,1,0,5.75l-.7-.11a2.25,2.25,0,0,1-1.58,1.67s-2.75.83-3.24-3.15a7.06,7.06,0,0,1,2.72-6.27C55.43,45.09,46,43.84,46,43.84L30,41.4a17.74,17.74,0,0,1-1,4s-.42.83-.84.72.13-3.67.13-3.67L27.25,47a2.05,2.05,0,0,1,.2,1.66,3.83,3.83,0,0,1,.46,3.5s-1.18,2.81-3.31,2.13a2.46,2.46,0,0,1-2-2.4,1.68,1.68,0,0,1-1.1-1,3.57,3.57,0,0,1,3-3.38c.15-1.22.61-1.37.61-1.37l1.52-5.17C7.08,37.83,6.8,35.64,6.8,35.64l22.31.17C29.3,35.07,29.86,32.63,29.86,32.63ZM31,35.94c0,.07,2.59,0,2.59,0a14.29,14.29,0,0,1-2.35-1.64C31,35.63,31,35.87,31,35.94Zm17-9.79a13.88,13.88,0,0,1,1.69-.68,6.25,6.25,0,0,0-2.56.58Zm2.69,1.14L51,26.15l-.91-.58s.66,0-.06,0-1.48,1-1.48,1Zm.2.23,0,1.06,1.16.91L51.61,27A1.42,1.42,0,0,0,50.83,27.52Zm1-.74.53,3,1.77,1.2-.74-2.88Zm2.57,4.32,1.5,1-.46-2.42-1.76-1.46Zm-2.89-4.28v-.27l-.25-.23s-.2.56-.21.6Zm4.08,2.91.64,2.56,2.38,1.57H59A18,18,0,0,0,55.57,29.73Z"/><text class="cls-3" transform="translate(41.4 40.39)">Japan</text></g></g></svg>