<svg xmlns="http://www.w3.org/2000/svg" viewBox="0 0 124.7 70.57"><defs><style>.cls-1{fill:#272d38;}.cls-2{fill:#141a23;}.cls-3{font-size:20px;fill:#fff;font-family:Jost-Light, Jost*;}</style></defs><title>자산 3</title><g id="레이어_2" data-name="레이어 2"><g id="레이어_1-2" data-name="레이어 1"><rect class="cls-1" width="124.7" height="70.57"/><path class="cls-2" d="M27.66,24.85l3.76,1.28L44,24.71a1.47,1.47,0,0,1,1.2,1.45c0,1.25-1.75,1.72-1.75,1.72l-5.07,1.2a97.17,97.17,0,0,1,10,5.73A13.93,13.93,0,0,1,52,34.55c5.36.92,6.67,6.34,6.67,6.34a5.59,5.59,0,0,0,1.81,2.56l3-.32A.83.83,0,0,1,64.53,43L66,42.85a.92.92,0,0,1,1.17-.19l1.24-.12a1.85,1.85,0,0,1,1.45-.17s41.17-5.08,44.21-5.32,3.93.81,3.93.81c1.27.29,0,.92,0,.92.08.67-.72,2-1.24,3.1a1.42,1.42,0,0,1-1.39,1L74.13,50s4.71.25,7,.22,2.19.52,2.48,1-.16.45-.16.45l-11.87.45s0,.71-.13,2.52-4.42.71-4.42.71l.19.55-1.7-.23,0,.42H65a2.63,2.63,0,0,1,.74,1.1v1.29a.73.73,0,0,1-.9.68s-.71-.1-.74-1.26.74-1.36.74-1.36L64,55.7h-.61l.13,2.84-1.78-2a11.16,11.16,0,0,1,0,3.84s-.83,3.48-3.54,2.45-2-6-2-6c-5.45.1-7.71-2.16-8.42-3.1s.13-1.16.13-1.16l2.32-.06-.39-.36c-7.9-.9-20-2.86-20-2.86L29.05,51l.39.37v.18H29l.21.28-.52.19L28,53.55v1.5c1.84,3.91-.84,5.75-.84,5.75s-3.52,1.48-4.36-1.48a4.88,4.88,0,0,1,.7-4.61l3.38-5.9s1.7.42-9.19-1.17S6.16,44.19,6.16,44.19l27.78.55C25.48,38.56,25,35.08,25,35.08L24.86,35s-1.13,6.83-1.75,12.62-1.82,4.27-1.82,4.27S21,49.83,22.72,42s1.41-8.87,1.41-8.87a32.27,32.27,0,0,1-3-2.88l-9.41,1.53s-1.64.22-1.78-.4,1.35-1.41,1.35-1.41c.46-.34,8.71-1.43,8.71-1.43a3.91,3.91,0,0,1-.28-2.79c.76-2.06,4.82-1.61,4.82-1.61s1.32-6,2.5-11.75,2.68-4.68,2.68-4.68c1.61.76-1.12,17.22-1.12,17.22ZM49.91,35.42A2.29,2.29,0,0,1,51.33,37c.45,1.35,1.23,1.55,1.23,1.55V36.5a5.79,5.79,0,0,0-.8-1.71C51.42,34.53,49.91,35.42,49.91,35.42Zm2.27-.84s.78.71,1.25,3.19l5.13,3S57.15,35.61,52.18,34.58Zm-3.77.21,1.08.62a7.22,7.22,0,0,1,2.23-.83A17.25,17.25,0,0,0,48.41,34.79Z"/><text class="cls-3" transform="translate(44.69 40.39)">USA</text></g></g></svg>