<svg xmlns="http://www.w3.org/2000/svg" viewBox="0 0 124.7 70.57"><defs><style>.cls-1{fill:#352525;}.cls-2{fill:#211314;}.cls-3{font-size:20px;fill:#fff;font-family:Jost-Light, Jost*;}</style></defs><title>자산 7</title><g id="레이어_2" data-name="레이어 2"><g id="레이어_1-2" data-name="레이어 1"><rect class="cls-1" width="124.7" height="70.57"/><path class="cls-2" d="M26.14,19.61c.88-.66,6-4.37,6-4.37,7-4.89,5-4.16,8.89-6.65s1.57.55,1.57.55a47.77,47.77,0,0,1-7.49,5.6A30.55,30.55,0,0,0,28.54,20a23.56,23.56,0,0,1,5.79,2.24l8.39,5.18c1.52,0,4.85,3.2,4.85,3.2,1.21-.76,3.25-.07,3.25-.07s2.43,1.9,3.83,2.92a36.06,36.06,0,0,1,4.12,4.43H59s39.54-3.11,50.15-4.26,8.22,3.07,8.22,3.07-.81,1.19-6,3.36-35.89,7.55-35.89,7.55,10.28.51,9.24,1.69-11.86.74-11.86.74c0,4.16-1.68,4.16-1.68,4.16v.27l-1.38.2c0-1-.58-.76-.58-.76v.52h-.06v.18c.33,0,.36.8.36.8v1.31s.06.5-.78.5-.81-.46-.81-.46v-.57h-.05V56l.05,0v-.29h-.09v-.36h-.08v-.58l-.77.17a2,2,0,0,1,.25-1,6.55,6.55,0,0,1-1.73-.19c0,2.6-.41,5.51-.41,5.51l-1.51.35C62.17,65.07,59,62.24,59,62.24a6.59,6.59,0,0,1-1.42-3.42,12.33,12.33,0,0,1,.44-4.6s1.42.05-3.24-.17A7.44,7.44,0,0,1,48.47,50l-1.7-.11v.33l-.55-.49-6.82-.91c0,.44-.22,1.7-.22,1.7l-2-2-9.16-1.32L26.25,48h-.46l-1.17,5.45c1.57,2.4-.14,5.06-.14,5.06a3.37,3.37,0,0,1-3.31,1.67c-2.4-.18-2.91-2.87-2.91-2.87l-1.06-.22a5.84,5.84,0,0,1,.18-2.22s1.31-2.36,2.33-2.55a2.24,2.24,0,0,0,1.49-1.09l2.26-4.83c-9.06-1.79-10.15-2.15-10.15-2.15-9.13-2.4-5.53-2.91-5.53-2.91L30.69,40c-5.92-5.06-7.21-7.6-7.21-7.6C20.66,49.94,17,49.16,17,49.16s-.89,0,.25-8.46S20.73,28,20.73,28A9.88,9.88,0,0,1,17,22a18,18,0,0,1-4.37-3.24c-2.17-2.17-.31-3.1-.31-3.1,1.83-.61,6.13,3.68,6.13,3.68C21.06,17.82,26.14,19.61,26.14,19.61ZM48.55,31.26a2.75,2.75,0,0,1,1.73-.69,3.75,3.75,0,0,0-2.63.15Zm4,2.64S51.86,31.16,51,31a3.11,3.11,0,0,0-1.86.45S49.76,31.57,52.55,33.9Zm.67.32,2.86,1.91c-.54-2.2-4.22-4.59-4.22-4.59A12.53,12.53,0,0,1,53.22,34.22Zm2.54.46A5.52,5.52,0,0,0,57.33,37c1,.68,1.17.83,1.17.83A30.56,30.56,0,0,0,55.76,34.68ZM26.08,46.86a3,3,0,0,0-.14.81c0,.2,1.45-.6,1.45-.6A7.54,7.54,0,0,0,26.08,46.86Z"/><text class="cls-3" transform="translate(40.58 40.39)">USSR</text></g></g></svg>