<svg xmlns="http://www.w3.org/2000/svg" viewBox="0 0 292.4 165.5"><defs><style>.cls-1{fill:#2b2b2b;}.cls-2{fill:#141311;}.cls-3{isolation:isolate;font-size:46.9px;fill:#fff;font-family:Jost-Light, Jost*;}.cls-4{letter-spacing:0em;}.cls-5{letter-spacing:0em;}</style></defs><title>자산 4lk</title><g id="레이어_2" data-name="레이어 2"><g id="레이어_1-2" data-name="레이어 1"><rect class="cls-1" width="292.4" height="165.5"/><rect class="cls-2" x="83.38" y="66.73" width="1.93" height="1.15"/><rect class="cls-2" x="86.34" y="66.73" width="2.19" height="1"/><polygon class="cls-2" points="113.85 39.19 105.4 39.19 104.51 40.08 101.17 40.08 101.17 40.97 102.51 40.97 104.36 41.97 108.63 41.97 108.63 40.59 112 40.59 112 41.97 116.15 41.97 116.15 41 113.85 39.19"/><rect class="cls-2" x="214.66" y="28.1" width="0.63" height="34.96"/><path class="cls-2" d="M214.1,61.54h1.74s.78-.52.78,5.19h-3.37S213.4,61.54,214.1,61.54Z"/><path class="cls-2" d="M16.76,49.31l72.55-.37s2.48.07,2.78-1.08,2.08-1.37,2.08-1.37H98.8s4.19-4.78,5.27-4.86,16.83,0,16.83,0,1.85.45,2-4.63c0,0,.3-1.86,3.63,1.63l17.69-2.11V39l6.41.22s1.48-1.63,2.86-1.37v-6l1.29-1V29.06h26v1.78l1.3.45v6.45l4.33,1.41s9.5,14.05,13.68,28.43h8.46v-1l1.07-1,27.88-.25V61.06h16.91s1.37.37,1.41,4.6h4.74v1.92H269s1.3-3.63,7.16-2.52v2.52s-4.08-.22-4.75,1.34v3.93l3.93,2.26-10.12,20h-6.41A6,6,0,0,1,255.33,99v7H17.72V96.17s4.6-11.38,10.71-12.38a129.26,129.26,0,0,1,16.24-1,59.43,59.43,0,0,1,4.75-4.3V75.7a4.28,4.28,0,0,1-2.19-3.37h-.41V71a5.14,5.14,0,0,1,6.86-1.18h5.23s.44-.78,3,.52c0,0,2.67-3.08,5.41-3V63.54h.89V61.87h2.52v-.4h.89v.33h2.89l1.12-1.11H82v4H75.56L74.78,64H74v1.59h4.63v2H90.27V65.84l.67-.67h.89l.52.52v1.82H97.5V65.25h2.12l.52.52h1.07v1.74H111v-1.3h-.93V63.1h-1v1.63s-6.23.07-9.75-4.71H95.58a5.13,5.13,0,0,0-3.34-1.85V56.76A9.86,9.86,0,0,1,90,56.35l-73.33-.93V49.31Z"/><path class="cls-2" d="M275.24,65.69v1.86a3.08,3.08,0,0,1-2,.63c-1.15.15-2.15.52-2.45,1.78a3,3,0,0,0,1.12,3.33c2.33,1.93,2.48,2,1.11,4.71-2.63,5.19-4.82,10.64-7.82,15.65-.89,1.44-1.93,2.3-3.56,2-2.89-.52-4.64,1.15-6.34,3a2.32,2.32,0,0,0-.6,2.15c0,.3,0,.63.08.93.89,5-2.56,5.82-6.75,5.49a1.46,1.46,0,0,0,.93,1.63c1.81.85,1.55,1.89.37,3-1.37,1.29-1.82,2.59-.41,4.22a1.43,1.43,0,0,1-.89,2.49c-2.11.44-2.93,1.44-2.45,3.59A1.31,1.31,0,0,1,244,123.9c-1.85-.3-3-.11-3.11,2.15,0,1-1,1.3-2,1.07-1.52-.37-2.41,0-2.56,1.71-.11,1.37-1.11,1.59-2.22,1.33-1.56-.33-2.6,0-2.89,1.75a1.46,1.46,0,0,1-1.93,1.22c-1.71-.33-2.67.22-2.86,2.08a1.21,1.21,0,0,1-1.74,1c-2.15-1-3.19.23-4.11,1.82h-1.86c-1.41-.89-2.82-.26-4.19,0H65c-1.93-.93-3.93-.33-5.9-.26-.85,0-1.11-.78-1.63-1.15-1-.7-2-1.22-3.19-.29-1.37,1.07-2.26.37-2.52-1-.41-2-1.48-2.4-3.19-1.52a1.36,1.36,0,0,1-2.18-.88c-.6-2-1.56-2.75-3.6-1.82-1.26.59-1.89-.26-2-1.45-.22-1.74-1-2.33-2.71-1.55-1.4.63-2.33.18-2.37-1.41-.07-2-1.22-2.41-2.82-2.08s-2.26-.15-2.37-1.67-.93-2.26-2.48-2c-1.75.26-2.56-.44-2.26-2.18s-.49-2.56-2.12-2.64-2.37-.74-1.59-2.37c.7-1.44,0-2.45-1-3.22-2.48-1.86-2.52-1.82-.82-4.19-3.15-.12-3.85-.82-3.52-4.12.19-1.63,0-3.26.15-4.89s.93-2.86,1.59-4.23c1.67-2.08,2.49-4.71,4.49-6.56A11.64,11.64,0,0,1,30.1,83c4.08-.52,8.12-1.48,12.27-1.29,2.56.11,4-2,5.49-3.56.71-.74.33-1.93-.41-2.78-1.37-1.52-2.11-3.34-1-5.08a4.74,4.74,0,0,1,5.45-1.78c3.11,1,6.19.18,9.27.55,1.41.19,4.67-2.7,5.15-4.22,1.11-3.52,1.71-3.9,5.3-3.86,2.64,0,5.16-1.11,7.86-.78,1.56.19,2.49.67,2.52,2.38s-.7,2.63-2.48,2.63a33.24,33.24,0,0,0-3.75-.15c.38.07,1.12-.22,1.56.07,3.38,2.23,7.23.23,10.72,1.26.29.08.07.19.22,0,1.93-2.18,3.52-.89,5.37.23.89.52,2.12,0,3.16-.37.11-.3,1.15.37.59-.6-.45-.78.15-.89.67-1.07a2.4,2.4,0,0,1,2,.44c1.85,2,4.22,1.52,6.52,1.63,1.82.08,2.75-.44,2-2.44-2.67,1.15-5.16.29-7.31-1.34s-4.08-2.82-6.67-3a3.55,3.55,0,0,1-2.34-1c-2.22-2.37-5.15-2.19-8-2.45-.29,0,.08,0-.22,0-15.49,0-30.95-.85-46.45-.44-6.23.15-12.42-.48-18.65-.52-2.59,0-2.78-.26-2.78-2.82,0-3.63,0-3.59,3.78-3.74,15.31-.52,30.66-.22,46-.56,7.31-.15,14.61-.26,22-.37.78,0,1.71.11,2.26-.44,2.12-2.12,4.9-2.19,7.57-2.56a5.16,5.16,0,0,0,2.74-1.89,6.39,6.39,0,0,1,3-2c.51-.08,1.07.07,1.4-.19-1.22-.14-2.44.86-3.85.37-.63-1.07-.08-1.55.89-1.92a24.13,24.13,0,0,1,10.12-1,4.56,4.56,0,0,1,2.45,1.26,6,6,0,0,0,4.41,1.19,2.53,2.53,0,0,0,2.52-2.26c.48-2.6,1.19-3,3.41-1.78a5.94,5.94,0,0,0,3.82.59c4.15-.59,8.38-.67,12.53-1,.78-.07,1.7-.29,2.19.41,1.41,2,3.37,1.63,5.3,1.48,2.52-.22,3.08-1,3.15-3.59.07-4.75,2.52-7.53,7.45-6.86a16.32,16.32,0,0,0,6.71-.26,7.7,7.7,0,0,1,3.45.19,14.88,14.88,0,0,0,6.26.14c4-.92,5.42,1.49,6.31,5.3a2.65,2.65,0,0,1,0,.93c-.26,2.3.67,3.75,3,4.23a5.89,5.89,0,0,1,1.34.7A103.93,103.93,0,0,1,194,53.24c1.74,3.7,3.18,7.56,4.63,11.41.56,1.52,1.56,1.93,3.11,2.23,3.68.67,6.49-1.63,9.68-2.45,1.22-.29.74-2.11,1.48-3,.52-.41,1.12-.19,1.67-.3a1,1,0,0,1,.74,1.08c-.11,2.11,1.08,2.37,2.82,2.22,5-.44,10.12.19,15.16.08,1.56,0,2.56-.23,2.56-2.08,0-1.59,1.08-2.08,2.49-2.15,4.33-.19,8.71-.15,13.05,0,.92,0,2,0,2.07,1.37-.07,1.6-.4,3.38,2.12,3.23a11.89,11.89,0,0,1,4.93,1.37,8.26,8.26,0,0,0,8-.63C271,64.1,273.46,64.14,275.24,65.69ZM64.92,138.14c-.56-.75-1.49-.67-2.23-.93-1.41-.52-2.52.81-3.85.52v.44C60.87,138.14,62.91,138.14,64.92,138.14Zm153.78,0c-1.41-1.86-2.82-.56-4.19,0Zm-174.62-13a1.21,1.21,0,0,1-.15.89c-.07.56-.07,1.07.63,1.3,1,.29,1.26-.6,1.52-1.12.93-1.74,2.12-1.37,3.15-.33.67.67-.14,1.6-.18,2.45s-.19,1.3.74,1.67,1.11-.26,1.48-.67c.74-.78,1.19-1.52.41-2.63a11.63,11.63,0,0,1-1.48-4.16c-.26-1.11.33-2.59-.52-3.33s-2.19-.41-3.26.22c-.15.07-.45-.07-.63-.15-2.27-.78-3-.41-4,1.78a1.15,1.15,0,0,1-1.34.71c-.92-.37-1.22-.12-1.37.77-.07.56-.63,1.12.11,1.67.93.71,1.37-.18,2-.55C43.6,122.38,43.82,122.53,44.08,125.16ZM56.65,73.29c.52-.4,1.11-2.48-1.26-2.18A16.69,16.69,0,0,1,52.5,71c2.22,2.7-1.3,3.41-1.6,5.56A12.94,12.94,0,0,0,56.65,73.29ZM214.06,61.36V27.62h-.63V58.28c0,1.07-.14,2.15-.18,3.22C213.55,61.69,213.92,62,214.06,61.36ZM232,125.6c.37.34.63,1,1.34.56a1,1,0,0,0,.48-1c0-1.67-2-3.53-4.15-3.45-1.67.07-.75,1.78-1.34,2.82C230.19,123.08,230.93,124.75,232,125.6ZM34.07,115.34c.78.29,1.85.92,2.15-.08A1.9,1.9,0,0,0,34.7,113a9.18,9.18,0,0,1-3.89-1.93C31.47,114.3,31.62,114.45,34.07,115.34Zm-4.82-10.27c-.63,0-1.56,0-1.19.85.52,1.11-.11,3.22,1,3.22,1.52,0,.41-2,1-3S30,105,29.25,105.07Zm151.6,27.76c-.78.15-1.67.49-1.56,1.64.07.81.41,1.22,1.3,1.22,1.22,0,1-.89,1.18-1.56S181.59,132.72,180.85,132.83ZM78.48,135.61a.75.75,0,0,0,1-.66c.37-1.86-1.38-1.67-2.56-2.93C77.45,133.69,76.93,135.13,78.48,135.61ZM38.07,120.38a2.23,2.23,0,0,0-2,1.89c-.15.59.6.85,1.11.92,1.41.19,1.08-1.22,1.52-1.77C38.78,120.82,38.74,120.34,38.07,120.38Zm189.41,8.67c.45.41.89.41,1.23,0,1-1.3-.3-2.15-.74-3.26C227.67,126.9,226.08,127.79,227.48,129.05ZM43.63,123.19c-1-.7-1.66,0-2,1-.23.67-.86,1.33.29,1.82,1,.4,1.37-.12,1.63-.89C44.19,124.49,44.45,123.75,43.63,123.19Zm.3,2.86c.52-1.3,1.6-2.63-.41-3.71-1.59-.89-1.74.63-2.37,1.34a5.27,5.27,0,0,1,.45.48c.59-.22.77-1.3,1.7-.89s.15,1.19.22,1.82A9.88,9.88,0,0,0,43.93,126.05Zm4.56,1.11c.22-.63,0-1.18-.67-1.18-1.11,0-1.33,1.11-1.66,1.89s.52.92,1.22,1.18C48.38,128.9,48.23,127.9,48.49,127.16Zm27.29,5.75c-.89,0-1.11,1-1.15,1.78,0,.63.07,1.11.81,1.11s1.38-.33,1.15-1.48C76.41,134,76.74,132.83,75.78,132.91Zm61.84,2.85c.63,0,1.26-.18,1.15-1s0-1.85-.78-2-1.19.74-1.19,1.89C136.88,134.91,136.47,135.8,137.62,135.76Zm-39.78-.07a1,1,0,0,0,1.55-.52c.34-1.26-.44-2-1.89-2.52C97.87,133.72,96.54,134.8,97.84,135.69Zm132-10.68a.6.6,0,0,0-.78.59c.22.86.45,1.9,1.34,2.23.59.22,1-.45,1.33-1A2.91,2.91,0,0,0,229.82,125Zm-69.4,10.75c.63.08,1.33-.07,1.33-.89s-.11-1.63-1.07-1.81-.74.74-1,1.33C159.86,134.87,159.42,135.69,160.42,135.76ZM53.76,130.31c0-.63-.49-1.33-1.08-1.26s-1,.93-1.11,1.6.7.85,1.26,1C53.68,131.57,53.83,130.94,53.76,130.31Zm40.74,4.53a.88.88,0,0,0,1.19.81c1.26-.44.92-1.59.89-2.63C95.8,133.58,94.39,133.46,94.5,134.84Zm141-9.9a1,1,0,0,0,.85-1.34c-.52-1.15-1.48-1-2.63-.63C234.34,123.64,234.05,125.09,235.46,124.94Zm19.76-59.32c-1.26-.93-1-2.86-2.34-3.75C252.66,63.77,252.55,65.58,255.22,65.62ZM139.29,134.06c.22.63.26,1.55,1.29,1.59a.85.85,0,0,0,1-.93c0-1-.74-1.14-1.4-1.4C139.69,133.43,139,133.46,139.29,134.06Zm-21.17-.89c-.71,0-.74.63-.56,1.18s0,1.38.89,1.3c.78-.07.74-.85.89-1.44A1.12,1.12,0,0,0,118.12,133.17Zm116.56-13.39c2.22.71,2.78-1.63,4.22-2.11C237.46,118.19,235.79,118.26,234.68,119.78Zm-32,13.72c-.66-.11-.7.45-.7.89s.07,1.19.74,1.22.85-.51,1-1.11S203.2,133.61,202.68,133.5ZM107.92,40.93c-.07,0-.11.33,0,.37.89.93,1.86-.08,2.78.07.12,0,.26-.11,1-.37C110,40.52,109,40.41,107.92,40.93ZM31.4,118.41c-.26.11-.18.56,0,.82.78,1,1.63.55,2.67-.08C33.11,118.78,32.4,118,31.4,118.41ZM186,39.52c.33-1.67,2.41-.71,3.08-2.26-1.52.44-3,.48-4.08,1.74C185.33,39.19,185.67,39.37,186,39.52Zm40.3,89.57a1.9,1.9,0,0,0-1.19,1.3.48.48,0,0,0,.63.63,1.76,1.76,0,0,0,1.23-1.15C226.93,129.42,226.67,129,226.3,129.09ZM98.36,67.4c.14,0,.22-.37.26-.56.11-.74-.19-1.11-1-1.15-.15,0-.29-.29-.41-.44-1.07.41-.22.89,0,1.33C97.73,66.62,97.65,67.62,98.36,67.4ZM106,40.52c-1.49.56-3.15,0-4.6.78l.48.11c.48,0,.93,0,1.41,0A3,3,0,0,0,106,40.52Zm76.37,94.54c.11.67.59.85,1.22.78.37,0,.93-.15.78-.6-.18-.63-.93-.74-1.41-1A.62.62,0,0,0,182.33,135.06Zm-25.29.22c0,.37.41.45.71.45,1.07,0,1.26-.63,1-2.08C158.19,134.5,157,134.21,157,135.28Zm-40.22-.56c0-.25-.08-.66-.52-.51-.59.18-1.3.29-1.45,1-.11.44.34.63,1,.55C116.23,135.69,116.93,135.65,116.82,134.72ZM72,135.24c0,.12.44.45.67.45,1,0,1.33-.56,1-1.71C73,134.5,72.07,134.24,72,135.24Zm-17.31-4c-.12,0-.37.37-.34.52.19,1.11,1.23.78,1.93,1.07C55.87,132.09,55.54,131.35,54.65,131.24Zm65.47,3.41c-.11.07-.11.48,0,.63.48.85,1.08.56,2,0C121.27,135,120.86,134.21,120.12,134.65Zm81.19.41c.07-.11-.15-.56-.22-.56a2.15,2.15,0,0,0-1.86,1.11C200.2,136,200.9,136,201.31,135.06ZM26.4,113.44c-.67-1.26-1-2.15-2-2.63C24.84,111.63,24.65,112.89,26.4,113.44Zm-3-8a5.08,5.08,0,0,0,.33,3.37A3.7,3.7,0,0,0,23.43,105.4Z"/><text class="cls-3" transform="translate(58.4 94.71)">Germa<tspan class="cls-4" x="131.79" y="0">n</tspan><tspan class="cls-5" x="155.24" y="0">y</tspan></text></g></g></svg>