<svg xmlns="http://www.w3.org/2000/svg" viewBox="0 0 292.4 165.5"><defs><style>.cls-1{fill:#263324;}.cls-2{fill:#121e11;}.cls-3{isolation:isolate;font-size:46.9px;fill:#fff;font-family:Jost-Light, Jost*;}</style></defs><title>자산 6lk</title><g id="레이어_2" data-name="레이어 2"><g id="레이어_1-2" data-name="레이어 1"><rect class="cls-1" width="292.4" height="165.5"/><path class="cls-2" d="M276.1,113.33v1.6a7.23,7.23,0,0,0-1.9,5.8c.1,1.5-.3,2.3-1.8,2.7-.9.2-1.8.6-1.8,1.6a2.46,2.46,0,0,1-2.9,2.6.75.75,0,0,0-.5.1c-2.4,2.7-6.4,2.1-9,4.4-.1.1-.3.3-.4.3-3.4-1.1-6,1.5-9.1,1.9s-6,1.7-9,2.7c-1.5.5-2.6,1.7-4.4.9a1.7,1.7,0,0,0-1,0c-4.3,1.5-8.8.9-13.2.9H87.9a78.5,78.5,0,0,0-9.7.1c-3.3.3-6.1-1.4-9.2-1.6-.7,0-1.1-.8-1.6-1.3-1-1.2-2.1-2.1-3.8-1.8a1.9,1.9,0,0,1-2.2-1.1c-.2-.3-.3-.7-.6-.8-3.2-1.1-5.9-2.9-8.9-4.2-1-.4-2.1-.5-2.9-1.5-1.1-1.4-2.5-2.4-4.5-1.9a1.73,1.73,0,0,1-2.1-1.1,3.84,3.84,0,0,0-3.8-2.3,2.08,2.08,0,0,1-2.2-1.8c-.5-1.7-1.3-3.1-3-3.7-.2-.1-.6-.2-.6-.4-.7-3.2-2.6-6.1-2.4-9.4.1-1.6.6-3.3,0-4.9a2.1,2.1,0,0,1,1.1-3c1.2-.4.9-1.5,1.1-2.4.8-1.7-.2-4.2,2.3-4.9,0-.4,0-.6-.2-.7-2.9-2.3-2.8-3.2.6-4.7.4-.2.9-.3,1.2-.5,6.7-4.6,14.1-3.9,21.6-3.1,2.9.3,5.9-.2,8.9.3,3.3.3,6.5.9,9.7-.6,0-.7,2.2-.7.7-1.9s-2.2.9-3.5.9A2.59,2.59,0,0,1,70.8,79a9.32,9.32,0,0,1-.2-4.4c.4-2.6,2-3.4,4.3-2.3a17.87,17.87,0,0,0,3.9,1.3c4.5.7,7.4-1.5,9.9-4.8.7-.6,1.3-1.2,1.9-1.8.3-.2-.1,0,.2-.2,5.7-3.6,5.9-4.7,1.6-10.3-1.3-.9-2.5.1-3.7.1-9.3.3-18.8.9-28-.1-11.4-1.2-22.8-.4-34.2-.9-2.5-.1-4.9.5-7.3.5-2,0-3-.6-2.9-2.9.2-4.4.9-5.2,5.3-4,3.2.9,6.4.5,9.6.4,6.4-.3,12.9-.1,19.3-.3,11.6-.5,23.2-.5,34.7-.5h5A3.88,3.88,0,0,0,93.7,47c2.5-3.5,6.2-4.9,10.3-5.5,5.5-.8,11-1.5,16.6-2.2a2.86,2.86,0,0,0,2.8-2.8c.3-2.1.9-3.9,3.4-4.6,2.1-.6.2-1.7-.2-2.5s-.1-1.5.6-2,1.5-.3,2-.9h1.6c1.1.4,1.8,1.1,1.5,2.3-.7,2.6,1,4.9.9,7.4,0,.5.4,1.1,1,.9.9-.3,2.1.1,2.6-.7,1.2-1.7,2.9-2.6,4.4-1.4,3.2,2.6,6.8,1.6,10.2,1.5a8.13,8.13,0,0,1,3.1.2c3,1.1,6.2.5,9.3.6,2.2,0,4.1.3,5.7,2,1,1.1,2.5,1.1,3.8,1.7s2.3,1.3,2.4,2.8-1.2,1.8-2.3,2.1c-1.3.4-1.3,1.2-.9,2.2a4.17,4.17,0,0,0,2.3,2.4c1.6.7,3.1,1.8,4.7,2.2,4.9,1.4,5.9,5.7,7.6,9.6.4,1,.2,2.1-1.1,2.2-2.1.1-4.3.7-6.5-.2,2,1.3,4.1-.1,6.1.5.8.7,1.2,2.1,2.6,1.9,1.6.3,1.5-1.8,2.8-1.9,3.2-.1,6.3.8,9.5.9,5.7.9,11.3,1.6,17,2.5,1.7.3,3.2.6,3.9,2.5.5,1.4,2.1,1.3,3.4,1.6,5,1,10.2.7,15.2,1.5,6.2,1,12.1,3.1,18.1,4.9,1.1.3,1.6,1.3,2.3,2.1,1.1.8,2.2,1.7,3.7,1.5,1.1-.7,2.3-1.4,3.6-.6.7.4,1.1-.1,1.7-.4,2-.8,3-.3,2.9,1.7-.2,4.1,1.4,7.6,2.3,11.4a4.45,4.45,0,0,1-.6,3.2,2.09,2.09,0,0,1-.4.6,10.47,10.47,0,0,1-.8,1.1,8.12,8.12,0,0,1-1,.9,2.65,2.65,0,0,1-.6.5c-1.6.7-.6,1,.2,1.4l1.6,1.3c.3.2.5.4.8.6.7.4,1.6.6,1.9,1.5A9.18,9.18,0,0,0,276.1,113.33ZM62,119c-1.4.1-3.2.3-3.2,2.5,0,1.4-.7,1.5-1.5.4-.4-.5-.8-1.3-1.5-.4-1.7,2-1.2,3.9,1,5.3,1.8,1.2,1.7-.7,2.5-1.2s.8-1.8,2-1.3.2,1.5.1,2.2c-.1.9-1.5,2,.1,2.6,1.3.4,2.9,2.5,4.2-.2.3-.7.8-2.1,2.1-1.4s-.1,1.7-.1,2.5c0,.2-.1.3-.2.5-.3.8-.4,1.6.6,1.9s1.9,1.8,2.9,1a2.19,2.19,0,0,0,1.1-2.8c-1.8-4.2-.8-8,2.8-11.7C70.1,119,66.1,118.83,62,119Zm182.9,2.5a10.55,10.55,0,0,1-8,.2c-1-.2-2.1-.6-1.4,1.2a9.4,9.4,0,0,1,.2,6.8c-1.6,4.6-1.4,4.8,3.2,4,.7-1,.3-2.1.2-3.1-.2-.7-.2-1.4.7-1.6s1.1.4,1.2,1c.4,2.7,1.9,2.8,4,1.7a2,2,0,0,1,.8-.1,1.35,1.35,0,0,0,.1-1.6c0-1-.9-2.6.4-3,1.6-.5,1.4,1.3,1.7,2.2.5,1.3,1.3,1.6,2.4,1.1.9-.4,2.5-.1,2.2-2.1-.3-1.6-.4-2.9-2-3.9a9,9,0,0,1-3.8-3.7C245.9,120.53,245.5,121.23,244.9,121.53Zm-89.2,11.7a3,3,0,0,0,.2-3.6c-.7-1-.4-2.4-.5-3.6-.2-2.2,1.4-3.8,1.9-5.8h-7.6c2.6,3.9,2.9,7.6,1,11.7-1.2,2.6.2,4.3,3,4.2.4,0,.9.1,1.3.1C156.2,135.53,154.9,134.13,155.7,133.23Zm63.5,2.7c.4-1,.8-2.1,0-3.2-.6-.8-1-1.6-1.5-2.4-1-1.7-2-1.1-3,0-1.1,1.3.2,2.6.1,3.8,0,1.6.5,2.6,2.9,2C217.8,136.13,218.8,136.93,219.2,135.93Zm-41.5-4.2c-.2-1.2-.8-2.3-2.3-2.3-.9,0-3.4,3.7-3.4,5,0,1.8,1,2.2,2.4,2S177.9,133.53,177.7,131.73Zm-43.6,1c.3-1.2-.2-3.2-2.1-3.1-2.2.1-2.6,2.3-2.9,4s.1,3.3,2.5,2.7C135.1,137,133.8,134,134.1,132.73Zm61.5-4.7c-.6,1.5-.9,3.1-2,4.5a3,3,0,0,0,0,3.4c.8,1.2,2.4.3,3.6.2s.8-1.6.8-2.4c0-2.1-1.8-3.7-2-5.7A.21.21,0,0,0,195.6,128Zm-102,4.1c.1-.1,0-.2-.2-.4-.3-1.1-.6-2.1-2-2.3-1.7-.2-1.6,1.2-2.2,2s-1.4,1.8-2.1,2.7c-1,1.2-.8,2,.9,2.2,2,.2,3.6,0,3.4-2.6-.1-1.4.8-1.8,2-1.4Zm17.7-4.1c-.6,2.1-1.3,4.2-3.1,5.6-.8.6-.5,1.4-.2,2.2s1,.5,1.5.6c2,.1,2.9-.5,3.3-2.7a7.89,7.89,0,0,0-.7-4.6C111.8,128.83,112.3,127.83,111.3,128Zm.9-3.7c.6-1.3,1.2-2.6,1.9-4.1h-4.6c.7,1.6,1.3,3.1,1.9,4.6C111.8,125.13,112,124.73,112.2,124.33Zm139.2-3.7c-.1.8.8,1.3,1.6,1.2a1.29,1.29,0,0,1,1.3.6c.3.6,1,1,1.5.6a1.81,1.81,0,0,0,.2-2.2,10.39,10.39,0,0,0-2.4-1.7C252.8,119.73,251.5,119.73,251.4,120.63Zm14.2-.9c-1.2-.9-3.8,0-4.1,1.4a2.46,2.46,0,0,0,.2,1.7c.2.4,1,.1,1.1-.1.8-1.4,2.7-1,3.5-2.5C266.1,120.13,265.9,119.93,265.6,119.73Zm-167.4,16c-2.1-.9-3.4-2.5-4.9-4v.5C93.6,136.93,93.8,137.13,98.2,135.73Zm151.7-24.4c-1.7.2-1.4,1.9-1.9,3-.2.4.2,1.2.8,1,1.1-.4,2.4-.8,2.2-2.3C251,112.13,251,111.23,249.9,111.33Zm-53.8,13.6c.5-1.3,1.1-2.7,1.7-4.1h-3.7c.5,1.5,1,2.7,1.5,4C195.7,125.13,195.9,125.13,196.1,124.93Zm73.1-13.1c.3-.3.2-1-.2-1.1a2.74,2.74,0,0,0-1.2.2,2,2,0,0,0-1.1,2.3c.1,1.5,1.3,1.5,2.5,1.9C269.4,113.83,268.2,112.83,269.2,111.83Zm-14.6,15.7c1.7,3.4,3.1,0,4.7-.1-1.5-.7-3.2-.2-4.6-1A.91.91,0,0,0,254.6,127.53Zm-92.6,8.4a11.91,11.91,0,0,1-4.4-3C157.9,136.73,157.9,136.73,162,135.93Zm69.7-11.3c-.8.1-1.1.7-1,1.5s.2,1.8,1.1,1.8.7-1.2.8-2C232.4,125.53,232.8,124.53,231.7,124.63Zm-52.5,9.2c0,2.8,0,2.8,4.7,2.1C181.7,135.53,180.6,134.43,179.2,133.83Zm-19.5-5.7c1,.1,1.1-.9,1.1-1.7s-.2-1.5-1-1.6-.7,1-.9,1.5C159.1,127,158.9,128,159.7,128.13ZM116,128c.3.4.8,0,1-.3.6-1.2.6-2.3-1-3A3,3,0,0,0,116,128Zm-40.8.1c.3.4.8,0,1-.3.6-1.2.6-2.3-.9-3A2.7,2.7,0,0,0,75.2,128.13ZM73.7,134c-.1,0-.4.9-.2,1.1.8,1.1,1.8,1.4,3.9.8C75.6,135.23,75,134,73.7,134Zm73.8-9.1c-.9,0-1,.8-.9,1.6s-.1,1.6.9,1.6.7-1,.8-1.6S148.6,124.93,147.5,124.93Zm61.5,11.2c2.2.3,4,.7,3.3-2.3C211.1,134.63,210.2,135.33,209,136.13Zm-8.4-8.1c.9-.1.8-1,.8-1.7s-.1-1.6-.9-1.5-.7,1-.8,1.7C199.8,127.23,199.6,128.13,200.6,128Zm-9.4-3.3c-.9,0-1.1.7-1,1.5s0,1.8,1.1,1.7c.9-.1.4-1.1.6-1.7C191.8,125.53,192.1,124.73,191.2,124.73Zm-84.4,0c-.8,0-.9.8-.9,1.6s.1,1.6.9,1.6c1,0,.6-1,.8-1.7C107.5,125.63,107.9,124.63,106.8,124.73Zm-3.9-3.1c0,1.1.8,1.4,1.7,1.6.4.1,1.2-.3,1.1-.8-.2-1.1-1.3-1.2-2.1-1.6C103,120.73,102.9,121.13,102.9,121.63Zm84.3,0c.1,1.1.9,1.4,1.7,1.5.4.1,1.2-.3,1.1-.8-.2-1-1.3-1.2-2.1-1.6C187.3,120.83,187.2,121.13,187.2,121.63Zm-69,14.4c-1-.6-2-1.3-3.3-2.2C115.2,136.73,115.4,136.83,118.2,136Zm1.4-15c-.8.2-1.8.5-2,1.4-.2.7.7.9,1.3.8a1.43,1.43,0,0,0,1.4-1.6C120.2,121.33,120.2,120.83,119.6,121Zm44.1,1c0-.5.1-1.1-.7-.9a2.47,2.47,0,0,0-2,1.4c-.1.6.6.6,1.1.9C162.8,123.13,163.6,122.93,163.7,122Zm39.1,7.7a.8.8,0,0,0-.9.9c.2.8,1,1,1.8,1.2.6.2.7-.2.7-.7A2.48,2.48,0,0,0,202.8,129.73Zm-59.2-8c-.1,1,.7,1.3,1.4,1.6.5.2,1.2-.2,1.2-.6,0-1-1.1-1.1-1.7-1.5C144,121.13,143.7,121.13,143.6,121.73Zm85.5-.4c-.5,0-1.2-.1-1.2.6,0,.9.9,1.1,1.5,1.2a1.23,1.23,0,0,0,1.3-.8A1.62,1.62,0,0,0,229.1,121.33Zm42.4-21.5a6.28,6.28,0,0,0-2.9,3.1c.9-1.1,1.6-.7,2.2,0,.3-.5-.3-1.2.3-1.7C272,100.93,271.7,100.33,271.5,99.83Zm-69.7,22.5c-.3.6.5.9.9.9a1.47,1.47,0,0,0,1.8-1.4c0-.4,0-.9-.7-.8S202.1,121.53,201.8,122.33Zm-76.4,8.2c.1-.2-.3-.8-.5-.8-1.2,0-1.7.8-2.4,2.3C124,131.83,125,131.73,125.4,130.53Zm13.2,0c-.1,1.1,1,1.1,1.7,1.5.3.2.7.1.7-.3.1-1-.8-1.4-1.5-1.8A.75.75,0,0,0,138.6,130.53Zm-59.8-9.3a2.24,2.24,0,0,0-2,1.3c-.2.5.5.8,1.1.8a1.38,1.38,0,0,0,1.5-1C79.4,121.53,79.4,121.13,78.8,121.23Zm32.5,6.8c.3.3.6.7.9,1v-4.7c-.3.2-.6.3-.9.5Zm7.3,1.7c-.4-.1-.9.4-.9.8.2,1.1,1.3,1.2,2.5,1.6C120.1,130.73,119.6,130,118.6,129.73Zm45,1.6a1.7,1.7,0,0,0-1.5-1.5c-.5-.1-1.1.4-.9.9.3.8,1.1,1,2,1.2C163.5,132,163.6,131.63,163.6,131.33Zm-79.1-.6c.1-.4-.2-1.1-.6-.9a2.38,2.38,0,0,0-1.9,2.3C83.2,132,84.2,131.83,84.5,130.73Zm82,.4c-.2.6.1.9.6.8.7-.2,1.6-.4,1.7-1.3.1-.4-.1-.8-.7-1A3.81,3.81,0,0,0,166.5,131.13Zm-20.3-.4c.1-.2-.6-1-.6-1-.9.5-1.8,1-1.8,2.4A2.49,2.49,0,0,0,146.2,130.73Zm63.3-.3c0-.2-.4-.8-.6-.7a2.51,2.51,0,0,0-1.9,2.4C208.3,131.73,209.3,131.73,209.5,130.43Zm-43.2-9.2c-.2.2-.1.9.1,1.2.9,1,1.4-.1,2.5-.5C167.8,121.33,167.2,120.53,166.3,121.23Zm18.3,1.1c.3-.3.5-.9.2-1.1-.9-.7-1.5.3-2.5.8C183.2,122.53,183.8,123.43,184.6,122.33Zm38.9,7.3c-.3-.1-.8.5-.7.9.4,1,1.2,1.3,2.5,1.1A2.36,2.36,0,0,0,223.5,129.63Zm-145.7.3a.7.7,0,0,0-.9.7c0,1.1,1.1,1.1,1.8,1.4.4.2.5-.2.6-.8A2.22,2.22,0,0,0,77.8,129.93Zm20.7-.2c-.2,0-.7.5-.6.7a2.15,2.15,0,0,0,2.5,1.3C100.2,130.43,99.6,129.83,98.5,129.73Zm84.5,0a.69.69,0,0,0-.8.8c.2.9,1,1.1,1.7,1.3.4.1.7-.1.6-.8A1.85,1.85,0,0,0,183,129.73Zm47.4.7c.1-.2-.4-.8-.5-.8-1.1.1-1.7.8-2,2.2A2.6,2.6,0,0,0,230.4,130.43Zm-40.6,0c.1-.2-.4-.8-.5-.7-1.1.1-1.5.9-2,2C188.7,131.83,189.4,131.43,189.8,130.43Zm-107.8-9c-.2.1-.2.8,0,1,.8,1,1.5.2,2.6-.5C83.5,121.63,82.9,120.63,82,121.43Zm23.5,8.9c.1-.2-.4-.7-.5-.7-1.1.1-1.5.9-2,2.1C104.4,131.73,105.2,131.43,105.5,130.33Zm18.1,6c2.6.1,2.6.1,3.2-1.2C125.9,135.93,124.6,135.33,123.6,136.33Zm101.5-13.9a.52.52,0,0,0,0-.9,1.77,1.77,0,0,0-2.3.4C223.6,122.43,224.2,123.33,225.1,122.43Zm-84.1,0a1.18,1.18,0,0,0,.1-1c-.9-.8-1.5,0-2.7.7C139.6,122.53,140.2,123.53,141,122.43Zm-41.1-1.2c-.6.1-1.3.3-1.4.9s.6.7,1.2.7.8-.6.9-1.1A.49.49,0,0,0,99.9,121.23Zm36.8,13.9a.57.57,0,0,0-.2.9c.7.8,1.4.6,2.3.1A1.88,1.88,0,0,0,136.7,135.13Zm4.7-5.8c-.1.1,0,.3,0,.6a2.1,2.1,0,0,0,2-.2A1.48,1.48,0,0,0,141.4,129.33Zm49.4,6.6c.1-.1,0-.4-.1-.4-1.1-.4-1.8.4-2.7.8C189,136.23,190,137,190.8,135.93Zm-67.4-14.6c-.4-.2-.6,0-.7.5s.1,1,.8,1a1.1,1.1,0,0,0,1-.6C124.4,121.63,123.8,121.53,123.4,121.33Zm32.3,11.9c-.6.9-.3,2.1-.7,3.1C157.4,135.73,155,134.13,155.7,133.23ZM51.6,122.73c0,.2.2.6.3.6.8-.1,1.1-.7,1.3-1.4C52.1,121.63,51.6,121.83,51.6,122.73Zm149.5,12.8c-.1,0-.3.6-.2.6a2.17,2.17,0,0,0,2.2.2C202.5,135.63,201.9,135.23,201.1,135.53Zm37.9-4.9c-.3,1,.4,2.1-.2,3.1C241.6,132.83,238.8,131.63,239,130.63Zm-158.7-1.5c-.3.1-.7.2-.7.6s.5.4.8.4.7-.1.7-.6S80.7,129,80.3,129.13Zm-30.7-6.7c0-.5-.2-.8-.8-.8-.4,0-.9.1-.8.7s.6.6,1,.7S49.6,122.93,49.6,122.43Zm156.1,7.1c0-.2-.3-.4-.5-.4s-.8.1-.8.3c-.1.4.3.5.7.6S205.8,130,205.7,129.53Zm1.8-6.9c.6,0,.6-.4.6-.9a.66.66,0,0,0-.7-.6c-.4,0-.4.4-.4.7S207.1,122.63,207.5,122.63ZM195.6,128h.4c0-1,.1-2.1.1-3.1a1.27,1.27,0,0,1-.6-.1C195.6,125.93,195.6,127,195.6,128ZM33.9,109.93a2.46,2.46,0,0,0,.8,1.7C34.7,109.73,34.6,109.53,33.9,109.93Zm133.7,26.2c-.1.1,0,.2.2.2.6,0,1.2.4,1.6-.3.1-.1,0-.4-.1-.5-.7-.5-1.1.2-1.6.4A.31.31,0,0,1,167.6,136.13ZM33,102.33c-.1.4-.4,1.1.5.8.4-.2.3-.9,0-1.6A4.45,4.45,0,0,0,33,102.33Zm132.6,33.8c.8.5,1.5.1,2.3.2v-.4C167.1,136,166.3,135.63,165.6,136.13Zm81.4-5.2a8.34,8.34,0,0,0-1.2-.8c0,.5-.1,1-.1,1.6A14.8,14.8,0,0,0,247,130.93Zm6.7-4.9c-.2.6.5,1,.9,1.5,0-.3.1-.7.1-1C254.4,126.13,253.8,125.83,253.7,126Zm-108.1,1.6-.3-.2c-.4.2-.6.6-.3,1.8C145.3,128.33,145.5,127.93,145.6,127.63ZM32.7,96c-.8.6-.5,1.4-.5,2.1C33.4,97.73,32.7,96.83,32.7,96Zm194.8,33.2c-.6-.1-1.1-.3-1.6.2C226.4,129.63,227,129.83,227.5,129.23Z"/><text class="cls-3" transform="translate(109.9 94.71)">Italy</text></g></g></svg>