<svg xmlns="http://www.w3.org/2000/svg" viewBox="0 0 292.4 165.5"><defs><style>.cls-1{fill:#352525;}.cls-2{fill:#211314;}.cls-3{isolation:isolate;font-size:46.9px;fill:#fff;font-family:Jost-Light, Jost*;}</style></defs><title>자산 5lk</title><g id="레이어_2" data-name="레이어 2"><g id="레이어_1-2" data-name="레이어 1"><rect class="cls-1" width="292.4" height="165.5"/><path class="cls-2" d="M174.54,53.64q14.94,0,29.88,0a1.39,1.39,0,0,1,1.48,1.26c.19,1,.32,2.05.44,3.09.26,1.76.51,3.53.73,5.33l.57,4.16c.19,1.45.38,2.9.6,4.35.06.34-.07.38-.32.38H181.06a3.31,3.31,0,0,1-1.54-.38,57.88,57.88,0,0,0-9.14-3.56,7.75,7.75,0,0,0-4.32.18,63.5,63.5,0,0,0-7,2.75c-.54.22-1,.47-1.58.72a3.08,3.08,0,0,1-1.41.29h-32.5a1.16,1.16,0,0,1-1.23-.79,9.72,9.72,0,0,1-1-5.24,10,10,0,0,1,4.09-7.34,12.58,12.58,0,0,1,4.76-1.92c2.08-.51,4.2-1,6.31-1.45,2.49-.6,5-1.2,7.5-1.77a2.69,2.69,0,0,1,.69-.06Q159.65,53.66,174.54,53.64Z"/><path class="cls-2" d="M260.47,94.05H160.2c-.73,0-.73,0-.73-.72,0-.92,0-1.83,0-2.78,0-.44-.16-.53-.57-.53-1.26,0-2.49,0-3.75,0a1.38,1.38,0,0,1-.6-.16,1.65,1.65,0,0,0-1.29,0,2.46,2.46,0,0,1-.82.19H124.76c-.28,0-.56.06-.75-.25-.07-.13-.22,0-.32,0-.66-.09-1.23.32-1.86.32h-3.06c.89-.54,1.61-1,2.37-1.48.53-.35,1.1-.66,1.64-1a.49.49,0,0,1,.72,0,.79.79,0,0,0,.79.19A5.6,5.6,0,0,0,127.6,86a2,2,0,0,0,.54-1.32.6.6,0,0,1,.34-.6c1.26-.79,2.53-1.54,3.76-2.33a1,1,0,0,1,.63-.13h39.37c.44,0,.5.1.38.51a1.7,1.7,0,0,0,0,1c.09.29.28.51.59.45s.57-.26.51-.6c-.13-.73.28-.73.82-.73h13.33c.48,0,.66.1.6.6s.1.66.51.69.53-.25.66-.56a1.58,1.58,0,0,0-.1-1c-.09-.32,0-.38.29-.38h.31c.44,0,1-.16,1.26.06s.07.79.07,1.2.15.69.56.69a.58.58,0,0,0,.6-.69c0-.6.25-.63.7-.63H206.6c.47,0,.75.06.69.63a.55.55,0,0,0,.6.66c.38,0,.57-.25.57-.63a2.13,2.13,0,0,0-.07-.91c-.15-.44,0-.38.32-.38h12.45c.38,0,.51.09.51.5,0,1.93,0,3.82,0,5.74,0,.47.1.63.6.6,2.18,0,4.32,0,6.5,0,.72,0,.72,0,.72.76s.19,1.32.13,2v.07c.31.5.82.15,1.2.25.22.06.44,0,.41-.32-.13-.82.34-1.57.22-2.39,0-.22.09-.32.31-.32h12.42c.47,0,.66.13.6.6-.09.73.35,1.42.22,2.18v.09c.38.38.85.09,1.26.16.25,0,.32-.16.35-.38,0-.73.09-1.42.09-2.14,0-.32.07-.51.44-.48H254a.72.72,0,0,1,.5.16A71.09,71.09,0,0,1,260,93.77.62.62,0,0,1,260.47,94.05Z"/><path class="cls-2" d="M185.41,97.65h77a1.39,1.39,0,0,1,1.14.47c1,1.07,2.08,2.17,3.18,3.18,1.42,1.33,2.75,2.71,4.13,4,.22.22.35.38,0,.66s-.28.19-.47,0a10.09,10.09,0,0,0-2.71-2c-.19-.09-.25-.25-.35-.41a1.39,1.39,0,0,0-1.48-.63c-.66.16-1.23-.19-1.86-.22a17.15,17.15,0,0,0-3.12-.12,1.34,1.34,0,0,1-.85-.23,1.19,1.19,0,0,0-1.45.1.85.85,0,0,1-.6.19h-3.85a.9.9,0,0,1-.63-.22,1.22,1.22,0,0,0-1.51,0,.85.85,0,0,1-.6.19h-3.91a1.33,1.33,0,0,1-.66-.22,1.22,1.22,0,0,0-1.51,0,1.24,1.24,0,0,1-.76.22H241a1,1,0,0,1-.7-.22,1.22,1.22,0,0,0-1.51,0,.85.85,0,0,1-.6.19h-4a1,1,0,0,1-.6-.19,1.26,1.26,0,0,0-1.51,0,.9.9,0,0,1-.63.22h-3.85a.9.9,0,0,1-.63-.22,1.26,1.26,0,0,0-1.51,0,.85.85,0,0,1-.6.19h-4a.93.93,0,0,1-.56-.16,1.25,1.25,0,0,0-1.64,0,.74.74,0,0,1-.51.16h-3.94a.67.67,0,0,1-.53-.19,1.24,1.24,0,0,0-1.58,0,.94.94,0,0,1-.54.16h-4a.9.9,0,0,1-.6-.19,1.18,1.18,0,0,0-1.54,0,.9.9,0,0,1-.6.19H201a1.12,1.12,0,0,1-.7-.22,1.22,1.22,0,0,0-1.51,0,1.31,1.31,0,0,1-.76.22H194.9a2.26,2.26,0,0,1-1.48-.32,1,1,0,0,0-1.29.13.82.82,0,0,1-.6.22h-3.91a1.09,1.09,0,0,1-.6-.19,1.22,1.22,0,0,0-1.54,0,.85.85,0,0,1-.6.19h-3.94a.85.85,0,0,1-.6-.19,1.24,1.24,0,0,0-1.58,0,.84.84,0,0,1-.53.16h-3.91a1,1,0,0,1-.57-.16,1.25,1.25,0,0,0-1.64,0,.72.72,0,0,1-.5.16h-4.07a.71.71,0,0,1-.54-.19,1.22,1.22,0,0,0-1.57,0,.94.94,0,0,1-.54.16H161a.9.9,0,0,1-.6-.19,1.18,1.18,0,0,0-1.54,0,.9.9,0,0,1-.6.19H154.4a1.3,1.3,0,0,1-.67-.19,1.33,1.33,0,0,0-1.7.06.69.69,0,0,1-.5.13h-3.79a.86.86,0,0,1-.59-.19,1.29,1.29,0,0,0-1.55,0,1.43,1.43,0,0,1-.82.23h-3.09a2.26,2.26,0,0,1-1.48-.32,1.06,1.06,0,0,0-1.26.09,1,1,0,0,1-.69.23h-3.79a1.06,1.06,0,0,1-.6-.16,1.22,1.22,0,0,0-1.57,0,.91.91,0,0,1-.54.19H127.7a.83.83,0,0,1-.54-.19,1.23,1.23,0,0,0-1.55,0,.81.81,0,0,1-.59.19h-3.91a.82.82,0,0,1-.54-.16,1.19,1.19,0,0,0-1.57,0,.85.85,0,0,1-.6.19h-3.94a.85.85,0,0,1-.6-.19,1.18,1.18,0,0,0-1.61.06.9.9,0,0,1-.63.22h-3.69a.71.71,0,0,1-.54-.19,1.21,1.21,0,0,0-1.79,0,.77.77,0,0,1-.51.19h-3.84a1.11,1.11,0,0,1-.79-.44c-.25-.25.09-.31.25-.41l4.89-3c.63-.38,1.26-.76,1.89-1.17a1.33,1.33,0,0,1,.79-.12h51.6C168.45,97.65,176.93,97.65,185.41,97.65Z"/><path class="cls-2" d="M106.45,69.24c-1.58,0-3.18.07-4.76,0-4.73-.18-9.49,0-14.22-.12-4.32-.13-8.67,0-13-.1-4.91-.15-9.8,0-14.72-.12-4.38-.13-8.76,0-13.14-.1-4.7-.15-9.43,0-14.12-.09s-9.08,0-13.65-.1c-.63,0-1.3-.12-1.93-.09-.28,0-.31-.13-.31-.38,0-.94,0-1.89,0-2.8,0-.45.25-.38.53-.38,2.34,0,4.7.06,7,0,4.51-.16,9,0,13.53-.13,4.25-.13,8.51,0,12.76-.09,5-.16,10,0,14.95-.13,4.5-.13,9,0,13.52-.1s9.2,0,13.81-.12c4.22-.13,8.44,0,12.67-.1,2.14-.06,4.29-.06,6.43-.09.41,0,.57.09.57.54,0,1.32,0,2.67,0,4,0,.47-.16.57-.6.57-1.8,0-3.6,0-5.36,0Z"/><path class="cls-2" d="M179,96.1H263a4.56,4.56,0,0,1,2.4.6c2.64,1.58,5.35,3.12,8,4.67.63.37,1.3.72,1.93,1.07.31.16.47.28.12.6-1,.94-1.95,1.95-3,2.9-.19.19-.32.19-.47,0l-.07-.07c-2.77-2.71-5.51-5.45-8.29-8.19a1.16,1.16,0,0,0-.94-.41H108.21a1.53,1.53,0,0,0-.91.25c-2.4,1.48-4.76,3-7.19,4.38a4.08,4.08,0,0,1-2.9.79,14.24,14.24,0,0,0-1.6,0,2.5,2.5,0,0,1-1.74-.38,1.11,1.11,0,0,0-1.45.16,2.46,2.46,0,0,1-1,.5,9,9,0,0,0-3.81,2.24,1.17,1.17,0,0,1-.6.32,1.36,1.36,0,0,0-1.07,1.26,1.91,1.91,0,0,1-.29,1,8.62,8.62,0,0,0-.75,1.73c-.07.25-.19.35-.48.28-1.54-.41-3.08-.79-4.66-1.13-.25-.07-.19-.19-.16-.35a15.38,15.38,0,0,1,.88-2.49A16.3,16.3,0,0,1,84.6,100a15.59,15.59,0,0,1,7.85-3.72,19.1,19.1,0,0,1,3.28-.22Q137.39,96.12,179,96.1Z"/><path class="cls-2" d="M123.19,72.49h84.2c.94,0,1,0,1.13,1a2.86,2.86,0,0,1-.69,2.71,2.73,2.73,0,0,1-1.74.6H130.56a8.7,8.7,0,0,1-5.1-1.77,9.72,9.72,0,0,1-2-2C123.25,72.81,123.12,72.71,123.19,72.49Z"/><path class="cls-2" d="M181.19,104.14a13.54,13.54,0,1,1-13.62,13A13.49,13.49,0,0,1,181.19,104.14Z"/><path class="cls-2" d="M105.54,117.66a13.54,13.54,0,1,1,13.36,13.56A13.52,13.52,0,0,1,105.54,117.66Z"/><path class="cls-2" d="M149.26,104.14c7.31-.19,13.52,6.12,13.52,13.55a13.56,13.56,0,1,1-27.11-.4A13.44,13.44,0,0,1,149.26,104.14Z"/><path class="cls-2" d="M196.32,117.63a13.54,13.54,0,1,1,13.27,13.59A13.56,13.56,0,0,1,196.32,117.63Z"/><path class="cls-2" d="M237.8,104.14a13.54,13.54,0,1,1-13.58,13.24A13.5,13.5,0,0,1,237.8,104.14Z"/><path class="cls-2" d="M162.59,77.06h32.28c.22,0,.66-.19.66.22s-.44.19-.66.19a22.36,22.36,0,0,0-4.32.22c-1.83.44-3.37,1.23-4.13,3.09-.12.32-.41.25-.63.25-3.88,0-7.75-.06-11.63,0-14,.22-27.93,0-41.89.1-.79,0-.76,0-.82-.79a3.34,3.34,0,0,0-1.58-2.93c-.09-.06-.25-.1-.22-.25s.19-.13.32-.13h.37Q146.42,77.08,162.59,77.06Z"/><path class="cls-2" d="M238.15,76.62h6.34c.44,0,.56.13.56.57,0,3.06,0,6.15,0,9.2,0,.51-.34,1-.22,1.52,0,.12-.09.19-.22.19H232.1c-.47,0-.57-.16-.6-.6-.44-3.44-.06-6.88-.19-10.28,0-.47.1-.63.6-.6Z"/><path class="cls-2" d="M138.67,94.05H119c-.88,0-.88,0-.88-.91V91.47c0-.32.06-.44.41-.44,1.2,0,2.43,0,3.63,0,.31,0,.41.12.41.41,0,.69.44,1.26.34,2,0,.35.38.16.63.19s.48,0,.41-.25c-.15-.73.38-1.32.35-2a.24.24,0,0,1,.28-.28h27.84c.53,0,.69.09.72.66a16,16,0,0,1,.32,1.73c0,.32.38.16.57.19s.41,0,.34-.28c-.19-.76.48-1.36.35-2.08,0-.22.16-.25.31-.25h3.76c.28,0,.37.12.37.37v2.27c0,.29-.12.38-.37.38h-.45C151.78,94.05,145.22,94.05,138.67,94.05Z"/><path class="cls-2" d="M176,48.22h10.78c.47,0,.63.12.6.6,0,1.38,0,2.74,0,4.13,0,.38-.1.5-.48.5H165.08c-.6,0-.5-.35-.5-.69s0-.66.53-.63c.82,0,1.67,0,2.49,0a1.23,1.23,0,0,0,.82-.22c.26-.19.48-.44.32-.82a.76.76,0,0,0-.82-.57c-.92,0-1.83,0-2.78,0-.5,0-.63-.16-.59-.63a7.23,7.23,0,0,0,0-1.14c0-.44.12-.53.56-.53C168.71,48.25,172.33,48.22,176,48.22Z"/><path class="cls-2" d="M122.53,104.14h2.71a.74.74,0,0,1,.44.16,1.28,1.28,0,0,0,1.61,0c.37-.29.56-.19.69.25.25.88.54,1.77.82,2.62a1,1,0,0,0,1.07.88c.63,0,.85-.38,1-.88.28-.89.54-1.77.79-2.62.12-.41.31-.54.69-.28a1.33,1.33,0,0,0,1.7,0,.92.92,0,0,1,.57-.13h3.18a2.39,2.39,0,0,1,1.45.28,1.06,1.06,0,0,0,1.27-.09c.41-.35.59-.28.78.22.51,1.39.48,1.36-.78,2.36a13.59,13.59,0,0,0-4.89,8,11.33,11.33,0,0,0-.28,2.77,10.69,10.69,0,0,0,.44,3.34c.12.38,0,.48-.35.48h-2.58c-.32,0-.48,0-.35-.44a12,12,0,0,0,.44-3.31,13.91,13.91,0,0,0-10.09-13.46C122.71,104.27,122.59,104.3,122.53,104.14Z"/><path class="cls-2" d="M162.91,115.2a14.49,14.49,0,0,0-2.08-5.1,12.46,12.46,0,0,0-2.62-3c-.38-.28-.66-.56-.41-1.1a10.62,10.62,0,0,0,.47-1.48c.13-.41.38-.54.7-.29a1.13,1.13,0,0,0,1.6,0,1,1,0,0,1,.57-.12h3.15a2.65,2.65,0,0,1,1.61.31c.41.29.85.1,1.26-.15s.6-.22.76.28c.25.88.53,1.8.82,2.68a1,1,0,0,0,.94.79,1,1,0,0,0,1-.79c.32-.91.57-1.83.86-2.74.12-.41.31-.54.69-.26a1.28,1.28,0,0,0,1.61,0,.74.74,0,0,1,.5-.15h3.18c0,.15-.12.19-.22.19a13.12,13.12,0,0,0-6,3.5,13.74,13.74,0,0,0-3.62,6.33c-.09.38-.28.47-.63.47-1.2,0-2.4,0-3.56,0C163.13,114.64,162.84,114.67,162.91,115.2Z"/><path class="cls-2" d="M254.26,82.36v5.2c0,.41-.06.57-.54.57q-3.21-.06-6.43,0c-.34,0-.5-.07-.5-.48-.22-3.46,0-7-.13-10.43,0-.5.13-.6.6-.6,2.14,0,4.29,0,6.43,0,.41,0,.57.1.57.54Z"/><path class="cls-2" d="M222.11,82.36v-5.2c0-.44.12-.54.56-.54,2.18,0,4.32,0,6.5,0,.41,0,.56.1.56.54,0,3.09,0,6.18,0,9.26,0,.48-.15.92-.12,1.39,0,.25-.13.32-.35.28h-6.78c-.41,0-.34-.25-.34-.5C222.11,85.86,222.11,84.09,222.11,82.36Z"/><path class="cls-2" d="M185,104.2c.32-.19.51,0,.73.13a1.11,1.11,0,0,0,1.45-.06.7.7,0,0,1,.56-.16h3.95a.81.81,0,0,1,.59.19,1.13,1.13,0,0,0,1.49,0c.41-.29.59-.22.75.22.29.91.57,1.86.85,2.77a1,1,0,0,0,2,0c.25-.88.53-1.8.82-2.68.19-.57.34-.63.82-.25a1.2,1.2,0,0,0,1.42,0,1.08,1.08,0,0,1,.69-.19h3.85c.25,0,.5-.06.66.28-.41.16-.82.29-1.2.48a14.28,14.28,0,0,0-5,3.65,14,14,0,0,0-3,5.64,13.56,13.56,0,0,0-.34,4.92,13.31,13.31,0,0,0,.34,2c.07.22,0,.38-.25.35a6.32,6.32,0,0,0-1.23,0c-.38,0-.41-.1-.34-.45a13.89,13.89,0,0,0-9.21-16.61,2.13,2.13,0,0,1-.31-.12C185,104.33,185,104.27,185,104.2Z"/><path class="cls-2" d="M190,95.79H117.14c-.16,0-.41.06-.41-.22s.22-.35.44-.35h146c.19,0,.28.13.28.31s-.16.22-.31.22h-.48Q226.25,95.81,190,95.79Z"/><path class="cls-2" d="M97.06,104.14h1.57a.82.82,0,0,1,.54.22,1.13,1.13,0,0,0,1.45,0c.44-.32.63-.25.79.25.28.92.56,1.83.85,2.74a.92.92,0,0,0,1,.76,1,1,0,0,0,1-.72c.29-.92.57-1.83.85-2.75.19-.53.35-.6.82-.25a1.17,1.17,0,0,0,1.45,0,.85.85,0,0,1,.6-.19h3.94a.85.85,0,0,1,.6.19,1.17,1.17,0,0,0,1.45,0,.89.89,0,0,1,.22-.16c.16-.06.38-.12.48.1s-.1.25-.26.31a15.81,15.81,0,0,0-2.71,1.33,13.77,13.77,0,0,0-4.54,4.66,14.16,14.16,0,0,0-1.89,8.14,9.3,9.3,0,0,0,.38,2.27c.09.28.06.47-.35.47-.63,0-1-.44-1.42-.73-.88-.56-1.7-1.19-2.55-1.79-.22-.16-.41-.29-.12-.57a8.51,8.51,0,0,0,2.11-5.58,8.82,8.82,0,0,0-2.81-6.65A8.34,8.34,0,0,0,99,105C98.35,104.71,97.78,104.46,97.06,104.14Z"/><path class="cls-2" d="M189.7,94.94H118.62c-.16,0-.41.06-.41-.23s.22-.34.44-.34h141.6a2,2,0,0,1,.6,0,.33.33,0,0,1,.31.38c0,.19-.22.16-.34.16H189.7Z"/><path class="cls-2" d="M94.38,121.26a8.58,8.58,0,1,1,.06-17.15,8.58,8.58,0,0,1-.06,17.15Z"/><path class="cls-2" d="M213.82,104.27c.12-.22.34-.13.53-.13h3.25a2.36,2.36,0,0,1,1.45.32,1.11,1.11,0,0,0,1.26-.13c.47-.28.6-.25.76.28.28.89.53,1.77.82,2.62a1,1,0,0,0,1,.82.93.93,0,0,0,1-.69c.29-.89.57-1.77.85-2.68.19-.67.26-.7.82-.35a1.25,1.25,0,0,0,1.52,0,1,1,0,0,1,.66-.19h.44c1.61.12,3.28-.38,4.76.5-.54.29-1.17.54-1.73.89a13.62,13.62,0,0,0-6.91,9.33,12.94,12.94,0,0,0-.31,2.46,14,14,0,0,0,.41,3.68c.09.38.06.6-.41.51h-.22c-.54.09-.57-.16-.48-.6a13.45,13.45,0,0,0-2.33-11.48,13.6,13.6,0,0,0-6.56-4.82C214.19,104.49,214,104.49,213.82,104.27Z"/><path class="cls-2" d="M117.58,85.51h4.16c.28,0,.44.06.5.38a2.31,2.31,0,0,0,.38.88c.22.32.16.47-.16.66q-2,1.23-4,2.46c-1.36.85-2.74,1.64-4.1,2.52-.38.26-.76.13-1.13.22-1,.29-1.93.51-2.87.76-.35.1-.35,0-.29-.31.57-2.08,1.11-4.17,1.67-6.25a1.8,1.8,0,0,1,1.8-1.38C114.93,85.51,116.25,85.51,117.58,85.51Z"/><path class="cls-2" d="M241.4,104.14h3.53a.77.77,0,0,1,.53.22,1.15,1.15,0,0,0,1.46,0c.44-.32.63-.25.78.25.29.88.57,1.77.82,2.68a1,1,0,0,0,1,.82,1,1,0,0,0,1-.85c.28-.88.54-1.77.82-2.62.16-.5.35-.56.79-.25a1.13,1.13,0,0,0,1.45,0,1,1,0,0,1,.63-.22h3.84c.22,0,.48,0,.6.29-.6.34-1.23.63-1.83,1a10.36,10.36,0,0,0-4.16,5,9.92,9.92,0,0,0-.72,3.78,10.21,10.21,0,0,0,2.46,6.68c.09.1.22.19.16.32a.4.4,0,0,1-.38.25h-2.78c-.44,0-.19-.32-.15-.47a12.88,12.88,0,0,0,.4-3.79,13.94,13.94,0,0,0-7.78-12A23.2,23.2,0,0,0,241.4,104.14Z"/><path class="cls-2" d="M254.61,83.74a4.54,4.54,0,0,1,.85-3.43,6.57,6.57,0,0,1,5.17-2.78A6.42,6.42,0,0,1,267.15,83a6.23,6.23,0,0,1-1.61,5.29,6.39,6.39,0,0,1-8.73.76,8.17,8.17,0,0,1-1.64-1.89C254.48,86.17,254.61,85.07,254.61,83.74Z"/><path class="cls-2" d="M157.86,72.11c1.2-.63,2.43-1.16,3.66-1.67a54.93,54.93,0,0,1,5.26-1.89,6.88,6.88,0,0,1,4.07.13,56.7,56.7,0,0,1,7.47,2.93,4.74,4.74,0,0,1,1.07.5C178.86,72.21,160.48,72.27,157.86,72.11Z"/><path class="cls-2" d="M205.53,78.58H190c-.69,0-.69,0-.69.69v1.67c0,.19,0,.41-.28.28a4.7,4.7,0,0,0-1.86-.15c-.48,0-.51-.16-.29-.51A5.09,5.09,0,0,1,190,78.17a8.26,8.26,0,0,1,2.65-.35c.92,0,1.83,0,2.78,0,8.57-.13,17.18-.1,25.75-.1.22,0,.57-.19.63.29s-.06.6-.53.6C216,78.54,210.76,78.58,205.53,78.58Z"/><path class="cls-2" d="M258,91a8.77,8.77,0,0,1,2.87-.25,1.23,1.23,0,0,1,.82.44c.22.16.31.13.47,0a2.36,2.36,0,0,1,1.23-.91c.22-.07.35-.07.5.09,1.17,1.17,2.31,2.33,3.47,3.47.22.22.22.35,0,.57-.6.56-1.2,1.16-1.76,1.76-.22.22-.38.25-.63.06s-.6-.47-1-.37c-.19,0-.22-.13-.26-.29-.09-.31-.37-.6-.66-.56a2.25,2.25,0,0,1-2.08-.92C260,93,259,92,258,91Z"/><path class="cls-2" d="M252.21,114.73c0-.25,0-.38.25-.41s.41,0,.57.29c.38.82,1.42,1,1.83.34s.94-.63,1.51-.63h2.43c.28,0,.44,0,.5.38a2.89,2.89,0,0,0,1.14,2,.28.28,0,0,1,.09.45c-.53.94-1.07,1.86-1.61,2.8a.59.59,0,0,1-.69.38.89.89,0,0,0-1,.57,1,1,0,0,0,.1,1.19c.25.29.09.48,0,.67s-.35,0-.51-.07a9.81,9.81,0,0,1-4.48-7.37A1.83,1.83,0,0,0,252.21,114.73Z"/><path class="cls-2" d="M257.19,114.1h-1.07c-.5,0-.91.06-1.14-.6a.88.88,0,0,0-1-.47,1.12,1.12,0,0,0-.95.79c-.13.38-.35.31-.6.28s-.19-.28-.19-.47a10.4,10.4,0,0,1,2.37-5.9,10.23,10.23,0,0,1,2.2-2c.13-.1.32-.28.44,0s.32.34.07.63a1,1,0,0,0-.13,1.26,1,1,0,0,0,1.07.53.61.61,0,0,1,.63.38c.48.85.95,1.71,1.45,2.53.19.31.32.5-.09.81a2.93,2.93,0,0,0-1,1.8c-.06.38-.19.44-.5.41C258.23,114.07,257.73,114.1,257.19,114.1Z"/><path class="cls-2" d="M262.33,104.14a9.47,9.47,0,0,1,4.57,1.07c.13.06.41.1.25.35s-.12.41-.44.35a1.12,1.12,0,0,0-1.2.56,1,1,0,0,0,.1,1.3.3.3,0,0,1,0,.44c-.57.94-1.14,1.92-1.67,2.9-.16.28-.28.31-.6.19a2.55,2.55,0,0,0-2.11,0c-.29.12-.44.06-.6-.22-.51-1-1-1.83-1.58-2.78a.49.49,0,0,1,0-.66.91.91,0,0,0,.07-1.17,1,1,0,0,0-1.14-.56c-.41.09-.47-.13-.56-.38s.18-.29.34-.38A9.27,9.27,0,0,1,262.33,104.14Z"/><path class="cls-2" d="M193.36,49.2a11.8,11.8,0,0,1,4.66.91,4.5,4.5,0,0,1,1.83,1.42c.16.22.47.57.25.72a.86.86,0,0,1-1,0,2.08,2.08,0,0,0-2.23-.31c-2,.85-4,.22-6.06.44a.35.35,0,0,1-.25-.06,2.63,2.63,0,0,0-2.55-.38c-.25,0-.35.06-.38-.26-.06-.91,0-1,.82-1.41A11.42,11.42,0,0,1,193.36,49.2Z"/><path class="cls-2" d="M117.48,64.48h2.27c.29,0,.41,0,.35.41a9.7,9.7,0,0,0-.06,3.72c.06.29,0,.45-.35.45h-4.54c-.28,0-.38-.1-.38-.38V64.89c0-.31.13-.41.41-.41Z"/><path class="cls-2" d="M176,47.9H165.11c-.15,0-.41.1-.47-.09s.13-.35.28-.51a1.24,1.24,0,0,1,.86-.28h20.36a1.23,1.23,0,0,1,1,.44c.06.1.16.22.12.35s-.19.09-.31.09H176Z"/><path class="cls-2" d="M123.94,84.6c0-.82,0-1.64,0-2.43,0-.44.19-.51.54-.41a5.25,5.25,0,0,1,3,1.76,1.8,1.8,0,0,1,.09,2.08,5,5,0,0,1-3.21,1.9c-.35.06-.45-.1-.45-.41Z"/><path class="cls-2" d="M112.69,66.66V63.79a1.91,1.91,0,0,1,1.39-1.73c.19,0,.34-.1.34.15s.1.73-.25,1.08a.65.65,0,0,0,0,1,.68.68,0,0,1,.22.63v3.62a1,1,0,0,1-.25.73.65.65,0,0,0,0,1c.38.29.19.67.19,1s-.22.16-.38.13a1.88,1.88,0,0,1-1.32-1.8C112.66,68.61,112.66,67.64,112.69,66.66Z"/><path class="cls-2" d="M125.8,58.15a10.42,10.42,0,0,0,0,17.53c-2.08-.13-5.32-4.64-5.58-7.51a10,10,0,0,1,2.21-7.5A7.71,7.71,0,0,1,125.8,58.15Z"/><path class="cls-2" d="M154.24,53.42h-9.49c-.16,0-.44.09-.47-.09s.19-.32.34-.41a.88.88,0,0,1,.57-.13h18.5c.23,0,.54-.1.54.31s-.31.32-.54.32Z"/><path class="cls-2" d="M231.09,81.76c0,1.54,0,3.09,0,4.66,0,.48-.19.51-.57.54s-.53-.13-.53-.54c0-3.09,0-6.21,0-9.29,0-.45.19-.51.53-.51s.57,0,.54.51C231.06,78.64,231.09,80.21,231.09,81.76Z"/><path class="cls-2" d="M246.35,81.79c0,1.54,0,3.06,0,4.6,0,.44-.16.54-.57.54s-.54-.1-.54-.51c0-3.09,0-6.21,0-9.29,0-.45.16-.51.54-.51s.57.06.57.54Z"/><path class="cls-2" d="M262.42,111.39a2.83,2.83,0,0,1,2.78,2.81,2.86,2.86,0,0,1-2.9,2.83,2.82,2.82,0,0,1,.12-5.64Z"/><path class="cls-2" d="M196,53.42h-7.75c-.22,0-.6.13-.57-.32s.32-.31.54-.31h15.1a1.08,1.08,0,0,1,.91.38c.13.16.1.25-.12.28h-.38C201.11,53.42,198.56,53.42,196,53.42Z"/><path class="cls-2" d="M181.19,81.38c2.3,0,4.63,0,6.93,0,.95,0,1.39.57,1.27,1.58a.32.32,0,0,1-.29.28c-.19,0-.25-.09-.28-.25a.82.82,0,0,1-.06-.25c-.1-.79-.1-.79-.92-.79H174.48c-.92,0-.92,0-1,.91,0,.16,0,.35-.22.35s-.29-.13-.32-.35c-.12-1,.22-1.48,1.29-1.48Z"/><path class="cls-2" d="M200.07,81.38h7A1.11,1.11,0,0,1,208.17,83c-.06.13-.15.22-.28.19s-.19-.13-.22-.28.12-.64-.16-.86-.72-.12-1.1-.12H193.23c-.82,0-.82,0-.85.79,0,.22,0,.47-.28.5s-.35-.28-.35-.44c0-.76.16-1.39,1.13-1.39C195.31,81.41,197.71,81.38,200.07,81.38Z"/><path class="cls-2" d="M138.7,90.71H124.89c-.19,0-.54.13-.57-.12s.38-.19.57-.19H152.6c.16,0,.44-.1.44.15s-.28.16-.44.16Z"/><path class="cls-2" d="M163.66,115c-.31.41-.47.79,0,1.14a.56.56,0,0,0,.79,0c.35-.32.31-.7-.06-1.07h2.58a2.65,2.65,0,0,0-2.05,2.74,2.85,2.85,0,0,0,2.05,2.61c-.76,0-1.54,0-2.3,0-.35,0-.06-.28,0-.41.16-.41,0-.66-.38-.85a.63.63,0,0,0-.85.44.51.51,0,0,0,.16.54c.06.06.15.19,0,.25s-.26,0-.29-.12a.94.94,0,0,1,0-.29v-4.54C163.28,115.2,163.22,115,163.66,115Z"/><path class="cls-2" d="M106.7,93.71A8.4,8.4,0,0,1,109.51,88s.06-.06.09-.06c.19-.1.38-.32.57-.22s0,.37,0,.56a8.23,8.23,0,0,1-.92,2.4,20.85,20.85,0,0,1-1.73,3.18s0,.07-.06.1c-.19.22-.38.63-.66.53S106.76,94,106.7,93.71Z"/><path class="cls-2" d="M117.77,90.68v3.91c0,.22-.07.35-.32.35a1,1,0,0,0-1.2.82.15.15,0,0,0-.09,0c-.13-.13,0-.22,0-.32a1.33,1.33,0,0,0-1.29-2c-.16,0-.44.22-.48-.1s-.15-.6.23-.82C115.65,92,116.66,91.37,117.77,90.68Z"/><path class="cls-2" d="M135.73,131.22h-1.29c-.28,0-.35-.13-.28-.38.28-1,.57-1.89.88-2.84a.66.66,0,0,1,.69-.47.64.64,0,0,1,.67.47c.31,1,.59,2,.91,2.93.09.29-.06.29-.25.29Z"/><path class="cls-2" d="M253.06,125.61v-.92a.64.64,0,0,1,.41-.69.67.67,0,0,1,.82.22l1.89,2.49c.13.16.1.25-.09.32-.88.28-1.74.56-2.62.88-.28.09-.31,0-.31-.25C253.22,127,253,126.27,253.06,125.61Z"/><path class="cls-2" d="M162.24,131.22H161c-.22,0-.28-.06-.22-.29.32-1,.6-2,.92-2.93a.57.57,0,0,1,.53-.44.59.59,0,0,1,.66.35,24.34,24.34,0,0,1,1,3.06c.1.25-.16.28-.34.28C163.13,131.22,162.69,131.22,162.24,131.22Z"/><path class="cls-2" d="M196.32,104.14h1.29c.22,0,.32.06.26.32-.32.94-.57,1.92-.89,2.86a.64.64,0,0,1-.66.48.64.64,0,0,1-.66-.48c-.28-.94-.57-1.89-.88-2.83-.1-.32,0-.38.28-.38S195.91,104.14,196.32,104.14Z"/><path class="cls-2" d="M249.53,104.14h1.29c.22,0,.29.06.22.28-.28.92-.56,1.86-.85,2.78a.7.7,0,0,1-.66.6c-.41,0-.63-.29-.76-.67-.25-.88-.5-1.76-.78-2.61-.1-.32,0-.38.28-.38Z"/><path class="cls-2" d="M103.23,104.14h1.3c.22,0,.31.06.25.32-.32.94-.6,1.89-.88,2.83a.65.65,0,0,1-.63.51.69.69,0,0,1-.73-.48c-.31-.94-.6-1.92-.91-2.86-.1-.29.06-.32.28-.32Z"/><path class="cls-2" d="M129.78,104.14H131c.37,0,.44.13.31.47-.28.85-.54,1.71-.79,2.59a.82.82,0,0,1-.72.63c-.38,0-.57-.29-.7-.6-.31-.91-.56-1.86-.85-2.77-.09-.26,0-.32.25-.32Z"/><path class="cls-2" d="M169.78,104.14H171c.25,0,.31.06.25.32l-.85,2.77a.74.74,0,0,1-.69.57.75.75,0,0,1-.7-.6c-.28-.88-.53-1.8-.82-2.68-.09-.29,0-.41.32-.41S169.37,104.14,169.78,104.14Z"/><path class="cls-2" d="M222.89,104.14h1.2c.32,0,.44.09.35.41-.28.88-.54,1.77-.82,2.68a.74.74,0,0,1-.69.57.76.76,0,0,1-.7-.57c-.28-.88-.53-1.77-.82-2.68-.09-.32,0-.41.35-.41Z"/><path class="cls-2" d="M99.23,121.48c-.13.82-.28,1.79-.44,2.77,0,.29-.19.25-.38.16l-2.33-1.14c-.16-.06-.25-.15-.13-.31a9.14,9.14,0,0,1,2.33-2.27C99,120.34,99.26,120.6,99.23,121.48Z"/><path class="cls-2" d="M108.84,93.61s.23,0,.32.06c.47.41,1,.16,1.42,0,1-.26,2-.51,3-.79.29-.1.51,0,.6.25s-.09.47-.41.57l-3.15.85a1.29,1.29,0,0,0-1,.63,1,1,0,0,1-1.29.38,1,1,0,0,1,.53-2Z"/><path class="cls-2" d="M228.85,131.22H227.5c-.22,0-.35-.06-.26-.32.29-.94.57-1.89.89-2.8.06-.22.12-.29.41-.13a4.12,4.12,0,0,1,1.83,3c.06.22,0,.28-.23.28C229.7,131.22,229.26,131.22,228.85,131.22Z"/><path class="cls-2" d="M269,96.61a6.26,6.26,0,0,0,0,.75c.07.48-.19.51-.6.48a7.26,7.26,0,0,1-2.49-1.11c-.22-.09-.31-.25-.06-.44a1.6,1.6,0,0,0,.41-.41,1.6,1.6,0,0,1,2.3-.66c.32.16.47.25.44.6A6.93,6.93,0,0,0,269,96.61Z"/><path class="cls-2" d="M121.08,62c-.48,1.26-.32,1.08-1.42,1.08h-4.42c-.41,0-.53-.16-.5-.54s0-.57.47-.57C117.14,62,119.09,62,121.08,62Z"/><path class="cls-2" d="M129.43,56.79c-.16,0-.28,0-.28-.22a.41.41,0,0,1,.37-.5l2.37-.54c2-.44,4-.88,6-1.35a1.68,1.68,0,0,1,.6-.07c.19,0,.25.19.28.35s-.19.19-.28.22c-3,.69-5.93,1.42-8.89,2.11Z"/><path class="cls-2" d="M105.54,92c1.13,0,1.13,0,.91,1.14a4.76,4.76,0,0,0,0,1.13c0,.32-.07.48-.41.44-.51,0-1,0-1.52,0-.25,0-.34-.09-.34-.34V92.54c0-.35.19-.54.53-.5A6,6,0,0,1,105.54,92Z"/><path class="cls-2" d="M117.83,71.42h-2.59c-.37,0-.5-.1-.5-.47s.06-.51.47-.51c1.61,0,3.25,0,4.86,0a.84.84,0,0,1,.75.79c0,.25-.19.16-.28.16C119.63,71.42,118.71,71.42,117.83,71.42Z"/><path class="cls-2" d="M110.2,95.69c1.1-.28,2.18-.6,3.28-.88a.93.93,0,0,0,.66-.47,1,1,0,0,1,1.29-.48A1.12,1.12,0,0,1,116,95a1.06,1.06,0,0,1-1.61.69c-.15-.06-.31-.19-.5-.12A12.22,12.22,0,0,1,110.2,95.69Z"/><path class="cls-2" d="M188.94,131.22h-1.29c-.31,0-.38-.13-.28-.41a1.68,1.68,0,0,1,.91-1.29,4.56,4.56,0,0,0,1.11-.76c.18-.13.34-.22.44.09l.66,2.12c.09.25-.06.28-.25.28C189.83,131.22,189.39,131.22,188.94,131.22Z"/><path class="cls-2" d="M202.18,131.22H201c-.35,0-.51-.06-.35-.44.22-.57.38-1.17.54-1.74.09-.31.18-.41.5-.19a9.8,9.8,0,0,0,1.45.92c.54.28.47.85.66,1.29.06.22-.12.16-.25.16Z"/><path class="cls-2" d="M117.48,63.29H120c.19,0,.54-.13.48.22s-.07.66-.51.63h-5c-.32,0-.69,0-.69-.41s.37-.48.72-.48C115.78,63.29,116.63,63.29,117.48,63.29Z"/><path class="cls-2" d="M156.66,52.44c-.47,0-1,0-1.45,0-.22,0-.53.16-.59-.22a.86.86,0,0,1,.34-.91.51.51,0,0,1,.32-.1,15.61,15.61,0,0,1,2.9,0,.72.72,0,0,1,.63.6c.12.51,0,.66-.51.66S157.23,52.44,156.66,52.44Z"/><path class="cls-2" d="M149.67,52.44c-.57,0-1.11,0-1.67,0s-.51-.22-.41-.53a.94.94,0,0,1,.91-.76c.82,0,1.61,0,2.43,0a.93.93,0,0,1,.72.38.83.83,0,0,1,.1.76c-.07.25-.35.12-.51.12A13.84,13.84,0,0,1,149.67,52.44Z"/><path class="cls-2" d="M117.32,70.13h-2.55c-.28,0-.57-.07-.57-.35a.51.51,0,0,1,.57-.5h5c.48,0,.44.37.48.66s-.26.19-.41.19Z"/><path class="cls-2" d="M123.63,84.6v2.33c0,.09,0,.25-.1.28a.44.44,0,0,1-.22-.12,2,2,0,0,1-.75-1.39,3.85,3.85,0,0,1,.63-3.44c.09-.12.22-.31.38-.25s.09.28.09.44C123.63,83.15,123.63,83.87,123.63,84.6Z"/><path class="cls-2" d="M161,49.57V48.12c0-.5.35-.41.63-.41s.67-.09.67.41v3c0,.25-.1.38-.35.35h-.47c-.35,0-.51-.1-.48-.44C161,50.55,161,50.05,161,49.57Z"/><path class="cls-2" d="M158,104.33c-.22.66-.41,1.29-.63,2-.06.19-.19.07-.28,0a12.7,12.7,0,0,0-1.74-1,.59.59,0,0,1-.31-.25c-.35-.66-.29-.82.47-.82h2.14C157.8,104.14,158,104.05,158,104.33Z"/><path class="cls-2" d="M162.87,120c0,.57.32.6.76.6,1.17,0,2.3,0,3.47,0,.47,0,.57.23.66.6s0,.29-.22.29h-4.6c-.29,0-.35-.16-.29-.38C162.72,120.72,162.81,120.37,162.87,120Z"/><path class="cls-2" d="M161.74,32.74c0,1.14,0,2.3,0,3.44.06,3.18.13,6.36.13,9.55,0,.44.12.88.09,1.35,0,.19,0,.38-.28.38s-.29-.19-.26-.38c0-1.29,0-2.58.1-3.87.09-1,0-2,0-3,0-2.43.06-4.82.1-7.25,0-.06,0-.13,0-.19Z"/><path class="cls-2" d="M166.25,51.81h-1.58c-.31,0-.53-.12-.53-.47a.46.46,0,0,1,.53-.51h3.25c.31,0,.53.13.53.45s-.22.5-.5.5c-.57,0-1.13,0-1.7,0Z"/><path class="cls-2" d="M108.25,93.33c.5-1,1-2,1.45-2.9.15-.35.47-.32.72-.25s.1.34.06.5c-.22.88-.44,1.73-.69,2.62-.06.22-.13.41-.41.19S108.69,93.3,108.25,93.33Z"/><path class="cls-2" d="M111.05,129.23c0,.25,0,.38-.35.25-.85-.31-1.7-.59-2.52-.88-.22-.06-.28-.16-.09-.34l0,0c.79-1.13.79-1.13,1.77-.19a7.51,7.51,0,0,0,.88.7C110.93,128.89,111.08,129,111.05,129.23Z"/><path class="cls-2" d="M167.45,115.3c-2.18,1.23-2,3.5-.19,4.57-.76.32-2-1-2-2A2.31,2.31,0,0,1,167.45,115.3Z"/><path class="cls-2" d="M143.14,104.14h1.29a.28.28,0,0,1,.29.13.26.26,0,0,1-.16.31l-2.36,1.14c-.13.06-.22,0-.26-.1s0-.06,0-.09c-.57-1.36-.57-1.36.88-1.36A1.31,1.31,0,0,1,143.14,104.14Z"/><path class="cls-2" d="M258.77,90.46c-.73.22-1.29.35-1.83-.19s-1.42-1.26-2.14-1.86c-.22-.19-.16-.41-.16-.66a3.64,3.64,0,0,1,.06-.79A7.15,7.15,0,0,0,258.77,90.46Z"/><path class="cls-2" d="M215.42,131.22h-1.19c-.13,0-.29.06-.32-.1a.26.26,0,0,1,.19-.28,12.73,12.73,0,0,0,2.36-1c.1,0,.19-.06.22,0a3.53,3.53,0,0,1,.35,1.29c0,.13-.22.1-.31.1Z"/><path class="cls-2" d="M175.61,131.22h-1.13c-.1,0-.29,0-.32,0-.28-.41.13-.76.16-1.14s.16-.28.38-.19a13.88,13.88,0,0,0,2.27,1c.12,0,.25.09.22.25s-.19.1-.29.1C176.46,131.22,176.05,131.22,175.61,131.22Z"/><path class="cls-2" d="M167.35,115.8a1,1,0,0,1-.12.89,1.87,1.87,0,0,0,0,2c0,.06.09.13.12.19.06.22.13.5,0,.6s-.32-.16-.44-.29A2.1,2.1,0,0,1,167,116,.73.73,0,0,1,167.35,115.8Z"/><path class="cls-2" d="M161.71,52.44H160.1c-.13,0-.31.07-.38-.12s.1-.26.19-.35a.59.59,0,0,1,.51-.16h2.77a.74.74,0,0,1,.38.07.41.41,0,0,1,.25.44c0,.19-.22.15-.35.15C162.87,52.44,162.28,52.44,161.71,52.44Z"/><path class="cls-2" d="M254.92,114.16a1,1,0,0,1-.85.89,1,1,0,0,1-.85-.85.85.85,0,0,1,.88-.89A.89.89,0,0,1,254.92,114.16Z"/><path class="cls-2" d="M266.55,106.19a.87.87,0,1,1-.91.82A.85.85,0,0,1,266.55,106.19Z"/><path class="cls-2" d="M207.61,78.89h3c.16,0,.38-.06.38.19s-.22.16-.35.16h-6.14c-.13,0-.35.06-.35-.16s.22-.16.38-.16C205.56,78.89,206.57,78.89,207.61,78.89Z"/><path class="cls-2" d="M214.82,79.21h-3c-.16,0-.44.09-.44-.16s.25-.16.38-.16h6c.16,0,.41-.06.41.16s-.25.16-.41.19C216.84,79.21,215.83,79.21,214.82,79.21Z"/><path class="cls-2" d="M200.29,79.87h-3c-.13,0-.38.09-.38-.19s.22-.16.34-.16h6.15c.13,0,.35-.06.35.16s-.22.16-.38.16C202.34,79.87,201.3,79.87,200.29,79.87Z"/><path class="cls-2" d="M207.57,79.87h-3c-.16,0-.44.09-.44-.16s.25-.19.41-.19h6c.16,0,.44-.09.41.16s-.28.16-.44.16C209.56,79.87,208.58,79.87,207.57,79.87Z"/><path class="cls-2" d="M214.82,80.53h-3c-.16,0-.44.09-.44-.16s.25-.16.38-.16h6c.16,0,.41-.06.41.16s-.25.16-.41.19C216.84,80.53,215.83,80.53,214.82,80.53Z"/><path class="cls-2" d="M258.17,107.83c-.54,0-.76-.22-.76-.79a.82.82,0,0,1,.85-.82.78.78,0,0,1,.76.85C259,107.58,258.77,107.83,258.17,107.83Z"/><path class="cls-2" d="M122.87,91.06v-.22c0-.76.13-.85.89-.73.15,0,.18.16.18.29,0,.44,0,.85,0,1.29s-.18.57-.59.53a.46.46,0,0,1-.48-.56Z"/><path class="cls-2" d="M267.28,121.48a.84.84,0,0,1-.82.75.79.79,0,0,1-.79-.82.7.7,0,0,1,.69-.78A1.11,1.11,0,0,1,267.28,121.48Z"/><path class="cls-2" d="M230.11,88.44v-.91c0-.29.07-.44.38-.41s.38.12.38.38v2c0,.25-.06.38-.38.38s-.41-.13-.41-.41S230.11,88.79,230.11,88.44Z"/><path class="cls-2" d="M245.5,88.44v-.85c0-.28,0-.47.37-.47s.38.19.38.44v1.83c0,.25,0,.44-.38.44s-.41-.19-.37-.47Z"/><path class="cls-2" d="M154.4,91.09v.66a.43.43,0,0,1-.48.47.46.46,0,0,1-.5-.5V90.59c0-.35,0-.45.44-.48s.57.19.54.6A1.21,1.21,0,0,0,154.4,91.09Z"/><path class="cls-2" d="M183.36,59.06h7.22a1.16,1.16,0,0,1,1.3,1.29V61a.53.53,0,0,1-.48.57c-.31.06-.5-.19-.6-.44s0-.66-.25-.79a2.45,2.45,0,0,0-.94-.06h-12.9c-.44,0-.72,0-.66.6a.59.59,0,0,1-.6.69c-.38,0-.56-.28-.56-.66v-.6a1.14,1.14,0,0,1,1.22-1.2Z"/><path class="cls-2" d="M162.31,82.89h6.93a1.43,1.43,0,0,1,1.61,1.77c0,.38-.16.72-.63.72s-.57-.34-.54-.69-.12-.6-.59-.6c-4.51,0-9,0-13.56,0-.47,0-.66.13-.6.6s0,.69-.53.69-.6-.31-.64-.72a1.45,1.45,0,0,1,1.61-1.77Z"/><path class="cls-2" d="M143.11,82.89H150a1.5,1.5,0,0,1,1.67,1.93.59.59,0,0,1-.6.56.53.53,0,0,1-.56-.59c.06-.67-.22-.73-.79-.73q-6.67,0-13.3,0c-.51,0-.73.09-.67.66,0,.35,0,.63-.44.66a.54.54,0,0,1-.66-.53c-.22-1.29.38-2,1.48-2Z"/><path class="cls-2" d="M138.48,89.23a10,10,0,0,1-1.67-.85,1.57,1.57,0,0,0-.67-.19c-1.19,0-2.42,0-3.62,0-.44,0-.6.13-.54.54a2.15,2.15,0,0,1,0,.44c0,.28-.12.34-.38.31a2.37,2.37,0,0,1-2-2,2.33,2.33,0,0,1,1.7-2.49c.54-.12.69,0,.66.54s.16.66.66.63c.92,0,1.86-.06,2.78,0a3.78,3.78,0,0,0,2.46-.72c.15-.1.34-.29.53-.19s.06.31.1.5Z"/><path class="cls-2" d="M181.16,107.7a10,10,0,1,1-10,9.46A10,10,0,0,1,181.16,107.7Z"/><path class="cls-2" d="M119.09,107.7a10,10,0,1,1-10,9.77A10,10,0,0,1,119.09,107.7Z"/><path class="cls-2" d="M159.16,117.69a10,10,0,1,1-19.93-.18,10,10,0,0,1,10.18-9.84C154.55,107.7,159.38,112.27,159.16,117.69Z"/><path class="cls-2" d="M209.88,107.7a10,10,0,1,1-.23,19.92,10,10,0,0,1,.23-19.92Z"/><path class="cls-2" d="M237.84,107.7a10,10,0,1,1-10,9.59A10,10,0,0,1,237.84,107.7Z"/><path class="cls-2" d="M101.53,112.71A7.19,7.19,0,0,1,94,119.87a7.18,7.18,0,1,1,.79-14.34A7.2,7.2,0,0,1,101.53,112.71Z"/><path class="cls-2" d="M255.77,84.19A5,5,0,0,1,260,79.08a4.94,4.94,0,0,1,5.45,3.4.57.57,0,0,1-.19.63c-.28.32-.82.54-.75.92s.47.6.75.85a.63.63,0,0,1,.16.72,4.93,4.93,0,0,1-7.19,2.65A4.84,4.84,0,0,1,255.77,84.19Z"/><path class="cls-2" d="M256.09,115.84a1.85,1.85,0,0,1,2,2,1.94,1.94,0,0,1-2,2,2,2,0,0,1-2-2A1.94,1.94,0,0,1,256.09,115.84Z"/><path class="cls-2" d="M258.07,110.63a1.85,1.85,0,0,1-2,2,2,2,0,1,1,.06-4A1.93,1.93,0,0,1,258.07,110.63Z"/><path class="cls-2" d="M264.35,107a2,2,0,0,1-2,2,2,2,0,1,1,0-4.06A2,2,0,0,1,264.35,107Z"/><path class="cls-2" d="M264.44,114.16a2,2,0,0,1-2.11,2.18,2.15,2.15,0,1,1,2.11-2.18Z"/><path class="cls-2" d="M183.36,59.38h7.16a1.11,1.11,0,0,1,1.1,1.48c-.06.19-.15.35-.37.35S191,61,191,60.8v-.32c.07-.44-.15-.57-.56-.57H176.3c-.47,0-.63.19-.56.6a2.58,2.58,0,0,1,0,.48.22.22,0,0,1-.23.18.25.25,0,0,1-.25-.15,2.43,2.43,0,0,1,0-1.23.85.85,0,0,1,.85-.44C178.54,59.41,181,59.38,183.36,59.38Z"/><path class="cls-2" d="M162.31,83.21c2.33,0,4.66,0,7,0,1,0,1.35.66,1.19,1.61,0,.15-.12.31-.31.31s-.19-.22-.22-.38c-.07-.88-.07-.88-1-.88H155.4c-.78,0-.78,0-.82.76,0,.19.07.47-.22.47s-.31-.22-.34-.47a1.18,1.18,0,0,1,1.32-1.45C157.71,83.24,160,83.21,162.31,83.21Z"/><path class="cls-2" d="M151.34,84.34v.29c0,.25-.07.5-.29.5s-.25-.28-.25-.5c0-.73,0-.76-.79-.76H136.14c-.53,0-.72.16-.66.66,0,.26,0,.6-.31.6s-.35-.34-.35-.63c0-.91.31-1.26,1.26-1.26h14C151,83.24,151.34,83.59,151.34,84.34Z"/><path class="cls-2" d="M134.16,87.87h-1.8c-.28,0-.41-.06-.44-.37-.06-1-.06-1,1-1s2,0,3,0c.41,0,.54.12.5.53,0,1,.1.88-.88.88C135.07,87.91,134.63,87.87,134.16,87.87Z"/><path class="cls-2" d="M131.73,87.24v1.58c0,.28-.09.38-.38.32a2.06,2.06,0,0,1-1.45-1.64,2,2,0,0,1,1.29-2.18c.38-.13.57-.06.57.41S131.73,86.74,131.73,87.24Z"/><path class="cls-2" d="M138.19,88.82c-.44-.22-.82-.44-1.23-.66a.52.52,0,0,1-.25-.44,6.42,6.42,0,0,0,0-.76.77.77,0,0,1,.51-.85c1-.54,1-.57,1,.57v1.95A.57.57,0,0,1,138.19,88.82Z"/><path class="cls-2" d="M187.84,124.57c0,.15-.09.19-.16.25a11.5,11.5,0,0,1-3.31,2c-.41.15-.6.06-.69-.35-.54-2.08-1.1-4.13-1.67-6.18-.06-.25,0-.35.19-.41s.47-.54.88-.13c1.26,1.33,2.59,2.59,3.85,3.88l.72.73Z"/><path class="cls-2" d="M183.74,116.81c-.44,0-.44-.44-.63-.63s0-.31.16-.44c1.51-1.51,3-3,4.51-4.54.22-.25.38-.25.6,0a10.3,10.3,0,0,1,2,3.44c.13.38-.12.41-.35.5-1.82.47-3.65,1-5.45,1.45C184.28,116.65,184,116.75,183.74,116.81Z"/><path class="cls-2" d="M179.24,116c0,.35-.54.85-.86.76-2-.54-4.09-1.11-6.14-1.64-.41-.1-.38-.25-.29-.54a10,10,0,0,1,1.86-3.28c.22-.25.41-.41.73-.06,1.48,1.51,3,3,4.47,4.48A2.89,2.89,0,0,0,179.24,116Z"/><path class="cls-2" d="M180.24,120.37c-.37,1.36-.75,2.81-1.13,4.23-.19.66-.38,1.32-.54,2-.06.32-.25.38-.5.29a10.2,10.2,0,0,1-3.5-2.08c-.19-.16-.09-.29,0-.41,1.58-1.58,3.15-3.12,4.7-4.7.16-.16.28-.13.47,0S180.34,119.87,180.24,120.37Z"/><path class="cls-2" d="M181.16,127.31a9.55,9.55,0,0,1-2-.16c-.37-.06-.44-.22-.34-.53.44-1.58.85-3.16,1.29-4.73.13-.48.31-1,.41-1.45s.28-.38.57-.38a.54.54,0,0,1,.63.44c.31,1.29.66,2.55,1,3.85.18.72.34,1.45.59,2.17.13.41,0,.6-.41.66A8.26,8.26,0,0,1,181.16,127.31Z"/><path class="cls-2" d="M178.7,118.45c.28.1.28.44.44.63s0,.25-.06.35l-4.73,4.73c-.13.12-.22.15-.38,0a10.44,10.44,0,0,1-2-3.41c-.12-.35-.06-.5.32-.6l5.7-1.51A7.44,7.44,0,0,0,178.7,118.45Z"/><path class="cls-2" d="M182.77,115.71a.75.75,0,0,1-.7-.92c.54-2,1.07-3.94,1.58-5.92.12-.44.28-.54.69-.38a11.91,11.91,0,0,1,3.25,1.89c.25.22.25.35,0,.6-1.51,1.48-3,3-4.48,4.48C183,115.58,182.89,115.71,182.77,115.71Z"/><path class="cls-2" d="M171.51,117.6a7.87,7.87,0,0,1,.1-1.76c.06-.35.12-.57.63-.45,2,.57,4,1.11,5.95,1.64.19.07.57,0,.48.32s.22.75-.44.91c-2,.51-4.1,1.07-6.15,1.64-.44.13-.44-.19-.5-.44A11.45,11.45,0,0,1,171.51,117.6Z"/><path class="cls-2" d="M180.34,115.17c0,.32-.41.32-.57.48s-.35,0-.5-.13l-3.09-3.09L174.76,111c-.22-.22-.28-.34,0-.6a10.64,10.64,0,0,1,3.5-2c.34-.13.34.15.41.31.5,1.83,1,3.66,1.45,5.46C180.15,114.51,180.24,114.83,180.34,115.17Z"/><path class="cls-2" d="M190.77,117.63a8.54,8.54,0,0,1-.09,1.77c-.06.41-.16.63-.7.47-2-.57-4.06-1.1-6.08-1.64-.19-.06-.41-.06-.28-.31s-.35-.67.25-.82c2.11-.54,4.22-1.14,6.34-1.71.44-.12.41.19.44.41A6,6,0,0,1,190.77,117.63Z"/><path class="cls-2" d="M188.12,124.35l-.25-.22c-1.54-1.55-3.06-3.09-4.63-4.61-.38-.34,0-.53.09-.78s.26-.29.51-.23c2.11.6,4.22,1.17,6.33,1.74.22.06.32.09.22.35a10,10,0,0,1-2.11,3.65A.62.62,0,0,0,188.12,124.35Z"/><path class="cls-2" d="M181.16,115.17c-.32.07-.51,0-.6-.41-.51-2-1-4-1.61-6-.12-.41,0-.53.38-.63a9.43,9.43,0,0,1,3.63,0c.37.1.53.19.4.6-.56,2-1.1,4-1.6,6.08C181.63,115.2,181.44,115.2,181.16,115.17Z"/><path class="cls-2" d="M181.19,115.52a2.12,2.12,0,0,1,2.11,2.14,2.07,2.07,0,0,1-2.17,2.15,2.15,2.15,0,1,1,.06-4.29Z"/><path class="cls-2" d="M112.12,111a.92.92,0,0,1,.26.22c1.54,1.51,3.05,3.06,4.6,4.57.38.35-.07.54-.13.79s-.22.31-.5.25c-2.08-.57-4.2-1.13-6.28-1.67-.22-.06-.34-.13-.25-.41a8.92,8.92,0,0,1,2.05-3.5A2,2,0,0,1,112.12,111Z"/><path class="cls-2" d="M125.93,124.35c-.09-.1-.19-.16-.25-.22-1.51-1.52-3-3.06-4.57-4.54-.41-.41.06-.6.12-.89s.16-.25.41-.19c2,.57,4.07,1.11,6.09,1.64.5.13.56.35.41.79a9.46,9.46,0,0,1-1.93,3.15A1,1,0,0,1,125.93,124.35Z"/><path class="cls-2" d="M119.85,115.17c.34-1.32.69-2.55,1-3.78.22-.85.47-1.73.69-2.58.09-.32.19-.45.57-.32a11.36,11.36,0,0,1,3.43,2c.19.15.22.28,0,.47-1.57,1.54-3.12,3.12-4.66,4.66-.1.1-.22.32-.38.1S119.85,115.52,119.85,115.17Z"/><path class="cls-2" d="M121.58,116.81c-.41,0-.38-.41-.6-.6s0-.28.13-.41l4.63-4.63c.22-.22.35-.19.54,0a11,11,0,0,1,2,3.44c.07.22.07.41-.25.47-2.11.54-4.19,1.13-6.3,1.7C121.67,116.78,121.64,116.78,121.58,116.81Z"/><path class="cls-2" d="M116.57,118.48c.31,0,.28.41.47.6s0,.35-.16.51l-3.62,3.62c-.32.32-.63.6-.92.92s-.34.22-.53,0a10.87,10.87,0,0,1-2-3.37c-.12-.31-.06-.47.26-.53,2-.54,4.09-1.08,6.14-1.64A1.19,1.19,0,0,1,116.57,118.48Z"/><path class="cls-2" d="M128.7,117.63a7.84,7.84,0,0,1-.15,2c-.07.34-.19.44-.51.34-2-.56-4.13-1.13-6.18-1.67-.37-.09-.37-.28-.37-.57s0-.53.37-.63c1.26-.31,2.53-.66,3.82-1l2.49-.67c.25-.06.31-.06.38.26A8.27,8.27,0,0,1,128.7,117.63Z"/><path class="cls-2" d="M119,127.31a7.68,7.68,0,0,1-2.08-.19c-.26,0-.29-.13-.22-.35.56-2,1.1-4.09,1.63-6.14.1-.35.23-.57.67-.57s.53.31.6.6c.53,2,1.07,4,1.6,6,.07.28,0,.38-.28.44A6.2,6.2,0,0,1,119,127.31Z"/><path class="cls-2" d="M116.57,117.66c.06.35-.07.48-.44.57-2,.51-4,1-6,1.61-.41.12-.51,0-.57-.38a10.22,10.22,0,0,1,0-3.78c.06-.32.19-.41.5-.32,2,.57,4.13,1.11,6.18,1.64C116.6,117.13,116.6,117.38,116.57,117.66Z"/><path class="cls-2" d="M117.42,119.55a.78.78,0,0,1,.66,1c-.53,2-1.1,4-1.61,6-.12.44-.28.44-.66.32a11.11,11.11,0,0,1-3.15-1.83c-.32-.26-.35-.41,0-.73,1.51-1.48,3-3,4.47-4.47C117.23,119.68,117.29,119.55,117.42,119.55Z"/><path class="cls-2" d="M118.21,115.08c0,.41-.35.38-.54.53s-.35,0-.5-.12l-3.75-3.75-.51-.51c-.6-.6-.63-.63,0-1.1a9,9,0,0,1,3.12-1.67c.26-.06.38-.13.44.22.54,2.08,1.11,4.16,1.68,6.24C118.18,115,118.18,115.05,118.21,115.08Z"/><path class="cls-2" d="M119.15,107.89c.6.1,1.2.16,1.83.25.28,0,.38.16.28.51-.56,2-1.13,4.1-1.63,6.14-.1.41-.35.38-.63.41a.44.44,0,0,1-.57-.41c-.41-1.51-.82-3.05-1.2-4.57-.16-.53-.28-1.07-.44-1.6-.1-.29,0-.41.28-.44Z"/><path class="cls-2" d="M120.73,119.59s.09.12.19.22l4.54,4.54c.22.22.22.37,0,.56a9.18,9.18,0,0,1-3.38,2,.32.32,0,0,1-.47-.25c-.57-2.08-1.1-4.2-1.67-6.31C119.88,120.06,120.32,119.62,120.73,119.59Z"/><path class="cls-2" d="M119.06,115.52a2.17,2.17,0,0,1,2.14,2.17,2.15,2.15,0,1,1-4.29-.09A2.09,2.09,0,0,1,119.06,115.52Z"/><path class="cls-2" d="M150.05,115.08c.25-1,.5-1.86.75-2.74.32-1.2.66-2.43.95-3.63.06-.25.09-.38.41-.28a9.59,9.59,0,0,1,3.43,1.95c.29.25.32.41,0,.7-1.51,1.48-3,3-4.47,4.47-.13.13-.22.35-.47.13S150,115.52,150.05,115.08Z"/><path class="cls-2" d="M148.37,120.09c-.37,1.45-.75,2.77-1.1,4.07l-.66,2.39c-.06.29-.22.35-.51.26a9.58,9.58,0,0,1-3.37-2c-.25-.22-.22-.38,0-.6,1.51-1.48,3-3,4.48-4.48.12-.12.25-.37.47-.15S148.37,119.81,148.37,120.09Z"/><path class="cls-2" d="M148.41,115.17c-.1.35-.51.35-.73.57s-.25-.06-.35-.16c-1.54-1.54-3.08-3.09-4.63-4.63-.19-.19-.22-.32,0-.51a11.68,11.68,0,0,1,3.37-2c.29-.1.48-.16.57.22.54,2.11,1.1,4.19,1.67,6.3A1,1,0,0,1,148.41,115.17Z"/><path class="cls-2" d="M152.16,126.87c-.25,0-.35-.06-.38-.25-.57-2.12-1.14-4.2-1.7-6.28-.16-.53.41-.47.6-.72s.31,0,.44.12q2.26,2.28,4.54,4.54c.15.16.34.32.06.54a10.71,10.71,0,0,1-3.47,2A.15.15,0,0,1,152.16,126.87Z"/><path class="cls-2" d="M139.55,117.6a8.85,8.85,0,0,1,.19-2c0-.25.09-.28.34-.22l6.34,1.7c.41.1.35.38.38.67s-.06.44-.38.53c-2,.54-4.13,1.07-6.18,1.64-.31.1-.44,0-.5-.31A8.44,8.44,0,0,1,139.55,117.6Z"/><path class="cls-2" d="M149.16,127.31a6.5,6.5,0,0,1-1.92-.19c-.28-.06-.35-.19-.25-.44.56-2.11,1.13-4.19,1.67-6.31.09-.41.38-.28.63-.31s.47.09.53.38c.32,1.26.67,2.52,1,3.81.22.82.44,1.67.67,2.49.06.25,0,.32-.26.38A7.68,7.68,0,0,1,149.16,127.31Z"/><path class="cls-2" d="M159,117.66c-.1.67-.16,1.3-.26,1.93,0,.28-.22.37-.5.28-2.05-.57-4.13-1.13-6.18-1.67-.41-.1-.31-.35-.31-.6a.48.48,0,0,1,.37-.6c1.11-.28,2.18-.57,3.28-.88l2.81-.76c.38-.09.57,0,.6.41A11.42,11.42,0,0,0,159,117.66Z"/><path class="cls-2" d="M151.78,118.51l3.53.95c.91.25,1.8.5,2.71.73.41.09.5.25.35.66a11.39,11.39,0,0,1-2,3.28c-.15.18-.28.25-.5,0-1.51-1.55-3.06-3.06-4.6-4.61-.16-.15-.32-.31-.1-.5S151.37,118.45,151.78,118.51Z"/><path class="cls-2" d="M142.2,111c.19,0,.25.13.34.19,1.52,1.51,3,3.06,4.57,4.54.26.25.19.38,0,.63s-.23.47-.64.35c-2-.57-4.12-1.11-6.17-1.67-.32-.1-.38-.26-.29-.51a11.49,11.49,0,0,1,2-3.4A.63.63,0,0,0,142.2,111Z"/><path class="cls-2" d="M151.78,116.81c-.38.07-.35-.34-.54-.53a.31.31,0,0,1,0-.48c1.58-1.54,3.13-3.12,4.67-4.66.16-.16.25-.13.41,0a8.88,8.88,0,0,1,2.08,3.62c.06.16,0,.26-.16.32l-6.4,1.7A.11.11,0,0,1,151.78,116.81Z"/><path class="cls-2" d="M149.23,107.89c.69.1,1.32.16,2,.25.35,0,.29.29.22.54-.38,1.45-.79,2.9-1.16,4.38-.16.57-.32,1.14-.45,1.73-.09.38-.34.45-.66.45s-.44-.13-.53-.45c-.51-2-1-4-1.61-6-.13-.41,0-.53.38-.56C148,108.08,148.6,108,149.23,107.89Z"/><path class="cls-2" d="M147.27,119.18c0,.19-.09.25-.19.34l-4.54,4.57c-.22.22-.34.22-.56,0a9.14,9.14,0,0,1-2-3.37c-.09-.31,0-.44.32-.5,2-.54,4.06-1.07,6.08-1.64A.72.72,0,0,1,147.27,119.18Z"/><path class="cls-2" d="M147.11,117.6c-.19-1.07,1.17-2.14,2.15-2.08a2.18,2.18,0,0,1,2.08,2.17,2.24,2.24,0,0,1-2.18,2.15A2.08,2.08,0,0,1,147.11,117.6Z"/><path class="cls-2" d="M212.27,118.48l2.24.6c1.35.38,2.74.73,4.1,1.11.41.09.5.25.34.69a9.69,9.69,0,0,1-1.95,3.28c-.22.22-.35.22-.57,0-1.48-1.52-3-3-4.51-4.54-.12-.13-.34-.22-.15-.44S212,118.58,212.27,118.48Z"/><path class="cls-2" d="M208,116a.81.81,0,0,1-.94.73c-2-.54-4.1-1.11-6.15-1.64-.25-.07-.35-.13-.25-.41a9.74,9.74,0,0,1,2-3.47c.22-.25.38-.22.6,0,1.48,1.51,3,3,4.51,4.51A3.71,3.71,0,0,1,208,116Z"/><path class="cls-2" d="M212.4,116.81c-.44,0-.35-.44-.6-.6s0-.28.09-.41l4.64-4.63c.25-.25.38-.16.56,0a10.56,10.56,0,0,1,1.93,3.34c.06.22.15.44-.22.54l-6.31,1.7A.11.11,0,0,0,212.4,116.81Z"/><path class="cls-2" d="M216.53,110.67a1.31,1.31,0,0,1-.22.25l-4.67,4.66c-.09.1-.25.32-.38.1s-.75-.13-.6-.7c.41-1.45.79-2.9,1.17-4.35l.47-1.86c.07-.28.16-.44.51-.31a10.49,10.49,0,0,1,3.46,2A.52.52,0,0,1,216.53,110.67Z"/><path class="cls-2" d="M208,119.3l-.19.22-4.63,4.64c-.22.22-.35.19-.54,0a11.84,11.84,0,0,1-1.89-3.19c-.22-.6-.22-.63.41-.79,1.92-.5,3.85-1,5.77-1.57A.91.91,0,0,1,208,119.3Z"/><path class="cls-2" d="M209.84,127.31a7.65,7.65,0,0,1-2.08-.19c-.22,0-.31-.09-.25-.35.57-2.08,1.14-4.19,1.7-6.27.1-.38.32-.44.67-.44s.47.16.56.5c.51,2,1,4,1.61,6,.13.45,0,.54-.38.6A7,7,0,0,1,209.84,127.31Z"/><path class="cls-2" d="M219.49,117.66a7.24,7.24,0,0,1-.16,1.89c-.06.35-.22.41-.5.35-2.05-.57-4.07-1.1-6.12-1.64-.44-.12-.41-.38-.44-.72s.19-.44.47-.54l6-1.61c.44-.12.63,0,.66.45C219.43,116.47,219.55,117.1,219.49,117.66Z"/><path class="cls-2" d="M208.2,119.55a.81.81,0,0,1,.7,1c-.51,1.92-1,3.85-1.55,5.77-.19.66-.22.69-.88.44a10.37,10.37,0,0,1-3.06-1.8c-.22-.19-.34-.34-.06-.6,1.54-1.51,3.06-3,4.6-4.6C208.05,119.65,208.11,119.55,208.2,119.55Z"/><path class="cls-2" d="M207.35,117.66c.07.35-.06.48-.44.57-2,.51-4,1-6,1.61-.41.12-.5,0-.57-.38a10.57,10.57,0,0,1,0-3.72c.07-.35.16-.47.57-.38,2.05.57,4.1,1.11,6.12,1.64C207.39,117.13,207.39,117.38,207.35,117.66Z"/><path class="cls-2" d="M209,115.14c0,.25-.25.32-.44.41s-.35.22-.57,0c-1.54-1.57-3.12-3.12-4.66-4.66-.16-.16-.13-.26,0-.41a9.45,9.45,0,0,1,3.62-2.08c.16-.07.26,0,.32.15L209,115A.38.38,0,0,1,209,115.14Z"/><path class="cls-2" d="M209.94,107.89c.6.1,1.2.16,1.83.25.28,0,.38.19.28.51-.57,2-1.13,4.13-1.64,6.18-.09.41-.38.31-.63.34s-.47-.12-.57-.41l-1.32-5c-.1-.41-.22-.79-.32-1.2-.06-.25,0-.37.26-.41C208.52,108.08,209.21,108,209.94,107.89Z"/><path class="cls-2" d="M212.68,126.87c-.22,0-.28-.16-.31-.29-.57-2.08-1.11-4.19-1.67-6.27-.07-.28,0-.38.22-.44s.41-.47.72-.13l4.63,4.64c.16.16.23.28,0,.44a9.14,9.14,0,0,1-3.5,2.05Z"/><path class="cls-2" d="M207.7,117.57a2.12,2.12,0,0,1,2.18-2.08,2.22,2.22,0,0,1,2.14,2.17,2.26,2.26,0,0,1-2.18,2.15A2.19,2.19,0,0,1,207.7,117.57Z"/><path class="cls-2" d="M239.48,119.55c.06.07.15.13.25.23,1.51,1.51,3,3,4.51,4.5.22.19.31.35,0,.6a11.48,11.48,0,0,1-3.25,1.89c-.41.16-.63.1-.76-.34-.53-2-1.07-4-1.6-6A.94.94,0,0,1,239.48,119.55Z"/><path class="cls-2" d="M240.33,116.81c-.32,0-.32-.31-.44-.5a.31.31,0,0,1,0-.47c1.48-1.61,3-3.13,4.57-4.67.19-.19.31-.19.5,0a9.85,9.85,0,0,1,2.08,3.62c.07.16,0,.26-.15.32-2.15.57-4.29,1.13-6.47,1.73C240.42,116.81,240.39,116.81,240.33,116.81Z"/><path class="cls-2" d="M237,120.09c-.19.69-.35,1.36-.54,2-.38,1.42-.79,2.84-1.14,4.25-.12.44-.28.6-.72.41a9.55,9.55,0,0,1-3.22-1.92c-.19-.19-.28-.31,0-.57l4.57-4.54c.1-.09.22-.31.41-.15S236.89,119.78,237,120.09Z"/><path class="cls-2" d="M235.91,116c0,.32-.6.82-.85.76-2.05-.54-4.06-1.1-6.14-1.64-.38-.09-.41-.25-.29-.54a10.5,10.5,0,0,1,1.89-3.31c.22-.28.41-.34.7,0,1.48,1.52,3,3,4.5,4.51A2,2,0,0,0,235.91,116Z"/><path class="cls-2" d="M237,115.14c-.07.35-.41.32-.6.51s-.35,0-.51-.13l-3-3c-.51-.5-1-1-1.55-1.51-.19-.19-.25-.31,0-.5a10.3,10.3,0,0,1,3.53-2c.35-.13.38.12.41.31l1.23,4.64A16.55,16.55,0,0,1,237,115.14Z"/><path class="cls-2" d="M237.8,127.31a6.58,6.58,0,0,1-1.79-.13c-.41-.06-.54-.22-.41-.66.44-1.61.88-3.21,1.29-4.82.1-.41.25-.79.32-1.2s.25-.44.59-.44.51,0,.6.41c.51,2,1,4,1.61,6,.13.44,0,.63-.41.69A8.68,8.68,0,0,1,237.8,127.31Z"/><path class="cls-2" d="M228.16,117.66a7.43,7.43,0,0,1,.19-2c.06-.25.09-.31.38-.25l6.27,1.7c.13,0,.47,0,.31.29s.35.72-.34.88c-2.08.51-4.13,1.07-6.18,1.64-.47.13-.47-.16-.54-.44A8.65,8.65,0,0,1,228.16,117.66Z"/><path class="cls-2" d="M238.66,115c.34-1.27.66-2.53,1-3.82.23-.85.48-1.73.7-2.58.06-.26.16-.29.38-.19a10.23,10.23,0,0,1,3.5,2c.22.19.22.32,0,.57-1.52,1.48-3,3-4.51,4.51a.46.46,0,0,1-.66.09C238.88,115.43,238.59,115.36,238.66,115Z"/><path class="cls-2" d="M247.45,117.73a6.45,6.45,0,0,1-.13,1.76c-.06.35-.15.54-.59.41-2-.57-4-1.1-6.09-1.64-.34-.09-.34-.28-.34-.53s-.07-.54.31-.63l6.34-1.71c.41-.12.34.26.37.41A7.62,7.62,0,0,1,247.45,117.73Z"/><path class="cls-2" d="M230.93,124.25c-.19,0-.28-.16-.38-.25a10.16,10.16,0,0,1-2-3.34c-.16-.38.09-.44.38-.54l5.67-1.51.32-.1c.25-.06.5-.28.66.13s.41.54,0,1c-1.48,1.38-2.9,2.86-4.32,4.28A1.92,1.92,0,0,1,230.93,124.25Z"/><path class="cls-2" d="M247.07,120.5a8.43,8.43,0,0,1-1.1,2.4c-.32.44-.66.85-1,1.29-.16.22-.28.16-.44,0-1.58-1.58-3.12-3.15-4.7-4.7-.09-.09-.28-.25-.09-.34s.06-.76.63-.6l6.4,1.7C246.91,120.28,247.14,120.25,247.07,120.5Z"/><path class="cls-2" d="M237.84,107.89c.66.1,1.32.16,2,.25.35,0,.29.29.22.54-.41,1.54-.85,3.09-1.26,4.63-.12.44-.25.92-.34,1.36s-.16.57-.57.53-.6-.09-.7-.5l-1.32-5c-.09-.32-.16-.66-.28-1s0-.54.34-.57C236.58,108.05,237.21,108,237.84,107.89Z"/><path class="cls-2" d="M237.87,115.52a2.15,2.15,0,0,1-.07,4.29,2.15,2.15,0,1,1,.07-4.29Z"/><path class="cls-2" d="M96.52,112.68a2.16,2.16,0,0,1-2.14,2.18,2.28,2.28,0,0,1-2.18-2.15,2.16,2.16,0,1,1,4.32,0Z"/><path class="cls-2" d="M95.26,110c.25-.88.5-1.89.79-2.9s.28-1.07,1.35-.57a7.6,7.6,0,0,1,1.48,1c.22.19.26.32,0,.54-.89.85-1.74,1.73-2.62,2.58-.13.13-.22.32-.44.13S95.16,110.57,95.26,110Z"/><path class="cls-2" d="M87.54,112.68a6.52,6.52,0,0,1,.09-1.32c.06-.22.13-.28.35-.22,1.23.34,2.49.69,3.72,1,.37.09.25.34.25.53s.12.48-.25.57c-1.26.32-2.49.63-3.72,1-.29.06-.32,0-.38-.25A9.5,9.5,0,0,1,87.54,112.68Z"/><path class="cls-2" d="M91.89,111.86c-1.33-.34-2.56-.69-3.82-1a.26.26,0,0,1-.19-.37,7.66,7.66,0,0,1,1.33-2.34.21.21,0,0,1,.37,0c.92.92,1.8,1.83,2.72,2.71.12.13.22.26.06.41S92.26,111.86,91.89,111.86Z"/><path class="cls-2" d="M101.31,112.65c-.22.44-.06.92-.19,1.36-.06.19-.09.28-.38.22-1.26-.35-2.52-.66-3.78-1-.09,0-.19,0-.19-.16a5.08,5.08,0,0,0,0-.69c0-.35.35-.25.54-.32,1.13-.31,2.27-.6,3.4-.94.29-.1.35.06.41.25C101.28,111.83,101.09,112.27,101.31,112.65Z"/><path class="cls-2" d="M96.8,111.89c-.28-.09-.25-.41-.44-.59a.21.21,0,0,1,0-.35l2.75-2.74c.22-.22.34-.07.47.09a6.23,6.23,0,0,1,1.26,2.3c.06.19,0,.25-.16.29-1.26.31-2.52.66-3.81,1Z"/><path class="cls-2" d="M94.5,119.52a6,6,0,0,1-1.48-.09c-.22-.06-.25-.13-.19-.32.35-1.23.66-2.46,1-3.68.06-.19.12-.41.35-.26s.66-.34.78.29c.26,1.19.6,2.36,1,3.53.09.28.06.44-.28.5S94.85,119.49,94.5,119.52Z"/><path class="cls-2" d="M92.77,110.79a.67.67,0,0,1-.19-.16c-.88-.88-1.77-1.79-2.68-2.68-.19-.18-.22-.34,0-.53a8.53,8.53,0,0,1,2.18-1.26c.22-.07.34-.13.44.22.28,1.2.63,2.36.94,3.53A.82.82,0,0,1,92.77,110.79Z"/><path class="cls-2" d="M94.41,110.32c-.38.06-.54-.1-.63-.47-.26-1.11-.54-2.18-.89-3.28-.12-.44,0-.63.41-.66a8.19,8.19,0,0,1,2.37,0c.19,0,.31.06.25.34-.35,1.26-.69,2.53-1,3.79C94.82,110.41,94.6,110.26,94.41,110.32Z"/><path class="cls-2" d="M92.77,114.61a.79.79,0,0,1,.69.91c-.31,1.13-.63,2.27-.91,3.44-.07.28-.16.34-.44.25a8.21,8.21,0,0,1-2.24-1.29c-.16-.13-.22-.26-.06-.41.94-.92,1.85-1.86,2.8-2.81A.29.29,0,0,1,92.77,114.61Z"/><path class="cls-2" d="M97,113.57c1.26.31,2.49.63,3.76,1,.18.07.15.19.12.35a6,6,0,0,1-1.26,2.24c-.19.25-.35.22-.57,0l-2.55-2.56c-.1-.09-.38-.22-.16-.41S96.55,113.47,97,113.57Z"/><path class="cls-2" d="M92.48,114.29a.34.34,0,0,1-.15.25c-.85.89-1.74,1.74-2.59,2.62-.22.22-.38.25-.57,0A7.29,7.29,0,0,1,88,115.05c-.16-.38,0-.51.31-.6,1.07-.25,2.15-.57,3.22-.85.19-.07.41-.26.53-.1A4.46,4.46,0,0,1,92.48,114.29Z"/><path class="cls-2" d="M95.23,115.17c0-.34.44-.34.66-.56s.28.06.38.15c.88.85,1.73,1.74,2.55,2.65.19.22.16.38,0,.54a6.86,6.86,0,0,1-2.21,1.23c-.16,0-.31.12-.38-.13-.31-1.23-.66-2.46-1-3.69Z"/><path class="cls-2" d="M260.75,88.63A4.62,4.62,0,0,1,256.53,82,4.4,4.4,0,0,1,261,79.33a4.5,4.5,0,0,1,4,2.78.76.76,0,0,1-.19,1c-.88.82-.88.88,0,1.7a.79.79,0,0,1,.19,1.07A4.67,4.67,0,0,1,260.75,88.63Z"/><path class="cls-2" d="M254.39,117.76a1.64,1.64,0,0,1,1.7-1.67,1.72,1.72,0,0,1,1.76,1.79.72.72,0,0,1-.28.57,6,6,0,0,0-.5.51,1.25,1.25,0,0,1-1.71.44A1.6,1.6,0,0,1,254.39,117.76Z"/><path class="cls-2" d="M256.12,112.27a1.57,1.57,0,0,1-1.73-1.67,1.61,1.61,0,0,1,1.67-1.7,1.76,1.76,0,0,1,1.79,1.7C257.85,111.42,257,112.43,256.12,112.27Z"/><path class="cls-2" d="M118.74,133.17c-1.16-1.07-2.74-.75-4.09-1.16a7.06,7.06,0,0,0-.89-.19,1,1,0,0,0-.72.09,1.19,1.19,0,0,1-1.64-.44.88.88,0,0,0-.51-.35c-1.32-.37-2.61-.82-3.9-1.29a.92.92,0,0,0-.57,0,1.16,1.16,0,0,1-1.39-.54.88.88,0,0,0-.47-.37,37.51,37.51,0,0,1-3.63-1.71.56.56,0,0,0-.53,0,1.18,1.18,0,0,1-1.52-.72.73.73,0,0,0-.5-.51c-1.17-.5-2.33-1-3.5-1.57a1.39,1.39,0,0,0-.72-.1,1.08,1.08,0,0,1-1.23-.6,1,1,0,0,0-.48-.47A27.53,27.53,0,0,1,88.89,121a.56.56,0,0,0-.5-.13,1.36,1.36,0,0,1-1.48-1.32.63.63,0,0,0-.26-.51,8.27,8.27,0,0,1-2.17-4.19,1.08,1.08,0,0,0-.29-.57A1.22,1.22,0,0,1,84,112.9a4.88,4.88,0,0,0,.54-1.83c.16-.81.16-.81-.63-1-1.45-.38-2.9-.73-4.35-1.08-.25-.06-.35-.09-.25-.37a17.17,17.17,0,0,1,7-10.06,15.7,15.7,0,0,1,8.82-2.65H108c-.18-.28-.41-.44-.47-.69s-.25-.16-.41-.16h-2.9c-.28,0-.38-.06-.38-.38s.19-.85-.09-1.07-.73-.06-1.1-.06c-.54,0-1.08,0-1.64,0-.38,0-.51-.06-.51-.47s.06-.51.47-.48c.82,0,1.64,0,2.43,0,.22,0,.38,0,.47-.31a.74.74,0,0,1,.79-.54c.6,0,1.2,0,1.8,0a.45.45,0,0,0,.5-.35,8.91,8.91,0,0,1,2-3.27,2.79,2.79,0,0,1,1-.7c.32-.09.54-.06.54.38a6.32,6.32,0,0,1-.51,2c.57.19.79-.06.89-.57.15-.76.37-1.51.56-2.24a2.09,2.09,0,0,1,2.24-1.76h7.91c.38,0,.51-.07.48-.47a4.07,4.07,0,0,1,.37-2.12,1.93,1.93,0,0,1,2.27-1.13A5,5,0,0,1,128,83.78c.12.25.22.15.41.06,1.16-.73,2.36-1.45,3.53-2.18,0,0,0-.09-.06-.09-.57.09-.7-.16-.7-.69a4.45,4.45,0,0,0-.53-2.18,1.93,1.93,0,0,0-.95-.94c-.25-.1-.5-.16-.44-.54,0-.19-.16-.19-.32-.22a10,10,0,0,1-7.66-4.92c-.15-.25-.34-.25-.59-.25h-5.81a2.22,2.22,0,0,1-2.49-1.92c-.09-.35-.25-.29-.47-.29l-13-.09c-17.81-.16-35.58-.29-53.4-.44-9.77-.07-19.54-.16-29.28-.22V64.64h6.4q22.78-.18,45.55-.34Q89,64.11,110,64c.66,0,1.29,0,2,0,.29,0,.41-.07.48-.35a2.27,2.27,0,0,1,2.39-1.86h6.12a.73.73,0,0,0,.66-.35A9.89,9.89,0,0,1,128.3,57c.28-.06.56,0,.5-.53s.28-.6.66-.7l5.9-1.35c.88-.19,1.76-.41,2.64-.6.48-.13.86,0,1,.47.06.25.19.22.41.16l4-1a.74.74,0,0,0,.57-.37,1.28,1.28,0,0,1,1.23-.67h1.74c.25,0,.37,0,.37-.34,0-.92.38-1.23,1.26-1.23h2.21c.88,0,1.23.38,1.26,1.26,0,.25.07.35.35.31.53,0,1,0,1.57,0,.23,0,.29-.06.32-.28.09-1,.41-1.26,1.42-1.29h2.11c.85,0,1.2.38,1.29,1.2,0,.12-.09.31.13.34s.13-.19.16-.28a.88.88,0,0,1,.94-.66c.35,0,.41-.1.41-.44,0-1,0-2.08,0-3.16,0-.19-.12-.44.25-.47.19,0,.13-.28.13-.41.06-4,.13-8,.19-12,0-.79,0-1.54,0-2.33,0-.28,0-.44.38-.41s.28.25.28.44c.07,4.7.16,9.39.22,14.09,0,.25-.15.6.29.7.06,0,.06.25.06.4,0,1,0,2,0,3,0,.38,0,.6.47.54a1,1,0,0,1,.76.19c0-.41,0-.76.35-1,.15-.1.09-.25.09-.41V48.6c0-1.36.44-1.8,1.77-1.8h20c1.2,0,1.67.47,1.67,1.67v1.92a9.21,9.21,0,0,1,3-1.19,11.9,11.9,0,0,1,7.34.63,3.74,3.74,0,0,1,2.53,2.52c.06.22.22.12.34.12h2.4a1.41,1.41,0,0,1,1.32.67.45.45,0,0,0,.35.22,1.62,1.62,0,0,1,1.32,1.51c.32,2.14.6,4.29.89,6.46s.63,4.45.94,6.65c.28,2,.63,4.13.79,6.18.13,1.86-1,2.87-2.84,2.87H196c-.13,0-.16.06-.16.19s0,.22.13.25H209.5c.47,0,.57-.12.57-.57a11.08,11.08,0,0,1,0-1.63A1.17,1.17,0,0,1,211.36,74h14.47c.85,0,1.26.48,1.29,1.33s0,1,1,1h8.76c.28,0,.44,0,.57-.32A.89.89,0,0,1,239,76a.59.59,0,0,0,.6.32h14.47c.44,0,.57.09.57.56,0,1.42,0,2.81,0,4.23.19,0,.19-.16.22-.26a6.74,6.74,0,0,1,12.67,3.76,6.4,6.4,0,0,1-3.09,5.07c-.47.32-.38.44-.06.76,1.1,1.07,2.17,2.17,3.28,3.24.38.35.47.6-.07.92a4.31,4.31,0,0,0,1.39.47c.35.06.38.22.38.51,0,.72,0,1.45,0,2.17,0,.41-.06.63-.5.51-.07,0-.13,0-.35,0l7.69,4.44c-.72.79-1.45,1.54-2.18,2.33-.44.44-.94.85-1.35,1.33s-.5.31-.79,0c-.12-.16-.25-.54-.6-.19s-.12.91.44,1.1a1.4,1.4,0,0,1,1.11,1.76.7.7,0,0,0,.12.41,12.52,12.52,0,0,1,1.11,4.64.92.92,0,0,0,.19.53,1.39,1.39,0,0,1-.13,1.58,1.68,1.68,0,0,0-.35.69,11.58,11.58,0,0,1-1.83,4,1.14,1.14,0,0,0-.25.69,1.28,1.28,0,0,1-1.07,1.2,1.35,1.35,0,0,0-.66.31,9.72,9.72,0,0,1-4.07,2.27.91.91,0,0,0-.44.38,1.11,1.11,0,0,1-1.48.41.73.73,0,0,0-.66,0l-3.47,1.2a1,1,0,0,0-.57.44,1.13,1.13,0,0,1-1.45.51,1,1,0,0,0-.72,0c-1.11.4-2.24.81-3.34,1.19a1.81,1.81,0,0,0-1,.63,1,1,0,0,1-1.17.35,1,1,0,0,0-.72,0c-1.2.38-2.4.76-3.63,1.11a.85.85,0,0,0-.57.4,1.29,1.29,0,0,1-1.82.45c-.13-.07-.19-.22-.38-.16a13.67,13.67,0,0,1-3.78.19c-.7,0-1.08.44-1.55.75h-.76a4.42,4.42,0,0,0-2.9-.5,4.85,4.85,0,0,0-3,.5h-.66a2,2,0,0,1-.73-.31.83.83,0,0,0-.66-.16,13.28,13.28,0,0,1-3,.06,5.89,5.89,0,0,0-1.64.41h-.67a10.22,10.22,0,0,0-5.95,0h-.67a6.19,6.19,0,0,0-3.46-.31,2.74,2.74,0,0,1-.7,0,4.31,4.31,0,0,0-1.89.28h-.66a4.2,4.2,0,0,0-1.64-.28c-.91,0-1.8,0-2.71,0a3.47,3.47,0,0,0-1.51.28h-.76a4.2,4.2,0,0,0-1.64-.28c-.91,0-1.8,0-2.71,0a4.2,4.2,0,0,0-1.64.28h-.76a4.15,4.15,0,0,0-1.63-.28c-.86,0-1.74,0-2.59,0a4.2,4.2,0,0,0-1.64.28h-.76a3.47,3.47,0,0,0-1.51-.28c-.94,0-1.86,0-2.8,0a4.17,4.17,0,0,0-1.64.28h-.67a11.71,11.71,0,0,0-3.78-.28,4.74,4.74,0,0,0-2.17.28h-.66a14.08,14.08,0,0,0-6.06,0h-.66a6.45,6.45,0,0,0-2.58-.37,9.4,9.4,0,0,1-1.3,0,4.63,4.63,0,0,0-2.08.37h-.66a4.22,4.22,0,0,0-2.36-.37h-1.52a3.33,3.33,0,0,0-2.08.37h-.75a10,10,0,0,0-5.87,0h-.75a10.26,10.26,0,0,0-6,0h-.76a3.5,3.5,0,0,0-2.14-.37,11.21,11.21,0,0,1-1.42,0,4.43,4.43,0,0,0-2.3.37h-.66c-1.64-.69-3.34-.28-5-.34-.38,0-.7.28-1.08.34H132a10.26,10.26,0,0,0-6,0h-.66a4.17,4.17,0,0,0-1.64-.28c-.79,0-1.57,0-2.36,0a5.1,5.1,0,0,0-2,.28A2.6,2.6,0,0,0,118.74,133.17Zm35-1.95h3.91a.72.72,0,0,0,.51-.13,1.2,1.2,0,0,1,1.7,0c.34.25.53.19.63-.22.25-.88.53-1.76.79-2.65.22-.69.53-1,1-1s.85.32,1.07,1c.28.88.53,1.77.79,2.62.12.44.31.53.66.22a1.06,1.06,0,0,1,1.35-.16,2.44,2.44,0,0,0,1.52.35h3.15c.16,0,.35.06.5-.1a1.24,1.24,0,0,1,1.8,0c.28.22.47.16.57-.22a4.15,4.15,0,0,1,.25-.88c.16-.35,0-.5-.25-.66a13.67,13.67,0,0,1-5.68-7.13.52.52,0,0,0-.6-.41c-1.38,0-2.77,0-4.16,0-.63,0-1,.1-1.13.76a2.12,2.12,0,0,1-.25.6A13.92,13.92,0,0,1,153.1,131C153.26,131.25,153.48,131.22,153.7,131.22Zm-17.59-9.08a.43.43,0,0,0-.5-.35c-1,0-2,0-2.93,0a.5.5,0,0,0-.57.41,13.92,13.92,0,0,1-7.5,8.17c-.16.06-.41,0-.35.31s0,.44.22.54.35,0,.54-.16a1.16,1.16,0,0,1,1.57,0,.79.79,0,0,0,.54.19h3.94a.7.7,0,0,0,.5-.16,1.22,1.22,0,0,1,1.67,0c.35.25.54.22.67-.19.25-.88.53-1.76.78-2.64.22-.7.54-1,1-1s.86.31,1.08,1c.28.85.53,1.7.82,2.58.15.5.25.54.69.22a1.24,1.24,0,0,1,1.58,0,.75.75,0,0,0,.53.19h3.94a.65.65,0,0,0,.63-.35A14,14,0,0,1,136.11,122.14Zm58.67-.35a.44.44,0,0,0-.54.38,13.48,13.48,0,0,1-4,5.9c-.19.19-.29.31-.19.59.22.7.44,1.39.63,2.05s.25.63.79.29a1.09,1.09,0,0,1,1.32-.1,1.92,1.92,0,0,0,1.36.32h3.31a.85.85,0,0,0,.6-.19,1.19,1.19,0,0,1,1.57,0c.41.31.54.25.7-.25.18-.67.37-1.33.59-2a.56.56,0,0,0-.25-.75,13.35,13.35,0,0,1-3.78-5.33c-.38-.95-.38-.95-1.42-.95A5.76,5.76,0,0,1,194.78,121.79Zm33,5.39a13.57,13.57,0,0,1-2.87-4.54c-.34-.85-.34-.82-1.26-.88-.44,0-.63.13-.79.57a13.48,13.48,0,0,1-4.85,6.46c-1,.79-1,.76-.66,2,.15.44.31.47.69.19a1.25,1.25,0,0,1,1.64,0,.94.94,0,0,0,.54.16h3.9a.72.72,0,0,0,.51-.13,1.2,1.2,0,0,1,1.7,0c.32.22.5.19.63-.19.25-.88.54-1.8.82-2.68a3.24,3.24,0,0,1,.32-.72A.88.88,0,0,1,227.78,127.18ZM260,124.35a10.84,10.84,0,0,1-4.89-2.62c-.12-.09-.22-.41-.44-.16a.81.81,0,0,1-.72.22h-2.49a.5.5,0,0,0-.57.41,13.74,13.74,0,0,1-6.78,7.79c-.12.06-.41.06-.35.31s.1.48.35.57.35-.09.47-.25a1.22,1.22,0,0,1,1.45-.38.69.69,0,0,0,.51.06l3.81-1.32a.79.79,0,0,0,.38-.25,1.21,1.21,0,0,1,1.61-.57c.38.1.53,0,.53-.41-.06-.91-.09-1.8-.12-2.71s.16-1.14.66-1.32.91,0,1.39.63,1,1.38,1.54,2.08c.35.47.44.44.76,0a1.24,1.24,0,0,1,1.48-.51c.16,0,.28.13.47.07,1.26-.45,2.52-.89,3.82-1.33A13.94,13.94,0,0,1,260,124.35Zm-160.93,0c-.06.51,0,.6.54.48a1.21,1.21,0,0,1,1.42.63,1,1,0,0,0,.5.44l3.57,1.51a.5.5,0,0,0,.44.07,1.24,1.24,0,0,1,1.64.66c.15.28.37.34.59,0a8.87,8.87,0,0,1,.76-1c.16-.19.13-.31,0-.5a13.54,13.54,0,0,1-2.62-4.57c-.06-.26-.19-.35-.47-.32a1.59,1.59,0,0,1-1.32-.44c-1-.73-2-1.42-3-2.14-.34-.26-.57-.26-.85.06a4.6,4.6,0,0,1-.85.66c-.32.19-.47.35-.1.63.16.13.19.38.19.7C99.42,122.23,99.26,123.27,99.1,124.31ZM211.61,75.14c-.35,0-.47.09-.44.44a11.21,11.21,0,0,1,0,1.42c0,.41.12.47.47.47,3.12,0,6.24,0,9.36,0,.76,0,.76,0,.76-.72,0-.35.09-.45.44-.45,1,0,2.05,0,3.09,0,.44,0,.63,0,.6-.57s-.19-.6-.63-.6c-2.24,0-4.48,0-6.72,0Zm19,55.7c.13.44.31.54.66.22a1.08,1.08,0,0,1,1.36-.19c.63.51,1.32.29,2,.32a15.48,15.48,0,0,1-4.51-2C230.33,129.8,230.52,130.3,230.65,130.84Zm-137.09-9a1.22,1.22,0,0,1,1.54.78c.13.22.28.45.57.16l1.61-1.7a9.45,9.45,0,0,1-4.76.28C92.83,121.57,93.12,121.92,93.56,121.86Zm164.61-1.36a.9.9,0,0,0-.85.88,1,1,0,0,0,.91.85.86.86,0,0,0,.82-.85A.92.92,0,0,0,258.17,120.5Zm11.63-6.27a.84.84,0,0,0,1.67,0c0-.51-.25-.76-.94-.76A.71.71,0,0,0,269.8,114.23Zm-84.07,16.52c.47,0,.66.56,1,.44s.28-.67.44-1l-.06-.06C186.74,130.3,186.26,130.52,185.73,130.75Zm18.16-.57c.25,1.2.25,1.2,1.32.53C204.8,130.56,204.36,130.37,203.89,130.18Zm-92.52-.88c-.1,0-.1.28,0,.37s.41.1.69-.06C111.81,129.48,111.65,129.2,111.37,129.3Zm157.14-20.43c-.54,0-.76.53-1.11.79a1.19,1.19,0,0,0-.47,1.42,1.7,1.7,0,0,0,1.2,1.19.5.5,0,0,0,.41-.06c.47-.32.95-.66,1.42-.95a.59.59,0,0,0,.34-.63A1.68,1.68,0,0,0,268.51,108.87Zm.06,7.22a1.73,1.73,0,1,0,0,3.46,1.69,1.69,0,0,0,1.7-1.7A1.67,1.67,0,0,0,268.57,116.09Zm-7.94,5.29a1.75,1.75,0,0,0,1.7,1.8,1.73,1.73,0,0,0,1.73-1.77,1.69,1.69,0,0,0-1.7-1.7A1.66,1.66,0,0,0,260.63,121.38Z"/><path class="cls-2" d="M89.84,114.32c.66,0,1,.32,1,1a1,1,0,0,1-2,0A1,1,0,0,1,89.84,114.32Z"/><path class="cls-2" d="M97.94,117.19a1,1,0,1,1-1-1A1,1,0,0,1,97.94,117.19Z"/><text class="cls-3" transform="translate(95.15 94.71)">USSR</text></g></g></svg>