<?xml version="1.0" encoding="utf-8"?>
<!-- Generator: Adobe Illustrator 22.0.1, SVG Export Plug-In . SVG Version: 6.00 Build 0)  -->
<svg version="1.1" id="레이어_1" xmlns="http://www.w3.org/2000/svg" xmlns:xlink="http://www.w3.org/1999/xlink" x="0px"
	 y="0px" viewBox="0 0 384.4 216" style="enable-background:new 0 0 384.4 216;" xml:space="preserve">
<style type="text/css">
	.st0{fill:#263324;}
	.st1{fill:#344256;}
	.st2{fill:#513131;}
	.st3{fill:#252E35;}
	.st4{fill:#272D38;}
	.st5{fill:#141A23;}
	.st6{fill:#131C21;}
	.st7{fill:#211314;}
	.st8{fill:#1E2D3F;}
	.st9{fill:#352525;}
	.st10{fill:#121E11;}
	.st11{fill:#2B2B2B;}
	.st12{fill:#141311;}
	.st13{enable-background:new    ;}
	.st14{fill:#FFFFFF;}
	.st15{clip-path:url(#SVGID_2_);fill:#141A23;}
	.st16{clip-path:url(#SVGID_4_);fill:#131C21;}
	.st17{clip-path:url(#SVGID_6_);fill:#141311;}
	.st18{clip-path:url(#SVGID_8_);fill:#211314;}
	.st19{clip-path:url(#SVGID_10_);fill:#1E2D3F;}
	.st20{clip-path:url(#SVGID_12_);fill:#211314;}
	.st21{clip-path:url(#SVGID_14_);fill:#121E11;}
	.st22{fill:none;}
</style>
<title>자산 5</title>
<rect x="975.4" y="87.8" class="st0" width="115" height="45.7"/>
<rect x="975.4" y="-33.4" class="st1" width="115" height="45.7"/>
<rect x="975.4" y="-94.1" class="st2" width="115" height="45.7"/>
<rect x="975.4" y="-154.6" class="st3" width="115" height="45.7"/>
<rect x="975.9" y="-209.5" class="st4" width="115" height="45.7"/>
<path class="st5" d="M994.7-194.7l2.9,1l9.7-1.1c0,0,0.9,0.2,0.9,1.1c0,1-1.4,1.3-1.4,1.3l-3.9,0.9c5.2,2.7,7.7,4.4,7.7,4.4
	c1.1-0.3,2.8-0.2,2.8-0.2c4.1,0.7,5.1,4.9,5.1,4.9c0.7,1.5,1.4,2,1.4,2l2.3-0.2c0.3-0.4,0.8-0.1,0.8-0.1l1.1-0.1
	c0.4-0.5,0.9-0.1,0.9-0.1l1-0.1c0.5-0.3,1.1-0.1,1.1-0.1s31.8-3.9,34.1-4.1c2.3-0.2,3,0.6,3,0.6c1,0.2,0,0.7,0,0.7
	c0.1,0.5-0.6,1.5-1,2.4s-1.1,0.8-1.1,0.8l-31.8,5.5c0,0,3.6,0.2,5.4,0.2c1.7,0,1.7,0.4,1.9,0.8c0.2,0.4-0.1,0.3-0.1,0.3l-9.2,0.3
	c0,0,0,0.5-0.1,1.9s-3.4,0.5-3.4,0.5l0.1,0.4l-1.3-0.2v0.3h-0.3c0.4,0.3,0.6,0.8,0.6,0.8v1c0,0.6-0.7,0.5-0.7,0.5s-0.5-0.1-0.6-1
	c0-0.9,0.6-1,0.6-1l-0.6-0.6h-0.5l0.1,2.2l-1.4-1.6c0.3,0.9,0,3,0,3s-0.6,2.7-2.7,1.9c-2.1-0.8-1.6-4.7-1.6-4.7
	c-4.2,0.1-6-1.7-6.5-2.4s0.1-0.9,0.1-0.9h1.8l-0.3-0.3c-6.1-0.7-15.5-2.2-15.5-2.2l-0.5,1.4l0.3,0.3v0.1h-0.4l0.2,0.2l-0.4,0.1
	l-0.5,1.2v1.2c1.4,3-0.6,4.4-0.6,4.4s-2.7,1.1-3.4-1.1c-0.7-2.2,0.5-3.6,0.5-3.6l2.6-4.5c0,0,1.3,0.3-7.1-0.9
	c-8.4-1.2-8.9-2.7-8.9-2.7l21.4,0.4c-6.5-4.8-6.9-7.5-6.9-7.5l-0.1-0.1c0,0-0.9,5.3-1.3,9.7c-0.5,4.5-1.4,3.3-1.4,3.3
	s-0.2-1.6,1.1-7.7c1.3-6.1,1.1-6.8,1.1-6.8c-0.6-0.4-2.3-2.2-2.3-2.2l-7.3,1.2c0,0-1.3,0.2-1.4-0.3c-0.1-0.5,1-1.1,1-1.1
	c0.3-0.3,6.7-1.1,6.7-1.1c-0.6-1.1-0.2-2.2-0.2-2.2c0.6-1.6,3.7-1.2,3.7-1.2s1-4.6,1.9-9.1s2.1-3.6,2.1-3.6
	c1.2,0.6-0.9,13.3-0.9,13.3L994.7-194.7z M1011.8-186.6c0,0,0.8,0.2,1.1,1.2s0.9,1.2,0.9,1.2v-1.6c0,0-0.4-1.1-0.6-1.3
	C1013-187.3,1011.8-186.6,1011.8-186.6z M1013.6-187.2c0,0,0.6,0.5,1,2.5l4,2.3C1018.5-182.4,1017.4-186.4,1013.6-187.2z
	 M1010.7-187.1l0.8,0.5c0.8-0.5,1.7-0.6,1.7-0.6C1013-187.4,1010.7-187.1,1010.7-187.1z"/>
<g>
	<path class="st6" d="M994.6-125.1c1.3-4,1.1-6.7,1.1-6.7s0-0.7-0.2-1s-0.1-0.7-0.1-0.7c-1.8-1.5-1.8-3.7-1.8-3.7s-1.5-0.3-3.9-2.1
		s-0.9-2.2-0.9-2.2c2.6-0.6,5.9,3.2,5.9,3.2c0.7-0.6,4.3-0.1,4.3-0.1c0.9-0.7,1.4-1.4,1.4-1.4c1.5-2.4,7.5-5.6,7.5-5.6
		c2.8-1.8,2,0.1,2,0.1c-2.6,4.8-8.7,7.4-8.7,7.4c1.3,0.2,2.2,0.8,2.2,0.8l4.6,2.8c0.5,0,0.8,0.5,0.8,0.5l4,2.6
		c0.9-0.4,2.2-0.3,2.2-0.3c1.8,0.2,3.1,2.6,3.1,2.6c1.3,1,2.4,2,2.4,2l0.9-0.1c-0.6-0.3-2.2-1.7-2.2-1.7l-0.8-0.6
		c-0.5-0.6,0.2-0.4,0.2-0.4l4.5,2.5c0,0,43-7,42.3-3.4c-0.7,3.6-33.2,9.8-33.2,9.8c5.7,0.7,4.9,1,4.9,1c-0.3,0.8-7.6,0.4-7.6,0.4
		c-0.1,2.5-1,2.7-1,2.7l-0.9-0.1l0.2,0.7c0-0.2,0.3-0.2,0.3-0.2c0.4,0.1,0.4,0.7,0.4,0.7s0,0.8-0.4,0.8s-0.5-0.4-0.5-0.4l-0.2-0.1
		v-0.7l-0.3-0.9c-5.4-0.4-12.8-2.2-12.8-2.2h-1.7l-0.1,0.9h-0.1v0.4c1.3,0.1,1.7,1.2,1.7,1.2c0.4,1.7,0,3.2,0,3.2s-0.4,1.7-2,1.5
		s-1.8-2.3-1.8-2.3c-0.7,0-0.7-0.4-0.7-0.4v-1.6c0.2-1.8,1.2-2,1.2-2c0.7-0.2,0.5-0.8,0.5-0.8h-1.7c-0.1,0.1-0.1,0.3-0.1,0.3
		c-3.1,0.2-7.3-0.5-7.3-0.5l-0.7,1.5c0.9,1.5,0,3.4,0,3.4h-0.7c-0.8,2.5-2.8,1.6-2.8,1.6s-1.6-1-1.1-3.2s2.2-2,2.2-2
		c0.2-0.3,0.9-0.4,0.9-0.4c0.3-0.5,0.8-0.5,0.8-0.5l0.3-1c-0.5-0.2-0.4-0.7-0.4-0.7l-5.6-1c0,0-0.2,2.2-0.9,2.2s-0.2-2.4-0.2-2.4
		l-1.1-0.2c-1.2,0.3-1.4-0.3-1.4-0.3s-1.8-0.5-8-1.7s-5.3-1.8-5.3-1.8c0.7-0.3,9.8,0.1,9.8,0.1l-2.6-1.1c-0.4-0.3,0.1-0.4,0.1-0.4
		l5.4,1.8L994.6-125.1z M995.9-127.3c0,0-0.5,2.2-0.3,2.2s1.8,0,1.8,0S996.4-125.9,995.9-127.3z M1013.8-130.6
		c0.9-0.6,0.8-0.7,0.8-0.7c-0.6-0.1-1.5,0.3-1.5,0.3L1013.8-130.6z M1014.4-130.6c0,0-0.2,0.2,0.2,0.5s1.2,0.8,1.2,0.8
		s0.4,0.2,0.2-0.3s-0.5-1.1-0.5-1.1s-0.3-0.5-0.6-0.3C1014.6-130.8,1014.4-130.6,1014.4-130.6z M1015.3-131.3c0,0,0.6,0.4,1.1,2.1
		c0,0,0.9,0.7,1.9,1.4C1018.3-127.8,1017.7-130.5,1015.3-131.3z"/>
	<polygon class="st6" points="1014,-131.5 1014.2,-132 1014.9,-132 1014.7,-131.5 1014.6,-131.5 1014.6,-131.3 1014.4,-131.3 
		1014.4,-131.5 	"/>
</g>
<path class="st7" d="M996.1-69.6c-1.1-1.2-0.7-3.8-0.7-3.8c-1.4-1.1-1.1-2.6-1.1-2.6l-0.1-0.1c-2-1.1-2.9-1.9-4-2.6
	c-1.1-0.8-0.5-1.4-0.5-1.4c2.1-0.3,6.2,3,6.2,3c0.7,0,1.5,0.1,1.5,0.1c1.5-1.9,4.4-1.6,4.4-1.6s2.1-1.7,5.1-3.8c2.9-2.1,3-1.3,3-1.3
	c0.7,1.1-5.1,6.1-5.1,6.1l2.2,1.4c0.9,0.5,1.3,1.1,1.3,1.1l1.2,0.3c1.6-0.8,3-0.4,3-0.4c4.6,2.5,6.6,6.6,6.6,6.6s39-5.2,42.4-5.6
	c3.5-0.4,3.5,2,3.5,2c0.4,3.4-2.6,3.8-2.6,3.8l-36.1,7l0.1,0.5c0.6,0.2,2.3,0.2,2.3,0.2s7.5,0.2,10.8,0.8s0,0.8,0,0.8l-9.9,0.3
	c0,0,0,1.3,0.2,1.6s0.2,0.6,0.2,0.6h-0.7l-0.4-0.3h-0.1v0.3h-0.1v0.7c0.1,0,0.2,0,0.2,0s-0.4-0.4,0,0s0,0.8,0,0.8s-0.2,0.1-0.4,0
	s-0.2-0.7-0.2-0.7l-0.6-1.1c-2-0.1-6.4-1.2-6.4-1.2l-0.1,1c1,2.3,0,4.5,0,4.5l-0.6-0.1c-0.2,1-1.2,1.3-1.2,1.3s-2.2,0.7-2.5-2.5
	s2.1-4.9,2.1-4.9c-2.8-1.2-10.2-2.2-10.2-2.2l-12.5-1.9c-0.4,2.4-0.8,3.1-0.8,3.1s-0.3,0.7-0.7,0.6c-0.3-0.1,0.1-2.9,0.1-2.9
	l-0.8,3.6c0.4,0.5,0.2,1.3,0.2,1.3c1,1.2,0.4,2.7,0.4,2.7s-0.9,2.2-2.6,1.7s-1.5-1.9-1.5-1.9c-0.7-0.3-0.9-0.8-0.9-0.8
	c0.1-2.3,2.4-2.6,2.4-2.6c0.1-1,0.5-1.1,0.5-1.1l1.2-4c-15.3-2.4-15.5-4.1-15.5-4.1l17.4,0.1C995.7-67.7,996.1-69.6,996.1-69.6z
	 M997-67c0,0.1,2,0,2,0c-0.8-0.4-1.8-1.3-1.8-1.3C997-67.3,997-67.1,997-67z M1010.2-74.7c0-0.1,1.3-0.5,1.3-0.5c-1,0-2,0.5-2,0.5
	H1010.2z M1012.3-73.8l0.3-0.9l-0.7-0.5c0,0,0.5,0,0,0c-0.6,0-1.2,0.8-1.2,0.8L1012.3-73.8z M1012.5-73.6v0.8l0.9,0.7l-0.3-2
	C1013.1-74.1,1012.7-73.9,1012.5-73.6z M1013.3-74.2l0.4,2.3l1.4,0.9l-0.6-2.3L1013.3-74.2z M1015.3-70.8l1.2,0.8l-0.4-1.9l-1.4-1.1
	L1015.3-70.8z M1013-74.1v-0.2l-0.2-0.2c0,0-0.2,0.4-0.2,0.5L1013-74.1z M1016.2-71.9l0.5,2l1.9,1.2h0.3
	C1018.8-68.6,1017.4-71,1016.2-71.9z"/>
<path class="st8" d="M994.8-20.9c1.1-0.9,7.1-5.9,10.6-8.4c3.5-2.4,1.2,0.5,1.2,0.5s-5.4,4.6-6.7,5.7s-3.5,2.4-3.5,2.4
	c3.1,0.1,3.7,0.7,3.7,0.7c4.9,3.1,14,9.9,14,9.9s1.2-0.7,2.4-0.5s4.1,3.6,4.1,3.6l33.8-3.1c0,0,7.5-1.2,8.4,0.7
	c0.8,1.9-4.1,3.4-4.1,3.4c-10.9,2.8-28.2,5.4-28.2,5.4c5.1,0.1,5.7,0.4,5.7,0.4s1.6,0.5,0.2,0.9s-8.3,0.2-8.3,0.2v1.7
	c0,0,0,0.7-0.2,1.3s-1.7,0.5-1.7,0.5l-0.4,0.3v0.6c0.3,0,0.3,0.4,0.3,0.4v0.4c0,0,0.2-0.1,0.2,0.2c0,0.2-0.2,0.2-0.2,0.2l-0.1,0.2
	c0,0-0.1,0.4-0.4,0.3c-0.3,0-0.5-0.3-0.5-0.9s0.5-0.8,0.5-0.8V5.2h-0.1V4.6h-0.1V4.3c-3.7-0.3-6.5-0.9-6.5-0.9l-0.3,0.9
	c0.7,1,0.3,3.2,0.3,3.2l-1.3,0.9c-0.4,3-2.6,2.1-2.6,2.1s-1.6-0.9-1.7-3.6c-0.1-2.7,1.4-3.3,1.4-3.3h1.3c0.4-0.3,1-0.2,1-0.2V3
	l-1.4-0.1c0,0-2.4,0.8-6.4,0.1c-4-0.6-4.6-2.2-4.6-2.2l-8.2-1.1l-1.7,3.8c0,0,1.7,1,1.1,3.4c-0.6,2.5-2.4,2.2-2.4,2.2s-1,0-1.7-0.7
	c-0.7-0.6-0.6-2.2-0.6-2.2l-0.4-0.3c0.6-3.3,2.3-2.8,2.3-2.8c0.1-0.3,0.3-0.3,0.3-0.3l1.4-3.5c0,0-9-1.2-13-2.3
	c-3.9-1.2-3.5-1.5-3.5-1.5l19.9-0.6c-4.1-3.6-5.4-5.7-5.4-5.7c0,1.9-2.4,9-3.5,9.8S988-1,988-1s-0.2,0.6,0.3-5.6
	c0.6-6.1,2.9-9.4,2.9-9.4c-1.9-1.8-2-3.3-2-3.3c-2.2-0.7-3.5-2.2-4.5-3.2c-1-0.9-0.8-1.6-0.8-1.6s0-0.3,0.2-0.5
	c0.2-0.1,0.7-0.1,0.7-0.1c4.1,1.3,5.5,3.2,5.5,3.2C992.6-21.9,994.8-20.9,994.8-20.9z M1014.8-9.6c1.7-0.7,1.6-0.9,1.6-0.9
	c-1.2-0.1-2.1,0.5-2.1,0.5L1014.8-9.6z M1017.8-7.5c0.3,0.2,0.2-0.1,0.2-0.1c-0.1-1.7-0.8-2.5-0.8-2.5s-0.5-0.5-0.6-0.3
	s-1.5,0.9-1.5,0.9C1015.9-9,1017.5-7.7,1017.8-7.5z M1017.3-10.1c0,0,0.9,1.1,1,2.7c0,0,0,0.2,0.2,0.3c0.2,0.1,0.3,0.3,0.3,0.3h1
	C1019.8-6.8,1019.9-8.3,1017.3-10.1z M1019.5-8.1c0,0,0.4,0.9,0.5,1.2h0.4C1020.4-6.9,1020.2-7.2,1019.5-8.1z"/>
<rect x="975.9" y="30.1" class="st9" width="115" height="45.7"/>
<path class="st7" d="M995,41.3c0.6-0.5,4.4-3.2,4.4-3.2c5.1-3.6,3.7-3,6.5-4.8s1.1,0.4,1.1,0.4s-2.6,2.4-5.5,4.1
	c-2.8,1.6-4.8,3.9-4.8,3.9c1.9,0.3,4.2,1.6,4.2,1.6l6.1,3.8c1.1,0,3.5,2.3,3.5,2.3c0.9-0.6,2.4-0.1,2.4-0.1s1.8,1.4,2.8,2.1
	s3,3.2,3,3.2h0.2c0,0,28.8-2.3,36.5-3.1s6,2.2,6,2.2s-0.6,0.9-4.4,2.5s-26.2,5.5-26.2,5.5s7.5,0.4,6.7,1.2s-8.6,0.5-8.6,0.5
	c0,3-1.2,3-1.2,3v0.2l-1,0.1c0-0.7-0.4-0.6-0.4-0.6v0.4l0,0v0.1c0.2,0,0.3,0.6,0.3,0.6v0.9c0,0,0,0.4-0.6,0.4s-0.6-0.3-0.6-0.3V68
	l0,0v-0.2l0,0v-0.2h-0.1v-0.3h-0.1v-0.4l-0.6,0.1c0-0.4,0.2-0.7,0.2-0.7c-0.6,0-1.3-0.1-1.3-0.1c0,1.9-0.3,4-0.3,4l-1.1,0.3
	c-1,4-3.3,2-3.3,2s-0.8-0.9-1-2.5s0.3-3.4,0.3-3.4s1,0-2.4-0.1c-3.4-0.2-4.6-3-4.6-3l-1.2-0.1v0.2l-0.4-0.4l-5-0.7
	c0,0.3-0.2,1.2-0.2,1.2l-1.4-1.5l-6.7-1l-1.3,0.6h-0.3l-0.8,4c1.1,1.7-0.1,3.7-0.1,3.7s-0.7,1.4-2.4,1.2c-1.7-0.1-2.1-2.1-2.1-2.1
	l-0.8-0.2c-0.2-0.5,0.1-1.6,0.1-1.6s1-1.7,1.7-1.9c0.7-0.1,1.1-0.8,1.1-0.8l1.6-3.5c-6.6-1.3-7.4-1.6-7.4-1.6c-6.7-1.7-4-2.1-4-2.1
	l16.7-1c-4.3-3.7-5.3-5.5-5.3-5.5c-2.1,12.8-4.8,12.2-4.8,12.2s-0.6,0,0.2-6.2s2.6-9.2,2.6-9.2c-2.5-1.9-2.7-4.4-2.7-4.4
	s-1.6-0.8-3.2-2.4c-1.6-1.6-0.2-2.3-0.2-2.3c1.3-0.4,4.5,2.7,4.5,2.7C991.3,40,995,41.3,995,41.3z M1011.3,49.8
	c0.4-0.5,1.3-0.5,1.3-0.5c-1.1-0.3-1.9,0.1-1.9,0.1L1011.3,49.8z M1014.2,51.7c0,0-0.5-2-1.1-2.1s-1.4,0.3-1.4,0.3
	S1012.2,50,1014.2,51.7z M1014.7,51.9l2.1,1.4c-0.4-1.6-3.1-3.3-3.1-3.3C1014.1,50.4,1014.7,51.9,1014.7,51.9z M1016.6,52.2
	c0,0,0.4,1.2,1.1,1.7s0.9,0.6,0.9,0.6S1017.3,52.9,1016.6,52.2z M995,61.1c0,0-0.1,0.4-0.1,0.6s1.1-0.4,1.1-0.4S995.6,61.2,995,61.1
	z"/>
<path class="st10" d="M996.1,92.9c1.4-3.6,1.5-0.6,1.5-0.6c0.7,4.5-1.8,10.8-1.8,10.8c0.5,0.1,1.3,0.5,1.3,0.5
	c1.1-0.2,2.8,0.1,2.8,0.1c6.2,1.5,14,6.9,14,6.9c0.7-0.9,1.9-0.5,1.9-0.5c1.7,0.8,4.6,4.3,4.6,4.3l0.5,0.1c0,0,26.8-2.5,34.6-3.2
	s9,0.8,9,0.8c2.9,2.4-7.7,3.9-7.7,3.9l-31.4,4.1l1.6,1.6c1.3,0,8.8,0.5,8.3,1c-0.5,0.6-7.3,0.6-7.3,0.6l0.6,1l-0.8,0.1v0.1l-0.4,0.4
	h-0.1l0.2-0.5c-0.4-0.3-0.5,0-0.5,0v0.4v0.2c0.5,0,0.4,0.7,0.4,0.7c0.2,0.1,0,0.3,0,0.3s0,1-0.5,0.8c-0.5-0.1-0.5-1-0.5-1
	c-0.2-0.2-0.1-0.4-0.1-0.4v-0.3c-0.8,0-0.9-0.7-0.9-0.7c-2.2-0.1-4.4-0.7-4.4-0.7l-0.2,2.8l-0.1,0.2v1.4l-1.1,0.3
	c-0.4,1.5-1.3,1.6-1.3,1.6h-1.1c0,0-1.3-0.6-1.3-2.9c-0.1-2.3,1.1-3,1.1-3l-3.9-0.1l-1.4-0.6l-0.8-0.7v-1.5l-2.8-0.4
	c0,0,0-0.1,0,0.7c0,0.7-0.5,0.3-0.5,0.3l-1.1-1.1l-7.5-0.8l-1.9,1.3l-0.2,0.7c-0.2,0.8-0.3,0.7-0.3,0.7s-0.2,0.4-0.3,0.9
	s0.4,0.7,0.4,0.7c0.4,0.3,0.1,0.8,0.1,0.8c0.1,0.3,0.1,0.6,0.1,0.6v1.1c0,0-0.2,2.1-2.1,2.1c-1.9,0-2-2-2-2l-0.8-0.4
	c0,0,0.3-2,1.3-2.4c1-0.5,1.6-1.2,1.6-1.2l1.1-2.8c-0.2-0.1-0.5-0.4-0.5-0.4c-6.2-0.3-9.9-0.9-9.9-0.9c-7.8-1.5-5.6-2.2-5.6-2.2
	l13.3-0.2l-1.4-0.6c-0.6-0.5,0.3-0.4,0.3-0.4l2.8,1h3c-1-0.4-1.4-0.9-1.4-0.9c-0.7-1,0.4-1.8,0.4-1.8c-0.1-0.2-0.5-0.5-0.5-0.5
	c-2.4-1.5-2.3-1.7-2.3-1.7v-1.3c-1.1-0.7-2.1-1.9-2.1-1.9c-2,1.3-5.9,4.2-8.3,6c-2.4,1.8-0.1-0.3-0.1-0.3l7.6-6.6
	c-0.8-1.1-0.6-2.7-0.6-2.7c0.5-1.9,3.2-1.7,3.2-1.7C994,100.4,994.7,96.5,996.1,92.9z M997.6,119.7l-0.3,1l1.2-0.9L997.6,119.7z
	 M1014.7,111.1l0.8-0.9c-1-0.3-1.5,0.5-1.5,0.5L1014.7,111.1z M1017.1,113.1c-0.6-3-1.4-2.6-1.4-2.6l-0.7,0.8L1017.1,113.1z
	 M1017.3,113.1l0.3,0.4c0-0.2,0.3-0.4,0.3-0.4l-0.5-1.4l-0.7-0.6C1016.8,111.3,1017.3,113.1,1017.3,113.1z M1017.6,111.9l0.5,1.3
	c0,0,0.2-0.1,0.7,0.4l-0.3-0.7L1017.6,111.9z"/>
<g>
	<rect x="1222.1" y="587.1" class="st11" width="292.4" height="165.5"/>
	<path class="st12" d="M1285.5,639.1c0,0,5.3-31.3,5.6-31.9s1.5-1.2,1.5-1.2c5.9,1.1,2.9,35.6,2.8,37.3s-4.9,3.9-4.9,3.9
		c18.8,6.3,28.5,12,31.2,12.9s6.7,2.6,6.7,2.6l9.7,5.7l0.4-0.5l8.2-0.5c1.4,0.4,12.2,8.6,12.3,8.8c0.1,0.2,3.1,4.1,3.1,4.1l6.9,6.3
		l1.2-0.2c0,0,94.6-11.4,101.8-11.5c7.2-0.1,23.7,0.1,27.3,3.9s-25.4,11.9-25.4,11.9l-79.3,14v6.3c0.7,0.4,0.6,0.7,0.6,0.7
		c-0.2,1.9-4.2,2.1-4.2,2.1h-4.3v1.5c2.1,0.3,1.9,3.3,1.9,3.3s0.1,3.2-1.8,2.8c-2-0.4-1-5.5-1-5.5v-2c-4.8,1.2-30.3-2.8-30.3-2.8
		l-2.4,7.7l1.9-7.9l-11.9-1.5l-0.1,1.7c0,0,4.8-0.4,6.8,8.2c2,8.6-0.8,12.4-0.8,12.4s-2,3.3-6.5,1.6c-4.4-1.7-5.9-12.1-5.9-12.1
		s-3.3-3.1-1.8-7s3.5-1.9,3.5-1.9v-2.8h-2.6c1.6,0.8,2.6,1.9,2.6,1.9c-4.1-1.9-28-5.4-28-5.4l-6.8,8.6c2.4,6.3-2,11.3-2,11.3l-2-0.9
		c0,0,0.1,0.3-2,3.4c-2.2,3.1-8.1,2-8.1,2c-6.4-3.5-3.2-12.5-3.2-12.5s0.9-3.2,4.7-6.1c3.7-2.9,7.3-0.3,7.3-0.3c1.3-0.2,2,0.3,2,0.3
		l5.2-8.1c-17.3-2.3-54.2-9.9-54.2-9.9s-16.2-4.2-14-5.7s6.6-1.2,6.6-1.2c0.7-0.8,9-7.6,12.5-9.5s16.7-11.6,16.7-11.6
		c-3.8-5.3-2.1-12-2.1-12c2.6-7.8,13.9-7.4,13.9-7.4C1284.9,644.2,1285.5,639.1,1285.5,639.1z M1247.4,687.2l50.9,3.1l-1-2.7
		c0,0-15.5-11.7-16.2-14.3c0,0-5.4-3.6-6.5-5.2C1274.7,668.2,1248.7,686.8,1247.4,687.2z M1343.3,671.3l2.3-3.4l-7,0.6v0.3
		L1343.3,671.3z M1351.9,679.3l-2.5-8.8l-0.6-0.6h-1.8l-1.4,2.7L1351.9,679.3z M1350.2,670.5l2.6,8.7l7.4,5.4l-2.1-8.4L1350.2,670.5
		z M1359.6,678.7l2.2,2.1v-1l-2.5-3.2L1359.6,678.7z M1360.6,684.2h0.7l0.3-2.8l-1.9-1.8L1360.6,684.2z"/>
</g>
<text transform="matrix(1 0 0 1 1180.3604 -194.046)" class="st14" style="font-family:'Jost-Light'; font-size:46.9013px;">Germany</text>
<g>
	<rect x="1217.2" y="786.2" class="st4" width="292.4" height="165.5"/>
	<path class="st5" d="M1282,844.4l8.8,3l29.4-3.3c0,0,2.8,0.5,2.8,3.4s-4.1,4-4.1,4l-11.9,2.8c15.8,8.1,23.4,13.4,23.4,13.4
		c3.3-0.9,8.6-0.6,8.6-0.6c12.8,2.2,15.8,14.9,15.8,14.9c2,4.7,4.3,6,4.3,6l6.9-0.7c1-1.2,2.5-0.3,2.5-0.3l3.4-0.3
		c1.2-1.4,2.7-0.4,2.7-0.4l2.9-0.3c1.4-1,3.4-0.4,3.4-0.4s96.6-11.9,103.7-12.5c7.2-0.6,9.2,1.8,9.2,1.8c3,0.7,0,2.1,0,2.1
		c0.2,1.6-1.7,4.7-2.9,7.3c-1.2,2.6-3.3,2.3-3.3,2.3l-96.7,16.7c0,0,11,0.6,16.3,0.5s5.1,1.2,5.8,2.3c0.7,1.1-0.2,1.2-0.2,1.2
		l-27.8,1.1c0,0-0.1,1.7-0.3,5.9c-0.2,4.2-10.4,1.7-10.4,1.7l0.5,1.3l-4-0.5l-0.1,1h-1.1c1.2,1,1.7,2.6,1.7,2.6v3
		c-0.2,2-2.1,1.6-2.1,1.6s-1.7-0.2-1.7-2.9s1.7-3.2,1.7-3.2l-2-2h-1.4l0.3,6.7l-4.2-4.8c1,2.8,0,9,0,9s-2,8.2-8.3,5.7
		s-4.8-14.1-4.8-14.1c-12.8,0.2-18.1-5.1-19.7-7.3s0.3-2.7,0.3-2.7l5.4-0.2l-0.9-0.8c-18.5-2.1-47-6.7-47-6.7l-1.7,4.2l0.9,0.9v0.4
		h-1.1l0.5,0.7l-1.2,0.4l-1.5,3.5v3.5c4.3,9.2-2,13.5-2,13.5s-8.3,3.5-10.2-3.5c-2-6.9,1.6-10.8,1.6-10.8l7.9-13.8c0,0,4,1-21.6-2.8
		s-27-8.1-27-8.1l65.2,1.3c-19.8-14.5-20.9-22.7-20.9-22.7l-0.4-0.2c0,0-2.6,16-4.1,29.6s-4.3,10-4.3,10s-0.7-4.8,3.4-23.3
		s3.3-20.8,3.3-20.8c-1.7-1.1-6.9-6.7-6.9-6.7l-22.1,3.6c0,0-3.8,0.5-4.2-0.9c-0.3-1.5,3.2-3.3,3.2-3.3c1.1-0.8,20.4-3.4,20.4-3.4
		c-1.7-3.4-0.7-6.5-0.7-6.5c1.8-4.8,11.3-3.8,11.3-3.8s3.1-14,5.9-27.6c2.8-13.5,6.3-11,6.3-11c3.8,1.8-2.6,40.4-2.6,40.4
		L1282,844.4z M1334.2,869.2c0,0,2.3,0.6,3.3,3.8s2.9,3.6,2.9,3.6v-4.9c0,0-1.1-3.4-1.9-4C1337.8,867.1,1334.2,869.2,1334.2,869.2z
		 M1339.5,867.3c0,0,1.8,1.7,2.9,7.5l12,7C1354.5,881.8,1351.2,869.7,1339.5,867.3z M1330.7,867.7l2.5,1.4c2.3-1.4,5.2-1.9,5.2-1.9
		C1337.6,866.8,1330.7,867.7,1330.7,867.7z"/>
</g>
<text transform="matrix(1 0 0 1 1221.7687 4.9901)" class="st14" style="font-family:'Jost-Light'; font-size:46.9013px;">USA</text>
<rect x="1127.8" y="109.3" class="st3" width="292.4" height="165.5"/>
<g>
	<path class="st6" d="M1185.7,206.4c3.8-11.9,3.4-19.9,3.4-19.9s-0.1-2.1-0.6-3c-0.5-0.8-0.4-2.1-0.4-2.1c-5.2-4.4-5.3-11-5.3-11
		s-4.5-0.8-11.6-6.2s-2.5-6.6-2.5-6.6c7.7-1.8,17.5,9.4,17.5,9.4c2.1-1.8,12.8-0.2,12.8-0.2c2.6-2.1,4.3-4.1,4.3-4.1
		c4.4-7.2,22.3-16.5,22.3-16.5c8.4-5.4,6.1,0.3,6.1,0.3c-7.7,14.1-25.8,22-25.8,22c4,0.6,6.5,2.4,6.5,2.4l13.6,8.4
		c1.6,0,2.4,1.6,2.4,1.6l11.8,7.8c2.8-1.2,6.4-0.9,6.4-0.9c5.2,0.6,9.2,7.6,9.2,7.6c3.7,2.8,7.2,5.9,7.2,5.9l2.7-0.2
		c-1.9-1-6.6-5.1-6.6-5.1l-2.5-1.7c-1.6-1.8,0.7-1.1,0.7-1.1l13.3,7.3c0,0,127.7-20.8,125.7-10.2s-98.7,29-98.7,29
		c17,2,14.7,3,14.7,3c-0.9,2.3-22.5,1.3-22.5,1.3c-0.2,7.6-3.1,8.1-3.1,8.1l-2.7-0.2l0.5,2.2c0-0.6,0.8-0.6,0.8-0.6
		c1.1,0.4,1.1,2.2,1.1,2.2s0.1,2.3-1.2,2.3c-1.3,0-1.4-1.2-1.4-1.2l-0.5-0.4v-2.2l-0.8-2.6c-16.1-1.3-38-6.7-38-6.7l-4.9,0.1
		l-0.2,2.6h-0.4v1.1c4,0.4,5,3.5,5,3.5c1.1,5,0,9.5,0,9.5s-1.3,5.1-6,4.4s-5.4-6.7-5.4-6.7c-2.1-0.1-2.1-1.3-2.1-1.3v-4.6
		c0.7-5.5,3.6-5.9,3.6-5.9c2-0.6,1.6-2.5,1.6-2.5h-5.2c-0.3,0.3-0.4,0.9-0.4,0.9c-9.3,0.7-21.8-1.5-21.8-1.5l-2.1,4.5
		c2.6,4.4,0,10.2,0,10.2l-2.2-0.1c-2.5,7.5-8.4,4.7-8.4,4.7s-4.6-2.9-3.3-9.4c1.3-6.5,6.5-5.9,6.5-5.9c0.6-0.8,2.7-1.2,2.7-1.2
		c0.8-1.4,2.3-1.5,2.3-1.5l0.8-3c-1.5-0.7-1.1-2.2-1.1-2.2l-16.6-3.1c0,0-0.6,6.6-2.6,6.5s-0.7-7-0.7-7l-3.4-0.6
		c-3.7,0.9-4.1-0.8-4.1-0.8s-5.4-1.5-23.9-5s-15.6-5.4-15.6-5.4c1.9-0.8,29,0.2,29,0.2l-7.7-3.2c-1.2-0.8,0.2-1.1,0.2-1.1l16.1,5.2
		L1185.7,206.4z M1189.6,199.9c0,0-1.4,6.6-0.8,6.6c0.5,0.1,5.2,0,5.2,0S1191,204,1189.6,199.9z M1242.8,190.2
		c2.7-1.7,2.3-2.2,2.3-2.2c-1.7-0.3-4.6,0.8-4.6,0.8L1242.8,190.2z M1244.6,190c0,0-0.6,0.7,0.5,1.4s3.5,2.5,3.5,2.5s1,0.5,0.6-0.7
		c-0.4-1.3-1.6-3.3-1.6-3.3s-0.9-1.5-1.8-0.8C1244.9,189.8,1244.6,190,1244.6,190z M1247.2,188.1c0,0,1.8,1.3,3.3,6.3
		c0,0,2.5,2.1,5.5,4.1C1256,198.5,1254.4,190.5,1247.2,188.1z"/>
	<polygon class="st6" points="1243.4,187.3 1243.8,185.9 1245.9,185.9 1245.5,187.3 1245.2,187.3 1245.2,188 1244.5,188 
		1244.5,187.4 	"/>
</g>
<text transform="matrix(1 0 0 1 1215.2118 204.0242)" class="st14" style="font-family:'Jost-Light'; font-size:46.9013px;">Britain</text>
<rect x="1126.7" y="326.8" class="st2" width="292.4" height="165.5"/>
<path class="st7" d="M1196.7,403.3c-3.2-3.5-2.2-11.3-2.2-11.3c-4.2-3.4-3.4-7.7-3.4-7.7l-0.3-0.2c-6.1-3.3-8.7-5.6-12.1-7.9
	c-3.3-2.3-1.4-4.2-1.4-4.2c6.4-0.9,18.7,8.9,18.7,8.9c2.2-0.1,4.4,0.3,4.4,0.3c4.6-5.8,13.1-4.9,13.1-4.9s6.4-5.2,15.2-11.4
	c8.8-6.2,8.9-4,8.9-4c2.1,3.4-15.4,18.4-15.4,18.4l6.7,4.2c2.6,1.4,4,3.3,4,3.3l3.6,0.9c4.9-2.4,8.9-1.3,8.9-1.3
	c13.8,7.4,19.8,19.8,19.8,19.8s117-15.5,127.4-16.8s10.4,5.9,10.4,5.9c1.2,10.2-7.8,11.4-7.8,11.4l-108.3,21.1l0.4,1.5
	c1.8,0.6,7,0.6,7,0.6s22.4,0.5,32.3,2.3s0,2.5,0,2.5l-29.6,0.9c0,0,0,3.9,0.7,4.9c0.6,1,0.5,1.8,0.5,1.8h-2.2l-1.2-0.8h-0.3v0.9
	h-0.3l0.1,2.1c0.3,0,0.5,0.1,0.5,0.1s-1.1-1.2,0.1,0.1c1.2,1.3,0,2.5,0,2.5s-0.6,0.2-1.2-0.1s-0.7-2.2-0.7-2.2l-1.9-3.4
	c-6.1-0.4-19.1-3.6-19.1-3.6l-0.2,2.9c2.9,7,0,13.5,0,13.5l-1.7-0.3c-0.5,3.1-3.7,3.9-3.7,3.9s-6.5,2-7.6-7.4
	c-1.1-9.3,6.4-14.7,6.4-14.7c-8.5-3.7-30.7-6.6-30.7-6.6l-37.5-5.7c-1.3,7.1-2.3,9.3-2.3,9.3s-1,2-2,1.7s0.3-8.6,0.3-8.6l-2.4,10.7
	c1.2,1.5,0.5,3.9,0.5,3.9c2.9,3.6,1.1,8.2,1.1,8.2s-2.8,6.6-7.8,5s-4.6-5.6-4.6-5.6c-2.2-0.9-2.6-2.4-2.6-2.4c0.3-7,7.1-7.9,7.1-7.9
	c0.4-2.9,1.4-3.2,1.4-3.2l3.6-12.1c-46-7.2-46.6-12.4-46.6-12.4l52.3,0.4C1195.4,409.1,1196.7,403.3,1196.7,403.3z M1199.3,411.1
	c0,0.2,6.1,0,6.1,0c-2.5-1.2-5.5-3.8-5.5-3.8C1199.5,410.4,1199.3,410.9,1199.3,411.1z M1239.1,388.1c0.1-0.2,4-1.6,4-1.6
	c-3.1-0.1-5.9,1.4-6,1.4L1239.1,388.1z M1245.4,390.8l0.8-2.7l-2.1-1.4c0,0,1.5-0.1-0.1,0c-1.7,0.1-3.5,2.3-3.5,2.3L1245.4,390.8z
	 M1245.9,391.4l0.1,2.5l2.7,2.1l-1-6C1247.7,390,1246.5,390.3,1245.9,391.4z M1248.1,389.6l1.2,7l4.2,2.8l-1.7-6.8L1248.1,389.6z
	 M1254.2,399.7l3.5,2.4l-1.1-5.7l-4.1-3.4L1254.2,399.7z M1247.4,389.7v-0.6l-0.6-0.5c0,0-0.5,1.3-0.5,1.4L1247.4,389.7z
	 M1257,396.5l1.5,6l5.6,3.7h0.8C1264.9,406.2,1260.7,399.2,1257,396.5z"/>
<text transform="matrix(1 0 0 1 1223.7355 421.5488)" class="st14" style="font-family:'Jost-Light'; font-size:46.9013px;">Japan</text>
<rect x="1126.7" y="519.4" class="st1" width="292.4" height="165.5"/>
<path class="st8" d="M1193.8,568.3c3.3-2.9,21.7-18.2,32.4-25.8c10.7-7.5,3.6,1.5,3.6,1.5s-16.4,14.2-20.7,17.6
	c-4.2,3.4-10.6,7.4-10.6,7.4c9.7,0.3,11.4,2.1,11.4,2.1c15.1,9.4,43.1,30.3,43.1,30.3s3.6-2,7.2-1.5s12.6,11,12.6,11l103.8-9.5
	c0,0,23.2-3.6,25.6,2.1c2.5,5.7-12.5,10.3-12.5,10.3c-33.3,8.6-86.6,16.5-86.6,16.5c15.7,0.2,17.6,1.3,17.6,1.3s4.9,1.5,0.7,2.6
	c-4.2,1.1-25.3,0.7-25.3,0.7v5.2c0,0-0.1,2-0.6,3.9c-0.6,1.9-5.1,1.6-5.1,1.6l-1.3,0.9v1.8c0.8,0.1,1,1.3,1,1.3v1.4
	c0,0,0.5-0.2,0.5,0.5c0,0.8-0.6,0.7-0.6,0.7l-0.2,0.5c0,0-0.3,1.1-1.1,1.1c-0.8,0-1.5-0.8-1.5-2.6s1.5-2.3,1.5-2.3v-0.4h-0.2v-1.9
	h-0.4l-0.1-0.9c-11.2-0.8-19.8-2.7-19.8-2.7l-1.1,2.9c2.2,3,1.1,9.8,1.1,9.8l-4,2.6c-1.2,9.2-7.8,6.3-7.8,6.3s-4.9-2.9-5.3-11.2
	s4.4-10.2,4.4-10.2h4.1c1.1-0.8,3.1-0.7,3.1-0.7V641l-4.4-0.2c0,0-7.3,2.3-19.6,0.4c-12.3-1.9-14.2-6.6-14.2-6.6l-25.1-3.5
	l-5.1,11.8c0,0,5.1,3,3.2,10.6s-7.4,6.8-7.4,6.8s-3-0.1-5.1-2.1c-2.2-2-2-6.6-2-6.6l-1.2-1c1.8-10.1,7.2-8.7,7.2-8.7
	c0.2-1,0.9-0.9,0.9-0.9l4.3-10.7c0,0-27.7-3.6-39.8-7.2c-12.1-3.5-10.7-4.6-10.7-4.6l61.1-1.9c-12.6-11.1-16.4-17.6-16.4-17.6
	c0,5.7-7.3,27.7-10.6,30.1c-3.4,2.5-3.8,0-3.8,0s-0.7,1.7,1-17.1c1.7-18.9,8.8-28.7,8.8-28.7c-5.9-5.4-6.1-10-6.1-10
	c-6.9-2.2-10.8-6.9-13.9-9.7s-2.4-4.8-2.4-4.8s0.2-1,0.6-1.4c0.5-0.5,2-0.2,2-0.2c12.7,4.1,16.9,9.9,16.9,9.9
	C1187,565.1,1193.8,568.3,1193.8,568.3z M1255,602.9c5.2-2.3,4.8-2.8,4.8-2.8c-3.7-0.4-6.6,1.5-6.6,1.5L1255,602.9z M1264.3,609.4
	c0.8,0.6,0.5-0.2,0.5-0.2c-0.4-5.1-2.5-7.7-2.5-7.7s-1.5-1.4-2-0.8c-0.4,0.6-4.6,2.7-4.6,2.7
	C1258.3,604.8,1263.4,608.8,1264.3,609.4z M1262.9,601.4c0,0,2.8,3.2,3,8.2c0,0,0.1,0.6,0.6,1c0.5,0.5,0.9,0.9,0.9,0.9h3.2
	C1270.5,611.5,1270.6,606.9,1262.9,601.4z M1269.5,607.5c0,0,1.3,2.8,1.5,3.6h1.1C1272.1,611.1,1271.8,610.2,1269.5,607.5z"/>
<text transform="matrix(1 0 0 1 1208.5636 614.1669)" class="st14" style="font-family:'Jost-Light'; font-size:46.9013px;">France</text>
<rect x="1108.5" y="718.1" class="st9" width="292.4" height="165.5"/>
<path class="st7" d="M1169.8,764.1c2.1-1.6,14.2-10.3,14.2-10.3c16.4-11.5,11.8-9.8,20.8-15.6c9.1-5.9,3.7,1.3,3.7,1.3
	s-8.4,7.9-17.6,13.1c-9.1,5.3-15.5,12.4-15.5,12.4c6,1.1,13.6,5.2,13.6,5.2l19.7,12.1c3.6,0.1,11.4,7.5,11.4,7.5
	c2.8-1.8,7.6-0.2,7.6-0.2s5.7,4.5,9,6.9s9.7,10.4,9.7,10.4h0.6c0,0,92.7-7.3,117.6-10s19.3,7.2,19.3,7.2s-1.9,2.8-14.2,7.9
	c-12.3,5.1-84.2,17.7-84.2,17.7s24.1,1.2,21.7,4s-27.8,1.7-27.8,1.7c-0.1,9.8-3.9,9.8-3.9,9.8v0.6l-3.2,0.5
	c-0.1-2.4-1.4-1.8-1.4-1.8v1.2h-0.3v0.4c0.8,0,0.9,1.9,0.9,1.9v3.1c0,0,0.1,1.2-1.8,1.2s-1.9-1.1-1.9-1.1V850h-0.2v-0.7l0.1-0.1
	v-0.7h-0.2v-0.9h-0.2v-1.3l-1.8,0.4c-0.1-1.2,0.6-2.3,0.6-2.3c-1.9,0.1-4-0.4-4-0.4c-0.1,6.1-1,12.9-1,12.9l-3.5,0.8
	c-3.3,13-10.6,6.4-10.6,6.4s-2.6-2.8-3.3-8c-0.7-5.2,1-10.8,1-10.8s3.3,0.1-7.6-0.4s-14.9-9.6-14.9-9.6l-4-0.3v0.8l-1.3-1.2l-16-2.1
	c-0.1,1-0.5,4-0.5,4l-4.6-4.8l-21.5-3.1l-4.3,2h-1.1l-2.7,12.8c3.7,5.6-0.3,11.9-0.3,11.9s-2.1,4.3-7.8,3.9
	c-5.6-0.4-6.8-6.7-6.8-6.7l-2.5-0.5c-0.5-1.5,0.4-5.2,0.4-5.2s3.1-5.5,5.5-6c2.4-0.4,3.5-2.6,3.5-2.6l5.3-11.3
	c-21.2-4.2-23.8-5-23.8-5c-21.4-5.6-13-6.8-13-6.8l53.7-3.2c-13.9-11.9-16.9-17.8-16.9-17.8c-6.6,41.2-15.3,39.3-15.3,39.3
	s-2.1,0,0.6-19.8s8.3-29.7,8.3-29.7c-7.9-6.3-8.8-14.1-8.8-14.1s-5.2-2.5-10.2-7.6c-5.1-5.1-0.7-7.3-0.7-7.3
	c4.3-1.4,14.4,8.6,14.4,8.6C1157.9,759.9,1169.8,764.1,1169.8,764.1z M1222.3,791.4c1.3-1.5,4.1-1.6,4.1-1.6c-3.6-1-6.2,0.4-6.2,0.4
	L1222.3,791.4z M1231.7,797.6c0,0-1.6-6.4-3.7-6.8s-4.4,1.1-4.4,1.1S1225.2,792.1,1231.7,797.6z M1233.3,798.3l6.7,4.5
	c-1.3-5.2-9.9-10.8-9.9-10.8C1231.4,793.4,1233.3,798.3,1233.3,798.3z M1239.2,799.4c0,0,1.4,3.8,3.7,5.4c2.3,1.6,2.7,2,2.7,2
	S1241.5,801.4,1239.2,799.4z M1169.6,828c0,0-0.4,1.4-0.3,1.9s3.4-1.4,3.4-1.4S1171.8,828.2,1169.6,828z"/>
<text transform="matrix(1 0 0 1 1203.629 812.8035)" class="st14" style="font-family:'Jost-Light'; font-size:46.9013px;">USSR</text>
<rect x="1136.9" y="919.3" class="st0" width="292.4" height="165.5"/>
<path class="st10" d="M1204,948.3c4.1-10.8,4.4-1.9,4.4-1.9c2.1,13.7-5.3,32.7-5.3,32.7c1.6,0.4,3.8,1.5,3.8,1.5
	c3.4-0.5,8.4,0.5,8.4,0.5c18.6,4.5,42.3,20.9,42.3,20.9c2.2-2.7,5.6-1.4,5.6-1.4c5.3,2.5,13.9,13,13.9,13l1.6,0.4
	c0,0,80.9-7.6,104.6-9.7c23.7-2.1,27.2,2.4,27.2,2.4c8.8,7.1-23.2,11.7-23.2,11.7l-95,12.5l4.7,4.8c3.9,0,26.6,1.4,25.1,3.2
	s-22.1,1.7-22.1,1.7l1.9,3l-2.3,0.4v0.4l-1.2,1.1h-0.3l0.7-1.4c-1.1-0.8-1.6,0-1.6,0v1.3v0.5c1.4,0.1,1.3,2.1,1.3,2.1
	c0.5,0.4,0,0.8,0,0.8s0.1,2.9-1.4,2.5s-1.5-2.9-1.5-2.9c-0.7-0.6-0.4-1.2-0.4-1.2v-0.8c-2.4,0-2.6-2.3-2.6-2.3
	c-6.7-0.5-13.4-2.1-13.4-2.1l-0.6,8.5l-0.3,0.7v4.2l-3.4,0.8c-1.2,4.6-3.8,4.9-3.8,4.9h-3.5c0,0-3.9-2-4-8.8
	c-0.2-6.8,3.5-9.1,3.5-9.1l-11.7-0.3l-4.2-1.9l-2.5-2.2v-4.6l-8.5-1.1c0,0,0.1-0.2,0,2s-1.6,0.8-1.6,0.8l-3.3-3.4l-22.6-2.5l-5.6,4
	l-0.6,2.2c-0.6,2.3-0.9,2.1-0.9,2.1s-0.5,1.3-0.8,2.7c-0.3,1.4,1.1,2,1.1,2c1.2,0.9,0.2,2.4,0.2,2.4c0.3,0.8,0.3,1.9,0.3,1.9
	l-0.1,3.3c0,0-0.5,6.3-6.3,6.4c-5.9,0.1-6.1-5.9-6.1-5.9l-2.4-1.3c0,0,1-5.9,3.9-7.3s4.9-3.7,4.9-3.7l3.2-8.6
	c-0.5-0.2-1.4-1.3-1.4-1.3c-18.7-0.8-29.9-2.8-29.9-2.8c-23.7-4.6-17.1-6.7-17.1-6.7l40.3-0.7l-4.3-1.8c-1.8-1.6,0.9-1.2,0.9-1.2
	l8.4,3.1h9.1c-3.1-1.2-4.3-2.8-4.3-2.8c-2.1-3.1,1.2-5.5,1.2-5.5c-0.4-0.6-1.6-1.4-1.6-1.4c-7.3-4.4-6.9-5.1-6.9-5.1v-3.8
	c-3.2-2.2-6.3-5.7-6.3-5.7c-6.1,3.8-18,12.6-25,18s-0.2-0.8-0.2-0.8l23-20c-2.6-3.4-1.8-8.1-1.8-8.1c1.6-5.6,9.6-5.2,9.6-5.2
	C1197.7,971.1,1199.8,959.1,1204,948.3z M1208.6,1029.4l-0.9,3l3.6-2.7L1208.6,1029.4z M1260.1,1003.4l2.6-2.6
	c-3-0.8-4.6,1.4-4.6,1.4L1260.1,1003.4z M1267.6,1009.2c-1.9-9.2-4.3-7.8-4.3-7.8l-2.2,2.3L1267.6,1009.2z M1268.2,1009.4l1,1.2
	c-0.1-0.7,0.8-1.1,0.8-1.1l-1.6-4.3l-2.1-1.7C1266.7,1003.8,1268.2,1009.4,1268.2,1009.4z M1269,1005.7l1.5,3.9c0,0,0.7-0.3,2.1,1.3
	l-0.8-2.2L1269,1005.7z"/>
<text transform="matrix(1 0 0 1 1246.8282 1013.9852)" class="st14" style="font-family:'Jost-Light'; font-size:46.9013px;">Italy</text>
<text transform="matrix(1 0 0 1 -1016.5617 -866.1946)" style="font-family:'AdobeMyungjoStd-Medium-KSCpc-EUC-H'; font-size:20px;">왜</text>
<text transform="matrix(1 0 0 1 -996.5617 -866.1946)" style="font-family:'Jost-Light'; font-size:20px;"> </text>
<text transform="matrix(1 0 0 1 -990.5617 -866.1946)" style="font-family:'AdobeMyungjoStd-Medium-KSCpc-EUC-H'; font-size:20px;">사냐건</text>
<text transform="matrix(1 0 0 1 -930.5617 -866.1946)" style="font-family:'Jost-Light'; font-size:20px;"> </text>
<text transform="matrix(1 0 0 1 -924.5617 -866.1946)" style="font-family:'ArialMT'; font-size:20px;">dd</text>
<text transform="matrix(1 0 0 1 -901.2617 -866.1946)" style="font-family:'Jost-Light'; font-size:20px;">. </text>
<text transform="matrix(1 0 0 1 -889.5617 -866.1946)" style="font-family:'AdobeMyungjoStd-Medium-KSCpc-EUC-H'; font-size:20px;">나를</text>
<rect x="2690.9" y="1518" class="st14" width="69.6" height="767.8"/>
<text transform="matrix(1 0 0 1 -579.804 1263.2139)" class="st14" style="font-family:'Jost-Light'; font-size:46.9013px;">USA</text>
<g>
	<rect x="1650" y="185.9" class="st3" width="292.4" height="165.5"/>
	<g>
		<path class="st6" d="M1707.9,283c3.8-11.9,3.4-19.9,3.4-19.9s-0.1-2.1-0.6-3c-0.5-0.8-0.4-2.1-0.4-2.1c-5.2-4.4-5.3-11-5.3-11
			s-4.5-0.8-11.6-6.2s-2.5-6.6-2.5-6.6c7.7-1.8,17.5,9.4,17.5,9.4c2.1-1.8,12.8-0.2,12.8-0.2c2.6-2.1,4.3-4.1,4.3-4.1
			c4.4-7.2,22.3-16.5,22.3-16.5c8.4-5.4,6.1,0.3,6.1,0.3c-7.7,14.1-25.8,22-25.8,22c4,0.6,6.5,2.4,6.5,2.4l13.6,8.4
			c1.6,0,2.4,1.6,2.4,1.6l11.8,7.8c2.8-1.2,6.4-0.9,6.4-0.9c5.2,0.6,9.2,7.6,9.2,7.6c3.7,2.8,7.2,5.9,7.2,5.9l2.7-0.2
			c-1.9-1-6.6-5.1-6.6-5.1l-2.5-1.7c-1.6-1.8,0.7-1.1,0.7-1.1l13.3,7.3c0,0,127.7-20.8,125.7-10.2c-2,10.6-98.7,29-98.7,29
			c17,2,14.7,3,14.7,3c-0.9,2.3-22.5,1.3-22.5,1.3c-0.2,7.6-3.1,8.1-3.1,8.1l-2.7-0.2l0.5,2.2c0-0.6,0.8-0.6,0.8-0.6
			c1.1,0.4,1.1,2.2,1.1,2.2s0.1,2.3-1.2,2.3c-1.3,0-1.4-1.2-1.4-1.2l-0.5-0.4v-2.2l-0.8-2.6c-16.1-1.3-38-6.7-38-6.7l-4.9,0.1
			l-0.2,2.6h-0.4v1.1c4,0.4,5,3.5,5,3.5c1.1,5,0,9.5,0,9.5s-1.3,5.1-6,4.4s-5.4-6.7-5.4-6.7c-2.1-0.1-2.1-1.3-2.1-1.3v-4.6
			c0.7-5.5,3.6-5.9,3.6-5.9c2-0.6,1.6-2.5,1.6-2.5h-5.2c-0.3,0.3-0.4,0.9-0.4,0.9c-9.3,0.7-21.8-1.5-21.8-1.5l-2.1,4.5
			c2.6,4.4,0,10.2,0,10.2l-2.2-0.1c-2.5,7.5-8.4,4.7-8.4,4.7s-4.6-2.9-3.3-9.4s6.5-5.9,6.5-5.9c0.6-0.8,2.7-1.2,2.7-1.2
			c0.8-1.4,2.3-1.5,2.3-1.5l0.8-3c-1.5-0.7-1.1-2.2-1.1-2.2l-16.6-3.1c0,0-0.6,6.6-2.6,6.5s-0.7-7-0.7-7l-3.4-0.6
			c-3.7,0.9-4.1-0.8-4.1-0.8s-5.4-1.5-23.9-5s-15.6-5.4-15.6-5.4c1.9-0.8,29,0.2,29,0.2l-7.7-3.2c-1.2-0.8,0.2-1.1,0.2-1.1l16.1,5.2
			L1707.9,283z M1711.8,276.5c0,0-1.4,6.6-0.8,6.6c0.5,0.1,5.2,0,5.2,0S1713.2,280.6,1711.8,276.5z M1765,266.8
			c2.7-1.7,2.3-2.2,2.3-2.2c-1.7-0.3-4.6,0.8-4.6,0.8L1765,266.8z M1766.8,266.6c0,0-0.6,0.7,0.5,1.4c1.1,0.7,3.5,2.5,3.5,2.5
			s1,0.5,0.6-0.7c-0.4-1.3-1.6-3.3-1.6-3.3s-0.9-1.5-1.8-0.8S1766.8,266.6,1766.8,266.6z M1769.4,264.7c0,0,1.8,1.3,3.3,6.3
			c0,0,2.5,2.1,5.5,4.1C1778.2,275.1,1776.6,267.1,1769.4,264.7z"/>
		<polygon class="st6" points="1765.6,263.9 1766,262.5 1768.1,262.5 1767.7,263.9 1767.4,263.9 1767.4,264.6 1766.7,264.6 
			1766.7,264 		"/>
	</g>
</g>
<g>
	<g>
		<rect x="-3806.3" y="-209.5" class="st4" width="292.4" height="767.8"/>
		<g>
			<g>
				<defs>
					<rect id="SVGID_1_" x="-3806.3" y="-209.5" width="292.4" height="767.8"/>
				</defs>
				<clipPath id="SVGID_2_">
					<use xlink:href="#SVGID_1_"  style="overflow:visible;"/>
				</clipPath>
				<path class="st15" d="M-3749.9,252.5l23.7,8.1l79-8.9c0,0,7.5,1.3,7.5,9.1c0,7.8-11,10.8-11,10.8l-32,7.5
					c42.5,21.8,62.9,36,62.9,36c8.9-2.4,23.1-1.6,23.1-1.6c34.4,5.9,42.5,40.1,42.5,40.1c5.4,12.6,11.6,16.1,11.6,16.1l18.5-1.9
					c2.7-3.2,6.7-0.8,6.7-0.8l9.1-0.8c3.2-3.8,7.3-1.1,7.3-1.1l7.8-0.8c3.8-2.7,9.1-1.1,9.1-1.1s259.7-32,278.8-33.6
					c19.4-1.6,24.7,4.8,24.7,4.8c8.1,1.9,0,5.6,0,5.6c0.5,4.3-4.6,12.6-7.8,19.6s-8.9,6.2-8.9,6.2l-259.9,44.9
					c0,0,29.6,1.6,43.8,1.3c14.2-0.3,13.7,3.2,15.6,6.2c1.9,3-0.5,3.2-0.5,3.2l-74.7,3c0,0-0.3,4.6-0.8,15.9s-28,4.6-28,4.6l1.3,3.5
					l-10.8-1.3l-0.3,2.7h-3c3.2,2.7,4.6,7,4.6,7v8.1c-0.5,5.4-5.6,4.3-5.6,4.3s-4.6-0.5-4.6-7.8s4.6-8.6,4.6-8.6l-5.4-5.4h-3.8
					l0.8,18l-11.3-12.9c2.7,7.5,0,24.2,0,24.2s-5.4,22-22.3,15.3c-16.9-6.7-12.9-37.9-12.9-37.9c-34.4,0.5-48.7-13.7-53-19.6
					s0.8-7.3,0.8-7.3l14.5-0.5l-2.4-2.2c-49.7-5.6-126.3-18-126.3-18l-4.6,11.3l2.4,2.4v1.1h-3l1.3,1.9l-3.2,1.1l-4,9.4v9.4
					c11.6,24.7-5.4,36.3-5.4,36.3s-22.3,9.4-27.4-9.4c-5.4-18.5,4.3-29,4.3-29l21.2-37.1c0,0,10.8,2.7-58.1-7.5
					c-68.8-10.2-72.6-21.8-72.6-21.8l175.3,3.5c-53.2-39-56.2-61-56.2-61l-1.1-0.5c0,0-7,43-11,79.6s-11.6,26.9-11.6,26.9
					s-1.9-12.9,9.1-62.6s8.9-55.9,8.9-55.9c-4.6-3-18.5-18-18.5-18l-59.4,9.7c0,0-10.2,1.3-11.3-2.4c-0.8-4,8.6-8.9,8.6-8.9
					c3-2.2,54.8-9.1,54.8-9.1c-4.6-9.1-1.9-17.5-1.9-17.5c4.8-12.9,30.4-10.2,30.4-10.2s8.3-37.6,15.9-74.2
					c7.5-36.3,16.9-29.6,16.9-29.6c10.2,4.8-7,108.6-7,108.6L-3749.9,252.5z M-3609.6,319.2c0,0,6.2,1.6,8.9,10.2s7.8,9.7,7.8,9.7
					v-13.2c0,0-3-9.1-5.1-10.8C-3599.9,313.5-3609.6,319.2-3609.6,319.2z M-3595.4,314.1c0,0,4.8,4.6,7.8,20.2l32.3,18.8
					C-3555,353-3563.9,320.5-3595.4,314.1z M-3619,315.1l6.7,3.8c6.2-3.8,14-5.1,14-5.1C-3600.5,312.7-3619,315.1-3619,315.1z"/>
			</g>
		</g>
	</g>
	<text transform="matrix(1 0 0 1 -3713.0618 -23.7536)" class="st14" style="font-family:'Jost-Light'; font-size:60px;">USA</text>
</g>
<g>
	<g>
		<rect x="-2535.9" y="-209.5" class="st3" width="292.4" height="767.8"/>
		<g>
			<g>
				<defs>
					<rect id="SVGID_3_" x="-2535.9" y="-209.5" width="292.4" height="767.8"/>
				</defs>
				<clipPath id="SVGID_4_">
					<use xlink:href="#SVGID_3_"  style="overflow:visible;"/>
				</clipPath>
				<path class="st16" d="M-2501.6,373.4c11.3-35.3,10.1-59,10.1-59s-0.3-6.2-1.8-8.9c-1.5-2.4-1.2-6.2-1.2-6.2
					c-15.4-13.1-15.7-32.6-15.7-32.6s-13.4-2.4-34.4-18.4c-21.1-16-7.4-19.6-7.4-19.6c22.8-5.3,51.9,27.9,51.9,27.9
					c6.2-5.3,38-0.6,38-0.6c7.7-6.2,12.8-12.2,12.8-12.2c13.1-21.4,66.2-49,66.2-49c24.9-16,18.1,0.9,18.1,0.9
					c-22.8,41.8-76.5,65.3-76.5,65.3c11.9,1.8,19.3,7.1,19.3,7.1l40.4,24.9c4.7,0,7.1,4.7,7.1,4.7l35,23.1c8.3-3.6,19-2.7,19-2.7
					c15.4,1.8,27.3,22.5,27.3,22.5c11,8.3,21.4,17.5,21.4,17.5l8-0.6c-5.6-3-19.6-15.1-19.6-15.1l-7.4-5c-4.7-5.3,2.1-3.3,2.1-3.3
					l39.5,21.7c0,0,378.9-61.7,373-30.3c-5.9,31.5-292.8,86-292.8,86c50.4,5.9,43.6,8.9,43.6,8.9c-2.7,6.8-66.8,3.9-66.8,3.9
					c-0.6,22.5-9.2,24-9.2,24l-8-0.6l1.5,6.5c0-1.8,2.4-1.8,2.4-1.8c3.3,1.2,3.3,6.5,3.3,6.5s0.3,6.8-3.6,6.8s-4.2-3.6-4.2-3.6
					l-1.5-1.2v-6.5l-2.4-7.7c-47.8-3.9-112.7-19.9-112.7-19.9l-14.5,0.3l-0.6,7.7h-1.2v3.3c11.9,1.2,14.8,10.4,14.8,10.4
					c3.3,14.8,0,28.2,0,28.2s-3.9,15.1-17.8,13.1c-13.9-2.1-16-19.9-16-19.9c-6.2-0.3-6.2-3.9-6.2-3.9v-13.6
					c2.1-16.3,10.7-17.5,10.7-17.5c5.9-1.8,4.7-7.4,4.7-7.4h-15.4c-0.9,0.9-1.2,2.7-1.2,2.7c-27.6,2.1-64.7-4.5-64.7-4.5l-6.2,13.4
					c7.7,13.1,0,30.3,0,30.3l-6.5-0.3c-7.4,22.3-24.9,13.9-24.9,13.9s-13.6-8.6-9.8-27.9s19.3-17.5,19.3-17.5c1.8-2.4,8-3.6,8-3.6
					c2.4-4.2,6.8-4.5,6.8-4.5l2.4-8.9c-4.5-2.1-3.3-6.5-3.3-6.5l-49.3-9.2c0,0-1.8,19.6-7.7,19.3s-2.1-20.8-2.1-20.8l-10.1-1.8
					c-11,2.7-12.2-2.4-12.2-2.4s-16-4.5-70.9-14.8c-54.9-10.4-46.3-16-46.3-16c5.6-2.4,86,0.6,86,0.6l-22.8-9.5
					c-3.6-2.4,0.6-3.3,0.6-3.3l47.8,15.4L-2501.6,373.4z M-2490,354.1c0,0-4.2,19.6-2.4,19.6c1.5,0.3,15.4,0,15.4,0
					S-2485.9,366.3-2490,354.1z M-2332.2,325.3c8-5,6.8-6.5,6.8-6.5c-5-0.9-13.6,2.4-13.6,2.4L-2332.2,325.3z M-2326.9,324.7
					c0,0-1.8,2.1,1.5,4.2s10.4,7.4,10.4,7.4s3,1.5,1.8-2.1c-1.2-3.9-4.7-9.8-4.7-9.8s-2.7-4.5-5.3-2.4
					C-2326,324.1-2326.9,324.7-2326.9,324.7z M-2319.1,319.1c0,0,5.3,3.9,9.8,18.7c0,0,7.4,6.2,16.3,12.2
					C-2293,350-2297.8,326.2-2319.1,319.1z"/>
			</g>
		</g>
	</g>
	<text transform="matrix(1 0 0 1 -2464.8735 -23.7539)" class="st14" style="font-family:'Jost-Light'; font-size:60px;">Britain</text>
</g>
<g>
	<g>
		<rect x="-2957.3" y="-209.5" class="st11" width="292.4" height="767.8"/>
		<g>
			<g>
				<defs>
					<rect id="SVGID_5_" x="-2957.3" y="-209.5" width="292.4" height="767.8"/>
				</defs>
				<clipPath id="SVGID_6_">
					<use xlink:href="#SVGID_5_"  style="overflow:visible;"/>
				</clipPath>
				<path class="st17" d="M-2905.8,235.4c0,0,14.3-84.5,15.1-86.1s4-3.2,4-3.2c15.9,3,7.8,96.1,7.6,100.7
					c-0.3,4.6-13.2,10.5-13.2,10.5c50.7,17,76.9,32.4,84.2,34.8s18.1,7,18.1,7l26.2,15.4l1.1-1.3l22.1-1.3
					c3.8,1.1,32.9,23.2,33.2,23.7s8.4,11.1,8.4,11.1l18.6,17l3.2-0.5c0,0,255.3-30.8,274.7-31c19.4-0.3,64,0.3,73.7,10.5
					c9.7,10.3-68.5,32.1-68.5,32.1l-214,37.8v17c1.9,1.1,1.6,1.9,1.6,1.9c-0.5,5.1-11.3,5.7-11.3,5.7h-11.6v4
					c5.7,0.8,5.1,8.9,5.1,8.9s0.3,8.6-4.9,7.6c-5.4-1.1-2.7-14.8-2.7-14.8v-5.4c-13,3.2-81.8-7.6-81.8-7.6l-6.5,20.8l5.1-21.3
					l-32.1-4l-0.3,4.6c0,0,13-1.1,18.3,22.1c5.4,23.2-2.2,33.5-2.2,33.5s-5.4,8.9-17.5,4.3c-11.9-4.6-15.9-32.7-15.9-32.7
					s-8.9-8.4-4.9-18.9s9.4-5.1,9.4-5.1v-7.6h-7c4.3,2.2,7,5.1,7,5.1c-11.1-5.1-75.6-14.6-75.6-14.6l-18.3,23.2
					c6.5,17-5.4,30.5-5.4,30.5l-5.4-2.4c0,0,0.3,0.8-5.4,9.2c-5.9,8.4-21.9,5.4-21.9,5.4c-17.3-9.4-8.6-33.7-8.6-33.7
					s2.4-8.6,12.7-16.5c10-7.8,19.7-0.8,19.7-0.8c3.5-0.5,5.4,0.8,5.4,0.8l14-21.9c-46.7-6.2-146.3-26.7-146.3-26.7
					s-43.7-11.3-37.8-15.4c5.9-4,17.8-3.2,17.8-3.2c1.9-2.2,24.3-20.5,33.7-25.6s45.1-31.3,45.1-31.3c-10.3-14.3-5.7-32.4-5.7-32.4
					c7-21,37.5-20,37.5-20C-2907.4,249.1-2905.8,235.4-2905.8,235.4z M-3008.6,365.2l137.4,8.4l-2.7-7.3c0,0-41.8-31.6-43.7-38.6
					c0,0-14.6-9.7-17.5-14C-2935,313.9-3005.1,364.1-3008.6,365.2z M-2749.8,322.3l6.2-9.2l-18.9,1.6v0.8L-2749.8,322.3z
					 M-2726.6,343.9l-6.7-23.7l-1.6-1.6h-4.9l-3.8,7.3L-2726.6,343.9z M-2731.2,320.1l7,23.5l20,14.6l-5.7-22.7L-2731.2,320.1z
					 M-2705.9,342.2l5.9,5.7v-2.7l-6.7-8.6L-2705.9,342.2z M-2703.2,357.1h1.9l0.8-7.6l-5.1-4.9L-2703.2,357.1z"/>
			</g>
		</g>
	</g>
	<text transform="matrix(1 0 0 1 -2923.4326 -23.7537)" class="st14" style="font-family:'Jost-Light'; font-size:60px;">Germany</text>
</g>
<g>
	<g>
		<rect x="-2113.8" y="-209.5" class="st2" width="292.4" height="767.8"/>
		<g>
			<g>
				<defs>
					<rect id="SVGID_7_" x="-2113.8" y="-209.5" width="292.4" height="767.8"/>
				</defs>
				<clipPath id="SVGID_8_">
					<use xlink:href="#SVGID_7_"  style="overflow:visible;"/>
				</clipPath>
				<path class="st18" d="M-2071.5,329.2c-9.4-10.3-6.5-33.2-6.5-33.2c-12.3-10-10-22.6-10-22.6l-0.9-0.6
					c-17.9-9.7-25.6-16.4-35.5-23.2c-9.7-6.8-4.1-12.3-4.1-12.3c18.8-2.6,54.9,26.1,54.9,26.1c6.5-0.3,12.9,0.9,12.9,0.9
					c13.5-17,38.5-14.4,38.5-14.4s18.8-15.3,44.6-33.5c25.8-18.2,26.1-11.7,26.1-11.7c6.2,10-45.2,54-45.2,54l19.7,12.3
					c7.6,4.1,11.7,9.7,11.7,9.7l10.6,2.6c14.4-7,26.1-3.8,26.1-3.8c40.5,21.7,58.1,58.1,58.1,58.1s343.6-45.5,374.1-49.3
					s30.5,17.3,30.5,17.3c3.5,30-22.9,33.5-22.9,33.5l-318.1,62l1.2,4.4c5.3,1.8,20.6,1.8,20.6,1.8s65.8,1.5,94.9,6.8s0,7.3,0,7.3
					l-86.9,2.6c0,0,0,11.5,2.1,14.4c1.8,2.9,1.5,5.3,1.5,5.3h-6.5l-3.5-2.3h-0.9v2.6h-0.9l0.3,6.2c0.9,0,1.5,0.3,1.5,0.3
					s-3.2-3.5,0.3,0.3s0,7.3,0,7.3s-1.8,0.6-3.5-0.3c-1.8-0.9-2.1-6.5-2.1-6.5l-5.6-10c-17.9-1.2-56.1-10.6-56.1-10.6l-0.6,8.5
					c8.5,20.6,0,39.6,0,39.6l-5-0.9c-1.5,9.1-10.9,11.5-10.9,11.5s-19.1,5.9-22.3-21.7c-3.2-27.3,18.8-43.2,18.8-43.2
					c-25-10.9-90.2-19.4-90.2-19.4l-110.1-16.7c-3.8,20.9-6.8,27.3-6.8,27.3s-2.9,5.9-5.9,5c-2.9-0.9,0.9-25.3,0.9-25.3l-7,31.4
					c3.5,4.4,1.5,11.5,1.5,11.5c8.5,10.6,3.2,24.1,3.2,24.1s-8.2,19.4-22.9,14.7c-14.7-4.7-13.5-16.4-13.5-16.4
					c-6.5-2.6-7.6-7-7.6-7c0.9-20.6,20.9-23.2,20.9-23.2c1.2-8.5,4.1-9.4,4.1-9.4l10.6-35.5c-135.1-21.1-136.9-36.4-136.9-36.4
					l153.6,1.2C-2075.4,346.2-2071.5,329.2-2071.5,329.2z M-2063.9,352.1c0,0.6,17.9,0,17.9,0c-7.3-3.5-16.2-11.2-16.2-11.2
					C-2063.3,350-2063.9,351.5-2063.9,352.1z M-1947,284.5c0.3-0.6,11.7-4.7,11.7-4.7c-9.1-0.3-17.3,4.1-17.6,4.1L-1947,284.5z
					 M-1928.5,292.5l2.3-7.9l-6.2-4.1c0,0,4.4-0.3-0.3,0c-5,0.3-10.3,6.8-10.3,6.8L-1928.5,292.5z M-1927.1,294.2l0.3,7.3l7.9,6.2
					l-2.9-17.6C-1921.8,290.1-1925.3,291-1927.1,294.2z M-1920.6,288.9l3.5,20.6l12.3,8.2l-5-20L-1920.6,288.9z M-1902.7,318.6
					l10.3,7l-3.2-16.7l-12-10L-1902.7,318.6z M-1922.6,289.2v-1.8l-1.8-1.5c0,0-1.5,3.8-1.5,4.1L-1922.6,289.2z M-1894.5,309.2
					l4.4,17.6l16.4,10.9h2.3C-1871.3,337.7-1883.6,317.1-1894.5,309.2z"/>
			</g>
		</g>
	</g>
	<text transform="matrix(1 0 0 1 -2030.4946 -23.7539)" class="st14" style="font-family:'Jost-Light'; font-size:60px;">Japan</text>
</g>
<g>
	<g>
		<rect x="-1273.2" y="-209.5" class="st1" width="292.4" height="767.8"/>
		<g>
			<g>
				<defs>
					<rect id="SVGID_9_" x="-1273.2" y="-209.5" width="292.4" height="767.8"/>
				</defs>
				<clipPath id="SVGID_10_">
					<use xlink:href="#SVGID_9_"  style="overflow:visible;"/>
				</clipPath>
				<path class="st19" d="M-1215.3,225.5c9-7.9,59.4-49.8,88.7-70.6c29.3-20.5,9.9,4.1,9.9,4.1s-44.9,38.9-56.7,48.2
					c-11.5,9.3-29,20.3-29,20.3c26.6,0.8,31.2,5.7,31.2,5.7c41.3,25.7,118,83,118,83s9.9-5.5,19.7-4.1c9.9,1.4,34.5,30.1,34.5,30.1
					l284.2-26c0,0,63.5-9.9,70.1,5.7c6.8,15.6-34.2,28.2-34.2,28.2c-91.2,23.5-237.1,45.2-237.1,45.2c43,0.5,48.2,3.6,48.2,3.6
					s13.4,4.1,1.9,7.1s-69.3,1.9-69.3,1.9V422c0,0-0.3,5.5-1.6,10.7c-1.6,5.2-14,4.4-14,4.4l-3.6,2.5v4.9c2.2,0.3,2.7,3.6,2.7,3.6
					v3.8c0,0,1.4-0.5,1.4,1.4c0,2.2-1.6,1.9-1.6,1.9l-0.5,1.4c0,0-0.8,3-3,3s-4.1-2.2-4.1-7.1s4.1-6.3,4.1-6.3V445h-0.5v-5.2h-1.1
					l-0.3-2.5c-30.7-2.2-54.2-7.4-54.2-7.4l-3,7.9c6,8.2,3,26.8,3,26.8l-11,7.1c-3.3,25.2-21.4,17.2-21.4,17.2s-13.4-7.9-14.5-30.7
					c-1.1-22.7,12-27.9,12-27.9h11.2c3-2.2,8.5-1.9,8.5-1.9v-4.1l-12-0.5c0,0-20,6.3-53.7,1.1c-33.7-5.2-38.9-18.1-38.9-18.1
					l-68.7-9.6l-14,32.3c0,0,14,8.2,8.8,29s-20.3,18.6-20.3,18.6s-8.2-0.3-14-5.7c-6-5.5-5.5-18.1-5.5-18.1l-3.3-2.7
					c4.9-27.7,19.7-23.8,19.7-23.8c0.5-2.7,2.5-2.5,2.5-2.5l11.8-29.3c0,0-75.8-9.9-109-19.7c-33.1-9.6-29.3-12.6-29.3-12.6
					l167.3-5.2c-34.5-30.4-44.9-48.2-44.9-48.2c0,15.6-20,75.8-29,82.4c-9.3,6.8-10.4,0-10.4,0s-1.9,4.7,2.7-46.8
					c4.7-51.7,24.1-78.6,24.1-78.6c-16.2-14.8-16.7-27.4-16.7-27.4c-18.9-6-29.6-18.9-38.1-26.6c-8.5-7.7-6.6-13.1-6.6-13.1
					s0.5-2.7,1.6-3.8c1.4-1.4,5.5-0.5,5.5-0.5c34.8,11.2,46.3,27.1,46.3,27.1C-1233.9,216.7-1215.3,225.5-1215.3,225.5z
					 M-1047.7,320.2c14.2-6.3,13.1-7.7,13.1-7.7c-10.1-1.1-18.1,4.1-18.1,4.1L-1047.7,320.2z M-1022.3,338c2.2,1.6,1.4-0.5,1.4-0.5
					c-1.1-14-6.8-21.1-6.8-21.1s-4.1-3.8-5.5-2.2c-1.1,1.6-12.6,7.4-12.6,7.4C-1038.7,325.4-1024.7,336.3-1022.3,338z
					 M-1026.1,316.1c0,0,7.7,8.8,8.2,22.5c0,0,0.3,1.6,1.6,2.7c1.4,1.4,2.5,2.5,2.5,2.5h8.8C-1005.3,343.7-1005,331.1-1026.1,316.1z
					 M-1008,332.8c0,0,3.6,7.7,4.1,9.9h3C-1000.9,342.6-1001.7,340.2-1008,332.8z"/>
			</g>
		</g>
	</g>
	<text transform="matrix(1 0 0 1 -1209.2667 -23.7535)" class="st14" style="font-family:'Jost-Light'; font-size:60px;">France</text>
</g>
<g>
	<g>
		<rect x="-3375.6" y="-209.5" class="st9" width="292.4" height="767.8"/>
		<g>
			<g>
				<defs>
					<rect id="SVGID_11_" x="-3375.6" y="-209.5" width="292.4" height="767.8"/>
				</defs>
				<clipPath id="SVGID_12_">
					<use xlink:href="#SVGID_11_"  style="overflow:visible;"/>
				</clipPath>
				<path class="st20" d="M-3303.6,218.1c5.7-4.4,38.8-28.1,38.8-28.1c44.8-31.4,32.2-26.8,56.8-42.6c24.9-16.1,10.1,3.6,10.1,3.6
					s-23,21.6-48.1,35.8c-24.9,14.5-42.4,33.9-42.4,33.9c16.4,3,37.2,14.2,37.2,14.2l53.8,33.1c9.8,0.3,31.1,20.5,31.1,20.5
					c7.7-4.9,20.8-0.5,20.8-0.5s15.6,12.3,24.6,18.9s26.5,28.4,26.5,28.4h1.6c0,0,253.3-19.9,321.3-27.3s52.7,19.7,52.7,19.7
					s-5.2,7.7-38.8,21.6s-230.1,48.4-230.1,48.4s65.8,3.3,59.3,10.9c-6.6,7.7-76,4.6-76,4.6c-0.3,26.8-10.7,26.8-10.7,26.8v1.6
					l-8.7,1.4c-0.3-6.6-3.8-4.9-3.8-4.9v3.3h-0.8v1.1c2.2,0,2.5,5.2,2.5,5.2v8.5c0,0,0.3,3.3-4.9,3.3s-5.2-3-5.2-3v-3.3h-0.5v-1.9
					l0.3-0.3v-1.9h-0.5v-2.5h-0.5V443l-4.9,1.1c-0.3-3.3,1.6-6.3,1.6-6.3c-5.2,0.3-10.9-1.1-10.9-1.1c-0.3,16.7-2.7,35.2-2.7,35.2
					l-9.6,2.2c-9,35.5-29,17.5-29,17.5s-7.1-7.7-9-21.9s2.7-29.5,2.7-29.5s9,0.3-20.8-1.1s-40.7-26.2-40.7-26.2l-10.9-0.8v2.2
					l-3.6-3.3l-43.7-5.7c-0.3,2.7-1.4,10.9-1.4,10.9l-12.6-13.1l-58.7-8.5l-11.7,5.5h-3l-7.4,35c10.1,15.3-0.8,32.5-0.8,32.5
					s-5.7,11.7-21.3,10.7c-15.3-1.1-18.6-18.3-18.6-18.3l-6.8-1.4c-1.4-4.1,1.1-14.2,1.1-14.2s8.5-15,15-16.4
					c6.6-1.1,9.6-7.1,9.6-7.1l14.5-30.9c-57.9-11.5-65-13.7-65-13.7c-58.5-15.3-35.5-18.6-35.5-18.6l146.7-8.7
					c-38-32.5-46.2-48.6-46.2-48.6c-18,112.6-41.8,107.4-41.8,107.4s-5.7,0,1.6-54.1s22.7-81.1,22.7-81.1
					c-21.6-17.2-24-38.5-24-38.5s-14.2-6.8-27.9-20.8c-13.9-13.9-1.9-19.9-1.9-19.9c11.7-3.8,39.3,23.5,39.3,23.5
					C-3336.1,206.7-3303.6,218.1-3303.6,218.1z M-3160.2,292.7c3.6-4.1,11.2-4.4,11.2-4.4c-9.8-2.7-16.9,1.1-16.9,1.1L-3160.2,292.7
					z M-3134.5,309.7c0,0-4.4-17.5-10.1-18.6c-5.7-1.1-12,3-12,3S-3152.3,294.6-3134.5,309.7z M-3130.1,311.6l18.3,12.3
					c-3.6-14.2-27-29.5-27-29.5C-3135.3,298.2-3130.1,311.6-3130.1,311.6z M-3114,314.6c0,0,3.8,10.4,10.1,14.8s7.4,5.5,7.4,5.5
					S-3107.7,320-3114,314.6z M-3304.2,392.7c0,0-1.1,3.8-0.8,5.2s9.3-3.8,9.3-3.8S-3298.2,393.3-3304.2,392.7z"/>
			</g>
		</g>
	</g>
	<text transform="matrix(1 0 0 1 -3294.6838 -23.7539)" class="st14" style="font-family:'Jost-Light'; font-size:60px;">USSR</text>
</g>
<g>
	<g>
		<rect x="-1680.5" y="-209.5" class="st0" width="292.4" height="767.8"/>
		<g>
			<g>
				<defs>
					<rect id="SVGID_13_" x="-1680.5" y="-209.5" width="292.4" height="767.8"/>
				</defs>
				<clipPath id="SVGID_14_">
					<use xlink:href="#SVGID_13_"  style="overflow:visible;"/>
				</clipPath>
				<path class="st21" d="M-1623.1,170.8c11.3-29.7,12.1-5.2,12.1-5.2c5.8,37.7-14.6,89.9-14.6,89.9c4.4,1.1,10.4,4.1,10.4,4.1
					c9.3-1.4,23.1,1.4,23.1,1.4c51.1,12.4,116.3,57.5,116.3,57.5c6-7.4,15.4-3.8,15.4-3.8c14.6,6.9,38.2,35.7,38.2,35.7l4.4,1.1
					c0,0,222.4-20.9,287.6-26.7c65.2-5.8,74.8,6.6,74.8,6.6c24.2,19.5-63.8,32.2-63.8,32.2l-261.2,34.4l12.9,13.2
					c10.7,0,73.1,3.8,69,8.8c-4.1,4.9-60.8,4.7-60.8,4.7l5.2,8.2l-6.3,1.1v1.1l-3.3,3h-0.8l1.9-3.8c-3-2.2-4.4,0-4.4,0v3.6v1.4
					c3.8,0.3,3.6,5.8,3.6,5.8c1.4,1.1,0,2.2,0,2.2s0.3,8-3.8,6.9c-4.1-1.1-4.1-8-4.1-8c-1.9-1.6-1.1-3.3-1.1-3.3v-2.2
					c-6.6,0-7.1-6.3-7.1-6.3c-18.4-1.4-36.8-5.8-36.8-5.8l-1.6,23.4l-0.8,1.9v11.5l-9.3,2.2c-3.3,12.6-10.4,13.5-10.4,13.5h-9.6
					c0,0-10.7-5.5-11-24.2c-0.5-18.7,9.6-25,9.6-25l-32.2-0.8l-11.5-5.2l-6.9-6v-12.6l-23.4-3c0,0,0.3-0.5,0,5.5s-4.4,2.2-4.4,2.2
					l-9.1-9.3l-62.1-6.9l-15.4,11l-1.6,6c-1.6,6.3-2.5,5.8-2.5,5.8s-1.4,3.6-2.2,7.4c-0.8,3.8,3,5.5,3,5.5c3.3,2.5,0.5,6.6,0.5,6.6
					c0.8,2.2,0.8,5.2,0.8,5.2l-0.3,9.1c0,0-1.4,17.3-17.3,17.6c-16.2,0.3-16.8-16.2-16.8-16.2l-6.6-3.6c0,0,2.7-16.2,10.7-20.1
					c8-3.8,13.5-10.2,13.5-10.2l8.8-23.6c-1.4-0.5-3.8-3.6-3.8-3.6c-51.4-2.2-82.2-7.7-82.2-7.7c-65.2-12.6-47-18.4-47-18.4
					l110.8-1.9l-11.8-4.9c-4.9-4.4,2.5-3.3,2.5-3.3l23.1,8.5h25c-8.5-3.3-11.8-7.7-11.8-7.7c-5.8-8.5,3.3-15.1,3.3-15.1
					c-1.1-1.6-4.4-3.8-4.4-3.8c-20.1-12.1-19-14-19-14V314c-8.8-6-17.3-15.7-17.3-15.7c-16.8,10.4-49.5,34.6-68.7,49.5
					c-19.2,14.8-0.5-2.2-0.5-2.2l63.2-55c-7.1-9.3-4.9-22.3-4.9-22.3c4.4-15.4,26.4-14.3,26.4-14.3
					C-1640.4,233.5-1634.7,200.5-1623.1,170.8z M-1610.5,393.7l-2.5,8.2l9.9-7.4L-1610.5,393.7z M-1468.9,322.3l7.1-7.1
					c-8.2-2.2-12.6,3.8-12.6,3.8L-1468.9,322.3z M-1448.3,338.2c-5.2-25.3-11.8-21.4-11.8-21.4l-6,6.3L-1448.3,338.2z
					 M-1446.6,338.8l2.7,3.3c-0.3-1.9,2.2-3,2.2-3l-4.4-11.8l-5.8-4.7C-1450.8,323.4-1446.6,338.8-1446.6,338.8z M-1444.4,328.6
					l4.1,10.7c0,0,1.9-0.8,5.8,3.6l-2.2-6L-1444.4,328.6z"/>
			</g>
		</g>
	</g>
	<text transform="matrix(1 0 0 1 -1580.7323 -23.7535)" class="st14" style="font-family:'Jost-Light'; font-size:60px;">Italy</text>
</g>
<g>
	<rect x="-4768.3" y="2200.2" class="st4" width="357.6" height="939"/>
	<rect x="-4768.3" y="2200.2" class="st22" width="357.6" height="939"/>
	<text transform="matrix(1 0 0 1 -4654.2402 2427.3691)" class="st14" style="font-family:'Jost-Light'; font-size:73.3767px;">USA</text>
</g>
<g>
	<rect x="-3214.6" y="2200.2" class="st3" width="357.6" height="939"/>
	<rect x="-3214.6" y="2200.2" class="st22" width="357.6" height="939"/>
	<text transform="matrix(1 0 0 1 -3127.7739 2427.3682)" class="st14" style="font-family:'Jost-Light'; font-size:73.3767px;">Britain</text>
</g>
<g>
	<rect x="-3730" y="2200.2" class="st11" width="357.6" height="939"/>
	<rect x="-3730" y="2200.2" class="st22" width="357.6" height="939"/>
	<text transform="matrix(1 0 0 1 -3688.5669 2427.3691)" class="st14" style="font-family:'Jost-Light'; font-size:73.3767px;">Germany</text>
</g>
<g>
	<rect x="-2698.4" y="2200.2" class="st2" width="357.6" height="939"/>
	<rect x="-2698.4" y="2200.2" class="st22" width="357.6" height="939"/>
	<text transform="matrix(1 0 0 1 -2596.5522 2427.3682)" class="st14" style="font-family:'Jost-Light'; font-size:73.3767px;">Japan</text>
</g>
<g>
	<rect x="-1670.4" y="2200.2" class="st1" width="357.6" height="939"/>
	<rect x="-1670.4" y="2200.2" class="st22" width="357.6" height="939"/>
	<text transform="matrix(1 0 0 1 -1592.2354 2427.3691)" class="st14" style="font-family:'Jost-Light'; font-size:73.3767px;">France</text>
</g>
<g>
	<rect x="-4241.5" y="2200.2" class="st9" width="357.6" height="939"/>
	<rect x="-4241.5" y="2200.2" class="st22" width="357.6" height="939"/>
	<text transform="matrix(1 0 0 1 -4142.5869 2427.3682)" class="st14" style="font-family:'Jost-Light'; font-size:73.3767px;">USSR</text>
</g>
<g>
	<rect x="-2168.5" y="2200.2" class="st0" width="357.6" height="939"/>
	<rect x="-2168.5" y="2200.2" class="st22" width="357.6" height="939"/>
	<text transform="matrix(1 0 0 1 -2046.5176 2427.3691)" class="st14" style="font-family:'Jost-Light'; font-size:73.3767px;">Italy</text>
</g>
</svg>
