<svg xmlns="http://www.w3.org/2000/svg" viewBox="0 0 74 74"><defs><style>.cls-1{fill:#1e2223;}.cls-2{fill:#d3d5a6;}.cls-3{fill:#15242e;}.cls-4{fill:#d8cb8d;}.cls-5{fill:#dbd5a0;}.cls-6{fill:#242c2d;}.cls-7{fill:#d9ad76;}.cls-8{fill:#b6ae7e;}.cls-9{fill:#858a6f;}.cls-10{fill:#b0b48e;}.cls-11{fill:#969b7d;}.cls-12{fill:#bab788;}.cls-13{fill:#95997b;}.cls-14{fill:#222d2d;}.cls-15{fill:#414944;}.cls-16{fill:#3e463f;}.cls-17{fill:#424d47;}.cls-18{fill:#313d3a;}.cls-19{fill:#d5d5a4;}.cls-20{fill:#a9ad8b;}.cls-21{fill:#4a534a;}.cls-22{fill:#9b9061;}.cls-23{fill:#2b3434;}.cls-24{fill:#353f3c;}.cls-25{fill:#51584c;}.cls-26{fill:#81856e;}.cls-27{fill:#b7bb96;}.cls-28{fill:#cdb688;}.cls-29{fill:#636958;}.cls-30{fill:#8e5e41;}.cls-31{fill:#41473f;}.cls-32{fill:#c2c69c;}.cls-33{fill:#585d4f;}.cls-34{fill:#99795a;}.cls-35{fill:#575e53;}.cls-36{fill:#676e5c;}.cls-37{fill:#949a7c;}.cls-38{fill:#495046;}.cls-39{fill:#2d3733;}.cls-40{fill:#adaf8d;}.cls-41{fill:#313a36;}.cls-42{fill:#80866e;}.cls-43{fill:#817f60;}.cls-44{fill:#6c7261;}.cls-45{fill:#484e45;}.cls-46{fill:#1d1e1f;}.cls-47{fill:#1c2f3a;}.cls-48{fill:#f7f7f7;}.cls-49{fill:#a5a7a9;}.cls-50{fill:#8d9294;}.cls-51{fill:#6d7377;}.cls-52{fill:#8a7042;}.cls-53{fill:#414337;}.cls-54{fill:#6c6144;}.cls-55{fill:#343a3b;}.cls-56{fill:#42473f;}.cls-57{fill:#40433a;}.cls-58{fill:#6d7274;}.cls-59{fill:#3a4146;}.cls-60{fill:#676a51;}.cls-61{fill:#5f593f;}.cls-62{fill:#40463e;}.cls-63{fill:#646a5e;}.cls-64{fill:#4e574e;}.cls-65{fill:#4e564b;}.cls-66{fill:#4b5050;}.cls-67{fill:#424a44;}.cls-68{fill:#656b5b;}.cls-69{fill:#4f5447;}.cls-70{fill:#989898;}.cls-71{fill:#a4a7a9;}.cls-72{fill:#bcbcbc;}.cls-73{fill:#94989a;}.cls-74{fill:#797f82;}.cls-75{fill:#4f575d;}.cls-76{fill:#aeb1b2;}.cls-77{fill:#ebebeb;}.cls-78{fill:#afb1b3;}.cls-79{fill:#f2eaab;}.cls-80{fill:#939679;}.cls-81{fill:#626958;}.cls-82{fill:#fe5100;}.cls-83{fill:#f8bc65;}.cls-84{fill:#fe8d39;}.cls-85{fill:#fecc81;}.cls-86{fill:#fe8f39;}.cls-87{fill:#fbdc8d;}.cls-88{fill:#fe5e00;}.cls-89{fill:#fe2f00;}.cls-90{fill:#fe813b;}.cls-91{fill:#f1dda1;}.cls-92{fill:#c8cb9f;}.cls-93{fill:#a39d72;}.cls-94{fill:#f1f2bc;}.cls-95{fill:#554a3d;}.cls-96{fill:#e8cb8f;}.cls-97{fill:#ad5f31;}.cls-98{fill:#f8d79e;}.cls-99{fill:#beb787;}.cls-100{fill:#e2c287;}.cls-101{fill:#f3f2bb;}.cls-102{fill:#b7b893;}.cls-103{fill:#f5d18b;}.cls-104{fill:#fe6009;}.cls-105{fill:#febb7f;}.cls-106{fill:#fe6d20;}.cls-107{fill:#c3be94;}.cls-108{fill:#fed89e;}.cls-109{fill:#e5dba7;}.cls-110{fill:#cacda0;}.cls-111{fill:#1d2423;}.cls-112{fill:#1e2b2b;}.cls-113{fill:#20272b;}.cls-114{fill:#293538;}.cls-115{fill:#3e4b44;}.cls-116{fill:#465048;}.cls-117{fill:#5c695f;}.cls-118{fill:#6c7970;}.cls-119{fill:#384a3b;}.cls-120{fill:#48574c;}.cls-121{fill:#516053;}.cls-122{fill:#a5ada6;}.cls-123{fill:#7c7c7c;}.cls-124{fill:#c6c5c5;}.cls-125{fill:#7d8880;}.cls-126{fill:#454748;}.cls-127{fill:#65696b;}.cls-128{fill:#58655c;}.cls-129{fill:#9b9d9e;}.cls-130{fill:#4f565c;}.cls-131{fill:#444b4e;}.cls-132{fill:#50575b;}.cls-133{fill:#a3a3a3;}.cls-134{fill:#aeaeae;}.cls-135{fill:#8d8d8d;}.cls-136{fill:#bababa;}.cls-137{fill:#ccc;}.cls-138{fill:#a5a5a5;}.cls-139{fill:#e2e2e2;}.cls-140{fill:#d3d3d3;}.cls-141{fill:#e9ac4c;}.cls-142{fill:#fe8b2a;}.cls-143{fill:#cca352;}.cls-144{fill:#fcb764;}.cls-145{fill:#bfa76d;}.cls-146{fill:#a2958f;}.cls-147{fill:#ca6721;}.cls-148{fill:#c89f56;}.cls-149{fill:#7b7871;}.cls-150{fill:#9d9f9f;}.cls-151{fill:#837b72;}.cls-152{fill:#c0c1c1;}.cls-153{fill:#b4a46c;}.cls-154{fill:#9e9e7a;}.cls-155{fill:#b9ac76;}.cls-156{fill:#8d887a;}.cls-157{fill:#a4a5a4;}.cls-158{fill:#8b7f61;}.cls-159{fill:#b9b17f;}.cls-160{fill:#bbbcbc;}.cls-161{fill:#80857f;}.cls-162{fill:#818181;}.cls-163{fill:#dbdbdb;}.cls-164{fill:#bfbfbf;}.cls-165{fill:#afafaf;}.cls-166{fill:#e6e6e6;}.cls-167{fill:#d0d0d0;}.cls-168{fill:#9a9c9d;}.cls-169{fill:#454b50;}.cls-170{fill:#4d5659;}.cls-171{fill:#4f585b;}.cls-172{fill:#c5c5c5;}.cls-173{fill:#d2d2d2;}.cls-174{fill:#828282;}.cls-175{fill:#9d9d9d;}.cls-176{fill:#fe3600;}.cls-177{fill:#f31000;}.cls-178{fill:#fd3800;}.cls-179{fill:#feae63;}.cls-180{fill:#fe0d00;}.cls-181{fill:#c21f00;}.cls-182{fill:#b11f00;}.cls-183{fill:#fe1f00;}.cls-184{fill:#fe5500;}.cls-185{fill:#fe6400;}.cls-186{fill:#fe9e57;}.cls-187{fill:#38483c;}.cls-188{fill:#757d75;}.cls-189{fill:#532e1f;}.cls-190{fill:#ad2500;}.cls-191{fill:#a8481a;}.cls-192{fill:#fe934e;}.cls-193{fill:#fde499;}.cls-194{fill:#febd77;}.cls-195{fill:#feb067;}.cls-196{fill:#fe8534;}.cls-197{fill:#fea24e;}.cls-198{fill:#fe8e49;}.cls-199{fill:#2c3b31;}.cls-200{fill:#4a594f;}.cls-201{fill:#2e352f;}.cls-202{fill:#282a29;}.cls-203{fill:#3d3121;}.cls-204{fill:#5a6064;}.cls-205{fill:#535e53;}.cls-206{fill:#212d34;}.cls-207{fill:#2e3126;}.cls-208{fill:#372e1f;}.cls-209{fill:#735626;}.cls-210{fill:#3a463d;}.cls-211{fill:#636767;}.cls-212{fill:#462d0f;}.cls-213{fill:#472e0f;}.cls-214{fill:#3a3f40;}.cls-215{fill:#545f60;}.cls-216{fill:#59665e;}.cls-217{fill:#353a3a;}.cls-218{fill:#3e484b;}.cls-219{fill:#3d464a;}.cls-220{fill:#546157;}.cls-221{fill:#35433a;}.cls-222{fill:#4d554c;}.cls-223{fill:#474c4f;}.cls-224{fill:#3c4246;}.cls-225{fill:#383938;}.cls-226{fill:#4c4a42;}.cls-227{fill:#767a78;}.cls-228{fill:#5b5b5b;}.cls-229{fill:#575351;}.cls-230{fill:#5e5a52;}.cls-231{fill:#b75d1c;}.cls-232{fill:#42433a;}.cls-233{fill:#78601a;}.cls-234{fill:#a4935f;}.cls-235{fill:#787d7b;}.cls-236{fill:#7f6518;}.cls-237{fill:#6e746d;}.cls-238{fill:#a39565;}.cls-239{fill:#6c6e70;}.cls-240{fill:#6d6d6d;}.cls-241{fill:#454645;}.cls-242{fill:#394044;}.cls-243{fill:#909890;}.cls-244{fill:#687068;}.cls-245{fill:#bfc4be;}.cls-246{fill:#727b73;}.cls-247{fill:#97a098;}.cls-248{fill:#737f76;}.cls-249{fill:#8b958c;}.cls-250{fill:#727d73;}.cls-251{fill:#888a8c;}.cls-252{fill:#9a9b9c;}.cls-253{fill:#979798;}.cls-254{fill:#f99524;}.cls-255{fill:#fe9425;}.cls-256{fill:#fe8921;}.cls-257{fill:#dfe0e1;}.cls-258{fill:#88675a;}.cls-259{fill:#fe3a00;}.cls-260{fill:#aaabac;}.cls-261{fill:#9b9b9b;}.cls-262{fill:#f8c973;}.cls-263{fill:#fbc674;}.cls-264{fill:#fbc679;}.cls-265{fill:#c9c9c9;}.cls-266{fill:#a29690;}.cls-267{fill:#d36423;}.cls-268{fill:#939394;}.cls-269{fill:#9e9e9e;}.cls-270{fill:#c6c6c6;}.cls-271{fill:#b0b0b0;}.cls-272{fill:#676c6f;}.cls-273{fill:#8a8e90;}.cls-274{fill:#b2b4b5;}.cls-275{fill:#dfdfdf;}.cls-276{fill:#9b9c9d;}.cls-277{fill:#767676;}.cls-278{fill:#a92200;}.cls-279{fill:#a34000;}.cls-280{fill:#823b25;}.cls-281{fill:#8d3111;}.cls-282{fill:#cf1500;}.cls-283{fill:#ba2800;}.cls-284{fill:#fe7013;}.cls-285{fill:#fe2c00;}.cls-286{fill:#db0c00;}.cls-287{fill:#732e13;}.cls-288{fill:#65341f;}.cls-289{fill:#fe9848;}.cls-290{fill:#4e5d52;}.cls-291{fill:#405143;}.cls-292{fill:#4e594f;}.cls-293{fill:#a0a09b;}.cls-294{fill:#58655a;}.cls-295{fill:#5c6a5e;}.cls-296{fill:#818c82;}.cls-297{fill:#865d4f;}.cls-298{fill:#fe933f;}.cls-299{fill:#fe4900;}.cls-300{fill:#fe5b00;}.cls-301{fill:#404f45;}.cls-302{fill:#4a504d;}.cls-303{fill:#424b44;}.cls-304{fill:#5b695e;}.cls-305{fill:#69756c;}.cls-306{fill:#909191;}.cls-307{fill:#777b7b;}.cls-308{fill:#505b5b;}.cls-309{fill:#677467;}.cls-310{fill:#5b5d5b;}.cls-311{fill:#8f7236;}.cls-312{fill:#926c04;}.cls-313{fill:#a48221;}.cls-314{fill:#909991;}.cls-315{fill:#514832;}.cls-316{fill:#8e6931;}.cls-317{fill:#a28040;}.cls-318{fill:#434334;}.cls-319{fill:#847144;}.cls-320{fill:#46402e;}.cls-321{fill:#6c5125;}.cls-322{fill:#8d672f;}.cls-323{fill:#a48041;}.cls-324{fill:#a28c6b;}.cls-325{fill:#768a8b;}.cls-326{fill:#c2c8c1;}.cls-327{fill:#a5ada5;}.cls-328{fill:#d7dbd8;}.cls-329{fill:#beae81;}.cls-330{fill:#dec377;}.cls-331{fill:#f5eaca;}.cls-332{fill:#b0a379;}.cls-333{fill:#9d812e;}.cls-334{fill:#d2d4d2;}.cls-335{fill:#7a7c7b;}.cls-336{fill:#b1b1af;}.cls-337{fill:#80411d;}.cls-338{fill:#59584d;}.cls-339{fill:#828782;}.cls-340{fill:#f4e9c6;}.cls-341{fill:#f3f5f5;}.cls-342{fill:#d6d9d6;}.cls-343{fill:#803d20;}.cls-344{fill:#c63d00;}.cls-345{fill:#972200;}.cls-346{fill:#feb457;}.cls-347{fill:#fe7b18;}.cls-348{fill:#ef6f16;}.cls-349{fill:#fe7b19;}.cls-350{fill:#e3e4e5;}.cls-351{fill:#aaabae;}.cls-352{fill:#896459;}.cls-353{fill:#fd2f00;}.cls-354{fill:#8c7267;}.cls-355{fill:#927a71;}.cls-356{fill:#aaa8a6;}.cls-357{fill:#89503d;}.cls-358{fill:#fe5c00;}.cls-359{fill:#892200;}.cls-360{fill:#b21800;}.cls-361{fill:#5f6960;}.cls-362{fill:#4f5f51;}.cls-363{fill:#657266;}.cls-364{fill:#7d877d;}.cls-365{fill:#949d94;}.cls-366{fill:#5b3627;}.cls-367{fill:#6e2005;}.cls-368{fill:#caccca;}.cls-369{fill:#afb7b0;}.cls-370{fill:#f71e00;}.cls-371{fill:#5a675d;}.cls-372{fill:#657268;}.cls-373{fill:#636868;}.cls-374{fill:#585d59;}.cls-375{fill:#93a4a5;}.cls-376{fill:#323d34;}.cls-377{fill:#d8dddd;}.cls-378{fill:#b7c3c2;}.cls-379{fill:#b3bab3;}.cls-380{fill:#899288;}.cls-381{fill:#c3a35b;}.cls-382{fill:#c2a258;}.cls-383{fill:#dec070;}.cls-384{fill:#c97434;}.cls-385{fill:#44281b;}.cls-386{fill:#6a3a1d;}.cls-387{fill:#8a6911;}.cls-388{fill:#856d3a;}.cls-389{fill:#b6bcb5;}.cls-390{fill:#dee0de;}.cls-391{fill:#9d8983;}.cls-392{fill:#6c786c;}.cls-393{fill:#a7a5a2;}.cls-394{fill:#8c5f50;}.cls-395{fill:#a53b00;}.cls-396{fill:#ba2400;}.cls-397{fill:#70240b;}.cls-398{fill:#881a00;}.cls-399{fill:#dadcd9;}.cls-400{fill:#4c4f48;}.cls-401{fill:#4f3021;}.cls-402{fill:#b4bbb4;}.cls-403{fill:#48584c;}.cls-404{fill:#3b4c3d;}.cls-405{fill:#4e5c4f;}.cls-406{fill:#8a948a;}.cls-407{fill:#c5c8c6;}</style></defs><title>ac</title><g id="레이어_2" data-name="레이어 2"><g id="레이어_1-2" data-name="레이어 1"><rect class="cls-1" width="74" height="74" rx="8.33" ry="8.33"/><path class="cls-2" d="M16.87,14h4.94a1,1,0,0,1,.08,1.37,2.8,2.8,0,0,1-2.28.42,6,6,0,0,1-1.46,0,1.8,1.8,0,0,1-1.39-.4A1,1,0,0,1,16.87,14Z"/><path class="cls-3" d="M59.14,16.22c.73.15,1.55.36,1.39,1.29s-1.12.69-1.78.67a22.32,22.32,0,0,1-2.28-.32,1,1,0,0,1-.11-1.3,1.54,1.54,0,0,1,1.24-.5A3.23,3.23,0,0,1,59.14,16.22Z"/><path class="cls-4" d="M21.81,15.2V14l4.28-.1.2.19a1.1,1.1,0,0,1-.13,1.31,1.75,1.75,0,0,1-1.3.36,4.63,4.63,0,0,1-1.34,0,2.7,2.7,0,0,1-1.32-.16A.87.87,0,0,1,21.81,15.2Z"/><path class="cls-5" d="M28.76,8.57l1.27.1A1,1,0,0,1,30.2,10a1.57,1.57,0,0,1-1.3.45,5.63,5.63,0,0,1-1.36,0,2.52,2.52,0,0,1-1.33-.23,1,1,0,0,1-.37-.42,1.23,1.23,0,0,1,.23-1.33,2,2,0,0,1,1.37-.33A1.66,1.66,0,0,1,28.76,8.57Z"/><path class="cls-6" d="M51.21,4.67c0-.53-.13-1.24.66-1.28a6.14,6.14,0,0,1,3.07.19c.12.06.18.42.13.6-.2.65-.8.41-1.26.49a1.56,1.56,0,0,1-1.3.47A1.39,1.39,0,0,1,51.21,4.67Z"/><path class="cls-7" d="M43.32,8.57H44.6l.21.21a1.13,1.13,0,0,1-.22,1.36,2.07,2.07,0,0,1-1.46.3c-1.18-.07-1.81-.53-1.26-1.82A1.09,1.09,0,0,1,43.32,8.57Z"/><path class="cls-8" d="M26.12,9.93l1.28,0a2,2,0,0,1,.19,2.63,1,1,0,0,1-1.43,0l-.11-1.29A.93.93,0,0,1,26.12,9.93Z"/><path class="cls-9" d="M31.35,8.6,31.41,6a1,1,0,0,1,1.34-.17,1.56,1.56,0,0,1,.45,1.36,2,2,0,0,1-.33,1.39,1.07,1.07,0,0,1-1.32.2Z"/><path class="cls-10" d="M51.21,4.67l1.3,0a.94.94,0,0,1,0,1.31l0,1.24a1,1,0,0,1-1.34.11A1.6,1.6,0,0,1,50.72,6a1.54,1.54,0,0,1,.52-1.32Z"/><path class="cls-11" d="M27.47,8.58l-1.35,0a.89.89,0,0,1-1.29,0c-.19-.92,0-1.45,1.12-1.31a11.49,11.49,0,0,0,1.44,0A.85.85,0,0,1,27.47,8.58Z"/><path class="cls-12" d="M35.36,7.22l2.63,0,.2.19A1.12,1.12,0,0,1,38,8.73a1.72,1.72,0,0,1-1.29.38,2.08,2.08,0,0,1-1.31-.28,1.12,1.12,0,0,1-.38-1.2A.84.84,0,0,1,35.36,7.22Z"/><path class="cls-13" d="M40.67,4.68a13.77,13.77,0,0,0,1.44,0c1.1-.14,1.3.43,1.11,1.33a1.52,1.52,0,0,1-1.31.49A1.6,1.6,0,0,1,40.55,6,1,1,0,0,1,40.67,4.68Z"/><path class="cls-14" d="M32.74,6H31.41c-.13-.95.2-1.4,1.24-1.38s1.5.18,1.38,1.25c0,.07-.09.14-.13.22A.88.88,0,0,1,32.74,6Z"/><path class="cls-15" d="M16.87,15.18l1.26.09a1,1,0,0,1,.29,1.16.78.78,0,0,1-.36.36,1.1,1.1,0,0,1-1.21-.2l-1.29-.05a1,1,0,0,1-.07-1.37A1,1,0,0,1,16.87,15.18Z"/><path class="cls-16" d="M49.86,11.23v2.62l-.19.22a1,1,0,0,1-1.33-.26,2.28,2.28,0,0,1,.11-2.58A1,1,0,0,1,49.86,11.23Z"/><path class="cls-17" d="M56.52,16.64c0,.41,0,.82-.05,1.22l-2,.06-.68-.08a1,1,0,0,1-.15-1.29,1.5,1.5,0,0,1,1.24-.49,2.67,2.67,0,0,1,1.28.19A.69.69,0,0,1,56.52,16.64Z"/><path class="cls-18" d="M20.84,17.85l-.36,0-2.29,0a.83.83,0,0,1-.05-1.23l.06-.12a1.63,1.63,0,0,1,1.34-.45,1.67,1.67,0,0,1,1.39.41A1.06,1.06,0,0,1,20.84,17.85Z"/><path class="cls-19" d="M49.87,13.85l2.65.11a1,1,0,0,1,.11,1.35,1.72,1.72,0,0,1-1.39.41,1.74,1.74,0,0,1-1.4-.41A1,1,0,0,1,49.91,14Z"/><path class="cls-3" d="M15.54,15.22c0,.44,0,.88,0,1.32-.92,0-1.74,0-1.34-1.32A.93.93,0,0,1,15.37,15Z"/><path class="cls-20" d="M16.87,15.18l-1.33,0h0a.85.85,0,0,1,0-1.27l1.3,0Z"/><path class="cls-21" d="M15.57,13.94l0,1.27H14.22C14.06,14.15,14.55,13.76,15.57,13.94Z"/><path class="cls-22" d="M26.16,12.57l1.23,0A1,1,0,0,1,27.52,14a1.14,1.14,0,0,1-1.43,0,.11.11,0,0,1,0-.16C26.11,13.43,26.14,13,26.16,12.57Z"/><path class="cls-3" d="M18.14,16.63c0,.41,0,.82.05,1.23-1,.13-1.46-.26-1.34-1.27Z"/><path class="cls-23" d="M59.14,16.22c-.37.43-.88.31-1.35.32a.93.93,0,0,1-.24-1,.62.62,0,0,1,.32-.3C58.57,15.19,59.21,15.26,59.14,16.22Z"/><path class="cls-24" d="M56.47,13.94c1-.2,1.43.29,1.4,1.26l-.1.05a.92.92,0,1,1-1.3-1.31Z"/><path class="cls-25" d="M56.47,13.94l.05,1.21-.12.21a1.08,1.08,0,0,1-1.16.09,1,1,0,0,1-.33-.36A1,1,0,0,1,55.14,14Z"/><path class="cls-26" d="M55.14,14l0,1.27a1,1,0,0,1-1.38.12,1,1,0,0,1,0-1.38Z"/><path class="cls-27" d="M53.82,14l0,1.23a.83.83,0,0,1-1.32,0l0-1.23Z"/><path class="cls-28" d="M46,7.34l1.3-.11.19.18a1.1,1.1,0,0,1-.11,1.25,1.15,1.15,0,0,1-1.24.23.85.85,0,0,1-.39-.36A1,1,0,0,1,46,7.34Z"/><path class="cls-29" d="M46,7.34V8.55a.94.94,0,0,1-1.38.16.11.11,0,0,1,0-.15C44.42,7.45,45,7.16,46,7.34Z"/><path class="cls-30" d="M43.32,8.57,42,8.6l-.19-.14a1.07,1.07,0,0,1,0-1.13,1,1,0,0,1,.37-.3,1,1,0,0,1,1.1.26Z"/><path class="cls-31" d="M27.47,8.58l-.08-1.25c1-.18,1.48.19,1.37,1.24Z"/><path class="cls-32" d="M48.6,6l1.29-.1.2.21a1.07,1.07,0,0,1-.25,1.32,1.13,1.13,0,0,1-1.38-.08A1,1,0,0,1,48.6,6Z"/><path class="cls-33" d="M48.6,6l-.06,1.26a.94.94,0,0,1-1.32.12l0-.16C47.08,6.14,47.64,5.85,48.6,6Z"/><path class="cls-34" d="M43.23,7.29,42,7.27a.88.88,0,0,1,0-1.28l1.29,0Z"/><path class="cls-35" d="M38,7.24c-.2-1.07.45-1.32,1.31-1.36l.2.2a1.08,1.08,0,0,1-.18,1.33,1.1,1.1,0,0,1-1.34,0Z"/><path class="cls-36" d="M34,5.89c.85,0,1.54.23,1.33,1.33v.16A1.1,1.1,0,0,1,34,7.4,1,1,0,0,1,34,6Z"/><path class="cls-37" d="M52.55,6l0-1.31,1.3,0C54,5.72,53.58,6.14,52.55,6Z"/><path class="cls-38" d="M51.24,4.69,51.2,6a1,1,0,0,1-1.32.08V5.91C49.74,4.83,50.28,4.53,51.24,4.69Z"/><path class="cls-39" d="M40.67,4.68,40.61,6l-.15.19A.92.92,0,0,1,39.33,6l0-.15C39.2,4.85,39.74,4.54,40.67,4.68Z"/><path class="cls-40" d="M49.86,11.23l-1.24.07-.21-.14a1.05,1.05,0,0,1,0-1.2,1.1,1.1,0,0,1,1.16-.31A.72.72,0,0,1,50,10Z"/><path class="cls-41" d="M26.12,9.93l-.07,1.35c-1,.11-1.4-.4-1.24-1.37a.87.87,0,0,1,1.26.05Z"/><path class="cls-42" d="M51.3,8.64c0,.91-.27,1.52-1.35,1.33l-.16,0a1.11,1.11,0,0,1-.2-1.09,1,1,0,0,1,.27-.38A1.25,1.25,0,0,1,51,8.34.68.68,0,0,1,51.3,8.64Z"/><path class="cls-43" d="M30.05,9.9l0-1.23,1.32-.07.12.06A1,1,0,0,1,31.4,10,1,1,0,0,1,30.05,9.9Z"/><path class="cls-44" d="M26.07,10l-1.26-.05c0-.44,0-.87,0-1.31l1.29,0C26.11,9.07,26.09,9.52,26.07,10Z"/><path class="cls-45" d="M51.23,7.32l1.27-.05c.14.93-.13,1.5-1.2,1.37l-.16,0A.92.92,0,0,1,51,7.48Z"/><path class="cls-46" d="M30.07,68.07V66.74a1.71,1.71,0,0,1,1.32-.49,7.73,7.73,0,0,1,2.54,0,5.7,5.7,0,0,1,1.37,0,5.54,5.54,0,0,1,1.35,0,5.92,5.92,0,0,1,1.33,0,5.38,5.38,0,0,1,1.33,0,6.09,6.09,0,0,1,1.35,0,5.79,5.79,0,0,1,1.38,0,5.42,5.42,0,0,1,1.45,0c1.13.14,1.81.55,1.12,1.81-2.19,0-1,1.69-1.32,2.64H32.7a1.09,1.09,0,0,1-.09-1.41A1.77,1.77,0,0,1,34,68.89a7.69,7.69,0,0,1,2.62,0,17.36,17.36,0,0,1,3.53-.05c.24,0,.67.15.67-.07s-.41-.11-.65-.12a15.31,15.31,0,0,1-3.45,0,8.39,8.39,0,0,1-2.4,0c-.62-.11-1.13.25-1.7.38A3.48,3.48,0,0,1,30.07,68.07Z"/><path class="cls-47" d="M32.72,69.36c0,.45,0,.9,0,1.35l-3,0a12.79,12.79,0,0,0,.34-2.62c1-.23,1.74.38,2.59.65A.42.42,0,0,1,32.72,69.36Z"/><path class="cls-48" d="M4.91,34.72,5,29.79a2,2,0,0,1,2.46-.31A1.15,1.15,0,0,1,8,30.69a1.11,1.11,0,0,1-.19.45c-.47.42-1.15.7-1,1.55a9.92,9.92,0,0,1,0,1.22,8.38,8.38,0,0,1,0,2.45,6,6,0,0,1,0,1.41,14.87,14.87,0,0,1,0,3.77,6.39,6.39,0,0,1,0,1.45,8.19,8.19,0,0,1,0,2.66,1.66,1.66,0,0,1-.48,1.43A1.22,1.22,0,0,1,4.8,47a10.65,10.65,0,0,1,.11-7.28Z"/><path class="cls-49" d="M5,48.24V46.91H6.25a9,9,0,0,1,6.6-.16,1,1,0,0,1,0,1.46Z"/><path class="cls-50" d="M12.88,48.2l0-1.23a4,4,0,0,1,3.6-.43,1.36,1.36,0,0,1,.48.34,1,1,0,0,1-.16,1.32Z"/><path class="cls-51" d="M16.83,48.2l0-1.23A.94.94,0,0,1,18,46.68a.81.81,0,0,1,.38.35,1,1,0,0,1-.25,1.19l-1,.09Z"/><path class="cls-52" d="M24.71,20.49l0-1.27a1.11,1.11,0,0,1-.09-1.32A1.16,1.16,0,0,1,26,17.61a1.07,1.07,0,0,1,.42.37,2.68,2.68,0,0,1,0,2.42,1.13,1.13,0,0,1-1.21.41A.8.8,0,0,1,24.71,20.49Z"/><path class="cls-53" d="M24.74,17.93c0,.43,0,.86,0,1.29-.89-.37-2.56.84-2.61-1.27l.12-.22a1.61,1.61,0,0,1,1.18-.33,1.68,1.68,0,0,1,1.19.31A2.53,2.53,0,0,1,24.74,17.93Z"/><path class="cls-54" d="M22.11,23.13c-.11-1,.36-1.39,1.31-1.35l.22.16a1.91,1.91,0,0,1,.3,1.34,1.54,1.54,0,0,1-.48,1.31,1.1,1.1,0,0,1-1.38-.07A1.06,1.06,0,0,1,22.11,23.13Z"/><path class="cls-55" d="M18.18,27c-.14-1,.35-1.34,1.26-1.27l.21.14a1.06,1.06,0,0,1,0,1.19,1,1,0,0,1-1.14.28A.63.63,0,0,1,18.18,27Z"/><path class="cls-56" d="M19.44,25.77c-.05-.94.36-1.42,1.33-1.34l.22.18a1,1,0,0,1-.16,1.29,1,1,0,0,1-1.29-.07Z"/><path class="cls-57" d="M22.11,23.13v1.32l-.15.19a.88.88,0,0,1-1.11-.12l-.08-.09C20.71,23.47,21.15,23,22.11,23.13Z"/><path class="cls-58" d="M16.89,27.15,18.18,27v.15a1,1,0,0,1,.15,1.25,1.16,1.16,0,0,1-1.27.28.91.91,0,0,1-.41-.34A1,1,0,0,1,16.89,27.15Z"/><path class="cls-59" d="M16.89,27.15l0,1.22a.81.81,0,0,1-1.33,0c0-.42,0-.84,0-1.26Z"/><path class="cls-60" d="M20.84,17.85l0-1.24A.91.91,0,0,1,22,16.28a.89.89,0,0,1,.39.33,1,1,0,0,1-.18,1.2l0,.14Z"/><path class="cls-61" d="M23.42,21.78c-.07-.93.32-1.41,1.29-1.29l.15.05a1,1,0,0,1,0,1.34,1,1,0,0,1-1.34,0Z"/><path class="cls-62" d="M52.54,17.94c-.06.5.07,1.1-.67,1.24s-.63.71-.62,1.23a.63.63,0,0,1-.38.37,1.08,1.08,0,0,1-1.24-.41,2.5,2.5,0,0,1,0-2.47,1.54,1.54,0,0,1,1.24-.52,3,3,0,0,1,1.29.18A.71.71,0,0,1,52.54,17.94Z"/><path class="cls-63" d="M55.19,24.42c.93,0,1.45.33,1.34,1.34a1.09,1.09,0,0,1,0,1.37,1.1,1.1,0,0,1-1.37.13,2.21,2.21,0,0,1-.4-2.42A.91.91,0,0,1,55.19,24.42Z"/><path class="cls-64" d="M53.9,23.1c1-.06,1.4.36,1.29,1.32l0,.14a1.05,1.05,0,0,1-1.24.11,1,1,0,0,1-.34-1.19A.7.7,0,0,1,53.9,23.1Z"/><path class="cls-65" d="M52.59,21.77c.93,0,1.39.38,1.31,1.33l-.1.1a1,1,0,0,1-1.23.15,1.06,1.06,0,0,1-.33-1.2A.72.72,0,0,1,52.59,21.77Z"/><path class="cls-66" d="M59.11,27.14l0,1.25a.88.88,0,0,1-.88.4,1.18,1.18,0,0,1-.48-.19,1.1,1.1,0,0,1-.27-1.17.7.7,0,0,1,.33-.37Z"/><path class="cls-67" d="M56.51,27.09c0-.44,0-.88,0-1.33.95-.09,1.39.35,1.32,1.3l-.08.11a.87.87,0,0,1-1.11.11Z"/><path class="cls-68" d="M53.86,16.61l0,1.24-1.29.09,0-.14a.91.91,0,1,1,1.35-1.19Z"/><path class="cls-69" d="M51.25,20.41c.9,0,1.4.41,1.34,1.36l-.11.11a.93.93,0,1,1-1.3-1.33Z"/><path class="cls-70" d="M69.65,36.35l.11,3a.31.31,0,0,1-.17.42c-1.57-.83-3.06-1.78-4.87-.31-.53.44-1.48,0-2.07-.63a1.14,1.14,0,0,0-1.74,0,2.46,2.46,0,0,1-3.55,0c-.7-.62-1.24-.39-1.88.11a2.35,2.35,0,0,1-3.16.09A2.22,2.22,0,0,1,52,37.62c-.13-1.32-.38-2.64.36-3.88a1.25,1.25,0,0,1,1.35-.27c.53.21.77.74,1.15,1.11,1,.94,1.78,1.47,3,.31a1.92,1.92,0,0,1,2.59.06c1,.92,1.71.74,2.67-.05a2,2,0,0,1,2.59,0,4.33,4.33,0,0,0,2.7.94A1.42,1.42,0,0,1,69.65,36.35Z"/><path class="cls-71" d="M69.65,46.91v1.33l-7.88,0a1,1,0,0,1-.07-1.39,2,2,0,0,1,1.44-.39,14.48,14.48,0,0,1,3.89,0C68,46.31,68.9,46.16,69.65,46.91Z"/><path class="cls-72" d="M69.65,36.35H68.39a3.56,3.56,0,0,1-.2-3.94,1,1,0,0,1,1.46,0l.1,2.34Z"/><path class="cls-73" d="M61.76,47l0,1.24H59.14a1,1,0,0,1,0-1.43A2,2,0,0,1,61.76,47Z"/><path class="cls-74" d="M59.11,47l0,1.22H56.52A.94.94,0,0,1,56.26,47a.83.83,0,0,1,.36-.38,2.27,2.27,0,0,1,1.31-.2A1.18,1.18,0,0,1,59.11,47Z"/><path class="cls-75" d="M56.48,47c0,.4,0,.81,0,1.21l-1.34.09c-.92,0-1.48-.29-1.36-1.32A1.7,1.7,0,0,1,56.48,47Z"/><path class="cls-76" d="M58.13,28.49l1-.1c3.07,0,6.14.07,9.2,0,1.05,0,1.58.23,1.31,1.36-.58.44-.79,1.2-1.42,1.6a2.37,2.37,0,0,1-.79.21,22.6,22.6,0,0,1-6.77-.14,12,12,0,0,0-2-1.39C58.11,29.76,57.6,29.28,58.13,28.49Z"/><path class="cls-77" d="M68.34,31.1c-.07-.94.21-1.54,1.32-1.32v2.6H68.42A.84.84,0,0,1,68.34,31.1Z"/><path class="cls-78" d="M15.53,28.39l1.33,0,0,.15a1.54,1.54,0,0,1,.5,1.35,1.62,1.62,0,0,1-.47,1.4c-2.43.84-4.91.42-7.38.31A2.06,2.06,0,0,1,9,31.37c-.56-.45-.79-1.2-1.43-1.58H5c-.27-1.13.25-1.38,1.3-1.37C9.38,28.46,12.45,28.4,15.53,28.39Z"/><path class="cls-79" d="M22.14,16.54l-1.34.07-1.27-.11a.87.87,0,0,1-.05-1.27l2.33,0,.34,0A.9.9,0,0,1,22.14,16.54Z"/><path class="cls-80" d="M19.48,15.23l.05,1.27H18.2c0-.41-.05-.82-.07-1.24Z"/><path class="cls-81" d="M56.52,15.15l1.25.1c0,.43,0,.86,0,1.29l-1.27.1-.06-.15a.85.85,0,0,1,0-1.22Z"/><path class="cls-82" d="M24.81,15.27l1.28-.09a1.13,1.13,0,0,1,1.4-.07,1.63,1.63,0,0,1,.42,1.41,1.71,1.71,0,0,1-.43,1.42,1.09,1.09,0,0,1-1.41-.05h0c-.43-.57-1.12-.86-1.53-1.44A1,1,0,0,1,24.81,15.27Z"/><path class="cls-83" d="M27.43,15.28l-1.34-.1V14l1.32-.13a1.07,1.07,0,0,1,1.42-.06,1.16,1.16,0,0,1,0,1.45A1.07,1.07,0,0,1,27.43,15.28Z"/><path class="cls-84" d="M24.81,15.27l0,1.24-.19.21a1,1,0,0,1-1.3-.18,1,1,0,0,1,.14-1.29Z"/><path class="cls-85" d="M23.49,15.25l0,1.29-.18.19a1,1,0,0,1-1.19-.13l0-.06c0-.43,0-.87,0-1.31Z"/><path class="cls-86" d="M28.71,15.16V13.87a3.09,3.09,0,0,1,.09-3.9l1.26-.07h1.33l.2.19a1.28,1.28,0,0,1-.07,1.32,2.54,2.54,0,0,0-.87,2,2.26,2.26,0,0,1-.65,2A1,1,0,0,1,28.71,15.16Z"/><path class="cls-87" d="M28.79,10l-.09,3.9-1.29,0c0-.43,0-.86,0-1.29,0-.88,0-1.76,0-2.64Z"/><path class="cls-88" d="M42,8.6c-.26,1.12.31,1.46,1.31,1.4a1,1,0,0,1,.08,1.36,1.74,1.74,0,0,1-1.4.39,1.81,1.81,0,0,1-1.41-.39,1.74,1.74,0,0,1-.42-1.4,1.71,1.71,0,0,1,.42-1.4,1,1,0,0,1,1.37.07Z"/><path class="cls-89" d="M43.27,11.26l0-1.26,1.27-.1A1.12,1.12,0,0,1,46,9.84,1.14,1.14,0,0,1,46,11.27a1.59,1.59,0,0,1-1.4.48A1.41,1.41,0,0,1,43.27,11.26Z"/><path class="cls-90" d="M45.92,9.93l-1.35,0V8.71L46,8.55l0,.09A.88.88,0,0,1,45.92,9.93Z"/><path class="cls-91" d="M34.07,7.28l1.28.1,0,1.19-.14.21a1.74,1.74,0,0,1-1.19.32,1.84,1.84,0,0,1-1.21-.29l-.15-.21.07-1.28A.93.93,0,0,1,34.07,7.28Z"/><path class="cls-92" d="M34.07,7.28l-1.31,0c0-.43,0-.86,0-1.3L34,6Z"/><path class="cls-93" d="M31.38,9.9c0-.42.06-.83.08-1.24l1.23-.06h.09a1.1,1.1,0,0,1,0,1.4,1.05,1.05,0,0,1-1.39,0Z"/><path class="cls-94" d="M49.88,6.05,51.2,6l0,1.35h0a.93.93,0,0,1-1.15.18l-.18-.18Z"/><path class="cls-95" d="M36.7,8.66,38,8.57l.21.17a2.08,2.08,0,0,1,.29,1.31,4.56,4.56,0,0,1,0,1.38c0,1-.43,1.61-1.55,1.45-.75-.28-1-1.15-1.65-1.5A1.31,1.31,0,0,1,35,10.19a1.69,1.69,0,0,1,.24-.41A12.7,12.7,0,0,0,36.7,8.66Z"/><path class="cls-96" d="M38,7.39l1.33-.12.18.16a1.12,1.12,0,0,1,0,1.16,1,1,0,0,1-.38.31A1.11,1.11,0,0,1,38,8.65V8.57C38,8.18,38,7.78,38,7.39Z"/><path class="cls-97" d="M36.7,8.66c.09,1-.3,1.45-1.32,1.28a.83.83,0,0,1,0-1.27l0-.1Z"/><path class="cls-98" d="M41.93,6c0,.43,0,.86,0,1.28l-.06,0a1,1,0,0,1-1.34,0A1,1,0,0,1,40.64,6l0,0Z"/><path class="cls-99" d="M48.62,11.3l0,2.57-.17.2A1,1,0,0,1,47.15,14a1.68,1.68,0,0,1-.39-1.24,2.57,2.57,0,0,1,.18-1.28.92.92,0,0,1,.35-.38,1,1,0,0,1,1.2.15Z"/><path class="cls-100" d="M49.91,14l0,1.22-.19.21a1,1,0,0,1-1.27-.16A.93.93,0,0,1,48.55,14l0-.11Z"/><path class="cls-101" d="M53.86,16.61H52.55a1.1,1.1,0,0,1-1.42,0,1.06,1.06,0,0,1,.07-1.41l1.35,0h1.32l1.31,0,0,0a.81.81,0,0,1,0,1.23Z"/><path class="cls-102" d="M55.14,16.49V15.26h1.31v1.22Z"/><path class="cls-103" d="M51.2,15.23v1.34a.84.84,0,0,1,0,1.25l-1.26.07a1.07,1.07,0,0,1-1.33.1,1.12,1.12,0,0,1-.26-1.25c.35-.65,1.11-.88,1.53-1.48l.08-.07Z"/><path class="cls-104" d="M45.92,9.93V8.64l1.34-.05.2.17a2,2,0,0,1,.26,1.3,1.4,1.4,0,0,1-.5,1.2v0a.87.87,0,0,1-1,.31.76.76,0,0,1-.33-.31Z"/><path class="cls-105" d="M47.22,7.39l1.32-.12,1.34,0h0a1,1,0,0,1,0,1.34v0a1.65,1.65,0,0,1-1.33.49,1.62,1.62,0,0,1-1.34-.47l0-.05Z"/><path class="cls-106" d="M40.62,7.27l1.29,0,0,1.32-1.34,0-.16-.15a1,1,0,0,1,0-1.1Z"/><path class="cls-107" d="M40.64,6c0,.43,0,.86,0,1.29l0,.07a1,1,0,0,1-1.35,0V7.27l0-1.24Z"/><path class="cls-108" d="M47.22,11.26,47.27,10a.86.86,0,0,1,1.13-.22l.17.18c0,.43,0,.85-.08,1.27Z"/><path class="cls-109" d="M48.56,8.62H49.9c0,.43-.07.87-.11,1.31H48.55A1,1,0,0,1,48.56,8.62Z"/><path class="cls-110" d="M49.9,8.64c0-.44,0-.89,0-1.34h1.33c0,.43-.05.87-.07,1.3Z"/><path class="cls-111" d="M48.58,44.27c0,.67,0,1.34,0,2v2a1,1,0,0,1,0,1.31v3.32c0,1.08-.06,2.16,0,3.24.11,1.83.08,3.6-1.34,5a1.09,1.09,0,0,1-1.36.13,2.48,2.48,0,0,1-.5-2.13,3.33,3.33,0,0,0-.44-1.71,1.55,1.55,0,0,1,.14-1.26,1.38,1.38,0,0,1,.6-.41c1.28-.59,1.29-1,0-2.29a1.26,1.26,0,0,1,0-1.15c1.32-1.18,1.23-1.77,0-2.84a2.34,2.34,0,0,1-.27-1.29,7.84,7.84,0,0,1,0-1.45,67.84,67.84,0,0,1,0-8.79,3.65,3.65,0,0,1,.22-1.35c.27-.62,1.23-.76,1.13-1.63a4.49,4.49,0,0,1,0-1.1c.13-.83-.67-1-1-1.55a1.59,1.59,0,0,1-.17-1.19,1.4,1.4,0,0,1,.22-.44,2.35,2.35,0,0,0,1.17-1.58c.18-1.15.94-1.33,1.87-.61a2.18,2.18,0,0,1,.27,1.3,6.21,6.21,0,0,1,0,1.43,25.72,25.72,0,0,1,0,5,7.42,7.42,0,0,1,0,1.49,23.59,23.59,0,0,1,0,5.11A1.78,1.78,0,0,1,48.58,44.27Z"/><path class="cls-112" d="M45.91,61.14h1.33c-.06,1.29.37,2.66-1.12,3.61-.52.33-.22,1.34-.19,2,0,1-.36,1.4-1.33,1.29.14-1-.39-1.43-1.37-1.34A1.08,1.08,0,0,1,43,65.61a1.09,1.09,0,0,1,.25-.38c.5-.31,1-.64.85-1.34a5.28,5.28,0,0,1,.13-2.13,1.13,1.13,0,0,1,.27-.41A1.44,1.44,0,0,1,45.91,61.14Z"/><path class="cls-113" d="M26.1,54.86V52.55a1.14,1.14,0,0,1,0-1.65c0-1.32,0-2.64,0-4,0-1-.35-1.44-1.34-1.33a1.1,1.1,0,0,1-.17-1.29,2,2,0,0,0,.89-2c-.23-1.59.72-3.41-.94-4.72a2.46,2.46,0,0,1-.3-1.38,20.39,20.39,0,0,1,.15-6.19c.28-.7,1.38-.91,1.15-1.92A3.11,3.11,0,0,1,26,25.68a1.25,1.25,0,0,1,1.45,0,1.72,1.72,0,0,1,.45,1.42,14.37,14.37,0,0,1,0,3.82,7.48,7.48,0,0,1,0,1.42,6,6,0,0,1,0,1.4,6,6,0,0,1,0,1.4,8.52,8.52,0,0,1,0,2.57,8,8,0,0,1,0,1.47,58.56,58.56,0,0,1,0,7.61,9.65,9.65,0,0,1,0,2.63,8.3,8.3,0,0,1,0,1.41,5.63,5.63,0,0,1,0,1.36,5,5,0,0,1,0,1.34,5.38,5.38,0,0,1,0,1.33,5.38,5.38,0,0,1,0,1.33,5,5,0,0,1,0,1.34,4.62,4.62,0,0,1,0,1.39c-.24,1.3-.89,1.32-1.79.58Z"/><path class="cls-114" d="M26.11,59.49c.61.1,1.39.54,1.32-.68a1,1,0,0,1,1.36-.06,1.64,1.64,0,0,1,.45,1.37,5.48,5.48,0,0,1,0,1.46c.1.9.25,1.81-.52,2.53-.69,0-1.43,0-1.3-1A3.89,3.89,0,0,0,26.11,59.49Z"/><path class="cls-115" d="M28.75,64.11V61.44a1.09,1.09,0,0,1,1.35-.11,1.59,1.59,0,0,1,.45,1.31,4.84,4.84,0,0,1,0,1.37,2,2,0,0,1-.31,1.29l-.22.15C29,65.54,28.62,65.09,28.75,64.11Z"/><path class="cls-116" d="M31.43,66.72l-1.37,0,0-1.29.08,0a1,1,0,0,1,1.16-.21.87.87,0,0,1,.36.35A1.05,1.05,0,0,1,31.43,66.72Z"/><path class="cls-117" d="M39.33,66.7H38a1.46,1.46,0,0,1-.56-1c-.09-2.24-.38-4.48.2-6.69A1.52,1.52,0,0,1,39,58.28a2.35,2.35,0,0,0,1.69-1,2.64,2.64,0,0,1,2.53,0c.85,1.39.81,2.26-.16,3.37-.68.77-1.34,1.59-2.07,2.28C39.82,64,40.24,65.6,39.33,66.7Z"/><path class="cls-118" d="M39.33,66.7c-.59-2.87,1.28-4.79,3.06-6.33,1.15-1,.64-1.89.9-2.83a1,1,0,0,1,1.39-.13,1.81,1.81,0,0,1,.43,1.44,2.81,2.81,0,0,1-.51,2.62l0,0c-.93.75-.65,1.85-.8,2.83a1.5,1.5,0,0,1-.48,1.16l0,0a1,1,0,0,1-1.15.27c-.4-.22-.86-.81-1,.22a1.3,1.3,0,0,1-.45.79Z"/><path class="cls-119" d="M36.69,66.72l-1.35,0c-.88-1-.58-2.15-.6-3.26a2.32,2.32,0,0,0-1-2.07,2.37,2.37,0,0,1,.2-2.7,2.3,2.3,0,0,1,2.81,0A11.7,11.7,0,0,1,36.69,66.72Z"/><path class="cls-120" d="M36.69,66.72l0-7.87a.85.85,0,0,1,1.32,0l0,7.85Z"/><path class="cls-121" d="M34.07,61.43c1-.06,1.33.42,1.29,1.38-.06,1.31,0,2.62,0,3.93l-1.34,0a2.78,2.78,0,0,1-.5-2.44,7.08,7.08,0,0,1,0-1.38,2,2,0,0,1,.31-1.31Z"/><path class="cls-122" d="M34,64.13c0,.87,0,1.73,0,2.59H31.43l0-1.3a15.9,15.9,0,0,1,1.41-1.55A1,1,0,0,1,34,64.13Z"/><path class="cls-123" d="M40.59,69.35h-4a.85.85,0,0,1,0-1.23h3.94A.76.76,0,0,1,40.59,69.35Z"/><path class="cls-124" d="M36.64,68.12v1.23l-2.58,0a.82.82,0,0,1,0-1.26Z"/><path class="cls-125" d="M40.65,66.69c0-.43,0-.86,0-1.29s-.14-1.23.68-1.21.56.76.64,1.25a.85.85,0,0,1,0,1.26Z"/><path class="cls-126" d="M40.59,69.35c0-.41,0-.81,0-1.22.55,0,1.37-.3,1.3.68C41.83,69.63,41.09,69.33,40.59,69.35Z"/><path class="cls-127" d="M34.06,68.11v1.26H32.72l-.06-.64C32.82,67.82,33.52,68.15,34.06,68.11Z"/><path class="cls-128" d="M41.93,66.7l0-1.26,1.28,0c0,.44,0,.88,0,1.32Z"/><path class="cls-129" d="M22.09,46.9,20.84,47a2,2,0,0,1-2.66,0v-.16c-.61-.94-.13-1.49.73-1.72a3.81,3.81,0,0,1,3.19.31A1,1,0,0,1,22.09,46.9Z"/><path class="cls-130" d="M18.18,47l2.66,0c-.09,2.17-1.73,1-2.69,1.24Z"/><path class="cls-131" d="M24.84,44.33l-.06,1.28-1.25,0-.2-.1a1,1,0,0,1,.13-1.43,1.22,1.22,0,0,1,1.07-.1A.67.67,0,0,1,24.84,44.33Z"/><path class="cls-132" d="M22.09,46.9l.05-1.28.16-.18a.89.89,0,0,1,1.11.14l.12.07C23.56,46.65,23.11,47.1,22.09,46.9Z"/><path class="cls-133" d="M6.34,41.64l0-4a2.09,2.09,0,0,1,3,.16,1.23,1.23,0,0,0,1.86,0,2.33,2.33,0,0,1,3.28-.1,1.39,1.39,0,0,0,2.13,0,2.22,2.22,0,0,1,3-.1c.88.71,1.56.89,2.39,0a1.19,1.19,0,0,1,1.23-.26,1.06,1.06,0,0,1,.43.29A3.33,3.33,0,0,1,24,39.6a2.31,2.31,0,0,0,1,2.11,1.09,1.09,0,0,1-1.49,1.51,3.2,3.2,0,0,1-.82-.78c-1-1-1.84-2-3.39-.59a2,2,0,0,1-2.72-.25,1.39,1.39,0,0,0-2.14,0,2.33,2.33,0,0,1-3.28-.09,1.25,1.25,0,0,0-1.88,0A2.06,2.06,0,0,1,6.34,41.64Z"/><path class="cls-134" d="M6.34,41.64c1.06-.08,2.21.4,2.94-1.07.24-.48,1.57-.62,2.26.3a1.55,1.55,0,0,0,2.69.08,1.69,1.69,0,0,1,2.59-.08,1.55,1.55,0,0,0,2.69.08,1.53,1.53,0,0,1,2.61.09c.42.69,1.74.74,1.35,2a1,1,0,0,1,0,1.33v0a1.6,1.6,0,0,1-1.26.49A3.6,3.6,0,0,1,19,44.05a1.07,1.07,0,0,0-1.61,0,2.48,2.48,0,0,1-3.57.07,1.26,1.26,0,0,0-1.88,0,2.38,2.38,0,0,1-3.42-.08c-.63-.59-1.61-.42-2.14-1.14Z"/><path class="cls-70" d="M23.46,37.69c-.53,0-1,0-1.35.63a1.54,1.54,0,0,1-2.6,0,1.6,1.6,0,0,0-2.64,0,1.58,1.58,0,0,1-2.64.06,1.55,1.55,0,0,0-2.69.08c-.68.93-2,.78-2.25.31-.72-1.45-1.87-1-2.93-1.09,0-.44,0-.88,0-1.32.86-.67,1.94-.92,2.84-1.57a2.08,2.08,0,0,1,2.61.28,1.39,1.39,0,0,0,2.14,0,2.37,2.37,0,0,1,3.3.05,1.27,1.27,0,0,0,1.63.24c2.32-1.31,2.46-1.28,4.48.61a1.16,1.16,0,0,1,.36.4A1.05,1.05,0,0,1,23.46,37.69Z"/><path class="cls-135" d="M23.45,36.37c-.53,0-1,0-1.35-.64a1.53,1.53,0,0,0-2.6,0,1.6,1.6,0,0,1-2.64,0,1.6,1.6,0,0,0-2.64,0,1.54,1.54,0,0,1-2.68-.1c-.69-.92-2-.78-2.26-.29-.73,1.48-1.88,1-2.94,1.07,0-.87,0-1.74,0-2.62.78-.9,1.8-.57,2.76-.55a4.42,4.42,0,0,0,2.4-.87,2.22,2.22,0,0,1,3,.15,1.29,1.29,0,0,0,2,0A1.94,1.94,0,0,1,18.78,32a14.14,14.14,0,0,0,4.56,1.46c.16,0,.26.2.37.33A2.06,2.06,0,0,1,23.45,36.37Z"/><path class="cls-136" d="M6.35,43c1.05.11,2.21-.38,2.93,1.09.24.48,1.57.62,2.26-.29a1.54,1.54,0,0,1,2.68-.1,1.58,1.58,0,0,0,2.63,0c.7-1,2-.92,2.34-.35.75,1.48,1.91.89,2.95,1a1,1,0,0,1,0,1.33h0c-.92,0-1.85,0-2.76,0s-1.3.35-1.21,1.25L16.85,47v-.14a2,2,0,0,0-2-.53c-2.49.54-4.93-.41-7.41-.16a1.38,1.38,0,0,1-1.15-.54Z"/><path class="cls-137" d="M6.33,45.6c1.7,0,3.41,0,5.11,0,.43,0,1-.15,1.26.22.51.63.85.46,1.48.08,1.28-.79,2.39-.34,2.68.91L12.91,47,6.26,46.9C6.28,46.47,6.31,46,6.33,45.6Z"/><path class="cls-138" d="M8.89,33.72l-2.54,0,0-1.28a12.89,12.89,0,0,1,1.29-1.37h0A.89.89,0,0,1,8.91,31l.05.11A1.76,1.76,0,0,1,8.89,33.72Z"/><path class="cls-139" d="M7.61,31.09c.14,1-.27,1.46-1.29,1.37C6.13,31.42,6.56,31,7.61,31.09Z"/><path class="cls-140" d="M8.91,31l-1.28.06c0-.44,0-.88,0-1.31C8.55,29.64,9.09,30,8.91,31Z"/><path class="cls-141" d="M26.07,17.89l1.38-.05.21.2a2.35,2.35,0,0,1-.08,2.45,1.08,1.08,0,0,1-1.31.22l-.2-.21Z"/><path class="cls-142" d="M24.84,16.51c1-.09,1.39.41,1.27,1.37l-1.37.05.05-.08a.9.9,0,0,1-.06-1.27Z"/><path class="cls-143" d="M24.75,21.8c0-.42.07-.84.11-1.26l1.21,0,.09,0a1.05,1.05,0,0,1,.07,1.3,1,1,0,0,1-1.29.19Z"/><path class="cls-144" d="M24.73,16.58l.06,1.27-1.31,0a.89.89,0,0,1,0-1.28h0Z"/><path class="cls-145" d="M23.44,16.54l0,1.28H22.16L22.1,16.6Z"/><path class="cls-146" d="M22.12,24.45l1.35,0,.18.18a1,1,0,0,1-.13,1.2,1.17,1.17,0,0,1-1.24.19.89.89,0,0,1-.37-.35,1,1,0,0,1,.24-1.21Z"/><path class="cls-147" d="M23.47,24.48l0-1.33a1,1,0,0,1,1.11-.26.91.91,0,0,1,.38.32,1.3,1.3,0,0,1,0,1.21.94.94,0,0,1-.38.33,1.07,1.07,0,0,1-1.16-.27Z"/><path class="cls-148" d="M24.74,23.11l-1.24,0c0-.42,0-.83,0-1.25l1.24-.1.07.06A.82.82,0,0,1,24.74,23.11Z"/><path class="cls-149" d="M19.54,25.83l1.21-.08.22.15c.38,1.05.07,1.58-1.09,1.49a.71.71,0,0,1-.4-.34Z"/><path class="cls-150" d="M18.15,28.41l0-1.22,1.3-.14,0,.15a.85.85,0,0,1-.05,1.3A.89.89,0,0,1,18.15,28.41Z"/><path class="cls-151" d="M22.15,24.49v1.23a.81.81,0,0,1-1.27.12l-.12-.09c0-.41.07-.82.11-1.23Z"/><path class="cls-152" d="M20.87,25.84l1.27-.12v.14a1.44,1.44,0,0,1,.48,1.25,2,2,0,0,1-.28,1.3,19.64,19.64,0,0,0-1.65,1.64,4,4,0,0,1-2.5.21,1.68,1.68,0,0,1-1.34-.49V28.52l1.31-.11c1,.17,1.46-.19,1.36-1.21C20.44,27.22,21,26.85,20.87,25.84Z"/><path class="cls-153" d="M48.56,17.88h1.35l0,2.56-.17.22a1.06,1.06,0,0,1-1.32-.15,2.24,2.24,0,0,1-.1-2.46Z"/><path class="cls-154" d="M51.17,17.82c0-.42,0-.84,0-1.25l1.34,0c0,.4,0,.8,0,1.2Z"/><path class="cls-155" d="M51.18,20.55l.06,1.24-.18.21a1,1,0,0,1-1.28-.15,1,1,0,0,1,.06-1.28l.09-.12Z"/><path class="cls-156" d="M53.87,24.46l1.27.1c0,.82,0,1.65,0,2.47l-.14.22c-1.55.63-1.82-1-2.72-1.54a1.18,1.18,0,0,1,.16-1.35A1.09,1.09,0,0,1,53.87,24.46Z"/><path class="cls-157" d="M55.18,27l1.33.06,0,0a1,1,0,0,1,.09,1.39,1.17,1.17,0,0,1-1.43.05,1,1,0,0,1,0-1.39Z"/><path class="cls-158" d="M53.87,24.46l-1.35,0a1,1,0,0,1-1.27.13,1.11,1.11,0,0,1-.32-1.26,1,1,0,0,1,.34-.42,1.08,1.08,0,0,1,1.26.21l1.27.05C53.82,23.62,53.85,24,53.87,24.46Z"/><path class="cls-159" d="M52.53,23.15l-1.3,0a.79.79,0,0,1-.08-1.21l.09-.11,1.24.09Z"/><path class="cls-160" d="M55.17,28.44l1.35,0a1,1,0,0,1,1.32,0l.29.09c-.05.83.52,1.09,1.16,1.27s1.22.43,1.15,1.26a2,2,0,0,1-2.36.42c-.68-.25-.83-1.34-1.8-1.15a4.44,4.44,0,0,1-1.36,0c-1.14-.14-1.72-.64-1.18-1.85A1,1,0,0,1,55.17,28.44Z"/><path class="cls-161" d="M57.84,28.4H56.52c0-.43,0-.85,0-1.28l1.29,0C57.8,27.58,57.82,28,57.84,28.4Z"/><path class="cls-133" d="M69.65,39.67v.67c-1.82,2.26-2,2.31-4.59.94a1.18,1.18,0,0,0-1.5.17,2.44,2.44,0,0,1-3.55,0,1.17,1.17,0,0,0-1.75,0,2.46,2.46,0,0,1-3.56,0c-.69-.63-1.75-.35-2.35-1.11A1,1,0,0,1,52.54,39c1-.11,2.2.44,2.94-1,.27-.54,1.58-.62,2.27.22.93,1.15,1.85,1.16,2.74,0a1.69,1.69,0,0,1,2.59.1,1.56,1.56,0,0,0,2.69-.07c.62-.81,2.15-.83,2.54,0C68.61,39,69.16,39.25,69.65,39.67Z"/><path class="cls-135" d="M68.34,31.1c0,.43,0,.85.08,1.27l0,4c-1-.14-2.22.49-3-1-.26-.56-1.58-.64-2.28.21-.94,1.15-1.83,1.16-2.75,0a1.76,1.76,0,0,0-2.54,0c-.93,1.15-1.88,1.16-2.74,0-.44-.59-1.62-.66-1.28-1.8,1.69-2.22,2.26-2.35,4.59-1a1.19,1.19,0,0,0,1.62-.19,2.4,2.4,0,0,1,3.43,0c.68.56,1.27.62,1.86,0s1.78-.62,2.37-1.43Z"/><path class="cls-162" d="M67.71,31.1c.05.74-.06,1.34-1,1.3-.48,0-.73.23-1,.67a1.54,1.54,0,0,1-2.61,0,1.61,1.61,0,0,0-2.65,0,1.59,1.59,0,0,1-2.64,0,1.52,1.52,0,0,0-2.6.06c-.36.65-.84.59-1.36.64l-1.29,0-.21-.16a1.89,1.89,0,0,1-.3-1.26,1.81,1.81,0,0,1,.3-1.24c.8-.74,2.08-.41,2.84-1.26h1.27c.51.37.89.88,1.39,1.25l2.6,0Z"/><path class="cls-163" d="M52.55,33.71l-.07,3.95a1,1,0,0,1-1.32.11,1.66,1.66,0,0,1-.45-1.34,5.34,5.34,0,0,1,0-1.44,1.71,1.71,0,0,1,.43-1.37,1,1,0,0,1,1.36.13Z"/><path class="cls-164" d="M51.2,37.69l1.28,0L52.54,39c0,.44,0,.89,0,1.33a1,1,0,0,1-1.38.12A2.23,2.23,0,0,1,51,37.89Z"/><path class="cls-165" d="M51.23,40.34h1.29c1,.14,2.22-.46,2.95,1,.27.56,1.58.63,2.28-.21q1.41-1.72,2.74,0a1.69,1.69,0,0,0,2.6-.12,1.6,1.6,0,0,1,2.64,0,1.51,1.51,0,0,0,2.66-.11c.35-.55.78-.48,1.26-.51v4a1.08,1.08,0,0,1-1.27.19c-.66-.9-1.35-1.14-2.3-.31a2.34,2.34,0,0,1-3.3,0,1.32,1.32,0,0,0-2,0,2.32,2.32,0,0,1-3.29,0c-.57-.48-1.12-.75-1.73-.17a3.7,3.7,0,0,1-3.24.79,4.3,4.3,0,0,1-1.34,0,1.54,1.54,0,0,1-1.27-.52h0a1,1,0,0,1-.29-1.15,1.31,1.31,0,0,1,.26-.4C51,42.33,50.36,40.9,51.23,40.34Z"/><path class="cls-166" d="M69.65,46.91l-2.57,0a1,1,0,0,1,0-1.39,1.94,1.94,0,0,1,2.59.13Z"/><path class="cls-167" d="M69.65,45.62l-2.56,0-.22-.22c-.05-1.42.15-1.56,1.52-1.15l1.26,0Z"/><path class="cls-168" d="M56.48,47l-2.66,0-1.25-.08a1,1,0,0,1,0-1.44,3.75,3.75,0,0,1,3.18-.32c.86.21,1.34.76.75,1.71Z"/><path class="cls-169" d="M49.81,43l.09,1.32H48.58l0-1.32A.81.81,0,0,1,49.81,43Z"/><path class="cls-170" d="M49.9,44.27l1.27,0a.86.86,0,0,1,.3,1,.68.68,0,0,1-.33.32C50.15,45.71,49.73,45.26,49.9,44.27Z"/><path class="cls-171" d="M52.52,45.61c0,.43,0,.86,0,1.29-1,.19-1.47-.22-1.43-1.23l.11-.1a.9.9,0,0,1,1.11-.14Z"/><path class="cls-172" d="M59.11,47l-1.29-.12c-.59-1-.14-1.6.82-1.75a6.75,6.75,0,0,1,4.43.3,1.06,1.06,0,0,1,0,1.5l-1.34,0Z"/><path class="cls-173" d="M63.1,46.92v-1.3a3.14,3.14,0,0,1,3.95,0l0,0v1.24Z"/><path class="cls-136" d="M67.05,45.61H63.1c-1.36,0-2.72,0-4.08,0-.94,0-1.3.38-1.2,1.27l-1.32,0c.08-.9-.3-1.29-1.22-1.24s-1.84,0-2.76,0h0a.94.94,0,0,1,0-1.32c1-.13,2.21.45,2.95-1,.26-.54,1.57-.64,2.27.22.93,1.15,1.84,1.16,2.75,0a1.77,1.77,0,0,1,2.54,0c.93,1.15,1.89,1.19,2.72,0C66.32,42.7,67,43,67.7,43s.64.73.69,1.25C67.42,44.19,66.92,44.59,67.05,45.61Z"/><path class="cls-174" d="M18.2,29.8l2.6-.06a1.16,1.16,0,0,1,1.28-.2c.61.53,1.15,1.14,1.71,1.72a2,2,0,0,1-.38,2.47H20.77A1.23,1.23,0,0,1,19.45,33,1.6,1.6,0,0,0,16.89,33c-.87,1.12-1.76,1.08-2.75-.08-.7-.82-2-.75-2.29-.17-.72,1.56-1.94.84-3,1,0-.86,0-1.72.07-2.57l7.88-.09C17.32,30.67,17.71,30.18,18.2,29.8Z"/><path class="cls-175" d="M18.2,29.8c.09,1-.36,1.43-1.36,1.26,0-.43,0-.86,0-1.29Z"/><path class="cls-176" d="M28.71,15.16l1.31,0a2.09,2.09,0,0,0,.22.2A1.08,1.08,0,0,1,30,16.75a2.06,2.06,0,0,1-2.55-.18V15.28Z"/><path class="cls-177" d="M27.44,16.57l2.55,0,.22.17A1,1,0,0,1,30.06,18a1.92,1.92,0,0,1-1.35.35,1.6,1.6,0,0,1-1.3-.47l0-.05C27.45,17.42,27.44,17,27.44,16.57Z"/><path class="cls-178" d="M30,15.18a20,20,0,0,0,0-2.57c-.11-1.09.36-1.46,1.36-1.4a1,1,0,0,1,1.31-.05A1.16,1.16,0,0,1,33,12.41c-.33.59-1.23.84-1.07,1.74a1.53,1.53,0,0,1-.48,1.19,1,1,0,0,1-1.31-.09Z"/><path class="cls-179" d="M32.71,11.27l-1.3-.06,0-1.2,1.29-.08.19.12a1,1,0,0,1,0,1.07Z"/><path class="cls-180" d="M43.27,11.26h1.34a1.06,1.06,0,0,1,.07,1.37,1.63,1.63,0,0,1-1.38.44,1.75,1.75,0,0,1-1.4-.41A1,1,0,0,1,42,11.3Z"/><path class="cls-181" d="M42,11.3,42,12.57l-.13.18a1.15,1.15,0,0,1-1.08.11,1,1,0,0,1-.35-.27,1.18,1.18,0,0,1-.08-1.08.63.63,0,0,1,.32-.28Z"/><path class="cls-182" d="M40.61,10l.09,1.27-.11.06a1,1,0,0,1-1.21.18.85.85,0,0,1-.34-.41,1.12,1.12,0,0,1,.31-1.25A1,1,0,0,1,40.61,10Z"/><path class="cls-183" d="M40.61,10l-1.29,0-.18-.16a.89.89,0,0,1,.17-1.13V8.59a1,1,0,0,1,1.32,0l0,.06C40.61,9.1,40.61,9.53,40.61,10Z"/><path class="cls-184" d="M44.53,12.57c0-.43.06-.87.08-1.31l1.25,0,.09.06a1,1,0,0,1,.26,1.06,1,1,0,0,1-.25.38,1.23,1.23,0,0,1-1.1.14A.8.8,0,0,1,44.53,12.57Z"/><path class="cls-185" d="M35.34,8.67c0,.42,0,.84,0,1.27l0,0A1,1,0,0,1,34,10a.93.93,0,0,1,.07-1.34Z"/><path class="cls-186" d="M34.06,8.66,34,10c-.06,0-.11.11-.17.17A.91.91,0,0,1,32.73,10l-.06,0c0-.45.07-.89.11-1.34Z"/><path class="cls-187" d="M36.71,12.59c1,.12,1.4-.37,1.29-1.34a.94.94,0,0,1,1.31,0h0c.42.45.88.88,1.31,1.33h0a1.12,1.12,0,0,1,.18,1.28c-.5.51-.9.83-.23,1.71,1.11,1.44.6,3.25.51,4.93-.13.72-.5,1.24-1.28,1.23s-.84-.57-1-1.09c-.12-.33-.11-.86-.62-.82s-.66.53-.77.95c-.27,1,0,2.17-.44,3.21a.9.9,0,0,1-.43.34c-1.16,0-1.48-.82-1.66-1.7a9.45,9.45,0,0,1,0-3.27,6.74,6.74,0,0,1,0-1.42,5.09,5.09,0,0,1,0-1.35,2.19,2.19,0,0,1,.23-1.26c.38-.54,1.26-.75,1.1-1.66A1.17,1.17,0,0,1,36.71,12.59Z"/><path class="cls-188" d="M36.71,12.59l-.07,1.29a1,1,0,0,1-1.31.18,1.53,1.53,0,0,1-.46-1.3,2,2,0,0,1,.28-1.33l.21-.18C36.38,11.13,36.79,11.61,36.71,12.59Z"/><path class="cls-189" d="M39.31,11.27l-1.31,0V9.93a.93.93,0,0,1,1.3,0h0C39.32,10.39,39.31,10.83,39.31,11.27Z"/><path class="cls-190" d="M34,10h1.32c0,.43,0,.86,0,1.3h0a1.07,1.07,0,0,1-1.2.24.88.88,0,0,1-.37-.37A1.06,1.06,0,0,1,34,9.94Z"/><path class="cls-191" d="M39.3,10l-1.3,0c0-.43,0-.85,0-1.28h1.33C39.31,9.08,39.31,9.51,39.3,10Z"/><path class="cls-192" d="M40.63,8.61l-1.32,0V7.33h1.35Z"/><path class="cls-193" d="M47.22,12.59v1.27l-.18.21a1,1,0,0,1-1.26-.21,1,1,0,0,1,.12-1.29l0,0A.91.91,0,0,1,47.22,12.59Z"/><path class="cls-194" d="M47.22,12.59H45.93c0-.43,0-.87,0-1.3l1.27-.06Z"/><path class="cls-195" d="M48.55,14l0,1.17-.17.22a1,1,0,0,1-1.28-.16,1,1,0,0,1,.11-1.29v-.06Z"/><path class="cls-196" d="M49.85,15.26c.23,1-.32,1.39-1.26,1.37l-.2-.17a.92.92,0,0,1,.16-1.17l0-.14Z"/><path class="cls-197" d="M48.59,16.63l0,1.25v0a1,1,0,0,1-1.36.07,1.07,1.07,0,0,1,0-1.4,1,1,0,0,1,1.38-.05Z"/><path class="cls-198" d="M48.56,8.62c0,.44,0,.88,0,1.33l-1.28,0c0-.45,0-.89,0-1.34Z"/><path class="cls-199" d="M45.91,46.92v1.33a5.72,5.72,0,0,1-5.23.19A1.22,1.22,0,0,1,40.43,47a2.36,2.36,0,0,0,.91-2.13c0-1.75,0-3.49,0-5.24a2.25,2.25,0,0,0-.87-2,1.24,1.24,0,0,1,.13-1.41,6.28,6.28,0,0,1,5.13-.13l.2.24,0,1.33c-2.06.53-2.16,2.08-2,3.79a9,9,0,0,1,0,1.64C43.73,44.85,43.88,46.39,45.91,46.92Z"/><path class="cls-200" d="M45.91,46.92c-.55,0-1.1,0-1.64,0-.7,0-1-.33-1-1q0-3.61,0-7.24c0-.68.3-1,1-1l1.64,0C45.9,40.78,45.91,43.85,45.91,46.92Z"/><path class="cls-201" d="M45.91,31.06l0,1.31-.2.24c-1.67.77-3.42.38-5.14.34a31,31,0,0,1-5.53,0c-1.25.07-2.52.35-3.68-.38a1.18,1.18,0,0,1-.11-1.49,1.72,1.72,0,0,1,1.44-.51,13.91,13.91,0,0,1,3.92,0,8.85,8.85,0,0,1,2.67,0,15.26,15.26,0,0,1,3.82,0,6.38,6.38,0,0,1,1.45,0A1.67,1.67,0,0,1,45.91,31.06Z"/><path class="cls-202" d="M44.58,57.54H43.29l-2.68,0c-2.07,1.09-4.24.55-6.39.39a1.66,1.66,0,0,1-.56-.29,1.23,1.23,0,0,1-.13-1.48,1.42,1.42,0,0,1,.5-.37,5.69,5.69,0,0,1,2.72-.16,16.92,16.92,0,0,1,4,0c1.54,0,3.16-.6,4.56.58v1.24A.49.49,0,0,1,44.58,57.54Z"/><path class="cls-203" d="M40.65,48.26h5.27l0,1.28-.17.24a6.09,6.09,0,0,1-3.7.32,2.26,2.26,0,0,1-1.39-.32,1.06,1.06,0,0,1-.24-1.31A1.89,1.89,0,0,1,40.65,48.26Z"/><path class="cls-204" d="M49.81,43h-1.2V37.72a1,1,0,0,1,1.32-.16,1.35,1.35,0,0,1,.35.47c.26,1.67.61,3.35-.32,4.94Z"/><path class="cls-205" d="M45.91,31.06H44.58a5.68,5.68,0,0,1-.1-5.33c1.35-.62,1.86,0,2,1.3s.45,2.58-.47,3.73C46,30.86,45.93,31,45.91,31.06Z"/><path class="cls-206" d="M48.57,36.38v-5.3a1.07,1.07,0,0,1,1.3-.17,1.18,1.18,0,0,1,.37.43,8.88,8.88,0,0,1,.15,3.7A1.77,1.77,0,0,1,50,36.42,1,1,0,0,1,48.57,36.38Z"/><path class="cls-207" d="M46,30.76l0-3.63a1.64,1.64,0,0,1,1.34-.5,1.6,1.6,0,0,1,1.38.46.94.94,0,0,1-.14,1.36c-.59,0-1.54,0-1.17.83C48.1,31.08,46.88,30.7,46,30.76Z"/><path class="cls-208" d="M45.93,52.25v1.24l-.17.24c-1.22.68-2.51.43-3.79.32a1.75,1.75,0,0,1-1.43-.47,1.16,1.16,0,0,1,.05-1.46A6.28,6.28,0,0,1,45.73,52,2.43,2.43,0,0,1,45.93,52.25Z"/><path class="cls-209" d="M45.27,56.22l-4.65-.08a1,1,0,0,1,0-1.38A1.94,1.94,0,0,1,42,54.35c1.33-.13,2.68-.4,3.92.37a1,1,0,0,1-.07,1.43Z"/><path class="cls-210" d="M44.6,61.47l0-2.6a.85.85,0,0,1,1.26-.06c0,.78,0,1.55,0,2.33C45.56,61.57,45.06,61.42,44.6,61.47Z"/><path class="cls-211" d="M48.51,28.45V27.18l.19-.22a1,1,0,0,1,1.36.23,2.24,2.24,0,0,1-.09,2.6,1,1,0,0,1-1.38-.06Z"/><path class="cls-212" d="M46,49.53c1-.05,1.32.38,1.32,1.37s-.36,1.42-1.34,1.35l0-.07a2,2,0,0,1,0-2.57Z"/><path class="cls-213" d="M45.89,56.15V54.84a.9.9,0,0,1,0-1.26l0-.09C47,53.42,47.28,54,47.26,55S46.81,56.29,45.89,56.15Z"/><path class="cls-214" d="M45.93,32.37c1-.06,1.47.34,1.28,1.38a1,1,0,0,1-1.34,0,1,1,0,0,1,0-1.33Z"/><path class="cls-215" d="M46,33.69l1.26.06V35a.93.93,0,0,1-1.1.31,1,1,0,0,1-.38-.3,1.12,1.12,0,0,1,0-1.18Z"/><path class="cls-216" d="M45.9,58.81l-1.26.06-.06-1.33.69-.08C46.12,57.61,45.88,58.27,45.9,58.81Z"/><path class="cls-217" d="M45.94,35.1,47.21,35c.18,1-.27,1.46-1.28,1.37l0,0A.82.82,0,0,1,45.94,35.1Z"/><path class="cls-218" d="M48.57,36.38H49.8l.22.15a.79.79,0,0,1-.2,1.17l-1.21,0C48.6,37.27,48.59,36.83,48.57,36.38Z"/><path class="cls-219" d="M48.6,29.73l1.28,0,.19.18a.87.87,0,0,1-.21,1.16l-1.29,0Z"/><path class="cls-220" d="M43.29,64.12c.3-1-.9-2.61,1.28-2.67,0,.87,0,1.75,0,2.62A.85.85,0,0,1,43.29,64.12Z"/><path class="cls-221" d="M43.29,64.12l1.28-.05c.18,1-.25,1.47-1.28,1.37Z"/><path class="cls-222" d="M27.44,46.93l0-8a1,1,0,0,1,1.45.08,13.64,13.64,0,0,1,0,7.83A1,1,0,0,1,27.44,46.93Z"/><path class="cls-223" d="M23.41,33.73l0-2.64c-.56-1.07-.28-1.63,1-1.62a.77.77,0,0,1,.45.32l-.09,6.59a.87.87,0,0,1-1.27,0l0,0C23.44,35.49,23.42,34.61,23.41,33.73Z"/><path class="cls-224" d="M24.73,43V41.66a4,4,0,0,1-.3-3.6.89.89,0,0,1,.43-.38c.89-.09,1.27.29,1.24,1.21-.05,1.4-.06,2.81,0,4.22,0,1-.45,1.23-1.27,1.22l-.11-.07A1,1,0,0,1,24.73,43Z"/><path class="cls-225" d="M33.7,56.23v1.22a1.09,1.09,0,0,1-1,.53,4.77,4.77,0,0,1-1.41,0,7.59,7.59,0,0,1-2.56,0,1.66,1.66,0,0,1-1.32-.47V56.15a1.72,1.72,0,0,1,1.35-.47,8.13,8.13,0,0,1,2.65,0C32.27,55.58,33.1,55.45,33.7,56.23Z"/><path class="cls-226" d="M27.46,53.58V52.2a1.63,1.63,0,0,1,1.32-.48,7.33,7.33,0,0,1,2.6,0,1.74,1.74,0,0,1,1.4.44,1.19,1.19,0,0,1,0,1.44,1.71,1.71,0,0,1-1.4.45,7.5,7.5,0,0,1-2.63,0A1.71,1.71,0,0,1,27.46,53.58Z"/><path class="cls-227" d="M27.45,31.05l0-3.91A1,1,0,0,1,28.83,27a4.55,4.55,0,0,1,.3,3.73,1.24,1.24,0,0,1-.34.47A1,1,0,0,1,27.45,31.05Z"/><path class="cls-228" d="M27.48,37.71l0-2.7a1,1,0,0,1,1.4,0,2.22,2.22,0,0,1,0,2.65A1,1,0,0,1,27.48,37.71Z"/><path class="cls-229" d="M26.13,25.87l-.07,2.54a1,1,0,0,1-1.31.12,2.39,2.39,0,0,1-.3-2.5,1.13,1.13,0,0,1,.38-.43A1,1,0,0,1,26.13,25.87Z"/><path class="cls-230" d="M28.7,27.1l-1.23,0-.06-1.34a1.1,1.1,0,0,1-.21-1.24.9.9,0,0,1,.41-.36,1.21,1.21,0,0,1,1.31.26,1.9,1.9,0,0,1,.31,1.37A1.29,1.29,0,0,1,28.7,27.1Z"/><path class="cls-231" d="M27.4,24.48c0,.44,0,.88,0,1.32l-1.28.07-1.28-.06a.82.82,0,0,1-.11-1.28l.08-.1A1.79,1.79,0,0,1,27.4,24.48Z"/><path class="cls-232" d="M27.44,46.93h1.29l.21.17a2,2,0,0,1,.28,1.3,1.53,1.53,0,0,1-.46,1.28,1,1,0,0,1-1.31-.08Z"/><path class="cls-233" d="M28.76,52.19h-1.3c0-.44,0-.88,0-1.32a1,1,0,0,1,1.33,0A1,1,0,0,1,28.76,52.19Z"/><path class="cls-234" d="M28.67,50.94l-1.2-.06c0-.42,0-.84,0-1.27l1.28-.14a.8.8,0,0,1,.3.33,1.14,1.14,0,0,1,0,.87A.63.63,0,0,1,28.67,50.94Z"/><path class="cls-165" d="M28.73,35.16,27.46,35V33.76a.92.92,0,0,1,1-.33,1.16,1.16,0,0,1,.39.26A1.26,1.26,0,0,1,29,34.82.75.75,0,0,1,28.73,35.16Z"/><path class="cls-235" d="M27.45,57.54h1.33A.94.94,0,0,1,29,58.59a.54.54,0,0,1-.34.27l-1.23,0Z"/><path class="cls-236" d="M28.76,56.14H27.45c0-.43,0-.87,0-1.3a.91.91,0,1,1,1.29,1.29Z"/><path class="cls-237" d="M27.48,37.71l1.19-.06.2.09a1,1,0,0,1,.12,1,.53.53,0,0,1-.31.26l-1.22,0C27.47,38.56,27.47,38.13,27.48,37.71Z"/><path class="cls-238" d="M28.66,54.89l-1.19,0c0-.42,0-.84,0-1.27h1.31a.91.91,0,0,1,.23,1A.59.59,0,0,1,28.66,54.89Z"/><path class="cls-239" d="M23.49,36.34l1.27,0c0,.44.07.87.11,1.3l-.17,0a.86.86,0,0,1-1.24,0h0Z"/><path class="cls-240" d="M28.72,33.63l-1.25.13V32.44a.94.94,0,0,1,1.31-.11A.88.88,0,0,1,28.72,33.63Z"/><path class="cls-241" d="M28.74,32.4l-1.28,0c0-.47,0-.93,0-1.39l1.27.14a.76.76,0,0,1,.2,1.05Z"/><path class="cls-242" d="M24.78,28.44l1.28,0c.18,1-.19,1.46-1.21,1.38l-.12-.05a.94.94,0,0,1-.13-1.14Z"/><path class="cls-243" d="M28.78,60.12l-.12-1.26.16-.07a1,1,0,0,1,1.37,0,1.16,1.16,0,0,1,0,1.43A1,1,0,0,1,28.78,60.12Z"/><path class="cls-244" d="M28.78,60.12l1.24.06a.82.82,0,0,1,0,1.31l-1.26-.05C28.77,61,28.77,60.56,28.78,60.12Z"/><path class="cls-245" d="M30,61.49V60.18c0-.44,0-.88,0-1.32a1,1,0,0,1,1.19-.3c.55.28.61.82.7,1.34s.16,1.05.75,1.28a1.34,1.34,0,0,1,.32.39,2.49,2.49,0,0,1,.2,1.29,1.48,1.48,0,0,1-.46,1.23c.08,1-.27,1.5-1.33,1.33l0,0a1.54,1.54,0,0,1-.45-1.09,2.11,2.11,0,0,0-.77-1.6Z"/><path class="cls-246" d="M31.35,64.14v1.31l-1.24,0V64.08A.83.83,0,0,1,31.35,64.14Z"/><path class="cls-247" d="M31.35,64.14l-1.24-.06c0-.44,0-.88,0-1.32C31.17,62.66,31.53,63.17,31.35,64.14Z"/><path class="cls-248" d="M34,57.54l6.59,0c0,2.25-1.76.86-2.63,1.29H36.66L34,58.92l-.2-.18A1,1,0,0,1,34,57.54Z"/><path class="cls-121" d="M34,58.92l0,2.51,0,0a.85.85,0,0,1-1.26,0l-.07,0a2.09,2.09,0,0,1-.13-2.68,1.08,1.08,0,0,1,1.47,0Z"/><path class="cls-249" d="M32.73,64.09l0-1.32a.83.83,0,0,1,1.24,0c0,.43,0,.87,0,1.31Z"/><path class="cls-250" d="M34,62.82l-1.24,0c0-.44,0-.89,0-1.33l1.26,0Z"/><path class="cls-251" d="M24.73,43v1.31l-1.25.06c0-.45,0-.89,0-1.33Z"/><path class="cls-252" d="M22.14,45.62V44.29h1.33l-.06,1.28Z"/><path class="cls-253" d="M23.46,37.69H24.7c0,1.32,0,2.64,0,4-1,0-1.31-.52-1.28-1.42S23.46,38.54,23.46,37.69Z"/><path class="cls-254" d="M27.41,17.89l1.33,0a1.49,1.49,0,0,1,.49,1.26,1.88,1.88,0,0,1-.34,1.34,1.06,1.06,0,0,1-1.3.18l-.19-.2Z"/><path class="cls-255" d="M26.08,21.79c0-.42.05-.85.08-1.27l1.24,0,.05.05A.94.94,0,0,1,26.26,22Z"/><path class="cls-256" d="M24.74,23.11c0-.42.05-.83.08-1.25l1.26-.07.06.09c.33,1.46.15,1.64-1.32,1.32Z"/><path class="cls-257" d="M22.14,27.13V25.86l1.33-.07.19.23C23.68,27.42,23.48,27.56,22.14,27.13Z"/><path class="cls-258" d="M24.74,24.53c0,.43.07.86.11,1.28l-.07,0a1,1,0,0,1-1.33,0l0,0c0-.44,0-.88,0-1.31Z"/><path class="cls-259" d="M24.82,23.2c.95.07,1.43-.34,1.32-1.32l1.23-.05.22.15a1.77,1.77,0,0,1,.31,1.28,1.5,1.5,0,0,1-.47,1.23h0l-2.58-.05Z"/><path class="cls-260" d="M23.45,25.81l1.33,0v2.6l0,0a1.87,1.87,0,0,1-2.44.22l-.18-.24,0-1.26C23.14,27.25,23.61,26.85,23.45,25.81Z"/><path class="cls-261" d="M22.14,29.76l-1.34,0c-.14-1,.38-1.39,1.32-1.35l.05.11A.85.85,0,0,1,22.14,29.76Z"/><path class="cls-262" d="M47.22,17.85h1.34c0,.88,0,1.75,0,2.63l-.18.2a1.07,1.07,0,0,1-1.26-.13,1.7,1.7,0,0,1-.38-1.26A2,2,0,0,1,47,18Z"/><path class="cls-263" d="M49.84,20.57l.06,1.26-.2.19a1,1,0,0,1-1.27-.21,1,1,0,0,1,.12-1.28l0,0Z"/><path class="cls-264" d="M51.15,21.9c0,.4.05.81.08,1.21l0,.08a1,1,0,0,1-1.36,0,1,1,0,0,1,0-1.36l0,0Z"/><path class="cls-265" d="M49.88,29.76l-.05-2.66.15-.18a1.77,1.77,0,0,1,1.07-.29A1.11,1.11,0,0,0,52.19,26a1,1,0,0,1,.33-.24c.46.18,1.21-.15,1.3.65s.82.67,1.34.81c0,.42,0,.84,0,1.26H53.83c-.78.71-1.95.67-2.72,1.46a.82.82,0,0,1-1.18-.18Z"/><path class="cls-266" d="M51.21,24.48h1.31v1.38a1.12,1.12,0,0,1-1.12.21,1,1,0,0,1-.38-.29,1.08,1.08,0,0,1,0-1.15Z"/><path class="cls-267" d="M49.92,23.11l1.27.08c0,.43,0,.86,0,1.29h0a1,1,0,0,1-1.21.2,1,1,0,0,1-.39-1.17A.73.73,0,0,1,49.92,23.11Z"/><path class="cls-268" d="M49.93,29.73c.32,0,.89,0,.93-.12.53-1.63,1.86-1.1,3-1.16-.13,1,.4,1.4,1.35,1.34-.25,1.75-1.62,1.19-2.67,1.29a1.56,1.56,0,0,1-1.3.49,1.52,1.52,0,0,1-1.3-.51l0,0Z"/><path class="cls-269" d="M57.84,31.05c-1,.19-1.46-.24-1.39-1.25C57.47,29.6,57.91,30,57.84,31.05Z"/><path class="cls-270" d="M52.49,33.75H51.26a.91.91,0,1,1,1.22-1.32Z"/><path class="cls-271" d="M52.48,32.42H51.26a.88.88,0,0,1-.07-1.34h1.32Z"/><path class="cls-272" d="M51.19,31.08c0,.45.05.89.07,1.34v1.32L51.15,35a.84.84,0,0,1-1.23,0c0-1.34,0-2.67,0-4Z"/><path class="cls-273" d="M49.92,35.07l1.23,0c0,.44,0,.88,0,1.32a.81.81,0,0,1-1.22,0H49.8Z"/><path class="cls-274" d="M50,36.36l1.22,0,0,1.35h0a.85.85,0,0,1-1.25,0h-.14Z"/><path class="cls-275" d="M50,37.68h1.25c0,.89,0,1.78,0,2.66-.4.89.92,2.61-1.27,2.63Z"/><path class="cls-276" d="M52.53,44.29v1.32l-1.28,0c0-.42,0-.84-.08-1.26Z"/><path class="cls-277" d="M22.14,29.76c0-.42,0-.84,0-1.26l2.58-.09c0,.44,0,.88,0,1.33-1-.12-1.36.42-1.3,1.35C22.43,31.2,22,30.73,22.14,29.76Z"/><path class="cls-278" d="M30.09,15.25l1.24,0,.22.18a1,1,0,0,1-.17,1.26,1,1,0,0,1-1.27-.11H30C30,16.12,30.06,15.69,30.09,15.25Z"/><path class="cls-279" d="M28.8,19.2l-.06-1.29L30,17.86l.22.17a1,1,0,0,1-.15,1.27A1,1,0,0,1,28.8,19.2Z"/><path class="cls-280" d="M30.11,16.55H31.3l.23.16A1,1,0,0,1,31.39,18a1,1,0,0,1-1.27-.08l-.12,0C30,17.42,30.07,17,30.11,16.55Z"/><path class="cls-281" d="M31.33,15.22l.09-1.3a1,1,0,0,1,1.34-.06,1.06,1.06,0,0,1,0,1.39,1,1,0,0,1-1.36,0Z"/><path class="cls-282" d="M32.71,13.91H31.42c-.17-1,.22-1.45,1.24-1.35l.19.12a1,1,0,0,1,0,1.07Z"/><path class="cls-283" d="M32.66,12.57l.05-1.3,0,0a1,1,0,0,1,1.32,0l0,0a1.07,1.07,0,0,1,.23,1.18.83.83,0,0,1-.35.37,1,1,0,0,1-1.18-.21Z"/><path class="cls-284" d="M34,11.25H32.69c0-.42,0-.85,0-1.28l1.3,0C34,10.38,34,10.82,34,11.25Z"/><path class="cls-285" d="M43.27,12.59l1.26,0,.12,0a1.69,1.69,0,0,1,.44,1.34,1.7,1.7,0,0,1-.44,1.37,1.14,1.14,0,0,1-1.4,0,1.6,1.6,0,0,1-.46-1.38A1.62,1.62,0,0,1,43.27,12.59Z"/><path class="cls-286" d="M43.27,12.59l0,1.35a.94.94,0,1,1-1.34-1.33l.11,0Z"/><path class="cls-287" d="M41.91,12.61,42,13.88l-.14.19a1,1,0,0,1-1.1,0l-.15-.18V12.58Z"/><path class="cls-288" d="M40.63,12.59c-1,.13-1.46-.32-1.31-1.33l1.27,0C40.6,11.73,40.61,12.16,40.63,12.59Z"/><path class="cls-289" d="M44.62,13.88l0-1.28,1.25,0L46,13.85l-.16.21A.88.88,0,0,1,44.62,13.88Z"/><path class="cls-290" d="M43.3,31.05l-4,0c-1.06-1.22-.24-2.77-.7-4.12-.73.33-1.17,1.75-2.26.59a3.24,3.24,0,0,1,.32-3.4v-.32c.43-.63.53-1.46,1.22-1.91s1.64-.57,1.7.32c.14,2,1.87,3.37,1.58,5.67.53-1.6-.35-3.19.94-4.33a1.17,1.17,0,0,1,1.52.59C44,26.48,44.43,28.8,43.3,31.05Z"/><path class="cls-291" d="M36.67,24.14v3.65a2.45,2.45,0,0,1,0,3.27h-4a1.48,1.48,0,0,1-.26-1.62,3.64,3.64,0,0,0,1-3.24,15,15,0,0,1,.08-1.78,8.06,8.06,0,0,1,0-2.5,5.2,5.2,0,0,1,0-1.42A1.72,1.72,0,0,1,34,19.12a1.05,1.05,0,0,1,1.38.06c0,1,0,2,0,3S35.54,23.94,36.67,24.14Z"/><path class="cls-291" d="M42,23.8c0,1.37,0,2.75,0,4.12,0,.59-.21,1.26-.8,1.26-.87,0-.46-.82-.49-1.28-.08-1.12.19-2.25-1.11-3-.53-.31-.17-1.24-.24-1.89,0-.36.11-.83-.34-1s-.77.2-1,.58a3.65,3.65,0,0,1-1.28,1.25,26.65,26.65,0,0,1,.06-3.1c.11-.88.51-1.77,1.57-1.8s1,.92,1,1.67c0,.38,0,.83.56.81s.69-.44.76-.89a1.06,1.06,0,0,1,1.46,0A2.73,2.73,0,0,1,42,23.8Z"/><path class="cls-292" d="M41.94,20.52h-1.3c0-1.14,0-2.29,0-3.43,0-.54,0-1.15-.57-1.41a1,1,0,0,1-.67-1.27c.2-.65.79-.43,1.24-.49h0a4.78,4.78,0,0,0,1.21,1,1.52,1.52,0,0,1,.32.3,3,3,0,0,0,1.19,1.2,1.47,1.47,0,0,1,.24.4A1.36,1.36,0,0,1,43.37,18C42.22,18.44,42.81,19.89,41.94,20.52Z"/><path class="cls-293" d="M32.64,15.22l.07-1.31,0,0c.4-.49.87-.91,1.3-1.36v0a.91.91,0,0,1,1.31,0l0,1.34a1,1,0,0,1,0,1.31l-.13,1.27a.91.91,0,0,1-1.09.28c-.57-.25-.72-1-1.28-1.23A.92.92,0,0,1,32.64,15.22Z"/><path class="cls-294" d="M35.4,15.25V13.93l1.24,0C36.81,14.86,36.43,15.34,35.4,15.25Z"/><path class="cls-295" d="M35.35,19.18H34.12l-.22-.11a1,1,0,0,1-.09-1.14,1,1,0,0,1,.35-.32,1,1,0,0,1,1.13.21Z"/><path class="cls-296" d="M35.29,17.83l-1.24.05a.85.85,0,0,1,0-1.32l1.23,0C35.28,17,35.29,17.39,35.29,17.83Z"/><path class="cls-297" d="M35.35,12.6H34c0-.44,0-.89,0-1.33h1.3Z"/><path class="cls-298" d="M47.23,13.92v1.24l-.17.22a1,1,0,0,1-1.29-.12A1,1,0,0,1,45.87,14l.09-.12Z"/><path class="cls-299" d="M48.54,16.48l-1.27.11-.2-.16a.85.85,0,0,1,.18-1.12v-.15l1.31.13Z"/><path class="cls-300" d="M47.27,16.59c0,.42,0,.84-.05,1.26h0a1,1,0,0,1-1.41,0c-.23-1.51-.08-1.65,1.39-1.35Z"/><path class="cls-301" d="M40.68,37.66c1-.09,1.32.4,1.3,1.37q-.09,3.28,0,6.57c0,1-.32,1.44-1.32,1.35l-.23-.19c-.83-2.47-.37-5-.32-7.49.06-.49,0-1,.34-1.43Z"/><path class="cls-302" d="M40.66,36.39c0,.43,0,.85,0,1.27l-.06,0c-2.11,1.09-4.28.73-6.46.27a1.19,1.19,0,0,1-.39-1.44,1.07,1.07,0,0,1,.41-.46,11.31,11.31,0,0,1,6.29.08Z"/><path class="cls-302" d="M45.94,35.1c0,.41,0,.82,0,1.24l-5.24,0,0,0a1,1,0,0,1,0-1.39A2,2,0,0,1,42,34.53c1.32-.11,2.66-.45,3.85.46Z"/><path class="cls-303" d="M40.65,47v1.31h0a2.05,2.05,0,0,1-2.69.13,1.18,1.18,0,0,1,0-1.51,2,2,0,0,1,2.69,0Z"/><path class="cls-304" d="M36.69,31.06c0-1.09,0-2.18,0-3.27A1.45,1.45,0,0,0,38,26.53c.09-.52.25-1.07.87-.94s.45.79.45,1.24c0,1.41,0,2.82,0,4.24Z"/><path class="cls-305" d="M43.3,31.05l0-6.9a1,1,0,0,1,1.41-.09,1.24,1.24,0,0,1-.07,1.71c0,1.76,0,3.53,0,5.29Z"/><path class="cls-306" d="M28.72,33.63l0-1.23v0a1.94,1.94,0,0,1,2.68,0l3.59.11a1,1,0,0,1,.06,1.4,3.16,3.16,0,0,1-2.4.39c-1.33.07-2.7.45-3.9-.49Z"/><path class="cls-307" d="M35,33.68l0-1.21,5.6,0a1,1,0,0,1,.19,1.3,1.19,1.19,0,0,1-.45.35,10.37,10.37,0,0,1-4.89,0A1,1,0,0,1,35,33.68Z"/><path class="cls-308" d="M40.64,33.65c0-.4,0-.8,0-1.21h5.3c0,.41,0,.83.05,1.24l-.07.08c-1.2.93-2.55.57-3.87.47C41.48,34.21,41,34.2,40.64,33.65Z"/><path class="cls-309" d="M32.72,29.44c0,.53,0,1.07,0,1.61l-1.25.09L31.19,31a4.79,4.79,0,0,1-.12-3.66,1.06,1.06,0,0,1,.42-.42,1.2,1.2,0,0,1,1.4.24A2,2,0,0,1,32.72,29.44Z"/><path class="cls-310" d="M31.41,32.36l-2.68,0c0-.4,0-.79,0-1.19l0-.15A1.6,1.6,0,0,1,30,30.6a1.53,1.53,0,0,1,1.29.4l.09.14C31.42,31.55,31.42,32,31.41,32.36Z"/><path class="cls-311" d="M40.65,54.92l0,1.22H36.68a1,1,0,0,1-.11-1.35,4.32,4.32,0,0,1,3.68-.27A.93.93,0,0,1,40.65,54.92Z"/><path class="cls-312" d="M36.67,54.89c0,.41,0,.83,0,1.24H34a1,1,0,0,1-.16-1.27,1.24,1.24,0,0,1,.43-.36A2.07,2.07,0,0,1,36.67,54.89Z"/><path class="cls-313" d="M34,54.87c0,.43,0,.85,0,1.27l-.32.09-2.31-.09a1,1,0,0,1,0-1.42A2,2,0,0,1,34,54.87Z"/><path class="cls-314" d="M34,58.78l-1.3.08a.87.87,0,0,1,0-1.31l1-.1.31.09Z"/><path class="cls-315" d="M38,48.25h2.64v1.25a2.2,2.2,0,0,0-.17.25c-2.09.85-4.25.4-6.38.33a1.87,1.87,0,0,1-1.49-.45,1.23,1.23,0,0,1,.08-1.53A5.75,5.75,0,0,1,38,48.25Z"/><path class="cls-316" d="M45.89,49.61v1.26a3.49,3.49,0,0,1-3.93.21,1,1,0,0,1,0-1.45Z"/><path class="cls-317" d="M41.94,49.63v1.24a.94.94,0,0,1-1.33.11.93.93,0,0,1,0-1.33v-.14Z"/><path class="cls-318" d="M44.62,25.77l-.06-1.61a.89.89,0,0,1-.09-1,1.09,1.09,0,0,1,1.2-.26c.65.31.88,1.11,1.58,1.37a1.27,1.27,0,0,1,.3.39,2.47,2.47,0,0,1,.17,1.26,1.47,1.47,0,0,1-.45,1.2l-1.34,0C46,26.17,45.63,25.67,44.62,25.77Z"/><path class="cls-319" d="M47.27,27.1V25.77a1,1,0,0,1,1.36-.06,1,1,0,0,1,0,1.36l-.08.11Z"/><path class="cls-320" d="M32.71,53.48V52.27L32.9,52c1.61-.77,3.31-.4,5-.34a3.81,3.81,0,0,1,2.59.34l.17.24v1.2l-.18.26c-2.08.84-4.23.4-6.37.32C33.56,54,33,54,32.71,53.48Z"/><path class="cls-321" d="M40.62,50.88h5.27c0,.44,0,.87,0,1.31l-5.26.09v-.09a.91.91,0,0,1-.19-1.13Z"/><path class="cls-322" d="M45.89,53.58c0,.42,0,.84,0,1.26h-4a.88.88,0,0,1,0-1.25Z"/><path class="cls-323" d="M41.94,53.59c0,.42,0,.83,0,1.25l-1.28.08,0-.11a.8.8,0,0,1,0-1.19v-.15Z"/><path class="cls-324" d="M48.6,27.07l0-1.25a1,1,0,0,1,1.19-.27.88.88,0,0,1,.38.36,1.14,1.14,0,0,1-.21,1.23l-.09,0Z"/><path class="cls-325" d="M41.94,33.75l3.94,0c0,.41,0,.81,0,1.22l-4,0A.89.89,0,0,1,41.94,33.75Z"/><path class="cls-326" d="M28.73,46.94,28.68,39l.14,0a1,1,0,0,1,1.44,0,14.45,14.45,0,0,1,0,7.88,1,1,0,0,1-1.47,0Z"/><path class="cls-327" d="M32.7,57.55l0,1.31c0,.88,0,1.75,0,2.62-2.2,0-1-1.73-1.32-2.67a.9.9,0,0,1,0-1.27Z"/><path class="cls-328" d="M31.37,57.54v1.27l-1.34,0-1.21-.07,0-1.25Z"/><path class="cls-329" d="M31.44,54.94c0,.4,0,.8-.05,1.2H28.76c0-.41-.06-.83-.1-1.25l.15,0a2.07,2.07,0,0,1,2.28-.3A.8.8,0,0,1,31.44,54.94Z"/><path class="cls-330" d="M32.71,53.48l1.3.11a.8.8,0,0,1,0,1.22l0,.06-2.6.07-.09-.14a.82.82,0,0,1,0-1.21Z"/><path class="cls-331" d="M31.38,53.59l0,1.21-2.54,0c0-.42,0-.84,0-1.26Z"/><path class="cls-332" d="M28.76,52.19l-.09-1.25.13-.07a2,2,0,0,1,2.59-.09,1,1,0,0,1,0,1.39Z"/><path class="cls-333" d="M31.37,52.17l0-1.26.19-.2a1,1,0,0,1,1.29.2,1,1,0,0,1-.17,1.28l0,.08Z"/><path class="cls-334" d="M30.05,31l-1.29,0L28.7,27.1l.09-1.28a1.57,1.57,0,0,1,1.33-.51,1.64,1.64,0,0,1,1.39.42,1.13,1.13,0,0,1-.09,1.41l-.05,0A2.21,2.21,0,0,0,30.66,29C30.62,29.69,30.7,30.47,30.05,31Z"/><path class="cls-335" d="M28.67,37.65l.06-2.49,0-.16c1.2-.91,2.55-.58,3.88-.47a2,2,0,0,1,1.47.39A1.09,1.09,0,0,1,34,36.36h0c-.72.78-2.13.36-2.65,1.51a2,2,0,0,1-1.3.29,1.55,1.55,0,0,1-1.29-.45Z"/><path class="cls-336" d="M30.07,25.8l-1.28,0-.09-1.35a1.09,1.09,0,0,1-.15-1.27.93.93,0,0,1,.44-.34,1.17,1.17,0,0,1,1.33.39A2.13,2.13,0,0,1,30.07,25.8Z"/><path class="cls-337" d="M28.72,23.14c0,.44,0,.89,0,1.33l-1.27,0,0-1.32A.84.84,0,0,1,28.72,23.14Z"/><path class="cls-338" d="M32.72,48.25v1.27a1.38,1.38,0,0,1-1.34.56,2.92,2.92,0,0,1-2.62-.45l0-.16,0-1.23c.62-.77,2-.21,2.41-1.33a1.17,1.17,0,0,1,.42-.27,1.19,1.19,0,0,1,1.24.31A1,1,0,0,1,32.72,48.25Z"/><path class="cls-339" d="M31.36,46.91c.07,2.29-1.66,1-2.6,1.33,0-.45,0-.89,0-1.33l1.28,0A.93.93,0,0,1,31.36,46.91Z"/><path class="cls-340" d="M28.75,49.63h2.62a.87.87,0,0,1,0,1.26v0l-2.59,0Z"/><path class="cls-341" d="M32.69,35l-3.94,0V33.77h3.93A.79.79,0,0,1,32.69,35Z"/><path class="cls-342" d="M28.79,37.72h1.26a.85.85,0,0,1,0,1.28H28.82Z"/><path class="cls-343" d="M28.8,19.2H30l.22.15a1,1,0,0,1-.08,1.23,1.09,1.09,0,0,1-1.25.14,1.7,1.7,0,0,0-.19-.19Z"/><path class="cls-344" d="M27.37,21.83c0-.43.05-.86.08-1.29H28.7l.08,0A1.09,1.09,0,0,1,29,21.68a.84.84,0,0,1-.34.38,1,1,0,0,1-1.19-.2Z"/><path class="cls-345" d="M27.47,21.86l1.25,0a.94.94,0,0,1,.07,1.36l-.07,0-1.25,0Z"/><path class="cls-346" d="M46,17.88l1.27,0v1.37a1,1,0,0,1-1.28.09,1,1,0,0,1-.19-1.26Z"/><path class="cls-347" d="M48.55,20.53l.06,1.26-.15.2a1.05,1.05,0,0,1-1.2,0A1,1,0,0,1,47,20.83a.6.6,0,0,1,.33-.35Z"/><path class="cls-348" d="M46,19.2l1.23,0c0,.41.05.83.08,1.25l-.12.07a1,1,0,0,1-1,.25,1.05,1.05,0,0,1-.37-.25,1.15,1.15,0,0,1-.11-1.08A.63.63,0,0,1,46,19.2Z"/><path class="cls-349" d="M49.87,21.85c0,.42,0,.84.05,1.26l-.08.11c-1.47.3-1.64.13-1.33-1.34l.1-.09Z"/><path class="cls-350" d="M51.23,25.86h1.3c.12,1-.41,1.36-1.35,1.25A.85.85,0,0,1,51.23,25.86Z"/><path class="cls-351" d="M51.23,25.86c0,.42,0,.84,0,1.26l-1.26,0c0-.43,0-.87,0-1.3a.84.84,0,0,1,1.26-.12Z"/><path class="cls-352" d="M51.17,25.72l-1.26.12,0-.09a.89.89,0,0,1-.18-1.11l.18-.16H51.2Z"/><path class="cls-353" d="M48.51,21.88c-.07,1,.4,1.38,1.33,1.34,0,.42,0,.84,0,1.26h0a1.83,1.83,0,0,1-2.63,0h-.06a1.48,1.48,0,0,1-.44-1.12,2.37,2.37,0,0,1,.17-1.21.81.81,0,0,1,.37-.31Z"/><path class="cls-354" d="M31.43,15.23h1.21l.16,0a1.07,1.07,0,0,1,0,1.38,1,1,0,0,1-1.35-.07H31.3C31.35,16.11,31.39,15.67,31.43,15.23Z"/><path class="cls-355" d="M30.12,17.89l1.19,0,.23.17a1,1,0,0,1-.12,1.29,1,1,0,0,1-1.29-.13H30C30,18.76,30.08,18.32,30.12,17.89Z"/><path class="cls-356" d="M31.45,16.55l1.23,0A1,1,0,0,1,33,17.67a.92.92,0,0,1-.33.4.93.93,0,0,1-1.18-.19l-.17,0Z"/><path class="cls-357" d="M34,12.58c.16,1-.26,1.48-1.3,1.36,0-.45,0-.89,0-1.33Z"/><path class="cls-358" d="M45.87,14,46,15.2a.86.86,0,0,1-1.17.21,1.54,1.54,0,0,1-.17-.19c0-.44,0-.89,0-1.34Z"/><path class="cls-359" d="M42,13.88l1.23.06.09,1.27-.17.19a.93.93,0,0,1-1.2-.19l0,0a.94.94,0,0,1,0-1.28Z"/><path class="cls-360" d="M43.34,15.21h1.25a1,1,0,0,1,.09,1.4,1,1,0,0,1-1.39-.09l0,0a1,1,0,0,1,0-1.32Z"/><path class="cls-187" d="M41.88,14c0,.42,0,.85,0,1.28-1,.11-1.42-.33-1.3-1.32Z"/><path class="cls-361" d="M44.64,23.13c0,.34,0,.69-.08,1H43.28c-.35-.44-.85-.3-1.31-.35l0-3.28c.41-.89-1-2.65,1.3-2.63l.21.14a1.87,1.87,0,0,1,.32,1.19c0,1,.08,2,1.06,2.69A1.1,1.1,0,0,1,44.64,23.13Z"/><path class="cls-362" d="M32.72,29.44l0-2.35a2,2,0,0,1-.09-2.62,1,1,0,0,1,1.42,0c0,1,0,1.93,0,2.89A1.82,1.82,0,0,1,32.72,29.44Z"/><path class="cls-363" d="M34,24.46l-1.22,0-.23-.13A2.45,2.45,0,0,1,32.4,22a.93.93,0,0,1,.36-.4,1,1,0,0,1,1.24.19Z"/><path class="cls-364" d="M34,21.82l-1.25,0a1,1,0,0,1-.16-1.38,1,1,0,0,1,1.4,0Z"/><path class="cls-365" d="M34,20.5l-1.23,0a1,1,0,0,1-.17-1.37.94.94,0,0,1,1.37,0h.16C34.07,19.62,34,20.06,34,20.5Z"/><path class="cls-366" d="M43.21,15.24c0,.44,0,.88,0,1.32-1,.12-1.45-.34-1.29-1.35Z"/><path class="cls-367" d="M43.29,16.54l1.28,0a.92.92,0,0,1,.27,1.16.86.86,0,0,1-.36.37,1,1,0,0,1-1.19-.25l0,0C43.26,17.44,43.27,17,43.29,16.54Z"/><path class="cls-368" d="M32.7,17.87c0-.45,0-.9,0-1.36l.12-1.27c1.05-.16,1.3.43,1.24,1.31,0,.45,0,.89,0,1.33l0,0A.88.88,0,0,1,32.7,17.87Z"/><path class="cls-369" d="M32.7,17.87l1.3,0c0,.45,0,.9,0,1.35H32.75a.9.9,0,0,1,0-1.35Z"/><path class="cls-370" d="M44.68,17.86c0-.43-.08-.86-.11-1.28s0-.9,0-1.35l1.36,0,1.3.11c0,.39,0,.78,0,1.18-1,0-1.46.37-1.25,1.39h0A.84.84,0,0,1,44.68,17.86Z"/><path class="cls-371" d="M40.62,46.92,38,47l-.23-.22a14.05,14.05,0,0,1,.13-7.82,2.08,2.08,0,0,1,2.75.09Z"/><path class="cls-372" d="M40.63,39,38,39a1.64,1.64,0,0,1-1.28.49,8,8,0,0,1-2.49,0,2.71,2.71,0,0,1-1.37-.23,1,1,0,0,1-.39-.41,1.19,1.19,0,0,1,.25-1.34,1.11,1.11,0,0,1,1.35.12l6.57,0C40.62,38.13,40.62,38.57,40.63,39Z"/><path class="cls-373" d="M34,36.36l0-1.26a1.35,1.35,0,0,1,1.3-.56,13.41,13.41,0,0,1,4.89.16.88.88,0,0,1,.4.41c0,.41,0,.82,0,1.23Z"/><path class="cls-374" d="M34.05,37.66l-1.35,0a.9.9,0,0,1-1.14.17c0-.06-.11-.12-.16-.19,0-2.27,1.71-1,2.63-1.3C34,36.8,34,37.23,34.05,37.66Z"/><path class="cls-375" d="M41.94,33.75V35l-1.31.1V35a.74.74,0,0,1,0-1.14l0-.17Z"/><path class="cls-376" d="M32.72,48.25V46.94l.18-.21a2.1,2.1,0,0,1,1.32-.3,7.43,7.43,0,0,1,2.49,0,1.56,1.56,0,0,1,1.29.5h0c0,.43,0,.87,0,1.3Z"/><path class="cls-377" d="M35.34,35l-1.3.1L32.69,35v-1.2l2.34-.1.31.08A.85.85,0,0,1,35.34,35Z"/><path class="cls-378" d="M35.34,35V33.76l5.28.06,0,1.14Z"/><path class="cls-379" d="M30.05,31c0-.86.06-1.73,0-2.59s.33-1.41,1.31-1.33c0,1.3,0,2.6,0,3.9Z"/><path class="cls-380" d="M32.79,24.48c0,.87-.08,1.74-.11,2.61l-1.26.05c0-.45-.07-.9-.1-1.35a1.07,1.07,0,0,1,0-1.38,1,1,0,0,1,1.35.05Z"/><path class="cls-381" d="M34,54.81V53.59l6.63,0c0,.39,0,.79,0,1.19l-3.95.08Z"/><path class="cls-382" d="M40.64,49.65c0,.41,0,.82,0,1.23l0,0a3,3,0,0,1-2.65.53c-1.34.07-2.7.38-4-.38a1,1,0,0,1,0-1.43Z"/><path class="cls-383" d="M34,49.63v1.21a.85.85,0,0,1-1.28.12l-1.34-.07c0-.42,0-.84,0-1.26l1.34-.11Z"/><path class="cls-384" d="M47.27,24.46l2.63,0c0,.42,0,.84,0,1.26l-1.32.07-1.28-.05C47.28,25.34,47.27,24.9,47.27,24.46Z"/><path class="cls-385" d="M44.64,23.13l-.07-1.28a1.09,1.09,0,0,1-.06-1.41,1,1,0,0,1,1.39.08l0,0a1.55,1.55,0,0,1,.46,1.22A1.83,1.83,0,0,1,46.11,23l-.21.17Z"/><path class="cls-386" d="M47.19,23.17c0,.43,0,.87,0,1.3-1,.17-1.37-.37-1.31-1.3l.06,0A.84.84,0,0,1,47.19,23.17Z"/><path class="cls-387" d="M32.73,51,34,50.84,38,51a.81.81,0,0,1,0,1.23H32.7Z"/><path class="cls-388" d="M38,52.18c0-.41,0-.82,0-1.23l2.68,0c0,.43,0,.85,0,1.27Z"/><path class="cls-389" d="M30.06,39c0-.43,0-.86,0-1.28l1.35-.06,0,0a1.91,1.91,0,0,1,.53,1.46,51.25,51.25,0,0,1,.1,6.32,2,2,0,0,1-.63,1.46l0,0-1.3,0Z"/><path class="cls-390" d="M31.42,24.51c0,.42-.06.85-.1,1.28H30.07c0-.89,0-1.78,0-2.67A1.06,1.06,0,0,1,29.81,22a.92.92,0,0,1,.35-.38,1.11,1.11,0,0,1,1.6.54A2.34,2.34,0,0,1,31.42,24.51Z"/><path class="cls-391" d="M30,21.81v1.32l-1.24.05c0-.45-.05-.91-.07-1.36l.06,0A.84.84,0,0,1,30,21.81Z"/><path class="cls-392" d="M31.38,46.93l.05-7.9a.87.87,0,0,1,1.27,0l.06,0c1.06,1.37.52,3,.57,4.45.05,1.17.34,2.44-.62,3.45H31.38Z"/><path class="cls-393" d="M30.13,19.19l1.21,0a1,1,0,0,1,.28,1.24,1,1,0,0,1-1.2.43.91.91,0,0,1-.43-.32Z"/><path class="cls-394" d="M30,21.81l-1.25.05V20.5h1.36a1,1,0,0,1-.05,1.34Z"/><path class="cls-395" d="M44.68,17.86l1.24,0c0,.44,0,.88.07,1.32h-.15a1,1,0,0,1-1.14.23.84.84,0,0,1-.35-.35,1.1,1.1,0,0,1,.18-1.19Z"/><path class="cls-396" d="M46,21.81l0-1.32,1.25.06.12,1.28h-.12A.83.83,0,0,1,46,21.81Z"/><path class="cls-397" d="M44.61,19.18h1.23l.06,1.33H44.62A.85.85,0,0,1,44.61,19.18Z"/><path class="cls-398" d="M46,21.81l1.23,0v1.33l-1.23,0Z"/><path class="cls-399" d="M31.37,20.49c0-.44,0-.88,0-1.33s.08-.85.13-1.28l1.23,0c0,.45,0,.9,0,1.35s0,.88,0,1.32,0,.88,0,1.32l-.06,0a.91.91,0,0,1-1.3,0h0A1,1,0,0,1,31.37,20.49Z"/><path class="cls-400" d="M44.61,19.18c0,.44,0,.88,0,1.33s0,.89,0,1.34c-2.18-.05-1-1.72-1.28-2.67a.93.93,0,0,1,1.3,0Z"/><path class="cls-401" d="M44.59,19.2l-1.3,0V17.86l1.25,0C44.55,18.32,44.57,18.76,44.59,19.2Z"/><path class="cls-402" d="M31.39,21.83h1.3c0,.88,0,1.76,0,2.64l-1.22.05Z"/><path class="cls-403" d="M38,46.94l-1.31,0a1.47,1.47,0,0,1-.55-1c0-2.32-.72-4.7.54-6.93H38C38,41.66,38,44.3,38,46.94Z"/><path class="cls-404" d="M36.67,39c0,2.64,0,5.28,0,7.91H34a2,2,0,0,1-.61-1.32c-.07-1.75-.08-3.51,0-5.26a1.84,1.84,0,0,1,.63-1.3Z"/><path class="cls-405" d="M34.05,39.05c0,2.62,0,5.25,0,7.88H32.71c0-2.63,0-5.27,0-7.9Z"/><path class="cls-406" d="M32.7,39l-1.27,0c0-.44,0-.89-.05-1.34H32.7Z"/><path class="cls-407" d="M31.37,20.49c0,.45,0,.9,0,1.35h-1.3c0-.45,0-.9.05-1.34Z"/></g></g></svg>