<svg xmlns="http://www.w3.org/2000/svg" viewBox="0 0 74 74"><defs><style>.cls-1{fill:#1e2223;}.cls-2{fill:#396033;}.cls-3{fill:#486c41;}.cls-4{fill:#3e6336;}.cls-5{fill:#436c3c;}.cls-6{fill:#416439;}.cls-7{fill:#2e5329;}.cls-8{fill:#3a3a3a;}.cls-9{fill:#374933;}.cls-10{fill:#a4a6a4;}.cls-11{fill:#42663e;}.cls-12{fill:#4d6d46;}.cls-13{fill:#395d31;}.cls-14{fill:#4d4d4d;}.cls-15{fill:#335b2d;}.cls-16{fill:#4d6947;}.cls-17{fill:#2e5226;}.cls-18{fill:#65855e;}.cls-19{fill:#34592c;}.cls-20{fill:#526b4c;}.cls-21{fill:#0c2807;}.cls-22{fill:#60a05b;}.cls-23{fill:#6db168;}.cls-24{fill:#173c11;}.cls-25{fill:#11370c;}.cls-26{fill:#072f03;}.cls-27{fill:#5a7c53;}.cls-28{fill:#1f4217;}.cls-29{fill:#24471c;}.cls-30{fill:#294d21;}.cls-31{fill:#4e7247;}.cls-32{fill:#4a6744;}.cls-33{fill:#577350;}.cls-34{fill:#293427;}.cls-35{fill:#2c3f28;}.cls-36{fill:#454644;}.cls-37{fill:#406839;}.cls-38{fill:#456a3d;}.cls-39{fill:#516f4c;}.cls-40{fill:#4e7246;}.cls-41{fill:#618259;}.cls-42{fill:#50704a;}.cls-43{fill:#353d33;}.cls-44{fill:#51724a;}.cls-45{fill:#7f7f7f;}.cls-46{fill:#4d554b;}.cls-47{fill:#496843;}.cls-48{fill:#354033;}.cls-49{fill:#9fa39e;}.cls-50{fill:#374834;}.cls-51{fill:#435140;}.cls-52{fill:#2c3829;}.cls-53{fill:#41673a;}.cls-54{fill:#3a6033;}.cls-55{fill:#5a9556;}.cls-56{fill:#4c7745;}.cls-57{fill:#55834e;}.cls-58{fill:#558c51;}.cls-59{fill:#385934;}.cls-60{fill:#4b6e43;}.cls-61{fill:#222f1f;}.cls-62{fill:#375c30;}.cls-63{fill:#31582b;}.cls-64{fill:#454545;}.cls-65{fill:#464646;}.cls-66{fill:#8b8b8b;}.cls-67{fill:#545454;}.cls-68{fill:#5f605f;}.cls-69{fill:#4f514f;}.cls-70{fill:#627e5d;}.cls-71{fill:#202f1d;}.cls-72{fill:#527c4a;}.cls-73{fill:#2e322c;}.cls-74{fill:#d4d5d4;}.cls-75{fill:#9b9b9b;}.cls-76{fill:#7a7a7a;}.cls-77{fill:#568f51;}.cls-78{fill:#3f613a;}.cls-79{fill:#548c4f;}.cls-80{fill:#599256;}.cls-81{fill:#496a43;}.cls-82{fill:#2e462a;}.cls-83{fill:#708f6a;}.cls-84{fill:#74a569;}.cls-85{fill:#65935c;}.cls-86{fill:#78aa6e;}.cls-87{fill:#6b9b61;}.cls-88{fill:#7fa677;}.cls-89{fill:#7fa077;}.cls-90{fill:#698862;}.cls-91{fill:#858585;}.cls-92{fill:#818181;}.cls-93{fill:#626262;}.cls-94{fill:#44583f;}.cls-95{fill:#313c2e;}.cls-96{fill:#1e2c1a;}.cls-97{fill:#151c13;}.cls-98{fill:#162313;}.cls-99{fill:#65a761;}.cls-100{fill:#60855a;}.cls-101{fill:#525351;}.cls-102{fill:#487040;}.cls-103{fill:#54774e;}.cls-104{fill:#8a8d88;}.cls-105{fill:#72886c;}.cls-106{fill:#b0b0b0;}.cls-107{fill:#363d36;}.cls-108{fill:#989a97;}.cls-109{fill:#384035;}.cls-110{fill:#535752;}.cls-111{fill:#8e938c;}.cls-112{fill:#9f9f9f;}.cls-113{fill:#6d6d6c;}.cls-114{fill:#949494;}.cls-115{fill:#2a2f27;}.cls-116{fill:#686968;}.cls-117{fill:#3d413c;}.cls-118{fill:#575757;}.cls-119{fill:#518a4c;}.cls-120{fill:#53794b;}.cls-121{fill:#5a8551;}.cls-122{fill:#283725;}.cls-123{fill:#2f3e2c;}.cls-124{fill:#344731;}.cls-125{fill:#969696;}.cls-126{fill:#919191;}.cls-127{fill:#999;}.cls-128{fill:#81a47a;}.cls-129{fill:#595959;}.cls-130{fill:#828282;}.cls-131{fill:#262a26;}.cls-132{fill:#3a3e38;}.cls-133{fill:#4a4d4a;}.cls-134{fill:#5d5d5d;}.cls-135{fill:#6e8868;}.cls-136{fill:#6a9162;}.cls-137{fill:#5d8b54;}.cls-138{fill:#6a6a6a;}.cls-139{fill:#b3b4b2;}.cls-140{fill:#343635;}.cls-141{fill:#6a6a69;}.cls-142{fill:#a3a5a2;}.cls-143{fill:#bebebd;}.cls-144{fill:#555;}.cls-145{fill:#b0b4af;}.cls-146{fill:#6fa065;}.cls-147{fill:#82aa79;}.cls-148{fill:#92c387;}.cls-149{fill:#80987b;}.cls-150{fill:#85b37c;}.cls-151{fill:#84b07c;}.cls-152{fill:#8dbb83;}.cls-153{fill:#2f342d;}.cls-154{fill:#3a4537;}.cls-155{fill:#3b4f36;}.cls-156{fill:#2c2f2a;}.cls-157{fill:#484948;}.cls-158{fill:#2a2e29;}.cls-159{fill:#55804c;}.cls-160{fill:#989898;}.cls-161{fill:#8d8d8d;}.cls-162{fill:#abacab;}.cls-163{fill:#b3b3b3;}.cls-164{fill:#5e5e5d;}.cls-165{fill:#c1c1c1;}.cls-166{fill:#b9b9b9;}.cls-167{fill:#9c9c9c;}.cls-168{fill:#adadad;}.cls-169{fill:#cfcfcf;}.cls-170{fill:#646464;}.cls-171{fill:#758e70;}.cls-172{fill:#4c4d4b;}.cls-173{fill:#2e352d;}.cls-174{fill:#7e7e7d;}.cls-175{fill:#565656;}.cls-176{fill:#383d37;}.cls-177{fill:#a7a7a7;}.cls-178{fill:#777;}.cls-179{fill:#bebebe;}.cls-180{fill:#d0d1d0;}.cls-181{fill:#d9d9d9;}.cls-182{fill:#6e6e6e;}.cls-183{fill:#2f352e;}.cls-184{fill:#7ba771;}.cls-185{fill:#444443;}.cls-186{fill:#393939;}.cls-187{fill:#4a4a4a;}.cls-188{fill:#5a5b5a;}.cls-189{fill:#666;}.cls-190{fill:#232921;}.cls-191{fill:#3f423f;}.cls-192{fill:#585858;}.cls-193{fill:#5b5b5b;}.cls-194{fill:#f5f5f5;}.cls-195{fill:#565a54;}.cls-196{fill:#878786;}.cls-197{fill:#9a9a9a;}.cls-198{fill:#242423;}.cls-199{fill:#5e5e5e;}.cls-200{fill:#363936;}.cls-201{fill:#434942;}.cls-202{fill:#898989;}.cls-203{fill:#474747;}.cls-204{fill:#484848;}.cls-205{fill:#636363;}.cls-206{fill:#3f443e;}.cls-207{fill:#b6b6b6;}.cls-208{fill:#252924;}</style></defs><title>추가장갑</title><g id="레이어_2" data-name="레이어 2"><g id="레이어_1-2" data-name="레이어 1"><rect class="cls-1" width="74" height="74" rx="8.33" ry="8.33"/><path class="cls-2" d="M11.64,12.22c3.37-1.11,6.89-.73,10.23-.38,5.08.53,10.24.63,15.2,2.06a26.65,26.65,0,0,1,7.79,3.31c1.11.75,3.17,1.4,2,3.6a9.37,9.37,0,0,0-2.44,1.65,2.7,2.7,0,0,1-.72.31c-2,.87-3.61,0-5.22-1-3-1.89-5.59-4.35-9-5.59-5.09-2-10.19-3.83-15.81-3.18A1.94,1.94,0,0,1,11.64,12.22Z"/><path class="cls-3" d="M29.28,62.39l-1.09,0c-.67-.53-1.52-.05-2.22-.39a72.08,72.08,0,0,1-6.64-11.64c-1.79-3.87-4.19-7.4-5.89-11.3-.32-.74-1-.94-1.62-1.29a1.82,1.82,0,0,1-.39-.69,1.12,1.12,0,0,1,.37-.7A3.16,3.16,0,0,1,13.75,36a3.49,3.49,0,0,1,1.16.2C17,37.35,17.62,39.68,19,41.36a2.52,2.52,0,0,1,.51.47,14.73,14.73,0,0,0,1.12,1.63,4.4,4.4,0,0,0,.57.72c.6.44,1.23,0,1.84.08a1.46,1.46,0,0,1,.94.44c.3.68-.09,1.18-.47,1.64a1.08,1.08,0,0,0,.15,1.77,3,3,0,0,1,.52.91,3.7,3.7,0,0,1,.59,1.6c0,.54-.41,1-.16,1.61.1.6.58.93,1,1.33a7.39,7.39,0,0,1,2.16,3.33c.21.85.12,1.81,1,2.4.59.41,1.3.14,1.92.34a1.46,1.46,0,0,1,.87.61C31.66,61.88,29.86,61.49,29.28,62.39Z"/><path class="cls-4" d="M26.06,61.89c.75,0,1.54-.11,2.13.53H21.78c-.4-.37-1-.21-1.43-.49-1.68-1.33-2.12-3.41-3-5.18-1.92-3.92-4.53-7.49-6-11.66a26.34,26.34,0,0,1,0-2.81c1.52-1.16,2.05.16,2.51,1.12,2.54,5.21,5.55,10.18,8.23,15.31.56,1.08,1,2.35,2.54,2.32A3.75,3.75,0,0,1,26.06,61.89Z"/><path class="cls-5" d="M11.64,12.22c6.48-.37,12.78.34,18.7,3.22a.48.48,0,0,1,.16.6,2.4,2.4,0,0,0-1,1.55c-.3.54.14.92.31,1.37a1.57,1.57,0,0,1-.66,1.95c-1.23,0-1.85-1.05-2.78-1.56-.54-.46-1.16-.81-1.71-1.24a6,6,0,0,1-.76-.75c-.57-.6-.72-1.49-1.4-2-2.18-.88-4.52-1.09-6.76-1.72a2.34,2.34,0,0,0-2.62.7,12.57,12.57,0,0,0-1,1.84.85.85,0,0,1-1,.36C11.25,15.09,10.71,13.57,11.64,12.22Z"/><path class="cls-6" d="M62.91,60.83c0,.75-.17,1.55-1.08,1.53-3.22-.09-6.48.64-9.65-.45a1.54,1.54,0,0,1,0-1.55,5.73,5.73,0,0,1,2.11-2C57.61,56.93,61.53,58,62.91,60.83Z"/><path class="cls-7" d="M11.65,42.14v3.21c.6.78.48,1.76.74,2.63-.05,1.62.37,3.22.28,4.84-.36,3.26,1.64,7.39,4.07,8.38.51.25,1,.52.78,1.22-7.31,0-6.35.76-6.39-6.29,0-6.44,0-12.88,0-19.32.18-.18.33-.16.46,0s0,.32,0,.48a2.44,2.44,0,0,1,.74,1.2C12.4,39.8,12.78,41.12,11.65,42.14Z"/><path class="cls-8" d="M49.57,24c1.45,5.55,5.31,9.75,8,14.59,1,1.72,2.7,3.36,1.55,5.71-.54-.48-1-1.07-1.47-1.58a2.49,2.49,0,0,1-.39-.62c-1.44-2.61-2.42-5.53-5-7.39a2.31,2.31,0,0,1-.71-.87,8.89,8.89,0,0,0-2.1-4.28c-.37-1.43-1.61-2.71-.77-4.35a3,3,0,0,1,.24-.73A1.36,1.36,0,0,1,49.57,24Z"/><path class="cls-9" d="M45.78,23.39c-.07.81-.42,1.8,1,1.65l.23.27A1.14,1.14,0,0,1,47,26a10.9,10.9,0,0,0-1.27,2.09,1,1,0,0,1-1,.31,6,6,0,0,1-.51-.5c-.08.42.32.66.41,1a7.17,7.17,0,0,1-.16,2.65,3.1,3.1,0,0,1-1,1.61,1.3,1.3,0,0,1-.73.12c-1.13-.76-1.43-2.22-2.54-3a1.94,1.94,0,0,1-.51-1c-.07-1.15.78-1.78,1.43-2.51a23.33,23.33,0,0,0,2.73-2.89C44.35,23.32,44.94,22.85,45.78,23.39Z"/><path class="cls-10" d="M45.31,27.7a1.63,1.63,0,0,1,1.54-2.16c.4,1-.4,2.07,0,2.66-.26-.59.31-1.65,0-2.66a4.1,4.1,0,0,1,0-.5l.61-.59c.72-.22,1.45-.55,2.08.18a.32.32,0,0,0,0,.3c-.48.91-1,1.81-.43,2.88.14,1,.71,2,.28,3.14a1.87,1.87,0,0,1-1.35.84C45,30.56,44.75,30.22,45.31,27.7Z"/><path class="cls-11" d="M11.15,24.48l0-5.84c.43-.18.71,0,1,.34a1.92,1.92,0,0,1,.28.68,7.82,7.82,0,0,1,.06,1.08c0,.34,0,.68,0,1a2,2,0,0,0,.35.9c1,.86,2.21.41,3.34.53a14.79,14.79,0,0,0,5-1,2.86,2.86,0,0,1,2,.27,1,1,0,0,1,.41.71c-.06.63-.52,1-.94,1.33a8.91,8.91,0,0,1-1.77,1.14c-1.49.45-2.89-.31-4.35-.35C14.75,25.06,12.76,26,11.15,24.48Z"/><path class="cls-12" d="M17,24.53c1.44,0,2.8.77,4.27.49,0,.13.07.27.11.4a1.42,1.42,0,0,1-.5.66c-1,.56-2.16.2-3.24.31a9.44,9.44,0,0,0-1.59.1,3.12,3.12,0,0,1-1.14.1c-2-.66-2.18.7-2.32,2.11,0,1.36.39,2.72,0,4.07A10.48,10.48,0,0,0,12.47,34a4.06,4.06,0,0,1-.26,2.07,3.69,3.69,0,0,1-.52.66l-.08.11a3.59,3.59,0,0,0-.46,0V25.12C13,24.23,15.09,25.31,17,24.53Z"/><path class="cls-13" d="M62.91,60.83c-2.61-1.76-5.26-3.33-8.53-1.6-.4-1.7.85-2.23,2-2.82a4.92,4.92,0,0,1,.86-.09c2,.45,4.33.26,5.66,2.37Z"/><path class="cls-14" d="M58.65,44.29l0,.52c-.4.38-.14,1.4-1.15,1.18-1-.85-1.23-2.21-2.16-3.09-.55-1.34-1.53-2.5-1.67-4a2,2,0,0,1,.47-1.51c1.24-.53,1.47.62,1.83,1.25.68,1.2,1.37,2.38,2.16,3.51h0A2.57,2.57,0,0,1,58.65,44.29Z"/><path class="cls-15" d="M17.52,62.42l-1.07-.52a7.28,7.28,0,0,1-2.75-5.46c1.46-.89,2.31-.15,3,1.11a12.37,12.37,0,0,0,2.75,3.55c.41.31.9.47,1.3.8l1.06.52Z"/><path class="cls-16" d="M40.48,62.44l-10.66,0c.19-1.63,2-.77,2.62-1.69a5,5,0,0,1,.86-.13c1.77,0,3.55,0,5.32,0a2.91,2.91,0,0,1,1.3.29A1.23,1.23,0,0,1,40.48,62.44Z"/><path class="cls-17" d="M57,57.09h-.55A1.22,1.22,0,0,1,56.13,56a2.28,2.28,0,0,1,.63-1,4.73,4.73,0,0,1,2.13-1.23c1.58,0,3.11.17,4,1.74v1.6c-.72.71-1.41.22-2.16,0C59.53,56.8,58.27,56.19,57,57.09Z"/><path class="cls-18" d="M48.49,62.44l-4.81,0c-.52-.35-1-.72-.4-1.39,1.15-.68,2.53-.59,3.73-1.15s2.42-.78,3,.48S49.11,61.8,48.49,62.44Z"/><path class="cls-19" d="M57,57.09c2-2.4,3.92-.28,5.88,0v1.6A21.92,21.92,0,0,0,57,57.09Z"/><path class="cls-20" d="M48.49,62.44l1.29-1.88c-2.45-.62-4.38,1.45-6.59.82-.36.16-.58,0-.67-.33,2.76-2.79,6.7-3.07,8.53-.61a1.26,1.26,0,0,1-1,1.39Z"/><path class="cls-21" d="M58.62,45.85c1.31-.77,2.4-2.43,4.24-1a5.73,5.73,0,0,0-1.56,2.81,2.67,2.67,0,0,1-1.53,1.23,1.48,1.48,0,0,1-.83-.11,1.85,1.85,0,0,1-.83-2.22A2,2,0,0,1,58.62,45.85Z"/><path class="cls-22" d="M11.66,19.18l-.53-.54c0-.18,0-.36,0-.54A2,2,0,0,1,13,17.31a5.24,5.24,0,0,0,4-1.07,1.43,1.43,0,0,1,.84.08c1.9,1.73.55,2.43-1,3.09C15.09,19.51,13.31,20.75,11.66,19.18Z"/><path class="cls-23" d="M13.25,18.12l-2.07,0,0-1.57.56-.48a3.23,3.23,0,0,1,4.31.28c.41,1,0,1.46-1,1.52C14.41,17.88,13.78,17.69,13.25,18.12Z"/><path class="cls-24" d="M62.91,49.08v1.6a2.48,2.48,0,0,1-3.38,1.16,1.94,1.94,0,0,1-.35-2.08C60.18,48.2,61.5,48.37,62.91,49.08Z"/><path class="cls-25" d="M62.91,49.08c-1,.77-2.23-.23-3.2.54a.74.74,0,0,1,0-1.07l1.07-1.07A2,2,0,0,1,62.91,47Z"/><path class="cls-26" d="M62.91,47a1.84,1.84,0,0,1-2.14.53c-.09-1.5-.05-2.91,2.09-2.67C62.88,45.52,62.89,46.24,62.91,47Z"/><path class="cls-27" d="M45.78,23.39l-1.6,1.13a.81.81,0,0,1-.66.22,1.57,1.57,0,0,1-1.14-1.32c.1-.81,1-.9,1.33-1.56l.51,0c.52-.24,1-.9,1.64-.36.45.4.28,1,0,1.44Z"/><path class="cls-28" d="M59.71,51.75l3.2-1.07v2.14c-1.07.81-2.61.24-3.63,1.21a1.08,1.08,0,0,1-.73,0,1.33,1.33,0,0,1-.3-.7A1.51,1.51,0,0,1,59.71,51.75Z"/><path class="cls-29" d="M59.16,53.88c.85-1.78,2.25-1.57,3.75-1.06v1.07C61.66,54.77,60.41,54.37,59.16,53.88Z"/><path class="cls-30" d="M59.16,53.88h3.75v1.6l-4.27-1.07a.4.4,0,0,1,0-.53Z"/><path class="cls-31" d="M32.48,61.35c-.69.86-2,.24-2.66,1h-.54c0-1.41,1.42-1.39,2.13-2.09C32.49,59.92,32.89,60.21,32.48,61.35Z"/><path class="cls-32" d="M45.81,22.92c.16-1.38-.7-1.25-1.59-1.08.79-.6,1.15-2.33,2.68-1A3.23,3.23,0,0,1,45.81,22.92Z"/><path class="cls-33" d="M42.6,61.35l.59,0c.16.35.33.7.49,1l-3.2,0L40,61.38A1.66,1.66,0,0,1,42.6,61.35Z"/><path class="cls-34" d="M50,61.83l.61-1c.27-.37.48-.81,1-.81s.78.44,1.07.8l-.57,1.08C51.45,62.27,50.71,62.68,50,61.83Z"/><path class="cls-35" d="M17,24.53c-1.85,1.1-3.89.23-5.82.59v-.64Z"/><path class="cls-36" d="M58.62,45.85a4.34,4.34,0,0,0,0,.51c-.33.62-.71,1.1-1.51.78a1,1,0,0,1-.34-.66c.08-.42.26-.7.76-.62l1.1-1Z"/><path class="cls-9" d="M49.51,24.63l-2.08-.18c.64-.5,1.23-1.2,2.14-.48Z"/><path class="cls-36" d="M58.65,44.29l-.55-2.15a2,2,0,0,1,1.06,2.13Z"/><path class="cls-37" d="M43.71,21.86c-.05.76-.71,1.07-1.11,1.58a1.59,1.59,0,0,1-1.49,1.29c-3.39.32-5.62-1.48-7.44-4a4.73,4.73,0,0,0-.85-.64c-.79-.23-1,.29-1.23.88s-.53,1.28-1.44.94c-.88-.91.16-2.35-.88-3.22-.46-.11-1.08-.06-1.05-.73,0-.13.68-.23,1.05-.34.38-.52.39-1.28,1.07-1.6v-.54c3.38,1.6,6.3,3.93,9.42,6C41,22.23,42.27,22.69,43.71,21.86Z"/><path class="cls-38" d="M11.65,38.41c0-.36,0-.72,0-1.07A2.4,2.4,0,0,1,14.35,39c2.25,4.81,5,9.34,7.22,14.21,1.33,3,3.55,5.52,4.49,8.71h-1.6c-2.32-1.5-2.74-4.23-4-6.4A124.63,124.63,0,0,1,11.65,38.41Z"/><path class="cls-39" d="M14.85,36.81l-1.07,0c-.11-.79.44-1.08,1-1.27,2.55-.76,5.1-1.1,7.62.14a4.66,4.66,0,0,1,1,2.53c-.23,2-2.52,2.43-3.13,4.15a1,1,0,0,1-1.14-.2h0c-.29-.19-.76-.43-.71-.71C19.05,38.45,17,37.58,14.85,36.81Z"/><path class="cls-40" d="M14.85,36.81c.6-.06,1.21-.12,1.82-.16a2.38,2.38,0,0,1,2.55,3.46,2.31,2.31,0,0,0-.1,2C16.55,41.27,16.74,38.21,14.85,36.81Z"/><path class="cls-41" d="M22.32,36.27a11.2,11.2,0,0,0-8.54.52l-2.09,0a4.53,4.53,0,0,1,0-.52,3.88,3.88,0,0,1,3.58-1.81c2.66.1,5.23-.53,7.84-.85,1.17-.15,2.34-.4,2.63,1.26A3,3,0,0,1,22.32,36.27Z"/><path class="cls-42" d="M23.42,48.55a1.91,1.91,0,0,1-1.85-1.82c-.1-1.15,1.2-.65,1.69-1.16.24-.24.46-.5.68-.75a1.16,1.16,0,0,1,.67-.43,1.74,1.74,0,0,1,1.87,1.28,1.87,1.87,0,0,1,0,1.17,1.79,1.79,0,0,1-.45.6,10.1,10.1,0,0,0-1.55.93A1.58,1.58,0,0,1,23.42,48.55Z"/><path class="cls-43" d="M23.41,52.25a1.85,1.85,0,0,1,1-1.57,5.26,5.26,0,0,1,1.18-.24c.87,0,1.73-.27,2.59-.19a2.38,2.38,0,0,1,1.77,4,1.82,1.82,0,0,1-.77,0,3.78,3.78,0,0,0-2.9-.71A2.51,2.51,0,0,1,23.41,52.25Z"/><path class="cls-44" d="M27.16,57.18,25,53.89c1.41-1.15,2.83-2.36,4.25,0h0a.86.86,0,0,1,.23.65,6.24,6.24,0,0,1-2,2.52Z"/><path class="cls-45" d="M25,51.2l-.61-.52-.87-1.13c.64-.58,1.05-1.41,1.93-1.72.52-.12,1-.39,1.51-.53a2.8,2.8,0,0,1,2.42.45,1.52,1.52,0,0,1,.32,1.54C28.29,50.36,26.58,50.64,25,51.2Z"/><path class="cls-46" d="M24.47,44.78l-.53,0H22.88a3.22,3.22,0,0,1-2.65,0l0-1.11.23-.3c1.74-.6,3.31-1.72,5.24-1.77A1.65,1.65,0,0,1,27,43a1.63,1.63,0,0,1-.15.75,1.46,1.46,0,0,1-.9.52c-.36.06-.76-.14-1.09.15A1.71,1.71,0,0,1,24.47,44.78Z"/><path class="cls-47" d="M29.26,53.89c-1.42-1.64-2.84-.53-4.25,0-.72-.37-1.53-.64-1.6-1.64a2.65,2.65,0,0,0,2.88.34C27.54,52,28.9,52,29.26,53.89Z"/><path class="cls-48" d="M30.34,60.29c-.71.08-1.43.44-2.14,0A1.78,1.78,0,0,1,28,58.76a1.5,1.5,0,0,1,.95-.68,3.6,3.6,0,0,1,2.28.3,1,1,0,0,1,.44,1.31C31.32,60.15,30.68,59.9,30.34,60.29Z"/><path class="cls-49" d="M25.53,48.55c-.57.54-1.09,1.2-2,1,0-.33-.06-.67-.08-1,.15-.19.31-.37.47-.56C24.6,47.68,25.34,47.3,25.53,48.55Z"/><path class="cls-50" d="M28.19,58.71c0,.52,0,1,0,1.57a3.34,3.34,0,0,1-1-3.1l0-.09C28.36,57.05,28.74,57.58,28.19,58.71Z"/><path class="cls-51" d="M30.34,60.29l1.06-.55c.31-.48.64-.92,1.31-.78a1.29,1.29,0,0,1,.85,1.31A1.89,1.89,0,0,1,33,61.36h-.52a1.11,1.11,0,0,0-1.07-1.05Z"/><path class="cls-52" d="M20.23,44.85l2.65,0A1.85,1.85,0,0,1,20.23,44.85Z"/><path class="cls-46" d="M19.13,42.14h1a1,1,0,0,1,.44.57,1.19,1.19,0,0,1-.34,1l0,0A1.76,1.76,0,0,1,19.13,42.14Z"/><path class="cls-53" d="M11.65,38.41A3.24,3.24,0,0,1,13,40q5.73,11,11.47,21.88c-1.56.16-2.1-1-2.66-2.1-2.69-5.44-6.09-10.49-8.56-16-.32-.72-.65-1.47-1.59-1.6Z"/><path class="cls-54" d="M20.72,61.9h-1.6c-2.74-4.5-6.38-8.5-7.47-13.89V45.35c3.43,4.38,5.51,9.52,8.07,14.39C20.09,60.44,20.39,61.18,20.72,61.9Z"/><path class="cls-55" d="M17,18.65c1-.52,1.56-1.12.53-2.14,2.69-1,5,.45,7.48,1.07a1.86,1.86,0,0,1,1.6,1.06c.48,2.65-2,2.1-3.17,2.88a40,40,0,0,1-4.38,0,2.4,2.4,0,0,1-.78-.22C17.31,20.69,17.24,19.62,17,18.65Z"/><path class="cls-56" d="M11.68,13.33c4.14-1.26,8-.26,11.72,1.58,0,.12-.09.24-.13.36a8.63,8.63,0,0,1-1.19,1.5,1.75,1.75,0,0,1-.73.24C17.9,16.38,14.39,15.9,11.68,13.33Z"/><path class="cls-57" d="M11.68,13.33c1.76.37,3.6-.09,4.94,2.13.62,1,3.38.74,5.17,1.05a2.71,2.71,0,0,1,2.67.54l.54.53c-2.6.35-5-.43-7.48-1.07H17a.72.72,0,0,1-1.06,0l-4.21-.47Z"/><path class="cls-58" d="M23.4,20.79c.81-1.1,2.69-.6,3.2-2.15.9.53,2.32.54,2.13,2.14a2,2,0,0,1-1.33,1.74c-1,.22-1.83.82-2.88.66-.48-.2-.71-.68-1.07-1A1.16,1.16,0,0,1,23.4,20.79Z"/><path class="cls-59" d="M27.14,21.89l1.59-1.11c.67-.58.51-1.38.54-2.13,1.73.61.84,2.08,1.05,3.19a1.9,1.9,0,0,1-.8,1.17,2.38,2.38,0,0,1-1,.46,2.25,2.25,0,0,1-.78,0C27,23.08,26.56,22.67,27.14,21.89Z"/><path class="cls-60" d="M30.34,16c0,.77-.12,1.46-1.07,1.6-.34-.53-1.31-.89-.78-1.68S29.72,15.76,30.34,16Z"/><path class="cls-56" d="M24.46,17.05c-.91-.06-1.89.22-2.67-.54h0a14.92,14.92,0,0,0,1.59-1.59h0Z"/><path class="cls-61" d="M52.75,60.83l-1.08-.57a1,1,0,0,1-.24-.68,7.83,7.83,0,0,1,.78-1.69,10.81,10.81,0,0,1,1.32-1.3,2.69,2.69,0,0,1,.67-.3C55,56,55.65,55.2,56.52,56c0,.35,0,.7,0,1a5.85,5.85,0,0,0-2.1,2.15Z"/><path class="cls-62" d="M11.65,48c1.46,1.17,2,3,2.6,4.54,1.29,3.31,3.95,5.87,4.87,9.35C17.43,61.11,16.84,59.39,16,58a2.27,2.27,0,0,0-2.21-1.4c-1.51-.54-1.21-2.28-2.14-3.21Z"/><path class="cls-63" d="M11.65,53.35a3.25,3.25,0,0,1,2.14,3.21,16.92,16.92,0,0,1,2.66,5.34c-.71,0-1.53,0-1.85-.72C13.46,58.63,11,56.56,11.65,53.35Z"/><path class="cls-36" d="M58.1,42.14c-2-1-2.11-3.5-3.77-4.78-.85.24-1.24-.38-1.69-.89-.45-.77-.7-1.54,0-2.3C55.81,35.92,56.7,39.2,58.1,42.14Z"/><path class="cls-64" d="M50.12,29.29c1.31,1.16,2.28,2.48,2.09,4.36a.92.92,0,0,1-.72.14,2.11,2.11,0,0,1-1.1-1,4.29,4.29,0,0,1-.75-2.9A1.19,1.19,0,0,1,50.12,29.29Z"/><path class="cls-65" d="M50.12,29.29l0,.61c-1.5,0-1-1.5-1.55-2.19a2.57,2.57,0,0,1,1-2.78C48.77,26.52,50,27.82,50.12,29.29Z"/><path class="cls-66" d="M51.72,33.54l.49.11c.15.17.3.35.46.52a3.42,3.42,0,0,0,.68,2.09c.11.58-.26.74-.73.81a2,2,0,0,1-1.55-1.47A1.85,1.85,0,0,1,51.72,33.54Z"/><path class="cls-67" d="M40.61,29.84a3.43,3.43,0,0,1,2,3.23.44.44,0,0,1,.12.42c-.05.14-.1.21-.14.21-1,0-1.8,0-1.15,1.47.53,1.15,1.5,2.28.81,3.73A1.25,1.25,0,0,1,40.8,39a4,4,0,0,1-.9-.78,8,8,0,0,1-1.16-2.48c-.28-1.24-1-2.48-.06-3.74.46-.58.88-1.18,1.29-1.8A1.53,1.53,0,0,1,40.61,29.84Z"/><path class="cls-68" d="M45.31,27.7c0,1.86,1.6,2.66,2.59,3.87a.83.83,0,0,1,.15,1.08,1.62,1.62,0,0,1-1.1.45,11.93,11.93,0,0,1-2.69-.68c-.34-.26-.38-.68-.55-1a4.93,4.93,0,0,1,.45-2.65c0-.43.14-.62.57-.51Z"/><path class="cls-69" d="M42.62,33.59a4.51,4.51,0,0,1,0-.52l.54,0a2.12,2.12,0,0,1,2.06.29,1.19,1.19,0,0,1,.38.6c-1,1.58.93,3.06.17,4.64a1.29,1.29,0,0,1-.58.53C42.82,37.82,42.09,36.25,42.62,33.59Z"/><path class="cls-70" d="M39.94,29.32l.67.52-.26.05a3.14,3.14,0,0,1-2.6,1.25c-.68-.07-1.53-.15-1.55-1,0-1.13,1-1.46,1.86-1.75A2.24,2.24,0,0,1,39.94,29.32Z"/><path class="cls-71" d="M44.73,28.23l-.57.51c-1.64-1.06-.43-1.74.45-3Z"/><path class="cls-72" d="M43.65,24.5l.53,0a7.93,7.93,0,0,1-2.63,2.68L41.26,27a1.62,1.62,0,0,1-.21-1.08,2.06,2.06,0,0,1,.82-1.23A1.85,1.85,0,0,1,43.65,24.5Z"/><path class="cls-73" d="M44.77,33.63c-.8.51-1-.48-1.61-.6l.54-1.64.55.54C44.65,32.42,46.32,32.53,44.77,33.63Z"/><path class="cls-72" d="M39.94,29.32a1.8,1.8,0,0,1-1.6-.53c0-.12.06-.24.1-.36.86-.81,1.5-2.15,3.07-1.28l0,.05Z"/><path class="cls-74" d="M46.84,25.54c1.67,1-.33,2.67.76,3.76-1.67-1-1.61-2.29-.75-3.76Z"/><path class="cls-75" d="M48,32.47c0-.3-.06-.6-.1-.9L49,30.93c1.25-.21,1.08,1,1.51,1.55a1.6,1.6,0,0,1-1.31,1.86A1.45,1.45,0,0,1,48,32.47Z"/><path class="cls-76" d="M50.08,32.54,49,30.93c-.17-1.08-.33-2.15-.48-3.22l1.55,2.19c.34.89.67,1.78,1,2.67A.66.66,0,0,1,50.08,32.54Z"/><path class="cls-77" d="M23.93,21.85l.53,1A.73.73,0,0,1,23.4,23l-2.11,0a39.58,39.58,0,0,1-4.7.74,1.25,1.25,0,0,1-.86-1c.29-1.5,1.38-1.54,2.56-1.39C20.17,21.52,22.13,20.86,23.93,21.85Z"/><path class="cls-58" d="M18.06,21.85a2,2,0,0,0-2.14,1.07,4.11,4.11,0,0,1-4.25,0V21.85c.74-1.17,2.34-.39,3.14-1.4a3.27,3.27,0,0,1,1.68-.64c.71,0,1.12.53,1.57,1h.53C18.93,21.4,18.36,21.56,18.06,21.85Z"/><path class="cls-77" d="M18.06,20.78l-1.61-.53c-1.59-.24-3.34.94-4.79-.53v-.54c1.82.27,3.53-.56,5.33-.53S18.19,19.83,18.06,20.78Z"/><path class="cls-78" d="M23.4,23l1.06-.09c.85-.45,1.6-1.18,2.68-1a1.09,1.09,0,0,0,1.05,1,3.25,3.25,0,0,1,.23.29,1.22,1.22,0,0,1-.26.68,2.82,2.82,0,0,1-1.7.8,3.19,3.19,0,0,1-1.15-.1c-.65-.37-1.56-.32-1.92-1.16C23.39,23.27,23.4,23.12,23.4,23Z"/><path class="cls-79" d="M11.66,19.72c1.59.2,3.29-.49,4.79.53a1.89,1.89,0,0,1-1.6.54,2.61,2.61,0,0,1-3.18,0Z"/><path class="cls-80" d="M11.67,22.93h4.25l.53.53a1,1,0,0,1-.53.51C14.51,23.61,12.68,25,11.67,22.93Z"/><path class="cls-77" d="M11.67,20.79h3.18c.13.36,1,.87-.06,1a21.63,21.63,0,0,1-3.12,0Z"/><path class="cls-58" d="M15.92,24l.53-.51a13,13,0,0,1,4.84-.52A9.52,9.52,0,0,1,15.92,24Z"/><path class="cls-81" d="M25.48,24l1.12,0c0,1.31-1,1.18-1.79,1.31-.41,0-.82,0-1.23,0-.77-.08-1.6.27-2.32-.26l0,0a1.17,1.17,0,0,1,1.11-1A4.33,4.33,0,0,1,25.48,24Z"/><path class="cls-82" d="M25.48,24l-3.13,0,1-.55C24.12,23.49,24.9,23.32,25.48,24Z"/><path class="cls-83" d="M25.46,35.12c-.12-.59-.5-1-1.09-.89-4.15,1.1-8.58.41-12.65,2,0-.7-.05-1.4-.08-2.09a3.19,3.19,0,0,1,2.7-.8c3.27.15,6.47-.55,9.7-.9s6.37-1.29,9.55-1.93a1.41,1.41,0,0,1,.68.41c.53.82-.39,2.06.78,2.7a1.34,1.34,0,0,1,.3.65,1.4,1.4,0,0,1-.47.95,4.43,4.43,0,0,0-1.46,1.46,1.08,1.08,0,0,1-1,.26,1.74,1.74,0,0,1-.66-.81,3.48,3.48,0,0,0-.21-.62c-.36-.54-.82-.45-1.3-.17a2.09,2.09,0,0,1-1,.21,2.52,2.52,0,0,0-2.57.09,1.45,1.45,0,0,1-1-.22Z"/><path class="cls-84" d="M11.68,28.27c-.54-2.78,1.21-2.82,3.15-2.62.35.86,1.08.73,1.78.69a1.09,1.09,0,0,1,.6.39,2.73,2.73,0,0,0,2.25,3.37c.67.16,1.41.27,1.38,1.24C17.77,33.34,14.09,32.11,11.68,28.27Z"/><path class="cls-85" d="M17.53,25.63l3.68-.08.35,0c.7.08,1.37.31,2.08.36a2.78,2.78,0,0,1,.69.22c1.5,1,3,2.05,5,1.24a9.2,9.2,0,0,1,1.17.08,2,2,0,0,1,1.51.58,1,1,0,0,1,.09.82,1.6,1.6,0,0,1-.65.56,8.62,8.62,0,0,1-3.36.68c-3.12.14-6.21.15-8.77-2.07C18.5,27.38,17.52,26.87,17.53,25.63Z"/><path class="cls-86" d="M11.68,28.27c1.42.88,2.82,1.81,4.28,2.64a4.78,4.78,0,0,0,4.77,0,1.43,1.43,0,0,1,2.1-.15c0,2.11-1.72,1.73-3,2a11,11,0,0,0-4.33.52c-1.31.31-2.62.64-3.85-.24Z"/><path class="cls-87" d="M17.53,25.63C20.63,28.22,24,30,28.22,29.34a.66.66,0,0,1-.08.81,1.84,1.84,0,0,1-1.2.49,14.92,14.92,0,0,1-5.69,0c-2.79-.39-3.82-1.39-4.26-4h-.52c-.5-.17-.78-.46-.55-1Z"/><path class="cls-88" d="M11.67,33.06a7,7,0,0,0,3.71-.53h3.93c1.5.18,3-.59,4.49-.07a1.52,1.52,0,0,1,.67.61c-4.21,1.16-8.52,1.1-12.83,1.07Z"/><path class="cls-89" d="M15.92,25.64c.18.34.36.68.55,1-.46.74-1.08,1.36-1.94.77s.14-1.19.3-1.78Z"/><path class="cls-90" d="M23.93,26.65l-.57,0c-.52-.65-1.45-.47-2-1l-.12-.08a4.07,4.07,0,0,0,.05-.49,3.82,3.82,0,0,1,2.14-.51C24.31,25.06,24.72,25.71,23.93,26.65Z"/><path class="cls-91" d="M54.35,39,56,42.57a3.39,3.39,0,0,1,.23.47c.2.89,1.62,1.71.29,2.69-.94.71-3-.19-3.73-1.5.24-1,.8-2,0-3.09a2.25,2.25,0,0,1,.28-1.82,1.61,1.61,0,0,1,.55-.52A.63.63,0,0,1,54.35,39Z"/><path class="cls-92" d="M53.36,43.81c.57,1.08.57,1.08,3.24,1.23-.2-.84-.4-1.65-.59-2.47a3.78,3.78,0,0,1,1.51,3.29l-.53.47a4.56,4.56,0,0,1-3.1.29c-1.44-.16-2.33-.88-1.62-2.52a1.29,1.29,0,0,1,.7-.46Z"/><path class="cls-93" d="M54.35,39l-.5-.05c-1.19-.28-1.8-.85-1.07-2.1l.57-.55,1,1.1C54.33,37.89,54.34,38.42,54.35,39Z"/><path class="cls-94" d="M51.71,59.77c0,.16,0,.33,0,.49l-1,.58c-.81-1.83-2.41-1.1-3.63-.92a26.67,26.67,0,0,0-4.41,1.43l-2.64,0-1.11,0A.85.85,0,0,1,39,60.6a1.74,1.74,0,0,1,1-.55c1.63-.35,2.5-1.6,3.32-2.87a3.67,3.67,0,0,1,4-1.89,2.33,2.33,0,0,1,.75.22c1.17,1,1.83,2.52,3.52,2.83A1,1,0,0,1,51.71,59.77Z"/><path class="cls-95" d="M38.9,60.85c0,.16,0,.33,0,.49l-5.85,0V60.25a2.42,2.42,0,0,1,2-.66c1.16.53,2.55.15,3.66.9Z"/><path class="cls-96" d="M56.52,56l-2.17,1.06a2.72,2.72,0,0,1-.21-1.82,1.61,1.61,0,0,0-1-2.25c-.72-.28-1.49-.73-.64-1.7A2.46,2.46,0,0,1,53.7,51c3.42-.2,4.2.72,3.4,4.09,0,.15,0,.29-.05.44Z"/><path class="cls-96" d="M58.64,53.89a4.68,4.68,0,0,0,0,.53l-1.59,1.09,0,0c-.38-1.4,0-2.2,1.61-2.12Z"/><path class="cls-97" d="M57,47l1.58-.58c.18.72.37,1.45.56,2.18.39,2.91-.06,3.43-2.74,3-1.41-.21-2.83.11-4.23-.23a3.12,3.12,0,0,1,.06-4.23C53.83,46.52,55.41,46,57,47Z"/><path class="cls-98" d="M52.24,51.22c1.38,0,2.77-.07,4.15,0,2,.12,3-.61,2.78-2.68h.53c0,.35,0,.71,0,1.07v2.13l-1.08,1.6A2.76,2.76,0,0,0,57,55.47c-.06-.06-.17-.14-.16-.19.47-3.82-2-3.8-4.63-3.53A.41.41,0,0,1,52.24,51.22Z"/><path class="cls-99" d="M15.92,16.52H17c-.49,2.3-2.35,1.38-3.73,1.6C13.91,17.2,15.65,18.09,15.92,16.52Z"/><path class="cls-100" d="M43.65,24.5l-1.56.56a.9.9,0,0,1-1.24-.42A.63.63,0,0,1,41,24l1.59-.55Z"/><path class="cls-101" d="M57,47c-1.47-.28-2.81.5-4.25.49A3.42,3.42,0,0,0,51,47.15c-.58.38-1.15.83-1.93.55-1.66-1.15-2.15-2.87-2.35-4.75.19-2.07,1.63-2.19,3.22-2.07,1.42.14,1.89,1.36,2.61,2.28a2,2,0,0,1,.25.72c-.4,1.27-.13,2.06,1.39,2a6.08,6.08,0,0,1,2.83.45C57,46.54,57,46.75,57,47Z"/><path class="cls-102" d="M41,24l0,.5a1.5,1.5,0,0,1-1.33,1.3,6.51,6.51,0,0,0-2.91.86,2.28,2.28,0,0,1-1.16,0,47.41,47.41,0,0,1-6.3-4.22c.35-.18.7-.36,1-.55,1.1-.84-.22-4.63,3.21-2.64-.18.53-.05.75.53.53C35.89,22,37.68,24.22,41,24Z"/><path class="cls-103" d="M34.06,19.73c-.11.6-.17,1.29-1,1.18-.28,0-.72-.37-.73-.58,0-.78.75-.81,1.22-1.13Z"/><path class="cls-104" d="M20.26,42.62a1.74,1.74,0,0,0-.14-.48c-.63-2.42,2-2.41,2.81-3.72a.48.48,0,0,1,.65.09,1.38,1.38,0,0,1-.24,1.61c-.1.15-.33.27-.16.53a1,1,0,0,1,.4.69C22.7,42.36,22.17,44.29,20.26,42.62Z"/><path class="cls-105" d="M23.38,38.39l-.45,0a3.79,3.79,0,0,1-.61-2.15,4.59,4.59,0,0,1,3.14-1.15l.1.12a.8.8,0,0,1,0,.66C25,36.55,24.13,37,23.91,38A1.31,1.31,0,0,1,23.38,38.39Z"/><path class="cls-106" d="M29.2,48.05l-2.58,0c-.81.12-1.19-.19-1-1a4,4,0,0,0,.49-.15,5.8,5.8,0,0,0,.75-.89,2.19,2.19,0,0,1,.48-.37c.25-.2.49-.4.73-.62a1.69,1.69,0,0,1,1.65-.48,5.1,5.1,0,0,1,1.88,4.93,1,1,0,0,1-.65.44C29.57,50,29.8,48.65,29.2,48.05Z"/><path class="cls-107" d="M27.13,46.4c-.19.52-.6.54-1.05.49l0-1c-.43-.72-.19-1.14.6-1.31C27.68,45,27.63,45.63,27.13,46.4Z"/><path class="cls-108" d="M25.59,47l1,1-1.09.48A2,2,0,0,0,23.89,48,1.72,1.72,0,0,1,25.59,47Z"/><path class="cls-109" d="M26.55,44.82l-.5,1.09c-.48-.43-.84-1-1.58-1.13l0-.48a1.31,1.31,0,0,1,1.13-.58l.93.05a.71.71,0,0,1,.38.51A.66.66,0,0,1,26.55,44.82Z"/><path class="cls-110" d="M25,51.2c1.45-.49,2.18-2.9,4.29-1.59C30.62,49.86,31,51,31.45,52a2.76,2.76,0,0,1,.15.8,2,2,0,0,1-.75,1.87,1.31,1.31,0,0,1-1.58-.25c0-.19,0-.38,0-.56,1-.2.94-.83.54-1.53s-.75-1.39-1.73-1.32S26,51.15,25,51.2Z"/><path class="cls-111" d="M29.27,54.46l1.55-.12a.47.47,0,0,1,.31.36c.18.24.46.22.73.28a2.49,2.49,0,0,1,1.51.93,2.1,2.1,0,0,1,.28,1.53,1.71,1.71,0,0,1-.38.7l-.33.21a1.29,1.29,0,0,1-.75-.09c-1.2-1.59-2-.24-3,.37l-1,.08a1.59,1.59,0,0,0-1.06-1.62C27,55.51,28.29,55.11,29.27,54.46Z"/><path class="cls-112" d="M30.84,52.32c-.52-.9-1-1.81-1.57-2.71,0-.52-.05-1-.07-1.56l1.68,1.56A1.73,1.73,0,0,1,30.84,52.32Z"/><path class="cls-113" d="M20.26,42.62c1.63.67,2-1.31,3.17-1.52a1.27,1.27,0,0,1,1.14-.86,1.35,1.35,0,0,1,1.29,1.2,1.12,1.12,0,0,1-.28.67c-1.8.49-3.18,2.41-5.36,1.61C20.23,43.35,20.25,43,20.26,42.62Z"/><path class="cls-106" d="M25.58,42.11l.08-.56c.42-.76.69-1.67,1.8-1.71,1,.45,1.19,1.4,1.35,2.36a1.45,1.45,0,0,1-.94,1.33,1.2,1.2,0,0,1-1.18-.35Z"/><path class="cls-114" d="M26.69,43.18l.94.06c1.41.61,1,1.62.59,2.63l-.68.43c-.21-.73-.07-1.61-.89-2.07,0-.16-.09-.31-.15-.46S26.62,43.37,26.69,43.18Z"/><path class="cls-115" d="M25.57,43.72l-1.13.58-.5-.44C24.45,43.41,25,43.17,25.57,43.72Z"/><path class="cls-116" d="M29.22,58.63c0-1.07.35-1.91,1.6-2a1.36,1.36,0,0,1,1.7,1.48c-.33.76-1.12.33-1.63.63C30.3,59.41,29.77,58.83,29.22,58.63Z"/><path class="cls-117" d="M30.89,58.71c.39-.61,1-.58,1.63-.63l0,.06a.76.76,0,0,1,0,1.09l-1.09.51Z"/><path class="cls-118" d="M32.49,59.23V58.14l.47.1a3.66,3.66,0,0,1,2,.49,1.66,1.66,0,0,1,.86,1.07c0,.39-.14.67-.62.56L33,60.25Z"/><path class="cls-119" d="M18.06,21.85l.53-1.06H23.4l.53,1.06Z"/><path class="cls-120" d="M23.39,14.92c.06,1.12-.48,1.64-1.59,1.59A1.59,1.59,0,0,1,23.39,14.92Z"/><path class="cls-121" d="M30.34,28.25H29.27c-1.82-1-4.53-.75-4.8-3.71.74-.06,1.54.09,2.13-.56l1.57-.55.17.15-.16-.16c0-.17,0-.34,0-.51l.52,0c1.13-.34,2.24-.65,2.69.93-.78,1.58-.12,2.65,1.22,3.5C32.26,28.63,30.93,27.54,30.34,28.25Z"/><path class="cls-72" d="M30.87,24.52c.07-1.59-1-1.63-2.16-1.62l.57-.51c2.87,0,4.49,2.1,6.41,3.73a1.91,1.91,0,0,1-.94,1.21,1.69,1.69,0,0,1-1.9,0C32.22,26.4,29.86,26.63,30.87,24.52Z"/><path class="cls-122" d="M54.9,55.49l-.54,1.6h-.53c-1.11-.94-2.06-2.11-3.77-2a1.39,1.39,0,0,1-1.37-1,1.9,1.9,0,0,1,.38-1.59c.63-.58,1.25-1.2,2.23-.83a3,3,0,0,0,1.9,1.24C54.51,53.13,55.44,53.9,54.9,55.49Z"/><path class="cls-123" d="M49,53.89a2.46,2.46,0,0,0,2,.53c1.8,0,2.82.79,2.84,2.67-.36.35-.72.71-1.07,1.07-1.5-1-2.69-2.59-4.79-2.36a1.7,1.7,0,0,1-.69-.26,1.29,1.29,0,0,1-.09-.75C47.58,54.05,48.07,53.49,49,53.89Z"/><path class="cls-124" d="M47.42,55.5a1.72,1.72,0,0,0,.51,0c2.7-1.06,4.14.13,4.83,2.68a1.83,1.83,0,0,1-1,1.61c-.19-.36-.37-.72-.55-1.08C50,57.91,49.22,56.67,48,56h-.53c-.13-.12-.18-.23-.14-.35S47.37,55.5,47.42,55.5Z"/><path class="cls-125" d="M50.08,32.54l1,0,.65,1c0,.73,0,1.46,0,2.19.07,1.08-.67,1-1.37,1-.75-.22-1-.9-1.29-1.48a.86.86,0,0,1,.09-1.07Z"/><path class="cls-126" d="M50.09,36.27a1.89,1.89,0,0,0,1.61-.54l1.08,1.08c0,.9.72,1.4,1.06,2.1,0,.18,0,.36,0,.54a1.38,1.38,0,0,1-1.85,0C51.44,38.32,49.69,37.94,50.09,36.27Z"/><path class="cls-64" d="M47.42,43.21c.91,1.32.94,3.09,2.14,4.27,2.43,2.07,2.35,2.78-.57,5.11a1.4,1.4,0,0,1-1.69-1c.15-2.54-1.78-4.24-2.6-6.39a10.62,10.62,0,0,0-2.08-3.46c-.16-1-1.13-1.74-.54-2.83-.6-1.27-1.2-2.52-1.79-3.79-.47-1-.64-2.23.35-2.9,1.38-.93,1.14,1.11,2,1.34.79,1.83,1.28,3.81,2.67,5.34C47.34,39.69,46.5,41.89,47.42,43.21Z"/><path class="cls-127" d="M39.54,35.62l.92,2.28a4.06,4.06,0,0,1,.73,3,1.83,1.83,0,0,1-1,1.38,1.22,1.22,0,0,1-1.45-.63c-.45-.82-1.14-1.53-1.1-2.56A1.81,1.81,0,0,1,38,38c1.52-.09.29-1.54,1-2A.91.91,0,0,1,39.54,35.62Z"/><path class="cls-128" d="M37.86,30.43l2.49-.54a1.87,1.87,0,0,1-.76,2.16,2.41,2.41,0,0,1-.64-.12c-.51-.22-1.06-.36-1.32-.94A.48.48,0,0,1,37.86,30.43Z"/><path class="cls-127" d="M39.59,32.05c-1.28,1.17-.2,2.38-.05,3.57l-.22.2a1,1,0,0,1-1.26-.11A2.52,2.52,0,0,1,37.57,34c.14-1,0-2.38,1.72-2.08Z"/><path class="cls-129" d="M42.08,38.94c.51.83,1.21,1.58,1.1,2.66l-.33.16c-1.06,0-1.47-.8-1.8-1.64-.07-.57-.58-1.13,0-1.72Z"/><path class="cls-130" d="M41,38.4l.54,1.6a1.54,1.54,0,0,1,.17,1.52c-.63.46-1,.07-1.24-.45,0-1.06,0-2.11,0-3.17Z"/><path class="cls-131" d="M49.13,34.13l.39.55c.2,1,0,1.67-1.06,1.93a2,2,0,0,1-1.83-1.51,11.72,11.72,0,0,1-.73-1.71c-.39-1,.1-1.28,1-.93H48Z"/><path class="cls-132" d="M46.94,32.46c-1.11,1,.93,1.36.45,2.23a.94.94,0,0,1-.7.2c-.69-.17-.92-.84-1.39-1.25h-.53c.45-.76-.21-1.18-.52-1.7C45.15,32.07,46.15,31.77,46.94,32.46Z"/><path class="cls-133" d="M47.42,43.21c-1.41-1.08-1.57-2.78-2.13-4.28v-.55c.51-.46,0-1.2.47-1.68a1,1,0,0,1,.7,0c.82.58.68,1.76,1.47,2.36.13.19.26.39.37.59.57.86,1.84.46,2.4,1.34a.62.62,0,0,1-.13.66C49.36,41.84,47.55,40.86,47.42,43.21Z"/><path class="cls-134" d="M45.82,36.8a1.89,1.89,0,0,1-.53,1.58c-.07-.43,0-1-.24-1.27-1.25-1.29-.76-2.39.25-3.47a1.67,1.67,0,0,1,1.6,1C47.62,35.91,47,36.48,45.82,36.8Z"/><path class="cls-135" d="M37.86,30.43c0,.16,0,.33,0,.49a1.44,1.44,0,0,1-.35,1c-1.11.41-.75,2.3-2.3,2.28l-.09-.13c-.88-.66-.67-1.74-1-2.61v-.54A1.63,1.63,0,0,1,34.28,29c1.21-.8,2.32-1.8,3.89-1.85a1.43,1.43,0,0,1,.7.36c.38.65-.09.94-.53,1.25h0c-.53.44-1.38.58-1.41,1.46A5.29,5.29,0,0,0,37.86,30.43Z"/><path class="cls-70" d="M38.34,28.79l.55-1.05c-.08-1.4.72-1.93,2-2a1.33,1.33,0,0,1,.69.39c0,.35,0,.7,0,1C40.22,27.25,39.67,28.76,38.34,28.79Z"/><path class="cls-136" d="M41.55,26.11H41c-.53-.24-1.22.17-1.67-.41a.51.51,0,0,1,.12-.63L41,24.49l1.11.57Z"/><path class="cls-137" d="M24.47,24.55c1.29,1.64,3.66,1.88,4.8,3.71-2.23.94-3.95.22-5.34-1.61l-.53-2.1Z"/><path class="cls-138" d="M38.38,37.85,38.33,39c-.83.45-1.41-.28-2.12-.42-1.21-.37-2.61-.11-3.67-1a.71.71,0,0,1,0-.74l.48-.51c.59-.5.9-1.36,1.85-1.35a2.21,2.21,0,0,1,2.66.36C37.79,36.13,38.78,36.75,38.38,37.85Z"/><path class="cls-128" d="M34.66,29.35c-.2.53-.39,1-.59,1.57a26,26,0,0,1-9.6,2.15h-.55c.19-1.75,1.88-1.2,2.79-1.84,2.1-.5,4.29-.68,6.19-1.84A2.46,2.46,0,0,1,34,29,1.09,1.09,0,0,1,34.66,29.35Z"/><path class="cls-139" d="M37.21,35.85a3.42,3.42,0,0,0-2.59-.6c-.31-.18-.32-.37,0-.56l.57-.5c.89-.77,0-2.89,2.09-2.75a1,1,0,0,1,.3.65c-.53,1.09.25,2.13.12,3.2A1.13,1.13,0,0,1,37.21,35.85Z"/><path class="cls-70" d="M34.07,31.46c1.49.42,1,1.63,1,2.61C32.87,33.92,33.41,32.71,34.07,31.46Z"/><path class="cls-140" d="M32.51,36.77l0,.56c0,.13,0,.25-.08.37a1.38,1.38,0,0,1-.57.5,1.67,1.67,0,0,1-.77,0A1.87,1.87,0,0,1,30,35.87a1.29,1.29,0,0,1,.56-.57,1.4,1.4,0,0,1,1.8.52Z"/><path class="cls-141" d="M29.33,35.2l.5-.52a.87.87,0,0,1,1-.15c.38.64-.14.91-.5,1.25v0c-.45.49-.6,1.18-1.09,1.65s-.56,1.08-1.26,1.17c-1-.28-1.05-1-1-1.86a2.3,2.3,0,0,1,.27-.76C27.81,35.29,28.4,34.78,29.33,35.2Z"/><path class="cls-142" d="M29.33,35.2l-1.64,1.09a1.32,1.32,0,0,1-1.16-1.14C27.48,34,28.42,33.87,29.33,35.2Z"/><path class="cls-135" d="M30.85,34.69h-1c1.14-1.06,2.16-1.57,2.62.55A1.52,1.52,0,0,1,30.85,34.69Z"/><path class="cls-143" d="M34.6,34.69l0,.56c-.55.32-.89,1-1.63,1C33.06,35.26,33.53,34.66,34.6,34.69Z"/><path class="cls-144" d="M30.85,34.69l1.6.54c0,.2-.07.4-.1.59l-2,0Z"/><path class="cls-145" d="M26.53,35.15a1.29,1.29,0,0,1,1.16,1.14l0,0a1.78,1.78,0,0,1-.62.3,2.3,2.3,0,0,1-1.32-.4,1,1,0,0,1-.33-.6c0-.13.07-.26.11-.39Z"/><path class="cls-146" d="M17,26.66c1.87,3.12,4.07,4.07,7.78,3.39a23.38,23.38,0,0,1,2.38-.18c-.18,1.67-1.55,1.56-2.69,1.8a2,2,0,0,1-1.6-.73H20.73a8.5,8.5,0,0,1-1.84-.21C16.34,29.92,15.88,28.87,17,26.66Z"/><path class="cls-147" d="M34.66,29.35l-.58,0c-.83.21-1.64.34-2.17-.57,0-.16,0-.33,0-.49,1.34-.74,2.81-1.16,4.19-1.8a6.49,6.49,0,0,1,1.16-.17c.67.23,1.27.51,1,1.4C37,27.93,36.09,29.27,34.66,29.35Z"/><path class="cls-148" d="M31.91,28.76l2.17.57-.54.54c-1.55.16-2.69,1.59-4.4,1.34-1.5-.23-1.22-.69-.27-1.35A16.5,16.5,0,0,0,31.4,28.8Z"/><path class="cls-137" d="M36.24,26.68A7.67,7.67,0,0,1,32,28.27l-1.61,0,2.13-1.05c.18-.25.35-.25.54,0l1.6-.53A1.28,1.28,0,0,1,36.24,26.68Z"/><path class="cls-128" d="M31.4,28.8a2.07,2.07,0,0,1-2.13,1.07.72.72,0,0,1-1.07,0c0-.17,0-.34,0-.51Z"/><path class="cls-149" d="M21.33,25.63c.84,0,1.81-.25,2,1A1.85,1.85,0,0,1,21.33,25.63Z"/><path class="cls-150" d="M22.86,30.94h1.6c.64,1,2.14-.16,2.68,1.08-.88.94-2.34.09-3.22,1.05h-4.8c-.34-.61.23-.77.54-1.06A5.5,5.5,0,0,0,22.86,30.94Z"/><path class="cls-151" d="M19.66,32l-.54,1.06c-1.25-.14-2.59.39-3.74-.53C16.71,31.56,18.23,32.18,19.66,32Z"/><path class="cls-152" d="M27.14,32a17.45,17.45,0,0,1-2.61,0c-1.09-.18-.19-.67-.07-1a6,6,0,0,0,2.69-1.06l1.05,0,1.07,0c-.87.94-.38,1.16.57,1,1.27-.2,2.28-1.34,3.7-1C31.7,31.46,29.31,31.4,27.14,32Z"/><path class="cls-45" d="M52.24,38.91l1.59.54-.51,1.62L53,41.3a1.24,1.24,0,0,1-.74,0,1.54,1.54,0,0,1-.83-1.61A1.11,1.11,0,0,1,52.24,38.91Z"/><path class="cls-92" d="M53.32,41.07c1.09.9,1.65,1.8,0,2.74l-.07-.07a2.09,2.09,0,0,1-.11-2.55Z"/><path class="cls-153" d="M53.18,41.19c.22.84.84,1.67.11,2.55l-.52.14a.81.81,0,0,0,0-.31,1.49,1.49,0,0,1,0-2.38A2.06,2.06,0,0,1,53.18,41.19Z"/><path class="cls-154" d="M47.42,55.5V56c-1.72-.28-2.79.51-3.66,1.95S42,60.85,40,60.82c-.14-.24-.22-.57,0-.73a8.35,8.35,0,0,0,3-6.55,2.57,2.57,0,0,1,2.59-.89,1.92,1.92,0,0,1,.73.32,1.37,1.37,0,0,1,.39.64,2.19,2.19,0,0,0,.78,1.88Z"/><path class="cls-95" d="M43.15,53.89c1.25,3.38-1,5.16-3.2,6.93l-1.05,0,0,0a1,1,0,0,1,.33-1.42c1.68-.94,2.1-2.52,2.38-4.21.14-.33.27-.66.43-1a1.47,1.47,0,0,1,.5-.46A.73.73,0,0,1,43.15,53.89Z"/><path class="cls-155" d="M48,56c2-.2,2.77,1,3.21,2.66C49.26,58.81,48.62,57.4,48,56Z"/><path class="cls-156" d="M42.61,55c-.21,2.62-1.73,4.4-3.74,5.87-1.23-.13-2.54.36-3.68-.46l.45-.63c0-.12,0-.24.08-.36.77-1.17,2.39-1.22,3.13-2.42.56-1-.54-1.86-.33-2.85-.11-1.38-.5-3,1.76-2.88,1.08.61,2.31,1.09,2.41,2.61l-.1.07c-.42.54-1.37.5-1.49,1.44C41.55,54.88,42,54.35,42.61,55Z"/><path class="cls-61" d="M54.9,55.49a2.28,2.28,0,0,0-2.22-2.11c-1.06-.07-1.55-.58-1.52-1.62.45-2-1.14-3.85-.54-5.88,1.63-.74,1.38,1.12,2.16,1.57-.94,1.14-.42,2.5-.54,3.77,0,.17,0,.35,0,.53C53.5,52.73,56.47,52.49,54.9,55.49Z"/><path class="cls-157" d="M50.62,45.88c.54,1.93,1.83,3.78.54,5.88l-1.57,1.11a.64.64,0,0,1-.57-.59c1.71-1.43,1.64-3.05.54-4.8Z"/><path class="cls-158" d="M52.75,41.19c0,.8,0,1.59,0,2.38-1.51.23-1.61-1.13-2.2-2a4.55,4.55,0,0,0,0-.52c-.58-.82-.6-1.5.46-1.93a1.09,1.09,0,0,1,.76.23Z"/><path class="cls-72" d="M39.42,25.06a4.36,4.36,0,0,0,0,.51c-.29,1.08-1,1.17-2,.9a1.25,1.25,0,0,1-.72-.37C37.33,25,38.37,25,39.42,25.06Z"/><path class="cls-159" d="M36.71,26.1l.62,0a.42.42,0,0,1,0,.57l-1.07,0-1.63,0,1.08-.54Z"/><path class="cls-160" d="M24.46,40.54l-1,.56L22.28,41c-.22-.57.27-.74.58-1,.17-.54.35-1.08.52-1.62l.09-.57a.65.65,0,0,1,.74.1A2.3,2.3,0,0,1,24.46,40.54Z"/><path class="cls-145" d="M22.86,40l-.58,1c-.38-.06-1.08.15-1-.41C21.45,39.87,22.29,40.12,22.86,40Z"/><path class="cls-145" d="M23.88,37.9l-.41-.08c-.66-1.92.79-1.94,2-2.19l.15.21C25.63,37,24.79,37.5,23.88,37.9Z"/><path class="cls-161" d="M31.37,49.63c-.83-1.56-.78-3.49-2.06-4.85a1.57,1.57,0,0,1-.58-1.05,2.11,2.11,0,0,1,.35-1.56c.8-.46,1.24.13,1.73.6a17.08,17.08,0,0,1,1.33,2.8c.08.24.16.48.25.72.88,2.39,2,4.7,3,7.05.23,1.48,1.69,3,0,4.45-1.46-.06-1.35-1.46-2-2.26a2.47,2.47,0,0,1-.69-1.36c-.32-1.43-1.14-2.7-1.31-4.18Z"/><path class="cls-162" d="M29.27,43.74c0,.35,0,.7,0,1l-1.09,1.09a4.27,4.27,0,0,0-.59-2.63c.2-.37.39-.75.58-1.12C29.59,42,28.61,43.4,29.27,43.74Z"/><path class="cls-163" d="M30.84,52.32c0-.9,0-1.8,0-2.71l.49,0,0,0c0,.94,2.2,2.36-.58,2.71Z"/><path class="cls-164" d="M26.65,44.23c1.16.31,1,1.2.89,2.07a1.45,1.45,0,0,1-.41.1c-.1-.56,0-1.18-.58-1.58C26.58,44.62,26.61,44.42,26.65,44.23Z"/><path class="cls-112" d="M30.83,52.32c1.78-.57.21-1.84.58-2.71,1.39,1.1,1.58,2.78,2.11,4.3-1,0-1.39.8-2.07,1.21a.55.55,0,0,1-.62-.21c0-.19,0-.38,0-.57C30.82,53.66,30.83,53,30.83,52.32Z"/><path class="cls-165" d="M31.38,54.94c.45-.9.57-2.47,2.14-1L34,55c.4.57,0,.9-.37,1.23a.81.81,0,0,1-.71-.13L31.4,55.5C31.05,55.32,31.05,55.14,31.38,54.94Z"/><path class="cls-166" d="M32.89,56.09l.67-.06c.84.26.81,1.17,1.29,1.7a1,1,0,0,1-.14,1c-1,.26-1.24-.61-1.68-1.17Z"/><path class="cls-167" d="M33,57.6l1.5,1.06a.52.52,0,0,1,.21.63c-1.18.64-1.27-.56-1.78-1C33,58,33,57.81,33,57.6Z"/><path class="cls-168" d="M31.38,54.94l0,.56c-.59-.07-1.42.69-1.68,0s.68-.48,1.11-.64Z"/><path class="cls-169" d="M23.88,37.9c.06-1.11,1-1.52,1.72-2.06a1.49,1.49,0,0,1,1.56.46,1.88,1.88,0,0,1-.29,1.56c-.61.35,0,.4.17.56.43.5.61,1,.12,1.57,0,1-.34,1.68-1.5,1.56l-1.2-1A5.37,5.37,0,0,1,23.88,37.9Z"/><path class="cls-114" d="M27.16,40l-.71-1.62a.35.35,0,0,1-.1-.31c0-.1.06-.16.09-.16l.72-1.61.56,0a2.45,2.45,0,0,0,.44,2.12,1.47,1.47,0,0,1,.65.32,2.8,2.8,0,0,1,.77,1.63,1.46,1.46,0,0,1-.29,1.7l0,1.64-1.06-1.62Z"/><path class="cls-170" d="M34.74,59.29l-.21-.63.12-1c.13-.27.29-.27.47,0,.7-1.52-.37-2.81-.55-4.22a.9.9,0,0,1,.78-.09c1,.42,1.11,1.49,1.53,2.33a5,5,0,0,1,0,2.46c-.31.61-.83,1.08-1.19,1.65h0Z"/><path class="cls-159" d="M33,27.19h-.54c-.94,0-2,.12-2.57-.84s.56-1.26,1-1.84C30.87,26,32.54,26.1,33,27.19Z"/><path class="cls-171" d="M28.18,23.43c.54.15,1.23-.29,1.62.4,0,.07-.11.34-.22.38-.78.33-1.06-.28-1.41-.77Z"/><path class="cls-172" d="M49,52.28l.57.59-.57,1-1.6,1c-1,.27-1-.4-1.06-1.07v-.56c-.4-.7.18-1.18.39-1.73a1.75,1.75,0,0,1,.53-.52.64.64,0,0,1,.67.16A1.1,1.1,0,0,0,49,52.28Z"/><path class="cls-173" d="M46.36,53.87c.36.35.71.71,1.06,1.07v.55c-.87-.06-2,0-2.23-1C45,53.79,45.9,54,46.36,53.87Z"/><path class="cls-174" d="M52.24,38.91l-.41.49-.18.1a1.6,1.6,0,0,0-.62-.44c-1.54.08-3,0-3-2.11a1.43,1.43,0,0,1,.46-.62l1-1.65c.59.38.55,1,.57,1.59C50.54,37.37,52.21,37.48,52.24,38.91Z"/><path class="cls-175" d="M48,51.22h-.49c-1.83-1.72-3.12-3.7-2.9-6.37a.51.51,0,0,1,.73,0C46.22,46.93,48.36,48.54,48,51.22Z"/><path class="cls-67" d="M45.29,44.81l-.58,0c-1.83-.43-2.26-1.55-1.6-3.21l.07,0A4.45,4.45,0,0,1,45.29,44.81Z"/><path class="cls-176" d="M36.77,37.83c.76,0,1,.77,1.56,1.12l1,2.08c-.17.21-.35.41-.53.61a1.79,1.79,0,0,1-2,.32,2.39,2.39,0,0,1-1.42-2.15C35.46,38.87,35.39,37.86,36.77,37.83Z"/><path class="cls-177" d="M40.48,41.07l1.08.51a2.56,2.56,0,0,1,1.55,2.64,1.38,1.38,0,0,1-.79.91,1.75,1.75,0,0,1-.82,0,2.71,2.71,0,0,1-1.55-3Z"/><path class="cls-178" d="M40,42.13l1.64,2.65c-1.51,1.06-2.2-.88-3.4-.93a2.33,2.33,0,0,1-1.07-1.1c0-1.27,1.55-.69,1.83-1.6.15,0,.28-.08.42-.12Z"/><path class="cls-179" d="M37.21,35.85l.08-.67c.62-.28.8.3,1.16.56l.87.08c-.37.65,1,2.11-.94,2A2.71,2.71,0,0,1,37.21,35.85Z"/><path class="cls-180" d="M37.23,32a4.36,4.36,0,0,0,0-.51c.19-.17.38-.34.56-.52.63.11,1.53-.19,1.47,1-1.07.4-.93,1.36-1,2.21C36.75,33.93,37.26,32.81,37.23,32Z"/><path class="cls-181" d="M37.23,32l1,2.15c.06.55.13,1.09.2,1.64l-1.16-.56C37,34.11,35.47,33.06,37.23,32Z"/><path class="cls-182" d="M42.69,44.23c-.37-.88-.75-1.76-1.13-2.65,0-.52,0-1,0-1.58l1.56,1.62a7.37,7.37,0,0,0,1.6,3.21c.69,2.23,2.27,4.08,2.75,6.4,0,.17-.05.34-.07.51a.64.64,0,0,1-.68.14,6.27,6.27,0,0,1-1.55-2.09C44.65,47.8,42.71,46.44,42.69,44.23Z"/><path class="cls-69" d="M48.53,36.33c0,.17-.08.34-.13.51-.28.35,0,.95-.53,1.19-.92.1-1-.84-1.52-1.23h-.53a2.6,2.6,0,0,0,1.08-2.15l.49,0A1.86,1.86,0,0,0,48.53,36.33Z"/><path class="cls-153" d="M51.65,39a1.51,1.51,0,0,1,0,.52c-1,.13-1,.86-1,1.6-1.09-.3-2.6.66-3.19-1.09.46-.35.8-.87,1.39-1C49.76,39.08,50.71,38.22,51.65,39Z"/><path class="cls-183" d="M46.35,36.8c.77,0,1.09.69,1.61,1.05a.84.84,0,0,1,.28.63,1.33,1.33,0,0,1-.86,1.05C46.33,38.89,46.3,37.86,46.35,36.8Z"/><path class="cls-158" d="M47.38,39.53,48,38.38c.87,0,.85.43.53,1,.41,1.65-.55.75-1.11.61C47.4,39.85,47.39,39.69,47.38,39.53Z"/><path class="cls-184" d="M37.31,26.72c0-.19,0-.38,0-.57l2.06-.58A1.88,1.88,0,0,1,41,26.1l-2.08,1.64-.56,0Z"/><path class="cls-185" d="M36.77,37.83c-.67.6-.54,1.41-.56,2.17a5.27,5.27,0,0,1-.56.5,1.89,1.89,0,0,1-1.09.25,2.17,2.17,0,0,1-1-.39,2,2,0,0,1-.44-.55A10.67,10.67,0,0,0,32.27,38a.77.77,0,0,1,.15-.62l.06,0C33.9,37.56,35.43,36.93,36.77,37.83Z"/><path class="cls-134" d="M28.72,36.77l1.64-1a3.65,3.65,0,0,0,1,2.17,1.21,1.21,0,0,1,.26,1.49,1.15,1.15,0,0,1-1.07.42c-1-.28-1.32-1.14-1.65-2A2.85,2.85,0,0,1,28.72,36.77Z"/><path class="cls-186" d="M33.54,39.49V40a1,1,0,0,1-1.15.17c-.5-.68-.94-1.37-.47-2.25l.5-.56c0,.18,0,.37.07.55A1.68,1.68,0,0,1,33.54,39.49Z"/><path class="cls-144" d="M31.92,37.92,32.51,40a1,1,0,0,1-.58.33,1.09,1.09,0,0,1-.64-.25.46.46,0,0,1,.11-.6c0-.52,0-1,0-1.55Z"/><path class="cls-187" d="M28.72,36.77l.55.56c.48,1.05.19,1.6-1,1.57a2.46,2.46,0,0,1-.11-.45C28.26,37.86,28.22,37.23,28.72,36.77Z"/><path class="cls-188" d="M39.39,54.44c-.12,1.11,1.49,1.93.54,3.18a2.29,2.29,0,0,1-2.2.08c-.6-.52-.59-1.33-.93-2A7.7,7.7,0,0,0,36,53.81a4.35,4.35,0,0,1-.38-.57c-.25-.65-.58-1.26-.83-1.91a12,12,0,0,0-1.23-2.67,2.75,2.75,0,0,1,.19-2.77,1.65,1.65,0,0,1,1.12-.49c1,0,1.36.75,1.83,1.4.31.38.74.66,1,1.07.48,1.39,1,.71,1.58,0a1.26,1.26,0,0,1,1.33.32c.62.58.61,1.56,1.35,2.05.9.92,2.15-.25,3.08.5a1.61,1.61,0,0,1,.72,1.15,1.77,1.77,0,0,1,0,1.3l-2.66.66-.46-.06c-.77-.66-1.77-1.07-2.2-2.1C38.39,51.63,38.39,51.63,39.39,54.44Z"/><path class="cls-189" d="M45.81,53.23l-1.05-1c.65-.33,1.22-1,2.08-.53h.55c0,.76-.62,1.09-1,1.57Z"/><path class="cls-190" d="M42.61,55c-1.24.11-.83,1.36-1.34,2-1.4-3.41-1.4-3.41,1.32-3.06C42.59,54.25,42.6,54.6,42.61,55Z"/><path class="cls-118" d="M37.81,57.09c.59.65,1.38.51,2.12.53l-4.28,2.11a1.93,1.93,0,0,1,.55-1.57C36.76,57.84,36.76,56.67,37.81,57.09Z"/><path class="cls-191" d="M39.39,54.44c-.71-.82-1.44-1.72-.72-2.79.47-.69,1.24-.49,1.82.08C38,51.78,39.77,53.54,39.39,54.44Z"/><path class="cls-192" d="M31.4,39.47V40a5.53,5.53,0,0,1,1.8,4.32,2.32,2.32,0,0,1-.17.77c-.37.6-.79,1.12-1.62.79a5.93,5.93,0,0,1-1.09-2.63,15.77,15.77,0,0,1-.9-2.58,1.34,1.34,0,0,1,.92-1.2Z"/><path class="cls-14" d="M31.41,45.88l1.06-1.07c.79-.38,1.15.17,1.51.71,0,.12.06.24.08.36.08.91-.23,1.9.54,2.67a1.53,1.53,0,0,1-.51,1.73c-1.84-.64-1.09-3-2.64-3.88A1.83,1.83,0,0,1,31.41,45.88Z"/><path class="cls-193" d="M31.45,46.4c1.92.52,1.29,2.83,2.62,3.76.86.47,1,1.36,1.33,2.17a1.54,1.54,0,0,1,0,.74l-.25.29h-.56Z"/><path class="cls-167" d="M35.12,57.59a1.88,1.88,0,0,1-.47,0L33.56,56c.14-.35.28-.7.41-1C34.88,55.63,34.53,56.81,35.12,57.59Z"/><path class="cls-134" d="M29.8,40.55c.17.9.35,1.79.52,2.7-.34-.39-.69-.77-1-1.15l-.51-1.57A.69.69,0,0,1,29.8,40.55Z"/><path class="cls-194" d="M26.44,37.9a.84.84,0,0,1,0,.47c-.49.34-.74,1.51-1.61.51a1.06,1.06,0,0,1,0-1.47C25.68,36.42,26,37.55,26.44,37.9Z"/><path class="cls-144" d="M29.8,40.55l-1,0-.51-1.63a1.76,1.76,0,0,0,1-1.57,3.3,3.3,0,0,1,1.07,2.14Z"/><path class="cls-175" d="M37.81,57.09c-.51.39-.85,1-1.61,1.07,0-.89,0-1.78,0-2.66l.23-.23a.7.7,0,0,1,.86.22A1,1,0,0,1,37.81,57.09Z"/><path class="cls-118" d="M36.19,55.5c-.35-.72-.7-1.43-1.06-2.14l0,0a.69.69,0,0,1,1,0h0a1.63,1.63,0,0,1,0,2.13Z"/><path class="cls-101" d="M48.53,39.4l-.53-1c0-.17,0-.35,0-.53.15-.33.29-.67.44-1,.22,2,2.44,1,3.25,2.14Z"/><path class="cls-175" d="M35.66,40l.55,0c0,.75.67,1.1,1.08,1.59A3.09,3.09,0,0,1,36.64,43a1.44,1.44,0,0,1-1.52-.07,1.37,1.37,0,0,1-.38-.71A2.8,2.8,0,0,1,35.66,40Z"/><path class="cls-195" d="M36.72,42.72l.57-1.13L39,41.15c-.13,1-1.25.87-1.66,1.54a1.17,1.17,0,0,1,.27,1.41.67.67,0,0,1-.66.28A1,1,0,0,1,36.72,42.72Z"/><path class="cls-114" d="M42.69,44.23c1.3,1.65,2.71,3.23,3.19,5.37a1.11,1.11,0,0,1-.49.31c-.5.18-.74.69-1.19.92a1.07,1.07,0,0,1-.94-.35c-.66-1.4-1.43-2.74-2-4.18a1.75,1.75,0,0,1,0-.72c.12-.39.47-.53.76-.73Z"/><path class="cls-134" d="M42,44.85l-.5.49a2.6,2.6,0,0,1-2.3.78A4,4,0,0,1,38,45.94a1.75,1.75,0,0,1-.85-.87.84.84,0,0,1,.12-.78l.21-.14c.28-.34.46-.8,1-.9,1.51-.42,1.92,1.45,3.18,1.53Z"/><path class="cls-196" d="M38.41,43.25c-.14.51-.39.88-1,.9l-.15-1.46Z"/><path class="cls-197" d="M45.29,49.62l.58,0a3.16,3.16,0,0,1,1,2.14,2.68,2.68,0,0,1-2.08.53l.44-.93a4.47,4.47,0,0,1-.33-.7A1.05,1.05,0,0,1,45.29,49.62Z"/><path class="cls-192" d="M35.14,42.14v.55c.63,1.06,1,2.12,0,3.19H34.07A3.45,3.45,0,0,1,33,43.6a33.58,33.58,0,0,0-1-3.59l.57,0h1l1.07,0C35,40.67,34.82,41.47,35.14,42.14Z"/><path class="cls-170" d="M35.14,42.14c-1.46-.39-1.52-1.12-.53-2.12h1.06C35.65,40.77,35.79,41.55,35.14,42.14Z"/><path class="cls-198" d="M33.54,39.49l-1-1.58C33.36,38.09,34.34,38.19,33.54,39.49Z"/><path class="cls-199" d="M31.94,40a4.58,4.58,0,0,1,1.6,3.2c-.47.25,0,1.39-1.06,1.07,0-1.52-1.34-2.69-1.08-4.28Z"/><path class="cls-200" d="M35.15,45.88c-.24-1.07-.8-2.13,0-3.19l1.58,0a1.86,1.86,0,0,0,.51,1.57,3.78,3.78,0,0,1,.1.46c-.56,1,.79,1.66.57,2.62a1.28,1.28,0,0,1-1.71.14Z"/><path class="cls-68" d="M39.41,48c-.11.88,1.31,2.3-.55,2.52-1.65.2-1.55-1.32-1.58-2.48C38,47.74,38.67,46.32,39.41,48Z"/><path class="cls-201" d="M39.41,48c-.72-.75-1.42,0-2.13,0l-1.09-.54a1.92,1.92,0,0,0,1.61-.58c-.16-.45.1-.69.46-.88,1.78-.29,2.77.28,2.46,2.27l-.28.26Z"/><path class="cls-202" d="M45.28,50.64c0,.23-.05.47-.08.7a3.55,3.55,0,0,0-2.3.36c-1.07.6-1.15-.27-1.31-1,0-.13,0-.25.07-.38A1.23,1.23,0,0,1,43.6,50l.67.65A.71.71,0,0,1,45.28,50.64Z"/><path class="cls-118" d="M35.14,52.82a5.74,5.74,0,0,1-1.07-2.66l.53-1.61,1.08,2.66C35.31,51.68,35.83,52.45,35.14,52.82Z"/><path class="cls-191" d="M41.59,50.73c-1.23-.27-1.08-1.27-1.15-2.15l0,0c2.16-.21,1.57,1,1.05,2.09Z"/><path class="cls-203" d="M35.14,52.82a1.85,1.85,0,0,1,.54-1.61c.18.71.35,1.43.53,2.15l-1,0C35.16,53.16,35.15,53,35.14,52.82Z"/><path class="cls-204" d="M36.22,55.48c0-.71,0-1.42,0-2.13a2.07,2.07,0,0,1,1.07,2.14Z"/><path class="cls-205" d="M32.48,44.28l1.06-1.07c.17.89.35,1.78.53,2.67-.76,0-1.09-.68-1.6-1.07C32.47,44.63,32.48,44.46,32.48,44.28Z"/><path class="cls-206" d="M41.53,50.64c0-.87.17-1.83-1.05-2.09a2.06,2.06,0,0,0-2.13-2.12c-.47-.25-.85-.54-.48-1.14l1,.09c.81.59,1.87-.15,2.66.5,1.5,1,1.74,2.56,2.05,4.12Z"/><path class="cls-207" d="M45.28,50.64h-1c.09-.66-.38-1.5.27-1.93.32-.2.53.55.76.9Z"/><path class="cls-201" d="M41.55,45.88c-.9-.07-1.87.23-2.66-.5l2.61,0C41.52,45.52,41.54,45.7,41.55,45.88Z"/><path class="cls-208" d="M37.87,45.29l.48,1.14c-.19.16-.37.33-.55.5-2.27-.27-1.7-1.15-.47-2.17Z"/></g></g></svg>