<svg xmlns="http://www.w3.org/2000/svg" viewBox="0 0 74 74"><defs><style>.cls-1{fill:#1e2223;}.cls-2{fill:#544b37;}.cls-3{fill:#453c29;}.cls-4{fill:#262520;}.cls-5{fill:#2b2f31;}.cls-6{fill:#2e3131;}.cls-7{fill:#292b26;}.cls-8{fill:#101e27;}.cls-9{fill:#565142;}.cls-10{fill:#37362c;}.cls-11{fill:#313330;}.cls-12{fill:#404540;}.cls-13{fill:#33312a;}.cls-14{fill:#2b2823;}.cls-15{fill:#454235;}.cls-16{fill:#4a4844;}.cls-17{fill:#57564f;}.cls-18{fill:#383b33;}.cls-19{fill:#403e30;}.cls-20{fill:#3a392e;}.cls-21{fill:#4c4b46;}.cls-22{fill:#40403a;}.cls-23{fill:#2d312f;}.cls-24{fill:#3b3e3d;}.cls-25{fill:#292d2c;}.cls-26{fill:#383b38;}.cls-27{fill:#3b392d;}.cls-28{fill:#6c6653;}.cls-29{fill:#76705f;}.cls-30{fill:#8a8677;}.cls-31{fill:#4d4f4a;}.cls-32{fill:#1f2426;}.cls-33{fill:#4b5051;}.cls-34{fill:#353a3d;}.cls-35{fill:#5c6265;}.cls-36{fill:#4e5355;}.cls-37{fill:#354046;}.cls-38{fill:#131f26;}.cls-39{fill:#4d5457;}.cls-40{fill:#393f42;}.cls-41{fill:#1f3743;}.cls-42{fill:#aca283;}.cls-43{fill:#a39a7c;}.cls-44{fill:#3f4640;}.cls-45{fill:#84826f;}.cls-46{fill:#c4ba9b;}.cls-47{fill:#56584c;}.cls-48{fill:#88866f;}.cls-49{fill:#666554;}.cls-50{fill:#454840;}.cls-51{fill:#807e6a;}.cls-52{fill:#51554b;}.cls-53{fill:#57594d;}.cls-54{fill:#878570;}.cls-55{fill:#3d4139;}.cls-56{fill:#6f6d5a;}.cls-57{fill:#6a6a5b;}.cls-58{fill:#54564c;}.cls-59{fill:#574e39;}.cls-60{fill:#807761;}.cls-61{fill:#494435;}.cls-62{fill:#514f48;}.cls-63{fill:#817960;}.cls-64{fill:#525143;}.cls-65{fill:#877b5e;}.cls-66{fill:#252a2a;}.cls-67{fill:#4f4f42;}.cls-68{fill:#333431;}.cls-69{fill:#353632;}.cls-70{fill:#282b2b;}.cls-71{fill:#52534e;}.cls-72{fill:#060b0e;}.cls-73{fill:#323730;}.cls-74{fill:#36342e;}.cls-75{fill:#4d4a3c;}.cls-76{fill:#313630;}.cls-77{fill:#4d4d43;}.cls-78{fill:#756e5c;}.cls-79{fill:#6e6f5d;}.cls-80{fill:#626050;}.cls-81{fill:#5d6050;}.cls-82{fill:#5f5c55;}.cls-83{fill:#333736;}.cls-84{fill:#3d3e3b;}.cls-85{fill:#2c302a;}.cls-86{fill:#646050;}.cls-87{fill:#313430;}.cls-88{fill:#746e5b;}.cls-89{fill:#a3a193;}.cls-90{fill:#726e5d;}.cls-91{fill:#888170;}.cls-92{fill:#8b826b;}.cls-93{fill:#898370;}.cls-94{fill:#574f3c;}.cls-95{fill:#393c36;}.cls-96{fill:#4d4d3f;}.cls-97{fill:#4f4938;}.cls-98{fill:#2c2f27;}.cls-99{fill:#282b28;}.cls-100{fill:#554d39;}.cls-101{fill:#8b7c5d;}.cls-102{fill:#514835;}.cls-103{fill:#978d7b;}.cls-104{fill:#7a705d;}.cls-105{fill:#75694d;}.cls-106{fill:#757467;}.cls-107{fill:#4b4d4b;}.cls-108{fill:#454a47;}.cls-109{fill:#4c4e51;}.cls-110{fill:#7b7c79;}.cls-111{fill:#44494a;}.cls-112{fill:#94815f;}.cls-113{fill:#5c5037;}.cls-114{fill:#8f856c;}.cls-115{fill:#605e50;}.cls-116{fill:#5c5b51;}.cls-117{fill:#95907b;}.cls-118{fill:#7c735b;}.cls-119{fill:#777263;}.cls-120{fill:#8a8371;}.cls-121{fill:#67695f;}.cls-122{fill:#67604e;}.cls-123{fill:#3b3c36;}.cls-124{fill:#353736;}.cls-125{fill:#30312b;}.cls-126{fill:#36362b;}.cls-127{fill:#3f4340;}.cls-128{fill:#3b3b36;}.cls-129{fill:#605742;}.cls-130{fill:#3c3e39;}.cls-131{fill:#2f312c;}.cls-132{fill:#2c312f;}.cls-133{fill:#303631;}.cls-134{fill:#454b44;}.cls-135{fill:#4c4635;}.cls-136{fill:#313737;}.cls-137{fill:#292f31;}.cls-138{fill:#52544f;}.cls-139{fill:#585e60;}.cls-140{fill:#363c3e;}.cls-141{fill:#444a4c;}.cls-142{fill:#535347;}.cls-143{fill:#45473d;}.cls-144{fill:#5c5c56;}.cls-145{fill:#494940;}.cls-146{fill:#585e07;}.cls-147{fill:#234c12;}.cls-148{fill:#72790f;}.cls-149{fill:#232320;}.cls-150{fill:#2f340e;}.cls-151{fill:#4f5c10;}.cls-152{fill:#30320c;}.cls-153{fill:#39362a;}.cls-154{fill:#2c2d24;}.cls-155{fill:#6c6450;}.cls-156{fill:#30322b;}.cls-157{fill:#333535;}.cls-158{fill:#554f3f;}.cls-159{fill:#30342c;}.cls-160{fill:#33362d;}.cls-161{fill:#2c2f28;}.cls-162{fill:#292d26;}.cls-163{fill:#9a9175;}.cls-164{fill:#363a34;}.cls-165{fill:#585649;}.cls-166{fill:#373831;}.cls-167{fill:#2a2d2a;}.cls-168{fill:#494d44;}.cls-169{fill:#747460;}.cls-170{fill:#6c6b59;}.cls-171{fill:#333730;}.cls-172{fill:#5b523c;}.cls-173{fill:#847f6d;}.cls-174{fill:#51514b;}.cls-175{fill:#313637;}.cls-176{fill:#4a5355;}.cls-177{fill:#777d7e;}.cls-178{fill:#252b2d;}.cls-179{fill:#4d5254;}.cls-180{fill:#3a403d;}.cls-181{fill:#565b5d;}.cls-182{fill:#7d8177;}.cls-183{fill:#9c9b90;}.cls-184{fill:#717576;}.cls-185{fill:#646969;}.cls-186{fill:#3c3527;}.cls-187{fill:#373f41;}.cls-188{fill:#767e7f;}.cls-189{fill:#252824;}.cls-190{fill:#494f50;}.cls-191{fill:#252b2e;}.cls-192{fill:#3a4142;}.cls-193{fill:#282f32;}.cls-194{fill:#616665;}.cls-195{fill:#676969;}.cls-196{fill:#464c4e;}.cls-197{fill:#2b3033;}.cls-198{fill:#363e42;}.cls-199{fill:#7c8183;}.cls-200{fill:#847a61;}.cls-201{fill:#81785f;}.cls-202{fill:#867e64;}.cls-203{fill:#c0b696;}.cls-204{fill:#645b45;}.cls-205{fill:#beb290;}.cls-206{fill:#756c55;}.cls-207{fill:#817e68;}.cls-208{fill:#b8ae93;}.cls-209{fill:#a9abac;}.cls-210{fill:#afa387;}.cls-211{fill:#d4c9a5;}.cls-212{fill:#969279;}.cls-213{fill:#dfd3ab;}.cls-214{fill:#2d5813;}.cls-215{fill:#72780b;}.cls-216{fill:#1b450d;}.cls-217{fill:#575d07;}.cls-218{fill:#36841b;}.cls-219{fill:#519f21;}.cls-220{fill:#bdc60e;}.cls-221{fill:#318118;}.cls-222{fill:#aca386;}.cls-223{fill:#8f8468;}.cls-224{fill:#4c3e29;}.cls-225{fill:#a79a7c;}.cls-226{fill:#544d3c;}.cls-227{fill:#8f8164;}.cls-228{fill:#2e2b22;}.cls-229{fill:#90897b;}.cls-230{fill:#38352a;}.cls-231{fill:#a39472;}.cls-232{fill:#5f5646;}.cls-233{fill:#aba390;}.cls-234{fill:#c3b79d;}.cls-235{fill:#e8dfc6;}.cls-236{fill:#655d47;}.cls-237{fill:#928b7b;}.cls-238{fill:#655e4e;}.cls-239{fill:#5b533e;}.cls-240{fill:#3d3629;}.cls-241{fill:#82806e;}.cls-242{fill:#43413a;}.cls-243{fill:#272318;}.cls-244{fill:#969075;}.cls-245{fill:#6c6451;}.cls-246{fill:#70664d;}.cls-247{fill:#9c8d6e;}.cls-248{fill:#6d644c;}.cls-249{fill:#6b675e;}.cls-250{fill:#656455;}.cls-251{fill:#a29a7c;}.cls-252{fill:#6d6c59;}.cls-253{fill:#8b836e;}.cls-254{fill:#9e947a;}.cls-255{fill:#d0ccb8;}.cls-256{fill:#bbb296;}.cls-257{fill:#8f8c7d;}.cls-258{fill:#bcb9aa;}.cls-259{fill:#b9b7a6;}.cls-260{fill:#4a4230;}.cls-261{fill:#7a7157;}.cls-262{fill:#766d55;}.cls-263{fill:#6f6249;}.cls-264{fill:#6d6349;}.cls-265{fill:#a79a7a;}.cls-266{fill:#837f66;}.cls-267{fill:#867c5e;}.cls-268{fill:#635840;}.cls-269{fill:#97998e;}.cls-270{fill:#787e79;}.cls-271{fill:#7b8382;}.cls-272{fill:#bfb493;}.cls-273{fill:#b4aa8a;}.cls-274{fill:#cebf9e;}.cls-275{fill:#676957;}.cls-276{fill:#908873;}.cls-277{fill:#2c281d;}.cls-278{fill:#89867b;}.cls-279{fill:#053646;}.cls-280{fill:#1e2323;}.cls-281{fill:#9e9172;}.cls-282{fill:#606c6a;}.cls-283{fill:#7d7a6e;}.cls-284{fill:#7a7561;}.cls-285{fill:#a6afb0;}.cls-286{fill:#858b8c;}.cls-287{fill:#c8d1d2;}.cls-288{fill:#8c8470;}.cls-289{fill:#aca189;}.cls-290{fill:#b3aea3;}.cls-291{fill:#3f8d21;}.cls-292{fill:#94ad1c;}.cls-293{fill:#e2fb04;}.cls-294{fill:#5a8416;}.cls-295{fill:#5ccd31;}.cls-296{fill:#d8fa23;}.cls-297{fill:#5e5744;}.cls-298{fill:#605a47;}.cls-299{fill:#685f49;}.cls-300{fill:#908264;}.cls-301{fill:#6a624b;}.cls-302{fill:#7a6f54;}.cls-303{fill:#514b39;}.cls-304{fill:#7c7055;}.cls-305{fill:#6a6855;}.cls-306{fill:#73684e;}.cls-307{fill:#6f6650;}.cls-308{fill:#a0a8a8;}.cls-309{fill:#d9dfdf;}.cls-310{fill:#7c7967;}.cls-311{fill:#868987;}.cls-312{fill:#5a6261;}.cls-313{fill:#d4d5ce;}.cls-314{fill:#abadaf;}.cls-315{fill:#cbc4a7;}.cls-316{fill:#b8b196;}.cls-317{fill:#616154;}.cls-318{fill:#7c7a6a;}.cls-319{fill:#bfbcac;}.cls-320{fill:#71644a;}.cls-321{fill:#5e5443;}.cls-322{fill:#7b755c;}.cls-323{fill:#675f46;}.cls-324{fill:#6d6d66;}.cls-325{fill:#827a6f;}.cls-326{fill:#86867e;}.cls-327{fill:#474b46;}.cls-328{fill:#c5ced0;}.cls-329{fill:#838683;}.cls-330{fill:#85857f;}.cls-331{fill:#62655f;}.cls-332{fill:#808788;}.cls-333{fill:#141b1e;}.cls-334{fill:#3f4548;}.cls-335{fill:#8a8674;}.cls-336{fill:#929189;}.cls-337{fill:#c4c1b2;}.cls-338{fill:#a4a7a3;}.cls-339{fill:#7c745d;}.cls-340{fill:#8c8167;}.cls-341{fill:#dfe1da;}.cls-342{fill:#857b5e;}.cls-343{fill:#847c67;}.cls-344{fill:#beb18f;}.cls-345{fill:#36851b;}.cls-346{fill:#47bb24;}.cls-347{fill:#6fcc27;}.cls-348{fill:#59a722;}.cls-349{fill:#70cc27;}.cls-350{fill:#8a7f61;}.cls-351{fill:#403c2e;}.cls-352{fill:#756a52;}.cls-353{fill:#151614;}.cls-354{fill:#83775a;}.cls-355{fill:#444036;}.cls-356{fill:#756d5b;}.cls-357{fill:#ccc6b5;}.cls-358{fill:#b6ae9c;}.cls-359{fill:#484132;}.cls-360{fill:#6c634d;}.cls-361{fill:#928c77;}.cls-362{fill:#867f67;}.cls-363{fill:#a4a397;}.cls-364{fill:#9e9788;}.cls-365{fill:#837e72;}.cls-366{fill:#7a7668;}.cls-367{fill:#849598;}.cls-368{fill:#005162;}.cls-369{fill:#44575e;}.cls-370{fill:#647871;}.cls-371{fill:#3e6060;}.cls-372{fill:#13495e;}.cls-373{fill:#505552;}.cls-374{fill:#beb293;}.cls-375{fill:#d1c7b0;}.cls-376{fill:#b2e71d;}.cls-377{fill:#83d526;}.cls-378{fill:#696451;}.cls-379{fill:#898068;}.cls-380{fill:#a29d8c;}.cls-381{fill:#9f9a89;}.cls-382{fill:#989684;}.cls-383{fill:#928a75;}.cls-384{fill:#978e7b;}.cls-385{fill:#aaa595;}.cls-386{fill:#8b836f;}.cls-387{fill:#8c8675;}.cls-388{fill:#918871;}.cls-389{fill:#a7a18f;}.cls-390{fill:#b7b4a1;}.cls-391{fill:#948d79;}.cls-392{fill:#a09d90;}.cls-393{fill:#918c76;}.cls-394{fill:#8e8263;}.cls-395{fill:#a4987b;}.cls-396{fill:#b3b0a5;}.cls-397{fill:#8d897c;}.cls-398{fill:#a2a59c;}.cls-399{fill:#969180;}.cls-400{fill:#6b6b66;}.cls-401{fill:#a6a090;}.cls-402{fill:#c9c4b5;}.cls-403{fill:#bab299;}.cls-404{fill:#a19d8c;}.cls-405{fill:#afb8b9;}.cls-406{fill:#6b6f6f;}.cls-407{fill:#d6d2c2;}.cls-408{fill:#cfccbc;}.cls-409{fill:#625d4c;}.cls-410{fill:#25221d;}.cls-411{fill:#ccc4b1;}.cls-412{fill:#686252;}.cls-413{fill:#9c9585;}.cls-414{fill:#6e6757;}.cls-415{fill:#dbd6cb;}.cls-416{fill:#4f6a70;}.cls-417{fill:#93948c;}.cls-418{fill:#366a6d;}.cls-419{fill:#afada0;}.cls-420{fill:#847e62;}.cls-421{fill:#bcb6a3;}.cls-422{fill:#8a8069;}.cls-423{fill:#c2c1b4;}.cls-424{fill:#dedccb;}.cls-425{fill:#c8c6be;}.cls-426{fill:#928b78;}.cls-427{fill:#40514f;}.cls-428{fill:#faf4e6;}.cls-429{fill:#c4bcac;}.cls-430{fill:#aeac9c;}.cls-431{fill:#07404c;}.cls-432{fill:#a59c84;}</style></defs><title>airstrike</title><g id="레이어_2" data-name="레이어 2"><g id="레이어_1-2" data-name="레이어 1"><rect class="cls-1" width="74" height="74" rx="8.33" ry="8.33"/><path class="cls-2" d="M52.18,20.23c.4,0,.78,0,.87-.59.06-.38.48-.23.74-.28.32-.23.56-.54.85-.79h0a1,1,0,0,1,.82-.4,1,1,0,0,0,.8-.44h0c.28-.26.53-.56.83-.8v0c.28-.26.55-.53.82-.81h.32a1.17,1.17,0,0,1,1.15-.31,2.21,2.21,0,0,0,1.84-.71.59.59,0,0,1,.65.15,1.54,1.54,0,0,1,.4.9,1.11,1.11,0,0,1-.08.82c-.06.09-.13.21-.23.22a2.5,2.5,0,0,0-2.22,2.28,2.74,2.74,0,0,0-1,.93,1.28,1.28,0,0,1-.79.15c-.27,0-.55,0-.82,0-.7,0-1.21.2-1.34,1-.07.47-.46.63-.91.66a14.27,14.27,0,0,1-2,0l-.48,0a.86.86,0,0,1-.88-.45,1,1,0,0,1,.18-1A2.45,2.45,0,0,1,52.18,20.23Z"/><path class="cls-3" d="M18.54,19.34l.05-.78c.4-.25.4-.82.84-1A2.16,2.16,0,0,1,21.9,18c.2.23.59.26.88.42a.81.81,0,0,1,.23.75c-.09.5.21.74.6.91a.65.65,0,0,1,.13.23.7.7,0,0,1-.37,1,1,1,0,0,1-1.21-.17c-.57-.55-1.39-.75-1.93-1.35l-.78,0a1.08,1.08,0,0,1-.76-.15A.41.41,0,0,1,18.54,19.34Z"/><path class="cls-4" d="M19.42,17.73c.06.62-.21.9-.83.83.06-1.77-.12-3.54.11-5.31A5.62,5.62,0,0,0,18.59,12c-.07-.63.18-.93.84-.84a.87.87,0,0,1,.3.8c0,.29,0,.59,0,.89a12.39,12.39,0,0,1,0,2.11,14.56,14.56,0,0,1,0,1.87A1,1,0,0,1,19.42,17.73Z"/><path class="cls-5" d="M61.19,22.66v.49c.16.23.08.49-.12.53-.6.13-1,.68-1.5.86a1,1,0,0,1-.79-.05,3.23,3.23,0,0,0-1-.95.79.79,0,0,1-.06-.81.69.69,0,0,1,.16-.22,1.1,1.1,0,0,1,.75-.17c.44.05.65-.22.8-.58a.48.48,0,0,1,.2-.14,1,1,0,0,1,.76,0,2.94,2.94,0,0,1,.82.57Z"/><path class="cls-6" d="M62.83,18.56H62l-.11-.05c-.36-.43-.19-.8.19-1.09.2-.15.39-.27.37-.55a1.39,1.39,0,0,1,.16-.78.55.55,0,0,1,.21-.19.63.63,0,0,1,.78.2v1.95C63.46,18.38,63.05,18.32,62.83,18.56Z"/><path class="cls-7" d="M61.84,15.3h-.65a1.25,1.25,0,0,1-1.57.11l-.08-.14c0-.57.19-.86.79-.81a4.41,4.41,0,0,0,.89,0c.6-.05.85.23.8.81A.13.13,0,0,1,61.84,15.3Z"/><path class="cls-8" d="M61.18,22.17c-.31,0-.66.06-.82-.34a1.32,1.32,0,0,1-.21-1.54.57.57,0,0,1,.19-.24.65.65,0,0,1,.84.14C61.23,20.85,60.74,21.51,61.18,22.17Z"/><path class="cls-9" d="M19.43,12V11.2a7.15,7.15,0,0,0,.8,0c.62-.08.88.21.85.81l-.09.13A1.16,1.16,0,0,1,19.43,12Z"/><path class="cls-10" d="M23.49,13.65v1.64a.65.65,0,0,1-.85.13.8.8,0,0,1-.27-.82c0-.27-.07-.57.12-.82a.42.42,0,0,1,.22-.15Z"/><path class="cls-11" d="M11.21,24.28c-.05-.6.23-.85.82-.8.26,0,.54,0,.81,0l.13.08a.69.69,0,0,1,0,.87.94.94,0,0,1-.85.21,1,1,0,0,1-.83-.2Z"/><path class="cls-12" d="M10.73,26h-.18c-.38-1.13-.21-1.57.66-1.69l0,.06a.79.79,0,0,1,.3.79,1,1,0,0,1-.24.84A.44.44,0,0,1,10.73,26Z"/><path class="cls-13" d="M56.26,17.73c.09.65-.21.88-.82.84a7.12,7.12,0,0,0-.8,0c0-.22,0-.44,0-.66A4,4,0,0,1,56.26,17.73Z"/><path class="cls-14" d="M59.54,16.1H58.23c0-1,.73-.77,1.31-.82l0,0A.54.54,0,0,1,59.54,16.1Z"/><path class="cls-8" d="M63.64,16.11l-.76,0c-.35-.24-.29-.52-.06-.8.07-.24.13-.53.43-.49s.33.34.36.58A5.86,5.86,0,0,1,63.64,16.11Z"/><path class="cls-15" d="M62.82,15.29l.06.8-.08,0a.52.52,0,0,1-.79,0,1.21,1.21,0,0,1-.17-.81l.18,0Z"/><path class="cls-16" d="M62,18.57c0,.59-.22.89-.84.84l-.12-.1a.58.58,0,0,1,.11-.84.55.55,0,0,1,.78.08Z"/><path class="cls-17" d="M13.69,22.67l.79-.06.13.1c.22.81,0,1-.82,1a.64.64,0,0,1-.25-.18A.6.6,0,0,1,13.69,22.67Z"/><path class="cls-18" d="M17.75,20.17c-.05-.58.21-.86.79-.83l.06.05a.63.63,0,0,1,.14.82.65.65,0,0,1-.81.18A.44.44,0,0,1,17.75,20.17Z"/><path class="cls-19" d="M21.08,12c.61-.08.85.22.82.8a.45.45,0,0,1-.21.22c-.84,0-1-.22-.69-1Z"/><path class="cls-20" d="M57.1,16.94c.06.62-.22.88-.83.8C56.19,17.1,56.47,16.84,57.1,16.94Z"/><path class="cls-8" d="M57.91,16.1c.06.62-.2.9-.82.81C57,16.3,57.3,16,57.91,16.1Z"/><path class="cls-21" d="M16.15,21l.79-.05.13.09A.64.64,0,0,1,17,22a.69.69,0,0,1-.91-.05A.58.58,0,0,1,16.15,21Z"/><path class="cls-22" d="M61.18,20.19l-.8,0a.55.55,0,0,1-.06-.84.56.56,0,0,1,.85,0l0,.06Z"/><path class="cls-23" d="M16.15,21l0,.79-.06.11a.5.5,0,0,1-.66.06.33.33,0,0,1-.11-.2C15.24,21.16,15.56,21,16.15,21Z"/><path class="cls-24" d="M16.94,21c-.07-.62.24-.85.81-.82l.05.06a.55.55,0,0,1,0,.8.57.57,0,0,1-.86,0Z"/><path class="cls-25" d="M13.69,22.67l0,.78c-.25.32-.52.27-.79.05l0-.05C12.8,22.84,13.08,22.57,13.69,22.67Z"/><path class="cls-26" d="M14.48,22.61c-.09-.63.27-.82.82-.81l0,.06a.6.6,0,0,1,.05.87.63.63,0,0,1-.88,0Z"/><path class="cls-27" d="M21.9,12.8c.6-.05.86.25.81.83l0,0a.59.59,0,1,1-.82-.82Z"/><path class="cls-8" d="M62.83,18.56c.12-.4.46-.46.81-.5C63.61,18.63,63.19,18.55,62.83,18.56Z"/><path class="cls-28" d="M29.24,35.76H30a.86.86,0,0,1,.78-.3,1.49,1.49,0,0,1,.86.13.51.51,0,0,1,.2.21,1.85,1.85,0,0,1-1.36,2,2,2,0,0,0-1.07.51.78.78,0,0,1-1.16,0,1.27,1.27,0,0,1-.19-.87.88.88,0,0,1,.31-.83h0a9,9,0,0,1,.84-.8Z"/><path class="cls-29" d="M31.69,34.93v-.8h0a.77.77,0,0,1,.78-.33c.3,0,.6,0,.9,0s.62,0,.86.22c.29.81.17,1.08-.62,1.29a2,2,0,0,0-.84.45.73.73,0,0,1-1.09,0v0A.53.53,0,0,1,31.69,34.93Z"/><path class="cls-30" d="M31.69,34.93v.81l-.81,0a.53.53,0,0,1,0-.8Z"/><path class="cls-31" d="M30.89,35v.8H30C30,35.11,30.27,34.85,30.89,35Z"/><path class="cls-32" d="M57.91,28.39c0,.26.08.59-.2.75-.94.55-.3.78.2,1.05,0,.22,0,.43,0,.64.06.61-.18.91-.82.84a1.07,1.07,0,0,1-.4-.82.45.45,0,0,0-.55-.49.94.94,0,0,1-1.07-.56c-.12-.31-.47-.36-.62-.62a3.52,3.52,0,0,1,0-2.33c.45-.64,1.09-.53,1.68-.37s.53.67.56,1.14c0,.29-.08.72.49.54A.75.75,0,0,1,57.91,28.39Z"/><path class="cls-33" d="M54.68,29.19c.35,0,.72-.05.8.47s.48.33.78.38a1.08,1.08,0,0,1,0,1.62l-.33,0-1.27-.06c-.53-.51-1.21-.41-1.85-.47A1.08,1.08,0,0,1,52,30.9a1.85,1.85,0,0,1,0-1.7.68.68,0,0,1,.79-.24.89.89,0,0,1,.52.35.65.65,0,0,0,1.14,0A.49.49,0,0,1,54.68,29.19Z"/><path class="cls-34" d="M56.27,31.66c0-.54,0-1.08,0-1.62.64-.09.88.21.83.82,0,.27,0,.54,0,.81Z"/><path class="cls-35" d="M29.89,50.54l-1,0c-.23,0-.47,0-.48-.32,0-.56-.45-.5-.82-.52a.62.62,0,0,1-.23-.75c.42-.26.62-.73,1-1.05a.89.89,0,0,1,1.21.31c.17.25.49.34.63.61a1.51,1.51,0,0,1,.16.86,1,1,0,0,1-.21.84A.26.26,0,0,1,29.89,50.54Z"/><path class="cls-36" d="M36.62,45.58c.06-.6-.2-.88-.82-.81h0c-.35-.73-.18-1.08.57-1.15a1.72,1.72,0,0,1,1,.11,1.82,1.82,0,0,0,1.37.71.61.61,0,0,1,.58.39c.09.81-.07,1-.82,1.12a3.56,3.56,0,0,1-1.26-.08A.9.9,0,0,1,36.62,45.58Z"/><path class="cls-37" d="M27.62,48.85c0,.28,0,.55,0,.82-.64.11-.91-.18-.86-.8V46.44a.6.6,0,0,1,.9-.1A2.29,2.29,0,0,1,27.62,48.85Z"/><path class="cls-38" d="M39.89,46.41v.82H37.43a.22.22,0,0,1-.32,0v-.81l.09-.14a2.69,2.69,0,0,1,2.7.13Z"/><path class="cls-39" d="M30.05,50.5l0-.82a1.06,1.06,0,0,1,1.61,0c.11.64-.22.85-.8.82A.53.53,0,0,1,30.05,50.5Z"/><path class="cls-40" d="M31.68,49.71l-1.61,0,0-.79a1.13,1.13,0,0,1,1.66,0h0Z"/><path class="cls-41" d="M36.62,45.58h.48a.55.55,0,0,1,0,.82h0C36.55,46.37,36.62,46,36.62,45.58Z"/><path class="cls-42" d="M24.32,47.21l-.79,0a1,1,0,0,1-.85.29,1.14,1.14,0,0,1-.89-.23.76.76,0,0,1-.1-.86.82.82,0,0,1,.67-.39,1.49,1.49,0,0,0,1.19-.67,1.72,1.72,0,0,1,1.62.06.75.75,0,0,1,.2.82C25.13,46.72,24.6,46.83,24.32,47.21Z"/><path class="cls-43" d="M19.4,49.67l-.78,0a1,1,0,0,1-.86.31,2.35,2.35,0,0,1-1.7-.25.77.77,0,0,1-.09-.9.74.74,0,0,1,.76-.33c.61.16.75-.41,1.06-.7a.78.78,0,0,1,.78,0c.23.46.76.6,1,1A.64.64,0,0,1,19.4,49.67Z"/><path class="cls-44" d="M12.37,53c-.41-.14-.31-.5-.35-.8l.06-.13a2.58,2.58,0,0,1,2.25-.11.48.48,0,0,1,.17.23c0,.6-.24.84-.83.8C13.24,52.94,12.8,53,12.37,53Z"/><path class="cls-45" d="M25.11,46.38l0-.79.09-.13a2.8,2.8,0,0,1,2.35,0,.63.63,0,0,1,.21.81.47.47,0,0,1-.22.2H26a.57.57,0,0,1-.71.15A.37.37,0,0,1,25.11,46.38Z"/><path class="cls-46" d="M16.12,49.68h1.66a.53.53,0,0,1,0,.8l-.79,0a.67.67,0,0,1-.87.09.61.61,0,0,1-.1-.85Z"/><path class="cls-47" d="M16.17,51.37c0,.55-.21.83-.8.78a6.32,6.32,0,0,0-.87,0l0-.06a.61.61,0,0,1-.11-.84.82.82,0,0,1,.82-.26c.28,0,.57-.06.82.13A.42.42,0,0,1,16.17,51.37Z"/><path class="cls-48" d="M24.32,47.21c-.07-.6.21-.86.79-.83l.06,0a.5.5,0,0,1-.06.78Z"/><path class="cls-49" d="M21.85,48.85l-.78.06-.13-.08A.63.63,0,0,1,21,48a.75.75,0,0,1,.85-.14.53.53,0,0,1,.22.2A.6.6,0,0,1,21.85,48.85Z"/><path class="cls-50" d="M21.85,48.85v-.76c.16-.32.41-.32.69-.2a.37.37,0,0,1,.14.22C22.78,48.76,22.43,48.94,21.85,48.85Z"/><path class="cls-51" d="M19.4,49.67l0-.79a.57.57,0,0,1,.86-.08.57.57,0,0,1-.07.86Z"/><path class="cls-52" d="M20.21,49.66l0-.78.08-.11a.5.5,0,0,1,.72.07l0,.07C21.14,49.57,20.8,49.76,20.21,49.66Z"/><path class="cls-53" d="M16.14,50.53H17c.08.62-.21.86-.8.83l-.06-.06A.49.49,0,0,1,16.14,50.53Z"/><path class="cls-54" d="M17.76,50.49c0-.27,0-.54,0-.8l.84,0C18.69,50.36,18.42,50.64,17.76,50.49Z"/><path class="cls-55" d="M25.11,47.21l.06-.78H26C26,47.09,25.71,47.3,25.11,47.21Z"/><path class="cls-56" d="M22.7,47.23l.83,0c.1.65-.25.87-.84.85a.28.28,0,0,1,0-.09A.51.51,0,0,1,22.7,47.23Z"/><path class="cls-57" d="M10.37,50.5l.06-.8a.59.59,0,0,1,.84-.13,1,1,0,0,1,.27.82,1.36,1.36,0,0,1-.13.82.46.46,0,0,1-.22.17C10.53,51.45,10.33,51.09,10.37,50.5Z"/><path class="cls-58" d="M12,52.18c-.54,0-.92-.15-.83-.8a.36.36,0,0,0,0-.09.64.64,0,0,1,.88,0,.59.59,0,0,1-.06.87Z"/><path class="cls-59" d="M11.23,49.7h-.8c0-.28,0-.55,0-.82l.79,0A6.28,6.28,0,0,0,12,48c-.06-.65.27-.87.87-.81s.84-.23.8-.8A.94.94,0,0,1,14.5,46a1,1,0,0,0,.8-.43c0-.57.21-.85.8-.81.41,0,.79,0,.91-.56.08-.37.49-.22.76-.3l.1,0c.15.12.24.43.48.28s0-.37,0-.56a.67.67,0,0,1,.26-.54h0a.55.55,0,0,1,.64-.14,1.27,1.27,0,0,1,.42.93c0,.49.57.45.74.79.28,1.11-.23,1.77-1.69,2.17,0,.37.36.76,0,1.13l-.1.06h-.8c-.33.21-.55.54-.86.77l-.78,0c-.16.1-.26.31-.46.3-.6,0-.95.37-1.32.74a5.67,5.67,0,0,1-2.32.09A.85.85,0,0,1,11.23,49.7Z"/><path class="cls-60" d="M34.15,25.9l.79.06a8,8,0,0,1,.86.79l0,0a.61.61,0,0,1,.24.69c0,.47-.75.39-.69.91.32.3.29-.26.49-.21a.81.81,0,0,1,.74,0c.35.22.4.84,1,.73a1.46,1.46,0,0,1,.74.13c.36.29.52.77,1,1a.83.83,0,0,1,0,.75c-.09.45-.84.43-.72,1a1.1,1.1,0,0,1-.2.74.81.81,0,0,1-1.29-.26.88.88,0,0,0-.45-.44c-.31-.26-.41-.83-1-.69a.9.9,0,0,1-.76-.17c-.15-.19-.18-.46-.44-.56-.59-.24-.65-.73-.6-1.27a6.69,6.69,0,0,1,0-1.55,3.06,3.06,0,0,1,.12-1.53A.48.48,0,0,1,34.15,25.9Z"/><path class="cls-61" d="M52.18,20.23a2.06,2.06,0,0,1-.1.62c-.46.88-.41,1,.6,1H53a.84.84,0,0,1,.31.81,1.31,1.31,0,0,1-.13.87.85.85,0,0,1-.65.29,2.34,2.34,0,0,0-2.15,1.07,1.47,1.47,0,0,1-1.53.56c-.29,0-.59.06-.85-.15a1.67,1.67,0,0,1-.25-1.81c.39-.26.39-1.07,1.15-.82a.73.73,0,0,0,1.24,0c.29-.35,1-.33.89-1a.82.82,0,0,1,.31-.67C51.3,20.39,51.56,20.12,52.18,20.23Z"/><path class="cls-62" d="M47.75,23.48l.32,1.62c-.35.62-.69,1.23-1.54,1.23a.79.79,0,0,0-.6.37.89.89,0,0,1-.6.38c-1,.11-1.54.87-2.15,1.53a1.6,1.6,0,0,1-.87.1c-.32,0-.65.05-.89-.24a.67.67,0,0,1,.1-.9h0a9.05,9.05,0,0,1,.83-.81c.36,0,.74,0,.82-.53s.51-.25.79-.33c.31-.24.55-.54.84-.79h0a1,1,0,0,1,.81-.4,1,1,0,0,0,.8-.44h0c.28-.41.85-.41,1.15-.81Z"/><path class="cls-63" d="M30.85,16.13v.77l-.78,0a.9.9,0,0,1-.8.3,1.36,1.36,0,0,1-.84-.14c-.23-.47-.8-.6-1.05-1.05a.9.9,0,0,1,.1-.87c.5-.41,1.07-.23,1.63-.22C30.13,14.71,30.41,15.53,30.85,16.13Z"/><path class="cls-64" d="M51.35,21.82c-.05.72-1.43,1.79-2.09,1.62-.46-.11-.33-.48-.36-.78.59.05.88-.21.83-.81A1.08,1.08,0,0,1,51.35,21.82Z"/><path class="cls-65" d="M27.62,22.64l.78,0a.61.61,0,0,1,.19.79c-.52.64-1.28.21-1.89.43a.79.79,0,0,1-.91-.45c-.15-.87,0-1.05.93-1.11A1,1,0,0,1,27.62,22.64Z"/><path class="cls-66" d="M41.52,27.57v.82c-.41.57-1,.32-1.53.33a1.75,1.75,0,0,1-.87-.13.45.45,0,0,1-.21-.2.62.62,0,0,1,.14-.8A15.67,15.67,0,0,0,41.52,27.57Z"/><path class="cls-67" d="M27.62,22.64H26.8a.8.8,0,0,1-.33-.82c0-.32-.06-.65.22-.9a.62.62,0,0,1,.88.1h.08a.58.58,0,0,1,0,.82Z"/><path class="cls-68" d="M51.35,21.82l-1.62,0c-.09-.63.21-.88.82-.84a6.94,6.94,0,0,0,.79,0C51.34,21.27,51.35,21.55,51.35,21.82Z"/><path class="cls-69" d="M31.69,24.3a6.94,6.94,0,0,0,.79,0c.59,0,.91.18.88.81l-.07.13c-.24.25-.55.2-.85.2s-.64,0-.86-.25A.65.65,0,0,1,31.69,24.3Z"/><path class="cls-70" d="M46.42,24.28c.1.64-.21.87-.81.83-.27,0-.54,0-.8,0-.08-.62.2-.88.82-.83A7,7,0,0,0,46.42,24.28Z"/><path class="cls-71" d="M35.81,27.55l0-.78a8.61,8.61,0,0,0,.88,0c.6-.06.82.23.79.79l-.08.14C36.82,28,36.28,28.13,35.81,27.55Z"/><path class="cls-61" d="M47.59,23.48c0,.76-.56.83-1.15.81C46.33,23.33,47,23.49,47.59,23.48Z"/><path class="cls-72" d="M27.63,21.83l0-.82c.4,0,1.05-.07,1,.43S28,21.81,27.63,21.83Z"/><path class="cls-73" d="M29.26,18.58c0,.55-.17.89-.79.81a.42.42,0,0,1-.22-.15.63.63,0,0,1,.06-.77.68.68,0,0,1,.78-.1A.39.39,0,0,1,29.26,18.58Z"/><path class="cls-74" d="M54.64,18.57c.07.64-.22.89-.85.79C53.75,18.74,54,18.47,54.64,18.57Z"/><path class="cls-75" d="M28.44,23.46l0-.78c.6-.11.93.1.85.76l-.07.12A.47.47,0,0,1,28.44,23.46Z"/><path class="cls-76" d="M30.05,17.73c.09.6-.17.89-.79.85l0,0a.61.61,0,0,1-.16-.77.58.58,0,0,1,.2-.21A.64.64,0,0,1,30.05,17.73Z"/><path class="cls-77" d="M30,23.5c.58-.08.94.08.85.75l-.06.13a.6.6,0,0,1-1-.11A.62.62,0,0,1,30,23.5Z"/><path class="cls-78" d="M30,23.5l0,.79a.6.6,0,0,1-.88.1.58.58,0,0,1,0-.87s0-.05,0-.08Z"/><path class="cls-79" d="M27.57,21l-.78,0a.6.6,0,0,1-.17-.83.64.64,0,0,1,.81-.21.47.47,0,0,1,.2.22Z"/><path class="cls-80" d="M30.05,17.73l-.81,0a.53.53,0,0,1,0-.83l.82,0Z"/><path class="cls-81" d="M28.47,19.39c0,.57-.19.92-.84.83l-.07,0a.62.62,0,0,1,0-.87.6.6,0,0,1,.86.06Z"/><path class="cls-82" d="M37.45,27.55l.78,0a.59.59,0,0,1,.22.74.62.62,0,0,1-.17.22.8.8,0,0,1-.82,0,.55.55,0,0,1-.2-.2.59.59,0,0,1,.15-.77Z"/><path class="cls-83" d="M42.36,26.77c.06.61-.22.88-.83.81C41.44,26.93,41.73,26.67,42.36,26.77Z"/><path class="cls-84" d="M38.25,28.35c0-.25,0-.5,0-.76h.82c0,.26,0,.53,0,.79A.48.48,0,0,1,38.25,28.35Z"/><path class="cls-70" d="M44.81,25.12c.07.63-.21.9-.84.79C43.92,25.29,44.2,25,44.81,25.12Z"/><path class="cls-85" d="M33.36,25.1c.58,0,.87.19.79.8V26a.65.65,0,0,1-.89.05.62.62,0,0,1,0-.88Z"/><path class="cls-86" d="M31.69,24.3l0,.78a.58.58,0,0,1-.87.14.59.59,0,0,1,0-.89l0-.08Z"/><path class="cls-87" d="M35.8,26.75c-.65.12-.92-.16-.86-.79C35.57,25.85,35.86,26.11,35.8,26.75Z"/><path class="cls-88" d="M61.17,19.35c-.62,0-.9.23-.79.86h0a.61.61,0,0,1-.89.05.67.67,0,0,1,.06-.91c0-.5-.19-1.11.21-1.48.62-.55,1.23-1.28,2.24-.94a.53.53,0,0,1,.8,0c0,.37.11.76-.46.85s-.26.51-.36.79C61.36,18.47,61.13,18.77,61.17,19.35Z"/><path class="cls-89" d="M57.92,20.22l.8-.06.11,0c.19.43.7.52.94.9a.65.65,0,0,1-.23.73h0a.73.73,0,0,1-.65.33c-.45-.07-.71.22-1,.49h0c-.41.25-.4.86-.89,1a.9.9,0,0,1-.84-.11.93.93,0,0,1-.23-.84,2.57,2.57,0,0,1,0-.83c.19-.4.83-.37.88-.91a.8.8,0,0,1,.15-.17A2.51,2.51,0,0,0,57.92,20.22Z"/><path class="cls-90" d="M56.28,21.85v.8c-.43.53-1,.35-1.56.34h-.9a.81.81,0,0,1-.79-.31c0-.28,0-.55,0-.83.41,0,.82,0,1.22,0,.79.07,1.25-.08,1.35-1s1-.53,1.53-.6a.53.53,0,0,1,0,.8h0C56.82,21.29,56.54,21.56,56.28,21.85Z"/><path class="cls-15" d="M59.54,16.1l0-.8h1.62C60.91,16.11,60.21,16.07,59.54,16.1Z"/><path class="cls-91" d="M62.79,16.91H62c0-.27,0-.54,0-.81h.79Z"/><path class="cls-92" d="M59.54,19.34l.06.89a.53.53,0,0,1-.87,0s0-.06,0-.09C58.61,19.5,59,19.31,59.54,19.34Z"/><path class="cls-93" d="M57.09,21v-.8h.82C58,20.84,57.7,21.1,57.09,21Z"/><path class="cls-94" d="M27.62,16.08c.62-.06.88.23.8.85l0,.1a1.83,1.83,0,0,0-.66.82.51.51,0,0,1-.23.12.89.89,0,0,1-.78-.06,1.76,1.76,0,0,0-1.24-.66A.57.57,0,0,1,25,16.9a.68.68,0,0,1,.18-.8c.58,0,.9-.18.83-.8a.6.6,0,0,1,.71-.24.53.53,0,0,1,.22.12A2.25,2.25,0,0,0,27.62,16.08Z"/><path class="cls-95" d="M30.85,16.13c-.36,0-.74,0-.82-.52s-.51-.26-.78-.35a.49.49,0,0,1,0-.77h1.63C30.86,15,30.86,15.58,30.85,16.13Z"/><path class="cls-96" d="M29.23,14.49l0,.77-1.64,0a.55.55,0,0,1-.81,0l0-.05a.5.5,0,0,1,0-.78Z"/><path class="cls-97" d="M22.71,15.28h.78l0,.8a.65.65,0,0,1,0,.93.73.73,0,0,1-1,0C22.28,16.4,22.12,15.81,22.71,15.28Z"/><path class="cls-98" d="M23.52,16.9v-.81h1.62v.82c-.18.35-.5.33-.82.32S23.69,17.26,23.52,16.9Z"/><path class="cls-99" d="M26.81,14.49c0,.26,0,.52,0,.78l-.8,0Q25.84,14.33,26.81,14.49Z"/><path class="cls-100" d="M20.21,19.39c.39,0,.77,0,.87.49a.39.39,0,0,0,.42.31.84.84,0,0,1,1,.63c.08.25.41.21.65.17.46-.09.35-.47.38-.78.74-.4,1-.24,1.14.67,0,1.15-.12,1.27-1.31,1.35-.49,0-1.06-.09-1.32.53a.86.86,0,0,1-.78.22c-.63-.14-.71.49-1.05.76a4.2,4.2,0,0,1-1.58.07c-.31,0-.62,0-.93,0-.9-.08-1-.27-.89-1.12a.7.7,0,0,1,.74-.35c.3,0,.6,0,.72-.34s.87-.45,1-1a.5.5,0,0,1,.15-.17.64.64,0,0,0,.48-.66A1,1,0,0,1,20.21,19.39Z"/><path class="cls-101" d="M24.33,21c.06-.61-.21-.89-.83-.8h0c-.24-.3-.56-.54-.79-.85l0-.79a.69.69,0,0,1-.08-.93,1.73,1.73,0,0,1,1.72-.08.71.71,0,0,1,.34.75.73.73,0,0,0,.64.91c.22.22.42.1.65,0a.72.72,0,0,1,1,.27.65.65,0,0,1-.21.73c0,.28,0,.55,0,.83l0,.78a1.23,1.23,0,0,1-2-.3A2.81,2.81,0,0,0,24.33,21Z"/><path class="cls-102" d="M22.68,17.74c0,.28,0,.55,0,.83-.27,0-.62.07-.78-.15-.66-.88-1.59-.65-2.47-.68,0-.93,0-1.85,0-2.77.81-.58,1.71-.1,2,1,.08.38,0,.85.5,1C22.15,17.27,22.56,17.34,22.68,17.74Z"/><path class="cls-103" d="M18.58,20.18l0-.79h.8a1.09,1.09,0,0,1,0,1.63h0a.6.6,0,0,1-.86,0C18.28,20.77,18.36,20.47,18.58,20.18Z"/><path class="cls-104" d="M19.42,21l0-1.63h.81c0,.27,0,.54,0,.81C20.3,20.82,20.06,21.11,19.42,21Z"/><path class="cls-100" d="M22.7,19.36c.61,0,.88.23.79.85C22.84,20.28,22.61,20,22.7,19.36Z"/><path class="cls-3" d="M21.85,17.25c-.52,0-.74-.31-.81-.82C20.9,15.3,20.55,15,19.43,15V12.81c.75-.34.93-.24,1.14.6,0,.44.2.63.62.67s.72,0,.89.44a4.12,4.12,0,0,1,0,2.36A.5.5,0,0,1,21.85,17.25Z"/><path class="cls-105" d="M20.26,13.62c.06-.62-.23-.87-.83-.81V12H21c0,.59.25.88.85.82l0,.8A1.09,1.09,0,0,1,20.26,13.62Z"/><path class="cls-106" d="M57.07,23.48c-.06-.62.17-.95.84-.82l0,.8a.65.65,0,0,1,0,.91.71.71,0,0,1-.93,0A.64.64,0,0,1,57.07,23.48Z"/><path class="cls-107" d="M59.54,21.83l0-.82a.55.55,0,0,1,0-.81l.06,0,.77,0c0,.55,0,1.09,0,1.63Z"/><path class="cls-108" d="M57.92,24.28c0-.27,0-.54,0-.82.61-.06.86.23.82.81l-.06.12a.5.5,0,0,1-.71,0Z"/><path class="cls-109" d="M58.75,21.86l.79,0c.11.66-.2.9-.83.81A.51.51,0,0,1,58.75,21.86Z"/><path class="cls-110" d="M58.75,21.86l0,.78h-.8C57.82,22,58.12,21.76,58.75,21.86Z"/><path class="cls-111" d="M59.54,24.3l.06.8a.48.48,0,0,1-.19.21.66.66,0,0,1-.81-.17.61.61,0,0,1,.11-.82l0-.05Z"/><path class="cls-112" d="M21.89,16.91l0-2.44a.5.5,0,0,1,.8,0l0,.8c0,.54,0,1.09,0,1.64A.51.51,0,0,1,21.89,16.91Z"/><path class="cls-113" d="M22.67,14.48H21.06c-.54,0-.88-.23-.8-.84l1.64,0,.77,0Z"/><path class="cls-114" d="M12.05,24.31l.78,0a.58.58,0,0,1,.52-.12,2.12,2.12,0,0,0,1.44.61.72.72,0,0,1,.69.32,1.4,1.4,0,0,1,.15.85,1.4,1.4,0,0,1-.17.87.7.7,0,0,1-.81.2.66.66,0,0,1-.24-.11c-.27-.77-1.09-.45-1.58-.79-.25-.33-.44-.73-.89-.86a.54.54,0,0,1-.13-.22A.6.6,0,0,1,12.05,24.31Z"/><path class="cls-115" d="M13.34,24.31l-.51,0c0-.26,0-.52,0-.77l.79-.05,0,.06C14,24,14.06,24.31,13.34,24.31Z"/><path class="cls-116" d="M12.05,24.31l0,.77c-.24.32-.51.27-.79.05v-.79Z"/><path class="cls-117" d="M11.23,25.13l.79-.05,0,.07a.58.58,0,0,1,0,.86.63.63,0,0,1-.88-.07h0Z"/><path class="cls-118" d="M13.34,24.31c.4-.14.32-.5.36-.8.57,0,.88-.21.8-.82l.8-.06.12.06a.89.89,0,0,1,.23.72c0,.46.35.46.66.5s.71.08.86.47a.75.75,0,0,1-.16.86,1.34,1.34,0,0,1-1.69-.12,8.61,8.61,0,0,0-.88,0A.91.91,0,0,1,13.34,24.31Z"/><path class="cls-119" d="M18.58,20.18c-.06.62.2.92.84.85,0,.4,0,.71-.52.86s-.42,1-1.14.74c-.21-.33-.72-.36-.82-.8l0-.77c.59,0,.9-.21.83-.83Z"/><path class="cls-120" d="M16.94,21.83c.57,0,.92.15.82.8l-.79.06a.66.66,0,0,1-.89,0,.6.6,0,0,1,.06-.88v0Z"/><path class="cls-121" d="M16.14,21.85v.81l-.08.11a.52.52,0,0,1-.73-.08l0-.06,0-.77Z"/><path class="cls-122" d="M21.07,41.52l.78,0c.3-.25.56-.54.83-.81v0c.31-.23.54-.55.85-.79h0a5.34,5.34,0,0,1,.85-.8l.77,0c.3-.25.55-.54.84-.8l0,0c.3-.25.54-.55.85-.79h0a.62.62,0,0,1,.85-.13,1,1,0,0,1,.27.82,1.93,1.93,0,0,1-1.28,2.27c-.92.48-1.9.89-2.79,1.45a1.27,1.27,0,0,0-.88.76,1.37,1.37,0,0,1-.77.78c-.9.37-1.47,0-1.46-1.09A.74.74,0,0,1,21.07,41.52Z"/><path class="cls-123" d="M19.25,43.16l-.65,0c-.08-.59.17-.86.78-.82.27,0,.54,0,.82,0l.13.1a.59.59,0,0,1-.13.87A.67.67,0,0,1,19.25,43.16Z"/><path class="cls-124" d="M27.62,37.43H26.8c-.1-.64.2-.88.81-.84.27,0,.54,0,.8,0v.81A.54.54,0,0,1,27.62,37.43Z"/><path class="cls-125" d="M15.3,45.59c.1.63-.21.87-.82.83a6.94,6.94,0,0,0-.79,0c-.1-.64.2-.88.81-.84C14.77,45.61,15,45.59,15.3,45.59Z"/><path class="cls-126" d="M12,48c.1.65-.18.91-.82.81C11.14,48.24,11.43,48,12,48Z"/><path class="cls-127" d="M29.26,35.79c.06.61-.22.88-.84.8C28.34,35.94,28.62,35.68,29.26,35.79Z"/><path class="cls-128" d="M23.52,39.87c.08.65-.23.89-.85.79C22.61,40,22.9,39.77,23.52,39.87Z"/><path class="cls-129" d="M22.68,40.68c.08.63-.21.9-.83.81C21.79,40.87,22.05,40.59,22.68,40.68Z"/><path class="cls-130" d="M21.07,41.52l0,.79a.52.52,0,0,1-.8,0l0,0C20.16,41.67,20.45,41.41,21.07,41.52Z"/><path class="cls-131" d="M18.59,43.14l0,.66c-.18.51-.5.4-.84.19v-.07C17.69,43.29,18,43.07,18.59,43.14Z"/><path class="cls-132" d="M26.8,37.42c.08.65-.24.87-.85.79C25.9,37.59,26.17,37.32,26.8,37.42Z"/><path class="cls-133" d="M24.36,39.07c.05.62-.23.88-.85.8C23.42,39.21,23.72,39,24.36,39.07Z"/><path class="cls-134" d="M26,38.23c.06.62-.21.9-.84.8C25.06,38.4,25.34,38.14,26,38.23Z"/><path class="cls-135" d="M48.07,41.52l-.79-.05c-.27-.6-.15-1,.4-1.09a1.68,1.68,0,0,1,1.67.32,1.68,1.68,0,0,0,1.09.46c.53,0,1.05-.06,1.58-.06a.76.76,0,0,0,.82-.49.73.73,0,0,1,.23-.16,3.33,3.33,0,0,1,1.57-.09.81.81,0,0,1,.8.32v.82h0c-.48.49-1.28.47-1.69,1.06a14.9,14.9,0,0,1-3.89.1C48.85,42.92,48.57,42.05,48.07,41.52Z"/><path class="cls-136" d="M52.2,34.11c-1.32,0-.69,1-.83,1.6a.38.38,0,0,1-.13.22.65.65,0,0,1-.73,0c-.26-.34-.47-.78-1-.64A1.86,1.86,0,0,1,48,35a.78.78,0,0,1-.08-.84l0-.07a2.6,2.6,0,0,0,1.77-1.78,2.16,2.16,0,0,1,1.58-.1c.36.35.57.85,1.05,1.09A.64.64,0,0,1,52.2,34.11Z"/><path class="cls-137" d="M53,30.85a8.58,8.58,0,0,0,.88,0c.6-.05.84.23.81.8l-.86,0a.59.59,0,1,1-.83-.82Z"/><path class="cls-138" d="M55.44,40.68h-.82a1.2,1.2,0,0,1-.19-1.48.48.48,0,0,1,.23-.17c.56,0,.86.17.79.78A8.58,8.58,0,0,0,55.44,40.68Z"/><path class="cls-139" d="M52.2,34.11l-.05-.76a.37.37,0,0,1,.15-.22c.24-.2.53-.13.81-.14a.93.93,0,0,1,.82.27.61.61,0,0,1-.14.84Z"/><path class="cls-140" d="M53.79,34.1v-.81a.52.52,0,0,1-.15-.69.36.36,0,0,1,.21-.13c.69-.07.78.32.78.9S54.35,34.18,53.79,34.1Z"/><path class="cls-141" d="M53.05,31.66h.76c0,.26,0,.53,0,.8l-.07,0a.61.61,0,0,1-.72.2.6.6,0,0,1-.22-.16.66.66,0,0,1,0-.75A.34.34,0,0,1,53.05,31.66Z"/><path class="cls-142" d="M52.2,36.55c.58,0,.88.22.84.82a.39.39,0,0,1-.17.21.63.63,0,0,1-.88-.86A.39.39,0,0,1,52.2,36.55Z"/><path class="cls-143" d="M51.37,35.71c.56,0,.89.22.83.84l0,.06a.61.61,0,0,1-.87,0,.58.58,0,0,1,.06-.86Z"/><path class="cls-144" d="M53.84,38.18c.6,0,.88.23.82.84l-.06,0a.61.61,0,0,1-.81.12.61.61,0,0,1-.17-.81A.41.41,0,0,1,53.84,38.18Z"/><path class="cls-145" d="M53,37.37c.58,0,.86.21.8.81a.16.16,0,0,0,0,.07.59.59,0,1,1-.83-.83Z"/><path class="cls-146" d="M47.26,52.12h4.09l.12.1a.64.64,0,0,1-.09.88.89.89,0,0,1-.37.17,23,23,0,0,1-5.24-.07.68.68,0,0,1-.26-.18.61.61,0,0,1,.13-.86Z"/><path class="cls-147" d="M51.35,52.12c0-1.35,0-2.71,0-4.06,0-.28,0-.56.05-.84a.61.61,0,0,1,.9,0,1.23,1.23,0,0,1,.26.76c0,1.2.05,2.39,0,3.59a.88.88,0,0,1-.23.67.68.68,0,0,1-.93,0Z"/><path class="cls-148" d="M55.46,46.09l0,.33a.83.83,0,0,1-.8.32,5.64,5.64,0,0,1-2.35-.11.57.57,0,0,1-.24-.19.64.64,0,0,1,.16-.83c.89,0,1.78,0,2.67,0C55.2,45.61,55.44,45.7,55.46,46.09Z"/><path class="cls-149" d="M50.54,44v-.82a.49.49,0,0,1,.36-.3c1,0,2-.39,2.92.29V44Z"/><path class="cls-150" d="M52.19,45.61l-.06.79c-.24.29-.49.25-.75,0C51.26,45.77,51.55,45.51,52.19,45.61Z"/><path class="cls-151" d="M51.38,46.43l.75,0,.07,0a.53.53,0,0,1,.14.69.35.35,0,0,1-.2.14l-.76,0Z"/><path class="cls-152" d="M45.64,52.16l0,.76c-.24.33-.51.29-.79.06l0-.83Z"/><path class="cls-153" d="M53.81,43.13H49.73a.53.53,0,0,1,0-.8l4.09,0c.24.22.15.45,0,.68C53.82,43,53.81,43.08,53.81,43.13Z"/><path class="cls-154" d="M53.82,43c0-.23,0-.45,0-.68,0-.59.22-.85.82-.8.27,0,.54,0,.82,0,.05.48,0,.82-.64.85C54.37,42.36,54.2,42.85,53.82,43Z"/><path class="cls-97" d="M29.23,29.25c-.41,0-.76-.06-.87-.61-.07-.39-.61-.56-.87-.75-.51-.36-.65-1.29-1.52-1.14-.28-.26-.56-.54-.82-.82h0a.84.84,0,0,1-.32-.83,1.27,1.27,0,0,1,.2-.89.74.74,0,0,1,.82-.15,3.11,3.11,0,0,0,1.67.82.56.56,0,0,1,.2.11c.17.31.29.69.78.63a1.23,1.23,0,0,1,.68.09.53.53,0,0,1,.2.13c.14.32.3.63.69.71a.44.44,0,0,1,.17.16c.07.5.62.56.84.92a.79.79,0,0,1,0,.73,1.11,1.11,0,0,1-.9.41c-.28.05-.59,0-.74.36A.41.41,0,0,1,29.23,29.25Z"/><path class="cls-155" d="M34.15,34.13l-.83,0a.71.71,0,0,1-.3-.69c-.1-.6.09-1.28-.51-1.74-.59,0-.89-.2-.82-.82a.67.67,0,0,1-.12-.86,1.55,1.55,0,0,1,2.2.24c.15.16.34.25.49.41s.14.48.39.58a1.11,1.11,0,0,1,.65,1.31,6.14,6.14,0,0,1,0,1.05C35.06,34.39,34.88,34.48,34.15,34.13Z"/><path class="cls-18" d="M25.13,24.31v.81a.54.54,0,0,1-.82,0H21a.63.63,0,0,1-.15-.82.53.53,0,0,1,.22-.2A3.54,3.54,0,0,1,22.76,24a9.74,9.74,0,0,1,1.62,0C24.68,24,25,24,25.13,24.31Z"/><path class="cls-156" d="M32.51,31.68c.63-.09.89.19.83.82,0,.26,0,.53,0,.8a.53.53,0,0,1-.75.11l-.08-.12Z"/><path class="cls-157" d="M32.5,34.11l-.79,0c-.1-.62.17-.9.79-.85l0,0A.51.51,0,0,1,32.5,34.11Z"/><path class="cls-158" d="M31.7,30v.83l-.8,0a.59.59,0,0,1-.05-1,.65.65,0,0,1,.78,0Z"/><path class="cls-159" d="M30.87,30.05c0,.26,0,.53,0,.79-.61.09-.9-.16-.85-.78l.07-.12A.49.49,0,0,1,30.87,30.05Z"/><path class="cls-160" d="M30,30.06c-.57,0-.89-.19-.81-.81v-.07a.59.59,0,0,1,.88,0,.55.55,0,0,1,0,.8Z"/><path class="cls-161" d="M24.31,25.12h.82c0,.27,0,.54,0,.81C24.53,26,24.26,25.74,24.31,25.12Z"/><path class="cls-162" d="M25.15,25.93c.62-.08.89.2.82.82C25.34,26.83,25.07,26.56,25.15,25.93Z"/><path class="cls-163" d="M17,25.1v-.79A.56.56,0,0,1,17.6,24c.44.07.71-.23,1-.47l1.6-.05a.68.68,0,0,1,.81-.17.53.53,0,0,1,.21.21.66.66,0,0,1-.16.81h0c-.32.22-.54.55-.86.77l-.78.05a.84.84,0,0,1-.67.3c-.45-.08-.72.21-1,.48l0,0A.6.6,0,1,1,17,25.1Z"/><path class="cls-164" d="M14.5,26.8l.8-.06a.56.56,0,0,1,.71-.16.43.43,0,0,1,.15.2c0,.55-.22.84-.81.79a8.38,8.38,0,0,0-.87,0A.48.48,0,0,1,14.5,26.8Z"/><path class="cls-165" d="M14.5,26.8l0,.76h-1.6a.62.62,0,0,1-.08-.9,1.3,1.3,0,0,1,1.69.07Z"/><path class="cls-166" d="M16.94,25.91l.84,0c0,.59-.21.85-.81.81a7.3,7.3,0,0,0-.81,0l-.05-.05a.6.6,0,0,1-.05-.87A.62.62,0,0,1,16.94,25.91Z"/><path class="cls-167" d="M12.86,26.75c0,.27,0,.54,0,.81-.6.09-.91-.14-.86-.77l.05-.12a.51.51,0,0,1,.72,0A.41.41,0,0,0,12.86,26.75Z"/><path class="cls-168" d="M18.61,25.14h.82c.08.67-.24.88-.85.77A.49.49,0,0,1,18.61,25.14Z"/><path class="cls-169" d="M18.61,25.14l0,.77h-.82C17.71,25.3,18,25,18.61,25.14Z"/><path class="cls-170" d="M20.21,25.09c-.07-.66.24-.89.86-.77l0,.79-.15,0Z"/><path class="cls-171" d="M11.21,25.94l.83,0,.11.09a.5.5,0,0,1-.1.72l0,.06C11.43,26.81,11.13,26.56,11.21,25.94Z"/><path class="cls-172" d="M34.15,34.13c.48,0,.87-.05.83-.66a.59.59,0,0,1,.86,0c.28.2.65.25.9.51.28.87.15,1.15-.72,1.32-.71.14-1,.76-1.51,1.15-.19.15-.32.39-.57.44a3.6,3.6,0,0,0-2,1.39c-.28.31-.79.38-.94.85a4.49,4.49,0,0,0-2.39,1.62.36.36,0,0,1-.26.18,3.34,3.34,0,0,0-1.7.79c-.73.05-1.37.47-2.11.49-.46,0-.9,0-.68-.71.12,0,.33-.08.35-.15.16-.66.74-.53,1.16-.73a15.13,15.13,0,0,0,2.09-1.24c.27-.18.17-.76.16-1.17a.54.54,0,0,1,.81,0c.39,0,.77,0,.86-.49,0-.14.15-.29.27-.26.87.18,1.27-.54,1.86-.9.33-.21.27-.49.3-.77.38,0,.75,0,.86-.53s.47-.32.75-.3C33.92,35,34.24,34.77,34.15,34.13Z"/><path class="cls-173" d="M28.41,38.21H27.6l0-.79.8,0Z"/><path class="cls-174" d="M32.5,34.11l0-.78.8,0c0,.27,0,.54,0,.81Z"/><path class="cls-175" d="M60.35,26.74c.1.65-.18.91-.82.82a.61.61,0,0,1-.05-.87A.6.6,0,0,1,60.35,26.74Z"/><path class="cls-176" d="M58.74,27.55l-.84,0-.12-.1a.63.63,0,0,1,.11-.86.71.71,0,0,1,.9.05A.6.6,0,0,1,58.74,27.55Z"/><path class="cls-177" d="M58.74,27.55l0-.76.05-.12a.52.52,0,0,1,.68-.1.4.4,0,0,1,.15.19l-.07.8Z"/><path class="cls-178" d="M57.91,28.39H57.1a.55.55,0,0,1,0-.85c.27-.29.57-.21.86,0l0,0C57.9,27.86,57.9,28.12,57.91,28.39Z"/><path class="cls-179" d="M60.35,26.74l-.75,0-.08,0a.63.63,0,0,1-.15-.78.48.48,0,0,1,.2-.2.61.61,0,0,1,.78.19Z"/><path class="cls-5" d="M60.35,26l-.75,0c-.35-.24-.29-.52-.08-.81l.08,0C60.25,25,60.43,25.38,60.35,26Z"/><path class="cls-180" d="M57.92,27.55c-.59,0-.92.2-.82.85-.06.31.09.8-.47.75s-.32-.48-.35-.78a.19.19,0,0,1,0-.08c0-1.63.22-1.55-1.59-1.53l-.13-.08a.61.61,0,0,1,0-.85,3.29,3.29,0,0,1,2.29-.18l.24.09c.28.28.39.71.77.9l0,.11Z"/><path class="cls-181" d="M54.68,26.76a13.15,13.15,0,0,0,0,2.43l-.09,0c-.76.34-1,.18-1.1-.74,0-.32,0-.63,0-.95s-.05-.65.24-.89a.63.63,0,0,1,.88.1Z"/><path class="cls-182" d="M51.33,32.5H49.71l-.12-.09a.65.65,0,0,1,0-.83,1,1,0,0,1,.76-.25c.38,0,.54-.18.57-.54A6.11,6.11,0,0,0,51,29.75c.24-.83.45-.93,1.16-.52v1.61a.84.84,0,0,1,.3.77,1.42,1.42,0,0,1-.13.86.58.58,0,0,1-.21.2A.68.68,0,0,1,51.33,32.5Z"/><path class="cls-183" d="M52.19,29.23c-.67-.14-.91.19-.87.82a.64.64,0,0,1-.88.08c-.28-.26-.22-.59-.22-.92a1.16,1.16,0,0,1,.24-.91,2.48,2.48,0,0,1,1.71-.24,1.15,1.15,0,0,1,.91.28.62.62,0,0,1-.09.9Z"/><path class="cls-184" d="M53,29.24v-.83l.08-.12a.51.51,0,0,1,.72.08c0,.56.13.94.79.86.14.62-.16.8-.74.81S52.89,29.92,53,29.24Z"/><path class="cls-185" d="M52.17,31.66c0-.27,0-.55,0-.82H53c0,.27.05.54.07.81l-.08,0A.53.53,0,0,1,52.17,31.66Z"/><path class="cls-186" d="M50.55,41.49a1.82,1.82,0,0,1-1.6-.57,1,1,0,0,0-1.67.55c-.41,0-.61-.25-.9-.43-.66-.38-1.08-1.2-2-1.18h-2a.59.59,0,0,1-.21-.76,1,1,0,0,1,.9-.44c.38,0,.63-.18.6-.6a1.23,1.23,0,0,1,.26-.81c.52-.35,1.1-.18,1.66-.18a1.85,1.85,0,0,1,.87.1c.28.84,1.2.53,1.73.94.12.11.15.38.28.38,1.14,0,1.86,1.23,3.07,1a3.63,3.63,0,0,1,.65,0,1.39,1.39,0,0,1,.8.13.55.55,0,0,1,.2.2.65.65,0,0,1-.15.8l-.07,0c-.29.44-.75.35-1.16.37S50.86,41.07,50.55,41.49Z"/><path class="cls-187" d="M43.16,43.13H40.72a.62.62,0,0,1-.18-.78c.52-.5,1.29-.44,1.84-.86.57-.06.85.17.79.77A8.61,8.61,0,0,0,43.16,43.13Z"/><path class="cls-188" d="M42.38,41.48c0,.62-.21.92-.86.85a7.45,7.45,0,0,0-.82,0l-.11-.07a.65.65,0,0,1,0-.78,4,4,0,0,0,1-1,.61.61,0,0,1,.75.21Z"/><path class="cls-189" d="M49.71,42.33c0,.26,0,.53,0,.8-1.37,0-1.58-.18-1.66-1.61.38,0,.74-.06.86.46S49.41,42.28,49.71,42.33Z"/><path class="cls-190" d="M42.32,40.7l-.79,0-.13-.08a1.46,1.46,0,0,1,0-1.56.64.64,0,0,1,.8-.19.41.41,0,0,1,.18.23c0,.26,0,.52,0,.78S42.34,40.42,42.32,40.7Z"/><path class="cls-191" d="M31.7,48.87l-1.66,0c-.39,0-.76,0-.85-.54s-.49-.24-.76-.31c-.6-.44-.31-1.06-.34-1.62a1.32,1.32,0,0,1,.23-.9,1.94,1.94,0,0,1,1.59-.23c.46.17.43.87,1,.93a.85.85,0,0,1,.17.16c.3.52,0,1.25.62,1.66Z"/><path class="cls-192" d="M31.69,48c-.58.07-.86-.15-.82-.76a8.62,8.62,0,0,0,0-.88.61.61,0,0,1,.67-.3,1.3,1.3,0,0,0,1.61-1.22.45.45,0,0,1,.19-.11c.6-.05.86.23.79.82v.16c0,1.46,0,1.47-1.43,1.47C32.14,47.22,31.59,47.21,31.69,48Z"/><path class="cls-193" d="M37.42,44c-.27,0-.53,0-.79,0-.61-.05-.91.19-.83.82-.62.08-.88-.2-.83-.81,0-.26,0-.53,0-.79s.46-.36.78-.35.61,0,.92,0c.92.07,1.06.24.87,1.06Z"/><path class="cls-194" d="M33.34,44l0,.8H33.3a.6.6,0,0,1-.9,0,1.62,1.62,0,0,1,0-1.77.8.8,0,0,1,1,0A.65.65,0,0,1,33.34,44Z"/><path class="cls-195" d="M35.78,43.13l-.81,0h-.81L34,43.09a.66.66,0,0,1,.05-.87A1.18,1.18,0,0,1,35,42a1,1,0,0,1,.89.26A.61.61,0,0,1,35.78,43.13Z"/><path class="cls-196" d="M33.34,44v-.8c.24-.33.51-.28.8-.07v.08C34.25,43.82,33.91,44,33.34,44Z"/><path class="cls-197" d="M40.7,42.32c0,.27,0,.53,0,.8-.62,0-.9.22-.84.85a7.3,7.3,0,0,1,0,.81.55.55,0,0,1-.82,0,7.12,7.12,0,0,0-.8,0c-.62.07-.89-.19-.84-.81l0,0a1.24,1.24,0,0,0,.41-1.1,3.53,3.53,0,0,1,.21-1.44A.59.59,0,0,1,39,41.2c.5.52,1.2.68,1.73,1.12Z"/><path class="cls-198" d="M39.06,44.78h.82c0,.54,0,1.09,0,1.63H37.1v-.82c.37,0,.75,0,1.13,0C38.83,45.65,39.16,45.43,39.06,44.78Z"/><path class="cls-199" d="M28.4,46.4l0,1.64c0,.56-.14.94-.81.82,0-.81,0-1.62-.05-2.42l.06,0A.51.51,0,0,1,28.4,46.4Z"/><path class="cls-200" d="M23.53,45.62c0,.59-.25.83-.83.8a7.22,7.22,0,0,0-.8,0,.43.43,0,0,1-.22-.2c-.06-.76.11-1,.82-1a1.4,1.4,0,0,1,.85.15A.58.58,0,0,1,23.53,45.62Z"/><path class="cls-201" d="M25.14,45.59l-1.61,0-.05,0c-.3-.75-.13-1.08.63-1.13a1.4,1.4,0,0,1,1.09.2.68.68,0,0,1-.06,1Z"/><path class="cls-202" d="M21.9,46.45l0,.76-.1.13a.6.6,0,0,1-.86-.15.64.64,0,0,1,.16-.86.58.58,0,0,1,.8.06Z"/><path class="cls-203" d="M22.7,47.23l0,.79-.82.07V48a.49.49,0,0,1,0-.77l0,0Z"/><path class="cls-204" d="M14.48,49.68c-.06-.72.21-1,.95-.83a3,3,0,0,0,.73,0c0,.27,0,.53,0,.8h0a.78.78,0,0,1-.76.31,1,1,0,0,1-.82-.19Z"/><path class="cls-205" d="M20.23,48.88h-.81c-.58,0-.92-.15-.82-.8l0,0a.9.9,0,0,1,.84-.3,1.06,1.06,0,0,1,.89.25.61.61,0,0,1-.09.87Z"/><path class="cls-206" d="M16.94,48.85c-.06-.64.23-.89.86-.77C17.86,48.72,17.55,49,16.94,48.85Z"/><path class="cls-207" d="M12.05,52.11l0-.77c.44-.6,1.07-.31,1.64-.34.33,0,.67,0,.84.36l0,.75A14.09,14.09,0,0,1,12.05,52.11Z"/><path class="cls-208" d="M25.14,45.6l0-.81a.54.54,0,0,1,.62-.33c.51.09.71-.25.89-.62a.55.55,0,0,1,.24-.12.73.73,0,0,1,.8.17,1.51,1.51,0,0,1,.08,1.56.46.46,0,0,1-.24.17Z"/><path class="cls-209" d="M28.4,46.4h-.77c0-.26-.05-.52-.07-.77l.06-.06a.53.53,0,0,1,.68-.15.33.33,0,0,1,.16.19Z"/><path class="cls-210" d="M15.32,49.7h.81v.84l0,.78H15.3A.81.81,0,0,1,15,50.5.78.78,0,0,1,15.32,49.7Z"/><path class="cls-211" d="M15.31,50.5v.81l-.79,0-.82,0a.64.64,0,0,1-.12-.88c.24-.3.57-.26.89-.25A.88.88,0,0,1,15.31,50.5Z"/><path class="cls-212" d="M20.22,48.86V48a.61.61,0,0,1,.07-.1A.49.49,0,0,1,21,48l.06.12v.77Z"/><path class="cls-213" d="M21.87,47.25V48l-.83,0,0-.06a.48.48,0,0,1-.14-.71l.1-.09Z"/><path class="cls-214" d="M45.63,56.27c-.6,0-.88-.24-.83-.88s0-1.08,0-1.61a.61.61,0,0,1,.77-.18.48.48,0,0,1,.21.19,1.38,1.38,0,0,1,.14.82,8,8,0,0,1,0,.85.73.73,0,0,1-.32.74Z"/><path class="cls-215" d="M45.61,53.78h-.79V53l.79-.06,0,.07A.49.49,0,0,1,45.61,53.78Z"/><path class="cls-216" d="M51.34,60.17v-3.9a.64.64,0,0,1,.91-.14,1.08,1.08,0,0,1,.3.9c0,1.62.08,3.25,0,4.88a.93.93,0,0,1-.31.87h-.83C51.36,61.92,51.35,61,51.34,60.17Z"/><path class="cls-217" d="M55.48,52.14l4.39,0c.44,0,.87.06,1.3,0,.65,0,.92.19.82.84a.93.93,0,0,1-.86.3c-1.6.13-3.21.06-4.82.05a1.69,1.69,0,0,1-.79-.18.62.62,0,0,1-.26-.81A.41.41,0,0,1,55.48,52.14Z"/><path class="cls-218" d="M62,56.21l-6.52,0-.13-.1c-.18-.8,0-1.06.79-1.09a48.45,48.45,0,0,1,5,0,.93.93,0,0,1,.87.32Z"/><path class="cls-219" d="M62,55.41h-.8a.8.8,0,0,1-.3-.76,1.48,1.48,0,0,1,.12-.83.53.53,0,0,1,.21-.21.6.6,0,0,1,.78.18Z"/><path class="cls-220" d="M62,53.79l-.79,0a.49.49,0,0,1,0-.78H62Z"/><path class="cls-221" d="M55.47,56.26q0,3.2,0,6.37a11.58,11.58,0,0,1-3.27.15V62c.26-.35.65-.33,1-.38.79-.08,1-.27,1-1.08,0-1.22,0-2.44.05-3.66.07-.78.39-.94,1.14-.64Z"/><path class="cls-222" d="M13.68,50.53v.79l-1.66,0-.8-.05v-.76a.81.81,0,0,1,.84-.34C12.63,50.21,13.25,49.92,13.68,50.53Z"/><path class="cls-223" d="M12.05,50.49l-.81,0c0-.28,0-.55,0-.83H12A.52.52,0,0,1,12.05,50.49Z"/><path class="cls-129" d="M26,44.75l-.79,0a8.42,8.42,0,0,1-.87,0c-.59-.06-.82.24-.81.79a7.3,7.3,0,0,1-.81,0c-.59,0-.85.22-.82.8-.59,0-.9.19-.82.82l0,0a.77.77,0,0,1-.66.31c-.44-.08-.71.23-1,.48h-.81c0-.31.08-.67-.36-.79-.25-.08-.46-.19-.4-.5s.39-.35.65-.33a1.52,1.52,0,0,0,1.47-.65,1.6,1.6,0,0,0,.29-1c.08-.66-.58-.4-.83-.67a1.56,1.56,0,0,1-.15-1c.57,0,1.07-.07,1-.83l.8,0c0,.34-.07.77.46.8a1,1,0,0,0,1.12-.74c.17-.66.52-1,1.22-.86.16.65.67.41,1,.27a3.77,3.77,0,0,1,1.81-.28c.67.43.48,1.1.48,1.73a.78.78,0,0,1-.32.73h0A10.39,10.39,0,0,1,26,44.75Z"/><path class="cls-204" d="M12.05,50.49c0-.26,0-.53,0-.79l2.45,0h0a.52.52,0,0,1,0,.79l-.81.05Z"/><path class="cls-224" d="M19.4,44.11a1.1,1.1,0,0,1,.77-.15c.32,0,.79-.13.83.38s-.45.39-.77.44S19.36,44.73,19.4,44.11Z"/><path class="cls-129" d="M17.77,44c.28-.07.59,0,.84-.19.24.16.46.33.27.66a.62.62,0,0,1-.7.29C17.71,44.69,17.79,44.3,17.77,44Z"/><path class="cls-225" d="M30.91,25.09h.8l.79.05c.31.23.54.56.85.78l.8.06c0,.53,0,1.05,0,1.58-.65.67-1.44.38-2.2.31l-.25-.1c-.29-.27-.38-.83-1-.69a.73.73,0,0,1-.65-.32h0c-.3-.24-.54-.55-.84-.8h0c-.27-.41-.84-.5-1-1,0-.86.29-1,1.06-.65h.8A10.73,10.73,0,0,0,30.91,25.09Z"/><path class="cls-226" d="M34.17,30.85a.82.82,0,0,1-.89-.47c-.33-.66-1.05-.24-1.58-.35h0a.66.66,0,0,1-.12-.88c.22-.3.55-.27.87-.26s.6,0,.91,0a.8.8,0,0,1,.79.34c0,.36-.06.74.48.83s.32.47.37.77A.52.52,0,0,1,34.17,30.85Z"/><path class="cls-227" d="M34.15,29.23l-.8,0a1.17,1.17,0,0,0-1-.48.79.79,0,0,1-.77-.3.63.63,0,0,1,.17-.86h2.42C34.14,28.11,34.15,28.67,34.15,29.23Z"/><path class="cls-228" d="M36.61,31.65c.35.08.8-.09.85.56,0,.45.51.23.79.28l.12.11c.14.74,0,1-.67,1a4.56,4.56,0,0,1-1.38,0c-.47-.07-.82-.29-.81-.84a2.76,2.76,0,0,1,.08-.27c.24-.35.73-.42.91-.83Z"/><path class="cls-229" d="M37.41,27.61l0,.75c-.26.33-.55.27-.84,0l-.83,0a.54.54,0,0,1-.81,0c-.08-.64.27-.84.84-.82Z"/><path class="cls-230" d="M34.17,30.85l.83,0,.78,0a.8.8,0,0,1,.32.81.8.8,0,0,1-.3.81l0,0a.5.5,0,0,1-.77,0c0-.35.05-.75-.5-.84S34.19,31.15,34.17,30.85Z"/><path class="cls-231" d="M38.25,32.49v-.86a1.34,1.34,0,0,1,1.7-.05.77.77,0,0,1,.07,1c-.23.32-.57.29-.91.28a1,1,0,0,1-.87-.3Z"/><path class="cls-232" d="M39.88,31.67l-1.63,0c-.08-.63.26-.84.83-.8a.62.62,0,0,1,.84-.09.61.61,0,0,1,.08.84Z"/><path class="cls-233" d="M38.25,28.35l.82,0v0a.73.73,0,0,1,.32.71c0,.27.07.55-.11.79a.42.42,0,0,1-.21.16c-.59,0-.91-.21-.81-.85a.51.51,0,0,1,0-.79Z"/><path class="cls-234" d="M36.61,28.39l.84,0,0,.05a.5.5,0,0,1,0,.77C36.81,29.29,36.5,29.06,36.61,28.39Z"/><path class="cls-235" d="M37.44,29.18v-.77h.82v.79Z"/><path class="cls-236" d="M35.79,31.66c0-.27,0-.53,0-.8.61-.1.89.16.83.79v.06A.56.56,0,0,1,35.79,31.66Z"/><path class="cls-237" d="M39.89,30.89l-.81-.06c0-.26,0-.51,0-.77l0-.07a.64.64,0,0,1,.82-.11.65.65,0,0,1,.19.8A.58.58,0,0,1,39.89,30.89Z"/><path class="cls-238" d="M35,28.37l.81,0c0,.3.12.74-.38.75S35,28.69,35,28.37Z"/><path class="cls-239" d="M48.91,25.12a1.38,1.38,0,0,0,1.43-.77,1.66,1.66,0,0,1,1.89-.88c.24,0,.49,0,.74,0a.62.62,0,0,1-.27,1.12c-.85.08-1,.64-1,1.35a1.52,1.52,0,0,1-.11.76.6.6,0,0,1-.14.21,1.71,1.71,0,0,1-.76.22.92.92,0,0,0-.87.57,1.13,1.13,0,0,0-.57.55.74.74,0,0,1-.71.47,1.76,1.76,0,0,0-1.36.71c-.95.05-1.12-.18-1-1.32a1.13,1.13,0,0,1,.52-.94A3.14,3.14,0,0,0,47.79,26C48,25.54,48.62,25.53,48.91,25.12Z"/><path class="cls-240" d="M48.91,25.12c0,.38,0,.74-.51.85s-.3.69-.7.92a10,10,0,0,0-1.26,1,2.58,2.58,0,0,0-.56,1,1.8,1.8,0,0,1-2,1c-.35-.43-.45-1-.76-1.45a2.27,2.27,0,0,1,1.58-1.63c.41,0,.83,0,.93-.55,0-.05.06-.13.08-.12,1,.17,1.45-.88,2.32-1Z"/><path class="cls-241" d="M53,24.29c0-.27,0-.55,0-.82s0-.54.05-.8h.81a.86.86,0,0,1,.3.82c0,.91-.14,1-1,1A.56.56,0,0,1,53,24.29Z"/><path class="cls-242" d="M39.87,28.41l1.65,0h.84A1.31,1.31,0,0,1,42.51,30a.72.72,0,0,1-.8.27,1.3,1.3,0,0,1-.25-.1c-.22-.35-.41-.76-1-.65a.76.76,0,0,1-.76-.27A.66.66,0,0,1,39.87,28.41Z"/><path class="cls-243" d="M42.35,30c0-.54,0-1.08,0-1.62h.8c1.12-.09.75.75.83,1.32s-.3.63-.72.64-.61,0-.85-.2Z"/><path class="cls-244" d="M29.26,16.92l0,.83h0a.63.63,0,0,1-.79.18.58.58,0,0,1-.21-.2.66.66,0,0,1,.17-.8h.85Z"/><path class="cls-245" d="M26.8,15.32l.81,0c0,.26,0,.52,0,.78C27,16.17,26.7,16,26.8,15.32Z"/><path class="cls-246" d="M24.33,21c.24,0,.6-.07.67.17.32,1,1.13.55,1.76.64,0,.28,0,.55,0,.82-.6,0-.92.19-.83.83l-.08.13a3.26,3.26,0,0,1-2.36.12A1.28,1.28,0,0,0,22.4,23a.52.52,0,0,1-.55-.38c0-.59.21-.85.81-.8.27,0,.55,0,.81,0C24.1,21.91,24.39,21.65,24.33,21Z"/><path class="cls-247" d="M29.25,24.29c-.58-.05-.92.15-.82.8l-.08.12a.53.53,0,0,1-.75-.09h0a3,3,0,0,0-.63-.48c-.42-.25-.53-.58-.19-1,.15-.37.43-.28.72-.24a7.42,7.42,0,0,0,.94.06l.79.06Z"/><path class="cls-248" d="M26.78,23.64c0,.27,0,.58.33.63.54.09.48.48.49.84-.26,0-.53,0-.79,0-.6,0-.92-.18-.86-.82a.55.55,0,0,1,0-.81l0,0A1.62,1.62,0,0,0,26.78,23.64Z"/><path class="cls-249" d="M39.87,28.41l0,.77c-.27.32-.55.26-.83,0V28.4Z"/><path class="cls-250" d="M33.35,25.91c-.61.11-.93-.12-.85-.78h.8C33.32,25.39,33.34,25.65,33.35,25.91Z"/><path class="cls-251" d="M28.39,19.37H27.6l-.13-.08a1.13,1.13,0,0,1,.14-1.55h0a.52.52,0,0,1,.81,0h0a.57.57,0,0,1,0,.84Z"/><path class="cls-252" d="M28.44,18.58l0-.84h.83c0,.27,0,.53,0,.8Z"/><path class="cls-253" d="M30.91,25.09c-.63.11-.92-.15-.86-.79l.81,0Z"/><path class="cls-254" d="M26.78,20.21l0-.85.09-.11a.56.56,0,0,1,.76.13h0l0,.8Z"/><path class="cls-255" d="M54.64,22.68l1.63,0,0,.82c.36.82.18,1.08-.81,1.15s-1.11-.14-1.16-1.06A.9.9,0,0,1,54.64,22.68Z"/><path class="cls-256" d="M55.44,24.32c.62.05.92-.22.85-.85h.78c0,.26,0,.53,0,.79a.69.69,0,0,1,.05.93,1.66,1.66,0,0,1-1.78.05A.65.65,0,0,1,55.44,24.32Z"/><path class="cls-257" d="M56.28,21.85c-.09-.64.18-.91.81-.83C57.16,21.63,56.89,21.91,56.28,21.85Z"/><path class="cls-258" d="M59.54,20.2l0,.81c-.58.08-.86-.16-.79-.76Z"/><path class="cls-259" d="M54.64,22.68l0,.81a.51.51,0,0,1-.78,0v-.8Z"/><path class="cls-260" d="M24.35,18.55l-.05-.79a.55.55,0,0,1,0-.81l.84,0a7.12,7.12,0,0,0,.8,0c.64-.06.9.23.86.84a1,1,0,0,1,0,1.59h0c-.28,0-.65-.12-.77.27s-.13.63-.55.52-.22-.5-.3-.76C24.88,19.1,24.58,18.86,24.35,18.55Z"/><path class="cls-261" d="M26.76,19.35c0-.53,0-1.06,0-1.59h.81v1.63Z"/><path class="cls-262" d="M28.42,17.75h-.81c-.1-.63.18-.9.8-.83Z"/><path class="cls-263" d="M24.3,17v.81l-1.62,0c-.37,0-.78.05-.83-.49,0-.12,0-.23,0-.34h.81l.82,0Z"/><path class="cls-264" d="M17.76,24.28l-.8,0a7.09,7.09,0,0,0-.8,0c-.62.05-.93-.18-.85-.82l.83-.83h0l.84,0c-.1.65.25.83.81.8A.51.51,0,0,1,17.76,24.28Z"/><path class="cls-265" d="M21.85,22.63a8.88,8.88,0,0,0,.89,0c.61,0,.85.23.75.82-.17.35-.5.33-.82.33-.57,0-1.17.21-1.62-.33h0a.51.51,0,0,1,0-.79Z"/><path class="cls-266" d="M21.07,22.69c0,.26,0,.53,0,.79l-.85,0C20.15,22.82,20.45,22.58,21.07,22.69Z"/><path class="cls-267" d="M17.76,24.28c0-.26,0-.53,0-.79l.82,0C18.65,24.13,18.36,24.38,17.76,24.28Z"/><path class="cls-268" d="M24.35,18.55c.62-.06.87.24.79.84C24.52,19.44,24.23,19.19,24.35,18.55Z"/><path class="cls-269" d="M57.09,25.1l0-.83h.8a.91.91,0,0,1,.31.85c0,.32.05.66-.24.9a.67.67,0,0,1-.9-.1v0A.54.54,0,0,1,57.09,25.1Z"/><path class="cls-270" d="M57.91,25.1v-.81l.79,0,0,.76-.08.12A.53.53,0,0,1,57.91,25.1Z"/><path class="cls-271" d="M59.52,25.12l.08.81h-.08a.58.58,0,0,1-.86.07.6.6,0,0,1,.05-.87l0-.06Z"/><path class="cls-272" d="M16.94,25.91l-.79.05a.58.58,0,0,1-.84,0v-.83l1.63,0Z"/><path class="cls-273" d="M14.49,26.73l-1.63,0h0a.53.53,0,0,1-.12-.73l.11-.09a8.61,8.61,0,0,0,.88,0C14.32,25.88,14.57,26.14,14.49,26.73Z"/><path class="cls-274" d="M12,25.92l0-.77c.67-.15.88.17.79.78h0a.56.56,0,0,1-.83,0Z"/><path class="cls-275" d="M15.31,26h.84c0,.26,0,.52,0,.77H15.3Z"/><path class="cls-276" d="M16.14,22.65c.09.64-.2.9-.83.83v-.79Z"/><path class="cls-277" d="M50.55,41.49c-.08-.6.18-.85.78-.82s1.08,0,1.62,0c.13.6-.12.84-.72.82S51.11,41.49,50.55,41.49Z"/><path class="cls-278" d="M53,40.67l0-.81c.32-.24.41-.71.85-.84l.76,0,0,1.61Z"/><path class="cls-279" d="M48.09,34.12v.81l-.07.13c-.22.25-.53.21-.81.21a7.31,7.31,0,0,1-1.62,0A1.09,1.09,0,0,1,44.7,35a.77.77,0,0,1,0-.93c.76-.54,1.61-.29,2.44-.27.3,0,.62,0,.87.19Z"/><path class="cls-280" d="M49.71,32.51c0,1.69.31,1.63-1.62,1.61h0a.66.66,0,0,1-.19-.78,6.88,6.88,0,0,0,1-1,.63.63,0,0,1,.78.17Z"/><path class="cls-281" d="M48.08,34.93l1.63,0a.65.65,0,0,1,.09.92,1.61,1.61,0,0,1-1.76,0,.6.6,0,0,1,.05-.9Z"/><path class="cls-282" d="M51.33,32.5h.79c.35.23.31.5.07.79a.43.43,0,0,1,0,.07C51.55,33.39,51.26,33.12,51.33,32.5Z"/><path class="cls-283" d="M49.73,35.75l0-.79c.65-.14.92.13.87.77a.39.39,0,0,1-.17.21A.47.47,0,0,1,49.73,35.75Z"/><path class="cls-284" d="M51.35,35.79l0,.76-.09.13a.57.57,0,0,1-.81-.07.55.55,0,0,1,0-.81l.08-.07Z"/><path class="cls-285" d="M52.19,33.28c0-.26,0-.53-.07-.79a.11.11,0,0,1,.08,0,.52.52,0,0,1,.79,0l0,0a.57.57,0,0,1,0,.83Z"/><path class="cls-286" d="M53,33.29l0-.83.77,0v.79Z"/><path class="cls-287" d="M53,32.49H52.2l0-.83.8,0Z"/><path class="cls-288" d="M51.37,36.55l.79.06,0,.76-.08.13a.6.6,0,0,1-.84,0,.57.57,0,0,1,.08-.83Z"/><path class="cls-289" d="M53,37.42l0,.77-.1.13a.55.55,0,0,1-.8-.08.53.53,0,0,1,.06-.8v-.07Z"/><path class="cls-290" d="M53.84,39c0,.62-.2.93-.85.84h0a.81.81,0,0,1-.3-.8.78.78,0,0,1,.29-.8l0-.07.79.06Z"/><path class="cls-291" d="M55.43,47.23l0,4.91-.07,0a.64.64,0,0,1-.91,0,.76.76,0,0,1-.21-.52,34.59,34.59,0,0,1,0-3.81,1.19,1.19,0,0,1,.24-.68A.61.61,0,0,1,55.43,47.23Z"/><path class="cls-292" d="M55.43,47.23l-.77.05a.39.39,0,0,1-.2-.16.52.52,0,0,1,.15-.69h.81Z"/><path class="cls-293" d="M45.61,53.78l0-.79,5.72,0,.12.1a.7.7,0,0,1-.1.91,1.21,1.21,0,0,1-.78.2c-1.34,0-2.67,0-4,0a1.08,1.08,0,0,1-1-.37Z"/><path class="cls-294" d="M51.37,52.19l.79,0a.6.6,0,0,1,.1.89.66.66,0,0,1-.91,0v0C51.36,52.69,51.36,52.44,51.37,52.19Z"/><path class="cls-295" d="M52.16,53v-.84c0-1.63,0-3.26,0-4.89l.06,0a2.07,2.07,0,0,1,2.41,0l0,.07c0,1.62,0,3.24,0,4.86a.76.76,0,0,1,.31.65c-.09.5.24.7.61.88a.61.61,0,0,1,.13.22.84.84,0,0,1-.1.78.9.9,0,0,1-1.3-.08,1.22,1.22,0,0,0-1.79-.05c-.28.21-.55.34-.88.13s-.17-.58,0-.87A1.7,1.7,0,0,1,52.16,53Z"/><path class="cls-296" d="M54.61,47.21l-2.41,0v-.81h2.41Z"/><path class="cls-297" d="M22.71,23.5l.78,0,2.46,0v.81h-.82l-2.46,0A.49.49,0,0,1,22.71,23.5Z"/><path class="cls-298" d="M30.08,30c.07-.63-.27-.84-.84-.82-.06-.57.18-.84.77-.79.29,0,.58,0,.87,0l.12.07c.24.22.2.51.19.79a.73.73,0,0,1-.3.75l0,.05Z"/><path class="cls-236" d="M31.71,27.56v.8c-.27.33-.56.27-.85,0h0l0-.8.08-.12a.54.54,0,0,1,.76.1Z"/><path class="cls-299" d="M30.06,26.75h.81a.52.52,0,0,1,0,.79l0,0C30.26,27.63,30,27.37,30.06,26.75Z"/><path class="cls-300" d="M28.43,25.09c.59,0,.9.21.81.84h-.81a.51.51,0,0,1,0-.78Z"/><path class="cls-301" d="M28.41,25.14c0,.26,0,.52,0,.78-.63.1-.9-.17-.83-.8Z"/><path class="cls-302" d="M29.23,25.94c.63-.1.92.15.84.8C29.43,26.85,29.16,26.58,29.23,25.94Z"/><path class="cls-303" d="M38.24,32.51H39a6.48,6.48,0,0,1,1.9,1.71.75.75,0,0,1-.16.84,2,2,0,0,1-1.67.13,1.42,1.42,0,0,0-1.4-.69,1.11,1.11,0,0,1-1.09-.37c-.72.21-1-.75-1.64-.66v-1l.78,0c.06,1.34,1.08.68,1.7.8S38.31,33.1,38.24,32.51Z"/><path class="cls-266" d="M22.71,23.5l0,.77-1.61,0v-.84Z"/><path class="cls-304" d="M30.89,30v-.78c.27-.23.54-.3.81,0V30Z"/><path class="cls-305" d="M12,25.94h.83v.82l-.81,0C12,26.47,12,26.21,12,25.94Z"/><path class="cls-306" d="M36.62,34.13c.54,0,1.07,0,1.6,0s.92.17.86.81c-.06.42-.62.61-.49,1.11a.8.8,0,0,1-.94.87c-.53-.11-.75.26-1,.63a.68.68,0,0,0-.5.66,1.76,1.76,0,0,1-.27.92c-.47.17-.67.62-1,.94a.77.77,0,0,1-.8,0c-.25-.51-.71-.58-1.23-.61s-1.37.2-2-.27L30.86,39c0-.86.78-1.16,1.29-1.6a3.78,3.78,0,0,1,1.78-1,2.1,2.1,0,0,0,1-1,.76.76,0,0,1,.9-.49C36.43,35,36.66,34.7,36.62,34.13Z"/><path class="cls-307" d="M26.78,43.14c.13-.57-.29-1.08-.16-1.64s.47-1,1.14-.83,1-.67,1.21-1c.52-.84,1.21-.64,1.89-.69l0,0a.61.61,0,0,1,.21.71A.65.65,0,0,1,31,40c-.31.17-.65.3-.73.71a.61.61,0,0,1-.15.17c-.49.08-.58.57-.86.86a1,1,0,0,1-.69.1c-.53,0-.68.23-.64.7a.86.86,0,0,1-.3.75A.65.65,0,0,1,26.78,43.14Z"/><path class="cls-308" d="M58.71,25.14l0,.8a.5.5,0,0,1,0,.77l0,.08-.81,0h0a.52.52,0,0,1,0-.79V25.1Z"/><path class="cls-309" d="M58.74,26.71v-.77h.79v.8Z"/><path class="cls-310" d="M57.09,25.1v.82l-2.43,0-.13-.1a.57.57,0,0,1,.06-.79.6.6,0,0,1,.86,0Z"/><path class="cls-311" d="M54.61,26.75l-.76,0a.58.58,0,0,1-.14-.87.57.57,0,0,1,.88,0l.08,0Z"/><path class="cls-312" d="M57.9,26l0,.79c-.64.11-.9-.18-.83-.8Z"/><path class="cls-313" d="M53.84,25.94v.83l-.06.79c-.24.3-.53.55-.8.83v0l-.82,0c-.49-.41-.4-.92-.27-1.44a1.22,1.22,0,0,1,.1-.24c.28-.25.76-.35.66-.89a1.12,1.12,0,0,1,.21-.77.68.68,0,0,1,.26-.15C54,24.9,54.18,25.15,53.84,25.94Z"/><path class="cls-314" d="M53,28.39c-.07-.6.17-.9.8-.83v.81Z"/><path class="cls-315" d="M50.54,29.22V30a1.07,1.07,0,0,1,0,1.61l-.8,0-.11-.05a1,1,0,0,0-1.07-.45c-.9-.31-1.07-1-.55-2.08A2.42,2.42,0,0,1,50.54,29.22Z"/><path class="cls-316" d="M50.52,31.63l0-1.61.77,0a7,7,0,0,0,0,.8C51.45,31.51,51.14,31.73,50.52,31.63Z"/><path class="cls-317" d="M49.72,32.48l-.79.05a.43.43,0,0,1-.22-.2.6.6,0,0,1,.18-.81.66.66,0,0,1,.84.14h0Z"/><path class="cls-318" d="M50.54,29.22H48.1a.58.58,0,0,1-.7.18.45.45,0,0,1-.18-.18c0-.59.21-.92.86-.86.38,0,.74,0,.86-.5s.46-.28.74-.31l.11,0a5.14,5.14,0,0,0,.71.69l0,.1Z"/><path class="cls-319" d="M52.18,26.75v1.63H50.55a.65.65,0,0,1-.23-.74c.18-.49.79-.48,1-.88h0C51.63,26.52,51.9,26.45,52.18,26.75Z"/><path class="cls-320" d="M52.18,39.84H50.49c-.37,0-.68,0-.8-.48s-.53-.33-.82-.32c-.6,0-.84-.24-.82-.81l.07-.13c.45-.39,1-.23,1.51-.21a2,2,0,0,1,.8.08.78.78,0,0,1,.22.12c.18.39.4.72.91.62a.76.76,0,0,1,.76.28A.65.65,0,0,1,52.18,39.84Z"/><path class="cls-321" d="M45.64,37.38,44,37.4a.65.65,0,0,1-.86.13c-.3-.21-.29-.53-.28-.85A1.77,1.77,0,0,1,43,35.8a.6.6,0,0,1,.2-.22,2,2,0,0,1,1.54,0,1,1,0,0,1,.24.15,1.25,1.25,0,0,0,.51.58A.65.65,0,0,1,45.64,37.38Z"/><path class="cls-322" d="M45.64,37.38c0-.35,0-.72-.47-.82s-.35-.48-.37-.8c.18-.32.48-.33.8-.32a3.06,3.06,0,0,1,1.64.14.6.6,0,0,1,.22.23,1.65,1.65,0,0,1-.13,1.69.69.69,0,0,1-.91-.08Z"/><path class="cls-323" d="M46.42,37.42l.85,0a.59.59,0,1,1,.86.8l-.08.05a5.61,5.61,0,0,0-.82,0C46.63,38.28,46.38,38,46.42,37.42Z"/><path class="cls-324" d="M44,38.21c.13.67-.17.89-.8.84a5.62,5.62,0,0,0-.82,0V39a.59.59,0,0,1-.08-.85,1,1,0,0,1,.88-.24A.82.82,0,0,1,44,38.21Z"/><path class="cls-325" d="M52.18,39.84l0-.77c.27-.32.55-.25.83,0v.8Z"/><path class="cls-326" d="M44,38.21h-.82c-.24-.29-.28-.57,0-.83l.79,0Z"/><path class="cls-327" d="M40.71,42.32h-.9c-.39,0-.67-.07-.77-.53s-.4-.54-.79-.27a.65.65,0,0,1-.91,0,.78.78,0,0,1-.05-.93c.47-.48,1.06-.29,1.61-.28.93-.24,1.3.46,1.75,1l.05.12Z"/><path class="cls-328" d="M41.53,40.68c.1.65-.18.94-.83.83v0a.58.58,0,1,1,.81-.81Z"/><path class="cls-329" d="M41.52,40.68l-.81,0c-.56-.49-.4-1-.15-1.62a.62.62,0,0,1,.88-.11l.1.13Z"/><path class="cls-330" d="M42.34,38.26V39l-.8.05,0-.06a.6.6,0,0,1-.11-.8.62.62,0,0,1,.79-.16A.38.38,0,0,1,42.34,38.26Z"/><path class="cls-331" d="M31.71,46.39h-.82c-.3-.24-.54-.55-.84-.78l-1.59,0h-.08a.66.66,0,0,1-.06-.89A2.29,2.29,0,0,1,30,44.44h.93c.31,0,.63-.06.88.21a1.18,1.18,0,0,1,.22.89A.85.85,0,0,1,31.71,46.39Z"/><path class="cls-192" d="M30.05,45.62c.6-.09.92.13.84.78C30.28,46.49,30,46.24,30.05,45.62Z"/><path class="cls-332" d="M31.71,46.39v-.82a3.47,3.47,0,0,0,.63-.74.34.34,0,0,1,.19-.09l.76,0C33.44,46.46,33.42,46.48,31.71,46.39Z"/><path class="cls-333" d="M37.42,41.49l.83,0c0,.54,0,1.09,0,1.63s-.17.89-.8.78c0-.6-.24-.86-.84-.79a.87.87,0,0,1-.31-.84,1.05,1.05,0,0,1,.25-.88A.61.61,0,0,1,37.42,41.49Z"/><path class="cls-334" d="M36.6,42.3v.84h-.83c0-.27,0-.55,0-.82l.08-.1A.52.52,0,0,1,36.6,42.3Z"/><path class="cls-335" d="M31.69,44.77h-.83c-.65-.73-.29-1.59-.31-2.4,0-.44,0-.91.5-1.08a.86.86,0,0,1,1.11.57c.1.21.35.25.48.43a.7.7,0,0,1-.12.89l0,1.57,0,0A.53.53,0,0,1,31.69,44.77Z"/><path class="cls-336" d="M32.52,43.17v-.82l.05-.12a.75.75,0,0,1,.72-.22c.25,0,.52-.06.74.13a.33.33,0,0,1,.13.21v.75l-.8.07Z"/><path class="cls-337" d="M35,42.29l-.81.06v-.08a.53.53,0,0,1-.08-.78.64.64,0,0,1,.92-.1A.59.59,0,0,1,35,42.29Z"/><path class="cls-338" d="M35,42.29l0-.79a.58.58,0,0,1,.87-.07.6.6,0,0,1-.06.88h0Z"/><path class="cls-339" d="M14.49,50.48c0-.26,0-.52,0-.79h.82c0,.26,0,.53,0,.8Z"/><path class="cls-340" d="M19.39,48c-.05-.62.22-.89.85-.79a.54.54,0,0,1,0,.81h-.83Z"/><path class="cls-341" d="M28.44,44.79l-.06.8-.76,0,0-1.61.1-.12a.61.61,0,0,1,.85.09A.66.66,0,0,1,28.44,44.79Z"/><path class="cls-342" d="M26,44.75c-.06-.62.21-.88.83-.8C26.87,44.6,26.61,44.89,26,44.75Z"/><path class="cls-343" d="M26.78,43.14h.78l.12.07a.53.53,0,0,1-.07.76h-.83Z"/><path class="cls-344" d="M20.22,48.05l0-.81h.81c0,.26,0,.52,0,.77Z"/><path class="cls-345" d="M52.15,56.27h-.81l-5.72-.07,0-.79a.88.88,0,0,1,.63-.33,48.28,48.28,0,0,1,5.38,0C52.39,55.14,52.55,55.57,52.15,56.27Z"/><path class="cls-346" d="M52.15,56.27c.1-.66-.21-.85-.83-.85-1.89,0-3.79,0-5.68,0V54.6a1.08,1.08,0,0,1,.94-.37c1.39,0,2.77,0,4.16,0a1.11,1.11,0,0,1,.94.37c.13,0,.29-.05.37-.14a1.56,1.56,0,0,1,2.57-.08,1.1,1.1,0,0,0,.83.22,1.06,1.06,0,0,1,.87-.37c1.33,0,2.66,0,4,0a1,1,0,0,1,.86.38c0,.26,0,.53,0,.8-1.63,0-3.27,0-4.9,0-.6,0-.88.19-.85.78-.57,0-.81.24-.8.84,0,1.38,0,2.77,0,4.15,0,.6-.22.83-.82.8s-1.08,0-1.62,0C52.18,60.06,52.16,58.16,52.15,56.27Z"/><path class="cls-347" d="M51.68,54.6h-6v-.81l5.7,0a.35.35,0,0,1,.51.05Z"/><path class="cls-293" d="M61.17,53c0,.26,0,.52,0,.78v0a1.15,1.15,0,0,1-.88.35q-2,0-4,0a1,1,0,0,1-.86-.38h0a.51.51,0,0,1-.11-.73l.11-.08Z"/><path class="cls-348" d="M54.64,53v-.84l.77,0c0,.26,0,.52.05.79v0A.56.56,0,0,1,54.64,53Z"/><path class="cls-349" d="M55.46,53.78l5.73,0c0,.26,0,.53,0,.8H55.45Z"/><path class="cls-350" d="M30.89,27.55c0-.26,0-.52,0-.79.63-.09.9.18.83.81Z"/><path class="cls-351" d="M31.69,29.22h-.81v-.83l.85,0,.78,0a.54.54,0,0,1,0,.81Z"/><path class="cls-352" d="M32.51,29.21c0-.27,0-.54,0-.81.62-.1.89.18.85.8Z"/><path class="cls-353" d="M35.79,31.66l.82.05c.07.61-.22.85-.81.77C35.8,32.21,35.8,31.93,35.79,31.66Z"/><path class="cls-354" d="M40.7,34.13A2.24,2.24,0,0,1,39,32.51l.86,0a.86.86,0,0,1,.85-.32,1.22,1.22,0,0,1,.92.25,1.65,1.65,0,0,1-.05,1.75A.63.63,0,0,1,40.7,34.13Z"/><path class="cls-355" d="M40.72,32.46l-.82,0c0-.28,0-.55,0-.82h0a.62.62,0,0,1,.77-.2.51.51,0,0,1,.21.2A.59.59,0,0,1,40.72,32.46Z"/><path class="cls-356" d="M40.73,31.63l-.84.05v-.86a.58.58,0,0,1,.87,0A.54.54,0,0,1,40.73,31.63Z"/><path class="cls-357" d="M39.07,29.21l.83,0,.79.05a.6.6,0,0,1,.08.88.66.66,0,0,1-.9-.06L39.08,30Z"/><path class="cls-358" d="M39.87,30.05l.85,0a.54.54,0,0,1,.81,0h0a.79.79,0,0,1,.32.76,1.4,1.4,0,0,1-.13.85.48.48,0,0,1-.2.2.63.63,0,0,1-.8-.17l0,0c.1-.65-.27-.84-.84-.81Z"/><path class="cls-359" d="M43.15,30c.3-.06.68.08.84-.33.7-.23,1.4-.46,1.63-1.28.12-.42.45-.51.82-.53.08.55-.31,1.37.78,1.33l.07,0a.65.65,0,0,1,.19.74c-.27.37-.79.52-.93,1a.68.68,0,0,1-.24.12,5.68,5.68,0,0,1-2.25.09,1.77,1.77,0,0,1-.85-.13.58.58,0,0,1-.21-.2A.63.63,0,0,1,43.15,30Z"/><path class="cls-360" d="M51.36,25.94v-.08c0-1.56,0-1.57,1.59-1.57H53a.58.58,0,0,1,0,.83l0,0a2.69,2.69,0,0,0-.68.92.71.71,0,0,1-.22.13A.64.64,0,0,1,51.36,25.94Z"/><path class="cls-361" d="M51.36,26.76c.08.6-.18.89-.8.83a.53.53,0,0,1-.8,0l-.08,0c0-.64.27-.86.87-.81C50.82,26.77,51.09,26.75,51.36,26.76Z"/><path class="cls-362" d="M51.36,25.94h.81a.52.52,0,0,1,0,.82h-.82Z"/><path class="cls-363" d="M53,25.13c0-.28,0-.55,0-.83.67.11.83-.27.8-.83l.78,0c-.06.61.23.88.83.83,0,.26,0,.52,0,.78-.61-.07-.9.21-.87.82l-.75,0C53.87,25.36,53.64,25,53,25.13Z"/><path class="cls-364" d="M41.53,30.85V30h.83l0,0a.59.59,0,0,1,.08.87A.61.61,0,0,1,41.53,30.85Z"/><path class="cls-365" d="M41.53,30h-.81l0-.8C41.35,29.09,41.6,29.39,41.53,30Z"/><path class="cls-366" d="M42.36,30.82l0-.77h.82l0,.79A.49.49,0,0,1,42.36,30.82Z"/><path class="cls-367" d="M47.25,34.11l-2.45,0L44.68,34a.63.63,0,0,1,.13-.87,2.91,2.91,0,0,1,2.51.06A.63.63,0,0,1,47.25,34.11Z"/><path class="cls-368" d="M47.23,35.74H45.64a.5.5,0,0,1,0-.78l1.66,0C47.49,35.23,47.55,35.49,47.23,35.74Z"/><path class="cls-369" d="M47.25,34.11v-.8l.06-.11a.51.51,0,0,1,.67-.06.46.46,0,0,1,.13.2l0,.79Z"/><path class="cls-370" d="M47.23,35.74l0-.79.82,0c0,.26,0,.53,0,.79l-.08.11a.53.53,0,0,1-.73-.06Z"/><path class="cls-371" d="M45.61,35l0,.78h-.83c-.2-.2-.33-.41-.19-.69a.39.39,0,0,1,.18-.18Z"/><path class="cls-372" d="M44.8,34.13V35a.64.64,0,0,1-.9,0,.7.7,0,0,1,0-.94.67.67,0,0,1,.92,0Z"/><path class="cls-373" d="M48.93,32.53c0,.6-.23.85-.81.81l-.06-.06a.6.6,0,0,1-.05-.86.61.61,0,0,1,.87,0Z"/><path class="cls-374" d="M50.53,38.23h-.81c-.24-.39-.77-.4-1-.78-.06-.26-.26-.38-.47-.53-.46-.31-.57-.7-.15-1.14h1.65l.77,0c-.07.62.25.86.84.83l0,.76C51.24,37.82,50.78,37.92,50.53,38.23Z"/><path class="cls-375" d="M50.53,38.23c-.09-.65.23-.89.84-.84l.8,0c-.1.64.27.81.81.82,0,.26,0,.53,0,.8h-.83l-.78,0c-.32-.22-.54-.55-.86-.78Z"/><path class="cls-376" d="M51.85,53.81l-.51-.05c0-.25,0-.51,0-.76l.81,0C52.13,53.28,52.3,53.66,51.85,53.81Z"/><path class="cls-377" d="M54.64,53l.82,0v.77C54.85,53.86,54.56,53.61,54.64,53Z"/><path class="cls-378" d="M40.7,34.13h.83l.1.05c.38.61,1.15.25,1.62.64a.74.74,0,0,1,.14.22.66.66,0,0,1-.22.74h0a.84.84,0,0,1-.79.32A3,3,0,0,1,40.77,36a.53.53,0,0,1-.22-.2.65.65,0,0,1,.16-.83Z"/><path class="cls-379" d="M40.71,34.94l0,.78a2,2,0,0,1-2.46.07c0-.5.22-.88.81-.86Z"/><path class="cls-380" d="M38.27,35.79l2.46-.07,0,0a.79.79,0,0,1,.31.75,1.56,1.56,0,0,1-.1.83.48.48,0,0,1-.15.22c-.53.31-1.22.14-1.71.56a1,1,0,0,1-.8,0c-.33-.26-.8-.31-1-.72a.65.65,0,0,1,.2-.8C38,36.64,38.32,36.4,38.27,35.79Z"/><path class="cls-381" d="M34.17,39.84H35l.13.09a.71.71,0,0,1,0,.89c-.52.38-1.1.2-1.67.2-.3,0-.61,0-.92,0-.57,0-1.17.2-1.68-.24a.65.65,0,0,1,.11-.9h0A3.54,3.54,0,0,1,34.17,39.84Z"/><path class="cls-343" d="M34.17,39.84l-3.29,0c0-.27,0-.54,0-.81.82,0,1.64,0,2.46,0C33.94,39,34.21,39.24,34.17,39.84Z"/><path class="cls-382" d="M35.75,39a5.49,5.49,0,0,0,0-.81c0-.6.22-.86.8-.84l.13.07a1,1,0,0,1,.21.81,1.22,1.22,0,0,1-.18.85.63.63,0,0,1-.81.14A.41.41,0,0,1,35.75,39Z"/><path class="cls-383" d="M37.44,36.59l0,.79c-.24.31-.5.28-.78.06a.22.22,0,0,1,0-.08C36.53,36.73,36.84,36.5,37.44,36.59Z"/><path class="cls-384" d="M35,39.83c-.07-.59.2-.86.79-.82l.07.05a.57.57,0,0,1,0,.81.58.58,0,0,1-.87,0Z"/><path class="cls-385" d="M30.87,40.68h1.66a1.07,1.07,0,0,1,0,1.59l0,.07c-.27-.07-.64,0-.77-.32s-.14-.56-.51-.49-.31.5-.38.79a.8.8,0,0,1-.78.31,3.08,3.08,0,0,1-1.59-.12.57.57,0,0,1-.22-.19.64.64,0,0,1,.17-.82l.78,0a6.36,6.36,0,0,0,.84-.8h0A.54.54,0,0,1,30.87,40.68Z"/><path class="cls-386" d="M30.87,40.68h-.82c-.07-.64.21-.9.84-.8C30.88,40.14,30.88,40.41,30.87,40.68Z"/><path class="cls-387" d="M30.05,40.67c.09.66-.2.91-.84.8C29.17,40.87,29.44,40.58,30.05,40.67Z"/><path class="cls-388" d="M28.43,41.51l0,.78c-.24.31-.5.26-.77,0C27.52,41.69,27.77,41.4,28.43,41.51Z"/><path class="cls-389" d="M27.62,42.33l.77,0,.05,0a.56.56,0,0,1,0,.86.53.53,0,0,1-.79,0h-.08Z"/><path class="cls-390" d="M52.17,26.75v-.82h0a.53.53,0,0,1,.8,0C53.08,26.55,52.81,26.83,52.17,26.75Z"/><path class="cls-391" d="M53,25.92l-.8,0c-.09-.63.16-.92.81-.83Z"/><path class="cls-392" d="M48.88,32.46l-.78.06-.1,0c-.29-.34-.47-.14-.64.13a.66.66,0,0,1-.24.11.69.69,0,0,1-.81-.18,1.3,1.3,0,0,1-.18-.88.83.83,0,0,1,.31-.82h0c.26-.28.56-.53.8-.83l0-.81.81,0c0,.27,0,.53,0,.79-.06.63.22.88.82.84a.57.57,0,0,1,0,.83Z"/><path class="cls-393" d="M48.92,31.69l0-.83c.65-.11.91.17.83.8Z"/><path class="cls-183" d="M49.76,27.58h.8c0,.27,0,.53,0,.79C49.92,28.47,49.62,28.24,49.76,27.58Z"/><path class="cls-394" d="M48.91,37.39c.61-.06.87.23.81.83l-1.59,0-.06-.77C48.34,37.1,48.62,37.16,48.91,37.39Z"/><path class="cls-395" d="M50.52,38.24c.61-.1.93.12.86.78C50.76,39.12,50.43,38.92,50.52,38.24Z"/><path class="cls-396" d="M43.19,37.38l0,.83-.81,0v-.08a1.22,1.22,0,0,1-.1-1.65.6.6,0,0,1,.89.07Z"/><path class="cls-322" d="M43.17,35.77v-.84c.27-.29.55-.22.83,0l.8,0v.8Z"/><path class="cls-397" d="M43.14,36.6l-.79,0-.11-.08a.49.49,0,0,1,.09-.71l.84,0Z"/><path class="cls-225" d="M48.91,37.39l-.84,0-.8,0V35.81l.81,0c0,.31-.08.7.36.8S48.88,37,48.91,37.39Z"/><path class="cls-398" d="M40.71,39v2.45c-.38,0-.81.15-.86-.5,0-.48-.51-.21-.77-.34a.63.63,0,0,1-.22-.74c.22-.45.81-.53,1-1a.65.65,0,0,1,.78,0A.83.83,0,0,0,40.71,39Z"/><path class="cls-399" d="M39.07,39.87c0,.26,0,.52,0,.78l-1.64,0a.64.64,0,0,1-.94,0c-.23-.81,0-1.15.75-1.18C37.87,39.49,38.56,39.25,39.07,39.87Z"/><path class="cls-400" d="M36.63,40.69h.81l0,.8-.77,0-.13-.08A.49.49,0,0,1,36.63,40.69Z"/><path class="cls-401" d="M41.53,38.21c0,.27,0,.53,0,.79l-.78,0h0a1.1,1.1,0,0,1,0-1.63l.05,0a.54.54,0,0,1,.8,0A.56.56,0,0,1,41.53,38.21Z"/><path class="cls-402" d="M41.53,38.21c.08-.6-.2-.87-.79-.83,0-.26,0-.52,0-.78a1.07,1.07,0,0,1,1.63,0h0v1.6Z"/><path class="cls-403" d="M30.05,42.32h.8c0,.81,0,1.62,0,2.43h-.79a.8.8,0,0,1-.33-.82C29.73,43.37,29.53,42.77,30.05,42.32Z"/><path class="cls-404" d="M30.06,44v.79l-1.63,0V44A1.1,1.1,0,0,1,30.06,44Z"/><path class="cls-405" d="M31.69,44.77h.81c.13.65-.15.9-.78.79Z"/><path class="cls-406" d="M35.79,42.31V41.5l.07-.11a.49.49,0,0,1,.71.08l.07.06,0,.77Z"/><path class="cls-407" d="M33.34,40.69l1.63,0a.58.58,0,0,1,.85,0,.57.57,0,0,1,0,.85H35c-.58-.07-.91.13-.82.77h-.81A1.05,1.05,0,0,1,33.34,40.69Z"/><path class="cls-337" d="M33.34,40.69c0,.53,0,1.06,0,1.59h-.82V40.69Z"/><path class="cls-408" d="M30.06,44H27.61l0-.82c.64.1.83-.24.8-.81h1.61C30.05,42.87,30.05,43.41,30.06,44Z"/><path class="cls-409" d="M41.53,34.12V32.49a.51.51,0,0,1,0-.79v-.08c.83-.32,1.07-.15,1.15.81,0,.6.18,1.23-.24,1.77a.64.64,0,0,1-.9-.08Z"/><path class="cls-410" d="M41.53,31.7v.79l-.81,0c0-.26,0-.53,0-.79Z"/><path class="cls-411" d="M42.36,32.46c.15-.71-.29-.83-.84-.84v-.77l.83,0h.82l0,0a.84.84,0,0,1,.32.84,1.06,1.06,0,0,1-.25.89A.61.61,0,0,1,42.36,32.46Z"/><path class="cls-412" d="M46.44,30.85v.81a.81.81,0,0,1-.78.33q-.45,0-.9,0c-.32,0-.65,0-.88-.25a.64.64,0,0,1,.11-.88Z"/><path class="cls-413" d="M44,30.86l0,.78a.52.52,0,0,1-.83,0v-.83Z"/><path class="cls-414" d="M47.24,30c.12.64-.13.93-.8.83C46.33,30.22,46.63,30,47.24,30Z"/><path class="cls-415" d="M46.43,32.46l.84,0c.29.28.23.55,0,.83H44.81l-.12-.07a.65.65,0,0,1,0-.78.46.46,0,0,1,.21-.18,1.64,1.64,0,0,1,.82-.11A.81.81,0,0,1,46.43,32.46Z"/><path class="cls-416" d="M44.83,34.09l-.85,0-.11-.07a.62.62,0,0,1,0-.77.55.55,0,0,1,.22-.18.65.65,0,0,1,.76.19v0Z"/><path class="cls-417" d="M47.26,33.31v-.83h0a.55.55,0,0,1,.8,0l0,.07,0,.76Z"/><path class="cls-418" d="M44,34.92h-.82a.6.6,0,0,1-.19-.78.51.51,0,0,1,.2-.21.64.64,0,0,1,.8.18h0Z"/><path class="cls-419" d="M42.35,36.58l-1.63,0c0-.28,0-.56,0-.84l1.62,0Z"/><path class="cls-420" d="M43.14,34.15c0,.27,0,.53,0,.79a7.3,7.3,0,0,0-.81,0c-.62,0-.92-.19-.84-.83l.83,0C42.63,33.89,42.9,33.84,43.14,34.15Z"/><path class="cls-421" d="M35.79,41.49c.08-.63-.21-.88-.82-.82,0-.26,0-.51,0-.77.59,0,.89-.23.83-.84l.77,0a1.16,1.16,0,0,1,.84-.4.55.55,0,0,0,.59-.52.39.39,0,0,1,.25-.25l.79,0a.37.37,0,0,1,.23.24,1.22,1.22,0,0,0,.56.8l0,.11c.08.63-.22.88-.82.82s-1.13,0-1.69,0-.84.25-.75.83c0,.26,0,.52-.05.78Z"/><path class="cls-422" d="M39.09,38.2l0-.3c.32-.9,1.08-.35,1.63-.48,0,.54,0,1.08,0,1.62h-.82A10.58,10.58,0,0,1,39.09,38.2Z"/><path class="cls-423" d="M38.27,37.87l0,.36a1.09,1.09,0,0,1-1.61,0c0-.26,0-.52,0-.79l.78-.06C37.77,37.43,38.23,37.28,38.27,37.87Z"/><path class="cls-424" d="M36.63,38.23h1.61c.09.6-.17.85-.77.81-.29,0-.59,0-.88,0C36.6,38.77,36.62,38.5,36.63,38.23Z"/><path class="cls-425" d="M48.06,32.45l-.8,0c.05-.3-.14-.77.39-.79S48.06,32.13,48.06,32.45Z"/><path class="cls-426" d="M46.43,32.46h-.79a.51.51,0,0,1,0-.78l.83,0Z"/><path class="cls-427" d="M43.14,34.15l-.78,0V32.46h.82a.62.62,0,0,1,.88-.05.61.61,0,0,1-.06.88l-.07,0c-.23.28-.49.52-.74.78Z"/><path class="cls-428" d="M44,32.51l-.78,0v-.78l.83,0,.79.05a.51.51,0,0,1,0,.79h0A.58.58,0,0,1,44,32.51Z"/><path class="cls-429" d="M44.79,32.48v-.79h.81c0,.26,0,.52,0,.78Z"/><path class="cls-430" d="M44,32.51l.84,0v.81H44Z"/><path class="cls-431" d="M43.19,34.1c-.11-.6.14-.86.74-.78l.06.81Z"/><path class="cls-432" d="M39.09,38.2c.62-.06.87.23.8.84C39.25,39.12,39,38.84,39.09,38.2Z"/></g></g></svg>