<svg xmlns="http://www.w3.org/2000/svg" viewBox="0 0 74 74"><defs><style>.cls-1{fill:#1e2223;}.cls-2{fill:#1d3039;}.cls-3{fill:#545e62;}.cls-4{fill:#8f8f8f;}.cls-5{fill:#464d42;}.cls-6{fill:#202a2c;}.cls-7{fill:#222d2e;}.cls-8{fill:#4b5349;}.cls-9{fill:#232d2c;}.cls-10{fill:#a07d59;}.cls-11{fill:#212b2c;}.cls-12{fill:#737961;}.cls-13{fill:#232e30;}.cls-14{fill:#2a3333;}.cls-15{fill:#7d6f59;}.cls-16{fill:#5c6556;}.cls-17{fill:#414b43;}.cls-18{fill:#8c9276;}.cls-19{fill:#88886a;}.cls-20{fill:#465048;}.cls-21{fill:#212b2f;}.cls-22{fill:#535b4f;}.cls-23{fill:#343938;}.cls-24{fill:#81876e;}.cls-25{fill:#2e3833;}.cls-26{fill:#75533c;}.cls-27{fill:#424a42;}.cls-28{fill:#59584a;}.cls-29{fill:#6d7361;}.cls-30{fill:#3d463f;}.cls-31{fill:#525b4f;}.cls-32{fill:#8e9376;}.cls-33{fill:#454e46;}.cls-34{fill:#293534;}.cls-35{fill:#596052;}.cls-36{fill:#2c3636;}.cls-37{fill:#283433;}.cls-38{fill:#3d4741;}.cls-39{fill:#494e41;}.cls-40{fill:#565e53;}.cls-41{fill:#4f584e;}.cls-42{fill:#3d444a;}.cls-43{fill:#3a4347;}.cls-44{fill:#74787a;}.cls-45{fill:#3f464b;}.cls-46{fill:#786b55;}.cls-47{fill:#515a50;}.cls-48{fill:#3b3d37;}.cls-49{fill:#4f4a35;}.cls-50{fill:#2f3632;}.cls-51{fill:#b0a97b;}.cls-52{fill:#746844;}.cls-53{fill:#343832;}.cls-54{fill:#515341;}.cls-55{fill:#5b6053;}.cls-56{fill:#383e3e;}.cls-57{fill:#767d66;}.cls-58{fill:#707475;}.cls-59{fill:#4d5356;}.cls-60{fill:#555d51;}.cls-61{fill:#83866b;}.cls-62{fill:#494b41;}.cls-63{fill:#2b3536;}.cls-64{fill:#2e3b3d;}.cls-65{fill:#959a7e;}.cls-66{fill:#50574b;}.cls-67{fill:#404841;}.cls-68{fill:#69705e;}.cls-69{fill:#353e39;}.cls-70{fill:#36413f;}.cls-71{fill:#7d7d64;}.cls-72{fill:#485045;}.cls-73{fill:#404749;}.cls-74{fill:#313938;}.cls-75{fill:#3c4643;}.cls-76{fill:#5a6065;}.cls-77{fill:#808487;}.cls-78{fill:#3e454a;}.cls-79{fill:#3d474b;}.cls-80{fill:#3c4549;}.cls-81{fill:#727679;}.cls-82{fill:#62676c;}.cls-83{fill:#7c7f81;}.cls-84{fill:#a1a3a6;}.cls-85{fill:#4d5358;}.cls-86{fill:#a1a4a6;}.cls-87{fill:#313430;}.cls-88{fill:#1a1a1a;}.cls-89{fill:#5c655e;}.cls-90{fill:#343c36;}.cls-91{fill:#475049;}.cls-92{fill:#42341f;}.cls-93{fill:#43331c;}.cls-94{fill:#535c55;}.cls-95{fill:#1c323f;}.cls-96{fill:#3f4943;}.cls-97{fill:#6d6f71;}.cls-98{fill:#806c24;}.cls-99{fill:#5c6362;}.cls-100{fill:#3f4a44;}.cls-101{fill:#48524b;}.cls-102{fill:#676b6d;}.cls-103{fill:#3a3a37;}.cls-104{fill:#5c5858;}.cls-105{fill:#3f423f;}.cls-106{fill:#41423a;}.cls-107{fill:#878165;}.cls-108{fill:#5f531f;}.cls-109{fill:#394246;}.cls-110{fill:#c9c9c9;}.cls-111{fill:#f3eeb4;}.cls-112{fill:#f6e094;}.cls-113{fill:#c1ac70;}.cls-114{fill:#b2b38f;}.cls-115{fill:#d5cc92;}.cls-116{fill:#797d64;}.cls-117{fill:#40473d;}.cls-118{fill:#c2c39a;}.cls-119{fill:#8a8f74;}.cls-120{fill:#616756;}.cls-121{fill:#f2f0b9;}.cls-122{fill:#656652;}.cls-123{fill:#b9ba95;}.cls-124{fill:#f58f4f;}.cls-125{fill:#f78b4b;}.cls-126{fill:#c6b685;}.cls-127{fill:#757863;}.cls-128{fill:#8b8c6b;}.cls-129{fill:#b4b184;}.cls-130{fill:#6b6f5d;}.cls-131{fill:#e3d49c;}.cls-132{fill:#ad8b5c;}.cls-133{fill:#8c9176;}.cls-134{fill:#f4d098;}.cls-135{fill:#fce096;}.cls-136{fill:#b8b891;}.cls-137{fill:#e7b275;}.cls-138{fill:#7a7f69;}.cls-139{fill:#f3eab4;}.cls-140{fill:#b4af88;}.cls-141{fill:#909578;}.cls-142{fill:#bea37a;}.cls-143{fill:#f0a971;}.cls-144{fill:#959376;}.cls-145{fill:#c4ba90;}.cls-146{fill:#f7e8b1;}.cls-147{fill:#a5a684;}.cls-148{fill:#c5c6c7;}.cls-149{fill:#abadaf;}.cls-150{fill:#7e8386;}.cls-151{fill:#596065;}.cls-152{fill:#7f8486;}.cls-153{fill:#929496;}.cls-154{fill:#75797b;}.cls-155{fill:#bcbcbc;}.cls-156{fill:#61666b;}.cls-157{fill:#838689;}.cls-158{fill:#bcbdbd;}.cls-159{fill:#b5b6b9;}.cls-160{fill:#b36a38;}.cls-161{fill:#c8a057;}.cls-162{fill:#a88949;}.cls-163{fill:#dba760;}.cls-164{fill:#786b46;}.cls-165{fill:#a09365;}.cls-166{fill:#f3c178;}.cls-167{fill:#cca052;}.cls-168{fill:#76746f;}.cls-169{fill:#8c908f;}.cls-170{fill:#aaad89;}.cls-171{fill:#b3b5b6;}.cls-172{fill:#807a64;}.cls-173{fill:#807c5a;}.cls-174{fill:#7f7e5e;}.cls-175{fill:#8b8a75;}.cls-176{fill:#5b6157;}.cls-177{fill:#c2c296;}.cls-178{fill:#d5d5a7;}.cls-179{fill:#b5b690;}.cls-180{fill:#b3ac7f;}.cls-181{fill:#857e59;}.cls-182{fill:#5c5b47;}.cls-183{fill:#666b66;}.cls-184{fill:#c3c4c5;}.cls-185{fill:#75787a;}.cls-186{fill:#a6aaab;}.cls-187{fill:#666a6c;}.cls-188{fill:#989a9c;}.cls-189{fill:#7c8082;}.cls-190{fill:#959798;}.cls-191{fill:#75797c;}.cls-192{fill:#fafbfb;}.cls-193{fill:#919597;}.cls-194{fill:#a4a4a4;}.cls-195{fill:#fbfbfb;}.cls-196{fill:#dbdbdb;}.cls-197{fill:#e7e7e7;}.cls-198{fill:#232d25;}.cls-199{fill:#606862;}.cls-200{fill:#202a22;}.cls-201{fill:#404a42;}.cls-202{fill:#2c3229;}.cls-203{fill:#28322a;}.cls-204{fill:#222924;}.cls-205{fill:#333b35;}.cls-206{fill:#545d56;}.cls-207{fill:#373837;}.cls-208{fill:#b1b3b5;}.cls-209{fill:#263029;}.cls-210{fill:#8e9194;}.cls-211{fill:#818689;}.cls-212{fill:#40474c;}.cls-213{fill:#5f6569;}.cls-214{fill:#5b645c;}.cls-215{fill:#3b463c;}.cls-216{fill:#7a7979;}.cls-217{fill:#646363;}.cls-218{fill:#717873;}.cls-219{fill:#85640d;}.cls-220{fill:#867044;}.cls-221{fill:#684d20;}.cls-222{fill:#aaafaa;}.cls-223{fill:#7a817a;}.cls-224{fill:#977a27;}.cls-225{fill:#acb0aa;}.cls-226{fill:#909790;}.cls-227{fill:#cacaca;}.cls-228{fill:#a58b3d;}.cls-229{fill:#b5b5b3;}.cls-230{fill:#a69665;}.cls-231{fill:#564d39;}.cls-232{fill:#8e682b;}.cls-233{fill:#754c17;}.cls-234{fill:#97794b;}.cls-235{fill:#818181;}.cls-236{fill:#3d493e;}.cls-237{fill:#333c38;}.cls-238{fill:#525658;}.cls-239{fill:#6e756e;}.cls-240{fill:#767f76;}.cls-241{fill:#6c736c;}.cls-242{fill:#283036;}.cls-243{fill:#2b3238;}.cls-244{fill:#3e4741;}.cls-245{fill:#585d5c;}.cls-246{fill:#c9cac9;}.cls-247{fill:#9ba09b;}.cls-248{fill:#939492;}.cls-249{fill:#aeaeae;}.cls-250{fill:#878a87;}.cls-251{fill:#434642;}.cls-252{fill:#353a3b;}.cls-253{fill:#6e7473;}.cls-254{fill:#525559;}.cls-255{fill:#899287;}.cls-256{fill:#a2a2a2;}.cls-257{fill:#e7c459;}.cls-258{fill:#889186;}.cls-259{fill:#6f776d;}.cls-260{fill:#b0b0b0;}.cls-261{fill:#fcfcfb;}.cls-262{fill:#696863;}.cls-263{fill:#f3e5b6;}.cls-264{fill:#fe5e00;}.cls-265{fill:#fea24f;}.cls-266{fill:#fe7e1c;}.cls-267{fill:#fec971;}.cls-268{fill:#fab967;}.cls-269{fill:#efd099;}.cls-270{fill:#c0c29a;}.cls-271{fill:#fbd693;}.cls-272{fill:#f6d695;}.cls-273{fill:#d9ca91;}.cls-274{fill:#fb2100;}.cls-275{fill:#fe0c00;}.cls-276{fill:#fe6000;}.cls-277{fill:#fe5600;}.cls-278{fill:#fe6c10;}.cls-279{fill:#f7a561;}.cls-280{fill:#fda667;}.cls-281{fill:#fe8e45;}.cls-282{fill:#fcac5e;}.cls-283{fill:#fe8b38;}.cls-284{fill:#fe6d00;}.cls-285{fill:#fe8a40;}.cls-286{fill:#d8d8d8;}.cls-287{fill:#d6d6d6;}.cls-288{fill:#d4d4d4;}.cls-289{fill:#e8e8e9;}.cls-290{fill:#828488;}.cls-291{fill:#fb5d00;}.cls-292{fill:#c74700;}.cls-293{fill:#fea140;}.cls-294{fill:#f1b44d;}.cls-295{fill:#fc8529;}.cls-296{fill:#e8c983;}.cls-297{fill:#b5b7b9;}.cls-298{fill:#a05a3e;}.cls-299{fill:#a98e64;}.cls-300{fill:#cbb173;}.cls-301{fill:#b7b8b9;}.cls-302{fill:#b5b1b0;}.cls-303{fill:#8d8f8c;}.cls-304{fill:#ead68e;}.cls-305{fill:#f8cb75;}.cls-306{fill:#c9b475;}.cls-307{fill:#a0a0a0;}.cls-308{fill:#a3a3a3;}.cls-309{fill:#b4b6b7;}.cls-310{fill:#8d8d8d;}.cls-311{fill:#828282;}.cls-312{fill:#afafaf;}.cls-313{fill:#e1e1e1;}.cls-314{fill:#d1d1d1;}.cls-315{fill:#8e8e8e;}.cls-316{fill:#9b9b9b;}.cls-317{fill:#bdbdbd;}.cls-318{fill:#616a63;}.cls-319{fill:#333f34;}.cls-320{fill:#3c483d;}.cls-321{fill:#3a433c;}.cls-322{fill:#5b635d;}.cls-323{fill:#6d766b;}.cls-324{fill:#565e58;}.cls-325{fill:#515b50;}.cls-326{fill:#5f5846;}.cls-327{fill:#353836;}.cls-328{fill:#364237;}.cls-329{fill:#767e77;}.cls-330{fill:#454e47;}.cls-331{fill:#2d3830;}.cls-332{fill:#222623;}.cls-333{fill:#41251a;}.cls-334{fill:#544f37;}.cls-335{fill:#9e2a03;}.cls-336{fill:#866d3b;}.cls-337{fill:#9e9f9c;}.cls-338{fill:#909496;}.cls-339{fill:#3c4349;}.cls-340{fill:#61666a;}.cls-341{fill:#4f5751;}.cls-342{fill:#d7d7d7;}.cls-343{fill:#b0b2b3;}.cls-344{fill:#b8890e;}.cls-345{fill:#b8985a;}.cls-346{fill:#8a6014;}.cls-347{fill:#ca9d1e;}.cls-348{fill:#d9b448;}.cls-349{fill:#fdfdfc;}.cls-350{fill:#e8d18c;}.cls-351{fill:#cdb06d;}.cls-352{fill:#969696;}.cls-353{fill:#ababab;}.cls-354{fill:#785a49;}.cls-355{fill:#626b64;}.cls-356{fill:#505a51;}.cls-357{fill:#5a6459;}.cls-358{fill:#595c54;}.cls-359{fill:#676e67;}.cls-360{fill:#814f2a;}.cls-361{fill:#785f30;}.cls-362{fill:#c68435;}.cls-363{fill:#848687;}.cls-364{fill:#455145;}.cls-365{fill:#a9aea8;}.cls-366{fill:#dfe1df;}.cls-367{fill:#7a837a;}.cls-368{fill:#9ea59d;}.cls-369{fill:#b6bbb4;}.cls-370{fill:#bfc4bf;}.cls-371{fill:#595959;}.cls-372{fill:#707070;}.cls-373{fill:#ced1cd;}.cls-374{fill:#9f9f9f;}.cls-375{fill:#f2e6c0;}.cls-376{fill:#c03600;}.cls-377{fill:#fe3100;}.cls-378{fill:#e89e4e;}.cls-379{fill:#fe4700;}.cls-380{fill:#e47325;}.cls-381{fill:#b16930;}.cls-382{fill:#fe6606;}.cls-383{fill:#feb76d;}.cls-384{fill:#feaa5e;}.cls-385{fill:#fdcf88;}.cls-386{fill:#fb0100;}.cls-387{fill:#c82900;}.cls-388{fill:#9c401d;}.cls-389{fill:#a52900;}.cls-390{fill:#f55606;}.cls-391{fill:#cd3f00;}.cls-392{fill:#fe771d;}.cls-393{fill:#fe5400;}.cls-394{fill:#fb7523;}.cls-395{fill:#fe4000;}.cls-396{fill:#f21500;}.cls-397{fill:#fe5c00;}.cls-398{fill:#a86e32;}.cls-399{fill:#fe6e00;}.cls-400{fill:#fe6400;}.cls-401{fill:#fe9844;}.cls-402{fill:#d57a3c;}.cls-403{fill:#fea64d;}.cls-404{fill:#ebebec;}.cls-405{fill:#818488;}.cls-406{fill:#c94300;}.cls-407{fill:#cdcece;}.cls-408{fill:#fe903b;}.cls-409{fill:#b67035;}.cls-410{fill:#fe973b;}.cls-411{fill:#959595;}.cls-412{fill:#989898;}.cls-413{fill:#a7a7a7;}.cls-414{fill:#b2b2b2;}.cls-415{fill:#7d857e;}.cls-416{fill:#a3aaa3;}.cls-417{fill:#a6aca5;}.cls-418{fill:#e4cd8d;}.cls-419{fill:#282d28;}.cls-420{fill:#414342;}.cls-421{fill:#858c86;}.cls-422{fill:#2d312e;}.cls-423{fill:#313431;}.cls-424{fill:#3f4240;}.cls-425{fill:#2e352b;}.cls-426{fill:#3c453e;}.cls-427{fill:#515048;}.cls-428{fill:#333432;}.cls-429{fill:#374139;}.cls-430{fill:#62371e;}.cls-431{fill:#b0975c;}.cls-432{fill:#fe2f00;}.cls-433{fill:#fe690a;}.cls-434{fill:#f8ca6e;}.cls-435{fill:#7d5d4d;}.cls-436{fill:#b4b4b4;}.cls-437{fill:#e9e9e9;}.cls-438{fill:#6f7771;}.cls-439{fill:#abb0aa;}.cls-440{fill:#463b2f;}.cls-441{fill:#949b92;}.cls-442{fill:#a23d0e;}.cls-443{fill:#c0c5c0;}.cls-444{fill:#d44900;}.cls-445{fill:#818880;}.cls-446{fill:#e1e2e1;}.cls-447{fill:#d1d2d0;}.cls-448{fill:#692c11;}.cls-449{fill:#e22300;}.cls-450{fill:#af3200;}.cls-451{fill:#594839;}.cls-452{fill:#b73a00;}.cls-453{fill:#db3800;}.cls-454{fill:#fd8031;}.cls-455{fill:#fcae62;}.cls-456{fill:#703a22;}.cls-457{fill:#c41400;}.cls-458{fill:#964123;}.cls-459{fill:#653c2c;}.cls-460{fill:#6b4130;}.cls-461{fill:#7b7670;}.cls-462{fill:#9d4a29;}.cls-463{fill:#9c2e00;}.cls-464{fill:#aaa;}.cls-465{fill:#545d55;}.cls-466{fill:#404b41;}.cls-467{fill:#6d675d;}.cls-468{fill:#4b4d4b;}.cls-469{fill:#90928c;}.cls-470{fill:#656e64;}.cls-471{fill:#5a5a59;}.cls-472{fill:#8e968e;}.cls-473{fill:#6d756f;}.cls-474{fill:#852500;}.cls-475{fill:#dfa357;}.cls-476{fill:#586355;}.cls-477{fill:#2d2d28;}.cls-478{fill:#873e23;}.cls-479{fill:#6a5b50;}.cls-480{fill:#81827a;}.cls-481{fill:#cd5614;}.cls-482{fill:#c1c3bf;}.cls-483{fill:#60615f;}.cls-484{fill:#c7ccc7;}</style></defs><title>apc2</title><g id="레이어_2" data-name="레이어 2"><g id="레이어_1-2" data-name="레이어 1"><rect class="cls-1" width="74" height="74" rx="8.33" ry="8.33"/><path class="cls-2" d="M40.84,66.21h1.88A4.05,4.05,0,0,1,39,69.07c-1.74,0-3.49,0-5.23,0-1,0-1.17-.3-.62-1.18A7.21,7.21,0,0,1,36,67.65a15.49,15.49,0,0,1,2.26,0,2,2,0,0,0,2.45-1.38Z"/><path class="cls-3" d="M36,68.11a7.07,7.07,0,0,1-2.86-.23c0-.25,0-.5,0-.75a1.22,1.22,0,0,1,1-.4c.66,0,1.35-.19,1.92.34A.76.76,0,0,1,36,68.11Z"/><path class="cls-4" d="M34.16,67.14h-.94l0-.89h0a.73.73,0,0,1,1-.1A.71.71,0,0,1,34.16,67.14Z"/><path class="cls-5" d="M16,15.65l.06-.87,8.53,0a1.43,1.43,0,0,1,2-.09.92.92,0,0,1,0,1.14c-.73.68-1.63.33-2.46.41-.47,0-.94,0-1.41,0a53.3,53.3,0,0,1-5.51,0c-.34,0-.71,0-1-.19A.71.71,0,0,1,16,15.65Z"/><path class="cls-6" d="M26.48,14.75l-1.88,0c.24-.87,1-1.7,0-2.64-.19-.2,0-.75,0-1.14a.79.79,0,0,1,1-.17,1.11,1.11,0,0,1,.44.85c-.18.73.55.85.85,1.26a1.86,1.86,0,0,1,.07,1A.81.81,0,0,1,26.48,14.75Z"/><path class="cls-7" d="M52.26,8.18c0,.36-.08.71-.08,1.07,0,1.7,0,1.7-1.77,1.7l-.17-.07a.78.78,0,0,1-.13-.89c.28-.35.85-.51.71-1.13A1.12,1.12,0,0,1,51.1,8a.81.81,0,0,1,.94-.1A.5.5,0,0,1,52.26,8.18Z"/><path class="cls-8" d="M49.39,14.71l3.55.07a.78.78,0,0,1,.14,1,1,1,0,0,1-.81.33A5.17,5.17,0,0,1,49.46,16a.78.78,0,0,1-.34-1A.76.76,0,0,1,49.39,14.71Z"/><path class="cls-9" d="M51.53,6.15c.24-1.24,1.42-.84,2.16-1.21.21-.1.38.22.41.46.1.67-.33.9-.87,1a1.83,1.83,0,0,1-1.11.1A.58.58,0,0,1,51.53,6.15Z"/><path class="cls-10" d="M42.74,10h.92a.79.79,0,0,1,1-.14.77.77,0,0,1,.27.35.87.87,0,0,1-.34,1,3.38,3.38,0,0,1-2,.22c-.95-.05-1.12-.36-.94-1.42A.79.79,0,0,1,42.74,10Z"/><path class="cls-11" d="M35.16,8.06H37.9l.18.12a.8.8,0,0,1,0,1,1.14,1.14,0,0,1-1,.3c-.35,0-.7,0-1,0a1.61,1.61,0,0,1-1-.24.79.79,0,0,1-.21-.94A.59.59,0,0,1,35.16,8.06Z"/><path class="cls-12" d="M31.26,10l0-1.86a.72.72,0,0,1,1.25.15,3,3,0,0,1-.24,2.81.86.86,0,0,1-1.09,0A.8.8,0,0,1,31.26,10Z"/><path class="cls-13" d="M53,15.67l0-.89,1.45,0c.67,0,1.25.07,1.19,1-.29.59-.82.46-1.32.47a2,2,0,0,1-1-.19A.71.71,0,0,1,53,15.67Z"/><path class="cls-14" d="M49.38,12.84v2a.78.78,0,0,1-1.15-.1,1.55,1.55,0,0,1,0-1.86A.79.79,0,0,1,49.38,12.84Z"/><path class="cls-15" d="M42.69,7.16V9a.69.69,0,0,1-1.19,0,2,2,0,0,1,0-1.78.71.71,0,0,1,.28-.29A.76.76,0,0,1,42.69,7.16Z"/><path class="cls-16" d="M33.21,7.11l.89.06a.74.74,0,0,1,.24.94A.86.86,0,0,1,34,8.4a1.41,1.41,0,0,1-1.78-.28l0-.11a.61.61,0,0,1,0-.88v0A.74.74,0,0,1,33.21,7.11Z"/><path class="cls-17" d="M52.21,6.21a1.33,1.33,0,0,1,1,.23c-.09.71.24,1.66-1,1.74a.22.22,0,0,1,0-.12A1.15,1.15,0,0,1,52.21,6.21Z"/><path class="cls-18" d="M52.21,6.21l0,1.85-.91.07a.82.82,0,0,1-.42-.94,1.08,1.08,0,0,1,.4-1l.22-.07Z"/><path class="cls-19" d="M28.43,9.93,30.3,10a.71.71,0,0,1,.27.87.69.69,0,0,1-.26.3,1.66,1.66,0,0,1-1,.18,1.22,1.22,0,0,1-1-.21.88.88,0,0,1-.2-1A.71.71,0,0,1,28.43,9.93Z"/><path class="cls-20" d="M25.49,11h-.87c.13-.75-.48-1.85.94-2a.58.58,0,0,1,.28.23,1.46,1.46,0,0,1,0,1.59A.52.52,0,0,1,25.49,11Z"/><path class="cls-21" d="M25.56,9c0-.66.35-.87,1-.87s1,.22.95.88a.47.47,0,0,1-.18.31,1.21,1.21,0,0,1-.89.18,1,1,0,0,1-.83-.38A.17.17,0,0,0,25.56,9Z"/><path class="cls-22" d="M47.43,8c.11-1.39,1.25-.73,1.93-1a.61.61,0,0,1,.29.26.89.89,0,0,1-.14.95,1.06,1.06,0,0,1-.94.26,1.51,1.51,0,0,1-.93-.19A.72.72,0,0,1,47.43,8Z"/><path class="cls-23" d="M45.58,9c-.06-.71.32-.94,1-.88a.76.76,0,0,1,.17.92.7.7,0,0,1-.88.25A.48.48,0,0,1,45.58,9Z"/><path class="cls-24" d="M44.65,9.06,45.58,9v.11a.66.66,0,1,1-.89.95L44.62,10A.58.58,0,0,1,44.65,9.06Z"/><path class="cls-25" d="M44.65,9.06l0,.89h-1C43.62,9.26,44,9,44.65,9.06Z"/><path class="cls-26" d="M41.81,9.06l.87,0,.06.94h-.93A.55.55,0,0,1,41.81,9.06Z"/><path class="cls-27" d="M27.48,9c.59,0,1.05.23.95,1v.12a.78.78,0,0,1-1,0,.71.71,0,0,1,.06-1Z"/><path class="cls-28" d="M46.53,9V8.1L47.43,8l.09.09a.73.73,0,0,1,.16.91.72.72,0,0,1-.89.24A.59.59,0,0,1,46.53,9Z"/><path class="cls-29" d="M51.31,6.22l0,.94a.72.72,0,0,1-1,0,.68.68,0,0,1,.08-1Z"/><path class="cls-30" d="M50.37,6.21l0,.92-.11.15a.63.63,0,0,1-.83-.11l0-.1C49.34,6.36,49.71,6.12,50.37,6.21Z"/><path class="cls-31" d="M42.69,7.16l-.85,0c-.38-.27-.34-.58-.09-.91C42.5,6.09,42.81,6.41,42.69,7.16Z"/><path class="cls-32" d="M41.75,6.21l.09.91-.11,0a.66.66,0,1,1-.89-1Z"/><path class="cls-33" d="M40.84,6.21l0,.93a.64.64,0,0,1-.08.14.59.59,0,0,1-.75.07.46.46,0,0,1-.15-.28C39.79,6.34,40.18,6.12,40.84,6.21Z"/><path class="cls-34" d="M33.21,7.11h-1c.05-.37,0-.87.55-.82S33.16,6.78,33.21,7.11Z"/><path class="cls-35" d="M38.93,7.15l.9-.08.05.12a.73.73,0,0,1,.23.85.7.7,0,0,1-.25.29.93.93,0,0,1-.94,0,.64.64,0,0,1-.26-.3A.76.76,0,0,1,38.93,7.15Z"/><path class="cls-36" d="M38.93,7.15l0,.88a.56.56,0,0,1-.9.08l-.09,0C37.94,7.42,38.23,7.06,38.93,7.15Z"/><path class="cls-37" d="M34.17,8c0-.29-.05-.58-.07-.87.7-.11,1,.23,1.06.89l-.09,0A.57.57,0,0,1,34.17,8Z"/><path class="cls-38" d="M32.23,7.13l0,.88-.9.1C31.22,7.41,31.51,7.07,32.23,7.13Z"/><path class="cls-39" d="M30.34,10.91l0-.87,1-.07v.95A.56.56,0,0,1,30.34,10.91Z"/><path class="cls-40" d="M49.38,12.84l-.87.06a.51.51,0,0,1-.31-.21.8.8,0,0,1,.1-.91.79.79,0,0,1,.91-.12.51.51,0,0,1,.23.29Z"/><path class="cls-41" d="M50.41,11c0,.61-.24,1.06-1,1l-.09-.08a.7.7,0,0,1,0-1,.69.69,0,0,1,1,0Z"/><path class="cls-42" d="M21.76,47.21c.06.71-.36.92-1,.94v-.07a.74.74,0,0,1-.19-.91.72.72,0,0,1,.89-.25A.57.57,0,0,1,21.76,47.21Z"/><path class="cls-43" d="M24.6,45.23a1.38,1.38,0,0,1-.22,1H23.7l-.17-.12a.69.69,0,0,1,1.07-.88Z"/><path class="cls-44" d="M22.67,47.13l-.91.08V47.1a.69.69,0,0,1-.14-1,.83.83,0,0,1,1-.22.76.76,0,0,1,.31.28A.71.71,0,0,1,22.67,47.13Z"/><path class="cls-45" d="M22.67,47.13l.08-.88c.27-.34.56-.31.88-.07l.07,0C23.69,46.91,23.35,47.22,22.67,47.13Z"/><path class="cls-46" d="M20.77,26.17l.08-.87a.9.9,0,0,1,.95-.53.92.92,0,0,0,.85-.51c0-.68.26-1,1-1l.19.1a1.15,1.15,0,0,1,.3,1,3.23,3.23,0,0,1-.2,1.82,1,1,0,0,1-.92.47c-.63-.07-.87.45-1.27.74a.86.86,0,0,1-1-.18A.8.8,0,0,1,20.77,26.17Z"/><path class="cls-47" d="M18,17.61c-.72-.13-1.8.53-2-.88a.58.58,0,0,1,.22-.31,1.53,1.53,0,0,1,1-.19,1,1,0,0,1,.95.37A.82.82,0,0,1,18,17.61Z"/><path class="cls-48" d="M22.65,24.26c.08,1.51-1.11.84-1.8,1C20.78,23.8,22,24.45,22.65,24.26Z"/><path class="cls-49" d="M24.56,21.42l0-.92a.81.81,0,0,1-.05-1.07.9.9,0,0,1,1.1,0,1.69,1.69,0,0,1,.2,1.94.78.78,0,0,1-.95.37A.69.69,0,0,1,24.56,21.42Z"/><path class="cls-50" d="M24.61,19.57c0,.31,0,.62,0,.93-.67-.21-1.78.5-1.89-.9a.53.53,0,0,1,.19-.32c.28-.23.61-.15.92-.16A.71.71,0,0,1,24.61,19.57Z"/><path class="cls-51" d="M21.73,18.62l-.91-.08a.77.77,0,0,1-.11-1.07,1.7,1.7,0,0,1,2-.1.86.86,0,0,1,.33,1,.93.93,0,0,1-.26.36A.85.85,0,0,1,21.73,18.62Z"/><path class="cls-52" d="M23.62,23.29l.06-.88a.75.75,0,0,1,.91-.24.8.8,0,0,1,.28.3.84.84,0,0,1-.19,1,.75.75,0,0,1-1-.08Z"/><path class="cls-53" d="M24.57,22.35l-.89.06c-.07-.66.2-1,.88-1l.11,0A.58.58,0,0,1,24.57,22.35Z"/><path class="cls-54" d="M21.73,18.62h1a.56.56,0,0,1,0,.88l0,.11C22.09,19.56,21.65,19.34,21.73,18.62Z"/><path class="cls-55" d="M16,16.73c-.34-.09-.87.05-.86-.54s.55-.43.88-.54a.37.37,0,0,1,0,.11.59.59,0,0,1,0,.87Z"/><path class="cls-56" d="M18.9,28c-.06-.66.27-.93.89-.92l.17.07a.71.71,0,0,1,.18.83.68.68,0,0,1-.21.29.77.77,0,0,1-.85,0A.47.47,0,0,1,18.9,28Z"/><path class="cls-57" d="M18,17.61l0-.9a.69.69,0,0,1,.93-.24.75.75,0,0,1,.3.93.68.68,0,0,1-.29.29Z"/><path class="cls-58" d="M18,28.13,18.9,28v.11a.7.7,0,0,1,.13.94.8.8,0,0,1-1,.23.61.61,0,0,1-.31-.26A.74.74,0,0,1,18,28.13Z"/><path class="cls-59" d="M18,28.13l0,.86a.57.57,0,0,1-1,0l0-.9Z"/><path class="cls-60" d="M19.87,18.54c-.66.1-1.07-.09-1-.85a.56.56,0,0,0,0-.12.78.78,0,0,1,.89-.19.66.66,0,0,1,.28.27A.74.74,0,0,1,19.87,18.54Z"/><path class="cls-61" d="M19.87,18.54l0-.92a.59.59,0,0,1,.94,0l0,.89Z"/><path class="cls-62" d="M20.77,26.17l0,1-.11.14a.61.61,0,0,1-.81-.12l-.1-.05C19.82,26.5,20.07,26.1,20.77,26.17Z"/><path class="cls-13" d="M56,15.74c1.93-.05,2.1.14,1.94,1.94-.06.67-.36.92-1,.87-.61-.5-.34-1.54-1.16-1.92A.75.75,0,0,1,56,15.74Z"/><path class="cls-63" d="M50.41,21.4c1.8.07,1.8.07,1.86,1.87a1.42,1.42,0,0,1-.08.18.76.76,0,0,1-.88.13,3.86,3.86,0,0,0-1.15-1.09.79.79,0,0,1,0-.88A.47.47,0,0,1,50.41,21.4Z"/><path class="cls-64" d="M54.22,25.21c1.79.07,1.79.07,1.87,1.91l-.1.17a.82.82,0,0,1-.93.08c-.3-.69-1.58-.81-1.14-1.94A.52.52,0,0,1,54.22,25.21Z"/><path class="cls-65" d="M55.08,18.52l-2.83.12-.17-.14a.84.84,0,0,1,0-1,1.17,1.17,0,0,1,1-.31c.36,0,.72,0,1.08,0a1.26,1.26,0,0,1,1,.35A.72.72,0,0,1,55.08,18.52Z"/><path class="cls-66" d="M56,15.74l.08.91-.08.17a1.1,1.1,0,0,1-.9.28,1.52,1.52,0,0,1-1-.17.73.73,0,0,1-.26-.29.78.78,0,0,1,.23-.91l1.44,0Z"/><path class="cls-67" d="M56.11,16.65c1.44.11.73,1.2.87,1.9l-1,0a1.18,1.18,0,0,1,0-1.85Z"/><path class="cls-68" d="M56,16.68v1.85h-.94l0-.93a.65.65,0,0,1,0-.91Z"/><path class="cls-69" d="M50.34,19.59l.06,1.81-.08.05a.77.77,0,0,1-1,.1,1.15,1.15,0,0,1-.35-1,1.52,1.52,0,0,1,.2-1,.75.75,0,0,1,.92-.25A.59.59,0,0,1,50.34,19.59Z"/><path class="cls-70" d="M52.27,23.27c.6,0,1,.29,1,1a.52.52,0,0,1-.3.28c-.92,0-1.15-.33-.71-1.14Z"/><path class="cls-71" d="M51.27,19.5l-.93.09v-.11a.69.69,0,0,1,0-1,.8.8,0,0,1,1,0A.72.72,0,0,1,51.27,19.5Z"/><path class="cls-72" d="M51.27,19.5l0-.89a.63.63,0,0,1,.94-.09v.12C52.34,19.39,51.93,19.59,51.27,19.5Z"/><path class="cls-73" d="M58,28.11l0,.9a.68.68,0,0,1-.92.24.72.72,0,0,1-.31-.91A.61.61,0,0,1,57,28Z"/><path class="cls-74" d="M56.09,27.12c.62,0,1,.27.94.92l0,.1a.73.73,0,0,1-1,0,.71.71,0,0,1,0-1Z"/><path class="cls-75" d="M53.24,24.23a.89.89,0,0,1,1,1l-.12.07a.71.71,0,0,1-1,0,.72.72,0,0,1,0-1Z"/><path class="cls-76" d="M55.13,48.07H53.24A.77.77,0,0,1,53.13,47a1.71,1.71,0,0,1,2,0A.79.79,0,0,1,55.13,48.07Z"/><path class="cls-77" d="M55.13,48.07l-.06-.88a.76.76,0,0,1,.85-.46,1.93,1.93,0,0,1,1,.14.89.89,0,0,1,.3.28.74.74,0,0,1-.21.92l-1.43.07Z"/><path class="cls-78" d="M53.19,47.18c0,.29,0,.59.05.89-.67.1-1-.15-1-.86l.1-.16A.56.56,0,0,1,53.19,47.18Z"/><path class="cls-79" d="M49.39,46.2l-.09-.94a.59.59,0,0,1,.25-.27.79.79,0,0,1,.9.13.77.77,0,0,1,.14.89.62.62,0,0,1-.29.24Z"/><path class="cls-80" d="M51.33,47.13c-.66.08-1-.2-1-.88l.07-.07a.75.75,0,0,1,.88-.21.66.66,0,0,1,.28.27A.76.76,0,0,1,51.33,47.13Z"/><path class="cls-81" d="M51.33,47.13l0-.93a.7.7,0,0,1,1-.1.66.66,0,0,1,0,1v.12Z"/><path class="cls-82" d="M57.06,29H58l9.49.07a.76.76,0,0,1,.16,1,1,1,0,0,1-.37.26,36.44,36.44,0,0,1-5.91.12,14.29,14.29,0,0,1-4.23-.17.77.77,0,0,1-.36-1A.63.63,0,0,1,57.06,29Z"/><path class="cls-83" d="M68.48,36.92l-.07.7a.73.73,0,0,1-1.06,0,5.06,5.06,0,0,1,0-3.86.73.73,0,0,1,1.07,0Z"/><path class="cls-84" d="M68.4,33.8l-.87.05-.19-.1c-.61-.86-.24-1.82-.28-2.75a1.15,1.15,0,0,1,.42-1v-.1a.68.68,0,0,1,.94.09Z"/><path class="cls-85" d="M68.43,30l-.94-.09c0-.29,0-.57,0-.86C68.21,29,68.52,29.3,68.43,30Z"/><path class="cls-86" d="M5.52,35.25,5.59,30a.77.77,0,0,1,1.06-.09c.7.92.25,2,.34,2.94v9.41a32.66,32.66,0,0,1-.14,4.64,1,1,0,0,1-.25.36.74.74,0,0,1-1-.14l-.08-8.09Z"/><path class="cls-87" d="M34.16,66.24h-1c0-.69-.3-1-1-1a.79.79,0,0,1-.11-1,1.16,1.16,0,0,1,.92-.39,1.31,1.31,0,0,0,1.52-1.39,1.68,1.68,0,0,1,.58-1.36,2.16,2.16,0,0,1,1.93.15c.52.51.45,1.18.51,1.82s.45.75,1,.78c.74,0,1.58-.34,2.18.42,0,.64,0,1.29.07,1.94h0a1.12,1.12,0,0,1-.94.43c-.64.06-1.28,0-1.92,0H36C35.36,66.65,34.66,66.87,34.16,66.24Z"/><path class="cls-88" d="M27.72,59.5v-.87a.68.68,0,0,1,.65-.42,4.18,4.18,0,0,1,1-.08H44.61c.66.05,1.39-.22,1.9.45.05.9-.07,1.56-1.23,1a2,2,0,0,0-.7,0,1.15,1.15,0,0,1-1,.4,19.85,19.85,0,0,1-2.78.05c-.57,0-1.14,0-1.7,0A10.3,10.3,0,0,1,37,60a22,22,0,0,1-2.57.06A13,13,0,0,0,32.35,60h-2q-.5,0-1,0a4.77,4.77,0,0,1-1-.08A.66.66,0,0,1,27.72,59.5Z"/><path class="cls-89" d="M39.13,59.58h1.65a1.15,1.15,0,0,1,.06,1.89l-.06.68a2.3,2.3,0,0,0-.35.47,2.11,2.11,0,0,1-3.41.72L37,61.48a.88.88,0,0,1,.05-.15c.07-.1.16-.22.26-.22A1.91,1.91,0,0,0,39.13,59.58Z"/><path class="cls-90" d="M40.84,61.47l-.06-1.89,2.93,0c.82,1.22.45,2.51.21,3.79-.23.28-.28.84-.81.66s-.38-.64-.39-1c0-.76,0-1.51,0-2.51C42,61.06,41.52,61.56,40.84,61.47Z"/><path class="cls-91" d="M37,63.34h1.3c.69,0,1.34,0,1.66-.79.13-.33.49-.37.8-.41,0,.7,0,1.41,0,2.12-.93,0-1.86,0-2.8,0C37.29,64.33,36.94,64.05,37,63.34Z"/><path class="cls-92" d="M44.64,53.8l.93,0,0,.9-.09.19a1.12,1.12,0,0,1-1,.3c-.36,0-.71,0-1.07,0-1-.11-2,.32-2.83-.43a1,1,0,0,1,0-1.14A4.19,4.19,0,0,1,44.64,53.8Z"/><path class="cls-93" d="M46.51,58.57H44.62a.8.8,0,0,1-.22-.93,1.58,1.58,0,0,0,.71-1.59,1.21,1.21,0,0,1,.43-1.25l.07-.07c.69,0,.94.39.92,1C46.5,56.72,46.51,57.64,46.51,58.57Z"/><path class="cls-94" d="M43.92,63.39c-.53-1.24-.15-2.53-.21-3.79l.87,0c0,.94,0,1.88.06,2.83C44.65,62.92,44.58,63.37,43.92,63.39Z"/><path class="cls-95" d="M49.3,45.26c-.69.05-.88-.39-.92-1h.07a.71.71,0,0,1,1,0,.72.72,0,0,1,0,1Z"/><path class="cls-96" d="M27.45,45.72l.05-4.3a.76.76,0,0,1,1.07,0,1.58,1.58,0,0,1,.33,1.1c0,3.11,0,6.23,0,9.34a1.4,1.4,0,0,1-.17.8.76.76,0,0,1-.35.29c-.81,0-.91-.54-.91-1.2C27.48,49.73,27.46,47.72,27.45,45.72Z"/><path class="cls-97" d="M25.52,38.6l0,5.66-.9.08-.2-.12c-.35-1.89-.79-3.78,0-5.66A.72.72,0,0,1,25.52,38.6Z"/><path class="cls-98" d="M27.51,57.62V55.73a.74.74,0,0,1,1-.11,1.7,1.7,0,0,1,.23,1.85.73.73,0,0,1-.26.34A.75.75,0,0,1,27.51,57.62Z"/><path class="cls-99" d="M27.72,59.5l.73.07a1.33,1.33,0,0,1,.11,1.92.75.75,0,0,1-1.06-.06C27.54,60.78,27.27,60.1,27.72,59.5Z"/><path class="cls-100" d="M27.5,61.43l.91,0,.18.08a1.38,1.38,0,0,1,.11,1.65.59.59,0,0,1-.31.23C27,63.25,27.6,62.18,27.5,61.43Z"/><path class="cls-101" d="M32.28,64.36l-.06.89c-.7-.16-1.81.54-1.9-.91l.08-.18A1.35,1.35,0,0,1,32.06,64,.6.6,0,0,1,32.28,64.36Z"/><path class="cls-102" d="M24.6,45.23l-.88.05-.18-.12a.75.75,0,0,1,.05-1,.73.73,0,0,1,1,.06l.08.1Z"/><path class="cls-103" d="M29.41,64.28c-.65.08-1-.18-1-.86l.06-.1a.71.71,0,0,1,1,0A.7.7,0,0,1,29.41,64.28Z"/><path class="cls-104" d="M29.41,64.28l0-.85a.49.49,0,0,1,.16-.3.77.77,0,0,1,.85,0,.92.92,0,0,1,.23.29.75.75,0,0,1-.26.83l0,.08Z"/><path class="cls-105" d="M28.39,53.79c0-.29,0-.57,0-.86l.07-.09a.73.73,0,0,1,1,0c.41.8.24,1.26-.73,1.26A.63.63,0,0,1,28.39,53.79Z"/><path class="cls-106" d="M27.49,54.81c-.08-.68.22-1,.9-1l.08.07a.7.7,0,0,1,0,1A.72.72,0,0,1,27.49,54.81Z"/><path class="cls-107" d="M27.49,54.81l.91-.09.16.07a.66.66,0,0,1,.1.8.59.59,0,0,1-.28.19l-.87-.05Z"/><path class="cls-108" d="M27.51,57.62l.86,0c.36.27.33.58.08.91l-.74.07A1.17,1.17,0,0,1,27.51,57.62Z"/><path class="cls-109" d="M39.84,66.23h1c-.12,1.79-.22,1.89-1.93,1.89-1,0-1.9,0-2.84,0,0-.31,0-.62,0-.94l.09-.17c.48-.48,1.08-.26,1.63-.3C38.48,66.61,39.28,67,39.84,66.23Z"/><path class="cls-110" d="M34.16,66.24H36a.61.61,0,0,1,0,.91v0l-1.89,0Z"/><path class="cls-111" d="M20.79,17.65l-.94,0,0,0c-.36-.27-.62-.64-1-.9h-.94L17,16.63a.55.55,0,0,1,0-.87h5.69c.3.26.6.5.55,1s-.11.79-.59.91Z"/><path class="cls-112" d="M22.94,16.66l-.23-.91,3.79-.06.17.13a.81.81,0,0,1,0,1,1.13,1.13,0,0,1-1,.3c-.34,0-.68,0-1,0a4.86,4.86,0,0,1-1-.08A.71.71,0,0,1,22.94,16.66Z"/><path class="cls-113" d="M26.48,14.75l.08-.95a.76.76,0,0,1,1-.11,1.14,1.14,0,0,1,.31,1.07,1.32,1.32,0,0,1-.33,1.06.87.87,0,0,1-1.08,0,.09.09,0,0,1,0-.11C26.5,15.38,26.49,15.06,26.48,14.75Z"/><path class="cls-114" d="M17,15.76v.87h-.95v-.87Z"/><path class="cls-115" d="M27.46,13.82l-.9,0-.08-.93a1.28,1.28,0,0,1-.37-1,1.17,1.17,0,0,1,.37-1.06,1,1,0,0,1,1.14.09A2.56,2.56,0,0,1,27.46,13.82Z"/><path class="cls-116" d="M26.49,11v1a.6.6,0,0,1-.9,0L25.49,11l.12,0A.57.57,0,0,1,26.49,11Z"/><path class="cls-117" d="M25.58,11.88l.9,0v.94C25.78,12.91,25.52,12.54,25.58,11.88Z"/><path class="cls-118" d="M50.34,7.13l.95,0,0,1,0,.89a.77.77,0,0,1-1,.13,1.1,1.1,0,0,1-.31-1,1.09,1.09,0,0,1,.4-1Z"/><path class="cls-119" d="M50.3,10.94l-.86,0-.17-.07a.72.72,0,0,1-.17-.83.7.7,0,0,1,.22-.29.81.81,0,0,1,.86,0,.49.49,0,0,1,.22.27Z"/><path class="cls-120" d="M50.35,9.06l.93,0c.07.66-.14,1.06-.88,1l-.11,0a.64.64,0,0,1-.08-.83Z"/><path class="cls-121" d="M53.19,17.59l-.92.07a1.57,1.57,0,0,1-1.78.3c-.64-.17-.69-1-1.28-1.2a.81.81,0,0,1,0-1l.16-.12,2.84.08a4,4,0,0,0,1.11.71.74.74,0,0,1-.14,1.12Z"/><path class="cls-122" d="M48.51,12.9c.05.75-.62,1.83.88,1.92v.94a1.48,1.48,0,0,1-2,.08,3.15,3.15,0,0,1-.07-3,.76.76,0,0,1,1.09,0A.6.6,0,0,1,48.51,12.9Z"/><path class="cls-123" d="M53.21,16.66c-.68.09-1-.18-1-.9l.75-.09.22.07A.62.62,0,0,1,53.21,16.66Z"/><path class="cls-124" d="M41.81,9.06V10c-.11.72.23,1,.92,1s1.24,0,1.86,0l.18.14a.83.83,0,0,1-.09,1.06c-.61.47-1.32.24-2,.26a3.69,3.69,0,0,1-2-.31c-.55-.61-.26-1.34-.31-2A1.52,1.52,0,0,1,40.67,9a.76.76,0,0,1,1,0Z"/><path class="cls-125" d="M44.68,10l.9-.07a1.21,1.21,0,0,1,1-.38,1.09,1.09,0,0,1,1.06.28,1.64,1.64,0,0,1,.27,1.1c0,.82-.27,1.32-1.19,1.23-.49-.75-1.51-.62-2.09-1.24l0,0Z"/><path class="cls-126" d="M37,9.09,37.93,9a.84.84,0,0,1,1-.2.86.86,0,0,1,.29.31.88.88,0,0,1-.18,1,1.52,1.52,0,0,1-1.06.28,1.14,1.14,0,0,1-1-.31A.76.76,0,0,1,37,9.09Z"/><path class="cls-127" d="M38.88,9h-1L38,8.11l.9-.08,0,.11A.55.55,0,0,1,38.88,9Z"/><path class="cls-128" d="M37,9.09,37,10a.72.72,0,0,1-1,.09.7.7,0,0,1,.06-1Z"/><path class="cls-129" d="M36,9.08l0,.9a.71.71,0,0,1-.93.22.73.73,0,0,1-.3-.91A.66.66,0,0,1,35.1,9Z"/><path class="cls-130" d="M34.17,8l.9.07,0,.88v.12c-1.1.23-1.22.1-1-1Z"/><path class="cls-131" d="M34.1,8.15c-.13.79.36.95,1,1V10a.64.64,0,0,1-.78.5c-.52,0-.75.3-1,.65a.83.83,0,0,1-.88.1.53.53,0,0,1-.25-.28l.06-2.81Z"/><path class="cls-132" d="M30.34,10.91h1.85l.09,0c.48,1,0,1.32-.89,1.37a1.45,1.45,0,0,1-1.1-.28.73.73,0,0,1,0-1Z"/><path class="cls-133" d="M53.21,16.66l0-.92h1l0,.91a.65.65,0,0,1-1,0Z"/><path class="cls-134" d="M41.72,9l-.93.09a.71.71,0,0,1-1,0,.74.74,0,0,1,.07-1l0,0c.35-.28.65-.62,1-.93h0l.92,0C41.73,7.78,41.73,8.38,41.72,9Z"/><path class="cls-135" d="M27.46,13.82l0-2.86a.69.69,0,0,1,1-.05l.9.08a.76.76,0,0,1,.19,1c-.77.44-.63,1.19-.65,1.89,0,1.09-.36,1.29-1.39.92Z"/><path class="cls-136" d="M28.46,10.91l-1,.05h-1l-.88,0,0-1.86h.92c.37.26.63.63,1,.89l.93.08Z"/><path class="cls-137" d="M29.34,11.84l0-.85.93,0c0,.28,0,.56,0,.84a1.42,1.42,0,0,1-.05.16.58.58,0,0,1-.75.1A.38.38,0,0,1,29.34,11.84Z"/><path class="cls-138" d="M27.49,10c-.69.11-1-.18-1-.89h1Z"/><path class="cls-139" d="M50.34,8.08v1h0a9.56,9.56,0,0,0-1,.95h0a.79.79,0,0,1-1,.12,1.13,1.13,0,0,1-.31-1,1,1,0,0,1,.42-1l.9-.08A.72.72,0,0,1,50.34,8.08Z"/><path class="cls-140" d="M48.46,8.13,48.41,9a.62.62,0,0,1-.95,0l.06-.89Z"/><path class="cls-141" d="M50.34,8.08l-1,0,0-.88h1Z"/><path class="cls-142" d="M46.52,10h-.94c0-.29,0-.58,0-.88l1-.09v.1A.58.58,0,0,1,46.52,10Z"/><path class="cls-143" d="M46.52,10V9.1L47.46,9l.95,0,0,1a.66.66,0,0,1-1,0Z"/><path class="cls-144" d="M40.82,7.14c.1.76-.27,1-1,.93l0-.88Z"/><path class="cls-145" d="M39.86,8.09v1l-.12.14a.63.63,0,0,1-.82-.13l0-.05c0-.29,0-.58,0-.87Z"/><path class="cls-146" d="M46.54,11.91c.75.11,1-.28,1-.95a.72.72,0,0,1,1-.07.78.78,0,0,1-.07,1l-.06.91-.88,0a.8.8,0,0,1-1,.13.71.71,0,0,1-.16-1Z"/><path class="cls-147" d="M48.46,11.93V11a.57.57,0,0,1,.88,0l.11,0-.09.9Z"/><path class="cls-148" d="M13.17,48.07l-6.67.06,0-.05a.65.65,0,0,1-.08-.92h.11a1.14,1.14,0,0,1,1-.42c1.52-.1,3,0,4.57,0a1.54,1.54,0,0,1,1.09.33A.73.73,0,0,1,13.17,48.07Z"/><path class="cls-149" d="M13.17,48.07l0-.91.1-.18a5.69,5.69,0,0,1,3.53-.14.73.73,0,0,1,.34.26.74.74,0,0,1-.18,1Z"/><path class="cls-150" d="M17,48.07l0-.88c.2-.42.57-.44,1-.44A1.11,1.11,0,0,1,19,47a.76.76,0,0,1-.13,1Z"/><path class="cls-151" d="M18.88,48.07l.05-.88a1.1,1.1,0,0,1,1.89,0l0,.9Z"/><path class="cls-152" d="M6.45,47.16l.08.92c-.78.16-1.11-.13-.93-.93Z"/><path class="cls-153" d="M20.82,47.18H18.93l-1,0a.81.81,0,0,1,.26-1.3,4.49,4.49,0,0,1,3.58.38v.87Z"/><path class="cls-154" d="M23.63,46.18l-.88.07-.08-.09a.71.71,0,0,1,0-1,.7.7,0,0,1,1,.06l.1.05Z"/><path class="cls-155" d="M22.73,45.26l-.06.9-.9.07c-.93,0-1.87,0-2.8,0-.67,0-1,.24-1,.94l-.93,0,0-.1a1.33,1.33,0,0,0-1.14-.47c-1,.14-2,0-3.05.06h-4a2.29,2.29,0,0,1-1.47-.32,4.58,4.58,0,0,1-.22-2.9c1.1-.93,2.09-.84,2.87.25s1.11,1,1.89-.08a2.42,2.42,0,0,1,3.78.2c.52,1,1.19,1,1.75.06.88-1.45,2.2-1.47,3.06,0a1.62,1.62,0,0,0,1.22.82C22.07,44.75,22.54,44.74,22.73,45.26Z"/><path class="cls-156" d="M6.54,30h-1c-.09-.84.43-1,1.1-1l9.37,0a.79.79,0,0,1,0,1.1,1.57,1.57,0,0,1-1.22.28c-2.32,0-4.64-.05-6.95.05A1.51,1.51,0,0,1,6.54,30Z"/><path class="cls-157" d="M16,30l0-.88L17,29l1,0,0,.1a.77.77,0,0,1,.1,1,1.12,1.12,0,0,1-1.06.29C16.61,30.42,16.24,30.39,16,30Z"/><path class="cls-158" d="M20.81,27.15l.92,0,.16,0c.65.76,1.19.57,1.65-.21a1.07,1.07,0,0,1,.37-.15.92.92,0,0,1,.95.39c.57,1.79.21,2.26-1.79,2.4a1.08,1.08,0,0,0-.93.39,1.05,1.05,0,0,1-1.38.28c-.23-.57-.93-.69-1.18-1.23a.83.83,0,0,1,.28-.91v0c.33-.3.62-.64,1-.93Z"/><path class="cls-159" d="M21.73,27.12c.08-1.49,1.24-.74,1.95-.94l.13.11a.6.6,0,0,1-.11.81l-.07.09a1.17,1.17,0,0,1-1.82,0Z"/><path class="cls-160" d="M23.68,26.18v-1.9a.77.77,0,0,1,1-.09,1.23,1.23,0,0,1,.33,1,1.24,1.24,0,0,1-.33,1.05.8.8,0,0,1-1.05-.09Z"/><path class="cls-161" d="M24.57,24.33l-.9,0c0-.3,0-.6,0-.9l.89-.07.16.07a.62.62,0,0,1,.1.77A.5.5,0,0,1,24.57,24.33Z"/><path class="cls-162" d="M25.52,21.42l0-1.86.14-.17a.76.76,0,0,1,1,.12c.57,1.42.35,2-.83,2.17A.63.63,0,0,1,25.52,21.42Z"/><path class="cls-163" d="M24.61,19.57l-.93-.08a.74.74,0,0,1-.27-.86.7.7,0,0,1,.24-.3,1.4,1.4,0,0,1,.94-.19,1.52,1.52,0,0,1,.94.16.69.69,0,0,1,.27.29.74.74,0,0,1-.25.88v.09Z"/><path class="cls-164" d="M24.57,22.35c0-.3.07-.6.1-.9l.85,0,.11,0a.76.76,0,0,1,0,1,.72.72,0,0,1-1,0Z"/><path class="cls-165" d="M23.65,18.57l0,.92h-1l0-.88a.76.76,0,0,1,0-.11A.63.63,0,0,1,23.65,18.57Z"/><path class="cls-166" d="M23.65,18.57l-.92-.07-.06-.88c.06-.32,0-.68.27-1l.76.05a1.1,1.1,0,0,1,0,1.81Z"/><path class="cls-167" d="M24.65,22.42l.9-.06a.7.7,0,0,1,.11,1,.68.68,0,0,1-1,0l-.08-.06Z"/><path class="cls-168" d="M20.82,27.16c.1.76-.24,1.05-1,.93,0-.3,0-.61,0-.92Z"/><path class="cls-169" d="M19.86,28.12l0,.92a.53.53,0,0,1-.73.22.43.43,0,0,1-.2-.26v-.85Z"/><path class="cls-170" d="M18.87,16.7c.71-.11,1.09.13,1,.9l-1,0Z"/><path class="cls-171" d="M17.91,30l.05-.87L18.9,29v.11a.65.65,0,0,1,0,1A.67.67,0,0,1,17.91,30Z"/><path class="cls-172" d="M53.16,24.33l0,.91a1.91,1.91,0,0,1-1.06,1.3,2.11,2.11,0,0,1-1.82-.13.93.93,0,0,1-.31-.92c0-.58.94-.56.83-1.23a1.05,1.05,0,0,1,.21-.8.64.64,0,0,1,.29-.16l.89.07C52.18,24,52.48,24.37,53.16,24.33Z"/><path class="cls-173" d="M49.43,21.39l.89.06.07.89a1,1,0,0,0-.1.17.78.78,0,0,1-.95,0,.75.75,0,0,1-.2-.91A.61.61,0,0,1,49.43,21.39Z"/><path class="cls-174" d="M50.39,22.34c.69-.05,1,.3,1,1l-.09.08c-1,.25-1.19.11-1-.95Z"/><path class="cls-175" d="M52.24,26.24c0-.67.25-1,1-1l.9,0c.08.35-.05.82.5.89s.47.59.51,1a6.33,6.33,0,0,1-1,1.21,1,1,0,0,1-.92,0A6.15,6.15,0,0,0,52,27.14.73.73,0,0,1,52.24,26.24Z"/><path class="cls-176" d="M54.16,28.08c-.06-.69.29-1,1-.93l.91,0,.06.88-.09.19a1.28,1.28,0,0,1-1.73,0Z"/><path class="cls-177" d="M50.36,17.65h1.91l0,.86-.94.09h-1l-.15-.12A.59.59,0,0,1,50.36,17.65Z"/><path class="cls-178" d="M53.19,16.68l1,0,0,0a.62.62,0,0,1,0,.92h-.93Z"/><path class="cls-179" d="M54.12,17.59l0-.92h.93c0,.31,0,.61,0,.91Z"/><path class="cls-180" d="M50.36,18.62l0,.86-1,.09a1.07,1.07,0,0,1-.16-.14.74.74,0,0,1,.11-1,.77.77,0,0,1,1,.06Z"/><path class="cls-181" d="M49.36,20.5l.07.89-.08.08a.72.72,0,0,1-1,0,.8.8,0,0,1,0-1A.72.72,0,0,1,49.36,20.5Z"/><path class="cls-182" d="M49.36,20.5l-.91,0-.16-.14a.71.71,0,0,1,.11-1,.81.81,0,0,1,1,.1v.1Z"/><path class="cls-183" d="M56.08,28.06l.92.08.06.87-.07.07a.71.71,0,0,1-1,.06.67.67,0,0,1,0-1Z"/><path class="cls-184" d="M67.47,48.08H60.35a2.35,2.35,0,0,0-1.87-.43A1.64,1.64,0,0,1,57,47.18l0,0c-.49-.7-.26-1.38.48-1.41a7.88,7.88,0,0,1,3.38.14,1.7,1.7,0,0,0,1.65.83c1.6.06,3.22-.33,4.81.13a.86.86,0,0,1,.33.27A.77.77,0,0,1,67.47,48.08Z"/><path class="cls-185" d="M68.4,40.5v4.77a.76.76,0,0,1-1,.06,2.18,2.18,0,0,1-.47-1.27c.26-1.08-.08-2.21.26-3.29a1.14,1.14,0,0,1,.23-.38A.71.71,0,0,1,68.4,40.5Z"/><path class="cls-186" d="M57,47.18c.7,0,1.4,0,2.1,0s1.13.21,1.26.91H57Z"/><path class="cls-187" d="M68.4,40.5l-.87,0a.65.65,0,0,1-.3-.29,2.72,2.72,0,0,1,.1-2.45l.19-.1.89,0C68.41,38.58,68.41,39.54,68.4,40.5Z"/><path class="cls-188" d="M67.57,45.24l.84,0v1.88a.55.55,0,0,1-.85,0h-.1a1.24,1.24,0,0,1-.23-1.69A.67.67,0,0,1,67.57,45.24Z"/><path class="cls-189" d="M67.56,47.16h.85c.16.79-.17,1.08-.94.93Z"/><path class="cls-190" d="M52.25,47.09l0-.87a4.49,4.49,0,0,1,3.58-.37.8.8,0,0,1,.27,1.29l-1,0H53.19Z"/><path class="cls-155" d="M56.08,47.14c0-.7-.38-1-1-.93-.94,0-1.87,0-2.81,0l-.93,0h0a.73.73,0,0,1-.19-.73,1.26,1.26,0,0,1,.91-.68,2.64,2.64,0,0,0,1.72-1.32,1.77,1.77,0,0,1,2.76,0,5.48,5.48,0,0,0,.38.6c.57.61,1.09.54,1.48-.18a2.35,2.35,0,0,1,3.83-.19c.6.85.84.89,1.6.09a2.34,2.34,0,0,1,1.79-.95c1,0,1.61.25,1.87,1.22l.12,1.18h-.11c-1.73,1.93-4,1.46-6.16,1.34-.19,0-.31-.23-.45-.36-.93,0-1.87,0-2.79-.07s-1.08.26-1,1Z"/><path class="cls-191" d="M49.41,45.24l0-.88.11-.18c.82-.34,1.18-.06,1.11.82a.57.57,0,0,1-.28.29Z"/><path class="cls-154" d="M51.33,45.5l0,.7-.93,0c0-.3,0-.59-.07-.89l.07-.07C50.79,45,51.16,44.88,51.33,45.5Z"/><path class="cls-192" d="M67.48,30V31a1.21,1.21,0,0,1-1,.44c-2.89.1-5.77,0-8.66,0a1.24,1.24,0,0,1-.79-.21.86.86,0,0,1-.17-1.08L57,30Z"/><path class="cls-193" d="M56.08,29l.91.06c0,.29,0,.59,0,.89l.06,0,0,.07a.85.85,0,0,1-1,.15.73.73,0,0,1-.28-.91A.63.63,0,0,1,56.08,29Z"/><path class="cls-194" d="M67.53,33.85c0,1.27,0,2.53,0,3.79l0,0a.81.81,0,0,1-1,.19,1,1,0,0,1-.45-.79,1.87,1.87,0,0,0-1.27-1.9c-.48-.16-.6-.68-.42-1.2.58-.93,1.48-.37,2.24-.47a.86.86,0,0,1,.83.32Z"/><path class="cls-110" d="M67.44,33.77l-.89,0a.85.85,0,0,1-.45-.88,5.07,5.07,0,0,1,0-1,1,1,0,0,1,.41-.91l1,0C67.47,31.89,67.46,32.83,67.44,33.77Z"/><path class="cls-195" d="M16,30l.95.07a.78.78,0,0,1,.1,1.07c-.52.5-1.18.29-1.78.31-1,0-2,0-2.92,0s-1.75,0-2.62,0a1,1,0,0,0-1.22.67c-.57.12-.69.76-1.15,1a.79.79,0,0,1-.86-.27V30Z"/><path class="cls-196" d="M6.53,32.85l.91,0,.18.1a1.12,1.12,0,0,1,.29.94c0,.34,0,.69,0,1a13.94,13.94,0,0,1,0,2.74,15,15,0,0,1-.16,4.54,1.07,1.07,0,0,1-.25.35.73.73,0,0,1-1-.13Z"/><path class="cls-197" d="M6.55,42.4h.86a.61.61,0,0,1,.09,1l0,2.85a.68.68,0,0,1,0,1H6.56C6.55,45.57,6.55,44,6.55,42.4Z"/><path class="cls-198" d="M44.64,53.8l-3.85.05a1.51,1.51,0,0,1-1.38.46h-6c-.43,0-.87,0-1.3,0-.89,0-1.31-.44-1.05-1.37a1.11,1.11,0,0,1,1-.5c.37,0,.73,0,1.1,0s.85,0,1.28,0a12,12,0,0,1,2.54,0c.91-.1,1.83,0,2.73-.2.72-.16.6-.73.6-1.23q0-4,0-8.07a2.09,2.09,0,0,1,.36-1.57c1.72-.79,2.49-.33,2.49,1.49,0,2.69,0,5.39,0,8.09,0,.45-.16,1,.37,1.28a2.85,2.85,0,0,1,.87.44.51.51,0,0,1,.21.31Z"/><path class="cls-199" d="M33.18,34.81l3.8-.08a3.52,3.52,0,0,1,3.59.05l.19,0c.76.46.52,1.22.54,1.9s.23,1.45-.35,2.05a5.09,5.09,0,0,1-4,0A1.46,1.46,0,0,1,36.7,37c.4-.4.72-.93,1.42-.77-.66-.16-1,.33-1.37.7a3.23,3.23,0,0,1-2.6.11c-.37-.27-.49-.74-.88-1A.75.75,0,0,1,33.18,34.81Z"/><path class="cls-200" d="M42.77,33.78l-2,0a1.09,1.09,0,0,1-.43-1c-.08-2.83,0-5.66,0-8.49a1.35,1.35,0,0,1,.25-1c1.11-.44,1.59-.19,1.64.92s.06,2.05,0,3.07a2.34,2.34,0,0,0,.87,2.18,24,24,0,0,1,.09,3.39A1.2,1.2,0,0,1,42.77,33.78Z"/><path class="cls-201" d="M42.77,33.78l-.06-4.25a3.45,3.45,0,0,1-.48-1.91c0-1.38,0-2.76,0-4.14a2.15,2.15,0,0,1,.31-1.24,1.92,1.92,0,0,1,2.13-.08c.56.41.39,1,.42,1.58a3.78,3.78,0,0,1-.16,1.6,1.77,1.77,0,0,0-.81,1.7c0,1.81,0,3.63,0,5.44,0,.48,0,1-.45,1.27Z"/><path class="cls-202" d="M44.6,25.26l0-1.45a.8.8,0,0,1,1.06-.12c.47.41.31,1,.34,1.48,0,.87,0,1.75,0,2.62,0,.38.08.76,0,1.14-.13.78.31.8.87.7a2.05,2.05,0,0,1,.54,3.23c-.86-.18-1.76-.55-2.13.75-.07.25-.5.17-.77.17a1.35,1.35,0,0,1-.43-1.17c0-2,0-3.94,0-5.91A2.15,2.15,0,0,1,44.6,25.26Z"/><path class="cls-203" d="M44.65,40.44c.7,0,.93.42.93,1.08q0,5.16,0,10.32c0,.67-.23,1-.93,1.08l0-.07a1.21,1.21,0,0,1-.46-1c0-3.5,0-7,0-10.51a1.09,1.09,0,0,1,.15-.56A.85.85,0,0,1,44.65,40.44Z"/><path class="cls-204" d="M40.78,38.53l.06-1.84c1.26-1.06,2.07-.81,2.36.75,0,.29.13.52.45.59a1.64,1.64,0,0,1,.82.3.62.62,0,0,1,.18.3v1.81l0,.07a1.27,1.27,0,0,1-1,.42c-1,0-2,.32-3-.37A1.53,1.53,0,0,1,40.78,38.53Z"/><path class="cls-205" d="M43.68,38.58c-.39,0-1,0-.89-.5.2-1.73-.9-1.5-1.95-1.39,0-.63-.06-1.25-.08-1.87l3.86,0a.83.83,0,0,1,.23.94,1.6,1.6,0,0,0-.71,1.6A1.25,1.25,0,0,1,43.68,38.58Z"/><path class="cls-206" d="M44.6,25.26q0,4.26,0,8.52l-.88,0c0-2.25,0-4.51,0-6.77C43.68,26.27,43.69,25.52,44.6,25.26Z"/><path class="cls-207" d="M40.8,32.85v1a1.33,1.33,0,0,0-.23,1L37,34.73v-.86l.07-.18a1.24,1.24,0,0,1,1.2-.34,1.58,1.58,0,0,0,1.62-.71A.82.82,0,0,1,40.8,32.85Z"/><path class="cls-208" d="M48.48,43.33V39.55a.78.78,0,0,1,1.05-.13c.63,1.2.35,2.45.21,3.7a1,1,0,0,1-.26.36A.72.72,0,0,1,48.48,43.33Z"/><path class="cls-209" d="M44.62,35.74v-1c.41,0,.84.12.88.59a23.78,23.78,0,0,1,0,2.67c0,.5-.49.52-.87.59l0-.06A2.26,2.26,0,0,1,44.62,35.74Z"/><path class="cls-210" d="M49.35,39.51l-.88,0v-1.9a.73.73,0,0,1,1.06,0C50,38.29,50.14,39,49.35,39.51Z"/><path class="cls-211" d="M48.48,43.33l.88.06a.55.55,0,0,1,0,.86l0,.11-.91-.07Z"/><path class="cls-212" d="M48.44,35.73l.9,0a.66.66,0,0,1,.13,1,.69.69,0,0,1-1,0Z"/><path class="cls-213" d="M48.46,36.7l.87,0,.16.06a.59.59,0,0,1,0,.79l-.14.1-.91,0Z"/><path class="cls-214" d="M34.36,59.58H37a1.13,1.13,0,0,1,0,1.84l-.06.06H35.11a1.41,1.41,0,0,1-1.74.31.91.91,0,0,1-.35-.22A1,1,0,0,1,33.65,60,2.05,2.05,0,0,0,34.36,59.58Z"/><path class="cls-215" d="M33.2,61.52l1.91-.05c0,.32,0,.63,0,1,0,1.87,0,1.87-1.91,1.89A2.15,2.15,0,0,1,33.2,61.52Z"/><path class="cls-101" d="M33.2,61.52c0,.93,0,1.86,0,2.79l-.91,0-.06-.07c-.79-.82-.46-1.75-.3-2.67a.73.73,0,0,1,.26-.34.82.82,0,0,1,1,.15Z"/><path class="cls-216" d="M36,67.15l0-.91h1.92a.57.57,0,0,1,0,.88Z"/><path class="cls-217" d="M37.93,67.13v-.88l1.9,0C39.78,67.76,38.63,67,37.93,67.13Z"/><path class="cls-218" d="M37,61.42l0-1.84h2.12c-.16.66,1.08,1.09.49,1.61S37.91,61.39,37,61.42Z"/><path class="cls-219" d="M37,58.55H33.17a.74.74,0,0,1,0-1.06,4.45,4.45,0,0,1,3.87,0A.74.74,0,0,1,37,58.55Z"/><path class="cls-220" d="M37,58.55l0-.89.13-.2a4.17,4.17,0,0,1,3.77,0,.72.72,0,0,1-.07,1Z"/><path class="cls-221" d="M40.78,58.55v-.93l.11-.17c.52-.46,1.14-.31,1.73-.29.33,0,.65,0,1,0a1.31,1.31,0,0,1,.9.2.63.63,0,0,1,.19.31l-.05.88Z"/><path class="cls-222" d="M30.32,59.58h1c.71.52.41,1.28.48,2,0,.31,0,.63,0,.94-.07,1-.37,1.21-1.44,1l0-.07.06,0c-.86-.8-.35-1.82-.43-2.75A1.14,1.14,0,0,1,30.32,59.58Z"/><path class="cls-223" d="M33.19,61.43l-.95,0a1.13,1.13,0,0,1,0-1.87h2.13a1,1,0,0,1-.64.91C33.24,60.64,33.21,61,33.19,61.43Z"/><path class="cls-224" d="M33.19,57.69c0,.29,0,.58,0,.86H31.29a.76.76,0,0,1-.16-1,1,1,0,0,1,.91-.39c.32,0,.66-.05,1,.17A.54.54,0,0,1,33.19,57.69Z"/><path class="cls-225" d="M28.41,61.46l0-1.89h.94a1.09,1.09,0,0,1,.39,1,1,1,0,0,1-.3,1,.78.78,0,0,1-1-.14Z"/><path class="cls-226" d="M32.23,59.58v1.87h0a.66.66,0,0,1-.94,0l0-1.89Z"/><path class="cls-227" d="M29.4,60.52v-.94h.93v.93A.64.64,0,0,1,29.4,60.52Z"/><path class="cls-228" d="M28.45,58.56c0-.3-.06-.61-.08-.91l.11,0a.65.65,0,0,1,1-.05.67.67,0,0,1-.06,1Z"/><path class="cls-229" d="M29.38,58.55l-.05-.88a1.09,1.09,0,0,0,.13-.17.73.73,0,0,1,1,.09.71.71,0,0,1-.1,1Z"/><path class="cls-230" d="M30.33,58.56l0-.91s.05-.09.07-.14a.61.61,0,0,1,.77-.09.44.44,0,0,1,.17.27l0,.87Z"/><path class="cls-231" d="M33.42,53.86h7.37c0,.29,0,.58,0,.87l-.1.2a1.24,1.24,0,0,1-1,.31c-1.75.05-3.49,0-5.24,0a1.32,1.32,0,0,1-1.11-.3A.8.8,0,0,1,33.42,53.86Z"/><path class="cls-232" d="M43.67,57.63l-.94,0a6.84,6.84,0,0,0-2.14-1.9.76.76,0,0,1,.22-.89l0-.1,2.84.1A2.19,2.19,0,0,1,43.67,57.63Z"/><path class="cls-233" d="M45.54,54.81c0,.62,0,1.23,0,1.84s-.24,1-.91,1.05l-.05-.08a2.24,2.24,0,0,1,0-2.81Z"/><path class="cls-234" d="M44.61,54.81c0,.94,0,1.88,0,2.81h-.95V54.82Z"/><path class="cls-235" d="M22.72,29.09h.12c1.81-.11,1.81-.11,1.74-1.9l.13-.17a.73.73,0,0,1,1,.11.76.76,0,0,1-.09,1L25.51,30c-1.6.64-1.38,2-1.39,3.32,0,1.08.29,2.2-.24,3.25-.43.35-1.06.43-1.28,0-.59-1.14-1.69-1.16-2.68-1.47-.61-.23-.36-1.29-1.05-1.27s-.41,1-.95,1.24l-.11.06a4,4,0,0,1-2.38.1,1.36,1.36,0,0,1-.91-1,.85.85,0,0,0-.87-.67c-.45,0-.67.3-.87.68-.78,1.47-2.12,1.5-3,.06-.15-.25-.43-.34-.58-.57a.81.81,0,0,1-.09-.57c.39-.53.84-1,1.21-1.56a5.48,5.48,0,0,1,1.85-.13c1.42,0,2.84,0,4.26,0a1.29,1.29,0,0,0,1.35-.71,1.27,1.27,0,0,1,1-.24,7.57,7.57,0,0,1,.95,0,1.91,1.91,0,0,1,1.4.42c.5.42.86.19,1-.41S22.15,29.42,22.72,29.09Z"/><path class="cls-236" d="M37,33.87l-3.83-.09a.82.82,0,0,1-.11-1,1.43,1.43,0,0,0,.64-1.41c0-2,0-3.93,0-5.89,0-.47-.09-1,.32-1.33a2.05,2.05,0,0,1,1.13-.29c1,0,1.38.32,1.4,1.33,0,1.9,0,3.79,0,5.69,0,.54,0,1,.58,1.32a.82.82,0,0,1,.25.61,1.06,1.06,0,0,1-.34,1Z"/><path class="cls-237" d="M25.6,28.11l0-.9.06-.18a.93.93,0,0,1,.81-.34c.64.11.68-.66,1.16-.8a1,1,0,0,1,1,.2,1.34,1.34,0,0,1,.28,1.05c0,1,0,1.94,0,2.91s0,1.72,0,2.58a1.38,1.38,0,0,1-.44,1.16c-.72.08-1-.26-1-1,0-.95,0-1.9,0-2.85C27.48,28.08,27.48,28.08,25.6,28.11Z"/><path class="cls-238" d="M23.63,36.46c0-1.53,0-3.06,0-4.59,0-1.88,0-1.88,1.87-1.91l0,1a1.66,1.66,0,0,0-.45,1.5,2,2,0,0,1-.45,1.64v1.17A2.27,2.27,0,0,1,25,37.43a.83.83,0,0,1-1.24.46.76.76,0,0,1-.3-.29A.9.9,0,0,1,23.63,36.46Z"/><path class="cls-239" d="M33.18,34.81c-.1.83,1.19.95,1,1.85a.73.73,0,0,1-.53.37,2.83,2.83,0,0,1-2.41-.18,1.21,1.21,0,0,1-.32-1,1.17,1.17,0,0,1,.39-1Z"/><path class="cls-240" d="M28.47,33.79V30a.75.75,0,0,1,1-.08c.63.89.28,1.89.31,2.85a1.16,1.16,0,0,1-.41,1Z"/><path class="cls-241" d="M33.2,32.88c0,.3,0,.6-.05.9H31.27a.8.8,0,0,1-.21-.92c.65-.3.61-1.18,1.25-1.49a1,1,0,0,1,1,.23A.94.94,0,0,1,33.2,32.88Z"/><path class="cls-242" d="M24.64,34.07c0-.74,0-1.48,0-2.22s.31-.92.92-.92c0,.62,0,1.24,0,1.87A1.07,1.07,0,0,1,24.64,34.07Z"/><path class="cls-243" d="M24.67,37.57l0-2.33c1.2.46.9,1.5.91,2.41C25.24,37.88,24.93,37.93,24.67,37.57Z"/><path class="cls-244" d="M28.36,38.64c-1.42-.17-.71-1.26-.86-2a.78.78,0,0,1,1-.11,1.54,1.54,0,0,1,.19,1.83A.68.68,0,0,1,28.36,38.64Z"/><path class="cls-245" d="M28.36,36.68l-.86,0c.18-.68-.67-1.91.95-1.85a.88.88,0,0,1,.39.8,1.27,1.27,0,0,1-.17.89A.61.61,0,0,1,28.36,36.68Z"/><path class="cls-246" d="M29.4,33.79v-.93a.65.65,0,1,1,.91.92Z"/><path class="cls-247" d="M30.32,33.78l0-.91s.05-.09.07-.14a.59.59,0,0,1,.75-.08.48.48,0,0,1,.16.26l-.05.88Z"/><path class="cls-248" d="M28.46,35.74v-.93h.94a.66.66,0,1,1-.93.93Z"/><path class="cls-249" d="M29.35,35.67l0-.86h.93a.75.75,0,0,1,.29.81.79.79,0,0,1-.2.31.77.77,0,0,1-.86,0A.46.46,0,0,1,29.35,35.67Z"/><path class="cls-250" d="M30.38,35.68l-.06-.88h.95v.93C31,36,30.66,36,30.38,35.68Z"/><path class="cls-251" d="M28.37,39.51c0-.29,0-.58,0-.87l.1-.09a.76.76,0,0,1,.9-.2.75.75,0,0,1,.28.28.92.92,0,0,1-.08,1,.8.8,0,0,1-.92.2A.63.63,0,0,1,28.37,39.51Z"/><path class="cls-252" d="M27.49,40.52c-.07-.66.18-1,.88-1l.09,0a.69.69,0,1,1-1,1Z"/><path class="cls-253" d="M27.49,40.52l.91-.1a.62.62,0,0,1,.27.21.67.67,0,0,1,0,.67.44.44,0,0,1-.29.16l-.85,0Z"/><path class="cls-254" d="M24.67,37.57l.88.08,0,1h-.91l-.14-.12a.63.63,0,0,1,.12-.82Z"/><path class="cls-255" d="M29.36,53l-.91-.11q0-5.69-.1-11.38l.11,0a.79.79,0,0,1,1.09-.07,1.23,1.23,0,0,1,.3,1q0,4.8,0,9.6a1.16,1.16,0,0,1-.16.68A.85.85,0,0,1,29.36,53Z"/><path class="cls-256" d="M24.57,44.24l-.89.09A9.62,9.62,0,0,1,22.21,42c-.2-.36-.31-.74-.79-.76a1.06,1.06,0,0,0-1,.6c-1,1.51-2.21,1.49-3.12,0-.47-.8-1.2-.84-1.65-.08a2.42,2.42,0,0,1-3,1.15c-1.06-.27-1-1.18-1.12-2l0-.36a2.58,2.58,0,0,1,0-1,4.8,4.8,0,0,1,.41-2,.76.76,0,0,1,.33-.25,3.92,3.92,0,0,1,2.64,0,1,1,0,0,1,.63.78c.1.4.26.76.75.78a1,1,0,0,0,1-.68,1.4,1.4,0,0,1,1.19-1,2.13,2.13,0,0,1,1.25.12c.44.12.52.54.75.85.63.86,1.2.82,1.68-.11.34-.67.76-1,1.45-.42l0,0c.26.37.64.63.89,1l0,0C24.59,40.47,24.58,42.36,24.57,44.24Z"/><path class="cls-257" d="M29.33,57.67l-.85,0c0-.62-.07-1.24-.1-1.85l.09-.06a.78.78,0,0,1,1.08-.06,1.4,1.4,0,0,1-.13,1.94Z"/><path class="cls-258" d="M28.45,61.44l.89,0c.77.6.64,1.22.05,1.86l0,.11-.92-.11Z"/><path class="cls-259" d="M31.31,61.47h.94l0,2.83-1.87,0c0-.28,0-.56,0-.83C31.76,63.35,31.1,62.19,31.31,61.47Z"/><path class="cls-260" d="M12,40.47a5.75,5.75,0,0,1,.23.78,1.79,1.79,0,0,0,2.57,1,.83.83,0,0,0,.29-.74c0-.78.37-1.07,1.1-1s1.62-.16,1.74.94c.06.61.26,1,.93,1s.9-.22,1-.85c.23-1,1.09-1,1.9-1s.91.55.93,1.18c0,.15.05.4.14.43,1.1.45.77,1.4.81,2.22l-.06.9-.89,0c-.48,0-.95,0-1.42,0-.73-.05-1.33-.32-1.45-1.14-.08-.61-.45-.75-1-.75s-.88.22-.94.81c-.12,1.11-.95,1.06-1.77,1.1s-1.1-.4-1.1-1.16-.46-.77-1-.74c-.69,0-1.5-.12-1.79.77-.16.47,0,1-.79,1.11s-1.56-.13-1.81-.83c-.42-1.19-1.28-1.09-2.19-1.07l-.09-1h.1c1.19-.59,2-1.76,3.18-2.33A1.18,1.18,0,0,1,12,40.47Z"/><path class="cls-261" d="M29.39,63.32l-.05-1.86.06-.94h.92v2.81Z"/><path class="cls-262" d="M28.4,54.72c0-.29.05-.57.07-.86.61,0,1-.23.89-.91l0-.11a.79.79,0,0,1,1-.14c.35.71,1.32,1.19.81,2.21a.92.92,0,0,1-.77.3,5.26,5.26,0,0,1-1.05,0,1.09,1.09,0,0,1-.92-.39Z"/><path class="cls-263" d="M28.45,54.82h.94a.6.6,0,0,1,0,.94l-.88,0C28.46,55.42,28.46,55.12,28.45,54.82Z"/><path class="cls-264" d="M25.58,16.71l.93-.09a.8.8,0,0,1,1-.07.88.88,0,0,1,.24,1c-.39.45-.92.77-1.27,1.26a.83.83,0,0,1-.94-.21h0A1.15,1.15,0,0,1,25.58,16.71Z"/><path class="cls-265" d="M23.66,18.52c0-.6,0-1.21,0-1.81h.94a1.15,1.15,0,0,1,0,1.85Z"/><path class="cls-266" d="M24.63,18.56V16.71h.94c0,.62,0,1.25,0,1.88Z"/><path class="cls-267" d="M27.49,16.69l-1-.07c0-.27,0-.55,0-.82l1-.08.15.09a.62.62,0,0,1,0,.79Z"/><path class="cls-268" d="M27.51,14.77c1.17,0,.89-.85.91-1.51s-.09-1.4.92-1.42l.06.09a1.11,1.11,0,0,1,.41.94,11.19,11.19,0,0,1,0,1.92,1.48,1.48,0,0,1-.32,1,1.23,1.23,0,0,1-1,.29,1.11,1.11,0,0,1-1-.39h0Z"/><path class="cls-269" d="M49.33,10.93l-.88,0h-.94l0-1h1.9C49.36,10.31,49.35,10.62,49.33,10.93Z"/><path class="cls-270" d="M49.4,10c-.09-.73.26-1,1-.95l-.07.93Z"/><path class="cls-271" d="M47.5,15.69l1.89.07c0,.29,0,.59,0,.89l-.09.18a1.16,1.16,0,0,1-1,.27,1.11,1.11,0,0,1-1-.27.79.79,0,0,1,0-1Z"/><path class="cls-272" d="M50.33,18.51l-.94.06-.19-.12a1.21,1.21,0,0,1,.15-1.75l.06-.05c.7,0,1,.36,1,1Z"/><path class="cls-273" d="M46.54,12.86l1,0c0,.94,0,1.88,0,2.81v0a.8.8,0,0,1-1.06.07A2.81,2.81,0,0,1,46.34,13Z"/><path class="cls-274" d="M40.78,10l.06,1.84a1.15,1.15,0,0,0,1.08.52,1.1,1.1,0,0,1,1.07.53,1,1,0,0,1-.15,1,2.85,2.85,0,0,1-2,.31A1.64,1.64,0,0,1,39.77,14a1.39,1.39,0,0,1-.37-1,14.74,14.74,0,0,1,0-1.88,2,2,0,0,1,.18-1,.78.78,0,0,1,.28-.29A.75.75,0,0,1,40.78,10Z"/><path class="cls-275" d="M42.7,13.84v-1a.59.59,0,0,1,0-.88l1.84-.09a.86.86,0,0,1,1-.15.83.83,0,0,1,.35.91,1.14,1.14,0,0,1-.15.36,2.09,2.09,0,0,0-1,1c-.59.16-.61.93-1.19,1.1a.91.91,0,0,1-1-.23A.74.74,0,0,1,42.7,13.84Z"/><path class="cls-276" d="M42.74,12c0,.3,0,.59,0,.88-.68-.19-1.91.66-1.86-1Z"/><path class="cls-277" d="M45.57,11.91l-1-.05c0-.3,0-.6.05-.9.71.17,1.88-.59,1.91.95h0A.69.69,0,0,1,45.57,11.91Z"/><path class="cls-278" d="M40.78,10l-.93,0a.61.61,0,0,1,0-.93l0,0,.92,0Z"/><path class="cls-279" d="M33.14,10.9c.09-1.47,1.27-.69,2-.94l1,0L37,10l1,0a.75.75,0,0,1,.05,1c-.56.51-1.25.32-1.9.35a7.9,7.9,0,0,1-2.74-.19A.59.59,0,0,1,33.14,10.9Z"/><path class="cls-280" d="M39.89,9.07c0,.31,0,.62,0,.93h0a.64.64,0,0,1-.78.2.43.43,0,0,1-.2-.26c0-.3,0-.59,0-.88Z"/><path class="cls-281" d="M38,10.9,38,10l.91-.09,0,.1a.75.75,0,0,1,.27.81.72.72,0,0,1-.2.29.76.76,0,0,1-.85,0A.51.51,0,0,1,38,10.9Z"/><path class="cls-282" d="M31.29,11.94a.87.87,0,0,0,1-1l.86-.06.09.09a1.18,1.18,0,0,1,.37,1,1,1,0,0,1-.33,1.06,1.9,1.9,0,0,1-2.05,0A.77.77,0,0,1,31.29,11.94Z"/><path class="cls-283" d="M31.29,11.94v.88a.68.68,0,0,1-1,.13.72.72,0,0,1,0-1l0-.07Z"/><path class="cls-284" d="M30.33,11.92l0,.91a.61.61,0,0,1-.94,0c0-.31,0-.62,0-.93Z"/><path class="cls-285" d="M45.57,11.91h1c0,.31,0,.63,0,.95l0,0a.63.63,0,0,1-.93,0Z"/><path class="cls-286" d="M7.45,47.14l0-1,5.68,0a.65.65,0,0,1,0,.94h0Z"/><path class="cls-148" d="M13.19,47.16l0-.94a10,10,0,0,0,2.7-.29c1-.36,1.09.44,1.12,1.16Z"/><path class="cls-287" d="M18.87,30.92,18,31a.69.69,0,0,1-1-.07v-.88l.93-.09,1,.05.14.12A.58.58,0,0,1,18.87,30.92Z"/><path class="cls-4" d="M22.72,29.09c0,.56,0,1.11,0,1.66s.09.94-.47,1.08a1.24,1.24,0,0,1-1.42-.27,1.33,1.33,0,0,0-1-.61.68.68,0,1,1,.95-1c.4,0,.82.07,1-.45S22.33,29.09,22.72,29.09Z"/><path class="cls-288" d="M20.79,30l-.91.06a.74.74,0,0,1-1-.05h0v-.9l.93-.07C20.48,29,20.88,29.26,20.79,30Z"/><path class="cls-289" d="M21.81,27.21l1.82,0c.11.77-.34.91-1,.92S21.71,27.87,21.81,27.21Z"/><path class="cls-290" d="M23.65,26.2l1,0,.14.11a.62.62,0,0,1-.09.83l-.08.07-.88-.08C23.68,26.8,23.67,26.5,23.65,26.2Z"/><path class="cls-291" d="M24.65,25.24c0-.3,0-.61-.08-.91l.07,0a.72.72,0,0,1,1,0,.8.8,0,0,1,0,1.05A.72.72,0,0,1,24.65,25.24Z"/><path class="cls-292" d="M24.65,25.24l.91,0a.67.67,0,0,1,.24.88.73.73,0,0,1-.27.28.79.79,0,0,1-.92-.22v0C24.62,25.86,24.63,25.55,24.65,25.24Z"/><path class="cls-293" d="M25.56,24.28h-.92c0-.31,0-.61,0-.91l.9-.08.15.1a.61.61,0,0,1,0,.8Z"/><path class="cls-294" d="M25.56,23.29v-.93l.08-.91c1.44-.08.68-1.21.91-1.87l.09-.18a.77.77,0,0,1,.94,0,.86.86,0,0,1,.23.33,4.83,4.83,0,0,1,0,2.53c-.2.54-1,.58-1.06,1.21a.72.72,0,0,1-.31.21.81.81,0,0,1-.86-.27Z"/><path class="cls-295" d="M25.55,18.59h1l.14.11a.62.62,0,0,1-.13.81v.08l-1-.11Z"/><path class="cls-296" d="M50.29,22.43c-.07.72.29,1,1,.95l0,.89a1,1,0,0,1-.88.42,1.51,1.51,0,0,1-1-.12c-.41-.38-.65-.93-1.2-1.16a1,1,0,0,1,0-1,.74.74,0,0,1,.29-.29.83.83,0,0,1,.94.22Z"/><path class="cls-297" d="M52.24,26.24l0,.88-.11.19a1.53,1.53,0,0,1-1.85,0,.79.79,0,0,1-.15-1l.16-.15Z"/><path class="cls-298" d="M50.38,25.27l-.05.92h0a.77.77,0,0,1-1,.11.82.82,0,0,1-.18-1,.75.75,0,0,1,.92-.32A.65.65,0,0,1,50.38,25.27Z"/><path class="cls-299" d="M50.34,24.33l.93-.06c.1.69-.22,1-.89,1l-.07-.05A.61.61,0,0,1,50.34,24.33Z"/><path class="cls-300" d="M49.41,22.37h-.94a.61.61,0,0,1,0-1l.89.07Z"/><path class="cls-301" d="M53.22,28.07h.94v0a.77.77,0,0,1,.11,1c-.8.44-1.27.29-1.3-.7A.61.61,0,0,1,53.22,28.07Z"/><path class="cls-302" d="M52.28,27.12c.66,0,1,.28.94.95l0,.08a.74.74,0,0,1-1,0,.72.72,0,0,1,0-1Z"/><path class="cls-303" d="M54.2,29l0-.92,1.86.07.06.85,0,.08a1.07,1.07,0,0,1-1,.33C54.71,29.45,54.37,29.41,54.2,29Z"/><path class="cls-304" d="M49.39,19.47l-.93.07a.82.82,0,0,1-1,.16.84.84,0,0,1-.28-1,.81.81,0,0,1,.25-.35,1.44,1.44,0,0,1,1-.2,1.06,1.06,0,0,1,.92.4h0Z"/><path class="cls-305" d="M47.5,18.6v.94c.31.32.63.62.91.95l0,0v.93c0,.33,0,.65,0,1h0a.81.81,0,0,1-.86.27c-.48-.3-.65-.94-1.25-1.11a1.24,1.24,0,0,1-.17-.37c-.08-.93-.37-1.88.31-2.72A.75.75,0,0,1,47.5,18.6Z"/><path class="cls-306" d="M48.41,20.49c-.67,0-1-.27-.91-.95h1Z"/><path class="cls-196" d="M60.85,46.23l3.08,0c.69,0,1.36.11,1.86-.68.32-.52,1.09-.27,1.67-.28v1.91H61.88C61.25,47.15,60.77,47,60.85,46.23Z"/><path class="cls-249" d="M49.41,44.25c0-.29,0-.57,0-.86l.06-.09c.83-.82.35-1.86.43-2.79s.33-1.45,1.34-1.26a2.2,2.2,0,0,0,1.71.81c.71,0,1.12.67,1.59,1.13s.72.47,1.15,0A2.56,2.56,0,0,1,57.84,40c.8,0,1.4.19,1.62,1a.9.9,0,0,0,1.77,0,1.1,1.1,0,0,1,.59-.84,3.31,3.31,0,0,1,1.71-.12c.59.21.83.8,1.28,1.17s.9.56,1.27-.17.75-.91,1.37-.32v3.32c-1.57-1.07-2.11-1-3.43.35-.31.32-.47.82-1.07.84s-1.12-.11-1.2-.93c-.11-1.07-1-.9-1.75-1s-1,.27-1.11,1-1,1.17-1.89.66a2.85,2.85,0,0,1-1-1.17c-.33-.65-1.52-.78-1.75-.17-.55,1.41-1.71,1.62-3,1.8-.26-.29-.63-.2-1-.28C50.41,44.55,50.06,44.25,49.41,44.25Z"/><path class="cls-194" d="M67.45,40.74c-.56,0-.88.2-.91.8-.05,1-.89,1.05-1.43.75s-1.43-.83-1.43-1.8a2.83,2.83,0,0,1,.95-2.35c.63-.7,2.15-.13,2.35.81a2.6,2.6,0,0,0,.48,1.3,2,2,0,0,0,.07.23Z"/><path class="cls-307" d="M67.46,40.25a1.2,1.2,0,0,1-.94-1.08c-.1-.61-.63-.81-1.12-.89s-.59.38-.78.73c-.27.52-.62,1-.94,1.48h-1.9a.73.73,0,0,1-.29-.84.8.8,0,0,1,.27-.36c.34-.24,1-.21,1-.67s-.79-.49-1.15-.82a.75.75,0,0,1-.18-.34c-.22-.79-.38-1.59.49-2.09a1.84,1.84,0,0,1,2.37.86,1.87,1.87,0,0,0,1.13.8,1.83,1.83,0,0,1,1.12.6h.93C67.46,38.5,67.46,39.37,67.46,40.25Z"/><path class="cls-308" d="M66.52,31v.94a1.4,1.4,0,0,1-1,.46c-2.75.19-5.51-.07-8.26,0-1.26,0-1.47-.32-1.29-1.46a.78.78,0,0,1,1.1,0Z"/><path class="cls-287" d="M57,30.93,56,31a.79.79,0,0,1-1,.11.82.82,0,0,1-.23-1,.74.74,0,0,1,.28-.33.84.84,0,0,1,1,.18l1,.08Z"/><path class="cls-309" d="M56.08,30l-1,0a.61.61,0,0,1,0-.93l.94,0C56.05,29.4,56.06,29.69,56.08,30Z"/><path class="cls-310" d="M66.54,37.63a5.33,5.33,0,0,1-2-.18c-.36-.15-.77-.33-.81-.77-.08-.86-.58-1-1.3-.93s-.62.77-.66,1.29a5.8,5.8,0,0,0,0,.59c-.82.84-1.78.56-2.73.34-.14-.06-.34-.11-.37-.25-.36-1.4-1.44-1.54-2.62-1.52-.64,0-1.27.12-1.92.12a1.39,1.39,0,0,1-1.1-.45,1.36,1.36,0,0,1-.39-1.16,1.17,1.17,0,0,1,1.38-1c.7.21,1.37.66,2.16.41a2.49,2.49,0,0,1,.94,0,1,1,0,0,0,1.27-.76c.23-.8.83-1,1.57-.92s1.83-.33,2.26.78c.25.67.55.91,1.22.47a.92.92,0,0,1,1.11,0l.09.15c0,.47.08.94.67.9,1.14-.07,1.29.59,1.23,1.49C66.51,36.69,66.54,37.16,66.54,37.63Z"/><path class="cls-310" d="M66.51,32.86c0,.32,0,.63,0,1-.63.66-1.27-.23-1.9,0l0,0a.75.75,0,0,1,.18-1.21A1.26,1.26,0,0,1,66.51,32.86Z"/><path class="cls-311" d="M66.51,32.86c-.7.17-1.82-.49-1.89,1a1.06,1.06,0,0,0-1,.63c-.27.45-.77.34-1.2.3s-.61-.46-.6-.88c0-1.12-.78-1-1.49-1s-1.41,0-1.38,1c0,.75-.42,1-1.07.91s-1.18-.15-1.76-.24C55.52,34,55,33.38,54.14,34c-.57,0-.86.38-1.19.74a1.1,1.1,0,0,1-.77.36,1.15,1.15,0,0,1-1-.27A2,2,0,0,1,51,33a6.44,6.44,0,0,1,3.24-2.38,1,1,0,0,1,.93.3L56,31c0,.94.63.93,1.28.93h9.2Z"/><path class="cls-307" d="M17,30.93,18,31c0,.73-.41.93-1.06.92-1.56,0-3.13,0-4.7,0a.61.61,0,0,1,0-.89Z"/><path class="cls-312" d="M12.24,31l0,.89L10.34,32a.74.74,0,0,1-1,0,.67.67,0,0,1,.07-1Z"/><path class="cls-313" d="M7.44,32.83c0-.63.27-1,.92-.93l.18.08a.72.72,0,0,1,.11.88.7.7,0,0,1-.28.26.76.76,0,0,1-.87-.21Z"/><path class="cls-314" d="M9.4,31l0,.92-.11.14a.61.61,0,0,1-.81-.13l-.1,0C8.39,31.23,8.67,30.86,9.4,31Z"/><path class="cls-315" d="M15.09,37.63H12.23c-.54-.14-.4-1.05-1-1s-.61.65-1,1a1.7,1.7,0,0,1-1.15.46c-.61.11-1.21.17-1.63-.44V34.78c.53-.56,1.33-.7,1.9-1.21a1.28,1.28,0,0,1,1,.76c.25.56.78.44,1.24.41a.63.63,0,0,0,.61-.73c-.07-1.32.86-1.1,1.68-1.16s1.26.41,1.22,1.28a1.93,1.93,0,0,0,.22.65C15.69,35.77,16,36.75,15.09,37.63Z"/><path class="cls-256" d="M7.5,37.62l1.87,0c.35,1,1.33,1.66,1.19,2.84-.78,1-1.4,2.28-3.05,1.92C7.51,40.81,7.51,39.21,7.5,37.62Z"/><path class="cls-316" d="M9.39,33.57c.1,1.56-1.06,1.13-1.9,1.21v-.93a12.12,12.12,0,0,1,.91-1h0a.68.68,0,0,1,.91-.12.27.27,0,0,1,.06.36Z"/><path class="cls-317" d="M8.41,32.86c.08.69-.25,1-.91,1v-.94Z"/><path class="cls-318" d="M39.85,52.85H37a1.48,1.48,0,0,1-.56-1.35c0-3-.14-6.07.08-9.09a1.84,1.84,0,0,1,.34-1.16,3.38,3.38,0,0,1,3.08.05,2,2,0,0,1,.38,1.46c0,2.9,0,5.79,0,8.69C40.34,52,40.35,52.5,39.85,52.85Z"/><path class="cls-319" d="M37,42.41,37,52.86H34.37a1.7,1.7,0,0,1-.54-1.49c0-2.52,0-5,0-7.57,0-.65-.08-1.48.72-1.72A2.11,2.11,0,0,1,37,42.41Z"/><path class="cls-320" d="M37,42.41c-2.94,0-2.56-.21-2.58,2.5s0,5.29,0,7.94H33.18a1.38,1.38,0,0,1-.47-1.27c0-3.06,0-6.11,0-9.16a1.53,1.53,0,0,1,.36-1.12c1.31-.44,2.62-.71,3.87.17Z"/><path class="cls-321" d="M40.84,40.45l2.84,0a1.43,1.43,0,0,1,.47,1.27q0,4.9,0,9.81a1.46,1.46,0,0,1-.46,1.28c-.94.08-1-.54-1-1.23,0-2.8,0-5.6,0-8.4,0-1.79,0-1.79-1.85-1.79l-.16,0a.61.61,0,0,1-.13-.76A.51.51,0,0,1,40.84,40.45Z"/><path class="cls-322" d="M43.69,52.86q0-6.18,0-12.36h.93V52.85Z"/><path class="cls-323" d="M33.22,41.51l0,.87a1.72,1.72,0,0,0-.46,1.51c0,2.53,0,5.06,0,7.59,0,.52,0,1-.49,1.37l-.93.09-.19-.13a1.36,1.36,0,0,1-.3-1V42.38a1.7,1.7,0,0,1,.24-.91,1.5,1.5,0,0,1,1.89-.32A.77.77,0,0,1,33.22,41.51Z"/><path class="cls-324" d="M39.85,52.85l0-11.4.11-.14a.59.59,0,0,1,.8.13h.09l-.06,10.22C40.81,52.32,40.86,53,39.85,52.85Z"/><path class="cls-325" d="M32.23,52.85c0-3.06,0-6.13,0-9.2,0-.67,0-1.31.93-1.27,0,3.49,0,7,0,10.47Z"/><path class="cls-326" d="M31.05,54.74c.16-.77-.92-1.07-.72-1.86l.11-.14a.62.62,0,0,1,.82.09s0,.07,0,.11c-.05.59.23.87.82.87.43,0,.87,0,1.3,0,0,.29,0,.58,0,.87a.6.6,0,0,1-.27.32,2.09,2.09,0,0,1-1.84,0A.68.68,0,0,1,31.05,54.74Z"/><path class="cls-327" d="M40.78,38.53l.06,1.92,0,.06a1.22,1.22,0,0,1-1,.41c-1.52.09-3,0-4.57,0a1.22,1.22,0,0,1-.88-.24,1,1,0,0,1-.25-1c.2-.62.7-.64,1.23-.66s1,.19,1.42-.32a.52.52,0,0,1,.31-.18Z"/><path class="cls-328" d="M33.68,36.71l.46-.05,2.86,0h0l0,1.87,0,.06a3.58,3.58,0,0,1-3.46.13C33.12,38,33,37.34,33.68,36.71Z"/><path class="cls-329" d="M37,36.68c0-.45.06-.92.65-.93s1.4-.25,1.94.19,0,.66-.35.69c-.75,0-1.49,0-2.24,0Z"/><path class="cls-330" d="M40.8,32.85l-.91,0-.2-.12a1.41,1.41,0,0,1-.31-1.1c0-2.76,0-5.51,0-8.27a1.53,1.53,0,0,1,.34-1.1.87.87,0,0,1,1.11,0,.78.78,0,0,1,0,1.08Z"/><path class="cls-331" d="M40.84,23.36l0-1a1.13,1.13,0,0,1,1.9,0q0,3.57,0,7.14a1.9,1.9,0,0,1-1-1.87c0-1.09,0-2.19,0-3.28C41.77,23.74,41.6,23.29,40.84,23.36Z"/><path class="cls-332" d="M42.72,22.39H39.85l-.17-.1a1.09,1.09,0,0,1-.25-.9,1.47,1.47,0,0,1,.16-.9c1-.92,1-1-.05-1.94-.75-.88-1.74-.33-2.62-.44s-1.2-.32-1.11-1.42c.25-.37.68-.56.74-1.14.13-1.24.91-1.5,1.83-.68a1.28,1.28,0,0,0,.6.33c1.08-.2,1.28.94,2,1.31a1.16,1.16,0,0,0,1.15.65c.92,0,1.36.46,1.31,1.39a1.22,1.22,0,0,1-.46.52c-.58.48-.31.72.26.82s1.39,0,1.74.78c.17.63.35,1.27-.35,1.72Z"/><path class="cls-333" d="M44.61,22.39v-1.9a2.09,2.09,0,0,1,.14-.17.82.82,0,0,1,1,.1A1.5,1.5,0,0,1,46,21.51c-.13.78.41,1.71-.5,2.32l-.89,0C44.64,23.34,44.62,22.86,44.61,22.39Z"/><path class="cls-334" d="M48.39,29.06c-.67.2-1.84-.58-1.84.94-.08.35.05.91-.56.84s-.39-.53-.4-.87c0-.63,0-1.26,0-1.89a1.15,1.15,0,0,1,1-.41c.68,0,1.38-.2,1.95.35A.73.73,0,0,1,48.39,29.06Z"/><path class="cls-335" d="M45.54,23.83l.07-2.42a.62.62,0,0,1,.9,0h0a1.19,1.19,0,0,1,.42,1c0,1,.39,2-.3,2.87a.74.74,0,0,1-1-.07Z"/><path class="cls-336" d="M45.61,25.23l.88,0,.18.09a1.08,1.08,0,0,1,.3.92,5.68,5.68,0,0,1,0,1,1,1,0,0,1-.42.88h-.93Z"/><path class="cls-322" d="M44.62,35.74c0,.94,0,1.88,0,2.83h-.93c0-.67,0-1.34,0-2S44,35.65,44.62,35.74Z"/><path class="cls-337" d="M48.39,29.06l0-1a.77.77,0,0,1-.11-1,.85.85,0,0,1,1-.25.69.69,0,0,1,.33.23,1.87,1.87,0,0,1,.28,1.23,2,2,0,0,0,.73,1.82c.13.88-.26,1.28-1.14,1.21a1.1,1.1,0,0,1-1-.42Z"/><path class="cls-338" d="M49.43,34.78h.87l.2.1a1.46,1.46,0,0,1,0,1.91.78.78,0,0,1-1-.11h-.1v-1Z"/><path class="cls-339" d="M49.34,31.92v1c-.7,0-1-.33-.88-1A.57.57,0,0,1,49.34,31.92Z"/><path class="cls-340" d="M49.34,31.92l-.87,0c0-.32,0-.64,0-.95l.89,0a.68.68,0,0,1,.07.94Z"/><path class="cls-341" d="M37,33.79v-.93a2.23,2.23,0,0,1,2.8,0l.08,0c0,.68-.35,1-1,.94S37.63,33.8,37,33.79Z"/><path class="cls-342" d="M51.27,39.51a.82.82,0,0,0-.91,1c0,.66,0,1.32,0,2s-.23,1-.92.85c0-1.27-.05-2.53-.07-3.79,0-.63,0-1.25,0-1.88l0,0a1,1,0,0,1,.86-.44,1.58,1.58,0,0,1,1,.15.81.81,0,0,1,.29.29,1.52,1.52,0,0,1-.11,1.76Z"/><path class="cls-343" d="M50.36,37.63l-.94,0v-1l.87,0A.63.63,0,0,1,50.36,37.63Z"/><path class="cls-344" d="M37,57.66l-3.76,0,0-.07a.8.8,0,0,1,.14-1.31c.4-.24.49-.71.88-.93a4.43,4.43,0,0,1,3,.2,1.51,1.51,0,0,1-.13,2Z"/><path class="cls-345" d="M37,57.61,37,55.76c.24-.65.81-.48,1.29-.5s1.17.1,1.61-.44h1l.06.93a1.18,1.18,0,0,1-.07,1.88H37Z"/><path class="cls-346" d="M40.8,57.63c0-.63.05-1.26.07-1.88,1.83,0,1.83,0,1.86,1.86Z"/><path class="cls-347" d="M34.16,55.77c.17.89-1.18,1-1,1.85h-.95a1.49,1.49,0,0,1-.16-2,1.16,1.16,0,0,1,1.1-.32C33.55,55.32,34,55.34,34.16,55.77Z"/><path class="cls-348" d="M32.26,55.79c0,.6,0,1.21,0,1.82l-.89.08a.86.86,0,0,1-.07-.1A1.39,1.39,0,0,1,31,55.82a.77.77,0,0,1,.31-.31A.7.7,0,0,1,32.26,55.79Z"/><path class="cls-349" d="M29.35,55.76l0-.94h.93a1.09,1.09,0,0,1,.44,1c0,.65.23,1.34-.42,1.84l0,0-.89,0C29.39,57,29.37,56.38,29.35,55.76Z"/><path class="cls-350" d="M30.34,57.62l0-1.86a.6.6,0,0,1,.94,0c0,.61,0,1.23-.05,1.84Z"/><path class="cls-351" d="M34.16,55.77l-1-.07a.59.59,0,0,1,0-.88l.26-.09,6.43.09c0,.65-.29.92-.92.92s-1.32,0-2,0Z"/><path class="cls-352" d="M23.67,37.62c-.45,0-.88.08-.94.66s0,1.22-.86,1.25A2,2,0,0,1,20,38.39a2.28,2.28,0,0,1-.14-.8,2.16,2.16,0,0,1-.18-2.69l.19-.13c.55,0,1.09,0,1.64,0,.7,0,1.24.09,1.25,1,0,.57.42.69.89.7C23.64,36.84,23.66,37.23,23.67,37.62Z"/><path class="cls-352" d="M15.09,37.63a7.62,7.62,0,0,1,.24-2.85H18l.17.09a3.18,3.18,0,0,1,.32,2.75c-.39.14-.48.47-.51.84a1.08,1.08,0,0,1-.72.85C15.75,40,15.09,39.51,15.09,37.63Z"/><path class="cls-352" d="M18,34.77c.16-.67-.48-1.73.77-1.87,1.6-.18,1,1.09,1.13,1.87h0a1.18,1.18,0,0,1-1.91,0Z"/><path class="cls-315" d="M9.39,33.11l0-.26a.64.64,0,0,1,0-.93h0l1,0C10.41,32.65,9.92,32.9,9.39,33.11Z"/><path class="cls-353" d="M18.89,30l1,.05c0,.3,0,.6,0,.9l-1,0C18.87,30.61,18.88,30.31,18.89,30Z"/><path class="cls-354" d="M24.61,26.2l.94,0a.62.62,0,0,1,0,.92v.05l-.92-.1C24.64,26.81,24.63,26.51,24.61,26.2Z"/><path class="cls-355" d="M39.81,32.85H37l0-.45a.53.53,0,0,1,0-.6,2.52,2.52,0,0,0,1.39-2.71c-.07-1.41,0-2.82,0-4.23a2.25,2.25,0,0,1,.46-1.66.78.78,0,0,1,1,.1Q39.83,28.08,39.81,32.85Z"/><path class="cls-356" d="M37,31.9c0,.17,0,.34-.05.51-.83,0-.93-.52-.93-1.18,0-1.69,0-3.38,0-5.07,0-1.9,0-1.9-1.88-1.85a.75.75,0,0,1-.07-1.1,3.23,3.23,0,0,1,3,0,2.82,2.82,0,0,1,.41,1.57c0,1.89,0,3.77,0,5.66A1.8,1.8,0,0,1,37,31.9Z"/><path class="cls-357" d="M34.14,23.41c0,.3,0,.6,0,.9,0,2.47,0,4.94,0,7.41,0,.67-.12,1.18-.94,1.16,0-.41,0-.82,0-1.23a1.2,1.2,0,0,1-.44-.92c0-2.27,0-4.54,0-6.81a1.21,1.21,0,0,1,.15-.44.74.74,0,0,1,1-.37A.55.55,0,0,1,34.14,23.41Z"/><path class="cls-358" d="M28.45,27.16l-.05-.94a1.18,1.18,0,0,1-.41-.95,7.82,7.82,0,0,1,.14-2.77.79.79,0,0,1,.29-.34.92.92,0,0,1,1.07.12,1.41,1.41,0,0,1,.34,1A15.29,15.29,0,0,1,29.7,27a.81.81,0,0,1-.25.35A.78.78,0,0,1,28.45,27.16Z"/><path class="cls-359" d="M28.45,27.16l.91,0a2.11,2.11,0,0,1,.19,2.74l-.2.11-.89,0C28.46,29.07,28.46,28.11,28.45,27.16Z"/><path class="cls-360" d="M28.39,25.22c0,.33,0,.67,0,1l-.88,0a.57.57,0,0,1-.29-.19.81.81,0,0,1,0-.87.64.64,0,0,1,.29-.22A.75.75,0,0,1,28.39,25.22Z"/><path class="cls-361" d="M27.52,26.25c0,.71-.36,1-1,.87a.76.76,0,0,1-.21-.88.81.81,0,0,1,.27-.28.75.75,0,0,1,.89.2Z"/><path class="cls-362" d="M26.53,26.21c0,.3,0,.6,0,.91l-.91,0,0-.92,0-.1A.63.63,0,0,1,26.53,26.21Z"/><path class="cls-363" d="M24.58,38.61c-.71,0-1-.33-.89-1l.9,0C24.59,38,24.58,38.29,24.58,38.61Z"/><path class="cls-364" d="M33.68,36.71l0,1.85c-.73.8-1.58.57-2.43.26a1.58,1.58,0,0,1-.12-2l.21-.12Z"/><path class="cls-365" d="M30.38,35.68l.9,0,0,1,0,0a.76.76,0,0,1-1,.09.72.72,0,0,1,0-1Z"/><path class="cls-366" d="M30.34,32.87h-.93L29.35,30l.06,0c.82-.51,1.28-.15,1.36.67s.27,1.56-.42,2.18Z"/><path class="cls-367" d="M33.22,23.4l-.06,8.25-.91,0c-.53-.26-.48-.75-.49-1.22,0-1.57,0-3.13,0-4.7,0-.86-.26-1.76.4-2.51A.74.74,0,0,1,33.22,23.4Z"/><path class="cls-368" d="M32.2,25.69q0,3,0,6c0,.66,0,1.25-.93,1.23l-.08-.1a1.16,1.16,0,0,1-.43-.93,49.69,49.69,0,0,1,0-5.32C30.93,25.59,31.2,25.41,32.2,25.69Z"/><path class="cls-258" d="M29.39,38.57l-.93,0-.1-1.87h.11a.77.77,0,0,1,1.09-.05A1.38,1.38,0,0,1,29.39,38.57Z"/><path class="cls-369" d="M29.35,36.7l-.88,0v-.93l.89-.07,0,.09A.6.6,0,0,1,29.35,36.7Z"/><path class="cls-370" d="M32.2,25.69c-.83,0-.9.56-.9,1.21,0,2,0,3.94-.06,5.92l-.89.06c0-.66,0-1.31,0-2s-.27-.94-.91-.88l-.05-2.89.05,0a1.64,1.64,0,0,0,.46-1.37A6.36,6.36,0,0,1,30,23.38a.83.83,0,0,1,.26-.3,1.89,1.89,0,0,1,1.76,0,.61.61,0,0,1,.26.31Z"/><path class="cls-261" d="M29.35,36.7l0-.94h.9l.07.94a1.44,1.44,0,0,1,.27,1.77.87.87,0,0,1-.28.32.81.81,0,0,1-1-.2h0Z"/><path class="cls-371" d="M28.4,40.42l.06-.87h.91a1.06,1.06,0,0,1,.94-.41,1.26,1.26,0,0,1,1.05.19,1,1,0,0,1,.22,1,.77.77,0,0,1-.23.36,1.62,1.62,0,0,1-1,.24,5.79,5.79,0,0,1-1,0,1,1,0,0,1-.88-.39Z"/><path class="cls-372" d="M30.4,39.52l-1,0c0-.32,0-.64,0-1h1A.65.65,0,0,1,30.4,39.52Z"/><path class="cls-373" d="M28.45,40.53h.94a.61.61,0,0,1-.05,1l-.88,0Z"/><path class="cls-261" d="M29.34,41.48l.05-1h.93a1.21,1.21,0,0,1,.44,1c.11,3.39,0,6.78,0,10.17a1.24,1.24,0,0,1-.5,1.13l0,0-.93,0Z"/><path class="cls-374" d="M10.56,40.48c-.44-.93-1.58-1.57-1.19-2.84a1,1,0,0,0,.91-1c.05-.77.45-1,1.17-1s.77.63.78,1.19v.71h0c-.12.1,0,0-.08.08-1,.84-1,.84-.16,1.83v.93Z"/><path class="cls-235" d="M17.94,34.77h1.91c0,.94,0,1.88,0,2.82l-1.4,0C17.78,36.75,18,35.74,17.94,34.77Z"/><path class="cls-315" d="M12,39.54c-1.5,0-2-.42-1.61-1.36s1.22-.4,1.85-.55C12.17,38.27,12.37,38.94,12,39.54Z"/><path class="cls-375" d="M31.3,55.75h-.94c0-.31,0-.63,0-.94l.73-.08.24.07a.66.66,0,0,1,0,.94Z"/><path class="cls-376" d="M27.45,17.61l0-.92,0,0a.81.81,0,0,1,1-.2.76.76,0,0,1,.29.3,4.33,4.33,0,0,1,.16,1.89,1.12,1.12,0,0,1-.34,1,.81.81,0,0,1-1-.11l-.06-.06a1,1,0,0,1-.35-.94A1.05,1.05,0,0,1,27.45,17.61Z"/><path class="cls-377" d="M27.45,17.61v1a.64.64,0,0,1-.93,0h0C26.46,17.9,26.77,17.58,27.45,17.61Z"/><path class="cls-378" d="M28.4,16.64h-.93c0-.31,0-.62,0-.93l1,0A.59.59,0,0,1,28.4,16.64Z"/><path class="cls-379" d="M29.41,12.86l.94,0h2.82a.75.75,0,0,1,.2,1,1.13,1.13,0,0,1-.9.44c-.8,0-1.64-.11-2.16.73a.75.75,0,0,1-.88-.25Z"/><path class="cls-380" d="M29.43,14.74h.9l.16.11a.72.72,0,0,1-.9,1.09.54.54,0,0,1-.22-.31Z"/><path class="cls-381" d="M28.4,16.64l.05-.9.92-.1,0,.11a.69.69,0,0,1,.05,1,.71.71,0,0,1-1,0Z"/><path class="cls-382" d="M47.5,18.6l-1,0a.81.81,0,0,1-.32-.29,1.56,1.56,0,0,1,.24-1.83.85.85,0,0,1,1,.1l.89.06a.75.75,0,0,1,.3.84c-.25.53-.93.56-1.23,1Z"/><path class="cls-383" d="M48.39,17.58v-.89h1c0,.62,0,1.24,0,1.86h-1A.72.72,0,0,1,48.39,17.58Z"/><path class="cls-384" d="M47.51,16.63l-1,0-.15-.08a.63.63,0,0,1-.11-.75.6.6,0,0,1,.25-.2l1,.09Z"/><path class="cls-385" d="M45.59,12.87l.93,0v2.9a.8.8,0,0,1-1.06.06c-.52-.58-.35-1.28-.33-2a1.19,1.19,0,0,1,.44-1Z"/><path class="cls-386" d="M39.86,11v1.93a1.12,1.12,0,0,1-.94.39,1.26,1.26,0,0,1-1-.18,1,1,0,0,1-.28-1,1.19,1.19,0,0,1,.15-.35c.38-.28.86-.42,1.15-.83h0A.7.7,0,0,1,39.86,11Z"/><path class="cls-387" d="M42.7,13.84l0,.88-.09.19a1.22,1.22,0,0,1-1,.29,1,1,0,0,1-1-.35.82.82,0,0,1,.14-1Z"/><path class="cls-388" d="M40.8,13.82l0,.9a.69.69,0,0,1-.93.24.71.71,0,0,1-.3-.91.59.59,0,0,1,.3-.28Z"/><path class="cls-276" d="M39.86,11h-1c0-.3,0-.6,0-.9l.95,0C39.86,10.32,39.86,10.64,39.86,11Z"/><path class="cls-389" d="M38.88,12.89h1c0,.29,0,.59,0,.89l-.07.09a.78.78,0,0,1-.89.19.64.64,0,0,1-.27-.27A.74.74,0,0,1,38.88,12.89Z"/><path class="cls-390" d="M43.64,14.74c0-.66.29-1,.94-.94l.2.11a1.43,1.43,0,0,1-.07,1.91.82.82,0,0,1-1.08,0A.77.77,0,0,1,43.64,14.74Z"/><path class="cls-391" d="M43.64,14.74l0,.93-.12.17a.71.71,0,0,1-1-.08.74.74,0,0,1,.1-1l.06-.08Z"/><path class="cls-392" d="M45.58,12.85l0,.94a.58.58,0,0,1-.88,0l-.1,0C44.58,13.14,44.83,12.73,45.58,12.85Z"/><path class="cls-393" d="M33.24,11.94V11H36a.72.72,0,0,1,.06,1.05A2.48,2.48,0,0,1,33.24,11.94Z"/><path class="cls-394" d="M36.05,11.87,36,11,38,10.9V11a.58.58,0,0,1,0,.88v0a1.21,1.21,0,0,1-1.79.16Z"/><path class="cls-395" d="M37.94,11.87,38,11l.95,0C39,11.65,38.65,12,37.94,11.87Z"/><path class="cls-396" d="M33.24,11.94l2.81-.07v.06a.8.8,0,0,1,.2,1,.91.91,0,0,1-.86.43c-.57-.11-.88.22-1.12.66a.77.77,0,0,1-.87,0,.44.44,0,0,1-.19-.3l0-.91Z"/><path class="cls-377" d="M26.53,26.21l-.94-.07,0-.88v-1h0c.33-.3.64-.63,1-1h0a.85.85,0,0,1,1.12-.08,1.43,1.43,0,0,1-.14,2l0,0a11.79,11.79,0,0,1-.93.94Z"/><path class="cls-397" d="M26.52,23.33c.05.7-.28,1-1,1l0-.92Z"/><path class="cls-398" d="M27.5,19.55l.9-.05a2.27,2.27,0,0,1,.06,2.9l-.06,0a.6.6,0,0,1-.77.23.46.46,0,0,1-.19-.28Z"/><path class="cls-399" d="M27.44,23.33h-.93q-.11-1,.93-1l.07.09A.61.61,0,0,1,27.44,23.33Z"/><path class="cls-400" d="M26.51,18.58h.93v.91h-.91C26.52,19.2,26.52,18.89,26.51,18.58Z"/><path class="cls-401" d="M48.48,23.28a.84.84,0,0,1,1,1l-.12.17c-.83.32-1.21,0-1.12-.85A.58.58,0,0,1,48.48,23.28Z"/><path class="cls-402" d="M50.34,24.33c0,.3,0,.6,0,.89l-.89,0-.15-.09a.56.56,0,0,1,.08-.81l.08-.1Z"/><path class="cls-403" d="M47.54,22.36l.89,0c0,.3,0,.6,0,.9l-.08.1c-.8.43-1.19.2-1.14-.72A.52.52,0,0,1,47.54,22.36Z"/><path class="cls-404" d="M52.2,27.19l0,.91c-.4.63-1,.55-1.57.37a.8.8,0,0,1-.49-1.15l.16-.18Z"/><path class="cls-405" d="M49.38,26.19h1l0,.94h0a.67.67,0,0,1-.93.07.56.56,0,0,0,0-.12.59.59,0,0,1-.13-.8Z"/><path class="cls-406" d="M49.43,25.26l0,.93h0a.75.75,0,0,1-1,.06.79.79,0,0,1,0-1.05.7.7,0,0,1,1,0Z"/><path class="cls-407" d="M49.42,27.22l.93-.07c0,1.49,1.19.77,1.88,1l.94,0c0,.69.36,1,1,.87l.89.06,0,.93h0a1.06,1.06,0,0,1-.84.44c-1.06.16-2.1.22-2.83-.81a.76.76,0,0,0-.95.33l-.15,0c-.69.07-1-.26-1-.94S49.41,27.83,49.42,27.22Z"/><path class="cls-408" d="M48.39,17.58c0,.32,0,.64,0,1h-.94C47.43,17.9,47.71,17.55,48.39,17.58Z"/><path class="cls-409" d="M46.51,21.43l-.9,0-.07-.92a1.43,1.43,0,0,1-.12-1.95.75.75,0,0,1,1.07,0l.06.11C46.54,19.57,46.52,20.5,46.51,21.43Z"/><path class="cls-410" d="M46.56,22.39l0-1c.71-.09,1,.29,1,.93l-.11.06A.59.59,0,0,1,46.56,22.39Z"/><path class="cls-194" d="M58.92,37.63h2.85a1.15,1.15,0,0,1,0,1.89v1c0,1.88-.38,2.2-2.11,1.89-.4-.07-.67-.22-.73-.64s.06-1.15-.76-1.24a2,2,0,0,0-2,.88c-1,1.37-1.26,1.38-2.29.12a2.08,2.08,0,0,0-1.77-1c-.68.05-.88-.38-.9-1l0,0c.11-.11.21-.3.34-.32a3.35,3.35,0,0,0,2.48-1.87,2.75,2.75,0,0,1,1.29-.24c.5.14,1,.32,1.14.89a1.07,1.07,0,0,0,1,.86c.62,0,.77-.43.94-.87A.6.6,0,0,1,58.92,37.63Z"/><path class="cls-310" d="M61.78,39.52c0-.63,0-1.26,0-1.89.72.17,1.94-.5,1.89,1S62.48,39.38,61.78,39.52Z"/><path class="cls-353" d="M54.12,30.06l1-.06,0,.92-1,0A.58.58,0,0,1,54.12,30.06Z"/><path class="cls-411" d="M58.92,37.63c0,1.91-.44,2.27-2.08,1.75-.46-.15-.77-.37-.78-.89a.81.81,0,0,0-.49-.87,1.6,1.6,0,0,1,.49-1.9H57C58.92,35.72,58.92,35.72,58.92,37.63Z"/><path class="cls-352" d="M54.16,37.6c-.06,1.75-.34,1.93-2.86,1.94,0-.64,0-1.28.05-1.92.59-.59,1.39-1,1.7-1.84l.15-.06.95.24C54.82,36.51,54.71,37.05,54.16,37.6Z"/><path class="cls-412" d="M54.14,34c0-.71.13-1.22,1-1.17,1.23.07.78,1,.91,1.65C55.34,34.73,54.52,35.26,54.14,34Z"/><path class="cls-311" d="M54.16,37.6c0-.54,0-1.09,0-1.64.6-.38,1.27-.19,1.91-.24a2.54,2.54,0,0,1-.49,1.9Z"/><path class="cls-352" d="M52.23,34.79H53c.09.32.17.63.25.94l0,0C52.1,36,52,35.87,52.23,34.79Z"/><path class="cls-310" d="M54.12,30.06l0,.89a9.33,9.33,0,0,1-2.85,1.91l-.15,0a7.93,7.93,0,0,0-.83-.91h-.88c0-.31,0-.63-.07-.94.69,0,1-.27,1-1h0c.36-.27.62-.65,1-.89.27,0,.66-.11.75.13C52.47,30.29,53.38,29.93,54.12,30.06Z"/><path class="cls-413" d="M52.23,34.79c0,.66.29,1,1,1,0,1.89,0,1.89-1.83,1.88l-.11,0A2.64,2.64,0,0,1,51,35a.65.65,0,0,1,.35-.24Z"/><path class="cls-288" d="M50.3,34.78l.09-1.89a.52.52,0,0,1,.85,0l.06,0,.06,1.91h-.11a.56.56,0,0,1-.86,0Z"/><path class="cls-414" d="M9.38,31.92c0,.31,0,.62,0,.93l-.94,0c0-.31,0-.63,0-.94Z"/><path class="cls-415" d="M34.39,40.45l5.46.06a.66.66,0,0,1,0,.94h0l-2.9,0-3.75,0a.69.69,0,0,1,0-.13.71.71,0,0,1,0-1A.91.91,0,0,1,34.39,40.45Z"/><path class="cls-318" d="M39.87,41.45c0-.31,0-.63,0-.94h.95c0,.31,0,.62,0,.93Z"/><path class="cls-416" d="M30.31,52.85l.06-11.38a.59.59,0,0,1,.77-.23.45.45,0,0,1,.2.27c0,3.77-.05,7.54-.08,11.32Z"/><path class="cls-417" d="M33.17,40.52v.86l-1.83.13-.07-.09a.6.6,0,0,1,0-.89v-.11C31.94,39.94,32.58,39.73,33.17,40.52Z"/><path class="cls-418" d="M31.3,55.75c0-.31,0-.63,0-.94h1.88c0,.29,0,.58,0,.88l-.92.08Z"/><path class="cls-419" d="M30.4,39.52l-.06-.93h0a.67.67,0,0,1,1,0l2.37,0,3.34,0c0,.63-.24.93-.88.93s-1.16,0-1.74,0a2.63,2.63,0,0,1-3.08,0Z"/><path class="cls-420" d="M31.29,39.53l3.08,0c0,.3,0,.6,0,.9l-1.22.07-1.89-.1Z"/><path class="cls-421" d="M37,23.39a12,12,0,0,0-2.81,0,.28.28,0,0,1,0-.13.76.76,0,0,1,0-1.09c1.39-.59,2.85-.15,4.27-.28a1.52,1.52,0,0,1,1.49.47h0c0,.31,0,.62,0,.92l-.91.05A1.31,1.31,0,0,1,37,23.39Z"/><path class="cls-422" d="M36.07,16.69c-.06.66.26.94.9.93s1.27,0,1.9,0a.87.87,0,0,1,1,.92l-.1.19c-1.1.62-2.31.14-3.44.38-.72-.05-1.44,0-2.15-.09a1.57,1.57,0,0,1-1-.27,1,1,0,0,1,.24-1.57,3.06,3.06,0,0,0,.63-.67,1.42,1.42,0,0,1,1-.29,1.18,1.18,0,0,1,1,.27Z"/><path class="cls-423" d="M39.88,20.52l0,.92a1.39,1.39,0,0,1-1.26.47c-1.8,0-3.6,0-5.4,0-.9,0-1.42-.35-1.15-1.36a1.15,1.15,0,0,1,1-.49c.36,0,.72,0,1.09,0A8.8,8.8,0,0,1,36,20h1c.58,0,1.17,0,1.75,0a1.58,1.58,0,0,1,.93.18A.66.66,0,0,1,39.88,20.52Z"/><path class="cls-424" d="M33.19,21.43h6.66c0,.31,0,.63,0,.94l-5.74.05a.69.69,0,1,1-.93-1Z"/><path class="cls-425" d="M39,15.69c-.32,0-.64,0-.87-.25s-.29-.74-.77-.52-.3.54-.3.84c0,.65-.33.92-.94.93L36,16.63a2.77,2.77,0,0,1-.1-3,2.69,2.69,0,0,1,3,.17h0a1,1,0,0,1,.39.92A1.06,1.06,0,0,1,39,15.69Z"/><path class="cls-426" d="M44.61,20.49c-.47,0-.94,0-1.41,0-.63,0-1.38.16-1.43-.9s.68-1,1.4-1.05a2,2,0,0,1,.38-.24,1.09,1.09,0,0,1,1.27.23,1.43,1.43,0,0,1-.18,1.93Z"/><path class="cls-427" d="M39,15.69v-.92a.66.66,0,0,1,.94,0l1,0,.89.08a.76.76,0,0,1,.33.81c-.07.57-.77.5-1,.94a.64.64,0,0,1-.28.18c-.42-.07-.84-.1-1-.62S39.28,15.73,39,15.69Z"/><path class="cls-428" d="M43.46,18.54h-.29c-.15-.8-.75-.93-1.42-.92s-1-.24-.94-.89l0-.12c.84-.7,1.78-.43,2.71-.26a.81.81,0,0,1,.35.25A1.31,1.31,0,0,1,43.46,18.54Z"/><path class="cls-429" d="M39.86,18.55c.7,0,1,.36,1,1s-.35.9-.94.93l0-.06a1.11,1.11,0,0,1,0-1.82Z"/><path class="cls-430" d="M44.64,20.46l-.07-1.86c0-.06,0-.11.08-.16a.63.63,0,0,1,.79-.09.43.43,0,0,1,.17.28c0,.62,0,1.24-.07,1.86Z"/><path class="cls-431" d="M48.48,27.16c0,.31,0,.62-.07.93H46.54v-1a.92.92,0,0,1,.81-.39,1.41,1.41,0,0,1,.9.14A.51.51,0,0,1,48.48,27.16Z"/><path class="cls-432" d="M46.56,22.39l.87,0c-.06.71.28,1,1,1-.07.71.29,1,1,1l0,.87-.92.05a1.15,1.15,0,0,1-1.85,0l-.07,0C46.51,24.26,46.54,23.33,46.56,22.39Z"/><path class="cls-433" d="M46.56,25.24l1.85,0,.06.89-.09.18a1.06,1.06,0,0,1-1,.24.92.92,0,0,1-.87-.41Z"/><path class="cls-434" d="M46.56,26.18l.91.05a.6.6,0,0,1,0,.9h-.92C46.55,26.81,46.56,26.5,46.56,26.18Z"/><path class="cls-435" d="M48.47,26.17l.92,0c0,.3,0,.6,0,.9l-.9.06-.06,0a.61.61,0,0,1,0-.89Z"/><path class="cls-436" d="M51.24,32.9h-.85c0-.33,0-.65-.07-1C51.06,31.84,51.37,32.16,51.24,32.9Z"/><path class="cls-437" d="M50.39,34.76h.86c0,.95,0,1.91,0,2.87h-.88l-.06-1Z"/><path class="cls-438" d="M37,23.39l2,0c0,2.22,0,4.44,0,6.65,0,1.92,0,1.92-1.88,1.89C37,29.06,37,26.22,37,23.39Z"/><path class="cls-439" d="M33.2,22.34l.92.09,0,.85-.92.12-.9,0-.14-.05a.75.75,0,0,1,0-1A.79.79,0,0,1,33.2,22.34Z"/><path class="cls-440" d="M28.46,22.4l-.06-2.9.06-.91a.76.76,0,0,1,.9-.22,1,1,0,0,1,.48,1c0,.52.32.75.66,1,.69,1.13-.4,1.41-.94,1.95l-.17.08Z"/><path class="cls-441" d="M30.3,23.37c0,.95,0,1.9,0,2.85,0,.64-.27,1-.91,1V23.31A.56.56,0,0,1,30.3,23.37Z"/><path class="cls-442" d="M27.44,23.33c0-.31,0-.62.07-.93l.89,0c0,.95,0,1.91,0,2.86l-.9,0C27.47,24.61,27.45,24,27.44,23.33Z"/><path class="cls-443" d="M30.3,23.37l-.88-.06,0-.92h0a.76.76,0,0,1,1-.09.72.72,0,0,1,0,1Z"/><path class="cls-444" d="M26.52,26.17c-.07-.68.28-1,.93-.94,0,.31,0,.62,0,.93Z"/><path class="cls-445" d="M31.28,38.58h-1l0-1.89h.92Z"/><path class="cls-446" d="M30.36,23.31l0-.89a1.08,1.08,0,0,1,1.88,0c0,.3,0,.6,0,.9Z"/><path class="cls-447" d="M31.29,40.53c0,.29,0,.59,0,.89l-.9,0c0-.31,0-.63-.05-.95Z"/><path class="cls-448" d="M29.38,18.57l-.92,0V16.74l.89-.11.19.1a1.31,1.31,0,0,1,0,1.73Z"/><path class="cls-449" d="M30.33,14.75c.1-1.43,1.19-.8,1.92-.93a.77.77,0,0,1,.1,1,1.11,1.11,0,0,1-1,.32,1.09,1.09,0,0,1-1-.38Z"/><path class="cls-450" d="M32.23,14.69l0-.87,1-.09v.1a.77.77,0,0,1,.29.81.81.81,0,0,1-.21.31.75.75,0,0,1-.86,0A.43.43,0,0,1,32.23,14.69Z"/><path class="cls-451" d="M29.35,16.63c0-.29,0-.59,0-.88l.93-.07a.72.72,0,0,1,1.23.17,1,1,0,0,1-.22,1.06,1.42,1.42,0,0,1-1.9-.22Z"/><path class="cls-452" d="M31.27,15.68h-.95c0-.3,0-.6.05-.9h.93A.58.58,0,0,1,31.27,15.68Z"/><path class="cls-453" d="M46.49,18.54l-.88.09,0-.06a1.37,1.37,0,0,1-.11-1.95.8.8,0,0,1,1.09,0v0Z"/><path class="cls-454" d="M46.54,16.65l-1,0-.14-.08a.63.63,0,0,1-.09-.75.58.58,0,0,1,.25-.19l1,.08Z"/><path class="cls-455" d="M44.68,13.83l.88,0c0,.62,0,1.25,0,1.87v.11a.65.65,0,0,1-.83.09l-.11-.14Z"/><path class="cls-456" d="M38.9,13.81H36.1a.8.8,0,0,1-1,.09.69.69,0,0,1,0-1l.93-.08a1.28,1.28,0,0,1,1.94,0l.9.07C38.89,13.2,38.9,13.51,38.9,13.81Z"/><path class="cls-457" d="M38,12.82H36v-.89l1.9,0C38,12.22,38,12.52,38,12.82Z"/><path class="cls-458" d="M41.76,15.68l0-.88h1c0,.3,0,.59,0,.88A.6.6,0,0,1,41.76,15.68Z"/><path class="cls-459" d="M39.88,14.74l-.94,0c0-.32,0-.63,0-.95l1,0C39.85,14.15,39.87,14.44,39.88,14.74Z"/><path class="cls-460" d="M43.66,15.67l1,.05h0a.71.71,0,0,1,0,1.19.84.84,0,0,1-.93-.17l0-.1a.57.57,0,0,1,0-.86Z"/><path class="cls-461" d="M43.69,15.77c0,.28,0,.57,0,.86l-2.81,0c-.08-.7.32-.92.93-.93h1Z"/><path class="cls-462" d="M33.2,14.76v-.93l.92-.08a.59.59,0,0,1,.28.28.74.74,0,0,1-.25.92A.7.7,0,0,1,33.2,14.76Z"/><path class="cls-463" d="M35.11,12.9v.88a.6.6,0,0,1-.92.08.41.41,0,0,0-.07-.11C34.06,13,34.44,12.79,35.11,12.9Z"/><path class="cls-464" d="M51.32,29.1c0,.69-.34.95-1,.89C50.29,29.28,50.63,29,51.32,29.1Z"/><path class="cls-465" d="M39.83,18.64c0,.61,0,1.21,0,1.82h-1a1.15,1.15,0,0,0-1.87,0h-1c-.72-.94-.7-1.13.23-1.85Z"/><path class="cls-466" d="M36.3,18.6a3.45,3.45,0,0,0-.23,1.85h-2a1.17,1.17,0,0,1,0-1.86Z"/><path class="cls-467" d="M34.18,13.86l.92-.08,1,0L36,16.63h-.93c-.56-.51-.61-1.28-.93-1.9Z"/><path class="cls-468" d="M34.14,16.74c0,.41,0,.76-.5.91s-.42.5-.44.85a.48.48,0,0,1-.22.3.77.77,0,0,1-.92-.16,1.41,1.41,0,0,1-.26-.95,1.79,1.79,0,0,1,.15-1,.75.75,0,0,1,.27-.29,1.73,1.73,0,0,1,1.72,0A.63.63,0,0,1,34.14,16.74Z"/><path class="cls-469" d="M34.15,14.74c1.51,0,.78,1.19.93,1.9l-.94.1v-.11c-.3-.47-1-.37-1.24-1a.82.82,0,0,1,.31-.86v0Z"/><path class="cls-470" d="M34.13,18.59c0,.62,0,1.24,0,1.86h-.94a1.13,1.13,0,0,1,0-1.84l0-.11Z"/><path class="cls-471" d="M32.22,22.42H30.34l-1,0c0-.39,0-.79.46-.94s.5-.52.45-.92l.08-.19A1.29,1.29,0,0,1,32,20.22a.59.59,0,0,1,.21.33c0,.67.33.91.95.88v.91Z"/><path class="cls-472" d="M33.18,18.61v1.84l-.93.1a.49.49,0,0,1,0-.12,1.21,1.21,0,0,1-.29-1.66.64.64,0,0,1,.3-.26Z"/><path class="cls-473" d="M37,20.45c-.06-.64.23-.92.88-.93s1.06.2,1,.94Z"/><path class="cls-332" d="M43.67,16.73l.89,0c.83.58.63,1.22.1,1.87l-.09,0-1.11-.06Z"/><path class="cls-474" d="M44.66,18.57c0-.62-.06-1.24-.1-1.87l.1-.05a.62.62,0,0,1,.91,0h0v1.89Z"/><path class="cls-475" d="M48.41,26.24c0,.3,0,.6,0,.89h-1v-.9Z"/><path class="cls-476" d="M30.29,20.53c-1.4-.15-.77-1.23-.91-2h0a.82.82,0,0,1,1-.21.75.75,0,0,1,.29.32,1.38,1.38,0,0,1-.27,1.77Z"/><path class="cls-477" d="M30.27,18.53l-.89,0,.06-1.88,1.86,0c.33-.25.65-.3.93.09v.85C31.78,18.32,30.79,17.94,30.27,18.53Z"/><path class="cls-478" d="M31.27,15.68l0-.89.93-.1v.12a.66.66,0,0,1,0,1,.74.74,0,0,1-1,0Z"/><path class="cls-479" d="M32.24,15.65v-.84l1,0c0,.31,0,.61,0,.91a.54.54,0,0,1-.74.23A.41.41,0,0,1,32.24,15.65Z"/><path class="cls-480" d="M31.28,15.76l1-.11v.12a.55.55,0,0,1,0,.84.27.27,0,0,1,0,.13l-.93-.09C31.29,16.35,31.28,16.05,31.28,15.76Z"/><path class="cls-481" d="M45.57,16.67l-.91,0c0-.31,0-.63,0-.94l1,.06C45.57,16.07,45.57,16.37,45.57,16.67Z"/><path class="cls-482" d="M32.25,16.61v-.84l.92-.08c.65,0,1.1.17,1,.94Z"/><path class="cls-483" d="M30.27,18.53c.14-1.41,1.25-.75,2-.94v1a1.17,1.17,0,0,1-1.86,0Z"/><path class="cls-484" d="M30.37,18.6l1.86,0v1.81l-1.87,0Z"/></g></g></svg>