<svg xmlns="http://www.w3.org/2000/svg" viewBox="0 0 74 74"><defs><style>.cls-1{fill:#1e2223;}.cls-2{fill:#6b6d6e;}.cls-3{fill:#282f2b;}.cls-4{fill:#404a44;}.cls-5{fill:#737961;}.cls-6{fill:#5a5544;}.cls-7{fill:#9f7c58;}.cls-8{fill:#7d6f59;}.cls-9{fill:#88886a;}.cls-10{fill:#5c6556;}.cls-11{fill:#535b4f;}.cls-12{fill:#404a43;}.cls-13{fill:#343938;}.cls-14{fill:#59584a;}.cls-15{fill:#75533c;}.cls-16{fill:#494e41;}.cls-17{fill:#2e3833;}.cls-18{fill:#81876e;}.cls-19{fill:#3d463f;}.cls-20{fill:#6d7361;}.cls-21{fill:#454e46;}.cls-22{fill:#8e9376;}.cls-23{fill:#525b4f;}.cls-24{fill:#3d4741;}.cls-25{fill:#4b5249;}.cls-26{fill:#3b433e;}.cls-27{fill:#2c3637;}.cls-28{fill:#959b7e;}.cls-29{fill:#2e363c;}.cls-30{fill:#38413b;}.cls-31{fill:#50574b;}.cls-32{fill:#303834;}.cls-33{fill:#404841;}.cls-34{fill:#69705e;}.cls-35{fill:#3e4549;}.cls-36{fill:#5d5f5a;}.cls-37{fill:#313735;}.cls-38{fill:#4f584e;}.cls-39{fill:#616756;}.cls-40{fill:#8a8f74;}.cls-41{fill:#343c41;}.cls-42{fill:#7d7d64;}.cls-43{fill:#3d434a;}.cls-44{fill:#6a6f74;}.cls-45{fill:#696d6f;}.cls-46{fill:#5e6163;}.cls-47{fill:#252721;}.cls-48{fill:#313d32;}.cls-49{fill:#4b544c;}.cls-50{fill:#191919;}.cls-51{fill:#171818;}.cls-52{fill:#292c29;}.cls-53{fill:#222c24;}.cls-54{fill:#232d25;}.cls-55{fill:#32362d;}.cls-56{fill:#5d655e;}.cls-57{fill:#384039;}.cls-58{fill:#3a433c;}.cls-59{fill:#515b51;}.cls-60{fill:#67491d;}.cls-61{fill:#273129;}.cls-62{fill:#5a625c;}.cls-63{fill:#565657;}.cls-64{fill:#85650b;}.cls-65{fill:#a6a9ab;}.cls-66{fill:#a8aea8;}.cls-67{fill:#242f27;}.cls-68{fill:#3f2f16;}.cls-69{fill:#573b0c;}.cls-70{fill:#929293;}.cls-71{fill:#7a6332;}.cls-72{fill:#3e2c14;}.cls-73{fill:#404143;}.cls-74{fill:#8f958e;}.cls-75{fill:#3b2c17;}.cls-76{fill:#a6a8aa;}.cls-77{fill:#8d8f8c;}.cls-78{fill:#737872;}.cls-79{fill:#818689;}.cls-80{fill:#adb1ac;}.cls-81{fill:#8c7047;}.cls-82{fill:#5a6362;}.cls-83{fill:#575b54;}.cls-84{fill:#203946;}.cls-85{fill:#686d71;}.cls-86{fill:#414742;}.cls-87{fill:#374247;}.cls-88{fill:#d1d1d0;}.cls-89{fill:#787d80;}.cls-90{fill:#998442;}.cls-91{fill:#aeadac;}.cls-92{fill:#9f863b;}.cls-93{fill:#5a501f;}.cls-94{fill:#192a33;}.cls-95{fill:#3a4744;}.cls-96{fill:#3e4c48;}.cls-97{fill:#586162;}.cls-98{fill:#5b6565;}.cls-99{fill:#7e7753;}.cls-100{fill:#5f5522;}.cls-101{fill:#4c5357;}.cls-102{fill:#565c60;}.cls-103{fill:#878b8e;}.cls-104{fill:#50565b;}.cls-105{fill:#434a4e;}.cls-106{fill:#6d7174;}.cls-107{fill:#475155;}.cls-108{fill:#5f686b;}.cls-109{fill:#495357;}.cls-110{fill:#444a4e;}.cls-111{fill:#9fa1a4;}.cls-112{fill:#6f7276;}.cls-113{fill:#5d6469;}.cls-114{fill:#a0a3a5;}.cls-115{fill:#6b7073;}.cls-116{fill:#9fa2a3;}.cls-117{fill:#7d8183;}.cls-118{fill:#969a9c;}.cls-119{fill:#676d70;}.cls-120{fill:#828788;}.cls-121{fill:#454d44;}.cls-122{fill:#323a40;}.cls-123{fill:#53544f;}.cls-124{fill:#2e3633;}.cls-125{fill:#4b4633;}.cls-126{fill:#b0a97b;}.cls-127{fill:#253032;}.cls-128{fill:#d1c78d;}.cls-129{fill:#515a50;}.cls-130{fill:#c1ad71;}.cls-131{fill:#40473d;}.cls-132{fill:#82878b;}.cls-133{fill:#5f656a;}.cls-134{fill:#3b434a;}.cls-135{fill:#3b4248;}.cls-136{fill:#697074;}.cls-137{fill:#5b6053;}.cls-138{fill:#555d51;}.cls-139{fill:#83866b;}.cls-140{fill:#515341;}.cls-141{fill:#353d34;}.cls-142{fill:#434a42;}.cls-143{fill:#8c9275;}.cls-144{fill:#b8b891;}.cls-145{fill:#7a8069;}.cls-146{fill:#424a42;}.cls-147{fill:#797d64;}.cls-148{fill:#b08b5d;}.cls-149{fill:#cfbf89;}.cls-150{fill:#dfdfae;}.cls-151{fill:#f2cd96;}.cls-152{fill:#bf4f16;}.cls-153{fill:#949276;}.cls-154{fill:#f78b4b;}.cls-155{fill:#dc7d46;}.cls-156{fill:#e9975b;}.cls-157{fill:#fe8136;}.cls-158{fill:#f7df9a;}.cls-159{fill:#e7b275;}.cls-160{fill:#c0be94;}.cls-161{fill:#f3eab4;}.cls-162{fill:#b4af88;}.cls-163{fill:#909578;}.cls-164{fill:#bea37a;}.cls-165{fill:#f0a971;}.cls-166{fill:#c2c39a;}.cls-167{fill:#717171;}.cls-168{fill:#696e72;}.cls-169{fill:#4c4f51;}.cls-170{fill:#626567;}.cls-171{fill:#8a8c8e;}.cls-172{fill:#4d5358;}.cls-173{fill:#f2f0b9;}.cls-174{fill:#fbd693;}.cls-175{fill:#797154;}.cls-176{fill:#f7e8b1;}.cls-177{fill:#d9ca91;}.cls-178{fill:#a5a684;}.cls-179{fill:#6d705c;}.cls-180{fill:#b9ba95;}.cls-181{fill:#8c9176;}.cls-182{fill:#c2c296;}.cls-183{fill:#b5b690;}.cls-184{fill:#d5d5a7;}.cls-185{fill:#a0a1a2;}.cls-186{fill:#63696d;}.cls-187{fill:#878a8e;}.cls-188{fill:#69654b;}.cls-189{fill:#b3ac7f;}.cls-190{fill:#c8cacb;}.cls-191{fill:#6d7276;}.cls-192{fill:#8f8570;}.cls-193{fill:#999b9d;}.cls-194{fill:#c0c29a;}.cls-195{fill:#efd099;}.cls-196{fill:#909396;}.cls-197{fill:#919191;}.cls-198{fill:#a0a0a0;}.cls-199{fill:#a3a3a3;}.cls-200{fill:#7b7b7b;}.cls-201{fill:#868686;}.cls-202{fill:#464a4d;}.cls-203{fill:#60696a;}.cls-204{fill:#737576;}.cls-205{fill:#3b4844;}.cls-206{fill:#505356;}.cls-207{fill:#75787a;}.cls-208{fill:#4d524e;}.cls-209{fill:#353c40;}.cls-210{fill:#3a3a35;}.cls-211{fill:#64676a;}.cls-212{fill:#7d6a22;}.cls-213{fill:#393e3b;}.cls-214{fill:#40474b;}.cls-215{fill:#848062;}.cls-216{fill:#344035;}.cls-217{fill:#4a534c;}.cls-218{fill:#af9357;}.cls-219{fill:#856125;}.cls-220{fill:#2b332d;}.cls-221{fill:#363c37;}.cls-222{fill:#bca76d;}.cls-223{fill:#dfcc93;}.cls-224{fill:#ccc09b;}.cls-225{fill:#d8d8d8;}.cls-226{fill:#4b554b;}.cls-227{fill:#6e746e;}.cls-228{fill:#a6a6a6;}.cls-229{fill:#5e645d;}.cls-230{fill:#5f6760;}.cls-231{fill:#303c31;}.cls-232{fill:#87660e;}.cls-233{fill:#a9aea8;}.cls-234{fill:#7f6633;}.cls-235{fill:#7a817a;}.cls-236{fill:#a18b4c;}.cls-237{fill:#abb0aa;}.cls-238{fill:#919790;}.cls-239{fill:#a58b3d;}.cls-240{fill:#b5b5b3;}.cls-241{fill:#cacaca;}.cls-242{fill:#59605a;}.cls-243{fill:#a6aba6;}.cls-244{fill:#3b473b;}.cls-245{fill:#676f68;}.cls-246{fill:#7d827c;}.cls-247{fill:#464c47;}.cls-248{fill:#6f776e;}.cls-249{fill:#c9c9c9;}.cls-250{fill:#838983;}.cls-251{fill:#515b4f;}.cls-252{fill:#585136;}.cls-253{fill:#6b684e;}.cls-254{fill:#565b5a;}.cls-255{fill:#323c42;}.cls-256{fill:#3f464b;}.cls-257{fill:#585d61;}.cls-258{fill:#62686c;}.cls-259{fill:#394439;}.cls-260{fill:#626b64;}.cls-261{fill:#58615a;}.cls-262{fill:#4d584c;}.cls-263{fill:#5a5036;}.cls-264{fill:#6a726b;}.cls-265{fill:#675d44;}.cls-266{fill:#333c35;}.cls-267{fill:#636c61;}.cls-268{fill:#3f403e;}.cls-269{fill:#95753e;}.cls-270{fill:#414335;}.cls-271{fill:#4f5851;}.cls-272{fill:#767e76;}.cls-273{fill:#555e57;}.cls-274{fill:#6c766b;}.cls-275{fill:#72777a;}.cls-276{fill:#8a8e90;}.cls-277{fill:#b7880a;}.cls-278{fill:#cc9b09;}.cls-279{fill:#b9b9ba;}.cls-280{fill:#ccc;}.cls-281{fill:#fcfcfb;}.cls-282{fill:#6e776c;}.cls-283{fill:#5b635d;}.cls-284{fill:#6f4301;}.cls-285{fill:#7f5404;}.cls-286{fill:#906619;}.cls-287{fill:#b08d41;}.cls-288{fill:#d0d0d0;}.cls-289{fill:#889186;}.cls-290{fill:#98999b;}.cls-291{fill:#344047;}.cls-292{fill:#e0bf5c;}.cls-293{fill:#fdfdfb;}.cls-294{fill:#e7c357;}.cls-295{fill:#f9f9f9;}.cls-296{fill:#e3e3e3;}.cls-297{fill:#f5f5f5;}.cls-298{fill:#575d62;}.cls-299{fill:#71767a;}.cls-300{fill:#808486;}.cls-301{fill:#7c8082;}.cls-302{fill:#cfcfd0;}.cls-303{fill:#7e8284;}.cls-304{fill:#b8b8b8;}.cls-305{fill:#96989a;}.cls-306{fill:#a4a5a5;}.cls-307{fill:#abacad;}.cls-308{fill:#595f63;}.cls-309{fill:#bababa;}.cls-310{fill:#757a7c;}.cls-311{fill:#8e9294;}.cls-312{fill:#959799;}.cls-313{fill:#a7a9aa;}.cls-314{fill:#dfdfdf;}.cls-315{fill:#dcdcdc;}.cls-316{fill:#b0b0b0;}.cls-317{fill:#c6c6c6;}.cls-318{fill:#f3efb5;}.cls-319{fill:#f6e49c;}.cls-320{fill:#f9d582;}.cls-321{fill:#b2b38f;}.cls-322{fill:#c6c8c9;}.cls-323{fill:#af8a47;}.cls-324{fill:#9fa1a3;}.cls-325{fill:#888176;}.cls-326{fill:#dba760;}.cls-327{fill:#a09365;}.cls-328{fill:#f3c178;}.cls-329{fill:#767d66;}.cls-330{fill:#fdbe67;}.cls-331{fill:#c1c1c3;}.cls-332{fill:#a8a9aa;}.cls-333{fill:#aaad89;}.cls-334{fill:#29342b;}.cls-335{fill:#59615a;}.cls-336{fill:#515850;}.cls-337{fill:#666b60;}.cls-338{fill:#b86b39;}.cls-339{fill:#495249;}.cls-340{fill:#722808;}.cls-341{fill:#87421d;}.cls-342{fill:#ea8a41;}.cls-343{fill:#88654c;}.cls-344{fill:#725744;}.cls-345{fill:#b39f75;}.cls-346{fill:#fe5400;}.cls-347{fill:#fe0c00;}.cls-348{fill:#db4600;}.cls-349{fill:#fe6d00;}.cls-350{fill:#dadada;}.cls-351{fill:#636363;}.cls-352{fill:#8a8a8a;}.cls-353{fill:#7f7f7f;}.cls-354{fill:#969696;}.cls-355{fill:#5a5a5a;}.cls-356{fill:#ececec;}.cls-357{fill:#f6d695;}.cls-358{fill:#fe9a49;}.cls-359{fill:#feb66c;}.cls-360{fill:#fe7515;}.cls-361{fill:#fe8a40;}.cls-362{fill:#fed088;}.cls-363{fill:#5d5d5d;}.cls-364{fill:#e6e6e7;}.cls-365{fill:#bfbfc0;}.cls-366{fill:#f6c56f;}.cls-367{fill:#ead68e;}.cls-368{fill:#c9b475;}.cls-369{fill:#cacbcc;}.cls-370{fill:#aa9a95;}.cls-371{fill:#9a3400;}.cls-372{fill:#b5753d;}.cls-373{fill:#b2b2b2;}.cls-374{fill:#949494;}.cls-375{fill:#9c9c9c;}.cls-376{fill:gray;}.cls-377{fill:#8d8d8d;}.cls-378{fill:#5f5f5f;}.cls-379{fill:#656565;}.cls-380{fill:#727272;}.cls-381{fill:#a2a2a2;}.cls-382{fill:#6d6d6d;}.cls-383{fill:#929292;}.cls-384{fill:#646464;}.cls-385{fill:#c1c1c1;}.cls-386{fill:#959595;}.cls-387{fill:#7d7d7e;}.cls-388{fill:#58595a;}.cls-389{fill:#6f6f70;}.cls-390{fill:#6b6c6e;}.cls-391{fill:#bdc1bc;}.cls-392{fill:#9ea19d;}.cls-393{fill:#939393;}.cls-394{fill:#6b5a47;}.cls-395{fill:#7f776c;}.cls-396{fill:#9b4f1c;}.cls-397{fill:#55595c;}.cls-398{fill:#727678;}.cls-399{fill:#717376;}.cls-400{fill:#575756;}.cls-401{fill:#706e66;}.cls-402{fill:#f2e3b2;}.cls-403{fill:#c19935;}.cls-404{fill:#daba5d;}.cls-405{fill:#fefdfc;}.cls-406{fill:#eddaa3;}.cls-407{fill:#c9aa64;}.cls-408{fill:#797872;}.cls-409{fill:#9b9c9c;}.cls-410{fill:#818587;}.cls-411{fill:#d5d6d6;}.cls-412{fill:#a5a7a8;}.cls-413{fill:#303b31;}.cls-414{fill:#424c44;}.cls-415{fill:#4e594e;}.cls-416{fill:#6e776d;}.cls-417{fill:#4c574d;}.cls-418{fill:#8d948c;}.cls-419{fill:#312419;}.cls-420{fill:#767f75;}.cls-421{fill:#8c938a;}.cls-422{fill:#c2a45f;}.cls-423{fill:#dcbe71;}.cls-424{fill:#eddba5;}.cls-425{fill:#9da39b;}.cls-426{fill:#c04a00;}.cls-427{fill:#e77120;}.cls-428{fill:#694222;}.cls-429{fill:#c5c6c6;}.cls-430{fill:#e5e5e5;}.cls-431{fill:#9d9d9d;}.cls-432{fill:#acacac;}.cls-433{fill:#999;}.cls-434{fill:#8e8e8e;}.cls-435{fill:#6e6e6e;}.cls-436{fill:#a5a5a5;}.cls-437{fill:#989898;}.cls-438{fill:#9e9e9e;}.cls-439{fill:#828282;}.cls-440{fill:#cecece;}.cls-441{fill:#c5c5c5;}.cls-442{fill:#e1e1e1;}.cls-443{fill:#aeaeae;}.cls-444{fill:#dedede;}.cls-445{fill:#8e9091;}.cls-446{fill:#fe7e1a;}.cls-447{fill:#fea24f;}.cls-448{fill:#fe4f00;}.cls-449{fill:#575757;}.cls-450{fill:#888;}.cls-451{fill:#e5e5e6;}.cls-452{fill:#8b7e76;}.cls-453{fill:#f7b145;}.cls-454{fill:#fc6700;}.cls-455{fill:#99410f;}.cls-456{fill:#fc8529;}.cls-457{fill:#b7aa9d;}.cls-458{fill:#fd4400;}.cls-459{fill:#fe780c;}.cls-460{fill:#fe9635;}.cls-461{fill:#84877f;}.cls-462{fill:#515b52;}.cls-463{fill:#43382d;}.cls-464{fill:#50433a;}.cls-465{fill:#524b43;}.cls-466{fill:#5c2e1b;}.cls-467{fill:#bc470f;}.cls-468{fill:#dddfdd;}.cls-469{fill:#a1a29c;}.cls-470{fill:#8a8580;}.cls-471{fill:#a92700;}.cls-472{fill:#fe5900;}.cls-473{fill:#ca2700;}.cls-474{fill:#fe771d;}.cls-475{fill:#fe4e00;}.cls-476{fill:#fe6700;}.cls-477{fill:#fe903b;}.cls-478{fill:#feb364;}.cls-479{fill:#767676;}.cls-480{fill:#fe9338;}.cls-481{fill:#fe943b;}.cls-482{fill:#fe8425;}.cls-483{fill:#e07a2b;}.cls-484{fill:#b2b3b4;}.cls-485{fill:#75331c;}.cls-486{fill:#755f42;}.cls-487{fill:#f33100;}.cls-488{fill:#848484;}.cls-489{fill:#7a7a7a;}.cls-490{fill:#a6a6a7;}.cls-491{fill:#bcbcbc;}.cls-492{fill:#bfbfbf;}.cls-493{fill:#8f8f8f;}.cls-494{fill:#f2f2f2;}.cls-495{fill:#73341c;}.cls-496{fill:#cb4c00;}.cls-497{fill:#a66a48;}.cls-498{fill:#e72a00;}.cls-499{fill:#75777a;}.cls-500{fill:#757575;}.cls-501{fill:#747474;}.cls-502{fill:#9b9b9b;}.cls-503{fill:#bebebe;}.cls-504{fill:#616a61;}.cls-505{fill:#828882;}.cls-506{fill:#b8bdb8;}.cls-507{fill:#828b83;}.cls-508{fill:#bec2be;}.cls-509{fill:#a4aba4;}.cls-510{fill:#b11500;}.cls-511{fill:#d34600;}.cls-512{fill:#6a1b00;}.cls-513{fill:#872200;}.cls-514{fill:#b6bab5;}.cls-515{fill:#cbcfcb;}.cls-516{fill:#e00100;}.cls-517{fill:#666;}.cls-518{fill:#f80800;}.cls-519{fill:#e46f0f;}.cls-520{fill:#af1a00;}.cls-521{fill:#9c5338;}.cls-522{fill:#fe7600;}.cls-523{fill:#cd3200;}.cls-524{fill:#983200;}.cls-525{fill:#7d2f0f;}.cls-526{fill:#812200;}.cls-527{fill:#a21100;}.cls-528{fill:#de0300;}.cls-529{fill:#b3684d;}.cls-530{fill:#cec0bb;}.cls-531{fill:#8a827c;}.cls-532{fill:#b4b3ae;}.cls-533{fill:#bf4c2a;}.cls-534{fill:#b8bcb5;}.cls-535{fill:#a38278;}.cls-536{fill:#c0bfbd;}.cls-537{fill:#c49f92;}.cls-538{fill:#a9a29d;}.cls-539{fill:#acb1ac;}.cls-540{fill:#fd2800;}.cls-541{fill:#fe5100;}.cls-542{fill:#dc4b08;}.cls-543{fill:#818181;}.cls-544{fill:#ae7a68;}.cls-545{fill:#715447;}.cls-546{fill:#742f13;}</style></defs><title>apcbc3</title><g id="레이어_2" data-name="레이어 2"><g id="레이어_1-2" data-name="레이어 1"><rect class="cls-1" width="74" height="74" rx="8.33" ry="8.33"/><path class="cls-2" d="M34.41,68.28h-1V66.44h.95A1.13,1.13,0,0,1,34.41,68.28Z"/><path class="cls-3" d="M34.34,6.72a22.35,22.35,0,0,0,2.27-.37c.73-.18,1.65.46,2.55.36a1.82,1.82,0,0,1,.29,2.05,1,1,0,0,1-1.6,0A1.31,1.31,0,0,0,37,8.16c-.88-.23-1.88.25-2.7-.41A.76.76,0,0,1,34.34,6.72Z"/><path class="cls-4" d="M25.14,8.54l.74.05c.57.46.48,1.08.44,1.69a1.68,1.68,0,0,1-.19,1,.58.58,0,0,1-.31.22c-.36-.06-.76-.07-.9-.51C25,10.15,24.69,9.31,25.14,8.54Z"/><path class="cls-5" d="M31.52,9.5V8.82a.84.84,0,0,1-.12-1.17,1.05,1.05,0,0,1,1-.29.89.89,0,0,1,.34.27A1.88,1.88,0,0,1,33,8.69c0,.67.16,1.37-.38,1.93a.89.89,0,0,1-1.1,0A.82.82,0,0,1,31.52,9.5Z"/><path class="cls-6" d="M39.12,8.81c0-.7,0-1.4,0-2.1L40,6.63a.55.55,0,0,1,.3.2,1.49,1.49,0,0,1,.2.92c0,.33,0,.67,0,1a1.11,1.11,0,0,1-.45,1C39.32,9.87,38.78,9.81,39.12,8.81Z"/><path class="cls-7" d="M43,9.5h.91a.81.81,0,0,1,1-.18.76.76,0,0,1,.28.31.9.9,0,0,1-.2,1,1.59,1.59,0,0,1-1.06.28c-.68,0-1.39.18-2-.36a.87.87,0,0,1,0-1.1A.82.82,0,0,1,43,9.5Z"/><path class="cls-8" d="M42.89,6.7V8.57a.73.73,0,0,1-1,.12,1.66,1.66,0,0,1-.23-1.84.73.73,0,0,1,.26-.34A.76.76,0,0,1,42.89,6.7Z"/><path class="cls-9" d="M28.69,9.55l1-.07.91.09a.71.71,0,0,1,.27.88.66.66,0,0,1-.27.3,2,2,0,0,1-1,.18,1,1,0,0,1-1-.36A.75.75,0,0,1,28.69,9.55Z"/><path class="cls-10" d="M32.49,6.68l1-.06.89.1c0,.3.08.59.11.89l-.1.18a1,1,0,0,1-.94.25,1,1,0,0,1-.9-.38.37.37,0,0,0,0-.11A.59.59,0,0,1,32.49,6.68Z"/><path class="cls-11" d="M47.61,7.57c.11-1.37,1.24-.73,1.92-1a.63.63,0,0,1,.29.27.87.87,0,0,1-.13,1,1.05,1.05,0,0,1-.94.25,1.44,1.44,0,0,1-.93-.2A.62.62,0,0,1,47.61,7.57Z"/><path class="cls-12" d="M52.38,5.75c.75-.13,1,.27,1,.94,0,.23,0,.47,0,.7-.27.25-.63.22-1,.31a.66.66,0,0,1-.31-.26A1.29,1.29,0,0,1,52.38,5.75Z"/><path class="cls-13" d="M45.77,8.52c-.06-.7.32-.93.95-.88a.77.77,0,0,1,.18.92.7.7,0,0,1-.88.25A.51.51,0,0,1,45.77,8.52Z"/><path class="cls-14" d="M46.72,8.53V7.64l.89-.07.09.1a.72.72,0,0,1,.16.91.71.71,0,0,1-.89.24A.59.59,0,0,1,46.72,8.53Z"/><path class="cls-15" d="M42,8.54l.9,0L43,9.5H42c-.33-.15-.36-.42-.26-.73A.59.59,0,0,1,42,8.54Z"/><path class="cls-16" d="M30.61,10.44l-.05-.87,1-.07v.95A.56.56,0,0,1,30.61,10.44Z"/><path class="cls-17" d="M44.81,9.48h-1c0-.69.32-1,1-.9A.59.59,0,0,1,44.81,9.48Z"/><path class="cls-18" d="M44.81,9.48l0-.89.93-.07v.11a.67.67,0,0,1,.09,1,.69.69,0,0,1-1,0Z"/><path class="cls-19" d="M49.53,6.61c0-.7.35-.94,1-.85a.7.7,0,0,1,0,1,.72.72,0,0,1-1,0Z"/><path class="cls-20" d="M50.5,6.63l0-.87L51,5.7l.49.08a.72.72,0,0,1,.17.91.69.69,0,0,1-.89.23A.51.51,0,0,1,50.5,6.63Z"/><path class="cls-21" d="M40,6.63c0-.71.34-1,1-.87a.76.76,0,0,1,.22.88.66.66,0,0,1-.27.28.75.75,0,0,1-.89-.19A.61.61,0,0,1,40,6.63Z"/><path class="cls-22" d="M41,6.69l0-.93H42a.66.66,0,0,1,.09.91l-.11,0A.61.61,0,0,1,41,6.69Z"/><path class="cls-23" d="M42.05,6.67,42,5.76c.75-.13,1,.2.93.94Z"/><path class="cls-24" d="M31.57,7.66c0-.09,0-.18-.05-.27l0-.69.94,0,0,.87Z"/><path class="cls-25" d="M48.66,14.17l3.73.11a.75.75,0,0,1,.09,1c-.87.73-1.88.3-2.83.36a1.63,1.63,0,0,1-1.08-.2.87.87,0,0,1-.22-1A.67.67,0,0,1,48.66,14.17Z"/><path class="cls-26" d="M49.59,11.53a3,3,0,0,1-.93,2.64l0,.11a.78.78,0,0,1-1,.14.9.9,0,0,1-.31-.93c.14-.52,1-.59.82-1.32a1,1,0,0,1,.29-.89.86.86,0,0,1,1-.08A.53.53,0,0,1,49.59,11.53Z"/><path class="cls-27" d="M52.41,15.19c0-.3,0-.6,0-.91.61,0,1.23,0,1.84,0s1,.22,1,.92a.77.77,0,0,1-.84.47,6.81,6.81,0,0,1-1,0,1,1,0,0,1-.92-.29Z"/><path class="cls-28" d="M55.22,18l-1.86.09a.81.81,0,0,1-1.06,0,.92.92,0,0,1-.09-1.09,1.06,1.06,0,0,1,1-.4c.37,0,.74,0,1.11,0a1.29,1.29,0,0,1,1,.35A.72.72,0,0,1,55.22,18Z"/><path class="cls-29" d="M55.24,22.81c.63,0,1.26,0,1.89,0s1,.25,1,.89l-.08.19a1.06,1.06,0,0,1-.92.31c-.35,0-.7,0-1,0a1,1,0,0,1-1-.37A.82.82,0,0,1,55.24,22.81Z"/><path class="cls-30" d="M52.39,18l1,.07c-.14,1.35-1.18.8-1.91.9a.68.68,0,1,1,.94-1Z"/><path class="cls-31" d="M54.28,15.24l1-.05.9.05c0,.3,0,.6.08.91l-.1.18a1.19,1.19,0,0,1-1,.27,1.15,1.15,0,0,1-1-.36A.75.75,0,0,1,54.28,15.24Z"/><path class="cls-32" d="M50.5,19.08l0,1.79a.72.72,0,0,1-1,.15,1.66,1.66,0,0,1-.21-1.91.73.73,0,0,1,.94-.33A.52.52,0,0,1,50.5,19.08Z"/><path class="cls-33" d="M56.25,16.15c1.41.11.72,1.19.86,1.88l-1,0a1.16,1.16,0,0,1,0-1.83Z"/><path class="cls-34" d="M56.16,16.18V18h-.94l0-.92a.65.65,0,0,1,0-.91Z"/><path class="cls-35" d="M52.45,21.78c.67.22,1.77-.38,1.86,1a1.54,1.54,0,0,0-.08.19,1,1,0,0,1-.92.29,1.41,1.41,0,0,1-1-.23.82.82,0,0,1-.18-.95A.59.59,0,0,1,52.45,21.78Z"/><path class="cls-36" d="M49.61,20.87h.91l.9.07a.76.76,0,0,1,.25.93.84.84,0,0,1-.31.28,2,2,0,0,1-1.82-.06.77.77,0,0,1-.23-.95A.56.56,0,0,1,49.61,20.87Z"/><path class="cls-37" d="M52.43,7.7c0,.59-.26.93-.89.89a.5.5,0,0,1-.31-.24.73.73,0,0,1,.21-.91.76.76,0,0,1,.94.16Z"/><path class="cls-38" d="M50.49,10.46c.12.71-.27,1-.9,1.07a.65.65,0,0,1,0-.13.69.69,0,0,1,0-1A.71.71,0,0,1,50.49,10.46Z"/><path class="cls-39" d="M51.54,8.59c-.06.59-.19,1.09-1,.95a.51.51,0,0,1-.3-.17.75.75,0,0,1,0-.85.65.65,0,0,1,.3-.22.74.74,0,0,1,.83.27Z"/><path class="cls-40" d="M50.49,10.46l-.88,0-.17-.07a.73.73,0,0,1-.12-.88.75.75,0,0,1,.27-.26.71.71,0,0,1,.86.24l.13,0Z"/><path class="cls-41" d="M51.47,21.8c0-.29,0-.57,0-.86.65-.09,1,.16,1,.84l-.06.1C52.06,22.12,51.75,22.16,51.47,21.8Z"/><path class="cls-42" d="M51.48,18.1l0,.9-1,.08V19a.66.66,0,0,1,0-1A.67.67,0,0,1,51.48,18.1Z"/><path class="cls-43" d="M59,23.76v.88l-.11.17a.71.71,0,0,1-1,0,.7.7,0,0,1,.1-1l0-.1Z"/><path class="cls-44" d="M55.24,22.81l0,.9a.64.64,0,0,1-1,.06.62.62,0,0,1,0-.91l0-.12Z"/><path class="cls-45" d="M68.56,44.85l-.07,2.61a.72.72,0,0,1-1,0c-.68-1.45-.21-3-.35-4.46,0-.45,0-.9,0-1.35,0-1.17-.07-2.34,0-3.51a1.83,1.83,0,0,1,.33-1.2.74.74,0,0,1,1.06.05Z"/><path class="cls-46" d="M68.49,37l-.9,0-.19-.1c-.55-.77-.27-1.65-.32-2.48a18.31,18.31,0,0,1,0-2,2.18,2.18,0,0,1,.17-1,.68.68,0,0,1,.28-.3.75.75,0,0,1,.93.22c0,1.5,0,3,.05,4.49C68.53,36.24,68.51,36.64,68.49,37Z"/><path class="cls-47" d="M28,55v-.92a.72.72,0,0,1,.66-.38,5.33,5.33,0,0,1,1-.08h2.89a2.14,2.14,0,0,0,1.68-.57c.85-.74,1.87-.51,2.86-.26a.94.94,0,0,1,.33.14c.6,1.14,1.65.57,2.53.65.6.05.52-.44.56-.83,0-.89-.18-1.83.45-2.62A2,2,0,0,1,42.82,50c.65.27.55.83.57,1.37s-.18,1.19.51,1.52a4,4,0,0,1,.69,1.25V55a.84.84,0,0,1-.74.42,9.53,9.53,0,0,1-2.87.12c-2.09.2-4.17-.11-6.26,0H29.66a5.66,5.66,0,0,1-1-.08A.68.68,0,0,1,28,55Z"/><path class="cls-48" d="M41.05,63.59c-.06,1.86-.06,1.87-1.9,1.87l-5.74,0c-.18-.2-.43-.38-.41-.67.08-1.38-.35-2.79.29-4.12,1.21-.72,2.5-.49,3.78-.34.59.27.61.85.71,1.38.22,1.22.61,1.49,1.84,1.22.53-.12,1.05-.42,1.5.15A.58.58,0,0,1,41.05,63.59Z"/><path class="cls-49" d="M40.06,40.86l.95,0a1.32,1.32,0,0,1,.54,1,18.56,18.56,0,0,1-.14,4.59.87.87,0,0,1-.74.48,2,2,0,0,0-1.58.92,2.29,2.29,0,0,1-2-.21,8,8,0,0,1-.18-4.75.78.78,0,0,1,.76-.62A2.8,2.8,0,0,0,40.06,40.86Z"/><path class="cls-50" d="M27.76,58.83v-.95a1,1,0,0,1,.88-.43,8.53,8.53,0,0,1,1,0H41c1.56.05,3.13-.1,4.69.08a.94.94,0,0,1,.77.4.86.86,0,0,1-.71,1.18,2.05,2.05,0,0,1-1.12.22c-.59,0-1.18.06-1.77,0a9.53,9.53,0,0,1-1.85,0c-.36,0-.71,0-1.07,0a38.27,38.27,0,0,1-5.46,0c-.63,0-1.27,0-1.9,0h-1c-.32,0-.65,0-1,0h-1c-.33,0-.66,0-1,0A1,1,0,0,1,27.76,58.83Z"/><path class="cls-51" d="M37.28,47.4l1.83,0c.5-.58,1.19-.41,1.83-.45a8.9,8.9,0,0,1,1.86,0h1c.3,0,.59,0,.88,0s.76,0,1.14,0c.95.67.95,1,0,1.66a2,2,0,0,1-1.08.22c-.33,0-.65,0-1,0a16.12,16.12,0,0,1-2.69,0c-.65,0-1.29,0-1.93,0a19.1,19.1,0,0,1-4.14,0,10.73,10.73,0,0,1-1.5,0c-.65,0-1.29,0-1.93,0a11.85,11.85,0,0,1-2.79-.13.68.68,0,0,1-.5-.38v-.9a.63.63,0,0,1,.44-.35,2.62,2.62,0,0,1,1-.13h2.94a9.24,9.24,0,0,1,1,.06C34.85,47,36.13,46.49,37.28,47.4Z"/><path class="cls-52" d="M44.84,34.23l0,.88c-.22.48-.66.49-1.09.49H34.41c-1-.13-2,.3-3-.3a1,1,0,0,1-.09-1.13,1.21,1.21,0,0,1,1-.44l.89,0a21.29,21.29,0,0,1,3.91,0,25.23,25.23,0,0,1,2.75,0c.35-.13.68,0,1,0l1,0h1c.58,0,1.18-.18,1.71.21A.62.62,0,0,1,44.84,34.23Z"/><path class="cls-53" d="M43,47.42l-1.94,0a.69.69,0,0,1,0-1c0-1.89,0-3.77,0-5.66h1.93C43.58,41.77,43.59,46.45,43,47.42Z"/><path class="cls-54" d="M41,58.84h1.93A1.29,1.29,0,0,1,43.4,60c0,.83.07,1.66,0,2.47a4.53,4.53,0,0,0,.49,2.06c0,.52-.15.91-.77.92A1,1,0,0,1,42,64.84c-.21-.48-.32-1.05-.92-1.25,0-.18,0-.35,0-.52A4.47,4.47,0,0,1,41,58.84Z"/><path class="cls-55" d="M46.72,29.44c.68,0,1,.33.94,1s0,1.22,0,1.83a.9.9,0,0,1-1-.5.43.43,0,0,0-.57-.28.58.58,0,0,0-.32.59,9.38,9.38,0,0,0,0,1.06c0,.67-.23,1-.92,1.1l0-.07a1.58,1.58,0,0,1-.53-1.38,39.27,39.27,0,0,1,.07-4.73c.11-.84-.24-1.74.35-2.51a1,1,0,0,1,1.1-.12c.67.45.38,1.15.45,1.75s0,1,0,1.49S46.25,29.37,46.72,29.44Z"/><path class="cls-56" d="M40.06,40.86c0,1.84,0,1.84-1.77,1.85H37.23c-.64.75-1.5.49-2.3.48a2.49,2.49,0,0,1-1.49-.26A.9.9,0,0,1,33.1,42a1.14,1.14,0,0,1,.15-.36c.56-.61,1.57,0,2.08-.79Z"/><path class="cls-57" d="M43.87,64.53c-.79,0-1-.47-.95-1.14,0-1.51,0-3,0-4.54h1.87a.85.85,0,0,1,.29.86,3,3,0,0,0-.2,3.8.37.37,0,0,1-.06.32C44.81,64.45,44.37,64.52,43.87,64.53Z"/><path class="cls-58" d="M43,47.42c0-2.2,0-4.39,0-6.59l1,0c.62.94.62,5.58,0,6.52Z"/><path class="cls-59" d="M33.46,60.8c0,1.55,0,3.09-.05,4.63-.62,0-1.24,0-1.86.06s-1-.25-1-.94A.78.78,0,0,1,31.3,64c.63,0,.74-.44.74-1a6.15,6.15,0,0,1,.13-2.22.63.63,0,0,1,.21-.3.8.8,0,0,1,.89,0A.48.48,0,0,1,33.46,60.8Z"/><path class="cls-60" d="M45.72,57.84H41a.77.77,0,0,1-.2-.94.83.83,0,0,1,.3-.26,5,5,0,0,1,2.45-.23c.39,0,.78,0,.78-.58a1.05,1.05,0,0,1,.44-.75l1,0A2,2,0,0,1,45.72,57.84Z"/><path class="cls-61" d="M45.77,47c-.19.47-.6.45-1,.43-.6-.95-.6-5.6,0-6.56.81-.08,1,.38,1,1.08C45.75,43.61,45.77,45.29,45.77,47Z"/><path class="cls-62" d="M44.76,40.85q0,3.28,0,6.56l-.86,0V40.87Z"/><path class="cls-63" d="M39.11,68.28H36.26a1.14,1.14,0,0,1,0-1.84h3.09C40,67.16,39.71,67.74,39.11,68.28Z"/><path class="cls-64" d="M37.23,39.82l-5.69,0a.74.74,0,0,1-.06-1.05,3.2,3.2,0,0,1,2.22-.43,14.29,14.29,0,0,0,2.17,0,2.42,2.42,0,0,1,1.41.41A.72.72,0,0,1,37.23,39.82Z"/><path class="cls-65" d="M48.58,38.45l.06-5.19a.74.74,0,0,1,1-.08c.69,1.22.19,2.55.34,3.82-.08.67.23,1.41-.31,2a.78.78,0,0,1-1.08-.1Z"/><path class="cls-66" d="M30.59,40.85h.95c.68.47.43,1.19.48,1.82a20.13,20.13,0,0,1-.14,3.64,1.08,1.08,0,0,1-.24.37,1,1,0,0,1-1.07.06.84.84,0,0,1-.28-.34,21.26,21.26,0,0,1-.12-4.58A1.09,1.09,0,0,1,30.59,40.85Z"/><path class="cls-47" d="M44.79,48.42a1.46,1.46,0,0,1,1,.22c0,1.42,0,2.83,0,4.25,0,.67-.18,1.18-1,1.19a1.21,1.21,0,0,1-.41-1c-.06-1.23-.06-2.47,0-3.7A1.18,1.18,0,0,1,44.79,48.42Z"/><path class="cls-67" d="M44.84,63.82l0-.27a3.87,3.87,0,0,1,0-3.76v-.95a1.48,1.48,0,0,1,1,.23c0,1.17,0,2.35,0,3.52C45.77,63.25,45.62,63.77,44.84,63.82Z"/><path class="cls-68" d="M41,35.14l3.81,0c.63,0,1,.27,1,.92l-.1.2c-.53.51-1.19.33-1.81.33H42.83c-.65,0-1.34.16-1.9-.37A.77.77,0,0,1,41,35.14Z"/><path class="cls-69" d="M45.74,39.82l-4.74,0a.75.75,0,0,1-.07-1,1.34,1.34,0,0,1,1-.36,11.4,11.4,0,0,1,1.75,0,2.89,2.89,0,0,1,2.15.37A.73.73,0,0,1,45.74,39.82Z"/><path class="cls-70" d="M36.26,66.44v1.84H34.41V66.44Z"/><path class="cls-71" d="M41.06,39l-.06.87-3.77,0c0-.29,0-.59,0-.88l.1-.19a4.25,4.25,0,0,1,3.49-.12A.71.71,0,0,1,41.06,39Z"/><path class="cls-72" d="M45.74,39.82V38.9a2.15,2.15,0,0,1,0-2.8l.08-.07a.82.82,0,0,1,.9,1c0,.66,0,1.33,0,2S46.37,39.89,45.74,39.82Z"/><path class="cls-73" d="M39.11,68.28l.24-1.84H41C41.05,68.36,41.05,68.36,39.11,68.28Z"/><path class="cls-74" d="M31.58,42.74l0-1.9,1.89,0a.63.63,0,0,1,0,.91h0c-.47.29-.53.93-1,1.22A.77.77,0,0,1,31.58,42.74Z"/><path class="cls-75" d="M45.72,57.84c0-.93,0-1.85,0-2.78.62-.05,1,.19,1,.86a3.89,3.89,0,0,1-.23,2Z"/><path class="cls-76" d="M48.64,48.38v-2.8a.76.76,0,0,1,1.08-.1,3.12,3.12,0,0,1,0,2.94A.73.73,0,0,1,48.64,48.38Z"/><path class="cls-77" d="M31.52,64.5l-.95,0-.9-.06a.73.73,0,0,1-.11-1,1.23,1.23,0,0,1,1-.33,1.28,1.28,0,0,1,1.05.32A.75.75,0,0,1,31.52,64.5Z"/><path class="cls-78" d="M33.45,41.77l0-.91h1.9C35.24,42.27,34.14,41.6,33.45,41.77Z"/><path class="cls-79" d="M48.64,38.91l.88.05c.75.44.55,1.08.35,1.72a.76.76,0,0,1-.27.32.75.75,0,0,1-1-.22Z"/><path class="cls-80" d="M28.72,40.84h.94a1,1,0,0,1,.4.94,1.15,1.15,0,0,1-.23,1,1,1,0,0,1-1.07.14.76.76,0,0,1-.33-.31C28.16,42,28.05,41.36,28.72,40.84Z"/><path class="cls-81" d="M44.78,55.08c-.17.69.64,1.87-.93,1.86a1.11,1.11,0,0,1,0-1.84l.71-.09Z"/><path class="cls-82" d="M28.72,40.84l0,1.88a.6.6,0,0,1-.91,0c0-.64-.23-1.32.21-1.92Z"/><path class="cls-83" d="M29.65,63.57l0,.92h-1a.75.75,0,0,1-.28-.83.68.68,0,0,1,.23-.3.74.74,0,0,1,.89,0C29.58,63.46,29.62,63.51,29.65,63.57Z"/><path class="cls-84" d="M28.63,63.59c0,.3.05.6.08.9l-1,0v-1C28.06,63.34,28.35,63.28,28.63,63.59Z"/><path class="cls-85" d="M48.64,48.38h.93l.15.13a.74.74,0,0,1,0,.93.73.73,0,0,1-.93.06l-.13-.16Z"/><path class="cls-86" d="M44.79,53.12v1l-.2,0c-.59,0-.75-.43-.77-.93l.11-.16A.64.64,0,0,1,44.79,53.12Z"/><path class="cls-87" d="M48.64,40.78l.89.08a.56.56,0,0,1,0,.92c-.5,0-.89-.16-.93-.74C48.61,41,48.62,40.87,48.64,40.78Z"/><path class="cls-88" d="M29.68,41.79l0-.94h.93v.93A.63.63,0,0,1,29.68,41.79Z"/><path class="cls-89" d="M49.54,45.54l-.89,0,0-1,.89,0a.48.48,0,0,1,.27.2A.54.54,0,0,1,49.54,45.54Z"/><path class="cls-90" d="M31.58,39l0,.86h-.95a.69.69,0,0,1,.74-1.16A.57.57,0,0,1,31.58,39Z"/><path class="cls-91" d="M30.65,39l-.06.88h-.93a.73.73,0,0,1-.18-.92.75.75,0,0,1,.9-.25A.63.63,0,0,1,30.65,39Z"/><path class="cls-92" d="M29.69,38.94l0,.9h-.94a.72.72,0,0,1-.31-.8.77.77,0,0,1,.19-.31.81.81,0,0,1,.87-.07A.6.6,0,0,1,29.69,38.94Z"/><path class="cls-93" d="M28.64,38.93l.08.91-.73.07a1.26,1.26,0,0,1-.2-1A.55.55,0,0,1,28.64,38.93Z"/><path class="cls-94" d="M48.61,50.3h-.94a.85.85,0,0,1,.94-.95l0,0a.68.68,0,0,1,.12.86Z"/><path class="cls-65" d="M6,53.12l-.07-8.27V37.5c-.7-2.25-.38-4.56-.46-6.85,0-1.22,0-2.44,0-3.66a1.83,1.83,0,0,1,.33-1.45,1,1,0,0,1,1.16,0c.84.9.32,2,.43,3V51.07A5.18,5.18,0,0,1,7.21,53a.86.86,0,0,1-.27.33A.76.76,0,0,1,6,53.12Z"/><path class="cls-95" d="M28.73,54.06l-.74,0c-.47-1.24-.15-2.53-.22-3.8a.8.8,0,0,1,1-.19.87.87,0,0,1,.28.32,7.71,7.71,0,0,1,.13,2.71A1.12,1.12,0,0,1,28.73,54.06Z"/><path class="cls-96" d="M28.63,63.59l-.87,0c0-1,0-1.91,0-2.86a.77.77,0,0,1,1-.17.82.82,0,0,1,.27.34c.18.92.44,1.85-.28,2.67Z"/><path class="cls-97" d="M28.67,50.31l-.9,0-.06-.94c.08-.37,0-.84.52-1l.5.07C29.32,49.08,29.41,49.71,28.67,50.31Z"/><path class="cls-98" d="M28.68,60.74l-.9,0c0-.63,0-1.25,0-1.88l1,0C29.31,59.5,29.41,60.12,28.68,60.74Z"/><path class="cls-99" d="M28,55l.72.07a1.32,1.32,0,0,1,.12,1.9.74.74,0,0,1-1.06-.06C27.83,56.27,27.55,55.59,28,55Z"/><path class="cls-84" d="M20.89,52.22a1.56,1.56,0,0,1-1.67.92.77.77,0,0,1-.11-1,1.06,1.06,0,0,1,1-.28A.77.77,0,0,1,20.89,52.22Z"/><path class="cls-100" d="M27.78,56.91h.9l.15.11a.63.63,0,0,1-.11.84l-.95,0C27.77,57.56,27.77,57.23,27.78,56.91Z"/><path class="cls-101" d="M25.82,48.38l0,1-.89.07a.53.53,0,0,1-.29-.26.73.73,0,0,1,.22-.91A.72.72,0,0,1,25.82,48.38Z"/><path class="cls-102" d="M19.23,52.27v.87l-.95.07-.17-.12a.78.78,0,0,1,0-1A.75.75,0,0,1,19,52,.53.53,0,0,1,19.23,52.27Z"/><path class="cls-103" d="M22,51.22l-.92.08L21,51.14c-.05-1.08.05-1.17,1.12-.94A.7.7,0,0,1,22,51.22Z"/><path class="cls-104" d="M22,51.22l0-.92s.05-.09.07-.14a.59.59,0,0,1,.73-.08.42.42,0,0,1,.16.27C23.06,51.05,22.71,51.32,22,51.22Z"/><path class="cls-105" d="M20.89,52.22l-.74,0a.76.76,0,0,1-.22-.89A.69.69,0,0,1,20.2,51a.83.83,0,0,1,.92.19v.11A1.31,1.31,0,0,1,20.89,52.22Z"/><path class="cls-106" d="M23.93,50.26l-.9.09,0-.11a.72.72,0,0,1-.25-.85.77.77,0,0,1,.26-.28,1,1,0,0,1,.94,0,.8.8,0,0,1,.26.29A.73.73,0,0,1,23.93,50.26Z"/><path class="cls-107" d="M23.93,50.26,24,49.4a.57.57,0,0,1,.9-.09l.08.1C25,50.09,24.59,50.36,23.93,50.26Z"/><path class="cls-84" d="M18.27,53.21c0,.68-.34.92-1,.86a.71.71,0,0,1,0-1,.73.73,0,0,1,1,0Z"/><path class="cls-108" d="M17.34,53.21l0,.86-.7.06-.25-.08a.73.73,0,0,1-.26-.82.63.63,0,0,1,.21-.3.77.77,0,0,1,.86,0A.43.43,0,0,1,17.34,53.21Z"/><path class="cls-109" d="M57.15,53.21c-.7-.24-1.81.36-2-1l.09-.18a1.12,1.12,0,0,1,.94-.29,1.44,1.44,0,0,1,1,.23.8.8,0,0,1,.23.93A.63.63,0,0,1,57.15,53.21Z"/><path class="cls-110" d="M55.19,52.23c-.61,0-.95-.27-.89-.93l.12-.18a.71.71,0,0,1,1,.08.72.72,0,0,1-.09,1Z"/><path class="cls-111" d="M54.3,51.3l-.93-.09a.68.68,0,0,1,0-1c1.1-.16,1.22,0,.92,1Z"/><path class="cls-112" d="M53.34,50.3l0,.91-.95,0a.74.74,0,0,1-.17-.95.73.73,0,0,1,1-.14Z"/><path class="cls-84" d="M52.37,50.32l.05.91h-1c0-.29,0-.58,0-.87l.09-.17A.55.55,0,0,1,52.37,50.32Z"/><path class="cls-113" d="M59.06,54.06l-.72.07a.79.79,0,0,0-.22-.06.73.73,0,0,1-.24-.9.7.7,0,0,1,.3-.29.81.81,0,0,1,1,.2A.74.74,0,0,1,59.06,54.06Z"/><path class="cls-84" d="M58.07,53.2c0,.29,0,.58,0,.87-.63.06-1-.18-1-.86v-.1C57.48,52.88,57.8,52.83,58.07,53.2Z"/><path class="cls-114" d="M16.38,53.14l0,.91H6.91a.58.58,0,0,1-.06-.87l.07-.08c.52-.66,1.25-.39,1.91-.44,2.18,0,4.37,0,6.56,0A1,1,0,0,1,16.38,53.14Z"/><path class="cls-115" d="M6.85,53.19l.06.87c-.77.14-1.08-.17-.93-.94Z"/><path class="cls-116" d="M67.55,54.06H60A.78.78,0,0,1,59.89,53c.11-.11.24-.25.39-.25a51.71,51.71,0,0,1,7,.07.91.91,0,0,1,.37.24A.74.74,0,0,1,67.55,54.06Z"/><path class="cls-117" d="M67.62,47.46h.87v3.79a.77.77,0,0,1-.93.22.69.69,0,0,1-.27-.29,3.85,3.85,0,0,1-.19-1.78c0-.58-.2-1.2.19-1.74A.63.63,0,0,1,67.62,47.46Z"/><path class="cls-118" d="M67.62,51.22l.87,0v1.87a.57.57,0,0,1-.86.06l-.08-.06C67,52.47,66.85,51.83,67.62,51.22Z"/><path class="cls-119" d="M67.63,53.18l.86-.06c.15.77-.18,1.08-.94.94Z"/><path class="cls-120" d="M60,53.16l0,.89h-.94l0-.86.1-.17A.59.59,0,0,1,60,53.16Z"/><path class="cls-121" d="M16.35,15.15c0-1,.71-.88,1.34-.88l9.07,0a.71.71,0,0,1,.15,1,1.51,1.51,0,0,1-1.27.4c-1,0-2.06,0-3.1,0-1.65.16-3.31-.09-5,0a1.71,1.71,0,0,1-1-.2A.69.69,0,0,1,16.35,15.15Z"/><path class="cls-122" d="M20.17,22.74C20.54,21.42,21.4,20.88,23,21a.73.73,0,0,1,.21.87A4.92,4.92,0,0,0,22.13,23a1.45,1.45,0,0,1-.89.22,1.28,1.28,0,0,1-.89-.19A.55.55,0,0,1,20.17,22.74Z"/><path class="cls-123" d="M23,21.8,23,21l1.84-.06a.8.8,0,0,1,1.06-.07.86.86,0,0,1,.11,1.07,1.2,1.2,0,0,1-1,.42c-.61,0-1.25.18-1.84-.18A.63.63,0,0,1,23,21.8Z"/><path class="cls-124" d="M24.89,20c-.68-.19-1.77.49-1.89-.88a.57.57,0,0,1,.2-.33,1.53,1.53,0,0,1,1-.19.91.91,0,0,1,.94.4A.74.74,0,0,1,24.89,20Z"/><path class="cls-125" d="M24.89,20v-.92A.73.73,0,0,1,26,19c.42.69.63,1.36-.17,1.94h-.93C24.89,20.58,24.89,20.28,24.89,20Z"/><path class="cls-126" d="M22,18.11,21.13,18A.79.79,0,0,1,21,17a1,1,0,0,1,1-.34,2.67,2.67,0,0,1,1.07.26.85.85,0,0,1,0,1.34A.85.85,0,0,1,22,18.11Z"/><path class="cls-127" d="M19.24,18c-.72-.13-1.8.51-1.93-.9.2-.41.57-.45,1-.44a1.27,1.27,0,0,1,1,.31A.75.75,0,0,1,19.24,18Z"/><path class="cls-128" d="M26.84,13.31l-.08-.92a.8.8,0,0,1-.09-1,.76.76,0,0,1,.39-.24c1.24.2,1.49.86.86,2.27A.77.77,0,0,1,26.84,13.31Z"/><path class="cls-129" d="M18.29,17.09l-1,.05c-.6,0-1-.22-1-.91a.57.57,0,0,1,.21-.32,1.53,1.53,0,0,1,1-.19,1,1,0,0,1,.95.36A.82.82,0,0,1,18.29,17.09Z"/><path class="cls-130" d="M26.84,13.31l.89,0a.85.85,0,0,1,.43.91c.06.76-.1,1.33-1,1.21a.57.57,0,0,1-.32-.27l0-.93Z"/><path class="cls-131" d="M26.76,11.43v1c-.68.06-.94-.3-.94-.93l.08-.08A.56.56,0,0,1,26.76,11.43Z"/><path class="cls-132" d="M17.34,23.78l.93-.09.17.14a.77.77,0,0,1-.12,1,.83.83,0,0,1-1.05-.06A.71.71,0,0,1,17.34,23.78Z"/><path class="cls-133" d="M17.34,23.78l0,.91-.1.16a.74.74,0,0,1-.88.06.83.83,0,0,1-.24-.29.77.77,0,0,1,.29-.85Z"/><path class="cls-134" d="M16.39,23.77l0,.86a.56.56,0,0,1-.94,0c0-.3,0-.6,0-.9Z"/><path class="cls-135" d="M18.27,23.69c-.06-.73.33-.94,1-.87a.73.73,0,0,1,.05,1,.78.78,0,0,1-1,0Z"/><path class="cls-136" d="M19.2,23.72c0-.3,0-.6,0-.9l.93-.08v.11a.61.61,0,0,1,0,.91A.63.63,0,0,1,19.2,23.72Z"/><path class="cls-137" d="M16.33,16.23c-.35-.08-.87,0-.86-.54s.54-.43.88-.54l0,.11a.59.59,0,0,1,0,.87Z"/><path class="cls-138" d="M19.24,18l0-.87.07-.17a.71.71,0,0,1,.88-.12.64.64,0,0,1,.26.28.75.75,0,0,1-.23.87Z"/><path class="cls-139" d="M20.19,18l0-.92a.59.59,0,0,1,.93,0l0,.89Z"/><path class="cls-140" d="M22,18.11H23A.56.56,0,0,1,23,19l0,.12C22.4,19,22,18.83,22,18.11Z"/><path class="cls-141" d="M39.12,8.81c.05.58.4.75.92.69l.16.06a2.06,2.06,0,0,0,1,.7.89.89,0,0,1,.19.31,1.88,1.88,0,0,1,.12.91,1.53,1.53,0,0,1-.18.89c-1.07,1-1,1.73.07,3a2.79,2.79,0,0,1,0,2,.92.92,0,0,1-1.57-.23c-.34-.62-.93-1.24-1-1.84-.11-1.52-.9-2.81-1.16-4.25A1.76,1.76,0,0,0,37,9.94a.72.72,0,0,1-.13-.38,2.72,2.72,0,0,1-.08-1,1.08,1.08,0,0,1,.44-.91.88.88,0,0,1,1,.6A.86.86,0,0,0,39.12,8.81Z"/><path class="cls-142" d="M37.24,7.63v1a2.59,2.59,0,0,1-2.88.15.78.78,0,0,1,0-1.08l.11,0Z"/><path class="cls-143" d="M52.38,7.6l-.9.06a.63.63,0,0,1,0-1l0-.92.91,0Z"/><path class="cls-144" d="M28.69,9.55l0,.89c-.45.82-1.2.43-1.85.46a1.12,1.12,0,0,1-1-.45V8.59h.91A1.31,1.31,0,0,0,28,9.09c.33,0,.52.23.74.42Z"/><path class="cls-145" d="M27.77,9.5c-.69.11-1-.19-1-.9h.94A.61.61,0,0,1,27.77,9.5Z"/><path class="cls-146" d="M27.77,9.5l0-.9c.68-.08,1,.2,1,.91Z"/><path class="cls-147" d="M25.89,10.45l.92,0a.68.68,0,0,1,.06.93h-.11l-.86,0C25.89,11.07,25.89,10.76,25.89,10.45Z"/><path class="cls-148" d="M30.61,10.44h1.87a.77.77,0,0,1,1.05-.06.86.86,0,0,1,0,1.09,1.32,1.32,0,0,1-1,.39c-.68,0-1.38.18-2-.31a.71.71,0,0,1,0-1Z"/><path class="cls-149" d="M33.41,10.45h-.93l.05-1.89a.76.76,0,0,1,.89-.23.69.69,0,0,1,.29.27,1.73,1.73,0,0,1,.16,1A.77.77,0,0,1,33.41,10.45Z"/><path class="cls-150" d="M33.42,8.56h-.89c0-.3,0-.61,0-.91h.92A.57.57,0,0,1,33.42,8.56Z"/><path class="cls-151" d="M41,6.69l.91,0c0,.61,0,1.22.05,1.82l0,0A1,1,0,0,1,41,9a1,1,0,0,1-.93-.36l0-.93a12.32,12.32,0,0,1,.94-1Z"/><path class="cls-152" d="M40.11,8.59l.89,0a.7.7,0,0,1,.09,1,.72.72,0,0,1-1-.08l-.05,0C40.06,9.2,40.09,8.89,40.11,8.59Z"/><path class="cls-153" d="M41,6.69c.11.72-.26,1-.94,1l0-.93Z"/><path class="cls-154" d="M44.87,9.57l.9-.07a1.21,1.21,0,0,1,1-.39,1.12,1.12,0,0,1,1.06.27,1.74,1.74,0,0,1,.26,1.09c.06.78-.2,1.3-1.08,1.3a4.67,4.67,0,0,0-2-1,.59.59,0,0,1-.18-.29Z"/><path class="cls-155" d="M41,9.55V8.62l1-.06L42,9.5l0,1-.12.13a.62.62,0,0,1-.81-.15l0,0A.69.69,0,0,1,41,9.55Z"/><path class="cls-156" d="M42,10.49l1.89,0a.78.78,0,0,1,.17,1,1,1,0,0,1-1,.37,2,2,0,0,1-1-.18.74.74,0,0,1-.3-.28.8.8,0,0,1,.24-.94Z"/><path class="cls-157" d="M43.85,11.39c0-.29,0-.59,0-.88l1-.07v.06a.72.72,0,0,1,0,1A.7.7,0,0,1,43.85,11.39Z"/><path class="cls-158" d="M26.87,11.42l-.06-.93,1.92-.05.9.07a.76.76,0,0,1,.19,1c-.75.46-.64,1.21-.66,1.92,0,1.08-.35,1.26-1.38.87,0-.31,0-.62-.05-.94C27.57,12.64,28.29,11.55,26.87,11.42Z"/><path class="cls-159" d="M29.6,11.36l0-.85.93,0c0,.27,0,.54,0,.82l0,.16a.59.59,0,0,1-.76.12A.46.46,0,0,1,29.6,11.36Z"/><path class="cls-160" d="M33.42,8.56V7.67h.91l.09.93-.12.14a.64.64,0,0,1-.83-.11Z"/><path class="cls-161" d="M48.63,7.67l.9-.08a.79.79,0,0,1,1,0,.77.77,0,0,1-.06,1h0a10.54,10.54,0,0,0-.94.95h0a.78.78,0,0,1-1,.12,1.13,1.13,0,0,1-.32-1A1.06,1.06,0,0,1,48.63,7.67Z"/><path class="cls-162" d="M48.63,7.67l-.05.9a.61.61,0,0,1-.93,0l.05-.89Z"/><path class="cls-163" d="M50.51,7.62l-1,0,0-.87.93-.09s0,.08,0,.12A.56.56,0,0,1,50.51,7.62Z"/><path class="cls-164" d="M46.7,9.5h-.93c0-.29,0-.58,0-.87l1-.1v.11A.56.56,0,0,1,46.7,9.5Z"/><path class="cls-165" d="M46.7,9.5V8.64l.94-.08h.93l0,1a.65.65,0,0,1-1,0Z"/><path class="cls-166" d="M50.51,7.62V6.75l.93,0,0,1-.06.91-.9,0Z"/><path class="cls-167" d="M68.49,26.58v1c-.69.61-.35,1.43-.44,2.17,0,.58.11,1.2-.44,1.63h-.07a.79.79,0,0,1-.84.26s-.08,0-.1-.05c-.93-1.2-.93-1.2-1.91-.13a1,1,0,0,1-1-.07c-.57-.49-.57-1.23-.78-1.87-.31-.87.35-1.42.69-2.07a.75.75,0,0,1,.9,0,5.89,5.89,0,0,0,.65.57,2.89,2.89,0,0,1-.65-.61.79.79,0,0,1,.11-.95c.91-.51,1.89-.19,2.84-.22A1.17,1.17,0,0,1,68.49,26.58Z"/><path class="cls-168" d="M59,24.64l8.5.1a.73.73,0,0,1,.2,1,.82.82,0,0,1-.34.27,25.64,25.64,0,0,1-4.38.15H60.14c-.41,0-.85.06-1.18-.3A.76.76,0,0,1,59,24.75Z"/><path class="cls-169" d="M67.6,31.33l0-1.88a.62.62,0,0,1,.9,0c0,.65,0,1.3,0,1.94Z"/><path class="cls-170" d="M68.48,29.41l-.9,0c.15-.71-.5-1.8.9-1.92Z"/><path class="cls-171" d="M68.49,26.58h-.94a.6.6,0,0,1,0-.88.35.35,0,0,1,0-.11.64.64,0,0,1,.92.08Z"/><path class="cls-172" d="M68.5,25.67l-.92-.08c0-.29,0-.57,0-.85C68.27,24.63,68.58,25,68.5,25.67Z"/><path class="cls-173" d="M53.34,17.08l-.91.07a1.6,1.6,0,0,1-1.8.3c-.64-.2-.71-1-1.28-1.26a.78.78,0,0,1,.2-.94l2.86-.06,0,.06a3.72,3.72,0,0,0,1.11.72.85.85,0,0,1,.17.31A.76.76,0,0,1,53.34,17.08Z"/><path class="cls-174" d="M49.55,15.25l0,.89-.09.18a1.06,1.06,0,0,1-.94.27,1.36,1.36,0,0,1-1-.27.89.89,0,0,1-.19-1,.76.76,0,0,1,.27-.32.84.84,0,0,1,1,.16Z"/><path class="cls-175" d="M48.63,15.17l-1,0a.6.6,0,0,1,0-1l.9,0Z"/><path class="cls-176" d="M46.72,11.43c.75.11,1-.28,1-.95a.73.73,0,0,1,1-.06.82.82,0,0,1-.06,1.05l0,.88a1,1,0,0,1-.92.42,1.32,1.32,0,0,1-1-.22.74.74,0,0,1-.1-1Z"/><path class="cls-177" d="M46.72,12.38h1a.71.71,0,0,1,0,.95v.91c0,.32,0,.64,0,1v0a.81.81,0,0,1-1.06.09,2.81,2.81,0,0,1-.08-2.82Z"/><path class="cls-178" d="M48.65,11.47l0-1a.56.56,0,0,1,.87,0l.11,0-.06.91Z"/><path class="cls-179" d="M47.71,13.34c0-.31,0-.63,0-.95l.91,0C48.64,13,48.45,13.41,47.71,13.34Z"/><path class="cls-180" d="M53.36,16.15c-.68.09-1-.19-1-.9h1A.59.59,0,0,1,53.36,16.15Z"/><path class="cls-181" d="M53.36,16.15l0-.9h.94l0,.86-.1.17a.66.66,0,0,1-.87-.09Z"/><path class="cls-182" d="M50.53,17.14h1.9l0,.88-.91.07h-.95L50.38,18A.59.59,0,0,1,50.53,17.14Z"/><path class="cls-183" d="M55.23,16.18l0,.91h-.93a.58.58,0,0,1,0-.86.5.5,0,0,0,0-.12Z"/><path class="cls-184" d="M54.29,16.22c0,.29,0,.57,0,.86h-.93v-.9Z"/><path class="cls-185" d="M54.29,22.86c0,.72.31,1,1,.85l.91.07a.83.83,0,0,1,.3.87c-.22.55-1,.62-1.12,1.22a.9.9,0,0,1-.91.12,1,1,0,0,1-.33-.16A.94.94,0,0,0,53,25.2a2,2,0,0,1-1.71-.43c-.35-.76-.11-1.25.69-1.48a1.45,1.45,0,0,0,1.36-.45Z"/><path class="cls-186" d="M58.07,23.8l0,.87a.67.67,0,1,1-1-.88Z"/><path class="cls-187" d="M57.12,23.79l.05.85-.1.17a.59.59,0,0,1-.86-.14l0-.89Z"/><path class="cls-188" d="M49.56,19.05c0,.61,0,1.21,0,1.82l-.07.07a.81.81,0,0,1-1,.11,1.05,1.05,0,0,1-.34-1,1.66,1.66,0,0,1,.21-1,.74.74,0,0,1,.92-.26A.63.63,0,0,1,49.56,19.05Z"/><path class="cls-189" d="M50.53,18.11l0,.85-.95.09V19a.7.7,0,0,1-.22-.86.66.66,0,0,1,.27-.28.8.8,0,0,1,.89.19Z"/><path class="cls-190" d="M53.34,22.84c.07.72-.29,1-1,.87a.64.64,0,0,1-.22-.74.66.66,0,0,1,.24-.23Z"/><path class="cls-191" d="M51.47,21.8l.92.08v1a.78.78,0,0,1-1,0,.7.7,0,0,1,0-1Z"/><path class="cls-192" d="M48.65,20.89l.89.05,0,.94a1.13,1.13,0,0,1,.4,1,1.09,1.09,0,0,1-.3,1.05,1,1,0,0,1-1.1,0,1.23,1.23,0,0,1-.41-1,8.22,8.22,0,0,1,0-1.11A.82.82,0,0,1,48.65,20.89Z"/><path class="cls-193" d="M49.59,22.84c0-.32,0-.64,0-1h1.87l0,.87a.8.8,0,0,1-.91.44A1.13,1.13,0,0,1,49.59,22.84Z"/><path class="cls-194" d="M49.58,9.54c-.09-.72.25-1,.94-.95l-.07.93Z"/><path class="cls-195" d="M49.5,10.45l-.87,0h-.94l0-1h1.89C49.53,9.83,49.52,10.14,49.5,10.45Z"/><path class="cls-196" d="M57.17,24.64l.94,0,.93.08v.86a.74.74,0,0,1-.83.47,2,2,0,0,1-1-.14.89.89,0,0,1-.3-.28.74.74,0,0,1,.2-.92Z"/><path class="cls-197" d="M67.59,37l-.06,4.77c-.56.47-1,.35-1.27-.29a2,2,0,0,0-1.66-1.28,2.32,2.32,0,0,1-1-3.25.92.92,0,0,1,.94-.25,1.45,1.45,0,0,1,.22.09c.49.25.3,1.22,1,1.12.51-.08.39-.94.93-1.15a.77.77,0,0,1,.85.27Z"/><path class="cls-198" d="M64.73,39.87c1,0,2-.23,2,1.32,0,.49.45.56.85.59,0,.39,0,.78,0,1.17a.9.9,0,0,1-1,.25c-.54-.29-1-.76-1.52-1.06C64.05,41.62,64,40.83,64.73,39.87Z"/><path class="cls-199" d="M66.64,43h.91c0,1.5,0,3,.07,4.51l-.09,0c-.88.4-1.22-.12-1.39-.85a7.37,7.37,0,0,1,0-2C66.18,44,65.93,43.34,66.64,43Z"/><path class="cls-200" d="M54.29,25.66l1,0a1.16,1.16,0,0,1,1.88,0h0c.21.22.47.41.5.75a.69.69,0,0,0,.75.68,1.06,1.06,0,0,1,1,.53,1.44,1.44,0,0,1-.07,1.59c-.33.41-.78.7-1.1,1.11.42-.28.66-.74,1-1a2.66,2.66,0,0,1,2.42-.2,1.22,1.22,0,0,1,.33.14c.44.79.76,1.69,1.82,1.9h.92c.69-.3,1.35-.44,1.91.24h.91l0,.95a1,1,0,0,1-.79.43,5,5,0,0,0-2,.62,1.5,1.5,0,0,1-.89,0,3.45,3.45,0,0,0-2.09-.41c-.88.17-1.75-.16-2.63-.06a1.58,1.58,0,0,0-1.58.71,2.72,2.72,0,0,1-1.77,1,.93.93,0,0,1-.72-.28,1.57,1.57,0,0,1-.28-1c-.4-1.44.59-2.55.91-3.81a2.69,2.69,0,0,0-1.63-3A.73.73,0,0,1,54.29,25.66Z"/><path class="cls-201" d="M66.63,32.28h.93c0,1.58,0,3.16,0,4.75l-.93,0-.17-.08a5.8,5.8,0,0,1-.84-2.81A5.33,5.33,0,0,1,66.63,32.28Z"/><path class="cls-202" d="M24.94,27.57a1.38,1.38,0,0,1-.34.85,2,2,0,0,0,0,3c.75.76,1.61,1.51,1.24,2.78a.75.75,0,0,1-.85.24c-.73-.62-1.42-1.29-2.09-2-.21-.52-.76-.7-1.09-1.09a1.07,1.07,0,0,1,.36-1.44.84.84,0,0,0,.3-.72,4.35,4.35,0,0,1,.29-1.79c.68-.51,1.08-1.77,2.3-.88A.83.83,0,0,1,24.94,27.57Z"/><path class="cls-203" d="M27.78,34.15l0-5.64a.76.76,0,0,1,1.05-.12,1.29,1.29,0,0,1,.31,1.08c0,1.15,0,2.31,0,3.46a1.89,1.89,0,0,1-.33,1.29A.73.73,0,0,1,27.78,34.15Z"/><path class="cls-204" d="M24.93,40.85l0,.89a.76.76,0,0,1-1.07.06c-.75-1.42-.45-2.92-.27-4.39.07-.59.59-.79,1.18-.66a.84.84,0,0,1,.4.27A4.7,4.7,0,0,1,24.93,40.85Z"/><path class="cls-205" d="M27.78,42.69l.91,0,0,0c.7.61.4,1.44.45,2.19a8.58,8.58,0,0,1,0,1.52,1.2,1.2,0,0,1-.41,1l-.5,0c-.55-.26-.47-.77-.48-1.23C27.75,45.05,27.77,43.87,27.78,42.69Z"/><path class="cls-206" d="M24.93,40.85,25,37a.56.56,0,0,1,.86,0c0,1,0,2,0,2.92C25.86,40.58,25.56,40.86,24.93,40.85Z"/><path class="cls-207" d="M25.82,48.38l-.86,0-.21-.11a2.52,2.52,0,0,1,0-2.82.71.71,0,0,1,1,.1Z"/><path class="cls-208" d="M28.66,28.47l-.86,0c0-.32-.05-.64-.07-1a1.19,1.19,0,0,1-.38-1,1.16,1.16,0,0,1,.34-1.06,1,1,0,0,1,1.12,0,1.23,1.23,0,0,1,.35,1.09C29.08,27.23,29.48,28,28.66,28.47Z"/><path class="cls-209" d="M24,41.77l.92,0c0,.93,0,1.87,0,2.81l-.12.18a.75.75,0,0,1-1,0,2.69,2.69,0,0,1-.31-1.84,1.21,1.21,0,0,1,.29-1Z"/><path class="cls-210" d="M27.75,26.6c0,.32,0,.64,0,1H24.94c0-.31,0-.63,0-.95l.12-.2A2.27,2.27,0,0,1,27.75,26.6Z"/><path class="cls-211" d="M25.83,37,25,37l-.1,0c-.58-.48-.47-1.13-.43-1.77a1.22,1.22,0,0,1,.31-1l.18-.09.89,0C25.83,35.14,25.83,36.08,25.83,37Z"/><path class="cls-212" d="M28.64,38.93l-.85,0V37a.74.74,0,0,1,1.06,0,1.4,1.4,0,0,1-.1,1.93Z"/><path class="cls-213" d="M27.78,34.15h.94l.17.12a1.24,1.24,0,0,1,.25,1,1.1,1.1,0,0,1-.37,1,.77.77,0,0,1-1-.11Z"/><path class="cls-214" d="M25.81,45.6l-.92,0-.13-.12a.6.6,0,0,1,.13-.81l0-.1C25.6,44.59,25.94,44.9,25.81,45.6Z"/><path class="cls-215" d="M27.77,36.1l.89-.09a.52.52,0,0,1,.28.2.67.67,0,0,1,0,.67.64.64,0,0,1-.29.19l-.86,0Z"/><path class="cls-216" d="M37.23,53.14c-1.1,0-2.24-.23-3.15.8-.33.37-1,.13-1.6.14a.8.8,0,0,1-.22-.92A1.72,1.72,0,0,0,33,51.43a1.86,1.86,0,0,1,.23-1.2.8.8,0,0,1,.32-.25,4.32,4.32,0,0,1,1.92-.18c.69,0,1.43-.22,2,.39C37.8,51.21,38.13,52.22,37.23,53.14Z"/><path class="cls-217" d="M37.23,53.14V50.31c1.18-1,2.45-.55,3.71-.21l.14.19L41,53.11a3.63,3.63,0,0,1-3.76,0Z"/><path class="cls-218" d="M34.62,55.08H41a1.08,1.08,0,0,1,0,1.83h0c-1.09.9-2.33.42-3.52.38a1.16,1.16,0,0,1-.38-.15,1.3,1.3,0,0,0-1.34-.71c-.5.05-1,.12-1.37-.42A.79.79,0,0,1,34.62,55.08Z"/><path class="cls-219" d="M41,56.92c0-.61,0-1.22,0-1.83h2.88l0,1.84Z"/><path class="cls-220" d="M41,48.43h2.89a.79.79,0,0,1,.24.87,5,5,0,0,1-1.22,1l-1.84,0H41a1.13,1.13,0,0,1-.32-.94A1,1,0,0,1,41,48.43Z"/><path class="cls-221" d="M37.23,53.14l3.76,0c0,.47,0,.91-.62.94-.82,0-1.65,0-2.47,0C37.32,54,37.24,53.61,37.23,53.14Z"/><path class="cls-58" d="M42.91,50.31c0-.62.23-1,.91-1l.2.11a3.93,3.93,0,0,1-.12,3.68l-.08.06c-.64,0-.91-.35-.9-1S42.91,50.94,42.91,50.31Z"/><path class="cls-222" d="M34.62,55.08V56c-.24.52-.71.48-1.18.47a1.21,1.21,0,0,1-1.06-.31.77.77,0,0,1,.1-1.05Z"/><path class="cls-223" d="M28.68,56.91c0-.61,0-1.23,0-1.84h.9a.92.92,0,0,1,.45.84,1.58,1.58,0,0,1-.15,1,.69.69,0,0,1-.29.27.79.79,0,0,1-.92-.25Z"/><path class="cls-224" d="M32.48,55.08V56a.75.75,0,0,1-.83.45,1.81,1.81,0,0,1-1-.15.75.75,0,0,1-.28-.28.77.77,0,0,1,.23-.92Z"/><path class="cls-225" d="M30.6,55.07l0,.92a.59.59,0,0,1-.9,0l-.06-.92Z"/><path class="cls-226" d="M32.53,53.18c0,.3,0,.6-.05.9l-.95,0a.76.76,0,0,1-.28-.82.63.63,0,0,1,.21-.3.79.79,0,0,1,.86,0A.51.51,0,0,1,32.53,53.18Z"/><path class="cls-227" d="M31.54,53.13v.93h-1a.67.67,0,1,1,1-.93Z"/><path class="cls-228" d="M30.64,53.19l-.06.87h-.91a.74.74,0,0,1-.31-.81.72.72,0,0,1,.2-.31.77.77,0,0,1,.87-.05A.51.51,0,0,1,30.64,53.19Z"/><path class="cls-229" d="M29.59,53.17l.08.9h-.94v-1A.55.55,0,0,1,29.59,53.17Z"/><path class="cls-49" d="M41,58.84c0,1.41,0,2.82,0,4.23a9.78,9.78,0,0,1-2.84.59c-.71.07-.92-.19-.92-.82s0-1.4,0-2.11a.56.56,0,0,1,.57-.48,2.6,2.6,0,0,0,2.26-1.37Z"/><path class="cls-230" d="M40.06,58.88c0,1.84,0,1.84-1.77,1.85H37.23l-3.77.07,0-.11c-.49-.58-.38-1,.3-1.36a2.77,2.77,0,0,0,.65-.47Z"/><path class="cls-231" d="M34.87,42.74l2.36,0c0,1.56,0,3.12.05,4.68l-3.84,0c-.26-.31-.34-.67,0-.93a2.8,2.8,0,0,0,.86-2.44A1.51,1.51,0,0,1,34.87,42.74Z"/><path class="cls-231" d="M41,46.48c0,.32,0,.64,0,1l-1.91,0C39.28,46.19,40.28,46.62,41,46.48Z"/><path class="cls-232" d="M37.23,57.84H32.47a.79.79,0,0,1-.08-1.07,1.29,1.29,0,0,1,1.08-.31c.82,0,1.65,0,2.48,0a1.46,1.46,0,0,1,1.28.45V57A.58.58,0,0,1,37.23,57.84Z"/><path class="cls-233" d="M31.5,63.54h-.93c-.64-.53-.41-1.26-.43-1.93a12.93,12.93,0,0,1,0-1.76,1.12,1.12,0,0,1,.42-1h.95c.7.49.42,1.24.48,1.89v1.72C32,62.91,32,63.35,31.5,63.54Z"/><path class="cls-234" d="M37.23,57.84c0-.29,0-.58,0-.87l3.77,0v.92Z"/><path class="cls-235" d="M34.38,58.86c.22.89-1.14,1-1,1.83l-.94,0a1.13,1.13,0,0,1,0-1.86Z"/><path class="cls-236" d="M32.51,57c0,.29,0,.59,0,.88H30.61a.76.76,0,0,1-.25-.9.78.78,0,0,1,.28-.29,1.76,1.76,0,0,1,1-.16A.78.78,0,0,1,32.51,57Z"/><path class="cls-237" d="M28.68,60.74l0-1.88h.94a1.11,1.11,0,0,1,.4,1,1,1,0,0,1-.31,1,.79.79,0,0,1-1-.15Z"/><path class="cls-238" d="M32.49,58.86v1.86h0a.65.65,0,0,1-.93,0l0-1.89Z"/><path class="cls-239" d="M28.71,56.92l.91.06a.56.56,0,0,1,0,.87h-.93Z"/><path class="cls-240" d="M29.65,57.85l0-.87.08-.07a.57.57,0,0,1,.9.05c0,.3,0,.59,0,.89Z"/><path class="cls-241" d="M29.67,59.81v-.94h.93v.92A.65.65,0,0,1,29.67,59.81Z"/><path class="cls-242" d="M41,49.37l0,.93H37.22l-1.9-.05c-.48-.52-1.2-1-.47-1.82h4.27C39.56,49.13,40.6,48.59,41,49.37Z"/><path class="cls-243" d="M31.54,53.13l-.9.06-.08-.08c-.59-.42-.42-1-.44-1.62s.05-.91-.63-.83a.91.91,0,0,1-.78-.37l0,0,.06-1.87h2.8c.52.53,1.71.59,1.27,1.8a.75.75,0,0,1-.21.3c-.59.2-.61.71-.58,1.19a1.44,1.44,0,0,1-.47,1.4Z"/><path class="cls-244" d="M34.87,42.74c0,.47,0,.94,0,1.41,0,1.07.15,2.16-1.16,2.67-.15.06-.18.41-.27.62h-.95a.82.82,0,0,1-.29-.87.85.85,0,0,1,.21-.31C33,46,32.94,45.5,33,45c.07-.75-.28-1.55.29-2.23l.16-.08Z"/><path class="cls-245" d="M34.85,48.44c0,.64.58,1.14.47,1.82l-1.87,0a1.11,1.11,0,0,1,0-1.85Z"/><path class="cls-246" d="M33.43,48.45l0,1.85,0,0a.67.67,0,0,1-1-.06c.22-.89-1.18-.94-.95-1.84Z"/><path class="cls-217" d="M41,49.37c-.72-.12-1.71.31-1.87-.93H41C41,48.74,41,49.05,41,49.37Z"/><path class="cls-247" d="M43.82,49.33c0-.3,0-.61.07-.91h.9c0,.31,0,.63,0,.94a.63.63,0,0,1-.91,0Z"/><path class="cls-248" d="M28.73,47.42v-.93a.73.73,0,0,1,.87-.22.66.66,0,0,1,.28.27.78.78,0,0,1-.22.89Z"/><path class="cls-249" d="M29.67,47.43v-.94a.58.58,0,0,1,.87,0l.11,0a.63.63,0,0,1-.07.9Z"/><path class="cls-250" d="M30.58,47.42c0-.3.05-.6.07-.9l.88,0a.61.61,0,0,1,0,.93Z"/><path class="cls-251" d="M31.53,47.43V46.5h0a.63.63,0,0,1,.95,0c0,.31,0,.61,0,.92Z"/><path class="cls-252" d="M46.72,29.44c-.08.35,0,.9-.56.8-.44-.07-.37-.54-.38-.88,0-.61,0-1.23,0-1.85a.89.89,0,0,1,1-.26.79.79,0,0,1,.35.24.74.74,0,0,1-.14,1A1.19,1.19,0,0,0,46.72,29.44Z"/><path class="cls-253" d="M47,28.46l0-.88c.35-.74,1-.45,1.59-.5.75,0,1.38.11,1.28,1.1a.69.69,0,0,1-.27.34Z"/><path class="cls-254" d="M50.45,29.48c-.67,0-1-.31-.91-1a.54.54,0,0,1,.05-.11.77.77,0,0,1,.95-.1.74.74,0,0,1,.21.92A.57.57,0,0,1,50.45,29.48Z"/><path class="cls-255" d="M48.64,32.31c-.08-.65.19-1,.87-1l.17.12a.68.68,0,1,1-1,.88Z"/><path class="cls-256" d="M49.51,31.31c0-.57.23-1,.92-.94a.5.5,0,0,1,.3.23.73.73,0,0,1-.21.9.71.71,0,0,1-.92-.14Z"/><path class="cls-257" d="M50.43,30.37c0-.3,0-.59,0-.89l.11-.09a.72.72,0,0,1,1,0,.83.83,0,0,1,0,1.06.71.71,0,0,1-1,0Z"/><path class="cls-258" d="M48.64,32.31l.87-.06.16.08a.6.6,0,0,1,0,.8l-.15.1-.92,0Z"/><path class="cls-259" d="M37.24,34.17l-4.06,0a1.15,1.15,0,0,1-.33-1.07c.25-2.14,0-4.28.12-6.42,0-.95,0-1.9,0-2.85a1.9,1.9,0,0,1,.1-.85,2.07,2.07,0,0,0,.85-2c0-.71-.21-1.49.38-2.1a1,1,0,0,1,1-.12c.63.28.59.86.61,1.4.06,1.48,0,3,0,4.57.55,0,1.14-.52,1.61.05a3,3,0,0,1,.23,1.66c-.09,1.65.16,3.3,0,4.95C37.7,32.31,38.11,33.36,37.24,34.17Z"/><path class="cls-260" d="M44.79,28c0,2,0,4.09,0,6.13l-1.85,0c-.52-.32-.5-.83-.5-1.35V25.49a9.75,9.75,0,0,1,0-1.53c.14-.73.49-1.25,1.37-1.07a.78.78,0,0,1,.42.74,10,10,0,0,1,.08,1.82C44.46,26.31,44,27.28,44.79,28Z"/><path class="cls-261" d="M37.24,31.34v-5a.76.76,0,0,1,1.06.07c.51.67,1.3,1.28,1.3,2.16a3.92,3.92,0,0,0,1.81,3.3c0,.79.36,1.62-.41,2.26l-.95,0A2.51,2.51,0,0,1,39,33C38.64,32.19,37.76,32,37.24,31.34Z"/><path class="cls-217" d="M42.92,25.42l0,8.71-1,0c-.6-.38-.49-1-.5-1.56s0-1.32,0-2v-4.1c0-.43,0-.87.32-1.2A.82.82,0,0,1,42.92,25.42Z"/><path class="cls-262" d="M33.43,26.58a49.09,49.09,0,0,1-.25,7.57l-.71,0c-.65-.48-.41-1.18-.44-1.81,0-.46,0-.93,0-1.4V28.48c0-.67-.16-1.38.35-2A.78.78,0,0,1,33.43,26.58Z"/><path class="cls-263" d="M41,35.14l.05.88a.62.62,0,0,1-.23.32,1.62,1.62,0,0,1-1,.19,35.65,35.65,0,0,1-5.17-.12.84.84,0,0,1-.39-.22.74.74,0,0,1,.09-1Z"/><path class="cls-264" d="M37.24,31.34c2-.11,2.28,1.47,2.82,2.8l-2.82,0Z"/><path class="cls-265" d="M34.37,35.17l0,.87c-.73.94-1.75.33-2.62.5a2.45,2.45,0,0,1-1-.14.81.81,0,0,1-.34-.24,1,1,0,0,1-.05-1,.68.68,0,0,1,.3-.28.84.84,0,0,1,.93.21Z"/><path class="cls-266" d="M42,30.62c0,1.18,0,2.36,0,3.53l-1,0V31.82a.89.89,0,0,1-.1-1.26A.75.75,0,0,1,42,30.62Z"/><path class="cls-267" d="M32.46,30.84c0,1.09,0,2.19,0,3.28l-.92.12-.19-.13a4.12,4.12,0,0,1,0-3.35A.79.79,0,0,1,32.46,30.84Z"/><path class="cls-268" d="M31.57,35.09h-.93a.65.65,0,0,1-.12-1,.73.73,0,0,1,1,0,.5.5,0,0,0,0,.12Z"/><path class="cls-269" d="M46.73,27.51H45.8l-.09-1.86a.77.77,0,0,1,0-1,.85.85,0,0,1,1.08,0,1.36,1.36,0,0,1,.38,1.05C47.14,26.28,47.41,27,46.73,27.51Z"/><path class="cls-270" d="M45.77,24.73l-.06.92h-.89a.64.64,0,0,1-.93,0l0-1.9a.76.76,0,0,1,.82-.26c.48.15.43.8.89,1A.51.51,0,0,1,45.77,24.73Z"/><path class="cls-271" d="M43.89,25.63l.93,0,0,2.38C43.29,27.68,44.07,26.47,43.89,25.63Z"/><path class="cls-272" d="M32.47,42.67c0-.65.31-1,1-.91v1a.66.66,0,0,1-.77.2A.49.49,0,0,1,32.47,42.67Z"/><path class="cls-273" d="M44.81,59.79c0,1.25,0,2.51,0,3.76a.64.64,0,0,1-.24,0c-1.35-.63-.45-1.83-.66-2.75C43.76,60.16,44.06,59.71,44.81,59.79Z"/><path class="cls-274" d="M31.57,60.76l.93,0c0,.94,0,1.87,0,2.81,0,.67-.24,1-1,1,0-.32,0-.64,0-1C31.53,62.61,31.55,61.69,31.57,60.76Z"/><path class="cls-275" d="M49.52,41.78v-.92l.07-.12a.78.78,0,0,1,1.07,0,3.19,3.19,0,0,1,0,2.93.74.74,0,0,1-1.07,0Z"/><path class="cls-276" d="M49.59,43.67h.86l.18.11a.72.72,0,0,1-.06,1,.68.68,0,0,1-1-.09l-.12-.06Z"/><path class="cls-277" d="M37.22,38.94l-3.55,0c-.72-1,.36-1.43.68-2.11a1.87,1.87,0,0,1,.42-.13c.9-.07,1.82-.38,2.65.24.35.7.51,1.38-.16,2Z"/><path class="cls-278" d="M34.38,37.06c.11.74-.61,1.17-.71,1.83L31.58,39l-.08-.09a1.43,1.43,0,0,1-.05-2C32.46,36.48,33.46,36.17,34.38,37.06Z"/><path class="cls-279" d="M50.49,40.82l-.89-.08c0-.59-.05-1.18-.08-1.78s0-1.3,0-2a.85.85,0,0,1,1-.21.92.92,0,0,1,.49.89,4.22,4.22,0,0,0,.76,2.19,1,1,0,0,1-.23,1A.82.82,0,0,1,50.49,40.82Z"/><path class="cls-280" d="M50.48,37h-.91c0-1.26,0-2.52,0-3.78h0a.79.79,0,0,1,1.09,0A3.94,3.94,0,0,1,50.48,37Z"/><path class="cls-281" d="M30.54,46.49h-.87l0,0a4,4,0,0,1,0-3.78l.07-.94h.9C30.57,43.35,30.56,44.92,30.54,46.49Z"/><path class="cls-282" d="M32.51,46.52h-.95c0-1.25,0-2.51,0-3.77l.89-.07.05.09a3.9,3.9,0,0,1,0,3.76Z"/><path class="cls-283" d="M43.89,49.36h.91c0,1.26,0,2.51,0,3.76H43.9C43.9,51.87,43.9,50.61,43.89,49.36Z"/><path class="cls-284" d="M45.73,36.1v2.8H43.62a2.23,2.23,0,0,1,.24-2.8Z"/><path class="cls-285" d="M43.86,36.11a13.14,13.14,0,0,1-.24,2.8H42c-.78-1.12-.64-1.83.49-2.43a2.6,2.6,0,0,0,.46-.36Z"/><path class="cls-286" d="M42.91,36.12c0,.23,0,.58-.17.65-1,.48-.75,1.34-.78,2.14l-.9.06L41,38.86A2.07,2.07,0,0,1,41,36.12l0-.1Z"/><path class="cls-287" d="M41,36.12,41,38.86l-3.73,0c0-.61,0-1.21,0-1.82.22-.63.76-.48,1.23-.5s1.2.1,1.64-.44Z"/><path class="cls-288" d="M49.62,44.64l.88,0a5.84,5.84,0,0,1,1.27,1,1,1,0,0,1,0,1c-.42.33-.83.65-.79,1.3a.85.85,0,0,1-.45.77.83.83,0,0,1-.94-.21v0l0-2.85Z"/><path class="cls-281" d="M29.67,59.81l.91,0v3.76l-.92,0h0a2.31,2.31,0,0,1,0-2.83Z"/><path class="cls-289" d="M29.61,42.73l0,3.78-.89,0c0-1.27,0-2.53,0-3.79Z"/><path class="cls-289" d="M29.61,60.74l0,2.83-.91,0c0-.94,0-1.89,0-2.84Z"/><path class="cls-290" d="M49.56,48.41l.92-.06c1.09-.26,1.23-.14,1.15,1a1.38,1.38,0,0,1-1.93.19l-.12-.2Z"/><path class="cls-291" d="M49.6,50.26l-1,0,0-1h.93A.66.66,0,0,1,49.6,50.26Z"/><path class="cls-292" d="M31.58,37.08c0,.6,0,1.21-.08,1.81l-.85.07-.09-.08A1.51,1.51,0,0,1,30.3,37a.82.82,0,0,1,1-.26A.62.62,0,0,1,31.58,37.08Z"/><path class="cls-293" d="M30.63,37.05c0,.61,0,1.22-.07,1.83l-.87.06-.06,0c-.66-.51-.41-1.22-.44-1.88a1.41,1.41,0,0,1,.36-1,.82.82,0,0,1,1.06.08v.07A.66.66,0,0,1,30.63,37.05Z"/><path class="cls-294" d="M29.62,37.05c0,.61,0,1.23,0,1.84l-.88,0c0-.62-.06-1.23-.1-1.84l.09-.06A.58.58,0,0,1,29.62,37.05Z"/><path class="cls-225" d="M6.93,44.62V28.47a.74.74,0,0,1,1-.07,1.38,1.38,0,0,1,.35,1,11.92,11.92,0,0,1,0,2.8,10,10,0,0,1,0,1.89v1a10.5,10.5,0,0,1,0,1.86,10.5,10.5,0,0,1,0,1.86v1a12.31,12.31,0,0,1,0,1.92c0,1,.27,1.95-.37,2.83A.74.74,0,0,1,6.93,44.62Z"/><path class="cls-295" d="M7.84,28.49l-.91,0c0-.94,0-1.87,0-2.81l.12-.2a1.36,1.36,0,0,1,1-.29c2.15,0,4.31,0,6.46,0a1.22,1.22,0,0,1,1.08.35,1,1,0,0,1,.06,1.15c-.87.78-1.93.25-2.88.41H10.1c-.49,0-.91.06-1.1.58-.34.27-.78.38-1,.78Z"/><path class="cls-296" d="M6.93,44.62h.88l.19.09a1.09,1.09,0,0,1,.3.94,7.91,7.91,0,0,1,0,1.82,9.43,9.43,0,0,1,0,1.84c0,.35,0,.69,0,1a1.31,1.31,0,0,1-.36,1,.73.73,0,0,1-1-.09Z"/><path class="cls-297" d="M6.93,51.26l.92,0L8,51.3a1.87,1.87,0,0,0,.92.69,1,1,0,0,1,.18.31.79.79,0,0,1-.32.82H6.92Z"/><path class="cls-298" d="M6,25.67c-.09-.73.22-1,1-.94a.62.62,0,0,1,0,.91l0,0Z"/><path class="cls-299" d="M6.89,25.64l0-.91,8.5-.08.94,0,0,.11a.69.69,0,0,1,.05,1,.75.75,0,0,1-1-.06Z"/><path class="cls-289" d="M28.71,50.29l.89,0a2.16,2.16,0,0,1,.09,2.81l-.1.05-.86-.06C28.72,52.17,28.71,51.23,28.71,50.29Z"/><path class="cls-300" d="M20.18,51.26l0,.92-.92.09a.5.5,0,0,1,0-.12.62.62,0,0,1,0-.91A.64.64,0,0,1,20.18,51.26Z"/><path class="cls-301" d="M24.88,49.31l-.9.09,0-.1c-.27-1-.13-1.18.92-.93l.1.06C24.93,48.72,24.9,49,24.88,49.31Z"/><path class="cls-302" d="M20.18,51.26c-.71-.13-1.06.14-1,.89l-.92.08c-.23.18-.42.41-.75.4a1.27,1.27,0,0,0-1.17.51h0l-1,0a1.33,1.33,0,0,0-1.16-.44.9.9,0,0,1-1-.62c-.13-.85.25-1.21,1.1-1.26A7.09,7.09,0,0,0,18.24,50a1.67,1.67,0,0,1,1.89.14.73.73,0,0,1,0,1.14Z"/><path class="cls-303" d="M17.36,52.23h.93c0,.29,0,.58,0,.87l-.93.11,0-.12A.55.55,0,0,1,17.36,52.23Z"/><path class="cls-304" d="M20.16,51.23c-.23-.85-1.11-1.34-1.56-.76-.82,1.07-1.88.68-2.87.77-.5,0-1,0-1.52,0s-.67.44-.7.9a.7.7,0,0,1-.82.3c-.41-.11-.45-.5-.61-.8-.35-.68-.64-.6-.92,0-.14.32-.21.69-.61.82a1,1,0,0,1-1-.21,2.12,2.12,0,0,1-.23-1.85c.49-.86,1.15-1.67.9-2.77a.93.93,0,0,1,.37-.52,2.33,2.33,0,0,1,1.83-.06c.67.22.62.82.7,1.35s.25,1.14,1,1.09.69-.63.75-1.14,0-1,.5-1.24a2.38,2.38,0,0,1,2.9.53c.47.53,1,.75,1.65,0a2.21,2.21,0,0,1,2-.77c.55.05,1.16,0,1.42.62A1.45,1.45,0,0,1,23,49.35v0c-.35.28-.64.62-1,.92h0c-.66-.06-1,.18-.95.89Z"/><path class="cls-305" d="M22.06,50.29c0-.7.29-1,1-.92l0,.87Z"/><path class="cls-306" d="M23,49.35c0-1.85-.45-2.24-2-1.8-.46.12-.81.33-.84.85s-.2.92-.83.94a1,1,0,0,1-1.14-.75c-.46-1.44-1.72-1.08-2.79-1.12-.08,0-.19,0-.21-.09-.42-1.24-1.49-1.3-2.53-1.4-.15,0-.39-.07-.42,0s.18.16.28.22a.8.8,0,0,1,.34.43.7.7,0,0,1-.31.82H10.69c-.6,0-.81-.61-1.29-.81a3.09,3.09,0,0,1-.41-1,1.88,1.88,0,0,1-.06-1.15c.32-.83.31-2,1.72-1.77.66.54.93,1.65,2.11,1.42,1-.06,1.91-.16,2.33-1.34.22-.62,1.69-.77,2.55-.39a6.52,6.52,0,0,1,.78.51,2.28,2.28,0,0,0,2.23,1.24c.2,0,.46,0,.56.15.72,1.12,1.88.7,2.89.84a1,1,0,0,1,.79.44h0l0,2.79a.79.79,0,0,0-.92.93Z"/><path class="cls-307" d="M17.36,52.23l-.05.86-.94,0C16.34,52.44,16.67,52.14,17.36,52.23Z"/><path class="cls-308" d="M49.6,50.26l0-.92,1.88,0,.14.1a.58.58,0,0,1-.12.79v.12Z"/><path class="cls-309" d="M51.45,49.36c0-.7-.31-1-1-1,.16-.7-.4-1.77,1-1.87a5.44,5.44,0,0,1,3,1.63c.76,1,1.55.78,2.19-.38a1.07,1.07,0,0,1,.65-.63,2.24,2.24,0,0,1,1.76.07,1.9,1.9,0,0,1,.09,2.6,1.92,1.92,0,0,0-.49,1.37c-.1.69-1,.42-1.21.94a.71.71,0,0,1-.29.18l-.93-.09c-.36-.27-.62-.65-1-.89l-.92-.08c0-.67-.3-1-.95-.9h0c-.39-.77-1.46-.22-1.88-1Z"/><path class="cls-310" d="M58.07,53.2l-.92-.09c0-.28,0-.57,0-.85v-.11a.77.77,0,0,1,1,0,.67.67,0,0,1,0,1S58.08,53.17,58.07,53.2Z"/><path class="cls-311" d="M55.21,51.28c.67-.09,1,.19,1,.89h-.92Z"/><path class="cls-312" d="M51.45,49.36c.71.14,1.83-.5,1.88,1h-1l-.9-.07C51.46,50,51.45,49.66,51.45,49.36Z"/><path class="cls-313" d="M58.11,53.09l0-.87a.63.63,0,0,1,.94-.08.61.61,0,0,1,.05.93l0,.13Z"/><path class="cls-314" d="M9.76,52.15h.93a1.21,1.21,0,0,1,1.88,0l.94,0c.67.24,1.83-.52,1.9.93l-6.63,0,0-.94A.68.68,0,0,1,9.76,52.15Z"/><path class="cls-315" d="M59.06,53.07c.07-.75-.34-.94-1-.85l-.93-.07c-.07-.92.58-.9,1.2-.93a1,1,0,0,1,.68-.36,3.29,3.29,0,0,1,3,.75c.86,0,1.72,0,2.57,0a1.09,1.09,0,0,0,.61-.29,1.55,1.55,0,0,1,2.35-.06l.05,0-.07,1.9-7.57,0Z"/><path class="cls-316" d="M59,51.2l-.69,0a1.66,1.66,0,0,1,.41-1.82c.52-.5.23-1.28.29-1.94a2.11,2.11,0,0,1,.31-3.13,3,3,0,0,1,2.34-.08c.7.18.69.76.75,1.31s0,1,.55,1,.88-.41,1.07-.89.07-1.22.81-1.45a1.45,1.45,0,0,1,1.76.35c0,.66,0,1.32.06,2a1,1,0,0,0,.84.85v1.93c-.49.71-.82,1.52-2,1.53-.53,0-.28,1-.88,1.26H61.9a1.3,1.3,0,0,1-.4-.41C60.94,50.59,60.19,50.43,59,51.2Z"/><path class="cls-317" d="M64.7,52.16c0-1-.11-2,1.43-1.94.55,0,.63-1,1.4-.85,0,.62,0,1.25,0,1.88-.79,0-1.62-.18-2.11.75C65.33,52.24,65,52.17,64.7,52.16Z"/><path class="cls-318" d="M21.1,17.14l-.93,0,0,0A1.31,1.31,0,0,0,19,16.61c-.33,0-.53-.22-.75-.4l-.91-.08a.55.55,0,0,1,0-.87h5.19c.71.84.11,1.33-.48,1.83Z"/><path class="cls-319" d="M22.06,17.09a5.51,5.51,0,0,0,.48-1.83h3.07a.76.76,0,0,1,.18,1,.84.84,0,0,1-.71.36c-.3,0-.61.06-.92.07-.51-.15-.71.47-1.17.48Z"/><path class="cls-320" d="M25.61,16.13v-.87l1.19-.08a.09.09,0,0,0,0,.11.7.7,0,0,1,.13,1,.87.87,0,0,1-1,.16A.72.72,0,0,1,25.61,16.13Z"/><path class="cls-321" d="M17.35,15.26v.87h-.94v-.87Z"/><path class="cls-185" d="M19.2,23.72c.66.1,1-.14,1-.87l1,0a1.33,1.33,0,0,0,1.27.45c.86.08,1.77-.23,2.58.29a.93.93,0,0,1,.21,1,.82.82,0,0,1-.27.34,3,3,0,0,1-1.84.26,10.71,10.71,0,0,1-1.7,0c-.68-.18-.8.57-1.26.75a1.05,1.05,0,0,1-.9,0c-.28-.46-.8-.74-1-1.28l0-.87Z"/><path class="cls-191" d="M22.06,22.74c-.15-.78.37-.89,1-.94l0,.1a.72.72,0,0,1,.17.91.7.7,0,0,1-.89.22A.51.51,0,0,1,22.06,22.74Z"/><path class="cls-322" d="M22.09,23.71c-.67.09-1-.16-1-.88l.93-.09v.12A.57.57,0,0,1,22.09,23.71Z"/><path class="cls-323" d="M25.81,20.9l0-1.86.1-.17a.77.77,0,0,1,1,0,1,1,0,0,1,.23.34c.41.9.09,1.82.13,2.73a1.32,1.32,0,0,1-.38,1,.85.85,0,0,1-1.08,0,.81.81,0,0,1,0-1.07Z"/><path class="cls-324" d="M23,22.76l0-.86h1.85a.72.72,0,0,1,0,1.07C24.23,23.35,23.56,23.55,23,22.76Z"/><path class="cls-325" d="M24.9,22.81l0-.92.92-.07c0,.34.05.69.08,1l-.1.13A.61.61,0,0,1,25,23Z"/><path class="cls-326" d="M25.84,19H24.9L24,19a.74.74,0,0,1-.28-.86.7.7,0,0,1,.24-.3,1.53,1.53,0,0,1,.94-.2,1.61,1.61,0,0,1,.94.18.66.66,0,0,1,.27.28.72.72,0,0,1-.25.88Z"/><path class="cls-327" d="M23.94,18.06c0,.3,0,.61,0,.91H23c0-.29,0-.58,0-.87,0,0,0-.07,0-.11A.62.62,0,0,1,23.94,18.06Z"/><path class="cls-328" d="M23.94,18.06,23,18c0-.28,0-.57,0-.85,0-.65.29-1,1-.94A1.08,1.08,0,0,1,24,18Z"/><path class="cls-329" d="M18.26,16.21h.94a.56.56,0,0,1,0,.86l0,.11-.92-.08Z"/><path class="cls-330" d="M26.8,16.14c0-.28,0-.56,0-.85.62,0,1-.32,1-1,1.15,0,.9-.84.91-1.5s-.08-1.38.91-1.41l.07.09a1.09,1.09,0,0,1,.42.91,8.91,8.91,0,0,1,0,1.46A3.45,3.45,0,0,1,30,15.25a5.14,5.14,0,0,0-1.34,1.29C28,16.63,27.27,16.91,26.8,16.14Z"/><path class="cls-331" d="M18.25,24.67c.65,0,1.08.21,1,1-.58.75-1.24.54-1.92.16a.74.74,0,0,1,.05-1.07l0,0Z"/><path class="cls-332" d="M17.34,24.73l0,.94a.71.71,0,0,1,0,1,.79.79,0,0,1-1.06,0,.77.77,0,0,1,.07-1.05l0-.89Z"/><path class="cls-333" d="M19.23,17.06l0-.86c.69-.11,1.07.13,1,.89Z"/><path class="cls-334" d="M37.25,9.77c.2.12.51.2.58.37.35,1,1.17,2,1.16,2.85,0,1.48,1,2.5,1.17,3.82.07.41.45.51.82.55,1,.67.49,1.67.6,2.53-.17.71.09,1.47-.27,2.16-.73.61-1.28.14-1.45-.48a5.11,5.11,0,0,0-1.15-1.87,2.19,2.19,0,0,1-.14-.56c0-.31.15-.6.15-.92a.87.87,0,0,0-.59-.81.57.57,0,0,0-.8.29c-.18.35-.44.57-.86.41s-.43-.53-.49-.88a16.08,16.08,0,0,1-.16-3.18c0-.57,0-1.15,0-1.72a7.23,7.23,0,0,1,.1-1.8C36.24,10.07,36.79,10,37.25,9.77Z"/><path class="cls-335" d="M41.05,20c0-.87,0-1.73-.07-2.59s0-1.43.05-2.15l.13-.15a.74.74,0,0,1,.94,0,1.89,1.89,0,0,1,.33,1.48,1.2,1.2,0,0,0,.75,1.35,1.26,1.26,0,0,1,.21.94A2,2,0,0,0,44.28,21c0,.71.38,1.49-.43,2-1.2.45-.84,1.5-.93,2.38l-.92,0a.73.73,0,0,1-.4-.67A9.62,9.62,0,0,1,41.5,23C41.42,21.94,41.76,20.86,41.05,20Z"/><path class="cls-336" d="M41,15.21c-1.15.06-.93-.79-1-1.46S40,12.33,41,12.39l.2.12A2.35,2.35,0,0,1,41,15.22Z"/><path class="cls-337" d="M34.43,8.59h2.8c0,.31,0,.61,0,.91a1,1,0,0,1-.89.46,3.49,3.49,0,0,1-1.84-.14.79.79,0,0,1-.32-.28.87.87,0,0,1,.18-1Z"/><path class="cls-338" d="M42,10.48v.93a.59.59,0,0,1-.93,0v-.92Z"/><path class="cls-339" d="M36.26,9.53l1,0c0,.09,0,.18,0,.27,0,.6-.42.73-.92.73A.64.64,0,0,1,36.26,9.53Z"/><path class="cls-340" d="M41,9.55v.95c-.69.05-1-.26-.92-1Z"/><path class="cls-341" d="M41.05,11.39l.93,0v0a.71.71,0,0,1,0,1,.73.73,0,0,1-1-.07v0C41,12.05,41,11.72,41.05,11.39Z"/><path class="cls-342" d="M30.58,11.36l1.93.09a.76.76,0,0,1,.09,1,1.33,1.33,0,0,1-1.06.34,1.15,1.15,0,0,1-1.07-.31.81.81,0,0,1,.12-1.07Z"/><path class="cls-343" d="M32.45,12.36c0-.3,0-.61,0-.91l1,0,.18.11a1.31,1.31,0,0,1,.25,1,1,1,0,0,1-.38,1,.92.92,0,0,1-1.08-.09A.81.81,0,0,1,32.45,12.36Z"/><path class="cls-344" d="M33.41,10.45l.05-.89a.63.63,0,0,1,.94,0h0a1.21,1.21,0,0,1,.4,1.05c-.19,1.11-.33,1.19-1.35.83h0Z"/><path class="cls-345" d="M34.4,9.54l-.94,0c0-.32,0-.63,0-.94l.86-.07Z"/><path class="cls-346" d="M44.8,11.39l0-.89c.72.13,1.85-.58,1.89.93h0a1.1,1.1,0,0,1-1,.38A.84.84,0,0,1,44.8,11.39Z"/><path class="cls-347" d="M44.8,11.39l1,0a.81.81,0,0,1,.32.82.73.73,0,0,1-.17.31c-.5.14-.73.55-1,.95-.59.14-.58,1-1.19,1.09a1,1,0,0,1-1-.24,2.62,2.62,0,0,1-.27-1.92,1.08,1.08,0,0,1,.44-1l.91-.08Z"/><path class="cls-348" d="M42.94,11.47l0,.93a.63.63,0,0,1-.83.12l-.12-.14c0-.31,0-.63.05-.94Z"/><path class="cls-349" d="M30.59,11.43l0,.91a.6.6,0,0,1-.95,0v-.92Z"/><path class="cls-350" d="M67.55,25.7v.88l-2.8.05a1.24,1.24,0,0,1-1.74.15.77.77,0,0,1,.05-1.09Z"/><path class="cls-351" d="M63.79,31.1c-1.67.53-1.88.34-1.91-1.67.47-.56.94-.44,1.41,0C64,29.81,63.69,30.52,63.79,31.1Z"/><path class="cls-352" d="M66.62,31.33a3.67,3.67,0,0,1-1.91-.24c.05-1.49.42-1.95,1.37-1.59S66.48,30.71,66.62,31.33Z"/><path class="cls-353" d="M63.29,29.42h-1.4a1.37,1.37,0,0,1-.11-2c.7-.43,1.38-.63,2,.13C63.88,28.24,63.33,28.77,63.29,29.42Z"/><path class="cls-354" d="M63.79,27.56H61.88l-.16-.15a.75.75,0,0,1,.13-1,.9.9,0,0,1,1.21.16l1.69.07,0,.9h0Z"/><path class="cls-355" d="M64.71,27.53a5.56,5.56,0,0,1,.71,0c.4.05.93-.16,1.08.44.07.27-.17.44-.42.46-.49,0-1.06.21-1.3-.46a3.4,3.4,0,0,1-.07-.46Z"/><path class="cls-356" d="M63.06,26.56l-1.19.08c-.84.79-1.87.29-2.81.42A1.25,1.25,0,0,1,58,26.73a.76.76,0,0,1,.15-1.05l.91-.07,4,.08Z"/><path class="cls-357" d="M50.49,18l-.94.06a1.16,1.16,0,0,1,0-1.86l.06-.06c.69,0,1,.37,1,1C50.51,17.43,50.5,17.72,50.49,18Z"/><path class="cls-358" d="M46.72,15.17l1,.06v.89l-.11.2a1.4,1.4,0,0,1-1.9-.06.83.83,0,0,1,0-1.08A.76.76,0,0,1,46.72,15.17Z"/><path class="cls-359" d="M49.52,16.2l0,1.86h0a.79.79,0,0,1-1,.13,1.13,1.13,0,0,1-.33-1,1.14,1.14,0,0,1,.39-1Z"/><path class="cls-360" d="M48.59,16.18v.91a.69.69,0,0,1-1,.11.64.64,0,0,1,0-1v-.12Z"/><path class="cls-361" d="M45.78,12.38c0-.31,0-.63,0-1h1v1l0,0A.61.61,0,0,1,45.78,12.38Z"/><path class="cls-362" d="M45.78,12.38l.92,0,0,2.82-1,.05-.18-.11c-.47-.55-.24-1.2-.25-1.82a1.07,1.07,0,0,1,.44-.92Z"/><path class="cls-363" d="M54.29,25.66v.94l-.12.19a3.38,3.38,0,0,1-2.8,0,1,1,0,0,1-.36-1,1.32,1.32,0,0,1,.27-1l.19-.1h1.86a10.54,10.54,0,0,1,1,.93Z"/><path class="cls-364" d="M50.52,22.83l1-.07.93.09,0,.86c-.69,0-1,.27-.91,1l0,0a.74.74,0,0,1-1.21-.17A1.23,1.23,0,0,1,50.52,22.83Z"/><path class="cls-365" d="M57.14,25.66l-1.88,0c-.1-.74.3-1,1-1l.91.07C57.13,25.05,57.14,25.35,57.14,25.66Z"/><path class="cls-353" d="M54.29,25.65c-.67.05-1-.27-1-.93C54,24.63,54.33,25,54.29,25.65Z"/><path class="cls-366" d="M48.65,20.89l-.07.92a.73.73,0,0,1-.83.31c-.47-.26-.6-.91-1.18-1.05-.19-.53-.71-.76-1.07-1.14a.94.94,0,0,1,0-.92,5.39,5.39,0,0,0,1.2-1.23,1,1,0,0,1,1,.08,1.27,1.27,0,0,1,.4.86A1.4,1.4,0,0,0,48.58,20Z"/><path class="cls-367" d="M47.68,19l0-1,.11-.14a.6.6,0,0,1,.81.1l1,0c0,.29,0,.59,0,.89l-.92.07A.69.69,0,0,1,47.68,19Z"/><path class="cls-368" d="M47.68,19h1c0,.32,0,.64-.05,1C47.93,20,47.61,19.7,47.68,19Z"/><path class="cls-369" d="M50.52,22.83c.13.71-.5,1.79.92,1.86l0,.93a1.11,1.11,0,0,1-1,.43,1.3,1.3,0,0,1-1.09-.32,1.63,1.63,0,0,1,.18-2l.08-.88Z"/><path class="cls-370" d="M49.51,23.72l.06,1.91a.82.82,0,0,1,.16,1,.84.84,0,0,1-1,.26.79.79,0,0,1-.35-.24,1.75,1.75,0,0,1-.24-1c.05-.6-.21-1.25.3-1.78l.19-.09Z"/><path class="cls-371" d="M48.58,22.82l.06.94-.06,0a.72.72,0,0,1-1,.07.82.82,0,0,1,0-1.06A.72.72,0,0,1,48.58,22.82Z"/><path class="cls-372" d="M48.58,22.82l-.88,0c-.34-.17-.36-.45-.26-.77a.42.42,0,0,1,.26-.23h.88Z"/><path class="cls-373" d="M58.14,25.68v.88c-.32.35-.64.29-1,0l0-.93Z"/><path class="cls-374" d="M66.63,44.61h-1.9a.77.77,0,0,1-.53-.82A3,3,0,0,0,63.47,42a2.15,2.15,0,0,0-1.72-2,.84.84,0,0,1-.18-.35.9.9,0,0,1,.3-1,1.39,1.39,0,0,1,1.91.21l1,.95c-.06,1-.11,2,1.34,2,.46,0,.51.62.57,1.05S66.63,44.06,66.63,44.61Z"/><path class="cls-201" d="M63.79,33h.93a1.57,1.57,0,0,1,1,1.18,4.81,4.81,0,0,1-.77,2.76l-.17.08-1,0-.18-.12c-.61-.87-.3-1.84-.29-2.78C63.31,33.69,63.28,33.22,63.79,33Z"/><path class="cls-375" d="M63.78,38.92H61.89l-.2-.13a1.48,1.48,0,0,1,.14-1.95,1.42,1.42,0,0,1,2,.17v0C63.77,37.67,63.78,38.29,63.78,38.92Z"/><path class="cls-376" d="M66.62,37c0,.24,0,.47,0,.7,0,.71-.12,1.23-1,1.2s-.9-.57-.89-1.2V37h0a1.16,1.16,0,0,1,1.9,0Z"/><path class="cls-197" d="M61.89,38.92v1a.75.75,0,0,1-.72.49c-1.13,0-1.6.71-2,1.59a.8.8,0,0,1-.53.19,2.64,2.64,0,0,1-1,.05c-.84.1-.94-.94-1.63-1.07-.78-.76-1.18-.19-1.56.45a1.6,1.6,0,0,1-1.23.59,2.26,2.26,0,0,1-1.91-.29.79.79,0,0,1,.06-1.05l0-1a14.85,14.85,0,0,0,1.88-3.08.71.71,0,0,1,.83.09c.4.29.62.75,1,1-.23-.43-.7-.62-1-1a.69.69,0,0,1-.16-.79c.67-.62,1.76-.84,1.92-2,.5-.38,1-.61,1.3-1.37s1.15-.51,1.81-.26A1.11,1.11,0,0,1,59.38,34a1,1,0,0,1-.66.59c-.46.19-.94.4-.93,1s.5.8,1,1a1.16,1.16,0,0,1,.49.29,1.9,1.9,0,0,0,1.87,1.5c.34,0,.54.28.76.5Z"/><path class="cls-377" d="M56.2,29.46c0,.8.12,1.6-.77,2.19-.42.28-.13,1-.18,1.58a.81.81,0,0,1-1,.19,1.14,1.14,0,0,1-.44-.85.89.89,0,0,0-.6-1,.83.83,0,0,1-.2-.32,1.08,1.08,0,0,1,.11-.94c.59-.23.65-1,1.27-1.2A1.43,1.43,0,0,1,56.2,29.46Z"/><path class="cls-378" d="M56.2,29.46l-1.9,0a2.27,2.27,0,0,1,0-2.84h0c1.93,0,1.93,0,1.9,1.92Z"/><path class="cls-379" d="M61.88,27.55c0,.63,0,1.26,0,1.89H59V27.55l.12-.19a2.32,2.32,0,0,1,2.71.19Z"/><path class="cls-380" d="M59.05,34.18c0-.55,0-1.1,0-1.66.93-.51,1.86,0,2.8,0,.69.4.54,1,.32,1.57a.91.91,0,0,1-.29.33,2.85,2.85,0,0,1-2.73-.06Z"/><path class="cls-381" d="M56,34.15c.55,1.67.33,1.93-1.64,1.92-1.3-.6-1.43-.82-1.17-2a.76.76,0,0,1,.34-.25,1.54,1.54,0,0,1,1.82.32Z"/><path class="cls-382" d="M65.44,34.2c-.76-.08-.7-.66-.72-1.2.29-1.16,1.24-.57,1.91-.72-.16.67.43,1.62-.72,1.92A.33.33,0,0,1,65.44,34.2Z"/><path class="cls-383" d="M61.88,34.18c0-.55,0-1.1,0-1.65.73-.2,1.53-.73,1.93.46,0,.39,0,.79,0,1.18C63.15,34.79,62.52,34.9,61.88,34.18Z"/><path class="cls-384" d="M59,29.43A8.16,8.16,0,0,1,59,30.84c-.13.56-.64.48-1.07.47s-.74-.36-.74-.86,0-.91.6-1,.86,0,1.29,0Z"/><path class="cls-385" d="M55.3,34.18l-1.88,0a.64.64,0,0,1-.12-1,.79.79,0,0,1,1,.07h.91Z"/><path class="cls-386" d="M57.15,26.58l1,0,.92.08a.64.64,0,0,1,0,.91h0C58.34,27.39,57.2,28,57.15,26.58Z"/><path class="cls-197" d="M65.44,34.2h.47A4.24,4.24,0,0,1,66.63,37h-1.9A4.22,4.22,0,0,1,65.44,34.2Z"/><path class="cls-167" d="M23,24.73l1.92,0a1.15,1.15,0,0,1,0,1.89v0c-.38,0-.78,0-1,.42s-.53.5-.93.51c-.56.57-1.54.83-1.44,1.91,0,.69-.11,1.43.44,2a.76.76,0,0,1-.12.95,1.12,1.12,0,0,1-.85.19,1.76,1.76,0,0,1-1.43-1.86c0-.44,0-.87,0-1.3a12.44,12.44,0,0,1,.06-2.86,1.18,1.18,0,0,1,.44-1c0-.63.28-1,1-.89C22.05,25.79,22.05,25.79,23,24.73Z"/><path class="cls-387" d="M21.12,29.46c0-1.92,0-1.92,1.91-1.91,0,.61,0,1.23,0,1.85A1.13,1.13,0,0,1,21.12,29.46Z"/><path class="cls-388" d="M21.12,29.46,23,29.4c0,.39,0,.78-.43,1a.88.88,0,0,0-.48.94.17.17,0,0,1-.26,0C20.67,31.06,21.28,30.12,21.12,29.46Z"/><path class="cls-389" d="M23.06,32.23a2.63,2.63,0,0,1,1.87,1.94l-.07,0a1.47,1.47,0,0,1-1.92.23,1.68,1.68,0,0,1-.22-1.92A.67.67,0,0,1,23.06,32.23Z"/><path class="cls-390" d="M21.82,31.35l.26,0c.63,0,1,.27,1,.92l-.08.09a.72.72,0,0,1-1.15-.06Z"/><path class="cls-391" d="M28.72,34.16l0-4.7a.76.76,0,0,1,1.08-.09,8,8,0,0,1,0,4.86.79.79,0,0,1-1.09-.06Z"/><path class="cls-392" d="M29.6,29.41l-.86.05-.08-1,.09-1.84a.76.76,0,0,1,1.09-.08C30.16,27.54,30.52,28.53,29.6,29.41Z"/><path class="cls-393" d="M24.87,35.15V37c-.71,0-.94.38-.93,1,0,1.24,0,2.48,0,3.72h0a1.13,1.13,0,0,1-.93.43A4.68,4.68,0,0,1,20.25,42a1.56,1.56,0,0,1-.41-.4c-.61-1-.62-1-1.4-.14-.6.32-1,.92-1.86.86s-1.47-.12-1.74-1a1.17,1.17,0,0,0-1.08-.79,3.71,3.71,0,0,1-1.13-.3.74.74,0,0,1-.29-.29,1.06,1.06,0,0,1,0-1,.89.89,0,0,1,.7-.4,2.54,2.54,0,0,0,2.32-1.69A4.47,4.47,0,0,0,18.05,35c.41-.68,1.41-.55,2.05-.2s.69,1.21.31,1.94c-.34.4-.76.71-1.12,1.1.43-.25.66-.73,1.05-1a1.22,1.22,0,0,1,.84-.38,1.66,1.66,0,0,0,1.33-1C23,34.43,23.87,34.34,24.87,35.15Z"/><path class="cls-394" d="M24.92,26.59V24.7h0a.87.87,0,0,1,.84-.31c.52,0,.55.78,1.1.76a1.22,1.22,0,0,1,.79.29.49.49,0,0,1,.11.31v.86Z"/><path class="cls-395" d="M29.62,26.58l-.87.05c0-.33-.05-.65-.07-1a.78.78,0,0,1-.1-1,.83.83,0,0,1,1-.2.8.8,0,0,1,.31.32C30.14,25.42,30.39,26.09,29.62,26.58Z"/><path class="cls-396" d="M28.76,24.73c0,.31-.05.61-.08.92l-.93.09v-.13a.69.69,0,0,1,.73-1.17A.57.57,0,0,1,28.76,24.73Z"/><path class="cls-397" d="M23.94,42.69l0,1.86-.12.18a.75.75,0,0,1-1,0,1.51,1.51,0,0,1-.28-1,1.12,1.12,0,0,1,.32-1.05A.81.81,0,0,1,23.94,42.69Z"/><path class="cls-398" d="M23.94,42.69l-.91,0a.64.64,0,0,1,0-1H24Z"/><path class="cls-399" d="M24.89,45.57l-.9,0a.58.58,0,0,1,0-.88l0-.1.92.1Z"/><path class="cls-376" d="M24.87,35.15c-1-.1-2-.13-1.93,1.36,0,.41-.44.49-.8.5h-2c-.11-.79.46-2-1.12-1.89-.28,0-.61,0-.67.36C18,37.22,16.67,37,15.43,37L15.27,37a1.43,1.43,0,0,1-.33-.47,1,1,0,0,0-.94-.73c-.57,0-.78.41-1,.85a2.83,2.83,0,0,1-.23.54,1,1,0,0,1-.3.2,2.07,2.07,0,0,1-1.51,0c-.74,0-.72-1-1.42-1-.47-.54-1.25-.68-1.68-1.27v-.94c1-.94,1-.94,0-1.88V29.46a1,1,0,0,1,.9-.42c.93-.14,1.49.22,1.41,1.2A2.11,2.11,0,0,0,11,32c.17,1,.47,1.79,1.69,1.73h2.65c1.14,0,1.53-.67,1.66-1.65A2.32,2.32,0,0,0,17.81,30a.79.79,0,0,1,.5-.85,1.52,1.52,0,0,1,1.86.28c.16,1-.47,2.28.95,2.87A8,8,0,0,0,23,34.18l1.82,0C24.86,34.52,24.87,34.83,24.87,35.15Z"/><path class="cls-400" d="M28.71,34.17l1,0a.6.6,0,0,1,.75-.16.44.44,0,0,1,.18.27c0,.28,0,.56,0,.84l0,0a1.16,1.16,0,0,1-1.86,0Z"/><path class="cls-401" d="M28.74,35.15H30.6c0,.3,0,.6,0,.9l-.95.07a.66.66,0,0,1-.93,0,.61.61,0,0,0-.07-.1Z"/><path class="cls-402" d="M28.73,36.11h.93c0,.32,0,.63,0,.94l-.88,0C28.74,36.71,28.73,36.41,28.73,36.11Z"/><path class="cls-226" d="M32.48,50.28l1,.06c0,.59,0,1.18,0,1.77s-.23,1.06-.93,1.07l-.06-.06a2.3,2.3,0,0,1,0-2.82Z"/><path class="cls-403" d="M37.23,56.9H33.42a.64.64,0,0,1,0-.92l1.17,0,1.72,0C37,56,37.26,56.28,37.23,56.9Z"/><path class="cls-404" d="M33.45,56l0,.92-.91.06-1-.06a.61.61,0,0,1,0-.91l.91,0Z"/><path class="cls-405" d="M30.6,57l-.9-.05c0-.31,0-.61,0-.91h.94a.66.66,0,0,1,0,.93Z"/><path class="cls-406" d="M30.62,56.92V56h.95l0,.91Z"/><path class="cls-274" d="M32.49,50.3c0,.94,0,1.88,0,2.82h-.93c0-.66,0-1.33,0-2S31.86,50.22,32.49,50.3Z"/><path class="cls-281" d="M29.69,53.12l-.09-2.81c.1-.37-.13-1,.57-.92s.43.63.43,1c0,.9,0,1.8,0,2.71Z"/><path class="cls-251" d="M32.51,46.52c0-1.26,0-2.51,0-3.77l.93,0c0,.92,0,1.85,0,2.77C33.45,46.16,33.21,46.54,32.51,46.52Z"/><path class="cls-407" d="M46.73,27.51l0-1.86a.85.85,0,0,1,.82-.32.73.73,0,0,1,.31.17,3.26,3.26,0,0,0,.77,1.11v0a.63.63,0,0,1,0,.92l-1.65.07Z"/><path class="cls-408" d="M48.59,27.51l0-.92,1,0a.81.81,0,0,1,1.11,0,1.36,1.36,0,0,1-.2,2l-.9-.09C49.6,27.72,49.2,27.5,48.59,27.51Z"/><path class="cls-409" d="M50.49,28.5V26.62a.69.69,0,0,1,0-1l.89,0,.09.95c.2.26.45.48.46.84a1.07,1.07,0,0,0,.38.66.93.93,0,0,1,.07,1.55.76.76,0,0,1-.94-.18l-.91-.05Z"/><path class="cls-191" d="M49.6,31.36l.85-.05.18.12a.72.72,0,0,1-.06,1,.7.7,0,0,1-1-.09l-.09-.06Z"/><path class="cls-410" d="M50.55,30.4l.87,0a.69.69,0,0,1,.15,1,.67.67,0,0,1-1,0l-.12-.05Z"/><path class="cls-411" d="M51.43,31.3v-.93l0-.93.91,0a.7.7,0,0,1,.47.7,1.11,1.11,0,0,0,.52,1.15h0c.27.36.64.63.9,1,0,.31,0,.62.07.92l-1,0a.81.81,0,0,1-1,.19c-.31-.17-.38-.54-.71-.71C51,32.38,51,31.85,51.43,31.3Z"/><path class="cls-412" d="M49.6,32.31l.89-.06a.6.6,0,0,1,.17.85l-.14.13h-1Z"/><path class="cls-413" d="M36.27,14.24a20.77,20.77,0,0,0,.36,3.49c.66-.3.34-1.68,1.22-1.29a2.17,2.17,0,0,1,1.28,2.21c0,.12,0,.24,0,.36-1.39.19-1.39.19-1.44,1.85a11.76,11.76,0,0,1,.09,2.65c0,.46,0,.95-.56,1.18s-.75.63-1,1.07c-.12.23-.19.6-.54.51s-.31-.43-.32-.71c0-1.48,0-3,0-4.45,0-.71,0-1.41,0-2.12-.65-.48-.42-1.19-.47-1.83s0-1.32,0-2a1.16,1.16,0,0,1,.33-1A.81.81,0,0,1,36.27,14.24Z"/><path class="cls-414" d="M37.22,24.69l0-4.25c.62-.47,1.08-.3,1.42.35a6.15,6.15,0,0,1,.57,1.15c.42,1.44.93,2.86,1.24,4.31a4.23,4.23,0,0,0,1,2.53c0,.66.2,1.34-.43,1.84,0,.4,0,.8,0,1.2a2.18,2.18,0,0,1-1.89-2.31,3.76,3.76,0,0,0-1.88-3.13Z"/><path class="cls-415" d="M34.44,19.06c0,.8-.07,1.62,0,2.42a1.46,1.46,0,0,1-.92,1.57c-.51-.21-.5-.66-.5-1.1a13.44,13.44,0,0,1,.11-2.69,1.22,1.22,0,0,1,.18-.36.82.82,0,0,1,.93-.15A.63.63,0,0,1,34.44,19.06Z"/><path class="cls-416" d="M33.43,26.58l-.88,0-.2-.09c-.54-.55-.26-1.23-.32-1.87a1.16,1.16,0,0,1,.34-1,.8.8,0,0,1,1.05.13Z"/><path class="cls-417" d="M35.3,17.09l0,1.9-.89.07L34.35,19a1.36,1.36,0,0,1-.11-1.91A.74.74,0,0,1,35.3,17.09Z"/><path class="cls-418" d="M33.42,23.74l-.89,0c-.41-.19-.46-.56-.46-1a1.12,1.12,0,0,1,.28-1.06.74.74,0,0,1,1,.08l.08,1.22Z"/><path class="cls-419" d="M43.85,23l0-2.12a.83.83,0,0,1-.12-1,.86.86,0,0,1,1-.26.79.79,0,0,1,.35.24,1.74,1.74,0,0,1,.24,1c0,.59,0,1.17,0,1.75a1.44,1.44,0,0,1-.18.91.54.54,0,0,1-.31.2l-.87,0Z"/><path class="cls-413" d="M41,30.62V28.74a2.8,2.8,0,0,1-.46-1.57,6.68,6.68,0,0,0-.64-2.69,39.2,39.2,0,0,0-1.24-3.9.83.83,0,0,1,.45-1.1,3.86,3.86,0,0,1,1,1.69,1.14,1.14,0,0,0,.93.92.61.61,0,0,1,.38.55c.21.68-.15,1.51.56,2.06,0,.23,0,.46,0,.7,0,1.74,0,3.48,0,5.22Z"/><path class="cls-420" d="M32.46,30.84l-.87,0a.68.68,0,0,1-.39-.52c-.12-.68-.33-1.37.19-2a.79.79,0,0,1,1.07.1Z"/><path class="cls-421" d="M32.46,28.48l-.87,0a.57.57,0,0,1-.37-.44,1.79,1.79,0,0,1,0-1.38.78.78,0,0,1,.27-.3.71.71,0,0,1,.92.2h.12Z"/><path class="cls-422" d="M40.08,36.12c0,.63-.3.91-.92.9s-1.3,0-1.95,0L34.63,37a.59.59,0,0,1,0-.88Z"/><path class="cls-423" d="M34.61,36.11c0,.29,0,.58,0,.88l-.25.07-2.8,0,0-.1a.59.59,0,0,1,0-.88L34.39,36Z"/><path class="cls-424" d="M31.55,36.1l0,.88-.9.07,0-.94Z"/><path class="cls-425" d="M31.51,30.36c0,.18,0,.35.08.52l-.06,3.24-.93.13a.08.08,0,0,1,0-.12,4.33,4.33,0,0,1-.18-3.81A.79.79,0,0,1,31.51,30.36Z"/><path class="cls-426" d="M46.66,24.75l-.89,0,0,0a.85.85,0,0,1-.21-.93.78.78,0,0,1,.28-.29,1,1,0,0,1,1,.07.78.78,0,0,1,.18.94A.57.57,0,0,1,46.66,24.75Z"/><path class="cls-427" d="M47.64,25.61l-.93,0c0-.3,0-.6-.05-.9l.09-.09a.71.71,0,0,1,1,0A.66.66,0,0,1,47.64,25.61Z"/><path class="cls-428" d="M45.73,23.78v.93c-.69.05-.92-.35-.95-1l.07,0A.56.56,0,0,1,45.73,23.78Z"/><path class="cls-429" d="M51.41,40.83l.07.91c.29.61,1,.38,1.43.75a5.94,5.94,0,0,0,.52.49,1.15,1.15,0,0,1,.28,1.4.94.94,0,0,1-1.17.55c-.48-.72-1.44-.67-2-1.27h-.1c0-.95,0-1.89,0-2.84Z"/><path class="cls-430" d="M50.55,43.66c.7.14,1.8-.51,1.84.93a1.07,1.07,0,0,1-1,.95c-.69.06-.92-.34-.92-.95Z"/><path class="cls-431" d="M52.43,33.19l.9.06.09.89-.1.06a3.55,3.55,0,0,1-.34.33c-1.26.95-1.24,1.21.12,2.12a.51.51,0,0,1,.24.38c0,1.89-.34,2.42-1.9,2.84-.71,0-.94-.37-.93-1s0-1.23,0-1.84c0-1.26,0-2.52,0-3.78h0A1.22,1.22,0,0,1,52.43,33.19Z"/><path class="cls-432" d="M51.42,45.54a.84.84,0,0,1,1-.95c.39,0,.81,0,.9-.51a.82.82,0,0,0-.5-.95c-.16-.08-.26-.28-.38-.42a.76.76,0,0,1,.86-.36,1.58,1.58,0,0,1,1.63,1c.25.65,1,.73,1.5,1,.44.54.57,1.24,1,1.8a.88.88,0,0,1-.24,1.23,1.48,1.48,0,0,1-1,1.77A1.7,1.7,0,0,1,54,48.59a2,2,0,0,0-1.87-1.18c-.57,0-.62-.49-.66-.93S51.42,45.85,51.42,45.54Z"/><path class="cls-433" d="M23,41.77c0,.32,0,.64,0,1s0,.6-.05.9a1,1,0,0,1-.79.46c-1,.06-2,.26-2.83-.59a1.55,1.55,0,0,0-1.09-.31,9.61,9.61,0,0,0-1.35-.43c-.8-.14-1.53-.1-1.51,1,0,.61-.39.81-.93.81H12.59c-.58-.62-1-1.47-1.91-1.66a1,1,0,0,0-.94,1,.77.77,0,0,1-.49.71.87.87,0,0,1-1.39,0l-.05,0c0-.95.06-1.89.08-2.84.45-.61,1.28-.77,1.67-1.44a1.12,1.12,0,0,1,1.31.07c.64.67,1,.47,1.37-.25a.54.54,0,0,1,.34-.29c.47,0,.94,0,1.41,0,.84,0,1.43.08,1.48,1.15s.91.79,1.53.65a6.08,6.08,0,0,0,1.26-.61,5.07,5.07,0,0,1,1.92.47A15.07,15.07,0,0,0,23,41.77Z"/><path class="cls-434" d="M12.58,39.87c-.15.67.45,1.69-.8,1.87-.49.07-1,0-1.11-.61s-.51-.54-.92-.56c-.69-.08-1.41-.06-1.87-.72v-.94c.61-.61,1.59-1,1.41-2.11a.71.71,0,0,1,.46-.73c.74-.1.91.5,1.19,1,.66.49.39,1.12.28,1.73-.07.37-.09.73.44.73a1,1,0,0,1,.92.37Z"/><path class="cls-435" d="M7.87,32.29c.75.12,1.94-.46,1.84,1.05-.09,1.29-1.16.68-1.83.83Z"/><path class="cls-436" d="M7.88,39.85c.64.19,1.59-.42,1.87.72.11,1.53-1,1.13-1.86,1.21C7.89,41.14,7.88,40.49,7.88,39.85Z"/><path class="cls-437" d="M9.75,36.07v1a1.14,1.14,0,0,1-1.86,0V35.11C8.59,35.27,9.69,34.66,9.75,36.07Z"/><path class="cls-376" d="M7.88,37l1.86,0c0,1.9,0,1.9-1.86,1.89Z"/><path class="cls-438" d="M8.79,29.44l-.91,0,0-1h0a.7.7,0,0,1,1-.06A.72.72,0,0,1,8.79,29.44Z"/><path class="cls-439" d="M16.37,26.59h.95l.2.13a3.21,3.21,0,0,1,0,2.88,2.06,2.06,0,0,1-1.94.14.78.78,0,0,1-.41-.39,1.76,1.76,0,0,0-1.71-1.29,1.3,1.3,0,0,1-1-.49.76.76,0,0,1,.18-.95l2.83-.07A.69.69,0,0,1,16.37,26.59Z"/><path class="cls-431" d="M12.59,26.63v.91l-.12.19a2.79,2.79,0,0,1-2.83,0,.76.76,0,0,1,.14-1.05Z"/><path class="cls-440" d="M8.78,28.48l-.93,0c-.09-.68.22-1,.89-1l.16.07a.6.6,0,0,1,0,.8Z"/><path class="cls-441" d="M9.77,26.64l0,.9a.58.58,0,0,1-.89,0l-.1-.07C8.76,26.84,9.05,26.49,9.77,26.64Z"/><path class="cls-442" d="M16.37,26.59l-1,0v-.88l1-.05Z"/><path class="cls-443" d="M9.74,46.5c.54.1.74.53.95,1v.47a4.35,4.35,0,0,0-.41.84C9.77,50,9,50.19,7.87,49.35v-1.9A3.6,3.6,0,0,1,9.74,46.5Z"/><path class="cls-316" d="M9.74,46.5c-.06,1.41-1.16.81-1.87,1,0-.63,0-1.26,0-1.89.54-.65,1.08-.35,1.63,0A1.44,1.44,0,0,1,9.74,46.5Z"/><path class="cls-316" d="M7.87,49.35c1.4.45,1.94-.83,2.82-1.42a2.36,2.36,0,0,1-1,2.38,1.12,1.12,0,0,1-1.85,0Z"/><path class="cls-441" d="M7.88,50.28l1.85,0,0,1.84-1,0h0c-.33-.3-.65-.62-1-.94h0Z"/><path class="cls-443" d="M9.51,45.55H7.88c0-.32,0-.64,0-1l1.39,0C9.34,44.93,9.42,45.24,9.51,45.55Z"/><path class="cls-444" d="M7.85,51.24c.66,0,1,.27,1,.94C8.11,52.24,7.8,51.92,7.85,51.24Z"/><path class="cls-316" d="M12.59,45.56h.92c1.91,0,1.91,0,1.92,1.92,0,.47,0,.93,0,1.4,0,.82,0,1.49-1.15,1.43s-1.72-.24-1.7-1.43c0-.47,0-.94,0-1.41v-1C12.33,46.18,12.25,45.87,12.59,45.56Z"/><path class="cls-316" d="M12.57,52.15H10.69a4.1,4.1,0,0,0,0-.7c-.08-.66,0-1.16.84-1.17s1.12.39,1.07,1.16C12.57,51.68,12.58,51.92,12.57,52.15Z"/><path class="cls-445" d="M18.27,43.19a1,1,0,0,1,1.6-.26c.64.81,1.4.72,2.2.73a7.58,7.58,0,0,0,1,.91l.91.08c0,.29,0,.59,0,.88l-1.77,0c-.24,0-.62.06-.68,0-.6-1.18-1.73-.81-2.69-1C18.07,44.4,18.34,43.7,18.27,43.19Z"/><path class="cls-443" d="M10.68,43c1.66-.53,1.9-.32,1.91,1.66C10.71,44.6,10.71,44.6,10.68,43Z"/><path class="cls-304" d="M19.24,47.43c-.63,0-1-.23-1-.88s.2-1,.87-1,1,.24,1,1S19.87,47.46,19.24,47.43Z"/><path class="cls-433" d="M12.59,45.56c0,.31,0,.62,0,.94-.27,0-.55,0-.82,0s-1,.06-.95-.57.56-.81,1.14-.66A4.17,4.17,0,0,1,12.59,45.56Z"/><path class="cls-381" d="M57.14,47.45a1.33,1.33,0,0,0-.39-1.17,1.79,1.79,0,0,1-.55-1.67c-1-1.31-.63-2.27.91-2.58a1.26,1.26,0,0,0,.52-.25h.92c1.21.64,1.08,1.74,1,2.84A4.66,4.66,0,0,0,59,47.46Z"/><path class="cls-309" d="M59,51.2c.16-1.44,1.28-.8,2-.87s.85.52.85,1.12c0,.23,0,.47,0,.7-.23,0-.6,0-.66-.1C60.75,51.07,59.84,51.27,59,51.2Z"/><path class="cls-198" d="M59,41.76c0-2.18-.1-1.88,2.84-1.88h0a9,9,0,0,0,1.9,1.9c1.44.57.8,1.84,1,2.84A2.71,2.71,0,0,1,64,47.06a1.6,1.6,0,0,1-1.64.28c-.52-.16-.42-.68-.43-1.1s0-1.09,0-1.63A4.08,4.08,0,0,0,59,41.76Z"/><path class="cls-437" d="M59,41.76c2.83,0,2.83,0,2.85,2.85H59.52c-.73-.81-.54-1.93-1-2.84Z"/><path class="cls-446" d="M25.85,18.07l-.93,0a1.11,1.11,0,0,1,0-1.85l.68-.07.27.09A1.12,1.12,0,0,1,25.85,18.07Z"/><path class="cls-447" d="M24.93,16.2v1.85l-1,0,0-1.81Z"/><path class="cls-448" d="M25.85,18.07l0-1.85.92-.08,1.87,0a1.23,1.23,0,0,1,1-.37,1.4,1.4,0,0,1,1,.26,1,1,0,0,1,.22.95.82.82,0,0,1-.79.58c-1,0-.08.43-.16.63a1,1,0,0,1-.21,1,1.52,1.52,0,0,1-1.05.33c-.68,0-1.39.19-1.9-.47h0c-.35-.28-.63-.63-1-.92Z"/><path class="cls-449" d="M23,24.73c-.13.64.46,1.58-.66,1.83s-1.3-.16-1.19-1.81Z"/><path class="cls-450" d="M20.16,25.64v.9c-.46.69-1.14.56-1.81.5a1.2,1.2,0,0,1-1-.39l0,0v-.93l1.89,0Z"/><path class="cls-451" d="M23,22.76l1.91,0h0a.59.59,0,0,1,.15.81l-.14.11-2.81,0,0-.85Z"/><path class="cls-452" d="M25.83,24.68h-.92c0-.32,0-.63,0-1h0a.81.81,0,0,1,.91-.22.71.71,0,0,1,.29.28A.67.67,0,0,1,25.83,24.68Z"/><path class="cls-453" d="M26.8,19l1.87.05a1.28,1.28,0,0,1,.38,1.64c-.17.58-1,.62-1.07,1.25a.85.85,0,0,1-.31.21.79.79,0,0,1-.84-.31Z"/><path class="cls-454" d="M26.83,21.84h.92c.4.89.31,1-.67,1.19a.71.71,0,0,1-.32-.27Z"/><path class="cls-455" d="M25.88,22.85l.88-.08.07.07a.72.72,0,0,1,.06,1,.68.68,0,0,1-1-.07l-.09,0a.69.69,0,0,1,0-.95Z"/><path class="cls-456" d="M25.84,18.07c.68-.07,1,.22,1,.92l-1,0Z"/><path class="cls-457" d="M25.84,22.79c0,.32,0,.64,0,.95h-.93v-.91Z"/><path class="cls-458" d="M29.68,12.37l.95,0,.92.05a1.38,1.38,0,0,1,.21,1.88.93.93,0,0,1-1,.34c-.57,0-.77-.51-1.09-.85Z"/><path class="cls-459" d="M29.69,13.77c.38,0,.75.08.91.51a1,1,0,0,1,.41.86,1,1,0,0,1-.26.93l-.18.08-.95,0a.66.66,0,0,1,0-.93Z"/><path class="cls-460" d="M29.62,15.19v.93h-.95C28.64,15.45,29,15.18,29.62,15.19Z"/><path class="cls-266" d="M39.13,19.48a14.62,14.62,0,0,0,1.64,5.17A4.49,4.49,0,0,1,41,26.73c0,.67,0,1.34,0,2a1.89,1.89,0,0,1-1-1.89,2.31,2.31,0,0,0-.38-1.47,3.77,3.77,0,0,1-.58-2.12,3.17,3.17,0,0,0-1.87-2.82c0-.47,0-.93,0-1.4s-.05-.92.48-1.08.68.25.93.55.32.33.48.5Z"/><path class="cls-461" d="M34.42,10.49l0-1h1.87c0,.32.05.64.07,1l-.07,1.85a.8.8,0,0,1-.9.27,1,1,0,0,1-.51-1.09A1.16,1.16,0,0,0,34.42,10.49Z"/><path class="cls-414" d="M41,22.79c0-.24,0-.47,0-.7l0-2.14c1.5.57.74,1.86.9,2.87A.64.64,0,0,1,41,22.79Z"/><path class="cls-462" d="M35.37,12.41l.89-.06c0,.63,0,1.26,0,1.89l-.9,0a.85.85,0,0,1-.42-.94C35,13,35,12.6,35.37,12.41Z"/><path class="cls-463" d="M41,12.37H42c.6.44.48,1.08.46,1.68a1.63,1.63,0,0,1-.18,1,.57.57,0,0,1-.3.23l-.92,0Z"/><path class="cls-464" d="M42.9,18.09a.83.83,0,0,1-.92-.95c0-.63,0-1.25,0-1.88l0-.07a.81.81,0,0,1,1-.19.77.77,0,0,1,.28.31,4.26,4.26,0,0,1,.15,1.88A.85.85,0,0,1,42.9,18.09Z"/><path class="cls-465" d="M43.89,20l-.06,1c-1.38-.13-.77-1.2-.9-1.92a.72.72,0,0,1,1-.05A.73.73,0,0,1,43.89,20Z"/><path class="cls-466" d="M43.82,19l-.89,0,0-.91c0-.34,0-.67.05-1a.78.78,0,0,1,1-.13,1,1,0,0,1,.38.91,1.64,1.64,0,0,1-.16.95A.64.64,0,0,1,43.82,19Z"/><path class="cls-266" d="M41,22.79l.92,0c0,.62,0,1.25,0,1.88C40.66,24.54,41.13,23.53,41,22.79Z"/><path class="cls-467" d="M31.5,14.25c0-.61,0-1.23.05-1.85l.9,0c0,.33,0,.66.07,1a.75.75,0,0,1,.15.93.73.73,0,0,1-.89.26A.59.59,0,0,1,31.5,14.25Z"/><path class="cls-468" d="M32.51,21.87l-.06.91c-.68.62-.36,1.44-.44,2.18,0,.59.1,1.21-.45,1.65l0,0a.8.8,0,0,1-.9.26.89.89,0,0,1-.48-1,1.33,1.33,0,0,0-.44-1.16l-.09,0a1.18,1.18,0,0,1-.38-.9,1.74,1.74,0,0,1,.12-.93c.19-.45.95-.54.79-1.22a1.66,1.66,0,0,1,.23-.82c.84-.41.72-1.19.73-1.92a1.55,1.55,0,0,1,.16-.82c.19-.42.92-.46.77-1.11,0-.28,0-.56,0-.84a1.78,1.78,0,0,1,.12-.85.83.83,0,0,1,.16-.29A.86.86,0,0,0,33,14c0-.32.24-.51.42-.73l.07-.89c.92-.57,1.26-.12,1.35.77,0,.65,0,1.3,0,1.94a2.79,2.79,0,0,1-.09,1c-.27.43-1.05.54-.85,1.28,0,.58.09,1.19-.45,1.63l0,0A1.48,1.48,0,0,0,33,20.43,1.53,1.53,0,0,1,32.51,21.87Z"/><path class="cls-469" d="M34.43,13.34c0-.59-.22-1-.94-.93l-.05-1c.77.16,1-.25,1-.92,1.5.06.69,1.25.95,1.92l-.06.9A.59.59,0,0,1,34.43,13.34Z"/><path class="cls-470" d="M33.42,13.3v.94a.59.59,0,0,1-.74.25.49.49,0,0,1-.23-.24l.08-.91Z"/><path class="cls-471" d="M42,14.24,42,12.38l.92,0L43,14.25l-.11.15A.62.62,0,0,1,42,14.24Z"/><path class="cls-472" d="M43.83,14.25c0-.63.29-1,.94-.93l.19.08a1.55,1.55,0,0,1,.18,1.7.78.78,0,0,1-.24.33,1,1,0,0,1-1,.05.81.81,0,0,1-.29-.29A.85.85,0,0,1,43.83,14.25Z"/><path class="cls-473" d="M43.83,14.25v1a.65.65,0,0,1-.93,0h0a.69.69,0,0,1,0-1l.1,0Z"/><path class="cls-474" d="M45.77,12.37l0,.93a.58.58,0,0,1-.88,0l-.1,0C44.78,12.67,45,12.25,45.77,12.37Z"/><path class="cls-376" d="M59.05,27.55v-.91h2.82c0,.3,0,.61,0,.91Z"/><path class="cls-475" d="M47.66,18.07l-.91,0a.91.91,0,0,1-1,.15,1.51,1.51,0,0,1-.23-1.85.72.72,0,0,1,.33-.29l1.86.14v.89a.62.62,0,0,1,0,.91Z"/><path class="cls-476" d="M45.76,15.22l0,.88,0,.1c-1.06.26-1.19.14-1-.94l.09-.06a.65.65,0,0,1,.93,0Z"/><path class="cls-477" d="M47.65,18c0-.31,0-.61,0-.91l.91,0c0,.32,0,.63,0,.94Z"/><path class="cls-478" d="M45.77,15.21h-.93l0-1.86.88,0Z"/><path class="cls-479" d="M51.49,27.51c0-.32,0-.63,0-.94l2.8,0v2.84c.05.69-.28,1-.94.95l-.16-.07A.6.6,0,0,1,53,30,10,10,0,0,0,51.49,27.51Z"/><path class="cls-480" d="M45.82,19.93c.67,0,.94.31.94.93,0,.06,0,.12-.08.17a.73.73,0,0,1-.85.17.77.77,0,0,1-.29-.22.79.79,0,0,1,0-.86A.48.48,0,0,1,45.82,19.93Z"/><path class="cls-481" d="M46.76,20.86c.62,0,1,.28.94.94a.39.39,0,0,1-.06.11.78.78,0,0,1-.89.19.59.59,0,0,1-.27-.27.74.74,0,0,1,.2-.89Z"/><path class="cls-482" d="M45.78,18.08h1c0,.68-.28,1-1,1l-.16-.11A.6.6,0,0,1,45.78,18.08Z"/><path class="cls-483" d="M45.8,19.05l0,.88-.1.05a.59.59,0,0,1-.88,0l0,0a.82.82,0,0,1-.25-.89.83.83,0,0,1,.26-.3.73.73,0,0,1,.9.17Z"/><path class="cls-484" d="M50.52,25.66l0,1-.92-.06c0-.31,0-.62,0-.93Z"/><path class="cls-485" d="M47.64,25.61l0-.92a.6.6,0,0,1,.08-.92l.88,0v1.88a.57.57,0,0,1-.87,0Z"/><path class="cls-486" d="M47.7,25.66l.87,0,0,1C47.9,26.69,47.58,26.39,47.7,25.66Z"/><path class="cls-487" d="M47.7,23.77l-.08.92-.87,0c0-.3,0-.6,0-.9-.59-.63-.71-1.26,0-1.89l.93,0,.06.89Z"/><path class="cls-197" d="M63.78,41.77c-1.9,0-1.9,0-1.9-1.9C63.78,39.86,63.78,39.86,63.78,41.77Z"/><path class="cls-200" d="M61.88,34.18h1.9V37h-1.9l-.19-.13a2.19,2.19,0,0,1,.2-2.72Z"/><path class="cls-488" d="M61.87,38.92H61c-1.88,0-1.88,0-1.91-1.9l.12-.19a2.2,2.2,0,0,1,2.73.19h0Z"/><path class="cls-437" d="M57.63,41.78c-.1.17-.16.43-.29.48-1.22.39-1.2,1.36-1.14,2.35-1,0-2,.16-2-1.31,0-.35-.55-.37-.81-.59a.64.64,0,0,1,0-.93l.95-.49c.69.06,1.26-.38,1.92-.48S57.08,41.57,57.63,41.78Z"/><path class="cls-353" d="M53.34,37c-.78-.12-1.89.42-1.9-1.13s0-1.73,1.88-1.7c-.15.87,1.21,1,1,1.87,0,.32,0,.64,0,1h-1Z"/><path class="cls-489" d="M59,37c-1.87,0-1.92-.06-1.9-1.48s0-1.35,1.91-1.36h0A2.12,2.12,0,0,1,59,37Z"/><path class="cls-376" d="M54.3,37h.82c.72,0,1.11.24,1.07,1a.79.79,0,0,1-.87.87c-.78,0-1-.36-1-1.08,0-.27,0-.55,0-.82Z"/><path class="cls-436" d="M56.21,40.81c-.32,1.14-.92,1.29-1.92.48.07-.58-.19-1.33.78-1.41C55.76,39.83,56.23,40,56.21,40.81Z"/><path class="cls-490" d="M53.34,41.78c0,.31,0,.62,0,.93h-1c-.68,0-1-.27-.93-1Z"/><path class="cls-491" d="M54.27,32.3c-.69,0-1-.33-.9-1C54.09,31.26,54.37,31.61,54.27,32.3Z"/><path class="cls-492" d="M53.37,31.32c-.7.06-1-.28-.94-1a.65.65,0,0,1,.92,0h0Z"/><path class="cls-493" d="M59,37c0-1,0-1.9,0-2.85h2.85V37Z"/><path class="cls-378" d="M18.3,26.63l1.86-.09c0,1,0,1.92,0,2.88h-1.9A2.15,2.15,0,0,1,18.3,26.63Z"/><path class="cls-493" d="M23,34.18c-1.94,0-1.94,0-1.92-1.89l.71,0,1.15.06Z"/><path class="cls-494" d="M29.69,24.7c1.42.09.71,1.22.92,1.9.5.37.47.91.46,1.44-.09.8.27,1.68-.43,2.37l-.05,3.72h-.92c0-1.57-.05-3.15-.07-4.73,0-.94,0-1.89,0-2.83Z"/><path class="cls-201" d="M15.43,37c0,2.2,0,1.9-2.84,1.89l-.19-.11A1.19,1.19,0,0,1,12.58,37h0a2.13,2.13,0,0,1,2.85,0Z"/><path class="cls-436" d="M20.18,41.52c-.74.26-1.52.67-1.92-.47,0-.71.14-1.22,1-1.17C20.49,40,20.06,40.88,20.18,41.52Z"/><path class="cls-376" d="M20.16,37c0,.27,0,.55,0,.82,0,.72-.24,1.12-1,1.08a.8.8,0,0,1-.88-.87c0-.78.36-1.06,1.08-1h.81Z"/><path class="cls-433" d="M12.58,39.87a12.47,12.47,0,0,1-1.62,0c-.62-.09-.85-.4-.28-.9.64-.33,1.27-.6,1.9,0h0C12.59,39.23,12.58,39.55,12.58,39.87Z"/><path class="cls-495" d="M25.91,23.76h.85c.4.18.44.53.42.9a1.06,1.06,0,0,1-.37,1c-.73.09-1-.32-1-.95C25.86,24.37,25.88,24.07,25.91,23.76Z"/><path class="cls-496" d="M26.81,25.63l0-.94a.6.6,0,0,1,.92,0v.91Z"/><path class="cls-497" d="M29.61,23.74v1h-.84l-.11-.08a.72.72,0,0,1,0-1A.71.71,0,0,1,29.61,23.74Z"/><path class="cls-498" d="M28.72,23.77c0,.29,0,.59-.07.88l-.89.05h-.92c0-.31-.06-.61-.08-.92s0-.62.07-.93c.66,0,1-.3.92-1h0a.84.84,0,0,1,1.05-.14,1,1,0,0,1,.32,1A1.23,1.23,0,0,1,28.72,23.77Z"/><path class="cls-499" d="M23,44.57c-.68.08-1-.19-1-.91l.91,0Z"/><path class="cls-500" d="M18.3,26.63l0,2.8a3.18,3.18,0,0,1-.95,2.87,8.73,8.73,0,0,0-1.91,1.88l-.93,0c-.77-.57-.29-1.23-.12-1.86a3.11,3.11,0,0,1,.87-1.22c1-.12,1.52-.95,2.09-1.66,0-.92,0-1.85,0-2.77Z"/><path class="cls-501" d="M8.79,29.44v-1l0,0c1.08-.81,1.78-.67,2.35.47,0,1.46.15,1.6,1.61,2.08.42.4,1,.7,1.12,1.34a1.47,1.47,0,0,1-.35,1.77l-.93,0a8.73,8.73,0,0,0-1.91-1.88,3.15,3.15,0,0,1-1-2.19C9.74,29.54,9.26,29.44,8.79,29.44Z"/><path class="cls-374" d="M15.43,37H12.58c.07-.86-.33-2,1.25-1.92S15.4,35.14,15.43,37Z"/><path class="cls-502" d="M12.58,38.92a2.41,2.41,0,0,1-1.9,0c.09-.63.17-1.25.26-1.88h1.64Z"/><path class="cls-435" d="M19.34,32.3c.67,0,.82.4.82,1s-.37.88-1,.88-.92-.43-.9-1.07S18.74,32.26,19.34,32.3Z"/><path class="cls-383" d="M15.41,34.18c0-1.91,0-1.91,1.91-1.88C17.32,34.18,17.32,34.18,15.41,34.18Z"/><path class="cls-383" d="M10.69,32.3c1.87,0,1.87,0,1.91,1.88C10.69,34.18,10.69,34.18,10.69,32.3Z"/><path class="cls-380" d="M13.53,34.16V32.28a.74.74,0,0,1,1.19,0l-.24,1.88Z"/><path class="cls-377" d="M53.35,30.38l-.92,0c0-.3,0-.59,0-.89s0-.79-.44-1-.48-.57-.45-1c1.85.07,1.85.07,1.86,1.93Z"/><path class="cls-503" d="M52.43,33.19l-1.92.05,0-1,.08-.89.86-.06C51.21,32.22,52.6,32.3,52.43,33.19Z"/><path class="cls-504" d="M34.34,16.14l.07-.91a.6.6,0,0,1,.89,0v1.89l-.85,0-.17-.1A.67.67,0,0,1,34.34,16.14Z"/><path class="cls-505" d="M35.3,15.2l-.89,0,0-1.89.88,0,.06,1Z"/><path class="cls-506" d="M32.51,21.87c0-.66,0-1.31,0-2s.28-.93.91-.91l0,2.83Z"/><path class="cls-507" d="M33.47,19l0-1.88a.55.55,0,0,1,.86,0h.1L34.36,19Z"/><path class="cls-508" d="M31.58,24.72c.13-.72-.55-1.8.87-1.94,0,.33,0,.66.08,1l-.07.91A.58.58,0,0,1,31.58,24.72Z"/><path class="cls-509" d="M31.58,24.72l.88,0,0,1.91-.87,0Z"/><path class="cls-510" d="M44.87,22.78l0-1.88a.62.62,0,0,1,.91,0h0a1.14,1.14,0,0,1,.41,1,1.07,1.07,0,0,1-.29,1A.75.75,0,0,1,44.87,22.78Z"/><path class="cls-511" d="M45.76,20.91h-.91v-1l.88,0C45.73,20.29,45.74,20.6,45.76,20.91Z"/><path class="cls-512" d="M44.79,19V20l-.91,0L43.83,19h.09A.54.54,0,0,1,44.79,19Z"/><path class="cls-513" d="M44.87,22.78l.88,0a.63.63,0,0,1,.08.92l-.1,0-.88-.06C44.85,23.41,44.86,23.09,44.87,22.78Z"/><path class="cls-514" d="M30.64,30.41V28a.56.56,0,0,1,.86,0l.09.51c0,.62-.06,1.24-.08,1.85Z"/><path class="cls-515" d="M31.5,28l-.86,0,0-1.44.9,0Z"/><path class="cls-516" d="M45.83,23.74c0-.31-.06-.62-.08-.92l0-1a.66.66,0,0,1,.94,0v1.91Z"/><path class="cls-517" d="M12.58,27.54h.93c1.92,0,1.92,0,1.91,1.91l-.13.2a2.64,2.64,0,0,1-2.88-.13,1.42,1.42,0,0,1,.17-2Z"/><path class="cls-384" d="M17.32,29.42c0,1.92,0,1.92-1.88,1.9-.77-.63-.6-1.25,0-1.89h0Z"/><path class="cls-439" d="M12.58,27.54v1.9l-.12.19a1.19,1.19,0,0,1-1.77-.21C10.61,28,9.5,28.66,8.8,28.5l0-.92.89,0Z"/><path class="cls-518" d="M29.61,18.12c-.59-.17-1.68.3-1.68-.52s1.08-.36,1.68-.5a4.92,4.92,0,0,1,.94,0l.17.08a.76.76,0,0,1,.1.91.81.81,0,0,1-.3.25A.86.86,0,0,1,29.61,18.12Z"/><path class="cls-519" d="M28.66,20.86c0-.6,0-1.21,0-1.81l.91,0,.18.06a.91.91,0,0,1,.32.83,1.8,1.8,0,0,1-.11.92.73.73,0,0,1-.22.3.85.85,0,0,1-.88,0A.59.59,0,0,1,28.66,20.86Z"/><path class="cls-520" d="M29.61,18.12l1-.08a.67.67,0,0,1,.29.88.83.83,0,0,1-.26.3.74.74,0,0,1-.92-.19l-.1,0Z"/><path class="cls-521" d="M30.55,17.1l0-1,.05,0a.74.74,0,0,1,.85-.28.76.76,0,0,1,.3.23,1,1,0,0,1,0,1,.84.84,0,0,1-.29.27.76.76,0,0,1-.88-.25Z"/><path class="cls-522" d="M28.7,21.85h-1c-.07-.69.24-1,.92-1l.08.08A.61.61,0,0,1,28.7,21.85Z"/><path class="cls-523" d="M30.63,15.23l0-1,.9,0,.07,0a.74.74,0,0,1,.05,1A.69.69,0,0,1,30.63,15.23Z"/><path class="cls-524" d="M30.63,15.23h.86l.16.11c.18.32.19.61-.16.83l-.87,0C30.62,15.86,30.63,15.55,30.63,15.23Z"/><path class="cls-525" d="M42.88,14.28l0,1-.93,0c0-.32,0-.63,0-.95Z"/><path class="cls-526" d="M42.91,15.22l.93,0,0,0a1.23,1.23,0,0,1,.29,1.66.64.64,0,0,1-.33.23l-.88,0C42.94,16.46,42.92,15.84,42.91,15.22Z"/><path class="cls-527" d="M44.79,19l-.87,0c0-.33,0-.65,0-1a.71.71,0,0,1,1-.07.72.72,0,0,1,0,1Z"/><path class="cls-528" d="M44.79,18.07l-.89,0c0-.31,0-.62-.07-.93h.09a.65.65,0,1,1,.87,1Z"/><path class="cls-529" d="M31.49,15.22c0-.32.05-.63.08-1l.87,0,.11,0a.72.72,0,0,1,0,1l0,0a.59.59,0,0,1-.89,0Z"/><path class="cls-530" d="M31.53,19c-.17.69.53,1.78-.87,1.91l-.19-.08a1,1,0,0,1-.28-.92,1,1,0,0,1,.38-.9l.06,0A.62.62,0,0,1,31.53,19Z"/><path class="cls-531" d="M30.66,20.9l-.09.93a.71.71,0,0,1-1,.09.78.78,0,0,1,.05-1l.07,0a.56.56,0,0,1,.86,0Z"/><path class="cls-532" d="M29.69,21.86l.88,0c.07.65-.12,1.06-.87,1l-.16-.1A.55.55,0,0,1,29.69,21.86Z"/><path class="cls-533" d="M28.72,23.77l0-1a.56.56,0,0,1,.86,0l.1,0-.09.95Z"/><path class="cls-534" d="M32.51,15.23l0-1,.86,0C33.51,14.93,33.2,15.25,32.51,15.23Z"/><path class="cls-535" d="M31.58,15.22l.89,0,0,.95a.56.56,0,0,1-.85,0h-.11Z"/><path class="cls-536" d="M32.46,17.09c.08.65-.16,1-.85,1l-.17-.1a.65.65,0,0,1,.09-.87l0,0A.63.63,0,0,1,32.46,17.09Z"/><path class="cls-537" d="M31.53,19l-.9,0-.06-1,.05,0a.58.58,0,0,1,.88,0l.11,0C31.58,18.38,31.55,18.69,31.53,19Z"/><path class="cls-538" d="M32.46,17.09l-.9,0,0-.95.85,0C32.46,16.46,32.46,16.78,32.46,17.09Z"/><path class="cls-539" d="M34.35,17.11l-.86,0c-.1-.66.09-1.07.85-1Z"/><path class="cls-540" d="M44.79,18.07c.09-.66-.19-1-.87-1,0-.62,0-1.25-.05-1.88l.88,0a.87.87,0,0,0,1,.94l0,1.88c0,.29-.05.59-.07.88h-.84Z"/><path class="cls-541" d="M46.72,21.85h-.94c0-.31,0-.63,0-.94l.91,0C46.69,21.24,46.71,21.55,46.72,21.85Z"/><path class="cls-542" d="M29.6,22.81h-.86c0-.32,0-.64,0-1s0-.61,0-.91l.88-.05.07,1Z"/><path class="cls-543" d="M15.43,29.43c0,.63,0,1.26,0,1.89s-.2.86-.72,1H13.53a1.17,1.17,0,0,1-1-1,1.16,1.16,0,0,1,0-1.89h2.84Z"/><path class="cls-351" d="M12.59,29.43c0,.63,0,1.26,0,1.89-1.88,0-1.88,0-1.88-1.9Z"/><path class="cls-544" d="M31.5,18.05l-.88,0v-1h.9Z"/><path class="cls-545" d="M30.55,20.9l-.86,0V20a.58.58,0,0,1,.87,0Z"/><path class="cls-546" d="M30.56,20h-.87c0-.31,0-.62,0-.93l.89,0Z"/></g></g></svg>