<svg xmlns="http://www.w3.org/2000/svg" viewBox="0 0 74 74"><defs><style>.cls-1{fill:#1e2223;}.cls-2{fill:#6b7174;}.cls-3{fill:#555a5d;}.cls-4{fill:#828789;}.cls-5{fill:#333c41;}.cls-6{fill:#6a6e71;}.cls-7{fill:#b0b2b3;}.cls-8{fill:#202b32;}.cls-9{fill:#40474b;}.cls-10{fill:#707578;}.cls-11{fill:#273036;}.cls-12{fill:#5c6265;}.cls-13{fill:#7c8082;}.cls-14{fill:#333c40;}.cls-15{fill:#353d42;}.cls-16{fill:#222c32;}.cls-17{fill:#40474c;}.cls-18{fill:#464e52;}.cls-19{fill:#3b4146;}.cls-20{fill:#40484c;}.cls-21{fill:#273238;}.cls-22{fill:#434c4f;}.cls-23{fill:#51595d;}.cls-24{fill:#283337;}.cls-25{fill:#464e51;}.cls-26{fill:#434a4f;}.cls-27{fill:#353c42;}.cls-28{fill:#5a6164;}.cls-29{fill:#283237;}.cls-30{fill:#485054;}.cls-31{fill:#283236;}.cls-32{fill:#787c7f;}.cls-33{fill:#52585c;}.cls-34{fill:#2b353a;}.cls-35{fill:#5b6165;}.cls-36{fill:#2d373d;}.cls-37{fill:#6c7377;}.cls-38{fill:#94989b;}.cls-39{fill:#555b5f;}.cls-40{fill:#2a353b;}.cls-41{fill:#72777a;}.cls-42{fill:#7f8284;}.cls-43{fill:#31373d;}.cls-44{fill:#3e454b;}.cls-45{fill:#5d6266;}.cls-46{fill:#535d61;}.cls-47{fill:#797d80;}.cls-48{fill:#545e61;}.cls-49{fill:#74777b;}.cls-50{fill:#a9acae;}.cls-51{fill:#a2a6a8;}.cls-52{fill:#606365;}.cls-53{fill:#6e7174;}.cls-54{fill:#7d8285;}.cls-55{fill:#5f656a;}.cls-56{fill:#7e8286;}.cls-57{fill:#484c4e;}.cls-58{fill:#696c6e;}.cls-59{fill:#5f6366;}.cls-60{fill:#3e4244;}.cls-61{fill:#95999b;}.cls-62{fill:#9fa1a2;}.cls-63{fill:#4b4b4b;}.cls-64{fill:#8a8e8f;}.cls-65{fill:#383d3f;}.cls-66{fill:#5a5d60;}.cls-67{fill:#8e9193;}.cls-68{fill:#8b8f91;}.cls-69{fill:#6e7377;}.cls-70{fill:#909496;}.cls-71{fill:#31383e;}.cls-72{fill:#575c60;}.cls-73{fill:#53595c;}.cls-74{fill:#2e3337;}.cls-75{fill:#757a7d;}.cls-76{fill:#777a7d;}.cls-77{fill:#63686c;}.cls-78{fill:#acaeb0;}.cls-79{fill:#868a8c;}.cls-80{fill:#a3a5a6;}.cls-81{fill:#616668;}.cls-82{fill:#4d555a;}.cls-83{fill:#63686d;}.cls-84{fill:#c2c2c3;}.cls-85{fill:#8a8e90;}.cls-86{fill:#dbdbdc;}.cls-87{fill:#a6a7a9;}.cls-88{fill:#676c70;}.cls-89{fill:#727678;}.cls-90{fill:#5e6162;}.cls-91{fill:#999d9d;}.cls-92{fill:#bdbebe;}.cls-93{fill:#9b9da1;}.cls-94{fill:#aaa;}.cls-95{fill:#9fa1a3;}.cls-96{fill:#96989a;}.cls-97{fill:#1f2625;}.cls-98{fill:#181716;}.cls-99{fill:#1c1c1a;}.cls-100{fill:#2f4a4b;}.cls-101{fill:#3b5556;}.cls-102{fill:#315153;}.cls-103{fill:#4f6262;}.cls-104{fill:#4f6163;}.cls-105{fill:#677173;}.cls-106{fill:#4d3411;}.cls-107{fill:#6b7c7d;}.cls-108{fill:#7e7c6a;}.cls-109{fill:#6d8081;}.cls-110{fill:#707d7f;}.cls-111{fill:#4d5c5d;}.cls-112{fill:#a1b2b2;}.cls-113{fill:#d2d2d2;}.cls-114{fill:#6b654a;}.cls-115{fill:#1b2227;}.cls-116{fill:#4f5558;}.cls-117{fill:#d0d9da;}.cls-118{fill:#172732;}.cls-119{fill:#acc0c0;}.cls-120{fill:#162229;}.cls-121{fill:#4d5459;}.cls-122{fill:#213a47;}.cls-123{fill:#888a8d;}.cls-124{fill:#b5b5b5;}.cls-125{fill:#152229;}.cls-126{fill:#676f71;}.cls-127{fill:#525a5f;}.cls-128{fill:#76787c;}.cls-129{fill:#555d61;}.cls-130{fill:#52595d;}.cls-131{fill:#4c5358;}.cls-132{fill:#87898d;}.cls-133{fill:#afb2b3;}.cls-134{fill:#919496;}.cls-135{fill:#8d9294;}.cls-136{fill:#b1b3b5;}.cls-137{fill:#73787b;}.cls-138{fill:#8e9395;}.cls-139{fill:#dbdbdb;}.cls-140{fill:#c4c4c5;}.cls-141{fill:#d6d6d6;}.cls-142{fill:#f6f6f6;}.cls-143{fill:#e3e3e3;}.cls-144{fill:#f1f1f1;}.cls-145{fill:#919191;}.cls-146{fill:#828282;}.cls-147{fill:#757575;}.cls-148{fill:#acacac;}.cls-149{fill:#9b9b9b;}.cls-150{fill:#f0f0f0;}.cls-151{fill:#d5d5d5;}.cls-152{fill:#c7c7c7;}.cls-153{fill:#7b7c7e;}.cls-154{fill:#6a6e70;}.cls-155{fill:#323c33;}.cls-156{fill:#54585b;}.cls-157{fill:#3d483f;}.cls-158{fill:#383b3b;}.cls-159{fill:#3c3d3b;}.cls-160{fill:#2a3035;}.cls-161{fill:#353a3c;}.cls-162{fill:#6f756f;}.cls-163{fill:#353b3e;}.cls-164{fill:#373d41;}.cls-165{fill:#5e625d;}.cls-166{fill:#373635;}.cls-167{fill:#616366;}.cls-168{fill:#333638;}.cls-169{fill:#585e59;}.cls-170{fill:#898c8a;}.cls-171{fill:#7f8184;}.cls-172{fill:#464c50;}.cls-173{fill:#797e7f;}.cls-174{fill:#b5b7b8;}.cls-175{fill:#8a8e91;}.cls-176{fill:#909195;}.cls-177{fill:#5e6366;}.cls-178{fill:#cacaca;}.cls-179{fill:#878b8e;}.cls-180{fill:#8f9194;}.cls-181{fill:#ebebeb;}.cls-182{fill:#6d6d6d;}.cls-183{fill:#9f9f9f;}.cls-184{fill:#b2b2b2;}.cls-185{fill:#888;}.cls-186{fill:#a2a2a2;}.cls-187{fill:#6a6a6a;}.cls-188{fill:#838383;}.cls-189{fill:#929292;}.cls-190{fill:#bebebe;}.cls-191{fill:#dcdcdc;}.cls-192{fill:#1c1e1d;}.cls-193{fill:#5c635f;}.cls-194{fill:#4d5250;}.cls-195{fill:#435051;}.cls-196{fill:#4a5351;}.cls-197{fill:#5c625f;}.cls-198{fill:#596e70;}.cls-199{fill:#696e71;}.cls-200{fill:#2b363a;}.cls-201{fill:#354046;}.cls-202{fill:#414644;}.cls-203{fill:#686f73;}.cls-204{fill:#60676c;}.cls-205{fill:#555b60;}.cls-206{fill:#4c545a;}.cls-207{fill:#3d4449;}.cls-208{fill:#3d484e;}.cls-209{fill:#686d71;}.cls-210{fill:#3d454a;}.cls-211{fill:#475157;}.cls-212{fill:#404544;}.cls-213{fill:#343e43;}.cls-214{fill:#2a3231;}.cls-215{fill:#7b9696;}.cls-216{fill:#303932;}.cls-217{fill:#414742;}.cls-218{fill:#3c6162;}.cls-219{fill:#4e7d7d;}.cls-220{fill:#303631;}.cls-221{fill:#8ba8a8;}.cls-222{fill:#6a8182;}.cls-223{fill:#383b3a;}.cls-224{fill:#4c696a;}.cls-225{fill:#444848;}.cls-226{fill:#7e807d;}.cls-227{fill:#a4a4a4;}.cls-228{fill:#616460;}.cls-229{fill:#7a8989;}.cls-230{fill:#4a6466;}.cls-231{fill:#829fa0;}.cls-232{fill:#7d6341;}.cls-233{fill:#6e4e12;}.cls-234{fill:#9b770d;}.cls-235{fill:#9a824c;}.cls-236{fill:#b5b7b7;}.cls-237{fill:#97a3a2;}.cls-238{fill:#b9ac80;}.cls-239{fill:#c3c3c2;}.cls-240{fill:#af9753;}.cls-241{fill:#907132;}.cls-242{fill:#af9c6d;}.cls-243{fill:#2b4042;}.cls-244{fill:#3f6060;}.cls-245{fill:#526768;}.cls-246{fill:#795b26;}.cls-247{fill:#d5c492;}.cls-248{fill:#cac7be;}.cls-249{fill:#a0a8a8;}.cls-250{fill:#415b5d;}.cls-251{fill:#4b7677;}.cls-252{fill:#7d9c9d;}.cls-253{fill:#e9f1f0;}.cls-254{fill:#f5e9c0;}.cls-255{fill:#42484c;}.cls-256{fill:#41464a;}.cls-257{fill:#373f43;}.cls-258{fill:#30373c;}.cls-259{fill:#333a3f;}.cls-260{fill:#353a3b;}.cls-261{fill:#4d5455;}.cls-262{fill:#374043;}.cls-263{fill:#727675;}.cls-264{fill:#4a4d49;}.cls-265{fill:#909391;}.cls-266{fill:#1d323f;}.cls-267{fill:#545958;}.cls-268{fill:#5c6160;}.cls-269{fill:#5d9291;}.cls-270{fill:#b8c6c6;}.cls-271{fill:#868b8b;}.cls-272{fill:#363736;}.cls-273{fill:#5f6365;}.cls-274{fill:#717270;}.cls-275{fill:#a9a9a9;}.cls-276{fill:#969798;}.cls-277{fill:#818586;}.cls-278{fill:#515659;}.cls-279{fill:#fdfdfd;}.cls-280{fill:#86898b;}.cls-281{fill:#b3b3b3;}.cls-282{fill:#c4c5c5;}.cls-283{fill:#ececec;}.cls-284{fill:#bababa;}.cls-285{fill:#c8c8c8;}.cls-286{fill:#9a9c9e;}.cls-287{fill:#a2a4a6;}.cls-288{fill:#bfbfbf;}.cls-289{fill:#989898;}.cls-290{fill:#878787;}.cls-291{fill:#666;}.cls-292{fill:#707070;}.cls-293{fill:#999;}.cls-294{fill:#8a8a8a;}.cls-295{fill:#d3d3d3;}.cls-296{fill:#a8a8a8;}.cls-297{fill:#868686;}.cls-298{fill:#7c7c7c;}.cls-299{fill:gray;}.cls-300{fill:#7f7f7f;}.cls-301{fill:#686868;}.cls-302{fill:#747474;}.cls-303{fill:#8d8d8d;}.cls-304{fill:#636363;}.cls-305{fill:#e9e9e9;}.cls-306{fill:#b6b6b6;}.cls-307{fill:#9d9d9d;}.cls-308{fill:#c1c2c2;}.cls-309{fill:#8b8b8b;}.cls-310{fill:#444e46;}.cls-311{fill:#515b52;}.cls-312{fill:#424c42;}.cls-313{fill:#434d44;}.cls-314{fill:#8c8f92;}.cls-315{fill:#3c4245;}.cls-316{fill:#6b7073;}.cls-317{fill:#263129;}.cls-318{fill:#5f6661;}.cls-319{fill:#192025;}.cls-320{fill:#676c6f;}.cls-321{fill:#828689;}.cls-322{fill:#9b9d9e;}.cls-323{fill:#666c6f;}.cls-324{fill:#444a4e;}.cls-325{fill:#bcbdbe;}.cls-326{fill:#1e2427;}.cls-327{fill:#a4a9a4;}.cls-328{fill:#747874;}.cls-329{fill:#e4e4e4;}.cls-330{fill:#d9d9d9;}.cls-331{fill:#c5c5c5;}.cls-332{fill:#858585;}.cls-333{fill:#aaabac;}.cls-334{fill:#515151;}.cls-335{fill:#818181;}.cls-336{fill:#5b5b5b;}.cls-337{fill:#939393;}.cls-338{fill:#767676;}.cls-339{fill:#7e7e7e;}.cls-340{fill:#7b7b7b;}.cls-341{fill:#5c5c5c;}.cls-342{fill:#54575a;}.cls-343{fill:#868687;}.cls-344{fill:#9e9fa0;}.cls-345{fill:#364038;}.cls-346{fill:#6c7978;}.cls-347{fill:#566565;}.cls-348{fill:#737b74;}.cls-349{fill:#979b9c;}.cls-350{fill:#678687;}.cls-351{fill:#666e68;}.cls-352{fill:#3c463e;}.cls-353{fill:#494e4c;}.cls-354{fill:#cccdce;}.cls-355{fill:#c3c5c7;}.cls-356{fill:#767b7d;}.cls-357{fill:#afb0b2;}.cls-358{fill:#94989a;}.cls-359{fill:#455045;}.cls-360{fill:#535953;}.cls-361{fill:#646865;}.cls-362{fill:#838483;}.cls-363{fill:#4f524f;}.cls-364{fill:#7e9d9e;}.cls-365{fill:#9ab9b9;}.cls-366{fill:#bbc0ba;}.cls-367{fill:#f8f8f8;}.cls-368{fill:#8c948c;}.cls-369{fill:#6b8788;}.cls-370{fill:#aec7c8;}.cls-371{fill:#a48b63;}.cls-372{fill:#90661b;}.cls-373{fill:#d2ae4e;}.cls-374{fill:#cfb67b;}.cls-375{fill:#fefefd;}.cls-376{fill:#7c7c7d;}.cls-377{fill:#858686;}.cls-378{fill:#6b6c6c;}.cls-379{fill:#848c86;}.cls-380{fill:#686e68;}.cls-381{fill:#a2aaa4;}.cls-382{fill:#919390;}.cls-383{fill:#757675;}.cls-384{fill:#abb1ac;}.cls-385{fill:#505559;}.cls-386{fill:#c2c6c2;}.cls-387{fill:#a0a59f;}.cls-388{fill:#6b6d70;}.cls-389{fill:#a7a7a7;}.cls-390{fill:#929393;}.cls-391{fill:#9a9a9a;}.cls-392{fill:#797979;}.cls-393{fill:#959595;}.cls-394{fill:#7a7a7a;}.cls-395{fill:#949494;}.cls-396{fill:#515a53;}.cls-397{fill:#687169;}.cls-398{fill:#939993;}.cls-399{fill:#808982;}.cls-400{fill:#838b84;}.cls-401{fill:#48514a;}.cls-402{fill:#cecfcf;}.cls-403{fill:#a7a8a9;}.cls-404{fill:#a3a3a3;}.cls-405{fill:#d0d0d0;}.cls-406{fill:#696969;}.cls-407{fill:#eeefef;}</style></defs><title>apcr</title><g id="레이어_2" data-name="레이어 2"><g id="레이어_1-2" data-name="레이어 1"><rect class="cls-1" width="74" height="74" rx="8.33" ry="8.33"/><path class="cls-2" d="M16.89,13.5l9.54-.07a.78.78,0,0,1,.29,1c-.24.53-.72.51-1.2.51H23.3c-.45,0-.88,0-1,.6a3.55,3.55,0,0,0-.19,1,1.28,1.28,0,0,1-.4,1,.78.78,0,0,1-1-.16h0c-.21-.21-.45-.41-.45-.74,0-.7-.13-1.34-1-1.54-.55-.13-1-.12-1.24.51a.78.78,0,0,1-1.18-.14l0,0A1.12,1.12,0,0,1,16.89,13.5Z"/><path class="cls-3" d="M38,6.8c.78-.06,1.65.16,2.09-.84,0-.12.5-.07.77-.1A.94.94,0,0,1,41.16,7c-.39.42-.94.74-.86,1.44a.34.34,0,0,1-.15.31c-1.07.36-1.83,1.55-3.17,1.16A3.87,3.87,0,0,0,35.76,8.7a1,1,0,0,1,0-1,1.21,1.21,0,0,1,1.15-.49A1.51,1.51,0,0,0,38,6.8Z"/><path class="cls-4" d="M26.46,14.43l0-1V9.66c-.28-1.06-.16-1.33.82-1.39a3.19,3.19,0,0,1,2.15.19,1,1,0,0,1,.18,1.18,1.33,1.33,0,0,1-.94.62c-.59.08-.75.45-.74,1,0,.83.05,1.65,0,2.48S27.42,14.85,26.46,14.43Z"/><path class="cls-5" d="M29.32,8.7c-.64,0-1.28,0-1.91,0s-1,.33-1,1c-.65,0-1-.27-.91-.93s.34-1,1-1l4.77,0a.76.76,0,0,1,.06,1.09A1.38,1.38,0,0,1,29.32,8.7Z"/><path class="cls-6" d="M36,7.74l0,1a.73.73,0,0,1,.11,1,.94.94,0,0,1-1.28.15c-.62-.51-1.42-.64-2-1.15a2,2,0,0,1,.17-2,.83.83,0,0,1,1.11,0l.92.06c.31.27.64.51.93.8Z"/><path class="cls-7" d="M50.66,13.44l3.58.07a.77.77,0,0,1,.31.83.76.76,0,0,1-.2.32,1.49,1.49,0,0,0-.89.91,1,1,0,0,1-.35.17,2.13,2.13,0,0,1-1.78-.12c-.3-.19-.39-.56-.73-.74a.85.85,0,0,1-.32-1.38A.33.33,0,0,1,50.66,13.44Z"/><path class="cls-8" d="M54.24,15.47c.32,1.12-.45,1.89-.92,2.75l-.09.2a1,1,0,0,1-1.19.17c-.31-.45-.82-.76-1-1.3a1.18,1.18,0,0,1,.06-1c.57-.71,1.67-.11,2.22-.89l0,0a.62.62,0,0,1,.77-.2A.41.41,0,0,1,54.24,15.47Z"/><path class="cls-9" d="M46.58,6.78c0-.68.31-1,1-.92C49.17,7,49.21,7.07,48.79,8.64a.81.81,0,0,1-.3.31,2,2,0,0,1-1.08.19,1,1,0,0,1-1-.38A1.48,1.48,0,0,1,46.58,6.78Z"/><path class="cls-10" d="M48.49,8.69c0-.79.25-1.68-.76-2.16-.12-.06-.1-.44-.15-.67h1.86c.3.28.64.5,1,.76l0,.15-.08,1c-.44.33-.47,1-1,1.27A.71.71,0,0,1,48.49,8.69Z"/><path class="cls-11" d="M50.66,13.44l-.23.07c-.53.63-1.25.41-1.92.44a1.44,1.44,0,0,1-1.1-.27,1.58,1.58,0,0,1-.32-1.07,1.67,1.67,0,0,1,.22-1.07.77.77,0,0,1,1-.23.63.63,0,0,1,.27.31c0,.69.51.85,1.05.88A1,1,0,0,1,50.66,13.44Z"/><path class="cls-12" d="M46.58,6.78V8.67c-.57.78-1.25.54-2,.21a1.13,1.13,0,0,1-.36-1.07,1.12,1.12,0,0,1,.45-1Z"/><path class="cls-13" d="M40.79,7l.07-1.16h.89c.83.36.24,1.48,1,1.88h0a.84.84,0,0,1,.07,1.13,1.92,1.92,0,0,1-2.12,0A1.33,1.33,0,0,1,40.79,7Z"/><path class="cls-14" d="M34.14,6.74l-1,.07a1,1,0,0,1-.92.34,1,1,0,0,1-.91-.34c-.12-.84.39-1,1.06-1S34.06,5.46,34.14,6.74Z"/><path class="cls-15" d="M20.73,17.29l1,0a1.41,1.41,0,0,1,2-.09,1,1,0,0,1,.13,1.12c-.5.69-1.23.37-1.87.43a1.77,1.77,0,0,1-1-.17.63.63,0,0,1-.25-.31Z"/><path class="cls-16" d="M53.32,18.22c.62,0,1.24.06,1.85.05s1,.28,1,1c-.51.66-1.23.42-1.88.44a1.48,1.48,0,0,1-1.07-.33.76.76,0,0,1,.06-1.05Z"/><path class="cls-17" d="M54.23,19.24h1.92c0,.29,0,.58,0,.87a.59.59,0,0,1-.21.33,1.56,1.56,0,0,1-.95.19,1.12,1.12,0,0,1-.94-.39A.79.79,0,0,1,54.23,19.24Z"/><path class="cls-18" d="M16.89,13.5v1.87c-.83.1-1-.39-1-1.08S16.28,13.42,16.89,13.5Z"/><path class="cls-19" d="M17.83,20.11c.08-1.39,1.23-.7,1.89-1a.55.55,0,0,1,.29.27.91.91,0,0,1-.12,1,1.07,1.07,0,0,1-.95.26,1.42,1.42,0,0,1-.92-.21A.55.55,0,0,1,17.83,20.11Z"/><path class="cls-20" d="M55.18,13.5c.69-.09,1,.19,1,.92s-.29,1-1,.94a1,1,0,0,1-.36-.93A1,1,0,0,1,55.18,13.5Z"/><path class="cls-21" d="M20.71,16.32v1c-.72-.14-1.79.51-1.93-.88l.1-.21A1.21,1.21,0,0,1,20.71,16.32Z"/><path class="cls-22" d="M42.75,7.73c-1.52,0-.76-1.2-1-1.88C43.36,5.8,42.53,7,42.75,7.73Z"/><path class="cls-23" d="M31.31,6.81h.94a1.49,1.49,0,0,1,.2,1.92.82.82,0,0,1-1.07.12l-.15-.18V7.72Z"/><path class="cls-24" d="M38,6.8c-.13,1.43-1.25.78-2,.94h0a.65.65,0,0,1,0-.93Z"/><path class="cls-25" d="M42.77,8.66l0-.93.93,0a.69.69,0,0,1,1,0l0,1-.12.17a1.16,1.16,0,0,1-1,.24A.77.77,0,0,1,42.77,8.66Z"/><path class="cls-26" d="M48.49,8.69l1-.07.15.12a.73.73,0,0,1-.12.92l0,.92a.78.78,0,0,1-.91.27.74.74,0,0,1-.3-.28,1.64,1.64,0,0,1-.16-1,1.06,1.06,0,0,1,.43-.89Z"/><path class="cls-27" d="M15,21.1c.13-1.37,1.18-.81,1.91-.92a.84.84,0,0,1,.2,1,.92.92,0,0,1-.93.4c-.32,0-.67.05-1-.17A.69.69,0,0,1,15,21.1Z"/><path class="cls-28" d="M49.45,8.62c0-.64.28-.94.91-.91l0,.93a.62.62,0,0,1-.92.09Z"/><path class="cls-29" d="M49.46,8.73l.92-.09q.13,1-.9,1C49.48,9.35,49.47,9,49.46,8.73Z"/><path class="cls-30" d="M36,6.8l0,.93c-.66,0-1-.25-1-.93Z"/><path class="cls-31" d="M50.38,5.83c.37,0,.88-.08.87.49s-.47.42-.81.44l-.09,0A.74.74,0,0,1,50.38,5.83Z"/><path class="cls-28" d="M50.38,5.83l0,1c-.64,0-.93-.32-.91-1Z"/><path class="cls-32" d="M58.08,21.08l.94.09a.77.77,0,0,1,.21.95.83.83,0,0,1-.93.32,1,1,0,0,1-.36-.19.84.84,0,0,1-.14-.92A.62.62,0,0,1,58.08,21.08Z"/><path class="cls-33" d="M59.06,22.07l0-.9,1,0c0,.29,0,.59,0,.88l-.09.17A.57.57,0,0,1,59.06,22.07Z"/><path class="cls-34" d="M44.64,7.71h-1c0-.69.35-1,1-.9C44.69,7.1,44.66,7.4,44.64,7.71Z"/><path class="cls-35" d="M18.79,16.42l-.94-.09a.6.6,0,0,1,0-.9l.06-.12c1.09-.19,1.22-.05.93,1Z"/><path class="cls-36" d="M17.81,15.43c0,.3,0,.6,0,.9-.69.07-1-.24-1-.94Z"/><path class="cls-37" d="M55.18,14.41v.95l-.94.11v-.12a.63.63,0,0,1,0-.92h0A.66.66,0,0,1,55.18,14.41Z"/><path class="cls-38" d="M55.18,14.41l-.94,0v-.92h.94Z"/><path class="cls-39" d="M56.19,20.11l.92.08a.75.75,0,0,1,.07,1,.81.81,0,0,1-1.06,0,.7.7,0,0,1,0-1Z"/><path class="cls-40" d="M19.72,19.15a.8.8,0,0,1,1-.9l.1.05a.72.72,0,0,1,0,1,.73.73,0,0,1-1-.06Z"/><path class="cls-41" d="M16.85,21.1l0-.92,1-.07v.12a.68.68,0,0,1,0,1A.7.7,0,0,1,16.85,21.1Z"/><path class="cls-42" d="M14,21.17l1-.07v.1a.69.69,0,0,1,.07,1,.81.81,0,0,1-1.06,0A.72.72,0,0,1,14,21.17Z"/><path class="cls-11" d="M48.57,10.61l.87,0c.08.67-.24,1-.89,1l-.07-.07C48.24,11.21,48.18,10.89,48.57,10.61Z"/><path class="cls-43" d="M57.13,21.12c0-.31,0-.62,0-.93.64-.05,1,.18,1,.89v.11a.64.64,0,0,1-.84.08Z"/><path class="cls-44" d="M12.09,22.05v-.89h1a.75.75,0,0,1,.18.93.71.71,0,0,1-.89.24A.53.53,0,0,1,12.09,22.05Z"/><path class="cls-45" d="M13,22.07c0-.3,0-.6,0-.9H14l0,.92-.12.15A.59.59,0,0,1,13,22.07Z"/><path class="cls-46" d="M15.91,59.46h-1a.74.74,0,0,1-.17-.93.72.72,0,0,1,.9-.24.53.53,0,0,1,.26.29Z"/><path class="cls-47" d="M16.84,58.48l-.91.09,0-.11a.7.7,0,0,1-.05-1,.81.81,0,0,1,1.06,0A.7.7,0,0,1,16.84,58.48Z"/><path class="cls-48" d="M16.84,58.48l0-.91.08-.14a.57.57,0,0,1,.75-.08.4.4,0,0,1,.14.28C17.9,58.37,17.47,58.54,16.84,58.48Z"/><path class="cls-49" d="M18.79,57.56l-.94.07a.5.5,0,0,1,0-.13c-.25-1.07-.13-1.19,1-1a.72.72,0,0,1,0,1Z"/><path class="cls-50" d="M5.34,38.16,5.4,23.08a.76.76,0,0,1,1-.21.69.69,0,0,1,.28.33c.45.94.08,1.92.16,2.88,0,5.08,0,10.17,0,15.26,0,.48.11,1-.3,1.43a.79.79,0,0,1-1.11-.07Z"/><path class="cls-51" d="M5.41,42.7h.87c.52.24.49.68.51,1.17,0,.72,0,1.44,0,2.16V56.4a5.2,5.2,0,0,1-.15,2,.86.86,0,0,1-.27.33.76.76,0,0,1-1-.19l-.08-8.37Z"/><path class="cls-52" d="M68.59,27.87c0,2.31,0,4.62.08,6.94,0,2.79-.06,5.59-.1,8.38a.72.72,0,0,1-1.06,0,4.6,4.6,0,0,1-.35-2.66c0-.71,0-1.44,0-2.16,0-1.92,0-3.84,0-5.77.06-1.25-.06-2.51,0-3.77,0-.4,0-.78.31-1.09A.78.78,0,0,1,68.59,27.87Z"/><path class="cls-53" d="M67.7,43.19h.87l.09,5q0,3.24-.08,6.48a.74.74,0,0,1-1,.06,1.51,1.51,0,0,1-.34-1.08c-.06-1.58,0-3.17,0-4.75s0-3,0-4.43a1.6,1.6,0,0,1,.32-1.2Z"/><path class="cls-54" d="M6.35,22.14l5.74-.09v.11a.72.72,0,0,1,0,1.07c-1.29.65-2.67.14-4,.33a1.78,1.78,0,0,1-1.75-.47V23A.54.54,0,0,1,6.35,22.14Z"/><path class="cls-55" d="M6.35,22.14l0,.85-.93.09C5.29,22.34,5.61,22,6.35,22.14Z"/><path class="cls-56" d="M60,22l7.64.11a.75.75,0,0,1,.18,1,.92.92,0,0,1-.35.26,56,56,0,0,1-6.48.14,1.32,1.32,0,0,1-1.09-.31A.75.75,0,0,1,60,22.16S60,22.07,60,22Z"/><path class="cls-57" d="M68.59,27.87l-.92,0c-.75-.58-.55-1.25-.17-1.94a.76.76,0,0,1,1.09,0Z"/><path class="cls-51" d="M68.6,23.08V25a.74.74,0,0,1-1,.13,1.11,1.11,0,0,1-.32-1,1.08,1.08,0,0,1,.39-1l0-.1A.66.66,0,0,1,68.6,23.08Z"/><path class="cls-55" d="M68.6,23.08,67.67,23l0-.85C68.38,22,68.7,22.34,68.6,23.08Z"/><path class="cls-58" d="M67.65,25h.94v1l-.9,0-.16-.08a.6.6,0,0,1,0-.8Z"/><path class="cls-59" d="M26.46,14.43c.65.05,1-.24,1-.9,0-1,0-1.92,0-2.87,0-.72.27-1.05,1-1a1,1,0,0,1,.46.81c-.12,1.41.27,2.83-.07,4.23-.13.94-.72,1.23-1.59,1.14a37.65,37.65,0,0,1-4.38,0,1.31,1.31,0,0,1-1.13-.44c-.06-.71.29-1,1-1Z"/><path class="cls-60" d="M21.69,15.43h5.47c.86.84-.14,1.31-.39,1.93a.63.63,0,0,1-.26.25c-.35.11-.69.26-1,.36-.61.24-1.11,1.3-1.89.25v-.89c0-.05,0-.09,0-.13-.08-.2-.28-.24-.45-.33-.53,0-1.09,0-1.45-.5Z"/><path class="cls-61" d="M18.8,16.31c.06-.68-.27-1-.93-1,.2-1.42,1.3-.79,2-.85s.81.56.78,1.15a5.61,5.61,0,0,0,0,.71Z"/><path class="cls-62" d="M21.67,16.36l1.88,0a.56.56,0,0,1,0,.89l0,.05-1.9-.05Z"/><path class="cls-63" d="M26.44,17.27c.12-.66.74-1.13.72-1.85.52-.06,1.06-.08,1.21-.75a1.32,1.32,0,0,1,.37-.29c1.06-.43,1.11-.52.47-1.44A1.39,1.39,0,0,1,29,11.4a1,1,0,0,1,1.21-.48c.53,0,1.05.17,1.59.19s.83-.14.81-.71a6.84,6.84,0,0,0,.08-.9.74.74,0,0,1,.48-.79c.84,0,1.72-.22,2.22.77.06.12.43.09.65.13a.66.66,0,0,1,.94,0c1-.76,2.58-.59,3.06-2.09A.9.9,0,0,1,40.79,7c0,.56.05,1.12.07,1.68.2.22.44.4.46.73.46,1,1.44,1,2.18.05a.94.94,0,0,1,.31-.17,1.19,1.19,0,0,1,.89,0c.81.76.57,1.62.2,2.47-.08.18-.29.27-.38.45-.23.44-.37,1,0,1.31s.61-.31,1-.39a1.35,1.35,0,0,1,.95,0,.86.86,0,0,1,.33.23,1.74,1.74,0,0,1,.24.94c0,.38.14.74.16,1.12a1.06,1.06,0,0,1-.6,1.38c-.32.13-.45.42-.64.67-1.09.6-1.15,1.52-.15,2.37A1.69,1.69,0,0,0,46.73,21a.69.69,0,0,1,.14.33,1.18,1.18,0,0,1-1.32,1.22c-.81,0-1.67.23-2.41-.37-.32-.26-.67-.09-1,.15a1.5,1.5,0,0,1-1.33.36,2.81,2.81,0,0,1-1.09-.4.79.79,0,0,1-.2-.33,1.24,1.24,0,0,1,.35-1.38A1.41,1.41,0,0,0,40.25,19a4.46,4.46,0,0,1-.78-2.21,1.91,1.91,0,0,0-2-1.88,2.06,2.06,0,0,0-1.87,1.86A2.11,2.11,0,0,1,35,18c-.27.32-.41.83,0,1.07s.48-.29.64-.55c.5-.78,1-.81,1.83-.12a6.2,6.2,0,0,1,.12,2.1A1.39,1.39,0,0,1,36.35,22a10.63,10.63,0,0,0-2.1-.23c-.62,0-.61.47-.61.9V25c0,.32,0,.63,0,.94a1.14,1.14,0,0,1-.18.73,10.93,10.93,0,0,0-2.14,1.34c-.36.39-.95.24-1.35-.21a2.3,2.3,0,0,1,0-1.73c0-.65.7-.88,1-1.35.55-.81.22-1-.5-1.17A5,5,0,0,1,29,23.27c-1.29-1.23-1.39-1.62-.79-2.89.28-.33.73-.56.67-1.1.06.51-.33.75-.64,1a.73.73,0,0,1-.88,0,1.87,1.87,0,0,1-.42-1.62A2.14,2.14,0,0,0,26.44,17.27Z"/><path class="cls-64" d="M37,9.64l-.94,0c0-.29,0-.58,0-.88C36.77,8.61,37.08,8.92,37,9.64Z"/><path class="cls-65" d="M30.29,11.32c-1,.07-1.25.51-.49,1.22s.49,1.52.42,2.31c0,.46-.4.53-.8.33l-1.05-.51,0-5,.92,0a.78.78,0,0,1,1.22.15A1,1,0,0,1,30.29,11.32Z"/><path class="cls-66" d="M30.29,11.32c-.07-.71.29-1.66-1-1.69V8.7l1.91,0,.05.07a3.58,3.58,0,0,0,1.87,1.86c.06.83-.45,1-1.13,1A3.4,3.4,0,0,1,30.29,11.32Z"/><path class="cls-67" d="M33.19,8.71l-.07.91a.63.63,0,0,1-.92.05c-.34-.3-.26-.67,0-1l.09-1.84h.89Z"/><path class="cls-68" d="M48.51,13.52h1.92c0,.37,0,.75.4.9s.5.56.55,1l-.09.18a1.06,1.06,0,0,1-.93.29,1.58,1.58,0,0,1-1-.13c-.19-.61-.9-.74-1.16-1.28A.8.8,0,0,1,48.51,13.52Z"/><path class="cls-69" d="M53.31,15.41c-.06,1.49-1.25.73-1.93,1a.59.59,0,0,1,0-.93l0-.09Z"/><path class="cls-70" d="M54.25,14.43v.92l-1,0Q53.22,14.35,54.25,14.43Z"/><path class="cls-71" d="M51.38,17.31a1.52,1.52,0,0,1,.73.9c-.45.73-1.43.67-1.93,1.33-1.25-.2-1.47-.74-1-2.29a1,1,0,0,1,1.09-.36A1.26,1.26,0,0,1,51.38,17.31Z"/><path class="cls-72" d="M50.34,19.2c.09-1.22,1.07-.85,1.77-1l1.15.09c0,.29,0,.58.05.88l-.07.18a1,1,0,0,1-.87.31,7.34,7.34,0,0,1-.94,0,1.41,1.41,0,0,1-.89-.2A.5.5,0,0,1,50.34,19.2Z"/><path class="cls-73" d="M51.38,17.31h-1a1.07,1.07,0,0,1-.37-.95,1,1,0,0,1,.37-.94l1,.05,0,.93Z"/><path class="cls-74" d="M45.64,13.46c-.13.52.19,1.4-.77,1.3a1.22,1.22,0,0,1-1.19-1.39c0-.74-.07-1.45.72-2,.5-.36.23-1.12.28-1.71a.66.66,0,0,1,0-1v0l1.89,0h1a1.1,1.1,0,0,1,.43.9,2.14,2.14,0,0,1-.1,1c-.1.55-.86.47-1,1a.85.85,0,0,1-.23.27.78.78,0,0,0-.6.89C46.08,13.05,45.84,13.25,45.64,13.46Z"/><path class="cls-75" d="M47.56,9.65c0-.32,0-.64,0-1h1l0,1A.63.63,0,0,1,47.56,9.65Z"/><path class="cls-76" d="M48.51,13.52v.89c-.63.77-1.27.63-1.91,0l0-.93c.32-.34.65-.26,1,0Z"/><path class="cls-77" d="M46.57,11.55c-.07-.7.22-1.05,1-1a.64.64,0,0,1,.93,0l.12,0-.09.94h-.92A.67.67,0,0,1,46.57,11.55Z"/><path class="cls-78" d="M47.56,13.47l-1,0h0a.74.74,0,0,1-.06-1,.69.69,0,0,1,1,.06Z"/><path class="cls-79" d="M47.51,12.53h-.89l-.16-.11a.69.69,0,0,1,.1-.89h1C47.54,11.88,47.53,12.21,47.51,12.53Z"/><path class="cls-80" d="M40.85,9.61V8.7l1.91,0,.9,0a.61.61,0,0,1,0,.93h0A2.14,2.14,0,0,1,40.85,9.61Z"/><path class="cls-81" d="M26.44,17.27c.75,0,1,.43,1,1.13s0,1.17,0,1.75c-.4.55-.87.46-1.28.06a1.14,1.14,0,0,0-.76-.45,4.76,4.76,0,0,0-1-.06c-.92-.06-1.91.35-2.75-.35a.72.72,0,0,1,.1-1l1.88-.11c.81.27,1.13-.8,1.89-.69a.75.75,0,0,0,1-.17Z"/><path class="cls-82" d="M21.7,18.32l0,.92s-.05.09-.07.14a.6.6,0,0,1-.75.07.46.46,0,0,1-.15-.27c0-.29.05-.59.07-.88Z"/><path class="cls-83" d="M54.23,19.24v.89l-.11.17a.71.71,0,0,1-1-.06.7.7,0,0,1,.1-1l.05-.1Z"/><path class="cls-84" d="M56.19,21.12h.94l0,.05c.36.27.63.63,1,.91h0c.51.91.14,1.33-.8,1.41a2,2,0,0,1-1.07-.16c-.45-.89-1.55-.61-2.18-1.18a1.38,1.38,0,0,1-.2-1,1,1,0,0,1,.41-.93v-.11l.94.09C55.55,20.48,55.82,20.85,56.19,21.12Z"/><path class="cls-85" d="M56.19,21.12c-.71.1-1-.19-1-.9h1Z"/><path class="cls-86" d="M18.81,20.23l.92-.09a1.21,1.21,0,0,1,1-.37,1.28,1.28,0,0,1,1.07.32,1,1,0,0,1,.05,1.12,1.1,1.1,0,0,1-1,.4q-.57,0-1.14,0a1.14,1.14,0,0,1-1-.35A.76.76,0,0,1,18.81,20.23Z"/><path class="cls-87" d="M18.81,20.23v.91a.65.65,0,0,1-1,0l0-.89Z"/><path class="cls-88" d="M20.69,20.14h-1l0-.89.94-.07,0,.1A.55.55,0,0,1,20.69,20.14Z"/><path class="cls-89" d="M32.16,8.64c.05.59.22,1.07,1,1l0,1c-1.93,0-1.93,0-1.87-1.86Z"/><path class="cls-90" d="M43.69,9.63l0-.93h1v1Z"/><path class="cls-91" d="M48.45,10.59h-.93c0-.32,0-.63,0-.95h.91C48.46,10,48.46,10.28,48.45,10.59Z"/><path class="cls-92" d="M17.8,21.12l1,0,1,0A.78.78,0,0,1,20,22a.71.71,0,0,1-.21.3c-.65.39-1.64.08-2,1a1.77,1.77,0,0,1-1,.2h-1c-.65,0-1.35.15-1.9-.38a.76.76,0,0,1,.1-1.05l0,0,.95,0c.34-.28.64-.6,1-.88l.92-.09Z"/><path class="cls-93" d="M15.93,21.19c0,.71-.34.95-1,.88,0-.29,0-.58,0-.87Z"/><path class="cls-94" d="M57.09,23.08c.66,0,1.06-.26,1-1l1,0,.93.09L60,23c-.09.52-.69.69-.84,1.18a1,1,0,0,1-.37.17A1.8,1.8,0,0,1,57,24.11.79.79,0,0,1,57.09,23.08Z"/><path class="cls-95" d="M58.1,22.08c-.67.06-1-.21-1-.91l1,0Z"/><path class="cls-96" d="M14,22.11l0,.95-.09.17a.93.93,0,0,1-.87.25.92.92,0,0,1-.86-.27L12.09,23v-.88l.94-.09Z"/><path class="cls-97" d="M43.73,54.92a.89.89,0,0,1,.7,1v.68c-.36.74-1.07.55-1.67.6A8.84,8.84,0,0,1,41,57.1H39.86c-.65,0-1.3,0-2,0a27.77,27.77,0,0,1-4.56,0c-.61-.1-1.26.15-1.85-.21a.68.68,0,0,1-.24-.33v-.91l.09-.18a1,1,0,0,1,.89-.29c.32,0,.64,0,1,0h4.38c.47,0,.87,0,1.07-.51.39-.33.91-.58.76-1.24,0-1.37,0-2.73,0-4.09a1.69,1.69,0,0,0-.24-1.18c-.07-.78-1.25-1.29-.55-2.26a1.08,1.08,0,0,1,.79-.26,28,28,0,0,1,3.43,0,1.81,1.81,0,0,0,1.83-.85c1-.12,2-.44,2.86.33.32,1.42.1,1.85-1.29,1.93-1,.06-1.51,1.09-2.51,1l-.15-.06c-.59-.61-1.1-.66-1.51.18a1,1,0,0,1-.27.22.71.71,0,0,0-.46.73c0,1.51,0,3,0,4.52a.71.71,0,0,0,.42.76,1,1,0,0,1,.28.18C42.39,55.48,43.07,55.16,43.73,54.92Z"/><path class="cls-98" d="M47.52,63.28c.07.72-.31,1-1,1-.5.68-1.23.39-1.88.45a29.64,29.64,0,0,1-3.77,0H39.78c-2.54,0-5.08,0-7.62,0H30.24c-.62,0-1.25,0-1.88,0a1.13,1.13,0,0,1-.94-.42v-1a1.1,1.1,0,0,1,.89-.43c.34,0,.67,0,1,0H44.59a16,16,0,0,1,2,0A1.13,1.13,0,0,1,47.52,63.28Z"/><path class="cls-99" d="M46.53,59.44c.67,0,1.06.29,1,1a1.17,1.17,0,0,1-1,.42,18.13,18.13,0,0,1-2,0H39.77c-2.79,0-5.58,0-8.37,0-.36,0-.73,0-1.09,0-.65,0-1.29,0-1.93,0a1.1,1.1,0,0,1-.95-.41v-1a1.11,1.11,0,0,1,.94-.43c.64-.05,1.28,0,1.92,0H44.62C45.28,59.05,46,58.76,46.53,59.44Z"/><path class="cls-100" d="M40.82,64.3h3.85a.8.8,0,0,1,.31.82.83.83,0,0,1-.16.31c-.8.42-.89.94-.21,1.56l.06.15c0,.7-.35,1-1,1-1.26,0-2.51,0-3.77,0l-.15-.07A.74.74,0,0,1,39.67,67a2.42,2.42,0,0,0,.83-2.21C40.49,64.58,40.68,64.44,40.82,64.3Z"/><path class="cls-101" d="M40.82,56.63l3.6-.07.27.07a1.45,1.45,0,0,1,.22,1.88.87.87,0,0,1-.35.31,6.42,6.42,0,0,1-3.9-.16C40.3,58,40.13,57.26,40.82,56.63Z"/><path class="cls-102" d="M35.54,68.13c-1.41,0-2.82,0-4.23,0-.66,0-1.07-.21-1-1l.11-.19a1.31,1.31,0,0,1,1-.29c1.16,0,2.32,0,3.47,0a1.87,1.87,0,0,1,1.2.31.82.82,0,0,1,.07,1.07A.5.5,0,0,1,35.54,68.13Z"/><path class="cls-103" d="M44.65,65.21c0-.31,0-.62,0-.92h1.87l.06,1.88c0,.71-.29,1-1,.92C44.9,66.65,45.33,65.65,44.65,65.21Z"/><path class="cls-104" d="M46.53,59.44H44.68a.66.66,0,0,1-.11-.91l.1,0c.74-.41.19-1.46.93-1.87l1,0a1.4,1.4,0,0,1,0,2.14Z"/><path class="cls-105" d="M27.42,64.29h1a1,1,0,0,1,.41.89,4.35,4.35,0,0,1,0,1,1,1,0,0,1-.41.89c-.71.1-1-.22-1-.92S27.42,64.92,27.42,64.29Z"/><path class="cls-106" d="M46.54,60.47h1c0,.94,0,1.88,0,2.82l-1,0A2.34,2.34,0,0,1,46.54,60.47Z"/><path class="cls-107" d="M44.65,65.21c1.5,0,.81,1.16,1,1.88l-.93,0,0,0c-.74-.59-.65-1.23-.08-1.88Z"/><path class="cls-108" d="M27.43,60.46h1a.94.94,0,0,1,.4.86,1.66,1.66,0,0,1-.15,1,.78.78,0,0,1-.29.28.77.77,0,0,1-.92-.26Z"/><path class="cls-109" d="M45.6,56.64c-.16.7.59,1.85-.93,1.87,0-.63,0-1.25,0-1.88Z"/><path class="cls-110" d="M27.65,56.56l.75.07a1.33,1.33,0,0,1,.12,1.92.74.74,0,0,1-1.07-.06C27.49,57.84,27.22,57.16,27.65,56.56Z"/><path class="cls-111" d="M27.45,58.49l.91,0,.15.11a.62.62,0,0,1-.1.81l-1,0Z"/><path class="cls-112" d="M28.4,67.1v-.95a.72.72,0,0,1,1-.05.7.7,0,0,1-.07,1Z"/><path class="cls-113" d="M29.34,67.1l0-.9a.69.69,0,0,1,1-.11.68.68,0,0,1,0,1l0,.06Z"/><path class="cls-114" d="M27.44,62.33l.86,0c.39.27.35.59.1.93h-1C27.43,63,27.44,62.65,27.44,62.33Z"/><path class="cls-115" d="M26.45,44.38c.06-.89-.27-1.94.93-2.39a2.41,2.41,0,0,1,1.18-.22,1.23,1.23,0,0,1,1,.39,1,1,0,0,1,.05,1.05.92.92,0,0,1-.83.46c-.31.07-.78,0-.78.47s.47.39.79.47c.57.09,1.19-.17,1.7.28a2.76,2.76,0,0,1,.38,1c.25.8,1.22,1.33.89,2.35,0,2.15.06,4.3,0,6.44a1.2,1.2,0,0,1-.44,1h0c-.84,0-1-.52-.95-1.19,0-1.8,0-3.59,0-5.39,0-.56-.11-1-.81-1.1C26.63,47.49,26.45,47.26,26.45,44.38Z"/><path class="cls-116" d="M24.52,48c0,2.21,0,4.42,0,6.63l-.9.09-.19-.1a1.25,1.25,0,0,1-.31-1,11.25,11.25,0,0,1,0-2.84c.15-1-.31-2,.37-2.87A.77.77,0,0,1,24.52,48Z"/><path class="cls-117" d="M28.36,58.52c0-.63,0-1.26,0-1.89h1.89a.79.79,0,0,1,.25.91,7.88,7.88,0,0,0-1.23,1.22.79.79,0,0,1-.91-.26Z"/><path class="cls-118" d="M24.3,47a1.49,1.49,0,0,1,.23-.94c1.47.21.8,1.37,1,2.15l-.95-.48C24.23,47.57,24.25,47.29,24.3,47Z"/><path class="cls-119" d="M30.27,57.58c0-.32,0-.63,0-.95l1-.07v.07a1.33,1.33,0,0,1,.35,1.7.84.84,0,0,1-1.23.46.73.73,0,0,1-.3-.28A.77.77,0,0,1,30.27,57.58Z"/><path class="cls-120" d="M23.58,55.63c-.07,1.45-1.2.81-1.92,1a.84.84,0,0,1-.14-1.06,1.06,1.06,0,0,1,1.05-.32A1.18,1.18,0,0,1,23.58,55.63Z"/><path class="cls-121" d="M21.69,55.67l0,.93c-.32,0-.64.3-1,0a.74.74,0,0,1,0-1A.68.68,0,0,1,21.69,55.67Z"/><path class="cls-122" d="M18.79,57.55l0-.92.06-.15a.55.55,0,0,1,.72-.08.36.36,0,0,1,.14.27C19.78,57.34,19.41,57.58,18.79,57.55Z"/><path class="cls-30" d="M23.58,55.63l-1,0a.77.77,0,0,1-.21-.89.69.69,0,0,1,1.17-.08l.07.09Z"/><path class="cls-123" d="M20.75,55.68l-.05.92-1,.07v-.1c-.38-.91-.29-1.06.69-1.17A.61.61,0,0,1,20.75,55.68Z"/><path class="cls-124" d="M67.63,53.73l.07,1-.09.16a.9.9,0,0,1-.87.2c-.3,0-.58-.27-1-.06.19.53.82.43,1.11.78a.83.83,0,0,1,.13.7.77.77,0,0,1-.18.33c-.63.13-.69.83-1.13,1.15a2.7,2.7,0,0,1-1,.09c-1.94.06-3.91.23-5.61-1-.46-.21-.45-.71-.65-1.08-.34-.66-.93-.88-1.46-.48s-1.14.52-1.53,1a.61.61,0,0,1-.29.17l-.93-.09a2.44,2.44,0,0,0-1.06-.66.56.56,0,0,1-.22-.24c-.13-.5-.52-.53-.94-.51a1,1,0,0,1-.85-.35c-.41-1,.2-1.43,1-1.6A2,2,0,0,0,53.81,52a1.71,1.71,0,0,1,2.79,0c.85,1.36,1.19,1.36,2,0,.61-1,3.26-1.13,3.73,0s1.31,1.23,2.32,1.12a14.33,14.33,0,0,1,2.07.07A1.25,1.25,0,0,1,67.63,53.73Z"/><path class="cls-125" d="M52.33,56.6c-.72-.16-1.86.48-1.91-1a1.39,1.39,0,0,1,2-.12A.8.8,0,0,1,52.33,56.6Z"/><path class="cls-126" d="M52.31,55.7l-1.89-.08-.08-.91a.56.56,0,0,1,.22-.26.69.69,0,0,1,.82.19l.9.08a.58.58,0,0,1,.28.74A.64.64,0,0,1,52.31,55.7Z"/><path class="cls-127" d="M59.06,59.45l-.25.06-.7-.06a.74.74,0,0,1-.18-1,.82.82,0,0,1,1-.26.75.75,0,0,1,.33.26A.78.78,0,0,1,59.06,59.45Z"/><path class="cls-122" d="M58.07,58.53c0,.31,0,.61,0,.92-.65.06-1-.2-1-.88l.07-.16a.56.56,0,0,1,.78,0Z"/><path class="cls-128" d="M55.21,57.56v-.9a.13.13,0,0,1,0-.12c.86-.42,1.27-.14,1.26.8a.87.87,0,0,1-.25.37A.78.78,0,0,1,55.21,57.56Z"/><path class="cls-122" d="M55.21,57.56l.93.07a.56.56,0,0,1,0,.87C55.51,58.55,55.17,58.25,55.21,57.56Z"/><path class="cls-129" d="M56.18,58.5l0-.87a.5.5,0,0,0,0-.13.77.77,0,0,1,.89-.19.66.66,0,0,1,.28.27.74.74,0,0,1-.23.89v.1Z"/><path class="cls-130" d="M49.46,54.68l0-1a.7.7,0,0,1,1-.05.72.72,0,0,1,0,1l-.13.06Z"/><path class="cls-131" d="M52.33,56.6l0-.9,0-.1a.69.69,0,0,1,.95,0v0a.64.64,0,0,1,0,.93Z"/><path class="cls-132" d="M53.31,56.58l0-.93c.7-.09,1,.24,1,.92Z"/><path class="cls-133" d="M67.64,59.44H60a.77.77,0,0,1-.11-1.08c.47-.49,1.07-.31,1.63-.31h3.12a10.43,10.43,0,0,1,2.84.15.78.78,0,0,1,.34.26A.76.76,0,0,1,67.64,59.44Z"/><path class="cls-134" d="M67.7,54.68l.88,0v3.8c-.28.25-.56.32-.85,0l-.11,0c-.66-.51-.4-1.24-.45-1.9s-.15-1.36.4-1.92Z"/><path class="cls-135" d="M60,58.54l0,.89-.95,0,0-.93A.59.59,0,0,1,60,58.54Z"/><path class="cls-10" d="M67.74,58.53l.85,0c.15.79-.18,1.08-1,.94Z"/><path class="cls-136" d="M14,59.43H6.35a.61.61,0,0,1-.07-.89l.09-.06c.68-.79,1.59-.34,2.4-.45h4.11a1.45,1.45,0,0,1,1.2.31A.78.78,0,0,1,14,59.43Z"/><path class="cls-137" d="M6.28,58.55l.07.89c-.78.15-1.11-.15-.94-.94Z"/><path class="cls-138" d="M14,59.43l0-.89a.54.54,0,0,1,.75-.24.49.49,0,0,1,.21.26l0,.89Z"/><path class="cls-80" d="M15.94,57.59l0,.87-.92.1-.05-.11a.62.62,0,0,1,.06-1A.63.63,0,0,1,15.94,57.59Z"/><path class="cls-139" d="M15.94,57.59c-.67-.09-1,.13-1,.86l-.91.09-5.31-.06a.8.8,0,0,1-.12-1,1.12,1.12,0,0,1,1-.33c.62,0,1.24,0,1.86,0,.24,0,.6.08.76-.17.72-1.12,1.84-.8,2.87-.82a5.37,5.37,0,0,1,1.06,0c.86.15,1,.47.68,1.41l0,0Z"/><path class="cls-140" d="M16.86,57.52c-.08-1.45-1.24-.74-1.93-1a1.43,1.43,0,0,1-.33-1.74c.25-.63.84-.6,1.41-.61,1,0,2-.16,2.72.9.35.53.5,1,.06,1.48l0,0c-.69-.12-1.11.07-1,.87Z"/><path class="cls-141" d="M6.37,46.07l-.09-3.36.06-15c0-.59,0-1.19,0-1.78a.75.75,0,0,1,1-.1,1.3,1.3,0,0,1,.37,1c0,.36,0,.73,0,1.09a15.52,15.52,0,0,1,0,2.81,17.58,17.58,0,0,1,0,2.81,12.31,12.31,0,0,1,0,1.92c0,.35,0,.7,0,1.06a12.18,12.18,0,0,1,0,1.91,16.6,16.6,0,0,1,0,2.82,18.68,18.68,0,0,1,0,2c0,1,.27,2-.38,2.89A.76.76,0,0,1,6.37,46.07Z"/><path class="cls-142" d="M7.3,25.94l-.94,0c0-.94,0-1.88,0-2.83L12.09,23l0,.07a.75.75,0,0,1,.24.92.78.78,0,0,1-.29.28,8,8,0,0,1-2.49.19c-.39,0-.81,0-.95.49a.85.85,0,0,1-.21.25,1.5,1.5,0,0,0-.91.64Z"/><path class="cls-143" d="M6.37,46.07h.88l.21.11a2,2,0,0,1,.4,1.46c0,1.4,0,2.79,0,4.19.06,1.15.08,2.31,0,3.46a2.15,2.15,0,0,1-.4,1.35.75.75,0,0,1-1.08,0Z"/><path class="cls-144" d="M6.37,56.61h.92l.16,0a1.21,1.21,0,0,0,.93.58.52.52,0,0,1,.34.34c0,.31,0,.61,0,.91H6.37Z"/><path class="cls-145" d="M67.64,38.4l.06,4.79h-.09a.77.77,0,0,1-.85.26l-.1,0c-1-1.34-1-1.34-1.78.12a6.47,6.47,0,0,1-2.59.12c-.56,0-.78-.47-.95-.94a.91.91,0,0,0-.89-.68c-.46,0-.66.34-.86.71a2.52,2.52,0,0,1-3.88.25c-.36-.54-.62-.79-1,0s-.94.77-1.61.71A1.51,1.51,0,0,1,52,41.27c.44-1,.68-2,1.15-3a.9.9,0,0,1,.94-.25,1.45,1.45,0,0,1,.22.09c.5.25.33,1.22,1,1.12.52-.08.4-.93.91-1.17a1.8,1.8,0,0,1,.94-.18,3.3,3.3,0,0,1,1.76.14c.4.13.47.51.62.82s.43.77.95.77.75-.37,1-.78a1.6,1.6,0,0,1,.41-.71,2.81,2.81,0,0,1,1-.33,1.45,1.45,0,0,0,1.39-1.48c0-.47.09-1,.63-1.16a2.27,2.27,0,0,1,2,.12,3.4,3.4,0,0,1,.2,2.74c-.35.41-.77.76-1.15,1.16.36-.27.6-.66,1-.93A.59.59,0,0,1,67.64,38.4Z"/><path class="cls-146" d="M66.71,38.39V35.51a2.12,2.12,0,0,1-.33-.34c-.42-.76-.83-.75-1.25,0a1.77,1.77,0,0,1-.33.34c0,2.87,0,2.87-2.88,2.88l-.18-.1a4.25,4.25,0,0,1-.5-2.84.8.8,0,0,1,.47-.29c.44-.1,1.14-.07,1.09-.63s-.74-.42-1.2-.43a11.61,11.61,0,0,1-2.7,0c-1.21-.22-1.31-.36-1.23-1.76a23,23,0,0,0,1.41-1.84,3.38,3.38,0,0,1,2.61-.11c.4.09.55.4.67.74a1.24,1.24,0,0,0,1.42.94c.4,0,.8,0,1.2,0a16.12,16.12,0,0,1,1.84.16.92.92,0,0,1,.81.46c0,1.92,0,3.83,0,5.74h-.93Z"/><path class="cls-147" d="M67.62,32.66l-.93,0a2.75,2.75,0,0,1-.4-.44c-.36-.63-.71-.71-1.11,0a.62.62,0,0,1-.41.24.94.94,0,0,1-.93,0c-.74-.37-.52-1.11-.65-1.71a5.93,5.93,0,0,1,.44-2.91.94.94,0,0,1,.95-.28.85.85,0,0,1,.34.14l.08.09c.28.32.22,1.1.78,1s.42-.8.43-1.29c0-1.65.23-1.91,1.41-1.52l.07,0c0,.64,0,1.27,0,1.9C67.65,29.45,67.64,31.06,67.62,32.66Z"/><path class="cls-148" d="M50.47,54.65l-.12-.92,0-.16c.71-.3.27-1.22.88-1.57.61-.92,1.48-1.72,1.53-2.92a1.56,1.56,0,0,1,.5-1.37,4.27,4.27,0,0,1,2.57-.17,1.62,1.62,0,0,1,1.08.6c.62.63,1.28.37,1.52-.52A2.46,2.46,0,0,1,59,45.86a3.36,3.36,0,0,1,2.74-.16c.68.27.7.9.79,1.48s.12.93.69,1,.81-.41,1-.89,0-1.24.72-1.52a2.32,2.32,0,0,1,1.81,0c.59.25.55.82.53,1.26a3.18,3.18,0,0,0,.44,1.92c0,1.6,0,3.2,0,4.8a1.47,1.47,0,0,1-.93-.25c-.64-.78-1.27-.94-1.91,0a4.21,4.21,0,0,1-1.76.25c-.72,0-1.12-.24-1.13-1,0-1.05-.81-.89-1.46-.9s-1.38-.1-1.38.86-.71,1.06-1.46,1.06-1.47,0-1.45-1.08c0-.59-.34-.83-.91-.84s-1,.16-1,.78c0,1-.57,1.17-1.39,1.14s-1.43-.1-1.5.91Z"/><path class="cls-149" d="M67.64,48.93c-1.3-.63-.84-1.84-.94-2.87-.52-.27-.41-1.21-1-1.21s-.44.94-1,1.21a11,11,0,0,1-.05,1.41,1.62,1.62,0,0,1-1.93,1.45c-1.12-.07-.86-.91-.9-1.57,0-.43,0-.86,0-1.3L62,45.9c.05-.06.12-.1.17-.15.24-.22.76-.25.69-.67s-.55-.46-.92-.53a4.25,4.25,0,0,0-2.86,0,1.42,1.42,0,0,0-1.45,1.51c-.1,1.07.91,1.31,1.43,1.91a1.34,1.34,0,0,1-2.21.65,7.25,7.25,0,0,1-1.88-2.54,1,1,0,0,0-1-.51,1.39,1.39,0,0,1-.87-.39,1.46,1.46,0,0,1-.22-1,1.1,1.1,0,0,1,.4-1c.72,0,1-.37,1-1s.38-.89,1-.88.92.26.91.85c0,1.07.68,1.07,1.44,1.07s1.48,0,1.45-1c0-.68.42-.92,1-.86s1.65-.35,1.72.53c.13,1.51,1,1.41,2.05,1.38.32,0,.64,0,1,0a1.16,1.16,0,0,1,1.9,0h.91Z"/><path class="cls-150" d="M67.65,23.09V24a1,1,0,0,1-.88.46c-.34,0-.69,0-1,0h-1c-.93,0-1.86,0-2.8,0a1.14,1.14,0,0,1-1.05-.33A.79.79,0,0,1,61,23.09Z"/><path class="cls-151" d="M61,23.09V24A1.13,1.13,0,0,1,59,24c-.07-.73.39-.91,1-1Z"/><path class="cls-152" d="M66.66,24.05l1-.05v1l0,0C66.58,25.28,66.44,25.15,66.66,24.05Z"/><path class="cls-146" d="M66.66,24.05c-.06.74.31,1,1,.94,0,.31,0,.62,0,.93-1.4.11-.78,1.19-.92,1.91a1.15,1.15,0,0,1-1.91,0h0c-.71-.94-.73-1.64.09-2.42.42-.39.29-1.08.85-1.35Z"/><path class="cls-153" d="M26.46,17.35c-.05.33,0,.77-.46.81s-.44-.35-.53-.64A1.19,1.19,0,0,1,26.46,17.35Z"/><path class="cls-154" d="M23.55,17.27v-.89c.36,0,.89-.13.89.45S23.92,17.26,23.55,17.27Z"/><path class="cls-155" d="M36.05,21.63c.83-.21,1-.84,1-1.57s0-1.19,0-1.78c-.11-.12-.2-.29-.34-.33-.79-.23-1.3-.71-1-1.55a1.82,1.82,0,0,1,1.48-1.48A1.92,1.92,0,0,1,39.34,16a2.22,2.22,0,0,1,.27,1c-.17,1,.45,1.4,1.22,1.72a3.38,3.38,0,0,1-1,3.1c-.61.6-.48,1.38-.46,2.11,0,.93-.19,1.58-1.3,1.46-.36-.05-.53.09-.51.44,0,.86-.31,1.72,0,2.58q-.16,5.55-.14,11.1a2.71,2.71,0,0,0,.42,1.87.77.77,0,0,1-.08,1,9.55,9.55,0,0,1-4.69.1,5,5,0,0,1,.25-4.75,2,2,0,0,0,.29-1.4,5.74,5.74,0,0,1,.09-1.31A2,2,0,0,0,34.61,33c-.07-.76,0-1.54,0-2.31A5.76,5.76,0,0,1,34.71,29c1.33-.8.73-2.1.83-3.22a13.59,13.59,0,0,1,0-2.78C35.57,22.5,35.44,21.92,36.05,21.63Z"/><path class="cls-156" d="M22.64,28.82l-.05.9a.81.81,0,0,1-1,.23c-.55-1-1.42-1.85-1.37-3.14,0-.94.43-1.43,1.35-1.37s1.51,0,1.63-1.13c.06-.59.63-.75,1.21-.64a2.19,2.19,0,0,0,2.05.83h2c.45,0,.5-.3.47-.65a.74.74,0,0,1,.36-.79c.67,0,1.34,0,2,.07a.83.83,0,0,1,.83.71c.07.4.1.84-.31,1.05-.57.3-.71,1.22-1.57,1.07H27.63a1.19,1.19,0,0,0-1.2.57c-.43.71-1.25.24-1.88.38A3.84,3.84,0,0,0,22.64,28.82Z"/><path class="cls-157" d="M37,28.09c0-1.15,0-2.3,0-3.45,0-.31,0-.72.36-.82s.46.33.57.61.19.57.54.52.36-.44.42-.74c.15-.85-.45-2,1-2.36l0,.26a1.37,1.37,0,0,1,.47,1.39c-.06.65.2.92.8.94s1.12.57,1,1.35c-.23.5-.83.67-1,1.19a1.2,1.2,0,0,0-.75,1.29,4.85,4.85,0,0,1-.22,2.53c-1,.33-1.61.14-1.65-.71A2.16,2.16,0,0,0,37,28.09Z"/><path class="cls-158" d="M41.79,25.93c0-.68-.3-1-1-1a1.88,1.88,0,0,1,0-2.62c.18-.07.42-.09.54-.22.83-.94,1.57-1.48,2.66-.2.54.62,2,.08,2.5-.76a.73.73,0,0,1,1-.18,4.41,4.41,0,0,1,1.14,3.07,2.19,2.19,0,0,1-2.73,0c-1.43-.94-2.57-.35-2.69,1.32,0,.64.15,1.39-.64,1.78C41.55,27.06,41.48,27,41.79,25.93Z"/><path class="cls-159" d="M40.83,18.75a.91.91,0,0,0-.93.6c-.1.26-.21.56-.58.42s-.26-.44-.24-.72a4.75,4.75,0,0,0-.18-2.88,1.33,1.33,0,0,0-1.43-.77c-.54,0-1.06.07-1.3.64a1,1,0,0,0,.51,1.38c.32.18.3.54.31.86-.75-.06-1,.38-1,1s-.41.87-1,.86-.87-.39-.89-1c-.07-1.93,1.18-3.24,2.3-4.52.71-.81,3.32.26,3.38,1.37A5.47,5.47,0,0,0,40.83,18.75Z"/><path class="cls-160" d="M48.49,24c-.69-.92-.56-2.4-1.93-2.87h0a7.26,7.26,0,0,0-1-1c-1.29-.07-.87-1.06-1-1.77s.15-1.18,1-1.13c.43.11.49.45.48.81s.31.57.68.6a4.07,4.07,0,0,1,.83.22c.46.27.52,1,1.14,1.05.15.63.84.76,1.12,1.27.14,1.23,0,2.47.06,3.71,0,.39,0,.78,0,1.16,0,.71-.35,1.19-1.17,1.1a.93.93,0,0,1-.41-.2A1.51,1.51,0,0,1,48,26a7.36,7.36,0,0,1,0-1A1,1,0,0,1,48.49,24Z"/><path class="cls-161" d="M29.32,23.05V24c-.38.8-1.12.43-1.72.52a2.5,2.5,0,0,1-1-.14.83.83,0,0,1-.33-.22c-.3-.73-.24-1.64-1-2.11a3.75,3.75,0,0,1-.13-1.85,1.11,1.11,0,0,1,.44-1c.38,0,.79,0,.95.47s.54.48.94.46l1,0h0A3.48,3.48,0,0,0,29.32,23.05Z"/><path class="cls-162" d="M36,23.07v2.81a1.73,1.73,0,0,0-.44,1.47,2.11,2.11,0,0,1-.45,1.71l0,1.63a.76.76,0,0,1-1,.14c-.77-1.11-.24-2.36-.4-3.53A1.41,1.41,0,0,0,33.21,26l0-.94a1.42,1.42,0,0,0,.48-1.24.92.92,0,0,1,.54-1C34.86,22.51,35.51,22.4,36,23.07Z"/><path class="cls-163" d="M46.6,19.21c-1.46-.05-.82-1.18-1-1.91,0-.48.12-.85.65-1s.54-.51.55-.92a2,2,0,0,1,2.68-.06l.9.07v.93c-.31.73-1.45.19-1.66,1.08a.86.86,0,0,1-.27.2,2.85,2.85,0,0,1-.81.21C46.75,17.86,47.25,19,46.6,19.21Z"/><path class="cls-164" d="M31.3,29.8c-.05-.39-.07-.8-.5-1a.86.86,0,0,1-.47-1c.36,0,.81,0,.84-.44.07-1.17.72-1,1.49-.77a1.75,1.75,0,0,0,.46,0,.67.67,0,0,1,.32.28,2.62,2.62,0,0,1,.09,1.85A16.62,16.62,0,0,0,32.25,30,.84.84,0,0,1,31.3,29.8Z"/><path class="cls-165" d="M36,23.07H34.16c-.79-.63-.63-1.28,0-1.93.65.12,1.44-.3,1.92.49C36,22.11,36,22.59,36,23.07Z"/><path class="cls-166" d="M34.13,21.14l0,1.93c-.23.7.48,1.88-1,1.95,0-.95,0-1.9,0-2.84C33.15,21.51,33.41,21.12,34.13,21.14Z"/><path class="cls-90" d="M40.85,9.61h2.84c0,1.25-.93.93-1.62,1S40.76,10.54,40.85,9.61Z"/><path class="cls-167" d="M49.5,15.34l-2.68.06a1.55,1.55,0,0,1-.22-1h1.91C49.14,14.41,49.53,14.65,49.5,15.34Z"/><path class="cls-168" d="M28.37,20.18c0-.74,0-1.49.05-2.23,0-.4.34-.78.69-.36s.22,1.28.19,1.93-.46.66-.93.66Z"/><path class="cls-169" d="M40.86,22.35c0,.88,0,1.75,0,2.62-.65,0-1-.31-.94-.95s0-1.27,0-1.91A1.35,1.35,0,0,1,40.86,22.35Z"/><path class="cls-170" d="M33.2,26.9l-.08-.24.09-.7c.7-.06,1,.3.89.95A.61.61,0,0,1,33.2,26.9Z"/><path class="cls-158" d="M45.6,20.2c.69-.05,1,.26,1,1C45.9,21.18,45.59,20.85,45.6,20.2Z"/><path class="cls-171" d="M46.62,12.54l0,.94-.93,0c0-.31,0-.61,0-.92a.57.57,0,0,1,.87,0Z"/><path class="cls-172" d="M49.4,21.16c-.72,0-.94-.37-.91-1a2.26,2.26,0,0,1,0-2.85h0c.34-.25.67-.33,1,0,.17.67-.54,1.76.87,1.85l.11,0a.83.83,0,0,1,.28.85.77.77,0,0,1-.19.31C50.06,20.49,49.91,21.1,49.4,21.16Z"/><path class="cls-173" d="M49.47,17.35l-1,0c0-1.53,1.22-.77,1.92-1v1Z"/><path class="cls-174" d="M51.39,19.25h.92a.72.72,0,0,1,.08,1,.81.81,0,0,1-1.07,0A.72.72,0,0,1,51.39,19.25Z"/><path class="cls-175" d="M52.35,20.15l0-.9.95,0c0,.29,0,.58,0,.87A.58.58,0,0,1,52.35,20.15Z"/><path class="cls-176" d="M51.39,19.25l0,.91a.6.6,0,0,1-.93,0c0-.32,0-.64,0-1Z"/><path class="cls-177" d="M46.53,12.49l-.87,0c-.09-.69.15-1.07.9-1Z"/><path class="cls-178" d="M21.65,21.1l0-.91a.61.61,0,0,1,0-.92l0,0h2.84a.75.75,0,0,1,.18,1.12c-.52.15-.72.61-1,1a1.31,1.31,0,0,1-.37.15C22.71,21.6,22.05,21.87,21.65,21.1Z"/><path class="cls-179" d="M24.58,20.17l-.07-.92,1,0,0,1A.58.58,0,0,1,24.58,20.17Z"/><path class="cls-180" d="M21.7,19.27l0,.92-1-.05,0-.86Z"/><path class="cls-181" d="M50.43,20.2l.93,0H53.3l1,.09v.85a.92.92,0,0,1-.86.52c-.5-.05-.67.34-.9.66-.62.13-.72.87-1.27,1.1a1,1,0,0,1-1-.25,2.82,2.82,0,0,1,.25-2.93Z"/><path class="cls-182" d="M65.74,24.07c0,.75.16,1.52-.71,2.09-.5.33-.19,1.11-.23,1.68l-1,0-.15-.07c-.46-.77-.9-1.56-2-1.38a8.25,8.25,0,0,1-2.38,0c-1-.07-1.64.32-1.68,1.41,0,.24.09.47.06.69-.18,1.09.48,1.61,1.31,2l.07.15c0,.69,0,1.4-.95,1.44-.4,0-.8,0-1.2,0a1.51,1.51,0,0,1-.85-.28,1.2,1.2,0,0,0-1.14-.69,1,1,0,0,1-.91-.47,2.74,2.74,0,0,1-.2-1.8,1.09,1.09,0,0,1,.28-.88c.31-.39.76-.64,1-1.05-.4.25-.61.68-1,1a.74.74,0,0,1-.92.09.85.85,0,0,1-.27-.35,18.29,18.29,0,0,1-.13-4.05.91.91,0,0,1,1-.95,1.61,1.61,0,0,1,.38.08.78.78,0,0,1,.39.41c.14.31.18.78.57.82s.49-.53.73-.81a.65.65,0,0,1,.27-.17l.93.06.07.89c.59.85,1.24.61,1.91.11L59,24H61l.94.07a2.45,2.45,0,0,0,2.9,0Z"/><path class="cls-183" d="M54.26,22c.67.26,1.82-.4,1.9,1v.1a1.21,1.21,0,0,1-1.91-.07l0-.07a.55.55,0,0,1-.27-.72A.59.59,0,0,1,54.26,22Z"/><path class="cls-184" d="M52.27,22.08c.11-1.42,1.25-.79,2-1,0,.31,0,.63,0,.94v.08a1.3,1.3,0,0,1-1.71.29A.76.76,0,0,1,52.27,22.08Z"/><path class="cls-185" d="M21.65,21.1l1.89.11a.68.68,0,0,1,.06,1.05,3.22,3.22,0,0,1-3,0,.78.78,0,0,1,.09-1.1Z"/><path class="cls-186" d="M20.73,21.18l0,.89a.6.6,0,0,1-1,0l0-.92Z"/><path class="cls-187" d="M19.74,22.09l1,0,2.85.05.18.06a1.26,1.26,0,0,0,1,.42,1.07,1.07,0,0,1,1.07.54.93.93,0,0,1-.21,1,.77.77,0,0,1-1-.07c-.54,0-1,.1-1,.74,0,1-.56,1.16-1.39,1.15-.51,0-1.19-.23-1.43.5A1.26,1.26,0,0,0,21.34,28c.6.43.23,1.19.33,1.79.36,1,.29,1.15-.82,1.41-.39,0-.78,0-1.17,0a3.4,3.4,0,0,1-2-.3,3.48,3.48,0,0,1-.16-2.72c.37-.42.8-.79,1.19-1.19-.39.25-.6.67-1,1s-.68.14-1-.08c-.49-.76-.9-1.63-2.06-1.43a12.54,12.54,0,0,1-2.67,0,2.94,2.94,0,0,1-1.95-.33,1,1,0,0,1-.21-1,.89.89,0,0,1,1-.57A1.36,1.36,0,0,0,12.1,24l0,0a1.15,1.15,0,0,1,.91-.43c.34,0,.68,0,1,0a2.25,2.25,0,0,1,.93.08,1,1,0,0,1,.38.41c.41.66.81.55,1-.11a1.54,1.54,0,0,1,.54-.84l.94-.08.15.06.09.08c.26.26.27.89.75.8s.46-.66.49-1.09a1.08,1.08,0,0,1,.45-.75Z"/><path class="cls-188" d="M16.89,23.09a7.48,7.48,0,0,1-.15,1.5c-.13.45-.62.36-1,.37-.62,0-.78-.4-.8-.92s.74-.55,1-.95Z"/><path class="cls-149" d="M15.94,23.09c0,.68-.37.95-1,.95L14,24a.66.66,0,0,1,0-.94h0Z"/><path class="cls-189" d="M19.76,22.11V23a1.22,1.22,0,0,1-1.92.08V23C17.94,21.57,19.05,22.28,19.76,22.11Z"/><path class="cls-146" d="M59.07,24.08c0,.72-.44.91-1.09.88s-.88-.38-.82-1Z"/><path class="cls-190" d="M14,23.05c0,.31,0,.62,0,.94H13a.61.61,0,0,1,0-.89Z"/><path class="cls-191" d="M13,23.09V24l-1,0v-.89Z"/><path class="cls-192" d="M33.14,42.19h4.59c.87-.79,1.93-.35,2.9-.47.33,0,.67,0,1,0s.43,0,.57-.09a1.46,1.46,0,0,1,2.09,0c.18.15.45.08.68.1.87.08,1.83-.35,2.56.47v1a1.54,1.54,0,0,1-1.24.44c-2,0-3.92,0-5.87,0-1.3,0-2.59,0-3.88,0s-2.88.05-4.31,0a1.2,1.2,0,0,1-.87-.29,1,1,0,0,1-.07-1.13.82.82,0,0,1,.82-.34A1.14,1.14,0,0,1,33.14,42.19Z"/><path class="cls-193" d="M43.7,48l0,6.68a1.12,1.12,0,0,1-1.87,0l0,0c-.69-1-.68-5.75,0-6.71h0a1.13,1.13,0,0,1,1.88,0Z"/><path class="cls-41" d="M49.49,42.2V33.62a.74.74,0,0,1,1.06-.07,1.26,1.26,0,0,1,.33.74c0,2.56.16,5.12-.12,7.68a1.19,1.19,0,0,1-.25.38A.75.75,0,0,1,49.49,42.2Z"/><path class="cls-194" d="M43.71,29.77l-.05,1c-.6.84-1.5.13-2.21.42-1.15-.35-1.27-.66-1-2.35.78-.46,1.07-1.73,2.32-1.42a1.2,1.2,0,0,1,1.06.29,1.49,1.49,0,0,1,.26,1.08A1.16,1.16,0,0,1,43.71,29.77Z"/><path class="cls-195" d="M40.34,43.22l7.19,0,0,1c-.35.54-1,.49-1.45.47-1.4,0-2.81,0-4.21,0-.54,0-1.12.15-1.58-.31A.78.78,0,0,1,40.34,43.22Z"/><path class="cls-196" d="M47.53,42.21H44.69a.82.82,0,0,1-.24-1,1.92,1.92,0,0,0,.7-1.88c0-.71-.23-1.48.41-2.06a.74.74,0,0,1,1,.18c0,.6,0,1.19,0,1.78,0,.85-.15,1.76.83,2.29C47.53,41.61,47.5,42,47.53,42.21Z"/><path class="cls-197" d="M41.79,30.73h1.87c0,.62.05,1.24.08,1.87a4.42,4.42,0,0,0,1.15,1,.82.82,0,0,1,.07.9c-.51.29-.75.85-1.18,1.22a1.17,1.17,0,0,1-1,0,.77.77,0,0,1-.3-.27,3.8,3.8,0,0,1-.21-1.77c0-.83.17-1.72-.68-2.31A.7.7,0,0,1,41.79,30.73Z"/><path class="cls-198" d="M41.77,44.17H47.5v.91l-2.81,0a2.8,2.8,0,0,1-3,.17A.8.8,0,0,1,41.77,44.17Z"/><path class="cls-75" d="M50.35,53.73l-.86,0c0-1.89,0-3.79,0-5.69A.74.74,0,0,1,50.57,48c.75,1.15.22,2.41.3,3.61.05.72.26,1.54-.41,2.15Z"/><path class="cls-199" d="M48.47,26l0,.93a.7.7,0,0,1-1,.05h-.88a.62.62,0,0,1-.31-.16c-.22-.38-.59-.33-.94-.37s-.93-.18-1.06-.75c-.06-.81.4-1.14,1.14-1.21a10,10,0,0,1,1.9.1C48,24.8,47.94,25.62,48.47,26Z"/><path class="cls-200" d="M44.64,34.56v-.93a.19.19,0,0,1,0-.28c.28,0,.72.08.71.33,0,1.4,1.31,2.37,1.16,3.79H45.6l-.16-.09c-.21-.57-1-.47-1.21-1.08S44.06,35,44.64,34.56Z"/><path class="cls-201" d="M51.28,28.81c-.62,0-1.24,0-1.86,0a.84.84,0,0,1-1-.91l.1-.2a2.94,2.94,0,0,1,2.75-.09.74.74,0,0,1,.28.95A.52.52,0,0,1,51.28,28.81Z"/><path class="cls-202" d="M41.81,54.67h1.87a2.38,2.38,0,0,0,0,.26c-.08.74-.62.71-1.16.7S41.77,55.22,41.81,54.67Z"/><path class="cls-203" d="M46.63,26.94l-.07,1.84a.78.78,0,0,1-1,.19,1,1,0,0,1-.27-.36c-.34-1.66,0-2.14,1.26-1.75Z"/><path class="cls-204" d="M43.71,29.77l0-1a1.17,1.17,0,0,1,1.86,0l.06.08a.58.58,0,0,1-.06.88Z"/><path class="cls-205" d="M51.34,31.6l.07-1.85a.8.8,0,0,1,1-.13,1.08,1.08,0,0,1,.33,1,1.56,1.56,0,0,1-.23,1.05.79.79,0,0,1-1,.22A.54.54,0,0,1,51.34,31.6Z"/><path class="cls-206" d="M49.49,42.2l.85,0a.71.71,0,0,1,.5.78,1.59,1.59,0,0,1-.15,1,.53.53,0,0,1-.3.23C49.05,44,49.54,43,49.49,42.2Z"/><path class="cls-207" d="M50.44,46.07c0-.62,0-1.24,0-1.87l0-.12a.85.85,0,0,1,1.11,0,1.74,1.74,0,0,1,0,2.05A.76.76,0,0,1,50.44,46.07Z"/><path class="cls-208" d="M45.6,29.74l.06-.88.9-.08Q46.68,29.86,45.6,29.74Z"/><path class="cls-41" d="M52.31,29.78l-.9,0c0-.31-.09-.63-.13-.94h.12a.63.63,0,0,1,.92,0A.65.65,0,0,1,52.31,29.78Z"/><path class="cls-209" d="M50.44,31.7l.9-.1a.61.61,0,0,1,0,.12.75.75,0,0,1,.25.87.66.66,0,0,1-.26.29.94.94,0,0,1-1,0,.83.83,0,0,1-.26-.3A.77.77,0,0,1,50.44,31.7Z"/><path class="cls-210" d="M47.51,26.94l1-.05h0a.64.64,0,0,1,0,.92l-.06.09C47.85,27.88,47.48,27.61,47.51,26.94Z"/><path class="cls-205" d="M50.44,46.07h.89l.16.08a.71.71,0,0,1-.07,1.12.87.87,0,0,1-.88,0,.54.54,0,0,1-.19-.3Z"/><path class="cls-211" d="M50.43,48l-.93,0c-.12-.67.13-1,.85-1l.1.07a.64.64,0,0,1,.12.83Z"/><path class="cls-212" d="M44.68,33.35l0,.28c-.68,0-1-.33-.9-1C44.23,32.63,44.65,32.74,44.68,33.35Z"/><path class="cls-205" d="M50.39,33.59l-.9,0c0-.32,0-.63,0-.95a.56.56,0,0,1,.87-.05l.1,0a.61.61,0,0,1,.09.82Z"/><path class="cls-213" d="M50.35,32.62l-.87.05c-.07-.71.25-1,1-1Z"/><path class="cls-214" d="M31.26,48c.2-.91-1.23-1-1-2a1.59,1.59,0,0,1,1.46-.45c1.11,0,2.22,0,3.32,0,.81,0,1.62,0,2.43,0,.47,0,.91,0,1.16.49s.84,1.1.72,1.87a.65.65,0,0,1-.49.36,4.61,4.61,0,0,1-1.88.16,3.75,3.75,0,0,1-1.76-.16c-.53-.09-.54-1-1.22-.81a5.89,5.89,0,0,0-.84,0c-.61-.11-.65.6-1.09.74A.8.8,0,0,1,31.26,48Z"/><path class="cls-215" d="M33.16,56.64H38a5.09,5.09,0,0,0,.77.5c.73.43.75,1,.23,1.65a10.66,10.66,0,0,1-3.14.2c-1.2-.09-2.42.2-3.61-.18-.6-.74-.54-1.35.39-1.75A2.4,2.4,0,0,0,33.16,56.64Z"/><path class="cls-216" d="M41.79,48q0,3.35,0,6.71c-.73,0-1-.39-1-1,0-1.55,0-3.09,0-4.64C40.82,48.33,41.07,47.94,41.79,48Z"/><path class="cls-217" d="M38.89,48l.51,0c.56.26.47.77.48,1.24,0,1.5,0,3,0,4.52a.8.8,0,0,1-1,.17.85.85,0,0,1-.27-.35,15.09,15.09,0,0,1-.17-4.74A1.18,1.18,0,0,1,38.89,48Z"/><path class="cls-218" d="M41.77,45.06l2.92.06c0,.62-.24,1-.92.94-1.46,0-2.93,0-4.39,0a.75.75,0,0,1-.11-1,.83.83,0,0,1,.38-.23C40.39,44.62,41.14,44.39,41.77,45.06Z"/><path class="cls-219" d="M39.4,45.11l0,.91-.7.07L35.07,46a.79.79,0,0,1-.1-1.08c.38-.41.88-.3,1.34-.32.67,0,1.34,0,2,0C38.75,44.62,39.18,44.64,39.4,45.11Z"/><path class="cls-220" d="M38.94,54.7c0,.71-.41.95-1.07.94-.93,0-1.87,0-2.81,0A.77.77,0,0,1,35,54.55a4.51,4.51,0,0,1,3.8,0Z"/><path class="cls-221" d="M33.16,56.64c.2.88-1.16,1-1,1.83a.59.59,0,0,1-1,0V56.63Z"/><path class="cls-222" d="M38.89,58.47c.22-.89-1.13-1-.94-1.83h1.9c.68.49.56,1.12.31,1.78a.84.84,0,0,1-.3.32A.72.72,0,0,1,38.89,58.47Z"/><path class="cls-223" d="M43.68,48,41.8,48c0-.72.33-1,1-1S43.73,47.37,43.68,48Z"/><path class="cls-224" d="M39.87,58.51c0-.62,0-1.24,0-1.86l1,0v1.88A.6.6,0,0,1,39.87,58.51Z"/><path class="cls-220" d="M38.93,53.73h.94c.05.67-.27,1-.93,1l0,0A.62.62,0,0,1,38.93,53.73Z"/><path class="cls-225" d="M31.24,55.65l0-1a.7.7,0,0,1,1,0,.71.71,0,0,1,0,1Z"/><path class="cls-226" d="M32.23,55.62l-.09-.93s.09-.11.14-.17a.75.75,0,0,1,1,.1.71.71,0,0,1-.09,1Z"/><path class="cls-227" d="M33.18,55.6l0-.86.11-.18a.67.67,0,1,1,.84,1Z"/><path class="cls-228" d="M34.1,55.61v-.94a1.09,1.09,0,0,0,.08-.15.64.64,0,0,1,.78-.09.58.58,0,0,1,.19.27c0,.31-.07.62-.1.92Z"/><path class="cls-229" d="M32,64.3l7.89,0a1.24,1.24,0,0,1,.4,1.58.91.91,0,0,1-1.26.52,2.45,2.45,0,0,0-2-.72c-1.41,0-2.82,0-4.22,0C31.8,65.65,31.62,65.29,32,64.3Z"/><path class="cls-230" d="M38.93,66.19c1.51,0,.71-1.19.92-1.87l1,0c0,.11,0,.29,0,.34,1.42,1.2.2,1.83-.57,2.49a1.2,1.2,0,0,0-.45.91l-3.79,0c0-.3,0-.59,0-.88l0-.17c.36-.47.88-.36,1.36-.37s1,.08,1.33-.41Z"/><path class="cls-231" d="M32,64.3c0,.74.44.93,1.08.92,1.58,0,3.16,0,4.74,0,.69,0,1.17.18,1.15,1h0c-.83.82-1.88.33-2.83.46a32.85,32.85,0,0,1-4.65-.14,1.07,1.07,0,0,1-.37-.22,1.45,1.45,0,0,1-.24-1,1,1,0,0,1,.41-.94Z"/><path class="cls-232" d="M46.54,60.47v2.79h-1.9a.79.79,0,0,1-.29-.81,1.28,1.28,0,0,0,0-1.19.8.8,0,0,1,.31-.81Z"/><path class="cls-233" d="M44.65,62.36c0,.31,0,.61,0,.91H39.87a.77.77,0,0,1-.23-.93.81.81,0,0,1,.29-.29,2,2,0,0,1,1-.18c1.19.12,2.43-.32,3.58.29Z"/><path class="cls-234" d="M35.11,63.26H31.25a.76.76,0,0,1-.17-1,.83.83,0,0,1,.35-.26c1.26-.14,2.53-.44,3.76.16A.78.78,0,0,1,35.11,63.26Z"/><path class="cls-235" d="M35.11,63.26l0-.9A.87.87,0,0,1,36,61.9a8.53,8.53,0,0,1,2.76.12.88.88,0,0,1,.34.26.74.74,0,0,1-.18,1Z"/><path class="cls-236" d="M28.42,65.25l0-1h1.88a.73.73,0,0,1,.06,1.06A1.33,1.33,0,0,1,28.42,65.25Z"/><path class="cls-237" d="M30.3,65.21l0-.91h1c0,.31,0,.62,0,.93a.64.64,0,0,1-.83.11Z"/><path class="cls-238" d="M28.4,63.28l-.1-.93h.11a.66.66,0,1,1,.93.93Z"/><path class="cls-239" d="M29.34,63.27l0-.87a1.42,1.42,0,0,0,.08-.18.74.74,0,0,1,.9-.11.73.73,0,0,1,.26.29.76.76,0,0,1-.27.87Z"/><path class="cls-240" d="M30.28,63.27l0-.88a.56.56,0,0,1,.92,0v.89Z"/><path class="cls-241" d="M38.91,63.26V62.4a.58.58,0,0,1,1,0c0,.31,0,.61,0,.92Z"/><path class="cls-242" d="M39.88,62.36l-1,0v-.11c-1-.8-2.1-.26-3.14-.42H32.49a2,2,0,0,1-1.32-.33.76.76,0,0,1,.07-1.06h8.62a1.15,1.15,0,0,1,0,1.88Z"/><path class="cls-243" d="M39.87,58.51h1l3.75,0c0,.31.07.61.11.91l-4.84,0a.64.64,0,0,1,0-.92Z"/><path class="cls-244" d="M31.24,58.5l1,0,3.59.08a.59.59,0,0,1,0,.88H31.23a.61.61,0,0,1,0-.9Z"/><path class="cls-245" d="M35.81,59.43l0-.88,3.1-.08,1,0,0,.92Z"/><path class="cls-246" d="M44.66,60.46v.92l-.12.2a5,5,0,0,1-3.78,0,.76.76,0,0,1,.06-1.07Z"/><path class="cls-241" d="M40.82,60.46l0,.91a.72.72,0,0,1,0,1h-.94l0-1.88Z"/><path class="cls-247" d="M31.24,60.47l.07.9a.75.75,0,0,1,0,1v0h-.92l-.09-.06a1.06,1.06,0,0,1-.33-.95.93.93,0,0,1,.41-.9Z"/><path class="cls-248" d="M30.32,60.48l-.05.93a1,1,0,0,1-.93.36,1,1,0,0,1-.92-.37l0-.93Z"/><path class="cls-249" d="M28.4,58.5h1a.64.64,0,0,1,.92,0l.05.1a.58.58,0,0,1,0,.87H28.41C28.4,59.13,28.4,58.81,28.4,58.5Z"/><path class="cls-222" d="M30.28,59.45c0-.29,0-.58,0-.87l.94,0,0,.9Z"/><path class="cls-250" d="M44.63,65.2c0,.63,0,1.26.08,1.88-.63.08-1-.15-1-.82S43.91,65.2,44.63,65.2Z"/><path class="cls-251" d="M31.3,66.24l4.71,0a.59.59,0,0,1,0,.89l0,.09-4.79-.07C31,66.81,31,66.51,31.3,66.24Z"/><path class="cls-252" d="M31.3,66.24l-.07.89-1,0c0-.31,0-.61,0-.91l.12-.15a.62.62,0,0,1,.81.11Z"/><path class="cls-253" d="M28.42,65.25l1.88,0h0a.72.72,0,0,1,0,1h-1l-.9,0Z"/><path class="cls-254" d="M28.42,61.4h.93a.61.61,0,0,1,0,.89l0,.1-.9-.06Z"/><path class="cls-255" d="M24.52,35.52v7.64a.76.76,0,0,1-1.06.09c-.53-.6-.38-1.32-.37-2,0-1.15,0-2.31-.06-3.46a3.15,3.15,0,0,1,.4-2.3A.77.77,0,0,1,24.52,35.52Z"/><path class="cls-256" d="M24.52,35.52H23.6l-.15,0c-.58-.45-.11-1.5-1-1.74-.14-.6-1-.57-1.08-1.19a.92.92,0,0,1,.25-1,.82.82,0,0,1,1,.13,3.24,3.24,0,0,1,1.9,2.4C24.55,34.56,24.52,35,24.52,35.52Z"/><path class="cls-257" d="M28.33,40.26c0-.63.05-1.25.05-1.88s.24-1,.89-1l.18.08a1,1,0,0,1,.33.9,8.51,8.51,0,0,1,0,1,1.48,1.48,0,0,1-.25,1,.82.82,0,0,1-.95.2A.59.59,0,0,1,28.33,40.26Z"/><path class="cls-258" d="M22.63,31.68l-1,0a.64.64,0,0,1-.95,0,.63.63,0,0,1,0-.95c.68,0,1-.33.93-1l.92-.05C22.6,30.37,22.61,31,22.63,31.68Z"/><path class="cls-259" d="M22.64,28.82c0-2,0-2,1.91-1.92A2.56,2.56,0,0,1,22.64,28.82Z"/><path class="cls-260" d="M30.31,33.62c.13-.73-.5-1.8.89-1.95l.19.09a1.15,1.15,0,0,1,.3,1,1,1,0,0,1-.34,1A.82.82,0,0,1,30.31,33.62Z"/><path class="cls-261" d="M31.3,29.8l.89,0a.91.91,0,0,1,.44,1,1.12,1.12,0,0,1-.29,1.07.77.77,0,0,1-1.05-.11l-.09,0C31.24,31.05,31.27,30.43,31.3,29.8Z"/><path class="cls-262" d="M28.38,42.22a1.48,1.48,0,0,1-1-.23c.11-.69-.25-1.63.95-1.73l.08.08A1.18,1.18,0,0,1,28.38,42.22Z"/><path class="cls-263" d="M30.32,35.53v-1a.74.74,0,0,1,.92-.23.76.76,0,0,1,.28.31.84.84,0,0,1-.21,1A.75.75,0,0,1,30.32,35.53Z"/><path class="cls-264" d="M29.27,37.41c0-.6.25-1,1-.94l.18.11a.71.71,0,0,1-.07,1,.69.69,0,0,1-1-.09Z"/><path class="cls-265" d="M30.32,35.53l.91,0a.65.65,0,0,1,0,1,.61.61,0,0,1-.91,0h-.11Z"/><path class="cls-266" d="M23.56,43.17h1a1.44,1.44,0,0,1-.22,1l-.69,0-.16-.09a.61.61,0,0,1,0-.81Z"/><path class="cls-267" d="M31.19,34.55l-.86,0c0-.32,0-.64,0-1l.9,0A.58.58,0,0,1,31.19,34.55Z"/><path class="cls-268" d="M32.14,54.69l-.86,0c0-2.22,0-4.45,0-6.67l.87-.07a.77.77,0,0,1,.36.28,29,29,0,0,1,.15,5.89c0,.23-.24.4-.39.58Z"/><path class="cls-269" d="M35.09,45.13l0,.89H30.31v-.88c.32-.69,1-.49,1.51-.51s.9,0,1.35,0C33.82,44.72,34.62,44.32,35.09,45.13Z"/><path class="cls-270" d="M33.15,45.06l-2.85.07-1.89-.06A.76.76,0,0,1,28.3,44c1.23-.69,2.57-.21,3.86-.34a1.3,1.3,0,0,1,1.1.32A.76.76,0,0,1,33.15,45.06Z"/><path class="cls-271" d="M32.22,44.1l-3.82.07a.62.62,0,0,1,0-1l.92-.08a1.52,1.52,0,0,1,2.19,0l.7.07A.59.59,0,0,1,32.22,44.1Z"/><path class="cls-272" d="M31.5,43.15l-2.19,0,0-.82a.47.47,0,0,1,.16-.32,1.17,1.17,0,0,1,.88-.22,1.68,1.68,0,0,1,.91.19.59.59,0,0,1,.22.3Z"/><path class="cls-273" d="M28.39,43.21v1.86c-.55.06-1,0-1-.71S27.47,43.08,28.39,43.21Z"/><path class="cls-274" d="M28.38,42.22l0-1.88.87,0,.2.1a1.17,1.17,0,0,1-.14,1.79v.12Z"/><path class="cls-266" d="M24.3,47c.09.24.17.49.25.73l0,.27-.95,0-.14-.07a.59.59,0,0,1-.08-.75.5.5,0,0,1,.26-.17Z"/><path class="cls-275" d="M23.54,50.86l0,2.85c-.3.34-.63.65-.95,1h0a.88.88,0,0,1-.89.28c-.43-.7-1.24-.77-1.88-1.11s-.53-1.32-1.4-1.08c-.6.17-.88.79-1.33,1.17a1.85,1.85,0,0,1-2.69-.67,1.25,1.25,0,0,0-1.15-.88,3.63,3.63,0,0,1-1.16-.27.92.92,0,0,1-.31-.24.88.88,0,0,1,.27-1.31,4.06,4.06,0,0,1,2.62-.14c1.56.41,1.56.41,1.71-1.68a2.24,2.24,0,0,1,2.13-2.09.93.93,0,0,1,.35.13c.28.36.49.83,1.09.7a1.2,1.2,0,0,1,.88.22c.23.42.47.79,1.07.76.84,0,1.22.4,1.15,1.24A1.34,1.34,0,0,0,23.54,50.86Z"/><path class="cls-276" d="M23.54,50.86c-.64,0-.93-.33-.91-1a.85.85,0,0,0-1-1A.8.8,0,0,1,20.7,48a2.14,2.14,0,0,1,2.84,0l0,0Z"/><path class="cls-277" d="M22.62,54.68c-.06-.69.29-1,.95-1l0,.92Z"/><path class="cls-278" d="M22.72,45.1l0,.73c.22.44.44.89.06,1.36-1.4.62-2.05.4-2.39-.82.08-.72.69-1,1.11-1.51a1.18,1.18,0,0,1,1,0A.71.71,0,0,1,22.72,45.1Z"/><path class="cls-266" d="M22.64,47l0-1.18c.55.19,1,.5.94,1.16l-.06.06A.6.6,0,0,1,22.64,47Z"/><path class="cls-266" d="M23.61,44.17c0,.58-.23,1-.89.93H22.6a.69.69,0,1,1,1-1Z"/><path class="cls-279" d="M30.27,58.48h-.92c-.08-.69.23-1,.92-.91Z"/><path class="cls-280" d="M21.66,54.66l1,0,0,.92-.89.07h-.94l-.08-.08C20.43,54.52,20.57,54.38,21.66,54.66Z"/><path class="cls-281" d="M21.66,54.66a.9.9,0,0,0-1,.94c-.65,0-1,.3-.92,1l-1,0a2.64,2.64,0,0,0-3.33-1.83c-.82.38-.38,1.19-.53,1.8a3.42,3.42,0,0,0-2.23.75c-.73.64-2,.2-3,.21-.61-.68.07-1,.44-1.31s.72-.08.9-.62C10,56,9.45,57.48,8.07,57c-.35,0-.55-.23-.77-.44h0l0-4.8c.88-.69,1.67-.71,2.29-.06,1.27,1.32,1.27,1.32,2.45.07.48,0,.95,0,1.43,0,.85,0,1.44.09,1.5,1.17,0,.78,1.09,1,1.73.49.24-.21.41-.48.63-.71,1.32-1.37,1.54-1.34,2.54.28a1.51,1.51,0,0,0,1.08.68C21.54,53.81,21.67,54.18,21.66,54.66Z"/><path class="cls-139" d="M60,58.54l-.94,0v0a1.3,1.3,0,0,0-1.19-.5,1.13,1.13,0,0,1-.75-.43l0,0a.73.73,0,0,1,.13-1.19,1.35,1.35,0,0,1,1.79.24c.8.07,1.57,0,2.24.77.41.5,1.36.19,2.07.22H64.8a.61.61,0,0,1,0,.9Z"/><path class="cls-282" d="M59.06,56.57c-.69.21-1.84-.5-1.92,1l-1,0c.14-.81-.39-.93-1-1a2.61,2.61,0,0,1,3.24-1.8C59.4,55.07,58.89,55.94,59.06,56.57Z"/><path class="cls-283" d="M64.8,58.47v-.9l.9,0a10.88,10.88,0,0,0,1-.91l0,0a.66.66,0,0,1,.94,0V58.5Z"/><path class="cls-148" d="M66.67,55.87a3.71,3.71,0,0,0-.47,0c-.57.12-1.13.17-1.33-.55a1,1,0,0,1,.42-1.24c.66-.33,1.13,0,1.43.59C67.06,55.11,67.13,55.5,66.67,55.87Z"/><path class="cls-284" d="M64.79,53.48c.09-.66-.33-1.61.9-1.66s1,.94,1,1.66A2.39,2.39,0,0,1,64.79,53.48Z"/><path class="cls-285" d="M66.67,55.87c0-.39,0-.78,0-1.17l.87,0c0,.65,0,1.29,0,1.93l-.94,0Z"/><path class="cls-139" d="M66.72,56.61c0,.7-.33,1-1,.91C65.7,56.84,66.05,56.56,66.72,56.61Z"/><path class="cls-286" d="M53.29,55.63l-.95,0-.06-.88C53,54.63,53.33,54.92,53.29,55.63Z"/><path class="cls-287" d="M58.06,57.59c.7-.1,1.06.17,1,.91l-1,0,0,0A.61.61,0,0,1,58.06,57.59Z"/><path class="cls-32" d="M58.06,57.59l0,.91-1,0c0-.3,0-.6,0-.9Z"/><path class="cls-288" d="M8.23,56.61A1.55,1.55,0,0,0,10,55.42c.24-.73.81-.81,1.44-.69s.61.63.59,1.12c0,.73-.59.74-1.12.75s-1.21.09-1.24.92l-1,0-.45,0A.64.64,0,0,1,8.23,56.61Z"/><path class="cls-289" d="M21.68,45.12c0,.68-.31,1-1,1-.46.69-1.45.29-1.92.94a2.62,2.62,0,0,0-1.93,1.92,1.31,1.31,0,0,1-1.74.29c-1.08-.79-.77-1.82-.49-2.84.37-.41.79-.78,1.2-1.16-.43.21-.62.67-1,.94A3,3,0,0,0,12.36,49c0,.1-.16.16-.26.22a2.37,2.37,0,0,1-1.81.05c-.14-.06-.35-.11-.38-.25a4.71,4.71,0,0,0-2.6-3l-.06,0,.09-2.88c.6-.64,1.61-1,1.38-2.19-.07-.92-.1-1.82,1.16-2,.8.23,1.37,1,2.29.92a1.84,1.84,0,0,0,2.68,0c.91.07,1.5-.64,2.26-.95,1.27.09,1.28,1,1.21,1.91,0,.48-.13,1.22.52,1.21s.41-.73.41-1.19A2.36,2.36,0,0,1,20.8,38c1.9-.38,2.27-.07,2.28,1.83A3.62,3.62,0,0,1,23,41a2.35,2.35,0,0,0-.87,3.07C22.29,44.47,22,44.84,21.68,45.12Z"/><path class="cls-290" d="M10.16,39.34c-1.08.27-1,1.13-.95,1.94a1.14,1.14,0,0,1-1.88,0V38.4a1.53,1.53,0,0,1,.32-.35c.75-.42.77-.81,0-1.24a1.21,1.21,0,0,1-.32-.35v-1c.64-.57,1.43-1,1.64-2a.73.73,0,0,1,.3-.22,1,1,0,0,1,1.05.28c.45.79.88,1.61,2,1.42a3.66,3.66,0,0,1,2,.17c.36.4.7.8.44,1.4-.71.67-1.57.42-2.39.37-1.51,0-1.64.15-1.8,1.65A.71.71,0,0,1,10.16,39.34Z"/><path class="cls-291" d="M7.33,30.71V27.86c.63-.73,1.34-.56,2.06-.16a3.64,3.64,0,0,1,0,3.14C8.67,31.28,8,31.45,7.33,30.71Z"/><path class="cls-290" d="M7.33,30.71H9.21a.85.85,0,0,1,.37.78c0,.73.4,1.52-.37,2.11h0a1.15,1.15,0,0,1-1.89,0Z"/><path class="cls-292" d="M7.32,33.61l1.89,0c0,1.92,0,1.92-1.88,1.91Z"/><path class="cls-293" d="M7.33,36.46c.76.14,2-.41,1.85,1.09-.1,1.29-1.19.67-1.86.85Z"/><path class="cls-227" d="M7.33,41.24l1.88,0c0,1.88,0,1.88-1.87,1.91C7.34,42.54,7.34,41.89,7.33,41.24Z"/><path class="cls-294" d="M9.2,27.82l-1.88,0v-.95a1.37,1.37,0,0,0,.49-1.2A1.09,1.09,0,0,1,8.26,25l0,0a.75.75,0,0,1,1-.21.84.84,0,0,1,.28.34C9.65,26.06,10.06,27,9.2,27.82Z"/><path class="cls-94" d="M8.23,25.92c.07.67-.23,1-.91,1l0-1h0A.64.64,0,0,1,8.23,25.92Z"/><path class="cls-293" d="M12.1,24c-.06,1.49-1.25.7-1.92,1a.7.7,0,0,1-.94,0l0-.1a.6.6,0,0,1,0-.9Z"/><path class="cls-295" d="M8.23,25.92l-.93,0c-.07-.71.27-1,1-1Z"/><path class="cls-288" d="M9.23,24.06l0,.9-.92,0C8.18,24.26,8.48,23.92,9.23,24.06Z"/><path class="cls-296" d="M7.31,46.05c2.23.05,2.83.66,2.86,2.88.26.24.55.49.52.88-.06,1,.6,1.56,1.39,2h0c-.15.68.45,1.69-.8,1.89a1,1,0,0,1-1.2-.53A2.44,2.44,0,0,0,7.34,51.8Z"/><path class="cls-139" d="M8.23,56.61c0,.31,0,.62,0,.93-.7.07-1-.26-1-.95Z"/><path class="cls-296" d="M50.43,43.17l-.09-.94h.12a1.66,1.66,0,0,0,.43-1.41c0-1.83,0-3.66,0-5.48a2,2,0,0,1,2.32-2,1.69,1.69,0,0,1,.34,2.33,2.9,2.9,0,0,0-.3,2.75,3.75,3.75,0,0,1-.73,3c-.63.68-.16,1.56.75,1.81v1c-.73.8-1.27.15-1.85-.23A2.13,2.13,0,0,1,50.43,43.17Z"/><path class="cls-297" d="M53.26,38.41c-.92-.25-1.47-2.09-.67-2.7s.67-1.33.72-2.08l.09-.17a.75.75,0,0,1,.88-.11.72.72,0,0,1,.26.26,11.09,11.09,0,0,1,.55,2,5.45,5.45,0,0,1-.67,2.74l-.17.09Z"/><path class="cls-188" d="M61.91,38.39c0,1.89-.08,1.89-1.61,1.94S59.11,39.25,59,38.38l.12-.19a2.22,2.22,0,0,1,2.76.2Z"/><path class="cls-298" d="M59,38.38h-1.9a2.28,2.28,0,0,1,.11-3.1,1.62,1.62,0,0,1,1.89.12,2.38,2.38,0,0,1-.11,3Z"/><path class="cls-297" d="M57.36,35.52a7.42,7.42,0,0,0-.22,2.85l-1,0L56,38.3a5.38,5.38,0,0,1-.65-2.86c.23-.71.23-1.52.82-2.09a1.07,1.07,0,0,1,1.08,0C57.89,34.06,57.64,34.79,57.36,35.52Z"/><path class="cls-299" d="M56.16,38.39c0,.24,0,.47,0,.71,0,.72-.12,1.23-1,1.21s-.91-.58-.9-1.21v-.71h0a1.16,1.16,0,0,1,1.91,0Z"/><path class="cls-292" d="M64.79,35.51c0-.23,0-.47,0-.7,0-.72.12-1.24,1-1.21s.91.57.9,1.2v.71Z"/><path class="cls-300" d="M66.7,38.39c0,.28,0,.55,0,.83,0,.72-.24,1.12-1,1.08a.8.8,0,0,1-.88-.87c0-.79.36-1.07,1.09-1a7.66,7.66,0,0,0,.83,0Z"/><path class="cls-227" d="M66.7,43.18H64.8c.13-.74-.49-1.94,1-1.88S66.55,42.48,66.7,43.18Z"/><path class="cls-301" d="M61.92,30.72H59a2.43,2.43,0,0,1-.14-3,3,3,0,0,1,3.05-.1,2.6,2.6,0,0,1,.17,2.93Z"/><path class="cls-145" d="M59,38.39V35.51l.13-.19c.79-.41,1.57-.62,2.26.2a4.83,4.83,0,0,1,.49,2.87Z"/><path class="cls-189" d="M57.36,35.52a4,4,0,0,1-.24-1.94,1.14,1.14,0,0,1,0-1.86c.39,0,.81,0,1,.44,0,.69-.11,1.46,1,1.44a1.18,1.18,0,0,1,0,1.92H57.36Z"/><path class="cls-302" d="M59,35.52c0-.64,0-1.28,0-1.92h2.87a1.18,1.18,0,0,1,0,1.92H59Z"/><path class="cls-303" d="M64.77,32.4a8.81,8.81,0,0,1,.09-1.17c.11-.51.55-.48,1-.48s.81.09.85.6,0,.86,0,1.29A4,4,0,0,1,64.77,32.4Z"/><path class="cls-301" d="M63.58,30.71c.36.52.21,1.13.26,1.7-1.69.53-1.92.32-1.92-1.69h0A1,1,0,0,1,63.58,30.71Z"/><path class="cls-189" d="M61.9,35.52c0-.64,0-1.28,0-1.92h.71c.63,0,1.18.06,1.2.91s-.52,1-1.23,1C62.37,35.5,62.13,35.51,61.9,35.52Z"/><path class="cls-146" d="M63.58,30.71l-1.67,0c0-1,0-1.92,0-2.88l.12-.19a1.22,1.22,0,0,1,1.79.18v0A8,8,0,0,1,63.58,30.71Z"/><path class="cls-304" d="M64.79,27.84H66.7c-.16.73.5,2-1,1.91S65,28.54,64.79,27.84Z"/><path class="cls-305" d="M50.46,53.71l0-5.73v0c.26-.37.64-.64.9-1l0,0c.9-.53,1.31-.15,1.41.77.42,1.77-.87,3-1.38,4.5C51.3,52.9,51.66,53.83,50.46,53.71Z"/><path class="cls-189" d="M59,44.14a2.19,2.19,0,0,1,2.9,0,1.18,1.18,0,0,1,0,1.92H59l-.19-.12A1.23,1.23,0,0,1,59,44.14Z"/><path class="cls-306" d="M54.23,45.13c1.37.3,1.94,1.15,1.93,2.84L53.3,48l-.16-.1A.79.79,0,0,1,53,47C53.87,46.67,53.63,45.63,54.23,45.13Z"/><path class="cls-124" d="M51.41,52.29c0-.94-.33-1.94.73-2.68.42-.3.17-1.06.21-1.61a.61.61,0,0,1,.91-.06l0,.05a5,5,0,0,1-1.09,3.88A1.1,1.1,0,0,1,51.41,52.29Z"/><path class="cls-145" d="M64.79,46.06c0-.47,0-1,0-1.42a.92.92,0,0,1,1.83,0,13.47,13.47,0,0,1,0,1.42Z"/><path class="cls-293" d="M59,48c-1.9,0-1.9,0-1.91-1.91a1.18,1.18,0,0,1,1.92,0h0Z"/><path class="cls-307" d="M56.15,49.93c0,.65-.32.91-.95.91s-1-.38-.94-1.05.41-.86,1-.85S56.18,49.31,56.15,49.93Z"/><path class="cls-307" d="M66.69,49.89c0,.63-.26.94-.91,1s-1-.31-1-1,.37-.89,1-.89S66.72,49.25,66.69,49.89Z"/><path class="cls-148" d="M59,46.06H57.12c0-1.91,0-1.91,1.9-1.92C59,44.78,59,45.42,59,46.06Z"/><path class="cls-296" d="M61.91,46.06c0-.64,0-1.28,0-1.92h.7c.64,0,1.18.06,1.21.9s-.5,1-1.22,1C62.38,46,62.14,46.06,61.91,46.06Z"/><path class="cls-308" d="M51.41,43.68c.69-.09,1.18.57,1.87.47,0,.3,0,.61,0,.91l-.06.17c-.31.21-.41.57-.63.83a.74.74,0,0,1-1.22,0h-.09v-1.9A.34.34,0,0,1,51.41,43.68Z"/><path class="cls-308" d="M54.23,45.13a1.29,1.29,0,0,0,0,.35c.45,1.28.42,1.34-1,1.55-.79-.6-.63-1.24-.08-1.89l.09-.08Z"/><path class="cls-309" d="M64.8,24.05c-.07,1.24-1,.85-1.7.91s-1.25,0-1.2-.9Z"/><path class="cls-310" d="M40.81,42.18l-3.08,0c-1-1.45-.73-3.1-.73-4.7,0-3.13,0-6.27,0-9.41l.44-.16c1.17-.49,1.41-.33,1.46.91,0,.77-.19,1.68,1,1.89A5.73,5.73,0,0,1,41.3,34a19,19,0,0,1,0,3.37,1.56,1.56,0,0,1-.19,1c-1,.45-1.59.18-1.76-.86a13.64,13.64,0,0,1-.07-2,2.27,2.27,0,0,0-.75-1.8c0,2.12-.06,4.07.05,6,0,.72.54.94,1.2.68s1-.28,1.38.23A1.19,1.19,0,0,1,40.81,42.18Z"/><path class="cls-311" d="M33.14,42.19h-1a1.08,1.08,0,0,1-.42-.94c-.06-.64,0-1.28,0-1.92a7.74,7.74,0,0,1,.09-1.86,1.92,1.92,0,0,0,.87-2.14,1,1,0,0,1,.37-1,.87.87,0,0,1,1,.06.51.51,0,0,1,0,.63c0,.71,0,1.42,0,2.13,0,.24,0,.57-.08.69C32.65,39.1,33.37,40.75,33.14,42.19Z"/><path class="cls-312" d="M34.15,35.06l-.06-.53c-.81-.79-.31-1.79-.43-2.68a1.31,1.31,0,0,1,.28-1l.19-.11.93,0c0,1,0,2,0,3.07A1.13,1.13,0,0,1,34.15,35.06Z"/><path class="cls-313" d="M35.11,29.06c0-.74,0-1.48,0-2.22a.83.83,0,0,1,.9-1c0,.63,0,1.26,0,1.89A1.11,1.11,0,0,1,35.11,29.06Z"/><path class="cls-314" d="M27.44,24.05,29.31,24c.34.11.92,0,.87.55s-.61.42-1,.44a17.61,17.61,0,0,1-1.78,0A.6.6,0,0,1,27.44,24.05Z"/><path class="cls-315" d="M24.58,24.06l.91,0a.67.67,0,0,1,.94-.05l.06.09a.62.62,0,0,1,0,.91C25.77,24.78,24.64,25.52,24.58,24.06Z"/><path class="cls-316" d="M26.45,25c0-.3,0-.6,0-.91h1c0,.31,0,.61,0,.91Z"/><path class="cls-317" d="M40.85,37.41l0-2.6a2.43,2.43,0,0,0-.65-2c-.56-.51-.21-1.35-.3-2,0-.88,0-1.76,0-2.63a1.2,1.2,0,0,1,1-1.43c.79.69.66,1.4,0,2.13.1.74-.5,1.82.93,1.93l0,.71c.63.51.42,1.23.46,1.88s-.28,1.6.48,2.19h0c.64.45.33,1.57,1.27,1.82a1.36,1.36,0,0,1,.16.91c0,.79-.08,1.6.76,2.09a.84.84,0,0,1-.24.91c0,.32,0,.64,0,1a4.56,4.56,0,0,0-2.92,0c-.65-.47-.4-1.16-.47-1.78C41.18,39.41,41.68,38.32,40.85,37.41Z"/><path class="cls-318" d="M40.86,28.8c0-.71,0-1.42,0-2.13s.44-.77,1-.74c0,.66.29,1,1,1a.65.65,0,0,1,0,.95c-.39,0-.79,0-1,.46A.89.89,0,0,1,40.86,28.8Z"/><path class="cls-319" d="M42.79,27.84l0-.95c0-.95,0-1.89,0-2.84,0-.7.32-1.05,1-1,1.08.1,2.27-.39,3.15.78.3.41,1.05.14,1.59.2,0,.31,0,.62,0,.93a.73.73,0,0,1-1,.05c-.64,0-1.28,0-1.91-.05s-1,.25-.9,1A1.32,1.32,0,0,1,45,27.68a.75.75,0,0,1-1.22.19Z"/><path class="cls-320" d="M48.53,27.8l0-.92c1.51,0,.71-1.25,1-1.92a.82.82,0,0,1,1-.19.94.94,0,0,1,.42.87c-.11.58.28.87.7,1.13a.78.78,0,0,1,0,.89.48.48,0,0,1-.31.19Z"/><path class="cls-321" d="M50.37,25l-.89,0c0-1.26,0-2.53-.08-3.8,0-.64.27-1.08,1-1l0,2.86C51,23.72,51.18,24.37,50.37,25Z"/><path class="cls-322" d="M48.5,17.3v2.85c-.73.15-1.06-.15-1-.89-.55-.66-.66-1.3.08-1.9Z"/><path class="cls-323" d="M47.58,17.36l-.08,1.9-.9-.05C46.8,18.52,45.93,17.28,47.58,17.36Z"/><path class="cls-324" d="M47.51,25l1-.05,0,1C47.81,26,47.48,25.69,47.51,25Z"/><path class="cls-325" d="M23.54,22.12v-.91l.06-.11a10.46,10.46,0,0,0,.87-.89l.11,0,.89,0,.05,1.91-.13.19a1.29,1.29,0,0,1-1.82-.19Z"/><path class="cls-326" d="M26.43,24l-.94.05,0-1a.71.71,0,0,1,0-1l.06,0C27,22.17,26.31,23.26,26.43,24Z"/><path class="cls-327" d="M33.2,26.9h.9l0,3.82,0,0a.82.82,0,0,1-1,.22,1,1,0,0,1-.28-.33,1.58,1.58,0,0,1,.28-1.83Z"/><path class="cls-328" d="M33.13,28.77l0,2a.63.63,0,0,1-.94,0c0-.33,0-.66,0-1C32.2,29.14,32.43,28.74,33.13,28.77Z"/><path class="cls-329" d="M24.47,20.21c.13.71-.16,1-.87.89C23.54,20.46,23.82,20.15,24.47,20.21Z"/><path class="cls-330" d="M50.37,25l.07-1.94h.89l.2.1a3.37,3.37,0,0,1,.16,2.64.86.86,0,0,1-.27.33.76.76,0,0,1-1-.22Z"/><path class="cls-331" d="M51.33,23.05c0-.61.25-1,.94-1l.12.05a.74.74,0,0,1,0,1,.69.69,0,0,1-1-.07Z"/><path class="cls-332" d="M52.31,23l.08-.91,1.86,0c0,.29,0,.58,0,.87-.74.05-1,.45-1,1.17,0,1.23,0,2.46,0,3.69a.75.75,0,0,1-1.07.11c-.53-.59-.33-1.33-.38-2C52,25,51.47,23.9,52.31,23Z"/><path class="cls-146" d="M59,27.85c0,1,0,1.92,0,2.88h-.35c-1.7,0-1.7,0-1.59-1.71,0-.39,0-.78,0-1.17a1.22,1.22,0,0,1,1.79-.18Z"/><path class="cls-333" d="M52.39,27.85h.91a6.64,6.64,0,0,1,.89,1l.12,1.85-.12.19a1.25,1.25,0,0,1-1.82-.16l-.06-1c.11-.72-.22-1-.91-1l-.1-1h.11A.69.69,0,0,1,52.39,27.85Z"/><path class="cls-298" d="M61.92,27.85H59a1.18,1.18,0,0,1,0-1.93h2.84a1.17,1.17,0,0,1,0,1.93Z"/><path class="cls-334" d="M54.25,23.05l1.91.07c0,1.73-.22,2.05-1.23,1.82S54.42,23.7,54.25,23.05Z"/><path class="cls-94" d="M57.1,31.72c0,.62,0,1.24,0,1.86l-1,0a1.23,1.23,0,0,1-1.9,0v-.1a.78.78,0,0,1-.27-.84,1.11,1.11,0,0,1,1.1-.55.85.85,0,0,0,.81-.39.64.64,0,0,1,.29-.16Z"/><path class="cls-335" d="M54.25,27.86c0-.28,0-.56,0-.83,0-.73.23-1.13,1-1.09a.79.79,0,0,1,.88.87c0,.79-.36,1.07-1.09,1-.28,0-.55,0-.83,0Z"/><path class="cls-336" d="M59.05,25.93c0,.64,0,1.29,0,1.93l-1.92,0C57.13,25.92,57.13,25.92,59.05,25.93Z"/><path class="cls-336" d="M61.91,27.86c0-.64,0-1.29,0-1.93,1.93,0,1.93,0,1.94,1.91Z"/><path class="cls-337" d="M54.31,30.71c.68.19,1.78-.48,1.87.91l0,.13a1.42,1.42,0,0,1-2,.07.8.8,0,0,1,0-1.09Z"/><path class="cls-185" d="M54.19,28.86c-.68,0-.95-.36-.89-1l1,0h0C54.22,28.19,54.21,28.52,54.19,28.86Z"/><path class="cls-338" d="M9.24,25.06l.94,0c0,.31,0,.62,0,.92.56.7,1,1.5,2,1.7a.69.69,0,0,1,.2.3,1,1,0,0,1,0,.91c-.72.55-1.89.74-1.72,2.05a1,1,0,0,1-.34.89c-.48.27-.8,0-1.08-.34v-.73c0-1,0-1.93,0-2.89S9.23,26,9.24,25.06Z"/><path class="cls-338" d="M17.83,27.84v2.88a.79.79,0,0,1,.08,1.06.92.92,0,0,1-1.07.13A.94.94,0,0,1,16.4,31c.2-1.3-.84-1.63-1.68-2.12a1,1,0,0,1-.06-1,.75.75,0,0,1,.25-.33,1.93,1.93,0,0,1,2,0l1,.23Z"/><path class="cls-339" d="M12.11,25.93h2.83a1.17,1.17,0,0,1,0,1.92h0a2.12,2.12,0,0,1-2.88,0h0A1.16,1.16,0,0,1,12.11,25.93Z"/><path class="cls-334" d="M17.83,23.12,19.75,23v.12c-.14.68.43,1.76-.92,1.79S18,23.84,17.83,23.12Z"/><path class="cls-340" d="M22.6,24.05c0,.66-.31.92-.94.92s-.94-.26-.95-.92.32-1,1-1S22.64,23.43,22.6,24.05Z"/><path class="cls-336" d="M12.11,25.93l0,1.92c-1.94,0-1.94,0-1.91-1.92Z"/><path class="cls-341" d="M15,27.85c0-.64,0-1.28,0-1.92,1.9,0,1.9,0,1.94,1.69C16.28,28,15.6,27.79,15,27.85Z"/><path class="cls-146" d="M17.84,27.85a8.4,8.4,0,0,1,.07-1.42C18,25.87,18.55,26,19,26s.74.36.75.86,0,.92-.6,1c-.43.05-.87,0-1.31,0Z"/><path class="cls-342" d="M20.74,30.75c-.07.68.27,1,.91.95l0,.92c-.43.66-1.07.56-1.66.41a1,1,0,0,1-.67-1.19,1.29,1.29,0,0,1,.43-1.12Z"/><path class="cls-343" d="M19.78,30.72l0,1c-.53.3-.41,1.2-1.17,1.29s-1.23-.44-.76-1.29v-1Z"/><path class="cls-344" d="M25.46,22.08v1c-.69-.18-1.88.65-1.89-.93Z"/><path class="cls-345" d="M40.85,37.41c.73,0,.95.44.94,1.09,0,1.23,0,2.47,0,3.7l-1,0c0-.55,0-1.09,0-1.64a1.38,1.38,0,0,1,0-2.14Z"/><path class="cls-346" d="M32.22,44.1l0-.88h4.31a.73.73,0,0,1,.11,1,.84.84,0,0,1-.4.23c-1,.1-2.11.48-3.07-.31Z"/><path class="cls-347" d="M36.54,44.09l0-.87h3.83l0,.89a.88.88,0,0,1-.78.42,11.35,11.35,0,0,1-2.1.07C37.06,44.59,36.72,44.51,36.54,44.09Z"/><path class="cls-348" d="M32.16,41.23l0,1-.69.07-.28-.08A.75.75,0,0,1,31,41.3a.8.8,0,0,1,.27-.28A.74.74,0,0,1,32.16,41.23Z"/><path class="cls-139" d="M53.31,33.63a2.43,2.43,0,0,0-1.94,2.06c0,1.83,0,3.65,0,5.48,0,.63-.12,1.12-.91,1l-.07-8.63,0,0c.29-.35.64-.63.92-1v0a1.19,1.19,0,0,1,1-.42,1.06,1.06,0,0,1,1.05.31.83.83,0,0,1-.13,1.07Z"/><path class="cls-349" d="M43.73,27.87c.77.1,1.06-.23,1-1a5.8,5.8,0,0,1,0-.93c.65.23,1.89-.71,1.85.91-1.46.07-.74,1.22-.95,1.92H43.74Z"/><path class="cls-350" d="M39.61,44.18l.76-.07,1.4.06v.89l-2.15,0A.61.61,0,0,1,39.61,44.18Z"/><path class="cls-351" d="M43.73,38.37l-.06-.92a1.21,1.21,0,0,1,0-1.88c0-.64.25-1.06,1-1,0,.63,0,1.25.08,1.88.23.39.62.65.88,1v0c0,.94,0,1.89,0,2.84,0,.62-.26,1-.92.93l-.06-.91C44,39.86,44.43,38.84,43.73,38.37Z"/><path class="cls-194" d="M41.82,33.58c0-.72,0-1.43,0-2.14,1.42.25.78,1.38.92,2.17A.61.61,0,0,1,41.82,33.58Z"/><path class="cls-352" d="M41.82,33.58l.91,0c0,.64,0,1.27,0,1.9C41.29,35.42,42,34.31,41.82,33.58Z"/><path class="cls-352" d="M43.66,35.57c0,.63,0,1.25,0,1.88-1.4-.13-.79-1.21-.92-1.94Z"/><path class="cls-353" d="M45.6,37.45c-.71,0-1-.32-.88-1C45.39,36.45,45.67,36.79,45.6,37.45Z"/><path class="cls-354" d="M54.21,30.73l.08.9-.08.19a1.42,1.42,0,0,1-1.68.15.7.7,0,0,1-.24-.32l.08-.91Z"/><path class="cls-355" d="M52.3,32.64h-.94l0-.92.9-.07.11.08A.62.62,0,0,1,52.3,32.64Z"/><path class="cls-356" d="M51.41,43.68l-.07.48-.9-.08v-.91C50.82,43.22,51.26,43.17,51.41,43.68Z"/><path class="cls-357" d="M51.35,32.62c.07.68-.22,1-.92,1l0-1Z"/><path class="cls-330" d="M53.24,45.14c0,.63,0,1.26.08,1.89l-.06.91-.91.06c0-.64-.25-1-1-1l0-1C52.3,46.29,52.36,44.89,53.24,45.14Z"/><path class="cls-358" d="M51.34,47c.13.72-.1,1.12-.9,1V47Z"/><path class="cls-359" d="M38.93,53.73l0,.94-3.74,0a.53.53,0,0,0-.12,0c-.15-.18-.39-.35-.39-.58a31.22,31.22,0,0,1,.14-5.88.69.69,0,0,1,.36-.27L37,48a1.42,1.42,0,0,1,.55,1.24,9.78,9.78,0,0,1,0,1.53,2.84,2.84,0,0,0,1.32,2.93Z"/><path class="cls-360" d="M38.89,53.71c-1.89,0-1.89,0-1.89-1.9,0-1.27,0-2.54,0-3.8h1.88Z"/><path class="cls-361" d="M32.13,47.92c0-.68.34-1,1-.87a.67.67,0,1,1-.94,1Z"/><path class="cls-362" d="M33.16,47.91l0-.86h.91a.71.71,0,0,1,.21.91.69.69,0,0,1-.89.25A.51.51,0,0,1,33.16,47.91Z"/><path class="cls-363" d="M34.12,48l0-.94c.7-.1,1,.25,1.06.9l-.1.06a.63.63,0,0,1-.82.12Z"/><path class="cls-364" d="M39.61,44.18c0,.3,0,.6,0,.9l-.22,0-3.14,0a.59.59,0,0,1,0-.88l.29-.1Z"/><path class="cls-365" d="M36.25,44.19c0,.29,0,.58,0,.88l-1.17.06-1.94-.07v-.89Z"/><path class="cls-366" d="M32.24,48l.92-.09V48c.09.13,0-.05.09.08.6.93.55,5.64-.08,6.53l0,.11-.9-.07Z"/><path class="cls-367" d="M33.18,54.63V48l.95,0h0a1.2,1.2,0,0,1,.51,1c0,1.55,0,3.1,0,4.65a1.24,1.24,0,0,1-.49,1h0Z"/><path class="cls-368" d="M34.12,54.68V48l.94,0c0,2.22,0,4.44,0,6.67Z"/><path class="cls-369" d="M36.05,67.11c0-.3,0-.59,0-.89l2.92,0c0,.71-.36,1-1,.94Z"/><path class="cls-370" d="M30.31,66.2c0-.33,0-.65,0-1l.94,0c0,.3,0,.61,0,.91Z"/><path class="cls-371" d="M44.66,61.38c.37,0,.87-.07.87.49s-.52.44-.88.49h0a.71.71,0,0,1,0-1Z"/><path class="cls-372" d="M44.62,61.4c0,.31,0,.63,0,1H40.83l0-1Z"/><path class="cls-373" d="M31.26,62.36c0-.33,0-.66,0-1l4.7,0a.59.59,0,0,1,0,.9l-1,0Z"/><path class="cls-374" d="M36.05,62.31c0-.3,0-.6,0-.9h2a.77.77,0,0,1,.87.89Z"/><path class="cls-375" d="M29.35,62.3v-.89h.92l0,.92Z"/><path class="cls-376" d="M22.6,41.26c0-.31,0-.62,0-.93,0-1.92,0-1.92-1.91-1.95a2.13,2.13,0,0,1-.24-2.57c.37-.93,1.23-.83,2-.73a1.2,1.2,0,0,1,1,.45l.05,0-.06,5.76A.62.62,0,0,1,22.6,41.26Z"/><path class="cls-377" d="M22.6,41.26h.94c0,.63,0,1.26,0,1.9v0c-.25.38-.65.63-.88,1l-.07.92-.92,0c0-.79.16-1.63-.75-2.19-.37-.22-.27-.79-.14-1.21s.51-.44.87-.45Z"/><path class="cls-338" d="M18.79,32.65c0-.66.29-1,1-1,.11,1.41,1.18.85,1.93.94a.85.85,0,0,1,1,1l-.09.19a1.93,1.93,0,0,1-1.1.43,1.54,1.54,0,0,0-1.07.68c-.9,1.32-1.36,1.44-2.83.76a2.22,2.22,0,0,1-.11-1.85C17.6,33,18.49,33.18,18.79,32.65Z"/><path class="cls-378" d="M23.55,35.53l-.9,0a1.17,1.17,0,0,1-.07-1.89l.1,0C24.13,33.71,23.39,34.82,23.55,35.53Z"/><path class="cls-379" d="M29.36,39.36v-1a.72.72,0,0,1,1-.08.83.83,0,0,1,0,1.07A.73.73,0,0,1,29.36,39.36Z"/><path class="cls-380" d="M30.25,38.37l-.88,0c0-.32,0-.64,0-1h.86l.16.1C30.58,37.86,30.59,38.15,30.25,38.37Z"/><path class="cls-381" d="M29.36,39.36l.9,0a.64.64,0,0,1,0,1,.61.61,0,0,1-.91,0h-.11Z"/><path class="cls-382" d="M31.19,34.55l0-1,.08-.92a.77.77,0,0,1,1.11-.06,1.59,1.59,0,0,1,0,1.87.7.7,0,0,1-1.12.09Z"/><path class="cls-383" d="M32.17,32.62l-.88,0v-1l.88,0A.59.59,0,0,1,32.17,32.62Z"/><path class="cls-384" d="M32.17,32.62v-1l.06-.91h.94v0a1.18,1.18,0,0,1,.44,1c0,.95.36,2-.39,2.83l-.07.92c-.69.48-.23,1.49-.89,2l-.07,1.87a.8.8,0,0,1-.91.26c-.47-.2-.51-.62-.49-1.05a1.41,1.41,0,0,0-.43-1.12h-.11l.1-1c.7,0,1-.32.89-1,0-.31.05-.62.08-.94C32.71,34.41,32,33.33,32.17,32.62Z"/><path class="cls-385" d="M22.67,44.17c-.1-.68.12-1.08.88-1l0,1Z"/><path class="cls-386" d="M30.35,37.43c1.41.12.7,1.26.94,2a1.17,1.17,0,0,1-.05,1.88l0,0a7.67,7.67,0,0,1-.94.95h-.94l.05-1.88c.71,0,.95-.34.87-1,0-.31,0-.63,0-1Z"/><path class="cls-387" d="M30.28,42.19c0-.65.27-1,.94-.95v.94Z"/><path class="cls-388" d="M18.8,47c.07-1.47,1.19-.8,1.92-.94.07,1.48,1.21.77,1.92.94l.91,0c0,.31,0,.63,0,1H20.7l-.91-.06a6.3,6.3,0,0,1-1-.94Z"/><path class="cls-389" d="M12.08,48.93c-.06-3.39.19-2.82,2.88-2.87h0a7.94,7.94,0,0,0,.24,2.87c.24.69.57,1.38-.25,1.93H12.09C11.32,50.21,11.48,49.57,12.08,48.93Z"/><path class="cls-281" d="M12.08,48.93c0,.64,0,1.28,0,1.92a1.65,1.65,0,0,0,0,1l-1.08,0c-.69,0-1-.35-.92-1.07s.06-1.19.09-1.79Z"/><path class="cls-281" d="M15,50.85a4,4,0,0,1,.25-1.93h1.67c0,.44,0,.88,0,1.31s.16,1.2-.53,1.45S15.3,51.33,15,50.85Z"/><path class="cls-390" d="M18.8,47c.68-.06,1,.27,1,.94C19.09,48,18.74,47.72,18.8,47Z"/><path class="cls-290" d="M22.58,33.62c0,.63,0,1.26.07,1.89-1.87.07-1.95.19-1.94,2.87a3.33,3.33,0,0,0-1,2.9,1.2,1.2,0,0,1-1.92,0c0-.78.23-1.71-.95-1.94a.88.88,0,0,1-.44-.93,1.38,1.38,0,0,1,.16-1,1.1,1.1,0,0,1,1.32-.28c.3,0,.43.46.81.29-.21-.58-1-.41-1.19-1a.74.74,0,0,1,.29-.86c1,.06,2,.14,2-1.39,0-.43.46-.5.83-.51C21.3,33.6,21.94,33.61,22.58,33.62Z"/><path class="cls-297" d="M15,40.31c-.85,1.34-2,1.34-2.88,0a1.4,1.4,0,0,1-.11-2,2.86,2.86,0,0,1,3.09,0A1.42,1.42,0,0,1,15,40.31Z"/><path class="cls-391" d="M15,40.31V38.39l.12-.19a1.22,1.22,0,0,1,1.79.18c0,.32,0,.64,0,1C16.66,40.61,16.54,40.67,15,40.31Z"/><path class="cls-391" d="M12.08,38.39v1.92c-1.59.36-1.7.3-1.92-1,0-.32,0-.64,0-1A1.22,1.22,0,0,1,12,38.2Z"/><path class="cls-296" d="M11.18,46.05c-.61,0-1-.18-1-.86s.23-1,1-1,.94.28.94.93S11.85,46.07,11.18,46.05Z"/><path class="cls-275" d="M15,46.06c0-.28,0-.55,0-.83,0-.73.25-1.12,1-1.08a.8.8,0,0,1,.87.88c0,.79-.36,1.06-1.09,1H15Z"/><path class="cls-290" d="M10.18,42.17c0-.74.41-.9,1-.9s.88.37.88,1-.42.94-1.07.91S10.14,42.71,10.18,42.17Z"/><path class="cls-290" d="M15.91,41.28c.64,0,.95.26,1,.91s-.31,1-1,1-.89-.36-.89-1S15.27,41.25,15.91,41.28Z"/><path class="cls-227" d="M17.83,41.28h1.92c-.17.68.45,1.77-.84,1.87C17.38,43.26,18,42,17.83,41.28Z"/><path class="cls-392" d="M18.79,32.65c0,.67-.3,1-1,1-.26.23-.44.58-.86.58-1.28-.29-1.39,1-2.06,1.53a.85.85,0,0,1-.67-.19H12.08c-.58-.63-1-1.48-1.92-1.69l-.95-.23c0-.72,0-1.44,0-2.16l.94.24c.68.09,1.26.54,1.95.57.12,0,.27,0,.35,0a1.77,1.77,0,0,0,2.42,0c.7-.09,1.31-.5,2-.61h.94C17.8,32.35,18.11,32.68,18.79,32.65Z"/><path class="cls-343" d="M14.24,35.52H15c.68-.52,1.29-1.12,1.92-1.69l.95-.23v2.88a.63.63,0,0,1,0,1,1.67,1.67,0,0,0-.94,0,17.17,17.17,0,0,1-2-.69.51.51,0,0,1-.18-.26Z"/><path class="cls-393" d="M14.72,36.48h.22a1.18,1.18,0,0,1,0,1.93H12.09a1.16,1.16,0,0,1,0-1.92Z"/><path class="cls-394" d="M12.11,36.48c0,.64,0,1.28,0,1.92l-1.92,0v-.24C10.18,36.27,10.26,36.2,12.11,36.48Z"/><path class="cls-395" d="M10.16,33.83c1.68-.52,1.92-.31,1.92,1.69C10.2,35.51,10.2,35.51,10.16,33.83Z"/><path class="cls-145" d="M56.16,38.4H54.25a5.67,5.67,0,0,1,.48-2.87.6.6,0,0,1,1,0A5.67,5.67,0,0,1,56.16,38.4Z"/><path class="cls-292" d="M55.68,35.53h-1c-.78-.46-.37-1.23-.48-1.87l1.9,0C56.07,34.28,56.47,35.05,55.68,35.53Z"/><path class="cls-152" d="M53.29,33.6l0-.94a.55.55,0,0,1,.77-.23.4.4,0,0,1,.2.29l0,.84Z"/><path class="cls-396" d="M40.81,38.4c0,.72,0,1.43,0,2.14a2.87,2.87,0,0,0-.63.32,1.71,1.71,0,0,1-1.8.28c-.65-.28-.42-1-.43-1.49,0-2.07,0-4.14,0-6.21a7.72,7.72,0,0,1,.09-1.07.44.44,0,0,1,.36-.42c.25,0,.32.18.4.36.64,1.39,1.35,2.75,1.08,4.39A1.32,1.32,0,0,0,40.81,38.4Z"/><path class="cls-397" d="M33.21,34.57V31.71a.61.61,0,0,1,.91,0c0,1,0,1.9,0,2.85Z"/><path class="cls-398" d="M31.24,41.26c0-.63,0-1.25.05-1.88l.89,0c0,.63,0,1.26,0,1.89Z"/><path class="cls-399" d="M32.25,37.47c.09-.75-.55-1.83.89-2C33,36.23,33.67,37.32,32.25,37.47Z"/><path class="cls-400" d="M34.11,31.68l-.91,0c0-.33,0-.66,0-1h1Z"/><path class="cls-401" d="M43.73,38.37c1.43.14.79,1.22.91,2C43.21,40.2,43.85,39.11,43.73,38.37Z"/><path class="cls-402" d="M52.39,27.85h-1l-.07-.93a.74.74,0,0,1,0-1v0a.61.61,0,0,1,.93,0Z"/><path class="cls-403" d="M51.37,25.92l0,1c-.71,0-1-.3-.89-1Z"/><path class="cls-404" d="M52.29,26l-.93,0,.06-2.87.89,0C52.3,24,52.3,25,52.29,26Z"/><path class="cls-405" d="M54.29,31.63l1.85.12c-.07,1.38-1.21.71-1.86,1l0-.1a.61.61,0,0,1,0-.9Z"/><path class="cls-187" d="M12.08,27.84H15v1a1.44,1.44,0,0,1,.3,1.84A.94.94,0,0,1,15,31a3.49,3.49,0,0,1-2.83,0,.89.89,0,0,1-.32-.32,1.43,1.43,0,0,1,.27-1.88Z"/><path class="cls-332" d="M12.08,28.81v1.92a1.17,1.17,0,0,1-1.92,0C10.17,28.8,10.17,28.8,12.08,28.81Z"/><path class="cls-301" d="M10.17,30.72h1.91c.62.64.73,1.28,0,1.92-.72-.15-1.83.47-1.91-1C10.16,31.36,10.16,31,10.17,30.72Z"/><path class="cls-332" d="M15,30.73c0-.64,0-1.28,0-1.92,1.91,0,1.91,0,1.91,1.91A1.17,1.17,0,0,1,15,30.73Z"/><path class="cls-406" d="M15,30.73h1.92c0,.32,0,.64,0,1-.08,1.43-1.18.81-1.91,1-.78-.63-.61-1.27,0-1.91Z"/><path class="cls-407" d="M54.22,31.72c0,.3,0,.6,0,.9l-.94,0-1,0c0-.3.07-.61.1-.91Z"/><path class="cls-392" d="M15,38.4c0-.64,0-1.28,0-1.93.73.16,1.85-.49,1.94,1,0,.32,0,.63,0,1Z"/><path class="cls-293" d="M17.82,37.43c0-.31,0-.63,0-1,.6.08,1.31-.27,1.76.35a1.12,1.12,0,0,1,0,1.24c-.25.4-.69.31-1.08.29C17.93,38.32,17.84,37.89,17.82,37.43Z"/><path class="cls-290" d="M15,30.72c0,.64,0,1.27,0,1.91-1,1.3-1.22,1.3-2.9,0,0-.64,0-1.28,0-1.92Z"/><path class="cls-337" d="M16.88,33.83c0,1.68,0,1.68-1.92,1.69C15,33.52,15.2,33.31,16.88,33.83Z"/></g></g></svg>