<svg xmlns="http://www.w3.org/2000/svg" viewBox="0 0 74 74"><defs><style>.cls-1{fill:#1e2223;}.cls-2{fill:#61696d;}.cls-3{fill:#25313a;}.cls-4{fill:#4e5459;}.cls-5{fill:#747a7e;}.cls-6{fill:#60676c;}.cls-7{fill:#4e565b;}.cls-8{fill:#9ba0a3;}.cls-9{fill:#323d45;}.cls-10{fill:#5f6569;}.cls-11{fill:#3b4349;}.cls-12{fill:#353f45;}.cls-13{fill:#2b363e;}.cls-14{fill:#364149;}.cls-15{fill:#6e7377;}.cls-16{fill:#323c44;}.cls-17{fill:#2b343c;}.cls-18{fill:#3d484f;}.cls-19{fill:#28353d;}.cls-20{fill:#495259;}.cls-21{fill:#4d545a;}.cls-22{fill:#424d54;}.cls-23{fill:#474f56;}.cls-24{fill:#7e8387;}.cls-25{fill:#4c555d;}.cls-26{fill:#3e4951;}.cls-27{fill:#848a8e;}.cls-28{fill:#2d3840;}.cls-29{fill:#555d62;}.cls-30{fill:#2e3942;}.cls-31{fill:#616b71;}.cls-32{fill:#4b5359;}.cls-33{fill:#6c7176;}.cls-34{fill:#2e373e;}.cls-35{fill:#40474e;}.cls-36{fill:#a0a4a6;}.cls-37{fill:#424f57;}.cls-38{fill:#7a8084;}.cls-39{fill:#465156;}.cls-40{fill:#4c585f;}.cls-41{fill:#6d7478;}.cls-42{fill:#6b7275;}.cls-43{fill:#959b9e;}.cls-44{fill:#6e7478;}.cls-45{fill:#61676a;}.cls-46{fill:#52575b;}.cls-47{fill:#727475;}.cls-48{fill:#71777b;}.cls-49{fill:#42474a;}.cls-50{fill:#909598;}.cls-51{fill:#565d62;}.cls-52{fill:#383e42;}.cls-53{fill:#53595c;}.cls-54{fill:#848a8d;}.cls-55{fill:#8b9093;}.cls-56{fill:#444c51;}.cls-57{fill:#666c70;}.cls-58{fill:#4f545b;}.cls-59{fill:#636b70;}.cls-60{fill:#80878b;}.cls-61{fill:#454749;}.cls-62{fill:#7b8082;}.cls-63{fill:#33393d;}.cls-64{fill:#51575a;}.cls-65{fill:#595f63;}.cls-66{fill:#2d3338;}.cls-67{fill:#8f9496;}.cls-68{fill:#7c8084;}.cls-69{fill:#7d8385;}.cls-70{fill:#787d81;}.cls-71{fill:#5b6164;}.cls-72{fill:#5e6467;}.cls-73{fill:#5b6266;}.cls-74{fill:#696f74;}.cls-75{fill:#999ca0;}.cls-76{fill:#777c80;}.cls-77{fill:#595f65;}.cls-78{fill:#a5a7aa;}.cls-79{fill:#676d71;}.cls-80{fill:#a2a3a6;}.cls-81{fill:#808286;}.cls-82{fill:#bbbdbe;}.cls-83{fill:#a8aaac;}.cls-84{fill:#7c8083;}.cls-85{fill:#858a8d;}.cls-86{fill:#656b6f;}.cls-87{fill:#888c8f;}.cls-88{fill:#8b9094;}.cls-89{fill:#1a1d1d;}.cls-90{fill:#1d2020;}.cls-91{fill:#304a4d;}.cls-92{fill:#4d6062;}.cls-93{fill:#325054;}.cls-94{fill:#5d7375;}.cls-95{fill:#39464c;}.cls-96{fill:#6e6e5f;}.cls-97{fill:#5e6b6f;}.cls-98{fill:#48371c;}.cls-99{fill:#90a2a4;}.cls-100{fill:#babebf;}.cls-101{fill:#979b9c;}.cls-102{fill:#cbcfd0;}.cls-103{fill:#c1c5c7;}.cls-104{fill:#aeb2b4;}.cls-105{fill:#a8acad;}.cls-106{fill:#82888c;}.cls-107{fill:#969a9b;}.cls-108{fill:#939798;}.cls-109{fill:#d1d5d7;}.cls-110{fill:#5f686c;}.cls-111{fill:#b7bbbd;}.cls-112{fill:#898f92;}.cls-113{fill:#243e4b;}.cls-114{fill:#9ca2a5;}.cls-115{fill:#666d72;}.cls-116{fill:#909699;}.cls-117{fill:#5d666d;}.cls-118{fill:#4f5a61;}.cls-119{fill:#686f73;}.cls-120{fill:#9da3a6;}.cls-121{fill:#80888b;}.cls-122{fill:#687074;}.cls-123{fill:#bdc0c2;}.cls-124{fill:#cacecf;}.cls-125{fill:#d9dbdc;}.cls-126{fill:#8b8e90;}.cls-127{fill:#828486;}.cls-128{fill:#646666;}.cls-129{fill:#717475;}.cls-130{fill:#d3d5d6;}.cls-131{fill:#5e6062;}.cls-132{fill:#afb1b2;}.cls-133{fill:#babcbd;}.cls-134{fill:#262c31;}.cls-135{fill:#7a7e82;}.cls-136{fill:#888e90;}.cls-137{fill:#36393a;}.cls-138{fill:#808387;}.cls-139{fill:#32393d;}.cls-140{fill:#7d8084;}.cls-141{fill:#a0a2a5;}.cls-142{fill:#4f595e;}.cls-143{fill:#32373b;}.cls-144{fill:#494f53;}.cls-145{fill:#303438;}.cls-146{fill:#565b5f;}.cls-147{fill:#575c5f;}.cls-148{fill:#90585e;}.cls-149{fill:#71767a;}.cls-150{fill:#594245;}.cls-151{fill:#545a5e;}.cls-152{fill:#7d8184;}.cls-153{fill:#d1d3d4;}.cls-154{fill:#606263;}.cls-155{fill:#7f8082;}.cls-156{fill:#757778;}.cls-157{fill:#828485;}.cls-158{fill:#8a8c8d;}.cls-159{fill:#919495;}.cls-160{fill:#adafb0;}.cls-161{fill:#7e7f80;}.cls-162{fill:#7b7d7e;}.cls-163{fill:#8d8f90;}.cls-164{fill:#b5b7b8;}.cls-165{fill:#495156;}.cls-166{fill:#182830;}.cls-167{fill:#475157;}.cls-168{fill:#7b8084;}.cls-169{fill:#243e4c;}.cls-170{fill:#444f54;}.cls-171{fill:#767f7c;}.cls-172{fill:#738d8f;}.cls-173{fill:#385053;}.cls-174{fill:#909fa1;}.cls-175{fill:#4b5c5f;}.cls-176{fill:#3b585a;}.cls-177{fill:#293d40;}.cls-178{fill:#485a5d;}.cls-179{fill:#616f71;}.cls-180{fill:#b4bbbe;}.cls-181{fill:#5b676b;}.cls-182{fill:#b3b4af;}.cls-183{fill:#667075;}.cls-184{fill:#4c6467;}.cls-185{fill:#6f8184;}.cls-186{fill:#97a9ab;}.cls-187{fill:#59625f;}.cls-188{fill:#445257;}.cls-189{fill:#788789;}.cls-190{fill:#9b9d9f;}.cls-191{fill:#5e7375;}.cls-192{fill:#5b605e;}.cls-193{fill:#2c3833;}.cls-194{fill:#535e59;}.cls-195{fill:#728384;}.cls-196{fill:#654e1e;}.cls-197{fill:#8c7220;}.cls-198{fill:#705e42;}.cls-199{fill:#465f62;}.cls-200{fill:#938869;}.cls-201{fill:#a0a7a8;}.cls-202{fill:#749092;}.cls-203{fill:#827249;}.cls-204{fill:#9d8c53;}.cls-205{fill:#adb1b1;}.cls-206{fill:#a59e7a;}.cls-207{fill:#3d4a43;}.cls-208{fill:#9e936d;}.cls-209{fill:#775c29;}.cls-210{fill:#bcb188;}.cls-211{fill:#89723d;}.cls-212{fill:#8b9090;}.cls-213{fill:#404946;}.cls-214{fill:#697c7e;}.cls-215{fill:#487173;}.cls-216{fill:#739193;}.cls-217{fill:#809698;}.cls-218{fill:#dbdacb;}.cls-219{fill:#ced8da;}.cls-220{fill:#8d9091;}.cls-221{fill:#a7aaac;}.cls-222{fill:#6a7176;}.cls-223{fill:#3f494e;}.cls-224{fill:#848b8e;}.cls-225{fill:#4b555a;}.cls-226{fill:#242c2d;}.cls-227{fill:#656c71;}.cls-228{fill:#3b4448;}.cls-229{fill:#5f6669;}.cls-230{fill:#475c5e;}.cls-231{fill:#364249;}.cls-232{fill:#2a3b3f;}.cls-233{fill:#475359;}.cls-234{fill:#4f565b;}.cls-235{fill:#555f66;}.cls-236{fill:#5f686d;}.cls-237{fill:#404b51;}.cls-238{fill:#394951;}.cls-239{fill:#5f666a;}.cls-240{fill:#3a464c;}.cls-241{fill:#445057;}.cls-242{fill:#676e72;}.cls-243{fill:#c2c6c8;}.cls-244{fill:#afb3b5;}.cls-245{fill:#888a8c;}.cls-246{fill:#707374;}.cls-247{fill:#797c7d;}.cls-248{fill:#929697;}.cls-249{fill:#737678;}.cls-250{fill:#646769;}.cls-251{fill:#7c7e7f;}.cls-252{fill:#969899;}.cls-253{fill:#a0a4a5;}.cls-254{fill:#989c9d;}.cls-255{fill:#909495;}.cls-256{fill:#888a8b;}.cls-257{fill:#a9abac;}.cls-258{fill:#838687;}.cls-259{fill:#7c8081;}.cls-260{fill:#939597;}.cls-261{fill:#797a7b;}.cls-262{fill:#6f7173;}.cls-263{fill:#535556;}.cls-264{fill:#545557;}.cls-265{fill:#7e8082;}.cls-266{fill:#4a4c4d;}.cls-267{fill:#7d7e7e;}.cls-268{fill:#868787;}.cls-269{fill:#5f6163;}.cls-270{fill:#7d8082;}.cls-271{fill:#686b6d;}.cls-272{fill:#818586;}.cls-273{fill:#5c6366;}.cls-274{fill:#62696c;}.cls-275{fill:#bfc1c2;}.cls-276{fill:#182126;}.cls-277{fill:#4b504b;}.cls-278{fill:#686e68;}.cls-279{fill:#694045;}.cls-280{fill:#959695;}.cls-281{fill:#80807f;}.cls-282{fill:#4e514f;}.cls-283{fill:#383f44;}.cls-284{fill:#686e71;}.cls-285{fill:#82878a;}.cls-286{fill:#353d42;}.cls-287{fill:#1d2528;}.cls-288{fill:#668da7;}.cls-289{fill:#3b5562;}.cls-290{fill:#c69096;}.cls-291{fill:#b7b8b8;}.cls-292{fill:#696b6d;}.cls-293{fill:#717374;}.cls-294{fill:#77797b;}.cls-295{fill:#30383e;}.cls-296{fill:#9a9c9e;}.cls-297{fill:#979898;}.cls-298{fill:#bdbebf;}.cls-299{fill:#626668;}.cls-300{fill:#3c4549;}.cls-301{fill:#323a3d;}.cls-302{fill:#5d7072;}.cls-303{fill:#4c5256;}.cls-304{fill:#4a5256;}.cls-305{fill:#354348;}.cls-306{fill:#727577;}.cls-307{fill:#4b5256;}.cls-308{fill:#495d61;}.cls-309{fill:#878c8d;}.cls-310{fill:#757a7e;}.cls-311{fill:#697175;}.cls-312{fill:#898d90;}.cls-313{fill:#364a4c;}.cls-314{fill:#7d9396;}.cls-315{fill:#90a1a3;}.cls-316{fill:#b9c4c6;}.cls-317{fill:#708588;}.cls-318{fill:#99aeb0;}.cls-319{fill:#bfc4c3;}.cls-320{fill:#3a595c;}.cls-321{fill:#263b3f;}.cls-322{fill:#6a7b7e;}.cls-323{fill:#7c8b8d;}.cls-324{fill:#5d7577;}.cls-325{fill:#222426;}.cls-326{fill:#748487;}.cls-327{fill:#678a8c;}.cls-328{fill:#365154;}.cls-329{fill:#4e676a;}.cls-330{fill:#657679;}.cls-331{fill:#dfe1e3;}.cls-332{fill:#54676a;}.cls-333{fill:#464f4d;}.cls-334{fill:#2d2f31;}.cls-335{fill:#99abad;}.cls-336{fill:#ba9f4f;}.cls-337{fill:#928060;}.cls-338{fill:#c0b28d;}.cls-339{fill:#9cb5b7;}.cls-340{fill:#575f5d;}.cls-341{fill:#5b6860;}.cls-342{fill:#999c9e;}.cls-343{fill:#5e7173;}.cls-344{fill:#3e6365;}.cls-345{fill:#515554;}.cls-346{fill:#424f47;}.cls-347{fill:#4b7475;}.cls-348{fill:#454a49;}.cls-349{fill:#757879;}.cls-350{fill:#868c8f;}.cls-351{fill:#1d5971;}.cls-352{fill:#6c7272;}.cls-353{fill:#b4b7b9;}.cls-354{fill:#9b9ea2;}.cls-355{fill:#7a7d7f;}.cls-356{fill:#777a7c;}.cls-357{fill:#8a8c8e;}.cls-358{fill:#97999b;}.cls-359{fill:#797b7d;}.cls-360{fill:#5f6162;}.cls-361{fill:#5e6162;}.cls-362{fill:#848889;}.cls-363{fill:#8b8f90;}.cls-364{fill:#707475;}.cls-365{fill:#76797b;}.cls-366{fill:#646869;}.cls-367{fill:#969a9c;}.cls-368{fill:#b0b1b0;}.cls-369{fill:#c77780;}.cls-370{fill:#cf5766;}.cls-371{fill:#b25f6a;}.cls-372{fill:#74aac2;}.cls-373{fill:#617176;}.cls-374{fill:#da7d89;}.cls-375{fill:#7b9496;}.cls-376{fill:#94a8a9;}.cls-377{fill:#555a59;}.cls-378{fill:#828886;}.cls-379{fill:#8f9394;}.cls-380{fill:#828b88;}.cls-381{fill:#6e7773;}.cls-382{fill:#017fb1;}.cls-383{fill:#3694b8;}.cls-384{fill:#757f7a;}.cls-385{fill:#c1c5c6;}.cls-386{fill:#d2d5d6;}.cls-387{fill:#158ab3;}.cls-388{fill:#3b7ea3;}.cls-389{fill:#868a8b;}.cls-390{fill:#b8babc;}.cls-391{fill:#c52f46;}.cls-392{fill:#5087ad;}.cls-393{fill:#e18d97;}.cls-394{fill:#2770a0;}.cls-395{fill:#84b4c8;}.cls-396{fill:#3891b1;}</style></defs><title>apds</title><g id="레이어_2" data-name="레이어 2"><g id="레이어_1-2" data-name="레이어 1"><rect class="cls-1" width="74" height="74" rx="8.33" ry="8.33"/><path class="cls-2" d="M16.16,11.15l9.62-.06a.78.78,0,0,1,.31,1c-.24.55-.74.53-1.21.53H22.6c-.47,0-.83.07-.93.6a3.65,3.65,0,0,0-.21,1,1.34,1.34,0,0,1-.4,1A.8.8,0,0,1,20,15h0c-.21-.21-.45-.4-.45-.74,0-.72-.19-1.32-1-1.55-.57-.16-1-.1-1.24.52a.87.87,0,0,1-.33.17.85.85,0,0,1-.86-.32l0,0A1.15,1.15,0,0,1,16.16,11.15Z"/><path class="cls-3" d="M53.83,13.14c0,.77.17,1.57-.71,2-.26.14-.22.48-.23.75l-.09.19a.93.93,0,0,1-.82.3,2.53,2.53,0,0,0-2.18.81c-1.25-.08-1.42-.38-1.15-2a.85.85,0,0,1,1-.67A1,1,0,0,0,50.67,14c.43-.7,1.54-.06,1.88-.94a.89.89,0,0,1,.26-.25.85.85,0,0,1,.86,0A.62.62,0,0,1,53.83,13.14Z"/><path class="cls-4" d="M37.44,4.41c.78-.08,1.66.14,2.13-.83.06-.13.5-.09.76-.13a1.17,1.17,0,0,1,.36,1.4c-.37.43-.84.74-1,1.39s-2.55,1.48-3.29,1.33a4.14,4.14,0,0,0-1.24-1.26,1.07,1.07,0,0,1,0-1,.94.94,0,0,1,1.05-.46A1.56,1.56,0,0,0,37.44,4.41Z"/><path class="cls-5" d="M25.82,12.09l0-1V7.28c-.44-.82-.11-1.34.73-1.42a3.6,3.6,0,0,1,2.26.22A1,1,0,0,1,29,7.25c-.18.41-.56.52-.94.64-.61.09-.8.46-.76,1.06s0,1.48,0,2.22a1.21,1.21,0,0,1-.47,1.13A.74.74,0,0,1,25.82,12.09Z"/><path class="cls-6" d="M47.11,3.45c3.28-.11,2.91-.29,2.8,2.79-.5.73-1.14.64-1.83.33-.61-.53-.74-1.36-1.22-2A.79.79,0,0,1,47.11,3.45Z"/><path class="cls-7" d="M42.23,5.35l1,0c.34-.3.63-.66,1-.94l1.91,0c.74.49.5,1.17.33,1.82-.46.88-1.56.77-2.19,1.4a1.46,1.46,0,0,1-1,0c-.34-.52-.9-.82-1.27-1.31A.79.79,0,0,1,42.23,5.35Z"/><path class="cls-8" d="M50,11.1l3.85.07a.78.78,0,0,1,.33.81.85.85,0,0,1-.17.31,3.12,3.12,0,0,0-1.12.77l0,0a1.63,1.63,0,0,1-1.85.29c-.46-1-1.69-.55-2.27-1.3A.85.85,0,0,1,48.91,11,.82.82,0,0,1,50,11.1Z"/><path class="cls-9" d="M28.7,6.31c-.64,0-1.28,0-1.91,0s-1,.33-1,1c-.4,0-.89,0-.85-.6a1.5,1.5,0,0,1,.92-1.19,3.34,3.34,0,0,1,1.54-.16h3.25a.77.77,0,0,1,.07,1.11A1.39,1.39,0,0,1,28.7,6.31Z"/><path class="cls-10" d="M35.46,5.36l0,1a.73.73,0,0,1,.13,1,.94.94,0,0,1-1.3.17c-.63-.5-1.43-.68-2.05-1.18a2.14,2.14,0,0,1,.17-2,.85.85,0,0,1,1.13,0l.93,0C34.74,4.78,35.39,4.79,35.46,5.36Z"/><path class="cls-11" d="M46.1,6.29V4.37c0-.69.31-1,1-.92,0,.23,0,.6.15.67,1,.49.74,1.38.78,2.18l-.11.18a1.18,1.18,0,0,1-1,.27A.78.78,0,0,1,46.1,6.29Z"/><path class="cls-12" d="M20,15l1,0c.5-.6,1.19-.39,1.83-.43a1.71,1.71,0,0,1,1.08.26.75.75,0,0,1,.26.39c.18.89-.31,1.23-1.1,1.27-.37,0-.74,0-1.11,0-.67-.08-1.42.19-1.94-.47Z"/><path class="cls-13" d="M50,11.1l-.95.09a1.28,1.28,0,0,1-1,.38,1.19,1.19,0,0,1-1.08-.25,1.68,1.68,0,0,1-.31-1.07,1.79,1.79,0,0,1,.22-1.06.75.75,0,0,1,1-.24.63.63,0,0,1,.27.31c0,.67.35.92,1,.91S50,10.45,50,11.1Z"/><path class="cls-14" d="M48,6.3l1.87-.06c-.62,1-.57,2.42-1.85,3l0-.1a1.16,1.16,0,0,1-.43-1c0-.66-.19-1.36.46-1.87Z"/><path class="cls-15" d="M42.23,5.35l0,.93c-.62.74-1.32.58-2,.2-.52-.56-.34-1.09.07-1.61l.06-1.42h.91c.81.38.24,1.49,1,1.89Z"/><path class="cls-9" d="M35.46,5.36a.89.89,0,0,1-1-1l2.95,0C37.3,5.82,36.19,5.2,35.46,5.36Z"/><path class="cls-16" d="M33.56,4.34l-1,.07a1.41,1.41,0,0,1-1.86,0c-.09-.83.4-1.05,1.08-1S33.46,3.08,33.56,4.34Z"/><path class="cls-3" d="M52.89,15.94a7.3,7.3,0,0,0,1.87.07c.7-.12,1,.24,1,.94-.52.63-1.24.4-1.9.44a1.5,1.5,0,0,1-1.08-.33.75.75,0,0,1,0-1Z"/><path class="cls-17" d="M16.14,17.83c.05-1.66,1.21-.82,2-.87a.77.77,0,0,1,.13,1,1.11,1.11,0,0,1-.93.39,1.5,1.5,0,0,1-1-.19A.63.63,0,0,1,16.14,17.83Z"/><path class="cls-18" d="M54.78,11.16c.68-.07,1,.22,1,.93s-.3,1-1,.95a1,1,0,0,1-.37-.94A1,1,0,0,1,54.78,11.16Z"/><path class="cls-19" d="M20,14v1c-.72-.14-1.79.5-1.94-.89l.1-.21A1.22,1.22,0,0,1,20,14Z"/><path class="cls-20" d="M20,16H22a.81.81,0,0,1,.16,1,1.1,1.1,0,0,1-1,.4,1.46,1.46,0,0,1-1-.2.59.59,0,0,1-.22-.33Z"/><path class="cls-21" d="M18.08,17.86l0-.9L20,16.85,20,17a.81.81,0,0,1,.1,1.08,1.58,1.58,0,0,1-1.94,0Z"/><path class="cls-22" d="M16.16,11.15v1.9c-.81.07-1-.4-1-1.09S15.56,11.09,16.16,11.15Z"/><path class="cls-11" d="M53.82,17h1.94l0,.88a.54.54,0,0,1-.21.32,1.46,1.46,0,0,1-1,.2,1.15,1.15,0,0,1-.95-.39A.81.81,0,0,1,53.82,17Z"/><path class="cls-23" d="M11.31,19.79c0-.29,0-.59,0-.89h1.95a.79.79,0,0,1,.24.92.69.69,0,0,1-.27.29,1.94,1.94,0,0,1-1.71,0A.63.63,0,0,1,11.31,19.79Z"/><path class="cls-24" d="M13.24,19.82l0-.93,1.91-.09.17.19a.82.82,0,0,1-.41,1.19A1.3,1.3,0,0,1,13.24,19.82Z"/><path class="cls-25" d="M30.69,4.41h1a1.55,1.55,0,0,1,.21,1.94.83.83,0,0,1-1.08.12l-.16-.18c0-.32,0-.64,0-1Z"/><path class="cls-26" d="M42.24,5.33c-1.48,0-.8-1.19-1-1.89C42.81,3.42,42,4.63,42.24,5.33Z"/><path class="cls-27" d="M54.78,11.16v.92a.62.62,0,0,1-.94,0v-.93Z"/><path class="cls-28" d="M44.2,4.39c0,.66-.3,1-1,.94C43.18,4.64,43.52,4.33,44.2,4.39Z"/><path class="cls-29" d="M18.08,14.1,17.13,14a.61.61,0,0,1,0-.91l.06-.12c1.1-.2,1.23-.05.93,1Z"/><path class="cls-30" d="M17.09,13.11c0,.3,0,.6,0,.91-.68.06-1-.26-1-.95Z"/><path class="cls-31" d="M53.83,12.1l.94,0c0,.32,0,.64,0,1l-1,.1V13a.64.64,0,0,1,0-.93Z"/><path class="cls-32" d="M59.63,18.87v.88a.49.49,0,0,1-.16.32.8.8,0,0,1-.88,0,.68.68,0,0,1-.23-.3.79.79,0,0,1,.28-.87Z"/><path class="cls-33" d="M58.65,18.89l0,.93a.72.72,0,0,1-1,.23.77.77,0,0,1-.31-.94.72.72,0,0,1,.29-.31Z"/><path class="cls-34" d="M56.72,17.91c.64,0,1,.2,1,.89v.11a.8.8,0,0,1-.92.21.68.68,0,0,1-.29-.29A.79.79,0,0,1,56.72,17.91Z"/><path class="cls-4" d="M56.72,17.91l0,.93a.72.72,0,0,1-1,.14.7.7,0,0,1,0-1s0-.08,0-.12Z"/><path class="cls-35" d="M15.18,18.8c-.08-.72.36-.92,1-1l0,.11a.71.71,0,0,1,.06,1,.79.79,0,0,1-1-.05Z"/><path class="cls-36" d="M54.8,54.67l-.95-.08a2.37,2.37,0,0,0-1.07-.65.87.87,0,0,1-.23-.24c-.14-.51-.55-.52-1-.52a.93.93,0,0,1-.88-.4,2.14,2.14,0,0,1-.24-1.08,11,11,0,0,1,.1-2.37c.68-.54,1.16-1.43,2.25-1.2a.75.75,0,0,1,.13,1.14,2.3,2.3,0,0,0-.35.63c-.07.27-.17.6.13.75s.49-.19.56-.44c.23-.83.84-1,1.57-1s1.41.21,1.39,1.18c0,.52.32.66.77.64a1.19,1.19,0,0,0,1.18-.83c.14-.32.19-.71.63-.79a24.35,24.35,0,0,1,2.56-.1c.41.1.5.45.63.79a1,1,0,0,0,1.38.75c.24-.07.52-.14.54-.41.11-1.29,1-1.18,1.92-1.16.6,0,1,.34,1,.93a1.47,1.47,0,0,0,.84,1.37,1.84,1.84,0,0,1,.15,1,2.58,2.58,0,0,1-.09,1c-.23.46-1,.39-1,1a.72.72,0,0,1-.25.27c-.6.07-.62.74-1,1a2.28,2.28,0,0,1-.59.11c-2.09.12-4.18.31-6.05-.93-.49-.18-.48-.69-.68-1.06-.35-.63-.9-.93-1.47-.51s-1.14.5-1.56,1A.53.53,0,0,1,54.8,54.67Z"/><path class="cls-37" d="M56.76,56.53c-.4,0-.8,0-1.2,0-.62,0-.75-.36-.53-.9a.64.64,0,0,1,.64-.41,1.52,1.52,0,0,1,1,.09.76.76,0,0,1,.3.29A.79.79,0,0,1,56.76,56.53Z"/><path class="cls-38" d="M52.86,53.67c.68-.08,1,.24,1,.92h-.94A.6.6,0,0,1,52.86,53.67Z"/><path class="cls-39" d="M52.86,53.67c0,.31,0,.62,0,.93l-1,0,0-.91.1-.16a.66.66,0,0,1,.88.1Z"/><path class="cls-40" d="M58.69,57.5l-.73,0a1.42,1.42,0,0,1-.27-.94l.08-.18a.74.74,0,0,1,.9-.12.69.69,0,0,1,.27.29A.78.78,0,0,1,58.69,57.5Z"/><path class="cls-41" d="M56.76,56.53l0-.92a.7.7,0,0,1,1-.13.68.68,0,0,1,0,1l0,.11Z"/><path class="cls-42" d="M55.81,55.55l-.78.07c-.28-.27-.22-.62-.23-.95v-.11C55.92,54.33,56.05,54.45,55.81,55.55Z"/><path class="cls-43" d="M4.59,56.53,4.51,40.85l0-18.34c0-.56,0-1.13,0-1.69a.75.75,0,0,1,1.07-.08c.71.93.25,2,.34,3V44.19c0,3.63-.07,7.27.06,10.91a2.15,2.15,0,0,1-.19,1.17,1.1,1.1,0,0,1-.24.4A.75.75,0,0,1,4.59,56.53Z"/><path class="cls-44" d="M5.54,20.82h-1c-.1-.85.45-1,1.11-1l5.61-.05v.11a.74.74,0,0,1,0,1.08C9.38,21.34,7.44,21.72,5.54,20.82Z"/><path class="cls-45" d="M68.38,42.06l-.09,10.65a.58.58,0,0,1-.89-.05l-.06-.93c-.65-.75-.47-1.66-.49-2.52s0-1.47.05-2.2c0-.24,0-.48,0-.72,0-1.74-.07-3.48-.06-5.22.08-1.35-.11-2.7.06-4a1.77,1.77,0,0,1,.26-.83.77.77,0,0,1,1.1.09Z"/><path class="cls-46" d="M68.29,36.28l-.91,0a.78.78,0,0,1-.37-.56,49.68,49.68,0,0,1-.13-5.59c0-.53,0-1.06,0-1.59a11.14,11.14,0,0,1,.1-2.38,1,1,0,0,1,.29-.61.76.76,0,0,1,1,.12Z"/><path class="cls-47" d="M68.28,22.71v.93a1.14,1.14,0,0,1-.72.57.73.73,0,0,0-.7.75c0,.4-.11.86-.61,1-.79.21-1.73.49-2.11-.44a1.79,1.79,0,0,1,.46-2.41c.51-.33.38-.94.61-1.39a.92.92,0,0,1,1-.36c.58.09.61,1,1.34.88A1,1,0,0,1,68.28,22.71Z"/><path class="cls-48" d="M59.64,19.75l7.71.11a.78.78,0,0,1,.19,1,1,1,0,0,1-.37.27,54.92,54.92,0,0,1-6.54.14,1.29,1.29,0,0,1-1.1-.31.76.76,0,0,1,.11-1.08Z"/><path class="cls-49" d="M67.38,23.71l.91-.07,0,2-.93,0-.2-.11A1.2,1.2,0,0,1,67.38,23.71Z"/><path class="cls-50" d="M68.28,22.71l-.94,0a1,1,0,0,1-.36-.93,1,1,0,0,1,.37-.93l0-.11a.68.68,0,0,1,.94.1Z"/><path class="cls-51" d="M68.32,20.82l-.94-.1,0-.86C68.09,19.76,68.4,20.08,68.32,20.82Z"/><path class="cls-52" d="M21,14l0-.94a1,1,0,0,1,.78-.5c1.57.07,3.17-.23,4.73.18a1,1,0,0,1,.06,1.56c-.28.29-.42.67-.71.95a1.56,1.56,0,0,1-2-.3l0,0a1.31,1.31,0,0,0-1.29-.49C22,14.49,21.4,14.61,21,14Z"/><path class="cls-53" d="M26.52,13.09H21c-.06-.82.42-1,1.12-1,1.23,0,2.46,0,3.7,0h.94a.8.8,0,0,1,1-.18.75.75,0,0,1,.26.35C27.78,13.39,27.6,13.49,26.52,13.09Z"/><path class="cls-54" d="M18.08,14c.05-.67-.28-1-.93-1,.2-1.44,1.3-.8,2.05-.86s.82.57.79,1.16c0,.24,0,.47,0,.71Z"/><path class="cls-55" d="M21,14l1.9,0a.58.58,0,0,1,0,.91H21Z"/><path class="cls-56" d="M49,15.06c.16.67-.54,1.74.85,1.84a.48.48,0,0,1,.32.2.78.78,0,0,1-.06.91c-.57.23-.63,1-1.26,1.19a1.13,1.13,0,0,1-1-.2,1.38,1.38,0,0,1-.28-1.12c.09-1-.29-2.06.4-3A.74.74,0,0,1,49,15.06Z"/><path class="cls-57" d="M49,15.06,48,15l-.16-.2c-.2-.86.13-1.21,1-1.21a3.3,3.3,0,0,1,1.91.23l.14.19C50.9,15.47,49.75,14.86,49,15.06Z"/><path class="cls-58" d="M52.83,16l.06.88-.08.18a1,1,0,0,1-.92.32,6.82,6.82,0,0,1-1,0A1,1,0,0,1,50,17l-.11-.05A.94.94,0,0,1,51,16C51.62,16,52.23,16,52.83,16Z"/><path class="cls-59" d="M50.94,13l2,.05c-.1,1.48-1.24.77-2,.93l0,0a.67.67,0,0,1-.15-.88Z"/><path class="cls-60" d="M53.84,12.1V13l-1,0C52.84,12.38,53.15,12.06,53.84,12.1Z"/><path class="cls-61" d="M26.52,13.09c.62-.08,1.16-.25,1.24-1a.62.62,0,0,1,.48-.3c.92-.07.8-.51.43-1.11-.76-1.23-.48-1.82,1-2.12.47-.15.89.13,1.34.14s1,.08,1-.67a5.5,5.5,0,0,0,.09-.91.76.76,0,0,1,.49-.8c.79,0,1.65-.26,2.14.71.13.25.49.19.76.2a.66.66,0,0,1,.93,0c1-.7,2.48-.7,3.16-2a.93.93,0,0,1,.68-.42c0,.48,0,1,.07,1.45.2.22.44.4.48.73.13.88.68.82,1.26.5.22-.12.34-.44.64-.49a.67.67,0,0,1,.47.2l1,0c.89.65.56,1.44.24,2.22-.07.17-.29.28-.38.46-.24.45-.37,1,.05,1.33s.59-.37,1-.43a1.3,1.3,0,0,1,1,0,.74.74,0,0,1,.33.22,1.89,1.89,0,0,1,.26,1c0,.38.12.75.11,1.13.19,1.07-.84,1.41-1.27,2.1-1.09.64-1.09,1.51,0,2.5a5.66,5.66,0,0,0,.32.9c.49,1.08.11,1.66-1.11,1.69a3.82,3.82,0,0,1-1.89-.2,1.25,1.25,0,0,0-1,.12c-1.28.49-1.49.39-2.09-.89a13.6,13.6,0,0,0-1-1.77,1.78,1.78,0,0,0-3-.34,9,9,0,0,0-2.61,5.59,2.92,2.92,0,0,1-.14,1,.92.92,0,0,1-.2.36c-.7.4-1.2,1.46-2.25.66a1.06,1.06,0,0,1-.25-1,2,2,0,0,1,.08-.6,1,1,0,0,1,.42-.4.79.79,0,0,0,.35-1c-.11-.42-.45-.49-.85-.5a5.07,5.07,0,0,1-1.85-.24c-1.3-1.17-1.42-1.61-.83-2.94.29-.33.73-.56.69-1.11,0,.51-.34.75-.64,1.05a.74.74,0,0,1-.88.05c-.63-1-.51-2.11-.9-3.13C25.79,14.25,26.57,13.83,26.52,13.09Z"/><path class="cls-62" d="M36.43,7.26l-.93,0c0-.29,0-.59,0-.88C36.2,6.24,36.5,6.56,36.43,7.26Z"/><path class="cls-63" d="M29.68,9c-.71.3-1.32.56-.37,1.39.64.57.41,1.43.26,2.17-.1.43-.46.56-.83.24a2.42,2.42,0,0,0-1-.67l-.05,0a5.58,5.58,0,0,1,.07-4.81l.92,0a.79.79,0,0,1,1.23.13A1.12,1.12,0,0,1,29.68,9Z"/><path class="cls-64" d="M29.68,9c-.07-.72.27-1.67-1-1.7v-1l1.92,0,.05,0a3.67,3.67,0,0,0,1.89,1.89c0,.81-.45,1-1.13,1S30.26,9,29.68,9Z"/><path class="cls-65" d="M27.78,7.3c0,1.6-.05,3.21-.07,4.81l-.95,0c0-1.23,0-2.46,0-3.7C26.76,7.68,27,7.22,27.78,7.3Z"/><path class="cls-66" d="M45.15,11.11a.48.48,0,0,1,0,.12c-.12.54.22,1.45-.66,1.41a1.41,1.41,0,0,1-1.29-1.49c0-.78-.13-1.56.7-2.16.51-.36.23-1.13.28-1.71.09-1.4,1.2-.81,1.92-1l1,0A1.56,1.56,0,0,1,47.45,8c0,.69-.89.63-1,1.21a.82.82,0,0,1-.23.26.79.79,0,0,0-.59.9C45.6,10.71,45.36,10.9,45.15,11.11Z"/><path class="cls-67" d="M43.19,7.26l-.46,0c-.82.44-1.63.8-2.4-.07V6.32l1.91,0C42.91,6.28,43.31,6.52,43.19,7.26Z"/><path class="cls-68" d="M49.08,12c.72.15,1.78-.33,1.86,1l0,.11a1.68,1.68,0,0,1-1.92.21.86.86,0,0,1-.23-1A.64.64,0,0,1,49.08,12Z"/><path class="cls-68" d="M48.05,11.18h1c0,.28,0,.56,0,.85l-.09.07a.74.74,0,0,1-1,.07A.69.69,0,0,1,48.05,11.18Z"/><path class="cls-69" d="M32.6,6.32l-.07.92a.63.63,0,0,1-.92.06.72.72,0,0,1,0-1c0-.62.05-1.25.08-1.87h.9C32.57,5.05,32.58,5.68,32.6,6.32Z"/><path class="cls-70" d="M47,8.23c0-.64.07-1.28.1-1.92l.93,0c0,.65,0,1.29,0,1.93A.68.68,0,0,1,47,8.23Z"/><path class="cls-71" d="M25.8,15c.7,0,1,.39,1,1.09s0,1.2,0,1.81c-.42.57-.89.47-1.32.05a1.06,1.06,0,0,0-.68-.43,3.54,3.54,0,0,0-.92-.07c-.57,0-1.17.18-1.68-.23a.63.63,0,0,1-.2-.33V16c.69-.22,1.87.52,1.92-1Z"/><path class="cls-72" d="M22.88,15v-.91c.71-.08,1.05.23,1,.95Z"/><path class="cls-73" d="M47,8.23h1c0,.32,0,.63,0,.94l-.94,0a.66.66,0,0,1-1,0C46.05,8.53,46.32,8.17,47,8.23Z"/><path class="cls-74" d="M48.05,11.18v.9c-.64.77-1.28.63-1.93,0l0-.93a.66.66,0,0,1,1,0Z"/><path class="cls-75" d="M47.08,11.13l-1,0h0a.75.75,0,0,1-.07-1,.7.7,0,0,1,1,.06Z"/><path class="cls-76" d="M47,10.18h-.9L46,10.08a.69.69,0,0,1,.11-.89h1C47.07,9.53,47.05,9.86,47,10.18Z"/><path class="cls-77" d="M53.82,17v.89l-.11.18a.72.72,0,0,1-1-.06.7.7,0,0,1,.1-1l0-.1Z"/><path class="cls-78" d="M15.18,18.91l.95-.08c.37-.26.63-.65,1-.89l.93-.08V18c.31.46,1,.3,1.28.86a1.27,1.27,0,0,1,0,.92.84.84,0,0,1-.22.31c-.66.38-1.64.1-2,1a1.65,1.65,0,0,1-1,.21c-.36,0-.72,0-1.08,0-.65-.06-1.35.14-1.91-.38a.79.79,0,0,1,.09-1.07h0C14,19.71,15,20.29,15.18,18.91Z"/><path class="cls-79" d="M17.15,17.94c.06.76-.33,1-1,.89l0-.89Z"/><path class="cls-80" d="M21,17l.95-.1V17c.3,1.07.18,1.21-1,1.06A.71.71,0,0,1,21,17Z"/><path class="cls-81" d="M21,17l-.05.91a.59.59,0,0,1-1,0L20,17Z"/><path class="cls-82" d="M20,17.84l1,0c.68.08,1-.21,1-.9h1.9a1.07,1.07,0,0,1,.47,1,3.83,3.83,0,0,1-.2,1.95.86.86,0,0,1-1,.29,1,1,0,0,1-.38-.18c-.3-.62-.83-.59-1.42-.63-.74-.06-1.58.28-2.19-.43-.61,0-1-.27-1-1Z"/><path class="cls-83" d="M55.79,18.84h1l0,.05c.36.28.64.64,1,.92h1l0,0a1,1,0,0,1,.46.85,1.76,1.76,0,0,1-.13,1,.78.78,0,0,1-.24.3,1.05,1.05,0,0,1-1.54-.36.75.75,0,0,0-.61-.29,2.52,2.52,0,0,1-.87-.31c-.44-.83-1.23-.75-2-.73-.32,0-.64,0-1,0a1.39,1.39,0,0,1-1-.33c-.4-1.1-.23-1.42.84-1.55A1.75,1.75,0,0,0,53.84,18v-.11l1,.09C55.15,18.19,55.42,18.57,55.79,18.84Z"/><path class="cls-84" d="M55.79,18.84c-.69.09-1-.21-1-.91l1,0Z"/><path class="cls-85" d="M13.24,19.83v1l-.1.18a1.29,1.29,0,0,1-1.72,0l-.1-.18V19.9Z"/><path class="cls-86" d="M31.57,6.27c.05.59.24,1.05,1,1l0,1c-1.94,0-1.94,0-1.89-1.89Z"/><path class="cls-87" d="M58.67,20.84l0-1,1,0v.87A.64.64,0,0,1,58.67,20.84Z"/><path class="cls-88" d="M57.72,19.81c-.66.06-1-.23-1-.92l1,0Z"/><path class="cls-89" d="M47.06,61.36c0,.73-.34,1-1,1-.51.65-1.24.38-1.89.45a25.37,25.37,0,0,1-3.8,0l-1.15,0c-2.81,0-5.61,0-8.42,0H29.68c-.64,0-1.29,0-1.93,0a1.14,1.14,0,0,1-1-.42v-1a1.11,1.11,0,0,1,.9-.41c.34,0,.68,0,1,0H39.44c1.55,0,3.1,0,4.65,0a18.92,18.92,0,0,1,2,0A1.17,1.17,0,0,1,47.06,61.36Z"/><path class="cls-90" d="M43.24,56.07c1,.72,1.9,1.74,3.35,1.45.45.19.48.58.47,1a1.16,1.16,0,0,1-1,.43c-.65.08-1.3,0-1.95.05a19.79,19.79,0,0,1-3.77,0H39.22c-2.8,0-5.61,0-8.41,0a2,2,0,0,1-1.08-.19.66.66,0,0,1-.29-.33,1.41,1.41,0,0,1,.26-.93,1.1,1.1,0,0,1,1-.43c.64-.07,1.29,0,1.93,0A43.25,43.25,0,0,1,38,57a1.28,1.28,0,0,0,1.31-.71c.93-.59,1.34.44,2,.64.61,0,1.33.36,1.58-.58A.57.57,0,0,1,43.24,56.07Z"/><path class="cls-91" d="M40.29,62.38h3.89a.82.82,0,0,1,.34.81,1.86,1.86,0,0,1-.06.34c-.45.52.41,1.27-.29,1.74,0,.73-.41,1-1.07.94-1.27,0-2.53,0-3.8,0a.85.85,0,0,1-.28-.85,2.07,2.07,0,0,0,.89-2.13A.89.89,0,0,1,40.29,62.38Z"/><path class="cls-92" d="M44.17,63.32c0-.31,0-.62,0-.94h1.88c0,.28,0,.56,0,.84.08,2,.08,2-1.93,2a1.21,1.21,0,0,0-.37-.85c-.89-.71-.55-1,.37-1.1l.34.34Z"/><path class="cls-93" d="M35.46,66.23c-1.57,0-3.14,0-4.71,0-.66,0-1.11-.19-1.07-1l.11-.19a1.37,1.37,0,0,1,1.06-.29q1.77,0,3.54,0a1.65,1.65,0,0,1,1.16.35A.75.75,0,0,1,35.46,66.23Z"/><path class="cls-94" d="M35.46,66.23l-.07-.93a.54.54,0,0,1,.22-.31,1.3,1.3,0,0,1,.94-.22,1.85,1.85,0,0,0,1.9-.77.87.87,0,0,1,1,.2.82.82,0,0,1-.11,1.06c0,.31,0,.62-.05.93l-.44,0a3,3,0,0,1-3.4,0Z"/><path class="cls-95" d="M35.46,66.24l3.4,0c-.34,1.4-1.48.86-2.34,1C35.86,67.25,35.45,67,35.46,66.24Z"/><path class="cls-96" d="M27.76,61.35h-1l-.05-2.62c.3-.31.67-.21,1-.2a1,1,0,0,1,.42.9,5.91,5.91,0,0,1,0,1A1,1,0,0,1,27.76,61.35Z"/><path class="cls-97" d="M26.78,62.38h1a1,1,0,0,1,.42.89,5.9,5.9,0,0,1,0,1,1,1,0,0,1-.42.9c-.71.09-1-.24-1-.94S26.78,63,26.78,62.38Z"/><path class="cls-98" d="M46.07,58.53l1,0v2.85l-1,0A2.33,2.33,0,0,1,46.07,58.53Z"/><path class="cls-99" d="M27.77,65.21v-1a.72.72,0,0,1,1,0,.7.7,0,0,1-.07,1Z"/><path class="cls-100" d="M28.72,65.21l0-.9a.67.67,0,1,1,1,.9l0,.06Z"/><path class="cls-101" d="M67.33,46.89c0,1.61,0,3.23,0,4.84a1.06,1.06,0,0,1-.94-1.07.8.8,0,0,0-.91-.86c-.54,0-.94.14-1,.74a1.85,1.85,0,0,1-.94,1.18,9.85,9.85,0,0,0-1.94-1.93H58.67A4.58,4.58,0,0,0,57,51.72a1.11,1.11,0,0,1-1.23-1.18c0-.55-.4-.73-.9-.74s-1,.1-1,.66c0,1.1-.58,1.49-1.54,1.18-1.11-.37-.51-1.23-.4-1.93s.76-.82.93-1.37c-.73-.62-.4-1.45-.45-2.2.06-.15.1-.37.24-.39,1.17-.21,1.67-1.1,2.14-2,.9-.31,1.38.08,1.51.95A4,4,0,0,0,57,46.53c.17,1,.45,1.85,1.69,1.85s2.18-.09,2.47-1.48c0-.2.27-.29.46-.36a2.8,2.8,0,0,1,1.69-.1,2.54,2.54,0,0,1,1,.86c.8.94,1,.93,1.59-.12C66.28,46.55,66.72,46.3,67.33,46.89Z"/><path class="cls-102" d="M51,49.31l0,2.39a.77.77,0,0,1-1.09.07,1.75,1.75,0,0,1-.38-1.54,30.11,30.11,0,0,1,.14-4c.16-.58,1-.79.84-1.55a1,1,0,0,1,.5-.94c1.6-.46,2.06-.25,2.28,1a2.89,2.89,0,0,0-.85,2.5.8.8,0,0,1-.4.92C51.43,48.38,51.28,48.9,51,49.31Z"/><path class="cls-103" d="M57.68,55.62h-1l0,0a.74.74,0,0,1,.13-1.21,1.38,1.38,0,0,1,1.81.24c.81.06,1.6,0,2.26.78.39.49,1.29.2,2,.22s1.36,0,2,0a.86.86,0,0,1,.1,1.13c-.41.44-1,.31-1.46.32-1.29,0-2.58,0-3.86,0a1.25,1.25,0,0,1-1.06-.44v0C58.33,56.25,58.05,55.89,57.68,55.62Z"/><path class="cls-104" d="M58.69,54.59c-.71.21-1.85-.47-1.94,1h-.94c.09-.77-.38-1-1-1a2.63,2.63,0,0,1,3.2-1.8C59,53.09,58.56,53.94,58.69,54.59Z"/><path class="cls-105" d="M51,49.31c0-.6-.08-1.16.56-1.58s.34-1,.36-1.56.12-1.23,1-1.2a.67.67,0,0,1,0,1v2.4C52.11,48.42,51.67,49.1,51,49.31Z"/><path class="cls-106" d="M67.4,52.66l.89.05v3.83a.77.77,0,0,1-1,.24.7.7,0,0,1-.28-.31,3.56,3.56,0,0,1-.15-1.86,1.06,1.06,0,0,1,.42-.93Z"/><path class="cls-107" d="M61.56,49.79c1.93,0,1.93,0,1.94,1.93C61.57,51.72,61.57,51.72,61.56,49.79Z"/><path class="cls-108" d="M57,51.72c-.5-1.72-.33-1.92,1.69-1.93C58.66,51.7,58.66,51.7,57,51.72Z"/><path class="cls-109" d="M67.33,54.64v1.9a1.61,1.61,0,0,1-2.37,0v-.94l.45,0c.38-.26.65-.63,1-.92v0A.64.64,0,0,1,67.33,54.64Z"/><path class="cls-110" d="M51.89,53.71,50,53.64h0a.7.7,0,0,1-.08-1,.75.75,0,0,1,1,0l.9.08a.56.56,0,0,1,.07.88Z"/><path class="cls-111" d="M67.33,54.64l-.93,0c0-.64.23-1,.94-.94C67.33,54,67.33,54.32,67.33,54.64Z"/><path class="cls-103" d="M66.41,54.64c0,.69-.33,1-1,.92C65.39,54.88,65.75,54.59,66.41,54.64Z"/><path class="cls-101" d="M51,52.65l-1,0-.15-.06a.58.58,0,0,1-.09-.74.46.46,0,0,1,.27-.15l.91,0Z"/><path class="cls-112" d="M51.92,53.61l-.06-.88c.69-.08,1,.21,1,.92Z"/><path class="cls-113" d="M49,53.41l0-.73a.68.68,0,0,1,1,0l0,0c0,.32,0,.64,0,1A1.5,1.5,0,0,1,49,53.41Z"/><path class="cls-114" d="M65,56.52l2.37,0,.11,0a.64.64,0,0,1-.1.92H59.65a.6.6,0,0,1,0-.9Z"/><path class="cls-115" d="M67.34,57.49c0-.31.07-.61.1-.92l.86,0C68.44,57.32,68.1,57.62,67.34,57.49Z"/><path class="cls-60" d="M59.62,56.58l0,.9-1,0,0-.94Z"/><path class="cls-116" d="M57.68,55.62c.7-.09,1.06.19,1,.92l-1,0Z"/><path class="cls-117" d="M17.15,55.64c-.15,1.33-1.24.75-1.94,1L15,56.49a.84.84,0,0,1,0-1,1,1,0,0,1,1-.33,1.56,1.56,0,0,1,1,.19A.6.6,0,0,1,17.15,55.64Z"/><path class="cls-118" d="M14.92,57.56l-.73-.06a.78.78,0,0,1-.23-.91.69.69,0,0,1,.28-.28.78.78,0,0,1,.92.21l.05.09A1.61,1.61,0,0,1,14.92,57.56Z"/><path class="cls-119" d="M18.07,55.58l-.92.06a.76.76,0,0,1-.08-.11c-.23-1.09-.1-1.21,1-1a.72.72,0,0,1,0,1.06Z"/><path class="cls-120" d="M13.23,57.48H5.54a.6.6,0,0,1-.07-.9l.08-.05c.84-.93,1.93-.34,2.9-.47,1.23,0,2.45,0,3.68,0a1.37,1.37,0,0,1,1.2.32A.78.78,0,0,1,13.23,57.48Z"/><path class="cls-121" d="M13.23,57.48l0-.9a.6.6,0,0,1,1,0l0,.94Z"/><path class="cls-122" d="M5.47,56.59l.07.9c-.77.13-1.11-.17-1-1Z"/><path class="cls-123" d="M5.56,44.25l0-20.57a.75.75,0,0,1,1-.1,1.27,1.27,0,0,1,.38,1c0,.37,0,.73,0,1.1a14.55,14.55,0,0,1,0,2.8A12.19,12.19,0,0,1,7,30.4c0,.35,0,.7,0,1.05a9.84,9.84,0,0,1,0,1.88c0,.35,0,.7,0,1.06a12.42,12.42,0,0,1,0,1.93,21.15,21.15,0,0,1,0,2.87,16.81,16.81,0,0,1-.19,4.75.93.93,0,0,1-.22.4A.75.75,0,0,1,5.56,44.25Z"/><path class="cls-124" d="M5.56,44.25h.89c1,.67.48,1.67.56,2.53a12.7,12.7,0,0,1,0,1.95c0,.34,0,.68,0,1a7.91,7.91,0,0,1,.06.83,5.65,5.65,0,0,0,1.68,5,.93.93,0,0,1-.31,1H5.55Q5.55,50.39,5.56,44.25Z"/><path class="cls-125" d="M6.49,23.7l-1,0V20.82l5.78,0,0,.06a.75.75,0,0,1,.25.93.81.81,0,0,1-.29.29,8.34,8.34,0,0,1-2.49.19c-.41,0-.83,0-1,.5a.88.88,0,0,1-.22.25,1.55,1.55,0,0,0-.92.64Z"/><path class="cls-126" d="M63.5,46.88H61.57c-1-.68-.44-1.72-.61-2.59,0-.23,0-.47,0-.71-.09-1.31-.48-1.6-1.77-1.23-.23.06-.47.09-.7.14-1,.06-1.91.65-2.91.12-.4-1-.27-1.48.85-1.91.81-.31,1.54-.59,1.88-1.49.16-.42.64-.43,1-.54a2.61,2.61,0,0,1,1.24-.05,4.54,4.54,0,0,0,.94.21c.37.11.41.46.53.75a1.3,1.3,0,0,0,1.41.9c.4,0,.81,0,1.21,0a14.43,14.43,0,0,1,1.86.15.91.91,0,0,1,.81.47v5.31c-.87.35-1.28-.07-1.44-.88a4,4,0,0,1,0-1.2c0-.16,0,0,0-.11-.07-.52.19-1.36-.51-1.37-.47,0-.39.84-.41,1.35C65.06,45.92,64.76,46.45,63.5,46.88Z"/><path class="cls-127" d="M67.32,41.11l-.93,0c-.54-.87-1.17-1.1-1.93-.24a1,1,0,0,1-.95,0c-.66-.55-1.25-1.19-1.95-1.7h-1c-.41-.78,0-1.11.69-1.33,1.26,0,1.77-.68,1.87-1.83a5.44,5.44,0,0,0,.77-2.1.91.91,0,0,1,.56-.84,2.41,2.41,0,0,1,1.88,0c.6.24.53.82.52,1.26a1.79,1.79,0,0,0,.44,1.48c0,.16,0,.31,0,.46Z"/><path class="cls-107" d="M66.4,44c.09.89-.34,2,.93,2.43v.47a.8.8,0,0,0-.92.86c0,.5-.09,1-.74,1A1.4,1.4,0,0,1,64,48.08c-.19-.39-.36-.8-.54-1.2.47-.91,1.2-1.74,1-2.89A1.19,1.19,0,0,1,66.4,44Z"/><path class="cls-128" d="M55.77,20.76l.94.1a1.23,1.23,0,0,1,.47.49c.48,1.09.54,1.1,1.51.45l0-.08c.51-.55,1.17-.4,1.8-.41a3.14,3.14,0,0,1,.61.05c1.33,1.14,2.66,1.23,3.88.24a.46.46,0,0,1,.48.22c0,.77.15,1.57-.72,2.11-.38.23-.28.8-.15,1.23s.51.44.88.45l1,0a.7.7,0,0,1,1,0h0l0,.5a1.64,1.64,0,0,0,0,2.39V30a.84.84,0,0,1-.87.3c-.69-.57-1.24-1.4-2.32-1.26A3.11,3.11,0,0,1,63,25.91c-.07-1.58-.19-1.7-1.67-1.73a7.25,7.25,0,0,1-2.37,0,1.47,1.47,0,0,0-1.85,1.23.82.82,0,0,1-.42.56,1.06,1.06,0,0,1-.87-.05c-1-1.2-1-1.2-2-.07a.64.64,0,0,1-.22.1.92.92,0,0,1-1-.31,16.1,16.1,0,0,1-.19-5.23c0-.24.24-.39.42-.55l.93,0a1.05,1.05,0,0,1,.46.74c0,.4,0,.91.43,1s.57-.56.9-.8Z"/><path class="cls-129" d="M66.41,30l.92,0v5.79c-.65,0-.93-.36-.92-1s0-1,0-1.45c-1-1-1-1-1.93,0,0,1.1,0,2.18-1,2.92a1.53,1.53,0,0,1-2,.23c-.81-.85-.49-1.84-.35-2.8l.13-.36a.77.77,0,0,1,.34-.3c.32-.16.89-.2.77-.68s-.65-.26-1-.26a13.44,13.44,0,0,1-2.9-.14c-.69-.73-1.63-1.37-.93-2.6a.9.9,0,0,1,.93-.25,1,1,0,0,1,.46.12c.66.53,1.08.39,1.29-.42a.76.76,0,0,1,.41-.56.71.71,0,0,1,.81.15c.32.3.62.61.91.93a13.59,13.59,0,0,0-1-1,2.79,2.79,0,0,1-.07-2.63.8.8,0,0,1,.31-.32,1.48,1.48,0,0,1,1.91.26c0,1.15-.07,2.31,1,3.14C65.15,29.09,65.42,30.12,66.41,30Z"/><path class="cls-129" d="M67.34,28.51c-.9,0-.92-.68-.93-1.34s.22-1.07,1-1.05C67.35,26.92,67.35,27.71,67.34,28.51Z"/><path class="cls-130" d="M61.08,21.8l-.47-.07a.6.6,0,0,1,0-.9h6.74v.92a.72.72,0,0,1-1,.05l-.93,0-.47,0A4.1,4.1,0,0,1,61.08,21.8Z"/><path class="cls-131" d="M67.37,25.62h-1c.17-.72-.48-1.86,1-1.92C67.38,24.35,67.37,25,67.37,25.62Z"/><path class="cls-132" d="M66.36,21.8l1-.05v.94C66.59,22.86,66.34,22.48,66.36,21.8Z"/><path class="cls-133" d="M60.61,20.83v.9h-2v-.88l1-.09Z"/><path class="cls-134" d="M45.12,17.91c-1.19-.05-.91-.95-1-1.66s.06-1.3,1-1.25a.6.6,0,0,1,.46.69c0,.46.26.69.71.7a6,6,0,0,1,.83.24c.53.24.37,1,.89,1.25l0,1c.29.55,1,.51,1.35,1a1.33,1.33,0,0,1-.13,1.21,1.88,1.88,0,0,1-2.84-1.06A5.18,5.18,0,0,0,45.12,17.91Z"/><path class="cls-135" d="M49,21l0-1.19a.72.72,0,0,1,0-1c0-.63.26-1,1-1a.65.65,0,0,1,.34.25c.52.9.09,1.88.19,2.81-.09.67.2,1.41-.38,2a1,1,0,0,1-1.2,0A1.27,1.27,0,0,1,49,21Z"/><path class="cls-136" d="M48,17.88c-.72.13-1.07-.16-1-.91a1.52,1.52,0,0,1-.11-2A.81.81,0,0,1,48,15h0Z"/><path class="cls-137" d="M49,18.88v1c-.68,0-.94-.35-.9-1Z"/><path class="cls-138" d="M50,17h1A.73.73,0,0,1,51,18a.71.71,0,0,1-1,0l-.11-.08Z"/><path class="cls-139" d="M48,15l-.93,0c-.82.36-.25,1.46-1,1.87-1.45-.07-.84-1.19-1-1.92-.14-1,1.13-1.08,1.21-1.93a2.09,2.09,0,0,1,2.7-.06l1.85.14L51,14c-.64,0-1.28,0-1.92,0S48,14.3,48,15Z"/><path class="cls-140" d="M52.84,17l0,.88a.68.68,0,1,1-1-.91Z"/><path class="cls-141" d="M51.88,17l0,.9a.63.63,0,0,1-1,0L51,17Z"/><path class="cls-137" d="M49,21l.09,1.68c.77,1.27.57,2-.68,2.32a1.48,1.48,0,0,1-.42-.14c-.4-.72-1.63-.91-1.32-2.08a2.91,2.91,0,0,0-3.06-1.34c-.73.24-.7.85-.76,1.45s.25,1.55-.59,2a1.05,1.05,0,0,1-.93,0,1,1,0,0,1-.51-1c.05-.58-.32-.8-.66-1.09a1.76,1.76,0,0,1-.31-.86c0-.42-.07-.79-.55-.92a.66.66,0,0,1-.23-.24,2.53,2.53,0,0,0-2.25-1.43c-.51-.05-.74.12-.78.61.19,1-.95,1.16-1.29,1.84-.56.21-.8.77-1.24,1.12a.79.79,0,0,1-.91-.24,8.48,8.48,0,0,1,2.72-6.1,2.51,2.51,0,0,1,3.91.52,8.69,8.69,0,0,1,1,2c.3,1,.82.84,1.38.35s1.09-.83,1.78,0a1.48,1.48,0,0,0,1.81.11c.66-.35,0-.84,0-1.27,0-.16,0-.32,0-.48a1.88,1.88,0,0,1,1.78,1.47C47,20.86,48,20.8,49,21Z"/><path class="cls-142" d="M30.65,23.22l0,.47a1.11,1.11,0,0,1-.93.46c-1.32.23-2.67.07-3.91.9-.77.51-1.88.19-2.84.12l-1.07,0a1.58,1.58,0,0,1-1-.21,1,1,0,0,1-.38-1,.82.82,0,0,1,.81-.75c.79,0,1.1-.33,1.2-1.1.08-.6.58-.82,1.18-.76a.49.49,0,0,1,.21.08c1.06,1,1.06,1,2,0a1,1,0,0,1,.94,0c.45.9,1.29.81,2.1.8.61,0,1.26-.15,1.77.37A.5.5,0,0,1,30.65,23.22Z"/><path class="cls-143" d="M26.8,21.79h-1l-.17-.07c-.51-.46-.14-1.45-1-1.71a.86.86,0,0,1-.16-.35,4.85,4.85,0,0,1-.09-1.82,1.09,1.09,0,0,1,.47-.91c.88-.2,1,1.2,1.88.94l1,0h0a3.19,3.19,0,0,0,1,2.89.83.83,0,0,1,.24,1,.8.8,0,0,1-.33.3A1.49,1.49,0,0,1,26.8,21.79Z"/><path class="cls-144" d="M28.68,21.69c0-.3,0-.6,0-.9.48,0,1,0,1.45,0s1.27,0,1.41.83a1.23,1.23,0,0,1-.91,1.59l0-.52a1.16,1.16,0,0,0-1-.47C29.22,22.21,28.84,22.18,28.68,21.69Z"/><path class="cls-137" d="M30.65,24.66c.77.14,1.16-.74,1.9-.72.73.38.45,1.07.49,1.66a1.65,1.65,0,0,1-.3,1.09,1.09,1.09,0,0,1-1.05.24,2.79,2.79,0,0,1-1.36-1.31A.81.81,0,0,1,30.65,24.66Z"/><path class="cls-145" d="M27.74,17.9c0-.72,0-1.44,0-2.16,0-.28.1-.6.47-.58a.46.46,0,0,1,.43.6c-.13.78.65,2-.93,2.14Z"/><path class="cls-146" d="M49.05,13l-2.7.06a1.64,1.64,0,0,1-.23-1h1.93l.94,0Z"/><path class="cls-147" d="M40.33,7.23l2.4.07c-.26.84-.88,1-1.67.92S40.31,7.75,40.33,7.23Z"/><path class="cls-144" d="M30.65,24.66v1a.76.76,0,0,1-1.23-.12,1.31,1.31,0,0,1,.26-1.8h1C30.64,24,30.64,24.34,30.65,24.66Z"/><path class="cls-148" d="M32.61,25.64l-.06-1.7a1.05,1.05,0,0,0,.05-.19.8.8,0,0,1,1.1-.15,1.73,1.73,0,0,1,0,2.06A.77.77,0,0,1,32.61,25.64Z"/><path class="cls-149" d="M46.14,10.19l0,1-1,0,0-.92a.57.57,0,0,1,.88,0Z"/><path class="cls-150" d="M33.52,23.69l-.92.06,0-1,.93,0,.16.11A.58.58,0,0,1,33.52,23.69Z"/><path class="cls-151" d="M46.06,10.14l-.88,0c-.09-.68.18-1,.91-1Z"/><path class="cls-152" d="M24.87,16.93l-.05,1a.62.62,0,0,1-.93,0c0-.3,0-.6-.05-.91Z"/><path class="cls-153" d="M50.92,17.88l1,0h1l1,.08c0,.67-.37.9-1,.89s-1,.27-1,1l-.08.16c-.48.21-.48.86-1,1.07a.78.78,0,0,1-.87-.28l0-2.85Z"/><path class="cls-154" d="M23.92,21.79c-.63,0-1,.22-1,.89s-.32,1-1,1c-.36,0-.95-.14-.95.42s.62.47,1,.54a1.51,1.51,0,0,1,.3,1.8.76.76,0,0,1-.24.34,1.17,1.17,0,0,1-1,.12,3.31,3.31,0,0,1-1.5-1.76.78.78,0,0,0-.76-.61c-.19,0-.41-.11-.55.06s0,.35.17.45a2.17,2.17,0,0,1,.57.56,2.53,2.53,0,0,1,.23,3c-1.56.81-2.21.58-2.74-1-.19-.57-.63-1-.78-1.58-.09-1.42-.3-1.65-1.63-1.83a23.6,23.6,0,0,1-2.52.11c-1.38.06-1.54.2-1.68,1.55a7,7,0,0,1-1.48,3c-.68.23-1.35.37-1.86-.32V25.64c.17-.17.3-.41.55-.44.79-.09.92-.63.89-1.26a1.81,1.81,0,0,1,.34-1.36A2.58,2.58,0,0,1,10,22.26a1.54,1.54,0,0,0,1.3-.47l0,0c.49-.63,1.19-.41,1.83-.48a4.2,4.2,0,0,1,1,.06,1,1,0,0,1,.42.4c.47.75.87.57,1.08-.16a1.57,1.57,0,0,1,.52-.75l.95-.08.16.06c.34.24.32,1,.89.81s.42-.62.44-1,.24-.53.45-.75h0a3.71,3.71,0,0,1,3.83,0l0,0a1.36,1.36,0,0,0,1.11.5,1.19,1.19,0,0,1,1.11.5.9.9,0,0,1-.17,1A.75.75,0,0,1,23.92,21.79Z"/><path class="cls-155" d="M22.89,19.85H19.06c0-.3,0-.61.05-.91l2.83-.08C22.64,18.83,23,19.13,22.89,19.85Z"/><path class="cls-156" d="M16.16,20.83a8.45,8.45,0,0,1-.11,1.43c-.13.49-.6.45-1,.45-.62,0-.83-.37-.85-.92s.76-.55,1-1Z"/><path class="cls-157" d="M19.05,19.84v.94a1.22,1.22,0,0,1-1.93.08v-.11C17.24,19.34,18.33,20,19.05,19.84Z"/><path class="cls-158" d="M15.2,20.83c0,.67-.37,1-1,1l-1-.07a.65.65,0,0,1,0-.93h0Z"/><path class="cls-159" d="M24.81,20.77c-.7-.18-1.92.68-1.9-.94l.95,0a.65.65,0,0,1,.93.05l.1,0A.64.64,0,0,1,24.81,20.77Z"/><path class="cls-160" d="M24.79,19.84l-.93-.05,0-1.92.93,0Z"/><path class="cls-161" d="M52.89,19.87v5.7l-.14.19a.76.76,0,0,1-1-.09c-.41-.61-.22-1.3-.29-2,0-1,0-1.93,0-2.89a1.17,1.17,0,0,1,.43-1l0,0Z"/><path class="cls-162" d="M58.69,21.8c0,.72-.43.94-1.09.91s-.85-.45-.87-1c0-.28,0-.55,0-.83C57.64,20.6,57.78,22,58.69,21.8Z"/><path class="cls-163" d="M53.84,20.79c0-.31,0-.63,0-.94.73.12,1.8-.48,2,.91v.1A1.23,1.23,0,0,1,53.84,20.79Z"/><path class="cls-164" d="M13.25,20.79l0,.93-1.9,0,0-.92Z"/><path class="cls-165" d="M23,45.91c.43,0,.87.11.86.62,0,2.06.35,4.12-.19,6.16l-.69,0-.19-.1a1.25,1.25,0,0,1-.32-1,10.78,10.78,0,0,1,0-2.78c.13-.89-.2-1.82.21-2.69A.65.65,0,0,1,23,45.91Z"/><path class="cls-166" d="M22.91,53.64c-.08,1.45-1.2.84-1.94,1a.8.8,0,0,1-.11-1,1.18,1.18,0,0,1,1-.33A1.18,1.18,0,0,1,22.91,53.64Z"/><path class="cls-167" d="M21,53.7c0,.31,0,.62,0,.92l-1,0a.79.79,0,0,1-.28-.84.66.66,0,0,1,.21-.31.78.78,0,0,1,.88,0A.55.55,0,0,1,21,53.7Z"/><path class="cls-168" d="M20,53.67c0,.31,0,.62,0,.93l-.94.09-.16-.18C18.85,53.4,19,53.29,20,53.67Z"/><path class="cls-169" d="M18.08,55.58l0-.93.11-.15a.63.63,0,0,1,.84.09v.1C19.06,55.36,18.7,55.61,18.08,55.58Z"/><path class="cls-170" d="M22.91,53.64h-1a.76.76,0,0,1-.23-.9.69.69,0,0,1,.27-.29.78.78,0,0,1,.91.2l.07.08Z"/><path class="cls-171" d="M29.71,56.54V45a.75.75,0,0,1,1.08-.07,1.88,1.88,0,0,1,.41,1.22c.06,3.12.07,6.23,0,9.35a1.58,1.58,0,0,1-.19.8,1.14,1.14,0,0,1-.25.39A.75.75,0,0,1,29.71,56.54Z"/><path class="cls-172" d="M30.64,40.16h4.84a1.35,1.35,0,0,1,.07,2,8,8,0,0,1-5,0A1.39,1.39,0,0,1,30.64,40.16Z"/><path class="cls-173" d="M40.29,40.16h3.89a1,1,0,0,1,.42.93,1.55,1.55,0,0,1-.22,1.07,1.16,1.16,0,0,1-.41.25,7,7,0,0,1-3.83-.19A1.52,1.52,0,0,1,40.29,40.16Z"/><path class="cls-174" d="M35.45,42.08l0-1.91h2.88c.72.6.58,1.27.16,2a3.09,3.09,0,0,1-2.91.12C35.56,42.21,35.51,42.14,35.45,42.08Z"/><path class="cls-175" d="M44.17,41.08v-.93h1.88V43c-.56.8-1.26.55-2,.25a.86.86,0,0,1,0-1.15l.11,0A.58.58,0,0,0,44.17,41.08Z"/><path class="cls-176" d="M35.48,39.13H30.63a.75.75,0,0,1-.09-1,1.4,1.4,0,0,1,1.08-.36c1,0,1.91,0,2.87,0a1.43,1.43,0,0,1,1.07.35A.74.74,0,0,1,35.48,39.13Z"/><path class="cls-177" d="M44.19,39.14l-4.9,0a.79.79,0,0,1-.18-.95.76.76,0,0,1,.31-.28,2.29,2.29,0,0,1,1.06-.19c1.28,0,2.58-.4,3.77.37A.77.77,0,0,1,44.19,39.14Z"/><path class="cls-178" d="M44.19,39.14l-.1-.92a.69.69,0,0,1,.17-.3c.39-.17.4-.56.43-.88s.08-.85.53-1.07a.7.7,0,0,1,.86.3c0,.95,0,1.9,0,2.85Z"/><path class="cls-179" d="M39.33,38.19c0,.31,0,.62,0,.93H35.48c0-.29,0-.58,0-.87l.09-.21c.87-.71,1.85-.37,2.81-.32A.94.94,0,0,1,39.33,38.19Z"/><path class="cls-180" d="M27.77,40.16h1.9a.77.77,0,0,1,.27.89c-.32.41-.89.59-1.05,1.15a1.09,1.09,0,0,1-.39.19,1,1,0,0,1-1-.3A1.54,1.54,0,0,1,27.77,40.16Z"/><path class="cls-181" d="M27.77,40.16V42a.66.66,0,0,1,0,.94h-1c0-.64,0-1.28,0-1.92S27,40,27.77,40.16Z"/><path class="cls-182" d="M27.79,59.47l0-.95,1.67-.08.25.09a.75.75,0,0,1,0,1.08A1.39,1.39,0,0,1,27.79,59.47Z"/><path class="cls-183" d="M27,36.22l.76.07a1.43,1.43,0,0,1,.29,1.78.87.87,0,0,1-.28.32.78.78,0,0,1-1-.22C26.83,37.52,26.58,36.83,27,36.22Z"/><path class="cls-184" d="M40.29,40.16v1.9a.75.75,0,0,1-1.08.07,1.36,1.36,0,0,1,.1-2Z"/><path class="cls-185" d="M39.32,40.17l0,1.91a.64.64,0,0,1-.08.14.59.59,0,0,1-.76.09.57.57,0,0,1-.18-.28l0-1.85Z"/><path class="cls-186" d="M29.66,41.12c0-.32,0-.64,0-.95h1v1.9l-.1.16a.75.75,0,0,1-.9.07.71.71,0,0,1-.25-.29A.77.77,0,0,1,29.66,41.12Z"/><path class="cls-187" d="M29.71,56.54l.87,0a.57.57,0,0,1,.09.92l-1,0C29.7,57.19,29.71,56.86,29.71,56.54Z"/><path class="cls-188" d="M26.8,38.17l.88,0c.37.28.33.59.09.92C27,39.22,26.71,38.91,26.8,38.17Z"/><path class="cls-189" d="M27.77,39.13l-.09-.92.1,0a.67.67,0,1,1,.94.95Z"/><path class="cls-190" d="M28.72,39.12v-.87l.07-.18a.77.77,0,0,1,.91-.12.81.81,0,0,1,.25.3.76.76,0,0,1-.28.88Z"/><path class="cls-191" d="M29.66,39.13l.05-.89c.15-.34.42-.36.73-.26a.56.56,0,0,1,.21.27l0,.88Z"/><path class="cls-192" d="M29.71,44h.95a.6.6,0,0,1,.12.81l-.14.12-.93,0Z"/><path class="cls-193" d="M41.3,57.49c-.91.25-1.09-1-1.93-.91l-.21-.13a2.44,2.44,0,0,1-.28-1.59c0-3.25,0-6.5,0-9.75a1.83,1.83,0,0,1,.36-1.25,4.22,4.22,0,0,1,4,.15v1a3.42,3.42,0,0,0-1.34,3.14,81.38,81.38,0,0,1-.12,8.41A1.15,1.15,0,0,1,41.3,57.49Z"/><path class="cls-194" d="M41.3,56.53l0-9.83c0-1.82,0-1.84,1.92-1.72,0,3.7,0,7.39.05,11.09l-.07.47A1.11,1.11,0,0,1,41.3,56.53Z"/><path class="cls-195" d="M39.34,64.28l-.9,0-.19-.07c-.93-.82-2-.27-3.07-.43-1.11,0-2.22,0-3.34,0a1.56,1.56,0,0,1-1.26-.37.76.76,0,0,1,.06-1.08l8.67,0C40,63,40.09,63.65,39.34,64.28Z"/><path class="cls-196" d="M44.16,61.36H39.33a.79.79,0,0,1-.23-1,.76.76,0,0,1,.31-.28,2.45,2.45,0,0,1,1.06-.21c1.28,0,2.58-.4,3.78.38A.77.77,0,0,1,44.16,61.36Z"/><path class="cls-197" d="M35.45,61.35H30.63a.77.77,0,0,1-.15-1,1.12,1.12,0,0,1,.38-.26,9.76,9.76,0,0,1,4.65.19A.74.74,0,0,1,35.45,61.35Z"/><path class="cls-198" d="M44.16,61.36l-.06-.91v-.28c0-.31-.27-.54-.3-.85a.87.87,0,0,1,.36-.79h1.91v2.81Z"/><path class="cls-199" d="M39.34,64.28l0-1.87,1,0c.05.2.07.39.13.58.12.41,1.11.55.62,1s-.77,1.35-1.69,1.27C39.34,64.93,39.34,64.61,39.34,64.28Z"/><path class="cls-200" d="M35.45,61.35l-.05-.88a.64.64,0,0,1,.25-.33,4.09,4.09,0,0,1,2.61,0,.76.76,0,0,1,.32.27.77.77,0,0,1-.22,1Z"/><path class="cls-201" d="M27.79,63.35l0-1h1.91a.75.75,0,0,1,.05,1.08A1.37,1.37,0,0,1,27.79,63.35Z"/><path class="cls-202" d="M29.7,63.29c0-.3,0-.6,0-.91h1c0,.3,0,.6,0,.9l-.09.16a.59.59,0,0,1-.81,0Z"/><path class="cls-203" d="M38.36,61.35l0-.89a.58.58,0,0,1,1,0c0,.31,0,.61,0,.92Z"/><path class="cls-204" d="M30.65,60.45l0,.9h-1a.7.7,0,0,1,0-1A.68.68,0,0,1,30.65,60.45Z"/><path class="cls-205" d="M29.72,60.46c0,.29,0,.59,0,.89h-1a.74.74,0,0,1-.2-1,.76.76,0,0,1,.93-.24A.66.66,0,0,1,29.72,60.46Z"/><path class="cls-206" d="M28.7,60.45c0,.3,0,.6,0,.9h-1v-1A.62.62,0,0,1,28.7,60.45Z"/><path class="cls-207" d="M32.55,44l1.94,0c.44-.27.57-.76.85-1.15a1.31,1.31,0,0,1,.37-.15.82.82,0,0,1,.94.29A6.93,6.93,0,0,1,37,45.52q0,4.2,0,8.4a2.27,2.27,0,0,0,1.19,2.3.82.82,0,0,1,.34.27.8.8,0,0,1-.2,1H32.55a.84.84,0,0,1-.25-.94.79.79,0,0,1,.26-.31c.48-.26.45-.68.46-1.16,0-2.88.06-5.77,0-8.66,0-.47,0-.89-.44-1.15a.8.8,0,0,1-.27-.31A.85.85,0,0,1,32.55,44Z"/><path class="cls-208" d="M39.34,60.44l-1,0,0-.09c-1-.8-2.1-.27-3.15-.43s-2.3,0-3.45,0a1.62,1.62,0,0,1-1.16-.33.75.75,0,0,1,.05-1.07l8.7,0a1.14,1.14,0,0,1,0,1.88Z"/><path class="cls-209" d="M44.16,58.53v.92a.68.68,0,0,1,0,1l-.08,0-3.79,0a1.15,1.15,0,0,1,0-1.89Z"/><path class="cls-210" d="M30.63,58.53l.06.92a.72.72,0,0,1,0,1v0h-.93l-.08-.05a.67.67,0,0,1,0-.95c0-.31,0-.62,0-.93Z"/><path class="cls-211" d="M40.3,58.53c0,.63,0,1.26,0,1.89h-1l0-1.88Z"/><path class="cls-212" d="M32.56,56.55v1H30.67l-.09-.92.12,0A1.12,1.12,0,0,1,32.56,56.55Z"/><path class="cls-213" d="M41.3,56.53h1.87c0,1.55-1.17.79-1.87,1Z"/><path class="cls-193" d="M38.36,57.5l0-.92a.6.6,0,0,1,.93,0l.06,0C39.36,57.25,39,57.57,38.36,57.5Z"/><path class="cls-214" d="M44.17,63.32c.38,0,.86,0,.85.55a.42.42,0,0,1-.29.3c-.61,0-.5-.48-.56-.85Z"/><path class="cls-215" d="M35.39,65.3l-4.77-.07a.77.77,0,0,1,0-1.11,8.25,8.25,0,0,1,4.87,0,.78.78,0,0,1,0,1.12Z"/><path class="cls-216" d="M30.69,64.34c0,.3,0,.6-.07.9l-1,0c0-.31,0-.61,0-.92l.08-.15a.59.59,0,0,1,.77-.08A.5.5,0,0,1,30.69,64.34Z"/><path class="cls-217" d="M35.51,65.23l-.1-.9a.75.75,0,0,1,.27-.34c.91-.15,1.84-.55,2.64.28l.12,0c0,.74-.48,1-1.18,1S36.09,65.24,35.51,65.23Z"/><path class="cls-218" d="M29.68,59.46c0,.32,0,.63,0,.95l-.94,0-.93-.08c0-.3,0-.6,0-.9Z"/><path class="cls-219" d="M27.79,63.35l1.91-.06v0a.73.73,0,0,1,0,1h0l-1,0-.91-.06Z"/><path class="cls-220" d="M55.77,42.54a5.68,5.68,0,0,1,2.9-.48c.79.49.45,1.28.53,2,0,1,.33,2.12-.39,3.07-.73.35-1.44.51-2.07-.19a1.88,1.88,0,0,1-1-1.88c0-.67-.26-1.05-1-1-1,.33-1.14.26-1.23-.86C54.13,42.28,55,42.53,55.77,42.54Z"/><path class="cls-107" d="M58.67,46.9V44a1.89,1.89,0,0,1,2.66,0c.44.94.15,1.93.24,2.89,0,2-.76,2.48-2.91,1.94A1.18,1.18,0,0,1,58.67,46.9Z"/><path class="cls-221" d="M53.86,43c0,.67.28,1,.94,1a5.61,5.61,0,0,0,.13.59c.36,1.11.24,1.29-1,1.34l-1.09,0V45c0-1.47-1.17-.83-1.89-1-.82-.44-.4-1.19-.44-1.82a1.57,1.57,0,0,1,.18-.63c.73-.74,1.44.23,2.16,0C54.13,41.74,54.26,41.94,53.86,43Z"/><path class="cls-36" d="M58.67,46.9c0,.64,0,1.28,0,1.92-1.93.18-1.93.18-1.92-1.92Z"/><path class="cls-222" d="M49,51.7V46a.59.59,0,0,1,.75-.26A.51.51,0,0,1,50,46a55.52,55.52,0,0,0,0,5.77h-.11A.56.56,0,0,1,49,51.7Z"/><path class="cls-223" d="M50.91,42.08,51,44l-.08.93a.6.6,0,0,1-.94,0V42.11l.1-.16A.61.61,0,0,1,50.91,42.08Z"/><path class="cls-224" d="M50,44.94h.94c.11.68-.08,1.1-.87,1l-.11,0a.7.7,0,0,1,0-1Z"/><path class="cls-225" d="M49,51.7l.87,0,.06,1H49Z"/><path class="cls-226" d="M43.21,28.53a3.36,3.36,0,0,1,.91,3.32c-.17.47-.54.53-.95.56a1.17,1.17,0,0,1-1,.44,26,26,0,0,1-4.75.08,22.63,22.63,0,0,1-3.86-.07,1.55,1.55,0,0,1-1.08-.33.91.91,0,0,1-.14-1.08,1.25,1.25,0,0,1,.9-.5c.74.18.92-.62,1.44-.83a1.92,1.92,0,0,1,1.8.11,1.66,1.66,0,0,0,1.63.73c1.3-.06,2.6.05,3.89-.09.63-.09.73-.5.74-1.05S42.58,28.78,43.21,28.53Z"/><path class="cls-227" d="M49,40.11l0-8.67a.77.77,0,0,1,1.09-.06,1.09,1.09,0,0,1,.33.74c0,2.58.17,5.17-.12,7.75a1.19,1.19,0,0,1-.25.38A.75.75,0,0,1,49,40.11Z"/><path class="cls-228" d="M43.21,28.53c0,.62,0,1.25,0,1.87s-.26,1-1,1a1.08,1.08,0,0,1-.42-.95c-.06-.63,0-1.26,0-1.9a10,10,0,0,1,.17-2.79.92.92,0,0,1,.31-.34.93.93,0,0,1,1.08.08,1.31,1.31,0,0,1,.3,1.07,1.1,1.1,0,0,1-.41,1Z"/><path class="cls-229" d="M47,22.76c-.17.9,1.24,1,1,1.91a.71.71,0,0,1-1,0h-.88a.59.59,0,0,1-.32-.17c-.22-.36-.58-.32-.93-.36-.51-.05-1-.19-1.1-.83C44.18,22,45.84,21.72,47,22.76Z"/><path class="cls-230" d="M42.22,32.45l1,0c0,.66.32,1,1,1a.79.79,0,0,1,.05,1.11,1.82,1.82,0,0,1-2.1,0C41.69,33.8,41.51,33.1,42.22,32.45Z"/><path class="cls-231" d="M50.85,26.6c-.59,0-1.17,0-1.76,0S48,26.37,48,25.67c0-.07.07-.14.11-.2a3,3,0,0,1,2.77-.09.75.75,0,0,1,.28,1A.52.52,0,0,1,50.85,26.6Z"/><path class="cls-232" d="M44.17,34.32c0-.31,0-.63,0-1,1.14-.08,1.26.55,1,1.45-.19.45-.58.47-1,.46A.68.68,0,0,1,44.17,34.32Z"/><path class="cls-233" d="M49,40.11l.86,0a.76.76,0,0,1,.47.89A1,1,0,0,1,50,42l0,.11C48.59,41.92,49.1,40.88,49,40.11Z"/><path class="cls-234" d="M50.9,29.42,51,27.54A.8.8,0,0,1,52,27.41a1.08,1.08,0,0,1,.35,1,1.7,1.7,0,0,1-.24,1.06.79.79,0,0,1-1,.23A.63.63,0,0,1,50.9,29.42Z"/><path class="cls-235" d="M43.21,27.53l0-1A1.42,1.42,0,0,1,45,26.28a.72.72,0,0,1,.1,1.26Z"/><path class="cls-236" d="M46.16,24.71l-.08,1.86a.62.62,0,0,1-.91.08l-.05-.08a1.3,1.3,0,0,1-.27-1.74.76.76,0,0,1,1.23-.19Z"/><path class="cls-237" d="M49.94,31.41l-.92,0c.13-.73-.51-1.86,1-1.91a.91.91,0,0,1,.4.8,1.32,1.32,0,0,1-.16.89A.54.54,0,0,1,49.94,31.41Z"/><path class="cls-238" d="M45.17,26.65l.91-.08c.07.71-.25,1-1,1C45.13,27.24,45.15,27,45.17,26.65Z"/><path class="cls-239" d="M50,30.49c0-.32,0-.64,0-1l.9-.11a.75.75,0,0,1,.07.12.72.72,0,0,1,0,1A.75.75,0,0,1,50,30.49Z"/><path class="cls-240" d="M47,24.71l1,0,0,0a.65.65,0,0,1,0,.93l-.07.09C47.39,25.65,47,25.37,47,24.71Z"/><path class="cls-241" d="M50,45l0,1-.87.05C48.94,45.25,49.24,44.91,50,45Z"/><path class="cls-242" d="M51.89,27.57l-.92,0-.12-.94H51a.64.64,0,0,1,.93,0A.65.65,0,0,1,51.89,27.57Z"/><path class="cls-243" d="M8.41,56.53v-.94c.27-.6.84-.55,1.34-.57A4,4,0,0,0,12,54.35c.69-.5,1.55-.22,2.34-.25a5.56,5.56,0,0,1,1.08,0c.89.15,1,.46.7,1.42l-.91.1a9.79,9.79,0,0,0-1,.9v0l-1,0Z"/><path class="cls-244" d="M16.13,55.54c-.11-1.42-1.24-.75-1.94-.95a1.46,1.46,0,0,1-.34-1.76c.26-.66.88-.56,1.45-.62a2.74,2.74,0,0,1,2.65.92c.43.5.57.95.13,1.48l0,0c-.69-.12-1.08.12-1,.88Z"/><path class="cls-116" d="M14.2,56.54c0-.74.31-1,1-.9l-.06.88Z"/><path class="cls-245" d="M6.52,44l0-4.84a14,14,0,0,0,1.69-2c.77,0,.53-1.08,1.21-1.23a2.16,2.16,0,0,1,1.69,0c.49.16.58.61.7,1,.47,1.7.65,1.78,2.22.92a2.72,2.72,0,0,0,2-.91,1.24,1.24,0,0,1,1.58.72c.31.61.64.58.84-.06.26-.82,1-1.18,1.55-1.7a3.85,3.85,0,0,1,1.3-.17c.72.06,1.16.42,1.1,1.14-.1,1.06.42,2.22-1,3-.74.44.38.8.59,1.22a.67.67,0,0,1,.08.55,1.81,1.81,0,0,0-.68,1.68,1,1,0,0,1-1.17,1.11c-.81,0-1.67-.11-2.19.75a3.73,3.73,0,0,0-1.43.89,1.88,1.88,0,0,1-2.5.25A1.56,1.56,0,0,1,14,44.2a7.42,7.42,0,0,1,1.14-1c-.43.21-.67.63-1,.92a2.27,2.27,0,0,1-3.4-.59c-.59-.85-1.16-.35-1.53.14a2,2,0,0,1-1.61.84A1.06,1.06,0,0,1,6.52,44Z"/><path class="cls-246" d="M16.15,25.62a11,11,0,0,1,1.11,2.43c.15.81,1.16.35,1.79.49l.18.1a1.61,1.61,0,0,1,.23,1.54,5.64,5.64,0,0,1-2.13,2.28c-.28,0-.6.25-.82.12-1.3-.75-1.77.11-2.21,1.07a6.28,6.28,0,0,1-2.55.17.61.61,0,0,1-.6-.35c-.44-1.2-1.29-1.09-2.24-.75a1.11,1.11,0,0,1-.48,0,8.78,8.78,0,0,1-1.91-1.29v-1a13.27,13.27,0,0,0,1.89-1.93c-.41-1.21.83-1.89,1-2.92a1.47,1.47,0,0,1,1.87-.29.84.84,0,0,1,.32.3,2.81,2.81,0,0,1,0,2.63c-.32.34-.65.68-1,1,.31-.33.63-.65,1-1a2.24,2.24,0,0,1,2.39,0c.36.33.71.68,1,1-.29-.37-.67-.64-1-1a2.79,2.79,0,0,1-.08-2.63.82.82,0,0,1,.32-.32A1.47,1.47,0,0,1,16.15,25.62Z"/><path class="cls-247" d="M8.42,32.4a9.23,9.23,0,0,0,.91-.56c1.05-.76,1.73-.54,2,.71a.89.89,0,0,0,1,.81h1.91a.43.43,0,0,1,.59,0,1,1,0,0,1-.42,1.48,12.22,12.22,0,0,1-3,.09,1.14,1.14,0,0,1-.56-.19c-.52-.41-.81-.24-.88.37a1.57,1.57,0,0,1-.6,1.13c0,.67-.17,1.18-1,1.23-.45-.17-.5-.54-.49-.95.2-1.16-.81-1.56-1.41-2.21v-1A3.29,3.29,0,0,1,8.42,32.4Z"/><path class="cls-248" d="M6.52,44l1.17,0c1.17.69,2.06,1.54,1.91,3-.31.36-.59.76-1.16.67a2.84,2.84,0,0,1-1.92-.83c0-.88,0-1.76-.07-2.65Z"/><path class="cls-249" d="M8.42,36.27v1.21c-.17,1.07-.67,1.76-1.87,1.66l0-2.87A1.14,1.14,0,0,1,8.42,36.27Z"/><path class="cls-250" d="M8.42,32.4c-.09,1.41-1.17.82-1.9,1V31.43C7.25,31.56,8.34,31,8.42,32.4Z"/><path class="cls-245" d="M8.42,36.27H6.52v-2C8.41,34.35,8.41,34.35,8.42,36.27Z"/><path class="cls-251" d="M8.44,22.83c0,.29,0,.57,0,.85-.06,1.91-.06,1.91-1.92,2v-1A1.36,1.36,0,0,0,7,23.47c0-.33.25-.52.46-.73h0a.62.62,0,0,1,.8-.21A.36.36,0,0,1,8.44,22.83Z"/><path class="cls-247" d="M8.42,28.54c0,1.91,0,1.91-1.89,1.93V28.52Z"/><path class="cls-252" d="M7.43,23.68c.06.67-.25,1-.92,1l0-1h0A.65.65,0,0,1,7.43,23.68Z"/><path class="cls-253" d="M18.08,54.61a2.75,2.75,0,0,0-3.34-1.84c-.84.38-.41,1.2-.55,1.82-.81.08-1.59,0-2.26.78-.42.51-1.37.19-2.08.22H8.41a2.41,2.41,0,0,1-1.94-2.36c0-1.15,0-2.3,0-3.45,1.09-.81,1.83-.68,2.39.48a.85.85,0,0,0,.63.48c1.24.56,1.22-.73,1.76-1.2.88-.45,1.82-.15,2.73-.2.42.09.5.45.62.78a.9.9,0,0,0,1.36.62c.24-.07.53-.14.56-.4.1-.86.7-1.05,1.4-1.07s1.44.12,1.68,1a1.54,1.54,0,0,0,1,.94,1,1,0,0,1,.66,1.23,1.42,1.42,0,0,1-.14.36c-.38.3-.89.42-1.19.84v0c-.68-.07-1,.23-1,.92Z"/><path class="cls-254" d="M14.21,49.79a8.3,8.3,0,0,0-2.89.24c-.88.18-1.25,1-1.94,1.45-.21-.18-.53-.32-.6-.54-.4-1.13-1.26-1.27-2.26-1.16,0-.32,0-.64,0-1a12.18,12.18,0,0,1,1.92-1.44l1-.49a.47.47,0,0,1,.46-.14.57.57,0,0,1,.39.53c-.08,1,.57,1,1.28.94a13.28,13.28,0,0,1,2.52.14c.78.1,1.29-.1,1.24-1a.7.7,0,0,1,.5-.72.88.88,0,0,1,1.15.1c.35.3.61.69,1.17,1.19-.49-.61-.93-.85-1.2-1.28-.17-.87.29-1.15,1.06-1.16.36,0,.72,0,1.08,0a1.37,1.37,0,0,1,.82.14,1.43,1.43,0,0,0,1.45.84c.77,0,1.11.36,1.11,1.08a1.64,1.64,0,0,0,.45,1.32l0,2.87a12.44,12.44,0,0,1-.95,1v0a.66.66,0,0,1-1,0c-.55-1.2-2.11-1.48-2.59-2.82-.09-.25-1.06-.14-1.31.55a2.14,2.14,0,0,1-.93,1.06C15.49,50.93,14.9,50.31,14.21,49.79Z"/><path class="cls-255" d="M8.42,47.38c-.08,1.44-.08,1.44-1.92,1.44,0-.64,0-1.29,0-1.93C7.17,47,7.94,46.61,8.42,47.38Z"/><path class="cls-256" d="M11.33,21.79c0,.72-.36.94-1,.94s-1.25.07-1.87.1l0-.11a.62.62,0,0,1,0-.92Z"/><path class="cls-257" d="M8.44,21.8l0,.92-.94,0C7.39,22,7.69,21.68,8.44,21.8Z"/><path class="cls-133" d="M7.43,23.68l-.94,0c-.06-.71.28-1,1-1Z"/><path class="cls-258" d="M53.86,43c0-.68-.38-.92-1-.95a1.75,1.75,0,0,0-.77-.54.94.94,0,0,1-.69-1.11c.08-1-.24-2.08.5-3,.3-.36.06-.95.41-1.35a.91.91,0,0,1,1.27,0c.34.33.68.66,1,1-.32-.34-.66-.65-1-1-.75-1.17,0-2,.59-2.93A1.52,1.52,0,0,1,55.69,33a1,1,0,0,1,.64,1.06A3.74,3.74,0,0,0,57.06,36a1.87,1.87,0,0,0,1.87,1.86c.59.29.85.68.47,1.31a.73.73,0,0,0-.71.8c0,1-.54,1.17-1.37,1.16s-1.66.27-1.55,1.43C55.29,43.32,54.51,42.92,53.86,43Z"/><path class="cls-259" d="M59.4,39.15a1.5,1.5,0,0,0-.74-1c-.63-.5-.51-1.21-.51-1.88a6,6,0,0,1,.24-2.91.85.85,0,0,1,.33-.32c1-.3,2-.61,2.85.27v2.92a1.17,1.17,0,0,1,0,1.92c-.43.21-.86.43-1,1Z"/><path class="cls-258" d="M61.33,44H58.67V42.06c.7-.61,1.39-1,2.29-.3S61.58,43.19,61.33,44Z"/><path class="cls-127" d="M66.4,44H64.47c0-.48,0-1,0-1.44a1,1,0,0,1,.95-.91c.61,0,.84.39.9.91S66.39,43.51,66.4,44Z"/><path class="cls-259" d="M61.56,39.16c1.91,0,1.91,0,1.95,1.7C61.81,41.39,61.58,41.18,61.56,39.16Z"/><path class="cls-260" d="M64.46,40.85c0-.36,0-.71.05-1.06.09-.57.53-.62,1-.61s.81.12.86.62,0,.86,0,1.29A4,4,0,0,1,64.46,40.85Z"/><path class="cls-126" d="M61.57,38.19V36.27h1.92c0,.16,0,.31,0,.47C63.48,38.36,63.22,38.55,61.57,38.19Z"/><path class="cls-249" d="M65.31,38.18c-.66,0-.84-.42-.83-1,0-.76.47-.92,1.11-.88s.81.5.79,1.07S65.92,38.21,65.31,38.18Z"/><path class="cls-250" d="M64.47,33.35c0-.32,0-.64,0-1,0-.64.29-.95,1-.95a.83.83,0,0,1,1,.95c0,.32,0,.64,0,1Z"/><path class="cls-261" d="M55.77,25.63l1,0a1.47,1.47,0,0,1,1.89-.22.76.76,0,0,1,.31.33,3.09,3.09,0,0,1-.19,3c-1.31.59-2.2.5-3.06-.39a2,2,0,0,1-.15-2.5Z"/><path class="cls-262" d="M58.69,23.7h2.85a1.16,1.16,0,0,1,0,1.93h0a2.16,2.16,0,0,1-2.91,0h0A1.18,1.18,0,0,1,58.69,23.7Z"/><path class="cls-263" d="M61.56,25.63c0-.64,0-1.29,0-1.93,1.71-.64,2-.39,2,1.92Z"/><path class="cls-264" d="M58.69,23.7c0,.64,0,1.29,0,1.94l-1.91-.05c0-.08,0-.16,0-.24C56.72,23.45,56.88,23.31,58.69,23.7Z"/><path class="cls-265" d="M66.41,30a1.07,1.07,0,0,1-1.47.39c-.73-.3-.38-1.05-.49-1.6C66.05,28.28,66.33,28.45,66.41,30Z"/><path class="cls-266" d="M53.84,20.79l1.93.07c0,1.68-.26,2.06-1.24,1.82S54,21.45,53.84,20.79Z"/><path class="cls-267" d="M53.84,25.64c0-.36,0-.72,0-1.07,0-.59.3-.86.89-.87s1,.18,1,.86c0,.36,0,.71,0,1.07h0a1.24,1.24,0,0,1-1.81.2Z"/><path class="cls-47" d="M61.08,21.8H65A2.37,2.37,0,0,1,61.08,21.8Z"/><path class="cls-268" d="M52.9,25.57l.94.07h0a.75.75,0,0,1,0,1.08c-1.13.19-1.29,0-1-1.06Z"/><path class="cls-128" d="M53.79,26.62c0-.33,0-.66,0-1h1.94c0,2.84,0,2.86,2.9,2.9l.15.13a.59.59,0,0,1-.14.84l-1,0a1.07,1.07,0,0,1-.91.4,1.55,1.55,0,0,1-1-.15c-.42-.9-1.42-.66-2.1-1.05a1.08,1.08,0,0,1-.21-.34A1.48,1.48,0,0,1,53.79,26.62Z"/><path class="cls-269" d="M58.66,25.63h2.91c0,1,0,1.93,0,2.9h-1a1.19,1.19,0,0,1-1.94,0h0C58.67,27.57,58.66,26.6,58.66,25.63Z"/><path class="cls-270" d="M56.71,29.52h1c0,.86.89,1.33,1,2.15a1,1,0,0,1,0,1.68h0a1.49,1.49,0,0,1-1.84.34c-.67-.28-.55-1-.57-1.47,0-.21-.12-.45,0-.67C56.28,30.85,56,30.08,56.71,29.52Z"/><path class="cls-271" d="M58.67,33.36c0-.56,0-1.12,0-1.68a4.81,4.81,0,0,1,2.86,0c.73.56.57,1.13,0,1.69H58.67Z"/><path class="cls-270" d="M58.66,28.52H60.6c0,.51.34,1,.07,1.52s-.57.4-.94.38c-.59,0-1-.29-1-.93C58.67,29.18,58.67,28.85,58.66,28.52Z"/><path class="cls-131" d="M61.56,28.53h1.08c.67,0,.87.42.85,1a.79.79,0,0,1-.88.89c-.6,0-1-.17-1-.85,0-.36,0-.72,0-1.07Z"/><path class="cls-272" d="M61.56,33.36c0-.56,0-1.12,0-1.69a1.78,1.78,0,0,1,1.39-.18c.5.11.55.51.55.93s-.11.83-.61.89S62,33.35,61.56,33.36Z"/><path class="cls-273" d="M46.12,16.92c.19-.7-.62-1.93,1-1.87L47,17Z"/><path class="cls-274" d="M48.08,25.58l0-.93c1.54,0,.76-1.26,1-1.94l.88,0a.7.7,0,0,1,.51.72c-.1.59.34.82.73,1.1a.8.8,0,0,1,0,.89.59.59,0,0,1-.32.19Z"/><path class="cls-275" d="M50,23.66l-.08-.92L50,20.79h.93l.19.11a3.44,3.44,0,0,1,.15,2.65.84.84,0,0,1-.28.34A.74.74,0,0,1,50,23.66Z"/><path class="cls-276" d="M47,22.76c-.63,0-1.27,0-1.91,0s-1.05.26-.92,1a1.35,1.35,0,0,1,.23,1.78.75.75,0,0,1-1.21.15l-.95-.06c-.35-.3-.27-.62,0-.94,0-.92,0-1.85,0-2.78,0-.76.34-1.13,1.09-1.07,1.07.08,2.29-.39,3.09.8.1.15.45.12.68.17s.83,0,.8.51S47.37,22.67,47,22.76Z"/><path class="cls-277" d="M35.48,19.84c.24-1,2-1.42,2.88-.71a1.88,1.88,0,0,1,1,1.68,2.36,2.36,0,0,1-3.53-.63A2.05,2.05,0,0,0,35.48,19.84Z"/><path class="cls-278" d="M35.48,19.84c.16,0,.4,0,.46.06.9,1.19,2.2.85,3.39.91h0a.8.8,0,0,1,.22,1,.87.87,0,0,1-.34.29,11.79,11.79,0,0,1-4.47,0,.75.75,0,0,1-.26-.35C34.28,20.79,35.68,20.74,35.48,19.84Z"/><path class="cls-279" d="M40.34,22.71c1.33.1.83,1.16,1,1.87a.55.55,0,0,1-.23.32.8.8,0,0,1-1-.12,1.29,1.29,0,0,1-.31-.92,1.52,1.52,0,0,1,.18-.94A.66.66,0,0,1,40.34,22.71Z"/><path class="cls-280" d="M40.29,21.79l.05.92-.1,0a.65.65,0,1,1-.9-.91v-.11A.66.66,0,0,1,40.29,21.79Z"/><path class="cls-281" d="M33.5,22.72c0-.66.25-1.07,1-1l.05.12a.7.7,0,0,1,.07,1,.68.68,0,0,1-1-.06Z"/><path class="cls-282" d="M40.29,21.79l-.95-.07c0-.3,0-.61,0-.91C40,20.77,40.35,21.09,40.29,21.79Z"/><path class="cls-279" d="M42.25,24.65l0,.94-.07.07a.7.7,0,0,1-1,0,.73.73,0,0,1,.06-1l.08-.09Z"/><path class="cls-283" d="M23,24.71c-.17.72.39,1.83-1,1.87,0-.64,0-1.27,0-1.91Z"/><path class="cls-284" d="M28.68,21.69c.69.24,1.86-.43,1.93,1l-1.91,0a.67.67,0,0,1,0-1Z"/><path class="cls-285" d="M28.71,21.76c0,.32,0,.64,0,1-.69-.21-1.87.62-1.9-.93Z"/><path class="cls-286" d="M23.92,21.79l.92,0a.68.68,0,0,1,.95,0l0,.06c0,.68-.35,1-1,.94S23.86,22.44,23.92,21.79Z"/><path class="cls-287" d="M25.79,21.73l-.95,0,0-1,.08-.95C26.28,19.94,25.68,21,25.79,21.73Z"/><path class="cls-288" d="M32.61,25.64l.88,0,.18.11c.36.84.06,1.21-.83,1.15a.63.63,0,0,1-.32-.26Z"/><path class="cls-289" d="M31.54,27.56c0-.32.05-.64.08-.95h1a.84.84,0,0,1,.15,1,.78.78,0,0,1-.94.28A.7.7,0,0,1,31.54,27.56Z"/><path class="cls-290" d="M33.61,22.75l.89,0a.82.82,0,0,1,1-.12.87.87,0,0,1,.21,1c-.89.48-.6,1.61-1.23,2.23a.83.83,0,0,1-1-.16l-.06-.09,0-1.91Z"/><path class="cls-291" d="M51.89,19.82v1a.6.6,0,0,1-.89,0l-.08,0C50.93,20.15,51.2,19.78,51.89,19.82Z"/><path class="cls-292" d="M19.05,28.54a5.68,5.68,0,0,0-.5-2.88c.05-.61-.31-1.34.5-1.73A5.2,5.2,0,0,1,21,26.63c.87,1.29.57,2.13-.83,2.32a1.29,1.29,0,0,1-1.11-.41Z"/><path class="cls-293" d="M11.34,24a7.62,7.62,0,0,1,2.85-.25,1.16,1.16,0,0,1,0,1.93h0a2.16,2.16,0,0,1-2.91,0h0C10.76,25.07,10.6,24.5,11.34,24Z"/><path class="cls-263" d="M11.34,24c0,.56,0,1.12,0,1.68H9.38C9.4,23.6,9.65,23.38,11.34,24Z"/><path class="cls-293" d="M21.93,21.8c0,.75-.41.93-1,.93s-.91-.36-.9-1,.42-1,1.08-.92S22,21.27,21.93,21.8Z"/><path class="cls-266" d="M17.11,20.86,19,20.78a.48.48,0,0,1,0,.12c-.12.7.41,1.78-.92,1.8S17.24,21.59,17.11,20.86Z"/><path class="cls-263" d="M14.21,25.63c0-.64,0-1.29,0-1.93,1.94,0,1.94,0,2,1.92Z"/><path class="cls-294" d="M19.05,23.93c-.09.6.24,1.32-.5,1.73-.48-.09-1.11.15-1.35-.5a1,1,0,0,1,.17-1.22A1.49,1.49,0,0,1,19.05,23.93Z"/><path class="cls-295" d="M20,28.54c1.34-.11.83-1.18,1-1.91l.94,0a5.23,5.23,0,0,1-.48,2.91.89.89,0,0,1-1.35.19A.73.73,0,0,1,20,28.54Z"/><path class="cls-296" d="M53.79,26.62l.05,1.91a1.15,1.15,0,0,1-1.89,0l-.06-1c.09-.71-.24-1-.92-1l-.11-.95H51a.71.71,0,0,1,1,0l.89,0C52.85,26.28,53.14,26.63,53.79,26.62Z"/><path class="cls-297" d="M51,20.83l.89,0c0,1,0,2,0,3a.61.61,0,0,1-.92-.05Z"/><path class="cls-298" d="M50.93,23.7l.92.05L52,25.63H51l-.06-.93a.74.74,0,0,1,0-1Z"/><path class="cls-299" d="M17.1,32.16a4.61,4.61,0,0,1,2-1.95,2.73,2.73,0,0,1,2.89.25.84.84,0,0,1,1,1,1.59,1.59,0,0,1,.25,2,1.14,1.14,0,0,1-1,.33c-.47-.09-.55-.5-.71-.85a1.16,1.16,0,0,0-1.26-.83.82.82,0,0,0-.68.82,1.59,1.59,0,0,1-2.15.85C16.64,33.36,16.59,32.79,17.1,32.16Z"/><path class="cls-300" d="M22.87,33.38c0-.66,0-1.31.05-2,.65,0,.95.31.95,1,0,2.57,0,5.15,0,7.72,0,.62-.22,1-.9,1a.7.7,0,0,1-.37-.28,2.39,2.39,0,0,1-.22-1.39,34.51,34.51,0,0,0,0-3.94A2.35,2.35,0,0,1,22.87,33.38Z"/><path class="cls-301" d="M32.57,31.44v.89l-.08.19a1,1,0,0,1-.91.33,2.55,2.55,0,0,1-1-.12.58.58,0,0,1-.45-.36,8.34,8.34,0,0,0,.5-3.7c0-.63.14-1.11.89-1.11l.11,0c.57.47.4,1.12.44,1.72v.94a1,1,0,0,0,.43,1Z"/><path class="cls-45" d="M19.76,45.94l-.68,0c-.32-.27-.64-.52-.95-.8l0-.15c.08-1.47,1.21-.8,1.93-.94.45.73,1.51.18,1.94.94.68,0,1,.3,1,1l-.14.05A2.71,2.71,0,0,1,19.76,45.94Z"/><path class="cls-302" d="M31.57,35.26H28.74a1.12,1.12,0,0,1,0-1.89l.93-.07.17.07a1.08,1.08,0,0,0,1,.45.89.89,0,0,1,1.05.54A.78.78,0,0,1,31.57,35.26Z"/><path class="cls-303" d="M22,30.46a8.53,8.53,0,0,1-2.89-.25V28.54h1c0,1.09.74.95,1.43,1C21.93,29.66,21.94,30.06,22,30.46Z"/><path class="cls-304" d="M22,45c-.72-.16-1.85.52-1.94-.94.66,0,1-.28,1-1a.64.64,0,0,1,.93,0Z"/><path class="cls-305" d="M28.73,33.38c0,.63,0,1.26,0,1.89-.53,0-.94-.09-1-.7S27.83,33.29,28.73,33.38Z"/><path class="cls-306" d="M21.93,43l-.93,0a1.05,1.05,0,0,1,.91-1.25.21.21,0,0,1,.09.3Z"/><path class="cls-307" d="M22,42.1l-.09-.3v-.45c.15-.63.52-.55.94-.28l.13,0C23,41.74,22.68,42.12,22,42.1Z"/><path class="cls-308" d="M30.15,32.37l.53.06c.25,1.09.11,1.23-1,1l0-.1C29.71,32.94,29.65,32.52,30.15,32.37Z"/><path class="cls-309" d="M19.76,45.94l3.06,0c0,1,0,1.92,0,2.88-.56,0-.92-.26-.9-.86,0-.83-.41-1.13-1.19-1.11A.9.9,0,0,1,19.76,45.94Z"/><path class="cls-310" d="M21.94,52.68c-.05-.68.3-1,.95-1,0,.31,0,.62,0,.93Z"/><path class="cls-311" d="M21,52.69h1l0,.93L21,53.7l0-.11a.57.57,0,0,1,0-.88Z"/><path class="cls-312" d="M21,52.71l0,.88-1,.06C20,53,20.31,52.65,21,52.71Z"/><path class="cls-313" d="M31.57,35.26l.06-.91c.18-.41.54-.47.93-.48a11.91,11.91,0,0,0,2-.14c1,0,2,0,2.93.06s2.23-.07,3.34,0a1.71,1.71,0,0,1,1.4.54l2,0v1l-5,0Z"/><path class="cls-314" d="M35.47,38.26l-.95-.11a2.52,2.52,0,0,0-2.93,0l-.94.1,0-.12a1.11,1.11,0,0,1,0-1.84h4.85a1.08,1.08,0,0,1,0,1.84Z"/><path class="cls-315" d="M35.47,38.14V36.3h2.88a1.09,1.09,0,0,1,0,1.85A13.77,13.77,0,0,1,35.47,38.14Z"/><path class="cls-316" d="M28.71,38.25l-.93-.08V36.29h1.9a.79.79,0,0,1,.3.86c-.25.54-.94.53-1.25,1Z"/><path class="cls-317" d="M38.34,38.16l0-1.85.74-.09.23.07a1.16,1.16,0,0,1,0,1.91h0Z"/><path class="cls-318" d="M29.66,37.25c0-.32,0-.64,0-1h1v1.84l-.92.11-.07-.09A.62.62,0,0,1,29.66,37.25Z"/><path class="cls-319" d="M32.56,56.55l-1.86,0L30.64,45h0a1.14,1.14,0,0,1,1.9,0l0,0A1.72,1.72,0,0,1,33,46.18q.07,4.57,0,9.16a1.71,1.71,0,0,1-.42,1.23Z"/><path class="cls-320" d="M34.48,43.07,30.63,43a.61.61,0,0,1,0-.91l0,0,4.81,0h0a.58.58,0,0,1,0,.89l-.05.1A.71.71,0,0,1,34.48,43.07Z"/><path class="cls-321" d="M44.19,43l-4.84,0a.63.63,0,0,1,0-1h0l.94,0,3.79,0C44.12,42.39,44.16,42.69,44.19,43Z"/><path class="cls-322" d="M44.17,41.08c.37,0,.88,0,.86.53s-.49.41-.83.44Z"/><path class="cls-159" d="M32.56,45h-1.9V44l1.89,0Z"/><path class="cls-323" d="M27.76,43V42l.93.08a.55.55,0,0,1,0,.86Z"/><path class="cls-36" d="M28.72,43l0-.86,0-.1a.66.66,0,0,1,.92,0l.08.08a.6.6,0,0,1-.06.89Z"/><path class="cls-324" d="M29.66,43l.06-.89.94,0,0,.91Z"/><path class="cls-325" d="M34.48,43.07h1c.08.72-.29,1-.95.89C34.49,43.67,34.48,43.37,34.48,43.07Z"/><path class="cls-326" d="M35.49,43c0-.3,0-.6,0-.89L38.34,42l.07.06a.73.73,0,0,1-.07,1.22,2.05,2.05,0,0,1-1.2.08.93.93,0,0,1-.71-.35Z"/><path class="cls-327" d="M31.59,38.15c.05-1.13.91-.89,1.59-.92s1.33,0,1.34.92Z"/><path class="cls-328" d="M40.3,36.28h3.89a1.18,1.18,0,0,1,0,1.9l-.08,0-3.8,0A1.17,1.17,0,0,1,40.3,36.28Z"/><path class="cls-329" d="M40.3,36.28v1.9l-1,0V36.29Z"/><path class="cls-330" d="M44.18,38.19c0-.63,0-1.27,0-1.9h.93C45,37,45.68,38.15,44.18,38.19Z"/><path class="cls-331" d="M29.64,42h-.92c-.08-.71.26-1,.94-.9Z"/><path class="cls-332" d="M38.36,43c0-.3,0-.61,0-.91h1v1h0A.68.68,0,0,1,38.36,43Z"/><path class="cls-331" d="M29.66,37.25l0,.9h-.92C28.67,37.47,29,37.17,29.66,37.25Z"/><path class="cls-333" d="M39.31,56.53l-.93,0,0-.07a1.59,1.59,0,0,1-.55-1.39c0-3.27,0-6.55,0-9.82A2,2,0,0,1,38.22,44a.81.81,0,0,1,1.12,0h0Z"/><path class="cls-334" d="M39.34,44h-1l-.14-.12a.64.64,0,0,1,.15-.84l0,0,1,0Z"/><path class="cls-202" d="M35.41,64.33H30.69l-.07-.08a.66.66,0,0,1,0-.94l0,0,4.8,0a.65.65,0,0,1,0,.93Z"/><path class="cls-335" d="M35.52,64.26c0-.31,0-.62,0-.93.67,0,1.33,0,2,0s.94.3.84.95Z"/><path class="cls-336" d="M30.65,60.43c0-.33,0-.65,0-1l4.76,0a.59.59,0,0,1,0,.9l-.09.1Z"/><path class="cls-337" d="M44.18,60.41c0-.32,0-.64,0-1,.38,0,.9-.05.86.54S44.52,60.39,44.18,60.41Z"/><path class="cls-338" d="M35.49,60.37c0-.3,0-.6,0-.9l2,0c.6,0,1,.26.9.92Z"/><path class="cls-339" d="M30.64,63.32c0,.31,0,.63,0,.94l-.92,0v-1Z"/><path class="cls-340" d="M38.37,44q0,6.26,0,12.51c-1.91.08-1.92.08-1.92-1.78,0-3.89,0-7.79,0-11.69l.77,0a7,7,0,0,1,1.17.92Z"/><path class="cls-341" d="M32.6,56.57V44.94c.65,0,.95.3.94,1v9.73C33.54,56.27,33.24,56.58,32.6,56.57Z"/><path class="cls-342" d="M52.37,36.27c.49.72.77,1.36-.12,2.07a2.23,2.23,0,0,0,.11,2.71,1.23,1.23,0,0,1,.51,1A5.59,5.59,0,0,1,51,41.59a1,1,0,0,1-1-.52l-.09-.94H50c.7-.66.35-1.53.45-2.31.07-.59-.22-1.25.31-1.76a1.32,1.32,0,0,1,1.06-.14A.66.66,0,0,1,52.37,36.27Z"/><path class="cls-42" d="M50,41.07c.39,0,.83,0,1,.52,0,.16,0,.32-.07.49L50,42C50,41.69,50,41.38,50,41.07Z"/><path class="cls-343" d="M42.21,34.29H37.45a1.09,1.09,0,0,1,0-1.86l4.81,0C42.21,33.06,42.21,33.68,42.21,34.29Z"/><path class="cls-344" d="M37.41,32.42c0,.62,0,1.24,0,1.86l-3,0c-.3-.33-.8-.36-1.08-.71a.8.8,0,0,1,.13-1.17Z"/><path class="cls-345" d="M42.23,30.45c0,.31,0,.61,0,.92-1.54,0-3.09,0-4.64.08-.68,0-1.17-.17-1.19-1l.11-.19c.64-.6,1.41-.25,2.13-.33a8.91,8.91,0,0,1,2.63,0A1.18,1.18,0,0,1,42.23,30.45Z"/><path class="cls-346" d="M36.38,30.49H34.55l-.19-.09a1.69,1.69,0,0,1-.15-1.82.81.81,0,0,1,.29-.32,2,2,0,0,1,1.1-.21,1.09,1.09,0,0,1,1.07.37,1.59,1.59,0,0,1-.18,2Z"/><path class="cls-347" d="M33.53,32.42c-.12.85.94,1.1,1,1.88h-2a1,1,0,0,1-.34-.94,1,1,0,0,1,.38-.91v-.11Z"/><path class="cls-348" d="M34.55,30.5a.82.82,0,0,1-1,.9.73.73,0,0,1,0-1,.71.71,0,0,1,1,0Z"/><path class="cls-349" d="M33.58,30.51l-.07.89-.94,0,0-.05a.73.73,0,0,1-.32-.82.76.76,0,0,1,.2-.32.82.82,0,0,1,.89,0A.52.52,0,0,1,33.58,30.51Z"/><path class="cls-123" d="M51,36.25c0,1,0,2,0,2.94,0,.63-.26,1-.91.94l-.08-8.72,0,0c.3-.34.66-.63.94-1l0-.9.91-.07.17.05c.47.77,1.52.2,2,.89a1.06,1.06,0,0,1,.08.95.73.73,0,0,1-.24.31A3.07,3.07,0,0,1,53,32a2.47,2.47,0,0,0-1.59,2.57A1.7,1.7,0,0,1,51,36.25Z"/><path class="cls-350" d="M43.23,25.65c.77.1,1.06-.25,1-1a5.78,5.78,0,0,1,0-.93c.67.2,1.88-.67,1.87.92-1.44.09-.77,1.22-1,1.93H43.24Z"/><path class="cls-351" d="M41.3,25.59l.91.07v2.88a.79.79,0,0,1-.93.24.81.81,0,0,1-.29-.29,3.85,3.85,0,0,1-.19-1.75,1.52,1.52,0,0,1,.2-.93A.59.59,0,0,1,41.3,25.59Z"/><path class="cls-352" d="M41.28,28.56l.93,0c0,.64,0,1.27,0,1.91h-1C40.66,29.82,40.52,29.19,41.28,28.56Z"/><path class="cls-353" d="M52,28.55l1.89,0,0,0a.82.82,0,0,1,.06,1.1,1.47,1.47,0,0,1-2,0l-.07-.11Z"/><path class="cls-354" d="M50.92,30.44c0,.68-.25,1-.94,1v-.94Z"/><path class="cls-255" d="M9.87,46.9H9.38L7.69,44c.83-.12,1-1,1.53-1.42,1.08-.85,1.83-.71,2.09.58a.88.88,0,0,0,1,.82h1.92c0,.24,0,.48,0,.72,0,.56,0,1.14.57,1.47s1.16-.09,1.61-.46A2.4,2.4,0,0,1,18.09,45h0a.71.71,0,0,1,0,1c-.67,0-1,.3-1,1H15.65c-.73.45-.69,1.48-1.44,1.92a8,8,0,0,1-2.89-.24C10.56,48.25,10.54,47.3,9.87,46.9Z"/><path class="cls-355" d="M17.1,32.16c0,.63.07,1.17.92,1.2s1.06-.48,1-1.2c.3-.37.64-.61,1.13-.32s.31.93.2,1.43a2.09,2.09,0,0,1-1.06,1.38c-.41.08-.85.08-1.13.55.43,0,.63-.5,1-.45.88.19,1.3.61.77,1.51-.3.8-1.12,1.34-1.06,2.35,0,.48-.51.52-.92.53s-.87-.2-.9-.75a1.12,1.12,0,0,0-1-1.17.7.7,0,0,1-.47-.72c-.14-1.1.09-2.31-1-3.13h-.5c0-2.19.4-2.41,2.32-1.36A2.67,2.67,0,0,0,17.1,32.16Z"/><path class="cls-306" d="M19,34.33l1-1a1.18,1.18,0,0,1,1.93,0l.93,0q0,3.84,0,7.69a1.32,1.32,0,0,0-.94.28c-.44-.1-.87-.18-1.3-.29S20,40.47,20,40a.8.8,0,0,1,.7-.83,1.76,1.76,0,0,0,1.07-2.53c-.44-.66-1.18-.29-1.79-.39a1.18,1.18,0,0,0-1-1.21A.5.5,0,0,1,19,34.33Z"/><path class="cls-356" d="M14.21,38.19a1.46,1.46,0,0,1-1.88.87c-.83-.26-1-.93-1-1.72,0-.36,0-.72,0-1.08l.14-.2a2.65,2.65,0,0,1,2.94.13A1.42,1.42,0,0,1,14.21,38.19Z"/><path class="cls-246" d="M9.38,36.25c0-.44,0-.88,0-1.32s-.15-1.3.66-1.48,1,.57,1.29,1.13a1,1,0,0,1,0,1.68H9.38Z"/><path class="cls-357" d="M14.21,38.19V36.26l.12-.19a1.23,1.23,0,0,1,1.81.19v1C15.92,38.5,15.81,38.55,14.21,38.19Z"/><path class="cls-358" d="M14.22,44c0-.58-.21-1.24.27-1.71a1.08,1.08,0,0,1,1.25-.1,1.26,1.26,0,0,1,.64,1.31c-.05.48-.58.46-1,.49s-.8,0-1.2,0Z"/><path class="cls-359" d="M11.29,40.15c0,.64-.3.92-.94.93s-1-.36-1-1,.4-.88,1-.87S11.33,39.52,11.29,40.15Z"/><path class="cls-355" d="M15.14,41.07c-.65,0-.91-.33-.91-1s.38-1,1-.95.87.42.86,1S15.76,41.1,15.14,41.07Z"/><path class="cls-360" d="M11.31,25.63h2.91c0,1,0,1.93,0,2.9H11.32Z"/><path class="cls-131" d="M11.31,28.53c0,.35,0,.71,0,1.07,0,.68-.43.86-1,.85a.8.8,0,0,1-.88-.89c0-.6.18-1,.86-1h1.06Z"/><path class="cls-361" d="M14.21,28.53h1.07c.68,0,.88.42.86,1a.8.8,0,0,1-.88.89c-.6,0-1-.17-1-.85,0-.36,0-.72,0-1.07Z"/><path class="cls-362" d="M11.31,36.26c0-.56,0-1.12,0-1.68a4.35,4.35,0,0,1,2.87,0c.73.56.56,1.12,0,1.69h-2.9Z"/><path class="cls-246" d="M14.21,36.27c0-.57,0-1.13,0-1.69l.51-1.21c1.54.05,1.56.08,1.46,1.57,0,.44,0,.88,0,1.32Z"/><path class="cls-248" d="M9.38,51.48c0-1.76.31-2,1.94-1.45C11.28,51.8,11,52,9.38,51.48Z"/><path class="cls-108" d="M14.21,49.79c1.91,0,1.91,0,1.94,1.69C14.46,52,14.22,51.81,14.21,49.79Z"/><path class="cls-363" d="M17.11,46.89l1.09,0c.7,0,.85.47.83,1.07a.78.78,0,0,1-.83.83c-.6,0-1.05-.13-1.07-.83,0-.36,0-.73,0-1.09Z"/><path class="cls-253" d="M14.21,48.82c0-1.86,0-1.86,1.45-1.92,0,.12.06.23.1.35.14.48.58,1,.13,1.45S14.79,49.06,14.21,48.82Z"/><path class="cls-253" d="M9.87,46.9c1.37-.21,1.54.63,1.45,1.68a1.06,1.06,0,0,1-1.5.27c-.62-.37-.32-.89-.14-1.38C9.75,47.28,9.81,47.09,9.87,46.9Z"/><path class="cls-245" d="M18.09,45.92v-1a.84.84,0,0,1,1,1Z"/><path class="cls-364" d="M56.74,31.45c0,1.91,0,1.91,1.93,1.91v2.91a1.2,1.2,0,0,1-1.93,0c-1.32-.64-.89-1.86-1-2.91a1.38,1.38,0,0,1-.15-2A.82.82,0,0,1,56.74,31.45Z"/><path class="cls-365" d="M52.89,31.47l1,0c.8.49.47,1.26.49,1.94a6.2,6.2,0,0,0-.49,2.88H51.91A2.76,2.76,0,0,1,52,32.83C52.42,32.43,52.32,31.74,52.89,31.47Z"/><path class="cls-365" d="M53.84,36.26h1.07c.67,0,.87.43.85,1a.8.8,0,0,1-.88.88c-.6,0-1-.17-1-.85,0-.36,0-.71,0-1.07Z"/><path class="cls-126" d="M56.74,36.27h1.93c0,.64,0,1.28,0,1.92C56.74,38.19,56.74,38.19,56.74,36.27Z"/><path class="cls-260" d="M55.75,40.07c0,.63-.21,1-.87,1s-1-.25-1-1,.3-.93.94-.94S55.77,39.42,55.75,40.07Z"/><path class="cls-366" d="M54.33,33.38c-.79-.49-.39-1.28-.49-1.94l0,0c.66-.55,1.31-.74,1.94.06v1.9Z"/><path class="cls-358" d="M55.76,31.46l-1.94-.06,0-.93.06-.16c.39-.56,1.25-.06,1.59-.72a.57.57,0,0,1,.3-.15l.92.08,0,1.93Z"/><path class="cls-127" d="M53.86,29.47v-1c.7.19,1.81-.47,1.93.93a.56.56,0,0,0,0,.12,1.28,1.28,0,0,1-1.79.11Z"/><path class="cls-367" d="M50.94,23.69l0,1c-.73,0-1-.34-.88-1Z"/><path class="cls-368" d="M35.5,22.76l-1,0,0-.9a35.1,35.1,0,0,1,4.81,0l0,.87A3.85,3.85,0,0,1,35.5,22.76Z"/><path class="cls-369" d="M35.5,22.76l3.82-.06.92,0,0,1c-.46.68-1.17.48-1.81.52A5.5,5.5,0,0,1,35.69,24a.71.71,0,0,1-.25-.34Z"/><path class="cls-370" d="M38.33,23.75l1.93-.06.12.93a.65.65,0,0,1-.18.31c-.52.17-.49.9-1.05,1a.91.91,0,0,1-1-.28A1.42,1.42,0,0,1,38.33,23.75Z"/><path class="cls-371" d="M41.26,24.67c0,.31,0,.62,0,.92l-.07.08a.7.7,0,0,1-1,0,.73.73,0,0,1,0-1l.12-.06Z"/><path class="cls-372" d="M33.55,25.69l1-.09a.8.8,0,0,1,.89-.26.76.76,0,0,1,.31.25,1.1,1.1,0,0,1,.07.94.75.75,0,0,1-.2.3c-.86.23-.38,1.33-1.07,1.66l0,.07a1.19,1.19,0,0,1-1,.39,1.23,1.23,0,0,1-1.05-.33.86.86,0,0,1,.09-1.07l.1-1C33.28,26.63,33.55,26.3,33.55,25.69Z"/><path class="cls-373" d="M32.53,27.55l.07,1a.77.77,0,0,1,.06,1,.72.72,0,0,1-1-.06c0-.64,0-1.28,0-1.92Z"/><path class="cls-374" d="M35.43,25.57l-.91,0c.11-.74-.45-1.79.92-1.94l.07.06C36.06,24.36,36.25,25,35.43,25.57Z"/><path class="cls-272" d="M21.94,33.36H20V31.91a.31.31,0,0,1,0-.47C21.94,31.43,21.94,31.43,21.94,33.36Z"/><path class="cls-306" d="M20,31.44v.47l-1,.25C19.09,31.53,19.51,31.42,20,31.44Z"/><path class="cls-375" d="M32.53,33.34v.95l-.9.06c-.67-.27-1.89.59-1.94-.94.64,0,1-.29,1-1h.94A11,11,0,0,1,32.53,33.34Z"/><path class="cls-376" d="M32.53,33.34c-.64,0-1-.26-.91-.9h.95Z"/><path class="cls-377" d="M32.55,30.52c0,.29,0,.58.05.87-.72.09-1-.24-1-.95C32,30.2,32.27,30.15,32.55,30.52Z"/><path class="cls-378" d="M32.55,30.52l-.93-.08c0-.31,0-.63,0-.94l.9,0a.59.59,0,0,1,.07.94Z"/><path class="cls-207" d="M38.37,44a1,1,0,0,1-1.17-.92l1.18,0Z"/><path class="cls-379" d="M52.89,31.47a2.64,2.64,0,0,1-.72,2.14c-.66.64-.19,1.75-.26,2.65H51c0-.89,0-1.77,0-2.66A2.42,2.42,0,0,1,52.89,31.47Z"/><path class="cls-380" d="M41.28,28.56c0,.63,0,1.27,0,1.9l-2.64,0a1.3,1.3,0,0,1-.57-1.82.74.74,0,0,1,.26-.32,1.76,1.76,0,0,1,1-.23,7.06,7.06,0,0,1,1,0,1.12,1.12,0,0,1,.91.39Z"/><path class="cls-381" d="M38.37,28.55c.09.63.18,1.25.26,1.88H36.49l0-1.88A1.11,1.11,0,0,1,38.37,28.55Z"/><path class="cls-382" d="M38.37,28.55H36.46l-1-.09a1.17,1.17,0,0,1,0-1.88h0c.83-.85,1.88-.29,2.82-.45a1.8,1.8,0,0,1,1.11.26,1,1,0,0,1,.29,1c-.24.61-1,.58-1.35,1.09Z"/><path class="cls-383" d="M35.46,26.59v1.88l-.94,0C34.61,27.75,34,26.68,35.46,26.59Z"/><path class="cls-384" d="M33.55,28.55h.94c0,.62,0,1.24,0,1.86l-.89.09-.07-.08A1.16,1.16,0,0,1,33.55,28.55Z"/><path class="cls-385" d="M33.55,28.55l0,1.88H32.6l-.07-.94.07-1Z"/><path class="cls-386" d="M52,29.58l1.91-.11h0a.72.72,0,0,1,0,1h0C53.19,30.23,52.05,31,52,29.58Z"/><path class="cls-387" d="M41.26,28.47h-.93a1.38,1.38,0,0,1-.21-2,.79.79,0,0,1,1.11.06Z"/><path class="cls-388" d="M41.23,26.58h-.89c-.34-.17-.36-.44-.26-.76a.51.51,0,0,1,.27-.23l.88.07Z"/><path class="cls-389" d="M19,34.33c0,.24,0,.48,0,.72,0,.5,0,1.08-.7,1.17-.39.05-.83.1-1.08-.29a1.12,1.12,0,0,1,0-1.24C17.72,34.08,18.44,34.41,19,34.33Z"/><path class="cls-390" d="M53.85,30.48v-1l1.9.08C55.64,31,54.55,30.32,53.85,30.48Z"/><path class="cls-391" d="M35.43,25.57c0-.61.06-1.23.08-1.85l2.82,0,.06,1.84c0,.07-.09.14-.13.22a2.46,2.46,0,0,1-2.75-.14Z"/><path class="cls-392" d="M39.28,26.6l-.91,0a.62.62,0,0,1,0-.91l0-.08.92,0,.16.13C39.64,26.07,39.65,26.37,39.28,26.6Z"/><path class="cls-393" d="M40.26,24.68l.09.92-.07.09a.68.68,0,0,1-.92,0l0-.09C39.32,25,39.55,24.58,40.26,24.68Z"/><path class="cls-394" d="M38.36,25.66c0,.3,0,.61,0,.91H35.5c0-.3,0-.61,0-.92Z"/><path class="cls-395" d="M39.36,25.69h.92l.06.9c0,.63,0,1.26,0,1.89h-1a.67.67,0,0,1-.05-.94c0-.32,0-.63,0-.95S39.34,26,39.36,25.69Z"/><path class="cls-396" d="M39.29,27.55c0,.31,0,.63.05.94h-1C38.34,27.85,38.62,27.51,39.29,27.55Z"/></g></g></svg>