<svg xmlns="http://www.w3.org/2000/svg" viewBox="0 0 74 74"><defs><style>.cls-1{fill:#1e2223;}.cls-2{fill:#373b3b;}.cls-3{fill:#434b50;}.cls-4{fill:#172a35;}.cls-5{fill:#323c44;}.cls-6{fill:#1f2c35;}.cls-7{fill:#545b61;}.cls-8{fill:#3f484e;}.cls-9{fill:#4e565b;}.cls-10{fill:#535b60;}.cls-11{fill:#2c373e;}.cls-12{fill:#566066;}.cls-13{fill:#33383b;}.cls-14{fill:#5f6468;}.cls-15{fill:#2f3a41;}.cls-16{fill:#374248;}.cls-17{fill:#5c6267;}.cls-18{fill:#595f63;}.cls-19{fill:#424c53;}.cls-20{fill:#3e464c;}.cls-21{fill:#50575b;}.cls-22{fill:#3a444a;}.cls-23{fill:#787d80;}.cls-24{fill:#364047;}.cls-25{fill:#666c6f;}.cls-26{fill:#2a363f;}.cls-27{fill:#63686b;}.cls-28{fill:#676c6f;}.cls-29{fill:#6b7176;}.cls-30{fill:#29363f;}.cls-31{fill:#474e53;}.cls-32{fill:#455057;}.cls-33{fill:#4f565b;}.cls-34{fill:#344048;}.cls-35{fill:#424c52;}.cls-36{fill:#364046;}.cls-37{fill:#2d3740;}.cls-38{fill:#2c3841;}.cls-39{fill:#2c3840;}.cls-40{fill:#454d53;}.cls-41{fill:#4e5352;}.cls-42{fill:#3f474d;}.cls-43{fill:#2f3c45;}.cls-44{fill:#3d454a;}.cls-45{fill:#444b50;}.cls-46{fill:#41494e;}.cls-47{fill:#3c464b;}.cls-48{fill:#46525a;}.cls-49{fill:#414c53;}.cls-50{fill:#3b454c;}.cls-51{fill:#4c565e;}.cls-52{fill:#8a8d8f;}.cls-53{fill:#27343d;}.cls-54{fill:#35424c;}.cls-55{fill:#495156;}.cls-56{fill:#3f4b52;}.cls-57{fill:#3d484f;}.cls-58{fill:#2b3740;}.cls-59{fill:#565d61;}.cls-60{fill:#616a6e;}.cls-61{fill:#646b70;}.cls-62{fill:#4f585d;}.cls-63{fill:#36434c;}.cls-64{fill:#767c80;}.cls-65{fill:#515b60;}.cls-66{fill:#394851;}.cls-67{fill:#4e585c;}.cls-68{fill:#374247;}.cls-69{fill:#333e44;}.cls-70{fill:#4b5358;}.cls-71{fill:#323e47;}.cls-72{fill:#343a3f;}.cls-73{fill:#646a6e;}.cls-74{fill:#434c51;}.cls-75{fill:#696e72;}.cls-76{fill:#60696d;}.cls-77{fill:#6f7679;}.cls-78{fill:#525a5f;}.cls-79{fill:#35424b;}.cls-80{fill:#5f676b;}.cls-81{fill:#545d63;}.cls-82{fill:#333f4a;}.cls-83{fill:#323d45;}.cls-84{fill:#404950;}.cls-85{fill:#3d4c53;}.cls-86{fill:#777d81;}.cls-87{fill:#596167;}.cls-88{fill:#303c44;}.cls-89{fill:#303d47;}.cls-90{fill:#3a454e;}.cls-91{fill:#74797d;}.cls-92{fill:#25343c;}.cls-93{fill:#424446;}.cls-94{fill:#868d87;}.cls-95{fill:#3e463f;}.cls-96{fill:#2c2d2d;}.cls-97{fill:#7c827e;}.cls-98{fill:#6a716b;}.cls-99{fill:#606661;}.cls-100{fill:#4a4e4c;}.cls-101{fill:#383c3f;}.cls-102{fill:#5d6467;}.cls-103{fill:#6a7175;}.cls-104{fill:#2a3136;}.cls-105{fill:#353f44;}.cls-106{fill:#373f46;}.cls-107{fill:#959698;}.cls-108{fill:#8c8e90;}.cls-109{fill:#7b8082;}.cls-110{fill:#282f2c;}.cls-111{fill:#4e5650;}.cls-112{fill:#666b6e;}.cls-113{fill:#8e9092;}.cls-114{fill:#8c9194;}.cls-115{fill:#74787b;}.cls-116{fill:#6d7275;}.cls-117{fill:#727679;}.cls-118{fill:#91969a;}.cls-119{fill:#585e64;}.cls-120{fill:#454e52;}.cls-121{fill:#32393c;}.cls-122{fill:#262d32;}.cls-123{fill:#585e62;}.cls-124{fill:#7b8184;}.cls-125{fill:#787e82;}.cls-126{fill:#5c6367;}.cls-127{fill:#6b7275;}.cls-128{fill:#9fa3a6;}.cls-129{fill:#909599;}.cls-130{fill:#767b7e;}.cls-131{fill:#545c60;}.cls-132{fill:#60666a;}.cls-133{fill:#757a7f;}.cls-134{fill:#73777a;}.cls-135{fill:#5b6165;}.cls-136{fill:#9ea2a5;}.cls-137{fill:#a7a9ac;}.cls-138{fill:#bbbec0;}.cls-139{fill:#1b252a;}.cls-140{fill:#2c363b;}.cls-141{fill:#93999d;}.cls-142{fill:#acb1b3;}.cls-143{fill:#7f8588;}.cls-144{fill:#949b9d;}.cls-145{fill:#5d6368;}.cls-146{fill:#9a9e9f;}.cls-147{fill:#464d54;}.cls-148{fill:#404346;}.cls-149{fill:#9d9fa1;}.cls-150{fill:#929496;}.cls-151{fill:#83878a;}.cls-152{fill:#7d8083;}.cls-153{fill:#81868a;}.cls-154{fill:#9fa4a7;}.cls-155{fill:#4f575e;}.cls-156{fill:#7b7f82;}.cls-157{fill:#b5b7b9;}.cls-158{fill:#9ca1a5;}.cls-159{fill:#63696d;}.cls-160{fill:#777e7c;}.cls-161{fill:#5e787b;}.cls-162{fill:#2d3a3a;}.cls-163{fill:#404849;}.cls-164{fill:#4e5d5f;}.cls-165{fill:#707e81;}.cls-166{fill:#525d64;}.cls-167{fill:#50595c;}.cls-168{fill:#475555;}.cls-169{fill:#454f51;}.cls-170{fill:#425056;}.cls-171{fill:#273f42;}.cls-172{fill:#315254;}.cls-173{fill:#1d3135;}.cls-174{fill:#2f4b4e;}.cls-175{fill:#304244;}.cls-176{fill:#233a3d;}.cls-177{fill:#455c5e;}.cls-178{fill:#304649;}.cls-179{fill:#43585b;}.cls-180{fill:#647276;}.cls-181{fill:#5d666a;}.cls-182{fill:#697072;}.cls-183{fill:#454c51;}.cls-184{fill:#293035;}.cls-185{fill:#4c5457;}.cls-186{fill:#757d80;}.cls-187{fill:#cdcecd;}.cls-188{fill:#333e39;}.cls-189{fill:#3e4142;}.cls-190{fill:#b3b6b4;}.cls-191{fill:#1b2427;}.cls-192{fill:#383839;}.cls-193{fill:#222c31;}.cls-194{fill:#424943;}.cls-195{fill:#acb2b4;}.cls-196{fill:#949a9d;}.cls-197{fill:#727b7e;}.cls-198{fill:#c4c7c8;}.cls-199{fill:#dcdee0;}.cls-200{fill:#3f4a4f;}.cls-201{fill:#737577;}.cls-202{fill:#1a2830;}.cls-203{fill:#484f53;}.cls-204{fill:#717a7d;}.cls-205{fill:#515b62;}.cls-206{fill:#47535c;}.cls-207{fill:#5d6367;}.cls-208{fill:#696f73;}.cls-209{fill:#73787c;}.cls-210{fill:#ccced1;}.cls-211{fill:#bbbfc1;}.cls-212{fill:#828486;}.cls-213{fill:#97999b;}.cls-214{fill:#7a8083;}.cls-215{fill:#233e4b;}.cls-216{fill:#6b7074;}.cls-217{fill:#3b454b;}.cls-218{fill:#444f54;}.cls-219{fill:#5a6165;}.cls-220{fill:#73797c;}.cls-221{fill:#ced1d2;}.cls-222{fill:#515c61;}.cls-223{fill:#737b7e;}.cls-224{fill:#a7a9ab;}.cls-225{fill:#c1c5c6;}.cls-226{fill:#e2e3e4;}.cls-227{fill:#bfc1c2;}.cls-228{fill:#bcbfc1;}.cls-229{fill:#6a7074;}.cls-230{fill:#767b7f;}.cls-231{fill:#828485;}.cls-232{fill:#898c8d;}.cls-233{fill:#747678;}.cls-234{fill:#86898a;}.cls-235{fill:#989a9b;}.cls-236{fill:#686f72;}.cls-237{fill:#c8cccc;}.cls-238{fill:#415054;}.cls-239{fill:#959ea0;}.cls-240{fill:#4e5252;}.cls-241{fill:#2f4d4f;}.cls-242{fill:#90a5a8;}.cls-243{fill:#435f62;}.cls-244{fill:#7a888c;}.cls-245{fill:#385357;}.cls-246{fill:#404b46;}.cls-247{fill:#3b5c5f;}.cls-248{fill:#2d4347;}.cls-249{fill:#5b7174;}.cls-250{fill:#396063;}.cls-251{fill:#436e70;}.cls-252{fill:#466d70;}.cls-253{fill:#54696c;}.cls-254{fill:#8ca6a8;}.cls-255{fill:#537b7d;}.cls-256{fill:#5c6769;}.cls-257{fill:#283f42;}.cls-258{fill:#2d4446;}.cls-259{fill:#2c3b3e;}.cls-260{fill:#315154;}.cls-261{fill:#2e4d51;}.cls-262{fill:#405a5b;}.cls-263{fill:#888e90;}.cls-264{fill:#637c7d;}.cls-265{fill:#355356;}.cls-266{fill:#394044;}.cls-267{fill:#7b9799;}.cls-268{fill:#a9b0b1;}.cls-269{fill:#4d6b6e;}.cls-270{fill:#2e4346;}.cls-271{fill:#3e6164;}.cls-272{fill:#507275;}.cls-273{fill:#9ea0a2;}.cls-274{fill:#a6a8aa;}.cls-275{fill:#909294;}.cls-276{fill:#797d7e;}.cls-277{fill:#8d9091;}.cls-278{fill:#9b9e9f;}.cls-279{fill:#c6c8ca;}.cls-280{fill:#b8babc;}.cls-281{fill:#808485;}.cls-282{fill:#303535;}.cls-283{fill:#2a4044;}.cls-284{fill:#42676b;}.cls-285{fill:#82a1a3;}.cls-286{fill:#b3babc;}.cls-287{fill:#436d71;}.cls-288{fill:#757a7e;}.cls-289{fill:#858b8d;}.cls-290{fill:#555e63;}.cls-291{fill:#6d7478;}.cls-292{fill:#495257;}.cls-293{fill:#2e3e47;}.cls-294{fill:#586064;}.cls-295{fill:#1e3743;}.cls-296{fill:#374148;}.cls-297{fill:#59656c;}.cls-298{fill:#56787b;}.cls-299{fill:#909597;}.cls-300{fill:#929495;}.cls-301{fill:#96999a;}.cls-302{fill:#c9cdce;}.cls-303{fill:#9ba0a3;}.cls-304{fill:#7f8589;}.cls-305{fill:#92989a;}.cls-306{fill:#78797a;}.cls-307{fill:#999a9a;}.cls-308{fill:#abadae;}.cls-309{fill:#787a7c;}.cls-310{fill:#869a9c;}.cls-311{fill:#485d60;}.cls-312{fill:#6a8386;}.cls-313{fill:#4f595a;}.cls-314{fill:#9b9d9f;}.cls-315{fill:#878a8b;}.cls-316{fill:#838688;}.cls-317{fill:#bfc6c8;}.cls-318{fill:#8aabad;}.cls-319{fill:#848b8e;}</style></defs><title>apfsds</title><g id="레이어_2" data-name="레이어 2"><g id="레이어_1-2" data-name="레이어 1"><rect class="cls-1" width="74" height="74" rx="8.33" ry="8.33"/><path class="cls-2" d="M34.69,6.71c.41,0,.8,0,1,.47s.5.39.83.4a.55.55,0,0,1,.27.17,2.08,2.08,0,0,1,.1,1.69,2.69,2.69,0,0,0-1,1.1c-1,.33-.57,1.2-.71,1.85a11.12,11.12,0,0,1,0,2.08c0,.4.09.83-.24,1.17a1,1,0,0,1-1,.13c-.44-.11-.52-.47-.54-.83a1,1,0,0,0-.68-.95,1.38,1.38,0,0,1,.14-1.63,3.39,3.39,0,0,0,.35-3,1.32,1.32,0,0,1,.05-1C34,8.08,34.24,7.32,34.69,6.71Z"/><path class="cls-3" d="M43,6.69c.7-.13,1.63.34,2-.77.08-.25.49-.15.77-.15.2.19.41.38.4.67a1.33,1.33,0,0,0,.71,1.15,1.58,1.58,0,0,1,.17.88,3.5,3.5,0,0,1-.65,2.65c-.24.26-.26.68-.4,1a.67.67,0,0,1-.19.25c-.63.3-1.16.3-1.45-.46-.09-.25-.31-.35-.51-.47a1,1,0,0,1,.07-1.53c.4-.37.25-.7-.21-.92s-.8-.16-1-.6C42.6,7.79,42.38,7.17,43,6.69Z"/><path class="cls-4" d="M18.15,13.48c.45.17.64-.1.72-.46a1.21,1.21,0,0,1,1.1-.93c.48-.1,1-.24,1.12-.82.1-.08-.05,0,.05-.07a5.53,5.53,0,0,1,4.37.07h1.8a.51.51,0,0,1,.3.41.69.69,0,0,1-.17.66,10.37,10.37,0,0,1-4.4.21c-.45,0-.9.11-1.36.12a.63.63,0,0,0-.7.57c-.18.34-.72.45-.6,1a.83.83,0,0,1-.39.73c-.67.67-1.22-.12-1.83-.17C17.63,14.35,17.63,13.92,18.15,13.48Z"/><path class="cls-5" d="M27.37,11.66l-.06-.39c0-.61,0-1.22,0-1.84a.84.84,0,0,0-.4-.86c-.68-.31-.54-.91-.44-1.43s.66-.45,1.06-.45c.67,0,1.41-.21,1.8.69.13.32.6.21.93.21.55,0,1.1,0,1.65,0l.16.09a.8.8,0,0,1,0,1c-.28.29-.64.22-1,.24S30.31,9,29.91,9c-1,.06-1.12.2-1.18,1.23,0,.31,0,.61,0,.92C28.56,12,28.15,12.15,27.37,11.66Z"/><path class="cls-6" d="M45.81,12.18c0-.75-.27-1.49.68-2,.45-.26.15-1.07.18-1.64.21-.24.45-.39.77-.2a.36.36,0,0,1,.16.24c0,.73-.47,1.45-.07,2.21.06.1-.08.34-.18.48s-.46.39-.21.69a1,1,0,0,0,.87.43c.38,0,.44-.37.5-.67.12-.53.18-1.12.92-1.17a1,1,0,0,1,0,1.66v.88c-.09.38-.38.41-.68.41a.87.87,0,0,0-1,.68.6.6,0,0,1-.25.13c-1,.16-1.15,0-1.25-.87A2.5,2.5,0,0,0,45.81,12.18Z"/><path class="cls-7" d="M67.84,17.9l0,.75a1,1,0,0,1-1,.37c-2.38.14-4.77.06-7.15.05a1.23,1.23,0,0,1-1-.35,1,1,0,0,1,0-1.11,1.22,1.22,0,0,1,1.65.07l6.37.05A1.9,1.9,0,0,1,67.84,17.9Z"/><path class="cls-8" d="M25.51,11.27H20.93c-.45-.54-1.09-.41-1.68-.47s-1.05.13-1.34-.48a1.08,1.08,0,0,1,.1-1,5.39,5.39,0,0,1,3.25-.17c.44.82,1.22.73,2,.79s1.61-.27,2.25.42Z"/><path class="cls-9" d="M50.37,10.37c.39,0,.82,0,.92-.53s.56-.36.89-.44l.14.06c.34.53.9.38,1.4.44s1.12-.16,1.46.46a.71.71,0,0,1-.24.89l-1.54,0c-.53,0-1,0-1.35.61s-1.1.24-1.68.29A1.18,1.18,0,0,1,50.37,10.37Z"/><path class="cls-10" d="M48.54,13.14l.9-.06.9.05a1.18,1.18,0,0,1,0,1.81c-.38,0-.71,0-.94.51-.38.78-1.19.31-1.8.42a1.22,1.22,0,0,1,0-1.84h0A11.48,11.48,0,0,1,48.54,13.14Z"/><path class="cls-11" d="M15.38,8.52c-1,0-1.36-.84-1.74-1.42s0-1.38.93-1.32c.66,0,1.72-.52,1.75.86C16,7.26,16,8,15.38,8.52Z"/><path class="cls-12" d="M62.3,14.94c-1.25,0-2.49,0-3.74,0-.82,0-.83-.44-.87-1s.33-.89,1-.78a1.58,1.58,0,0,0,1.34.44,5.47,5.47,0,0,1,2.34.25.47.47,0,0,1,.21.23A.68.68,0,0,1,62.3,14.94Z"/><path class="cls-13" d="M37.46,6.69c.39,0,.8,0,.95-.51s.55-.4.91-.42c.42.94,1.48,1.59,1.28,2.81a1.46,1.46,0,0,1-.2.91c-.91.53-1.16.46-1.54-.46a.83.83,0,0,0-.53-.55c-.38-.14-.52-.61-.94-.7a.7.7,0,0,1-.17-.25A.67.67,0,0,1,37.46,6.69Z"/><path class="cls-14" d="M25.48,10.33c-1.09,0-2.18,0-3.27,0-.63,0-1-.21-.94-.89a1.92,1.92,0,0,1,.6-1.22c.38-.17.64,0,.89.27h0a6.64,6.64,0,0,0,1,.88c.31,0,.61,0,.92,0C25.29,9.38,25.61,9.64,25.48,10.33Z"/><path class="cls-15" d="M59.54,13.09c0-.67.3-.93.94-.9A1.61,1.61,0,0,0,62,11.6c.42-.53,1.12-.35,1.71-.27s.42.52.43.88c-.62.44-1.31.78-2,1.2a4.87,4.87,0,0,1-1.82.13C60,13.51,59.68,13.49,59.54,13.09Z"/><path class="cls-16" d="M60.32,17.68l-1.53.07a4.46,4.46,0,0,1-3.76.12.76.76,0,0,1,.08-1.05c1.34,0,2.67,0,4,0C59.71,16.82,60.2,17,60.32,17.68Z"/><path class="cls-17" d="M55.11,16.82l0,.87c-.27.53-.89.73-1.18,1.24-.37.16-.63,0-.88-.28l-.89,0a1.19,1.19,0,0,1,0-1.81Z"/><path class="cls-18" d="M13.57,13.1l2.73,0a.68.68,0,0,1,.18.94.64.64,0,0,1-.27.22,12.19,12.19,0,0,1-3.81.14,1,1,0,0,1-.69-.39h0c-.44-.88-.19-1.31.79-1.32A1.32,1.32,0,0,1,13.57,13.1Z"/><path class="cls-19" d="M11.71,14h4.61c.34.31.26.61,0,.91-1.24,0-2.48,0-3.72,0C11.92,15,11.63,14.69,11.71,14Z"/><path class="cls-20" d="M13.57,13.1a6.8,6.8,0,0,1-.9,0c-.7-.08-1,.24-1,.92-.95.14-1.06-.91-1.7-1.25-.26-.13.07-.53.42-.57a13.68,13.68,0,0,1,2.56,0C13.52,12.28,13.52,12.71,13.57,13.1Z"/><path class="cls-21" d="M40.25,8.53c0-.27,0-.66-.21-.76-1.06-.4-.66-1.27-.72-2h1.82c.64.5.4,1.19.4,1.83a1.62,1.62,0,0,1-.29,1A.69.69,0,0,1,40.25,8.53Z"/><path class="cls-22" d="M54.94,11.25l0-.87c.16-.52.7-.76.9-1.25a2.12,2.12,0,0,1,1.71.09.64.64,0,0,1,.18.27C57.53,10.67,56.52,11.3,54.94,11.25Z"/><path class="cls-23" d="M59.54,13.09l2.76,0a.57.57,0,0,1,0,.95c-1,0-1.9,0-2.84,0-.64,0-.9-.28-.83-.89Z"/><path class="cls-24" d="M57.69,6.64c-.06-.76.36-.91,1-.89s.85.35.83.93c0,.31,0,.62,0,.92,0,.66-.23,1-.91.92C58.06,8,58,7.26,57.69,6.64Z"/><path class="cls-4" d="M18.16,10.34c.61,0,1.22.05,1.83,0s1,.24.94.91c-.92,0-1.84,0-2.76,0-.65,0-1-.23-.94-.91C17.53,10,17.84,10.08,18.16,10.34Z"/><path class="cls-25" d="M15.38,8.52c0-.3,0-.61,0-.91-.09-.73.26-1,.94-1l1.81.07a.64.64,0,0,1,.22.86,1,1,0,0,1-.78.43,1.65,1.65,0,0,0-1.29.72.68.68,0,0,1-.89-.21Z"/><path class="cls-26" d="M41.15,7.6c0-.61,0-1.22,0-1.83.41,0,.8,0,1,.49s.56.4.92.43c0,.61,0,1.21,0,1.82a.54.54,0,0,0-.07.13c-.32.25-.66.23-.84-.11S41.42,8,41.15,7.6Z"/><path class="cls-27" d="M57.69,6.64c.69,0,1,.26,1,1,0,.3,0,.61,0,.91h0a.73.73,0,0,1-.88.26c-.56-.23-.62-.95-1.16-1.21a.63.63,0,0,1,.22-.86Z"/><path class="cls-28" d="M62.31,14v-.95c-.09-.63.2-.9.83-.86.34,0,.67,0,1,0v.89c-.28.34-.62.61-.89,1h0a.61.61,0,0,1-.91,0Z"/><path class="cls-29" d="M46.65,7.62c-1.36-.11-.76-1.15-.88-1.85h1.81a.71.71,0,0,1,.33.81c-.2.47-.86.39-1,.9A.49.49,0,0,1,46.65,7.62Z"/><path class="cls-30" d="M16.31,15c0-.3,0-.6,0-.91h0c.28-.31.59-.6.89-.9.36,0,.73-.06.94.34,0,.43,0,.86,0,1.29A4,4,0,0,1,16.31,15Z"/><path class="cls-31" d="M34.69,6.71c0,.15,0,.3,0,.46,0,1.31,0,1.32-1.28,1.35-.87.11-.69-.41-.55-.91s.66-.57.94-.91Z"/><path class="cls-32" d="M52.2,16.8c0,.6,0,1.21,0,1.81-1.1.17-.91-.64-1-1.27S51.77,16.79,52.2,16.8Z"/><path class="cls-9" d="M47.58,6.69V5.77h.92a.62.62,0,0,1,0,.93l-.06.88a.67.67,0,0,1-.87.23.51.51,0,0,1-.23-.23A.68.68,0,0,1,47.58,6.69Z"/><path class="cls-5" d="M33.81,6.7c0,.4,0,.82-.57.9-.43.27-.85.52-1.28,0l0,0c0-.71.33-1,1-.91C33.21,6.69,33.51,6.69,33.81,6.7Z"/><path class="cls-33" d="M19.11,7.54l1.79.07a.74.74,0,0,1,.14,1,2.1,2.1,0,0,1-2,.13.86.86,0,0,1-.21-1A.47.47,0,0,1,19.11,7.54Z"/><path class="cls-34" d="M20.92,8.49c0-.29,0-.59,0-.88.32,0,.65,0,1,0,.64,0,.93.27.88.91l-1,0C21.5,8.8,21.2,8.86,20.92,8.49Z"/><path class="cls-35" d="M54,8.48c.1-1.34,1.18-.75,1.86-.94a.47.47,0,0,1,.26.2.85.85,0,0,1-.09.94c-.26.28-.6.2-.93.21a1.55,1.55,0,0,1-.92-.16A.42.42,0,0,1,54,8.48Z"/><path class="cls-36" d="M52.18,9.4c0-.61.25-.91.87-.89.31,0,.62,0,.92,0l.09,0c.41.85.2,1.25-.69,1.3a1.37,1.37,0,0,1-1.16-.34Z"/><path class="cls-37" d="M18.16,10.34l-.93,0c-.62,0-1-.21-.94-.88a.54.54,0,0,1,.16-.26,1.35,1.35,0,0,1,.9-.16c.34,0,.67,0,.79.39Z"/><path class="cls-11" d="M50.37,10.37v1.81l-.94,0V10.54A1.54,1.54,0,0,1,50.37,10.37Z"/><path class="cls-38" d="M50.33,14.94c0-.6,0-1.21,0-1.81.49,0,.92,0,.93.68s.09,1.13-.73,1.16Z"/><path class="cls-19" d="M17.21,13.14c.08.68-.25.94-.89.9,0-.3,0-.6,0-.91Z"/><path class="cls-39" d="M48.55,6.7c0-.31,0-.62,0-.93.35,0,.83-.1.85.43S48.89,6.65,48.55,6.7Z"/><path class="cls-40" d="M18.15,7.6l0-.89c.65-.12,1,.11,1,.83a.22.22,0,0,0-.05.08.57.57,0,0,1-.83.11Z"/><path class="cls-41" d="M37.46,6.69v.92a.53.53,0,0,1-.87,0l-.1,0C36.49,6.94,36.74,6.56,37.46,6.69Z"/><path class="cls-42" d="M56.81,6.7l0,.89-.08.13a.56.56,0,0,1-.82-.1l-.06-.08C55.81,6.85,56.15,6.59,56.81,6.7Z"/><path class="cls-43" d="M47.63,7.6l.86,0c.12.7-.25,1-.89,1l0-.08C47.3,8.18,47.25,7.88,47.63,7.6Z"/><path class="cls-44" d="M15.39,8.51l.91,0,.13.07a.53.53,0,0,1-.1.8l0,.09C15.65,9.48,15.29,9.21,15.39,8.51Z"/><path class="cls-45" d="M23.71,9.39c-.71.13-1-.17-1-.88C23.43,8.42,23.75,8.72,23.71,9.39Z"/><path class="cls-46" d="M57.73,8.53l.9,0c.1.69-.23,1-.88,1l-.06-.08C57.42,9.1,57.37,8.8,57.73,8.53Z"/><path class="cls-47" d="M63.25,14.05c-.11-.7.2-1,.89-1C64.23,13.79,64,14.12,63.25,14.05Z"/><path class="cls-48" d="M20,14.94,20,14A.62.62,0,0,1,21,14a.61.61,0,0,1,0,.95l-.21.06Z"/><path class="cls-49" d="M62.33,14.08l.91,0c.09.72-.24,1-.94.9Z"/><path class="cls-50" d="M21.82,23.2c0-.92,1-1.1,1.31-1.78,0-.09.29-.11.3-.17.08-1,.79-1.64,1.13-2.47.17-.44.08-.94.67-1.16.34-.12.26-.5.25-.81l.09-.15a.81.81,0,0,1,1,0c.31.25.25.6.25.94a2.34,2.34,0,0,1-.09.91.8.8,0,0,1-.09.26c-.54.38,0,.56.14.83a1.12,1.12,0,0,1,0,.7c-.09.42-.43.64-.7.91a8.27,8.27,0,0,0-1.43,2.34A4.16,4.16,0,0,1,22,23.47.52.52,0,0,1,21.82,23.2Z"/><path class="cls-51" d="M7.1,19.61c-.7,0-.95-.31-.92-1s.4-.87,1-.86h8.17a.66.66,0,0,1,0,1.15,3.27,3.27,0,0,1-1.35.21c-1.86,0-3.72.05-5.58,0-.43,0-.85-.06-1.07.42A.4.4,0,0,1,7.1,19.61Z"/><path class="cls-9" d="M20.88,26.88V26a1.28,1.28,0,0,1,0-1.87c0-.66.28-.95.92-.95a.36.36,0,0,0,0,.09c.53.56,1.23.36,1.88.41s1.41-.14,2,.46c.27.53.26,1-.37,1.23-.61,0-1.24.06-1.55.74a1.6,1.6,0,0,1-.86.3,1.14,1.14,0,0,0-1,.65.75.75,0,0,1-.85.05A.53.53,0,0,1,20.88,26.88Z"/><path class="cls-52" d="M8.06,26.93l.88,0a1,1,0,0,1,.77-.36c.74.16.72-.69,1.18-.89a5.12,5.12,0,0,1,2.69.15.69.69,0,0,1,.28.89,1.48,1.48,0,0,1-.12.29,2.48,2.48,0,0,0-1,1,1,1,0,0,1-.3.13,14.46,14.46,0,0,1-3.6.11A1,1,0,0,1,8,27.82H8A.56.56,0,0,1,8.06,26.93Z"/><path class="cls-53" d="M15.38,26.91a.92.92,0,0,1,.84.42,1,1,0,0,0,1.05.53.78.78,0,0,1,.09,1c-.29.32-.69.23-1.06.26a21.94,21.94,0,0,1-2.81,0,1.2,1.2,0,0,1-1-.31.77.77,0,0,1,.14-1h0c.33-.28.6-.63,1-.88l0,0a.92.92,0,0,1,.91-.37A.93.93,0,0,1,15.38,26.91Z"/><path class="cls-54" d="M14.84,20.48a1,1,0,0,1-1.15.92c-1.57,0-3.15,0-4.73,0-.64,0-1-.25-1-.9l.07-.15A1.2,1.2,0,0,1,9,20.09a10,10,0,0,1,1.82,0c.62,0,1.25,0,1.87,0S14.24,19.73,14.84,20.48Z"/><path class="cls-55" d="M22.77,15.85c-.68.07-1-.25-.94-.91-.62-.58-.44-1.23-.18-1.88A.68.68,0,0,1,22.76,13c.51.65,1.16.58,1.82.62,1.18.07,1.29.19,1.3,1.37a1.31,1.31,0,0,1-.3,1,.74.74,0,0,1-1-.06l0-.06C23.84,15.27,23.52,15.27,22.77,15.85Z"/><path class="cls-56" d="M13.54,26,10.82,26c-.24.19-.48.37-.81.18A.44.44,0,0,1,9.83,26c0-.64.3-.92,1-.91s1.57.19,2.13-.74c.24-.39,1-.17,1.57-.15a.69.69,0,0,1,.24.83C14.52,25.55,14,25.74,13.54,26Z"/><path class="cls-57" d="M16.31,24.12c-.1-.81.38-.9,1-.89s.83.33.84.92c0,1.58-.23,1.85-1.86,1.83A1.26,1.26,0,0,1,16.31,24.12Z"/><path class="cls-58" d="M15.43,18.6c0-.29,0-.58-.07-.87h2.11c.21,0,.44.05.5.31s-.11.34-.27.43c-.52.29-.48,1.29-1.39,1.08C16.05,19.21,15.61,19,15.43,18.6Z"/><path class="cls-59" d="M14.84,20.48l-2.23,0a.77.77,0,0,1-.15-1,3.2,3.2,0,0,1,2.75-.13.51.51,0,0,1,.22.26C15.37,20,15.44,20.45,14.84,20.48Z"/><path class="cls-60" d="M16.31,24.12V26l-.9.06-.12,0c-.15-.42-.78-.42-.83-.94l0-.88Z"/><path class="cls-61" d="M21.82,13.12v1.82l-.9,0c.05-.66-.27-.95-.91-.9-.09-.56,0-1,.7-.93C21.1,12.76,21.47,12.64,21.82,13.12Z"/><path class="cls-62" d="M17.22,28.74c0-.29,0-.59.05-.88h1.81a.67.67,0,0,1,.1,1,1.29,1.29,0,0,1-1,.29C17.79,29.12,17.4,29.18,17.22,28.74Z"/><path class="cls-61" d="M22.77,15.85c-.05-.6.16-.91.82-.91s1.08.17,1,.92Z"/><path class="cls-63" d="M20.9,24.15c0,.62,0,1.24,0,1.87-.66,0-.91-.28-.91-.95S20.24,24.1,20.9,24.15Z"/><path class="cls-64" d="M19.07,28.7v-.85l.9-.06.14.09a.77.77,0,0,1,.05.95.64.64,0,0,1-.92.15A.53.53,0,0,1,19.07,28.7Z"/><path class="cls-65" d="M20,27.79c-.11-.71.27-.93.9-.91l.06.07a.67.67,0,1,1-.94.94S20,27.82,20,27.79Z"/><path class="cls-66" d="M8.06,26.93l0,.9H7.1C7.05,27.14,7.35,26.83,8.06,26.93Z"/><path class="cls-67" d="M15.38,26.91h-.92a.64.64,0,0,1-.05-1c.31-.32.65-.23,1,0l0,.08Z"/><path class="cls-68" d="M9.86,26.9H8.94c-.06-.65.24-.95.89-.91l.08,0A.57.57,0,0,1,9.86,26.9Z"/><path class="cls-69" d="M24.56,15.92l1,0,.13.08a.55.55,0,0,1-.09.81l-.07,0C24.84,16.85,24.54,16.55,24.56,15.92Z"/><path class="cls-70" d="M15.43,18.6c.66,0,.95.3.88,1l-.88,0-.1-.06a.56.56,0,0,1,0-.85Z"/><path class="cls-71" d="M8,20.5c-.62,0-1-.24-.9-.89l0-.09A.69.69,0,0,1,8,19.34a.56.56,0,0,1,.24.22.68.68,0,0,1-.18.89Z"/><path class="cls-55" d="M46.71,15.88c-.38,1.35.58,2,1.38,2.8a7.14,7.14,0,0,1,1.4,1.4c.07.13.21.31.3.3,1.59-.12,2,1.53,3.13,2.07.27.13.17.5.21.77-.27.61-.53,1.18.2,1.74.35.27.15.72-.2,1-.62,0-1,.18-.92.91a.44.44,0,0,1-.17.25.71.71,0,0,1-.85-.06,1.12,1.12,0,0,0-.93-.62,1.26,1.26,0,0,1-1-.48c-.2-.43-.26-.83.23-1.11a1.26,1.26,0,0,1,.28-.05c.45-.09,1.06.06,1.1-.69-.66-.82-1.5-1.46-2.19-2.25-.51-.58-1.25-1-1.56-1.73-.13-.35-.54-.25-.75-.48a13.1,13.1,0,0,0-1.26-1.32,2,2,0,0,1-.22-2.75C45.5,15.46,46.18,15.21,46.71,15.88Z"/><path class="cls-72" d="M46.71,15.88H44.84a1.08,1.08,0,0,1-1.24.31c-.63-.52-.47-1.07,0-1.56a5.12,5.12,0,0,1,1.21-1c.28-.16.52-.31.52-.67a1,1,0,0,1,.41-.8l.07,0c.68,0,.92.32.87,1s.26.95.91.9v1.84Z"/><path class="cls-73" d="M67,36.85l-.07,6.64a.65.65,0,0,1-1,.06,5.3,5.3,0,0,1-.36-2.46,3.32,3.32,0,0,0,0-1.09c0-.84,0-1.69,0-2.53a1.15,1.15,0,0,1,.29-.92.74.74,0,0,1,1,.11Z"/><path class="cls-74" d="M63.23,27.85l0,.88a.65.65,0,0,1-.65.42,30.08,30.08,0,0,1-4.65,0,.71.71,0,0,1-.32-.17,1.17,1.17,0,0,1-.25-1c.25-.49.74-.49,1.18-.56a1.35,1.35,0,0,0,1-.45c.24,0,.64,0,.7.1.59,1.27,1.73.64,2.63.81A2.29,2.29,0,0,0,63.23,27.85Z"/><path class="cls-75" d="M54,18.61c-.1-.88.51-.9,1.12-.92l3.63.06,0,.86a.41.41,0,0,1-.13.23,3.49,3.49,0,0,1-1.57.26c-.37,0-.8-.07-1,.37a.45.45,0,0,1-.22.13L55,19.55C54.74,19.15,54.11,19.16,54,18.61Z"/><path class="cls-76" d="M53.13,26c0-.36,0-.72-.46-.89-.67-.24-.47-.83-.44-1.32s.52-.48.9-.53c.67-.07,1,.23.93.91A1.23,1.23,0,0,1,54,26Z"/><path class="cls-77" d="M66.88,36.66l-.86,0c-.6-.28-.38-.84-.44-1.3,0-1-.28-2.06.31-3a.66.66,0,0,1,1,.06l.06,3.52Z"/><path class="cls-78" d="M61.36,21.42l-1.78-.05a.65.65,0,0,1-.11-1,3.47,3.47,0,0,1,2.89-.13.92.92,0,0,1,.2,1,.66.66,0,0,1-.21.29A.77.77,0,0,1,61.36,21.42Z"/><path class="cls-62" d="M55.84,27.86l0,.85-.07.16c-.25.3-.6.25-.94.25a1.25,1.25,0,0,1-1-.3.68.68,0,0,1,.12-1Z"/><path class="cls-79" d="M66,21.41c-.08,1.41-1.17.75-1.87.9a.7.7,0,0,1-.22-.87.54.54,0,0,1,.21-.24,1.55,1.55,0,0,1,.92-.17,1.06,1.06,0,0,1,.89.23Z"/><path class="cls-80" d="M57.73,27.82v-.9l1.8,0c.08.68-.24.94-.89.9C58.34,27.81,58,27.82,57.73,27.82Z"/><path class="cls-81" d="M64.16,21.41l0,.9-1.8,0a.54.54,0,0,1-.06-.86l0,0a1,1,0,0,1,.93-.35C63.62,21,64,21,64.16,21.41Z"/><path class="cls-82" d="M59.54,20.49c0,.29,0,.59,0,.88-.3,0-.6,0-.89,0-.65.05-1-.21-1-.9l.07-.14a1,1,0,0,1,.86-.25,1,1,0,0,1,.87.24Z"/><path class="cls-83" d="M57.68,20.5c-.32,0-.65,0-1,0-.61,0-.88-.28-.83-.88v-.08a1.57,1.57,0,0,1,1.94-.12.75.75,0,0,1-.07,1.05Z"/><path class="cls-84" d="M54,18.61c.65,0,1,.3.91.94-.3,0-.6,0-.91,0-.64,0-1-.26-.94-.91Z"/><path class="cls-85" d="M54,26c0-.61,0-1.23.05-1.84.82-.05.92.45.91,1.11S54.57,26,54,26Z"/><path class="cls-86" d="M54,27.85v.85l-.07.16a.64.64,0,0,1-.93.08.79.79,0,0,1-.15-.93.54.54,0,0,1,.25-.22Z"/><path class="cls-87" d="M52.21,26.87c.64,0,1,.22.92.92l0,.09a.69.69,0,0,1-.88.17.49.49,0,0,1-.23-.22.66.66,0,0,1,.18-.88Z"/><path class="cls-88" d="M67.82,19.53c.08.66-.2,1-.88,1l-.14-.06a.69.69,0,0,1-.1-.89.64.64,0,0,1,.24-.22A.7.7,0,0,1,67.82,19.53Z"/><path class="cls-89" d="M66.94,20.5c0,.64-.28,1-.93.91l-.05,0a.68.68,0,0,1-.18-.88.58.58,0,0,1,.22-.22.68.68,0,0,1,.89.18Z"/><path class="cls-90" d="M62.28,21.42l.06.86c-.69.12-1-.18-1-.86Z"/><path class="cls-91" d="M67.82,19.53l-.91,0a.53.53,0,0,1,0-.87l.92,0Z"/><path class="cls-92" d="M29.2,67.39c-.54.09-.57.48-.55.91-1.26,0-1.26,0-1.3-1.27,0-1.69,0-3.39,0-5.08,0-.67.2-1.06.93-1a1.44,1.44,0,0,1,.44,1.24c0,1,0,2,0,2.93a1.34,1.34,0,0,0,.63,1.31A.69.69,0,0,1,29.2,67.39Z"/><path class="cls-93" d="M25.51,15.88V15a3.86,3.86,0,0,0,1.83-2,2.83,2.83,0,0,1,1.6-.23c.37,0,.69-.06.68-.51s.24-1.11-.3-1.5c-.19-.15-.43-.21-.49-.48,0-1.12.23-1.25,1.83-1.17.48.08.95,0,1.46.06-.08-.24-.19-.39-.17-.58s0-.6,0-.9h1.28c-.14.34-.26.69.18.92,0,.84.52,1.59.39,2.48a2.21,2.21,0,0,1-.55,1.57,1.66,1.66,0,0,0-.38,1.29,1.13,1.13,0,0,1,.42,1c0,2.52.05,5,0,7.58a1.82,1.82,0,0,1-.18.71.66.66,0,0,1-.21.29.89.89,0,0,1-1,0,1.26,1.26,0,0,1-.31-.89c-.09-1.42-.24-1.59-1.48-1.63-.62.13-.64.76-.91,1.16a1,1,0,0,1-1.09.6,2.44,2.44,0,0,1-1.68-.18c-.61-.94-.46-1.32.63-1.55.29-.07.62-.05.72-.43-.15-1,.75-1.51,1.26-2.17.37-.48.75-.92.49-1.54s-.84-.51-1.34-.55c-.29,0-.58,0-.87,0s-.63,0-.94,0a1,1,0,0,1-.86-.38Z"/><path class="cls-94" d="M34.69,15.5l.05-1.07a.7.7,0,0,1,1-.15A.9.9,0,0,1,36,15a24.39,24.39,0,0,1,.1,3.2q0,5.4,0,10.8a3,3,0,0,1-.34,1.77.82.82,0,0,1-1.07,0,1.77,1.77,0,0,1-.4-1.36c0-1.25,0-2.5,0-3.75-.06-2.9,0-5.79,0-8.69A1.7,1.7,0,0,1,34.69,15.5Z"/><path class="cls-95" d="M34.69,15.5V25.63a.67.67,0,0,1-.81.28c-.45,0-.69-.55-1.18-.44a1.38,1.38,0,0,1-.85-.28c-.42-.92-.38-1.09.43-1.5a2.67,2.67,0,0,0,.57-.43l0,0a1.51,1.51,0,0,0,.44-1.33c0-1.73,0-3.46,0-5.19,0-.43-.1-.95.45-1.19Z"/><path class="cls-96" d="M33.8,15.51c0,2.26,0,4.53,0,6.79,0,.63-.19,1-.9.92,0-3.12,0-6.24,0-9.36C34.05,13.93,33.73,14.83,33.8,15.51Z"/><path class="cls-97" d="M36.59,7.61h.87a.88.88,0,0,1,.41.67c0,1,.3,2.1-.26,3.09-.59.35-.89-.08-1.18-.45a1.08,1.08,0,0,1,.1-1.52Z"/><path class="cls-98" d="M36.53,9.4c.11.71-.11,1.59.91,1.86a.62.62,0,0,1,.23.87.71.71,0,0,1-.93.36c-.67-.16-.75-1-1.36-1.21a.72.72,0,0,1,.24-.93C35.58,9.7,35.87,9.37,36.53,9.4Z"/><path class="cls-99" d="M35.6,14.38l-.86,0V12.22a.71.71,0,0,1,1-.17c.34.28.25.67.27,1S36.2,14.1,35.6,14.38Z"/><path class="cls-100" d="M35.61,12.18l-.87,0c0-.33,0-.65,0-1,0-.64.26-.93.9-.89,0,.31,0,.63,0,1C35.92,11.61,36,11.91,35.61,12.18Z"/><path class="cls-101" d="M43,8.51h.91c.36,0,.8,0,.87.45s.27,1.08-.36,1.36c-.47.21-.49.56-.46,1l-.05.12c-.6.63-.59,1,.05,1.46a.62.62,0,0,1,.18.18c.25.56.13,1.2-.47,1.16A2,2,0,0,0,42,15c-.52,0-.78-.46-1.19-.65a3.86,3.86,0,0,1-1-3.89A1.06,1.06,0,0,1,41.17,10c.8.27,1.16-.09,1.35-.76A1.58,1.58,0,0,1,43,8.51Z"/><path class="cls-102" d="M45.74,12.2v.91a1.2,1.2,0,0,1-1.82,0l0,0a1.22,1.22,0,0,1,0-1.84l0,0c.34,0,.71-.05.84.37S45.33,12.19,45.74,12.2Z"/><path class="cls-103" d="M47.63,7.6l-.05.89-.91,0c0-.3,0-.61,0-.91l.06-.06a.53.53,0,0,1,.84,0Z"/><path class="cls-104" d="M27.34,13.13c0,1.82,0,1.82-1.83,1.82,0-.57-.2-.89-.84-.91-.79,0-1.73.28-2.16-.81-.05-.11-.45-.07-.69-.11l-1.1,0a.86.86,0,0,1,1-.89c.34,0,.67,0,1,0a1.43,1.43,0,0,0,1.23.45c.76,0,1.52,0,2.28,0a1.3,1.3,0,0,1,1,.32Z"/><path class="cls-18" d="M31,9.42c-.31,0-.62,0-.92,0-.66,0-1,.25-.88.93a2.29,2.29,0,0,1,0,2.74l-1.84,0h0a.66.66,0,0,1,0-1c0-.17,0-.34.05-.51.66,0,.88-.31.9-1,.08-2.24.1-2.24,2.38-2.17H31A.54.54,0,0,1,31,9.42Z"/><path class="cls-105" d="M27.32,12.17c0,.32,0,.64,0,1l-3.45,0c-.62,0-1.08-.2-1.12-.91Z"/><path class="cls-31" d="M31,9.42c0-.29,0-.59,0-.88l.94,0c.63,0,1.05.2.85.91-.12.44-.24,1.14-.86.29C31.72,9.39,31.35,9.45,31,9.42Z"/><path class="cls-106" d="M48.54,13.14c0,.67-.29,1-.95.89C47.53,13.34,47.85,13,48.54,13.14Z"/><path class="cls-107" d="M66.88,18.68l0,.87h0c-.32.29-.61.62-.94.9h0a.87.87,0,0,1-.72.38,1.37,1.37,0,0,0-1.13.52l0,0-.91-.05c-.36-.24-.6-.63-1-.85l-2.73,0,0,0a3.08,3.08,0,0,0-1.06-.76.55.55,0,0,1-.13-.25.62.62,0,0,1,.28-.78.85.85,0,0,0,.17-.06Z"/><path class="cls-108" d="M18.14,9.46l-.9-.05c-.33-.27-.62-.6-.93-.89h0c-.07-.71.26-1,.95-.93.3,0,.6,0,.9,0h0c.33.28.6.63,1,.88h1.82l.89,0c0,.43,0,.83-.54.91Z"/><path class="cls-109" d="M52.21,9.49a6.7,6.7,0,0,1,.89,0c.67,0,1-.23,1-.92l.9,0c.23.39.87.36.94.91s-.31.93-.94.92-1.27,0-1.9,0S52.15,10.11,52.21,9.49Z"/><path class="cls-110" d="M40.24,10.35c0,.57,0,1.14,0,1.72s0,.89.57,1.11.32.66.36,1a2.11,2.11,0,0,1,.44,1.47c0,.85,0,1.69,0,2.54,0,.47.12.84.69.85,1,.27,1.09.36.95,1.32-.47.71-1.11,1.27-1.62,2a4,4,0,0,0-.81,2.17c-.17,1.8-.1,3.61-.17,5.41,0,.41-.06.84-.53,1a.79.79,0,0,1-1-.31,4.55,4.55,0,0,1-.23-1.9c0-5.22,0-10.45,0-15.67,0-.64.06-1.32-.68-1.66-.24-1.09-.59-2.2.23-3.22.39.1.81.17.89.66s.47.64.93.63l.13.08C40.6,9.84,40.49,10.1,40.24,10.35Z"/><path class="cls-111" d="M38.4,8.15v3.1a3,3,0,0,1,.28,2.7c-.13.58-1.24.76-2.19.45-.45-.32-.31-.8-.32-1.23s0-.77.4-.95c.68,0,1-.29.86-1,0-1.22,0-2.44,0-3.65C37.88,7.6,38.31,7.59,38.4,8.15Z"/><path class="cls-112" d="M40.25,8.53l.91,0a.63.63,0,0,1,1,0,.72.72,0,0,1,.2.75.8.8,0,0,1-.84.55,1.32,1.32,0,0,1-1.24-.39h0Z"/><path class="cls-3" d="M40.24,9.43c.3,0,.6,0,.9,0S42,9.53,42,9s-.5-.44-.84-.51V7.6c.48,0,.92,0,1.14.56.12.3.42.33.7.35,0,.51.14,1.07-.17,1.51a5.41,5.41,0,0,1-.92.86c-.61.53-.6-.36-.95-.42l-.71-.11Z"/><path class="cls-113" d="M55.9,9.46c-.6,0-1-.19-.94-.91l.88-.07a8.76,8.76,0,0,0,.95-.88h0c.71-.09,1,.26.94.94l0,.88Z"/><path class="cls-114" d="M47.55,7.59l-.84,0c-.09-.68.19-1,.87-.87Z"/><path class="cls-115" d="M19.1,8.49c-.68.1-1-.19-1-.88h.92Z"/><path class="cls-116" d="M56.79,7.6c.06.69-.24,1-.95.88,0-.29,0-.57,0-.86Z"/><path class="cls-117" d="M16.31,8.52c.66-.07,1,.21.93.89h-.91Z"/><path class="cls-118" d="M6.22,46.22,6.16,33.91l0-4.21a.67.67,0,0,1,1-.14c.57.9.29,1.91.32,2.87.07,4.16,0,8.32,0,12.47a2.59,2.59,0,0,1-.18,1.17.79.79,0,0,1-.2.3A.65.65,0,0,1,6.22,46.22Z"/><path class="cls-119" d="M7.13,29.7H6.21c-.07-.65.2-1,.88-.94.3,0,.6,0,.91,0a1.3,1.3,0,0,1,.79-.39,26.2,26.2,0,0,1,3.07,0,1.26,1.26,0,0,1,.79.4l3.68.06a.73.73,0,0,1,.09,1,1.63,1.63,0,0,1-1.21.29c-2.25,0-4.49,0-6.74,0A1.54,1.54,0,0,1,7.13,29.7Z"/><path class="cls-120" d="M12.65,28.74H8c0-.3,0-.61,0-.91l4.59,0Z"/><path class="cls-121" d="M28.27,15.88h.36c1.44,0,1.81.45,1.41,1.82a4,4,0,0,1-1.27,1.81,1.14,1.14,0,0,0-.5,1c-.79.61-1.32.56-1.83-.16v-.76a.59.59,0,0,1,0-.92h0c.05,0,.08-.1.13-.12a1.85,1.85,0,0,0,1.32-2.06C27.86,16.21,28.1,16.05,28.27,15.88Z"/><path class="cls-122" d="M26.44,20.31a5.15,5.15,0,0,0,1.83.16c.08.73-.3,1-1,.93s-.94.27-.88.91l-.05.13c-.49.21-.34,1-1,1.07a.56.56,0,0,1-.78-.3A3.12,3.12,0,0,1,26.44,20.31Z"/><path class="cls-123" d="M28.27,15.88v1c0,1.81,0,1.84-1.84,1.76V17.7a1.17,1.17,0,0,0,.46-.95,1.08,1.08,0,0,1,.44-.86Z"/><path class="cls-124" d="M24.6,23.21l.91,0a.5.5,0,0,1,.12.81l-.14.08c-.9,0-1.81,0-2.72,0-.65,0-1-.18-.91-.87Z"/><path class="cls-125" d="M27.34,15.89c0,.32,0,.65,0,1,0,.66-.26.93-.91.83,0-.3,0-.59,0-.89a.6.6,0,0,1,0-.92Z"/><path class="cls-126" d="M26.44,15.89l0,.92-.87,0c0-.3,0-.6,0-.9Z"/><path class="cls-127" d="M26.44,18.63v.92c-.34,0-.83.14-.86-.42S26.07,18.68,26.44,18.63Z"/><path class="cls-108" d="M15.35,18.67l0,.85-2.67.06a1.32,1.32,0,0,1-.95.43,1.23,1.23,0,0,0-.93.44H9c-.36-.25-.62-.61-1-.88l0,0a.55.55,0,0,1,0-.88Z"/><path class="cls-23" d="M8,18.67v.88l-.92,0C7,18.81,7.37,18.56,8,18.67Z"/><path class="cls-88" d="M25,25.08c0,.67.71,1.14.53,1.87a.65.65,0,0,1-.79.23.58.58,0,0,1-.25-.12,2.09,2.09,0,0,0-.73-.95l0-.13C23.59,25,24.31,25.06,25,25.08Z"/><path class="cls-128" d="M21.8,26.9c0-.7.28-1,1-.91.3,0,.61,0,.91,0v0a.69.69,0,0,1,.23.87.72.72,0,0,1-.21.25,1.83,1.83,0,0,1-1.69,0A.49.49,0,0,1,21.8,26.9Z"/><path class="cls-129" d="M20.89,27.82l.05-.87.86-.05.08,0a.72.72,0,0,1,0,1A.65.65,0,0,1,20.89,27.82Z"/><path class="cls-130" d="M15.38,26c-.64,0-1,.26-.92.94l-.91,0V26c-.11-.72.29-.92.91-.89S15.47,25.24,15.38,26Z"/><path class="cls-131" d="M13.57,27c.07.71-.28,1-1,.88C12.55,27.11,12.87,26.82,13.57,27Z"/><path class="cls-132" d="M9.86,26.9c0-.3,0-.59.05-.88h.91C10.86,26.71,10.54,27,9.86,26.9Z"/><path class="cls-133" d="M16.3,29.66l0-.86.89-.06.94,0a.77.77,0,0,1,.14,1c-.29.34-.68.24-1.05.25S16.49,30.1,16.3,29.66Z"/><path class="cls-134" d="M10.78,20.45c0-.64.26-.93.9-.89.33,0,.65,0,1,0,0,.29,0,.58-.05.87Z"/><path class="cls-135" d="M8,19.57c.69-.11,1,.18,1,.88H8.06C8.05,20.16,8,19.86,8,19.57Z"/><path class="cls-136" d="M18.12,29.64l0-.87.91-.07v.1a.64.64,0,0,1,.05,1C18.74,30,18.39,30.06,18.12,29.64Z"/><path class="cls-137" d="M20.89,27.82l.92,0a1.28,1.28,0,0,1,1-.47,1.11,1.11,0,0,0,.88-.42l.05-.07a.58.58,0,0,1,.89,0h0a1.51,1.51,0,0,1,.28,1.79c-.2.57-.8.44-1.28.49a5.06,5.06,0,0,1-.55,0c-.29,0-.6,0-.77.34-.32.62-.84.59-1.4.41-.16-.51-.74-.71-.89-1.21l0-.86Z"/><path class="cls-138" d="M20,28.75c.63,0,1,.2.92.91-.15.41-.49.39-.83.38s-.66.05-.92-.22l-.08-.14V28.8Z"/><path class="cls-110" d="M43.53,15.86l1.31,0c-.31,1.32.52,2.09,1.44,2.75.39.27.34.59.39.93a2.3,2.3,0,0,1-.17,3,3.57,3.57,0,0,0-.64.86.91.91,0,0,1-1,.08,15.87,15.87,0,0,0-2.07-1.12,1,1,0,0,1,.26-1.49,1.24,1.24,0,0,0,.37-.5.47.47,0,0,1,.24-.26c1-.4.94-.43.2-1.14s-1.66-1.28-1.24-2.52a1.42,1.42,0,0,1,.15-.57A.47.47,0,0,1,43.53,15.86Z"/><path class="cls-139" d="M45.75,23.2c0-.23,0-.59.13-.68,1.15-.77.71-1.93.79-3,.42,0,.82,0,1,.57s.69.74,1,1c.85.68,1.37,1.69,2.36,2.2.34.17.22.53.24.82-.31.48-.93.49-1.29.9h-.16a1.28,1.28,0,0,1-.75-.84.68.68,0,0,0-.88-.55,9.86,9.86,0,0,1-1.63,0C46.22,23.63,45.87,23.61,45.75,23.2Z"/><path class="cls-140" d="M48.47,23.27c.58-.09.94.1,1,.73a7,7,0,0,0,.31,1.05c-.42.18-.39.56-.39.92l-.07.15a.65.65,0,0,1-.86.06c-.23-.52-.89-.59-1.15-1.09a1.11,1.11,0,0,1,0-.86C47.46,23.61,48.22,23.75,48.47,23.27Z"/><path class="cls-128" d="M49.42,26a6.91,6.91,0,0,0,.91,0c.69-.07,1,.2,1,.91l-.08.14a1.64,1.64,0,0,1-1.74.1.54.54,0,0,1-.25-.22.7.7,0,0,1,.2-.92Z"/><path class="cls-140" d="M50,25.05c.09-.79.64-.91,1.29-.9C51.38,25.25,50.63,25.08,50,25.05Z"/><path class="cls-141" d="M52.17,27l0,.88a.64.64,0,0,1-1,.14.72.72,0,0,1,0-1l.08-.05Z"/><path class="cls-142" d="M66,47.12H59.19a1.72,1.72,0,0,0-1.4-.44,3.78,3.78,0,0,1-2-.3.9.9,0,0,1-.17-.3c-.14-1,.07-1.28,1-1.26a8.74,8.74,0,0,1,3,.25,1.29,1.29,0,0,0,1.34.7c1.24,0,2.49,0,3.73,0a2.12,2.12,0,0,1,1.46.37A.66.66,0,0,1,66,47.12Z"/><path class="cls-143" d="M66,47.12v-.89c-.72-.8-.39-1.69-.21-2.57a.46.46,0,0,1,.26-.19l.85,0c0,.92,0,1.84,0,2.75C67,47,66.7,47.27,66,47.12Z"/><path class="cls-144" d="M55.86,46.25c.79,0,1.58,0,2.37,0,.63,0,1,.2,1,.89l-.74.06-2.57-.06C55.59,46.84,55.53,46.55,55.86,46.25Z"/><path class="cls-145" d="M55.89,28.71l1.81,0,5.55,0,2.73.05a.67.67,0,0,1,.18.94.61.61,0,0,1-.29.21,2.45,2.45,0,0,1-1.07.19c-2.56,0-5.13,0-7.69,0a2,2,0,0,1-1.31-.33.67.67,0,0,1,.05-1Z"/><path class="cls-146" d="M66.88,32.42l-.84.06a.48.48,0,0,1-.26-.18,2.78,2.78,0,0,1-.16-1.73.86.86,0,0,1,.37-.86v-.08a.6.6,0,0,1,.91.07Z"/><path class="cls-147" d="M66.9,29.7,66,29.63c0-.29,0-.57,0-.85C66.7,28.67,67,29,66.9,29.7Z"/><path class="cls-148" d="M43.53,15.86l-.56.19a.67.67,0,0,1-1.1-.07.82.82,0,0,1,.2-1.21,5.64,5.64,0,0,1,0-.82c.13-.78.35-.85,1-.35s.76,0,.85-.5h1.82c0,.52-.17.78-.68,1A2.19,2.19,0,0,0,43.53,15.86Z"/><path class="cls-149" d="M66,40c0,1.16.05,2.32.07,3.48l-.09,0a.49.49,0,0,1-.53.17c-1.09-.81-1.7-.71-2.52.4a2,2,0,0,1-2.31.7c-.38-.14-.47-.44-.57-.77a1,1,0,0,0-1-.87c-.59,0-.76.43-.84.91s-.41.72-1,.77a2.55,2.55,0,0,1-2.44-1c-.6-.78-.82-.79-1.39,0A3.44,3.44,0,0,1,50.41,45c-.39,0-.64-.33-1-.4a.55.55,0,0,1-.2-.17c-.06-.61-.77-.64-1-1.12a.84.84,0,0,1,.13-.87,1.08,1.08,0,0,0,.58-1c0-.64,0-1.28,0-1.91.08-.89.3-1,1.25-.91.57.25,1,.84,1.67.86s1,.8,1.55,1.21.74.39,1.09,0c.15-.16.38-.26.48-.43.58-1,1.58-.64,2.43-.75.43-.06.6.34.66.73s.34.93.94.93a.91.91,0,0,0,1-.91c.07-.48.29-.82.81-.83s1.31-.25,1.78.37a4,4,0,0,0,.65.76c.79.62.91.6,1.42-.27C65,39.72,65.43,39.52,66,40Z"/><path class="cls-150" d="M66,40c-.48.1-.82.28-.9.86a1,1,0,0,1-1.57.66,3.51,3.51,0,0,1-1.11-1.16c-.33-.65-.81-.56-1.32-.52s-.59.52-.59,1c0,.64-.31.88-.91.86a6.91,6.91,0,0,0-.91,0c-.66,0-1-.26-.94-.92,0-.33,0-.73-.39-.85s-1-.23-1.3.14a7,7,0,0,0-1.1,1.2,1.1,1.1,0,0,1-1.76,0,11,11,0,0,0-1.34-1.46c-.13-.21-.28-.46-.11-.66.59-.71.84-1.6,1.39-2.33a2.44,2.44,0,0,1,1.51-.11,1.19,1.19,0,0,1,.74,1,1.32,1.32,0,0,0,.7.91c.54.28,1,.17,1.16-.41a3.28,3.28,0,0,1,1.34-1.51,3.79,3.79,0,0,1,1.77.11.85.85,0,0,1,.26.11,1.07,1.07,0,0,1,.15.22c.54,1.39.56,1.41,1.62.41.49-.47.9-.93,1.71-.76.41.09.6-.29.57-.7s.05-.65.38-.84a.73.73,0,0,1,1,.18c0,.44,0,.87,0,1.31Z"/><path class="cls-151" d="M58.65,18.67l0,.89c-.3.37-.62.27-.94,0l-1.82-.06c-.06-.69.3-.92.94-.89S58,18.66,58.65,18.67Z"/><path class="cls-146" d="M66,35.37h-.88c-.52-.22-.36-.7-.41-1.09A2.73,2.73,0,0,1,65,32.36a.66.66,0,0,1,1,0l.1.09C66,33.44,66,34.41,66,35.37Z"/><path class="cls-152" d="M62.27,20.51c.67-.11,1,.14,1,.85l-.92,0Z"/><path class="cls-153" d="M55.85,28.79v.86l-.09.16a.65.65,0,0,1-1,0,.71.71,0,0,1,.14-1Z"/><path class="cls-154" d="M54.94,28.78l0,.87c-.28.4-.62.37-1,.14a.63.63,0,0,1,.05-1,.17.17,0,0,0,0-.1Z"/><path class="cls-152" d="M64.14,21.37c-.08-.7.26-1,.94-.89a.55.55,0,0,1,0,.89Z"/><path class="cls-155" d="M65,21.37l0-.89H66l0,.9Z"/><path class="cls-123" d="M57.69,19.58l.94,0h0a.55.55,0,0,1,0,.88h-.91C57.72,20.16,57.71,19.87,57.69,19.58Z"/><path class="cls-156" d="M58.65,20.45l0-.88c.68-.09,1,.22.94.89Z"/><path class="cls-157" d="M54,28.8v.88l-.07.14a1,1,0,0,1-.84.24c-1,.13-2,.19-2.69-.83-.32,0-.6,0-.72.36a.61.61,0,0,1-.49.45c-.8.1-1.11-.32-1.13-1.06a10.1,10.1,0,0,1,0-1.1,1.49,1.49,0,0,1,.29-1,.7.7,0,0,1,1,0,.29.29,0,0,0,0,.09,1.3,1.3,0,0,0,1,.41,1.09,1.09,0,0,1,.85.46h.93a11.5,11.5,0,0,0,1,.9Z"/><path class="cls-158" d="M53.14,28.73c-.68.09-1-.19-1-.9l.91.05Z"/><path class="cls-159" d="M66,20.46c-.08-.71.24-1,.94-.9l0,.89Z"/><path class="cls-160" d="M33.81,54.51l0-.87a1.44,1.44,0,0,0,.46-1.36c-.07-2.93,0-5.86,0-8.79a1.33,1.33,0,0,1,.33-1.1,1,1,0,0,1,1.07,0,1.58,1.58,0,0,1,.4,1.19c0,3,.07,5.94,0,8.91,0,.35,0,.69,0,1a1.8,1.8,0,0,1-.19,1,.56.56,0,0,1-.26.22C34.94,54.93,34.31,55.18,33.81,54.51Z"/><path class="cls-161" d="M30.09,60l.05-.86A8,8,0,0,1,31,58.2h0a.91.91,0,0,1,.92-.38,1.37,1.37,0,0,1,1,.25,1,1,0,0,1,.26.92c-.2.47-1.05.48-.86,1.23a1.17,1.17,0,0,1-.2.87,1,1,0,0,0-.66,1.07c0,1,0,1.94,0,2.91a3,3,0,0,1-.2,1.33.62.62,0,0,1-.22.26.89.89,0,0,1-1,0,.64.64,0,0,1-.22-.27A22.33,22.33,0,0,1,29.72,61,1.16,1.16,0,0,1,30.09,60Z"/><path class="cls-162" d="M34.73,42.58l0,10.08a.56.56,0,0,1-.88,0V43.47a1.25,1.25,0,0,1-.06-1.55.68.68,0,0,1,1-.2A.62.62,0,0,1,34.73,42.58Z"/><path class="cls-163" d="M29.13,66.48c-.63,0-.87-.25-.86-.87,0-1.55,0-3.1,0-4.65l.86,0a.46.46,0,0,1,.27.2,11.87,11.87,0,0,1,0,5.17A.53.53,0,0,1,29.13,66.48Z"/><path class="cls-164" d="M33.81,54.51h1.81a.73.73,0,0,1,.1,1.23,2.09,2.09,0,0,0-.59,1.1c-.14.75-.58.95-1.26.68a1.28,1.28,0,0,1-.53-1.11,1.25,1.25,0,0,0-.45-.95C32.78,54.73,33.14,54.48,33.81,54.51Z"/><path class="cls-165" d="M32.89,55.46c.67-.08,1,.22.9.89,0,.3,0,.6,0,.91l-.07.14a.67.67,0,0,1-.88.06.62.62,0,0,1-.2-.25.76.76,0,0,1,.21-.88Z"/><path class="cls-166" d="M32,58.2h-.9c-.09-.66.18-1,.86-1a.46.46,0,0,1,.24.17C32.35,57.73,32.19,58,32,58.2Z"/><path class="cls-167" d="M32.84,56.33l0,1c-.29.35-.59.29-.9,0l-.06-.07Q31.88,56.27,32.84,56.33Z"/><path class="cls-168" d="M33.8,52.7l.88,0c.12.68-.15,1-.85,1Z"/><path class="cls-169" d="M30.09,60l0,.94a.57.57,0,0,1-.89,0l-.08,0C29.14,60.3,29.44,60,30.09,60Z"/><path class="cls-170" d="M31,58.2c.09.68-.24,1-.89.95C30,58.46,30.33,58.14,31,58.2Z"/><path class="cls-171" d="M39.3,53.59v.95c-.41.53-1.27.41-1.58,1.09-.61,0-.66.61-1,.93-.54.08-.65.48-.65.94a1.15,1.15,0,0,1-.86,1.23,1.41,1.41,0,0,0-1.07,1.58.9.9,0,0,1-.54,1.11c-.32.13-.29.42-.3.7,0,1.12,0,2.24,0,3.36a2.11,2.11,0,0,1-.22,1,.51.51,0,0,1-.24.24A.9.9,0,0,0,32,67c-.23.36-.59.35-1,.35a.6.6,0,0,1,0-.92h0a1.41,1.41,0,0,0,.46-1.22c0-1,0-2.06,0-3.08a1.5,1.5,0,0,1,.44-1.24l0-.88c.25-.36.61-.61.87-1v-.91l0-.12a5.6,5.6,0,0,0,.89-.8h0c.5,0,.91-.07.91-.71s.06-1,.7-1.23c.32-.11.23-.52.23-.81h0a3.89,3.89,0,0,0,.83-1.1.89.89,0,0,1,.29-.12C37.63,53.15,38.52,52.88,39.3,53.59Z"/><path class="cls-172" d="M33.8,60.23a1.7,1.7,0,0,1,1.1-1.89,1.19,1.19,0,0,0,.74-1.28c0-.64.26-.91.9-.7.43.18.44.57.44.94.05,2.78,0,5.56,0,8.34,0,.81-.64,1.19-1,1.74-.77,0-1.53,0-2.3,0-.51,0-.84-.16-.83-.72l0-.23c.43-.53,1-.38,1.59-.42s.67-.18.68-.63c0-1.43,0-2.86,0-4.28,0-.42-.12-.74-.65-.61A.7.7,0,0,1,33.8,60.23Z"/><path class="cls-173" d="M36,67.38c.81-1.43.55-3,.57-4.53,0-2.16,0-4.32,0-6.49,0-.6.25-1,.9-.92.75.48.36,1.22.45,1.86.07,2.77,0,5.55,0,8.33,0,.44.08.94-.44,1.21C36.77,66.45,36.56,67.43,36,67.38Z"/><path class="cls-174" d="M37.47,66.84l0-9.58c.81-.43,1.19-.28,1.3.57a10.9,10.9,0,0,1,0,2.06c.07,1.74,0,3.48,0,5.21a1.45,1.45,0,0,0,.45,1.33.69.69,0,0,1-.17.94C38.56,67.27,37.79,67.77,37.47,66.84Z"/><path class="cls-175" d="M44.08,61a.74.74,0,0,1,.75.35c.2.38.56.38.92.39,0,1.21,0,2.42,0,3.64a1.6,1.6,0,0,1-.92,1.7.53.53,0,0,1-.33-.52,10.07,10.07,0,0,1-.13-2.19A3.33,3.33,0,0,0,43.79,62C43.46,61.61,43.57,61.19,44.08,61Z"/><path class="cls-176" d="M43,66.49l-.84,0-.17-.08a.87.87,0,0,1-.25-.47,30.08,30.08,0,0,1,0-4.65A.72.72,0,0,1,42,60.8a1.07,1.07,0,0,1,1.09,0,.57.57,0,0,1,.31.43,17.58,17.58,0,0,1-.12,5.07A.62.62,0,0,1,43,66.49Z"/><path class="cls-177" d="M39.14,67.37l0-.87a.47.47,0,0,1,.2-.24,1.93,1.93,0,0,1,.92-.16,7.69,7.69,0,0,1,1,0,.79.79,0,0,1,.83.37h.09c0,.72-.39,1-1,.94S39.78,67.38,39.14,67.37Z"/><path class="cls-178" d="M44.83,66.47V67c-.93.69-1.69.47-1.89-.55l.07,0A1.2,1.2,0,0,1,44.83,66.47Z"/><path class="cls-179" d="M31,66.47v.92H30.1c-.26-.31-.33-.6,0-.87Z"/><path class="cls-180" d="M30.14,66.51l0,.87h-.9l-.07-.91h.09a.55.55,0,0,1,.86,0Z"/><path class="cls-181" d="M30.14,25.06V23.25a1.2,1.2,0,0,1,1.82,0l.88,0c0,.42,0,.78-.48.93s-.37.55-.38.9h0C31.21,25.62,30.82,25.62,30.14,25.06Z"/><path class="cls-182" d="M30.14,20.49c1.81,0,1.81,0,1.79,1.8a1.22,1.22,0,0,1-1.83,0h0C29.56,21.56,29.57,21.18,30.14,20.49Z"/><path class="cls-183" d="M30.14,20.49l0,1.84c-.41,0-.79,0-.93.52s-.55.38-.91.38a.59.59,0,0,1,0-.91c.62-.09.74-.62.85-1.07A.82.82,0,0,1,30.14,20.49Z"/><path class="cls-184" d="M29.18,13.11c0-.91,0-1.82,0-2.74,1.39.1.77,1.18.88,1.87S29.83,13.18,29.18,13.11Z"/><path class="cls-185" d="M30.1,22.32l1.83,0,0,.93-1.82,0C30.13,22.94,30.12,22.63,30.1,22.32Z"/><path class="cls-186" d="M28.26,22.32v.91l-.89,0c-.34.25-.71.36-1,0a.63.63,0,0,1,.08-.94h1.83Z"/><path class="cls-187" d="M35.65,30.57l0-15.59a.7.7,0,0,1,1-.15A1.51,1.51,0,0,1,37,16c0,4.44,0,8.88,0,13.32a2.35,2.35,0,0,1-.19,1.08.83.83,0,0,1-.2.3C36.24,31,35.91,31,35.65,30.57Z"/><path class="cls-188" d="M33.81,25.62h.87l.07,4.94-.11.16c-.8.26-1.13.15-1.21-.53a18.53,18.53,0,0,1,0-4A.63.63,0,0,1,33.81,25.62Z"/><path class="cls-189" d="M35.65,30.57l.9,0a.65.65,0,0,1,.09,1,1.75,1.75,0,0,1-2,0,.7.7,0,0,1,0-1l.08-.05Z"/><path class="cls-190" d="M36.52,15l-.84,0-.08-.6.06-1.24a.52.52,0,0,1,.86,0l.06,1.08C36.77,14.49,36.81,14.74,36.52,15Z"/><path class="cls-191" d="M36.57,31.49l0-.9h0a2.29,2.29,0,0,1,2.75,0c.66.06.92-.24.94-.9a36.83,36.83,0,0,0,.14-4.89c-.23-1.92,1.24-2.66,1.73-4,.14-.36.56-.3.89-.32a.46.46,0,0,1,.72,0c-.08.67-.89,1.06-.72,1.83l0,.12c-.66.44-.27,1.3-.73,1.82-.82.59-.81,1,.06,1.72,0,1.6.66,3.23-.14,4.81a.81.81,0,0,0,0,.71,3.16,3.16,0,0,1-.17,2.57,3.63,3.63,0,0,0-.23,1.7,31.52,31.52,0,0,1-.18,3.63c-.05.78-.71.89-1.38.86s-1.4.14-2-.26c-.56-.82.18-1.38.39-2a1.17,1.17,0,0,1,.31-.45c-.57,0-1.06-.1-1.57-.09a1.06,1.06,0,0,1-.85-.34.83.83,0,0,1,0-1,1.06,1.06,0,0,1,.85-.36,16.38,16.38,0,0,0,1.72-.13c.24,0,.49-.14.49-.45s-.27-.38-.51-.4c-.52,0-1-.08-1.54-.1-.28,0-.56,0-.84,0s-.58,0-.86,0-.57,0-.85,0c-.51-.11-.62.52-1,.58-.91.08-.66-.73-.91-1.17-.1-2.44.24-4.89-.32-7.31-.14-.6.42-1.08.33-1.69.44-.05.85-.05.93.53,0,1.34,0,2.68,0,4,0,.64.2,1,.88,1l.06.91,0,.11c-.26.22-.58.41-.5.83s.31.51.67.49.54,0,.81,0a8.23,8.23,0,0,1,.86,0,7.66,7.66,0,0,1,.83,0c.46,0,.91-.07,1.41-.12A1.36,1.36,0,0,0,37.51,32a1.14,1.14,0,0,1-.91-.35Z"/><path class="cls-94" d="M36.52,13.14h-.86c0-.32,0-.64,0-1s0-.59,0-.88c.72-.11.9.32.92.92Z"/><path class="cls-192" d="M42.07,14.77c0,.64-.06,1.32.9,1.28v.57c-.49.4-.42,1-.44,1.52s0,1.05-.45,1.41c-.68.06-.94-.26-.93-.92,0-1.47,0-2.94,0-4.41A2.74,2.74,0,0,1,42.07,14.77Z"/><path class="cls-193" d="M43.92,11.28c0,.61,0,1.22,0,1.84-.67.05-.93-.26-.92-.93S43.25,11.22,43.92,11.28Z"/><path class="cls-194" d="M39.3,30.59H36.55l0-15.63.06-.74h.09c1.72-.23,1.72-.23,1.72-2,0-.33,0-.67,0-1,.75,0,.9.41.9,1.06Q39.29,21.45,39.3,30.59Z"/><path class="cls-148" d="M42.08,19.55c0-.64,0-1.28,0-1.92s.25-1,.9-1c-.17,1,.77,1.39,1.28,1.89s.67.94,1.26,1.23c.43.21.13.65-.33.7a14.15,14.15,0,0,1-1.46,0l-.72,0C43.05,19.8,42.73,19.5,42.08,19.55Z"/><path class="cls-195" d="M13.91,47.13H7.12a.58.58,0,0,1,0-.89h.07a3.35,3.35,0,0,1,2.65-.57,13.9,13.9,0,0,0,2.81.06c.38,0,.46-.34.6-.6.44-.37,1-.24,1.47-.27a1.88,1.88,0,0,0,1.61-.71.66.66,0,0,1,.65.05c.51.56.92,1.14.56,1.95a.76.76,0,0,1-.18.26,3.76,3.76,0,0,1-2,.28A1.77,1.77,0,0,0,13.91,47.13Z"/><path class="cls-196" d="M13.91,47.13c0-.69.33-.91,1-.89.79,0,1.58,0,2.37,0,.33.3.27.59,0,.87l0,.06Z"/><path class="cls-197" d="M7.07,46.24l0,.89c-.75.15-1.06-.14-.9-.91Z"/><path class="cls-198" d="M13.35,45.33c.08.7-.29,1-.92.9a25.24,25.24,0,0,1-3-.18,19.58,19.58,0,0,0-2.3.19q0-6.91,0-13.81a.66.66,0,0,1,1-.12,1.26,1.26,0,0,1,.3,1c0,.35,0,.69,0,1a20.73,20.73,0,0,1,0,2.73c.05,1.5.07,3,0,4.49,0,.33,0,.65,0,1,.14,2.33.14,2.33,2.45,2.33.55,0,1.1,0,1.65,0C12.86,44.92,13.22,44.91,13.35,45.33Z"/><path class="cls-199" d="M8,32.44H7.13V29.7l9.17,0,.92.05a.72.72,0,0,1,.15,1c-.29.35-.71.3-1.09.31-1.18,0-2.36,0-3.54,0a22.21,22.21,0,0,1-2.58,0c-.42,0-.83,0-1,.5a.62.62,0,0,1-.16.2,1.69,1.69,0,0,0-.89.69Z"/><path class="cls-200" d="M26.43,22.32c-.12.74.28,1,.94.95,0,.68-.32.92-.95.89-.31,0-.61,0-.91,0v-.9C25.43,22.55,25.74,22.24,26.43,22.32Z"/><path class="cls-201" d="M22.76,28.78h.09c1.71-.08,1.71-.08,1.74-1.86l.9,0,0,2.68c-.06.1-.12.25-.22.28-1.16.33-1.16,1.22-1.12,2.17,0,.76,0,1.52,0,2.28a1.27,1.27,0,0,1-.26.94c-.22.15-.52.23-.67,0-.56-.74-1.35-.59-2.09-.6s-1.41-.12-1.58-1a.47.47,0,0,0-.44-.41c-.3,0-.42.25-.45.5-.11.74-.6.92-1.24.92H16.09c-.61,0-1.05-.2-1.16-.9A.87.87,0,0,0,14,33a.94.94,0,0,0-.92.75,1.51,1.51,0,0,1-2.57.52,4.17,4.17,0,0,1,.1-2.83c.55-.54,1.23-.3,1.87-.33,1.45-.07,2.91,0,4.36-.05.52,0,1-.1,1.16-.65.28-.25.62-.18.94-.19s.6,0,.9,0c.53,0,1.06-.11,1.53.37s.78.16.89-.51C22.35,29.61,22.25,29.09,22.76,28.78Z"/><path class="cls-202" d="M32.87,34.09c.3.3.4.81.89.92s.46.84,1.06.7c.27,0,.53,0,.8,0a1.08,1.08,0,0,1,.8.19.36.36,0,0,1,.13.25V37a.41.41,0,0,1-.13.25,1,1,0,0,1-.79.19c-.27,0-.54,0-.81,0-.5,0-.68.24-.63.71a6.19,6.19,0,0,1,0,1.49c-.08.48.23.75.54,1,.11.32.3.62.17,1a.45.45,0,0,1-.21.2c-.91.22-.91.94-.9,1.66-.48-.12-.53-.53-.64-.91a13.63,13.63,0,0,1-.28-3.82Z"/><path class="cls-203" d="M23.64,35.2c0-1.25,0-2.5,0-3.75,0-1.78,0-1.78,1.8-1.82,0,.3.12.71-.21.84-.73.28-.65.87-.65,1.44,0,1.69,0,3.38,0,5.06a.4.4,0,0,1-.16.26.78.78,0,0,1-.89,0,.75.75,0,0,1-.18-.28A1.48,1.48,0,0,1,23.64,35.2Z"/><path class="cls-27" d="M25.48,38c0,1.83,0,3.65,0,5.48l-.88,0-.16-.09c-.44-.56-.2-1.25-.24-1.85-.09-1.22-.36-2.49.27-3.67A.65.65,0,0,1,25.48,38Z"/><path class="cls-204" d="M17.21,47.12l0-.87v0a1,1,0,0,1,.95-.36c.37,0,.75-.09,1,.25a.71.71,0,0,1-.16,1Z"/><path class="cls-205" d="M19.05,47.12l.05-.86c.58-.66,1.24-.52,1.92-.17a.73.73,0,0,1-.11,1.06Z"/><path class="cls-206" d="M30.14,25.06l1.82,0c.09.84-.42.92-1.08.92S30.07,25.63,30.14,25.06Z"/><path class="cls-203" d="M25.48,38h-.89l-.14-.09a.56.56,0,0,1,.13-.82l.06-.08.87.06Z"/><path class="cls-207" d="M24.61,43.5l0,.89a.67.67,0,0,1-1,.08.81.81,0,0,1-.06-1.06.73.73,0,0,1,1,0Z"/><path class="cls-208" d="M22.76,45.32c0,.3,0,.6,0,.91l-.92.06a.28.28,0,0,1,0-.09.67.67,0,0,1-.08-1A.64.64,0,0,1,22.76,45.32Z"/><path class="cls-209" d="M24.59,26.92l-.89,0,0-.88C24.38,25.89,24.69,26.19,24.59,26.92Z"/><path class="cls-210" d="M23.65,27c.1.67-.22.92-.86.89-.32,0-.65,0-1,0,0-.3.05-.6.07-.9Z"/><path class="cls-211" d="M19,30.57l-.87.05c-.34.25-.66.34-1-.05v-.86l.9-.07.95,0h0A.56.56,0,0,1,19,30.57Z"/><path class="cls-212" d="M22.76,28.78c0,.55,0,1.11,0,1.66s-.11.84-.64,1-.93.17-1.18-.38-.57-.41-.94-.43a.55.55,0,0,1,0-.88l.89-.05c.43,0,.83.05,1-.52S22.42,28.8,22.76,28.78Z"/><path class="cls-213" d="M20,29.71l0,.88-.94,0,0-.9Z"/><path class="cls-191" d="M40.23,40.53a1,1,0,0,1,.92,1.11c0,.18,0,.36,0,.55a3.56,3.56,0,0,1-1.82.36l-.14,0A1.21,1.21,0,0,0,38,42.1a2.14,2.14,0,0,1-1.38-.57c-.4-.32-.47-.6-.13-1a1.52,1.52,0,0,1,.93-.22A5.59,5.59,0,0,1,40.23,40.53Z"/><path class="cls-214" d="M51.27,46.26c-.63,0-1-.22-1-.92l.11-.15a3.63,3.63,0,0,1,3,0,1,1,0,0,1,0,1.11c-.31.44-.78.31-1.21.32A1.09,1.09,0,0,1,51.27,46.26Z"/><path class="cls-215" d="M51.27,46.26h.89a.55.55,0,0,1,0,.88l-.37,0C51.29,47.09,51.27,46.69,51.27,46.26Z"/><path class="cls-216" d="M49.43,44.4c.35,0,.77-.1,1,.37a.39.39,0,0,1,0,.52l-.1.05-.87,0C49.16,45,49.08,44.71,49.43,44.4Z"/><path class="cls-217" d="M49.43,44.4c0,.3,0,.61,0,.91h-.93c0-.31,0-.62,0-.93.31-.33.61-.25.91,0Z"/><path class="cls-218" d="M47.58,25.07c-.27,0-.54,0-.81,0-.71-.08-1.1.18-1.05.95a.66.66,0,0,1-.85.19c-.48-.67-1.33-.91-1.82-1.57a1.31,1.31,0,0,1-.36-.61c-.14-.61-.27-1.22.31-1.71h.91c.67,0,1,.25.92.92.4.52,1,.41,1.52.47s1-.16,1.26.47Z"/><path class="cls-219" d="M47.61,24.18c-.63,0-1.25-.05-1.88,0s-.94-.27-.9-.91l.92,0,2.72.07C48.6,24,48.23,24.18,47.61,24.18Z"/><path class="cls-220" d="M49.42,26.88l-.87.06a.46.46,0,0,1-.23-.16c-.19-.33,0-.56.2-.78h.91Z"/><path class="cls-221" d="M51.26,27.84c-.3,0-.6,0-.9,0-.63.05-1-.19-.92-.87a8.16,8.16,0,0,1,1.78,0Z"/><path class="cls-222" d="M52.2,47.15c0-.3,0-.59,0-.88l1.15-.05a.58.58,0,0,1,.82-.06.65.65,0,0,1-.08,1Z"/><path class="cls-223" d="M54.05,47.13l0-.88c.18-.43.55-.38.91-.38a1,1,0,0,1,.94.36v0c0,.29,0,.58,0,.88Z"/><path class="cls-224" d="M55.87,46.23l-.9,0c-.41-.58-1.28-.29-1.69-.88l-2.87,0,0-.52c1.17-.31,2.39-.48,2.86-1.92.19-.58,1.46-.37,1.71.26a2.14,2.14,0,0,0,1,1.15c.82.43,1.69.1,1.75-.66,0-.59.16-1,.87-1s1.52,0,1.84.86c.16.42.09.93.75,1a1.39,1.39,0,0,0,1.38-.65c.43-.61.86-1.36,1.87-1.19.6.09,1,.29,1,.93A1.72,1.72,0,0,1,64,45.66a14.29,14.29,0,0,1-3.92,0c-.23,0-.36-.21-.52-.36-.84,0-1.69,0-2.53-.11S55.83,45.39,55.87,46.23Z"/><path class="cls-225" d="M59.57,45.33h3.11a2.57,2.57,0,0,0,2.76-1.84h.5l0,2.74H60.49C59.86,46.24,59.49,46,59.57,45.33Z"/><path class="cls-226" d="M66,29.71l0,.86A.94.94,0,0,1,65,31c-2.77.15-5.55.06-8.32.05a1.17,1.17,0,0,1-.94-.29.71.71,0,0,1,.15-1v0l0,0Z"/><path class="cls-227" d="M65.06,30.61l.9,0c0,.61,0,1.21,0,1.82h-.83l-.15,0c-.3-.23-.25-.57-.25-.89A.88.88,0,0,1,65.06,30.61Z"/><path class="cls-52" d="M53.11,37.05A1.82,1.82,0,0,1,52.36,39c-.25.17-.36.55-.54.83-.67,0-1.51.23-1.48-.93a1.42,1.42,0,0,1-.25-1.69,2,2,0,0,0,.78-1.72.64.64,0,0,1,.39-.67,2.21,2.21,0,0,1,2.15,1.46A.77.77,0,0,1,53.11,37.05Z"/><path class="cls-228" d="M50.39,37c0,.61,0,1.22,0,1.83-.67,0-.92.32-.9,1s0,1.23,0,1.84-.27,1-.93.9l-.15-.09c-.5-.73-.24-1.57-.3-2.36a9.06,9.06,0,0,1,0-1.16,4.27,4.27,0,0,1,.15-1.81,1,1,0,0,1,.17-.27,1.46,1.46,0,0,1,.91-.2,1.41,1.41,0,0,1,.88.14A.49.49,0,0,1,50.39,37Z"/><path class="cls-229" d="M49.43,44.4l-.91,0,0,0c-.23-.22-.38-.46-.2-.78a.41.41,0,0,1,.23-.18C49.2,43.41,49.52,43.72,49.43,44.4Z"/><path class="cls-230" d="M48.51,42.56l0,.88-.05.08a.68.68,0,0,1-1,0,.69.69,0,0,1,0-1,.73.73,0,0,1,1,.11Z"/><path class="cls-231" d="M60.47,37h-2c-.63.38-1,.22-1.18-.51a2,2,0,0,0-.73-1.11.91.91,0,0,1-.34-1.19c.52-.49,1.17-.89,1.18-1.74,0-.12.11-.21.21-.29a2.76,2.76,0,0,1,3.28.74c.29.61.61.8,1.19.38a1.65,1.65,0,0,1,1.15-.21c.49.24.77.74,1.27,1a.68.68,0,0,1-.11.9c-.57.52-.38.79.27,1,.18.05.28.22.41.35,0,.56-.27.79-.79.74a1.85,1.85,0,0,0-1.86,1.23c-.34.69-.82.65-1.37.58s-.53-.63-.56-1.07c0-.25,0-.49,0-.74a2,2,0,0,1,.91-.55.35.35,0,0,0,.23-.35.23.23,0,0,0-.23-.23.34.34,0,0,0-.35.23A2,2,0,0,1,60.47,37Z"/><path class="cls-231" d="M53.11,37.05a2.22,2.22,0,0,0-1.84-2,.55.55,0,0,1-.27-.64c.68-1.28.68-1.28-.76-1.7-.38-.16-.32-.83-.89-.76a2.06,2.06,0,0,1-.78-.13.79.79,0,0,1-.23-.14,3.11,3.11,0,0,0-.72-1.07V27.85a.53.53,0,0,1,.86,0c0,.34,0,.67,0,1,0,.68.26,1,.92.84.35-.27.61-.62,1-.87.4,0,.72,0,1,.45.36.77,1.17.31,1.77.47a.86.86,0,0,1,.4.85,6.83,6.83,0,0,1,0,1.75,3.23,3.23,0,0,0,.41,1.85c.08.51.52.53.88.64.6.19.6.71.58,1.18s.15,1-.61,1.06Z"/><path class="cls-232" d="M54.76,37c.38-1.19.31-1.4-.75-2.06a1.19,1.19,0,0,1-.54-.69c.33-.63.9-.37,1.4-.4a4.35,4.35,0,0,1,1,.08.57.57,0,0,1,.54.32.25.25,0,0,0,0,.09C57,35.19,58,35.73,58,36.89c0,0,.32.1.49.15-.26.4-.68.69-.74,1.22-.07.72-.72,1.26-1.19,1.12S55.14,39,55,38.2C54.89,37.82,54.83,37.43,54.76,37Z"/><path class="cls-233" d="M65.05,36.29a7,7,0,0,0-.8.08c-.4.07-.74,0-.91-.38a.82.82,0,0,1,.3-1c.25-.2.58-.33.71-.67a.43.43,0,0,1,.69,0c0,.36,0,.72,0,1.07S65.07,36,65.05,36.29Z"/><path class="cls-234" d="M65,34.3l-.69,0c-.66,0-1.2-.08-1.12-.93-.44-.79-.25-1.22.59-1.3a1.31,1.31,0,0,1,1.25.39l0,0C65.09,33,65.07,33.67,65,34.3Z"/><path class="cls-228" d="M55.9,29.72v.85c-.18.45-.58.39-1,.39s-.76.09-1-.25a.77.77,0,0,1,.15-1h0l.94,0Z"/><path class="cls-213" d="M54,29.67l0,.89c-.31.39-.63.31-1,0,0-.3,0-.59,0-.88Z"/><path class="cls-235" d="M50.37,28.79c0,.68-.31.94-1,.87Q49.35,28.63,50.37,28.79Z"/><path class="cls-236" d="M48.48,27.82l-.86,0V27a.54.54,0,0,1,.86-.06l.08.05Z"/><path class="cls-237" d="M35.65,52.66l0-10.1.09-.15a.73.73,0,0,1,.94,0,1.05,1.05,0,0,1,.17.31.89.89,0,0,1,.09.26c.16,3.08.11,6.17,0,9.25a.72.72,0,0,1-.27.56A.74.74,0,0,1,35.65,52.66Z"/><path class="cls-238" d="M36.54,53.58c.07.68-.21,1-.91.94V53.6C35.93,53.33,36.23,53.24,36.54,53.58Z"/><path class="cls-239" d="M36.54,53.58l-.91,0,0-.94h.87c.38.3.3.61,0,.93Z"/><path class="cls-240" d="M34.69,41.81l0-.17a.65.65,0,0,1,1-.12.72.72,0,0,1-.1,1h0l-.9,0Z"/><path class="cls-241" d="M31.94,60.94c0,1.52,0,3,0,4.54,0,.66-.18,1.06-.92,1,0-1.51,0-3,0-4.54C31,61.28,31.21,60.89,31.94,60.94Z"/><path class="cls-242" d="M30.08,66.45l-.86,0V61l.89,0Z"/><path class="cls-243" d="M32.85,59.1c.09.67-.19,1-.87,1C31.87,59.38,32.17,59.07,32.85,59.1Z"/><path class="cls-244" d="M32,57.3l.9,0h0a.62.62,0,0,1,0,.94l0,0H32Z"/><path class="cls-245" d="M32.89,58.21l0-.94h.93C33.85,57.93,33.56,58.25,32.89,58.21Z"/><path class="cls-246" d="M36.54,53.59l0-.93,0-10.11a2.28,2.28,0,0,1,2.76,0h0c0,3.68,0,7.36,0,11Z"/><path class="cls-247" d="M44.83,66.47H43c0-1.84,0-3.67,0-5.51-.26-.31-.37-.65,0-1a.62.62,0,0,1,1,.07,1.65,1.65,0,0,0,.19.9c-.1.31-.2.65.17.81.58.24.59.71.58,1.21Z"/><path class="cls-248" d="M43.89,60.06c-.69-.09-.93.27-.91.9h-.89c-.51-.08-.59-.72-1.09-.82-.14-.56-.67-.69-1.06-1a2.4,2.4,0,0,1-.15-.88c0-.38-.29-.48-.51-.68-.44-.42-.56-.87.07-1.26l1,0c.52,0,.81.23.79.77,0,.72.34,1,1,1.08A2.4,2.4,0,0,1,43.89,60.06Z"/><path class="cls-249" d="M39.35,56.34c0,.44-.05.83.54,1s.32.57.33.91a1.26,1.26,0,0,0-.46.94,1.35,1.35,0,0,1-.49,1.1.65.65,0,0,1-.85-.22c0-.61-.06-1.22,0-1.83s-.24-1-.9-.94c0-.61,0-1.21-.05-1.82.06-1.45,1.16-.75,1.85-.9Z"/><path class="cls-250" d="M33.8,60.23a1,1,0,0,0,.86-.45c.12-.22.25-.46.55-.37s.4.43.41.74c0,.86,0,1.71,0,2.57s0,1.9,0,2.84c0,.67-.28,1-.94.9a1.22,1.22,0,0,1-.44-1c0-.46,0-.92,0-1.37a1.6,1.6,0,0,0-1-1.83c-.13-.05-.22-.21-.32-.32,0-.4-.06-.8.46-1S33.78,60.54,33.8,60.23Z"/><path class="cls-251" d="M32.91,61.89c1.71,0,1.8.06,1.8,1.81,0,.92,0,1.84,0,2.76H32.89C32.9,64.93,32.9,63.41,32.91,61.89Z"/><path class="cls-252" d="M38.42,60h.88l.15.09c.28.27.23.63.25,1,.12,1.44.06,2.87,0,4.31a1.2,1.2,0,0,1-.43,1.06l-.21,0c-.63,0-.74-.39-.73-.91C38.4,63.74,38.4,61.88,38.42,60Z"/><path class="cls-253" d="M41.16,60c.65,0,.94.32.93,1,0,1.84-.05,3.68-.07,5.52h-.88a1.25,1.25,0,0,1-.43-1c0-1.42-.07-2.83,0-4.25a1.86,1.86,0,0,1,.16-1A.47.47,0,0,1,41.16,60Z"/><path class="cls-254" d="M41.12,61l0,5.48h-.91a1,1,0,0,1-.4-.69,27.34,27.34,0,0,1,0-4.34,1.15,1.15,0,0,1,.24-.58A.67.67,0,0,1,41.12,61Z"/><path class="cls-255" d="M40.25,61l0,5.52h-.91V61C39.64,60.67,40,60.61,40.25,61Z"/><path class="cls-256" d="M34.73,31.53l1.84,0h0a.72.72,0,0,1,.09,1,1.25,1.25,0,0,1-1,.3,1.34,1.34,0,0,1-1-.29.66.66,0,0,1,.11-1Z"/><path class="cls-257" d="M37.46,34.29H39.3c.44,0,.92,0,.89.64s-.16,1.13-.9,1.16-1.22,0-1.83,0A1.2,1.2,0,0,1,37.46,34.29Z"/><path class="cls-258" d="M36.55,32.44l0-.94c1.36-.42,2.26.66,3.37,1a.37.37,0,0,1,.19.47.46.46,0,0,1-.5.31c-.73,0-1.46,0-2.19,0a8.16,8.16,0,0,0-.87-.79Z"/><path class="cls-259" d="M38.77,38c0,.66-.48,1.16-.54,1.79-.13.35-.42.39-.74.39a1.38,1.38,0,0,1-1-.23,1.85,1.85,0,0,1-.17-1.86.69.69,0,0,1,.2-.28,1.74,1.74,0,0,1,1-.2C38,37.61,38.5,37.39,38.77,38Z"/><path class="cls-260" d="M37.45,39.81l.78-.05a6.44,6.44,0,0,1,2,.22v.55a8.89,8.89,0,0,1-2.77.18A.59.59,0,0,1,37.45,39.81Z"/><path class="cls-261" d="M38.77,38l-1.3,0a.57.57,0,0,1,0-.9h2c.3,0,.66,0,.68.42s-.33.44-.64.46S39,38,38.77,38Z"/><path class="cls-262" d="M37.46,34.29V36.1l-.91.08a.17.17,0,0,1,0-.1,1.17,1.17,0,0,1,0-1.79Z"/><path class="cls-263" d="M36.54,34.29c0,.6,0,1.2,0,1.79h-.91a1.16,1.16,0,0,1,0-1.79Z"/><path class="cls-264" d="M35.64,34.3v1.79h-.91a1.17,1.17,0,0,1,0-1.8Z"/><path class="cls-265" d="M34.72,34.29c0,.6,0,1.2,0,1.8-.9.16-1-.44-1-1.08S34.18,34.23,34.72,34.29Z"/><path class="cls-266" d="M42.06,26.05c-.67,0-.94-.32-.93-1s.33-.92.94-.92l.15.09A1.32,1.32,0,0,1,42.07,26Z"/><path class="cls-110" d="M43,22.32l0,1.82c-.28.36-.59.3-.9.05v-.07c0-.36,0-.71,0-1.07C42.11,22.47,42.49,22.32,43,22.32Z"/><path class="cls-267" d="M34.73,32.44l.91,0a.55.55,0,0,1,0,.87h-.91a.54.54,0,0,1-.14-.81Z"/><path class="cls-268" d="M35.64,33.33v-.87l.91,0h0a.57.57,0,0,1,0,.89Z"/><path class="cls-269" d="M36.54,33.33l0-.89c.67-.07,1,.18.89.9Z"/><path class="cls-270" d="M34.72,31.53c0,.3,0,.61,0,.91h0a.57.57,0,0,1-.9,0C33.72,31.75,34,31.44,34.72,31.53Z"/><path class="cls-271" d="M33.81,32.45h.9l0,.89C34,33.44,33.69,33.2,33.81,32.45Z"/><path class="cls-272" d="M37.46,37.05c0,.3,0,.6,0,.9h-.92c-.34-.3-.28-.59,0-.89a.06.06,0,0,1,0-.09Z"/><path class="cls-273" d="M23.68,43.5v.9h0a1.21,1.21,0,0,1-.88.47c-1.27.05-2.52.12-3.23-1.3-.22-.45-.65-.43-.95,0a5.23,5.23,0,0,1-.64.77c-.36.36-.72.45-1.11,0h-.55c-.86.46-1.07.4-1.36-.49-.15-.45-.35-.8-.87-.8a1,1,0,0,0-1,.8c-.33.87-1.79,1.39-2.44.72a13.51,13.51,0,0,0-2.59-2.08v-.92a12.11,12.11,0,0,0,2.55-2c.66-.71,2.15-.2,2.49.74a.94.94,0,0,0,.92.75.82.82,0,0,0,.89-.76c.11-.8.61-1,1.29-1,.46,0,.92,0,1.38,0a.92.92,0,0,1,1,.73,1.55,1.55,0,0,0,1.21,1.23,4.83,4.83,0,0,1,1.51,1.54c.17.21.35.44.67.37s.34-.31.39-.55c.09-.44.23-.89.74-.9s.81.44,1,.93S23.88,43.28,23.68,43.5Z"/><path class="cls-274" d="M8.07,42.55a1.91,1.91,0,0,1,2.25,1.07,1.33,1.33,0,0,0,1.17.78c.65,0,1.1-.07,1.17-.9.11-1.11,1.06-.87,1.79-.94s1,.33.94,1,.34.86.92.83a1.35,1.35,0,0,1-1.42.91l-1.54,0c-1.46,0-2.91,0-4.37,0-.7,0-1-.28-1-1S8.06,43.15,8.07,42.55Z"/><path class="cls-274" d="M16.86,44.4a1.41,1.41,0,0,0,1.28-1.23.68.68,0,0,1,.78-.61c.38,0,.9-.1,1,.4.26,1.22,1.08,1.51,2.17,1.48a2.9,2.9,0,0,1,.62.14c.29.24.23.49,0,.74h-.91c-.51.59-1.21.4-1.85.44s-1.34-.14-1.85.46h-.91A4.25,4.25,0,0,0,16.86,44.4Z"/><path class="cls-275" d="M23.68,43.5v-.94c.17-.5-.13-.72-.52-.71a.71.71,0,0,1-.84-.72c-.06-.48-.28-.81-.8-.83a1,1,0,0,0-1.07.79c-.09.31-.13.7-.63.55h-.74c-.59,0-.95-.19-.92-.84,0-1.17-.81-1-1.53-1s-1.31.05-1.24,1c0,.64-.31.87-.91.85-.3,0-.61,0-.91,0-.6,0-.88-.26-.93-.87a1.07,1.07,0,0,0-1.83-.71,1.77,1.77,0,0,0-.56.6c-.42,1.05-1.27,1.07-2.18,1V37c.44-.55,1-.41,1.6-.34a1.5,1.5,0,0,1,1.44.9c.13.26.22.61.6.6s.42-.44.55-.73.13-.47.35-.61a3.91,3.91,0,0,1,2.24-.2,1.16,1.16,0,0,1,1,.82c.32.79.63.84,1.27.27a1.23,1.23,0,0,0,.25-.26c.67-1.06,1.63-1,2.65-.69.4.13.38.51.49.81a1,1,0,0,0,1,.75c.54,0,.73-.36.8-.82s.12-.67.53-.75a.72.72,0,0,1,.84.26v0c.26.35.61.62.87,1h0c0,1.82,0,3.65,0,5.47Z"/><path class="cls-276" d="M9.86,37H8.06c0-.91,0-1.82,0-2.74a2.31,2.31,0,0,0,1.48-2.4.68.68,0,0,1,.39-.58c.35-.13.67-.14.88.25v2.72a.65.65,0,0,1-.21.64,1.1,1.1,0,0,0-.24,1.23C10.28,36.49,10.26,36.86,9.86,37Z"/><path class="cls-277" d="M9.88,31.59v.82c0,2,.13,1.84-1.83,1.87v-.91a1.38,1.38,0,0,0,.53-1.13c0-.33.16-.52.38-.72v0c.21-.27.45-.4.78-.2A.34.34,0,0,1,9.88,31.59Z"/><path class="cls-224" d="M8.94,32.43c.08.67-.23,1-.89.94v-.93H8A.58.58,0,0,1,8.94,32.43Z"/><path class="cls-113" d="M17.22,30.57l1,.05c0,.69-.32.91-1,.9l-4.59,0a.54.54,0,0,1,0-.87Z"/><path class="cls-278" d="M12.64,30.62c0,.29,0,.58,0,.87l-1.82.06-.92,0v-.08a.55.55,0,0,1,0-.88Z"/><path class="cls-279" d="M8.94,32.43H8c-.07-.69.25-1,.93-.92Z"/><path class="cls-280" d="M9.89,30.63l0,.88-.9,0C8.87,30.82,9.17,30.51,9.89,30.63Z"/><path class="cls-281" d="M9.88,35.93a1.47,1.47,0,0,1,.91-1.66c.34,0,.67,0,1,0,.58,0,.87-.25.83-.82-.06-.84.39-1.08,1.12-1a4.57,4.57,0,0,0,.74,0c.6,0,.94.23.89.86s.34,1,1.06,1c.31,0,.61,0,.92,0,.53,0,.8-.26.78-.79s.12-1,.9-1.06,1,.31,1,1a.72.72,0,0,0,.84.84,3.07,3.07,0,0,1,2.79.94c0,.61,0,1.22,0,1.83h-.93c-.3,0-.35-.29-.43-.52-.31-.88-.76-1-1.46-.35-.31.27-.36.8-.87.87a2.34,2.34,0,0,0-2.77,1.42c-.25.55-.76.41-1.2.38a.61.61,0,0,1-.6-.69c.07-1-.49-1.19-1.32-1.12-.49,0-1,0-1.47,0l-.12,0a.89.89,0,0,1-.28-.45c-.16-.84-.64-.92-1.31-.57C10.57,36,10.21,36.32,9.88,35.93Z"/><path class="cls-282" d="M39.31,42.56H36.55l0,0c-.27-.33-.59-.61-.88-.92h-.93l-.2-.89a.46.46,0,0,1,.17-.24,1.5,1.5,0,0,1,.88-.16,1.16,1.16,0,0,1,.85.18.42.42,0,0,1,.14.25c.33.8,1,.87,1.74.85S39.38,41.81,39.31,42.56Z"/><path class="cls-283" d="M33.81,39.82V37.94a.68.68,0,0,1,.92-.17A.67.67,0,0,1,35,38a1.83,1.83,0,0,1-.17,1.86A.67.67,0,0,1,33.81,39.82Z"/><path class="cls-284" d="M34.72,38h-.91c-.12-.74.22-1,.92-.88C35,37.36,35.06,37.65,34.72,38Z"/><path class="cls-285" d="M34.72,38c0-.3,0-.6,0-.89h.9a.69.69,0,0,1,.1,1,.7.7,0,0,1-1-.11Z"/><path class="cls-286" d="M35.64,37.93c0-.29,0-.58,0-.87h.92V38h0C36.24,38.22,35.93,38.3,35.64,37.93Z"/><path class="cls-287" d="M33.81,39.82l.88-.06.14.08a.58.58,0,0,1-.1.86l-.21,0C33.84,40.78,33.73,40.37,33.81,39.82Z"/><path class="cls-288" d="M24.56,38c-.69.05-1-.29-.87-1l.89,0C24.57,37.36,24.57,37.66,24.56,38Z"/><path class="cls-289" d="M18.14,46.23c0-.67.29-.94.95-.92.92,0,1.83,0,2.75,0,0,.29,0,.58,0,.87l-.9.06H19.1Z"/><path class="cls-229" d="M22.75,45.32l0-.74c.28-.24.63-.16,1-.18v.91Z"/><path class="cls-290" d="M42.08,24.19l.9-.05c.69.53,1.75.7,1.87,1.82l0,.12c-.23.27-.58.42-.71.79a.43.43,0,0,1-.2.11c-.42-.07-.85-.07-1-.64s-.55-.28-.86-.35Z"/><path class="cls-291" d="M48.52,31.51h.92c.59.5.38,1.19.41,1.82a4.27,4.27,0,0,1-.17,1.91.86.86,0,0,1-1,.18.51.51,0,0,1-.24-.24l0-2.74C48.24,32.13,48.14,31.81,48.52,31.51Z"/><path class="cls-292" d="M47.61,37.05V35.22l.86,0h.09a1.28,1.28,0,0,1,0,1.84h0A.56.56,0,0,1,47.61,37.05Z"/><path class="cls-293" d="M45.73,26.89c.07.64-.18.95-.86.95s-1-.16-1-.86a.38.38,0,0,0,0-.1,1,1,0,0,1,.91-.33A.92.92,0,0,1,45.73,26.89Z"/><path class="cls-16" d="M48.52,31.51l0,.94c-.69,0-1-.3-.87-1a.56.56,0,0,1,.88,0Z"/><path class="cls-294" d="M48.5,31.53l-.88,0v-.92C48.31,30.53,48.6,30.85,48.5,31.53Z"/><path class="cls-295" d="M47.58,43.65a1.1,1.1,0,0,1,0-.18l.88.05,0,.88C48,44.43,47.58,44.28,47.58,43.65Z"/><path class="cls-296" d="M48.47,26.89l-.86.06c-.08-.69.2-1,.91-.95Z"/><path class="cls-297" d="M45.73,26.89h-.92a.56.56,0,0,1,0-.87l0-.06.87.06C45.72,26.31,45.73,26.6,45.73,26.89Z"/><path class="cls-298" d="M37.45,39.81v.9l-.9.07a.08.08,0,0,1,0-.09.55.55,0,0,1-.21-.77.41.41,0,0,1,.24-.17Z"/><path class="cls-299" d="M53.28,45.33c.67.08,1.66-.43,1.69.88l-.95,0-.71,0Z"/><path class="cls-300" d="M54.94,30.62l1-.05,9.17,0v.91a1.1,1.1,0,0,1-.88.42c-2.88,0-5.75.09-8.63,0C54.67,31.88,54.5,31.44,54.94,30.62Z"/><path class="cls-233" d="M54.94,30.62c-.06.77.4.91,1,.91,3,0,6.06,0,9.08,0v.92c-.3,0-.61,0-.91,0-.66,0-1,.24-.93.91a2,2,0,0,0-1,.63c-.31.45-.83.31-1.27.26s-.46-.48-.53-.84c-.21-1-1.06-.91-1.81-1s-1,.36-.93,1c0,1-.71.78-1.29.83h-.55a2,2,0,0,0-1-.69.58.58,0,0,1-.18-.17.85.85,0,0,0-1-.64c-.26,0-.4-.17-.56-.32V30.59l1,0Z"/><path class="cls-301" d="M51.26,34.29V35c0,.36,0,.72,0,1.07.08.7-.23,1-.92,1h-.08a2.83,2.83,0,0,1-.1-2.89A.72.72,0,0,1,51.26,34.29Z"/><path class="cls-302" d="M50.38,34.26c0,.93-.05,1.85-.07,2.78h-.89a1.28,1.28,0,0,1,0-1.85l.06-1.81a.67.67,0,0,1,1-.12A.7.7,0,0,1,50.38,34.26Z"/><path class="cls-303" d="M47.62,42.54V38.88a.54.54,0,0,1,.85,0l0,3.71Z"/><path class="cls-304" d="M48.47,38.85l-.85,0V37.05l.89,0Z"/><path class="cls-305" d="M49.4,35.18c0,.62,0,1.23,0,1.85h-.9l0-1.84Z"/><path class="cls-150" d="M60.47,37c0-.31,0-.61,0-.91,0-.66.24-.94.91-.94s.92.28.93.93-.29,1-.94.91h-.91Z"/><path class="cls-306" d="M50.38,34.26l-.05-.89c-.25-.32-.34-.64.05-.93.27,0,.55,0,.82,0,.6,0,1,.14,1,.85s-.22,1-.94,1Z"/><path class="cls-307" d="M53.12,32.46h.71c.35.34.82.52,1.12.91h0a.58.58,0,0,1,0,.91l-1.47,0C52.82,33.78,53.24,33.07,53.12,32.46Z"/><path class="cls-308" d="M50.38,32.44l-.05.93h-.87c0-.62,0-1.23,0-1.85C50.15,31.43,50.38,31.81,50.38,32.44Z"/><path class="cls-231" d="M54.94,34.27c0-.3,0-.61,0-.91.67-.06,1,.25.92.92Z"/><path class="cls-309" d="M35.65,41.65c.77-.15,1,.23.88.92h-.9Z"/><path class="cls-310" d="M39.3,60c0-.33,0-.66,0-1-.05-.67.25-.94.91-.84l0,.89a.74.74,0,0,1,.08,1,.68.68,0,0,1-1-.1Z"/><path class="cls-311" d="M40.23,60l0-.94c.65,0,1,.26.9.91l0,.09C40.81,60.34,40.51,60.39,40.23,60Z"/><path class="cls-312" d="M40.23,60l.9.06c0,.29,0,.59,0,.89l-.87,0h-.93V60Z"/><path class="cls-313" d="M35.64,37.93l.91,0,0,1.79,0,.08a1,1,0,0,1-.9.33,1,1,0,0,1-.91-.33l0-.07,0-1.8Z"/><path class="cls-314" d="M19.81,41.64a2.35,2.35,0,0,0,.15-.42c.21-1.26.4-1.4,1.69-1.43.75,0,1.17.2,1.11,1a.78.78,0,0,0,.62.88c.38.13.89.34.29.87-.15-.19-.27-.46-.57-.37s-.29.37-.33.61c-.07.47,0,1.13-.54,1.24a1.43,1.43,0,0,1-1.38-.9C20.56,42.59,20,42.27,19.81,41.64Z"/><path class="cls-315" d="M20,37a2.07,2.07,0,0,1,1.59-1.84c.91-.09,1.14.11,1.17,1,0,.27,0,.55,0,.82v.09c0,1.64-.06,1.77-1,1.74C20.41,38.82,19.84,38.39,20,37Z"/><path class="cls-316" d="M9.88,35.93l.91-.37A14.54,14.54,0,0,0,12.63,37h0v.9c0,.51-.09.92-.72.93s-1.07.05-1.14-.7A1.38,1.38,0,0,0,9.86,37C9.87,36.66,9.87,36.3,9.88,35.93Z"/><path class="cls-275" d="M15.41,36c-.06-.59.26-.79.87-.83.89-.06,1,.52,1,1.16S17,37,16.57,37C16,37,15.38,36.89,15.41,36Z"/><path class="cls-275" d="M12.63,37C11,37,11,37,10.79,35.56c.4-.55,1-.42,1.48-.27s.33.65.35,1S12.63,36.8,12.63,37Z"/><path class="cls-317" d="M35.64,39.83h.9v.86h-.91A.53.53,0,0,1,35.64,39.83Z"/><path class="cls-318" d="M35.64,39.83v.86h-.91v-.87Z"/><path class="cls-319" d="M44.81,26v.87h-.89C43.85,26.21,44.11,25.89,44.81,26Z"/><path class="cls-231" d="M55,33.36c-.66,0-1.07-.21-1.12-.91C54.51,32.38,55,32.49,55,33.36Z"/></g></g></svg>