<svg xmlns="http://www.w3.org/2000/svg" viewBox="0 0 74 74"><defs><style>.cls-1{fill:#1e2223;}.cls-2{fill:#94979a;}.cls-3{fill:#38413f;}.cls-4{fill:#888b8a;}.cls-5{fill:#414a47;}.cls-6{fill:#2e3c40;}.cls-7{fill:#797b75;}.cls-8{fill:#545c55;}.cls-9{fill:#364047;}.cls-10{fill:#4f575d;}.cls-11{fill:#6b7277;}.cls-12{fill:#3d454c;}.cls-13{fill:#a2a889;}.cls-14{fill:#747b69;}.cls-15{fill:#5a6256;}.cls-16{fill:#13232d;}.cls-17{fill:#212f33;}.cls-18{fill:#25292c;}.cls-19{fill:#85888a;}.cls-20{fill:#787c7d;}.cls-21{fill:#6e7071;}.cls-22{fill:#94989a;}.cls-23{fill:#7d8082;}.cls-24{fill:#a2a6a9;}.cls-25{fill:#5c5e60;}.cls-26{fill:#3e473e;}.cls-27{fill:#354142;}.cls-28{fill:#beb583;}.cls-29{fill:#babe99;}.cls-30{fill:#c1bd90;}.cls-31{fill:#80836f;}.cls-32{fill:#666755;}.cls-33{fill:#808385;}.cls-34{fill:#243033;}.cls-35{fill:#bfb98e;}.cls-36{fill:#505344;}.cls-37{fill:#8a765c;}.cls-38{fill:#818771;}.cls-39{fill:#878c75;}.cls-40{fill:#666d68;}.cls-41{fill:#a19d76;}.cls-42{fill:#3e453e;}.cls-43{fill:#786642;}.cls-44{fill:#634330;}.cls-45{fill:#6b6f70;}.cls-46{fill:#9ca183;}.cls-47{fill:#3c4643;}.cls-48{fill:#434c47;}.cls-49{fill:#505850;}.cls-50{fill:#adb18f;}.cls-51{fill:#3c4743;}.cls-52{fill:#5a6356;}.cls-53{fill:#b5a27f;}.cls-54{fill:#353f46;}.cls-55{fill:#969c81;}.cls-56{fill:#2b3740;}.cls-57{fill:#3b454c;}.cls-58{fill:#697075;}.cls-59{fill:#47524b;}.cls-60{fill:#5f6252;}.cls-61{fill:#858c75;}.cls-62{fill:#303c3b;}.cls-63{fill:#747d6a;}.cls-64{fill:#444e47;}.cls-65{fill:#aa8863;}.cls-66{fill:#636b5f;}.cls-67{fill:#8a855e;}.cls-68{fill:#989e81;}.cls-69{fill:#7f7d79;}.cls-70{fill:#838586;}.cls-71{fill:#6c6c69;}.cls-72{fill:#daba80;}.cls-73{fill:#9c8f63;}.cls-74{fill:#8d8e73;}.cls-75{fill:#d5ccc6;}.cls-76{fill:#b1b5b5;}.cls-77{fill:#68625b;}.cls-78{fill:#a1a586;}.cls-79{fill:#b4afa9;}.cls-80{fill:#d5d6a8;}.cls-81{fill:#1d2628;}.cls-82{fill:#a2a6a7;}.cls-83{fill:#1d2f39;}.cls-84{fill:#757d80;}.cls-85{fill:#697376;}.cls-86{fill:#929697;}.cls-87{fill:#9b9fa0;}.cls-88{fill:#a6abad;}.cls-89{fill:#b4b8ba;}.cls-90{fill:#caced0;}.cls-91{fill:#415049;}.cls-92{fill:#1d2123;}.cls-93{fill:#383e41;}.cls-94{fill:#1f333c;}.cls-95{fill:#6d6f70;}.cls-96{fill:#afb3b5;}.cls-97{fill:#565a5c;}.cls-98{fill:#5e6569;}.cls-99{fill:#a0a5a7;}.cls-100{fill:#a6a8ab;}.cls-101{fill:#aeb1b2;}.cls-102{fill:#b7b9bb;}.cls-103{fill:#888b8d;}.cls-104{fill:#999c9d;}.cls-105{fill:#5e6062;}.cls-106{fill:#535557;}.cls-107{fill:#545658;}.cls-108{fill:#dadcde;}.cls-109{fill:#a5aaac;}.cls-110{fill:#524434;}.cls-111{fill:#7c8479;}.cls-112{fill:#696552;}.cls-113{fill:#d5ce9b;}.cls-114{fill:#828972;}.cls-115{fill:#f14d00;}.cls-116{fill:#d8a35d;}.cls-117{fill:#e4b677;}.cls-118{fill:#ec7f3b;}.cls-119{fill:#e0c382;}.cls-120{fill:#e88747;}.cls-121{fill:#aaa398;}.cls-122{fill:#9a502c;}.cls-123{fill:#ab9586;}.cls-124{fill:#64615e;}.cls-125{fill:#9c9189;}.cls-126{fill:#a9aeb1;}.cls-127{fill:#dd9d62;}.cls-128{fill:#ed7a37;}.cls-129{fill:#645243;}.cls-130{fill:#aa9668;}.cls-131{fill:#dca35e;}.cls-132{fill:#b88b43;}.cls-133{fill:#967854;}.cls-134{fill:#ed7f2f;}.cls-135{fill:#cac8c4;}.cls-136{fill:#d4d7a8;}.cls-137{fill:#a7a47b;}.cls-138{fill:#b2b693;}.cls-139{fill:#e0a775;}.cls-140{fill:#e1753d;}.cls-141{fill:#ef5a0f;}.cls-142{fill:#c9c297;}.cls-143{fill:#9e2f00;}.cls-144{fill:#dec08e;}.cls-145{fill:#a29892;}.cls-146{fill:#eb914c;}.cls-147{fill:#966550;}.cls-148{fill:#c7a462;}.cls-149{fill:#a35321;}.cls-150{fill:#cbb4ad;}.cls-151{fill:#2a3530;}.cls-152{fill:#44524b;}.cls-153{fill:#2f3328;}.cls-154{fill:#28342f;}.cls-155{fill:#44524a;}.cls-156{fill:#2b3030;}.cls-157{fill:#525b60;}.cls-158{fill:#424d4f;}.cls-159{fill:#68532d;}.cls-160{fill:#293b43;}.cls-161{fill:#332e23;}.cls-162{fill:#3a3425;}.cls-163{fill:#1e2f39;}.cls-164{fill:#31423a;}.cls-165{fill:#433017;}.cls-166{fill:#412f18;}.cls-167{fill:#32393c;}.cls-168{fill:#bcc0c2;}.cls-169{fill:#b5b9bb;}.cls-170{fill:#6d7478;}.cls-171{fill:#4d575c;}.cls-172{fill:#424c54;}.cls-173{fill:#798083;}.cls-174{fill:#626f68;}.cls-175{fill:#6e7b75;}.cls-176{fill:#54625c;}.cls-177{fill:#38493f;}.cls-178{fill:#a6aeab;}.cls-179{fill:#4d5b53;}.cls-180{fill:#727f79;}.cls-181{fill:#747c7b;}.cls-182{fill:#212b30;}.cls-183{fill:#3e4d4b;}.cls-184{fill:#909996;}.cls-185{fill:#6d7773;}.cls-186{fill:#87908b;}.cls-187{fill:#6c7677;}.cls-188{fill:#aaafb2;}.cls-189{fill:#979ea0;}.cls-190{fill:#7d8185;}.cls-191{fill:#7a8082;}.cls-192{fill:#61686c;}.cls-193{fill:#535a60;}.cls-194{fill:#777b7c;}.cls-195{fill:#878a8c;}.cls-196{fill:#949798;}.cls-197{fill:#6e7072;}.cls-198{fill:#878b8d;}.cls-199{fill:#828486;}.cls-200{fill:#b6b8ba;}.cls-201{fill:#838587;}.cls-202{fill:#757779;}.cls-203{fill:#97999b;}.cls-204{fill:#605246;}.cls-205{fill:#403128;}.cls-206{fill:#715e4f;}.cls-207{fill:#685c51;}.cls-208{fill:#655748;}.cls-209{fill:#736957;}.cls-210{fill:#7a6958;}.cls-211{fill:#827163;}.cls-212{fill:#ab9789;}.cls-213{fill:#9c897b;}.cls-214{fill:#b12d00;}.cls-215{fill:#9a613d;}.cls-216{fill:#d66a27;}.cls-217{fill:#d1bfb4;}.cls-218{fill:#a87b68;}.cls-219{fill:#ddc4bc;}.cls-220{fill:#66686a;}.cls-221{fill:#7d726b;}.cls-222{fill:#7a503c;}.cls-223{fill:#de7d3e;}.cls-224{fill:#f14600;}.cls-225{fill:#762505;}.cls-226{fill:#8b6445;}.cls-227{fill:#9c5e27;}.cls-228{fill:#80300c;}.cls-229{fill:#ddca8b;}.cls-230{fill:#e7a86d;}.cls-231{fill:#ec8045;}.cls-232{fill:#f22c00;}.cls-233{fill:#606156;}.cls-234{fill:#938571;}.cls-235{fill:#973c0f;}.cls-236{fill:#675034;}.cls-237{fill:#812804;}.cls-238{fill:#7a5835;}.cls-239{fill:#5e402b;}.cls-240{fill:#52311a;}.cls-241{fill:#36453c;}.cls-242{fill:#606d67;}.cls-243{fill:#636a6c;}.cls-244{fill:#46554c;}.cls-245{fill:#616d65;}.cls-246{fill:#4d5a52;}.cls-247{fill:#415048;}.cls-248{fill:#7a7e80;}.cls-249{fill:#565a5a;}.cls-250{fill:#46514c;}.cls-251{fill:#766b5b;}.cls-252{fill:#464535;}.cls-253{fill:#5a6150;}.cls-254{fill:#455047;}.cls-255{fill:#445052;}.cls-256{fill:#3c433d;}.cls-257{fill:#856b1a;}.cls-258{fill:#3a3d3f;}.cls-259{fill:#857246;}.cls-260{fill:#838d88;}.cls-261{fill:#6c8083;}.cls-262{fill:#7f6334;}.cls-263{fill:#947b4a;}.cls-264{fill:#868c8f;}.cls-265{fill:#434032;}.cls-266{fill:#5f4c2c;}.cls-267{fill:#4b4836;}.cls-268{fill:#7e6335;}.cls-269{fill:#937b47;}.cls-270{fill:#333d42;}.cls-271{fill:#58665d;}.cls-272{fill:#8b958f;}.cls-273{fill:#c1c6c5;}.cls-274{fill:#495048;}.cls-275{fill:#343e44;}.cls-276{fill:#455149;}.cls-277{fill:#464844;}.cls-278{fill:#43494d;}.cls-279{fill:#3c454a;}.cls-280{fill:#5c6060;}.cls-281{fill:#363735;}.cls-282{fill:#514b45;}.cls-283{fill:#5a605e;}.cls-284{fill:#91875c;}.cls-285{fill:#6c5c22;}.cls-286{fill:#938963;}.cls-287{fill:#726121;}.cls-288{fill:#9d9fa1;}.cls-289{fill:#626466;}.cls-290{fill:#384046;}.cls-291{fill:#565d60;}.cls-292{fill:#444d51;}.cls-293{fill:#465056;}.cls-294{fill:#5c5c5c;}.cls-295{fill:#373e43;}.cls-296{fill:#515659;}.cls-297{fill:#5b5f61;}.cls-298{fill:#8a8f92;}.cls-299{fill:#566065;}.cls-300{fill:#989ea1;}.cls-301{fill:#5e686d;}.cls-302{fill:#5d656b;}.cls-303{fill:#767d80;}.cls-304{fill:#b9bdbf;}.cls-305{fill:#62666a;}.cls-306{fill:#74797b;}.cls-307{fill:#74777b;}.cls-308{fill:#7f8486;}.cls-309{fill:#7d8284;}.cls-310{fill:#615c51;}.cls-311{fill:#888980;}.cls-312{fill:#656c63;}.cls-313{fill:#514f48;}.cls-314{fill:#602a13;}.cls-315{fill:#613d2c;}.cls-316{fill:#b9a499;}.cls-317{fill:#867567;}.cls-318{fill:#9a887b;}.cls-319{fill:#b6ad9b;}.cls-320{fill:#ae8174;}.cls-321{fill:#b69b91;}.cls-322{fill:#ccb5ac;}.cls-323{fill:#b29c92;}.cls-324{fill:#5a3c27;}.cls-325{fill:#7d391a;}.cls-326{fill:#bc2a00;}.cls-327{fill:#d04500;}.cls-328{fill:#907668;}.cls-329{fill:#9d6036;}.cls-330{fill:#624e40;}.cls-331{fill:#afb9ba;}.cls-332{fill:#d3d7d9;}.cls-333{fill:#8b9b9e;}.cls-334{fill:#a6aeaa;}.cls-335{fill:#767567;}.cls-336{fill:#6a6f72;}.cls-337{fill:#2c3632;}.cls-338{fill:#b29853;}.cls-339{fill:#c6b277;}.cls-340{fill:#988341;}.cls-341{fill:#a7a07d;}.cls-342{fill:#a2aba8;}.cls-343{fill:#b09c6d;}.cls-344{fill:#7d641e;}.cls-345{fill:#7d6d4a;}.cls-346{fill:#b59b53;}.cls-347{fill:#ad9969;}.cls-348{fill:#c8b576;}.cls-349{fill:#d7d2b6;}.cls-350{fill:#757c79;}.cls-351{fill:#adb4b0;}.cls-352{fill:#9c9572;}.cls-353{fill:#d7d2ba;}.cls-354{fill:#8c7733;}.cls-355{fill:#a0a9a4;}.cls-356{fill:#787c7e;}.cls-357{fill:#aeb2b4;}.cls-358{fill:#38473d;}.cls-359{fill:#45544b;}.cls-360{fill:#d3c6bb;}.cls-361{fill:#5b6151;}</style></defs><title>apheac</title><g id="레이어_2" data-name="레이어 2"><g id="레이어_1-2" data-name="레이어 1"><rect class="cls-1" width="74" height="74" rx="8.33" ry="8.33"/><path class="cls-2" d="M55.44,23.9l1.19.1a6.35,6.35,0,0,0,1.43,1,1.24,1.24,0,0,1,.23.44,1.27,1.27,0,0,1-.36,1.24,1.91,1.91,0,0,1-1.35.31A3.34,3.34,0,0,1,54,26.66a1.61,1.61,0,0,1-.4-1.42,1.6,1.6,0,0,1,.4-1.41A1.13,1.13,0,0,1,55.44,23.9Z"/><path class="cls-3" d="M51.67,19.06c0,.46,0,1-.58,1.13s-.68.7-.66,1.23A1,1,0,0,1,49,21.6a2.17,2.17,0,0,1-.2-2.57,1.29,1.29,0,0,1,1.25-.57c.43.05.89-.09,1.29.19A.76.76,0,0,1,51.67,19.06Z"/><path class="cls-4" d="M54.16,23.93v1.28a1.42,1.42,0,0,1-1.24.49,1.62,1.62,0,0,1-1.31-.29,1.27,1.27,0,0,1-.31-1.22c.15-.69,1.05-.66,1.25-1.3a.72.72,0,0,1,.36-.25l1.22.11A.8.8,0,0,1,54.16,23.93Z"/><path class="cls-5" d="M54.12,15.26c.91.25,2.49-.84,2.5,1.24a2.17,2.17,0,0,1-2.58.09A1,1,0,0,1,54.12,15.26Z"/><path class="cls-6" d="M56.63,17.71c0,2.06-1.59,1-2.51,1.24A1,1,0,0,1,54,17.63a1.4,1.4,0,0,1,1.32-.39A1.43,1.43,0,0,1,56.63,17.71Z"/><path class="cls-7" d="M49.2,21.44l1.23,0,1.18.08a1,1,0,0,1,.15,1.31,1.5,1.5,0,0,1-1.36.41A1.48,1.48,0,0,1,49,22.79,1,1,0,0,1,49.2,21.44Z"/><path class="cls-8" d="M54.15,17.8l0,1.15-2.45.11,0-.14a1,1,0,0,1-.16-1.27,1.89,1.89,0,0,1,2.34-.29A.91.91,0,0,1,54.15,17.8Z"/><path class="cls-9" d="M51.67,22.69l-.06-1.19c.86-.11,1.39.16,1.29,1.14v.14a.86.86,0,0,1-1.1.1Z"/><path class="cls-10" d="M54.16,23.93l0-1.18c.9-.14,1.39.18,1.32,1.15Z"/><path class="cls-11" d="M57.93,25.17c-1,.17-1.36-.24-1.3-1.17h1.24A.79.79,0,0,1,57.93,25.17Z"/><path class="cls-12" d="M57.93,25.17,57.87,24l1.26,0c0,.4,0,.79,0,1.19a.83.83,0,0,1-1.26.07Z"/><path class="cls-13" d="M51.64,15.28l.32-.1.92.1A.93.93,0,0,1,53,16.6a1.08,1.08,0,0,1-1.37,0A.93.93,0,0,1,51.64,15.28Z"/><path class="cls-14" d="M52.93,16.45l0-1.17,1.24,0c0,.38,0,.76,0,1.14a2.39,2.39,0,0,1-.13.21A.74.74,0,0,1,52.93,16.45Z"/><path class="cls-15" d="M56.63,17.71H55.36a.86.86,0,0,1,0-1.2h1.26C56.62,16.9,56.63,17.31,56.63,17.71Z"/><path class="cls-16" d="M59.31,15.62c-.05.25-.11.54-.38.59s-.39-.24-.38-.49,0-.55.33-.58S59.3,15.34,59.31,15.62Z"/><path class="cls-17" d="M47.9,55.46c-.06,1.23.42,2.61-1,3.46-.17.1-.16.56-.19.87-.1,1.16.35,2.41-1.06,3.27-.51.31-.15,1.36-.19,2.08.07.89-.31,1.34-1.23,1.26L44,66.32c-.34-.6-1.22-.64-1.43-1.38a25,25,0,0,0,1.2-5.81c.06-.63.81-.91,1.17-1.41a2.82,2.82,0,0,0,1.23-1.44C46.41,55.58,47,55,47.9,55.46Z"/><path class="cls-17" d="M42.88,68.82H40.73a1.08,1.08,0,0,1-.29-1.21c.53-.48.77-1.2,1.34-1.65a2,2,0,0,1,2.37.4l0,0c0,.5,0,1-.65,1.21S42.92,68.32,42.88,68.82Z"/><path class="cls-18" d="M33,68.85l0-1.22.14-.22a1.75,1.75,0,0,1,1.25-.34,13.18,13.18,0,0,1,2.35,0,17,17,0,0,1,2.37,0,2.45,2.45,0,0,1,1.31.2,1,1,0,0,1,.37.38v1.19Z"/><path class="cls-19" d="M67.93,38.63l-.1,4.06c-1.71,2.26-2,2.33-4.39,1.07a1,1,0,0,0-1.26.11,2.62,2.62,0,0,1-3.55,0c-.41-.33-.82-.51-1.25-.16-1.53,1.21-2.91,1.15-4.17-.4-.08-.09-.3-.06-.45-.08a1.84,1.84,0,0,1-1.2-.37C50.86,42,51.11,40.66,50,40a12.72,12.72,0,0,1,.17-6.1,1.22,1.22,0,0,1,1.3-.28c.78.38.84,1.12.84,1.85,0,.9.31,1.49,1.28,1.64a1.75,1.75,0,0,1,.94.51,1.07,1.07,0,0,0,1.63.07,2.52,2.52,0,0,1,3.42,0,1,1,0,0,0,1.51.07,2.54,2.54,0,0,1,3.53,0,1.07,1.07,0,0,0,1.53,0,1.12,1.12,0,0,1,1.66,0Z"/><path class="cls-20" d="M67.82,37.7a1.25,1.25,0,0,0-1.26.65,1.47,1.47,0,0,1-2.42,0,1.51,1.51,0,0,0-2.52,0,1.55,1.55,0,0,1-2.45.05,1.52,1.52,0,0,0-2.52-.09,1.47,1.47,0,0,1-2.5,0c-.25-.31-.48-.59-.86-.55-1.65.19-1.72-.85-1.64-2,0-.57,0-1.14,0-1.7.28-.5.75-.53,1.24-.52a1.78,1.78,0,0,1,1.33.26,1.4,1.4,0,0,1,.49,1.15c0,.38,0,.87.55.89s.7-.33.73-.78a9.55,9.55,0,0,0,.1-1.19A2.19,2.19,0,0,1,56.75,32c1-1.1,1.82-1.15,2.6.1.65,1,1.14,1.25,2.16.44a2.25,2.25,0,0,1,2.89.09c.67.52,1.2.66,1.9.07a1,1,0,0,1,1.53.06Z"/><path class="cls-21" d="M67.83,32.71a1.27,1.27,0,0,0-1.2.51,1.45,1.45,0,0,1-2.49.12,1.5,1.5,0,0,0-2.53,0,1.49,1.49,0,0,1-2.44,0c-.33-.65-.33-1.89-1.23-1.65A2.15,2.15,0,0,0,56.64,34a1,1,0,0,1-1.32.15,1.3,1.3,0,0,1-.45-1.24c-.15-1.6,1.06-2.63,1.74-3.85a7,7,0,0,1,1.22-1.56,1.38,1.38,0,0,1,1.25-.07c.5,1.17,1.82.75,2.62,1.33.73.4.22,1.87,1.28,1.76.77-.08.44-1.38,1.15-1.81a2.49,2.49,0,0,1,2.22-.16,1.4,1.4,0,0,1,.43.24c.77.74.1,2,1,2.72Z"/><path class="cls-22" d="M62.25,25.26h4.36c.75,1,.18,1.51-.74,1.77-.53.15-1.15,0-1.4.7a1.14,1.14,0,0,1-.38.34,2.71,2.71,0,0,1-2.28,0,1.21,1.21,0,0,1-.42-.32,1.57,1.57,0,0,1-.21-1.25C61.21,25.84,61.8,25.61,62.25,25.26Z"/><path class="cls-23" d="M64.12,27.69c-.08-.9.34-1.31,1.24-1.24s1.37-.24,1.25-1.19c.89-.19,1.36.08,1.29,1.07s-.06,1.73-.08,2.59a.78.78,0,0,1-1.19,0v0a1.57,1.57,0,0,0-1.28-.64A1.13,1.13,0,0,1,64.12,27.69Z"/><path class="cls-24" d="M62.25,25.26l-.62,1.21a3,3,0,0,1-3.73,0V25.23l1.26-.07Z"/><path class="cls-25" d="M66.63,28.94l1.19,0c0,.85,0,1.7,0,2.55C65.85,31.37,66.91,29.84,66.63,28.94Z"/><path class="cls-26" d="M35.41,7.72c.05-.56,0-1.19.84-1.19.62,0,1.39-.28,1.69.6.22.64.75.58,1.24.63a1.06,1.06,0,0,1-.27,1.76,3,3,0,0,0-.76.89,1.38,1.38,0,0,1-1.47.31,1,1,0,0,1-.35-.36,2.35,2.35,0,0,1-.21-1.17C36.3,8.5,35.47,8.3,35.41,7.72Z"/><path class="cls-27" d="M21.72,19c-1.87.63-3-1.2-4.64-1.4-.44-.06-.35-.68-.36-1.08A1.13,1.13,0,0,1,17.88,16a2.18,2.18,0,0,1,1.26.13c.56.33.68,1.33,1.63,1.08a1.28,1.28,0,0,1,1.15.51A1.05,1.05,0,0,1,21.72,19Z"/><path class="cls-28" d="M22.33,15.28l4.36-.1.21.18a1.07,1.07,0,0,1-.09,1.29,1.55,1.55,0,0,1-1.27.38,8.42,8.42,0,0,1-1.33,0,3.74,3.74,0,0,1-1.33-.12,1.06,1.06,0,0,1-.71-.37A1,1,0,0,1,22.33,15.28Z"/><path class="cls-29" d="M22.33,15.28v1.18c-.44.76-1.15.63-1.84.56a1.72,1.72,0,0,1-1.33-.49L18,16.44a.76.76,0,0,1,0-1.16Z"/><path class="cls-30" d="M29.22,10.19l1.19.09a1,1,0,0,1,.18,1.27,1.35,1.35,0,0,1-1.23.48A5.38,5.38,0,0,1,28,12a2.11,2.11,0,0,1-1.3-.23,1.16,1.16,0,0,1-.12-1.75A1.57,1.57,0,0,1,28,9.74,1.55,1.55,0,0,1,29.22,10.19Z"/><path class="cls-31" d="M31.75,9c-.09-2.25,1.57-.89,2.43-1.19a1.4,1.4,0,0,1,.49,1.27c.08,1.06-.35,1.62-1.46,1.55C32.33,10.42,32.34,9.43,31.75,9Z"/><path class="cls-32" d="M31.75,9c1-.09,1.26.46,1.24,1.3a1,1,0,0,1,.12,1.25,1.24,1.24,0,0,1-1.18.46c-.41,0-.85.1-1.23-.15a.77.77,0,0,1-.3-.39V10.28C31.35,10.35,31.83,10,31.75,9Z"/><path class="cls-33" d="M20.49,22.75l1.22-.11.21.09c.26.68,1.15.77,1.38,1.48a1.22,1.22,0,0,1-.36,1.25,2.26,2.26,0,0,1-2.55,0A1.44,1.44,0,0,1,20,24.06,1.46,1.46,0,0,1,20.49,22.75Z"/><path class="cls-34" d="M50.41,6.51c0-.59,0-1.23.83-1.22s2.1-.48,2.64.31-.44.83-1,.91A1.35,1.35,0,0,1,51.63,7,1.15,1.15,0,0,1,50.41,6.51Z"/><path class="cls-35" d="M51.64,15.28l0,1.16a1.14,1.14,0,0,1-1.18.58,5.39,5.39,0,0,1-1.39,0,1.53,1.53,0,0,1-1.33-.46,1.1,1.1,0,0,1,0-1.38,1,1,0,0,1,1.36,0Z"/><path class="cls-36" d="M37.93,10.24c0-.51,0-1,.62-1.24s.62-.73.63-1.24l1.19,0a1.05,1.05,0,0,1,.54,1.21A1.87,1.87,0,0,1,40.7,10a1.7,1.7,0,0,1-1.52.68A1.16,1.16,0,0,1,37.93,10.24Z"/><path class="cls-37" d="M40.43,9l-.06-1.28.06,0a1.52,1.52,0,0,1,2.44,0l0,1.24A1.53,1.53,0,0,1,40.43,9Z"/><path class="cls-38" d="M42.87,7.74H40.43c-.2-1.09.38-1.27,1.32-1.28S43.09,6.8,42.87,7.74Z"/><path class="cls-39" d="M28,10.2l-1.27,0a.84.84,0,0,1-1.22,0c-.18-.87.08-1.35,1.07-1.23.44,0,.9,0,1.35,0A.8.8,0,0,1,28,10.2Z"/><path class="cls-40" d="M34.19,9V7.79l1.23-.07c.9,0,1.43.29,1.24,1.29a1.36,1.36,0,0,1-1.23.46A1.35,1.35,0,0,1,34.19,9Z"/><path class="cls-41" d="M26.72,11.48l1.21,0A1.77,1.77,0,0,1,28.16,14a1,1,0,0,1-1.4-.06l-.11-1.22A.87.87,0,0,1,26.72,11.48Z"/><path class="cls-42" d="M25.41,20.25C24.54,20,23,21,22.94,19.07l.12-.25c.35-.4.82-.35,1.29-.35a1.27,1.27,0,0,1,1.27.48A.94.94,0,0,1,25.41,20.25Z"/><path class="cls-43" d="M25.41,20.25,25.46,19l.12-.22a1,1,0,0,1,1.19-.05,1.06,1.06,0,0,1,.33.4A2.32,2.32,0,0,1,27,21.44a1.08,1.08,0,0,1-1.19.34.77.77,0,0,1-.37-.34Z"/><path class="cls-44" d="M40.43,9h2.46c0,.41,0,.83,0,1.24l-.16.25c-.94.53-1.83.82-2.34-.54Z"/><path class="cls-45" d="M23,21.5l2.42-.06.08.1a1,1,0,0,1,.1,1.3,2.19,2.19,0,0,1-2.41.28,1.07,1.07,0,0,1-.43-.36A1,1,0,0,1,23,21.5Z"/><path class="cls-46" d="M50.41,6.51l1.23,0a.87.87,0,0,1,0,1.24l0,1.17a1,1,0,0,1-1.32.14,1.38,1.38,0,0,1-.4-1.32,1.39,1.39,0,0,1,.52-1.26Z"/><path class="cls-47" d="M49.18,15.18l-1.26.05-.25-.17a1.85,1.85,0,0,1,.13-2.43,1,1,0,0,1,1.34.08Z"/><path class="cls-48" d="M50.43,9l1.21,0c.1.85-.16,1.39-1.14,1.28l-.21-.07a.79.79,0,0,1,0-1Z"/><path class="cls-49" d="M46.67,8.93c-.13-1,.38-1.29,1.28-1.15A1,1,0,0,1,48.14,9,.93.93,0,0,1,47,9.29.7.7,0,0,1,46.67,8.93Z"/><path class="cls-50" d="M47.89,9,48,7.78l1.21-.1.2.15A1,1,0,0,1,49.4,9a1.13,1.13,0,0,1-.4.32A.89.89,0,0,1,47.89,9Z"/><path class="cls-51" d="M28,10.2,27.92,9c.91-.14,1.36.22,1.3,1.17Z"/><path class="cls-52" d="M44.17,10.17c-.14-1,.38-1.29,1.28-1.14a.94.94,0,0,1,.17,1.16.91.91,0,0,1-1.12.33A.6.6,0,0,1,44.17,10.17Z"/><path class="cls-53" d="M45.44,10.17V9l1.22-.1,0,.15a.87.87,0,0,1,.21,1.12.91.91,0,0,1-1.1.32A.61.61,0,0,1,45.44,10.17Z"/><path class="cls-54" d="M23,21.5l0,1.15c-.37.49-.8.43-1.25.13v-.14C21.61,21.66,22.13,21.38,23,21.5Z"/><path class="cls-55" d="M18,15.28v1.16l-1.27,0v0a.82.82,0,0,1,0-1.21Z"/><path class="cls-56" d="M18,23.88c-.09-.95.41-1.24,1.27-1.15a1,1,0,0,1,.21,1.19.93.93,0,0,1-1.15.33A.63.63,0,0,1,18,23.88Z"/><path class="cls-10" d="M19.2,23.91c0-.39,0-.78,0-1.18l1.25,0,0,1.18C20,24.29,19.61,24.37,19.2,23.91Z"/><path class="cls-57" d="M15.46,25.16c0-.4,0-.79,0-1.19l1.27,0a.93.93,0,0,1,0,1.32A.88.88,0,0,1,15.46,25.16Z"/><path class="cls-58" d="M16.73,25.17c0-.39,0-.78,0-1.18L18,23.88V24c.44,1.24.28,1.45-1,1.36Z"/><path class="cls-59" d="M16.76,15.26l0,1.21c-.47,0-1.13.17-1.17-.55S16.25,15.29,16.76,15.26Z"/><path class="cls-60" d="M21.72,19l0-1.19a.86.86,0,0,1,1.1-.36.84.84,0,0,1,.39.33A.92.92,0,0,1,23,18.91l0,.16Z"/><path class="cls-61" d="M51.68,7.8l0-1.24,1.23,0C53.08,7.49,52.64,7.89,51.68,7.8Z"/><path class="cls-62" d="M26.72,11.48l-.07,1.27c-.94.07-1.29-.4-1.17-1.29a.83.83,0,0,1,1.2,0Z"/><path class="cls-63" d="M50.5,10.25c0,.85-.26,1.43-1.27,1.26l-.21-.1a1,1,0,0,1-.13-1.13.88.88,0,0,1,1.45,0Z"/><path class="cls-64" d="M50.44,6.53l0,1.21a.94.94,0,0,1-1.26.08V7.68C49.05,6.7,49.56,6.4,50.44,6.53Z"/><path class="cls-65" d="M42.91,10.22l1.26-.05,0,.15a.86.86,0,0,1,0,1.29,1,1,0,0,1-1.35,0A.92.92,0,0,1,43,10.28Z"/><path class="cls-66" d="M26.68,11.51l-1.2,0c0-.41,0-.83,0-1.24l1.22,0C26.71,10.67,26.69,11.09,26.68,11.51Z"/><path class="cls-67" d="M26.76,14l1.16,0a.9.9,0,0,1,.13,1.32,1,1,0,0,1-1.36,0,.14.14,0,0,1,0-.15C26.71,14.78,26.73,14.37,26.76,14Z"/><path class="cls-68" d="M49.14,12.71,48,12.77l-.21-.15a1,1,0,0,1,.11-1.24.87.87,0,0,1,1.21.09.47.47,0,0,0,.16,0Z"/><path class="cls-69" d="M57.91,27.73a12.71,12.71,0,0,1-2.07,3.77,2,2,0,0,0-.47,1.23,1.13,1.13,0,0,1-1.26.24c-.81-.74-1.88-1.33-1.75-2.7a2.92,2.92,0,0,0-.74-2.2,1.34,1.34,0,0,1-.27-1.54c.38-.6,1.16-.71,1.54-1.31h1.26V26.4c.08.12.2.23.28.35.94,1.49.94,1.5,2.35.6A1,1,0,0,1,57.91,27.73Z"/><path class="cls-70" d="M57.91,27.73l-1.25,0a.82.82,0,0,1,0-1.22l1.28,0,3.73,0V27.7a1.53,1.53,0,0,1-2.47,0Z"/><path class="cls-71" d="M56.62,26.48c0,.41,0,.81,0,1.22.08,1.07-.52,1.29-1.45,1.26s-1.08-.58-1.06-1.33c0-.41,0-.82,0-1.23Z"/><path class="cls-72" d="M49.14,16.49h1.25a1.33,1.33,0,0,1,.49,1.23,1.29,1.29,0,0,1-.51,1.22L49.19,19a1,1,0,0,1-1.28.11,1.12,1.12,0,0,1-.32-1.21C47.9,17.22,48.75,17.11,49.14,16.49Z"/><path class="cls-73" d="M47.91,19l1.28,0c0,.81,0,1.62,0,2.43,0,.43,0,.87,0,1.31l-.19.19a1,1,0,0,1-1.27-.17,1.71,1.71,0,0,1-.36-1.29c0-.8-.31-1.64.31-2.36Z"/><path class="cls-74" d="M50.37,18.93l.05-1.18a.82.82,0,0,1,1.27,0c0,.38,0,.76,0,1.14Z"/><path class="cls-75" d="M50.43,22.75l1.24-.06,0,0a.92.92,0,0,1,0,1.27l0,1.21-.15.23a1.61,1.61,0,0,1-1.26.29A1.39,1.39,0,0,1,49,25.35a1.26,1.26,0,0,1-.19-1.24C49.16,23.43,50,23.35,50.43,22.75Z"/><path class="cls-76" d="M51.68,24l0-1.27,1.26.05C53,23.7,52.53,24,51.68,24Z"/><path class="cls-77" d="M52.89,25.22c.12.92-.28,1.34-1.21,1.22a.83.83,0,0,1,0-1.24h1.25Z"/><path class="cls-78" d="M55.36,16.5v1.2l-1.21.1v-.15a.71.71,0,0,1,0-1.09.88.88,0,0,1,0-.16Z"/><path class="cls-79" d="M50.43,22.75c0,.85-.31,1.32-1.21,1.23-.47-.4-.38-.83,0-1.26l0,0Z"/><path class="cls-80" d="M54.14,16.56v1.09l-2.46.13-1.27,0,0-1.27,1.28,0h1.26Z"/><path class="cls-81" d="M47.9,55.46a1.52,1.52,0,0,0-1.26,1.2A2,2,0,0,1,45.42,58a3.81,3.81,0,0,0-2.67-1,3.45,3.45,0,0,1-1.24-.12,1.12,1.12,0,0,1-.7-.44A1.28,1.28,0,0,1,40.9,55c1.25-.93,2.67-.3,4-.47.43,0,.93.15,1.12-.48.23-.81-.6-1-.89-1.44a1.34,1.34,0,0,1,0-1.11c1.36-1.28,1.27-1.52,0-2.66a2.17,2.17,0,0,1-.2-1.23,8.54,8.54,0,0,1,0-1.34,22.47,22.47,0,0,1,0-4.71A3,3,0,0,1,45,40.31c.51-.77,1.27-1.42,1.08-2.49.2-.89-.82-.94-1.06-1.53A3.17,3.17,0,0,1,44.84,35c0-1.27-.46-2.59.44-3.75a2.36,2.36,0,0,1,2.71,0,1.76,1.76,0,0,1,.49,1.45c.11,2.48.05,5,0,7.46,0,1.66,0,3.32,0,5,0,1.26,0,2.53,0,3.79,0,.79.16,1.61-.59,2.2Z"/><path class="cls-82" d="M57.89,52.71l-1.21-.11c-.5-.32-.83-.83-1.33-1.15H54.14L54,51.37c-.29-.39-.6-.74-1.16-.67a2,2,0,0,1-1.06-.16,1.1,1.1,0,0,1-.35-.26c-.21-.5-.49-.89-1.11-.82a1.73,1.73,0,0,1-1.15-.28,1.14,1.14,0,0,1-.31-.41A1.33,1.33,0,0,1,49,47.52c.89-.49,1.26-2,2.7-1.4.9,1,2.39.91,3.34,1.84.34.33.76.06,1.1-.23a2.62,2.62,0,0,1,2.9-.44,1.07,1.07,0,0,1,.37.3,1.52,1.52,0,0,1,.25,1.13c0,.53,0,1.05,0,1.58.27,1.29-1,1.58-1.53,2.32Z"/><path class="cls-83" d="M52.59,52.66l-.31-1.22a.83.83,0,0,1,.65-.45,1.28,1.28,0,0,1,1.24.38l0,.07C54.27,52.68,53.46,52.7,52.59,52.66Z"/><path class="cls-84" d="M55.35,51.45c.89-.13,1.39.18,1.33,1.15C55.74,52.79,55.28,52.43,55.35,51.45Z"/><path class="cls-85" d="M59.17,53.85l-1.27,0c0-.39,0-.78,0-1.17v-.15a1.05,1.05,0,0,1,1.33,0A.91.91,0,0,1,59.17,53.85Z"/><path class="cls-86" d="M59.14,47.67c-1,0-2.23-.37-2.78,1,0,.07-.17.11-.26.15-1,.41-4.23-1.37-4.48-2.46a1,1,0,0,1-.24-1.17c1-.53.71-1.87,1.52-2.53a1.32,1.32,0,0,1,1.29.62,1.46,1.46,0,0,0,2.43.05,1.5,1.5,0,0,1,2.53,0,1.44,1.44,0,0,0,2.45,0,1.52,1.52,0,0,1,2.54,0,1.45,1.45,0,0,0,2.49-.11,1.29,1.29,0,0,1,1.2-.51v5c-.68.85-1.07,2.06-2.54,1.87-.92-.13-1.6-.41-1.41-1.54a2.41,2.41,0,0,1,1.31-1c.3-.08.58-.25.51-.65a.33.33,0,0,0-.33-.27c-.39,0-.53.29-.6.59a2.61,2.61,0,0,1-.88,1.26c-.71.51-1.51.85-2.25,1.31a1.75,1.75,0,0,1-2.5-.3V47.67c.29-.56.93-.57,1.39-.86a.41.41,0,0,0,.1-.66.4.4,0,0,0-.65.09A6.63,6.63,0,0,1,59.14,47.67Z"/><path class="cls-87" d="M64.13,47.67c0,.51,0,1.13.68,1.19s1.42.32,1.77-.52c.25-.61.7-.68,1.25-.67v2.5a1.28,1.28,0,0,1-1.16.6,3,3,0,0,0-2.55,1,3,3,0,0,1-2.36,0c-.76-.73-1.84-.95-2.62-1.66a1.17,1.17,0,0,1,0-1.26c1-.06,2.07.3,2.8-1,.36-.63,1.44-.2,2.19-.27Z"/><path class="cls-88" d="M61.64,51.4h2.48c.58.15.91.94,1.66.67.75,0,1.52-.16,2,.58.17.85,0,1.32-1.06,1.28-2.53-.09-5.06-.06-7.59-.08l-.06-1.18C59.73,51.8,60.85,51.93,61.64,51.4Z"/><path class="cls-89" d="M65.4,52.64c-.94.12-1.35-.31-1.28-1.24s.38-1.28,1.28-1.24,1.62,0,2.43,0v1.25C67.28,52.36,65.94,51.7,65.4,52.64Z"/><path class="cls-90" d="M65.4,52.64c0-2,1.55-1,2.42-1.22v1.23Z"/><path class="cls-91" d="M41.07,56.35l.6,0a1.84,1.84,0,0,1,.63,1.79,1.77,1.77,0,0,1,.64-1.77c1.06.13,2.68-.64,2.48,1.54-1.67,1.31-1.18,3.18-1.27,4.9,0,.43-.09.84-.58,1-.65.21-.64.74-.67,1.26a1,1,0,0,1-1.25.23,1.8,1.8,0,0,1-.59-1.79,2,2,0,0,0-1-2.15,7.45,7.45,0,0,1-.19-3.66,1.74,1.74,0,0,1,.4-1.35A.69.69,0,0,1,41.07,56.35Z"/><path class="cls-92" d="M41.65,65.09l1.25,0c.87,0,1.38.29,1.25,1.26l-2.5,0a1.44,1.44,0,0,1-1.2.5,6.72,6.72,0,0,1-1.34.06,21.89,21.89,0,0,1-2.43,0,22.07,22.07,0,0,1-2.44,0c-.47,0-.93,0-1.4,0a3.56,3.56,0,0,1-2.51-.45,1.24,1.24,0,0,1-.1-1.41,1.45,1.45,0,0,1,1.3-.53,10.6,10.6,0,0,1,1.38,0,12,12,0,0,1,1.34,0,9.48,9.48,0,0,1,2.38,0,10,10,0,0,1,1.34,0,8.67,8.67,0,0,1,2.16,0A1.67,1.67,0,0,1,41.65,65.09Z"/><path class="cls-93" d="M40.4,66.42h1.25c.06.68-.06,1.23-.91,1.23l-.33,0A.82.82,0,0,1,40.4,66.42Z"/><path class="cls-94" d="M30.76,67.62l-.3-1.25,2.52,0a.86.86,0,0,1,0,1.22H30.76Z"/><path class="cls-95" d="M36.65,66.42l2.51,0a.74.74,0,0,1,0,1.14H36.65A.81.81,0,0,1,36.65,66.42Z"/><path class="cls-96" d="M36.65,66.42v1.17H34.22a.78.78,0,0,1,0-1.19Z"/><path class="cls-97" d="M39.16,67.58V66.44l1.24,0c0,.4,0,.79,0,1.19Z"/><path class="cls-98" d="M34.22,66.41V67.6l-1.28,0c0-.41,0-.81,0-1.22Z"/><path class="cls-89" d="M50.44,34l0,6.23-.18.2A1,1,0,0,1,49,40.27a1.42,1.42,0,0,1-.28-.49,30.86,30.86,0,0,1-.13-4.9,1.32,1.32,0,0,1,.5-1.08A1,1,0,0,1,50.44,34Z"/><path class="cls-99" d="M50.44,34H49.21a.89.89,0,0,1-.41-1.05,1.06,1.06,0,0,1,.22-.42c.72-.22.93-1,1.54-1.37a1.45,1.45,0,0,1,1.22.08c.56.81,2.06,1.24,1.15,2.69L51.66,34Z"/><path class="cls-100" d="M50.4,40.18c2,0,1,1.56,1.28,2.44l-.16.22a1,1,0,0,1-1.3-.08,1.54,1.54,0,0,1-.31-1.34,1.43,1.43,0,0,1,.5-1.25Z"/><path class="cls-101" d="M52.9,42.68c-.25.92.76,2.45-1.23,2.51a1.52,1.52,0,0,1,0-2.48l0-.09Z"/><path class="cls-102" d="M52.93,33.89c0-.46,0-1-.56-1.15s-.73-.77-.76-1.34a.93.93,0,0,1,0-1.31,1,1,0,0,1,1.31.12c.1.47-.08,1.09.65,1.23s.55.76.63,1.24a.87.87,0,0,1,0,1.27Z"/><path class="cls-103" d="M55.41,33.93l1.23,0c0,.4,0,.81,0,1.21,0,.77-.19,1.26-1.09,1.28s-1.5-.21-1.4-1.26C54.69,34.89,54.72,34.08,55.41,33.93Z"/><path class="cls-104" d="M55.41,33.93c.06.9-.31,1.37-1.26,1.26V34c0-.42,0-.84,0-1.27l1.2,0C55.38,33.13,55.4,33.53,55.41,33.93Z"/><path class="cls-105" d="M64.13,29c0,.4,0,.81,0,1.22.05.89-.31,1.29-1.25,1.29s-1.3-.4-1.24-1.29c0-.41,0-.82,0-1.22l.15-.23a1.73,1.73,0,0,1,2.21,0C64,28.8,64.09,28.87,64.13,29Z"/><path class="cls-106" d="M64.12,27.69c.89.32,2.52-.83,2.52,1.27h-2.5a.85.85,0,0,1,0-1.23Z"/><path class="cls-107" d="M59.17,27.74l2.47,0,0,0a.83.83,0,0,1,0,1.21h0C60.77,28.63,59.17,29.81,59.17,27.74Z"/><path class="cls-21" d="M61.63,29c0-.4,0-.81,0-1.21l2.53,0V29Z"/><path class="cls-108" d="M6.79,52.64l-.1-10c-.22-.28-.54-.52-.53-.92.12-3.12-.53-6.29.53-9.37l.1-5.91c1.48-1.07,2.33-.82,2.8.82-.05.79-1.27.95-1,1.9a15.91,15.91,0,0,1,0,2.29,10.06,10.06,0,0,1,0,2.39c0,.44,0,.89,0,1.33a12.72,12.72,0,0,1,0,2.39,11.63,11.63,0,0,1,0,1.32c0,.44,0,.88,0,1.31a9.89,9.89,0,0,1,0,2.37,11.43,11.43,0,0,1,0,1.31c0,.44,0,.88,0,1.32a9.81,9.81,0,0,1,0,2.36,9.4,9.4,0,0,1,0,1.3,9.36,9.36,0,0,0,.09,1.3.83.83,0,0,0,.17.42c.72.64,1.2,1.42.39,2.21A1.54,1.54,0,0,1,6.79,52.64Z"/><path class="cls-109" d="M9.18,27.68c.1-2.2-1.59-.82-2.39-1.2-.18-.88,0-1.31,1.08-1.29,2.53.06,5.06,0,7.59,0h1.27l0,.13a.94.94,0,0,1,.13,1.31c-1.06.86-2.3.34-3.45.44-.94.12-2.07-.38-2.69.81A1.16,1.16,0,0,1,9.52,28,.77.77,0,0,1,9.18,27.68Z"/><path class="cls-110" d="M37.93,10.24h1.26a4.21,4.21,0,0,1,1.86,4.37,1.74,1.74,0,0,0,1,1.86,6.43,6.43,0,0,1,.31,2.92c-.15,1.13,0,2.27-.05,3.4,0,.85-.28,1.66-1.24,1.68s-1.26-.77-1.25-1.63A2.4,2.4,0,0,0,39,20.75c-.61-.54-.38-1.45-.82-2.36-1.29,1.94-.81,3.93-.9,5.82a3.16,3.16,0,0,1-.53,2.49,4.58,4.58,0,0,1-3.93,0,2.36,2.36,0,0,1-.42-2.31c1.27-.92,1.18-2.27,1.13-3.61,0-.62,0-1.24,0-1.86a13.63,13.63,0,0,1,0-2.39,2.29,2.29,0,0,1,.17-1.24c1.06-.54,1-1.55,1.1-2.53A2.12,2.12,0,0,1,35,11.63a.93.93,0,0,1,.26-.39,8,8,0,0,1,1.41-.69Z"/><path class="cls-111" d="M35.41,9h1.24c0,.4,0,.8,0,1.21a1,1,0,0,1-1.31.12A1,1,0,0,1,35.41,9Z"/><path class="cls-112" d="M35.48,10.27l1.18,0c0,.11,0,.22.05.33,0,.85-.56,1-1.24,1A.76.76,0,0,1,35.48,10.27Z"/><path class="cls-113" d="M23,17.72l-1.26.06-1.2-.1a.81.81,0,0,1-.05-1.2l1.89,0,.63,0A.85.85,0,0,1,23,17.72Z"/><path class="cls-114" d="M20.45,16.48l.05,1.2c-.91.16-1.43-.14-1.33-1.15Z"/><path class="cls-115" d="M25.48,16.52l1.2-.09a1.09,1.09,0,0,1,1.43,0,2.05,2.05,0,0,1,0,2.62,1.08,1.08,0,0,1-1.44,0l0,0a4.51,4.51,0,0,0-1.37-1,1.58,1.58,0,0,1-.24-.39A1,1,0,0,1,25.48,16.52Z"/><path class="cls-116" d="M28,16.53l-1.3-.1c0-.36,0-.73,0-1.1L28,15.22a1,1,0,0,1,1.35-.08,1.1,1.1,0,0,1,0,1.39A1,1,0,0,1,28,16.53Z"/><path class="cls-117" d="M23,17.72c0-.41,0-.82,0-1.24l1.26,0a.93.93,0,0,1,0,1.31,1,1,0,0,1-1.33,0Z"/><path class="cls-118" d="M24.21,17.73c0-.41,0-.82,0-1.23l1.25,0,0,1.2a.78.78,0,0,1-1.09.2Z"/><path class="cls-119" d="M29.14,15.2l-1.19,0,0-1.22c0-.83,0-1.67,0-2.5h1.29a1.4,1.4,0,0,1,.5,1.2,4.08,4.08,0,0,1,0,1.35A1.06,1.06,0,0,1,29.14,15.2Z"/><path class="cls-120" d="M29.24,12.76c0-.42,0-.84,0-1.25l1.18-.06.12.08a1,1,0,0,1,0,1.31A.93.93,0,0,1,29.24,12.76Z"/><path class="cls-121" d="M35.48,10.27v1.24l0,0a1.26,1.26,0,0,1-1.14.5A1.46,1.46,0,0,1,33,11.7l-.13-.23c0-.4.05-.79.08-1.19.9.05,1.29-.39,1.2-1.28l1.22,0C35.43,9.44,35.45,9.85,35.48,10.27Z"/><path class="cls-122" d="M30.41,12.72c0-.4.07-.8.11-1.19h1.19A1.76,1.76,0,0,1,32,13.92a1.16,1.16,0,0,1-1.3.39.89.89,0,0,1-.44-.32A1,1,0,0,1,30.41,12.72Z"/><path class="cls-123" d="M31.63,14c0-.81.05-1.62.08-2.44l1.2,0,.11.07a1.82,1.82,0,0,1,.37,2.14,1.13,1.13,0,0,1-.26.43A1.09,1.09,0,0,1,32,14.3.68.68,0,0,1,31.63,14Z"/><path class="cls-22" d="M16.71,26.44c0-.38,0-.76,0-1.14C17.5,25.26,18.1,25,18,24l1.23-.11,1.26,0,0,1.32a1,1,0,0,1,0,1.35c-.75.69-1.65.5-2.54.41A1.3,1.3,0,0,1,16.71,26.44Z"/><path class="cls-124" d="M20.44,26.44c0-.4,0-.8,0-1.19L23,25.19l.2.22c0,1.65-.81,2.07-2.57,1.28A2.13,2.13,0,0,1,20.44,26.44Z"/><path class="cls-125" d="M23,25.19V24l.12-.24a1.92,1.92,0,0,1,2.33-.13,1.13,1.13,0,0,1,.36.45,1.22,1.22,0,0,1-.32,1.37A1.83,1.83,0,0,1,23,25.22Z"/><path class="cls-126" d="M21.71,22.78,23,22.65v.14a.75.75,0,0,1,0,1.13V24C22.15,24,21.57,23.75,21.71,22.78Z"/><path class="cls-127" d="M47.92,15.23v1.15l-.14.24a.93.93,0,0,1-1.27-.15,1,1,0,0,1,.1-1.33,1,1,0,0,1,1.33.08Z"/><path class="cls-128" d="M49.14,16.49c.17,1-.32,1.31-1.2,1.31l-.19-.15a.82.82,0,0,1,.15-1.11c0-.05,0-.11,0-.16Z"/><path class="cls-129" d="M41.65,16.5c-.59,0-1.15-.07-1.2-.87-.11-1.56.39-3.29-1.2-4.49-.16-.11,0-.59-.06-.9l1.22-.31c.79.56,1.71.19,2.55.35,0,.4,0,.8,0,1.2a1.44,1.44,0,0,1,.47,1.22,1.92,1.92,0,0,1-.2,1.29c-.53.44-1.06.87-1,1.71A.83.83,0,0,1,41.65,16.5Z"/><path class="cls-130" d="M22.93,17.77l1.28,0h0a.85.85,0,0,1,0,1.21l-1.24,0C23,18.53,23,18.15,22.93,17.77Z"/><path class="cls-131" d="M24.22,18.93V17.72h1.26a.82.82,0,0,1,0,1.18l0,.14Z"/><path class="cls-132" d="M26.67,19l1.24-.06.25.14a2,2,0,0,1,.05,2.41,1,1,0,0,1-1.3.18l-.19-.21Z"/><path class="cls-133" d="M25.42,22.74c0-.4,0-.81.08-1.2l1.22-.08h0a1.48,1.48,0,0,1,.48,1.27,1.49,1.49,0,0,1-.35,1.34A.93.93,0,0,1,25.54,24l-.15,0A.87.87,0,0,1,25.42,22.74Z"/><path class="cls-134" d="M25.44,18.9l0-1.18c.94-.11,1.32.35,1.25,1.26Z"/><path class="cls-135" d="M25.42,22.74l0,1.21-2.42,0c0-.38,0-.75,0-1.13Z"/><path class="cls-136" d="M49.15,7.82l1.26-.08,0,1.28,0,0a.86.86,0,0,1-1.25,0Z"/><path class="cls-137" d="M47.94,15.22l-1.3,0a1.37,1.37,0,0,0-.2-.13A1.39,1.39,0,0,1,46.17,14a1.75,1.75,0,0,1,.17-1.19.9.9,0,0,1,.36-.34,1,1,0,0,1,1.15.23l.11.08Z"/><path class="cls-138" d="M49.16,9h1.25l-.07,1.23-1.17,0a.86.86,0,0,1,0-1.27Z"/><path class="cls-139" d="M49.14,9l0,1.27v0a1.26,1.26,0,0,1-1.14.5,1.42,1.42,0,0,1-1.23-.31l-.12-.23,0-1.12L47.89,9Z"/><path class="cls-140" d="M44.13,11.45c0-.38,0-.75,0-1.13l1.29-.15v.1a1,1,0,0,1,.21,1.18.93.93,0,0,1-1.15.35A.76.76,0,0,1,44.13,11.45Z"/><path class="cls-141" d="M45.41,11.49c0-.41,0-.82,0-1.22l1.25-.07,0,.07a1.3,1.3,0,0,1,.48,1.23,1.36,1.36,0,0,1-.48,1.24v0a.91.91,0,0,1-1.29.1A1,1,0,0,1,45.41,11.49Z"/><path class="cls-142" d="M47.91,10.24h1.26c0,.41-.06.82-.1,1.23l-1.14,0-.19-.15A.86.86,0,0,1,47.91,10.24Z"/><path class="cls-143" d="M42.94,12.72c0-.41,0-.83,0-1.24l1.18,0,0,.1a.87.87,0,0,1,0,1.27A.92.92,0,0,1,42.94,12.72Z"/><path class="cls-144" d="M46.65,12.74l0-1.22a.81.81,0,0,1,1.2,0h0c0,.4-.06.8-.08,1.2Z"/><path class="cls-145" d="M52.89,30.21H51.67a10.79,10.79,0,0,1-1.58-1.28,2.08,2.08,0,0,1-.23-1.22,4.43,4.43,0,0,1,0-1.31,1.34,1.34,0,0,1,.54-1.17l1.21,0c0,.42,0,.83,0,1.24s-.13.88.2,1C53.3,28,52.82,29.2,52.89,30.21Z"/><path class="cls-146" d="M47.94,17.8l0,1.18h0a1,1,0,0,1-1.33.06,1,1,0,0,1,0-1.35,1,1,0,0,1,1.33,0Z"/><path class="cls-147" d="M49.17,22.72c0,.42,0,.84,0,1.26s0,.81,0,1.22a1,1,0,0,1,0,1.36,1.16,1.16,0,0,1-1.38.11,1.34,1.34,0,0,1-.52-1.27c0-.8-.29-1.63.2-2.39A.84.84,0,0,1,48,22.7Z"/><path class="cls-148" d="M46.7,19l1.22,0c0,.83,0,1.66,0,2.5a1,1,0,0,1-1.28.14,1.3,1.3,0,0,1-.47-1.24,1.57,1.57,0,0,1,.31-1.29Z"/><path class="cls-149" d="M46.72,21.44l1.18,0L48,22.7l-.13,0a.89.89,0,0,1-1.5-.95A.72.72,0,0,1,46.72,21.44Z"/><path class="cls-150" d="M49.16,26.45c0-.42,0-.83.05-1.25l1.22,0,0,1.23A.84.84,0,0,1,49.16,26.45Z"/><path class="cls-151" d="M45.41,46.41v1.26c-1.55,1.11-3.21.67-4.86.33A1.24,1.24,0,0,1,40,46.76a1.18,1.18,0,0,1,.18-.47c.77-.66,1.21-3.27.65-4.06-.16-.23-.46-.18-.72-.19a9.52,9.52,0,0,1-2.2,0,11.28,11.28,0,0,1-1.3,0,10.14,10.14,0,0,1-2.4,0,9.09,9.09,0,0,1-1.38,0,1.5,1.5,0,0,1-1.33-.51,1.2,1.2,0,0,1,0-1.44c.67-.69,1.53-.41,2.33-.45,2.59,0,5.17,0,7.76,0,1.25.21,2.66-.58,3.75.61l0,1.27c-1,.64-1.93,1.21-1.86,2.79S44.82,45.68,45.41,46.41Z"/><path class="cls-152" d="M45.41,46.41c-.79-.08-2,.44-2.29-.41a6.16,6.16,0,0,1,0-4.13c.31-.85,1.49-.33,2.28-.41C45.4,43.11,45.41,44.76,45.41,46.41Z"/><path class="cls-153" d="M47.91,31.45l-2.45,0a.84.84,0,0,1-.47-.64,7.51,7.51,0,0,1-.16-1.89,9,9,0,0,1,0-2.43,1.89,1.89,0,0,1,.28-1.31,1.24,1.24,0,0,1,1.22-.38,1.15,1.15,0,0,1,.43.21c.8.62,0,2,1.27,2.44a1.22,1.22,0,0,1,.27.41,3.54,3.54,0,0,1,.15,1.29C48.48,30,48.81,30.87,47.91,31.45Z"/><path class="cls-154" d="M45.4,35.17l0,1.25c-.05.08-.1.17-.16.25a6.2,6.2,0,0,1-4.89-.06,1.27,1.27,0,0,1-.21-1.38A2.49,2.49,0,0,0,41.08,33c0-1-.38-2.09.51-2.93a1.26,1.26,0,0,1,1.31,0,1.73,1.73,0,0,1,.67,1.62C43.44,33.19,43.79,34.49,45.4,35.17Z"/><path class="cls-155" d="M45.4,35.17c-2.48.06-2.47.06-2.48-2.34,0-.87,0-1.75,0-2.62L43,30c1.12-.71,1.77-.06,2.34.81,0,.22,0,.44.08.66Z"/><path class="cls-156" d="M41.07,56.35l-.67.07a1.74,1.74,0,0,1-1.5.61c-1.54,0-3.09.06-4.63-.07a1.8,1.8,0,0,1-1.43-.45,1.2,1.2,0,0,1,0-1.46c1.16-.93,2.51-.38,3.78-.5a15.87,15.87,0,0,1,3.77.16.87.87,0,0,1,.67.5Z"/><path class="cls-157" d="M49.16,32.7,49.21,34c0,2.07,0,4.15-.05,6.22a.8.8,0,0,1-1.22,0q0-3.7,0-7.41A.8.8,0,0,1,49.16,32.7Z"/><path class="cls-158" d="M45.42,40.19l-3.8-.07a1,1,0,0,1-.15-1.18c.53-.72,1.32-.62,2.08-.63.6,0,1.24.1,1.55-.64a1,1,0,0,1,.39-.3,1.08,1.08,0,0,1,1.16.33C46.45,38.63,47.34,40.1,45.42,40.19Z"/><path class="cls-159" d="M41.06,55.21l-.65-.09a1,1,0,0,1-.06-1.34,1.76,1.76,0,0,1,1.38-.43c1.27,0,2.58-.43,3.76.4a1,1,0,0,1-.11,1.37Z"/><path class="cls-160" d="M47.94,40.15l1.22,0,0,0a1.56,1.56,0,0,1,.49,1.22,9,9,0,0,1,0,2.38,2.76,2.76,0,0,1-.2,1.3,1.12,1.12,0,0,1-.37.38,1,1,0,0,1-1.22-.24Z"/><path class="cls-161" d="M45.43,51.44v1.17l-.14.25c-1.15.78-2.41.33-3.64.35a1.61,1.61,0,0,1-1.36-.48,1.17,1.17,0,0,1,0-1.44,6,6,0,0,1,4.94-.11Z"/><path class="cls-162" d="M40.45,47.67h5l0,1.2-.13.25c-1.12.78-2.36.32-3.56.35a1.9,1.9,0,0,1-1.34-.33,1,1,0,0,1-.18-1.28Z"/><path class="cls-163" d="M49.16,32.7l-1.23,0c0-.43,0-.86,0-1.29,0-.84,0-1.69,0-2.53a1,1,0,0,1,1.37-.07c.68.76.48,1.66.4,2.54a1.63,1.63,0,0,1-.53,1.32Z"/><path class="cls-164" d="M42.94,56.42c0,.93,0,1.86,0,2.79,0,.37-.07.77-.54.81s-.66-.4-.67-.83c0-.93,0-1.86,0-2.79Z"/><path class="cls-10" d="M47.93,45.19l1.21,0c1,.81.79,1.64.06,2.49l0,1.26-1.23,0C47.93,47.65,47.93,46.42,47.93,45.19Z"/><path class="cls-165" d="M45.38,55.12V53.89a.83.83,0,0,1,0-1.19l0-.09c1,0,1.27.55,1.23,1.47S46.16,55.21,45.38,55.12Z"/><path class="cls-166" d="M45.45,48.87c.89,0,1.24.4,1.23,1.3s-.37,1.3-1.25,1.27l0-.06a1.3,1.3,0,0,1-.46-1.21A1.34,1.34,0,0,1,45.38,49Z"/><path class="cls-167" d="M46.65,37.7l-1.19-.05a.74.74,0,0,1-.06-1.17l0-.06C46.32,36.37,46.77,36.77,46.65,37.7Z"/><path class="cls-168" d="M49.2,47.65l-.06-2.49,0,0a1.78,1.78,0,0,0,.7-1.54,1,1,0,0,1,.58-1l1.18,0,0,2.48c0,.4,0,.8-.05,1.2-.5,0-1,0-1.21.65S49.71,47.66,49.2,47.65Z"/><path class="cls-169" d="M61.64,51.4c0,2.05-1.62,1-2.53,1.27l-1.22-.11c0-.47,0-1,.59-1.14s.65-.72.66-1.25C60.06,50.42,61.58,49.44,61.64,51.4Z"/><path class="cls-170" d="M51.69,50.12H50.44a.78.78,0,0,1,0-1.17C51.33,48.77,51.77,49.15,51.69,50.12Z"/><path class="cls-171" d="M50.39,49c0,.39,0,.78,0,1.17-1,.16-1.39-.25-1.27-1.22Z"/><path class="cls-172" d="M52.94,51.38l-.66.06c-.69-.19-.61-.76-.63-1.27h1.23A.83.83,0,0,1,52.94,51.38Z"/><path class="cls-173" d="M52.94,51.38l-.06-1.2c.92-.13,1.36.25,1.29,1.19Z"/><path class="cls-87" d="M64.13,47.67c0-1-.68-2.41,1.24-2.49.68,0,1.23.11,1.24,1s-.11,1.46-1.1,1.5c-.46,0-.92,0-1.38,0Z"/><path class="cls-87" d="M59.14,47.67c.07-1-.68-2.41,1.24-2.49.68,0,1.23.11,1.24,1s-.12,1.46-1.1,1.5c-.46,0-.92,0-1.38,0Z"/><path class="cls-174" d="M40.1,65.08H38c-.19-.17-.47-.33-.48-.58-.13-2.34-.57-4.69.28-7a1.85,1.85,0,0,1,2.66.13l0,3.74A2.51,2.51,0,0,1,40.1,65.08Z"/><path class="cls-175" d="M40.41,57.64l-2.51,0a1.59,1.59,0,0,1-1.28.51,2.82,2.82,0,0,1-2.5-.4,1,1,0,0,1,.06-1.34l6.22,0C40.41,56.83,40.41,57.24,40.41,57.64Z"/><path class="cls-176" d="M40.1,65.08a14,14,0,0,0,.34-3.7c.93,0,1.25.54,1.23,1.4s0,1.54,0,2.31Z"/><path class="cls-177" d="M34.18,57.64l2.49,0a1.47,1.47,0,0,1,.61,1c0,1.79,0,3.57,0,5.36a1.47,1.47,0,0,1-.58,1l-2.55,0c-.83-.67-.55-1.6-.57-2.46.13-1.61-.41-3.28.35-4.85Z"/><path class="cls-178" d="M32.92,65.09h-1.2a1.17,1.17,0,0,1-.54-1c.15-.92-.85-1-1.16-1.59a5.31,5.31,0,0,1-.16-2.31,7.7,7.7,0,0,1,0-1.36,1.64,1.64,0,0,1,.4-1.31,1.22,1.22,0,0,1,1.33-.13,1.18,1.18,0,0,1,.63,1c-.07.88.5,1.29,1.06,1.75a5.44,5.44,0,0,1,.22,2.5C33.52,63.52,33.81,64.46,32.92,65.09Z"/><path class="cls-179" d="M36.71,65.09c0-2.48,0-5,0-7.43l1.23,0q0,3.69.05,7.4Z"/><path class="cls-180" d="M32.92,65.09,33,62.61a.82.82,0,0,1,1.19,0l0,2.47Z"/><path class="cls-181" d="M31.66,63.92l.06,1.17-1.27,0,0-1.24A.78.78,0,0,1,31.66,63.92Z"/><path class="cls-182" d="M28,57.65c-.94,0-1.26-.51-1.25-1.38,0-1.6,0-3.21,0-4.81,0-.9-.3-1.38-1.25-1.3L25.27,50a1.07,1.07,0,0,1,0-1.14,2.16,2.16,0,0,0,.05-3.5c-.25-.67-.88-1-1.34-1.48a1.3,1.3,0,0,1,0-1.17,5.7,5.7,0,0,0,1.42-1.56A1.18,1.18,0,0,0,26.09,40c0-1.79,0-3.59,0-5.38a1.26,1.26,0,0,0-.75-1.23,1.13,1.13,0,0,1-.28-.37c.05-.88-.84-1.06-1.21-1.62a3.82,3.82,0,0,1-.2-2.29,2.28,2.28,0,0,1,.24-1.33,1.07,1.07,0,0,1,.41-.38,4.72,4.72,0,0,1,2.5-.2,1.59,1.59,0,0,1,1.34.42,3.46,3.46,0,0,1,.4,2.44c0,1.17.07,2.35,0,3.52a1.53,1.53,0,0,0,.8,1.51,1.34,1.34,0,0,1,.19,1.18c-.15.64-1.19.68-1,1.53a3.87,3.87,0,0,1,0,1c-.16.73.45.93.88,1.26a1.15,1.15,0,0,1,.21.43,1.37,1.37,0,0,1-.3,1.2c-.67.32-.73.9-.74,1.56,0,1.87.08,3.74,0,5.6,0,.43,0,.86,0,1.28a8.83,8.83,0,0,1,0,1.26,6.12,6.12,0,0,1,0,1.21,7.1,7.1,0,0,1,0,1.13c-.23.86.67,1,1,1.53a1.29,1.29,0,0,1,0,1.12C29.09,56.91,28.34,57.06,28,57.65Z"/><path class="cls-183" d="M30.38,60.19l.13,2.43a.69.69,0,0,1-.11,1c-.82,0-1.24-.31-1.2-1.17s0-1.53,0-2.3A.78.78,0,0,1,30.38,60.19Z"/><path class="cls-184" d="M30.4,63.59l.11-1c.94-.06,1.28.41,1.16,1.3l-1.18-.05A1.52,1.52,0,0,1,30.4,63.59Z"/><path class="cls-185" d="M30.38,60.19l-1.17-.07c0-.41,0-.83,0-1.24a.78.78,0,0,1,1.17,0Z"/><path class="cls-186" d="M30.4,58.93l-1.17,0c0-.4-.07-.8-.11-1.2l.16-.2a.78.78,0,0,1,1.13.21Z"/><path class="cls-187" d="M28,57.65c-.2-1,.34-1.34,1.23-1.35a.69.69,0,0,1,.31.3.9.9,0,0,1-.23,1l-.15.06Z"/><path class="cls-188" d="M6.79,52.64a6.93,6.93,0,0,0,.91,0c.48,0,1.11.2,1.38-.36.35-.72-.38-.76-.77-1S8,50.55,8,50.15a1.46,1.46,0,0,1,1.43-.45,3.84,3.84,0,0,1,.76.06,13.53,13.53,0,0,0,2.91,1.42c.32.44.57.94,1.27.87a1.32,1.32,0,0,1,1.29.61,1,1,0,0,1-.23,1.19c-2.54,0-5.08,0-7.62.08C6.77,54,6.62,53.5,6.79,52.64Z"/><path class="cls-189" d="M15.47,53.85l0-1.18a.86.86,0,1,1,1.2,1.19l0,.06Z"/><path class="cls-190" d="M49.19,41.4V40.15l1.21,0,0,1.29A.79.79,0,0,1,49.19,41.4Z"/><path class="cls-191" d="M50.48,28.94c.94-.09,1.24.42,1.19,1.27l-.06,1.19-1.14.07-.23-.11a1.71,1.71,0,0,1-.17-2.13A.81.81,0,0,1,50.48,28.94Z"/><path class="cls-192" d="M49.17,32.71V31.48a.77.77,0,0,1,1.16-.05l.13,0C50.47,32.33,50.14,32.86,49.17,32.71Z"/><path class="cls-193" d="M49.19,41.4l1.18.06.09,1.23-.1,1.2a.78.78,0,0,1-1.17.07Z"/><path class="cls-194" d="M8.05,35.18V33.94a13.9,13.9,0,0,1,2.74-1.66,2,2,0,0,1,2.34.21,1.44,1.44,0,0,0,2.16,0A2.2,2.2,0,0,1,18,32.44c.83.59,1.48.81,2.29,0a1.52,1.52,0,0,1,1.32-.28,1.79,1.79,0,0,1,1.89.75,1,1,0,0,0,.94.43,1.73,1.73,0,0,1,1.24.5,5.75,5.75,0,0,1,.2,3.64c-.52.57-1.12,1.06-1.6,1.66-.27.17-.66.31-.88.15-1.27-.93-2.39-.6-3.61.15a1.64,1.64,0,0,1-1.78-.19,1.73,1.73,0,0,0-2.57-.07,2.07,2.07,0,0,1-2.62-.05,1.61,1.61,0,0,0-2.31,0A1.74,1.74,0,0,1,8,38.93V37.7C8.79,36.86,9.53,36,8.05,35.18Z"/><path class="cls-195" d="M8,38.93c1-.1,2,.36,2.71-.92.35-.62,1.47-.61,2.16.15,1,1.05,1.73,1.08,2.59.1a1.53,1.53,0,0,1,2.46,0,1.45,1.45,0,0,0,2.45.12c1-1,1.76-1,2.58,0a1.38,1.38,0,0,0,1.2.52c.83.56.7,1.34.49,2.14a1.35,1.35,0,0,1-.2.44c-.41.38-1.13.54-1,1.34a2.07,2.07,0,0,1-.2,1.07,1.07,1.07,0,0,0,0,1.33c-.11,1.47-.76,1.92-1.91,1.26-1.42-.83-3.25-1-4.17-2.68-.32-.58-.89-.24-1.32.12a2.33,2.33,0,0,1-3.35,0c-.66-.58-1.12-.41-1.75,0-.9.64-1.89.88-2.77-.1V42.69c1.47-1.32,1.47-1.32,0-2.52Z"/><path class="cls-196" d="M8,43.92c1.05,0,2.05.19,2.83-1a1.37,1.37,0,0,1,2.11.35c.83,1.16,1.6,1.12,2.53,0a1.45,1.45,0,0,1,2.48.18c.58,1,1.19,1.93,2.59,1.77a1,1,0,0,1,1,.54c.18.33.37.68.81.58.62-.14.48-.7.54-1.14A.93.93,0,0,1,24,44.81a1.07,1.07,0,0,1,.4.23c.21.69.93.91,1.34,1.42a1.33,1.33,0,0,1,0,1.12c-.36.57-1.16.74-1.36,1.47a1.18,1.18,0,0,1-.4.25,1.56,1.56,0,0,1-1.18-.1c-.64-.61-1.21-1-2.11-.21a2.34,2.34,0,0,1-3.25-.12c-.65-.55-1-.41-1.45.31C15,51,14.14,51,12.66,49.25c-.63-.76-1.13-1.17-1.63.06a1.22,1.22,0,0,1-.15.27,1.72,1.72,0,0,1-.71.57H9.56c-.49-.45-1.18-.64-1.52-1.26V47.68c1.53-1.28,1.53-1.28,0-2.52Z"/><path class="cls-197" d="M21.72,32.68a1.42,1.42,0,0,0-1.29.63A1.47,1.47,0,0,1,18,33.4c-.88-1-1.64-1-2.59,0a1.48,1.48,0,0,1-2.38,0c-.95-1-1.76-1.06-2.57,0-.71.9-1.62.37-2.43.52V31.46c.58-.83,1.43-.63,2.23-.6a3.57,3.57,0,0,0,2.43-.77A2.18,2.18,0,0,1,15.56,30c1.11.92,1.75.47,2.33-.46a1.9,1.9,0,0,1,2.44-1,1.1,1.1,0,0,1,.8,1.59c-.13.58.21.86.65,1.08a1.18,1.18,0,0,1,.27.4A1.06,1.06,0,0,1,21.72,32.68Z"/><path class="cls-82" d="M8,45.16l1.08,0c.7,0,1.38,0,1.35,1s-.34,1.5-1.35,1.48L8,47.68C8,46.84,8,46,8,45.16Z"/><path class="cls-196" d="M8,40.17a4.15,4.15,0,0,1,.61,0c.67.13,1.75-.4,1.76.83a1.54,1.54,0,0,1-1.76,1.66c-.2,0-.41,0-.61,0Z"/><path class="cls-198" d="M8.05,35.18c.77.21,2.17-.46,2.2.56A2.24,2.24,0,0,1,8,37.7Z"/><path class="cls-199" d="M10.45,31.44,8,31.46V29a1,1,0,0,1,1.24-.28c.41.28.63.73,1.06,1A1,1,0,0,1,10.45,31.44Z"/><path class="cls-82" d="M8,48.9a1.45,1.45,0,0,1,1.52,1.26H8Z"/><path class="cls-200" d="M9.22,28.94,8,29c-.16-.92.22-1.36,1.15-1.32l.12.06a.88.88,0,0,1,.23.86A.84.84,0,0,1,9.22,28.94Z"/><path class="cls-201" d="M16.71,26.44l1.28,0a1.59,1.59,0,0,1,.16,2.43c-.73.75-1.48.31-2.11-.32a.87.87,0,0,0-.55-.22,6.05,6.05,0,0,1-2.35-.28,1.12,1.12,0,0,1-.39-.36A1,1,0,0,1,13,26.48Z"/><path class="cls-202" d="M9.29,28.66c0-.31,0-.61,0-.92l1.17-.06a1.63,1.63,0,0,1,2.49,0l0,.12a1,1,0,0,1,.07,1.37C11.48,30,10.36,29.81,9.29,28.66Z"/><path class="cls-203" d="M13,27.65l-2.49,0c.09-2,1.61-1,2.53-1.2C13,26.87,13,27.26,13,27.65Z"/><path class="cls-204" d="M36.69,24c0-1.19.06-2.38,0-3.57s.73-2.23,1.43-3.16c.43-.58,1.15-.4,1,.29-.48,2.18,1.61,3.67,1.36,5.75,0,.35.1.78.57.78s.61-.49.62-.9c0-1.19,0-2.38,0-3.57a1.14,1.14,0,0,1,1.57.42c.36,2.18.66,4.35-.12,6.51a2.45,2.45,0,0,1-2.42.45c-1-1-2.31-1.79-2.17-3.59C37.91,23.67,37.51,24.61,36.69,24Z"/><path class="cls-205" d="M40.42,26.44h2.51l.2.21c.34,1.25-.38,1.55-1.41,1.59a8.4,8.4,0,0,1-1.42.05c-2,0-4,.18-6,0a9.77,9.77,0,0,1-1.43,0,1.59,1.59,0,0,1-1.36-.43,1.13,1.13,0,0,1,0-1.4,1,1,0,0,1,1.34,0h3.79A2.89,2.89,0,0,1,40.42,26.44Z"/><path class="cls-206" d="M42.92,19.91l-1.23-.32c0-1,0-2.06,0-3.09.34-.87-.79-2.48,1.24-2.5l.22.1c.61.76.37,2,1.44,2.51a4.09,4.09,0,0,1,.13,2.4,1.33,1.33,0,0,1-.41,1A1,1,0,0,1,42.92,19.91Z"/><path class="cls-207" d="M40.42,26.44H36.71c0-.82,0-1.65,0-2.47.86-.15,1.16-.76,1.31-1.53.09-.39.24-.89.78-.78s.48.6.37.9C38.6,24.19,40.25,25.07,40.42,26.44Z"/><path class="cls-208" d="M34.17,19c0,1.09,0,2.18,0,3.26A1.85,1.85,0,0,1,33,24.3a.86.86,0,0,1-.47-.64,5.55,5.55,0,0,1-.14-2.15,9,9,0,0,1,0-1.37,1.48,1.48,0,0,1,.44-1.31A1,1,0,0,1,34.17,19Z"/><path class="cls-209" d="M32.91,23.63l.06.67c0,.71,0,1.43,0,2.14l-1.21.1-.25-.17a2.39,2.39,0,0,1,.07-2.82A1,1,0,0,1,32.91,23.63Z"/><path class="cls-210" d="M35.41,12.72c-.23.92.79,2.42-1.18,2.54-.52-.27-.56-.76-.54-1.26a1.54,1.54,0,0,1,.36-1.38A1,1,0,0,1,35.41,12.72Z"/><path class="cls-211" d="M34.17,19,33,19c-.53-.27-.56-.75-.55-1.26a1.55,1.55,0,0,1,.36-1.37,1,1,0,0,1,1.35.08Z"/><path class="cls-212" d="M34.15,16.45,33,16.51c-1-.83-.8-1.68,0-2.53h0a.87.87,0,0,1,1.23,0c0,.44.05.87.07,1.3S34.18,16.06,34.15,16.45Z"/><path class="cls-213" d="M35.41,12.72l-1.16,0a.83.83,0,0,1-.07-1.28h1.24Z"/><path class="cls-214" d="M28,16.53l1.21-.07a1.21,1.21,0,0,1,.5,1.26,1.54,1.54,0,0,1-.37,1.36,1.06,1.06,0,0,1-1.36,0l-.05-.11C27.93,18.14,28,17.33,28,16.53Z"/><path class="cls-215" d="M29.23,17.75c0-.43,0-.86,0-1.29s0-.84-.05-1.26.07-.8.11-1.2a.83.83,0,0,1,1.2,0v0A1.45,1.45,0,0,1,31,15.2a5.24,5.24,0,0,1,0,1.37,1.47,1.47,0,0,1-.43,1.3A1,1,0,0,1,29.23,17.75Z"/><path class="cls-216" d="M30.45,14l-1.2,0c0-.41,0-.83,0-1.24l1.17,0C30.42,13.14,30.44,13.55,30.45,14Z"/><path class="cls-217" d="M34.18,11.49c0,.43,0,.85.07,1.28L34.16,14l-1.23,0L33,11.54Z"/><path class="cls-218" d="M30.49,15.26l0-1.26,1.17,0,.13,0a1,1,0,0,1,0,1.32A.93.93,0,0,1,30.49,15.26Z"/><path class="cls-219" d="M31.65,15.2c0-.4.07-.8.11-1.2L33,14l0,2.53c0,.4,0,.8-.08,1.2-.87.7-.48,1.74-.68,2.62a1.68,1.68,0,0,1-.29,1.19,1.19,1.19,0,0,1-.46.3c-1.13.14-1.57-.45-1.57-1.49a5.88,5.88,0,0,1,0-1.39,1.57,1.57,0,0,1,.49-1.24l.11-1.18C30.81,16,31.32,15.69,31.65,15.2Z"/><path class="cls-220" d="M9.29,28.66A11.52,11.52,0,0,0,13,29c.55-.95,1.89-.27,2.46-1.2.45,0,.94-.09,1.23.41.21.34.39.8.9.61s.34-.68.37-1.07,0-.82,0-1.23l2.45,0h0a1.58,1.58,0,0,1,0,2.51c-1.32-.26-2,.44-2.44,1.57a1.38,1.38,0,0,1-2.5.34c-.69-1-1.83-1-2.22-.38-.8,1.24-1.83.89-2.86,1,0-.51.05-1-.61-1.24s-.56-.77-.62-1.26A2.29,2.29,0,0,1,9.29,28.66Z"/><path class="cls-221" d="M20.47,29V26.45c.9-.28,2.47.82,2.49-1.23l2.45,0a1,1,0,0,1,.38,1.12c-.23.78-1.2.77-1.54,1.43l0,0a4.51,4.51,0,0,0-1.08,1.44,1.26,1.26,0,0,1-.44.24A1.56,1.56,0,0,1,20.78,29Z"/><path class="cls-222" d="M25.44,26.44l0-1.25c0-.4.08-.8.13-1.2l1.13,0a1,1,0,0,1,.54,1.12A2,2,0,0,1,27,26.38a1.06,1.06,0,0,1-.39.37A1,1,0,0,1,25.44,26.44Z"/><path class="cls-223" d="M46.64,15.25l0,1.17-.13.22a1,1,0,0,1-1.16,0,.91.91,0,0,1-.3-.42,1.06,1.06,0,0,1,.35-1.2,1,1,0,0,1,1.24.16Z"/><path class="cls-224" d="M47.89,17.66l-1.19.09-.19-.14a.77.77,0,0,1,.16-1.06v-.13l1.23.12Z"/><path class="cls-225" d="M42.94,12.72l1.21,0,.2.18a.92.92,0,0,1-.19,1.21A1,1,0,0,1,42.93,14l0,0C42.91,13.57,42.93,13.15,42.94,12.72Z"/><path class="cls-226" d="M28,19.05l1.2-.09.23.13a1.64,1.64,0,0,1,.36,1.26,3.12,3.12,0,0,1-.31,2.37,1.17,1.17,0,0,1-1.27.33,1,1,0,0,1-.43-.34,1,1,0,0,1,.19-1.24Z"/><path class="cls-227" d="M27.93,21.47v1.28a.81.81,0,0,1-1.18,0c0-.43,0-.86,0-1.29Z"/><path class="cls-228" d="M26.74,22.75h1.18l0,0a1.8,1.8,0,0,1,.18,2.56,1,1,0,0,1-1.42-.08c0-.41,0-.83,0-1.25S26.71,23.15,26.74,22.75Z"/><path class="cls-229" d="M46.67,15.22H45.44l-.2-.13A1,1,0,0,1,45.18,14a.9.9,0,0,1,.37-.3,1,1,0,0,1,1.08.3Z"/><path class="cls-230" d="M46.63,14H45.45a.75.75,0,0,1-.21-1.08l.19-.16,1.21-.05Z"/><path class="cls-231" d="M47.89,11.49l-1.2,0c0-.42,0-.84,0-1.25l1.26,0C47.9,10.66,47.9,11.07,47.89,11.49Z"/><path class="cls-232" d="M44.15,12.75l0-1.2,1.23-.06c0,.42,0,.84,0,1.26h0a.86.86,0,0,1-1.22,0Z"/><path class="cls-233" d="M49.14,29l-1.21-.07V27.7a1.48,1.48,0,0,1,2.44,0c0,.4.07.8.11,1.2l-.15,0A.82.82,0,0,1,49.14,29Z"/><path class="cls-234" d="M50.37,27.74l-2.44,0h0a.81.81,0,0,1,0-1.23l1.21,0H50.4Z"/><path class="cls-235" d="M46.7,17.75V19l-.09,0a.89.89,0,0,1-1.3,0,1,1,0,0,1,0-1.35.92.92,0,0,1,1.32.05Z"/><path class="cls-236" d="M48,26.48c0,.41,0,.82,0,1.23-2.06,0-1-1.59-1.25-2.5a.81.81,0,0,1,1.22,0Z"/><path class="cls-237" d="M47.88,25.19l-1.22,0h0a1.57,1.57,0,0,1,0-2.53l1.18.06C47.87,23.56,47.87,24.37,47.88,25.19Z"/><path class="cls-238" d="M45.44,19l1.17,0v1.26a.91.91,0,0,1-1.22.12,1,1,0,0,1-.16-1.24Z"/><path class="cls-239" d="M45.42,20.22l1.19,0c0,.4.07.8.11,1.2l-.15,0a.86.86,0,0,1-1.2.16,1,1,0,0,1-.15-1.22Z"/><path class="cls-240" d="M45.42,21.47h1.15c0,.41.07.82.11,1.22l0,2.53H45.47c-.54-.27-.57-.77-.6-1.28C44.86,23.08,44.47,22.13,45.42,21.47Z"/><path class="cls-241" d="M34.18,41.44h2.53c.95.79.51,1.88.59,2.86.05.69-.15,1.46.71,1.83a1.2,1.2,0,0,1,.29.47A1.32,1.32,0,0,1,37.94,48,8,8,0,0,1,33,48a1.25,1.25,0,0,1-.21-1.78c.85-.37.73-1.12.78-1.85C33.64,43.36,33.2,42.25,34.18,41.44Z"/><path class="cls-242" d="M37.94,41.45H40.4a4.93,4.93,0,0,1,0,5h0a1.59,1.59,0,0,1-2.51,0h0A5,5,0,0,1,37.94,41.45Z"/><path class="cls-243" d="M41.69,39c0,.38,0,.75-.07,1.13H33.86a1,1,0,0,1-.11-1.32,1.15,1.15,0,0,1,.48-.3,28.51,28.51,0,0,1,5.84-.15c.43.08.9,0,1.3.22A.81.81,0,0,1,41.69,39Z"/><path class="cls-244" d="M34.18,41.44c0,1.24,0,2.47,0,3.7,0,.92-.33,1.36-1.27,1.28a5.06,5.06,0,0,1,0-5Z"/><path class="cls-245" d="M32.93,41.45v5h0a1,1,0,0,1-1.36.1c-.94-1.55-.67-3.17-.28-4.8a1,1,0,0,1,.44-.38Z"/><path class="cls-246" d="M37.94,41.45c0,1.65,0,3.31,0,5-.94.09-1.29-.37-1.25-1.28,0-1.23,0-2.46,0-3.69Z"/><path class="cls-247" d="M40.44,46.43c0-1.66,0-3.32,0-5,.8-.07,1.3.17,1.27,1.08s0,1.85,0,2.77S41.24,46.48,40.44,46.43Z"/><path class="cls-248" d="M33.89,39l0,1.16-2.12.1a1.71,1.71,0,0,1-2.57,0h0A1.09,1.09,0,0,1,29,38.88a1.13,1.13,0,0,1,.45-.36C31,38.38,32.51,37.77,33.89,39Z"/><path class="cls-249" d="M29.17,40.21l2.57,0v1.12a.64.64,0,0,0-.08.14,1.71,1.71,0,0,1-2.23.3.89.89,0,0,1-.33-.41Z"/><path class="cls-250" d="M37.92,46.43h2.51c0,.42,0,.84,0,1.25h0a1.54,1.54,0,0,1-2.49,0Z"/><path class="cls-251" d="M45.37,24c0,.4.07.81.1,1.22s0,.81-.07,1.21a1.56,1.56,0,0,1-2.49.05l0,0c0-2.18,0-4.36,0-6.54h1.23a.79.79,0,0,1,.36.29,3.76,3.76,0,0,1,.27,2.12A2,2,0,0,0,45.37,24Z"/><path class="cls-252" d="M42.91,26.48l2.49-.05c0,.84,0,1.69,0,2.53-.55.95-1.91.27-2.45,1.23l-.07,0h-1.2c-.94-.82-.78-1.65,0-2.49C42.55,27.78,43,27.42,42.91,26.48Z"/><path class="cls-253" d="M43,30.19c0-2.07,1.57-1,2.45-1.23l0,1.85A5,5,0,0,0,43,30.19Z"/><path class="cls-254" d="M41.66,27.72l0,2.49c0,1.23,0,2.47,0,3.7,0,.9-.32,1.34-1.23,1.33l-.25-.15c-.89-2-.4-4-.32-6.06a1.6,1.6,0,0,1,.55-1.31Z"/><path class="cls-255" d="M45.4,36.48l.06,1.17-.08.07c-1,1-2.24.47-3.39.54-.42-.07-.88.07-1.29-.14a1.29,1.29,0,0,1-.42-.26,1.12,1.12,0,0,1-.17-1.16.68.68,0,0,1,.34-.33Z"/><path class="cls-256" d="M40.45,35.24v1.13l0,.11a1.83,1.83,0,0,1-2.58.13,1.25,1.25,0,0,1,0-1.51,1.76,1.76,0,0,1,2.58,0Z"/><path class="cls-257" d="M36.71,55.09l-3.77.13-.2-.19a1.06,1.06,0,0,1,.13-1.33,1.76,1.76,0,0,1,1.36-.35c.87-.05,1.76-.26,2.51.4A1,1,0,0,1,36.71,55.09Z"/><path class="cls-258" d="M29.19,56.3l0-1.06.12-.25c.71-.71,1.58-.41,2.4-.37A1.59,1.59,0,0,1,33,55.1v.12c0,.37,0,.74,0,1.11l-.12.25a1.61,1.61,0,0,1-1.28.38c-.83.07-1.67.24-2.32-.5A.18.18,0,0,0,29.19,56.3Z"/><path class="cls-259" d="M36.71,55.09l0-1.16c0-.08.09-.16.14-.23a3.72,3.72,0,0,1,3.33-.15.84.84,0,0,1,.31.43l-.05,1.14Z"/><path class="cls-260" d="M34.18,56.45v1.19l0,0a1,1,0,0,1-1.14.27A.85.85,0,0,1,33,56.46l0-.13Z"/><path class="cls-261" d="M41.66,37.71h3.72c.15.86-.21,1.24-1.08,1.22s-1.74,0-2.61.05l0-.12A.79.79,0,0,1,41.66,37.71Z"/><path class="cls-262" d="M45.39,52.7c0,.4,0,.79,0,1.19H41.65a.83.83,0,0,1,0-1.19Z"/><path class="cls-263" d="M41.65,52.7v1.19L40.46,54l-.06-.12a.86.86,0,0,1-.27-1,.76.76,0,0,1,.29-.3Z"/><path class="cls-264" d="M49.19,44l1.17-.07c.16.94-.21,1.39-1.18,1.3Z"/><path class="cls-265" d="M40.45,51.48l0,1.11v.14c-1.1,1-2.43.4-3.65.53a19,19,0,0,1-2.61,0,1.63,1.63,0,0,1-1.38-.46,1.22,1.22,0,0,1,0-1.45c1.53-1,3.23-.34,4.85-.49.82.07,1.67-.24,2.45.22A.81.81,0,0,1,40.45,51.48Z"/><path class="cls-266" d="M45.39,50.14c0,.41,0,.83,0,1.24l-4.95.1,0-.1A1,1,0,0,1,40.35,50a1.71,1.71,0,0,1,1.38-.43C43,49.68,44.3,49.06,45.39,50.14Z"/><path class="cls-267" d="M37.93,47.67h2.49c0,.39,0,.78,0,1.17l-.13.26c-1.12.84-2.39.29-3.59.41a13.49,13.49,0,0,1-3.59-.15,1.29,1.29,0,0,1-.49-.26A1,1,0,0,1,33,47.66Z"/><path class="cls-268" d="M45.39,50.14H41.65a.82.82,0,0,1,0-1.18h3.73C45.38,49.35,45.39,49.74,45.39,50.14Z"/><path class="cls-269" d="M41.65,49v1.18l-1.19.1-.2-.15A.83.83,0,0,1,40.43,49v-.14Z"/><path class="cls-270" d="M49.14,29l1.19,0c0,.82,0,1.64,0,2.46l-1.16.05C49.17,30.65,49.16,29.82,49.14,29Z"/><path class="cls-271" d="M33,57.67H34.2c0,1.66,0,3.31,0,5l-1.19,0c0-.81-.08-1.62-.11-2.44C32.21,59.31,32,58.47,33,57.67Z"/><path class="cls-272" d="M33,57.67l-.09,2.5c-1.95-.11-.91-1.62-1.2-2.52l.15-.18a.78.78,0,0,1,1,.14Z"/><path class="cls-273" d="M29.21,56.46h2.47a.83.83,0,0,1,0,1.2h0l-1.28,0-1.14-.07Z"/><path class="cls-274" d="M33,47.66l-.32,1.19a1,1,0,0,1-.91.56,6.89,6.89,0,0,1-2.48,0A1.48,1.48,0,0,1,28,49c0-2.06,0-4.11,0-6.17,0-.85.19-1.42,1.16-1.4l.14.08c1.16,1.35.51,2.94.58,4.44s.45,1.48,1.67.59l.2-.07h1.25C32.94,46.83,32.94,47.25,33,47.66Z"/><path class="cls-275" d="M25.41,37.67V34a.73.73,0,0,1,.07-1c.95.16,1.25.75,1.23,1.66,0,1.82,0,3.63,0,5.45,0,.88-.26,1.4-1.22,1.36l-.26-.16A3.27,3.27,0,0,1,25.41,37.67Z"/><path class="cls-276" d="M29.09,35.23c-.85,0-1.17-.39-1.14-1.22,0-1.27,0-2.55,0-3.83a1,1,0,0,1,1.36-.09c.82,1.56.54,3.18.21,4.8A1.08,1.08,0,0,1,29.09,35.23Z"/><path class="cls-277" d="M32.93,51.47v1.14a1.17,1.17,0,0,1-1.2.59,9.1,9.1,0,0,1-2.5,0A1.54,1.54,0,0,1,28,52.7V51.39a1.39,1.39,0,0,1,1.17-.5,7.27,7.27,0,0,1,2.28,0c.41.06.84,0,1.22.21A.74.74,0,0,1,32.93,51.47Z"/><path class="cls-278" d="M24.2,29l.05,2.49-.17.24a1.61,1.61,0,0,1-2.36-.24h0A1,1,0,0,1,22,29.68,5.16,5.16,0,0,0,23,29h0A.85.85,0,0,1,24.2,29Z"/><path class="cls-279" d="M25.42,47.65V46.43a.88.88,0,0,1-.24-1,.65.65,0,0,1,.34-.27c1.52,0,1.15,1.13,1.18,2S26.92,49,25.53,49l-.22-.14A.89.89,0,0,1,25.42,47.65Z"/><path class="cls-280" d="M29.14,36.38c0-.38,0-.77-.05-1.15a.44.44,0,0,1,.16-.06,1.42,1.42,0,0,1,1.26-.47,1.43,1.43,0,0,1,1.32.4,1.22,1.22,0,0,1,.07,1.39,1.94,1.94,0,0,1-2.4.33A.87.87,0,0,1,29.14,36.38Z"/><path class="cls-281" d="M28,27.71l-1.3,0a.85.85,0,0,1,0-1.21h0A1.38,1.38,0,0,1,27.91,26a1.65,1.65,0,0,1,1.31.27,1.16,1.16,0,0,1,.3,1.27,1,1,0,0,1-.33.42A1,1,0,0,1,28,27.71Z"/><path class="cls-282" d="M26.68,26.46c0,.4,0,.81,0,1.22l-2.42.06c-.17-.95.28-1.34,1.19-1.3Z"/><path class="cls-283" d="M28,27.71H29.2c.5.29.5.77.48,1.27a1.12,1.12,0,0,1-.54,1.24l-1.15,0C28,29.36,28,28.54,28,27.71Z"/><path class="cls-284" d="M28,49h1.23A.86.86,0,1,1,28,50.15Z"/><path class="cls-285" d="M28,50.15l1.2,0,.18.15a.8.8,0,0,1-.15,1.06H28Z"/><path class="cls-286" d="M28,52.7h1.24a1,1,0,0,1,.25,1.13.88.88,0,0,1-.35.34A1,1,0,0,1,28,53.9Z"/><path class="cls-287" d="M28,53.9l1.13,0a.72.72,0,0,1,.09,1.17l0,.14C28.28,55.22,27.77,54.88,28,53.9Z"/><path class="cls-288" d="M28,38.9V37.72a.87.87,0,0,1,1.26-.1.89.89,0,0,1,0,1.28l0,.14A.85.85,0,0,1,28,38.9Z"/><path class="cls-289" d="M28,38.9l1.2.14c0,.39,0,.77,0,1.16C28.2,40.31,27.82,39.86,28,38.9Z"/><path class="cls-290" d="M25.49,41.46c0,.82-.29,1.32-1.2,1.22l-.22-.12a.87.87,0,0,1,.12-1.14l0,0a.82.82,0,0,1,1.18-.06Z"/><path class="cls-291" d="M23,43.93V42.7a.78.78,0,0,1,1.17,0h.14c0,.41,0,.82,0,1.22-.06.07-.11.14-.17.2A.82.82,0,0,1,23,43.93Z"/><path class="cls-292" d="M24.28,43.9c.9-.09,1.23.41,1.24,1.24l-.11.07a.83.83,0,0,1-1.2,0h0A.86.86,0,0,1,24.14,44Z"/><path class="cls-293" d="M25.46,50.16l-1.28,0a.83.83,0,0,1,0-1.2h0a.83.83,0,0,1,1.2,0l.12.06C25.5,49.35,25.48,49.76,25.46,50.16Z"/><path class="cls-294" d="M24.2,29,23,29c-.1-.93.29-1.37,1.24-1.25C24.21,28.13,24.2,28.54,24.2,29Z"/><path class="cls-295" d="M24.25,31.44c.91-.07,1.3.37,1.2,1.27a.9.9,0,1,1-1.33-1.22Z"/><path class="cls-296" d="M24.22,32.69l1.23,0,0,.28c0,.34-.05.67-.07,1l-1.19-.06A.83.83,0,0,1,24.22,32.69Z"/><path class="cls-297" d="M29.21,37.7l-1.22,0c-.17-.92.2-1.38,1.15-1.34l.1.1a.83.83,0,0,1,.15,1.07Z"/><path class="cls-298" d="M21.68,51.37l-1.2.11-.21-.19a1,1,0,0,1,0-1.07,1,1,0,0,1,1.54-.15A.93.93,0,0,1,21.68,51.37Z"/><path class="cls-299" d="M21.68,51.37l.07-1.18a.72.72,0,0,1,1-.29.61.61,0,0,1,.27.34C23.06,51.21,22.57,51.52,21.68,51.37Z"/><path class="cls-300" d="M19.19,52.62,18,52.73l-.2-.15a1.05,1.05,0,0,1,0-1.2,1,1,0,0,1,.43-.31,1.09,1.09,0,0,1,1.22.32A1,1,0,0,1,19.19,52.62Z"/><path class="cls-301" d="M19.19,52.62l.06-1.19a.83.83,0,0,1,1.21-.11c0,.06,0,.11,0,.16C20.58,52.47,20.09,52.77,19.19,52.62Z"/><path class="cls-302" d="M16.69,53.86l.06-1.17A.84.84,0,0,1,18,52.57a.43.43,0,0,1,0,.16C18.09,53.72,17.59,54,16.69,53.86Z"/><path class="cls-303" d="M24.22,48.93c0,.4,0,.8,0,1.2l-1.2.11c0-.05,0-.11,0-.16a.72.72,0,0,1,0-1.14Z"/><path class="cls-82" d="M23,48.94l0,1.14-1.2.11a1.61,1.61,0,0,0-1.29.29c-.71.63-1.92-.08-2.48.94h0a5,5,0,0,1-5,0c-1.11,0-2.42.35-2.82-1.27a10.62,10.62,0,0,0,.29-1.36c.06-.64.22-1.12,1-1.11s1.36-.11,1.59.82a2.24,2.24,0,0,0,.59.89c.93,1,1.36.89,1.75-.41.16-.52,0-1.22.86-1.28a1.81,1.81,0,0,1,1.86.7,1.35,1.35,0,0,0,2.4-.2c.47-.75,1.17-.54,1.81-.47S22.93,48.43,23,48.94Z"/><path class="cls-304" d="M13,51.42h5c0,.39,0,.77,0,1.16l-1.22.12-1.26,0C14.61,52.35,13,53.47,13,51.42Z"/><path class="cls-305" d="M25.4,41.38l-1.18.06,0-2.49c-.05-.87.3-1.35,1.22-1.28C25.41,38.91,25.4,40.15,25.4,41.38Z"/><path class="cls-220" d="M24.22,32.69v1.25c-.52,0-1.06,0-1.25-.62s-.74-.61-1.25-.64V31.44l2.4,0C24.16,31.89,24.19,32.29,24.22,32.69Z"/><path class="cls-306" d="M24.14,44c0,.4.05.81.08,1.21l-1.25,0c-.46-.08-1.14.11-1.14-.63S22.5,44,23,43.93Z"/><path class="cls-307" d="M24.15,42.67,23,42.7c-.12-.92.29-1.35,1.21-1.28C24.18,41.84,24.16,42.26,24.15,42.67Z"/><path class="cls-308" d="M24.21,45.17l1.2,0c0,.41,0,.82,0,1.22C24.51,46.5,24.13,46.06,24.21,45.17Z"/><path class="cls-309" d="M25.41,48.89l-1.2,0c-.09-.89.29-1.33,1.21-1.27C25.41,48.07,25.41,48.48,25.41,48.89Z"/><path class="cls-220" d="M23,29c0,.5.05,1.06-.61,1.25s-.62.72-.63,1.23c-2.16-.12-1-1.52-.94-2.48Z"/><path class="cls-107" d="M15.45,27.75c0,2-1.6.89-2.46,1.2,0-.39,0-.79,0-1.18Z"/><path class="cls-310" d="M40.43,27.72V29a1.68,1.68,0,0,1-1.62.65,2.15,2.15,0,0,0-2.21.94A2.27,2.27,0,0,1,34,30.33a1.81,1.81,0,0,1,.14-2.58Z"/><path class="cls-311" d="M29.22,29l0-1.26,0,0a1.67,1.67,0,0,1,2.53,0l1.2.11a1.7,1.7,0,0,1,.33,2.36,1.25,1.25,0,0,1-1.69.28C31.18,29.27,29.74,29.86,29.22,29Z"/><path class="cls-312" d="M32.9,30.16V27.77l1.27,0v2.43l-.12.19a.84.84,0,0,1-.86.12A.68.68,0,0,1,32.9,30.16Z"/><path class="cls-313" d="M31.71,27.66l-2.53,0V26.56l.09-.24A1.35,1.35,0,0,1,30.49,26a1.32,1.32,0,0,1,1.17.42.88.88,0,0,0,.05.15Z"/><path class="cls-314" d="M45.45,17.71c0,.41,0,.83,0,1.24l0,0a.84.84,0,0,1-1.21,0l-.06-2.48.16-.18a.87.87,0,0,1,1.11.17h0A.9.9,0,0,1,45.45,17.71Z"/><path class="cls-315" d="M42.93,14h1.22l.22.14a1.47,1.47,0,0,1,.3,1.23,1.29,1.29,0,0,1-.49,1.15h0C42.13,16.43,43.2,14.88,42.93,14Z"/><path class="cls-239" d="M44.2,19l1.21,0c0,.41,0,.83,0,1.24h0a.88.88,0,0,1-1.24,0l0-.3C44.17,19.6,44.18,19.28,44.2,19Z"/><path class="cls-316" d="M31.72,20.24c.22-.92-.76-2.41,1.18-2.53L33,19c0,.4-.06.8-.1,1.2A.79.79,0,0,1,31.72,20.24Z"/><path class="cls-317" d="M32.91,23.63l-1.16,0a.89.89,0,0,1-.41-.38,1.46,1.46,0,0,1,.32-1.84l.07,0a.8.8,0,0,1,1.18,0Z"/><path class="cls-318" d="M32.91,21.45l-1.18,0c0-.41,0-.83,0-1.25l1.17,0C32.9,20.62,32.91,21,32.91,21.45Z"/><path class="cls-319" d="M31.64,23.32c0,.12.07.23.11.35l-.09,2.72H30.43a2.42,2.42,0,0,1-.19-3.11A1,1,0,0,1,31.64,23.32Z"/><path class="cls-320" d="M30.4,17.7V19a.73.73,0,0,1-1.12,0l-.12,0c0-.41.05-.81.07-1.21Z"/><path class="cls-321" d="M31.65,15.2c.14.9-.18,1.39-1.14,1.32,0-.42,0-.84,0-1.26Z"/><path class="cls-322" d="M31.64,23.32l-1.18,0a1.59,1.59,0,0,1-1.12-.29.72.72,0,0,1-.21-.33l.13-2.48a.78.78,0,0,1,1.17,0c0,.86.28,1.37,1.23,1.24C31.66,22.08,31.65,22.7,31.64,23.32Z"/><path class="cls-323" d="M30.43,20.21l-1.17,0c0-.42,0-.84,0-1.26l1.12,0Z"/><path class="cls-324" d="M28,26.42l-1.28,0,0-1.25H27.9A.79.79,0,0,1,28,26.42Z"/><path class="cls-325" d="M44.18,16.49V15.22a.87.87,0,0,1,1.23,0l0,0,0,1.25Z"/><path class="cls-326" d="M45.45,17.71c0-.42,0-.83,0-1.25l1.23.09c0,.39,0,.77-.05,1.16Z"/><path class="cls-327" d="M44.19,12.73h1.22c0,.42,0,.83,0,1.25h-.07a.82.82,0,0,1-1.18,0l-.05,0C44.16,13.56,44.17,13.14,44.19,12.73Z"/><path class="cls-328" d="M28,26.42c0-.41,0-.82-.07-1.23L28,22.72h1.17l.13,0a3,3,0,0,1-.06,3.69.29.29,0,0,1,0,.16Z"/><path class="cls-329" d="M44.2,14l1.18,0,0,1.26-1.23,0C44.19,14.81,44.19,14.4,44.2,14Z"/><path class="cls-330" d="M44.18,20.22h1.24v1.25c0,.84,0,1.69-.05,2.53-.8,0-1.23-.32-1.2-1.19S44.18,21.08,44.18,20.22Z"/><path class="cls-331" d="M40.39,38.87l-6.22,0a1,1,0,0,1,0-1.42c2.11-.57,4.22-.85,6.28.19l0,.06A.74.74,0,0,1,40.39,38.87Z"/><path class="cls-332" d="M34.17,37.74v1.15l-.28.08-4.68-.07V37.7l0,0c1.21-1.07,2.63-.51,4-.48A1.14,1.14,0,0,1,34.17,37.74Z"/><path class="cls-333" d="M40.39,38.87l0-1.15h1.25c0,.39,0,.77,0,1.16Z"/><path class="cls-334" d="M29.23,46.39V41.46l2.42,0,0,4.93,0,0A1.49,1.49,0,0,1,29.23,46.39Z"/><path class="cls-335" d="M36.69,30.19c-.08-.93.39-1.28,1.28-1.24s1.63,0,2.45,0l0,6.18-2.48.09-.2-.12c-.71-.87-.31-1.9-.39-2.86-.06-.65.13-1.37-.55-1.84C36.75,30.34,36.72,30.27,36.69,30.19Z"/><path class="cls-336" d="M34.17,37.74l-.91-.09a1,1,0,0,1-.06-1.41,5.06,5.06,0,0,1,4.72.15l2.49.09,0,1.18Z"/><path class="cls-337" d="M37.92,36.39l-4.68.1c-.53.4-1,.49-1.5-.09l0-1.2c0-.07.09-.14.13-.22A1.59,1.59,0,0,1,33,34.66a6.07,6.07,0,0,1,1.28,0,7.44,7.44,0,0,1,2.4,0,1.5,1.5,0,0,1,1.22.52l0,0C37.91,35.61,37.91,36,37.92,36.39Z"/><path class="cls-338" d="M34.17,52.71H36.7a.73.73,0,0,1,0,1.11l0,.1-2.52-.07A.78.78,0,0,1,34.17,52.71Z"/><path class="cls-339" d="M34.17,52.71c0,.39,0,.77,0,1.15L33,54a1.07,1.07,0,0,1-1.16.24.87.87,0,0,1-.37-.34,1,1,0,0,1,.25-1.16l1.25-.09Z"/><path class="cls-340" d="M31.74,54H33c0,.38,0,.76,0,1.14H31.68A.71.71,0,0,1,31.74,54Z"/><path class="cls-341" d="M31.74,54l-.06,1.13H29.21l-.09-1.17.14,0a1.53,1.53,0,0,1,2.4,0Z"/><path class="cls-342" d="M31.7,57.65l0-1.2H33c0,.39-.05.77-.07,1.15Z"/><path class="cls-343" d="M36.7,53.83V52.72h3.73l0,1.13Z"/><path class="cls-344" d="M37.91,51.37l-5,.1v-.09a1,1,0,0,1-.21-1.25,1.1,1.1,0,0,1,.41-.36,9.19,9.19,0,0,1,3.58-.16,1.56,1.56,0,0,1,1.33.43A1,1,0,0,1,37.91,51.37Z"/><path class="cls-345" d="M37.91,51.37V50.22c.79-1,1.64-.82,2.5-.11l.06.13c0,.38,0,.76,0,1.14Z"/><path class="cls-346" d="M36.69,50.1l-3.76,0a.8.8,0,0,1,0-1.2l3.75,0A.74.74,0,0,1,36.69,50.1Z"/><path class="cls-347" d="M36.69,50.1V49h3.74l0,1.13-2.5.11Z"/><path class="cls-348" d="M32.94,49v1.2l0,.05a1.05,1.05,0,0,1-1.15.26.94.94,0,0,1-.37-.34A1,1,0,0,1,31.67,49l1-.11Z"/><path class="cls-349" d="M31.67,49v1.13c-.79,1-1.61.82-2.46.07h0l0-1.22Z"/><path class="cls-350" d="M29.23,46.39h2.44c.14,1-.37,1.29-1.31,1.3S29.13,47.23,29.23,46.39Z"/><path class="cls-351" d="M29.22,29c.86.29,2.5-.94,2.4,1.23-.77.85-.52,1.89-.55,2.88,0,.75.14,1.55-.63,2.06l-1.19,0-.11-5Z"/><path class="cls-352" d="M29.2,50.16l2.46-.07.05.13a.75.75,0,0,1,0,1.15H29.22C29.21,51,29.21,50.57,29.2,50.16Z"/><path class="cls-353" d="M31.66,53.85l-2.4,0c0-.39,0-.79,0-1.18h2.47Z"/><path class="cls-354" d="M31.67,51.37c0-.38,0-.76,0-1.15l1.25,0c0,.4,0,.79,0,1.18Z"/><path class="cls-355" d="M30.44,35.14c0-1.24,0-2.48,0-3.73,0-.84.31-1.27,1.18-1.21h.12a5.13,5.13,0,0,1,0,5h0Z"/><path class="cls-356" d="M31.74,36.4l1.5.09,0,1.16-4.07,0c0-.4,0-.79,0-1.19Z"/><path class="cls-357" d="M18,51.42c.15-2.09,1.46-1.13,2.48-.94,0,.28,0,.56,0,.85l-1.21.1Z"/><path class="cls-358" d="M36.72,35.17H34.18a5,5,0,0,1,0-5v0h2.51A5.11,5.11,0,0,1,36.72,35.17Z"/><path class="cls-245" d="M31.69,35.19c0-1.66,0-3.32,0-5l1.16-.05.07.07a5,5,0,0,1,0,4.95Z"/><path class="cls-359" d="M32.93,35.18c0-1.65,0-3.3,0-4.95l1.22,0c0,1.66,0,3.31,0,5Z"/><path class="cls-360" d="M29.2,26.4l.06-3.69c.51,0,1,0,1.2.64l0,3Z"/><path class="cls-361" d="M36.72,35.17l0-5c1-.09,1.27.39,1.25,1.29,0,1.23,0,2.46,0,3.69Z"/></g></g></svg>