<svg xmlns="http://www.w3.org/2000/svg" viewBox="0 0 74 74"><defs><style>.cls-1{fill:#1e2223;}.cls-2{fill:#444d46;}.cls-3{fill:#5f614f;}.cls-4{fill:#b8b891;}.cls-5{fill:#242e30;}.cls-6{fill:#3d4743;}.cls-7{fill:#212b2c;}.cls-8{fill:#737961;}.cls-9{fill:#837050;}.cls-10{fill:#a07d59;}.cls-11{fill:#202a2c;}.cls-12{fill:#959a7e;}.cls-13{fill:#2b3536;}.cls-14{fill:#293335;}.cls-15{fill:#404a43;}.cls-16{fill:#8c9276;}.cls-17{fill:#5c6556;}.cls-18{fill:#50574b;}.cls-19{fill:#515a50;}.cls-20{fill:#69705e;}.cls-21{fill:#404841;}.cls-22{fill:#263032;}.cls-23{fill:#b0a97b;}.cls-24{fill:#2a3333;}.cls-25{fill:#88886a;}.cls-26{fill:#535b4f;}.cls-27{fill:#3b3d37;}.cls-28{fill:#7d6f59;}.cls-29{fill:#383e3a;}.cls-30{fill:#38413b;}.cls-31{fill:#2e3633;}.cls-32{fill:#4f4a35;}.cls-33{fill:#475149;}.cls-34{fill:#353d39;}.cls-35{fill:#565e53;}.cls-36{fill:#4f584e;}.cls-37{fill:#5b6053;}.cls-38{fill:#343938;}.cls-39{fill:#596052;}.cls-40{fill:#2c3636;}.cls-41{fill:#283433;}.cls-42{fill:#3d4741;}.cls-43{fill:#6d7361;}.cls-44{fill:#3d463f;}.cls-45{fill:#525b4f;}.cls-46{fill:#8e9376;}.cls-47{fill:#454e46;}.cls-48{fill:#293534;}.cls-49{fill:#8a8f74;}.cls-50{fill:#494e41;}.cls-51{fill:#616756;}.cls-52{fill:#81876e;}.cls-53{fill:#2e3833;}.cls-54{fill:#75533c;}.cls-55{fill:#424a42;}.cls-56{fill:#7a8069;}.cls-57{fill:#313735;}.cls-58{fill:#59584a;}.cls-59{fill:#707475;}.cls-60{fill:#4d5356;}.cls-61{fill:#383e3e;}.cls-62{fill:#515341;}.cls-63{fill:#83866b;}.cls-64{fill:#555d51;}.cls-65{fill:#746844;}.cls-66{fill:#343832;}.cls-67{fill:#7d7d64;}.cls-68{fill:#20262a;}.cls-69{fill:#2b3738;}.cls-70{fill:#596065;}.cls-71{fill:#3a4347;}.cls-72{fill:#74787a;}.cls-73{fill:#3f464b;}.cls-74{fill:#3d444a;}.cls-75{fill:#6a6a6a;}.cls-76{fill:#a2a6a8;}.cls-77{fill:#2e3b3d;}.cls-78{fill:#3c4643;}.cls-79{fill:#36413f;}.cls-80{fill:#404749;}.cls-81{fill:#313938;}.cls-82{fill:#62676c;}.cls-83{fill:#4d5459;}.cls-84{fill:#f2efb7;}.cls-85{fill:#f6e197;}.cls-86{fill:#c1ad72;}.cls-87{fill:#b2b38f;}.cls-88{fill:#f2f0b9;}.cls-89{fill:#f7e8b1;}.cls-90{fill:#d9ca91;}.cls-91{fill:#fbd693;}.cls-92{fill:#fce096;}.cls-93{fill:#d6cd94;}.cls-94{fill:#797d64;}.cls-95{fill:#b9ba95;}.cls-96{fill:#8f7654;}.cls-97{fill:#c6b685;}.cls-98{fill:#757863;}.cls-99{fill:#6b6f5d;}.cls-100{fill:#b4b184;}.cls-101{fill:#e2d59e;}.cls-102{fill:#ad8b5c;}.cls-103{fill:#686359;}.cls-104{fill:#b5b6b9;}.cls-105{fill:#b36a38;}.cls-106{fill:#c8a057;}.cls-107{fill:#f58f4f;}.cls-108{fill:#f98d4b;}.cls-109{fill:#40473d;}.cls-110{fill:#c2c296;}.cls-111{fill:#b5b690;}.cls-112{fill:#d5d5a7;}.cls-113{fill:#807a64;}.cls-114{fill:#7f7e5e;}.cls-115{fill:#807c5a;}.cls-116{fill:#8c9176;}.cls-117{fill:#c2c39a;}.cls-118{fill:#767d66;}.cls-119{fill:#f3c178;}.cls-120{fill:#e7b275;}.cls-121{fill:#f3eab4;}.cls-122{fill:#909578;}.cls-123{fill:#b4af88;}.cls-124{fill:#f4d098;}.cls-125{fill:#76746f;}.cls-126{fill:#dba760;}.cls-127{fill:#a09365;}.cls-128{fill:#a88949;}.cls-129{fill:#786b46;}.cls-130{fill:#857e59;}.cls-131{fill:#5c5b47;}.cls-132{fill:#b3ac7f;}.cls-133{fill:#a5a684;}.cls-134{fill:#bea37a;}.cls-135{fill:#c4ba90;}.cls-136{fill:#959376;}.cls-137{fill:#efd099;}.cls-138{fill:#c0c29a;}.cls-139{fill:#f0a971;}.cls-140{fill:#b3b5b6;}.cls-141{fill:#8c908f;}.cls-142{fill:#929496;}.cls-143{fill:#aaad89;}.cls-144{fill:#cca052;}.cls-145{fill:#424d44;}.cls-146{fill:#383c39;}.cls-147{fill:#181818;}.cls-148{fill:#221e18;}.cls-149{fill:#332e1f;}.cls-150{fill:#a6afa7;}.cls-151{fill:#444c43;}.cls-152{fill:#6b766e;}.cls-153{fill:#515558;}.cls-154{fill:#79797a;}.cls-155{fill:#727979;}.cls-156{fill:#6f7173;}.cls-157{fill:#858d85;}.cls-158{fill:#8a8d8d;}.cls-159{fill:#a29c88;}.cls-160{fill:#666a68;}.cls-161{fill:#a0a0a0;}.cls-162{fill:#545852;}.cls-163{fill:#373d41;}.cls-164{fill:#909090;}.cls-165{fill:#7b714f;}.cls-166{fill:#585b5a;}.cls-167{fill:#b1b6b0;}.cls-168{fill:#636762;}.cls-169{fill:#65614f;}.cls-170{fill:#8a7e50;}.cls-171{fill:#7b641c;}.cls-172{fill:#755e1c;}.cls-173{fill:#c5a446;}.cls-174{fill:#d8d7d6;}.cls-175{fill:#c5b174;}.cls-176{fill:#6c552b;}.cls-177{fill:#c58335;}.cls-178{fill:#656565;}.cls-179{fill:#676b6d;}.cls-180{fill:#dedede;}.cls-181{fill:#c2c4c5;}.cls-182{fill:#aeb0b1;}.cls-183{fill:#929698;}.cls-184{fill:#74787c;}.cls-185{fill:#7f8486;}.cls-186{fill:#60665f;}.cls-187{fill:#546355;}.cls-188{fill:#737f72;}.cls-189{fill:#75797b;}.cls-190{fill:#bcbcbc;}.cls-191{fill:#556359;}.cls-192{fill:#5a675d;}.cls-193{fill:#2d3e32;}.cls-194{fill:#727e75;}.cls-195{fill:#39493c;}.cls-196{fill:#c5cac4;}.cls-197{fill:#435348;}.cls-198{fill:#324337;}.cls-199{fill:#637067;}.cls-200{fill:#4d5c4f;}.cls-201{fill:#222929;}.cls-202{fill:#272b2b;}.cls-203{fill:#896323;}.cls-204{fill:#4e5550;}.cls-205{fill:#605f5f;}.cls-206{fill:#4e5c5b;}.cls-207{fill:#adafb0;}.cls-208{fill:#717c72;}.cls-209{fill:#515050;}.cls-210{fill:#412c12;}.cls-211{fill:#919191;}.cls-212{fill:#303c34;}.cls-213{fill:#42494a;}.cls-214{fill:#3d2911;}.cls-215{fill:#39483e;}.cls-216{fill:#5e6c62;}.cls-217{fill:#714c19;}.cls-218{fill:#93774c;}.cls-219{fill:#3b4b40;}.cls-220{fill:#878d86;}.cls-221{fill:#465249;}.cls-222{fill:#40474c;}.cls-223{fill:#5f6569;}.cls-224{fill:#61666a;}.cls-225{fill:#3c4349;}.cls-226{fill:#818689;}.cls-227{fill:#838588;}.cls-228{fill:#fbfbfb;}.cls-229{fill:#dbdbdb;}.cls-230{fill:#e7e7e7;}.cls-231{fill:#3e454a;}.cls-232{fill:#75797c;}.cls-233{fill:#3d474b;}.cls-234{fill:#3c4549;}.cls-235{fill:#727679;}.cls-236{fill:#6e7173;}.cls-237{fill:#818486;}.cls-238{fill:#a4a8aa;}.cls-239{fill:#4d5358;}.cls-240{fill:#8b8a75;}.cls-241{fill:#5b6157;}.cls-242{fill:#666b66;}.cls-243{fill:#fe5000;}.cls-244{fill:#fdbf69;}.cls-245{fill:#fea24f;}.cls-246{fill:#fe7e1a;}.cls-247{fill:#f6d695;}.cls-248{fill:#fe8a40;}.cls-249{fill:#fed189;}.cls-250{fill:#feaa5e;}.cls-251{fill:#fe6506;}.cls-252{fill:#feb66c;}.cls-253{fill:#4b3a2d;}.cls-254{fill:#f19955;}.cls-255{fill:#d7773d;}.cls-256{fill:#fda667;}.cls-257{fill:#f6b973;}.cls-258{fill:#fe9d4b;}.cls-259{fill:#bcbdbd;}.cls-260{fill:#e8e8e9;}.cls-261{fill:#828488;}.cls-262{fill:#c74700;}.cls-263{fill:#fb5d00;}.cls-264{fill:#fea140;}.cls-265{fill:#fe0a00;}.cls-266{fill:#f91e00;}.cls-267{fill:#fe5400;}.cls-268{fill:#fe5f00;}.cls-269{fill:#fe6c10;}.cls-270{fill:#e8c882;}.cls-271{fill:#b5b7b9;}.cls-272{fill:#a05a3e;}.cls-273{fill:#a98e64;}.cls-274{fill:#cbb173;}.cls-275{fill:#fe6d00;}.cls-276{fill:#fc8529;}.cls-277{fill:#f5b047;}.cls-278{fill:#f8cb74;}.cls-279{fill:#ead68e;}.cls-280{fill:#c9b475;}.cls-281{fill:#d3d4d4;}.cls-282{fill:#d6d6d6;}.cls-283{fill:#8b948b;}.cls-284{fill:#6a746a;}.cls-285{fill:#425244;}.cls-286{fill:#415246;}.cls-287{fill:#526056;}.cls-288{fill:#6a766d;}.cls-289{fill:#606d63;}.cls-290{fill:#efefef;}.cls-291{fill:#bcc5c5;}.cls-292{fill:#d2d7d7;}.cls-293{fill:#a6b2b2;}.cls-294{fill:#677467;}.cls-295{fill:#7d7f7d;}.cls-296{fill:#5a5f59;}.cls-297{fill:#3c4d3e;}.cls-298{fill:#8f7c51;}.cls-299{fill:#6b4f25;}.cls-300{fill:#49544c;}.cls-301{fill:#b1ac9c;}.cls-302{fill:#a39367;}.cls-303{fill:#c9c9c9;}.cls-304{fill:#868c85;}.cls-305{fill:#5d665d;}.cls-306{fill:#70786f;}.cls-307{fill:#816f4a;}.cls-308{fill:#9f7605;}.cls-309{fill:#664e28;}.cls-310{fill:#997b3d;}.cls-311{fill:#938257;}.cls-312{fill:#79561b;}.cls-313{fill:#90764f;}.cls-314{fill:#b89637;}.cls-315{fill:#505651;}.cls-316{fill:#a38340;}.cls-317{fill:#848685;}.cls-318{fill:#a97d02;}.cls-319{fill:#626762;}.cls-320{fill:#be9829;}.cls-321{fill:#f2f1f0;}.cls-322{fill:#d1ae49;}.cls-323{fill:#d2bc7c;}.cls-324{fill:#fcfcfc;}.cls-325{fill:#707d71;}.cls-326{fill:#899387;}.cls-327{fill:#58675b;}.cls-328{fill:#818181;}.cls-329{fill:#969696;}.cls-330{fill:#848687;}.cls-331{fill:#8f8f8f;}.cls-332{fill:#785a49;}.cls-333{fill:#a2a2a2;}.cls-334{fill:#566457;}.cls-335{fill:#efda98;}.cls-336{fill:#efdfaf;}.cls-337{fill:#e3c97e;}.cls-338{fill:#bfc3be;}.cls-339{fill:#aaadaa;}.cls-340{fill:#90918e;}.cls-341{fill:#7b4d2f;}.cls-342{fill:#eed792;}.cls-343{fill:#afb5af;}.cls-344{fill:#fefdfc;}.cls-345{fill:#eddeaa;}.cls-346{fill:#cc4600;}.cls-347{fill:#fe3000;}.cls-348{fill:#b0b0b0;}.cls-349{fill:#d8d8d8;}.cls-350{fill:#c8c9c9;}.cls-351{fill:#98a198;}.cls-352{fill:#aab2ac;}.cls-353{fill:#6f7c72;}.cls-354{fill:#5f6c62;}.cls-355{fill:#6d796e;}.cls-356{fill:#aab2aa;}.cls-357{fill:#dee2de;}.cls-358{fill:#8c968d;}.cls-359{fill:#a9b1a9;}.cls-360{fill:#aeb5af;}.cls-361{fill:#3e4436;}.cls-362{fill:#9e9f9c;}.cls-363{fill:#718586;}.cls-364{fill:#839596;}.cls-365{fill:#bc9d5f;}.cls-366{fill:#7b8082;}.cls-367{fill:#a5a8a9;}.cls-368{fill:#8d8d8d;}.cls-369{fill:#aeaeae;}.cls-370{fill:#9f9f9f;}.cls-371{fill:#afafaf;}.cls-372{fill:#d1d1d1;}.cls-373{fill:#e1e1e1;}.cls-374{fill:#8e8e8e;}.cls-375{fill:#9b9b9b;}.cls-376{fill:#bdbdbd;}.cls-377{fill:#c3c4c5;}.cls-378{fill:#a6a9aa;}.cls-379{fill:#808487;}.cls-380{fill:#5a6065;}.cls-381{fill:#8e9193;}.cls-382{fill:#949697;}.cls-383{fill:#a4a4a4;}.cls-384{fill:#c8c8c8;}.cls-385{fill:#fafbfb;}.cls-386{fill:#919597;}.cls-387{fill:#b7b8b9;}.cls-388{fill:#b5b1b0;}.cls-389{fill:#8d8f8c;}.cls-390{fill:#fe7109;}.cls-391{fill:#f90600;}.cls-392{fill:#8e2a0e;}.cls-393{fill:#fe9635;}.cls-394{fill:#a71700;}.cls-395{fill:#df7310;}.cls-396{fill:#fb3b00;}.cls-397{fill:#feb465;}.cls-398{fill:#fe771d;}.cls-399{fill:#fe8a34;}.cls-400{fill:#fc3800;}.cls-401{fill:#fe903b;}.cls-402{fill:#38493b;}.cls-403{fill:#5b6057;}.cls-404{fill:#612d1a;}.cls-405{fill:#9d1d00;}.cls-406{fill:#8f2200;}.cls-407{fill:#983504;}.cls-408{fill:#a24a1f;}.cls-409{fill:#f64200;}.cls-410{fill:#fe5e00;}.cls-411{fill:#fe5c00;}.cls-412{fill:#fd2100;}.cls-413{fill:#fe5900;}.cls-414{fill:#d57a3c;}.cls-415{fill:#fe9844;}.cls-416{fill:#fea64d;}.cls-417{fill:#ebebec;}.cls-418{fill:#818488;}.cls-419{fill:#c94300;}.cls-420{fill:#b44c0d;}.cls-421{fill:#e36900;}.cls-422{fill:#fe973b;}.cls-423{fill:#f78a34;}.cls-424{fill:#dd7a2c;}.cls-425{fill:#fe8425;}.cls-426{fill:#ababab;}.cls-427{fill:#4a5b4c;}.cls-428{fill:#576557;}.cls-429{fill:#727e73;}.cls-430{fill:#778177;}.cls-431{fill:#626e64;}.cls-432{fill:#2f2d26;}.cls-433{fill:#495548;}.cls-434{fill:#7c887d;}.cls-435{fill:#9ba39a;}.cls-436{fill:#afb7b0;}.cls-437{fill:#f3f3f3;}.cls-438{fill:#b99a5b;}.cls-439{fill:#c59f42;}.cls-440{fill:#d5b256;}.cls-441{fill:#906a26;}.cls-442{fill:#e2c678;}.cls-443{fill:#c19d45;}.cls-444{fill:#d3b158;}.cls-445{fill:#929b92;}.cls-446{fill:#6c6b67;}.cls-447{fill:#ac2e02;}.cls-448{fill:#7a441f;}.cls-449{fill:#a4864c;}.cls-450{fill:#9f8856;}.cls-451{fill:#72633d;}.cls-452{fill:#cdcece;}.cls-453{fill:#7d5d4d;}.cls-454{fill:#e6e6e6;}.cls-455{fill:silver;}.cls-456{fill:#828282;}.cls-457{fill:#aaa;}.cls-458{fill:#b2b2b2;}.cls-459{fill:#a3a3a3;}.cls-460{fill:#b4b6b7;}.cls-461{fill:#875a4c;}.cls-462{fill:#7a574a;}.cls-463{fill:#8d817d;}.cls-464{fill:#502e21;}.cls-465{fill:#b02701;}.cls-466{fill:#bf2900;}.cls-467{fill:#f60b00;}.cls-468{fill:#932300;}.cls-469{fill:#fe6700;}.cls-470{fill:#ed0000;}.cls-471{fill:#ae0e00;}.cls-472{fill:#576057;}.cls-473{fill:#878b83;}.cls-474{fill:#657267;}.cls-475{fill:#808c83;}.cls-476{fill:#5b685d;}.cls-477{fill:#792805;}.cls-478{fill:#806b5f;}.cls-479{fill:#5a3f34;}.cls-480{fill:#c11e00;}.cls-481{fill:#8d2500;}.cls-482{fill:#b21c00;}.cls-483{fill:#ab1900;}.cls-484{fill:#fc4c00;}.cls-485{fill:#fc2700;}.cls-486{fill:#ea5d0b;}.cls-487{fill:#7d4737;}.cls-488{fill:#62615e;}.cls-489{fill:#dd4800;}.cls-490{fill:#b73d00;}.cls-491{fill:#50291a;}.cls-492{fill:#959e95;}.cls-493{fill:#bdc2bc;}.cls-494{fill:#9da59c;}.cls-495{fill:#bec4be;}.cls-496{fill:#dbdddb;}.cls-497{fill:#a5ada6;}.cls-498{fill:#4b463e;}.cls-499{fill:#50534b;}.cls-500{fill:#ab1700;}.cls-501{fill:#751c03;}.cls-502{fill:#c5cbc5;}.cls-503{fill:#dba055;}.cls-504{fill:#a7a7a7;}.cls-505{fill:#989898;}.cls-506{fill:#959595;}.cls-507{fill:#a8a8a5;}.cls-508{fill:#a8a9a7;}.cls-509{fill:#a2948d;}.cls-510{fill:#c3c2c0;}.cls-511{fill:#655f5d;}.cls-512{fill:#803e28;}.cls-513{fill:#774d3f;}.cls-514{fill:#701e02;}.cls-515{fill:#413c36;}.cls-516{fill:#9ca09a;}.cls-517{fill:#692e1b;}.cls-518{fill:#a0a09c;}</style></defs><title>aphe</title><g id="레이어_2" data-name="레이어 2"><g id="레이어_1-2" data-name="레이어 1"><rect class="cls-1" width="74" height="74" rx="8.33" ry="8.33"/><path class="cls-2" d="M15.77,14.77c0-.89.59-.89,1.22-.89l7.47,0a1.42,1.42,0,0,1,2-.09,1,1,0,0,1,0,1.15c-.62.62-1.41.38-2.14.41s-1.33,0-2,0c-1.78.16-3.56,0-5.33,0-.35-.05-.72,0-1-.19A.63.63,0,0,1,15.77,14.77Z"/><path class="cls-3" d="M49.55,13.85l.69.06a.76.76,0,0,1,.11,1,1.16,1.16,0,0,1-.85.32,2.46,2.46,0,0,1-2-.31A3.47,3.47,0,0,1,47.34,12a.91.91,0,0,1,1-.4.83.83,0,0,1,.36.16C49.32,12.32,48.73,13.39,49.55,13.85Z"/><path class="cls-4" d="M25.46,8.11h.93a1.36,1.36,0,0,0,1.18.52,1.07,1.07,0,0,1,.77.4l0,0a.81.81,0,0,1,.15,1,1,1,0,0,1-1,.38,6.14,6.14,0,0,1-1,0,1.66,1.66,0,0,1-1-.21.79.79,0,0,1-.27-.33A1.41,1.41,0,0,1,25.46,8.11Z"/><path class="cls-5" d="M56.26,14.86c2,0,2.12.12,2,2-.06.69-.38.9-1,.84-.69-.34-.16-1.42-1-1.67a.72.72,0,0,1-.21-.31A.82.82,0,0,1,56.26,14.86Z"/><path class="cls-6" d="M50.27,14.8l0-.89h3.13a.75.75,0,0,1,.09,1,1.41,1.41,0,0,1-1.07.35C51.65,15.27,50.81,15.67,50.27,14.8Z"/><path class="cls-7" d="M35.13,7.11h2.79l.18.13a.81.81,0,0,1,0,1,1.2,1.2,0,0,1-1,.3,5.91,5.91,0,0,1-1,0,1.48,1.48,0,0,1-1-.23.8.8,0,0,1-.23-.92A.51.51,0,0,1,35.13,7.11Z"/><path class="cls-8" d="M31.2,9l0-1.88a.78.78,0,0,1,1-.18.77.77,0,0,1,.28.34,3,3,0,0,1-.24,2.82.87.87,0,0,1-1.1,0A.81.81,0,0,1,31.2,9Z"/><path class="cls-9" d="M22.49,23.49c0-.7.27-1,1-1l.19.11a1.3,1.3,0,0,1,.3,1c0,.67.18,1.36-.37,1.93a1,1,0,0,1-1.1,0,1.16,1.16,0,0,1-.35-1.06A1.34,1.34,0,0,1,22.49,23.49Z"/><path class="cls-10" d="M42.81,9h.93a.8.8,0,0,1,1-.13.77.77,0,0,1,.27.35.87.87,0,0,1-.35,1,3.29,3.29,0,0,1-2,.21c-.93-.05-1.12-.37-.94-1.43A.79.79,0,0,1,42.81,9Z"/><path class="cls-11" d="M26.36,13.87l-1.9,0c-.12-.85,1.12-1,1-1.88l.14-.17a.79.79,0,0,1,1,.09,1.23,1.23,0,0,1,.23,1C26.8,13.32,26.77,13.68,26.36,13.87Z"/><path class="cls-12" d="M55.29,17.68l-1.89.09a.81.81,0,0,1-1.06,0,.89.89,0,0,1-.08-1.08,1.09,1.09,0,0,1,1-.4,8.22,8.22,0,0,1,1.11,0,1.3,1.3,0,0,1,1,.34A.74.74,0,0,1,55.29,17.68Z"/><path class="cls-13" d="M51.94,20.63a2.61,2.61,0,0,1,.51,1.87l-.09.17a.79.79,0,0,1-.88.1,4.55,4.55,0,0,0-1.14-1.09.83.83,0,0,1-.07-.87.53.53,0,0,1,.29-.22Z"/><path class="cls-14" d="M53.4,14.82l0-.92c.8.16,2-.59,2.19.94a.93.93,0,0,1-1.09.43,1.19,1.19,0,0,1-1-.27Z"/><path class="cls-15" d="M52.41,5.22c.73-.12,1,.21,1,.93s-.26,1-1,1C51.71,6.49,51.83,5.86,52.41,5.22Z"/><path class="cls-16" d="M52.41,5.22v1.9h0a.82.82,0,0,1-1,.13,1.05,1.05,0,0,1-.32-1,1.11,1.11,0,0,1,.41-1Z"/><path class="cls-17" d="M33.16,6.14l.9.06a.74.74,0,0,1,.24.94.86.86,0,0,1-.31.29,1.4,1.4,0,0,1-1.79-.27l-.05-.11a.61.61,0,0,1,0-.89v0A.73.73,0,0,1,33.16,6.14Z"/><path class="cls-18" d="M54.33,14.86l1.23,0,.7,0c0,.32,0,.63,0,1a.79.79,0,0,1-.86.41,1.73,1.73,0,0,1-1-.14.78.78,0,0,1-.28-.29A.8.8,0,0,1,54.33,14.86Z"/><path class="cls-19" d="M16.75,16.8c-.63,0-1-.21-1-.92a.55.55,0,0,1,.21-.32c.3-.23.65-.14,1-.17a1,1,0,0,1,1,.39.89.89,0,0,1-.1,1.07A.81.81,0,0,1,16.75,16.8Z"/><path class="cls-20" d="M55.3,15.82h1l0,0a1.16,1.16,0,0,1,0,1.9h-1v-.93A.65.65,0,0,1,55.3,15.82Z"/><path class="cls-21" d="M56.25,17.69c0-.63,0-1.26,0-1.9,1.54.05.74,1.22.92,1.92Z"/><path class="cls-22" d="M16.75,16.8l1-.05a.69.69,0,1,1,1,1C18,17.54,16.84,18.31,16.75,16.8Z"/><path class="cls-23" d="M21.56,17.78l-.93-.08a.79.79,0,0,1-.11-1.05,1.48,1.48,0,0,1,1.53-.29,1.25,1.25,0,0,1,.62.33.86.86,0,0,1-.05,1.09A.78.78,0,0,1,21.56,17.78Z"/><path class="cls-24" d="M49.55,13.85c-1.65.06-.76-1.15-.91-1.84.26-.36.57-.3.88-.08Z"/><path class="cls-25" d="M28.36,10l0-.91,1.9,0a.73.73,0,0,1,.26.88.66.66,0,0,1-.27.3,1.57,1.57,0,0,1-1,.15A.78.78,0,0,1,28.36,10Z"/><path class="cls-26" d="M47.56,7.08c.1-1.43,1.26-.72,1.95-1a.66.66,0,0,1,.28.27.86.86,0,0,1-.16.93,1,1,0,0,1-.93.25,1.43,1.43,0,0,1-.93-.16A.54.54,0,0,1,47.56,7.08Z"/><path class="cls-27" d="M22.49,23.49l0,1a1.17,1.17,0,0,1-1.79.22l-.12-.19C20.66,23,21.78,23.66,22.49,23.49Z"/><path class="cls-28" d="M42.75,6.19V8.08a.76.76,0,0,1-.9.23.77.77,0,0,1-.3-.27,1.93,1.93,0,0,1,0-1.78A.78.78,0,0,1,41.82,6,.76.76,0,0,1,42.75,6.19Z"/><path class="cls-29" d="M19.6,26.35c.21-.7-.42-1.84,1-1.88l.09.08a1.39,1.39,0,0,1,.17,1.81.82.82,0,0,1-1,.29A.65.65,0,0,1,19.6,26.35Z"/><path class="cls-30" d="M52.41,17.7l1,.07c-.11,1.44-1.21.78-1.94.92a.69.69,0,1,1,.95-1Z"/><path class="cls-31" d="M24.45,19.68c-.68-.22-1.82.55-1.92-.9a.63.63,0,0,1,.2-.33c.3-.22.65-.13,1-.16a.93.93,0,0,1,.94.39A.75.75,0,0,1,24.45,19.68Z"/><path class="cls-32" d="M24.45,19.68v-.94a.74.74,0,0,1,1-.15,1.62,1.62,0,0,1,.21,1.92.8.8,0,0,1-1,.37.63.63,0,0,1-.33-.27Z"/><path class="cls-33" d="M25.46,8.11l0,1.93a.64.64,0,0,1-.94,0C24.71,9.33,23.83,8.07,25.46,8.11Z"/><path class="cls-34" d="M50.5,18.76l.06,1.83-.09.05a.77.77,0,0,1-1,.1,1.13,1.13,0,0,1-.34-1,1.52,1.52,0,0,1,.19-1,.79.79,0,0,1,.93-.25A.57.57,0,0,1,50.5,18.76Z"/><path class="cls-11" d="M24.48,10l.94,0,0,0a1.09,1.09,0,0,1,.36,1,1.06,1.06,0,0,1-.37,1l0,0C24.07,11.82,24.58,10.77,24.48,10Z"/><path class="cls-35" d="M49.52,11.93l-.88.08-.1-.08A.76.76,0,0,1,48.4,11a.75.75,0,0,1,.92-.25.63.63,0,0,1,.27.29Z"/><path class="cls-36" d="M50.48,10c.11.69-.17,1.05-.89,1L49.5,11a.71.71,0,0,1,0-1A.72.72,0,0,1,50.48,10Z"/><path class="cls-37" d="M15.75,15.88c-.36-.09-.89,0-.88-.56s.55-.44.9-.55a.61.61,0,0,1,.05.12.6.6,0,0,1,0,.88Z"/><path class="cls-38" d="M45.68,8c-.07-.72.31-1,1-.89a.76.76,0,0,1,.16.92.71.71,0,0,1-.87.26A.5.5,0,0,1,45.68,8Z"/><path class="cls-39" d="M39,6.18l.92-.08.16.09a.81.81,0,0,1,.12.89.87.87,0,0,1-.26.28,1,1,0,0,1-1,0,.81.81,0,0,1-.25-.3A.77.77,0,0,1,39,6.18Z"/><path class="cls-40" d="M39,6.18l0,.89c-.27.37-.58.33-.91.08l-.08,0C37.94,6.44,38.24,6.08,39,6.18Z"/><path class="cls-41" d="M34.14,7.08c0-.29,0-.58-.08-.88.72-.13,1,.22,1.07.91l-.08,0A.58.58,0,0,1,34.14,7.08Z"/><path class="cls-42" d="M32.18,6.16l0,.89-.91.1C31.14,6.43,31.44,6.09,32.18,6.16Z"/><path class="cls-43" d="M51.48,5.24l0,1a.74.74,0,0,1-1,0,.69.69,0,0,1,.08-1Z"/><path class="cls-44" d="M50.53,5.23l0,.93-.11.14a.63.63,0,0,1-.83-.1l0-.1C49.48,5.38,49.85,5.13,50.53,5.23Z"/><path class="cls-45" d="M42.75,6.19l-.86,0c-.38-.27-.34-.59-.09-.92C42.57,5.1,42.88,5.43,42.75,6.19Z"/><path class="cls-46" d="M41.8,5.23l.09.92-.1,0a.69.69,0,0,1-1,0,.68.68,0,0,1,.09-1Z"/><path class="cls-47" d="M40.89,5.23l0,.94-.11.14a.63.63,0,0,1-.83-.1.37.37,0,0,1-.05-.11C39.83,5.37,40.21,5.13,40.89,5.23Z"/><path class="cls-48" d="M33.16,6.14h-1c0-.37-.05-.89.55-.85S33.11,5.8,33.16,6.14Z"/><path class="cls-49" d="M50.48,10l-.89,0L49.42,10a.75.75,0,0,1-.15-.83.76.76,0,0,1,.22-.28.83.83,0,0,1,.86,0,.64.64,0,0,1,.22.27Z"/><path class="cls-50" d="M30.27,10c0-.3,0-.6-.05-.89l1-.07v1A.57.57,0,0,1,30.27,10Z"/><path class="cls-51" d="M51.54,8.11c0,.61-.19,1.11-1,1l-.13,0a.81.81,0,0,1-.21-.84.69.69,0,0,1,.21-.3.83.83,0,0,1,.87-.07A.47.47,0,0,1,51.54,8.11Z"/><path class="cls-52" d="M44.74,8.11,45.68,8v.11a.67.67,0,1,1-.91,1L44.71,9A.59.59,0,0,1,44.74,8.11Z"/><path class="cls-53" d="M44.74,8.11l0,.9h-1C43.69,8.3,44.06,8,44.74,8.11Z"/><path class="cls-54" d="M41.87,8.11l.88,0,.06.95h-1A.56.56,0,0,1,41.87,8.11Z"/><path class="cls-55" d="M28.34,9h-.95a.62.62,0,0,1,0-.92C28.06,8,28.4,8.3,28.34,9Z"/><path class="cls-56" d="M27.35,8.11l0,.92c-.72.12-1.06-.18-1-.91Z"/><path class="cls-57" d="M51.49,7.16l.94,0c0,.64-.18,1-.89,1l-.11,0A.6.6,0,0,1,51.49,7.16Z"/><path class="cls-58" d="M46.65,8.05V7.14l.91-.06.08.09a.73.73,0,0,1,.15.91.72.72,0,0,1-.88.25A.55.55,0,0,1,46.65,8.05Z"/><path class="cls-59" d="M17.74,27.4l1-.09.16.15a.77.77,0,0,1-.14,1,.8.8,0,0,1-1-.06A.71.71,0,0,1,17.74,27.4Z"/><path class="cls-60" d="M17.74,27.4l0,.92-.07.15a.62.62,0,0,1-.76.06.33.33,0,0,1-.14-.27l0-.88Z"/><path class="cls-61" d="M18.69,27.31c-.1-.7.31-.93.91-1l.07.08a.72.72,0,0,1,0,1,.76.76,0,0,1-1,0Z"/><path class="cls-62" d="M21.56,17.78l1-.05.14.11a.63.63,0,0,1-.13.82.53.53,0,0,1,0,.12C21.91,18.74,21.45,18.53,21.56,17.78Z"/><path class="cls-63" d="M20.6,16.8l0,.9h-1a.68.68,0,0,1-.05-1A.65.65,0,0,1,20.6,16.8Z"/><path class="cls-64" d="M19.65,16.77l0,.93-1,0,0-.89.06-.16a.61.61,0,0,1,.81,0Z"/><path class="cls-65" d="M23.47,22.5l.05-.89a.74.74,0,0,1,.91-.22.76.76,0,0,1,.29.3.84.84,0,0,1-.2,1,.75.75,0,0,1-1-.05Z"/><path class="cls-66" d="M24.43,21.55l-.91.06c-.08-.68.19-1,.9-1l.11,0A.59.59,0,0,1,24.43,21.55Z"/><path class="cls-67" d="M51.49,17.78l0,.91-1,.07v-.11a.67.67,0,1,1,1-.87Z"/><path class="cls-68" d="M27.36,59.18c-1,.07-1-.59-1-1.27,0-3.73,0-7.46,0-11.2a5.11,5.11,0,0,0,0-1c-.1-.62-.37-1-.91-.32-.29.34-.56.61-1,.24a1.11,1.11,0,0,1-.38-1,1.46,1.46,0,0,1,.2-1,1.45,1.45,0,0,0,.69-1.4c0-1.36,0-2.72,0-4.08.2-.75-.66-.87-.83-1.4a26.13,26.13,0,0,1,0-5.45A2.12,2.12,0,0,0,25,29.1c.05-.93-.24-1.91.33-2.78A1.31,1.31,0,0,1,26.38,26a1.56,1.56,0,0,1,1.13.28c.51.52.28,1.18.33,1.78,0,1,0,2.07,0,3.1,0,.64.05,1.27,0,1.9s0,1.17,0,1.75.24.83.82.76c.88,0,1.75,0,2.63,0a21.89,21.89,0,0,1,3.53.09.86.86,0,0,1,.64,1.4,1,1,0,0,1-.83.35,17,17,0,0,1-3.27.07c-.34,0-.69,0-1,0s-.65,0-1,0-.59,0-.89,0c-1.13.28-.44,1.19-.64,1.79,0,2.27,0,4.54,0,6.81a2,2,0,0,0,.25,1.38,1.44,1.44,0,0,1,.1,1,3.23,3.23,0,0,0-.37,1.9c0,.47.18.7.66.66a8.81,8.81,0,0,1,.89,0,4.76,4.76,0,0,1,1,0,.91.91,0,0,1,.77.36,1,1,0,0,1,0,1.08c-.71.72-1.6.29-2.41.4-.46,0-.94-.06-.9.64,0,.29,0,.58,0,.88a7.37,7.37,0,0,1,0,.94c0,.33,0,.67,0,1a13.12,13.12,0,0,1,0,1.88A.91.91,0,0,1,27.36,59.18Z"/><path class="cls-69" d="M27.36,59.18v-1a.8.8,0,0,1,.94-.17.87.87,0,0,1,.46.76,1.52,1.52,0,0,0,.76,1.33,1.68,1.68,0,0,1,.21,1c.05.65,0,1.29,0,1.94s.12,1.09-.47,1.41l-1-.49c0-1.12.16-2.26-.73-3.22C27.22,60.36,27.38,59.73,27.36,59.18Z"/><path class="cls-70" d="M20.37,47.64l-1.69,0a.8.8,0,0,1-.05-1.1,1.68,1.68,0,0,1,2,0,.78.78,0,0,1-.09,1.09Z"/><path class="cls-71" d="M24.45,44.7c0,.33,0,.65,0,1l-.91,0-.17-.13a.73.73,0,0,1,.1-1A.73.73,0,0,1,24.45,44.7Z"/><path class="cls-72" d="M22.51,46.63l-.93.07-.16-.13a.8.8,0,0,1,0-1,.89.89,0,0,1,1-.17.84.84,0,0,1,.31.28A.75.75,0,0,1,22.51,46.63Z"/><path class="cls-73" d="M22.51,46.63l.07-.9a.58.58,0,0,1,.9-.07l.07.06C23.55,46.41,23.21,46.73,22.51,46.63Z"/><path class="cls-74" d="M20.58,47.58l.05-.91a.65.65,0,0,1,.95-.08v.11C21.63,47.43,21.27,47.69,20.58,47.58Z"/><path class="cls-75" d="M33.16,66.92h1a1.15,1.15,0,0,1,0,1.86h-1C33.15,68.17,33.16,67.55,33.16,66.92Z"/><path class="cls-76" d="M5.23,46.64l-.08-8.18V34.85l.06-5.53a.79.79,0,0,1,1-.19.88.88,0,0,1,.28.33c.43.93.09,1.91.16,2.86,0,3.14,0,6.27,0,9.41a30.47,30.47,0,0,1-.13,4.68,1,1,0,0,1-.25.36A.75.75,0,0,1,5.23,46.64Z"/><path class="cls-77" d="M54.41,24.46c1.83.06,1.83.06,1.9,1.92a1.63,1.63,0,0,0-.11.17.83.83,0,0,1-.93.06c-.3-.69-1.52-.84-1.14-1.93A.48.48,0,0,1,54.41,24.46Z"/><path class="cls-78" d="M53.43,23.47c.68,0,1,.35,1,1l-.11.06a.73.73,0,0,1-.92.13.76.76,0,0,1-.24-.91A.63.63,0,0,1,53.43,23.47Z"/><path class="cls-79" d="M52.45,22.5c.63,0,1,.29,1,1l-.07.09c-1.09.24-1.23.1-1-1Z"/><path class="cls-80" d="M58.19,27.38l0,.92a.7.7,0,0,1-.92.23.77.77,0,0,1-.31-.91.59.59,0,0,1,.26-.3Z"/><path class="cls-81" d="M56.31,26.38c.64,0,1,.26.95.94l0,.09a.72.72,0,0,1-1,0,.71.71,0,0,1,0-1Z"/><path class="cls-82" d="M6.17,28.37l10.57-.11,0,.11a.76.76,0,0,1,0,1.1,1.92,1.92,0,0,1-1.36.31c-2.61,0-5.21-.05-7.81,0a1.63,1.63,0,0,1-1.42-.49v-.11A.56.56,0,0,1,6.17,28.37Z"/><path class="cls-83" d="M6.17,28.37v.86l-1,.09C5.11,28.59,5.42,28.25,6.17,28.37Z"/><path class="cls-84" d="M20.6,16.8l-1,0,0,0a1.36,1.36,0,0,0-1.18-.51,1.12,1.12,0,0,1-.78-.38l-.92-.08a.56.56,0,0,1,0-.88H22.3a1.12,1.12,0,0,1-.25,1.87Z"/><path class="cls-85" d="M22.05,16.75a3.53,3.53,0,0,0,.25-1.87l4.08-.06.17.13a.83.83,0,0,1-.05,1,1.17,1.17,0,0,1-1,.3,6.27,6.27,0,0,1-1,0,8.77,8.77,0,0,1-.89,0c-.52-.14-.68.49-1.13.53Z"/><path class="cls-86" d="M26.36,13.87l.08-1a.75.75,0,0,1,1.06-.05A1.33,1.33,0,0,1,27.78,14c0,1-.45,1.37-1.41.95v-.1C26.37,14.5,26.37,14.19,26.36,13.87Z"/><path class="cls-87" d="M16.78,14.89v.88h-1v-.88Z"/><path class="cls-88" d="M53.38,16.74l-.93.07a1.58,1.58,0,0,1-1.82.29c-.62-.23-.7-1-1.28-1.28a.77.77,0,0,1,.18-.94l.74-.08,2.14.08c.33.43.93.52,1.21,1A.78.78,0,0,1,53.38,16.74Z"/><path class="cls-89" d="M48.6,11l-.06.92-.89.05a.83.83,0,0,1-1,.09.88.88,0,0,1-.23-1c.46-.39.75-1,1.26-1.32a.94.94,0,0,1,1,.22A.83.83,0,0,1,48.6,11Z"/><path class="cls-90" d="M46.65,12l1,0,0,2.83-.14.17a.78.78,0,0,1-1-.13,3,3,0,0,1,0-2.78Z"/><path class="cls-91" d="M49.53,14.88l0,.91-.11.18a1.24,1.24,0,0,1-1,.26,1,1,0,0,1-1-.36.79.79,0,0,1,.14-1v0Z"/><path class="cls-92" d="M27.39,13.88l0-1a2.32,2.32,0,0,1,0-2.89l1,0,.92.07a.79.79,0,0,1,.17,1c-.78.44-.61,1.2-.65,1.89C28.75,14,28.42,14.23,27.39,13.88Z"/><path class="cls-93" d="M27.37,10c0,1,0,1.93,0,2.89l-.91,0L26.36,12A1.13,1.13,0,0,1,26,11a1.08,1.08,0,0,1,.35-1Z"/><path class="cls-94" d="M26.37,10v1a.61.61,0,0,1-.91,0V10Z"/><path class="cls-95" d="M53.38,15.87c-.64,0-1.06-.25-1-1l1-.06,0,0a.63.63,0,0,1,.25.76A.56.56,0,0,1,53.38,15.87Z"/><path class="cls-96" d="M36,8.13h1c.32.46,1.08.42,1.25,1.06a1,1,0,0,1-.27,1,1.75,1.75,0,0,1-2,0,1.12,1.12,0,0,1-.35-1.06A1.13,1.13,0,0,1,36,8.13Z"/><path class="cls-97" d="M38,9.08c-.63,0-1.06-.2-1-.94l.93-.07a.82.82,0,0,1,1-.18.68.68,0,0,1,.28.3.84.84,0,0,1-.21,1A.78.78,0,0,1,38,9.08Z"/><path class="cls-98" d="M38.9,8.06h-1L38,7.15l.91-.08,0,.11A.55.55,0,0,1,38.9,8.06Z"/><path class="cls-99" d="M34.14,7.08l.91.07,0,.89-.14.17c-1,.11-1.15,0-.87-1Z"/><path class="cls-100" d="M36,8.13l-.07,1a.68.68,0,0,1-1,0,.66.66,0,0,1,.08-1,.24.24,0,0,0,0-.12Z"/><path class="cls-101" d="M35.08,8.16l0,.86a.74.74,0,0,1-.85.51c-.5,0-.7.31-.93.63a.87.87,0,0,1-.89.12.62.62,0,0,1-.26-.27l.07-2.85,1.87,0C33.94,8,34.43,8.15,35.08,8.16Z"/><path class="cls-102" d="M30.27,10h.93l.93,0h.11a.9.9,0,0,1,0,1.12,1.64,1.64,0,0,1-2,0,.75.75,0,0,1,0-1.08Z"/><path class="cls-103" d="M20.58,26.32c0-.59.07-1.18.1-1.77l1.83-.11c0,.32,0,.64,0,1-.15.51-.67.74-.9,1.19a.82.82,0,0,1-.88,0A.41.41,0,0,1,20.58,26.32Z"/><path class="cls-104" d="M21.55,26.37c-.1-.76.36-1,1-1l1,0,.15.11a.8.8,0,0,1,0,.9.77.77,0,0,1-.28.26,1.77,1.77,0,0,1-1.67,0A.58.58,0,0,1,21.55,26.37Z"/><path class="cls-105" d="M23.52,25.43V23.51a.77.77,0,0,1,1-.08,1.19,1.19,0,0,1,.32,1.05,1.2,1.2,0,0,1-.33,1.06.81.81,0,0,1-1.05-.09Z"/><path class="cls-106" d="M24.44,23.56l-.92,0c0-.3,0-.6,0-.9l.9-.08.15.07a.64.64,0,0,1,.11.77A.61.61,0,0,1,24.44,23.56Z"/><path class="cls-107" d="M41.87,8.11c0,.31,0,.62,0,.93-.12.73.23,1,.93,1s1.26,0,1.9,0l.17.15a.83.83,0,0,1-.11,1c-.61.48-1.32.24-2,.26a3.38,3.38,0,0,1-2-.31c-.58-.6-.3-1.34-.32-2A1.54,1.54,0,0,1,40.72,8a.77.77,0,0,1,1.06,0Z"/><path class="cls-108" d="M47.64,10c0,.66-.2,1.07-1,1l-.16,0c-.39-.73-1.42-.22-1.81-1l0,0c0-.3.05-.6.08-.9L45.68,9a1.2,1.2,0,0,1,1-.37,1.11,1.11,0,0,1,1,.31A.83.83,0,0,1,47.64,10Z"/><path class="cls-109" d="M25.45,11l.91,0v1h-.92C25.44,11.62,25.45,11.29,25.45,11Z"/><path class="cls-110" d="M50.51,16.8h1.94c0,.3,0,.59,0,.89l-.92.08h-1l-.15-.12A.6.6,0,0,1,50.51,16.8Z"/><path class="cls-111" d="M55.3,15.82c0,.31,0,.62,0,.93h-1a.62.62,0,0,1,0-.93Z"/><path class="cls-112" d="M54.35,15.81c0,.31,0,.62,0,.93h-.95v-.87l0-.11a.73.73,0,0,1,1,0Z"/><path class="cls-113" d="M52.41,22.59c-.06.68.25,1,1,1l0,.92a2.24,2.24,0,0,1-1.08,1.3,2,2,0,0,1-1.82-.14,1,1,0,0,1-.29-.92c0-.56.93-.55.83-1.22a1.2,1.2,0,0,1,.19-.82.61.61,0,0,1,.29-.17Z"/><path class="cls-114" d="M50.55,21.54c.7-.06,1,.31,1,1l-.09.09c-.83.44-1.19.16-1.15-.75A.61.61,0,0,1,50.55,21.54Z"/><path class="cls-115" d="M49.58,20.59l.89.05c0,.3.05.6.08.9l-.1.1a.73.73,0,0,1-.92.12.75.75,0,0,1-.24-.91A.57.57,0,0,1,49.58,20.59Z"/><path class="cls-116" d="M54.38,15.78l-1,0,0-.89h1C54.35,15.17,54.36,15.47,54.38,15.78Z"/><path class="cls-117" d="M51.49,7.16l-.06.92-.92,0a.86.86,0,0,1-.39-.95,1.07,1.07,0,0,1,.39-1l0,0,1,0Z"/><path class="cls-118" d="M17.71,15.85h1a.57.57,0,0,1,0,.88l0,.11-.94-.08Z"/><path class="cls-119" d="M22.53,16.8c0-.69.27-1.07,1-1a1.39,1.39,0,0,1,.27,1.76.89.89,0,0,1-.29.32.84.84,0,0,1-1-.19h0Z"/><path class="cls-120" d="M30.22,10.08l0,.87a1,1,0,0,0-.07.15.63.63,0,0,1-.76.1.44.44,0,0,1-.17-.27l0-.87Z"/><path class="cls-121" d="M50.5,7.12v1h0a10.87,10.87,0,0,0-1,1h0a.82.82,0,0,1-1,.12,1.13,1.13,0,0,1-.31-1,1.08,1.08,0,0,1,.41-1l.92-.08A.73.73,0,0,1,50.5,7.12Z"/><path class="cls-122" d="M50.5,7.12l-1,0,0-.89h1Z"/><path class="cls-123" d="M48.59,7.17l-.05.92a.62.62,0,0,1-.95,0l0-.9Z"/><path class="cls-124" d="M41.78,8l-.94.09a.78.78,0,0,1-.9.18A.81.81,0,0,1,39.67,8a.79.79,0,0,1,.23-.9l0,0c.35-.29.65-.63,1-.94h0l.93,0C41.79,6.81,41.78,7.43,41.78,8Z"/><path class="cls-125" d="M19.64,27.32l0-.89.91-.11a.38.38,0,0,1,.06.13c.46.81.2,1.18-.7,1.15A.55.55,0,0,1,19.64,27.32Z"/><path class="cls-126" d="M25.42,18.73h-1l-.93-.08a.64.64,0,0,1,0-.93v0a1,1,0,0,1,.84-.36,1.84,1.84,0,0,1,.93.08,1,1,0,0,1,.31.21.83.83,0,0,1,.1.88A.47.47,0,0,1,25.42,18.73Z"/><path class="cls-127" d="M23.5,17.73l0,.93h-1l0-.92Z"/><path class="cls-128" d="M25.39,20.62l0-1.89v-.09a.87.87,0,0,1,1-.15.84.84,0,0,1,.3.32c.39,1.47.21,1.86-1,2.07A.68.68,0,0,1,25.39,20.62Z"/><path class="cls-129" d="M24.43,21.55c0-.3.06-.6.1-.91l.86,0,.11,0a.76.76,0,0,1,0,1,.72.72,0,0,1-1-.05Z"/><path class="cls-130" d="M49.51,19.69l.07.9-.09.07a.72.72,0,0,1-1,0,.82.82,0,0,1,0-1.06A.71.71,0,0,1,49.51,19.69Z"/><path class="cls-131" d="M49.51,19.69l-.92,0-.16-.11a.74.74,0,0,1,0-.9.75.75,0,0,1,.87-.17.45.45,0,0,1,.24.28Z"/><path class="cls-132" d="M50.52,17.78l0,.87-1,.1v-.11a.66.66,0,0,1,.05-1.13.76.76,0,0,1,.89.17Z"/><path class="cls-133" d="M48.6,11V10a.58.58,0,0,1,.89,0l.11,0L49.5,11Z"/><path class="cls-134" d="M46.63,9h-1V8.14l1-.09v.1A.6.6,0,0,1,46.63,9Z"/><path class="cls-135" d="M39.9,7.13V8c-.29.37-.61.33-.95.07l-.05,0c0-.29,0-.59.05-.88Z"/><path class="cls-136" d="M40.86,6.17c.11.77-.26,1-1,.94l0-.9Z"/><path class="cls-137" d="M49.48,10l-.89,0h-1l0-1a.65.65,0,0,1,1,0h1C49.51,9.37,49.49,9.68,49.48,10Z"/><path class="cls-138" d="M49.55,9.07c-.1-.74.25-1,1-1l-.07.94Z"/><path class="cls-139" d="M48.57,9.06h-1l-1,0c0-.3,0-.59,0-.89l1-.08.95,0Z"/><path class="cls-140" d="M17.71,28.32l1,0,.16.15a.78.78,0,0,1-.16,1,.84.84,0,0,1-1.05-.06.76.76,0,0,1,.1-1Z"/><path class="cls-141" d="M18.69,27.43l.95-.11a.56.56,0,0,0,0,.12.67.67,0,0,1,0,1,.78.78,0,0,1-1,0v-1Z"/><path class="cls-142" d="M17.74,28.35l0,.92a.53.53,0,0,1-.72.24.47.47,0,0,1-.21-.25v-.89Z"/><path class="cls-143" d="M18.7,16.72l0-.88c.71-.12,1.1.12,1,.9Z"/><path class="cls-144" d="M24.51,21.62l.91-.05a.69.69,0,1,1-.91,1l-.07-.06C24.46,22.23,24.49,21.93,24.51,21.62Z"/><path class="cls-145" d="M29.29,64.49l0-1.47a.79.79,0,0,1,1-.13,1,1,0,0,1,.38.92c0,.32.07.66-.13,1a.61.61,0,0,1-.3.23C29.84,65,29.42,65,29.29,64.49Z"/><path class="cls-47" d="M31.25,65.91h-1l0-.92.06,0a.7.7,0,0,1,1,0A.71.71,0,0,1,31.25,65.91Z"/><path class="cls-146" d="M27.39,33.19l0-2a.81.81,0,0,1,.87-.23,1.9,1.9,0,0,0,1.92.75c.69.15.71-.66,1.17-.82a2.15,2.15,0,0,1,1-.15,20.67,20.67,0,0,1,3.43-.06,6,6,0,0,0,1.27.05,10.16,10.16,0,0,1,1.91,0,9.74,9.74,0,0,1,1.87,0c.35,0,.7,0,1,0s.7,0,1,0a2.57,2.57,0,0,1,1.88.3c.4,1.06.15,1.52-.88,1.6a6.13,6.13,0,0,1-1.42,0,2,2,0,0,0-2.05.86,6.85,6.85,0,0,1-2.43.1,14.06,14.06,0,0,1-2.9,0,18.63,18.63,0,0,1-3.34,0,12.8,12.8,0,0,1-3.33,0A1.25,1.25,0,0,1,27.39,33.19Z"/><path class="cls-147" d="M45.65,47.6c.7,0,1.06.27,1,1a1.26,1.26,0,0,1-1,.42c-1.59.12-3.18,0-4.77.05-2.3,0-4.6,0-6.89,0-.9,0-1.8,0-2.69,0a12.73,12.73,0,0,1-2.89-.12.7.7,0,0,1-.52-.38v-.92a.66.66,0,0,1,.46-.35,2.7,2.7,0,0,1,1-.12c.33,0,.66,0,1,0s.67,0,1,0,.7,0,1.05,0a31.52,31.52,0,0,1,4.66,0h3.8a12.19,12.19,0,0,1,2.83.07,3.84,3.84,0,0,1,1.07,0A1.09,1.09,0,0,1,45.65,47.6Z"/><path class="cls-148" d="M46.64,51.46v1c-.52.67-1.26.41-1.93.45-1.29,0-2.58,0-3.86,0q-3,0-5.94,0a23.93,23.93,0,0,1-3.17-.08.84.84,0,0,1-.75-.44v-.87a.63.63,0,0,1,.28-.32A2,2,0,0,1,32.33,51c1.56,0,3.11,0,4.67,0,1.27,0,2.53,0,3.8,0,.94,0,1.88,0,2.82,0,.35,0,.7,0,1.05,0a6,6,0,0,1,1,0A1.11,1.11,0,0,1,46.64,51.46Z"/><path class="cls-149" d="M40.85,55.37v.92c-.5.76-1.27.39-1.93.48H32.18c-1.26,0-2.52.06-3.78-.05a1.24,1.24,0,0,1-1-.39v-1a1.07,1.07,0,0,1,.9-.39,5.58,5.58,0,0,1,1,0,8.51,8.51,0,0,1,1,0c.34,0,.68,0,1,0,.64,0,1.27,0,1.91,0,1.24,0,2.47,0,3.71,0s2.46-.22,3.66.17A.67.67,0,0,1,40.85,55.37Z"/><path class="cls-150" d="M30.24,37h1c.7.5.48,1.23.49,1.91-.07,2.47.16,4.95-.13,7.42a1.23,1.23,0,0,1-.23.4,1,1,0,0,1-1.12.06.84.84,0,0,1-.28-.36,14.94,14.94,0,0,1-.15-3.78c0-1.54-.08-3.08,0-4.63A1.2,1.2,0,0,1,30.24,37Z"/><path class="cls-151" d="M28.35,47.58l-.5.05c-.54-.2-.48-.67-.48-1.1,0-2.54,0-5.08,0-7.62a.78.78,0,0,1,1-.1,1,1,0,0,1,.25.36,58.93,58.93,0,0,1,.09,7.4A1.18,1.18,0,0,1,28.35,47.58Z"/><path class="cls-152" d="M35.32,37l5,.08c.38,1.62-.15,2.38-1.72,2.42a3.18,3.18,0,0,1-1.4-.17,1,1,0,0,1-.37-.17,1.14,1.14,0,0,0-1.22-.68A1.18,1.18,0,0,1,34.4,38a.79.79,0,0,1,.18-.94Z"/><path class="cls-153" d="M24.5,31.25l0,5.68a.5.5,0,0,1-.26.31.83.83,0,0,1-1-.24,1.59,1.59,0,0,1-.24-1.06,40.29,40.29,0,0,1,0-4.79c0-.32,0-.64,0-1,.08-1,.4-1.22,1.51-1A1.44,1.44,0,0,1,24.5,31.25Z"/><path class="cls-154" d="M24.5,29.35c-1.62-.07-.75,1.22-1,1.89a.76.76,0,0,1-1,.06,3.23,3.23,0,0,1-.22-2.76c.11-.32.34-.62.64-.6,1,0,1.15-.7,1.32-1.42a.81.81,0,0,1,.25-.3.78.78,0,0,1,.92.05l.11.16,0,2.83A.61.61,0,0,1,24.5,29.35Z"/><path class="cls-155" d="M40.84,36l-5.52.09-.5-.09a.76.76,0,0,1-.08-1,.78.78,0,0,1,.38-.23,11,11,0,0,1,3.8-.12c.68,0,1.39-.21,2,.33A.74.74,0,0,1,40.84,36Z"/><path class="cls-156" d="M25.38,38c0,1.58,0,3.17.05,4.75,0,.69-.21,1.06-.93,1l-.19-.11a11.9,11.9,0,0,1-.18-5.47,1,1,0,0,1,.25-.36A.73.73,0,0,1,25.38,38Z"/><path class="cls-157" d="M34.58,37.05V38c-.16.63-1.11.38-1.21,1.08a.63.63,0,0,1-.3.21,1.59,1.59,0,0,1-.94.09,1,1,0,0,1-.87-.38L31.21,37Z"/><path class="cls-158" d="M34.84,35.12l0,.89H31.21A.78.78,0,0,1,31.14,35c.43-.49,1-.2,1.55-.36C33.45,34.59,34.29,34.3,34.84,35.12Z"/><path class="cls-159" d="M31,52.39l.71.08a.77.77,0,0,1,.16,1,.75.75,0,0,1-.53.31,3.37,3.37,0,0,1-1,.1,6.41,6.41,0,0,1-1,0,1.58,1.58,0,0,1-1-.18.69.69,0,0,1-.27-.29.73.73,0,0,1,.25-.9Z"/><path class="cls-160" d="M28.25,31.26l-.88,0c0-1,0-2.07,0-3.11a.74.74,0,0,1,1-.15.87.87,0,0,1,.25.35A4.19,4.19,0,0,1,28.59,31,.76.76,0,0,1,28.25,31.26Z"/><path class="cls-161" d="M31.23,35.12l0,.89-2.86,0a.78.78,0,0,1-.18-1,.8.8,0,0,1,.35-.28C29.47,34.55,30.43,34.19,31.23,35.12Z"/><path class="cls-162" d="M28.28,28.08l-.87,0-.06-1.68a.78.78,0,0,1,0-1.05.86.86,0,0,1,1.09,0,1.3,1.3,0,0,1,.37,1.08C28.76,27,29,27.7,28.28,28.08Z"/><path class="cls-163" d="M24.5,29.35l.91-.09c-.15.73.6,1.88-.91,2Z"/><path class="cls-164" d="M27.39,33.19h1a1.18,1.18,0,0,1,0,1.88l-.1,0a.58.58,0,0,1-.87,0Z"/><path class="cls-165" d="M27.85,48.55l.5.07a1,1,0,0,1,.38.86,1.51,1.51,0,0,1-.14,1,.84.84,0,0,1-.29.27.79.79,0,0,1-.91-.23C27.47,49.83,27,49,27.85,48.55Z"/><path class="cls-166" d="M27.39,56.33h1a.91.91,0,0,1,.37.83,1.22,1.22,0,0,1-.16.91.49.49,0,0,1-.32.18l-.88,0Z"/><path class="cls-167" d="M28.34,37h1a1.08,1.08,0,0,1,.38,1,1.06,1.06,0,0,1-.29,1,.77.77,0,0,1-1-.13l0,0A1.18,1.18,0,0,1,28.34,37Z"/><path class="cls-168" d="M28.34,37l0,1.91-.92,0C27.64,38.25,26.62,37,28.34,37Z"/><path class="cls-169" d="M28.36,52.47l-.09.91a.56.56,0,0,1-.87,0C27.26,52.63,27.61,52.35,28.36,52.47Z"/><path class="cls-170" d="M27.4,53.41l.87,0,.11,0a.8.8,0,0,1,.17.9.7.7,0,0,1-.27.27.74.74,0,0,1-.88-.22Z"/><path class="cls-171" d="M27.4,54.36l.87,0a.58.58,0,0,1,.08.92h-1C27.39,55,27.39,54.67,27.4,54.36Z"/><path class="cls-172" d="M27.39,50.5l.87,0c.39.27.35.59.1.93C27.61,51.57,27.26,51.28,27.39,50.5Z"/><path class="cls-173" d="M28.36,51.45l-.1-.93.1,0a.67.67,0,1,1,.94.95Z"/><path class="cls-174" d="M29.3,51.44l-.05-.91.13-.17a.74.74,0,0,1,1,.12.7.7,0,0,1-.11,1Z"/><path class="cls-175" d="M30.24,51.44v-.93l.14-.16a.72.72,0,0,1,.94.14.71.71,0,0,1-.11.95l-.24.08Z"/><path class="cls-176" d="M27.4,25.5c0,.31,0,.62,0,.93l-1,0a.75.75,0,0,1-.14-.92.72.72,0,0,1,.89-.25A.53.53,0,0,1,27.4,25.5Z"/><path class="cls-177" d="M26.42,25.49l0,.9-.94,0v0a.74.74,0,0,1-.29-.8.89.89,0,0,1,.19-.31.79.79,0,0,1,.86-.08A.58.58,0,0,1,26.42,25.49Z"/><path class="cls-178" d="M27.39,35.07l.87,0,.09.91C27.58,36.16,27.26,35.83,27.39,35.07Z"/><path class="cls-153" d="M25.38,38l-.88,0a.62.62,0,0,1-.05-.94l.09-.1C25.26,37,25.53,37.31,25.38,38Z"/><path class="cls-179" d="M24.45,44.7l-.88,0-.18-.12a.75.75,0,0,1,.05-1,.72.72,0,0,1,1,.05.39.39,0,0,1,.08.1Z"/><path class="cls-180" d="M29.33,38l0-1h.94v1A.63.63,0,0,1,29.33,38Z"/><path class="cls-181" d="M12.9,47.58l-6.75.06,0,0a.65.65,0,0,1-.08-.93h.1a1.22,1.22,0,0,1,1-.43c1.58-.11,3.15,0,4.72,0a1.48,1.48,0,0,1,1,.33A.76.76,0,0,1,12.9,47.58Z"/><path class="cls-182" d="M12.9,47.58v-.92l.12-.2a3,3,0,0,1,2.85,0,.78.78,0,0,1-.09,1.07Z"/><path class="cls-183" d="M15.79,47.58l0-.9a.78.78,0,0,1,.84-.44,1.61,1.61,0,0,1,1,.14.75.75,0,0,1,.28.28.74.74,0,0,1-.22.91Z"/><path class="cls-184" d="M17.71,47.57l.05-.88a.58.58,0,0,1,1,0l0,.89Z"/><path class="cls-185" d="M6.1,46.66l.08.93c-.8.16-1.13-.14-.95-1Z"/><path class="cls-186" d="M29.23,60.17c-1.45-.06-.68-1.26-1-1.91l.1-.06a.77.77,0,0,1,1-.12,1,1,0,0,1,.37.92c0,.32.07.67-.15,1A.69.69,0,0,1,29.23,60.17Z"/><path class="cls-187" d="M30.2,63l-.89,0c0-.64,0-1.28,0-1.92a.82.82,0,0,1,1-.16,1,1,0,0,1,.38.92c0,.33.06.67-.16,1A.58.58,0,0,1,30.2,63Z"/><path class="cls-188" d="M30.21,61.13l-.91,0c0-.31-.05-.62-.07-.93l.12,0a.68.68,0,0,1,1,0A.7.7,0,0,1,30.21,61.13Z"/><path class="cls-142" d="M18.72,46.7h-1l-.07-.07a.8.8,0,0,1,.22-1.23,4.44,4.44,0,0,1,3.69.32l0,.88-.95.08Z"/><path class="cls-189" d="M23.48,45.66l-.9.07-.07-.08a.68.68,0,1,1,1-.95l.1,0Z"/><path class="cls-190" d="M22.56,44.73l0,.92-.91.06c-1,0-1.9,0-2.84,0-.68,0-1.06.23-1.07.93h-.94a1.48,1.48,0,0,0-1.31-.44c-.92,0-1.84,0-2.77,0-1.4,0-2.79,0-4.19,0A2.3,2.3,0,0,1,7,45.84a4,4,0,0,1-.22-2.93c1.15-.95,2-.85,2.87.35.73,1,1.29,1,1.84,0s1.36-1,2.27-1a1.47,1.47,0,0,1,1.62,1.11.85.85,0,0,0,.88.68,1.07,1.07,0,0,0,.91-.66c.91-1.56,2.15-1.59,3.05-.06a1.52,1.52,0,0,0,1.24.8C21.88,44.22,22.35,44.23,22.56,44.73Z"/><path class="cls-191" d="M37,38.94c.28,0,.56,0,.84,0,2.15-.06,1.7.35,2.51-1.89l.5,0a1.41,1.41,0,0,1,.52,1.15c.06,2.54.08,5.09,0,7.63a1.32,1.32,0,0,1-.35,1,5.64,5.64,0,0,1-4.14,0,16.76,16.76,0,0,1-.14-7.65C36.76,39.05,36.91,39,37,38.94Z"/><path class="cls-192" d="M39.91,65.89l-2.86,0c-.23-.17-.48-.35-.49-.65a25.6,25.6,0,0,1,.16-6.94c.63-.91,1.58-.49,2.39-.52s1.32-.07,1.68-.77a2.38,2.38,0,0,1,1.92-.07,1.86,1.86,0,0,1,.17,2.56,2.87,2.87,0,0,0-.59,1.15c0,.24-.14.52-.35.6-2,.76-1.72,2.45-1.75,4A.84.84,0,0,1,39.91,65.89Z"/><path class="cls-193" d="M40.83,46.64l0-9.62H42.8c.49.36.47.88.47,1.41,0,2.11,0,4.22,0,6.32,0,.7-.14,1.43.53,2,.27.22.17.58,0,.86l-2.92,0A.67.67,0,0,1,40.83,46.64Z"/><path class="cls-194" d="M39.91,65.89a2.09,2.09,0,0,1,0-2.87c.16-.2,0-.62,0-.94,0-.64.23-1,.91-1s1-.27,1-1c0-.36,0-.73.42-.92.89-.44.39-1.28.56-1.93.59-.77,1.29-.55,2-.21.58.59.42,1.29.3,2-.83.45-.75,1.47-1.32,2.08l0,0c-.71.48-.31,1.32-.65,1.92a.75.75,0,0,1-.21.26c-1,.37-.43,1.25-.66,1.87a.86.86,0,0,1-.43.75Z"/><path class="cls-195" d="M37,58.23l.06,7.64-2,0c-.5-.35-.44-.88-.47-1.39-.07-1.26.21-2.5-.76-3.7A2.49,2.49,0,0,1,34,58C35.05,57.65,36.06,57.41,37,58.23Z"/><path class="cls-196" d="M30.21,61.13v-1c-.25-.39-.64-.65-.9-1l-.08-.92.11-.19A1.7,1.7,0,0,1,31.2,58a.9.9,0,0,1,.48.88,1.25,1.25,0,0,0,.73,1.22,1.21,1.21,0,0,1,.22.94c0,.32,0,.63,0,.94-.16.76.75.77.91,1.3,0,.91.44,1.9-.44,2.66h-.91a.91.91,0,0,1-.43-.74.81.81,0,0,0-.62-.9.72.72,0,0,1-.23-.26,1.54,1.54,0,0,1-.15-.82,1.31,1.31,0,0,0-.48-1.11Z"/><path class="cls-197" d="M43.75,47.61c-1.79-2.34-.68-5-1-7.58-.1-1,0-2,0-3l1,0c.5.36.45.89.45,1.42,0,2.2,0,4.41,0,6.62a1.5,1.5,0,0,0,.63,1.45.82.82,0,0,1-.14,1.05Z"/><path class="cls-198" d="M44.71,47.6v-1a1.41,1.41,0,0,1-.47-1.18q0-3.6,0-7.22a1.39,1.39,0,0,1,.44-1.19c1-.13,1,.48,1,1.19l0,9.36Z"/><path class="cls-199" d="M44.67,37.05l0,9.59c-.88.12-1-.44-1-1.11,0-2.82,0-5.65,0-8.47Z"/><path class="cls-200" d="M34.13,58.26c0,1.11-.2,2.19.78,3.18.52.52.13,1.6.16,2.43,0,.67,0,1.35,0,2h-1c-.79-.66-.41-1.57-.44-2.37s0-1.27-.74-1.61a1.5,1.5,0,0,1-.19-.85c0-1-.36-2,.34-2.92A.74.74,0,0,1,34.13,58.26Z"/><path class="cls-201" d="M48.53,30.51c-.19,0-.5,0-.55.08-.54,1.08-1.48.61-2.29.64l-.2-.13a3.86,3.86,0,0,1-.22-2.57.82.82,0,0,1,.93-.76c.82.13,1.7-.1,2.46.38a1.8,1.8,0,0,1,.2,2A.75.75,0,0,1,48.53,30.51Z"/><path class="cls-202" d="M40.38,33.13a1.4,1.4,0,0,1,1.94-1,6.46,6.46,0,0,0,1.53.05c.68,0,.91-.34.87-1l.12-.14a.63.63,0,0,1,.83.12h0c0,.62,0,1.24,0,1.86l-.09.2c-1.16.77-2.42.32-3.65.34a3,3,0,0,1-1.07-.13A.67.67,0,0,1,40.38,33.13Z"/><path class="cls-203" d="M43.76,55.29l-2.91.08v-.11a1,1,0,0,1-.38-.9,1.46,1.46,0,0,1,.2-1,.87.87,0,0,1,.37-.25c1-.16,2-.44,2.89.23A1.46,1.46,0,0,1,43.76,55.29Z"/><path class="cls-204" d="M44.7,57.27H42.81l-2,0a1.4,1.4,0,0,1-2,.1.77.77,0,0,1,.06-1.08l1.93,0,3.84,0A.62.62,0,0,1,44.7,57.27Z"/><path class="cls-205" d="M38.68,68.8l-2.67,0a1.15,1.15,0,0,1,0-1.85h2.9C39.63,67.66,39.31,68.25,38.68,68.8Z"/><path class="cls-206" d="M40.84,36l0-.91a1.18,1.18,0,0,1,.11-.19c.42-.42,1-.19,1.46-.35,1.11,0,2.26-.29,3.3.39a.73.73,0,0,1-.08,1Z"/><path class="cls-207" d="M48.61,42.78V38a.77.77,0,0,1,1.09-.07,7.94,7.94,0,0,1,0,4.87A.75.75,0,0,1,48.61,42.78Z"/><path class="cls-201" d="M48.58,35.09c.06-.57-.3-.91-.64-1.31-.66-.77-.39-1.37.63-1.59a.84.84,0,0,1,1.11-.07,3.09,3.09,0,0,1,0,3A.78.78,0,0,1,48.58,35.09Z"/><path class="cls-208" d="M33.18,61.81c.65,0,.94.3.92,1,0,1,0,2.08,0,3.12h-1c0-.94,0-1.89,0-2.83a.87.87,0,0,1-.22-1A.58.58,0,0,1,33.18,61.81Z"/><path class="cls-209" d="M38.68,68.8l.24-1.86a3,3,0,0,1,1.64.09c.46.23.28.77.27,1.19a.55.55,0,0,1-.61.58C39.71,68.81,39.2,68.8,38.68,68.8Z"/><path class="cls-210" d="M44.72,52.44l1.91,0c0,.63,0,1.27,0,1.9s-.27,1-1,1c-.68-.36-.16-1.43-1-1.69a.79.79,0,0,1-.2-.31A.83.83,0,0,1,44.72,52.44Z"/><path class="cls-211" d="M36,66.93v1.85H34.13V66.93Z"/><path class="cls-212" d="M44.7,57.27v-1c.61-.05,1,.17,1,.85s0,1.19,0,1.78a.89.89,0,0,1-.92,1,.58.58,0,0,1-.06-.81Z"/><path class="cls-213" d="M45.66,36v-.93a1.14,1.14,0,0,1,0-1.86v-.11c1.37.07.89,1.11,1,1.85S46.52,36.14,45.66,36Z"/><path class="cls-214" d="M46.64,51.46l-1,0a2.22,2.22,0,0,1,0-2.81l1,0Z"/><path class="cls-215" d="M43.73,63c-.15.73.58,1.86-.91,2l-.19-.11a1.21,1.21,0,0,1,.17-1.82h0A.64.64,0,0,1,43.73,63Z"/><path class="cls-216" d="M43.73,63l-.93,0c.17-.72-.58-1.88.94-1.95C43.74,61.74,43.74,62.38,43.73,63Z"/><path class="cls-217" d="M44.74,53.39c1.55,0,.73,1.22.91,1.92l-1,0C44.1,54.64,44,54,44.74,53.39Z"/><path class="cls-218" d="M44.74,53.39c0,.63,0,1.27-.05,1.9h-.93c0-.63,0-1.26,0-1.88a.67.67,0,0,1,1,0Z"/><path class="cls-219" d="M44.69,59.13l.06.81c0,.65-.08,1.26-1,1.19C43.88,60.37,43.23,59.27,44.69,59.13Z"/><path class="cls-220" d="M32.16,65l.05.9-1,0L31.16,65l.13-.15A.64.64,0,0,1,32.16,65Z"/><path class="cls-221" d="M41.79,65.9l.05-.91a.58.58,0,0,1,.89,0l.09,0C42.85,65.7,42.52,66,41.79,65.9Z"/><path class="cls-222" d="M48.58,35.09h.89l.18.12a.68.68,0,1,1-1,.87Z"/><path class="cls-223" d="M48.6,36.07l.9,0a.68.68,0,0,1,.28.87.79.79,0,0,1-.26.31.74.74,0,0,1-.91-.18Z"/><path class="cls-224" d="M48.53,30.51l.09-.28a.75.75,0,0,1,1-.11.85.85,0,0,1,.22,1,.76.76,0,0,1-.27.32.74.74,0,0,1-.93-.2Z"/><path class="cls-225" d="M48.6,31.21l.89,0a.6.6,0,0,1,0,1l-.93,0Z"/><path class="cls-226" d="M48.61,42.78l.92,0,.14.08a.63.63,0,0,1,.09.75.48.48,0,0,1-.26.18l-.92-.07Z"/><path class="cls-227" d="M48.61,37l.92,0a.62.62,0,0,1,0,1l-.91,0Z"/><path class="cls-228" d="M6.17,29.34l10.6-.08-.06,0,0,.06a.76.76,0,0,1,.09,1.07c-.53.51-1.19.3-1.8.32-1,0-2,0-2.94,0s-1.77,0-2.65,0a1,1,0,0,0-1.21.66c-.57.15-.73.74-1.17,1a.78.78,0,0,1-.87-.24Z"/><path class="cls-229" d="M6.18,32.18l.92,0,.18.1a1.21,1.21,0,0,1,.28,1,7.37,7.37,0,0,1,0,1.05,14.76,14.76,0,0,1,0,2.82,30,30,0,0,1,0,3.55,1.92,1.92,0,0,1-.38,1.22.76.76,0,0,1-1.08,0Z"/><path class="cls-230" d="M6.2,41.84h.89l.15.1a.63.63,0,0,1-.09.84l0,2.88a.68.68,0,0,1,0,1H6.2Z"/><path class="cls-231" d="M53.41,47.65c-.63,0-1.06-.22-1-.95l.12-.17a.72.72,0,0,1,1,.09.7.7,0,0,1-.12,1Z"/><path class="cls-232" d="M49.55,44.7l0-.89.06-.1c1.08-.24,1.2-.12,1,1A.71.71,0,0,1,49.55,44.7Z"/><path class="cls-233" d="M49.55,44.7l.94,0,.15.1a.65.65,0,0,1,.08.67.58.58,0,0,1-.26.23C49.76,45.74,49.47,45.39,49.55,44.7Z"/><path class="cls-234" d="M51.5,46.63c-.69.09-1-.2-1-.9l.06-.07a.71.71,0,0,1,1,0A.72.72,0,0,1,51.5,46.63Z"/><path class="cls-235" d="M51.5,46.63l-.07-.9.12-.17a.76.76,0,0,1,1,.06.7.7,0,0,1-.1,1v.11Z"/><path class="cls-236" d="M68.85,38.7l-.08,5.08a.76.76,0,0,1-1,.09,1,1,0,0,1-.23-.37,12.2,12.2,0,0,1-.11-3.25c0-.22,0-.43,0-.65a8.58,8.58,0,0,1,0-2.58.94.94,0,0,1,.28-.6.75.75,0,0,1,1,.1Z"/><path class="cls-237" d="M68.77,36.52l-.89,0c-.68-.35-.49-1-.51-1.56a11.47,11.47,0,0,1,0-1.76,1.35,1.35,0,0,1,.3-1.11.79.79,0,0,1,1.08.06l.07,2.91Z"/><path class="cls-82" d="M57.3,28.29h.93l9.6.07a.77.77,0,0,1,.15,1,1,1,0,0,1-.37.26,41.28,41.28,0,0,1-6.19.12,13,13,0,0,1-4-.17.79.79,0,0,1-.38-1A.66.66,0,0,1,57.3,28.29Z"/><path class="cls-238" d="M68.78,32.18l-.9,0c-.79-.47-.45-1.21-.46-1.87a1.22,1.22,0,0,1,.42-1v-.11a.68.68,0,0,1,1,.1Z"/><path class="cls-239" d="M68.8,29.33l-1-.1c0-.29,0-.57,0-.86C68.59,28.25,68.89,28.59,68.8,29.33Z"/><path class="cls-240" d="M52.42,25.49c-.05-.69.23-1.07,1-1l.91,0c.09.35-.06.83.51.9s.47.59.51,1a7.1,7.1,0,0,1-1,1.2,1,1,0,0,1-.92,0,7.5,7.5,0,0,0-1.19-1.2A.77.77,0,0,1,52.42,25.49Z"/><path class="cls-241" d="M54.36,27.36c-.08-.72.29-1,1-.95l.93,0c0,.3,0,.6,0,.9l-.09.19a1.29,1.29,0,0,1-1.74,0Z"/><path class="cls-242" d="M56.3,27.34l.93.07c0,.3,0,.59.07.88l-.08.07a.7.7,0,0,1-1,.05.66.66,0,0,1,0-1Z"/><path class="cls-243" d="M25.46,15.85l.92-.08c.52-.57,1.2-.46,1.85-.43a10.1,10.1,0,0,1,1.1,0,1.37,1.37,0,0,1,1,.31.94.94,0,0,1,.19.95.85.85,0,0,1-.82.59c-1.23-.06-.12.41-.15.62a1,1,0,0,1-.18,1,1.44,1.44,0,0,1-1.06.32c-.69.05-1.41.22-1.93-.44h0c-.34-.3-.64-.65-1-.94h0A1.15,1.15,0,0,1,25.46,15.85Z"/><path class="cls-244" d="M28.3,15.76H26.38c0-.28,0-.57,0-.85.65,0,1.08-.3,1-1,1.12.07.91-.74.93-1.4s-.23-1.54.92-1.55l.08.08a1.09,1.09,0,0,1,.39.92,5.93,5.93,0,0,1,.05,1,5.2,5.2,0,0,1-.11,1.8C29.32,15.26,28.66,15.31,28.3,15.76Z"/><path class="cls-245" d="M24.48,17.72l-1,0,0-1.84h1A1.17,1.17,0,0,1,24.48,17.72Z"/><path class="cls-246" d="M24.48,17.72l0-1.88h1l0,1.89Z"/><path class="cls-247" d="M50.48,17.68l-.95.05a1.18,1.18,0,0,1,0-1.89l.06-.05c.71,0,1,.34.95,1Z"/><path class="cls-248" d="M46.69,11l0,.93,0,0a.73.73,0,0,1-1,.07.8.8,0,0,1,0-1.05.73.73,0,0,1,1,0Z"/><path class="cls-249" d="M45.69,12l.94,0c0,1,0,1.9,0,2.84l-.12.18a.77.77,0,0,1-1-.06,2.43,2.43,0,0,1-.29-1.84,1.24,1.24,0,0,1,.27-1Z"/><path class="cls-250" d="M47.61,14.86l0,.9a.68.68,0,0,1-1,.13.69.69,0,0,1,0-1v-.1Z"/><path class="cls-251" d="M46.65,15.75h1l.9.07a.74.74,0,0,1,.3.82c-.2.52-.91.6-1,1.19a.79.79,0,0,1-.34.2,1,1,0,0,1-1-.22A1.63,1.63,0,0,1,46.34,16,.7.7,0,0,1,46.65,15.75Z"/><path class="cls-252" d="M48.53,16.73v-.9h1l0,1.89h0a.77.77,0,0,1-1,.07A.83.83,0,0,1,48.53,16.73Z"/><path class="cls-253" d="M36,10h1.89l.16,0c.27.25.45.61.87.67a1,1,0,0,1,.24.23,1.19,1.19,0,0,0,.81.82.74.74,0,0,1,.21.31,2,2,0,0,1,.1.95,1.29,1.29,0,0,1-.24.93c-.58.47-1.06.26-1.58-.16s-.86-1.22-1.56-1.56c-.42-.35-.59-.91-1.09-1.19a.83.83,0,0,1,0-.92Z"/><path class="cls-254" d="M33.07,10c.1-1.46,1.28-.74,2-1l.92.07L36,10l0,0a1,1,0,0,1-.89.41,2.92,2.92,0,0,1-1.8-.13A.61.61,0,0,1,33.07,10Z"/><path class="cls-255" d="M38,9.08,38.89,9l.17.09a.77.77,0,0,1,.09.89.66.66,0,0,1-.29.26A.78.78,0,0,1,38,10l0-.06Z"/><path class="cls-256" d="M39,8.11,39.9,8v.09a.74.74,0,0,1,.21.88.64.64,0,0,1-.27.27A.78.78,0,0,1,39,9.11L38.89,9Z"/><path class="cls-257" d="M32.14,11c0-.33.06-.65.1-1h.83a.29.29,0,0,0,.13,0,.75.75,0,0,1,0,1.06A.74.74,0,0,1,32.14,11Z"/><path class="cls-258" d="M32.14,11h1a.75.75,0,0,1,.09,1.09,3,3,0,0,1-3,0A.82.82,0,0,1,30.26,11l0,0Z"/><path class="cls-259" d="M24.44,26.43c.1,1.84.1,1.84-1.87,2-.61.44-.77,1.64-1.93,1.16a6.62,6.62,0,0,1-1-1.23l0-.88c.66,0,1.09-.22,1-1l.91-.08.08.1a1.16,1.16,0,0,0,1.85,0l.07-.09A.58.58,0,0,1,24.44,26.43Z"/><path class="cls-260" d="M23.48,26.45c.13.79-.34.92-1,.94s-1-.24-.86-.92Z"/><path class="cls-261" d="M24.44,26.43l-.89-.07c0-.3,0-.61-.05-.91l1,0,.14.11a.65.65,0,0,1-.08.85Z"/><path class="cls-262" d="M24.47,25.42l0-1a.72.72,0,0,1,1-.07.69.69,0,0,1,0,1l0,.1a.68.68,0,0,1-1,0Z"/><path class="cls-263" d="M25.43,24.49l-.93,0-.06-.91,0-.06a.72.72,0,0,1,1,0A.7.7,0,0,1,25.43,24.49Z"/><path class="cls-264" d="M25.43,23.51h-.94c0-.31,0-.62,0-.92l.92-.07.14.09a.61.61,0,0,1,0,.8Z"/><path class="cls-265" d="M45.67,11l0,1v0a3.4,3.4,0,0,0-.79,1.12.78.78,0,0,1-.33.19,2.65,2.65,0,0,1-1,.08A1,1,0,0,1,42.4,12a1.08,1.08,0,0,1,.41-1L44.67,11A.7.7,0,0,1,45.67,11Z"/><path class="cls-266" d="M40.83,9.09,40.89,11a.79.79,0,0,1,0,1.05.75.75,0,0,1-1,0h0c-.29-.35-.64-.65-1-1h0a.66.66,0,0,1,0-1l0,0c.32-.31.62-.63.94-.93h0A.63.63,0,0,1,40.83,9.09Z"/><path class="cls-267" d="M45.67,11l-1-.05c0-.31,0-.62,0-.92.64.27,1.91-.73,1.87.91Z"/><path class="cls-268" d="M40.85,12c0-.33,0-.67,0-1l1.92.09,0,.89a1.23,1.23,0,0,1-1.8.22C40.94,12.09,40.89,12,40.85,12Z"/><path class="cls-269" d="M40.83,9.09l-.94,0V8.13h.94Z"/><path class="cls-270" d="M49.56,21.57l.89.07c-.07.72.29,1,1,1l0,.9a1,1,0,0,1-.89.41,1.55,1.55,0,0,1-1-.12c-.42-.36-.63-.94-1.19-1.17a1,1,0,0,1-.06-1,.81.81,0,0,1,.29-.29A.83.83,0,0,1,49.56,21.57Z"/><path class="cls-271" d="M52.42,25.49l0,.89a1.18,1.18,0,0,1-.11.19,1.52,1.52,0,0,1-1.86,0,.81.81,0,0,1-.16-1l.16-.15Z"/><path class="cls-272" d="M50.54,24.51l0,.93h0a.78.78,0,0,1-1,.1.81.81,0,0,1-.18-1,.75.75,0,0,1,.91-.33A.56.56,0,0,1,50.54,24.51Z"/><path class="cls-273" d="M50.49,23.56l.95-.06c.12.71-.22,1-.9,1l-.07-.05A.62.62,0,0,1,50.49,23.56Z"/><path class="cls-274" d="M49.56,21.57l-1,0a.62.62,0,0,1,0-1l.9.06C49.51,21,49.54,21.27,49.56,21.57Z"/><path class="cls-275" d="M30.26,11l0,.93a.62.62,0,0,1-1,0V11Z"/><path class="cls-276" d="M25.42,17.75c.71-.09,1.06.21,1,.94l-1-.05Z"/><path class="cls-277" d="M26.39,18.7l1.91,0a1,1,0,0,1,.42.87,1.57,1.57,0,0,1-.07,1c-.28.45-1,.51-1.08,1.12-.35.27-.83.43-1,.94a.81.81,0,0,1-.3.21.83.83,0,0,1-.86-.26l0-.06c0-.32,0-.63,0-.95l.08-.92C27,20.56,26.16,19.38,26.39,18.7Z"/><path class="cls-278" d="M48.59,20.6c0,.33,0,.66,0,1h0a.82.82,0,0,1-.86.24c-.47-.24-.59-.89-1.17-1a2.68,2.68,0,0,0-1-1.08,1,1,0,0,1-.13-.88.76.76,0,0,1,.17-.32,2.53,2.53,0,0,0,1-.74l.16-.06,1,0a.74.74,0,0,1,.41.74,1.36,1.36,0,0,0,.52,1.18l0,0Z"/><path class="cls-279" d="M47.62,18.71v-.95l0,0a.66.66,0,0,1,.94,0l1,0v.91l-.94.08A.71.71,0,0,1,47.62,18.71Z"/><path class="cls-280" d="M47.62,18.71h1l-.05,1C47.86,19.72,47.53,19.42,47.62,18.71Z"/><path class="cls-281" d="M19.63,28.32c.67,0,1.08.22,1,1a.79.79,0,0,1-.86.43,1.16,1.16,0,0,1-.95-.23l-.11-.18v-.9Z"/><path class="cls-282" d="M16.74,30.23v-.88l1-.08,1,0h0a.81.81,0,0,1,.12,1.05,1.1,1.1,0,0,1-1.06.31C17.34,30.67,17,30.65,16.74,30.23Z"/><path class="cls-283" d="M31.2,63.06v1a.61.61,0,0,1-.93,0c0-.31-.05-.63-.08-.94h.11A.59.59,0,0,1,31.2,63.06Z"/><path class="cls-284" d="M30.28,64l.93,0,0,0a.71.71,0,0,1,0,1l-.12,0-.87,0C30.29,64.62,30.29,64.3,30.28,64Z"/><path class="cls-285" d="M35.8,31.22H32.16a1.61,1.61,0,0,1-.31-1.88,1.79,1.79,0,0,0,.83-1.89,6.34,6.34,0,0,1,.09-2,1,1,0,0,1,.1-.39,2.18,2.18,0,0,0,.78-2,6.27,6.27,0,0,1,.16-2.51.74.74,0,0,1,.22-.33,1,1,0,0,1,.95-.11c.72.44.65,1.14.53,1.81a6.62,6.62,0,0,0-.08,1.95c.63-.19,1.13-1,1.81-.26a1,1,0,0,1,0,1,2.18,2.18,0,0,0-.7,1.92c0,1.08,0,2.15,0,3.22A1.5,1.5,0,0,1,35.8,31.22Z"/><path class="cls-286" d="M41.84,31.21h-1c-.17-.17-.39-.32-.43-.56a19.93,19.93,0,0,0-1.8-4.85c-.41-.92-.19-2.05-1-2.87a8.27,8.27,0,0,0-.77-.69,4.38,4.38,0,0,1-.25-3,1,1,0,0,1,1.6-.58,2.54,2.54,0,0,1,1.25,1.83,4.75,4.75,0,0,0,.88,2c.12-.54.28-1,.79-1.11.9-.07,1.2.46,1.25,1.25s-.07,1.44,0,2.16c0,1.7,0,3.39,0,5.09A1.53,1.53,0,0,1,41.84,31.21Z"/><path class="cls-287" d="M37,22.08a2.32,2.32,0,0,1,1.86,2c.16.83.52,1.55.73,2.29.44,1.59,1.72,3,1.24,4.8H38.92a1.55,1.55,0,0,1-.52-1.52,5.42,5.42,0,0,0-1.69-4A1.12,1.12,0,0,1,37,24.48v-1C36.57,23,36.46,22.55,37,22.08Z"/><path class="cls-288" d="M44.72,31.24l-1.92,0c-.5-.33-.5-.85-.5-1.37,0-1.66,0-3.31,0-5s.12-1.73,1.32-2a.72.72,0,0,1,.44.43c.17.78,0,1.7,1,2.15a2,2,0,0,1,.15,1.05c.14,1.23,0,2.45,0,3.67a1.23,1.23,0,0,1-.47,1Z"/><path class="cls-289" d="M37,25.7a3.41,3.41,0,0,1,1.9,2.9,25.24,25.24,0,0,1,0,2.61l-1.92,0a1.23,1.23,0,0,1-.47-.93c0-1.23,0-2.47,0-3.71A1,1,0,0,1,37,25.7Z"/><path class="cls-290" d="M28.36,35.07V33.19H31.7c.48.54,1.55.77.95,1.86l-1.42.07Z"/><path class="cls-291" d="M38.92,35l-3.85,0a1.13,1.13,0,0,1,0-1.86H38C38.42,33.74,39.69,33.86,38.92,35Z"/><path class="cls-286" d="M37,25.7c0,1.84,0,3.68,0,5.53H35.8c.44-1.49.12-3,.26-4.51.07-.82-.14-1.81.94-2.23C37,24.89,37,25.29,37,25.7Z"/><path class="cls-191" d="M42.78,24.73c0,2.16,0,4.31,0,6.47h-1c0-2.17,0-4.33,0-6.5A.64.64,0,0,1,42.78,24.73Z"/><path class="cls-292" d="M35.07,33.2v1.86l-.23.06-2.19-.07c-.08-.74-1-1-.95-1.86Z"/><path class="cls-293" d="M38.92,35c.14-.85-1.08-1-1-1.84l2.42-.07.47.07a1.14,1.14,0,0,1,0,1.87l0,0Z"/><path class="cls-294" d="M32.21,29.33c0,.63,0,1.26-.05,1.89l-.91.07-.2-.11c-.49-.59-.3-1.25-.2-1.9a.89.89,0,0,1,.28-.6.83.83,0,0,1,1.05,0A.5.5,0,0,1,32.21,29.33Z"/><path class="cls-295" d="M30.25,32.19c-.76-.11-1.86.51-2-.93l.13-.05a.93.93,0,0,1,.86-.38,1.42,1.42,0,0,1,1,.14.66.66,0,0,1,.27.3A.79.79,0,0,1,30.25,32.19Z"/><path class="cls-296" d="M30.25,32.19l0-.88c.26-.39.58-.36.92-.13l.06.11C31.28,32,30.93,32.27,30.25,32.19Z"/><path class="cls-297" d="M37,38.94c0,2.57,0,5.13,0,7.7a.65.65,0,0,1,0,.93l-4.85,0a.82.82,0,0,1-.2-1,.81.81,0,0,1,.28-.3c.5-.26.41-.74.41-1.17,0-1.6,0-3.21,0-4.81a1.55,1.55,0,0,1,.49-1.41h0a4,4,0,0,1,3.87,0Z"/><path class="cls-298" d="M33.86,48.62h7a.74.74,0,0,1,.06,1.06c-1.22.68-2.54.21-3.82.34a12.27,12.27,0,0,1-2.9-.14.94.94,0,0,1-.39-.22A.75.75,0,0,1,33.86,48.62Z"/><path class="cls-299" d="M40.82,49.56v-.94h4.8c0,.94,0,1.87,0,2.81l-1,0a1.13,1.13,0,0,1-.47-.91c0-.51-.41-.48-.77-.49-.84-.1-1.73.27-2.52-.29Z"/><path class="cls-300" d="M37,47.57v-.93h3.81v.94Z"/><path class="cls-301" d="M28.37,49.55l0-.93h2.86a.74.74,0,0,1,.11,1,1.13,1.13,0,0,1-1,.36,4.61,4.61,0,0,1-1.05,0A1.06,1.06,0,0,1,28.37,49.55Z"/><path class="cls-302" d="M31.22,49.53v-.91h2.65v.9c-.35.68-1,.48-1.54.47a1.29,1.29,0,0,1-1-.28Z"/><path class="cls-303" d="M30.24,47.58h-.92a.69.69,0,0,1-.09-1,.67.67,0,0,1,1,0l.11,0A.65.65,0,0,1,30.24,47.58Z"/><path class="cls-304" d="M30.24,47.58c0-.3.05-.61.08-.92l.89,0a.62.62,0,0,1,0,.94Z"/><path class="cls-305" d="M31.2,47.58c0-.31,0-.62,0-.94l0,0a.64.64,0,0,1,1,0c0,.31,0,.62,0,.93Z"/><path class="cls-306" d="M29.32,46.64v1h-1l0-.95a.62.62,0,0,1,.82-.13Z"/><path class="cls-307" d="M34.83,52.47h6a.6.6,0,0,1,.06.89l-.1.06c-.46.62-1.14.43-1.75.45s-1.35,0-2,0-1.57.26-2.26-.31A.77.77,0,0,1,34.83,52.47Z"/><path class="cls-308" d="M37,51.43l-4.81,0a.76.76,0,0,1-.08-1c.56-.54,1.26-.35,1.92-.37a10,10,0,0,1,2.78.14,1,1,0,0,1,.35.26A.77.77,0,0,1,37,51.43Z"/><path class="cls-309" d="M40.9,53.37l-.06-.89,3.88,0c0,.32,0,.63,0,.94l-1,0Z"/><path class="cls-310" d="M37,51.43v-.9c1.24-.88,2.55-.6,3.86-.19a.75.75,0,0,1,0,1.09Z"/><path class="cls-311" d="M34.83,52.47l0,.89a.65.65,0,0,1-.5.38,4.09,4.09,0,0,1-2.14,0,.69.69,0,0,1-.5-.38c0-.3,0-.6,0-.9Z"/><path class="cls-312" d="M40.84,51.43v-1L41,50.3a3,3,0,0,1,2.85.08.75.75,0,0,1-.07,1Z"/><path class="cls-313" d="M43.75,51.43l0-.91a.72.72,0,0,1,0-1c1.64,0,.74,1.2,1,1.88Z"/><path class="cls-314" d="M32.2,50.59c0,.28,0,.57,0,.86h-1c0-.31,0-.62,0-.92a.64.64,0,0,1,.08-.14.6.6,0,0,1,.75-.07A.42.42,0,0,1,32.2,50.59Z"/><path class="cls-315" d="M38.93,56.33v.9c-.09.18-.22.38-.41.39-1.4.1-2.81.39-4.19-.17a.77.77,0,0,1,0-1.11Z"/><path class="cls-316" d="M40.81,54.33c0,.31,0,.62,0,.93l-3.85,0a.73.73,0,0,1,0-1.07A4.25,4.25,0,0,1,40.81,54.33Z"/><path class="cls-317" d="M28.36,57.28v-.94a24.1,24.1,0,0,1,3.8,0,.73.73,0,0,1,.1,1,1.25,1.25,0,0,1-1,.34,8.9,8.9,0,0,1-1.93,0A1.14,1.14,0,0,1,28.36,57.28Z"/><path class="cls-318" d="M37,54.38v.9H33.12a.8.8,0,0,1-.08-1c.35-.4.81-.35,1.27-.34.86.09,1.77-.29,2.57.29Z"/><path class="cls-319" d="M32.19,57.24l0-.9h2.18l0,.9a.94.94,0,0,1-1.09.45,1.24,1.24,0,0,1-1-.27Z"/><path class="cls-320" d="M33.17,54.39c0,.3,0,.6-.05.9H31.23a.76.76,0,0,1-.23-.9.89.89,0,0,1,.28-.3,1.67,1.67,0,0,1,1-.14A.81.81,0,0,1,33.17,54.39Z"/><path class="cls-321" d="M29.29,53.42h1a1,1,0,0,1,.36.93,1,1,0,0,1-.36.94h-1a1,1,0,0,1-.36-.94A1,1,0,0,1,29.29,53.42Z"/><path class="cls-322" d="M29.26,54.39l0,.9h-.94l-.08-.92.11,0A.57.57,0,0,1,29.26,54.39Z"/><path class="cls-323" d="M30.26,55.29l0-.91a.62.62,0,0,1,1,0c0,.3,0,.61,0,.91Z"/><path class="cls-324" d="M30.21,46.64h-.89l0,0a1.42,1.42,0,0,1-.47-1.17c0-1.79,0-3.57,0-5.36A1.42,1.42,0,0,1,29.26,39c0-.32,0-.64.07-1h.9C30.22,40.87,30.21,43.76,30.21,46.64Z"/><path class="cls-325" d="M32.19,46.66h-1l0-7.7h.93a1.47,1.47,0,0,1,.48,1.28c0,1.72,0,3.43,0,5.14a1.51,1.51,0,0,1-.47,1.29Z"/><path class="cls-326" d="M29.26,39l0,7.7-.91,0q0-3.85,0-7.71Z"/><path class="cls-327" d="M37,38.93H33.14c-.09-1.17.78-.92,1.44-1,.48,0,1,0,1.43,0C36.7,37.93,37.06,38.21,37,38.93Z"/><path class="cls-328" d="M17.75,30.3l.91-.07a1.08,1.08,0,0,1,.91-.35c1.19,0,2,.84,3,1.35h.94c0,1.6,0,3.21,0,4.82-.46.39-1,.35-1.21-.15-.36-1.13-1.18-1.28-2.14-1.34a1.6,1.6,0,0,1-.44-.17c-.61-.29-.32-1.41-1.05-1.38s-.37,1.06-.95,1.36a.3.3,0,0,0-.11.06,4,4,0,0,1-2.43.08c-.56-.18-.7-.67-.93-1.15a.91.91,0,0,0-1.69,0c-1,1.72-1.75,1.78-3.21.27-.13-.14-.35-.19-.47-.36a1,1,0,0,1-.06-1A7.45,7.45,0,0,0,10,30.91a4.55,4.55,0,0,1,1.87-.15c1.48,0,2.95,0,4.42,0A1.68,1.68,0,0,0,17.75,30.3Z"/><path class="cls-329" d="M19.65,34.12c.48,0,1,0,1.44,0,.92-.07,1.57.1,1.49,1.25,0,.6.44.68.91.69,0,.31.05.62.08.93l-.09.2c-.2.19-.43.38-.43.69a1.33,1.33,0,0,1-1.52,1.54,2.47,2.47,0,0,1-2.32-1.71,3.47,3.47,0,0,1,0-.72c0-.93-.33-1.88.26-2.75Z"/><path class="cls-330" d="M24.45,37c0,.31,0,.63.05.94l-.1,0c-1.06.24-1.19.11-.94-1l.11,0Z"/><path class="cls-331" d="M22.53,31.23c-1.18.33-2-.51-2.88-1a.61.61,0,0,1,0-.91l.93-.06c.38,0,.82.1.95-.41s.58-.52,1-.5C22.55,29.33,22.54,30.28,22.53,31.23Z"/><path class="cls-332" d="M24.47,25.45l1,0,0,.91-.92,0Z"/><path class="cls-333" d="M23.46,37c0,.6.22,1,.94,1,0,1.9,0,3.8,0,5.7l-.89.09a13.93,13.93,0,0,1-1.45-2.4c-.2-.35-.25-.79-.75-.82a1.06,1.06,0,0,0-1.12.73,1.44,1.44,0,0,1-1.35,1,1.41,1.41,0,0,1-1.65-1.06.91.91,0,0,0-.95-.75.89.89,0,0,0-.92.78,1.29,1.29,0,0,1-1.43,1c-.87,0-1.78.19-2.35-.79s-.85-1.07-1.72-.23c-.37.36-.61.86-1.18,1a1.33,1.33,0,0,1-1.51-.44l-.06,0c0-1.62,0-3.23.07-4.85a1.46,1.46,0,0,1,1.75-.36,1.26,1.26,0,0,1,.62,1.16c0,.37.16.59.53.63,1.27.24,1.32-.86,1.73-1.57a.92.92,0,0,1,.33-.19,3.9,3.9,0,0,1,2.61,0,1.09,1.09,0,0,1,.6.83c.09.4.24.77.74.78a1,1,0,0,0,1.05-.63,1.65,1.65,0,0,1,1.23-1.15,1.36,1.36,0,0,1,1.3.45c-.13,1,.59,1.44,1.24,1.83a1,1,0,0,0,1.64-.87C22.58,37.31,22.79,37,23.46,37Z"/><path class="cls-334" d="M32.2,46.66c0-2.57,0-5.14,0-7.71h1c0,2.19,0,4.39,0,6.58C33.17,46.21,33,46.73,32.2,46.66Z"/><path class="cls-335" d="M29.26,54.39l-.88,0c0-.31,0-.63,0-.94h.92Z"/><path class="cls-336" d="M31.24,54.38h-1c0-.32,0-.64,0-1h.94a.66.66,0,0,1,0,.94Z"/><path class="cls-337" d="M31.23,54.37l0-.94.51-.06.48,0a.65.65,0,0,1,0,.94Z"/><path class="cls-338" d="M29.32,31.19l-.94,0V28.35a.77.77,0,0,1,1.09-.06A2.58,2.58,0,0,1,29.32,31.19Z"/><path class="cls-339" d="M29.25,28.32l-.88,0-.09-.27.1-1.65a.76.76,0,0,1,1.08-.06C29.89,27.08,30,27.75,29.25,28.32Z"/><path class="cls-340" d="M29.26,26.4l-.88,0-.06-1,.15-.16a.73.73,0,0,1,1,.16A.7.7,0,0,1,29.26,26.4Z"/><path class="cls-341" d="M28.32,25.44l-.92.06-.06-.09a.76.76,0,0,1-.16-.93.74.74,0,0,1,.32-.26.83.83,0,0,1,1,.24.82.82,0,0,1-.14,1Z"/><path class="cls-342" d="M28.37,49.55l.93,0a.65.65,0,0,1,.05.92l-.1,0-.89,0C28.37,50.17,28.37,49.86,28.37,49.55Z"/><path class="cls-343" d="M28.36,57.28h.94a.68.68,0,0,1,.05.94l-.11,0-.89,0Z"/><path class="cls-344" d="M29.35,50.49c0-.31,0-.61-.05-.92h.94a.66.66,0,0,1,0,.94h0Z"/><path class="cls-345" d="M30.27,50.51l0-.94,1,0v0a.66.66,0,0,1,0,.94v0Z"/><path class="cls-346" d="M27.35,24.47c0,.32,0,.63,0,.94l-.92.08-.05-.1C26.13,24.32,26.28,24.17,27.35,24.47Z"/><path class="cls-347" d="M27.35,24.47c-.66,0-1,.24-1,.92h-.91l0-.9v-1h0c.34-.3.65-.64,1-1h0a.85.85,0,0,1,1.12-.07,1.4,1.4,0,0,1-.14,2Z"/><path class="cls-348" d="M7.15,41.82c1.27.38,1.91-.54,2.66-1.28,1.09-1.06,1.83-.89,2.15.52.25,1.07,1.09.7,1.75.76s1.16-.06,1.11-.86c-.06-1,.55-1.09,1.31-1.06s1.61-.09,1.59,1.08c0,.6.3.86.89.85s.9,0,1.06-.69A1.85,1.85,0,0,1,22,40c.14,0,.38.18.37.25-.15,1.37,1.74,2.09,1.13,3.59l-.06.91-.91,0c-.48,0-1,0-1.44,0-.74-.05-1.36-.32-1.45-1.15-.08-.65-.46-.76-1-.76s-.91.17-1,.8c-.08,1.14-.93,1.1-1.76,1.13s-1.17-.32-1.13-1.13c0-.65-.4-.83-1-.8s-1.52-.23-1.86.68c-.18.49.06,1.17-.81,1.24s-1.6-.14-1.83-.85C9,42.64,8.06,42.78,7.15,42.79Z"/><path class="cls-349" d="M7.11,46.64c0-.32,0-.64,0-1l5.76,0a.65.65,0,0,1,0,.94h0Z"/><path class="cls-350" d="M12.9,46.65c0-.32,0-.63,0-.94,1,0,2,0,2.95,0,.65,0,1,.27.91.92l-.93.07Z"/><path class="cls-351" d="M29.32,59.16c.73,0,1,.31.9,1l-.87,0Z"/><path class="cls-352" d="M31.2,63.06l-.89,0v-1C31,62,31.29,62.37,31.2,63.06Z"/><path class="cls-353" d="M33.14,57.26l1.23,0h4.56l1.89.08c.09.67-.26.91-.89.9l-2.94,0-2.86,0h-1L33,58.13A.66.66,0,0,1,33.14,57.26Z"/><path class="cls-354" d="M42.73,64.94l-.89,0c.2-.71-.61-1.91,1-1.94C42.78,63.68,42.75,64.31,42.73,64.94Z"/><path class="cls-355" d="M33.17,58.25l0,2.86a.62.62,0,0,1-.92,0l-.08-.93a1.46,1.46,0,0,1-.14-2,.81.81,0,0,1,1.11,0Z"/><path class="cls-356" d="M32.19,58.23c0,.64,0,1.29,0,1.93-1.5-.07-.71-1.28-1-2a.63.63,0,0,1,0-.9l1,0v0A.69.69,0,0,1,32.19,58.23Z"/><path class="cls-357" d="M31.19,57.29v.9l-1.84,0c0-.32,0-.63-.05-.94Z"/><path class="cls-358" d="M32.23,61.09l.92,0,0,.7c0,.1,0,.2-.07.3a.6.6,0,0,1-.9-.06Z"/><path class="cls-359" d="M32.21,62.05l.9.06v1C32.4,63.09,32.11,62.74,32.21,62.05Z"/><path class="cls-360" d="M31.28,65l0-1c.73-.05,1,.32.92,1Z"/><path class="cls-361" d="M44.72,31.23l0-4.83c.47-.3.43-1,1-1.24a1,1,0,0,1,1,.13,1.14,1.14,0,0,1,.38.85c-.06.61.22.86.82.79a1.07,1.07,0,0,1,.85.45.72.72,0,0,1-.23,1l-1.32,0c-1.51-.08-1.51-.09-1.52,1.46,0,.48,0,1,0,1.44Z"/><path class="cls-362" d="M48.52,28.35l0-1a.81.81,0,0,1-.1-1,.87.87,0,0,1,1-.26.78.78,0,0,1,.33.24A1.62,1.62,0,0,1,50,27.5a2.24,2.24,0,0,0,.73,2c0,.93-.35,1.26-1.24.8l-.9,0Z"/><path class="cls-363" d="M45.67,33.2c0,.62,0,1.24,0,1.86H42.28c-.86-.44-1.21-1-.46-1.86Z"/><path class="cls-364" d="M41.82,33.19a3.27,3.27,0,0,0,.46,1.86l-1.43,0V33.2Z"/><path class="cls-365" d="M40.81,54.33,37,54.38v0a.66.66,0,0,1,0-.94h3.8C40.8,53.73,40.81,54,40.81,54.33Z"/><path class="cls-349" d="M49.53,38V37l0,0a1.15,1.15,0,0,1,1-.4,1.2,1.2,0,0,1,1.08.32,1.86,1.86,0,0,1,.06,2A1.55,1.55,0,0,0,51,40.59,5.2,5.2,0,0,1,51,42c-.15,1-.47,1.12-1.47.79h0Z"/><path class="cls-366" d="M49.5,32.21c0-.33,0-.65,0-1h.1a.74.74,0,0,1,1-.07c.51.6.31,1.31.34,2s.23,1.41-.32,2a.77.77,0,0,1-1.07-.07h-.11Z"/><path class="cls-367" d="M49.58,35.09l.88,0c.78.64.65,1.29,0,1.95l-.94,0,0-1Z"/><path class="cls-368" d="M50.51,31.23h-.92c0-.32-.05-.64-.07-1,.71.06,1-.26,1-1l.06-.16c.5-.22.51-.91,1-1.1.24-.07.53-.13.69,0,.65.61,1.56.68,2.26,1.15a1.33,1.33,0,0,1,.17,1,3.69,3.69,0,0,1-3.18,2.28C51,32.27,51,31.53,50.51,31.23Z"/><path class="cls-369" d="M49.53,42.8c.75.07,1-.3,1-1s0-1.29,0-1.93.27-1,.93-.93l.16.06c.16.12.25.38.46.36a3.25,3.25,0,0,1,2.75,1.45c.4.5.71.31,1-.13a2.61,2.61,0,0,1,2.07-1.27c.85,0,1.52.18,1.75,1.1a.87.87,0,0,0,.94.74.84.84,0,0,0,.92-.76,1.19,1.19,0,0,1,.57-.88,2.6,2.6,0,0,1,1.74-.09c.56.25.84.83,1.29,1.21s.92.62,1.28-.17c.28-.62.72-1,1.39-.41v3.37A3.91,3.91,0,0,0,64,45a1.57,1.57,0,0,1-2.39-.67c-.25-.52-.51-.9-1.13-.88s-.67.44-.85.86a1.88,1.88,0,0,1-2.85.56,2.25,2.25,0,0,1-.61-.58c-.57-.89-1.08-.9-1.7,0-.73,1.07-1.88,1.08-3,1.07a1.59,1.59,0,0,1-1-.58h0c.11-.72-.26-1-.93-1Z"/><path class="cls-370" d="M17.75,30.3c0,.75-.39.95-1.05.94-1.59,0-3.18,0-4.77,0a.61.61,0,0,1,0-.9l4.79-.07Z"/><path class="cls-371" d="M12,30.3c0,.3,0,.6,0,.9l-1.9.06a.77.77,0,0,1-1,0,.68.68,0,0,1,.07-1Z"/><path class="cls-372" d="M9.08,30.31l0,.93a1,1,0,0,1-.08.14.65.65,0,0,1-.75.08A.44.44,0,0,1,8,31.21C8.05,30.52,8.33,30.15,9.08,30.31Z"/><path class="cls-373" d="M7.1,32.16c0-.66.26-1,.94-.95l.09,0a.71.71,0,0,1-.08,1.17.78.78,0,0,1-.9-.17Z"/><path class="cls-374" d="M9.05,37,7.16,37c0-1,0-1.91,0-2.87.5-.59,1.29-.62,1.91-1a1,1,0,0,1,1,.61c.27.53.83.36,1.29.32s.56-.4.54-.78c-.07-1.4,1-1,1.73-1.11s1.24.28,1.19,1.16a2.57,2.57,0,0,0,.23.78c.36,1,.63,2-.25,2.88H11.94a.71.71,0,0,1-.35-.31c-.56-1-.54-1-1.27-.15C10,36.92,9.69,37.48,9.05,37Z"/><path class="cls-375" d="M9.06,33.15c0,1.49-1.2.79-1.91,1v-.94a12.64,12.64,0,0,1,.93-1h0A.66.66,0,0,1,8.86,32a.64.64,0,0,1,.24.25Z"/><path class="cls-376" d="M8.08,32.19c.09.7-.24,1-.93,1v-.95Z"/><path class="cls-377" d="M67.86,47.63l-7.47-.06a1.62,1.62,0,0,0-1.4-.44,2.76,2.76,0,0,1-1.82-.3.91.91,0,0,1-.21-.37c-.09-.91.36-1.36,1.24-1.27s2.06-.33,3,.28a1.33,1.33,0,0,0,1.36.71c1.19-.06,2.38,0,3.57,0a2.21,2.21,0,0,1,1.79.41.76.76,0,0,1-.11,1Z"/><path class="cls-378" d="M57.23,46.67c.75,0,1.49,0,2.24,0s.94.28.92.91H57.26A.61.61,0,0,1,57.23,46.67Z"/><path class="cls-379" d="M57.23,46.67l0,.91H55.34a.75.75,0,0,1-.13-1,1.06,1.06,0,0,1,1-.3,1.15,1.15,0,0,1,1,.38Z"/><path class="cls-380" d="M55.29,46.68l.05.9h-2v-.91A1.12,1.12,0,0,1,55.29,46.68Z"/><path class="cls-381" d="M67.83,47.58v-.94c-.65-.52-.47-1.23-.42-1.92a1,1,0,0,1,.47-1l.89,0c0,1,0,2,0,2.95C68.86,47.51,68.5,47.7,67.83,47.58Z"/><path class="cls-382" d="M55.29,46.68H53.38l-1-.08,0-.88a4.54,4.54,0,0,1,3.6-.37.81.81,0,0,1,.29,1.3Z"/><path class="cls-189" d="M50.49,44.73c.35,0,.73-.06,1,.24a.49.49,0,0,1,0,.67l-.07.09-.91-.07Z"/><path class="cls-190" d="M51.5,45.64V45c1.23-.18,2.44-.34,3-1.8.21-.62,1.48-.53,1.78.1a2.85,2.85,0,0,0,.93,1.2c.91.61,1.89.25,2-.76.07-.66.34-1,1-.91s1.59-.16,1.89.83c.13.44,0,1,.68,1.08A1.53,1.53,0,0,0,64.22,44c1.32-1.59,2-1.63,3.6-.51l.06.22c0,.33,0,.66,0,1-1.74,1.8-4,1.5-6.13,1.38-.25,0-.4-.24-.57-.4-1,0-1.9,0-2.84-.07s-1.08.27-1,1h-1c0-.71-.35-1-1-1-.94,0-1.9,0-2.85,0Z"/><path class="cls-161" d="M64,39.91H62.07a.74.74,0,0,1-.26-.85c.16-.43.56-.51.92-.64s.49-.12.5-.41-.3-.4-.55-.49a2.39,2.39,0,0,1-.75-.33.79.79,0,0,1-.2-.33c-.26-.86-.35-1.7.64-2.16a1.65,1.65,0,0,1,2.18.91c.55.94,1.49.79,2.32,1a1.11,1.11,0,0,1,.95.42v2.65c-.76.44-1.08-.13-1.36-.64-.41-.73-.73-.7-1.18,0C65,39.44,64.65,39.92,64,39.91Z"/><path class="cls-383" d="M64,39.91c.24-.69.94-1.09,1.11-1.83a.55.55,0,0,1,.75-.41c.42.19,1,.29,1,.89a1.13,1.13,0,0,0,.93,1.1c0,.17,0,.33,0,.49-.57,0-.92.16-.93.8,0,1.1-.92,1.08-1.44.79S64,40.91,64,39.91Z"/><path class="cls-383" d="M67.82,37h-.94c-.22-.23-.48-.44-.48-.79a1.6,1.6,0,0,0-1.25-1.77.87.87,0,0,1-.48-1.11.79.79,0,0,1,.2-.34c.65-.55,1.39-.12,2.09-.21a.94.94,0,0,1,.88.36c0,1.13,0,2.26,0,3.4Z"/><path class="cls-384" d="M67.84,33.15h-1a.91.91,0,0,1-.43-.91,5.57,5.57,0,0,1,0-1.08,1.22,1.22,0,0,1,.35-1,.81.81,0,0,1,1,.1c0,.66,0,1.31,0,2C67.87,32.53,67.85,32.84,67.84,33.15Z"/><path class="cls-385" d="M67.84,30.25l-1,.05a1.24,1.24,0,0,1-.94.44c-2.69,0-5.38,0-8.07,0a1,1,0,0,1-.56-.19.88.88,0,0,1-.22-1.1l.17-.18,10.6.08Z"/><path class="cls-386" d="M56.3,28.3l.92.06c0,.3,0,.6,0,.9l.06,0,0,.06a.86.86,0,0,1-1,.15.73.73,0,0,1-.29-.91A.69.69,0,0,1,56.3,28.3Z"/><path class="cls-387" d="M53.41,27.34l1,0h0a.78.78,0,0,1,.11,1c-.8.44-1.28.29-1.31-.69A.64.64,0,0,1,53.41,27.34Z"/><path class="cls-388" d="M52.46,26.38c.68,0,1,.28.95,1l0,.08a.74.74,0,0,1-1,0,.72.72,0,0,1,0-1Z"/><path class="cls-389" d="M54.4,28.3l0-.93,1.89.07c0,.29,0,.57,0,.86l0,.09a1.07,1.07,0,0,1-1,.32C54.92,28.73,54.58,28.69,54.4,28.3Z"/><path class="cls-390" d="M29.27,14.82l.06-1.92c.85-.5,1.29-.08,1.37.73a2.66,2.66,0,0,1-.25,2l-.2.14-1,0A.69.69,0,0,1,29.27,14.82Z"/><path class="cls-391" d="M29.26,17.78c-.61-.2-1.75.38-1.73-.59,0-.77,1.12-.3,1.74-.43a6,6,0,0,1,.95,0,.72.72,0,0,1,.11,1A.8.8,0,0,1,29.26,17.78Z"/><path class="cls-392" d="M30.19,17.72l0-1,0-.92h0a.79.79,0,0,1,1-.12,1.07,1.07,0,0,1,.36,1,1.5,1.5,0,0,1-.19,1,.85.85,0,0,1-1,.27A.66.66,0,0,1,30.19,17.72Z"/><path class="cls-393" d="M29.27,14.82c0,.32,0,.63,0,.95h-1C28.25,15.06,28.61,14.79,29.27,14.82Z"/><path class="cls-394" d="M29.26,17.78l.93-.06.1,0A.73.73,0,0,1,29.52,19a.59.59,0,0,1-.3-.26Z"/><path class="cls-395" d="M28.36,19.7l-.06-1,.92,0,.1.05a.71.71,0,0,1,0,1A.72.72,0,0,1,28.36,19.7Z"/><path class="cls-396" d="M31.23,15.81h-1c0-.66,0-1.33,0-2s-.29-.94-.92-.92V12l1,0h2.82l.16.13a.8.8,0,0,1,0,.95,1.08,1.08,0,0,1-.84.35c-.57-.06-.83.19-.75.77s.18,1.13-.28,1.6Z"/><path class="cls-397" d="M45.66,12.89l0,1.9-.1.17a.8.8,0,0,1-.95,0,.88.88,0,0,1-.24-.34,1.4,1.4,0,0,1,.33-1.74h0A.64.64,0,0,1,45.66,12.89Z"/><path class="cls-398" d="M45.66,12.89l-.93,0c-.1-.73.18-1.09,1-1Z"/><path class="cls-399" d="M46.64,14.87v1a.8.8,0,0,1-1,0,.68.68,0,0,1,.05-1v-.11Z"/><path class="cls-400" d="M45.7,15.79l.95.07v1.88l0,0a9.69,9.69,0,0,0-1,.94h0a.8.8,0,0,1-1,.1,1.18,1.18,0,0,1-.37-1,8.06,8.06,0,0,1,0-1.1,1.11,1.11,0,0,1,.37-1A.85.85,0,0,1,45.7,15.79Z"/><path class="cls-401" d="M48.54,17.71H47.6c-.06-.67.23-1,.93-1C48.53,17.06,48.54,17.38,48.54,17.71Z"/><path class="cls-402" d="M37,22.08c0,.48,0,1,0,1.43-1,.14-1,1.18-1.65,1.77-1-1.63-.21-3.3-.28-4.9-.56-.42-.48-1-.46-1.62a17.21,17.21,0,0,1,0-1.9,2,2,0,0,1,.15-1c.22-.45,1-.55.79-1.27A3,3,0,0,1,35.76,13a6.61,6.61,0,0,1,1.27-1c1,0,1.35.87,1.87,1.46a1.17,1.17,0,0,0,1,.47.75.75,0,0,1,1-.09.89.89,0,0,1,.23,1c-.91,1-1.23,1.13.1,3.22.13,1.23.58,2.48-.34,3.61,0,.64,0,1.29,0,1.93,0,.23,0,.52-.32.54a.42.42,0,0,1-.42-.38c-.18-1.15-1.27-2-1.24-3.21a1.12,1.12,0,0,0-.28-.65c-.34-.42-.64-1.11-1.26-.93S37,19.7,37,20.15C37,20.79,37,21.44,37,22.08Z"/><path class="cls-403" d="M37,11.94c0,.65-.22,1.06-1,1l-.17-.08a1,1,0,0,1-.25-.87,1,1,0,0,1,.22-.88L36,11C36.76,10.9,37.06,11.25,37,11.94Z"/><path class="cls-404" d="M40.79,13.9l-.89,0v-1a.8.8,0,0,1,.82-.27.81.81,0,0,1,.31.21.77.77,0,0,1,0,.86A.48.48,0,0,1,40.79,13.9Z"/><path class="cls-405" d="M40.85,12.92h-1c0-.32,0-.64,0-.95h1A.65.65,0,0,1,40.85,12.92Z"/><path class="cls-406" d="M38.93,11c.78-.11,1,.26,1,1C39.13,12.06,38.85,11.69,38.93,11Z"/><path class="cls-407" d="M38.92,10l0,1c-.72.09-1.06-.2-1-.94Z"/><path class="cls-408" d="M35.05,10.05l1,0,0,1h0a.73.73,0,0,1-1,.07A.71.71,0,0,1,35.05,10.05Z"/><path class="cls-409" d="M35.05,10.05l0,.92,0,.16a2.19,2.19,0,0,0-.71.91.79.79,0,0,1-.3.2.84.84,0,0,1-.84-.26l-.05-.06c0-.31,0-.63,0-.95L33.2,10Z"/><path class="cls-410" d="M39.9,9.06c.07.7-.22,1-.94.93,0-.3,0-.59,0-.88Z"/><path class="cls-411" d="M26.4,22.55c.06.72-.27,1-1,1,0-.31,0-.62,0-.93Z"/><path class="cls-412" d="M40.85,12.92V12l1.93,0c-.06.73.31,1,1,1,.72.43.17,1.48.92,1.9h0a.67.67,0,0,1,0,.95v1a.8.8,0,0,1-.86.25c-.49-.24-.61-.89-1.18-1-.65-.43,0-1.49-.86-1.81a.72.72,0,0,1-.25-.21,2.38,2.38,0,0,0-.7-1.06Z"/><path class="cls-413" d="M44.71,14.85c-1.59,0-.75-1.2-.92-1.9l.93,0Z"/><path class="cls-414" d="M50.49,23.56c0,.3,0,.6,0,.9l-.9,0-.16-.07a.63.63,0,0,1-.1-.76.48.48,0,0,1,.26-.18Z"/><path class="cls-415" d="M48.61,22.5c.67,0,1,.31,1,1l-.06.08a.8.8,0,0,1-1,.13.76.76,0,0,1-.24-.92A.55.55,0,0,1,48.61,22.5Z"/><path class="cls-416" d="M47.66,21.57l.9,0c0,.3,0,.61,0,.91a.61.61,0,0,0-.07.1c-.82.43-1.2.18-1.16-.73A.55.55,0,0,1,47.66,21.57Z"/><path class="cls-417" d="M52.38,26.45l0,.92a1.22,1.22,0,0,1-1.58.37.82.82,0,0,1-.5-1.15l.16-.19Z"/><path class="cls-418" d="M49.53,25.44h1l0,.95h0a.67.67,0,0,1-.93.07s0-.08,0-.12a.61.61,0,0,1-.14-.81Z"/><path class="cls-419" d="M49.58,24.5l0,.94h0a.76.76,0,0,1-1,.14.81.81,0,0,1-.27-.95.68.68,0,0,1,1.19-.18Z"/><path class="cls-420" d="M28.36,19.7l.9-.05a.86.86,0,0,1,.43.93,1.33,1.33,0,0,1-.22,1,.89.89,0,0,1-1,.22.72.72,0,0,1-.32-.28.85.85,0,0,1,.18-1Z"/><path class="cls-275" d="M27.34,22.53l-.95,0c-.05-.67.19-1.06.93-1l.16.11A.58.58,0,0,1,27.34,22.53Z"/><path class="cls-421" d="M28.31,20.58v1a.57.57,0,0,1-.89.06l-.1-.06C27.29,20.87,27.6,20.52,28.31,20.58Z"/><path class="cls-422" d="M46.7,20.59c.7-.05.94.35,1,1l-.1.06a.72.72,0,0,1-.91.11.73.73,0,0,1-.24-.89A.57.57,0,0,1,46.7,20.59Z"/><path class="cls-423" d="M45.74,19.63c.71-.07,1,.33,1,1l-.1.06a.71.71,0,0,1-.91.13.73.73,0,0,1-.24-.89A.5.5,0,0,1,45.74,19.63Z"/><path class="cls-424" d="M44.77,18.67l.91,0,.06.92-.11.06a.72.72,0,0,1-.8.23.63.63,0,0,1-.3-.21.79.79,0,0,1,0-.85A.46.46,0,0,1,44.77,18.67Z"/><path class="cls-425" d="M45.69,18.7c-.1-.75.23-1.07,1-.94C46.74,18.49,46.41,18.8,45.69,18.7Z"/><path class="cls-426" d="M19.68,29.35l0,.91-1,0c0-.31,0-.62,0-.93Z"/><path class="cls-427" d="M34.1,20.6c0,.91,0,1.82,0,2.72a1.9,1.9,0,0,1-1,1.89c-.69-.39-.44-1.05-.48-1.63s0-1.34,0-2A1.26,1.26,0,0,1,33,20.52.82.82,0,0,1,34.1,20.6Z"/><path class="cls-428" d="M32.21,29.33l-.06-.54c-.74-.68-.37-1.56-.41-2.36a1.25,1.25,0,0,1,.32-1.08.81.81,0,0,1,1.07.08c0,.92,0,1.84,0,2.76C33.16,28.85,32.93,29.28,32.21,29.33Z"/><path class="cls-429" d="M33.13,25.43l-.91,0c-.41-.2-.44-.57-.43-1a1.19,1.19,0,0,1,.27-1.07.78.78,0,0,1,1,.07c0,.57,0,1.15,0,1.72Z"/><path class="cls-430" d="M34.1,20.6l-.92,0a.84.84,0,0,1-.43-.93A1.28,1.28,0,0,1,33,18.64.92.92,0,0,1,34,18.45a.89.89,0,0,1,.34.3,1.22,1.22,0,0,1-.25,1.64A1.49,1.49,0,0,0,34.1,20.6Z"/><path class="cls-427" d="M34.12,20.39l.06-1.67a.57.57,0,0,1,.88,0c0,.57,0,1.13,0,1.7Z"/><path class="cls-431" d="M40.88,21.56l0-3.82a.78.78,0,0,1,.91-.27c.54.25.69,1,1.27,1.16a1.26,1.26,0,0,1,.2.93,2.1,2.1,0,0,0,.86,2.13A1,1,0,0,1,43.73,23a1.42,1.42,0,0,0-.95,1.69l-.93,0c0-.71-.05-1.41,0-2.12S41.59,21.55,40.88,21.56Z"/><path class="cls-432" d="M43.73,23V21.61a1.45,1.45,0,0,1-.12-2,.8.8,0,0,1,1.1.05l0,0a1.06,1.06,0,0,1,.4.84c.07.78-.08,1.64.85,2.08a1.71,1.71,0,0,1,.15,1c0,.65.21,1.35-.45,1.84,0,.66-.21,1.06-.94,1l-.06-.93c-.68-.48-.21-1.49-.9-2Z"/><path class="cls-433" d="M43.78,23.49c1.51.11.76,1.25.9,2C43.17,25.36,43.93,24.22,43.78,23.49Z"/><path class="cls-434" d="M32.16,26.39c0,.8,0,1.6,0,2.4l-.9,0c-.63-.32-.49-.89-.47-1.43a1.25,1.25,0,0,1,.32-1.08A.79.79,0,0,1,32.16,26.39Z"/><path class="cls-435" d="M31.19,31.18l-.92.13a.28.28,0,0,1,0-.13,1.35,1.35,0,0,1-.14-1.94.79.79,0,0,1,1.09.05Z"/><path class="cls-436" d="M31.19,29.29l-.9,0c-.75-.58-.63-1.26-.21-2a.79.79,0,0,1,1.11,0l.06,1.47Z"/><path class="cls-437" d="M30.3,27.39c0,.64,0,1.28,0,1.92s0,1.25-.05,1.87h-.92c0-1-.05-1.91-.07-2.87,0-.64,0-1.28,0-1.92v-1a.85.85,0,0,1,0-1.25c1.11-.31,1.43.31,1.46,1.26C30.72,26.12,30.91,26.84,30.3,27.39Z"/><path class="cls-438" d="M40.83,50.48,37,50.53v0a.66.66,0,0,1,0-.94h3.86a.67.67,0,0,1,0,1Z"/><path class="cls-439" d="M37,49.56v.94l-2.9,0a.62.62,0,0,1,0-.91Z"/><path class="cls-440" d="M34.11,49.56v.91l-1.9.12,0-.12a.61.61,0,0,1,0-.91l1.68,0Z"/><path class="cls-441" d="M40.85,50.5v-1h2.87c0,.33,0,.66,0,1Z"/><path class="cls-442" d="M32.19,49.56v.91l-1,0c0-.31,0-.63,0-.94Z"/><path class="cls-443" d="M37,53.42v.94l-2.66,0a.62.62,0,0,1,0-.9l.51-.07Z"/><path class="cls-444" d="M34.34,53.43v.9l-1.17.06-1,0c0-.31,0-.63,0-.94Z"/><path class="cls-445" d="M32.19,58.23v-1h1c0,.31,0,.62,0,.93Z"/><path class="cls-329" d="M14.83,37a7.78,7.78,0,0,1,.25-2.88h2.65l.17.1A3.78,3.78,0,0,1,18.22,37a.7.7,0,0,0-.5.72c0,.58-.38.83-.84,1C15.39,39.39,14.84,38.92,14.83,37Z"/><path class="cls-329" d="M17.73,34.12c.18-.69-.56-1.85.9-1.91s.85,1.18,1,1.91h0a1.21,1.21,0,0,1-1.94,0Z"/><path class="cls-374" d="M9.06,31.24l1,0c0,.66-.26,1-.93.95l-.06,0a.66.66,0,0,1,0-.95Z"/><path class="cls-328" d="M17.72,34.12h1.94c0,1,0,1.91,0,2.86l-1.43,0C17.45,36.14,17.81,35.09,17.72,34.12Z"/><path class="cls-370" d="M9.05,37a1,1,0,0,0,.92-.94c0-.86.48-1.06,1.23-1s.72.68.74,1.22c0,.23,0,.47,0,.71h0A5.46,5.46,0,0,0,10,38.94C8.63,38.84,9.18,37.76,9.05,37Z"/><path class="cls-374" d="M10,38.94C10,37,10,37,11.94,37,11.93,38.94,11.93,38.94,10,38.94Z"/><path class="cls-446" d="M29.34,24.26l-.09,1.17-.91,0-.05-1a.74.74,0,0,1,0-1,.81.81,0,0,1,1.06,0A.64.64,0,0,1,29.34,24.26Z"/><path class="cls-447" d="M28.35,23.54l-.06.9-.92,0,0-1.95c0-.3.05-.61.08-.91l.89-.06.06.08A1.22,1.22,0,0,1,28.35,23.54Z"/><path class="cls-448" d="M45.68,25.42l0-1.9a.78.78,0,0,1,1-.16,1,1,0,0,1,.37.93c0,.33.06.67-.16,1a.66.66,0,0,1-.32.22Z"/><path class="cls-449" d="M46.66,26.39c0-.3,0-.61-.08-.91l.12-.08a.73.73,0,0,1,1-.09.84.84,0,0,1,.21,1,.68.68,0,0,1-.27.31A.75.75,0,0,1,46.66,26.39Z"/><path class="cls-450" d="M48.61,26.41c0,.33,0,.66-.07,1l-.91,0a.61.61,0,0,1-.05-.91l.06-.06a.65.65,0,0,1,.85-.12Z"/><path class="cls-451" d="M47.58,26.44c0,.3,0,.61.05.91-.72.09-1.07-.2-1-1Z"/><path class="cls-452" d="M49.57,26.48l.93-.07c0,1.55,1.22.76,1.91,1l1,.05c0,.71.35,1,1,.88l.9.06a.75.75,0,0,1,.23.89.69.69,0,0,1-.28.28.85.85,0,0,1-.93-.18c-.74-.13-1.68.26-2.06-.84-.09-.25-.5-.14-.77-.13-.38.25-.65.63-1,.9l0,0c-.71.07-1-.25-1-.95S49.55,27.11,49.57,26.48Z"/><path class="cls-453" d="M48.61,25.43l.93,0v.91l-.92.05h0a.64.64,0,0,1-.21-.76A.47.47,0,0,1,48.61,25.43Z"/><path class="cls-329" d="M51.45,38.94V37l.08-.15c1.08-.21,1.32-1.28,1.95-1.94a1,1,0,0,1,1.14.37c.39.56.19,1.19.22,1.79.08.88,0,1.69-.94,2.09a1.92,1.92,0,0,1-2.39-.23Z"/><path class="cls-454" d="M50.49,37l0-1.95.08-1.88a.75.75,0,0,1,1.05-.1,1.25,1.25,0,0,1,.32,1.08c0,1,.43,2-.41,2.87l-.06,0Z"/><path class="cls-455" d="M51.43,33.17h-.89l0-1.95c.75-.1,1,.33,1,1A.64.64,0,0,1,51.43,33.17Z"/><path class="cls-456" d="M51.43,33.17l.06-1a10.75,10.75,0,0,0,2.87-1.94,1.18,1.18,0,0,1,1-.39,1.24,1.24,0,0,1,1.08.23c.28.6.81.66,1.4.65,2.5,0,5,0,7.51,0,.56,0,1.13-.06,1.5.5v.94c-.4.76-1.48.22-1.89,1h0c-.56.45-.62,1.41-1.6,1.45a1.65,1.65,0,0,1-1.86-1.12.91.91,0,0,0-1.67-.25c-1.13,1.59-1.64,1.73-3.52,1a1.18,1.18,0,0,1-.43-.53c-.53-1-.53-1-1.33-.11-.56.14-.78.82-1.38.89a2.32,2.32,0,0,1-.79,0,1,1,0,0,1-.88-.41Z"/><path class="cls-426" d="M55.35,30.23l-1,0c0-.31,0-.61,0-.91l1-.05A.63.63,0,0,1,55.35,30.23Z"/><path class="cls-457" d="M50.48,29.28c0-.72.3-1,1-.9C51.52,29.09,51.16,29.36,50.48,29.28Z"/><path class="cls-383" d="M51.5,38.93c.32,0,.64,0,1,0,1.49,0,1.86-.43,1.9-1.95a1.34,1.34,0,0,1,1.29-.46,1.51,1.51,0,0,1,1.18,1.06,1,1,0,0,0,1.12.72c.5,0,.64-.41.74-.82a1.06,1.06,0,0,1,.64-.81c1-.22,1.92-.49,2.74.34h0a1.18,1.18,0,0,1,0,1.92v1c0,1.94-.29,2.18-2.12,1.92-.39-.06-.69-.17-.75-.61s.11-1.26-.82-1.32a2,2,0,0,0-2,1.05c-.71,1.2-1.29,1.2-2.16.06a2.12,2.12,0,0,0-1.86-1.11C51.66,40,51.42,39.57,51.5,38.93Z"/><path class="cls-458" d="M9.06,31.24c0,.32,0,.63,0,.95H8.09c0-.32,0-.64,0-1Z"/><path class="cls-229" d="M61.13,45.71l3.08,0c.73,0,1.43.14,1.94-.72.3-.5,1.1-.24,1.68-.24v1.91h-5.7C61.48,46.65,61,46.48,61.13,45.71Z"/><path class="cls-368" d="M62.07,37h-2.9c-.11,0-.26-.09-.28-.19-.26-1.14-1.13-1.24-2.07-1.23-.19,0-.39,0-.58,0a3.07,3.07,0,0,1-1.89-.22l-1-.24L53.22,35a.58.58,0,0,1-.08-.9c.33-.36.62-.79,1.2-.74a7,7,0,0,1,2,.48l1.17.19c.93.14,1.75.22,1.75-1.17,0-1,.91-.66,1.48-.68s1.27-.2,1.35.73c0,.45-.1,1,.58,1.14s1.18.11,1.48-.63c.14-.34.53-.28.85-.29,0,.54.12,1,.79.94,1-.09,1.19.52,1.14,1.35,0,.52,0,1,0,1.56a5.32,5.32,0,0,1-2-.18c-.41-.18-.82-.38-.85-.91,0-.79-.54-.85-1.16-.83s-.79.53-.78,1.08Z"/><path class="cls-368" d="M62.07,38.93c0-.64,0-1.28,0-1.92.36,0,.72,0,1.08,0,.61,0,.85.3.85.89s-.12,1-.84,1Z"/><path class="cls-368" d="M65,33.16c0-1.54,1.2-.77,1.89-1,0,.32,0,.64,0,1C66.25,33.65,65.6,33,65,33.16Z"/><path class="cls-459" d="M66.86,31.25H57.55c-.66,0-1.34,0-1.29-.94a.68.68,0,0,1,1-.06l9.59.06Z"/><path class="cls-282" d="M57.27,30.24l-1,.06-.91-.07c0-.31,0-.62,0-.93h0a.72.72,0,0,1,1,0l1,.08Z"/><path class="cls-460" d="M56.31,29.27l-1,0c0-.32,0-.63,0-.95l1,0Z"/><path class="cls-461" d="M31.25,16.79l0-1h0a.78.78,0,0,1,1-.14.82.82,0,0,1,.28.95.71.71,0,0,1-.26.33A.74.74,0,0,1,31.25,16.79Z"/><path class="cls-462" d="M30.2,18.72l.09-1,.87,0,.16.06a.74.74,0,0,1,.17.82.75.75,0,0,1-1.06.37A.61.61,0,0,1,30.2,18.72Z"/><path class="cls-463" d="M31.25,16.79l.93,0a.71.71,0,0,1,.1,1,.68.68,0,0,1-1,0l-.11,0Z"/><path class="cls-464" d="M29.32,20.62l-.06-1,.06-.9.88,0h.09a1.15,1.15,0,0,1,.36,1,1.07,1.07,0,0,1-.3,1A.77.77,0,0,1,29.32,20.62Z"/><path class="cls-465" d="M32.18,15.8h-1l0-1.87a.71.71,0,0,1,.85-.3.82.82,0,0,1,.32.23,1.35,1.35,0,0,1,.18.94,1.07,1.07,0,0,1-.24.91Z"/><path class="cls-466" d="M32.18,12.94l.93,0,.16.13a.69.69,0,0,1-1.05.9l0-.08A.62.62,0,0,1,32.18,12.94Z"/><path class="cls-467" d="M32.18,12.94c0,.3,0,.61,0,.91l-.93.08C31.14,13.21,31.42,12.85,32.18,12.94Z"/><path class="cls-468" d="M33.17,12l.95,0a.69.69,0,0,1,.23.88.75.75,0,0,1-.27.29.73.73,0,0,1-.88-.2l-.09,0Z"/><path class="cls-469" d="M44.73,15.79c0-.32,0-.63,0-.95l1,.06,0,.89Z"/><path class="cls-470" d="M43.81,16.77h.91c0,.33,0,.66,0,1a.78.78,0,0,1-.81.26.79.79,0,0,1-.3-.2.77.77,0,0,1-.06-.85A.46.46,0,0,1,43.81,16.77Z"/><path class="cls-471" d="M43.77,17.72l.93,0c0,.3,0,.61.07.92l-.08.08a.68.68,0,0,1-1-.1A.66.66,0,0,1,43.77,17.72Z"/><path class="cls-472" d="M41.81,17.74h-1c-1.34,0-.87-1-1-1.7s0-1.3,1-1.19l.16.07c.46.59.26,1.54,1,2A.72.72,0,0,1,41.81,17.74Z"/><path class="cls-473" d="M36.07,12.91,36,14.81a.8.8,0,0,1-.9.28,3.62,3.62,0,0,1-1.25-1.24.89.89,0,0,1,.25-.94h0a1.13,1.13,0,0,1,1.87,0Z"/><path class="cls-474" d="M35.06,18.68l-.88,0-.1,0a1.15,1.15,0,0,1-.36-1,1.09,1.09,0,0,1,.3-1,.8.8,0,0,1,1,.11Z"/><path class="cls-475" d="M35.06,16.76l-.91,0a.69.69,0,0,1-.23-.93.76.76,0,0,1,.92-.31.74.74,0,0,1,.31.27Z"/><path class="cls-476" d="M35.1,14.87l.9-.06c.1.66-.09,1.07-.85,1H35A.62.62,0,0,1,35.1,14.87Z"/><path class="cls-477" d="M40.86,14.85c0-.32,0-.63-.07-.95l.11,0a.62.62,0,0,1,.92,0v0a.74.74,0,0,1,.08,1,.76.76,0,0,1-1-.08Z"/><path class="cls-478" d="M36,12.93H34.13V12a1,1,0,0,1,1-.39,1.06,1.06,0,0,1,1,.36Z"/><path class="cls-479" d="M36,11.94l-1,0a.66.66,0,0,1,0-.93v0h1Z"/><path class="cls-480" d="M41.82,13.88H40.9l0-1C41.58,12.85,41.9,13.17,41.82,13.88Z"/><path class="cls-481" d="M35.06,11v.93l-1,.05C34,11.25,34.29,10.87,35.06,11Z"/><path class="cls-482" d="M41.8,14.87v-1c1.47,0,.81,1.16,1,1.85l-.12.18a.74.74,0,0,1-1-.07A.75.75,0,0,1,41.8,14.87Z"/><path class="cls-483" d="M42.83,15.75c.7,0,1,.36,1,1h-.1a.74.74,0,0,1-.87.22.87.87,0,0,1-.27-.27.74.74,0,0,1,.19-.88Z"/><path class="cls-484" d="M49.5,24.46l-.92,0a.63.63,0,0,1,0-1l.93.08Z"/><path class="cls-485" d="M48.59,23.49c0,.34,0,.67,0,1v0a1.17,1.17,0,0,1-1.89-.06l-.08-.9a1.33,1.33,0,0,1-.14-1.86l.2-.11.89.05c-.07.72.27,1,1,1Z"/><path class="cls-486" d="M46.69,24.45l1.89.06,0,.92,0,.07a.7.7,0,0,1-1,0l-.91-.08Z"/><path class="cls-487" d="M28.35,23.54c0-.63,0-1.26,0-1.9l.89-.05.18.09a1.12,1.12,0,0,1,.25,1,.77.77,0,0,1-.43.86Z"/><path class="cls-488" d="M29.32,20.62l.9,0a.68.68,0,0,1,0,1.17.71.71,0,0,1-.9-.18h-.09Z"/><path class="cls-489" d="M45.73,20.61l.87,0c0,.31,0,.62.07.93l-.06.08a.75.75,0,0,1-.93.11.75.75,0,0,1-.24-.89A.59.59,0,0,1,45.73,20.61Z"/><path class="cls-490" d="M44.73,20.6v-1l.9.05c0,.31.07.61.1.92l-.12,0A.57.57,0,0,1,44.73,20.6Z"/><path class="cls-491" d="M43.77,17.72c-.13.73.21,1.05.92,1,0,.31,0,.61,0,.92l-1,0a.63.63,0,0,1-.92,0l0-.92a.82.82,0,0,1-.06-1.05.74.74,0,0,1,1,.06Z"/><path class="cls-492" d="M33.11,23.49l-.9.05c-.4-.21-.43-.59-.42-1a1.17,1.17,0,0,1,.28-1.07.78.78,0,0,1,1,.08Z"/><path class="cls-493" d="M33.12,21.57l-.9.05a1.23,1.23,0,0,1-.3-1.76.73.73,0,0,1,1.19-.21l.07,1Z"/><path class="cls-494" d="M32.16,26.39l-.9,0c-.41-.2-.45-.58-.44-1a1.2,1.2,0,0,1,.28-1.07.77.77,0,0,1,1,.07c0,.33.05.67.07,1Z"/><path class="cls-495" d="M32.15,24.46l-.9.05a1.23,1.23,0,0,1-.3-1.77.75.75,0,0,1,1.21-.2c0,.33,0,.66.05,1Z"/><path class="cls-496" d="M32.16,22.54c-1.49.11-.76,1.24-.91,2l-.06.92a.62.62,0,0,1-.91,0c.07-.71-.34-1-.94-1.21l-.08-.76.07-.92c.25-.38.63-.64.9-1l0,0c.74-.55.38-1.39.55-2.09a1,1,0,0,1,.41-.8h0c.29-.35.65-.63.92-1l0-.94,0,0a1.32,1.32,0,0,0,.51-1.15,1.2,1.2,0,0,1,.29-.89.79.79,0,0,1,.37-.2c.92,0,1.22.42.78,1.27v1l-.08.92c-.24.39-.64.64-.88,1l-.08.92c-1.5.11-.73,1.25-.89,2Z"/><path class="cls-497" d="M33.19,18.73c-.11-.69.1-1.1.88-1,0,.33,0,.66,0,1Z"/><path class="cls-498" d="M42.8,17.72c0,.34,0,.67,0,1-.7,0-1-.33-.95-1v-.95l.12-.15a.64.64,0,0,1,.85.14h0A.68.68,0,0,1,42.8,17.72Z"/><path class="cls-499" d="M42.8,19.65l.92,0v1.92C42.26,21.5,43,20.37,42.8,19.65Z"/><path class="cls-500" d="M45.7,21.57l.91.09v1.89l-.9,0c0-.31,0-.63-.05-.94A.69.69,0,0,1,45.7,21.57Z"/><path class="cls-501" d="M45.7,21.57l0,1c-1.48-.11-.78-1.24-.93-2l.88,0Z"/><path class="cls-502" d="M30.28,25.47l.91,0c0,.34,0,.67.07,1s-.05.62-.07.93l-.89,0C30.29,26.75,30.29,26.11,30.28,25.47Z"/><path class="cls-503" d="M47.61,25.48l1,0c0,.3,0,.6,0,.9l-.93,0Z"/><path class="cls-504" d="M51.5,34.1l.92,0a8.61,8.61,0,0,0,1,1h0c0,1.9,0,1.9-1.88,1.94Z"/><path class="cls-456" d="M54.35,35.33c.6-.42,1.29-.18,1.93-.24.65,1,.59,1.25-.49,1.91H54.36C54.35,36.44,54.35,35.88,54.35,35.33Z"/><path class="cls-505" d="M56.3,33.87c-.75.21-1.58.78-2-.48,0-.73.12-1.24,1-1.2C56.67,32.25,56.16,33.22,56.3,33.87Z"/><path class="cls-329" d="M53.38,35.09c-.69.06-1-.27-1-1h.72Z"/><path class="cls-506" d="M55.79,37a2.44,2.44,0,0,0,.49-1.91h.95c2,0,2,0,1.94,1.93s-.44,2.31-2.15,1.76c-.48-.16-.74-.4-.74-.91S56.21,37.14,55.79,37Z"/><path class="cls-507" d="M33.12,15.78c.12.72-.17,1.08-.92,1l0-1h0A.66.66,0,0,1,33.12,15.78Z"/><path class="cls-508" d="M32.15,17.71c.11.72-.16,1.08-.92,1l0-1Z"/><path class="cls-509" d="M31.22,18.7v.95a.61.61,0,0,1-.91,0c0-.32,0-.64,0-1Z"/><path class="cls-510" d="M30.3,19.68l.91,0c-.18.71.56,1.88-.95,1.94,0-.33,0-.66,0-1Z"/><path class="cls-511" d="M33.12,15.78l-.94,0,0-.94a.61.61,0,0,1,.93,0Z"/><path class="cls-512" d="M33.14,14.84l-.93,0c0-.32,0-.63,0-.94l.88-.06.16.1a.69.69,0,0,1-.09.9Z"/><path class="cls-513" d="M34.1,12.91v.95a.56.56,0,0,1-.89,0l-.1,0c0-.32.06-.64.1-.95Z"/><path class="cls-514" d="M42.8,17.72v-.95h.92l0,1Z"/><path class="cls-515" d="M41.8,14.87l.06.89a.72.72,0,0,1,0,1l0,0c-1.47-.09-.78-1.23-1-1.95Z"/><path class="cls-516" d="M33.2,13.9l.89,0c.74-.07,1,.3,1,1,0,.31-.05.62-.07.94h-.88c0-.68-.22-1.08-1-1Z"/><path class="cls-517" d="M41.83,16.75l0-1,.9.08c0,.31,0,.63,0,.94Z"/><path class="cls-518" d="M30.23,21.57c.12.71-.14,1.08-.9,1,0-.33,0-.66,0-1Z"/></g></g></svg>