<svg xmlns="http://www.w3.org/2000/svg" viewBox="0 0 74 74"><defs><style>.cls-1{fill:#1e2223;}.cls-2{fill:#3e4532;}.cls-3{fill:#4b7050;}.cls-4{fill:#182326;}.cls-5{fill:#676767;}.cls-6{fill:#36434b;}.cls-7{fill:#414141;}.cls-8{fill:#333a3c;}.cls-9{fill:#999b82;}.cls-10{fill:#132023;}.cls-11{fill:#1d2a1e;}.cls-12{fill:#5f6258;}.cls-13{fill:#31393d;}.cls-14{fill:#898776;}.cls-15{fill:#878787;}.cls-16{fill:#9f9f9f;}.cls-17{fill:#202a2d;}.cls-18{fill:#5c6a72;}.cls-19{fill:#8b9077;}.cls-20{fill:#27353c;}.cls-21{fill:#949494;}.cls-22{fill:#323638;}.cls-23{fill:#485254;}.cls-24{fill:#3c3c3c;}.cls-25{fill:#2a3f2b;}.cls-26{fill:#363c3b;}.cls-27{fill:#50524d;}.cls-28{fill:#3b3b3b;}.cls-29{fill:#384247;}.cls-30{fill:#464e44;}.cls-31{fill:#262f27;}.cls-32{fill:#a2a2a2;}.cls-33{fill:#e1e1e1;}.cls-34{fill:#38523c;}.cls-35{fill:#233721;}.cls-36{fill:#b4b4a2;}.cls-37{fill:#b1b1b1;}.cls-38{fill:#7a7a7a;}.cls-39{fill:#232c24;}.cls-40{fill:#2b382d;}.cls-41{fill:#2a302b;}.cls-42{fill:#2b3a2e;}.cls-43{fill:#495153;}.cls-44{fill:#262726;}.cls-45{fill:#282e29;}.cls-46{fill:#676765;}.cls-47{fill:#2a2a2a;}.cls-48{fill:#595959;}.cls-49{fill:#777;}.cls-50{fill:#6e6d6b;}.cls-51{fill:#373a29;}.cls-52{fill:#3f4d39;}.cls-53{fill:#4d4940;}.cls-54{fill:#3e412e;}.cls-55{fill:#525550;}.cls-56{fill:#656b56;}.cls-57{fill:#333;}.cls-58{fill:#557a53;}.cls-59{fill:#699861;}.cls-60{fill:#638b5c;}.cls-61{fill:#6c6c6c;}.cls-62{fill:#929292;}.cls-63{fill:#545451;}.cls-64{fill:#404a49;}.cls-65{fill:#4a5962;}.cls-66{fill:#464c43;}.cls-67{fill:#2b2e2b;}.cls-68{fill:#9a9a9a;}.cls-69{fill:#282924;}.cls-70{fill:#514f3a;}.cls-71{fill:#3d3e37;}.cls-72{fill:#aba893;}.cls-73{fill:#a6a48d;}.cls-74{fill:#848571;}.cls-75{fill:#7a8067;}.cls-76{fill:#797866;}.cls-77{fill:#0c100d;}.cls-78{fill:#324833;}.cls-79{fill:#070906;}.cls-80{fill:#3f494b;}.cls-81{fill:#393c39;}.cls-82{fill:#9fa39b;}.cls-83{fill:#292c26;}.cls-84{fill:#242523;}.cls-85{fill:#a9a691;}.cls-86{fill:#bcbcab;}.cls-87{fill:#94917e;}.cls-88{fill:#4f4f4f;}.cls-89{fill:#323f46;}.cls-90{fill:#9a9983;}.cls-91{fill:#464232;}.cls-92{fill:#6a7882;}.cls-93{fill:#3b473c;}.cls-94{fill:#2e362c;}.cls-95{fill:#242421;}.cls-96{fill:#344634;}.cls-97{fill:#7b8b97;}.cls-98{fill:#98a5af;}.cls-99{fill:#414f56;}.cls-100{fill:#666;}.cls-101{fill:#6e7568;}.cls-102{fill:#858585;}.cls-103{fill:#545454;}.cls-104{fill:#2d3c29;}.cls-105{fill:#314732;}.cls-106{fill:#babaad;}.cls-107{fill:#9e9e9e;}.cls-108{fill:#332e23;}.cls-109{fill:#404b36;}.cls-110{fill:#2d271e;}.cls-111{fill:#3e5840;}.cls-112{fill:#2b2a28;}.cls-113{fill:#5a5a5a;}.cls-114{fill:#76846f;}.cls-115{fill:#484843;}.cls-116{fill:#484848;}.cls-117{fill:#242424;}.cls-118{fill:#aeaeae;}.cls-119{fill:#343f42;}.cls-120{fill:#848574;}.cls-121{fill:#848483;}.cls-122{fill:#1e1e1b;}.cls-123{fill:#222a26;}.cls-124{fill:#384334;}.cls-125{fill:#3f452f;}.cls-126{fill:#555a47;}.cls-127{fill:#919191;}.cls-128{fill:#616160;}.cls-129{fill:#767676;}.cls-130{fill:#454544;}</style></defs><title>포격지원_1</title><g id="레이어_2" data-name="레이어 2"><g id="레이어_1-2" data-name="레이어 1"><rect class="cls-1" width="74" height="74" rx="8.33" ry="8.33"/><path class="cls-2" d="M30.4,42.19l.51-.89c1.36-1.31,3.23-.28,4.71-1,1.37-.45,2.65-1.24,4.16-1.21a1.2,1.2,0,0,1,.68.25,1.25,1.25,0,0,1,.21,1,1.78,1.78,0,0,1-.62.88c-.89.39-1.76,1-2.44.44a7,7,0,0,1,2.84,2.63c.25,1.23.44,2.42-.91,3.25a2.28,2.28,0,0,1-2.95-.07A3,3,0,0,1,36,45.74a2.07,2.07,0,0,0-2.25-1.94c-.77-.6-1.4-1.51-2.59-1.1A1,1,0,0,1,30.4,42.19Z"/><path class="cls-3" d="M14.37,48.85c-.53-.6-2-.15-1.83-1.42s1.47-.88,2.31-.89c3.77,0,7.53,0,11.3,0l.12.35a.93.93,0,0,1-.54.49,3.82,3.82,0,0,1-.75.08c-1.69,0-3.37,0-5.06,0H16.47c-.31,0-.62,0-.93,0,3.56.26,7.14-.36,10.69.33a1.31,1.31,0,0,1-.35,2.07,24.45,24.45,0,0,1-9.56-.48C15.64,49.3,14.9,49.49,14.37,48.85Z"/><path class="cls-4" d="M57.87,47c.5,2.73,1.49,5.56-1.06,7.84-.67.6-1.72,1.54-2.27-.27-.46-1.12.76-1.78.76-2.78a4,4,0,0,1,.21-.67c.35-.86.06-1.84.43-2.68S56.62,46.66,57.87,47Z"/><path class="cls-5" d="M48.06,30.87l.42.9a1.22,1.22,0,0,1-.6,1.24,1.12,1.12,0,0,1-1.31-.43,7.17,7.17,0,0,1-.6-2.09,3.71,3.71,0,0,1,1.58-2.64c1.16-1.6,2.43-3.12,3.64-4.68a14,14,0,0,0,1.5-1.67c.73-.94,1.22-2.19,2.73-2.13l.28.19a1.42,1.42,0,0,1,.26.62c0,1.3-1.17,1.84-1.87,2.68h0a10.21,10.21,0,0,0-1.39,2.06c-1.4,1.47-2.9,2.87-3.6,4.86C49,30.34,48.36,30.46,48.06,30.87Z"/><path class="cls-6" d="M53.58,38.49c2.49.52,3.69,2.29,3.82,5.66-.13,2.59-1.52,4.94-1.42,7.57h0c-1.86-.28-.82-2-1.48-2.91-.12-1.26-1-2.27-1.12-3.53a1.24,1.24,0,0,1,.32-.54c.56-.39,1.4-.41,1.66-1.22.6-1.72-.36-2.79-1.55-3.77A1.13,1.13,0,0,1,53.58,38.49Z"/><path class="cls-7" d="M54.09,22.86c.27-1,1.51-1.57,1.43-2.78.68-1.54,1.46-3,3.52-2.67.83.12,1-.49,1.27-1.07a1.13,1.13,0,0,0-.43-1.3c-1.31-1.16-3,.27-4.36-.66,1.47-1.27,4.48-1.44,5.56-.33s.7,4.06-1,5.5c-.18.15-.47.4-.58.35-2.6-1.25-3.13,1.28-4.45,2.38A6.2,6.2,0,0,1,54.09,22.86Z"/><path class="cls-8" d="M27.1,55c-1.73-1.24-.68-2.8-.48-4.26-.26-.28-.61-.5-.7-.91a.68.68,0,0,1,.23-.52h0c.63-.87-.18-1.89.27-2.78-.1-1.38.73-2.28,1.61-3.16,1.85-.37,2.75.6,3.18,2.25-.33,1.08-1.38.93-2.15,1.25a1.4,1.4,0,0,0-1.05,1c-.41,1.91-.06,3.85-.22,5.77A1.5,1.5,0,0,1,27.1,55Z"/><path class="cls-9" d="M30,38.38l-.59-1.77c.77-.65,1.34-.21,1.89.34a2.89,2.89,0,0,1,.32.6c1.73,1.68,2.88-.1,4.23-.69a1.36,1.36,0,0,1,1,.2,1.77,1.77,0,0,1,.94,1.41c-.24,1.64-1.69,1.77-2.85,2.26a3.83,3.83,0,0,1-.69.09,11.34,11.34,0,0,1-2.79-.13A3.72,3.72,0,0,1,30,38.38Z"/><path class="cls-10" d="M36.1,56.45a6.74,6.74,0,0,1-1.9,3.32c-1.37.44-1.45-.46-1.32-1.37.16-1.07.59-2.1.82-3.17.15-.44.24-.9.38-1.34a1.25,1.25,0,0,1,1.57-1c.82.19.69.93.67,1.53A3.77,3.77,0,0,1,36.1,56.45Z"/><path class="cls-11" d="M40.83,51.73c-1.34.9-2.84.29-4.26.46a.59.59,0,0,1,0-.6,1,1,0,0,1,.76-.31,1.84,1.84,0,0,1-.88-.39,1.17,1.17,0,0,1-.18-.87c.22-.48-.12-.46-.44-.46a.75.75,0,0,1-.43-.46,1.15,1.15,0,0,1,.29-1c1.12-.77,2.39-.28,3.58-.48.78.24,1,1,1.39,1.56C41.29,50,42.31,50.77,40.83,51.73Z"/><path class="cls-12" d="M32.3,58.36l-.43,0c-1.41.55-2.36-.21-3.24-1.16a4.06,4.06,0,0,1-1.05-2.75c.45-2.35.93-2.59,3.05-1.55A9.42,9.42,0,0,0,32,54.19c1,1,2,1.91.68,3.34-.72,0-1.12-.49-1.57-.92a6,6,0,0,0,.81.78l.52.37A.62.62,0,0,1,32.3,58.36Z"/><path class="cls-13" d="M55,48.4c.92.93,0,2.39.94,3.32a3.43,3.43,0,0,1-1.43,2.84c-1.35-.65-3.23.25-4.25-1.42-.23-.74.22-1,.81-1.23a2.27,2.27,0,0,1,1,.15c.9.58,1.43.23,1.76-.68.26-.73.24-1.53.56-2.25A1.22,1.22,0,0,1,55,48.4Z"/><path class="cls-14" d="M34.23,31.39c.8-.05,1.4-.25,1.06-1.28-.71-2.09.29-2.7,2.21-2.55.78.07,1.57.06,2.35.08a.51.51,0,0,1,0,.63,1.86,1.86,0,0,1-1.2.55c-.6.06-1.37-.33-1.66.61.13,1.25.81,2.39.74,3.68s0,2.32-1.4,2.72a1,1,0,0,1-1.11-.7A5.62,5.62,0,0,0,34,32,.6.6,0,0,1,34.23,31.39Z"/><path class="cls-15" d="M53.19,19.05c-.72-2,.89-2.72,1.93-3.76.71-.11,1.33.42,2.05.24a1.36,1.36,0,0,1,.86,1c0,1.76-1.57,2.19-2.55,3.13l0-.08c-.56-.47-1.19-.13-1.79-.18A1.07,1.07,0,0,1,53.19,19.05Z"/><path class="cls-16" d="M51.76,23.37A19.19,19.19,0,0,1,48,28.12c-.44-.2-.26-.69-.47-1a15.58,15.58,0,0,1,3.7-4.86C51.68,22.46,51.73,22.91,51.76,23.37Z"/><path class="cls-17" d="M35.62,49.34h.46a.51.51,0,0,1,.49.47v.94a2.44,2.44,0,0,1,0,1c0,.15,0,.31,0,.46-.19,1.42.42,2.92-.47,4.26,0-.15,0-.32,0-.47-.16-.87.48-2.29-.57-2.51-1.32-.28-.49,1.56-1.3,2.05l-.32-.22A4.25,4.25,0,0,1,34.28,51C34.8,50.49,34.91,49.68,35.62,49.34Z"/><path class="cls-18" d="M53.58,38.49l.52.9a.56.56,0,0,1,.16.39c0,.15,0,.22,0,.22a1.59,1.59,0,0,1-1.1.73,3,3,0,0,1-1.62-.4,3.35,3.35,0,0,0-2.2-.66,5,5,0,0,1-3-.07c-.5-.25-1-.52-.83-1.2.55-.71,1.41-.62,2.15-.81a5.37,5.37,0,0,0,4.57-1Z"/><path class="cls-19" d="M52.21,36.57c.07,1.36-.45,2.09-1.94,1.92-.77-.09-1.57,0-2.36-.06-.13-.31-.11-.75.14-.83,3.47-1.13,1.56-3.29,1-5.19a1.05,1.05,0,0,1,.24-.61C51.82,32.46,51.22,35,52.21,36.57Z"/><path class="cls-17" d="M32.3,58.36c.05-.15.09-.3.14-.45,1.09-.57,0-2.08,1.12-2.62a.77.77,0,0,1,.62.2l0,0a5.21,5.21,0,0,1-.63,2.67c-.37.72-.37,1.35.61,1.58-1,1-2.12,1.06-3.53.76C31,59.51,32.45,59.5,32.3,58.36Z"/><path class="cls-20" d="M56,51.72c0-2.61-.13-5.25,1.42-7.57.48.89,1,1.78.47,2.84C55.9,48,56.94,50.28,56,51.72Z"/><path class="cls-21" d="M55.52,14.38c1.8-.55,3.6-1.23,5.23.41-.35.6.07,1.17.09,1.76-.77,1-1.57,1.14-2.42.1-.28-.72-.65-1.32-1.58-1.15a1.47,1.47,0,0,1-1.37-.73A1.31,1.31,0,0,1,55.52,14.38Z"/><path class="cls-22" d="M51.23,52.19l-.94,1c-.59-1.06-1.42-2-1.42-3.32-.3-.31-.68-.58-.67-1.09a.9.9,0,0,1,1-.7c.7.07,1.06.6,1.47,1.09s.58.86.87,1.29a2.27,2.27,0,0,1,.21.62A1.12,1.12,0,0,1,51.23,52.19Z"/><path class="cls-23" d="M30.85,46.06a3.31,3.31,0,0,0-2.8-2.35.67.67,0,0,1,0-1l2.35-.54,1,0c.06.08.11.17.16.25a1.26,1.26,0,0,1,0,.58c-.42.8.39,1.24.54,1.88a1.48,1.48,0,0,1-.12,1.59.89.89,0,0,1-1,.13.45.45,0,0,1-.18-.38C30.79,46.14,30.82,46.06,30.85,46.06Z"/><path class="cls-24" d="M40.33,27.59c1.63,1.52,2.26-.58,3.38-.93.68.6.65,1.45.79,2.24a1.43,1.43,0,0,1-.58,1.16,1.38,1.38,0,0,1-.59.2,1.84,1.84,0,0,0-1.36.31,1.12,1.12,0,0,1-.6.07,1.39,1.39,0,0,1-.53-.36C40.47,29.42,39.61,28.65,40.33,27.59Z"/><path class="cls-25" d="M43.18,51.72H41.77c0-.76,0-1.57-.8-2a1.36,1.36,0,0,1,.1-1.28,1.27,1.27,0,0,1,1.27-.34c.78.48,1.79,0,2.55.6a1.38,1.38,0,0,1,.48,1.55C44.91,51.12,43.89,51.2,43.18,51.72Z"/><path class="cls-26" d="M26.15,49.34v.49c-.72.71-1.64.38-2.47.47-1.86-.19-3.78.44-5.57-.46H16.69c-.26-.26-.77-.4-.47-.94A47.82,47.82,0,0,0,26.15,49.34Z"/><path class="cls-27" d="M34.23,31.39a2.7,2.7,0,0,1-.08.41c-.45,2.18-2.66,1.91-4,2.86-.43.27-.61.85-1.17,1a1.36,1.36,0,0,1,.49-2.32C31,32.57,32.44,31.51,34.23,31.39Z"/><path class="cls-26" d="M28,54.55,29,56.93c.27.66,1.2,1,1,1.88-1.88-.55-2.56-2-2.84-3.78V53.61C28,53.32,27.64,54.33,28,54.55Z"/><path class="cls-28" d="M48.78,29.87c.48-2.3,2.15-3.73,3.82-5.15.19-.26.37-.25.53,0C51.86,26.47,50.27,28,49.34,30A.37.37,0,0,1,48.78,29.87Z"/><path class="cls-29" d="M28.05,42.73v1l-1.42,2.81c-.16.31-.33.31-.5,0h0C25.38,44.56,27.17,43.87,28.05,42.73Z"/><path class="cls-30" d="M30,38.38l1.36,2c1.09.49,2.23.16,3.34.19a1.17,1.17,0,0,1,1.39.3c-1.66.9-3.46.28-5.18.45C30.79,40.27,29.65,39.56,30,38.38Z"/><path class="cls-31" d="M18.11,49.84h5.67c.25.38,1.24,0,1,.92H22.37c-1.37-.63-2.89.16-4.26-.47Z"/><path class="cls-32" d="M47.48,27.12c.16.33.31.67.47,1l-1.48,2.27a.6.6,0,0,1-.64.12A1.41,1.41,0,0,1,45.15,29c.16-1,1.11-1.07,1.83-1.39Z"/><path class="cls-33" d="M55.47,14.77l1.46.52c.13.09.18.19.15.29s-.08.16-.12.16c-.21.58-.42,1.15-1.25,1s0-1.12-.59-1.43C55,15,55.2,14.85,55.47,14.77Z"/><path class="cls-34" d="M43.18,51.72c.14-1.12.86-1.45,1.88-1.39a.47.47,0,0,1,.48.47C45.16,52.13,44.29,52.23,43.18,51.72Z"/><path class="cls-35" d="M41.29,49.82c.5.11,1.23-.27,1.44.41s-.64,1-1,1.49h-.94c.78-1.19-.39-1.39-.95-1.9A1,1,0,0,1,41.29,49.82Z"/><path class="cls-36" d="M29,35.63l.46-1.49.28.13a10.88,10.88,0,0,0,1.43,1.19c.44.73,1.35,1.52-.23,2a1.7,1.7,0,0,0-1.52-.86Z"/><path class="cls-37" d="M51.76,23.37l-.58-1.11L52.24,21a.69.69,0,0,1,1-.12.83.83,0,0,1-.1,1Z"/><path class="cls-38" d="M47,27.6,45.59,29a.69.69,0,0,1-1.24-.29c-.05-.52,0-1,0-1.56a1,1,0,0,1,.31-.52C45.61,26.47,46.15,27.39,47,27.6Z"/><path class="cls-39" d="M45.54,50.8l-.48-.47c-.15-.48-.29-1-.44-1.44a1.27,1.27,0,0,1,1-.55,1.39,1.39,0,0,1,1,.44.89.89,0,0,1-.11,1Z"/><path class="cls-40" d="M16.22,48.89l.47.94H14.32c-.26-.26-.75-.4-.48-.93l.53,0Z"/><path class="cls-41" d="M46.51,49.83v-.94a1.22,1.22,0,0,1,1.9,0l.47,1Z"/><path class="cls-42" d="M24.74,50.77l-1-.92,2.37,0,.47.94Z"/><path class="cls-43" d="M29.94,58.81c-.33-.62-.93-1.1-1-1.88.94.54,1.62,1.58,2.89,1.45C31.32,58.93,30.62,58.81,29.94,58.81Z"/><path class="cls-44" d="M18.11,50.3c1.42.18,2.92-.43,4.26.47C21,50.6,19.45,51.2,18.11,50.3Z"/><path class="cls-45" d="M13.84,48.9l.48.93a3.59,3.59,0,0,1-2.05-.34C12.63,48.7,13.29,49,13.84,48.9Z"/><path class="cls-46" d="M40.33,27.59c.1,1,1.21,1.68,1,2.8-1.62,0-2-.87-1.5-2.29,0-.15,0-.31,0-.46Z"/><path class="cls-47" d="M48.78,29.87l.56.08c-.1.76-.62.95-1.28.92C47.89,30.25,48.22,30,48.78,29.87Z"/><path class="cls-48" d="M44.62,26.65c0,.13,0,.27,0,.41a3.29,3.29,0,0,1-.23,1.78l-.23.19c-.65-.7-.44-1.55-.4-2.37Z"/><path class="cls-7" d="M53.13,24.74l-.53,0a2.63,2.63,0,0,1,1.49-1.86C54.07,23.64,53.45,24.12,53.13,24.74Z"/><path class="cls-49" d="M53.13,21l-.89,0c.32-.65.63-1.31.95-2h.41C54.3,19.91,53.89,20.49,53.13,21Z"/><path class="cls-50" d="M49.32,31.8v.5a.78.78,0,0,1-1.4.49c.18-.34.36-.68.55-1Z"/><path class="cls-51" d="M39.39,47.94c-1.29-.2-2.48.37-3.72.5l-.21-.23a1,1,0,0,1,.07-.62,1.11,1.11,0,0,1,1-.59c2.71.81,3.43.19,3.3-2.85-.72-1.11-1.13-2.21,0-3.32l.47-.47a.76.76,0,0,1,.91-.15c.55.59.07,1.15,0,1.74-.14.88-.55,1.86.52,2.5a1.42,1.42,0,0,0,1.57-.36c1.07-1.06.81-2.3.48-3.55a1,1,0,0,1,1-.93c1.3.24,1.48,1.21,1.5,2.28s.44,1.93,1.8,1.86a2.35,2.35,0,0,1,1.73.61A.88.88,0,0,1,50,45a.55.55,0,0,1-.32.3c-.29.11.06-.1-.22,0,0,.08.13,0,.21.06a.63.63,0,0,1,.43.44c.09,1.08-.73,1.37-1.49,1.72a2.81,2.81,0,0,1-.7.14c-.59,0-1.18,0-1.77,0a3.85,3.85,0,0,1-.67-.09c-1.58-.87-3,.37-4.44.45A1.49,1.49,0,0,1,39.39,47.94Z"/><path class="cls-52" d="M36.58,47l-.95.94c-1.83,0-1.39-1.93-2.22-2.78a2.09,2.09,0,0,1-.13-.65,1.58,1.58,0,0,1,.19-.64l.26-.22c.7,0,.9-1.72,1.84-.64S37.6,45.33,36.58,47Z"/><path class="cls-53" d="M41.3,40.37h-.95c0-.3,0-.61,0-.91.56-1,1.74-.6,2.54-1.08,1.19.17,1.77-1.67,3.13-1,.37.58-.14.81-.44,1.12l.93.45c-.06,1.48-1.27.58-1.88.92l-.45,1c.38,1.65-.65,1.46-1.56,1.1C42,41.69,41.7,40.93,41.3,40.37Z"/><path class="cls-54" d="M39.88,40.83v3.32a12.33,12.33,0,0,1-3.07-2.45A7.24,7.24,0,0,1,39.88,40.83Z"/><path class="cls-55" d="M43.23,38.89c-.84.83-1.93.4-2.9.56H40l-.27-.23a1.26,1.26,0,0,1,.57-1.55,2.69,2.69,0,0,1,3,.25A.83.83,0,0,1,43.23,38.89Z"/><path class="cls-56" d="M36.09,40.85l-1.44-.06c-.18-.1-.24-.2-.17-.3s.12-.14.18-.14h0c1.07-.36,2.32-.39,3-1.53a1.64,1.64,0,0,1,.76-.59c.88-.1,1.07.62,1.41,1.16l.13,0Z"/><path class="cls-57" d="M31.38,42.23c1.63-.92,2.24-.16,2.35,1.42v0c-1.35.47-1.84-.5-2.37-1.41Z"/><path class="cls-58" d="M26.12,47.92c-4,0-8-.08-11.93-.15-.25,0-.5-.29-.85-.51A7.23,7.23,0,0,1,16.25,47c1.27.45,2.58.11,3.87.21,1.84-.13,3.7.27,5.53-.22h.5A.6.6,0,0,1,26.12,47.92Z"/><path class="cls-59" d="M25.65,47c-1.82,1-3.77.25-5.65.46-.31-.16-.3-.3,0-.44Z"/><path class="cls-60" d="M20,47c0,.15,0,.3,0,.44-1.25-.15-2.58.39-3.75-.46Z"/><path class="cls-26" d="M26.12,47.92l0-.93c0-.16,0-.31,0-.46h.5c-.1.95.28,2-.49,2.83C26.13,48.88,26.13,48.4,26.12,47.92Z"/><path class="cls-61" d="M58.82,16.23c.63,1.07,1.29.66,2,0,.1-.19.23-.21.38-.06-.58,1.23-.48,3.15-2.95,1.91-1-.51-1.51,1.63-2.69,2,0-.15,0-.3,0-.46.37-1.12,2.09-1.37,1.87-2.87C57.76,16.36,58.12,15.83,58.82,16.23Z"/><path class="cls-62" d="M53.13,21a3.44,3.44,0,0,0,.47-1.91c1-1.33,1.5-.6,1.9.48-1.08.5-1.59,1.56-2.38,2.36C53.12,21.59,53.13,21.28,53.13,21Z"/><path class="cls-63" d="M47.93,32.79h.91c.72.84.28,1.45-.41,2a1.24,1.24,0,0,1-.66.07c-.52-.24-1.05-.44-1.56-.67a1.44,1.44,0,0,1-.45-.53,1.2,1.2,0,0,1,.63-1.5.43.43,0,0,1,.57.26Z"/><path class="cls-38" d="M47,32.43l-.54,0a2.13,2.13,0,0,1-2.2-.27,1,1,0,0,1-.29-.59A1.1,1.1,0,0,1,44.2,31,3.57,3.57,0,0,1,46,30.48a3.12,3.12,0,0,1,.44-.09A3,3,0,0,1,47,32.43Z"/><path class="cls-64" d="M51.75,39.86l1.34.54a1.8,1.8,0,0,1,1.6,1.1c.37.91,1.14,1.63,1.28,2.65a1.78,1.78,0,0,1-1.89.93,7.66,7.66,0,0,1-1.93-2.89c-.09-.72-.67-1.31-.58-2.08Z"/><path class="cls-65" d="M56,44.15a3.41,3.41,0,0,1-1.89-2.37c.71-.63-.2-1.28,0-1.92a3.68,3.68,0,0,1,0-.47C56.43,40.31,56.72,42,56,44.15Z"/><path class="cls-66" d="M52.66,41.78c.38,1.14,1.53,1.95,1.42,3.3l-.45,0a1.5,1.5,0,0,1-1-.27c-1-.88-2.32-1.62-1.29-3.28A1.08,1.08,0,0,1,52.66,41.78Z"/><path class="cls-67" d="M53.13,44.61l.5.49c.63,1,1.47,2,1.4,3.3,0,.32,0,.64,0,1A.92.92,0,0,1,54,49C53.27,47.62,51.71,46.41,53.13,44.61Z"/><path class="cls-68" d="M61.16,16.21a2.32,2.32,0,0,0-.38.06c-.44-.13-.93-.24-.86-.85,0-.46.47-.53.83-.63C61.28,15.15,61.21,15.68,61.16,16.21Z"/><path class="cls-69" d="M30.85,46.06c0,.15,0,.29.07.44A1.64,1.64,0,0,1,31.51,49c-.73.7-.77,1.83-1.56,2.48a1.57,1.57,0,0,1-.79.15c-1.66-1.21-1.83-2.78-.62-5.61A4,4,0,0,1,30.85,46.06Z"/><path class="cls-70" d="M28,54.55l-.94-.94c.23-2.21-.47-4.48.47-6.63,1.14,0,.62.83.69,1.32a13.09,13.09,0,0,1,0,1.88c0,1.19.3,2,1.64,1h0a.57.57,0,0,1,.75.12,1.59,1.59,0,0,1-.25,2.25C29,52.26,28.28,52.85,28,54.55Z"/><path class="cls-71" d="M29.92,51.23c-.12.62-.45,1-1.12.83s-.67-.73-.74-1.27c-.17-1.27.37-2.63-.49-3.81l1-.94c0,1.17,0,2.34,0,3.51C28.5,50.54,28.74,51.27,29.92,51.23Z"/><path class="cls-72" d="M30.93,37.47c.76-.86.18-1.37-.49-1.86-.5-.29-.49-1-.93-1.29l-.06-.18,4.71-2.34c1.41.49,2.48,1.16,1.5,2.9-1,1.4,1.14.87,1,1.72a.67.67,0,0,1-.48.43c-1.06,0-1.72,1-2.69,1.22s-1.76.7-2.6-.09Z"/><path class="cls-73" d="M30.91,38c1.94-.27,3.59-1.74,5.68-1.39.08.35,0,.56-.41.5C35,39.26,32.18,39.72,30.91,38Z"/><path class="cls-74" d="M38.46,38.45l-.49.48c-.43.13-.64,0-.46-.47l-.94-.94a1.85,1.85,0,0,0,.52-1A1.21,1.21,0,0,1,37.4,36a1.13,1.13,0,0,1,.57-.18c.75.11,1.17.73,1.74,1.14A1,1,0,0,1,40,38.07C39.56,38.57,38.94,38.23,38.46,38.45Z"/><path class="cls-75" d="M37.51,38.46l.46.47a3.32,3.32,0,0,1-3.3,1.42C35.59,39.68,36.83,39.5,37.51,38.46Z"/><path class="cls-76" d="M37.49,36.56c.69,1.28-.47.78-.92,1l-.39-.43c.14-.16.27-.33.41-.5h0A.58.58,0,0,1,37.49,36.56Z"/><path class="cls-75" d="M34.66,40.35c0,.15,0,.3,0,.45-1.11-.1-2.29.46-3.29-.44Z"/><path class="cls-77" d="M36.56,51.73c-.39-.32-.39-.64,0-1,1.08.31,2.26-.85,3.45.32C39,52.19,37.67,51.52,36.56,51.73Z"/><path class="cls-78" d="M39.39,47.94l1.44-.48c.26.26.78.4.47.95,0,.47,0,.94,0,1.41H39.88C39.29,49.31,39.43,48.6,39.39,47.94Z"/><path class="cls-79" d="M36.57,49.82l-.49-.47A1.53,1.53,0,0,1,38,49.09C37.83,50,37.08,49.69,36.57,49.82Z"/><path class="cls-57" d="M35.62,49.34c0,.67.1,1.37-.46,1.9A2,2,0,0,1,34.64,49c.21-.38.47-.69,1-.59l.06,0C35.65,48.74,35.64,49,35.62,49.34Z"/><path class="cls-80" d="M30.89,48.88a2.17,2.17,0,0,0,0-2.38l1,0,.28.18c.14,1.71,1.52,2.34,2.73,3.13a24.35,24.35,0,0,0-1.18,5.72c-.79.62,0,2.06-1.28,2.42l-.25-.08a.32.32,0,0,1,.15-.43c1-1.4-.34-2-1-2.83.6-.82,1.47-1.57.59-2.71a.91.91,0,0,0-.88-.39.74.74,0,0,1-.47-.33C29.78,50.27,30.43,49.58,30.89,48.88Z"/><path class="cls-81" d="M32.3,51.25c1.51,2.31,1.33,3-.94,3.32-.32-.32-.63-.65-.94-1,0-.79,0-1.57,0-2.35.15-.22.3-.22.46,0h.46A1.25,1.25,0,0,0,32.3,51.25Z"/><path class="cls-82" d="M32.34,57.4a3.12,3.12,0,0,0-.15.43c-2-.16-2.8-1.26-2.67-3.45A5.48,5.48,0,0,1,32.34,57.4Z"/><path class="cls-83" d="M53.13,44.61c-.35,1.7,1.29,2.73,1.42,4.27-.63,1.5-.61,3.48-2.83,3.77l-.49-.46V50.78c-.15-.28-.3-.28-.46,0a1.65,1.65,0,0,1-.49-1.41c-.65-1-.15-1.68.67-2.25a1,1,0,0,0,.14-.46c-.38-.43-1-.51-1.27-1.08h0c-.31-.16-.31-.32,0-.47v-.49a2,2,0,0,1-.58-2.11,2.18,2.18,0,0,1,.59-1,1.38,1.38,0,0,1,1.35-.36.4.4,0,0,1,.09.61C51.3,43.12,52.68,43.55,53.13,44.61Z"/><path class="cls-84" d="M51.72,52.65c1.42-.89.92-3.23,2.83-3.77l.46.48a5.21,5.21,0,0,1-.71,2.88C53.6,53.67,52.8,53.94,51.72,52.65Z"/><path class="cls-85" d="M39.83,28.1a5.27,5.27,0,0,0,1.5,2.29l0,0a1.17,1.17,0,0,1-.15,1.64c-1.4.31-2,1.77-3.19,2.34-1.08-.1-.42-1.19-.92-1.61L35.68,29c.76-.77,2-.17,2.73-.86Z"/><path class="cls-86" d="M38.41,28.11c-.63,1.17-1.74.83-2.73.86C36.17,27.37,37.48,28.34,38.41,28.11Z"/><path class="cls-73" d="M37.49,36.56l-.9,0c-2-1.05-2-1.05-.93-1.89.14.31.29.61.43.92.66-.42,1.1-.21,1.37.48C37.48,36.25,37.48,36.4,37.49,36.56Z"/><path class="cls-87" d="M37.46,36.1l-1.37-.48a3,3,0,0,0,1-2.84c.32.48.63,1,.94,1.44.67.84,0,1.35-.47,1.88Z"/><path class="cls-88" d="M58.82,16.23l-1.47.52-.39-1a1.71,1.71,0,0,1,0-.45,1.57,1.57,0,0,1,1.86-.44C59.47,15.23,59,15.76,58.82,16.23Z"/><path class="cls-89" d="M33.72,55.49a14.91,14.91,0,0,1,1-6.13c-.13-.44.06-.58.47-.49,0,.79,0,1.58,0,2.37-1.31,1.19-.88,2.78-1,4.25h-.46Z"/><path class="cls-90" d="M48,34.72a2.79,2.79,0,0,0,.85-1.92l.49-.5c1.66,1,1.44,3,2.22,4.46.41.78-.29,1.28-1.19,1a1.85,1.85,0,0,0-2.45.67l-2.35.09.32-1a1,1,0,0,1-.06-.63C46.37,36,46.57,34.72,48,34.72Z"/><path class="cls-91" d="M50.28,41.79l-.45.47c-.4-.08-.63-.41-1-.57a6.56,6.56,0,0,0-1.08-.09,2.38,2.38,0,0,0-.53.11c-.45.16-.71.62-1.18.75a.57.57,0,0,1-.51-.21c0-.91.06-1.85-1-2.36L46.49,39l3.35,0c.42.28.87.53,1,1.08A2.41,2.41,0,0,1,50.28,41.79Z"/><path class="cls-92" d="M54.1,39.86c.6.43,1.41.79,1.13,1.72-.18.58-.73.35-1.15.2l-1-1.38Z"/><path class="cls-93" d="M50.29,39.87,49.84,39a2,2,0,0,1,1.91.91l-.06,0a1.11,1.11,0,0,1-.54.34A1,1,0,0,1,50.29,39.87Z"/><path class="cls-94" d="M52.18,47.45c-.63.64-2.11.43-1.9,1.91-.73.1-.59-.67-.94-1s-1.65-.27-1-1.42c.42-.53,1.38-.52,1.43-1.42,1,.11,2.76-1,2.36,1.42-.26.33-.67-.31-.92.13A1.35,1.35,0,0,1,52.18,47.45Z"/><path class="cls-95" d="M50.77,50.77c.08-.63-.24-1.42.66-1.71a.63.63,0,0,1,.53.29c.31.74-.22,1.09-.73,1.43Z"/><path class="cls-96" d="M48.39,47c0,.66.61,1,1,1.42l-.94.46-1.9,0-.93,0c-.16-.38,0-.64.3-.88.66-.36,1.56-.23,2-1Z"/><path class="cls-97" d="M31.89,46.46l-.53-1.37c.39-.48.23-1.29.94-1.58.82-.06,1,.64,1.41,1.13h0c.29.29.28.7.38,1.06.18.74.09,1.44-.68,1.76s-1.18-.38-1.53-1Z"/><path class="cls-98" d="M32.3,43.68c0,.69-.08,1.3-.94,1.41.1-.76-2.75-1.49,0-2.29C31.77,43,32.54,42.77,32.3,43.68Z"/><path class="cls-99" d="M32.3,43.68l-1-.88,0-.54,2.37,1.41c0,.32,0,.65,0,1Z"/><path class="cls-100" d="M43.35,29.87a.81.81,0,0,1,.31,0,.93.93,0,0,1,.75.59.88.88,0,0,1-.29.9v.1c-.32.67-.67,1.29-1.58,1.13a1.25,1.25,0,0,1-.58-.43,1.79,1.79,0,0,1,.12-1.75A1.29,1.29,0,0,1,43.35,29.87Z"/><path class="cls-101" d="M42.26,30.47v1.86l-.23.24a1.06,1.06,0,0,1-1.26-.14.46.46,0,0,1,.06-.59c.16-.48.33-1,.49-1.43a.83.83,0,0,1,.35,0A.35.35,0,0,1,42.26,30.47Z"/><path class="cls-102" d="M42.26,30.47l-.6-.07c.14-.46,0-1.1.58-1.3s.92.25,1.11.77Z"/><path class="cls-103" d="M44.16,30.44l-.5-.57.45-.84.22-.24.31.09,0,.12C45,29.65,45.17,30.23,44.16,30.44Z"/><path class="cls-104" d="M41.3,48.41l-.47-.95c1.57-.18,3-1.83,4.73-.47-.19,2.23-2,1.56-3.31,1.89Z"/><path class="cls-105" d="M42.25,48.88c.89-1,2.69-.41,3.31-1.89H46a1,1,0,0,1,0,1.4l-.47.46-1,0C43.83,48.86,43,49.73,42.25,48.88Z"/><path class="cls-15" d="M44.16,30.44c.47-.38.43-.92.45-1.44l1,0L46,30.48c-.28,1.08-1.16.85-1.91.88C44.13,31.05,44.15,30.75,44.16,30.44Z"/><path class="cls-106" d="M29.51,34.32c1.35-.32,1,.6.93,1.29C29.15,35.89,29.65,34.87,29.51,34.32Z"/><path class="cls-107" d="M44.64,28.88a1.58,1.58,0,0,1-.31-.09,1.63,1.63,0,0,1,.24-1.73C45.93,27.62,44.77,28.27,44.64,28.88Z"/><path class="cls-23" d="M31.87,46.48c2.92,1.66,1.48-1,1.83-1.85,1.1.84,1.09,2.32,1.93,3.31,0,.15,0,.3,0,.45l-.47.48-.47.49a2.48,2.48,0,0,0-1.21.58c-1.22.89-1.78.14-1.59-1C32,48.11,31.74,47.31,31.87,46.48Z"/><path class="cls-108" d="M41.3,40.37c.7,0,1.08.53,1.54,1,.68.66,1.1.28,1.32-.5,1.86,1.43.21,2.84,0,4.25-.69-.36-1-1.14-1.76-1.53-.41.65-.36,1.55-1.07,2C39.48,43.84,40.25,42.1,41.3,40.37Z"/><path class="cls-109" d="M49.34,40.36c.58.53.45,1.23.49,1.9s0,1.57,0,2.35c-.69,0-1.38,0-2.06,0-1.74.12-2.33-.78-2.19-2.38H46c.93-.06.34-1.14,1-1.42h.46C48.38,41.86,48.87,41.15,49.34,40.36Z"/><path class="cls-110" d="M41.3,45.57V41.51c1.51,1.07,3,1.63,2.83,3.58A5,5,0,0,1,41.3,45.57Z"/><path class="cls-111" d="M46,48.4V47h1.87C48,48.39,47,48.44,46,48.4Z"/><path class="cls-94" d="M49.82,45.1v.47c-.73-.09-1.5.19-2.25-.24C48.32,44.9,49.09,45.18,49.82,45.1Z"/><path class="cls-112" d="M46,37c0,.15-.08.31-.13.46-1,.29-1.32,1.78-2.65,1.41L43.11,38c-.3-.87.29-1.37.78-1.92a1.91,1.91,0,0,1,1-.47C45.73,35.74,46.59,35.82,46,37Z"/><path class="cls-113" d="M44.06,36.53l-1,1.47c-.9.43-1.8-.16-2.7,0l-.15-.3a2.64,2.64,0,0,1,.93-2,1.88,1.88,0,0,1,.59-.28,3,3,0,0,1,1.54.27A1.14,1.14,0,0,1,44.06,36.53Z"/><path class="cls-114" d="M38.46,38.45A1.77,1.77,0,0,1,39.88,38c.13-.18.26-.17.38,0h.15l-.57,1.4Z"/><path class="cls-115" d="M46,37c-.09-.88-.71-.93-1.39-.91a.75.75,0,0,1-.06-.79c.19-.32.37-.65.57-1a1.45,1.45,0,0,1,.9-.63l.54.06c.14.61.6.78,1.16.8l.26.13C47.1,35.28,47.31,36.8,46,37Z"/><path class="cls-116" d="M46,33.73l-.39,1a1.23,1.23,0,0,1-.9-.29,4.57,4.57,0,0,1-1-1.68.9.9,0,0,1,.4-.84,5,5,0,0,1,2.25.61Z"/><path class="cls-117" d="M47.73,34.59c-.81.35-1.38.34-1.16-.8C47.12,33.82,47.79,33.67,47.73,34.59Z"/><path class="cls-118" d="M44.17,31.87l0,.86a1.27,1.27,0,0,1-1.05,1.69.88.88,0,0,1-.68-.3,1.25,1.25,0,0,1,.3-1.71l1.34-1A1,1,0,0,0,44.17,31.87Z"/><path class="cls-119" d="M51.21,39.9h.48c.15.72,1.38.89,1,1.89h-1.4l0-.48A1,1,0,0,1,51.21,39.9Z"/><path class="cls-71" d="M30.89,51.25h-.46l-.51,0c0-.92,0-1.84,1-2.35C30.77,49.67,30.31,50.46,30.89,51.25Z"/><path class="cls-120" d="M40.82,31.84v.48a1.9,1.9,0,0,1-.73,1.3c-.74.88-.37,1.92-.4,2.9a1.08,1.08,0,0,1-.3.53c-1.07.56-1-1.13-1.88-.95.16-.62.31-1.25.47-1.88C38.45,32.86,38.9,31.47,40.82,31.84Z"/><path class="cls-121" d="M39.4,37.05c0-.14,0-.28,0-.41l0-.32a1.79,1.79,0,0,1,1.46-1.85,1,1,0,0,1,.87,1.16c-.5.79-1,1.58-1.51,2.37l-.38,0Z"/><path class="cls-122" d="M32.3,51.25c-.06.67.16,1.38-.39,2.12-.84-.61-.45-1.45-.56-2.13l.32-.57Z"/><path class="cls-123" d="M51.21,39.9c0,.47,0,.94,0,1.41l-.95.48c0-.64,0-1.28,0-1.92Z"/><path class="cls-124" d="M52.18,47.45c-.44-.15-1.16.41-1.32-.43a1,1,0,0,1,.44-.78c.66-.27.43.66.88.75Z"/><path class="cls-125" d="M49.34,40.36c-.09.9,0,2.09-1.2,2.14-.91,0-.6-1-.69-1.66Z"/><path class="cls-126" d="M47,40.83v2.79c-.91-.26-.81-.88-1-1.37A1.56,1.56,0,0,1,47,40.83Z"/><path class="cls-127" d="M41.77,35.63l-.94-1a1,1,0,0,1-.3-.57c0-1.17,1.14-1.2,1.73-1.79h0l.52.08c0,.6,0,1.21-.05,1.81.39.89-.3,1.15-.85,1.49Z"/><path class="cls-46" d="M42.26,32.32c0,1-1.21,1.14-1.52,1.94a.91.91,0,0,1-1,.11c-.41-.46-.8-.92-.31-1.56l1.41-.49Z"/><path class="cls-128" d="M45.1,35.59l-.48.52-.56.42-.86-.44c-.27-.88.25-1.29.94-1.6C44.84,34.53,45.22,34.84,45.1,35.59Z"/><path class="cls-113" d="M44.14,34.69c0,.66-.6,1-.94,1.4-.69.72-.92-.16-1.33-.38l.85-1.49.44-.17a1.2,1.2,0,0,1,1,0A.48.48,0,0,1,44.14,34.69Z"/><path class="cls-129" d="M44.14,34.69v-.48a.71.71,0,0,1,1,0l.51.48-.54.91Z"/><path class="cls-127" d="M45.13,34.2h-1l-1-.16,1-1.32A1.69,1.69,0,0,1,45.13,34.2Z"/><path class="cls-101" d="M39.42,32.81l.47,1.43c.31.85-.19,1.53-.46,2.26l0,.14A3.62,3.62,0,0,1,39.42,32.81Z"/><path class="cls-130" d="M39.43,36.5a3.27,3.27,0,0,1,.46-2.26l.85,0a3.15,3.15,0,0,0,.09.42C40.13,35.1,40.3,36.2,39.43,36.5Z"/></g></g></svg>