<svg xmlns="http://www.w3.org/2000/svg" viewBox="0 0 74 74"><defs><style>.cls-1{fill:#1e2223;}.cls-2{fill:#211f1d;}.cls-3{fill:#484f36;}.cls-4{fill:#4d553c;}.cls-5{fill:#3c4435;}.cls-6{fill:#111f28;}.cls-7{fill:#2f342d;}.cls-8{fill:#3c3f2d;}.cls-9{fill:#33372a;}.cls-10{fill:#37221e;}.cls-11{fill:#803a28;}.cls-12{fill:#3e4432;}.cls-13{fill:#7e3b1f;}.cls-14{fill:#3f472d;}.cls-15{fill:#373828;}.cls-16{fill:#555340;}.cls-17{fill:#837d60;}.cls-18{fill:#6e6951;}.cls-19{fill:#4b4937;}.cls-20{fill:#3e4136;}.cls-21{fill:#383828;}.cls-22{fill:#3b3f35;}.cls-23{fill:#363a2f;}.cls-24{fill:#6d6951;}.cls-25{fill:#302f24;}.cls-26{fill:#3a3b30;}.cls-27{fill:#b8a370;}.cls-28{fill:#575842;}.cls-29{fill:#6f6a50;}.cls-30{fill:#898167;}.cls-31{fill:#76715a;}.cls-32{fill:#898061;}.cls-33{fill:#605d49;}.cls-34{fill:#69644b;}.cls-35{fill:#3d3c32;}.cls-36{fill:#5b5a3f;}.cls-37{fill:#908769;}.cls-38{fill:#7a745c;}.cls-39{fill:#a99c77;}.cls-40{fill:#635d4a;}.cls-41{fill:#8e8464;}.cls-42{fill:#716c55;}.cls-43{fill:#4e4441;}.cls-44{fill:#6e5865;}.cls-45{fill:#615159;}.cls-46{fill:#594a51;}.cls-47{fill:#49423a;}.cls-48{fill:#5a643a;}.cls-49{fill:#5f6f38;}.cls-50{fill:#727761;}.cls-51{fill:#758253;}.cls-52{fill:#babfac;}.cls-53{fill:#74795f;}.cls-54{fill:#a9ad9e;}.cls-55{fill:#7a835b;}.cls-56{fill:#78894a;}.cls-57{fill:#96a375;}.cls-58{fill:#86985d;}.cls-59{fill:#9cad6d;}.cls-60{fill:#7a8656;}.cls-61{fill:#66704a;}.cls-62{fill:#717e52;}.cls-63{fill:#4c533a;}.cls-64{fill:#616b47;}.cls-65{fill:#72795b;}.cls-66{fill:#98a27c;}.cls-67{fill:#828d64;}.cls-68{fill:#505441;}.cls-69{fill:#a03e22;}.cls-70{fill:#c84a20;}.cls-71{fill:#f8c4c1;}.cls-72{fill:#c94c35;}.cls-73{fill:#f86f69;}.cls-74{fill:#919387;}.cls-75{fill:#dc7b62;}.cls-76{fill:#311e1a;}.cls-77{fill:#8b9669;}.cls-78{fill:#6f794b;}.cls-79{fill:#bb983b;}.cls-80{fill:#606745;}.cls-81{fill:#b2a373;}.cls-82{fill:#dcca99;}.cls-83{fill:#6a654c;}.cls-84{fill:#ab9d70;}.cls-85{fill:#88805f;}.cls-86{fill:#788a46;}.cls-87{fill:#69793d;}.cls-88{fill:#bb9737;}.cls-89{fill:#b5a36e;}.cls-90{fill:#9b8f8e;}.cls-91{fill:#636949;}.cls-92{fill:#82886e;}.cls-93{fill:#a0a198;}.cls-94{fill:#89995f;}.cls-95{fill:#ab9c70;}.cls-96{fill:#847c5f;}.cls-97{fill:#373927;}.cls-98{fill:#434432;}.cls-99{fill:#444533;}.cls-100{fill:#98a861;}.cls-101{fill:#373e1e;}.cls-102{fill:#514e2d;}.cls-103{fill:#4e582d;}.cls-104{fill:#7d7e6e;}.cls-105{fill:#bbc28a;}.cls-106{fill:#919c66;}.cls-107{fill:#a39a77;}.cls-108{fill:#898163;}.cls-109{fill:#8b8365;}.cls-110{fill:#b28824;}.cls-111{fill:#d5d1c7;}.cls-112{fill:#d5bd7f;}.cls-113{fill:#cdba94;}.cls-114{fill:#a88336;}.cls-115{fill:#bf9a43;}.cls-116{fill:#aeab9c;}.cls-117{fill:#d7bf81;}.cls-118{fill:#b2a67d;}.cls-119{fill:#a6a290;}.cls-120{fill:#5b4c55;}.cls-121{fill:#8a8774;}.cls-122{fill:#92772e;}.cls-123{fill:#6b582d;}.cls-124{fill:#8d8979;}.cls-125{fill:#ceb578;}.cls-126{fill:#7a7d6a;}.cls-127{fill:#b1ae9e;}.cls-128{fill:#b8ab80;}.cls-129{fill:#e6ca85;}.cls-130{fill:#eedcac;}.cls-131{fill:#666a4a;}.cls-132{fill:#878f6c;}.cls-133{fill:#43472c;}.cls-134{fill:#828b65;}.cls-135{fill:#606c3f;}.cls-136{fill:#99a282;}.cls-137{fill:#5b4c53;}.cls-138{fill:#957b31;}.cls-139{fill:#6c5b30;}.cls-140{fill:#788e44;}.cls-141{fill:#e2e9cf;}.cls-142{fill:#bfcaa3;}.cls-143{fill:#9eb26a;}.cls-144{fill:#c1d29c;}.cls-145{fill:#b6c492;}.cls-146{fill:#b8c39c;}.cls-147{fill:#8c3715;}.cls-148{fill:#ba6c53;}.cls-149{fill:#72755e;}.cls-150{fill:#838677;}.cls-151{fill:#594844;}.cls-152{fill:#7c874b;}.cls-153{fill:#98a96a;}.cls-154{fill:#6f803e;}.cls-155{fill:#e1bd62;}.cls-156{fill:#e8b73b;}.cls-157{fill:#8b985c;}.cls-158{fill:#a3af80;}.cls-159{fill:#b0c177;}.cls-160{fill:#bbcb8a;}.cls-161{fill:#c8c8c4;}.cls-162{fill:#f0f5e0;}.cls-163{fill:#54602c;}.cls-164{fill:#616c38;}.cls-165{fill:#51502b;}.cls-166{fill:#454f25;}.cls-167{fill:#5e6631;}.cls-168{fill:#4c4432;}.cls-169{fill:#4b4332;}.cls-170{fill:#71763f;}.cls-171{fill:#555745;}.cls-172{fill:#617135;}.cls-173{fill:#545a33;}.cls-174{fill:#b1955a;}.cls-175{fill:#d7d4c9;}.cls-176{fill:#beb297;}.cls-177{fill:#8d7239;}.cls-178{fill:#ae9666;}.cls-179{fill:#9d7f43;}.cls-180{fill:#816835;}.cls-181{fill:#bab29c;}.cls-182{fill:#dfea9f;}.cls-183{fill:#e1ebae;}.cls-184{fill:#a2b470;}.cls-185{fill:#7b601e;}.cls-186{fill:#8b6d25;}.cls-187{fill:#ecd28f;}.cls-188{fill:#cbb782;}.cls-189{fill:#cea333;}.cls-190{fill:#9e7518;}.cls-191{fill:#c0962d;}.cls-192{fill:#725f2a;}.cls-193{fill:#d3af53;}.cls-194{fill:#e1b955;}.cls-195{fill:#cdc09d;}.cls-196{fill:#d1a433;}.cls-197{fill:#9f7d2c;}.cls-198{fill:#c6982b;}.cls-199{fill:#dec99b;}.cls-200{fill:#c69f44;}.cls-201{fill:#d9b04f;}.cls-202{fill:#ebc86b;}.cls-203{fill:#e2b542;}.cls-204{fill:#e0eb98;}.cls-205{fill:#a2b063;}.cls-206{fill:#b8c18f;}.cls-207{fill:#a0812e;}.cls-208{fill:#d0dcb4;}.cls-209{fill:#b5c298;}.cls-210{fill:#a1a399;}.cls-211{fill:#839152;}.cls-212{fill:#7b9046;}.cls-213{fill:#e4edbe;}.cls-214{fill:#d4ddbd;}.cls-215{fill:#909c54;}.cls-216{fill:#866620;}.cls-217{fill:#8e6e26;}.cls-218{fill:#d9e673;}.cls-219{fill:#b38622;}.cls-220{fill:#cdb170;}</style></defs><title>atgm</title><g id="레이어_2" data-name="레이어 2"><g id="레이어_1-2" data-name="레이어 1"><rect class="cls-1" width="74" height="74" rx="8.33" ry="8.33"/><path class="cls-2" d="M30.48,16a11.76,11.76,0,0,1,.11-2.78c.12-.47.2-1,.77-1.21a.53.53,0,0,1,.28.18,2.67,2.67,0,0,1,.22,1.55c0,.48.11.82.67.82s1.11,0,1.66,0c.32,0,.65,0,1,0s.68,0,1,0c1.17,0,2.35,0,3.52,0,.58,0,1.15,0,1.73,0s.74-.28.71-.81,0-.86.49-1l.67.24a8.7,8.7,0,0,1,.23,3,1.26,1.26,0,0,1-1,.4,51.59,51.59,0,0,1-7.25,0H32.4a7,7,0,0,1-1-.05A1,1,0,0,1,30.48,16Z"/><path class="cls-3" d="M34.19,6.92a16.26,16.26,0,0,1,5.07-.18c.52,0,.5.51.59.87l-.11.18a1.22,1.22,0,0,1-.94.27,9.61,9.61,0,0,1-1.78,0c-.58,0-1.16,0-1.75,0a1.84,1.84,0,0,1-1-.16.68.68,0,0,1-.27-.26A.66.66,0,0,1,34.19,6.92Z"/><path class="cls-4" d="M42.63,12.75c0,.49,0,1,0,1.46,0,.71-.31.95-1,.86a1.15,1.15,0,0,1-.4-.93,6.58,6.58,0,0,1,0-1.88,1.22,1.22,0,0,1,.36-1,.74.74,0,0,1,1,.11Z"/><path class="cls-5" d="M31.43,12.32a2.68,2.68,0,0,0-.07-.27c0-.23,0-.47,0-.7s0-.6,0-.9a.74.74,0,0,1,1-.13,1.15,1.15,0,0,1,.32,1,1.24,1.24,0,0,1-.29,1A.73.73,0,0,1,31.43,12.32Z"/><path class="cls-6" d="M42.59,11.38l-.9,0-.19-.11a1.19,1.19,0,0,1,.16-1.74l0,0C43.12,9.57,42.44,10.67,42.59,11.38Z"/><path class="cls-7" d="M32.28,9.49A1.14,1.14,0,0,1,33,8.32c.24-.09.37,0,.49.22a.93.93,0,0,1,0,1,.76.76,0,0,1-.89.25A.64.64,0,0,1,32.28,9.49Z"/><path class="cls-8" d="M33.28,8.58,33,8.32c.09-.24.17-.47.25-.7a.6.6,0,0,1,.88,0l.1.05a.67.67,0,1,1-1,.93Z"/><path class="cls-9" d="M40.76,8.09l0,.48a.76.76,0,0,1-.87.21.75.75,0,0,1-.28-.25.81.81,0,0,1,.15-.89l.11,0C40.23,7.62,40.61,7.62,40.76,8.09Z"/><path class="cls-6" d="M32.33,10.42l-.91,0c-.07-.63.17-1,.86-.95h.07a.63.63,0,0,1,.12.81Z"/><path class="cls-6" d="M34.15,7.6l-.88,0c0-.62.42-.71.92-.7C34.18,7.15,34.17,7.37,34.15,7.6Z"/><path class="cls-10" d="M30.49,18.85v-1a1.05,1.05,0,0,1,.89-.38,5.7,5.7,0,0,1,1-.05c.61,0,1.22,0,1.83,0h1.05a54.82,54.82,0,0,1,7.25,0,1.22,1.22,0,0,1,1,.41l0,1a1.17,1.17,0,0,1-1,.38,24.28,24.28,0,0,1-4.09.1c-1-.15-2.1,0-3.15-.06-.34,0-.68,0-1,0s-.65,0-1,0-.64,0-1,0a5.29,5.29,0,0,1-1,0A1,1,0,0,1,30.49,18.85Z"/><path class="cls-11" d="M42.58,18.88l.92,0c0,.69.07,1.37.1,2.06l0,.69a.77.77,0,0,1,0,1.05.87.87,0,0,1-1.09,0A3.61,3.61,0,0,1,42.58,18.88Z"/><path class="cls-12" d="M43.52,17.87h-1a1.14,1.14,0,0,1,0-1.83h.94C43.52,16.65,43.52,17.26,43.52,17.87Z"/><path class="cls-13" d="M30.49,18.85h.94a3.93,3.93,0,0,1,.05,3.79c-1.13.21-1.28.06-1.05-1,0-.15,0-.3,0-.46C30.43,20.39,30.46,19.62,30.49,18.85Z"/><path class="cls-14" d="M31.44,17.86h-1c0-.6,0-1.21,0-1.82h.94A1.16,1.16,0,0,1,31.44,17.86Z"/><path class="cls-15" d="M43.53,22.53c0-.31,0-.62,0-.92.86.15.94.78.9,1.47s0,1.37,1,1.39a.77.77,0,0,1,.79.92,1.08,1.08,0,0,1-.87.44c-.48,0-.48.38-.48.72,0,.54,0,1.07,0,1.61,0,1,0,1.92,0,2.88,0,1.24.07,1.29,1.31,1.31h.92c.29,0,.58,0,.88,0,.61,0,.62-.43.62-.88s-.12-1,.34-1.4l.15,0c1.28.28.78,1.33.9,2.11-.07,1.44-.24,1.61-1.64,1.63-.69,0-1.39,0-2.09,0a1.66,1.66,0,0,0-1.85,1.87c0,1.63,0,3.26,0,4.89,0,1.87,0,3.73,0,5.6a.77.77,0,0,1-1,.07,1.11,1.11,0,0,1-.22-.4A6,6,0,0,1,43,43.6c0-6.33.12-12.67.09-19a6.71,6.71,0,0,1,0-1.1A1.14,1.14,0,0,1,43.53,22.53Z"/><path class="cls-16" d="M44.49,26.32c0-1.56,1.12-.77,1.8-.93,0,.31,0,.61,0,.92a1,1,0,0,1-.91.34A1,1,0,0,1,44.49,26.32Z"/><path class="cls-17" d="M45.37,26.32h.94l.08.88-.14.16C45.2,27.44,45.1,27.32,45.37,26.32Z"/><path class="cls-18" d="M46.39,27.19c.73-.1.93.33.94.94l-.13.17a.73.73,0,0,1-1-.1.72.72,0,0,1,0-1Z"/><path class="cls-19" d="M47.33,28.13c.67-.05.92.32.93.92a.55.55,0,0,1-.27.27.74.74,0,0,1-.88-.24.76.76,0,0,1,.11-.92A.2.2,0,0,0,47.33,28.13Z"/><path class="cls-20" d="M48.26,29.05c.66,0,.92.34.9,1l-.07,0a.7.7,0,0,1-.85.18A.65.65,0,0,1,48,30a.74.74,0,0,1,.19-.86Z"/><path class="cls-21" d="M30.43,21.61c0,.67.28,1.05,1,.91a1,1,0,0,1,.85-.36,1.33,1.33,0,0,1,1,.16.71.71,0,0,1,.27.3.92.92,0,0,1-.14,1,1.17,1.17,0,0,1-.91.31c-.29,0-.58.05-.87,0-.58-.06-.74.25-.68.76,0,.31,0,.62,0,.93q0,5.36,0,10.7,0,4.34,0,8.65c0,.49.11,1-.3,1.42a.79.79,0,0,1-1.09,0c0-1.16,0-2.33,0-3.5V35.38a1.6,1.6,0,0,0-1.91-1.63,11.92,11.92,0,0,1-2.07,0c-.64,0-1.39-.06-1.56-.9a1.46,1.46,0,0,1,.86-1.89.7.7,0,0,1,.49.8c0,.44.23.61.64.6l.85,0c2.37-.07,2.26.35,2.25-2.32,0-.34,0-.69,0-1,0-.81-.06-1.62,0-2.42,0-.4,0-.79-.59-.78a1,1,0,0,1-.77-.43c-.07-.59.13-1,.79-1,.92.05,1.08-.49,1-1.24S29.5,21.77,30.43,21.61Z"/><path class="cls-22" d="M24.82,30c.13-1.88.13-1.88,1.83-1.88a.42.42,0,0,1,.29.17.78.78,0,0,1,0,.83c-.32.31-.8.45-.92,1a.7.7,0,0,1-.29.19A.76.76,0,0,1,24.9,30Z"/><path class="cls-16" d="M27.71,25.39c.68.16,1.85-.63,1.81.93a.92.92,0,0,1-.8.36,1.41,1.41,0,0,1-.88-.13.53.53,0,0,1-.22-.27Z"/><path class="cls-23" d="M26.75,27.24c-.07-.64.18-1,.87-1l.11,0a.76.76,0,0,1,.16.87.59.59,0,0,1-.27.27A.75.75,0,0,1,26.75,27.24Z"/><path class="cls-24" d="M26.75,27.24l.91,0a.67.67,0,0,1,.09,1,.66.66,0,0,1-1,0l-.13,0C26.68,27.84,26.72,27.54,26.75,27.24Z"/><path class="cls-25" d="M29.54,46.35h.91c.38,0,.76,0,1.14,0s.59,0,.88,0c.58,0,1.16,0,1.74,0h1c2.17-.16,4.35.07,6.52,0a4.55,4.55,0,0,0,1.83-.23h.88l0,1.63c-.24.66.55,1.81-.92,1.86a.57.57,0,0,1-.42-.35c-.58-1.34-.61-1.34-1.49-.25a5.33,5.33,0,0,1-.89.25c-.61.19-.5.71-.5,1.15q0,3.59,0,7.16a5.7,5.7,0,0,1-.18,1.6.7.7,0,0,1-.23.35c-1.06.1-1.4-.13-1.44-1.08-.05-1.12,0-2.24,0-3.36a3.69,3.69,0,0,0-.77-2.59,5.14,5.14,0,0,1-.17-2.58c0-.5.15-1.31-.47-1.31s-.44.81-.47,1.32a8.49,8.49,0,0,1-.19,3.44c-1.12,1.48-.65,3.2-.73,4.84-.06,1.2-.27,1.43-1.42,1.39-.53-.32-.45-.85-.45-1.35,0-2.9,0-5.81,0-8.71,0-.52-.07-1-.72-1s-1.52-1.06-2,.26a.87.87,0,0,1-.54.79c-.61,0-.92-.23-.91-.87s0-1.29,0-1.93C29.53,46.66,29.53,46.51,29.54,46.35Z"/><path class="cls-26" d="M51,65.49l-.05.67c-1.76-.08-2.11-.34-2.12-1.56.19-.49,1-.66.75-1.37V55.59c.18-.67-.36-1-.7-1.38a.8.8,0,0,1,.24-.87c.65.18,1.61-.46,1.87.72,0,2.17,0,4.35,0,6.53Z"/><path class="cls-27" d="M44.5,51.46l.87.06c.37.24.63.61,1,.88h0a.81.81,0,0,1,.13,1,1,1,0,0,1-1,.36,7,7,0,0,1-1,0,1.7,1.7,0,0,1-.94-.19,5.55,5.55,0,0,0-1.19-1.18,1.48,1.48,0,0,1-.16-1,1.1,1.1,0,0,1,.33-1,.8.8,0,0,1,1,.08l0,0C43.86,50.84,44.14,51.2,44.5,51.46Z"/><path class="cls-28" d="M43.55,50.52l-.93,0-.15-.07a.84.84,0,0,1-.29-.75c.09-.49-.53-.63-.53-1.07,0-.82.48-.92,1.14-.89s.74.52.75,1l0,.81C43.57,49.92,43.56,50.22,43.55,50.52Z"/><path class="cls-29" d="M49.14,53.34v.88a.89.89,0,0,0-.08.17.77.77,0,0,1-.92,0,.79.79,0,0,1-.2-.9.64.64,0,0,1,.28-.26Z"/><path class="cls-30" d="M44.5,51.46c-.69.1-1-.2-1-.9C44.23,50.45,44.56,50.74,44.5,51.46Z"/><path class="cls-31" d="M46.35,52.4c-.68.1-1-.17-1-.88C46.05,51.41,46.42,51.66,46.35,52.4Z"/><path class="cls-32" d="M46.36,53.33l0-.92.91,0a.69.69,0,0,1,.07,1A.64.64,0,0,1,46.36,53.33Z"/><path class="cls-33" d="M47.28,53.33l0-.9c.64-.08,1,.17,1,.85l0,.1a.6.6,0,0,1-.8.09Z"/><path class="cls-34" d="M24.9,30h.91a2.27,2.27,0,0,1,0,2.78c-1.58.05-.71-1.21-1-1.86Z"/><path class="cls-35" d="M23,60.35V55c0-1.66.68-2.22,1.89-1.64a.81.81,0,0,1,.22.87c-.33.4-.89.69-.7,1.36,0,2.54,0,5.07,0,7.6,0,.31-.09.71.34.86.66.24.71-.53,1.12-.71a1.69,1.69,0,0,1,.94-.12,1.22,1.22,0,0,1,1,.29,1,1,0,0,1,.19,1c-.65.76-1.23,1.64-2.46,1.5-.27,0-.45.26-.65.42-1.79,0-1.79,0-1.87-1.38S23,61.91,23,60.35Z"/><path class="cls-36" d="M30.44,49.62l0-.92a.75.75,0,0,1,1-.14,1.1,1.1,0,0,1,.35,1,1.46,1.46,0,0,1-.2,1,.75.75,0,0,1-.91.24.48.48,0,0,1-.25-.29Z"/><path class="cls-37" d="M29.51,51.43c-.11-.74.35-.92.95-1l0,.11c.46.79.21,1.14-.68,1.11A.59.59,0,0,1,29.51,51.43Z"/><path class="cls-38" d="M27.64,52.36c-.05-.73.35-.93,1-.85a.68.68,0,0,1-.74,1.13A.53.53,0,0,1,27.64,52.36Z"/><path class="cls-39" d="M28.58,52.4c0-.3,0-.6.05-.89l.88-.08s0,.08,0,.12a.6.6,0,0,1,0,.92A.64.64,0,0,1,28.58,52.4Z"/><path class="cls-40" d="M25.78,53.28c0-.69.35-.92,1-.85a.73.73,0,0,1,.14.9.72.72,0,0,1-.88.24A.46.46,0,0,1,25.78,53.28Z"/><path class="cls-41" d="M26.73,53.29l0-.86.88-.07.06.12a.68.68,0,0,1,.14.88.72.72,0,0,1-.87.21A.51.51,0,0,1,26.73,53.29Z"/><path class="cls-42" d="M24.85,54.22l0-.87.9-.07,0,.1a.67.67,0,0,1-.73,1.12A.47.47,0,0,1,24.85,54.22Z"/><path class="cls-43" d="M44.46,67.34H29.55a.78.78,0,0,1-.24-.88c.49-.31.66-.92,1.15-1.23a1.12,1.12,0,0,1,.93,0,3.19,3.19,0,0,0,4.17,0,1.54,1.54,0,0,1,.56-.14,7.18,7.18,0,0,1,2.17,0c.51.34.77,1,1.6.9s1.41-.09,1.85-.79a2.09,2.09,0,0,1,1.73,0c.55.27.67,1,1.2,1.26A.79.79,0,0,1,44.46,67.34Z"/><path class="cls-44" d="M44.46,67.34v-.93l.07-.17a1.05,1.05,0,0,0,.41-.89c0-.92.51-1.29,1.39-1.2,1-.25,1.49.63,2.1,1.14a3.83,3.83,0,0,1,1,1.11.87.87,0,0,1-.24.93,3.2,3.2,0,0,1-1.8-.28C46.32,66.49,45.44,67.38,44.46,67.34Z"/><path class="cls-45" d="M29.56,66.4c0,.31,0,.62,0,.93-.61,0-.88-.19-1-.83-.15-1.14-.56-1.27-1.51-.53a1.62,1.62,0,0,1-1,.45l-1.19,0c0-.26,0-.73.22-.72,1.07,0,1.61-1,2.58-1.14,1-.82,1.49.2,2.13.67A1,1,0,0,1,29.56,66.4Z"/><path class="cls-46" d="M49.15,67.33v-.92c.62-.72,1.23-.29,1.85,0a1.27,1.27,0,0,1-.23,1Z"/><path class="cls-47" d="M51,66.41H49.14c-1,0-1.29-.89-1.85-1.42a1.4,1.4,0,0,0-1-.44.79.79,0,0,1-.11-1,1.06,1.06,0,0,1,1-.34,1.71,1.71,0,0,1,1,.13c.33.41.81.71,1,1.24a.84.84,0,0,0,.73,1,5.14,5.14,0,0,1,1.1.6A2.11,2.11,0,0,1,51,66.41Z"/><path class="cls-48" d="M42.59,16c0,.61,0,1.22,0,1.83H35.11a1.13,1.13,0,0,1,0-1.81Z"/><path class="cls-49" d="M39.82,15H36.06a.71.71,0,0,1-.06-1,4.68,4.68,0,0,1,3.58-.23,1.21,1.21,0,0,1,.35.24A.73.73,0,0,1,39.82,15Z"/><path class="cls-50" d="M31.43,12.32l.85,0,.18.08a1,1,0,0,1,.29.88,3.85,3.85,0,0,1,0,1,1,1,0,0,1-.39.86c-.76.15-1-.19-1-.92S31.42,12.93,31.43,12.32Z"/><path class="cls-51" d="M39.82,15l0-.88c.62-.72,1.24-.6,1.87,0l0,.92Z"/><path class="cls-52" d="M32.36,15.06l0-.93A1.26,1.26,0,0,1,34.23,14a.71.71,0,0,1,0,1Z"/><path class="cls-53" d="M31.44,17.86l0-1.83.93,0a1,1,0,0,1,.35.9,1,1,0,0,1-.35.9Z"/><path class="cls-54" d="M32.36,16.94v-.89h1.84a.74.74,0,0,1,.06,1A1.3,1.3,0,0,1,32.36,16.94Z"/><path class="cls-55" d="M34.18,16.94v-.89h.93c0,.6,0,1.21,0,1.81H34.2A.65.65,0,0,1,34.18,16.94Z"/><path class="cls-56" d="M36.1,14.19l0,.86h-.94a.68.68,0,0,1,.72-1.13A.62.62,0,0,1,36.1,14.19Z"/><path class="cls-57" d="M35.16,14.19l0,.86h-.93c0-.3,0-.59,0-.89l.1-.14a.6.6,0,0,1,.64-.08A.54.54,0,0,1,35.16,14.19Z"/><path class="cls-58" d="M41.67,14.15H39.8a16,16,0,0,1-1.54-2.75,8.08,8.08,0,0,0-1.49-2.88A.79.79,0,0,1,37,7.64l1.84,0a6.31,6.31,0,0,1,1,.9h0c.31.31.63.61.92.94l0,0c.55.42.47,1,.45,1.58a1.37,1.37,0,0,0,.44,1.25Z"/><path class="cls-59" d="M37,7.64l0,.93a1,1,0,0,0-.11.17A1.27,1.27,0,0,1,36,9a1,1,0,0,1-1-.34.74.74,0,0,1,.16-1Z"/><path class="cls-60" d="M35.16,7.66l0,.86a.52.52,0,0,1-.72.24.54.54,0,0,1-.22-.25c0-.29.06-.57.08-.86Z"/><path class="cls-61" d="M39.79,8.56c-.66.07-1-.25-1-.9l.9,0Z"/><path class="cls-62" d="M41.63,12.31c-.7,0-1-.33-.85-1a.65.65,0,0,1,.91,0h0Z"/><path class="cls-63" d="M41.69,11.34l-.91,0c0-.61,0-1.22,0-1.83h.92Z"/><path class="cls-64" d="M40.72,9.5c-.69.06-1-.26-.92-.94h.93Z"/><path class="cls-65" d="M32.37,11.37l0-.95h0a.7.7,0,0,1,1,0,.79.79,0,0,1,0,1A.7.7,0,0,1,32.37,11.37Z"/><path class="cls-66" d="M32.37,11.37l.87,0a.68.68,0,0,1,.13,1,.65.65,0,0,1-1,0l-.11,0Z"/><path class="cls-67" d="M33.28,8.58l.89-.07.06.09a.7.7,0,0,1,.13.89.74.74,0,0,1-.87.25.59.59,0,0,1-.28-.26Z"/><path class="cls-68" d="M33.25,10.41l-.9,0V9.49h1a.65.65,0,0,1,.08.82Z"/><path class="cls-69" d="M42.58,18.88v3.64a.87.87,0,0,1-.94.49A19,19,0,0,1,39,23a10.64,10.64,0,0,0-3.15-2.2c-.19-1.12,0-1.42,1.09-1.46a2.85,2.85,0,0,0,1.4-.44Z"/><path class="cls-70" d="M38.38,18.86a1.21,1.21,0,0,1-1.32.89c-.65,0-1.05.2-1,.92a.71.71,0,0,1-1,.06,1.29,1.29,0,0,1,.11-1.89Z"/><path class="cls-71" d="M33.25,18.86h1c.66.48.41,1.19.45,1.83s.17,1.35-.34,1.92a.76.76,0,0,1-1,0l0-.05A3.74,3.74,0,0,1,33.25,18.86Z"/><path class="cls-72" d="M32.36,22.51h-.92c0-1.22,0-2.44,0-3.66h.91A3.68,3.68,0,0,1,32.36,22.51Z"/><path class="cls-73" d="M32.36,22.51c0-1.21,0-2.43,0-3.65h.91c0,1.23,0,2.46,0,3.68Z"/><path class="cls-74" d="M34.18,16.94c0,.3,0,.61,0,.92H32.35c0-.3,0-.61,0-.91Z"/><path class="cls-75" d="M34.25,20.7c0-.62,0-1.23,0-1.84l.92,0c0,.62,0,1.23,0,1.85l-.11.13A.58.58,0,0,1,34.25,20.7Z"/><path class="cls-76" d="M38.88,22.51h4.65v1c-.45.59-1.1.44-1.7.45s-1.31,0-2,0C38.93,24,38,24,37,24c-.65,0-1.34.15-1.93-.29a.92.92,0,0,1-.2-1.06.82.82,0,0,1,.32-.32A4.22,4.22,0,0,1,38.88,22.51Z"/><path class="cls-77" d="M43.51,24.45V45.87a1.31,1.31,0,0,1-1.65.34c-.58-.24-.67-.78-.64-1.34a3.24,3.24,0,0,0-.13-1.24c.07-1.83,0-3.68.23-5.51A2.56,2.56,0,0,0,42.15,36c0-3.36,0-6.72,0-10.07a2.09,2.09,0,0,1,.33-1.54A.75.75,0,0,1,43.51,24.45Z"/><path class="cls-78" d="M41.66,43.57v.56c0,1.78,0,1.78,1.84,1.74l.08.25c0,.65-.44.71-.95.71l-7.51,0A1.41,1.41,0,0,1,35,44.84a3.76,3.76,0,0,1,2.77-.32c.27.07.41.33.61.49a1.16,1.16,0,0,0,1.92-.47C40.53,43.93,40.77,43.29,41.66,43.57Z"/><path class="cls-79" d="M47.27,32.79c-2.8.2-2.8.2-2.8-2.53,0-.7,0-1.39,0-2.09a.78.78,0,0,1,1-.14,2,2,0,0,1,.38,1.69c.21.58-.53,1.57.72,1.71a1.14,1.14,0,0,1,.84.41A.76.76,0,0,1,47.27,32.79Z"/><path class="cls-80" d="M43.51,24.45h-.92a1.06,1.06,0,0,1-.9.38,5.05,5.05,0,0,1-1,0,1.06,1.06,0,0,1-1-.33.75.75,0,0,1,.11-1l3.74,0Z"/><path class="cls-81" d="M45.36,28.19l-.87,0V26.32h.88c0,.65.27.95.91.92l.09.88-.12.16A.71.71,0,0,1,45.36,28.19Z"/><path class="cls-82" d="M47.27,32.79l0-.86a1.46,1.46,0,0,1-.13-2,.78.78,0,0,1,1.08.07v0a2.14,2.14,0,0,1,0,2.78Z"/><path class="cls-83" d="M48.17,32.8l0-2.78.9,0c0,.61,0,1.23,0,1.84S48.87,32.89,48.17,32.8Z"/><path class="cls-84" d="M47.22,28.16l.09.91-.15.16c-1,.06-1.13-.05-.87-1l.08-.07Z"/><path class="cls-85" d="M48.18,30l-.9,0a.63.63,0,0,1-.08-.92l.11,0,.86,0C48.17,29.42,48.18,29.73,48.18,30Z"/><path class="cls-86" d="M30.51,36.31v-11a.78.78,0,0,1,1.07-.05c.38.38.29.87.3,1.32v8.57a1.5,1.5,0,0,1-.3,1.19A.76.76,0,0,1,30.51,36.31Z"/><path class="cls-87" d="M30.51,36.31l.85,0c.48.21.51.64.51,1.07,0,2.79.05,5.57,0,8.35a1.21,1.21,0,0,1-.41,1c-.38,0-.82.11-1-.43Z"/><path class="cls-88" d="M29.5,29.05c0,.84,0,1.69.05,2.52.1,1-.37,1.36-1.32,1.27-.49-.05-1,0-1.49-.05a.76.76,0,0,1-.16-.94,1.14,1.14,0,0,1,.82-.42c1.25-.07.56-1.07.77-1.64a1,1,0,0,1,.36-.86A.77.77,0,0,1,29.5,29.05Z"/><path class="cls-89" d="M29.5,29.05l-.87,0c-.46,0-.5-.54-.85-.67a.51.51,0,0,1-.15-.28l0-.91h0a9.05,9.05,0,0,1,1-.9h.89Z"/><path class="cls-82" d="M26.77,31.93l0,.86h-.91l0-2.78v0A.78.78,0,0,1,26.9,30,1.46,1.46,0,0,1,26.77,31.93Z"/><path class="cls-90" d="M33.29,22.59l.86-.07.17.09a.71.71,0,0,1-.84,1.11.57.57,0,0,1-.25-.28Z"/><path class="cls-91" d="M30.5,24.44c-.11-.73.21-1,.93-.91a.65.65,0,1,1-.93.91Z"/><path class="cls-92" d="M31.37,24.37l.06-.84h.92a.67.67,0,0,1-.72,1.13A.51.51,0,0,1,31.37,24.37Z"/><path class="cls-93" d="M32.3,24.36l.05-.84.88-.08.07.1a.69.69,0,0,1,.13.9.74.74,0,0,1-.88.21A.55.55,0,0,1,32.3,24.36Z"/><path class="cls-94" d="M30.5,24.44l.87-.07.05.08a.59.59,0,0,1-.06.92l-.86,0Z"/><path class="cls-95" d="M26.78,28.16l.85,0,.09.07c.42.8.16,1.16-.73,1.13a.63.63,0,0,1-.31-.25Z"/><path class="cls-85" d="M26.73,30l-.91,0c-.1-.68.12-1.05.86-1l.12,0A.62.62,0,0,1,26.73,30Z"/><path class="cls-96" d="M28.63,26.32c0,.68-.3,1-1,.9l.06-.92Z"/><path class="cls-97" d="M29.56,66.4l0-1.15a2,2,0,0,1-.44-1.66,3,3,0,0,1,.31-1.93c.79-.64,1.72-.3,2.59-.38.6-.18,1.49.5,1.76-.61a3.53,3.53,0,0,1,.15-.85.57.57,0,0,1,.33-.41c.7,0,.93-.41.92-1,0-.88,0-1.76,0-2.64a3,3,0,0,1,.92-2.38l.19.1c.68.88.15,1.89.29,2.82.17,1.24,0,2.48.09,3.72,0,.29,0,.74.36.75s.37-.43.38-.73c.05-1.55,0-3.1.11-4.65a5.29,5.29,0,0,1,.17-2.65.7.7,0,0,1,.29-.3,3,3,0,0,1,.92,2.41q0,1.68,0,3.36c0,.68.22,1.13.94,1.23a.59.59,0,0,1,.32.4c.33,1.56.33,1.56,2.26,1.43.74.14,1.57-.18,2.23.41a3,3,0,0,1,.33,2c-.11,1,.34,2-.46,2.81h0c-.71.08-1-.3-.94-1a1.47,1.47,0,0,1-.45-1.53c0-.33,0-.68-.45-.76s-.58.5-.9.71l-.35.14a30.74,30.74,0,0,1-6-.05c-.56-.05-.56-1-1.25-.82-.53,0-1.06,0-1.58,0a.9.9,0,0,0-1,.61c-.9.23-.43,1.33-1.09,1.71C30.52,66.12,30.27,66.49,29.56,66.4Z"/><path class="cls-98" d="M34.21,59.41v.47c-.92.51-1.28.08-1.36-.81,0-.65,0-1.31,0-2a12.19,12.19,0,0,1,0-1.91c0-.91,0-1.82,0-2.72s-.07-1.69,0-2.53c0-.4,0-.81-.58-.8a1,1,0,0,1-.78-.43l-1,0c-.09-.73.28-1,1-1s1.44.43,2.25.4c.63,0,.49.76.49,1.24C34.21,52.72,34.21,56.07,34.21,59.41Z"/><path class="cls-99" d="M39.81,59.18q0-4.63,0-9.29c0-.67,0-1.28,1-1.19a1.17,1.17,0,0,1,.39.95,17.78,17.78,0,0,1,.05,2.73v1.87c0,.61,0,1.23,0,1.85,0,.34,0,.69,0,1A3.52,3.52,0,0,1,41,59,.78.78,0,0,1,39.81,59.18Z"/><path class="cls-100" d="M35.18,45l-.06,1.83H34.2a1.17,1.17,0,0,1-.42-1,46.4,46.4,0,0,1-.05-6.67c0-.76-.27-1.58.38-2.24a1,1,0,0,1,1.15,0,1.57,1.57,0,0,1,.4,1.27c.05,1.81,0,3.61,0,5.42A1.75,1.75,0,0,1,35.18,45Z"/><path class="cls-101" d="M37.94,52.41v.25c-.56.4-.93,1.27-1.86.69h0c0-1.25,0-2.5,0-3.75a1.15,1.15,0,0,1,1.85,0Z"/><path class="cls-102" d="M39.81,59.18l.95-.24a.77.77,0,0,1,.83-.23c.87.73,1.63,1.63,2.84,1.83a.69.69,0,0,1,.26.25.79.79,0,0,1-.08.88l-.16.11-2.34-.05c-.89-.45-1.86-.8-2.28-1.83l0-.49C39.8,59.34,39.81,59.26,39.81,59.18Z"/><path class="cls-103" d="M37.93,49.61H36.08c.1-.77-.48-2,1.1-1.82C38.45,47.92,37.77,49,37.93,49.61Z"/><path class="cls-104" d="M40.76,49.64V48.7l.89-.05c.65,0,1.05.25.93,1a1.39,1.39,0,0,1-1.82,0Z"/><path class="cls-105" d="M34.18,45.86c0,.31,0,.61,0,.92H32.35a.75.75,0,0,1-.2-.92.74.74,0,0,1,.31-.27A1.33,1.33,0,0,1,34.18,45.86Z"/><path class="cls-106" d="M32.3,45.9l.05.88h-.93c0-.31,0-.62,0-.92A.55.55,0,0,1,32.3,45.9Z"/><path class="cls-107" d="M50,55.23l0,8.36a.7.7,0,0,1-1,.09,1.41,1.41,0,0,1-.31-1,63.71,63.71,0,0,1,.1-7.18A1,1,0,0,1,49,55.1.72.72,0,0,1,50,55.23Z"/><path class="cls-108" d="M49.11,63.59H50c.18.75-.21,1-.87,1s-1-.2-1-.92l.1-.16A.64.64,0,0,1,49.11,63.59Z"/><path class="cls-109" d="M50,55.23h-.85a.55.55,0,0,1-.07-.89.76.76,0,0,0,0-.11C49.84,54.21,50.19,54.5,50,55.23Z"/><path class="cls-110" d="M43.56,53.3l.89.06a4.31,4.31,0,0,0,1.14.79,1,1,0,0,1,.16.34,15.63,15.63,0,0,1,.09,3.68,2,2,0,0,0,.84,1.88,1.85,1.85,0,0,1-.11,1.65.92.92,0,0,1-.91.38.83.83,0,0,1-.35-.14c-.3-.36-.44-.84-.83-1.13h0a1.12,1.12,0,0,1-.41-.89C44,59,43.91,58,43.92,57a3.9,3.9,0,0,0-.57-2.66.82.82,0,0,1-.05-.79A.61.61,0,0,1,43.56,53.3Z"/><path class="cls-111" d="M40.76,49.64h.89c.35.27.63.61,1,.9h0c0,.31,0,.61,0,.92a3.77,3.77,0,0,0-.72,1,.79.79,0,0,1-.29.18.73.73,0,0,1-.79-.29Z"/><path class="cls-112" d="M46.36,53.33h.92l0,0a.76.76,0,0,1,.23.88.66.66,0,0,1-.26.29,1.46,1.46,0,0,1-1,.15,1,1,0,0,1-.87-.39v0a.65.65,0,0,1,0-.92Z"/><path class="cls-113" d="M41.67,52.42c-.09-.69.24-1,.91-1,0,.32,0,.63,0,.95l-.12.14A.57.57,0,0,1,41.67,52.42Z"/><path class="cls-114" d="M42.6,52.41c.66-.07,1,.21,1,.89l0,.07a.67.67,0,1,1-.92-.95Z"/><path class="cls-115" d="M45.4,53.35c0,.31,0,.62,0,.92-.69.09-1-.25-1-.91Z"/><path class="cls-116" d="M42.61,50.54c-.69.09-1-.23-1-.9h.93Z"/><path class="cls-117" d="M49.11,54.33c0,.29,0,.59.07.89h-.1a.89.89,0,0,1-.83.39,1.34,1.34,0,0,1-.94-.13.8.8,0,0,1-.27-.28.78.78,0,0,1,.22-.9h0a.7.7,0,0,1,1,0Z"/><path class="cls-118" d="M48.23,54.26l-1,0c0-.31,0-.62,0-.92l.92,0C48.2,53.68,48.21,54,48.23,54.26Z"/><path class="cls-119" d="M24,63.59V55.23A.74.74,0,0,1,25,55.16a1.28,1.28,0,0,1,.3,1.07c0,2.12,0,4.24,0,6.36a1.47,1.47,0,0,1-.3,1.07A.7.7,0,0,1,24,63.59Z"/><path class="cls-120" d="M29.51,63.64v1.61c-.68-.09-1.1-.84-1.86-.71,0-.31,0-.62,0-.93l.12-.18A1.14,1.14,0,0,1,29.51,63.64Z"/><path class="cls-121" d="M24,63.59h.91a.64.64,0,0,1,.76-.18.47.47,0,0,1,.2.26c.06.77-.33.94-1,.9S23.85,64.28,24,63.59Z"/><path class="cls-122" d="M26.73,63.6l-.87.06-.09-.07a.75.75,0,0,1-.16-.9.71.71,0,0,1,.31-.26.8.8,0,0,1,.94.23A.73.73,0,0,1,26.73,63.6Z"/><path class="cls-123" d="M26.73,63.6v-.92l.13-.15a.71.71,0,0,1,.93.15.75.75,0,0,1-.13.94h-.94Z"/><path class="cls-124" d="M24.85,55.2l-.87,0c-.17-.74.18-1,.87-1a.43.43,0,0,1,0,.12A.55.55,0,0,1,24.85,55.2Z"/><path class="cls-125" d="M27.65,53.34l.05-.86.88-.08c.63.06,1-.16,1-.85.61,0,1-.26.93-1l.87-.06.18.08a1,1,0,0,1,.27.9,1.36,1.36,0,0,1-.17.92,3.67,3.67,0,0,0-1.13,1.19,1.43,1.43,0,0,1-.95.17,8.68,8.68,0,0,1-1,0A.85.85,0,0,1,27.65,53.34Z"/><path class="cls-126" d="M31.44,48.72c.66.21,1.88-.71,1.81.92a1,1,0,0,1-.91.34,1,1,0,0,1-.91-.34Z"/><path class="cls-127" d="M31.43,49.64h.92c.27,1,.14,1.18-.92,1l-.08-.07C31.38,50.23,31.4,49.94,31.43,49.64Z"/><path class="cls-128" d="M25.8,54.27l0-.89.91-.09v.11a.67.67,0,0,1,.12.92.72.72,0,0,1-.93.11C25.89,54.37,25.84,54.32,25.8,54.27Z"/><path class="cls-129" d="M26.73,54.28V53.4l.91-.06h1a.79.79,0,0,1,.23.89.83.83,0,0,1-.26.3,1.58,1.58,0,0,1-1,.15A.79.79,0,0,1,26.73,54.28Z"/><path class="cls-130" d="M24.85,55.2l0-.86.9-.07,0,.11c.74.44.41,1.18.49,1.8.16,1.16-.13,2.33,0,3.49-.11,1,.29,2.1-.48,3h0a.58.58,0,0,1-.88,0Z"/><path class="cls-131" d="M35.62,65.52a.61.61,0,0,1,0,.23c-.76,1.38-2.05.4-3.07.65a.84.84,0,0,1-1.15-.88l.09-.18a1.13,1.13,0,0,1,.93-.29,15.1,15.1,0,0,1,1.78,0,3,3,0,0,1,1,.12A.62.62,0,0,1,35.62,65.52Z"/><path class="cls-132" d="M43.51,63.64v1.81l-1.84,0a1.18,1.18,0,0,0-.19-.11,1.17,1.17,0,0,1,.19-1.75h0A1.12,1.12,0,0,1,43.51,63.64Z"/><path class="cls-133" d="M41.68,65.48c0,.5-.12,1-.74.91-.91-.08-2.07.5-2.54-.88a.67.67,0,0,1,.53-.37c1-.2,1.92-.45,2.76.31Z"/><path class="cls-134" d="M38.86,65.47l-.46,0-2.34,0a.79.79,0,0,1,0-1.1,3,3,0,0,1,2.35-.21C39.09,64.27,39.28,64.82,38.86,65.47Z"/><path class="cls-135" d="M30.49,65.46c.15-.69-.54-1.77.87-1.87l.2.11a1.19,1.19,0,0,1-.13,1.75l-.06.07Z"/><path class="cls-136" d="M36.06,64.56v.91l-.44,0-.5-.08a.65.65,0,1,1,.94-.88Z"/><path class="cls-137" d="M44.48,66.42l0-2.79a1.13,1.13,0,0,1,1.71-.2l.12.18v.94c-.71,0-1,.32-.93,1S45.09,66.44,44.48,66.42Z"/><path class="cls-138" d="M48.15,63.66l-.86-.06a.71.71,0,0,1-.16-.92.79.79,0,0,1,.93-.26.75.75,0,0,1,.31.25.72.72,0,0,1-.14.91Z"/><path class="cls-139" d="M47.26,62.68l0,.92h-.95a.73.73,0,0,1-.26-.81.71.71,0,0,1,.21-.3.74.74,0,0,1,.87,0Z"/><path class="cls-140" d="M37,8.57a4.84,4.84,0,0,1,1.82,2.7c.16.38.1.79.55,1.07.71.43.3,1.2.41,1.81l-3.7,0L36,14.12c-.79-.79-.3-1.78-.41-2.68a2,2,0,0,1,.13-1c.87-.32.64-1.39,1.26-1.87Z"/><path class="cls-141" d="M33.24,12.26V10.41l0,0a.76.76,0,0,1,1-.11c.56.57.26,1.29.33,1.95s.2,1.37-.45,1.87h0l-1.82,0v-.89C32.62,12.88,33,12.62,33.24,12.26Z"/><path class="cls-142" d="M33.24,12.26c.09.66-.15,1-.86,1V12.3Z"/><path class="cls-143" d="M36,11.33c0,.93,0,1.86,0,2.79l-.87.06-.07-.07c-.62-.51-.38-1.19-.39-1.83a1.18,1.18,0,0,1,.31-1A.78.78,0,0,1,36,11.33Z"/><path class="cls-144" d="M35.1,12.27c0,.61,0,1.22,0,1.84l-.88,0c0-.61,0-1.23,0-1.85A.59.59,0,0,1,35.1,12.27Z"/><path class="cls-145" d="M36,11.33l-.88,0c-.41-.13-.49-.46-.49-.83a.79.79,0,0,0-.35-.8.65.65,0,0,1-.14-.29l0-.85.88-.08,1,0a1.2,1.2,0,0,1,0,1.87Z"/><path class="cls-58" d="M36.1,10.43c0-.63,0-1.25,0-1.87H37C36.83,9.25,37.51,10.35,36.1,10.43Z"/><path class="cls-146" d="M34.2,10.43h-.9l0-.95.86,0,0,.08A.59.59,0,0,1,34.2,10.43Z"/><path class="cls-147" d="M38.88,22.51l-3.74,0c-.72-.61-.57-1.22,0-1.84h0l.9,0C37.69,20.71,38.4,21.18,38.88,22.51Z"/><path class="cls-148" d="M35.12,20.69c0,.61,0,1.22,0,1.84l0,0a.59.59,0,0,1-.87,0l-.1-.06c0-.61.06-1.21.1-1.82Z"/><path class="cls-149" d="M39.79,23.52l0,.87c-.89.83-1.85.56-2.81.19a.72.72,0,0,1,0-1Z"/><path class="cls-150" d="M37,23.53v.84l-.09.19a1.44,1.44,0,0,1-1.75.09.81.81,0,0,1-.28-.92.68.68,0,0,1,.26-.3Z"/><path class="cls-151" d="M34.25,22.58l.87,0c0,.29,0,.58,0,.87v.11a.65.65,0,0,1-.82.08l-.11-.14Z"/><path class="cls-152" d="M41.66,43.57a1.53,1.53,0,0,0-.92,1.37c0,.92-.56,1-1.23.94s-1.6.31-1.57-.93c-.78-2.77-.53-5.6-.54-8.42A2.18,2.18,0,0,1,37.72,35c.64-.37.94.08,1.15.55a5.8,5.8,0,0,1,.52,2.14c0,.35,0,.7,0,1s-.07,1,.38,1,.36-.59.38-.94c0-1,0-1.94,0-2.91a2.34,2.34,0,0,1,.41-1.32c.37-.52.8-.73,1.34-.2a5.64,5.64,0,0,1-.27,3.84Z"/><path class="cls-153" d="M41.69,38.17l0-4a1.48,1.48,0,0,1-.46-1.36c.06-1.86-.11-3.72.1-5.58a2.79,2.79,0,0,0-.18-1.14c0-.61,0-1.26.56-1.69h.91c0,3.87,0,7.75,0,11.63C42.6,36.9,42.57,37.73,41.69,38.17Z"/><path class="cls-154" d="M37.94,34.92V41.2a4,4,0,0,0,.48,2.46c.4.57.13,1-.48,1.29H35.18c0-2.65,0-5.29-.07-7.94a1.1,1.1,0,0,1-.33-1.2,3.62,3.62,0,0,0,.83-2.69c0-1.36,0-2.71,0-4.07,0-.6.14-1.17.82-1.19a1,1,0,0,1,1,1.15,4.48,4.48,0,0,0,.92,2.69c0,.67.06,1.35.07,2A1.19,1.19,0,0,1,37.94,34.92Z"/><path class="cls-155" d="M47.2,29.1c0,.31,0,.62.08.92,0,.64,0,1.27-.05,1.91l-.88-.05c-.75-.41-.24-1.44-.93-1.88l-.06-1.81h.93C46.3,28.79,46.53,29.17,47.2,29.1Z"/><path class="cls-156" d="M45.42,30c1.43.08.75,1.19.93,1.88C44.81,31.86,45.61,30.69,45.42,30Z"/><path class="cls-157" d="M41.68,24.45l0,1.61a5.6,5.6,0,0,0-.46,2.49c0,1.5,0,3,0,4.52,0,.81-.32,1.5-1.16,1.64s-1.27-.55-1.5-1.3a8.32,8.32,0,0,1-.13-2.54,4.59,4.59,0,0,0-.9-3.14,4,4,0,0,1,.15-2.33c.32-.6.9-.5,1.43-.52s1.19.14,1.61-.42Z"/><path class="cls-158" d="M40.7,24.46c.06.64-.24.9-.86.89s-1.28,0-1.92,0a.72.72,0,0,1-1,.06.67.67,0,0,1,.06-1v-.1l2.81,0Z"/><path class="cls-159" d="M32.3,45.9l-.86,0q0-4.77-.08-9.53c0-1.56.06-3.13.08-4.69a.76.76,0,0,1,1-.07c.48.42.21,1,.37,1.52.06,2.09.08,4.18-.05,6.28.15,1.7.08,3.41.07,5.11a1.69,1.69,0,0,1-.49,1.38Z"/><path class="cls-160" d="M32.31,31.66l-.87,0c0-2.09-.05-4.18-.08-6.27l.06-.92.88-.09.05.09a1.23,1.23,0,0,1,.41,1,32.87,32.87,0,0,1,.1,4.76C32.85,30.76,32.92,31.36,32.31,31.66Z"/><path class="cls-155" d="M26.73,30c0-.3.05-.61.07-.92.68.07.91-.32.92-.91.7-.11.91.28.91.88,0,.31,0,.62-.05.93-.69.44-.18,1.47-.92,1.88l-.89.05C26.76,31.29,26.74,30.66,26.73,30Z"/><path class="cls-156" d="M27.66,31.88c.18-.69-.51-1.81.92-1.88C28.4,30.69,29.2,31.86,27.66,31.88Z"/><path class="cls-161" d="M33.25,24.39l0-.85.91-.06h0a.7.7,0,0,1,0,1A.66.66,0,0,1,33.25,24.39Z"/><path class="cls-162" d="M33.25,24.39l1,0,.17.1a1.14,1.14,0,0,1,.25.92c0,.46.13.93-.23,1.31-.71.42-1.19.08-1.51-.52a2.77,2.77,0,0,0-.54-.87v-.9Z"/><path class="cls-163" d="M37.93,55.46c0,1.74,0,3.49,0,5.23,0,.62-.11,1.05-.87,1.06s-1-.33-1-1.06c0-1.43,0-2.87,0-4.3C36.57,55.84,36.75,54.66,37.93,55.46Z"/><path class="cls-164" d="M36.06,64.56h-.92L35,64.47a.62.62,0,0,1-.09-.74.64.64,0,0,1,.25-.18l6.52.07c0,.61,0,1.22,0,1.83l-2.83,0c.06-.63-.21-.93-.85-.91Z"/><path class="cls-165" d="M33.25,58.92c0,.65.25,1,1,1v.94c-.41.72-1.43.21-1.85.91l-2.8.05-.15-.12a.8.8,0,0,1,0-.9,9,9,0,0,0,3-2A.78.78,0,0,1,33.25,58.92Z"/><path class="cls-166" d="M37.93,55.46c-.83-.1-1.13.83-1.85.93,0-1,0-2,0-3,.66-.14,1.09-.87,1.86-.69Z"/><path class="cls-167" d="M39.83,59.9a3.76,3.76,0,0,1,2.28,1.83h-.45C39.76,61.77,39.76,61.77,39.83,59.9Z"/><path class="cls-168" d="M46.31,62.72l0,.89-1.84,0c0-.62,0-1.23,0-1.85l0-.06a.66.66,0,0,1,.92,0l0,0C45.66,62.11,46.16,62.26,46.31,62.72Z"/><path class="cls-169" d="M27.67,63.62v-.93l.07-.16c.45-.21.49-.8.93-1a.77.77,0,0,1,.85.21l0,.06c0,.62,0,1.24,0,1.86Z"/><path class="cls-170" d="M31.36,63.59c0-.66.37-.93,1-.91s1.2,0,1.81,0a.76.76,0,0,1,.22.9.78.78,0,0,1-.28.29,3.14,3.14,0,0,1-1.77.14,1,1,0,0,1-.89-.37Z"/><path class="cls-171" d="M43.51,63.64l-1.84,0c-.07-.7.28-.93.95-.94S43.59,63,43.51,63.64Z"/><path class="cls-172" d="M32.35,61.73c0-1.48,1.18-.72,1.85-.91C34.2,62.37,33,61.54,32.35,61.73Z"/><path class="cls-173" d="M34.21,63.54c0-.28,0-.56,0-.84.63-.07,1,.17,1,.85l0,.1C34.79,63.88,34.48,63.92,34.21,63.54Z"/><path class="cls-174" d="M33.22,55.2v1.86a.92.92,0,0,1-1,.3c-1.39-.66-1.64-1.45-1-3.13a1,1,0,0,1,1-.26C32.83,54.11,32.76,54.88,33.22,55.2Z"/><path class="cls-175" d="M31.43,50.6c.63,0,1-.29.92-1h.9l0,2.77a.75.75,0,0,1-.83.23c-.47-.27-.55-.87-1-1.18Z"/><path class="cls-176" d="M32.35,52.38l.88,0V55.2c-.68.07-.91-.3-.89-.92A1.25,1.25,0,0,1,32,52.64.65.65,0,0,1,32.35,52.38Z"/><path class="cls-177" d="M32.32,57.09l.9,0,0,1.86-.89,0-.2-.12C31.75,58.22,31.65,57.62,32.32,57.09Z"/><path class="cls-178" d="M42.61,52.42l0,.95a1.26,1.26,0,0,1,.28,1.6c-.25.36-.69.51-.9,1s-.73.62-1.22.19l0-1.86c.68-.43.17-1.45.9-1.85h.94Z"/><path class="cls-179" d="M40.79,56.14c.39,0,.79,0,.86-.53s.47-.63.92-.65c1,1.15.66,2.22-.73,2.49a1.17,1.17,0,0,1-1.07-.38Z"/><path class="cls-180" d="M40.77,57.07l.92,0a1.18,1.18,0,0,1,.15,1.74l-.19.11h-.89C40.76,58.31,40.77,57.69,40.77,57.07Z"/><path class="cls-181" d="M41.67,52.43c-.19.67.55,1.79-.9,1.85,0-.62,0-1.25,0-1.88Z"/><path class="cls-182" d="M32.38,45.86V39.34c.53-.64,1.1-.94,1.8-.23,0,2.25,0,4.5,0,6.75Z"/><path class="cls-183" d="M34.17,39.11l-1.8.23q0-3.15,0-6.3c.84-1,1-1.06,2.1-.46.25,1.5.56,3-.22,4.45Z"/><path class="cls-184" d="M34.24,37l-.08-4.45a1.42,1.42,0,0,1-.45-.91,32.19,32.19,0,0,1,0-4.05,1.08,1.08,0,0,1,.46-.88l.06-1.35a.74.74,0,0,1,1-.17,1.1,1.1,0,0,1,.26.36,4.55,4.55,0,0,1,.19,2.07c-.12,1.86,0,3.72-.06,5.59a6.47,6.47,0,0,1-.44,2.61c0,.39,0,.77,0,1.16Z"/><path class="cls-185" d="M44.45,59.9v.92c-1.55.28-2.22-.56-2.81-1.87l.05-.05c1.09-.72,1.72-.6,2.33.46A5.56,5.56,0,0,0,44.45,59.9Z"/><path class="cls-186" d="M45.41,61.74l-.92,0c0-.3,0-.61,0-.91C45.16,60.74,45.45,61.07,45.41,61.74Z"/><path class="cls-187" d="M48.19,55.22h.89q0,3.72,0,7.44a.58.58,0,0,1-.88,0h0a1.43,1.43,0,0,1-.47-1.13,33.61,33.61,0,0,1,.08-5.31A1.26,1.26,0,0,1,48.19,55.22Z"/><path class="cls-188" d="M48.22,62.68l.88,0c0,.31,0,.63,0,.94h-.88Z"/><path class="cls-189" d="M48.16,56.18c0,2.16,0,4.33,0,6.5h-.9c-.26-.3-.6-.52-.89-.8l0-.14V60.11a6.87,6.87,0,0,1-.16-5,.8.8,0,0,1,1.09.06h0A10.23,10.23,0,0,1,48.16,56.18Z"/><path class="cls-190" d="M44.45,59.9c-.22,0-.58,0-.63-.14-.44-1-1.33-.79-2.12-.86,0-.6,0-1.2,0-1.8,1.54-.2.7-1.38.88-2.14l.06-1.59h.9C44.91,55.39,44.39,57.69,44.45,59.9Z"/><path class="cls-191" d="M46.33,55.22v4.89a1.37,1.37,0,0,1-.94-1.53c0-1.43,0-2.86,0-4.29l.9,0A.61.61,0,0,1,46.33,55.22Z"/><path class="cls-192" d="M46.31,62.72c-.64,0-1-.29-.92-1l1,0h0a.63.63,0,0,1,0,.9Z"/><path class="cls-193" d="M46.33,55.22l0-.91,1,0v.93Z"/><path class="cls-194" d="M48.16,56.18c-.67,0-1-.31-.89-1h.92Z"/><path class="cls-195" d="M24.9,62.65l.88,0c0,.3,0,.61,0,.91H24.9Z"/><path class="cls-196" d="M25.83,62.67v-3c.18-.25.42-.5.4-.81a3,3,0,0,1,.69-2c.34-.44.21-1,.42-1.54a.84.84,0,0,1,.18-.28,2.43,2.43,0,0,0,1.07-.75h0a.81.81,0,0,1,.94-.17,1.18,1.18,0,0,1,0,1.82c-.12.14-.39.23-.39.41a7.45,7.45,0,0,1-1,3c-.27.64-.18,1.41-.89,1.87-.19.13-.14.43-.16.65a1,1,0,0,1-.44.84h-.9Z"/><path class="cls-197" d="M26.73,62.67l0-.9a.68.68,0,0,1,1-.07.7.7,0,0,1,0,1h0Z"/><path class="cls-198" d="M27.68,61.76h-.93a1.09,1.09,0,0,1,.38-1c.16-.11.41-.28.39-.39-.22-1.42,1.19-2.36,1.1-3.73A.86.86,0,0,1,29,55.8a1.51,1.51,0,0,0,.58-1.52.63.63,0,0,1,0-.92l.88,0a.76.76,0,0,1,.9-.13.45.45,0,0,1,.19.31c-.43.65-.38,1.51-.68,2.1-.61,1.17-.56,2.58-1.4,3.62a4.11,4.11,0,0,0-.5,1.41,1.17,1.17,0,0,1-.14.3c-.33.26-.77.36-1,.77Z"/><path class="cls-199" d="M31.42,51.46c.64,0,1,.25.93.92l0,.09a.61.61,0,0,1-.8.08l-.1-.14Z"/><path class="cls-200" d="M31.39,53.36l-.95,0c0-.66.29-1,1-.91h0A.62.62,0,0,1,31.39,53.36Z"/><path class="cls-201" d="M29.56,53.36l0,.92h-.94c0-.3,0-.61,0-.92Z"/><path class="cls-202" d="M25.83,56.17c0-.6,0-1.2,0-1.79l.95-.1h.95a.65.65,0,0,1,0,.92h0a4.33,4.33,0,0,0-.58.82A.76.76,0,0,1,25.83,56.17Z"/><path class="cls-203" d="M27.66,55.21l0-.92.92,0C28.66,55,28.35,55.27,27.66,55.21Z"/><path class="cls-203" d="M25.83,56.17c.38,0,.76-.06.91-.51s.54-.45.92-.45A2.83,2.83,0,0,1,27,57.76c-.27.24-.21.65-.22,1,0,.58-.41.79-.89.91C25.84,58.49,25.84,57.33,25.83,56.17Z"/><path class="cls-204" d="M34.19,65.45H32.36a.75.75,0,0,1-.15-1A1.65,1.65,0,0,1,34,64.23a.88.88,0,0,1,.34.26A.75.75,0,0,1,34.19,65.45Z"/><path class="cls-205" d="M32.37,64.56v.89h-.93c0-.59,0-1.19,0-1.79h.89A.66.66,0,0,1,32.37,64.56Z"/><path class="cls-206" d="M34.19,65.45l0-.91a.64.64,0,0,1,.93,0v0c0,.3,0,.59,0,.89Z"/><path class="cls-207" d="M46.35,62.65l0-.9c.7-.08,1,.25.94.93Z"/><path class="cls-208" d="M34.2,10.43l0-.91c1.55,0,.63,1.23.93,1.85l-.06.9-.88,0C34.21,11.68,34.21,11.05,34.2,10.43Z"/><path class="cls-209" d="M37,24.47v.84c-.57.78-1.19.6-1.83.11l0-.11a.61.61,0,0,1-.21-.73.47.47,0,0,1,.23-.21Z"/><path class="cls-210" d="M34.21,24.41v-.92l.94.05c0,.28,0,.55,0,.83l0,.09a.65.65,0,0,1-.91,0Z"/><path class="cls-211" d="M37.94,27.68a4.4,4.4,0,0,1,.92,3,8,8,0,0,0,.27,2.76c.17.41.27,1,.89.87s.67-.63.68-1.1c0-1.31,0-2.63,0-3.95a9,9,0,0,1,0-1.27,2.62,2.62,0,0,1,.9-2v8.16c-.89.26-.86,1-.9,1.7-.06,1,0,1.94,0,2.91a4.12,4.12,0,0,1-.06.93c-.12.54-.36,1.16-.94,1.21s-.6-.69-.73-1.14c-.3-1.09,0-2.25-.37-3.33a3.88,3.88,0,0,0-.69-1.58c0-1.09,0-2.18,0-3.27a8.11,8.11,0,0,1-.46-3A1,1,0,0,1,37.94,27.68Z"/><path class="cls-212" d="M37.94,27.68c0,1.33,0,2.65,0,4A4.36,4.36,0,0,1,37,29c-.05-.34-.11-.82-.52-.8s-.35.51-.36.83c0,1.47,0,2.94,0,4.41a3,3,0,0,1-.9,2.41V25.42L37,25.31l.93.07C37.93,26.15,37.93,26.92,37.94,27.68Z"/><path class="cls-213" d="M34.17,26.74c0,1.94,0,3.89,0,5.84-.66-.07-1.19.34-1.8.46,0-.46,0-.92,0-1.38,0-2.1,0-4.21,0-6.31.43,0,.82.06.95.58S33.8,26.55,34.17,26.74Z"/><path class="cls-214" d="M34.21,24.42l.91,0c0,.28,0,.57,0,.85l-.9.08C34.22,25.06,34.21,24.74,34.21,24.42Z"/><path class="cls-215" d="M35.15,64.53H34.2a.61.61,0,0,1,0-.89l0-.11.91.11Z"/><path class="cls-216" d="M32.36,59c-.31,1.22-1.19,1.81-2.78,1.87l-.17-.13c-.52-1,.37-1.48.92-2a1.41,1.41,0,0,1,2,.12Z"/><path class="cls-217" d="M29.52,61.72l-.9.08-.15-.12a.67.67,0,0,1,.13-.87h0a.63.63,0,0,1,.9,0l.08.05Z"/><path class="cls-192" d="M27.67,62.68c0-.31,0-.61,0-.92h0a.66.66,0,0,1,.92,0l0,.1C28.65,62.47,28.31,62.74,27.67,62.68Z"/><path class="cls-218" d="M34.19,63.65c0,.3,0,.59,0,.89l-1.83,0c0-.3,0-.61,0-.91Z"/><path class="cls-219" d="M29.5,60.79l-.9,0a2.55,2.55,0,0,1,.66-2.23,1.3,1.3,0,0,0,.27-1.09,1.49,1.49,0,0,1,.53-1.33,1.25,1.25,0,0,0,.4-1.15,1.29,1.29,0,0,1,.92-1.42.48.48,0,0,1,.05.69c-.11,1.07-.14,2.11.89,2.81,0,.59,0,1.19,0,1.79C30.71,59,29.85,59.58,29.5,60.79Z"/><path class="cls-220" d="M31.43,54.28c0-.23,0-.46-.05-.69a.6.6,0,0,0,0-.23c0-.32,0-.63,0-.94l.92,0c0,.6,0,1.21,0,1.81Z"/><path class="cls-219" d="M28.59,61.7l-.92,0c-.05-.67.25-1,.93-.94C28.6,61.11,28.59,61.4,28.59,61.7Z"/></g></g></svg>