<svg xmlns="http://www.w3.org/2000/svg" viewBox="0 0 74 74"><defs><style>.cls-1{fill:#1e2223;}.cls-2{fill:#392e24;}.cls-3{fill:#555c43;}.cls-4{fill:#888e73;}.cls-5{fill:#343d37;}.cls-6{fill:#2e312f;}.cls-7{fill:#a1a77c;}.cls-8{fill:#767e5e;}.cls-9{fill:#343d35;}.cls-10{fill:#2f3731;}.cls-11{fill:#353e38;}.cls-12{fill:#384138;}.cls-13{fill:#535b4c;}.cls-14{fill:#535b4e;}.cls-15{fill:#4c5345;}.cls-16{fill:#363b32;}.cls-17{fill:#6f765b;}.cls-18{fill:#4e5548;}.cls-19{fill:#29322f;}.cls-20{fill:#666a58;}.cls-21{fill:#6d7359;}.cls-22{fill:#464d3f;}.cls-23{fill:#798063;}.cls-24{fill:#aab386;}.cls-25{fill:#464f42;}.cls-26{fill:#414839;}.cls-27{fill:#5e5e49;}.cls-28{fill:#80876e;}.cls-29{fill:#5f614c;}.cls-30{fill:#394237;}.cls-31{fill:#5e6652;}.cls-32{fill:#414539;}.cls-33{fill:#979d7c;}.cls-34{fill:#293431;}.cls-35{fill:#697154;}.cls-36{fill:#687056;}.cls-37{fill:#3e463a;}.cls-38{fill:#333831;}.cls-39{fill:#7b7e62;}.cls-40{fill:#5a6150;}.cls-41{fill:#414436;}.cls-42{fill:#2c3133;}.cls-43{fill:#182c35;}.cls-44{fill:#869352;}.cls-45{fill:#605730;}.cls-46{fill:#424e38;}.cls-47{fill:#0f1b23;}.cls-48{fill:#384336;}.cls-49{fill:#6d7548;}.cls-50{fill:#3d4936;}.cls-51{fill:#7c864f;}.cls-52{fill:#29342a;}.cls-53{fill:#313d32;}.cls-54{fill:#414d38;}.cls-55{fill:#8b9656;}.cls-56{fill:#3a4531;}.cls-57{fill:#323f33;}.cls-58{fill:#5a6341;}.cls-59{fill:#3a4735;}.cls-60{fill:#6e7a48;}.cls-61{fill:#5c673d;}.cls-62{fill:#49553e;}.cls-63{fill:#2d271b;}.cls-64{fill:#121c1d;}.cls-65{fill:#101719;}.cls-66{fill:#dabb6e;}.cls-67{fill:#828e59;}.cls-68{fill:#b2bc70;}.cls-69{fill:#3f4c3e;}.cls-70{fill:#3b4538;}.cls-71{fill:#a6a870;}.cls-72{fill:#876d44;}.cls-73{fill:#636b51;}.cls-74{fill:#7d8255;}.cls-75{fill:#999d6c;}.cls-76{fill:#7d804a;}.cls-77{fill:#414c38;}.cls-78{fill:#475441;}.cls-79{fill:#6a774a;}.cls-80{fill:#656b3a;}.cls-81{fill:#46523b;}.cls-82{fill:#6a6944;}.cls-83{fill:#414a3a;}.cls-84{fill:#5d6748;}.cls-85{fill:#463826;}.cls-86{fill:#725b36;}.cls-87{fill:#968d55;}.cls-88{fill:#685e3a;}.cls-89{fill:#9b9959;}.cls-90{fill:#c4b66e;}.cls-91{fill:#787247;}.cls-92{fill:#5a3e28;}.cls-93{fill:#747045;}.cls-94{fill:#f8f092;}.cls-95{fill:#b4bb74;}.cls-96{fill:#ced589;}.cls-97{fill:#f9faa7;}.cls-98{fill:#ced69c;}.cls-99{fill:#a2aa7f;}.cls-100{fill:#686f53;}.cls-101{fill:#d2daa3;}.cls-102{fill:#999f80;}.cls-103{fill:#ede893;}.cls-104{fill:#a7ac79;}.cls-105{fill:#c9d08b;}.cls-106{fill:#646c50;}.cls-107{fill:#93996c;}.cls-108{fill:#bec38f;}.cls-109{fill:#808563;}.cls-110{fill:#686e50;}.cls-111{fill:#c9d196;}.cls-112{fill:#7f8663;}.cls-113{fill:#7e8363;}.cls-114{fill:#b9c08e;}.cls-115{fill:#a4aa80;}.cls-116{fill:#9ba27a;}.cls-117{fill:#b1b887;}.cls-118{fill:#9ba070;}.cls-119{fill:#d3da9a;}.cls-120{fill:#8f906c;}.cls-121{fill:#c9d08e;}.cls-122{fill:#d0d895;}.cls-123{fill:#9fa476;}.cls-124{fill:#f4f2a5;}.cls-125{fill:#898e68;}.cls-126{fill:#b7be88;}.cls-127{fill:#c9ce92;}.cls-128{fill:#c6cd8e;}.cls-129{fill:#bbc188;}.cls-130{fill:#d8dea7;}.cls-131{fill:#131b1d;}.cls-132{fill:#877636;}.cls-133{fill:#5f512c;}.cls-134{fill:#6c5b2c;}.cls-135{fill:#443524;}.cls-136{fill:#bd8836;}.cls-137{fill:#6e4728;}.cls-138{fill:#8e7137;}.cls-139{fill:#423b24;}.cls-140{fill:#67572d;}.cls-141{fill:#434125;}.cls-142{fill:#3b3724;}.cls-143{fill:#4f4b2b;}.cls-144{fill:#947d3d;}.cls-145{fill:#4e4724;}.cls-146{fill:#5f522a;}.cls-147{fill:#7a6c34;}.cls-148{fill:#504627;}.cls-149{fill:#edd75f;}.cls-150{fill:#c4963f;}.cls-151{fill:#e5ae47;}.cls-152{fill:#afa04b;}.cls-153{fill:#7f8651;}.cls-154{fill:#c8d06c;}.cls-155{fill:#828a4f;}.cls-156{fill:#6c774e;}.cls-157{fill:#9aa45b;}.cls-158{fill:#dfd46c;}.cls-159{fill:#a8ab60;}.cls-160{fill:#9fa557;}.cls-161{fill:#c0cc65;}.cls-162{fill:#cdca62;}.cls-163{fill:#8f9453;}.cls-164{fill:#bdc361;}.cls-165{fill:#8f9a55;}.cls-166{fill:#eaec6e;}.cls-167{fill:#888b4b;}.cls-168{fill:#eddf66;}.cls-169{fill:#362b1e;}.cls-170{fill:#d2a74b;}.cls-171{fill:#6f6735;}.cls-172{fill:#7f5730;}.cls-173{fill:#534423;}.cls-174{fill:#8f753d;}.cls-175{fill:#7c7438;}.cls-176{fill:#4c3b25;}.cls-177{fill:#534424;}.cls-178{fill:#5c542f;}.cls-179{fill:#997d3d;}.cls-180{fill:#564827;}.cls-181{fill:#7f6c2f;}.cls-182{fill:#534523;}.cls-183{fill:#524222;}.cls-184{fill:#483d20;}.cls-185{fill:#5c4c24;}.cls-186{fill:#8e7e3d;}.cls-187{fill:#514026;}.cls-188{fill:#64582e;}.cls-189{fill:#756934;}.cls-190{fill:#c59942;}.cls-191{fill:#7f672c;}.cls-192{fill:#5e4c26;}.cls-193{fill:#4e482a;}.cls-194{fill:#6a6031;}.cls-195{fill:#14252f;}.cls-196{fill:#908b40;}.cls-197{fill:#4f5532;}.cls-198{fill:#485031;}.cls-199{fill:#474e34;}.cls-200{fill:#464730;}.cls-201{fill:#42492b;}.cls-202{fill:#84682f;}.cls-203{fill:#7b7738;}.cls-204{fill:#403b20;}.cls-205{fill:#423b23;}.cls-206{fill:#38341e;}.cls-207{fill:#856a32;}.cls-208{fill:#554926;}.cls-209{fill:#9e8940;}.cls-210{fill:#3f3c23;}.cls-211{fill:#89803d;}.cls-212{fill:#4e532f;}.cls-213{fill:#3b3a23;}.cls-214{fill:#a89950;}.cls-215{fill:#2a2c1e;}.cls-216{fill:#9e8945;}.cls-217{fill:#cda74e;}.cls-218{fill:#716939;}.cls-219{fill:#51512d;}.cls-220{fill:#878041;}.cls-221{fill:#4d4e28;}.cls-222{fill:#4c4d2d;}.cls-223{fill:#2a2e20;}.cls-224{fill:#4a4426;}.cls-225{fill:#2e321e;}.cls-226{fill:#bf804f;}.cls-227{fill:#e8d781;}.cls-228{fill:#d69e5a;}.cls-229{fill:#f8cb6e;}.cls-230{fill:#f2d56e;}.cls-231{fill:#cac46f;}.cls-232{fill:#ecd572;}.cls-233{fill:#d0ad60;}.cls-234{fill:#bec376;}.cls-235{fill:#757d50;}.cls-236{fill:#d3904f;}.cls-237{fill:#ad8550;}.cls-238{fill:#bdaf5c;}.cls-239{fill:#9a9c5d;}.cls-240{fill:#f6f17b;}.cls-241{fill:#998b4f;}.cls-242{fill:#96783c;}.cls-243{fill:#6c532f;}.cls-244{fill:#68522e;}.cls-245{fill:#655b38;}.cls-246{fill:#938c51;}.cls-247{fill:#747744;}.cls-248{fill:#c4b264;}.cls-249{fill:#a88d46;}.cls-250{fill:#e4d57e;}.cls-251{fill:#b8a963;}.cls-252{fill:#c7c171;}.cls-253{fill:#eae08a;}.cls-254{fill:#dce4a5;}.cls-255{fill:#e3d37f;}.cls-256{fill:#e5ca7f;}.cls-257{fill:#e4d381;}.cls-258{fill:#e0bc7a;}.cls-259{fill:#c78f36;}.cls-260{fill:#3f3821;}.cls-261{fill:#6a582b;}.cls-262{fill:#3a3721;}.cls-263{fill:#947031;}.cls-264{fill:#7b642f;}.cls-265{fill:#623e25;}.cls-266{fill:#9f6d2e;}.cls-267{fill:#3c2f20;}.cls-268{fill:#967332;}.cls-269{fill:#393021;}.cls-270{fill:#3d2f1f;}.cls-271{fill:#c2913d;}.cls-272{fill:#a56f37;}.cls-273{fill:#a7702f;}.cls-274{fill:#a56f2f;}.cls-275{fill:#84512d;}.cls-276{fill:#955f31;}.cls-277{fill:#d59c42;}.cls-278{fill:#dba245;}.cls-279{fill:#9a6831;}.cls-280{fill:#936632;}.cls-281{fill:#96622e;}.cls-282{fill:#9c682d;}.cls-283{fill:#784d26;}.cls-284{fill:#907837;}.cls-285{fill:#482318;}.cls-286{fill:#5e311d;}.cls-287{fill:#826731;}.cls-288{fill:#facc54;}.cls-289{fill:#cca74e;}.cls-290{fill:#f5dc67;}.cls-291{fill:#f9ee73;}.cls-292{fill:#c7cb6f;}.cls-293{fill:#ecc158;}.cls-294{fill:#be9c52;}.cls-295{fill:#66542b;}.cls-296{fill:#75532c;}.cls-297{fill:#a37e45;}.cls-298{fill:#584427;}.cls-299{fill:#7a6d3f;}.cls-300{fill:#4f4023;}.cls-301{fill:#7f6b30;}.cls-302{fill:#524027;}.cls-303{fill:#7c5130;}.cls-304{fill:#67683a;}.cls-305{fill:#8d8a4f;}.cls-306{fill:#7f6d3c;}.cls-307{fill:#5d5935;}.cls-308{fill:#deb04f;}.cls-309{fill:#dfb254;}.cls-310{fill:#94803e;}.cls-311{fill:#6a3524;}.cls-312{fill:#936536;}.cls-313{fill:#a27437;}.cls-314{fill:#82672b;}.cls-315{fill:#8c6e30;}.cls-316{fill:#957532;}.cls-317{fill:#977534;}.cls-318{fill:#a68036;}.cls-319{fill:#bcaa49;}.cls-320{fill:#8a6d2e;}.cls-321{fill:#e9bb57;}.cls-322{fill:#ba9f4c;}.cls-323{fill:#c69239;}.cls-324{fill:#a88035;}.cls-325{fill:#947533;}.cls-326{fill:#8a7736;}.cls-327{fill:#dda541;}.cls-328{fill:#d1af57;}.cls-329{fill:#8c8542;}.cls-330{fill:#debe62;}.cls-331{fill:#aba551;}.cls-332{fill:#656836;}.cls-333{fill:#e2be5c;}.cls-334{fill:#a1974b;}.cls-335{fill:#716a38;}.cls-336{fill:#ecc561;}.cls-337{fill:#b9734b;}.cls-338{fill:#ae6742;}.cls-339{fill:#b36f40;}.cls-340{fill:#a1563a;}.cls-341{fill:#905932;}.cls-342{fill:#b27c41;}.cls-343{fill:#dac36a;}.cls-344{fill:#c87d55;}.cls-345{fill:#d89464;}.cls-346{fill:#dbb26e;}.cls-347{fill:#d0ab65;}.cls-348{fill:#e1c177;}.cls-349{fill:#d9c16b;}.cls-350{fill:#ca8959;}.cls-351{fill:#d7a267;}.cls-352{fill:#e0a46d;}.cls-353{fill:#d6bc6d;}.cls-354{fill:#dcbd76;}.cls-355{fill:#d1a364;}.cls-356{fill:#d1af66;}.cls-357{fill:#ba812e;}.cls-358{fill:#daa142;}.cls-359{fill:#846c2f;}.cls-360{fill:#825225;}.cls-361{fill:#835029;}.cls-362{fill:#703825;}.cls-363{fill:#81442c;}.cls-364{fill:#c09346;}.cls-365{fill:#623221;}.cls-366{fill:#764525;}.cls-367{fill:#5d351f;}.cls-368{fill:#663d1e;}.cls-369{fill:#714725;}.cls-370{fill:#905f2b;}.cls-371{fill:#5e371f;}.cls-372{fill:#673b20;}.cls-373{fill:#814f26;}.cls-374{fill:#a16d3a;}.cls-375{fill:#935e36;}.cls-376{fill:#9a643b;}.cls-377{fill:#ac7c45;}.cls-378{fill:#9a7b39;}.cls-379{fill:#a17f38;}.cls-380{fill:#aa9954;}.cls-381{fill:#8b5e32;}.cls-382{fill:#773e28;}.cls-383{fill:#9f723a;}.cls-384{fill:#bc8937;}.cls-385{fill:#c99f48;}.cls-386{fill:#ad7d38;}.cls-387{fill:#944e34;}.cls-388{fill:#a77540;}.cls-389{fill:#bd974b;}.cls-390{fill:#ac7e43;}.cls-391{fill:#bf8f51;}.cls-392{fill:#a87041;}.cls-393{fill:#c0994d;}.cls-394{fill:#ba8b4c;}.cls-395{fill:#b88d4d;}.cls-396{fill:#b78d4b;}.cls-397{fill:#996539;}.cls-398{fill:#b68b49;}.cls-399{fill:#a3703d;}.cls-400{fill:#e1d07d;}.cls-401{fill:#bb7b4c;}.cls-402{fill:#cd975f;}.cls-403{fill:#c49956;}.cls-404{fill:#bd9450;}.cls-405{fill:#c49d54;}.cls-406{fill:#cea15f;}.cls-407{fill:#ba8c50;}.cls-408{fill:#815728;}.cls-409{fill:#955a28;}.cls-410{fill:#95632e;}.cls-411{fill:#b88a40;}.cls-412{fill:#9d6434;}.cls-413{fill:#936130;}.cls-414{fill:#8e592e;}.cls-415{fill:#8f5c30;}.cls-416{fill:#9c6338;}.cls-417{fill:#93622f;}.cls-418{fill:#95642e;}.cls-419{fill:#8b5a2b;}.cls-420{fill:#86452f;}.cls-421{fill:#8e5833;}.cls-422{fill:#86462d;}.cls-423{fill:#9b5939;}.cls-424{fill:#a66b41;}</style></defs><title>백업_1</title><g id="레이어_2" data-name="레이어 2"><g id="레이어_1-2" data-name="레이어 1"><rect class="cls-1" width="74" height="74" rx="8.33" ry="8.33"/><path class="cls-2" d="M50.74,21.86l0,.86-.05.15c-.29.46-.92.24-1.29.68a3.37,3.37,0,0,0-1.06,2c-.42.26-.86.49-.74,1.1a1.16,1.16,0,0,1-.48.79c-.83.25-1.23-.08-1.28-.91,0-.34,0-.67,0-1a2,2,0,0,1,.13-.88c.17-.42.87-.51.73-1.13,0-.28,0-.55,0-.83a1.4,1.4,0,0,1,.21-.82,4.83,4.83,0,0,0,1.12-1.09.71.71,0,0,1,.84.19C49,22.23,50,21.76,50.74,21.86Z"/><path class="cls-3" d="M48.94,20.94l-.8,0L48,20.92a1,1,0,0,1-.3-.87,11.49,11.49,0,0,1,0-1.66,1.77,1.77,0,0,1,.18-.93.75.75,0,0,1,.27-.26.72.72,0,0,1,.86.24Z"/><path class="cls-4" d="M23.24,7.68l2.61,0a.65.65,0,0,1,.11.94A1.32,1.32,0,0,1,25,9a2.31,2.31,0,0,1-1.84-.33A.69.69,0,0,1,23.24,7.68Z"/><path class="cls-5" d="M28.54,8.56c.71.06,1.66-.39,1.84.84l-.1.17a1.08,1.08,0,0,1-.92.27,1.1,1.1,0,0,1-.93-.34A.7.7,0,0,1,28.54,8.56Z"/><path class="cls-6" d="M30.38,9.4C31,9.58,32,9,32.1,10.26l-.08.18a1,1,0,0,1-.91.29,1,1,0,0,1-.94-.31.76.76,0,0,1,.12-1Z"/><path class="cls-7" d="M21.41,10.3l.07-.84a.69.69,0,0,1,1-.06,1.55,1.55,0,0,1,0,1.9.83.83,0,0,1-1.06,0A.72.72,0,0,1,21.41,10.3Z"/><path class="cls-8" d="M42.77,14.69l1.73.09a.68.68,0,0,1,.14.94,1.13,1.13,0,0,1-.94.35,1.43,1.43,0,0,1-1-.17A.8.8,0,0,1,42.5,15,.66.66,0,0,1,42.77,14.69Z"/><path class="cls-9" d="M44.55,15.63l0-.85c.71.07,1.66-.42,1.83.83l-.07.16a.91.91,0,0,1-.81.28.93.93,0,0,1-.83-.25Z"/><path class="cls-10" d="M19.67,13c.1-.68-.39-1.63.83-1.8a.55.55,0,0,1,.3.2,1.35,1.35,0,0,1,.17.88,1,1,0,0,1-.37.87A.73.73,0,0,1,19.67,13Z"/><path class="cls-11" d="M16.06,21c.2-.65-.34-1.65.88-1.79a.58.58,0,0,1,.3.18,1.27,1.27,0,0,1,.19.85,1.36,1.36,0,0,1-.25.87.77.77,0,0,1-.87.16A.51.51,0,0,1,16.06,21Z"/><path class="cls-12" d="M37.43,12.1c.68.1,1.64-.41,1.81.82a.47.47,0,0,1-.16.29,1.11,1.11,0,0,1-.81.19,1.51,1.51,0,0,1-.86-.18.92.92,0,0,1-.24-.28A.76.76,0,0,1,37.43,12.1Z"/><path class="cls-13" d="M25.89,8.54l0-.84c.62-.11,1,0,.94.77a.41.41,0,0,1-.13.27.54.54,0,0,1-.7-.07Z"/><path class="cls-14" d="M23.24,7.68l0,.86-.07.14a.56.56,0,0,1-.72.07.43.43,0,0,1-.15-.26C22.27,7.84,22.6,7.57,23.24,7.68Z"/><path class="cls-15" d="M22.35,9.44l-.87,0c-.1-.62.13-1,.8-1l.09.08a.58.58,0,0,1,.11.76Z"/><path class="cls-16" d="M33,10.33c.6-.05.94.18.91.82l-.11.17a.67.67,0,0,1-.91-.07A.7.7,0,0,1,33,10.33Z"/><path class="cls-17" d="M15.16,23.65l.1-.89a.67.67,0,0,1,1-.06.76.76,0,0,1,0,1,.66.66,0,0,1-1-.06l0,0Z"/><path class="cls-18" d="M16.12,22.75h-.86v-.88A.68.68,0,0,1,16,21.6a.61.61,0,0,1,.29.21.69.69,0,0,1-.05.84Z"/><path class="cls-19" d="M16.06,21.85l-.81,0a.74.74,0,0,1,.81-.93l.09,0A.55.55,0,0,1,16.06,21.85Z"/><path class="cls-20" d="M33,10.33l0,.84a.62.62,0,1,1-.91-.81v-.1Z"/><path class="cls-21" d="M18.73,15.64l.08-.87a.67.67,0,0,1,.92-.11.75.75,0,0,1,.16.94.72.72,0,0,1-.88.3A.59.59,0,0,1,18.73,15.64Z"/><path class="cls-22" d="M41.85,13.89c.61-.08,1,.13.92.8v.11a.71.71,0,0,1-.95,0A.67.67,0,0,1,41.85,13.89Z"/><path class="cls-23" d="M41.85,13.89l0,.82-.08.16A.67.67,0,0,1,41,15a.69.69,0,0,1-.25-.26A.72.72,0,0,1,41,13.9Z"/><path class="cls-24" d="M41,13.9l0,.85a.67.67,0,0,1-.88.21.71.71,0,0,1-.28-.86.7.7,0,0,1,.26-.28Z"/><path class="cls-25" d="M19.66,14.75l-.85,0c-.08-.6.12-1,.79-.93a.38.38,0,0,1,.26.13.54.54,0,0,1-.06.71Z"/><path class="cls-26" d="M39.24,12.92c.58,0,.92.27.85.9v.1a.74.74,0,0,1-1,0,.66.66,0,0,1,0-.94Z"/><path class="cls-27" d="M19.67,13h.83l.17.11a.66.66,0,0,1-.06.9.66.66,0,0,1-.9-.1l-.11-.05Z"/><path class="cls-28" d="M33.88,11.15l.87.09a.64.64,0,0,1,.06.94.75.75,0,0,1-1,0,.64.64,0,0,1,.05-1Z"/><path class="cls-29" d="M37.43,12.1V13a.65.65,0,0,1-.88.21.69.69,0,0,1-.27-.87.61.61,0,0,1,.27-.28Z"/><path class="cls-30" d="M35.63,11.23c.59-.06,1,.13.93.79a.5.5,0,0,0,0,.12.68.68,0,0,1-.94,0A.65.65,0,0,1,35.63,11.23Z"/><path class="cls-31" d="M35.63,11.23l0,.81-.06.15a.54.54,0,0,1-.74,0l-.09-.13,0-.85Z"/><path class="cls-32" d="M16.94,19.16c0-.56.27-.91.9-.85l.17.11a.63.63,0,1,1-1,.8Z"/><path class="cls-33" d="M17.84,18.31l.08-.87a.67.67,0,0,1,.95-.07.75.75,0,0,1,0,1,.64.64,0,0,1-.95,0Z"/><path class="cls-34" d="M49,17.44l-.81,0c-.35-.26-.29-.56-.07-.86C48.72,16.5,49,16.8,49,17.44Z"/><path class="cls-35" d="M48.08,16.54l.07.86-.1,0a.7.7,0,0,1-.78.26.71.71,0,0,1-.28-.21.82.82,0,0,1,0-.83.56.56,0,0,1,.27-.21Z"/><path class="cls-36" d="M18.78,17.42l-.86,0v-.89a.71.71,0,0,1,.79-.28.58.58,0,0,1,.28.21.68.68,0,0,1-.05.84Z"/><path class="cls-37" d="M46.33,15.61c.55,0,.94.19.89.84a.27.27,0,0,0,0,.12.76.76,0,0,1-.84.21.78.78,0,0,1-.26-.25.69.69,0,0,1,.19-.84Z"/><path class="cls-38" d="M18.73,16.52l-.82,0c-.05-.59.17-.94.82-.91h.1C19,16,19.08,16.26,18.73,16.52Z"/><path class="cls-39" d="M26.79,8.47l.86.09a.67.67,0,0,1,.06,1,.73.73,0,0,1-1,0,.64.64,0,0,1,0-.95A.5.5,0,0,0,26.79,8.47Z"/><path class="cls-40" d="M27.67,9.4l0-.84h.89v.81l-.06.15a.53.53,0,0,1-.74,0Z"/><path class="cls-41" d="M21.41,10.3l.05.91-.11.13a.56.56,0,0,1-.75-.11l-.1-.05C20.53,10.61,20.77,10.25,21.41,10.3Z"/><path class="cls-42" d="M53.2,59.16a.69.69,0,0,0-.6.42c-.87,2.36-2.53,4.19-4.07,6.1-.53.66-3.34.91-4.2.38a33.94,33.94,0,0,0-3.09-1.65.9.9,0,0,1-.49-.8.52.52,0,0,1,.33-.33,2.47,2.47,0,0,1,2.37.4,13.56,13.56,0,0,0,2,1,1.57,1.57,0,0,0,2.24-1.15,1.14,1.14,0,0,1,.13-.81,3.79,3.79,0,0,0,1.06-1.09,1.47,1.47,0,0,1,.79-.24c.78-.1,1-.86,1.41-1.33a9.28,9.28,0,0,0,1.09-1.61c.3-.55.75-.93,1.39-.36C53.77,58.56,53.38,58.82,53.2,59.16Z"/><path class="cls-42" d="M41.22,63.59l-.47,0c-1.24.3-2-.71-2.88-1.22-1.17-.7-2.41-1.35-3.57-2.07a5.86,5.86,0,0,0-2.86-1.17.87.87,0,0,0-.54-.84.86.86,0,0,1-.58-.92A.74.74,0,0,1,31.43,57c1.26.92,2.85,1.27,4,2.36.46.43,1.11.37,1.67.72a14.28,14.28,0,0,0,2.24,1.4c.51.28.87.76,1.52.88S41.58,63.05,41.22,63.59Z"/><path class="cls-43" d="M53.2,59.16l.21-1.11c-.41-.26-.59-.69-.3-1,.84-1,1.29-2.19,2.09-3.19a1.42,1.42,0,0,0,.46-1,.82.82,0,0,1,.17-.5,2.34,2.34,0,0,0,.8-.85.73.73,0,0,1,1.23-.34c.56.49.1.88-.17,1.21-1.19,1.46-1.9,3.26-3.26,4.59-.09.09-.08.28-.12.42A2,2,0,0,1,53.2,59.16Z"/><path class="cls-42" d="M57.86,51.17c-.84.12-1,1.22-1.79,1.33-.68-.57-.38-1.32-.34-2s.86-.6,1-1.15c.36-.28.81-.48,1-1,.78-.28.53-1.06.75-1.61a.79.79,0,0,1,.19-.25c.78-.25.43-1,.7-1.51a.94.94,0,0,1,.18-.25.73.73,0,0,0,.53-.83,1.44,1.44,0,0,1,.15-.79c.25-.33.86-.27.91-.82a.91.91,0,0,1,.2-.24c.45-.09.64-.44.82-.81.36-.19.68-.42.6-.9a1.69,1.69,0,0,1,.12-.77c.28-.32.89-.38.77-1a1.67,1.67,0,0,1,.22-.75c.32-.32.83-.46,1-1,.44-.15.62-.69,1.11-.76.93.31,1.13.9.51,1.73a5,5,0,0,0-1,1.82,28.15,28.15,0,0,0-3,4.45c-.81,1.32-1.68,2.65-2.63,3.9-.1.13-.07.36-.1.53,0,.87-.75,1.2-1.24,1.69A1.29,1.29,0,0,0,57.86,51.17Z"/><path class="cls-44" d="M66.71,32.55v1.73a.68.68,0,0,1-1,0,1.5,1.5,0,0,1,0-1.84A.69.69,0,0,1,66.71,32.55Z"/><path class="cls-45" d="M65.9,36.07c-.07.54-.31.91-.91.94l-.17-.09a1.06,1.06,0,0,1-.28-.9,1.17,1.17,0,0,1,.21-.94.8.8,0,0,1,.92-.12.51.51,0,0,1,.24.3Z"/><path class="cls-46" d="M55.22,25.35c.68.16,1.66-.24,1.81.94l-.1.17a1.09,1.09,0,0,1-.88.26,1.41,1.41,0,0,1-.92-.23.78.78,0,0,1-.19-.89A.62.62,0,0,1,55.22,25.35Z"/><path class="cls-47" d="M53.4,23.64c.82-.29,1.11.25,1.34.87a.64.64,0,0,1-.48.33,1,1,0,0,1-1-.24A.73.73,0,0,1,53.4,23.64Z"/><path class="cls-48" d="M53.4,23.64l0,.83-.11.17a.64.64,0,0,1-.89-.08.67.67,0,0,1,.09-.9Z"/><path class="cls-49" d="M52.51,23.66l0,.82-.09.16a.69.69,0,0,1-.88.05.74.74,0,0,1-.19-.86.65.65,0,0,1,.26-.26Z"/><path class="cls-2" d="M50.78,22.72c.55,0,.89.25.86.85v.11a.69.69,0,0,1-.94,0,.64.64,0,0,1,0-.93Z"/><path class="cls-50" d="M58.72,27.21c.59-.06.94.16.92.81l-.11.17a.66.66,0,0,1-.9-.07A.69.69,0,0,1,58.72,27.21Z"/><path class="cls-51" d="M58.72,27.21l0,.82-.09.17a.68.68,0,0,1-1.07-.81.59.59,0,0,1,.26-.26Z"/><path class="cls-52" d="M57,26.29c.56,0,.85.27.83.84v.1a.7.7,0,0,1-1,0,.67.67,0,0,1,0-.94Z"/><path class="cls-53" d="M54.28,24.54l.46,0c.39.15.45.48.48.84l0,.09a.64.64,0,1,1-.9-.9Z"/><path class="cls-54" d="M64.93,30.77c.61-.07.95.18.95.81a.44.44,0,0,1-.17.27.74.74,0,0,1-.81,0,.54.54,0,0,1-.21-.28A.72.72,0,0,1,64.93,30.77Z"/><path class="cls-55" d="M64.93,30.77l0,.87a.67.67,0,0,1-.88.19.66.66,0,0,1,0-1.14Z"/><path class="cls-56" d="M63.23,29.79c.56,0,.88.3.84.9v.1a.76.76,0,0,1-.9.13.71.71,0,0,1-.23-.87A.59.59,0,0,1,63.23,29.79Z"/><path class="cls-57" d="M62.28,29a.77.77,0,0,1,.95.81l-.07.09a.66.66,0,0,1-.93,0A.67.67,0,0,1,62.28,29Z"/><path class="cls-58" d="M62.28,29l0,.81-.08.17a.69.69,0,0,1-.88.06.74.74,0,0,1-.18-.86.59.59,0,0,1,.26-.26Z"/><path class="cls-59" d="M60.5,28.1c.59-.05.94.16.92.8l0,.11a.69.69,0,0,1-.94,0A.66.66,0,0,1,60.5,28.1Z"/><path class="cls-60" d="M60.5,28.1l0,.81-.11.17a.66.66,0,0,1-.9-.06.63.63,0,0,1,.09-.89V28Z"/><path class="cls-61" d="M65.86,34.3l.85,0c.12.63-.15,1-.8,1l-.08-.1a.56.56,0,0,1-.1-.76Z"/><path class="cls-62" d="M66.71,32.55l-.86,0-.13-.1a.56.56,0,0,1,.1-.75l.06-.09C66.5,31.61,66.81,31.9,66.71,32.55Z"/><path class="cls-63" d="M23.24,51.18l0-.9a.83.83,0,0,1-.26-.86c.22-.54.91-.61,1.14-1.14a1.49,1.49,0,0,1,.88-.2,1.83,1.83,0,0,1,.86.13c.4.22.55.87,1.18.72a4.37,4.37,0,0,1,1.44.16c.43.17.53.86,1.15.73.28,0,.55,0,.83,0a1.67,1.67,0,0,1,.83.09C32.06,51,33,51,33.77,50a1.43,1.43,0,0,1,.76-.19c1,0,.5-1,.93-1.37s.74-.54.64-1.08a7.22,7.22,0,0,1,.09-1.47c.34-.38.94-.59.75-1.27.1-1.61.13-1.66,1.3-1.79l.64.06c.66.11.78.57.76,1.13a5.11,5.11,0,0,1-.14,1.74c-.66.48-.72,1.26-1,2-.75.4-.67,1.12-.66,1.8a1.5,1.5,0,0,1-.2.81,3,3,0,0,0-1,1.08,1,1,0,0,0-.56.92,1,1,0,0,1-.56,1,15.78,15.78,0,0,1-3.29.15,3.2,3.2,0,0,1-1-.08c-.37-.79-1.19-.77-1.85-1-.36-.72-1.09-.64-1.71-.82a.83.83,0,0,1-.26-.19c-.31-.79-1-.47-1.56-.54a1.81,1.81,0,0,0-1.83.7A.74.74,0,0,1,23.24,51.18Z"/><path class="cls-42" d="M23.21,49.39c0,.3,0,.59,0,.89-1.4.4-2.55-.16-3.77-.77-1.7-.85-3.7-1-5.37-1.9-1.43-.8-3.06-1-4.52-1.68a3.71,3.71,0,0,1-2.3-3.42A3.1,3.1,0,0,0,9,43.4a.49.49,0,0,1,.31.3c0,.53.11,1,.8.82a1.08,1.08,0,0,1,.75.11c.26.37.5.77,1.07.6a49,49,0,0,1,5.16,1.63c1.3.41,2.49,1.19,4,1.21C21.87,48.08,22.45,49,23.21,49.39Z"/><path class="cls-42" d="M23.24,51.18h.84l.14,0a1.55,1.55,0,0,0,.84.56.6.6,0,0,1,.21.21c.11.41.42.51.8.49a1.52,1.52,0,0,1,.76.12c.31.29.38.9,1,.77a1.3,1.3,0,0,1,.8.16c.28.34.36.86.88,1a.9.9,0,0,1,.21.27,1.19,1.19,0,0,1,.06.81c-.21.61.62,1.18.1,1.81-1,.26-1.73-.52-2.55-.88a13.63,13.63,0,0,1-2.74-1.58A3.7,3.7,0,0,1,23.24,51.18Z"/><path class="cls-64" d="M29.89,57.38a1.71,1.71,0,0,0-.67-.81c-.25-.12-.6-.19-.54-.56s.46-.37.77-.41a1,1,0,0,1,.82-.4,2.72,2.72,0,0,1,.9,0c.42.18.42.93,1.07.81a1.94,1.94,0,0,1,.75.2c.35.24.47.83,1.06.7a1.65,1.65,0,0,1,.75.2c.33.31.45.84,1,1,.24.32.4.73.92.65a.7.7,0,0,1,.68.34c.23.55.7.57,1.19.54a1.24,1.24,0,0,1,.78.3,1.12,1.12,0,0,1,.27.82c0,.39.09.85-.4,1.08a11.93,11.93,0,0,1-2.59-1.26,13,13,0,0,0-2.75-1.42c-.87-.19-1.46-.91-2.23-1.32a2.47,2.47,0,0,0-1.32-.43Z"/><path class="cls-65" d="M9,43.85c0-.15,0-.3,0-.45a1.7,1.7,0,0,1,.91-.24,1,1,0,0,1,.84-.39,1.8,1.8,0,0,1,.92.06c.39.31.45.94,1,1.07.37.79,1.09.59,1.73.62a1.59,1.59,0,0,1,.77.15c.37.22.46.85,1.07.71.27,0,.54,0,.81,0h.84a2.38,2.38,0,0,1,.84.07c.4.2.4.94,1.06.8.28,0,.55,0,.83,0a1.81,1.81,0,0,1,.83.1c.35.33.41.92,1,1,.24.81,1.18.43,1.6.93a.88.88,0,0,0,.05.15c0,.63-.3.88-.89.87s-1.51.16-2-.67a.25.25,0,0,0-.19-.11c-1.47.27-2.56-.93-3.95-1-.29,0-.65,0-.81-.25a1.5,1.5,0,0,0-1.54-.64c-.3,0-.65,0-.84-.23-.6-.76-1.43-.65-2.23-.65a4.69,4.69,0,0,1-.9-.88H9.91C9.66,44.54,8.92,44.54,9,43.85Z"/><path class="cls-66" d="M14.31,27.16l.06-.85a.86.86,0,0,1,.85-.31,15.69,15.69,0,0,1,2,1.2.87.87,0,0,1,0,.92,29.31,29.31,0,0,0-2.8,1.27,1.93,1.93,0,0,1-.95-.15.75.75,0,0,1-.27-.26.94.94,0,0,1-.08-.89C13.44,27.67,14.07,27.66,14.31,27.16Z"/><path class="cls-67" d="M8.15,41.36V38.77a.69.69,0,0,1,.93-.15,1.17,1.17,0,0,1,.36.92A3.21,3.21,0,0,1,9.3,41.3a.73.73,0,0,1-.26.29A.71.71,0,0,1,8.15,41.36Z"/><path class="cls-68" d="M10.75,34.28l.07-.84a.68.68,0,0,1,1-.07,1.59,1.59,0,0,1,0,1.88.78.78,0,0,1-1,0A.72.72,0,0,1,10.75,34.28Z"/><path class="cls-69" d="M9,37c.07-.7-.37-1.64.84-1.81l.18.08a1.07,1.07,0,0,1,.27.93,1.09,1.09,0,0,1-.34.92A.71.71,0,0,1,9,37Z"/><path class="cls-70" d="M13.48,28.11,13.4,29a.55.55,0,0,1-.83,0c.12-.68-.42-1.7.9-1.77A.67.67,0,0,1,13.48,28.11Z"/><path class="cls-71" d="M15.27,23.63h.83c.74.49.49,1.12.25,1.76a.78.78,0,0,1-1,.3.71.71,0,0,1-.34-.25.79.79,0,0,1,.13-1Z"/><path class="cls-72" d="M11.61,32.49l.11-1.72a.67.67,0,0,1,1-.07,1.79,1.79,0,0,1,.16,1.8.8.8,0,0,1-.95.28A.68.68,0,0,1,11.61,32.49Z"/><path class="cls-73" d="M15.19,24.49v.89c-.25.31-.52.28-.81.05C14.27,24.79,14.49,24.43,15.19,24.49Z"/><path class="cls-74" d="M13.48,28.11V27.2l.84,0C14.44,27.83,14.16,28.15,13.48,28.11Z"/><path class="cls-75" d="M14.37,25.43l.81-.05.09.06a.56.56,0,0,1-.06.85l-.84,0Z"/><path class="cls-76" d="M9.87,42.34,9,42.27a.56.56,0,0,1,0-.83l.08-.09a.66.66,0,0,1,1.08.74A.51.51,0,0,1,9.87,42.34Z"/><path class="cls-77" d="M9,41.44l0,.83c-.66,0-.95-.25-.88-.91Z"/><path class="cls-78" d="M9,38.73l-.85,0c-.09-.61.12-1,.79-.94l.16.06a.55.55,0,0,1,0,.75Z"/><path class="cls-79" d="M9,37h.82l.17.1a.66.66,0,0,1,0,.9.65.65,0,0,1-.9-.1l-.11,0Z"/><path class="cls-80" d="M10.81,43.13l-.9,0c0-.27,0-.54,0-.82l.05-.1a.68.68,0,0,1,.93,0A.63.63,0,0,1,10.81,43.13Z"/><path class="cls-81" d="M12.56,30.74l-.84,0c-.08-.58.09-1,.77-.93a.4.4,0,0,1,.27.12.55.55,0,0,1-.06.71Z"/><path class="cls-82" d="M12.57,29h.93a.72.72,0,0,1,0,1,.64.64,0,0,1-.93-.06l-.12,0C12.52,29.55,12.54,29.26,12.57,29Z"/><path class="cls-83" d="M10.75,34.28l.05.91-.11.13a.56.56,0,0,1-.75-.1l-.08-.07C9.87,34.56,10.14,34.25,10.75,34.28Z"/><path class="cls-84" d="M11.68,33.44h-.86c-.1-.62.08-1,.79-.95l.11,0a.63.63,0,0,1,.1.8Z"/><path class="cls-85" d="M46.3,26.28c0,.56.23.92.84.91l.17.08a.72.72,0,0,1,.15.83c-.81.35-.61,1.21-.92,1.82a.77.77,0,0,1-.28.23,2.16,2.16,0,0,1-.94.14,1.09,1.09,0,0,1-.94-.27,1.59,1.59,0,0,1-.27-.94,2,2,0,0,1,.13-.91c.22-.43.88-.59.74-1.23a1.14,1.14,0,0,1,.41-.81A.76.76,0,0,1,46.3,26.28Z"/><path class="cls-86" d="M50.72,22.78l0,.84,0,.15a18.92,18.92,0,0,1-1.8,2.39.79.79,0,0,1-.86-.22.52.52,0,0,1,0-.56C48.17,23.37,48.81,22.75,50.72,22.78Z"/><path class="cls-87" d="M46.37,24.53l-.09.87a.67.67,0,0,1-.93.1.78.78,0,0,1-.15-.95.72.72,0,0,1,.88-.29A.63.63,0,0,1,46.37,24.53Z"/><path class="cls-88" d="M47.17,23.61c.07.6-.14,1-.8.92h-.11a.74.74,0,0,1-.19-.84.65.65,0,0,1,.25-.27A.72.72,0,0,1,47.17,23.61Z"/><path class="cls-89" d="M47.17,23.61l-.85,0a.63.63,0,1,1,.85-.9Z"/><path class="cls-90" d="M47.17,22.74l-.84,0c-.4-.83-.32-1,.61-1.14a.75.75,0,0,1,.32.24Z"/><path class="cls-91" d="M48.14,21c0,.57-.19,1-.88.87h-.12a.72.72,0,0,1,0-.95A.64.64,0,0,1,48,21Z"/><path class="cls-86" d="M47.14,27.19l.08-.86a.67.67,0,0,1,1,0c.16,1,0,1.17-.94.91h-.12Z"/><path class="cls-92" d="M48.09,26.3l-.87,0c0-.61.22-.93.83-.95,0,.17,0,.33.07.5A.3.3,0,0,1,48.09,26.3Z"/><path class="cls-93" d="M45.45,25.43l.83,0,0,.88-.8,0a.39.39,0,0,1-.27-.13.52.52,0,0,1,.08-.7Z"/><path class="cls-94" d="M48.06,18.32v1.74a.77.77,0,0,1-.8.33,17.4,17.4,0,0,0-1.84-.9c-.24-.26-.34-.74-.77-.72-1.64.09-3-1-4.63-1a2.09,2.09,0,0,0-2-1,6.65,6.65,0,0,1-2.37-.61c-2.37-.8-4.84-1.32-7.14-2.34a30.68,30.68,0,0,0-3.19-.9,1.53,1.53,0,0,0-1.81.72A23.84,23.84,0,0,0,22,16.31c-.28.51-.6.83-1.22.65a.74.74,0,0,1-.22-1.2c.53-.74.63-1.7,1.24-2.41.11-.13.07-.35.08-.54a1.29,1.29,0,0,1,.23-.87c.11-.1.3-.13.36-.24,1-1.73,2.48-1.22,3.88-.84,1.81.49,3.53,1.22,5.31,1.79a33.3,33.3,0,0,1,5.09,1.67,5.28,5.28,0,0,0,3.24.89c.05,0,.13,0,.18.11,1,1.11,2.27.7,3.47.77h.92l.94,0a1,1,0,0,1,.83.39l0,0c.33.26.6.59.91.86h0C47.48,17.72,47.81,18,48.06,18.32Z"/><path class="cls-95" d="M47.2,20.09l.85,0V21l-.82,0A.57.57,0,0,1,47.2,20.09Z"/><path class="cls-96" d="M48.06,18.32c-.61,0-.91-.29-.85-.91l.84,0Z"/><path class="cls-97" d="M43.66,16.53a9.73,9.73,0,0,1-3.82-.65c-1.1-.5-2.56-.54-3.69-1.17a24.36,24.36,0,0,0-4.63-1.46,57.49,57.49,0,0,0-6.1-2.05c-1-.2-1.84-.32-2.46.67-.1.14-.4.15-.61.22a.63.63,0,0,1,0-.92l0-1.73h0a10.55,10.55,0,0,1,.88-.89h0l1.75,0A1.33,1.33,0,0,0,26.1,9c.3,0,.48.22.7.38h.87l0,0a1.12,1.12,0,0,0,1,.43,1.71,1.71,0,0,1,.74.14.85.85,0,0,1,.25.17c.24.81,1,.45,1.53.72a.64.64,0,0,1,.25.18c.16.48.55.56,1,.55s1.08-.06,1.46.44h.88l0,0a1.28,1.28,0,0,0,1.11.44c.31,0,.49.22.7.39h.88l0,0a2.15,2.15,0,0,0,1,.61.53.53,0,0,1,.21.21c.22.76,1.2.29,1.5.92H41l0,0a1.19,1.19,0,0,0,1.11.45c.31,0,.49.22.7.39l.85.07A.58.58,0,0,1,43.66,16.53Z"/><path class="cls-98" d="M25.91,9.4c-.61.07-.94-.18-.94-.82l.92,0,0,0A.56.56,0,0,1,25.91,9.4Z"/><path class="cls-99" d="M29.45,10.3h-.88a.55.55,0,0,1,0-.83v-.1l.87.08A.57.57,0,0,1,29.45,10.3Z"/><path class="cls-100" d="M29.45,10.3l0-.85h.87c0,.28,0,.56.05.83a.6.6,0,0,1-.91.05Z"/><path class="cls-101" d="M29.43,10.33l.91-.05.86.07a.56.56,0,0,1,0,.85C30.55,11.07,29.54,11.63,29.43,10.33Z"/><path class="cls-102" d="M31.22,11.2l0-.85h.9l0,.79L32,11.3a.6.6,0,0,1-.81-.1Z"/><path class="cls-103" d="M22.31,11.17c0,.31,0,.61,0,.92s0,.59,0,.89a.74.74,0,0,1-1,.12,1.12,1.12,0,0,1-.31-1,1.06,1.06,0,0,1,.38-.93h0Z"/><path class="cls-104" d="M42.78,15.61h-.89a.51.51,0,0,1,0-.8v-.1l.88.09Z"/><path class="cls-105" d="M43.66,16.53l0-.85.92,0,0,0a.6.6,0,0,1,0,.86Z"/><path class="cls-106" d="M46.32,16.51h-.88a.56.56,0,0,1,0-.83l.88,0C46.3,16,46.31,16.24,46.32,16.51Z"/><path class="cls-107" d="M45.4,15.67c0,.28,0,.55,0,.83h-.87c0-.29,0-.57,0-.86Z"/><path class="cls-108" d="M21.43,12.07V13a.52.52,0,0,1-.82,0H20.5l.09-.87A.57.57,0,0,1,21.43,12.07Z"/><path class="cls-109" d="M21.43,12.07l-.84,0c0-.29,0-.59,0-.88l.84,0Z"/><path class="cls-110" d="M16.06,21.85l.09-.86L17,21l.16.11a.66.66,0,0,1-.06.9.66.66,0,0,1-.9-.1Z"/><path class="cls-111" d="M17,21l.07-.86a.64.64,0,0,1,1,0c.16,1,0,1.15-.94.88Z"/><path class="cls-112" d="M17.88,20.07l-.85,0v-.89l.83,0A.54.54,0,0,1,18,20Z"/><path class="cls-113" d="M39.18,13l0,.82a.6.6,0,0,1-.91,0h0a.58.58,0,0,1,0-.85Z"/><path class="cls-114" d="M38.3,13l0,.85c-.66.09-.95-.21-.91-.86Z"/><path class="cls-115" d="M25.91,9.4l0-.84.9,0,0,.8Z"/><path class="cls-116" d="M23.23,8.55c.08.67-.18,1-.88.89l0-.87Z"/><path class="cls-117" d="M33.89,12.08l-1.74,0a.5.5,0,0,1-.06-.8l0-.1.89,0,.87.09Z"/><path class="cls-103" d="M17.05,21c.63,0,.87-.31.83-.9h0a1.17,1.17,0,0,1,.55-.34c1.16-.15,1.21-1.21,1.59-2,.19-.4.08-1,.76-1,.89-.38.91-1.37,1.42-2a4.14,4.14,0,0,0,.26-.61c1-1.9,1.72-2.14,3.74-1.48,3.21,1.06,6.45,2,9.66,3.08a9.15,9.15,0,0,0,3.27.86c.49,0,.72.46,1,.82-.24.45-.64.45-1.05.35a14.94,14.94,0,0,0-5.25,0c-.42,0-1,.06-1.11.49-.49,1.38-1.6,1.37-2.74,1.36-1,0-1.95.18-2.74-.72-.45-.51-2.3-.19-2.83.31-.35.32-.7.61-.54,1.2a.83.83,0,0,1-.39.86,8.07,8.07,0,0,1-1.7.13c-.21,0-.51,0-.62.13-.61.91-1.68,1.37-2.27,2.31-.6.41-.81,1.16-1.41,1.59s-.94.52-1.37-.06l0-1.77,0-.88,0,0c.25-.34.6-.58.83-.93Z"/><path class="cls-118" d="M17,21.84c.1.64-.11,1-.83.93l0-.89Z"/><path class="cls-119" d="M19.62,15.65l0-.9,0,0a.69.69,0,0,1,.94-.11c.43.77.28,1.22-.68,1.23A.78.78,0,0,1,19.62,15.65Z"/><path class="cls-120" d="M18.73,16.52l.1-.88h.89a.73.73,0,0,1,0,.95.62.62,0,0,1-.92-.05Z"/><path class="cls-121" d="M41.87,14.81l0,.8c-.64.09-1-.18-.92-.84Z"/><path class="cls-122" d="M38.32,13.87l.91,0,.87.08v.82C39.42,14.64,38.42,15.18,38.32,13.87Z"/><path class="cls-123" d="M20.54,14.73l-.85,0,0-.88.82,0A.55.55,0,0,1,20.54,14.73Z"/><path class="cls-124" d="M20.54,14.73v-.88l.08-.87.82,0,.9,0c0,1.08-.85,1.76-1.28,2.64a1.54,1.54,0,0,0-.27,1.13,8,8,0,0,1-1.1,3.12c-.37.6-.62.77-1.12.21a1.42,1.42,0,0,1,.21-1.78v-.88h0c.26-.33.6-.58.84-.92l.08-.87C20.34,15.66,20.59,15.34,20.54,14.73Z"/><path class="cls-125" d="M36.56,13h-.88a.52.52,0,0,1,0-.81V12l.88.1Z"/><path class="cls-126" d="M35.65,12.14l0,.81c-.64.09-1-.14-.93-.83Z"/><path class="cls-127" d="M18.77,18.3a3.38,3.38,0,0,1-.21,1.78h-.68v-.89l.08-.87Z"/><path class="cls-128" d="M47.21,17.41c-.62.06-.93-.22-.91-.86l.89,0Z"/><path class="cls-129" d="M19.64,16.51c.08.63-.15,1-.84.92l0-.89Z"/><path class="cls-130" d="M28.55,9.47l0,.83c-.62.06-.93-.23-.92-.85Z"/><path class="cls-131" d="M39.21,61.82c-.05-.3-.19-.6,0-.89a.75.75,0,0,1,.83-.24c.4.74,1.22.62,1.84.89.32.23.42.77,1,.67.27,0,.53,0,.8,0a1.84,1.84,0,0,1,.8.12.85.85,0,0,1,.28.15.81.81,0,0,0,1,.58,6.43,6.43,0,0,1,1.58,0,1,1,0,0,1,.81.41c.24,0,.56,0,.65.32s-.2.42-.42.54a5,5,0,0,1-2.17,1c-1.33.06-2.18-.87-3.24-1.31a4.73,4.73,0,0,0-1.69-.52c-.11-.39-.26-.77-.73-.85A2.3,2.3,0,0,1,39.21,61.82Z"/><path class="cls-42" d="M56.07,52.9c0,1.1-.85,1.74-1.31,2.59s-1.38,1.45-1.35,2.56a2.32,2.32,0,0,0-1.59,1.81c-.21.85-1,1.21-1.27,2-.08.27-.47.34-.69,0a1,1,0,0,1-.4-.82,1.68,1.68,0,0,1,.11-.89c.25-.41.79-.59.9-1.11.32-.22.83-.23.88-.76a.68.68,0,0,1,.2-.24c.82-.33.43-1.16.71-1.71.54-.45.57-1.17.89-1.74a1,1,0,0,0,.71-1.11c.09-.78.58-1,1.28-.9A1.14,1.14,0,0,1,56.07,52.9Z"/><path class="cls-132" d="M48.09,63.59l-.91,0c-.33-.85-.24-1,.68-1.08a.63.63,0,0,1,.29.27Z"/><path class="cls-133" d="M49.84,60.92c0,.3,0,.6,0,.9l-.82,0a.55.55,0,0,1-.29-.23.65.65,0,0,1,1.09-.71Z"/><path class="cls-134" d="M49,61.86c0,.59-.24,1-.89.89l-.11,0c-.23-1-.11-1.13.88-.92Z"/><path class="cls-135" d="M56.07,52.9h-.91a2.08,2.08,0,0,1-.29-2.27c.19-.67.7-.75,1.25-.29,0,.72,0,1.45,0,2.17Z"/><path class="cls-136" d="M60.54,43.2l0,.83a10.68,10.68,0,0,1-.84.93h0c-.69.38-.21,1.37-.91,1.74v0a.83.83,0,0,1-.74.34c-.45-.05-.78,0-.67.61a1.17,1.17,0,0,1-.13.86.68.68,0,0,1-.28.25,2.4,2.4,0,0,1-1.69,0c-.55-.21-.59-.93-1.14-1.14a7.86,7.86,0,0,1-.36-.84c-.18-.58-.65-.48-1.12-.54-1-.12-2,.3-2.9-.35a1,1,0,0,1-.19-.86c.38-.66,1-.64,1.63-.59s1.23.2,1.39-.64a1.52,1.52,0,0,0-1.11-1.92c-.44-.09-.88-.14-1-.69a1,1,0,0,1,.23-.93,7,7,0,0,1,2.92-.23c1.11,1.31,2.64.77,4,.92a1.32,1.32,0,0,0,1.33-.69c.52-.64.25-1.1-.37-1.46-.3-.83-1.21-.39-1.7-.83-.31-.84-1.21-.49-1.74-.86-.17-.62-1-.55-1.19-1.12.28-1,.75-1.32,1.63-.86.65.35,1.32.65,2,1a3.47,3.47,0,0,0,2.35.33c1.73-.33,2.1,0,2,1.83-.07.76.15,1.54-.3,2.25-.2.31.1.62.17.94a.83.83,0,0,1-.28.78h0A10.72,10.72,0,0,0,60.54,43.2Z"/><path class="cls-137" d="M54.34,47.57c.61,0,.92.27.9.89.32.71,1.12.33,1.59.68a.56.56,0,0,1,.17.26c0,.57-.25.94-.88.93s-.91.29-.91.92,0,1.09-.05,1.64a.77.77,0,0,0-.86.93.77.77,0,0,1-1,.14c-.48-.51-.26-1.14-.32-1.72a2.24,2.24,0,0,1,.45-1.73c.45-.51.31-1.25.43-1.88a1.4,1.4,0,0,1,.2-.85A.54.54,0,0,1,54.34,47.57Z"/><path class="cls-138" d="M63.21,39.64l-.06.82a.65.65,0,0,1-1,.1A1.71,1.71,0,0,1,62,38.73a.8.8,0,0,1,1-.28.78.78,0,0,1,.34.25A.76.76,0,0,1,63.21,39.64Z"/><path class="cls-139" d="M57.88,46.76l.86,0c-.08.7.37,1.64-.84,1.82l-.17-.08a1,1,0,0,1-.27-.9A.73.73,0,0,1,57.88,46.76Z"/><path class="cls-140" d="M58.73,46.7c.12-.67-.41-1.69.91-1.74C59.55,45.65,60.06,46.66,58.73,46.7Z"/><path class="cls-141" d="M57.9,48.54a.77.77,0,0,1-.9.86l-.09,0a.61.61,0,0,1,.07-.86h0a.58.58,0,0,1,.84,0Z"/><path class="cls-142" d="M62.29,40.5l.86,0c.07.59-.14,1-.79,1l-.16-.06a.56.56,0,0,1-.05-.76Z"/><path class="cls-143" d="M63.21,39.64v-.85c.25-.34.53-.3.83-.08C64.14,39.36,63.84,39.65,63.21,39.64Z"/><path class="cls-144" d="M64.05,38.71l-.83.08-.06-.09c-.42-.76-.18-1.11.67-1.09a.6.6,0,0,1,.3.24Z"/><path class="cls-145" d="M65,37c0,.58-.25.89-.86.84H64c-.23-1-.11-1.15.9-.94Z"/><path class="cls-146" d="M59.65,45c-.13-.67.18-1,.84-.93C60.57,44.67,60.36,45,59.65,45Z"/><path class="cls-147" d="M60.54,43.2c-.07-.65.22-1,.87-.91C61.54,43,61.19,43.23,60.54,43.2Z"/><path class="cls-148" d="M61.44,42.3l0-.9.1-.13a.56.56,0,0,1,.75.11l.1,0C62.31,42,62.09,42.37,61.44,42.3Z"/><path class="cls-149" d="M64.1,31.61l.86,0h0c.3.28.6.58.88.89h0V34.3h0a.82.82,0,0,1-.84.3,6.38,6.38,0,0,1-2.12-2.14.89.89,0,0,1,.24-.93A.77.77,0,0,1,64.1,31.61Z"/><path class="cls-150" d="M64.93,36.91c-.68,0-.92.32-.9.94-.6,0-.87.28-.87.85l-.81.06c-.39.22-.67,0-.93-.24,0-1.75-.07-1.79-1.77-1.38A2.43,2.43,0,0,1,58,37a19.67,19.67,0,0,1-2.48-1.22c-.65-.4-1.07-.37-1.47.27-.73.35-1-.06-1.08-.7a10.24,10.24,0,0,1,0-2.07c1.55-1,3-2.21,5-2.12a1.54,1.54,0,0,1,1.58.62c.37.53,1.15.14,1.7.4a1.09,1.09,0,0,1,.31.18,1,1,0,0,0,.8.58,2.27,2.27,0,0,1,2.07,2.27,1.34,1.34,0,0,0,.43.83Z"/><path class="cls-151" d="M64.92,36.06c-.44,0-.79-.13-.84-.65a2.13,2.13,0,0,0-1.93-2,.8.8,0,0,1-.74-.9c.6-.67,1.19-.56,1.79,0A2.39,2.39,0,0,1,65,34.33a.65.65,0,0,1,0,.9Z"/><path class="cls-152" d="M65,35.23l0-.9.87,0v.87Z"/><path class="cls-153" d="M56.92,26.32l.06.83-.12.16a.68.68,0,0,1-.91-.07.7.7,0,0,1,.11-.92Z"/><path class="cls-154" d="M56.06,26.32l0,.86a.68.68,0,0,1-.89.21.69.69,0,0,1-.29-.87.66.66,0,0,1,.27-.28Z"/><path class="cls-155" d="M54.33,25.36l.85.08,0,.8v.11a.77.77,0,0,1-.9.14.71.71,0,0,1-.23-.87A.62.62,0,0,1,54.33,25.36Z"/><path class="cls-156" d="M54.28,24.54l0,.82,0,.1a.72.72,0,0,1-.83.19.69.69,0,0,1-.26-.25.67.67,0,0,1,.22-.82v-.11Z"/><path class="cls-157" d="M53.41,24.58l0,.82a.65.65,0,0,1-.94.12.63.63,0,0,1,0-.93l0-.11Z"/><path class="cls-158" d="M52.51,24.59l0,.82a3.48,3.48,0,0,1-1,1.18,1,1,0,0,1-1-.16,1.26,1.26,0,0,1-.26-1,1.12,1.12,0,0,1,.32-1,.82.82,0,0,1,1,.11Z"/><path class="cls-159" d="M51.66,24.51l-.89,0a.53.53,0,0,1,0-.84v-.09l.89.06C51.64,24,51.65,24.23,51.66,24.51Z"/><path class="cls-160" d="M59.63,28.13v.8l-.11.16a.66.66,0,0,1-.9-.07.65.65,0,0,1,.11-.89l0-.1Z"/><path class="cls-161" d="M57,27.15l.88.08,0,.81-.13.16c-1,.1-1.09-.05-.79-.94A.22.22,0,0,0,57,27.15Z"/><path class="cls-162" d="M58.73,28.13l0,.81a.62.62,0,1,1-.94-.82l.05-.08Z"/><path class="cls-163" d="M65.84,32.53c-.67.07-1-.21-.88-.89l.86,0Z"/><path class="cls-164" d="M64.1,31.61h-.91l-.14-.06a.55.55,0,0,1-.09-.69.46.46,0,0,1,.24-.17l.88.09Z"/><path class="cls-165" d="M62.3,29.79l.86.09,0,.82a.36.36,0,0,1,0,.11.72.72,0,0,1-1,0,.65.65,0,0,1,.06-.93Z"/><path class="cls-166" d="M62.28,29.9l0,.84A.81.81,0,0,1,62,31c-1.36.32-1.66.15-1.77-1a.74.74,0,0,1,.23-.35.76.76,0,0,1,1,.11Z"/><path class="cls-167" d="M61.42,29.82l-.88,0a.52.52,0,0,1,0-.82l.06-.11.85.1Z"/><path class="cls-168" d="M60.49,29c0,.27,0,.55,0,.82l0,0a.68.68,0,0,1-.93.07.59.59,0,0,1,.07-.9.22.22,0,0,0,0-.11Z"/><path class="cls-169" d="M44.51,29.83l.93,0a.78.78,0,0,1,.25.84A2,2,0,0,0,45,32.64c.34,1.25-.53,2.1-1,3.08-1,.42-.56,1.53-1,2.21a1.24,1.24,0,0,0-.65,1.19c0,.24,0,.56-.15.66-.72.38-.67,1.13-.9,1.75-.92.36-.69,1.15-.72,1.85a.87.87,0,0,1-.36.86.78.78,0,0,1-1-.17c0-.38-.06-.73-.46-.91a6.32,6.32,0,0,1,.17-2.56c.14-.41.8-.47.71-1,0-.28,0-.55,0-.82a1.79,1.79,0,0,1,.12-.8.69.69,0,0,1,.15-.28.83.83,0,0,0,.58-1,5.41,5.41,0,0,1,.13-1.5c.33-.37.93-.44,1.06-1,.82-.3.49-1.17.84-1.7.3-.28.74-.47.65-1,0-.29,0-.59,0-.89a.93.93,0,0,1,.34-.88A.75.75,0,0,1,44.51,29.83Z"/><path class="cls-170" d="M34.72,50.25l-.81,0a2.27,2.27,0,0,1-2.72,0l-.86-.07a2,2,0,0,0-.92-.56.69.69,0,0,1-.23-.22c-.08-.44-.45-.6-.79-.79a.92.92,0,0,1-.16-.31,1,1,0,0,1,.15-.88,1.09,1.09,0,0,1,1.5,0,3.23,3.23,0,0,0,1.77.51c.92,0,1.56-.23,1.75-1.25.13-.66.38-1.33,1.31-1.12.43.29.59.89,1.16,1a.76.76,0,0,1,.11.85.73.73,0,0,1-.14.31,1,1,0,0,0-.62,1.05C35.17,49.33,35.3,49.91,34.72,50.25Z"/><path class="cls-171" d="M26.75,53l-.84-.06a12.34,12.34,0,0,1-.92-.85h0c-.28-.32-.59-.6-.87-.91l0,0c.05-1.38,1.1-.74,1.77-.87.44.62,1.39.19,1.81.86h0a1.08,1.08,0,0,1,.4.93,1,1,0,0,1-.29,1A.83.83,0,0,1,26.75,53Z"/><path class="cls-172" d="M38.28,43.14c-1.34.07-.68,1.14-.89,1.78a.92.92,0,0,1-.83.44,8.29,8.29,0,0,1-1,0,1.11,1.11,0,0,1-1-.29,1.08,1.08,0,0,1-.16-1c.65-.59,1.51-.93,2-1.68.63-.24,1.19-1,2-.26A.69.69,0,0,1,38.28,43.14Z"/><path class="cls-173" d="M32.09,53l3.5-.07a.59.59,0,0,1,.29.27.71.71,0,0,1-.32.92,5.53,5.53,0,0,1-3.48-.1A.72.72,0,0,1,32.09,53Z"/><path class="cls-174" d="M35.62,45l.9,0a.65.65,0,0,1,.06.91l-.08,1.71a.54.54,0,0,1-.85,0l0-.89a1,1,0,0,1-.33-.87A1,1,0,0,1,35.62,45Z"/><path class="cls-175" d="M31.19,50.3h2.72c.06.75-.37,1-1,.89S31.27,51.56,31.19,50.3Z"/><path class="cls-176" d="M38.28,43.14v-.87a1.34,1.34,0,0,1-.22-1.7.68.68,0,0,1,.88-.3.53.53,0,0,1,.28.27,4.83,4.83,0,0,1-.47,2.62Z"/><path class="cls-177" d="M38.28,47.57c.15-.66-.34-1.63.86-1.79a.59.59,0,0,1,.31.23,1.61,1.61,0,0,1,0,1.64.72.72,0,0,1-.88.2A.53.53,0,0,1,38.28,47.57Z"/><path class="cls-177" d="M39.21,44.07l.84,0c.4.17.45.52.44.89a1.23,1.23,0,0,1-.29,1,.7.7,0,0,1-1-.06l-.09-.08C39.16,45.21,39.19,44.64,39.21,44.07Z"/><path class="cls-178" d="M34.72,50.25l.1-1.71a.53.53,0,0,1,.69-.24.52.52,0,0,1,.21.23C35.53,49.19,36,50.24,34.72,50.25Z"/><path class="cls-179" d="M28.53,49.45l-1.73-.11a.65.65,0,0,1,0-1,1.26,1.26,0,0,1,1.79.15l0,0a.57.57,0,0,1,.23.71A.43.43,0,0,1,28.53,49.45Z"/><path class="cls-180" d="M37.44,49.39c.07-.7-.35-1.64.84-1.82l.08.09a1.25,1.25,0,0,1,.08,1.79A.72.72,0,0,1,37.44,49.39Z"/><path class="cls-181" d="M32.09,53l.07.82a.68.68,0,0,1-.26.32,1.57,1.57,0,0,1-1.75-.21.83.83,0,0,1,.08-1,.79.79,0,0,1,1,0Z"/><path class="cls-182" d="M27.66,52.07c0-.3,0-.59,0-.89.68.11,1.65-.42,1.82.82l-.08.18a1,1,0,0,1-.89.26A1,1,0,0,1,27.66,52.07Z"/><path class="cls-183" d="M35.59,52.89c.18-.65-.28-1.63.92-1.74l.19.11A1.44,1.44,0,0,1,36.65,53a.72.72,0,0,1-1-.08Z"/><path class="cls-184" d="M27.66,51.17c-.69-.1-1.65.37-1.81-.86C26.54,50.41,27.54,49.86,27.66,51.17Z"/><path class="cls-185" d="M31.25,52.91l-.94.06a.7.7,0,0,1-.95.05.69.69,0,0,1,.07-1l0-.07C30.13,52.18,31.13,51.68,31.25,52.91Z"/><path class="cls-186" d="M25.86,48.58,25,48.49a.71.71,0,0,1-.12-1,.81.81,0,0,1,1-.15.73.73,0,0,1,.28.91A.63.63,0,0,1,25.86,48.58Z"/><path class="cls-187" d="M36.58,45.86,36.52,45l.87,0C37.47,45.53,37.21,45.85,36.58,45.86Z"/><path class="cls-188" d="M25,47.65l0,.84-.91,0v0a.66.66,0,0,1-.05-.94A.61.61,0,0,1,25,47.65Z"/><path class="cls-189" d="M29.48,50.24c-.61.09-1-.07-.95-.79l0-.11a.64.64,0,0,1,.88,0h0A.6.6,0,0,1,29.48,50.24Z"/><path class="cls-190" d="M29.48,50.24l0-.85c.59,0,.9.23.88.84Z"/><path class="cls-191" d="M37.44,49.39l.81,0a.5.5,0,0,1,.29.2.69.69,0,0,1-.08.85.78.78,0,0,1-.86.11.53.53,0,0,1-.24-.27Z"/><path class="cls-192" d="M36.51,51.15c0-.55.21-.93.85-.89l.12,0a.76.76,0,0,1,.21.83.72.72,0,0,1-.25.27.68.68,0,0,1-.83-.18Z"/><path class="cls-193" d="M35.65,47.61l.85,0c.08.6-.15,1-.78,1l-.09,0a.63.63,0,0,1,0-.88Z"/><path class="cls-194" d="M26.77,48.52l0,.82c-.58.08-1,0-.94-.76l0-.12a.6.6,0,0,1,.78-.08Z"/><path class="cls-195" d="M9,43.85c.43.26.91.48.9,1.1C9.2,44.91,8.58,44.81,9,43.85Z"/><path class="cls-195" d="M10.79,45c.56,0,.79.39.9.88C11.08,45.86,10.77,45.57,10.79,45Z"/><path class="cls-196" d="M29.47,52.89l.84.08c0,.28,0,.57,0,.85a.65.65,0,0,1,0,1.12.73.73,0,0,1-.86-.22h0a9.28,9.28,0,0,0-.93-.84l-.83-.06a.57.57,0,0,1-.05-.85l0-.89.87,0C28.86,52.33,29.13,52.65,29.47,52.89Z"/><path class="cls-197" d="M28.52,53.87c.66-.1,1,.17.93.84Q28.51,54.82,28.52,53.87Z"/><path class="cls-198" d="M27.64,53l.05.85c-.63.07-.94-.21-.94-.84Z"/><path class="cls-199" d="M25,52.06c.61,0,.92.24.92.85C25.28,53,25,52.73,25,52.06Z"/><path class="cls-200" d="M24.12,51.16c.64,0,.92.28.87.91C24.35,52.1,24.06,51.8,24.12,51.16Z"/><path class="cls-201" d="M29.44,54.72l.87,0a.52.52,0,0,1,.05.81l-.91,0C29.45,55.31,29.44,55,29.44,54.72Z"/><path class="cls-202" d="M37.21,59.35l-.62-.23a.66.66,0,0,1-.09-1c1.25-.61,1.83-.43,2.15.67a1.12,1.12,0,0,1-.14.4A1,1,0,0,1,37.21,59.35Z"/><path class="cls-203" d="M30.36,55.57l-.05-.81,0-.09A1.38,1.38,0,0,1,32,54.41a.87.87,0,0,1,.32.22.92.92,0,0,1,.07.93.73.73,0,0,1-.27.28.79.79,0,0,1-.89-.21Z"/><path class="cls-204" d="M37.21,59.35c.33-.25.71-.15,1.07-.15a.52.52,0,0,1,.07.82C37.82,60.05,37.33,60,37.21,59.35Z"/><path class="cls-205" d="M36.54,58.28l.05.84c-.6.08-1-.13-1-.78a.38.38,0,0,1,.14-.26.53.53,0,0,1,.7.06Z"/><path class="cls-206" d="M40.05,61l-.83,0c0-.28,0-.56,0-.83l.09-.17a.68.68,0,0,1,.87,0,.7.7,0,0,1,.16.85A.53.53,0,0,1,40.05,61Z"/><path class="cls-207" d="M38.35,60c0-.27-.05-.55-.07-.82l.08-.07c1-.24,1.11-.1.85.86v.11Z"/><path class="cls-208" d="M35.63,58.34c-.55-.05-1-.22-.87-.89l.1-.17a.66.66,0,0,1,.91,0,.65.65,0,0,1-.09.9Z"/><path class="cls-209" d="M34.76,57.45l-.86-.08a.71.71,0,0,1-.19-.89.75.75,0,0,1,.32-.24c1,.08,1.07.22.74,1.09C34.77,57.37,34.76,57.41,34.76,57.45Z"/><path class="cls-210" d="M33.86,56.53l0,.84c-.61.06-.94-.18-.91-.82l.09-.15A.52.52,0,0,1,33.86,56.53Z"/><path class="cls-211" d="M33,56.55l-.86-.08a.56.56,0,0,1-.08-.83l.1-.06c1-.23,1.12-.1.85.87Z"/><path class="cls-212" d="M32.05,55.64l.08.83c-.65.09-1-.19-.94-.84Z"/><path class="cls-213" d="M24.09,47.65l0,.85c-.67-.11-1.64.42-1.8-.82a.56.56,0,0,1,.13-.28.93.93,0,0,1,.75-.2,1,1,0,0,1,.75.18A.52.52,0,0,1,24.09,47.65Z"/><path class="cls-214" d="M10.81,43.13l0-.81.11-.19a1.38,1.38,0,0,1,1.82,0,.86.86,0,0,1,0,1,.71.71,0,0,1-1,0Z"/><path class="cls-215" d="M14.35,44.94c-.68-.1-1.65.4-1.81-.83l.08-.18a1.07,1.07,0,0,1,.92-.28,1.12,1.12,0,0,1,.93.34A.72.72,0,0,1,14.35,44.94Z"/><path class="cls-216" d="M18.75,45.88l-.84-.08a.71.71,0,0,1-.1-1,1.79,1.79,0,0,1,1.83-.08A.79.79,0,0,1,19.7,46,.79.79,0,0,1,18.75,45.88Z"/><path class="cls-217" d="M21.43,46.76l-.85-.07a.72.72,0,0,1-.06-1c1.32-.52,1.87-.19,1.73,1A.58.58,0,0,1,21.43,46.76Z"/><path class="cls-218" d="M17.88,45l0,.83H17a.62.62,0,0,1-.06-.92A.61.61,0,0,1,17.88,45Z"/><path class="cls-219" d="M18.75,45.88h.9a.52.52,0,0,1,0,.81C19.06,46.79,18.71,46.56,18.75,45.88Z"/><path class="cls-220" d="M19.69,46.7c0-.27,0-.54,0-.81l0-.1a.58.58,0,0,1,.86.06l0,.84Z"/><path class="cls-221" d="M21.43,46.76l.68-.07a.27.27,0,0,1,.33.07.58.58,0,0,1-.08.81l-.05.11C21.71,47.66,21.38,47.4,21.43,46.76Z"/><path class="cls-222" d="M17,45l0,.84h-.89a.65.65,0,0,1-.15-.87.65.65,0,0,1,.88-.13Z"/><path class="cls-223" d="M16.11,45l0,.85c-.59.06-.92-.18-.92-.8l.06-.15a.53.53,0,0,1,.74,0Z"/><path class="cls-224" d="M14.35,44.94v-.82l.11-.17a.62.62,0,1,1,.79,1l0,.1Z"/><path class="cls-225" d="M11.67,43.21l.9,0,.13.1a.57.57,0,0,1-.11.76l-.05.08C12,44.08,11.65,43.8,11.67,43.21Z"/><path class="cls-226" d="M17,28.05l0-.86.1-.17a2.91,2.91,0,0,1,2.72,0c.44.75.65,1.6,1.07,2.38.57,1.08-.07,1.78-1.45,1.8s-2.87.21-4.28-.19c-.75-1.39-.44-2.08,1.11-2.47A1.11,1.11,0,0,0,17,28.05Z"/><path class="cls-227" d="M16.08,25.4c.83.1,1.21-.56,1.66-1a2,2,0,0,1,1-.73l.18.11a3.52,3.52,0,0,1,.19,2.33c-.05.64-.66.7-1,.69a1.35,1.35,0,0,0-1.11.43h0c-.67-.16-1.72.45-1.8-.9l.06-.85Z"/><path class="cls-228" d="M17,28.05c0,.39,0,.85-.5.84-1.37,0-1.26.93-1.26,1.82a.65.65,0,0,1-.88.24.74.74,0,0,1-.27-.31A1.32,1.32,0,0,1,14.35,29C15.22,28.67,15.88,27.75,17,28.05Z"/><path class="cls-229" d="M14.35,29l0,1.69a.6.6,0,0,1-.92.14.71.71,0,0,1,0-1c0-.29.05-.58.08-.87Z"/><path class="cls-230" d="M9.88,41.42l-.82-.07c0-.57,0-1.14,0-1.71.36-.29.48-.75.75-1.1a.92.92,0,0,1,.36-.13,1,1,0,0,1,.93.3,3.17,3.17,0,0,1-.14,2.8A.85.85,0,0,1,9.88,41.42Z"/><path class="cls-231" d="M9.87,38.71c.07.62-.21.93-.83.93l0-.91H9A.58.58,0,0,1,9.87,38.71Z"/><path class="cls-232" d="M10.8,35.19l.88,0,.19.14a4.39,4.39,0,0,1,.22,2.48c-.08.74-.6.94-1.28.69s-.43-.87-.46-1.37a9,9,0,0,1,0-1,1.1,1.1,0,0,1,.38-.89Z"/><path class="cls-233" d="M11.68,35.16V33.4a.67.67,0,0,1,1.18.14c.14.61.34,1.23-.18,1.78a.78.78,0,0,1-1-.13Z"/><path class="cls-234" d="M10.77,36l0,.91A.57.57,0,0,1,10,37H9.84l.08-.87A.58.58,0,0,1,10.77,36Z"/><path class="cls-235" d="M10.77,36l-.85.05c0-.29,0-.58,0-.87l.82,0Z"/><path class="cls-236" d="M13.47,30.73l.84-.06.06.11a.84.84,0,0,1,.27.86,12.54,12.54,0,0,1-1.22,2,.75.75,0,0,1-.87-.22v0a.68.68,0,0,1,0-.93l0-1.75h0A.63.63,0,0,1,13.47,30.73Z"/><path class="cls-237" d="M12.53,32.49l0,.93-.88,0c0-.29,0-.58,0-.87Z"/><path class="cls-238" d="M9.88,41.42h.91a.52.52,0,0,1,0,.81l0,.1-.86-.08Z"/><path class="cls-239" d="M9.87,38.71l-.85,0c0-.29,0-.59,0-.88l.81,0a.59.59,0,0,1,0,.9Z"/><path class="cls-240" d="M9.9,38.73l0-.9L10,37h.84c0,.45,0,.9,0,1.35a.3.3,0,0,1,0,.43Z"/><path class="cls-241" d="M13.47,30.73l-.89,0,0-.89.81,0Z"/><path class="cls-242" d="M48.09,26.3l0-.42.84,0c.78.54.33,1.36.46,2,.3,1.22-.63,2.07-1.07,3a7.82,7.82,0,0,0-.71,2.59,1.71,1.71,0,0,1-.25.91.9.9,0,0,1-1.53-.29,1.55,1.55,0,0,0-.57-.48.8.8,0,0,1-.2-.89,1.13,1.13,0,0,1,.13-.33,1,1,0,0,0,.64-1.07c0-.52-.08-1.1.46-1.47h0c.66-.42.22-1.37.86-1.79,0-.3,0-.59.08-.88C47.89,27.23,48.13,26.89,48.09,26.3Z"/><path class="cls-243" d="M47.18,28.07c-.1.68.46,1.69-.86,1.79C46.43,29.17,45.92,28.19,47.18,28.07Z"/><path class="cls-244" d="M46.32,29.86l0,1.76a.66.66,0,0,1-.94.07.73.73,0,0,1,.06-1c0-.29,0-.58,0-.87Z"/><path class="cls-245" d="M45.41,27.17c0,.58-.17.95-.82.9l-.17-.1a.67.67,0,0,1,.08-.91A.68.68,0,0,1,45.41,27.17Z"/><path class="cls-246" d="M45.41,27.17l-.84,0a.65.65,0,0,1-.14-.94.64.64,0,0,1,1,0l.12,0Z"/><path class="cls-247" d="M44.51,29.83l-.84,0a.63.63,0,0,1-.11-.93.65.65,0,0,1,.95,0Z"/><path class="cls-248" d="M44.51,28.94l-.84,0-.16-.12a.69.69,0,0,1,.08-.91.65.65,0,0,1,.9.12h.1Z"/><path class="cls-249" d="M49,28.08c0-.75,0-1.5,0-2.24a2.1,2.1,0,0,1,1.8-2.13c0,.28,0,.56,0,.84l-.06.84c-.54.56-.35,1.24-.37,1.91C50.32,28.22,49.9,28.44,49,28.08Z"/><path class="cls-250" d="M44.49,28.08h-.84c-.5-.15-.48-.58-.53-1-.22-1.87-.27-1.93-2.19-2.12-.41,0-.8-.09-1.21-.09a1.2,1.2,0,0,1-.5-.05c-.37-.23-.46-.89-1.09-.74a1.3,1.3,0,0,1-.8-.15c-.28-.82-1-.74-1.67-.91a.82.82,0,0,1-.25-.2,2.57,2.57,0,0,1-1.13-2.54c0-.35-.21-.43-.43-.54a8.24,8.24,0,0,0-1-.24.65.65,0,0,1-.45-.25,1.07,1.07,0,0,1,1-1.4c1.08-.15,2.17-.14,2.73,1.09a.65.65,0,0,0,1.08.3c1.92-1.47,3.93-1.41,6.09-.58.7.27,1.6-.05,2.28.51.65.08,1.53-.25,1.56.9l0,.9-.08.87c-.65,0-.85.32-.81.9,0,.3,0,.59,0,.88h0c-.26.32-.6.57-.84.92v.88l0,0c-.27.33-.6.59-.85.93v.88Z"/><path class="cls-251" d="M45.46,24.55c-.08-.63.17-1,.84-.92l0,.89Z"/><path class="cls-252" d="M44.56,26.33c-.06-.63.22-.93.85-.93l0,.89Z"/><path class="cls-253" d="M45.64,19.19c-1.57.25-3-.34-4.57-.5a4.15,4.15,0,0,0-3.37,1,6.59,6.59,0,0,1-.82.56c-.78.53-1.18.23-1.2-.62a1.21,1.21,0,0,0-1.24-1.27c-.78-.09-1.59-.2-1.89.83a1.73,1.73,0,0,1-.26,1,.8.8,0,0,1-.32.19,3.11,3.11,0,0,1-1.63,0,.73.73,0,0,1-.36-.16c-.25-.33-.4-.67-.1-1.05,1.06,0,2,0,2.58-1.2.29-.61,1.06-.7,1.74-.81a14,14,0,0,1,5.9.22c1.12,0,2.27-.17,3.22.73.2.19.63.17,1,.16A1.29,1.29,0,0,1,45.64,19.19Z"/><path class="cls-254" d="M32.09,11.25l.06.8c-.64.08-.95-.2-.93-.85Z"/><path class="cls-255" d="M23.44,21c.12-.62-.66-1.58.64-1.78l.15,0c.8.3,1.13,1.2,1.91,1.52.8.8,1.62,1.59,2.4,2.41a1.27,1.27,0,0,1,.36.66A12.9,12.9,0,0,1,29,26.29a3.64,3.64,0,0,1-.24,1.82,1.21,1.21,0,0,1-.93.4c-.38,0-.76,0-1.14,0a1.07,1.07,0,0,0-1.24,1.08c-.18,1.43-.81,1.8-2.25,1.35a.78.78,0,0,1-.25-.32,16.23,16.23,0,0,1-.16-3.34,3.3,3.3,0,0,1,0-.94c1-1,1-1,.25-1.64a.9.9,0,0,1-.17-.3.94.94,0,0,1,0-.85C24.18,22.92,23.53,21.89,23.44,21Z"/><path class="cls-256" d="M29.88,19.2l.23.88c-.7.84-1.58.48-2.42.37a1.92,1.92,0,0,0-2-.8,1.56,1.56,0,0,1-1.56-.43l-.06,0c0-.38.1-.84.56-.82,1.09,0,2.26-.49,3.23.53C28.4,19.45,29.2,19.13,29.88,19.2Z"/><path class="cls-257" d="M18.77,23.63A4.82,4.82,0,0,1,21.46,21a1.08,1.08,0,0,1,.4.93,2.7,2.7,0,0,1-.24,1.87c-.57.5-1.23.29-1.86.26a1.16,1.16,0,0,1-1-.4Z"/><path class="cls-258" d="M21.47,21.89c0-.3,0-.59,0-.89l2,0c1,.3.58,1.17.65,1.82s-.26.86-.84.87C22.57,23.16,22.24,22.3,21.47,21.89Z"/><path class="cls-259" d="M48.92,61.78c-.69-.07-.86.35-.88.92-.59,0-.9.25-.86.86H45.45c-.35-.23-.6-.58-.93-.83h0a1,1,0,0,0-1-.46,1.73,1.73,0,0,1-.77-.17.73.73,0,0,1-.24-.22,3,3,0,0,1-.22-.78c.06-.66-.69-.51-.9-.9s-.44-.54-.8-.69c-.57-.22-.92-.61-.66-1.29A.82.82,0,0,1,41,57.88a8.36,8.36,0,0,1,2.38,1.31,5,5,0,0,0,2.27,1.44c1,.28,1.58.13,1.85-.85A4,4,0,0,1,49,57.86c1.24.06,1.43.31,1.28,1.71L49,61Z"/><path class="cls-260" d="M41.83,61.87c-.67-.15-1.63.27-1.78-.9l.08-.06a1,1,0,0,1,.87-.37,1.18,1.18,0,0,1,1,.16.79.79,0,0,1,.17.92A.55.55,0,0,1,41.83,61.87Z"/><path class="cls-261" d="M42.76,61.83l.87,0a.55.55,0,0,1,0,.83h-.87A.55.55,0,0,1,42.76,61.83Z"/><path class="cls-262" d="M42.76,61.83l0,.86c-.62.07-.92-.21-1-.82l.06-.07a.63.63,0,0,1,.88,0Z"/><path class="cls-263" d="M43.66,62.69l0-.83c.62-.06,1,.19.9.86Z"/><path class="cls-264" d="M44.52,62.73c.64-.1,1,.16.93.83C44.77,63.7,44.43,63.45,44.52,62.73Z"/><path class="cls-265" d="M53.4,52l0,1.81a.64.64,0,0,1,0,.89c-.17.66.33,1.66-.91,1.76-.64.41-.28,1.34-.9,1.76h0a.82.82,0,0,1-.83.3,7.83,7.83,0,0,1-1.38-1.13A1.55,1.55,0,0,1,50,55.88C51,55,51.36,53.59,52,52.44,52.4,51.8,52.76,51.53,53.4,52Z"/><path class="cls-266" d="M49.64,57.35c.61,0,1.17.12,1.15.94a.65.65,0,0,1,0,.88c0,.62-.26,1-.92.9a.19.19,0,0,1,0-.31c0-.77.15-1.62-1.08-1.48-1.09.67-1.64.38-1.69-.89A1,1,0,0,1,48,57a4.11,4.11,0,0,1,1,0A.81.81,0,0,1,49.64,57.35Z"/><path class="cls-267" d="M51.63,58.26c.14-.67-.41-1.69.9-1.76C52.49,57.22,52.72,58.08,51.63,58.26Z"/><path class="cls-268" d="M49.84,59.76l0,.31,0,.85L49,61C48.89,60.28,49.36,60,49.84,59.76Z"/><path class="cls-269" d="M50.79,59.17v-.88l.84,0A.73.73,0,0,1,50.79,59.17Z"/><path class="cls-270" d="M53.44,54.74l0-.89.88,0C54.35,54.44,54.05,54.74,53.44,54.74Z"/><path class="cls-271" d="M50.73,41.38c.25,0,.51,0,.77,0,1-.08,1.89.06,1.51,1.46a.88.88,0,0,0,0,.32c.33,1.74-.09,2.17-1.84,1.89-.44-.07-.88-.09-1.31-.13A4,4,0,0,1,48.64,44a.94.94,0,0,1,.09-.93,1.48,1.48,0,0,0,.72-1.15C49.54,41.14,50,40.89,50.73,41.38Z"/><path class="cls-272" d="M53.43,33.18v2c0,.47.07.88.65.94s1.13.08,1.15.84a1.14,1.14,0,0,1-.1.19,2.92,2.92,0,0,1-2.62.18,1.12,1.12,0,0,1-.39-1,2.91,2.91,0,0,0-1.62-2.93.88.88,0,0,1,.16-1,3.05,3.05,0,0,1,2.73,0A.59.59,0,0,1,53.43,33.18Z"/><path class="cls-273" d="M59.21,40.53c-.72.79-1.34,1.73-2.7,1a4,4,0,0,0-1.74-.11c-.58,0-.91-.24-.93-.84a.62.62,0,0,1,.47-.36,9.3,9.3,0,0,1,3.45-.14,3.38,3.38,0,0,1,1,.14A.6.6,0,0,1,59.21,40.53Z"/><path class="cls-274" d="M49.92,45.82c1.14,0,2.27,0,3.41,0,.62,0,1,.22,1,.89a1.12,1.12,0,0,1-.95.41A10,10,0,0,1,49.93,47a.7.7,0,0,1-.3-.89A.54.54,0,0,1,49.92,45.82Z"/><path class="cls-275" d="M54.34,40.47l-.5.08-3.08,0a.72.72,0,0,1-1,0c-.32-.68-.13-1.23.6-1.31a7.08,7.08,0,0,1,4,.24A.71.71,0,0,1,54.34,40.47Z"/><path class="cls-276" d="M49.85,40.5l.91,0,0,.86c-.59,0-.86.28-.86.86s-.23,1-.88,1c-.4-.21-.43-.58-.44-1a3.32,3.32,0,0,1,0-1.09C48.72,40.43,49.06,40,49.85,40.5Z"/><path class="cls-277" d="M61.42,38.52l.93.24-.06,1.74h0c-.27.31-.6.57-.85.91l0,0c-.69,0-1.23-.22-.48-.94C61.52,39.89,61.37,39.19,61.42,38.52Z"/><path class="cls-278" d="M57.88,46.76l0,.84a.58.58,0,0,1-.85,0c-.34-.08-.93,0-.74-.53A2.11,2.11,0,0,1,57.36,46C57.83,45.82,57.79,46.43,57.88,46.76Z"/><path class="cls-279" d="M49,44c.63,0,.88.34.9.91,0,.3,0,.59,0,.88l-.07,0c-.43.32-.87.29-1.12-.15A1.17,1.17,0,0,1,49,44Z"/><path class="cls-280" d="M57,48.52c0,.28,0,.57-.07.86-.65-.13-1.7.46-1.67-.92Z"/><path class="cls-272" d="M55.23,36.91c.66.17,1.64-.32,1.75.9l-.12.2a1.31,1.31,0,0,1-1.62,0A.68.68,0,0,1,55.16,37Z"/><path class="cls-281" d="M57,37.81c.66.18,1.68-.36,1.8.9l-.09.17a1.09,1.09,0,0,1-.92.28,1,1,0,0,1-.94-.3.7.7,0,0,1,.11-1Z"/><path class="cls-282" d="M59.21,40.53l-.48,0a1.11,1.11,0,0,1,0-1.73l.08-.06C59.8,39.05,59.93,39.59,59.21,40.53Z"/><path class="cls-283" d="M53.39,46.77l.9,0c0,.28,0,.56.05.83l-.06.09C53.28,47.89,53.15,47.76,53.39,46.77Z"/><path class="cls-284" d="M57,47.64l.85,0c0,.29,0,.58,0,.87l-.84,0Z"/><path class="cls-285" d="M49.64,57.35H49a1.46,1.46,0,0,0-1.18-.46.82.82,0,0,1-.45-.31c-.23-.45-.6-.48-1.08-.5-.87,0-1.74,0-2.62,0a1.44,1.44,0,0,1-1.12-.41,3.91,3.91,0,0,1-.08-2.55c.78-1.07,1.37-.24,2,.19a5.31,5.31,0,0,0,1.54.1c.39,0,.49-.14.47-.47-.17-.59-.66-.36-1-.38s-.9,0-1.13-.49.05-.85.36-1.18.37-.46.56-.69c.55-.16.7-.72,1-1.07a1,1,0,0,1,.87,0,1.26,1.26,0,0,0,1.75.6c.29-.08.37-.29.42-.57a2.09,2.09,0,0,1,3.32-1.66,5.83,5.83,0,0,1,1.64,1.1A4.65,4.65,0,0,1,53.4,52c-.25,0-.68.05-.67.27,0,1-1,1.56-1.11,2.52s-.84,1.15-1.34,1.65A3.83,3.83,0,0,0,49.64,57.35Z"/><path class="cls-286" d="M54.3,48.51c-1.07.1-1.8-.9-2.92-.82-1.47.1-1.64.15-1.57,1.62,0,.66-.17,1-.83,1-.6-.43-.4-1.08-.44-1.66a2.05,2.05,0,0,1,.15-.92,3.78,3.78,0,0,1,1.18-1l3.52,0c0,.6.34.85.89.89C54.29,48,54.29,48.23,54.3,48.51Z"/><path class="cls-287" d="M61.44,41.42c-.1-.66.18-1,.85-.91l0,.87Z"/><path class="cls-288" d="M59.63,29.85l.88,0c0,1.16.92.8,1.55.89a6.41,6.41,0,0,1,1.13.87h0c0,.3,0,.6,0,.9H61.41c-.26-.24-.48-.5-.92-.42-.11,0-.42.07-.54-.09-.58-.82-1.69-.7-2.37-1.34a1,1,0,0,1,.19-1A1.39,1.39,0,0,1,59.63,29.85Z"/><path class="cls-289" d="M57.82,29.86l0,.85c.24.27.53.53.21.92a3.83,3.83,0,0,0-2.53.84,3.43,3.43,0,0,1-2.12.71l0-.64a2,2,0,0,0-2.62,0v.88a.71.71,0,0,1,.06,1,3.36,3.36,0,0,1-2.31.26l-.36-.07c-.52-.25-.5-.93-1-1.22.09-1-.14-2,.65-3A5.29,5.29,0,0,0,49,28.08c1,0,.85-.7.88-1.32s-.1-1.33.85-1.37c0,.3,0,.6,0,.9.59.71,1.05,1.61,2.22,1.4.54,1.18,2.11.49,2.79,1.57.27.42,1.11.06,1.66.28A.55.55,0,0,1,57.82,29.86Z"/><path class="cls-151" d="M58.08,31.63l-.21-.92c1.33-.32,2.1,1,3.3,1.12.24,0,.22.43.24.69a2.52,2.52,0,0,1-2.3-.65C58.86,31.58,58.44,31.64,58.08,31.63Z"/><path class="cls-290" d="M57.82,29.86h-.4a1.11,1.11,0,0,0-1-.42.69.69,0,0,1-.53-.09,6.12,6.12,0,0,0-2.22-1,.75.75,0,0,1-.2-1.33,1.33,1.33,0,0,1,1.76.22h.89l.85.08c-.05.63.34.82.87.86,0,.61.33.89.94.82l.88.1,0,.81Z"/><path class="cls-291" d="M55.22,27.19h-1.8l-.15,0c-.37-.59-1.18-.22-1.59-.72l0-.15c0-.64.32-.88.91-.88h.89l0,0c.33.26.58.61.93.85l.85.07Z"/><path class="cls-292" d="M54.34,26.28c-.63.06-1-.19-.93-.85l.87,0Z"/><path class="cls-293" d="M53.42,27.19c0,.26.07.66.3.66,1.12,0,1.75,1.11,2.83,1.12.6,0,.86.31.87.88a4.17,4.17,0,0,1-2.55-.63,7.85,7.85,0,0,0-2.51-1.12,1.81,1.81,0,0,1-1.6-1.81h.89c.41.65,1.33.28,1.77.89Z"/><path class="cls-149" d="M63.19,31.63a1,1,0,0,1-1.12-.87l.23,0,.88.07Z"/><path class="cls-294" d="M41,35.22,41,36.93c-.25.34-.59.6-.86.93h0a1.32,1.32,0,0,1-1.71.26.76.76,0,0,1-.3-.29,2,2,0,0,1,0-1.77,1.77,1.77,0,0,1,.81-.48c.43,0,.75-.22.78-.7a.88.88,0,0,1,.5-.86.82.82,0,0,1,.92.22A.83.83,0,0,1,41,35.22Z"/><path class="cls-295" d="M41,41.38c-.29-1.3,1-2.08,1.09-3.29,0-.24.42-.24.67-.32A.64.64,0,0,1,43,38a3.77,3.77,0,0,1,0,2.37c-.68.48-.74,1.27-1,2a.75.75,0,0,1-.32.21.82.82,0,0,1-.92-.24A.78.78,0,0,1,41,41.38Z"/><path class="cls-296" d="M45.41,32.5l0,.89c.7,1,.63,1.62-.32,2.3-.22.15-.3.4-.5.55a.78.78,0,0,1-1-.06.5.5,0,0,1,0-.58c0-.54,0-1,.61-1.43s.24-1.08.33-1.64A.58.58,0,0,1,45.41,32.5Z"/><path class="cls-297" d="M38.33,37.84h1.75l0,.87c-.38.31-.44.83-.82,1.14a1.9,1.9,0,0,1-.39.11C37.82,39.57,37.63,38.75,38.33,37.84Z"/><path class="cls-298" d="M43.61,35.6l.08.5a1.24,1.24,0,0,1,.23,1.6.71.71,0,0,1-1.13.21l-.06-.14C42.84,37,42.42,36,43.61,35.6Z"/><path class="cls-299" d="M42.82,32.54c-.24.63.38,1.68-.89,1.8a.58.58,0,0,1-.31-.22,1.59,1.59,0,0,1,0-1.69.83.83,0,0,1,.92-.17A.57.57,0,0,1,42.82,32.54Z"/><path class="cls-300" d="M41,41.38l0,.94a.67.67,0,0,1,0,.94.69.69,0,0,1-.94-.07C40.21,42.5,39.71,41.53,41,41.38Z"/><path class="cls-301" d="M40.11,43.19l.85,0c.39.19.43.55.43.92a1,1,0,0,1-.29,1,.76.76,0,0,1-1-.12c0-.3,0-.6-.05-.91Z"/><path class="cls-85" d="M45.41,32.5l-.86,0c.11-.68-.43-1.67.85-1.8,0,.31,0,.61,0,.92a.62.62,0,0,1,0,.87Z"/><path class="cls-248" d="M43.67,29v.88l-.06.85a.71.71,0,0,1-1,.06,1.49,1.49,0,0,1,0-1.75.69.69,0,0,1,1.07-.1Z"/><path class="cls-302" d="M40.06,39.59c.07.62-.23.92-.84.94l0-.05a.64.64,0,0,1,0-.88h0A.63.63,0,0,1,40.06,39.59Z"/><path class="cls-303" d="M40.06,39.59h-.88c0-.61.27-.9.87-.88C40.05,39,40.05,39.3,40.06,39.59Z"/><path class="cls-304" d="M40.11,37.86c-.1-.67.21-1,.86-.93C41.05,37.58,40.78,37.9,40.11,37.86Z"/><path class="cls-305" d="M42.77,30.76l.84,0v.88a.63.63,0,0,1-.92.08A.62.62,0,0,1,42.77,30.76Z"/><path class="cls-306" d="M41,35.22l0-.91a.52.52,0,0,1,.82-.06l.11.09C42,35,41.67,35.28,41,35.22Z"/><path class="cls-307" d="M42.76,31.63l.86,0c.07.6-.16.94-.8.94l-.1,0a.6.6,0,0,1-.09-.77Z"/><path class="cls-190" d="M35.62,45v.87a.57.57,0,0,1-.83,0c-.95.13-.88.89-.89,1.53,0,.8-.35,1.15-1.15,1.11-1.15-.07-2.38.27-3.36-.71-.17-.17-.55-.13-.84-.18a.8.8,0,0,1-.85.24,3.59,3.59,0,0,1-.94-2,1.72,1.72,0,0,1,1.53-2,1.25,1.25,0,0,1,.33,0,1.9,1.9,0,0,0,2.47-1.61c.43-.3.93-.44,1.27,0a2.37,2.37,0,0,0,1.42.72.92.92,0,0,1,.3.18c.41.56,0,1.43.71,1.87Z"/><path class="cls-308" d="M27.68,47.6l.87,0v.89H26.77v0a.73.73,0,0,1-.23-.84.68.68,0,0,1,.27-.26A.74.74,0,0,1,27.68,47.6Z"/><path class="cls-309" d="M34.79,45.87h.83v.86C35,46.74,34.75,46.46,34.79,45.87Z"/><path class="cls-310" d="M35.64,47.61v.88l-.81,0C34.72,47.9,35,47.57,35.64,47.61Z"/><path class="cls-190" d="M29.44,49.38l-.88,0,0-.81C29.15,48.47,29.46,48.75,29.44,49.38Z"/><path class="cls-311" d="M36.55,42.73c-.09,1.33-.09,1.33-1.74,1.31-.53,0-.54-.67-1-.84l0,0c-1-.41-1.55-1.55-2.79-1.35a1.43,1.43,0,0,1-.81-.22c-.26-.4-.69-.66-.91-1.09a1,1,0,0,1,.26-1.1,6.63,6.63,0,0,1,3.74-2.06,3.91,3.91,0,0,1,3.59.75c.22.2.52.27.75.45a2,2,0,0,1-.06,2.06.85.85,0,0,1-.81.34c-.27,0-.59-.09-.72.3-.19.55.42.67.57,1A.49.49,0,0,1,36.55,42.73Z"/><path class="cls-312" d="M36.55,40.52l.86,0a.65.65,0,0,1,.93,0l-.06,1.76-1.73.46,0-.42A1.12,1.12,0,0,1,36.55,40.52Z"/><path class="cls-313" d="M33.86,43.2c.65-.09.93.22,1,.84,0,.29,0,.59,0,.88C33.45,44.9,34,43.86,33.86,43.2Z"/><path class="cls-314" d="M32.16,53.78l3.44,0a.63.63,0,0,1,.27.35c.08.41-.06.84-.43.89-1.12.12-2.3.53-3.34-.33v0a.6.6,0,0,1,0-.86Z"/><path class="cls-315" d="M35.66,53l.83-.06a.59.59,0,0,1,.27.27c-.06.92-.19,1-1,.71l-.11-.07Z"/><path class="cls-303" d="M38.34,40.51l-.93,0c0-.58.34-1.16,0-1.75a.67.67,0,0,1-.06-.93.64.64,0,0,1,.93.06l0,0c.13.66-.4,1.64.85,1.76v.88Z"/><path class="cls-316" d="M39.23,45.86l.81,0a.57.57,0,0,1,.32.23c.41,1.35.22,1.73-.92,1.8a.61.61,0,0,1-.28-.29Z"/><path class="cls-317" d="M38.25,49.37c0-.57.07-1.14.11-1.71l.8-.1.09.1a1.2,1.2,0,0,1,.23,1.58.68.68,0,0,1-1.11.17Z"/><path class="cls-318" d="M40.1,45l.86,0a.59.59,0,0,1,0,.92.57.57,0,0,1-.85,0l-.11,0Z"/><path class="cls-319" d="M32.07,53.87l0,.86-1.76-.06,0-.85Z"/><path class="cls-171" d="M29.47,52.89c-.61.08-.93-.19-.94-.8l.9,0C29.44,52.35,29.46,52.62,29.47,52.89Z"/><path class="cls-320" d="M36.61,51.21l.82,0a1.17,1.17,0,0,1,.26,1.64.7.7,0,0,1-1.12.16.6.6,0,0,1-.08-.08Z"/><path class="cls-321" d="M25,47.65h-.89l0,0c-.37-1.06-.24-1.2,1.25-1.34,1.36,0,1.6.26,1.4,1.35h0a.67.67,0,0,1-.91,0Z"/><path class="cls-322" d="M25.87,47.64l.91,0v.88l-.89,0Z"/><path class="cls-323" d="M36.57,53c1.23-.15.77-1.11.86-1.8h0c.26-.33.59-.59.86-.91l.06-.86c1.22-.12.72-1.1.88-1.75,1.21-.15.71-1.14.9-1.8.61,0,.87-.33.81-.93,0-.29,0-.57,0-.85.65-.43.21-1.38.87-1.8h0a1,1,0,0,1,.91-.4,1.08,1.08,0,0,1,1,.21A.93.93,0,0,1,44,43c-.75.59-.7,1.23-.3,2.06.5,1,.31,1.52-.67,2.14a1.47,1.47,0,0,0-.75,2,1.08,1.08,0,0,1-.62,1.48,3.7,3.7,0,0,0-2.08,2.92,5.3,5.3,0,0,1-1.1,2.33c-.35.42-.59.86.27,1s1.26.57,1.39,1.36a1.11,1.11,0,0,0,.8.82,1,1,0,0,1,.75.95.68.68,0,0,1-.67.34,1,1,0,0,1-.9-.31L39.21,60c.07-.64-.28-.86-.85-.86-.17-1.23-1.14-.73-1.82-.85h0c-.19-.2-.42-.38-.42-.69-.22-1.45-1.06-1.87-2.24-1.15l0,.1L33,56.45c0-.59-.25-.89-.85-.87,0-.29,0-.58,0-.87h2.61c.6,0,1-.2,1-.85C36.33,53.89,36.58,53.55,36.57,53Z"/><path class="cls-324" d="M38.31,50.27c0,.61-.24.92-.86.91l0-.89Z"/><path class="cls-325" d="M36.54,57.42v.85l-.87,0c0-.27,0-.54,0-.82A.57.57,0,0,1,36.54,57.42Z"/><path class="cls-326" d="M40.08,60.07l.89,0a.6.6,0,0,1,0,.86h-.88C40.11,60.63,40.09,60.35,40.08,60.07Z"/><path class="cls-327" d="M36.54,57.42h-.9l-.87-.08c.07-.65-.34-.84-.88-.9.14-1.3,1.14-.73,1.8-.8s.86.43.85,1Z"/><path class="cls-328" d="M25.44,46.71c-.61,0-1.35-.11-1.32.89h-.88c-.34-.24-.59-.59-.93-.84l-.2-.06c-.06-1.14-.93-.77-1.56-.84l-.86-.06,0-.8a.84.84,0,0,1-.18-1,1,1,0,0,1,1.46-.18,3.28,3.28,0,0,0,2,.55c1.1-.07,1.75.67,2.45,1.31A.66.66,0,0,1,25.44,46.71Z"/><path class="cls-329" d="M22.31,46.75c.65-.09,1,.19.93.84l-.88,0Z"/><path class="cls-328" d="M12.57,43.17l0-.85c.07-.33-.17-.53-.33-.78a2.12,2.12,0,0,1-.22-2.1,25.08,25.08,0,0,1,1.46-2.82,1.89,1.89,0,0,1,.88-.1,2.14,2.14,0,0,1,.91.08A6.86,6.86,0,0,0,18,38.43c.68,1,1.21,1,1.77.1a3.28,3.28,0,0,0,.64-.84,1.91,1.91,0,0,0,.94-.92c.51-.35,1.34-.15,1.62-.92.95-.53,1-.73,0-1.47a1,1,0,0,1-.11-.34c0-.77.36-1.07,1.09-1,.86.77,2.09.53,3,1.13.6,1-.41,1.39-.78,2-.88.21-.7,1.06-1,1.64-.29.32-.82.51-.68,1.11a9.44,9.44,0,0,1-.09,1.5c0,.12,0,.23-.08.35a10.37,10.37,0,0,0-2.08,2.25,1.48,1.48,0,0,1-1.67.56,1.09,1.09,0,0,0-1.35.66c-.75.28-1.48.44-2.08-.32a1,1,0,0,0-.78-.31,20.17,20.17,0,0,0-2.06-.05l-1,0a1.09,1.09,0,0,1-.86-.39Z"/><path class="cls-330" d="M13.44,37a2.69,2.69,0,0,1-.53,1.84c-.91,1.34-.73,1.92.7,2.65.16.08.33.17.34.38s-.21.37-.43.39-.66,0-1,.07l-1.72-.1c0-.27,0-.54,0-.81,0-.89,0-1.79,0-2.68l0-.43c.67,0,.88-.4.87-1s0-1.4,0-2.1h.85a.64.64,0,0,1,.48.64C12.89,36.31,13.43,36.55,13.44,37Z"/><path class="cls-331" d="M13.43,43.19l.9,0a.58.58,0,0,1,0,.85v.1L13.48,44A.57.57,0,0,1,13.43,43.19Z"/><path class="cls-332" d="M13.43,43.19l.05.85h-.89c0-.28,0-.55,0-.83Z"/><path class="cls-333" d="M16.56,43.18c.89.29,1.58,1.2,2.67.87a.31.31,0,0,1,.44,0V45l-1.78,0H17l0,0c-.29-.29-.65-.52-.76-1A.77.77,0,0,1,16.56,43.18Z"/><path class="cls-334" d="M16.56,44c.45.14.45.53.46.9l-.91,0,0,0a.64.64,0,0,1-.11-.87A.44.44,0,0,1,16.56,44Z"/><path class="cls-335" d="M16.1,44.09l0,.85-.89,0c0-.27,0-.54,0-.81A.54.54,0,0,1,16.1,44.09Z"/><path class="cls-336" d="M16.1,44.09h-.88L14.34,44c0-.28,0-.56,0-.85h2.23V44Z"/><path class="cls-337" d="M19.65,30.76c.89-.05,1.26-.79.69-1.21-1-.72-.86-1.51-.72-2.43a.72.72,0,0,1-.17-.88c.2-.29.55-.45.71-.81a1,1,0,0,1,1.45-.5,1,1,0,0,1,.57,1.47,7.66,7.66,0,0,0-.28,3c0,.45.12.74.59.82a1.89,1.89,0,0,1,.74.54h0a1,1,0,0,1,.39.83c.21,1-.67,1.43-1.12,2.08-1.13.55-1.51-.68-2.28-1a1.62,1.62,0,0,1-.82-1A.86.86,0,0,1,19.65,30.76Z"/><path class="cls-338" d="M19.65,30.76l0,.86c-.06.09-.1.23-.2.26a9.13,9.13,0,0,1-4.92,0c-.11,0-.14-.17-.21-.25,0-.29,0-.57,0-.86l.84-.07Z"/><path class="cls-66" d="M19.66,26.3l0,.82L17,27.19c0-.38.08-.83.54-.82,1.29,0,1.26-.83,1.24-1.72,0-.33,0-.66,0-1h.89A2,2,0,0,1,19.66,26.3Z"/><path class="cls-339" d="M12.62,36l-.09-.85c0-.59,0-1.19,0-1.79h.86l.19.1a2.37,2.37,0,0,1,0,2.63A.67.67,0,0,1,12.62,36Z"/><path class="cls-340" d="M14.35,31.64l5.33,0c.89,0,1.18.86,1.72,1.33a1.41,1.41,0,0,0,.93.46.67.67,0,0,1,.15.91,1,1,0,0,1-1.46.1A2.23,2.23,0,0,0,19.26,34a28,28,0,0,1-4.39,0,1.36,1.36,0,0,1-1.36-.52h-.1C13.6,32.74,13.08,31.71,14.35,31.64Z"/><path class="cls-341" d="M44.53,36.06c.21-.93,1.28-1.56.92-2.67.8-.14.93,1.06,1.75.88a.67.67,0,0,1,.91,0l.19,0a.79.79,0,0,1,.27.85c-.07.17-.18.36-.35.38-1,.15-1.41.89-1.86,1.62a1,1,0,0,1-.88.11A4.19,4.19,0,0,1,44.53,36.06Z"/><path class="cls-342" d="M48.11,34.27H47.2c0-.3,0-.6,0-.89C47.81,33.37,48.13,33.65,48.11,34.27Z"/><path class="cls-341" d="M45.44,32.52v-.87l.84,0C46.33,32.23,46.06,32.54,45.44,32.52Z"/><path class="cls-343" d="M41.82,34.25l-.82.06-.9,0L40,34.23a3,3,0,0,0-1.88-1.49c-.32-.76-1.17-.58-1.7-1a2.55,2.55,0,0,0-3.52.16,2.64,2.64,0,0,1-1.71,0c-.2-.13-.22-.43-.4-.52-1.09-.51-1-1.41-.82-2.35.2-.45,1-.54.79-1.26,0-.57-.13-1.17.32-1.65a1.25,1.25,0,0,1,.9-.2c.72.37.64,1.08.71,1.72.11,1.05.39,1.29,1.43,1.11.47-.08.93-.21,1.4-.27A2.23,2.23,0,0,0,37.34,27a2.73,2.73,0,0,1,1.49-.25c.35,0,.78,0,.94-.44a.91.91,0,0,1,.2-.24c.81-.2.34-1.24,1-1.53,2.6-.05,2.66,0,2.67,2.66v.87c0,.29,0,.57,0,.86-1.23.18-.73,1.14-.84,1.83v.87h0a8.21,8.21,0,0,0-.83.94Z"/><path class="cls-344" d="M31.25,26.34l-.06,1.72a.81.81,0,0,1-.83.33c-.52-.11-.76-.63-1.2-.86a1.16,1.16,0,0,1-.05-1.07.94.94,0,0,1,.15-.32c.92-.75.9-1.56-.06-2.44a2.35,2.35,0,0,1-.14-.37c0-1,.42-1.79,1.39-1.86a8.93,8.93,0,0,1,3.3.05c.61.45,1.29.79,1.91,1.23h0c.41.66,1.36.23,1.79.86l.84.07c.36.22.6.58.94.82l.41,0c.66.46,1.28.93.47,1.78h0c-.71.77-1.65.31-2.49.44a3.74,3.74,0,0,1-1.15-.14.8.8,0,0,1-.32-.19,1.85,1.85,0,0,0-.19-.27C35.26,25.62,31.92,25.77,31.25,26.34Z"/><path class="cls-345" d="M33.86,21.87c-.88,0-1.77,0-2.65,0-1.2.06-1.67.56-1.79,1.78a.62.62,0,0,1-.88,0A5.44,5.44,0,0,1,25.89,21c-.31-.42-.33-.86.12-1.13a1.22,1.22,0,0,1,1.66.23h2.44l.18,0a1.18,1.18,0,0,0,1.82,0h0a5.17,5.17,0,0,1,.88-.87l1.09,0A2.41,2.41,0,0,1,33.86,21.87Z"/><path class="cls-346" d="M33.86,21.87a10,10,0,0,1,.24-2.67c.27,0,.61.11.58.39a5.47,5.47,0,0,0,1,3.16C35,22.65,34,23.15,33.86,21.87Z"/><path class="cls-347" d="M40.11,26.31a5.21,5.21,0,0,0-.47-1.78H41C40.84,25.21,41.42,26.22,40.11,26.31Z"/><path class="cls-346" d="M37.45,23.61c-.69-.1-1.69.45-1.79-.86C36.34,22.85,37.33,22.33,37.45,23.61Z"/><path class="cls-347" d="M39.23,24.5c-.61.08-.94-.19-.94-.82C38.92,23.59,39.23,23.86,39.23,24.5Z"/><path class="cls-346" d="M33,19.23a.75.75,0,0,1-.88.87c0-.37,0-.73.42-.91Z"/><path class="cls-348" d="M32.11,20.09a.75.75,0,0,1-.84.88c-.61,0-1-.2-1-.85Z"/><path class="cls-349" d="M23.24,31.6v-.87c1,0,1.63-.21,1.85-1.38.27-1.36,1.48-1.32,2.58-1.28a.79.79,0,0,1,.3.78.64.64,0,0,1-.16.29,1.59,1.59,0,0,1-.8.27c-.27,0-.52.12-.52.44s.32.33.55.4a2.63,2.63,0,0,1,2.63,1.09,1,1,0,0,0,1,.79.73.73,0,0,1,.77.39c.09,1-.13,1.36-1.07,1.34a1.92,1.92,0,0,0-1.81.64,1.34,1.34,0,0,1-1.76-.17c-.4,0-.8.1-1.21.11-.74,0-1.42-.11-1.52-1C23.4,33,23.88,32,23.24,31.6Z"/><path class="cls-350" d="M19.66,26.3c0-.88,0-1.76,0-2.63l1.71-.06c.59-.45,1.07-.41,1.36.32a2.65,2.65,0,0,0,.44.6h0a1.1,1.1,0,0,1,0,1.77l0,.84c-.64.58-.37,1.37-.42,2.07,0,.54.09,1.09-.41,1.49-.58,0-.91-.22-.9-.82a12.45,12.45,0,0,1,.18-3.5c.11-.37.21-.72-.18-1s-.74,0-1,.36A1.35,1.35,0,0,1,19.66,26.3Z"/><path class="cls-351" d="M23.21,24.53c-.83.14-.95-1.09-1.8-.92l.06-1.72c1.72,0,1.72,0,1.78,1.76C23.24,24,23.23,24.24,23.21,24.53Z"/><path class="cls-352" d="M27.67,20.08c-.68.15-1.7-.42-1.78.9a2.18,2.18,0,0,1-1.75-1.76l2.54,0C27.29,19.19,27.67,19.41,27.67,20.08Z"/><path class="cls-353" d="M22.36,30.71c0-.85,0-1.7,0-2.55,0-.61.2-1,.87-1,0,1.2,0,2.39,0,3.58Z"/><path class="cls-354" d="M28.54,23.66h.88a2.08,2.08,0,0,1,0,2.65h0a.62.62,0,0,1-.87,0Z"/><path class="cls-355" d="M28.58,26.33l.87,0c0,.37,0,.74,0,1.1.35.74,0,.95-.67.89a.55.55,0,0,1-.28-.26Z"/><path class="cls-351" d="M23.23,26.31c0-.59,0-1.18,0-1.77.64,0,.89.31.89.93S23.79,26.31,23.23,26.31Z"/><path class="cls-356" d="M27.66,29v-.89l.83,0,.09.06a.61.61,0,0,1-.07.93A.6.6,0,0,1,27.66,29Z"/><path class="cls-357" d="M40.1,58.27c-.63-.11-.83-1-1.55-.89a.88.88,0,0,1,.11-1.49,2.91,2.91,0,0,0,1-1.64C40,52.93,41,52.39,42,52.84a1,1,0,0,1,.2.89c-.06.46-.69.4-.76,1-.14,1,.09,1.33,1.4,1.37a7.09,7.09,0,0,1,.8,0,2.27,2.27,0,0,0,1.13,0c.84.07,1.73-.25,2.51.31a.77.77,0,0,1-.08,1,1.34,1.34,0,0,0,1.55.9c-.63,1-.49,2.36-1.62,3.09-.25.16-.57.51-.74.36-.84-.7-2.16-.47-2.81-1.41A5.68,5.68,0,0,0,40.1,58.27Z"/><path class="cls-358" d="M41,60.91c0-.29,0-.57,0-.86h.68c.63,0,1.15.1,1.11.91a.66.66,0,0,1-.91,0Z"/><path class="cls-359" d="M41.85,61l.91,0v.86h-.88C41.88,61.53,41.86,61.25,41.85,61Z"/><path class="cls-265" d="M48.08,56.51c.59,0,.91.22.92.83l-.89,0A.58.58,0,0,1,48.08,56.51Z"/><path class="cls-360" d="M48.08,56.51l0,.85-.9,0-.06-.84a.38.38,0,0,1,.52-.07Z"/><path class="cls-361" d="M49.87,46.73c0,.61-.25.91-.86.92l-.16,0c-.69-.59-1.65-.89-2-1.87a1.54,1.54,0,0,1,.05-.9,5.08,5.08,0,0,0,.76-2c.11-.84.55-1,1.28-.57l0,.93c0,.28,0,.56,0,.83.11.69-.44,1.68.85,1.82C49.85,46.14,49.86,46.43,49.87,46.73Z"/><path class="cls-362" d="M49,42.27c-1,0-.87.81-.86,1.44s0,1.28-.93,1.29a1.35,1.35,0,0,1-1.55.28,1,1,0,0,1-.34-.15,1.62,1.62,0,0,0-.87-.89.67.67,0,0,1-.18-.33,1,1,0,0,1,.18-.93c.47-.39,1.05-.18,1.57-.26s.77-.25.74-.78-.09-1.09.27-1.56a4.56,4.56,0,0,1,.86-.42,1.21,1.21,0,0,0,.5-1.87c-.68-.89-.34-1.5.33-2.07s1.88-.36,2.8-.67c.26-.09.55.29.58.67a1.08,1.08,0,0,0,.51.91l2.59.06c.12,1.23,1.12.75,1.78.92,0,.27,0,.54.05.82a.66.66,0,0,1-.76.5,8.6,8.6,0,0,0-1.94.41l-3.43,0c-.61,0-1,.21-1,.88C48.61,40.61,49.11,41.6,49,42.27Z"/><path class="cls-363" d="M52.57,36.93a.89.89,0,0,1-.8-.26c-.22-.3-.08-1.05-.62-.86-.72.26-1.58.06-2.19.64a1,1,0,0,0-.26,1.44c.67,1.13.35,2.25-.62,2.62-.48-.32-.44-.85-.47-1.31s.1-.81-.37-1A.92.92,0,0,1,47,38a1.57,1.57,0,0,0-.63-.87L46.3,37c.06-1.76.06-1.76,2-1.81a1.32,1.32,0,0,1,1.2-.42c.46,0,.92,0,1.17-.5,0-.27,0-.54.08-.81,1.75,0,1.75,0,1.75,1.73C52.53,35.75,52.56,36.34,52.57,36.93Z"/><path class="cls-364" d="M50.78,32.55c0-1.06.83-.89,1.49-.92s1.18.08,1.13.91Z"/><path class="cls-365" d="M54.29,39.64c0-.78.22-1.14,1.08-1a8.64,8.64,0,0,0,1.61,0l.86,0a1,1,0,0,1,0,1.73l-3.51,0C54.32,40.19,54.31,39.92,54.29,39.64Z"/><path class="cls-366" d="M57.85,40.5c0-.58,0-1.16,0-1.73h.86l0,1.73Z"/><path class="cls-367" d="M45.44,50.32c0,.59-.91,1-.57,1.54s1,.15,1.58.21.74.38.73.89c-.38.53-1,.44-1.48.43a1.27,1.27,0,0,0-1.16.44c-.82.22-.91-1-1.71-.86a.47.47,0,0,1-.29-.14.79.79,0,0,1,0-.8.65.65,0,0,1,.22-.25c.81-.34.3-1.31.84-1.79a1.22,1.22,0,0,1,.86-.14,1.37,1.37,0,0,1,.84.18A.48.48,0,0,1,45.44,50.32Z"/><path class="cls-368" d="M47.67,56.47l-.52.07H44.57a.74.74,0,0,1-1,0l-.84-.06a.57.57,0,0,1-.13-.77l.13-.11H46.5C47.11,55.61,47.58,55.77,47.67,56.47Z"/><path class="cls-368" d="M41.83,53.78l0-.85L42,52.8a.62.62,0,0,1,.79.14l.07,0-.06,2.63-.05,0a.7.7,0,0,1-1.11-.2A1.36,1.36,0,0,1,41.83,53.78Z"/><path class="cls-369" d="M44.54,53.83a.75.75,0,0,1,.87-.88h1.77c0,.63-.28.88-.86.87Z"/><path class="cls-370" d="M47.18,49.43h-.84a.74.74,0,0,1-1,0c-.23-1-.08-1.26.79-1.38a3.25,3.25,0,0,1,1.85.19.8.8,0,0,1,.33.3C48.33,49.58,48.2,49.7,47.18,49.43Z"/><path class="cls-371" d="M47.18,49.43c.6,0,1-.27,1-.9.26-.31.54-.25.82,0v1.77C48.3,50.15,47.32,50.7,47.18,49.43Z"/><path class="cls-372" d="M45.41,49.38l.93,0a.81.81,0,0,1-.9.89l0-.08a.57.57,0,0,1-.12-.75Z"/><path class="cls-373" d="M49,48.5l-.82,0L48,48.48c-.22-1-.1-1.12.9-.92l.08.09C49,47.93,49,48.21,49,48.5Z"/><path class="cls-374" d="M50.7,34.24c.08.65-.21.95-.86.93H48.33l0-.84Z"/><path class="cls-290" d="M53.42,27.19c-.68-.13-1.69.41-1.77-.89C52.37,26.32,53.22,26.12,53.42,27.19Z"/><path class="cls-375" d="M38.3,37.86l-.86,0-.15-.07c-.19-.4-.64-.45-.93-.7a.93.93,0,0,1-.14-.36c.16-1.12.51-1.29,1.87-.93a.65.65,0,0,1,.26.31Z"/><path class="cls-376" d="M39.18,36l-.83.05L38.27,36a2.34,2.34,0,0,1-.2-2.58.84.84,0,0,1,.32-.3c.94-.23,1.19.32,1.25,1.09C39.57,34.87,39.84,35.57,39.18,36Z"/><path class="cls-377" d="M39.18,36l0-1.77a.64.64,0,0,1,.88,0h0C40,35,40.54,36,39.18,36Z"/><path class="cls-378" d="M44.53,36.06c.59,0,.92.27.89.89A11.2,11.2,0,0,1,44,40.37a.76.76,0,0,1-1.12.36.46.46,0,0,1-.19-.28c0-.85.05-1.7.07-2.54,1.2-.16.75-1.13.9-1.81Z"/><path class="cls-379" d="M42.76,42.29h-.89c.08-.71-.38-1.67.85-1.84l.08.11A1.07,1.07,0,0,1,42.76,42.29Z"/><path class="cls-379" d="M41.87,42.28c-.08.71.38,1.66-.87,1.8l0-.93c0-.28,0-.55,0-.83Z"/><path class="cls-380" d="M41.92,32.56c-.09-.64.15-1,.83-.94l0,.89Z"/><path class="cls-217" d="M19.67,44.06h-.44c0-.67.38-.91,1-.87a1.79,1.79,0,0,0,2.13-1.24c.27-.74,1.15-.83,1.77-1.21.78.28,1.73.19,2.27,1,.1.14.36.09.39.07,1.18-.79,2.33.31,3.5,0a1.07,1.07,0,0,1,.77.19.53.53,0,0,1,.16.27c-.1.7.58,1.48.13,2s-1.25,0-1.9,0c-2,0-2.37.43-1.88,2.34a6.25,6.25,0,0,1,.13,1h-.91c-.16-.71-.69-.88-1.33-.9A3.17,3.17,0,0,0,22.63,45a2.24,2.24,0,0,1-2-.64C20.39,44.05,20,44.07,19.67,44.06Z"/><path class="cls-381" d="M31.21,41.41c1.53,0,2.38.55,2.67,1.77-.74,0-1.51.14-2-.7-.08-.14-.46-.11-.7-.16l0,0A.61.61,0,0,1,31.21,41.41Z"/><path class="cls-382" d="M37.44,37.84v.89c-1.78-1.44-3.71-1-5.62-.38a3.51,3.51,0,0,0-2.15,2.17c-.31.41-.72.35-1.18.39-.86.06-1.71,0-2.57,0a1.27,1.27,0,0,1-1.06-.29,1.31,1.31,0,0,1-.16-1.28A3.16,3.16,0,0,1,28,38.33a3.09,3.09,0,0,0,1.08-.06c.49,0,.83-.12.8-.7a8.7,8.7,0,0,1,.22-.88A2.39,2.39,0,0,1,32,35.78c.59-.06,1.19,0,1.78,0A2.68,2.68,0,0,1,36.55,37h0a7.39,7.39,0,0,1,.88.89Z"/><path class="cls-383" d="M25.86,40.56l3.8,0c.55,0,.65.42.69.86,0,.06-.09.12-.13.19a1.6,1.6,0,0,1-1.34.22,3.91,3.91,0,0,0-1.8,0C26.16,42,25.67,41.48,25.86,40.56Z"/><path class="cls-172" d="M36.55,40.52c0,.59,0,1.19,0,1.79-.85,0-1-.8-1.56-1.2-.27-.2.06-.52.39-.55S36.15,40.53,36.55,40.52Z"/><path class="cls-383" d="M31.21,41.41c0,.29,0,.58,0,.87h-.89a.57.57,0,0,1-.07-.81l.09-.09Z"/><path class="cls-384" d="M48.93,47.56c-.64,0-.89.33-.9.92l-1.75,0c-.59,0-.88.28-.87.87h0a5.76,5.76,0,0,1-.92.86l-.83.06c-.7.38-.24,1.36-.91,1.76h0a12.32,12.32,0,0,0-.87.9l0,0a1.94,1.94,0,0,0-1.71,1.72A1.82,1.82,0,0,1,39,56.35c-.44.17-.46.62-.46,1-.44,0-.94.06-1.07-.54a1.2,1.2,0,0,1,.46-1.28,3.57,3.57,0,0,0,1-1.86c.48-1.32.57-3.07,2.45-3.51.61-.15.51-.68.26-1.08-.65-1-.11-1.72.76-2.14,1.06-.52,1.1-1.2.68-2.17-.29-.65-.69-1.47.57-1.63l.15,0c.29.26.47.62.77.87h0c.31.28.59.59.9.87h0c.39.68,1.37.21,1.77.9A2.27,2.27,0,0,1,48.93,47.56Z"/><path class="cls-385" d="M42.76,42.29c0-.58,0-1.16,0-1.73.24-.07.67-.08.66-.31-.07-1,1-1.57,1.09-2.53,0-.58.38-.75.87-.77l.88,0h0a1.07,1.07,0,0,1,.43.94c.09,1,0,2,.06,3a2.12,2.12,0,0,1-.83,1.6,2.14,2.14,0,0,1-2.28-.23Z"/><path class="cls-386" d="M43.67,42.3l2.18,0a.45.45,0,0,1,.54,0,.59.59,0,0,1-.11.86l-1.71.09a.65.65,0,0,1-.89,0l-.06,0C43.63,42.88,43.65,42.59,43.67,42.3Z"/><path class="cls-387" d="M13.51,33.41c2-.15,4.1.29,6.15-.11a1.73,1.73,0,0,1,1.61.54,1.28,1.28,0,0,0,1.08.44l.16.12c.55,1.34.38,1.79-.81,2.23-.38.23-.7,0-1-.14a10.87,10.87,0,0,0-3-.74c-.47-.06-.9,0-.8.67a.83.83,0,0,1-.47.91A1.09,1.09,0,0,1,15.21,37l-.85,0c-.24-.35-.81-.38-.88-.9Z"/><path class="cls-388" d="M26.83,34.33l1.71-.08.16.09a.85.85,0,0,1,.16.84,1,1,0,0,1-.35.53c-.37.34-.35.62.18.74s.8.34.78.88a1.11,1.11,0,0,1-1.35,1c-.8-.08-1.65.23-2.39-.32a1.45,1.45,0,0,1,.15-1.91C25.73,35.24,27,35.16,26.83,34.33Z"/><path class="cls-389" d="M30.26,41.47l.07.81a3.51,3.51,0,0,1-2-.3c-.09-.06-.25-.14-.3-.1-1.37,1.17-2.28-.52-3.46-.57-.29,0-.37-.32-.42-.58v-.24a.65.65,0,0,1,.9,0l.84.07c0,.77.52.85,1.12.86Z"/><path class="cls-390" d="M15.21,37l1.35,0c.08-.07.2-.19.28-.15,1.13.53,2.43.33,3.57.81a.52.52,0,0,1,.18.3c0,.36,0,.7-.46.84a1.69,1.69,0,0,1-2.25,0A3.21,3.21,0,0,1,15.21,37Z"/><path class="cls-391" d="M23.24,31.6c1.3.11.74,1.12.86,1.79-.6,0-.9.28-.86.88a.56.56,0,0,1-.87,0h0c0-.29,0-.58,0-.87C22.18,32.58,23.21,32.35,23.24,31.6Z"/><path class="cls-392" d="M22.37,34.27h.87a1.14,1.14,0,0,1,0,1.8c-.09,1.18-1,.82-1.71.93a.2.2,0,0,1-.2-.14.32.32,0,0,1,.13-.36A2.17,2.17,0,0,0,22.37,34.27Z"/><path class="cls-393" d="M17.88,38.75h2.25c-.23.74-.79.88-1.47.85S17.9,39.26,17.88,38.75Z"/><path class="cls-394" d="M23.23,36.08c0-.6,0-1.2,0-1.8.64,0,.88.34.86,1S23.79,36.07,23.23,36.08Z"/><path class="cls-395" d="M13.48,36a.8.8,0,0,1,.88.9l-.92.05c-.6,0-.91-.31-.82-1Z"/><path class="cls-396" d="M25.88,36.06v1.76a.51.51,0,0,1-.7.23A.47.47,0,0,1,25,37.8C25.12,37.15,24.62,36.14,25.88,36.06Z"/><path class="cls-397" d="M25,40.49h-.9c0-.57,0-1.15,0-1.73a.65.65,0,0,1,.92-.09.6.6,0,0,1,0,.75Z"/><path class="cls-398" d="M25,38.72l-.86,0c-.08-.63.23-.92.83-1l.08.09A.55.55,0,0,1,25,38.72Z"/><path class="cls-399" d="M21.52,37a.83.83,0,0,1-.93.91.61.61,0,0,1-.05-.12c-.25-1-.12-1.11.88-.87Z"/><path class="cls-400" d="M37.45,27.17c.27,1-.31,1.48-1.12,1.71-1,.27-2,.41-3,.62-.77.15-1.12-.24-1.16-.95s0-1.47,0-2.21c.45-.7,1.15-.45,1.76-.45.84,0,1.73-.29,2.46.39l0,0c.32.3.77.4,1.09.71A.69.69,0,0,0,37.45,27.17Z"/><path class="cls-401" d="M27.66,29c.62.05.91-.26.92-.86.46,0,.82-.15.86-.69a1.31,1.31,0,0,1,.89.68.65.65,0,0,1,0,.9c0,.72-.27,1.53.69,1.94.14.07.15.46.21.69-.6.7-1.22.56-1.84,0-.92-.18-1.54-1.26-2.64-.91-.48-.57-.42-1,.29-1.33a1.85,1.85,0,0,0,.58-.45Z"/><path class="cls-402" d="M36.33,26.28l-4.22.06h-.86c-.06-.66.28-.93.91-.92h3.28A.77.77,0,0,1,36.33,26.28Z"/><path class="cls-403" d="M29.42,31.65l1.84,0,1.66-.05a.57.57,0,0,1,.3.25.78.78,0,0,1-.16.93,1.28,1.28,0,0,1-1,.18,1.32,1.32,0,0,1-.93-.4C30.46,32.44,29.51,32.89,29.42,31.65Z"/><path class="cls-403" d="M32.92,31.57c.07-.43.21-.8.73-.81.74,0,1.48,0,2.21,0,.52,0,.69.36.72.81a.66.66,0,0,1-.26.33c-1.13.18-2.27.52-3.33-.27Z"/><path class="cls-404" d="M36.58,31.57c.65.18,1.65-.31,1.76.91a.59.59,0,0,1,0,.86.62.62,0,0,0,0,.13c-1.12.72-1.5-.26-2-.88a.84.84,0,0,1,.23-.93Z"/><path class="cls-402" d="M37.43,26.31h2.65a.75.75,0,0,1-.86.88H37.45A.59.59,0,0,1,37.43,26.31Z"/><path class="cls-405" d="M38.31,33.34l0-.86a1.88,1.88,0,0,1,1.77,1.8h-.88C39.24,33.65,38.86,33.41,38.31,33.34Z"/><path class="cls-406" d="M30.36,29l0-.9.86,0A.74.74,0,0,1,30.36,29Z"/><path class="cls-345" d="M29.46,26.31c0-.88,0-1.77,0-2.65,1,.15.89,1,.91,1.68S30.12,26.32,29.46,26.31Z"/><path class="cls-343" d="M37.43,26.31c0,.29,0,.57,0,.86a1,1,0,0,1-1.14-.84Z"/><path class="cls-407" d="M31.14,32.53l1,0a1.36,1.36,0,0,1,.35,1.62c-.25.65-.88.62-1.43.59-.82,0-1.7.23-2.45-.35,0,0,0-.08,0-.12,0-1.06.83-.82,1.45-.85S31.24,33.47,31.14,32.53Z"/><path class="cls-356" d="M27.65,29c0,.37,0,.71-.45.88s-.42.53-.42.9c-.65,0-.9-.3-.89-.93s.43-.85,1-.85Z"/><path class="cls-408" d="M41.83,53.78c.18.68-.41,1.73.89,1.87,0,.28,0,.56.05.83-1.75,0-1.92-.15-1.8-1.82C41,54.07,41.25,53.79,41.83,53.78Z"/><path class="cls-409" d="M43.61,56.54h1c-.07.34,0,.79-.53.75S43.67,56.84,43.61,56.54Z"/><path class="cls-410" d="M47.2,45.85c-.67-.14-1.71.43-1.77-.9l1.74,0Z"/><path class="cls-411" d="M46.31,42.29l-.46,0c.79-1.4.35-2.93.46-4.41a.61.61,0,0,1,.88,0h0a2.21,2.21,0,0,1,.06,2.7l-.09,1.69A.56.56,0,0,1,46.31,42.29Z"/><path class="cls-412" d="M47.25,40.56l-.06-2.7c.64,0,.9.31.89.93v1.72Z"/><path class="cls-413" d="M45.43,44.94c-.64.07-.93-.23-.9-.87C45.16,44,45.47,44.3,45.43,44.94Z"/><path class="cls-414" d="M43.68,43.19l.89,0c0,.28,0,.56,0,.85C43.91,44.11,43.59,43.85,43.68,43.19Z"/><path class="cls-415" d="M46.31,42.29l.85,0c.08.66-.21,1-.88.88Z"/><path class="cls-416" d="M47.19,37.86h-.88c0-.29,0-.58,0-.87C46.94,36.92,47.23,37.22,47.19,37.86Z"/><path class="cls-417" d="M42.76,52.06c.12-.68-.47-1.73.91-1.76C43.47,50.94,44.13,52,42.76,52.06Z"/><path class="cls-418" d="M41.89,53c-.06-.64.21-1,.87-.9v.88Z"/><path class="cls-419" d="M44.5,50.24c0-.62.29-.92.92-.86,0,.29,0,.58,0,.87Z"/><path class="cls-420" d="M36.56,32.5c.85-.16.92,1.11,1.76,1,0,.85,0,1.71,0,2.57-.65.16-1.66-.36-1.72.91a8.3,8.3,0,0,0-3.94-.67,4.21,4.21,0,0,0-2.29.68.71.71,0,0,1-1.12,0c-.59,0-1.17,0-1.75,0-.36,0-.81-.31-.49-.58.49-.42.74-1.24,1.6-1.16.5-.67,1.24-.47,1.88-.45,1,0,1.82.07,2.47-1,.48-.85,1.68-1.09,2.55-1.61A1.19,1.19,0,0,1,36.56,32.5Z"/><path class="cls-420" d="M37.43,37.84c-.56,0-.79-.39-.88-.89C37.16,36.93,37.45,37.23,37.43,37.84Z"/><path class="cls-421" d="M29.2,37h1.12v.88c-.28.31-.58.6-.88.89-1.5.07-3.07-.29-4.42.69l0-.7c0-.28,0-.55.05-.83l.83-.07c.66,0,1.33,0,2,0A1.13,1.13,0,0,0,29.2,37Z"/><path class="cls-420" d="M29.44,38.73a.83.83,0,0,1,.88-.89C30.35,38.46,30.06,38.75,29.44,38.73Z"/><path class="cls-422" d="M21.42,36.93c-.59,0-.89.28-.88.87l-1.63.07c-.92.05-1.81,0-2.35-.91,0-.52-.39-.74-.81-.92-.21-.09-.4-.26-.3-.5a.59.59,0,0,1,.42-.3c2-.12,3.94-.14,5.58,1.27Z"/><path class="cls-423" d="M35.45,32.53c-.41.51-1.25.46-1.55,1-1.27,2.28-3.42,1.59-5.34,1.66v-.82c.56,0,1.11-.06,1.66-.06,1.86,0,1.86,0,1.87-1.8l.85,0A2,2,0,0,1,35.45,32.53Z"/><path class="cls-424" d="M35.45,32.53l-2.51-.05c0-.28,0-.56.05-.85l3.53,0c0,.28,0,.56,0,.84Z"/></g></g></svg>