<svg xmlns="http://www.w3.org/2000/svg" viewBox="0 0 74 74"><defs><style>.cls-1{fill:#1e2223;}.cls-2{fill:#043949;}.cls-3{fill:#454444;}.cls-4{fill:#9d9a9a;}.cls-5{fill:#8e8e8e;}.cls-6{fill:#575757;}.cls-7{fill:#0e4b5b;}.cls-8{fill:#949393;}.cls-9{fill:#1d5567;}.cls-10{fill:#a9bcc6;}.cls-11{fill:#666363;}.cls-12{fill:#272727;}.cls-13{fill:#8ea1aa;}.cls-14{fill:#7d7878;}.cls-15{fill:#aaa9a9;}.cls-16{fill:#a7a7a7;}.cls-17{fill:#504e4e;}.cls-18{fill:#698997;}.cls-19{fill:#807c7c;}.cls-20{fill:#70858d;}.cls-21{fill:#7d7b7b;}.cls-22{fill:#9db2bc;}.cls-23{fill:#41494d;}.cls-24{fill:#636161;}.cls-25{fill:#535353;}.cls-26{fill:#929899;}.cls-27{fill:#73878e;}.cls-28{fill:#6f848e;}.cls-29{fill:#738b94;}.cls-30{fill:#383838;}.cls-31{fill:#d0d0d0;}.cls-32{fill:#8a9ca4;}.cls-33{fill:#4a4a4a;}.cls-34{fill:#a09f9f;}.cls-35{fill:#405863;}.cls-36{fill:#65787f;}.cls-37{fill:#939090;}.cls-38{fill:#718388;}.cls-39{fill:#1b1e1f;}.cls-40{fill:#4e4d4d;}.cls-41{fill:#575c5d;}.cls-42{fill:#b3c2c9;}.cls-43{fill:#8a8686;}.cls-44{fill:#515151;}.cls-45{fill:#3b4447;}.cls-46{fill:#dce5e9;}.cls-47{fill:#3e3e3e;}.cls-48{fill:#4d4d4d;}.cls-49{fill:#b4b4b4;}.cls-50{fill:#2a2a2a;}.cls-51{fill:#b5b7b8;}.cls-52{fill:#004052;}.cls-53{fill:#677c84;}.cls-54{fill:#7e8588;}.cls-55{fill:#5f5d5d;}.cls-56{fill:#5c5959;}.cls-57{fill:#9e9e9e;}.cls-58{fill:#d5d5d5;}.cls-59{fill:#b3b3b3;}.cls-60{fill:#8d8a8a;}.cls-61{fill:#a6a4a4;}.cls-62{fill:#726e6e;}.cls-63{fill:#b6b6b6;}.cls-64{fill:#b2b2b2;}.cls-65{fill:#5f5e5e;}.cls-66{fill:#5b5b5b;}.cls-67{fill:#c6c6c6;}.cls-68{fill:#4b4a4a;}.cls-69{fill:#a9a8a8;}.cls-70{fill:#2a5c6d;}.cls-71{fill:#797979;}.cls-72{fill:#b0afaf;}.cls-73{fill:#a5a4a4;}.cls-74{fill:#6a6868;}.cls-75{fill:#989797;}.cls-76{fill:#83aec3;}.cls-77{fill:#bbd0dc;}.cls-78{fill:#333;}.cls-79{fill:#151515;}.cls-80{fill:#adaaaa;}.cls-81{fill:#ddd;}.cls-82{fill:#fafafa;}.cls-83{fill:#ccc;}.cls-84{fill:#f3f3f3;}.cls-85{fill:#464646;}.cls-86{fill:#b9b9b9;}.cls-87{fill:#777373;}.cls-88{fill:#605f5f;}.cls-89{fill:#383737;}.cls-90{fill:#323131;}.cls-91{fill:#525252;}.cls-92{fill:#6c98ad;}.cls-93{fill:#f8fafa;}.cls-94{fill:#bfcdd6;}.cls-95{fill:#57879b;}.cls-96{fill:#bbb;}.cls-97{fill:#b1b1b1;}.cls-98{fill:#437589;}.cls-99{fill:#33697b;}.cls-100{fill:#9aa2a5;}.cls-101{fill:#92aab3;}.cls-102{fill:#4d7e91;}.cls-103{fill:#a2adb2;}.cls-104{fill:#3d6d80;}.cls-105{fill:#bec1c2;}.cls-106{fill:#889da5;}.cls-107{fill:#7a7575;}.cls-108{fill:#a1a1a1;}.cls-109{fill:#6b6969;}.cls-110{fill:#4e4e4e;}.cls-111{fill:#272626;}.cls-112{fill:#8fb7cc;}.cls-113{fill:#d3e1e9;}.cls-114{fill:#3f3f3f;}</style></defs><title>제동계통_1</title><g id="레이어_2" data-name="레이어 2"><g id="레이어_1-2" data-name="레이어 1"><rect class="cls-1" width="74" height="74" rx="8.33" ry="8.33"/><path class="cls-2" d="M26.79,19.06c.54.59.15,1.06-.14,1.61a17.55,17.55,0,0,0-1.78,6.5c-.53.19-.81-.17-1.09-.51-.46-.67-1-.51-1.6-.19a22.54,22.54,0,0,1-2.54,1c-2.27.94-2.8.66-3.63-1.73-.1-.86.46-1.48.8-2.19.85-1.93,2.59-3.06,4.07-4.43a9.7,9.7,0,0,1,2.61-1,14.67,14.67,0,0,1,2.48,0,1.34,1.34,0,0,1,.64.26A.6.6,0,0,1,26.79,19.06Z"/><path class="cls-3" d="M44.51,19.27c1.71.52,2.08,2.15,2.82,3.45.44.76-.07.94-.71,1.3-1.86,1-3.8,1.93-5.72,2.94,2.4-.06,4.58-1,6.85-1.61a.65.65,0,0,1,.18.56c-.21.67-.79,1-1.28,1.36a3.46,3.46,0,0,1-.85.5,2.85,2.85,0,0,1-.65.11,16.73,16.73,0,0,0-3.61,1c-1.67.69-3,.5-3.73-1.39a4.7,4.7,0,0,1,0-1.45C38.1,24.88,39,24.49,40,24.15a30.74,30.74,0,0,0,3.48-1.26c.93-.43,1.61-1,1-2.15a2.1,2.1,0,0,1-.28-.91A.86.86,0,0,1,44.51,19.27Z"/><path class="cls-4" d="M32.31,21.66c-.45-.45-1.19-.57-1.41-1.27s-.83-1-.48-1.7a14.93,14.93,0,0,1,3.39-1.51c1.43,0,2.56-1,3.94-1.17.94-.12,1.86-.33,2.19.93-1,1.65-2.79,1-4.59,1.82a14.41,14.41,0,0,1,7.36-.44c1.35.81,1.58,1.72.24,2.76a1.91,1.91,0,0,1-.73.24c-2.51.34-5-.68-7.55.17a1.89,1.89,0,0,1-.67,0c-.44,0-.69-.6-1.19-.38a2,2,0,0,1-.27.42Z"/><path class="cls-5" d="M41.18,41.89c.77-1.21,1.55-2.41,2.3-3.64C45.36,35.17,48,34.57,51,36.54c.41.44.31.77-.2,1a3.74,3.74,0,0,0-2.52-.77,3.55,3.55,0,0,1,2.18.56.44.44,0,0,1,.26.52,1.44,1.44,0,0,1-.42.5c-.49.23-1,.36-1.52.59a2.23,2.23,0,0,0-2.29,1.77,4.19,4.19,0,0,1-.46.83,15.26,15.26,0,0,1-1.87,2.14,1.56,1.56,0,0,1-.64.1c-.75-.42-1.69-.51-2.24-1.28A1.27,1.27,0,0,1,41.18,41.89Z"/><path class="cls-6" d="M47.74,25.82c0-.16,0-.31,0-.47a2.87,2.87,0,0,1,2-.42,2.58,2.58,0,0,1,2.09,1.93c.27,1-.41,1.63-1.22,2-2.11.89-4.24,1.76-6.4,2.5a10.25,10.25,0,0,0-2.05,1,1.16,1.16,0,0,1-.46-.95C41.9,30,43.05,29.5,44.15,29c.85-.28,1.61-.75,2.45-1a8.43,8.43,0,0,0,2.33-1C48.91,26.21,47.87,26.47,47.74,25.82Z"/><path class="cls-7" d="M24.43,26.27l.44.9c0,.77,0,1.55,0,2.32-2-.27-3.6.53-5.3,1.35-1.19.58-2.5,1.76-3.93.34a2.92,2.92,0,0,1,.08-2.5A46.34,46.34,0,0,0,23.38,26,1,1,0,0,1,24.43,26.27Z"/><path class="cls-8" d="M38.85,45.34a4,4,0,0,1,1.45-3.2,17.45,17.45,0,0,1,1.19,1.39c1,1.09,1.14,2.66,2.23,3.67a1.23,1.23,0,0,1,0,.66A3.5,3.5,0,0,0,43,51.11a3.12,3.12,0,0,1,0,2.25,2.11,2.11,0,0,1-1.47,1,.66.66,0,0,1-.54-.46,12.15,12.15,0,0,0-.44-4.41c-.05-1,0-2.06-.06-3.07,0,0-.17-.07-.17,0s-.15.27-.23.41a1.47,1.47,0,0,1-.66.55,1,1,0,0,1-.62-.15C38.24,46.58,38.52,46,38.85,45.34Z"/><path class="cls-9" d="M16.09,31.37a60,60,0,0,0,6.15-2.51c1.28-.68,1.94-.42,2.61.63,0,.48,0,1,.07,1.44l-.3.14c-1.81-.65-3.16.48-4.6,1.21a3.92,3.92,0,0,1-2.58.67C16.6,32.79,15.75,32.56,16.09,31.37Z"/><path class="cls-10" d="M24.06,49.55l-.62-.39c.44-.87,1.4-.77,2.11-1.14,2.22-.14,4.34-.58,6-2.24a1,1,0,0,1,.66-.19,1.11,1.11,0,0,1,.6.37c1.55,2.15,1.48,2.56-.93,3.33-1.78.56-3.5,1.63-5.51,1.05A3.22,3.22,0,0,1,24.06,49.55Z"/><path class="cls-11" d="M22,17.8,23.52,17c3.65-.09,7.1-1.25,10.63-2a6,6,0,0,1,3.85.21c.15.75-.42,1-.92,1a8.05,8.05,0,0,0-5.41,2.11c-.26.23-.72.23-1.09.33a5.17,5.17,0,0,1-2.44-.16c-1.12-.51-2.3-.25-3.46-.3a11.46,11.46,0,0,0-1.41.22A1.1,1.1,0,0,1,22,17.8Z"/><path class="cls-12" d="M40.68,50.94c-2.56,0-4.86,1.3-7.38,1.42-1.83-.65-3.78.18-5.6-.48v-.46c1.08-1.26,2.72-.31,3.93-1a22.16,22.16,0,0,1,2.51-.57c1.57.18,3-.55,4.56-.62a5.5,5.5,0,0,1,2.11,1.17A.4.4,0,0,1,40.68,50.94Z"/><path class="cls-3" d="M38,15.56c-2.51-1.35-4.89-.06-7.15.62a26.2,26.2,0,0,1-7.29.78c4.38-.48,8.47-2.56,13-2.34a5.9,5.9,0,0,1,4.65,2c-.83.63-1.37-.54-2.13-.34C38.62,16.09,38.18,16,38,15.56Z"/><path class="cls-13" d="M26.26,50.09c1.62-.43,3.22-1,4.86-1.26,2.17-.37,2.55-1.3,1.27-3,.61-.21,1,.21,1.35.56l.93,1.24A1.29,1.29,0,0,1,34,49.67c-2.46,1.16-5,1.9-7.73.85h0c-.16-.09-.22-.18-.17-.28S26.21,50.09,26.26,50.09Z"/><path class="cls-14" d="M42.15,20.69h.46c1.14-.09,1.1-1.08,1.39-1.82l.51.41c0,.16,0,.32,0,.47.74,1.27,0,1.8-1.05,2.26-2.26,1-4.68,1.55-6.83,2.78a1.36,1.36,0,0,1-1.51-.92l0-.14a5.82,5.82,0,0,0-.07-.73c.24-1.65,1.51-1.74,2.77-1.83C39.28,21.06,40.77,21.38,42.15,20.69Z"/><path class="cls-15" d="M35.1,23.86l1.45.55c1.6.31,1.29,1.85,1.83,2.85.65,2.07,2,1.12,3.28.81a.8.8,0,0,1,.22.57,1.49,1.49,0,0,1-.51.79,2.16,2.16,0,0,1-.57.28,3.3,3.3,0,0,0-1.14.57,2,2,0,0,1-.64.21c-1.72.1-1.5-1.42-2-2.37C36.69,26.57,34.76,25.74,35.1,23.86Z"/><path class="cls-16" d="M55.67,57.93c0-.47.47-.92,0-1.4A4.74,4.74,0,0,1,54.46,54a.73.73,0,0,1,.45-.41,1.48,1.48,0,0,1,1.38.94,3,3,0,0,1,.17.41s0-.11,0-.19a1.32,1.32,0,0,1,.42-1c.57-.3.82.09,1.07.49h0a13.9,13.9,0,0,1,1.29,1.58c.74,1.07.34,1.85-.77,2.34S56.46,60,55.67,57.93Z"/><path class="cls-17" d="M49.19,56.63c-.81,1.17-2.35.5-3.31,1.32-1.15.55-1.16-.23-1.17-1a4.62,4.62,0,0,0,1.4-4.19c.13-.85-.32-1.62-.31-2.44a1.29,1.29,0,0,1,.63-.93c.82-.17,1.23.26,1.45,1a3.61,3.61,0,0,1-.35,2.17c-.1.88.08,1.77,0,2.24,0-.32,0-1.05,0-1.77a1.78,1.78,0,0,1,.12-.65.74.74,0,0,1,.63-.1c1,1.07.77,2.45.85,3.74A4.66,4.66,0,0,1,49.19,56.63Z"/><path class="cls-18" d="M26.29,50.52c2.28,0,4.55.07,6.66-1.05.81-.44,1.73-.7,1.72-1.86l0-.13c.81.16,1.51.46,1.61,1.42-.22,1-1,1-1.78,1.21a2.48,2.48,0,0,1-.61.15,6.13,6.13,0,0,0-2,.74c-1.35.69-2.82.16-4.22.42C27.15,51.25,26.57,51.13,26.29,50.52Z"/><path class="cls-19" d="M38.93,16l2.23.58,1.89,1.36c.07.46-.19.61-.58.64-1-.37-2.48.08-2.66-1.62-1.31-1-2.51-.05-3.65.34a6,6,0,0,1-2.4.6c-.17-1.47.87-1.94,2-2.06A6.49,6.49,0,0,1,38.93,16Z"/><path class="cls-20" d="M21.18,19.75c-.86,1.77-3.13,2.25-3.82,4.19-1.1.35-1.15-.19-.87-1a8.19,8.19,0,0,1,3.75-4.12A1,1,0,0,1,21.18,19.75Z"/><path class="cls-21" d="M37.07,28.12c.77.62.85,2.07,2.28,1.9a.77.77,0,0,1,.65.5,1,1,0,0,1-.08.53c-.22.33-.05.6.14.87a1.11,1.11,0,0,1,0,.84,1.08,1.08,0,0,1-.39.43c-.49.12-.86.49-1.33.64-1.6-.53-1.69-1.84-1.6-3.19C36.82,29.79,37,29,37.07,28.12Z"/><path class="cls-22" d="M22.94,48.73c-2.57-.25-2.79-2.77-4.1-4.25a1.51,1.51,0,0,1,.38-1.57,1.47,1.47,0,0,1,1.34,0c1.05.4,1.17,1.29,1.16,2.24a1.65,1.65,0,0,0,.69,1.58,6.68,6.68,0,0,1,.61.69,1.56,1.56,0,0,1,.28.88A.61.61,0,0,1,22.94,48.73Z"/><path class="cls-23" d="M33.74,46.37l-1.35-.56h0c-1.66-.49-2.56-1.92-3.73-3-.5-1.13-1.72-1.8-2-3.09a1.62,1.62,0,0,1,.4-1.32.47.47,0,0,1,.65,0,17,17,0,0,0,4.43,6A5.38,5.38,0,0,1,33.74,46.37Z"/><path class="cls-24" d="M36.14,49.08l-1.45-1.6c.78-.53,1.49.25,2.25.12.89.44,1.57-.28,2.36-.41l.06.05c.84-.31,1.24.17,1.53.85a1.79,1.79,0,0,1,0,1,1.23,1.23,0,0,1-.49.47,13.3,13.3,0,0,0-3.67.29A.86.86,0,0,1,36.14,49.08Z"/><path class="cls-25" d="M58,54.23l-.9-.52a10.65,10.65,0,0,1-4.16-4.23,1.19,1.19,0,0,1,.36-1.29C55.16,50,57.52,51.35,58,54.23Z"/><path class="cls-25" d="M55.67,57.93c1.39,1.48,2.36-.07,3.27-.63s-.12-1.25-.43-1.86c-.2-.39-.36-.81-.53-1.21a2.66,2.66,0,0,1,1.85,2.83c-.08,1.3-1.27,1.7-2.2,2.11S55.59,59.5,55.67,57.93Z"/><path class="cls-26" d="M28.21,17.82a4.12,4.12,0,0,1,2.25.56c.19.09.26.18.21.28s-.11.16-.17.16c.14.52.27,1,.4,1.57l-3.28-1.51.21-.31a1,1,0,0,0-.57.24l-.47.25,0-.23C26.38,17.26,27.4,17.68,28.21,17.82Z"/><path class="cls-27" d="M21.18,19.75a1,1,0,0,1-.94-.95,2.09,2.09,0,0,1,1.79-1l1.48.08a.74.74,0,0,1,0,1Z"/><path class="cls-25" d="M50.51,42.12c.74,1.25,1.47,2.51,2.23,3.75.36.6.84,1.16.14,1.83-.33.21-.58,0-.84-.16a17.4,17.4,0,0,0-1.18-1.8,5.17,5.17,0,0,1-.48-.82c-.28-.92-1.11-1.74-.46-2.81A.44.44,0,0,1,50.51,42.12Z"/><path class="cls-28" d="M39.3,47.19c-.08.91-.94,1.15-1.51,1.43-1.23.62-.85-.43-.85-1l1.91-2.26C38.94,46,38.74,46.67,39.3,47.19Z"/><path class="cls-29" d="M15.16,36.49l-.5-1.37a.88.88,0,0,1-.18-.85c.42-.59.53-1.4,1.29-1.74a1.18,1.18,0,0,1,1.19.54,2.46,2.46,0,0,1,.31,1.38,2.52,2.52,0,0,1-.34.95c-.72.08-.88.75-1.24,1.21A.41.41,0,0,1,15.16,36.49Z"/><path class="cls-30" d="M50.08,38a.93.93,0,0,1,.4-.09A.32.32,0,0,1,51,38l0,1.83c-.59.54-1.19,1.08-2.1.79a4.29,4.29,0,0,1-1.18-.72c-1.05-1-.4-1.23.62-1.25A3.48,3.48,0,0,0,50.08,38Z"/><path class="cls-31" d="M52.4,47.23l.48.47.4.49.1,1.26c.24.38,0,.57-.3.74-1.34.05-1.61-1.26-2.42-1.9a1.55,1.55,0,0,1-.36-.54,1.3,1.3,0,0,1,.05-.65,1.21,1.21,0,0,1,1.07-.65C51.91,46.51,52.14,46.89,52.4,47.23Z"/><path class="cls-32" d="M18.34,43.59c-1.19-.35-.94-1.83-1.87-2.38a1,1,0,0,1-.2-.58,2.23,2.23,0,0,1,1.15-1.44,1,1,0,0,1,.63,0,1.41,1.41,0,0,1,.55.78,3.1,3.1,0,0,1,.26,1.24C18.54,42,19,42.92,18.34,43.59Z"/><path class="cls-33" d="M49.16,40.23c.66.05,1.07-.95,1.83-.44l-.48,2.33-.55,0a.9.9,0,0,1-.86.22,1.27,1.27,0,0,1-.68-.63,1.65,1.65,0,0,1-.06-.63A1.14,1.14,0,0,1,49.16,40.23Z"/><path class="cls-34" d="M33.77,21.14h.46c1.33.36,1.36,1.24.91,2.31a.39.39,0,0,0,0,.26c-1.42,0-2.07-1.12-2.83-2.06l.2-.15a1.14,1.14,0,0,1,1-.37Z"/><path class="cls-35" d="M24.92,30.93c.75,1.3.38,3,1.38,4.2a1.32,1.32,0,0,1,.11,1.39c-1.44.36-1.68-.75-2.07-1.68a5.91,5.91,0,0,1-.13-1.12,3.45,3.45,0,0,1-.05-1.5,2,2,0,0,1,.72-1.28Z"/><path class="cls-36" d="M14.74,34.16l-.08,1a16.06,16.06,0,0,1-.09-7.55l.34.2c.56.67.4,1.48.45,2.26a10.14,10.14,0,0,1-.19,2.69A2.39,2.39,0,0,1,14.74,34.16Z"/><path class="cls-36" d="M14.57,27.57l1-2.79c.66.27.49,1.17,1.11,1.47a2.75,2.75,0,0,1-.23,1.83c-.21.23-.48.39-.69.63-.79.23-.76-.43-.94-.87Z"/><path class="cls-37" d="M38.36,33.83a1.08,1.08,0,0,1,1-1c1.21.22,1.05-1.43,2.05-1.5a.94.94,0,0,1,.62,0l.08,1C41.12,33.42,40.07,34.47,38.36,33.83Z"/><path class="cls-38" d="M16.47,26.27c-.86-.15-.85-.85-.93-1.49.31-.62.63-1.24.95-1.86a1.07,1.07,0,0,0,.87,1c-.14.67-1,1.06-.73,1.89C16.77,26.05,16.71,26.19,16.47,26.27Z"/><path class="cls-39" d="M27.7,51.88c1.86.24,3.8-.49,5.6.48H27.72c-.08,0-.18,0-.22,0C27.17,52,27.52,52,27.7,51.88Z"/><path class="cls-24" d="M40.68,50.94v-.47a1.05,1.05,0,0,1-.28-.81,1.63,1.63,0,0,1,.3-.51l.11-.11c.17-.19.29-.15.35.09l.07,5.09a.33.33,0,0,1-.52.07C40,53.18,41.15,52.05,40.68,50.94Z"/><path class="cls-40" d="M44.92,56.61c0,.67.17,1.24,1,1.34-.76.61-1.45.6-1.54-.49-.07-.76-.74-1.09-.88-1.74,0-.09.11-.18.17-.27a1,1,0,0,1,1.19.09,1.31,1.31,0,0,1,.34.53A.58.58,0,0,1,44.92,56.61Z"/><path class="cls-41" d="M16.65,40.65l-.18.56-.38-.06c-.55-.34-.48-.88-.45-1.41a5.36,5.36,0,0,1-.48-3.25l.36.08c.89.33.67,1.3,1.11,1.89a2.49,2.49,0,0,1,.34.92A3.14,3.14,0,0,1,16.65,40.65Z"/><path class="cls-42" d="M18.34,43.59c-.1-.79-.86-1.59,0-2.37.86.32,1.34.85,1,1.82l-.49,1.44C18.45,44.31,18.39,44,18.34,43.59Z"/><path class="cls-43" d="M42.58,18.37l.47-.43a1.57,1.57,0,0,1,1,.92c0,1,0,1.89-1.39,1.82.64-.62,1.22-1.24,0-1.86C42.32,18.69,42.31,18.55,42.58,18.37Z"/><path class="cls-44" d="M53.38,55.16a7.22,7.22,0,0,1-4.19,1.47l-.08-.14c.22-1.57,1.73-1.34,2.67-1.92a1.88,1.88,0,0,1,1.38.29Z"/><path class="cls-45" d="M26.27,36.56l0-1.43c.47,1.08.93,2.17,1.4,3.26l-.52,0a.66.66,0,0,1-.65,0C26,37.85,25.68,37.27,26.27,36.56Z"/><path class="cls-46" d="M22.94,48.73l.1-.55A2.15,2.15,0,0,1,25.89,48a.53.53,0,0,1,0,.63l-2.43.5Z"/><path class="cls-44" d="M54.69,53.9l1,2.63c-.74-.19-.91-1-1.45-1.37-.38-.39-.81-.74-.59-1.38a.84.84,0,0,1,.56-.26A.57.57,0,0,1,54.69,53.9Z"/><path class="cls-47" d="M53.79,53.76c.16.46.31.93.47,1.4h-1c-.28-.22-.62-.35-.77-.7-.15-.66,0-1.18.71-1.37C53.63,53.14,53.91,53.29,53.79,53.76Z"/><path class="cls-48" d="M40.71,54.29l.52-.07a1.36,1.36,0,0,0,.45,0c1.2-.39,1.87,0,2,1.29l-.17.21A5.5,5.5,0,0,1,40.71,54.29Z"/><path class="cls-49" d="M40.78,43.88c-.66-.44-.4-1.13-.48-1.74l.88-.25a.74.74,0,0,0,0,.33,1.12,1.12,0,0,1,.32,1.15A.93.93,0,0,1,40.78,43.88Z"/><path class="cls-50" d="M15.64,39.74a1.67,1.67,0,0,1,.45,1.41C15.07,41.08,15,40.79,15.64,39.74Z"/><path class="cls-33" d="M51,38l-.53-.08a2.74,2.74,0,0,0,.09-.39h0c.42-.19.38-.58.39-.94C52.4,37,51.62,37.47,51,38Z"/><path class="cls-18" d="M26.26,50.09a2,2,0,0,1,0,.43c-.86-.05-1.79,0-2.22-1Z"/><path class="cls-51" d="M27.26,18.81a1.56,1.56,0,0,1,1.95-.21l-1.59.28A.5.5,0,0,1,27.26,18.81Z"/><path class="cls-52" d="M16.47,26.27c.06-.15.11-.29.16-.44.37,1.41,1.11,1.84,2.48,1.09,1.14-.62,2.37-1.07,3.55-1.62s1.62-.15,1.77,1C22.67,27,21,27.9,19.18,28.51a4.46,4.46,0,0,1-3,.06c-.31-.08-.36-.24-.13-.47Z"/><path class="cls-53" d="M23.53,18.88l0-1,1-.43c.57.52,2.09-.22,1.84,1.39Z"/><path class="cls-54" d="M26.32,18.84C26,18,25,18,24.48,17.45c1.25,0,2.55-.32,3.73.37-.67.07-1.32.17-1.46,1l-.21.05Z"/><path class="cls-55" d="M38.38,27.26l-1.83-2.85c1.25-1.58,3.23-1.65,4.88-2.39,1.16-.52,2.94-.32,3.06-2.28l.47.45c.82,1.67-.29,2.4-1.53,3s-2.34.68-3.49,1.08c-.72.25-1.79.31-1.53,1.57Z"/><path class="cls-56" d="M38.41,25.8c-.95-.58-.92-1.11.05-1.64A17.74,17.74,0,0,1,42.4,23c1.42-.39,2.58-1,2.56-2.77,1.69,1.73.35,2.54-1,3.3C42.18,24.46,40,24.44,38.41,25.8Z"/><path class="cls-57" d="M47.74,25.82c1,.19,2.59-.63,2.81.69.2,1.17-1.47,1.29-2.43,1.7a10,10,0,0,1-1.31.42.77.77,0,0,1,0-.88,1.47,1.47,0,0,1,.32-.37c-.14-.39-.74-.24-.83-.68Z"/><path class="cls-58" d="M41.15,29l.52-.41c1-1.09,2.57-.67,3.75-1.3a1.38,1.38,0,0,1,.4-.1c.57-.11,1.3-.67,1.44.49h0c-.94.95-2.26,1.28-3.32,2.05a6.77,6.77,0,0,1-1,.08C42.26,29.71,41.49,29.81,41.15,29Z"/><path class="cls-59" d="M47.26,27.66c-.39-.44-.93-.41-1.44-.49l.45-.47c1,.28,1.86-.72,2.88-.2C48.94,27.61,48.09,27.62,47.26,27.66Z"/><path class="cls-59" d="M45.42,27.27c-1,1.07-2.57.68-3.75,1.3,0-.17,0-.33,0-.5A7.43,7.43,0,0,1,45.42,27.27Z"/><path class="cls-60" d="M35.14,23.46c.17-1-.49-1.59-.91-2.31,1.16-1.23,2.67-1.08,4.07-.81a20.06,20.06,0,0,0,3.85.35c-1.24,1.24-2.95,1.14-4.46,1.3A3,3,0,0,0,35.14,23.46Z"/><path class="cls-61" d="M42.58,18.37c0,.15,0,.3,0,.45H35.05C36.64,18.18,38,17,39.81,17Z"/><path class="cls-62" d="M30.5,18.82c0-.15,0-.29,0-.44,2.07-2.08,4.45-3.33,7.5-2.82l1,.44c-2,0-4-.23-5.17,1.9A5.77,5.77,0,0,1,30.5,18.82Z"/><path class="cls-34" d="M32.34,20.68c-.34-.32-.75-.73-.42-1.15a.72.72,0,0,1,1.17.17,9,9,0,0,1,.68,1.44l0,0C33.06,21.65,32.71,21.13,32.34,20.68Z"/><path class="cls-63" d="M32.34,20.68l1.41.48c-.16,1-.77.42-1.24.35C32.45,21.23,32.4,21,32.34,20.68Z"/><path class="cls-64" d="M40.78,43.88l.5-.41c.76-.78,1.52.23,2.29,0l.41.05a1.52,1.52,0,0,1,1,1,2.82,2.82,0,0,1,.12,1.12c-.11,1-.36,1.81-1.62,1.62-1.15.07-1.94-.26-1.85-1.63A1.9,1.9,0,0,0,40.78,43.88Z"/><path class="cls-65" d="M44.45,44.46c-.15-.31-.31-.62-.47-.93a7,7,0,0,1,1.38-2.42c.52.19,1,.57,1.57.52a2.56,2.56,0,0,1,.84.34,2.41,2.41,0,0,1,.48.42,2.57,2.57,0,0,1,.65,1.46,1.42,1.42,0,0,1-.16,1.28,1.44,1.44,0,0,1-1.49.43c-.46-.21-.68-.71-1.13-.94S45,44.92,44.45,44.46Z"/><path class="cls-64" d="M50.57,37.49c-1.21.13-2.41.29-3.62.4-.46,0-1,0-1.12-.57s.4-.77.81-.93c1.57-.6,3-.64,3.93,1.09Z"/><path class="cls-66" d="M49.16,40.23l-.31,1a3.62,3.62,0,0,1-.57,0c-.48-.1-1,0-1.45-.08a1.51,1.51,0,0,1-1.08-.43c.18-1.75,1.28-2.35,2.89-2.33.12.11.16.21.12.32s-.08.16-.12.16c-.28.07-.74.07-.79.21-.13.38.35.29.53.45S48.9,40,49.16,40.23Z"/><path class="cls-67" d="M43.57,43.48c-.78,1.83-1.53-.35-2.3,0l-.06-1.25C42.08,42.49,43.1,42.47,43.57,43.48Z"/><path class="cls-68" d="M45.75,40.66c.37.06.86-1.09,1.1.12a.83.83,0,0,1,0,1.24c-1.3,1-1.4,0-1.52-.91Z"/><path class="cls-33" d="M48.64,38.81v-.48A1.85,1.85,0,0,1,50.08,38C49.91,38.77,49.31,38.86,48.64,38.81Z"/><path class="cls-59" d="M43.93,29.47a9.14,9.14,0,0,1,3.34-1.81c-.16.32-.31.65-.46,1l-2.27.94C44.3,29.78,44.1,29.75,43.93,29.47Z"/><path class="cls-69" d="M43.93,29.47l.61.1c-.85.55-2,.68-2.46,1.8l-.33.09-.26-.22c-.36-1,.19-1.46,1-1.81a.48.48,0,0,1,.59.09Z"/><path class="cls-70" d="M16,28.1l.12.47c0,.93,0,1.86-.05,2.8.89,1.45,2.07,1,3.24.46a27,27,0,0,0,3.09-1.54c1.14-.72,1.84-.32,2.46.65,0,.47,0,.94,0,1.41-.62.4-1.32,0-2,.23a13,13,0,0,0-2.79,1.12,2.43,2.43,0,0,1-3.51-.48l-1-.49a4.1,4.1,0,0,1-.09-4.12Z"/><path class="cls-71" d="M42.61,53.29a24.41,24.41,0,0,1-.49-4c.06-1,.33-1.6,1.42-1.58.69-.16.73.33.81.79a1.91,1.91,0,0,1-.18.66c-.59,1-.33,2.19-.4,3.3a1.59,1.59,0,0,1-.52,1.28C42.81,53.91,42.57,53.81,42.61,53.29Z"/><path class="cls-72" d="M44.06,48.58c-.17-.29-.35-.58-.52-.88a3.39,3.39,0,0,0,0-.45,1.88,1.88,0,0,0,1-1.93c1.19,0,1,1.09,1.47,1.69a2.09,2.09,0,0,1,.11.7A6.53,6.53,0,0,1,46,48.79c-.31.64-.39,1.44-1.17,1.77C43.7,50.25,43.61,49.52,44.06,48.58Z"/><path class="cls-73" d="M42.61,53.29l.55.35a1.5,1.5,0,0,1,1.77.42c.33.69.59,1.38,0,2.06l-1.29-.61-2-1.29A1,1,0,0,1,42.61,53.29Z"/><path class="cls-74" d="M40.73,48.18l-1.37-.94.45-1c.34-.57.06-1.3.48-1.85l.46.46A4.92,4.92,0,0,1,40.73,48.18Z"/><path class="cls-71" d="M40.73,48.18c0-1.1,0-2.19,0-3.28.82,1.35.3,2.82.42,4.23a2.11,2.11,0,0,1-.36-.09C40.78,48.75,40.76,48.46,40.73,48.18Z"/><path class="cls-75" d="M40.29,44.44c0,.66.08,1.34-.48,1.85A1.65,1.65,0,0,1,40.29,44.44Z"/><path class="cls-76" d="M29.15,42.56l3.2,3.26-.51.06c-1,.31-1.64-.41-2.37-.86-1.33-1.44-2.68-.41-4,0s-2.36,1.4-3.82,1.22a2.12,2.12,0,0,1-1-.89c-.09-.64.93-1.56-.47-1.87C22.45,40.49,27,40,29.15,42.56Z"/><path class="cls-77" d="M30,44.46l1.83,1.42c-1.19,2.65-3.68,2.52-6,2.78,0-.16,0-.31,0-.47a1.19,1.19,0,0,1,.36-.52A4.12,4.12,0,0,1,27.66,47c.2-.07.44-.1.52-.32s-.16-.14-.34-.11c-.44,0-.83.26-1.27.31a3.33,3.33,0,0,1-.7.07c-.64,0-1.25-.1-1.55-.78C25.77,44.11,27.84,44.1,30,44.46Z"/><path class="cls-78" d="M40.7,49.15a3.38,3.38,0,0,1,0,.45,1.29,1.29,0,0,1-1.75,0,10.2,10.2,0,0,1-4.72.86c-.31-.18-.29-.32.06-.41h0a3.15,3.15,0,0,1,2.33-.5C38,49.48,39.28,48.87,40.7,49.15Z"/><path class="cls-79" d="M39,49.63l1.75,0c0,.29,0,.58,0,.87C40,50.42,39.14,50.69,39,49.63Z"/><path class="cls-28" d="M34.29,50.08l-.06.41L31.92,51A2.51,2.51,0,0,1,34.29,50.08Z"/><path class="cls-80" d="M41.75,31.46c-.57.82-.82,2.17-2.34,1.37l.37-.07c.46-.76.14-1.52,0-2.28L39.35,30l0-.54c1.68-.52,1.79.87,2.23,1.85Z"/><path class="cls-81" d="M41.62,31.33c-.92-.4-1.06-1.75-2.23-1.85a1.62,1.62,0,0,1,1.38-.39c.51.66,1.4-.17,1.91.5A3.3,3.3,0,0,0,41.62,31.33Z"/><path class="cls-82" d="M42.68,29.59c-.66-.09-1.5.53-1.91-.5l.38-.11c.65.14,1.41-.1,1.91.54Z"/><path class="cls-83" d="M54.69,53.9a.56.56,0,0,0-.31-.19c-.85-.8-2-1.37-2-2.77a1.19,1.19,0,0,1,.53-.91l.49-.58a13.39,13.39,0,0,1,3.7,4.26c0,.49,0,1-.07,1.47-1.24,0-.89-1.91-2.19-1.82Z"/><path class="cls-84" d="M54.82,53.36c.07-.46.14-1.15.74-.48A14.2,14.2,0,0,1,57,55.18a2.73,2.73,0,0,1,.67,1.8C55.86,56.32,55.87,54.4,54.82,53.36Z"/><path class="cls-85" d="M45.46,47.69a1.9,1.9,0,0,1-.14-.4,2.38,2.38,0,0,1,.08-1.94c.63-.44,1.24.1,1.87,0l1.47-.49c.9-.11,1.36.48,1.78,1.13a1.36,1.36,0,0,1,0,1.24l0,.49a.68.68,0,0,1,.13.88c-.83.12-1.82.06-1.35,1.45a3.3,3.3,0,0,1,0,1.76,1.72,1.72,0,0,1-.37.55.61.61,0,0,1-.61,0l-.5,0c-.56-.49,0-1.26-.45-1.79a1.13,1.13,0,0,0-.94-1C45.59,49.17,46.08,48.15,45.46,47.69Z"/><path class="cls-86" d="M44.92,56.12c0-.66-.86-1.29-.07-2,0-.1,0-.2-.05-.3a9.75,9.75,0,0,1,.05-3.05l.08-.29.49-1.92c1.33,0,.2,1.41,1,1.71a3.59,3.59,0,0,1,.36,2.53,4.5,4.5,0,0,0-.19,2.41c.08,1.62-.6,1.58-1.68.87Z"/><path class="cls-87" d="M48.27,52.4h.38a1.72,1.72,0,0,1,.9.07c.67.28,1.19.79,1.82,1.12a1.84,1.84,0,0,1,.46.42c.23.37.39.74.08,1.14l-2.8,1.35C47.21,55.46,48.52,53.77,48.27,52.4Z"/><path class="cls-73" d="M44.91,56.11c.84.13,1.54.14,1.46-1.07a2.72,2.72,0,0,1,.41-2.21c0,.9.06,1.8.1,2.7.07,1.68-.73,1.76-2,1.08Z"/><path class="cls-88" d="M46.42,50.3c-.79-.31-.25-1.38-1-1.71l0-.9c1,.26.78,1.15.92,1.86C46.4,49.8,46.41,50.05,46.42,50.3Z"/><path class="cls-89" d="M47.7,52.82v3h-.34v-3C47.48,52.56,47.59,52.55,47.7,52.82Z"/><path class="cls-90" d="M47.7,52.82h-.34c0-.74,0-1.49,0-2.23.56.5.39,1.17.45,1.79C47.75,52.52,47.72,52.67,47.7,52.82Z"/><path class="cls-28" d="M36.57,49.59a4,4,0,0,1-2.33.5,2.6,2.6,0,0,1,1.9-1Z"/><path class="cls-91" d="M39.79,31.83c-.47.19-1,.66-1.42.05a.87.87,0,0,1-.08-.81c.42-.62,1-.08,1.47-.07C40.11,31.26,40.08,31.54,39.79,31.83Z"/><path class="cls-37" d="M39.79,31.83l0-.83c0-.17,0-.35,0-.52a1.49,1.49,0,0,1,0,2.28Z"/><path class="cls-92" d="M29.15,42.56C27.53,41,25.8,41.14,24,42.25a15.78,15.78,0,0,1-3.77,1.26L19.33,43c-.33-.6-.65-1.21-1-1.82l-.42-1c1.93-.72,3.88-1.4,5.83-2.06,1.62-.54,2.88-.11,3.48,1.61C27.79,40.77,28.94,41.34,29.15,42.56Z"/><path class="cls-93" d="M26.29,48.15a3.28,3.28,0,0,0-.43,0H23l-.5-.47a1.48,1.48,0,0,1,1.06-1.32,1.35,1.35,0,0,1,.72,0c.69.26,1.49-.14,2.14.34A1.06,1.06,0,0,1,26.29,48.15Z"/><path class="cls-94" d="M24,46.76l-.44,0a2.77,2.77,0,0,1-1.47.48,2.51,2.51,0,0,1-1.34-1.89l.91.47c.73.56,1.65-.4,2.36.28A.43.43,0,0,1,24,46.76Z"/><path class="cls-46" d="M22.06,47.27a1.64,1.64,0,0,1,1.47-.48l-1,.92Z"/><path class="cls-95" d="M27.25,39.77c-1.2-1.59-2.63-1-4.12-.51-1.67.59-3.23,1.92-5.19,1,0-.29,0-.59,0-.89,1.63-2.21,4.16-2.75,6.57-3.26,1.34-.28,1.59,1.46,2.33,2.3l.38,0C27.21,38.86,27.23,39.32,27.25,39.77Z"/><path class="cls-96" d="M50.56,47.24,50,46.45a2.3,2.3,0,0,1-.17-1,1,1,0,0,1,.63-.75.9.9,0,0,1,.64.15l.35.53a1,1,0,0,1,0,1.35Z"/><path class="cls-64" d="M51.11,44.85l-.51,0c-1.55-.41-2.1-1.33-1.42-2.85l.78.12C50.35,43.06,50.73,44,51.11,44.85Z"/><path class="cls-97" d="M51.48,46.73l0-1.35a2.54,2.54,0,0,1,.94,1.85Z"/><path class="cls-98" d="M24.91,33.73l0,.92c-1.32,1.84-5.7,3.65-7.94,3.27a1.68,1.68,0,0,1-.79-.83,1.53,1.53,0,0,1,.26-1.47l.07-1c.48-.24.81.07,1.16.3,1.91.5,3.26-1,4.89-1.43C23.46,33.29,24.18,33,24.91,33.73Z"/><path class="cls-99" d="M17,35.58l-.47-.92c0-.48.07-1,.1-1.44,2.43.92,4.25-1,6.41-1.37.44.45.58,1.13.11,1.42C21.25,34.4,19.44,35.85,17,35.58Z"/><path class="cls-100" d="M15.57,28.61l.09,4.12c-.37.44.49,1.66-.92,1.43,0-.49,0-1,0-1.46a4.8,4.8,0,0,0,0-2.63l.06-2.23Z"/><path class="cls-101" d="M16.46,35.62l.12,1.29c.33.78.51,1.52-.52,1.93-.67-.64-.44-1.49-.54-2.27C15.72,36.14,15.37,35.16,16.46,35.62Z"/><path class="cls-97" d="M52.89,50l0,.94c-1.06.27-1.28-.71-1.81-1.22a3,3,0,0,1-.17-2C52,48.11,52.17,49.32,52.89,50Z"/><path class="cls-6" d="M50.88,47.78l.66,1.71-.19.22a.86.86,0,0,1-.57-.06c-.31-.28-.54-.58-.27-1v-.9A2.08,2.08,0,0,1,50.88,47.78Z"/><path class="cls-102" d="M17,37.45c3.11.36,5.21-2.13,8-2.8.55.56.54,1.52,1.34,1.91.17.6.35,1.21.53,1.81-2-3.24-4.26-.73-6.38-.19a15,15,0,0,0-2.52,1.15l-.4,0-.29-.12A1.3,1.3,0,0,1,17,37.45Z"/><path class="cls-103" d="M16.65,40.65l-.2-1.26c.24-1.13.65-.48,1-.11h0A1.62,1.62,0,0,1,16.65,40.65Z"/><path class="cls-81" d="M49.18,42a6.84,6.84,0,0,0,1.42,2.85l-.52.46c-.78-.25-1.22-.92-1.79-1.42l-.44-1.42a.89.89,0,0,1,.88-1Z"/><path class="cls-81" d="M48.73,41.53l-.88,1-.12.07c-.32-.89-1-2,.86-1.79l.26.4A2,2,0,0,0,48.73,41.53Z"/><path class="cls-104" d="M17,35.58c1.56-.62,3.11-1.23,4.66-1.87.83-.33,1.48-.82,1.38-1.85.9-.88,1.32,0,1.85.49,0,.46,0,.92,0,1.38a23,23,0,0,0-5.74,2.11C18.44,36.21,17.54,37.17,17,35.58Z"/><path class="cls-105" d="M14.73,30.07a2.24,2.24,0,0,1,0,2.63C14.75,31.82,14.74,31,14.73,30.07Z"/><path class="cls-106" d="M17.49,39.28c-.36-.1-.73-.29-1,.11l-.39-.55c.17-.64.35-1.28.52-1.93l.4.54Z"/><path class="cls-6" d="M51.91,55.14l-.44-.92c.68-.52,1.05-.06,1.4.45.15.16.29.32.43.49Z"/><path class="cls-6" d="M51.54,49.49,52.86,51l1.52,2.74-.59,0-.46-.47c-2.24-.75-2.68-1.57-2-3.64A1.29,1.29,0,0,0,51.54,49.49Z"/><path class="cls-85" d="M51.37,49.65c0,1.58.93,2.63,2,3.64a1.57,1.57,0,0,0-.46,1.38l-1.4-.45h0a7.14,7.14,0,0,0-2.35-1.38l-.47-.45.05-.08c.42-1.19,1.5-1.84,2.29-2.72A1.59,1.59,0,0,1,51.37,49.65Z"/><path class="cls-107" d="M45.83,45.4c-.61.51-.35,1.25-.51,1.89-.27-.66-.55-1.32-.82-2,0-.29,0-.57,0-.86a2.51,2.51,0,0,1,2.35-1,2.12,2.12,0,0,1,.2,1.73C46.81,46.31,46.29,45.86,45.83,45.4Z"/><path class="cls-108" d="M48.59,40.79c-1.12.2-.61,1.18-.86,1.79L46.88,42l0-1.24C47.43,40.4,48,39.75,48.59,40.79Z"/><path class="cls-64" d="M48.29,43.93a2.33,2.33,0,0,1,1.79,1.42c0,.36,0,.73-.07,1.09-.43-.52-.85-1-1.27-1.57Z"/><path class="cls-109" d="M45.83,45.4c1.82.14.6-1.28,1-1.89.57.51.44,1.2.47,1.85-.09.35-.17.74-.6.81S46,45.82,45.83,45.4Z"/><path class="cls-110" d="M44.85,54.15l-1.69-.51c0-.43,0-.86-.07-1.29,1.21-1.12-.46-2.61.5-3.75l.47,0,.87,1.93h0a5.47,5.47,0,0,1,0,3.68Z"/><path class="cls-111" d="M43.59,48.6a4.23,4.23,0,0,0,.34,2.21c.46.9.21,1.44-.84,1.54C43.27,51.1,42.42,49.72,43.59,48.6Z"/><path class="cls-112" d="M24,46.31c-.79-.1-1.67.22-2.35-.46,1.64-.67,3.29-1.31,4.9-2,1.34-.6,2.52-.63,3.49.64-1.73,1-4,.47-5.58,1.83C24.29,46.51,24.14,46.52,24,46.31Z"/><path class="cls-113" d="M26.31,46.3c.34-.15.69-.44,1-.41.91.06,2.41-.59,2.61.43s-1.36,1-2.23,1.37C27.25,47.21,26.74,46.8,26.31,46.3Z"/><path class="cls-46" d="M26.31,46.3c.81.11,2.14-.3,1.4,1.39l-1.42.46c0-.46,0-.92,0-1.37q-.46-.24,0-.48Z"/><path class="cls-113" d="M26.31,46.3v.48l-2.34,0c0-.15,0-.3,0-.45l.46,0Z"/><path class="cls-114" d="M51,49.59c.51,2-.61,2.58-2.29,2.72-.13-.9-.29-1.79-.37-2.69s-.57-2.08.33-2.52c1.18-.56,1.1,1.14,1.85,1.53Z"/><path class="cls-73" d="M44.85,54.19c0-1.23,0-2.45,0-3.68A3,3,0,0,1,44.85,54.19Z"/><path class="cls-6" d="M49.12,52.84a2.29,2.29,0,0,1,2.35,1.38A4.56,4.56,0,0,1,49.12,52.84Z"/></g></g></svg>