<svg xmlns="http://www.w3.org/2000/svg" viewBox="0 0 74 74"><defs><style>.cls-1{fill:#1e2223;}.cls-2{fill:#e1e5da;}.cls-3{fill:#5a4d41;}.cls-4{fill:#a49486;}.cls-5{fill:#2e3135;}.cls-6{fill:#d9dad9;}.cls-7{fill:#897470;}.cls-8{fill:#616263;}.cls-9{fill:#bebebd;}.cls-10{fill:#7f8180;}.cls-11{fill:#303638;}.cls-12{fill:#414647;}.cls-13{fill:#979a99;}.cls-14{fill:#3a3d3b;}.cls-15{fill:#555;}.cls-16{fill:#70746d;}.cls-17{fill:#9fa0a0;}.cls-18{fill:#3e4244;}.cls-19{fill:#777877;}.cls-20{fill:#817b76;}.cls-21{fill:#787978;}.cls-22{fill:#413f3d;}.cls-23{fill:#656666;}.cls-24{fill:#514d4b;}.cls-25{fill:#433b3a;}.cls-26{fill:#babab9;}.cls-27{fill:#636465;}.cls-28{fill:#c0c1bf;}.cls-29{fill:#626564;}.cls-30{fill:#1c1b1d;}.cls-31{fill:#49545d;}.cls-32{fill:#4d5960;}.cls-33{fill:#525d63;}.cls-34{fill:#4e595f;}.cls-35{fill:#303d46;}.cls-36{fill:#39464e;}.cls-37{fill:#36454d;}.cls-38{fill:#7f858a;}.cls-39{fill:#616b70;}.cls-40{fill:#1d1e22;}.cls-41{fill:#331713;}.cls-42{fill:#161b1e;}.cls-43{fill:#181c21;}.cls-44{fill:#46474a;}.cls-45{fill:#2b3840;}.cls-46{fill:#5e666b;}.cls-47{fill:#666e73;}.cls-48{fill:#7c868c;}.cls-49{fill:#586269;}.cls-50{fill:#323e46;}.cls-51{fill:#889095;}.cls-52{fill:#fcfcfb;}.cls-53{fill:#dae1d4;}.cls-54{fill:#d7dccd;}.cls-55{fill:#f1f2ef;}.cls-56{fill:#eaede6;}.cls-57{fill:#e8e9e4;}.cls-58{fill:#b29c85;}.cls-59{fill:#8b8786;}.cls-60{fill:#c2b9a5;}.cls-61{fill:#c6c1ae;}.cls-62{fill:#b6a38d;}.cls-63{fill:#cac6b5;}.cls-64{fill:#997a5d;}.cls-65{fill:#937c66;}.cls-66{fill:#675d54;}.cls-67{fill:#9c836a;}.cls-68{fill:#9a897d;}.cls-69{fill:#786f64;}.cls-70{fill:#756758;}.cls-71{fill:#7c7570;}.cls-72{fill:#7a6048;}.cls-73{fill:#757371;}.cls-74{fill:#715e4d;}.cls-75{fill:#837263;}.cls-76{fill:#b6a891;}.cls-77{fill:#a39d96;}.cls-78{fill:#888580;}.cls-79{fill:#9a9995;}.cls-80{fill:#b05a42;}.cls-81{fill:#a4958f;}.cls-82{fill:#cececc;}.cls-83{fill:#5f312b;}.cls-84{fill:#9a3423;}.cls-85{fill:#e0e0e0;}.cls-86{fill:#c0c8bb;}.cls-87{fill:#e2e2e2;}.cls-88{fill:#c6c6c4;}.cls-89{fill:#d9d8d6;}.cls-90{fill:#dddcdb;}.cls-91{fill:#e4e5e5;}.cls-92{fill:#3a3434;}.cls-93{fill:#697074;}.cls-94{fill:#4b5962;}.cls-95{fill:#5e6a71;}.cls-96{fill:#586268;}.cls-97{fill:#797f83;}.cls-98{fill:#2e3e48;}.cls-99{fill:#4e5a62;}.cls-100{fill:#656e73;}.cls-101{fill:#566169;}.cls-102{fill:#4b575e;}.cls-103{fill:#0e161a;}.cls-104{fill:#503836;}.cls-105{fill:#752e24;}.cls-106{fill:#542d22;}.cls-107{fill:#281d1e;}.cls-108{fill:#4b2924;}.cls-109{fill:#4c2824;}.cls-110{fill:#83311d;}.cls-111{fill:#4e231b;}.cls-112{fill:#6b757a;}.cls-113{fill:#432723;}.cls-114{fill:#725954;}.cls-115{fill:#404c54;}.cls-116{fill:#9ba0a3;}.cls-117{fill:#787f83;}.cls-118{fill:#7d8488;}.cls-119{fill:#7b8286;}.cls-120{fill:#9ea2a4;}.cls-121{fill:#747b7f;}.cls-122{fill:#7f8689;}.cls-123{fill:#9e3926;}.cls-124{fill:#77281b;}.cls-125{fill:#3d1715;}.cls-126{fill:#6b251a;}.cls-127{fill:#491d14;}.cls-128{fill:#531f17;}.cls-129{fill:#913626;}.cls-130{fill:#782c1e;}.cls-131{fill:#63251b;}.cls-132{fill:#a63821;}.cls-133{fill:#7a2a1c;}.cls-134{fill:#bb4329;}.cls-135{fill:#5a231b;}.cls-136{fill:#4e1f1a;}.cls-137{fill:#3d1c18;}.cls-138{fill:#343131;}.cls-139{fill:#666265;}.cls-140{fill:#aaacae;}.cls-141{fill:#7e7a7c;}.cls-142{fill:#6d6c6e;}.cls-143{fill:#a9aca4;}.cls-144{fill:#c5c7c8;}.cls-145{fill:#989ea2;}.cls-146{fill:#858c90;}.cls-147{fill:#a6aaac;}.cls-148{fill:#727a7e;}.cls-149{fill:#a6abad;}.cls-150{fill:#c2beab;}.cls-151{fill:#b9b2a1;}.cls-152{fill:#c2bcaa;}.cls-153{fill:#bbc2b5;}.cls-154{fill:#c6c2b0;}.cls-155{fill:#c9c6b4;}.cls-156{fill:#cccfbf;}.cls-157{fill:#bdb5a3;}.cls-158{fill:#c3c0ae;}.cls-159{fill:#b9a88f;}.cls-160{fill:#c7c3af;}.cls-161{fill:#a3876c;}.cls-162{fill:#a6907b;}.cls-163{fill:#9c8773;}.cls-164{fill:#a9a09c;}.cls-165{fill:#78716b;}.cls-166{fill:#817e7a;}.cls-167{fill:#a59b95;}.cls-168{fill:#847566;}.cls-169{fill:#a06549;}.cls-170{fill:#a96148;}.cls-171{fill:#b15f42;}.cls-172{fill:#6b3931;}.cls-173{fill:#362525;}.cls-174{fill:#3c2a28;}.cls-175{fill:#71413c;}.cls-176{fill:#985344;}.cls-177{fill:#212325;}.cls-178{fill:#4a4a4c;}.cls-179{fill:#4f5052;}.cls-180{fill:#604742;}.cls-181{fill:#4f4f52;}.cls-182{fill:#6e4d47;}.cls-183{fill:#4c2b28;}.cls-184{fill:#9ea3a6;}.cls-185{fill:#4e5960;}.cls-186{fill:#475258;}.cls-187{fill:#71787c;}.cls-188{fill:#3f4c53;}.cls-189{fill:#858b8e;}.cls-190{fill:#798084;}.cls-191{fill:#7a8185;}.cls-192{fill:#84473e;}.cls-193{fill:#ae7d75;}.cls-194{fill:#802217;}.cls-195{fill:#661e15;}.cls-196{fill:#8c392f;}.cls-197{fill:#8e493e;}.cls-198{fill:#97635a;}.cls-199{fill:#81878a;}.cls-200{fill:#90979a;}.cls-201{fill:#888d90;}.cls-202{fill:#b8bbbc;}.cls-203{fill:#909698;}.cls-204{fill:#83898c;}.cls-205{fill:#6d7477;}.cls-206{fill:#8d2c20;}.cls-207{fill:#902419;}.cls-208{fill:#c97362;}.cls-209{fill:#d6a79f;}.cls-210{fill:#c7857a;}.cls-211{fill:#b0503a;}.cls-212{fill:#763125;}.cls-213{fill:#842e1b;}.cls-214{fill:#3e3e41;}.cls-215{fill:#4c4b4d;}.cls-216{fill:#675b52;}.cls-217{fill:#696863;}.cls-218{fill:#818279;}.cls-219{fill:#83796b;}.cls-220{fill:#504841;}.cls-221{fill:#4f4b4d;}.cls-222{fill:#a0a3a5;}.cls-223{fill:#8a8e91;}.cls-224{fill:#dddede;}.cls-225{fill:#af9e8d;}.cls-226{fill:#a08b79;}.cls-227{fill:#b4a793;}.cls-228{fill:#b35938;}.cls-229{fill:#656260;}.cls-230{fill:#c06e4b;}.cls-231{fill:#856c67;}.cls-232{fill:#b58777;}.cls-233{fill:#90908f;}.cls-234{fill:#b8826d;}.cls-235{fill:#bb7b61;}.cls-236{fill:#b65f3c;}.cls-237{fill:#c0907e;}.cls-238{fill:#be7457;}.cls-239{fill:#ba5930;}.cls-240{fill:#b99282;}.cls-241{fill:#94887b;}.cls-242{fill:#96897b;}.cls-243{fill:#a7330d;}.cls-244{fill:#4b2d2a;}.cls-245{fill:#672f29;}.cls-246{fill:#44302e;}.cls-247{fill:#9f473d;}.cls-248{fill:#8c3e34;}.cls-249{fill:#98544c;}.cls-250{fill:#ba3f07;}.cls-251{fill:#b66043;}.cls-252{fill:#55595b;}.cls-253{fill:#6e7477;}.cls-254{fill:#39454d;}.cls-255{fill:#656f74;}.cls-256{fill:#b7bbbd;}.cls-257{fill:#cccecf;}.cls-258{fill:#79797b;}.cls-259{fill:#9ca1a3;}.cls-260{fill:#949a9c;}.cls-261{fill:#262527;}.cls-262{fill:#777c7f;}.cls-263{fill:#555f64;}.cls-264{fill:#6f7275;}.cls-265{fill:#6e6e71;}.cls-266{fill:#979c9e;}.cls-267{fill:#7a8286;}.cls-268{fill:#acb0b3;}.cls-269{fill:#5e686c;}</style></defs><title>brush</title><g id="레이어_2" data-name="레이어 2"><g id="레이어_1-2" data-name="레이어 1"><rect class="cls-1" width="74" height="74" rx="8.33" ry="8.33"/><path class="cls-2" d="M45.9,10.66l2.5-.11a2.13,2.13,0,0,1,2.29-.16,2.43,2.43,0,0,1-.75,3.25c-.41.32-.83.61-1.22.95a3.13,3.13,0,0,0-1.51,1.34,1.52,1.52,0,0,1-1.09.26c-.87-.18-1,.66-1.54,1a1.85,1.85,0,0,1-1.15.22,4.75,4.75,0,0,1-1.19.05,13,13,0,0,0-4.5,3.44c-1.67,1.74-3.93,2.61-5.94,3.83a1.08,1.08,0,0,1-1.2-.11,1.16,1.16,0,0,1-.29-1.11,1.56,1.56,0,0,1,.2-.41c.46-.33,1-.6,1.16-1.21a1.53,1.53,0,0,1,.33-.29c1-.37,1.68-1.41,2.85-1.57.4-.05.36-.57.37-.94a1.33,1.33,0,0,1,1-1.41A5.57,5.57,0,0,0,38.85,16a14,14,0,0,1,4.23-2.17c1.13-.08,1.58-1.35,2.65-1.55a2.76,2.76,0,0,0-.15-.56A1.08,1.08,0,0,1,45.9,10.66Z"/><path class="cls-3" d="M59.77,20.76l.1,1.22-.08.21a4.15,4.15,0,0,0-1.11,1.28c-.68.22-.92.89-1.37,1.35a1.47,1.47,0,0,1-1.08.23c-.81.28-1.91-.34-2.44.8a1.34,1.34,0,0,1-.34.29c-.85.41-2,.14-2.52,1.25a2.18,2.18,0,0,1-1.28.21,5,5,0,0,1-1.39,0c-1.13,0-1.62-.57-1.4-1.7.88-1.32,2-2.28,3.72-1.94.82.23,1.17-.32,1.49-.92a6.09,6.09,0,0,0,1.46-1.36,3.13,3.13,0,0,1,2.11-.25,1.11,1.11,0,0,0,1.4-.77,1.17,1.17,0,0,1,.38-.29,2.19,2.19,0,0,1,1.24-.11A1.17,1.17,0,0,1,59.77,20.76Z"/><path class="cls-4" d="M58.52,20.73l-1.24,0a3.23,3.23,0,0,1-2-3.37,1.72,1.72,0,0,0-.54-1.25,1.5,1.5,0,0,1-.31-1.59c.39-.65,1.15-.93,1.58-1.56a.94.94,0,0,1,1.17.24l.13,2.47a1.51,1.51,0,0,1,.46,1,1.89,1.89,0,0,0,.69,1.55l.1,1.23A.9.9,0,0,1,58.52,20.73Z"/><path class="cls-5" d="M24.36,23.28c0-.42,0-.85,0-1.27l1.21,0a4.85,4.85,0,0,1,1.62,1.5,1.23,1.23,0,0,1-.36,1.33,2,2,0,0,1-2.34,0A1,1,0,0,1,24.36,23.28Z"/><path class="cls-6" d="M40.85,11.92l1.23-.1a1.06,1.06,0,0,1,1.25-.17,1,1,0,0,1,.34.43,1.17,1.17,0,0,1-.35,1.32,2.13,2.13,0,0,1-2.56-.1A1,1,0,0,1,40.85,11.92Z"/><path class="cls-7" d="M61,23.32l.1,1.22a1,1,0,0,1,0,1.34,1.14,1.14,0,0,1-1.38.1,2.11,2.11,0,0,1-.36-2.45,1.1,1.1,0,0,1,.36-.44A1,1,0,0,1,61,23.32Z"/><path class="cls-8" d="M26.81,23.28c-1,.14-1.27-.44-1.23-1.3s.31-1.36,1.25-1.28l.23.12A1.87,1.87,0,0,1,27.22,23,.8.8,0,0,1,26.81,23.28Z"/><path class="cls-9" d="M45.9,10.66l0,1.19a.87.87,0,1,1-1.22-1.2Z"/><path class="cls-10" d="M44.65,10.65l-.06,1.18a.85.85,0,0,1-1.24.11V11.8a.76.76,0,0,1,0-1.17Z"/><path class="cls-11" d="M43.4,10.63l0,1.17-1.27,0C42,10.85,42.48,10.49,43.4,10.63Z"/><path class="cls-12" d="M38.3,13.07c-.13-1,.4-1.3,1.3-1.17a1,1,0,0,1,.28,1,1.15,1.15,0,0,1-.25.37,1.06,1.06,0,0,1-1.07.1A.62.62,0,0,1,38.3,13.07Z"/><path class="cls-13" d="M39.54,13.11l.06-1.21,1.25,0-.05,1.2A.8.8,0,0,1,39.54,13.11Z"/><path class="cls-14" d="M56.1,10.6l1.19,0c0,.42,0,.85,0,1.28a1,1,0,0,1-1.19.18,1,1,0,0,1-.32-1.15A.66.66,0,0,1,56.1,10.6Z"/><path class="cls-15" d="M49.67,10.56H48.4c-.16-1,.48-1.26,1.31-1.3l0,.13A.79.79,0,0,1,49.67,10.56Z"/><path class="cls-16" d="M56.07,11.84l1.18.07,0,1.25-1.16-.06-.2-.15A.77.77,0,0,1,56.07,11.84Z"/><path class="cls-17" d="M32,15.7l1.21-.1.21.19a1,1,0,0,1-.18,1.31,1.07,1.07,0,0,1-1.35-.1A.9.9,0,0,1,32,15.7Z"/><path class="cls-18" d="M32,15.7,32,16.92l-.14.19a.87.87,0,0,1-.87.09.63.63,0,0,1-.27-.35C30.6,15.88,31.1,15.56,32,15.7Z"/><path class="cls-19" d="M28.11,19.41c-.1-.95.38-1.31,1.27-1.27l.2.11a1,1,0,0,1,.15,1.07,1.07,1.07,0,0,1-.27.36,1.1,1.1,0,0,1-1.08.07A.61.61,0,0,1,28.11,19.41Z"/><path class="cls-20" d="M58.5,18.22c-1,.08-1.31-.42-1.17-1.33a.79.79,0,0,1,1.18.08Z"/><path class="cls-21" d="M26.83,20.7c-.06-.9.33-1.38,1.28-1.29l.1.11a1,1,0,0,1,.21,1.12.82.82,0,0,1-.34.35A.93.93,0,0,1,27,20.77Z"/><path class="cls-22" d="M58.52,20.73l.08-1.28c1-.07,1.36.35,1.17,1.31Z"/><path class="cls-23" d="M29.38,18.14c-.1-1,.44-1.28,1.29-1.29l0,.14A1,1,0,0,1,31,18.11a.9.9,0,0,1-.34.36,1,1,0,0,1-1.15-.21Z"/><path class="cls-24" d="M58.51,17l-1.18-.08c0-.42,0-.84,0-1.26C58.35,15.55,58.67,16.05,58.51,17Z"/><path class="cls-25" d="M61,23.32l-1.18-.09a.8.8,0,0,1-.11-1.2l.12-.05C60.84,21.92,61.22,22.38,61,23.32Z"/><path class="cls-26" d="M37.06,13.17l1.24-.1,0,.13a.92.92,0,0,1,.08,1.32,1.07,1.07,0,0,1-1.37,0A.91.91,0,0,1,37.06,13.17Z"/><path class="cls-27" d="M37.06,13.17,37,14.38l-.12.18a.82.82,0,0,1-.85.1.56.56,0,0,1-.27-.33C35.61,13.3,36.13,13,37.06,13.17Z"/><path class="cls-28" d="M34.53,14.44l1.23-.11v.15a.9.9,0,0,1,.07,1.31,1.08,1.08,0,0,1-1.37,0A.91.91,0,0,1,34.53,14.44Z"/><path class="cls-29" d="M34.53,14.44l-.06,1.21a1.33,1.33,0,0,0-.14.19.85.85,0,0,1-1.09-.1l0-.14C33.1,14.59,33.59,14.26,34.53,14.44Z"/><path class="cls-30" d="M51,58.1v-.63a1.21,1.21,0,0,1-.2-1.6,1.19,1.19,0,0,1,1.3-.3,1,1,0,0,1,.42.3c.15.79.82,1.16,1.35,1.65a3.17,3.17,0,0,1,.24,2.12c-.22.8.3,1.16.9,1.46a8,8,0,0,0,1.31,1.48,1.31,1.31,0,0,1,0,1.16c-.33.63-1,.75-1.56,1-.77-.06-1-.7-1.27-1.26s-.52-1.44-1.32-1.86c-.63-.32-.58-1.06-.56-1.7A1.92,1.92,0,0,0,51,58.1Z"/><path class="cls-31" d="M29.42,52.41c.27-.93-.78-2.48,1.23-2.57l.19,0c.34.3.55.74,1,.94a.68.68,0,0,1,.17.35,2.45,2.45,0,0,0,0,.27c.22.44.37.85-.33,1l-.94,0Z"/><path class="cls-32" d="M11.65,47.37c-1.49.48-2.34-.74-3.44-1.3-.38-.38-.27-.85-.27-1.31a.69.69,0,0,0,0-1.2c0-.56-.14-1.14.65-1.32s.55-.75.58-1.24a.87.87,0,0,1,1.27,0h0A10.19,10.19,0,0,0,12,42.54a1.4,1.4,0,0,1,.21.91,2.15,2.15,0,0,1-.09,1.18,1.36,1.36,0,0,1-.24.38c-.85.55.19.85.18,1.29A.9.9,0,0,1,11.65,47.37Z"/><path class="cls-33" d="M15.5,49.84V48.61A1.61,1.61,0,0,0,14.14,48a1.5,1.5,0,0,1-1.46-.75c-.26-1.06.27-1.56,1.24-1.75,2-.4,2.66-.16,3.36,1.25,0,.68-.05,1.36.84,1.56a.81.81,0,0,1,.24.34c-.11.42-.23.83-.35,1.25Z"/><path class="cls-34" d="M11.74,39.76V37.21c.28-.48.75-.51,1.23-.53a5,5,0,0,1,1.4,0c1.05,0,1.6.47,1.45,1.58-.4.69-1.19,1-1.54,1.75a1.74,1.74,0,0,1-1.3.23A1.4,1.4,0,0,1,11.74,39.76Z"/><path class="cls-35" d="M13,37.2H11.73c-2.11,0-1-1.61-1.31-2.54l1.21,0A5.78,5.78,0,0,1,13.21,36,1,1,0,0,1,13,37.2Z"/><path class="cls-36" d="M10.42,41H9.15A1.38,1.38,0,0,1,8,39c.19-.43.76-.58.83-.35C9.07,39.63,10.68,39.69,10.42,41Z"/><path class="cls-37" d="M11.64,42.57c-1.14,0-1.25-.71-1.22-1.57H11.6l.24.14A1,1,0,0,1,11.64,42.57Z"/><path class="cls-38" d="M7.92,43.56c.48,0,1.14-.2,1.16.59s-.67.57-1.14.61C7.93,44.36,7.92,44,7.92,43.56Z"/><path class="cls-39" d="M11.74,39.76H13c.34,1.43.15,1.61-1.25,1.25l-.14,0C11.65,40.58,11.7,40.17,11.74,39.76Z"/><path class="cls-40" d="M61.09,44.81v.94a1.41,1.41,0,0,1,.28,1.49,1,1,0,0,1-.4.38,1.21,1.21,0,0,1-1.32-.2,1.63,1.63,0,0,1-.32-1.35,1.47,1.47,0,0,1,.48-1.26v0Z"/><path class="cls-41" d="M63.64,28.65l0,1a1,1,0,0,1-1.17.16.93.93,0,0,1-.34-1.12.65.65,0,0,1,.35-.34h1.19C63.63,28.45,63.63,28.55,63.64,28.65Z"/><path class="cls-42" d="M64.9,53.66c2,0,1,1.63,1.27,2.54h0a1,1,0,0,1-1.3.18,1.3,1.3,0,0,1-.46-1.27,1.68,1.68,0,0,1,.29-1.3Z"/><path class="cls-43" d="M63.63,51.12c2,0,1,1.62,1.27,2.54l0,0a1,1,0,0,1-1.3.16,1.31,1.31,0,0,1-.46-1.26,1.7,1.7,0,0,1,.29-1.3Z"/><path class="cls-40" d="M61.11,47.31l1.24,0c0,.42,0,.84,0,1.26h0a1,1,0,0,1-1.15.26.93.93,0,0,1-.36-.35,1,1,0,0,1,.24-1.17Z"/><path class="cls-44" d="M24.36,23.28c0,2.1,1.65.95,2.56,1.25a1,1,0,0,1,1.17-.24.89.89,0,0,1,.35.37,1.26,1.26,0,0,1-.11,1.23c-.4.36-.88.64-.83,1.34a1.46,1.46,0,0,1-.65,1.31,1.2,1.2,0,0,1-1.25,0,1.36,1.36,0,0,1-.51-1.1c-.39-1.33-.82-1.34-2.09,0a1.35,1.35,0,0,1-1.16,0,7.14,7.14,0,0,1-1.33-1.62,4,4,0,0,1,.2-.86C22.18,24.9,23.05,23.58,24.36,23.28Z"/><path class="cls-45" d="M14.52,30.81c-.13-2,1.41-.92,2.19-1.23A5.2,5.2,0,0,1,18.32,31a1.27,1.27,0,0,1-.23,1.29,2.34,2.34,0,0,1-2.43.21C14.93,32.19,14.8,31.45,14.52,30.81Z"/><path class="cls-35" d="M13,33.39c-.12-.92.29-1.34,1.22-1.28a6.15,6.15,0,0,1,1.59,1.42,1.26,1.26,0,0,1-.18,1.29,1.65,1.65,0,0,1-1.37.35,1.57,1.57,0,0,1-1.39-.39A1.08,1.08,0,0,1,13,33.39Z"/><path class="cls-46" d="M20.51,25.73c.89,0,1.45.35,1.32,1.36a1,1,0,0,1,.25,1.17,1.07,1.07,0,0,1-.34.39,2.1,2.1,0,0,1-1.3.19,1.13,1.13,0,0,1-1.16-.5l0-1.3c.4-.41.8-.82,1.23-1.21Z"/><path class="cls-47" d="M15.47,33.4c-1,.11-1.33-.39-1.29-1.29.1-.43-.1-.95.34-1.3.89,0,1.09.55,1,1.31a.86.86,0,0,1,.17,1.12Z"/><path class="cls-48" d="M13,33.39l0,1.24a.94.94,0,0,1,.14,1.13l-.18.16c-1,.14-1.4-.31-1.34-1.27S11.93,33.2,13,33.39Z"/><path class="cls-49" d="M18,30.88c-.94.08-1.38-.36-1.33-1.3S17,28.14,18,28.34a1.24,1.24,0,0,1,.49,1.14,1.58,1.58,0,0,1-.25,1.25Z"/><path class="cls-50" d="M18,29.59V28.34h2.54a1,1,0,0,1,.26,1.19,1,1,0,0,1-.34.39,1.93,1.93,0,0,1-1.29.18A1.3,1.3,0,0,1,18,29.59Z"/><path class="cls-51" d="M20.56,25.83c.07.89-.26,1.38-1.23,1.21C19.11,26,19.55,25.62,20.56,25.83Z"/><path class="cls-52" d="M34.47,15.65h1.26c.47-.37.86-.83,1.3-1.23l0,0h1.26c.47-.36.85-.83,1.31-1.22l0,0h3.81a.86.86,0,0,1,0,1.28c-.52,0-1.08,0-1.27.66-.1.33-.33.61-.67.57-1.63-.21-2.29,1.11-3.12,2a1.53,1.53,0,0,1-1.37.53c-.92,0-1.22.45-1.17,1.27C34.62,20.5,33,20.81,32,22h0c-.43.41-.85.84-1.27,1.26h0a1.93,1.93,0,0,1-2.43.34,1.3,1.3,0,0,1-.43-.41,2,2,0,0,1,.31-2.48h0c.43-.42.86-.83,1.26-1.27h0c.44-.4.86-.84,1.28-1.26h0c.46-.4.85-.84,1.29-1.24v0h1.24c.47-.38.87-.83,1.3-1.24Z"/><path class="cls-53" d="M30.69,24.53a30.08,30.08,0,0,0,6.22-3.6,41,41,0,0,0,4-3.67,1.54,1.54,0,0,1,1.17-.32,1.06,1.06,0,0,1,.26,1.13c-.35.58-1.11.8-1.32,1.5a3.29,3.29,0,0,0-1.32,1.32c-.48.31-1,.58-.91,1.3a1.59,1.59,0,0,1-.25,1.08c-.47.46-1.11.74-1.36,1.41-.65.27-1,.88-1.42,1.37-.81.57-2.13.14-2.63,1.35a2.52,2.52,0,0,1-2.33,0c-.57-.54-1.05-1.18-1.65-1.69a1.15,1.15,0,0,1,.19-1.32A1,1,0,0,1,30.69,24.53Z"/><path class="cls-54" d="M48.42,14.35c.92-1.13,2.41-1.91,2.21-3.7a1,1,0,0,1,.39-.41,5.3,5.3,0,0,1,3.64,0,1.21,1.21,0,0,1,.43.41A2.4,2.4,0,0,1,55,13.23a2.73,2.73,0,0,1-2.34.5c-.95-.31-1.22.58-1.76,1a2,2,0,0,1-2.3-.14Z"/><path class="cls-55" d="M43.35,14.39V11.94l1.24-.11,1.28,0c.47.09,1.18-.12,1.18.64s-.69.6-1.18.64-1,0-1.25.66S43.87,14.39,43.35,14.39Z"/><path class="cls-56" d="M32,22c0-.67.06-1.22.93-1.29,1.08-.09,1.58-1.58,2.86-1.25-.07.3-.13.86-.22.87C34.11,20.43,33.42,22,32,22Z"/><path class="cls-57" d="M30.69,24.53l-1.3,0a.86.86,0,0,1-1.23,0h0a.87.87,0,0,1,0-1.28h2.53Z"/><path class="cls-58" d="M45.91,15.69l1.2-.08a1.1,1.1,0,0,1,1.29-.15,1,1,0,0,1,.34.45c.16,1.21-.54,1.58-1.58,1.61-.46-.14-1-.07-1.38-.47A1,1,0,0,1,45.91,15.69Z"/><path class="cls-59" d="M50.94,10.55l-.31.1-1-.09,0-1.18H51A.79.79,0,0,1,50.94,10.55Z"/><path class="cls-60" d="M45.91,15.69l0,1.23a.77.77,0,0,1-1,.28.67.67,0,0,1-.27-.35C44.49,15.85,45,15.56,45.91,15.69Z"/><path class="cls-61" d="M48.41,15.63l-1.3,0c-.08-1,.45-1.29,1.31-1.26v.11A.75.75,0,0,1,48.41,15.63Z"/><path class="cls-62" d="M43.37,17l1.23-.1,0,.15c.36,1.39.21,1.55-1.28,1.34A1,1,0,0,1,43.37,17Z"/><path class="cls-63" d="M43.37,17l0,1.24a.78.78,0,0,1-1,.29.66.66,0,0,1-.3-.32c0-.41,0-.81,0-1.22Z"/><path class="cls-57" d="M30.69,23.27C30.6,22.32,31,21.9,32,22,32.05,23,31.63,23.37,30.69,23.27Z"/><path class="cls-64" d="M54.74,14.42a9,9,0,0,1,1.48,4.63c0,.47,1.35.64,1.06,1.64l0,.09c-.48.35-.83.84-1.32,1.18L53.55,22a2.11,2.11,0,0,1-1.71.61,2,2,0,0,0-1.58.49,1.58,1.58,0,0,1-2.26.14A1.65,1.65,0,0,1,47.78,21c.14-.28.35-.52.51-.79a4.41,4.41,0,0,1,2.47-1.57c.58-.07.68-.5.9-.94a28.13,28.13,0,0,1,1.9-3.55A1,1,0,0,1,54.74,14.42Z"/><path class="cls-65" d="M48.74,20.42c-.25.52-.53,1-.76,1.55a.81.81,0,0,0,.32,1c.3.24.81.48,1,.19,1.09-1.76,2.79-1,4.26-1.1.07.94-.38,1.35-1.3,1.28-.49.35-.85.84-1.32,1.2-1.07.08-2.3-.27-2.89,1.13-.06.16-.57.12-.88.17-.77.65-1,2.19-2.6,1.47-.33-.18-.39-.59-.73-.78-1.8-1-1.83-1.16-.84-3.06A32.17,32.17,0,0,0,46,21,2.05,2.05,0,0,1,48.74,20.42Z"/><path class="cls-66" d="M44.61,27c.52,0,1.08.09,1.27-.61s.77-.59,1.28-.6c-.12,1,.37,1.34,1.28,1.27a1,1,0,0,1,.15,1.31,1.33,1.33,0,0,1-1.2.47c-1,.15-2.15-.16-2.75,1a1.84,1.84,0,0,1-1.28.21c-1,0-1.64-.23-1.65-1.34a1.19,1.19,0,0,1,.17-.49,11.56,11.56,0,0,0,1.57-1.48A1,1,0,0,1,44.61,27Z"/><path class="cls-67" d="M56,24.55l1.21-.05a1.1,1.1,0,0,1,1.34-.13,1.21,1.21,0,0,1,.29,1.29c-.35.71-1.19,1-1.54,1.68a2,2,0,0,1-1.28.26,4,4,0,0,1-2.39-.16,1.18,1.18,0,0,1-.4-.37,1.08,1.08,0,0,1,.22-1.28h0C54.1,24.88,55.44,25.49,56,24.55Z"/><path class="cls-68" d="M49.71,27.1,50.93,27a1.67,1.67,0,0,1,2.55,0l0,0a1,1,0,0,1,.16,1.22c-.66,1-2.24.32-2.77,1.55a1.28,1.28,0,0,1-1.33-.12,1.47,1.47,0,0,1-.38-1.34A1.44,1.44,0,0,1,49.71,27.1Z"/><path class="cls-69" d="M53.48,27.06l-2.55,0c.1-2,1.62-1,2.56-1.25C53.48,26.22,53.48,26.64,53.48,27.06Z"/><path class="cls-70" d="M56,24.55c-.08,2-1.63,1-2.56,1.23C53.56,23.76,55.11,24.8,56,24.55Z"/><path class="cls-71" d="M49.71,27.1l0,1.23a.85.85,0,0,1-1.29,0c0-.4,0-.8,0-1.21Z"/><path class="cls-72" d="M56,22c0-.91.35-1.38,1.32-1.18C57.37,21.74,56.92,22.11,56,22Z"/><path class="cls-73" d="M59.75,22c0,.4.07.8.11,1.2l-.08.11a.89.89,0,0,1-1,.2.63.63,0,0,1-.26-.34C58.47,22.33,58.83,21.88,59.75,22Z"/><path class="cls-74" d="M50.93,24.51c-.06-.94.36-1.37,1.32-1.2Q52.33,24.72,50.93,24.51Z"/><path class="cls-75" d="M58.53,24.52l-1.28,0c-.06-.89.34-1.34,1.25-1.3l.09.1A.8.8,0,0,1,58.53,24.52Z"/><path class="cls-76" d="M54.74,14.42l-1.23,0a1,1,0,0,1-1.36.06,1,1,0,0,1,.1-1.33l2.49-.06a.91.91,0,0,1,1.27,0l.05,0C56.1,14,55.71,14.52,54.74,14.42Z"/><path class="cls-77" d="M50.94,10.55l0-1.17h3.78a.8.8,0,0,1,0,1.2Z"/><path class="cls-78" d="M54.77,10.58l0-1.2c1.08-.29,1.38.28,1.35,1.22H56a.85.85,0,0,1-1.21,0Z"/><path class="cls-79" d="M28.16,23.26v1.28H26.92c0-.42-.07-.84-.11-1.25l.15,0a.78.78,0,0,1,1.17,0Z"/><path class="cls-80" d="M57.25,27c-.08-1,.45-1.29,1.32-1.25a.92.92,0,0,1,1.26,0h1.32a1.13,1.13,0,0,1,.2,1.24,1,1,0,0,1-.38.4,3,3,0,0,1-1.36.22C58.76,27.67,57.85,28,57.25,27Z"/><path class="cls-81" d="M59.83,25.75l-1.26,0c0-.42,0-.83,0-1.25l.06-1.22,1.19,0C59.8,24.15,59.81,25,59.83,25.75Z"/><path class="cls-82" d="M28.13,23.29l-1.17,0V20.77l1.18-.05Z"/><path class="cls-83" d="M61.13,27.05c0-.43,0-.85,0-1.28l1.21,0c0,.43,0,.86,0,1.29A.76.76,0,0,1,61.13,27.05Z"/><path class="cls-84" d="M61.13,27.05l1.18,0,.12,1.25-.14,0c-1.4.38-1.58.19-1.24-1.26Z"/><path class="cls-85" d="M39.57,13.15c.1,1-.36,1.36-1.31,1.22,0-.39,0-.78,0-1.17Z"/><path class="cls-86" d="M54.74,10.64l1.21,0,.12,1.23L56,13.14l-1.27,0Z"/><path class="cls-87" d="M34.49,15.67c.11,1-.34,1.37-1.3,1.24,0-.39,0-.78.05-1.17Z"/><path class="cls-88" d="M32,17c.14,1-.32,1.38-1.29,1.24l0-1.2Z"/><path class="cls-89" d="M30.69,18.2c.11,1-.32,1.38-1.28,1.26l.05-1.2Z"/><path class="cls-90" d="M29.41,19.46c.12,1-.3,1.38-1.26,1.27l.06-1.21Z"/><path class="cls-91" d="M37,14.41c.09,1-.35,1.37-1.3,1.23,0-.38,0-.77,0-1.16Z"/><path class="cls-92" d="M38.29,43.54c-.11.84.26,1.74-.31,2.53H37l-.19-.1c-.71-.52,0-1.76-1.07-2.1a1.47,1.47,0,0,1-.32-.29c-.11-.77-1-.85-1.31-1.41A2.19,2.19,0,0,1,34,41a4.56,4.56,0,0,1,0-1.33,1.55,1.55,0,0,1,.41-1.3,1.21,1.21,0,0,1,1.34-.08,1.35,1.35,0,0,1,.57,1.1c-.17.82.39,1.17,1,1.49.39.56,1,.91,1.33,1.54A1.12,1.12,0,0,1,38.29,43.54Z"/><path class="cls-93" d="M35.8,47.34l-.06,1.22a1,1,0,0,1-1.2.29,1.09,1.09,0,0,1-.38-.36A2.86,2.86,0,0,1,34,46.25c.51-.93-.45-2.16.6-3a1,1,0,0,1,1.12.29h0c.83.68.67,1.57.55,2.46A1.69,1.69,0,0,1,35.8,47.34Z"/><path class="cls-94" d="M33.24,49.92c.1.94-.37,1.3-1.25,1.26l-.07-.09a1,1,0,0,1-.28-1,1,1,0,0,1,.26-.37,1,1,0,0,1,1.07-.1A.63.63,0,0,1,33.24,49.92Z"/><path class="cls-95" d="M34.54,48.67l0,1.19-1.25.06,0-.12a.92.92,0,0,1-.06-1.3,1,1,0,0,1,1.32,0Z"/><path class="cls-96" d="M23.09,48.64l-1.27,0a1.82,1.82,0,0,1-.42-2.28c.16-.73,1.28-.83,1.16-1.76A1.41,1.41,0,0,1,23,43.41a1.24,1.24,0,0,1,1.2-.18c.14.07.32.13.37.27.35,1,.91,1.27,1.84.69a1.36,1.36,0,0,1,.61-.11,6.86,6.86,0,0,1,2.29.36c.63.29.72,1.15,1.44,1.37a1.14,1.14,0,0,1,.25.39,1,1,0,0,1-.3,1.1c-1.06.13-2.25-.29-3,1.1-.18.34-1.37.16-2.09.22a1.45,1.45,0,0,1-1.27.46A1.45,1.45,0,0,1,23.09,48.64Z"/><path class="cls-97" d="M33.22,48.61c0,.39,0,.79,0,1.19L32,49.87a.89.89,0,0,1,0-1.29V47.36c-.38-.46-.83-.86-1.25-1.29h0a1.69,1.69,0,0,1-.36-2.1,6.29,6.29,0,0,0,2.9-3.14.94.94,0,0,1,1.22.22l.08,1.2a.92.92,0,0,1,0,1.27c.06.34,0,.88.18,1,1.13.73.24,1.11-.21,1.58C33.51,46.66,34.17,48,33.22,48.61Z"/><path class="cls-98" d="M21.81,46.07V48.6c-.09.48-.24,1-.8,1s-.43-.63-.53-1-.17-.81-.25-1.21a1.22,1.22,0,0,1,.34-1.47A.92.92,0,0,1,21.81,46.07Z"/><path class="cls-99" d="M20.61,46.09c-.07.43,0,.92-.37,1.27h-.9l-.2-.1a1,1,0,0,1-.16-1,1.06,1.06,0,0,1,.28-.35,1.09,1.09,0,0,1,1.06-.09A.69.69,0,0,1,20.61,46.09Z"/><path class="cls-100" d="M30.69,46.07c1-.1,1.37.34,1.25,1.29L30.7,47.3C30.7,46.89,30.7,46.48,30.69,46.07Z"/><path class="cls-101" d="M18.36,48.61H18a1,1,0,0,1-.27-1.14.85.85,0,0,1,.33-.37,1,1,0,0,1,1.16.21l.1.06C19.29,48,19.28,48.66,18.36,48.61Z"/><path class="cls-102" d="M31.93,48.58c0,.43,0,.86,0,1.29h0a.87.87,0,0,1-1.24,0l-.07-.06C30.6,48.93,31,48.51,31.93,48.58Z"/><path class="cls-103" d="M66.15,60c.1.93-.3,1.37-1.25,1.27l-.2-.18a1,1,0,0,1,.2-1.24A1,1,0,0,1,66.15,60Z"/><path class="cls-103" d="M64.9,61.27c.1.95-.32,1.37-1.27,1.27h0a1,1,0,0,1-.06-1.32.94.94,0,0,1,1.31,0Z"/><path class="cls-104" d="M66.15,60,65,60a1.88,1.88,0,0,1-.23-.16,1,1,0,0,1,.11-1.27,1,1,0,0,1,1.27.12c0,.32,0,.65.07,1C66.17,59.79,66.16,59.89,66.15,60Z"/><path class="cls-105" d="M52.25,56.18l-.06-.29a.91.91,0,0,1-.11-1,2.26,2.26,0,0,1,1.48-.69,1.51,1.51,0,0,1,1.5.54c.06,2.25,1.53,4.11,1.73,6.33a2.17,2.17,0,0,1-.55,1.41l-.22.13c-.92.06-1.39-.33-1.29-1.28-.36-.48-.85-.84-1.21-1.32l-.08-2.46C53.12,57,52.61,56.66,52.25,56.18Z"/><path class="cls-106" d="M59.87,62.59c0,.82-.27,1.27-1.17,1.21s-1.77,0-2.65,0l0-1.21v-.1A3.1,3.1,0,0,1,59.87,62.59Z"/><path class="cls-107" d="M52.27,54.93c0,.32-.05.64-.08,1H51c0-.75,0-1.49,0-2.24a1,1,0,0,1,1.35-.08A1,1,0,0,1,52.27,54.93Z"/><path class="cls-108" d="M53.52,60c.95-.06,1.37.37,1.21,1.31C53.78,61.35,53.36,60.93,53.52,60Z"/><path class="cls-109" d="M52.25,56.18c1-.06,1.37.38,1.19,1.34C52.5,57.55,52.1,57.11,52.25,56.18Z"/><path class="cls-110" d="M59.87,62.59,56,62.48c0-.43-.05-.88.32-1.21A14.87,14.87,0,0,1,61,59.71c.58.47,1,1.15,1.58,1.59a1,1,0,0,1-.25,1.19Z"/><path class="cls-111" d="M62.32,62.49l0-1.18.12-.19a.84.84,0,0,1,.85-.12.72.72,0,0,1,.29.33c0,.4,0,.8,0,1.2Z"/><path class="cls-112" d="M30.72,49.9l1.24,0c0,.41,0,.82,0,1.23C31,51.25,30.59,50.83,30.72,49.9Z"/><path class="cls-113" d="M64.93,56.19h1.22c0,.43,0,.87,0,1.3a.94.94,0,0,1-1.33,0A.89.89,0,0,1,64.93,56.19Z"/><path class="cls-114" d="M64.92,57.41l1.21.09c0,.4,0,.8,0,1.21l-1.19,0a.78.78,0,0,1-.33-1A.64.64,0,0,1,64.92,57.41Z"/><path class="cls-47" d="M16.77,47.35c-.1-.63.09-1.7-.94-1.36S13,45.08,13,47.35a.83.83,0,0,1,0,1.24c-.93.13-1.36-.29-1.3-1.22,0-.42,0-.85,0-1.27a.94.94,0,0,1,0-1.31h0c.74-.74,1.94-.73,2.55-1.82.35-.62.58-1.27.92-1.89a1.1,1.1,0,0,1,.34-.34,1.36,1.36,0,0,1,1.21,0,1,1,0,0,1,.39.3c.26.68.84.63,1.42.64.77,0,1.57-.11,2.18.54a1,1,0,0,1,.13.71c-.86.9-.66,2.3-1.52,3.19h0c-.44.41-.86.84-1.28,1.28v0A.9.9,0,0,1,16.77,47.35Z"/><path class="cls-115" d="M13,48.59l0-1.24c.91.27,2.51-.85,2.51,1.26-.46,0-1-.09-1.2.48-.16.41-.32.84-.86.68S13,49,13,48.59Z"/><path class="cls-116" d="M11.74,41c.92.09,1.33-.34,1.25-1.25l1.19-.06a1.12,1.12,0,0,1,1.19-.25,1,1,0,0,1,.37.36A1,1,0,0,1,15.47,41v0a14.09,14.09,0,0,1-2.1,2.46c-.56.41-1.08.64-1.65,0l-.09-.93C11.67,42.05,11.7,41.53,11.74,41Z"/><path class="cls-117" d="M11.73,43.5c1.43.16,1.64-1.3,2.44-2A2.07,2.07,0,0,1,15.48,41c-.08,2.53-1.37,3.82-3.81,3.81Z"/><path class="cls-118" d="M11.69,44.79V46.1c-.5-.09-1.27.14-1.2-.73S11.23,44.88,11.69,44.79Z"/><path class="cls-119" d="M16.77,47.35l1.26,0c0,.43,0,.85,0,1.27C17.06,48.71,16.63,48.31,16.77,47.35Z"/><path class="cls-120" d="M15.45,38.42c.2-1-.27-1.33-1.19-1.26A1,1,0,0,1,14,36a1.13,1.13,0,0,1,.33-.39,2.42,2.42,0,0,1,1.24-.27c.49,0,.63-.5.94-.74a2,2,0,0,1,2.32-.39A35.55,35.55,0,0,1,22,35.91a1.27,1.27,0,0,1,0,1.33,1.41,1.41,0,0,1-1.25.49,7.24,7.24,0,0,1-1.23.05c-.42,0-.86,0-.83.61a.73.73,0,0,0,.68.7,2,2,0,0,1,1.37.6,1.28,1.28,0,0,1,.17.51c-.58,1.66-2.41,2-4.16.8h0c-.43-.41-.85-.84-1.27-1.26h0A1,1,0,0,1,15.45,38.42Z"/><path class="cls-121" d="M14.22,35.93c0,.41,0,.82,0,1.23L13,37.2c0-.43,0-.85,0-1.28h0A.87.87,0,0,1,14.22,35.93Z"/><path class="cls-122" d="M15.45,38.42c0,.44,0,.88,0,1.32l-1.31,0C14.1,38.78,14.55,38.38,15.45,38.42Z"/><path class="cls-123" d="M58.6,39.76,58.49,41a1.66,1.66,0,0,0,0,2.57l.12,1.25a2,2,0,0,1-.1.21c-.64.32-.73,1.24-1.52,1.41a1.17,1.17,0,0,1-1.44-.89,34.38,34.38,0,0,1-.25-3.92,5.37,5.37,0,0,1,1.75-4.67,3.09,3.09,0,0,0,1-2.23,26.86,26.86,0,0,1-.15-3.91c.11-1.06.54-1.8,1.78-1.69a.9.9,0,0,1,.43.34,2.32,2.32,0,0,1,.23,1.32,4.36,4.36,0,0,1,0,1.25,4.75,4.75,0,0,1,0,1.13c-.15.71.32,1,.83,1.31a1.18,1.18,0,0,1,.23.39,1.12,1.12,0,0,1-.32,1.1l0,0c-.39.46-.87.83-1.22,1.32l-.07,1.18C59.46,38.92,59,39.27,58.6,39.76Z"/><path class="cls-124" d="M62.42,29.6l1.17,0v2.48a1,1,0,0,1-1.28.18A1.92,1.92,0,0,1,62,30,.82.82,0,0,1,62.42,29.6Z"/><path class="cls-125" d="M61.11,36l0-1.25a.78.78,0,0,1,1.19-.07C62.47,35.58,62.07,36,61.11,36Z"/><path class="cls-126" d="M59.86,37.24c-.16-1,.25-1.39,1.22-1.32C61.22,36.87,60.82,37.32,59.86,37.24Z"/><path class="cls-127" d="M58.6,39.76c-.18-1,.22-1.4,1.19-1.34l0,1.31Z"/><path class="cls-128" d="M62.41,32.15l1.18,0c.14.9-.17,1.39-1.15,1.29l-.22-.14A.75.75,0,0,1,62.41,32.15Z"/><path class="cls-129" d="M62.33,34.63l-1.19.07-.1-.06a1,1,0,0,1-.22-1.13.88.88,0,0,1,.33-.36.92.92,0,0,1,1.13.23l.16,0C62.4,33.82,62.37,34.23,62.33,34.63Z"/><path class="cls-130" d="M58.51,43.55c-1,.08-1.23-.46-1.23-1.36s.34-1.27,1.21-1.21C58.5,41.83,58.51,42.69,58.51,43.55Z"/><path class="cls-131" d="M59.81,44.81l0,1.29c-1.43.33-1.6.16-1.31-1.31h1.33Z"/><path class="cls-132" d="M58.48,44.79c0,.85.33,1.41,1.31,1.31,0,.39.05.79.07,1.18.34.51.83.87,1.21,1.34l0,0a17,17,0,0,1,1.21,1.34l.07,1.18c.36.49.86.84,1.2,1.34l.07,1.19c.35.49.86.83,1.18,1.34l.09,1.21c0,.4,0,.81,0,1.22l-.09.1a1,1,0,0,1-1.17.23c-.61-.38-.88-1.12-1.54-1.45a1.54,1.54,0,0,1-.29-1.11c.19-.88-.65-1-1.07-1.48-1.71-1.65-2.29-4-3.6-5.89a1.26,1.26,0,0,1,.12-1.72C57.21,45.22,57.53,44.71,58.48,44.79Z"/><path class="cls-133" d="M61.07,48.62c-1,.06-1.37-.38-1.21-1.34l1.21.07Z"/><path class="cls-134" d="M59.86,29.64l0-.36a1,1,0,0,1-.45-1,1.36,1.36,0,0,1,.45-1.26h1.24c0,.84.26,1.4,1.24,1.26,0,.43.09.85.13,1.28h-.14A1.54,1.54,0,0,1,59.86,29.64Z"/><path class="cls-135" d="M64.84,55c-1,.06-1.35-.4-1.18-1.34l1.22,0C64.87,54.11,64.86,54.55,64.84,55Z"/><path class="cls-136" d="M63.59,52.45c-1,.06-1.37-.39-1.2-1.34l1.23,0Z"/><path class="cls-137" d="M62.32,49.93c-1,.07-1.35-.4-1.21-1.34l1.23,0C62.34,49.05,62.33,49.49,62.32,49.93Z"/><path class="cls-138" d="M26.9,28.33c.32-.89-.86-2.53,1.25-2.53l.19.07a2.41,2.41,0,0,0,1.09.88,1.18,1.18,0,0,1,.3.29,1.64,1.64,0,0,0,1,1,1.39,1.39,0,0,1,.29.35,2,2,0,0,1,.18,1.11c-.12.88.93.94,1.14,1.6a2.22,2.22,0,0,1-.22,2.31,1.22,1.22,0,0,1-1.25.27c-.65-.32-.89-1.13-1.59-1.4A9.72,9.72,0,0,0,27,28.53C27,28.46,26.92,28.4,26.9,28.33Z"/><path class="cls-139" d="M23.07,27c-.11-1.14.61-1.21,1.47-1.22s1.14.51,1.06,1.29a1.44,1.44,0,0,1-1.3.47A1.11,1.11,0,0,1,23.07,27Z"/><path class="cls-140" d="M23.07,27l1.26.08a1,1,0,0,1,.12,1.33,1.48,1.48,0,0,1-1.36.4c-.5,0-1,0-1.29-.5l0-1.23Z"/><path class="cls-141" d="M24.37,28.33c0-.42,0-.83,0-1.24H25.6c0,.41.07.82.1,1.22l-.13.2a.87.87,0,0,1-1.07,0Z"/><path class="cls-142" d="M25.7,28.3l1.2,0h0A1,1,0,0,1,27,29.7a1.09,1.09,0,0,1-1.4,0,1,1,0,0,1,0-1.38Z"/><path class="cls-143" d="M28.16,24.53l1.23,0c0,.4.07.81.11,1.21l-.16.2a.87.87,0,0,1-1.16-.19l0,0Z"/><path class="cls-144" d="M21.8,28.32h1.29a1.88,1.88,0,0,1,.63,1.53c0,1.19.06,2.39,0,3.59s-.49,2.24-1.88,2.5c-1-.16-2.08.38-2.82-1a1.35,1.35,0,0,0-2.2.3,1.23,1.23,0,0,1-1.25.67.88.88,0,0,1-.09-1.29V33.4l.09,0c.5-1,2-.29,2.44-1.34l0-1.22.06.05a.85.85,0,0,1,1-.38,1.18,1.18,0,0,1,.39.19c.3.27.49.26.53-.2a1.52,1.52,0,0,1,.51-1h0a13.85,13.85,0,0,0,1.26-1.28Z"/><path class="cls-145" d="M18,32.1c.07,2.06-1.57,1-2.44,1.34l-.07-1.32Z"/><path class="cls-101" d="M14.22,35.93H13l.06-1.3,1.25.08a.89.89,0,0,1,0,1.24Z"/><path class="cls-146" d="M14.25,36c0-.41,0-.83,0-1.24l1.2-.07.09,1.29Z"/><path class="cls-147" d="M21.8,28.31c.13,1-.3,1.39-1.26,1.28l0-1.26Z"/><path class="cls-148" d="M19.28,30.82l-1.18.11c0-.44-.05-.89-.08-1.34l1.3.05A.77.77,0,0,1,19.28,30.82Z"/><path class="cls-149" d="M19.28,30.82l0-1.18,1.22-.06v1.26A.92.92,0,0,1,19.3,31Z"/><path class="cls-150" d="M33.2,27c.06-1.95,1.61-1,2.49-1.27l.23.15a1.08,1.08,0,0,1,0,1.29,2.11,2.11,0,0,1-2.33.25A1,1,0,0,1,33.2,27Z"/><path class="cls-151" d="M30.72,27l2.48,0,0,.1a1,1,0,0,1,.1,1.33,1.51,1.51,0,0,1-1.36.38,1.54,1.54,0,0,1-1.31-.48h0a.94.94,0,0,1-.28-1A.8.8,0,0,1,30.72,27Z"/><path class="cls-152" d="M35.69,25.75c0-.89.4-1.32,1.29-1.26l.22.2c.1,1.37-.1,1.54-1.4,1.15Z"/><path class="cls-153" d="M29.5,25.77c.88-.05,1.28.36,1.22,1.23l-.06.13a.87.87,0,0,1-1.23-.07l0,0a.9.9,0,0,1,0-1.25Z"/><path class="cls-154" d="M40.78,19.43c-.06-.91.39-1.31,1.28-1.27l.08.1c.57,1.06.2,1.53-1,1.5A.78.78,0,0,1,40.78,19.43Z"/><path class="cls-155" d="M39.52,20.71c-.05-.89.35-1.34,1.26-1.28l.11.09A1,1,0,0,1,41,20.79a1,1,0,0,1-1.27.13Z"/><path class="cls-156" d="M38.3,22c-.11-.92.28-1.36,1.22-1.3l.07,0A.91.91,0,1,1,38.3,22Z"/><path class="cls-157" d="M38.3,22l1.25,0c.67,1.08.31,1.56-.89,1.58a.86.86,0,0,1-.43-.34Z"/><path class="cls-158" d="M37,24.49c0-.88.34-1.33,1.25-1.26l.13.07c.3,1.42.14,1.58-1.28,1.3Z"/><path class="cls-159" d="M48.41,15.63c0-.39,0-.78,0-1.17L51,14.32l.21.24a1.09,1.09,0,0,1-.6,1.53,1.75,1.75,0,0,1-2.12-.38Z"/><path class="cls-160" d="M52.25,13.17l0,1.21a.83.83,0,0,1-1.24.08l0-.14C50.87,13.36,51.36,13,52.25,13.17Z"/><path class="cls-161" d="M51,14.46l1.24-.08,1.3.06c-.06,1,.26,2.14-1,2.72-.18.08-.25.57-.24.86,0,1-.19,1.68-1.44,1.26-1.06-.36-1.13,1.19-2.06,1.14-1.22.47-2.57.59-3.17,2.16-.27.71-1.49.59-2.21,1-.57-.32-.42-.92-.58-1.4.06-2.28,1.46-3.64,3.26-4.72.35-.21.77-.29,1.12-.53.9.09,1.35-.3,1.28-1.23C49.32,15.37,50.92,16.47,51,14.46Z"/><path class="cls-162" d="M47.16,16.94c-.92,1.25-2.48,1.86-3.23,3.32A3.19,3.19,0,0,0,43.36,22a3.24,3.24,0,0,1-1.71,1.92C40,24.94,40,25.3,41,27a1.38,1.38,0,0,1,0,1.63c-.8.61-1.34,1.82-2.69,1.17a2.26,2.26,0,0,0-1.7-.9c-1.14-.2-1.35-.82-.79-1.84l.06-1.2c.89.07,1.33-.33,1.28-1.24.92,0,1.31-.41,1.28-1.3.94.07,1.31-.4,1.19-1.31l0,0c.4-.44.84-.85,1.25-1.29,0-.4,0-.8.07-1.2.9.06,1.31-.36,1.25-1.26l1.21-.07c.89.11,1.37-.24,1.28-1.19l1.24-.08Z"/><path class="cls-163" d="M40.82,28.33c0-.46,0-.89-.48-1.22-1.14-.72-1.18-1.8-.28-2.81s2.4-1.24,3.3-2.3v1.59a4.89,4.89,0,0,1-.29,1c-.38.68-.34,1.14.53,1.16s1.06.5,1,1.24l-1.22.08a16.85,16.85,0,0,0-1.3,1.23h0A.87.87,0,0,1,40.82,28.33Z"/><path class="cls-164" d="M43.39,29.62l1.22,0A1.93,1.93,0,0,1,47,29.23a1.18,1.18,0,0,1,.42.38,1.27,1.27,0,0,1,0,1.33,1.38,1.38,0,0,1-1.14.46c-.85-.19-1.11.55-1.56,1a1.57,1.57,0,0,1-1.07.27c-.86-.17-1,.67-1.53,1a1.78,1.78,0,0,1-1.13.22,4.28,4.28,0,0,1-1.13,0c-.84-.21-1,.57-1.48,1a1.51,1.51,0,0,1-1,.25c-.84-.18-1,.66-1.54,1a1.3,1.3,0,0,1-1.24,0,1.22,1.22,0,0,1-.36-.42,2.37,2.37,0,0,1,.17-2.42c1.68-.48,2.93-2.16,4.92-1.76.85.25,1.14-.44,1.55-.93C41.52,30,42.73,30.55,43.39,29.62Z"/><path class="cls-165" d="M39.51,32.09c-1,.1-2.13-.2-2.85,1.09-.28.51-1.38.23-2.11.23a1.09,1.09,0,0,1-1.32.13,1.1,1.1,0,0,1-.31-1.22,1.46,1.46,0,0,1,1.37-.8c.48,0,.92-.07,1.1-.61a1.62,1.62,0,0,1,.32-.32c.69-.56,1.81,0,2.37-.92l.2-.08c.52,0,1.09.09,1.28-.61s.75-.6,1.26-.65H42.1c-.14,1,.4,1.32,1.29,1.28-.07,2-1.64,1-2.54,1.29C40.36,31.25,40,31.77,39.51,32.09Z"/><path class="cls-166" d="M47.14,29.59H44.61c.08-2,1.63-1,2.57-1.23A.81.81,0,0,1,47.14,29.59Z"/><path class="cls-167" d="M47.14,29.59c0-.41,0-.82,0-1.23l1.22-.07,1.29,0c0,.41,0,.82,0,1.22-.27.52-.74.55-1.24.53a1.42,1.42,0,0,1-1.28-.48Z"/><path class="cls-168" d="M42.09,28.33c-.09-1,.33-1.38,1.3-1.23C43.45,28,43,28.45,42.09,28.33Z"/><path class="cls-123" d="M59.81,27.07v1.28a3.24,3.24,0,0,1-3.82.17A1.05,1.05,0,0,1,56,27.08L57.25,27Z"/><path class="cls-169" d="M56,27.08l0,1.23a1,1,0,0,1-1.05.51,2.05,2.05,0,0,1-1.2-.16.65.65,0,0,1-.29-.38c0-.4,0-.8.07-1.2Z"/><path class="cls-170" d="M50.92,29.55c.09-1.92,1.63-1,2.53-1.27l.09.11a1,1,0,0,1,.21,1.15,1,1,0,0,1-.34.38,2.3,2.3,0,0,1-2.19,0A.83.83,0,0,1,50.92,29.55Z"/><path class="cls-171" d="M48.47,29.64l1.21-.09h1.24l.08.11c.4,1.59-.22,2-2.27,1.63a1.14,1.14,0,0,1-.47-.35A1,1,0,0,1,48.47,29.64Z"/><path class="cls-172" d="M42,43.58l-3.42,0-.33-.06,0-1.24c.31-.53.83-.54,1.34-.57a5.47,5.47,0,0,1,1.71-.09c1,.16,1.67.6,1.25,1.79A.43.43,0,0,1,42,43.58Z"/><path class="cls-173" d="M50.92,52.41c-.65,0-1.15-.22-1.23-1,0-1,0-1.91,0-2.87a1.06,1.06,0,0,1,1.35-.12c.73.72.54,1.61.46,2.47,0,.47,0,1-.35,1.34Z"/><path class="cls-174" d="M48.43,47.34l0-1.22.14-.21a1,1,0,0,1,1.19,0A1,1,0,0,1,50,47a.62.62,0,0,1-.36.31Z"/><path class="cls-175" d="M50.91,48.64l-1.21-.06-.09-1.24h.14a1,1,0,0,1,1.17-.22.79.79,0,0,1,.33.39A.88.88,0,0,1,50.91,48.64Z"/><path class="cls-176" d="M39.57,42.25l-1.3,0c-.9.06-1.35-.33-1.28-1.26-.35-.49-.84-.85-1.2-1.33l-.11-1.24.16-.22a1.68,1.68,0,0,1,1.3-.29,1.55,1.55,0,0,1,1.28.34c.64.83.68,2,1.37,2.8A.9.9,0,0,1,39.57,42.25Z"/><path class="cls-177" d="M34.5,38.45v1.28a1,1,0,0,1-1.4,0A2,2,0,0,1,33,37.16a1.12,1.12,0,0,1,1.44-.08A.94.94,0,0,1,34.5,38.45Z"/><path class="cls-178" d="M37,46.05l-1.21.05c0-.85-.05-1.7-.07-2.55C37.84,43.53,36.73,45.15,37,46.05Z"/><path class="cls-179" d="M34.5,43.52l0-1.27c1-.08,1.33.38,1.2,1.31Z"/><path class="cls-180" d="M34.5,38.45l-.07-1.23.19-.21a1,1,0,0,1,1.29.15,1.05,1.05,0,0,1-.09,1.31h-.14Z"/><path class="cls-181" d="M33.29,39.7l1.2,0c0,.44,0,.88,0,1.32l-1.24,0L33,40.88A.91.91,0,0,1,33,40,.65.65,0,0,1,33.29,39.7Z"/><path class="cls-182" d="M35.79,39.71c1-.06,1.35.39,1.2,1.33C36,41.09,35.64,40.66,35.79,39.71Z"/><path class="cls-183" d="M52.18,53.69l-1.22,0c0-.41,0-.82,0-1.24l.11,0a.88.88,0,1,1,1.15,1.33Z"/><path class="cls-184" d="M33.22,48.61c.32-.89-.85-2.51,1.25-2.51,0,.82,0,1.63,0,2.45Z"/><path class="cls-185" d="M24.37,43.54H23.09l-.18-.15c-.7-1.36.94-1.61,1.2-2.53a10.42,10.42,0,0,0,1.58-1.39,1.31,1.31,0,0,1,1.26.07A2,2,0,0,1,27.62,41a1.88,1.88,0,0,1-.54,1.49,3.62,3.62,0,0,0-1,.87A1.07,1.07,0,0,1,24.37,43.54Z"/><path class="cls-186" d="M29.41,44.79a4.62,4.62,0,0,1-2.49-.32.74.74,0,0,1-.25-.87c1-.6.76-1.8,1.25-2.66a1.17,1.17,0,0,1,.41-.32,2.35,2.35,0,0,1,2.36.14A1.27,1.27,0,0,1,31.07,42a1.35,1.35,0,0,1-.22.45c-.4.3-.85.53-.82,1.18A1.17,1.17,0,0,1,29.41,44.79Z"/><path class="cls-187" d="M26.93,43.56c0,.3,0,.61,0,.91-.33.16-.65.32-1,.46s-.22,1.28-1,.91c-.56-.27-.58-1.05-.61-1.67,0-.21,0-.42,0-.63.51,0,1.08.07,1.26-.64s.74-.6,1.26-.62A.89.89,0,0,1,26.93,43.56Z"/><path class="cls-100" d="M29.41,44.79c.33-.89-.82-2.52,1.26-2.53a1,1,0,0,1,0,1.59c0,.74,0,1.48,0,2.22C29.73,46.18,29.33,45.72,29.41,44.79Z"/><path class="cls-188" d="M21.81,46.07l-1.2,0-.1,0c-.61-1.27,0-1.7,1.19-1.74a1.56,1.56,0,0,1,1.38.51C23.19,45.78,22.73,46.16,21.81,46.07Z"/><path class="cls-185" d="M23.08,44.82l-1.28,0a1,1,0,0,1-.07-1.35,1,1,0,0,1,1.35.08v0C23.09,44,23.08,44.39,23.08,44.82Z"/><path class="cls-189" d="M30.7,43.85l0-1.59h0c.42-.31.59-.82.93-1.18A1.05,1.05,0,0,1,33.22,41v0C33.23,43.64,33.23,43.64,30.7,43.85Z"/><path class="cls-190" d="M21.85,43.56c0,.41,0,.82-.05,1.23-.95-.11-1.34.35-1.29,1.26l-1.22,0c.08-1.19-.44-2.63,1.25-3.19C21.09,42.89,21.61,43,21.85,43.56Z"/><path class="cls-191" d="M18,47.35c-.09-1,.32-1.39,1.28-1.28l-.06,1.24Z"/><path class="cls-192" d="M64.87,61.25l-1.24.08v-.14A.85.85,0,1,1,64.82,60L65,60Z"/><path class="cls-193" d="M64.82,60l-1.19,0a1.22,1.22,0,0,1-.49-1.27c0-.49,0-1,.51-1.25h1.18c0,.42.07.83.1,1.25S64.86,59.58,64.82,60Z"/><path class="cls-194" d="M57.28,46.09c.07,1.58,1.24,2.59,2,3.81,0,.08.26.11.26.15-.17,1.51,1.38,2.26,1.56,3.6a.29.29,0,0,1,.09.27c0,.09,0,.14-.06.14A1.67,1.67,0,0,1,59.2,54a2.45,2.45,0,0,0-3.48.63.78.78,0,0,1-1,.36c-.35-.37-.81-.31-1.25-.33a1,1,0,0,1-.61-1,3.19,3.19,0,0,0-1.06-2.52,10.68,10.68,0,0,1-.2-3.78c-.13-1.18,0-2.31,1.34-2.66,1.09-.29,2.31-.49,3,.82C56.18,46.16,56.78,46,57.28,46.09Z"/><path class="cls-195" d="M54.76,54.94c1.76-2.52,2.22-2.64,5-1.37a12.42,12.42,0,0,0,1.35.42,2.63,2.63,0,0,1,1.25,1l0,1.22c.78.71.62,1.62.51,2.52a1.76,1.76,0,0,1-.4,1.41A1,1,0,0,1,61.11,60c-.26,0-.69-.06-.76.07-1,1.68-2.59,1.07-4,1.17a6.77,6.77,0,0,0-1.32-3C54.3,57.44,54.85,56.06,54.76,54.94Z"/><path class="cls-196" d="M52.23,51.13c1-.08,1.31.37,1.27,1.3,0,.72,0,1.45,0,2.18a1.5,1.5,0,0,1-1.24.32l-.09-1.24c.16-.91-.18-1.38-1.15-1.33V51.12A.83.83,0,0,1,52.23,51.13Z"/><path class="cls-197" d="M61.11,60,62.32,60a.83.83,0,0,1,0,1.28v.07C61.5,61.33,61,61,61.11,60Z"/><path class="cls-198" d="M62.36,61.24c0-.43,0-.85,0-1.28s0-.81,0-1.22a.87.87,0,0,1,1.23-.05l0,1.33v1.17Z"/><path class="cls-199" d="M25.7,39.75c0,.89-.38,1.39-1.35,1.25-.69.73-1.77.79-2.52,1.45a.94.94,0,0,1-1.27-.18c-.84,0-1.68,0-2.52,0S16.66,42,16.76,41c.83,0,1.67,0,2.5,0s1.39-.31,1.29-1.27c1-1.14,2.29-.49,3.46-.58.44.09.91,0,1.33.2A.85.85,0,0,1,25.7,39.75Z"/><path class="cls-200" d="M20.56,42.27c.3-.05.83,0,.88-.15.58-1.46,1.82-1.07,2.91-1.12,0,.54.13,1.15-.69,1.29s-.51.77-.58,1.23l-1.23,0c-.52-.06-1.13.06-1.3-.67C20.55,42.69,20.55,42.48,20.56,42.27Z"/><path class="cls-201" d="M15.49,39.73c.91-.07,1.38.31,1.27,1.26l-1.29,0C15.47,40.56,15.48,40.14,15.49,39.73Z"/><path class="cls-202" d="M21.82,36c1.68-1.7,1.23-3.85,1.27-5.9V28.33h1.28v0c.83.75.52,1.75.62,2.67.07.68-.37,1.52.51,2a1.29,1.29,0,0,1,.37.28c.51,1.23,1.67.68,2.54.9a1.32,1.32,0,0,1,1.18.46,1.25,1.25,0,0,1,0,1.34,1.36,1.36,0,0,1-1.19.5c-.95.19-2.11-.21-2.7,1-.93.48-2.13.41-2.83,1.36-1.19,0-1.66-.41-1.07-1.57Z"/><path class="cls-203" d="M21.81,37.21c0,.92.31,1.4,1.3,1.22a1,1,0,0,1,1.34-.06,1,1,0,0,1-.06,1.34l-3.84,0h0a1.43,1.43,0,0,1-.47-1.27,1.41,1.41,0,0,1,.46-1.27Z"/><path class="cls-204" d="M20.55,38.46v1.29c-.41,0-.83,0-1.24,0-.78,0-1.28-.19-1.29-1.12s.18-1.54,1.28-1.4Z"/><path class="cls-205" d="M20.55,38.46c-.94.11-1.37-.3-1.25-1.25h1.24C20.55,37.63,20.55,38,20.55,38.46Z"/><path class="cls-206" d="M56,45.44a8.22,8.22,0,0,0-1.35-.31c-2.25-.14-2.4,0-2.46,2.23a.88.88,0,0,1-1.25,0h0a1.43,1.43,0,0,1-.51-1,3.22,3.22,0,0,0-3.55-2.2,10.23,10.23,0,0,1-2.07,0c-.85,0-1.78.31-2.39-.62,0-.93-.4-1.3-1.31-1.24-.51,0-1,0-1.55,0,0-.35.09-.88-.24-1-1.44-.54-.94-1.74-1-2.75-.59-.92-.27-1.49.71-1.8a1.44,1.44,0,0,0,1.65-.93,1,1,0,0,1,.4-.24,5.29,5.29,0,0,0,2.44-1,2.47,2.47,0,0,1,2.25-.42,1.22,1.22,0,0,0,.47,0c2.24-.86,4.14-.73,5.49,1.62.35.59,1.27.68,1.9,1s.66-.29.9-.58a4,4,0,0,1,4.07-1.5c.45,1.73-.7,2.77-1.76,3.72A2.07,2.07,0,0,0,56,40.12C56,41.89,56,43.66,56,45.44Z"/><path class="cls-207" d="M58.56,34.67c-.82.33-1.63.68-2.46,1s-1.47.78-1.37,1.82a.68.68,0,0,1-.43.76c-.39.12-.56-.22-.69-.49a1.63,1.63,0,0,0-1.35-.93A2.22,2.22,0,0,1,50.6,35.5c-.66-1.54-1.76-1.8-3.19-1.12a3.18,3.18,0,0,1-1.52.29c-.56-.71-.4-1.47.37-1.64a26,26,0,0,0,3-1.34A7.74,7.74,0,0,0,52,30.42c.4-.34,1.09-.32,1.45-.84h0c.44-.39.85-.81,1.29-1.19L56,28.31l3.81,0c0,.31,0,.62,0,.93-2.11.7-1.07,2.43-1.16,3.75C58.61,33.57,59.06,34.14,58.56,34.67Z"/><path class="cls-208" d="M59.86,29.64l2.42,0c0,.85.09,1.7.13,2.55,0,.41-.09.82-.13,1.23H61.07a1,1,0,0,1-.49-1,1.73,1.73,0,0,0-.71-1.49Z"/><path class="cls-209" d="M59.87,30.89c1-.13,1.37.26,1.21,1.23a.82.82,0,0,1-1.21,0Z"/><path class="cls-210" d="M59.87,32.12h1.21c0,.41,0,.83,0,1.25l0,0a.85.85,0,0,1-1.24,0Z"/><path class="cls-211" d="M59.86,33.36l1.24,0L61,34.64C60,34.79,59.74,34.26,59.86,33.36Z"/><path class="cls-212" d="M63.59,58.69l-1.23.05,0-2.57c1-.09,1.32.42,1.26,1.33Z"/><path class="cls-213" d="M62.34,55c-.67,0-1.29-.05-1.25-1,0-.11,0-.23,0-.34C62,53.59,62.47,54,62.34,55Z"/><path class="cls-214" d="M34.43,37.22l-1.24,0a1.42,1.42,0,0,1-1.27.49,1.39,1.39,0,0,1-1.77-1.6,4.12,4.12,0,0,1,.18-2.38.81.81,0,0,1,.41-.32H32a1.18,1.18,0,0,0,.19.11,1.64,1.64,0,0,1,.41,1.13c0,.62.36.79.89.79a1.33,1.33,0,0,1,1,.52h0a.9.9,0,0,1,0,1.25Z"/><path class="cls-215" d="M26.86,29.63l0-1.3c1.64.29,2.48,1.53,2.57,3.76l-.12.2a1.05,1.05,0,0,1-1.09.15,1.41,1.41,0,0,1-.37-.27c-.14-.74-1-.81-1.29-1.45A1,1,0,0,1,26.86,29.63Z"/><path class="cls-216" d="M33.24,32.12l0,1.25-.16.2A.87.87,0,0,1,32,33.38h0l-.09-2.5c.05-.07.09-.14.14-.2a1,1,0,0,1,1.16-.07,1,1,0,0,1,.32.37A1,1,0,0,1,33.24,32.12Z"/><path class="cls-217" d="M29.37,25.83l0,1.25c-1,.11-1.38-.33-1.23-1.3Z"/><path class="cls-218" d="M29.43,27.06l1.23.07c0,.4,0,.81,0,1.22C29.66,28.5,29.28,28,29.43,27.06Z"/><path class="cls-219" d="M30.67,28.35l1.26,0a.94.94,0,0,1,.1,1.32,1,1,0,0,1-1.32-.12Z"/><path class="cls-220" d="M30.71,29.57l1.23.06A.81.81,0,0,1,32,30.84l-.13.05C30.94,31,30.59,30.47,30.71,29.57Z"/><path class="cls-221" d="M29.46,32.09c.92-.06,1.3.43,1.28,1.3l-.1,0a1,1,0,0,1-1.13.23.84.84,0,0,1-.35-.35,1,1,0,0,1,.24-1.15Z"/><path class="cls-222" d="M25.61,33.41c-1,.1-1.3-.38-1.27-1.31.05-1.26,0-2.52,0-3.79l1.18.05.09,1.21A3.11,3.11,0,0,1,25.61,33.41Z"/><path class="cls-223" d="M25.61,33.41c0-1.28,0-2.56,0-3.84l1.21.06c0,.4.05.79.08,1.19a10.07,10.07,0,0,0,1.22,1.31h0c.42.43.83.86,1.27,1.26h0a.87.87,0,0,1,0,1.31l-1.22-.06c-.6-.93-2-.33-2.55-1.24Z"/><path class="cls-224" d="M19.3,31l1.25-.13c-.05.47.16,1.13-.56,1.2S19.35,31.45,19.3,31Z"/><path class="cls-225" d="M35.74,27c-.33,1.18.42,1.33,1.28,1.29s1.36.32,1.26,1.26h0c-.58.94-2,.28-2.53,1.28h0a1.69,1.69,0,0,1-2.57,0h0c-.88-.86.35-1.71,0-2.57l0-1.2Z"/><path class="cls-226" d="M33.21,28.32c.44.07,1-.1,1.18.51s-.32.67-.71.84c-.55.24-.41.77-.47,1.22L32,30.84c0-.4-.06-.81-.08-1.21s0-.84,0-1.26Z"/><path class="cls-227" d="M40.82,20.72c.11,1-.3,1.38-1.25,1.29,0-.42,0-.84,0-1.26Z"/><path class="cls-228" d="M45.94,30.92l1.19-.1a.93.93,0,0,1,1.26,0l.07.1a1,1,0,0,1-.24,1.49,1.89,1.89,0,0,1-2.33-.06A1,1,0,0,1,45.94,30.92Z"/><path class="cls-229" d="M34.48,35.94H33.27a1.58,1.58,0,0,1-.09-2.49l.09-.07,1.28,0C34.53,34.25,34.5,35.1,34.48,35.94Z"/><path class="cls-230" d="M37.06,34.7l1.22-.1.21.22c0,1.41-.09,1.52-1.49,1.21A.91.91,0,0,1,37.06,34.7Z"/><path class="cls-231" d="M34.55,37.18l0-1.25,1.24,0,.2.17a.81.81,0,0,1-.21,1.14Z"/><path class="cls-232" d="M48.39,30.82H47.13l0-1.22,1.31,0C48.45,30,48.42,30.43,48.39,30.82Z"/><path class="cls-233" d="M39.51,32.09c0-.93.39-1.35,1.34-1.18C40.9,31.87,40.44,32.25,39.51,32.09Z"/><path class="cls-234" d="M45.94,30.92l-.06,1.2a.77.77,0,0,1-1,.28.63.63,0,0,1-.27-.35C44.52,31.05,45,30.76,45.94,30.92Z"/><path class="cls-235" d="M42.07,33.31c-.11-1,.43-1.26,1.31-1.14a1,1,0,0,1,.19,1.2,1,1,0,0,1-1.16.31A.59.59,0,0,1,42.07,33.31Z"/><path class="cls-236" d="M43.33,33.37c0-.4,0-.8.05-1.2l1.23-.12,0,.17a.82.82,0,0,1,0,1.25A.85.85,0,0,1,43.33,33.37Z"/><path class="cls-237" d="M38.28,34.6c-.08-1,.41-1.3,1.31-1.16a1,1,0,0,1,.06,1.32,1,1,0,0,1-1.34,0Z"/><path class="cls-238" d="M39.54,34.63c0-.4,0-.79.05-1.19h1.26a1,1,0,0,1,0,1.35A.94.94,0,0,1,39.54,34.63Z"/><path class="cls-239" d="M40.79,34.63l.06-1.19,1.22-.13,0,.17c.56,1,.25,1.45-.85,1.48A.9.9,0,0,1,40.79,34.63Z"/><path class="cls-240" d="M37.06,34.7l0,1.23-.15.18A.89.89,0,0,1,35.76,36l0-.1C35.67,34.94,36.13,34.56,37.06,34.7Z"/><path class="cls-241" d="M33.2,30.89h2.56c0,2-1.6,1-2.52,1.24C33.23,31.71,33.21,31.3,33.2,30.89Z"/><path class="cls-242" d="M35.76,30.88c0-2.08,1.62-1,2.53-1.28C38.27,31.66,36.67,30.59,35.76,30.88Z"/><path class="cls-243" d="M54.76,28.4c.09,1-.39,1.29-1.29,1.19,0-.4.05-.8.07-1.2Z"/><path class="cls-243" d="M41.14,34.68c.87,0,1-.52,1-1.2l1.23-.11c.89.13,1.41-.15,1.31-1.15l1.24-.1c.95-.21,2.43.73,2.58-1.2.91-.3,2.43.63,2.54-1.26l2.48-.08c-.38,1.69-2,1.91-3.19,2.48-.62.29-1.38.15-1.8.95-.27.52-.94.41-1.45.39-.93,0-1.21.44-1.15,1.27-1,0-1.85-.14-2.56.91-.51.75-1.64.27-2.5.37C40.47,35.41,40.8,35,41.14,34.68Z"/><path class="cls-244" d="M42.43,43.5l2.49.06a.82.82,0,0,1,0,1.2c-.58,0-1.15,0-1.72,0-.9.07-1.21-.41-1.2-1.22Z"/><path class="cls-245" d="M45,44.76c0-.4,0-.8,0-1.2l2.22,0a.86.86,0,0,1,.31,1,.71.71,0,0,1-.31.31Z"/><path class="cls-246" d="M48.39,46.12c-.85,0-1.35-.32-1.25-1.26l0-.12c1.43-.31,1.6-.14,1.28,1.28Z"/><path class="cls-247" d="M51,47.33l1.25,0c0,1.26,0,2.52,0,3.77H51l-.12-2.48C50.92,48.21,50.94,47.77,51,47.33Z"/><path class="cls-248" d="M48.46,46c.08-.94-.41-1.3-1.28-1.28,0-.4,0-.8,0-1.2,2.27,0,3.53.83,3.8,2.54a.92.92,0,0,1-1.28,0Z"/><path class="cls-249" d="M49.66,46.07H51v1.26h-1.2Z"/><path class="cls-250" d="M41.14,34.68c-.1.42-.2.84-.31,1.27h0c-.44.4-.84.84-1.28,1.24-1-.08-1.35.39-1.27,1.31l-1.25,0a1.62,1.62,0,0,1,0-2.52h0c.86.09,1.42-.17,1.29-1.18l1.23-.12h1.25Z"/><path class="cls-251" d="M37,35.94c0,.84,0,1.68,0,2.52H35.82l-.09-1.26,0-1.21Z"/><path class="cls-252" d="M31.93,37.23l1.26,0c0,.84.06,1.67.1,2.5l-.12.06a1,1,0,0,1-1.32.1,1.47,1.47,0,0,1-.39-1.34A1.49,1.49,0,0,1,31.93,37.23Z"/><path class="cls-253" d="M31.94,39.73l1.23,0c0,.42,0,.83,0,1.24-.51,0-1.08-.06-1.27.63s-.74.62-1.27.63V41a1,1,0,0,1-.1-1.37A1,1,0,0,1,31.94,39.73Z"/><path class="cls-254" d="M27.21,41c-.37-.36-.3-.84-.35-1.29a.94.94,0,0,1,0-1.35,1.11,1.11,0,0,1,1.43.08A1.79,1.79,0,0,1,28.15,41v0A.66.66,0,0,1,27.21,41Z"/><path class="cls-96" d="M27.21,41h.94c-.28.92.81,2.49-1.23,2.57l0-1.28Z"/><path class="cls-255" d="M26.91,38.53c0,.39,0,.79-.05,1.18l-1.16,0-.14,0a1,1,0,0,1-.26-1.05,1,1,0,0,1,.26-.37,1,1,0,0,1,1.08-.1A.61.61,0,0,1,26.91,38.53Z"/><path class="cls-119" d="M28.15,41l0-2.55.13-.18a1.08,1.08,0,0,1,1.08-.09,1.13,1.13,0,0,1,.34.27c.13.59.88.71,1,1.3l0,1.28Z"/><path class="cls-256" d="M25.63,38.48c0,.41,0,.82-.07,1.23H24.39l-.06-1.22A.83.83,0,0,1,25.63,38.48Z"/><path class="cls-257" d="M25.63,37.21c0-2.12,1.63-1,2.53-1.28a1.06,1.06,0,0,1,.15,1.29,1.31,1.31,0,0,1-1.24.48,1.73,1.73,0,0,1-1.29-.27Z"/><path class="cls-257" d="M25.63,38.48h-1.3l-1.22-.06c0-2.1,1.63-.91,2.52-1.22h0a.93.93,0,0,1,0,1.29Z"/><path class="cls-258" d="M29.39,34.71l0-1.31,1.22,0,0,2.48a.84.84,0,0,1-1,.32.76.76,0,0,1-.33-.31Z"/><path class="cls-259" d="M25.62,33.41c1,.17,2.39-.6,2.55,1.24C27.25,34.38,25.64,35.52,25.62,33.41Z"/><path class="cls-260" d="M28.14,37.14l0-1.21h1.19l.14,0A1,1,0,0,1,29.75,37a1,1,0,0,1-.26.38,1,1,0,0,1-1.08.1A.65.65,0,0,1,28.14,37.14Z"/><path class="cls-243" d="M39.55,37.19c-.09-.94.33-1.36,1.28-1.24C40.92,36.89,40.49,37.3,39.55,37.19Z"/><path class="cls-261" d="M33.18,33.44l.09,2.49c-2.2.06-1-1.65-1.31-2.55Z"/><path class="cls-262" d="M31.93,37.23l0,1.27a1.6,1.6,0,0,1-2.47,0l0-.07a.88.88,0,0,1,0-1.25l0,0a1,1,0,0,1,1.33,0Z"/><path class="cls-263" d="M30.73,37.16l-1.33,0,.09-1.26,1.18,0Z"/><path class="cls-264" d="M28.16,32.13c-1,.1-1.4-.33-1.22-1.31C27.88,30.76,28.27,31.21,28.16,32.13Z"/><path class="cls-265" d="M29.43,33.39c-.95.12-1.39-.29-1.27-1.26l1.24,0Z"/><path class="cls-266" d="M29.44,38.5h2.47l0,1.23-1.23,0C29.81,39.82,29.28,39.5,29.44,38.5Z"/><path class="cls-267" d="M26.92,37.23l1.22-.09,0,.14a.81.81,0,0,1,0,1.19h0l-1.26.07-.05-.13A.77.77,0,0,1,26.92,37.23Z"/><path class="cls-268" d="M26.92,37.23l-.06,1.17-1.22.09c0-.43,0-.86,0-1.29Z"/><path class="cls-269" d="M28.15,38.47c0-.4,0-.79,0-1.19l1.25-.1c0,.42,0,.84,0,1.26Z"/></g></g></svg>