<svg xmlns="http://www.w3.org/2000/svg" viewBox="0 0 74 74"><defs><style>.cls-1{fill:#1e2223;}.cls-2{fill:#2c2328;}.cls-3{fill:#232629;}.cls-4{fill:#2b2126;}.cls-5{fill:#24282a;}.cls-6{fill:#bbbcbb;}.cls-7{fill:#606060;}.cls-8{fill:#5f5f60;}.cls-9{fill:#a5a7a8;}.cls-10{fill:#a4a6a8;}.cls-11{fill:#384043;}.cls-12{fill:#7a7e80;}.cls-13{fill:#4c5052;}.cls-14{fill:#454b4d;}.cls-15{fill:#323a3e;}.cls-16{fill:#676d71;}.cls-17{fill:#737779;}.cls-18{fill:#565a5b;}.cls-19{fill:#3c4549;}.cls-20{fill:#596064;}.cls-21{fill:#2a3438;}.cls-22{fill:#2b3237;}.cls-23{fill:#848688;}.cls-24{fill:#4b5154;}.cls-25{fill:#252d32;}.cls-26{fill:#303439;}.cls-27{fill:#464647;}.cls-28{fill:#483331;}.cls-29{fill:#2a2e32;}.cls-30{fill:#3c3e3d;}.cls-31{fill:#2c373f;}.cls-32{fill:#104614;}.cls-33{fill:#474747;}.cls-34{fill:#2c3439;}.cls-35{fill:#404140;}.cls-36{fill:#124f18;}.cls-37{fill:#424242;}.cls-38{fill:#2c3033;}.cls-39{fill:#581b11;}.cls-40{fill:#c5b6b3;}.cls-41{fill:#482823;}.cls-42{fill:#5a5b5c;}.cls-43{fill:#5d190f;}.cls-44{fill:#3f2a27;}.cls-45{fill:#cfd0cf;}.cls-46{fill:#d0d0d0;}.cls-47{fill:#e8e8e8;}.cls-48{fill:#74a572;}.cls-49{fill:#ababab;}.cls-50{fill:#949494;}.cls-51{fill:#afafaf;}.cls-52{fill:#d3d3d3;}.cls-53{fill:#8a8a8b;}.cls-54{fill:#aaabac;}.cls-55{fill:#b0b0b0;}.cls-56{fill:#e1e1e1;}.cls-57{fill:#7d7d7e;}.cls-58{fill:#aaacac;}.cls-59{fill:#dfdfdf;}.cls-60{fill:#b1b2b2;}.cls-61{fill:#3f3f3f;}.cls-62{fill:#6f6f6f;}.cls-63{fill:#777c7e;}.cls-64{fill:#65696c;}.cls-65{fill:#5a5a5a;}.cls-66{fill:#494e51;}.cls-67{fill:#626262;}.cls-68{fill:#4b5053;}.cls-69{fill:#65696b;}.cls-70{fill:#1f3643;}.cls-71{fill:#0f0f0f;}.cls-72{fill:#7f7f7f;}.cls-73{fill:#644642;}.cls-74{fill:#717070;}.cls-75{fill:#a3827e;}.cls-76{fill:#614e4b;}.cls-77{fill:#969696;}.cls-78{fill:#818181;}.cls-79{fill:#3b3d3e;}.cls-80{fill:#242e33;}.cls-81{fill:#4a4e50;}.cls-82{fill:#777c7f;}.cls-83{fill:#64696c;}.cls-84{fill:#6f4e4a;}.cls-85{fill:#79605c;}.cls-86{fill:#767575;}.cls-87{fill:#6e6e6e;}.cls-88{fill:#545454;}.cls-89{fill:#696969;}.cls-90{fill:#656864;}.cls-91{fill:#444545;}.cls-92{fill:#717171;}.cls-93{fill:#509a52;}.cls-94{fill:#9d9d9d;}.cls-95{fill:#5b5d5b;}.cls-96{fill:#767676;}.cls-97{fill:#494949;}.cls-98{fill:#272827;}.cls-99{fill:#737373;}.cls-100{fill:#082f0c;}.cls-101{fill:#5a5959;}.cls-102{fill:#707070;}.cls-103{fill:#c2958f;}.cls-104{fill:#b46f65;}.cls-105{fill:#f9bbb2;}.cls-106{fill:#f59b8e;}.cls-107{fill:#e9e9e9;}.cls-108{fill:#3a0c06;}.cls-109{fill:#904c44;}.cls-110{fill:#b7bbb7;}.cls-111{fill:#66d46d;}.cls-112{fill:#bcbcbc;}.cls-113{fill:#cfcfcf;}.cls-114{fill:#bdbdbd;}.cls-115{fill:#ababaa;}.cls-116{fill:#2a2929;}.cls-117{fill:#a1a1a1;}.cls-118{fill:#cec5c4;}.cls-119{fill:#b98e88;}.cls-120{fill:#bababa;}.cls-121{fill:#f4d4d0;}.cls-122{fill:#7d615d;}.cls-123{fill:#e1978d;}.cls-124{fill:#dcdbdb;}.cls-125{fill:#d0cfcf;}.cls-126{fill:#090909;}.cls-127{fill:#3c3c3c;}.cls-128{fill:#2b2b2c;}.cls-129{fill:#ba7f77;}.cls-130{fill:#ac8a85;}.cls-131{fill:#adacac;}.cls-132{fill:#c8c8c7;}.cls-133{fill:#858584;}.cls-134{fill:#d0d1d0;}.cls-135{fill:#a5b6a4;}.cls-136{fill:#989898;}.cls-137{fill:#828282;}.cls-138{fill:#30cc4b;}.cls-139{fill:#eee;}.cls-140{fill:#ccc;}.cls-141{fill:#575757;}.cls-142{fill:#ddd;}.cls-143{fill:#383838;}.cls-144{fill:#727271;}.cls-145{fill:#859d86;}.cls-146{fill:#5d5f5d;}.cls-147{fill:#007815;}.cls-148{fill:#c4c3c3;}.cls-149{fill:#b9b9b9;}.cls-150{fill:#d9d8d8;}.cls-151{fill:#ee8173;}.cls-152{fill:#e36654;}.cls-153{fill:#f8553e;}.cls-154{fill:#ef8577;}.cls-155{fill:#f42200;}.cls-156{fill:#f63a1a;}.cls-157{fill:#f42500;}.cls-158{fill:#810a01;}.cls-159{fill:#00e527;}.cls-160{fill:#dcdcdb;}.cls-161{fill:#c6c6c6;}.cls-162{fill:#dcdcdc;}.cls-163{fill:#5e5e5d;}.cls-164{fill:#ebb7b1;}.cls-165{fill:#ededed;}.cls-166{fill:#fafafa;}.cls-167{fill:#595959;}.cls-168{fill:#dbdbda;}.cls-169{fill:#bde5bc;}.cls-170{fill:#dadada;}.cls-171{fill:#c9c8c8;}.cls-172{fill:#727272;}.cls-173{fill:#a2a2a2;}.cls-174{fill:#f0f0f0;}.cls-175{fill:#d9d9d9;}.cls-176{fill:#c7c7c7;}.cls-177{fill:#f43109;}.cls-178{fill:#f20100;}.cls-179{fill:#f20200;}.cls-180{fill:#9d9d9c;}.cls-181{fill:#aaa;}.cls-182{fill:#bbb;}.cls-183{fill:#e0e0e0;}.cls-184{fill:#cacaca;}</style></defs><title>총알1</title><g id="레이어_2" data-name="레이어 2"><g id="레이어_1-2" data-name="레이어 1"><rect class="cls-1" width="74" height="74" rx="8.33" ry="8.33"/><path class="cls-2" d="M13.85,27.42c0-1.29,0-2.59,0-3.89a27,27,0,0,0,0-3.6c-.17-1.31.69-2.16,1.11-3.21.1-.27.44-.24.7-.25l.2.1a1.61,1.61,0,0,1,.09,1.87,1.4,1.4,0,0,0-.7,1.44c0,2.1,0,4.21,0,6.31a1.8,1.8,0,0,1-.33,1.31A.73.73,0,0,1,13.85,27.42Z"/><path class="cls-2" d="M32.11,27.42c0-1.37,0-2.74,0-4.12s.1-2.48,0-3.71.81-2,1.18-2.95c0-.12.41-.12.62-.17l.2.1a1.61,1.61,0,0,1,.08,1.87,1.42,1.42,0,0,0-.7,1.44c0,2.1,0,4.21,0,6.31a1.8,1.8,0,0,1-.33,1.31A.73.73,0,0,1,32.11,27.42Z"/><path class="cls-3" d="M38.51,10.06a1.43,1.43,0,0,1,1.05,2A6.18,6.18,0,0,0,40,16.21c.32.77.94.8,1.75.23-.14.95-.77,1.54-.58,2.3-.32.31-.65.2-1,0a7.89,7.89,0,0,0-1.12-1.26c0-.67-.84-.72-1-1.3a43.14,43.14,0,0,1-.1-5.33A.82.82,0,0,1,38.51,10.06Z"/><path class="cls-3" d="M20.26,10.06a1.43,1.43,0,0,1,1,2,6.28,6.28,0,0,0,.48,4.2c.33.81,1,.67,1.74.33-.13.84-.76,1.43-.56,2.19-.33.31-.67.19-1,0a.71.71,0,0,1-.23-.26c0-.56-.6-.64-.86-1,0-.66-.86-.71-1-1.3a43.07,43.07,0,0,1-.1-5.33A.83.83,0,0,1,20.26,10.06Z"/><path class="cls-4" d="M22.05,18.51l.91.23c0,1.45,0,2.89,0,4.34,0,2,.18,4-.43,5.94a3.08,3.08,0,0,1-.46,1.14c-.7-.35-.46-1-.49-1.57a11.83,11.83,0,0,1,0-1.19c0-2.58,0-5.17,0-7.76C21.63,19.19,21.6,18.77,22.05,18.51Z"/><path class="cls-4" d="M40.33,18.5l.88.24c0,1.45,0,2.89,0,4.34s0,2.88,0,4.33a.77.77,0,0,1-1,.16.73.73,0,0,1-.25-.35,44.59,44.59,0,0,1,0-8.41A.81.81,0,0,1,40.33,18.5Z"/><path class="cls-5" d="M60.39,16.91l-.91.69c-.36.15-.71.27-1.06,0-.11-.63-.85-.74-1.08-1.27a23,23,0,0,1,0-6,.66.66,0,0,1,.33-.26c.7,0,.86.51.86,1.1,0,1.09,0,2.19,0,3.29s.06,2,1.44,2.08C60.14,16.55,60.26,16.78,60.39,16.91Z"/><path class="cls-6" d="M53.05,17.13v-.67l.08-.45a.69.69,0,0,1,1-.11.94.94,0,0,1,.26.6c.19,1.64,0,3.29.1,4.93a4.05,4.05,0,0,1-.29,2.38.88.88,0,0,1-1,.18.92.92,0,0,1-.32-.33,32.75,32.75,0,0,1-.14-5.86A1.07,1.07,0,0,1,53.05,17.13Z"/><path class="cls-7" d="M38.51,10.06l0,6.36-.14.17a.76.76,0,0,1-1-.16,3.35,3.35,0,0,1-.2-1.66c-.08-1.5,0-3,0-4.48a1.58,1.58,0,0,1,.25-1.18.71.71,0,0,1,1,.07Z"/><path class="cls-8" d="M20.26,10.06l0,6.35a.63.63,0,0,1-.31.29.73.73,0,0,1-.93-.35,4.12,4.12,0,0,1-.17-2c0-1.34,0-2.68,0-4a1.87,1.87,0,0,1,.28-1.2.71.71,0,0,1,1,0Z"/><path class="cls-9" d="M15.61,16.47l.09-3.65a.76.76,0,0,1,1.06-.08,5,5,0,0,1,0,3.73.72.72,0,0,1-1,0Z"/><path class="cls-9" d="M33.87,16.47,34,12.82a.74.74,0,0,1,1-.09,5.06,5.06,0,0,1,0,3.75.71.71,0,0,1-1,0Z"/><path class="cls-10" d="M54,16l-.83,0V12.82a.75.75,0,0,1,1.06-.08A2.93,2.93,0,0,1,54,16Z"/><path class="cls-11" d="M20.2,9.18l-.86,0L19.15,9c-.46-.51-.23-1.13-.26-1.71a1,1,0,0,1,.4-.88c.59,0,.92.21.92.83S20.2,8.54,20.2,9.18Z"/><path class="cls-12" d="M16.55,12.79l-.85,0V11a.73.73,0,0,1,1-.15,1,1,0,0,1,.29,1C17,12.24,17,12.6,16.55,12.79Z"/><path class="cls-13" d="M57.63,8.26c0,.6,0,1.21.07,1.81h-.09a.73.73,0,0,1-1,.13,1.12,1.12,0,0,1-.3-1,1.12,1.12,0,0,1,.31-1A.76.76,0,0,1,57.63,8.26Z"/><path class="cls-12" d="M34.8,9.14l.08-.88a.68.68,0,0,1,1-.07,1.86,1.86,0,0,1,.15,1.9.9.9,0,0,1-1,.26.76.76,0,0,1-.34-.24A.78.78,0,0,1,34.8,9.14Z"/><path class="cls-12" d="M16.54,9.14l.08-.88a.69.69,0,0,1,1-.07,1.88,1.88,0,0,1,.14,1.9.9.9,0,0,1-1,.26.81.81,0,0,1-.34-.24A.79.79,0,0,1,16.54,9.14Z"/><path class="cls-14" d="M38.44,9.18l-.85,0a.73.73,0,0,1-.44-.81,1.76,1.76,0,0,1,.15-1,.81.81,0,0,1,.27-.28.72.72,0,0,1,.87.26Z"/><path class="cls-15" d="M57.63,8.26l-.85,0c-.39-.17-.43-.5-.41-.87a1,1,0,0,1,.35-.92C58.14,6.49,57.52,7.56,57.63,8.26Z"/><path class="cls-12" d="M34.81,12.79l-.85,0V11a.73.73,0,0,1,1-.15,1,1,0,0,1,.29,1C35.23,12.24,35.2,12.6,34.81,12.79Z"/><path class="cls-12" d="M54,12.78l-.85,0V11a.73.73,0,0,1,1-.15,1,1,0,0,1,.29,1C54.4,12.24,54.37,12.6,54,12.78Z"/><path class="cls-16" d="M54,9.16V7.36a.69.69,0,0,1,.86-.26.66.66,0,0,1,.28.27,2,2,0,0,1,.18,1,1,1,0,0,1-.34,1A.77.77,0,0,1,54,9.16Z"/><path class="cls-17" d="M17.52,6.44h.86a.72.72,0,0,1,.28.82.67.67,0,0,1-.24.29.92.92,0,0,1-.92,0,.68.68,0,0,1-.25-.28A.71.71,0,0,1,17.52,6.44Z"/><path class="cls-18" d="M18.41,7.28l0-.83h.91c0,.31,0,.62,0,.92A.54.54,0,0,1,18.41,7.28Z"/><path class="cls-19" d="M17.52,6.44l-.09.87a.53.53,0,0,1-.82,0C16.52,6.65,16.83,6.36,17.52,6.44Z"/><path class="cls-20" d="M35.74,8.24l-.86,0V7.35a.69.69,0,0,1,.79-.29.64.64,0,0,1,.29.22.71.71,0,0,1-.05.86Z"/><path class="cls-19" d="M35.68,7.31l-.81,0c-.09-.7.22-1,.9-.91C36,6.76,36,7.06,35.68,7.31Z"/><path class="cls-17" d="M35.68,7.31l.09-.87h.87a.69.69,0,0,1,.25.83.72.72,0,0,1-.25.27.68.68,0,0,1-.85-.21Z"/><path class="cls-18" d="M36.69,7.27l0-.82.91,0a.61.61,0,0,1,.06.89l-.09,0A.5.5,0,0,1,36.69,7.27Z"/><path class="cls-21" d="M37.61,7.32l-.06-.89c.68,0,1,.25.89.93Z"/><path class="cls-19" d="M54.87,7.3,54,7.36c-.09-.69.21-1,.9-.92A.54.54,0,0,1,54.87,7.3Z"/><path class="cls-22" d="M16.54,9.14l0,.92a.55.55,0,0,1-.84,0C15.63,9.47,15.89,9.13,16.54,9.14Z"/><path class="cls-22" d="M34.8,9.14l0,.92a.55.55,0,0,1-.84,0C33.88,9.47,34.15,9.13,34.8,9.14Z"/><path class="cls-23" d="M54,9.16l.84,0a.67.67,0,0,1,.25.9.72.72,0,0,1-.89.29.69.69,0,0,1-.29-.27Z"/><path class="cls-24" d="M15.68,10.09l.84,0h.11a.61.61,0,0,1-.07.89l-.86,0Z"/><path class="cls-24" d="M33.94,10.09l.84,0h.1a.59.59,0,0,1-.07.89L34,11Z"/><path class="cls-17" d="M54.87,7.3l.07-.86h.87a.71.71,0,0,1,.26.83.75.75,0,0,1-.26.27A.69.69,0,0,1,55,7.36Z"/><path class="cls-24" d="M54,11l-.85,0c-.09-.63.08-1,.81-.95h.13A.61.61,0,0,1,54,11Z"/><path class="cls-18" d="M55.84,7.28l0-.83h.91c0,.31,0,.62,0,.93A.56.56,0,0,1,55.84,7.28Z"/><path class="cls-20" d="M16.61,7.35l.82,0,.1,0a.61.61,0,0,1,.09.79l-.14.11-.86,0Z"/><path class="cls-25" d="M12.92,49.09V46.58c-.32-.3-.24-.61,0-.91V38.82l.89.22c.57.29.46.82.47,1.31,0,3,0,6.06,0,9.09,0,4.15,0,8.3,0,12.45,0,.5-.16,1.1.54,1.33.32.07.52.36.83.45a2.56,2.56,0,0,0,3.63,0,1.57,1.57,0,0,1,.9-.2,1.58,1.58,0,0,1,.91.17,4.17,4.17,0,0,0,1.21,1.12,1,1,0,0,1,0,1A.65.65,0,0,1,22,66a3.42,3.42,0,0,1-1.79.22,10.94,10.94,0,0,1-1.81,0,11,11,0,0,1-1.81,0c-.34,0-.68,0-1,0a3.33,3.33,0,0,1-1-.17c-.22-.08-.37-.31-.58-.36-1.6-.34-1.68-1.54-1.59-2.81.07-1-.3-2,.55-2.81Z"/><path class="cls-26" d="M13.85,27.42l.87,0,.18.09c.56.93.23,1.94.27,2.92a1.52,1.52,0,0,0,.69,1.49,2.25,2.25,0,0,1,0,2,1.64,1.64,0,0,0-.69,1.55c-.07,1,.37,2.11-.35,3.07a.75.75,0,0,1-1-.12Z"/><path class="cls-27" d="M13.85,38.38h.83l.21.1c.43.41.33,1,.33,1.47,0,2.44,0,4.88,0,7.32-.09.79.21,1.63-.3,2.37a.77.77,0,0,1-1.06-.09q0-5.25,0-10.5C13.83,38.82,13.84,38.6,13.85,38.38Z"/><path class="cls-28" d="M40.31,32.43l0,1.35a1.27,1.27,0,0,1-.13.19,1.54,1.54,0,0,1-1.9-.1,9.61,9.61,0,0,1-.16-4.46c.79-.51.63-1.55,1.2-2.18a.76.76,0,0,1,.93.17l0,0c.57.49.45,1.16.41,1.76C40.67,30.27,41.13,31.44,40.31,32.43Z"/><path class="cls-29" d="M41.23,37l.45,1.36c-.62.84-1.49.44-2.28.46a1.49,1.49,0,0,1-1-.34,3.4,3.4,0,0,1-.24-2.58,1,1,0,0,1,1.1-.71c.48,0,.67-.19.64-.64s.21-.52.39-.73l.1,0c.47,0,.83.16.87.7.47.46.29.92,0,1.38Z"/><path class="cls-30" d="M53.05,17.13q0,3.32,0,6.62a.59.59,0,0,1-.89,0V18.34C52.18,17.72,52.3,17.2,53.05,17.13Z"/><path class="cls-31" d="M52.17,33.12a.85.85,0,0,1-.89-1c0-1.28,0-2.57,0-3.86a.83.83,0,0,1,.89-.93l.19.12c.62,1.28.13,2.63.27,3.93a1,1,0,0,1,0,.54C52.62,32.41,52.68,32.88,52.17,33.12Z"/><path class="cls-29" d="M40.31,32.43l0-5h.88a31.21,31.21,0,0,0,.11,3.74C41.45,31.89,40.94,32.23,40.31,32.43Z"/><path class="cls-31" d="M51.25,38.36V36.77c0-.68,0-1.36,0-2s.2-.95.84-.94a.73.73,0,0,1,.35.25,9.28,9.28,0,0,1-.07,4.32.72.72,0,0,1-1,.16Z"/><path class="cls-32" d="M52.18,23.77l.89,0h.06a1.23,1.23,0,0,1,.39,1c0,.92.26,1.87-.3,2.73a.74.74,0,0,1-1,0l0-.07C52.17,26.17,52.17,25,52.18,23.77Z"/><path class="cls-33" d="M52.17,33.12l0-1.17a.73.73,0,0,1,1-.08,1.22,1.22,0,0,1,.32,1,1.28,1.28,0,0,1-.3,1,.69.69,0,0,1-1-.06l-.12,0C52.13,33.57,52.15,33.34,52.17,33.12Z"/><path class="cls-34" d="M61.31,39.05l0,.24a.89.89,0,0,1-1.32.07,2.44,2.44,0,0,0-1.58-.54,1.36,1.36,0,0,1-.91-.38,3.89,3.89,0,0,1-.18-2.54c.16-.6.64-.72,1.15-.71S59,35,59,34.56s0-.6,0-.89c0-.58,0-1.16,0-1.75.14-1.42-.29-2.86.16-4.27a.76.76,0,0,1,.32-.27c.69,0,.91.42.89,1.05-.08,2.69.18,5.39-.15,8.08a1.66,1.66,0,0,0,.47,1.35A1.76,1.76,0,0,1,61.31,39.05Z"/><path class="cls-35" d="M58.55,17.37a1.46,1.46,0,0,1,.93.23v6.17a.76.76,0,0,1-1,.13c-.42-.4-.36-.91-.38-1.42,0-.92,0-1.84,0-2.76a1.57,1.57,0,0,0-.61-1.37.84.84,0,0,1,.07-1A.7.7,0,0,1,58.55,17.37Z"/><path class="cls-36" d="M58.58,23.74l.9,0c0,1.2,0,2.41,0,3.61l0,.06a.76.76,0,0,1-1,0,4.75,4.75,0,0,1,0-3.61Z"/><path class="cls-25" d="M31.18,45.67V42.93a.65.65,0,0,1,0-.91c0-1.06,0-2.13,0-3.2h.89c.7.39.45,1.06.46,1.62,0,7.14,0,14.27,0,21.41,0,.51-.18,1.1.49,1.37.33.07.54.36.85.45a2.53,2.53,0,0,0,3.61.05,1.47,1.47,0,0,1,.87-.22,1.94,1.94,0,0,1,.89.11.79.79,0,0,1,.31.17c.1.59.77.68,1,1.15a.79.79,0,0,1-.27.82l0,0c-.47.58-1.13.48-1.76.47a12.7,12.7,0,0,1-1.85,0,10.82,10.82,0,0,1-1.8,0l-1,0a1,1,0,0,1-.83-.28c-.37-.53-1.1-.56-1.48-1.07-.72-.89-.58-2-.6-3,0-.52.1-1.05.15-1.58a3.05,3.05,0,0,1-.56-1.92c0-2.54,0-5.08,0-7.62,0-.58-.09-1.24.54-1.64V46.58C30.86,46.28,30.94,46,31.18,45.67Z"/><path class="cls-37" d="M33,63.9c-1,.05-.95-.65-.95-1.31,0-3.45,0-6.9,0-10.35l0-13.43,0-.44a.74.74,0,0,1,1,0c.5.55.34,1.28.34,1.89,0,2.34,0,4.68,0,7,0,2.52,0,5,0,7.57s0,5.28,0,7.92A1.52,1.52,0,0,1,33,63.9Z"/><path class="cls-26" d="M33,38.35l-.88,0q0-5.48,0-10.95l.87,0,.18.09c.55.93.23,1.94.27,2.92,0,.58.07,1.17.68,1.49a2.18,2.18,0,0,1,0,2,1.7,1.7,0,0,0-.68,1.55c-.06,1,.31,2-.29,2.87Z"/><path class="cls-28" d="M22.05,27.4l0,2.76c0,1.2,0,2.41,0,3.62A2.14,2.14,0,0,1,22,34a1.51,1.51,0,0,1-1.89-.1,9.61,9.61,0,0,1-.17-4.46c.79-.51.63-1.55,1.2-2.18A.77.77,0,0,1,22.05,27.4Z"/><path class="cls-38" d="M23,37l.45,1.37c-.62.83-1.49.43-2.28.45a1.45,1.45,0,0,1-1-.34,3.36,3.36,0,0,1-.25-2.58,1,1,0,0,1,1.1-.71c.48,0,.67-.18.65-.64s.2-.52.38-.73l.1,0a.79.79,0,0,1,.88.9C23,35.45,23,36.22,23,37Z"/><path class="cls-39" d="M14.72,27.4q0-4,0-8c0-.62,0-1.18.86-1.17.66.37.44,1,.48,1.55,0,.39,0,.77,0,1.16,0,1.24,0,2.47,0,3.71-.08.92.24,1.89-.32,2.76a.74.74,0,0,1-1,0Z"/><path class="cls-40" d="M15.7,21l-.08-2.74.07-1.81h.8a.55.55,0,0,1,.32.19,1.42,1.42,0,0,1,.21.92c0,.86,0,1.72,0,2.59a1.1,1.1,0,0,1-.32,1A.75.75,0,0,1,15.7,21Z"/><path class="cls-39" d="M33,27.4c0-2.66,0-5.31,0-8,0-.61,0-1.17.86-1.16.66.37.43,1,.48,1.55,0,.39,0,.77,0,1.16,0,1.24,0,2.47,0,3.71-.09.92.24,1.89-.32,2.76a.74.74,0,0,1-1,0Z"/><path class="cls-40" d="M34,21l-.08-2.74L34,16.46h.8a.59.59,0,0,1,.32.19,1.35,1.35,0,0,1,.2.92c0,.86,0,1.72,0,2.59a1.13,1.13,0,0,1-.32,1A.75.75,0,0,1,34,21Z"/><path class="cls-41" d="M40.33,18.5l0,.26a.83.83,0,0,1-.85.3,3.94,3.94,0,0,1-1.12-.69.93.93,0,0,1-.09-.94.66.66,0,0,1,.27-.28.77.77,0,0,1,.91.21C40.22,17.32,40.33,17.87,40.33,18.5Z"/><path class="cls-42" d="M39.4,17.36h-.9a.57.57,0,0,1-.06-.86l.09-.07C39.18,16.41,39.48,16.7,39.4,17.36Z"/><path class="cls-43" d="M22.05,27.4l-.93,0a1.24,1.24,0,0,1-.18-.14,1.46,1.46,0,0,1-.26-1.1c0-2.25-.06-4.5,0-6.74A2,2,0,0,1,21,18.24a.74.74,0,0,1,1,.06,1.49,1.49,0,0,0,0,.21Z"/><path class="cls-44" d="M22,18.3h-.9a.74.74,0,0,1-.94.13.79.79,0,0,1-.24-.94.82.82,0,0,1,.26-.32.78.78,0,0,1,.93.19C21.79,17.34,22.09,17.65,22,18.3Z"/><path class="cls-42" d="M21.14,17.36h-.9a.56.56,0,0,1,0-.86l.09-.08C20.92,16.4,21.22,16.7,21.14,17.36Z"/><path class="cls-43" d="M39.4,18.74l.88,0q0,4.32,0,8.64l-.93,0-.18-.14a1.31,1.31,0,0,1-.24-.71c0-2.31-.07-4.61,0-6.92C39,19.25,39.05,19,39.4,18.74Z"/><path class="cls-7" d="M56.78,10.06h.83l.09,6.36-.11.17a.74.74,0,0,1-1,0,1.11,1.11,0,0,1-.22-.38,36.73,36.73,0,0,1-.08-5.55A.64.64,0,0,1,56.78,10.06Z"/><path class="cls-42" d="M58.55,17.37H57.7l-.15-.09a.58.58,0,0,1,.07-.8l.08-.07C58.35,16.41,58.66,16.7,58.55,17.37Z"/><path class="cls-45" d="M54,23.7V21.45c.58-.43.39-1.06.43-1.63a11.94,11.94,0,0,1,.21-3.37.71.71,0,0,1,.3-.27c.65-.26,1.26-.35,1.76.29l0,0a1,1,0,0,1,.33.92.93.93,0,0,1-.14.58,1.32,1.32,0,0,0-.67,1.36c.06.46,0,.92,0,1.37.11,1.24.1,2.41-1.15,3.14a.72.72,0,0,1-.88.17A.5.5,0,0,1,54,23.7Z"/><path class="cls-46" d="M54,12.78l.05-.87a.86.86,0,0,1,.88-.33,5,5,0,0,1,1.21.68A3.89,3.89,0,0,1,55,16.4l-.07.06a.61.61,0,0,1-.89,0L54,16C54,14.91,54,13.85,54,12.78Z"/><path class="cls-47" d="M54,16.47h.89c0,1.33,0,2.65,0,4,0,.6-.12,1.07-.87,1C54,19.79,54,18.13,54,16.47Z"/><path class="cls-48" d="M53.12,24.67c0-.31,0-.61,0-.92L54,23.7v.07a.69.69,0,0,1,.06,1A.67.67,0,0,1,53.12,24.67Z"/><path class="cls-49" d="M37.52,8.28l.07.87,0,7.29-.14.17a.77.77,0,0,1-1-.12c-.43-.72-.17-1.52-.25-2.28a9.48,9.48,0,0,1,0-2.38c.15-1.2-.3-2.46.32-3.62A.69.69,0,0,1,37.52,8.28Z"/><path class="cls-50" d="M38.44,16.49l.06.86,0,0a.69.69,0,0,1-1,.06.7.7,0,0,1,0-1l.11,0Z"/><path class="cls-51" d="M19.34,9.14v7.31l-.1.17a1.68,1.68,0,0,1-1.73.11.78.78,0,0,1-.29-.28,2.57,2.57,0,0,1,.29-2.53,4,4,0,0,0,.41-2.19c.13-.89-.26-1.84.33-2.68a.77.77,0,0,1,1,.11Z"/><path class="cls-50" d="M20.19,16.49c0,.29,0,.58,0,.86l0,0a.67.67,0,1,1-1-.9l.11,0Z"/><path class="cls-52" d="M18.38,11.89c-.06,1.07.34,2.22-.73,3.12-.26.22-.1.93-.14,1.42a.58.58,0,0,1-.91,0h-.11l.06-3.66.06-.87a.92.92,0,0,1,.88-.38A1,1,0,0,1,18.38,11.89Z"/><path class="cls-52" d="M36.65,11.89l0,2.26a1.49,1.49,0,0,0-.41,1.16,1.36,1.36,0,0,1-.46,1.34.72.72,0,0,1-.9-.19h-.11l.06-3.66,0-.87a1.28,1.28,0,0,1,1.79,0Z"/><path class="cls-53" d="M19.3,9.16l-.86,0A.74.74,0,0,1,18,8.29a.93.93,0,0,1,.35-.9l0-.11.86.09Z"/><path class="cls-54" d="M17.47,11.89l-.86,0-.05-1,.07-.89.82,0C18.2,10.65,18.07,11.27,17.47,11.89Z"/><path class="cls-55" d="M55,16.4a2.08,2.08,0,0,1,.61-2c.52-.47.2-1.35.22-2.05a3.48,3.48,0,0,1-.16-3.24.74.74,0,0,1,1.06.07l.07.89-.05,6.41Z"/><path class="cls-53" d="M56.71,9.17l-.84,0a.75.75,0,0,1-.41-.84.93.93,0,0,1,.35-.9l0-.11.87.09.07.86Z"/><path class="cls-56" d="M36.65,11.89h-.92a1.2,1.2,0,0,1,0-1.85l0-1.8,0,0a.56.56,0,0,1,.77-.14l.1.14Z"/><path class="cls-54" d="M35.71,10c0,.62,0,1.23,0,1.85l-.87,0,0-1,.07-.89Z"/><path class="cls-56" d="M17.47,11.89l0-1.85,0-1.8,0,0a.55.55,0,0,1,.85,0l.07.86-.06,2.76Z"/><path class="cls-57" d="M37.52,8.28l-.88,0h0a.63.63,0,0,1,0-.9l.06-.08.83.07Z"/><path class="cls-58" d="M54.9,11.87l-.87,0L54,11l.09-.89.82,0A1.07,1.07,0,0,1,54.9,11.87Z"/><path class="cls-59" d="M54.9,11.87V10.05l0-.91L55,8.26a.54.54,0,0,1,.85,0l.07.86-.06,3.21A.83.83,0,0,1,54.9,11.87Z"/><path class="cls-60" d="M55.8,8.27H55v-.9l.85,0Z"/><path class="cls-60" d="M18.37,8.27h-.85V7.34l.85,0Z"/><path class="cls-60" d="M36.63,7.36v.9h-.87l0-.92Z"/><path class="cls-61" d="M13.85,49.54h.86c.56.29.48.81.48,1.3,0,1.31,0,2.63,0,3.94,0,2.65,0,5.3,0,8a1.54,1.54,0,0,1-.39,1.17c-.89.05-.95-.54-.95-1.2Q13.85,56.13,13.85,49.54Z"/><path class="cls-62" d="M14.78,63.91V54.78a.76.76,0,0,1,1-.07c.42.41.31,1,.3,1.46,0,2.19,0,4.38,0,6.57a1.72,1.72,0,0,1-.17,1,.71.71,0,0,1-.31.26Z"/><path class="cls-63" d="M18.39,67.55H16.58a1,1,0,0,1,0-1.75h1.8A1,1,0,0,1,18.39,67.55Z"/><path class="cls-64" d="M18.39,67.55V65.79H20.2a1,1,0,0,1,0,1.77Z"/><path class="cls-65" d="M19.32,64c0,.55-.25.84-.83.83s-1.37,0-2,0-.82-.29-.81-.84l.06-.13c1.08-.72,2.23-.41,3.37-.23A.67.67,0,0,1,19.32,64Z"/><path class="cls-66" d="M20.22,67.56c0-.59,0-1.18,0-1.77l1.86,0C22,67.61,22,67.61,20.22,67.56Z"/><path class="cls-67" d="M21.11,63.9H20.2a1.08,1.08,0,0,1-.37-.94,1.11,1.11,0,0,1,.33-1,.89.89,0,0,1,1.05,0,1.36,1.36,0,0,1,.1,1.83Z"/><path class="cls-68" d="M15.67,67.56c-1.42,0-.76-1.13-.93-1.8l.94,0A1.1,1.1,0,0,1,15.67,67.56Z"/><path class="cls-69" d="M15.67,67.56c0-.6,0-1.19,0-1.78h.91c0,.58,0,1.17,0,1.75Z"/><path class="cls-70" d="M23,64.84v.91h0l-.89,0c0-.3,0-.61,0-.92a.38.38,0,0,1,.05-.56C22.66,64.06,23.08,64.05,23,64.84Z"/><path class="cls-71" d="M22.11,64.38l-.06.44c-.68.07-1-.27-.94-.92v0C21.64,63.65,22.12,63.53,22.11,64.38Z"/><path class="cls-72" d="M20.2,63v.9l-.88.09,0-.12a.62.62,0,0,1,0-.92A.67.67,0,0,1,20.2,63Z"/><path class="cls-73" d="M14.76,27.43l.85,0,.19.08a1,1,0,0,1,.3.93,12,12,0,0,1-.17,3.33.69.69,0,0,1-.33.23c-.66,0-.84-.35-.84-.93C14.77,29.84,14.76,28.64,14.76,27.43Z"/><path class="cls-74" d="M14.68,38.37c0-1.21.08-2.42.05-3.63,0-.67.26-1,.9-1l.2.13a7.35,7.35,0,0,1,0,4.52.69.69,0,0,1-1,0Z"/><path class="cls-75" d="M15.68,32.86,15.6,32h.11a1,1,0,0,1,.87-.42,6,6,0,0,1,1,0,1.17,1.17,0,0,1,1,.43c.14,1.06-.05,1.31-1,1.37a6.55,6.55,0,0,1-.89,0A1.14,1.14,0,0,1,15.68,32.86Z"/><path class="cls-76" d="M15.68,32.86l.88.06a.66.66,0,0,1,.07.94.67.67,0,0,1-.95,0l0-.1C15.65,33.45,15.67,33.15,15.68,32.86Z"/><path class="cls-77" d="M14.79,38.37h.82l.2.1c.42.42.32,1,.32,1.48,0,2.05,0,4.09,0,6.14,0,.45.08.92-.3,1.28a.74.74,0,0,1-1-.11Z"/><path class="cls-78" d="M14.79,47.25l.83,0c.56.29.48.81.49,1.31,0,1.45,0,2.91,0,4.36-.12.63.27,1.4-.5,1.86l-.83,0c0-1.74-.06-3.48-.08-5.23C14.73,48.79,14.76,48,14.79,47.25Z"/><path class="cls-79" d="M42.15,49.31v12.1c0,.82,0,1.63,0,2.45,0,.63-.24,1-.91,1-.37.07-.67-.16-1-.26a2.68,2.68,0,0,1-.82-.64l0-.1c-.63-.57-.47-1.19-.14-1.83a1.43,1.43,0,0,0,.67-1.37q-.09-9.51,0-19a1.55,1.55,0,0,0-.69-1.38,1.42,1.42,0,0,1,.17-1.87l2.31,0c.6.33.44.92.45,1.42C42.14,43,42.15,46.13,42.15,49.31Z"/><path class="cls-79" d="M23.89,48.63V61.41c0,.82,0,1.63,0,2.45,0,.63-.24,1-.9,1-.16-.39-.49-.45-.86-.46-.18-.48-.6-.48-1-.5,0-.58,0-1.16,0-1.74L21.2,62c.46-.37.39-.89.39-1.37q0-9.39,0-18.77c0-.48.1-1-.47-1.32a.82.82,0,0,1-.26-.32,1.5,1.5,0,0,1,.25-1.78l2.31,0c.56.29.45.82.45,1.3Q23.89,44.14,23.89,48.63Z"/><path class="cls-79" d="M58.53,38.39c1.16-.44,1.81.69,2.76.9l0,4.54a.68.68,0,0,1,0,.94v2.71a.89.89,0,0,1,0,1.39V61.41c-.1,1.13.36,2.42-.92,3.21a.81.81,0,0,1-.91.25c-.36-.39-.89-.59-1.21-1A2,2,0,0,1,58.39,62a1.37,1.37,0,0,0,.67-1.37c-.07-6.34-.05-12.67,0-19a1.51,1.51,0,0,0-.69-1.38A1.42,1.42,0,0,1,58.53,38.39Z"/><path class="cls-80" d="M50.35,63V51.15c0-3.59,0-7.18,0-10.77,0-.77-.06-1.64.89-2h0c.5.38.45,1,.44,1.46,0,4.29,0,8.58,0,12.87,0,3.54,0,7.09,0,10.63a5.33,5.33,0,0,1,.07.54,1.11,1.11,0,0,1-.21,1,.84.84,0,0,1-1-.07A3.67,3.67,0,0,1,50.35,63Z"/><path class="cls-81" d="M59.49,65.77c0,1.85,0,1.85-1.85,1.78a1.43,1.43,0,0,1-.19-1.9,1.48,1.48,0,0,1,1.91-.08Z"/><path class="cls-64" d="M57.63,65.79c0,.59,0,1.17,0,1.76H55.83a1.41,1.41,0,0,1-.14-2C56.38,65.22,57.06,65,57.63,65.79Z"/><path class="cls-82" d="M55.82,65.79c0,.59,0,1.18,0,1.77l-1.81,0c-.7-.61-.52-1.27-.14-2A1.34,1.34,0,0,1,55.82,65.79Z"/><path class="cls-66" d="M38.46,65.79l1.85,0c0,1.84,0,1.84-1.84,1.79A1.08,1.08,0,0,1,38.46,65.79Z"/><path class="cls-64" d="M38.46,65.79v1.77H36.65a1.07,1.07,0,0,1,0-1.76Z"/><path class="cls-63" d="M36.65,65.79v1.76H34.84a1,1,0,0,1,0-1.75Z"/><path class="cls-68" d="M33,66l0-.23.93,0a1.09,1.09,0,0,1,0,1.78C32.67,67.61,33.11,66.61,33,66Z"/><path class="cls-69" d="M33.93,67.56V65.78h.91v1.75Z"/><path class="cls-68" d="M52.13,66.44l0-.68a.77.77,0,0,1,1-.07,1.31,1.31,0,0,1-.12,1.87C52.22,67.66,52.17,67.06,52.13,66.44Z"/><path class="cls-83" d="M53.1,67.56V65.78a.56.56,0,0,1,.91,0c0,.58,0,1.17,0,1.75Z"/><path class="cls-70" d="M40.37,64.38c.37,0,.7.06.85.46v.91h0l-.89,0c0-.3,0-.61,0-.92A.26.26,0,0,1,40.37,64.38Z"/><path class="cls-70" d="M59.54,64.61h.86v1.13h-.92a.78.78,0,0,1-.23-.89A.53.53,0,0,1,59.54,64.61Z"/><path class="cls-84" d="M38.5,29.29v4.44a.53.53,0,0,1-.25.3.72.72,0,0,1-.9-.26c-.37-.57-.18-1.22-.23-1.83a8,8,0,0,1,.21-2.63.7.7,0,0,1,.9-.31A.53.53,0,0,1,38.5,29.29Z"/><path class="cls-85" d="M39.37,27.43c0,.74.41,1.71-.87,1.86a.54.54,0,0,0,0-.11,1.27,1.27,0,0,1-.08-1.83.74.74,0,0,1,1,0Z"/><path class="cls-86" d="M40.26,33.82l0,.88a1.25,1.25,0,0,1-1.84.16.71.71,0,0,1,0-1l0-.11Z"/><path class="cls-87" d="M38.54,35.64l0,2.69-.14.18a.74.74,0,0,1-1-.12,4.16,4.16,0,0,1-.11-2.74.8.8,0,0,1,1-.29A.7.7,0,0,1,38.54,35.64Z"/><path class="cls-88" d="M38.49,34.72l1.8,0a5.23,5.23,0,0,1,0,.68c0,.36.09.82-.33,1s-.52-.28-.72-.52-.47-.21-.73-.23l-.11,0a.61.61,0,0,1-.08-.79Z"/><path class="cls-89" d="M39.37,38.38l0,1.8-.15.16a.71.71,0,0,1-1-.16,1.35,1.35,0,0,1,.16-1.78l.08-.07Z"/><path class="cls-90" d="M53,32l-.83,0c0-1.5,0-3,0-4.51l.86-.06.18.09a1.12,1.12,0,0,1,.3.94,12.08,12.08,0,0,1-.17,3.34A.69.69,0,0,1,53,32Z"/><path class="cls-91" d="M51.28,52.74q0-7.18,0-14.37h.82l.21.1c.43.37.34.92.33,1.37,0,2.33,0,4.66,0,7,0,1.61,0,3.22,0,4.83,0,.41.07.84-.26,1.18A.79.79,0,0,1,51.28,52.74Z"/><path class="cls-92" d="M52.22,33.82l.84,0,.2.13a7.28,7.28,0,0,1,0,4.5.7.7,0,0,1-1,0h-.11C52.15,36.85,52.18,35.33,52.22,33.82Z"/><path class="cls-93" d="M53.12,24.67H54l.19.13a2.87,2.87,0,0,1,0,2.67.72.72,0,0,1-1,0l-.08-.08C53.07,26.47,53.1,25.57,53.12,24.67Z"/><path class="cls-94" d="M53.13,32.85,53,32h.11a1,1,0,0,1,.86-.41,5.93,5.93,0,0,1,1,0A1.18,1.18,0,0,1,56,32a.9.9,0,0,1-.1,1.09C55,33.38,54,33.69,53.13,32.85Z"/><path class="cls-92" d="M53.13,32.85H55.8a.76.76,0,0,1,.19,1c-.53.63-1.23.38-1.88.35a1.14,1.14,0,0,1-1-.39l-.07-.07Z"/><path class="cls-95" d="M58.55,27.37l.92.07c0,1.51,0,3,0,4.53a.8.8,0,0,1-.91.24.85.85,0,0,1-.48-.82,3.91,3.91,0,0,0-.72-2.07,2.67,2.67,0,0,1-.12-1,1.31,1.31,0,0,1,.32-1A.74.74,0,0,1,58.55,27.37Z"/><path class="cls-87" d="M57.7,35.64v2.7l-.14.17a.75.75,0,0,1-1-.13,4.16,4.16,0,0,1-.11-2.72.79.79,0,0,1,1-.3A.65.65,0,0,1,57.7,35.64Z"/><path class="cls-88" d="M59.46,34.7a3.78,3.78,0,0,1,0,.67c0,.36.09.83-.33,1s-.51-.3-.71-.53a.93.93,0,0,0-.74-.21l-.1,0a.77.77,0,0,1,0-1A1.32,1.32,0,0,1,59.46,34.7Z"/><path class="cls-89" d="M58.53,38.39l0,1.79-.14.16a.72.72,0,0,1-1-.16,1.35,1.35,0,0,1,.16-1.78l.08-.06Z"/><path class="cls-96" d="M59.46,34.7l-1.75,0-.18-.11a.77.77,0,0,1,0-1,1.08,1.08,0,0,1,1-.23,1,1,0,0,1,.91.44Z"/><path class="cls-97" d="M59.45,33.84l-.89-.07c-.58-.62-.71-1.23,0-1.82l.87,0C59.46,32.59,59.46,33.21,59.45,33.84Z"/><path class="cls-98" d="M57.67,18.29c.73,0,.9.39.9,1,0,1.48,0,3,0,4.44l0,.06a.75.75,0,0,1-1,0c-.63-1.3-.2-2.68-.3-4a1.57,1.57,0,0,1,.27-1.36Z"/><path class="cls-99" d="M56.7,17.81l.07-.43a.55.55,0,0,1,.83,0l.1,0,0,.91,0,0a.66.66,0,0,1-.9.1A.47.47,0,0,1,56.7,17.81Z"/><path class="cls-100" d="M57.66,23.72l.89.08v3.57l-.87.07-.19-.12A5.38,5.38,0,0,1,57.36,24,.74.74,0,0,1,57.66,23.72Z"/><path class="cls-62" d="M33,63.9V54.78a.74.74,0,0,1,1-.07c.5.73.2,1.56.29,2.34,0,1.91,0,3.81,0,5.72a1.66,1.66,0,0,1-.18,1,.57.57,0,0,1-.3.25Z"/><path class="cls-101" d="M37.58,64c0,.53-.23.83-.8.83s-1.34,0-2,0-.91-.24-.88-.85l.06-.13c1.08-.72,2.23-.41,3.37-.23A.73.73,0,0,1,37.58,64Z"/><path class="cls-67" d="M39.39,62.11l0,1.73-.9,0a1,1,0,0,1-.37-.89,1.34,1.34,0,0,1,.23-1,.71.71,0,0,1,.94-.08A1,1,0,0,1,39.39,62.11Z"/><path class="cls-71" d="M40.37,64.38l-.06.44c-.64.05-1-.21-.91-.88C39.81,63.89,40.19,63.92,40.37,64.38Z"/><path class="cls-72" d="M38.46,63v.9l-.88.09s0-.08,0-.12a.62.62,0,0,1,0-.92A.67.67,0,0,1,38.46,63Z"/><path class="cls-77" d="M33,47.25,33,38.35l0,0a.73.73,0,0,1,1,0,1.87,1.87,0,0,1,.34,1.48c-.08,2.11,0,4.21-.06,6.32,0,.41.06.83-.25,1.18A.74.74,0,0,1,33,47.25Z"/><path class="cls-78" d="M33,47.25l.85,0c.88.62.31,1.54.49,2.31,0,1.34,0,2.68,0,4,0,.41,0,1-.52,1.2l-.83,0C33.05,52.27,33,49.76,33,47.25Z"/><path class="cls-73" d="M33,27.43l.85,0,.18.08a1.05,1.05,0,0,1,.31.93,12.38,12.38,0,0,1-.17,3.33.69.69,0,0,1-.33.23c-.66,0-.85-.35-.84-.93C33,29.84,33,28.64,33,27.43Z"/><path class="cls-102" d="M33.9,38.35l-.88,0c0-1.21,0-2.42,0-3.63,0-.68.25-1,.9-1l.2.13a7.29,7.29,0,0,1,0,4.36Z"/><path class="cls-75" d="M33.94,32.86,33.86,32H34a.88.88,0,0,1,.82-.42,8,8,0,0,1,1,0,1.52,1.52,0,0,1,1,.27.81.81,0,0,1,.22.38c.1.8-.27,1.13-1.06,1.12h-1A1.07,1.07,0,0,1,33.94,32.86Z"/><path class="cls-76" d="M33.94,32.86l.88.06a.66.66,0,0,1,.07.94.67.67,0,0,1-1,0l0-.1C33.91,33.45,33.92,33.15,33.94,32.86Z"/><path class="cls-84" d="M20.25,29.29v4.44A.59.59,0,0,1,20,34a.72.72,0,0,1-.9-.26c-.37-.57-.18-1.22-.22-1.83a8,8,0,0,1,.2-2.63A.71.71,0,0,1,20,29,.61.61,0,0,1,20.25,29.29Z"/><path class="cls-85" d="M21.12,27.43c-.05.74.41,1.71-.87,1.86l-.06-.11a1.27,1.27,0,0,1-.08-1.83.74.74,0,0,1,1,0Z"/><path class="cls-86" d="M22,33.82l0,.88a1.25,1.25,0,0,1-1.84.16.71.71,0,0,1,0-1l0-.11Z"/><path class="cls-88" d="M20.24,34.72l1.79,0a3.84,3.84,0,0,1,0,.68c0,.36.1.82-.32,1s-.52-.29-.72-.53a.92.92,0,0,0-.73-.22l-.16-.07a.56.56,0,0,1,0-.76Z"/><path class="cls-87" d="M20.28,35.64l0,2.7-.14.17a.75.75,0,0,1-1-.15,3.46,3.46,0,0,1,0-2.8.73.73,0,0,1,1,.06Z"/><path class="cls-89" d="M21.11,38.39v1.75a.67.67,0,0,1-1,.12,1.3,1.3,0,0,1,.06-1.86l.08-.06Z"/><path class="cls-103" d="M15.7,21l.85,0c.75.44.39,1.17.48,1.79s.15,1.34-.33,1.91a.69.69,0,0,1-1-.08Z"/><path class="cls-104" d="M15.7,24.65l.84,0,.2.13a3,3,0,0,1,0,2.68.69.69,0,0,1-1,0l-.11,0Z"/><path class="cls-105" d="M16.59,20.1V17.41a.71.71,0,0,1,.87-.27.69.69,0,0,1,.29.27,1.87,1.87,0,0,1,.19,1,2.32,2.32,0,0,1-.36,1.81A.74.74,0,0,1,16.59,20.1Z"/><path class="cls-106" d="M16.59,20.1h.85l.19.09c.5.53.25,1.19.3,1.79a1.07,1.07,0,0,1-.33,1,.78.78,0,0,1-1-.14c0-.61,0-1.21,0-1.81C16.56,20.72,16.58,20.41,16.59,20.1Z"/><path class="cls-107" d="M17.48,17.33l-.89.08c0-.32,0-.63,0-.95l.91,0h0A.62.62,0,0,1,17.48,17.33Z"/><path class="cls-103" d="M34,21l.85,0c.75.44.39,1.17.48,1.79s.15,1.34-.33,1.91a.69.69,0,0,1-1-.08Z"/><path class="cls-104" d="M34,24.65l.84,0,.2.13a3,3,0,0,1,0,2.68.69.69,0,0,1-1,0l-.11,0Z"/><path class="cls-105" d="M34.85,20.1V17.41a.71.71,0,0,1,.87-.27.75.75,0,0,1,.29.27,2,2,0,0,1,.19,1c0,.63.13,1.28-.37,1.81A.73.73,0,0,1,34.85,20.1Z"/><path class="cls-106" d="M34.85,20.1h.84l.2.09c.5.53.24,1.19.3,1.79a1.07,1.07,0,0,1-.33,1,.78.78,0,0,1-1-.14c0-.61,0-1.21,0-1.81C34.82,20.72,34.83,20.41,34.85,20.1Z"/><path class="cls-107" d="M35.74,17.33l-.89.08c0-.32,0-.63,0-.95h.89l.14.11A.54.54,0,0,1,35.74,17.33Z"/><path class="cls-108" d="M39.4,27.4l-.9,0-.19-.12a1.15,1.15,0,0,1-.27-.9c0-2.45,0-4.89,0-7.34a2.83,2.83,0,0,1,.13-.52.79.79,0,0,1,.32-.28c.37,0,.73.05.89.47Z"/><path class="cls-109" d="M37.6,17.34l.87,0c0,.3,0,.6,0,.89l0,.06a.76.76,0,0,1-.8.25.69.69,0,0,1-.3-.2.8.8,0,0,1,0-.84A.47.47,0,0,1,37.6,17.34Z"/><path class="cls-108" d="M21.14,27.4l-.9,0-.19-.12a1.14,1.14,0,0,1-.26-.9c0-2.45-.06-4.9,0-7.35a2.46,2.46,0,0,1,.14-.52.69.69,0,0,1,.33-.28l.86,0C21.13,21.33,21.14,24.36,21.14,27.4Z"/><path class="cls-109" d="M19.34,17.34l.88,0c0,.29,0,.59.05.88l-.06.07a.71.71,0,0,1-1.1.05.8.8,0,0,1-.05-.84A.47.47,0,0,1,19.34,17.34Z"/><path class="cls-50" d="M57.6,17.36l-.83,0,0-.93.87,0C57.61,16.78,57.61,17.07,57.6,17.36Z"/><path class="cls-110" d="M56.7,17.81l.09.49a1,1,0,0,1,.4.76,33.33,33.33,0,0,1-.11,4.47,1.09,1.09,0,0,1-.19.37,1.54,1.54,0,0,1-1.74.13.69.69,0,0,1-.22-.34c0-.07,0-.18,0-.22,1.32-1.3.77-3,.88-4.5C55.87,18.36,55.91,17.82,56.7,17.81Z"/><path class="cls-111" d="M54,24.66l0-.89.92-.08a.11.11,0,0,1,0,.11.67.67,0,0,1,.07,1,.72.72,0,0,1-1,0Z"/><path class="cls-112" d="M35.75,16.45c.19-.81-.53-2,.88-2.3,0,.77,0,1.53,0,2.3a.61.61,0,0,1-.91,0Z"/><path class="cls-46" d="M35.76,16.45h.91l.83,0,.09.86-.05.05a1.11,1.11,0,0,1-1.75,0l0-.1Z"/><path class="cls-113" d="M17.48,17.33c0-.3,0-.6,0-.9l1.72.05c0,.28.06.57.1.86l-.06.05a1.1,1.1,0,0,1-1.75,0Z"/><path class="cls-114" d="M15.62,54.81,15.7,53a.75.75,0,0,1,1.05-.07A1.66,1.66,0,0,1,17,54.12c0,1.86,0,3.73,0,5.6a10,10,0,0,1,0,2.38,1.41,1.41,0,0,1-.35,1,.72.72,0,0,1-1-.09Z"/><path class="cls-115" d="M15.69,63h.89c.76-.75,1.65-.43,2.51-.28a.65.65,0,0,1,.26.31l-.05.82a21.76,21.76,0,0,1-3.61,0Z"/><path class="cls-116" d="M20.22,40.19l.9,0,0,.11c.52.36.45.93.44,1.43q0,9.47,0,18.93c0,.5.08,1.07-.44,1.44l0,.09-.9,0L20,62a1.61,1.61,0,0,1-.26-1.17c0-6.39,0-12.78,0-19.17A1.85,1.85,0,0,1,20,40.32Z"/><path class="cls-117" d="M20.2,63l-.85,0-.1-.07a.66.66,0,0,1,0-.95.7.7,0,0,1,1,.08h0Z"/><path class="cls-118" d="M16.59,32l-.88,0c0-1.21,0-2.42,0-3.63a.69.69,0,0,1,1,0A4.14,4.14,0,0,1,16.59,32Z"/><path class="cls-119" d="M16.58,28.35H15.7c0-.31,0-.61,0-.92l.85-.05.14.09a.58.58,0,0,1,0,.79Z"/><path class="cls-120" d="M15.68,33.84l.9-.09.18.13a6,6,0,0,1,0,4.52.68.68,0,0,1-1,0h-.12Z"/><path class="cls-121" d="M16.59,32c0-1.2,0-2.4,0-3.6v0c1-.34,1.12-.26,1.34.84-.14.93.41,2-.47,2.79Z"/><path class="cls-122" d="M19.29,32l0,1.79-.1.2a2.13,2.13,0,0,1-2.64-.1v-.1l0-.83c.67-.19,1.75.43,1.83-.93l.11-.14A.58.58,0,0,1,19.29,32Z"/><path class="cls-123" d="M17.46,32l.05-2.7a.73.73,0,0,1,1-.05A2.44,2.44,0,0,1,18.4,32v0Z"/><path class="cls-124" d="M15.73,38.37l.83,0,.18.11a1.21,1.21,0,0,1,.21,1c.16,2,0,4,.1,5.94a.94.94,0,0,1-.32.82.73.73,0,0,1-1-.11C15.67,43.54,15.56,41,15.73,38.37Z"/><path class="cls-125" d="M15.71,46.12l.84,0c.55.25.51.8.5,1.22,0,1.48,0,3,0,4.44,0,.46,0,.94-.48,1.2l-.85,0c0-1.89,0-3.79-.08-5.68Z"/><path class="cls-126" d="M39.39,40.18c.68,0,.93.28.93,1q0,10,0,20c0,.67-.23,1-.93,1l0,0c-.53-.36-.48-.93-.48-1.44q0-9.51,0-19c0-.51,0-1.08.47-1.44Z"/><path class="cls-126" d="M21.16,62.05V40.25c1-.18.89.54.89,1.14,0,4.6,0,9.2,0,13.81,0,2,0,3.95,0,5.93C22.06,61.75,21.93,62.2,21.16,62.05Z"/><path class="cls-126" d="M58.56,40.18c.68,0,.93.28.93,1q0,10,0,20c0,.67-.23,1-.92,1L58.38,62a2.31,2.31,0,0,1-.28-1.6q0-9.36,0-18.73c0-.52-.05-1.09.47-1.45Z"/><path class="cls-67" d="M58.57,62.11l0,1.77-.12.17a.71.71,0,0,1-.94-.06,1.51,1.51,0,0,1-.25-1,1.25,1.25,0,0,1,.34-1,.78.78,0,0,1,1,.1Z"/><path class="cls-71" d="M59.54,64.61a1.72,1.72,0,0,0-.07.21.64.64,0,0,1-.89.06c-.33-.29-.26-.64,0-1v0C59.05,63.88,59.48,64,59.54,64.61Z"/><path class="cls-127" d="M51.28,52.74h.87c.78.46.39,1.22.48,1.85,0,2.72.06,5.43,0,8.15a1.79,1.79,0,0,1-.27,1.19.63.63,0,0,1-.83,0,2.11,2.11,0,0,1-.23-1.21C51.27,59.39,51.27,56.06,51.28,52.74Z"/><path class="cls-128" d="M51.49,63.93l.71,0a.74.74,0,0,1,.86-.22,2.69,2.69,0,0,0,3.71,0,.73.73,0,0,1,.86.2h.91c0,.64.26,1,.93.92v.94l-1.85,0H53.1l-.93,0c0-.48-.11-.87-.68-.92Z"/><path class="cls-122" d="M34.84,33.75l0-.83c.67-.18,1.72.41,1.85-.89a.55.55,0,0,1,.88-.07l0,1.79-.08.18a2.26,2.26,0,0,1-2.43.15A.67.67,0,0,1,34.84,33.75Z"/><path class="cls-129" d="M37.55,32l-.88.07-.05-.09a2.83,2.83,0,0,1-.23-2.62.72.72,0,0,1,.92-.33.71.71,0,0,1,.29.28Z"/><path class="cls-130" d="M38.5,27.43c0,.58,0,1.17,0,1.75l-.85.09-.1-.09a1.32,1.32,0,0,1-.06-1.84.77.77,0,0,1,1,0Z"/><path class="cls-131" d="M38.47,33.84l0,.88h0a.7.7,0,0,1-1,.09.65.65,0,0,1,.06-.95v-.1Z"/><path class="cls-132" d="M37.61,35.64v2.72l-.15.16a.76.76,0,0,1-1-.16,4.18,4.18,0,0,1-.25-2.74.87.87,0,0,1,1.3-.77A.53.53,0,0,1,37.61,35.64Z"/><path class="cls-117" d="M38.44,38.4l0,1.79-.15.15a.72.72,0,0,1-1-.16,1.45,1.45,0,0,1,.15-1.82h.11Z"/><path class="cls-133" d="M37.61,35.64l-.08-.71a.14.14,0,0,1,.07-.2l.88,0c0,.3,0,.61,0,.91Z"/><path class="cls-116" d="M39.4,40.2q0,10.94,0,21.89h-.92L38.3,62a2.1,2.1,0,0,1-.24-1.39c-.1-6.31,0-12.62,0-18.93,0-.52-.06-1.09.47-1.45h.91Z"/><path class="cls-134" d="M54,32l-.88,0V28.34a.7.7,0,0,1,1,0A4.16,4.16,0,0,1,54,32Z"/><path class="cls-135" d="M54,28.34h-.88v-.88l.86-.09.15.09a.57.57,0,0,1,0,.78Z"/><path class="cls-136" d="M52.22,38.37H53l.2.11c.32.34.25.76.27,1.18.06,2,.05,4,0,6,0,.42.07.84-.25,1.18a.72.72,0,0,1-1-.07Z"/><path class="cls-137" d="M52.22,46.8l.84,0c.71.38.4,1.06.49,1.63,0,1.66,0,3.33,0,5,0,.42.07.84-.26,1.19a.74.74,0,0,1-1-.08l-.06-1.81C52.17,50.77,52.19,48.78,52.22,46.8Z"/><path class="cls-120" d="M53.13,33.84H54a5.11,5.11,0,0,1,.16,4.54.69.69,0,0,1-1,0H53Z"/><path class="cls-138" d="M54,24.74l.88-.08c.91.87.59,1.82.18,2.78a.73.73,0,0,1-1,0l0-.07Z"/><path class="cls-139" d="M54,32V28.32a.75.75,0,0,1,1.07,0c.37,1.24.63,2.47-.18,3.65Z"/><path class="cls-140" d="M54.9,32l0-3.62a.7.7,0,0,1,1-.12,1.28,1.28,0,0,1,.35,1c-.05.88.24,1.8-.27,2.64l-.2.11Z"/><path class="cls-141" d="M55.84,33.76c0-.3,0-.6,0-.9V32l0,0a.79.79,0,0,1,1.07-.09,1.55,1.55,0,0,1,0,2A.69.69,0,0,1,55.84,33.76Z"/><path class="cls-142" d="M55.84,33.76l.92,0,.16.1a1,1,0,0,1,.15.91.73.73,0,0,1-.15.36c-.67.31-.64.92-.65,1.5s.16,1.36-.4,1.92a1.49,1.49,0,0,1-1.78,0,1.74,1.74,0,0,0-.11-.18l0-4.51Z"/><path class="cls-143" d="M56.76,33.78l0-1.82a2.54,2.54,0,0,1-.12-2.76.75.75,0,0,1,1,0,.81.81,0,0,1,.93,1c0,.6,0,1.2,0,1.79l0,1.82-.92,0a.66.66,0,0,1-.91,0Z"/><path class="cls-144" d="M57.64,29.2l-.86.08-.16-.08a.73.73,0,0,1-.11-.87.7.7,0,0,1,.28-.26.75.75,0,0,1,.85.24Z"/><path class="cls-145" d="M57.64,28.31h-.9a.65.65,0,0,1,0-1.13.74.74,0,0,1,.88.19l0,.06C57.67,27.73,57.65,28,57.64,28.31Z"/><path class="cls-132" d="M55.83,38.36c0-.67,0-1.36,0-2a1.23,1.23,0,0,1,.88-1.4.49.49,0,0,1,.08.71v2.72l-.09.15a.58.58,0,0,1-.78,0Z"/><path class="cls-117" d="M57.61,38.4l0,1.79-.15.15a.72.72,0,0,1-1-.16,1.45,1.45,0,0,1,.16-1.82h.1Z"/><path class="cls-133" d="M56.78,35.64l-.08-.71a1.59,1.59,0,0,1,.07-.2.56.56,0,0,1,.84,0l.1,0c0,.3-.07.6-.11.89Z"/><path class="cls-116" d="M58.58,62.09h-.92L57.47,62a2.1,2.1,0,0,1-.24-1.39c-.09-6.31,0-12.62,0-18.93,0-.52-.06-1.09.47-1.45h.91Z"/><path class="cls-115" d="M57.61,34.7l-.84,0c0-.3,0-.6,0-.91h.91Z"/><path class="cls-146" d="M56.77,23.7l0-5.4.85,0c0,1.82,0,3.64,0,5.45l0,.05C57.32,24,57,24.05,56.77,23.7Z"/><path class="cls-147" d="M56.77,23.7l.85.07c0,1.2,0,2.41,0,3.61h-.87a3.1,3.1,0,0,1-.07-3.59Z"/><path class="cls-148" d="M33.88,54.81,34,49.54a.74.74,0,0,1,1-.08c.56.89.17,1.9.32,2.84.12,1.38-.08,2.77,0,4.15a1,1,0,0,1-.27.7.74.74,0,0,1-1-.08Z"/><path class="cls-149" d="M34,57.07l.87,0c.69.46.36,1.16.43,1.78.06.44-.06.87,0,1.3a7.87,7.87,0,0,1,0,1.94,1.35,1.35,0,0,1-.34,1,.74.74,0,0,1-1-.1Z"/><path class="cls-115" d="M33.94,63h.89c.77-.74,1.65-.46,2.52-.29a.66.66,0,0,1,.26.31l0,.82a21.76,21.76,0,0,1-3.61,0Z"/><path class="cls-117" d="M38.46,63l-.85,0-.1-.07a.67.67,0,0,1,0-.95.71.71,0,0,1,1,.08h0Z"/><path class="cls-150" d="M34.82,49.56l-.87,0-.06-2.26c0-3,0-6,0-8.93l0,0a.73.73,0,0,1,.89-.23.78.78,0,0,1,.28.29,1.87,1.87,0,0,1,.11,1c.13,2,0,4,.07,6,0,1,0,2,0,3C35.24,49,35.2,49.32,34.82,49.56Z"/><path class="cls-118" d="M34.85,32,34,32c0-1.21,0-2.42,0-3.63a.69.69,0,0,1,1,0A4.17,4.17,0,0,1,34.85,32Z"/><path class="cls-119" d="M34.84,28.35H34c0-.31,0-.61,0-.92l.85-.05.14.09a.58.58,0,0,1,0,.79Z"/><path class="cls-120" d="M34.81,38.35l-.87,0V33.84l.9-.09v.1A4.49,4.49,0,0,1,34.81,38.35Z"/><path class="cls-121" d="M34.85,32c0-1.2,0-2.4,0-3.6v0c1-.34,1.12-.26,1.34.84-.14.93.41,2-.47,2.79Z"/><path class="cls-123" d="M35.72,32l.05-2.7a.57.57,0,0,1,.89,0c0,.89,0,1.79,0,2.68Z"/><path class="cls-129" d="M18.4,32V29.26a.52.52,0,0,1,.72-.24.47.47,0,0,1,.21.25c0,.9,0,1.79-.05,2.69Z"/><path class="cls-130" d="M20.24,27.43c0,.58,0,1.17,0,1.75l-.85.09-.09-.09a1.3,1.3,0,0,1-.06-1.84.76.76,0,0,1,1,0Z"/><path class="cls-131" d="M20.21,33.84l0,.88h0a.69.69,0,0,1-1,.09.65.65,0,0,1,0-.95v-.1Z"/><path class="cls-133" d="M19.34,34.73l.88,0c0,.3,0,.61,0,.91l-.82,0A.52.52,0,0,1,19.1,35,.6.6,0,0,1,19.34,34.73Z"/><path class="cls-132" d="M19.28,34.93l.07.71v2.72l-.12.17a.75.75,0,0,1-.95,0,1.13,1.13,0,0,1-.22-.36,4.68,4.68,0,0,1-.14-2.46C18.05,35,18.44,34.51,19.28,34.93Z"/><path class="cls-117" d="M20.18,38.4l0,1.79h0a.77.77,0,0,1-1,0,1.38,1.38,0,0,1,.07-1.89h.1Z"/><path class="cls-151" d="M16.59,22.84h.86c.73.55.59,1.21.23,1.89a.78.78,0,0,1-1.08,0l-.06-.08C16.56,24,16.58,23.43,16.59,22.84Z"/><path class="cls-152" d="M16.6,24.71l.85-.05c.85.86.5,1.81.22,2.76a.74.74,0,0,1-1.06,0l0-.07Z"/><path class="cls-153" d="M17.44,20.11l.1-1.79a1,1,0,0,1,1.72-.09l.1.09a.75.75,0,0,1,.2.87,5.74,5.74,0,0,0-1.17,1.14.69.69,0,0,1-.85-.23Z"/><path class="cls-154" d="M19.26,18.23l-1.72.09c0-.3,0-.6,0-.89l1.75,0C19.27,17.67,19.27,18,19.26,18.23Z"/><path class="cls-155" d="M17.5,27.38l-.05-2.72V22.84l.07-.9a.75.75,0,0,1,1-.1,2,2,0,0,1,.28,1.54,21.71,21.71,0,0,1-.13,4.11A.78.78,0,0,1,17.5,27.38Z"/><path class="cls-156" d="M18.38,21.92l-.86,0,0-1.84h.82l.2.11C19,20.82,19.06,21.41,18.38,21.92Z"/><path class="cls-151" d="M34.85,22.84h.86c.73.55.59,1.2.23,1.89a.79.79,0,0,1-1.09,0l-.05-.08C34.82,24,34.84,23.43,34.85,22.84Z"/><path class="cls-152" d="M34.85,24.71l.86-.05c.84.86.5,1.81.22,2.76a.74.74,0,0,1-1.06,0l0-.07C34.84,26.49,34.85,25.6,34.85,24.71Z"/><path class="cls-153" d="M35.69,20.11l.11-1.79a1,1,0,0,1,1.72-.09l.1.09a.77.77,0,0,1,.2.87,5.74,5.74,0,0,0-1.17,1.14.69.69,0,0,1-.85-.23Z"/><path class="cls-154" d="M37.52,18.23l-1.72.09c0-.3,0-.6,0-.89l1.75,0C37.53,17.67,37.52,18,37.52,18.23Z"/><path class="cls-157" d="M35.76,27.38l0-2.72V22.84l.07-.9a.73.73,0,0,1,1.06-.05c.56,1.35.16,2.75.25,4.13a1.89,1.89,0,0,1-.28,1.42A.71.71,0,0,1,35.76,27.38Z"/><path class="cls-156" d="M36.64,21.92l-.86,0,0-1.84h.82l.19.11C37.24,20.82,37.32,21.41,36.64,21.92Z"/><path class="cls-158" d="M37.54,19.18c0-.28.05-.57.08-.86h.85c0,3,0,6,0,9.05l-.86.07-.2-.11a1.13,1.13,0,0,1-.33-1c.08-2.05,0-4.11.06-6.16A1.21,1.21,0,0,1,37.54,19.18Z"/><path class="cls-158" d="M19.28,19.18c0-.28,0-.57.08-.86h.86v9.05l-.86.07-.2-.11a1.49,1.49,0,0,1-.29-1.1c0-2,0-4,0-6.06A1.24,1.24,0,0,1,19.28,19.18Z"/><path class="cls-159" d="M56.7,23.78c0,1.2,0,2.39.07,3.59a.16.16,0,0,0-.08.08c-.61.53-1.2.67-1.76-.07l0-2.72c0-.29,0-.57,0-.86Z"/><path class="cls-160" d="M16.55,53l.05-1.19c.57-.38.46-1,.46-1.53,0-1.09,0-2.18,0-3.27s.4-1.39,1.52-1c.31.39.2.84.21,1.29a61.12,61.12,0,0,1,0,6.35,2.41,2.41,0,0,0-.82,2.17,20.37,20.37,0,0,1-.06,3.22c-.13,1-.3,1.09-1.28.72Z"/><path class="cls-161" d="M16.6,59.79c.74.06.88-.41.88-1,0-1.24,0-2.49,0-3.74a1.26,1.26,0,0,1,.87-1.4.93.93,0,0,1,.49,1c0,2.21,0,4.42,0,6.63a1.62,1.62,0,0,1-.31,1,1.42,1.42,0,0,1-2-.15Z"/><path class="cls-162" d="M16.57,62.1h1.84A.6.6,0,0,1,19.2,62l.1.14c0,.29,0,.57-.05.86l-2.67,0Z"/><path class="cls-163" d="M19.31,40.19h.92V62.1h-.92c-.51-.38-.46-1-.46-1.46,0-6.32-.05-12.63,0-18.94,0-.48-.1-1,.24-1.39Z"/><path class="cls-164" d="M17.5,27.38h1.13a.47.47,0,0,1,.66,0l.07.07c0,.58-.08,1.15-.11,1.73l-.84.08h-.9c0-.61-.26-1-.92-.93,0-.29,0-.59,0-.88Z"/><path class="cls-142" d="M19.28,34.93a1.08,1.08,0,0,0-.88,1.27c0,.72,0,1.44,0,2.16-.59.69-1.18.6-1.79,0l-.06,0c0-1.5,0-3,0-4.5h2.74l0,.88A.76.76,0,0,0,19.28,34.93Z"/><path class="cls-165" d="M16.62,38.4l1.79,0h0c.63.52.4,1.24.45,1.89,0,1.56,0,3.11,0,4.67,0,.42.05,1-.51,1.2-.71,0-.87.44-.87,1,0,1.21,0,2.42,0,3.63,0,.6-.14,1.06-.88,1,0-1.89,0-3.78-.05-5.67,0-.24,0-.48.05-.72a2.12,2.12,0,0,0,.46-1.5c0-1.12,0-2.24,0-3.36a1.55,1.55,0,0,0-.43-1.26Z"/><path class="cls-166" d="M16.62,39.3c.76.08.85.65.86,1.24,0,1.21,0,2.42,0,3.62a1.13,1.13,0,0,1-.89,1.26Q16.6,42.36,16.62,39.3Z"/><path class="cls-117" d="M57.66,62.1l0,.89a.68.68,0,0,1-1,.07.75.75,0,0,1,0-1,.72.72,0,0,1,1,.05Z"/><path class="cls-72" d="M56.73,63h.9v.9l-.88.09-.15-.09a.6.6,0,0,1,0-.79Z"/><path class="cls-102" d="M52.21,54.56l.85,0a.66.66,0,0,1,.36.51c.26,2.56.06,5.12.12,7.68a1.68,1.68,0,0,1-.18,1,.62.62,0,0,1-.3.25l-.86-.09C52.21,60.79,52.21,57.68,52.21,54.56Z"/><path class="cls-167" d="M56.75,64a.72.72,0,0,1-.83.83c-.69,0-1.37,0-2.06,0s-.82-.3-.8-.85l.06-.13a3.82,3.82,0,0,1,3.61,0S56.74,63.94,56.75,64Z"/><path class="cls-142" d="M34.81,38.35c0-1.5,0-3,0-4.5h2.74l0,.88a1.59,1.59,0,0,0-.07.2,1.08,1.08,0,0,0-.87,1.26c0,.72,0,1.44,0,2.15l-.11.19a1.14,1.14,0,0,1-1.7-.14Z"/><path class="cls-164" d="M35.76,27.38h.91a.63.63,0,0,1,.88,0l.07.07-.12,1.73-.84.08h-.89c0-.61-.26-1-.92-.93,0-.29,0-.59,0-.88Z"/><path class="cls-168" d="M37.51,38.36l.06,1.83-.15.16a.8.8,0,0,1-1-.14,1.41,1.41,0,0,1,.24-1.83l0,0Z"/><path class="cls-163" d="M38.49,62.1h-.93L37.38,62a2.5,2.5,0,0,1-.27-1.71c0-6.17,0-12.34,0-18.51,0-.57-.1-1.15.43-1.57h.92Z"/><path class="cls-169" d="M54.93,27.38l1.76.07c0,.29,0,.58.05.87h0a.59.59,0,0,1-.87,0l-.91,0H54c0-.29,0-.59,0-.88Z"/><path class="cls-170" d="M53.16,38.37l.82,0,.07,0a1.67,1.67,0,0,1,.49,1.23c.14,2.75-.14,5.49-.08,8.24a.81.81,0,0,1-.28.6.75.75,0,0,1-1.06-.07l-.06-1.58Q53.11,42.61,53.16,38.37Z"/><path class="cls-171" d="M53.12,48.4l.87,0c.74.44.35,1.23.55,1.83.09,1.35-.15,2.69-.09,4a1,1,0,0,1-.28.82A.76.76,0,0,1,53.12,55l-.06-.44Z"/><path class="cls-172" d="M56.78,29.28c0,.89,0,1.78-.07,2.68l-.88,0,0-2.71a.55.55,0,0,1,.84-.07Z"/><path class="cls-173" d="M56.7,29.2l-.84.07c0-.31,0-.62,0-.92l.87,0C56.71,28.61,56.71,28.9,56.7,29.2Z"/><path class="cls-174" d="M54,50.22l0-1.8.06-10,1.78,0h0c.62.51.41,1.22.46,1.86a41.85,41.85,0,0,1-.1,4.34,2.27,2.27,0,0,0-.81,2.15,16.72,16.72,0,0,1,0,2.55C55.27,50.25,55.07,50.4,54,50.22Z"/><path class="cls-168" d="M55.85,40.22c0-.62,0-1.24,0-1.86h.86l.05,1.83-.11.14A.59.59,0,0,1,55.85,40.22Z"/><path class="cls-163" d="M57.66,62.1h-.93L56.55,62a2.5,2.5,0,0,1-.27-1.71c0-6.17,0-12.34,0-18.51,0-.57-.09-1.15.44-1.57h.92Z"/><path class="cls-165" d="M36.64,38.38l0,1.84a1.12,1.12,0,0,1,.43.87A52.22,52.22,0,0,1,37,46.4a2.24,2.24,0,0,0-.84,2.1,18.29,18.29,0,0,1,0,3c-.12,1-.31,1.08-1.29.73l0-2.72,0-4.13c.06-.06.14-.11.16-.17a10.78,10.78,0,0,0-.14-6v-.91Z"/><path class="cls-175" d="M34.85,52.28c.72,0,.89-.41.89-1,0-1.17,0-2.35,0-3.52a1.25,1.25,0,0,1,.88-1.4.83.83,0,0,1,.49.81c0,2.25.14,4.51-.11,6.75a2.05,2.05,0,0,0-.8,1.87,24.07,24.07,0,0,1-.07,3.7c-.12,1-.3,1.08-1.28.79l0-3.17Z"/><path class="cls-176" d="M34.85,60.26c.79,0,.88-.57.88-1.18,0-1.32,0-2.63,0-3.95,0-.64.19-1.11.87-1.26.43.22.46.59.47,1,.06,2.1,0,4.21,0,6.32a1.59,1.59,0,0,1-.3,1,1.41,1.41,0,0,1-2-.16Z"/><path class="cls-175" d="M34.83,62.09h1.84a.63.63,0,0,1,.9,0h0c0,.29,0,.58-.05.86L34.83,63Z"/><path class="cls-166" d="M34.87,39.3c.76.08.86.64.86,1.23,0,1.28,0,2.56,0,3.84,0,.59-.18,1-.88,1.06C34.86,43.39,34.87,41.34,34.87,39.3Z"/><path class="cls-168" d="M18.42,40.22c0-.62,0-1.24,0-1.86h.85l0,1.83h0A.62.62,0,0,1,18.42,40.22Z"/><path class="cls-177" d="M19.28,19.18v.95a.54.54,0,0,1-.82,0l-.1,0C18.38,19.49,18.61,19.12,19.28,19.18Z"/><path class="cls-178" d="M18.46,20.13h.82c0,2.42,0,4.83,0,7.25h-.66c-.5-1.8-.09-3.64-.25-5.45C18.41,21.32,18.43,20.73,18.46,20.13Z"/><path class="cls-177" d="M37.54,19.18v.95a.55.55,0,0,1-.83,0l-.09,0C36.63,19.5,36.87,19.12,37.54,19.18Z"/><path class="cls-179" d="M36.71,20.13h.83c0,2.42,0,4.83,0,7.25h-.88l0-5.45C36.66,21.32,36.69,20.73,36.71,20.13Z"/><path class="cls-180" d="M18.42,40.22l.89,0V62.11h-.9c0-2.82,0-5.64-.05-8.46V46.12Z"/><path class="cls-162" d="M56.73,62.11V63h0c-.89.81-1.85.55-2.82.19a1,1,0,0,1-.08-1.12,2.12,2.12,0,0,1,1.94-.38,1.14,1.14,0,0,1,1,.43Z"/><path class="cls-181" d="M54,63l2.71,0v.87a20.73,20.73,0,0,1-3.61,0V63A.61.61,0,0,1,54,63Z"/><path class="cls-182" d="M54,63h-.89V55L54,55c.7.38.43,1.08.48,1.64a8.05,8.05,0,0,1,0,1.3,19,19,0,0,1,.06,2.82A1.54,1.54,0,0,1,54,62.1Z"/><path class="cls-94" d="M37.57,62.11h-.9c0-2.74,0-5.49-.05-8.23V46.34l.06-6.12.89,0Z"/><path class="cls-183" d="M54,58,54,55l0-4.82a1.18,1.18,0,0,0,.9-1.37c0-1,0-2,0-2.94a1.24,1.24,0,0,1,.88-1.39.82.82,0,0,1,.48.81c0,2.25.12,4.5-.08,6.75a2.37,2.37,0,0,0-.83,2.16,17.92,17.92,0,0,1,0,3C55.2,58.21,55,58.33,54,58Z"/><path class="cls-180" d="M55.79,52.05V44.52l.06-4.3.89,0V62.11h-.91a1.8,1.8,0,0,1-.55-1.65c0-2.39.11-4.77.12-7.16A3.6,3.6,0,0,1,55.79,52.05Z"/><path class="cls-184" d="M55.79,52.05q0,5,0,10.05H54c0-1.37,0-2.75,0-4.12.73,0,.89-.41.89-1,0-1.17,0-2.34,0-3.51A1.26,1.26,0,0,1,55.79,52.05Z"/></g></g></svg>