<svg xmlns="http://www.w3.org/2000/svg" viewBox="0 0 74 74"><defs><style>.cls-1{fill:#1e2223;}.cls-2{fill:#222628;}.cls-3{fill:#24282a;}.cls-4{fill:#212628;}.cls-5{fill:#5c5c5c;}.cls-6{fill:#5e5d5d;}.cls-7{fill:#5e5e5e;}.cls-8{fill:#5c5c5d;}.cls-9{fill:#b1bdb2;}.cls-10{fill:#a5a7a8;}.cls-11{fill:#3a4145;}.cls-12{fill:#3a4245;}.cls-13{fill:#94989a;}.cls-14{fill:#aaacad;}.cls-15{fill:#323a3e;}.cls-16{fill:#949799;}.cls-17{fill:#7a7e80;}.cls-18{fill:#676d71;}.cls-19{fill:#242c30;}.cls-20{fill:#596064;}.cls-21{fill:#3c4549;}.cls-22{fill:#737779;}.cls-23{fill:#565a5b;}.cls-24{fill:#2b3237;}.cls-25{fill:#4b5154;}.cls-26{fill:#6d7274;}.cls-27{fill:#878a8c;}.cls-28{fill:#3b3c3d;}.cls-29{fill:#242d31;}.cls-30{fill:#252d31;}.cls-31{fill:#273034;}.cls-32{fill:#232d33;}.cls-33{fill:#3c454a;}.cls-34{fill:#3b454a;}.cls-35{fill:#2a2a2a;}.cls-36{fill:#282828;}.cls-37{fill:#75787a;}.cls-38{fill:#767a7d;}.cls-39{fill:#4a4e51;}.cls-40{fill:#585c5e;}.cls-41{fill:#646768;}.cls-42{fill:#4a5154;}.cls-43{fill:#65696c;}.cls-44{fill:#4c5052;}.cls-45{fill:#0f0f0f;}.cls-46{fill:#1b313d;}.cls-47{fill:#272d32;}.cls-48{fill:#293232;}.cls-49{fill:#163629;}.cls-50{fill:#1e5223;}.cls-51{fill:#484848;}.cls-52{fill:#2a3339;}.cls-53{fill:#1b342c;}.cls-54{fill:#2e3032;}.cls-55{fill:#3f3f3f;}.cls-56{fill:#1d5021;}.cls-57{fill:#17362a;}.cls-58{fill:#b7c4b9;}.cls-59{fill:#1e4e21;}.cls-60{fill:#153328;}.cls-61{fill:#b8b9b9;}.cls-62{fill:#272e33;}.cls-63{fill:#1d5522;}.cls-64{fill:#152530;}.cls-65{fill:#5a5b5c;}.cls-66{fill:#b2b2b2;}.cls-67{fill:#a5a5a5;}.cls-68{fill:#8a8a8b;}.cls-69{fill:#949494;}.cls-70{fill:#b5b5b5;}.cls-71{fill:#a4a4a4;}.cls-72{fill:#9f9f9f;}.cls-73{fill:#b4b4b4;}.cls-74{fill:#d0d0d0;}.cls-75{fill:#97bf95;}.cls-76{fill:#b6e6b5;}.cls-77{fill:#96dc96;}.cls-78{fill:#e9e9e9;}.cls-79{fill:#d1d1d1;}.cls-80{fill:#7d7d7e;}.cls-81{fill:#b9babb;}.cls-82{fill:#dfdfdf;}.cls-83{fill:#aaabac;}.cls-84{fill:#e2e2e2;}.cls-85{fill:#919395;}.cls-86{fill:#b1b2b2;}.cls-87{fill:#b6b7b7;}.cls-88{fill:#3b3c3c;}.cls-89{fill:#2c353b;}.cls-90{fill:#3b3d3e;}.cls-91{fill:#283132;}.cls-92{fill:#090909;}.cls-93{fill:#626262;}.cls-94{fill:#686868;}.cls-95{fill:#3c3c3c;}.cls-96{fill:#474747;}.cls-97{fill:#6c6c6c;}.cls-98{fill:#5b5b5b;}.cls-99{fill:#7f7f7f;}.cls-100{fill:#414141;}.cls-101{fill:#717171;}.cls-102{fill:#5a5a5a;}.cls-103{fill:#3d3d3d;}.cls-104{fill:#6b6b6b;}.cls-105{fill:#5a5a59;}.cls-106{fill:#414242;}.cls-107{fill:#323232;}.cls-108{fill:#6f6f6f;}.cls-109{fill:#666665;}.cls-110{fill:#404040;}.cls-111{fill:#a9a9a9;}.cls-112{fill:#3c4e2f;}.cls-113{fill:#727271;}.cls-114{fill:#545454;}.cls-115{fill:#757675;}.cls-116{fill:#0c671c;}.cls-117{fill:#05360c;}.cls-118{fill:#457f47;}.cls-119{fill:#8f8f8f;}.cls-120{fill:#9e9e9e;}.cls-121{fill:#5d5d5d;}.cls-122{fill:#696969;}.cls-123{fill:#494949;}.cls-124{fill:#767676;}.cls-125{fill:#13641d;}.cls-126{fill:#445634;}.cls-127{fill:#313b28;}.cls-128{fill:#1c1d1d;}.cls-129{fill:#727272;}.cls-130{fill:#82947c;}.cls-131{fill:#475740;}.cls-132{fill:#14641d;}.cls-133{fill:#b5e6b4;}.cls-134{fill:#a7c4a5;}.cls-135{fill:#2f3940;}.cls-136{fill:#3d512f;}.cls-137{fill:#0b681b;}.cls-138{fill:#a1a1a1;}.cls-139{fill:#7a7a7a;}.cls-140{fill:#cbcbcb;}.cls-141{fill:#424242;}.cls-142{fill:#053a0e;}.cls-143{fill:#bcbcbc;}.cls-144{fill:#7cd17e;}.cls-145{fill:#7db37c;}.cls-146{fill:#79cf7c;}.cls-147{fill:#40c952;}.cls-148{fill:#00ba23;}.cls-149{fill:#626362;}.cls-150{fill:#2a2929;}.cls-151{fill:#8a8a8a;}.cls-152{fill:#9d9d9d;}.cls-153{fill:#888;}.cls-154{fill:#b9b8b8;}.cls-155{fill:#ababab;}.cls-156{fill:#8b8b8b;}.cls-157{fill:#7e7e7e;}.cls-158{fill:#c7c7c7;}.cls-159{fill:#b7b6b6;}.cls-160{fill:#787878;}.cls-161{fill:#bbbaba;}.cls-162{fill:#7b7b7b;}.cls-163{fill:#bab9b9;}.cls-164{fill:#aaa;}.cls-165{fill:#b0b0b0;}.cls-166{fill:#898989;}.cls-167{fill:#99999a;}.cls-168{fill:#56724f;}.cls-169{fill:#49643f;}.cls-170{fill:#637859;}.cls-171{fill:#cacac9;}.cls-172{fill:#acadab;}.cls-173{fill:#00660f;}.cls-174{fill:#d9d9d9;}.cls-175{fill:#cac9c9;}.cls-176{fill:#373737;}.cls-177{fill:#8e8e8e;}.cls-178{fill:#dddddc;}.cls-179{fill:#ababaa;}.cls-180{fill:#63a662;}.cls-181{fill:#c8dac1;}.cls-182{fill:#8aad81;}.cls-183{fill:#b0bfa8;}.cls-184{fill:#83997c;}.cls-185{fill:#363636;}.cls-186{fill:#a3a3a3;}.cls-187{fill:#3a3a39;}.cls-188{fill:#c8c8c7;}.cls-189{fill:#a7a6a6;}.cls-190{fill:#57724f;}.cls-191{fill:#7ebe7e;}.cls-192{fill:#62a662;}.cls-193{fill:#90da91;}.cls-194{fill:#696968;}.cls-195{fill:#747474;}.cls-196{fill:#4c6a40;}.cls-197{fill:#00650f;}.cls-198{fill:#58c160;}.cls-199{fill:#06c439;}.cls-200{fill:#add8a7;}.cls-201{fill:#a7a7a6;}.cls-202{fill:#5e5e5d;}.cls-203{fill:#dcdcdc;}.cls-204{fill:#dbdbda;}.cls-205{fill:#c6c6c6;}.cls-206{fill:#cacaca;}.cls-207{fill:#d7d7d7;}.cls-208{fill:#ededed;}.cls-209{fill:#dbdbdb;}.cls-210{fill:#d8d8d8;}.cls-211{fill:#c2c2c2;}.cls-212{fill:#dadada;}.cls-213{fill:#cccbcb;}.cls-214{fill:#e4e4e4;}.cls-215{fill:#eee;}.cls-216{fill:#d6d6d6;}.cls-217{fill:#575757;}.cls-218{fill:#c8c8c8;}.cls-219{fill:#ddd;}.cls-220{fill:#cdcdcc;}.cls-221{fill:#7bb86a;}.cls-222{fill:#6ca05d;}.cls-223{fill:#86a37e;}.cls-224{fill:#f9f9f9;}.cls-225{fill:#bfbfbf;}.cls-226{fill:#a2a2a2;}.cls-227{fill:#bababa;}.cls-228{fill:#cecdcd;}.cls-229{fill:#acd7a5;}.cls-230{fill:#00ba21;}.cls-231{fill:#01c034;}.cls-232{fill:#56c05d;}.cls-233{fill:#c1c1c1;}.cls-234{fill:#eaeaea;}.cls-235{fill:#a0a09f;}.cls-236{fill:#9e9e9d;}.cls-237{fill:#9b9b9a;}.cls-238{fill:#cdcdcd;}.cls-239{fill:#f8f8f8;}</style></defs><title>총알2</title><g id="레이어_2" data-name="레이어 2"><g id="레이어_1-2" data-name="레이어 1"><rect class="cls-1" width="74" height="74" rx="8.33" ry="8.33"/><path class="cls-2" d="M32.41,15.07a21,21,0,0,1,.71,2.7.71.71,0,0,1-.88.22,9.22,9.22,0,0,0-1.16-1.26A26.49,26.49,0,0,1,31,11a.6.6,0,0,1,.39-.55c.93,0,.93,1.14,1.65,1.42.09,0,0,.3-.1.39C31.7,13,32.29,14.07,32.41,15.07Z"/><path class="cls-3" d="M63.55,16.86c.06.67-.24,1-.9.9a.7.7,0,0,1-.87.23,9.22,9.22,0,0,0-1.16-1.26,24.4,24.4,0,0,1-.12-5.6.58.58,0,0,1,.39-.54c.67-.05.89.29.88.92,0,1.16,0,2.32,0,3.48A1.73,1.73,0,0,0,63.55,16.86Z"/><path class="cls-4" d="M18.27,15.08a4,4,0,0,1,.35,1.78c-.16.31-.46.33-.76.34a1.16,1.16,0,0,1-1-.29,1.93,1.93,0,0,1-.28-1.12c0-1.43,0-2.86,0-4.29,0-.4,0-.86.44-1.09.94,0,.94,1.13,1.65,1.44.14.06-.07.34-.25.48A2.21,2.21,0,0,0,18.27,15.08Z"/><path class="cls-4" d="M46.73,15.08a6.1,6.1,0,0,1,.53,1.78c-.16.31-.46.33-.76.34a1.14,1.14,0,0,1-1-.3,1.88,1.88,0,0,1-.28-1.11c0-1.43,0-2.86,0-4.29,0-.4,0-.86.44-1.09.94,0,.93,1.14,1.65,1.42.09,0,0,.3-.1.39C46,13,46.61,14.07,46.73,15.08Z"/><path class="cls-5" d="M60.89,10.59v6.23a.47.47,0,0,1-.21.25.7.7,0,0,1-.9-.22,5.93,5.93,0,0,1-.22-2.68,30.19,30.19,0,0,1,.07-4.46.87.87,0,0,1,.23-.65.68.68,0,0,1,1,.13Z"/><path class="cls-6" d="M17,10.41l0,6.42a.49.49,0,0,1-.21.24.69.69,0,0,1-.9-.22,5.75,5.75,0,0,1-.22-2.67,28.67,28.67,0,0,1,0-3.59c0-.35,0-.73.26-1a.7.7,0,0,1,1,.13Z"/><path class="cls-7" d="M31.35,10.41l0,6.42a.49.49,0,0,1-.21.24.69.69,0,0,1-.9-.22A5.75,5.75,0,0,1,30,14.18a28.67,28.67,0,0,1,0-3.59c0-.35,0-.73.26-1a.7.7,0,0,1,1,.13Z"/><path class="cls-8" d="M45.67,10.41l0,6.41a.47.47,0,0,1-.21.25.7.7,0,0,1-.9-.21,5.8,5.8,0,0,1-.22-2.68,28.67,28.67,0,0,1,0-3.59c0-.35-.05-.73.26-1a.7.7,0,0,1,1,.13Z"/><path class="cls-9" d="M56.36,16.87v-.72l.06-1.07a.7.7,0,0,1,1-.14c.49.56.27,1.22.28,1.84,0,.34,0,.68,0,1a15.1,15.1,0,0,1,0,2.69c0,.36,0,.73-.28,1a.89.89,0,0,1-1,0C55.75,20.7,56,19.81,56,19A7.32,7.32,0,0,1,56,17.82,1.11,1.11,0,0,1,56.36,16.87Z"/><path class="cls-10" d="M26.88,16.87l-.06-.54.07-3a.69.69,0,0,1,1-.1,5,5,0,0,1,0,3.72A.67.67,0,0,1,26.88,16.87Z"/><path class="cls-10" d="M41.21,16.15,41.14,16l.07-2.68a.69.69,0,0,1,1-.1,3.67,3.67,0,0,1,0,3A.71.71,0,0,1,41.21,16.15Z"/><path class="cls-11" d="M31.31,9.72l-.84,0c-.4-.15-.39-.49-.39-.82s0-.65,0-1a.87.87,0,0,1,.34-.85c.64-.09.93.17.91.82S31.32,9.1,31.31,9.72Z"/><path class="cls-12" d="M17,9.72l-.84,0c-.4-.15-.39-.49-.39-.82s0-.65,0-1a.87.87,0,0,1,.34-.85c.64-.09.93.17.91.82S17,9.1,17,9.72Z"/><path class="cls-12" d="M45.63,9.72l-.84,0c-.4-.15-.39-.49-.39-.82s0-.65,0-1a.87.87,0,0,1,.34-.85c.64-.09.93.17.9.82S45.63,9.1,45.63,9.72Z"/><path class="cls-13" d="M57.26,15.05l-.84,0V12.4a.65.65,0,0,1,1-.07C57.76,13.26,58,14.19,57.26,15.05Z"/><path class="cls-14" d="M12.5,16.87v-.54l.07-2a.7.7,0,0,1,1-.12,3,3,0,0,1,.09,2.56.72.72,0,0,1-.89.3A.62.62,0,0,1,12.5,16.87Z"/><path class="cls-15" d="M60.84,9.19l-.83,0c-.57-.25-.37-.76-.4-1.19A1,1,0,0,1,60,7c.62-.08.94.17.91.83C60.85,8.31,60.85,8.75,60.84,9.19Z"/><path class="cls-16" d="M13.4,14.34l-.83,0v-2a.64.64,0,0,1,1-.06C13.89,13,14.1,13.72,13.4,14.34Z"/><path class="cls-17" d="M42,9.69l.06-.87a.64.64,0,0,1,1-.08,1.91,1.91,0,0,1,.11,1.89.88.88,0,0,1-1,.21.83.83,0,0,1-.28-.21A.74.74,0,0,1,42,9.69Z"/><path class="cls-17" d="M13.4,9.69l.06-.87a.64.64,0,0,1,1-.08,1.91,1.91,0,0,1,.11,1.89.88.88,0,0,1-1,.21.71.71,0,0,1-.27-.21A.72.72,0,0,1,13.4,9.69Z"/><path class="cls-18" d="M57.24,9.71l.08-1.77a.63.63,0,0,1,.83-.23.52.52,0,0,1,.23.21,1.75,1.75,0,0,1,.16.93c0,.32.08.65-.17.93a.81.81,0,0,1-.91.15A.58.58,0,0,1,57.24,9.71Z"/><path class="cls-17" d="M27.72,9.69l.06-.87a.64.64,0,0,1,1-.08,1.91,1.91,0,0,1,.11,1.89.88.88,0,0,1-1,.21.71.71,0,0,1-.27-.21A.72.72,0,0,1,27.72,9.69Z"/><path class="cls-19" d="M56.4,10.6c-.29,0-.64-.07-.62-.47s.37-.4.67-.42.53,0,.79,0h.08a.7.7,0,0,1,.06,1A.68.68,0,0,1,56.4,10.6Z"/><path class="cls-20" d="M43,8.8l-.86,0V7.93a.62.62,0,0,1,.8-.24.55.55,0,0,1,.24.18.68.68,0,0,1,0,.86Z"/><path class="cls-21" d="M13.46,7.93c-.12-.72.18-1,.89-.89a.66.66,0,0,1,.06,1A.65.65,0,0,1,13.46,7.93Z"/><path class="cls-22" d="M14.28,7.9,14.35,7h.86a.64.64,0,0,1,.25.79.53.53,0,0,1-.17.25.78.78,0,0,1-.83,0A.49.49,0,0,1,14.28,7.9Z"/><path class="cls-23" d="M15.25,7.87l0-.83h.89c0,.29,0,.59,0,.89C15.79,8.19,15.5,8.23,15.25,7.87Z"/><path class="cls-21" d="M27.78,7.93c-.12-.72.18-1,.89-.89a.66.66,0,0,1,.06,1A.65.65,0,0,1,27.78,7.93Z"/><path class="cls-22" d="M28.6,7.9,28.67,7h.86a.64.64,0,0,1,.25.79.62.62,0,0,1-.17.25.78.78,0,0,1-.83,0A.39.39,0,0,1,28.6,7.9Z"/><path class="cls-23" d="M29.57,7.87l0-.83h.89c0,.29,0,.59,0,.89C30.11,8.18,29.82,8.23,29.57,7.87Z"/><path class="cls-21" d="M42.92,7.9l-.82,0c-.12-.72.18-1,.89-.89C43.24,7.35,43.28,7.64,42.92,7.9Z"/><path class="cls-22" d="M42.92,7.9,43,7h.86a.66.66,0,0,1,.22.84.58.58,0,0,1-.22.22A.64.64,0,0,1,43,7.93Z"/><path class="cls-23" d="M43.88,7.87l0-.83h.89c0,.29,0,.59,0,.89C44.43,8.19,44.14,8.23,43.88,7.87Z"/><path class="cls-21" d="M58.15,7.89l-.83.05c-.13-.72.17-1,.88-.9C58.45,7.34,58.5,7.63,58.15,7.89Z"/><path class="cls-22" d="M58.15,7.89,58.2,7h.87a.64.64,0,0,1,.21.84.56.56,0,0,1-.21.22.65.65,0,0,1-.85-.16Z"/><path class="cls-23" d="M59.09,7.87l0-.83H60c0,.3,0,.6,0,.9C59.64,8.19,59.35,8.23,59.09,7.87Z"/><path class="cls-20" d="M13.46,7.93l.82,0,.08,0a.55.55,0,0,1,.09.79l-.13.08-.86,0Z"/><path class="cls-20" d="M27.78,7.93l.82,0,.08,0a.55.55,0,0,1,.09.79l-.13.08-.86,0Z"/><path class="cls-24" d="M13.4,9.69v.9c-.27.32-.55.26-.84,0C12.46,10,12.72,9.63,13.4,9.69Z"/><path class="cls-24" d="M27.72,9.69v.9c-.27.32-.55.26-.84,0C26.78,10,27,9.63,27.72,9.69Z"/><path class="cls-24" d="M42,9.69v.9c-.27.32-.55.26-.84,0C41.1,10,41.36,9.63,42,9.69Z"/><path class="cls-25" d="M12.55,10.61l.84,0h.08a.7.7,0,0,1,.06,1,.68.68,0,0,1-1-.07Z"/><path class="cls-25" d="M26.87,10.61l.84,0h.08a.7.7,0,0,1,.06,1,.67.67,0,0,1-1-.07Z"/><path class="cls-25" d="M41.19,10.61l.84,0h.08a.7.7,0,0,1,.06,1,.67.67,0,0,1-1-.07Z"/><path class="cls-25" d="M56.4,10.6l.86,0a.63.63,0,1,1-.84.93Z"/><path class="cls-26" d="M12.56,11.51l.85,0a.53.53,0,0,1,.15.81l-.13.1h-.86Z"/><path class="cls-26" d="M26.88,11.51l.85,0c.37.2.36.5.24.84a.61.61,0,0,1-.21.24.65.65,0,0,1-.87-.16Z"/><path class="cls-26" d="M41.2,11.51l.85,0c.37.2.36.5.24.84a.61.61,0,0,1-.21.24.67.67,0,0,1-.88-.16Z"/><path class="cls-26" d="M56.42,11.51l.82,0,.13,0a.52.52,0,0,1,0,.77l-.13.08h-.85Z"/><path class="cls-27" d="M26.89,12.4l.85,0a.54.54,0,0,1,0,.89l-.85,0Z"/><path class="cls-27" d="M41.2,12.4l.86,0a.54.54,0,0,1,0,.89l-.85,0Z"/><path class="cls-28" d="M64.44,39.24q0,5.55,0,11.08,0,6.07,0,12.15c0,1.29-.4,1.7-1.75,1.82l-.13,0a3,3,0,0,0-1-.76.77.77,0,0,1-.12-.28,1.86,1.86,0,0,1,.18-1.71,1.21,1.21,0,0,0,.54-1.23c0-1.7,0-3.4,0-5.1,0-4.47,0-8.94,0-13.41,0-.59,0-1.22-.59-1.57a2,2,0,0,1-.06-1.86,1.56,1.56,0,0,1,2.49.43A3,3,0,0,0,64.44,39.24Z"/><path class="cls-29" d="M24.17,52.66V41.92c-.74-1-.44-2.17-.26-3.28,0-.24.31-.33.55-.38a.89.89,0,0,1,.71.14,1.48,1.48,0,0,1,.32,1.16c0,3.62.06,7.24,0,10.86.09,3.72,0,7.44.05,11.16,0,.47-.19,1.06.48,1.3a4.39,4.39,0,0,1,.83.31,2.64,2.64,0,0,0,3.61,0A1.51,1.51,0,0,1,31.3,63a1.69,1.69,0,0,1,.86.13c.41.29.53.84,1,1.11v.92c-.49.56-1.14.37-1.75.38a12.15,12.15,0,0,1-1.81,0,9.62,9.62,0,0,1-1.78,0c-.32,0-.64,0-1,0a1,1,0,0,1-.86-.36c.06-.65-.24-1-.89-.89s-.9-.35-.9-1c0-2.65,0-5.3,0-7.95-.12-.54-.39-1.08,0-1.61Z"/><path class="cls-30" d="M38.49,52.66V38.52c.41-.35.76-.12,1.1.12a3.16,3.16,0,0,1,.23,1.74c0,7,0,14,0,21,0,.52-.22,1.16.46,1.5a5,5,0,0,1,.84.32,2.63,2.63,0,0,0,3.62,0,1.51,1.51,0,0,1,.86-.16,1.69,1.69,0,0,1,.86.13c.41.29.53.84,1,1.11v.92c-.48.56-1.14.37-1.74.38a12.15,12.15,0,0,1-1.81,0,9.62,9.62,0,0,1-1.78,0c-.32,0-.64,0-1,0a1,1,0,0,1-.86-.36c0-.57-.16-.94-.8-.89-.82.07-1-.36-1-1.09C38.51,59.7,38.49,56.18,38.49,52.66Z"/><path class="cls-31" d="M9.85,55.88V45.5a5.28,5.28,0,0,0,0-2.11A2.14,2.14,0,0,1,10,41.13,2.92,2.92,0,0,0,10,39.9c0-.48.17-.81.7-.85.5.26.43.76.43,1.19,0,3.21.06,6.43,0,9.65.09,3.89,0,7.79,0,11.68,0,.47-.19,1,.47,1.31a4.33,4.33,0,0,1,.85.31c.24.61,1,.58,1.32,1.1a1,1,0,0,1,0,.91.63.63,0,0,1-.22.21,3.11,3.11,0,0,1-.85.16c-.31,0-.56.08-.64.43s-.12.58-.49.62-.93-.06-1.06-.59.3-.72.7-.89c.2-.09.35-.23.29-.48a.43.43,0,0,0-.47-.33c-1.2.12-1.23-.61-1.22-1.51C9.88,60.51,9.85,58.2,9.85,55.88Z"/><path class="cls-32" d="M53.7,52.3c0-4.19,0-8.38,0-12.58,0-1,.58-1.8.49-2.77,0-.11.28-.26.43-.4.66.49.33,1.19.4,1.81.1,6.82,0,13.63,0,20.45,0,1.45,0,2.91,0,4.37,0,.38.13.77-.13,1.12-1.24,0-1.25,0-1.25-1.26Q53.71,57.67,53.7,52.3Z"/><path class="cls-33" d="M20.6,43.17v11.1c0,2.9,0,5.81,0,8.71,0,.24,0,.48,0,.71s-.07.49-.37.54a.39.39,0,0,1-.47-.31c-.13-.49-.5-.53-.9-.51l-.16-.09a1.6,1.6,0,0,1,0-1.82c.6-.35.55-.94.55-1.5,0-3.63,0-7.26,0-10.89q0-3.09,0-6.16a8.75,8.75,0,0,1,.24-2c.17-.73.43-.86,1.22-.68A2.81,2.81,0,0,1,20.6,43.17Z"/><path class="cls-33" d="M49.21,40.32l0,11.08c0,3.86,0,7.72,0,11.58,0,.24,0,.47,0,.71s-.07.48-.37.53a.38.38,0,0,1-.47-.3c-.13-.49-.5-.53-.91-.51l-.15-.09a1.56,1.56,0,0,1,0-1.81c.6-.35.55-.95.55-1.51,0-3.63,0-7.27,0-10.9q0-3.14,0-6.26a7.7,7.7,0,0,1,.27-2C48.3,40.28,48.62,40,49.21,40.32Z"/><path class="cls-34" d="M34.89,40.32l0,13q0,4.77,0,9.52c0,.27,0,.54,0,.8s-.07.48-.37.54a.39.39,0,0,1-.47-.31c-.13-.49-.5-.53-.91-.51L33,63.32a1.58,1.58,0,0,1,0-1.8c.63-.36.56-1,.56-1.58,0-4,0-8,0-12,0-1.81.23-3.62,0-5.43A3.73,3.73,0,0,1,34,40.75C34.15,40.34,34.43,40.13,34.89,40.32Z"/><path class="cls-35" d="M55,64.3l-.18-.9a.68.68,0,0,1,.69-.34,1.44,1.44,0,0,1,.89.13,2.65,2.65,0,0,0,3.62,0,1.46,1.46,0,0,1,.87-.15,1,1,0,0,1,.88.28l0,.09c.3.28.6.58.89.87h0c0,.3,0,.59,0,.89-.17.39-.53.37-.87.38a12.27,12.27,0,0,1-1.82,0,16.25,16.25,0,0,1-2.61,0c-.33,0-.66,0-1,0a1,1,0,0,1-.88-.36C55.49,64.79,55.53,64.36,55,64.3Z"/><path class="cls-36" d="M13.61,65.16v-.82c.22-.61.76-.44,1.2-.48s1-.06,1.24-.61a1.38,1.38,0,0,1,.86-.21,2,2,0,0,1,.87.1.8.8,0,0,1,.25.11,2.88,2.88,0,0,0,.77,1v.92c-.49.56-1.15.37-1.77.38a14.43,14.43,0,0,1-1.86,0C14.64,65.52,14,65.82,13.61,65.16Z"/><path class="cls-37" d="M57.29,65.21H60A1.14,1.14,0,0,1,60,67H57.29A1.15,1.15,0,0,1,57.29,65.21Z"/><path class="cls-38" d="M27.76,65.22h1.77c.25.21.49.43.76.62.44.31.56.68.14,1.11H27.76A1.15,1.15,0,0,1,27.76,65.22Z"/><path class="cls-38" d="M13.61,65.16l1.6,0a9.06,9.06,0,0,0,.76.63c.44.31.56.68.14,1.11H13.44a1.15,1.15,0,0,1,0-1.74Z"/><path class="cls-38" d="M42.08,65.22h1.77c.25.21.49.43.75.62.45.31.56.68.15,1.11H42.08A1.15,1.15,0,0,1,42.08,65.22Z"/><path class="cls-39" d="M31.32,65.21h1.81c0,1.82,0,1.82-1.8,1.77A1.17,1.17,0,0,1,31.32,65.21Z"/><path class="cls-39" d="M45.64,65.21h1.8c0,1.82,0,1.82-1.79,1.77A1.17,1.17,0,0,1,45.64,65.21Z"/><path class="cls-40" d="M60,67V65.22l1.8,0a1.16,1.16,0,0,1,0,1.77Z"/><path class="cls-39" d="M17,65.21h1.81v.09C18.8,67,18.8,67,17,67A1.17,1.17,0,0,1,17,65.21Z"/><path class="cls-28" d="M61.76,67c0-.59,0-1.18,0-1.77l.9,0c.63,0,.93.28.89.93a.82.82,0,0,1-1,.87Z"/><path class="cls-41" d="M45.64,65.21c0,.59,0,1.17,0,1.76l-.9,0c0-.31-.07-.59-.39-.72s-.5-.6-.51-1Z"/><path class="cls-41" d="M31.32,65.21c0,.59,0,1.17,0,1.76l-.9,0a.68.68,0,0,0-.39-.72c-.46-.2-.5-.6-.51-1Z"/><path class="cls-41" d="M17,65.21c0,.59,0,1.17,0,1.76l-.9,0a.68.68,0,0,0-.39-.72c-.46-.2-.5-.6-.51-1Z"/><path class="cls-42" d="M26,65.19l.91,0a1.18,1.18,0,0,1,0,1.76c-.7.09-1-.24-.91-.91C26,65.77,26,65.48,26,65.19Z"/><path class="cls-43" d="M26.86,67V65.21h.89V67Z"/><path class="cls-42" d="M40.28,65.19l.91,0a1.18,1.18,0,0,1,0,1.76c-.7.09-1-.24-.91-.91C40.29,65.77,40.28,65.48,40.28,65.19Z"/><path class="cls-43" d="M41.18,67V65.21h.89V67Z"/><path class="cls-44" d="M55.49,65.19l.91,0a1.17,1.17,0,0,1,0,1.76c-.71.1-1-.25-.91-.9C55.51,65.78,55.49,65.48,55.49,65.19Z"/><path class="cls-43" d="M56.4,67V65.21h.89V67Z"/><path class="cls-42" d="M11.6,66.62c.13-.6-.28-1.56,1-1.41a1.18,1.18,0,0,1,0,1.76C12.18,67,11.81,67,11.6,66.62Z"/><path class="cls-43" d="M12.54,67c0-.59,0-1.17,0-1.76h.89V67Z"/><path class="cls-45" d="M47.44,64.28c-.69.1-1-.23-.91-.9l.09-.12a.6.6,0,0,1,.83.13v0C47.46,63.7,47.45,64,47.44,64.28Z"/><path class="cls-45" d="M33.12,64.28c-.69.1-1-.23-.91-.9l.09-.12a.6.6,0,0,1,.83.13v0C33.14,63.7,33.13,64,33.12,64.28Z"/><path class="cls-45" d="M18.8,64.28c-.65.08-1-.17-.88-.85.28-.35.58-.28.89,0l0,0Z"/><path class="cls-46" d="M24.17,53.74v1.61C24.08,54.81,23,54.27,24.17,53.74Z"/><path class="cls-47" d="M11.64,27.6h-.88c0-1.56,0-3.12,0-4.68,0-.62.33-.84.87-.89l.15.08a.62.62,0,0,1,.24.47A31.33,31.33,0,0,1,12,27a.94.94,0,0,1-.23.48Z"/><path class="cls-47" d="M11.63,22a16.68,16.68,0,0,0-.16-2.72,5.58,5.58,0,0,1,.23-2.08c.08-.42.48-.36.8-.37l.07,0a1.32,1.32,0,0,1,.39,1,25.13,25.13,0,0,1-.07,3.36,1,1,0,0,1-.15.66.84.84,0,0,1-1.09.14Z"/><path class="cls-48" d="M64.44,39.24c-.24,0-.56,0-.65-.18-.45-1-1.3-.68-2-.71a.66.66,0,0,1-1,.07,3.8,3.8,0,0,1-.27-2.59.79.79,0,0,1,1-.51c.74.2.8-.18.78-.73,0-.29,0-.59,0-.89-.1-1.7-.05-3.39,0-5.09a1.62,1.62,0,0,1,.34-1.08.67.67,0,0,1,1,.08v4.47c-.76.84-.1,1.68,0,2.52a1,1,0,0,1,0,1.59A2.25,2.25,0,0,0,64.09,38,1.57,1.57,0,0,1,64.44,39.24Z"/><path class="cls-49" d="M63.55,27.61h-.87l-.15-.08a1.67,1.67,0,0,1-.3-1.26c0-1.65,0-3.3,0-4.94a18.92,18.92,0,0,1,0-2.13c0-.35,0-.72.42-.91.82.06.89.64.89,1.28Z"/><path class="cls-50" d="M62.66,18.29v3.06a.74.74,0,0,1-.89.19c-.59-.38-.39-1-.43-1.53s0-1-.59-1.28a.86.86,0,0,1-.09-.91.54.54,0,0,1,.21-.24.68.68,0,0,1,.9.18h.89Z"/><path class="cls-51" d="M10.76,38.35h.84l.15.08a1.57,1.57,0,0,1,.32,1.25c0,1.23,0,2.47,0,3.71.07,1.81,0,3.62,0,5.43a1.67,1.67,0,0,1-.3,1.26.72.72,0,0,1-1-.1q0-5.46,0-10.92l0-.18A.36.36,0,0,1,10.76,38.35Z"/><path class="cls-52" d="M48.34,32.79a38.86,38.86,0,0,1-.1,3.89,2.17,2.17,0,0,0,.58,1.44c.17.24.41.44.4.76a.56.56,0,0,1-.64.14,7.24,7.24,0,0,0-2.16-.31,1.19,1.19,0,0,1-.9-.31,4.19,4.19,0,0,1-.22-2.57.83.83,0,0,1,1.07-.5c.7.17.71-.23.7-.71,0-.28,0-.57,0-.85a11.5,11.5,0,0,1,0-1.76c-.08-1.48-.06-3,0-4.44a22.8,22.8,0,0,1,0-2.48c0-.35,0-.73.43-.9.55,0,.75.14.63.8a3.88,3.88,0,0,0,.58,2.7c.13.21.31.39.08.61a1.92,1.92,0,0,0-.31,2.3,1.4,1.4,0,0,1-.09,2.1S48.34,32.76,48.34,32.79Z"/><path class="cls-53" d="M54.78,33.85l-.18-1.77c-.05-.71.21-1.49-.66-2-.34-.2-.09-.49.19-.69a2.09,2.09,0,0,0,0-2.73c-.32-.23-.54-.45-.15-.75s.6-.31.58-.71a5.26,5.26,0,0,0-.15-2.2c-.07-.16-.29-.32-.18-.48.63-1,.27-2,.35-3.05,0-.59.3-.87.89-.85.5.25.4.74.43,1.17a12.68,12.68,0,0,1,0,1.51c.06,2.08.06,4.17,0,6.25.05,1.49.06,3,0,4.48,0,.64.15,1.3-.31,1.86A.55.55,0,0,1,54.78,33.85Z"/><path class="cls-54" d="M46.53,16.87h.73A11.18,11.18,0,0,1,47.44,20c0,.62,0,1.24,0,1.86a.74.74,0,0,1-.9.2c-.66-.52-.36-1.26-.43-1.91s0-1.1-.55-1.39a.86.86,0,0,1-.19-.85,1.19,1.19,0,0,1,.11-.26A3.9,3.9,0,0,0,46.53,16.87Z"/><path class="cls-55" d="M46.56,21.88h.88c0,.77,0,1.54,0,2.31l0,3.43a.69.69,0,0,1-1,.06,1.57,1.57,0,0,1-.29-.83c-.06-1.38-.06-2.77,0-4.15C46.16,22.37,46.2,22,46.56,21.88Z"/><path class="cls-56" d="M55.51,21.34c0-.89,0-1.79,0-2.69,0-.29,0-.59,0-.88a.55.55,0,0,1,.85,0l.06,3.57-.09.12A.57.57,0,0,1,55.51,21.34Z"/><path class="cls-53" d="M56.36,17.77h-.85c-.08-.64.17-1,.85-.9Z"/><path class="cls-52" d="M19.7,31c.3.55,0,1.11,0,1.66a32.86,32.86,0,0,1-.1,4.09c-.08.46.26.83.51,1.2s.48.54.47.93a.55.55,0,0,1-.64.14,7.47,7.47,0,0,0-2.16-.31,1.19,1.19,0,0,1-.9-.31,4.19,4.19,0,0,1-.22-2.57.83.83,0,0,1,1.07-.5c.7.17.72-.23.71-.71,0-.28,0-.57,0-.85a11.49,11.49,0,0,1,0-1.76c-.08-1.48-.06-2.95,0-4.43a10.73,10.73,0,0,1,0-1.5c0-.33.05-.66.42-.82.64,1.09,1.32,2.12.95,3.53A10.12,10.12,0,0,0,19.7,31Z"/><path class="cls-57" d="M26,27.61h-.88c0-2.67,0-5.33,0-8,0-.65.14-1.12.9-1.15.55.32.39.87.43,1.35a11,11,0,0,1,0,1.15c.06,1.76,0,3.52,0,5.27a1.75,1.75,0,0,1-.29,1.28Z"/><path class="cls-54" d="M17.89,16.87h.73A11.18,11.18,0,0,1,18.8,20c0,.62,0,1.24,0,1.86a.74.74,0,0,1-.9.2c-.66-.52-.36-1.26-.43-1.91s.06-1.1-.55-1.39a.86.86,0,0,1-.19-.85,1.19,1.19,0,0,1,.11-.26A3.9,3.9,0,0,0,17.89,16.87Z"/><path class="cls-55" d="M17.92,21.88h.88c0,1.13,0,2.26,0,3.38l0,2.36a.69.69,0,0,1-1,.06,1.48,1.48,0,0,1-.28-.83c-.07-1.38-.07-2.77,0-4.15C17.52,22.37,17.57,22,17.92,21.88Z"/><path class="cls-58" d="M26.88,16.87l.81,0A.5.5,0,0,1,28,17c.22.27.15.6.18.91,0,.9.28,1.83-.33,2.65a.92.92,0,0,1-1.05,0,2.68,2.68,0,0,1,.07-2.81Z"/><path class="cls-59" d="M26.82,17.76l.07,2.67a.51.51,0,0,1,0,.63A.61.61,0,0,1,26,21c0-.84,0-1.68,0-2.52C25.94,17.85,26.31,17.72,26.82,17.76Z"/><path class="cls-60" d="M34,23.66V27.6c-.22.5-.57.53-1,.27a.67.67,0,0,1-.16-.3,29,29,0,0,1-.17-5.1c0-.26,0-.53,0-.79,0-.92-.06-1.83,0-2.75,0-.37,0-.79.43-1a.75.75,0,0,1,.78.61A8.67,8.67,0,0,1,34.15,21C34,21.9,34.07,22.78,34,23.66Z"/><path class="cls-61" d="M41.21,16.15l.83,0a.61.61,0,0,1,.38.65c0,.3,0,.61,0,.92a10,10,0,0,1,.07,1.22,1.59,1.59,0,0,0,.68,1.58,3.59,3.59,0,0,1,0,2.46.79.79,0,0,1-1.23,0c-.32-.34-.71-.58-1-.91a16.17,16.17,0,0,1-.12-4.66c0-.22.2-.35.33-.51Z"/><path class="cls-62" d="M41.15,16.86l.05,5.19a.26.26,0,0,1,0,.29.7.7,0,0,1-.9.07.56.56,0,0,1-.21-.25,2.53,2.53,0,0,1-.13-1.39,1.87,1.87,0,0,0,0-.94,1.21,1.21,0,0,1,.14-1.31c.24-.33,0-.76.22-1.12C40.34,16.85,40.75,16.87,41.15,16.86Z"/><path class="cls-62" d="M39.4,27.61a11.44,11.44,0,0,1,.23-3.5,1.08,1.08,0,0,0-.24-1v-.9a.59.59,0,0,1,.88,0l0,0a.93.93,0,0,1,.36.59,24.3,24.3,0,0,1,0,4.35,1,1,0,0,1-.23.48A.68.68,0,0,1,39.4,27.61Z"/><path class="cls-63" d="M33.13,17.93l0,3.77a.73.73,0,0,1-.89.2c-.63-.48-.37-1.18-.43-1.79s0-1.08-.57-1.37a.84.84,0,0,1-.11-.91.64.64,0,0,1,.21-.25.7.7,0,0,1,.91.18h.89A.86.86,0,0,0,33.13,17.93Z"/><path class="cls-64" d="M40.27,22.22h-.88c-.11-1,.3-2,.06-3.06-.15-.65.78-1.06.83-1.77C40.28,19,40.27,20.61,40.27,22.22Z"/><path class="cls-65" d="M32.23,17.76h-.9a.54.54,0,0,1,0-.86l.07-.06C32.05,16.78,32.33,17.09,32.23,17.76Z"/><path class="cls-65" d="M61.76,17.76h-.89a.54.54,0,0,1,0-.86l.06-.07C61.57,16.78,61.87,17.09,61.76,17.76Z"/><path class="cls-65" d="M17.89,16.87c.11.7-.21,1-.88.89a.55.55,0,0,1,0-.87l.07-.06Z"/><path class="cls-65" d="M46.53,16.87c.11.7-.21,1-.88.89a.55.55,0,0,1,0-.87l.07-.07Z"/><path class="cls-66" d="M59.94,9.73v4.44a.69.69,0,0,1-1,.12c-.45-.51-.25-1.14-.28-1.72,0-1-.3-2,.27-3A.69.69,0,0,1,59.94,9.73Z"/><path class="cls-67" d="M59.09,14.18h.85L60,16.84l-.1.15a.69.69,0,0,1-1,0,2.88,2.88,0,0,1-.23-1.87C58.72,14.73,58.69,14.37,59.09,14.18Z"/><path class="cls-68" d="M59.94,9.73l-.84,0c-.4-.17-.38-.51-.37-.85A.85.85,0,0,1,59.06,8l0-.09.85.07L60,9.14Z"/><path class="cls-69" d="M60.84,16.89l0,.86,0,0a.66.66,0,0,1-1,.07.67.67,0,0,1,0-1l.09,0Z"/><path class="cls-70" d="M16.09,10.61v3.56a.7.7,0,0,1-1,.13c-.45-.52-.25-1.14-.29-1.73s-.2-1.44.28-2.08A.69.69,0,0,1,16.09,10.61Z"/><path class="cls-71" d="M15.23,14.18h.86l.07,2.67-.1.15a.69.69,0,0,1-1,0,2.94,2.94,0,0,1-.24-1.87C14.87,14.74,14.83,14.37,15.23,14.18Z"/><path class="cls-72" d="M16.09,10.61l-.83,0c-.69-.55-.46-1.18-.16-1.82a.65.65,0,0,1,1,.06l.06.87Z"/><path class="cls-69" d="M17,16.89l0,.87h0a.67.67,0,0,1-1,.1.68.68,0,0,1,0-1l.09,0Z"/><path class="cls-73" d="M30.41,10.61v3.56a.7.7,0,0,1-1,.13c-.45-.52-.25-1.14-.29-1.73s-.2-1.44.28-2.08A.69.69,0,0,1,30.41,10.61Z"/><path class="cls-71" d="M29.55,14.18h.86l.06,2.67-.09.15a.69.69,0,0,1-1,0,2.87,2.87,0,0,1-.24-1.87C29.19,14.74,29.15,14.37,29.55,14.18Z"/><path class="cls-72" d="M30.41,10.61l-.83,0c-.69-.55-.46-1.18-.16-1.82a.65.65,0,0,1,1,.06l.06.87Z"/><path class="cls-69" d="M31.3,16.89l0,.86v0a.65.65,0,0,1-.95.07.66.66,0,0,1,0-1l.08,0Z"/><path class="cls-73" d="M44.73,10.61v3.56a.71.71,0,0,1-1,.13,2.3,2.3,0,0,1-.32-1.56c.18-.74-.24-1.56.32-2.25A.69.69,0,0,1,44.73,10.61Z"/><path class="cls-71" d="M43.87,14.18h.86l.06,2.67L44.7,17a.69.69,0,0,1-1,0c-.44-.64-.2-1.35-.22-2A.66.66,0,0,1,43.87,14.18Z"/><path class="cls-72" d="M44.73,10.61l-.83,0c-.7-.55-.46-1.18-.16-1.82a.65.65,0,0,1,1,.06l.06.87Z"/><path class="cls-69" d="M45.62,16.89l0,.87h0a.65.65,0,1,1-.94-.87.2.2,0,0,0,.08,0Z"/><path class="cls-74" d="M59.09,14.18l0,.87a1.56,1.56,0,0,0-.44,1,1.25,1.25,0,0,1-.46,1,.67.67,0,0,1-.85-.19c0-.61,0-1.21,0-1.82,0-.89,0-1.78,0-2.66h0a.7.7,0,0,1,.82-.3,1.17,1.17,0,0,1,.93.45Z"/><path class="cls-75" d="M56.42,21.34h.85c.41.19.37.56.39.92,0,.65.22,1.34-.29,1.91a1,1,0,0,1-1.08,0,2.7,2.7,0,0,1,.06-2.83Z"/><path class="cls-76" d="M57.29,20.44V17.78a.68.68,0,0,1,.86-.23.61.61,0,0,1,.23.22,2,2,0,0,1,.18,1,2.33,2.33,0,0,1-.31,1.8A.67.67,0,0,1,57.29,20.44Z"/><path class="cls-77" d="M57.29,20.44h.84l.16.08a1.53,1.53,0,0,1,0,1.84.74.74,0,0,1-1-.11l0-.91C57.28,21,57.28,20.74,57.29,20.44Z"/><path class="cls-78" d="M58.17,17.72l-.88.06v-.91l.89,0,.12.09A.5.5,0,0,1,58.17,17.72Z"/><path class="cls-74" d="M29.55,14.18l0,.87a1.55,1.55,0,0,0-.43,1,1.25,1.25,0,0,1-.46,1,.68.68,0,0,1-.85-.19l-.08,0c0-1.19,0-2.38,0-3.58v-.89l0,0a.72.72,0,0,1,.82-.3,1.15,1.15,0,0,1,.93.45Z"/><path class="cls-79" d="M43.87,14.18l0,.7a2,2,0,0,0-.46,1.19,1.2,1.2,0,0,1-.46,1,.67.67,0,0,1-.84-.19c0-.24,0-.49-.05-.74,0-.95,0-1.9,0-2.86v-.89l0,0a.69.69,0,0,1,.8-.3,1.08,1.08,0,0,1,1,.63Z"/><path class="cls-80" d="M30.41,8.82h-.87l-.12-.08a.55.55,0,0,1,.1-.79l.05-.07.84.07Z"/><path class="cls-80" d="M16.09,8.82h-.87l-.12-.08a.55.55,0,0,1,.1-.79l.05-.07.84.07Z"/><path class="cls-80" d="M44.73,8.82h-.87l-.12-.08a.55.55,0,0,1,.1-.79l0-.07.85.07Z"/><path class="cls-74" d="M15.23,14.18l0,.87c-.58.48-.32,1.26-.65,1.83a.54.54,0,0,1-.18.19.77.77,0,0,1-.8,0,.37.37,0,0,1-.18-.21c0-.84,0-1.68,0-2.52l0-1.95h0a.72.72,0,0,1,.82-.3,1.15,1.15,0,0,1,.93.45Z"/><path class="cls-81" d="M12.56,21.33V16.85h.88a.91.91,0,0,1,.34.81A11.51,11.51,0,0,1,13.87,19a1.49,1.49,0,0,0,.67,1.5,2.18,2.18,0,0,1,0,1.75c-.84.5-1.08.45-1.58-.33A4.81,4.81,0,0,0,12.56,21.33Z"/><path class="cls-82" d="M43.84,12.73a1.93,1.93,0,0,1-.89-.36,1.24,1.24,0,0,1,0-1.79L43,8.8l0,0a.56.56,0,0,1,.86,0h0c0,.59,0,1.18,0,1.77Z"/><path class="cls-83" d="M42.94,10.58c0,.59,0,1.19,0,1.79l-.86,0,0-.92.06-.88Z"/><path class="cls-84" d="M15.2,12.55a1.23,1.23,0,0,1-.88-.18,1.23,1.23,0,0,1,0-1.79l0-1.78,0,0a.56.56,0,0,1,.86,0h0c0,.59,0,1.18,0,1.77Z"/><path class="cls-83" d="M14.3,10.58c0,.6,0,1.19,0,1.79l-.87,0,0-.92.06-.88Z"/><path class="cls-84" d="M59.06,12.55a1.35,1.35,0,0,1-.88-.16,1,1,0,0,1-.37-.92c0-.62-.19-1.27.35-1.78l.05-.86a.52.52,0,0,1,.84,0l.05.86C59.09,10.64,59.07,11.6,59.06,12.55Z"/><path class="cls-85" d="M58.16,9.69v1.78a.52.52,0,0,1-.83,0h-.08l0-.91.06-.88Z"/><path class="cls-86" d="M59.05,8.83h-.84V7.94l.84,0Z"/><path class="cls-84" d="M29.52,12.55a1.23,1.23,0,0,1-.88-.18,1.23,1.23,0,0,1,0-1.79l0-1.78,0,0a.55.55,0,0,1,.85,0h0c0,.59,0,1.18,0,1.77Z"/><path class="cls-83" d="M28.62,10.58c0,.6,0,1.19,0,1.79l-.87,0,0-.92.06-.88Z"/><path class="cls-86" d="M43.85,8.82H43V7.93h.84Z"/><path class="cls-86" d="M15.21,8.82h-.86V7.93h.84Z"/><path class="cls-86" d="M29.52,8.82h-.85V7.93h.84Z"/><path class="cls-87" d="M57.32,11.5l.83,0,0,.92h-.87Z"/><path class="cls-88" d="M46.52,38.36a3.77,3.77,0,0,1,2.7.52c0,.48,0,1,0,1.43-.48,0-.62.38-.69.8a14,14,0,0,0-.19,2c0,5.78,0,11.57,0,17.36,0,.62,0,1.16-.87,1.1l-.15-.08A2.42,2.42,0,0,1,47,59.82c0-6,0-12,0-18,0-.62.09-1.28-.58-1.67A1.48,1.48,0,0,1,46.52,38.36Z"/><path class="cls-89" d="M54.78,33.85h.7l.15.09a6.81,6.81,0,0,1,0,4.48.67.67,0,0,1-1,0l0-1.81A8.75,8.75,0,0,1,54.78,33.85Z"/><path class="cls-90" d="M34.89,40.32a2.1,2.1,0,0,0-.82,2.14A28.48,28.48,0,0,1,34,46.38c0,4.71,0,9.42,0,14.14,0,.62,0,1.16-.87,1.1L33,61.54a2.43,2.43,0,0,1-.31-1.72c0-6,0-12,0-18,0-.62.06-1.27-.6-1.66a2,2,0,0,1,0-2,2.36,2.36,0,0,1,2.64.11A4.74,4.74,0,0,1,34.89,40.32Z"/><path class="cls-91" d="M34.73,38.34H32.21a.66.66,0,0,1-1,.07A3.8,3.8,0,0,1,31,35.83a.79.79,0,0,1,1-.51c.74.2.8-.19.77-.73,0-.3,0-.6,0-.9-.1-1.61,0-3.23,0-4.85,0-.4,0-.85.45-1.06L34,27.6c.39.27.19.58.14.94-.13,1-.54,2,.37,2.82.21.2.1.41-.07.62a2.09,2.09,0,0,0-.1,2.87c.18.26.26.45,0,.69a1.45,1.45,0,0,0-.17,1.73C34.42,37.61,34.75,37.89,34.73,38.34Z"/><path class="cls-92" d="M61.75,40.12c.71-.08.92.24.92.93q0,9.83,0,19.63c0,.68-.19,1-.91.93l-.15-.1a1.78,1.78,0,0,1-.28-1.27q0-9.37,0-18.74a1.87,1.87,0,0,1,.28-1.28Z"/><path class="cls-93" d="M61.73,63.33l-.88,0a.93.93,0,0,1-.34-.91,1.17,1.17,0,0,1,.3-1,.69.69,0,0,1,1,.1h0Z"/><path class="cls-94" d="M60.9,38.32l.84,0c0,.59,0,1.18,0,1.77v0a.71.71,0,0,1-.94.13,1.56,1.56,0,0,1-.18-1.74A.49.49,0,0,1,60.9,38.32Z"/><path class="cls-45" d="M62.65,64.29c-.64.06-1-.19-.89-.87C62.49,63.28,62.74,63.61,62.65,64.29Z"/><path class="cls-95" d="M26,63.39c-.81.1-.92-.38-.92-1,0-4,0-7.9,0-11.84a.72.72,0,0,1,1-.12c.32.28.25.66.27,1,.11,1.79.07,3.59,0,5.39s0,3.53,0,5.3A1.45,1.45,0,0,1,26,63.39Z"/><path class="cls-96" d="M25.94,50.52h-.86q0-6,0-12s0-.08,0-.11,0,0,0,0h.84l.15.07c.3.25.25.6.27.94.12,1.82.07,3.65,0,5.47.07,1.51.06,3,0,4.53C26.38,49.78,26.46,50.27,25.94,50.52Z"/><path class="cls-97" d="M26,63.39V56.77a.72.72,0,0,1,1-.11,1.12,1.12,0,0,1,.29.89c0,1.59.08,3.17,0,4.76a1.83,1.83,0,0,1-.17.95.5.5,0,0,1-.24.19Z"/><path class="cls-98" d="M30.45,63.44c0,.6-.22.87-.84.84s-1.25,0-1.88,0-1-.18-.9-.86l.05-.09a4.21,4.21,0,0,1,3.37-.18A.52.52,0,0,1,30.45,63.44Z"/><path class="cls-93" d="M32.21,63.38h-.89a.88.88,0,0,1-.34-.88,1.32,1.32,0,0,1,.24-1,.82.82,0,0,1,1-.12.56.56,0,0,1,.25.23c.22.62.39,1.23-.23,1.73Z"/><path class="cls-99" d="M31.31,62.49v.88l-.87.07a.29.29,0,0,1,0-.09.61.61,0,0,1-.06-.93A.64.64,0,0,1,31.31,62.49Z"/><path class="cls-100" d="M39.37,38.69l0-.35a.68.68,0,0,1,1-.07,1.94,1.94,0,0,1,.34,1.34c0,1.66,0,3.32,0,5,.05,1.8.06,3.59,0,5.39q.08,2.34,0,4.68c.07,2.5,0,5,0,7.51a1.42,1.42,0,0,1-.4,1.22c-1,.12-.93-.57-.93-1.21V39.67C39.38,39.35,39.37,39,39.37,38.69Z"/><path class="cls-101" d="M40.31,63.38V54.62a.72.72,0,0,1,1-.1c.47.57.24,1.24.28,1.88.07,2,.06,4,0,5.92a1.79,1.79,0,0,1-.16.94.42.42,0,0,1-.24.19Z"/><path class="cls-102" d="M44.76,63.44c.05.6-.21.87-.83.84s-1.25,0-1.88,0-1-.17-.9-.86a.93.93,0,0,0,.05-.1,4.25,4.25,0,0,1,3.37-.17A.46.46,0,0,1,44.76,63.44Z"/><path class="cls-93" d="M46.53,63.38h-.9a.9.9,0,0,1-.33-.88,1.32,1.32,0,0,1,.24-1,.82.82,0,0,1,1-.12.56.56,0,0,1,.25.23c.22.62.39,1.23-.23,1.73Z"/><path class="cls-99" d="M45.63,62.49v.88l-.87.07s0-.06,0-.09a.61.61,0,0,1-.06-.93A.64.64,0,0,1,45.63,62.49Z"/><path class="cls-103" d="M10.76,50h.86a.56.56,0,0,1,.24.24,2.57,2.57,0,0,1,.22,1.22c0,1.79,0,3.57,0,5.36s0,3.52,0,5.27a1.5,1.5,0,0,1-.41,1.32c-.71.08-.92-.29-.92-1Q10.77,56.2,10.76,50Z"/><path class="cls-104" d="M11.66,63.39V56.77a.72.72,0,0,1,1-.11,1.12,1.12,0,0,1,.29.89c0,1.59.08,3.17,0,4.76a1.74,1.74,0,0,1-.17.95.5.5,0,0,1-.24.19Z"/><path class="cls-105" d="M16.13,63.44c0,.6-.21.87-.83.85s-1.12,0-1.69,0-1.2,0-1.1-.89l.05-.09a4.21,4.21,0,0,1,3.37-.18A.52.52,0,0,1,16.13,63.44Z"/><path class="cls-106" d="M54.62,38.36l.83,0,.16.08a1.64,1.64,0,0,1,.32,1.26c0,3,0,5.91,0,8.86q.09,3.85,0,7.71c.07,1.94,0,3.89,0,5.84a1.5,1.5,0,0,1-.42,1.3h-.73a1.89,1.89,0,0,1-.18-1Q54.6,50.36,54.62,38.36Z"/><path class="cls-88" d="M17.88,38.36a3.77,3.77,0,0,1,2.7.52v1.43c-.49,0-.63.38-.69.8a14,14,0,0,0-.2,2c0,5.78,0,11.57,0,17.36,0,.62,0,1.16-.87,1.1l-.15-.08a2.42,2.42,0,0,1-.31-1.72c0-6,0-12,0-18,0-.62.09-1.28-.58-1.67A1.49,1.49,0,0,1,17.88,38.36Z"/><path class="cls-107" d="M18.81,63.39l-.89,0,0-.08a1.38,1.38,0,0,1-.08-1.81.66.66,0,0,1,1,.05l.06,0C18.82,62.21,18.82,62.8,18.81,63.39Z"/><path class="cls-107" d="M46.52,63.37l0-1.76a.53.53,0,0,1,.86,0l.06,0c0,.59,0,1.18,0,1.77Z"/><path class="cls-107" d="M32.2,63.37l0-1.76a.53.53,0,0,1,.86,0l.06,0c0,.59,0,1.18,0,1.77Z"/><path class="cls-104" d="M55.51,63.39c0-2.39,0-4.78,0-7.16a.72.72,0,0,1,1-.1,1.15,1.15,0,0,1,.29.9c0,1.76.08,3.52,0,5.28a1.82,1.82,0,0,1-.16.95.47.47,0,0,1-.25.19Z"/><path class="cls-98" d="M60,63.44c0,.6-.22.87-.84.84s-1.25,0-1.87,0-1-.18-.91-.86a.41.41,0,0,0,0-.09,4.21,4.21,0,0,1,3.37-.18A.47.47,0,0,1,60,63.44Z"/><path class="cls-99" d="M60.85,62.49v.88l-.87.07s0-.06,0-.09a.61.61,0,0,1-.06-.93A.65.65,0,0,1,60.85,62.49Z"/><path class="cls-93" d="M17.91,61.61l0,1.74-.88,0a.87.87,0,0,1-.34-.87,1.33,1.33,0,0,1,.23-1,.67.67,0,0,1,.92-.08Z"/><path class="cls-99" d="M17,62.49v.88l-.87.07a.29.29,0,0,1,0-.09.61.61,0,0,1-.06-.93A.64.64,0,0,1,17,62.49Z"/><path class="cls-108" d="M11.6,38.34l.06-4.45a.66.66,0,0,1,1-.09,7.14,7.14,0,0,1,0,4.59.66.66,0,0,1-1,0Z"/><path class="cls-109" d="M11.66,32.06l0-4.46h0a.67.67,0,0,1,1-.1,1.36,1.36,0,0,1,.3,1,17.89,17.89,0,0,1,0,2.74,1.48,1.48,0,0,1-.32.9A.66.66,0,0,1,11.66,32.06Z"/><path class="cls-96" d="M11.66,32.06l.87,0,.13.07a.91.91,0,0,1,.23.82,1,1,0,0,1-.21.83l-.13.08h-.89Z"/><path class="cls-110" d="M12.53,27.6h-.88V22.06l.86-.19c.65.38.36,1,.39,1.56a10.17,10.17,0,0,1,0,1.83c-.05.75.3,1.55-.23,2.25Z"/><path class="cls-111" d="M12.57,23.48l-.06-1.61.05-.54a.85.85,0,0,1,.87.45.79.79,0,0,0,.87.44c.68.52.43,1.17.27,1.81C13.62,24.61,13.43,24.56,12.57,23.48Z"/><path class="cls-112" d="M62.68,27.61l0,6.28a1.44,1.44,0,0,1-1.67.22A5.45,5.45,0,0,0,59.73,33a.86.86,0,0,1,0-.89,1.46,1.46,0,0,0,.66-1.42,2.3,2.3,0,0,1,.24-1.29c.8-.37.56-1.25.92-1.85a.55.55,0,0,1,.23-.17.71.71,0,0,1,.84.22Z"/><path class="cls-113" d="M60.89,35.68v2.64l-.07,0a.67.67,0,0,1-1,0,5.08,5.08,0,0,1-.06-3.64.75.75,0,0,1,1-.24.58.58,0,0,1,.28.21A.73.73,0,0,1,60.89,35.68Z"/><path class="cls-114" d="M60.89,35.68v-.87c.6-.57,1-.58,1.74-.06,0,.42,0,.83,0,1.24,0,.25-.09.48-.39.51a.4.4,0,0,1-.45-.34C61.67,35.65,61.29,35.65,60.89,35.68Z"/><path class="cls-115" d="M62.64,34.75l-1.74.06,0-.06a.56.56,0,0,1-.2-.75.43.43,0,0,1,.21-.19l1.76.08C62.64,34.18,62.64,34.46,62.64,34.75Z"/><path class="cls-116" d="M62.66,27.59l-.93,0a1.08,1.08,0,0,1-.39-.95c0-1.45,0-2.9,0-4.35,0-.35,0-.73.42-.91h.88Q62.65,24.47,62.66,27.59Z"/><path class="cls-117" d="M61.77,21.34q0,3.11,0,6.21l0,.05a.68.68,0,0,1-1,.08,1.7,1.7,0,0,1-.34-1.17c0-2.25,0-4.51,0-6.76a1.45,1.45,0,0,1,.28-1l.15-.1c.7-.06.93.29.89.94S61.76,20.76,61.77,21.34Z"/><path class="cls-118" d="M60,17.74l.88,0c0,.29,0,.59,0,.88v0a.7.7,0,0,1-.94.11.68.68,0,0,1-.09-.94Z"/><path class="cls-119" d="M11.67,50.15a.84.84,0,0,0-.05-.17q0-3.31.05-6.63a.71.71,0,0,1,1-.1A1.53,1.53,0,0,1,13,44.42c0,1.19,0,2.38,0,3.57,0,.76.23,1.56-.27,2.27A.71.71,0,0,1,11.67,50.15Z"/><path class="cls-120" d="M12.51,43.36h-.84v-5l.82,0,.16.09a.91.91,0,0,1,.27.64,28.51,28.51,0,0,1,0,3.58A.69.69,0,0,1,12.51,43.36Z"/><path class="cls-121" d="M46.52,27.57l.91.05v4.44a.72.72,0,0,1-.89.22.86.86,0,0,1-.4-.91,2.55,2.55,0,0,0-.71-1.91,2.14,2.14,0,0,1-.13-1,1.22,1.22,0,0,1,.27-1A.66.66,0,0,1,46.52,27.57Z"/><path class="cls-113" d="M45.68,35.68v2.64l-.1.15a.7.7,0,0,1-1-.08,3.54,3.54,0,0,1-.28-2.08,5.21,5.21,0,0,0,0-1,.79.79,0,0,1,.19-.66.92.92,0,0,1,1-.15.63.63,0,0,1,.26.22A.72.72,0,0,1,45.68,35.68Z"/><path class="cls-114" d="M45.68,35.68v-.87c.59-.57,1-.58,1.73-.06,0,.41,0,.82,0,1.24,0,.25-.08.47-.38.5a.38.38,0,0,1-.45-.33C46.46,35.65,46.08,35.65,45.68,35.68Z"/><path class="cls-122" d="M46.52,38.36l0,1.76-.1.14a.67.67,0,0,1-.95-.11,1.46,1.46,0,0,1,.12-1.78l.07,0Z"/><path class="cls-123" d="M46.57,32.06h.86c0,.6,0,1.21,0,1.82a.68.68,0,0,1-1,0C46.12,33.27,45.92,32.63,46.57,32.06Z"/><path class="cls-124" d="M46.54,33.84l.88,0v.86l-1.73.06,0-.06a.68.68,0,0,1-.08-1A.69.69,0,0,1,46.54,33.84Z"/><path class="cls-125" d="M56.35,21.33,56.42,24c.54.52.35,1.18.37,1.81a2.63,2.63,0,0,1-.32,1.86.68.68,0,0,1-1-.08c0-2.09,0-4.17,0-6.26Z"/><path class="cls-126" d="M55.5,27.6h.85l.14.06c.29.23.26.55.26.87s0,.65,0,1c0,.89.27,1.82-.31,2.65a.66.66,0,0,1-1-.1Z"/><path class="cls-127" d="M55.51,32.06l.87,0,.14.08c.27.25.22.59.23.91a1.16,1.16,0,0,1-.3.92.68.68,0,0,1-.94-.12l0,0Z"/><path class="cls-128" d="M46.52,27.57l-.87,0-.15-.1a1.71,1.71,0,0,1-.28-1.18q0-3.21,0-6.4a1.66,1.66,0,0,1,.29-1.18l.15-.09c.71-.08.92.29.89.94s0,1.52,0,2.28C46.55,23.78,46.53,25.67,46.52,27.57Z"/><path class="cls-7" d="M44.76,17.76h.89v.91h0a.69.69,0,0,1-.93.14.67.67,0,0,1-.1-.93Z"/><path class="cls-121" d="M17.88,27.57l.91.05v4.44a.72.72,0,0,1-.89.22.86.86,0,0,1-.4-.91,2.55,2.55,0,0,0-.71-1.91,2.28,2.28,0,0,1-.13-1,1.22,1.22,0,0,1,.27-1A.66.66,0,0,1,17.88,27.57Z"/><path class="cls-129" d="M17,35.68v2.64l-.1.15a.7.7,0,0,1-1-.08,5.43,5.43,0,0,1-.2-3,1,1,0,0,1,.18-.66.85.85,0,0,1,1-.15.66.66,0,0,1,.26.21A.73.73,0,0,1,17,35.68Z"/><path class="cls-114" d="M17,35.68v-.87c.59-.57,1-.58,1.74-.06,0,.41,0,.82,0,1.24,0,.25-.08.47-.38.5a.38.38,0,0,1-.45-.33C17.82,35.65,17.44,35.65,17,35.68Z"/><path class="cls-124" d="M18.79,34.75l-1.74.06L17,34.75a.73.73,0,0,1-.12-1c.27-.33.64-.25,1-.26a.88.88,0,0,1,.91.38Z"/><path class="cls-123" d="M18.78,33.89l-.88,0c-.53-.73-.52-1.15,0-1.78h.86C18.78,32.67,18.78,33.28,18.78,33.89Z"/><path class="cls-122" d="M17.88,38.36l0,1.76-.1.14a.66.66,0,0,1-.94-.11A1.44,1.44,0,0,1,17,38.37l.07,0Z"/><path class="cls-93" d="M25.92,38.34c0-1.19,0-2.38,0-3.56,0-.7.23-1,.91-1a.61.61,0,0,1,.25.23A7.52,7.52,0,0,1,27,38.42a.64.64,0,0,1-.95-.07Z"/><path class="cls-126" d="M26.81,32.08c-.68.07-.86-.3-.85-.92,0-1.18,0-2.37,0-3.55h0a.67.67,0,0,1,.94-.12,1.2,1.2,0,0,1,.31.94c0,.33,0,.65,0,1a5.22,5.22,0,0,1-.17,2.51A.52.52,0,0,1,26.81,32.08Z"/><path class="cls-130" d="M26.87,33l-.06-.87h.08a1.34,1.34,0,0,1,1.86,0c.35.94.16,1.22-.9,1.3A1,1,0,0,1,26.87,33Z"/><path class="cls-131" d="M26.87,33l.87,0a.63.63,0,0,1,.09.94.66.66,0,0,1-1,0l0-.08Z"/><path class="cls-132" d="M26.83,27.61H26q0-3.32,0-6.61h.84c.76.57.36,1.38.43,2.09a19.38,19.38,0,0,1,0,2.64c0,.57.15,1.17-.17,1.71A.53.53,0,0,1,26.83,27.61Z"/><path class="cls-128" d="M17.88,27.57l-.87,0-.15-.1a1.77,1.77,0,0,1-.28-1.18q0-3.21,0-6.4a1.66,1.66,0,0,1,.29-1.18l.15-.09c.71-.08.92.29.89.94s0,1.52,0,2.28C17.91,23.78,17.9,25.67,17.88,27.57Z"/><path class="cls-7" d="M16.12,17.76H17v.91h0a.68.68,0,0,1-.92.14.67.67,0,0,1-.11-.93Z"/><path class="cls-133" d="M27.74,20.42l0-2.65a.67.67,0,0,1,.86-.22.69.69,0,0,1,.23.22,1.94,1.94,0,0,1,.17.95,2.61,2.61,0,0,1-.24,1.78.7.7,0,0,1-.94.07A1.3,1.3,0,0,0,27.74,20.42Z"/><path class="cls-134" d="M26.89,23.12,26.82,21l.07-.55h.85l0,0a2.52,2.52,0,0,1,.12,2.73A.66.66,0,0,1,26.89,23.12Z"/><path class="cls-78" d="M28.64,17.72l-.88.05c0-.3,0-.6,0-.9l.89,0,.12.09A.5.5,0,0,1,28.64,17.72Z"/><path class="cls-135" d="M40.27,38.33h-.88c0-3.58,0-7.15,0-10.73l.85,0,.15.08a1.54,1.54,0,0,1,.31,1.17c0,1.07,0,2.13,0,3.2a16.31,16.31,0,0,1,0,1.85c.06,1.06,0,2.12,0,3.19a1.63,1.63,0,0,1-.29,1.17Z"/><path class="cls-136" d="M33.15,27.78l0,6.11c-.51.58-1.17.34-1.79.35a1.32,1.32,0,0,1-1-.29,1.84,1.84,0,0,1-.14-1.79,1.75,1.75,0,0,0,.7-1.66,2,2,0,0,1,.23-1.1c.79-.38.58-1.26.92-1.86a.53.53,0,0,1,.24-.17.7.7,0,0,1,.83.22Z"/><path class="cls-137" d="M33.12,27.59l-.92,0a1,1,0,0,1-.39-.94c0-1.34,0-2.67,0-4,0-.35,0-.73.43-.91h.87C33.12,23.67,33.12,25.63,33.12,27.59Z"/><path class="cls-138" d="M41.14,22.22l.06-.17c.77-.08,1,.92,1.74.88.61.32.4.9.44,1.39a6,6,0,0,1-.15,1,.82.82,0,0,1-.12.32.7.7,0,0,1-1,0c-.36-.31-.81-.48-1.16-.8A3.1,3.1,0,0,1,41.14,22.22Z"/><path class="cls-139" d="M43,25.45c0-.84,0-1.68,0-2.52s0-1.67,0-2.5a1.34,1.34,0,0,1,.11-.14.78.78,0,0,1,1,.09,10.44,10.44,0,0,1,.13,4.45A.78.78,0,0,1,43,25.45Z"/><path class="cls-140" d="M43,20.43c-.68.08-.9-.27-.88-.9s0-1.18,0-1.78a.7.7,0,0,1,.87-.2.57.57,0,0,1,.23.23,1.85,1.85,0,0,1,.17.95c0,.61.17,1.24-.36,1.72Z"/><path class="cls-78" d="M43,17.74h-.88c0-.29,0-.58,0-.88l.89,0,.13.09A.52.52,0,0,1,43,17.74Z"/><path class="cls-141" d="M41.14,22.22l.07,2.69a2.62,2.62,0,0,1,.09,2.74.66.66,0,0,1-1,0l-.06,0c0-1.78,0-3.57,0-5.35Z"/><path class="cls-142" d="M32.24,21.7c0,1.95,0,3.9,0,5.85l0,.06a.7.7,0,0,1-1,.07,1.75,1.75,0,0,1-.33-1.17q0-3.37,0-6.76a1.39,1.39,0,0,1,.27-1l.15-.1c.7-.07.93.28.9.94S32.23,21,32.24,21.7Z"/><path class="cls-118" d="M30.45,17.74l.87,0c0,.29,0,.59,0,.88v0a.7.7,0,0,1-.94.11.67.67,0,0,1-.08-.94Z"/><path class="cls-143" d="M58.19,16.85a8.61,8.61,0,0,0,0-.88c0-.64.22-1,.87-.92,0,.6,0,1.2,0,1.8a.56.56,0,0,1-.9,0Z"/><path class="cls-74" d="M58.19,16.85h.9l.83,0,.06.86,0,0a1.2,1.2,0,0,1-1.74,0l0-.09Z"/><path class="cls-143" d="M14.35,16.84a8.55,8.55,0,0,0,0-.88c-.05-.64.22-.94.86-.91,0,.6,0,1.2.05,1.8A.53.53,0,0,1,14.35,16.84Z"/><path class="cls-74" d="M14.35,16.84h.89l.83,0,.05.88h0c-.5.57-1.09.44-1.7.25a.59.59,0,0,1-.25-.22.7.7,0,0,1,.16-.91Z"/><path class="cls-143" d="M28.66,16.85c0-.29,0-.59,0-.88,0-.64.21-1,.86-.92,0,.6,0,1.2,0,1.8a.56.56,0,0,1-.9,0Z"/><path class="cls-79" d="M28.66,16.85h.9l.83,0,.06.86,0,0a1.2,1.2,0,0,1-1.75,0l0-.09Z"/><path class="cls-143" d="M43,16.85c0-.32,0-.65,0-1-.06-.65.33-.89.88-1l0,2a.56.56,0,0,1-.9,0Z"/><path class="cls-74" d="M43,16.85h.9l.83,0,0,.88h0a1.17,1.17,0,0,1-1.74.06L43,17.74Z"/><path class="cls-144" d="M57.3,22.25l.86,0A2.65,2.65,0,0,1,58.31,25a.87.87,0,0,1-1.07,0,.71.71,0,0,1,0-1Z"/><path class="cls-145" d="M57.28,24v.92a.68.68,0,0,1,.09,1,.64.64,0,0,1-1-.09V24Z"/><path class="cls-146" d="M58.21,17.81l1.74,0c0,.28,0,.57,0,.86l-.06.14a1,1,0,0,1-.88.23.82.82,0,0,1-.83-.32Z"/><path class="cls-147" d="M58.22,18.68h.88a1.44,1.44,0,0,1,.1,1.83.65.65,0,0,1-1-.07h-.09Z"/><path class="cls-148" d="M58.22,20.44h.83a.78.78,0,0,1,1-.11,1.34,1.34,0,0,1,.31,1.07c0,1.71,0,3.42,0,5.13a1.76,1.76,0,0,1-.35,1.17,1.77,1.77,0,0,1-2,.06,2.71,2.71,0,0,1,.06-2.85V22.23Z"/><path class="cls-78" d="M14.32,16.87v.87c-.29.33-.59.26-.88,0,0-.29,0-.59,0-.89Z"/><path class="cls-139" d="M14.3,24V20.43l.12-.14a.77.77,0,0,1,1,.09,10.38,10.38,0,0,1,.12,4.47.86.86,0,0,1-1.29.67A1.05,1.05,0,0,1,14.3,24Z"/><path class="cls-140" d="M13.44,17.75h.88l0,.07a1,1,0,0,1,.32.9c0,.61.19,1.25-.34,1.74l0,0c-.67.07-.89-.27-.87-.9S13.44,18.35,13.44,17.75Z"/><path class="cls-92" d="M47.41,61.59l-.86,0h0c-.54-.41-.43-1-.44-1.56,0-3.85,0-7.69,0-11.54,0-2.32,0-4.65,0-7,0-.5,0-1,.43-1.39v0c.61,0,.92.15.91.84C47.42,47.84,47.42,54.72,47.41,61.59Z"/><path class="cls-149" d="M55.51,33.87l.87-.06a.61.61,0,0,1,.25.23,7.69,7.69,0,0,1-.14,4.38.64.64,0,0,1-1-.07h-.09Z"/><path class="cls-92" d="M33.09,61.59l-.86,0h0c-.54-.41-.43-1-.43-1.57,0-3.72,0-7.45,0-11.18,0-2.39,0-4.78,0-7.16a2.25,2.25,0,0,1,.28-1.46l.15-.11c.53,0,.91.06.91.75Q33.1,51.24,33.09,61.59Z"/><path class="cls-122" d="M31.36,38.32l.85,0c0,.59,0,1.18,0,1.77h0a.7.7,0,0,1-.94.14,1.57,1.57,0,0,1-.19-1.74A.53.53,0,0,1,31.36,38.32Z"/><path class="cls-113" d="M31.36,35.68v2.64l-.07,0a.67.67,0,0,1-1,0,5.13,5.13,0,0,1-.06-3.64.76.76,0,0,1,1-.24.56.56,0,0,1,.27.21A.72.72,0,0,1,31.36,35.68Z"/><path class="cls-114" d="M31.36,35.68v-.87c.59-.57,1-.58,1.74-.06,0,.41,0,.83,0,1.24,0,.25-.09.48-.39.51a.39.39,0,0,1-.45-.33C32.14,35.65,31.76,35.65,31.36,35.68Z"/><path class="cls-115" d="M33.11,34.75l-1.74.06-.05-.06a.58.58,0,0,1,0-.87H33.1C33.1,34.17,33.1,34.46,33.11,34.75Z"/><path class="cls-150" d="M60.86,40.13h.9q0,10.72,0,21.46h-.9l-.15-.1a1.84,1.84,0,0,1-.29-1.27q0-9.37,0-18.74a1.84,1.84,0,0,1,.29-1.27Z"/><path class="cls-138" d="M60.85,62.49l-.85,0-.14-.09a.66.66,0,0,1,.06-.94.69.69,0,0,1,.95.12h0Z"/><path class="cls-138" d="M60,38.34l.82,0,0,1.76h0a.7.7,0,0,1-.94.14,1.53,1.53,0,0,1-.18-1.73A.47.47,0,0,1,60,38.34Z"/><path class="cls-151" d="M25.94,50.52l0-5.74a.71.71,0,0,1,1-.1,1.72,1.72,0,0,1,.3,1.26c0,.92,0,1.85,0,2.77s.27,1.91-.27,2.8a.71.71,0,0,1-1-.11Z"/><path class="cls-124" d="M26,51.4l.83,0a.68.68,0,0,1,.43.71,19.09,19.09,0,0,1-.09,4.07.67.67,0,0,1-.34.58H26Z"/><path class="cls-152" d="M26.83,44.79H26V39.24a.71.71,0,0,1,1-.09,1.07,1.07,0,0,1,.27.82c.05,1.31.05,2.62,0,3.92C27.25,44.25,27.24,44.62,26.83,44.79Z"/><path class="cls-153" d="M26.83,39.23H26v-.89l.81,0,.14.08A.52.52,0,0,1,26.83,39.23Z"/><path class="cls-154" d="M26.82,56.78l.07-.55a.72.72,0,0,1,1-.1c.56.93.22,1.94.27,2.93a16.84,16.84,0,0,1,0,2.56,1.47,1.47,0,0,1-.29,1,.68.68,0,0,1-1-.11Z"/><path class="cls-155" d="M26.87,62.5h.88a2.49,2.49,0,0,1,2.51-.23.72.72,0,0,1,.21.25l0,.83a28,28,0,0,1-3.55,0Z"/><path class="cls-150" d="M31.33,40.13h.9V61.6h-.9l-.14-.1a1.74,1.74,0,0,1-.29-1.27q0-9.37,0-18.74a1.83,1.83,0,0,1,.28-1.27Z"/><path class="cls-138" d="M31.31,62.49l-.84,0-.08-.05a.65.65,0,0,1,0-.95.68.68,0,0,1,1,.09h0Z"/><path class="cls-152" d="M40.31,44.6l0-6.27,0,0a.66.66,0,0,1,1-.08,13.75,13.75,0,0,1,0,6.41A.7.7,0,0,1,40.31,44.6Z"/><path class="cls-156" d="M40.31,44.6h.84c.45.19.43.61.44,1a27.59,27.59,0,0,1,0,3.28c0,.42.09.86-.26,1.21a.7.7,0,0,1-1-.11Z"/><path class="cls-157" d="M40.31,50h.83a.73.73,0,0,1,.43.72,24.56,24.56,0,0,1,0,3.21.72.72,0,0,1-.42.72h-.84Z"/><path class="cls-158" d="M41.15,54.63c0-1.55,0-3.1,0-4.65l.07-1.09a.72.72,0,0,1,1-.1c.55.89.22,1.86.28,2.8.05,1.25.05,2.5,0,3.75a1.56,1.56,0,0,1-.29,1.18.7.7,0,0,1-1-.11Z"/><path class="cls-159" d="M41.21,56.41l.85,0c.54.28.39.81.44,1.27a8.11,8.11,0,0,1,0,1,15.19,15.19,0,0,1,0,2.78c0,.43.05.89-.34,1.22a.66.66,0,0,1-.9-.18Z"/><path class="cls-155" d="M41.2,62.5h.87a2.47,2.47,0,0,1,2.51-.24.72.72,0,0,1,.21.25l0,.83a24.74,24.74,0,0,1-3.55,0Z"/><path class="cls-150" d="M46.55,40.14V61.6h-.9l-.14-.1a1.74,1.74,0,0,1-.29-1.27q0-9.37,0-18.74a1.78,1.78,0,0,1,.28-1.27l.15-.1Z"/><path class="cls-138" d="M45.63,62.49l-.84,0-.08-.05a.65.65,0,0,1,0-.95.68.68,0,0,1,1,.09h0Z"/><path class="cls-160" d="M11.67,50.15l.84,0c.49.21.43.67.45,1.07,0,1.13,0,2.25,0,3.38a10.74,10.74,0,0,1,0,1.39c0,.32-.07.63-.43.77h-.84Z"/><path class="cls-161" d="M12.51,56.78l.06-2.16a.72.72,0,0,1,1-.1,1.36,1.36,0,0,1,.3,1.07c0,1.56.05,3.12,0,4.67a12.48,12.48,0,0,1,0,1.37,1.41,1.41,0,0,1-.28,1,.69.69,0,0,1-1-.12Z"/><path class="cls-155" d="M12.55,62.5h.89a2.47,2.47,0,0,1,2.5-.23.72.72,0,0,1,.21.25l0,.83a28,28,0,0,1-3.55,0Z"/><path class="cls-69" d="M55.54,38.35l.82,0,.15.08a1.53,1.53,0,0,1,.31,1.18c0,2.44.06,4.88,0,7.32,0,.59.17,1.22-.27,1.74a.69.69,0,0,1-1-.12C55.51,45.14,55.41,41.74,55.54,38.35Z"/><path class="cls-162" d="M55.53,48.53l.83,0c.52.24.44.73.45,1.16,0,1.57,0,3.15,0,4.72-.08.62.28,1.34-.43,1.81l-.83,0Z"/><path class="cls-92" d="M18.77,61.59l-.86,0h0c-.55-.41-.44-1-.44-1.56,0-3.85,0-7.69,0-11.54,0-2.32,0-4.65,0-7,0-.5-.05-1,.43-1.39v0c.53,0,.91.06.91.76Q18.78,51.23,18.77,61.59Z"/><path class="cls-163" d="M56.36,56.25l.06-1.81a.72.72,0,0,1,1-.1c.44.51.23,1.14.31,1.71,0,1.85.07,3.7-.06,5.54a1.51,1.51,0,0,1-.28,1,.67.67,0,0,1-1-.1C56.39,60.42,56.37,58.33,56.36,56.25Z"/><path class="cls-164" d="M56.41,62.5h.88a2.25,2.25,0,0,1,2.63,0l.08.05c0,.28,0,.55,0,.83a28,28,0,0,1-3.55,0Z"/><path class="cls-150" d="M17.91,40.14q0,10.72,0,21.46H17l-.15-.1a1.74,1.74,0,0,1-.29-1.27q0-9.37,0-18.74a1.83,1.83,0,0,1,.28-1.27l.15-.1Z"/><path class="cls-138" d="M17,62.49l-.84,0-.08-.05a.64.64,0,0,1,0-.95.67.67,0,0,1,1,.09h0Z"/><path class="cls-163" d="M12.5,38.33l.05-4.45h0a.69.69,0,0,1,1-.1,7.24,7.24,0,0,1,0,4.6.64.64,0,0,1-1,0Z"/><path class="cls-79" d="M12.53,32.08l0-3.57a.65.65,0,0,1,1-.07,4.87,4.87,0,0,1,0,3.71.69.69,0,0,1-1-.09Z"/><path class="cls-165" d="M13.44,28.5h-.87l0-.91h0a.67.67,0,0,1,.93-.15.69.69,0,0,1,.1.94Z"/><path class="cls-101" d="M13.45,33.89h-.9l0-.94a2.57,2.57,0,0,1,2.77-.06.84.84,0,0,1,0,1.07A1.44,1.44,0,0,1,13.45,33.89Z"/><path class="cls-152" d="M15.2,33H12.57l0-.88h.89a1,1,0,0,1,.92-.34,1.23,1.23,0,0,1,1,.29A.62.62,0,0,1,15.2,33Z"/><path class="cls-166" d="M13.46,27.63l-.91,0,0-2.34c.33-.36.68-.23,1,0a5.62,5.62,0,0,1,1,.58,2,2,0,0,1-.13,1.86A.69.69,0,0,1,13.46,27.63Z"/><path class="cls-167" d="M14.32,25.81c-.69.17-1.13-.48-1.75-.54V23.48c.61.06,1,.71,1.73.53,0,.48,0,1,0,1.45A.25.25,0,0,1,14.32,25.81Z"/><path class="cls-168" d="M60,32.09,60,33a.71.71,0,0,1,.2.88.61.61,0,0,1-.22.23,3,3,0,0,1-1.71.17,2.1,2.1,0,0,1-.93-.15.66.66,0,0,1-.23-.21A1,1,0,0,1,57,33c.12-.51.86-.43.94-1a.62.62,0,0,1,.22-.17,1.69,1.69,0,0,1,.83-.13,1.3,1.3,0,0,1,.82.15A.46.46,0,0,1,60,32.09Z"/><path class="cls-169" d="M60.87,29.43c0,.58,0,1.17,0,1.75s-.2,1-.85.91l-.07,0a2.67,2.67,0,0,1-.26-2.48.92.92,0,0,1,.14-.28.71.71,0,0,1,.86-.13A.45.45,0,0,1,60.87,29.43Z"/><path class="cls-170" d="M60.87,27.55l.89.05c0,.26,0,.53,0,.78.06.67-.19,1.06-.91,1.05a.29.29,0,0,1,0-.09,1.24,1.24,0,0,1-.21-1.58A.52.52,0,0,1,60.87,27.55Z"/><path class="cls-169" d="M60,33.82c0-.29,0-.57,0-.86.61,0,1,.2.89.85v.08C60.54,34.13,60.24,34.2,60,33.82Z"/><path class="cls-171" d="M60,34.78a26.43,26.43,0,0,0,0,3.56h-.09a.63.63,0,0,1-1,.06A5.68,5.68,0,0,1,58.75,35c.06-.51.5-.67,1-.51A.72.72,0,0,1,60,34.78Z"/><path class="cls-172" d="M60,33.82l.89.07v.86l-.83,0-.1,0a.57.57,0,0,1,0-.86Z"/><path class="cls-173" d="M60,27.58c0-2.38,0-4.76,0-7.15a1.2,1.2,0,0,1,0-1.76l0,0,.88,0v9a.57.57,0,0,1-.74.18A.44.44,0,0,1,60,27.58Z"/><path class="cls-174" d="M12.59,38.35l.82,0,.15.08c.28.26.23.61.25,1,.12,2,.07,4,0,6-.05.93.26,1.9-.28,2.78a.69.69,0,0,1-1-.11l-.06-4.64C12.54,41.69,12.56,40,12.59,38.35Z"/><path class="cls-175" d="M12.57,48l.85,0c.4.17.4.55.43.9.05.83,0,1.66,0,2.49a22.44,22.44,0,0,1,0,2.32c0,.36,0,.73-.43.91l-.85,0-.06-4.45Z"/><path class="cls-176" d="M46.54,33.84l-.9,0a.68.68,0,0,1-.89.17.64.64,0,0,1-.22-.24,3.94,3.94,0,0,1-.17-1.8c0-.91-.25-1.85.31-2.7a.67.67,0,0,1,1,.06c.67-.05,1,.24.92.93s0,1.17,0,1.76Z"/><path class="cls-177" d="M45.65,27.61v.87a.66.66,0,0,1-.92.15.78.78,0,0,1-.19-.94.67.67,0,0,1,.21-.26.72.72,0,0,1,.92.15Z"/><path class="cls-113" d="M44.77,28.5l.87,0v.89l-.85.05-.13-.06a.54.54,0,0,1,0-.79Z"/><path class="cls-178" d="M44.79,34.79l0,.51a2.84,2.84,0,0,0-.45,1.75,1.75,1.75,0,0,1-.42,1.47,2,2,0,0,1-1.78,0,.61.61,0,0,1-.23-.25,8.7,8.7,0,0,1,.06-4.53c.58-.48,1.25-.27,1.89-.26a1.09,1.09,0,0,1,1,.35l0,0A.62.62,0,0,1,44.79,34.79Z"/><path class="cls-158" d="M43.87,38.34c0-.54,0-1.08,0-1.61a1.22,1.22,0,0,1,.89-1.43l0,3-.07.12a.54.54,0,0,1-.78,0Z"/><path class="cls-138" d="M45.61,38.37l0,1.76h0a.68.68,0,0,1-1,.07,1.48,1.48,0,0,1,.05-1.86h.08Z"/><path class="cls-179" d="M44.79,34.79l0-.91h.89v.87Z"/><path class="cls-180" d="M56.42,25.8h.86c.65.57.43,1.2.13,1.84a.66.66,0,0,1-1,0l-.07,0Z"/><path class="cls-181" d="M56.38,32.08l0-2.68a6.09,6.09,0,0,0,.81-1.08,1.57,1.57,0,0,1,.3-.12c.9.05,1,.13,1,1.2,0,.91.36,1.88-.38,2.68h0a1.17,1.17,0,0,1-1.77,0Z"/><path class="cls-182" d="M56.42,27.62l.86,0,.13.09a.59.59,0,0,1-.12.83h0a.58.58,0,0,1-.87,0Z"/><path class="cls-183" d="M56.41,28.51h.87c.07.64-.19,1-.86.9Z"/><path class="cls-184" d="M56.41,32.06l1.77,0c.13.73-.27.93-.9.9a.57.57,0,0,1-.87,0Z"/><path class="cls-131" d="M56.41,33l.87,0v.84c-.27.36-.57.3-.89.06l0-.08Z"/><path class="cls-185" d="M45.66,27.58l-.89,0a.8.8,0,0,1-.42-.82c0-2.4-.11-4.8,0-7.2a1.07,1.07,0,0,1,.23-.79l.14-.09h.88Z"/><path class="cls-186" d="M43,17.81l1.74-.06,0,.91,0,0a1.12,1.12,0,0,1-1.72,0Z"/><path class="cls-187" d="M17.93,32.06l0,1.78-.9,0a.68.68,0,0,1-.89.17.64.64,0,0,1-.22-.24,3.94,3.94,0,0,1-.17-1.8c0-.91-.25-1.85.31-2.7a.68.68,0,0,1,1,.05c.67,0,1,.25.92.94S17.92,31.47,17.93,32.06Z"/><path class="cls-177" d="M17,27.61v.87a.66.66,0,0,1-.92.15.78.78,0,0,1-.19-.94.62.62,0,0,1,.22-.26.7.7,0,0,1,.91.16Z"/><path class="cls-113" d="M16.13,28.5l.87,0v.88l-.85.06L16,29.36a.54.54,0,0,1,0-.79Z"/><path class="cls-178" d="M13.45,33.89l1.78-.06a.62.62,0,0,1,.9,0l0,0a.62.62,0,0,1,0,.91l0,.5c-.49.42-.4,1-.44,1.54s.09,1.25-.46,1.71a1.43,1.43,0,0,1-1.73-.18l-.06,0C13.42,36.85,13.43,35.37,13.45,33.89Z"/><path class="cls-188" d="M15.23,38.34V36.28c0-.59.21-1,.87-1l0,3.05-.07.12a.54.54,0,0,1-.78,0Z"/><path class="cls-138" d="M17,38.37l0,1.76h0a.69.69,0,0,1-1,.07,1.49,1.49,0,0,1,.05-1.86h.08Z"/><path class="cls-179" d="M16.15,34.79l0-.91H17v.87Z"/><path class="cls-189" d="M26.87,33.89l.89-.06.14.09c.48.75.23,1.58.28,2.38,0,.32-.08.64-.06,1a1.59,1.59,0,0,1-.27,1.16.64.64,0,0,1-1-.07l-.09,0Z"/><path class="cls-181" d="M28.64,32.09l-1.75,0V29.4a6,6,0,0,0,.8-1.08,1,1,0,0,1,.29-.11c.9,0,1,.11,1,1.15s.28,1.8-.24,2.64Z"/><path class="cls-182" d="M26.88,28.51c0-.3,0-.6-.05-.91h.05a.64.64,0,0,1,.95-.08.66.66,0,0,1-.08,1h0A.58.58,0,0,1,26.88,28.51Z"/><path class="cls-183" d="M26.88,28.51h.87c.07.64-.19,1-.86.9Z"/><path class="cls-190" d="M30.48,32.09l0,1.73-.07.15c-.51.49-1.14.26-1.73.26a1,1,0,0,1-.89-.33v-.07l0-.83c.63,0,1-.17.9-.91h0a.86.86,0,0,1,.79-.36,1.42,1.42,0,0,1,.86.14A.58.58,0,0,1,30.48,32.09Z"/><path class="cls-191" d="M26.89,23.12l.84,0a.75.75,0,0,1,1-.11c.34.25.2.63.25,1a1.84,1.84,0,0,1,0,1c-.54.22-.71.83-1.18,1.13a.69.69,0,0,1-.85-.24Z"/><path class="cls-192" d="M26.89,25.8h.86c.62.52.45,1.11.16,1.72l-.14.1-.89,0C26.88,27,26.89,26.4,26.89,25.8Z"/><path class="cls-185" d="M17,27.59l-.89,0a.8.8,0,0,1-.42-.82c0-2.4-.11-4.8,0-7.2a1.07,1.07,0,0,1,.23-.79l.14-.09H17Z"/><path class="cls-186" d="M14.37,18.67v-.86l1.74-.06,0,.91,0,0A1.12,1.12,0,0,1,14.37,18.67Z"/><path class="cls-193" d="M28.61,23.13l-.87,0c0-.88,0-1.76,0-2.64l.84,0,.16.08A2.27,2.27,0,0,1,28.61,23.13Z"/><path class="cls-146" d="M28.67,17.81l1.75,0c0,.29,0,.58,0,.87l-.07.14a1,1,0,0,1-.87.23.81.81,0,0,1-.83-.32Z"/><path class="cls-147" d="M28.69,18.68h.88c.54.49.4,1.08.21,1.67a.57.57,0,0,1-.21.25.65.65,0,0,1-.89-.17H28.6Z"/><path class="cls-194" d="M40.31,27.62l.83,0,.15.07c.29.25.24.6.26.94a18,18,0,0,1,0,2.65,1.49,1.49,0,0,1-.33.9.66.66,0,0,1-1-.11Z"/><path class="cls-195" d="M41.17,38.34l-.87,0V33.9a.65.65,0,0,1,1-.11,6.66,6.66,0,0,1,.06,4.45Z"/><path class="cls-96" d="M41.19,33.88l-.89,0V32.05l.87,0,.13.07a.91.91,0,0,1,.23.82,1,1,0,0,1-.21.83Z"/><path class="cls-196" d="M31.34,29.42c0,.59,0,1.18,0,1.76s-.2,1-.85.91l-.07,0a2.7,2.7,0,0,1-.25-2.48.74.74,0,0,1,.14-.28.7.7,0,0,1,.86-.13A.55.55,0,0,1,31.34,29.42Z"/><path class="cls-170" d="M31.33,27.55l.9.06a8.23,8.23,0,0,0,0,.86c.06.67-.26,1-.9,1l0-.08a1.26,1.26,0,0,1-.21-1.58A.58.58,0,0,1,31.33,27.55Z"/><path class="cls-172" d="M31.32,33.88v.87l-.83,0a.33.33,0,0,1-.23-.14.53.53,0,0,1,.18-.73v-.08Z"/><path class="cls-104" d="M44.74,19.36l0,8.2,0,.08a1.06,1.06,0,0,1-1,.32c-.36,0-.73.06-1-.28A1.76,1.76,0,0,1,43,25.62l0-.17A1.34,1.34,0,0,0,43.87,24c0-1.19,0-2.37,0-3.56a.69.69,0,0,1-.1-1A.63.63,0,0,1,44.74,19.36Z"/><path class="cls-166" d="M43,25.62l0,1.95c-.16.41-.51.39-.86.38a.86.86,0,0,1-.89-.34h-.09l.07-2.69C42,24.71,42.26,25.66,43,25.62Z"/><path class="cls-177" d="M44.74,19.36c-.77,0-.91.45-.89,1.07l-.87,0,0-1.78,1.72,0Z"/><path class="cls-197" d="M30.46,18.63l.87,0v9a.66.66,0,0,1-1.14-.13A2.84,2.84,0,0,1,30,26.27c0-1.94-.05-3.87,0-5.81,0-.62-.21-1.29.39-1.79Z"/><path class="cls-198" d="M57.28,27.58V25.81c0-.3,0-.59,0-.89l.86,0,.05,2.68c-.28.35-.58.3-.9.05Z"/><path class="cls-199" d="M60,18.67c0,.59,0,1.18,0,1.76h-.9c0-.58,0-1.16.05-1.75Z"/><path class="cls-200" d="M57.3,27.63l.9-.05H60l0,0a1.14,1.14,0,0,1,0,1.75v0a.88.88,0,0,1-.88.35.9.9,0,0,1-.88-.33c0-.64-.23-1-.91-.91Z"/><path class="cls-104" d="M16.1,19.36l0,8.2,0,.08a1,1,0,0,1-.91.31c-.35,0-.7,0-.86-.38,0-.59,0-1.18,0-1.76l0-.35A1.37,1.37,0,0,0,15.23,24c0-1.18,0-2.36,0-3.55a.7.7,0,0,1-.1-1A.63.63,0,0,1,16.1,19.36Z"/><path class="cls-177" d="M16.1,19.36c-.77,0-.91.45-.89,1.07l-.86,0c0-.59,0-1.18,0-1.78l1.72,0Z"/><path class="cls-201" d="M56.4,33.89l.89-.06v.07c.47.32.4.82.43,1.29a15.48,15.48,0,0,1-.09,2,1.54,1.54,0,0,1-.24,1.18.64.64,0,0,1-1,0l-.08,0Z"/><path class="cls-138" d="M30.47,38.34l.82,0,0,1.76h0a.69.69,0,0,1-.93.14,1.53,1.53,0,0,1-.19-1.73A.51.51,0,0,1,30.47,38.34Z"/><path class="cls-171" d="M30.49,34.77a28.35,28.35,0,0,0,0,3.57h-.08a.64.64,0,0,1-1,0,5.74,5.74,0,0,1-.2-3.23c.07-.63.5-.72,1.2-.38Z"/><path class="cls-202" d="M60,40.13h.9V61.61H60l-.14-.1a1.87,1.87,0,0,1-.28-1.28q0-9.37,0-18.74a1.78,1.78,0,0,1,.28-1.27Z"/><path class="cls-203" d="M59.92,62.47l-2.63,0v-.89a.93.93,0,0,1,.85-.36h1a.91.91,0,0,1,.86.37h0Z"/><path class="cls-204" d="M59.1,38.33h.82l0,1.79h0a.74.74,0,0,1-1,.14,1.61,1.61,0,0,1,0-1.85Z"/><path class="cls-174" d="M26.9,38.35l.82,0,.15.08c.29.27.24.62.26,1,.12,2.23.07,4.46,0,6.69-.05.93.26,1.9-.28,2.79a.69.69,0,0,1-1-.12l-.06-3.92V39.23Z"/><path class="cls-205" d="M26.89,48.71l.85,0c.47.22.4.68.44,1.08.07.94-.07,1.89,0,2.84s0,1.74,0,2.62c0,.37,0,.77-.43,1l-.85,0c0-1.6,0-3.21-.07-4.81Z"/><path class="cls-206" d="M27.75,61.61l0-2.52a1.39,1.39,0,0,0,.43-1.19c0-1.15,0-2.29,0-3.44,0-.4,0-.84.41-1.1a1,1,0,0,1,1,.07A1.31,1.31,0,0,1,30,54.5c0,2,0,4,0,6a2.29,2.29,0,0,1-.3,1.19A1.49,1.49,0,0,1,27.75,61.61Z"/><path class="cls-174" d="M28.66,53.57c0,1.54,0,3.09,0,4.63,0,.63-.21,1-.88.89l0-2.84,0-3.6c.29-.36.61-.55,1-.2A.78.78,0,0,1,28.66,53.57Z"/><path class="cls-203" d="M27.75,61.61h1.79a.57.57,0,0,1,.8-.12l.09.13,0,.85-2.64,0Z"/><path class="cls-202" d="M30.44,40.13h.89V61.61h-.91A1.4,1.4,0,0,1,30,60.4q0-9.54,0-19.07a1.54,1.54,0,0,1,.28-1.1Z"/><path class="cls-207" d="M42.06,48.91l-.85,0-.06-4.28q0-3.13,0-6.27h0a.56.56,0,0,1,.86,0l.06,0a1.07,1.07,0,0,1,.33.94c.13,2,.08,4,0,6a24.67,24.67,0,0,1,0,2.58C42.47,48.29,42.5,48.71,42.06,48.91Z"/><path class="cls-208" d="M42.06,48.91l0-3.6a1.23,1.23,0,0,0,.43-1c0-1.34,0-2.67,0-4a1.27,1.27,0,0,0-.42-1c0-.3,0-.59,0-.89l1.76,0h0c.58.51.36,1.2.39,1.82.07,1.58.05,3.15,0,4.72a2,2,0,0,1-.19,1,1.34,1.34,0,0,0-.69,1.33c0,1.26.06,2.51,0,3.76-.08.85-.49,1-1.27.58Z"/><path class="cls-209" d="M42.09,51.58c.67.07.88-.27.88-.9,0-1.27,0-2.55,0-3.83,0-.61.24-1,.86-1a.59.59,0,0,1,.4.55,33.3,33.3,0,0,1-.11,6.47,1.44,1.44,0,0,0-.71,1.41,37.45,37.45,0,0,1-.06,3.82c-.08.84-.47,1-1.27.64,0-.77,0-1.54,0-2.31Z"/><path class="cls-206" d="M42.08,58.74c.67,0,.88-.32.88-.93,0-1.35,0-2.71,0-4.07,0-.62.2-1,.86-.91.45.19.44.6.45,1,0,2.28,0,4.55,0,6.83a2,2,0,0,1-.3,1.1,1.46,1.46,0,0,1-1.91-.14Z"/><path class="cls-210" d="M42.07,61.6h1.8a.56.56,0,0,1,.8-.12l.08.13c0,.28,0,.57,0,.85l-2.64,0Z"/><path class="cls-202" d="M44.76,40.13h.89V61.61h-.91c-.51-.42-.42-1-.43-1.57,0-3.68,0-7.36,0-11,0-2.43,0-4.87,0-7.31a2.18,2.18,0,0,1,.29-1.45Z"/><path class="cls-203" d="M13.42,54.64l0-3.25c.44-.33.42-.82.43-1.3,0-1.22-.05-2.44,0-3.66.08-.93.57-1.18,1.48-.81a.55.55,0,0,1,.16.31,28.75,28.75,0,0,1-.07,6,1.53,1.53,0,0,0-.73,1.58c.08,1.25-.11,2.5,0,3.75-.06.82,0,1.66-.08,2.48s-.48,1-1.27.58Z"/><path class="cls-211" d="M13.45,60.33c.61.09.88-.18.87-.79,0-.8,0-1.6,0-2.4.3-.37.64-.57,1.08-.21a8.59,8.59,0,0,1-.08,4.82,1.45,1.45,0,0,1-1.9-.15Z"/><path class="cls-203" d="M13.43,61.6h1.8a.55.55,0,0,1,.8-.1l.08.12,0,.85-2.63,0Z"/><path class="cls-212" d="M56.44,38.36l.82,0,.15.08c.28.27.23.63.25,1,.13,2.25.06,4.5,0,6.75a1.13,1.13,0,0,1-.28.91.69.69,0,0,1-1-.11C56.4,44.07,56.31,41.22,56.44,38.36Z"/><path class="cls-213" d="M56.43,46.92l.85,0a.64.64,0,0,1,.27.43A36.8,36.8,0,0,1,57.72,53a5.62,5.62,0,0,1,0,.71.77.77,0,0,1-.41.73l-.86,0-.06-5.88Z"/><path class="cls-214" d="M57.28,54.46c0-2.39,0-4.79,0-7.18.49-.37.41-.92.46-1.44s-.14-1.07.38-1.45c.37-.21.74-.35,1.12,0a.56.56,0,0,1,.17.31A20.76,20.76,0,0,1,59.33,50a1.45,1.45,0,0,0-.71,1.4c0,1.28.06,2.56,0,3.83-.06.92-.4,1.11-1.29.81Z"/><path class="cls-74" d="M57.29,56.05c.73-.13.92-.57.9-1.27,0-1.3,0-2.6,0-3.9,0-.62.21-1,.87-.92a.66.66,0,0,1,.41.63,34.48,34.48,0,0,1-.1,6,1.53,1.53,0,0,0-.74,1.57c0,.76,0,1.54,0,2.31a1.29,1.29,0,0,1-.42,1.12h-.9Z"/><path class="cls-202" d="M16.12,40.13H17V61.61h-.91a1.37,1.37,0,0,1-.42-1.21q0-9.54,0-19.07a1.54,1.54,0,0,1,.28-1.1Z"/><path class="cls-215" d="M14.31,32.06h-.87V28.5h0c.87-.45,1.15-.27,1.25.82a12.29,12.29,0,0,1,0,1.82A1.06,1.06,0,0,1,14.31,32.06Z"/><path class="cls-216" d="M14.35,29.4c0-.64-.23-1-.9-.89v-.88l.88-.06.88.06a.83.83,0,0,1,.36.81,1.71,1.71,0,0,1-.15.92.54.54,0,0,1-.22.23A.67.67,0,0,1,14.35,29.4Z"/><path class="cls-217" d="M16.13,33.85l-.9,0,0-.88v-.89l.09-.12a.56.56,0,0,1,.8.12Z"/><path class="cls-218" d="M14.35,29.4h.87a2.26,2.26,0,0,1,0,2.69l0,0h-.89Z"/><path class="cls-219" d="M57.26,38.32l0-1c.57-.52.4-1.2.44-1.84s-.11-1.15.45-1.55H60l0,.86c-.66,0-.87.3-.86.92,0,.88,0,1.76,0,2.65l0,0a1.17,1.17,0,0,1-1.74,0Z"/><path class="cls-220" d="M58.19,33.89c0,.76,0,1.53,0,2.29,0,.6-.2,1-.88,1.1,0-1.13,0-2.25,0-3.38Z"/><path class="cls-221" d="M58.2,29.41h.88a2.19,2.19,0,0,1,0,2.66h-.89C58.19,31.19,58.19,30.3,58.2,29.41Z"/><path class="cls-222" d="M59.07,32.07c0-.89,0-1.78,0-2.66l.88,0c0,.89,0,1.79,0,2.68Z"/><path class="cls-223" d="M60,29.37c0-.58,0-1.16,0-1.75h.87c0,.57,0,1.15,0,1.72Z"/><path class="cls-208" d="M15.2,45.67c-.69,0-.88.46-.87,1.08,0,1.24,0,2.48,0,3.72,0,.6-.2,1-.87.93l0-3.38,0-2.71a1.23,1.23,0,0,0,.43-1c0-1.34,0-2.67,0-4a1.28,1.28,0,0,0-.42-1c0-.29,0-.59,0-.89l1.76,0h0c.58.51.36,1.19.39,1.82.07,1.48.06,3,0,4.44C15.63,45,15.68,45.46,15.2,45.67Z"/><path class="cls-224" d="M13.46,39.25c.62,0,.87.28.87.86,0,1.47,0,2.93,0,4.39,0,.62-.28.87-.88.81C13.45,43.29,13.46,41.27,13.46,39.25Z"/><path class="cls-129" d="M44.79,29.42l0,2.64a.66.66,0,0,1-.87.2.49.49,0,0,1-.22-.23,3.78,3.78,0,0,1,0-2.55.63.63,0,0,1,.2-.26.69.69,0,0,1,.91.14Z"/><path class="cls-217" d="M43.9,32.08l.84,0,0,1.79-.9,0a.86.86,0,0,1-.36-.89C43.5,32.59,43.51,32.24,43.9,32.08Z"/><path class="cls-225" d="M43.85,27.63h.9l0,.86h0a.67.67,0,0,1-1,.1A.65.65,0,0,1,43.85,27.63Z"/><path class="cls-226" d="M43.88,28.52l.87,0,0,.87-.85.05A.53.53,0,0,1,43.88,28.52Z"/><path class="cls-227" d="M42.05,38.33l-.86,0V33.88h0c.3-.27.6-.33.89,0Z"/><path class="cls-101" d="M42.08,33.89h-.89l0-.94a2.29,2.29,0,0,1,2.63,0l0,.88Z"/><path class="cls-204" d="M43.88,40.16c0-.61,0-1.22,0-1.83h.84l0,1.79h0A.59.59,0,0,1,43.88,40.16Z"/><path class="cls-129" d="M15.23,32.08V29.39l0,0a.55.55,0,0,1,.85-.05l.06.06-.06,2.64Z"/><path class="cls-225" d="M15.24,28.51l0-.88h.89l0,.86h0A.58.58,0,0,1,15.24,28.51Z"/><path class="cls-226" d="M15.24,28.51l.87,0,0,.87-.85.05Z"/><path class="cls-204" d="M15.24,40.16c0-.61,0-1.22,0-1.82h.84l.05,1.79h0A.58.58,0,0,1,15.24,40.16Z"/><path class="cls-219" d="M30.4,34.76c-.66,0-.88.3-.86.92,0,.88,0,1.76,0,2.65l-.09.14a1.23,1.23,0,0,1-1.68-.11l-.07,0c0-.35,0-.7.05-1,.58-.51.39-1.2.44-1.84s-.12-1.15.44-1.55h1.79Z"/><path class="cls-228" d="M28.65,33.89c0,.8,0,1.6,0,2.4,0,.57-.21,1-.87,1,0-1.13,0-2.25,0-3.38Z"/><path class="cls-229" d="M27.75,28.49c0-.28,0-.57,0-.86v0a1,1,0,0,1,.91-.36c.61,0,1.26-.21,1.76.34l0,0a1.15,1.15,0,0,1,0,1.75v0a.88.88,0,0,1-.88.35.92.92,0,0,1-.89-.33C28.7,28.76,28.44,28.42,27.75,28.49Z"/><path class="cls-221" d="M28.66,29.41h.89a2.19,2.19,0,0,1,0,2.66h-.88C28.65,31.19,28.66,30.3,28.66,29.41Z"/><path class="cls-222" d="M29.53,32.07c0-.89,0-1.78,0-2.66l.88,0c0,.89,0,1.78,0,2.68Z"/><path class="cls-230" d="M30.43,27.58H28.66a2.26,2.26,0,0,1,0-2.68l.05-.87A3.22,3.22,0,0,0,29.1,22c0-.54-.07-1.13.43-1.54h0a.59.59,0,0,1,.89,0Z"/><path class="cls-231" d="M29.53,20.43c0,.77,0,1.54,0,2.31,0,.57-.13,1.14-.85,1.29l-.06-.9.07-2.69Z"/><path class="cls-232" d="M28.62,24.9c0,.89,0,1.79,0,2.68l-.9,0c0-.6,0-1.19,0-1.79S28,24.86,28.62,24.9Z"/><path class="cls-231" d="M30.42,20.44h-.89c0-.58,0-1.16,0-1.74l.86,0C30.42,19.26,30.42,19.85,30.42,20.44Z"/><path class="cls-79" d="M41.17,32.08l0-3.57a.65.65,0,0,1,.9-.17.71.71,0,0,1,.21.27,5.31,5.31,0,0,1-.16,3.56.66.66,0,0,1-1-.11Z"/><path class="cls-165" d="M42.05,28.49l-.84,0,0-.9.86,0A.53.53,0,0,1,42.05,28.49Z"/><path class="cls-152" d="M41.19,32.06h.89a.93.93,0,0,1,.88-.33.85.85,0,0,1,.86.34h.08l-.06.87H41.21Z"/><path class="cls-223" d="M30.42,29.37c0-.58,0-1.17,0-1.75h.87c0,.57,0,1.15,0,1.72Z"/><path class="cls-216" d="M42.05,28.49l0-.86.89-.06.87.06,0,.88v.9l0,0a.7.7,0,0,1-.8.26c-.61-.13-.49-.86-.94-1.12Z"/><path class="cls-204" d="M29.56,38.33h.83l.05,1.79h0a.69.69,0,0,1-1,.08c-.21-.63-.51-1.27.09-1.86Z"/><path class="cls-120" d="M59.05,56.59V44.42a1.22,1.22,0,0,1-.39-.87,24.67,24.67,0,0,1,0-2.58c0-.33.06-.66.42-.81l.88,0V61.62l-.89,0c-.06-.06-.16-.11-.18-.19A7.44,7.44,0,0,1,59.05,56.59Z"/><path class="cls-233" d="M59.05,56.59l0,5h-.89c0-1.36,0-2.73,0-4.09C58.17,56.89,58.38,56.55,59.05,56.59Z"/><path class="cls-208" d="M59.09,40.16c0,1.42,0,2.84,0,4.26l-.87.19c-.49-.22-.41-.68-.42-1.07,0-1,0-2.06,0-3.09a1.43,1.43,0,0,0-.42-1.2c0-.29,0-.58,0-.88l1.74,0C59.07,39,59.08,39.55,59.09,40.16Z"/><path class="cls-234" d="M29.54,38.35l0,1.81a.89.89,0,0,1,.37.68,38.62,38.62,0,0,1-.1,6.27,1.75,1.75,0,0,0-.75,1.68c0,.89,0,1.79,0,2.68,0,.38,0,.8-.43,1l-.87.18,0-3.91,0-2.72a1.18,1.18,0,0,0,.43-1c0-1.58,0-3.15,0-4.72a1.23,1.23,0,0,0-.45-1c0-.3,0-.6,0-.9Z"/><path class="cls-224" d="M27.78,39.26c1.15,0,1,0,.93,1.21-.13,1.54-.07,3.1-.06,4.65,0,.62-.19,1-.88.9C27.78,43.77,27.78,41.51,27.78,39.26Z"/><path class="cls-235" d="M29.51,47.1l0-6.94.88,0q0,10.74,0,21.49h-.89l0-8.06a1.32,1.32,0,0,1-.39-1c0-1.41,0-2.83,0-4.25A1.86,1.86,0,0,1,29.51,47.1Z"/><path class="cls-207" d="M29.51,47.1v6.45l-.86,0c0-.37,0-.73,0-1.1,0-1.39,0-2.78,0-4.17C28.63,47.65,28.82,47.21,29.51,47.1Z"/><path class="cls-224" d="M42.1,39.25c.6,0,.87.26.86.85,0,1.47,0,2.94,0,4.42,0,.62-.29.85-.87.79C42.09,43.29,42.1,41.27,42.1,39.25Z"/><path class="cls-236" d="M43.88,40.16l.88,0V61.61h-.88c0-2.93,0-5.85,0-8.78v-7C43.85,44,43.86,42.05,43.88,40.16Z"/><path class="cls-237" d="M15.24,40.16l.88,0V61.61h-.88l0-4.65a1.07,1.07,0,0,1-.37-.69,27.48,27.48,0,0,1,0-3.63,1.15,1.15,0,0,1,.37-.69V45.67C15.21,43.84,15.23,42,15.24,40.16Z"/><path class="cls-238" d="M15.2,51.94v5l-.87.19c0-1.42,0-2.83,0-4.25C14.33,52.29,14.54,51.92,15.2,51.94Z"/><path class="cls-239" d="M57.32,39.25c.74-.07,1,.24.91,1-.08,1.45,0,2.9,0,4.36,0,.58,0,1.17,0,1.76s-.22,1-.88.91c0-.11,0-.23,0-.34C57.29,44.38,57.31,41.81,57.32,39.25Z"/><path class="cls-218" d="M43,29.4h.87l0,2.68H43A2.19,2.19,0,0,1,43,29.4Z"/><path class="cls-215" d="M43,29.4l0,2.66h-.87c0-1.18,0-2.36,0-3.53C42.82,28.41,43,28.8,43,29.4Z"/></g></g></svg>