<svg xmlns="http://www.w3.org/2000/svg" viewBox="0 0 74 74"><defs><style>.cls-1{fill:#1e2223;}.cls-2{fill:#7f8486;}.cls-3{fill:#243239;}.cls-4{fill:#51575a;}.cls-5{fill:#404a4f;}.cls-6{fill:#545a5d;}.cls-7{fill:#232d33;}.cls-8{fill:#42494d;}.cls-9{fill:#5d6264;}.cls-10{fill:#5b6062;}.cls-11{fill:#252a2d;}.cls-12{fill:#363435;}.cls-13{fill:#5b5c52;}.cls-14{fill:#7d7e7a;}.cls-15{fill:#6c6c65;}.cls-16{fill:#404849;}.cls-17{fill:#3f4b45;}.cls-18{fill:#515253;}.cls-19{fill:#4e5251;}.cls-20{fill:#505455;}.cls-21{fill:#383430;}.cls-22{fill:#494635;}.cls-23{fill:#473c36;}.cls-24{fill:#5e4542;}.cls-25{fill:#3e4843;}.cls-26{fill:#5c6664;}.cls-27{fill:#5e6366;}.cls-28{fill:#4c5154;}.cls-29{fill:#42474a;}.cls-30{fill:#72787b;}.cls-31{fill:#767d7c;}.cls-32{fill:#4a5052;}.cls-33{fill:#444d50;}.cls-34{fill:#303333;}.cls-35{fill:#3c4041;}.cls-36{fill:#74787a;}.cls-37{fill:#43474a;}.cls-38{fill:#4c5050;}.cls-39{fill:#6d7172;}.cls-40{fill:#4b4f51;}.cls-41{fill:#5c6062;}.cls-42{fill:#474c50;}.cls-43{fill:#4b4d50;}.cls-44{fill:#3c4245;}.cls-45{fill:#4e4e49;}.cls-46{fill:#747572;}.cls-47{fill:#5d5b4f;}.cls-48{fill:#3c4243;}.cls-49{fill:#434337;}.cls-50{fill:#585e5f;}.cls-51{fill:#6c6a5b;}.cls-52{fill:#515553;}.cls-53{fill:#454a4b;}.cls-54{fill:#575d62;}.cls-55{fill:#4d5154;}.cls-56{fill:#5b6164;}.cls-57{fill:#3a3f41;}.cls-58{fill:#9fa1a4;}.cls-59{fill:#54595c;}.cls-60{fill:#aeb3b5;}.cls-61{fill:#424648;}.cls-62{fill:#51585a;}.cls-63{fill:#747b7e;}.cls-64{fill:#8c9193;}.cls-65{fill:#777c7f;}.cls-66{fill:#51595d;}.cls-67{fill:#404953;}.cls-68{fill:#444f5b;}.cls-69{fill:#333b41;}.cls-70{fill:#3c3e3f;}.cls-71{fill:#56595a;}.cls-72{fill:#383c3e;}.cls-73{fill:#393e45;}.cls-74{fill:#464a4c;}.cls-75{fill:#53595b;}.cls-76{fill:#585c5f;}.cls-77{fill:#4a4c4f;}.cls-78{fill:#444849;}.cls-79{fill:#3e4244;}.cls-80{fill:#3b3f40;}.cls-81{fill:#5a5e60;}.cls-82{fill:#3a3e40;}.cls-83{fill:#4f5355;}.cls-84{fill:#6b7073;}.cls-85{fill:#515759;}.cls-86{fill:#4c5252;}.cls-87{fill:#4a4d52;}.cls-88{fill:#403f40;}.cls-89{fill:#616567;}.cls-90{fill:#4c4e4e;}.cls-91{fill:#525656;}.cls-92{fill:#52565d;}.cls-93{fill:#465035;}.cls-94{fill:#505c45;}.cls-95{fill:#58604a;}.cls-96{fill:#41453d;}.cls-97{fill:#383937;}.cls-98{fill:#4c4b3d;}.cls-99{fill:#6b6f60;}.cls-100{fill:#64704f;}.cls-101{fill:#6e716f;}.cls-102{fill:#6e7379;}.cls-103{fill:#75876c;}.cls-104{fill:#67745a;}.cls-105{fill:#868883;}.cls-106{fill:#585542;}.cls-107{fill:#687664;}.cls-108{fill:#464831;}.cls-109{fill:#667051;}.cls-110{fill:#474a38;}.cls-111{fill:#474747;}.cls-112{fill:#4f5039;}.cls-113{fill:#7d8782;}.cls-114{fill:#949a9b;}.cls-115{fill:#7b8082;}.cls-116{fill:#6b7173;}.cls-117{fill:#494a47;}.cls-118{fill:#797a72;}.cls-119{fill:#5b5d5d;}.cls-120{fill:#565a5a;}.cls-121{fill:#7b7c7d;}.cls-122{fill:#464747;}.cls-123{fill:#616464;}.cls-124{fill:#8d9092;}.cls-125{fill:#6e7275;}.cls-126{fill:#76797b;}.cls-127{fill:#373a3a;}.cls-128{fill:#787d7d;}.cls-129{fill:#75777a;}.cls-130{fill:#8c8c89;}.cls-131{fill:#38414b;}.cls-132{fill:#5d656e;}.cls-133{fill:#585f67;}.cls-134{fill:#363941;}.cls-135{fill:#485667;}.cls-136{fill:#262c28;}.cls-137{fill:#737677;}.cls-138{fill:#545657;}.cls-139{fill:#4f5251;}.cls-140{fill:#5c5e5f;}.cls-141{fill:#5d6163;}.cls-142{fill:#5f6673;}.cls-143{fill:#464b53;}.cls-144{fill:#51545a;}.cls-145{fill:#505359;}.cls-146{fill:#3b3f3a;}.cls-147{fill:#7a8086;}.cls-148{fill:#494c49;}.cls-149{fill:#546043;}.cls-150{fill:#596040;}.cls-151{fill:#57613f;}.cls-152{fill:#606666;}.cls-153{fill:#6d7958;}.cls-154{fill:#515552;}.cls-155{fill:#3c4832;}.cls-156{fill:#849371;}.cls-157{fill:#2a2c2b;}.cls-158{fill:#434133;}.cls-159{fill:#595541;}.cls-160{fill:#9da5ae;}.cls-161{fill:#525556;}.cls-162{fill:#969da6;}.cls-163{fill:#8a939e;}.cls-164{fill:#7c838d;}.cls-165{fill:#697382;}.cls-166{fill:#636547;}.cls-167{fill:#b6bbbe;}.cls-168{fill:#313634;}.cls-169{fill:#474c4a;}.cls-170{fill:#8a97a4;}.cls-171{fill:#6d7476;}.cls-172{fill:#49565b;}.cls-173{fill:#39432a;}.cls-174{fill:#323835;}.cls-175{fill:#414c43;}.cls-176{fill:#6f7c8b;}.cls-177{fill:#272a21;}.cls-178{fill:#828990;}.cls-179{fill:#929aa6;}.cls-180{fill:#6b7176;}.cls-181{fill:#393c3d;}.cls-182{fill:#525554;}.cls-183{fill:#7a8999;}.cls-184{fill:#636a6e;}.cls-185{fill:#4a4d4c;}.cls-186{fill:#586470;}.cls-187{fill:#464c55;}</style></defs><title>포3</title><g id="레이어_2" data-name="레이어 2"><g id="레이어_1-2" data-name="레이어 1"><rect class="cls-1" width="74" height="74" rx="8.33" ry="8.33"/><path class="cls-2" d="M49,21.35l.78-.07a.34.34,0,0,1,.27.09c0,.51.66.39.83.76a.94.94,0,0,1,0,.77.77.77,0,0,1-.11.3c-.69,0-.61.62-.85,1a1.45,1.45,0,0,1-.8,0c-.44-.09-.73.06-.77.54a.45.45,0,0,1-.28.16,1.21,1.21,0,0,1-.82,0A.37.37,0,0,1,47,24.7a3.08,3.08,0,0,1-.14-.84,1.87,1.87,0,0,1,.1-.81.73.73,0,0,1,.11-.29c.33-.12.73-.16.73-.65a.36.36,0,0,1,.19-.23A2,2,0,0,0,49,21.35Z"/><path class="cls-3" d="M52,18.83A1.09,1.09,0,0,1,53.09,18c.29.26.42.55.15.9a.86.86,0,0,1-1,.19A.4.4,0,0,1,52,18.83Z"/><path class="cls-4" d="M53.06,18.81l0-.77L53.9,18v.1a.76.76,0,0,1,.33.92.86.86,0,0,1-.95.16A.37.37,0,0,1,53.06,18.81Z"/><path class="cls-5" d="M52,18.83l.23,0a.63.63,0,0,1,.22.86.6.6,0,0,1-.3.24.84.84,0,0,1-.94-.21.45.45,0,0,1,.16-.7Z"/><path class="cls-6" d="M49.77,20.5h.82a.64.64,0,0,1,.25,1,.81.81,0,0,1-1.07-.11.3.3,0,0,0,0-.1C49.76,21,49.77,20.76,49.77,20.5Z"/><path class="cls-7" d="M47.3,22.18v-.64l.84-.2c.33.28.31.55,0,.81l0,0C47.85,22.47,47.58,22.51,47.3,22.18Z"/><path class="cls-8" d="M48.11,22.15c0-.27,0-.54,0-.81H49C49,21.94,48.71,22.21,48.11,22.15Z"/><path class="cls-9" d="M43.17,25.46H44a.64.64,0,0,1,.27.93c-.17.34-.53.32-.86.19a.52.52,0,0,1-.28-.34Z"/><path class="cls-10" d="M42.33,26.25l.79,0,.07.07c.32.27.5.69.21,1a1.06,1.06,0,0,1-1.17.08.71.71,0,0,1,.11-1.07Z"/><path class="cls-3" d="M51.4,19.06v.61c0,.06,0,.12,0,.18-.32.29-.54.07-.76-.15v0C50.7,19.25,50.93,19,51.4,19.06Z"/><path class="cls-11" d="M49,23.82l.76-.05a4.67,4.67,0,0,0,.86-.8v0a1.23,1.23,0,0,0,.56-.88.36.36,0,0,1,.2-.2c.67.06.43-.7.79-.93.18.08.36-.17.37-.19.26-.77.9-.68,1.5-.67.35,0,.7,0,1,0,.72.36.52.78.08,1.21-1.29.89-2.3,2.14-3.71,2.89-2.12,1.13-3.56,3.15-5.7,4.29-1.05.55-1,1.21-.23,2.17a3.6,3.6,0,0,1,1,2.3c0,1.43.12,1.5,1.64,1.57A4.41,4.41,0,0,1,48.79,38c-.16.62.8.87,1,1.47.33.27.33.54,0,.82v2.27c0,1.17,0,2.33,0,3.5v.61c-.29.09-.31.43-.51.62a.92.92,0,0,1-1.07.16.77.77,0,0,1-.44-.82A2,2,0,0,1,48.27,45a1.46,1.46,0,0,0-.4-2.12c-.2-.16-.14-.39-.17-.59,0-.87,0-1.74,0-2.61,0-.44,0-.87-.56-1-.18-.46-.67-.48-1-.48A1.67,1.67,0,0,1,45.3,38a2.32,2.32,0,0,1-.07-.59c-.06-.38,0-.76-.06-1.15-.11-1.18-.27-1.38-1.39-1.34-.86,0-1-.12-.94-1,.11-.52.91-.63.78-1.26-.08-.38,0-1-.51-1s-1.13-.35-1.35.44c-.33.29-.83.41-.89.94-.49.11-.7.51-.94.89-.68.28-.59,1.1-1.09,1.53-.27.24-.44.59-.83.69-1.63-.35-2-1-1.72-2.68.17-.35.78-.16.81-.66a.34.34,0,0,1,.22-.22c.4-.35,1.21.28,1.41-.57a.38.38,0,0,1,.16-.25c.52,0,.65-.34.8-.72.54-.07.67-.57,1-.9.14-.07.35,0,.38-.27a1.72,1.72,0,0,1,1.52-1.6c.38-.07.21-.42.35-.61.63-.19.79-1.2,1.67-1,.41.05.76,0,.8-.51a.34.34,0,0,1,.22-.19,5.85,5.85,0,0,1,.73-.12c.39.06.66,0,.68-.49a.36.36,0,0,1,.2-.2,1.43,1.43,0,0,0,.92-.53v0C48.4,24.36,48.65,24.06,49,23.82Z"/><path class="cls-12" d="M48.11,42.57a1.86,1.86,0,0,1,.62,2.48,1,1,0,0,1-.1.17c-.36.45-.7,1-.29,1.49s.94.07,1.41,0a5.94,5.94,0,0,1-1.4,3,4.47,4.47,0,0,0-1.06,2,1.24,1.24,0,0,0-.82,1c.22.28.59.51.34.94s-.67.93-1.37.73a.87.87,0,0,0-.62.81c-.64.74-1.07.71-1.34-.14-.18-.55-.53-1-.69-1.57s-.17-1,.35-1.19a9.18,9.18,0,0,0-3.88,1.58,1.28,1.28,0,0,1-1.08.07,4,4,0,0,1-1.2,0c-.57,0-1-.32-.71-1.06.25-.46.78-.71.91-1.27a7.49,7.49,0,0,1,.8-.15c.76.17,1.15-.5,1.72-.76s1.3.26,1.61-.56a2,2,0,0,0,1-1,24.51,24.51,0,0,0,3-1.2,2.16,2.16,0,0,0,1.44-1.84,3.33,3.33,0,0,1,.57-1.61,2.32,2.32,0,0,0,.42-1.34C47.71,42.92,47.62,42.51,48.11,42.57Z"/><path class="cls-13" d="M12.59,42.77c.13-.55.54-.73,1-.86a.74.74,0,0,0,.5-1.2c-1-1.15-.56-2.46-.65-3.72.25-.31.58-.56.95-.34s.23.82.27,1.25a2.23,2.23,0,0,1,1.61-2.3c1-.46,2-1,3-1.47.31-.16.29-.35.31-.59s.17-.49.25-.74c1.12-.63,1.51-.42,1.56.83,0,.54,0,1.1,0,1.64a2.08,2.08,0,0,1-1.33,2.11,18.63,18.63,0,0,1-1.79.89c-.22.09-.62.13-.52.5s.42.29.7.29c1.15,0,1.49.26,1.71,1.33.27,1.38.9,2.66,1.09,4.06a1.26,1.26,0,0,1-.23.94c-.59.18-.61.7-.59,1.16a1.94,1.94,0,0,1-.29,1.35,1,1,0,0,1-.94.15c-.17,0-.37-.07-.39-.26-.13-1-.64-1.83-.83-2.78a3.67,3.67,0,0,0-1.35-3.42c-.3-.24-.15-.76-.62-.83s-.5.2-.44.55c.34.31.76.49,1.1.83.55.54.67,1,.16,1.65A1.3,1.3,0,0,1,16,44a2.35,2.35,0,0,1-.87-.12.56.56,0,0,1-.28-.2c-.08-.46-.39-.46-.79-.5A3.15,3.15,0,0,1,12.73,43,.31.31,0,0,1,12.59,42.77Z"/><path class="cls-14" d="M20.05,33.72A1.47,1.47,0,0,1,19,35.09c-.84.31-1.5.89-2.35,1.17a1.91,1.91,0,0,0-1.51,1.92,1.56,1.56,0,0,1,0,.31c0,.29,0,.71-.39.73s-.37-.41-.42-.69,0-.48-.06-.72a.83.83,0,0,0-.76-.82V36.2a6.43,6.43,0,0,1,.81-.84h0a5.91,5.91,0,0,1,.86-.8l.77,0c.12-.16.36-.21.39-.44.07-.75.56-.91,1.21-.82.33,0,.66,0,1,0C19.05,33.32,19.66,33.13,20.05,33.72Z"/><path class="cls-15" d="M17.64,33.64c-.69,0-1,.93-1.72.88,0-.54,0-1.07,0-1.6-.19-.35-.54-.56-.76-.89-.06-.82-.24-1.7,1.05-1.72.41,0,.54-.36.58-.73l.79,0a1.67,1.67,0,0,1,1.78-.21c.35.23.33.56.24.92,0,.18,0,.43-.23.51a2,2,0,0,0-1.28,2.07A1.06,1.06,0,0,1,17.64,33.64Z"/><path class="cls-16" d="M11.78,46.09C11.05,46,11,45.4,11,44.83s.08-1.13.8-1.27a.33.33,0,0,1,.31.17,3.94,3.94,0,0,1,0,2.18A.31.31,0,0,1,11.78,46.09Z"/><path class="cls-17" d="M11.77,43.56a.88.88,0,0,1,.82-.79l.13,0a.73.73,0,0,1,.2.83.42.42,0,0,1-.26.26.64.64,0,0,1-.81-.25Z"/><path class="cls-18" d="M15.14,32a.79.79,0,0,1,.76.89A.77.77,0,0,1,15.14,32Z"/><path class="cls-19" d="M15.15,34.55a.72.72,0,0,1-.86.8A.75.75,0,0,1,15.15,34.55Z"/><path class="cls-20" d="M14.3,35.36a.73.73,0,0,1-.81.84A.72.72,0,0,1,14.3,35.36Z"/><path class="cls-21" d="M14.91,56.39c-.36-1.29-1.16-2.42-1.43-3.74.22-.23.46-.42.81-.28.59.06.34,1,1,1a1.77,1.77,0,0,0,.67.59,2,2,0,0,1,1.31,1.9c0,.37,0,.61.55.55a.86.86,0,0,1,.83.36c.07.19.18.46.35.44,1.29-.18,2.32.78,3.58.78,1,0,1.21.31,1.07,1.35a2.2,2.2,0,0,1-2.75,0l-1.44,0a1.71,1.71,0,0,0-1.09-.83A8.27,8.27,0,0,1,14.91,56.39Z"/><path class="cls-22" d="M43.15,53.1A2.18,2.18,0,0,1,44,54.62c0,.46.34.63.79.54-.49,1.13-1.57,1.65-2.48,2.33-.36.27-.76.44-.83.95a1.29,1.29,0,0,0-1.24.83c0,.24-.17.32-.39.32-.46,0-.91.11-1.38.1a1.85,1.85,0,0,0-1.6.49.72.72,0,0,1-.95.19c-.23-.31-.3-.68-.88-.73s-.68-.69-.6-1.26-.07-1.19.79-1.19a.41.41,0,0,1,.19.05c.09.06.1.08.06,0a.75.75,0,0,1,.46-.92c1.22-.6,2.39-1.31,3.65-1.84a5.44,5.44,0,0,0,1.39-1A1.75,1.75,0,0,1,43.15,53.1Z"/><path class="cls-23" d="M34.69,60.91l-.39,0h-1c-.43.52-1.27.22-1.66.82-1.35,0-2.68.15-4-.66-.71-.46-1.74-.14-2.63-.15l-.83,0a2.74,2.74,0,0,0-2-.8,1.4,1.4,0,0,1-1.29-.82c.82-.1,1.69.26,2.48-.22a1,1,0,0,1,1-.4c1,.19,2.21-.14,3,.86a.89.89,0,0,0,.82.15c1.16,0,1.4-.23,1.39-1.2,0-.53-.58-.56-.73-.95a.77.77,0,0,1,.08-.76c.47-.63,1.09-.31,1.66-.28s.52.74.7,1.16c.68,1,.67.94,1.85.43a1.39,1.39,0,0,1,1.77.35c.08.81,1.09.91,1.24,1.65.05.46-.32.41-.57.42A1.28,1.28,0,0,0,34.69,60.91Z"/><path class="cls-24" d="M31.61,61.75c.2-1,1-.79,1.66-.82C33,61.7,32.3,61.75,31.61,61.75Z"/><path class="cls-25" d="M62.12,12.27c.79.36,1.08,1.25.81,2.51-.2,1-1,.73-1.63.77a.6.6,0,0,1-.23-.83c.72-.37.7-1,.66-1.71C61.65,12.66,62,12.5,62.12,12.27Z"/><path class="cls-26" d="M62.12,12.27v.82a.81.81,0,0,1-.71.4,1.35,1.35,0,0,1-.81-.16.38.38,0,0,1-.13-.3C60.64,12,61.47,12.32,62.12,12.27Z"/><path class="cls-27" d="M61.32,14.78l0,.77-.79.06a.41.41,0,0,1-.31-.25c-.1-.92,0-1.06.89-.91A.42.42,0,0,1,61.32,14.78Z"/><path class="cls-28" d="M60.51,15.61a.83.83,0,0,1-.82.83.34.34,0,0,1-.3-.21.7.7,0,0,1,.2-.87.57.57,0,0,1,.87.14Z"/><path class="cls-29" d="M59.64,17.19l-.8.08a.37.37,0,0,1,0-.11c-.39-.27-.36-.62-.18-1,.39-.29.7-.11,1,.19a.47.47,0,0,1,0,.1Z"/><path class="cls-30" d="M59.66,13.09l.81-.06a.36.36,0,0,0,0,.11c.32.26.49.6.2.93a.8.8,0,0,1-1.05,0A.59.59,0,0,1,59.66,13.09Z"/><path class="cls-31" d="M55.58,18l-.06.8c-.24.32-.54.56-.8.85h0a.75.75,0,0,1-1.05.17c-.31-.42-.06-.73.23-1v-.78l.8-.06C55,17.76,55.3,17.47,55.58,18Z"/><path class="cls-32" d="M55.58,18l-.89,0a2.56,2.56,0,0,1,1.66-1.64l.19.1A1.12,1.12,0,0,1,56.37,18Z"/><path class="cls-33" d="M56.35,16.35a1,1,0,0,1,.84-.87v.09c.3.27.48.62.2,1s-.69.2-1-.1Z"/><path class="cls-34" d="M30,28.75l.77.42a6.16,6.16,0,0,1-.19,2.09.69.69,0,0,0,.24.81.61.61,0,0,1,.23.78c-.37.34-.84.6-.9,1.15a2.69,2.69,0,0,1-.79.11c-.57-.1-.71.23-.71.71-.39.26-.56.82-1.13.84l-.37,0c-1.11.41-1.71-.35-2.34-1a1.84,1.84,0,0,1-.18-1,9.22,9.22,0,0,1,3.64-2.44,2,2,0,0,0,1.24-1.77C29.56,29.21,29.42,28.69,30,28.75Z"/><path class="cls-35" d="M33.23,31.28c1,.21,1.66-.65,2.53-.86.67.71.27,1.6.4,2.4a7,7,0,0,1-.22,2.58c-.28.52-.67.3-1,.18-.3-.42-.61-.78-1.23-.69a.68.68,0,0,1-.68-.44C32.85,33.38,32.53,32.29,33.23,31.28Z"/><path class="cls-36" d="M44.8,27.08c-.8-.18-.83,1-1.61.89-.56.34-1.11.72-1.64,0v-.78c.24-.35.5-.38.78-.05a.85.85,0,0,0,.87-.79.86.86,0,0,0,.8-.85h0c.29-.25.55-.55.84-.81v0c.57.06.86-.19.85-.77l.78-.07a.39.39,0,0,1,.26.07,1.67,1.67,0,0,0,.56.75l0,.09c.34.27.3.53,0,.77h0c-.19.17-.3.43-.61.42a1,1,0,0,0-1,.42h0C45.35,26.53,45.11,26.85,44.8,27.08Z"/><path class="cls-37" d="M41.55,27.92l1.64,0c-.06.19-.07.49-.2.56a3.43,3.43,0,0,0-1.68,1.7c-.06.13-.36.15-.55.22a.4.4,0,0,1-.28-.07c-.08-.25-.32-.41-.2-.75s-.14-.5-.49-.44a1.41,1.41,0,0,1-.69-.2.45.45,0,0,1-.09-.28c.18-.71.74-.79,1.33-.8Z"/><path class="cls-38" d="M33.23,31.28l0,3.21a1.06,1.06,0,0,0,0,.19,1,1,0,0,1-.9.25,2.34,2.34,0,0,1-.95-.19,1.17,1.17,0,0,1-.12-.86c-.16-.61.69-.47.71-.94.19-.43-.5-.49-.37-.9C31.79,31,32.58,31.3,33.23,31.28Z"/><path class="cls-39" d="M36.59,30.43l.79-.09a.33.33,0,0,1,.29.18c.11.37.45.25.71.3s.83-.21,1,.4A.63.63,0,0,1,39,32h0a.86.86,0,0,1-.83.41.88.88,0,0,0-.8.44h0a.8.8,0,0,1-.81.28.54.54,0,0,1-.31-.32C36.26,32,35.83,31.16,36.59,30.43Z"/><path class="cls-40" d="M36.59,30.43l0,2.41c-.28.53-.57.43-.86,0,0-.81,0-1.62,0-2.43Z"/><path class="cls-41" d="M31.6,32a.82.82,0,0,1,.82.86,1.19,1.19,0,0,1-1.5.24.31.31,0,0,1-.17-.29c0-.26.05-.52.08-.78Z"/><path class="cls-42" d="M38.18,29.53a.85.85,0,0,1,.83-.82l.06.08c.23.2.4.42.26.75a.46.46,0,0,1-.19.28.87.87,0,0,1-.83,0A.35.35,0,0,1,38.18,29.53Z"/><path class="cls-43" d="M37.38,30.34c0-.53.33-.74.8-.81l.06.08a.75.75,0,0,1,.17,1c-.4.31-.71.09-1-.17C37.39,30.42,37.39,30.38,37.38,30.34Z"/><path class="cls-44" d="M42.32,27.09l-.78.05a.8.8,0,0,1,.8-.86Z"/><path class="cls-45" d="M30,28.75c0,1.23.09,2.62-1.35,3.14-.78.28-1.46.71-2.22,1-.51.2-.74.84-1.38.82-.8-.65-.5-1.48-.36-2.29.62-.67.94-1.54,2.22-1.53a2.07,2.07,0,0,0,1.91-1.59c0-.2.23-.22.3-.36C29.69,27.91,30,28.21,30,28.75Z"/><path class="cls-46" d="M29.13,28c0,1.61-.55,2.37-2.15,2.44-.82,0-1.13.88-1.89.89a.42.42,0,0,1-.31-.13,1.27,1.27,0,0,1-.18-.85,2.89,2.89,0,0,1,.13-.88c.26-.37.66-.24,1-.25s.86,0,1.13-.41l.6,0c.33-.22.55-.55.87-.77Z"/><path class="cls-47" d="M26.86,28.76c-.23,1.1-1.14.72-1.82.85-.77.63-1.71.29-2.57.45a.42.42,0,0,1-.42-.42,1.94,1.94,0,0,1,2.13-2c.65.08.25,1,.87,1.11Z"/><path class="cls-48" d="M22.53,27.08l0-.79c.66,0,1.43-.17,1.66.78,0,.07,0,.14-.08.2C23.57,27.55,23,27.76,22.53,27.08Z"/><path class="cls-49" d="M25.05,28.72a.88.88,0,0,1-.89-.81c-.29-.26-.32-.51,0-.76l.06-.08C25.12,27.3,25,28.05,25.05,28.72Z"/><path class="cls-50" d="M28.33,28a.79.79,0,0,1-.87.77C27.45,28.13,27.77,27.9,28.33,28Z"/><path class="cls-51" d="M24.16,27.15v.76a3,3,0,0,0-1.82,1.66,5.53,5.53,0,0,1-2.6,1.22.38.38,0,0,1-.5-.4v-.84c-.35-.27-.3-.54,0-.8h0A7,7,0,0,1,20.1,28l1.59-.11a3.8,3.8,0,0,0,.83-.77h0Z"/><path class="cls-52" d="M19.24,28.75c0,.27,0,.53,0,.8H17.56C17.75,28.51,18.58,28.81,19.24,28.75Z"/><path class="cls-53" d="M20.1,28a.78.78,0,0,1-.87.77A.76.76,0,0,1,20.1,28Z"/><path class="cls-48" d="M22.52,27.09a.79.79,0,0,1-.83.77c0-.25,0-.51,0-.76Z"/><path class="cls-54" d="M47.3,22.18h.83a.75.75,0,0,1-.84.81Z"/><path class="cls-55" d="M51.42,22.16c0,.57-.3.82-.85.79v-.8l.08-.18C51,21.75,51.25,21.74,51.42,22.16Z"/><path class="cls-56" d="M46.44,23.75l0-.76h.82v.82c-.25.31-.51.36-.81.06Z"/><path class="cls-57" d="M50.58,23a.8.8,0,0,1-.86.8C49.69,23.17,50,22.88,50.58,23Z"/><path class="cls-58" d="M46.48,23.86l.81-.06,0,.77C46.73,24.63,46.48,24.38,46.48,23.86Z"/><path class="cls-59" d="M49,23.82c0,.56-.27.85-.85.8A.71.71,0,0,1,49,23.82Z"/><path class="cls-60" d="M49.77,21.38l.82-.06c.52.28.28.55,0,.82h0C50.07,22.15,49.75,22,49.77,21.38Z"/><path class="cls-61" d="M47.27,25.43l0-.77.82,0A.76.76,0,0,1,47.27,25.43Z"/><path class="cls-62" d="M44.82,24.63a.76.76,0,0,1-.84.81A.72.72,0,0,1,44.82,24.63Z"/><path class="cls-63" d="M52.23,19.67l0-.8.8-.06v.09c.32.28.55.62.16,1S52.49,20.06,52.23,19.67Z"/><path class="cls-64" d="M52.23,19.67a.8.8,0,0,0,.83-.77l.83-.07,0,.87c.33.28.3.54,0,.78s-.74-.11-.79.38-.51.4-.82.49a10.72,10.72,0,0,0-.85.8h0l-.84,0V20.5h0c.19-.16.32-.42.62-.41a1,1,0,0,0,1-.42Z"/><path class="cls-65" d="M52.23,19.67a.81.81,0,0,1-.85.8c-.33-.28-.28-.54,0-.78v0Z"/><path class="cls-66" d="M51.42,19.69l0,.78-.79,0v-.8Z"/><path class="cls-67" d="M48.11,42.57a4.37,4.37,0,0,1-.63,2.94,1.76,1.76,0,0,0-.17,1,1.82,1.82,0,0,1-1.15,1.8c-1.22.44-2.33,1.37-3.76,1.09a.37.37,0,0,1-.31-.15c-.33-.41-.18-.89-.16-1.35a1.73,1.73,0,0,1,0-.32c.74-.18,1-.66.79-1.22,0-.29-.16-.15,0-.15s.06,0,.05,0c-.08.3-.1.66-.56.6-.31.12-.58,0-.87-.08-.29-1.1-1.22-2-1-3.27A11.19,11.19,0,0,0,42,42.63a2,2,0,0,1,1.19.12,1,1,0,0,0,1.16-.15,1.27,1.27,0,0,1,1.89.21c.37.42.41.38.61-.43,0-.24,0-.49.39-.52a.69.69,0,0,1,.85.31Z"/><path class="cls-68" d="M47.26,42.74c-.07.62-.38.92-1,.54a1.33,1.33,0,0,0-2,.26c-.31.41-.69.33-1.06,0a9.53,9.53,0,0,0-.84-.57c-.15,0-.35,0-.36-.14-.2-1.45-1.32-2.73-.84-4.31a1,1,0,0,1,1.67.32c.41.65.82.59,1.18-.08a3,3,0,0,0,.3-1.08c0-.39.18-.65.62-.63s.51.18.71.36l0,.38a1,1,0,0,0,1,.45,1.39,1.39,0,0,1,.84.46c.29.24.16.57.17.86A2.31,2.31,0,0,0,47.26,42.74Z"/><path class="cls-69" d="M45.63,37.42l-.8,0c-.13,0-.29,0-.38-.07-.22-.28-.12-.87-.58-.88a3.5,3.5,0,0,0-1.54.5c-.29.14-.46.52-.87.44a2.26,2.26,0,0,1-.82,0,1.75,1.75,0,0,1-1.12-1.13c-.17-1.1-.17-1.07,1-1.22.16,0,.59,0,.66-.34a2.15,2.15,0,0,1,.13-.32c.65,0,.68-.6.91-1,.28,0,.57-.08.83.09a.34.34,0,0,1,.17.3c0,.63.49.72,1,.77,1.31.13,1.4.24,1.43,1.58C45.65,36.53,45.63,37,45.63,37.42Z"/><path class="cls-70" d="M35.75,32.85h.86l.16.06c.33.26.34.52,0,.78-.32,1.28-.16,1.52,1.43,2.08.41.07,1-.3,1.16.4a2.78,2.78,0,0,1,0,1.8,1.12,1.12,0,0,1-.92.22l-.35-.1c-.27-.35-.45-.86-1.05-.64s-1-.21-1-.85c.3-.58-.58-.84-.37-1.39Z"/><path class="cls-71" d="M39.05,36.2a1.46,1.46,0,0,1-.85-.44,2.24,2.24,0,0,1,1.66-2.12.36.36,0,0,1,.26.11c.09.29.26.35.57.32s.71,0,.81.44a1,1,0,0,1-.87.85.88.88,0,0,0-.78.8C39.61,36.69,39.33,36.46,39.05,36.2Z"/><path class="cls-72" d="M41.5,32c.19-.82.82-.82,1.46-.75a1.05,1.05,0,0,1,1,1c.08.65.06,1.27-.75,1.46l-.07-.07c-.17-.18-.4-.34-.42-.63.06-.91-.83-.4-1.14-.76A.39.39,0,0,1,41.5,32Z"/><path class="cls-12" d="M47.26,39.49v-.81q-.15-.15,0-.24a1.17,1.17,0,0,1,.8,1.28c0,.81,0,1.63,0,2.45l-.78,0A2.32,2.32,0,0,1,47.26,39.49Z"/><path class="cls-73" d="M47.3,38.44l0,.24c-.65-.08-1.47.15-1.61-.88C46.27,37.86,47,37.67,47.3,38.44Z"/><path class="cls-74" d="M37.39,32.88c.18-1,1-.83,1.63-.85C38.85,33,38.08,32.88,37.39,32.88Z"/><path class="cls-75" d="M53.87,20.48l0-.78.8,0c0,.27,0,.54,0,.81Z"/><path class="cls-76" d="M51.41,22.15c0-.61.27-.84.85-.8C52.26,21.93,52,22.21,51.41,22.15Z"/><path class="cls-77" d="M40.76,30.45a.9.9,0,0,1-.86.83.47.47,0,0,1-.32-.28.64.64,0,0,1,.17-.86c.38-.29.67,0,.93.25Z"/><path class="cls-78" d="M39,32l0-.8c.22-.5.5-.31.78-.05l.07.1A.79.79,0,0,1,39,32Z"/><path class="cls-79" d="M40.65,32.84A.92.92,0,0,1,41.5,32l0,.07a.71.71,0,0,1,.24.93.61.61,0,0,1-.91.14A.38.38,0,0,1,40.65,32.84Z"/><path class="cls-80" d="M39.86,33.64a.87.87,0,0,1,.79-.8l.08.07c.3.3.52.65.12,1s-.69.13-1-.16Z"/><path class="cls-81" d="M45.64,26.28a.8.8,0,0,1,.85-.81c.33.28.29.55,0,.79Z"/><path class="cls-82" d="M46.45,26.26l0-.79.79,0A.8.8,0,0,1,46.45,26.26Z"/><path class="cls-83" d="M44.8,27.08a.73.73,0,0,1,.85-.79A.71.71,0,0,1,44.8,27.08Z"/><path class="cls-35" d="M36.77,33.68V32.9h.63A.79.79,0,0,1,36.77,33.68Z"/><path class="cls-84" d="M56.4,16.43a.82.82,0,0,0,.8-.86l.79-.06c.56,0,.75.42.87.88l0,.77-.79.07a2.72,2.72,0,0,0-.7.81H57.2l-.83,0Z"/><path class="cls-85" d="M58,18l-.83,0a.8.8,0,0,1,.87-.77Z"/><path class="cls-86" d="M54.72,19.68a.73.73,0,0,1,.8-.85A.75.75,0,0,1,54.72,19.68Z"/><path class="cls-87" d="M34.91,58.43A3,3,0,0,0,33,59c-1.15.8-2.15.32-2.23-1,.87-1.88,2.7-2.54,4.36-3.4a4.17,4.17,0,0,1,2.68-.74c.26,0,.54-.24.79-.4a9.72,9.72,0,0,1,3.77-1.68c.48-.09.74-.47,1.12-.68s.74-.33,1,0,.07.74-.21,1-.8.63-1.2.94a6.82,6.82,0,0,0-2.55,1.61A12,12,0,0,1,38.22,56c-.86.49-1.91.7-2.48,1.64h0A.86.86,0,0,0,34.91,58.43Z"/><path class="cls-88" d="M38.63,53.5c-.49,1-1.66,1-2.49,1.45a28.92,28.92,0,0,0-5,2.91,2,2,0,0,1-.36.18c-.07-.41-.15-.83-.22-1.25-.39-.29-.39-.59,0-.91.59-.09.56-.74.93-1a2.68,2.68,0,0,0,2.37-1.68,1,1,0,0,1,.81-.09c.4,0,.76,0,.81-.5a.31.31,0,0,1,.23-.2.84.84,0,0,1,.77,0,.3.3,0,0,1,.12.28C36.9,53.9,37.9,53.36,38.63,53.5Z"/><path class="cls-89" d="M39.89,51.06c-.2,1-1,.71-1.65.76-.6-.41-.39-1-.31-1.54.47-.33.77-.83,1.2-1.19.32,0,.64-.24.94,0a2.45,2.45,0,0,1,.2,1C40.34,50.53,40.09,50.78,39.89,51.06Z"/><path class="cls-90" d="M38.24,50.24v1.58l-.85,0c-.51-.1-.39-.51-.4-.84,0-.63-.07-1.35,1-1.08A.42.42,0,0,1,38.24,50.24Z"/><path class="cls-91" d="M39.89,51.06l0-.82a1.17,1.17,0,0,1,1.52-.3.35.35,0,0,1,.18.32C41.33,51.22,40.54,51,39.89,51.06Z"/><path class="cls-88" d="M37.37,51l0,.84a.93.93,0,0,1-.8.85l0,0c-.62-.55-.42-1.2-.2-1.85A.73.73,0,0,1,37.37,51Z"/><path class="cls-92" d="M42.4,49.39a.86.86,0,0,1-.84.87l-.07-.09a.77.77,0,0,1-.16-1c.42-.34.7-.05,1,.23Z"/><path class="cls-93" d="M16,43.6l.82,0,.16,0c.49,1,.15,2.09.24,3.14.05.54,0,1.08,0,1.62s.52.67.92.79.65-.17.63-.61-.1-.8.48-.81l.8,0,.19.08c.45,1,.16,2,.22,3,0,.15.22.35,0,.51A1.57,1.57,0,0,0,21,52.76c.48.37.21,1.07.27,1.62a1,1,0,0,1,0,.38c-.57.17-.71.81-1.19,1.08A.88.88,0,0,1,19,55.43c-.25-.57-.73-.69-1.22-.84-.54-1-1.58-1.66-1.43-3,0-.32-.08-.69-.55-.68-.31-.11-.28-.36-.29-.61s0-.59-.33-.71a.4.4,0,0,1-.1-.29c-.13-.71-.68-.75-1.24-.78s-1.1-.1-1.19-.82a1.43,1.43,0,0,1,1.47-.46c1.27.11,1.37,0,1.37-1.28,0-.29,0-.58,0-.87C15.61,44.59,15.38,44,16,43.6Z"/><path class="cls-94" d="M15.93,45.24c0,2.49,0,2.49-2.44,2.49h-.82c0-.69-.79-1-.89-1.64l.11,0c.5-.4.36-1,.34-1.49a1.17,1.17,0,0,1,.41-1v0a2.15,2.15,0,0,1,2.49,0h0a1,1,0,0,1,.41.73c0,.19,0,.4-.32.41s-.64.16-.85.8c.33-.46.53-.71.89-.65C15.58,44.8,15.74,45,15.93,45.24Z"/><path class="cls-95" d="M15.07,53.52a.89.89,0,0,1-.79-.84,3.28,3.28,0,0,1,0-3.28l.78-.07,0,.1c.7.51.33,1.29.42,1.93a2.38,2.38,0,0,1,0,1.09c0,.31.07.63-.15.91A.36.36,0,0,1,15.07,53.52Z"/><path class="cls-96" d="M14.32,49.4c0,1.09,0,2.19,0,3.28l-.8,0c0-.76,0-1.51,0-2.27A.87.87,0,0,1,14.32,49.4Z"/><path class="cls-97" d="M18.4,39.45a7,7,0,0,1-.92,0c-.45,0-1.13.19-1.25-.38s.48-1,.91-1.09c.94-.18,1.53-1,2.49-1.12a1.55,1.55,0,0,0,1.21-1.38c.28-1.47,0-2.28-.77-2.63l-.19-.09c-.07-.07-.09-.16-.21-.2-.59-.18-1-.5-.85-1.22s.84-.49,1.3-.58a2.18,2.18,0,0,1,1.48.16.7.7,0,0,1,.49.66c-.07.64.31,1,.71,1.3A18,18,0,0,1,23,35.22c.05.78.67.52,1.08.53.75,0,1.53-.16,2,.67a.5.5,0,0,1,0,.5c-.29.4-.93.56-.85,1.22a1.26,1.26,0,0,1-1.07.13c-.94-.16-1.08-.05-1.14.86a3.2,3.2,0,0,0,0,.82c.07.42-.21.53-.5.65s-.58-.23-.9-.12-.39-.29-.52-.51A2,2,0,0,0,18.4,39.45Z"/><path class="cls-98" d="M18.4,39.45c.5-1.31,1.61-.75,2.48-.74s.81.76.84,1.38a3.86,3.86,0,0,1,1.15,4.6c-.68.11-1.39.36-2-.26a17.65,17.65,0,0,1-1.18-3.67C19.55,40,19.21,39.51,18.4,39.45Z"/><path class="cls-99" d="M16.78,43.58c-.06-.7-.68-1-1.07-1.44s-.58-.58-.57-1l.79-.78a4,4,0,0,1,2.48,3.19c0,.44,0,.89,0,1.33a.67.67,0,0,1-.83.3c-.43-.06-.42-.42-.42-.71a1,1,0,0,0-.4-.83Z"/><path class="cls-100" d="M17.61,44.83h.81a5.27,5.27,0,0,1,.83,2.91l0,1a1.06,1.06,0,0,1-1.48.28c-.46-.21-.47-.63-.5-1.11a20.21,20.21,0,0,1,0-2.46C17.23,45.12,17.3,44.93,17.61,44.83Z"/><path class="cls-101" d="M20.89,44.43l1.87,0c.68-.78,1.58-.39,2.4-.42a2.77,2.77,0,0,1,.64,0c.33,0,.66,0,1,0a2.51,2.51,0,0,1,1,.23c.29,1.17.1,1.49-1,1.51-1.54,0-3.09,0-4.63,0a2,2,0,0,1-1-.22.48.48,0,0,1-.25-.34Z"/><path class="cls-102" d="M20.05,47.73c0-.47,0-.94,0-1.41a1,1,0,0,1,.79-1.12l.07.1c.57.45.49,1.12.58,1.73-.21.29-.21.68-.5.93a.68.68,0,0,1-.94-.24Z"/><path class="cls-103" d="M15.12,43.61H12.63l.09-.82h1.42A.85.85,0,0,1,15.12,43.61Z"/><path class="cls-104" d="M15.93,45.24h-.8c-.52-.23-.3-.51-.05-.79l0-.85H16Z"/><path class="cls-15" d="M20.05,33.72l-1.68-.08c-.24-.28-.49-.54-.14-.94s.91-.23,1.36-.18a.74.74,0,0,1,.48.33v0Z"/><path class="cls-105" d="M15.93,40.32c0,.51-.26.79-.79.78C15.11,40.55,15.35,40.26,15.93,40.32Z"/><path class="cls-106" d="M20.07,32.85c-.65.09-1.46-.17-1.7.79h-.73c0-.5-.06-1-.06-1.51,0-1.48.14-1.63,1.66-1.74,1-.45,1.93-1.06,3.1-.82l.21.2c.16.12.39.19.31.46a1.09,1.09,0,0,1-.07.3c-.18.35-.66.31-.85.66a.48.48,0,0,1-.26.07l-.31,0C19.44,31.17,19.44,31.17,20.07,32.85Z"/><path class="cls-107" d="M12.64,43.59c0,.51,0,1,0,1.52s-.18.86-.73.94c0-.81,0-1.61,0-2.42Z"/><path class="cls-108" d="M20.06,55.57a1.48,1.48,0,0,1,.81-1c.28,0,.31.21.38.45.42,1.31.37,1.36,2,1.41,1.31,0,2.62-.09,3.93,0a.88.88,0,0,1,.18,1.14c-.58.84,0,1.09.58,1.34.27.12.57.14.68.47s-.08.53-.29.73a15.51,15.51,0,0,0-4.95-1c-.18-.31-.44-.59-.79-.55a7.72,7.72,0,0,1-3.37-.89c-.43-.15-.73-.34-.82-.79a.4.4,0,0,1,.06-.26A6.24,6.24,0,0,0,20.06,55.57Z"/><path class="cls-109" d="M16.79,56c-.11-.75-.82-1-1.24-1.5a1.56,1.56,0,0,1-.48-.93l.09,0c.31-.23.45-.66.9-.7s.76.32,1,.69a4.22,4.22,0,0,0,.7.92c0,.24.28.3.45.38.74.35.83.75.29,1.44C17.92,56.29,17.28,56.57,16.79,56Z"/><path class="cls-110" d="M16.79,56l1.62.07c.5.25.27.51,0,.77l0,.05C17.74,56.75,16.93,56.94,16.79,56Z"/><path class="cls-23" d="M35.74,57.62h.11c.3,0,.69-.22.89.22,0,.06-.11.26-.2.3-.5.21-.67-.13-.8-.51Z"/><path class="cls-111" d="M27.08,56.82l-3.82,0c-1.69,0-2.23-.53-2.39-2.27a1.49,1.49,0,0,0,0-.21.75.75,0,0,1,.95-.26c.33.21.37.58.5.89,0,.68.51.56,1,.59,2.14.11,4.27-.13,6.4,0,.31,0,.64,0,.91.17a.31.31,0,0,1,.18.29l-.21.8L29.15,57C28.43,57.22,27.72,57.42,27.08,56.82Z"/><path class="cls-112" d="M27.08,56.82a5.2,5.2,0,0,1,2.07.19c0,.19,0,.39,0,.58v.14c-.67.3-.31,1-.6,1.49a.41.41,0,0,1-.26.07,5.75,5.75,0,0,1-.86-.27c-1.17-.62-1.2-.75-.49-1.82A1.32,1.32,0,0,0,27.08,56.82Z"/><path class="cls-112" d="M28.32,60.1c0-.27,0-.54,0-.81l0,0c.65-.36.1-1.3.8-1.63l0,0c.74.18.85.72.72,1.35A1.39,1.39,0,0,1,28.32,60.1Z"/><path class="cls-113" d="M61.29,13.11l.83,0c-.08.65.39,1.57-.8,1.69v-.1C60.71,14.17,60.79,13.64,61.29,13.11Z"/><path class="cls-114" d="M61.29,13.11l0,1.57c-.5.05-.9.2-.85.82l-.79.09-.18-.05a1.11,1.11,0,0,1-.23-.86c-.09-.37.21-.55.39-.79h0a.76.76,0,0,0,.85-.75Z"/><path class="cls-115" d="M58.86,16.39a.87.87,0,0,1-.87-.88l0-.77.79-.06a.41.41,0,0,1,.26.07,1.6,1.6,0,0,0,.57.74l0,.1,0,.75Z"/><path class="cls-116" d="M59.65,13.89v.85c-.25.3-.52.35-.8,0l0-.09,0-.77Z"/><path class="cls-117" d="M25.82,36.6a4,4,0,0,0-2.06-.43c-.58,0-1.1-.11-1.17-.84.2-.16.31-.46.65-.4.47-.12,1,.19,1.43-.26a.42.42,0,0,1,.39-.16c.79.16,1.28,1.09,2.23.85.27.85.12,1-.71,1.18C26.32,36.59,26.06,36.49,25.82,36.6Z"/><path class="cls-118" d="M25.06,34.51,25,34.9c-.75.17-1.18,0-1.17-.9a2.14,2.14,0,0,0-.6-1.69A.83.83,0,0,1,23.3,31c.59-.14,1.19-.32,1.68.22l.11.08,0,2.44Z"/><path class="cls-119" d="M27.48,35.32c0-.56.31-.78.82-.81a1.05,1.05,0,0,1,.91-.38c.33,0,.68-.08,1,.17a1.06,1.06,0,0,1-.66,1.63,2.25,2.25,0,0,0-.64.52,1.55,1.55,0,0,1-1.42-.07C27.14,36,27.39,35.67,27.48,35.32Z"/><path class="cls-120" d="M27.48,35.32l0,.89c.28.25.53.57.25.89a1.45,1.45,0,0,1-1.5.26A.8.8,0,0,1,26,37.2l-.14-.2,0-.4c.42-.5,1.3-.45,1.47-1.24Z"/><path class="cls-121" d="M30,34.55l-.84,0c-.33-.28-.33-.55,0-.81l.77,0a.65.65,0,0,1,1-.05A.93.93,0,0,1,31,34.69.75.75,0,0,1,30,34.55Z"/><path class="cls-120" d="M30.81,33.7l-.87,0a.76.76,0,0,1,.81-.82l.08,0c.22.21.41.43.15.75Z"/><path class="cls-122" d="M29.17,33.72l0,.81-.84,0A.84.84,0,0,1,29.17,33.72Z"/><path class="cls-123" d="M35.73,35.2c.43.2.81.44.81,1a1.28,1.28,0,0,1-1.17.46c-.74,0-.9-.28-.73-1.1a.42.42,0,0,1,.34-.26Z"/><path class="cls-123" d="M33.27,34.49c.64.12,1.5-.24,1.71.8l-.1.1a1.26,1.26,0,0,1-1.06.44c-.32,0-.7-.08-.84-.36a.67.67,0,0,1,.28-.89Z"/><path class="cls-124" d="M39.83,31.18l-.78.05c-.62-.1-1.47.27-1.65-.77l.79-.08a9.26,9.26,0,0,0,.85-.81h0c.3-.25.54-.56.85-.79,1.41,0,.62,1,.8,1.61C40.13,30.38,39.76,30.54,39.83,31.18Z"/><path class="cls-125" d="M39.88,28.78a.78.78,0,0,1-.85.79l0-.78Z"/><path class="cls-126" d="M33.26,34.58c.21.94,1,.72,1.62.81.24.9,1,.77,1.66.8a.93.93,0,0,0,.85.81c.27.28.56.54.81.84h0a.76.76,0,0,1,.34.87c-.11.37-.66.44-.85.38-.56-.17-1.25.19-1.72-.6-.29-.49-1.2-.12-1.79-.36a.74.74,0,0,1-.37-.35c-.27-.56-.61-.37-.91-.05-.66.72-.88.73-1.59,0a7.54,7.54,0,0,1-.08-2.37c.33-.42.93-.35,1.23-.75Z"/><path class="cls-127" d="M31.65,35.37l0,2.46-.11.19c-.87.29-1.31,0-1.21-.87a1,1,0,0,0-.17-.84c-.25-.77.31-1.24.64-1.8l0-.81,0,0c.28-.28.56-.53.81,0l0,.8C32,34.81,31.94,35.09,31.65,35.37Z"/><path class="cls-128" d="M31.6,33.74l-.81,0,0-.82h1.59C32.43,33.45,32.08,33.66,31.6,33.74Z"/><path class="cls-123" d="M31.65,35.37c0-.28,0-.55,0-.83l.83,0A.89.89,0,0,1,31.65,35.37Z"/><path class="cls-129" d="M39,29.57a.8.8,0,0,1-.85.81l.05-.77Z"/><path class="cls-51" d="M22.6,30.43c0-.22,0-.44-.05-.66A6.94,6.94,0,0,1,25,29.61c0,.26,0,.53,0,.79A2.06,2.06,0,0,1,22.6,30.43Z"/><path class="cls-130" d="M22.6,30.43l2.42,0c0,.27,0,.54,0,.8l-1.61,0c-.39-.14-1.27.2-.78-.8Z"/><path class="cls-131" d="M40.7,37l.79,0c.65.5.66.87,0,1.66a2.85,2.85,0,0,0,.54,1.92c.5.71.22,1.6.29,2.41-.36.68-1,.6-1.62.61-.86-.23-.23-1-.45-1.41.18-.81-.73-1.17-.79-1.89A6.23,6.23,0,0,1,40.7,37Z"/><path class="cls-132" d="M40.65,42c0,.54.06,1.07.08,1.61.32.94,1,1.78.81,2.87.52.37.26,1.13.77,1.5,0,.47,0,.93,0,1.4h-.76c-.27.29-.55.5-1,.31a3.1,3.1,0,0,1-.27-2.12,1.37,1.37,0,0,0-.63-1.43,3.39,3.39,0,0,1-.23-1.78c0-.63,0-1.27.05-1.9,0-.27,0-.61.33-.78S40.43,41.72,40.65,42Z"/><path class="cls-133" d="M47.26,39.49l.06,2.64-.06.61c-.93-.15-.8-.9-.79-1.52S46.23,39.71,47.26,39.49Z"/><path class="cls-134" d="M42.31,46.51c.14-.48-.21-1.36.48-1.33s.33.91.36,1.42-.13,1-.79,1.11C41.66,47.34,42,46.92,42.31,46.51Z"/><path class="cls-92" d="M42.31,46.51c0,.4,0,.8,0,1.2,0,.09,0,.17,0,.25-.83-.21-.79-.86-.77-1.5Z"/><path class="cls-135" d="M41.52,38.65l0-1.66c.47-1,1.58-1.12,2.42-1.56.37-.2.78.17.85.64s.05.88.07,1.32a3.79,3.79,0,0,1-.68,2.33c-.7.89-1.38.81-1.8-.25A1.17,1.17,0,0,0,41.52,38.65Z"/><path class="cls-136" d="M40.7,37a4.57,4.57,0,0,1-.87,3.25c0,.41-.23.5-.56.53-.57-.16-.6.43-.91.64a1,1,0,0,0-.81.53,1.35,1.35,0,0,1-1.23.59c-.4,0-1-.25-1-.44.07-.67-.29-1.36.09-2,.2-.33.62-.23.82-.23.41,0,.62-.06.75-.42,0-.14.09-.28.24-.28,1,0,1.39-.57,1.74-1.32,0-.55,0-1.1,0-1.66l.8,0A.89.89,0,0,1,40.7,37Z"/><path class="cls-137" d="M39.87,33.74c.52,0,.88-.23.86-.83l.77,0a1,1,0,0,1,1.63,0v.78l-.77,0c-.31.24-.55.55-.86.79h0C40.89,34.4,40,34.88,39.87,33.74Z"/><path class="cls-138" d="M41.5,34.51a.78.78,0,0,1,.86-.79A.81.81,0,0,1,41.5,34.51Z"/><path class="cls-139" d="M39,37.85c0,1.49-.06,1.58-1.6,1.66a1.76,1.76,0,0,1-2.22,0,3.21,3.21,0,0,0-1.25-.63.66.66,0,0,1-.12-.88.37.37,0,0,1,.29-.21,3.94,3.94,0,0,1,2.81.63c.52.42,1.21.29,1.3-.63Z"/><path class="cls-140" d="M38.2,37.84a.82.82,0,0,1-.81-.84A.76.76,0,0,1,38.2,37.84Z"/><path class="cls-141" d="M43.13,32.89l-1.63,0,0-.77C42.17,32.16,43.07,31.69,43.13,32.89Z"/><path class="cls-142" d="M31.62,55.15a.93.93,0,0,1-.83.84v-.11c-.71-.35-.23-1.08-.46-1.6a9.76,9.76,0,0,1-.09-1,14.14,14.14,0,0,0,.1-2.52c-.14-1.25.61-1.85,1.64-2.16A21.73,21.73,0,0,0,35,47a1.74,1.74,0,0,1,1,.12c.2.17.15.41.17.63,0,1.39.05,2.77-.09,4.17a1.7,1.7,0,0,1-.31.8h0a5.77,5.77,0,0,1-.84.8l-.78.05C33.23,54,32.47,54.64,31.62,55.15Z"/><path class="cls-143" d="M35.75,52.68v-5a.79.79,0,0,1,1-.24,2.11,2.11,0,0,1,.47,1.27c-.39.38-.17.91-.28,1.36a2,2,0,0,1-.36.9l0,1.66Z"/><path class="cls-144" d="M31.62,55.15a2.21,2.21,0,0,1,2.49-1.63A2.24,2.24,0,0,1,31.62,55.15Z"/><path class="cls-145" d="M34.89,53.47a.85.85,0,0,1,.84-.8A.77.77,0,0,1,34.89,53.47Z"/><path class="cls-146" d="M39.9,46.05c.6.09.77.51.77,1,0,.75,0,1.5,0,2.25-.21.55-.49.32-.77.07l-.83,0-.17,0c-.26-.29-.43-.65-.19-1a12.42,12.42,0,0,0,.92-2.24A.3.3,0,0,1,39.9,46.05Z"/><path class="cls-147" d="M39.88,49.4l.77-.07.89,0,0,.8-1.63.07Z"/><path class="cls-148" d="M39.05,49.42a.86.86,0,0,1-.81.82l0-.07a.78.78,0,0,1-.28-.6c.17-1,.65-.56,1.11-.24Z"/><path class="cls-12" d="M38.18,49.76l0,.41a.9.9,0,0,0-.83.84H36.6c0-.76,0-1.51,0-2.27.6-.36,1-.22,1.33.53A2.54,2.54,0,0,0,38.18,49.76Z"/><path class="cls-149" d="M17.61,44.83c0,.75,0,1.51,0,2.27,0,1.4.2,1.57,1.62,1.64,0,.59.19,1.32-.71,1.46-.66.1-1.68-.92-1.71-1.77-.05-1.61,0-3.22,0-4.83C17.53,43.68,17.58,44.24,17.61,44.83Z"/><path class="cls-150" d="M18.42,56.79V56c.05-.72-.8-1-.83-1.69a.29.29,0,0,1,.43,0c1-.13,1.32.91,2,1.25.15.32.74.44.57.88s-.69.33-1.09.35S18.8,56.8,18.42,56.79Z"/><path class="cls-151" d="M18,54.32h-.43c-.59-.35-1-1-1.6-1.26-.27,0-.34-.23-.37-.46,0-.68-.41-1.45.36-2a1,1,0,0,1,.76.86A6.68,6.68,0,0,0,18,54.32Z"/><path class="cls-152" d="M20.07,47.72l.78,0c.72.73.36,1.65.46,2.5-.09.46.12,1-.26,1.39a.63.63,0,0,1-1-.21Z"/><path class="cls-153" d="M16,50.6l0,2.08c-.25.32-.52.35-.79,0,0-1.09,0-2.18,0-3.27C16,49.4,15.91,50.05,16,50.6Z"/><path class="cls-154" d="M20.09,51.42l.78,0a.3.3,0,0,1,.37.23c-.21.77.69.57.85,1,.2.13.06.4.19.55-.27.34,0,1-.6,1.1h-.79a2.31,2.31,0,0,0-.48-1.64A1.67,1.67,0,0,1,20.09,51.42Z"/><path class="cls-155" d="M15.08,44.45c0,.26,0,.52.05.79v.1c-.12.48.23,1.3-.55,1.33s-1-.63-1.07-1.3c0-.9.61-.94,1.26-.93Z"/><path class="cls-156" d="M15.14,52.7l.79,0,.05.39a.84.84,0,0,1-.82.41Z"/><path class="cls-157" d="M26.63,44.39h-.77a5.08,5.08,0,0,1-2.52-2.09,3.47,3.47,0,0,1-.8-2c0-.75,0-1.5,0-2.24.06-.94.54-1.19,1.35-.72a2.41,2.41,0,0,0,1.1.48.73.73,0,0,1,1-.24c.34.22.2.59.27.89s0,.56,0,.84a8.85,8.85,0,0,1,0,1,6.44,6.44,0,0,1,0,.76A1.81,1.81,0,0,0,27,42.91C27.05,43.45,27.19,44,26.63,44.39Z"/><path class="cls-158" d="M22.54,40.3c1,1.48,2.44,2.54,3.32,4.09h-3.1a9,9,0,0,0-1-4.3Z"/><path class="cls-159" d="M23.4,35.34h-.81c0-.8-.05-1.61-.08-2.42a.5.5,0,0,1,.31-.34c.68-.21.87.17.89.74S24,34.74,23.4,35.34Z"/><path class="cls-106" d="M22.51,32.91c-.91-.23-.77-1-.83-1.65l.09-.08a.68.68,0,0,1,1,0c.19.53.38,1.16-.19,1.65Z"/><path class="cls-117" d="M25.84,37.84l-.82,0c0-.52.21-.89.83-.82h0C26.11,37.28,26.37,37.56,25.84,37.84Z"/><path class="cls-160" d="M20.92,46.91V45.3l5.35-.06c.57,0,1.14-.05,1.17-.83-.55-.49-.31-1.15-.37-1.74.18-.6-.32-1.34.4-1.82,1.13-.53,1.13.44,1.4,1.06s-.2,1.45-.13,2.18,0,1.38,0,2.08a.8.8,0,0,1-.43.78,21.56,21.56,0,0,0-3.52,3.43,2.13,2.13,0,0,1-2.08,1,3.32,3.32,0,0,1-1.45-2.3A4.24,4.24,0,0,0,20.92,46.91Z"/><path class="cls-161" d="M27.46,42.79v1.62l-.82,0V42.78l.06-.18C27,42.33,27.26,42.49,27.46,42.79Z"/><path class="cls-162" d="M20.92,46.91a2.37,2.37,0,0,1,.75,1.64,6.89,6.89,0,0,0,.19,1.12c.41,1.29,1.38,1.52,2.33.55a16.15,16.15,0,0,0,1.17-1.3,37.64,37.64,0,0,1,2.95-2.84c.16,0,.34.07.34.15,0,.64.49.88.85,1.21a10.23,10.23,0,0,1,0,1.11.37.37,0,0,1-.44.32c-1.34-.14-2.07.77-2.74,1.67s-1.61,1.68-2.3,2.63-1.3.74-1.81-.17a1.25,1.25,0,0,0-.83-.74.34.34,0,0,1-.09-.3c-.06-.61.17-1.28-.39-1.77l-.07-2.45Z"/><path class="cls-51" d="M22.59,32.83c-.07-.65.06-1.4-.82-1.65a1,1,0,0,1,.82-.75l.78.8c.69,1.16.45,2.72,1.62,3.67-.37.71-1,.4-1.59.44l-.06-1.54A1,1,0,0,0,22.59,32.83Z"/><path class="cls-163" d="M21.68,54.33l.06-1.24c.32-.25.47-.09.69.19a.88.88,0,0,0,1.48.06c.77-.77,1.47-1.61,2.16-2.45a16.77,16.77,0,0,1,1.52-1.52,1.45,1.45,0,0,1,1.89-.15,7.94,7.94,0,0,1,0,2.43,4.56,4.56,0,0,1-2,2.82,8.37,8.37,0,0,0-1.34,1c-1.27.15-2.56-.07-3.84,0-.22,0-.46-.19-.62-.41Z"/><path class="cls-164" d="M21.75,55.14H26a5.2,5.2,0,0,0,3.07-2.38,4.24,4.24,0,0,0,.47-2c0-.3,0-.57.33-.66s.65.23.87.51l0,2.66A2.09,2.09,0,0,0,30.37,55a.88.88,0,0,1-.42,1c-2.46,0-4.92,0-7.37.06C22,56,21.65,55.79,21.75,55.14Z"/><path class="cls-165" d="M30,55.92c.15-.92-.41-2.05.81-2.64l0,2.6Z"/><path class="cls-166" d="M29.13,57.63c0,.66.21,1.45-.8,1.63a1,1,0,0,0-.08-.3C27.56,57.65,27.56,57.65,29.13,57.63Z"/><path class="cls-167" d="M58.86,14.77l.8,0,0,.75C59,15.63,58.81,15.35,58.86,14.77Z"/><path class="cls-168" d="M25.84,37.84V37c.63-.09,1.51.34,1.66-.78l1.21-.07c1-.51.7.32.77.76a1.72,1.72,0,0,1-1.8,1.34.58.58,0,0,0-.77.58.83.83,0,0,1-.3.14.59.59,0,0,1-.73-.26Z"/><path class="cls-169" d="M29.12,37a1,1,0,0,0-.41-.82c.06-.82,1.24-.74,1.27-1.59l.8,0a3.93,3.93,0,0,1-.4,1.65c.13.29-.17.55-.06.84-.26,0-.12.34-.44.38S29.23,37.37,29.12,37Z"/><path class="cls-170" d="M28.35,42.17c-.05-.52-.21-1-.84-1-.78-.66-.47-1.49-.35-2.29s.86-.56,1.43-.53a5,5,0,0,0,3-.49h0a1.19,1.19,0,0,0,.86-.41c.71-.67,1.24-.52,1.61.41h0c-.6.36-.32,1-.52,1.52a1.23,1.23,0,0,0-.84.69,1.72,1.72,0,0,1-1.51.86A2.45,2.45,0,0,0,29.46,42C29.2,42.34,28.84,42.8,28.35,42.17Z"/><path class="cls-171" d="M31.62,37.83a.73.73,0,0,1-.56.76,2.8,2.8,0,0,0-1.25.63,1,1,0,0,1-1.47-.09,1.22,1.22,0,0,0-.77-.44.43.43,0,0,1-.31-.12c-.22-.36,0-.53.27-.71s.67,0,.75-.37.49-.47.84-.53c.65.1.86-.5,1.26-.8a.81.81,0,0,1,.38.87C30.72,37.66,31.05,37.87,31.62,37.83Z"/><path class="cls-172" d="M39.05,40.33l.78-.07c1,.23.84,1,.82,1.72-.58.08-.75.48-.77,1s0,1-.05,1.49c-.87.56-1.13.39-1.29-.8a14.44,14.44,0,0,0,.16-2.55A1.35,1.35,0,0,1,39.05,40.33Z"/><path class="cls-173" d="M39,43.6a.89.89,0,0,0,.79.86c0,.53.05,1.06.07,1.59l-.1.05c-.18.27-.43.51-.73.41a3.6,3.6,0,0,0-1.6,0A1.19,1.19,0,0,1,36.25,46a27.3,27.3,0,0,1-.06-2.86,1.45,1.45,0,0,1,.36-1c.52-.4.92-1,1.65-1s.39.57.4.86A2.72,2.72,0,0,0,39,43.6Z"/><path class="cls-174" d="M36.55,42.16a19.46,19.46,0,0,0,.22,3.89c.15.59.75,1.24-.22,1.69l-.8,0,0-.4c-.71-.77-.25-1.72-.39-2.58-.1-.59.38-1.44-.63-1.7-.21-.25-.16-.57-.21-.86.32-.77-.73-.57-.81-1.08.15-.59-.06-1.2,0-1.81.05-.36.12-.5.39-.63a2.24,2.24,0,0,1,1.8.54c.41.37,1,.22,1.48.31a1.06,1.06,0,0,1-.85.78.89.89,0,0,0-.77.94A.85.85,0,0,0,36.55,42.16Z"/><path class="cls-175" d="M39,43.6c-1.1-.55-.74-1.59-.84-2.48a.8.8,0,0,1,.85-.79C39.05,41.42,39,42.51,39,43.6Z"/><path class="cls-176" d="M34.12,38.66v2.45c.17.25.45.47.36.84,0,.53,0,1.06,0,1.59a4.22,4.22,0,0,1-4.74,3.63,3.67,3.67,0,0,1,1.57-4.82,2.62,2.62,0,0,0,1.44-2.09,2.32,2.32,0,0,1,.47-1.21c0-.59.14-1.12.86-1.22Z"/><path class="cls-165" d="M30,46.91c1-.44,2.07-.83,3.07-1.32.79-.4.83-1.27,1.06-2a.73.73,0,0,1,1-.18c.21,1.31.51,2.63-.2,3.89a1.27,1.27,0,0,1-.88,1c-.74.29-1.45.62-2.18.93a1.54,1.54,0,0,0-1.09,1.36l-.8-.24c-.83-.56-.29-1.41-.39-2.11C29.54,47.88,29.29,47.19,30,46.91Z"/><path class="cls-143" d="M34.93,47.29l0-3.67c-.23-.3-.51-.62.06-.86.62.13.77.58.77,1.13,0,1.15,0,2.29,0,3.43Z"/><path class="cls-177" d="M36.55,47.74a5.34,5.34,0,0,1,.22-1.69c.14,0,.31,0,.4-.06a1.91,1.91,0,0,1,2.63.11A3.84,3.84,0,0,1,39,49.33a1.08,1.08,0,0,0-.85.43l-1.59-1C36.58,48.41,36.57,48.07,36.55,47.74Z"/><path class="cls-178" d="M20.92,50.19c.95.23.77,1,.78,1.67-.27.34-.53.32-.77,0l-.06-.38C20.89,51,20.9,50.61,20.92,50.19Z"/><path class="cls-179" d="M29.13,49.37c-1.16.13-1.81,1-2.54,1.78s-1.37,1.61-2.13,2.35c-1,1-1.38.93-2.34-.07-.12-.12-.26-.23-.38-.34l-.06-.39c-.17-.24-.31-.47.07-.65.64.14.76,1.12,1.46,1s.74-.94,1.24-1.31A13.78,13.78,0,0,0,26.81,49c.73-.89,1.36-1.17,2.31-.49C29.62,48.82,29.62,49.09,29.13,49.37Z"/><path class="cls-180" d="M21.75,52.05l-.07.65a.75.75,0,0,1-.75-.87l.77,0C21.72,51.93,21.73,52,21.75,52.05Z"/><path class="cls-181" d="M26.63,42.78c-1-.23-.75-1-.78-1.67a.75.75,0,0,1,1-.2,1.7,1.7,0,0,1-.13,1.86Z"/><path class="cls-182" d="M25.88,38.7l.8,0c.42.18.37.59.28.87s-.51.35-.85.24a.58.58,0,0,1-.28-.32Z"/><path class="cls-182" d="M25.8,40.34c-.29-.06-.67,0-.65-.45s.39-.37.68-.43l.08.08c.22.19.35.4.18.69A.36.36,0,0,1,25.8,40.34Z"/><path class="cls-182" d="M26.64,41.15l-.79,0c0-.26,0-.51-.05-.77l.1-.09c.31-.31.67-.51,1-.06A.56.56,0,0,1,26.64,41.15Z"/><path class="cls-183" d="M29.13,49.37c0-.28,0-.55,0-.82v-1c-.63-.7-.33-1.57-.4-2.36A1.89,1.89,0,0,0,28.34,44c0-.61,0-1.21,0-1.82.09-.05.21-.08.26-.16a3.54,3.54,0,0,1,3.07-1.84c.65,0,.94-.88,1.56-1.12,0,.47,0,1,0,1.42a2,2,0,0,1-1.51,2.33A2.6,2.6,0,0,0,30,45.68c0,.41,0,.82,0,1.23v3.48c.33,1.53-.93,2.67-1.07,4.09,0,.34-.42.41-.72.47a8.17,8.17,0,0,1-2.15.19,8.65,8.65,0,0,1,1.84-1.58C29.22,52.4,29.22,50.91,29.13,49.37Z"/><path class="cls-184" d="M26.64,41.15a.81.81,0,0,0-.74-.9v-.71a.82.82,0,0,0,.78-.87h0c.26-.32.52-.37.79,0l.11,0-.06,2.45-.05,1.65-.73,0Z"/><path class="cls-179" d="M28.34,44a1,1,0,0,1,.78,1.06v2.47c-.68-.25-.75-.85-.81-1.44Z"/><path class="cls-185" d="M27.46,38.64l-.79,0a.78.78,0,0,1,.86-.8Z"/><path class="cls-186" d="M34.94,42.76l-.06.86-.77,0V41.94c.27-.33.53-.31.78,0Z"/><path class="cls-187" d="M34.89,42l-.78,0,0-.83A.78.78,0,0,1,34.89,42Z"/></g></g></svg>