<svg xmlns="http://www.w3.org/2000/svg" viewBox="0 0 74 74"><defs><style>.cls-1{fill:#1e2223;}.cls-2{fill:#292127;}.cls-3{fill:#20353d;}.cls-4{fill:#3c1d1b;}.cls-5{fill:#1f363f;}.cls-6{fill:#252628;}.cls-7{fill:#323336;}.cls-8{fill:#2e3336;}.cls-9{fill:#2f3336;}.cls-10{fill:#262829;}.cls-11{fill:#2b2b2e;}.cls-12{fill:#333a3e;}.cls-13{fill:#323a3e;}.cls-14{fill:#8f9091;}.cls-15{fill:#4d5052;}.cls-16{fill:#4d5153;}.cls-17{fill:#4b5e66;}.cls-18{fill:#4a5e66;}.cls-19{fill:#7b3036;}.cls-20{fill:#27363d;}.cls-21{fill:#28343a;}.cls-22{fill:#6d4347;}.cls-23{fill:#4f5a5f;}.cls-24{fill:#421f25;}.cls-25{fill:#32373a;}.cls-26{fill:#3b3c3b;}.cls-27{fill:#3a3b3a;}.cls-28{fill:#373224;}.cls-29{fill:#373124;}.cls-30{fill:#36322a;}.cls-31{fill:#404b4d;}.cls-32{fill:#3f4b4d;}.cls-33{fill:#343d31;}.cls-34{fill:#353d31;}.cls-35{fill:#636353;}.cls-36{fill:#787f7f;}.cls-37{fill:#777e7e;}.cls-38{fill:#646258;}.cls-39{fill:#424740;}.cls-40{fill:#646259;}.cls-41{fill:#494230;}.cls-42{fill:#40413f;}.cls-43{fill:#3f2d30;}.cls-44{fill:#2c312b;}.cls-45{fill:#22444a;}.cls-46{fill:#363b3c;}.cls-47{fill:#252729;}.cls-48{fill:#272d2b;}.cls-49{fill:#22444b;}.cls-50{fill:#6d6251;}.cls-51{fill:#3a3c3c;}.cls-52{fill:#35393a;}.cls-53{fill:#414320;}.cls-54{fill:#323128;}.cls-55{fill:#41413f;}.cls-56{fill:#404222;}.cls-57{fill:#3e4123;}.cls-58{fill:#332e28;}.cls-59{fill:#5d160b;}.cls-60{fill:#3c3434;}.cls-61{fill:#5d777d;}.cls-62{fill:#606567;}.cls-63{fill:#4f5254;}.cls-64{fill:#844e46;}.cls-65{fill:#885e58;}.cls-66{fill:#58747b;}.cls-67{fill:#606568;}.cls-68{fill:#597278;}.cls-69{fill:#444;}.cls-70{fill:#646464;}.cls-71{fill:#b76062;}.cls-72{fill:#575859;}.cls-73{fill:#585a5a;}.cls-74{fill:#424242;}.cls-75{fill:#595a5b;}.cls-76{fill:#67605f;}.cls-77{fill:#8e8e8e;}.cls-78{fill:#5c5d5e;}.cls-79{fill:#868686;}.cls-80{fill:#a2a2a2;}.cls-81{fill:#5d5e5f;}.cls-82{fill:#b4b4b4;}.cls-83{fill:#829096;}.cls-84{fill:#4a3d31;}.cls-85{fill:#53482f;}.cls-86{fill:#4a3d32;}.cls-87{fill:#605445;}.cls-88{fill:#766955;}.cls-89{fill:#5d5142;}.cls-90{fill:#756855;}.cls-91{fill:#5a4f3f;}.cls-92{fill:#594d3d;}.cls-93{fill:#645849;}.cls-94{fill:#545243;}.cls-95{fill:#a9a59e;}.cls-96{fill:#7a7465;}.cls-97{fill:#6e633d;}.cls-98{fill:#615a44;}.cls-99{fill:#8f8773;}.cls-100{fill:#6d5f44;}.cls-101{fill:#8b8881;}.cls-102{fill:#615747;}.cls-103{fill:#8e8673;}.cls-104{fill:#a0968a;}.cls-105{fill:#727272;}.cls-106{fill:#625b55;}.cls-107{fill:#3e3722;}.cls-108{fill:#213136;}.cls-109{fill:#5b5211;}.cls-110{fill:#4d4e29;}.cls-111{fill:#595855;}.cls-112{fill:#434343;}.cls-113{fill:#514f42;}.cls-114{fill:#505050;}.cls-115{fill:#5e5e5e;}.cls-116{fill:#5b6163;}.cls-117{fill:#3e3721;}.cls-118{fill:#343428;}.cls-119{fill:#5d5310;}.cls-120{fill:#988f85;}.cls-121{fill:#a89d8d;}.cls-122{fill:#888457;}.cls-123{fill:#626262;}.cls-124{fill:#828282;}.cls-125{fill:#586163;}.cls-126{fill:#8a8555;}.cls-127{fill:#a89e8d;}.cls-128{fill:#49150f;}.cls-129{fill:#585754;}.cls-130{fill:#5a3631;}.cls-131{fill:#696047;}.cls-132{fill:#515042;}.cls-133{fill:#6a5956;}.cls-134{fill:#f2f5f5;}.cls-135{fill:#cad0d2;}.cls-136{fill:#d6e1e5;}.cls-137{fill:#efb0a8;}.cls-138{fill:#f5eae8;}.cls-139{fill:#ecd4d1;}.cls-140{fill:#fcfafa;}.cls-141{fill:#d6d6d6;}.cls-142{fill:#f2f5f4;}.cls-143{fill:#d4e0e4;}.cls-144{fill:#f3f6f6;}.cls-145{fill:#d5e0e4;}.cls-146{fill:#9f9f9f;}.cls-147{fill:#9e9e9e;}.cls-148{fill:#676767;}.cls-149{fill:#6a6a6a;}.cls-150{fill:#d1cfce;}.cls-151{fill:#4e4e2a;}.cls-152{fill:#595755;}.cls-153{fill:#91867b;}.cls-154{fill:#897d6e;}.cls-155{fill:#948a7f;}.cls-156{fill:#877c6e;}.cls-157{fill:#887d70;}.cls-158{fill:#877c6f;}.cls-159{fill:#958b81;}.cls-160{fill:#cbc1a8;}.cls-161{fill:#93885f;}.cls-162{fill:#b6a77d;}.cls-163{fill:#b9a97e;}.cls-164{fill:#948960;}.cls-165{fill:#d0ccca;}.cls-166{fill:#dad6d4;}.cls-167{fill:#e6e3e0;}.cls-168{fill:#bfbcbc;}.cls-169{fill:#e7e7e7;}.cls-170{fill:#767471;}.cls-171{fill:#656048;}.cls-172{fill:#2e2910;}.cls-173{fill:#625a3a;}.cls-174{fill:#24444b;}.cls-175{fill:#9a890c;}.cls-176{fill:#ab9e3f;}.cls-177{fill:#828530;}.cls-178{fill:#868052;}.cls-179{fill:#aeada6;}.cls-180{fill:#c4bca7;}.cls-181{fill:#928b73;}.cls-182{fill:gray;}.cls-183{fill:#8c9b9e;}.cls-184{fill:#666149;}.cls-185{fill:#e5e2dd;}.cls-186{fill:#cacac7;}.cls-187{fill:#ddd;}.cls-188{fill:#68150a;}.cls-189{fill:#b94837;}.cls-190{fill:#8d5850;}.cls-191{fill:#8b8b8b;}.cls-192{fill:#b3776e;}.cls-193{fill:#b2d3db;}.cls-194{fill:#ece8c4;}.cls-195{fill:#a1cbd5;}.cls-196{fill:#fe6a55;}.cls-197{fill:#f6c6bf;}.cls-198{fill:#ece9c2;}.cls-199{fill:#b5d4dc;}.cls-200{fill:#ede9c2;}.cls-201{fill:#f18f82;}.cls-202{fill:#968913;}.cls-203{fill:#c9c9c9;}.cls-204{fill:#aaa;}.cls-205{fill:#c8c4c0;}.cls-206{fill:#c8c3c0;}.cls-207{fill:#b9b3a9;}.cls-208{fill:#908772;}.cls-209{fill:#b4ada2;}.cls-210{fill:#8d8571;}.cls-211{fill:#b7b1a7;}.cls-212{fill:#e0dac7;}.cls-213{fill:#c39892;}.cls-214{fill:#8e8567;}.cls-215{fill:#237180;}.cls-216{fill:#f0d000;}.cls-217{fill:#e6d14a;}.cls-218{fill:#c6c837;}.cls-219{fill:#afa86d;}.cls-220{fill:#efe170;}.cls-221{fill:#b1a88f;}.cls-222{fill:#25717f;}.cls-223{fill:#b6b080;}.cls-224{fill:#bdb8ad;}.cls-225{fill:#ac0e00;}.cls-226{fill:#f85841;}.cls-227{fill:#b9746a;}.cls-228{fill:#76c3d3;}.cls-229{fill:#17a5c1;}.cls-230{fill:#fe0000;}.cls-231{fill:#f59587;}.cls-232{fill:#6fc0d2;}.cls-233{fill:#eee16f;}.cls-234{fill:#1ba6bf;}</style></defs><title>기관포1</title><g id="레이어_2" data-name="레이어 2"><g id="레이어_1-2" data-name="레이어 1"><rect class="cls-1" width="74" height="74" rx="8.33" ry="8.33"/><path class="cls-2" d="M19,18.79V32c-.25.52-.61.73-1.16.42-.34-.31-.24-.73-.26-1.12,0-4.2,0-8.4,0-12.6,0-.19.13-.34.08-.53a1.54,1.54,0,0,1,.17-.42c.51-.4.82,0,1.13.3Z"/><path class="cls-3" d="M55,26.62q0-3.11,0-6.19l0-5.84c0-.63.09-1.19.88-1.26l.22.1c.46.58.22,1.27.3,1.91,0,.95,0,1.89,0,2.83-.06,2.43.08,4.87,0,7.3a2.9,2.9,0,0,1-.25,1.18A.71.71,0,0,1,55,26.62Z"/><path class="cls-4" d="M8.64,30.36l0-8.27,0-4A.71.71,0,0,1,9.73,18c.67,1.14.29,2.41.33,3.59,0,1.68,0,3.38,0,5.06-.11,1.29.23,2.6-.27,3.86A.78.78,0,0,1,8.64,30.36Z"/><path class="cls-5" d="M23.77,26.6c0-2.61,0-5.21,0-7.82,0-.9,0-1.8,0-2.69a1.21,1.21,0,0,1,.89-1.34.59.59,0,0,1,.41.54,16.3,16.3,0,0,1,.12,2.88c-.05,2.46.08,4.92-.06,7.38a2.19,2.19,0,0,1-.25,1.11A.72.72,0,0,1,23.77,26.6Z"/><path class="cls-5" d="M38.91,26.61l0-7.83c0-.9,0-1.8,0-2.69a1.19,1.19,0,0,1,.89-1.34c.7.31.43,1,.52,1.5,0,3.11.1,6.22-.06,9.33A2.19,2.19,0,0,1,40,26.67.72.72,0,0,1,38.91,26.61Z"/><path class="cls-6" d="M19,18.07l-.92-.24c-.54-.92-1.75-1.06-2.3-2A8,8,0,0,1,16,12.24a.78.78,0,0,1,1.12.15,3.39,3.39,0,0,1,1,1.95.87.87,0,0,0,.73.82c.63.17.88.46.44,1.08S19.07,17.46,19,18.07Z"/><path class="cls-7" d="M17.13,12.39l-.91,0c-.81-.42-.39-1.15-.47-1.76s0-1.07-.63-1.24c-.47-.49-.28-1.39-1-1.7a1.49,1.49,0,0,1-.21-1,1,1,0,0,1,.44-.91,1.18,1.18,0,0,1,1,.53A7.44,7.44,0,0,1,17.13,12.39Z"/><path class="cls-8" d="M45.54,6.7a1,1,0,0,1,.83.54,8.13,8.13,0,0,1,1,5,.4.4,0,0,0,0,.11.77.77,0,0,1-1,.24c-.66-.6-.32-1.39-.37-2.1S45.9,9.34,45.26,9A3,3,0,0,1,45.2,7,.59.59,0,0,1,45.54,6.7Z"/><path class="cls-9" d="M61.62,6.69A5.13,5.13,0,0,1,63.46,10a14.27,14.27,0,0,1,0,2.45h0a.77.77,0,0,1-1,.24c-.66-.58-.37-1.36-.38-2.05A1.55,1.55,0,0,0,61.32,9a3.12,3.12,0,0,1,0-2.09A.57.57,0,0,1,61.62,6.69Z"/><path class="cls-10" d="M33.24,14.28l0,1a1.55,1.55,0,0,0-.45.51c-.58,1.12-.69,1.15-1.71.35a7,7,0,0,1,.07-3.85.79.79,0,0,1,1.14.13C32.55,13,33.28,13.46,33.24,14.28Z"/><path class="cls-10" d="M46.49,12.41l.91,0c.28.65,1,1.07,1,1.89,0,.32,0,.65,0,1a1.51,1.51,0,0,0-.46.52c-.57,1.09-.68,1.13-1.69.36C46,14.87,45.62,13.59,46.49,12.41Z"/><path class="cls-9" d="M32.27,12.39l-.92,0c-.84-.43-.41-1.23-.48-1.86S30.73,9.35,30.1,9a3.17,3.17,0,0,1,0-2,.61.61,0,0,1,.34-.29A5.27,5.27,0,0,1,32.25,10,14.18,14.18,0,0,1,32.27,12.39Z"/><path class="cls-11" d="M9.54,18.07h-.9c.21-1.1-.59-2.18,0-3.3a1.68,1.68,0,0,1,.92-1c.7.28.4.92.5,1.41a9.39,9.39,0,0,1-.15,2.59A.58.58,0,0,1,9.54,18.07Z"/><path class="cls-12" d="M55.87,13.33c0-.89.05-1.78.06-2.67,0-.63.23-1.05.9-1.14l.2.09a1.26,1.26,0,0,1,.3,1.05c-.06.92.21,1.87-.28,2.75a.7.7,0,0,1-1.09,0Z"/><path class="cls-13" d="M39.85,13.35c0-.9,0-1.8,0-2.7,0-.62.2-1.06.89-1.14a.48.48,0,0,1,.33.2,1.6,1.6,0,0,1,.18,1c0,.6,0,1.21,0,1.81,0,.39,0,.8-.33,1.08A.82.82,0,0,1,39.85,13.35Z"/><path class="cls-13" d="M24.72,13.35c0-.9,0-1.8,0-2.7,0-.62.2-1.06.89-1.14a.46.46,0,0,1,.32.2,1.54,1.54,0,0,1,.19,1c.05.6-.05,1.21,0,1.81,0,.39.05.8-.32,1.08A.82.82,0,0,1,24.72,13.35Z"/><path class="cls-13" d="M9.6,13.13c0-.87,0-1.73,0-2.59a.91.91,0,0,1,.89-1,.48.48,0,0,1,.32.2,1.54,1.54,0,0,1,.19,1c0,.6-.06,1.21,0,1.81a.89.89,0,0,1-.31.84A.83.83,0,0,1,9.6,13.13Z"/><path class="cls-14" d="M11.43,8.6l.08-.9a.69.69,0,0,1,1-.24.92.92,0,0,1,.26.38,7.08,7.08,0,0,1,.1,2.25.77.77,0,0,1-1.06.81,1.89,1.89,0,0,1-.46-.2A1.57,1.57,0,0,1,11,9.59,1.13,1.13,0,0,1,11.43,8.6Z"/><path class="cls-14" d="M26.57,8.6l.07-.9a.67.67,0,0,1,1.09-.08A4.65,4.65,0,0,1,28,10.23c0,.56-.44.78-1,.68a1.57,1.57,0,0,1-.46-.2,1.45,1.45,0,0,1-.35-1.11A1.15,1.15,0,0,1,26.57,8.6Z"/><path class="cls-14" d="M41.7,8.6l.07-.9a.67.67,0,0,1,1.09-.08,4.57,4.57,0,0,1,.22,2.61c0,.56-.44.78-1,.68a1.57,1.57,0,0,1-.46-.2,1.44,1.44,0,0,1-.34-1.11A1.11,1.11,0,0,1,41.7,8.6Z"/><path class="cls-14" d="M57.77,8.6l.08-.9a.67.67,0,0,1,1.09-.08,4.65,4.65,0,0,1,.22,2.61c0,.56-.44.78-1,.68a1.57,1.57,0,0,1-.46-.2,1.43,1.43,0,0,1-.34-1.1A1.14,1.14,0,0,1,57.77,8.6Z"/><path class="cls-15" d="M39.85,13.35l.89,0c.51.13.51.53.53.94a2.64,2.64,0,0,1-.34,2,.72.72,0,0,1-1.06-.06c0-.49,0-1-.08-1.49Z"/><path class="cls-16" d="M9.6,13.13l.89,0c.62.21.43.76.5,1.2s.09.82-.27,1.13a.8.8,0,0,1-1.1-.17c0-.49-.06-1-.08-1.46Z"/><path class="cls-15" d="M24.72,13.35l.89,0c.51.14.5.55.51,1s.1.82-.26,1.14a.81.81,0,0,1-1.1-.16c0-.17-.07-.35-.1-.52Z"/><path class="cls-17" d="M58.8,5.81h1.82a.71.71,0,0,1,.3.93.69.69,0,0,1-.31.3,3.08,3.08,0,0,1-1.78,0,.69.69,0,0,1-.33-.28A.71.71,0,0,1,58.8,5.81Z"/><path class="cls-18" d="M42.72,5.82l1.83,0a.74.74,0,0,1,.3.93.71.71,0,0,1-.32.3,3.08,3.08,0,0,1-1.78,0,.63.63,0,0,1-.32-.28A.69.69,0,0,1,42.72,5.82Z"/><path class="cls-18" d="M27.59,5.82l1.83,0a.73.73,0,0,1,.29.94.69.69,0,0,1-.31.3,3.08,3.08,0,0,1-1.78,0,.69.69,0,0,1-.33-.28A.7.7,0,0,1,27.59,5.82Z"/><path class="cls-19" d="M14.3,5.8v.93c-.5.61-1.14.46-1.78.32a.67.67,0,0,1-.34-.28.69.69,0,0,1,.27-.95Z"/><path class="cls-8" d="M44.62,6.69c0-.3,0-.6-.07-.89a.84.84,0,0,1,1,.9l-.09.09C45.14,7.05,44.85,7.09,44.62,6.69Z"/><path class="cls-20" d="M58.8,5.81l-.08.88c-.27.41-.57.33-.88.06C57.81,6.09,58.13,5.77,58.8,5.81Z"/><path class="cls-21" d="M60.69,6.69l-.07-.89a.85.85,0,0,1,1,.89l-.09.1C61.21,7.05,60.92,7.09,60.69,6.69Z"/><path class="cls-22" d="M12.41,7.63l-.9.07c0-.32,0-.64,0-1a.54.54,0,0,1,.88-.06l.08.08C12.73,7.07,12.78,7.36,12.41,7.63Z"/><path class="cls-23" d="M27.56,7.69h-.92v-1a.54.54,0,0,1,.88-.06l.09.08c.24.24.38.51.13.83Z"/><path class="cls-20" d="M42.72,5.82l-.08.87c-.26.42-.57.33-.88.06Q41.72,5.75,42.72,5.82Z"/><path class="cls-23" d="M41.76,6.75l.88-.06.09.08c.25.24.38.51.13.83l-.17.09h-.92Z"/><path class="cls-21" d="M29.48,6.68l-.06-.89a.85.85,0,0,1,1,.9l-.09.11C30,7.06,29.71,7.09,29.48,6.68Z"/><path class="cls-20" d="M27.51,6.69l-.88.06q0-1,1-.93C27.56,6.11,27.54,6.4,27.51,6.69Z"/><path class="cls-23" d="M57.84,6.75l.88-.06.09.08c.24.24.38.5.13.83l-.17.09h-.92Z"/><path class="cls-24" d="M12.38,6.69l-.88.06c0-.68.28-1,.95-.93C12.43,6.11,12.41,6.4,12.38,6.69Z"/><path class="cls-25" d="M11.43,8.6v.94a.55.55,0,0,1-.88.06l-.07-.09A.86.86,0,0,1,11.43,8.6Z"/><path class="cls-25" d="M26.57,8.6v.94a.54.54,0,0,1-.87.06l-.08-.09A.86.86,0,0,1,26.57,8.6Z"/><path class="cls-25" d="M41.7,8.6v.94a.54.54,0,0,1-.87.06l-.08-.09A.87.87,0,0,1,41.7,8.6Z"/><path class="cls-25" d="M57.77,8.6v.94a.54.54,0,0,1-.87.07l-.07-.09A.85.85,0,0,1,57.77,8.6Z"/><path class="cls-26" d="M35.13,42.9V56.37q0,3.48,0,7c0,.71-.07,1.36-.93,1.55-.7-.25-.48-.86-.54-1.37a11.93,11.93,0,0,1,0-2.07c.07-7.35,0-14.7,0-22.06a2.87,2.87,0,0,1,.35-1.65,1.29,1.29,0,0,1,1.22,0,1,1,0,0,1,.35.84c0,1.11,0,2.22,0,3.33A1.32,1.32,0,0,1,35.13,42.9Z"/><path class="cls-26" d="M50.23,38l0,15.81c0,3.19,0,6.37,0,9.56,0,.71-.06,1.36-.92,1.55-.7-.25-.48-.86-.54-1.37a12.51,12.51,0,0,1,0-2.12q0-10.55,0-21.08a5.27,5.27,0,0,1,.32-2.45A.7.7,0,0,1,50.23,38Z"/><path class="cls-26" d="M20,42.9V56.37c0,2.3,0,4.61,0,6.91,0,.66-.08,1.27-.92,1.37-.6-.19-.48-.7-.52-1.14a10.13,10.13,0,0,1,0-2.06c.07-7.36,0-14.71.05-22.07a2.79,2.79,0,0,1,.34-1.65,1.24,1.24,0,0,1,1.21,0,1,1,0,0,1,.36.83c0,1.11,0,2.22,0,3.33A1.3,1.3,0,0,1,20,42.9Z"/><path class="cls-27" d="M66.31,38.89l0,7.79V58.5c0,1.54,0,3.07,0,4.6,0,.55,0,1.14-.71,1.31s-.69-.43-.72-.9a9.55,9.55,0,0,1,0-2.07c.07-7.13,0-14.26.06-21.4a2.8,2.8,0,0,1,.18-1.43C65.64,38.18,66,38.53,66.31,38.89Z"/><path class="cls-28" d="M7.66,56.62q0-7.57,0-15.14c0-1.12,0-2.25,0-3.38,0-.6.14-1.09.86-1.14a.63.63,0,0,1,.37.23A5.2,5.2,0,0,1,9.1,39c0,7.24.1,14.47-.06,21.71a1.64,1.64,0,0,1-.23,1,.79.79,0,0,1-1.11-.19Z"/><path class="cls-29" d="M54,52.6V50.46a.71.71,0,0,1,0-1.18q0-6.15,0-12.3h.9c.72.26.59,1,.56,1.44-.09,1.16,0,2.33,0,3.49-.06,6.25.08,12.51-.06,18.77a1.61,1.61,0,0,1-.28,1,.69.69,0,0,1-1.06-.11Q54,57.08,54,52.6Z"/><path class="cls-30" d="M65.37,63.48l.24.93-.26,1a1.06,1.06,0,0,1-1,.44c-.88,0-1.76,0-2.63,0l-1.06,0-1,0a7.15,7.15,0,0,1-1.79,0c-.34,0-.67,0-1,0s-.67,0-1,0a.92.92,0,0,1-.85-.44c-1.3-.15-.9-1.15-1-1.92a1,1,0,0,1,.86-.44,1.79,1.79,0,0,1,.94.14c.43.25.59,1,1.29.78.79,0,1.59,0,2.38,0s1.61.12,2.07-.74a2.11,2.11,0,0,1,1-.23C63.58,63,64.59,62.59,65.37,63.48Z"/><path class="cls-30" d="M19,63.48l0,1.17c0,.24,0,.49,0,.74a1.05,1.05,0,0,1-1,.44c-.88.06-1.76.06-2.63,0l-1.07,0-1,0a7.23,7.23,0,0,1-1.8,0c-.33,0-.66,0-1,0s-.67,0-1,0a1,1,0,0,1-.86-.44c-1.3-.16-.89-1.15-1-1.92A1,1,0,0,1,8.57,63a1.79,1.79,0,0,1,.94.14c.43.25.59,1,1.29.78.79,0,1.58,0,2.38,0s1.6.12,2.07-.74a2.06,2.06,0,0,1,1-.23C17.23,63,18.24,62.59,19,63.48Z"/><path class="cls-30" d="M34.16,63.48c0,.46,0,.93,0,1.4,0,.17,0,.34,0,.51a1.07,1.07,0,0,1-1,.44c-.88.06-1.75.06-2.63,0l-1.06,0-1,0a7.23,7.23,0,0,1-1.8,0c-.33,0-.66,0-1,0s-.68,0-1,0a1,1,0,0,1-.86-.44c-1.29-.16-.89-1.15-.95-1.92A1,1,0,0,1,23.7,63a1.79,1.79,0,0,1,.94.14c.43.25.59,1,1.29.78.79,0,1.59,0,2.38,0s1.6.12,2.07-.74a2.09,2.09,0,0,1,1-.23C32.37,63,33.37,62.59,34.16,63.48Z"/><path class="cls-30" d="M49.29,63.48l0,1.4c0,.17,0,.34,0,.51a1.07,1.07,0,0,1-1,.44c-.88.06-1.75.06-2.63,0l-1.06,0-1,0a7.23,7.23,0,0,1-1.8,0c-.34,0-.67,0-1,0s-.67,0-1,0a1,1,0,0,1-.86-.44c-1.29-.16-.88-1.15-1-1.92a1,1,0,0,1,.86-.44,1.78,1.78,0,0,1,.94.14c.44.25.59,1,1.29.78.79,0,1.59,0,2.39,0s1.6.12,2.06-.74a2.11,2.11,0,0,1,1-.23C47.5,63,48.51,62.59,49.29,63.48Z"/><path class="cls-31" d="M18.07,65.37l.94,0a1.06,1.06,0,0,0,.36.82,1.15,1.15,0,0,1,.48,1.51c-.24.59-.82.46-1.31.48a3.69,3.69,0,0,1-.47,0,1.08,1.08,0,0,1-.44-1C17.68,66.57,17.45,65.87,18.07,65.37Z"/><path class="cls-31" d="M33.21,65.37l.93,0a1,1,0,0,0,.36.82A1.15,1.15,0,0,1,35,67.72c-.24.59-.83.46-1.32.48a3.53,3.53,0,0,1-.46,0,1,1,0,0,1-.44-1C32.81,66.57,32.58,65.87,33.21,65.37Z"/><path class="cls-31" d="M48.34,65.37l.93,0a1.09,1.09,0,0,0,.37.82,1.15,1.15,0,0,1,.48,1.51c-.24.59-.83.46-1.32.48a3.53,3.53,0,0,1-.46,0,1,1,0,0,1-.44-1C47.94,66.57,47.71,65.87,48.34,65.37Z"/><path class="cls-32" d="M64.42,65.37l.93,0a1.09,1.09,0,0,0,.37.82,1.15,1.15,0,0,1,.48,1.51c-.25.59-.84.46-1.33.49h-.46c-.19-.23-.48-.4-.44-.76C64.07,66.74,63.66,65.93,64.42,65.37Z"/><path class="cls-33" d="M18.08,67.28c0,.3,0,.61,0,.91l-2.85,0c-.3-.27-.51-.57-.29-1s.69-.31.8-.78.67-.56,1.13-.55a.76.76,0,0,1,.78.77C17.68,66.94,17.94,67.05,18.08,67.28Z"/><path class="cls-33" d="M33.21,67.28v.91l-2.85,0c-.31-.27-.52-.57-.3-1s.69-.31.8-.78.67-.56,1.13-.55a.77.77,0,0,1,.79.77C32.81,66.94,33.08,67.05,33.21,67.28Z"/><path class="cls-33" d="M48.34,67.28v.91l-2.85,0c-.3-.27-.51-.57-.3-1s.69-.31.81-.78.66-.56,1.13-.55a.77.77,0,0,1,.78.77C48,66.94,48.21,67.05,48.34,67.28Z"/><path class="cls-34" d="M64.42,67.28c0,.3,0,.61,0,.92l-2.84,0c-.3-.27-.51-.57-.3-1s.68-.29.8-.78.65-.56,1.11-.55a.79.79,0,0,1,.82.74A1.38,1.38,0,0,0,64.42,67.28Z"/><path class="cls-35" d="M61.6,67.26l0,.91H59.71c-.26-.21-.47-.44-.35-.81a.84.84,0,0,1,.16-.33c.9-.18.44-1.28,1.1-1.63h1C62.3,66,62.21,66.63,61.6,67.26Z"/><path class="cls-35" d="M45.52,67.26l0,.91H43.63c-.26-.21-.47-.44-.35-.81a.84.84,0,0,1,.16-.33c.91-.18.44-1.29,1.1-1.63h1C46.22,66,46.13,66.63,45.52,67.26Z"/><path class="cls-35" d="M15.25,67.26l0,.91H13.36c-.25-.21-.46-.44-.34-.81a.84.84,0,0,1,.16-.33c.9-.18.43-1.29,1.1-1.63h1C16,66,15.86,66.63,15.25,67.26Z"/><path class="cls-35" d="M30.38,67.26c0,.3,0,.61,0,.91H28.5c-.26-.21-.47-.44-.35-.81a.84.84,0,0,1,.16-.33c.91-.18.44-1.29,1.1-1.63h.95C31.09,66,31,66.63,30.38,67.26Z"/><path class="cls-36" d="M28.5,67.28v.89l-2.83,0a.68.68,0,0,1-.12-1.09C26.56,66.76,27.58,66.33,28.5,67.28Z"/><path class="cls-37" d="M59.72,67.28c0,.3,0,.6,0,.89H56.88a.69.69,0,0,1-.12-1.1C57.77,66.76,58.79,66.33,59.72,67.28Z"/><path class="cls-36" d="M43.64,67.28c0,.3,0,.59,0,.89l-2.83,0a.69.69,0,0,1-.12-1.09C41.69,66.76,42.71,66.33,43.64,67.28Z"/><path class="cls-36" d="M13.37,67.28c0,.3,0,.59,0,.89l-2.82,0a.69.69,0,0,1-.13-1.09C11.43,66.76,12.45,66.33,13.37,67.28Z"/><path class="cls-38" d="M56.9,67.22c0,.31,0,.63,0,.94H56a2.1,2.1,0,0,1,0-2.76h.93a.94.94,0,0,1,.41.91A1,1,0,0,1,56.9,67.22Z"/><path class="cls-39" d="M56,65.4c0,.92,0,1.84,0,2.76-.72,0-1-.37-1-1s0-1.17,0-1.76Z"/><path class="cls-40" d="M40.83,67.22l0,.93h-.93a2.09,2.09,0,0,1,0-2.76h.92a.94.94,0,0,1,.41.91A1,1,0,0,1,40.83,67.22Z"/><path class="cls-39" d="M39.89,65.4c0,.92,0,1.84,0,2.76-.72,0-1-.38-1-1s0-1.18,0-1.76Z"/><path class="cls-40" d="M25.69,67.22c0,.31,0,.62,0,.93h-.94a2.11,2.11,0,0,1,0-2.76h.93a1,1,0,0,1,.41.91A1,1,0,0,1,25.69,67.22Z"/><path class="cls-39" d="M24.75,65.4c0,.92,0,1.84,0,2.76-.71,0-1-.38-1-1l0-1.76Z"/><path class="cls-40" d="M10.56,67.22c0,.31,0,.62,0,.93H9.6a2.11,2.11,0,0,1,0-2.76h.93a.93.93,0,0,1,.4.91A1,1,0,0,1,10.56,67.22Z"/><path class="cls-39" d="M9.62,65.4c0,.92,0,1.84,0,2.76-.72,0-1-.38-1-1s0-1.18,0-1.76Z"/><path class="cls-41" d="M8.63,63.47H7.71c0-.63,0-1.25,0-1.88l.89,0C9.36,62.18,9.17,62.82,8.63,63.47Z"/><path class="cls-41" d="M23.76,63.48l-.92,0V61.58l.88,0C24.49,62.18,24.31,62.83,23.76,63.48Z"/><path class="cls-41" d="M38.91,63.46H38V61.58h.86a.55.55,0,0,1,.35.22A1.32,1.32,0,0,1,38.91,63.46Z"/><path class="cls-41" d="M55,63.46h-.94V61.57h.86l.22.09A1.26,1.26,0,0,1,55,63.46Z"/><path class="cls-42" d="M8.54,37l.13-3.77A.8.8,0,0,1,9.75,33c.37.3.24.74.3,1.12-.06.66,0,1.32,0,2a1.27,1.27,0,0,1-.31,1.12A.81.81,0,0,1,8.64,37Z"/><path class="cls-43" d="M9.54,33.19H8.67l0-2.83h.89c.8.44.39,1.22.5,1.86C10,32.64,10,33,9.54,33.19Z"/><path class="cls-44" d="M66.31,38.89l-.93-.24c-.28,0-.36-.25-.45-.46-.08-.45-.49-.55-.82-.76-.47-1.81-.47-1.81-1.83-1.86a2.37,2.37,0,0,1-1-.27.81.81,0,0,1-.15-.88,5.62,5.62,0,0,0,0-1.42,1.07,1.07,0,0,1,.26-.92c.79-.36.52-1.07.59-1.68.15-1.3-.26-2.63.29-3.89a.93.93,0,0,1,1-.25.75.75,0,0,1,.35.26c.46,1.35.13,2.74.22,4.11,0,.44-.16,1,.3,1.31a.57.57,0,0,1,.22.35l0,.9h0c1,.55.69,1.57.87,2.41.14.64.24,1.22,1,1.38Z"/><path class="cls-45" d="M64.42,18.07c0,2.83,0,5.65,0,8.48l-.08.18c-.33.28-.61.14-.88-.11l0-.06c-.84-.69-.51-1.71-.49-2.49,0-1.67-.1-3.35.07-5A2.88,2.88,0,0,1,63.3,18,.73.73,0,0,1,64.42,18.07Z"/><path class="cls-44" d="M64.46,26.55a.92.92,0,0,1,.9,1c0,1.18,0,2.36,0,3.53a1.07,1.07,0,0,1-.91,1.19l-.09-.09c-.8-.91-.34-2-.38-3,0-.84-.38-1.82.42-2.55Z"/><path class="cls-46" d="M64.42,18.07h-.94a.72.72,0,0,1-1,.13,2.12,2.12,0,0,1-.25-1.83,1,1,0,0,1,.18-.4c.18-.19.47-.21.6-.51.34-.87.86-.9,1.48-.24h0Z"/><path class="cls-47" d="M64.44,15.23c-.84-.12-1,1.08-1.86.94a3.52,3.52,0,0,1,0-3.76l.91,0C64,13.26,64.67,14.1,64.44,15.23Z"/><path class="cls-48" d="M50.23,38H49.3l-.18-.06c-.2-.54-.91-.44-1.18-.91a7,7,0,0,1-.09-1,28.88,28.88,0,0,1,0-4.65A30.67,30.67,0,0,1,48,26.82a.54.54,0,0,1,.35-.26c.84,0,1,.47,1,1.24,0,2.36-.25,4.7-.08,7.06a2.16,2.16,0,0,0,1,1.9Z"/><path class="cls-49" d="M48.35,18.07q0,4.24,0,8.49l-.07.07a.74.74,0,0,1-1,.17,1.07,1.07,0,0,1-.25-.42,65.08,65.08,0,0,1-.12-6.7A2.68,2.68,0,0,1,47.22,18,.74.74,0,0,1,48.35,18.07Z"/><path class="cls-50" d="M55,41.93c0-1.65-.06-3.31-.08-5L55,36.1a.67.67,0,0,1,1.09-.1c.51.94.18,2,.28,2.93-.15,1,.29,2.14-.25,3.15A.75.75,0,0,1,55,41.93Z"/><path class="cls-51" d="M56,36.08l-.93,0c0-1.6,0-3.2,0-4.79A.79.79,0,0,1,56,31.08c.4.24.32.64.36,1s0,.72,0,1.08,0,.71,0,1.06c-.06.58.11,1.19-.26,1.73Z"/><path class="cls-52" d="M48.35,18.07h-1a.71.71,0,0,1-1,.15,1.84,1.84,0,0,1-.21-1.81.56.56,0,0,1,.35-.25c.84.14,1-1.06,1.85-.92Z"/><path class="cls-53" d="M55.87,31.31H55c0-1.57,0-3.13,0-4.69l.88-.05.23.14C56.45,28.26,56.8,29.82,55.87,31.31Z"/><path class="cls-49" d="M33.21,18.07l0,8.48-.09.2a.79.79,0,0,1-1,0,1.19,1.19,0,0,1-.21-.42c-.26-2.55-.06-5.1-.1-7.65a1.38,1.38,0,0,1,.27-.77A.74.74,0,0,1,33.21,18.07Z"/><path class="cls-54" d="M34.16,31.78l-.95.24c-.78-.6-.42-1.45-.42-2.17,0-1.08-.39-2.22.4-3.2l.05-.1a1.12,1.12,0,0,1,.92,1.28C34.15,29.15,34.16,30.46,34.16,31.78Z"/><path class="cls-55" d="M39,36.08l-.06-2.88c0-.63,0-1.26,0-1.89a.72.72,0,0,1,1.1-.08c.52.91.23,1.9.31,2.85-.09.67.12,1.39-.28,2A.69.69,0,0,1,39,36.08Z"/><path class="cls-56" d="M39.79,31.33l-.89,0c0-1.57,0-3.14,0-4.7l.88-.05a1.71,1.71,0,0,0,.23.13A8.86,8.86,0,0,1,40.16,31,.69.69,0,0,1,39.79,31.33Z"/><path class="cls-52" d="M33.21,18.07h-1a.7.7,0,0,1-1,.15A1.81,1.81,0,0,1,31,16.42a.56.56,0,0,1,.35-.25c.84.14,1-1.06,1.85-.92C33.21,16.19,33.21,17.13,33.21,18.07Z"/><path class="cls-55" d="M23.68,37c0-1.25.05-2.51.07-3.76,0-.63,0-1.26,0-1.89a.71.71,0,0,1,1.08-.09c.58.89.21,1.91.33,2.86,0,.66,0,1.33,0,2a1.33,1.33,0,0,1-.31,1.13.82.82,0,0,1-1.1-.22Z"/><path class="cls-57" d="M24.66,31.33l-.89,0V26.6l.89,0,.22.13A9,9,0,0,1,25,31,.69.69,0,0,1,24.66,31.33Z"/><path class="cls-58" d="M18.11,32.28a6.46,6.46,0,0,0,1.58,5A2.77,2.77,0,0,1,20,38L19,38a1.06,1.06,0,0,1-.48.3,1.33,1.33,0,0,1-.56-.06,1.11,1.11,0,0,1-.36-1c0-.49-.27-.62-.68-.65a3.4,3.4,0,0,1-.85-.33c-.21-.58-.75-.79-1.21-1.07a.93.93,0,0,1,0-.87c0-.42,0-.84,0-1.27a1.11,1.11,0,0,1,.17-.88c1-.36.49-1.47,1.09-2a1.06,1.06,0,0,1,1-.12c.71.14.44,1,1,1.29Z"/><path class="cls-59" d="M18.09,31.32a.81.81,0,0,1-1-.91c-.63-.64-.42-1.46-.42-2.21,0-3.05-.05-6.1,0-9.16A2.18,2.18,0,0,1,17,18a.74.74,0,0,1,1.13.11Z"/><path class="cls-60" d="M18.08,18.07h-.94a.72.72,0,0,1-1.05.15,1.81,1.81,0,0,1-.2-1.81.56.56,0,0,1,.35-.25,1,1,0,0,0,.9-.46c.13-.24.29-.52.63-.37s.28.45.29.72c0,.59,0,1.18,0,1.77A1.94,1.94,0,0,0,18.08,18.07Z"/><path class="cls-61" d="M55.88,26.57,56,18.08a.77.77,0,0,1,1.09-.2,1.48,1.48,0,0,1,.28,1.17c0,1.51.05,3,0,4.54-.11,1,.2,2.1-.24,3.11A.78.78,0,0,1,56,26.62Z"/><path class="cls-62" d="M56.83,18.06l-.87,0c0-.94,0-1.88,0-2.81A.77.77,0,0,1,57.05,15c.38.3.29.73.32,1.13C57.29,16.82,57.74,17.63,56.83,18.06Z"/><path class="cls-63" d="M56.83,15.23l-.86,0c0-.63,0-1.27,0-1.9l.84,0,.22.09C57.46,14.09,57.67,14.72,56.83,15.23Z"/><path class="cls-64" d="M9.61,26.59c0-2.84,0-5.68-.07-8.52l.08,0a.68.68,0,0,1,1-.08A1.51,1.51,0,0,1,11,19.07c0,1.27,0,2.54,0,3.81s.28,2.6-.29,3.84A.72.72,0,0,1,9.61,26.59Z"/><path class="cls-65" d="M9.61,26.59h.87a.68.68,0,0,1,.35.34A25.18,25.18,0,0,1,11,31.26a1.54,1.54,0,0,1-.34,1.11.64.64,0,0,1-1-.14c0-.62-.07-1.24-.1-1.86C9.56,29.11,9.58,27.85,9.61,26.59Z"/><path class="cls-66" d="M24.66,26.56l.09-8.48a.76.76,0,0,1,1.08-.2A1.42,1.42,0,0,1,26.12,19c0,1.44,0,2.89,0,4.33-.09,1.12.2,2.27-.26,3.37a.78.78,0,0,1-1.12-.1Z"/><path class="cls-67" d="M25.61,18.06l-.86,0c0-.94,0-1.87,0-2.81l.85,0c.51.13.51.54.53.95C26.08,16.84,26.54,17.64,25.61,18.06Z"/><path class="cls-68" d="M39.87,16.24l.86,0,.22.1c.72.89.2,1.91.31,2.87,0,1.48,0,3,0,4.43-.1,1,.2,2.1-.24,3.11a.79.79,0,0,1-1.14-.07l-.09-.06Q39.84,21.4,39.87,16.24Z"/><path class="cls-69" d="M15.25,9.09a1,1,0,0,1,.94,1.12l0,2.2c0,1.26,0,2.51,0,3.76l-.09,0a.68.68,0,0,1-1.1,0c-.57-1.38-.16-2.84-.28-4.27a14,14,0,0,1,0-1.83C14.82,9.67,14.86,9.32,15.25,9.09Z"/><path class="cls-70" d="M15.25,9.09l.06,7.06a.54.54,0,0,1-.28.33.78.78,0,0,1-1-.34,18.2,18.2,0,0,1-.2-4.66A12.21,12.21,0,0,1,14,7.91a.62.62,0,0,1,.37-.28C15.43,7.65,15.19,8.46,15.25,9.09Z"/><path class="cls-71" d="M12.41,7.63c0-.29,0-.57.05-.86l1.84,0,.07.9-.12.06a.86.86,0,0,1-.88.41.87.87,0,0,1-.89-.38Z"/><path class="cls-69" d="M46.49,12.41c0,1.25,0,2.51,0,3.76l-.09,0a.67.67,0,0,1-1.1,0c-.59-1.31-.11-2.7-.28-4a6.77,6.77,0,0,1,0-1.62c.14-.57-.24-1.3.49-1.7.7.06.91.51.92,1.13C46.46,10.78,46.48,11.59,46.49,12.41Z"/><path class="cls-72" d="M45.54,8.83l0,1.69a.79.79,0,0,1-1.11.16c-.53-.92-.18-1.92-.28-2.89a1.08,1.08,0,0,1,.43-1l.08-.07.83.1Z"/><path class="cls-69" d="M62.57,12.41c0,1.26,0,2.51,0,3.76l-.09,0a.67.67,0,0,1-1.1,0c-.52-1.43-.15-2.91-.27-4.36,0-.36.05-.72,0-1.07.14-.65-.31-1.46.5-1.94a1.21,1.21,0,0,1,.92,1.34C62.54,10.92,62.56,11.66,62.57,12.41Z"/><path class="cls-73" d="M61.62,8.83l0,1.92a.79.79,0,0,1-1.14.14c-.55-1-.12-2.05-.25-3.07a1.11,1.11,0,0,1,.43-1.06l.07-.07.84.1Z"/><path class="cls-74" d="M30.41,8.84c.7.05.91.5.92,1.12,0,.82,0,1.64,0,2.45,0,1.26,0,2.51,0,3.76l-.09,0a.69.69,0,0,1-1.1,0c-.54-1.36-.13-2.79-.28-4.18,0-.35,0-.71,0-1.07C30.1,10.27,29.5,9.38,30.41,8.84Z"/><path class="cls-75" d="M30.41,8.84l0,2.14a.79.79,0,0,1-1.13.17c-.54-1.08-.16-2.23-.27-3.35a1.08,1.08,0,0,1,.43-1l.07-.08.84.12Z"/><path class="cls-76" d="M10.48,18.08l-.86,0V15.26l.86,0c.47.08.52.43.52.81,0,.62.21,1.25-.18,1.83A.5.5,0,0,1,10.48,18.08Z"/><path class="cls-77" d="M56.8,13.35l.12-2.79a.51.51,0,0,1,.86-.08l.1.08a2.48,2.48,0,0,1,.36,2.53c-.21.75-.76.79-1.33.25Z"/><path class="cls-78" d="M57.78,10.48l-.86.08c0-.32,0-.64,0-1l.87-.07Z"/><path class="cls-79" d="M40.82,12.41V10.54a.52.52,0,0,1,.86-.06l.11.06a1.53,1.53,0,0,1,.15,2A.82.82,0,0,1,40.82,12.41Z"/><path class="cls-80" d="M40.82,12.41l.89,0c.81.53.64,1.29.29,1.93-.26.48-.79.39-1.18,0l-.08-1Z"/><path class="cls-78" d="M41.69,10.48l-.86.06c0-.31,0-.63,0-.94l.87-.06Z"/><path class="cls-80" d="M25.69,14.3l-.08-1,.07-.92a.78.78,0,0,1,1.17-.11,1.79,1.79,0,0,1,.25,1.35C27,14.61,26.64,14.77,25.69,14.3Z"/><path class="cls-79" d="M26.58,12.38l-.9,0V10.54a.53.53,0,0,1,.87-.06l.1.06C27.21,11.18,27.35,11.8,26.58,12.38Z"/><path class="cls-78" d="M26.56,10.48l-.87.06V9.6l.87-.06Z"/><path class="cls-80" d="M10.55,14.3l-.06-1.2.06-.69a.78.78,0,0,1,1.17-.11A1.74,1.74,0,0,1,12,13.65C11.87,14.61,11.51,14.77,10.55,14.3Z"/><path class="cls-79" d="M11.45,12.38l-.9,0V10.54a.52.52,0,0,1,.86-.06l.11.06C12.08,11.18,12.22,11.8,11.45,12.38Z"/><path class="cls-81" d="M11.42,10.48l-.86.06c0-.31,0-.63,0-.94l.88-.06Z"/><path class="cls-82" d="M11.45,12.38c0-.61.05-1.23.08-1.84.63-.07.85-.47.87-1.06s.06-1.17.08-1.76h.85c.55.43.4,1,.43,1.59q.12,2.94,0,5.86a3,3,0,0,1-.2,1.17c-1,.43-2.05.71-3-.14l-.08-1,.07-.93C11.82,14.11,11.38,13.13,11.45,12.38Z"/><path class="cls-82" d="M26.58,12.38c0-.61.05-1.23.08-1.84.84-.1.87-.72.89-1.36s0-1,0-1.49h0a.72.72,0,0,1,1.13-.1,11.92,11.92,0,0,1,.23,4.21c0,1.51.3,3-.21,4.53-1,.47-2,.72-3-.12l-.08-1,.08-.93C27,14.11,26.51,13.12,26.58,12.38Z"/><path class="cls-82" d="M40.82,14.3c1.26-.19.82-1.17.89-1.92s.06-1.23.08-1.84c.84-.1.88-.72.89-1.36s0-1,0-1.49h0a.7.7,0,0,1,1.12-.09c.59,1.53.25,3.13.25,4.69,0,1.34.29,2.71-.23,4a2.52,2.52,0,0,1-3-.12h-.1Z"/><path class="cls-82" d="M56.91,13.34c.66,0,.87-.43.89-1s.05-1.18.08-1.77c.81-.13.87-.73.88-1.38,0-.49,0-1,0-1.49h0a.7.7,0,0,1,1.12-.09,11.37,11.37,0,0,1,.23,4.19c0,1.52.28,3-.21,4.54a2.57,2.57,0,0,1-3-.12l-.07-1Z"/><path class="cls-83" d="M59.66,7.71l-.88,0,0-.91h1.81c0,.31,0,.62,0,.92C60.31,8,60,8,59.66,7.71Z"/><path class="cls-83" d="M43.58,7.72l-.88,0,0-.91h1.81c0,.31,0,.61,0,.92C44.23,8,43.91,8,43.58,7.72Z"/><path class="cls-83" d="M28.45,7.71l-.89,0,0-.91h1.81c0,.31,0,.62,0,.92A.61.61,0,0,1,28.45,7.71Z"/><path class="cls-84" d="M34.16,38V61.58a.76.76,0,0,1-1.09.18c-.65-1.11-.3-2.32-.3-3.48,0-6.27-.07-12.53,0-18.79a1.9,1.9,0,0,1,.75-1.68A.51.51,0,0,1,34.16,38Z"/><path class="cls-54" d="M34.16,38l-.46,0a.76.76,0,0,1-.5.17c-.42-.16-.42-.57-.44-.88,0-.48-.28-.6-.67-.63a3.13,3.13,0,0,1-.85-.33c-.22-.59-.76-.79-1.24-1.06a1.06,1.06,0,0,1,0-.89c0-.43,0-.87,0-1.31a1.09,1.09,0,0,1,.26-.93,1.21,1.21,0,0,0,.6-1.24c0-1.09,0-2.17,0-3.26a1.68,1.68,0,0,1,.34-1.16.74.74,0,0,1,1,.13l0,.08c.86.87.3,2,.47,2.94s-.37,1.86.42,2.64A7.21,7.21,0,0,0,35,37.5a1.31,1.31,0,0,1,.13.45Z"/><path class="cls-85" d="M33.2,61.56l1,0v1.9l-2.86,0c-.65-.64-.45-1.34-.14-2.05C31.86,61.11,32.56,60.91,33.2,61.56Z"/><path class="cls-84" d="M49.3,38q0,11.81,0,23.62a.75.75,0,0,1-1.09.17c-.65-1.27-.26-2.62-.28-3.94-.08-6.14-.05-12.29,0-18.44,0-1.13.43-1.54,1.38-1.42Z"/><path class="cls-85" d="M48.33,61.56l1,0v1.9l-2.85,0c-.66-.64-.46-1.34-.15-2.05C47,61.11,47.7,60.91,48.33,61.56Z"/><path class="cls-84" d="M18.56,37.94,19,38q0,11.81,0,23.61a.74.74,0,0,1-1.11.14c-.68-1.1-.35-2.35-.33-3.48.1-6.26,0-12.52,0-18.79A1.54,1.54,0,0,1,18.56,37.94Z"/><path class="cls-85" d="M18.06,61.56l1,0v1.9l-2.85,0c-.65-.64-.45-1.34-.15-2.05C16.73,61.11,17.43,60.91,18.06,61.56Z"/><path class="cls-86" d="M65.36,38l0,.7q0,11.46,0,22.93a.75.75,0,0,1-1.09.17c-.61-1.06-.27-2.21-.28-3.32-.08-6.36,0-12.71,0-19.07C64,38.24,64.4,37.85,65.36,38Z"/><path class="cls-85" d="M64.41,61.56l1,0v1.9l-2.86,0c-.65-.64-.45-1.34-.14-2.05C63.07,61.11,63.78,60.91,64.41,61.56Z"/><path class="cls-87" d="M8.63,63.47c0-.63,0-1.27,0-1.91l0-21c0-.55,0-1.1,0-1.65a.78.78,0,0,1,1.12-.14c.51,1.27.2,2.6.28,3.9,0,3.48,0,6.95,0,10.42,0,3.3.08,6.6-.07,9.9a.87.87,0,0,1-.11.31.6.6,0,0,1-.37.27Z"/><path class="cls-88" d="M9.53,38.9l-.88,0c0-.63,0-1.25,0-1.88l.89,0A1.16,1.16,0,0,1,9.53,38.9Z"/><path class="cls-89" d="M23.76,63.48c0-.64,0-1.28,0-1.92l0-21c0-.55,0-1.1,0-1.65a.73.73,0,0,1,1-.2.9.9,0,0,1,.25.39,59.09,59.09,0,0,1,.15,7c0,1.85,0,3.72,0,5.57,0,3.59.05,7.17,0,10.76a1.78,1.78,0,0,1-.14.82.71.71,0,0,1-.39.27Z"/><path class="cls-90" d="M24.67,38.9l-.89,0c0-.63,0-1.25,0-1.88l.89,0A1.15,1.15,0,0,1,24.67,38.9Z"/><path class="cls-91" d="M55,41.93l.87,0c.54.23.51.71.51,1.16,0,2,0,4.1,0,6.15,0,3.81,0,7.61,0,11.41a1.54,1.54,0,0,1-.24,1A.76.76,0,0,1,55,61.58h-.1q0-7.76.05-15.52C55,44.68,55,43.31,55,41.93Z"/><path class="cls-92" d="M38.83,61.57l.06-11.84c0-.47,0-.93,0-1.4A.77.77,0,0,1,40,48.18c.45.88.19,1.83.27,2.75-.07,3.41.12,6.82-.07,10.22a1.34,1.34,0,0,1-.21.6.77.77,0,0,1-1.11-.17Z"/><path class="cls-93" d="M39.81,48.35l-.88,0L38.84,37c0-.3.07-.59.11-.89L39.8,36l.22.11c.54.91.18,1.92.29,2.87,0,2.78.09,5.57-.06,8.35C40.22,47.8,40.24,48.13,39.81,48.35Z"/><path class="cls-94" d="M61.6,67.26l0-1.85,2.85,0c0,.63.47,1.27,0,1.91A2.09,2.09,0,0,0,61.6,67.26Z"/><path class="cls-95" d="M56.9,67.22v-.88a6.23,6.23,0,0,1,.91-.94h1.87a1.14,1.14,0,0,1,0,1.85v0Z"/><path class="cls-96" d="M59.68,64.39h-2.8a.71.71,0,0,1-.25-1,.74.74,0,0,1,.35-.28,3,3,0,0,1,2.85.22A.67.67,0,0,1,59.68,64.39Z"/><path class="cls-97" d="M62.55,61.58c0,.62,0,1.24,0,1.87l-.89.07-.21-.12a1.67,1.67,0,0,1,.07-1.94A.67.67,0,0,1,62.55,61.58Z"/><path class="cls-98" d="M59.68,64.39l0-.9.06-.19a1,1,0,0,1,.91-.28,1,1,0,0,1,.87.39l.07.11C61.41,64.79,60.43,64.32,59.68,64.39Z"/><path class="cls-99" d="M59.72,67.26l0-1.85h.93C60.5,66.11,61.13,67.18,59.72,67.26Z"/><path class="cls-100" d="M55,61.58l.87,0c.89.42.41,1.11.33,1.72a.52.52,0,0,1-.34.26L55,63.46C55,62.84,55,62.21,55,61.58Z"/><path class="cls-101" d="M57.82,65.4a.83.83,0,0,1-.91.94l0-.94Z"/><path class="cls-102" d="M56.83,63.54l.05.85c-.62.06-1-.2-1-.85l.07-.1C56.28,63.17,56.59,63.08,56.83,63.54Z"/><path class="cls-94" d="M15.25,67.26c0-.62,0-1.24,0-1.85l2.84,0c0,.64,0,1.27,0,1.91A2.11,2.11,0,0,0,15.25,67.26Z"/><path class="cls-95" d="M10.56,67.22v-.88a5.84,5.84,0,0,1,.92-.94h1.86a1.14,1.14,0,0,1,0,1.85v0Z"/><path class="cls-96" d="M13.34,64.38h-2.8a.7.7,0,0,1-.25-1,.72.72,0,0,1,.34-.28,3,3,0,0,1,2.86.22A.67.67,0,0,1,13.34,64.38Z"/><path class="cls-98" d="M13.34,64.38l0-.89.06-.18a.92.92,0,0,1,.83-.3,1.14,1.14,0,0,1,.86.2.51.51,0,0,1,.17.31C15.07,64.8,14.08,64.31,13.34,64.38Z"/><path class="cls-103" d="M13.38,67.26c0-.62,0-1.23,0-1.85h.94C14.16,66.11,14.79,67.18,13.38,67.26Z"/><path class="cls-97" d="M16.2,61.58l0,1.87-.89.07a.41.41,0,0,1-.07-.11,1.4,1.4,0,0,1-.08-1.94A.67.67,0,0,1,16.2,61.58Z"/><path class="cls-101" d="M11.48,65.4a.84.84,0,0,1-.92.94V65.4Z"/><path class="cls-102" d="M10.49,63.54l0,.85a.84.84,0,0,1-1-.86l.1-.08C9.92,63.18,10.23,63.08,10.49,63.54Z"/><path class="cls-95" d="M25.69,67.22v-.88a6.82,6.82,0,0,1,.92-.94h1.86a1.13,1.13,0,0,1,0,1.85v0Z"/><path class="cls-94" d="M30.38,67.26c0-.62,0-1.24,0-1.85l2.85,0v1.91A2.11,2.11,0,0,0,30.38,67.26Z"/><path class="cls-96" d="M28.47,64.38h-2.8a.71.71,0,0,1-.25-1,.77.77,0,0,1,.34-.28,3,3,0,0,1,2.86.22A.66.66,0,0,1,28.47,64.38Z"/><path class="cls-98" d="M28.47,64.38l0-.89.06-.18a.93.93,0,0,1,.83-.3,1.17,1.17,0,0,1,.87.2.49.49,0,0,1,.16.31C30.2,64.8,29.21,64.31,28.47,64.38Z"/><path class="cls-103" d="M28.51,67.26c0-.62,0-1.23,0-1.85h.94C29.29,66.11,29.92,67.18,28.51,67.26Z"/><path class="cls-97" d="M31.33,61.58l0,1.87-.89.07-.07-.11a1.41,1.41,0,0,1-.08-1.94C30.65,61.18,31,61.15,31.33,61.58Z"/><path class="cls-102" d="M25.62,63.54l.05.85a.86.86,0,0,1-1.05-.87l.11-.06C25.05,63.19,25.36,63.08,25.62,63.54Z"/><path class="cls-101" d="M26.61,65.4a.84.84,0,0,1-.92.94V65.4Z"/><path class="cls-95" d="M40.83,67.22v-.88a6.23,6.23,0,0,1,.91-.94h1.87c.7.6.61,1.22,0,1.85v0Z"/><path class="cls-94" d="M45.52,67.26l0-1.85,2.85,0v1.91A2.1,2.1,0,0,0,45.52,67.26Z"/><path class="cls-96" d="M43.6,64.38H40.81a.71.71,0,0,1-.26-1,.74.74,0,0,1,.35-.28,3,3,0,0,1,2.85.22A.66.66,0,0,1,43.6,64.38Z"/><path class="cls-98" d="M43.6,64.38l0-.89,0-.18a.94.94,0,0,1,.83-.3,1.17,1.17,0,0,1,.87.2.49.49,0,0,1,.16.31C45.33,64.8,44.34,64.31,43.6,64.38Z"/><path class="cls-103" d="M43.64,67.26l0-1.85h.93C44.42,66.11,45.05,67.18,43.64,67.26Z"/><path class="cls-100" d="M38.92,61.58l.87,0c.88.42.42,1.11.35,1.72a.61.61,0,0,1-.35.26l-.88-.08C38.91,62.84,38.92,62.21,38.92,61.58Z"/><path class="cls-97" d="M46.47,61.58l0,1.87-.9.07-.07-.11a1.41,1.41,0,0,1-.08-1.94A.68.68,0,0,1,46.47,61.58Z"/><path class="cls-102" d="M40.75,63.54l.06.85c-.62,0-1-.2-1-.85l.07-.1C40.2,63.17,40.51,63.08,40.75,63.54Z"/><path class="cls-101" d="M41.74,65.4a.83.83,0,0,1-.91.94l0-.94Z"/><path class="cls-104" d="M9.53,38.9V37c0-.29,0-.58.07-.87a.68.68,0,0,1,1-.17,2.78,2.78,0,0,1,.46,2c-.17,1.28.17,2.55,0,3.83a3.9,3.9,0,0,1-.44,1.1.72.72,0,0,1-1.06-.19Z"/><path class="cls-105" d="M9.63,32.23l.87,0,.2.08a1.15,1.15,0,0,1,.28,1,1.31,1.31,0,0,1-.38,1,.71.71,0,0,1-1-.19c0-.32,0-.64-.05-1Z"/><path class="cls-106" d="M9.59,34.15h.93l.19.09a1.31,1.31,0,0,1,0,1.72l-.18.1-.94,0Z"/><path class="cls-107" d="M62.55,61.58l-.92,0-.21-.1c-.62-1-.29-2.17-.29-3.25,0-6.13-.1-12.26,0-18.39a1.76,1.76,0,0,1,.25-1,.69.69,0,0,1,1,0c.92.83.49,1.91.5,2.88.07,5.5,0,11,0,15.58.1-5-.12-11,.07-17a1.35,1.35,0,0,0-.52-1.37.76.76,0,0,1-.26-1,1.31,1.31,0,0,1,.87-.47c.45.07.84-.22,1.27-.24a1,1,0,0,1,.92.74c-1,.39-.92,1.28-.92,2.1q0,9.69,0,19.38c0,.71,0,1.42,0,2.13Z"/><path class="cls-108" d="M62.53,18.06l.95,0v8.48l-.95.05-.2-.15c-.58-1.22-.26-2.54-.26-3.8,0-1.48-.31-3,.26-4.46Z"/><path class="cls-109" d="M64.41,26.63c0,1.86,0,3.72,0,5.57-.87,0-.88-.64-.89-1.23,0-1.45,0-2.9,0-4.35Z"/><path class="cls-110" d="M62.53,26.61c0,1.47,0,2.95,0,4.42,0,.62-.09,1.19-.9,1.24l-.19-.06a1,1,0,0,1-.33-.93c0-.35,0-.71,0-1.07,0-.9,0-1.81,0-2.71a1.44,1.44,0,0,1,.36-1.07.69.69,0,0,1,1,.16Z"/><path class="cls-111" d="M61.65,34.19l0,.87a.77.77,0,0,1,.12,1.09.91.91,0,0,1-1.11.12,2.22,2.22,0,0,0-1.23-.79c-1.21-.15-1.27-.26-.8-1.43.54-.51,1.21-.35,1.85-.37a1.62,1.62,0,0,1,1,.18A.51.51,0,0,1,61.65,34.19Z"/><path class="cls-86" d="M64.44,37.21a.84.84,0,0,1-1,.7c-.62-.49-.34-1.55-1.2-1.88a.72.72,0,0,1,.25-.91C63.87,35.31,64.3,35.78,64.44,37.21Z"/><path class="cls-112" d="M64.45,33.2c-.07.33,0,.76-.52.8a.28.28,0,0,1-.29-.3c0-.5.46-.45.8-.51Z"/><path class="cls-113" d="M62.52,35.12l0,.87-.06.18a.52.52,0,0,1-.83,0L61.61,36v-1Z"/><path class="cls-114" d="M61.66,33.18c.32.07.76,0,.75.5s-.44.43-.76.51l-.1-.07c-.23-.22-.4-.45-.2-.78A.45.45,0,0,1,61.66,33.18Z"/><path class="cls-115" d="M61.65,32.27v.91l-.11,0a.72.72,0,0,1-.94.23.69.69,0,0,1-.27-.34.93.93,0,0,1,.21-1,.67.67,0,0,1,1,.14Z"/><path class="cls-116" d="M61.64,16.16l.85.05c0,.62,0,1.23,0,1.85h0a.7.7,0,0,1-1,.16,1.81,1.81,0,0,1-.2-1.81A.53.53,0,0,1,61.64,16.16Z"/><path class="cls-117" d="M46.47,61.58l-.91,0-.23-.12c-.56-1-.25-2.1-.26-3.15,0-6.14-.07-12.28,0-18.42a2,2,0,0,1,.26-1,.7.7,0,0,1,1.07,0c1,.83.57,2,.55,3-.07,5.45.06,10.9,0,16.34,0,0,0,.07.06.1h-.06c.11-6-.09-12,.09-17.93a1.38,1.38,0,0,0-.52-1.38.75.75,0,0,1-.26-1c.2-.32.54-.38.85-.5.53.12.83-.43,1.31-.46a.86.86,0,0,1,.9,1c-1,.39-.92,1.27-.92,2.09q0,9.59,0,19.16c0,.78,0,1.57,0,2.36Z"/><path class="cls-118" d="M48.36,31.32V36a1,1,0,0,1-.9.45,1.66,1.66,0,0,1-1-.18,2.91,2.91,0,0,0-1.31-1.09,1,1,0,0,1,0-.89c0-.44,0-.88,0-1.32a1.09,1.09,0,0,1,.26-.93,1.11,1.11,0,0,0,.62-1.2c0-1.09,0-2.19,0-3.28a1.64,1.64,0,0,1,.34-1.19.75.75,0,0,1,1,.14l0,.09c.77.66.32,1.57.45,2.36S47.6,30.67,48.36,31.32Z"/><path class="cls-119" d="M48.36,31.32c-.73,0-1-.39-1-1,0-1.21,0-2.43,0-3.64h.89C48.33,28.19,48.34,29.76,48.36,31.32Z"/><path class="cls-84" d="M47.41,36h1c0,.31,0,.62,0,.93-.05.61-.34,1-1,.94A1.17,1.17,0,0,1,47.41,36Z"/><path class="cls-108" d="M47.41,26.55l-1,.07-.2-.14c-.53-1.4-.23-2.86-.24-4.29s-.29-2.69.24-4l.21-.13.94,0C47.4,20.9,47.4,23.73,47.41,26.55Z"/><path class="cls-120" d="M56,49.27c0-2.43-.05-4.87-.07-7.3,0-1,0-2.07.07-3.1a.82.82,0,0,1,1.11-.19c.64.86.27,1.92.54,2.85a3.93,3.93,0,0,0-.25,2.41,33.08,33.08,0,0,1,.07,4.45,1.32,1.32,0,0,1-.35,1.08A.79.79,0,0,1,56,49.27Z"/><path class="cls-121" d="M56.82,38.89l-.87,0V36.08h0a.73.73,0,0,1,.94-.3.69.69,0,0,1,.3.31,3.41,3.41,0,0,1,.18,2.16C57.25,38.51,57.19,38.83,56.82,38.89Z"/><path class="cls-122" d="M56,26.62l.86,0c.87.44.5,1.3.52,1.91,0,.92.06,1.85,0,2.77,0,.42.08.85-.28,1.18a.76.76,0,0,1-1.1-.23l-.09-.91Z"/><path class="cls-106" d="M56.85,36l-.91.1V34.13A.72.72,0,0,1,57,34.05C57.39,34.72,57.64,35.39,56.85,36Z"/><path class="cls-123" d="M56,32.22h.86c.47.27.44.64.21,1.05A.7.7,0,0,1,56,33.23Z"/><path class="cls-124" d="M56,33.23l.86,0,.18,0a.57.57,0,0,1,.14.8.4.4,0,0,1-.3.17l-.89-.1Z"/><path class="cls-125" d="M45.57,16.15l.84.06c0,.61,0,1.23.05,1.85h0a.7.7,0,0,1-1,.16,1.81,1.81,0,0,1-.2-1.81A.59.59,0,0,1,45.57,16.15Z"/><path class="cls-119" d="M33.18,32.21c-.85,0-.9-.63-.9-1.23,0-1.45,0-2.9,0-4.35l.9,0c0,1.79,0,3.58,0,5.37Z"/><path class="cls-108" d="M32.27,26.55l-1,.06-.2-.13c-.5-1-.22-2-.25-3,0-1.48-.06-3,0-4.44a1.73,1.73,0,0,1,.22-.82l.21-.13.93,0C32.27,20.9,32.27,23.73,32.27,26.55Z"/><path class="cls-105" d="M39.85,34.15l-.06-2.82h.07a.72.72,0,0,1,1-.27.69.69,0,0,1,.29.34,5.07,5.07,0,0,1,.14,1.86,1.41,1.41,0,0,1-.37,1.06A.71.71,0,0,1,39.85,34.15Z"/><path class="cls-106" d="M39.85,34.15h.94l.2.11a1.52,1.52,0,0,1-.07,1.91.67.67,0,0,1-1-.08L39.8,36C39.82,35.39,39.84,34.77,39.85,34.15Z"/><path class="cls-126" d="M40.75,31.33h-.89c0-1.57,0-3.14,0-4.7l.86,0c1,.7.41,1.73.5,2.58C41.31,29.86,41.6,30.78,40.75,31.33Z"/><path class="cls-125" d="M30.44,16.16l.84.05c0,.62,0,1.23,0,1.85h0a.7.7,0,0,1-1,.16,1.81,1.81,0,0,1-.2-1.81A.53.53,0,0,1,30.44,16.16Z"/><path class="cls-127" d="M24.67,38.9c0-.65,0-1.3,0-1.94l.07-.88a.68.68,0,0,1,1-.16,2.72,2.72,0,0,1,.43,2c-.11.38,0,.83-.38,1.13a.82.82,0,0,1-1.11-.21Z"/><path class="cls-105" d="M24.72,34.15l-.06-2.82h.07a.71.71,0,0,1,.95-.27.66.66,0,0,1,.29.33,4.93,4.93,0,0,1,.15,1.87,1.41,1.41,0,0,1-.37,1.06A.71.71,0,0,1,24.72,34.15Z"/><path class="cls-106" d="M24.72,34.15h.94l.19.09a1.33,1.33,0,0,1,0,1.73l-.18.1h-.94Z"/><path class="cls-126" d="M25.62,31.33h-.89c0-1.57,0-3.14,0-4.71l.86,0c.95.67.47,1.71.51,2.53S26.49,30.77,25.62,31.33Z"/><path class="cls-117" d="M16.2,61.58l-.91,0-.22-.11c-.58-1-.25-2.11-.26-3.17q-.08-9.19,0-18.4a1.85,1.85,0,0,1,.27-1.06.68.68,0,0,1,1,0c.62.45.55,1.09.55,1.76.05,5.9,0,11.8,0,16.22,0-4.48,0-10.45,0-16.43,0-.54,0-1.12-.52-1.49a.7.7,0,0,1-.13-1,1.32,1.32,0,0,1,1.06-.35,1.1,1.1,0,0,1,1,.44h.46a4.4,4.4,0,0,0-.48,2.39q0,10.62,0,21.23Z"/><path class="cls-128" d="M16.21,18l.93.07,0,12.33-.88,0a.56.56,0,0,1-.34-.28,17.24,17.24,0,0,1-.14-4.06c-.05-2.42,0-4.84,0-7.26,0-.21.16-.34.15-.53A.67.67,0,0,1,16.21,18Z"/><path class="cls-129" d="M15.3,34.19l0,.87a.74.74,0,0,1-.75,1.26,1.66,1.66,0,0,0-1.5-.8c-1,0-1.23-.38-.94-1.25a.79.79,0,0,1,.29-.36,4.74,4.74,0,0,1,1.76-.22,1.56,1.56,0,0,1,1,.18A.46.46,0,0,1,15.3,34.19Z"/><path class="cls-130" d="M16.23,30.43c-.13.71.27,1.68-.93,1.84l-.21-.07a1.15,1.15,0,0,1-.3-1,1.33,1.33,0,0,1,.38-1,.73.73,0,0,1,1,.18Z"/><path class="cls-84" d="M18.1,37.93l-1,0a1.17,1.17,0,0,1,0-1.87C18.48,36.16,18,37.21,18.1,37.93Z"/><path class="cls-131" d="M17.15,36l0,1.87-.89.08L16,37.9a1.7,1.7,0,0,1-.13-1.69.5.5,0,0,1,.33-.24Z"/><path class="cls-132" d="M15.26,36c0-.32,0-.64,0-1,.58,0,.94.28,1,.91a.36.36,0,0,0,0,.11c-.26.24-.52.39-.85.12Z"/><path class="cls-114" d="M15.31,33.18c.33.07.77,0,.76.5s-.45.43-.77.51l-.1-.07c-.22-.22-.4-.45-.2-.78A.49.49,0,0,1,15.31,33.18Z"/><path class="cls-115" d="M15.3,32.27v.91l-.11,0a.71.71,0,0,1-.94.23.73.73,0,0,1-.27-.33,1,1,0,0,1,.21-1,.67.67,0,0,1,1,.14Z"/><path class="cls-133" d="M15.31,16.15l.84.06.06,1.8,0,.06a.7.7,0,0,1-1,.17,1.32,1.32,0,0,1-.36-1,1,1,0,0,1,.43-1Z"/><path class="cls-134" d="M56.89,31.3l-.07-4.71.08-3.07A.74.74,0,0,1,58,23.37c.49,1,.16,2.16.27,3.24s0,2.38,0,3.58A3.54,3.54,0,0,1,58,31.37.7.7,0,0,1,56.89,31.3Z"/><path class="cls-135" d="M56.9,16.2l2.83-.05a.75.75,0,0,1,.94-.24.63.63,0,0,1,.29.31,1.27,1.27,0,0,1,0,1,1.21,1.21,0,0,1-1,.36.92.92,0,0,0-1,.58c-.66.13-.57,1-1.18,1.18a.77.77,0,0,1-.89-.33l-.08-1Z"/><path class="cls-136" d="M56.91,19l.86,0c.91.72.45,1.74.48,2.61,0,.61.31,1.41-.46,1.88H56.9Z"/><path class="cls-137" d="M10.56,19l-.08-.93.08,0c.66-.72,1.34-.55,2-.05.62,1.42.25,2.91.29,4.37a6.57,6.57,0,0,1-.26,3.2,1.15,1.15,0,0,1-1.21.06c-.76-.78-.26-1.77-.41-2.65,0-.93,0-1.85,0-2.78A1.4,1.4,0,0,0,10.56,19Z"/><path class="cls-138" d="M11.44,22.82l.06,2.56A1.15,1.15,0,0,1,11.67,27a.75.75,0,0,1-1.11-.13l-.08-.25.08-3.77A.53.53,0,0,1,11.44,22.82Z"/><path class="cls-139" d="M11.44,22.82h-.88V19c.65,0,.88.4.88,1Z"/><path class="cls-140" d="M10.56,26.83h.86c.66.33.5,1,.51,1.5a10.15,10.15,0,0,1-.11,2.75,1,1,0,0,1-.24.41.7.7,0,0,1-1-.2Z"/><path class="cls-141" d="M10.56,31.3h.89c.38.3.45.66.12,1s-.69.27-1-.07H10.5Z"/><path class="cls-142" d="M25.62,31.33V26.59l.08-3.31a.75.75,0,0,1,1.13-.13c.49,1.12.16,2.29.25,3.44s0,2.4,0,3.6a3.3,3.3,0,0,1-.23,1.18.7.7,0,0,1-1.13-.06Z"/><path class="cls-135" d="M25.69,16.2l2.82-.05a.77.77,0,0,1,.95-.24.63.63,0,0,1,.29.31,1.27,1.27,0,0,1,0,1,1.21,1.21,0,0,1-1.05.36,1,1,0,0,0-1,.58c-.65.13-.56,1-1.18,1.18A.76.76,0,0,1,25.7,19l-.09-1Z"/><path class="cls-143" d="M25.7,19l.86,0c.91.73.42,1.74.47,2.61,0,.54.27,1.26-.45,1.64h-.89Z"/><path class="cls-144" d="M40.75,31.33V26.59l.08-3.07a.74.74,0,0,1,1.11-.15c.5,1,.16,2.16.27,3.24-.05,1.19,0,2.38,0,3.58a3.54,3.54,0,0,1-.24,1.18.7.7,0,0,1-1.13-.06Z"/><path class="cls-135" d="M40.83,16.19l2.82,0a.75.75,0,0,1,.94-.24.63.63,0,0,1,.29.31,1.27,1.27,0,0,1,0,1,1.2,1.2,0,0,1-1.05.36.94.94,0,0,0-1,.58c-.66.13-.56,1-1.18,1.18a.77.77,0,0,1-.89-.33Z"/><path class="cls-145" d="M40.83,19l.86,0c.91.72.45,1.75.49,2.62,0,.6.31,1.41-.47,1.87h-.89Z"/><path class="cls-146" d="M13.38,16.15c0-2.81,0-5.62-.05-8.43l.92,0q.06,4.23.1,8.44a.46.46,0,0,1-.2.32C13.79,16.6,13.52,16.56,13.38,16.15Z"/><path class="cls-147" d="M15.23,16.21l0,.91a.65.65,0,0,1-1,.14.67.67,0,0,1,.06-1l.09-.1Z"/><path class="cls-148" d="M44.61,10.5l.89,0c0,1.88,0,3.75.07,5.63l-.08.06a.56.56,0,0,1-.9,0h0a1.63,1.63,0,0,1-.4-1.12c-.09-1.2,0-2.4,0-3.6C44.15,11,44.21,10.71,44.61,10.5Z"/><path class="cls-146" d="M44.61,10.5l0,5.68-.92,0c0-2.81,0-5.62-.07-8.43l1,0Z"/><path class="cls-149" d="M60.68,10.73l.9,0,.06,5.41-.08.05a.56.56,0,0,1-.9,0h0c-.86-.95-.38-2.09-.43-3.15C60.17,12.25,59.88,11.36,60.68,10.73Z"/><path class="cls-146" d="M60.68,10.73l0,5.45-.92,0q0-4.21-.07-8.44l1,0Z"/><path class="cls-149" d="M29.48,11h.9l.06,5.18-.09.05a.56.56,0,0,1-.9,0h0c-.85-.87-.4-1.93-.41-2.92C29,12.48,28.63,11.6,29.48,11Z"/><path class="cls-147" d="M29.48,11l0,5.21-.93,0-.06-8.44.95,0Z"/><path class="cls-150" d="M14.26,16.23l.06.86,0,.17a.92.92,0,0,1-.75.34.91.91,0,0,0-1,.43l-.16,0H10.56V16.2l2.82-.05Z"/><path class="cls-117" d="M31.33,61.58l-.91,0-.21-.1c-.47-.68-.26-1.44-.27-2.18-.1-6.34,0-12.69-.05-19a2,2,0,0,1,.32-1.44.68.68,0,0,1,1,0,1.59,1.59,0,0,1,.55,1.37c.06,6,0,12.05,0,16.83,0-4.72,0-10.68,0-16.65a1.58,1.58,0,0,0-.53-1.49.7.7,0,0,1-.13-1,1.34,1.34,0,0,1,1.06-.35,1.12,1.12,0,0,1,1,.44h.46a4.31,4.31,0,0,0-.48,2.39c0,7.08,0,14.15,0,21.23Z"/><path class="cls-151" d="M31.32,26.61c0,1.48,0,2.95,0,4.42,0,.62-.1,1.19-.9,1.24l-.2-.07a1,1,0,0,1-.32-.94c0-.37,0-.74,0-1.11.17-1.21-.33-2.49.33-3.66a.7.7,0,0,1,1.07.1Z"/><path class="cls-152" d="M30.43,34.19l0,.88a.76.76,0,0,1,.12,1.08.92.92,0,0,1-1.12.12c-.36-.27-.56-.67-1.15-.71-1.21-.08-1.3-.31-1-1.53.24-.38.64-.32,1-.35h1a1.5,1.5,0,0,1,.93.19A.45.45,0,0,1,30.43,34.19Z"/><path class="cls-84" d="M33.24,37.93l-1,0a1.16,1.16,0,0,1,0-1.87C33.61,36.16,33.09,37.21,33.24,37.93Z"/><path class="cls-131" d="M32.28,36c0,.62,0,1.25,0,1.87l-.9.08-.2-.09A1.73,1.73,0,0,1,31,36.21a.53.53,0,0,1,.33-.24Z"/><path class="cls-114" d="M30.44,33.18c.33.07.77,0,.76.5s-.45.43-.77.51l-.09-.07c-.23-.22-.41-.45-.2-.78A.45.45,0,0,1,30.44,33.18Z"/><path class="cls-113" d="M30.39,36c0-.32,0-.63,0-1,.58,0,.94.28,1,.9a.36.36,0,0,0,0,.11c-.26.24-.52.39-.84.12Z"/><path class="cls-115" d="M30.44,32.27v.91l-.1,0a.73.73,0,0,1-.95.23.82.82,0,0,1-.27-.34.93.93,0,0,1,.22-1,.67.67,0,0,1,1,.14Z"/><path class="cls-153" d="M9.61,42.65l.87,0c.66.44.57,1.19.58,1.81a61.09,61.09,0,0,1-.05,6.9c-.13.61.27,1.32-.29,1.87a.78.78,0,0,1-1.1-.2Z"/><path class="cls-154" d="M9.62,53.06l.86,0c.76.25.6.93.61,1.47,0,2.64.09,5.27-.13,7.9a.92.92,0,0,1-.42,1l0,.1-.89-.09C9.6,60,9.61,56.52,9.62,53.06Z"/><path class="cls-155" d="M24.71,38.88h.89c.56.12.59.58.6,1,0,.62.15,1.23.13,1.85a2.73,2.73,0,0,0-.23,1.69,53.34,53.34,0,0,1,.1,7,4.3,4.3,0,0,1-.19.92.78.78,0,0,1-.2.43.72.72,0,0,1-1.06-.18Z"/><path class="cls-156" d="M24.75,51.64l.86,0c.72.22.61.85.61,1.36a89.44,89.44,0,0,1-.14,9,1.07,1.07,0,0,0,0,.47c.12.44-.13.72-.43,1l-.05.1-.89-.08Q24.73,57.55,24.75,51.64Z"/><path class="cls-157" d="M56,49.27l.88,0c1,.5.48,1.37.53,2.11a110.29,110.29,0,0,1,0,11.06c.13.45-.15.71-.43,1l-.05.1-.89-.1-.06-1.88c0-3.66,0-7.33,0-11C55.91,50.14,55.94,49.7,56,49.27Z"/><path class="cls-158" d="M40.75,63.54l-.89-.1c0-.63,0-1.25-.07-1.88q0-5.33.08-10.63a.75.75,0,0,1,1.07-.18.85.85,0,0,1,.25.65,57.34,57.34,0,0,1,0,10.4,1.71,1.71,0,0,0,0,.67c.14.45-.15.71-.42,1Z"/><path class="cls-159" d="M40.75,51l-.88,0-.06-2.58q0-4.74,0-9.47A.83.83,0,0,1,41,38.67c.65,1,.32,2.06.46,3.09a2.51,2.51,0,0,0-.24,1.48,41.67,41.67,0,0,1,.15,6.32C41.35,50.08,41.46,50.71,40.75,51Z"/><path class="cls-127" d="M40.74,38.89h-.88a15.3,15.3,0,0,1,0-2.79l.88-.12a.5.5,0,0,1,.32.25,2.81,2.81,0,0,1,.21,1.85C41.22,38.42,41.22,38.82,40.74,38.89Z"/><path class="cls-160" d="M56.88,63.44V62.5c.41-.83.77-1.74,2-1.39a1.25,1.25,0,0,1,1,.45c.27.67.45,1.33-.25,1.88l0,.05Z"/><path class="cls-161" d="M61.55,63.41l-.93,0a1.43,1.43,0,0,1-.11-2,.78.78,0,0,1,1.12.06h0C61.61,62.17,61.58,62.79,61.55,63.41Z"/><path class="cls-162" d="M60.69,61.55c0,.62,0,1.25-.07,1.88h-.94l0-1.86.06-.16a.64.64,0,0,1,.79-.14A.51.51,0,0,1,60.69,61.55Z"/><path class="cls-160" d="M10.54,63.44v-.93c.42-.84.78-1.74,2-1.4a1.28,1.28,0,0,1,1,.44c.28.68.45,1.34-.24,1.89l0,.05Z"/><path class="cls-163" d="M13.34,63.44l-.05-1.86a.45.45,0,0,1,.23-.29.91.91,0,0,1,1,.09.85.85,0,0,1,.18.37c.08.61.29,1.24-.37,1.68Z"/><path class="cls-164" d="M14.28,63.43l.06-1.88c.31-.38.63-.25.94,0h0c0,.62-.06,1.24-.08,1.86Z"/><path class="cls-160" d="M25.67,63.44V62.5c.41-.83.77-1.73,2-1.39a1.26,1.26,0,0,1,1,.44c.28.68.46,1.34-.24,1.89l0,.05Z"/><path class="cls-163" d="M28.47,63.44l0-1.85.1-.19a.76.76,0,0,1,1,0,.83.83,0,0,1,.26.35c.08.61.33,1.27-.36,1.73Z"/><path class="cls-164" d="M29.41,63.43l.07-1.88c.3-.38.62-.25.93,0h0c0,.62-.05,1.24-.08,1.86Z"/><path class="cls-160" d="M40.81,63.44V62.5c.41-.83.78-1.73,2-1.39a1.28,1.28,0,0,1,1,.44c.28.68.45,1.34-.24,1.89l0,.05Z"/><path class="cls-163" d="M43.61,63.44l0-1.85.1-.19a.77.77,0,0,1,1-.06,1,1,0,0,1,.26.35c.08.62.33,1.28-.36,1.74Z"/><path class="cls-164" d="M44.54,63.43l.07-1.88c.31-.38.62-.25.94,0h0l-.09,1.86Z"/><path class="cls-165" d="M10.56,51.41c0-2.91-.05-5.82-.08-8.73l.09-1c1-.54,1.11.29,1.2.84a3.07,3.07,0,0,0,1.06,2,74.4,74.4,0,0,1-.05,7.76c-.54.65-1.08.46-1.56-.06C11,52,10.79,51.69,10.56,51.41Z"/><path class="cls-166" d="M12.39,44.55c-.71-.23-.86-.86-1-1.46s-.23-1.08-.78-1.38l0-3.77c1.23-.56,1.55.63,2.22,1.16a34.25,34.25,0,0,1,.12,4.64A.78.78,0,0,1,12.39,44.55Z"/><path class="cls-167" d="M12.42,38.88c-.81,0-1.23-.67-1.88-.94V36.06l0,0c.94-.86,2-.53,3-.22a2.58,2.58,0,0,1,.23,1.83c-.1.67-.92.63-1.15,1.17Z"/><path class="cls-168" d="M10.56,32.24c.65,0,.91-.32.89-.93l0,0a.72.72,0,0,1,1-.16,1.28,1.28,0,0,1,.38,1,2,2,0,0,1-.19,1.09.72.72,0,0,1-.34.28c-.64.14-1.28.33-1.79-.3Z"/><path class="cls-169" d="M10.55,33.22l1.77.06c.45.25.35.53.07.83l0,.06a1.15,1.15,0,0,1-1.9,0h0Z"/><path class="cls-170" d="M10.52,34.15l1.9,0c0,.64.36.91,1,.93s1.07.23,1.17.91a.53.53,0,0,1-.26.31.77.77,0,0,1-.94-.23L10.52,36Z"/><path class="cls-171" d="M61.63,61.54h-1c-.64-.38-.48-1-.48-1.59,0-6.72-.11-13.45,0-20.17,0-.31.13-.56.15-.84a.77.77,0,0,1,1-.36.56.56,0,0,1,.29.33q0,10.85,0,21.68Z"/><path class="cls-172" d="M62.54,38.88c1.06.06.94.86.94,1.56q0,9.31,0,18.64c0,.19,0,.39,0,.59s0,.72-.41.74-.48-.44-.5-.77c0-.79,0-1.58,0-2.36V38.88Z"/><path class="cls-131" d="M62.56,36c1.29.17.84,1.17.91,1.92l-.9.08-.21-.11a1.29,1.29,0,0,1,.17-1.8Z"/><path class="cls-173" d="M62.57,38l0,.89h0l-.9,0-.09-.06a.75.75,0,0,1-.25-.91.65.65,0,0,1,.28-.29.77.77,0,0,1,.93.23Z"/><path class="cls-174" d="M61.61,18l.92,0q0,4.28,0,8.53l-.91.05-.21-.13c-.09-.14-.24-.27-.24-.4a65.13,65.13,0,0,1,.11-7.78A.59.59,0,0,1,61.61,18Z"/><path class="cls-175" d="M61.55,27.54v2.83a.69.69,0,0,1-1.09.06,3.63,3.63,0,0,1,0-3A.68.68,0,0,1,61.55,27.54Z"/><path class="cls-176" d="M60.68,30.33l.88,0v.92a.69.69,0,0,1-1,.25.75.75,0,0,1-.27-.95A.57.57,0,0,1,60.68,30.33Z"/><path class="cls-177" d="M61.55,27.54h-.87l-.21-.1a.73.73,0,0,1,.08-1,.68.68,0,0,1,1,.13l0,.08Z"/><path class="cls-178" d="M60.66,31.3h.91l0,1-.86.06-.19-.06a.56.56,0,0,1,0-.86Z"/><path class="cls-170" d="M56.85,36l0-1.74.05-.1a1.3,1.3,0,0,1,1.66-.26.53.53,0,0,1,.22.34.82.82,0,0,0,.89.88c.57,0,1,.24,1,.9l-.09.21a3.39,3.39,0,0,1-3.68-.11A.27.27,0,0,0,56.85,36Z"/><path class="cls-179" d="M60.62,34.12l-1.86.09v-.1c-.28-.49-1-.26-1.26-.84-.55-1.08.51-1.37.94-2A.57.57,0,0,1,58.7,31a1.17,1.17,0,0,1,.95,0,.89.89,0,0,1,.3.22,1.82,1.82,0,0,1,.22.85,1.13,1.13,0,0,0,.48,1.14h0A.56.56,0,0,1,60.62,34.12Z"/><path class="cls-180" d="M60.65,36l1,0,0,0a1.14,1.14,0,0,1,0,1.86h0a.72.72,0,0,1-1.07.11c-.41-.68-.62-1.35.13-1.94A.48.48,0,0,1,60.65,36Z"/><path class="cls-79" d="M60.62,34.12l0-.91.91,0v.89Z"/><path class="cls-181" d="M61.59,37.93V36.07h.94c0,.6,0,1.2,0,1.8Z"/><path class="cls-182" d="M60.65,33.2c-.64,0-1-.21-.94-.93a.56.56,0,0,1,.9,0l.08.07C60.67,32.6,60.66,32.9,60.65,33.2Z"/><path class="cls-183" d="M60.66,16.18l.9,0c0,.6,0,1.21,0,1.82l0,0a.69.69,0,0,1-1,.11.75.75,0,0,1,.06-1.07Z"/><path class="cls-184" d="M45.55,61.54H44.6c-.87-.61-.52-1.58-.52-2.33.07-6.31,0-12.62,0-18.93a3.25,3.25,0,0,1,.18-1.35.78.78,0,0,1,1-.35.56.56,0,0,1,.29.33q0,10.85,0,21.69Z"/><path class="cls-172" d="M46.46,38.88c1.06.06.94.86.94,1.56q0,9.31,0,18.64a5.62,5.62,0,0,1,0,.58c0,.31,0,.73-.41.75s-.48-.44-.49-.77c0-.79,0-1.58,0-2.36q0-9.21,0-18.4Z"/><path class="cls-131" d="M47.41,36c0,.62,0,1.25,0,1.87L46.5,38l-.21-.09a1.7,1.7,0,0,1-.12-1.69.52.52,0,0,1,.32-.24Z"/><path class="cls-173" d="M46.46,38.88l-.9,0-.1-.06a.69.69,0,1,1,1-1l.07.11c0,.29,0,.59,0,.89Z"/><path class="cls-151" d="M46.45,26.62c0,1.47,0,2.94,0,4.41,0,.62-.1,1.18-.9,1.23l-.19-.06a1.06,1.06,0,0,1-.33-1c0-.37,0-.73,0-1.1.17-1.21-.33-2.49.33-3.66a.7.7,0,0,1,1.07.1Z"/><path class="cls-152" d="M45.56,34.19l0,.88a.79.79,0,0,1,.25,1,.6.6,0,0,1-.31.3,1.06,1.06,0,0,1-1.07-.15,1.25,1.25,0,0,0-1-.71c-1.32-.21-1.33-.2-1-1.47.26-.35.65-.29,1-.33h1a1.5,1.5,0,0,1,.93.19A.45.45,0,0,1,45.56,34.19Z"/><path class="cls-113" d="M45.52,36c0-.29,0-.59,0-.89.58,0,.94.28,1,.9,0,0,0,.07,0,.11C46.1,36.35,45.77,36.44,45.52,36Z"/><path class="cls-115" d="M45.57,32.26v.92l-.08.19a.77.77,0,0,1-1,.09.8.8,0,0,1-.26-.34,1,1,0,0,1,.22-1,.68.68,0,0,1,1,.15Z"/><path class="cls-114" d="M45.57,33.18c.32.07.76,0,.76.5s-.45.43-.77.51l-.09-.07a.58.58,0,0,1,0-.89Z"/><path class="cls-174" d="M46.44,26.59l-.92.07a.61.61,0,0,1-.33-.3,54.15,54.15,0,0,1-.14-6.62,2.43,2.43,0,0,1,.14-1.43.63.63,0,0,1,.34-.28l.92,0Q46.45,22.34,46.44,26.59Z"/><path class="cls-165" d="M56.9,51.41l-.07-2.11.07-7.81c1-.37,1.09.43,1.21,1a3.61,3.61,0,0,0,1.08,2.14c.05,2.57.14,5.14-.06,7.71-.54.6-1.05.53-1.55-.07C57.35,52,57.15,51.67,56.9,51.41Z"/><path class="cls-166" d="M58.73,44.55a1.51,1.51,0,0,1-.93-1.22,3.37,3.37,0,0,0-.9-1.84l-.08-2.6.08-.72c1.1-.59,1.55.37,2.18.9a29.13,29.13,0,0,1,.14,4.67A.77.77,0,0,1,58.73,44.55Z"/><path class="cls-185" d="M58.76,38.89c-.73.06-1.24-.48-1.86-.72,0-.69,0-1.39,0-2.08a26.36,26.36,0,0,1,3.77,0c0,.6,0,1.2,0,1.8l0,.17a.9.9,0,0,1-.75.33.83.83,0,0,0-.93.44Z"/><path class="cls-186" d="M58.73,31.35c.16.84-1.1,1-.9,1.84-.3.39-.61.34-.91,0h-.11c0-.32,0-.65,0-1s0-.62.07-.93h.92C58.13,31,58.45,30.92,58.73,31.35Z"/><path class="cls-187" d="M56.92,33.2h.91c.58,0,1,.24.92.92l-1.87,0Z"/><path class="cls-183" d="M44.59,16.18l.9,0,0,1.82,0,0a.69.69,0,0,1-1,.11.75.75,0,0,1,.06-1.07Z"/><path class="cls-174" d="M31.31,26.59l-.93.07a.62.62,0,0,1-.32-.3,52.42,52.42,0,0,1-.14-6.63,2.45,2.45,0,0,1,.14-1.41.63.63,0,0,1,.33-.29l.93,0C31.32,20.91,31.31,23.75,31.31,26.59Z"/><path class="cls-186" d="M40.81,31.31l.92,0a.74.74,0,0,1,1-.18.91.91,0,0,1,.31,1c0,.74-1,.61-1.07,1.24a.69.69,0,0,1-.32.21.68.68,0,0,1-.83-.3Z"/><path class="cls-169" d="M40.83,33.22l.87,0c.47.28.43.65.18,1-.41.33-.76.19-1.09-.14h0Z"/><path class="cls-170" d="M40.79,34.15l.93,0c.34-.26.68-.37,1,.07,0,.62.35.88.93.91s.94.27,1,.89l-.07.2a1.19,1.19,0,0,1-1,.35c-.94.05-1.91.34-2.71-.45a.27.27,0,0,0,0-.12Z"/><path class="cls-183" d="M29.45,16.18l.9,0c0,.61,0,1.22,0,1.82l0,0a.7.7,0,0,1-1.05.12.76.76,0,0,1,.06-1.08Z"/><path class="cls-166" d="M25.69,41.72l-.09-2.83.08-1c1.23-.59,1.5.68,2.2,1.13a22.57,22.57,0,0,1,0,5.51c-1,.51-1.28.37-1.65-.67C26,43.19,26.15,42.38,25.69,41.72Z"/><path class="cls-167" d="M27.54,38.88c-.8,0-1.22-.67-1.86-.94,0-.63,0-1.25,0-1.87l0,0c.94-.86,2-.53,3-.22a2.54,2.54,0,0,1,.23,1.83c-.1.68-.92.63-1.15,1.17Z"/><path class="cls-186" d="M25.68,31.31l.92,0a.75.75,0,0,1,1-.18.91.91,0,0,1,.31,1c0,.74-1,.61-1.07,1.24a.75.75,0,0,1-.32.21.69.69,0,0,1-.84-.3Z"/><path class="cls-169" d="M25.69,33.22l.87,0c.48.28.44.65.19,1a.73.73,0,0,1-1.09-.14h0Z"/><path class="cls-170" d="M25.66,34.15l.93,0c.34-.26.67-.37,1,.07,0,.62.35.88.93.91s.94.27,1,.89l-.07.19c-.33.29-.61.14-.88-.09L25.65,36C25.65,35.41,25.66,34.78,25.66,34.15Z"/><path class="cls-184" d="M15.28,61.54h-.95c-.87-.61-.52-1.58-.51-2.33.06-6.31-.05-12.62,0-18.93A3.26,3.26,0,0,1,14,38.93a.76.76,0,0,1,1-.35.54.54,0,0,1,.28.33q0,10.85,0,21.69Z"/><path class="cls-172" d="M16.19,38.88c1.07.06.95.86.95,1.56V59.08a5.62,5.62,0,0,1,0,.58c0,.31,0,.73-.41.75s-.48-.44-.49-.77c0-.79,0-1.58,0-2.36q0-9.21,0-18.4Z"/><path class="cls-173" d="M16.23,38l0,.89h0l-.9,0-.09-.06a.76.76,0,0,1-.24-.91.61.61,0,0,1,.28-.29.76.76,0,0,1,.92.23Z"/><path class="cls-188" d="M15.29,18l.89.06q0,6.15,0,12.29l-.89.05a.55.55,0,0,1-.36-.27,35.31,35.31,0,0,1-.13-5.44c0-2.07-.05-4.14,0-6.21,0-.06.08-.13.12-.2A.55.55,0,0,1,15.29,18Z"/><path class="cls-180" d="M14.29,36.09l.27-.08h.7v0a1.15,1.15,0,0,1,0,1.86h0a.74.74,0,0,1-1.1.09C13.77,37.35,13.62,36.69,14.29,36.09Z"/><path class="cls-168" d="M12.39,34.11c0-.27,0-.55-.07-.83l.13-.11a1.1,1.1,0,0,1,1.82.06h0c.3.3.33.59,0,.87Z"/><path class="cls-79" d="M14.26,34.1l0-.87h.92v.89Z"/><path class="cls-189" d="M15.3,30.41l-.08.9a.7.7,0,0,1-1.07.1.85.85,0,0,1,0-1.12.68.68,0,0,1,1.07.06Z"/><path class="cls-190" d="M14.32,31.29l.9,0c0,.31,0,.62,0,.93l-.88.06-.18-.08a.56.56,0,0,1,0-.85Z"/><path class="cls-181" d="M15.25,37.93V36.07h.94l0,1.8Z"/><path class="cls-191" d="M14.27,33.23l-1.82-.06v-.89a.88.88,0,0,1,.88-.45.87.87,0,0,1,.91.41l.08.06Z"/><path class="cls-192" d="M14.32,17.09l.89,0c0,.3,0,.6.07.89l-.06.09a.68.68,0,0,1-1,.09.69.69,0,0,1,.07-1Z"/><path class="cls-193" d="M57.79,23.53c0-1.5,0-3,0-4.49,0-.57.28-1,.92-1a.57.57,0,0,1,.37.25c.39,1.8.08,3.63.18,5.44a8.71,8.71,0,0,1-.15,2.69.94.94,0,0,1-.25.37.7.7,0,0,1-1-.25Z"/><path class="cls-194" d="M57.86,26.56l.89.11c.55.3.44.84.43,1.32,0,1.11.37,2.27-.38,3.3l-.07.06-.92-.06C57.82,29.72,57.84,28.14,57.86,26.56Z"/><path class="cls-195" d="M60.59,17.11l.1.9a.49.49,0,0,1-.18.32,1.3,1.3,0,0,1-.92.2c-.38,0-.59-.21-.81-.45l-.09,0C58.91,16.9,59.83,17.17,60.59,17.11Z"/><path class="cls-196" d="M12.38,25.41q0-3.68,0-7.35h0a.78.78,0,0,1,1-.21.8.8,0,0,1,.29.37,42.93,42.93,0,0,1,.12,6.21,34.63,34.63,0,0,1-.13,5.85.82.82,0,0,1-.33.36,1,1,0,0,1-1.17-.15C11.93,28.78,11.57,27.07,12.38,25.41Z"/><path class="cls-197" d="M12.38,25.41l.08,4.92c.19.25.4.48.22.82a.41.41,0,0,1-.3.19l-.9-.05-.06-4.45c0-.49.06-1,.08-1.46Z"/><path class="cls-193" d="M26.58,23.29c0-1.42,0-2.83,0-4.25,0-.58.28-1,.92-1a.55.55,0,0,1,.37.26A30.37,30.37,0,0,1,28,24c0,.91.25,1.86-.29,2.72a.67.67,0,0,1-1.05-.11Z"/><path class="cls-198" d="M26.65,26.57l.91,0a1.56,1.56,0,0,0,.2.16,8.32,8.32,0,0,1,0,4.51,1.64,1.64,0,0,0-.22.14l-.93-.05C26.61,29.72,26.63,28.14,26.65,26.57Z"/><path class="cls-195" d="M29.38,17.11l.09.9a.46.46,0,0,1-.17.32,1.27,1.27,0,0,1-.91.2c-.38,0-.59-.2-.81-.44l-.1,0C27.7,16.9,28.62,17.17,29.38,17.11Z"/><path class="cls-199" d="M41.71,23.53c0-1.49,0-3,0-4.49.05-.57.28-1,.92-1a.62.62,0,0,1,.37.26,28.35,28.35,0,0,1,.15,5.37c0,1,.26,2-.3,3a.68.68,0,0,1-1.06-.11Z"/><path class="cls-200" d="M41.77,26.57l.91,0,.21.16a8.23,8.23,0,0,1,0,4.51l-.22.14-.93-.05C41.74,29.72,41.76,28.15,41.77,26.57Z"/><path class="cls-195" d="M44.51,17.11l.1.9a.49.49,0,0,1-.18.32,1.27,1.27,0,0,1-.91.2c-.38,0-.59-.2-.81-.44l-.1,0C42.83,16.91,43.75,17.17,44.51,17.11Z"/><path class="cls-137" d="M13.34,18l-.95.05c0-.69.34-.94,1-.89C13.64,17.45,13.72,17.73,13.34,18Z"/><path class="cls-201" d="M13.34,18l0-.84h.89c0,.29.06.59.08.88l-.08.19c-.33.29-.62.14-.89-.11Z"/><path class="cls-184" d="M30.41,61.54h-.94c-1-.84-.53-2-.52-3,.05-6.11,0-12.21,0-18.32a2.88,2.88,0,0,1,.19-1.3.79.79,0,0,1,1-.38.59.59,0,0,1,.29.33q0,10.85,0,21.69Z"/><path class="cls-172" d="M31.33,38.88c1.06.06.94.86.94,1.56q0,9.31,0,18.64a5.61,5.61,0,0,1,0,.58c0,.31,0,.73-.41.75s-.48-.44-.5-.77c0-.79,0-1.58,0-2.36q0-9.21,0-18.4Z"/><path class="cls-173" d="M31.36,38l0,.89h0l-.9,0-.1-.06a.76.76,0,0,1-.24-.91.65.65,0,0,1,.28-.29.77.77,0,0,1,.93.23Z"/><path class="cls-202" d="M30.38,26.66l0,3.72a.7.7,0,0,1-1.09.07c-.51-.87-.25-1.83-.3-2.75a2.31,2.31,0,0,1,.16-1.07.6.6,0,0,1,.28-.31.72.72,0,0,1,.94.28Z"/><path class="cls-176" d="M29.47,30.34l.89,0v.91a.72.72,0,0,1-.83.35.83.83,0,0,1-.32-.2.88.88,0,0,1-.05-.91A.45.45,0,0,1,29.47,30.34Z"/><path class="cls-178" d="M29.45,31.37l.91-.08,0,1-.86.06-.19-.09C29.05,31.88,29.06,31.59,29.45,31.37Z"/><path class="cls-180" d="M29.44,36l.95,0v0a1.14,1.14,0,0,1,0,1.86h0a.74.74,0,0,1-1.1.09c-.37-.68-.54-1.34.16-1.93Z"/><path class="cls-203" d="M27.56,34.19l-1-.07,0-.88.09-.09c.51-.57,1.14-.38,1.75-.26a.63.63,0,0,1,.33.27.7.7,0,0,1-.25,1Z"/><path class="cls-79" d="M29.43,33.21l.91,0v.89h-.93C29.12,33.81,29.05,33.5,29.43,33.21Z"/><path class="cls-204" d="M29.43,33.21l0,.91h-.93v-.88c.31-.43.64-.31,1,0Z"/><path class="cls-181" d="M30.38,37.93V36.07h.94c0,.6,0,1.2,0,1.8Z"/><path class="cls-182" d="M29.44,33.2l-1,0h0a.78.78,0,0,1-.17-1.08.67.67,0,0,1,1.06.09l.11.07C29.46,32.6,29.45,32.9,29.44,33.2Z"/><path class="cls-205" d="M10.56,51.41c.75,0,1.14.77,1.82.94.82.53.44,1.34.46,2,.05,2,.09,4,0,6a1.4,1.4,0,0,1-.43,1.13c-.83-.09-1.19.73-1.86.95l-.06-9.43Z"/><path class="cls-205" d="M27.54,61.56c-.83-.1-1.2.73-1.86.94,0-3.61-.05-7.23-.07-10.84l.09-.25a.68.68,0,0,1,1.21,0c.3.38.78.55,1,1,.17,2.75,0,5.5.07,8.24A1.19,1.19,0,0,1,27.54,61.56Z"/><path class="cls-165" d="M27.52,52.35c-.68-.17-1.07-.91-1.82-.94V41.72c.56.28.63.85.79,1.37s.33,1.22,1,1.45c1,.73.25,1.81.51,2.69a1,1,0,0,1,0,.63c-.06,1.16,0,2.33-.05,3.5C27.94,51.8,27.91,52.12,27.52,52.35Z"/><path class="cls-206" d="M56.9,51.41c.75,0,1.15.76,1.83.94.47.22.43.61.45,1.06.06,2.37.09,4.74,0,7.11a1.33,1.33,0,0,1-.41,1c-.83-.09-1.18.73-1.85.94Q56.89,57,56.9,51.41Z"/><path class="cls-205" d="M42.66,61.56c-.82-.09-1.18.73-1.85.94V51.41a.7.7,0,0,1,1.22,0c.3.38.77.56,1,1,.17,2.75.06,5.5.08,8.25A1.17,1.17,0,0,1,42.66,61.56Z"/><path class="cls-165" d="M42.65,52.35c-.68-.17-1.07-.92-1.83-.94L40.75,51l.07-9.23c1-.55,1.12.27,1.21.82a3.31,3.31,0,0,0,1.07,2.05c.13,2.29,0,4.58,0,6.87A.85.85,0,0,1,42.65,52.35Z"/><path class="cls-166" d="M42.66,44.55c-.71-.23-.86-.86-1-1.46s-.23-1.09-.79-1.37c0-.95,0-1.89-.08-2.83l.07-1c1.23-.55,1.55.63,2.21,1.17a32.56,32.56,0,0,1,.13,4.63A.78.78,0,0,1,42.66,44.55Z"/><path class="cls-167" d="M42.68,38.89c-.8,0-1.23-.67-1.87-1V36.09h2.82c.61.43.46,1,.36,1.62s-.92.58-1.13,1.12Z"/><path class="cls-207" d="M58.74,61.56c0-3.07,0-6.14,0-9.21v-7.8l0-5.66h0a.75.75,0,0,1,1-.24A.76.76,0,0,1,60,39a21.33,21.33,0,0,1,.15,4.15c0,5.67,0,11.33,0,17a1.49,1.49,0,0,1-.43,1.37l-.12,0Z"/><path class="cls-208" d="M59.75,61.54V38.9c.12-.4.39-.44.73-.29a.42.42,0,0,1,.2.3V61.54Z"/><path class="cls-207" d="M12.4,61.56c0-3.07,0-6.14,0-9.21,0-2.6,0-5.2,0-7.8l0-5.67h0a.71.71,0,0,1,1.07-.12c.66,1.11.36,2.35.35,3.5,0,5.93,0,11.86,0,17.79,0,.53.07,1.08-.42,1.48l-.11,0Z"/><path class="cls-208" d="M13.4,61.54q0-10.33,0-20.66c0-.67,0-1.34,0-2l.06-.16a.59.59,0,0,1,.78-.1.5.5,0,0,1,.16.29q0,10.86,0,21.7v.94Z"/><path class="cls-209" d="M27.52,52.35l.05-4.47a.76.76,0,0,1,1.1-.19c.53,1.08.25,2.24.26,3.37.05,3.16.07,6.33,0,9.49a1.38,1.38,0,0,1-.37,1l-.11.06-.9,0C27.53,58.49,27.53,55.42,27.52,52.35Z"/><path class="cls-210" d="M28.55,61.53l-.1-13.67c-.81-.93-.38-2-.41-3.08a47.91,47.91,0,0,1,.07-5.62,1.68,1.68,0,0,1,.16-.39.78.78,0,0,1,1-.18.52.52,0,0,1,.24.32V61.54Z"/><path class="cls-211" d="M42.66,44.55c0-1.89,0-3.78,0-5.66h0a.72.72,0,0,1,1.08-.12c.61,1.27.3,2.61.31,3.93,0,5.78,0,11.57,0,17.36,0,.53.07,1.08-.41,1.48l-.11.05-.9,0q0-4.61,0-9.21Q42.65,48.45,42.66,44.55Z"/><path class="cls-208" d="M43.67,61.54q0-9.81,0-19.6c0-1,0-2,0-3.07l.06-.16a.59.59,0,0,1,.78-.1.44.44,0,0,1,.15.3q0,10.85,0,21.69c0,.31,0,.63,0,.94Z"/><path class="cls-212" d="M14.29,36.09v1.84l-.05.16a.58.58,0,0,1-.79.11.49.49,0,0,1-.16-.3l.06-1.81Z"/><path class="cls-166" d="M13.34,38.87l-.92,0a.86.86,0,0,1,.88-1l.07.06a.58.58,0,0,1,0,.92Z"/><path class="cls-213" d="M13.36,32.23l-.91.05c0-.31,0-.62-.07-.94l.07-.06a.74.74,0,0,1,.91-.25.68.68,0,0,1,.29.29A.73.73,0,0,1,13.36,32.23Z"/><path class="cls-214" d="M60.64,37.91l1,0c0,.3,0,.61,0,.91l-.87.06-.08-.06a.58.58,0,0,1,0-.91Z"/><path class="cls-215" d="M60.69,18l.89.06c0,2.83,0,5.66,0,8.49l-.88.08-.22-.15c-.59-.92-.28-2-.3-2.92,0-1.38,0-2.77,0-4.16a1.7,1.7,0,0,1,.45-1.32Z"/><path class="cls-216" d="M60.68,27.55v2.78l-.08.06a.75.75,0,0,1-1.13.07,4.69,4.69,0,0,1,0-3,.75.75,0,0,1,1.13.09Z"/><path class="cls-217" d="M59.73,30.34l.87.05.06.91,0,0a.59.59,0,0,1-.91.05l0-.08C59.39,31,59.32,30.64,59.73,30.34Z"/><path class="cls-218" d="M60.61,27.52l-.88,0c-.45-.16-.44-.5-.34-.88a.63.63,0,0,1,.27-.33.72.72,0,0,1,1,.21l.07.09C60.66,26.93,60.64,27.22,60.61,27.52Z"/><path class="cls-219" d="M59.72,31.37l.91-.05c0,.3,0,.61,0,.91l-.9,0Z"/><path class="cls-220" d="M59.67,26.65l.06.9v2.79l0,.95h-.9c0-1.54,0-3.08,0-4.62l.06-.09C59.12,26.28,59.41,26.22,59.67,26.65Z"/><path class="cls-214" d="M45.55,38l-.09.87-.86.06-.08-.06a.71.71,0,0,1-.05-1.15.84.84,0,0,1,.89,0A.45.45,0,0,1,45.55,38Z"/><path class="cls-181" d="M45.52,36l.93.12c0,.6,0,1.2,0,1.8l-.88.1-.06-.09a1.13,1.13,0,0,1,0-1.81A.24.24,0,0,1,45.52,36Z"/><path class="cls-202" d="M45.52,26.66l0,3.72a.7.7,0,0,1-1.09.07c-.51-.87-.24-1.83-.3-2.75a2.45,2.45,0,0,1,.16-1.07.65.65,0,0,1,.28-.31.74.74,0,0,1,1,.27Z"/><path class="cls-176" d="M44.6,30.34l.89,0v.91a.72.72,0,0,1-.83.35.83.83,0,0,1-.32-.2.9.9,0,0,1-.05-.91A.45.45,0,0,1,44.6,30.34Z"/><path class="cls-178" d="M44.58,31.37l.91-.08,0,1-.86.06-.19-.09C44.18,31.88,44.19,31.59,44.58,31.37Z"/><path class="cls-180" d="M45.52,36.08l0,1.81-.92,0a1.11,1.11,0,0,1,0-1.83V36Z"/><path class="cls-203" d="M42.69,34.19l-1-.07c0-.29,0-.59,0-.88l.09-.09c.51-.57,1.13-.38,1.75-.26a.63.63,0,0,1,.33.27.7.7,0,0,1-.26,1Z"/><path class="cls-79" d="M45.47,33.23v.89h-.92c-.3-.31-.37-.62,0-.91Z"/><path class="cls-204" d="M44.57,33.21l0,.91h-.94v-.88c.31-.43.63-.31,1,0Z"/><path class="cls-182" d="M44.57,33.2l-1,0h0a.77.77,0,0,1-.16-1.08.66.66,0,0,1,1,.09l.11.07C44.6,32.6,44.58,32.9,44.57,33.2Z"/><path class="cls-215" d="M45.49,26.59l-.88-.05c-.63-.26-.55-.9-.53-1.35.1-2-.08-4,.07-6.05a1.61,1.61,0,0,1,.39-1.05l.07-.08.89.06C45.5,20.91,45.49,23.75,45.49,26.59Z"/><path class="cls-221" d="M60.65,37.94c0,.3,0,.6,0,.91l-.85,0-.11,0a.58.58,0,0,1,.06-.9Z"/><path class="cls-166" d="M59.7,38l-.06.9-.88,0A.82.82,0,0,1,59.7,38Z"/><path class="cls-222" d="M30.35,26.6l-.87-.06c-.58-.24-.56-.82-.53-1.25.11-2-.11-4,.08-6.07a1.68,1.68,0,0,1,.38-1.13l.06-.08.9.06C30.36,20.91,30.36,23.75,30.35,26.6Z"/><path class="cls-223" d="M44.5,32.23l-.88.05c-.33.28-.64.37-.94,0,0-.3,0-.6,0-.9l.12-.06a.79.79,0,0,1,.87-.39.81.81,0,0,1,.85.42l.08.06C44.56,31.66,44.53,32,44.5,32.23Z"/><path class="cls-80" d="M42.68,32.24l.94,0c0,.31,0,.63,0,.94l-1.82-.07C41.71,32.49,42.11,32.28,42.68,32.24Z"/><path class="cls-212" d="M44.57,36.1V38c-.23.22-.46.43-.81.25a.42.42,0,0,1-.2-.3c0-.6,0-1.21,0-1.81Z"/><path class="cls-224" d="M28.47,38.87c0,3,0,6,0,9l-.88,0-.06-3.34,0-5.66h0C27.85,38.6,28.15,38.48,28.47,38.87Z"/><path class="cls-212" d="M29.44,36.1v1.83l-.05.16a.58.58,0,0,1-.79.11.44.44,0,0,1-.15-.3c0-.6,0-1.21,0-1.81Z"/><path class="cls-166" d="M28.47,38.87h-.93a.87.87,0,0,1,.9-1l.07.06a.58.58,0,0,1,0,.92Z"/><path class="cls-223" d="M29.37,32.23l-.89.05c-.32.28-.64.37-.93,0,0-.3,0-.6,0-.9l.12-.06a.78.78,0,0,1,.86-.39.8.8,0,0,1,.85.42l.09.06C29.42,31.66,29.4,32,29.37,32.23Z"/><path class="cls-80" d="M27.55,32.24l.93,0v.94l-1.83-.07C26.58,32.49,27,32.28,27.55,32.24Z"/><path class="cls-214" d="M14.3,37.93h.95c0,.3,0,.61-.05.91l-.86,0-.09,0a.58.58,0,0,1,.06-.9Z"/><path class="cls-225" d="M14.34,18l.88.07q0,6.12,0,12.25l-.88.06-.22-.14c-.59-1.27-.26-2.63-.29-3.93-.06-2.29,0-4.58,0-6.87a1.38,1.38,0,0,1,.48-1.36Z"/><path class="cls-226" d="M14.33,30.41c0,.29,0,.59,0,.88l0,.05a.54.54,0,0,1-.88,0l-.06,0a.56.56,0,0,1,0-.89l.09-.05a.54.54,0,0,1,.87,0Z"/><path class="cls-227" d="M13.4,31.33h.88c0,.3,0,.6,0,.9h-.88Z"/><path class="cls-228" d="M59.67,26.65l-.86-.07,0-8.5h.94c.64.65.37,1.44.4,2.2.07,1.73.07,3.46,0,5.2a1.53,1.53,0,0,1-.35,1.06A.39.39,0,0,1,59.67,26.65Z"/><path class="cls-229" d="M59.75,26.55l0-8.46h.9q0,4.23,0,8.46Z"/><path class="cls-230" d="M14.27,30.34H13.4l0-12.23h.9Z"/><path class="cls-231" d="M13.31,30.39l0,.89h-.89c0-.31,0-.63,0-1Z"/><path class="cls-232" d="M27.58,18.09h.93c.64.58.4,1.34.42,2.05,0,1.81.08,3.61,0,5.42a2.47,2.47,0,0,1-.23,1.08.7.7,0,0,1-1.1,0l0-.09C27.56,23.72,27.57,20.9,27.58,18.09Z"/><path class="cls-233" d="M27.58,26.62l.89-.08.2.09a1.27,1.27,0,0,1,.29,1c0,.89,0,1.78,0,2.67a1,1,0,0,1-.43,1l-.87,0A31.51,31.51,0,0,1,27.58,26.62Z"/><path class="cls-234" d="M28.47,26.54l0-8.45h.9c0,2.82.05,5.63.07,8.45l-.07.08a.55.55,0,0,1-.88,0Z"/><path class="cls-232" d="M42.71,18.09h.94A1.62,1.62,0,0,1,44,19.16c.2,2.19-.08,4.39.09,6.58a1.15,1.15,0,0,1-.31.91.7.7,0,0,1-1.09,0l0-.09Z"/><path class="cls-233" d="M42.72,26.62l.88-.08.2.09a1.27,1.27,0,0,1,.29,1c0,.89,0,1.78,0,2.67a1,1,0,0,1-.43,1l-.87,0A30.2,30.2,0,0,1,42.72,26.62Z"/><path class="cls-234" d="M43.6,26.54l0-8.45h.89c0,2.82.05,5.63.07,8.45l-.06.08a.56.56,0,0,1-.89,0Z"/><path class="cls-214" d="M29.43,37.93h.95c0,.3,0,.61-.05.91l-.86.06-.08-.06a.56.56,0,0,1,.06-.9Z"/><path class="cls-216" d="M28.52,30.34V27.55a.53.53,0,0,1,.88,0l.07,2.79-.08.05C29.08,30.71,28.79,30.64,28.52,30.34Z"/><path class="cls-218" d="M29.4,27.55h-.88c0-.31,0-.62,0-.93h.88C29.41,26.93,29.4,27.24,29.4,27.55Z"/><path class="cls-217" d="M28.52,30.34l.87.05,0,.92-.84,0Z"/><path class="cls-166" d="M43.61,38.87l-.93,0a.87.87,0,0,1,.89-1l.07.06a.58.58,0,0,1,0,.92Z"/><path class="cls-221" d="M14.31,38l-.06.9-.89,0c0-.31,0-.61,0-.92Z"/><path class="cls-221" d="M29.45,38l-.06.9-.9,0c0-.31,0-.61,0-.92Z"/><path class="cls-221" d="M43.62,38.88c0-.31,0-.61,0-.92h.94l-.06.9Z"/><path class="cls-216" d="M43.65,30.34V27.55a.52.52,0,0,1,.87,0l.07,2.79-.08.05C44.21,30.71,43.92,30.64,43.65,30.34Z"/><path class="cls-218" d="M44.53,27.55h-.87v-.93h.89C44.54,26.93,44.54,27.24,44.53,27.55Z"/><path class="cls-217" d="M43.65,30.34l.87.05c0,.31,0,.62,0,.92l-.85,0Z"/></g></g></svg>