<svg xmlns="http://www.w3.org/2000/svg" viewBox="0 0 74 74"><defs><style>.cls-1{fill:#1e2223;}.cls-2{fill:#17232b;}.cls-3{fill:#45494b;}.cls-4{fill:#343738;}.cls-5{fill:#3a3f42;}.cls-6{fill:#223842;}.cls-7{fill:#4b4d4d;}.cls-8{fill:#454e52;}.cls-9{fill:#2e2f2f;}.cls-10{fill:#3e3f40;}.cls-11{fill:#213541;}.cls-12{fill:#39393a;}.cls-13{fill:#393e41;}.cls-14{fill:#3e5c69;}.cls-15{fill:#23282b;}.cls-16{fill:#767676;}.cls-17{fill:#3f4243;}.cls-18{fill:#3d3f41;}.cls-19{fill:#414242;}.cls-20{fill:#27373f;}.cls-21{fill:#2d4551;}.cls-22{fill:#273136;}.cls-23{fill:#474d4f;}.cls-24{fill:#565757;}.cls-25{fill:#787a7b;}.cls-26{fill:#262e33;}.cls-27{fill:#313a3e;}.cls-28{fill:#4f5052;}.cls-29{fill:#2a4a59;}.cls-30{fill:#353535;}.cls-31{fill:#2f3133;}.cls-32{fill:#535454;}.cls-33{fill:#31404a;}.cls-34{fill:#4f606a;}.cls-35{fill:#6d6f71;}.cls-36{fill:#515658;}.cls-37{fill:#5a5c5d;}.cls-38{fill:#5e5f5f;}.cls-39{fill:#33464e;}.cls-40{fill:#6e6e6e;}.cls-41{fill:#4d5255;}.cls-42{fill:#34393d;}.cls-43{fill:#475b65;}.cls-44{fill:#0e1417;}.cls-45{fill:#5c6a66;}.cls-46{fill:#434a4b;}.cls-47{fill:#6b7878;}.cls-48{fill:#5b6d6a;}.cls-49{fill:#272b33;}.cls-50{fill:#36323f;}.cls-51{fill:#02384e;}.cls-52{fill:#182b37;}.cls-53{fill:#192024;}.cls-54{fill:#3f5563;}.cls-55{fill:#2c3c46;}.cls-56{fill:#58717f;}.cls-57{fill:#3b4c56;}.cls-58{fill:#2e3f4a;}.cls-59{fill:#3a4b55;}.cls-60{fill:#60707a;}.cls-61{fill:#5e6c77;}.cls-62{fill:#475053;}.cls-63{fill:#485a67;}.cls-64{fill:#787f7b;}.cls-65{fill:#606c62;}.cls-66{fill:#585a5c;}.cls-67{fill:#19485d;}.cls-68{fill:#444445;}.cls-69{fill:#1c3442;}.cls-70{fill:#5c5c5c;}.cls-71{fill:#1e5a72;}.cls-72{fill:#555758;}.cls-73{fill:#2d2e2f;}.cls-74{fill:#236982;}.cls-75{fill:#1c4557;}.cls-76{fill:#0e1112;}.cls-77{fill:#1e2934;}.cls-78{fill:#989898;}.cls-79{fill:#292a2a;}.cls-80{fill:#4f4f4f;}.cls-81{fill:#2e2e2e;}.cls-82{fill:#3a474f;}.cls-83{fill:#14242e;}.cls-84{fill:#4e4f4f;}.cls-85{fill:#275c6f;}.cls-86{fill:#484848;}.cls-87{fill:#2d3235;}.cls-88{fill:#345e70;}.cls-89{fill:#2a748e;}.cls-90{fill:#2e383f;}.cls-91{fill:#35393b;}.cls-92{fill:#1b3e4b;}.cls-93{fill:#3a3f41;}.cls-94{fill:#335563;}.cls-95{fill:#4b6672;}.cls-96{fill:#747474;}.cls-97{fill:#556870;}.cls-98{fill:#696b6c;}.cls-99{fill:#50575a;}.cls-100{fill:#696969;}.cls-101{fill:#919191;}.cls-102{fill:#666769;}.cls-103{fill:#999;}.cls-104{fill:#434343;}.cls-105{fill:#3b4b54;}.cls-106{fill:#686868;}.cls-107{fill:#474747;}.cls-108{fill:#6b6b6b;}.cls-109{fill:#112a33;}.cls-110{fill:#366579;}.cls-111{fill:#55727f;}.cls-112{fill:#355e6f;}.cls-113{fill:#878787;}.cls-114{fill:#a3a3a4;}.cls-115{fill:#818181;}.cls-116{fill:#8d8d8d;}.cls-117{fill:gray;}.cls-118{fill:#a1a1a1;}.cls-119{fill:#386e83;}.cls-120{fill:#6e7b80;}.cls-121{fill:#5c666a;}.cls-122{fill:#595959;}.cls-123{fill:#787878;}.cls-124{fill:#656565;}.cls-125{fill:#35768f;}.cls-126{fill:#757575;}.cls-127{fill:#666667;}.cls-128{fill:#676767;}.cls-129{fill:#4c788c;}.cls-130{fill:#888;}.cls-131{fill:#747475;}.cls-132{fill:#969696;}.cls-133{fill:#b8b8b8;}.cls-134{fill:#adadad;}.cls-135{fill:#858585;}.cls-136{fill:#4b4b4b;}.cls-137{fill:#7295a5;}.cls-138{fill:#97acb7;}.cls-139{fill:#ececec;}.cls-140{fill:#636373;}.cls-141{fill:#44414e;}.cls-142{fill:#2d353c;}.cls-143{fill:#3d3f4b;}.cls-144{fill:#5a616b;}.cls-145{fill:#3a424d;}.cls-146{fill:#3b424d;}.cls-147{fill:#555c69;}.cls-148{fill:#3d3f46;}.cls-149{fill:#676766;}.cls-150{fill:#45454d;}.cls-151{fill:#555662;}.cls-152{fill:#c4c8c5;}.cls-153{fill:#585b54;}.cls-154{fill:#444f51;}.cls-155{fill:#63675e;}.cls-156{fill:#676d62;}.cls-157{fill:#1f2830;}.cls-158{fill:#7f837c;}.cls-159{fill:#999b97;}.cls-160{fill:#6e776f;}.cls-161{fill:#838880;}.cls-162{fill:#b5bdb6;}.cls-163{fill:#adb6ac;}.cls-164{fill:#333b43;}.cls-165{fill:#283845;}.cls-166{fill:#101925;}.cls-167{fill:#090a0c;}.cls-168{fill:#cdd2d4;}.cls-169{fill:#848a91;}.cls-170{fill:#015071;}.cls-171{fill:#524e59;}.cls-172{fill:#605e68;}.cls-173{fill:#424148;}.cls-174{fill:#6a6a6f;}.cls-175{fill:#a8b6bc;}.cls-176{fill:#51545c;}.cls-177{fill:#79858c;}.cls-178{fill:#4f5760;}.cls-179{fill:#394651;}.cls-180{fill:#7c8084;}.cls-181{fill:#171b1d;}.cls-182{fill:#464646;}.cls-183{fill:#95999c;}.cls-184{fill:#969b9f;}.cls-185{fill:#586268;}.cls-186{fill:#8d9296;}.cls-187{fill:#5e696f;}.cls-188{fill:#39434a;}.cls-189{fill:#556067;}.cls-190{fill:#35454e;}.cls-191{fill:#42454b;}.cls-192{fill:#2a3c47;}.cls-193{fill:#424242;}.cls-194{fill:#3b3b3b;}.cls-195{fill:#3a3a3a;}.cls-196{fill:#132831;}.cls-197{fill:#466677;}.cls-198{fill:#1b3744;}.cls-199{fill:#47545b;}.cls-200{fill:#adb3b2;}.cls-201{fill:#747e82;}.cls-202{fill:#6e818d;}.cls-203{fill:#697b84;}.cls-204{fill:#a3abaa;}.cls-205{fill:#fefefe;}.cls-206{fill:#b2bbae;}.cls-207{fill:#848484;}.cls-208{fill:#ababab;}.cls-209{fill:#282828;}.cls-210{fill:#848f95;}.cls-211{fill:#66696d;}.cls-212{fill:#3a424c;}.cls-213{fill:#cacaca;}.cls-214{fill:#55899c;}.cls-215{fill:#3f6a77;}.cls-216{fill:#535354;}.cls-217{fill:#304750;}.cls-218{fill:#31434b;}.cls-219{fill:#2a7f99;}.cls-220{fill:#32525e;}.cls-221{fill:#248cab;}.cls-222{fill:#2b434c;}.cls-223{fill:#1d7593;}.cls-224{fill:#4c7e8f;}.cls-225{fill:#3d7a8d;}.cls-226{fill:#37829b;}.cls-227{fill:#889499;}.cls-228{fill:#bababa;}.cls-229{fill:#39474d;}.cls-230{fill:#2c6478;}.cls-231{fill:#12202b;}.cls-232{fill:#292b2b;}.cls-233{fill:#64767d;}.cls-234{fill:#2b363a;}.cls-235{fill:#435961;}.cls-236{fill:#505050;}.cls-237{fill:#395661;}.cls-238{fill:#5b5b5b;}.cls-239{fill:#2c6074;}.cls-240{fill:#496d7d;}.cls-241{fill:#718690;}.cls-242{fill:#b0b0b0;}.cls-243{fill:#859aa3;}.cls-244{fill:#74868f;}.cls-245{fill:#091c24;}.cls-246{fill:#11495c;}.cls-247{fill:#558ba2;}.cls-248{fill:#3e8099;}.cls-249{fill:#2a6c85;}.cls-250{fill:#acacac;}.cls-251{fill:#ddd;}.cls-252{fill:#1e323a;}.cls-253{fill:#a8a8a8;}.cls-254{fill:#bfbfbf;}.cls-255{fill:#4d6d7b;}.cls-256{fill:#375360;}.cls-257{fill:#476674;}.cls-258{fill:#345e6f;}.cls-259{fill:#537b8c;}.cls-260{fill:#747587;}.cls-261{fill:#555463;}.cls-262{fill:#9999a3;}.cls-263{fill:#585662;}.cls-264{fill:#70757c;}.cls-265{fill:#a5a9b2;}.cls-266{fill:#727987;}.cls-267{fill:#9499a5;}.cls-268{fill:#84889b;}.cls-269{fill:#646878;}.cls-270{fill:#9ea3b7;}.cls-271{fill:#3b3b42;}.cls-272{fill:#eceee4;}.cls-273{fill:#adb0a5;}.cls-274{fill:#666672;}.cls-275{fill:#6c716b;}.cls-276{fill:#eaebe8;}.cls-277{fill:#ced4bd;}.cls-278{fill:#8b9592;}.cls-279{fill:#b5bbad;}.cls-280{fill:#babeb4;}.cls-281{fill:#3c3e41;}.cls-282{fill:#3e3f41;}.cls-283{fill:#31373c;}.cls-284{fill:#303335;}.cls-285{fill:#4b4c4d;}.cls-286{fill:#494c4e;}.cls-287{fill:#e8eade;}.cls-288{fill:#e7eade;}.cls-289{fill:#c0c7bc;}.cls-290{fill:#dcdfd4;}.cls-291{fill:#555b61;}.cls-292{fill:#d6dadc;}.cls-293{fill:#6b7479;}.cls-294{fill:#a7adb1;}.cls-295{fill:#535f67;}.cls-296{fill:#72767d;}.cls-297{fill:#58656d;}.cls-298{fill:#aeb7ba;}.cls-299{fill:#849197;}.cls-300{fill:#58676f;}.cls-301{fill:#a3a6aa;}.cls-302{fill:#747a80;}.cls-303{fill:#6f757c;}.cls-304{fill:#373f49;}.cls-305{fill:#e3f2f8;}.cls-306{fill:#c5e5f0;}.cls-307{fill:#5b6b76;}.cls-308{fill:#72707a;}.cls-309{fill:#85cde4;}.cls-310{fill:#859ba4;}.cls-311{fill:#71b2c9;}.cls-312{fill:#609db1;}.cls-313{fill:#a8b3b8;}.cls-314{fill:#d1e2e8;}.cls-315{fill:#c5d3d7;}.cls-316{fill:#646464;}.cls-317{fill:#5a5a5a;}.cls-318{fill:#294e60;}.cls-319{fill:#0c2833;}.cls-320{fill:#083a4f;}.cls-321{fill:#e6e9e8;}.cls-322{fill:#91989c;}.cls-323{fill:#b9bfc1;}.cls-324{fill:#798582;}.cls-325{fill:#6a6c69;}.cls-326{fill:#b4bab9;}.cls-327{fill:#e2e5d6;}.cls-328{fill:#b9beb8;}.cls-329{fill:#aeb2af;}.cls-330{fill:#e6e7e4;}.cls-331{fill:#ebeee5;}.cls-332{fill:#b0b8ab;}.cls-333{fill:#e3e4e1;}.cls-334{fill:#e6e9e1;}.cls-335{fill:#e1e4da;}.cls-336{fill:#d8dcce;}.cls-337{fill:#b3b8b5;}.cls-338{fill:#d4d9d0;}.cls-339{fill:#d9dddd;}.cls-340{fill:#e0e1de;}.cls-341{fill:#a8b5a2;}.cls-342{fill:#b7c7cc;}.cls-343{fill:#6eb3ca;}.cls-344{fill:#008db7;}.cls-345{fill:#2fa4c8;}.cls-346{fill:#2e89a4;}.cls-347{fill:#595c5e;}.cls-348{fill:#33393b;}.cls-349{fill:#24a0c3;}.cls-350{fill:#48b1d2;}.cls-351{fill:#46606a;}.cls-352{fill:#507784;}.cls-353{fill:#5eb8d5;}.cls-354{fill:#6da0b2;}.cls-355{fill:#87b1c1;}.cls-356{fill:#5f8a9d;}.cls-357{fill:#4e798b;}.cls-358{fill:#06090b;}.cls-359{fill:#1a1c1d;}.cls-360{fill:#0e1215;}.cls-361{fill:#474d51;}.cls-362{fill:#323e46;}.cls-363{fill:#7e8489;}.cls-364{fill:#39424a;}.cls-365{fill:#203a4b;}.cls-366{fill:#44515b;}.cls-367{fill:#435a67;}.cls-368{fill:#6c777e;}.cls-369{fill:#5b6b75;}.cls-370{fill:#525456;}.cls-371{fill:#b5d1dc;}.cls-372{fill:#92a5ad;}.cls-373{fill:#738b96;}.cls-374{fill:#8fa1a9;}.cls-375{fill:#9dc4d2;}.cls-376{fill:#213741;}.cls-377{fill:#2d667c;}.cls-378{fill:#0f3745;}.cls-379{fill:#1a4352;}.cls-380{fill:#1a5a72;}.cls-381{fill:#386c81;}.cls-382{fill:#2d4550;}.cls-383{fill:#9c9daa;}.cls-384{fill:#b5b8bf;}.cls-385{fill:#8f9195;}.cls-386{fill:#c9cdd7;}.cls-387{fill:#86888d;}.cls-388{fill:#b4b9c8;}.cls-389{fill:#c6c8cc;}.cls-390{fill:#dfe2e7;}.cls-391{fill:#4a4d50;}.cls-392{fill:#aaaea2;}.cls-393{fill:#626367;}.cls-394{fill:#818387;}.cls-395{fill:#717275;}.cls-396{fill:#696a6c;}.cls-397{fill:#55595b;}.cls-398{fill:#5b5c5f;}.cls-399{fill:#4b4e51;}.cls-400{fill:#5e5f60;}.cls-401{fill:#0e1b28;}.cls-402{fill:#80878a;}.cls-403{fill:#3e494e;}.cls-404{fill:#a2acb0;}.cls-405{fill:#81868c;}.cls-406{fill:#a0a5ab;}.cls-407{fill:#8dbfcf;}.cls-408{fill:#9bc2ce;}.cls-409{fill:#edeeee;}.cls-410{fill:#6da7bb;}.cls-411{fill:#819097;}.cls-412{fill:#b0babe;}.cls-413{fill:#b9e2f0;}.cls-414{fill:#c4e6f2;}.cls-415{fill:#a5d8ea;}.cls-416{fill:#d0e8ef;}.cls-417{fill:#a4d8eb;}.cls-418{fill:#a7c2ca;}.cls-419{fill:#99abb3;}.cls-420{fill:#62c4e3;}.cls-421{fill:#3ab7dc;}.cls-422{fill:#008ab7;}.cls-423{fill:#74a8ba;}.cls-424{fill:#96cfe2;}.cls-425{fill:#2d98b8;}.cls-426{fill:#15475c;}.cls-427{fill:#306075;}.cls-428{fill:#263742;}.cls-429{fill:#447083;}.cls-430{fill:#305d71;}.cls-431{fill:#4e6671;}.cls-432{fill:#9aa3a6;}.cls-433{fill:#034c68;}.cls-434{fill:#21272c;}.cls-435{fill:#525a5f;}.cls-436{fill:#5a6569;}.cls-437{fill:#5f7783;}.cls-438{fill:#313436;}.cls-439{fill:#39474f;}.cls-440{fill:#50626c;}.cls-441{fill:#616b6c;}.cls-442{fill:#4d555a;}.cls-443{fill:#bbc3af;}.cls-444{fill:#6d7b78;}.cls-445{fill:#99a3a4;}.cls-446{fill:#079fc5;}.cls-447{fill:#a6a8a9;}.cls-448{fill:#588290;}.cls-449{fill:#425158;}.cls-450{fill:#545455;}.cls-451{fill:#151516;}.cls-452{fill:#54585a;}.cls-453{fill:#707070;}.cls-454{fill:#9e9e9e;}.cls-455{fill:#c8c8c8;}.cls-456{fill:#6b8089;}.cls-457{fill:#708b97;}.cls-458{fill:#749daa;}.cls-459{fill:#80c9e0;}.cls-460{fill:#1c2931;}.cls-461{fill:#191e22;}.cls-462{fill:#303a41;}.cls-463{fill:#57646b;}.cls-464{fill:#2d3438;}.cls-465{fill:#40515c;}.cls-466{fill:#697176;}.cls-467{fill:#293741;}.cls-468{fill:#666d73;}.cls-469{fill:#505b60;}.cls-470{fill:#b2b8bb;}.cls-471{fill:#a6aaad;}.cls-472{fill:#969a9d;}.cls-473{fill:#6e7578;}.cls-474{fill:#81959c;}.cls-475{fill:#5e7983;}.cls-476{fill:#7ea8b7;}.cls-477{fill:#94adb9;}.cls-478{fill:#95c0d1;}.cls-479{fill:#8da8b4;}.cls-480{fill:#36474f;}.cls-481{fill:#f3f4f6;}.cls-482{fill:#8e8f8f;}.cls-483{fill:#696e68;}.cls-484{fill:#8c8f92;}.cls-485{fill:#929394;}.cls-486{fill:#575d60;}.cls-487{fill:#0e171f;}.cls-488{fill:#707478;}.cls-489{fill:#525c63;}.cls-490{fill:#052f42;}.cls-491{fill:#9da5a9;}.cls-492{fill:#79a8b6;}.cls-493{fill:#759daa;}.cls-494{fill:#61676a;}.cls-495{fill:#5c6164;}.cls-496{fill:#656a6c;}.cls-497{fill:#01a2cf;}.cls-498{fill:#56a6c0;}.cls-499{fill:#128eb1;}.cls-500{fill:#b6c3c8;}.cls-501{fill:#95cfe3;}.cls-502{fill:#9bc0cd;}.cls-503{fill:#899ba3;}.cls-504{fill:#657981;}.cls-505{fill:#568295;}.cls-506{fill:#6892a5;}.cls-507{fill:#7ba1b1;}.cls-508{fill:#232d37;}.cls-509{fill:#9fa4a8;}.cls-510{fill:#77838a;}.cls-511{fill:#7b7e7f;}.cls-512{fill:#4e5b60;}.cls-513{fill:#6b8592;}.cls-514{fill:#687c85;}.cls-515{fill:#587684;}.cls-516{fill:#446271;}.cls-517{fill:#484e52;}.cls-518{fill:#496a79;}.cls-519{fill:#444a4d;}.cls-520{fill:#77c4dd;}.cls-521{fill:#45b0d1;}.cls-522{fill:#0096c1;}.cls-523{fill:#5dbedd;}.cls-524{fill:#39b3d7;}.cls-525{fill:#35aed1;}</style></defs><title>포2</title><g id="레이어_2" data-name="레이어 2"><g id="레이어_1-2" data-name="레이어 1"><rect class="cls-1" width="74" height="74" rx="8.33" ry="8.33"/><path class="cls-2" d="M45.09,23.41l1.67-.22.14.07a.74.74,0,0,1-.12,1.1.85.85,0,0,0-.39.68c0,.6,0,1.19,0,1.79s-.57,1.16-1.11.87c-1.09-.59-1.42,0-1.78.81a1.1,1.1,0,0,1-.86.19,2,2,0,0,1-.9-.09,3.53,3.53,0,0,0-1.08-1A.81.81,0,0,0,39.8,27a1.11,1.11,0,0,1-.92-.39,1.37,1.37,0,0,1-.13-.91,1.46,1.46,0,0,1,.26-.95,1.09,1.09,0,0,1,.93-.28,3.13,3.13,0,0,1,1.49.11c.67,1,1.69.73,2.64.71.49,0,.6-.39.6-.82S44.56,23.61,45.09,23.41Z"/><path class="cls-3" d="M25.49,21.47c.13-1.72.13-1.72,1.72-1.68a.78.78,0,0,1,.8-.23c.42.69,1.22.61,1.84.88.22.46.75.62,1,1a1.14,1.14,0,0,1,.06.66A7.28,7.28,0,0,1,29,25.07c-.62.36-.87,1.37-1.87,1.06A1,1,0,0,1,26,25c0-.31,0-.62,0-.92a1.5,1.5,0,0,1,.11-.84c.26-.39.68-.41,1.09-.47a.57.57,0,0,0,.49-.47c.1-.4-.23-.44-.47-.55a.54.54,0,0,0-.74,0,.82.82,0,0,1-.76,0A.5.5,0,0,1,25.49,21.47Z"/><path class="cls-4" d="M32.35,9.6c.49,0,1.06-.19,1.44.13a22.33,22.33,0,0,1,1.81,1.83.33.33,0,0,1,0,.29c-.87.58-1.26,1.74-2.39,2l-.15-.06a.88.88,0,0,1-.29-.73c.12-.63-.7-.64-.77-1.16C31.92,11.11,31.62,10.28,32.35,9.6Z"/><path class="cls-5" d="M65.49,24.88c.1.64-.22.91-.83.92a.76.76,0,0,1-.77.19c-.43-.2-.49-.81-1-.9-.28-.32-.38-.78-.75-1-.07-.95.79-1.25,1.34-1.64s1.06-.05,1.36.6c.12.26.6.23.69.6l0,.45A.49.49,0,0,0,65.49,24.88Z"/><path class="cls-6" d="M13.82,25.72c.2-.73.76-.86,1.4-.82s1.28-.08,1.5-.71c.37-1.06,1.14-1.06,2-1a.84.84,0,0,1,.3.72c-.22.61.59.67.62,1.14a.87.87,0,0,1-.2.87c-.68.45-1.45.16-2.17.24a23.75,23.75,0,0,1-2.8-.07A.75.75,0,0,1,13.82,25.72Z"/><path class="cls-7" d="M56.19,17.29A2.39,2.39,0,0,1,54.51,19a.49.49,0,0,1-.26-.1.71.71,0,0,0-.81-.39,1.27,1.27,0,0,1-.71-.17c-.32-.23-.34-.73-.76-.88a.47.47,0,0,1-.11-.26,2.38,2.38,0,0,1,1.69-1.65l.15,0a.77.77,0,0,1,.31.67c0,.38.14.61.56.58.24,0,.48,0,.72,0A1,1,0,0,1,56,17,.56.56,0,0,1,56.19,17.29Z"/><path class="cls-8" d="M38.3,22.33l2.54,0a.72.72,0,0,1,.17.87.81.81,0,0,1-.76.39.75.75,0,0,0-.92.63,3.38,3.38,0,0,0-1.07.92A.84.84,0,0,1,37,24.33c0-.53-.29-.8-.63-1.08a.88.88,0,0,1,0-.9.77.77,0,0,1,.28-.26A1.33,1.33,0,0,1,38.3,22.33Z"/><path class="cls-9" d="M51.09,23.2c-.05.23,0,.64-.24.64-1,0-1.46.91-2.32,1.09l-.14-.05a4.19,4.19,0,0,0-1.58-1.68h-.05a2.32,2.32,0,0,1,1.72-1.71c.45.09.6.61,1,.73.21.81,1.14.34,1.52.85Z"/><path class="cls-10" d="M52.77,21.5c-.6,0-.9.25-.87.86a.75.75,0,0,1-.81.21.79.79,0,0,1-.46-.85.86.86,0,0,0-.53-.91,1.54,1.54,0,0,1-.35-1c.24-.69.17-1.6,1.23-1.69a.46.46,0,0,1,.27.11.87.87,0,0,1,.2.69c-.08.51.38.59.64.83.09.53.7.59.9,1A.74.74,0,0,1,52.77,21.5Z"/><path class="cls-11" d="M45.09,23.41c0,2.58.36,2.32-2.47,2.34-.6,0-1-.18-1.15-.81a.48.48,0,0,1,.14-.25,1.83,1.83,0,0,1,1.1-.22c.43,0,.4-.27.37-.56a.83.83,0,0,1,.31-.71A3.09,3.09,0,0,1,45.09,23.41Z"/><path class="cls-12" d="M33.22,13.86c0,.6,0,1.19,0,1.79s-.26.77-.78.75l-.15,0c-.59-.34-.06-1.35-.91-1.54-.13-.5-.64-.67-.92-1a.67.67,0,0,1,.21-.77V13c.22-.19.43-.4.76-.35a1.8,1.8,0,0,1,.83.07,1,1,0,0,1,.28.14,2.74,2.74,0,0,0,.66,1Z"/><path class="cls-13" d="M26.39,23.18V24a1.41,1.41,0,0,1-1.63.33c-.62-.53-.52-1.4-.92-2,.06-1.24,1.05-.69,1.66-.86l.09.05c.23.43.82.45,1,.9A.72.72,0,0,1,26.39,23.18Z"/><path class="cls-14" d="M23.83,22.33c1.26.07.72,1.07.87,1.71a.63.63,0,0,1-.75.28.85.85,0,0,1-.3-.15.89.89,0,0,0-1-.56,2.22,2.22,0,0,1-1.41-.2.66.66,0,0,1-.21-.26.69.69,0,0,1,.24-.78Z"/><path class="cls-15" d="M31.48,13l-.86,0c.05-.66-.12-1.37.63-1.79.27-.15.24-.5.24-.78,0-.6.29-.83.86-.79,0,.84,0,1.68,0,2.52l0,.13C32,12.51,31.72,12.7,31.48,13Z"/><path class="cls-16" d="M57.83,14.66l-1.67,0a.62.62,0,0,1,0-.89l.06-.8a1.16,1.16,0,0,1,1.32-.4,1.18,1.18,0,0,1,.54.31C58.35,13.55,58.47,14.15,57.83,14.66Z"/><path class="cls-17" d="M57.44,13l-1.27,0a2,2,0,0,1,1.59-1.72c.6-.17,1.05.08,1,.83l0,.13A4.62,4.62,0,0,1,57.44,13Z"/><path class="cls-18" d="M56.11,13.81l0,.89v0c-.45.57-1.06.43-1.65.39a1,1,0,0,1-.89-.35c-.06-.62.22-.89.84-.88S55.57,13.82,56.11,13.81Z"/><path class="cls-19" d="M57.83,14.66V13a.64.64,0,0,1,.76-.3c.57.16.59.78.95,1.11,0,.15,0,.3,0,.44C59.12,15,58.43,14.61,57.83,14.66Z"/><path class="cls-19" d="M49.29,22.35c-.62,0-.81-.32-.81-.87s.18-.9.8-.85a.48.48,0,0,1,.28.15,1.23,1.23,0,0,1,0,1.41A.5.5,0,0,1,49.29,22.35Z"/><path class="cls-20" d="M40.87,23.17l0-.82c.65.11,1.62-.43,1.72.83-.18.35-.5.38-.85.36S41.05,23.53,40.87,23.17Z"/><path class="cls-21" d="M18.71,24l0-.81,1.65-.05a.6.6,0,0,1,.25.32.72.72,0,0,1-.57.94C19.57,24.51,19,24.6,18.71,24Z"/><path class="cls-22" d="M38.3,22.33H36.61a.51.51,0,0,1,0-.8l0-.05C37.22,21.65,38.24,21,38.3,22.33Z"/><path class="cls-23" d="M28,17.22c.24-.59-.42-1.63.86-1.71l.18.1c.56,1.17.36,1.69-.73,1.85A.6.6,0,0,1,28,17.22Z"/><path class="cls-24" d="M59.54,13.82c-.63.06-.86-.27-.85-.85a.58.58,0,0,1,0-.83v0l.84,0a1.06,1.06,0,0,1,0,1.7Z"/><path class="cls-25" d="M28.07,19.82l-.86,0,0-1.69a.71.71,0,0,1,.79-.24.64.64,0,0,1,.27.22,1.26,1.26,0,0,1,.16.85.93.93,0,0,1-.23.81Z"/><path class="cls-26" d="M59.57,13.84c0-.56,0-1.13,0-1.7.55,0,.85.19.86.79S60.22,13.88,59.57,13.84Z"/><path class="cls-27" d="M29,14.7c.15-.63-.52-1.68.86-1.68a1,1,0,0,1,.33.86,1,1,0,0,1-.28.9A.67.67,0,0,1,29,14.7Z"/><path class="cls-28" d="M59.51,26.57c0-.62.31-.88.9-.87l.85.05a.66.66,0,0,1,.13.89,1.36,1.36,0,0,1-1.63.22A.64.64,0,0,1,59.51,26.57Z"/><path class="cls-29" d="M41.69,23.2l.87,0,.83,0,0,.8c-.51.72-1.12.53-1.74.19A.7.7,0,0,1,41.69,23.2Z"/><path class="cls-30" d="M61.24,26.61c0-.29,0-.57,0-.86,0-.56.17-.9.79-.86l.16.06a.8.8,0,0,1,.28.75,1.56,1.56,0,0,1-.11.83.65.65,0,0,1-1,.22Z"/><path class="cls-31" d="M32.33,17.23c-.11.66.41,1.63-.83,1.74l0,0c-.71-.75,0-1.22.34-1.74A.42.42,0,0,1,32.33,17.23Z"/><path class="cls-32" d="M32.33,17.23l-.41,0a.41.41,0,0,1-.53,0,.68.68,0,0,1,0-.9.6.6,0,0,1,.88,0l.12,0C32.38,16.68,32.35,17,32.33,17.23Z"/><path class="cls-33" d="M11.94,27.48a1.87,1.87,0,0,0,0-.25c0-.58.42-.66.88-.62a.61.61,0,1,1-.84.87Z"/><path class="cls-34" d="M12.75,27.39l0-.78.79-.07a.55.55,0,0,1,.27.2.71.71,0,0,1-.09.81.7.7,0,0,1-.8.11A.43.43,0,0,1,12.75,27.39Z"/><path class="cls-35" d="M53.63,14.72h.84a.62.62,0,0,1,.05.87.59.59,0,0,1-.87,0l-.1,0Z"/><path class="cls-36" d="M29,14.7h.78l.16.1a.62.62,0,0,1-.07.84.63.63,0,0,1-.85-.07l-.08-.05Z"/><path class="cls-37" d="M29.8,13.86c0-.28,0-.56,0-.84h.82l0,.77-.09.14A.57.57,0,0,1,29.8,13.86Z"/><path class="cls-38" d="M49.75,19.76c.43.13.45.5.49.85l-.09.14a.55.55,0,0,1-.76-.1l-.11,0C49.38,20.31,49.23,19.85,49.75,19.76Z"/><path class="cls-39" d="M21.29,22.37l0,.81a.54.54,0,0,1-.82,0l-.07-.07C20.39,22.55,20.67,22.26,21.29,22.37Z"/><path class="cls-40" d="M62.13,24.06c.63-.11.86.23.87.81l-.1.13a.54.54,0,0,1-.75-.1h-.1Z"/><path class="cls-41" d="M51,18.07c0-.56.26-.92.88-.89l.07.09a.6.6,0,1,1-.85.84Z"/><path class="cls-42" d="M28.05,18.05l-.81.05c-.06-.58.18-.9.79-.88l.11,0A.52.52,0,0,1,28.05,18.05Z"/><path class="cls-43" d="M13.82,25.72l.68.07a.62.62,0,0,1,0,.88.64.64,0,0,1-.89,0l-.08-.09C13.61,26.25,13.56,25.94,13.82,25.72Z"/><path class="cls-44" d="M23.85,64l0-1.7.09-.15a1.3,1.3,0,0,1,1.65.05,2.07,2.07,0,0,0,2.64,0,1.23,1.23,0,0,1,1.73.11.71.71,0,0,1-.12.87q0,.92-.87.87a1.14,1.14,0,0,1-.82.42H25.07a1.14,1.14,0,0,1-.82-.42Z"/><path class="cls-45" d="M11.92,62.32l0-.86a.62.62,0,0,1,1,.68.44.44,0,0,1-.26.22Z"/><path class="cls-46" d="M18.67,61.44l0,.87-.76,0a.39.39,0,0,1-.26-.21.62.62,0,0,1,.18-.79A.6.6,0,0,1,18.67,61.44Z"/><path class="cls-47" d="M13.64,63.15l-.86,0-.07-.81.1-.06a.6.6,0,1,1,.83.85Z"/><path class="cls-48" d="M17.86,63.16l-.87,0a.6.6,0,1,1,.85-.83l.1,0C17.91,62.61,17.89,62.89,17.86,63.16Z"/><path class="cls-49" d="M51.91,33.41c0,.72.38.87,1,.84s.64-.47.7-1-.41-1.61.88-1.58a1.49,1.49,0,0,1,.41,1.43c-.16.62.6.72.69,1.2a2.56,2.56,0,0,1-2.21,2,3.39,3.39,0,0,1-1.23-.07l-.31-.11c-.29-.18-.3-.74-.81-.64s-.37.42-.38.72a12.18,12.18,0,0,1,0,2.26c.07,1.79,0,3.58,0,5.38,0,.51,0,1,.54,1.26a1,1,0,0,1,.2.84c-.12.47-.89.5-.74,1.14a2.08,2.08,0,0,1-.14.75,1.75,1.75,0,0,1-.46.59c.61-.37,1.43.16,1.44-.84a1.07,1.07,0,0,1,.23-.77,1.07,1.07,0,0,0,.65-1.17c0-.47-.15-1,.28-1.39a.94.94,0,0,1,.89-.13.77.77,0,0,1,.29.22A2.67,2.67,0,0,1,54,46.12a16.21,16.21,0,0,0,.22,1.74l-.21.85C53.44,49.29,53,50.05,52,50c-.36,0-.37.37-.54.58a2.61,2.61,0,0,0-1.23,1,4,4,0,0,1-1.53.11c-.82,0-1.68-.15-2.33.56a.6.6,0,0,1-.35-.08c-.94-.85-.75-1.76-.17-2.71a1.18,1.18,0,0,1,.82-.29l.82,0c.39,0,.63-.15.6-.58,0-.25,0-.5,0-.76a1.5,1.5,0,0,1,.1-.78c.23-.35.89-.38.74-1,0-.27,0-.54,0-.81,0-.53,0-1.06,0-1.58,0-.31,0-.62,0-.92,0-.57,0-1.14,0-1.72,0-1.63,0-3.27,0-4.91,0-.32,0-.65,0-1a1.29,1.29,0,0,1,.19-.92,1.35,1.35,0,0,1,.82-.35c.62.15.71-.61,1.19-.7A.66.66,0,0,1,51.91,33.41Z"/><path class="cls-50" d="M51.25,50.39c0-.2.09-.57.16-.57,1-.1,1.51-1.31,2.62-1.11.41.65.74,1.26-.13,1.86-.51.35-.15.88-.08,1.34-.5,1.69-1.5,3.17-2,4.86a1.91,1.91,0,0,1-1.61,1.29c-.31-.29-.51-.68-.27-1,.72-1.1.59-2.35.72-3.55a2.64,2.64,0,0,1,.12-.4A2.11,2.11,0,0,0,51.25,50.39Z"/><path class="cls-51" d="M53.6,38.53c1,.94.88,2.17.87,3.38,0,.84,0,1.69,0,2.54a.57.57,0,0,1-.85,0v-.05a1.17,1.17,0,0,1-.43-1.12c0-.63,0-1.26,0-1.89a1.15,1.15,0,0,0-.6-1.13,1.46,1.46,0,0,1-.22-.91,1.25,1.25,0,0,1,.22-.92.67.67,0,0,1,.89-.09Z"/><path class="cls-52" d="M53.6,44.49l.85,0a9.54,9.54,0,0,1-.21,3.41C53.22,46.89,53.73,45.63,53.6,44.49Z"/><path class="cls-53" d="M54.46,37.67c0,.6-.28.86-.86.86v0c-.27-1-.14-1.09.83-.85Z"/><path class="cls-54" d="M8.53,43.17l0-4.68a.7.7,0,0,1,.86-.16.92.92,0,0,1,.24.28c.36.8,0,1.65.15,2.47-.08,1.09,1,1.16,1.53,1.75a.94.94,0,0,1-.13.91C10,44.32,9.46,44.2,8.53,43.17Z"/><path class="cls-55" d="M8.53,43.17c.85.16,1.64.66,2.56.44a1,1,0,0,1,1.55-.16.88.88,0,0,1,.12,1,.75.75,0,0,1-.65.38c-.28,0-.57.07-.85.06-.61-.17-.72.5-1.13.67a.71.71,0,0,1-.75-.23c0-.27,0-.62-.27-.74C8.43,44.28,8.5,43.73,8.53,43.17Z"/><path class="cls-56" d="M9.37,38.51l-.82,0V33.42a.66.66,0,0,1,.94-.06c.57.66.25,1.45.3,2.19C9.79,36.56,10.17,37.62,9.37,38.51Z"/><path class="cls-57" d="M9.32,31.68c.2-.62-.36-1.61.86-1.71l.17.07a1,1,0,0,1,.25.84,1,1,0,0,1-.18.88.75.75,0,0,1-.85.18A.63.63,0,0,1,9.32,31.68Z"/><path class="cls-58" d="M8.54,32.57c-.07-.59.18-.89.78-.89l.09.05a.65.65,0,0,1,0,.9A.64.64,0,0,1,8.54,32.57Z"/><path class="cls-59" d="M10.18,30c0-.55.22-.89.83-.83l.16.1a.61.61,0,1,1-.92.8Z"/><path class="cls-60" d="M11,29.14c0-.6.25-.92.88-.87l.15.13c.09.92,0,1-.91.76Z"/><path class="cls-61" d="M11.94,27.48l.81-.09,0,.09c.25.94.13,1.06-.82.87l-.08-.08Z"/><path class="cls-62" d="M9.38,45.32l.79,0,.16.1a.62.62,0,0,1-.95.8Z"/><path class="cls-63" d="M8.54,32.57l.8,0a.51.51,0,0,1,.15.75l-.13.1-.81,0C8.55,33.14,8.54,32.85,8.54,32.57Z"/><path class="cls-64" d="M9.38,46.18l.78,0,.16.09a.65.65,0,0,1,0,.83.67.67,0,0,1-.82.17A.53.53,0,0,1,9.31,47Z"/><path class="cls-65" d="M8.55,47.88l-.07-.43C8.58,47,9,47,9.31,47l.1.05a.64.64,0,0,1,0,.89A.63.63,0,0,1,8.55,47.88Z"/><path class="cls-66" d="M65.49,24.88c-.33,0-.77.07-.74-.45s.43-.35.73-.36C65.48,24.34,65.49,24.61,65.49,24.88Z"/><path class="cls-67" d="M50.19,28.33c.27,0,.73,0,.72.25,0,1.18,1.42,1.85,1,3.12a.76.76,0,0,1-.79.39,1.5,1.5,0,0,1-.93-.17.68.68,0,0,1-.25-.28,3.38,3.38,0,0,1-.17-1.7C49.82,29.38,49.61,28.75,50.19,28.33Z"/><path class="cls-68" d="M57,29.11c-.17-.79.64-.95,1-1.31s.71-1.23,1.53-1.23l.09.05a.93.93,0,0,1,.33.78,1.44,1.44,0,0,1-.1.82c-.21.43-.84.49-.92,1a.8.8,0,0,1-.27.18,1.69,1.69,0,0,1-1.47-.05A.57.57,0,0,1,57,29.11Z"/><path class="cls-69" d="M51.06,31.73l.85,0c.56,0,.83.21.84.8s-.21.93-.84.91h-.84C50.4,32.85,50.51,32.29,51.06,31.73Z"/><path class="cls-70" d="M54.46,33.39l0-1.67.8,0a.79.79,0,0,1,1,0,1.3,1.3,0,0,1-.12,1.79h0A1.07,1.07,0,0,1,54.46,33.39Z"/><path class="cls-71" d="M50.19,28.33V30a.67.67,0,0,1-1,0,1.21,1.21,0,0,1,0-1.54l.18-.12Z"/><path class="cls-72" d="M56.13,30c0-.6.29-.87.86-.88a.42.42,0,0,1,0,.1,1,1,0,0,1,.33.87.93.93,0,0,1-.31.9.77.77,0,0,1-1,0A.72.72,0,0,1,56.13,30Z"/><path class="cls-73" d="M56.13,30l0,.85a.57.57,0,0,1,0,.84h-.87C55.39,31,55,30.12,56.13,30Z"/><path class="cls-74" d="M48.51,27.46c.68-.12.91.21.85.84h0a.68.68,0,0,1-.79.21.53.53,0,0,1-.25-.24A.67.67,0,0,1,48.51,27.46Z"/><path class="cls-75" d="M48.51,27.46v.84a.56.56,0,0,1-.84,0v-.82Z"/><path class="cls-76" d="M43.4,28.29c.15-.62-.46-1.6.81-1.68a.8.8,0,0,1,.83.32c.15.24.27.55.63.37s.26-.47.27-.74c0-.56,0-1.13,0-1.69a.68.68,0,0,1,.92,0,.66.66,0,0,1-.06.91c0,.59,0,1.19,0,1.78-.07,1.57-.11,1.6-1.73,1.63a.78.78,0,0,1-.78.26A1.66,1.66,0,0,1,43.4,28.29Z"/><path class="cls-77" d="M47.66,28.29h.84v0a1.89,1.89,0,0,1,.1,2.35c-.29.39-.58.78-.85,1.17a1.37,1.37,0,0,1-.94.25,1.14,1.14,0,0,1-1-.23,1.2,1.2,0,0,1-.26-.95,1,1,0,0,1,.34-.88A2.09,2.09,0,0,0,47.66,28.29Z"/><path class="cls-78" d="M54.43,15.49l0-.78,1.7,0,0,.83a.76.76,0,0,1,.14.87.74.74,0,0,1-.79.32,1.21,1.21,0,0,1-.32-.11c-.27-.24-.29-.69-.67-.84A.48.48,0,0,1,54.43,15.49Z"/><path class="cls-79" d="M57,15.54c.65,0,.87.29.86.91s-.32.81-.88.77A1.06,1.06,0,0,1,57,15.54Z"/><path class="cls-80" d="M57,15.54c0,.56,0,1.12,0,1.68l-.79.07-.07-.09a.58.58,0,0,1,0-.82l.06-.87Z"/><path class="cls-81" d="M46.81,25.74l0-.82c.56-.7,1.14-.56,1.72,0l0,0C48.42,26.18,47.45,25.61,46.81,25.74Z"/><path class="cls-82" d="M45.92,30v.84a1,1,0,0,1-.83.34,1.26,1.26,0,0,1-.91-.2.82.82,0,0,1-.19-.9,1,1,0,0,1,.24-.29.74.74,0,0,1,.87.15Z"/><path class="cls-77" d="M45.11,30l-.84,0a.5.5,0,0,1,0-.81l.82,0Z"/><path class="cls-83" d="M54.46,19.81c0,.59-.25.86-.83.85l-.15-.08a.68.68,0,0,1-.06-.81.71.71,0,0,1,.27-.21A.68.68,0,0,1,54.46,19.81Z"/><path class="cls-84" d="M54.46,19.81h-.85a.65.65,0,0,1-.1-.91.64.64,0,0,1,.91,0l.09.07C54.49,19.26,54.47,19.54,54.46,19.81Z"/><path class="cls-83" d="M51.08,22.37h.82c0,.58-.23.87-.81.84l-.09,0A.51.51,0,0,1,51.08,22.37Z"/><path class="cls-83" d="M52.77,21.5v-.84l.1-.13a.55.55,0,0,1,.73.11l0,0C53.63,21.23,53.36,21.53,52.77,21.5Z"/><path class="cls-85" d="M40.86,27.43a.73.73,0,0,1,.85.86c-.1.37-.4.44-.73.43s-.54.22-.55.59a1.68,1.68,0,0,1-.22.72c-.34.28-.77.49-.92,1a4.62,4.62,0,0,0-1.65,2.48,2.17,2.17,0,0,0-.93.94c-.53.12-.63.73-1.07,1a.91.91,0,0,1-.87-.13,1,1,0,0,1-.28-.86A1.71,1.71,0,0,1,35,32.85c.32-.3.25-.78.45-1.15s.91-.38.9-1c.61-.72,1.45-1.25,1.65-2.31.1-.51.88-.54,1-1.1a.77.77,0,0,1,.31-.16A1.36,1.36,0,0,1,40.86,27.43Z"/><path class="cls-38" d="M37.49,24.89h.81a.55.55,0,0,1,.81,0v.81c-.58.54-1.34.93-1.49,1.83a.77.77,0,0,1-.29.19,1,1,0,0,1-.89-.16,1.08,1.08,0,0,1-.27-.92c0-.32,0-.65,0-1a1.06,1.06,0,0,1,.35-.9A.79.79,0,0,1,37.49,24.89Z"/><path class="cls-86" d="M48.5,24.89l-1.72,0L46,24.87c0-.34,0-.69.43-.83s.39-.51.43-.84C48.52,23.19,48.52,23.19,48.5,24.89Z"/><path class="cls-87" d="M37.49,27.45c-.12-1.66-.12-1.66,1.63-1.74,0,.29,0,.58,0,.87a.61.61,0,0,1,0,.86h0C38.59,28,38,28.11,37.49,27.45Z"/><path class="cls-88" d="M41.69,23.2V24a.57.57,0,0,1,0,.83l-.23.08L40,24.87a.88.88,0,0,1-.34-.84.88.88,0,0,1,.33-.84l.87,0Z"/><path class="cls-89" d="M40,29.15c0-1.38,1.11-.65,1.71-.86l.8,0a.67.67,0,0,1,.06,1A2.23,2.23,0,0,1,40,29.15Z"/><path class="cls-90" d="M42.53,29.16c0-.28,0-.57,0-.85l.89,0c.57,0,.88.25.87.84v.81l0,.06a.69.69,0,0,1-.72.25c-.48-.15-.47-.78-.93-.95Z"/><path class="cls-91" d="M40,24.06c0,.27,0,.54,0,.81l-.9,0-.81,0c-.06-.63.26-.88.86-.85A.57.57,0,0,1,40,24.06Z"/><path class="cls-92" d="M39.14,27.44v-.86c.64.15,1.64-.42,1.72.85Z"/><path class="cls-93" d="M26.4,25.75h.86a1,1,0,0,1,.34.8,1.48,1.48,0,0,1-.05.86c-.23.38-.92.44-.75,1.1a1,1,0,0,1-.23.8,1.07,1.07,0,0,0-.63,1.18c0,.51.16,1.08-.4,1.42a.87.87,0,0,1-1.27-.71c.08-.86-.82-1-1.17-1.56-.25-.39-.56-.69-.42-1.19a.72.72,0,0,1,.13-.28,1.71,1.71,0,0,0,.9-.93,1,1,0,0,1,.86-.23c.42,0,.61-.18.73-.54s.75-.28.95-.67Z"/><path class="cls-94" d="M28.93,24.85c.7-.84.62-2.16,1.72-2.74a.69.69,0,0,1,1,.18A1.89,1.89,0,0,1,31.78,24c-.19.54-.88.6-1.09,1.13a1.53,1.53,0,0,1-1.56.05A.55.55,0,0,1,28.93,24.85Z"/><path class="cls-95" d="M31.49,22.35l-.84-.24c0-.19,0-.39,0-.58l4.21,0a.71.71,0,0,1,.11,1c-.81.6-1.72.18-2.59.24A1,1,0,0,1,31.49,22.35Z"/><path class="cls-96" d="M26.39,23.18l-.07-.8a.53.53,0,0,1,.12-.25,1.41,1.41,0,0,0,.6-.56.54.54,0,0,1,.25-.09c.52.15,1.48-.3,1.45.47a1.53,1.53,0,0,1-1.61,1.25C26.88,23.18,26.63,23.19,26.39,23.18Z"/><path class="cls-97" d="M27.28,26.61c0-.28,0-.57,0-.86.36,0,.7,0,.83-.43s.51-.4.84-.47l0,.08a1,1,0,0,1,.35.86,1,1,0,0,1-.22.93,1.19,1.19,0,0,1-.93.24A1,1,0,0,1,27.28,26.61Z"/><path class="cls-98" d="M26.38,24.9c0,.28,0,.57,0,.85h0c-.46.59-1.11.39-1.71.4a1,1,0,0,1-1-.33.86.86,0,0,1,.05-1A2.27,2.27,0,0,1,26.38,24.9Z"/><path class="cls-99" d="M26.38,24.9H23.85l-.13-.1a.5.5,0,0,1,.14-.75h2.52Z"/><path class="cls-100" d="M29.8,20.66c-.63-.18-1.64.44-1.73-.84l0-.1a1.35,1.35,0,0,1,1.58-.2.7.7,0,0,1,.28.26.75.75,0,0,1-.17.88Z"/><path class="cls-101" d="M26.34,21.49c.12-.28-.1-.77.41-.82s.4.51.54.81l-.11,0a.55.55,0,0,1-.65.2A.48.48,0,0,1,26.34,21.49Z"/><path class="cls-102" d="M26.32,22.38c-.58,0-.87-.25-.74-.86l.76,0h.09a.6.6,0,0,1,0,.83Z"/><path class="cls-103" d="M32.33,12.12c.61,0,1,.09.84.85a.59.59,0,0,1-.84,0h0a.6.6,0,0,1,0-.85Z"/><path class="cls-100" d="M32.33,13l.84,0c0,.28,0,.55,0,.83C32.52,13.89,32.26,13.62,32.33,13Z"/><path class="cls-104" d="M31.46,17.22l.46,0c.06.62-.53,1.06-.44,1.68l-.8,0a2.65,2.65,0,0,1-1.17-1.1C29.76,16.7,30.4,16.49,31.46,17.22Z"/><path class="cls-105" d="M34.91,22.33c0-.27,0-.55,0-.82h1.7c0,.27,0,.54,0,.8l0,.05C36,22.87,35.45,23,34.91,22.33Z"/><path class="cls-106" d="M29.83,18.07c.62,0,.87.3.85.9,0,.26-.05.53-.07.79a.51.51,0,0,1-.79.06l-.07-.06a.83.83,0,0,1-.34-.72,1.2,1.2,0,0,1,.15-.8A.55.55,0,0,1,29.83,18.07Z"/><path class="cls-107" d="M29.82,19.82l.79-.06c.08.62-.17.93-.81.9C29.81,20.38,29.81,20.1,29.82,19.82Z"/><path class="cls-108" d="M63,24.87c.59,0,.89.27.82.88h0A.72.72,0,0,1,63,26a.67.67,0,0,1-.26-.24.65.65,0,0,1,.16-.8Z"/><path class="cls-109" d="M23.85,24.9v.84c-.21.89-1,1.27-1.56,1.91-.72.28-1.21.11-1.35-.71s-.38.08-.56-.06a1,1,0,0,1-.84-.11.84.84,0,0,1-.18-1l0-.81a.58.58,0,0,1,.45-.41,17.8,17.8,0,0,1,3.5,0c.21,0,.34.23.49.38Z"/><path class="cls-110" d="M23.82,24.91l-4.44,0c-.21,0-.42,0-.62-.05s-.78.1-.81-.4.45-.4.76-.48c.65-.12,1.63.5,1.74-.79l.82,0,0,.06c.35.44.84.39,1.32.38A1.2,1.2,0,0,1,23.8,24l.06,0C23.85,24.34,23.83,24.63,23.82,24.91Z"/><path class="cls-111" d="M14.46,26.57c0-.26,0-.52,0-.78l2.72,0a.66.66,0,0,1,.1.92.78.78,0,0,1-.35.21C16.11,27,15.2,27.44,14.46,26.57Z"/><path class="cls-112" d="M17.25,26.57l0-.8,2.14,0c.23.23.2.55.27.84l-.09.15a1,1,0,0,1-.83.25,3,3,0,0,1-.89,0A.61.61,0,0,1,17.25,26.57Z"/><path class="cls-113" d="M53.62,19v.84h0a.7.7,0,0,1-.78.24.6.6,0,0,1-.27-.2,1.28,1.28,0,0,1-.18-.81,1.1,1.1,0,0,1,.16-.79.5.5,0,0,1,.26-.17l.8.05A.6.6,0,0,1,53.62,19Z"/><path class="cls-114" d="M53.65,15.55l.78-.06,0,.09a.63.63,0,0,1,.18.77.56.56,0,0,1-.24.24.64.64,0,0,1-.77-.22Z"/><path class="cls-115" d="M53.64,16.37l.79.05a.52.52,0,0,1,0,.81C53.79,17.32,53.54,17,53.64,16.37Z"/><path class="cls-116" d="M51.87,18.05l.06-.78c.66-.15.84.23.86.79l-.07.06a.56.56,0,0,1-.68.16A.44.44,0,0,1,51.87,18.05Z"/><path class="cls-117" d="M56.13,16.38v.82l-.83,0c-.22-.29-.26-.57.05-.82Z"/><path class="cls-118" d="M55.35,16.41l-.05.82h-.84l0-.81,0-.06a.54.54,0,0,1,.79,0Z"/><path class="cls-40" d="M53.62,19l0-.85c.61-.07.93.15.83.8Z"/><path class="cls-119" d="M34.91,22.33l1.66,0c0,.28,0,.57,0,.85l-.13.16a7.13,7.13,0,0,1-3.49.2.79.79,0,0,1-.66-1.23Z"/><path class="cls-120" d="M37.49,24.89l-.88,0-.16-.08a.88.88,0,0,1-.22-.82.87.87,0,0,1,.37-.77l0,0C38,23.24,37.25,24.3,37.49,24.89Z"/><path class="cls-121" d="M40,24.06l-.83,0c-.07-.63.24-.88.84-.84C40,23.48,40,23.77,40,24.06Z"/><path class="cls-122" d="M51.08,22.37c0,.27,0,.53-.08.79-.64-.12-1.63.49-1.71-.81l.1,0c.61-.39.16-1.29.79-1.67l.06-.05C51.51,20.73,50.91,21.74,51.08,22.37Z"/><path class="cls-123" d="M52.77,20.66c-.63.07-.93-.23-.93-.84a.43.43,0,0,1,.19-.23.58.58,0,0,1,.7.15l0,.09a.56.56,0,0,1,0,.81Z"/><path class="cls-124" d="M51.84,19.82c-.64,0-.83-.33-.76-.9a.63.63,0,0,1,.88,0,.64.64,0,0,1,0,.89Z"/><path class="cls-101" d="M51.85,19l-.77,0v-.81l.79-.06.06.08a.53.53,0,0,1,.16.66A.4.4,0,0,1,51.85,19Z"/><path class="cls-125" d="M41.7,24.86V24l1.72,0c.3.1.79,0,.76.49s-.5.39-.81.4C42.81,24.91,42.25,24.87,41.7,24.86Z"/><path class="cls-126" d="M32.28,16.38l-.77,0-.15-.06a.86.86,0,0,1-.25-.76,1.2,1.2,0,0,1,.14-.79.44.44,0,0,1,.27-.17C32.89,14.72,32.17,15.73,32.28,16.38Z"/><path class="cls-127" d="M32.35,12.15l0,.85h-.84C31.43,12.35,31.68,12,32.35,12.15Z"/><path class="cls-128" d="M30.66,13.79c.54,0,.9.23.86.84l-.05.09a.69.69,0,0,1-.79.18.72.72,0,0,1-.25-.24.66.66,0,0,1,.18-.79Z"/><path class="cls-129" d="M23.8,24H22.12c-.56,0-.87-.21-.83-.8l1.75,0C23.62,23.18,23.87,23.46,23.8,24Z"/><path class="cls-79" d="M58.72,12.14l0,.83-.86,0-.39,0A1.27,1.27,0,0,1,58.72,12.14Z"/><path class="cls-130" d="M50.18,20.66c-.14.61.56,1.62-.79,1.67V20.65Z"/><path class="cls-131" d="M31.46,17.22c-.28,0-.56,0-.84,0-.65-.06-.94.18-.79.85l-.08,0a1,1,0,0,1-1.64,0l-.06-.07.09-.79c1.27-.08.58-1.12.83-1.7h.79l.14,0c.34.61,1.2.14,1.54.75l.07.07C31.5,16.68,31.48,17,31.46,17.22Z"/><path class="cls-132" d="M29.76,18.92c0,.28,0,.56,0,.84l-1.64,0c0-.26,0-.53,0-.8A1,1,0,0,1,29.76,18.92Z"/><path class="cls-133" d="M29.76,18.92H28.1v-.8h1.64Z"/><path class="cls-134" d="M30.61,13.87l0,.81a.52.52,0,0,1-.81,0h-.1l.07-.83Z"/><path class="cls-135" d="M59.58,27.46l0-.84h1.65a.7.7,0,0,1,.06,1A1.2,1.2,0,0,1,59.58,27.46Z"/><path class="cls-136" d="M61.23,27.47l0-.86h.87c0,.55,0,1.1,0,1.65s-.24.92-.86.93l-.15-.09a.93.93,0,0,1-.22-.83A.88.88,0,0,1,61.23,27.47Z"/><path class="cls-70" d="M62.93,26.57l-.82,0,0-.89a.58.58,0,0,1,.81,0l.05.09A.5.5,0,0,1,62.93,26.57Z"/><path class="cls-134" d="M62.94,25.71h-.81l0-.82.78,0C62.93,25.19,62.94,25.45,62.94,25.71Z"/><path class="cls-137" d="M14.46,26.57l2.54.05a.66.66,0,0,1,0,1.09c-1,.84-1.1,2.2-2,3.07-.23.21-.09.67-.11,1a1.28,1.28,0,0,1-.2.79c-.08.11-.18.25-.33.25-.92,0-1.21.66-1.35,1.44-.75.3-.6,1-.79,1.62a.79.79,0,0,1-.15.25.74.74,0,0,0-.58.9.93.93,0,0,1-.24.78c-.22.16-.48.24-.64.52a.72.72,0,0,1-1.23.17h0l0-3a22,22,0,0,0,2.16-3.57c.58-.9.74-2.05,1.64-2.76a1.31,1.31,0,0,0,.41-1.76l.05-.79Z"/><path class="cls-138" d="M13.6,27.42c.39,0,.82,0,.86.57a1.23,1.23,0,0,1-.35,1.14,5.63,5.63,0,0,0-1.5,2.09,5,5,0,0,1-1.26,2.15c-.48.37-.2,1.23-.86,1.6-.36.21-.62.58-1.1.54l0-2.12v0c.65-.41.22-1.31.81-1.74l.06-.81c.25-.31.56-.56.81-.88l.08-.82c.62.09.85-.23.84-.81.61,0,.87-.27.82-.87Z"/><path class="cls-139" d="M29.83,14.69h.8a.66.66,0,0,1,.08.9.64.64,0,0,1-.9-.08l0,0Z"/><path class="cls-140" d="M46.77,59.74l-.81,0a.9.9,0,0,1-1.25.19.73.73,0,0,1,0-1.12,2.75,2.75,0,0,0,.75-2.29,2.16,2.16,0,0,1,.23-1c.35-.37.85-.64.7-1.28.45-1,.83-1.11,2.09-.68a.79.79,0,0,1,.26,1c-.76,1-.5,2.22-.68,3.35C48.31,59.09,47.36,59.28,46.77,59.74Z"/><path class="cls-141" d="M51.06,53c0,.46,0,.92,0,1.38,0,1,.14,2-.66,2.78-.19.19-.14.6-.2.91l-.82,0L49.2,58a6.47,6.47,0,0,1-.15-4c.23-.51.89-.62,1.07-1.17a.69.69,0,0,1,.84,0Z"/><path class="cls-142" d="M29.81,63.16l-.1-.8a.7.7,0,0,1,.26-.3,31.64,31.64,0,0,1,5-.16c.77.16,1.67-.38,2.3.45a1.29,1.29,0,0,1-1.41.83C33.81,63.15,31.81,63.17,29.81,63.16Z"/><path class="cls-143" d="M46.77,59.74c0-.34,0-.69.44-.83s.42-.48.45-.83a1,1,0,0,1,1.66,0l0,.06C48.78,59.37,48.11,60.06,46.77,59.74Z"/><path class="cls-144" d="M37.23,62.35l-2.36-.06a.68.68,0,0,1-.09-.91.75.75,0,0,1,.52-.24,7.38,7.38,0,0,1,2.15,0,1,1,0,0,1,.73.28.68.68,0,0,1-.12.92Z"/><path class="cls-145" d="M38.06,62.3l0-.79c.48-.77,1.23-.36,1.87-.43a.85.85,0,0,1,.88.42c0,.55-.25.83-.82.82S38.72,62.31,38.06,62.3Z"/><path class="cls-146" d="M44.28,60.67a.71.71,0,0,1-.84.8H41.69a.71.71,0,0,1-.13-.91,1,1,0,0,1,.87-.34c.55,0,1.12-.16,1.64.16A.47.47,0,0,1,44.28,60.67Z"/><path class="cls-146" d="M44.67,59.76l1.29,0c-.06,1.25-1.06.7-1.68.88l-.06-.08a.6.6,0,0,1-.06-.83A.41.41,0,0,1,44.67,59.76Z"/><path class="cls-147" d="M41.71,60.66c0,.27,0,.54,0,.81l-.83,0-.9-.06a.71.71,0,0,1-.06-.95,1.36,1.36,0,0,1,1.37-.23A.78.78,0,0,1,41.71,60.66Z"/><path class="cls-148" d="M23.82,62.31a1.44,1.44,0,0,1-1.38-.51c-.45-.61-1.23-.27-1.87-.31s-1-.15-1-.88c.43-.55,1.37-.32,1.66-1.09.22-.09.45-.15.67-.24a18.11,18.11,0,0,1,2.21,0c.61,0,1.28.15,1.37.88a1.68,1.68,0,0,1-.89,1.65,3.34,3.34,0,0,0-.79.48Z"/><path class="cls-149" d="M18.67,61.44l-.75,0-.18-.08a1.06,1.06,0,0,1-.29-.86,20.32,20.32,0,0,1,.16-4.05.76.76,0,0,1,1.28-.14,4.07,4.07,0,0,1-.13,3.46Z"/><path class="cls-150" d="M18.76,59.8l0-3.43.14-.14a.69.69,0,0,1,.89.12,5.36,5.36,0,0,1,.08,3.22.63.63,0,0,1-.31.22Z"/><path class="cls-151" d="M21.26,59.78c0,1.33-1.05.68-1.67.83,0-.27-.05-.55-.07-.82l.09,0a.89.89,0,0,1,.84-.33A.73.73,0,0,1,21.26,59.78Z"/><path class="cls-152" d="M17.06,62.34l-.07.8H13.64l-.06-.8.09-.16c.71-.56,1.52-.33,2.31-.28a1.6,1.6,0,0,1,.86.16A.64.64,0,0,1,17.06,62.34Z"/><path class="cls-153" d="M10.15,54.71c-.62,0-.82-.32-.83-.86l.07-.15a.69.69,0,0,1,.77-.14.67.67,0,0,1,.26.21.71.71,0,0,1,0,.78A.42.42,0,0,1,10.15,54.71Z"/><path class="cls-154" d="M8.52,53.81l0-.87a.63.63,0,0,1,.88,0,.64.64,0,0,1,0,.89l-.09.05Z"/><path class="cls-155" d="M11,55.55a.73.73,0,0,1-.88-.84l.1-.06a.66.66,0,0,1,.73-.23.8.8,0,0,1,.27.18.72.72,0,0,1,0,.77A.48.48,0,0,1,11,55.55Z"/><path class="cls-156" d="M11.88,56.39l-.8,0-.05-.8.08-.06a.61.61,0,0,1,1,.67A.43.43,0,0,1,11.88,56.39Z"/><path class="cls-157" d="M23.82,62.31c-.15-.83.72-1,1.06-1.54.47-.75.08-.88-.44-.94-.83-.08-1.67,0-2.51-.06-1.2-.61-1.43-1.51-.89-3.36.42-.59,1.05-.46,1.64-.46,1.7,0,2-.59,1.22-2.09a.71.71,0,0,1,0-.21,1.24,1.24,0,0,1,1.48-1.12c.9,0,1.8,0,2.71,0a1.52,1.52,0,0,1,.93.22c.58.57.38,1.31.36,2,0,.82.22,1.28,1.13,1.19a1.57,1.57,0,0,1,1.09.25c.62.86.35,1.83.28,2.75,0,.51-.54.68-1,.71s-.79,0-1,.34c-.73.66-.23,1.1.27,1.55a.7.7,0,0,1-.21.75l-.1.06a1.49,1.49,0,0,0-1.42.47,2.68,2.68,0,0,1-2.75.05A2.13,2.13,0,0,0,23.82,62.31Z"/><path class="cls-158" d="M12.72,61.47H12c0-1.69,0-3.38-.07-5.07l.09,0a.66.66,0,0,1,.86-.13.68.68,0,0,1,.23.3,15.38,15.38,0,0,1,0,4.74A.62.62,0,0,1,12.72,61.47Z"/><path class="cls-159" d="M8.56,52.1V48.72a.66.66,0,0,1,.93-.06,3.56,3.56,0,0,1,.3,2.56,1.32,1.32,0,0,1-.31,1A.64.64,0,0,1,8.56,52.1Z"/><path class="cls-160" d="M8.56,52.1l.8,0,.13.07a.51.51,0,0,1,.06.65.37.37,0,0,1-.23.14l-.77,0a1.46,1.46,0,0,0-.07-.19Z"/><path class="cls-161" d="M9.36,48.71H8.55v-.84l.77,0,.14.06a.53.53,0,0,1,0,.71Z"/><path class="cls-162" d="M13.58,62.35l-.77-.05-.09-.83h.1a.62.62,0,0,1,.88-.07.67.67,0,0,1,0,.9Z"/><path class="cls-163" d="M17.84,62.31l-.78,0-.11,0a.7.7,0,0,1-.14-.79.69.69,0,0,1,.24-.24.65.65,0,0,1,.78.2h.09Z"/><path class="cls-164" d="M45.94,49.61a4,4,0,0,0,.23,2.47c-.18.53-.64.5-1.05.45a1.5,1.5,0,0,0-1.51.68,1.64,1.64,0,0,1-.38.1c-2.25.18-4.49,0-6.74.08-.51,0-.93-.19-1-.75s.31-.89.89-.92c.82,0,1.64,0,2.46,0,.63-.1,1.42.31,1.82-.55.49-.18.7-.63,1-1a1.19,1.19,0,0,1,.83-.13c.27,0,.55,0,.83,0h.78c.51.11.66-.31.9-.61a.72.72,0,0,1,.76,0A.48.48,0,0,1,45.94,49.61Z"/><path class="cls-165" d="M47.65,31.71c0-.31,0-.68.21-.89.8-.69.62-1.61.63-2.5l.86,0c.15.63-.49,1.66.85,1.71v1.71A1.65,1.65,0,0,0,49.77,33a1.18,1.18,0,0,1-.42,1.21v.87a.72.72,0,0,1-.86.14,1,1,0,0,1-.38-.77c.1-.53-.28-.76-.63-1a.91.91,0,0,1-.13-.77,1,1,0,0,1,.1-.29.66.66,0,0,0,.22-.6A.49.49,0,0,1,47.65,31.71Z"/><path class="cls-166" d="M52.78,38.53l0,.83c-.41.27-.47.81-.84,1.11s-.42.59-.42,1v2.71c0,.38.05.78-.28,1.07l-.16.08c-.75,0-.85-.43-.84-1,0-1.93,0-3.86,0-5.79A1.89,1.89,0,0,1,52.78,38.53Z"/><path class="cls-167" d="M52.78,38.53l-2.55,0,0-2.53a1,1,0,0,1,1.69,0h0c0,.82.49.87,1.09.85s1.28,0,1.45.83c-.58,0-.89.24-.83.85Z"/><path class="cls-168" d="M49.31,36v5.08a.65.65,0,0,1-.93.06c-.44-.53-.3-1.17-.32-1.77a7.48,7.48,0,0,1,.31-3.42A.65.65,0,0,1,49.31,36Z"/><path class="cls-169" d="M52.8,44.47c0,.59-.07,1.18,0,1.76s-.29.85-.86.8c-.7-.44-.34-1.14-.43-1.72.13-.89-.3-1.85.32-2.68a.92.92,0,0,1,1.05,0A1.31,1.31,0,0,1,52.8,44.47Z"/><path class="cls-170" d="M52.8,44.47l-.08-1.7a2.39,2.39,0,0,1-.24-2.35.7.7,0,0,1,.3-.24c.66,0,.83.38.83,1,0,1.1,0,2.2,0,3.3Z"/><path class="cls-171" d="M51.25,50.39a6.16,6.16,0,0,1,1.06.07c.41.09.56.47.21.68a1.25,1.25,0,0,0-.64,1.22c0,.53-.42.59-.82.63l0-.06c-.5-.45-.54-1.13-.86-1.68C50.14,50.47,50.68,50.4,51.25,50.39Z"/><path class="cls-172" d="M50.18,51.25c1.28,0,.75,1,.86,1.68l-.82.07-.15-.06a1,1,0,0,0-.93-.39.81.81,0,0,1-.87-.48.73.73,0,0,1,.25-.79Z"/><path class="cls-173" d="M51.88,47.84c0,.54-.15.87-.75.87a1,1,0,0,0-.79.22c-.21.23-.27.74-.75.47-.32-.17-.22-.55-.23-.85,0-.57.35-.7.83-.69A1.06,1.06,0,0,1,51.88,47.84Z"/><path class="cls-174" d="M51.88,47.84l-1.69,0,0-.83c.24-.32.56-.57.81-.88v-.84h0a.54.54,0,0,1,.8,0c0,.58,0,1.17,0,1.75Z"/><path class="cls-175" d="M48.48,41h.83v1.7a4,4,0,0,0-.67,1,.85.85,0,0,1-.3.15.87.87,0,0,1-.84-.22,1.26,1.26,0,0,1-.24-.86,2,2,0,0,1,.05-.85c.22-.44.85-.39,1-.88Z"/><path class="cls-176" d="M43.6,53c0-.64.33-.85.91-.84s1.11,0,1.66,0a1.2,1.2,0,0,0,.19,0,.45.45,0,0,1,.56.07.78.78,0,0,1,0,1c-.54.5-1.2.21-1.8.28S44,53.6,43.6,53Z"/><path class="cls-177" d="M48.53,47l-.07.82a.67.67,0,0,1-.91.13,1,1,0,0,1-.31-.93c0-.59-.17-1.2.18-1.76a.86.86,0,0,1,.93-.23.72.72,0,0,1,.33.21,1.32,1.32,0,0,1,.19.93A1,1,0,0,1,48.53,47Z"/><path class="cls-178" d="M49.35,34.25c0-.55,0-1.11,0-1.66s.22-.92.85-.88h0a1.94,1.94,0,0,1,0,2.52Z"/><path class="cls-179" d="M50.19,34.23V31.71l.87,0c0,.56,0,1.12,0,1.67S50.82,34.32,50.19,34.23Z"/><path class="cls-164" d="M46.83,52.15l-.47-.07c.39-1.14,1.36-.75,2.15-.8,0,.27,0,.54,0,.81C48,52.77,47.39,52.64,46.83,52.15Z"/><path class="cls-180" d="M49.32,43.6v1.69a.52.52,0,0,1-.79,0l-.06,0a1,1,0,0,1,0-1.67h0A.56.56,0,0,1,49.32,43.6Z"/><path class="cls-181" d="M51.89,36H50.2c0-.57.2-.85.8-.86S52,35.31,51.89,36Z"/><path class="cls-182" d="M54.46,33.39l1.71,0c.06.63-.27.87-.85.87S54.38,34,54.46,33.39Z"/><path class="cls-183" d="M49.32,43.6h-.81c-.06-.59.18-.9.8-.86Z"/><path class="cls-184" d="M49.31,36l-.81,0-.13-.07a.53.53,0,0,1-.06-.66.39.39,0,0,1,.23-.15l.8,0Z"/><path class="cls-185" d="M47.67,47.88l.79,0,0,.85a.64.64,0,0,1-.79.22.67.67,0,0,1-.25-.25A.6.6,0,0,1,47.67,47.88Z"/><path class="cls-186" d="M46.78,49.53l-.84.08v-.09a.65.65,0,0,1-.13-.85.74.74,0,0,1,.86-.2.65.65,0,0,1,.28.24A.64.64,0,0,1,46.78,49.53Z"/><path class="cls-187" d="M46.78,49.53l0-.77a.5.5,0,0,1,.8-.08l.09.07a.53.53,0,0,1-.08.79Z"/><path class="cls-188" d="M47.62,49.54c0-.26.05-.53.08-.79l.78-.06C48.55,49.34,48.26,49.61,47.62,49.54Z"/><path class="cls-189" d="M48.52,45.32l.79,0c0,.28,0,.57,0,.85a.54.54,0,0,1-.8,0Z"/><path class="cls-190" d="M48.53,46.18l.8,0c.07.61-.19.91-.8.88Z"/><path class="cls-191" d="M51,46.15c.09.63-.21.9-.81.88C50.15,46.42,50.42,46.13,51,46.15Z"/><path class="cls-192" d="M51.87,40.16c0-.6.29-.85.87-.8,0,.27,0,.55,0,.82l-.06.07a.57.57,0,0,1-.68.15A.46.46,0,0,1,51.87,40.16Z"/><path class="cls-193" d="M56.16,31.68v-.84H57l.14,0c.32.6,1,.2,1.45.57a.58.58,0,0,1,.15.25c0,.24,0,.66-.24.65-1,0-1.45.94-2.33,1.05C56.17,32.84,56.16,32.26,56.16,31.68Z"/><path class="cls-19" d="M61.27,29.18a2.35,2.35,0,0,1-1.69,1.7l-.15,0a1.64,1.64,0,0,0-.82-.65.62.62,0,0,1-.17-.28.7.7,0,0,1,.25-.74l.07-.06a1,1,0,0,1,.85-.35c.57,0,1.16-.19,1.62.33Z"/><path class="cls-194" d="M62.93,26.57,63,25.8l.83,0C63.87,26.4,63.54,26.64,62.93,26.57Z"/><path class="cls-195" d="M59.58,30.88c0,.58-.26.86-.83.84l-.08,0a.69.69,0,0,1-.17-.79.53.53,0,0,1,.24-.25.71.71,0,0,1,.8.17Z"/><path class="cls-196" d="M12.56,43.62H11.09c0-.29,0-.58-.05-.86a2.41,2.41,0,0,1-.14-2.65c1.62-.82,2.29-.43,2.3,1.36,0,.45,0,.91,0,1.36S13.08,43.6,12.56,43.62Z"/><path class="cls-56" d="M9.37,38.51c.35,0,.69,0,.84-.42s.48-.43.83-.46a.79.79,0,0,1,.42.84c0,.44.15.9-.12,1.31-.31.26-.65.42-.74.93s-.54,1-1.21.55Z"/><path class="cls-197" d="M9.39,41.26c.44-.08.79-.28.82-.78s.34-.71.82-.7a.31.31,0,0,1,.07.44L11,42.75C9.36,42.78,9.36,42.78,9.39,41.26Z"/><path class="cls-198" d="M11.1,40.22c0-.15,0-.3-.07-.44,0-.42,0-.84.07-1.25.6-.52.32-1.25.44-1.88,0-.31.19-.5.37-.7h0a.74.74,0,0,1,.84-.2.68.68,0,0,1,.42.65c-.08.62.31.91.72,1.22a1.73,1.73,0,0,1,.13.95c0,1.82.11,3.64-.08,5.45-.14.59-.48.84-1.08.67a.68.68,0,0,1-.31-.27v-.81a5.2,5.2,0,0,0,.14-2.92C12.55,39.75,11.67,40.29,11.1,40.22Z"/><path class="cls-199" d="M10.17,45.28c0-.58.31-.89.92-.81a.63.63,0,0,1,0,.89.62.62,0,0,1-.89,0Z"/><path class="cls-200" d="M11,45.29l.05-.82.81,0a.63.63,0,0,1,.17.81.64.64,0,0,1-.79.23A.47.47,0,0,1,11,45.29Z"/><path class="cls-201" d="M11.9,45.33v-.84l.67-.06.17,0a.67.67,0,0,1,.16.86.63.63,0,0,1-.86.13Z"/><path class="cls-202" d="M10.18,31.67c-.11.65.51,1.65-.81,1.74l0-.87c0-.27.05-.54.07-.81Z"/><path class="cls-203" d="M11.05,30c.1.64-.2.9-.81.88,0-.27,0-.55,0-.82Z"/><path class="cls-204" d="M10.24,45.33l.8,0,.08.06a.64.64,0,0,1,0,.88.62.62,0,0,1-.88,0,.23.23,0,0,1-.11,0Z"/><path class="cls-205" d="M10.27,46.18l.78,0A.79.79,0,0,1,12,46c.39.24.39.62.39,1,0,.73,0,1.46,0,2.19a1,1,0,0,0,.52,1,1.29,1.29,0,0,1,.32.76c0,.44.08.76.62.71a1.56,1.56,0,0,1,.7.19c.72.87.88.88,1.5.11a1.94,1.94,0,0,0,.91-.9c.51-.13.63-.64,1-1,.54-.26.37-.75.43-1.19.12-1-.32-2,.28-2.94a.93.93,0,0,1,.88-.12c.46.24.58.87,1.13,1a1.43,1.43,0,0,1,.24.78c-.14.65.58.68.78,1.08a5.91,5.91,0,0,1,.07,1.57,2.2,2.2,0,0,1-.07.85c-.19.4-.91.41-.78,1a1.39,1.39,0,0,1-.19.74c-.29.32-.79.43-.9.93a1.85,1.85,0,0,0-.89.9c-.37.18-.67.41-.59.89,0,.3-.21.48-.37.68l0,0a1.35,1.35,0,0,0-.42,1.14c0,1,0,1.9,0,2.85A1.26,1.26,0,0,1,17,61.48h0a9.48,9.48,0,0,1-.87.81H13.67l-.06-.8a1.34,1.34,0,0,1-.42-1.15c0-1,0-1.9,0-2.85a1.29,1.29,0,0,0-.42-1.14l0,0a1,1,0,0,1-.38-.65c0-.48-.18-.71-.67-.67-.29,0-.46-.22-.65-.39h0a11.23,11.23,0,0,1-.84-.85l0,0a1,1,0,0,1-.38-.74c0-.27,0-.53,0-.8a1.15,1.15,0,0,0-.39-1l-.05-2.54,0,0a1.23,1.23,0,0,0,.43-1.06c0-.29.2-.47.36-.67Z"/><path class="cls-206" d="M10.19,47v.84a.5.5,0,0,1-.77,0h-.1L9.41,47Z"/><path class="cls-207" d="M58.69,29.17V30a1,1,0,0,1-1.65,0l0-.81Z"/><path class="cls-208" d="M61.23,27.47v.8a1.07,1.07,0,0,1-1.59.2l-.11-.16,0-.85Z"/><path class="cls-209" d="M59.55,29.15l-.79,0c-.12-.64.23-.82.78-.8h0A.6.6,0,0,1,59.55,29.15Z"/><path class="cls-118" d="M57.05,30H58.7l0,0a.62.62,0,0,1,0,.86h0a1,1,0,0,1-1.68,0h0Z"/><path class="cls-210" d="M46,31.67l.79,0a.67.67,0,0,1,.24.8.72.72,0,0,1-.25.27,1.61,1.61,0,0,1-.92.15,1,1,0,0,1-.89-.35.78.78,0,0,1,.08-1A.74.74,0,0,1,46,31.67Z"/><path class="cls-211" d="M46,31.67l-.87,0a.52.52,0,0,1,0-.81h.86C45.94,31.14,46,31.41,46,31.67Z"/><path class="cls-212" d="M46.84,32.53l-.07-.81h.87a.61.61,0,0,1,.08.83l-.09,0A.51.51,0,0,1,46.84,32.53Z"/><path class="cls-213" d="M55.27,16.37h-.79c0-.26,0-.52,0-.78C55.13,15.44,55.37,15.74,55.27,16.37Z"/><path class="cls-214" d="M45.07,30.88c0,.27,0,.54,0,.81v.82c0,.06-.07.11-.1.16a.71.71,0,0,1-.87,0,.87.87,0,0,1-.29-.83c0-.28,0-.58.14-.84a.67.67,0,0,1,.26-.21Z"/><path class="cls-215" d="M43.45,30l.79,0v.91a.74.74,0,0,1-.86.11.67.67,0,0,1-.21-.83A.47.47,0,0,1,43.45,30Z"/><path class="cls-216" d="M52.76,20.64c0-.27,0-.54,0-.81l.83,0v.85Z"/><path class="cls-217" d="M37.49,27.45h1.65c-.66,1.27-1,2.75-2.54,3.4a.73.73,0,0,1-.77.24.66.66,0,0,1-.27-.19c-.55-.85.41-1.18.59-1.78a1.93,1.93,0,0,1,.15-.75.71.71,0,0,1,.16-.26,2,2,0,0,0,.94-.66Z"/><path class="cls-218" d="M35.75,31.72c0,.73.13,1.5-.72,1.93-.12.06-.1.39-.15.6a.77.77,0,0,1-.81.25c-.49-.22-.59-.85-1.09-1.07a.9.9,0,0,1-.06-.83c.27-.39.84-.51,1-1,.53-.14.56-.81,1.06-1a.77.77,0,0,1,.79.26h0A.62.62,0,0,1,35.75,31.72Z"/><path class="cls-219" d="M37.4,33.34a2.35,2.35,0,0,1,1.72-2.52l.16.08A1.49,1.49,0,0,1,38.85,33a2.51,2.51,0,0,0-.38.48.74.74,0,0,1-.85.12A.51.51,0,0,1,37.4,33.34Z"/><path class="cls-220" d="M34.05,34.26h.83c0,.28,0,.57,0,.86a.71.71,0,0,1,.2.82A14.53,14.53,0,0,0,34,37a.82.82,0,0,1-.91-.12C32.41,35.51,32.62,34.93,34.05,34.26Z"/><path class="cls-221" d="M40,29.15h2.55a.73.73,0,0,1,.14.91.93.93,0,0,1-.88.35c-.54,0-1.11.18-1.63-.15a.57.57,0,0,1-.24-.27Z"/><path class="cls-222" d="M35.75,31.72v-.86h.85C36.64,31.46,36.35,31.75,35.75,31.72Z"/><path class="cls-223" d="M39.12,30.82c0-.56.23-.87.82-.83l.1,0c.21,1,.1,1.09-.87.89Z"/><path class="cls-224" d="M34.84,35.92c0-.27,0-.54,0-.81l.81-.06.16.1a.69.69,0,0,1,0,.84.71.71,0,0,1-.82.19A.58.58,0,0,1,34.84,35.92Z"/><path class="cls-225" d="M35.7,35.05c0-.55.26-.85.84-.82l.16.1a.61.61,0,1,1-.92.81Z"/><path class="cls-226" d="M36.54,34.23a.79.79,0,0,1,.86-.89l.07.09c.24.94.12,1.06-.83.86Z"/><path class="cls-227" d="M36.58,25.76v.85c-.83.43-1.19,1.29-1.79,1.94-.76.12-1.12-.22-1.14-1,0-.34,0-.68,0-1a1.09,1.09,0,0,1,.28-1,1.54,1.54,0,0,1,1-.27C35.48,25.36,36.14,25.14,36.58,25.76Z"/><path class="cls-228" d="M34.9,28.27c0-1.71,0-1.71,1.67-1.66l.06.83a.63.63,0,0,1,0,.86h0a.93.93,0,0,1-.85.34C35.39,28.65,35.07,28.62,34.9,28.27Z"/><path class="cls-229" d="M36.58,25.76l-1.66,0a.68.68,0,0,1-.21-.84.7.7,0,0,1,.28-.26,1.24,1.24,0,0,1,1.58.26l0,0Z"/><path class="cls-96" d="M36.6,28.3l0-.86h.77C37.54,28.12,37.22,28.36,36.6,28.3Z"/><path class="cls-230" d="M42.55,30v-.84c.59-.06.9.2.89.81l-.08.08A.53.53,0,0,1,42.55,30Z"/><path class="cls-231" d="M24.66,30.86c0,.58.25.89.85.85a.71.71,0,0,1,.41.74c.06.77,0,1.55,0,2.33,0,.42.06.78.49,1,.18.51.78.59,1,1a1.16,1.16,0,0,1,.05.82,1.13,1.13,0,0,1-.7.73,1.23,1.23,0,0,0-.7,1.17c-.21.57,0,1.27-.51,1.74a.9.9,0,0,1-1,0,1.06,1.06,0,0,1-.38-.85c0-.28,0-.57,0-.85-.16-.51.42-1.37-.68-1.45a1.62,1.62,0,0,1-.76-.27.9.9,0,0,1-.27-.78c.17-.64-.5-.75-.71-1.15a1.94,1.94,0,0,1-.07-1.3c1-.48.9-1.46,1.06-2.33a2.51,2.51,0,0,0,.56-1C23.63,30.63,24,30.36,24.66,30.86Z"/><path class="cls-232" d="M24.66,30.86c-.56,0-.85.23-.82.8s-.22.93-.86.89a1.56,1.56,0,0,1-2.1-1.21c0-.27,0-.55,0-.82a6,6,0,0,1,1.19-2.4.66.66,0,0,1,.86.19c0,.86.84,1.13,1.31,1.65A1.17,1.17,0,0,1,24.66,30.86Z"/><path class="cls-233" d="M27.28,26.61h.82c.55.42.38,1,.4,1.58a5.74,5.74,0,0,1-.09,1.6.93.93,0,0,1-.13.31c-.37.24-.75.47-.63,1a.85.85,0,0,1-.44.8.9.9,0,0,1-1-.14,2.43,2.43,0,0,1,.15-2.64l0-.81c.22-.34.56-.57.8-.9Z"/><path class="cls-234" d="M23,28.31h-.81a.56.56,0,0,1,0-.84,2.16,2.16,0,0,1,1.73-1.72l.81,0c.23.34.79.34.86.84,0,1.51-1.11.62-1.7.84l-.82.84Z"/><path class="cls-235" d="M26.37,29.14l0,2.57a.65.65,0,0,1,.05.9.62.62,0,0,1-.89-.08c0-.27,0-.54,0-.82,0-.55,0-1.11,0-1.66S25.74,29.12,26.37,29.14Z"/><path class="cls-236" d="M25.52,26.61c-.58,0-.88-.24-.86-.84l1.72,0C26.43,26.37,26.12,26.63,25.52,26.61Z"/><path class="cls-237" d="M27.21,27.43c.09.62-.19.91-.8.9C26.32,27.72,26.59,27.42,27.21,27.43Z"/><path class="cls-238" d="M23,28.29c-.08-.62.18-.92.82-.84C23.88,28.06,23.62,28.35,23,28.29Z"/><path class="cls-239" d="M36.6,23.2l0,.85c-.34.66-1.28.17-1.62.84l-.11,0a.88.88,0,0,1-.81.35,1.19,1.19,0,0,1-.87-.09c-.3-.36-.53-.8-1.14-.73a.51.51,0,0,1-.53-.4V22.35h.85c.15.67.63.85,1.25.84Z"/><path class="cls-240" d="M31.48,24c.62.17,1.64-.47,1.72.82-.69.82-1.53.44-2.34.29a.59.59,0,0,1-.23-.31C30.59,24.23,30.93,24,31.48,24Z"/><path class="cls-241" d="M29,25.76c0-.28,0-.55,0-.83l1.68-.09,0,.11a.63.63,0,0,1,0,.93A1.18,1.18,0,0,1,29,25.76Z"/><path class="cls-242" d="M26.42,22.32v-.83h.75C27.37,22.18,27.05,22.4,26.42,22.32Z"/><path class="cls-243" d="M29,25.76l1.63,0,.15.08a.73.73,0,0,1-.13,1.09,1,1,0,0,0-.41.88c-.23.76-.68,1-1.39.55a1.28,1.28,0,0,1,.1-1.77Z"/><path class="cls-244" d="M28.91,26.57l0,1.74-.11.13a.56.56,0,0,1-.73-.12c0-.57,0-1.14,0-1.71Z"/><path class="cls-245" d="M22.12,27.46c0,.28,0,.56,0,.84a2.4,2.4,0,0,1-.86,2.13,2.59,2.59,0,0,0-.44,2c0,.53,0,1-.53,1.36a6.1,6.1,0,0,1-2.37,0c-.48-.72-1.66-.91-1.6-2.06a9.71,9.71,0,0,1,.59-1.1,1.06,1.06,0,0,1,.81-.19c.64,0,1.42.21,1.67-.73.57-.28.6-.78.6-1.34s-.22-1.29.41-1.76c0-.71.36-.93,1-.84a.55.55,0,0,1,.52.29c.1.25-.1.36-.26.51C20.87,27.32,21.54,27.37,22.12,27.46Z"/><path class="cls-246" d="M20.42,26.61c0,.83,0,1.66,0,2.5,0,.59-.24.92-.86.89a.71.71,0,0,1-.88.14.77.77,0,0,1-.26-.84.89.89,0,0,1,.15-.31,1,1,0,0,0,.57-1.13,1.32,1.32,0,0,1,.37-1.26h.1Z"/><path class="cls-247" d="M14.47,31.71c-.25-1.33.89-2.08,1.29-3.15.27-.74,1.23-1,1.24-1.94l.25-.05.63,0A1,1,0,0,1,18,28.09a16.22,16.22,0,0,1-1.28,2,4.71,4.71,0,0,1-.25.75.79.79,0,0,1-.19.25,1.15,1.15,0,0,0-.76.74.73.73,0,0,1-.28.17A.74.74,0,0,1,14.47,31.71Z"/><path class="cls-248" d="M16.2,30a14.91,14.91,0,0,1,1.2-2,2,2,0,0,0,.48-1.42h.83a2,2,0,0,1,0,2.54v0c-.38.24-.51.66-.74,1a.81.81,0,0,1-.31.15A1.27,1.27,0,0,1,16.2,30Z"/><path class="cls-249" d="M18.73,29.15c0-.85,0-1.69,0-2.54h.82c0,.56,0,1.12,0,1.68S19.36,29.2,18.73,29.15Z"/><path class="cls-250" d="M51.94,19.77,51.85,19l.1,0a.52.52,0,0,1,.78,0v.82Z"/><path class="cls-251" d="M52.73,18.92H52c0-.27,0-.54,0-.8h.79Z"/><path class="cls-252" d="M34.94,24.89c0-1.42,1.05-.62,1.62-.84,0,.28,0,.56,0,.84Z"/><path class="cls-253" d="M29.81,15.51h.8a.6.6,0,0,1,.84,0c0,.27,0,.55,0,.82C30.87,16.12,29.73,17,29.81,15.51Z"/><path class="cls-254" d="M31.45,15.52h-.84c0-.28,0-.55,0-.83l.84,0Z"/><path class="cls-128" d="M59.55,29.15V28.3l1.68,0c0,.27,0,.55,0,.82Z"/><path class="cls-255" d="M12.74,34.2c0-1.65,0-1.65,1.65-1.67a.32.32,0,0,1,.27.16c.4.93-.52,1.21-.89,1.77a.9.9,0,0,1-.83,0A.48.48,0,0,1,12.74,34.2Z"/><path class="cls-256" d="M11.92,36.8c-.12.65.42,1.61-.82,1.73l-.06-.9c0-.26,0-.53.05-.8A.57.57,0,0,1,11.92,36.8Z"/><path class="cls-257" d="M12.75,35.93l-.82,0c.08-.67-.4-1.61.81-1.76l.06.09a.94.94,0,0,1,.31.84A.73.73,0,0,1,12.75,35.93Z"/><path class="cls-258" d="M14.47,31.71h.87c.25,1,.13,1.07-.82.86l-.13,0C14.42,32.26,14.45,32,14.47,31.71Z"/><path class="cls-259" d="M11.92,36.8l-.83,0c-.08-.62.19-.92.82-.88Z"/><path class="cls-260" d="M44.67,59.76l-.4,0a.76.76,0,0,1-.89.13c-.19-.14-.37-.37-.3-.53.59-1.4,0-3.34,1.87-4.16a.85.85,0,0,1,.91.15l.11.16c0,.14,0,.28,0,.43C46,57.4,46.11,58.84,44.67,59.76Z"/><path class="cls-261" d="M49.32,58l-1.66,0c0-.56,0-1.11,0-1.67,0-.75-.16-1.55.72-2,.12-.06.09-.39.13-.59l.07-.12a.53.53,0,0,1,.66-.08.51.51,0,0,1,.15.23Z"/><path class="cls-262" d="M45.12,53l1.66-.07a1.23,1.23,0,0,1,1.59-.19.67.67,0,0,1,.12,1.07h0c-.64.13-1.61-.39-1.7.86a.77.77,0,0,1-.76.25c-.38-.14-.54-.55-.91-.7a.88.88,0,0,1-.29-.44A.73.73,0,0,1,45.12,53Z"/><path class="cls-260" d="M46,54.68h.85c.05.6-.24.88-.83.86l-.07-.07A.51.51,0,0,1,46,54.68Z"/><path class="cls-263" d="M50.22,53c0,.58-.28.85-.84.85l0,0c-.25-1-.12-1.1.85-.87Z"/><path class="cls-264" d="M29.82,62.3l-.1-.82.12-.17c.81-.51,1.7-.16,2.56-.26H34c.38,0,.76,0,.95.45l0,.79Z"/><path class="cls-265" d="M34.9,61.5l-2.54,0a.63.63,0,0,1,0-1.08,1.94,1.94,0,0,1,.92-.17c.72,0,1.47-.26,2.1.31a.71.71,0,0,1-.11.94Z"/><path class="cls-266" d="M40,60.65c0,.26,0,.53,0,.79l-1.85.07-.7-.08a.68.68,0,0,1-.06-.94c.33-.37.76-.28,1.18-.29S39.67,60,40,60.65Z"/><path class="cls-267" d="M37.46,60.65c0,.26,0,.52-.05.79h-2.1v-.81a.68.68,0,0,1,.49-.33C36.4,60.2,37,59.94,37.46,60.65Z"/><path class="cls-268" d="M45.09,55.51A2.13,2.13,0,0,0,44,57.82c.15.79-.75,1.19-.66,1.94-.07.49-.63.5-.85.85l-.82,0-.45-.08a10.22,10.22,0,0,1,.21-4.19.89.89,0,0,1,.79-.42c.55,0,.8-.33,1.1-.65a1.35,1.35,0,0,1,.9-.17A.81.81,0,0,1,45.09,55.51Z"/><path class="cls-269" d="M42.53,60.61a.72.72,0,0,1,.85-.85l.89,0c0,.27,0,.53-.05.8Z"/><path class="cls-270" d="M41.7,56.41c0,.94,0,1.88,0,2.82a1.82,1.82,0,0,1-.43,1.35L40,60.65l-1.52-.06c-.81-1.08-.55-2.52.72-3.67a3.08,3.08,0,0,0,.62-.68,1.56,1.56,0,0,1,.66-.28,1.1,1.1,0,0,1,1,.17A.49.49,0,0,1,41.7,56.41Z"/><path class="cls-271" d="M21.29,56.39c.09,1.15-.37,2.4.64,3.38H20.45c-.79-1.07-.47-2.22-.23-3.36a.68.68,0,0,1,.93-.17Z"/><path class="cls-272" d="M17,61.48c0-1.4,0-2.8,0-4.2,0-.6.2-1,.84-.92l0,5.11Z"/><path class="cls-273" d="M17.9,56.39v-.85a.61.61,0,0,1,.88-.06.62.62,0,0,1-.05.88h0Z"/><path class="cls-274" d="M20.39,56.38l.06,3.39h-.84l0-3.41.11-.12A.48.48,0,0,1,20.39,56.38Z"/><path class="cls-275" d="M18.72,56.36v-.84l.12-.14a.64.64,0,0,1,.85.14.67.67,0,0,1-.13.85h-.85Z"/><path class="cls-276" d="M16.16,62.29q0-.88.87-.81L17,62.3Z"/><path class="cls-277" d="M10.24,53.81c.63-.06.91.22.84.85h-.83Z"/><path class="cls-278" d="M10.19,53l0,.84-.8,0L9.32,53l.09,0A.51.51,0,0,1,10.19,53Z"/><path class="cls-279" d="M11.06,54.67h.84a.53.53,0,0,1,.21.67.43.43,0,0,1-.22.2l-.78-.06Z"/><path class="cls-280" d="M12.76,55.54v.84l-.79,0-.08-.8.08-.07A.54.54,0,0,1,12.76,55.54Z"/><path class="cls-281" d="M24.06,53.81c1.13.36.55,1.29.58,2s-.57.59-1,.6l-2.33,0,0,0a.67.67,0,0,1,0-1,2,2,0,0,1,1.41-.29c.39,0,.71-.07.74-.54a1,1,0,0,1,.35-.73A.35.35,0,0,1,24.06,53.81Z"/><path class="cls-282" d="M31.47,56.4c-2.53-.1-2.53-.1-2.53-2.68,0-.24,0-.49,0-.73l.1-.15a.72.72,0,0,1,.83,0,.92.92,0,0,1,.36.72c-.08,1,.55,1.47,1.37,1.78a.79.79,0,0,1,.13.83A.53.53,0,0,1,31.47,56.4Z"/><path class="cls-283" d="M28.94,59.78a1,1,0,0,1,1.24-.51c1.08.18,1.28,0,1.3-1.18,0-.56,0-1.13,0-1.69l0-.06a.69.69,0,0,1,.94,0,5.13,5.13,0,0,1,.15,3.39.68.68,0,0,1-.28.3C31.17,60.2,30,60.55,28.94,59.78Z"/><path class="cls-284" d="M24.06,53.81h-.23l-.18-.12c-.51-1.26-.25-1.79,1-2,.62,0,1.24,0,1.86,0,.31,0,.62,0,.93,0,.82.08,1,.37.72,1.24-.88,0-1.76.05-2.65,0A1.23,1.23,0,0,0,24.06,53.81Z"/><path class="cls-285" d="M28.94,59.78l3.37,0a.53.53,0,0,1,0,.84h0c-.31.48-.8.46-1.29.44s-.91,0-1.18.42h-.13C28.4,61.4,29.1,60.39,28.94,59.78Z"/><path class="cls-286" d="M28.11,52.94c-.09-1.29-1.12-.66-1.74-.85a.67.67,0,0,1,0-1,3,3,0,0,1,2.69,0c.36.62.52,1.22-.09,1.8l0,.08Z"/><path class="cls-287" d="M12.78,56.36c.66,0,.85.33.84.92,0,1.4,0,2.81,0,4.22l-.79,0Z"/><path class="cls-288" d="M9.41,51.25c.62,0,.86.3.79.89a.56.56,0,0,1-.81,0h0Z"/><path class="cls-289" d="M9.39,52.11l.81,0c0,.28,0,.56,0,.85l-.78,0Z"/><path class="cls-290" d="M9.42,47.87l.77,0c.09.61-.14.93-.79.89Z"/><path class="cls-291" d="M36.59,52.11c-.28.07-.73,0-.73.41s.49.42.81.43l6.74,0a.67.67,0,0,1,.07.93,3.09,3.09,0,0,1-1.74.32H37.3c-.39,0-.77,0-1.16,0a1.33,1.33,0,0,1-1.5-.89c-.26-.68-1.21-1.07-.87-2,.37-.38.7-.79,1.07-1.17a1.12,1.12,0,0,1,.88,0c.46.29.62.85,1.07,1.13A.72.72,0,0,1,36.59,52.11Z"/><path class="cls-292" d="M42.53,50.38l-.82.07a1,1,0,0,1-.75.36c-.27,0-.55,0-.82,0-.44-.06-.66.2-.83.55a.66.66,0,0,1-.29.17.87.87,0,0,1-.84-.11,1.09,1.09,0,0,0-1-.63.83.83,0,0,1-.84-.51c-.14-.76.2-1.13.95-1.15.56,0,1.11,0,1.67,0a2,2,0,0,0,2-.71,3.88,3.88,0,0,1,2.43,0,.77.77,0,0,1,.35.83,1,1,0,0,1-.12.33C43.28,49.94,42.81,50,42.53,50.38Z"/><path class="cls-293" d="M38.29,51.23l.86.06a.54.54,0,0,1,0,.81H36.59v-.79l.09-.18A1.09,1.09,0,0,1,38.29,51.23Z"/><path class="cls-294" d="M46,48.74v.78l-.83.08a.74.74,0,0,1-.92.08.82.82,0,0,1-.21-.36C44.22,48.16,45,47.93,46,48.74Z"/><path class="cls-295" d="M39.13,52.1l0-.81,0,0a.9.9,0,0,1,.75-.35,1.14,1.14,0,0,1,.81.14.54.54,0,0,1,.19.28C40.74,52.58,39.78,52,39.13,52.1Z"/><path class="cls-296" d="M43.38,53.79l0-.8a.63.63,0,0,1,.19,0l1.52,0c0,.26,0,.53,0,.8A1,1,0,0,1,43.38,53.79Z"/><path class="cls-297" d="M40.86,50.45h.85c.06.62-.27.86-.83.87l-.06-.09A.52.52,0,0,1,40.86,50.45Z"/><path class="cls-298" d="M42.53,50.38c0-.63.28-.87.88-.8a.54.54,0,0,1,0,.81Z"/><path class="cls-299" d="M43.38,50.39l0-.81,0,0a.63.63,0,0,1,.85,0l0,.1a.51.51,0,0,1,0,.78Z"/><path class="cls-300" d="M44.22,50.39l0-.78h.86C45.15,50.23,44.84,50.48,44.22,50.39Z"/><path class="cls-301" d="M48.48,34.27l.06.8-.09.07c-1,.2-1.05.1-.89-.88A.62.62,0,0,1,48.48,34.27Z"/><path class="cls-302" d="M46.84,32.53l.79,0,.07.8a.55.55,0,0,1-.27.25c-.82,0-1-.3-.69-1Z"/><path class="cls-77" d="M47.72,32.53c0-.28,0-.55-.08-.83.32,0,.76-.05.76.44S48,32.51,47.72,32.53Z"/><path class="cls-303" d="M48.48,34.27l-.82,0-.13-.09a.53.53,0,0,1,.08-.71l.09-.08C48.36,33.32,48.56,33.67,48.48,34.27Z"/><path class="cls-304" d="M51.87,45.28l-.8,0c0-1.39,0-2.79,0-4.19,0-.59.19-.94.81-1l.08.11a2,2,0,0,1,0,2.51Z"/><path class="cls-305" d="M48.5,36l0,3.41a1.06,1.06,0,0,1-1,.43c-.66,0-1.33,0-2,0a1.08,1.08,0,0,0-1.1.61.91.91,0,0,1-.52.18,7.25,7.25,0,0,1-1.47.07,1,1,0,0,0-1.07.48c-.24.43-.71.39-1.13.37a2.71,2.71,0,0,0-2,.59c-.58.5-1.35.22-2,.25s-1.54,0-2.31,0c-1.16,0-1.32-.22-1.09-1.39a4.65,4.65,0,0,0,.08-.73,1.46,1.46,0,0,1,.28-1A1.29,1.29,0,0,1,34,39c.8,0,1.61,0,2.41-.1.17,0,.38,0,.52-.08,1.75-1.19,3.73-.55,5.61-.67.61,0,1.11-.11,1.4-.69.4-.28.85-.15,1.28-.18h.95c.59,0,1-.08,1.11-.81s.58-.93,1.23-.46Z"/><path class="cls-306" d="M44.24,40.2c0-.66.35-.85.94-.85,1.1,0,2.2,0,3.3,0,0,.56,0,1.12,0,1.68h0a.72.72,0,0,1-.79.26.74.74,0,0,1-.28-.21c-.33-.69-1-.37-1.48-.46S44.65,40.94,44.24,40.2Z"/><path class="cls-307" d="M51.93,42.78c0-.84,0-1.68,0-2.51l.78,0v2.52Z"/><path class="cls-308" d="M50.19,52.94c-.59,0-.88.27-.85.87h-.85c0-1.37-1.13-.6-1.71-.88,0-.26,0-.52,0-.78l1.63-.06C49.06,52.33,50.14,51.59,50.19,52.94Z"/><path class="cls-309" d="M47.68,41.9l0,.85a.69.69,0,0,1-.89.14,1.35,1.35,0,0,0-1.27-.57c-.91,0-1.82,0-2.74,0a1.28,1.28,0,0,1-1.22-.46c-.06-1,.11-1.19,1-1.23.42,0,.84,0,1.25,0h2.73a1.22,1.22,0,0,1,1.12.43h0A.62.62,0,0,1,47.68,41.9Z"/><path class="cls-310" d="M48.51,43.62c0,.55,0,1.11,0,1.67l-.8,0c-.62-.4-.49-.94-.27-1.5a.61.61,0,0,1,.3-.22Z"/><path class="cls-311" d="M46.83,42.72l.8,0,.06.84,0,0a.7.7,0,0,1-.84.14.66.66,0,0,1-.23-.8A.55.55,0,0,1,46.83,42.72Z"/><path class="cls-168" d="M47.68,41.9c0-.28,0-.57,0-.85h.82C48.54,41.64,48.31,42,47.68,41.9Z"/><path class="cls-312" d="M46.85,43.59l.8,0c0,.56,0,1.12,0,1.68l0,1.67a.68.68,0,0,1-.92.13,3.94,3.94,0,0,1-.17-3.29A.59.59,0,0,1,46.85,43.59Z"/><path class="cls-313" d="M46.77,47h.86c0,.3,0,.6,0,.9l-.06.8-.8.08,0-.11c-.3-.4-1-.31-1.13-.9a.8.8,0,0,1,.22-.85A.69.69,0,0,1,46.77,47Z"/><path class="cls-314" d="M48.49,36c-.36,0-.81,0-.79.49.07,1.32-.79,1.25-1.66,1.21H45.3a.72.72,0,0,1-.19-.83.64.64,0,0,1,.38-.32c.49,0,.93-.1.88-.76,0-.29,0-.58,0-.87.14-.75.49-1.07,1.23-.61l0,0c-.08.61.15.93.79.9Z"/><path class="cls-315" d="M45.91,47.81c.55,0,.94.19.88.84l-.83.09c-.63.13-1.6-.5-1.72.77l-.85,0v-.84a.72.72,0,0,1-.21-.82.81.81,0,0,1,.25-.27,1.79,1.79,0,0,1,.91-.17C44.89,47.47,45.48,47.29,45.91,47.81Z"/><path class="cls-316" d="M57,30.84H58.7l0,.83C58.05,31.55,57,32.19,57,30.84Z"/><path class="cls-317" d="M58.71,30.85l0-.86c.57,0,.88.21.81.82Z"/><path class="cls-318" d="M13.64,44l0-5.51c.89-.29,1.21-.13,1.26.7s0,1.68,0,2.52a6.92,6.92,0,0,1,0,1.64,11.94,11.94,0,0,0,.1,1.46c0,.17.06.38.26.41s.35-.21.37-.42a8.9,8.9,0,0,0,.12-1.46c0-.55-.16-1.11.27-1.58a1,1,0,0,1,.9-.16c.93.7,2.25.86,2.84,2a.93.93,0,0,1-.33,1,1.87,1.87,0,0,1-1.41.14c-.52-.09-.58.23-.57.63,0,.67,0,1.33,0,2A1.46,1.46,0,0,1,16.55,49a1,1,0,0,1-1.41-.5c-.16-.27-.57-.25-.81-.46-1-.84-1.57-1.82-.89-3.14C13.58,44.6,13.88,44.38,13.64,44Z"/><path class="cls-319" d="M14.52,32.58c.62.05.89-.25.82-.86h0a.82.82,0,0,1,.84-.3.59.59,0,0,1,.44.31c.21.72,1.16.88,1.27,1.68a.72.72,0,0,1-.69.43c-.71.05-.94,1.09-1.78.88-.63.07-.54.56-.5.95a1.77,1.77,0,0,1-1.29,2c-1.36,0-.65-1.11-.87-1.72,0-.27,0-.53.05-.8.23-.34.57-.57.79-.91.07-.32,0-.73.46-.82S14.45,32.9,14.52,32.58Z"/><path class="cls-320" d="M13.62,37.65c.06-.23,0-.59.19-.67.74-.45.69-1.15.67-1.84s.21-.92.85-.88a1.19,1.19,0,0,1,.41,1.13q0,2.8,0,5.61c0,.92-.34,1.13-1.26.9,0-.83,0-1.67,0-2.5,0-.59-.21-.93-.85-.89Z"/><path class="cls-55" d="M13.64,44c.41.19.27.52.2.82-.23.93-.52,1.85.54,2.51.1.06.07.33.1.5l-.06.16a1,1,0,0,0-.36.92.85.85,0,0,1-.58.91.9.9,0,0,1-.91-.22c-.27-1.45-.55-2.89.17-4.29v-.86C13.11,44.46,13.48,44.45,13.64,44Z"/><path class="cls-321" d="M11.88,46.17l-.83,0c0-.27,0-.54.07-.8l.78,0,0,0C12.14,45.61,12.2,45.9,11.88,46.17Z"/><path class="cls-322" d="M11.88,46.17l0-.86.82,0,.07,4.22a.63.63,0,0,1,.17.71.45.45,0,0,1-.23.2c-.6,0-.84-.29-.83-.91C12,48.42,11.9,47.3,11.88,46.17Z"/><path class="cls-323" d="M18.76,46.19c0,1.11-.06,2.23,0,3.34,0,.6-.22.91-.82.95a.58.58,0,0,1-.28-.23,1.94,1.94,0,0,1-.17-.92c-.1-1.16,0-2.33,0-3.49a.79.79,0,0,1,1.3-.63A.72.72,0,0,1,18.76,46.19Z"/><path class="cls-324" d="M21.31,50.42l-.07-1.68a1.12,1.12,0,0,1-.33-.91,1.14,1.14,0,0,1,.29-.95.84.84,0,0,1,1,0,1.14,1.14,0,0,1,.34.93c0,.59,0,1.19,0,1.78a1.09,1.09,0,0,1-.29.94A.7.7,0,0,1,21.31,50.42Z"/><path class="cls-325" d="M21.31,50.42l.78,0c.79.81.51,1.71.2,2.6a.83.83,0,0,1-1,.13,1,1,0,0,1-.36-.94,1.13,1.13,0,0,1,.32-.93Z"/><path class="cls-326" d="M16.22,52.16c0,.75-.44.79-1,.82s-.8-.27-.77-.81a.5.5,0,0,1,.18-.27,1.29,1.29,0,0,1,1.42,0A.48.48,0,0,1,16.22,52.16Z"/><path class="cls-327" d="M21.24,51.26v.84a.55.55,0,0,1-.81,0C20.37,51.53,20.61,51.22,21.24,51.26Z"/><path class="cls-328" d="M17.1,51.3c0,.58-.25.91-.88.86l-.09-.08a.69.69,0,0,1-.21-.74.76.76,0,0,1,.2-.27.75.75,0,0,1,.79,0A.51.51,0,0,1,17.1,51.3Z"/><path class="cls-329" d="M14.43,52.17l-.79-.06a.68.68,0,0,1-.2-.82.62.62,0,0,1,.27-.26.75.75,0,0,1,.88.18.65.65,0,0,1-.1.88Z"/><path class="cls-330" d="M13.57,51.31l.07.8c-.63.06-.92-.23-.86-.86C13.06,51.05,13.33,51,13.57,51.31Z"/><path class="cls-331" d="M18.71,54.62a.7.7,0,0,1,.82-.82l.16.08a.68.68,0,0,1,0,.82.66.66,0,0,1-.8.18A.45.45,0,0,1,18.71,54.62Z"/><path class="cls-332" d="M20.44,52.13l.81,0,0,.86-.06.13a.56.56,0,0,1-.67.1.52.52,0,0,1-.18-.23Z"/><path class="cls-333" d="M19.53,53.8c0-.53.21-.9.83-.84a.2.2,0,0,0,.11,0,.72.72,0,0,1,.17.8.64.64,0,0,1-.24.25.69.69,0,0,1-.8-.18Z"/><path class="cls-334" d="M12.76,55.54,12,55.48c0-.26-.05-.53-.07-.8C12.54,54.62,12.82,54.9,12.76,55.54Z"/><path class="cls-335" d="M18.73,55.52l-.84,0c-.09-.63.23-.89.82-.92l0,.08a.58.58,0,0,1,0,.82Z"/><path class="cls-336" d="M21.25,47.88v.85c-.65.05-.88-.28-.8-.88A.55.55,0,0,1,21.25,47.88Z"/><path class="cls-337" d="M13.57,51.31l-.79-.06,0-.79a.47.47,0,0,1,.05-.1.66.66,0,0,1,.9,0,.65.65,0,0,1,0,.9Z"/><path class="cls-338" d="M17.9,50.48c0,.56-.23.84-.8.82a.27.27,0,0,0-.11,0,.69.69,0,0,1-.18-.79.64.64,0,0,1,.24-.25.67.67,0,0,1,.8.17S17.88,50.45,17.9,50.48Z"/><path class="cls-339" d="M18.76,46.19v-.85a.56.56,0,0,1,.71-.28.62.62,0,0,1,.28.17.73.73,0,0,1,.06.79.49.49,0,0,1-.26.19Z"/><path class="cls-340" d="M20.36,47c-.6.06-.8-.28-.82-.81l.06-.08a.69.69,0,0,1,.74-.22.61.61,0,0,1,.26.19.66.66,0,0,1,0,.76A.42.42,0,0,1,20.36,47Z"/><path class="cls-341" d="M21.25,47.88l-.81,0c0-.28-.05-.55-.08-.83l.1,0a.52.52,0,0,1,.79,0Z"/><path class="cls-342" d="M47.63,34.26c-.61,0-.87.25-.85.85a.69.69,0,0,1-1,0,2.18,2.18,0,0,1,.12-2.54l.8,0c0,.59.23.93.87.86Z"/><path class="cls-343" d="M45.94,32.61l0,2.48a.66.66,0,0,1-.87.21.69.69,0,0,1-.27-.29c-.18-.83-.44-1.67.24-2.41l0-.08C45.39,32.54,45.66,32.58,45.94,32.61Z"/><path class="cls-344" d="M42.55,30l.81.05.06.8c.24.31.56.56.81.88l0,.81a1.33,1.33,0,0,1,.24,1.65c-.25.53-.79.52-1.29.49a5.65,5.65,0,0,1-1.88-.12A1.15,1.15,0,0,1,41.05,33a2.47,2.47,0,0,0,.21-1.31c0-.6-.15-1.23.44-1.67Z"/><path class="cls-345" d="M41.28,34.24l1.15,0c1.78,0,1.78,0,1.84-1.73l.8.07c0,.82,0,1.64,0,2.46a.6.6,0,0,1-.55.43A19.27,19.27,0,0,1,40,35.36a.87.87,0,0,1-.27-1,.78.78,0,0,1,.24-.33A.94.94,0,0,1,41.28,34.24Z"/><path class="cls-346" d="M44.23,31.72c-.61,0-.9-.27-.81-.88l.83.07Z"/><path class="cls-347" d="M34.9,28.27l.82.06a10.72,10.72,0,0,1,.86.8c0,.35,0,.71-.4.87s-.43.49-.44.85l-.81,0c-.47-.09-.61-.63-1-.76-.13-.51-.67-.64-1-1a1.64,1.64,0,0,1-.13-.88,1,1,0,0,1,.3-.89.71.71,0,0,1,.92.15C34,28.13,34.28,28.37,34.9,28.27Z"/><path class="cls-207" d="M36.58,29.13c-.63.09-.89-.2-.86-.8l.86,0Z"/><path class="cls-348" d="M34.05,34.26c0,.2,0,.53-.13.58-.88.43-.72,1.22-.75,1.95a2,2,0,0,1-.72,1.11.72.72,0,0,0-.55.78,1,1,0,0,1-.43.89.9.9,0,0,1-.86,0c-.57-.54-.61-1.4-1.13-2a3.61,3.61,0,0,1,.09-2.49,1.1,1.1,0,0,1,.78-.41c.61-.12,1.39.3,1.79-.53.29-.26.72-.34.92-.72l.13-.05C33.81,33.36,34.07,33.67,34.05,34.26Z"/><path class="cls-348" d="M33.2,32.55c0,.28,0,.56,0,.85h0a.7.7,0,0,1-1,0,1.5,1.5,0,0,1,0-1.81.8.8,0,0,1,1,0A.67.67,0,0,1,33.2,32.55Z"/><path class="cls-117" d="M34.12,30c.7-.1.79.36.81.89s-.29.87-.87.87l-.15-.07a.92.92,0,0,1-.25-.77,1,1,0,0,1,.17-.78A.47.47,0,0,1,34.12,30Z"/><path class="cls-108" d="M33.2,32.55l0-.81.09-.14a.58.58,0,0,1,.77,0s0,.08,0,.11C34.1,32.38,33.8,32.62,33.2,32.55Z"/><path class="cls-349" d="M41.7,30v1.69c-.57.84-1.45,1.47-1.68,2.53l0,0c-.91.4-1.15.27-1.72-.9,0-.2,0-.53.14-.58.9-.39.72-1.18.76-1.88A.78.78,0,0,0,40,30Z"/><path class="cls-350" d="M38.27,33.36c.83-.18.9,1.07,1.72.9,0,.28,0,.55,0,.83a3.34,3.34,0,0,1-3.41,0c0-.27,0-.54,0-.81.61,0,.86-.28.83-.86Z"/><path class="cls-351" d="M32.33,37.65c0-.58.24-.88.84-.86H34l.16.06a.68.68,0,0,1,.11.8c-.28.33-.76.48-.89,1a.73.73,0,0,1-.31.17.75.75,0,0,1-.84-.26A.7.7,0,0,1,32.33,37.65Z"/><path class="cls-352" d="M34,36.8c0-.55.26-.91.87-.88l.08.06a.66.66,0,0,1,.18.78.6.6,0,0,1-.25.25.64.64,0,0,1-.78-.2Z"/><path class="cls-353" d="M36.6,35.1H40l5,0,.09.06c.25.94.18,1-.86,1.24-2.49,0-5,0-7.47,0a1.32,1.32,0,0,1-1-.27l-.11-.17c0-.27,0-.53.07-.8Z"/><path class="cls-354" d="M34.91,36.82c0-.28,0-.56,0-.84l.79,0,.09,0a.7.7,0,0,1,0,.92A.65.65,0,0,1,34.91,36.82Z"/><path class="cls-355" d="M33.21,27.48l0,.79a.66.66,0,0,1-.75.24.85.85,0,0,1-.48-.65,5.66,5.66,0,0,0-1.25-2.11h-.1l.06-.8,2.55-.08.8.07a.57.57,0,0,1,0,.84v.8C33.78,26.89,33.45,27.14,33.21,27.48Z"/><path class="cls-356" d="M33.21,27.48c-.08-.63.19-.94.83-.91,0,.31,0,.61,0,.91Z"/><path class="cls-357" d="M34.05,25.77l0-.84.83,0,.09.82Z"/><path class="cls-358" d="M25.52,41.07l0-1.92c1.06-.88,1.37-.87,2.22.1a1.22,1.22,0,0,0,.58.43c.93.21,1.09.87,1,1.68,0,.5.14,1-.19,1.5-.16.18-.46.21-.57.44-.55,1-1.38.85-2.24.51A1.13,1.13,0,0,1,26,43c.17-.62-.44-.79-.68-1.18A.71.71,0,0,1,25.52,41.07Z"/><path class="cls-359" d="M28.94,41.27c0-.65-.13-1.11-.93-1.07-.28,0-.66,0-.69-.35-.14-1.43-1-.89-1.78-.7a2.67,2.67,0,0,1,1.72-1.51c.44-.58,1.06-.39,1.64-.37a1,1,0,0,1,.87.37c1.3.06.71,1.08.87,1.72a.79.79,0,0,1-.09,1.26c-.29.25-.34.69-.73.86A.77.77,0,0,1,28.94,41.27Z"/><path class="cls-360" d="M20.43,33.37c-.25-1.13-.47-2.26.85-2.94A2.09,2.09,0,0,0,23,32.55a1.42,1.42,0,0,0,.08.42c.78,1.4.73,1.47-.93,1.49a.92.92,0,0,1-.92,0C21,34.05,20.57,33.82,20.43,33.37Z"/><path class="cls-361" d="M29.77,37.64H29c-.41-.62-1.32-.17-1.72-.82-.62.07-.91-.23-.91-.83a.52.52,0,0,1,.17-.26c.15-.08.3-.22.47-.18a2.28,2.28,0,0,0,1.93-.72.8.8,0,0,1,.8.15,1.09,1.09,0,0,1,.08.15Z"/><path class="cls-362" d="M25.56,32.53l.8,0c.37.18.4.53.41.88-.07.84.36,1.76-.37,2.51l-.08,0c-.58,0-.8-.3-.79-.85C25.55,34.26,25.55,33.4,25.56,32.53Z"/><path class="cls-363" d="M23,36.82l.05.8a.75.75,0,0,1,.07,1,1.2,1.2,0,0,1-1,.32,1.07,1.07,0,0,1-1-.29,1.81,1.81,0,0,1,0-1.85.92.92,0,0,1,1-.3A1.06,1.06,0,0,1,23,36.82Z"/><path class="cls-348" d="M27.23,36.81c.65.12,1.62-.46,1.72.82H27.26Z"/><path class="cls-364" d="M21.29,34.22c.29.06.6,0,.84.24,0,.48,0,.95,0,1.43a.42.42,0,0,1-.23.26c-.73.17-1-.19-1-.87,0-.29-.06-.59.12-.85A.56.56,0,0,1,21.29,34.22Z"/><path class="cls-365" d="M23.81,37.67c1.35,0,.72,1.06.86,1.7a.72.72,0,0,1-.93.11.93.93,0,0,1-.27-.92A1,1,0,0,1,23.81,37.67Z"/><path class="cls-366" d="M23,36.82l-.81,0a.54.54,0,0,1,0-.8.42.42,0,0,0,0-.1C22.75,35.92,23.07,36.19,23,36.82Z"/><path class="cls-367" d="M23.87,39.35l.8,0c0,.28,0,.56,0,.85a.63.63,0,0,1-.9,0A.58.58,0,0,1,23.87,39.35Z"/><path class="cls-368" d="M23.86,40.22h.8l.08.82a.46.46,0,0,1-.17.24.74.74,0,0,1-.76,0A.61.61,0,0,1,23.6,41a.65.65,0,0,1,.11-.75Z"/><path class="cls-369" d="M23.81,37.67v.87a.55.55,0,0,1-.72.09L23,38.5l0-.88Z"/><path class="cls-370" d="M25.52,41.07l.06.84-.13.15a.68.68,0,0,1-.89-.1.69.69,0,0,1,.08-.89l.1,0Z"/><path class="cls-371" d="M29,28.31c.65.08.86-.28.86-.85,1-.74,1.65-.53,2,.65a2.64,2.64,0,0,1,0,.93c-.14.44-.91.43-.77,1.07,0,.27,0,.53,0,.79.26,1-.75,1.13-1.06,1.73-.49.21-.73.68-1.09,1a1.87,1.87,0,0,1-1.63,0,.66.66,0,0,1-.27-.28,1.39,1.39,0,0,1,.2-1.67l.08-.81a11.2,11.2,0,0,1,.8-.9h0a.94.94,0,0,0,.44-.89.83.83,0,0,1,.45-.77Z"/><path class="cls-372" d="M29,28.33C28.8,29,29.4,30,28.07,30c0-.56,0-1.11,0-1.67Z"/><path class="cls-373" d="M27.19,31.69l0,1.71a.52.52,0,0,1-.81,0l-.06-.81c0-.28,0-.56,0-.85Z"/><path class="cls-374" d="M28.07,30c.1.64-.18.92-.8.9C27.17,30.26,27.39,29.92,28.07,30Z"/><path class="cls-375" d="M31.5,28.31c-.17-1.06-1-.81-1.69-.85,0-.35,0-.72.4-.86s.39-.52.48-.85c.31,0,.63,0,.94,0,.63,0,1.49-.21.8,1-.23.4-.08,1-.1,1.55l-.1.13A.55.55,0,0,1,31.5,28.31Z"/><path class="cls-376" d="M20.43,33.37c.54,0,.89.24.86.85l0,.08c-.45.51-1.38.28-1.65,1.08a1.33,1.33,0,0,1-.86.12c-1.06.27-1.28-.79-1.9-1.21a.72.72,0,0,1,.18-.87l.85,0Z"/><path class="cls-377" d="M16.2,30l1.67,0a.53.53,0,0,1,0,.83l-.79,0a.61.61,0,0,1-.87,0Z"/><path class="cls-378" d="M17.84,30.83l0-.83h0a.59.59,0,0,1,.84,0h.85C19.49,31.31,18.5,30.71,17.84,30.83Z"/><path class="cls-379" d="M16.18,30.86h.87c0,.34,0,.72-.44.85l-.45,0a.6.6,0,0,1,0-.84Z"/><path class="cls-380" d="M18.73,30h-.84c-.06-.62.22-.91.85-.84C18.74,29.45,18.73,29.72,18.73,30Z"/><path class="cls-381" d="M16.17,30.85v.84l-.83,0C15.27,31.09,15.54,30.79,16.17,30.85Z"/><path class="cls-382" d="M13.59,34.22c.08.61-.16.93-.79.91v-.84Z"/><path class="cls-383" d="M45.09,55.51h-.86c-.45-.64-.25-1.06.46-1.23a1.4,1.4,0,0,0,.8-.43c.46.11.45.48.46.84s0,.53-.05.79Z"/><path class="cls-384" d="M45.49,53.84c0,.44-.07.77-.57.81s-.69.38-.69.85l-.82,0-.14-.05a.92.92,0,0,0-.88-.39.86.86,0,0,1-.93-.49.7.7,0,0,1,.24-.75l1.68-.06h1.7Z"/><path class="cls-385" d="M29.85,61.47c-.14-.58.06-.86.68-.84s1.2,0,1.79,0c0,.28,0,.56,0,.84Z"/><path class="cls-386" d="M35.73,60.6l-.41,0-2.14,0a1.08,1.08,0,0,1-.38-.91c0-.88-.28-1.79.24-2.62a4.9,4.9,0,0,1,2.83-.34c.31.12.67,0,1,.28s.38.53.23.73C36.38,58.62,36.41,59.77,35.73,60.6Z"/><path class="cls-387" d="M33.15,59.75l0,.87-.87,0v-.84h0A.57.57,0,0,1,33.15,59.75Z"/><path class="cls-388" d="M35.73,60.6c0-.28,0-.56,0-.84,0-.74-.11-1.51.8-1.87.24-.09.25-.41.28-.65.38-.54,1-.69,1.54-1.13a1.09,1.09,0,0,1,1.64.28,1.07,1.07,0,0,1-.41.9,3.6,3.6,0,0,0-1.1,3.3l-1,.06Z"/><path class="cls-384" d="M43.41,55.53c-.07,1.26-1.09.68-1.71.88v-.08a.65.65,0,0,1,.16-1.06,1.15,1.15,0,0,1,1.51.21Z"/><path class="cls-389" d="M43.36,55.48c-.6.19-1.6-.39-1.67.85l-1.08,0c-1-.66-2.14-.32-3.22-.41s-1.89.13-2.84.08a2.18,2.18,0,0,1-1.48-.42.89.89,0,0,1,0-1c.51-.55,1.18-.42,1.79-.39.78,0,1.55,0,2.32,0H40c.59,0,1.24-.19,1.7.39a5.58,5.58,0,0,0,.82,0C43.25,54.46,43.42,54.84,43.36,55.48Z"/><path class="cls-390" d="M37.64,55.55c1,.06,2.24-.46,3,.8l-.61,0c-.7,0-1.41-.18-1.91.63-.23.38-.84.17-1.27.22l-.88,0c-.37-.75,0-1.12.69-1.23A1.41,1.41,0,0,0,37.64,55.55Z"/><path class="cls-391" d="M21.51,55.51a1.22,1.22,0,0,0-.24.85l-.88,0h-.82v-.86l.06-.14a.88.88,0,0,0,.41-.89c0-.3.2-.48.37-.67l0,0a.69.69,0,0,1,.8-.23.72.72,0,0,1,.27.25C21.7,54.4,22.12,55,21.51,55.51Z"/><path class="cls-392" d="M18.73,55.52l0-.82.8-.08.14.11a.59.59,0,0,1-.12.78h-.84Z"/><path class="cls-393" d="M21.51,55.51l-.23-1.69a.65.65,0,0,1,.79-.24c.37.7,1.27.55,1.74,1.08.1.65-.22.89-.83.86S22,55.51,21.51,55.51Z"/><path class="cls-394" d="M23.81,54.66c-.6-.17-1.64.53-1.66-.82.55-.68,1.11-.56,1.67,0h0Z"/><path class="cls-395" d="M37.22,54.64l-4,0c-.48.22-.4.93-.95,1.1a.81.81,0,0,1-.8-.25,5.93,5.93,0,0,0-.73,0c-.72.06-1-.26-1-1,0-.51,0-1,0-1.55,0-.05,0-.1,0-.14.35-.39.83-.34,1.28-.4.21,0,.44-.08.45-.35s-.18-.29-.35-.33c-.39-.11-.75-.23-.86-.68a4.8,4.8,0,0,1,.1-3.13,1.58,1.58,0,0,1,1.95-.31c.58.42.4,1,.42,1.6s.21.79.75.75c.7.22.94.61.5,1.27a3.17,3.17,0,0,0,3.2,2.57A.54.54,0,0,1,37.22,54.64Z"/><path class="cls-396" d="M29,52.91V51.29a.66.66,0,0,1,.95-.09A1.23,1.23,0,0,1,29.82,53l-.06,0Z"/><path class="cls-397" d="M31.47,55.54h.84a.49.49,0,0,1,.22.67.45.45,0,0,1-.24.19l-.79-.06Z"/><path class="cls-398" d="M33.15,59.75h-.82c0-1.12,0-2.24,0-3.36l.08-.06a.64.64,0,0,1,.9,0,.66.66,0,0,1-.06.9Z"/><path class="cls-399" d="M23.82,53.83H22.15l-.87,0h0a.62.62,0,0,1,0-.87h.86c.59-.43.41-1.06.43-1.63,0-1.06.2-1.23,1.3-1.3a1.26,1.26,0,0,1,.92.25,1.1,1.1,0,0,1,.27.92,1,1,0,0,1-.35.88C23.38,52.16,24,53.19,23.82,53.83Z"/><path class="cls-400" d="M24.69,52.09v-.84a1.12,1.12,0,0,1,1.59-.17l.12.16c0,.28,0,.57,0,.85Z"/><path class="cls-401" d="M29.8,51.31l-.85,0-2.54,0,0,0a1,1,0,0,1-.37-.83,1.69,1.69,0,0,1,.09-1c.5-.55,1-.36,1.48,0,.2.16.41.38.64.15s.22-.8.16-1.21c0-.21-.12-.44-.36-.48s-.29.25-.41.41c-.48.64-1,.75-1.56.08a15.84,15.84,0,0,1,.09-4.56.64.64,0,0,1,.32-.22c.7,0,1.48.17,1.89-.72.05-.11.38-.1.58-.15.38.11.44.41.44.74,0,.5.36.53.73.56a1.39,1.39,0,0,1,.81.4c.16,1.23.54,2.46-.23,3.62l-.05,3.2A.55.55,0,0,1,29.8,51.31Z"/><path class="cls-402" d="M35.73,50.43l-.81,0a.62.62,0,0,1-.41-.64c-.16-.52.26-1.22-.46-1.59a.55.55,0,0,1-.22-.18c-.13-.32-.26-.63-.66-.69a.74.74,0,0,1-.23-.2c0-.51-.57-.57-.82-.89a1.4,1.4,0,0,1-.1-.35c.32-1,.57-1.11,1.91-.81a16,16,0,0,1,2.07,2,3.88,3.88,0,0,1,.17,1.69C36.12,49.35,36.4,50,35.73,50.43Z"/><path class="cls-403" d="M34.88,49.57c0,.27,0,.54,0,.81,0,.58-.24.94-.88.89,0-.6-.27-.87-.85-.85a9.71,9.71,0,0,1-.82-.88l-.07-1.7a.66.66,0,0,1,0-.91.68.68,0,0,1,.91.08h0c.26.31.56.57.83.87h0C34.71,48.24,34.23,49.19,34.88,49.57Z"/><path class="cls-404" d="M35.73,50.43l0-1.73a1.19,1.19,0,0,1,1.72-.11.69.69,0,0,1,0,1c-.58,0-1,.2-.81.88a.53.53,0,0,1,0,.78.2.2,0,0,1,0,.11C36,51.29,35.67,51.06,35.73,50.43Z"/><path class="cls-405" d="M37.22,54.64c0-.27,0-.54,0-.8l2.77,0a.49.49,0,0,1,0,.77Z"/><path class="cls-406" d="M40,54.63l0-.77H41.7l0,.79Z"/><path class="cls-407" d="M43.41,47.89l0,.82-2.51,0-.17-.12a.75.75,0,0,1,.06-1c.54-.45,1.18-.2,1.77-.22A.83.83,0,0,1,43.41,47.89Z"/><path class="cls-408" d="M40.88,48.76c-.15,1.24-1.11.66-1.75.78a.7.7,0,0,1-.11-.92.93.93,0,0,1,.92-.27,1,1,0,0,1,.88.33Z"/><path class="cls-409" d="M36.6,51.21c0-.26,0-.52,0-.78.61.15,1.59-.48,1.65.8Z"/><path class="cls-410" d="M39.16,48.76l0,.78H37.45l-.07-.79a.6.6,0,0,1,.24-.3C38.2,48.24,38.76,48.09,39.16,48.76Z"/><path class="cls-411" d="M40.86,50.45c0,.26,0,.52,0,.78H40a.52.52,0,0,1,.05-.79Z"/><path class="cls-412" d="M40,50.45l-.05.79h-.84C39.1,50.61,39.41,50.36,40,50.45Z"/><path class="cls-413" d="M43.81,41.05c-.41,0-.82,0-1.23,0-.59,0-.92.21-.89.84l-.07.15c-1.11.23-2.07.91-3.19,1.11a1.5,1.5,0,0,0-1.65.72,2,2,0,0,1-.54.09c-1.05,0-2.12.3-3.13-.23a.86.86,0,0,1-.16-.94c.31-.6.87-.44,1.38-.48s1.34.22,1.83-.42c.68,0,1.42.19,1.88-.63.18-.32.65-.19,1-.22.81-.06,1.57.08,2.31-.65.56-.55,1.63-.16,2.48-.2A.59.59,0,0,1,43.81,41.05Z"/><path class="cls-414" d="M44,37.66c-.11.65-.52.86-1.14.85-.91,0-1.83,0-2.75,0a3.47,3.47,0,0,0-2.57.64c-.57.51-1.5.16-2.27.2-.42,0-.84,0-1.27,0a.74.74,0,0,1-.21-.83.69.69,0,0,1,.24-.27A4.72,4.72,0,0,1,35,38a2.65,2.65,0,0,1,2.17-.76c1.9.06,3.8,0,5.7,0C43.28,37.24,43.78,37.13,44,37.66Z"/><path class="cls-415" d="M44,37.66c-2.39,0-4.78,0-7.16,0-.51,0-1,0-1.24.57-.14.29-.48.25-.76.26a.93.93,0,0,1-.32-.84.89.89,0,0,1,.35-.83h0l.82,0A1.39,1.39,0,0,1,37,36.38c2.41,0,4.81,0,7.22,0,.43,0,.87,0,1.12.42,0,.28,0,.56,0,.84Z"/><path class="cls-416" d="M36.16,41.91c0,.64-.39.85-1,.84h-2c-.88.29-1.17.13-1.26-.69a5.78,5.78,0,0,1,0-.93,1.3,1.3,0,0,1,.3-1,.68.68,0,0,1,1,0c.17.54-.55,1.14-.1,1.55s1.14.12,1.72.15S35.71,41.91,36.16,41.91Z"/><path class="cls-417" d="M43.81,41.05c0-.28,0-.56,0-.84h.41c.83,0,1.67,0,2.51,0,.6,0,.94.21.88.86Z"/><path class="cls-418" d="M34,38.51v.85l-.79,0A.37.37,0,0,1,33,39.2a.57.57,0,0,1,.17-.7h0A.57.57,0,0,1,34,38.51Z"/><path class="cls-419" d="M33.18,40.2l-.8,0-.15-.08a.65.65,0,0,1-.1-.78.56.56,0,0,1,.25-.23.64.64,0,0,1,.76.2l.11,0Z"/><path class="cls-420" d="M41.69,41.91c1.4,0,2.8,0,4.2,0,.59,0,.93.19.94.82l0,0c-.1.1-.19.26-.31.27a11.34,11.34,0,0,1-4.85-.12.75.75,0,0,1,.06-1Z"/><path class="cls-421" d="M41.7,42.76h5.09l.06.83-.06,0a1.17,1.17,0,0,1-.93.37,26.24,26.24,0,0,1-3.76.1,1.78,1.78,0,0,1-1.36-.43C40.57,42.64,40.72,42.5,41.7,42.76Z"/><path class="cls-422" d="M46,43.63h.83c0,1.11,0,2.23,0,3.35L46,47c-.39.48-.93.4-1.44.4a1.17,1.17,0,0,0-1.13.4l0,0-.85-.07c-.7-.45-1.54-.77-1.32-1.89.15-.71.61-1.15,1.26-.86a1.4,1.4,0,0,0,1.64-.24C44.7,44.35,45.4,44.09,46,43.63Z"/><path class="cls-423" d="M44.28,47.05H46c0,.26,0,.52-.05.77l-1.67,0A.52.52,0,0,1,44.28,47.05Z"/><path class="cls-424" d="M45.32,36.81l-1.09,0a.57.57,0,0,1,0-.82c.6,0,.88-.26.89-.85l.83,0,.81,0V36c-.25.41-.78.48-1.05.85Z"/><path class="cls-415" d="M45.73,36.8c0-.7.46-.86,1.05-.85C46.88,36.78,46.35,36.85,45.73,36.8Z"/><path class="cls-425" d="M44.28,47.05c0,.26,0,.53,0,.8h-.85C43.36,47.21,43.67,47,44.28,47.05Z"/><path class="cls-426" d="M14.48,41.9c.82,0,.84-.59.84-1.18,0-1.8,0-3.6,0-5.4.51-.58,1.08-.87,1.79-.32a.81.81,0,0,1,.16,1c-.93,1.44-.62,3-.69,4.59,0,.48.06,1-.41,1.34l0,1.71a1,1,0,0,1-1.69,0Z"/><path class="cls-427" d="M16.19,41.9c0-1.2,0-2.4,0-3.59,0-.92-.22-1.92.72-2.6.12-.08.07-.4.09-.6a.57.57,0,0,1,.06-.86c.35,0,.7,0,.83.44s.51.39.84.41a.73.73,0,0,1,.21.83,1.39,1.39,0,0,0-.58,1.43,1.91,1.91,0,0,1-.5,1.64,1.83,1.83,0,0,0-.4,1.38c-.07.53.22,1.16-.42,1.53Z"/><path class="cls-428" d="M17.91,45.32l-.07,4.23c-.23.33-.55.57-.8.88h0a.81.81,0,0,1-.84.25,7.12,7.12,0,0,1-1.68-1.56.82.82,0,0,1-.06-1.22l0,0c.31,0,.66,0,.88.27s.43.7.92.47A1.25,1.25,0,0,0,17,47.41c0-.95,0-1.9,0-2.85,0-.33-.1-.8.39-.84s.42.44.48.76A.61.61,0,0,1,17.91,45.32Z"/><path class="cls-429" d="M17,41.91v-1.7c.69-.48,1.13-.24,1.25.52.07.46.23.69.69.72,1.06.37,1.2.68.87,1.95a.62.62,0,0,1-.3.25C18.8,42.93,17.43,43.11,17,41.91Z"/><path class="cls-430" d="M14.48,43.63l1.69,0c0,.49,0,1,0,1.47a1,1,0,0,1-1.08,1c-.69,0-.59-.56-.6-1S14.48,44.12,14.48,43.63Z"/><path class="cls-431" d="M19.35,44.43c.06-.26.13-.53.19-.79a.35.35,0,0,0,.07-.09.81.81,0,0,1,.91-.15c.7.51,1.35,1.06,1.14,2.08-.09.81-.44,1.14-1.23.68l0,0a11.24,11.24,0,0,0-.82-.87h0A.75.75,0,0,1,19.35,44.43Z"/><path class="cls-432" d="M19.35,44.43c.3.23.2.57.23.88l-.83,0-.84,0c0-.28,0-.56,0-.84Z"/><path class="cls-433" d="M17.05,34.25l-.06.86-1.65.21c0-.35,0-.71,0-1.06.34,0,.69,0,.84-.45s.51-.4.86-.39C17,33.69,17,34,17.05,34.25Z"/><path class="cls-434" d="M14.45,47.89c0,.86.84,1.13,1.31,1.64a1.34,1.34,0,0,1,.43.9.59.59,0,0,1,0,.83h0a1.11,1.11,0,0,1-1.73,0l-.8,0-.05-.8a.62.62,0,0,1,0-.85C13.81,49,13.11,47.92,14.45,47.89Z"/><path class="cls-435" d="M13.59,49.59v.85l-.8-.08v-.81Z"/><path class="cls-436" d="M17,50.43c-.07-.6.16-.92.8-.88v.83Z"/><path class="cls-437" d="M20.43,46.16c.65.06.88-.28.87-.87a1.13,1.13,0,0,0,.37-1.13,1.59,1.59,0,0,1,.51-1.61.87.87,0,0,1,.95.11c.54,1.12.18,2.3.26,3.46a1.1,1.1,0,0,1-.29,1,.72.72,0,0,1-1-.09l-.88,0-.79,0Z"/><path class="cls-438" d="M23.84,50.4c-1,0-.85.72-.86,1.34S23.05,53,22.12,53l0-2.57.06-.83a1.07,1.07,0,0,1,.92-.36C23.92,49.23,24.29,49.55,23.84,50.4Z"/><path class="cls-439" d="M23,49.57h-.8l0-1.68a.68.68,0,0,1,1-.07A1.2,1.2,0,0,1,23,49.57Z"/><path class="cls-440" d="M23,47.85l-.79,0c0-.29,0-.58,0-.88h.81A.52.52,0,0,1,23,47.85Z"/><path class="cls-441" d="M14.45,51.29l1.73,0-.05.81H14.49Z"/><path class="cls-442" d="M16.17,51.26c0-.28,0-.55,0-.83H17l0,.83Z"/><path class="cls-443" d="M20.41,53.81v.84a.56.56,0,0,1-.81.06l-.05-.09c0-.26,0-.52.05-.78Z"/><path class="cls-444" d="M21.26,53c0,.29,0,.58,0,.87h-.83l0-.86Z"/><path class="cls-445" d="M19.58,45.31c.65-.07.93.22.82.87l-.8,0Z"/><path class="cls-446" d="M40,34.22a3.15,3.15,0,0,1-.33-1c0-.31-.77-1.38.57-.78.27.12.48-.05.58-.31.15-.41.5-.45.86-.46.19.9-.45,1.67-.41,2.55Z"/><path class="cls-447" d="M33.19,29.11c.67-.09.93.26.93.88H34a.64.64,0,0,1-.82.16.67.67,0,0,1-.23-.8A.53.53,0,0,1,33.19,29.11Z"/><path class="cls-448" d="M32.33,28.29l.84,0c0,.28,0,.56,0,.84v.07a.69.69,0,0,1-.92,0,.67.67,0,0,1,.06-.92Z"/><path class="cls-449" d="M30.61,44.48l-.78,0a3,3,0,0,1-.07-3.18c.06-.42-.07-.92.52-1.11.38-.12.31-.5.36-.79l.8,0,.16.07a.88.88,0,0,1,.27.77,1.72,1.72,0,0,1-.09.81.74.74,0,0,1-.16.27.76.76,0,0,0-.56.93c0,.52,0,1,0,1.54A.73.73,0,0,1,30.61,44.48Z"/><path class="cls-236" d="M32.37,34.3c-.11,1.27-1.1.66-1.73.8a.71.71,0,0,1-.13-.9A1.35,1.35,0,0,1,32.14,34,.65.65,0,0,1,32.37,34.3Z"/><path class="cls-449" d="M32.33,37.65v.86a.59.59,0,0,1,0,.84h0a.58.58,0,0,1-.83,0l-.06,0C31.63,38.7,31.08,37.7,32.33,37.65Z"/><path class="cls-450" d="M32.38,33.37l.81,0a.73.73,0,0,1-.82.9l-.06-.08a.56.56,0,0,1-.16-.68A.44.44,0,0,1,32.38,33.37Z"/><path class="cls-451" d="M30.63,34.25v.85l-.87,0h0a.67.67,0,0,1-.12-.86.64.64,0,0,1,.85-.13Z"/><path class="cls-452" d="M32.34,31.69c0,.56,0,1.12,0,1.68l-.07.05c-.91.28-1,.21-1.23-.81a2.57,2.57,0,0,1,.29-1.84.78.78,0,0,1,1,0A.66.66,0,0,1,32.34,31.69Z"/><path class="cls-453" d="M32.34,31.69l0-.82a.62.62,0,0,1,.78-.25.67.67,0,0,1,.27.23.65.65,0,0,1-.15.81l-.06.08Z"/><path class="cls-454" d="M33.22,31.66l0-.81a.55.55,0,0,1,.83,0v.81Z"/><path class="cls-455" d="M34,30.83l-.83,0h0a.56.56,0,0,1,0-.83l.8,0C34,30.28,34,30.55,34,30.83Z"/><path class="cls-456" d="M32.33,39.35c0-.28,0-.56,0-.84h.84c0,.28,0,.56,0,.84Z"/><path class="cls-457" d="M34,38.51h-.85c-.07-.6.18-.91.8-.87l.14.09a.58.58,0,0,1-.09.78Z"/><path class="cls-458" d="M34.91,36.82l0,.82a.54.54,0,0,1-.8,0l-.09,0c0-.28,0-.55.08-.83Z"/><path class="cls-459" d="M44.25,36c0,.27,0,.55,0,.82h-8.5c0-.28.05-.56.07-.84Z"/><path class="cls-460" d="M29.76,41.26c0,1.06,0,2.12.07,3.18-1.39,0-.71-1.08-.91-1.7,0-.49,0-1,0-1.47Z"/><path class="cls-461" d="M25.58,41.91c.62,0,.84.29.79.86a.65.65,0,0,1-.91.06.7.7,0,0,1,0-.92Z"/><path class="cls-462" d="M25.56,42.75l.81,0c0,.28.05.56.08.84h-.12a.59.59,0,0,1-.89,0A.61.61,0,0,1,25.56,42.75Z"/><path class="cls-463" d="M26.42,33.37l.81,0h0c.13.19.32.33.44.52s.37.05.55,0a.82.82,0,0,1,.79.28.67.67,0,0,1-.1.88c-.58,1.08-1.6.84-2.54.85C26.41,35.09,26.42,34.23,26.42,33.37Z"/><path class="cls-464" d="M28.94,35.1v-.84l.06-.13a.51.51,0,0,1,.65-.06.39.39,0,0,1,.14.23c0,.27,0,.54,0,.81Z"/><path class="cls-465" d="M22.94,42.79l-.82,0L22,42.7c-.42-.46-.15-1.35-1-1.58a1.22,1.22,0,0,1-.17-.77.84.84,0,0,0-.41-.69.88.88,0,0,1-.2-1.16.62.62,0,0,1,.26-.22.75.75,0,0,1,.81.22l.8,0a.86.86,0,0,1,.46.77.55.55,0,0,0,.43.62,1,1,0,0,1,.22.19,2,2,0,0,0,.62,1h0a.73.73,0,0,1,.25.79C23.7,42.18,23.43,42.62,22.94,42.79Z"/><path class="cls-466" d="M22.11,36c0,.27,0,.53,0,.8l-.88,0a.69.69,0,0,1-1,0,1.43,1.43,0,0,1,0-1.79.74.74,0,0,1,1,.05A.75.75,0,0,0,22.11,36Z"/><path class="cls-467" d="M20.43,36.81h.84l0,1.69h-.81a.65.65,0,0,1-.43-.74,1.05,1.05,0,0,1,.21-.87Z"/><path class="cls-468" d="M23,40.22c-1.24-.08-.7-1.06-.85-1.69l.87,0h0C23.51,39.08,23.63,39.65,23,40.22Z"/><path class="cls-469" d="M21.28,35.1h-.86a.56.56,0,0,1-.84,0c.05-1.34,1-.72,1.68-.8C21.26,34.57,21.27,34.84,21.28,35.1Z"/><path class="cls-470" d="M23,40.22c0-.57,0-1.15,0-1.72l.83,0,.07.81v.87l-.07,0a.53.53,0,0,1-.8,0Z"/><path class="cls-471" d="M23.78,41.92l0-.86h.83l.07.82A1.26,1.26,0,0,1,25,43.42a.81.81,0,0,1-1.16.34A1.24,1.24,0,0,1,23.78,41.92Z"/><path class="cls-472" d="M23,40.2h.8l0,.88Q22.83,41.19,23,40.2Z"/><path class="cls-473" d="M23.86,43.59c1.39,0,.59-1.12.85-1.7l.77,0,.08.84v.84c.7,1,.55,1.64-.51,2a1.18,1.18,0,0,1-.37-.09c-.28-.46-.76-.73-1.08-1.15A.64.64,0,0,1,23.86,43.59Z"/><path class="cls-474" d="M33.2,30l0,.83-.85,0h-.81a.61.61,0,0,1-.85,0v-.81a.8.8,0,0,1,.63-.44c.48.13.64-.45,1.06-.47l.85,0Z"/><path class="cls-475" d="M30.66,30.86h.85c0,.57,0,1.13-.05,1.69a.78.78,0,0,1-.71.36,1.26,1.26,0,0,1-.81-.11.57.57,0,0,1-.21-.25c.1-.34,0-.79.53-.86S30.55,31.15,30.66,30.86Z"/><path class="cls-476" d="M32.35,29.14c0,.61-.26.9-.88.85a.62.62,0,0,1,0-.86c0-.28,0-.55,0-.82h.84Z"/><path class="cls-477" d="M27.25,34.24v-.85l1.63,0,.14.09a.58.58,0,0,1-.1.78v0l-.84,0A.61.61,0,0,1,27.25,34.24Z"/><path class="cls-478" d="M31.46,29.13c0,.28,0,.57,0,.86l-.81.06C30.58,29.44,30.83,29.12,31.46,29.13Z"/><path class="cls-479" d="M28.89,33.37c0-.54.21-.91.84-.82h.13a.7.7,0,0,1,0,.91.62.62,0,0,1-.89,0Z"/><path class="cls-480" d="M19.58,35.1h.84c0,.57,0,1.14,0,1.71h0a.75.75,0,0,1-.74.27.64.64,0,0,1-.28-.15,2.13,2.13,0,0,0-.64-.85l0-.15,0-.83Z"/><path class="cls-481" d="M33.21,57.21l-.06-.82a.56.56,0,0,1,.07-.85h4.42c0,.49-.15.81-.69.81a.94.94,0,0,0-1,.84Z"/><path class="cls-482" d="M33.22,55.54l-.07.85-.78,0-.06-.8c0-.62.25-.94.91-.85Z"/><path class="cls-483" d="M19.6,54.71l.81-.06c.08.63-.21.91-.84.86Z"/><path class="cls-484" d="M30.61,44.48l.06-.88a.68.68,0,0,1,.87-.14.8.8,0,0,1,.35.78c.13.63-.22,1.36.4,1.9l.07,0a.62.62,0,0,1,0,.85c0,.27,0,.54-.07.81l-1.63.22Z"/><path class="cls-485" d="M29.8,51.31l.82-.05,1.05,0c.5,0,.64.32.65.76s0,.87-.62.89-1.25,0-1.88,0C29.82,52.4,29.81,51.85,29.8,51.31Z"/><path class="cls-486" d="M32.37,49.54c.59,0,.86.29.82.88C32.56,50.46,32.28,50.17,32.37,49.54Z"/><path class="cls-487" d="M23,47.85l0-.85.07-.83c.46-.6,1-.49,1.63-.26a.9.9,0,0,1,.28.27,10.69,10.69,0,0,1,.16,3.24,1.15,1.15,0,0,1-.25.89l-.16.09h-.83c0-.61-.3-.87-.89-.83C23,49,23,48.42,23,47.85Z"/><path class="cls-488" d="M26.35,50.43l0,.84-1.67,0,0-.85h0A1,1,0,0,1,26.35,50.43Z"/><path class="cls-489" d="M26.35,50.43l-1.67,0,0-.83a3.55,3.55,0,0,0,0-3.42h0a.58.58,0,0,1,0-.87c1.31-.06.64-1.1.85-1.71l.78,0,.09,4.88a.64.64,0,0,1,0,.86Z"/><path class="cls-490" d="M26.42,49.36V48.5c.78,0,.81-.49.82-1.06,0-.27,0-.59.36-.68s.39.24.59.37c1.07.73.72,1.81.69,2.8,0,.34-.31.45-.62.46s-.82.11-1-.37A.84.84,0,0,0,26.42,49.36Z"/><path class="cls-491" d="M32.29,46.14c-1.32-.1-.62-1.1-.77-1.71.43-.56,1-.4,1.61-.38a1.43,1.43,0,0,1,.93.17.77.77,0,0,1,.21.87.55.55,0,0,1-.27.25C33.36,45.45,32.39,44.86,32.29,46.14Z"/><path class="cls-492" d="M35.72,47A2.42,2.42,0,0,1,34,45.34l.1-.05a1.3,1.3,0,0,1,1.7-.21A1.54,1.54,0,0,1,36,46.79.72.72,0,0,1,35.72,47Z"/><path class="cls-493" d="M37.38,48.76l-1.62-.06c0-.55,0-1.1,0-1.66l0-.07a.73.73,0,0,1,1.21.21c.16.3.49.38.65.65a.72.72,0,0,1-.16.86Z"/><path class="cls-494" d="M34.88,49.57c-1.27-.07-.71-1.06-.85-1.7C35.36,47.91,34.74,48.94,34.88,49.57Z"/><path class="cls-495" d="M32.37,47c0-.29,0-.57,0-.85.64-.09.89.23.83.83Z"/><path class="cls-496" d="M34,47.87c-.62,0-.91-.24-.83-.87C33.82,47,34.1,47.25,34,47.87Z"/><path class="cls-497" d="M46,43.63c.15.78-.65.94-1,1.37s-1.06.59-1.5,1.07a.59.59,0,0,1-.78-.12c-.24-.24-.39-.9-.82-.38a.9.9,0,0,0,.2,1.39.92.92,0,0,1,.49.86l-1.69.09a.8.8,0,0,1-.82.2.71.71,0,0,1-.27-.21c-.41-.83-.19-1.88-.92-2.6a1.1,1.1,0,0,1,.08-.87.84.84,0,0,1,.74-.38,1,1,0,0,0,1-.39l.14,0Z"/><path class="cls-498" d="M40,47.88l.87,0c0,.26,0,.51,0,.77H40A.52.52,0,0,1,40,47.88Z"/><path class="cls-499" d="M40,47.88l0,.8-.81.08-1.7-.07-.08-.81.11-.18a2.07,2.07,0,0,1,2.5.14Z"/><path class="cls-500" d="M33.2,44.41l-1.68,0-.06-.8c-.54-.48-.39-1.09-.36-1.69a1.07,1.07,0,0,1,.37-.89h0a.59.59,0,0,1,.83,0c.19.62-.45,1.66.86,1.72,0,.28,0,.55,0,.83A.57.57,0,0,1,33.2,44.41Z"/><path class="cls-309" d="M41.7,42.76c-.6,0-.92.22-.85.86h0A1,1,0,0,1,40,44a3.41,3.41,0,0,1-1.65-.12.68.68,0,0,1-.28-.25.74.74,0,0,1,.18-.87c.17,0,.43,0,.5-.09.75-1.1,1.89-.7,2.9-.76Z"/><path class="cls-501" d="M33.2,44.41c0-.27,0-.55,0-.82l3.16,0a.74.74,0,0,1,.07,1,2,2,0,0,1-2.39-.14Z"/><path class="cls-309" d="M36.37,44.46v-.85h.42a.91.91,0,0,1,1.48,0l0,0a.72.72,0,0,1,.2.82.57.57,0,0,1-.25.26,1.55,1.55,0,0,1-.9.15C37,44.86,36.58,44.89,36.37,44.46Z"/><path class="cls-501" d="M38.28,43.6H36.8c0-1.14.88-.76,1.49-.84Z"/><path class="cls-502" d="M34.08,37.68l.8,0v.84l-.84,0Z"/><path class="cls-503" d="M32.32,41l-.83,0,0-.83a.51.51,0,0,1,.78,0l.09,0Z"/><path class="cls-504" d="M32.29,40.19l-.78,0c0-.29,0-.57,0-.86l.83,0Z"/><path class="cls-505" d="M20.4,37.68l.09.83h-.12a2.64,2.64,0,0,0-1.22,2.59c.06.36-.18.59-.41.81-.64.05-.89-.28-.87-.88s-.29-.83-.84-.81c0-.73-.13-1.43.68-2,.39-.25.16-.93.16-1.42s.24-.93.87-.91v0c.27.29.57.57.84.86h0A11.38,11.38,0,0,1,20.4,37.68Z"/><path class="cls-506" d="M18.74,41.9c0-.57,0-1.13,0-1.7,0-1.43.17-1.59,1.65-1.7.11.32,0,.73.49.85s.37.52.38.87a1.37,1.37,0,0,0-.44,1.28c0,.7.48,1.55-.38,2.12l-.81-.07C19.46,42.93,19.94,42,18.74,41.9Z"/><path class="cls-507" d="M20.42,43.62c-.09-.93.34-2-.66-2.72-.31-.24-.06-.6.33-.65a8.84,8.84,0,0,1,1.15,0l.07.82c.61.41.17,1.33.81,1.73h0c0,.58,0,1.17,0,1.75s-.26.83-.82.77c0-.34,0-.71-.45-.83S20.47,44,20.42,43.62Z"/><path class="cls-508" d="M24.7,45.3c0,.29,0,.58,0,.87H23c0-1.12-.05-2.25-.07-3.38,0-.53.21-.92.84-.87l.08,1.67v.85a11.37,11.37,0,0,0,.83.87Z"/><path class="cls-509" d="M31.47,41.89c0,.58,0,1.16,0,1.74l-.79,0V41.93A.55.55,0,0,1,31.47,41.89Z"/><path class="cls-510" d="M31.47,41.89l-.81,0c-.1-.64.16-1,.81-.88Z"/><path class="cls-511" d="M30.6,32.58l.86,0c0,.56.26.88.85.87v.8l-1.68,0h0A1,1,0,0,1,30.6,32.58Z"/><path class="cls-512" d="M30.6,32.58c0,.55,0,1.11,0,1.67l-.85,0v-.11a.56.56,0,0,1,0-.81l.1-.82Z"/><path class="cls-513" d="M27.25,34.24l.85,0c-.06.29,0,.73-.41.74S27.26,34.58,27.25,34.24Z"/><path class="cls-514" d="M29.76,33.38l0,.81-.85.05c0-.27,0-.54,0-.81Z"/><path class="cls-515" d="M22.12,42.77c-1.29-.1-.71-1.08-.81-1.73C22.53,41.16,22,42.11,22.12,42.77Z"/><path class="cls-516" d="M20.4,37.68c-.61,0-.87-.28-.82-.88h.86C20.42,37.1,20.41,37.39,20.4,37.68Z"/><path class="cls-517" d="M24.68,45.31c-.63,0-.91-.24-.83-.87C24.45,44.43,24.76,44.68,24.68,45.31Z"/><path class="cls-518" d="M19.57,36.81c-.61,0-.89-.25-.84-.86C19.36,35.89,19.62,36.2,19.57,36.81Z"/><path class="cls-519" d="M24.69,46.16c.41,0,.8.08.81.6,0,.73,0,1.46,0,2.2,0,.51-.38.6-.8.62C24.71,48.44,24.7,47.3,24.69,46.16Z"/><path class="cls-520" d="M36.37,44.46h1.06a.74.74,0,0,1-.14,1.11,1.23,1.23,0,0,1-1.55-.21l-1.64-.07c0-.27,0-.55,0-.83Z"/><path class="cls-521" d="M35.74,45.36l1.48,0c.31-.18.61-.42,1-.24a.67.67,0,0,1,.27.23c.37,1.14-.63,1.73-1,2.56l-.09,0c-.32,0-.66,0-.78-.41s-.49-.45-.84-.5C35.75,46.43,35.75,45.89,35.74,45.36Z"/><path class="cls-522" d="M37.47,47.86c-.07-.76-.2-1.52.68-2,.12-.06.11-.38.15-.58a.56.56,0,0,1,.84,0c.61,0,.87.28.85.88s0,1.1,0,1.65Z"/><path class="cls-523" d="M38.28,44.45c0-.28,0-.56,0-.83l1.68,0a.55.55,0,0,1,0,.83l-.81,0A.6.6,0,0,1,38.28,44.45Z"/><path class="cls-524" d="M40,44.43c0-.28,0-.55,0-.83l.87,0C40.9,44.26,40.6,44.53,40,44.43Z"/><path class="cls-525" d="M38.28,44.45l.88,0c0,.28,0,.55,0,.83H38.3l-.07,0a.61.61,0,0,1,.05-.83Z"/><path class="cls-523" d="M38.28,44.45c0,.28,0,.56-.05.83l-1,0,.21-.85Z"/></g></g></svg>