<svg xmlns="http://www.w3.org/2000/svg" viewBox="0 0 74 74"><defs><style>.cls-1{fill:#1e2223;}.cls-2{fill:#262524;}.cls-3{fill:#383728;}.cls-4{fill:#3e422f;}.cls-5{fill:#3f4332;}.cls-6{fill:#4f5140;}.cls-7{fill:#81806c;}.cls-8{fill:#636358;}.cls-9{fill:#494844;}.cls-10{fill:#1f1e1b;}.cls-11{fill:#232321;}.cls-12{fill:#888678;}.cls-13{fill:#6a695a;}.cls-14{fill:#636157;}.cls-15{fill:#6a6b57;}.cls-16{fill:#77766c;}.cls-17{fill:#42423e;}.cls-18{fill:#1d1d1d;}.cls-19{fill:#808180;}.cls-20{fill:#77786a;}.cls-21{fill:#57564b;}.cls-22{fill:#4a4944;}.cls-23{fill:#717062;}.cls-24{fill:#56544b;}.cls-25{fill:#6c6b67;}.cls-26{fill:#1c1c1c;}.cls-27{fill:#696960;}.cls-28{fill:#6a6a63;}.cls-29{fill:#605c50;}.cls-30{fill:#262626;}.cls-31{fill:#333728;}.cls-32{fill:#393d30;}.cls-33{fill:#4b4835;}.cls-34{fill:#26251e;}.cls-35{fill:#181f15;}.cls-36{fill:#525744;}.cls-37{fill:#474b3a;}.cls-38{fill:#46483a;}.cls-39{fill:#595c4b;}.cls-40{fill:#575a46;}.cls-41{fill:#5e5c4c;}.cls-42{fill:#757560;}.cls-43{fill:#898873;}.cls-44{fill:#939486;}.cls-45{fill:#d9ddc6;}.cls-46{fill:#8e8c78;}.cls-47{fill:#a7a48f;}.cls-48{fill:#b3b2a7;}.cls-49{fill:#656359;}.cls-50{fill:#7f7d69;}.cls-51{fill:#918e7d;}.cls-52{fill:#8a8672;}.cls-53{fill:#494d40;}.cls-54{fill:#969481;}.cls-55{fill:#626056;}.cls-56{fill:#7e7c6d;}.cls-57{fill:#71715c;}.cls-58{fill:#5f624d;}.cls-59{fill:#0d0d0c;}.cls-60{fill:#4c4a3d;}.cls-61{fill:#302e28;}.cls-62{fill:#393832;}.cls-63{fill:#aeaa95;}.cls-64{fill:#c9c6b5;}.cls-65{fill:#c2bfad;}.cls-66{fill:#908e7a;}.cls-67{fill:#4c4b3f;}.cls-68{fill:#848375;}.cls-69{fill:#afaa96;}.cls-70{fill:#a7a388;}.cls-71{fill:#d0ccb8;}.cls-72{fill:#a9a794;}.cls-73{fill:#8a8874;}.cls-74{fill:#737a61;}.cls-75{fill:#e1e8c5;}.cls-76{fill:#bfc3b0;}.cls-77{fill:#9a9a7c;}.cls-78{fill:#b2b28f;}.cls-79{fill:#a9a389;}.cls-80{fill:#b0ac8e;}.cls-81{fill:#c1be9c;}.cls-82{fill:#131410;}.cls-83{fill:#484b3c;}.cls-84{fill:#5b5a44;}.cls-85{fill:#524f3b;}.cls-86{fill:#494838;}.cls-87{fill:#0b130a;}.cls-88{fill:#1b2217;}.cls-89{fill:#8c8975;}.cls-90{fill:#827f6b;}.cls-91{fill:#7c7f76;}.cls-92{fill:#9e9b86;}.cls-93{fill:#48483b;}.cls-94{fill:#aeac9c;}.cls-95{fill:#b5b3a2;}.cls-96{fill:#888472;}.cls-97{fill:#83806e;}.cls-98{fill:#777a66;}.cls-99{fill:#777568;}.cls-100{fill:#adaa8c;}.cls-101{fill:#adaf93;}.cls-102{fill:#ceccb2;}.cls-103{fill:#57534a;}.cls-104{fill:#3b392b;}.cls-105{fill:#7c7866;}.cls-106{fill:#565343;}.cls-107{fill:#ccc8b1;}.cls-108{fill:#bfbba7;}.cls-109{fill:#8e8d7b;}.cls-110{fill:#6f6f59;}.cls-111{fill:#acaa98;}.cls-112{fill:#676552;}.cls-113{fill:#8b8978;}.cls-114{fill:#1e1c15;}.cls-115{fill:#807e6d;}.cls-116{fill:#71705d;}.cls-117{fill:#747160;}.cls-118{fill:#63634c;}.cls-119{fill:#656351;}.cls-120{fill:#777562;}.cls-121{fill:#aeb0a1;}.cls-122{fill:#bdbdae;}.cls-123{fill:#a2a392;}.cls-124{fill:#bdbdaf;}.cls-125{fill:#c6c5b5;}.cls-126{fill:#81856a;}.cls-127{fill:#8c8b76;}.cls-128{fill:#bcbcae;}.cls-129{fill:#939484;}.cls-130{fill:#26241b;}.cls-131{fill:#4e4c3e;}.cls-132{fill:#c0c2b6;}.cls-133{fill:#a4a29a;}</style></defs><title>포_1</title><g id="레이어_2" data-name="레이어 2"><g id="레이어_1-2" data-name="레이어 1"><rect class="cls-1" width="74" height="74" rx="8.33" ry="8.33"/><path class="cls-2" d="M50.09,26.46c-1.65,2.94-4.47,4.93-6.28,7.79a42.59,42.59,0,0,0-3.65,5.9c-.74-.61-1.45-1.35-2.3-.08a1.16,1.16,0,0,1-1.22.38.9.9,0,0,1-.51-.41c-.43-1.3.61-2.06,1.23-2.85,1.56-1.95,2.73-4.17,4.36-6,.8-.92.77-2.18,1.28-3.22,2.36-3,5.21-5.67,7.53-8.76a.92.92,0,0,1,1,.2,6,6,0,0,0,3.37-.55L51,25.05c-.49-.4-.69.11-1,.32-.48.31-1,.06-1.79.17C49.29,25.43,49.64,26,50.09,26.46Z"/><path class="cls-3" d="M59.07,59.54c.68.45,1.91.58,1.66,1.67s-1.44.67-2.23.67q-18.14,0-36.29,0c-.13-.85-.57-1.75.43-2.4a5.5,5.5,0,0,1,2.79,0c5,1.08,10.1.86,15.18.47a2.87,2.87,0,0,0,2.24-1c3.33,0,6.64.39,9.94.74C54.91,59.92,57,58.73,59.07,59.54Z"/><path class="cls-4" d="M22.21,60l1.56.82c-.19.87-1.23.46-1.56,1.07-1.72,0-3.45-.13-5.16,0-2.25.21-3.24-.59-2.87-2.88.63-.8,1.52-.66,2.38-.7s1.91.22,2.68-.56a1.82,1.82,0,0,1,.52-.39,1.72,1.72,0,0,1,.64-.11,1.6,1.6,0,0,1,.86.43A3,3,0,0,1,22.21,60Z"/><path class="cls-5" d="M59.07,59.54a19.12,19.12,0,0,1-7.32.74c-1.85-.26-3.81-.14-5.72-.23a5.14,5.14,0,0,1-3-1c-.57.35-.92.21-1-.45.37-.75,1.19-.76,1.8-1.12,1.67-.89,3.88-.26,5.3-1.87a1,1,0,0,1,1.14.58A2,2,0,0,1,50,58.63a3.94,3.94,0,0,1,3,.26c2,.43,3.17-.68,4.14-2.18A9.84,9.84,0,0,1,59.07,59.54Z"/><path class="cls-6" d="M57.17,56.71c.34,2.66-1,3.53-4.25,2.84a2.46,2.46,0,0,1,0-.26,3.15,3.15,0,0,0-.07-1.06,2.28,2.28,0,0,1-.2-1.12,2.61,2.61,0,0,0,.17-2.31,2.69,2.69,0,0,1,.06-.63c.6-1.08.52-2.58,2-3.13C55.46,53,55.89,55,57.17,56.71Z"/><path class="cls-7" d="M52.87,49.18l.64.76a1,1,0,0,1-.36.57,4.2,4.2,0,0,1-2,.29,2.64,2.64,0,0,0-1.33.28c-.5.3-1.85.19-.65,1.38.28.28-.14.67-.49.88-2-.18-4.1.06-6.09-.56-1-1.57-.13-3,.44-4.38a1,1,0,0,1,.6-.36c1.46,1.13,3,.46,4.51.16.75.13,1.4.59,2.16.66S52,49.08,52.87,49.18Z"/><path class="cls-8" d="M16.57,40.19c1.69,0,2.24-1.76,3.59-2.41,3-1.46,6.11-.76,9.17-.92.93,0,1.87,0,2.8,0,.7,0,1.21-.74,2-.56a1.18,1.18,0,0,1,.3.56,1.55,1.55,0,0,1-.08.64,3.21,3.21,0,0,1-2,1.54,1.62,1.62,0,0,1-1.1-.38l-.44-.37c-.68-.43-1.42-.19-2.14-.25-1.75.22-3.59-.5-5.27.51A2.75,2.75,0,0,1,23,39a5.49,5.49,0,0,0-.83.77c-.29.38-.49.83-.94,1.06a11.64,11.64,0,0,0-1.44.22c-1.14,0-2.08.81-3.21.91a1.22,1.22,0,0,1-.56-.3C15.78,41,16.27,40.63,16.57,40.19Z"/><path class="cls-9" d="M19.86,58.1c.45,1.1-.42.94-1,.95-1.57,0-3.14,0-4.71,0a115.7,115.7,0,0,1-.93-14.29c0-1-.25-2.11,1-2.66.95.88.58,2,.65,3.1.21,3.27-.45,6.58.48,9.82a2.83,2.83,0,0,1,.06.77,4.7,4.7,0,0,0,0,1.06c.08.9.67,1,1.43,1a10.62,10.62,0,0,1,2.7.13Z"/><path class="cls-10" d="M51.91,13.18l1,.91a2.45,2.45,0,0,1,0,1.88c-1.65,1.78-2.09,1.83-4.09.41C48.29,13.43,49.35,12.35,51.91,13.18Z"/><path class="cls-11" d="M37.82,42.07v1l.09.37a10.89,10.89,0,0,1,.21,1.14c.46,2.56-.11,3.09-2.87,2.69A.76.76,0,0,1,35,46.06c1.18-1.43.17-1.89-.95-2.34a1.36,1.36,0,0,1-.32-.59,1.49,1.49,0,0,1,.27-1c.68-.58,1-1.49,1.71-2a.74.74,0,0,1,.65,0l.08.1c.32.42.91.38,1.27.75A.92.92,0,0,1,37.82,42.07Z"/><path class="cls-12" d="M51.91,13.18c-2.61-.25-2.75,1.42-2.58,3.32-.06.07-.13.13-.19.19l-.23,0s-.23,0-.22,0a.53.53,0,0,0-.27.28A2.47,2.47,0,0,1,48,18a1.16,1.16,0,0,1-1.57.1,11.22,11.22,0,0,1,1.41-4.32c1.18-1.07,2.38-2.1,4.14-1.57C53.11,12.52,52.23,12.85,51.91,13.18Z"/><path class="cls-13" d="M40.18,42.5c1.84.91,3.81.29,5.71.44,1.71.14,3.23.48,3.75,2.42a1,1,0,0,1-.55.33,4.56,4.56,0,0,1-2.38-.91,3.94,3.94,0,0,0-2.29-.6,2.46,2.46,0,0,0-2.22.92c-.74.37-1.49.71-2.28.12C39.35,44.25,39.2,43.32,40.18,42.5Z"/><path class="cls-14" d="M41.07,24.54l2.42-4.2c.94-.49.95-2.13,2.42-2a1.45,1.45,0,0,1,.21,1.6c0,.21-.1.43-.16.65-.27.81-1.19,1.25-1.28,2.18A2.6,2.6,0,0,1,44.34,24a1.37,1.37,0,0,1-1,.52,3.35,3.35,0,0,0-.55.11c-.44.16-.75.56-1.23.65a.74.74,0,0,1-.53-.19A.49.49,0,0,1,41.07,24.54Z"/><path class="cls-15" d="M14.63,55.8c-.93-2.89-.26-5.86-.45-8.79-.1-1.63,0-3.27.05-4.9l.9-.52a.6.6,0,0,1,.89-.05l.51,0a.79.79,0,0,1,0,.72c-2,1.78-.89,4.15-1.18,6.26.05,1.78.06,3.56.16,5.34A2,2,0,0,1,14.63,55.8Z"/><path class="cls-16" d="M54.81,17,53.4,18.43c-1.45.41-1.79-.2-1.37-1.5.68-.84.77-1.95,1.3-2.87,1.15-1.41,1,.49,1.48.6A2.58,2.58,0,0,1,54.81,17Z"/><path class="cls-17" d="M34,36.4c-.6.27-1.1,1-1.9.46,2.12-1.68,3.35-4.07,4.95-6.16.38-.49.6-1.11,1.21-1.39a1.25,1.25,0,0,1,.4.94C37.65,32.69,36.56,35.08,34,36.4Z"/><path class="cls-18" d="M37.33,41.12a.94.94,0,0,1-.92-.92c1.22-.35,1.51-1.71,2.54-2.34.58.67,1.28,1.27,1.21,2.29l-.93.5C38.66,41.06,38.14,41.68,37.33,41.12Z"/><path class="cls-19" d="M53.51,49.94l.88.57c-.22,1.73-.7,3.3-2.54,4-.88,0-1.71,0-2.17-1-.09-1-.62-2.09.33-3,.83-.38,1,.39,1.34.78.43.1.52-.31.75-.49s.92-.32,1.24-.72C53.4,50.07,53.45,50,53.51,49.94Z"/><path class="cls-20" d="M40.18,42.5c.1,1-.33,2,.48,2.85,0,.12.06.24.1.36a1.24,1.24,0,0,1-1.71.94,1.22,1.22,0,0,1-.68-.81c1.12-1-.65-1.89-.11-2.86C38.78,42.32,39.21,41.33,40.18,42.5Z"/><path class="cls-21" d="M52.46,17c-.49,1,.13,1.27.94,1.41l-1.91.93-.82.12-.27-.12c-.35-.45-.43-1.09-.95-1.42-.34-.42-.63-.84-.37-1.4l.25,0a2.5,2.5,0,0,0,3.12-.91A1.16,1.16,0,0,1,52.46,17Z"/><path class="cls-22" d="M45.83,18.43c-1,.34-1.21,1.71-2.34,1.91q2.15-3.3,4.31-6.6c-.67,1.35-.51,3-1.48,4.23l-.07.24A.67.67,0,0,1,45.83,18.43Z"/><path class="cls-23" d="M49.13,45.37h.51c1.39,1,1.48,3.12,3.24,3.82a5.54,5.54,0,0,1-2.81.44C49.69,49,50,48,49.31,47.48,49,46.8,48.48,46.13,49.13,45.37Z"/><path class="cls-24" d="M38.25,30.19c0-.29,0-.59,0-.88,1.65-1.17,1.86-3.18,2.78-4.77l.12.63c1.45,1.76-.16,2.93-.84,4.27a2.76,2.76,0,0,1-1.46,1A.73.73,0,0,1,38.25,30.19Z"/><path class="cls-25" d="M52,53.93a9.65,9.65,0,0,0,2.4-3.42l.43.53c-.58,1.05-.44,2.42-1.42,3.3a1.05,1.05,0,0,1-1.31.21A.43.43,0,0,1,52,53.93Z"/><path class="cls-26" d="M50.09,26.46a7.78,7.78,0,0,0-3.4-.45,3.4,3.4,0,0,1,3.4-1,.65.65,0,0,1,0,.95Z"/><path class="cls-13" d="M38.26,43c.26,1,1.68,1.72.44,2.9-1.28-.64-1.35-1.65-.85-2.83l0,0Z"/><path class="cls-27" d="M52.46,17c0-.48,0-1,0-1.43s.29-1,.44-1.5a.93.93,0,0,0,.44,0A4.37,4.37,0,0,1,52.46,17Z"/><path class="cls-18" d="M50.09,26v-.95c.08-.4-.12-1,.47-1s.4.65.48,1Z"/><path class="cls-2" d="M37.33,41.12l1.9-.47c-.11.83-.81,1.08-1.41,1.42C37.66,41.75,37.5,41.43,37.33,41.12Z"/><path class="cls-28" d="M54.81,17V14.66A1.6,1.6,0,0,1,54.81,17Z"/><path class="cls-9" d="M16,41.54l-.89.05a2.89,2.89,0,0,1,1.44-1.4C16.38,40.64,16.2,41.09,16,41.54Z"/><path class="cls-29" d="M34.43,42.49,34,43c-.51,1.13-1.07,2.08-2.43.9-.24-1.5,1.11-2.14,1.73-3.18a10.4,10.4,0,0,1,2-2,4,4,0,0,0,1.43-2.27c.11-.3.26-.57.38-.86a4.9,4.9,0,0,1,.73-1.42c1-1.4,2-2.75,3.1-4.07a3.51,3.51,0,0,1,.44-.42c.6-.49.4-1.34.85-1.91a1.8,1.8,0,0,1,.5-.41l.32-.09a1,1,0,0,1,.6.26.75.75,0,0,1-.16.91A5.69,5.69,0,0,1,42,31.89c-1.93,2.72-3.81,5.47-5.71,8.21l-.41.08C35.28,40.86,35.15,41.86,34.43,42.49Z"/><path class="cls-21" d="M43.47,28.35v-1a1.1,1.1,0,0,1-.14-1.27c.51-1.42,1.11-2.66,2.9-3,1.06-.18,1.36-1.42,2-2.22s1-1.88,2.29-1.61l.19.18C49.15,23.15,45.81,25.34,43.47,28.35Z"/><path class="cls-30" d="M48.18,26.38c-.46,1.41-.93,2-2,2.23C46.33,27.52,46.86,27,48.18,26.38Z"/><path class="cls-31" d="M42.06,58.59l.94.49c.55,1.84-.61,1.92-1.91,1.88-5.68-.16-11.4.52-17-.89A8.94,8.94,0,0,0,22.21,60c-.8-.38-1.05-1.18-1.4-1.9a1.3,1.3,0,0,1,1.45-.89,3.3,3.3,0,0,1,1.33.61c.46.39.77.92,1.51,1,4.42.51,8.85-.08,13.28,0,1.29,0,1.77-1.56,3-1.57a1.23,1.23,0,0,1,.69.27A.82.82,0,0,1,42.06,58.59Z"/><path class="cls-32" d="M20.33,57.65h-.46a1.44,1.44,0,0,1-.07-2.23,4.29,4.29,0,0,0,.76-3,11.86,11.86,0,0,1,.08-1.79,1.81,1.81,0,0,1,.32-.67c.67-.57,1.27-.7,1.7.26a10.94,10.94,0,0,1,0,2c.36-.25-.08-.64,0-1,1.29-2.37,3.07-2.29,4.92.2a1.24,1.24,0,0,1-.11.68c-.15.17-.33.41-.53.41-3-.08-3.48,2.3-4.27,4.37a1.47,1.47,0,0,1-.46.47A18.21,18.21,0,0,0,20.33,57.65Z"/><path class="cls-33" d="M21.26,52.45c.69,2-.9,3.47-1.39,5.2,0,.15,0,.3,0,.45l0,0a.84.84,0,0,1-.95-.4,2.12,2.12,0,0,1-.27-.7C18,53.79,18.36,53.16,21.26,52.45Z"/><path class="cls-34" d="M20.33,57.65c.51-.59,1.22-.45,1.88-.47a.36.36,0,0,1,0,.46l-1.41.47Z"/><path class="cls-35" d="M49.15,55.76c.12,1.41-.5,2-1.93,2a20.3,20.3,0,0,0-3.26.4c-.7.26-1.11-.12-1.44-.66a1.46,1.46,0,0,1-.19-1.64c1.77-.29,3.61-.21,5.28-1a1.83,1.83,0,0,1,1,0,1.44,1.44,0,0,1,.57.37A.54.54,0,0,1,49.15,55.76Z"/><path class="cls-36" d="M49.15,55.76a3,3,0,0,1-.06-.42c.55-1.53,1.67-1.4,2.88-1H53.4v.48a2.06,2.06,0,0,1-.83.72.7.7,0,0,0-.33.59c.14.41.59.61.69,1l.94.94a2.3,2.3,0,0,1-1.47.8c-1.48,0-1.91-1.38-2.76-2.22Z"/><path class="cls-6" d="M49.64,56.7c1.12.36,1.63,1.63,2.81,1.9.45.16.69.43.48.93v0c-1.37-.74-2.81-.14-4.43-.09C49,58.44,50.58,58,49.64,56.7Z"/><path class="cls-37" d="M43,57.19l1,.92c-.53.58-1.23.48-1.9.48,0-.31,0-.62,0-.94C42,56.85,42.43,56.85,43,57.19Z"/><path class="cls-38" d="M51.92,54.88l1.48-.06c.5.92.64,1.77-.47,2.36-1,0-2,0-1.9-1.41C51.44,55.58,51.85,55.41,51.92,54.88Z"/><path class="cls-39" d="M54.42,54.72a1.35,1.35,0,0,1,1.23,1.56C54.76,56.21,54.5,55.7,54.42,54.72Z"/><path class="cls-40" d="M52.93,59.53l-.48-.93a1.67,1.67,0,0,1,1.42-.48A1.56,1.56,0,0,1,52.93,59.53Z"/><path class="cls-41" d="M43.46,48.21c.12,1.51-.67,2.83-.91,4.26a1.68,1.68,0,0,1,.48,1,1.23,1.23,0,0,1-.49,1,.76.76,0,0,1-.71-.15,2,2,0,0,1-.37-2c0-.14.14-.33.09-.43s-.12,0-.15.08a1.22,1.22,0,0,1-1.65.26.87.87,0,0,1-.21-.91,8.91,8.91,0,0,0,.89-4.06,2.53,2.53,0,0,1,.38-1.2c.28-.49.83-.55,1.26-.81a.77.77,0,0,1,.61,0,1.49,1.49,0,0,1,.41.49C43.13,46.57,44.05,47.28,43.46,48.21Z"/><path class="cls-42" d="M50.61,50.61c-.87.79-.39,1.84-.54,2.78a.64.64,0,0,1-.83-.15L49.11,53c-.41-1-1.35-.9-2.17-1.06-.49-.09-.9-.37-.84-.93s.64-1,1-.76c1.38.8,2.65-.17,4-.1a.34.34,0,0,1,.15.32c0,.12,0,.18-.07.18A.42.42,0,0,1,50.61,50.61Z"/><path class="cls-43" d="M48.2,48.68a12.54,12.54,0,0,1-2.14.85c-1,.21-2.11.23-2.11-1.32l.23-.22c.57-.27,1.19-.38,1.75-.69,1.23-.67,2.09-.38,2.41,1.08Z"/><path class="cls-44" d="M42.45,53.47c0-.33.07-.67.1-1a23,23,0,0,1,6.56.48l0,0a.76.76,0,0,1,.17.93,1.21,1.21,0,0,1-.58.33c-1.9.07-3.72-.91-5.65-.43A2.34,2.34,0,0,1,42.45,53.47Z"/><path class="cls-43" d="M50.09,47.25c1.06.8.57,1.58,0,2.37a2.87,2.87,0,0,1-1.87-.94h0A2.67,2.67,0,0,1,50.09,47.25Z"/><path class="cls-45" d="M51,50.55l0-.45,2.29,0c.1.62-.28.85-.79,1a1.27,1.27,0,0,1-.6.21A1.07,1.07,0,0,1,51,50.55Z"/><path class="cls-46" d="M43.46,48.21c-.37-.77-1.09-1.39-.94-2.37.54-.29.95,0,1.34.32a1.49,1.49,0,0,1,.09,2h-.49Z"/><path class="cls-47" d="M21.27,39.22c.37-.45.92-.4,1.41-.5a1.94,1.94,0,0,1,1.91-.59c1.88.59,3.85.14,5.73.61,1.27,1,.29,1.83-.26,2.68A1.61,1.61,0,0,1,29,42.3c-2.12-.07-4.43.46-5.83-1.87A4.39,4.39,0,0,1,21.27,39.22Z"/><path class="cls-48" d="M21.27,39.22H24.1c.45,2.8.35,3-2,3.31A1.58,1.58,0,0,1,21,41.42a1.08,1.08,0,0,1,.13-.77C21.37,40.19,20.82,39.66,21.27,39.22Z"/><path class="cls-49" d="M30.65,39.28l-8-.56,0-.48a1.88,1.88,0,0,1,1.55-.43c1.38-.08,2.77.16,4.15,0a6.33,6.33,0,0,1,2.79.44l.94.46a.48.48,0,0,1-.09.68A1,1,0,0,1,30.65,39.28Z"/><path class="cls-50" d="M38.25,30.19l.5.06a1.09,1.09,0,0,1,.41.88,6.2,6.2,0,0,1-1.27,2.63,7.33,7.33,0,0,0-1.51,2,2.83,2.83,0,0,1-1.72,1.38.92.92,0,0,1-.58-.25c0-.16,0-.32,0-.48Z"/><path class="cls-50" d="M32.12,39.21c0-.16,0-.31,0-.47L34,37.31c.8.46,1.22,1.3,1.88,1.9a4.2,4.2,0,0,0-1.8,1.95c-.81-.15-1.08-1-1.68-1.39A1.12,1.12,0,0,1,32.12,39.21Z"/><path class="cls-51" d="M24.57,38.27l-1.87,0c-.35-1.07.45-.93,1-.93,1.69,0,3.38,0,5.08,0a.42.42,0,0,1,0,.62,7,7,0,0,0-.69.18C26.9,38.32,25.72,37.71,24.57,38.27Z"/><path class="cls-52" d="M35.89,39.21c-1.46.19-2-.54-1.88-1.9a3,3,0,0,1,.07-.43h.46c1.11.94,1.76-1.32,2.86-.42C37.44,37.68,36.46,38.33,35.89,39.21Z"/><path class="cls-53" d="M21.15,40.65l.12.46c.14.83,1.08,2-.9,1.84a1.79,1.79,0,0,1-.76-1.56,1.6,1.6,0,0,1,.18-.68c0-.36-.2-1-.11-1C20.56,39.33,20.51,40.53,21.15,40.65Z"/><path class="cls-54" d="M19.79,40.71a3.59,3.59,0,0,1,.08.35c0,.09-.09.19-.13.29a2.79,2.79,0,0,1-2.88,1.08.92.92,0,0,1-.41-.48c0-.12.06-.24.08-.37C17.52,40.94,18.44,40,19.79,40.71Z"/><path class="cls-55" d="M28.37,37.82l.45,0a2.67,2.67,0,0,1,2.37,0v.46a3.3,3.3,0,0,1-2.8,0c-.13-.09-.18-.19-.14-.29S28.33,37.82,28.37,37.82Z"/><path class="cls-56" d="M31.19,37.82l-2.37,0c0-.15,0-.29,0-.44l2.64.06s.11.16.1.17Z"/><path class="cls-57" d="M19.37,57.19c0,.15,0,.31,0,.46-.67,1.19-1.53.52-2.34.25a6.67,6.67,0,0,1-2.39-1.67c0-.14,0-.29,0-.43,0-.66,0-1.33,0-2,.41-.66,0-2.48,1.81-1.17.37.26.53-.85,1.16-.81,1.3.4.84,1.51,1,2.39A6.72,6.72,0,0,0,19.37,57.19Z"/><path class="cls-58" d="M17.48,57.19c.45.89,1.12.92,1.9.46l.46.48c-2.78,1-4.49.67-5.18-1A3.18,3.18,0,0,1,17.48,57.19Z"/><path class="cls-15" d="M17.48,57.19l-2.82,0c0-.31,0-.62,0-.94C15.53,56.75,16.83,56,17.48,57.19Z"/><path class="cls-59" d="M34,43.5c.89.28,2-1.17,2.67.22.76,1.66-.72,2.27-1.77,3-.64,1-1.61.7-2.52.69a4.43,4.43,0,0,1-2.86-2.33,1.09,1.09,0,0,1,.07-.71,1.34,1.34,0,0,1,1.66-.31C32.36,44.58,33.18,44,34,43.5Z"/><path class="cls-60" d="M32.17,46.73h2.77c1.93.28,3.26,0,2.43-2.46a1.11,1.11,0,0,1,.48-1.22,3.38,3.38,0,0,0,.85,2.83l.51.44c1.06,1.14.72,2.49.56,3.8a1.39,1.39,0,0,1-.42.57c-.75.29-1.23.05-1.33-.76-.07-.55-.08-1.1-.64-1.41-1-.27-2.09-.09-3.12-.29-.82-.42-1.87,0-2.6-.78a.75.75,0,0,1-.11-.68A.4.4,0,0,1,32.17,46.73Z"/><path class="cls-61" d="M34,43.5c-1.13,1.57-2.71,1.13-4.23,1a.83.83,0,0,1,0-1l.26-.25a1.44,1.44,0,0,1,.67-.19.93.93,0,0,1,.84.55c1.06.82,1.62-.28,2.37-.64C34,43.13,34,43.32,34,43.5Z"/><path class="cls-62" d="M34.43,42.49c.31-.89.54-1.84,1.49-2.31C35.71,41.13,35.47,42.07,34.43,42.49Z"/><path class="cls-63" d="M45.38,20.32a1.56,1.56,0,0,1,0-.43c.82-.39.48-1.34.91-1.92h0a1.75,1.75,0,0,0,1.44-.5c1-.32,1.69.34,2.51.58.18,1.46-1.25,1.91-1.83,2.89a1,1,0,0,1-.72-.39.64.64,0,0,0-.68,0A1.31,1.31,0,0,1,45.38,20.32Z"/><path class="cls-64" d="M50,17.93c-.93.71-1.65.38-2.28-.46l0-1.4a.63.63,0,0,1,.94,0l.41.47c.12.57.66.67,1.05.93.15.13.18.24.11.33S50.11,17.93,50,17.93Z"/><path class="cls-65" d="M48.67,16.07h-.94c.06-.43.05-1,.65-.94C48.48,15.13,48.57,15.74,48.67,16.07Z"/><path class="cls-66" d="M44,48.2l-.48-1.88c.34-1.09-1.25-1-1.17-2,.5-1.1,1.48-.44,2.24-.63.89.11,1.83-.24,2.69.24l1.9,1.42,1,1.88c-.12,1.14-.88,1.45-1.89,1.42-.58-.38-.79-2.43-1.93-.3C45.84,49.16,44.72,48.52,44,48.2Z"/><path class="cls-46" d="M44.42,44c-.76,0-1.67-.17-1.87,1a.36.36,0,0,1-.06.51l-.41-.1c-.12-.07-.17-.15-.15-.25s0-.15.08-.15c-.45-2.58,1.58-1,2.41-1.44C44.73,43.64,44.73,43.79,44.42,44Z"/><path class="cls-67" d="M42,44.93a1.76,1.76,0,0,1,.07.4l-.27.94-.69-.43c-.31,0-.34-.29-.46-.48h0C40.82,44.29,41.53,45,42,44.93Z"/><path class="cls-43" d="M44.42,44v-.46c.95.07,2-.29,2.81.46Z"/><path class="cls-68" d="M50,17.93l.09-.46c.92.45.91,1.09.35,1.83A10.83,10.83,0,0,0,48.32,22c-.42.54-.78,1.37-1.33,1.53a4.38,4.38,0,0,0-3.08,2.89,1.45,1.45,0,0,1,0-2.29V22.69a1.09,1.09,0,0,1,.48-.3,3.32,3.32,0,0,0,1.13-.15c.86-.55,1.26-1.9,2.65-1.5C48.89,19.85,49.92,19.18,50,17.93Z"/><path class="cls-69" d="M44.38,22.72a3.15,3.15,0,0,0-.44,0c-.21-1.21,1.05-1.52,1.44-2.37l1.88-.47a1.12,1.12,0,0,1,.93,0v.91c-1.07.51-1.26,1.91-2.39,2.37A1.75,1.75,0,0,0,44.38,22.72Z"/><path class="cls-70" d="M42,30.19l-.4.12c-.66-.25-1.42-.08-2-.51a.46.46,0,0,1,.1-.55c.78-1.26,1.67-2.48,1.52-4.08l.36-.19a1.35,1.35,0,0,1,.52.39,7.26,7.26,0,0,0,.91,2l-.39.52C41.87,28.54,42.71,29.56,42,30.19Z"/><path class="cls-71" d="M43,27.4c-1.36.07-1.46-.8-1.36-1.82.28-.65.35-1.4.94-1.9a.56.56,0,0,1,.42,0c1.2,1.24.64,2.47,0,3.71Z"/><path class="cls-72" d="M43,27.38c.13-1.24.69-2.47,0-3.71l1,.45c0,.76,0,1.52,0,2.29l-.45,1Z"/><path class="cls-12" d="M46.32,18c0,.76.17,1.65-.91,1.92l.42-1.46Z"/><path class="cls-72" d="M42.56,23.68a3.37,3.37,0,0,1-.94,1.9c0-.2,0-.4-.07-.6A1.57,1.57,0,0,1,42.56,23.68Z"/><path class="cls-73" d="M17.45,52l-.59,2.11c-.75-1.43-1.48-1.76-2.18-.31,0-1.87,0-3.74,0-5.61.25-.63.82.71,1-.18a1,1,0,0,1,.38-.44,1,1,0,0,1,.62.09,1.54,1.54,0,0,1,.47.84,8.79,8.79,0,0,0,.37,2.55A2.34,2.34,0,0,1,17.45,52Z"/><path class="cls-54" d="M16,48.15v2c-.65-.68-.53-1.64-1.35-1.93,0-1.16,0-2.33-.09-3.49-.11-1.44.37-2.42,1.85-2.75l.18.21A3.18,3.18,0,0,1,17,44a2.2,2.2,0,0,1-.12.63c-.44.53-.36,1.2-.5,1.81S15.55,47.45,16,48.15Z"/><path class="cls-74" d="M49.2,53.84c0-.3-.05-.6-.07-.91l.94.46c.52.6,1.25.46,1.92.54,0,.13,0,.27,0,.4-1.17-.27-1.9.71-2.88,1a1.66,1.66,0,0,1-.42-.12C48.38,54.58,49,54.3,49.2,53.84Z"/><path class="cls-75" d="M51,50.55,52,51c-.09.9,0,1.92-1.38,1.89,0-.77,0-1.54,0-2.3A2.9,2.9,0,0,0,51,50.55Z"/><path class="cls-76" d="M50.59,52.91c.78-.4,1-1.19,1.38-1.89l.58.09C52,51.77,52.61,53.8,50.59,52.91Z"/><path class="cls-13" d="M40.66,45.36l.46.48v1.4a1.84,1.84,0,0,0-.71,1.38A7,7,0,0,1,40,50.25c-.22.3-.47.5-.86.27,0-1.4,0-2.8,0-4.2A1.67,1.67,0,0,0,40.66,45.36Z"/><path class="cls-77" d="M39.67,29.25l0,.53c.18.85.16,1.55-1,1.35l.06-.88Z"/><path class="cls-78" d="M38.69,31.13c.57-.28.74-.86,1-1.35.65-.15.76-1.36,1.58-1,.28.14.22,1,.31,1.48a23.06,23.06,0,0,1-3.27,4.21.87.87,0,0,1-1.18-.4.82.82,0,0,1,.12-.65A5.79,5.79,0,0,1,38.69,31.13Z"/><path class="cls-79" d="M31.62,43.59l-.88-.17c-.93-2-.59-2.78,1.87-4.19,1.16.13,1.46.93,1.48,1.93A10.55,10.55,0,0,1,31.62,43.59Z"/><path class="cls-80" d="M37.4,36.46c-.58.16-.84.65-1.16,1.11s-.63,1.07-1.23.92c-.86-.23-.4-1-.47-1.61l1.32-1.46a1.31,1.31,0,0,1,.55-.28c.6,0,1,.38,1.32.76Z"/><path class="cls-81" d="M37.73,35.9a1.55,1.55,0,0,1-1.35-.46c-.23-.85.44-1.07,1-1.4l1,.48Z"/><path class="cls-68" d="M42,30.19c.17-.76-.24-1.67.58-2.27C42.35,28.66,42.85,29.6,42,30.19Z"/><path class="cls-82" d="M22.22,57.64c0-.15,0-.31,0-.46h0a2.12,2.12,0,0,1,2.38-1.72c5.12.22,10.24.3,15.36,0a1.38,1.38,0,0,1,1.35.77c-.14,2.14-1.79,2.62-3.4,2.8A36.64,36.64,0,0,1,26.74,59c-1.2-.25-2.53.08-3.58-.83Z"/><path class="cls-34" d="M23.16,58.12c3.83-.29,7.48,1.26,11.34,1A33.82,33.82,0,0,0,39.73,58a1.8,1.8,0,0,0,1.36-1.72l.25-.16a.62.62,0,0,1,.5.24,1.18,1.18,0,0,1,.13.56,1.43,1.43,0,0,1-.39.76c-1.56,1.66-3.41,2-5.7,2-3.59,0-7.18.18-10.78-.06C24,59.51,23.32,59.27,23.16,58.12Z"/><path class="cls-3" d="M41.58,57.65V56.7c.3-.75-.44-2,1.06-2.17a1.18,1.18,0,0,1,.67,0,.64.64,0,0,1,.31.56c-.15.56-.72.42-1.09.62L43,57.19l-1,.46Z"/><path class="cls-34" d="M41.09,56.25c-5.29.67-10.59,0-15.89,0-1.11,0-2.21-.06-3,1,.06-4,1.27-5.22,5.19-5.19,1-.34,1.4.21,1.66,1a1.05,1.05,0,0,1-.25.65,2.59,2.59,0,0,1-1.27.55c2.71-.43,5.41.32,7.85.12a13.87,13.87,0,0,1-2.46-.05c-.86-.16-1.35-.6-.39-1.37a24.91,24.91,0,0,1,6.51-.15c1.9.11,2.57,1.38,2.07,3.45Z"/><path class="cls-83" d="M22.22,50.57c0-.71-.43-.71-.94-.47a1.27,1.27,0,0,1-.64-.87,5.91,5.91,0,0,1-.06-1.11A3,3,0,0,1,20.77,47c.6-.84,1.23-1.27,2-.15.07,1.07.53,1.67,1.71,1.55a3.12,3.12,0,0,1,2.77.7,5.09,5.09,0,0,1,.67.79A1.37,1.37,0,0,1,28,51.56a.42.42,0,0,1-.62,0c-2.16-1.66-3.15-1.67-4.23,0C22.22,51.81,22.63,50.78,22.22,50.57Z"/><path class="cls-84" d="M21.26,49.15c0,.31,0,.63,0,1l0,.46c0,2-2.22,2.27-2.82,3.79-.75-.6-.17-1.76-1-2.34-.13-.16-.25-.33-.37-.49.14-.44,0-1,.28-1.35A5.29,5.29,0,0,1,21.26,49.15Z"/><path class="cls-85" d="M18.43,54.35c0-1.1,0-2.18,1.46-2.38.83-.12.87-1,1.36-1.41,0,.63,0,1.26,0,1.89-.17.26-.29.66-.53.75-2,.82-1.79,2.36-1.36,4A3.4,3.4,0,0,1,18.43,54.35Z"/><path class="cls-86" d="M27.39,51.52h.48a1.31,1.31,0,0,1,.64-.33,2.11,2.11,0,0,1,1.07.28c1.41.48,2.87.21,4.31.29.83,0,1.7-.15,2.41.47a.55.55,0,0,1,0,.75c-1.82.46-3.74-.09-5.57.59a1.88,1.88,0,0,1-1.93-.62L27.4,52C27.4,51.83,27.4,51.68,27.39,51.52Z"/><path class="cls-86" d="M22.22,50.57l.94.94-.24.85C22.17,52,22.27,51.24,22.22,50.57Z"/><path class="cls-87" d="M42.54,55.76l1-.52a3.82,3.82,0,0,1,4-.27l.26.33C46.05,56.09,44.41,57.2,42.54,55.76Z"/><path class="cls-44" d="M49.2,53.84c.65.78-.3.94-.53,1.38l-1,.08.05-.06a5.25,5.25,0,0,0-.49-.33c-.44-.17-1.07-.1-1.09-.82.89-1.07,1.93-.07,2.89-.19Z"/><path class="cls-88" d="M51.92,54.88c.25.39.63.81.23,1.25s-.74-.23-1.12-.36Z"/><path class="cls-3" d="M28.82,52.94c2.51-.25,5.07.48,7.54-.42.84-1,1.91-.71,3-.52.9.58,1.81-.14,2.72,0v2.34c-.33.6,0,1.36-.5,1.92l-.43,0c-.33-2.09-1.47-3-3.65-2.85-1.77.14-3.56,0-5.34,0a2.18,2.18,0,0,1-3.3,0C28.83,53.24,28.82,53.09,28.82,52.94Z"/><path class="cls-89" d="M39.17,52.42l-2.81.1,0-.11c-2.5-.58-5.08.24-7.57-.46l-.44-.48c-.11-.73.41-.91.94-1.07a18.41,18.41,0,0,1,3.15,0c1.83.62,3.71.38,5.58.37l.75,0c.49.14,1.34-.42,1.32.69l-.46.48C39.65,52.29,39.35,52.29,39.17,52.42Z"/><path class="cls-90" d="M40.14,51.49a2.11,2.11,0,0,0-1.5-.52c-.13-.11-.16-.22-.1-.31s.1-.12.15-.12l.48,0,.54-.44a1.77,1.77,0,0,0,0-1.87c.1-.86.73-1,1.41-1C41.53,48.82,40.79,50.15,40.14,51.49Z"/><path class="cls-91" d="M46.31,54.34c.51,0,1,0,1.38.54a10.76,10.76,0,0,1-4.23,0,1.42,1.42,0,0,0-.36-.14c-.22-.09-.52-.06-.54-.41s-.07-.57-.11-.85L43,53.4C44.1,53.71,45.42,53.27,46.31,54.34Z"/><path class="cls-92" d="M42.49,45.43l.06-.51c.55-.24,1.18-.78,1.63-.07S44,46,43.47,46.32l-.95-.48A1.42,1.42,0,0,1,42.49,45.43Z"/><path class="cls-93" d="M39.17,52.42l.51-.45c1.15.28,1.45-.88,2.36-1.5V52A4.9,4.9,0,0,1,39.17,52.42Z"/><path class="cls-93" d="M42.56,54.32l.54.41c-1.18.14-.87,1.43-1.51,2,0-.15,0-.3,0-.44.05-.67-.08-1.39.5-1.92Z"/><path class="cls-94" d="M46.31,54.34c-1.19,0-2.47.29-3.32-.94,2.13-1.1,4.09,0,6.09.5C48.25,54.61,47.09,53.3,46.31,54.34Z"/><path class="cls-95" d="M21.72,42.06c2,0,2.58-1.05,2.38-2.83.55,2.08,1.67,3.07,3.85,2,1-.48.78.31.87.8a1.28,1.28,0,0,1-.1.84,1,1,0,0,1-.44.36,1.22,1.22,0,0,1-.57,0,1.87,1.87,0,0,1-.52-.23,2,2,0,0,0-1.35-.14c-.49.13-.87.5-1.37.61a2.12,2.12,0,0,1-1,0c-.61-.26-1.36-.18-1.82-.79A.56.56,0,0,1,21.72,42.06Z"/><path class="cls-96" d="M32.61,39.23c-.72,1.35-2.16,2.38-1.87,4.19l-.5,0c-1.1-.47-.4-1.65-.93-2.34l1.34-1.84,1.47-.07Z"/><path class="cls-97" d="M29.31,41.12a2.87,2.87,0,0,1,.93,2.34l0,.1A1.27,1.27,0,0,1,28.4,43l.42-1C29,41.72,29.15,41.42,29.31,41.12Z"/><path class="cls-98" d="M21.72,42.06l0,.47c1.14.64,1.06,1.9,1.5,2.9a2.58,2.58,0,0,1,.32,1,1,1,0,0,1-.72,1.08.8.8,0,0,1-.62-.23l-.32-.58-.65.58a.44.44,0,0,1-.57.07c-.8-.92.22-2.14-.51-3.07a2.25,2.25,0,0,1-.26-1,.92.92,0,0,1,.49-.83c1.4.25.6-.89.86-1.36Z"/><path class="cls-99" d="M28.37,37.82a3.39,3.39,0,0,0,0,.45c-1.27.77-2.55-.23-3.82,0C25.76,37.46,27.1,37.91,28.37,37.82Z"/><path class="cls-100" d="M37.34,34l-1,1.4-.52,0a3.24,3.24,0,0,1,1.42-2Z"/><path class="cls-101" d="M20.41,42.47v1a1.71,1.71,0,0,1-.59,2.43,2.17,2.17,0,0,1-2.95-.35,1,1,0,0,1-.35-1.06c0-.16,0-.31,0-.47a5.94,5.94,0,0,0,3.27-2.68,1.13,1.13,0,0,0,.08-.24C20.4,41.4,20.32,42,20.41,42.47Z"/><path class="cls-102" d="M19.79,41.3c.16,3.13-.15,3.38-3.27,2.68-.67-.64-.32-1.23.11-1.81C17.78,42.21,18.49,40.7,19.79,41.3Z"/><path class="cls-103" d="M28.4,43l1.88.52-.47.9a2,2,0,0,0,0,.42,6.46,6.46,0,0,0,1.84,1.95c0,.12,0,.25,0,.37a1.77,1.77,0,0,1-1.56,1,1.53,1.53,0,0,1-1.5-1.38c-.31-.63-.09-1.34-.37-2A2.16,2.16,0,0,1,28,43.54a1.92,1.92,0,0,1,.33-.55Z"/><path class="cls-61" d="M31.64,46.83c-1-.27-1.79-.77-1.84-1.95l2.37,1.85Z"/><path class="cls-104" d="M38.69,50.54c0,.14,0,.29,0,.43a1.42,1.42,0,0,0-.36,0,.61.61,0,0,1-.72.12c-2.23-.12-4.47-.11-6.69-.37-.72-.53-.48-1.07,0-1.6a.73.73,0,0,1,.67-.12c1.13,1.08,2.54.34,3.6.57-1-.14-2.15.29-3.26-.28a1.14,1.14,0,0,1-.38-.54,1.14,1.14,0,0,1,.59-.81,1.49,1.49,0,0,1,.65-.14,10.39,10.39,0,0,0,4.19.21,5.55,5.55,0,0,0,.89-.32C39.51,48.23,38.29,49.64,38.69,50.54Z"/><path class="cls-105" d="M32.62,48.17l-.93.53c-.79.16-1.48.17-1.42-1a1.77,1.77,0,0,1,1.41-.55c.94.2,2-.25,2.83.53C34,48.41,33.28,48.14,32.62,48.17Z"/><path class="cls-106" d="M32.62,48.17c.54-.53,1.24-.38,1.89-.44a8,8,0,0,1,3.3,0l-.47.47a10.79,10.79,0,0,1-4.73,0Z"/><path class="cls-107" d="M48.19,19.83c-.31.13-.61.38-.93,0,0-.38-.61-.93,0-1.08S47.91,19.42,48.19,19.83Z"/><path class="cls-108" d="M44.38,22.72c.69-.64,1.19-.58,1.43.39C45.3,23.11,44.59,23.81,44.38,22.72Z"/><path class="cls-109" d="M16.51,44.45l.5.47a3.23,3.23,0,0,1,.64,1.72,1.52,1.52,0,0,1-.39,1,.55.55,0,0,1-.68.08l-.48,0a1,1,0,0,1,0-1.4C15.67,45.57,15.56,44.88,16.51,44.45Z"/><path class="cls-110" d="M17.49,50.57c-.14.31-.28.63-.41,1a4.71,4.71,0,0,1-.53-2.85.81.81,0,0,1,.94.08,1.36,1.36,0,0,1,.38.56A1.6,1.6,0,0,1,17.49,50.57Z"/><path class="cls-111" d="M16.06,46.33c0,.47,0,.94,0,1.4a3,3,0,0,0-.06.42C15.2,47.53,14.5,46.92,16.06,46.33Z"/><path class="cls-112" d="M17.49,49.15l-.94-.48,0-.92.42-.06a.49.49,0,0,1,.66.1A1,1,0,0,1,17.49,49.15Z"/><path class="cls-113" d="M39.71,48.21c1.23.63.32,1.24,0,1.87Z"/><path class="cls-93" d="M43.46,54.87h4.23c0,.12.06.24.08.36H43.49Z"/><path class="cls-114" d="M28.83,53.4h3.3c2.11,1.1,4.48-.06,6.74.74-.46,1-1.26.61-1.87.65-3.28.21-6.59-.34-9.86.4-.91.21-2.24.11-2.27-1s1.32-.64,2.08-.76A11.78,11.78,0,0,1,28.83,53.4Z"/><path class="cls-115" d="M28.86,44.41c.57.54.38,1.25.43,1.9a1.41,1.41,0,0,0,0,1.66c.5.82.14,1.41-.57,1.88a2.57,2.57,0,0,1-.82.23l-.53.13-.47-.55a5,5,0,0,0-1.74-2.14,2.4,2.4,0,0,1-.45-1.24,1.68,1.68,0,0,1,.19-.66,5.88,5.88,0,0,1,2-1.3A3.09,3.09,0,0,1,28.86,44.41Z"/><path class="cls-116" d="M25.54,47.28c1.28.32,1.37,1.33,1.36,2.38-.68-1.14-2-.67-2.63-.46-2.16.67-2.06-.58-2-2h.44c.76.24.71-.31.69-.74s-.19-.91.24-1.27a.81.81,0,0,1,.61,0,1.13,1.13,0,0,1,.36.81C24.65,46.69,24.84,47.19,25.54,47.28Z"/><path class="cls-117" d="M28.35,49.62c1.45-.78-.49-2.53.94-3.31,0,.68.08,1.35,1,1.44l1.42.94c0,.15,0,.29-.05.44h0a1.3,1.3,0,0,0-.44.06,5.44,5.44,0,0,0-1.48,1.43L29.3,51l-.9.44-.53,0c-.16-.43-.33-.87-.5-1.3,0-.08.07-.17.11-.25A1.32,1.32,0,0,1,28.35,49.62Z"/><path class="cls-110" d="M17.49,49.15V47.74a5.48,5.48,0,0,1,3.31-.49h.47c0,.32,0,.64,0,1a2.46,2.46,0,0,1-3.78.95Z"/><path class="cls-118" d="M17.49,49.15a4.87,4.87,0,0,0,3.78-.95c0,.32,0,.63,0,.95-.92,1.37-2.62.64-3.77,1.42Z"/><path class="cls-119" d="M28.84,52c2.52.27,5.09-.45,7.57.46C33.88,52.3,31.31,53,28.84,52Z"/><path class="cls-119" d="M29.3,51v-.48a1,1,0,0,1,1.41,0c2.39.21,4.82-.32,7.18.39a11.48,11.48,0,0,1-5.31.13Z"/><path class="cls-120" d="M32.59,51.08,37.9,51a1.21,1.21,0,0,1,.38.06A7.67,7.67,0,0,1,32.59,51.08Z"/><path class="cls-121" d="M22.67,45.88l-.92-3.35c.67,0,1.36-.09,1.88.48l.06.31a1.55,1.55,0,0,1-.06,1C23.26,44.78,23.29,45.52,22.67,45.88Z"/><path class="cls-122" d="M24.57,43l1-.93c.7.55,1.63-.1,2.34.45,0,.15,0,.3,0,.45-.67,1.06-1.76.63-2.7.76C24.78,43.64,24.46,43.49,24.57,43Z"/><path class="cls-123" d="M25,43.47c.85-.76,1.91-.35,2.86-.5l.47,0a1.24,1.24,0,0,1-.06.47c-.9,1-1.95.79-3,.34Z"/><path class="cls-124" d="M24.57,43l.43.47h.1a.54.54,0,0,1-.22.7c-.94.18-1.69.15-1.25-1.17h.94Z"/><path class="cls-125" d="M27.87,42.52c-.8,0-1.66.21-2.34-.45C26.33,42.12,27.19,41.85,27.87,42.52Z"/><path class="cls-126" d="M20.79,47.25a2.85,2.85,0,0,1-3.31.49L17,47.69c0-.3,0-.6,0-.91,1.45-.69,3.53-.56,3.79-2.84C21.76,45.05,20.93,46.15,20.79,47.25Z"/><path class="cls-54" d="M20.8,43.94c.18,2.87-1.74,3-3.79,2.84V44.92c2.12,1.14,2.7.89,3.39-1.49Z"/><path class="cls-127" d="M23.66,45.42a8.76,8.76,0,0,1-.17,1.86c-.18.61-.57.76-.82,0l.49-.95a.79.79,0,0,1-.11-.94A.5.5,0,0,1,23.66,45.42Z"/><path class="cls-128" d="M23.19,45.42l0,.89-.49-.43c.06-.67-.09-1.39.48-1.92A1.08,1.08,0,0,1,23.19,45.42Z"/><path class="cls-129" d="M25.09,43.94a2.46,2.46,0,0,1,0-.47h3.17c.19.32.39.63.59.95l-1.9.5c-.4-.12-.8-.25-1.21-.33A1.07,1.07,0,0,1,25.09,43.94Z"/><path class="cls-130" d="M31.64,49.13H38c-1.78,1.4-5,1.27-6.31,0Z"/><path class="cls-60" d="M32.61,48.24l4.73,0A5.59,5.59,0,0,1,32.61,48.24Z"/><path class="cls-131" d="M30.72,50.56H29.31c.19-1,1-1.23,1.89-1.37Z"/><path class="cls-127" d="M25.54,47.28c-.24.35-.38,1.07-.82.92-.92-.31-.56-1.22-.59-1.92a.43.43,0,0,1,.42-.17c.2.08.36.34.63.18Z"/><path class="cls-121" d="M26,44a1,1,0,0,1,1,.95,3.84,3.84,0,0,1-1.87,1c-.37-.37-.24-.76,0-1.15S25.72,44.27,26,44Z"/><path class="cls-132" d="M25.53,44.89c-.15.34-.3.68-.44,1a1.24,1.24,0,0,0,.09.38l-.32.54-.31-.49a2,2,0,0,1-.19-1.43C24.74,44.51,25.12,43.88,25.53,44.89Z"/><path class="cls-133" d="M28.35,49.62l-.87.34c0-.33-.19-.77.29-.86C27.93,49.07,28.15,49.43,28.35,49.62Z"/><path class="cls-95" d="M25.53,44.89c-.32-.36-.62-.1-.93,0-.3,0-.33.26-.49.39a1.65,1.65,0,0,0-.45.11l-.24,0-.23,0c0-.49,0-1,0-1.46l.48-1c.13.87.77,1,1.46.94l.9,0Z"/><path class="cls-121" d="M24.11,45.31c-.07-.24-.36-.51,0-.69.09,0,.31.19.47.3,0,.47,0,.95-.05,1.42l-.42-.06C24.12,46,24.11,45.63,24.11,45.31Z"/></g></g></svg>