<svg xmlns="http://www.w3.org/2000/svg" viewBox="0 0 74 74"><defs><style>.cls-1{fill:#1e2223;}.cls-2{fill:#2e241a;}.cls-3{fill:#2b221c;}.cls-4{fill:#201911;}.cls-5{fill:#352e27;}.cls-6{fill:#504235;}.cls-7{fill:#1e1a17;}.cls-8{fill:#6c5a46;}.cls-9{fill:#3c3834;}.cls-10{fill:#492723;}.cls-11{fill:#7e6956;}.cls-12{fill:#37332d;}.cls-13{fill:#765f48;}.cls-14{fill:#3c342f;}.cls-15{fill:#272825;}.cls-16{fill:#5a3a29;}.cls-17{fill:#313334;}.cls-18{fill:#685d4f;}.cls-19{fill:#834b38;}.cls-20{fill:#84705b;}.cls-21{fill:#8b7a6f;}.cls-22{fill:#36393b;}.cls-23{fill:#2e3437;}.cls-24{fill:#182025;}.cls-25{fill:#68564a;}.cls-26{fill:#4a4747;}.cls-27{fill:#60524d;}.cls-28{fill:#44403e;}.cls-29{fill:#383c3a;}.cls-30{fill:#2c3133;}.cls-31{fill:#3a3e3b;}.cls-32{fill:#2c3231;}.cls-33{fill:#677473;}.cls-34{fill:#3c3e3c;}.cls-35{fill:#31393d;}.cls-36{fill:#57676c;}.cls-37{fill:#3c4544;}.cls-38{fill:#272624;}.cls-39{fill:#2c3232;}.cls-40{fill:#50534d;}.cls-41{fill:#392e27;}.cls-42{fill:#494a47;}.cls-43{fill:#425055;}.cls-44{fill:#28272b;}.cls-45{fill:#2b2829;}.cls-46{fill:#4d332f;}.cls-47{fill:#493f3b;}.cls-48{fill:#252726;}.cls-49{fill:#343d3f;}.cls-50{fill:#493726;}.cls-51{fill:#211910;}.cls-52{fill:#4d4337;}.cls-53{fill:#4e3627;}.cls-54{fill:#442e21;}.cls-55{fill:#3b3027;}.cls-56{fill:#4f2d1d;}.cls-57{fill:#b37853;}.cls-58{fill:#8a5037;}.cls-59{fill:#33261c;}.cls-60{fill:#917e6d;}.cls-61{fill:#68594a;}.cls-62{fill:#746252;}.cls-63{fill:#907059;}.cls-64{fill:#836e58;}.cls-65{fill:#64281b;}.cls-66{fill:#b1876a;}.cls-67{fill:#caa184;}.cls-68{fill:#ac9076;}.cls-69{fill:#caa380;}.cls-70{fill:#a88e74;}.cls-71{fill:#585e07;}.cls-72{fill:#172c0b;}.cls-73{fill:#4eac29;}.cls-74{fill:#747b10;}.cls-75{fill:#b5d321;}.cls-76{fill:#e6a787;}.cls-77{fill:#ca8b61;}.cls-78{fill:#f0bd9f;}.cls-79{fill:#816455;}.cls-80{fill:#7f5c46;}.cls-81{fill:#4b3a36;}.cls-82{fill:#e5a077;}.cls-83{fill:#9c7a68;}.cls-84{fill:#c7927a;}.cls-85{fill:#b9815a;}.cls-86{fill:#89624d;}.cls-87{fill:#141514;}.cls-88{fill:#242422;}.cls-89{fill:#292a27;}.cls-90{fill:#0b0907;}.cls-91{fill:#262522;}.cls-92{fill:#232324;}.cls-93{fill:#2d2d2e;}.cls-94{fill:#484948;}.cls-95{fill:#242423;}.cls-96{fill:#292a28;}.cls-97{fill:#5d3119;}.cls-98{fill:#5c3d2e;}.cls-99{fill:#3c4241;}.cls-100{fill:#48230a;}.cls-101{fill:#54534b;}.cls-102{fill:#57473a;}.cls-103{fill:#563c2a;}.cls-104{fill:#544638;}.cls-105{fill:#60574b;}.cls-106{fill:#7d8d8d;}.cls-107{fill:#758281;}.cls-108{fill:#4c3725;}.cls-109{fill:#1f3d0e;}.cls-110{fill:#505409;}.cls-111{fill:#131211;}.cls-112{fill:#636d6a;}.cls-113{fill:#535c59;}.cls-114{fill:#3f2210;}.cls-115{fill:#6a331e;}.cls-116{fill:#7e4430;}.cls-117{fill:#79533d;}.cls-118{fill:#70523f;}.cls-119{fill:#98755e;}.cls-120{fill:#8c6c54;}.cls-121{fill:#81503d;}.cls-122{fill:#674533;}.cls-123{fill:#734430;}.cls-124{fill:#4b3629;}.cls-125{fill:#5f3d2a;}.cls-126{fill:#643421;}.cls-127{fill:#401504;}.cls-128{fill:#97543a;}.cls-129{fill:#bc987e;}.cls-130{fill:#b18164;}.cls-131{fill:#f5c8ae;}.cls-132{fill:#d4a284;}.cls-133{fill:#d9ab8d;}.cls-134{fill:#d5b79b;}.cls-135{fill:#ebb99b;}.cls-136{fill:#a87b5f;}.cls-137{fill:#4ec129;}.cls-138{fill:#e2f905;}.cls-139{fill:#322a12;}.cls-140{fill:#5fcd31;}.cls-141{fill:#d5f623;}.cls-142{fill:#c67147;}.cls-143{fill:#da967c;}.cls-144{fill:#d98e64;}.cls-145{fill:#e9b69a;}.cls-146{fill:#d47440;}.cls-147{fill:#dd855e;}.cls-148{fill:#86462b;}.cls-149{fill:#c2603f;}.cls-150{fill:#d88b5a;}.cls-151{fill:#e89e77;}.cls-152{fill:#a37653;}.cls-153{fill:#b07143;}.cls-154{fill:#521e02;}.cls-155{fill:#733f27;}.cls-156{fill:#672f0c;}.cls-157{fill:#4f3b2b;}.cls-158{fill:#8e4d21;}.cls-159{fill:#aa8064;}.cls-160{fill:#57544b;}.cls-161{fill:#5e574d;}.cls-162{fill:#5c5850;}.cls-163{fill:#595b51;}.cls-164{fill:#37861b;}.cls-165{fill:#112908;}.cls-166{fill:#6c7473;}.cls-167{fill:#707b78;}.cls-168{fill:#90a0a7;}.cls-169{fill:#56605e;}.cls-170{fill:#494f4e;}.cls-171{fill:#e3fb04;}.cls-172{fill:#c6ef16;}.cls-173{fill:#6fcc27;}.cls-174{fill:#4a504f;}.cls-175{fill:#2c2f2c;}.cls-176{fill:#252624;}.cls-177{fill:#4a5051;}.cls-178{fill:#303837;}.cls-179{fill:#461802;}.cls-180{fill:#573724;}.cls-181{fill:#412917;}.cls-182{fill:#5e4639;}.cls-183{fill:#533826;}.cls-184{fill:#926751;}.cls-185{fill:#ab765d;}.cls-186{fill:#b8917a;}.cls-187{fill:#c6967b;}.cls-188{fill:#8b5a41;}.cls-189{fill:#85543d;}.cls-190{fill:#804a38;}.cls-191{fill:#632e1e;}.cls-192{fill:#523625;}.cls-193{fill:#77442e;}.cls-194{fill:#6b3e28;}.cls-195{fill:#57351d;}.cls-196{fill:#dca788;}.cls-197{fill:#865336;}.cls-198{fill:#4e2c1c;}.cls-199{fill:#45b923;}.cls-200{fill:#3a971d;}.cls-201{fill:#18180c;}.cls-202{fill:#37851b;}.cls-203{fill:#6cce29;}.cls-204{fill:#74533b;}.cls-205{fill:#765738;}.cls-206{fill:#af5634;}.cls-207{fill:#be8552;}.cls-208{fill:#c38b66;}.cls-209{fill:#c68168;}.cls-210{fill:#dea18b;}.cls-211{fill:#8d4124;}.cls-212{fill:#a36548;}.cls-213{fill:#c18d7a;}.cls-214{fill:#8b5848;}.cls-215{fill:#d7a27a;}.cls-216{fill:#b6855d;}.cls-217{fill:#80532d;}.cls-218{fill:#6d3a18;}.cls-219{fill:#676b6a;}.cls-220{fill:#452e1d;}.cls-221{fill:#745039;}.cls-222{fill:#aa8168;}.cls-223{fill:#71716c;}.cls-224{fill:#755037;}.cls-225{fill:#d2a78c;}.cls-226{fill:#8b5c39;}.cls-227{fill:#7e8b8d;}.cls-228{fill:#311500;}.cls-229{fill:#43230c;}.cls-230{fill:#61361c;}.cls-231{fill:#6b4227;}.cls-232{fill:#4e311d;}.cls-233{fill:#c28f73;}.cls-234{fill:#b87f63;}.cls-235{fill:#76391d;}.cls-236{fill:#561302;}.cls-237{fill:#b87553;}.cls-238{fill:#956354;}.cls-239{fill:#b58471;}.cls-240{fill:#995d41;}.cls-241{fill:#632910;}.cls-242{fill:#3e1c0e;}.cls-243{fill:#5a2410;}.cls-244{fill:#772d15;}.cls-245{fill:#7c482f;}.cls-246{fill:#7b4933;}.cls-247{fill:#4b260e;}.cls-248{fill:#d18d67;}.cls-249{fill:#34170b;}.cls-250{fill:#79391f;}.cls-251{fill:#59402e;}.cls-252{fill:#45301e;}.cls-253{fill:#9b6942;}.cls-254{fill:#ae7347;}.cls-255{fill:#8c3921;}.cls-256{fill:#644324;}.cls-257{fill:#9a6d3d;}.cls-258{fill:#a35740;}.cls-259{fill:#cd8770;}.cls-260{fill:#c9816c;}.cls-261{fill:#652107;}.cls-262{fill:#762300;}.cls-263{fill:#d6aa95;}.cls-264{fill:#6b3628;}.cls-265{fill:#c38358;}.cls-266{fill:#c28f6b;}.cls-267{fill:#e7b799;}.cls-268{fill:#956640;}.cls-269{fill:#7c4f30;}.cls-270{fill:#6e4127;}.cls-271{fill:#af856e;}.cls-272{fill:#e2b49c;}.cls-273{fill:#b68d77;}.cls-274{fill:#ba8865;}.cls-275{fill:#502a10;}.cls-276{fill:#523219;}.cls-277{fill:#472a13;}.cls-278{fill:#735035;}.cls-279{fill:#632516;}.cls-280{fill:#8c382c;}.cls-281{fill:#935e38;}.cls-282{fill:#976949;}.cls-283{fill:#87461c;}.cls-284{fill:#ac5040;}.cls-285{fill:#9d6a4d;}.cls-286{fill:#491804;}.cls-287{fill:#ebc5af;}.cls-288{fill:#ce967c;}.cls-289{fill:#713d1c;}.cls-290{fill:#a7604e;}.cls-291{fill:#b28d75;}.cls-292{fill:#9b7555;}.cls-293{fill:#985d2f;}.cls-294{fill:#bf906f;}.cls-295{fill:#d1a68e;}.cls-296{fill:#b68a6c;}.cls-297{fill:#7a5437;}.cls-298{fill:#97745a;}.cls-299{fill:#9a3d1d;}</style></defs><title>승무원_1</title><g id="레이어_2" data-name="레이어 2"><g id="레이어_1-2" data-name="레이어 1"><rect class="cls-1" width="74" height="74" rx="8.33" ry="8.33"/><path class="cls-2" d="M44.63,10.24l.55.17a.92.92,0,0,1,.77,1c0,.45,0,.89-.07,1.34-.05.78.45,1.09,1.15.73a3,3,0,0,0,.36-.26A1.91,1.91,0,0,1,50.5,14a1.61,1.61,0,0,1-.29,1.65.77.77,0,0,0,0,1A.86.86,0,0,1,50,18a.82.82,0,0,1-.83,0A4.3,4.3,0,0,0,48,16.87c-1-.66-1.78-1.49-3.17-1.39-2,.14-3.94,0-5.92,0a7.59,7.59,0,0,1-1.07-.07.78.78,0,0,1-.69-.61.71.71,0,0,1,.32-.86,1.18,1.18,0,0,0,.62-.71c.62-.5.67-1.33,1.1-1.95a1.35,1.35,0,0,1,.83-.19c.91,0,1.79-.22,2.56.6.5.53,1.37.13,1.58-.6C44.27,10.8,44.2,10.39,44.63,10.24Z"/><path class="cls-3" d="M57.2,30.35v.92c-.38.5-.94.39-1.45.42s-.85,0-.83.63a1.07,1.07,0,0,1-.29.87,1.65,1.65,0,0,1-1,.21,1.87,1.87,0,0,1-1-.15c-.1-.06-.24-.13-.24-.24-.14-2-.82-4,.57-5.87a1.9,1.9,0,0,1,.86-.75,1.72,1.72,0,0,0,.71-2.77,1.94,1.94,0,0,1-.51-1.19A2.6,2.6,0,0,0,51.69,20a2,2,0,0,1-.92-.31.8.8,0,0,1-.23-1,.94.94,0,0,1,1-.41,2.93,2.93,0,0,0,2.25-.73c.78-.06,2,.91,2,1.7a5.55,5.55,0,0,0,.87,3,.66.66,0,0,1,.54.73,3.69,3.69,0,0,0-.4,2.66,3,3,0,0,1-.47,2.12,2.53,2.53,0,0,0-.35.62c-.12.4-.37.8-.27,1.2s.66.27,1,.39A1.3,1.3,0,0,1,57.2,30.35Z"/><path class="cls-4" d="M56.66,22.26a2.22,2.22,0,0,1-1.24-2.37A1.9,1.9,0,0,0,54,17.77c-1.31-1.13-2.52-2.39-3.77-3.59-1-1.25-1.66-1.35-2.77-.33a1.52,1.52,0,0,1-1.67.22c-.53-.22-.42-.8-.36-1.27.09-.81.4-1.64-.22-2.39a3.8,3.8,0,0,1,2.47.79,20.8,20.8,0,0,0,2.91,1.68A14.83,14.83,0,0,1,54.14,16,9.5,9.5,0,0,1,56.66,22.26Z"/><path class="cls-5" d="M44.63,10.24v.44c0,1.53-.75,2.09-2.22,1.68-.11,0-.28-.08-.31-.15-.36-1.06-1.26-.64-2-.73A1.29,1.29,0,0,1,40,9.74a.26.26,0,0,1,.32-.05h3.45C44.17,9.7,44.58,9.69,44.63,10.24Z"/><path class="cls-6" d="M39.28,11.53c0,.3,0,.59,0,.89,0,.64-.28.91-.9.87a9.2,9.2,0,0,1-.72.67c-.72.53-1.1.39-1.42-.49a3.12,3.12,0,0,0-.09-.8c-.12-.61-.46-.85-1-.5a1.34,1.34,0,0,1-1.27.09,1.52,1.52,0,0,0-1.1-.41.85.85,0,0,1-.84-.31.73.73,0,0,1,.18-.94l.87,0a1.15,1.15,0,0,1,.78-.39,16.65,16.65,0,0,1,3.46.08l.27.1s.12.06.13.1c.18.63.48,1,1.2.7.13-.06.27.06.39.14A.42.42,0,0,1,39.28,11.53Z"/><path class="cls-7" d="M57.2,30.35a17.65,17.65,0,0,1-1.78-.07c-.49-.07-.71-.3-.37-.87.48-.8.84-1.68,1.24-2.53a2.54,2.54,0,0,0,.07-1.31c0-.95-.34-2,.84-2.58Z"/><path class="cls-8" d="M27.55,16l0-.86c.64-.87,1.23-1.78,1.79-2.7l.87,0c.74.81.47,1.77.42,2.7-.81.81-1.56,1.78-2.93,1.14A.5.5,0,0,1,27.55,16Z"/><path class="cls-9" d="M24.89,20.48c0-.75-.25-1.53.72-2.05.4-.21.16-1,.16-1.51,0-.67.22-1,.93-.91.72,1.1.41,2.27.22,3.43-.35.43-.87.71-1.16,1.21A.67.67,0,0,1,24.89,20.48Z"/><path class="cls-10" d="M57.93,33l.16,0a1.67,1.67,0,0,1,.44,1.31,29.51,29.51,0,0,1-.07,3.39c-.07.88-.36,1.08-1.3.84a.79.79,0,0,1-.34-.69,34.62,34.62,0,0,1,0-4.2.9.9,0,0,1,.25-.56l.15-.1Z"/><path class="cls-11" d="M30.43,15.06a13.57,13.57,0,0,1-.18-2.7l0-.85a.7.7,0,0,1,.85-.24c.57.54.46,1.48,1.14,2a1,1,0,0,1-.41,1.46c-.24.14-.26.47-.51.61A.66.66,0,0,1,30.43,15.06Z"/><path class="cls-12" d="M37.42,10.57H32.94c0-.65.25-.91.91-.89,1,0,1.91,0,2.87,0a.68.68,0,0,1,.81,0A.59.59,0,0,1,37.42,10.57Z"/><path class="cls-13" d="M26.65,19.51c0-1.17,0-2.33.05-3.5l.85-.05a.22.22,0,0,1,.05.08c.43.3.33.76.34,1.19a7.7,7.7,0,0,1,0,1.44,1.5,1.5,0,0,1-.2.93.7.7,0,0,1-.89.17A.49.49,0,0,1,26.65,19.51Z"/><path class="cls-14" d="M29.38,12.4c.34,1.13-.51,1.76-1.05,2.52-.17.24-.49.15-.74.18-.41-1.15.5-1.78,1-2.55C28.8,12.31,29.12,12.41,29.38,12.4Z"/><path class="cls-15" d="M37.45,9.7l-.73,0a2.51,2.51,0,0,1,3.18-.82.94.94,0,0,1,.43.83l-.22,0A2.3,2.3,0,0,1,37.45,9.7Z"/><path class="cls-16" d="M54.52,32.16c-.09-.7.23-1,.91-.92s1.17,0,1.76,0c0,.3,0,.59,0,.89a1,1,0,0,1-.91.35C55.66,32.52,55,32.73,54.52,32.16Z"/><path class="cls-17" d="M31.17,11.52h-.89c-.1-.7.23-1,.91-.92.29,0,.58,0,.88,0,0,.28,0,.57,0,.85C31.79,11.81,31.48,11.76,31.17,11.52Z"/><path class="cls-18" d="M24.89,20.48l.84,0,.15.06c.3.25.25.6.25.93s.05.72-.29,1a.69.69,0,0,1-1-.16c0-.48,0-1,0-1.43Z"/><path class="cls-19" d="M56.29,32.16h.89c0,.29,0,.59,0,.88h0a.65.65,0,0,1-1,.09A.67.67,0,0,1,56.29,32.16Z"/><path class="cls-20" d="M24.87,22.26h.88c.48.22.43.68.44,1.08,0,1.42,0,2.85,0,4.27a40.09,40.09,0,0,1,0,4.52c0,.35.05.73-.25,1a.7.7,0,0,1-1-.1l0-2.68a1.49,1.49,0,0,1-.4-1.22c0-1.15,0-2.3,0-3.45q-.06-1.15,0-2.31a1.43,1.43,0,0,1,.4-1.13Z"/><path class="cls-21" d="M24.9,33h.85c.41.19.38.57.39.93a30.55,30.55,0,0,1,.05,3.45,1.64,1.64,0,0,1-.31,1.09.66.66,0,0,1-1-.09Z"/><path class="cls-22" d="M25.75,45.09c-.83-.25-1.14-.67-.93-1.63a5.73,5.73,0,0,0-.05-2.57,1.12,1.12,0,0,1,.12-.68.69.69,0,0,1,1-.06c.56.88.27,1.85.3,2.78C26.09,43.66,26.5,44.49,25.75,45.09Z"/><path class="cls-23" d="M24.84,25.69c0,1.56,0,3.11,0,4.67-.64,0-.89-.25-.88-.89,0-1.27,0-2.54,0-3.81A.55.55,0,0,1,24.84,25.69Z"/><path class="cls-24" d="M24.34,49.2,24,48.31h1.81a.67.67,0,0,1,.84-.19,7.36,7.36,0,0,0,1.15,1.15.87.87,0,0,1-.08.92,1.83,1.83,0,0,1-2.47-.28C24.94,49.65,24.49,49.63,24.34,49.2Z"/><path class="cls-25" d="M25.75,45.09l0-2.18a.72.72,0,0,1,1-.08,5,5,0,0,1,0,3.74.69.69,0,0,1-1-.06Z"/><path class="cls-26" d="M24.84,25.69l-.85,0c0-.85,0-1.7,0-2.55,0-.65.25-.91.88-.86C24.85,23.4,24.85,24.54,24.84,25.69Z"/><path class="cls-27" d="M25.74,40.23l-.85,0c0-.6,0-1.2,0-1.8l.87,0,.13.06a.88.88,0,0,1,.22.79,1.1,1.1,0,0,1-.15.81A.43.43,0,0,1,25.74,40.23Z"/><path class="cls-28" d="M25.78,46.51h.87l.14.06a.85.85,0,0,1,.23.79,1.16,1.16,0,0,1-.15.82.39.39,0,0,1-.23.15l-.85,0C25.79,47.7,25.79,47.1,25.78,46.51Z"/><path class="cls-29" d="M56.31,55.31a.61.61,0,0,1,.86.51c.11.57.5.58.93.57-.07.75.53,1.12.9,1.61a1.31,1.31,0,0,1,1.38.37,22,22,0,0,0,2,1.61c.24.27.1.75.54.89.87-.57,1.21.37,1.56.72a2.33,2.33,0,0,1,.66,2.12,1.4,1.4,0,0,1-2-.31c-.41-.38-1-.26-1.44-.35-.93.22-1.34-.49-1.85-1-.14-.56-.57-.65-1.07-.71a2.73,2.73,0,0,1-2-2.09c.14-.67-.67-.71-.8-1.2C55.9,57.08,55.56,56.14,56.31,55.31Z"/><path class="cls-30" d="M61.7,62.68c.71.08,1.5-.28,2,.7.21.43.93.14,1.42.19a.4.4,0,0,1,.53,0c.77.16.54.76.5,1.23s-.52.56-1,.56H52.74a.68.68,0,0,1-.13-1,1.29,1.29,0,0,1,1-.29,12.26,12.26,0,0,1,2.57,0c1.83-.13,3.67,0,5.59-.1C61.45,63.52,61.21,63.09,61.7,62.68Z"/><path class="cls-31" d="M27.57,64.48a1,1,0,0,1-1.2.9c-.68,0-1.37,0-2.05,0a2.28,2.28,0,0,1-.71-1.94,1.11,1.11,0,0,1,.07-.72c1.12-.78.85-1,.08-1.79-.08-.23-.22-.51-.07-.68.59-.68.59-1.67,1.25-2.3,1-.1,1.22.11,1.21,1.38a1.3,1.3,0,0,0,.69,1.45c.09.59.76.69,1,1.17C28,62.8,28.3,63.7,27.57,64.48Z"/><path class="cls-32" d="M50.9,65.19c-1,.24-2.06.49-2.85-.53a.9.9,0,0,1,.32-1.47,1.41,1.41,0,0,0,.61-.6,1.06,1.06,0,0,0,.6-1.07,13.93,13.93,0,0,1,.08-1.58c-.23-1,.68-1.33,1.11-1.94.66-.23,1.3-.77,2-.17a4.45,4.45,0,0,1,0,3.23c-1.42.57-1.38.57-1.44,2.16C51.31,63.88,51.66,64.67,50.9,65.19Z"/><path class="cls-33" d="M45.51,64.47c-.38,0-.8-.06-.9.49-.07.39-.4.39-.7.39-.66,0-1.31,0-2,0-.56-.48-.43-1.06-.26-1.65a.76.76,0,0,1,.16-.26,1.23,1.23,0,0,1,.83-.22c.63.12.75-.43,1-.79a1.18,1.18,0,0,1,.76-.11.74.74,0,0,0,.89-.6.52.52,0,0,1,.19-.17c.58-.29,1.43,0,1.76-.85a1.45,1.45,0,0,1,.29-.11c.74-.11,1,.29,1,.95a2.4,2.4,0,0,1-.13,1c-.53.74-1.06,1.5-2.13,1.47A1.13,1.13,0,0,0,45.51,64.47Z"/><path class="cls-34" d="M50.9,65.19c0-1,0-2,0-2.94,0-1.31.06-1.36,1.35-1.37h.44a.51.51,0,0,1,.34.39c.05,1.08.42,2.2-.32,3.2,0,.29,0,.59,0,.88C52.12,65.32,51.49,65.52,50.9,65.19Z"/><path class="cls-35" d="M14.1,63.57l1.77,0c.59.54,1.33.41,2,.46s1.28-.19,1.77.39a.75.75,0,0,1-.18.93H15c-.45,0-1,.15-1.25-.43A1.17,1.17,0,0,1,14.1,63.57Z"/><path class="cls-36" d="M39.25,65.36H33a.69.69,0,0,1-.12-1,1.17,1.17,0,0,1,.92-.31C34.89,64,36,64.05,37.15,64a1.14,1.14,0,0,0,1.11-.57.87.87,0,0,1,.94-.09.64.64,0,0,1,.25.24C39.68,64.23,39.82,64.83,39.25,65.36Z"/><path class="cls-30" d="M19.49,65.37v-.88c.25-.53.75-.42,1.17-.44.92,0,1.86.09,2.59-.68a.51.51,0,0,1,.73,0c-.1.69.48,1.27.35,2Z"/><path class="cls-37" d="M45.51,64.47c-.06-.64.22-.91.87-.89.44,0,.86,0,1-.6.09-.41.53-.26.83-.32a.59.59,0,0,1,.83-.1l.09.12c0,.3,0,.67-.31.78-.6.21-.66.71-.77,1.2A10.84,10.84,0,0,0,45.51,64.47Z"/><path class="cls-38" d="M27.57,64.48l0-2.68a1,1,0,0,0,.08-.14c.81-.27,1.16-.11,1.23.67a4,4,0,0,0,.58,2.1.81.81,0,0,1-.24.92C28.38,65.55,28.1,64.79,27.57,64.48Z"/><path class="cls-30" d="M29.19,65.35v-.88a1.6,1.6,0,0,1,2-.11.69.69,0,0,1-.07,1Z"/><path class="cls-39" d="M31.16,65.36v-.88a.71.71,0,0,1-.15-.94.8.8,0,0,1,.95-.2.6.6,0,0,1,.27.2,1.56,1.56,0,0,1,.18,1,.88.88,0,0,1-.36.86Z"/><path class="cls-40" d="M41.94,63.6v1.75H41A1.42,1.42,0,0,1,41,63.49.65.65,0,0,1,41.94,63.6Z"/><path class="cls-41" d="M41.06,63.61c0,.58,0,1.16,0,1.74h-.86a1.37,1.37,0,0,1-.11-1.86A.67.67,0,0,1,41.06,63.61Z"/><path class="cls-42" d="M40.12,63.61c0,.58,0,1.16,0,1.74h-.91c0-.59,0-1.17,0-1.76A.51.51,0,0,1,40.12,63.61Z"/><path class="cls-43" d="M32.05,65.37l0-.91a.55.55,0,0,1,.79-.1l.08.13v.88Z"/><path class="cls-44" d="M57.22,38.44c.66.05.9-.26.89-.91,0-1.49,0-3,0-4.48.66.1.88.53.91,1.14a24.51,24.51,0,0,1-.2,4.28c-.13.86-.89,1.11-1.57,1.41a.54.54,0,0,1-.29-.55C57,39,56.87,38.66,57.22,38.44Z"/><path class="cls-45" d="M54.52,44.72c-.05.23,0,.59-.18.66-.86.48-.71,1.29-.73,2a.71.71,0,0,1-.86.2.74.74,0,0,1-.23-.2,2,2,0,0,1,.35-2.37.65.65,0,0,0,.22-.37,1.76,1.76,0,0,1,1-1.52c.1,0,.11-.21.16-.31.35-.39.88-.58,1.17-1a.69.69,0,0,1,.84.23c.08.93-.65,1.33-1.24,1.77C54.73,44.07,54.49,44.28,54.52,44.72Z"/><path class="cls-46" d="M57.2,39.32l0,.56c0,.6.14,1.35-.88,1.28a.46.46,0,0,1-.26-.2,1.59,1.59,0,0,1,.14-1.77A.79.79,0,0,1,57.2,39.32Z"/><path class="cls-46" d="M56.31,42h-.86l-.15-.11a.61.61,0,0,1,.06-.86.62.62,0,0,1,.93,0l.06,0C56.34,41.46,56.33,41.75,56.31,42Z"/><path class="cls-47" d="M52.72,47.43h.89c0,1.78,0,3.57,0,5.35.54.51.37,1.15.35,1.76a2.58,2.58,0,0,1-.15,1,.74.74,0,0,1-.22.28.92.92,0,0,1-1-.08,1.33,1.33,0,0,1-.27-1q-.06-3.1,0-6.23C52.3,48.13,52.28,47.68,52.72,47.43Z"/><path class="cls-48" d="M53.62,55.5v-.9c.54-.6,1.16-.44,1.79-.19s.89.31.9.9c0,.95,0,1.91,0,2.86l-.07.13c-.73.26-1.2.14-1.18-.46A2.29,2.29,0,0,0,53.62,55.5Z"/><path class="cls-49" d="M55.41,54.41c-.57.32-1.19.13-1.79.19,0-.61,0-1.21,0-1.82h.18C55.4,52.82,55.4,52.82,55.41,54.41Z"/><path class="cls-50" d="M36.55,13.28c.13.63.36,1,.92.31.24-.32.56-.29.88-.3,0,.45-.06.83-.59,1a.36.36,0,0,0-.26.42.41.41,0,0,0,.42.39c.23,0,.47,0,.71,0h7.09c.53,0,1,0,1.27.59a.54.54,0,0,0,.53.29c.62,0,.74.38.73.89l-.08.14a1.46,1.46,0,0,1-2-.13,2,2,0,0,0-1.5-.44c-1.81,0-3.63,0-5.45-.06a10.94,10.94,0,0,1-1.81,0,10.05,10.05,0,0,1-1.82,0,1.41,1.41,0,0,1-1-.27,1.22,1.22,0,0,1-.27-1c-.24-1,.58-1.47,1.18-2C35.88,12.86,36.26,13,36.55,13.28Z"/><path class="cls-51" d="M50.2,14.18A7.22,7.22,0,0,1,54,17.77a1.47,1.47,0,0,1-1.72.92,12.83,12.83,0,0,0-1.52,0,.55.55,0,0,1-.78,0,.65.65,0,0,1,.06-.94c0-.39,0-.79-.4-1-.62-.28-.36-.59-.1-1S50.44,14.92,50.2,14.18Z"/><path class="cls-52" d="M37.45,9.7l2.66,0,0,1.76-.86,0,0,0a1.15,1.15,0,0,0-.89-.45,1.13,1.13,0,0,1-.9-.44l0,0Z"/><path class="cls-53" d="M48.25,16.85c.65,0,.94.27.9.91l-.1.14a.69.69,0,0,1-.94-.07.66.66,0,0,1,.1-.93Z"/><path class="cls-54" d="M50,17.78l0,.88-.1.14a.66.66,0,0,1-.86-1l.07,0Z"/><path class="cls-55" d="M50.92,19.57a2.16,2.16,0,0,0,.36,0c2.15-.29,2.54.62,3.23,2.93.06.2,0,.44.23.56s.65.33.65.77a12.26,12.26,0,0,1-.06,2.5c0,.31-.34.37-.62.42a2.72,2.72,0,0,0-2.13,2.9,29.82,29.82,0,0,1,.13,3.4c.36.87.12,1.17-.87,1.09-.38-.18-.4-.55-.43-.9,0-.56,0-1.12,0-1.68a1.12,1.12,0,0,0-.66-1.14,3.22,3.22,0,0,1-.17-1.79,4.7,4.7,0,0,1,.25-2.2,2.08,2.08,0,0,0,0-1.41,15.74,15.74,0,0,1-.19-4.89.8.8,0,0,1,.23-.48Z"/><path class="cls-56" d="M51.82,33.93c.64,0,.93-.25.89-.88h.92c.55.47.37,1.1.36,1.69,0,.3,0,.61,0,.91s.1.7.06,1.05a1.83,1.83,0,0,0,.68,1.63,1.09,1.09,0,0,1,0,.9.61.61,0,0,1-.18.26c-.67.43-1.2-.06-1.77-.27a1,1,0,0,1-.47-.89,3.4,3.4,0,0,0-.71-2.13,2.73,2.73,0,0,1-.07-1.89A.53.53,0,0,1,51.82,33.93Z"/><path class="cls-57" d="M56.29,32.16l0,.89,0,.12c-.42.2-.54.66-.84,1l-.29.1c-.92-.14-1-.39-.66-1.23l0-.85Z"/><path class="cls-58" d="M54.48,33c0,.67.24,1,.94,1,.39.86.12,1.26-.85,1.26a1.16,1.16,0,0,1-1-.38c0-.6,0-1.19,0-1.79Z"/><path class="cls-55" d="M50,18.66l.69,0c.07.3.13.59.19.89h0a.67.67,0,0,1-1,.09.67.67,0,0,1,0-1Z"/><path class="cls-59" d="M36.55,13.28a2.43,2.43,0,0,0-1.8,1.8c-.8.39-1.17.23-1.28-.59a4.56,4.56,0,0,1,.12-2,.64.64,0,0,1,.29-.44c.26,0,.57,0,.76-.19a1.29,1.29,0,0,1,1.55-.27c.58.2.28.82.35,1.26A2.14,2.14,0,0,1,36.55,13.28Z"/><path class="cls-60" d="M31.17,11.52l.89-.07.88.06a.9.9,0,0,1,.37.91c0,.35.07.72-.25,1a.74.74,0,0,1-1-.11c-.71.06-1-.29-.91-1A7.3,7.3,0,0,0,31.17,11.52Z"/><path class="cls-61" d="M37.45,10.59a8.42,8.42,0,0,0,.87,0c.66-.05,1,.2.92.9-.45,0-.83.07-1,.61,0,.23-.28.3-.51.24a.39.39,0,0,1-.31-.39C37.45,11.49,37.46,11,37.45,10.59Z"/><path class="cls-62" d="M33,12.41l0-.9c.43,0,.87-.06.94.53,0,.12,0,.23,0,.35A.59.59,0,0,1,33,12.41Z"/><path class="cls-63" d="M27.58,17.25c0-.41,0-.81,0-1.22.72-.13,1.62.2,2-.83,0-.13.54-.09.83-.14h.92c.84-.25,1-.06.91.88-.17.36-.49.4-.84.39-.66-.16-.85.45-1.22.77-.62.28-1.31.2-1.95.44C28,17.66,27.76,17.44,27.58,17.25Z"/><path class="cls-64" d="M25.73,20.46c-.05-.67.25-1,.92-.95l0,.09a.64.64,0,0,1,.07.94.63.63,0,0,1-.94-.06Z"/><path class="cls-65" d="M53.61,34.84c.33,0,.65,0,1,0,.65,0,.92-.25.84-.88h0c.28-.32.59-.6.89-.91h0l.86,0c0,1.8,0,3.61,0,5.41,0,.29,0,.59,0,.88h-.87c-.37-.32-.78-.6-1.14-.93,0-.11-.13-.22-.12-.33a2.11,2.11,0,0,0-1.45-2.32Z"/><path class="cls-8" d="M32.08,16c0-.51-.09-.92-.73-.88-.11-.73.93-1,.72-1.77l.87,0A2.48,2.48,0,0,1,33.07,16,.65.65,0,0,1,32.08,16Z"/><path class="cls-66" d="M27.58,17.25a10,10,0,0,1,2.65-.41l.15.09a.77.77,0,0,1,.05.92.86.86,0,0,1-.82.29.83.83,0,0,0-1,.64.72.72,0,0,1-.24.14.66.66,0,0,1-.78-.23Z"/><path class="cls-67" d="M27.6,18.69h.87c.45.8.26,1.12-.69,1.12a.64.64,0,0,1-.25-.24Z"/><path class="cls-68" d="M26.64,20.44l0-.84.85,0,.1,0a.67.67,0,0,1-.78,1.09A.42.42,0,0,1,26.64,20.44Z"/><path class="cls-69" d="M25.8,27.64c0-1.79,0-3.59-.05-5.38l.06-.88a.64.64,0,0,1,.94-.1A2.51,2.51,0,0,1,27,23.21c0,.75.13,1.49.09,2.24,0,.58.47.87.69,1.32a.93.93,0,0,1-.17,1A1.36,1.36,0,0,1,25.8,27.64Z"/><path class="cls-70" d="M26.67,21.37h-.86v-.9l.83,0,.06,0a.56.56,0,0,1,.09.8Z"/><path class="cls-71" d="M21.29,51h3.94a2.17,2.17,0,0,1,2.45-.06.79.79,0,0,1,0,1.05,1.48,1.48,0,0,1-1,.35c-1.82,0-3.63,0-5.45,0a1.48,1.48,0,0,1-.85-.24.6.6,0,0,1-.25-.46.58.58,0,0,1,.25-.62Z"/><path class="cls-72" d="M15.9,43.82l.92,0a.92.92,0,0,1,.33.87c0,.32,0,.65,0,1a9.52,9.52,0,0,1-.06,2.5c0,.66.17,1.3.1,2,0,.35,0,.73-.32,1a.9.9,0,0,1-1.06,0c-.49-.61-.32-1.34-.38-2a11.43,11.43,0,0,0,0-1.85c0-.77,0-1.54,0-2.31a1.54,1.54,0,0,1,.43-1.13Z"/><path class="cls-73" d="M20.41,51l-.05.55c-.66.3-.92-.13-1.16-.62a22.56,22.56,0,0,1-.09-4.72,1.14,1.14,0,0,1,.27-.65.66.66,0,0,1,1,.07Z"/><path class="cls-74" d="M16.81,44.74c0-.3,0-.6,0-.9.89,0,1.78,0,2.68,0,.71,0,1,.21.86.91a1,1,0,0,1-.92.35C18.55,45.06,17.61,45.45,16.81,44.74Z"/><path class="cls-75" d="M19.48,44.74h.88v.89l-.87,0-.13-.09A.58.58,0,0,1,19.48,44.74Z"/><path class="cls-76" d="M25.81,33.94,25.75,33l.07-.86a.64.64,0,0,1,.78-.25c.39.25.51.92,1.18.75a1.65,1.65,0,0,1,1.69.52c.28.36.75.28,1.16.31.56,0,1.14,0,1.59.4a2,2,0,0,1,.1,1.72c-.15.5-.58.5-1,.55s-.69.13-.68.6a1.68,1.68,0,0,1-.25.84c-.21.19-.49.29-.63.59a.86.86,0,0,1-1.31.42,1.77,1.77,0,0,1,0-2.34c.32-.42.23-.74-.15-1-.62-.38-1.13-1-1.95-1C26.11,34.33,26,34.12,25.81,33.94Z"/><path class="cls-77" d="M26.63,32.19l-.81,0c0-1.51,0-3,0-4.53h1.75l.15.08a1.89,1.89,0,0,1,.15,1.73A1.41,1.41,0,0,0,27.1,31,1.52,1.52,0,0,1,26.86,32,.46.46,0,0,1,26.63,32.19Z"/><path class="cls-78" d="M25.81,33.94c1.3-.32,2.17.56,3.11,1.19.62.42.53,1.07-.11,1.55s-.26,1.16-.34,1.75l0,.11a1,1,0,0,0-.49,1.07c0,.41.09.84-.3,1.14a.92.92,0,0,1-1,0,.59.59,0,0,1-.26-.39,3.69,3.69,0,0,1-.1-.87,1.3,1.3,0,0,0-.52-1.09h0C25.78,36.93,25.79,35.43,25.81,33.94Z"/><path class="cls-79" d="M26.65,40.24l.05.34a1.78,1.78,0,0,1-.07,2.35l-.84,0c0-.89,0-1.78-.05-2.68h.07A.53.53,0,0,1,26.65,40.24Z"/><path class="cls-80" d="M27.56,50.11l0-.9.12-.14a.67.67,0,0,1,.93.13.73.73,0,0,1,0,.95.65.65,0,0,1-1,0Z"/><path class="cls-81" d="M27.53,49.21c-.67.09-.92-.25-.89-.87l.06-.06a.66.66,0,0,1,1-.06.7.7,0,0,1,0,1Z"/><path class="cls-82" d="M26.63,42.93l.07-2.35.85,0a.66.66,0,0,1,.4.64,35,35,0,0,1,0,4.8,1,1,0,0,1-.24.57.68.68,0,0,1-1-.07l0,0Z"/><path class="cls-83" d="M26.65,40.24l-.84,0c0-.3,0-.6,0-.91a.55.55,0,0,1,.85,0Z"/><path class="cls-84" d="M26.65,39.34l-.85,0v-.89C26.52,38.32,26.75,38.68,26.65,39.34Z"/><path class="cls-85" d="M26.69,46.5h.87a.75.75,0,0,1,1-.11,1.13,1.13,0,0,1,.21,1.17c-.27.35-.54.7-1.07.6a2.11,2.11,0,0,1-1-.76Z"/><path class="cls-86" d="M26.69,47.4c.38,0,.85-.06.89.54a.28.28,0,0,1,0,.39l-.86,0C26.7,48,26.69,47.69,26.69,47.4Z"/><path class="cls-87" d="M61.7,62.68c0,.5.06.9.7.9.29,0,.67,0,.65.42s-.42.46-.75.46h-6a.93.93,0,0,1-.38-.68,14.06,14.06,0,0,1,.1-3.72c.52-.65,1-.23,1.33.15a2.65,2.65,0,0,0,2.2,1.23,1,1,0,0,1,.52.33c.31,0,.63,0,.71.4S61.32,62.65,61.7,62.68Z"/><path class="cls-88" d="M60.08,61.78a2.57,2.57,0,0,1-2.94-1.36c-.17-.32-.52-.35-.83-.43a.66.66,0,0,1-.1-1,.68.68,0,0,1,1,.08A2.27,2.27,0,0,0,59,60.86.93.93,0,0,1,60.08,61.78Z"/><path class="cls-89" d="M57.19,59.09h-.88a.56.56,0,0,1,0-.88l0,0C57,58.13,57.28,58.43,57.19,59.09Z"/><path class="cls-90" d="M56.28,58.21l0,.88v5.38H53.62a1.26,1.26,0,0,1-.43-1.12c0-2.18,0-4.37,0-6.55a1.36,1.36,0,0,1,.41-1.14.88.88,0,0,1,0-.16h.18c1.57,0,1.59,0,1.6,1.61C55.41,57.73,55.45,58.27,56.28,58.21Z"/><path class="cls-91" d="M53.6,55.66q0,4.41,0,8.81h-.89c0-1.2,0-2.4,0-3.59-.42-1-.07-1.94,0-2.9a1.75,1.75,0,0,1,0-2.3Z"/><path class="cls-87" d="M24,63.4c-1.23,1.47-2.92,1-4.49,1.08-.9,0-1.79,0-2.69,0-.65,0-.94-.25-.92-.89l0,0a1,1,0,0,1,.88-.35,29.06,29.06,0,0,1,2.95-.08c.74,0,1.1-.33,1.1-1.08,0-.44,0-.89,0-1.34.09-.94.4-1.15,1.36-.91a.76.76,0,0,1,.35.59,1.09,1.09,0,0,0,1,1c.78.21.87.54.46,1.3Z"/><path class="cls-92" d="M25.79,59.63c-.11-.6.3-1.55-.93-1.42a2,2,0,0,0-.49.63.85.85,0,0,1-1.32.43.59.59,0,0,1-.2-.24c-.35-1.42,0-2,1.33-2.1a8.27,8.27,0,0,1,1.86,0,1,1,0,0,1,1,1,2.54,2.54,0,0,1-.25,1.81A.72.72,0,0,1,25.79,59.63Z"/><path class="cls-93" d="M24,62.69c0-.42,0-.94-.6-.88-1.21.13-1.29-.59-1.21-1.48a2,2,0,0,0,0-.35.69.69,0,0,1-.09-1,.68.68,0,0,1,1,0,.59.59,0,0,0,0,.08,1,1,0,0,1,.42.85,1.22,1.22,0,0,0,.46.92c.47,0,1,0,1,.7S24.87,62.79,24,62.69Z"/><path class="cls-94" d="M24,60.88c-.64.07-.95-.2-.89-.87,0-.3,0-.6,0-.9.42,0,.81,0,.94-.6.1-.41.52-.3.83-.3-.05.77.23,1.65-.76,2.09C24,60.35,24,60.68,24,60.88Z"/><path class="cls-95" d="M25.79,59.63h.87c.51.3,1,.62.57,1.32a.47.47,0,0,1-.57-.06C25.64,61,25.77,60.26,25.79,59.63Z"/><path class="cls-96" d="M26.66,60.89h.56c.63.08.68.2.36.89l0,0C26.89,61.85,26.6,61.54,26.66,60.89Z"/><path class="cls-97" d="M50.93,58.22c0,.39,0,.77-.51.88S50,59.62,50,60a.86.86,0,0,1-.87.38c-.32,0-.65.08-1-.13a1.06,1.06,0,0,1-.13-1.38,11,11,0,0,0,1.47-4,3.34,3.34,0,0,1,.76-1.76,1,1,0,0,0,.23-.92,7.27,7.27,0,0,1,0-1.32c.08-1,.43-1.18,1.4-.88a.88.88,0,0,1,.29.71,30.59,30.59,0,0,1-.06,4.69,2.13,2.13,0,0,0-.87,2A1,1,0,0,1,50.93,58.22Z"/><path class="cls-98" d="M51.82,55.49c0-1.8,0-3.6,0-5.4a2.5,2.5,0,0,1-.24-2.5c.16-.55.69-.55,1.15-.2v0q0,4.13,0,8.26c0,.76,0,1.53,0,2.3-.63-.18-1.16.28-1.77.23,0-.31,0-.61,0-.92a1.23,1.23,0,0,0,.46-.9A1.12,1.12,0,0,1,51.82,55.49Z"/><path class="cls-99" d="M49.12,60,50,60c0,.57,0,1.14,0,1.71a.88.88,0,0,1-.89,1l0,0A2.27,2.27,0,0,1,49.12,60Z"/><path class="cls-100" d="M40.12,63.61h-.88v0c-.29-.29-.57-.59-1-.53a7.12,7.12,0,0,1-.8,0,2.28,2.28,0,0,1-.82-.06c-.39-.26-.37-.92-1-1a.63.63,0,0,1-.19-.17c-.26-.79-1.08-.38-1.56-.72a.75.75,0,0,1-.2-.15c-.12-.49-.55-.67-.9-.93a1,1,0,0,1-.11-.29c0-.9.13-1,1.15-1a5.21,5.21,0,0,1,1.76.05c.36.34.58.84,1.1,1,.15.16.12.5.31.52a6.33,6.33,0,0,1,2.12,1c.45.23,1,.17,1.45.59.19.2.45.1.65-.06a1.25,1.25,0,0,1,.71-.34,11.53,11.53,0,0,0,4.14-2.11c.84-.71,1.45-.41,1.59.7a.82.82,0,0,1-.32.82h0a1.07,1.07,0,0,1-.9.45,1.06,1.06,0,0,0-.87.48h0c-.34.25-.58.61-.94.84l-.86.06A.91.91,0,0,1,43,63a1.24,1.24,0,0,0-1.09.53v0H40.12Z"/><path class="cls-101" d="M47.33,60.88V60a.58.58,0,0,1,.89,0l.9,0c0,.89,0,1.77,0,2.66h-.89a7.3,7.3,0,0,1,0-.81C48.29,61.19,48.05,60.82,47.33,60.88Z"/><path class="cls-102" d="M45.55,61.8c-.1-.7.24-.95.9-.92.29,0,.58,0,.87,0,.07.61-.16.94-.81.91C46.19,61.77,45.87,61.79,45.55,61.8Z"/><path class="cls-103" d="M41.93,63.57c-.07-.68.24-1,.92-.88a.56.56,0,0,1,0,.86Z"/><path class="cls-104" d="M44.61,62.64c-.06-.7.28-1,.94-.84C45.64,62.54,45.28,62.76,44.61,62.64Z"/><path class="cls-105" d="M42.82,63.55l0-.86h.9C43.81,63.39,43.48,63.65,42.82,63.55Z"/><path class="cls-106" d="M33.85,64.47H33c-.29-.31-.6-.6-.89-.91h0a.85.85,0,0,1-.35-.72c.09-.54-.27-.77-.67-1-.14-.54-.71-.69-1-1.09a.84.84,0,0,1,.13-.9,1.17,1.17,0,0,1,.93-.27,8.17,8.17,0,0,1,1,0A.93.93,0,0,1,33,60l0,0c.34.26.6.6.92.88h0c.25.46.9.42,1.12.92a1,1,0,0,1-.28,1.27C34.23,63.42,34.36,64.14,33.85,64.47Z"/><path class="cls-107" d="M33.85,64.47c.07-.73-.29-1.61.77-2,.19-.07.12-.42.13-.65.28-.36.59-.29.89,0h0a8.48,8.48,0,0,0,1,.85l.85,0c.29.27.57.53.87.78l0,.11c.08.72-.28.93-1,.91C36.22,64.45,35,64.47,33.85,64.47Z"/><path class="cls-108" d="M38.33,62.69c.67-.09,1,.2.92.88h-.9A.58.58,0,0,1,38.33,62.69Z"/><path class="cls-109" d="M9.63,55.47l-.91,0c0-.9,0-1.8,0-2.7a.68.68,0,0,1,.85-.2.56.56,0,0,1,.22.21,1.67,1.67,0,0,1,.17.91c0,.31,0,.62,0,.93A.86.86,0,0,1,9.63,55.47Z"/><path class="cls-110" d="M9.59,52.79H8.73c-.11-.65.14-1,.82-.93l.08.06C9.88,52.22,9.93,52.52,9.59,52.79Z"/><path class="cls-111" d="M27.58,61.77c0-.33.06-.72-.36-.89-.12-.45-.64-.72-.56-1.25,0-2.6.26-2.33-2.33-2.34H24c-.35-.74-.24-1.16.43-1.24a6.2,6.2,0,0,1,3.14.15c.54.46.44,1.07.41,1.66A.91.91,0,0,0,28.6,59c.14.5.59.7.95,1a1.23,1.23,0,0,1,.17.75.69.69,0,0,0,.55.84.52.52,0,0,1,.19.17,1.23,1.23,0,0,0,.8.8.72.72,0,0,1,.14.24.67.67,0,0,1-.22.8l0,.92h-2c-1-.21-.69-1-.71-1.64S28.38,61.7,27.58,61.77Z"/><path class="cls-112" d="M32.06,63.57c.69-.08,1,.24.89.91l-.87,0C32.08,64.16,32.07,63.87,32.06,63.57Z"/><path class="cls-113" d="M31.18,63.56v-.89a.55.55,0,0,1,.86,0v.89Z"/><path class="cls-114" d="M52.71,47.39c-.63,0-.93.25-.89.91s0,1.19,0,1.79c-.65,0-.92.26-.88.91,0,.48,0,1,0,1.44a8.93,8.93,0,0,1-.86.88.72.72,0,0,1-.9,0,1.9,1.9,0,0,1-.42-1.33c0-.89,0-1.78,0-2.67.23-.49.75-.43,1.15-.54s.6-.33.56-.75.14-.71.18-1.06a2.79,2.79,0,0,1,.07-.4.53.53,0,0,1,.16-.2c.81-.39.46-1.17.59-1.79a1.73,1.73,0,0,1,.15-1.14c.43-.19.73-.61,1.2-.74s1.24-.36,1.72.28c0,.39,0,.79-.5.92-.11,0-.28.13-.28.19C53.8,45.28,52.23,46,52.71,47.39Z"/><path class="cls-115" d="M54.52,42.93l-1.81,0a.69.69,0,0,1-.23-1.06,2.53,2.53,0,0,0,.41-2.49c-.09-.21,0-.4.18-.56.46.26.86.64,1.44.54.52.29.4.8.43,1.24s0,1.07.44,1.45l.07,0C55.47,42.67,55.18,43,54.52,42.93Z"/><path class="cls-116" d="M55.38,42c-.67.07-.92-.25-.88-.89s0-1.2,0-1.8h0a8.07,8.07,0,0,0,.78-.87l.12,0a4,4,0,0,1,.78.1c.5.17.6.46.14.81,0,.59,0,1.19,0,1.78C55.62,41.05,55.37,41.4,55.38,42Z"/><path class="cls-117" d="M48.21,16.9l0,.87-.08.14A3.11,3.11,0,0,1,45,17.77a2.67,2.67,0,0,0-1.51-.45c-1.13,0-2.27,0-3.4-.08a1.24,1.24,0,0,1-1-.28.66.66,0,0,1,.07-1h6.42a.94.94,0,0,1,1,.52C47,17.14,47.68,16.78,48.21,16.9Z"/><path class="cls-6" d="M33,15.93l0-2.66c0-.29,0-.58,0-.86l.88,0c0,.59,0,1.17,0,1.76s.19,1,.9.93v.85l-.08.16C34.07,16.45,33.48,16.61,33,15.93Z"/><path class="cls-118" d="M35.64,16h1.83a.64.64,0,0,1-.12,1.12A1.87,1.87,0,0,1,35.52,17,.73.73,0,0,1,35.64,16Z"/><path class="cls-119" d="M37.45,16.88l0-.88h1.76l0,.84L39.2,17a1,1,0,0,1-.91.24C38,17.24,37.63,17.22,37.45,16.88Z"/><path class="cls-120" d="M35.64,16l0,.85c-.2.37-.51.36-.84.25a.58.58,0,0,1-.25-.21.64.64,0,0,1,.17-.87v-.09Z"/><path class="cls-121" d="M49.08,17.8l.05.87-.1.14a.68.68,0,0,1-.93-.07.65.65,0,0,1,.1-.93l0,0Z"/><path class="cls-122" d="M50,18.7l0,.87a1.12,1.12,0,0,1,.4.86c0,2.05.06,4.11,0,6.16a1,1,0,0,1-.26.74c-.85.23-1.32-.1-1.43-1s.06-1.83,0-2.75a14.18,14.18,0,0,1,0-2.06c0-1-.34-1.95.31-2.84h.06Z"/><path class="cls-123" d="M49.11,23.52c0,.83,0,1.67,0,2.5a1.16,1.16,0,0,0,.9,1.27c.59.22.38,1,.89,1.27l0,1.77a.61.61,0,0,1,.12.72.62.62,0,0,1-.87.16.89.89,0,0,0-1.38.5,1.43,1.43,0,0,1-1.5.86c-1.22,0-2.44,0-3.66,0a1.8,1.8,0,0,0-1.09.35,3.16,3.16,0,0,1-2.62.55c-.82-.07-1-.37-.9-1.27a.55.55,0,0,1,.46-.37c1.34.06,2.23-.75,3.15-1.54a.92.92,0,0,1,1.37.06c.66.73,1.47.48,2.25.44.37,0,.56-.31.6-.68A.92.92,0,0,0,46.37,29a17.11,17.11,0,0,1-2-1.44,2,2,0,0,1,.06-1.75.76.76,0,0,1,.72-.27.75.75,0,0,1,.31.15c1,.91,1.55.78,2.08-.51.14-.33.16-.7.3-1C48.09,23.66,48.36,23.09,49.11,23.52Z"/><path class="cls-124" d="M50.91,28.56c-1,.09-.87-.65-.89-1.27,0-2.57,0-5.15,0-7.72h.88c0,.93,0,1.85,0,2.78a3.45,3.45,0,0,0,0,1.16C51.56,25.21,51.13,26.88,50.91,28.56Z"/><path class="cls-125" d="M50.9,31.08l0-.75c.65,0,.91.26.89.91,0,.9,0,1.79,0,2.69v.37a.69.69,0,0,1-1,.11.7.7,0,0,1-.21-.47C50.54,33,50.18,32,50.9,31.08Z"/><path class="cls-125" d="M53.07,38.79A2.52,2.52,0,0,1,52.89,42a1.4,1.4,0,0,0-.18.93c0,.58-.48.56-.88.58-.46-.14-.4-.54-.43-.89s0-1,0-1.5c.31,1.13-.6,1.81-1,2.69-.67,1.66-.67,1.66.51,2.73v.36c-.92,1-1.35,1-2.16-.13-.31-.43-.62-.54-1-.14a2.9,2.9,0,0,1-.71.54c-1.06.58-1.52.42-1.91-.75a.57.57,0,0,0-.63-.48,1.3,1.3,0,0,1-1-.49.89.89,0,0,1,0-.81,2.6,2.6,0,0,1,2.26-.36c1.16.3,1.75-.06,2-1.28a3.08,3.08,0,0,1,.56-1.57,7.76,7.76,0,0,0,1.38-3.23,4.51,4.51,0,0,1,1-1.94A.77.77,0,0,1,52,36.09a1.81,1.81,0,0,1,.74,1.78C52.69,38.21,52.67,38.59,53.07,38.79Z"/><path class="cls-126" d="M52,36.09a1.27,1.27,0,0,0-1.32.85,4.55,4.55,0,0,0-.57,1.58,6,6,0,0,1-1.52,3.14,2.73,2.73,0,0,1-2.52-3.45,1.31,1.31,0,0,1,1.43-1.09,3.5,3.5,0,0,0,2.27-.68,1.75,1.75,0,0,0,.82-1.67.54.54,0,0,1,.35-.47h.88A4.9,4.9,0,0,0,52,36.09Z"/><path class="cls-127" d="M53.62,35.75c1.81,0,1.83-.32,1.79,1.79v.88h0a.61.61,0,0,1-.9,0c-.69,0-.94-.28-.9-1S53.62,36.34,53.62,35.75Z"/><path class="cls-115" d="M54.51,38.45l.9,0c.08.68-.23,1-.9.9Z"/><path class="cls-128" d="M56.31,33c.09.68-.19,1-.89.91C55.32,33.26,55.62,33,56.31,33Z"/><path class="cls-129" d="M34.75,16v.86a4,4,0,0,1-3.64.11.68.68,0,0,1,.06-1l.91,0,.89,0Z"/><path class="cls-130" d="M31.17,16v.9l-.09.12a.58.58,0,0,1-.81-.12l0-.05C30.21,16.19,30.5,15.88,31.17,16Z"/><path class="cls-131" d="M31.17,16.89h3.58a1.49,1.49,0,0,0,1.28.46,2.48,2.48,0,0,1,1.53.32c.3.88,0,1.31-.85,1.4a29.72,29.72,0,0,1-3.13.05,2.6,2.6,0,0,0-1.67.53,11,11,0,0,0-2.56,2.21,2.62,2.62,0,0,0-.46.95c-.11.56-.19,1.18-.89,1.31s-.95-.37-1.3-.78l0-2h0c.27-.33.59-.6.87-.92l.07-.87c.7.08.91-.29.84-.91h0a10.81,10.81,0,0,1,.9-.89l.86-.05c.36-.23.59-.6.94-.84Z"/><path class="cls-132" d="M31.18,16.9c.08.72-.27,1-.94.84l0-.85Z"/><path class="cls-133" d="M29.38,17.79c.06.66-.24,1-.9.89C28.39,18,28.67,17.68,29.38,17.79Z"/><path class="cls-134" d="M27.56,20.46c.09.67-.2,1-.87.92,0-.3,0-.59,0-.89Z"/><path class="cls-135" d="M26.7,23.33c.52-.08.92.66,1.4.32s.18-1,.43-1.4c.45-.67.7-1.51,1.58-1.88a5.4,5.4,0,0,0,1.59-1.14,1.91,1.91,0,0,1,1.53-.56c1.08,0,2.16,0,3.23,0,.59,0,1-.2,1-.88a.58.58,0,0,1,0-.89v0l.87,0a3,3,0,0,1,.28,2.6.88.88,0,0,1-.83.42c-.48,0-1,0-1.21.55a.89.89,0,0,1-.85.39,6.35,6.35,0,0,0-1.5.24,2.12,2.12,0,0,0-1.7,2,1.46,1.46,0,0,1-1.25,1.56c-1,.27-1.57,1.19-2.17,2a1.15,1.15,0,0,1-.29.33,1,1,0,0,1-1.2-.24c-.67,0-1-.24-.94-1S26.69,24.17,26.7,23.33Z"/><path class="cls-136" d="M27.6,26.8l1.21-.08a.51.51,0,0,1,.65,0,.74.74,0,0,1,0,1,1.2,1.2,0,0,1-1,.31,1,1,0,0,1-.91-.33l-.07-.05Z"/><path class="cls-137" d="M9.63,54.58V53.7c.33-.46.82-.42,1.29-.43,1.48,0,3,0,4.45,0,.4,0,.87,0,1-.53a1.36,1.36,0,0,1,.42-.83c0-.3,0-.6,0-.89,0-1,.05-1.92.07-2.87.42-.34.72-.15,1,.22a1.13,1.13,0,0,1,.22.58A2,2,0,0,0,19.48,51l.88.54.05.36,0,.11c-.37.35,0,.51.19.69a2,2,0,0,1,.14.25c.31.38.76.29,1.16.3,1.48,0,3,0,4.45,0a2,2,0,0,1,1.43.37.84.84,0,0,1,0,1,1.83,1.83,0,0,1-1.42.42c-1.49,0-3,0-4.49,0-.4,0-.85-.07-1.17.31l-.14.25c-.51.1-.63.7-1.09.86a1.65,1.65,0,0,1-2.06-.5c-.2-.27-.54-.36-.79-.55-.32-.43-.8-.36-1.23-.36-1.49,0-3,0-4.47,0C10.45,55,10,55.06,9.63,54.58Z"/><path class="cls-138" d="M20.41,51.9l7.14,0a.63.63,0,0,1,.17.91.71.71,0,0,1-.28.21,4.87,4.87,0,0,1-1.93.18c-1.31,0-2.61,0-3.92,0a1.3,1.3,0,0,1-1.19-.43h0a.55.55,0,0,1,0-.86Z"/><path class="cls-139" d="M27.59,52.79l0-.86c0-.31,0-.61,0-.91s0-.61,0-.91h.88l.12,0a2.19,2.19,0,0,0,.91.71.66.66,0,0,1,.14.26.82.82,0,0,1-.14.85,2.32,2.32,0,0,0-.67.69C28.49,53.16,28.06,53.33,27.59,52.79Z"/><path class="cls-140" d="M19.48,51c-1.29.3-1.61,0-1.79-1.3-.09-.62,0-1.37-.87-1.57V45.62a2.26,2.26,0,0,1,2.67,0v.07C19.49,47.44,19.48,49.22,19.48,51Z"/><path class="cls-141" d="M19.49,45.59l-2.67,0c0-.29,0-.59,0-.88h2.67Z"/><path class="cls-142" d="M28.47,38.43c.44,0,.82,0,.94-.56.08-.43.51-.32.82-.37l.15.07c.46.53.25,1.16.27,1.76a4.45,4.45,0,0,1-.11,1.78c-.57.3-.91.9-1.5,1.18-.65.06-.91-.29-1-.88a10.58,10.58,0,0,1,0-2,1,1,0,0,1,.38-.94Z"/><path class="cls-143" d="M32.05,33.93c-.57,0-1.13,0-1.7,0a1.18,1.18,0,0,1-1.14-.52c-.4-.6-1.08-.33-1.66-.4a.69.69,0,0,1-.17-.88.54.54,0,0,1,.23-.22,1.9,1.9,0,0,1,2.28.36,1.24,1.24,0,0,0,1,.31,2.38,2.38,0,0,1,1.28.31.67.67,0,0,1,0,.92Z"/><path class="cls-144" d="M30.27,36.64c-.08-.7.25-1,.92-.91a8.61,8.61,0,0,0,.88,0,1.42,1.42,0,0,1,1.86-.08.86.86,0,0,1,.08,1c-.25.35-.62.31-1,.31a8.26,8.26,0,0,1-1.86,0A1,1,0,0,1,30.27,36.64Z"/><path class="cls-145" d="M33.84,35.74l-1.77,0c0-.6,0-1.19,0-1.79h0a1.57,1.57,0,0,1,1.88-.15A1.55,1.55,0,0,1,34,35.64Z"/><path class="cls-146" d="M30.27,36.64l.93,0a.63.63,0,0,1,0,.89.62.62,0,0,1-.95,0l-.06-.07C30.24,37.21,30.26,36.92,30.27,36.64Z"/><path class="cls-147" d="M27.57,32.15c0,.29,0,.59,0,.88-.67.11-.95-.2-.93-.84l.06,0C27,31.88,27.28,31.82,27.57,32.15Z"/><path class="cls-148" d="M27.62,27.68h.86a2.55,2.55,0,0,1,.09,2.76.79.79,0,0,1-1.05,0,.72.72,0,0,1,0-1Z"/><path class="cls-149" d="M27.56,29.43l0,.92a1,1,0,0,1,.32.9,1,1,0,0,1-.34.9h-.89c0-.6,0-1.2,0-1.79S26.91,29.4,27.56,29.43Z"/><path class="cls-150" d="M28.47,39.33c0,.64,0,1.28,0,1.93,0,.49.18.78.71.76s.49.42.42.8c-.26.41-1,.57-.74,1.26a8.66,8.66,0,0,1,0,1.61c0,.32,0,.67-.42.82h-.89c0-2,0-4,0-5.94,0-.4,0-.81,0-1.22A.57.57,0,0,1,28.47,39.33Z"/><path class="cls-151" d="M28.47,39.33h-.88c-.1-.69.18-1,.89-.9Z"/><path class="cls-152" d="M27.56,48.33c0-.13,0-.26,0-.39a1.43,1.43,0,0,0,.88-.35c.61.4,1.38.43,2,.83a.74.74,0,0,1,.11.68,2.65,2.65,0,0,0,0,1,1,1,0,0,1-.41,1.16.7.7,0,0,1-.82-.22h0c-.29-.31-.59-.61-.9-.89h0c.07-.63-.15-1-.84-.91Z"/><path class="cls-153" d="M30.24,48.49c-.3,0-.59,0-.88,0-.63,0-.92-.27-.9-.9,0-.36,0-.72,0-1.08l0-2.68a.68.68,0,0,1,.87-.19c.5.62.6,1.48,1.18,2.06a5.21,5.21,0,0,1,.12,2.08A.71.71,0,0,1,30.24,48.49Z"/><path class="cls-154" d="M49.3,53.16c.66.05.94-.75,1.6-.72a.27.27,0,0,1,0,.09,14.77,14.77,0,0,0-1.49,4.6c-.26,1-1.17,1.75-1.19,2.84l-.89,0c-.15-.64-.4-.92-1-.33a7.49,7.49,0,0,1-4.4,2.1.66.66,0,0,1-.31-.84c.21-.53,0-.83-.38-1.15-.79-.75-1.57-1.45-2.79-1.19a1.65,1.65,0,0,1-1.11-.25,1,1,0,0,1-.15-.24.89.89,0,0,1,.07-.85,14.4,14.4,0,0,1,3.11-1.86,1.71,1.71,0,0,1,.87-.15,8.57,8.57,0,0,0,3-.53,2.32,2.32,0,0,1,1.66,0,1.51,1.51,0,0,0,2-.58C48.29,53.7,48.59,53.14,49.3,53.16Z"/><path class="cls-155" d="M51.82,55.49c0,.29,0,.58,0,.88.06.66-.21,1-.9.93,0-.29,0-.59,0-.88C50.87,55.77,51.12,55.42,51.82,55.49Z"/><path class="cls-156" d="M37.46,58.18a8.45,8.45,0,0,0,1.88-.1,1,1,0,0,1,.89.28q1,.84,2,1.65c.29.23.4.46.08.72a1.14,1.14,0,0,0-.38,1.05,7.65,7.65,0,0,1-.74.65c-.41.28-.82.41-1.09-.2,0-.1-.14-.28-.2-.27-1,.1-1.65-.91-2.56-1.05-.63-.1-.84-.34-.81-.91a2.33,2.33,0,0,0,.6-1.44A.48.48,0,0,1,37.46,58.18Z"/><path class="cls-157" d="M33,60h-.88c-.31-.24-.55-.58-1-.67a.62.62,0,0,1-.18-.18c-.05-.58-.75-.6-.93-1.07a.9.9,0,0,1,.13-.89c.26-.29.61-.23.93-.23a1.88,1.88,0,0,1,.91.12c.4.24.51.93,1.18.78a1.06,1.06,0,0,1,.84.31.72.72,0,0,1-.11.93C33.22,59,32.88,59.29,33,60Z"/><path class="cls-158" d="M37.46,58.18c0,.38-.06.8.47.91a.41.41,0,0,1,.37.51c0,.35-.33.38-.6.39H36.54c-.62,0-1-.2-.9-.88a2.32,2.32,0,0,1,1-1.17.74.74,0,0,1,.84.24Z"/><path class="cls-159" d="M36.57,58.18c.07.68-.28,1-.93.94l-1.75,0-.06-.85,0-.13A7.69,7.69,0,0,0,35.72,57a.87.87,0,0,1,.92.18A.68.68,0,0,1,36.57,58.18Z"/><path class="cls-160" d="M35.64,61.79l-.89,0c-.63,0-1-.24-.88-1,.32,0,.63,0,1,0C35.48,60.85,35.71,61.17,35.64,61.79Z"/><path class="cls-161" d="M36.59,62.64c-.68.12-1-.11-1-.85C36.32,61.67,36.65,61.93,36.59,62.64Z"/><path class="cls-162" d="M38.33,62.69l0,.88c-.68.1-1-.19-.91-.88Z"/><path class="cls-163" d="M33.86,60.88c-.7.12-1-.17-.92-.88C33.62,59.9,34,60.13,33.86,60.88Z"/><path class="cls-164" d="M9.63,54.58l6.29,0c.51,0,.9.08.88.71a.24.24,0,0,1,0,.29.63.63,0,0,1-.88-.08l-6.25-.05Z"/><path class="cls-165" d="M15.88,55.52h.89c.45.2.43.62.44,1,0,1.73.08,3.46-.05,5.18a1,1,0,0,1-.35.95l0,.07c-.67,0-.94-.31-.91-1s0-1.64,0-2.47C15.88,58,15.88,56.77,15.88,55.52Z"/><path class="cls-166" d="M32,62.69l-.86,0,0,0a.59.59,0,0,1-.17-.77.39.39,0,0,1,.23-.15C31.9,61.71,32.13,62.06,32,62.69Z"/><path class="cls-167" d="M31.16,59.08c.69-.1,1,.19.92.89h-.92A.57.57,0,0,1,31.16,59.08Z"/><path class="cls-168" d="M31.16,59.08V60h-.9l-.14-.11a.66.66,0,0,1,.1-.93.71.71,0,0,1,1,.13Z"/><path class="cls-169" d="M30.3,60.87c.69-.09.92.28.91.9l-.08,0a.56.56,0,0,1-.86,0h0a.57.57,0,0,1-.19-.75A.38.38,0,0,1,30.3,60.87Z"/><path class="cls-170" d="M29.37,60.87,29.32,60a.48.48,0,0,1,.17-.23.58.58,0,0,1,.77.19h0l0,.88-.08,0A.55.55,0,0,1,29.37,60.87Z"/><path class="cls-171" d="M9.59,52.79l0-.87h6.26a.69.69,0,0,1,.09,1,15.6,15.6,0,0,1-6.09.12c-.1,0-.18-.15-.26-.24Z"/><path class="cls-172" d="M15.88,52.77c0-.28,0-.56,0-.84l.87,0c0,.29,0,.59,0,.89C16.48,53.05,16.18,53.12,15.88,52.77Z"/><path class="cls-173" d="M15.88,52.77h.9c.09.71-.25.93-.93.92-2.07,0-4.14,0-6.22,0v-.89Z"/><path class="cls-174" d="M27.59,58.17V56.4h0c.56-.6,1.19-.44,1.83-.17a.77.77,0,0,1,.21,1,4.13,4.13,0,0,1-1.16,1.23A.72.72,0,0,1,27.59,58.17Z"/><path class="cls-175" d="M30.27,61.77l.86,0,0,.9C30.47,62.75,30.18,62.44,30.27,61.77Z"/><path class="cls-176" d="M29.37,60.87l.85,0,.05.88C29.59,61.85,29.29,61.55,29.37,60.87Z"/><path class="cls-177" d="M29.32,60c-.7.08-.93-.3-.9-.93l.1-.15a.73.73,0,0,1,1,.06.67.67,0,0,1-.09,1Z"/><path class="cls-178" d="M27.59,58.17l.86,0c.34.27.28.57.06.88l-.09,0C27.72,59.17,27.49,58.82,27.59,58.17Z"/><path class="cls-179" d="M49.3,53.16c-.46.55-.89,1.11-1.37,1.63a1.56,1.56,0,0,1-2.15.39,1.44,1.44,0,0,0-1.46,0,4.41,4.41,0,0,1-1.89.45,6.71,6.71,0,0,0-4.2,1.54,1.32,1.32,0,0,1-.78.14l-.12,0c-.22-.46-.8-.52-1.07-.92a.94.94,0,0,1,.1-.83,2.29,2.29,0,0,1,1.8-.61,3.74,3.74,0,0,0,2.15-.45,2.4,2.4,0,0,1,1.4-.26,3.17,3.17,0,0,0,2.42-.89c-.66-.08-1.24,0-1.8-.07-.94-.1-1.27-.47-1.23-1.37a10.75,10.75,0,0,1,2.59-1.16,1.84,1.84,0,0,0,1.45-.87,4.34,4.34,0,0,0,1.25-.68,2.22,2.22,0,0,1,2.56.09,3.26,3.26,0,0,1,.21,2.09C49,51.93,49.3,52.54,49.3,53.16Z"/><path class="cls-180" d="M43.74,45.44a1,1,0,0,0,.85-.06c.65-.45.83,0,.93.53s-.12,1,.45,1.13.94-.29,1.32-.62c.18-.15.29-.39.48-.53.4-.3.9-.41,1.09.17.39,1.14,1.1,1.22,2,.81,0,.42,0,.83,0,1.25a2.93,2.93,0,0,1-1.74.78c-.29.07-.65.13-.85-.1-.78-.89-1.66-.25-2.1.15-.92.84-1.89.68-2.9.63l-.27,0a10.62,10.62,0,0,0-3,.81,1.2,1.2,0,0,1-.69.16,1.39,1.39,0,0,0-1.32.73,1.2,1.2,0,0,1-.59.09c-.32,0-.65.07-.91-.18-.3-.85-.21-1.15.56-1.47.48-.19.79-.65,1.3-.77a6.32,6.32,0,0,1,1.5-.16,1.12,1.12,0,0,0,1.36-1A16.5,16.5,0,0,1,43.74,45.44Z"/><path class="cls-181" d="M43,49.21h1.61c.4,0,.78,0,.95-.48a.55.55,0,0,1,.55-.38,1.41,1.41,0,0,0,1.2-.64c.32-.43.73-.39.89.21s.59.78,1.22.54a10,10,0,0,1,1.48-.33c-.26,1.09-1.12,1.08-2,1.1H47.43c-.3,0-.65,0-.8.31-.33.64-.89.6-1.46.59-1.31.46-2.49,1.34-4,1.31a1.49,1.49,0,0,1-1.1-.25c-.21-.77.1-1.22.93-1.26A3,3,0,0,0,43,49.21Z"/><path class="cls-182" d="M50.91,46.51c-1.63,0-2-.6-1.29-2a6.86,6.86,0,0,1,1.08-2c.42-.43.16-1.09.23-1.65,0-.37,0-.93.5-.89s.57.59.5,1a14.85,14.85,0,0,0-.1,2.58c0,.42,0,.83,0,1.24a1.22,1.22,0,0,0-.45.9,1.16,1.16,0,0,1-.44.91Z"/><path class="cls-183" d="M50.92,46.52c0-.29,0-.58,0-.87-.05-.65.2-1,.89-.94,0,.29,0,.58,0,.87C51.87,46.24,51.61,46.58,50.92,46.52Z"/><path class="cls-184" d="M48.2,17.81l0,.86a2.44,2.44,0,0,1-.19,3c-.43.47-.72.95-1.47,1a2.31,2.31,0,0,1-2.33-1.31,1.85,1.85,0,0,0-1.15-.91c-1.08-.37-1.54,0-1.37,1.13a2.07,2.07,0,0,1-.47,1.58c-.41.53-.94.42-1.39-.05a31.91,31.91,0,0,1-.11-5.53,1,1,0,0,1,.37-.69l3.21,0c.79,0,1.58-.12,2.17.68.29.39.89.19,1.36.21S47.75,17.8,48.2,17.81Z"/><path class="cls-185" d="M40.12,16.9l0,6.27a.72.72,0,0,1,0,1.15c-.53.45-.9,1.39-1.87.77a.94.94,0,0,1-.27-.87.55.55,0,0,1,.24-.35c.62-.33.5-.72.1-1.11a1.12,1.12,0,0,1-.25-1.37.62.62,0,0,1,.15-.2c.68-.26.62-.83.61-1.39a10.59,10.59,0,0,1,0-1.95,1,1,0,0,1,.4-.93l0-.08Z"/><path class="cls-186" d="M37.46,16.9v.89c-.62,0-1.24,0-1.85,0s-.91-.27-.85-.9l.92,0Z"/><path class="cls-187" d="M39.23,16.92V20.1c-.46.31-.43,1-.9,1.26h0a1.38,1.38,0,0,1-1.66.26.74.74,0,0,1-.27-.16c-.36-.57,0-1,.35-1.32.23-.19.48-.35.69-.56.64,0,.93-.25.9-.89s0-1.18,0-1.77Z"/><path class="cls-188" d="M38.36,25a2.47,2.47,0,0,0,1.8-1.8,1.15,1.15,0,0,0,1-1.62A1.26,1.26,0,0,1,43,19.92c.73.31,1.5.4,1.82,1.45s1.79,1.08,2.73.35c1.14-.9.51-2,.7-3h.84c0,.95,0,1.91,0,2.86a4.4,4.4,0,0,1-2.35,2.08c-.59.18-.67.76-.67,1.34s0,1-.74.9l-.73,0a1.07,1.07,0,0,1-.78.37c-1.6.06-3.2.06-4.79,0a1.31,1.31,0,0,1-.67-.23.66.66,0,0,1-.16-1Z"/><path class="cls-121" d="M45.35,25.86c.38-.27.34-.63.29-1a1.45,1.45,0,0,1,1-1.69,2.61,2.61,0,0,0,1.68-1.24c.14-.29.48-.32.78-.35v2a1.19,1.19,0,0,0-.9,1.09,4.3,4.3,0,0,1-.7,1.63c-.24.41-.46.74-1,.62S45.34,26.63,45.35,25.86Z"/><path class="cls-189" d="M50.9,31.08v2.85c-.5,1.14-1.74,1.36-2.6,2-.48.39-1.22.18-1.84.18-1.3,0-1.32,0-1.41,1.25,0,.49-.07,1-.6,1.21s-.81-.21-1.21-.33c-.89-.27-1.44-1.13-2.38-1.27a1,1,0,0,1-1.18-1,1.13,1.13,0,0,0-.4-.86.83.83,0,0,1-.25-1,.94.94,0,0,1,.93-.56,6.59,6.59,0,0,1,1.6,0,1.39,1.39,0,0,0,1.77-.92,1.53,1.53,0,0,1,.4-.48c1.15,0,2.31,0,3.46,0,.55,0,1-.08,1.21-.67a4.56,4.56,0,0,1,.55-.8c.38-.55.77-.6,1.2-.06A1.32,1.32,0,0,0,50.9,31.08Z"/><path class="cls-190" d="M43.74,32.14c-.1,1.75-.43,2-2.12,1.84a8.92,8.92,0,0,0-1.79,0c-.5.05-.73.37-.29.78a2.63,2.63,0,0,1,.6,1,1.78,1.78,0,0,1-1.84.35,4.09,4.09,0,0,0-1.67,0,1,1,0,0,1-1.2-.36c-.42-1.4-.14-2.84-.21-4.26,0-.35,0-.71,0-1.06a18.16,18.16,0,0,1,0-2.76c0-.36-.05-.74.27-1a.9.9,0,0,1,1.05,0,1.31,1.31,0,0,1,.32,1,16.57,16.57,0,0,1,0,2.54c0,.38.09.67.52.67,1,0,1.41.61,1.77,1.36,0,.65.3.9.93.9a2.53,2.53,0,0,0,2.2-.66C42.71,32,43.27,32.17,43.74,32.14Z"/><path class="cls-191" d="M39.24,32.15c-.39,0-.78,0-.92-.51s-.56-.4-.91-.39c-.67,0-.93-.28-.83-.92.36-.48.9-.4,1.39-.41a2.67,2.67,0,0,0,1.9-.61A1,1,0,0,1,41,29.18c.66.38,1.28-.29,1.94-.08a6.26,6.26,0,0,1,.75,0c.55,0,1,0,.7-.82a.54.54,0,0,1,.17-.57l.11-.05a1.13,1.13,0,0,1,1.15.53.75.75,0,0,0,.69.36c.76,0,.86.41.87,1,0,1.69,0,1.69-1.65,1.68-.51,0-1.31.17-1.47-.07-.84-1.25-1.43-.22-2.1.1-.11,0-.26.1-.3.18-.36.85-1.1.67-1.77.68Z"/><path class="cls-192" d="M38.36,25.87l6.26,0c0,.58,0,1.17,0,1.76h0a.71.71,0,0,1-.81.26c-.54-.12-.68-1-1.39-.77A14.71,14.71,0,0,1,38.51,27a.88.88,0,0,1-.28-.16.68.68,0,0,1,0-.9Z"/><path class="cls-193" d="M41,36.64c.4,0,.78,0,1,.48s.41.4.73.41a1.1,1.1,0,0,1,1,.5c.12.17.26.35.51.29a.54.54,0,0,0,.37-.55c0-.45,0-.9,0-1.34,0-.66.31-1,1-.81a8.25,8.25,0,0,0,1.79.11,1.12,1.12,0,0,0,1-.42.94.94,0,0,1,.65-.43,1.09,1.09,0,0,0,1-.68c.14-.33.51-.24.8-.27,0,.12,0,.25,0,.37s0,.36,0,.54a4,4,0,0,1-3.65,2.24c-.87,0-1.21.4-1.28,1.29s0,1.49,0,2.24c0,.51,0,1.08-.67,1.21s-.88-.36-1.06-.86-.29-.66-.74-.66c-.86-.33-1-1.37-1.76-1.83a7.14,7.14,0,0,1-.63-.61A.73.73,0,0,1,41,36.64Z"/><path class="cls-194" d="M43.56,40.05c.47-.61.75-.55,1,.22.12.44,0,1.25.65,1.17s.32-.86.36-1.33a12.2,12.2,0,0,1,.13-2.49c.14-.53.42-1,1-.95,1.58.19,2.66-.7,3.78-1.57a2.68,2.68,0,0,1,.47-.26,2.64,2.64,0,0,1-2.7,2.69c-.66,0-1.44-.17-1.73.73a2.18,2.18,0,0,0,.76,2.38c.42.39,1,.48,1.33,1a7.47,7.47,0,0,1-1.31,3.16c-.3.35-.46.66-1,.2a1.61,1.61,0,0,0-1.74-.35.8.8,0,0,1-.83-.13c-.68-.55-1.21-1.31-2.15-1.49-.34-.58-.94-.55-1.49-.63-.82-.11-1.06-.45-1-1.35.46-.53,1.24-.26,1.73-.71.26,0,.54-.16.78,0A1.5,1.5,0,0,0,43.56,40.05Z"/><path class="cls-195" d="M41.76,42.91c1.28,0,1.82.48,2,1.63v.9a.76.76,0,0,1-.39,1c-.63.38-1.18.87-1.77,1.31-.57.13-.83-.18-.91-.68a2.79,2.79,0,0,1,0-1.15c.05-.1.08-.24.18-.29.84-.42.86-1.09.6-1.86a.7.7,0,0,1,.15-.82Z"/><path class="cls-196" d="M37.45,19.58c0,.34.06.75-.41.87s-.49.52-.49.91c-.75.9-1.33,1.93-2,2.86a2.42,2.42,0,0,0-.26,1,1.25,1.25,0,0,1-.39.88,6.46,6.46,0,0,1-2.44.11c-.68-.18-.84.44-1.2.76a.69.69,0,0,1-.83-.22l-.58-.06a3.18,3.18,0,0,1,2.61-2.52.7.7,0,0,0,.63-.83c-.11-1.8,1.26-2.72,3-2.88.63,0,1.24,0,1.58-.71C36.76,19.49,37.16,19.59,37.45,19.58Z"/><path class="cls-197" d="M29.39,26.78l.87-.05a1.12,1.12,0,0,1,1-.34,5.35,5.35,0,0,1,1.06,0c.86.09,1.06.4.83,1.31a1.19,1.19,0,0,1-1,.34,5.86,5.86,0,0,1-2.6-.14.45.45,0,0,1-.19-.26Z"/><path class="cls-198" d="M28.49,30.33c0-.88,0-1.76,0-2.64l.89-.07v.09c.52.51.68,1.26,1.14,1.82.24.3.07.73-.27,1C29.62,30.76,29,31,28.49,30.33Z"/><path class="cls-199" d="M16.83,61.77l-.06-6.25,0-.21a1,1,0,0,1,.88.3c.46.66,1.13.63,1.8.6.38.2.4.57.42.92,0,1.31.06,2.61,0,3.91-.05.88-.27,1.11-1.15,1.14C18.09,62.2,17.36,62.41,16.83,61.77Z"/><path class="cls-200" d="M16.83,61.77c.54,0,1.08,0,1.61,0,.76.06,1.08-.21,1.06-1-.05-1.52,0-3,0-4.56,0-.66.39-.75.91-.71,0,2.08,0,4.16,0,6.24,0,.67-.18,1-.91.94s-1.78,0-2.67,0Z"/><path class="cls-201" d="M29.36,56.38l-1.78,0c0-.31,0-.61,0-.92a.62.62,0,0,1,0-.9v-.89a.61.61,0,0,1,0-.89h.05c.4,0,.77,0,.9-.49s.53-.37.88-.4l.14.08c.42.53.22,1.15.24,1.74a9.74,9.74,0,0,1,0,1.79C29.72,55.85,29.74,56.2,29.36,56.38Z"/><path class="cls-173" d="M27.54,52.8v.89c-2.07,0-4.14,0-6.22,0-.67,0-1-.21-.92-.92Z"/><path class="cls-202" d="M27.54,54.58l0,.9-6.27.05-.89,0c-.11-.73.24-.93.92-.92C23.39,54.61,25.47,54.59,27.54,54.58Z"/><path class="cls-203" d="M20.4,51.93v.86c-.36,0-.89.12-.85-.48S20.06,51.94,20.4,51.93Z"/><path class="cls-204" d="M28.46,50.12c.7-.11,1,.2.9.89C28.66,51.11,28.37,50.8,28.46,50.12Z"/><path class="cls-205" d="M29.36,51l.91,0,.13.11a.65.65,0,1,1-1,.79h0Z"/><path class="cls-206" d="M30.29,37.57c.63,0,.95-.26.91-.91H33a.67.67,0,0,1,.23.8c-.22.36-.68.55-.55,1.17.07.38-.32.78-.75,1a1.43,1.43,0,0,1-1.63-.26Z"/><path class="cls-207" d="M29.35,42.9a1.28,1.28,0,0,0-.17-.88c.09-.62.4-1,1.07-.91a1.49,1.49,0,0,0,.84-.2.92.92,0,0,1,1.3.34A2.52,2.52,0,0,1,32.22,43c-.24.33-.6.28-.94.28s-.65,0-1,0a1.07,1.07,0,0,1-.89-.24Z"/><path class="cls-208" d="M32.05,41.12c-.29,0-.63,0-.8.27s-.2.7-.66.56-.29-.53-.34-.84c0-.59,0-1.18,0-1.77l1.81,0,.14.1C32.51,40,32.67,40.61,32.05,41.12Z"/><path class="cls-209" d="M27.58,32.15v-.88c.8-.75,1.69-.45,2.58-.26a2,2,0,0,0,1.39.77.8.8,0,0,1,.67.37.62.62,0,0,1-.18.88l-1.69,0a1,1,0,0,1-1.07-.56C28.92,31.81,28.15,32.27,27.58,32.15Z"/><path class="cls-210" d="M32.05,33v-.89l.06-.12c.48-.21.51-.86,1-1a.79.79,0,0,1,.89.25c.29.93.57,1.85-.17,2.71h-1.8Z"/><path class="cls-211" d="M32.92,37.49c0-.28,0-.56,0-.84l.86,0a.72.72,0,0,1,.9-.17.59.59,0,0,1,.24.23.83.83,0,0,1-.11.95,1.62,1.62,0,0,1-1.73.13A.52.52,0,0,1,32.92,37.49Z"/><path class="cls-212" d="M34.72,36.62h-.9c0-.29,0-.58,0-.87h0a.67.67,0,0,1,1-.06A.61.61,0,0,1,34.72,36.62Z"/><path class="cls-213" d="M34.76,35.74h-.9c0-.59,0-1.19,0-1.79,0-.9,0-1.8,0-2.7L34,31.1a.76.76,0,0,1,1,.09,8.14,8.14,0,0,1,0,4.46Z"/><path class="cls-214" d="M30.24,31.29l-2.65,0c0-.31,0-.62,0-.92l.89,0,1.77,0,.12.06a.55.55,0,0,1,.08.74A.46.46,0,0,1,30.24,31.29Z"/><path class="cls-207" d="M29.36,43.82h-.88c-.09-.67.2-1,.87-.93l0,0a.54.54,0,0,1,.1.79Z"/><path class="cls-215" d="M30.24,48.49l0-2.85c.16-.38.49-.39.83-.38,1.15,0,1.41.13,1.34,1.24s.82,1.35,1.54,1.74a1.42,1.42,0,0,1,.22,1,1.37,1.37,0,0,1-.24,1,2.51,2.51,0,0,1-3.7-1Z"/><path class="cls-216" d="M30.27,49.21c.39,0,.78,0,.91.5s.4.39.7.39l2,0,.14.1a.71.71,0,0,1-.06,1,1.41,1.41,0,0,1-1,.25c-.9,0-1.85.37-2.66-.36v0A1.34,1.34,0,0,0,30,50C29.6,49.57,29.93,49.39,30.27,49.21Z"/><path class="cls-217" d="M31.14,45.59l-.86,0c-.68,0-1-.22-.93-.93a6.63,6.63,0,0,0,0-.89h0a.74.74,0,0,1,.85-.24c.51.27.62.91,1.13,1.17A.65.65,0,0,1,31.14,45.59Z"/><path class="cls-218" d="M36.57,58.18l0-.89.09-.12a.59.59,0,0,1,.84.12h0v.9Z"/><path class="cls-219" d="M28.51,59.08l-.06-.88c-.06-.69.27-1,.94-1a.55.55,0,0,1,.86,0l0,.86,0,.12c-.38.19-.42.75-.91.82Z"/><path class="cls-220" d="M30.25,57.3l-.86,0,0-.87c0-.3,0-.6,0-.9a.67.67,0,0,1,.84-.19,6.83,6.83,0,0,0,1.14,1.14.69.69,0,0,1-.18.86Z"/><path class="cls-221" d="M33,58.17c-.66.09-1-.18-.95-.85l.1-.15a.66.66,0,1,1,.85,1Z"/><path class="cls-222" d="M33,58.17l0-.85.09-.14a.67.67,0,0,1,.95,0,.69.69,0,0,1-.08.95l-.06.06Z"/><path class="cls-223" d="M31.17,59.08h-.91a.54.54,0,0,1,0-.86l.05-.06C31,58.11,31.26,58.4,31.17,59.08Z"/><path class="cls-224" d="M31.18,57.29l-.06-.88.1-.14a.67.67,0,0,1,.94.06.66.66,0,0,1-.08.94l0,0Z"/><path class="cls-225" d="M33.89,58.16l-.06-.85a2.43,2.43,0,0,1,1-1.17.91.91,0,0,1,.93.17.68.68,0,0,1-.08,1C35.55,58.26,35.55,58.26,33.89,58.16Z"/><path class="cls-226" d="M35.68,57.27l-.06-.86a.72.72,0,0,1-.11-.94.67.67,0,0,1,.93-.11l.1.14,0,.89a.63.63,0,0,1,0,.9h-.08Z"/><path class="cls-227" d="M30.24,58.22l0,.86V60l-.87,0c0-.29,0-.57-.05-.86C29.32,58.48,29.5,58.07,30.24,58.22Z"/><path class="cls-228" d="M41.22,51.9a1.39,1.39,0,0,0,1.49.9c.72,0,1.44,0,2.15,0,.24,0,.51,0,.55.35s-.26.35-.47.45A27.8,27.8,0,0,1,41,54.77c-1.49.43-3,.43-4.45.73h0a2.94,2.94,0,0,0-1-.81.86.86,0,0,0-1-.64,1,1,0,0,1-.84-.35.81.81,0,0,1,0-1,3.41,3.41,0,0,1,2.17-.36,3,3,0,0,0,2.32-.66C38.7,51.2,40.67,51.43,41.22,51.9Z"/><path class="cls-229" d="M41.22,51.9H39.53c-.56,0-1.06,0-1.38.58-.2.34-.62.31-1,.32h-3.3a.62.62,0,0,1-.24-.84.69.69,0,0,1,.2-.25,1.46,1.46,0,0,1,.87-.18c.55,0,1.11-.09,1.66-.08A1.29,1.29,0,0,0,37.45,51H38a1.63,1.63,0,0,1,2.15,0h2a1.41,1.41,0,0,0,1.08-.32,2.24,2.24,0,0,1,2-.57c-.06.3-.24.69-.49.68C43.39,50.78,42.49,51.92,41.22,51.9Z"/><path class="cls-154" d="M36.6,57.29c0-.3,0-.6,0-.9.67-.07.93.26.87.9Z"/><path class="cls-230" d="M41,45.79c.07.69-.26,1.49.54,2,0,1.3-.16,1.43-1.45,1.44h-1.6C38,48.8,37.28,48.63,37,48c-.11-.22-.36-.17-.56-.18a1.39,1.39,0,0,1-.79-.2,1.18,1.18,0,0,0-1.14-.65.89.89,0,0,1-.78-.33,1,1,0,0,1-.06-.9.68.68,0,0,1,.18-.26,1.41,1.41,0,0,1,.87-.18c.75,0,1.5,0,1.91-.84a9.11,9.11,0,0,1,2.21-.1C40.25,44.27,40.73,44.59,41,45.79Z"/><path class="cls-231" d="M36.53,47.42a2.94,2.94,0,0,1,2,1.79c-.48.35-.79.93-1.51,1-.35,0-.31.53-.47.79-.52.64-1.14.43-1.76.2a.78.78,0,0,1-.32-.86,1.33,1.33,0,0,1,.1-.28,2.35,2.35,0,0,0,1-1,.75.75,0,0,0,.54-.71A1.16,1.16,0,0,1,36.53,47.42Z"/><path class="cls-232" d="M40.14,51H38c.11-.63.49-.82,1.11-.92A10.48,10.48,0,0,0,42,49.34,2.56,2.56,0,0,1,43,49.21c0,.75-.48.93-1.13.9S40.46,50.19,40.14,51Z"/><path class="cls-232" d="M34.76,51l1.79,0,.9,0c.07.71-.29.93-1,.89s-1.17,0-1.75,0a.56.56,0,0,1-.11-.8Z"/><path class="cls-233" d="M33.83,25.82a3.71,3.71,0,0,1,.68-2.45,10,10,0,0,0,1.18-1.68c.2-.37.54-.29.86-.33v0c.15.15.34.28.35.51,0,.58.35.78.9.87.86.14,1,.51.54,1.29,0,.3,0,.61,0,.91h0c-.45.28-.58.85-1,1.14a4,4,0,0,1-1.75.13C35,26.19,34.29,26.51,33.83,25.82Z"/><path class="cls-234" d="M38.35,24.06c0-.54-.12-.87-.77-.91-1.33-.06-1.33-.1-1-1.32a2.12,2.12,0,0,0,0-.44l1.78,0a2,2,0,0,0,.48,1.38C39.43,23.57,39.36,23.73,38.35,24.06Z"/><path class="cls-234" d="M38.34,21.36c0-.65,0-1.29.9-1.26C39.25,20.74,39.38,21.48,38.34,21.36Z"/><path class="cls-185" d="M37.44,25.82c-.06-.68.27-.93.92-.85v.9h0a.58.58,0,0,1-.76.16A.4.4,0,0,1,37.44,25.82Z"/><path class="cls-235" d="M34.72,36.62l0-.88h0a.57.57,0,0,1,.87,0,1.64,1.64,0,0,0,1.25-.27.54.54,0,0,1,.66-.06,5.46,5.46,0,0,0,2.59.35c-.06.66.25.95.9.9-.22.78.54.92.91,1.24a16.92,16.92,0,0,1,1.61,2.17c-.24,1.07-.75,1.33-1.71.89-.26-.13-.53-.24-.8-.36s-.34-.37-.51-.55c-.35-.39-.71-.79-1.32-.44a.94.94,0,0,1-.93-.08.51.51,0,0,1-.17-.21.92.92,0,0,1,0-.67.8.8,0,0,1,0-.27c.65-1.27.64-1.29-.84-1.29H35.74a1,1,0,0,1-.94-.41Z"/><path class="cls-236" d="M41,29.46c-.24,0-.57,0-.69.09-1.08,1.18-2.48.71-3.77.78,0-.89,0-1.78,0-2.67.51-.61,1.15-.39,1.77-.27a4.49,4.49,0,0,0,2.28.81C41.35,28.25,41.48,28.76,41,29.46Z"/><path class="cls-237" d="M33.83,25.82l1.84.06a.6.6,0,0,1,0,.89l-.05.89a.63.63,0,0,1-.76.25,1.22,1.22,0,0,1-.24-.1c-.08-.06-.14-.2-.25-.17s-.1.21-.12.34c0,.57.2,1.2-.36,1.65a1,1,0,0,1-1-.06,1.48,1.48,0,0,1,.08-1.91c.1-.64-.15-.95-.81-.9-.32,0-.65,0-1,0a.55.55,0,0,1,0-.85Z"/><path class="cls-238" d="M35.64,35.72l-.88,0c0-1.5,0-3,0-4.5a.66.66,0,0,1-.06-1,.64.64,0,0,1,1,0Z"/><path class="cls-239" d="M35.63,30.33l-.83,0-.16-.08a2.27,2.27,0,0,1,.11-2.61h.87C35.62,28.55,35.63,29.44,35.63,30.33Z"/><path class="cls-240" d="M35.67,26.77v-.89l1.77-.06v.07a.64.64,0,0,1,.08.95.66.66,0,0,1-1-.06Z"/><path class="cls-241" d="M36.57,26.78l.86-.05a.62.62,0,0,1,.91,0l0,.05a.54.54,0,0,1,0,.86H36.57Z"/><path class="cls-242" d="M38.34,27.65l0-.86,4.29,0a3.31,3.31,0,0,1,.18,2.67c-.31,0-.69-.05-.85.35s-.21.6-.6.5-.31-.52-.35-.83c.11-.88-.45-.95-1.1-.91S38.5,28.61,38.34,27.65Z"/><path class="cls-243" d="M42.84,29.44c0-.09,0-.21,0-.26a1.92,1.92,0,0,1-.17-2.41c.66-.08,1.06.18,1.08.89a1.18,1.18,0,0,1,0,1.78Z"/><path class="cls-244" d="M43.73,29.44V27.66h.89a.87.87,0,0,0,.53,1,.44.44,0,0,1,.29.5c-.05.3-.31.33-.55.34Z"/><path class="cls-245" d="M38.34,26.74h-.91c0-.28,0-.56,0-.84h.91C38.36,26.17,38.35,26.46,38.34,26.74Z"/><path class="cls-195" d="M39.25,41.12a1.15,1.15,0,0,0,1.22.92,1.26,1.26,0,0,1,1.29.87v0c-.45.54-1.08.4-1.65.42a5.28,5.28,0,0,1-1.68-.12c-.35-.93-1.41-.62-2-1.12-.22-.49-.68-.5-1.12-.59-.85-.17-1-.54-.66-1.41a2,2,0,0,1,1.17-.31,1.87,1.87,0,0,0,1.36-.5.73.73,0,0,1,1.16,0h.06c.26.28.49.58.76.86S39.54,40.77,39.25,41.12Z"/><path class="cls-246" d="M39.25,41.12c-.15-.66-1.17-.9-.87-1.79a.79.79,0,0,0,.91-.51c.2-.51.55-.5.82,0s1.25.86.94,1.78c-.07.52-.44.54-.84.54Z"/><path class="cls-247" d="M38.35,42.92h3.4c.11.46.2.92.32,1.37.29,1,.08,1.35-1,1.49-.4-.2-.82-.3-1-.83s-.73-.2-1.12-.25c-.37-.24-.79-.39-1.16-.62a.73.73,0,0,1-.32-1C37.62,42.65,38,42.63,38.35,42.92Z"/><path class="cls-248" d="M31.18,25.88l0,.85h-.89C30.19,26,30.52,25.77,31.18,25.88Z"/><path class="cls-249" d="M30.26,30.35c0-.26.08-.65-.17-.73-1.08-.35-.62-1.23-.72-1.91l2.66,0a2.39,2.39,0,0,1,.12,2.76,1.46,1.46,0,0,1-1.89-.06Z"/><path class="cls-250" d="M32,30.3l0-2.63h.9l.06,1.8a.7.7,0,0,1,.13.92.71.71,0,0,1-.91.17A.51.51,0,0,1,32,30.3Z"/><path class="cls-251" d="M30.23,55.52l-.85,0V53.71a.67.67,0,0,1,.93-.14,1.58,1.58,0,0,1,.18,1.74A.49.49,0,0,1,30.23,55.52Z"/><path class="cls-252" d="M30.23,53.69l-.85,0V51.89l.88,0,.13.06a.86.86,0,0,1,.22.78c0,.27.06.56-.15.79A.41.41,0,0,1,30.23,53.69Z"/><path class="cls-253" d="M30.26,51H33a.72.72,0,0,1,.12,1c-.27.32-.65.26-1,.27-.63,0-1.3.22-1.81-.36h0Z"/><path class="cls-211" d="M32.07,39.32c0-.3.29-.55.14-.86-.37-.78.06-1,.71-1l0,0a1.39,1.39,0,0,1,.1,1.85.69.69,0,0,1-1,0Z"/><path class="cls-254" d="M32.06,39.34l.91,0,.14.1A4.6,4.6,0,0,1,33,43a.65.65,0,0,1-1-.14V41.12C32.05,40.53,32.06,39.93,32.06,39.34Z"/><path class="cls-255" d="M32.05,42.89H33a.7.7,0,0,1,1-.09.8.8,0,0,1,.14,1,.64.64,0,0,1-.25.24,3.27,3.27,0,0,1-2.72-.11.65.65,0,0,1,.09-1Z"/><path class="cls-256" d="M31.17,43l0,.88a.56.56,0,0,1,.08.8l-.12.08c-.69.08-1-.25-.91-.91a.57.57,0,0,1,0-.87Z"/><path class="cls-257" d="M30.29,42.94c0,.29,0,.58,0,.87h-.88c0-.29,0-.59,0-.88Z"/><path class="cls-258" d="M32.05,32.14a6.32,6.32,0,0,0-.87,0c-.68.1-1-.18-.94-.86l0-.06a1.41,1.41,0,0,1,1.85-.09.7.7,0,0,1-.07,1Z"/><path class="cls-259" d="M32.93,30.32l.06-.86.84,0c.41.18.38.54.38.89a.94.94,0,0,1-.36.92h0l-.88,0-.13-.08A.62.62,0,0,1,32.93,30.32Z"/><path class="cls-260" d="M32.06,32.14l0-.91.09-.12a.57.57,0,0,1,.8.11l0,0C33,31.92,32.74,32.25,32.06,32.14Z"/><path class="cls-261" d="M34.8,36.65h3.37c1.21,0,1.35.27.78,1.36a2,2,0,0,1-.62.61.61.61,0,0,1-.95.06,2.31,2.31,0,0,0-2-.74,1.09,1.09,0,0,1-.49-.19.48.48,0,0,1-.17-.23Z"/><path class="cls-262" d="M33,39.31c0-.59,0-1.18,0-1.77l1.75,0,.06,0a1.52,1.52,0,0,1,.16,1.86,1.39,1.39,0,0,1-1,.28,1,1,0,0,1-.95-.34Z"/><path class="cls-263" d="M33.85,31.25l0-.92a.53.53,0,0,1,.83,0h.09l-.06.89Z"/><path class="cls-264" d="M32,31.23H30.28c0-.28,0-.57,0-.86L32,30.3l.07.06a.57.57,0,0,1,0,.88Z"/><path class="cls-265" d="M31.14,45.59l0-.87h0c.78-.72,1.67-.45,2.55-.26a.65.65,0,0,1,.11,1.14v0c-.26.24-.55.46-.53.88s.67.47.76.9a.71.71,0,0,1-.11.82l-.13.08c-1.83-.06-1.82.27-1.79-1.77C32.08,45.84,31.81,45.55,31.14,45.59Z"/><path class="cls-266" d="M33.84,50.06l0-.85a.64.64,0,1,1,.9.9h0a.61.61,0,0,1-.9,0Z"/><path class="cls-267" d="M34.76,49.21h-.9v-.92a.67.67,0,0,1,.94-.06.63.63,0,0,1,.11.86Z"/><path class="cls-268" d="M33.86,50.12h.9V51h0a.58.58,0,0,1-.76.17.34.34,0,0,1-.15-.23Z"/><path class="cls-269" d="M32.94,51.88c0-.29,0-.58,0-.87l.89-.06V51a.55.55,0,0,1,0,.85v0C33.55,52.16,33.24,52.23,32.94,51.88Z"/><path class="cls-270" d="M31.12,56.41c-.65.06-.91-.28-.89-.89l.07-.05a.64.64,0,0,1,.94,0,.66.66,0,0,1,0,.95Z"/><path class="cls-271" d="M32.08,57.27l0-.85.09-.14a.67.67,0,0,1,.95,0,.66.66,0,0,1-.1.94l0,.06Z"/><path class="cls-272" d="M33,57.26l0-.85c-.17-.81.32-1.08,1-1.21a.92.92,0,0,1,.94.23.67.67,0,0,1-.1,1c.07.68-.25,1-.93.93Z"/><path class="cls-273" d="M31.19,56.37l-.05-.86.12-.14a.62.62,0,0,1,.91.13.6.6,0,0,1-.09.85l0,.07Z"/><path class="cls-274" d="M34.76,56.38l0-.86.07-.13a.54.54,0,0,1,.78,0l.07.12,0,.91Z"/><path class="cls-275" d="M35.68,54.57c.66,0,1,.27.85.94h-.88a.6.6,0,0,1-.19-.76A.38.38,0,0,1,35.68,54.57Z"/><path class="cls-276" d="M32.94,51.88l.92,0c0,.3,0,.6,0,.9s0,.56,0,.84l0,.13a.63.63,0,0,1-.78.16.61.61,0,0,1-.24-.15A1.34,1.34,0,0,0,32,53a.69.69,0,0,1-.14-.25.62.62,0,0,1,.27-.78Z"/><path class="cls-277" d="M34.73,53.71c.67-.09,1,.19,1,.86l0,0a.68.68,0,0,1-.85.18.66.66,0,0,1-.22-.22A.69.69,0,0,1,34.73,53.71Z"/><path class="cls-278" d="M34.73,53.71l0,.89c-.21.35-.51.33-.84.21a.52.52,0,0,1-.23-.21.65.65,0,0,1,.17-.87v-.08Z"/><path class="cls-231" d="M33.85,51.89V51l.9,0v.88Z"/><path class="cls-279" d="M33.88,43.78v-.84l0-.13c.38-.4.88-.29,1.34-.32s.91,0,1.2-.43l.12-.05c.3,0,.6,0,.9,0,.66-.05.93.25.88.9-.25,0-.56,0-.64.31s.13.49.39.59a1.64,1.64,0,0,1,.79.89H36.56c-.22.23-.54.45-.78.26C35.19,44.5,34.4,44.35,33.88,43.78Z"/><path class="cls-280" d="M33.88,43.78c.7.12,1.58-.29,1.94.76.09.25.48.15.74.17.07.7-.28,1-.94.91-.29,0-.58,0-.87,0-.31-.29-.58-.61-.91-.88h0a.6.6,0,0,1,0-.89Z"/><path class="cls-281" d="M33.86,47.43c-.67,0-1-.19-.87-.92a.61.61,0,0,1,.9,0c.33,0,.65.05,1,0,.63,0,.85.28.81.86l-.08.16A1.28,1.28,0,0,1,33.86,47.43Z"/><path class="cls-282" d="M36.53,47.42c0,.32,0,.64,0,1,.07.65-.22.91-.85.87a.58.58,0,0,1-.26-.18,1.25,1.25,0,0,1,.17-1.6l.05-.1Z"/><path class="cls-283" d="M33.89,46.48l-.9,0c-.13-.71.17-1,.87-.88Z"/><path class="cls-284" d="M33.84,44.73c.68-.09,1,.18.91.88h-.9Z"/><path class="cls-285" d="M34.76,50.11v-.9h0a.58.58,0,0,1,.88,0l.07,0C35.73,49.91,35.43,50.21,34.76,50.11Z"/><path class="cls-286" d="M34.74,39.33l0-1.79h1.42c.59,0,1.18-.08,1.38.72.08.31.46.33.76.36,0,.23,0,.47,0,.71-.39,0-.78,0-.9.5s-.4.4-.71.4H34.77C34.43,39.92,34.5,39.63,34.74,39.33Z"/><path class="cls-287" d="M34.71,30.35l-.83,0c0-.3,0-.59-.05-.89l.05-1.76a.55.55,0,0,1,.86,0h0Z"/><path class="cls-288" d="M34.74,27.67h-.86c0-.35-.16-.86.42-.87S34.71,27.31,34.74,27.67Z"/><path class="cls-289" d="M34.74,39.33l0,.88c-.1.71.24,1,.91.92s.92.27.89.88l0,0a2.65,2.65,0,0,1-2.78.12,2.64,2.64,0,0,1,.1-2.8Z"/><path class="cls-290" d="M32.05,31.24c0-.3,0-.59,0-.88l.86,0v.9Z"/><path class="cls-291" d="M31.14,55.51l-.84,0c0-.6-.05-1.19-.07-1.78h0c.49-.59,1.15-.37,1.77-.37a1,1,0,0,1,.92.35v0a.7.7,0,0,1,.23.84c-.18.44-.58.44-1,.47a1.26,1.26,0,0,0-1,.43Z"/><path class="cls-292" d="M32.07,53.69h-1.8v-.89a1.18,1.18,0,0,1,1.79,0h0A.59.59,0,0,1,32.07,53.69Z"/><path class="cls-269" d="M32.06,52.8H30.27v-.9l1.83,0Z"/><path class="cls-293" d="M33.84,39.35l0,2.65a.65.65,0,0,1,0,.93h0l-.92,0c0-1.19,0-2.38,0-3.56Z"/><path class="cls-284" d="M33.83,43.84c0,.3,0,.6,0,.89H31.19c0-.3,0-.59,0-.89Z"/><path class="cls-294" d="M35.64,49.2h-.88c.1-.71-.24-1-.92-.92,0-.29,0-.57,0-.86l1.76,0C35.62,48.05,35.63,48.62,35.64,49.2Z"/><path class="cls-295" d="M31.21,55.45c-.12-.62.16-.89.78-.86.32,0,.65,0,1,0a.6.6,0,0,1,.89,0h0a.58.58,0,0,1,0,.89,3.23,3.23,0,0,0-.92.92l-.86-.06Q32.14,55.42,31.21,55.45Z"/><path class="cls-296" d="M33.86,55.49V54.6h.9a.58.58,0,0,1,0,.87l-.06.05Z"/><path class="cls-297" d="M34.78,55.47l0-.87.88,0c0,.29,0,.58,0,.88Z"/><path class="cls-298" d="M33.86,54.59H33c0-.29,0-.58,0-.87l.9,0Z"/><path class="cls-269" d="M32.07,53.69V52.8c.69-.1,1,.22.9.88Z"/><path class="cls-299" d="M33.86,42.93c0-.31,0-.62,0-.93l2.64,0c.11.65-.18.92-.82.89S34.47,42.93,33.86,42.93Z"/></g></g></svg>