<svg xmlns="http://www.w3.org/2000/svg" viewBox="0 0 74 74"><defs><style>.cls-1{fill:#1e2223;}.cls-2{fill:#606060;}.cls-3{fill:#1a1a1a;}.cls-4{fill:#283024;}.cls-5{fill:#536345;}.cls-6{fill:#6a6d5a;}.cls-7{fill:#2d2d2d;}.cls-8{fill:#515151;}.cls-9{fill:#151515;}.cls-10{fill:#a8a8a8;}.cls-11{fill:#212121;}.cls-12{fill:#2b2a28;}.cls-13{fill:#232721;}.cls-14{fill:#959595;}.cls-15{fill:#2c2c2c;}.cls-16{fill:#727272;}.cls-17{fill:#5a5a5a;}.cls-18{fill:#646464;}.cls-19{fill:#3b3b3b;}.cls-20{fill:#484848;}.cls-21{fill:#292929;}.cls-22{fill:#5d6c4f;}.cls-23{fill:#21211f;}.cls-24{fill:#323232;}.cls-25{fill:#1f1f1f;}.cls-26{fill:#444;}.cls-27{fill:#252424;}.cls-28{fill:#818181;}.cls-29{fill:#393939;}.cls-30{fill:#141414;}.cls-31{fill:#272727;}.cls-32{fill:#222321;}.cls-33{fill:#5f5f5f;}.cls-34{fill:#1f221d;}.cls-35{fill:#2e2e2e;}.cls-36{fill:#535e46;}.cls-37{fill:#45553a;}.cls-38{fill:#282c24;}.cls-39{fill:#303030;}.cls-40{fill:#232321;}.cls-41{fill:#383838;}.cls-42{fill:#6f6f6f;}.cls-43{fill:#2f2f2f;}.cls-44{fill:#121212;}.cls-45{fill:#8e8e8e;}.cls-46{fill:#21221f;}.cls-47{fill:#474747;}.cls-48{fill:#6e706e;}.cls-49{fill:#777977;}.cls-50{fill:#707070;}.cls-51{fill:#7c7c7c;}.cls-52{fill:#464646;}.cls-53{fill:#424242;}.cls-54{fill:#252524;}.cls-55{fill:#31302f;}.cls-56{fill:#333;}.cls-57{fill:#393c32;}.cls-58{fill:#1d221b;}.cls-59{fill:#505f43;}.cls-60{fill:#979c7c;}.cls-61{fill:#47563c;}.cls-62{fill:#49533f;}.cls-63{fill:#85876d;}.cls-64{fill:#b5b6b4;}.cls-65{fill:#6e7c5b;}.cls-66{fill:#454a3b;}.cls-67{fill:#c7c5bc;}.cls-68{fill:#7b7969;}.cls-69{fill:#d2d0ca;}.cls-70{fill:#9d9c90;}.cls-71{fill:#4d4e41;}.cls-72{fill:#232323;}.cls-73{fill:#747474;}.cls-74{fill:#7b7b7b;}.cls-75{fill:#686868;}.cls-76{fill:#ededed;}.cls-77{fill:#919191;}.cls-78{fill:#d5d5d5;}.cls-79{fill:#787878;}.cls-80{fill:#404140;}.cls-81{fill:#6a6a57;}.cls-82{fill:#4b4a47;}.cls-83{fill:#555947;}.cls-84{fill:#626262;}.cls-85{fill:#cececd;}.cls-86{fill:#6c6c6b;}.cls-87{fill:#bdbdbd;}.cls-88{fill:#757575;}.cls-89{fill:#b1b1b1;}.cls-90{fill:#b8b8b8;}.cls-91{fill:#8b8b8b;}.cls-92{fill:#545454;}.cls-93{fill:#4f4f4f;}.cls-94{fill:#999;}.cls-95{fill:#434242;}.cls-96{fill:#838383;}.cls-97{fill:#7a7a7a;}.cls-98{fill:#a9a9a9;}.cls-99{fill:#9c9c9c;}.cls-100{fill:#aeb1ad;}.cls-101{fill:#c7c7c7;}.cls-102{fill:#767676;}.cls-103{fill:#969696;}.cls-104{fill:#575757;}.cls-105{fill:#6d6d6d;}.cls-106{fill:#434343;}.cls-107{fill:#646a53;}.cls-108{fill:#828581;}.cls-109{fill:#5b5c5b;}.cls-110{fill:#3e3e3e;}.cls-111{fill:#9b9c9a;}.cls-112{fill:#6e6e6e;}.cls-113{fill:#3c3c3b;}.cls-114{fill:#363636;}.cls-115{fill:#656d54;}.cls-116{fill:#9ca080;}.cls-117{fill:#93987a;}.cls-118{fill:#788263;}.cls-119{fill:#b0b090;}.cls-120{fill:#515846;}.cls-121{fill:#636852;}.cls-122{fill:#534d48;}.cls-123{fill:#637151;}.cls-124{fill:#8f8c76;}.cls-125{fill:#4a4641;}.cls-126{fill:#58594b;}.cls-127{fill:#616555;}.cls-128{fill:#c7c5ba;}.cls-129{fill:#959284;}.cls-130{fill:#c4c4c4;}.cls-131{fill:#e8e8e8;}.cls-132{fill:#8a8a8a;}.cls-133{fill:#a6a6a6;}.cls-134{fill:#cdcdcd;}.cls-135{fill:#cacaca;}.cls-136{fill:#6a6a6a;}.cls-137{fill:#dadada;}.cls-138{fill:#7c7d7c;}.cls-139{fill:#cac8bf;}.cls-140{fill:#5f624e;}.cls-141{fill:#888c70;}.cls-142{fill:#909090;}.cls-143{fill:#777;}.cls-144{fill:#797979;}.cls-145{fill:#505050;}.cls-146{fill:#5c5c5c;}.cls-147{fill:#4f4e4e;}.cls-148{fill:#939393;}.cls-149{fill:#d3d3d3;}.cls-150{fill:#717171;}.cls-151{fill:#9d9d9d;}.cls-152{fill:#4f4e4b;}.cls-153{fill:#e7e7e5;}.cls-154{fill:#6d6c6c;}.cls-155{fill:#d9dad9;}.cls-156{fill:#f9f9f9;}.cls-157{fill:#d2d2d2;}.cls-158{fill:#535847;}.cls-159{fill:#4c4c4b;}.cls-160{fill:#5b5b5b;}.cls-161{fill:#4c4c4c;}.cls-162{fill:#767164;}.cls-163{fill:#98947d;}.cls-164{fill:#989d7d;}.cls-165{fill:#363633;}.cls-166{fill:#373631;}.cls-167{fill:#232322;}.cls-168{fill:#242423;}.cls-169{fill:#383837;}.cls-170{fill:#4f5243;}.cls-171{fill:#737663;}.cls-172{fill:#414140;}.cls-173{fill:#484947;}.cls-174{fill:#868686;}.cls-175{fill:#1c1c1c;}.cls-176{fill:#2f2f2e;}</style></defs><title>고저장치</title><g id="레이어_2" data-name="레이어 2"><g id="레이어_1-2" data-name="레이어 1"><rect class="cls-1" width="74" height="74" rx="8.33" ry="8.33"/><path class="cls-2" d="M15.19,33.25c1.45-1,2.11-1.9,1.31-3.94a15.9,15.9,0,0,1-.23-11.19,2.48,2.48,0,0,1,1-1.42,1.34,1.34,0,0,1,.27,1.72A3.26,3.26,0,0,0,17,20.6c.25-.29-.24-1,.31-1.43a1,1,0,0,1,.73.15A6.57,6.57,0,0,1,19,21.55a43.17,43.17,0,0,1,0,4.55c-.08.88-.59,1.7-.39,2.62a4.52,4.52,0,0,1,.19,1.5c-.25.74-.26,1.53-.51,2.27a2.78,2.78,0,0,1-3.07,1.43A.41.41,0,0,1,15.19,33.25Z"/><path class="cls-3" d="M41.53,36.35c-.29,2.42,2,1.7,3.06,2.55a1.3,1.3,0,0,1-.88.7,11,11,0,0,1-1.52.12c-.9,0-1.61.63-2.49.67a1.53,1.53,0,0,1-1.4-1.52c-.09-2.45-1.27.11-1.79-.37A2.44,2.44,0,0,1,33.83,37c-.37-1.3.58-2.13,1.1-3.11,2.23-2,3-2,5.47-.18A8,8,0,0,1,41.53,36.35Z"/><path class="cls-4" d="M54.42,51.32c3.44,1.29,3.63,1.6,1.26,5.86-1,1.78-2.18,3.68-4.35,4.46-.51.31-.85,0-1.2-.31a2.72,2.72,0,0,1-.17-2,1.79,1.79,0,0,1,.64-.82,2.73,2.73,0,0,0,1.76-1.95c.89-1.25.74-2.71.82-4.12A1.37,1.37,0,0,1,54,51.24Z"/><path class="cls-5" d="M49.86,41.49c1.46.34,1.83,1.93,3,2.6.56.52,1.13,1,.88,1.93-1,1.18-.65,2.39-.05,3.6a1.94,1.94,0,0,1,0,.72c-.45.69-.55,1.6-1.29,2.13-1,.19-1.21-.63-1.65-1.18a4.64,4.64,0,0,1-.62-.9,4.16,4.16,0,0,1-.4-2.14,2.12,2.12,0,0,0-.58-2.71,3.79,3.79,0,0,1-1.37-2.82c-.27-.59-.5-1.18.24-1.63A1.62,1.62,0,0,1,49.86,41.49Z"/><path class="cls-6" d="M49.86,41.49l-2.15,0a14.15,14.15,0,0,0-4.9,1.85,17.21,17.21,0,0,1-1.47.92,3.64,3.64,0,0,0-2,1.78,2.12,2.12,0,0,1-1.64.82,1.42,1.42,0,0,1-1-1.52,2.54,2.54,0,0,1,.18-.72c.67-1,1.78-1.47,2.45-2.44l.64-.71c.28-.35.18-.78.2-1.19a1.13,1.13,0,0,1,.35-.58,2,2,0,0,1,.68-.24,20.29,20.29,0,0,1,2.69-.29c2.14-.45,3.78,1.23,5.8,1.32Z"/><path class="cls-7" d="M18.29,44.62l-1.55-1c-.48-.79-.81-1.56.15-2.26a18.24,18.24,0,0,1,9.51,5.57,2.09,2.09,0,0,1,.2.77,1.46,1.46,0,0,1-1.08,1.49,1.94,1.94,0,0,1-.76,0c-.87-.71-2.15-.41-3-1.21a1.09,1.09,0,0,1-.17-.83c0-.35-.19,0-.28,0C19.92,46.71,18.53,46.38,18.29,44.62Z"/><path class="cls-8" d="M31.15,52.37c-.13.86-.64.91-1.3.58a5,5,0,0,0-2.71-.63c-.68-.57-1.52-.89-2.2-1.46-.57-.14-1.13-.28-1.31-1,.07-.84.38-1.4,1.37-1.16h0c.68.53,1.39.11,2.09,0a4.43,4.43,0,0,1,.63,0c.51-.05.65-.47.82-.85.41-.89.69-1.82,1-2.73.31-.47.65-.86,1.29-.57.85.87.65,1.88.4,2.9a7,7,0,0,0,.12,3.3A3.29,3.29,0,0,1,31.15,52.37Z"/><path class="cls-9" d="M41.53,36.35c-1.5-.1-2.62-.41-1.05-2.07a2,2,0,0,1,1.1-1.7A11.76,11.76,0,0,0,43.45,31,8.14,8.14,0,0,0,46,28.6c.34-.48,1-.92,1.54-.53s.39,1.18.07,1.81c-.7,1.4-2.28,2-3,3.37Z"/><path class="cls-10" d="M25.53,11.6c1.93-.82,4-.46,6-1,.45.23,1,.16,1.43.36.84.25,1.33.72,1,1.67a1.55,1.55,0,0,1-.51.51c-1.51,0-2,1.28-2.79,2.21a1.4,1.4,0,0,1-1.34-.41C28.83,13,27,13,25.59,12.28A.69.69,0,0,1,25.53,11.6Z"/><path class="cls-11" d="M44.61,33.25c.25-2,2.89-2.38,3-4.79-1.7.84-2.21,2.9-4,3.26l-.26-.24a2.28,2.28,0,0,1,.24-2c.37-.58.92-1,1.3-1.6l.36-.59c1.37-2.15,1.41-2.15,3,.32C48.61,30.49,46.56,31.84,44.61,33.25Z"/><path class="cls-12" d="M37.9,62.15c-3.12-1.6-4.4-4.91-6.74-7.24l.55-.5a1.58,1.58,0,0,1,1-.48,2,2,0,0,1,1.37.6c.91,1.1,1.44,2.46,2.36,3.56.09.22.18.43.26.65.19.82.91,1.32,1.26,2A1.37,1.37,0,0,1,37.9,62.15Z"/><path class="cls-13" d="M49.26,63.18c-1.94.46-3.77,1.37-5.86,1.07-.94-.14-1.87-.09-2.4-1.06a.92.92,0,0,1-.09-1.14,1.42,1.42,0,0,1,.76-.31,19,19,0,0,0,6.55-.31C49.08,61.71,50.68,61.55,49.26,63.18Z"/><path class="cls-14" d="M39.56,14.21l-.16,1.48a2.4,2.4,0,0,1,.84,1.41,18.2,18.2,0,0,0,.25,4.1c-.19.82-.38,1.65-1.35,1.93a1.83,1.83,0,0,1-1.69-1.53,2,2,0,0,1,0-.76c.35-.9,1.2-1.85-.27-2.58-1.16-.8-1-1.85-.55-3a3.59,3.59,0,0,1,.73-1.14c.14-.16.3-.31.45-.47.7-.59,0-2.31,1.66-2.13C40.44,12.43,39.86,13.32,39.56,14.21Z"/><path class="cls-15" d="M32.79,54.39l-1.08,0V52.83c.25-.52-.2-.92-.23-1.39-.14-2-.63.7-.85-.07-1.3-2.26.28-4.51,0-6.76a.47.47,0,0,1,.08-.69,1.3,1.3,0,0,1,.8-.1,3.48,3.48,0,0,1,1.88,2.61C33.31,49.09,34.14,51.83,32.79,54.39Z"/><path class="cls-16" d="M25.53,11.6a2.17,2.17,0,0,1,0,.51c0,.11,0,.22-.05.34-.34.71-.33,1.62-1.07,2.14s-1.39.27-2.07.45c-1.37.21-2.24,1.35-3.45,1.86-.88.08-1.72.12-1.11-1.18.61-.74,1-1.7,1.92-2.13a15.35,15.35,0,0,1,3.75-1.54A2.54,2.54,0,0,1,25.53,11.6Z"/><path class="cls-17" d="M44.11,18.3c5-.13,5-.12,5.66,3.08-.43.39-.7,1-1.29,1.18a14.88,14.88,0,0,0-2,.84,2.26,2.26,0,0,1-.73.15,1.46,1.46,0,0,1-1.28-.62,1,1,0,0,1,.25-.91,2.19,2.19,0,0,0,.83-2.29c-.17-.24-.44-.22-.7-.27A1.53,1.53,0,0,1,44,19,.53.53,0,0,1,44.11,18.3Z"/><path class="cls-18" d="M17.78,15.72c0,.81.55.72,1.09.57a3.1,3.1,0,0,1,1.32,1.29,2.69,2.69,0,0,1,.19.74,2.64,2.64,0,0,1-.1.74,6.37,6.37,0,0,0-.58,3.19,21.66,21.66,0,0,0-.13,3.12,2.35,2.35,0,0,1-.39,1.55.84.84,0,0,1-.74.29.37.37,0,0,1-.16-.63V21.35c-.59-.57.13-1.48-.52-2H17.3c-.45-.17-.18-.74-.53-1l.48-1.65C17.42,16.37,17.6,16.05,17.78,15.72Z"/><path class="cls-19" d="M26,47.19c-2.65-2.6-6.22-3.73-9.28-5.67-.47-.2-.79-.47-.52-1V40a1,1,0,0,1,.68-.19,35.37,35.37,0,0,0,6.09,3,3.6,3.6,0,0,1,.58.45,16,16,0,0,0,1.89,1.6C26.13,45.5,26.84,46.18,26,47.19Z"/><path class="cls-20" d="M16.71,40l-.48,0c-3.89-1.48-4.26-3.92-1-6.71,0,.17,0,.35,0,.53.26.15.59.2.74.51a1.62,1.62,0,0,1,.05.62,2.85,2.85,0,0,1-.41.84,5.8,5.8,0,0,0-.34.52c-.31,1,.43,1.28,1.07,1.63a1.92,1.92,0,0,1,.78,1.16,1.55,1.55,0,0,1-.12.7Z"/><path class="cls-21" d="M16.22,40.48c.18.35.35.69.52,1,.07.68.41,1.36,0,2-.33,0-.86,0-1-.16-.58-1.07-3,.17-2.56-1.95C13.6,39.73,15.31,41.12,16.22,40.48Z"/><path class="cls-22" d="M58.48,51.86a13.62,13.62,0,0,0-4.06-.54h0a.58.58,0,0,1-.16-.4c0-.14,0-.21,0-.21.62-.52.24-1,0-1.54a.9.9,0,0,1,.19-.67,1.58,1.58,0,0,1,1-.37,1.25,1.25,0,0,1,1,.55A6.9,6.9,0,0,1,60,50.31C59.68,51,59.41,51.75,58.48,51.86Z"/><path class="cls-23" d="M30.64,51.37c.45-1.24-.84-3.55,1-3.57,1.1,0,.36,2.51.5,3.88,0,.36-.29.77-.46,1.15l-.57-.46Z"/><path class="cls-24" d="M48.22,27.58c-1.19-1.51-2-1.18-2.58.5a1.21,1.21,0,0,1-.67-.66,2,2,0,0,0-.68-1,3.39,3.39,0,0,1-.8-.56,1.61,1.61,0,0,1-.29-.64,1.63,1.63,0,0,1,.14-.72,1.59,1.59,0,0,1,.58-.48c.8-.35,1.54.05,2.31.16,1,.21,2.24-.23,3,.84A1.77,1.77,0,0,0,48.22,27.58Z"/><path class="cls-25" d="M39.49,17.24l-.09-1.55.57,0c2-.27,1.55,1.87,2.56,2.57l0,.54a1.12,1.12,0,0,1,.37,1,1.83,1.83,0,0,1-.27.68c-2.34,1.43-2.21-.77-2.79-1.91C39.65,18.16,39.81,17.63,39.49,17.24Z"/><path class="cls-26" d="M21.89,46.68l0,1a1.1,1.1,0,0,1-1.56,0l-2.57-1.56a.55.55,0,0,1-.51-.52,1,1,0,0,1,1-1,7.67,7.67,0,0,0,3.6,2.06Z"/><path class="cls-27" d="M49.77,21.89l1-2.45a3.77,3.77,0,0,1-.5,4.52c-1.3.51-1.45-.29-1.44-1.27A1.12,1.12,0,0,1,49.77,21.89Z"/><path class="cls-28" d="M58.48,51.86c.16-.87.55-1.51,1.55-1.55.43.73,1.67,1.4.39,2.31C59.6,53.2,58.78,53,58.48,51.86Z"/><path class="cls-29" d="M20.35,47.71h1.56c1.13.06,2.39-.29,3.09,1a1.48,1.48,0,0,0-.95,1.44.38.38,0,0,1-.6.1h0c-1-.76-2.13-1.28-3.1-2.07C20.36,48,20.36,47.87,20.35,47.71Z"/><path class="cls-30" d="M42.53,18.28c-.33.09-.88,1-.94,0A3.64,3.64,0,0,0,40,15.71a3.82,3.82,0,0,1,1.54-1.57c.46.21.52.63.54,1.06Z"/><path class="cls-24" d="M49.77,21.89l-.51.53c-.11,2.24-1.65,2.18-3.25,2a1.7,1.7,0,0,1-.75-.27c-.74-1.15.66-.78.89-1.25h0a9.24,9.24,0,0,0,2.08-1l1.54-.55Z"/><path class="cls-31" d="M45.65,24c1.43,0,2.93.2,3.61-1.55,0,.74.11,1.4,1,1.54l-1,1H45.65A.67.67,0,0,1,45.65,24Z"/><path class="cls-32" d="M56.47,48.68l-.95,0a1.71,1.71,0,0,1-1.42-1.9,2.6,2.6,0,0,1,1.35-1.62C56,46.25,57,47.25,56.47,48.68Z"/><path class="cls-33" d="M39.56,14.21c-.24-.89.31-1.93-.5-2.71a.51.51,0,0,1-.39-.37.69.69,0,0,1,.2-.51C41.18,11.61,41.32,12.36,39.56,14.21Z"/><path class="cls-34" d="M55.45,45.11c0,.72-.08,1.39-1,1.56a2.91,2.91,0,0,1-1-2.58C54.66,43.33,55,44.26,55.45,45.11Z"/><path class="cls-35" d="M20.36,48.21a3.15,3.15,0,0,1,3.1,2.07C22.09,50.08,20.72,49.9,20.36,48.21Z"/><path class="cls-36" d="M49.73,40.51c-2.2.42-4-1.53-6.17-1.09-.32-.19-.31-.34,0-.47l1-.05C46.51,38.78,48,39.89,49.73,40.51Z"/><path class="cls-7" d="M17.27,45.63l.51.52c-1.62,1.77-1.62-.45-2.65-.85C16.27,44.48,16.66,45.54,17.27,45.63Z"/><path class="cls-37" d="M53.43,44.09l1,2.58,1,2h-1c-1.27-.41-1.45-1.33-1.15-2.47-.17-.69-.35-1.37-.53-2.06Z"/><path class="cls-38" d="M49.26,63.18c.42-1.13-.4-1-1-1,.14-1.43.9-1.63,2.06-1l1.06.53C50.68,62.21,50.21,63,49.26,63.18Z"/><path class="cls-39" d="M25,50.26c.87.52,2,.79,2.13,2.06-.86,0-1.85.23-2.14-1A.7.7,0,0,1,25,50.26Z"/><path class="cls-40" d="M37.9,62.15l-.51-1c.3-.38.58-.77,1.13-.79a1.45,1.45,0,0,1,1,.49,2.11,2.11,0,0,1,.5,1.38,1.65,1.65,0,0,1-.53,1C39,62.8,38.62,62.18,37.9,62.15Z"/><path class="cls-41" d="M32.74,11l-1.19-.44,4.32,0a.89.89,0,0,1-.1.71C34.66,12.44,33.74,11.34,32.74,11Z"/><path class="cls-42" d="M23.45,12.05a8.67,8.67,0,0,1-3.75,1.54A4.37,4.37,0,0,1,23.45,12.05Z"/><path class="cls-43" d="M25,50.26v1.05c-.75,0-1.41-.12-1.55-1l.6-.1C24.38,50.08,24.71,49.91,25,50.26Z"/><path class="cls-25" d="M41.53,13.65c.07-.44-.14-1.14.5-1.15s.45.7.52,1.14A.68.68,0,0,1,41.53,13.65Z"/><path class="cls-44" d="M41.53,13.65h1a1.83,1.83,0,0,1-.5,1.56l-.54-1.06C41.51,14,41.52,13.81,41.53,13.65Z"/><path class="cls-45" d="M35.71,10.92a3.73,3.73,0,0,0,.16-.35h0a1.16,1.16,0,0,1,1.53-.1l1.49.14a1.94,1.94,0,0,1,0,.48,2.28,2.28,0,0,1-2.69.46A1.07,1.07,0,0,1,35.71,10.92Z"/><path class="cls-46" d="M39.45,63.17l0-1.12a1.07,1.07,0,0,1,1.52.1v1Z"/><path class="cls-41" d="M37.38,10.48l-1.53.1C36.27,9.09,36.82,9.77,37.38,10.48Z"/><path class="cls-47" d="M42.55,19.84l0-1,1.53-.52c0,.16,0,.32,0,.47C43.94,19.67,43.53,20.15,42.55,19.84Z"/><path class="cls-48" d="M17.79,32.23c0-.73-.13-1.49.5-2.06a1.33,1.33,0,0,1,.61.32c1,1,1.83,2.18,3.48,2,1.18.16,2,.66,1.87,2-1.33,1.32-2.9-.43-4.27.35C18.17,34.89,18.58,33.07,17.79,32.23Z"/><path class="cls-49" d="M17.79,32.23c1.6-.23.93,1.8,2.05,2.05a.59.59,0,0,1,0,.7c-1.6.75-2.94-.08-4.32-.69-.09-.17-.19-.34-.29-.51Z"/><path class="cls-17" d="M18.31,30.67c0-.17,0-.34,0-.5l-.5-1.08c.56-.58-.08-1.47.52-2l.45,0a2.54,2.54,0,0,1,1.46,2.53,1.69,1.69,0,0,1-.83,1.28A1,1,0,0,1,18.31,30.67Z"/><path class="cls-50" d="M17.09,28.75a3.32,3.32,0,0,1,0-2.94Z"/><path class="cls-51" d="M16.77,18.35l.53,1c0,.59-.07,1.18-.13,2.16C16.51,20.22,16.84,19.26,16.77,18.35Z"/><path class="cls-52" d="M17.76,19.31c1.17.43.29,1.37.52,2C17.63,20.79,17.81,20,17.76,19.31Z"/><path class="cls-20" d="M18.31,27.05c0,.71.11,1.48-.52,2,.06-.86-.26-1.79.49-2.51Z"/><path class="cls-53" d="M40.5,40c0,.12-.06.24-.08.37A1.72,1.72,0,0,1,39.63,42a3.08,3.08,0,0,1-.7.3,4.62,4.62,0,0,1-2.64.39c-.66-.32-1.48-.33-2-.92-.47-1.07.45-1.4,1-1.9-.25-.11-.41.09-.62.12a2.12,2.12,0,0,1-1.09,0c-1.59-.52-3.68.27-4.68-1.79A1.68,1.68,0,0,1,29,36.59a1.89,1.89,0,0,1,1.56-.93c.66.22.72.9,1.05,1.36A.31.31,0,0,0,32,37c.06-.18.11-.34.16-.51a2.22,2.22,0,0,1,.39-.87,1.16,1.16,0,0,1,1.28-.37c.56.42,0,1.21.51,1.62a3.07,3.07,0,0,0,2.55,1.06c.87-.51,1.61-.55,2.07.53,0,.71.06,1.41,1,1.5C40.15,39.71,40.34,39.72,40.5,40Z"/><path class="cls-54" d="M42,33.25l-1.55,1c-1.72-.74-3.43-1.75-5.15,0l-.26-.3c-.27-1.28.54-2.25,1-3.31,1-1,2.15-1.68,3.65-1.05,1.17.7,1,2.46,2.43,3A.54.54,0,0,1,42,33.25Z"/><path class="cls-55" d="M38.93,38.41l-2.07-.53c.56-.67,1-1.89,2-1.54S39.53,37.68,38.93,38.41Z"/><path class="cls-54" d="M34.31,36.82c-.53-.37-.5-1-.52-1.5a1.23,1.23,0,0,1,.81-1.15,1,1,0,0,1,.7.09l0,0Z"/><path class="cls-56" d="M43.61,39c0,.16,0,.32,0,.47L41,39.85c-.26-.94.8-.47,1-.92Z"/><path class="cls-55" d="M42,38.93l-1,.92L40.5,40l-.57-.06A2.12,2.12,0,0,1,42,38.93Z"/><path class="cls-57" d="M50.27,61.11a3.27,3.27,0,0,0-2.06,1c-2.23.52-4.47,1.09-6.7,0,.7-1.08,1.81-.72,2.79-.77A6.11,6.11,0,0,0,47,60.73c.92-.35,1.66-1,2.57-1.38a.87.87,0,0,1,.67.2C50.92,60.05,50.49,60.58,50.27,61.11Z"/><path class="cls-58" d="M54.81,57.08c0-1.59,0-2.44,0-3.28,0-.41-.32-.89.12-1.16a1.06,1.06,0,0,1,.93.07,1,1,0,0,1,.43,1.34C55.93,54.88,55.5,55.67,54.81,57.08Z"/><path class="cls-59" d="M53.85,52.42c.07,1.62.38,3.28-.92,4.62-.58.28-.93,0-1.25-.45-.36-1.4,1-2.46.77-3.83a3.14,3.14,0,0,1,.43-.6A.75.75,0,0,1,53.85,52.42Z"/><path class="cls-60" d="M50.23,59.55a1.54,1.54,0,0,0-.43.06,1.71,1.71,0,0,1-1.12.3,1.16,1.16,0,0,1-.88-1.19,2.19,2.19,0,0,1,1.71-2,1.39,1.39,0,0,1,.78.09A1.73,1.73,0,0,1,51.17,58a1,1,0,0,1-.43,1Z"/><path class="cls-56" d="M53.85,52.42l-1-.05c-.17.16-.3.13-.4-.08-.07-.88-.27-1.82,1-2.07.58-.27,1-.2,1,.55l-.05.55Z"/><path class="cls-61" d="M50.74,59l.08-1v-.36c0-.23,0-.47,0-.71a1.09,1.09,0,0,1,.68-.79.52.52,0,0,1,.57.32l.85.54A2.23,2.23,0,0,1,50.74,59Z"/><path class="cls-62" d="M48.74,42.54c0,1.75,1.28,2.78,2.18,4,.68.94.09,1.34-.64,1.71a.87.87,0,0,1-.94-.12c-.46-.45-.85-1-1.34-1.4A6.65,6.65,0,0,1,46.09,45c-.5-1-2.08-1.22-1.75-2.7C45.89,40.85,47.27,42.54,48.74,42.54Z"/><path class="cls-63" d="M49.74,47.77l.54.5c.17.67.35,1.34.53,2a3.81,3.81,0,0,1,.47,2.7,1.37,1.37,0,0,1-.48.61,2.6,2.6,0,0,1-1.9,0,1.56,1.56,0,0,1-.76-1.3c0-.79.36-1.55.34-2.36C48.64,49.05,48.24,47.86,49.74,47.77Z"/><path class="cls-36" d="M48.74,42.54c-1.38,1.08-2.75-.47-4.13,0a1.59,1.59,0,0,1-2.55,0c1.86-.48,3.46-2.36,5.65-1.05Z"/><path class="cls-22" d="M53.39,46.15c.38.82.76,1.65,1.15,2.47l-.16.17c-.27.44-.48.94-1.11,1C51.46,47.61,51.5,46.51,53.39,46.15Z"/><path class="cls-64" d="M53.27,49.77a1.23,1.23,0,0,1,1.11-1l3,1.47c-.84,1.26-2,.43-2.95.51-.2-.44-.63-.46-1-.55A1.25,1.25,0,0,0,53.27,49.77Z"/><path class="cls-22" d="M52.46,52.29a1.89,1.89,0,0,1,.4.08c0,.19,0,.39,0,.58a1.23,1.23,0,0,1-1.3.66.65.65,0,0,1-.44-.57c.08-.75-.27-1.56.26-2.26Z"/><path class="cls-65" d="M51.34,50.78v2.6a.44.44,0,0,1-.55,0l0-3.09Z"/><path class="cls-66" d="M42.06,42.56l2.55,0c0,1.38,2.49.27,2.06,2.07-.86,1.27-2.57.58-3.56,1.55a10.62,10.62,0,0,0-2.23,1.72c-1.63.67-.6,2.87-2.08,3.64-1.59-.09-2.07-1.13-2.16-2.51a3.86,3.86,0,0,1,.22-1.61,1.79,1.79,0,0,1,.94-.73l1.07-1a8.83,8.83,0,0,1,2.13-2Z"/><path class="cls-67" d="M37.45,44.67a1.44,1.44,0,0,0-.09.4c-.56.72,0,2.21-1.55,2.26a1.94,1.94,0,0,1-1-1.53,17.24,17.24,0,0,1,.52-2.94,1.58,1.58,0,0,1,.5-.53,2,2,0,0,1,1.08,0c.57.22,1.11.48,1.28,1.16S37.72,44.31,37.45,44.67Z"/><path class="cls-68" d="M35.87,47.26l1.49-2.19c.15.53.3,1.06.44,1.59-.14.17-.27.35-.41.53-.78,1,0,2.62-1.47,3.29l-.4,0a1.08,1.08,0,0,1-.63-.48C34.44,48.83,34.6,47.85,35.87,47.26Z"/><path class="cls-69" d="M37.93,43.59l-1-1c.6-.55,1.44-.6,2.09-1l.41-.16c.64-.27,1.15-.3,1.17.61l-.6.47C39.25,42.81,38.92,43.84,37.93,43.59Z"/><path class="cls-70" d="M40.56,42.06l-1.17-.61,1-1.11c.5.18,1.34-.11,1.37.68C41.81,41.65,41.05,41.8,40.56,42.06Z"/><path class="cls-70" d="M37.93,43.59c.72-.28,1.12-1.16,2-1.06a4.49,4.49,0,0,1-2.51,2.14Z"/><path class="cls-71" d="M41,43.56a4.85,4.85,0,0,1-2.13,2A2.47,2.47,0,0,1,41,43.56Z"/><path class="cls-47" d="M26,47.19c-.1-2-2.52-2-3.05-3.65,1.7-.95,2.6.34,3.57,1.32s1.24,1.8.25,2.84a.58.58,0,0,1-.75,0C26,47.53,26,47.36,26,47.19Z"/><path class="cls-29" d="M26,47.69l.44,0c.8.24,1.09.7.63,1.48-.92.83-1.49.06-2.11-.47A1.1,1.1,0,0,0,26,47.69Z"/><path class="cls-72" d="M21.89,46.68c.07-.38-.13-.94.41-1,.38-.08.57.35.54.69-.07.7-.56.44-.95.35Z"/><path class="cls-42" d="M27.11,49.21l-.63-1.48c.65-2.93-1.63-3.39-3.51-4.19v0a1,1,0,0,1-.32-1,1.41,1.41,0,0,1,.76-.81,2.36,2.36,0,0,1,1.48.13A5.71,5.71,0,0,1,28.35,45a2.76,2.76,0,0,1,.36.65,3.84,3.84,0,0,1,.11,1.12,4.36,4.36,0,0,1-1,2.36l-.34.15Z"/><path class="cls-73" d="M29.13,48.22c-.08.64.22,1.45-.55,1.81s-.88-.24-1-.73l.11-.12a23.32,23.32,0,0,1,1.05-2.66.74.74,0,0,1,.65.26C29.37,47.28,29.51,47.78,29.13,48.22Z"/><path class="cls-74" d="M29.12,46.67h-.51c-.23.34-.41.31-.54-.08l0-.73c.62-1,.83-2.64,2.68-1.72a4.3,4.3,0,0,1-.09.47l-.56,1C29.85,46,29.66,46.51,29.12,46.67Z"/><path class="cls-75" d="M29.12,46.67l1-1.05a5.37,5.37,0,0,1-1,2.6C29.13,47.7,29.13,47.18,29.12,46.67Z"/><path class="cls-11" d="M42,33.25l0-.57c0-1.13.47-1.48,1.52-1l.06.07A3.71,3.71,0,0,1,42,33.25Z"/><path class="cls-76" d="M29.69,14.54l1,.68c.68.14,1,.68,1.29,1.22.57,1,1.46,1.75,1.53,3a16.31,16.31,0,0,0,1,3.76A3.11,3.11,0,0,1,34,25.6a1.4,1.4,0,0,1-1.25.22c-1.11-.47-1.25-1.44-1.27-2.47-.1-2.74-1.66-5-2.7-7.35a1.55,1.55,0,0,1,0-.77A1.18,1.18,0,0,1,29.69,14.54Z"/><path class="cls-77" d="M31.35,16.64l-.69-1.42c-.2-2,.51-3,2.64-2.5a1.55,1.55,0,0,1-.36,1.19,1.73,1.73,0,0,0,0,.6c.27.65,1,1,1.18,1.67a1.28,1.28,0,0,1-.21,1C32.84,18,32.16,17,31.35,16.64Z"/><path class="cls-78" d="M29.69,14.54,29,15.2a.88.88,0,0,1-.76-.39,1.84,1.84,0,0,0-1.14-.33c-1-.5-2.33-.77-1.58-2.4l0,0C27.33,12.2,29.75,11.26,29.69,14.54Z"/><path class="cls-45" d="M32.74,11c1,0,2,.44,3-.12l.24.24c.48.3,1.11.44,1.17,1.16a1.09,1.09,0,0,1-.3.63,4.58,4.58,0,0,1-2,.65c-.5-.07-1-.17-1-.83S33.12,11.6,32.74,11Z"/><path class="cls-79" d="M33.82,12.77l1,.32a.85.85,0,0,1,.09.71,1.45,1.45,0,0,1-1.19.84,2.68,2.68,0,0,1-2-1l1.58-.93Z"/><path class="cls-80" d="M43.53,31.65a2,2,0,0,0-1.52,1c-2.68.83-1.86-1.26-2.08-2.49-.16-.47.1-.62.5-.69C43,31.19,42.05,28.13,43,27.63a2.25,2.25,0,0,1,.52-.5A2.19,2.19,0,0,1,45.61,27l0,1.06h0a4.07,4.07,0,0,0-1.52,1.56Z"/><path class="cls-24" d="M44.12,29.65a1.51,1.51,0,0,1,1.52-1.56A3.69,3.69,0,0,1,44.12,29.65Z"/><path class="cls-68" d="M36,58.45a6.9,6.9,0,0,1-2.15-3.55A3.49,3.49,0,0,1,33,52.09a.61.61,0,0,1,.42-.46c.23-.12.64.36.75-.22a1.45,1.45,0,0,1,.4-1.13.66.66,0,0,1,.65-.07l.18.16c1.06,2,.82,4.32,1.58,6.4A1.17,1.17,0,0,1,36,58.45Z"/><path class="cls-81" d="M36,58.45a2.19,2.19,0,0,0,.12-2.4c-1-1.82-.73-3.75-.66-5.68a2.13,2.13,0,0,1,.44-.07c1.24.86.44,2.31,1,3.38a4.73,4.73,0,0,1,.25.66c.25.89.8,1.67,1,2.58a2.94,2.94,0,0,1,.18,2.14,1.42,1.42,0,0,1-.81.73A2.06,2.06,0,0,1,35.86,59Z"/><path class="cls-82" d="M33.32,51.79c.16,1,.32,2.08.49,3.11l-1-.51-.09-8.26c.39-.55.83-.79,1.35-.14C34,48,34.5,50,33.32,51.79Z"/><path class="cls-56" d="M35.86,59l1.5.65a1,1,0,0,1,1.08,1l-1,.45A5.22,5.22,0,0,1,35.86,59Z"/><path class="cls-83" d="M47.74,61.16c-1.87,1.62-4.13.8-6.23,1l-.26,0H41l-1.52-.09-.45-1c.86-.9,2,0,2.91-.41,1.18-.22,2.37.48,3.55-.08a5.86,5.86,0,0,1,1-.36,1.65,1.65,0,0,1,.7.08A1,1,0,0,1,47.74,61.16Z"/><path class="cls-74" d="M33.78,17.25l0-1a1.38,1.38,0,0,1,.44-.52,5.26,5.26,0,0,1,2.64-.82,1.11,1.11,0,0,1,.6.33c0,.88-1.31,2,.44,2.57.63.46.55,1.09.43,1.73a.87.87,0,0,1-1,.53c-1.49-.43-.52.66-.68,1.06a12.83,12.83,0,0,1-.07,2.32c-.44,1-.39,2.18-1.28,3a.82.82,0,0,1-1.1.05c-.35-1,0-2.06-.1-3.09.54-1.95-.12-3.85-.24-5.77C33.78,17.48,33.78,17.37,33.78,17.25Z"/><path class="cls-84" d="M35.82,23.46l0-2.58c.2-.42.14-1.15.78-1.11,1,0,1,.93,1.2,1.62L39,22.94A.85.85,0,0,1,39,24c-1.63.22-1.63.22-2.27-2,0,1.43.51,2.33-.21,3a.72.72,0,0,1-.76,0A1.65,1.65,0,0,1,35.82,23.46Z"/><path class="cls-85" d="M36.87,12.09a1.2,1.2,0,0,1-.92-.93l2.95-.06c.05.13.1.27.16.4-.08,1-.15,2-.23,3,0,0-.16.13-.17.12s-.21-.24-.31-.36A7.07,7.07,0,0,1,36.87,12.09Z"/><path class="cls-86" d="M37.43,15.22h-.54l-.32-.1a3.67,3.67,0,0,1-1.64-1.19l-.15-.31v-.53c.6-.6,1.36-.46,2.09-.48.6.36,1.38.59,1,1.56Z"/><path class="cls-87" d="M37.83,19.82c0-.68,0-1.35,0-2,.18-.37.65-1,.79-.52.36,1.2,1.1,2.68-.69,3.54A.66.66,0,0,1,37.83,19.82Z"/><path class="cls-88" d="M37.83,19.82c.05.33.09.66.14,1s-.09.39-.14.58c-.55-.59-.93-1.83-2-.51-.44-.85-.74-1.69.09-2.5Z"/><path class="cls-47" d="M39.49,17.24,40,18.3a3.17,3.17,0,0,1,.75,2.91.39.39,0,0,1-.65.07A7.64,7.64,0,0,1,39.49,17.24Z"/><path class="cls-89" d="M40.06,21.28l.4.16a1,1,0,0,1,.33.58,5.34,5.34,0,0,1-.2,1.37,1.19,1.19,0,0,1-1.42.81l-.3-.2c0-.36.07-.71.1-1.06C39.33,22.39,39.7,21.84,40.06,21.28Z"/><path class="cls-90" d="M37.88,14.17c-.33-.52-.67-1-1-1.56a1.51,1.51,0,0,0,0-.52c1,.38,1.69.94,1.48,2.14A3.55,3.55,0,0,0,37.88,14.17Z"/><path class="cls-55" d="M33.76,45.63l-1.06.5-1.53-2.05c-.7-1.88.52-2.54,1.94-3.07a1.34,1.34,0,0,1,1.14.47c.72,0,1.48-.1,2.08.45.06.38-.31.42-.49.61h0c-.44.36-.47.91-.65,1.4a8.6,8.6,0,0,1-1.1,1.58Z"/><path class="cls-91" d="M33.24,41.45c-.89.71-1.94,1.31-2.07,2.63a2.57,2.57,0,0,0-.4.06c-1.21.07-1.57,1.47-2.68,1.71l0-.2a2,2,0,0,1-.45-1,4.12,4.12,0,0,1,1-2.34,2.6,2.6,0,0,1,.57-.48c1.29-.63,2-2.26,3.7-2.19a1,1,0,0,1,.61.41A1.14,1.14,0,0,1,33.24,41.45Z"/><path class="cls-92" d="M21.9,14.2,24.61,14a1.33,1.33,0,0,1,.74,0A10.33,10.33,0,0,1,29.1,17a3.54,3.54,0,0,1,.49,1.85A1.48,1.48,0,0,1,28.66,20c-1.22.05-1.74-.89-2.36-1.68-.77-1.74-2.91-1.37-4-2.58a.9.9,0,0,1,.09-.68,2.39,2.39,0,0,1,.54-.15,2.19,2.19,0,0,1-1-.11.42.42,0,0,1-.15-.4C21.82,14.27,21.85,14.2,21.9,14.2Z"/><path class="cls-93" d="M22.42,15.19v.52a2.81,2.81,0,0,1-2.59,2.05c-.9-.11-1-.73-1-1.48a6.67,6.67,0,0,1,3-2.08c0,.16,0,.32,0,.48C22.09,14.84,22.39,14.88,22.42,15.19Z"/><path class="cls-94" d="M25,14.06,24.61,14c-.46-1-.5-1.78.89-1.9.15,1.23,1.41,1.39,2.06,2.15a.72.72,0,0,1,.93.54l.49.43.18.5a1,1,0,0,1,.13,1,.71.71,0,0,1-.65.17C27.4,16,26.54,14.58,25,14.06Z"/><path class="cls-42" d="M42.55,19.84l1.52-1.07,1.11.06c.77.59,1.82-.17,2.56.54-.35.62-1.56.08-1.53,1,0,.65,1,.39,1.52.78-1.06.71-2.32.87-3.11,1.83a1.35,1.35,0,0,1-1.47,0,2.18,2.18,0,0,1-.79-.86,2.42,2.42,0,0,1,.19-2.23Z"/><path class="cls-95" d="M43.54,22.49l1.08.45,1.53,0-1,1C43.64,24.49,42.94,24.19,43.54,22.49Z"/><path class="cls-77" d="M47.74,19.37c-.86-.14-1.83.22-2.56-.54C46,19.05,47.12,18.09,47.74,19.37Z"/><path class="cls-95" d="M48.23,21.93a2,2,0,0,1-2.08,1A2.88,2.88,0,0,1,48.23,21.93Z"/><path class="cls-96" d="M27,17.8l1.56,2.09a4.42,4.42,0,0,1,1.26,3.51c-.06,1-.21,2-1.66,1.54a1.63,1.63,0,0,0-.86-.25c-.49.22-.82.66-1.29.91-1.57.87-2.85.29-4-.78-.27-.2-.5-.43-.75-.64-1.33-.5-1.1,1.87-2.44,1.32V21.9c.47-1,.06-2.27,1-3.09,0-.17,0-.33,0-.5C22,15.63,24,15.49,27,17.8Z"/><path class="cls-97" d="M18.82,25.5A15.34,15.34,0,0,1,20,23.3c.65-.89,1.41-1.35,1.91.18a6.9,6.9,0,0,0-.52.87c-1.18,1.66.74,3,.49,4.56A1.24,1.24,0,0,1,20.51,30a1.15,1.15,0,0,1-.68-.39,4.19,4.19,0,0,1-1.06-2.56C18.78,26.55,18.8,26,18.82,25.5Z"/><path class="cls-50" d="M27,17.8c-2.49-1.29-4.93-1.82-7.16.51,0-.18,0-.37,0-.55a5.14,5.14,0,0,1,2.59-2.05C24.23,15.81,26,16,27,17.8Z"/><path class="cls-97" d="M19.84,18.81a9.69,9.69,0,0,1-1,3.09C18.86,20.77,18.54,19.52,19.84,18.81Z"/><path class="cls-20" d="M22.91,42.56l.06,1c-2.26-.89-4.75-1.36-6.25-3.56l.08-.09c.73-.63,1.47-.26,2.21,0C20.11,41.05,22.22,40.77,22.91,42.56Z"/><path class="cls-98" d="M15.5,34.29c1.58-1,2.89.33,4.33.49,3-.89,5,.13,5.15,2.66a1.33,1.33,0,0,1-.54.61,1.08,1.08,0,0,1-.75-.09A4.61,4.61,0,0,0,19,36.48a6.09,6.09,0,0,0-1.67.51,1.26,1.26,0,0,1-1.4-.15c-.61-.63-.17-1.46-.38-2.17A1.61,1.61,0,0,1,15.5,34.29Z"/><path class="cls-99" d="M16.23,38.41c-2-.25-2.81-1.13-1.54-3a14.59,14.59,0,0,0,2.2,2.38,1,1,0,0,1-.05.72A.39.39,0,0,1,16.23,38.41Z"/><path class="cls-100" d="M16.88,37.85c-1.24-.38-2.27-.94-2.19-2.49a.77.77,0,0,1,.43-.17c.78.29.59,1.22,1.12,1.68l.94-.52.27.19A.9.9,0,0,1,16.88,37.85Z"/><path class="cls-101" d="M16.24,36.87a2.08,2.08,0,0,1-1.12-1.68c.16-.17.31-.34.46-.52C16.3,35.25,16.24,36.07,16.24,36.87Z"/><path class="cls-102" d="M16.23,38.41l.75-.24a1.18,1.18,0,0,1,.67,0,1.24,1.24,0,0,1,.82,1,.74.74,0,0,1-.4.51c-.44,0-.91.1-1.27-.29Z"/><path class="cls-16" d="M16.8,39.44l1.46.05c.54.19.84.5.52,1.11l-2-.69A3.68,3.68,0,0,1,16.8,39.44Z"/><path class="cls-103" d="M43.62,25.46l.91.16c1,1.26-.42,1.42-.91,2l0,0a2.47,2.47,0,0,1-.94.61,2.67,2.67,0,0,1-1.16,0,2,2,0,0,1-.72-.36,2.55,2.55,0,0,1-.62-2.7,1.74,1.74,0,0,1,1.44-.86,2.17,2.17,0,0,1,2,.74,2,2,0,0,1,.08.43,1.45,1.45,0,0,1-.83.51A1.41,1.41,0,0,0,43.62,25.46Z"/><path class="cls-21" d="M43.54,22.49A1.3,1.3,0,0,0,45.12,24h.53v1a3.76,3.76,0,0,0-2.12-.49.9.9,0,0,1-1.24-.1c-.51-1.07-.9-2.09.76-2.49Z"/><path class="cls-104" d="M42.6,24.44l.94.06c0,.18,0,.36,0,.54L41.6,25c-1.37,0-1.41-1.11-1.58-2.08,0-.39-.07-.78.36-1C42.38,21.64,41.55,23.85,42.6,24.44Z"/><path class="cls-105" d="M43.62,27.62c.3-.67.6-1.33.91-2,.79.13,1,.71,1.08,1.4A3.53,3.53,0,0,1,43.62,27.62Z"/><path class="cls-106" d="M42.6,24.44c-1.35-.34-1.38-1.81-2.22-2.58,0-.14.06-.28.08-.42A8.83,8.83,0,0,0,40,18.3a2.42,2.42,0,0,1,1.14,1.54c.45,1.2,1,.31,1.45,0,.16.7.33,1.39.5,2.08C42.3,22.65,42.57,23.57,42.6,24.44Z"/><path class="cls-107" d="M42,61.61l-3-.52-.59-.41-1.08-1,.54-.58c.85-.62,1.39-1.78,2.72-1.59a1.84,1.84,0,0,1,1.61,1.3C41.83,59.68,42.46,60.69,42,61.61Z"/><path class="cls-75" d="M28.11,23.94c.76.74.95.54,1.05-.48.13-1.27-1.2-2.26-.57-3.57l.58-1.09c1.34,0,1.51,1,1.6,2a9.08,9.08,0,0,0-.35,2.8c0,.94,0,1.89,0,2.83a8.71,8.71,0,0,0-.54,3.11A3.88,3.88,0,0,1,28.65,32c-1.09.85-2.67,1.13-3.13,2.72a1.63,1.63,0,0,1-.58.42.87.87,0,0,1-1-.33c-.17-1.24-1-1.53-2.09-1.52-.65-.46-1.62-.69-1.32-1.84a1,1,0,0,1,.51-.48,1.55,1.55,0,0,1,.71,0c1.11.77,1.93,0,2.78-.55,1.37.21,1.94-.31,2.48-1.69C27.66,27.11,26.92,25.31,28.11,23.94Z"/><path class="cls-108" d="M24,34.76l1,.06c1,.26,1.14,1,1.07,1.85A2.06,2.06,0,0,1,25.23,38a.67.67,0,0,1-.72-.06c.08-3.5-2.63-2.81-4.68-3.11,0-.17,0-.33,0-.5C21.35,33.3,22.65,34.16,24,34.76Z"/><path class="cls-109" d="M20.86,31.2c0,.84.69,1.36,1,2-1.9.12-2.84-1.08-3.58-2.57h1.05C20.1,30.16,20.56,30.45,20.86,31.2Z"/><path class="cls-48" d="M20.86,31.2l-1.5-.54c.15-.34.31-.68.47-1h.53c.47.43,1.43.52,1,1.54Z"/><path class="cls-49" d="M25.53,36.84c-.18-.67-.35-1.34-.52-2v-.06a3.28,3.28,0,0,1,.9-.62A22.22,22.22,0,0,0,29,33.47c.6,0,1.08-.49,1.68-.53a1.4,1.4,0,0,1,1.21.7,1.71,1.71,0,0,1-.09,1.43,1.42,1.42,0,0,1-1.12.84l-1.08.91C28.25,35.89,26.89,38,25.53,36.84Z"/><path class="cls-110" d="M31.37,34.87l.42-1.07c0-.89.54-1.28,1.33-1.43,1,0,1.33.81,1.61,1.59,0,.11.07.22.1.33l-1,1-1,.52a1.28,1.28,0,0,0-1.15-.43A.79.79,0,0,1,31.37,34.87Z"/><path class="cls-111" d="M25.53,36.84c1.36.12,2.71-2.56,4.09,0l-.43,1-.26.23a18.67,18.67,0,0,1-3.42.16,1,1,0,0,1-.56-.4Z"/><path class="cls-74" d="M33.24,41.45l0-1.41a.64.64,0,0,1,.15-.53A.67.67,0,0,1,34,39.4l.72,0c.72-.3,1.45-.6,1.65.58l-2.08,1.54Z"/><path class="cls-7" d="M31.73,35.37c.56-.33,1-.3,1,.47,0,.34,0,.68,0,1,.3.68-.14,1.11-.53,1.55h-1A2.39,2.39,0,0,1,31.73,35.37Z"/><path class="cls-112" d="M36.33,39.94c-.44-.5-1.06-.48-1.65-.58.52-1.13,1.37-1,2.27-.59.36.16.85.43.5.88C37.26,39.89,36.72,39.85,36.33,39.94Z"/><path class="cls-111" d="M29.19,37.85c1.21,1.68,3.3.67,4.77,1.55l-.34.09a14.68,14.68,0,0,1-2.53.65c-1.38,0-2.4-.42-2.11-2.12Z"/><path class="cls-29" d="M31.73,35.37a7.68,7.68,0,0,0-.52,3c-1.32-.6-.37-1.66-.51-2.49l.67-1Z"/><path class="cls-70" d="M35.84,42.54l.49-.61L39,41.61c-.44.87-1.3.87-2.09,1Z"/><path class="cls-29" d="M32.22,38.41l.53-1.55C33.46,37.68,33.22,38.17,32.22,38.41Z"/><path class="cls-113" d="M41.17,27.5a.5.5,0,0,1,.34.09A1.33,1.33,0,0,1,41.89,29a1.11,1.11,0,0,1-1.28.67l-.68.5a4.27,4.27,0,0,0-3.57,1,1,1,0,0,1-.81-.77,2.38,2.38,0,0,1,1-2.11A4.1,4.1,0,0,1,41.17,27.5Z"/><path class="cls-114" d="M35.85,30.68l.51.52c.19,1.21-.91,2-1.06,3.07l-.47,0h0c-.91-1.2-.36-2.22.39-3.23A1.34,1.34,0,0,1,35.85,30.68Z"/><path class="cls-115" d="M47.74,61.16l-.58-.39c.05-1.1,1-1,1.64-1.14l1,0A3,3,0,0,1,47.74,61.16Z"/><path class="cls-116" d="M51.78,53.37a1,1,0,0,1,1-.42c1,1.45-.17,2.44-.76,3.55h-.58a.63.63,0,0,1-.74,0,1.59,1.59,0,0,1-.56-1C50.06,54.29,51,53.89,51.78,53.37Z"/><path class="cls-115" d="M49.76,57l-1.53,1.59c-.51.85-1.06,1.62-2.24,1.38a1.14,1.14,0,0,1-.52-.43,1.27,1.27,0,0,0-.6-.71,3.05,3.05,0,0,1-2.07-1.21,1.41,1.41,0,0,1,.47-1.73,1.44,1.44,0,0,1,.71-.21c1.22.53,2.4,1.55,3.78.34a2.73,2.73,0,0,1,1.7-.33.91.91,0,0,1,.54.4A.75.75,0,0,1,49.76,57Z"/><path class="cls-117" d="M45.68,59.61l2.55-1,.57,1.07-1.64,1.13-.39-.09c-.54.27-1,.27-1.31-.34A.79.79,0,0,1,45.68,59.61Z"/><path class="cls-118" d="M49.76,57V56c.17-.48.44-.75,1-.54l0,1v.22a.5.5,0,0,1-.3.32h-.72Z"/><path class="cls-119" d="M50.78,56.44l.7.07c-.06.33-.11.66-.17,1a4.27,4.27,0,0,0-.5.54h0c-.19-.36-.37-.72-.56-1.07h0a1.69,1.69,0,0,0,.51-.52Z"/><path class="cls-60" d="M50.81,58l.5-.54Z"/><path class="cls-120" d="M42.54,45.63c1.15-1.27,2.68-1,4.13-1,.35,1,1.5.89,2.06,1.58-.27.51.15,1.17-.36,1.63a1.52,1.52,0,0,1-.65.25c-.84,0-1.51-.58-2.34-.64a2.57,2.57,0,0,1-1-.3C43.85,46.53,42.9,46.44,42.54,45.63Z"/><path class="cls-121" d="M48.19,47.74a1.92,1.92,0,0,1,.54-1.56l1,1.59c-.75.73-.38,1.68-.52,2.53a.59.59,0,0,1-.72,0A2.13,2.13,0,0,1,48.19,47.74Z"/><path class="cls-122" d="M44.12,56l-.54,0A.37.37,0,0,1,43,56c.17-1.79,2-1.76,2.95-2.67A4.82,4.82,0,0,0,47,52.6a3,3,0,0,1,.53-.4,2.08,2.08,0,0,1,.64-.16.85.85,0,0,1,.56.31l.43,1.11a.74.74,0,0,1,.15.69,2.78,2.78,0,0,1-1.68,1.45C46.49,55.75,45.43,57.06,44.12,56Z"/><path class="cls-123" d="M50.75,55.42l-1,.54h0a1.31,1.31,0,0,1-.44-1.4,2.19,2.19,0,0,1,1-1.13l.45-.07.55,0h.45Z"/><path class="cls-124" d="M50.33,53.43l-.52,1a.76.76,0,0,1-.66-.63c0-.13,0-.25.05-.37.13-.34.15-.86.66-.75C50.06,52.76,50.18,53.18,50.33,53.43Z"/><path class="cls-125" d="M48.77,52.35h-.54a1.22,1.22,0,0,1-.08-1.7,1.36,1.36,0,0,1,.62-.4l.46,0C49.08,51,48.92,51.67,48.77,52.35Z"/><path class="cls-126" d="M43,55.92l.58,0c-.17.51-.35,1-.52,1.54a1.31,1.31,0,0,1-1.73.07c-1.66-.89-2.32-2.51-3-4.1a2.06,2.06,0,0,1,.62-2.19c0-1.56-.21-3.22,1.55-4.13a2,2,0,0,1,1,1.55c0,.87-.33,1.7-.24,2.57A5.11,5.11,0,0,0,43,55.92Z"/><path class="cls-71" d="M38.91,51.29l0,2.59c.39.52.23.91-.27,1.23-.25.06-.56.09-.71-.09-.53-.61-1.18-.89-1.62-.61h0c-.25-2-1-4.09,1-5.69A2.6,2.6,0,0,0,38.91,51.29Z"/><path class="cls-127" d="M41,48.76a1.92,1.92,0,0,1-.58-1.6,4.25,4.25,0,0,1,2.08-1.53c.81.06,1.78-.2,2.05,1C43.57,47.61,42.75,48.92,41,48.76Z"/><path class="cls-126" d="M37.37,48.72c-1.3,1.73-1,3.74-1,5.69-.93-1.28-.34-2.74-.49-4.11.59-1,.52-2.32,1.53-3.11Z"/><path class="cls-128" d="M35.24,50.21l-.36.21a.55.55,0,0,1-.18-.83,1,1,0,0,0-.15.61c.07.55-.2,1.16.28,1.64,0,.4.06,1-.35,1-.65.08-.56-.61-.71-1a8.12,8.12,0,0,1,.06-4.53c.17-.79.25-1.78,1.48-1.71l.56,1.67Z"/><path class="cls-129" d="M35.31,45.59c-1.75,1.78-1.4,4.07-1.54,6.24l-.45,0a13.82,13.82,0,0,1,.44-6.16h0c.42-.65.45-1.5,1.08-2,.1-.57.29-1,1-1A5.65,5.65,0,0,1,35.31,45.59Z"/><path class="cls-130" d="M29,38a2.2,2.2,0,0,0,2.3,1.52c.45.35,1.12-.08,1.51.45L29.6,42.44c-1.21-1.35-2.49-2.34-4.31-1a2.77,2.77,0,0,1-.29.6,3,3,0,0,1-.49.45L23.44,42a1.51,1.51,0,0,1-.56-.64c-.59-2.26.67-3.15,2.61-3.53C26.69,37.05,27.88,36.56,29,38Z"/><path class="cls-102" d="M23.39,41.59c0,.15,0,.3.05.45l-.53.52c-1.38-.64-3-.77-4.13-2l-.52-1.11,0-.07a1.26,1.26,0,0,1,1-.42c1.12.31,2.16.85,3.31,1C23.24,40.36,23.11,41.08,23.39,41.59Z"/><path class="cls-131" d="M24.51,42.5a2.63,2.63,0,0,0,0-.49c2.41-.69,3.18-.12,3.49,2.58l.06,1.06C27,44.47,26.15,43.05,24.51,42.5Z"/><path class="cls-132" d="M28.07,46.59l.54.08a3.09,3.09,0,0,1-1,2.51C27.78,48.31,27.93,47.45,28.07,46.59Z"/><path class="cls-133" d="M34.33,23v3.58c.28.68.29,1.19-.69,1a1.52,1.52,0,0,1,.09-2.06V23c-.31-1.22-.6-2.44-.94-3.66l-1.43-2.65c1-.43,1.63.36,2.43.61h0C35,19.05,34.84,21,34.33,23Z"/><path class="cls-10" d="M32.18,23a4.43,4.43,0,0,0,.59,2.51c.7.8.3,2.15,1.4,2.76a1.72,1.72,0,0,1-.05,1.66c-1.43,1.11-2.17.28-2.54-1C31.33,28,31.33,27,31,26.15a4.66,4.66,0,0,1,.35-3.07A.56.56,0,0,1,32.18,23Z"/><path class="cls-134" d="M32.18,23h-.54c-.64-.19-1.15-.66-1-1.28.32-1.92-1.59-3.15-1.45-5,0-.34,0-.68,0-1A12.32,12.32,0,0,1,32.18,23Z"/><path class="cls-135" d="M33.75,28.07c-1.43-.45-.91-1.63-1-2.58l.95,0c0,.72.06,1.43.1,2.15A.3.3,0,0,1,33.75,28.07Z"/><path class="cls-134" d="M32.78,19.29A5.3,5.3,0,0,1,33.72,23,5.6,5.6,0,0,1,32.78,19.29Z"/><path class="cls-79" d="M34.28,16.23h-.53c-.87-.5-2-.79-2-2.07.94-.3,1.51.52,2.29.75A1,1,0,0,1,34.28,16.23Z"/><path class="cls-136" d="M33.77,15.19c-.85,0-1.37-.69-2.05-1a4.34,4.34,0,0,1,0-.51l2.05.51A.69.69,0,0,1,33.77,15.19Z"/><path class="cls-137" d="M28.49,14.77l-.93-.54c.18-.57.15-1.57,1.09-1.07C29.36,13.54,29.07,14.28,28.49,14.77Z"/><path class="cls-86" d="M33.77,15.19v-1l1-.54.06,0c.48.74,1.34,1,2,1.49l.06.07c-.83.44-1.56,1.13-2.61,1Z"/><path class="cls-138" d="M40.61,29.69l.9-.62c.48-.36.54-1,.92-1.41l1.15-.08c-.47,1.63-.25,3.69-2.79,4.14Z"/><path class="cls-139" d="M34.83,51.84a1.43,1.43,0,0,1-.43-1.75c.32-.53.33.17.48.33C34.86,50.89,34.85,51.37,34.83,51.84Z"/><path class="cls-126" d="M36.35,54.41l1.35-2c.42.83-.05,1.89.72,2.52A1.33,1.33,0,0,1,39,57.12,1.31,1.31,0,0,1,37.38,57,5.69,5.69,0,0,1,36.35,54.41Z"/><path class="cls-140" d="M37.38,57l1.56,0c.68-.52,1.2-.29,1.65.32a.64.64,0,0,1-.11.72c-1-.06-1.15,2.11-2.58,1C37.72,58.37,37.55,57.68,37.38,57Z"/><path class="cls-115" d="M45.68,59.61c0,.15,0,.3-.07.45-.46.69.39.7.55,1.07-1.28.92-2.75.36-4.13.48,0-.85-3.28-1.72,0-2.56a1.48,1.48,0,0,1,.68-.38c1,.09,2.14-.06,2.91.89Z"/><path class="cls-141" d="M46.16,61.13c-.55-.11-1.4.2-1.59-.42s.62-.53,1-.65c.39.2.78.4,1.16.61Z"/><path class="cls-142" d="M34.33,23c-.24-1.9.36-3.88-.55-5.71C35.2,18.72,35.48,21.62,34.33,23Z"/><path class="cls-143" d="M33.75,28.07c0-.15,0-.31.07-.46l.5-1.07.49-.51a.48.48,0,0,1,.71,0c.91,1.55-.37,2.5-1,3.63a.63.63,0,0,1-.75,0Z"/><path class="cls-144" d="M35.34,26h-.53c.34-.86.67-1.72,1-2.57,0,.51,0,1,0,1.53C36.19,25.59,36.19,26,35.34,26Z"/><path class="cls-145" d="M35.85,30.68c0,.16,0,.33,0,.5-.73.49-1.46,1.26-2.22,0-.08-.59.31-.92.66-1.28,1.43-1.34,1.43-3.28,2.06-5V21.83c.94,1,1.18,2.35,2.54,2.17l.11-.07c.47.57,1.23.89,1.43,1.69L41,27.07c-1.36.71-3.75-.65-4.11,2.05Z"/><path class="cls-146" d="M36.33,25c-.16,1.93.54,4.2-2,5.18-.16-.11-.22-.22-.18-.34s.08-.19.13-.19c-.12-1.34,1.25-2.24,1.09-3.6l.5-1Z"/><path class="cls-147" d="M36.83,15.15c-1.1.09-2,0-2-1.49C36.18,13.25,36.46,14.26,36.83,15.15Z"/><path class="cls-148" d="M40.41,25.62c-.83-.26-1.5-.67-1.43-1.69.66,0,.94-.46,1-1.06.59.65.69,1.67,1.58,2.09Z"/><path class="cls-82" d="M34.84,43.58a2.88,2.88,0,0,1-1.08,2A1.89,1.89,0,0,1,34.84,43.58Z"/><path class="cls-76" d="M28.05,44.59c-.78-1.38-1.72-2.54-3.49-2.58a1.22,1.22,0,0,1-.08-.5,1.44,1.44,0,0,1,2.24-1.2c1,.49,3.13,0,2.46,2.34C29.27,43.57,28.46,44,28.05,44.59Z"/><path class="cls-131" d="M29.18,42.65C28,40.38,26.5,40,24.48,41.51c-.46-1.43.26-2,1.53-1.76s2.31.54,3.47.78c1.64.35-.2,1.27.12,1.91C29.46,42.52,29.32,42.58,29.18,42.65Z"/><path class="cls-149" d="M32.79,40a2.06,2.06,0,0,1-1.51-.45l2.34,0c-.12.18-.23.37-.34.55A1.17,1.17,0,0,0,32.79,40Z"/><path class="cls-150" d="M29.15,16.72A18.17,18.17,0,0,1,31.65,23l.09,3a.49.49,0,0,1,.15.44c0,.15-.07.23-.1.23-1.48,0-1.46-1.15-1.56-2.08s0-2-.2-3a.58.58,0,0,1,.12-.66,3.16,3.16,0,0,0-1-2.1l-.61-1.5c-.14-.12-.18-.23-.12-.34s.1-.16.15-.16Z"/><path class="cls-75" d="M28.59,16.8a4.19,4.19,0,0,1,0,.5L25,14.06C27.05,13.84,27.56,15.67,28.59,16.8Z"/><path class="cls-47" d="M22.42,15.19l-.51-.51H24C23.43,15.4,22.88,15.09,22.42,15.19Z"/><path class="cls-151" d="M45,20.63c0,.36-.14.77-.51.76-.63,0-.76-.58-.77-1.09a.57.57,0,0,1,.64-.61C44.87,19.75,45,20.18,45,20.63Z"/><path class="cls-18" d="M28.11,23.94c.67,2,0,3.83-.51,5.72s-1.58,2.22-3.13,1a1.41,1.41,0,0,1-1.87-.08c-.87-.76-.77-2-1.46-2.85-.19-1.43-1.31-2.79-.26-4.29l1,0,.52.51c.27,1.27,1.57,1.53,2.29,2.37a1.65,1.65,0,0,1,.15.69c0,.63-.62,1.24,0,1.86,1.6-.1,1.38-1.51,1.74-2.45s.11-2.22,1-3.05Z"/><path class="cls-152" d="M27.61,23.41a13.49,13.49,0,0,1-.79,5.22c-.6,1.55-1.42,2-2.85,1,0-.65.71-1,.8-1.58a2.41,2.41,0,0,0-.23-.78,2.68,2.68,0,0,0-.07-.27c0-.16,0-.31,0-.47.17-.83,1-1,1.49-1.59C26.68,24.62,26,22.78,27.61,23.41Z"/><path class="cls-153" d="M25.85,23.06c.08.72-.39,1-.9,1.05-1.06.16-1.56-.53-1.81-1.4-.18-.65.29-.93.84-1C25.05,21.55,25.45,22.34,25.85,23.06Z"/><path class="cls-154" d="M26,25a2.87,2.87,0,0,1-1.49,1.59c-.91-.67-2.15-1.07-2.07-2.55C23.38,25.13,24.48,25.75,26,25Z"/><path class="cls-16" d="M21.39,28.08c.87.43,1.14,1.3,1.55,2.07.38,1.69-.54,1.44-1.55,1h0l-1-1.54a1.09,1.09,0,0,0,1-1c-.16-.11-.21-.23-.16-.34S21.34,28.08,21.39,28.08Z"/><path class="cls-154" d="M21.39,28.08v.52c-.67-1.66-2.54-3.21-.51-5.14Z"/><path class="cls-155" d="M17.18,36.35l1.63-.52c1.81.2,3.75,0,5.12,1.64a1.62,1.62,0,0,0-.09.38c-.2,1.13-.69,1.86-2,1.51-1.24-1.28-3.53-1-4.34-2.91Z"/><path class="cls-100" d="M23.93,37.47l-5.12-1.64C20.86,35.28,22.76,35.25,23.93,37.47Z"/><path class="cls-100" d="M22,39c1,.29,1.12-1,1.87-1.12l.67,0a3.12,3.12,0,0,0,.44,0l.54,0a3.55,3.55,0,0,0-2.1,3.72l-1-1.18a1.35,1.35,0,0,1-.59-1.16C21.84,39.15,21.91,39.06,22,39Z"/><path class="cls-156" d="M17.5,36.45C19,37.24,21,37.15,22,39h0c-.63,2-1.66.76-2.59.32a7.25,7.25,0,0,1-2.05-1.1H17a.32.32,0,0,0-.09-.32C17.09,37.38,17.29,36.91,17.5,36.45Z"/><path class="cls-157" d="M17.33,38.18c.83-.18,1.3.58,2,.75.17.12.23.25.17.37s-.12.18-.18.18l-1-.06C18,39,17.37,38.82,17.33,38.18Z"/><path class="cls-80" d="M36.86,29.12c.2-2.9.42-3,4.11-2.05a2.11,2.11,0,0,1,.2.43C39.76,28.1,38,27.76,36.86,29.12Z"/><path class="cls-87" d="M43.62,25.46c-.14.63-.38,1.16-1.17.9-.18-.06-.44-.44-.4-.5.39-.62,1-.27,1.58-.39Z"/><path class="cls-80" d="M42.43,27.66c0,.7,0,1.38-.92,1.41V27.59Z"/><path class="cls-158" d="M42.55,59.05H42l-1.56-1v-.51c.2-.45.61-.51,1-.52l1.54.52,2.56.52C45.07,59.8,43.79,59.36,42.55,59.05Z"/><path class="cls-159" d="M29.61,34.23a5.55,5.55,0,0,1-3.56.55c-.89-2.06,1.27-2.11,2-3.08l1.07-2a4.85,4.85,0,0,1,.55-.56,1,1,0,0,1,1.41.25C32.14,31.47,30.31,32.67,29.61,34.23Z"/><path class="cls-160" d="M29.61,34.23c-.18-1.81,1.55-3.22,1.06-5.1a4.13,4.13,0,0,1-1.23-1.63,1,1,0,0,1,.2-1l0-3.15c.52-.59-.09-1.45.5-2,1.19,1.54.13,3.73,1.47,5.24A31.12,31.12,0,0,0,32,30.44a2.41,2.41,0,0,1-1.29,2.83Z"/><path class="cls-18" d="M28.09,31.7c-.47,1.16-2,1.64-2,3.08H25C25,32.72,26.44,32.1,28.09,31.7Z"/><path class="cls-48" d="M21.39,31.19c.75,0,1.41-.13,1.55-1l1.53.53C23.75,32.75,22.68,32.63,21.39,31.19Z"/><path class="cls-18" d="M29.64,26.54l0,1.05a1.5,1.5,0,0,1-.05,2,3.47,3.47,0,0,0-.45.06C29.22,28.62,28.83,27.49,29.64,26.54Z"/><path class="cls-161" d="M30.18,21.37c-.05.7.11,1.46-.5,2,0-.85-.28-1.77.47-2.49A3.83,3.83,0,0,0,30.18,21.37Z"/><path class="cls-16" d="M30.7,33.27c.92-2.14,0-4.54.95-6.66l.09-.66c.59.8.37,1.74.53,2.62s.19,1.85,1.5,1.07h.48c0,.18,0,.35,0,.53-.16.35-.31.71-.47,1.07.44.75.11,1.19-.61,1.47l-1.43,1.1Z"/><path class="cls-26" d="M33.22,32.7c.21-.49.41-1,.61-1.48.68.38,1.33,0,2,0a7,7,0,0,0-1,3.1C33.79,34.22,33.83,33.14,33.22,32.7Z"/><path class="cls-162" d="M44.12,56c1.34.11,2.22-1.25,3.57-1.1.42.46-.57,1.4.55,1.63C46.7,57.65,45.22,58.32,44.12,56Z"/><path class="cls-163" d="M48.24,56.53c-1.86,0-.91-.9-.55-1.63l1.46-1.07.66.63,0,1.5Z"/><path class="cls-107" d="M42.55,59.05a3.55,3.55,0,0,0,3.07-1c2.46.49-.55,1,0,1.53C44.59,59.47,43.47,59.87,42.55,59.05Z"/><path class="cls-164" d="M50.78,56.45l-.51.52Z"/><path class="cls-165" d="M41,48.76c1.19-.7,1.87-2.24,3.55-2.14l1.06.08c.27,1-.61,1.12-1.07,1.56a5.71,5.71,0,0,0-1.79,1.93,1.5,1.5,0,0,1-.63.73c-.73-.61-1,.72-1.63.4A4,4,0,0,1,41,48.76Z"/><path class="cls-166" d="M48.77,50.25l-.08.52a1.66,1.66,0,0,1-2-.37l-.23-.29a2.2,2.2,0,0,1-.25-.66,2,2,0,0,1,.23-1.37,1,1,0,0,1,1.2-.37l.55,0A4.39,4.39,0,0,1,48.77,50.25Z"/><path class="cls-167" d="M47.65,47.71l-1,.55a1.21,1.21,0,0,1-.64.29c-.71-.11-1.49-.07-1.86-.88l1.54-1A2.6,2.6,0,0,1,47.65,47.71Z"/><path class="cls-168" d="M40.53,51.32c.41-.37.73-1,1.45-.49a1.4,1.4,0,0,1,.61.3,3.11,3.11,0,0,0,2.52,1.34c.76,0,1.76.11,1.5,1.38L43,55.92C40,55.58,40.64,53.24,40.53,51.32Z"/><path class="cls-169" d="M46.61,53.85c-.53-.72-1.25-.61-2-.61a2.21,2.21,0,0,1-2.52-1.94c1.11-.19,2.25-.3,2.93-1.39a2.15,2.15,0,0,1,1.77-.16l1.94,1c-.16.52-.31,1-.46,1.58l-.52.51a2.44,2.44,0,0,1-.43-.53,2.72,2.72,0,0,0,.42.53A1.75,1.75,0,0,1,46.61,53.85Z"/><path class="cls-170" d="M41.52,57l-1,.52L38.94,57c-.17-.69-.35-1.37-.52-2,.17-.35.35-.7.53-1C39.8,54.92,40.66,56,41.52,57Z"/><path class="cls-171" d="M39.75,50c.23,1.25.4,2-.07,2.73A3.46,3.46,0,0,1,39.75,50Z"/><path class="cls-155" d="M19.31,39.48v-.55c.88.43,1.75,1,2.65,0l.4,1.45C21.06,41.06,20.14,40.43,19.31,39.48Z"/><path class="cls-172" d="M26,28.07a2.51,2.51,0,0,1-2,1.57c-1.73-1.24.18-1.78.5-2.63l0,.13C24.94,27.57,25.6,27.61,26,28.07Z"/><path class="cls-56" d="M26,28.07c-.8.17-1.65.42-1.5-.93C25.38,26.86,26.17,26.7,26,28.07Z"/><path class="cls-145" d="M29.61,29.63c0-.68,0-1.36.05-2,.92.13,1,.8,1,1.54Z"/><path class="cls-93" d="M45.13,50.28c-.38,2.3-1.5,2.35-3.08,1,0-.16,0-.31-.07-.47,0-.35,0-.71.07-1.06a1.09,1.09,0,0,1,.94-.32A20.57,20.57,0,0,0,45.13,50.28Z"/><path class="cls-173" d="M43.07,49.77h-1a5.54,5.54,0,0,1,2.06-2.1c.73,0,1.5-.12,2.07.52A5.3,5.3,0,0,1,43.07,49.77Z"/><path class="cls-42" d="M43.07,49.77a2.82,2.82,0,0,1,3.11-1.58l.43.07c.07.33.6.63,0,1-.17.14-.45.26-.12.53l.21,0c-.43.5-1,.46-1.62.53C44.28,50.78,43.32,51.69,43.07,49.77Z"/><path class="cls-174" d="M46.54,49.78l-2.2-.16c.84-1.15,1.64-.3,2.32-.37Z"/><path class="cls-175" d="M42.84,53.94c.15.14.57.33.61.58.08.54-.41.35-.68.31a.61.61,0,0,1-.58-.68C42.21,53.85,42.46,53.81,42.84,53.94Z"/><path class="cls-176" d="M47.7,52.86c-.47-.13-1-.25-.83-.92,0-.11.23-.28.32-.26.66.16.42.75.52,1.18Z"/></g></g></svg>