<svg xmlns="http://www.w3.org/2000/svg" viewBox="0 0 74 74"><defs><style>.cls-1{fill:#1e2223;}.cls-2{fill:#262525;}.cls-3{fill:#585757;}.cls-4{fill:#50575a;}.cls-5{fill:#2c2e30;}.cls-6{fill:#242a2c;}.cls-7{fill:#474747;}.cls-8{fill:#646464;}.cls-9{fill:#323232;}.cls-10{fill:#6f6c6c;}.cls-11{fill:#6b90a1;}.cls-12{fill:#4b4949;}.cls-13{fill:#494949;}.cls-14{fill:#6b6b6b;}.cls-15{fill:#273437;}.cls-16{fill:#525253;}.cls-17{fill:#6d6d6d;}.cls-18{fill:#535252;}.cls-19{fill:#313131;}.cls-20{fill:#454444;}.cls-21{fill:#323537;}.cls-22{fill:#0c0a0a;}.cls-23{fill:#2c3640;}.cls-24{fill:#303030;}.cls-25{fill:#1f1f20;}.cls-26{fill:#757575;}.cls-27{fill:#5c5a5a;}.cls-28{fill:#5c5c5c;}.cls-29{fill:#272626;}.cls-30{fill:#717171;}.cls-31{fill:#282829;}.cls-32{fill:#354a54;}.cls-33{fill:#676767;}.cls-34{fill:#525151;}.cls-35{fill:#1c191b;}.cls-36{fill:#4b4b4b;}.cls-37{fill:#5b646b;}.cls-38{fill:#606060;}.cls-39{fill:#1f2226;}.cls-40{fill:#384652;}.cls-41{fill:#575757;}.cls-42{fill:#272727;}.cls-43{fill:#393939;}.cls-44{fill:#3e3d3d;}.cls-45{fill:#504e4e;}.cls-46{fill:#6e6b6b;}.cls-47{fill:#575656;}.cls-48{fill:#767474;}.cls-49{fill:#494848;}.cls-50{fill:#7c7878;}.cls-51{fill:#565656;}.cls-52{fill:#4e4e4e;}.cls-53{fill:#7f7a7a;}.cls-54{fill:#353c42;}.cls-55{fill:#647d8b;}.cls-56{fill:#5a707a;}.cls-57{fill:#68838f;}.cls-58{fill:#4e5a61;}.cls-59{fill:#627782;}.cls-60{fill:#4e4e4f;}.cls-61{fill:#384b57;}.cls-62{fill:#445a66;}.cls-63{fill:#33434d;}.cls-64{fill:#26323c;}.cls-65{fill:#445865;}.cls-66{fill:#333;}.cls-67{fill:#384a56;}.cls-68{fill:#31373b;}.cls-69{fill:#315d6c;}.cls-70{fill:#435560;}.cls-71{fill:#343b42;}.cls-72{fill:#2c2f32;}.cls-73{fill:#969696;}.cls-74{fill:#303233;}.cls-75{fill:#373737;}.cls-76{fill:#888;}.cls-77{fill:#424242;}.cls-78{fill:#aeaeae;}.cls-79{fill:#b0b0b0;}.cls-80{fill:#7b7b7b;}.cls-81{fill:#605e5e;}.cls-82{fill:#414141;}.cls-83{fill:#393838;}.cls-84{fill:#515151;}.cls-85{fill:#5f5c5c;}.cls-86{fill:#515050;}.cls-87{fill:#434343;}.cls-88{fill:#878181;}.cls-89{fill:#868282;}.cls-90{fill:#8fb4c7;}.cls-91{fill:#4d676e;}.cls-92{fill:#50676d;}.cls-93{fill:#94bdd4;}.cls-94{fill:#769fb3;}.cls-95{fill:#282828;}.cls-96{fill:#242a31;}.cls-97{fill:#8a8a8a;}.cls-98{fill:#605f5f;}.cls-99{fill:#393839;}.cls-100{fill:#2d2d2e;}.cls-101{fill:#9b9b9b;}.cls-102{fill:#bababa;}.cls-103{fill:#5b5a5a;}.cls-104{fill:#8e8a8a;}.cls-105{fill:#ababab;}.cls-106{fill:#a8a8a8;}.cls-107{fill:#6c6c6c;}.cls-108{fill:#2e2e2e;}.cls-109{fill:#716f6f;}.cls-110{fill:#525d65;}.cls-111{fill:#4b5a66;}.cls-112{fill:#66828c;}.cls-113{fill:#546370;}.cls-114{fill:#727577;}.cls-115{fill:#43525c;}.cls-116{fill:#7d7d7d;}.cls-117{fill:#3d3d3d;}.cls-118{fill:#374753;}.cls-119{fill:#2d2e2f;}.cls-120{fill:#2f3d46;}.cls-121{fill:#3b3a3a;}.cls-122{fill:#b3b3b3;}.cls-123{fill:#979797;}.cls-124{fill:#688792;}.cls-125{fill:#bbb;}.cls-126{fill:#6a6969;}.cls-127{fill:#6a6868;}.cls-128{fill:#353434;}.cls-129{fill:#646262;}.cls-130{fill:#403f3f;}.cls-131{fill:#8f8d8d;}.cls-132{fill:#d0d0d0;}.cls-133{fill:#6f6f6f;}.cls-134{fill:#444;}.cls-135{fill:#969494;}.cls-136{fill:#434242;}.cls-137{fill:#3f4c57;}.cls-138{fill:#41545f;}.cls-139{fill:#334350;}.cls-140{fill:#2b3338;}.cls-141{fill:#313337;}.cls-142{fill:#252e34;}.cls-143{fill:#979a9b;}.cls-144{fill:#7c9ea7;}.cls-145{fill:#81a0ab;}.cls-146{fill:#8fb7c1;}.cls-147{fill:#597682;}.cls-148{fill:#253237;}.cls-149{fill:#62848f;}.cls-150{fill:#232c31;}.cls-151{fill:#3e5b67;}.cls-152{fill:#739ca7;}.cls-153{fill:#34383b;}.cls-154{fill:#2f414d;}.cls-155{fill:#3b515a;}.cls-156{fill:#283840;}.cls-157{fill:#3e515d;}.cls-158{fill:#648692;}.cls-159{fill:#33454f;}.cls-160{fill:#475b68;}.cls-161{fill:#54595a;}.cls-162{fill:#2c3b43;}.cls-163{fill:#516a77;}.cls-164{fill:#30424b;}.cls-165{fill:#dadada;}.cls-166{fill:#a7a7a7;}.cls-167{fill:#b6b6b6;}.cls-168{fill:#919191;}.cls-169{fill:#404040;}.cls-170{fill:#585858;}.cls-171{fill:#333638;}.cls-172{fill:#37464c;}.cls-173{fill:#636363;}.cls-174{fill:#1e2529;}.cls-175{fill:#505050;}.cls-176{fill:#686767;}.cls-177{fill:#989797;}.cls-178{fill:#232323;}.cls-179{fill:#464545;}.cls-180{fill:#8e8e8e;}.cls-181{fill:#5a5757;}.cls-182{fill:#b7b6b6;}.cls-183{fill:#73858d;}.cls-184{fill:#7ba4b8;}.cls-185{fill:#a8c7d7;}.cls-186{fill:#4e5051;}.cls-187{fill:#747373;}.cls-188{fill:#404344;}.cls-189{fill:#414243;}.cls-190{fill:#616263;}.cls-191{fill:#828282;}.cls-192{fill:#2a2a2a;}.cls-193{fill:#191919;}.cls-194{fill:#1d1f21;}.cls-195{fill:#7a7a7a;}.cls-196{fill:#838383;}.cls-197{fill:#1c1c1c;}.cls-198{fill:#a4a4a4;}.cls-199{fill:#807f7f;}.cls-200{fill:#2e2d2d;}.cls-201{fill:#637d88;}.cls-202{fill:#6b7174;}.cls-203{fill:#5b6a76;}.cls-204{fill:#485b69;}.cls-205{fill:#41474c;}.cls-206{fill:#494e52;}.cls-207{fill:#adadad;}.cls-208{fill:#4a6068;}.cls-209{fill:#2f3234;}.cls-210{fill:#101a1f;}.cls-211{fill:#495155;}.cls-212{fill:#7298a4;}.cls-213{fill:#c7c7c7;}.cls-214{fill:#a09f9f;}.cls-215{fill:#222;}.cls-216{fill:#747171;}.cls-217{fill:#6b6969;}.cls-218{fill:#7a7878;}.cls-219{fill:#5f7c88;}.cls-220{fill:#191b1e;}.cls-221{fill:#536d7a;}.cls-222{fill:#e6e6e6;}.cls-223{fill:#b4b4b4;}.cls-224{fill:#939393;}.cls-225{fill:#5e5e5e;}.cls-226{fill:#6c909a;}.cls-227{fill:#2f3437;}.cls-228{fill:#595959;}.cls-229{fill:#a3a1a1;}.cls-230{fill:#454545;}.cls-231{fill:#898d8e;}.cls-232{fill:#909090;}.cls-233{fill:#646161;}.cls-234{fill:#3d3c3c;}.cls-235{fill:#524f4f;}.cls-236{fill:#212121;}.cls-237{fill:#1e1e1e;}.cls-238{fill:#2f2f2f;}.cls-239{fill:#818181;}.cls-240{fill:#7b8387;}.cls-241{fill:#494a4a;}.cls-242{fill:#2c2c2c;}.cls-243{fill:#d1dade;}.cls-244{fill:#7e8689;}.cls-245{fill:#4e4d4d;}.cls-246{fill:#7ea6b0;}.cls-247{fill:#1a5263;}.cls-248{fill:#9d9d9d;}.cls-249{fill:#9a9999;}.cls-250{fill:#868181;}.cls-251{fill:#575555;}.cls-252{fill:#565353;}.cls-253{fill:#4f4d4d;}.cls-254{fill:#757171;}.cls-255{fill:#b0afaf;}.cls-256{fill:#5d8797;}.cls-257{fill:#cdcdcd;}.cls-258{fill:#484747;}.cls-259{fill:#0f0f0f;}.cls-260{fill:#b7c8d0;}.cls-261{fill:#5d6263;}.cls-262{fill:#2d3030;}.cls-263{fill:#a2a1a0;}.cls-264{fill:#696969;}.cls-265{fill:#727272;}.cls-266{fill:#a16452;}.cls-267{fill:#695f5d;}.cls-268{fill:#9e9e9e;}.cls-269{fill:#e0e9ed;}.cls-270{fill:#1d1d1d;}.cls-271{fill:#3c3b3b;}.cls-272{fill:#2a2b2c;}.cls-273{fill:#212020;}.cls-274{fill:#3f3e3e;}.cls-275{fill:#275b6b;}.cls-276{fill:#656565;}.cls-277{fill:#aaa9a9;}.cls-278{fill:#696766;}.cls-279{fill:#9c9b9b;}.cls-280{fill:#8c8989;}.cls-281{fill:#8c8c8c;}.cls-282{fill:#343333;}.cls-283{fill:#3d3a3a;}.cls-284{fill:#91422b;}.cls-285{fill:#7b554c;}.cls-286{fill:#878787;}.cls-287{fill:#613a2f;}</style></defs><title>엔진_1</title><g id="레이어_2" data-name="레이어 2"><g id="레이어_1-2" data-name="레이어 1"><rect class="cls-1" width="74" height="74" rx="8.33" ry="8.33"/><path class="cls-2" d="M60.69,32.64c.35,1.53-.93,3.4,1,4.6.46,1,.55,2-.43,2.65-1.14.7-1.83-.24-2.42-1.08-.36-.51-1-.59-1.43-1-.71-.86-.42-2.14-1.28-2.94A7.23,7.23,0,0,0,55,32.22c-.85-1.07-.86-2.08.4-2.89,1.55-.5,2.26.62,3,1.62.54.72.9,1.63,2.05,1.49Z"/><path class="cls-3" d="M55.58,61.05c-2.17,2.44-4.83,2.25-7.09-.49-2.39-1.56-2.62-4-2.78-6.55,0-.54,0-1.08,0-1.62a1.64,1.64,0,0,1,.85-1.59c.81.45,1.25-.73,2-.48a1.41,1.41,0,0,1,.57.84c.26,1-.38,2.27,1.08,2.78a6.49,6.49,0,0,1,.51,5c-.24.67-.4,1.3.39,1.72l.62.23c1.14.67,2.14-.43,3.24-.23A1.36,1.36,0,0,1,55.58,61.05Z"/><path class="cls-4" d="M26.18,12.38c.67-1.17,1.81-1,2.9-1a58.6,58.6,0,0,1,10.25.51,1.9,1.9,0,0,1,1.86,0c1.63.51,3.3.17,5,.25,1,.05,1.84-1,2.87-.25h0a.93.93,0,0,1,.16.81c-.86,1.8-2.43,2.09-4.21,2-1-.05-2,0-3-.05-1.28.08-2.05-1.58-3.47-1-.5.42-.88,1-1.39,1.38s-1.12.92-1.91.49.51-3.23-2-1.92c-2,.72-3.69-1.1-5.66-.67a1.9,1.9,0,0,1-.75,0A1.39,1.39,0,0,1,26.18,12.38Z"/><path class="cls-5" d="M34.3,60.55c-2.11,1.42-4,2.13-6.52.26s-5.47-3.53-8.18-5.33a1.25,1.25,0,0,1,.25-1,1.28,1.28,0,0,1,.95-.39,6,6,0,0,1,3.36,1.74,2.76,2.76,0,0,0,1.66,1.08,4.14,4.14,0,0,1,.86.57,27.77,27.77,0,0,0,3.38,2.13,2.11,2.11,0,0,0,1.47-.29,2.81,2.81,0,0,1,.9-.3,1.91,1.91,0,0,1,1,.17A1.8,1.8,0,0,1,34.3,60.55Z"/><path class="cls-6" d="M20.1,55l-.5.5c-2.37-1.11-3.29-3.07-2.84-5.95.14-.91.22-1.83.29-2.74.21-2.71.42-5.41-2.93-6.56-.29-.1-.4-.68-.59-1,2.33-1.08,3.82,1,5.73,1.52a1.47,1.47,0,0,1,.64.93c.08.84-.64,1.28-1,1.93-.84,1-.57,2.2-.61,3.34a6.35,6.35,0,0,0,.42,2.48c.13.83.05,1.68.12,2.51C19,53.05,19.88,53.87,20.1,55Z"/><path class="cls-7" d="M17.06,20.5c.57-1.12,1.31-.68,2-.19s1.16,1.16,2.06,1.2a2.25,2.25,0,0,1,1,0,6.58,6.58,0,0,1,1.5.75c1.2,1.3,2.77,1.16,4.32,1.09a2.53,2.53,0,0,1,1.69.82.92.92,0,0,1,.08,1.11c-1.56,1-3.3.61-4.91.45a26.61,26.61,0,0,0-4-.12,2.4,2.4,0,0,1-1-.55c-.83-.7-.85-1.78-1.24-2.68C18.36,21.49,17.66,21,17.06,20.5Z"/><path class="cls-8" d="M61.16,33.18l-.47-.54h0c-1.83-.87-2.88-2.58-4.28-3.92a1.31,1.31,0,0,1,0-.68c.33-.58,1-.87,1.19-1.56a13.05,13.05,0,0,1,1-1.21,1.94,1.94,0,0,1,.49-.36.57.57,0,0,1,.56.12l.53,1c1.06,1.95,2.11,3.9,1.73,6.26C61.86,32.74,61.92,33.29,61.16,33.18Z"/><path class="cls-9" d="M57.6,37.73c.73.19,2.84-2.55,2,1-.11.45.55.92,1.07.8,1.24-.31.9-1.4,1-2.27.75,1.77,1.11,3.51-.49,5.06-.93.55-2,0-2.93.35-.85-.1-1.17-.67-1.27-1.43s.75-1.59-.1-2.34a1.14,1.14,0,0,1-.4-.89C56.75,37.49,57.12,37.33,57.6,37.73Z"/><path class="cls-10" d="M55.58,61.05l-.51,0c-.31-.23-.34-.59-.46-.9a1.49,1.49,0,0,0-.41-.26,1.81,1.81,0,0,1-.48-.29A3.24,3.24,0,0,1,53,58.21c0-.7-.52-1.21-.66-1.86a1,1,0,0,1,.29-.61c1.24-.67,2,.15,3,1-.58-1.41-1.25-2.69-.1-4,1.05-.5,1.56.26,2.13.91a5.8,5.8,0,0,1,.56.89c.53.54.14,1.32.5,1.92A8.33,8.33,0,0,1,55.58,61.05Z"/><path class="cls-11" d="M13.56,38.17A2.83,2.83,0,0,1,13,35.8a2.53,2.53,0,0,1,1.16-1.08c1.89,0,3.62.9,5.5.92a17.93,17.93,0,0,0,2.48,1.24c.83.36,1.51.81,1.13,1.9a2.34,2.34,0,0,1-2.64.39c-.36-.12-.73-.19-1.1-.29-1-.33-1.67-1.39-3.13-1.38.61.61,1.31,1,1.34,1.8a1.05,1.05,0,0,1-.35.63C15.76,40.16,14.72,39,13.56,38.17Z"/><path class="cls-12" d="M59.67,25l-.64.13a1.76,1.76,0,0,1-1.41.51c-1.91-.27-3.74-1.22-5.74-.6a2.33,2.33,0,0,1-.69.08,3.19,3.19,0,0,0-2.51.45,3.16,3.16,0,0,1-.68.21c-1,.29-2,.49-2.83-.35A1.45,1.45,0,0,1,44.78,24a1.55,1.55,0,0,1,.52-.53,12.57,12.57,0,0,0,3.08-1,2.25,2.25,0,0,1,2.61,1C54,23.52,57,23.45,59.67,25Z"/><path class="cls-13" d="M46.46,54c-.07,2.43,1.1,4.47,2,6.59l-.5,0c-.87.06-1.66.5-2.54.52H45c-.72-.08-1.5.16-2.14-.36a1,1,0,0,1,.11-1.31c.66-.33,1.36-.63,1.48-1.5a2.82,2.82,0,0,1,.35-.57c.92-1.07-.18-2.18.06-3.27A1,1,0,0,1,46.46,54Z"/><path class="cls-14" d="M45.47,58l-.57.06a1.48,1.48,0,0,1-.59.29,18.92,18.92,0,0,0-2-.08c-1.79-.19-.25,1-.62,1.46a.68.68,0,0,1-.44.46,24,24,0,0,1-2.65-1.28c-.51-.33-1.22-.77-1-1.55s1.1-.89,1.84-.84a17.9,17.9,0,0,1,1.94.35C44.11,55.78,45.05,56,45.47,58Z"/><path class="cls-15" d="M14.07,35.25l-1,.55c-.26-1.3.69-1.92,1.49-2.63,1.76-.86,3.3-.79,4.46,1a1.59,1.59,0,0,1,.21,1.57c-1,.53-1.9-.07-2.85-.25C15.6,35.34,14.9,34.57,14.07,35.25Z"/><path class="cls-16" d="M40.9,12.39a2,2,0,0,0-1.57-.53,19.24,19.24,0,0,1,9.68,0c-1.06-.19-1.62.87-2.54,1C44.66,12.2,42.71,13.07,40.9,12.39Z"/><path class="cls-9" d="M18.48,34.69c-.85-1.72-2.42-1.56-4-1.52,1.33-1.87,3-.72,4.57-.51a2.06,2.06,0,0,1,2-.61c1,.49,1.74,1.05.59,2.13a2,2,0,0,1-.72.22A13.54,13.54,0,0,0,18.48,34.69Z"/><path class="cls-17" d="M19.07,32.19c-2.88-1.69-3-2.14-1.47-4.08a.5.5,0,0,1,.62-.06c.55.71.77,2,2.17,1.26a1,1,0,0,1,1,.94C21.23,31.61,20.79,32.68,19.07,32.19Z"/><path class="cls-18" d="M59.66,44.83c1.31,2.23,2.08,4.54,1,7.11-1.18-.77-.51-2.16-1.06-3.14s-.86-2.09-2.21-2.31a1,1,0,0,1-.92-1.22C57.4,44.13,58.37,43.34,59.66,44.83Z"/><path class="cls-19" d="M45.47,58c-.93-1.89-2.77-.52-4.07-1.13,0-.13,0-.27,0-.4a.84.84,0,0,1-.18-1c.91-.71,2-.2,2.94-.37,1,.65.1-1,.81-.65C46.64,55.45,46,56.73,45.47,58Z"/><path class="cls-20" d="M59.66,44.83c-1.15-.61-2,.5-3,.51a1.25,1.25,0,0,1-1,.4,1.18,1.18,0,0,1-.65-.39,1.31,1.31,0,0,1,.2-1.46c.9-1,1.9-1.7,3.33-1.32a.82.82,0,0,1,.69.75Z"/><path class="cls-16" d="M49,12.39c0-.17,0-.35,0-.52,3.08.46,2.69,2.47,2,4.59A2.93,2.93,0,0,1,51,19l-.52,1.55a.53.53,0,0,1-.65.06,1.58,1.58,0,0,1-.48-.94,2.66,2.66,0,0,1,0-.69,4.37,4.37,0,0,0,.06-2.9,2.59,2.59,0,0,1,.08-.63c.14-.46.43-.9.16-1.41A2.6,2.6,0,0,1,49,12.39Z"/><path class="cls-21" d="M21.15,18.54c0-3.48,0-3.48,4-4.13a.61.61,0,0,1,.78.08,2.79,2.79,0,0,1,.21,3.19,1.11,1.11,0,0,1-.58.46c-1,0-1-1.06-1.52-1.53a.86.86,0,0,0-.78,0C22.51,17.17,22.62,18.72,21.15,18.54Z"/><path class="cls-22" d="M40.36,56,36.85,56c-.55.16-1.09,1.08-1.66.16-.37-.59.11-1.08.56-1.48.74-.66,1.44-1.4,2.58-1.21C39.32,54,41.09,54,40.36,56Z"/><path class="cls-23" d="M50,21.51c0,.16,0,.32,0,.47a1.42,1.42,0,0,1-1.16.54c-1.72.09-3.43,1.61-5.15,0-.5-1.67.43-2.3,1.87-2.34a6.55,6.55,0,0,1,2.9.37C49,20.81,49.68,20.9,50,21.51Z"/><path class="cls-24" d="M45.45,61.06c.56-1.61,1.2-2.78,2.54-.52C47.57,62.79,46.6,62.37,45.45,61.06Z"/><path class="cls-25" d="M38.31,54c-1.27.11-1.86,1.15-3,2h1.57l-.52,1c-.29.47-.61.9-1.26.83-1.58-.61-1.57-1.68-.86-3A8.16,8.16,0,0,1,36,53.4a2.1,2.1,0,0,1,2.14-.3.84.84,0,0,1,.37.61C38.44,53.82,38.37,53.92,38.31,54Z"/><path class="cls-26" d="M58.66,56.51l-1-1.5c.31-1,0-2.28.94-3.13,1-.37,1.47,0,1.38,1s.2,1.8-.28,2.63Z"/><path class="cls-27" d="M59.67,55.49c0-.88,0-1.76-.07-2.64-.05-.65-.43-.8-1-.4a.48.48,0,0,1-.63,0,1.19,1.19,0,0,1,.39-1.55c.17-.13.34-.26.5-.4.53-.55.47-1.39,1-1.94l.28-.16c.87,1.09.35,2.38.51,3.56C60.19,53.09,60.45,54.44,59.67,55.49Z"/><path class="cls-28" d="M61.16,33.18a4.52,4.52,0,0,0,0-4.42A21.83,21.83,0,0,1,60.2,26c2.14,1.9,2.16,4.4,1.91,7C62,33.57,61.74,34.19,61.16,33.18Z"/><path class="cls-29" d="M59.13,43.32l-.52-.51c-.31-.17-.31-.33,0-.49-.24-.77,0-1.14.8-.85a17.58,17.58,0,0,1,1.76.83C61.19,44,60.63,44.61,59.13,43.32Z"/><path class="cls-30" d="M21.15,18.54c1.14-.71.34-2.7,2-3.06a1.42,1.42,0,0,1,.31.61,17.72,17.72,0,0,1-.24,2.41,5.46,5.46,0,0,1-.48.93c-.54.74-.13,1.9-1.07,2.46l-.56-.38Z"/><path class="cls-31" d="M34.3,60.55a1,1,0,0,1-1-1c.26-.71,1-.8,1.52-1.13L36.33,58c.62.45,1.36.91.15,1.53C35.77,59.91,35,60.22,34.3,60.55Z"/><path class="cls-32" d="M13.56,38.17c1.3.57,2.46,1.51,4,1.65l.35,0a1.35,1.35,0,0,1,1.41.86.68.68,0,0,1-.17.64l-5.57-2.08Z"/><path class="cls-33" d="M43,60.56c.73,0,1.46-.12,2,.51-1.5.85-2.83.92-3.71-.87l.25-.28a.81.81,0,0,1,.88-.11C42.63,60,42.73,60.34,43,60.56Z"/><path class="cls-34" d="M19.11,22l1,2.53a8,8,0,0,1-.46,1.27,1.42,1.42,0,0,1-.51.43.71.71,0,0,1-.62-.19l-.44-2.52c.36-.4.26-1,.72-1.39Z"/><path class="cls-35" d="M49,22,50,22c1.22-.08,1.29.59,1,1.51L49,23A.58.58,0,0,1,49,22Z"/><path class="cls-25" d="M40.36,56c-.15-1.21-1.43-1.21-2-1.92l.15-.17c1.68-.79,2.74-.39,3,1.57,0,.35,0,.7,0,1Z"/><path class="cls-34" d="M17.06,20.5c1.08,0,1.88.3,2.05,1.5l0,0a1.09,1.09,0,0,1-1.51,0Z"/><path class="cls-36" d="M19.07,32.19c1.44,0,1.31-1.48,2.09-2.1a1.58,1.58,0,0,1,.52.65,1.69,1.69,0,0,1-.54,1.89l-2,0A3.71,3.71,0,0,1,19.07,32.19Z"/><path class="cls-37" d="M25.6,14.49l-.43-.08a1.86,1.86,0,0,1,1-2l.54,0a1.48,1.48,0,0,1,.35.54,1.84,1.84,0,0,1,0,.66,1.58,1.58,0,0,1-.82,1A.8.8,0,0,1,25.6,14.49Z"/><path class="cls-33" d="M17.57,22h1.51c0,.73-.08,1.38-1,1.49C17.92,23,17.75,22.52,17.57,22Z"/><path class="cls-38" d="M18.53,26l.59.06a1,1,0,0,1,.31.54A1.48,1.48,0,0,1,19,27.8a1.17,1.17,0,0,1-.89.3H17.6A3.13,3.13,0,0,1,18.53,26Z"/><path class="cls-39" d="M36.33,58a1.06,1.06,0,0,1-1,1,1.06,1.06,0,0,1,0-1.52l1-.51Z"/><path class="cls-40" d="M50,21.51H48.5a.53.53,0,0,1-.18-.42c0-.15,0-.23.06-.23A1.21,1.21,0,0,1,50,20.48l.51,0Z"/><path class="cls-41" d="M61.7,35.3a3.32,3.32,0,0,1,.22.81.29.29,0,0,1-.48.23,1,1,0,0,1-.23-.64C61.19,35.49,61.23,35.22,61.7,35.3Z"/><path class="cls-42" d="M12.46,36.75c-.07.36-.18.65-.49.47a.72.72,0,0,1-.26-.62c0-.17.32-.29.5-.43Z"/><path class="cls-40" d="M51,19c0-.83,0-1.66,0-2.49A1.8,1.8,0,0,1,51,19Z"/><path class="cls-43" d="M56.62,28.55a7.46,7.46,0,0,1,4.08,4.08c-1.08,1-1.83.91-2.62-.46-.58-1-1-2.37-2.48-2.53-.29-.53,0-.88.37-1.19A.72.72,0,0,1,56.62,28.55Z"/><path class="cls-44" d="M56.1,28.59c-.16.35-.33.7-.5,1.05-.53.69-.82,1.31,0,2.09a3.43,3.43,0,0,1,1,2.89.42.42,0,0,1-.08.6c-.7.22-1.12-.17-1.49-.67a5.55,5.55,0,0,0-1.61-2.5,2.22,2.22,0,0,1-.37-.63,2.19,2.19,0,0,1,.08-1.49,4.83,4.83,0,0,1,2-1.84C55.53,27.91,56.16,27.69,56.1,28.59Z"/><path class="cls-45" d="M56.62,35.14v-.52c1.6.63.86,2,1,3.11l-1,.51a1.16,1.16,0,0,1-1.37.34,1.74,1.74,0,0,1-.58-.47,1.34,1.34,0,0,1-.14-1.4c.48-.71,1.56-.46,2-1.26Z"/><path class="cls-46" d="M53.57,58.06l.5,1.48c.31.77-.27,1.09-.74,1.46-.68.52-1.65-.12-2.29.56-1.7-.7-2.67-1.39-1-3.34C51,57.11,49.75,55.4,50,54a2.06,2.06,0,0,1-.45-2.52c.25-.4.56-.7,1.08-.58,1.5,1.21.46,2.87.76,4.28.21,1,.34,2.06,1.46,2.53A1.34,1.34,0,0,1,53.57,58.06Z"/><path class="cls-47" d="M47,50.92a1.84,1.84,0,0,0-.48,1.52c-.39,1.23-1.92,1.53-2.28,2.79a1.21,1.21,0,0,1-1.62-.59,1.8,1.8,0,0,1,.36-1.82A3.76,3.76,0,0,0,45.05,50a1.45,1.45,0,0,1,.55-.39,1.48,1.48,0,0,1,1.57.37A.8.8,0,0,1,47,50.92Z"/><path class="cls-48" d="M47,50.92l-.06-1.08a1,1,0,0,1-.17-.65,1.32,1.32,0,0,1,.87-1,1.73,1.73,0,0,1,1.62,1.19,1,1,0,0,1-.69,1.1c-.93.82-.15,2.14-1,3.16C46.59,52.86,47.14,51.79,47,50.92Z"/><path class="cls-49" d="M50,51.41c0,.85,0,1.69,0,2.54-.38.28-.33,1.07-.93,1-.21,0-.45-.65-.48-1-.07-.82,0-1.65,0-2.48.24-.32.42-.72.91-.7S49.87,51.13,50,51.41Z"/><path class="cls-50" d="M53.05,60.55l1-1h.5c.44-.39.87-.78,1.53-.51l-1,2c-1.13.46-2.16,1.65-3.53.55C51.32,60.15,52.8,61.26,53.05,60.55Z"/><path class="cls-51" d="M44.43,55c-.66-1.92,1.6-1.52,2-2.57,0,.51,0,1,0,1.53a1.59,1.59,0,0,0-1.5.53c-.18.31.35,1-.52.94-.18-.09-.24-.18-.19-.28S44.37,55,44.43,55Z"/><path class="cls-52" d="M49.5,50.91c-.32.18-.65.35-1,.52v-1L49,49.39c-.31-.45-.3-.83.23-1.1C50.49,49,50.32,49.94,49.5,50.91Z"/><path class="cls-53" d="M53.05,60.55c.3.11.78.28.09.47s-1.17,0-1.6.55H51C51.29,60.38,52.23,60.59,53.05,60.55Z"/><path class="cls-54" d="M35.31,15.38l1.44-.93a1.62,1.62,0,0,1,1.3.58c1,1.6.34,3-.44,4.44a1,1,0,0,1-.64.22c-.68-.55-1.58-.44-2.35-.71a1.44,1.44,0,0,1-.34-.88A5.58,5.58,0,0,1,34.49,17c-.14-.43-.58-.36-.87-.55a1.51,1.51,0,0,1-.48-.46,1,1,0,0,1,0-.67,1.45,1.45,0,0,1,.56-.42,1.55,1.55,0,0,1,1,0A5.79,5.79,0,0,1,35.31,15.38Z"/><path class="cls-55" d="M49,12.39l1.5,1a.44.44,0,0,1,0,.7,6.59,6.59,0,0,1-2.23,1c-1.1.11-2.19.05-3.29.07-.82,0-1.64,0-2.47,0A2.45,2.45,0,0,1,41,14.73a.85.85,0,0,1-.24-.77.38.38,0,0,1,.67-.07C44,13.71,46.83,14.68,49,12.39Z"/><path class="cls-56" d="M34.79,15.41l-1,.05c-1.3-1.48-3.19-.36-4.67-1-.77-.57-1.82-.68-2.42-1.51,0-.16,0-.32,0-.49l.48,0a1.53,1.53,0,0,1,1.64-.18c1.69,1.32,3.6.85,5.46.9A1.52,1.52,0,0,1,34.79,15.41Z"/><path class="cls-57" d="M40.88,13.92c0,.15,0,.3,0,.46a1.26,1.26,0,0,1-.39.55,7.74,7.74,0,0,1-1.86.88c-.43-.14-.94,0-1.27-.44l-.63-.92,1.09-1.57C39.16,12.33,39.88,13.54,40.88,13.92Z"/><path class="cls-58" d="M34.79,15.41a3.47,3.47,0,0,0-.5-2c-.25-.34-.77-.14-1-.51.63-.56,1.4-1.36,2.15-.62.93.92,0,2.06-.13,3.11Z"/><path class="cls-37" d="M33.29,12.89l1,.51c-2.49.48-4.72-.73-7.09-1a1.94,1.94,0,0,1,2.51-.13C30.84,13,32.06,12.87,33.29,12.89Z"/><path class="cls-59" d="M40.88,13.92c-1.21.25-2-.71-3-1,1.61-1.17,2.5.28,3.58,1Z"/><path class="cls-60" d="M40.9,12.39c1.85.21,3.79-.5,5.57.5C44.62,12.67,42.68,13.39,40.9,12.39Z"/><path class="cls-61" d="M32.31,59.55l-.53.51c-1.12-.78-.65-2-.77-3,0-.24,0-.49-.05-.73-1-2.06-3.28-3.25-3.85-5.61-.4-1.12-1.28-2-1.65-3.15,0-.61-.3-1.22,0-1.83a1.16,1.16,0,0,1,1.27-.54c.83.56.76,1.72,1.55,2.31.4.62.86,1.2,1.28,1.81.68,1,.79,2.88,2.82,2,.57.4,1.12.83,1.68,1.25.78.86.49,1.7-.08,2.52a3.72,3.72,0,0,0-.47,1.21,3.31,3.31,0,0,1-.19.61c-.4.65-.18,1.48-.6,2.13Z"/><path class="cls-62" d="M31.72,56.42l.06,3.64a1.83,1.83,0,0,1-1.5.45c-1.93-1.23-2-3.92-4-5.1-.27-.38-.48-.81-.78-1.18-.54-1-1.53-1.93-1.19-3.3a1.4,1.4,0,0,1,.79-.74,1.33,1.33,0,0,1,.71.08,33,33,0,0,0,2.43,3,7.64,7.64,0,0,1,1,1c.29.73.81,1.35,1.1,2.07s.51.26.81.07A.6.6,0,0,1,31.72,56.42Z"/><path class="cls-63" d="M26.7,55c2.26,1.17,2.63,3.55,3.58,5.56-1.64-.38-2.83-1.51-4.1-2.49a1.34,1.34,0,0,0-.09-.88,1.86,1.86,0,0,1-.23-1.24A1.25,1.25,0,0,1,26.7,55Z"/><path class="cls-64" d="M32.31,59.55c0-.17,0-.33,0-.5l.43-.47c.82-.84.31-1.72.06-2.6l.52-1a1.05,1.05,0,0,1,1.51,0c-.59,1-.69,1.89.49,2.53V59l-2,.51Z"/><path class="cls-65" d="M23.66,56.47l-3.1-2-.14-.33a.87.87,0,0,1,.43-.53c1.35-.51,2.44.8,3.76.52A1.55,1.55,0,0,1,26,55.22,1.63,1.63,0,0,1,26,56c-.09.79-.6,1-1.31,1A1.85,1.85,0,0,1,23.66,56.47Z"/><path class="cls-66" d="M20.57,54c0,.17,0,.33,0,.5L20.1,55c-.94-.64-1.89-1.28-2-2.57C19.47,52.08,20.08,52.94,20.57,54Z"/><path class="cls-67" d="M26.69,57c.19.23.57.53.52.68-.16.46-.66.29-1,.34l-.53-.5a.51.51,0,0,1,0-.65A.83.83,0,0,1,26.69,57Z"/><path class="cls-68" d="M25.65,57v.49a1.9,1.9,0,0,1-2-1.05l1,0C24.9,56.83,25.44,56.61,25.65,57Z"/><path class="cls-69" d="M19.1,41.27c0-.16,0-.32,0-.49a1.63,1.63,0,0,1,2-.34,39.7,39.7,0,0,1,6.08,2.28,1.73,1.73,0,0,1,.73,1,1.14,1.14,0,0,1-.12.77,1.52,1.52,0,0,1-.67.39,7.21,7.21,0,0,1-4-.86c-.7-.44-1.32-1.06-2.25-1a1.64,1.64,0,0,1-1.29-1.19Z"/><path class="cls-70" d="M20.57,54c-1.11-.08-1.63-1.09-2.47-1.58l-.06-3c-.42-.82-.13-1.71-.22-2.57.1-.86-.22-1.75.24-2.57,1.13.06,1.19.91,1.25,1.73a23.45,23.45,0,0,0,.16,2.66c.3.92-.69,2.23.84,2.77a2.73,2.73,0,0,1,1,1.42c.11.6-.32.86-.72,1.13Z"/><path class="cls-71" d="M19.58,41.8l1.54.49a.92.92,0,0,1,.19,1,1.47,1.47,0,0,1-.91.58A3.51,3.51,0,0,1,18,43.42.47.47,0,0,1,18,42.8Z"/><path class="cls-66" d="M18,42.8l.06.55a.67.67,0,0,1,0,1L18,46.87c-.15.33-.3.32-.44,0C17.72,45.51,17.17,44.07,18,42.8Z"/><path class="cls-72" d="M17.57,46.86H18c0,.84,0,1.68,0,2.51C17.37,48.64,17.63,47.72,17.57,46.86Z"/><path class="cls-73" d="M19.16,26.62c0-.17,0-.35,0-.52h0c.41-.47.5-1.42,1.5-1,3-1,6.08.32,9.13,0a1.38,1.38,0,0,1,1-.45,4.24,4.24,0,0,1,1.43.48c1.4,1.12,3.08.58,4.64.78a1.68,1.68,0,0,1,1,.48c.56,1.19-.39,1.66-1.08,2.25a2.44,2.44,0,0,1-1.09.48,1.84,1.84,0,0,1-1.13-.26c-1.14-1.7-3.08-.52-4.5-1.25a8.91,8.91,0,0,0-6.31-1C22.21,26.26,20.7,27.53,19.16,26.62Z"/><path class="cls-74" d="M25.18,18h.51a2.29,2.29,0,0,1,1.7,1.8c.16.06-.6.53.17.35a1.67,1.67,0,0,1,.59,0c.78.23,1.72,0,2.22.9-.13,1.38-1.3,1.09-2.12,1.33a.68.68,0,0,0-.36.63c0,.37.09.75-.22,1-1.72.1-3.76,1.13-4.55-1.54a1.82,1.82,0,0,1-.05-1.64c.36-.69.74-1.37,1.06-2.08A1.58,1.58,0,0,1,25.18,18Z"/><path class="cls-75" d="M30.63,25.12l-.89-.06-.49-.52a.57.57,0,0,1,.08-.78c1.5-.84,3.12-.37,4.69-.4a4.17,4.17,0,0,1,2.23,1.21,1.48,1.48,0,0,1,.13,1.59,1.56,1.56,0,0,1-1.18.05C33.71,25.69,32.1,25.69,30.63,25.12Z"/><path class="cls-76" d="M23.7,21c-.19.49-.39,1-.58,1.45a1.87,1.87,0,0,1-1.44-.59c0-1-.34-2,.44-2.92.55.21.79.79,1.29,1.06a1.27,1.27,0,0,1,.4.46A.56.56,0,0,1,23.7,21Z"/><path class="cls-77" d="M29.23,24c0,.17,0,.33,0,.5L27.67,24l-.49-.95a1.39,1.39,0,0,1,2-.25A.87.87,0,0,1,29.23,24Z"/><path class="cls-38" d="M20.61,25.06l-1.5,1c0-.75.1-1.41,1-1.57Z"/><path class="cls-78" d="M57.66,25l1.37.13c0,.14,0,.28.07.43-1,.83-2.33.52-3.38,1.14a2,2,0,0,1-.61.28,2.22,2.22,0,0,1-.68,0,2.25,2.25,0,0,1-.93-.39,20.55,20.55,0,0,0-2.08-1,1.51,1.51,0,0,1-.47-.47.62.62,0,0,1,.12-.61l.39-.13C53.6,23.88,55.59,24.86,57.66,25Z"/><path class="cls-79" d="M55.06,26.44c1.07-1.61,2.69-.57,4-.86.29.91-.63.69-1,1C57.07,27.43,56,27.63,55.06,26.44Z"/><path class="cls-80" d="M55.06,26.44l3.08.16c0,1-.43,1.6-1.53,1.51-.41-.12-.82-.21-1.22-.35-.34-.31-.58-.65-.27-1.11Z"/><path class="cls-81" d="M55.63,27.56l1,.55c0,.15,0,.3,0,.44l-.52,0c-1.32-.22-1.55,1.22-2.46,1.63a1.22,1.22,0,0,1-.51-.63,2,2,0,0,1,1.33-2.29A1.61,1.61,0,0,1,55.63,27.56Z"/><path class="cls-82" d="M58.61,42.32a4,4,0,0,1,0,.49c-1.33-.14-1.92,1.22-3,1.51-1.18-.43-2.76-.11-3.27-1.78a1.45,1.45,0,0,1,.3-1c.77-1.15,2.37.32,3.1-1a2.9,2.9,0,0,1,.63-.81.89.89,0,0,1,.66-.1c.53.2.4.77.63,1.13C57.61,41.51,57.73,42.16,58.61,42.32Z"/><path class="cls-83" d="M55.15,38.2l1.46,0,1,0c.65,1.14-.25,1.27-1,1.51h-.09c-1,.23-1.46-.31-1.6-1.23Z"/><path class="cls-84" d="M56.65,39.77c.33-.51,1-.81,1-1.51,1.61.85.41,1.68,0,2.51Z"/><path class="cls-85" d="M55.61,53c.16,1-.54,2.26.73,3,.74.41,1.5.87.53,1.6-.56.42-1.65.91-2.17-.16A2.07,2.07,0,0,0,52.54,56c-.39,0-.73-.17-.61-.53.52-1.68.15-3.47.63-5.15a1.39,1.39,0,0,1,.58-.52.72.72,0,0,1,.71.18,1.68,1.68,0,0,1,.43,1c.07.64,0,1.29.1,1.92a.3.3,0,0,0,.42.07A.83.83,0,0,1,55.61,53Z"/><path class="cls-86" d="M53.59,54l0-3.06c1.76.52,3.33-1.33,5.12-.43a.83.83,0,0,1,.44.94,1.07,1.07,0,0,0-1,1c-.32.7-.11,1.68-1,2.08-.57-.44-.51-1.5-1.49-1.54l-.53,1C54.58,54.76,54.08,54.81,53.59,54Z"/><path class="cls-50" d="M53.09,50.05a18.08,18.08,0,0,1-.55,6l0,.47c.28.65.23,1.38.48,2-.14.82-.62.74-1,.23-.58-.89-1-1.87-1.53-2.81a14.42,14.42,0,0,0,1.12-4.52c.19-.55.24-1.17.8-1.52A.5.5,0,0,1,53.09,50.05Z"/><path class="cls-87" d="M57.1,54.49c0-.85-.14-1.81,1-2.08l.48,0a2.19,2.19,0,0,1-1,2.56Z"/><path class="cls-88" d="M53.05,58.51c-.83-.52-1.34-1.12-.48-2,.77.25,1.79.35,1,1.59Z"/><path class="cls-89" d="M56.1,59l-1.53.51C54.81,58.57,55.29,58.29,56.1,59Z"/><path class="cls-90" d="M20.55,38.31l2.64.38c1.26-1.25,2.57-.37,3.86-.08a3.07,3.07,0,0,1,1.25.91,1.1,1.1,0,0,1,.1.69c-.44.89-1.6.61-2.16,1.31a1.81,1.81,0,0,1-1.23.34,3.73,3.73,0,0,1-.63-.18,3.63,3.63,0,0,0-2.49-.56c-.7-.35-1.47-.53-2.18-.88s-1.57-.35-2.15-1a2.47,2.47,0,0,1-.62-.41c-.74-.92-3.23-.59-2.49-2.06.49-1,2.7-.13,4.05.44.44.18.75.66,1.13,1a1.37,1.37,0,0,1-1.66,0A3.17,3.17,0,0,0,20.55,38.31Z"/><path class="cls-91" d="M27.19,39.3l-4-.61c-.62-1.71-2.94-.89-3.66-2.45a1.24,1.24,0,0,1,.93-.53A15.93,15.93,0,0,0,23,36l.7.05a2.52,2.52,0,0,1,.66.2,3,3,0,0,0,2.15.77,1.85,1.85,0,0,1,1.32.5,1.32,1.32,0,0,1,.29.7,1.26,1.26,0,0,1-.51,1Z"/><path class="cls-92" d="M20.63,36.22l-1.1,0c-1.91.15-3.67-.53-5.46-1,1.74-1.31,3.22.66,4.88.38.44-.23.2-.87.65-1.09a1.36,1.36,0,0,1,1.53.6,1.51,1.51,0,0,1,.21.66C21.23,36.16,21.09,36.45,20.63,36.22Z"/><path class="cls-93" d="M20.55,38.31c-1.72,1.07-3,.06-4.49-.82,1.54-.8,2.3,1,3.57.74Z"/><path class="cls-94" d="M17.56,39.26c.87,0,1.81-.24,2.53.52-.85,1.23-1.71.09-2.56,0h0C17.53,39.64,17.55,39.45,17.56,39.26Z"/><path class="cls-95" d="M48,25.07l.48,0c.85-1,1.7-1.11,2.53,0l.12-.07c.2.38.65.46.92.75s.7.52.73,1-.49,1-.91,1.36a19.35,19.35,0,0,0-1.59,1.79,1.39,1.39,0,0,1-1,.42c-1-.28-1.09-1.18-1.32-2,.29-.95-.46-1.77-.36-2.69A1.38,1.38,0,0,1,48,25.07Z"/><path class="cls-96" d="M49,22c0,.31,0,.63,0,.94l-.51.07a15.83,15.83,0,0,1-2.79.7,4.46,4.46,0,0,1-.73,0,1.76,1.76,0,0,1-1.64-.65c-.07-.44.06-.7.57-.62Z"/><path class="cls-43" d="M48,25.07c0,.16,0,.33,0,.49a2.62,2.62,0,0,1-3,1.79,1.56,1.56,0,0,1-.92-1.12,1.63,1.63,0,0,1,.08-.73,1,1,0,0,1,1.24-.45C46.29,25.67,47.15,25.18,48,25.07Z"/><path class="cls-97" d="M57.66,25c-2.11.36-4.1-.69-6.2-.55C53.63,23.47,55.64,24.39,57.66,25Z"/><path class="cls-98" d="M45.44,25.05l-1,.52a.76.76,0,0,1-.87.21,2.64,2.64,0,0,1-.78-1.69,1.09,1.09,0,0,1,.5-.45,1.53,1.53,0,0,1,1.64.44Z"/><path class="cls-99" d="M45.46,23.54a5.26,5.26,0,0,1,3-.49,3.59,3.59,0,0,1-3.07,1C45.12,23.85,45.12,23.69,45.46,23.54Z"/><path class="cls-99" d="M51,25.07a2.26,2.26,0,0,0-2.53,0c.64-1.43,1.58-1.16,2.59-.44A1.27,1.27,0,0,1,51,25.07Z"/><path class="cls-100" d="M45.46,23.54c0,.16,0,.32,0,.49l-.51,0-2-.09c.43-1.22,1.26-.68,2-.46Z"/><path class="cls-101" d="M43,60.56l-.54-.48a1.73,1.73,0,0,1,0-2.47c.76-.08,1.54-.23,2.14.46.12.86-.37,1.24-1.11,1.43C42.94,59.73,42.91,60.13,43,60.56Z"/><path class="cls-42" d="M43.39,59.5c-.2-.92.77-.92,1.11-1.43a1.34,1.34,0,0,1,.4,0C44.79,59,45.3,60.51,43.39,59.5Z"/><path class="cls-102" d="M42.36,57.61l0,2.47-.9-.16c-.2-1.2-1.71-1-2.23-2.16C40.29,57.1,41.34,57.47,42.36,57.61Z"/><path class="cls-103" d="M19.58,34.75a.94.94,0,0,1-.63.89c-.16-.32-.31-.64-.47-1,.36-1.1,1.23-1.1,2.15-1C20.88,34.65,19.9,34.37,19.58,34.75Z"/><path class="cls-103" d="M21.14,32.63l.07-2.13a.86.86,0,0,1,.63,0,1.83,1.83,0,0,1,.45.47c.24.86,1.36.65,1.71,1.39a2.31,2.31,0,0,1-.37,2.35,2.21,2.21,0,0,1-.52.49c-.64.17-1.16.84-1.94.47L21,35.59a1.59,1.59,0,0,1,.07-1.87C22.18,33.42,21.69,33,21.14,32.63Z"/><path class="cls-104" d="M21.08,33.72c0,.62,0,1.25-.07,1.87l-1.43-.84,1.05-1Z"/><path class="cls-105" d="M18.08,28.1l.42-.64c.85.24.95,1.14,1.47,1.67a1.22,1.22,0,0,1,.24.59c-.2.82-.57,1.36-1.53.93C17.37,30.06,18.14,29,18.08,28.1Z"/><path class="cls-106" d="M21.6,30.68l-.39-.18a1.13,1.13,0,0,0-.05-.41c-.19-.45-.55-.45-.95-.37l-.13-.11c.13-1,.83-.95,1.4-.59S22.09,30.08,21.6,30.68Z"/><path class="cls-27" d="M55.57,45.39l1,0c1.46.69,3.51.69,3.55,3h0a1.73,1.73,0,0,1-.91.51,3.22,3.22,0,0,1-1.82-.62c-.45-.11-.65.21-.86.51a3.13,3.13,0,0,1-1.5,1.33,1,1,0,0,1-.67-.18C53.4,48.06,55.19,46.9,55.57,45.39Z"/><path class="cls-107" d="M44.43,55c0,.14,0,.29,0,.43a2.37,2.37,0,0,1-3,0,3.82,3.82,0,0,0-3-1.57,2.64,2.64,0,0,0-.12-.4,4.67,4.67,0,0,1-.5-.67c-.28-1.09-.54-2.25.56-3s1.85.34,2.71.77a1.55,1.55,0,0,1,1,1.09c.25.61-1.37.8-.36,1.59.48.26.72.76,1.13,1.08A1.86,1.86,0,0,0,44.43,55Z"/><path class="cls-108" d="M52.51,42.34c.7,1.16,2.63.4,3.06,2l-.51,1a1.32,1.32,0,0,1-.83.75c-1,.24-2,.58-2.66-.59a3.94,3.94,0,0,0-.7-1.44,1.92,1.92,0,0,1-.47-.89,1.32,1.32,0,0,1,1.15-1.19A1,1,0,0,1,52.51,42.34Z"/><path class="cls-109" d="M54.14,45.38l.92-.09.51.1c1.17,1.83-1.29,2.83-1,4.46a.66.66,0,0,1-.94.16l-.06-.21c-.64-.75-.28-1.8-.81-2.58C52.61,46.15,53.42,45.81,54.14,45.38Z"/><path class="cls-110" d="M50,15.88c.47,1,.91,2,0,3.1a1.6,1.6,0,0,1-.52-.22,1.65,1.65,0,0,0-1-.36,2.13,2.13,0,0,1-.6-.16,1.91,1.91,0,0,1-.53-.36c-.46-.5-1.32-.47-1.6-1.21a1.24,1.24,0,0,1,.05-.76,1.49,1.49,0,0,1,.6-.54C47.62,15.19,48.9,14.82,50,15.88Z"/><path class="cls-111" d="M50,20.48,48.5,21c-1-.9-3.4-.39-2.85-2.84a1,1,0,0,1,.58-.43c.78-.06,1.23.74,2,.76a2.82,2.82,0,0,1,1.8,1Z"/><path class="cls-112" d="M50,15.88,46,16a.44.44,0,0,1-.67-.13c.2-1.16,1.14-.84,1.87-.93a16.33,16.33,0,0,1,2.32,0,1.2,1.2,0,0,1,.55.52C50.06,15.59,50,15.73,50,15.88Z"/><path class="cls-113" d="M50,19.48,48,19a.7.7,0,0,1,0-1h.5a1.44,1.44,0,0,1,1.52.5c0,.18,0,.35,0,.52S50,19.31,50,19.48Z"/><path class="cls-114" d="M50.49,13.9c0-.17,0-.34,0-.5,1,.91.31,1.48-.4,2l-.18-.07C49.45,14.63,50,14.27,50.49,13.9Z"/><path class="cls-115" d="M27.71,20.6l-.48-.11c-.34-.11-.37-.27-.08-.49-.6-.6-1.66-.86-1.46-2l-.09-3.47.59-.08a1.48,1.48,0,0,1,1.9.54,10.13,10.13,0,0,1,.19,5A1.4,1.4,0,0,1,27.71,20.6Z"/><path class="cls-116" d="M23.14,15.92c0-.15,0-.29,0-.44l1.4,0c.73.75.2,1.68.35,2.5a.9.9,0,0,1-.27.66.85.85,0,0,1-.68-.1c-.6-.52-.49-1.28-.64-2C23.25,16.35,23.19,16.13,23.14,15.92Z"/><path class="cls-117" d="M24.61,18.44c0-1,0-2-.05-3,.89.67.53,1.65.62,2.51l-.45,1a.37.37,0,0,1-.21-.34Q24.55,18.44,24.61,18.44Z"/><path class="cls-118" d="M46,18c-.19,1.87,2.18,1.61,2.52,3v.51c-1.65-.22-3.61-1.83-4.58,1l-.55.48a.72.72,0,0,1-.87.27,1,1,0,0,1-.43-.51,2,2,0,0,1,0-.68,5.86,5.86,0,0,1,1.5-3.43,6,6,0,0,1,1.84-.93A1,1,0,0,1,46,18Z"/><path class="cls-119" d="M38.32,53a1.2,1.2,0,0,1,0,.5l-2,.5a4.51,4.51,0,0,1-2.55-1,1.81,1.81,0,0,1-1.56-1,2.85,2.85,0,0,0,.16-.3c1.26-.79,3-.76,3.8-2.38a1.31,1.31,0,0,1,.73-.08C38.55,50,37.34,51.89,38.32,53Z"/><path class="cls-120" d="M33.79,53c.94.1,2.14-.43,2.55,1a1.77,1.77,0,0,1-1.52,1H33.31C33.58,54.34,34.34,53.8,33.79,53Z"/><path class="cls-121" d="M57.6,47.41l1.52,1c1.18.84.93,1.91.49,3h-.44l-.53-.49A3.11,3.11,0,0,0,56,51c-1,.29-1.47-.06-1-1.14a1.72,1.72,0,0,1,1-1.51C56.55,48,56.66,47.05,57.6,47.41Z"/><path class="cls-18" d="M59.61,51.41a4.63,4.63,0,0,0-.49-3l1,0C60,49.4,60.5,50.53,59.61,51.41Z"/><path class="cls-122" d="M23.22,20.53c-.1.3-.25.74-.62.49-.75-.49-.35-1.35-.48-2.05.15-.19.3-.38.46-.56a.71.71,0,0,1,.76.18A1.48,1.48,0,0,1,23.22,20.53Z"/><path class="cls-123" d="M23.15,18.46l-.57-.05c.11-.85-.12-1.77.56-2.49l.53,0c.47.82-.06,1.54-.24,2.29Z"/><path class="cls-11" d="M17.53,39.81l2.56,0,2,.95c1-.44,1.7.34,2.55.55h0c.83.56,1.83.08,2.69.47a1.35,1.35,0,0,1,.49.49.84.84,0,0,1-.64,1.07c-2.77-.64-5.29-2.12-8.13-2.53Z"/><path class="cls-124" d="M26.71,12.91c1-.05,2-.07,2.54,1l-.22.26a2,2,0,0,1-2.22-.46c0-.11-.11-.21-.16-.31A3.4,3.4,0,0,1,26.71,12.91Z"/><path class="cls-124" d="M27.6,15l-1.41-.61c.15-.35.31-.69.46-1l.09.06c.4.33,1,.43,1.13,1.06A.55.55,0,0,1,27.6,15Z"/><path class="cls-125" d="M21.6,30.68c0-1-.12-2-1.52-1.07-2.15.47-1.21-1.32-1.57-2.15l.65-.84a6.62,6.62,0,0,1,4.5-1c1,.72,2.37-.41,3.22.76a1.48,1.48,0,0,1-.45,1.37c-1,.85-1.15,2.43-2.46,3.06-.7.68-1.43,1.1-2.35.37A1.87,1.87,0,0,1,21.6,30.68Z"/><path class="cls-126" d="M55.58,34.18l1,1,0,.09c.2,1.6-1.06,1.14-1.87,1.33a2.16,2.16,0,0,0-.9.85c-1.14,1.61-1.66.86-2-.55.12-1.75-.48-3.56.5-5.22a1,1,0,0,1,1.27,0h0C54.46,32.31,54.73,33.48,55.58,34.18Z"/><path class="cls-127" d="M55.58,34.18c-2,.17-1.94-1.23-2-2.56C55.34,31.62,55.25,33.07,55.58,34.18Z"/><path class="cls-127" d="M53.6,31.63l-1,0a1,1,0,0,1-.43-.89,1.53,1.53,0,0,1,.7-1.16.91.91,0,0,1,.67-.05c0,.22.07.45.11.67C53.63,30.69,53.62,31.16,53.6,31.63Z"/><path class="cls-128" d="M56.58,40.75c-.73,2-2.2,1.28-3.56,1-1.09.56-1.57.06-1.73-1,.32-.45,1-.75.61-1.51.29-.6,1-.56,1.43-1,.47-.55.93-1.17,1.76-.5a3.62,3.62,0,0,0,.06.46l-.07.06C54.66,39.65,56,40,56.58,40.75Z"/><path class="cls-129" d="M54.54,36.25a2,2,0,0,0,2-1c.5,1.84.34,2-2,1.49l-.18-.22Z"/><path class="cls-44" d="M55.09,37.74c-.72,0-1,.64-1.53,1-.13-.91-1-2.23,1-2h0Z"/><path class="cls-130" d="M54.14,45.38,53,47.29a1.73,1.73,0,0,1,0,.93,6.68,6.68,0,0,1-1,1.59c-.44.43-.73,1-1.4,1.19l-.59.41-.49-.5c0-.86.21-1.76-.36-2.55-.74-1,.29-1.79.44-2.68a2.62,2.62,0,0,1,1.82-1.17,1.06,1.06,0,0,1,.64.32C52.39,46.34,53.43,45.21,54.14,45.38Z"/><path class="cls-131" d="M50.58,51a1.57,1.57,0,0,1,1-1.61c.84.39.52,1.35,1,1.94a5.08,5.08,0,0,1-1.94,4.6C50.57,54.29,50.58,52.65,50.58,51Z"/><path class="cls-95" d="M46.94,49.36c0,.15,0,.32,0,.48-.3.2-.6.46-1,.08-1-.44-1.63.7-2.53.75a1.14,1.14,0,0,1-.66-.22,1.38,1.38,0,0,1-.08-1.86c1.24-1.11.63-2.44.68-3.69a1,1,0,0,1,.91-.38,3.92,3.92,0,0,1,1.37.72c.45.11.68-.25,1-.48a1.63,1.63,0,0,1,.64-.26,1.27,1.27,0,0,1,1.3,1.15,2,2,0,0,1,0,.77C48.2,47.5,47.17,48.2,46.94,49.36Z"/><path class="cls-132" d="M42.84,54.34c-.52,0-1.05.11-1.4-.43-.8-1.7-.63-1.86,2.32-2.21.64.57.12.9-.25,1.27S42.72,53.72,42.84,54.34Z"/><path class="cls-133" d="M43.51,53l.47-1c.05-.66-.41-1.29-.13-2,.52-.38,1-.52,1.54,0C45.45,51.41,45.94,53.11,43.51,53Z"/><path class="cls-134" d="M45.39,50c-.55-.1-1.1-.17-1.49.38a.32.32,0,0,1-.48,0c.6-1.48,1.52-1.2,2.52-.46Z"/><path class="cls-135" d="M50.06,45.89c.12,1-.62,1.65-.92,2.47,0,.34-.09.69-.14,1-.74,0-1-.64-1.47-1-.26-.35-.05-.6.17-.86a3.8,3.8,0,0,0,.85-1.8.85.85,0,0,1,1.1-.63C50,45.24,50.25,45.46,50.06,45.89Z"/><path class="cls-136" d="M47.88,47.82c-.12.18-.24.36-.35.54l-.59,1a3.42,3.42,0,0,1,1.07-3C48.32,46.88,48.45,47.38,47.88,47.82Z"/><path class="cls-137" d="M35.29,17l-.49,1c-.62,1.64-2.2,2.09-3.54,2.82a1.35,1.35,0,0,1-.7-.2c-.86-1.07-.39-2.33-.5-3.5a1.68,1.68,0,0,1,1.63-1.62,2.11,2.11,0,0,1,1.6.48l.2.05C34,16.53,34.9,16.25,35.29,17Z"/><path class="cls-138" d="M37.38,15.37l1.38.12a1.2,1.2,0,0,1,1.11.65c.44,1.76,1,3.53-.16,5.25-1.14.88-1.94.36-2.6-.66a1.22,1.22,0,0,1,.22-1.24C36.85,18.11,38.24,16.75,37.38,15.37Z"/><path class="cls-139" d="M31.27,20.5C31.94,19,33.74,19,34.8,18c0,.34,0,.68,0,1,.4,1-.24,1.51-.94,2a2.9,2.9,0,0,1-2,.07A1.37,1.37,0,0,1,31.27,20.5Z"/><path class="cls-124" d="M29.25,13.88c1.1,0,2.19,0,3.29,0s1.72.29,1.26,1.53a2.7,2.7,0,0,1-.41.06,3.34,3.34,0,0,0-1.66.13,1.29,1.29,0,0,1-.67-.09c-.58-.35-1.35-.37-1.8-1a.73.73,0,0,1-.05-.66Z"/><path class="cls-140" d="M33.78,20.49c.34-.51.69-1,1-1.51.55-.34.69-1.35,1.45-1.19s.47,1.09.58,1.69a3.4,3.4,0,0,1-2.07,1.39A1.1,1.1,0,0,1,33.78,20.49Z"/><path class="cls-141" d="M35.29,17c-.75-.05-1.55,0-1.8-1,.72,0,1.44-.05,2.16,0,.37,0,.94.06.69.62C36.24,16.82,35.66,16.84,35.29,17Z"/><path class="cls-142" d="M34.8,20.49a2,2,0,0,1,2-1h.49l0,1a1.47,1.47,0,0,1-.53.52A1.79,1.79,0,0,1,35,20.8Z"/><path class="cls-143" d="M31.8,15.39c.62-1.15,1.12-.64,1.59.13,0,.14-.07.28-.1.42a1,1,0,0,1-1.46-.24Z"/><path class="cls-144" d="M39.39,21.49V15.88c-.2-.84.93-.78,1-1.44l.53-.06,1.47.06a3.31,3.31,0,0,0,2.62,0l3.51,0c.29,1-.72.6-1,1-.72.06-1.48-.07-2.06.53-2.63.36-4,1.62-3.43,4.49.15.81-.61,1.52-1.49,1.83a1.08,1.08,0,0,1-1-.39Z"/><path class="cls-145" d="M47.51,15.39l1-1c.55-.58,1.29-.48,2-.51l-.57,1.48Z"/><path class="cls-112" d="M45,14.44a2.05,2.05,0,0,1-2.61,0Z"/><path class="cls-146" d="M40.37,14.44c.13.34.74.44.46,1s-.95.32-1.44.43l-.63-.39A1.37,1.37,0,0,1,40.37,14.44Z"/><path class="cls-147" d="M18.12,44.32c0-.33,0-.65,0-1a1.57,1.57,0,0,1,2,0c2.4.79,4.92,1.4,6.08,4l1.57,3c-.7,1.17,1.35,2.36,0,3.53-.85-1.07-2.12-1.9-2-3.52-1.83-.4-3.84-.48-4.76-2.5l.13.16a2,2,0,0,1,.54,1.72c-1.27,1.92-2.17,1.08-3-.4C18.39,47.71,19,45.94,18.12,44.32Z"/><path class="cls-148" d="M32.23,52c-3.38.72-3-2.72-4.53-4.08-.41-.58-.23-1,.39-1.22,3.05,1,4.54,2.88,4.23,5.24Z"/><path class="cls-149" d="M27.72,53.93a4.74,4.74,0,0,0-.8-2.27c-.3-.67-.56-1.57.82-1.26,1.16,1.65,1.74,3.78,4.1,4.36.55.14.32.83-.07,1.23a4.41,4.41,0,0,1-3.14-1.51Z"/><path class="cls-150" d="M23.16,43.29l4.05,1.08c.33.61.29,1-.54,1l-1,.51c-1.34,0-2.26-.9-3.24-1.65C22.38,43.69,22.35,43.17,23.16,43.29Z"/><path class="cls-151" d="M22.66,44.28l3,1.61c.17.5.33,1,.5,1.5-1.67-1.89-4.41-2.17-6.08-4l1,0C21.93,43.14,22.25,43.79,22.66,44.28Z"/><path class="cls-152" d="M28.63,54.48c1.16.27,2.42.33,3.14,1.51,0,.15,0,.29-.05.43a2.46,2.46,0,0,0-.46.08,1.19,1.19,0,0,1-1.57,0A4.44,4.44,0,0,1,28.63,54.48Z"/><path class="cls-120" d="M32.79,56c.69,1,3,2.05,0,3.05a3,3,0,0,1,0-2.54C32.78,56.32,32.78,56.15,32.79,56Z"/><path class="cls-153" d="M26.67,45.38l.54-1a4.07,4.07,0,0,1,.5,0c.8.42.88,1.27,1.16,2,0,.38-.16.66-.63.55l-.54,1C26.64,47.35,26.67,46.36,26.67,45.38Z"/><path class="cls-154" d="M32.77,56.49c0,.84,0,1.69,0,2.54l-.48,0C32.33,58.18,32.06,57.24,32.77,56.49Z"/><path class="cls-155" d="M20.62,46.37C22,47.55,22.47,50,25.11,49.21c.52-.15.52.71.57,1.2h-.5c-1,0-2,.73-3,.32-.63-.22-.65-.92-1-1.34l-1-1.51C19.6,47.14,19.87,46.68,20.62,46.37Z"/><path class="cls-156" d="M22.14,50.42c1-.47,2-.89,3,0l-.51.52a2.35,2.35,0,0,1-2.07,2,1.62,1.62,0,0,1-1.12-.34,1.49,1.49,0,0,1-.27-1.52A1.1,1.1,0,0,1,22.14,50.42Z"/><path class="cls-157" d="M22.59,52.4l2.08-1.47c.51,1,1,2,1.52,3,0,.55.1,1.17-.51,1.53l-1-1C23.19,54.56,22.9,53.47,22.59,52.4Z"/><path class="cls-158" d="M29.69,56.53l1.57,0c-.07.7.2,1.5-.58,2.06C29.69,58.2,29.87,57.27,29.69,56.53Z"/><path class="cls-159" d="M25.68,55.48A1.78,1.78,0,0,1,26.19,54l.51,1-.51,1c-.3,0-.33-.35-.51-.51Z"/><path class="cls-157" d="M25.68,55.48l.51.51c.17.34.34.67.5,1l-1,0-1-.52A1.1,1.1,0,0,0,25.68,55.48Z"/><path class="cls-160" d="M22.59,52.4c1.35,0,1.42,1.35,2.08,2.07-.15.77-.58.92-1.27.62-.92-.4-1.85-.76-2.77-1.14.16-.33.33-.65.49-1a.55.55,0,0,1,.5-.53Z"/><path class="cls-161" d="M28.7,46.33c-1.19-.23-.93-1.19-1-2v-.52a2.61,2.61,0,0,1,.5-1.64c.86-.22,1.31.38,1.79.91a1.81,1.81,0,0,1,.21,1A5.18,5.18,0,0,1,29,46.2Z"/><path class="cls-162" d="M22.66,44.28l-1.56-.9c0-.36,0-.72,0-1.09a2,2,0,0,1,2,1Z"/><path class="cls-151" d="M28.22,42.41a1.59,1.59,0,0,1-.51,1.41l-.5-.51c.2-.32.4-.63.61-.94S28.1,42.22,28.22,42.41Z"/><path class="cls-163" d="M22.14,50.42l-.52.48c-.44.45-.74,1.1-1.53,1-1.92,0-1.41-1.44-1.47-2.53.83.26,1.67,2,2.5,0Z"/><path class="cls-164" d="M20.09,51.92a1.74,1.74,0,0,1,1.53-1v1.54l-.5.53Z"/><path class="cls-165" d="M34.87,28.52l1,0c.64-.16,1.31-.45,1.65.46C37.1,30,36,30,35.32,30.53c-1.6.33-3-.89-4.52-.74a11.53,11.53,0,0,1-2.23-.85,1.47,1.47,0,0,1-.47-1.11c.48-1,1.3-.84,2.14-.6C31.8,27.59,33.54,27.33,34.87,28.52Z"/><path class="cls-166" d="M37.4,29.08c-.41-.5-1-.49-1.58-.6l.55-.43c1.48-.39,2.85-1.22,4.45-1.21a4.3,4.3,0,0,1,2.47.41.86.86,0,0,1,.3.74c-.71,1.18-2.24.87-3.14,1.71a6.28,6.28,0,0,1-2.07.12A1.48,1.48,0,0,1,37.4,29.08Z"/><path class="cls-167" d="M26.7,26.58c-.83-.91-2.21-.1-3-1,2.29.13,4.71-.34,6.63,1.44l-.3.27C28.88,27.12,27.52,28.09,26.7,26.58Z"/><path class="cls-167" d="M34.87,28.52c-1.64.21-3-.95-4.61-.94-.21-.08-.29-.18-.23-.29s.12-.17.18-.17l.08-.09C31.78,27.65,34.07,25.79,34.87,28.52Z"/><path class="cls-168" d="M41,27.55a13.9,13.9,0,0,1-4.58.5l1.48-1.5c1.08-1.05,2.06-.65,3,.2A.77.77,0,0,1,41,27.55Z"/><path class="cls-168" d="M35.31,26.06l1,0a.39.39,0,0,1,.51-.15.56.56,0,0,1,.15.55c-1.77-.17-3.76.92-5.22-.95A3.92,3.92,0,0,1,35.31,26.06Z"/><path class="cls-77" d="M35.31,26.06l-3.54-.52-1.14-.42C32.22,25.26,34,24.35,35.31,26.06Z"/><path class="cls-169" d="M37,26.49a1.72,1.72,0,0,1-.25-.35c1.12-1.29,2.53-.76,3.87-.63a1.4,1.4,0,0,1,.93,1.43.44.44,0,0,1-.71.21c-1-.21-1.91-.77-3-.6Z"/><path class="cls-170" d="M29.2,23.06h-2c-.45-.16-.92-.31-.85-.91s.49-.55.86-.64c.82.55,1.81,0,2.66.39.34.27.6.64.38,1S29.59,23.34,29.2,23.06Z"/><path class="cls-171" d="M29.74,22.06c-.87-.11-1.81.13-2.55-.54,1-.11,2.11.26,3-.45A.43.43,0,0,1,30.9,21a1,1,0,0,1-.07,1.11A.92.92,0,0,1,29.74,22.06Z"/><path class="cls-172" d="M30.77,21l-.54,0c-.85-.11-1.77.16-2.52-.47l.07-.22a5.13,5.13,0,0,1,.6-.44,2,2,0,0,1,1.46-.09,2.94,2.94,0,0,1,.91.64h1C31.78,21.32,31.35,21.34,30.77,21Z"/><path class="cls-173" d="M24.61,18.44l.12.55-1,2-.12-.56a1.53,1.53,0,0,1,.68-2Z"/><path class="cls-174" d="M27.15,20a2.78,2.78,0,0,1,.08.49l-1.79.08C26,19.78,26.61,20.08,27.15,20Z"/><path class="cls-175" d="M29.74,22.06l1,0a1.28,1.28,0,0,1,.69-.31c1.14.13,2.31,0,3.45.21,1.16.83,2.93.69,3.62,2.26-.21.87-.86,1-1.61.95a7.76,7.76,0,0,0-2.6-1.06l-5.07,0,0-1C29.91,23,30,22.64,29.74,22.06Z"/><path class="cls-95" d="M40.89,26.08l-4.15.06h-.21l-.2-.06-.51-1a1.29,1.29,0,0,1,1.12-.26,12,12,0,0,0,2.39-.29C40.06,24.83,41,24.9,40.89,26.08Z"/><path class="cls-77" d="M36.84,25l-1,0-1.52-1a4.4,4.4,0,0,1,2.54.49C37.16,24.71,37.16,24.88,36.84,25Z"/><path class="cls-123" d="M24.26,18.48c-.23.66-.45,1.33-.68,2l-.36.06c0-.69,0-1.38-.07-2.07h0a.57.57,0,0,1,.91,0Z"/><path class="cls-176" d="M51.45,27.6l1-1c.7-.63,1.33.25,2,.1l.61,0,.51.91-1.16.06a3,3,0,0,1-.88.48,2.7,2.7,0,0,1-1,.19,1.61,1.61,0,0,1-.95-.39Z"/><path class="cls-87" d="M54.51,26.67c-.7.69-1.35.15-2-.1a1,1,0,0,1-.91-.58,2.08,2.08,0,0,1,2.4.24Z"/><path class="cls-97" d="M54,26.23,51.59,26l-.46-1C52.19,25.17,53.28,25.24,54,26.23Z"/><path class="cls-177" d="M53.54,27.64l.93,0c-.31.65-.63,1.29-.94,1.93a3,3,0,0,1-.43.12l-.29-.23C52.37,28.56,52.78,28,53.54,27.64Z"/><path class="cls-178" d="M56.58,40.75c-1.16-.44-3.24-.31-1.5-2.49l1.48,1.51C56.57,40.1,56.57,40.42,56.58,40.75Z"/><path class="cls-179" d="M51.52,40.29c.13.87.56,1.42,1.5,1.42l-.51.63-1,0a1,1,0,0,1-1,.16,1.44,1.44,0,0,1,0-2,1.18,1.18,0,0,1,.65-.32Z"/><path class="cls-20" d="M55.08,49.89c.14.73.56.9,1.25.7a2.19,2.19,0,0,1,2.31.32c-.73.12-1.67,0-2.15.41-1.24,1.06-2,.22-2.88-.43,0-.29,0-.59,0-.88l.94-.16Z"/><path class="cls-180" d="M52.46,47.79l.5-.5c.76-.18,1.87-.81,1.2.91-.2.53-.41,1.06-.62,1.6l-.45.24c0-.09-.05-.18-.08-.28C52.43,49.22,52.72,48.42,52.46,47.79Z"/><path class="cls-181" d="M53.59,54a1.38,1.38,0,0,0,1.49,0c-.11.58-.18,1.29-.95,1.21S53.65,54.42,53.59,54Z"/><path class="cls-182" d="M52.46,47.79c1.26.35.53,1.27.55,2a2.05,2.05,0,0,0-.51,1.57,3.19,3.19,0,0,1-1-1.94Z"/><path class="cls-183" d="M28.22,42.41a1.81,1.81,0,0,0-.4,0l-.17-.11c-.59-1,1.2-1.44.54-2.44l-1-.52.09-.23c1.11-.49,2.11-.53,2.83.65a4.79,4.79,0,0,1,.22,2.65,1.36,1.36,0,0,1-.59.92C29,43.37,28.76,42.64,28.22,42.41Z"/><path class="cls-184" d="M28.19,39.82c1.11,1.09.23,1.76-.54,2.44a4.67,4.67,0,0,1-3-1h1.52c.47-.72,1.5-.3,2-1C28.19,40.13,28.19,40,28.19,39.82Z"/><path class="cls-185" d="M28.18,40.29c-.2,1.26-1.18,1-2,1-.1-.34-1-.76,0-1A8.64,8.64,0,0,1,28.18,40.29Z"/><path class="cls-184" d="M24.67,41.28l-2.55-.55C23.18,39.93,23.92,40.61,24.67,41.28Z"/><path class="cls-186" d="M29.75,40.27c-.5-1.07-1.53-1-2.47-1.2l.51-.85a8.49,8.49,0,0,0,1.4-.81,1,1,0,0,1,1.31-.09,2.86,2.86,0,0,1,.77,2.46,1.57,1.57,0,0,1-.44.64A.93.93,0,0,1,29.75,40.27Z"/><path class="cls-187" d="M27.76,37.79l-1.55-.06a1.37,1.37,0,0,1-.37-.76c.61-1.93,1.66-1.66,2.87-.56C29,37.29,28.72,37.78,27.76,37.79Z"/><path class="cls-179" d="M26.16,37.22c0,.17,0,.34.05.51-.89,0-1.87.17-2.14-1.07-.31-.64-.05-1,.54-1.29C26.19,35.1,25.79,36.48,26.16,37.22Z"/><path class="cls-188" d="M21.17,35.71c.43-.42.75-1,1.47-1,.55.58,1,1.18.45,2-.84-.06-1.75.24-2.46-.48Z"/><path class="cls-189" d="M27.76,37.79l.9-1.07.26-.17a.7.7,0,0,1,.53.23c.27.45-.2,1,.26,1.44-.64.78-1.28.35-1.92,0A1.53,1.53,0,0,1,27.76,37.79Z"/><path class="cls-190" d="M23.09,36.7l-.45-2h.53a.77.77,0,0,1,.89-.19.79.79,0,0,1,.31.54c-.35.51-.39,1.16-.71,1.69Z"/><path class="cls-191" d="M23.66,36.72c0-.57-.58-1.35.52-1.56.4,0,.62.05.39.5s-.33.67-.5,1A1.84,1.84,0,0,1,23.66,36.72Z"/><path class="cls-134" d="M52.57,30.61c0,.35,0,.7,0,1,0,1.85-.06,3.7-.08,5.56a.52.52,0,0,1-.71,0c-.81-1-.43-2.19-.5-3.3a4.45,4.45,0,0,0-.6-2.57A4.58,4.58,0,0,1,50,29.62c-.48-1.35.91-1.38,1.43-2l.29,0A3.23,3.23,0,0,1,52.57,30.61Z"/><path class="cls-192" d="M45,27.1l3-1.54c.32.82,1.58,1.47.48,2.56-.45.44-1,.21-1.54.29a3.54,3.54,0,0,1-2,.15,1,1,0,0,1-.64-.73A.83.83,0,0,1,45,27.1Z"/><path class="cls-193" d="M47,27.59l1.49.53,1,2a1,1,0,0,1,.26,1,1.16,1.16,0,0,1-1.18.67c-1-.52-1.16-1.93-2.39-2.21a1.41,1.41,0,0,1-.4-.54C45.75,28.24,46.49,28,47,27.59Z"/><path class="cls-95" d="M49.51,31.14v-1l.51-.52a1,1,0,0,1,1,1c.28.75.76,1.48.17,2.3a1.17,1.17,0,0,1-1,.4A1.38,1.38,0,0,1,49.51,31.14Z"/><path class="cls-194" d="M36.84,20.51l.52,0c.65.4,1.18,1,2,1h0c.47,1.53,2.29.37,3,1.48l1,0a2.07,2.07,0,0,1,1.56.54,2.84,2.84,0,0,0-2,.46l.08.2a1.53,1.53,0,0,1-.65.68,1.74,1.74,0,0,1-.64.09c-.52-.13-1.06-.17-1.59-.26a3.16,3.16,0,0,1-.6-.25,6.55,6.55,0,0,0-2.29-1.21,1.55,1.55,0,0,1-.81-1.07A2,2,0,0,1,36.84,20.51Z"/><path class="cls-75" d="M45,27.1l-.5.49H44.1c-.83-.5-1.89.08-2.68-.59l-.53-.93-1.55-1a1.36,1.36,0,0,1,1.36-.51c.69,0,1.11.57,1.72.73.62.38,1.39.39,2,.76Z"/><path class="cls-136" d="M44.44,26.07H41.91a1.23,1.23,0,0,1,0-1.56,2.36,2.36,0,0,1,.46,0,1.84,1.84,0,0,1,1.05,1h1Z"/><path class="cls-195" d="M43.42,25.56l-1.05-1,.62-.34C43.46,24.54,44.53,24.7,43.42,25.56Z"/><path class="cls-196" d="M21.62,31.15c1.07.12,1.63-.31,1.54-1.43,2.45-1.35,2.77,1,3.8,2.15a1.83,1.83,0,0,1,.17.8,1.74,1.74,0,0,1-1.21,1.48,1.76,1.76,0,0,1-1.11-.08c-.77-.34-.5-1.22-.89-1.77l-.29-.16C22.51,32.72,21.75,32.57,21.62,31.15Z"/><path class="cls-179" d="M24.78,33.61l.88.11a.75.75,0,0,1,.2.74c-.47.77-1.07.66-1.71.24l-1,0c.15-.85.31-1.7.46-2.54h0C25,31.9,24,33.45,24.78,33.61Z"/><path class="cls-18" d="M57.6,47.41l-1.5,1C56.36,47.67,56.26,46.43,57.6,47.41Z"/><path class="cls-134" d="M38.32,53c-1.44-.79-.68-2.5-1.49-3.55a6.32,6.32,0,0,1-.24-2.12,7,7,0,0,1,.11-1.45,2.26,2.26,0,0,1,.54-1c.92-.5,1.36-1.63,2.46-1.92a1.48,1.48,0,0,1,.66.1,3,3,0,0,1,1.24,1.49,2,2,0,0,1-.89,1.55,2.3,2.3,0,0,0-.24.5c.17.86,1.21.63,1.57,1.24a1.7,1.7,0,0,1,.27.65c.06,1.21-.73,2-1.38,2.86C38.35,49.88,38.35,49.88,38.32,53Z"/><path class="cls-197" d="M40.93,51.36c-1-1.43.83-1.92,1-3,.69-1.14-.49-2.86,1.16-3.69l.37.06c.87,1.32,1.42,2.62,0,3.94A2.08,2.08,0,0,0,43,50.57c.09.8,0,1.44-1.06,1.32Z"/><path class="cls-198" d="M41.94,51.89c.64-.21.77-.82,1.06-1.32a1.59,1.59,0,0,0,.42-.19.54.54,0,0,0,.48,0c.48.12,1,.27.94.9s-.46.59-.86.67c-.86.64-2.94-.27-2.54,2-.82-.35-1.77-.51-2.26-1.46C40,51.44,41.06,52.22,41.94,51.89Z"/><path class="cls-199" d="M50.06,45.89l-.66-.63c-.55-1,0-1.53.77-2l.35,0,.95.11c.46.49.55,1-.06,1.41C51,45.19,50.84,45.92,50.06,45.89Z"/><path class="cls-200" d="M50.53,42.25l1,.06-1,.94v.07a.77.77,0,0,1-.76.1,1.73,1.73,0,0,1-.59-2.49.78.78,0,0,1,.68-.31C50.65,40.93,50,41.83,50.53,42.25Z"/><path class="cls-179" d="M51.41,44.77l.06-1.41c1.28.06.89.78.57,1.47Z"/><path class="cls-201" d="M40.39,22a4.6,4.6,0,0,0,1-3.53c-.26-2.69.32-3.17,3.06-2.66a6.76,6.76,0,0,0,1,.09L46,16a3.58,3.58,0,0,0-.09.45c-.43.83-1.43.63-2,1.14a5,5,0,0,0-.45,1.18c-.7,1.16-.66,2.52-1.08,3.76l0,0C41.6,22.78,40.77,23.35,40.39,22Z"/><path class="cls-202" d="M42.9,16.87c.93-.7,2-.33,3-.45,0,.17,0,.34,0,.51s-.1.24-.14.36C44.67,18.29,43.69,18.22,42.9,16.87Z"/><path class="cls-203" d="M50,18.46a1.76,1.76,0,0,1-1.52-.5c.27-.38.49-.91,1.07-.71S50,18,50,18.46Z"/><path class="cls-204" d="M48,18c0,.34,0,.68,0,1-.74,0-1.39-.11-1.53-1a1,1,0,0,1,1-.75.74.74,0,0,1,.57.24Z"/><path class="cls-205" d="M48,17.46h-.5c-.63.19-1.37.73-1.52-.51l0,0C46.78,16.51,47.53,16.44,48,17.46Z"/><path class="cls-206" d="M46,17a1.82,1.82,0,0,0,1.52.51l-1,.51H46l-.55,0a2.37,2.37,0,0,1-1.86.41,2.84,2.84,0,0,1-.66-.42.64.64,0,0,1,0-1.1C43.92,17.16,44.93,17.66,46,17Z"/><path class="cls-124" d="M28.22,20.48a1.09,1.09,0,0,1-.44-.1L27.6,15l.13-.13a.67.67,0,0,1,.8.15,2.09,2.09,0,0,1,.37.8C29.09,17.45,29.5,19.09,28.22,20.48Z"/><path class="cls-207" d="M24.05,18.46h-.91c.18-.84.35-1.68.53-2.51C24.46,16.69,24.09,17.6,24.05,18.46Z"/><path class="cls-208" d="M42.91,18h.54a1.18,1.18,0,0,1,.47,1L42.38,22.5C42.55,21,42.73,19.48,42.91,18Z"/><path class="cls-208" d="M40.39,22c.56.59,1.28.44,2,.46a3.85,3.85,0,0,1,0,.48c-1.23,0-2.75.57-3-1.48Z"/><path class="cls-209" d="M43.92,19c-.15-.34-.31-.69-.47-1l2,0A1.72,1.72,0,0,1,43.92,19Z"/><path class="cls-210" d="M28.24,46.88c.16-.18.31-.36.46-.55l0,0c.32-.76.58-1.62,1.7-1a8,8,0,0,1,1.06.84c.18.14.34.29.5.44.72.69,1.67.43,2.52.6a3,3,0,0,1,2,1.5.83.83,0,0,1-.17.69c.36,3.58-2.29,2.3-4,2.5C31.68,49.64,29.5,48.64,28.24,46.88Z"/><path class="cls-211" d="M36.34,49.4l0-.51a1.06,1.06,0,0,1-.18-1c.27-.45.62-.75,1.19-.53,0,.73.14,1.49-.48,2.08h-.49Z"/><path class="cls-212" d="M28.19,14.93a3.57,3.57,0,0,1-.46,0l-1-1.46,2.47.5,0,.47c0,.1-.11.19-.16.28A1.11,1.11,0,0,1,28.19,14.93Z"/><path class="cls-167" d="M26.67,32.1c-1,0-1.21-.79-1.46-1.5-.37-1.06-1.15-1.08-2.05-.88,0-.86,2.9,0,1.13-1.94l1.9-.19h.32a2.12,2.12,0,0,1,1.13.58,1.15,1.15,0,0,0,1.1.39c.71.08,1.47-.07,2,.53a2.24,2.24,0,0,1,.35.55,9.72,9.72,0,0,1,.35,2,2.65,2.65,0,0,1-.55,2.15c-1.69.7-2.34-.4-2.89-1.66-.09-.28-.21-.54-.59-.5A1.73,1.73,0,0,1,26.67,32.1Z"/><path class="cls-213" d="M30.21,27.12c0,.15,0,.3.05.46-.7.06-1.46-.09-2,.49l-.24.24c-.77.2-1.23-.4-1.79-.72h0l.51-1Z"/><path class="cls-86" d="M52,37.21h.49c.13.2.3.85.49.17.26-.87.69-1.21,1.54-1.13a3.59,3.59,0,0,1,.05.46c-1.18.25-1,1.2-1,2l-1.51.51a.52.52,0,0,1-.71,0,1.45,1.45,0,0,1-.26-1.48A.81.81,0,0,1,52,37.21Z"/><path class="cls-214" d="M54.27,35.75c-.16-.07-.65-.16-.69-.34-.1-.53.37-.69.78-.64s.68.27.73.48C55.19,35.71,54.73,35.67,54.27,35.75Z"/><path class="cls-177" d="M52.57,30.61a6.28,6.28,0,0,1-.83-3l.84.09c.53.52-.06,1.3.45,1.82l.07.11Z"/><path class="cls-215" d="M51.56,39.17a4.17,4.17,0,0,1,.49.08l1,1.31c-.65.27-1-.14-1.52-.27h0A.82.82,0,0,1,51.56,39.17Z"/><path class="cls-216" d="M44.36,45l-.88-.22h0a2.14,2.14,0,0,1-.53-.51,2.44,2.44,0,0,1-.09-1.8,10.92,10.92,0,0,0,1-1.85,1.94,1.94,0,0,1,.49-.5,1.67,1.67,0,0,1,1.38.08c.47.3,1.06.45,1.38,1,.25,1.4-1.13,1.65-1.71,2.47-.24.31-.32.71-.55,1A.92.92,0,0,1,44.36,45Z"/><path class="cls-217" d="M47,44.86a3.39,3.39,0,0,0-.08.44c-.49.64-.77,1.7-2,1-.21-.44-.42-.87-.62-1.31l.23-.4a4.69,4.69,0,0,0,.47-.43,4,4,0,0,1,1.7-1.51,1.44,1.44,0,0,1,1.35.08,1.16,1.16,0,0,1,.22,1C48.15,44.43,47.39,44.42,47,44.86Z"/><path class="cls-136" d="M47,44.86l.88-1.08c.39-.25.58-.79,1.16-.77a1,1,0,0,1,.6.35,6.45,6.45,0,0,1-.63,2c0,.15,0,.29,0,.44a.61.61,0,0,1-.9.14A1.22,1.22,0,0,0,47,44.86Z"/><path class="cls-136" d="M45,46.3c.84.05,1.31-.65,2-1C46.72,46.49,46.34,47.36,45,46.3Z"/><path class="cls-218" d="M48.08,46l.9-.14a2.24,2.24,0,0,1-1.1,2c0-.49.09-1,.13-1.45A3.07,3.07,0,0,0,48.08,46Z"/><path class="cls-179" d="M49,45.37a3.67,3.67,0,0,1,.49-2,.29.29,0,0,1,.49-.08l.53.08c-.39.64-1.05,1.12-1.12,1.94Z"/><path class="cls-219" d="M30.75,20.49l-1,0A2.39,2.39,0,0,1,29.93,17a.68.68,0,0,1,.81,0C31.18,18.13,30.7,19.31,30.75,20.49Z"/><path class="cls-56" d="M30.74,17l-.52,0c-1.22-.47-.81-1.07-.14-1.69a1.07,1.07,0,0,1,1.13.07l.59,0a.82.82,0,0,1,0,.31C31.63,16.26,30.62,16.11,30.74,17Z"/><path class="cls-142" d="M31.24,22a4.1,4.1,0,0,1-.49,0c0-.32,0-.65,0-1l1-.53,2,0h1a.6.6,0,0,1-.19.67,5.81,5.81,0,0,0-1,1.06C32.82,22.21,32,22.48,31.24,22Z"/><path class="cls-212" d="M31.21,15.35l-.95.12-.31,0c-.51-.14-1.05-.27-.73-1l0,0C30,14.49,31,14.19,31.21,15.35Z"/><path class="cls-220" d="M33.82,22c-.82-.67-.82-.67,1-1.49h2c.21.51.6,1,0,1.53C35.8,22.93,34.81,22.32,33.82,22Z"/><path class="cls-221" d="M20.62,46.37l-.51,1.51c-.79-.49-1.38-1.14-.61-2C20,45.37,20.35,45.94,20.62,46.37Z"/><path class="cls-151" d="M31.25,46.88l-1-1.06c-.24-.45-.73-.81-.49-1.43,0-.37,0-.73,0-1.1l.06-.9c.86-.65,1.23,0,1.58.62,0,1.09.59,2.12.38,3.24A1.31,1.31,0,0,1,31.25,46.88Z"/><path class="cls-148" d="M29.73,44.39c.16.48.33,1,.49,1.43-.72-.45-1.06.19-1.5.53A1.87,1.87,0,0,1,29.73,44.39Z"/><path class="cls-222" d="M37.4,29.08l1,.06a3,3,0,0,0,2.42,0,1.84,1.84,0,0,1,2.27.48,3.08,3.08,0,0,1-.27,2.41c-1.25,2.85-1.69,2.92-3.86.57-.9-1.11-2.3-1.45-3.44-2.18l-.16-.3C35.57,28.91,36.58,29.19,37.4,29.08Z"/><path class="cls-213" d="M30.76,29.62c0-.18,0-.35,0-.53,1.65-.25,3,.68,4.53,1.05h0a.52.52,0,0,1-.09.73C33.43,31.55,32.07,30.67,30.76,29.62Z"/><path class="cls-223" d="M28.74,28.56c-.46,1.47-1,.83-1.54.05.23-.39.76-.16,1-.48v-.06Z"/><path class="cls-97" d="M44.45,27.59l.37.59a1.54,1.54,0,0,1,1.14.94l0,0a.68.68,0,0,1-.16.73,1.7,1.7,0,0,1-1.52.34,8.26,8.26,0,0,0-3-1c.07-1.56,1.59-.35,2.09-1.09,0-.15,0-.3,0-.45.33-.34.66-.4,1,0Z"/><path class="cls-213" d="M41.41,29.1c1,.17,2.13-.13,3.09.49a1.09,1.09,0,0,1-1.35.7l-.24-.23c-1.39-1-3.2.16-4.56-.92l2,0A.71.71,0,0,1,41.41,29.1Z"/><path class="cls-224" d="M41.41,29.1h-1c.69-1.29,1.94-.91,3-1Z"/><path class="cls-225" d="M44.37,27.67l-1,0L41,27.55l-.12-.4.59-.14C42.39,27.28,43.55,26.69,44.37,27.67Z"/><path class="cls-226" d="M30.26,15.47c-.27.49-.64,1,0,1.5-.16,1.19-.31,2.38-.46,3.56l-1.54-.05V15.43a1.78,1.78,0,0,1,2-.06Z"/><path class="cls-77" d="M37.35,23a3.31,3.31,0,0,1,2.53,1,1.06,1.06,0,0,1-1.53,0,7.46,7.46,0,0,1-3.55-1.51C35.8,21.87,36.55,22.57,37.35,23Z"/><path class="cls-227" d="M37.35,23l-2.55-.48c-1.19-.15-2.47.32-3.56-.51l2.58,0,3,.05Z"/><path class="cls-136" d="M38.35,24.05h1.53c.23.45,1.32,0,1,1l-1.55,0L36.84,25v-.49A1.77,1.77,0,0,0,38.35,24.05Z"/><path class="cls-228" d="M34.18,23.45H31.51C32.2,23,32.9,22.94,34.18,23.45Z"/><path class="cls-229" d="M53,29.56c-.58-.5-.44-1.18-.45-1.82l1-.1Z"/><path class="cls-230" d="M50.53,42.25c-.51-.38-.48-1-.51-1.49a1.51,1.51,0,0,1-.57-1.28,1.8,1.8,0,0,1,.28-.67.94.94,0,0,1,.64-.26,1.07,1.07,0,0,1,.55.41c.09.43.41.84.11,1.31Z"/><path class="cls-24" d="M51,40.27l-.46-1.1c.32-.46-.18-1.13.38-1.53a.49.49,0,0,1,.59.1c0,.48,0,.95,0,1.43s0,.74,0,1.12Z"/><path class="cls-231" d="M30.86,43.31c-.11-.59-.35-1-1.06-.92-.77-.69-.06-1.41-.05-2.12h1.07a.54.54,0,0,1,.63-.06,2.45,2.45,0,0,1,.75,1.55,1.87,1.87,0,0,1-.7,1.57A.57.57,0,0,1,30.86,43.31Z"/><path class="cls-232" d="M31.18,40.25l-.36,0c0-.15,0-.29,0-.44.34-.62,0-1.42.55-2a1.17,1.17,0,0,1,1-.33,1.72,1.72,0,0,1,1.2,1.4,1.64,1.64,0,0,1-1.34,1.76A1.46,1.46,0,0,1,31.18,40.25Z"/><path class="cls-233" d="M31.72,38.21c-.3.54-.6,1.08-.89,1.63l-.6-2.62.33-.14C31.27,37.12,31.54,37.62,31.72,38.21Z"/><path class="cls-234" d="M29.71,38.22a1.77,1.77,0,0,1-.48-1.5c-.14-.49.15-.74.53-.93.61-.12,1.26-.15,1.45.56s-.57.66-1,.87h0C30.06,37.55,29.89,37.89,29.71,38.22Z"/><path class="cls-235" d="M24.15,34.7a1.84,1.84,0,0,0,1.53-.5.9.9,0,0,1,.83-.3c.53.15.74.68,1.17,1s1,.36,1.3.91a1.1,1.1,0,0,1-.22,1h-.1c-.94-.37-1.95-1.06-2.5.5-.52-.53-.59-1.51-1.59-1.56l-.39-.5Z"/><path class="cls-179" d="M28.76,36.73l0-1c-.29-.37-.88-.19-1.13-.64a.73.73,0,0,1,.16-.62,1.43,1.43,0,0,1,1-.28,2,2,0,0,1,.65.24A1.63,1.63,0,0,1,30,35.61a1,1,0,0,1-.29.6l-.51.51Z"/><path class="cls-236" d="M51.54,37.74c-.15,0-.31,0-.46,0a2.09,2.09,0,0,1-.86-1.8,16,16,0,0,0,.83-3.34c-.08-.65-.42-1.3,0-2,2,1.93.66,4.37,1,6.55Z"/><path class="cls-43" d="M46,29.12l-1.14-.94L47,27.59Z"/><path class="cls-237" d="M49.51,31.14a3.29,3.29,0,0,0,1,2c.69,1.42.2,2.14-1.32,2.27-.93-.36-.87-1.32-1.22-2a1.94,1.94,0,0,1,0-1.19,1.22,1.22,0,0,1,.53-.59Z"/><path class="cls-192" d="M48.53,31.64l-.08.59a.69.69,0,0,1-.64,0c-.62-.48-.68-1.37-1.33-1.83a2.18,2.18,0,0,1-.43-.48c0-.11,0-.21-.07-.32V29.1C47.88,28.91,48.44,30,48.53,31.64Z"/><path class="cls-238" d="M49.05,35.17c1.1-.21,1.31-1.07,1.45-2l.55-.55c1.08,1.37.21,2.46-.52,3.58l-.17.35a.93.93,0,0,1-1,.25C48.73,36.35,48.46,35.83,49.05,35.17Z"/><path class="cls-169" d="M40.89,25.06l-1-1a2.86,2.86,0,0,1,2,.47v1.56Z"/><path class="cls-239" d="M28.75,31.13a2,2,0,0,0,1.95,2.48.51.51,0,0,1,.63,0,.87.87,0,0,1,0,.69,1.69,1.69,0,0,1-.57.42c-.62.24-1.16-.09-1.71-.28a2.08,2.08,0,0,1-.63-.23,15.73,15.73,0,0,0-1.29-1,4,4,0,0,1-.44-.48c0-.2,0-.4,0-.61l0-1.41C27.49,30.35,28.31,29.84,28.75,31.13Z"/><path class="cls-38" d="M26.71,32.71l.49-.08c1.15-.11.91,1.14,1.52,1.56h0c.33.16.34.32,0,.49h-1a1.05,1.05,0,0,1-1-.46l-1,0c0-.16,0-.32,0-.48Z"/><path class="cls-103" d="M24.78,33.61l-1.14-1.48C25.39,31.57,24.36,33.15,24.78,33.61Z"/><path class="cls-107" d="M41.89,47.86a2,2,0,0,1-2.47-.38c-.56-.63-.08-1.19.52-1.58.27-.62.9-.74,1.42-1a1.06,1.06,0,0,1,.65.17,1.37,1.37,0,0,1,.35.59,3.43,3.43,0,0,1-.19,2Z"/><path class="cls-240" d="M39.89,43.32c-.75.6-1,1.68-2.08,2a1.65,1.65,0,0,1-.55-.8,3.17,3.17,0,0,1-.16-.66c-.21-.76-.93-1.6.32-2.14C38.63,41.65,40.15,41.12,39.89,43.32Z"/><path class="cls-95" d="M43.44,44.32c0,.15,0,.3,0,.44-1.22.92.29,3-1.53,3.64l-.06-.54h0a2.42,2.42,0,0,0,0-2.49l0,0a1.22,1.22,0,0,1-.24-1,1,1,0,0,1,.68-.74C42.91,43.52,43.15,44,43.44,44.32Z"/><path class="cls-241" d="M39.89,43.32c-.55-1.81-2-.88-3.07-1a.52.52,0,0,1-.6-.28.9.9,0,0,1,.31-.66,1.88,1.88,0,0,1,1.1-.34,7,7,0,0,1,2.77.26,1.72,1.72,0,0,1,.77.93c0,.57.07,1.13-.76,1.09Z"/><path class="cls-242" d="M40.41,43.32l.44-1a.69.69,0,0,1,.69-.09c.69.58.56,1.32.37,2.07v1l-.54-.45C41.21,44.27,39.26,44.74,40.41,43.32Z"/><path class="cls-243" d="M37.88,44.33l-.07,1-.42.59c-.33.3-.58.77-1.15.62a1.24,1.24,0,0,1-.79-1.08,1.74,1.74,0,0,1,.2-.67A1.91,1.91,0,0,1,37.88,44.33Z"/><path class="cls-244" d="M36.35,46.33l1-.43c0,.48,0,1-.08,1.43l-1,.54-.27-.25A1,1,0,0,1,36.35,46.33Z"/><path class="cls-245" d="M50,39.26c0,.5,0,1,0,1.5l-.51.05a1.21,1.21,0,0,1-.57.3,2.37,2.37,0,0,1-1.29-.4,1.26,1.26,0,0,1-.38-.6,1.42,1.42,0,0,1,.67-1.25,1.89,1.89,0,0,1,.73-.23A1.73,1.73,0,0,1,50,39.26Z"/><path class="cls-24" d="M49.08,40.81h.43A4.27,4.27,0,0,0,50,43.24a2.64,2.64,0,0,1-.49.08H49a1.8,1.8,0,0,1-.49-1.91A1.21,1.21,0,0,1,49.08,40.81Z"/><path class="cls-246" d="M30.2,15.37l-2,.06,0-.5,1-.5Z"/><path class="cls-247" d="M31.25,46.88l0-.52a2.74,2.74,0,0,1,.93-.65,4.18,4.18,0,0,1,3.46,1.15c.25.26.42.59.69.84v.17c0,.34,0,.68,0,1l-2.09-1.06c-.92-.54-2.25.27-3-.89Z"/><path class="cls-148" d="M31.22,46.94c.94.48,2.13.14,3,.89C33.16,47.71,31.87,48.39,31.22,46.94Z"/><path class="cls-223" d="M30.76,29.62c1.66-.3,2.95,1.12,4.57,1,1.58-.55,2.6,1.05,4,1.05L41,33.79l1.87-3.73v.07a2.12,2.12,0,0,1,.5.61c.43,1.6-.81,2.7-1.21,4.06a1.82,1.82,0,0,1-.68.44,2.61,2.61,0,0,1-1.21.07c-.82-.38-1.82-.26-2.55-.9a2.43,2.43,0,0,0-2.57-1.53,2.64,2.64,0,0,1-2.09-.68c-.71-.5-1.78-.22-2.35-1C30.89,30.65,29.22,30.13,30.76,29.62Z"/><path class="cls-248" d="M30.76,31.16c.84,0,1.68-.48,2.53,0a1,1,0,0,1,0,1.25c-.71.38-.89,1.62-2.06,1.28l-.54-.06Z"/><path class="cls-223" d="M28.75,31.13a2,2,0,0,0-2.05-.44C27.54,30.12,28.39,29.47,28.75,31.13Z"/><path class="cls-125" d="M28.22,28.13l-1,.48-1-1Z"/><path class="cls-249" d="M47,43.31c-.78.2-.86,1.58-2,1.19a2.38,2.38,0,0,0-.52-1.18l2.58-2a.76.76,0,0,1,1-.14C48.8,42.49,47.22,42.55,47,43.31Z"/><path class="cls-250" d="M44.44,40.79c0,.76-.17,1.39-1.06,1.54-1.33,0-1.61-.92-1.78-2a5.38,5.38,0,0,1,1.21-2.24,1.11,1.11,0,0,1,.72,0C44.54,38.77,43.84,40,44.44,40.79Z"/><path class="cls-251" d="M42,40.25l1.39,2.08.06,2-1-.56c-.73-.48-.58-1.58-1.4-2A2.31,2.31,0,0,1,40.74,40a2,2,0,0,1,.31-.66l.3-.22a.83.83,0,0,1,.68.13A.89.89,0,0,1,42,40.25Z"/><path class="cls-252" d="M45.45,40.79l-1-.57c-.84-.6-.71-1.57-.92-2.41a1.47,1.47,0,0,1,.27-.69,1.25,1.25,0,0,1,1.06-.21,7.6,7.6,0,0,1,1.77,1.72,1.18,1.18,0,0,1,0,.67A8.1,8.1,0,0,0,45.45,40.79Z"/><path class="cls-253" d="M45.45,40.79c-.17-.85-.31-1.67,1-1.54.5.18.63.71,1,1l.59,0a.73.73,0,0,1-.06,1l-1,.06C46.47,41.26,45.87,41.28,45.45,40.79Z"/><path class="cls-254" d="M43.86,37.69l.6,2.53c0,.19,0,.38,0,.57-1.08-.57-1-1.6-1-2.59a.37.37,0,0,1-.13-.34c0-.12,0-.18.07-.18A.42.42,0,0,1,43.86,37.69Z"/><path class="cls-255" d="M44.45,43.32c.77.14,1.1.46.52,1.18a1.24,1.24,0,0,1-.38.09C44.39,44.18,44,43.8,44.45,43.32Z"/><path class="cls-216" d="M48,41.29l.06-1,1,.51a2.63,2.63,0,0,0-.07.49c-.66.28.32,1.69-1,1.5l-1,.51C47.3,42.63,47.65,42,48,41.29Z"/><path class="cls-179" d="M48,42.8l1-1.5c0,.67,0,1.34,0,2l-1.11.47Z"/><path class="cls-256" d="M32.21,46.32l-.94,0a6,6,0,0,1-.41-3h.37c1.38,1,3.49.41,4.53,2.13l.59.89V47.7l-.55-.33C34.72,46.61,33.7,45.67,32.21,46.32Z"/><path class="cls-165" d="M39.37,31.67c-1.5.21-2.67-.77-4-1.05,0-.16,0-.32,0-.49C36.92,30,38.11,30.9,39.37,31.67Z"/><path class="cls-257" d="M43,30.78l0-.65,1.58-.54,1.48,0,.13,0c.15,1.93-1.08,1.82-2.38,1.62A3.85,3.85,0,0,1,43,30.78Z"/><path class="cls-258" d="M50,39.26l-1.55,0a3.76,3.76,0,0,1-.75-1.62,4.87,4.87,0,0,1-.34-2.94c.27-.59.47-1.22,1.13-1.51.62.55.47,1.31.55,2l.48,1.56a1.16,1.16,0,0,1,.5,2Z"/><path class="cls-259" d="M50.53,36.22c1.12.18.41,1,.55,1.55-.06.51,0,1-.51,1.4,0-.12-.06-.25-.08-.38a2.92,2.92,0,0,1,0-2.58Z"/><path class="cls-236" d="M50.53,36.21c0,.86,0,1.72,0,2.58L50,38.72c-.17-.66-.33-1.33-.5-2Z"/><path class="cls-260" d="M35.76,45.44a25.1,25.1,0,0,0-3.2-.62c-1-.08-1.22-.71-1.33-1.51.2-.42.41-.84.61-1.27,1.23-1.91,2.3-2,4.42-.21l.56.49c1.72.87,1.72.87,1.1,1.51-1.19,1-2.13-.33-3.17-.32-.3-.24-.28.27-.14,0,0,0,.08,0,.23.09a1.47,1.47,0,0,1,1,1.29Z"/><path class="cls-261" d="M36.26,41.83c-1.48-.08-3-1.29-4.41.21a2.93,2.93,0,0,1-.67-1.79h1.08c.76.35,1.38-.49,2.13-.23a2.54,2.54,0,0,1,1.5.32,1.43,1.43,0,0,1,.63,1.38A.82.82,0,0,1,36.26,41.83Z"/><path class="cls-262" d="M34.27,40.66c-.71.06-1.46.37-2-.4.35-.5.69-1,1-1.51a2.76,2.76,0,0,1,.72-2,2.2,2.2,0,0,1,2-.83c1.19.91,2.08,2,1.67,3.62a1.17,1.17,0,0,1-.53.5C36.17,40,35.1,39.76,34.27,40.66Z"/><path class="cls-235" d="M31.24,33.67c.92-.11-.26-2.44,1.62-1.53a1.56,1.56,0,0,1,.62,1.08,15.2,15.2,0,0,1-.06,3.37,1.38,1.38,0,0,1-1.19,1.08l-.51.54-1.48-1c.16-.28.31-.56.47-.83l-1-.18V35.7c.21-.78,1.14-.88,1.46-1.56A2.42,2.42,0,0,0,31.24,33.67Z"/><path class="cls-263" d="M32.23,37.67l.61-.92a1,1,0,0,1,.95-.37.73.73,0,0,1,.59.78,1.8,1.8,0,0,1-1.09,1.59A2,2,0,0,1,32.23,37.67Z"/><path class="cls-179" d="M26.7,34.22l1,.46,0,0a2.26,2.26,0,0,1-1,1C26.06,35.2,26.5,34.71,26.7,34.22Z"/><path class="cls-83" d="M26.73,35.68l1-1,1,1Z"/><path class="cls-264" d="M31.2,34.14c.13,1.1-.37,1.61-1.46,1.56-.19-.32-.37-.65-.56-1,.38-.61,1.2.09,1.58-.52Z"/><path class="cls-265" d="M30.76,34.2c-.21,1.12-1,.39-1.58.52a3.42,3.42,0,0,1-.45,0c0-.16,0-.33,0-.49Z"/><path class="cls-18" d="M48.5,33.17A1.83,1.83,0,0,1,48,34.71c-.51.75-.06,1.59-.25,2.37a.71.71,0,0,1-.59.33,1.12,1.12,0,0,1-.6-.42,3.37,3.37,0,0,1-.28-1.83,3.06,3.06,0,0,1,.22-1.08c.58-.59.73-1.52,1.53-1.94a3.58,3.58,0,0,1,.45.09C48.46,32.54,48.48,32.86,48.5,33.17Z"/><path class="cls-266" d="M43.45,30.78c.89-.38,2.19.18,2.66-1.15a.29.29,0,0,1,.31-.06,1.91,1.91,0,0,1,.13,2.5c-.81,1.2-1.83,1.61-3.15.81A2,2,0,0,1,43.45,30.78Z"/><path class="cls-267" d="M46.08,31.61c.11-.68.22-1.36.34-2,1.48.27,1.45,1.47,1.58,2.57-.06.83.18,1.8-1,2a1,1,0,0,1-.8-.57C45.89,33,46.5,32.25,46.08,31.61Z"/><path class="cls-265" d="M28.72,34.19c-.51-.52-1-1-1.52-1.55C28.72,32.15,28.39,33.49,28.72,34.19Z"/><path class="cls-268" d="M39.94,45.9c.53.07,1.24-.2,1.36.68,0,.12-.1.39-.18.39-.77.08-.89-.6-1.18-1.07Z"/><path class="cls-134" d="M41.85,45.38a1.61,1.61,0,0,1,0,2.49C41.88,47,41.87,46.21,41.85,45.38Z"/><path class="cls-269" d="M35.8,44.85c-.76-.33-1.51-.7-2.3-1-.59-.21-1.6-.1-1.25-1.08s1-1.11,2-.56a34.66,34.66,0,0,0,3.63,1.59c0,.16,0,.33,0,.5C37.22,44.63,36.67,45.36,35.8,44.85Z"/><path class="cls-270" d="M41.43,41.71a2,2,0,0,1,1,2l-.55.55-.51-2a.36.36,0,0,1-.11-.39C41.34,41.77,41.39,41.71,41.43,41.71Z"/><path class="cls-271" d="M40.35,41.81l-3-.09c-.27-1,.34-1.48,1-1.95a2.49,2.49,0,0,1,.81-.17,1.7,1.7,0,0,1,1.48.68A1.19,1.19,0,0,1,40.35,41.81Z"/><path class="cls-272" d="M38.35,40.27c-.34.49-.69,1-1,1.45h-.8l-.76-.89c-.16-.88.23-1.21,1.08-1.08h.5A.9.9,0,0,1,38.35,40.27Z"/><path class="cls-273" d="M40.35,41.81V40.3c0-.84.35-.85.94-.51,0,.64.08,1.28.13,1.92l0,.58-.55,0Z"/><path class="cls-42" d="M47,37.25l.39-.09c.61-.26.8.23,1.07.58a1.31,1.31,0,0,1,0,1.5l-.46,0c-.64.37-1.06.16-1.29-.52A1.17,1.17,0,0,1,47,37.25Z"/><path class="cls-274" d="M46.94,38.71l1.06.58-.54,1c-.38.13-.78.53-1.14.15s0-.78.14-1.16a3.87,3.87,0,0,0,0-.48A.28.28,0,0,1,46.94,38.71Z"/><path class="cls-275" d="M32.21,46.32c1.58-1,2.73-.45,3.59,1C34.56,47.18,33.53,46.25,32.21,46.32Z"/><path class="cls-276" d="M41.41,34.71a.49.49,0,0,1,.29-.06c.82-.28.51-1.64,1.59-1.66a3.75,3.75,0,0,1,1.89,1.36c.29,1.7-1.56,1.37-2.12,2.26-.31.32-.54.72-.87,1a1.66,1.66,0,0,1-1.37.41l-.2-.06v.17a.82.82,0,0,1-.16.45,1.55,1.55,0,0,1-1.06.56,1.75,1.75,0,0,1-.68-.17,1.43,1.43,0,0,1-.64-1.24A17.44,17.44,0,0,0,38.64,36C39,34.36,40.51,35.2,41.41,34.71Z"/><path class="cls-277" d="M32.81,33.19c0-.35,0-.7,0-1s.29-.66.43-1a2.86,2.86,0,0,0,2.88,1c1.68-.25,2,.61,1.74,2l-.28.23h-.36L37,34.22C35.86,32.69,33.93,34.55,32.81,33.19Z"/><path class="cls-76" d="M41.41,34.71c-.73.62-2.28.4-2,2-.4.63-1,1.06-1.61.46a1.71,1.71,0,0,1-.08-2.47,3.81,3.81,0,0,1,2.7-.08Z"/><path class="cls-278" d="M43.44,33.17c-.61.45-.84,1.35-1.74,1.48.42-1.29.84-2.58,1.25-3.87h.5c0,.64,0,1.27,0,1.9a.31.31,0,0,1,.09.34Q43.5,33.17,43.44,33.17Z"/><path class="cls-277" d="M40.37,34.62l-2.53.08a.33.33,0,0,1-.13-.31c0-.11.06-.16.1-.16l.1-.11C38.73,34.27,39.64,34,40.37,34.62Z"/><path class="cls-279" d="M40.34,38.24c0-.16,0-.31.07-.47h0l1.44-.58c.46-.3.91-.79,1.5-.47.42.23.37.66.09,1,0,.15,0,.3,0,.45l-.46.06c-.45.23,0,1.32-1,1h0C41.42,38.86,40.44,39.21,40.34,38.24Z"/><path class="cls-280" d="M41.89,39.27l1-1c-.06.78.19,1.71-.94,2C42,39.92,41.92,39.6,41.89,39.27Z"/><path class="cls-95" d="M38.86,38.72l.58,0c.63.21,1.43-.13,1.91.58a2.5,2.5,0,0,1-.05.47l-.94.51-1.47,0A1.06,1.06,0,0,1,38.86,38.72Z"/><path class="cls-280" d="M41.35,39.32l-1.91-.58.9-.5,1.56,1Z"/><path class="cls-278" d="M42.41,36.18c.17-1.52,2.42-.43,2.53-2,.19-1.08.79-.94,1.49-.52l.54.53c0,.35,0,.7,0,1.06a1.28,1.28,0,0,0-.66.87c-.38.44-.37,1.36-1.32,1.12l-1,0C43.78,36.45,43,36.48,42.41,36.18Z"/><path class="cls-81" d="M45,37.23c.4-.44.14-1.29.91-1.5.7.21.56,1,.94,1.39l.22.13c0,.49-.05,1-.08,1.46l-.45.06C45.44,38.8,44.89,38.31,45,37.23Z"/><path class="cls-281" d="M42.41,36.18c.53-.14,1.05-.64,1.61-.24s.06.88,0,1.32c-.05.14-.09.28-.13.43l-.42.06c-.2-1.15-1-.43-1.59-.56C42,36.85,42.22,36.52,42.41,36.18Z"/><path class="cls-282" d="M48.48,37.74l-1.07-.58c.18-.82-.17-1.76.56-2.45Z"/><path class="cls-283" d="M36.84,39.76l-1.08,1.08-1.49-.18C34.82,39.48,35.25,38,36.84,39.76Z"/><path class="cls-283" d="M38.86,38.72l0,1.54h-.54l-1-.51c0-1.43-.91-2.45-1.57-3.59-.46-.71-.16-1.47-.1-2.21.72-1.44,1.21-1,1.63.19l.05,0c.68,1.11-.34,2.65.91,3.61Z"/><path class="cls-284" d="M36.29,34.21a3,3,0,0,1-.52,2l-1.39,1c-.19-.19-.37-.39-.56-.59a1.45,1.45,0,0,1-.43-2.44A2,2,0,0,1,36.29,34.21Z"/><path class="cls-285" d="M36.29,34.21c-.78.84-4.18-1.09-2.47,2.36l-1,.18,0-3.56c.87-.17,1.74-.41,2.62-.5s2.08-.09,1.87,1.46C37,34.11,36.55,32.93,36.29,34.21Z"/><path class="cls-286" d="M46.8,37.12c-.89-.07-.81-.8-.94-1.39.13-.66.46-.88,1.07-.49C46.89,35.87,46.84,36.49,46.8,37.12Z"/><path class="cls-287" d="M46.43,33.65c-.54.05-1.1,0-1.49.52-1.08.55-1.16-.43-1.5-1a3.91,3.91,0,0,0,0-.49c1,0,2,0,2.61-1.07C47.35,32.09,46.79,32.89,46.43,33.65Z"/><path class="cls-107" d="M38.26,37.79c-1.65-.86-.68-2.39-.91-3.61a1.75,1.75,0,0,1,.46,0,1.86,1.86,0,0,0,0,.47c.4.76-.92,2.81,1.52,2A1.17,1.17,0,0,1,38.26,37.79Z"/><path class="cls-13" d="M40.41,37.77c-.82-.84-.42-1.36.43-1.92.46.91-.58,1.25-.43,1.92Z"/></g></g></svg>