<svg xmlns="http://www.w3.org/2000/svg" viewBox="0 0 74 74"><defs><style>.cls-1{fill:#1e2223;}.cls-2{fill:#201e1d;}.cls-3{fill:#403e3e;}.cls-4{fill:#5c5c5c;}.cls-5{fill:#4c4c4c;}.cls-6{fill:#1d1d1d;}.cls-7{fill:#181818;}.cls-8{fill:#292929;}.cls-9{fill:#4e4e4e;}.cls-10{fill:#720301;}.cls-11{fill:#737373;}.cls-12{fill:#929291;}.cls-13{fill:#545453;}.cls-14{fill:#404040;}.cls-15{fill:#666;}.cls-16{fill:#6f6f6f;}.cls-17{fill:#505050;}.cls-18{fill:#bcbcbc;}.cls-19{fill:#46302e;}.cls-20{fill:#141414;}.cls-21{fill:#474747;}.cls-22{fill:#727272;}.cls-23{fill:#515151;}.cls-24{fill:#878787;}.cls-25{fill:#494949;}.cls-26{fill:#232323;}.cls-27{fill:#222;}.cls-28{fill:#aeaeac;}.cls-29{fill:#252525;}.cls-30{fill:#616161;}.cls-31{fill:#a7a7a7;}.cls-32{fill:#3e3e3e;}.cls-33{fill:#393939;}.cls-34{fill:#8b1d16;}.cls-35{fill:#343434;}.cls-36{fill:#3c3534;}.cls-37{fill:#332f2f;}.cls-38{fill:#8e4341;}.cls-39{fill:#611e1e;}.cls-40{fill:#bdbdbd;}.cls-41{fill:#3a3a3a;}.cls-42{fill:#9e9e9e;}.cls-43{fill:#414141;}.cls-44{fill:#afafaf;}.cls-45{fill:#777575;}.cls-46{fill:#9b9898;}.cls-47{fill:#6b6b6b;}.cls-48{fill:#837c7b;}.cls-49{fill:#242222;}.cls-50{fill:#b9b9b9;}.cls-51{fill:#b0b0b0;}.cls-52{fill:#909090;}.cls-53{fill:#473d3c;}.cls-54{fill:#a6a6a6;}.cls-55{fill:#3b3b3b;}.cls-56{fill:#1f1f1f;}.cls-57{fill:#585858;}.cls-58{fill:#525252;}.cls-59{fill:#a0a09f;}.cls-60{fill:#838383;}.cls-61{fill:#803830;}.cls-62{fill:#954443;}.cls-63{fill:#d00000;}.cls-64{fill:#8a0000;}.cls-65{fill:#e30000;}.cls-66{fill:#be0000;}.cls-67{fill:#a80000;}.cls-68{fill:#8e8d8d;}.cls-69{fill:#bbb;}.cls-70{fill:#c1c1ba;}.cls-71{fill:#e0e0d6;}.cls-72{fill:#c3c3c0;}.cls-73{fill:#bbbbb6;}.cls-74{fill:#cecece;}.cls-75{fill:#262626;}.cls-76{fill:#656565;}.cls-77{fill:#090909;}.cls-78{fill:#4a4a4a;}.cls-79{fill:#d6d6d6;}.cls-80{fill:#454545;}.cls-81{fill:#777;}.cls-82{fill:#4d4d4d;}.cls-83{fill:#d7d7d7;}.cls-84{fill:#c9c9c9;}.cls-85{fill:#a0a0a0;}.cls-86{fill:#dcdbd4;}.cls-87{fill:#6c6c6c;}.cls-88{fill:#2b2b2b;}.cls-89{fill:#7b7b7b;}.cls-90{fill:#646464;}.cls-91{fill:#6d6463;}.cls-92{fill:#b90904;}.cls-93{fill:#8b2823;}.cls-94{fill:#575757;}.cls-95{fill:#932a1d;}.cls-96{fill:#704b45;}.cls-97{fill:#614a4a;}.cls-98{fill:#592d23;}.cls-99{fill:#e0e0e0;}.cls-100{fill:gray;}.cls-101{fill:#0f0f0f;}.cls-102{fill:#8e3a31;}.cls-103{fill:#c6c7c6;}.cls-104{fill:#2a2a2a;}.cls-105{fill:#020202;}.cls-106{fill:#63170e;}.cls-107{fill:#74100e;}.cls-108{fill:#88271e;}.cls-109{fill:#4a2a28;}.cls-110{fill:#a09a99;}.cls-111{fill:#b3a5a5;}.cls-112{fill:#dddcd6;}.cls-113{fill:#ee6537;}.cls-114{fill:#434343;}.cls-115{fill:#1e1e1e;}.cls-116{fill:#a42c1d;}.cls-117{fill:#797878;}.cls-118{fill:#8b8a8a;}.cls-119{fill:#2e2d2d;}.cls-120{fill:#b3b3b3;}.cls-121{fill:#2e2726;}.cls-122{fill:#270705;}.cls-123{fill:#190605;}.cls-124{fill:#772921;}.cls-125{fill:#99807a;}.cls-126{fill:#605e5d;}.cls-127{fill:#919090;}.cls-128{fill:#333;}.cls-129{fill:#565454;}.cls-130{fill:#adacac;}.cls-131{fill:#161616;}.cls-132{fill:#3d3d3d;}.cls-133{fill:#2f2a29;}</style></defs><title>여과기_1</title><g id="레이어_2" data-name="레이어 2"><g id="레이어_1-2" data-name="레이어 1"><rect class="cls-1" width="74" height="74" rx="8.33" ry="8.33"/><path class="cls-2" d="M46.61,49.18l-1.2,1.67a1.89,1.89,0,0,1-.18,1.1,4.19,4.19,0,0,1-.71.92c-.73.8-1.18,1.9-2.37,2.22-1.18.09-2.38.34-3.49-.34-1-1.92.74-3,1.41-4.39.81-.46,1.22-1.38,2-1.81a6.6,6.6,0,0,1,2.34-.24C45.28,48.35,46.11,48.34,46.61,49.18Z"/><path class="cls-3" d="M41.38,11.78l0-.65c2.19.91,1.41,3,1.58,4.54.15,1.34-.42,2.73-.35,4.13a31,31,0,0,1,6.88,5.61,2.68,2.68,0,0,1-.18,1.19c-.36.74-.6,1.63-1.75,1.3a1.84,1.84,0,0,1-.68-1c-.6-2-2.62-2.54-4-3.75-.68-.93-2.09-.7-2.75-1.68a57.74,57.74,0,0,0,.4-7.66A2.21,2.21,0,0,1,41.38,11.78Z"/><path class="cls-4" d="M41.38,11.78c0,3.27.3,6.55-.59,9.76a.51.51,0,0,1,.15.48q-.06.24-.12.24c-1.76,1.3-3.35-.88-5.08-.23a3.81,3.81,0,0,1-2.26-.84,1.49,1.49,0,0,1-.78-.89c0-.18.07-.36.1-.55a1.16,1.16,0,0,1,.53-.95c.89-.62,1.86.07,2.77-.18.52-.27.89-.79,1.5-.9,2,.53,2.31-.76,2.36-2.28.08-1.11-.18-2.25.32-3.32a1.21,1.21,0,0,1,.7-.49C41.12,11.68,41.25,11.72,41.38,11.78Z"/><path class="cls-5" d="M30.39,50.78c-2.17-2.83-1.24-7.31-5-9.32a2.5,2.5,0,0,1-1.27-2.11.89.89,0,0,1,.71-.28,2.16,2.16,0,0,1,1.06.52c1,1.09,2,1.12,2.9-.08a2.37,2.37,0,0,1,1.05-.58,1.88,1.88,0,0,1,1.19.18,4.72,4.72,0,0,1,1.44,1.41,2.23,2.23,0,0,1,.14.81A2.5,2.5,0,0,1,31.5,43c-2,.88-2,2.26-1,3.91.42.85,1.35,1.34,1.62,2.3s0,1.72-1.05,2A.92.92,0,0,1,30.39,50.78Z"/><path class="cls-6" d="M42.63,19.8c-1.36-.72-.46-1.95-.63-2.92-.33-1.9.51-3.93-.6-5.75.34-1.17.88-1.15,1.52-.23C44.57,13.27,44.44,17.05,42.63,19.8Z"/><path class="cls-7" d="M40.82,65.87h-4.6c-.32-.31-.95-.47-.56-1.12l1.73-.64a3.27,3.27,0,0,1,3-1.51c1.3.26,2.78-.22,3.85,1l1.69.07a.69.69,0,0,1,0,1.09h-.57C43.93,65.24,42.33,65.36,40.82,65.87Z"/><path class="cls-8" d="M44.29,63.56l-4.11-.06c.61-1-.51-2.12.32-3.07.75-.06,1.49,0,2.16,0a6.31,6.31,0,0,1-2.49-.24.84.84,0,0,1,.06-.84,2.21,2.21,0,0,1,1.69-.63c1.41,0,2.82,0,4.23,0,.75,0,1.53-.33,2.24.18.74,1.37-.46,1.44-1.21,1.82l0,.53c-.5,1.33-2,1.06-2.88,1.83C44.28,63.19,44.28,63.37,44.29,63.56Z"/><path class="cls-9" d="M40.15,60.76c.35.14.69.3,1.05.42.58.19,1.56-.1,1.55.85,0,.8-.89.83-1.53,1a7.33,7.33,0,0,0-1,.46l-2.79.61-1.23-.59c-.15-.71.46-1.42-.17-2.15-1-1.13-.29-1.88.75-2.47A3.67,3.67,0,0,1,38,58.7a4.27,4.27,0,0,1,1.77.24,1.43,1.43,0,0,1,.59.67c-.08.14-.15.29-.22.44-.53.61-1.23.25-1.86.34C38.91,60.52,39.63,60.13,40.15,60.76Z"/><path class="cls-10" d="M48.92,25.92l.59-.51c1.46.57,1.12,1.86,1.12,3,0,5,0,10,0,15-.5.95-.19,2-.24,3s-.23,1.45-1.23,1.38a1.08,1.08,0,0,1-.61-.66c0-1.64.14-3.29.15-4.93.06-.83.57-1.58.41-2.44A4.84,4.84,0,0,1,48.89,38a9.22,9.22,0,0,0,.3-2.91V30.48c0-1.15,0-2.31,0-3.46,0-.25-.11-.49-.18-.73S48.93,26.05,48.92,25.92Z"/><path class="cls-11" d="M32.7,20.3l1,0c.92,1.37-.35,2-1,2.79-1.16.57-1.77,1.37-1.1,2.69a3,3,0,0,1,0,.85,15,15,0,0,1-1.56,3.25c-.27.59-.7,1.41-1.63.63-.08-1.5.07-3-.06-4.49a3.51,3.51,0,0,1,2.1-3.88Z"/><path class="cls-12" d="M36.9,59.6c-.77.56-1.08,1,.11,1.5.67.24,1.8.24,1.71,1.16-.1,1.13-1.44.48-2.09,1-.15.11-.32.21-.47.31l-3.33,0a.55.55,0,0,1-.23-.44c0-.18,0-.27.07-.27a3.75,3.75,0,0,0,1.15-2.14,1.8,1.8,0,0,1,2.09-1.76A1.37,1.37,0,0,1,36.9,59.6Z"/><path class="cls-13" d="M28,60.17c.08-2.34-.31-4.68.06-7,.24-1.52.86-2.25,2.32-2.35l.13.22a1,1,0,0,1,.24.63,2.75,2.75,0,0,1-.3,1,5.81,5.81,0,0,1-.53.94,5.32,5.32,0,0,0-.35,2.56v.8c0,.69,0,1.37,0,2.06-.23,1.1.68,2.26-.19,3.32l-.76.1C27.83,61.85,27.37,61.17,28,60.17Z"/><path class="cls-14" d="M44.26,52l.59-.58a13.54,13.54,0,0,0,2.88.6c.18,1.06,1.4,1.7,1.19,2.91.26.62-.05,1-.53,1.35a1.55,1.55,0,0,1-.8,0,12.64,12.64,0,0,1-2-1.42C44.42,54.29,43.25,53.67,44.26,52Z"/><path class="cls-15" d="M24.69,39.36h-.57c-.76-2.2-1.51-4.4.54-6.36a2.22,2.22,0,0,1,1.51,1,2.43,2.43,0,0,1,.21.71,6.75,6.75,0,0,1-.11,1.42c-.17.73.5,1.32.34,2.05a1.61,1.61,0,0,1-.46.6A6.47,6.47,0,0,1,24.69,39.36Z"/><path class="cls-16" d="M33.31,9.93l.56-.63a6,6,0,0,1,5.2-.45c.59,1,1.71,1.56,1.91,2.78l-.26.1a1.11,1.11,0,0,1-.77.2c-1.79-.94-3.59-1.59-5.44-.09a1.28,1.28,0,0,1-1.4-.71A1.17,1.17,0,0,1,33.31,9.93Z"/><path class="cls-17" d="M28.15,16.88A6.55,6.55,0,0,1,27.58,10a2.67,2.67,0,0,1,1.35,1.58,5.6,5.6,0,0,1,.31,1.62,4.19,4.19,0,0,0,.86,2.52,1.38,1.38,0,0,1-1.2,1.46A1,1,0,0,1,28.15,16.88Z"/><path class="cls-18" d="M28.12,31.82a1.31,1.31,0,0,0,.07-.44.81.81,0,0,1,.69-.42c1.07-.59,2.14-1.11,3.28-.09a1.68,1.68,0,0,1,.16,2.65c-.81.85-1.07,3.17-3,1.13,0-1-.83-1.48-1.39-2.13A.7.7,0,0,1,28.12,31.82Z"/><path class="cls-19" d="M48.93,47.52c2.19-.74.47-3,1.66-4.17.12,4.95-.19,5.41-4,5.83L44.37,49c.05-1.52,1.31-1.12,2.17-1.35A4.07,4.07,0,0,1,48.93,47.52Z"/><path class="cls-20" d="M48.28,56c.22-.35.43-.71.64-1.07.68-.72,1.35-.89,1.43.34a18,18,0,0,1-.28,3.09,1.13,1.13,0,0,1-1.12.36,2.32,2.32,0,0,1-1.46-1.39C47.35,56.67,47.86,56.37,48.28,56Z"/><path class="cls-21" d="M28.68,31.26a2.92,2.92,0,0,0-.49.12c0-2.09,0-4.19-.05-6.28,0-1.63.59-2.78,2.37-3-2.81,2.42-1.58,5.66-1.76,8.61.2.14.25.27.17.38A.31.31,0,0,1,28.68,31.26Z"/><path class="cls-21" d="M33.33,19.24l-.53.51a4.25,4.25,0,0,1-3.54-1.09c0-.11.11-.23.17-.34a1.92,1.92,0,0,1,.62-.43,3.14,3.14,0,0,0,2-.84,1.82,1.82,0,0,1,1.5-.52,1.16,1.16,0,0,1,.69.5C34.74,18.09,34.11,18.7,33.33,19.24Z"/><path class="cls-4" d="M44.27,63c.73-1,1.43-2,2.88-1.83.36.29,2.22-.25.68,1.1C46.84,63.15,45.53,63.08,44.27,63Z"/><path class="cls-20" d="M49,58.38h1.12c.76,2.94-1.46,2.09-2.89,2.27.42-.53,1.09-.87,1.16-1.64A.64.64,0,0,1,49,58.38Z"/><path class="cls-22" d="M28.14,11.64c-.18-.55-.37-1.11-.56-1.67l1.13-1.18c.74-.4,1.55-.54,1.92.35.48,1.12-.6,1.64-1.2,2.33A1.14,1.14,0,0,1,28.14,11.64Z"/><path class="cls-23" d="M28.76,11.16c-.46-.78,3.3-1.65-.05-2.37C30.34,7.57,31,8.72,31.6,10a1,1,0,0,1-.36,1.35A2,2,0,0,1,28.76,11.16Z"/><path class="cls-24" d="M25.8,34.14c-.74,0-1-.48-1.14-1.15.44-.61.87-1.23,1.76-1.09.48.65,1.46.5,1.92,1.19a1.15,1.15,0,0,1-.18.77A2.19,2.19,0,0,1,25.8,34.14Z"/><path class="cls-25" d="M47.73,52c-1.08.4-2.27,1.27-2.88-.6l.56-.58A3.63,3.63,0,0,1,47.73,52Z"/><path class="cls-26" d="M40.82,65.87a6.71,6.71,0,0,1,4.62-1.14A6.74,6.74,0,0,1,40.82,65.87Z"/><path class="cls-9" d="M39.07,8.85a13.43,13.43,0,0,0-5.2.45C35.48,7.75,37.24,7.85,39.07,8.85Z"/><path class="cls-26" d="M35.66,64.75c.19.37.37.75.56,1.12-.81-.09-1.69.28-2.48-.5C34.18,64.52,35,64.82,35.66,64.75Z"/><path class="cls-27" d="M32.14,63.68c.46,1.07-.28,1.07-1,1s-1.39-.25-.68-1.18A1,1,0,0,1,32.14,63.68Z"/><path class="cls-28" d="M29.43,62.32c-.15-1.15-1.13-2.11-.77-3.38,1.22-.41,1.36.69,1.84,1.31a2.19,2.19,0,0,1,.33,1.65c-.19.41-.44.73-1,.56A.81.81,0,0,0,29.43,62.32Z"/><path class="cls-13" d="M29.86,62.46l.6-.55a.74.74,0,0,1,.64-.35,1.88,1.88,0,0,1,1.57,1.53c0,.14.11.27.16.41l-.69.18-1.64-.16C30.29,63.17,30.08,62.81,29.86,62.46Z"/><path class="cls-29" d="M28,60.17l.66,2.25C27.35,62,26.15,61.53,28,60.17Z"/><path class="cls-30" d="M31.06,11l.54-1a1.36,1.36,0,0,0,1.71,0c0,.4,0,.81,0,1.21l-.18.36a1.55,1.55,0,0,1-1.06.51A1.06,1.06,0,0,1,31.06,11Z"/><path class="cls-31" d="M28.05,33.07c-.61-.29-2,.52-1.63-1.17l1.7-.08,0,.63A.38.38,0,0,1,28.05,33.07Z"/><path class="cls-5" d="M28.15,16.88h.59c1.27.12,1,.84.64,1.62l-.12.17A2.1,2.1,0,0,1,28.15,16.88Z"/><path class="cls-26" d="M46,64.72l0-1.09c.43,0,1.1-.16,1.17.3C47.26,64.65,46.51,64.61,46,64.72Z"/><path class="cls-32" d="M38.68,54.27l3.87.06a6.11,6.11,0,0,1,3.51.33c.39.48.91.91.53,1.63a1.94,1.94,0,0,1-1.25.61,10.4,10.4,0,0,1-4.12-.14c-.79-1.23-3.2-.36-3.3-2.51A.65.65,0,0,1,38.68,54.27Z"/><path class="cls-33" d="M38.68,54.27l-.74.08a.56.56,0,0,1-.78-.07c-.82-2.06.7-3.3,1.67-4.73a1.62,1.62,0,0,1,.86-.24c.83.2,1.38.6,1.14,1.57Z"/><path class="cls-34" d="M47.13,48.52c-.93.15-1.92-.06-2.77.51l-2.42.2a1.54,1.54,0,0,1-1.9.22.79.79,0,0,1-.58-.56,1.29,1.29,0,0,1,.3-.84,2.64,2.64,0,0,1,1.66-.84,26.3,26.3,0,0,1,3.66,0C46,47.24,47.07,47.13,47.13,48.52Z"/><path class="cls-35" d="M46,54.92c-1.16-.12-2.42.36-3.44-.59.47-.85.78-1.81,1.71-2.31-.26,1.8,1.62,1.54,2.33,2.41A.9.9,0,0,1,46,54.92Z"/><path class="cls-36" d="M39.62,49.28l2.32-.05a1.78,1.78,0,0,1-1.11,1.65l-1.12-1.14q-.3-.1-.24-.27C39.52,49.35,39.57,49.28,39.62,49.28Z"/><path class="cls-37" d="M43.13,22.64c1.89.94,4.61.94,4.6,4-.47.74-.87,1.56-1.79,1.86a5.92,5.92,0,0,1-1.32.14,7.61,7.61,0,0,1-3-.29c-1.52-1-.62-3.05-2-4.2-.44-.37.46-1.07,1-1.41l.63-.47A1.62,1.62,0,0,1,43.13,22.64Z"/><path class="cls-38" d="M49.53,38.19,50,39.35a1,1,0,0,1-1.3.1,1.93,1.93,0,0,1-.51-.77c-.43-2.1.28-4.31-.63-6.37a5.43,5.43,0,0,1-.61-1.79c0-1-.18-2,.84-2.66l1.14-1.93a1.84,1.84,0,0,0,.25.23c.51,2.05.27,4.17.59,6.23v2.92C49.67,36.27,50,37.26,49.53,38.19Z"/><path class="cls-39" d="M47.78,27.86l-.07,2.83c-.24.56-.59.92-1.26.63-.77-1.1,0-2.39-.45-3.54l1.73-1.1C47.75,27.07,47.76,27.46,47.78,27.86Z"/><path class="cls-9" d="M43.13,22.64c-.57.51-1.15,0-1.73,0-.5.19-.64-.05-.61-.5v-.6C41.51,22,43.25,20.37,43.13,22.64Z"/><path class="cls-40" d="M32.13,22.37c.33-.85,1.5-1.06,1.59-2.1l1.8.87c1.08.66,3.07-.27,3.28,1.88a1.62,1.62,0,0,1-1.37,1,7.38,7.38,0,0,0-2.32.73,4.38,4.38,0,0,0-3.37,1.51.71.71,0,0,1-.72-.16,1.17,1.17,0,0,1-.08-.36C29.86,24.1,31.46,23.4,32.13,22.37Z"/><path class="cls-22" d="M40.78,15.65c0,.39,0,.77-.05,1.15-.31,2.61-1.46,3-3.36,1.23a10.39,10.39,0,0,1-2-3.53,1.32,1.32,0,0,1,.32-.78,2,2,0,0,1,2-.27c1,.27.94,1.66,2,2a3.19,3.19,0,0,1,.62,0A1.06,1.06,0,0,1,40.78,15.65Z"/><path class="cls-41" d="M33.33,19.24a4.22,4.22,0,0,0,.49-2.51.87.87,0,0,1,0-.74,1.14,1.14,0,0,1,1-.55,1.48,1.48,0,0,1,.7.31c.38.81,1.45,1.1,1.59,2.09,0,.65.19,1.34-.26,1.94C35.5,20.53,34.59,18.79,33.33,19.24Z"/><path class="cls-42" d="M38.47,23.16c-.32-1.64-2.3-.85-2.95-2,1.92-.54,3.48.86,5.27,1,.21.16.41.33.61.5a1.89,1.89,0,0,0-.1.41c-.51.84-1.4.31-2.07.59A1.29,1.29,0,0,1,38.47,23.16Z"/><path class="cls-43" d="M35.14,15.77l-.6,0c-.52-1.21-.11-1.58,1.1-1.21,1.67.62,1.82,2,1.73,3.5a2.06,2.06,0,0,1-.56,1.75c0-.82-.07-1.64-.11-2.46C36.16,16.83,35.64,16.3,35.14,15.77Z"/><path class="cls-44" d="M40.78,15.65a2.27,2.27,0,0,1-.52.09c-1.26-1.41-1.4-2.79.07-4.14a1.28,1.28,0,0,1,.39.13Z"/><path class="cls-45" d="M29.75,47.49c-1.76-3.33-1.6-4,1.29-5.19.31.48.38,1.12,1.32.9s1.91-.48,2.65.48a5.19,5.19,0,0,1,.08,3.5,2.25,2.25,0,0,1-.56.67C32.85,49,31.35,47.51,29.75,47.49Z"/><path class="cls-46" d="M33.84,47.55l.48-.11a1.57,1.57,0,0,1,1,.41,3.85,3.85,0,0,1,.51.56,3.08,3.08,0,0,1,.44,1A5.72,5.72,0,0,1,35.94,52a10.49,10.49,0,0,1,0,2.17,1.09,1.09,0,0,1-.53.53c-1.78.42-2-1.43-3.06-2.07-.7-.34-1.62-.34-2-1.23a1.26,1.26,0,0,1,.15-.38c1.07-.18,1-1,1.08-1.81a.64.64,0,0,1-.21-.62c.48-.74,1.29-.38,1.92-.6A3.49,3.49,0,0,0,33.84,47.55Z"/><path class="cls-47" d="M29.78,34.26c1.91,1.32.75-1.45,1.77-1.32a.58.58,0,0,1,.79,0,1.57,1.57,0,0,1,.3.81c-.38,1.81.25,3.85-1.28,5.38l-.41.17-.91.14c-.79-.41-1.38.13-2,.45a2.24,2.24,0,0,1-1.63-.13,1.3,1.3,0,0,1-.65-1.51l.71-.07c.33-1.38,2-1.94,2.13-3.43a1.93,1.93,0,0,1,.5-.6A.56.56,0,0,1,29.78,34.26Z"/><path class="cls-48" d="M34.36,43.39c-1.24,2-2.85.3-4.33.52l1-1.61,1.15-1.18c.65-1.18,1.5-1.46,2.61-.59C35.38,41.59,35.47,42.59,34.36,43.39Z"/><path class="cls-49" d="M32.16,33.54c0-.14.08-.28.13-.43a1.52,1.52,0,0,1,1.05-.62,1.39,1.39,0,0,1,1.14.42,1.15,1.15,0,0,1,.16.79c-.94.95-1.39,1.88.11,2.74A1.83,1.83,0,0,1,35,38a2.07,2.07,0,0,1-.38.7A16.49,16.49,0,0,1,32.77,40a3.14,3.14,0,0,1-.6.43C30.25,41.69,31.06,40,31,39.31l.1,0C32.25,37.58,31.59,35.44,32.16,33.54Z"/><path class="cls-50" d="M26.45,39.34l1.65,0c.78-.33,1.35-.27,1.38.76-1.45,2.46-2.88,2-4.29,0C25.12,38.9,25.73,39,26.45,39.34Z"/><path class="cls-51" d="M31.65,48.48l0,.71-1.85-1.7c.2-.75.6-1.29,1.4-.73a5.75,5.75,0,0,0,2.69.79c0,.16,0,.32,0,.47C33.27,48.83,32.33,48,31.65,48.48Z"/><path class="cls-52" d="M29.48,40.06,28.1,39.3c.28-.9.88-1.59,1.81-1.33.74.21,0,1,.13,1.48C29.85,39.65,29.66,39.85,29.48,40.06Z"/><path class="cls-53" d="M32.17,40.44l0-.46a7.37,7.37,0,0,0,1.74-1.74l.43,0a1,1,0,0,1,.57.4,1.87,1.87,0,0,1,.19.7A1.71,1.71,0,0,1,35,40a1.1,1.1,0,0,1-.56.44,4,4,0,0,0-2.22.68C32.18,40.9,32.18,40.67,32.17,40.44Z"/><path class="cls-54" d="M26.45,39.34,25.19,40l-.5-.66c.12-.58.33-1.09,1-1.1C26,38.62,26.21,39,26.45,39.34Z"/><path class="cls-55" d="M46.6,59.52l-4.66,0c-.47-.59-1.77-.75-1-2,1.68-1.29,3.45.24,5.16-.16a1.35,1.35,0,0,1,.76.47A1.41,1.41,0,0,1,46.6,59.52Z"/><path class="cls-56" d="M40.15,60.76l-1.58-.18v-.34l1.58-.19h4.46v.71Z"/><path class="cls-57" d="M46.6,59.52l0-1.74c0-.91.52-1,1.19-.56L49,58.38l-.61.63Z"/><path class="cls-58" d="M40.8,57.83c.43.52,1.14.85,1.14,1.66l-1.57.12-.74-.09c-.62-.55-1.87-.81-.92-2.06A1.51,1.51,0,0,1,40.8,57.83Z"/><path class="cls-59" d="M36.9,59.6l-1.33-.1c-1-.56-2.32-.85-2.57-2.3a1.68,1.68,0,0,1,.69-1.45,2.1,2.1,0,0,1,.79-.29,2,2,0,0,1,1.2.3,2.53,2.53,0,0,1,.54.59c.18,1.26,2,1.63,1.71,3.17Z"/><path class="cls-60" d="M37.93,59.52c-.51-1.21-3.15-.67-2.4-2.91a7.86,7.86,0,0,1,2.53.6,1.43,1.43,0,0,1,.46.6l1.11,1.71Z"/><path class="cls-61" d="M47.13,48.52c-2-1.06-4.2-.31-6.3-.49a2.58,2.58,0,0,1-2.34.14,1.2,1.2,0,0,1-.14-1.36c1.6-1.39,3.35.12,5-.25a8.32,8.32,0,0,0,1.8-.17A5,5,0,0,1,47.36,46a1.75,1.75,0,0,1,1.55.85c0,.21,0,.42,0,.63Z"/><path class="cls-62" d="M48.91,46.89l-1.79,0a.92.92,0,0,1-.17-.75c1.14-1.29.73-3,1.28-4.47a1.9,1.9,0,0,1,.53-.63c.49-.1.83,0,.78.59C49.26,43.36,50,45.23,48.91,46.89Z"/><path class="cls-63" d="M49.51,32.49a17.08,17.08,0,0,1-.34-6.33,1.17,1.17,0,0,1,.32,0c.7,1.23-.14,2.67.52,3.9v2.33C49.87,32.75,49.71,32.78,49.51,32.49Z"/><path class="cls-64" d="M49.54,41.61,49,40.94A.94.94,0,0,1,49,39.36h1C50,40.14,50.17,41,49.54,41.61Z"/><path class="cls-65" d="M50,30.1c-.91-1.2-.39-2.6-.52-3.9C50.67,27.37,49.9,28.79,50,30.1Z"/><path class="cls-66" d="M49.51,32.49a4,4,0,0,1,.5-.06c0,1,0,1.92,0,2.88-.11.31-.26.35-.45.06Z"/><path class="cls-67" d="M49.54,35.37a3.4,3.4,0,0,1,.46-.06c0,1,.27,2-.47,2.88C49.54,37.25,49.54,36.31,49.54,35.37Z"/><path class="cls-68" d="M33.3,32.83l-1,.28-.74-.17c.55-.47.87-.79.07-1.49-1-.87-2-.12-2.94-.19a5,5,0,0,1,.07-.54c.65-1.59.82-3.42,2.27-4.61l.53,0a5.05,5.05,0,0,1,3.15-.48c1.46.47,1.45-1.05,2.16-1.61a1.77,1.77,0,0,1,1.26-.12,1.92,1.92,0,0,1,1.29,1.22c0,2.52-1.74,3-3.76,3-1.3.36-.38,1.23-.36,1.82C35.36,31.47,34.91,32.52,33.3,32.83Z"/><path class="cls-69" d="M32.13,22.37c-.38,1.13-1.29,2.08-1.19,3.38C28.44,23.61,31.31,23.35,32.13,22.37Z"/><path class="cls-70" d="M33.42,57.2a6.25,6.25,0,0,1,2.15,2.3c-.55.19-1.17.52-.92,1.14.84,2.1-.4,2.38-2,2.45a2.09,2.09,0,0,1-1.75-1.19c.19-.49.52-1,.28-1.54a2.61,2.61,0,0,1,.19-2.1A9.47,9.47,0,0,1,32.76,57,.61.61,0,0,1,33.42,57.2Z"/><path class="cls-71" d="M34.46,56l-.53.09c-1.47,1-2.63.17-3.81-.61-.67-.84-1.38-1.67-.82-2.86l.58-.59c1.4-.25,3-1.06,3.56,1.18a3.39,3.39,0,0,0,1.26,1.42C35.58,55.23,35.13,55.66,34.46,56Z"/><path class="cls-72" d="M30.44,54.94c1.24.15,2.14,1.33,3.49,1.16-.17.37-.34.74-.52,1.1l-.68,0a4.65,4.65,0,0,1-2.92.89c-.86-.12-.66-1-1.08-1.47l0-.59C29.23,55.61,29.63,55,30.44,54.94Z"/><path class="cls-73" d="M28.73,56.66l1.14,1.15c.64,0,1.34-.12,1.72.62,0,.56.51,1.13,0,1.7s-1.09.63-1.76.57c-.39-.58-.78-1.17-1.16-1.76C28.68,58.18,28.71,57.42,28.73,56.66Z"/><path class="cls-73" d="M30.44,54.94c-.15,1-.91,1.14-1.74,1.13.05-1.17-.56-2.46.6-3.44C29.29,53.59,30.05,54.17,30.44,54.94Z"/><path class="cls-74" d="M33.34,53.76A3,3,0,0,0,29.88,52c-.07-.39.18-.55.49-.66l2.95.13A2.12,2.12,0,0,1,33.34,53.76Z"/><path class="cls-75" d="M47.75,57.22l-1.19.56-.55,0c-.58.38-1.09.34-1.34-.37s.27-1,.77-1.34L46.63,56a.72.72,0,0,1,1,0l.62,0C48.11,56.42,47.93,56.82,47.75,57.22Z"/><path class="cls-76" d="M47.66,56l-1,0c-.21-.37-.42-.74-.64-1.11l.6-.49C47,54.9,47.76,55.15,47.66,56Z"/><path class="cls-77" d="M25.19,35.81l.63-1.08C27,33.49,28.06,33.46,29,35c.28,2-1.31,2.1-2.56,2.31C25.46,37.48,24.67,37.08,25.19,35.81Z"/><path class="cls-56" d="M25.19,35.81c1.57,1.59,2.56,1.31,3.5-1,.18-.24.35-.23.53,0,.66,2.43-1.43,2.58-2.77,3.37C25.7,37.57,24.21,37.35,25.19,35.81Z"/><path class="cls-78" d="M29.22,34.82l-.27,0-.26,0a2.29,2.29,0,0,0-2.87-.09c0-.2,0-.4,0-.59.66-.76,1.52-.64,2.37-.57.65-.21,1,.1,1.1.71A4.93,4.93,0,0,0,29.22,34.82Z"/><path class="cls-79" d="M40.33,11.6c0,1.38,0,2.76-.07,4.14h0c-1.86.92-1.67-1-2.38-1.71l-2.15-.23a1.54,1.54,0,0,1-1.27-1.74l.06-.39C35.49,8.78,37.77,8.75,40.33,11.6Z"/><path class="cls-80" d="M33.35,11.14l1.17.53h0c.38,1.16.65,2.25-1.26,1.87a1.67,1.67,0,0,1,.11-2.41Z"/><path class="cls-27" d="M31.06,11l1.06.74a1.31,1.31,0,0,1,.46,1.32c-1.58,2.75-2.91,2.86-4.44.37v-1.8l.62-.48C29.52,11,30.27,10.61,31.06,11Z"/><path class="cls-81" d="M29.38,18.49c-.21-.54-.42-1.08-.64-1.62l1.19-1.12a1.23,1.23,0,0,1,1.64-.84,1.56,1.56,0,0,1,.52.62,2,2,0,0,1-1.47,2.54,3.64,3.64,0,0,0-.67.43h-.28Z"/><path class="cls-82" d="M31.54,15.1l-1.61.65c-1.39-.16-1.82-1.06-1.79-2.31,1.68,2,2.88.94,4-.62a1.3,1.3,0,0,1,.52.59,1.64,1.64,0,0,1-.11,1.17A1.11,1.11,0,0,1,31.54,15.1Z"/><path class="cls-83" d="M29.27,34.28l-1.1-.71a1.41,1.41,0,0,0-.12-.5c0-.21.07-.41.1-.62,1,.17,2.92-.44,1.63,1.81l-.26,0Z"/><path class="cls-84" d="M29.94,18c.54-.76,1.84-.9,1.76-2.17,1.16-.71,1.58-.22,1.56,1L32.73,18A2.76,2.76,0,0,1,29.94,18Z"/><path class="cls-85" d="M33.26,16.77a1.52,1.52,0,0,0-1.56-1c-.06-.24-.11-.47-.16-.7l.54-.68c.52-.51,1.12-.81,1.7-.19a1.44,1.44,0,0,1,.08,2,1.23,1.23,0,0,0,0,.47l-.28.07Z"/><path class="cls-85" d="M29.94,18l2.79,0c-.78,1-1.81.58-2.78.49A3.13,3.13,0,0,1,29.94,18Z"/><path class="cls-86" d="M29.82,60.7a1.92,1.92,0,0,1,1.76-.57l1.89,1.2c-.84.86-1.77.36-2.55.57h-.46Z"/><path class="cls-87" d="M32.29,13.43c0-.2-.09-.41-.14-.61l0-1.07,1.24-.63,0,2.27A.72.72,0,0,1,32.29,13.43Z"/><path class="cls-88" d="M45.44,56.1c-.37.76-.68,1.5.57,1.71-1.73,1.39-3.47-.39-5.21,0l-2.28,0-.43-.11c-.39-1.08.33-1.58,1.08-2.06a1.58,1.58,0,0,1,1.6.39Z"/><path class="cls-89" d="M40.77,56l-1.57.15a2.2,2.2,0,0,1-1.7.4c-.85-.54-1.85-.95-1.92-2.18v-.59c.81-.53,1.27.07,1.77.54a3.74,3.74,0,0,0,.58,0C38.55,55.46,40.76,53.9,40.77,56Z"/><path class="cls-90" d="M37.36,54.35l-1.77-.54C34.93,53.36,34.05,53,35,52c1.34-.74,1.41-3.71,4-2.28Z"/><path class="cls-91" d="M39,49.75c-1.81-.08-2.27,2.18-4,2.28.25-1,.49-1.9.73-2.84,1.29-1.32,2.58-.78,3.87,0v.12c0,.16.05.31.08.46Z"/><path class="cls-92" d="M38.58,47.92l2.25.11-1.18.55a8.05,8.05,0,0,1-4.46,0L35,48.46a1.07,1.07,0,0,1-.11-1.15,1.8,1.8,0,0,1,1.34-.89C37.44,46.29,38,47.18,38.58,47.92Z"/><path class="cls-93" d="M35.19,48.62l4.46,0c0,.19,0,.39,0,.58l-3.87,0Z"/><path class="cls-94" d="M39.09,25l-1.19-.58c-.24-1.15.84-.7,1.27-1.05l2.13-.28c-.28.4-.56.81-.85,1.21,2.16.67.86,2.32,1,3.55a3.27,3.27,0,0,1-3.23,1.32,1.91,1.91,0,0,1-.78-.39,1,1,0,0,1-.26-.78C38.09,27.13,39.83,26.83,39.09,25Z"/><path class="cls-95" d="M46,27.78c1.67.89.81,2.27.68,3.5.32,1.23-.81,1.56-1.39,2.25a2,2,0,0,1-1.17.34,1,1,0,0,1-.68-.4c-.54-1.83,1.15-3.21,1-5a2.15,2.15,0,0,1,.45-.66Z"/><path class="cls-96" d="M44.88,27.85a4.34,4.34,0,0,0-.09.52c-.92,1.38-2.4,1.42-3.82,1.6a13.44,13.44,0,0,1-2.36-.35c-.43-.26-.77-.58-.67-1.15l3.51-.66Z"/><path class="cls-85" d="M48.21,31.76c1.46,2.15.48,4.51.56,6.78-.65.45-1.1.1-1.53-.36a2.11,2.11,0,0,1-.3-.85,39.45,39.45,0,0,1,0-4.07A2.28,2.28,0,0,1,47.37,32,.8.8,0,0,1,48.21,31.76Z"/><path class="cls-97" d="M47.79,38.18l1,.36c.06.27.13.55.2.82,0,.52,0,1,.05,1.58-.05.24-.11.48-.16.72a.93.93,0,0,1-1.06.25,1.61,1.61,0,0,1-.55-.55c-1-1.68-3.38-.32-4.31-2.06a1.13,1.13,0,0,1,.21-.8,2.78,2.78,0,0,1,2.06-.57C46.07,38,47,37.68,47.79,38.18Z"/><path class="cls-98" d="M48.21,31.76a2.17,2.17,0,0,0-.41.19c-.55.39-.55,1.22-1.22,1.52a2.18,2.18,0,0,1-.8.15,1.27,1.27,0,0,1-1-.64c.64-.56,1.27-1.13,1.9-1.7l1-.59Z"/><path class="cls-99" d="M35,26.62c-1.17,0-2.41.39-3.47-.47.73-3,1.15-3.2,3.48-1.7C36.44,25.18,35.8,25.9,35,26.62Z"/><path class="cls-69" d="M35,26.62c.14-.72.49-1.44,0-2.17.18-1.07.94-1.25,1.86-1.19a1.27,1.27,0,0,1-.16,1.15C37.75,26.37,36.64,26.69,35,26.62Z"/><path class="cls-100" d="M36.73,24.41c-.5-.46-.09-.79.16-1.15l1.58-.1.7.17L37.9,24.38Z"/><path class="cls-16" d="M32.29,13.43l1.1,0c1-.14.94-1,1.12-1.73l1.21,2.14c0,.24,0,.49-.08.73a1.12,1.12,0,0,0-1.1,1.21l-.68.52c0-1.18-.13-2.25-1.78-1.84Z"/><path class="cls-44" d="M37.88,14c.87.46,1.16,1.73,2.38,1.71-.52,1.47-1.14,2.12-1.95.18A11.79,11.79,0,0,1,37.88,14Z"/><path class="cls-101" d="M35.14,15.77c1.15-.11,1.68.39,1.56,1.55C34.88,18.11,35.06,16.89,35.14,15.77Z"/><path class="cls-102" d="M35.1,47.48c0,.32-.05.65-.07,1l-.71-1c0-1.35,0-2.7,0-4,0-1,0-2,0-3,0-.17.05-.35.08-.52,2.27.72,1.19,2.64,1.4,4A4.5,4.5,0,0,1,35.1,47.48Z"/><path class="cls-72" d="M35.58,54.4c.49.6,1.7.44,1.68,1.59a1,1,0,0,1-1.59.11L34.46,56c.69-1.27-1-1.37-1.12-2.25s0-1.5,0-2.26C34.22,52.36,33.79,54.24,35.58,54.4Z"/><path class="cls-103" d="M31.65,48.48A3.11,3.11,0,0,1,33.88,48C33.46,49.79,32.42,48.46,31.65,48.48Z"/><path class="cls-104" d="M32.16,33.54c-.11,2,.58,4.13-1.11,5.82Z"/><path class="cls-96" d="M37.37,27.87c0,.18,0,.35,0,.53-1.17,1.35-1,3.45-2.52,4.59l-.38,0-1.12-.21c1.65-1.92,1.69-3.64-.78-5,.77-.89,1.67-.41,2.45-.54C35.69,27.84,36.69,27.18,37.37,27.87Z"/><path class="cls-105" d="M34.35,36.49c-.51.13-1.21,1.33-1.48.11s-.86-2.87,1.44-3C35.45,34.58,35.43,35.53,34.35,36.49Z"/><path class="cls-106" d="M34.35,36.49c0-1,0-1.89,0-2.84,0-.2.07-.41.11-.61h.11a3.51,3.51,0,0,1,0,5.75l-.12-.58C34.36,37.63,34.36,37.06,34.35,36.49Z"/><path class="cls-104" d="M33.94,38.24A1.91,1.91,0,0,1,32.2,40,3.33,3.33,0,0,1,33.94,38.24Z"/><path class="cls-107" d="M34.49,38.78a6.84,6.84,0,0,0,0-5.75A9.55,9.55,0,0,0,35,30.61c-.09-1.72.68-2.36,2.3-2.21l.62.07.66.63c0,1.43,1.41,2.38,1.27,3.85a1.5,1.5,0,0,1-.54.52,2.55,2.55,0,0,1-.72.19c-.54,0-1.14-.12-1.5.5-.34,1.86-.07,3.89-1.48,5.45a1.08,1.08,0,0,1-1.14-.26A2.72,2.72,0,0,1,34.49,38.78Z"/><path class="cls-108" d="M34.49,39.35l1.11.07a1.69,1.69,0,0,1,.86,1.52c0,.6,0,1.2,0,1.8-.09,1,.39,2,.39,3.07A1.89,1.89,0,0,1,36.24,47l-1.14.52c-.38-2.51.63-5.12-.61-7.56A2.72,2.72,0,0,1,34.49,39.35Z"/><path class="cls-4" d="M35.67,56.1,37.26,56l1.94.19L38.09,57.7a2.3,2.3,0,0,1-2.56-1.09A3.23,3.23,0,0,0,35.67,56.1Z"/><path class="cls-40" d="M43.73,47.38a10.85,10.85,0,0,1-5.12-.45,2.44,2.44,0,0,1-2.1-1.76,1.37,1.37,0,0,1,0-1.2,1.66,1.66,0,0,1,.63-.52,7.34,7.34,0,0,1,3.23-.17c1.43.37,1.88,1.9,3.06,2.57A1.31,1.31,0,0,1,43.73,47.38Z"/><path class="cls-97" d="M47.15,46.46l0,.41-1.74.45c-.55-.31-1.22-.46-1.46-1.16a2.41,2.41,0,0,1-.06-.8c.47-2,.79-4.23,3.73-3.89l.16.21A7.38,7.38,0,0,1,47.15,46.46Z"/><path class="cls-109" d="M36.77,45.18a3.81,3.81,0,0,1,1.84,1.75l0,1-2.34-1,0-1.31A.73.73,0,0,1,36.77,45.18Z"/><path class="cls-110" d="M44.25,46.3l1.13,1-1.65.05c-.2-.36-.41-.72-.62-1.08A.76.76,0,0,1,44.25,46.3Z"/><path class="cls-111" d="M47.15,46.46a4.18,4.18,0,0,1,.6-4.78l1.11,0C48.49,43.33,50.17,45.73,47.15,46.46Z"/><path class="cls-100" d="M37.37,27.87a4.19,4.19,0,0,1-2.4-.54c1.88.09,3.51-.26,4.12-2.37C40.35,26.58,40,27.14,37.37,27.87Z"/><path class="cls-112" d="M31.59,58.43a2.25,2.25,0,0,1-1.72-.62c.67-1.61,2-.12,2.86-.57C33.29,58.53,32.27,58.32,31.59,58.43Z"/><path class="cls-113" d="M40.76,29.15a11.37,11.37,0,0,1,4-.78c2,2.24-.85,3.37-1.14,5.09a1.16,1.16,0,0,1-.72.42,3.28,3.28,0,0,1-2.47-.66C40,31.82,37.24,30.25,40.76,29.15Z"/><path class="cls-114" d="M44.78,33l1.29.06a1.85,1.85,0,0,1,.34.67,3.26,3.26,0,0,0,.38,2.16l.17.36a2.34,2.34,0,0,1,.09.79c-.22,1-1,1.2-1.86,1.17a4.23,4.23,0,0,1-.79-.08,1.57,1.57,0,0,1-.88-.76,1.75,1.75,0,0,1-.13-.75,2.18,2.18,0,0,1,.22-.71,8.18,8.18,0,0,0,.6-2,3.38,3.38,0,0,1,.08-.34Z"/><path class="cls-115" d="M44.23,36.43a2.61,2.61,0,0,0-.55.08l-.4-.12a1.82,1.82,0,0,1-.5-2.63l.34-.26a3.23,3.23,0,0,0,.53,0l.64.08,0,.1A3,3,0,0,1,44.23,36.43Z"/><path class="cls-116" d="M40.76,29.15c-1.84,1.22-.48,2.49,0,3.75l-.08.28a.87.87,0,0,1-.55.14.59.59,0,0,1-.4-.38c-.69-1.19-2.58-2-1.08-3.84Z"/><path class="cls-87" d="M44.81,37.7c.78-.09,1.66,0,1.73-1.17a.66.66,0,0,1,.65-.19c.39.34.13,1,.55,1.29a2.5,2.5,0,0,1,0,.55,4,4,0,0,1-2.42.57c-.2-.23-.53-.29-.72-.53A.46.46,0,0,1,44.81,37.7Z"/><path class="cls-117" d="M47.11,36.51a5.43,5.43,0,0,0-.57,0h0a3.16,3.16,0,0,1,0-3.51c.3-.47.58-1,1.21-1.06L47.71,33C47,34.09,48,35.45,47.11,36.51Z"/><path class="cls-118" d="M47.11,36.51c.18-1.17-.3-2.45.6-3.5l0,4.62Z"/><path class="cls-119" d="M47.59,41.47c-2.32.49-2.19,2.89-3.34,4.29-1.6.1-2.53-.54-2.66-2.23-.19-2.63.17-3.77,1.48-4.28,1.24,0,2.48,0,3.71.12C48.41,39.51,48.46,40.33,47.59,41.47Z"/><path class="cls-60" d="M43.07,39.25c-1.17,2.63-.67,5.41,1.18,6.51a4.86,4.86,0,0,0,0,.54H43.11c-1.59,0-1.76-1.74-2.82-2.39a1,1,0,0,1-.35-1.07,2.93,2.93,0,0,0,.71-2.5,2.72,2.72,0,0,1,.11-.85A1.61,1.61,0,0,1,42,38.34a1.22,1.22,0,0,1,1.18.53A2.84,2.84,0,0,1,43.07,39.25Z"/><path class="cls-120" d="M43.2,38.87l-1.11-.16c.58-2,1.78-.8,2.8-.54l.48.58Z"/><path class="cls-47" d="M46.59,33c0,1.17,0,2.34,0,3.51L46,36.47A3.47,3.47,0,0,1,46,33.58a3.41,3.41,0,0,1,.1-.54A2.27,2.27,0,0,1,46.59,33Z"/><path class="cls-106" d="M35.65,41.1c0-.56,0-1.12,0-1.68q.32-3.2.62-6.37a2.93,2.93,0,0,1,1.16,1.05,3.1,3.1,0,0,1,.26,1.15,15,15,0,0,0,.44,2.31,3.55,3.55,0,0,1,0,.8,16.07,16.07,0,0,0-.57,2.74,1.86,1.86,0,0,1-.51.64C36.27,42.05,36,41.57,35.65,41.1Z"/><path class="cls-121" d="M36.86,35.34l0-1.13a1.32,1.32,0,0,1,.49-.58c.56-.32,1.31,0,1.79-.57l.59-.12.45.28A1.45,1.45,0,0,1,40,35.67,2.3,2.3,0,0,1,36.86,35.34Z"/><path class="cls-122" d="M37.36,34.15l-.55.06c-.19-.39-.39-.78-.59-1.16.78-.46,1.56-.89,2.37-.08C38.42,33.61,37.72,33.7,37.36,34.15Z"/><path class="cls-123" d="M37.36,34.15A1.33,1.33,0,0,1,38.59,33a2.1,2.1,0,0,1,.5.09C39,34.11,38.19,34.19,37.36,34.15Z"/><path class="cls-102" d="M36.77,45.18l-.56.47a4.58,4.58,0,0,1-.56-2.83,1,1,0,0,1,1.24-.08,1.05,1.05,0,0,1,0,1.26Z"/><path class="cls-124" d="M36.76,42.84l-1.11,0V41.1l1.09.55a.9.9,0,0,1,.8.71C37.43,42.78,37.26,43.08,36.76,42.84Z"/><path class="cls-60" d="M36.76,42.84l.5-.6c.23-.66.85-1.14.9-1.89.21-.88-.2-1.8.16-2.67A1.18,1.18,0,0,1,39,37.3c1.08.12,1.4.86,1.48,1.8a15.18,15.18,0,0,0,.18,2.52c0,.6-.54.92-.84,1.36-.7.64-1.68.62-2.49,1h-.53C36.81,43.61,36.78,43.22,36.76,42.84Z"/><path class="cls-110" d="M37.37,44a3.45,3.45,0,0,1,2.29-1.2c.22-.26.43-.24.63,0v1.09C39.32,43.9,38.36,44.49,37.37,44Z"/><path class="cls-125" d="M40.71,32.9c.79.23,1.73-.08,2.41.6l0,.21c-.28.34-.49.74-.93.9-1.15.19-1.7-.3-1.66-1.45Z"/><path class="cls-126" d="M40.55,33.16a1.66,1.66,0,0,0,2,1c.55.69,0,1.92,1.17,2.3l0,0c0,.17,0,.35,0,.53-1.42,1.42-2.94.15-4.41.17a1.31,1.31,0,0,0-.61.45h-.18l-.18,0c-.36.27-.7.39-.94-.15a2.85,2.85,0,0,1-.54-2.15c1.38-.26,3.68.89,3.27-2.12A.61.61,0,0,1,40.55,33.16Z"/><path class="cls-127" d="M38.7,37.66l-.16-.6c2-.72,3.84.5,5.78.55a3.86,3.86,0,0,1,.49.09c0,.16.06.32.08.47-1,.12-2-.24-2.8.54-.25.42-.49.85-.73,1.27-.77.41-1.19-.14-1.66-.58C39.67,38.65,39.68,37.87,38.7,37.66Z"/><path class="cls-60" d="M44.32,37.61c-2,.33-3.83-.58-5.78-.55,1.72-1.41,3.46.39,5.18,0Z"/><path class="cls-128" d="M44.23,36.43c0-.93.05-1.86.08-2.79A1.87,1.87,0,0,1,44.23,36.43Z"/><path class="cls-129" d="M46,33.58,46,36.47A2.1,2.1,0,0,1,46,33.58Z"/><path class="cls-128" d="M43.72,36.46c-1.47-.22-1-1.41-1.17-2.3l.59-.45A4.88,4.88,0,0,0,43.72,36.46Z"/><path class="cls-130" d="M39.7,39.4l1.66.58c0,.18.07.35.1.53.37,1.22-.05,1.61-1.24,1.19C39.64,41,39.78,40.19,39.7,39.4Z"/><path class="cls-127" d="M40.22,41.7a1.35,1.35,0,0,0,1.24-1.19c.95,1.46.49,2.19-1.17,2.31l-.63,0C39.85,42.44,40,42.07,40.22,41.7Z"/><path class="cls-131" d="M36.87,41.07c0-1-.34-2.13.49-3,1.23.5,1.29,1.6,1.39,2.68C38.28,41.65,37.64,41.66,36.87,41.07Z"/><path class="cls-132" d="M38.54,40.5c-.39-.82-.79-1.64-1.18-2.47a3.08,3.08,0,0,1,0-.53l.94.14c.89.78.68,1.87.79,2.86C38.93,40.85,38.73,40.85,38.54,40.5Z"/><path class="cls-133" d="M38.54,40.5h.59c.2,1.47-.76,1.68-1.87,1.74l-.52-.59c0-.19.09-.38.13-.58A1.81,1.81,0,0,0,38.54,40.5Z"/></g></g></svg>