<svg xmlns="http://www.w3.org/2000/svg" viewBox="0 0 74 74"><defs><style>.cls-1{fill:#1e2223;}.cls-2{fill:#bba78b;}.cls-3{fill:#2c3133;}.cls-4{fill:#d1c5a1;}.cls-5{fill:#d3cec3;}.cls-6{fill:#d0bd98;}.cls-7{fill:#912000;}.cls-8{fill:#672a13;}.cls-9{fill:#531f07;}.cls-10{fill:#914018;}.cls-11{fill:#b4b1af;}.cls-12{fill:#959390;}.cls-13{fill:#dddad6;}.cls-14{fill:#784936;}.cls-15{fill:#c4c1be;}.cls-16{fill:#5f5f5f;}.cls-17{fill:#a98c6c;}.cls-18{fill:#a37a42;}.cls-19{fill:#cab17a;}.cls-20{fill:#bcab8b;}.cls-21{fill:#b7a175;}.cls-22{fill:#aba083;}.cls-23{fill:#a97;}.cls-24{fill:#aba69f;}.cls-25{fill:#b3b0ae;}.cls-26{fill:#c7b087;}.cls-27{fill:#9f9a8d;}.cls-28{fill:#bcb091;}.cls-29{fill:#b5a287;}.cls-30{fill:#b5ac9d;}.cls-31{fill:#bc9460;}.cls-32{fill:#825d37;}.cls-33{fill:#976c30;}.cls-34{fill:#ac9265;}.cls-35{fill:#8a6433;}.cls-36{fill:#ac9788;}.cls-37{fill:#a14f3d;}.cls-38{fill:#8a4b36;}.cls-39{fill:#8b5b4b;}.cls-40{fill:#a03617;}.cls-41{fill:#9f3303;}.cls-42{fill:#9a2505;}.cls-43{fill:#811f00;}.cls-44{fill:#742103;}.cls-45{fill:#5b1f04;}.cls-46{fill:#863713;}.cls-47{fill:#a0391e;}.cls-48{fill:#7c4f12;}.cls-49{fill:#533612;}.cls-50{fill:#8c4531;}.cls-51{fill:#aa8e75;}.cls-52{fill:#68270f;}.cls-53{fill:#beb5b1;}.cls-54{fill:#712503;}.cls-55{fill:#a22e00;}.cls-56{fill:#a53e17;}.cls-57{fill:#993610;}.cls-58{fill:#73471b;}.cls-59{fill:#ab4a37;}.cls-60{fill:#904533;}.cls-61{fill:#91371a;}.cls-62{fill:#853c25;}.cls-63{fill:#a4432c;}.cls-64{fill:#a84b3e;}.cls-65{fill:#852a00;}.cls-66{fill:#a44220;}.cls-67{fill:#a24534;}.cls-68{fill:#7b2e06;}.cls-69{fill:#6e2c18;}.cls-70{fill:#7a3718;}.cls-71{fill:#812e0b;}.cls-72{fill:#67360c;}.cls-73{fill:#593d16;}.cls-74{fill:#7e5013;}.cls-75{fill:#9f7f4c;}.cls-76{fill:#d9c9a4;}.cls-77{fill:#c0a269;}.cls-78{fill:#9b6923;}.cls-79{fill:#ad8a52;}.cls-80{fill:#838382;}.cls-81{fill:#dddad7;}.cls-82{fill:#ccc8c4;}.cls-83{fill:#d2d1cf;}.cls-84{fill:#b3aba3;}.cls-85{fill:#e4e3e2;}.cls-86{fill:#d6c494;}.cls-87{fill:#edd79e;}.cls-88{fill:#8f6225;}.cls-89{fill:#988d78;}.cls-90{fill:#562209;}.cls-91{fill:#b54f3a;}.cls-92{fill:#b2451d;}.cls-93{fill:#95391d;}.cls-94{fill:#b6482a;}.cls-95{fill:#8c351c;}.cls-96{fill:#622b11;}.cls-97{fill:#5c2104;}.cls-98{fill:#a64223;}.cls-99{fill:#8a3412;}.cls-100{fill:#893610;}.cls-101{fill:#712c0b;}.cls-102{fill:#8c2b00;}.cls-103{fill:#6d2100;}.cls-104{fill:#491b04;}.cls-105{fill:#772e0e;}.cls-106{fill:#6a2409;}.cls-107{fill:#672408;}.cls-108{fill:#3e1904;}.cls-109{fill:#9b4226;}.cls-110{fill:#b84a28;}.cls-111{fill:#b4461b;}.cls-112{fill:#a14e3c;}.cls-113{fill:#a84119;}.cls-114{fill:#a44636;}.cls-115{fill:#924433;}.cls-116{fill:#b36b5f;}.cls-117{fill:#a44527;}.cls-118{fill:#d5562f;}.cls-119{fill:#a2402a;}.cls-120{fill:#b3472e;}.cls-121{fill:#a73b19;}.cls-122{fill:#8e2e02;}.cls-123{fill:#a33b0d;}.cls-124{fill:#802800;}.cls-125{fill:#a24930;}.cls-126{fill:#96422d;}.cls-127{fill:#a94d3a;}.cls-128{fill:#713113;}.cls-129{fill:#ad6757;}.cls-130{fill:#9c4f38;}.cls-131{fill:#873f2f;}.cls-132{fill:#d0593b;}.cls-133{fill:#5f2708;}.cls-134{fill:#8b3816;}.cls-135{fill:#4b270b;}.cls-136{fill:#c9512f;}.cls-137{fill:#953412;}.cls-138{fill:#862d0b;}.cls-139{fill:#bd4d28;}.cls-140{fill:#451d07;}.cls-141{fill:#511e04;}.cls-142{fill:#9b3400;}.cls-143{fill:#431b06;}.cls-144{fill:#a94f41;}.cls-145{fill:#b94a23;}.cls-146{fill:#be7a70;}.cls-147{fill:#c94f28;}.cls-148{fill:#af4122;}.cls-149{fill:#b2695d;}</style></defs><title>소화기2_1</title><g id="레이어_2" data-name="레이어 2"><g id="레이어_1-2" data-name="레이어 1"><rect class="cls-1" width="74" height="74" rx="8.33" ry="8.33"/><path class="cls-2" d="M32.17,16.11a1.19,1.19,0,0,0-.37.06,1.09,1.09,0,0,1-1.3.16c-.64-2.53-.83-5.21-2.27-7.52a.65.65,0,0,1,.31-.58c1.51.22,5.2,3.6,5.4,5A2.33,2.33,0,0,1,32.17,16.11Z"/><path class="cls-3" d="M32.17,16.11c2.34-2.6,2.14-3.51-1.23-4.93-.73-.31-.55-.87-.7-1.36-.27-.92-.66-1.65-1.83-1.37A2.57,2.57,0,0,1,26.66,9a4.35,4.35,0,0,1-1.48-.17,2.59,2.59,0,0,1-.63-.4c2.82-1.19,5.15-.78,6.83,1.35.43.54,1,.43,1.46.66,2,.91,1.35,2.71,1.35,4.23C34.2,16,33.28,16.26,32.17,16.11Z"/><path class="cls-3" d="M39.55,15.68c1.85-1.61,4.17-2.57,5.72-4.68.43-.58,2.91-.83,4,.79l-.24.27c-1.88.52-3.93.66-5,2.7-.3.56-1.11.55-1.75.6C41.33,15.18,40.51,16,39.55,15.68Z"/><path class="cls-4" d="M22.1,12.25c.66-.1,1.42.26,2-.42.84-1,.24-2.26.49-3.37l.51,0c.86.38.59,1.12.58,1.79s-.08,1.38-.1,2.07c.33,2.92,0,3.17-3.31,2.82a1.16,1.16,0,0,1-.88-1c-.4-.72,1.16-.69.57-1.5A.38.38,0,0,1,22.1,12.25Z"/><path class="cls-5" d="M39.55,15.68c.79-.39,1.42-1.19,2.46-.94a.4.4,0,0,1,.16.31c0,.13,0,.19,0,.19-.22.32-.52.57-.76.86a4.07,4.07,0,0,1-.42.41,4.19,4.19,0,0,1-1.6.85c-1.61-.12-2.08.82-2.06,2.22,0,1,.14,2-.51,2.88a.65.65,0,0,1-.73.06c-1.51-1.67,0-3.26.11-4.89C37.12,16.68,37.86,15.35,39.55,15.68Z"/><path class="cls-3" d="M49.83,14.15c3.07-.48,3.93.29,3.83,3.06-.08,2.14-1.55,1.84-2.87,1.93l-.17-.29c.18-.71,1-.79,1.33-1.3.76-1.19.9-2.14-1-2a1.89,1.89,0,0,1-1-.08.9.9,0,0,1-.48-.78A.73.73,0,0,1,49.83,14.15Z"/><path class="cls-3" d="M30.35,16.18H31.8c-.3,2.28.89,3.86,2.47,5.26-.05.08-.1.16-.16.24a1.42,1.42,0,0,1-.57.15,2.62,2.62,0,0,1-1.44-.38,2.41,2.41,0,0,1-.42-.48,13,13,0,0,1-1.54-4.52Z"/><path class="cls-3" d="M36.16,17.63c.06,1.62-.48,3.24,0,4.86-.94,1-1.41.78-2-.95l.06-.11Z"/><path class="cls-3" d="M52.2,23.36l-.52.59a.53.53,0,0,1-.6.05c-1-.8-.65-2.27-1.52-3.14A2.37,2.37,0,0,1,49,19.69a1.33,1.33,0,0,1,.16-.65,1.46,1.46,0,0,1,.6-.32,1.11,1.11,0,0,1,1,.31l.11.11C51.24,20.56,51.34,22.09,52.2,23.36Z"/><path class="cls-6" d="M49.29,11.79c.76.65.34,1.58.54,2.36l-.13.12c-.91,0-.86-.73-1-1.34a1.69,1.69,0,0,1,.42-1Z"/><path class="cls-7" d="M55,27.36l.15.84a11,11,0,0,1,1.63,6.18c-.11,6.86,0,13.72,0,20.58-.36,1.11-.52,2.44-2.25,2a1.74,1.74,0,0,1-.31-1.25c.4-6.86.12-13.73.15-20.58a5.93,5.93,0,0,0-.16-.73c-.23-1.49,0-3.27-2.11-3.66a4.78,4.78,0,0,1-.62-.26,10.52,10.52,0,0,1-2-1.19.94.94,0,0,1-.21-1C50.93,26.62,53,27.11,55,27.36Z"/><path class="cls-8" d="M55,27.36c-1.08.66-2.29.42-3.45.45a2.86,2.86,0,0,0-2.3,1,.91.91,0,0,1-.63.19,5.67,5.67,0,0,1-1-.29,8.52,8.52,0,0,0-5.61-.43,1.83,1.83,0,0,1-1-.2c-.74-1.76-1.41-.39-2.11.05a2.13,2.13,0,0,1-1.36.15,3.67,3.67,0,0,1-2.24-2.15c-.22-1-1.35-1.54-1.24-2.68a1.17,1.17,0,0,1,.62-.25,2.51,2.51,0,0,1,1.92,1.29c.45.68.76,1.66,1.91.95a3.92,3.92,0,0,1,1.9-.64,3.4,3.4,0,0,0,2.35-1,1.63,1.63,0,0,1,1.93-.53,1,1,0,0,1,.35.55c0,.07,0,.19,0,.23,1.24,1.06,6,1.56,7.51.8A6.36,6.36,0,0,1,55,27.36Z"/><path class="cls-7" d="M56.47,55.51c0-7.51,0-15,.11-22.53,0-1.81-1.47-3-1.4-4.78,1.79.87,1.72,2.61,1.73,4.15.07,9.48.05,19,.08,28.45a4.31,4.31,0,0,1-2.39,3.88c-.42.25-.58,0-.71-.35a1.23,1.23,0,0,1,.31-.9A6.18,6.18,0,0,0,55.35,62a3,3,0,0,0,.55-2.09l0-2.15A6.16,6.16,0,0,1,56.47,55.51Z"/><path class="cls-9" d="M52.69,24.82c0,1.25-.51,1.79-1.78,1.38a14.39,14.39,0,0,0-5.4-.82c-.57,0-1.17-.1-1.35-.75s.35-.6.72-.7c.37-.35.29-.89.56-1.3.92-1.41,1.54-1.43,2.5,0a1.51,1.51,0,0,0,.71.59c.54.14,1.11.11,1.65.21a2.68,2.68,0,0,1,.94.47l.44.08Z"/><path class="cls-7" d="M51.31,66.2l-.66-.11c.15-1.31,1.4-1.25,2.19-1.77.42-.16.82-.4,1.27-.11l.49.47A5.47,5.47,0,0,1,51.31,66.2Z"/><path class="cls-10" d="M18.64,60.89a1.27,1.27,0,0,1-.38-.11c-1.83-5.59-.73-11.36-1-17.05-.14-3.71.06-7.44,0-11.15a16.16,16.16,0,0,1,1.36-7.28l.32.26a2.11,2.11,0,0,1,.31.76,5.24,5.24,0,0,1-.31,2.88,3.7,3.7,0,0,0-.51,2.08c0,7.55,0,15.09,0,22.64a2.91,2.91,0,0,0,.23,1.17,3.24,3.24,0,0,0,2.7,1.66c.62,0,.86-.41,1.12-.86a1.22,1.22,0,0,1,.59-.23,7,7,0,0,1,2.1.86,1.27,1.27,0,0,1,.45.47.73.73,0,0,1-.18.6c-.66.4-1.38.68-2,1.06-1.22.14-2.44-.26-3.66,0a.82.82,0,0,1-.8-.73A6.88,6.88,0,0,0,19.2,59a3,3,0,0,1-.11,1.42A1.09,1.09,0,0,1,18.64,60.89Z"/><path class="cls-11" d="M21.6,13.76a1,1,0,0,0,.51,1l.46.46c.41.51,1,1,.38,1.72a1.92,1.92,0,0,1-1.93.28c-.35-.34-.42-.87-.73-1.23A.91.91,0,0,0,19,15.74c-.42.31-.15.73,0,1.09.25.57.74,1.11.19,1.77a2.66,2.66,0,0,0-2,1c-.88-4.14.92-6.86,4.87-7.34v.47C21.94,13.07,21.62,13.34,21.6,13.76Z"/><path class="cls-12" d="M19.2,18.6a5.8,5.8,0,0,0-.58-1.26c-.47-.62-1.19-1.14-.6-2a1.32,1.32,0,0,1,1.47-.52c.9.19,1.67.54,1.64,1.67,0,.23,0,.47,0,.71.43.72.46,1.32-.52,1.58a1.09,1.09,0,0,1,0-.25c-.32-.6-.61-.53-.87.05Z"/><path class="cls-13" d="M21.64,21.07c-.58-.19-1.39.26-1.73-.46-.26-.55.34-.79.74-1,.91-.45.62-3.16,2.7-1.43a2.47,2.47,0,0,1,.23,1.49C23.33,20.66,22.82,21.32,21.64,21.07Z"/><path class="cls-14" d="M18.62,25.3c1.12-1.16.78-3.47,3-3.79a.74.74,0,0,1,.94-.13c.42,1.07-.68,1.28-1.07,1.89-.94.7-1.17,2.28-2.73,2.22Z"/><path class="cls-15" d="M23.07,18.11c-1.71-1-1.15,1.74-2.42,1.47v-.84a2,2,0,0,0,.52-1.58A2.69,2.69,0,0,1,23,16.68a.93.93,0,0,1,.38.53A1,1,0,0,1,23.07,18.11Z"/><path class="cls-16" d="M19.74,18.54a3.4,3.4,0,0,1,.13-2c1.09.41.66,1.29.74,2Z"/><path class="cls-17" d="M22.58,21.55l-1,0a3.13,3.13,0,0,1,0-.44c.65-.37,1.38-.67,1.59-1.5a.44.44,0,0,1,.6.23A1.86,1.86,0,0,1,24,20.89C23.71,21.55,23.36,22,22.58,21.55Z"/><path class="cls-18" d="M23.56,20.55v-1c-.46-.72-.15-1.52-.24-2.28.08-.61-.21-1.21-.06-1.82.76-1,2.12-.05,2.93-.89a3.14,3.14,0,0,0,.47-2.29,3.66,3.66,0,0,1,0-.66C27,10.54,27,9.28,28.42,9a6.79,6.79,0,0,1,1.93,7.22h0c-.38.27-.1.91-.61,1.11a.72.72,0,0,1-.59-.24,10,10,0,0,1-.6-1.72c-.77.23-.51.92-.78,1.32a2.3,2.3,0,0,1-.79,1.1c-.74.27-1.35-.31-2.11-.32-.55,1,.08,2.2-.69,3.11A.5.5,0,0,1,23.56,20.55Z"/><path class="cls-19" d="M28.42,9c-.92.76-.77,2-1.41,2.92l-.28-.2A4.29,4.29,0,0,1,26,9.73a1.57,1.57,0,0,1,.46-1.28h1.95C28.41,8.62,28.42,8.79,28.42,9Z"/><path class="cls-20" d="M26.46,8.45V9.79c-.31.37,0,.81-.16,1.2a1,1,0,0,1-.38.47.67.67,0,0,1-.56-.13c-.24-.45.07-1-.33-1.43a1.35,1.35,0,0,0,0-1.4Z"/><path class="cls-6" d="M49.17,11.9l.09.88a2.07,2.07,0,0,1-.47.37,3.58,3.58,0,0,1-.56.16A2.34,2.34,0,0,0,47,14a4.13,4.13,0,0,1-.52.33,8.79,8.79,0,0,0-1.9,1.1,2.35,2.35,0,0,1-.63.27c-.72.11-1.42.18-1.94-.5l0-.41c.68-.08,1.6.21,1.9-.61C44.89,11.46,47.11,11.9,49.17,11.9Z"/><path class="cls-21" d="M25.5,11.32l.47,0c.55.36.57,1.12,1.11,1.49,0,.8-.77,1.57-.15,2.41-1.12.59-2.24-.35-3.35,0a1.12,1.12,0,0,1-1.45,0c0-.16,0-.32,0-.48,2.86,0,2.86,0,2.87-2.46C25.46,12.12,25.13,11.53,25.5,11.32Z"/><path class="cls-22" d="M21.6,13.76c-.74-.79-.08-.89.5-1l.6.28Z"/><path class="cls-23" d="M25.5,11.32c-.23.28.49,1.09-.52.95L25,9.9C25.59,10.24,25.47,10.81,25.5,11.32Z"/><path class="cls-24" d="M36.66,19.08c.4-1.47.54-3.32,2.87-1.95.84-.37,1.42.19,2.06.56a4,4,0,0,1,.95.8c.15.43-.12.94.21,1.35a.88.88,0,0,1-.34.83.86.86,0,0,1-.67,0c-1-.7-1-.23-.71.59a1.19,1.19,0,0,1-.11.68,1.44,1.44,0,0,1-.41.54c-.41.12-.63-.12-.81-.43-.56-1.13.16-3.44-2.46-2.69A.9.9,0,0,1,36.66,19.08Z"/><path class="cls-25" d="M36.66,19.08h.49c.91.65,1.91,1.23,1.84,2.58,0,.49-.17,1,.35,1.35a1.55,1.55,0,0,1,.37.51.79.79,0,0,1-.2.6,1.84,1.84,0,0,1-1,.29,2.31,2.31,0,0,1-1-.24c-.58-.43-1.17-.85-.9-1.73Z"/><path class="cls-3" d="M36.62,22.45l1,1.55a.51.51,0,0,1,0,.59,1.19,1.19,0,0,1-1.21.25,3.59,3.59,0,0,0-1.64-1.44c-.54-.5-1.63-.68-1.1-1.83l.55,0c.64.34.8,1.67,2,.95Z"/><path class="cls-26" d="M41.5,18.11l-2-1a1.56,1.56,0,0,1,1.48-1,.5.5,0,0,1,.63,0,1.56,1.56,0,0,1,.32,1A1.3,1.3,0,0,1,41.5,18.11Z"/><path class="cls-27" d="M42,15.15l2.38,0a.5.5,0,0,1-.1.73,2.82,2.82,0,0,1-3.2-.24C41.24,15.26,41.62,15.23,42,15.15Z"/><path class="cls-28" d="M41.06,15.67l3.3,0a.47.47,0,0,1,.13.39q0,.21-.09.21a1.7,1.7,0,0,1-.61.32,3.28,3.28,0,0,1-1,.09,1.81,1.81,0,0,1-1.25-.54l-.49,0C41,16,41,15.83,41.06,15.67Z"/><path class="cls-29" d="M49.92,15.13h.68a.87.87,0,0,1,.69,0,2.23,2.23,0,0,1,1.16,2.11,1.11,1.11,0,0,1-.7.76,2.19,2.19,0,0,1-2.19-.87,2,2,0,0,1-.27-1,2.08,2.08,0,0,1,.12-.66A.61.61,0,0,1,49.92,15.13Z"/><path class="cls-30" d="M51.21,15.21l-.61-.09c1-.71,1.86-.61,2.37.45a2,2,0,0,1-.62,2.58,12,12,0,0,1-1.67.88l-1-.05c-.1-1.56,1.37-.82,2-1.35l.48-.46C52.54,16.18,51.87,15.7,51.21,15.21Z"/><path class="cls-31" d="M48.73,12.84l.53-.06c.11.51-.07,1.1.44,1.49.08.28.15.57.22.86l-.27.07c-1,.09-1.21-.59-1.32-1.37A1.53,1.53,0,0,1,48.73,12.84Z"/><path class="cls-32" d="M29.42,17.12h.41a2,2,0,0,1,1.24,1.79A2.15,2.15,0,0,0,32.29,21a.4.4,0,0,1,.18.26.51.51,0,0,1-.34.58,2,2,0,0,1-1.45-.07C28.66,20.65,28.88,18.93,29.42,17.12Z"/><path class="cls-2" d="M32.29,21c-1.09.07-1.4-.64-1.4-1.52a4,4,0,0,0-1.06-2.34c.05-.38.08-.78.52-.95Z"/><path class="cls-32" d="M33.66,21.57c0,.83,1.18.95,1.1,1.83l-.54.12c-.82-.08-1.32-.79-2-1a.77.77,0,0,1,0-.89l.27-.35C32.94,21.07,33.29,21.37,33.66,21.57Z"/><path class="cls-33" d="M49.67,15.69l0,.91c0,.86.31,1.75-.35,2.52a1.67,1.67,0,0,1-.11.44.42.42,0,0,1-.57-.06A4.39,4.39,0,0,1,48.09,18c-.29-.94-1.36-1-1.87-1.73a1.65,1.65,0,0,1-.13-.66,2.87,2.87,0,0,1,.74-1.84c.06-1,.72-1,1.44-.87.2.75-.25,1.6.34,2.29C48.93,15.41,49.37,15.4,49.67,15.69Z"/><path class="cls-34" d="M49.28,19.12c.07-.85-.28-1.75.35-2.52a3,3,0,0,0,2.06,1c-.46.73-1.63.43-2,1.35A2.06,2.06,0,0,1,49.28,19.12Z"/><path class="cls-35" d="M48.78,19.57h.39l.66.89a2.88,2.88,0,0,1,.45,3.05C48.71,22.6,47.83,21.43,48.78,19.57Z"/><path class="cls-36" d="M50.22,23.44a7.22,7.22,0,0,0-.39-3c1.48.72.73,2.36,1.41,3.42h-.92C50,23.8,50,23.66,50.22,23.44Z"/><path class="cls-37" d="M20.63,62.75l-.52-.41c.06-.09.12-.18.17-.27a5.63,5.63,0,0,1,1.83-.52c.7-.19.49-1.12,1.11-1.38,1.26.28,2.32,1.17,3.66,1.17.76.17,1,1.08,1.82,1.22a9.18,9.18,0,0,1,1,.2c.36.13.69.31.76.74a.62.62,0,0,1-.55.48C26.78,63.92,23.54,64.59,20.63,62.75Z"/><path class="cls-38" d="M20.11,62.34a3,3,0,0,1-1.47-1.45.84.84,0,0,1,.13-.27,1.26,1.26,0,0,1,1.47.07,1.13,1.13,0,0,1,0,1.45Z"/><path class="cls-39" d="M37.63,63.21l-.5,0h0a4.36,4.36,0,0,0-3,0c-.29.2-.59.39-.89.58l-2.91,0v-.47c.88-.9,2.17-.81,3.2-1.36.23-.09.46-.16.69-.23,1.22-.34,2.44-.61,3.44.53A.89.89,0,0,1,37.63,63.21Z"/><path class="cls-40" d="M48.78,28.81l.5,0,.48.5a4.09,4.09,0,0,1,1.49,1.46c.09.22.13.51.29.65,3,2.58,2.89,6,2.79,9.52-.17,5.46.2,10.93-.25,16.39-.28.7-.56,1.4-1.55,1-.8-1.06-.6-2.31-.61-3.5,0-6,0-12.09-.25-18.14-.22,2.63-.21,5.27-.21,7.92,0,3.54,0,7.09,0,10.64A5,5,0,0,0,52,57.79a3.94,3.94,0,0,1,.37.74c0,.13-.07.26-.1.4a2,2,0,0,1-.71.42c-1,0-2.18.78-3.07-.4C48.74,48.9,48.38,38.85,48.78,28.81Z"/><path class="cls-41" d="M53.62,57.41c0-6.86,0-13.71,0-20.56a3.7,3.7,0,0,0-1.61-3.52,2.87,2.87,0,0,1-1.34-3.08.67.67,0,0,1,1,0h0a4.63,4.63,0,0,1,2.9,3.88h0c.54,3,.21,6.08.2,9.11,0,4.24.31,8.49-.2,12.72v1a.86.86,0,0,1-.48.66A.45.45,0,0,1,53.62,57.41Z"/><path class="cls-42" d="M54.6,56V34.12c.51.4.48,1,.48,1.54V54.41C55.08,55,55.11,55.55,54.6,56Z"/><path class="cls-43" d="M54.11,57.4l.48-.48c1,.06,1.06-1.19,1.88-1.41,0,.78,0,1.56,0,2.34-.23,1.42-1.29,1.81-2.51,2-.75,0-1.7.23-1.78-1h0A3,3,0,0,0,54.11,57.4Z"/><path class="cls-42" d="M54.59,34.12c-.61-1.56-2-2.53-2.9-3.88C54.43,30.21,54.83,31.93,54.59,34.12Z"/><path class="cls-42" d="M51.68,30.24h-1a1.68,1.68,0,0,1-1-1A2.64,2.64,0,0,1,51.68,30.24Z"/><path class="cls-44" d="M35.68,25.87c.7.6,1,1.61,1.94,2,.84.51,1.79.91,1.87,2.1.83,9.14-.12,18.31.61,27.45a2.27,2.27,0,0,1-.43,1.47c-1,.95-2.13,0-3.18.17a1.11,1.11,0,0,1-.55-.35,1.76,1.76,0,0,1-.08-1.58,2.08,2.08,0,0,1,.37-.51c.85-1-.27-1.79-.21-2.7-.11-2.34-.08-4.67-.05-7,.07-6.34-.49-12.65-.78-19A2.43,2.43,0,0,1,35.68,25.87Z"/><path class="cls-45" d="M35.68,25.87c.91,9.69,1,19.39,1,29.11a1.7,1.7,0,0,1,0,1.94h-.49a1,1,0,0,1-.72-.78c0-.66.07-1.31.05-2,.24-7.84-.55-15.64-.88-23.45.17,4.74-.2,9.47-.16,14.2,0,2.9.06,5.8-.06,8.69-.06,1.21-.12,2.52-1.9,2.45a1,1,0,0,1-.45-.74c.1-8.81,0-17.62,0-26.42.68-3-1-4.82-3.25-6.3,1.14-1.16,2.36-.66,3.59-.19,1-.35,1.28.59,1.8,1.1C34.63,24.35,36,24.6,35.68,25.87Z"/><path class="cls-46" d="M39.56,57.89a12.8,12.8,0,0,1-.5-3.8c0-6.62,0-13.24,0-19.86,0-1.65-.87-3.3,0-5A1.85,1.85,0,0,1,41,27.82h1a1.39,1.39,0,0,1-.37,1.62c-.43.38-1,.57-1.28,1.17,2.7,7.83,1,15.91,1.37,23.86.21,4.16.52,4.64,4.78,4.68.32,0,.64,0,1,0a3.11,3.11,0,0,1,.8.13c.84.49,2.34-.32,2.6,1.32a1,1,0,0,1-.54.55c-1,.39-2.06.16-3,.54a5.31,5.31,0,0,1-2.28,0,11,11,0,0,0-2.91-.36,3.3,3.3,0,0,1-2-.81C39.84,59.7,40.39,58.66,39.56,57.89Z"/><path class="cls-47" d="M48.28,59.82l-.48,0a2.08,2.08,0,0,1-.49-1.57c.55-8.22.15-16.45.21-24.67.19-1.2,1.11-2.33.38-3.64a2.7,2.7,0,0,1-.07-.69,1.39,1.39,0,0,1,.45-.9l.5.48c1.39,1.49.63,3.16.54,4.85-.2,3.76-.06,7.54-.06,11.31,0,3.53,0,7.06,0,10.59a12.64,12.64,0,0,1-.51,3.78C48.73,59.62,48.43,59.65,48.28,59.82Z"/><path class="cls-48" d="M44.88,23.44c-1.76-.05-2.39,2.48-4.38,1.92A12.49,12.49,0,0,0,42.83,20c1.05-1.38,2.24-1,3.45-.27a1.41,1.41,0,0,1,.41.64C46.85,21.83,45.5,22.42,44.88,23.44Z"/><path class="cls-49" d="M44.88,23.44c0-1.23,1.5-1.65,1.49-2.87.31-.38,0-.75,0-1.13,0-.77.13-1.52,1.07-1.51a1.1,1.1,0,0,1,1.05,1.34c-.17,1.55.74,3.15-.2,4.66-1.46,0-.59-1.54-1.27-2.06-1.15.28-1.08,1.75-2.14,2.06Z"/><path class="cls-50" d="M48.28,28.33v.94c-1.65.78-3.25-1-4.9-.1a3.73,3.73,0,0,1-1.31.38.93.93,0,0,1-.6-.31c.17-.47.34-.94.5-1.41C44.17,26.82,46.24,27.35,48.28,28.33Z"/><path class="cls-51" d="M43,20.08c.46,2.36-.22,4.19-2.48,5.28-.73-.18-1.23.3-1.78.64-.7-.3-1.28-.67-1.1-1.58,0-.14,0-.28,0-.42l.91,0c.88.57,1.5-.09,2.17-.48a4.49,4.49,0,0,0,1.14-2.15,2,2,0,0,1,.57-.77v-1C42.89,19.47,43.1,19.59,43,20.08Z"/><path class="cls-52" d="M41,27.82a1,1,0,0,1-1,.49,1.06,1.06,0,0,1-1-.49,2.54,2.54,0,0,1,.28-.87c.45-.54,1.12-1.14,1.75-.8S40.87,27.23,41,27.82Z"/><path class="cls-53" d="M37.62,24.42c.4.5,1.08.81,1.1,1.58-1.2.85-1.46.72-2.32-1.16Z"/><path class="cls-54" d="M39.07,27.82a1,1,0,0,1,1,.49l-1,1a3,3,0,0,1-1.46-1.44Z"/><path class="cls-55" d="M54.12,59.36c.82-.45,1.85-.57,2.34-1.51,0,.82,0,1.64,0,2.47-.45.59-.49,1.37-.9,2a1.41,1.41,0,0,1-1,1.4c-.9-.35-1-1.14-1.05-1.93,0-.42-.08-.83-.14-1.25a1.52,1.52,0,0,1,0-.6C53.59,59.64,53.9,59.55,54.12,59.36Z"/><path class="cls-56" d="M54.1,61.29a4,4,0,0,0,.49,2.4l-.48.52-1,.48a.92.92,0,0,1-1,.08,1.79,1.79,0,0,1,.09-2.11C52.7,62,53,61.05,54.1,61.29Z"/><path class="cls-57" d="M55.6,62.29a1.68,1.68,0,0,1,.9-2A1.77,1.77,0,0,1,55.6,62.29Z"/><path class="cls-58" d="M48.29,23.93c-.77-1.23.26-2.45,0-3.69-.13-.68.1-1.71-.71-1.82-1.18-.17-.52,1-.82,1.57a6.7,6.7,0,0,1-.4.58c0-.18,0-.36,0-.54a3.22,3.22,0,0,1-.65-3.31c1.34-.69,2.11.46,3.09.94l0,1.91c-.2,1.54,1,2.58,1.44,3.87,0,.15.07.29.1.43Z"/><path class="cls-59" d="M47.83,66.08A15.3,15.3,0,0,1,41,64.72c.25-.73,0-1.58.61-2.22A2.82,2.82,0,0,1,43,62.13a5.57,5.57,0,0,1,1.77.2A4.09,4.09,0,0,1,47,63.85a2.29,2.29,0,0,0,.85,1.64A.49.49,0,0,1,47.83,66.08Z"/><path class="cls-60" d="M47.83,66.08a3,3,0,0,1,0-.43,2,2,0,0,1,1-.87,8.45,8.45,0,0,1,2-.57,1.65,1.65,0,0,1,1.32.46l1,0L50.65,66.1Z"/><path class="cls-61" d="M41.5,62.74c.32.79,1,1.66-.5,2l-.47,0c-.38-.36-1-.44-1.22-1a1.2,1.2,0,0,1,.1-1,1.36,1.36,0,0,1,.56-.35,1.89,1.89,0,0,1,1,0A1.18,1.18,0,0,1,41.5,62.74Z"/><path class="cls-62" d="M39.56,63.7l1,1-1.4,0-1.5-1.44c0-.31,0-.62,0-.93l.27-.13a2.29,2.29,0,0,1,1.21.82A8.21,8.21,0,0,0,39.56,63.7Z"/><path class="cls-63" d="M25.5,57.38c0-.15,0-.3,0-.45a1.73,1.73,0,0,1,.57-.63c1-.69.67-1.74.67-2.66,0-6.33,0-12.67,0-19a8.74,8.74,0,0,1,.45-3.55c.44-1.11,1-2.18,1.5-3.26,2.11-.8,2,1,2.48,2.11a4.33,4.33,0,0,1,.19.79A4.83,4.83,0,0,1,31,33.55a3.8,3.8,0,0,0-.46,2.33c0,6.35-.08,12.71.05,19.06a2.16,2.16,0,0,1-.94,2.13,6.59,6.59,0,0,1-1.76.72,3.35,3.35,0,0,1-1.83,0A1.17,1.17,0,0,1,25.5,57.38Z"/><path class="cls-64" d="M26,56.91l-.48,0-.48,0c-1.42-1.09-1.72-2.58-1.71-4.28,0-6.11,0-12.23,0-18.34,0-.95.17-2-.65-2.72A4.73,4.73,0,0,1,21.5,30.5a1.28,1.28,0,0,1-.1-1.08c.59-.76,1.27-.38,1.94-.17.21.08.41.18.61.28,2.1.82,2.69-.38,2.87-2.13a.9.9,0,0,1,.93-.31,1.11,1.11,0,0,1,.53.47,2.29,2.29,0,0,1-.4,2.47A3.91,3.91,0,0,0,27,32.7q0,10.42,0,20.85C27,54.77,27,56,26,56.91Z"/><path class="cls-65" d="M18.7,28.78l.05-2.86a.74.74,0,0,1,1-.12,1.87,1.87,0,0,1,.33,1.45c-.45,1.66,1,2.82,1.15,4.32.18,7.18.05,14.36.07,21.54a3.36,3.36,0,0,1-.54,2.3c-2.2.28-2.55-1.11-2.56-2.81,0-6,0-11.94,0-17.91,0-1.54,0-3.07,0-4.6A2.93,2.93,0,0,1,18.7,28.78Z"/><path class="cls-66" d="M20.64,30.74c-.66-1-1.92-1.92-1-3.42a.5.5,0,0,1,.6-.07c.82.83.68,2.1,1.37,3l1,.49a3.94,3.94,0,0,1,.73,2.51c0,7.26,0,14.51,0,21.77a1.9,1.9,0,0,1-.24.93h-.47a1.22,1.22,0,0,1-1.67-.69,8,8,0,0,1,0-.85c0-7.11,0-14.21,0-21.31A4.06,4.06,0,0,0,20.64,30.74Z"/><path class="cls-67" d="M23.06,55.94a5.52,5.52,0,0,1-.48-3V30.73c1.63.4,1.44,1.74,1.45,2.92,0,6,0,12,0,17.93a9.8,9.8,0,0,0,1,5.33C24.16,57,23.73,56.22,23.06,55.94Z"/><path class="cls-68" d="M18.7,29.76c0,7.34.05,14.68,0,22,0,1.72.33,3,2,3.68q.24-.35.48,0h0c.76.5,1.14,1.09.48,1.93A2.57,2.57,0,0,1,18.69,56,3.22,3.22,0,0,1,18,53.71c0-7.5,0-15,0-22.5C18,30.68,17.62,29.83,18.7,29.76Z"/><path class="cls-69" d="M19.69,25.88l-.94,0a2.06,2.06,0,0,1,0-.43L21.12,23c1,.09,1.76-.54,2.7-.56a6.65,6.65,0,0,1,2,.15c.68.22,1.4.32,2.08.57s1.11.61,1.17,1.34a1.53,1.53,0,0,1-1.33,1.21,15.2,15.2,0,0,0-5.54.33C21.39,26,20.51,26.52,19.69,25.88Z"/><path class="cls-70" d="M18.7,29.76c-.72.64-.46,1.5-.46,2.28,0,6.94,0,13.89,0,20.83A16.49,16.49,0,0,0,18.69,56c-1.18-.19-1-1.13-1-1.89,0-7.67,0-15.34,0-23,0-.91,0-1.81,1-2.28Z"/><path class="cls-66" d="M23.08,60.32c0,.67.7,1.53-.49,1.89-.86-1-1.92-1.87-2.76-2.92a.84.84,0,0,1-.18-.93c1.3-1.09,2.61-.15,3.92,0a2.25,2.25,0,0,1,1.77-.45,1.8,1.8,0,0,1,1,.27.58.58,0,0,1,.17.41c0,.15,0,.23-.05.23-.88,1-2.3.25-3.27,1A1.8,1.8,0,0,0,23.08,60.32Z"/><path class="cls-71" d="M19.65,58.36l.5.52c0,.65,1.3,1.31,0,1.95l-1.37-.21a8.57,8.57,0,0,1,0-2.37C19,57.31,19.33,58.39,19.65,58.36Z"/><path class="cls-70" d="M21.61,57.39a3.29,3.29,0,0,0-.48-1.93l1.46.49C23.24,57.09,22.79,57.49,21.61,57.39Z"/><path class="cls-70" d="M25.51,58.36H23.57c.15-1.31,1.19-.84,1.93-1l.48,0a.42.42,0,0,1,.18.46C26,58.09,25.71,58.16,25.51,58.36Z"/><path class="cls-17" d="M22.13,15.21l1.45,0c0,.64,0,1.28,0,1.91-.14.22-.27.21-.39,0L23,16.68C22.72,16.19,22.42,15.7,22.13,15.21Z"/><path class="cls-12" d="M23.14,17.14l.39,0,0,2.4h-.33c-.05-.49-.1-1-.16-1.46Z"/><path class="cls-72" d="M23.54,23c-.8-.41-1.62,1.54-2.42,0l1.46-1.4a1,1,0,0,0,1-1l.4-.05c.78-1,1.35-2.24,2.94-2a1,1,0,0,1,.32.58c-.18,1.37-1.28,2-2.21,2.79A9.36,9.36,0,0,0,23.54,23Z"/><path class="cls-73" d="M29.42,17.12c.58,1.42-.17,3.28,1.45,4.36a1.61,1.61,0,0,1-1.71.41c-1.26-.56-1.26-1.62-1.16-2.77.08-.81.62-1.73-.41-2.35l-.22-.15c.3-.77-.51-2.3.95-2.2S29.18,16.14,29.42,17.12Z"/><path class="cls-74" d="M26.94,18.59,24,20.5c0-.4.08-.79.09-1.19.1-3.09.1-3.09,2.88-1.69A.69.69,0,0,1,26.94,18.59Z"/><path class="cls-75" d="M26.93,15.24c-.91-.83-.35-1.63,0-2.45-.17-.21-.13-.38.11-.5C27.92,13.32,26.66,14.24,26.93,15.24Z"/><path class="cls-19" d="M27.07,12.29c0,.17-.07.34-.11.5-1,0-1-.74-1-1.45l0,0c.5-.27.66.15.89.43l.12.14A1,1,0,0,0,27.07,12.29Z"/><path class="cls-73" d="M26.94,18.59c0-.32,0-.65,0-1,.15-.34.29-.67.44-1l.11.07c.53.95,1,1.9-.52,2.4Z"/><path class="cls-76" d="M26.89,11.74,26,11.31c0-.56-.07-1.13.47-1.52A2.92,2.92,0,0,1,26.89,11.74Z"/><path class="cls-31" d="M46.83,13.74c0,.69.22,1.43-.47,2-.49.32-.67,1-1.36,1.11a.77.77,0,0,1-.58-.64,3.4,3.4,0,0,0-.06-.46v-.53h0c.61-.54,1.64-.46,2-1.38Z"/><path class="cls-77" d="M46.36,13.79c.1,1.53-.93,1.47-2,1.38C44.53,14,45.71,14.25,46.36,13.79Z"/><path class="cls-78" d="M48.28,15.69c-.87-.93-.47-1.87,0-2.82a.9.9,0,0,1,.46,0v.93C48.23,14.33,49,15.19,48.28,15.69Z"/><path class="cls-79" d="M44.92,16.67c.48-.33.68-1.06,1.44-1,0,.15,0,.3,0,.45,0,.3-.28.35-.45.5L46.32,20c-1.12-.17-2.24-.93-3.34,0l-.53-.5c-.48-.31,0-.65,0-1a1.17,1.17,0,0,1,.57-.78A7,7,0,0,0,44.92,16.67Z"/><path class="cls-80" d="M38.58,22c.39-1.4-1.55-1.66-1.43-2.92,1.09-1.35,1.91-1.14,2.6.39a5.7,5.7,0,0,1,.3,2.58A1,1,0,0,1,38.58,22Z"/><path class="cls-81" d="M42.43,21.51c-.49.81-.28,2-1.42,2.46a1.23,1.23,0,0,1-1.45,0l0-.45c.17-.38.58-.49.84-.78,0-.09.06-.18.1-.27s0-.28.07-.42C41,21,41.37,20,42.43,21.51Z"/><path class="cls-82" d="M42.43,21.51c-.85-.69-1.36-.06-1.89.49,0-1.37-.23-2.92,1.9-1.44C42.43,20.88,42.43,21.2,42.43,21.51Z"/><path class="cls-83" d="M38.58,22l1.47,0,.42.36.08.08c.1,1.24-1.18.33-1.48,1C38,23.27,37.8,22.81,38.58,22Z"/><path class="cls-6" d="M42.92,18.11l-.49.49a1,1,0,0,1-.93-.49c0-.32,0-.64,0-1,.41-.31.71,0,1,.2A1.22,1.22,0,0,1,42.92,18.11Z"/><path class="cls-84" d="M39.56,23.92,41,24a1.72,1.72,0,0,1-2.45,0Z"/><path class="cls-85" d="M39.07,23.46l1.48-1c.63,1.35-.58.75-1,1Z"/><path class="cls-86" d="M42.47,17.64l-1-.49c0-.32,0-.65,0-1l1.47,0a1.08,1.08,0,0,1-.22,1.25Z"/><path class="cls-86" d="M42.92,18.11l-.45-.47,0,0c.32-.63,1-.85,1.42-1.41l.51,0c.17.16.34.33.5.5C45,18.19,44,18.19,42.92,18.11Z"/><path class="cls-87" d="M43.91,16.2c.61,1.56-1.1.78-1.42,1.41L43,16.2Z"/><path class="cls-88" d="M48.28,15.69c.08-.65-.21-1.39.45-1.92a1.69,1.69,0,0,0,.92,1.43c0,.16,0,.32,0,.49C49.2,15.55,48.75,16.25,48.28,15.69Z"/><path class="cls-89" d="M51.21,15.21c1.13.26,2,.66,1,2Z"/><path class="cls-90" d="M28.89,21.51l2,0,1.33.12c.07.28.14.55.22.82-1.16.3-2.47-.4-3.53.54A3.7,3.7,0,0,1,26,23H23.54a1.48,1.48,0,0,1,1-1.45C26,22.38,27.43,21.29,28.89,21.51Z"/><path class="cls-35" d="M45.87,16.65l.45-.5a3,3,0,0,1,2.44,1.51Z"/><path class="cls-91" d="M23.08,60.32l-.49-.49c1.22-1,2.51-.06,3.77-.14a2.41,2.41,0,0,1,1.09.46c.45.73.22,1.25-.51,1.61C25.35,62.1,24.19,61.29,23.08,60.32Z"/><path class="cls-92" d="M29.38,63.2h-1c-1.06-1.52,0-2.44,1-3.35.51-.08.62-.32.29-.74a.78.78,0,0,1,.4-.55,2.29,2.29,0,0,1,1.78-.06,1,1,0,0,1,.64,1.16,2.05,2.05,0,0,1-1,1,3.74,3.74,0,0,0-1.82,2.07A1.6,1.6,0,0,1,29.38,63.2Z"/><path class="cls-93" d="M20.14,60.83c.54-.65-.21-1.3,0-1.95.62,1.25,2.65,1.47,2.44,3.33l-2.35-.07C20.21,61.71,20.17,61.27,20.14,60.83Z"/><path class="cls-94" d="M29.86,59.84c-.69,1-1.81,1.87-1.45,3.35-1.07.13-.83-1.1-1.47-1.43l.5-1.44A1.74,1.74,0,0,1,29.86,59.84Z"/><path class="cls-95" d="M29.38,63.2v-.47a1.91,1.91,0,0,1,1.49-1,6.53,6.53,0,0,1,1.53,0,1.61,1.61,0,0,1,1.33.67,5.62,5.62,0,0,1-3.38.91Z"/><path class="cls-96" d="M37.61,62.28a4.34,4.34,0,0,0-3.39-.06.82.82,0,0,1,0-.65,2.88,2.88,0,0,1,2-1.18,1.77,1.77,0,0,1,1,.24c.47.45.84.92.33,1.57Z"/><path class="cls-97" d="M34.22,61.78v.44l-.49.11-1.48-.08A1.57,1.57,0,0,1,32,60.5a1,1,0,0,1,.89-.47c.77.17.93.88,1.25,1.44Z"/><path class="cls-98" d="M52.17,58.37c-1.22.1-1.47-.58-1.47-1.64,0-7,0-14,0-21,0-.52-.19-1.29.6-1.35.58,0,1,.52,1.17,1.07a8.09,8.09,0,0,1,.16,1.91q0,10.5,0,21C52.49,58.57,52.33,58.59,52.17,58.37Z"/><path class="cls-99" d="M53.64,59.83c0,.15,0,.3,0,.45a2.33,2.33,0,0,1-2.9.52c-.49-1.14-1.51-1-2.44-1l.49-.48a5,5,0,0,1,2.92-.48C52,59.8,53,59.4,53.64,59.83Z"/><path class="cls-100" d="M52.17,58.37h.48a1.58,1.58,0,0,0,1-1h.49c-.07,1.26-.89,1.51-1.94,1.45Z"/><path class="cls-100" d="M53.64,59.83c-.77-.09-1.79.33-2-1h.48c.51.7,1.28.41,1.95.5Z"/><path class="cls-96" d="M35.68,56.43l.48.49v1.93l-.25.21c-.58.27-1.08.71-1.68.94a.84.84,0,0,1-.6-.14c-.44-.67.19-1.39-.09-2.07a1.12,1.12,0,0,1,.17-.59C34.3,56.75,34.8,56.11,35.68,56.43Z"/><path class="cls-101" d="M39.56,57.89c.68.7,3,1.07.47,2.4a.84.84,0,0,1-.55.28,1,1,0,0,1-.57-.25,1.35,1.35,0,0,1-.21-.6,1.1,1.1,0,0,1,.37-.86A1,1,0,0,0,39.56,57.89Z"/><path class="cls-102" d="M39.07,58.86v1c-1.07-.33-.49.82-.94,1.06-1,0-1.23-.79-1.65-1.42a.65.65,0,0,1,.16-.61C37.45,57.35,38.26,59.66,39.07,58.86Z"/><path class="cls-103" d="M36.65,56.92c0-.65,0-1.3,0-1.94C37,55.63,38.35,56.28,36.65,56.92Z"/><path class="cls-103" d="M36.64,58.86c0,.16,0,.32,0,.48.23.47.75.84.47,1.47l-.94,0a1.31,1.31,0,0,1,0-1.93h.49Z"/><path class="cls-104" d="M32.29,56c1.5-.14,1.45-1.24,1.45-2.32,0-5,.06-10,0-15-.06-3.12.86-6.14.68-9.27C36.3,37.8,36.19,46.39,36.16,55c-.45.09-.68-.18-.87-.52-.57-2-.13-4.07-.31-6-.26,2.38.21,4.86-.34,7.31a2.1,2.1,0,0,1-2,1.43.72.72,0,0,1-.51-.89Z"/><path class="cls-105" d="M27.92,25.38l1-1c2.11,0,2.76.66,3.63,3.8v.87q0,12,0,24a4.6,4.6,0,0,1-.22,2.38V56h0c-.36.84-.57,1.81-1.7,2-1,.11-1.93.26-2.69-.55.38-.53.95-.44,1.49-.48,1.12-.51,1.29-1.4,1.28-2.57-.07-6.05,0-12.1-.07-18.14,0-2,1.08-3.93.24-5.94v0a3.93,3.93,0,0,0-2-3.47A2.28,2.28,0,0,1,27.92,25.38Z"/><path class="cls-106" d="M32.29,55.47V28.3c.16-.23.32-.21.48,0q0,12.33,0,24.66C32.75,53.8,33.07,54.75,32.29,55.47Z"/><path class="cls-107" d="M32.77,28.3h-.48c0-.16,0-.32,0-.48a5.57,5.57,0,0,0-4.36-4.37c-.67-.07-1.42.22-1.93-.47l2.9,0C32.19,23.19,32.75,24,32.77,28.3Z"/><path class="cls-108" d="M32.3,56.93c.84,0,1.26-.71,1.92-1,.49-.48.16-1.79,1.46-1.46l.48.49-.48,1.45c-.67.29-1.1,1-1.94,1C33.09,57.75,32.47,58,32.3,56.93Z"/><path class="cls-109" d="M48.29,32.67V51.43a37.83,37.83,0,0,1-.49,8.37c-1,0-2.09.06-3.13,0A3.41,3.41,0,0,1,41,56.1c0-6.35,0-12.7,0-19.05,0-1.71,0-3.33-1.15-4.77-.62-.81-.89-1.74.16-2.52.79.71.68,2,1.64,2.6a3.42,3.42,0,0,1,.9,1.29,9.55,9.55,0,0,1,.62,4q0,8.85,0,17.68a12.54,12.54,0,0,0,.06,1.94,1.44,1.44,0,0,0,1.55,1.23c.86,0,1.05-.57,1.15-1.26a14.92,14.92,0,0,0,.12-2.41c0-5.57,0-11.14,0-16.71a11.27,11.27,0,0,1,.48-3.83C46.86,33.49,47.08,32.56,48.29,32.67Z"/><path class="cls-110" d="M41.5,62.74H41c-.41-.27-.83-.57-.63-1.14.3-.87,1.07-.44,1.65-.54,1,.1,1.94-.23,2.87.22h2.43c0,.12.07.24.11.35a.94.94,0,0,1-.48.52c-1.26.46-2.53.06-3.8,0-.13,0-.25-.18-.39,0a.44.44,0,0,1,.17.6Z"/><path class="cls-111" d="M50.72,60.8l2.9-.52a1,1,0,0,1,.48,1l-1.45,1.45a.39.39,0,0,1-.54.1c-.32-.92-1.28-1-1.94-1.46a.4.4,0,0,1,.1-.56Z"/><path class="cls-112" d="M41,32.66a3.19,3.19,0,0,1-1-2.9c.33-.57.91-.47,1.43-.52l.53.06c.27.92-.47,1.65-.47,2.52A1.53,1.53,0,0,1,41,32.66Z"/><path class="cls-113" d="M42,61.27c-1.15-.06-1.65.31-1,1.46h-1c-.59-.72-1.16-1.44-.49-2.41l.47,0L42,60.8c.16.1.22.2.17.31S42,61.27,42,61.27Z"/><path class="cls-100" d="M50.27,60.82a3.57,3.57,0,0,0,0,.46,2.11,2.11,0,0,1-2.92,0l0-.06C48.21,60.42,49.29,60.94,50.27,60.82Z"/><path class="cls-109" d="M42,61.27c0-.16,0-.32,0-.47,1,.13,2.06-.35,2.93.47Z"/><path class="cls-114" d="M48.29,32.67c-1.46,1.23-1.42,3-1.43,4.62,0,6.53,0,13.06,0,19.6,0,1.15.38,2.52-1.63,2.48-1.78,0-2.74-.69-2.74-2.56,0-6.21,0-12.42,0-18.63a27.13,27.13,0,0,0-.51-5c2.06.06,2.42,1.44,2.43,3.11q0,9.18,0,18.36c0-5.7,0-11.39,0-17.09,0-1.84.13-3.5,1.58-4.86.79-.73.79-1.9,1.18-2.86a.78.78,0,0,1,1.13-.06C49.28,30.73,48.89,31.7,48.29,32.67Z"/><path class="cls-115" d="M48.28,29.76h-1a2.49,2.49,0,0,1-1.74.07c-.9-.28-1.92-.27-2.62-1,1.91-1.34,3.56.1,5.32.48Z"/><path class="cls-116" d="M43,28.79l2.91.49c1,.83,1.76,1.69.65,3S44.23,34,42.72,33A8.26,8.26,0,0,1,41,31.68c-.2-1,.5-1.65,1-2.38Z"/><path class="cls-117" d="M52.17,62.74h.48a3.2,3.2,0,0,0-.47,1.93H50.72a1.49,1.49,0,0,1-.14-2A1.17,1.17,0,0,1,52.17,62.74Z"/><path class="cls-118" d="M43,62.73l-1.33-1h5.7c.52-.42,1.13-.16,1.69-.2a.51.51,0,0,1,.41.48.88.88,0,0,1-.42.54,18.22,18.22,0,0,1-2.75.5,3.11,3.11,0,0,1-1.34-.32Z"/><path class="cls-119" d="M48.77,65.17a1,1,0,0,1-1,.48c-1,0-2-.1-1-1.46a1.29,1.29,0,0,1,.56-.36,1.48,1.48,0,0,1,1,.17C48.73,64.32,49.05,64.64,48.77,65.17Z"/><path class="cls-120" d="M47.32,64.19h-.49l-1.92-1.43,1.45,0c.56-.4,1.18-.19,1.79-.18C48.88,63.61,47.76,63.73,47.32,64.19Z"/><path class="cls-121" d="M48.77,65.17l-.48-1a2.47,2.47,0,0,1,1.5-1.69.88.88,0,0,1,.92.25c0,.65,0,1.29,0,1.93A3.42,3.42,0,0,1,48.77,65.17Z"/><path class="cls-122" d="M39.56,63.7l-.49-.47c-.38-.66-1.28-1.09-1-2.08a1,1,0,0,1,1,0c.36.48.92.91.41,1.6Z"/><path class="cls-123" d="M39.57,62.73l-.5-1.44a.7.7,0,0,1,0-1l.47,0c.17.8.33,1.61.49,2.41h-.48Z"/><path class="cls-124" d="M38.11,61.28c.27.68,1,1.11,1,1.95-.77.06-1-.69-1.45-1-.16-.47-.33-.93-.49-1.39s-.31-1-.47-1.47L38.1,60.8c.13.11.17.21.13.32S38.15,61.28,38.11,61.28Z"/><path class="cls-67" d="M26,56.91c1.05-7.34.24-14.72.49-22.08,0-1,0-2.09,0-3.13.45-.38.54-1.3,1.46-1a12.74,12.74,0,0,0-.5,4c0,6.68,0,13.36,0,20C27.43,55.84,27.66,57,26,56.91Z"/><path class="cls-125" d="M30.34,55.46c-.67-.55-.47-1.32-.47-2q0-9.07,0-18.15c0-.81-.39-1.88,1-2.12.52,2.93.17,5.89.22,8.84.07,3.85.05,7.7,0,11.54C31,54.19,31.64,55.22,30.34,55.46Z"/><path class="cls-126" d="M30.34,55.46c.79-.71.47-1.66.47-2.5,0-6.6,0-13.2,0-19.81V30.26c.68.55.48,1.32.48,2q0,10.86,0,21.72c0,1.34.16,2.91-1.93,2.91Z"/><path class="cls-126" d="M28.88,26.36c1.86.69,2,2.21,1.94,3.87-.81-.67-.2-2.48-1.93-2.41-.56.31-.7-.22-1-.49h0c-.37-.29-.89-.54-.39-1.13A1.15,1.15,0,0,1,28.88,26.36Z"/><path class="cls-127" d="M27.92,27.33l1,.49a3.67,3.67,0,0,1-1,2.91l-1.46,1C26.65,30.14,28.88,29.27,27.92,27.33Z"/><path class="cls-128" d="M27.89,57.39h2.94a.52.52,0,0,1-.21.74A5.23,5.23,0,0,1,26,57.89V57.4Z"/><path class="cls-129" d="M27,27.33A1.72,1.72,0,0,1,26.43,30c-1,.73-2,.9-2.88-.21.42-.62,1.34-.45,1.76-1.14-.25-.87-1-.74-1.48-.52-.84.35.12,1.14-.28,1.66l-1.93-.49c-1.33-.87-1.07-1.82,0-2.66A3.74,3.74,0,0,1,27,27.33Z"/><path class="cls-130" d="M27,27.33a4.77,4.77,0,0,0-4.23-.64c-1.49.54-1.92,1.21-1.1,2.58v1a3.07,3.07,0,0,1-1.47-2.9c-.17-.91.47-1.15,1.12-1.4,1.32-.1,2.56-.69,3.93-.55.87.08,1.73.09,2.23,1,.16.33.33.65.49,1Z"/><path class="cls-70" d="M21.13,55.46h-.48q0-12.36,0-24.72c.8.71.47,1.65.48,2.5C21.14,40.65,21.13,48.05,21.13,55.46Z"/><path class="cls-70" d="M21.13,26.36a1.67,1.67,0,0,0-1,1l-.51,0c0-.48,0-1,0-1.44l2.41-.49C22.4,26.34,21.34,25.93,21.13,26.36Z"/><path class="cls-131" d="M21.13,26.36l1-1c1.94-.52,3.87-.88,5.82,0l1,1H27.43C25.33,25.52,23.23,25.94,21.13,26.36Z"/><path class="cls-106" d="M27.92,23.45c3.43.54,3.83.94,4.36,4.37-1.13-1.13-1.37-3.15-3.39-3.4C28.57,24.1,28.24,23.78,27.92,23.45Z"/><path class="cls-132" d="M26.47,60.31l-3.88-.48c-.68-.82,0-.92.56-.95,1.1,0,2.21,0,3.32,0l.31,0c.53.06,1.08.07,1.27.73C27.81,60.42,26.86,59.78,26.47,60.31Z"/><path class="cls-133" d="M26,57.89h4.85a.45.45,0,0,1-.23.68c-1.4.28-2.8.73-4.15-.17l-.94,0Z"/><path class="cls-134" d="M26.45,58.4l4.38,0a.77.77,0,0,1,1-.11.46.46,0,0,1,.12.4c0,.14-.07.21-.1.21l-1.95,0c-1.13.84-2.26.2-3.39,0v0C26.47,58.7,26.46,58.55,26.45,58.4Z"/><path class="cls-135" d="M28.89,21.51c-1.46.8-2.91,2-4.37,0A7.65,7.65,0,0,0,27,19.09c.78-.67.36-1.6.52-2.4.33,0,.51-1.11.93-.2A2.8,2.8,0,0,1,28.68,19,2.49,2.49,0,0,0,28.89,21.51Z"/><path class="cls-136" d="M26.47,60.31l1.45-1a1.9,1.9,0,0,1,1.94,0c.33.17.32.33,0,.5l-2.42.48Z"/><path class="cls-105" d="M31.8,58.86v-.48a1.9,1.9,0,0,1,1.94-.49c1.66.65-.61,1.28,0,1.93a.57.57,0,0,1-.48.49l-1,0c-.13-.11-.18-.22-.14-.34s.08-.18.12-.18A1,1,0,0,0,31.8,58.86Z"/><path class="cls-137" d="M30.83,62.25l-1.45.48c.15-1.2.52-2.22,1.93-2.42C31.94,61.15,31.35,61.69,30.83,62.25Z"/><path class="cls-138" d="M30.83,62.25l.48-1.94a1.06,1.06,0,0,1,1-.5c0,.18,0,.35,0,.52,0,.64,0,1.28,0,1.92Z"/><path class="cls-139" d="M29.86,59.34H27.92c-.53,0-1.1.06-1.46-.47h3.39C29.86,59,29.86,59.19,29.86,59.34Z"/><path class="cls-140" d="M36.15,58.86l0,1.93-2,1h0a1.41,1.41,0,0,1,0-1.94C34.67,59.11,35.05,58.26,36.15,58.86Z"/><path class="cls-141" d="M34.22,59.83v1.94c-1-.05-1-.76-1-1.46l.48-.49Z"/><path class="cls-106" d="M33.74,57.89a3.41,3.41,0,0,1-1.94.49l-1,0v-1c.49-.48,1-1,1.45-1.45,0,.32,0,.65,0,1,.35.56.92.44,1.44.47Z"/><path class="cls-142" d="M38.11,61.28c0-.16,0-.32,0-.48,0-.6-.21-1.51,1-1,0,.15,0,.3,0,.45,0,.34,0,.67,0,1Z"/><path class="cls-143" d="M35.68,54.49,34.22,56c.23-3.3-.61-6.69.78-9.88l.68,0Z"/><path class="cls-144" d="M41,31.68a2.54,2.54,0,0,1,1.5.73,2.55,2.55,0,0,0,3.5-.16c1.37-1.09.17-2-.15-3l1.45.48c.74,1.51,0,2.7-1,3.61a4.74,4.74,0,0,0-1.42,3.9c.06,6.13,0,12.26,0,18.4a4,4,0,0,1-.33,2.46c-1-.59-.6-1.55-.61-2.31,0-6.29-.06-12.58,0-18.88,0-1.71-.43-3-2-3.78l-1-.5Z"/><path class="cls-145" d="M50.71,62.75h-1a.4.4,0,0,1-.56.07.43.43,0,0,1,.07-.57h0c.7-.48,1.52-.06,2.17-.29-.68,0-1.45.25-2.18-.18l-1.93,0c0-.15,0-.3,0-.44l2.92,0c.71.4,2.77-1,1.94,1.46Z"/><path class="cls-146" d="M45.06,31c-.26.66-.84.7-1.39.61s-1.35-.21-1.25-.81c.13-.8,1-.58,1.62-.57S45,30.41,45.06,31Z"/><path class="cls-147" d="M49.26,62.25v.48a.64.64,0,0,1-1,0l-1.93,0C47.21,61.87,48.29,62.41,49.26,62.25Z"/><path class="cls-147" d="M49.25,61.78h1.89l0,.38-1.9.09C49.26,62.1,49.26,61.94,49.25,61.78Z"/><path class="cls-148" d="M48.29,62.75l1,0,.49,0a3.14,3.14,0,0,1-1.46,1.44h-1Z"/><path class="cls-149" d="M23.55,29.76c0-.85-2-.93-1-2,.8-.86,2.09-.54,3.15-.21a1.38,1.38,0,0,1,.63.91.91.91,0,0,1-.69,1.1,16.53,16.53,0,0,1-2.12.19Z"/></g></g></svg>