<svg xmlns="http://www.w3.org/2000/svg" viewBox="0 0 74 74"><defs><style>.cls-1{fill:#1e2223;}.cls-2{fill:#6a7073;}.cls-3{fill:#4d504f;}.cls-4{fill:#b0b2b3;}.cls-5{fill:#707578;}.cls-6{fill:#40474b;}.cls-7{fill:#343c41;}.cls-8{fill:#5c6265;}.cls-9{fill:#6c7073;}.cls-10{fill:#7c8082;}.cls-11{fill:#3a403e;}.cls-12{fill:#343c40;}.cls-13{fill:#444c50;}.cls-14{fill:#51595d;}.cls-15{fill:#3f484c;}.cls-16{fill:#464e52;}.cls-17{fill:#3b4146;}.cls-18{fill:#1f282f;}.cls-19{fill:#3b4247;}.cls-20{fill:#253036;}.cls-21{fill:#8d9093;}.cls-22{fill:#434a4f;}.cls-23{fill:#464e51;}.cls-24{fill:#5a6165;}.cls-25{fill:#353d43;}.cls-26{fill:#283237;}.cls-27{fill:#94989b;}.cls-28{fill:#5b6165;}.cls-29{fill:#2d373d;}.cls-30{fill:#6c7377;}.cls-31{fill:#2b353a;}.cls-32{fill:#5d6266;}.cls-33{fill:#3e454b;}.cls-34{fill:#293236;}.cls-35{fill:#252f33;}.cls-36{fill:#72777a;}.cls-37{fill:#454b50;}.cls-38{fill:#262d33;}.cls-39{fill:#b6b6b6;}.cls-40{fill:#1d2226;}.cls-41{fill:#212f36;}.cls-42{fill:#525a5f;}.cls-43{fill:#76787c;}.cls-44{fill:#555d61;}.cls-45{fill:#787c7f;}.cls-46{fill:#40453a;}.cls-47{fill:#4c5358;}.cls-48{fill:#87898d;}.cls-49{fill:#52585c;}.cls-50{fill:#1f2022;}.cls-51{fill:#232727;}.cls-52{fill:#3e423e;}.cls-53{fill:#6e7274;}.cls-54{fill:#626567;}.cls-55{fill:#a6a9ab;}.cls-56{fill:#7d8285;}.cls-57{fill:#5f656a;}.cls-58{fill:#5f6366;}.cls-59{fill:#828689;}.cls-60{fill:#3c4042;}.cls-61{fill:#9ba0a1;}.cls-62{fill:#9ea0a1;}.cls-63{fill:#858a8c;}.cls-64{fill:#858789;}.cls-65{fill:#3c3e37;}.cls-66{fill:#6a7157;}.cls-67{fill:#a4a5a6;}.cls-68{fill:#626667;}.cls-69{fill:#8f9877;}.cls-70{fill:#8b8f91;}.cls-71{fill:#5f6568;}.cls-72{fill:#7d8185;}.cls-73{fill:#8f9395;}.cls-74{fill:#77797d;}.cls-75{fill:#63686c;}.cls-76{fill:#acaeb0;}.cls-77{fill:#868a8c;}.cls-78{fill:#2c3135;}.cls-79{fill:#757a7d;}.cls-80{fill:#5a5d60;}.cls-81{fill:#31383e;}.cls-82{fill:#606568;}.cls-83{fill:#434648;}.cls-84{fill:#4b4b4b;}.cls-85{fill:#5d6158;}.cls-86{fill:#8e9193;}.cls-87{fill:#727578;}.cls-88{fill:#dbdbdc;}.cls-89{fill:#676c70;}.cls-90{fill:#a6a7a9;}.cls-91{fill:#40474c;}.cls-92{fill:#5c6166;}.cls-93{fill:#8a8e91;}.cls-94{fill:#63686d;}.cls-95{fill:#bebebf;}.cls-96{fill:#999d9d;}.cls-97{fill:#616567;}.cls-98{fill:#4d555a;}.cls-99{fill:#394044;}.cls-100{fill:#989a9c;}.cls-101{fill:#1f1f1e;}.cls-102{fill:#1f2a30;}.cls-103{fill:#3d4449;}.cls-104{fill:#555b60;}.cls-105{fill:#475157;}.cls-106{fill:#3d484e;}.cls-107{fill:#203845;}.cls-108{fill:#ababab;}.cls-109{fill:#dedede;}.cls-110{fill:#c6c7c7;}.cls-111{fill:#bababa;}.cls-112{fill:#c8c8c8;}.cls-113{fill:#ccc;}.cls-114{fill:#cecece;}.cls-115{fill:#787d7f;}.cls-116{fill:#9a9c9e;}.cls-117{fill:#afb1b3;}.cls-118{fill:#919597;}.cls-119{fill:#8d9294;}.cls-120{fill:#685c45;}.cls-121{fill:#433a2a;}.cls-122{fill:#7b6e4a;}.cls-123{fill:#576164;}.cls-124{fill:#a2a4a6;}.cls-125{fill:#b1b2b3;}.cls-126{fill:#7e8285;}.cls-127{fill:#5f6264;}.cls-128{fill:#a2a6a8;}.cls-129{fill:#4f5254;}.cls-130{fill:#484c4e;}.cls-131{fill:#696d6f;}.cls-132{fill:#9fa1a3;}.cls-133{fill:#555b5f;}.cls-134{fill:#aaabab;}.cls-135{fill:#b5b5b5;}.cls-136{fill:#21272b;}.cls-137{fill:#21292c;}.cls-138{fill:#7b7563;}.cls-139{fill:#222221;}.cls-140{fill:#878064;}.cls-141{fill:#455056;}.cls-142{fill:#443a28;}.cls-143{fill:#535d61;}.cls-144{fill:#74777b;}.cls-145{fill:#797d80;}.cls-146{fill:#4f4d45;}.cls-147{fill:#76735e;}.cls-148{fill:#888a8d;}.cls-149{fill:#4d5459;}.cls-150{fill:#54380e;}.cls-151{fill:#948253;}.cls-152{fill:#694c13;}.cls-153{fill:#806215;}.cls-154{fill:#6f520f;}.cls-155{fill:#8d8276;}.cls-156{fill:#593d13;}.cls-157{fill:#745e3e;}.cls-158{fill:#948045;}.cls-159{fill:#826b32;}.cls-160{fill:#a4a097;}.cls-161{fill:#7e6122;}.cls-162{fill:#a78e4b;}.cls-163{fill:#947f3e;}.cls-164{fill:#695941;}.cls-165{fill:#b1b3b5;}.cls-166{fill:#8e9395;}.cls-167{fill:#73787b;}.cls-168{fill:#929292;}.cls-169{fill:#9f9f9f;}.cls-170{fill:#7c7c7c;}.cls-171{fill:#878787;}.cls-172{fill:#d9d9d9;}.cls-173{fill:#e3e3e3;}.cls-174{fill:#d1d1d1;}.cls-175{fill:#f8f8f8;}.cls-176{fill:#f2f2f2;}.cls-177{fill:#373c3f;}.cls-178{fill:#4f5458;}.cls-179{fill:#6a6e70;}.cls-180{fill:#7b7d7e;}.cls-181{fill:#4a4a4a;}.cls-182{fill:#2c2d27;}.cls-183{fill:#7f8c57;}.cls-184{fill:#545b3d;}.cls-185{fill:#adb988;}.cls-186{fill:#363c3f;}.cls-187{fill:#616366;}.cls-188{fill:#3f464a;}.cls-189{fill:#3f4548;}.cls-190{fill:#7f8184;}.cls-191{fill:#5e6366;}.cls-192{fill:#464c50;}.cls-193{fill:#797e7f;}.cls-194{fill:#33373a;}.cls-195{fill:#272727;}.cls-196{fill:#63686a;}.cls-197{fill:#393938;}.cls-198{fill:#323638;}.cls-199{fill:#6d7551;}.cls-200{fill:#373737;}.cls-201{fill:#90957c;}.cls-202{fill:#707465;}.cls-203{fill:#7c8166;}.cls-204{fill:#959d7b;}.cls-205{fill:#cdcdcd;}.cls-206{fill:#888;}.cls-207{fill:#8f9194;}.cls-208{fill:#a2a2a2;}.cls-209{fill:#c2c3c3;}.cls-210{fill:#8a8e90;}.cls-211{fill:#b5b7b8;}.cls-212{fill:#909195;}.cls-213{fill:#ececed;}.cls-214{fill:#696969;}.cls-215{fill:#828282;}.cls-216{fill:#9b9b9b;}.cls-217{fill:#b6b8b9;}.cls-218{fill:#bebebe;}.cls-219{fill:#dcdcdc;}.cls-220{fill:#292c1c;}.cls-221{fill:#64696c;}.cls-222{fill:#354046;}.cls-223{fill:#3e4143;}.cls-224{fill:#696e72;}.cls-225{fill:#343e43;}.cls-226{fill:#3d454a;}.cls-227{fill:#5b6167;}.cls-228{fill:#787777;}.cls-229{fill:#5a3d0f;}.cls-230{fill:#8b5d00;}.cls-231{fill:#b28a2c;}.cls-232{fill:#60410a;}.cls-233{fill:#5d6447;}.cls-234{fill:#784f03;}.cls-235{fill:#885d01;}.cls-236{fill:#40472c;}.cls-237{fill:#aa9660;}.cls-238{fill:#937225;}.cls-239{fill:#6d7945;}.cls-240{fill:#38362e;}.cls-241{fill:#977610;}.cls-242{fill:#ac842b;}.cls-243{fill:#758052;}.cls-244{fill:#cfc9be;}.cls-245{fill:#6d5818;}.cls-246{fill:#9c8952;}.cls-247{fill:#a09c94;}.cls-248{fill:#7a6026;}.cls-249{fill:#3f4927;}.cls-250{fill:#989894;}.cls-251{fill:#52595d;}.cls-252{fill:#c3c4c4;}.cls-253{fill:#767b7d;}.cls-254{fill:#d9dada;}.cls-255{fill:#94989a;}.cls-256{fill:#9d9d9d;}.cls-257{fill:#949494;}.cls-258{fill:#eaeaea;}.cls-259{fill:#ebebeb;}.cls-260{fill:#c5a966;}.cls-261{fill:#b69967;}.cls-262{fill:#9a8259;}.cls-263{fill:#f1f1f1;}.cls-264{fill:#d5d5d5;}.cls-265{fill:#767676;}.cls-266{fill:#c7c7c7;}.cls-267{fill:#686868;}.cls-268{fill:gray;}.cls-269{fill:#6d6d6d;}.cls-270{fill:#41474b;}.cls-271{fill:#4b5054;}.cls-272{fill:#505558;}.cls-273{fill:#5b5f63;}.cls-274{fill:#808181;}.cls-275{fill:#575d60;}.cls-276{fill:#505559;}.cls-277{fill:#485054;}.cls-278{fill:#ababac;}.cls-279{fill:#ddd;}.cls-280{fill:#c7c7c8;}.cls-281{fill:#b9b9b9;}.cls-282{fill:#cfcfcf;}.cls-283{fill:#999a9b;}.cls-284{fill:#383523;}.cls-285{fill:#4b4a4a;}.cls-286{fill:#e0cc98;}.cls-287{fill:#c0ac84;}.cls-288{fill:#937511;}.cls-289{fill:#b1b2b4;}.cls-290{fill:#926506;}.cls-291{fill:#8c7a54;}.cls-292{fill:#a3a5a6;}.cls-293{fill:#885c05;}.cls-294{fill:#6b4408;}.cls-295{fill:#ab7c07;}.cls-296{fill:#c09005;}.cls-297{fill:#d5a728;}.cls-298{fill:#a27405;}.cls-299{fill:#b78a19;}.cls-300{fill:#c49f36;}.cls-301{fill:#e2c770;}.cls-302{fill:#f7f2e0;}.cls-303{fill:#ba8c22;}.cls-304{fill:#fed967;}.cls-305{fill:#e5c86e;}.cls-306{fill:#868686;}.cls-307{fill:#b0b0b0;}.cls-308{fill:#858585;}.cls-309{fill:#a4a4a4;}.cls-310{fill:#7f7f7f;}.cls-311{fill:#a1a1a1;}.cls-312{fill:#a8a8a8;}.cls-313{fill:#6b6b6b;}.cls-314{fill:#919191;}.cls-315{fill:#8d8d8d;}.cls-316{fill:#939393;}.cls-317{fill:#707070;}.cls-318{fill:#989899;}.cls-319{fill:#999;}.cls-320{fill:#8e8e8e;}.cls-321{fill:#9e9e9e;}.cls-322{fill:#8a8a8a;}.cls-323{fill:#aaa;}.cls-324{fill:#d3d3d3;}.cls-325{fill:#bfbfbf;}.cls-326{fill:#393b32;}.cls-327{fill:#25281f;}.cls-328{fill:#272d31;}.cls-329{fill:#282a21;}.cls-330{fill:#7b865f;}.cls-331{fill:#37411b;}.cls-332{fill:#69724f;}.cls-333{fill:#92a164;}.cls-334{fill:#c9d4ab;}.cls-335{fill:#666c6f;}.cls-336{fill:#8a8c8e;}.cls-337{fill:#aeb0b1;}.cls-338{fill:#949698;}.cls-339{fill:#bcbdbe;}.cls-340{fill:#838688;}.cls-341{fill:#1e2427;}.cls-342{fill:#6b7073;}.cls-343{fill:#4b4e46;}.cls-344{fill:#878b8e;}.cls-345{fill:#555948;}.cls-346{fill:#62655b;}.cls-347{fill:#8f996e;}.cls-348{fill:#b3bd94;}.cls-349{fill:#dee5c6;}.cls-350{fill:#e4e4e4;}.cls-351{fill:#b1b1b1;}.cls-352{fill:#d7d7d8;}.cls-353{fill:#dadada;}.cls-354{fill:#c5c5c5;}.cls-355{fill:#54585b;}.cls-356{fill:#707171;}.cls-357{fill:#787878;}.cls-358{fill:#7b7b7b;}.cls-359{fill:#515151;}.cls-360{fill:#5b5b5b;}.cls-361{fill:#30373c;}.cls-362{fill:#3c4144;}.cls-363{fill:#9d9fa0;}.cls-364{fill:#616b3e;}.cls-365{fill:#485717;}.cls-366{fill:#1b1b1a;}.cls-367{fill:#333726;}.cls-368{fill:#485817;}.cls-369{fill:#dbdbdb;}.cls-370{fill:#cecfcf;}.cls-371{fill:#a7a8a9;}.cls-372{fill:#4a4b4c;}.cls-373{fill:#444a4e;}.cls-374{fill:#aeaeaf;}.cls-375{fill:#cccdce;}.cls-376{fill:#c3c5c7;}.cls-377{fill:#afb0b2;}.cls-378{fill:#5e6c30;}.cls-379{fill:#5e6d31;}.cls-380{fill:#3d4030;}.cls-381{fill:#627137;}.cls-382{fill:#7e8568;}.cls-383{fill:#9aa188;}.cls-384{fill:#959c81;}.cls-385{fill:#49542a;}.cls-386{fill:#f4eee0;}.cls-387{fill:#efc555;}.cls-388{fill:#9ea686;}.cls-389{fill:#95a564;}.cls-390{fill:#abc065;}.cls-391{fill:#757e59;}.cls-392{fill:#c9dd89;}.cls-393{fill:#94aa4c;}.cls-394{fill:#e0c470;}.cls-395{fill:#e7e2d4;}.cls-396{fill:#d1e1a0;}.cls-397{fill:#fafbf4;}.cls-398{fill:#d5d6d7;}.cls-399{fill:#a9a9a9;}.cls-400{fill:#c19b41;}.cls-401{fill:#8f8f8f;}.cls-402{fill:#636363;}.cls-403{fill:#818181;}.cls-404{fill:#797979;}.cls-405{fill:#5a5a5a;}.cls-406{fill:#5c5c5c;}.cls-407{fill:#333b3f;}.cls-408{fill:#2d3840;}.cls-409{fill:#192c37;}.cls-410{fill:#6b6c6c;}.cls-411{fill:#6e7072;}.cls-412{fill:#74797b;}.cls-413{fill:#818586;}.cls-414{fill:#919293;}.cls-415{fill:#a6a6a6;}.cls-416{fill:#5b5544;}.cls-417{fill:#a39d8b;}.cls-418{fill:#dbb956;}.cls-419{fill:#cca02a;}.cls-420{fill:#7a7a7a;}.cls-421{fill:#9a9a9a;}.cls-422{fill:#586534;}.cls-423{fill:#828d61;}.cls-424{fill:#9ca77d;}.cls-425{fill:#424b29;}.cls-426{fill:#d4dfb2;}.cls-427{fill:#bdca90;}.cls-428{fill:#d6e4aa;}.cls-429{fill:#fafcf5;}.cls-430{fill:#d8e4b7;}.cls-431{fill:#a3a3a3;}.cls-432{fill:#848484;}.cls-433{fill:#5c6739;}.cls-434{fill:#4f5834;}.cls-435{fill:#848d6e;}.cls-436{fill:#6c7551;}.cls-437{fill:#99a576;}.cls-438{fill:#616b46;}.cls-439{fill:#b1bc93;}.cls-440{fill:#c0c4b3;}.cls-441{fill:#89965f;}.cls-442{fill:#b3b3ae;}.cls-443{fill:#919f63;}.cls-444{fill:#6d7d3c;}.cls-445{fill:#4c5040;}.cls-446{fill:#eeefef;}.cls-447{fill:#a4b867;}.cls-448{fill:#99af54;}.cls-449{fill:#dde7bf;}.cls-450{fill:#b7c298;}.cls-451{fill:#e3ecc6;}.cls-452{fill:#d0d0d0;}.cls-453{fill:#838383;}.cls-454{fill:#6a734c;}.cls-455{fill:#93a657;}.cls-456{fill:#acc167;}.cls-457{fill:#cbde8a;}.cls-458{fill:#8c9e57;}.cls-459{fill:#929a7a;}.cls-460{fill:#b8cb80;}.cls-461{fill:#d6e6a6;}.cls-462{fill:#fafbf3;}.cls-463{fill:#cfdf9e;}.cls-464{fill:#a8be62;}.cls-465{fill:#70765f;}.cls-466{fill:#c8dc85;}</style></defs><title>heatfs</title><g id="레이어_2" data-name="레이어 2"><g id="레이어_1-2" data-name="레이어 1"><rect class="cls-1" width="74" height="74" rx="8.33" ry="8.33"/><path class="cls-2" d="M16.88,12.35l7.57,0a1.65,1.65,0,0,1,2-.09.89.89,0,0,1,.14,1c-.26.46-.72.43-1.15.45-.84,0-1.68,0-2.52,0-.37,0-.78,0-.86.52,0,.33-.05.65-.05,1a1.17,1.17,0,0,1-.31,1,.72.72,0,0,1-1-.11h0a.9.9,0,0,1-.37-.86,8.81,8.81,0,0,1,0-.89c0-.35-.08-.59-.47-.63s-.66-.08-1-.1c-.51-.05-.68.32-.86.68a.6.6,0,0,1-.26.16.75.75,0,0,1-.85-.25l0,0A1.22,1.22,0,0,1,16.88,12.35Z"/><path class="cls-3" d="M39.65,4.76l1,0c.73.83.32,1.81.35,2.73,0,.34,0,.69,0,1a1.3,1.3,0,0,1-.21,1c-.85.37-1.28.17-1.5-.69-.1-.37-.05-.83-.55-1s-.45-1-1.16-.81a1,1,0,0,1-.88-.33.72.72,0,0,1,.15-1l1.87,0C39,5.4,39.31,5.05,39.65,4.76Z"/><path class="cls-4" d="M50.64,12.31l3.22.06a.7.7,0,0,1,.26.79.66.66,0,0,1-.13.25,1.59,1.59,0,0,0-.92.93.63.63,0,0,1-.25.16,2,2,0,0,1-.93.1,1.36,1.36,0,0,1-.94-.22,3.09,3.09,0,0,0-.68-.72A.85.85,0,0,1,50,12.27.6.6,0,0,1,50.64,12.31Z"/><path class="cls-5" d="M50.09,5.69,50,6.64c-.4.33-.57.87-1,1.19a.94.94,0,0,1-.93-.1C47.65,7.08,47.66,6.2,47,5.6c-.22-.21-.07-.59.22-.81h1.85c.31.27.61.55.94.8C50.06,5.61,50.08,5.65,50.09,5.69Z"/><path class="cls-6" d="M47.26,4.79c0,.4-.08.83.52.93s.35.52.38.84,0,.69,0,1l-.09.14c-.28.29-.64.21-1,.22a1,1,0,0,1-1-.33,1.55,1.55,0,0,1,.18-1.92C46.19,5,46.52,4.66,47.26,4.79Z"/><path class="cls-7" d="M26.36,7.61v-1h4.74a.7.7,0,0,1,.09,1c-.59.51-1.31.31-2,.31a14.44,14.44,0,0,1-1.86,0C27,8,26.58,8,26.36,7.61Z"/><path class="cls-8" d="M46.28,5.71V7.59c-.21.39-.58.38-1,.36a1.32,1.32,0,0,1-1-.25,1.23,1.23,0,0,1-.26-1,.94.94,0,0,1,.38-1Z"/><path class="cls-9" d="M34,5.68l.92,0a1,1,0,0,1,.37,1,1.1,1.1,0,0,1-.3,1,2,2,0,0,1-2.06,0,1.86,1.86,0,0,1,0-2.07A.77.77,0,0,1,34,5.68Z"/><path class="cls-10" d="M40.61,7.61V4.78h.9a.93.93,0,0,1,.45.84,1.35,1.35,0,0,0,.52,1h0a.77.77,0,0,1,.09,1.06A1.49,1.49,0,0,1,40.61,7.61Z"/><path class="cls-11" d="M34.92,6.62l0-.9H36.8v.94a.72.72,0,0,1,.13,1c-.64.53-1.14.33-1.52-.32A6.38,6.38,0,0,0,34.92,6.62Z"/><path class="cls-12" d="M34,5.68l-1,.05a1,1,0,0,1-.92.32.94.94,0,0,1-.92-.32c-.12-.67.11-1,.84-1a9,9,0,0,0,1,0C33.71,4.69,34,5,34,5.68Z"/><path class="cls-13" d="M42.48,6.65c-.74.11-1-.22-1-.94,0-.31,0-.62,0-.93.76-.16,1,.18,1,.92C42.46,6,42.48,6.33,42.48,6.65Z"/><path class="cls-14" d="M31.14,5.73h.94a1.56,1.56,0,0,1,.15,1.89.78.78,0,0,1-1,.11l-.11-.15V6.64Z"/><path class="cls-15" d="M54.79,12.36c.74-.13,1,.15,1,.92s-.25,1.07-1,.93a.93.93,0,0,1-.32-.93A.92.92,0,0,1,54.79,12.36Z"/><path class="cls-16" d="M16.88,12.35v1.87c-.86.15-1-.35-1-1S16.23,12.25,16.88,12.35Z"/><path class="cls-17" d="M17.81,18.92c-.08-.64.18-.94.85-.9a8.88,8.88,0,0,0,1-.05.47.47,0,0,1,.24.22.82.82,0,0,1-.13.93,1.06,1.06,0,0,1-.92.22c-.31,0-.63.07-.91-.16A.5.5,0,0,1,17.81,18.92Z"/><path class="cls-18" d="M55.57,17.08a1.42,1.42,0,0,1,.2.94l-.1.16a1.61,1.61,0,0,1-1.89-.07.72.72,0,0,1,.06-1Z"/><path class="cls-19" d="M53.84,17.1l0,.9-.07.15a1,1,0,0,1-.92.24,1.32,1.32,0,0,1-1-.2.79.79,0,0,1-.2-.92.51.51,0,0,1,.24-.22l1.31,0Z"/><path class="cls-20" d="M20.66,15.19v.94c-.35,0-.7,0-1.05,0-.66.05-.93-.26-.86-.9a1,1,0,0,0,.07-.15c.25-.31.6-.27.94-.25A.91.91,0,0,1,20.66,15.19Z"/><path class="cls-21" d="M14,20l.92-.07a.76.76,0,0,1,1-.1.66.66,0,0,1,.21.31c0,1.2-.82,1.54-2.18.89A.69.69,0,0,1,14,20Z"/><path class="cls-22" d="M48.17,7.6l.94,0,.14.1a.66.66,0,0,1-.11.91l0,.92-.88,0-.16-.07c-.31-.25-.26-.6-.25-.94a.93.93,0,0,1,.36-.9Z"/><path class="cls-23" d="M42.5,7.58l0-.93.93,0a.65.65,0,0,1,1,0l0,1-.09.14C44,8,43.69,8,43.36,8S42.68,8,42.5,7.58Z"/><path class="cls-24" d="M49.11,7.55c-.08-.7.23-1,.92-.91l0,.93a.6.6,0,0,1-.92.06Z"/><path class="cls-25" d="M53.86,15.18h-1a.61.61,0,0,1,0-.92l0,0a.62.62,0,0,1,.79-.17.44.44,0,0,1,.17.23Z"/><path class="cls-20" d="M19.69,18c-.07-.71.28-1,.94-.92l.15.11a.7.7,0,0,1-.08,1,.72.72,0,0,1-1-.09Z"/><path class="cls-20" d="M20.67,16.13l1,0,.13.12a.73.73,0,0,1-.1,1,.72.72,0,0,1-1-.11l-.05-.05C20.64,16.75,20.65,16.44,20.67,16.13Z"/><path class="cls-26" d="M49.13,7.63l.92-.06c.13.72-.17,1.06-.91,1C49.14,8.25,49.13,7.94,49.13,7.63Z"/><path class="cls-27" d="M54.79,12.36v.91a.58.58,0,0,1-.93,0v-.91Z"/><path class="cls-28" d="M18.76,15.24l-.93-.07a.59.59,0,0,1,0-.9l0-.08a.73.73,0,0,1,1,0,.68.68,0,0,1-.07,1Z"/><path class="cls-29" d="M17.8,14.27l0,.9c-.74.12-1.06-.19-1-.93Z"/><path class="cls-30" d="M53.86,13.28h.93v.94l-.92.07v-.09a.58.58,0,0,1,0-.9Z"/><path class="cls-31" d="M44.36,6.63h-1c-.06-.74.27-1,1-.91C44.39,6,44.38,6.33,44.36,6.63Z"/><path class="cls-32" d="M14,20v.92l-.12.14a.69.69,0,0,1-1-.11.69.69,0,0,1,.14-1Z"/><path class="cls-33" d="M13.09,20l0,.9a.53.53,0,0,1-.76.22.44.44,0,0,1-.17-.23v-.9Z"/><path class="cls-34" d="M50.05,4.77c.37,0,.9-.17.92.44s-.5.46-.88.48l-.07,0A.67.67,0,0,1,50.05,4.77Z"/><path class="cls-24" d="M50.05,4.77l0,1c-.69.07-1-.25-.91-.94Z"/><path class="cls-35" d="M39.65,4.76c.06.72-.23,1.06-1,.92C38.6,5,38.94,4.65,39.65,4.76Z"/><path class="cls-36" d="M16.88,19l.93-.07a.38.38,0,0,1,0,.1.69.69,0,0,1,.06,1,.83.83,0,0,1-1.08,0A.72.72,0,0,1,16.88,19Z"/><path class="cls-37" d="M16.88,19l0,.92c-.29.36-.61.3-.94.06v-.09a.58.58,0,0,1,0-.9Z"/><path class="cls-38" d="M15.92,19v.9H15C14.88,19.16,15.22,18.89,15.92,19Z"/><path class="cls-39" d="M54.81,55.07,53.88,55c-.32-.25-.56-.61-1-.71a.77.77,0,0,1-.18-.18.8.8,0,0,0-1-.63.91.91,0,0,1-.82-.31c-.17-.88.07-1.34.87-1.38s1.62-.17,1.8-1.31c.11-.66.85-.62,1.43-.61a1,1,0,0,1,1.15.9c.09.56.32.93,1,.94s1-.17,1.06-.8a1.14,1.14,0,0,1,1.31-1.06,13.46,13.46,0,0,1,1.42,0,1,1,0,0,1,.9.72c.44,1.15.64,1.26,1.86,1.08.16,0,.3-.09.46-.12.71,0,1.42.15,2.14.14a1.64,1.64,0,0,1,1,.45.83.83,0,0,1-.93,1.27,1.93,1.93,0,0,1-.82-.41.43.43,0,0,0-.72.27.41.41,0,0,0,.41.58c.44,0,.89,0,1.14.47a.76.76,0,0,1-.07.73,1,1,0,0,1-.73.35,1.51,1.51,0,0,0-1.33.82,5.6,5.6,0,0,1-2.73,0c-.45-.83-1.24-.87-2-.89a1,1,0,0,1-1.31-1,1.15,1.15,0,0,0-1.83-.6c-.42.43-1,.65-1.33,1.15A.44.44,0,0,1,54.81,55.07Z"/><path class="cls-40" d="M52.91,62.62v.93l-.09.15A1.08,1.08,0,0,1,52,64c-2,.05-4,.06-6,0a1.9,1.9,0,0,1-.63-.17.65.65,0,0,1-.27-.25c-.07-.79.38-1,1.06-1C48.43,62.63,50.67,62.62,52.91,62.62Z"/><path class="cls-41" d="M40.59,63.57a1.79,1.79,0,0,1,.94.19c0,.52.36.71.81.73s.91.14,1.13-.41a.82.82,0,0,1,.91-.51,1,1,0,0,1,.35,1,1.23,1.23,0,0,1-.26,1,1.34,1.34,0,0,1-1,.27,2.58,2.58,0,0,1-2.79-1C40.33,64.4,40.13,64,40.59,63.57Z"/><path class="cls-42" d="M58.62,57.86l-.76,0c-.26-.26-.18-.61-.21-.93l.07-.14a.72.72,0,0,1,.89-.09.66.66,0,0,1,.21.23A.72.72,0,0,1,58.62,57.86Z"/><path class="cls-43" d="M55.74,56c-.67,0-1.08-.2-.93-1V55a.73.73,0,0,1,1.18.83A.56.56,0,0,1,55.74,56Z"/><path class="cls-44" d="M56.73,56.9c-.66.1-1.09-.08-1-.86a.17.17,0,0,0,0-.1.75.75,0,0,1,.9-.17.66.66,0,0,1,.24.23A.71.71,0,0,1,56.73,56.9Z"/><path class="cls-45" d="M56.73,56.9l0-.91a.69.69,0,0,1,1-.12.67.67,0,0,1,0,1l0,.09Z"/><path class="cls-46" d="M44.4,64.54c0-.32,0-.65,0-1h.76l.21,0a.7.7,0,0,1,0,1A.71.71,0,0,1,44.4,64.54Z"/><path class="cls-47" d="M52,55l0-.91.09-.14a.61.61,0,0,1,.87.1h0a.61.61,0,0,1,0,.92Z"/><path class="cls-48" d="M52.94,55l0-.92c.73-.12,1.05.19,1,.92Z"/><path class="cls-18" d="M56.73,19c.31,0,.62,0,.92,0,.64,0,1,.21,1,.9l-.06.15c-.25.3-.58.26-.91.25a1.27,1.27,0,0,1-1-.19.79.79,0,0,1-.19-.92A.61.61,0,0,1,56.73,19Z"/><path class="cls-49" d="M59,19.9l.56,0v.89l-.09.15a.68.68,0,0,1-1,0,.67.67,0,0,1,.11-1v-.09Z"/><path class="cls-18" d="M55.77,18c.7-.08,1,.24,1,.94l0,0a.71.71,0,0,1-1,.08.7.7,0,0,1,0-1Z"/><path class="cls-50" d="M18.78,69.25c0-.93,0-1.87,0-2.8,0-.73.22-1.07,1-1a1.22,1.22,0,0,1,.41,1c.1,1.36.11,1.36,1.54,1.48.33,0,.65,0,1,0a30.71,30.71,0,0,1,4.07,0,34,34,0,0,1,4.28,0c.34,0,.69,0,1,0a9.84,9.84,0,0,1,1.88,0,9.53,9.53,0,0,1,1.85,0c.33,0,.66,0,1,0a8,8,0,0,1,1,0c.34,0,.67,0,1,0a9.94,9.94,0,0,1,1.89,0,35.61,35.61,0,0,1,4.62,0c.35,0,.7,0,1.06,0a25.77,25.77,0,0,1,3.83,0c1-.08,2.09-.07,3.13-.06.75,0,1.1-.33,1.1-1.09a1.56,1.56,0,0,1,.3-1.25l.14-.07c.68-.07,1,.2,1,.92s0,1.39,0,2.08-.21.83-.78.8c-.29,0-.57,0-.86,0Z"/><path class="cls-51" d="M53.89,64.52c.73-.1,1,.25.93.94l0,0a.71.71,0,0,1-1,.09.69.69,0,0,1-.08-1Z"/><path class="cls-52" d="M52.91,63.55c.71-.07,1,.25,1,1h0a.68.68,0,0,1-1,.07.67.67,0,0,1,.06-1Z"/><path class="cls-53" d="M67.12,53.14v-1A1.49,1.49,0,0,1,66.71,51c0-1.16,0-2.33.05-3.5A27.77,27.77,0,0,1,66.87,42a.89.89,0,0,1,.18-.33.68.68,0,0,1,1,.09L68.13,44a4.12,4.12,0,0,1,.36,2.19c.11,1.94,0,3.88,0,5.82a1.77,1.77,0,0,1-.21,1.08.82.82,0,0,1-1.06.17Z"/><path class="cls-54" d="M68.06,41.76l-.9,0c-.45-.22-.42-.66-.44-1.05,0-1.22,0-2.43,0-3.65a37.33,37.33,0,0,1,0-4.73,1.4,1.4,0,0,1,.28-1.06.69.69,0,0,1,1,.08c0,.56,0,1.13.07,1.7C68.11,35.94,68.08,38.85,68.06,41.76Z"/><path class="cls-55" d="M5.45,52V32.64l0-10.8a.72.72,0,0,1,1-.18.67.67,0,0,1,.23.27,7.7,7.7,0,0,1,.14,2.83c.1,3.19.09,6.39,0,9.59.09,3.47.1,6.94,0,10.42.09,3.37.1,6.74,0,10.11a4.78,4.78,0,0,1-.13,1.92.74.74,0,0,1-.22.28.72.72,0,0,1-1-.17Z"/><path class="cls-56" d="M6.45,20.91l5.68-.07v.09a.68.68,0,0,1,0,1,1.66,1.66,0,0,1-1.06.29c-1.18,0-2.36,0-3.55,0a1.34,1.34,0,0,1-1.1-.41v-.08A.53.53,0,0,1,6.45,20.91Z"/><path class="cls-57" d="M6.45,20.91l0,.86-.93.07C5.37,21.07,5.68,20.76,6.45,20.91Z"/><path class="cls-58" d="M21.63,14.27c-.12-.75.21-1,.95-1,1.26,0,2.52,0,3.78,0A1.49,1.49,0,0,0,26.85,12c0-.92,0-1.84,0-2.75s.57-1.18,1.5-.76a3.69,3.69,0,0,1,.29,2.1,20,20,0,0,1-.08,2.9c-.16,1-.31,1.14-1.66,1.15s-2.68.07-4,0A1.51,1.51,0,0,1,21.63,14.27Z"/><path class="cls-59" d="M28.28,8.58c-.73-.12-1,.16-1,.92.05.94,0,1.88,0,2.82,0,.72-.2,1.08-1,1,0-.32,0-.64,0-1V8.55a.64.64,0,0,1,0-1h2.83a.67.67,0,1,1-.91,1Z"/><path class="cls-60" d="M21.63,14.27h5.28c.54.84-.23,1.37-.49,2a1.31,1.31,0,0,1-.92.21,1.84,1.84,0,0,1-.93-.09.64.64,0,0,1-.25-.15c-.21-.46-.49-.81-1.07-.69s-1.19.17-1.64-.37Z"/><path class="cls-61" d="M18.77,15.15l0-.89a.66.66,0,0,1,0-1c.34,0,.68,0,1,0,.7,0,1,.26.85.94a9.07,9.07,0,0,1-.93.93Z"/><path class="cls-62" d="M21.61,15.19l1.88,0a.73.73,0,0,1,.09,1.05,1.52,1.52,0,0,1-2-.12l0,0Z"/><path class="cls-63" d="M19.71,15.15c-.09-.7.24-1,.93-.93,0,.32,0,.65,0,1Z"/><path class="cls-64" d="M18.77,13.29c0,.32,0,.65,0,1l-.92-.07C17.72,13.45,18.08,13.2,18.77,13.29Z"/><path class="cls-65" d="M38.69,7.6c.69-.09,1,.18,1,.89s.29,1,1,1l.15.1a1.75,1.75,0,0,1,0,1.9,1,1,0,0,1-1,.15c-.52-.28-.68-1-1.24-1.19a1.35,1.35,0,0,1-.14-.66C38.34,9,38,8.23,38.69,7.6Z"/><path class="cls-66" d="M38.69,7.6l0,2.28a.76.76,0,0,1-1,.1c-.55-.73-.27-1.55-.26-2.33a1,1,0,0,1,.36-1C38.47,6.54,38.76,6.89,38.69,7.6Z"/><path class="cls-67" d="M42.5,7.58l.9,0a.71.71,0,0,1,.14,1,.76.76,0,0,1-.32.2c-.9.15-1.82.49-2.61-.3v-.9Z"/><path class="cls-68" d="M40.61,8.51l2.64.06c.28.79.11,1.2-.62,1.29s-1.46.26-2.05-.36h0Z"/><path class="cls-69" d="M37.73,6.66v1a.63.63,0,0,1-.79.2.48.48,0,0,1-.2-.22l.07-.93Z"/><path class="cls-70" d="M48.18,12.37h1.9c0,.41-.1.84.5.93s.37.57.45.91a1.09,1.09,0,0,1-.08.15,1.85,1.85,0,0,1-1.79.14c-.28-.52-.83-.78-1.2-1.23A.74.74,0,0,1,48.18,12.37Z"/><path class="cls-71" d="M52.93,14.25c0,.31,0,.61,0,.92H52a.58.58,0,0,1,0-.89Z"/><path class="cls-72" d="M52,14.27l0,.89-.93,0-.12-.09a.55.55,0,0,1,.09-.8l0-.08Z"/><path class="cls-73" d="M53.87,13.29v.9l-1,0C52.83,13.5,53.14,13.18,53.87,13.29Z"/><path class="cls-74" d="M48.18,12.37v.9c-.62.68-1.29.48-2,.14a.83.83,0,0,1,0-1.1.73.73,0,0,1,1.06,0Z"/><path class="cls-75" d="M48.23,9.5c0,.69-.22,1.09-1,.94a.73.73,0,0,1-1,.14.82.82,0,0,1-.23-1,.63.63,0,0,1,.21-.28,1.37,1.37,0,0,1,1-.18.92.92,0,0,1,.9.34Z"/><path class="cls-76" d="M47.24,12.34h-1l-.13-.11a.71.71,0,0,1,.11-1,.69.69,0,0,1,1,.12Z"/><path class="cls-77" d="M47.2,11.4h-.89l-.13-.07a.58.58,0,0,1,0-.81l.13-.08h1Z"/><path class="cls-78" d="M45.35,7.62l.92,0h1a.72.72,0,0,1,.25.82.66.66,0,0,1-.14.26,3,3,0,0,0-1.06.82h0c-.32.29-.66.58-.59,1.09a8.58,8.58,0,0,1,0,.88c0,.33,0,.66,0,1-.09,1-.36,1.25-1.36,1.23S43.08,13.4,43,12.47a2.85,2.85,0,0,1,.7-2.62c.21-.19.23-.51.32-.78A12.08,12.08,0,0,0,45.35,7.62Z"/><path class="cls-79" d="M47.24,8.56v-1h1l0,1A.58.58,0,0,1,47.24,8.56Z"/><path class="cls-80" d="M29.19,8.54V7.61l1.9,0,0,0c.09.09.24.16.25.28A1.4,1.4,0,0,0,32.74,9.2a.59.59,0,0,1,.49.41c0,.93-.12,1.17-.95,1.23a3.56,3.56,0,0,1-2.18-.23C29.68,10,29.71,9.14,29.19,8.54Z"/><path class="cls-81" d="M51,16.13a1.07,1.07,0,0,1,1,.92l0,0c-.13.12-.24.32-.43.33a2.42,2.42,0,0,0-1.62.85c-.94,0-1.19-.26-1.19-1.19a1.87,1.87,0,0,1,.23-1,1.75,1.75,0,0,1,2.06,0Z"/><path class="cls-82" d="M51,16.13h-.95a.71.71,0,0,1-.06-1,.74.74,0,0,1,1,.09h0Z"/><path class="cls-83" d="M45.35,7.62c0,.68-.11,1.27-1,1.32a.55.55,0,0,1-.28-.41.84.84,0,0,1,.27-.94h0Z"/><path class="cls-84" d="M30.15,10.25a4.84,4.84,0,0,0,2.33.16c.61,0,.49-.53.51-.92a1,1,0,0,1-.34-1c0-.37,0-.73.37-.93l1.87,0c.77.85.39,1.82.31,2.75-1.24.84-.78,2.09-.74,3.23,0,.41.54.41.66.74A2,2,0,0,1,35,16.17a.88.88,0,0,1-.92.24,4.47,4.47,0,0,1-.59-.28,2.65,2.65,0,0,0-.15,1.3c.23,2.82,0,3.05-2.76,2.92l-.27,0a.89.89,0,0,0-.74.33c-.58.63-1.13.71-1.62.3s-.51-1,0-1.67a1.24,1.24,0,0,1,.19-.21,1.77,1.77,0,0,0,.57-1.87c-.1.71.11,1.44-.58,1.87a.68.68,0,0,1-.84.08c-.5-.42-.4-1-.43-1.55s0-1-.46-1.34l-.05-.14c-.17-.73.44-1.23.55-1.87.53-.13,1.36.27,1.34-.78a.84.84,0,0,1,.58-.27c.27,0,.66.35.81-.11a1.11,1.11,0,0,0-.24-1.23,1.56,1.56,0,0,1-.5-.67.94.94,0,0,1,.25-1A.66.66,0,0,1,30.15,10.25Z"/><path class="cls-85" d="M34.87,10.46l0-2.88,0-1c.43,0,.86,0,1,.61.08.46.53.32.84.36h.09a.8.8,0,0,1,.22.86c-.21.44-1,.49-.83,1.18a4,4,0,0,1-.05.91.74.74,0,0,1-.26.61.81.81,0,0,1-1,0A.48.48,0,0,1,34.87,10.46Z"/><path class="cls-86" d="M33,7.61,33,8.53a.62.62,0,0,1-1,0c-.32-.31-.22-.66,0-1l.07-1.84H33C33,6.36,33,7,33,7.61Z"/><path class="cls-87" d="M32,7.57c0,.63.16,1.11,1,1l0,1c-2.09,0-1.91.21-1.87-1.86Z"/><path class="cls-88" d="M18.78,19,19.7,19a1.06,1.06,0,0,1,1-.33,1.23,1.23,0,0,1,1,.29.89.89,0,0,1,0,1.07,1.06,1.06,0,0,1-1,.32H19.67a1.13,1.13,0,0,1-1-.28A.72.72,0,0,1,18.78,19Z"/><path class="cls-89" d="M20.65,19H19.7l0-.9.93-.06.13.1A.6.6,0,0,1,20.65,19Z"/><path class="cls-90" d="M18.78,19v.92a.61.61,0,0,1-1,0l0-.89Z"/><path class="cls-91" d="M55.74,18.05l0,.89-.08.15c-.26.31-.61.25-1,.25a1.14,1.14,0,0,1-1-.29.72.72,0,0,1,.08-1l0-.06Z"/><path class="cls-92" d="M50,18c.09-1.5,1.24-.76,2-.93,0,.29,0,.58,0,.87a.42.42,0,0,1-.12.26,1,1,0,0,1-.83.15,1.12,1.12,0,0,1-.84-.12A.48.48,0,0,1,50,18Z"/><path class="cls-93" d="M52,18l.93.09a.7.7,0,0,1,.09,1,.82.82,0,0,1-1.07,0,.69.69,0,0,1,0-1Z"/><path class="cls-94" d="M52.93,19l0-.9h.94c0,.29,0,.58,0,.88l-.08.14A.55.55,0,0,1,52.93,19Z"/><path class="cls-95" d="M17.79,19.91l1,0,.95,0a.72.72,0,0,1,.21.86.55.55,0,0,1-.18.24,1.32,1.32,0,0,1-.69.23A1.43,1.43,0,0,0,17.8,22a1.44,1.44,0,0,1-.93.16c-.34,0-.68,0-1,0-.66,0-1.33.19-1.91-.29a.73.73,0,0,1,.09-1h0c.33,0,.67,0,1,0,.66,0,1-.24.89-.91l.94-.06Z"/><path class="cls-96" d="M47.24,8.56h.91v.92h-.91a.66.66,0,0,1,0-1Z"/><path class="cls-97" d="M44.38,7.59v.94c-.32.28-.64.35-1,0V7.61Z"/><path class="cls-98" d="M20.68,17.1l.92,0a.75.75,0,0,1,1-.14.83.83,0,0,1,.22,1,.74.74,0,0,1-.21.28,1.45,1.45,0,0,1-1,.19,1,1,0,0,1-.91-.31l0-.09Z"/><path class="cls-99" d="M22.56,17.09l-1,0c0-.31,0-.62,0-.93l1.88,0a.67.67,0,0,1,1,0h0a.76.76,0,0,1,.07,1.06A1.51,1.51,0,0,1,22.56,17.09Z"/><path class="cls-100" d="M14,20.89v.94l-.08.13a.92.92,0,0,1-.87.21A.92.92,0,0,1,12.2,22s0-.09-.07-.14v-.88l.94-.08Z"/><path class="cls-101" d="M45.32,49.53v1.7l-1,0a.62.62,0,0,1-.93,0h-.95a1.32,1.32,0,0,0-.5,1.16c0,.75,0,1.5,0,2.25A2.09,2.09,0,0,1,41.53,56h0a4.52,4.52,0,0,0-.94,1.15v6.45c-.1.6.55.78.69,1.1.5,1.12,1.38.71,2.15.8a.76.76,0,0,1,.11,1c-.58.53-1.28.28-1.94.29a2.23,2.23,0,0,1-1-.15c-.47-.81-1.53-.59-2.11-1.22a2.36,2.36,0,0,1,0-1.86,1.48,1.48,0,0,0,.76-1.48c0-1.85,0-3.71,0-5.57,0-.4.12-.93-.51-1.06l-.92-.05c-.3,0-.6,0-.91,0a6,6,0,0,1-.85,0c-.76-.15-.62.75-1.08,1a1.06,1.06,0,0,1-1.43-.64A2.28,2.28,0,0,0,33,55h0A3,3,0,0,1,32.55,53c0-1.1-.16-1.22-1.26-1.3-.52,0-1.1,0-1.37-.59a1,1,0,0,1,.11-.86,1.21,1.21,0,0,1,1-.31,9.38,9.38,0,0,1,1.91,0c.34,0,.69,0,1,0a1.17,1.17,0,0,1,1,.24.93.93,0,0,1,.14,1A2.07,2.07,0,0,0,34.31,53c0,.5.23.71.71.67a8.22,8.22,0,0,1,.86,0c.3,0,.6,0,.9,0a8.61,8.61,0,0,1,.88,0c.55,0,1.11-.08,1.67-.08s.85-.24.8-.78.29-1.23-.67-1.23a8.82,8.82,0,0,1-1.78,0,1.18,1.18,0,0,1-1-.32.92.92,0,0,1,0-1.09c.92-.6,1.94-.27,2.92-.29a27.79,27.79,0,0,1,3.65,0,1,1,0,0,0,.9-.34A.72.72,0,0,1,45.32,49.53Z"/><path class="cls-102" d="M41.53,56c0-1.25,0-2.5,0-3.75,0-.72.21-1.08,1-1,0,1.06,0,2.13,0,3.2A1.36,1.36,0,0,1,41.53,56Z"/><path class="cls-103" d="M50.09,44.61,50,42.73l.11-.15a.75.75,0,0,1,1,.1,1.81,1.81,0,0,1,0,2A.72.72,0,0,1,50.09,44.61Z"/><path class="cls-104" d="M50.09,44.61H51l.15.08a.71.71,0,0,1,0,.92.76.76,0,0,1-.91.16.58.58,0,0,1-.21-.25Z"/><path class="cls-105" d="M49.16,46.52l0-1,.89,0,.08.05a.71.71,0,0,1,0,1A.69.69,0,0,1,49.16,46.52Z"/><path class="cls-106" d="M49.31,42.71c-.25-.29-.17-.64-.16-1a.69.69,0,0,1,1,0,.68.68,0,0,1,0,1l-.05.06Z"/><path class="cls-107" d="M49.11,53.88l0-.75a.73.73,0,0,1,.9-.2.66.66,0,0,1,.24.23.74.74,0,0,1-.2.92v0C49.75,54.06,49.39,54.13,49.11,53.88Z"/><path class="cls-102" d="M40.59,57.12c-.07-.7,0-1.27.94-1.15A1.14,1.14,0,0,1,40.59,57.12Z"/><path class="cls-107" d="M43.44,51.25h.93c0,.35,0,.84-.51.81S43.47,51.59,43.44,51.25Z"/><path class="cls-108" d="M67.13,47.45c0,1.58,0,3.16,0,4.74-.32,0-.65,0-.92-.2a1.16,1.16,0,0,1-.44-.7.52.52,0,0,0-1-.07.91.91,0,0,1-.43.58c-.77.7-1.67.37-2.52.29-.43,0-.34-.55-.32-.88,0-.71-.26-1-1-.93a4,4,0,0,1-.85,0c-.77-.08-1.14.21-1,1s-.22,1-.88.9a4,4,0,0,0-.85,0c-.79.08-1.22-.18-1.12-1,.08-.67-.28-.87-.91-.87s-1.08.14-1,.89-.36,1.05-1.13,1-1.63-.35-1.72.88l-.08.14a.61.61,0,0,1-.87-.09h0a.76.76,0,0,1-.24-.86A.56.56,0,0,1,50,52a.89.89,0,0,0,.6-.85,1.36,1.36,0,0,1,.32-1c.82-.7,1.72-1.34,1.59-2.63a1.75,1.75,0,0,1,.25-1.08.83.83,0,0,1,.26-.19,5.1,5.1,0,0,1,2.63,0c.38,0,.6.31.88.5.91.62,1.6.33,1.65-.74a2.07,2.07,0,0,1,.88-1.67,3.94,3.94,0,0,1,2,0A2,2,0,0,1,61.89,46c0,.49,0,1,.7,1A1.09,1.09,0,0,0,63.81,46a5.83,5.83,0,0,0,.08-.84.94.94,0,0,1,.5-.85,2.18,2.18,0,0,1,1.91.12,3.24,3.24,0,0,1,.13,2.74,1.64,1.64,0,0,1-1.16.7.46.46,0,0,0-.46.5.4.4,0,0,0,.42.42.46.46,0,0,0,.51-.45,1.37,1.37,0,0,1,.57-1A.57.57,0,0,1,67.13,47.45Z"/><path class="cls-109" d="M57.64,56H56.7l0,0a.75.75,0,0,1-.08-1.06,1.56,1.56,0,0,1,2,.11l.93,0a1.39,1.39,0,0,0,1,.5,1.15,1.15,0,0,1,.87.43h2.82a.4.4,0,0,1,.52,0,.82.82,0,0,1,0,1.05,1.26,1.26,0,0,1-1,.29c-1.4,0-2.8.07-4.2-.05a1.06,1.06,0,0,1-1-.37h0C58.28,56.63,58,56.27,57.64,56Z"/><path class="cls-110" d="M58.62,55l-1.91,0a.66.66,0,0,1-1,0L54.81,55c.14-1.33,2.4-2.4,3.48-1.63C58.88,53.78,58.5,54.46,58.62,55Z"/><path class="cls-108" d="M66.18,54.26a3.44,3.44,0,0,0-.56,0c-.55.12-1.11.25-1.27-.5a1,1,0,0,1,.55-1.34c.65-.26,1.07.09,1.31.69C66.55,53.53,66.62,53.9,66.18,54.26Z"/><path class="cls-111" d="M64.3,51.8c.13-.58-.41-1.47.81-1.53.8,0,1.2.21,1.09,1.06a4.85,4.85,0,0,0,0,.66A2,2,0,0,1,64.3,51.8Z"/><path class="cls-112" d="M66.18,54.26l0-1.12h.94A1.61,1.61,0,0,1,67.39,55a.8.8,0,0,1-1,.26.53.53,0,0,1-.24-.25Z"/><path class="cls-113" d="M61.46,56c-.31,0-.62,0-.92,0-.7.06-1.07-.2-1-.94.31,0,.62,0,.92,0C61.18,55,61.54,55.23,61.46,56Z"/><path class="cls-114" d="M64.69,56l-.4,0c-.07-.72.27-1,1-.93.31,0,.62,0,.92,0l0,0a.7.7,0,0,1-.1,1.13A1,1,0,0,1,64.69,56Z"/><path class="cls-115" d="M52,54.12,51,54.05a.57.57,0,0,1,0-.89v-.08l.93.07A.55.55,0,0,1,52,54Z"/><path class="cls-116" d="M52,54c0-.29,0-.59,0-.88.73-.12,1.06.18,1,.93Z"/><path class="cls-117" d="M59.55,56.94l5.14,0A2.35,2.35,0,0,1,67,56.67a.74.74,0,0,1,.28.22.72.72,0,0,1-.17,1H59.57A.58.58,0,0,1,59.55,56.94Z"/><path class="cls-118" d="M67.13,55l0-1.91.91,0,.07,2.64-.06,1.13a.55.55,0,0,1-.86,0l-.09,0A1.3,1.3,0,0,1,67.13,55Z"/><path class="cls-5" d="M67.21,56.94l.86,0c.17.8-.16,1.09-.94.93Z"/><path class="cls-119" d="M59.55,56.94l0,.9-1,0v-.93Z"/><path class="cls-120" d="M52.91,63.6l0,.9-.09.15c-.27.29-.63.23-1,.24a13.79,13.79,0,0,1-2.57,0,11.77,11.77,0,0,1-3.79-.15.56.56,0,0,1-.21-.27c0-.3,0-.6,0-.89Z"/><path class="cls-121" d="M43.42,66.38c0-.31,0-.61,0-.91h.9l.16.1a.7.7,0,0,1-.09,1A.67.67,0,0,1,43.42,66.38Z"/><path class="cls-122" d="M44.4,64.54l.91-.06,0,.08a.62.62,0,0,1,0,1,.6.6,0,0,1-.9-.06h-.1Z"/><path class="cls-123" d="M51,53.16c0,.3,0,.6,0,.89l-1,0v-.95Z"/><path class="cls-124" d="M57.64,56c.74-.13,1.09.14,1,.92l-.95,0Z"/><path class="cls-125" d="M55.74,55h1c0,.31,0,.62,0,.93l-.95,0Z"/><path class="cls-126" d="M59.56,20.82l7.57.09a.71.71,0,0,1,.16,1,.61.61,0,0,1-.29.21,7.4,7.4,0,0,1-2.61.18,35.33,35.33,0,0,1-3.85-.06c-.37,0-.76.06-1.06-.25a.71.71,0,0,1,.07-1S59.56,20.86,59.56,20.82Z"/><path class="cls-127" d="M68.08,26.58V29.4a.74.74,0,0,1-1,.09,3.28,3.28,0,0,1,0-3A.72.72,0,0,1,68.08,26.58Z"/><path class="cls-128" d="M68.08,21.84V23.7a.69.69,0,0,1-1,.12,1.16,1.16,0,0,1-.29-1,1,1,0,0,1,.35-1v-.08A.64.64,0,0,1,68.08,21.84Z"/><path class="cls-129" d="M67.16,29.42l.91,0c0,.64,0,1.29,0,1.93l-.91,0-.15-.1C66.66,30.58,66.52,30,67.16,29.42Z"/><path class="cls-130" d="M68.08,26.58l-.93,0L67,26.47a1.61,1.61,0,0,1,.07-1.89.73.73,0,0,1,1,.07Z"/><path class="cls-57" d="M68.08,21.84l-.93-.07,0-.86C67.9,20.76,68.21,21.07,68.08,21.84Z"/><path class="cls-131" d="M68.08,24.65l-.91.05L67,24.62a.61.61,0,0,1,0-.83l.13-.08h.93Z"/><path class="cls-45" d="M58.61,20v.89a.68.68,0,0,1-1,.11.69.69,0,0,1,0-1Z"/><path class="cls-132" d="M57.65,20l0,.89-.09.15c-.91.26-1.12.1-1.11-.86a.56.56,0,0,1,.23-.25Z"/><path class="cls-133" d="M55.78,18.94l.93,0v.9a.17.17,0,0,1,0,.1.74.74,0,0,1-1,0,.67.67,0,0,1,.06-1Z"/><path class="cls-134" d="M57.68,20.84l.94,0,.93.06,0,.88c-.16.48-.74.64-.88,1.14a1,1,0,0,1-.28.13,2,2,0,0,1-1.79-.18.88.88,0,0,1-.17-.94c.2-.58.89-.59,1.2-1.05Z"/><path class="cls-135" d="M19.7,55l-.93.06-.12,0c-.46-.59-1.21-.8-1.75-1.32s-1.17,0-1.44.59c-.16.36-.18.8-.57,1-.6.17-1.25.2-1.66.78a.76.76,0,0,1-.6.26,11.64,11.64,0,0,1-3.28-.09c-.37-.88-1.28-.73-1.95-1A.77.77,0,0,1,7.18,55a.85.85,0,0,1,0-.73c.32-.52,1-.29,1.45-.59-.39-.54-1.21-.21-1.47-.83a.79.79,0,0,1,.08-.76c.58-.5,1.36-.3,2-.57a2.63,2.63,0,0,1,.74,0c1.27.18,1.27.18,1.79-1a1,1,0,0,1,.94-.64c.57,0,1.13,0,1.69,0a3,3,0,0,1,.57.2.86.86,0,0,1,.33.54c.38,1.17.37,1.17,1.61,1,.41-.13.46-.48.51-.83.09-.72.57-.91,1.21-.93s1.31.06,1.44.88a1.1,1.1,0,0,0,1,1A.84.84,0,0,1,21.87,53c-.16.51-.9.52-1,1.11a.55.55,0,0,1-.17.2A3.15,3.15,0,0,0,19.7,55Z"/><path class="cls-136" d="M33,55a.88.88,0,0,1,.89.54,1,1,0,0,0,1,.59c.47.22.45.66.45,1.06,0,2.08.09,4.17,0,6.25a1.74,1.74,0,0,1-.21,1.07.74.74,0,0,1-1,.11l-.11-.15q0-3.27,0-6.54a1.54,1.54,0,0,0-.5-1.35A1.83,1.83,0,0,1,33,55Z"/><path class="cls-137" d="M21.61,63.57c-.09-.77.28-1,1-1q3.27,0,6.54,0c.72,0,1.1.2,1,1a1.15,1.15,0,0,1-1,.36c-2.17.14-4.34.06-6.51.05A1.19,1.19,0,0,1,21.61,63.57Z"/><path class="cls-138" d="M21.61,63.57l7.56,0a.68.68,0,0,1,.1,1,1.31,1.31,0,0,1-1,.29c-1.85.13-3.7.06-5.55,0a1.56,1.56,0,0,1-.9-.19.51.51,0,0,1-.22-.28Z"/><path class="cls-139" d="M31.11,64.72a.88.88,0,0,1,.76.41c.4.49.87.53,1.1-.14s.58-.45,1-.49v0a1,1,0,0,1,.35,1,1.26,1.26,0,0,1-.26,1,2.56,2.56,0,0,1-1.89.29,1.8,1.8,0,0,1-1-.18.67.67,0,0,1-.24-.26C30.69,65.77,30.48,65.19,31.11,64.72Z"/><path class="cls-140" d="M21.61,68.29c-1.95.11-2,.1-1.91-1.78l0-1,.91,0,.13,0a.78.78,0,0,1,.28.56,1.62,1.62,0,0,0,.76,1.37A.73.73,0,0,1,21.61,68.29Z"/><path class="cls-141" d="M18.74,56c.11.75-.23,1-1,1-.31,0-.62,0-.93,0a.74.74,0,0,1-.19-.9.66.66,0,0,1,.23-.24,1.52,1.52,0,0,1,1-.15A.91.91,0,0,1,18.74,56Z"/><path class="cls-142" d="M31.11,64.72v1.66a.69.69,0,0,1-1,.2.9.9,0,0,1-.35-.94c0-.32-.09-.67.14-1a.68.68,0,0,1,.26-.18C30.51,64.53,30.85,64.46,31.11,64.72Z"/><path class="cls-143" d="M15.72,57.9l-.76,0a.69.69,0,0,1-.23-.82.74.74,0,0,1,.17-.25.75.75,0,0,1,.86-.05.41.41,0,0,1,.17.24C15.9,57.29,16,57.63,15.72,57.9Z"/><path class="cls-144" d="M18.74,56H17.8a.71.71,0,0,1-.06-1,.76.76,0,0,1,1,0v.09Z"/><path class="cls-145" d="M16.88,56l0,.91-.92.06,0-.09a.67.67,0,0,1,0-1A.69.69,0,0,1,16.88,56Z"/><path class="cls-146" d="M29.19,64.52c0-.31,0-.61,0-.92l1,0c0,.3,0,.61,0,.92l-.06,0a.6.6,0,0,1-.84.12A.64.64,0,0,0,29.19,64.52Z"/><path class="cls-147" d="M20.64,65.43c-.08-.7.21-1,.93-1a.46.46,0,0,0,.07.07.68.68,0,1,1-.94,1Z"/><path class="cls-148" d="M19.7,55c-.07-.73.24-1,1-.92a.58.58,0,0,1,0,.92Z"/><path class="cls-149" d="M20.64,55l0-.92h0a.68.68,0,1,1,.95,1h-1Z"/><path class="cls-150" d="M53.87,65.45l.92,0c.06,2.81.06,2.81-2.76,2.82-.6,0-1.19,0-1.79,0a.76.76,0,0,1-.1-1c.66-.54,1.41-.3,2.14-.28s1.14-.14,1.19-.91a.85.85,0,0,1,.27-.57Z"/><path class="cls-151" d="M40.61,66.41l.93,0a1.57,1.57,0,0,0,1.37.48c.53,0,1.06.06,1.59.07a1,1,0,0,1,1,.29.71.71,0,0,1-.13,1H40.61a.91.91,0,0,1-.37-.94C40.21,67,40.21,66.61,40.61,66.41Z"/><path class="cls-152" d="M30.17,66.39h.95v0a1.24,1.24,0,0,1,0,1.86H26.73a.73.73,0,0,1-.12-1c.35-.41.83-.3,1.28-.29A3.48,3.48,0,0,0,30.17,66.39Z"/><path class="cls-153" d="M26.74,67.38v.9H22.56a.71.71,0,0,1-.09-1,1.23,1.23,0,0,1,1-.3,8.48,8.48,0,0,1,2,0C25.9,67,26.44,66.8,26.74,67.38Z"/><path class="cls-154" d="M50.28,67.38c0,.3,0,.6,0,.9h-4a.71.71,0,0,1-.19-.9.69.69,0,0,1,.24-.24,1.77,1.77,0,0,1,1-.15,7.37,7.37,0,0,1,2.39.06A.64.64,0,0,1,50.28,67.38Z"/><path class="cls-155" d="M32.06,66.44l1.85,0,.15.08a1,1,0,0,1,.23.93.87.87,0,0,1-.35.87H32.06A1.19,1.19,0,0,1,32.06,66.44Z"/><path class="cls-156" d="M40.56,67.36c0,.31,0,.61,0,.92H38.67a.73.73,0,0,1,0-1A1.45,1.45,0,0,1,40.56,67.36Z"/><path class="cls-157" d="M32.06,66.44v1.83h-1c0-.62,0-1.24,0-1.86Z"/><path class="cls-158" d="M33.94,68.27l0-.92a1,1,0,0,1,1-.34,1.17,1.17,0,0,1,1,.28.69.69,0,0,1-.09,1Z"/><path class="cls-159" d="M46.27,67.37v.91h-1v-.89A.58.58,0,0,1,46.27,67.37Z"/><path class="cls-160" d="M35.84,68.28l0-.87a.47.47,0,0,1,.21-.25.73.73,0,0,1,.92.19.69.69,0,0,1-.14.93Z"/><path class="cls-161" d="M38.73,67.39l-.06.9h-.94a.69.69,0,0,1-.14-.92.74.74,0,0,1,.92-.22A.54.54,0,0,1,38.73,67.39Z"/><path class="cls-162" d="M37.78,67.4l-.05.88h-.94l0-.89.06-.13a.62.62,0,0,1,.8-.09A.39.39,0,0,1,37.78,67.4Z"/><path class="cls-163" d="M22.58,67.41c0,.29,0,.59,0,.88h-.95V67.4l.06-.13a.58.58,0,0,1,.78-.09A.43.43,0,0,1,22.58,67.41Z"/><path class="cls-164" d="M52.94,64.5l.9,0,0,.93,0,0a.69.69,0,0,1-.88.2.68.68,0,0,1-.07-1.12Z"/><path class="cls-165" d="M14,57.84H6.45a.6.6,0,0,1-.06-.9l.07,0c.54-.63,1.26-.33,1.91-.37,1.55-.1,3.1-.06,4.65,0a1.43,1.43,0,0,1,1.07.29A.73.73,0,0,1,14,57.84Z"/><path class="cls-166" d="M14,57.84l0-.9a.58.58,0,0,1,.94,0v.92Z"/><path class="cls-167" d="M6.39,57l.06.9c-.79.16-1.12-.14-.94-.94Z"/><path class="cls-168" d="M66.2,44.6H64.3c-.51-.25-.39-.75-.44-1.17-.09-1-.22-1.19-1.18-1.22S61.07,42,61,40.89c0-.41-.38-.56-.76-.58s-1,0-1.51-.09c-1.3.09-1.3.09-1.78,1.61a2.51,2.51,0,0,0-.81,1.4c-.09.67-.63.85-1.26.77a1.58,1.58,0,0,1-.86-.09.56.56,0,0,1-.25-.14,1.61,1.61,0,0,0-1-.93.68.68,0,0,1-.15-.26c-1-.74-1.48-1.62-.83-2.84.57-.21.65-.68.67-1.21s-.08-1.2.38-1.68a.9.9,0,0,1,.91-.08c.42.23.47.64.54,1s.16.57.52.56.45-.29.5-.59a1.31,1.31,0,0,1,.46-1,1.6,1.6,0,0,1,.94-.17,3.43,3.43,0,0,1,1.82.15.82.82,0,0,1,.43.68c.07.66.34,1,1.07,1s1-.43,1-1a.82.82,0,0,1,.39-.62,3.23,3.23,0,0,1,1.82-.17,1.69,1.69,0,0,1,.94.15,1.09,1.09,0,0,1,.47.87c.07.34.09.74.56.73s.45-.37.51-.69a1.12,1.12,0,0,1,.47-.88.73.73,0,0,1,.88.2l0,4.73,0,.21c-.47.37-.45.9-.49,1.43S66.73,44.33,66.2,44.6Z"/><path class="cls-169" d="M66.2,44.6c0-.56,0-1.13,0-1.69s.2-1,.92-1c0,1.83,0,3.66,0,5.5H66.2Z"/><path class="cls-170" d="M67.15,31.31l0,1a.9.9,0,0,1-.88.35c-.64.06-1.27.09-1.91.13a1.75,1.75,0,0,1-.88,0c-1.2-.1-1.2-.1-1.85,1.48a.73.73,0,0,1-.26.17,4.5,4.5,0,0,1-2.67,0,.72.72,0,0,1-.26-.23,4.25,4.25,0,0,1-.1-2.66,1,1,0,0,1,.13-.28,1.48,1.48,0,0,1,1-.34c.6,0,.92-.26.82-.92a.71.71,0,0,1,.26-.74.84.84,0,0,1,.85,0,1,1,0,0,1,.44.79c.07.3,0,.66.4.78s.63-.16.84-.44a.93.93,0,0,1,.3-.22,1.1,1.1,0,0,1,.89,0,2.31,2.31,0,0,0,2,.83.85.85,0,0,1,.83.36Z"/><path class="cls-171" d="M66.19,32.26h.94V37h-.94l-.14-.08a5.15,5.15,0,0,1-.51-2.78C65.82,33.53,65.6,32.75,66.19,32.26Z"/><path class="cls-172" d="M6.46,44.79V34.35a.71.71,0,0,1,1-.11,1,1,0,0,1,.28.84,9,9,0,0,1,0,1.94,15.29,15.29,0,0,1,0,2.79,9.09,9.09,0,0,1,0,1.88c0,.34,0,.68,0,1a4.43,4.43,0,0,1-.12,1.88.67.67,0,0,1-.19.3A.71.71,0,0,1,6.46,44.79Z"/><path class="cls-173" d="M6.46,44.79h.89c.59.31.42.89.46,1.39a7.94,7.94,0,0,1,0,1.19,11.19,11.19,0,0,1,0,1.92q0,.52,0,1.05c0,.64.21,1.32-.35,1.85V53a.83.83,0,0,1,0,1.31l0,.77a.57.57,0,0,1-.91,0Z"/><path class="cls-174" d="M7.35,34.35H6.46q0-4.84,0-9.69a.73.73,0,0,1,1-.09,1.2,1.2,0,0,1,.3,1c0,.35,0,.7,0,1.05a16.25,16.25,0,0,1,0,2.79,16.37,16.37,0,0,1,0,2.8,3.74,3.74,0,0,1-.16,1.9A.56.56,0,0,1,7.35,34.35Z"/><path class="cls-175" d="M7.39,24.68l-.94,0c0-.93,0-1.87,0-2.81l5.69,0,0,.06a.69.69,0,0,1,.2.91.56.56,0,0,1-.24.22,5.43,5.43,0,0,1-2.5.15c-.48-.07-.86,0-1,.58a.61.61,0,0,1-.17.19,1.71,1.71,0,0,0-.88.71Z"/><path class="cls-176" d="M6.47,55H7.4c.27.47.93.5,1.16,1a.75.75,0,0,1-.24.87H6.46Z"/><path class="cls-177" d="M30.15,10.25c-.33,0-.74-.1-.89.34s.09.68.44.92A2.72,2.72,0,0,1,30,14a.4.4,0,0,1-.71,0,1.08,1.08,0,0,0-1.05-.49l0-4.9.91,0C30.63,8.49,30,9.58,30.15,10.25Z"/><path class="cls-178" d="M24.45,17.06v-.93l1,0a.81.81,0,0,1,.18,1,.79.79,0,0,1-1,.42C24.36,17.48,24.32,17.28,24.45,17.06Z"/><path class="cls-179" d="M24.46,16.14l-1,0v-.9C24.24,15.07,24.57,15.38,24.46,16.14Z"/><path class="cls-180" d="M25.42,17.08v-.93l.94,0,0,0a.61.61,0,0,1,.08.92A.62.62,0,0,1,25.42,17.08Z"/><path class="cls-181" d="M43.41,8.53h1c0,.14,0,.28,0,.41-.07.61.11,1.18-.64,1.69s-.37,1.52-.24,2.3c.09.57.72.33,1.13.36.72.05.67-.49.7-1a.61.61,0,0,1,.93,0h0l0,.93a2.1,2.1,0,0,1,.63,1,1.16,1.16,0,0,1-.68,1.3c-.34.15-.49.46-.72.71a1.53,1.53,0,0,0-.38,2.29c.17.18.38.31.45.58,0,.95-.12,1.07-1.09,1.17-.34,0-.68,0-1,0-1.12,0-1.36-.24-1.42-1.35,0-.52,0-1.05,0-1.58,0-.36,0-.76-.43-1a.88.88,0,0,1-.24-.19c-.29-.73-.24-1.64-1.08-2.08-.08-.93-.41-1.89.31-2.73V9.5c.56,0,1.13,0,1.69,0s1-.24,1-.93Z"/><path class="cls-182" d="M40.58,11.4l0,2.82a1.29,1.29,0,0,1,.43,1,1.26,1.26,0,0,0,.5.93h0a1.56,1.56,0,0,1,.17,1.94.94.94,0,0,1-1,.19.76.76,0,0,1-.48-.72,1.84,1.84,0,0,0-.79-1.37c0-.11-.06-.22-.08-.33a9.06,9.06,0,0,1-.08-2.6c0-.63-.28-1.35.4-1.85Z"/><path class="cls-183" d="M37.77,9.86l.9,0c0,.18,0,.37,0,.55.73.88.33,1.9.34,2.86a1,1,0,0,1-.32.89c-1,.26-1.34,0-1.39-1,0-.22,0-.43,0-.65a12.93,12.93,0,0,1,0-1.76C37.35,10.44,37.35,10.05,37.77,9.86Z"/><path class="cls-184" d="M38.71,13.27V10.43c.74-.09,1,.29.94,1s0,1.27,0,1.9A.59.59,0,0,1,38.71,13.27Z"/><path class="cls-185" d="M37.77,9.86l0,2.65a.74.74,0,0,1-.87.24c-.57-.27-.52-1.07-1.11-1.33a.45.45,0,0,1,.06-.42l0-.55c.29-.33.66-.62.57-1.14a.92.92,0,0,1,.32-.78l.07-.94.9,0C37.73,8.36,37.75,9.11,37.77,9.86Z"/><path class="cls-186" d="M45.33,16.14c0-.51,0-.94.68-1s.53-.54.65-.92a2,2,0,0,1,2.5,0l1.83.09,0,.9h-1a1.12,1.12,0,0,1-.88.43.79.79,0,0,0-.83.58.65.65,0,0,1-.22.18,1.83,1.83,0,0,1-.86.13c-.5,0-.51.38-.57.72s-.12.89-.63,1.07a.82.82,0,0,1-1-.54A1.38,1.38,0,0,1,45.33,16.14Z"/><path class="cls-187" d="M49.16,14.2l-2.5,0c-.49-.18-.35-.6-.37-1h1.9C48.86,13.22,49.24,13.46,49.16,14.2Z"/><path class="cls-188" d="M47.2,8.53l0,1h-.95C46.18,8.79,46.47,8.45,47.2,8.53Z"/><path class="cls-189" d="M45.35,10.46q-.18-1.11.93-1v.95h0A.61.61,0,0,1,45.35,10.46Z"/><path class="cls-190" d="M46.27,12.35l-.93,0v-.92a.58.58,0,0,1,.89,0l.07,0C46.3,11.72,46.28,12,46.27,12.35Z"/><path class="cls-191" d="M46.24,11.37l-.89,0v-.95l.93,0Z"/><path class="cls-192" d="M49.13,16.17c0,.31,0,.62,0,.93-.07.67.19,1,.89.92l.09,0a.75.75,0,0,1,.17.9c-.52.29-.71.89-1.19,1.22a1,1,0,0,1-1-.1,1.1,1.1,0,0,1-.28-1c0-.34,0-.68,0-1s0-.67,0-1a1,1,0,0,1,.37-.92l0,0C48.5,15.87,48.82,15.79,49.13,16.17Z"/><path class="cls-193" d="M49.13,16.17l-1,0c-.08-.73.23-1.05,1-1a7.35,7.35,0,0,0,.94,0v.93Z"/><path class="cls-194" d="M28.25,19a1.75,1.75,0,0,1-.2,1c-.26.4,0,.66.34.81s.68.13.77-.28c.12-.62.55-.59,1-.56a.89.89,0,0,1,.33.9,1.23,1.23,0,0,1-.12.8c-.68.21-.66,1-1.21,1.36a3.67,3.67,0,0,1-1.83.14,1.56,1.56,0,0,1-1-.19,1,1,0,0,1-.4-.8,1.56,1.56,0,0,0-.76-1.3A3.35,3.35,0,0,1,25,19a1.58,1.58,0,0,1,.2-1c.63-.52,1.14-.35,1.54.3a3.18,3.18,0,0,0,.51.65l1,0Z"/><path class="cls-195" d="M30.15,20.88c0-.31,0-.62,0-.93.72,0,1.43,0,2.15,0,.47,0,.68-.22.67-.69,0-.71,0-1.43,0-2.14A.74.74,0,0,1,34,17c.34.27.31.65.3,1a10.69,10.69,0,0,1,0,2A1.51,1.51,0,0,1,34.05,21c-.93.53-1.93.25-2.9.24A1.06,1.06,0,0,1,30.15,20.88Z"/><path class="cls-196" d="M27.28,19c-.43,0-.85.08-1-.55s-.58-.32-.91-.38a1.05,1.05,0,0,1-1,.37c-.65,0-1.38.31-1.87-.41v-.9l1.89,0c.31.69.65-.09,1,0,.69.08,1-.18.91-.91.75-.14,1,.19,1,.92S27.29,18.33,27.28,19Z"/><path class="cls-197" d="M34.87,10.46l0,.56A3.24,3.24,0,0,1,35,14.14l-.16.09c-.68.09-1-.19-.94-.89s0-1.32,0-2S34.17,10.35,34.87,10.46Z"/><path class="cls-198" d="M28.25,19c0-.72,0-1.44,0-2.16,0-.33.06-.65.49-.64s.43.31.44.61,0,.81,0,1.22c.06.71-.2,1.07-1,1Z"/><path class="cls-199" d="M34,18l-.06-.95c-.24-.33-.31-.64.06-.94l.88,0,.17.09a1.59,1.59,0,0,1,0,1.9A.7.7,0,0,1,34,18Z"/><path class="cls-200" d="M34,16.15l-.06.94H33c0-.31,0-.62,0-.93s-.14-.91.47-.92S33.88,15.8,34,16.15Z"/><path class="cls-201" d="M34.85,16.12l0-1.89,0,0A.75.75,0,0,1,36,14.16a1.85,1.85,0,0,1,0,2,.71.71,0,0,1-1.05-.05Z"/><path class="cls-202" d="M35.81,14.23l-.9,0V11l.9,0,.07.41c.57.54.33,1.23.33,1.87C36.22,13.66,36.23,14,35.81,14.23Z"/><path class="cls-203" d="M36.75,8.53l0,.94a.59.59,0,0,1-.91,0C35.74,8.81,36,8.46,36.75,8.53Z"/><path class="cls-204" d="M35.86,9.51l.91,0c.12.73-.18,1-.91,1Z"/><path class="cls-205" d="M22.55,18l1.88.06a.68.68,0,0,1,.28.8.66.66,0,0,1-.14.26,1.91,1.91,0,0,0-1,1,.76.76,0,0,1-.29.13c-.61.11-1.24.35-1.7-.33l0-.9,0-.12c.32-.27.62-.54.92-.83Z"/><path class="cls-206" d="M21.6,19.89l1.88.09a.66.66,0,0,1,.06,1,3.3,3.3,0,0,1-2.94,0A.71.71,0,0,1,20.68,20Z"/><path class="cls-207" d="M20.68,18.08l.95,0a.57.57,0,0,1,0,.89l0,0-1,0Z"/><path class="cls-208" d="M20.68,20l0,.9a.57.57,0,0,1-.94,0c0-.31,0-.62,0-.92Z"/><path class="cls-209" d="M57.65,20.9c.15.8-.3,1-1,.94a.74.74,0,0,1-.91.17,1.5,1.5,0,0,0-1.24-.73,1.12,1.12,0,0,1-.84-.37,1.36,1.36,0,0,1-.19-1,.91.91,0,0,1,.36-.92v-.09l.94.07c.36.26.62.63,1,.9l.93.07C56.58,20.73,57,20.93,57.65,20.9Z"/><path class="cls-210" d="M55.78,19.91c-.72.13-1.07-.15-1-.9h1Z"/><path class="cls-211" d="M52,18.07,52,19a.68.68,0,0,1-1,.12.67.67,0,0,1,.06-1Z"/><path class="cls-212" d="M51,18.06l0,.9-.06.13a.61.61,0,0,1-.77.08A.38.38,0,0,1,50,19L50.1,18Z"/><path class="cls-213" d="M51,19h1.92l.94.08v.86a1,1,0,0,1-.93.48.86.86,0,0,0-.82.61c-.56.18-.77.74-1.19,1.08a.94.94,0,0,1-1-.14,2.25,2.25,0,0,1-.18-1.86c.32-.48.94-.6,1.26-1.07Z"/><path class="cls-214" d="M19.71,20.87h.94l2.83,0,.14,0a1.27,1.27,0,0,0,1,.46,1.21,1.21,0,0,1,1.05.49,1,1,0,0,1-.1,1,1.08,1.08,0,0,1-.92.3c-.51,0-.6.31-.68.72-.2,1-.37,1.16-1.44,1.22a4,4,0,0,0-.85.06c-.47.15-.66.56-.3.86.82.69.7,1.54.62,2.42a1.26,1.26,0,0,1-.63,1.43.62.62,0,0,0-.3.64,1.19,1.19,0,0,1-.32.95.92.92,0,0,1-1,0,1,1,0,0,1-.34-.92c0-.4-.11-.65-.55-.7a2,2,0,0,1-1.14-.37,1.86,1.86,0,0,1-.26-1.34,1.57,1.57,0,0,0-.68-1.43,1,1,0,0,1-.14-.34c-.38-1.27-.38-1.27-1.73-1.34a11.35,11.35,0,0,1-2.54,0c-1.5.2-1.3-.31-1.86,1.45a2.79,2.79,0,0,0-.75,2.06,1,1,0,0,1-.44,1.07c-.65.22-1.3.4-1.84-.23V26.58a5.31,5.31,0,0,0,1.53-2.53,1.07,1.07,0,0,1,.21-.41,2.15,2.15,0,0,1,1.52-.35,1.81,1.81,0,0,0,1.47-.49l0,0a1,1,0,0,1,.91-.35,8.17,8.17,0,0,1,1,0,1.6,1.6,0,0,1,.92.1c.18.1.23.3.34.44a.61.61,0,0,0,1.13-.21c.1-.34.14-.68.47-.89l.93-.07.12.06a1.23,1.23,0,0,1,.33.86c0,.31.2.54.55.51a.48.48,0,0,0,.45-.51,7,7,0,0,0,.1-1,.84.84,0,0,1,.36-.79Z"/><path class="cls-215" d="M16.88,21.85c0,.28,0,.57,0,.85,0,.58,0,1-.81,1s-1.2-.09-1.11-.95c.15-.5.71-.57,1-.94Z"/><path class="cls-216" d="M15.94,21.85c.07.74-.31,1-1,.94l-.94,0a.61.61,0,0,1,0-.93h0Z"/><path class="cls-168" d="M19.72,20.88v.93a1.3,1.3,0,0,1-1.89.06v-.09c-.08-.67.22-1,.9-.9C19,20.91,19.38,20.88,19.72,20.88Z"/><path class="cls-217" d="M21.59,19l0-.89.94,0C22.63,18.76,22.33,19.1,21.59,19Z"/><path class="cls-218" d="M14,21.82l0,.93h-.95a.59.59,0,0,1,0-.9Z"/><path class="cls-219" d="M13.06,21.85v.9h-.94l0-.89Z"/><path class="cls-220" d="M45.32,49.53c-.4,0-.79,0-1,.46s-.57.27-.9.29a.76.76,0,0,1-.22-.89.57.57,0,0,1,.19-.24.78.78,0,0,0,.53-.81c0-1.2,0-2.4,0-3.59,0-.43-.14-.76-.66-.71a3.18,3.18,0,0,1-1.9-.21c-.26-.79,0-1.28.82-1.48a2,2,0,0,0,1.27-.82c.61-.37.47-1,.47-1.54,0-3.93,0-7.87,0-11.8a2.48,2.48,0,0,1,.35-1.72.85.85,0,0,1,1.08,0,.74.74,0,0,1,0,1.06Q45.33,38.53,45.32,49.53Z"/><path class="cls-36" d="M49.16,40.79V32.28a.69.69,0,0,1,1-.07,1.3,1.3,0,0,1,.31.86c.05,2.36.07,4.72,0,7.07a1,1,0,0,1-.12.45.92.92,0,0,1-.2.31A.69.69,0,0,1,49.16,40.79Z"/><path class="cls-89" d="M48.35,26.6l-.16,0a.74.74,0,0,1-.26-.86.64.64,0,0,1,.18-.25.89.89,0,0,0,.58-.88c0-.41.05-.84.48-1.07a1,1,0,0,1,1,.07.93.93,0,0,1,.31.89c-.19.73.6.83.84,1.28a.92.92,0,0,1-.23,1A2.64,2.64,0,0,1,48.35,26.6Z"/><path class="cls-221" d="M47.2,25.66h-.9a.79.79,0,0,1-1,.06.85.85,0,0,1-.21-1c.39-.43.92-.7,1.18-1.24a.93.93,0,0,1,.94,0,5.46,5.46,0,0,0,1.19,1.21.79.79,0,0,1-.22.92h0A.69.69,0,0,1,47.2,25.66Z"/><path class="cls-222" d="M48.35,26.6H51l.13.05a.58.58,0,0,1,.07.77.38.38,0,0,1-.24.11c-.56,0-1.12,0-1.68,0S48.29,27.27,48.35,26.6Z"/><path class="cls-104" d="M51,30.3l.06-1.85a.72.72,0,0,1,1-.1,1.07,1.07,0,0,1,.28,1,1.48,1.48,0,0,1-.19,1,.76.76,0,0,1-1,.19A.52.52,0,0,1,51,30.3Z"/><path class="cls-223" d="M45.36,25.62l.94.05c0,.3,0,.61,0,.92.06.72-.24,1-1,.94l0-1a.61.61,0,0,1-.16-.78A.4.4,0,0,1,45.36,25.62Z"/><path class="cls-104" d="M50.05,32.25l-.9,0v-1a.7.7,0,0,1,.84-.25.62.62,0,0,1,.25.2.71.71,0,0,1,0,.89Z"/><path class="cls-224" d="M50.09,30.38l.9-.08,0,.09a.69.69,0,0,1,.18.88.64.64,0,0,1-.22.24.71.71,0,0,1-.9-.18l-.08,0A.62.62,0,0,1,50.09,30.38Z"/><path class="cls-225" d="M50.09,30.38c0,.3-.05.61-.07.92l-.88,0C49,30.58,49.34,30.27,50.09,30.38Z"/><path class="cls-36" d="M52,28.47l-.91,0c0-.31-.07-.62-.1-.93H51a.66.66,0,1,1,.92.95Z"/><path class="cls-226" d="M47.2,25.66l1,0c0,.31,0,.62,0,.94C47.48,26.67,47.14,26.39,47.2,25.66Z"/><path class="cls-227" d="M49.16,40.79H50c.35.18.36.46.23.78a.43.43,0,0,1-.24.18l-.87,0C49.15,41.41,49.16,41.1,49.16,40.79Z"/><path class="cls-228" d="M34.92,63.54l-.06-7.38c0-.64,0-1.33,1-1.11a1.07,1.07,0,0,1,.35,1c.14,2.19.07,4.39,0,6.58a1.43,1.43,0,0,1-.31,1A.7.7,0,0,1,34.92,63.54Z"/><path class="cls-229" d="M38.66,55.07c.75-.15,1,.19,1,.92,0,2.22,0,4.45,0,6.67,0,.69-.22,1-.92.94-.44-.2-.42-.6-.42-1-.13-2.17-.06-4.35-.05-6.52A1.17,1.17,0,0,1,38.66,55.07Z"/><path class="cls-230" d="M38.66,55.07l0,7.56a.73.73,0,0,1-1,0,1.48,1.48,0,0,1-.31-1c0-1.87,0-3.75,0-5.62a1.13,1.13,0,0,1,.41-1Z"/><path class="cls-231" d="M37.72,55.08l.08,7.53-.12.15a.82.82,0,0,1-1.06-.1,1.27,1.27,0,0,1-.25-.88c0-1.91-.09-3.82.05-5.72a1,1,0,0,1,.37-1Z"/><path class="cls-232" d="M39.62,51.27c.64-.12,1,0,1,.8,0,2,.08,2-1.85,2l-1,0a.73.73,0,0,1-.22-.87.63.63,0,0,1,.18-.24,1.34,1.34,0,0,1,.52-.2c.62,0,1-.28,1-1C39.27,51.56,39.46,51.42,39.62,51.27Z"/><path class="cls-233" d="M39.62,50.27l-2.81,0a1,1,0,0,1-1.42.1.92.92,0,0,1-.08-1.1.68.68,0,0,1,.48-.26,5.45,5.45,0,0,1,2-.11c.66,0,1.35-.18,2,.3A.71.71,0,0,1,39.62,50.27Z"/><path class="cls-234" d="M40.56,67.36l-1.83,0-.07,0a1.4,1.4,0,0,1-.2-1.71.46.46,0,0,1,.26-.19c.31,0,.62,0,.92,0,.74-.08,1,.26,1,1C40.59,66.73,40.57,67,40.56,67.36Z"/><path class="cls-235" d="M39.62,51.27c0,1.95.33,1.87-1.86,1.87a1.24,1.24,0,0,1,0-1.88Z"/><path class="cls-236" d="M39.62,50.27l0-.93.09-.15c.28-.29.65-.21,1-.22a9.44,9.44,0,0,1,1.84,0c.34,0,.68.07.86.43,0,.31,0,.62,0,.93Z"/><path class="cls-237" d="M44.39,67.35c-.65,0-1.31,0-2,0s-1-.25-.9-.93l1.88-.06h.95A.61.61,0,0,1,44.39,67.35Z"/><path class="cls-238" d="M37.8,62.61l.88,0c0,.32,0,.65,0,1,0,.62,0,1.23,0,1.85l-.09,0a.69.69,0,0,1-.94.13.83.83,0,0,1-.21-.28,3,3,0,0,1,.23-2.7Z"/><path class="cls-239" d="M33,50.26H31.14a.68.68,0,0,1-.25-.88.66.66,0,0,1,.23-.24,1.65,1.65,0,0,1,1-.15,1.1,1.1,0,0,1,1,.29A.71.71,0,0,1,33,50.26Z"/><path class="cls-240" d="M35.45,50.25l1.36.07v.86l-.06.15a.85.85,0,0,1-.84.25c-.3,0-.61.08-.87-.15a.41.41,0,0,1-.15-.25v-.86A.39.39,0,0,1,35.45,50.25Z"/><path class="cls-241" d="M34,53.12c0-.31,0-.62,0-.92-.12-.76.22-1.05,1-1l0,.09c.58.52.42,1.14.23,1.76a.75.75,0,0,1-.23.27A.72.72,0,0,1,34,53.12Z"/><path class="cls-242" d="M37.72,51.26c0,.63,0,1.25,0,1.88h0a.76.76,0,0,1-1,.17.64.64,0,0,1-.23-.26c-.21-.63-.38-1.26.23-1.79l0-.09Z"/><path class="cls-243" d="M35.45,50.25l-.57.07-1-.06a.71.71,0,0,1-.08-1,1,1,0,0,1,1-.24.67.67,0,0,1,.6.34Z"/><path class="cls-244" d="M36.79,55.07l0,.92a.58.58,0,0,1-.89,0v-.94Z"/><path class="cls-245" d="M34,53.12l.87,0c.38.27.34.58.07.9C34.15,54.19,33.82,53.89,34,53.12Z"/><path class="cls-246" d="M34.91,54.05l-.07-.9.08,0a.68.68,0,0,1,1-.06.67.67,0,0,1-.07,1Z"/><path class="cls-247" d="M35.84,54.05l0-.88.08-.14a.6.6,0,0,1,.87.09l.08,0a.61.61,0,0,1-.06.91Z"/><path class="cls-248" d="M36.78,54.06l.06-.91h.9c0,.3,0,.61,0,.91Z"/><path class="cls-249" d="M31.07,49.35c0,.3,0,.6.07.9l-1,0c0-.32,0-.64,0-1C30.48,49.06,30.78,49,31.07,49.35Z"/><path class="cls-250" d="M34,49.39l0,.87H33c0-.29,0-.58,0-.87a.41.41,0,0,1,.13-.23.63.63,0,0,1,.76,0A.46.46,0,0,1,34,49.39Z"/><path class="cls-79" d="M49.16,46.52l.87,0,.16.08c.31.28.24.66.25,1a32.9,32.9,0,0,1,.06,3.58,1.33,1.33,0,0,1-.39,1H50a.55.55,0,0,1-.87,0Z"/><path class="cls-251" d="M49.15,52.17l.87,0c0,.31,0,.63,0,.94h-.94C49.13,52.81,49.14,52.49,49.15,52.17Z"/><path class="cls-252" d="M51,44.6V42.69l.1-.15a1.38,1.38,0,0,1,1.82.16h0l.95.94v0a1.27,1.27,0,0,1,.36,1.59.89.89,0,0,1-1.13.56c-.11,0-.26-.07-.31-.18a1.08,1.08,0,0,0-1.27-.76c-.19,0-.33-.14-.45-.28Z"/><path class="cls-253" d="M50.09,42.67c0-.3-.05-.61-.07-.91l.08,0a.64.64,0,0,1,1,0,.73.73,0,0,1,0,1h0l0,0Z"/><path class="cls-254" d="M51.06,44.59a2.06,2.06,0,0,0,.56,0c1.14-.41,1.24-.35,1.31,1a.62.62,0,0,1,0,.93h0a.73.73,0,0,1-.82.27c-.52-.13-.49-.79-.95-1a.48.48,0,0,1-.15-.22Z"/><path class="cls-255" d="M50,46.48l.07-.92.88,0h.09a.77.77,0,0,1,0,1,.69.69,0,0,1-1-.05Z"/><path class="cls-256" d="M58.61,39.85h1.22c1.35,0,1.36,0,1.63,1.36.06.32.21.51.54.53s.57,0,.85,0c1.23.05,1.44.27,1.45,1.52V44.6c0,.37,0,.75,0,1.13a1.7,1.7,0,0,1-2.4,1.68c-.46-.13-.46-.48-.44-.82a3.69,3.69,0,0,0-.39-2c.11-.23.33-.26.54-.31.4-.24,1.18.1,1.21-.62s-.75-.44-1.15-.65a.84.84,0,0,0-.27-.08c-.28-.09-.42-.37-.67-.51-.76-.41-1.81-.12-1.69.94a8.44,8.44,0,0,1,0,1.23,4.07,4.07,0,0,0-.4,1.51c0,.43.26,1.08-.32,1.23a2,2,0,0,1-2-.28c-.17-.18-.32-.38-.48-.57-.52-.58-.57-1.42-1.14-2-.23-.22-.08-.59.17-.83.54,0,1.1-.06,1-.79s.36-1,1-1.14c.12-.1.22-.27.36-.29a1.28,1.28,0,0,0,1.24-1.25C58.33,40.06,58.5,40,58.61,39.85Z"/><path class="cls-257" d="M59,44.6c-.71-.65-.41-1.46-.25-2.17.12-.54.76-.65,1.26-.64s1.27.13,1.46.91a1.27,1.27,0,0,1,0,1.89c-.13.11-.26,0-.39,0Z"/><path class="cls-258" d="M51,46.47l.07-.93c.74-.1,1,.29.9,1a1.3,1.3,0,0,1,.27,1.71c-.46.68-.74,1.43-1.19,2.09a8.68,8.68,0,0,0,0,1c.08.72-.26,1-.92.86V47.45C50.37,47.09,50.74,46.82,51,46.47Z"/><path class="cls-39" d="M54.79,43.67c0,.24,0,.67.14.71,1.18.36.77,1.32.83,2.11H52.91c0-.31,0-.62,0-.93.8.09,1.07-.32,1-1,0-.28,0-.56,0-.84Z"/><path class="cls-218" d="M51.05,50.3c.07-.76-.39-1.61.72-2.13.45-.21.14-1.1.2-1.67l.93,0c0,.6,0,1.2,0,1.79A2.39,2.39,0,0,1,51.05,50.3Z"/><path class="cls-256" d="M53.89,48.35c-.12-.82.34-.9,1-.92.8,0,.92.37.93,1s-.37.87-1,.88C54,49.36,53.75,49,53.89,48.35Z"/><path class="cls-256" d="M66.2,47.44c0,.28,0,.56,0,.84s.15.9-.41,1-1,.23-1.33-.17a1.55,1.55,0,0,1-.08-1.35c.09-.35.43-.32.7-.33Z"/><path class="cls-259" d="M67.13,55v1.88l-2.43,0V56c.64-.11,1.61.31,1.52-1Z"/><path class="cls-260" d="M44.39,67.35l0-1,.06-.92c.72.12,1-.21.92-.91l4,0a.74.74,0,0,1,.13,1c-.58.53-1.27.32-1.93.3s-.93.09-.87.74a.82.82,0,0,1-.38.77v0h-.94Z"/><path class="cls-261" d="M49.3,65.43v-.89H52a.73.73,0,0,1,.12,1c-.61.51-1.31.27-2,.24A.78.78,0,0,1,49.3,65.43Z"/><path class="cls-262" d="M52,65.43v-.88h.93c0,.29,0,.59,0,.89A.57.57,0,0,1,52,65.43Z"/><path class="cls-263" d="M67.14,21.85v.91a.88.88,0,0,1-.88.37c-.33,0-.66,0-1,0s-.65,0-1,0-.66,0-1,0a9.09,9.09,0,0,1-1.88,0,1.15,1.15,0,0,1-1-.28.73.73,0,0,1,.11-1Z"/><path class="cls-264" d="M60.51,21.85v.9a1.27,1.27,0,0,1-1.91,0c-.12-.78.33-1,1-1Z"/><path class="cls-265" d="M64.29,30.36h-.93c-.45-.2-.43-.63-.5-1a6.62,6.62,0,0,1,.34-2.83.87.87,0,0,1,.94-.22.68.68,0,0,1,.27.13,2,2,0,0,1,.34,1c0,.27.18.47.49.47a.47.47,0,0,0,.5-.45,2.67,2.67,0,0,1,.28-1,.69.69,0,0,1,.24-.18.78.78,0,0,1,.89.23h0c0,1,0,1.91,0,2.86,0,.63,0,1.27,0,1.9H66.2a1.38,1.38,0,0,1-.41-.61c-.28-1-.4-1-1.24-.43A.58.58,0,0,1,64.29,30.36Z"/><path class="cls-266" d="M66.16,22.81l1,0v.95l0,0a.68.68,0,0,1-1,0A.64.64,0,0,1,66.16,22.81Z"/><path class="cls-267" d="M67.15,26.57h-1A1.31,1.31,0,0,1,65.88,25c.2-.65.69-.76,1.26-.36l0,0C67.16,25.32,67.15,25.94,67.15,26.57Z"/><path class="cls-268" d="M67.14,24.66c-.73-.06-1,.26-1,1a7.22,7.22,0,0,1,0,.93h0a1.27,1.27,0,0,1-1.9,0h0A1.29,1.29,0,0,1,64,24.86c.43-.66.72-1.41,1.21-2h.92c-.09.76.27,1,1,.93Z"/><path class="cls-269" d="M65.24,22.82c-.11.72.35,1.57-.75,2.06-.47.21-.13,1.11-.18,1.69h-1l-.12-.06a.53.53,0,0,1-.16-.23c-.44-1.18-.44-1.18-1.78-1.24a11.52,11.52,0,0,1-2.49,0H58.6c-1.36.1-1.36.1-1.53,1.48a4.53,4.53,0,0,1,0,1.76c-.16.53,0,.69.52.71a1.84,1.84,0,0,1,1.16.29.62.62,0,0,1,.17.27c.18.63.3,1.25-.28,1.76h0a.76.76,0,0,1-1.26-.08c-.2-.23-.33-.52-.71-.48a1.42,1.42,0,0,1-.86-.17c-.39-.85-1.31-.63-2-1a.59.59,0,0,1-.2-.24,1.81,1.81,0,0,1-.14-.95c0-.57-.22-1.17.22-1.69a1.61,1.61,0,0,1,1.12-.62.45.45,0,0,0,.42-.53.41.41,0,0,0-.36-.38.45.45,0,0,0-.55.39,1.5,1.5,0,0,1-.55,1.06.71.71,0,0,1-.9.09.64.64,0,0,1-.22-.27,13.16,13.16,0,0,1-.11-4.2c0-.56.47-.78,1-.73a1.42,1.42,0,0,1,.29.1,1.33,1.33,0,0,1,.43,1c0,.3.12.57.48.59s.51-.27.55-.6a1.21,1.21,0,0,1,.31-.76l.12-.06.93.05.05.9c.68.69,1,.7,1.89.08l0-.06h1.91l.93.06c.49.59,1.21.44,1.84.55.48.06.71-.32,1-.55Z"/><path class="cls-215" d="M58.63,22.82c.09.9-.49.91-1.15.91s-.81-.42-.74-1Z"/><path class="cls-270" d="M22.56,30.36c.5,0,.92,0,1,.7s1.06.63.92,1.39a.54.54,0,0,1,0,.76c0,.95,0,1.89,0,2.84,0,1.59,0,3.18,0,4.77,0,.68-.21,1-.91.94l-.16-.08a1.09,1.09,0,0,1-.3-.86c0-2.13-.09-4.26,0-6.39-.11-.72.23-1.58-.67-2a1,1,0,0,0-.93-.65c-.33,0-.7,0-.84-.44v-.95A1.26,1.26,0,0,1,22.56,30.36Z"/><path class="cls-271" d="M23.56,46.46c.7-.06.93.28.9.94,0,.84,0,1.68,0,2.52a.72.72,0,0,1-1,.1.81.81,0,0,1-.26-.64,5.34,5.34,0,0,1,.11-2.72A.6.6,0,0,1,23.56,46.46Z"/><path class="cls-272" d="M22.55,43.64l0,1.87-.09.16c-1.29.62-2.07.28-2.08-.93a5.74,5.74,0,0,1,1.21-1.3A.77.77,0,0,1,22.55,43.64Z"/><path class="cls-273" d="M23.53,49.9l.9,0c0,.75,0,1.5,0,2.25a.72.72,0,0,1-1.05,0C23,51.42,22.8,50.63,23.53,49.9Z"/><path class="cls-274" d="M22.55,43.64l-.92,0a.68.68,0,0,1-.14-1,.74.74,0,0,1,1-.25.27.27,0,0,1,.11.32Z"/><path class="cls-275" d="M22.58,45.51c.71-.07,1,.24,1,1l-.1.06a.66.66,0,1,1-.92-.94Z"/><path class="cls-276" d="M22.6,42.73l-.07-.24a.58.58,0,0,1-.12-.65.63.63,0,0,1,1.05-.12l.09,0C23.59,42.43,23.34,42.82,22.6,42.73Z"/><path class="cls-277" d="M23.51,54.08l-1,0a.73.73,0,0,1-.22-.84A.64.64,0,0,1,22.5,53a.83.83,0,0,1,.88,0,.55.55,0,0,1,.18.24Z"/><path class="cls-91" d="M23.53,52.19l.91,0c.11.69-.15,1-.88,1l-.08,0a.58.58,0,0,1-.08-.83Z"/><path class="cls-278" d="M23.53,49.9v2.29h0c-.3.32-.62.64-.94,1h0a.62.62,0,0,1-.78.18.37.37,0,0,1-.17-.22c.07-.63-.16-1-.84-.92s-1.15-.19-1.06-1c.07-.64-.21-.92-.87-.91s-1.09.07-1,.86-.33.9-.94.87c-.09,0-.2-.09-.22-.17a1.31,1.31,0,0,0-1.33-1.24c-.14,0-.24-.2-.35-.3H14.4c-.14-.51.29-.76.49-1.1,1.23,0,1.69-.62,1.51-1.8.27-1.19,1.27-1.59,2.21-2.06a.6.6,0,0,1,.26.11c.24.38.44.81,1,.7a.83.83,0,0,1,.68.18,1.2,1.2,0,0,0,1.21.7A1.09,1.09,0,0,1,23,48.17a1.65,1.65,0,0,0,.5,1.18Z"/><path class="cls-108" d="M15,49.33a1.55,1.55,0,0,1-.57,1,10.46,10.46,0,0,1-1.12,0c-.82-.08-1.27.17-1.16,1.08.07.6-.23.84-.83.83a5.33,5.33,0,0,1-2-.39c-.37-.82-1.2-1.07-1.87-1.52v-1a1.21,1.21,0,0,1,.89-.45.47.47,0,0,0,.47-.49.48.48,0,0,0-.47-.5,1.22,1.22,0,0,1-.89-.44l-.06-2.66.06-.21c.46-.53,1-.43,1.6-.28.11.06.27.11.31.21.34,1,1.21,1.74,1.37,2.82,0,.13.05.25.05.38,0,1.38,0,1.38,1.4,1.33a6.24,6.24,0,0,1,2.75.18A.44.44,0,0,1,15,49.33Z"/><path class="cls-279" d="M8.32,56.91V56c.32-.35.65-.27,1,0,.84,0,1.69,0,2.54,0,.54,0,1,.05,1.37-.66s1.15-.18,1.75-.3a1.56,1.56,0,0,1,2-.11A.75.75,0,0,1,16.86,56l0,0h-.94c-.36.26-.64.62-1,.91H14Z"/><path class="cls-280" d="M16.88,55,15,55c0-1.43.65-2,1.89-1.87.22,0,.47,0,.57.26a1.18,1.18,0,0,0,1,.73c.46.06.34.52.37.85l-.93.06A.65.65,0,0,1,16.88,55Z"/><path class="cls-108" d="M15,50.29h.19c1.77,0,1.77,0,1.71,1.71a1.43,1.43,0,0,1-.81.19c-.8.09-1.2-.2-1.1-1A6,6,0,0,0,15,50.29Z"/><path class="cls-281" d="M7.41,50.28h.36c1.5,0,1.5,0,1.51,1.52-.5.72-1.25.24-1.87.39Z"/><path class="cls-108" d="M7.41,54.26V53c.37,0,.75,0,1.12,0s.78.24.72.75a.69.69,0,0,1-.91.67C8,54.31,7.72,54.3,7.41,54.26Z"/><path class="cls-282" d="M9.3,56l-1,0c-.72.08-1-.24-.92-1,.3,0,.61,0,.92,0C9,55,9.36,55.24,9.3,56Z"/><path class="cls-283" d="M21.62,54.09h-1c-.11-.74.26-1,.95-1v.06a.6.6,0,0,1,0,.91Z"/><path class="cls-284" d="M34,65.49c0-.32,0-.64,0-1h1a.7.7,0,0,1,1-.12.84.84,0,0,1,.21,1,.64.64,0,0,1-.22.27,1.48,1.48,0,0,1-1,.18A.93.93,0,0,1,34,65.49Z"/><path class="cls-285" d="M35.79,64.54l-.88,0c0-.32,0-.64,0-1l.92,0,.12.07a.6.6,0,0,1,.06.77A.41.41,0,0,1,35.79,64.54Z"/><path class="cls-286" d="M20.7,65.52c.74.09,1-.28.94-1l6.59,0a.69.69,0,0,1,.2.91.78.78,0,0,1-.25.23,3.71,3.71,0,0,1-1.84.16c-.59-.08-1.18.11-1.77,0a8.61,8.61,0,0,1-.88,0,.75.75,0,0,0-.9.59.61.61,0,0,1-.17.19,2.82,2.82,0,0,0-1,.73v.06c-.76.06-1.1-.24-.93-1A4.69,4.69,0,0,0,20.7,65.52Z"/><path class="cls-287" d="M28.24,65.44v-.88l1,0h0a.7.7,0,0,1,.07,1A.68.68,0,0,1,28.24,65.44Z"/><path class="cls-288" d="M34,65.49h.94a.69.69,0,0,1,.08,1,.71.71,0,0,1-1,0l-.06-.07C33.93,66.09,34,65.79,34,65.49Z"/><path class="cls-289" d="M16.88,55h1c0,.31,0,.61,0,.92h-.94Z"/><path class="cls-290" d="M28.24,65.44h1a.63.63,0,0,1,.93,0c0,.31,0,.62.05.93.06.72-.24,1-1,1a10.61,10.61,0,0,0-1.13,0c-.65-.7-.35-1.29.2-1.86Z"/><path class="cls-291" d="M30.12,65.46l-.93,0v-.91h.94C30.13,64.84,30.12,65.15,30.12,65.46Z"/><path class="cls-292" d="M15,56.92c-.11-.78.25-1.05,1-.91l0,.87Z"/><path class="cls-293" d="M52,65.43h.95l0,.06c.58.83.54,1-.4,1.85l-2.24,0-.61,0c-.6-.78-.09-1.31.41-1.84Z"/><path class="cls-294" d="M52.52,67.35c.1-.62.54-1.17.4-1.85l.91,0,0,.56C53.88,67.37,53.88,67.37,52.52,67.35Z"/><path class="cls-295" d="M28.25,65.49c-.06.62-.13,1.24-.2,1.86l-1.31,0-1.35,0c-.39-.46-.19-.86.14-1.23a4.85,4.85,0,0,1,.82-.61Z"/><path class="cls-296" d="M26.35,65.5c0,.79-1,1-1,1.84H23.5a.72.72,0,0,1-.24-.82.48.48,0,0,1,.14-.25,4.52,4.52,0,0,0,1.07-.78Z"/><path class="cls-297" d="M23.51,66.41v.94l-.92.06,0-.08a.61.61,0,0,1,0-.92h0A.6.6,0,0,1,23.51,66.41Z"/><path class="cls-298" d="M50.08,65.5c.12.67-.44,1.19-.41,1.84H47.22a1,1,0,0,1-.34-.94.89.89,0,0,1,.38-.92l2-.06Z"/><path class="cls-299" d="M47.22,66.4v.95h-1l0-.93A.62.62,0,0,1,47.22,66.4Z"/><path class="cls-300" d="M34,66.46l.9-.06a.58.58,0,0,1,0,.94H34C34,67.05,34,66.75,34,66.46Z"/><path class="cls-301" d="M34.9,67.34l0-.94c0-.31,0-.61,0-.91h.93a1.23,1.23,0,0,1,0,1.85l-.06.07Z"/><path class="cls-302" d="M35.86,67.34c0-.62,0-1.23,0-1.85v0a.75.75,0,0,1,.95-.17.64.64,0,0,1,.23.26,1.53,1.53,0,0,1-.21,1.8l-.05,0Z"/><path class="cls-303" d="M37.75,65.46l.88,0,0,1.87-.88.05-.07-.07A1.24,1.24,0,0,1,37.75,65.46Z"/><path class="cls-304" d="M37.75,65.46l0,1.87h-.9c0-.61,0-1.21,0-1.82.29-.39.6-.33.92,0Z"/><path class="cls-305" d="M22.56,66.41c0,.31,0,.61,0,.92h-.94C21.51,66.6,21.87,66.33,22.56,66.41Z"/><path class="cls-306" d="M53.87,37h-1a.73.73,0,0,1-.92.19.66.66,0,0,1-.24-.23c-.27-1.2-.56-2.4.52-3.42.32-.3.2-.85.42-1.24a.69.69,0,0,1,.24-.24.91.91,0,0,1,1,0c.52.58.3,1.37.59,2a7.66,7.66,0,0,1-.5,2.8Z"/><path class="cls-307" d="M51.07,42.72c0-.66-.2-1.1-1-1L50,40.8h.08c.62-.57.4-1.33.47-2s-.2-1.4.41-1.94A.78.78,0,0,1,52,37h0a2.48,2.48,0,0,1,0,2.85c0,.41,0,.81,0,1.21s0,.6.37.66c.62.1.58.54.57,1Z"/><path class="cls-170" d="M63.34,37H61.46l-.16-.1a2.56,2.56,0,0,1,.16-2.74h0a1.59,1.59,0,0,1,2-.12A2.74,2.74,0,0,1,63.34,37Z"/><path class="cls-308" d="M61.46,37c-.07,2,.46,1.91-2,1.91-.63,0-.84-.29-.81-.87,0-.35,0-.69,0-1l.1-.15a2.6,2.6,0,0,1,2.75.15Z"/><path class="cls-170" d="M58.61,37H56.72a2.52,2.52,0,0,1,.08-3,1.44,1.44,0,0,1,1.81.19h0a2.42,2.42,0,0,1,0,2.84Z"/><path class="cls-306" d="M56.91,34.17A8.37,8.37,0,0,0,56.72,37h-1l-.14-.08a7.51,7.51,0,0,1-.5-2.81c.29-.65.05-1.46.62-2a1,1,0,0,1,1,0A1.88,1.88,0,0,1,56.91,34.17Z"/><path class="cls-171" d="M63.34,37V34.15a1.06,1.06,0,0,1,0-1.7h.93c.63.39.38,1.14.67,1.68a5.23,5.23,0,0,1-.52,2.78L64.3,37Z"/><path class="cls-309" d="M65.22,39.87c.74-.11,1,.2,1,.89s-.22,1-1,1-1-.33-.95-1S64.56,39.74,65.22,39.87Z"/><path class="cls-309" d="M55.75,40.82c.13.79-.31.94-1,.94s-.89-.32-.91-1,.32-.95,1-.95S55.85,40.13,55.75,40.82Z"/><path class="cls-171" d="M58.61,39.85c0,2.07.27,1.9-1.9,1.89C56.72,39.6,56.52,39.87,58.61,39.85Z"/><path class="cls-268" d="M55.76,37a6.4,6.4,0,0,0,0,.76c.06.74-.09,1.18-1,1.17s-.94-.52-.91-1.17c0-.25,0-.5,0-.76h0a1.26,1.26,0,0,1,1.89,0Z"/><path class="cls-310" d="M66.19,37c0,.26,0,.51,0,.76.07.74-.08,1.18-1,1.17s-.94-.52-.9-1.17c0-.25,0-.5,0-.76h0a1.27,1.27,0,0,1,1.9,0Z"/><path class="cls-311" d="M52,39.85V37h.94c0,.62,0,1.25,0,1.86S52.71,39.94,52,39.85Z"/><path class="cls-312" d="M53.87,43.64c-.73.1-1-.21-.95-.94C53.65,42.59,54,42.92,53.87,43.64Z"/><path class="cls-313" d="M61.46,29.41h-1a1.26,1.26,0,0,1-1.9,0h0a2.75,2.75,0,0,1-.11-2.93,3.38,3.38,0,0,1,3-.08,3,3,0,0,1,.12,2.9Z"/><path class="cls-314" d="M58.6,37c0-1,0-1.89,0-2.84h2.85V37Z"/><path class="cls-315" d="M56.91,34.17c-.37-.61-.13-1.27-.2-1.91a1.26,1.26,0,0,1,0-1.88c.42,0,.87-.1,1,.53s.56.36.91.39v2.86Z"/><path class="cls-315" d="M58.61,29.42h1.9c.09.27.21.53.28.8.18.67-.12,1-.78,1.09-.47,0-.94,0-1.41,0C58.6,30.68,58.61,30.05,58.61,29.42Z"/><path class="cls-316" d="M63.36,32.45v1.7h-1.9c0-.16,0-.32,0-.47C61.46,32.15,61.79,31.94,63.36,32.45Z"/><path class="cls-315" d="M64.29,30.36c-.1-.86.4-1,1.1-.95s.84.37.81,1c0,.31,0,.63,0,.94-.31,0-.63,0-.93,0C64.54,31.39,64.22,31.09,64.29,30.36Z"/><path class="cls-267" d="M63.15,29.4a1.45,1.45,0,0,1,.21,1c.1.86-.4,1-1.1.95s-.83-.38-.8-1c0-.32,0-.63,0-.95h0A1.09,1.09,0,0,1,63.15,29.4Z"/><path class="cls-317" d="M64.69,34.17c-.72-.44-.25-1.15-.4-1.71.6-.36,1.27-.13,1.9-.2-.13.64.35,1.39-.38,1.91A.72.72,0,0,1,64.69,34.17Z"/><path class="cls-168" d="M64.69,34.17h1.12c.1.95.59,1.85.39,2.84H64.3C64.09,36,64.59,35.12,64.69,34.17Z"/><path class="cls-318" d="M10.42,47.44c-.39-1-1.33-1.69-1.34-2.84,0-.21-.2-.39-.21-.61a.81.81,0,0,0-.85-.9.89.89,0,0,1-.61-.39v-.94c.1-.12.19-.3.33-.31,1.12-.11,1.17-.9,1.16-1.75-.07-1.41.05-1.6,1.14-1.76a3,3,0,0,0,2.15.73c1.79,1.14,2,1,2.37-1.06a1.05,1.05,0,0,1,.51-.86,2.25,2.25,0,0,1,1.8,0c.75.82,1.66,1.58,1.31,2.91a5.06,5.06,0,0,0,.1,1.1.48.48,0,0,0,.95,0,5.8,5.8,0,0,0,.11-1.11,2.6,2.6,0,0,1,1.22-2.92,2.93,2.93,0,0,1,1-.2c1,0,1.34.31,1.4,1.33a9.92,9.92,0,0,1,0,1.22A1.07,1.07,0,0,1,22,40.26c-.33.06-.73.1-.75.55s.38.54.69.67a.93.93,0,0,1,.56.47v.54c-.67.11-1,.45-.9,1.18s-.26,1-1,.93a1.05,1.05,0,0,1-.79.41,1.74,1.74,0,0,0-1.12.53,7,7,0,0,0-2.08,1.9,1.24,1.24,0,0,1-1.58.21c-.87-.85-.62-1.84-.34-2.83a1.61,1.61,0,0,1,1.15-.69.46.46,0,0,0,.45-.51.41.41,0,0,0-.42-.41.47.47,0,0,0-.51.44,1.46,1.46,0,0,1-.55,1,1.2,1.2,0,0,1-.94.33c-1.28.11-1.29.14-1.39,1.46,0,.43,0,.89-.44,1.17A1.36,1.36,0,0,1,10.42,47.44Z"/><path class="cls-206" d="M10.22,38.13c-1.06.17-1,1-.94,1.73a1.23,1.23,0,0,1-1.87,0V37c.23-.36.61-.4,1-.48a.49.49,0,0,0,0-1c-.37-.08-.76-.11-1-.48l-.06-.75.06-.2c.07-.07.13-.19.2-.2a2.43,2.43,0,0,0,1.67-1.32,1,1,0,0,1,1,0c.51.38.45,1,.65,1.5.09,1-.34,1.94-.28,2.93C10.6,37.47,10.68,37.9,10.22,38.13Z"/><path class="cls-319" d="M7.41,35.1c.31,0,.63,0,.94,0,.67-.05.94.21,1,.91s-.21,1.07-1,1c-.31,0-.62,0-.94,0Z"/><path class="cls-309" d="M7.41,39.83l1.87,0c0,2.13.21,1.85-1.86,1.9C7.42,41.12,7.41,40.48,7.41,39.83Z"/><path class="cls-320" d="M7.41,42.7h.38c1.6,0,1.83.33,1.29,1.9l-1.67,0Z"/><path class="cls-321" d="M7.41,47.45c.28,0,.56,0,.84,0,.75-.08,1.08.2,1.05,1,0,.61-.2,1-.87.9-.34,0-.68,0-1,0Z"/><path class="cls-206" d="M7.41,29.4l1.87,0c.48.26.36.71.37,1.12a2.49,2.49,0,0,1-.5,1.9,1.34,1.34,0,0,1-1.74-.17Z"/><path class="cls-317" d="M7.41,32.27l1.67,0c.43.07.34.32.21.59,0,1.33,0,1.33-1.88,1.31Z"/><path class="cls-322" d="M9.3,23.81c0,.31,0,.62,0,.93-.06,1.79-.06,1.79-1.88,1.84v-.94c.27-.34.66-.63.56-1.15a.82.82,0,0,1,.37-.76h0a.6.6,0,0,1,.81-.19A.38.38,0,0,1,9.3,23.81Z"/><path class="cls-323" d="M8.32,24.66c.11.71-.19,1-.91,1l0-1h0A.61.61,0,0,1,8.32,24.66Z"/><path class="cls-319" d="M12.14,22.8c.07.66-.17,1-.89.93s-1.3.05-1.95.08c0,0,0-.07,0-.1a.57.57,0,0,1,0-.9Z"/><path class="cls-324" d="M8.32,24.66l-.93,0c-.12-.76.21-1.05,1-.95Z"/><path class="cls-325" d="M9.3,22.81l0,.9-.93,0C8.22,23,8.51,22.64,9.3,22.81Z"/><path class="cls-326" d="M41.52,18V16.14c.67,0,.94.39.95,1s0,1.19,0,1.78.24,1.06,1,1a1.51,1.51,0,0,1,.11,1.95c-.91.62-1.91.31-2.89.32a9.58,9.58,0,0,1-1.93,0,1.31,1.31,0,0,1-.85-.14,3.81,3.81,0,0,0-.79-.76.9.9,0,0,1-.33-1.51,2.84,2.84,0,0,1,1.86-.22,1.79,1.79,0,0,1,.94.13,1.47,1.47,0,0,0,1.81.66C41.26,19.59,40.76,18.75,41.52,18Z"/><path class="cls-194" d="M48.17,25.63v-.94a1,1,0,0,1-.36-.84c0-.33-.14-.58-.48-.59-1.17,0-1.71-.93-2.39-1.64-.27-.29-.69-.46-.8-.91a.75.75,0,0,1,.24-.77c.7.06,1.06-.21,1-1a.6.6,0,0,1,1-.15c.52.53,1.34.87,1.36,1.85.2-.3.16-.68.53-.77l.91,0c.11,0,.26.12.28.23.22,1.2.49,2.4-.22,3.54a5.9,5.9,0,0,0,0,.94C49.21,25.39,48.9,25.7,48.17,25.63Z"/><path class="cls-327" d="M44.37,19.94A1,1,0,0,0,45,21a3.56,3.56,0,0,1,1.22,1.22,1,1,0,0,0,1.11.59c.73-.05,1,.31.88,1a.68.68,0,0,1-1,0h-.9a4.87,4.87,0,0,0-.94.93v.93h-.08a.69.69,0,0,1-1,.12,1.11,1.11,0,0,1-.3-.92c0-.6-.08-1.19-.08-1.79a1.15,1.15,0,0,0-.45-1.09l0-.13c0-.63,0-1.25,0-1.87Z"/><path class="cls-328" d="M48.18,19.92c0,.38,0,.76,0,1.13s0,.75-.51.72-.4-.39-.43-.7A2.4,2.4,0,0,0,45.32,19c-.68.06-1-.22-1-.93a4.92,4.92,0,0,0,0-.94c-.07-.72.19-1.09,1-1,0,.31,0,.62,0,.93-.06.72.24,1.05,1,.95a.73.73,0,0,1,.83-.24.72.72,0,0,1,.24.14,3.19,3.19,0,0,0,.81,1Z"/><path class="cls-326" d="M41.53,16.13c-.75.1-1-.26-1-1,0-.31,0-.62,0-.94C42,14.35,41.42,15.4,41.53,16.13Z"/><path class="cls-329" d="M41.52,18c.1.76-.27,1.62.65,2.18.33.2.19.6-.25.63a11.62,11.62,0,0,1-1.77,0c-.61,0-.49-.53-.52-.92l0-.12a1.09,1.09,0,0,0,.48-.94c0-.33,0-.69.43-.84Z"/><path class="cls-330" d="M39.63,19.93l-1,0a.85.85,0,0,1-.37-.62c0-1.14-.31-2.3.24-3.4a.73.73,0,0,1,1.06.07c0,.07,0,.13,0,.19a3.9,3.9,0,0,1,0,3.79Z"/><path class="cls-331" d="M39.64,19.93c0-1.26,0-2.53,0-3.79,1.22.18.9,1.13.94,1.89,0,.31,0,.63,0,.93C40.66,19.69,40.38,20,39.64,19.93Z"/><path class="cls-332" d="M39.61,16H38.7a1.24,1.24,0,0,1,0-1.88c0-.26,0-.53,0-.79l.9,0Z"/><path class="cls-333" d="M38.67,14.06l0,1.88c0,1.32,0,2.64,0,4L36.79,20l-.15-.1a1.6,1.6,0,0,1-.26-1.2,43.61,43.61,0,0,1,.07-5.36c0-.31,0-.62.37-.78l.91,0C37.86,13.14,37.37,14.14,38.67,14.06Z"/><path class="cls-334" d="M36.82,12.55l0,.75a.59.59,0,0,1-.9,0c0-.63,0-1.26,0-1.89C36.86,11.24,36.77,12,36.82,12.55Z"/><path class="cls-335" d="M47.2,18.05l-.91,0c0-.31,0-.63,0-.94-.1-.77.24-1,1-.92a1,1,0,0,1,.34,1C47.61,17.49,47.59,17.85,47.2,18.05Z"/><path class="cls-336" d="M47.25,17.1v-.94l.94,0,0,1A.59.59,0,0,1,47.25,17.1Z"/><path class="cls-59" d="M49.15,23.71l-.06-3.77c0-.65.18-1.08.94-1l.08.05a.66.66,0,0,1,0,.94v1.88A1.3,1.3,0,0,1,50,23.73Z"/><path class="cls-337" d="M47.25,17.1h.9V18a.59.59,0,0,1-.91,0l0,0Z"/><path class="cls-338" d="M47.23,18h.91l0,.95C47.4,19.12,47.06,18.83,47.23,18Z"/><path class="cls-339" d="M23.48,20.9V20a.36.36,0,0,1,0-.09A9.24,9.24,0,0,0,24.4,19l.08,0a.59.59,0,0,1,.9,0l0,1.9-.1.14a1.4,1.4,0,0,1-1.82-.14Z"/><path class="cls-340" d="M29.18,22.8l0,.9a1.41,1.41,0,0,1-1.93.15.74.74,0,0,1,.08-1.05Z"/><path class="cls-341" d="M25.4,22.77l0-1a.65.65,0,0,1,0-.95l0,0c.67-.09,1,.16.94.87,0,.34,0,.68,0,1l-.1.13A.58.58,0,0,1,25.4,22.77Z"/><path class="cls-342" d="M27.31,22.8v.92a.67.67,0,1,1-.94-.93h0Z"/><path class="cls-343" d="M30.16,21.84l0-.19c0-.26,0-.51,0-.77l1,0a.68.68,0,0,1,0,1A.7.7,0,0,1,30.16,21.84Z"/><path class="cls-344" d="M25.38,19l-.9,0c0-.31,0-.61-.05-.92l1,0Z"/><path class="cls-345" d="M36.79,20c0,.41,0,.82.56.92s.46.54.59.89c-.24.49-.69.39-1.1.4A4.09,4.09,0,0,1,35,22.08a8.21,8.21,0,0,1-1.06-1.21l0-1a1,1,0,0,1,1-.35c.64,0,1.31-.23,1.85.33A.34.34,0,0,0,36.79,20Z"/><path class="cls-346" d="M33.94,20.87c.66-.05,1.06.16,1,.91l-.07.15a.94.94,0,0,1-.89.25,7.38,7.38,0,0,1-.94,0c-.58,0-1.17.19-1.72-.15a.55.55,0,0,1-.17-.27c0-.29,0-.58,0-.87Z"/><path class="cls-347" d="M34.91,19.91H34V18h.88l.16.08A1.32,1.32,0,0,1,34.91,19.91Z"/><path class="cls-348" d="M34.94,16.14l.87,0c.68.59.51,1.27.19,2a.72.72,0,0,1-1.06,0h-.09Z"/><path class="cls-349" d="M35.83,18c0-.63,0-1.27,0-1.9V14.23l.06-.93h.9c0,1.82,0,3.65,0,5.47C35.86,19,35.7,18.85,35.83,18Z"/><path class="cls-350" d="M24.4,19c.17.75-.12,1.05-.88.89C23.42,19.21,23.7,18.89,24.4,19Z"/><path class="cls-169" d="M53.88,20.83a7.39,7.39,0,0,0,.94,0c.68-.05,1,.21.94.92v.09a1.32,1.32,0,0,1-1.89-.06l0-.05a.56.56,0,0,1-.24-.75A.41.41,0,0,1,53.88,20.83Z"/><path class="cls-351" d="M51.92,20.86c0-.72.3-1,1-.94.3,0,.62,0,.93,0,0,.31,0,.63,0,.94l0,.06a1.42,1.42,0,0,1-1.72.23A.62.62,0,0,1,51.92,20.86Z"/><path class="cls-352" d="M50.1,19.94V19H51C51.1,19.68,50.82,20,50.1,19.94Z"/><path class="cls-353" d="M50,23.73l.05-1.91H51l.16.08a3.33,3.33,0,0,1,.13,2.66.73.73,0,0,1-.22.27.71.71,0,0,1-.95-.18Z"/><path class="cls-354" d="M51,21.82c0-.65.2-1.06.94-1l.1,0a.73.73,0,0,1,0,1,.69.69,0,0,1-1-.07Z"/><path class="cls-355" d="M26.35,23.72h1l1.85,0a1.31,1.31,0,0,1-.15,1H27.32c-.36.27-.63.63-1,.91l-1.88,0c-.11.1-.21.27-.35.29a1.28,1.28,0,0,0-1.25,1.25c0,.14-.19.24-.29.36l0,.9a.59.59,0,0,1-.92,0c0-.41,0-.82,0-1.22s0-.55-.31-.63c-.94-.23-.67-1-.57-1.53s.76-.35,1.18-.41a2.91,2.91,0,0,1,.66,0c.69.07,1-.23.93-.92s.24-1.07,1-.94a1.34,1.34,0,0,0,1,.48A1.11,1.11,0,0,1,26.35,23.72Z"/><path class="cls-356" d="M20.69,31.3c.31,0,.62,0,.92,0,.7-.07,1,.21,1,.93a1,1,0,0,0-.07.15,2,2,0,0,1-1.67.23c-.75-.2-.78.27-.73.8-.23,1-.63,1.28-1.73,1.14-.82-.11-1-.48-.92-1.68,0-.76.59-1,1.09-1.33.36-.18.69-.51,1.15-.23Z"/><path class="cls-357" d="M16.86,26.56c.76,0,1,.36,1,1.06s0,1.2,0,1.8a1,1,0,0,1,.11,1.41.93.93,0,0,1-1.09.07c-.46-.34-.36-.83-.35-1.3.3-1.37-.75-1.64-1.67-2a.92.92,0,0,1-.05-1,.69.69,0,0,1,.25-.26A1.54,1.54,0,0,1,16.86,26.56Z"/><path class="cls-357" d="M9.29,30.55V29.42c0-.5,0-1,0-1.49a1.4,1.4,0,0,1,.94-1.54,2.07,2.07,0,0,1,1.89,0,.78.78,0,0,1,.23.25,1,1,0,0,1,0,.95.57.57,0,0,1-.39.24c-1.13.08-1.37.8-1.31,1.76,0,.4.07.82-.29,1.12A.76.76,0,0,1,9.29,30.55Z"/><path class="cls-170" d="M12.14,24.67H15a1.26,1.26,0,0,1,0,1.9h0a2.45,2.45,0,0,1-2.85,0h0A1.26,1.26,0,0,1,12.14,24.67Z"/><path class="cls-358" d="M21.58,21.85c.84-.14,1,.31,1,1s-.32.89-1,.9-1-.22-1-.93S20.82,21.69,21.58,21.85Z"/><path class="cls-359" d="M17.82,21.87l1.89-.06c0,.25,0,.5,0,.75,0,.7,0,1.19-1,1.19s-1-.56-.93-1.22Z"/><path class="cls-215" d="M18.81,26.56c-.65.08-1-.09-1-.85s.12-1.07.93-1.06,1,.24,1,1S19.53,26.67,18.81,26.56Z"/><path class="cls-360" d="M15,26.57c0-.63,0-1.27,0-1.9,2.09,0,1.91-.24,1.9,1.89Z"/><path class="cls-360" d="M12.14,24.67l0,1.9c-.63-.07-1.29.16-1.9-.18C10.27,24.56,9.94,24.66,12.14,24.67Z"/><path class="cls-206" d="M17.81,30.74V29.42c.31,0,.62,0,.92,0,.71-.07,1.07.19,1,.94-.45.32-.48,1-1.09,1.19S17.53,31.56,17.81,30.74Z"/><path class="cls-361" d="M21.61,28.47l.92,0,0,1.93H20.69c0-.44-.11-.86.53-1S21.54,28.8,21.61,28.47Z"/><path class="cls-362" d="M26.35,23.72c-.34,0-.67,0-1,0-.69.05-1-.25-.86-.92l.92,0,1,0C26.36,23.1,26.36,23.41,26.35,23.72Z"/><path class="cls-363" d="M25.38,20.86v.95c-.31,0-.63,0-.94,0-.76.11-1-.24-.94-.95Z"/><path class="cls-357" d="M18.77,31.32c-.09-.71.21-1,.93-1,0,.32,0,.64,0,1l-.95.39A.26.26,0,0,1,18.77,31.32Z"/><path class="cls-364" d="M43.43,49.35l-2.86,0a1,1,0,0,1-.38-.72,38,38,0,0,1,0-4.4,1.21,1.21,0,0,1,.26-.59.68.68,0,0,1,.9,0l2,.06a1,1,0,0,1,.43.89c0,1.29,0,2.58,0,3.87a1.19,1.19,0,0,1-.42.91Z"/><path class="cls-365" d="M44.35,26.59c0,4.73,0,9.45,0,14.17,0,.73-.22,1.08-1,1l-.15-.1a1.38,1.38,0,0,1-.28-1c0-4.37-.09-8.75,0-13.12a1.48,1.48,0,0,1,.28-1.08A.68.68,0,0,1,44.35,26.59Z"/><path class="cls-366" d="M44.35,26.59l-.93,0c-.85.69-1.83.31-2.76.34-.36,0-.71,0-1.06,0a15.29,15.29,0,0,1-2.79,0,11,11,0,0,1-1.9,0A11,11,0,0,1,33,27a4.64,4.64,0,0,1-1.89-.11.54.54,0,0,1-.4-.3v-.9a.5.5,0,0,1,.37-.29,2.58,2.58,0,0,1,1-.1c.32,0,.65,0,1,0s.66,0,1,0a10,10,0,0,1,1.89,0,27.75,27.75,0,0,1,3.76,0c1.17-.08,2.33-.06,3.5,0a1.38,1.38,0,0,1,1.2.41l.92,0c0,.31,0,.63,0,.94Z"/><path class="cls-367" d="M41.36,43.61l-.77,0a.88.88,0,0,1-1,.27.79.79,0,0,1-.48-.2c-.39-.82,0-1.47.43-2.13a1.58,1.58,0,0,1,1-.23c.94,0,1.94-.38,2.8.36v.05c.06.6-.13.93-.81.94A1.16,1.16,0,0,0,41.36,43.61Z"/><path class="cls-368" d="M43.43,49.34c0-1.89,0-3.78,0-5.67.76-.13,1,.21,1,.94q-.06,1.88,0,3.75C44.41,49.07,44.2,49.45,43.43,49.34Z"/><path class="cls-369" d="M51,37c0,1,0,1.92,0,2.88,0,.68-.21,1-.91.92l-.06-8.55,0,0c.29-.34.64-.62.92-1h0A1,1,0,0,1,52,31a1.1,1.1,0,0,1,1,.27.77.77,0,0,1-.11,1l0,0c-.87,1-1.77,1.92-1.5,3.42A1.27,1.27,0,0,1,51,37Z"/><path class="cls-370" d="M51,26.59v-.94a.69.69,0,0,1,0-1h0a.79.79,0,0,1,1.07-.09,1.83,1.83,0,0,1,0,2A.75.75,0,0,1,51,26.57Z"/><path class="cls-371" d="M51,24.66l0,1c-.76.07-1-.27-.9-1Z"/><path class="cls-372" d="M45.36,24.69c-.15-.78.18-1.07.94-.93C46.37,24.45,46.05,24.77,45.36,24.69Z"/><path class="cls-373" d="M47.2,23.76l1,0c0,.31,0,.63,0,1C47.46,24.76,47.13,24.46,47.2,23.76Z"/><path class="cls-374" d="M51,26.57h1a.59.59,0,0,1,.91,0v0a1.07,1.07,0,0,1,.44.86,1.4,1.4,0,0,0,.5,1l0,.93a1.24,1.24,0,0,1-1.87,0l0-1c.13-.74-.18-1-.92-.95Z"/><path class="cls-375" d="M52,29.43l1.87,0h0a.78.78,0,0,1,.11,1,1.68,1.68,0,0,1-1.84.21.64.64,0,0,1-.22-.27Z"/><path class="cls-376" d="M52,31.31H51l0-.92.9-.05.08.06A.61.61,0,0,1,52,31.31Z"/><path class="cls-377" d="M51,31.3c.11.71-.17,1.06-.92,1l0-.94Z"/><path class="cls-378" d="M30.17,41.73q0-6.65,0-13.28a.68.68,0,0,1,1.18.18,2.65,2.65,0,0,1,.18,1.21q0,5.25,0,10.51a2.74,2.74,0,0,1-.17,1.2.92.92,0,0,1-.2.31A.71.71,0,0,1,30.17,41.73Z"/><path class="cls-379" d="M31.07,49.35l-.9,0V44.59a.71.71,0,0,1,1-.07,1.33,1.33,0,0,1,.29,1,21,21,0,0,1,.06,2.63,1.44,1.44,0,0,1-.38,1.12Z"/><path class="cls-380" d="M30.17,41.73l.92.07c.66.59.47,1.24.12,1.9a.74.74,0,0,1-1.05,0Z"/><path class="cls-381" d="M30.17,24.66V22.77a.73.73,0,0,1,.91-.19.57.57,0,0,1,.23.23,2.15,2.15,0,0,1,0,1.79.62.62,0,0,1-.23.25A.73.73,0,0,1,30.17,24.66Z"/><path class="cls-382" d="M31.09,28.45h-.91c0-.43,0-.86,0-1.29s.17-.62.58-.62l.39.06A1.21,1.21,0,0,1,31.09,28.45Z"/><path class="cls-383" d="M30.16,43.67l.94-.07.13.07a.65.65,0,0,1,.06.81.46.46,0,0,1-.23.16l-.89,0C30.17,44.28,30.16,44,30.16,43.67Z"/><path class="cls-384" d="M31.1,22.77h-.93v-.93l.94-.06v.09A.56.56,0,0,1,31.1,22.77Z"/><path class="cls-385" d="M30.17,24.66l.9,0c.36.28.31.59,0,.91l-.39,0C30.05,25.59,30.15,25.1,30.17,24.66Z"/><path class="cls-386" d="M35.87,56h.89l.06,6.62a.75.75,0,0,1,0,1,.71.71,0,0,1-1-.08h0Z"/><path class="cls-387" d="M36.76,63.57l.06-1,.89,0v2.85l-.92,0,0-.06a1,1,0,0,1-.32-.94A1,1,0,0,1,36.76,63.57Z"/><path class="cls-388" d="M39.27,43.61l.37,0a1.13,1.13,0,0,1,.41.91c.05,1.29.05,2.57,0,3.86a1.06,1.06,0,0,1-.43.9l0,0-1.9,0a.93.93,0,0,1-.4-.71,15,15,0,0,1,.12-3.85c.2-.61.94-.69,1.21-1.23A.57.57,0,0,1,39.27,43.61Z"/><path class="cls-389" d="M37.72,44.62l0,4.69h-1.9c-.11-.11-.28-.2-.3-.36a9.27,9.27,0,0,1,.18-4.47A1.48,1.48,0,0,1,37.72,44.62Z"/><path class="cls-390" d="M35.86,44.63c0,1.56,0,3.12,0,4.68l-.37.06-.59-.06c-.09-.09-.23-.17-.25-.28a8.05,8.05,0,0,1,.18-4.51A.7.7,0,0,1,35.86,44.63Z"/><path class="cls-391" d="M39.62,49.32c0-1.89,0-3.78,0-5.67h1c0,1.88,0,3.77,0,5.66Z"/><path class="cls-392" d="M33,49.39l-.89-.07a1.18,1.18,0,0,1-.45-1.07,22,22,0,0,1,.05-2.69A1.4,1.4,0,0,1,32,44.48a.9.9,0,0,1,1.12,0,1.16,1.16,0,0,1,.31.87c.05,1,0,2,0,3a1.09,1.09,0,0,1-.4.92A.41.41,0,0,1,33,49.39Z"/><path class="cls-393" d="M32,45.56c0,1.25,0,2.5,0,3.76h-.92l0-3.78A.58.58,0,0,1,32,45.56Z"/><path class="cls-394" d="M35.81,53.17l-.89-.05c0-.61,0-1.23,0-1.85h.94a1.23,1.23,0,0,1,0,1.85Z"/><path class="cls-395" d="M35.86,53.12c0-.62,0-1.23,0-1.85h.94l0,1.85Z"/><path class="cls-396" d="M35,44.61c0,1.57-.06,3.13-.08,4.7l-.91.08,0-.09a.82.82,0,0,1-.35-.54,13.31,13.31,0,0,1,.12-4.13.84.84,0,0,1,1-.27A.63.63,0,0,1,35,44.61Z"/><path class="cls-397" d="M34,44.61c0,1.57,0,3.13,0,4.69H33c0-1.56,0-3.12,0-4.68a.78.78,0,0,1,0-1.06.81.81,0,0,1,1.09,0A.78.78,0,0,1,34,44.61Z"/><path class="cls-398" d="M51,46.47c.11.7-.16,1.05-.9,1v-.94Z"/><path class="cls-399" d="M61.46,44.59V42.7a6.26,6.26,0,0,0,.75,0c.74-.06,1.18.09,1.17,1s-.52.94-1.17.9C62,44.58,61.71,44.59,61.46,44.59Z"/><path class="cls-400" d="M47.22,66.4l-.94,0c-.1-.77.24-1,1-.93C47.25,65.8,47.23,66.1,47.22,66.4Z"/><path class="cls-401" d="M63.34,23.7c-.34,0-.68,0-1,0-.7.07-1-.25-.89-.91h1.92A.57.57,0,0,1,63.34,23.7Z"/><path class="cls-268" d="M63.34,23.7l0-.89h1C64.39,23.55,64,23.81,63.34,23.7Z"/><path class="cls-215" d="M63.15,29.4l-1.7,0c0-1,0-1.9,0-2.85l.1-.15a1.34,1.34,0,0,1,1.79.14v0A9.86,9.86,0,0,1,63.15,29.4Z"/><path class="cls-402" d="M64.3,26.57h1.9c0,.25,0,.5,0,.75.06.74-.08,1.19-1,1.18s-.93-.53-.9-1.18C64.31,27.07,64.3,26.82,64.3,26.57Z"/><path class="cls-308" d="M52.92,26.56H52c0-.63,0-1.25-.07-1.87a2.64,2.64,0,0,1,0-2.89c0-.3,0-.61.07-.91h1.84c0,.29,0,.59,0,.88-.78,0-1,.36-1,1.11C53,24.1,52.92,25.33,52.92,26.56Z"/><path class="cls-403" d="M58.6,26.57c0,.95,0,1.9,0,2.85a12.33,12.33,0,0,0-1.49,0c-.77.1-1-.33-.71-.87a4.76,4.76,0,0,0,.3-2,1.35,1.35,0,0,1,1.8-.14Z"/><path class="cls-404" d="M61.46,26.57H58.61a1.26,1.26,0,0,1,0-1.9h2.82a1.25,1.25,0,0,1,0,1.9Z"/><path class="cls-405" d="M61.45,26.57c0-.63,0-1.26,0-1.9,2.21,0,1.88-.15,1.91,1.89Z"/><path class="cls-406" d="M58.62,24.67v1.9h-1.9C56.73,24.5,56.44,24.67,58.62,24.67Z"/><path class="cls-403" d="M53.86,26.58c0-.28,0-.57,0-.85s-.16-.9.41-1,1-.24,1.33.16.18.9.08,1.36c-.07.3-.36.31-.61.32H53.86Z"/><path class="cls-359" d="M53.87,21.82l1.89.06c0,.22,0,.44,0,.65,0,.67.05,1.22-.93,1.22s-1-.47-1-1.18C53.88,22.32,53.87,22.07,53.87,21.82Z"/><path class="cls-312" d="M56.7,30.38v1.88l-1,0a.73.73,0,0,1-1,.12.83.83,0,0,1-.24-.9c.1-.57.82-.57,1-1.06a.51.51,0,0,1,.23-.12Z"/><path class="cls-316" d="M53.88,30.35v-1c.31,0,.63,0,.94,0,.68-.07,1,.19,1,.91l0,.09A1.36,1.36,0,0,1,54,30.5Z"/><path class="cls-316" d="M53.85,28.48c-.72.06-1-.28-.94-1,0-.3,0-.61,0-.91h1C53.85,27.21,53.85,27.84,53.85,28.48Z"/><path class="cls-407" d="M22.57,27.53c0-2,0-2,1.89-1.9A2.59,2.59,0,0,1,22.57,27.53Z"/><path class="cls-408" d="M26.34,25.61c-.06-.72.24-1.05,1-.91C27.39,25.43,27.05,25.72,26.34,25.61Z"/><path class="cls-409" d="M24.47,33.21v-.76c.31,0,.79-.08.79.38S24.78,33.17,24.47,33.21Z"/><path class="cls-274" d="M22.53,42c-.31,0-.62-.1-.93-.11-.86,0-1-.55-1-1.27s.55-.74,1.05-.71c.68,0,.87-.29.86-.91,0-2.29.14-1.9-1.9-1.94-.48-.29-.64-.9-1.16-1.15a1,1,0,0,1-.05-.77,1.62,1.62,0,0,1,1.25-1.23,4.86,4.86,0,0,1,1.86-.06.91.91,0,0,1,.92.37c0,2.52,0,5,0,7.55C23.14,41.75,22.79,41.67,22.53,42Z"/><path class="cls-410" d="M23.48,34.17h-.92a1.29,1.29,0,0,1,0-1.87l.08-.06c.66,0,1,.23.91.92C23.47,33.49,23.49,33.83,23.48,34.17Z"/><path class="cls-318" d="M23.48,49.35c-.71.07-1-.26-.92-.94s-.24-1-1-1-1.1-.19-1.11-.92a1.52,1.52,0,0,1,2.1,0l.89,0C23.47,47.46,23.47,48.4,23.48,49.35Z"/><path class="cls-411" d="M22.57,46.48l-2.1,0-.73,0a12.21,12.21,0,0,1-1-.93h0c-.08-.73.25-1,1-1a7.18,7.18,0,0,0,.93,0c-.09.66.15,1,.86.95.33,0,.67,0,1,0Z"/><path class="cls-412" d="M21.61,54.07c0-.3,0-.61,0-.91l.94,0c0,.3,0,.61,0,.92Z"/><path class="cls-413" d="M22.56,53.13c-.11-.74.23-1,.94-1l0,.93Z"/><path class="cls-135" d="M15.16,47.44h1.52a.28.28,0,0,0,0,.09c.36,2,.27,2.13-1.72,1.8h0C14.36,48.49,14.42,47.88,15.16,47.44Z"/><path class="cls-256" d="M19.7,48.41c.13.79-.31.93-1,.94s-.88-.33-.9-1,.33-.94,1-.94S19.8,47.73,19.7,48.41Z"/><path class="cls-414" d="M18.77,45.54c.72-.11,1,.21,1,.93C19,46.59,18.66,46.3,18.77,45.54Z"/><path class="cls-415" d="M15.16,47.44c-.35.6-.12,1.26-.19,1.9a7.2,7.2,0,0,1-2.85,0,1.27,1.27,0,0,1,0-1.9c0-3.39-.23-2.78,2.85-2.85h0A9.41,9.41,0,0,0,15.16,47.44Z"/><path class="cls-135" d="M12.12,47.44v1.9c-.56.21-1.22.42-1.67,0s-.16-1.24,0-1.87Z"/><path class="cls-416" d="M36.76,64.52v.94h-.92c0-.3,0-.61-.05-.91l.08,0A.58.58,0,0,1,36.76,64.52Z"/><path class="cls-417" d="M36.76,64.52l-.89,0,0-.94h.91Z"/><path class="cls-418" d="M23.51,66.41h-.94c-.1-.74.2-1.07,1-.93a.61.61,0,0,1,0,.92Z"/><path class="cls-419" d="M23.51,66.41c0-.31,0-.61,0-.92h.94C24.55,66.22,24.2,66.5,23.51,66.41Z"/><path class="cls-208" d="M51,37c0-.82,0-1.63,0-2.44,0-.58-.18-1.2.73-1.48.35-.1.44-1,1.19-.79-.13.73.36,1.68-.81,2-.23.07-.16.45-.16.7,0,.66,0,1.32,0,2Z"/><path class="cls-168" d="M55.76,37H53.87a6.38,6.38,0,0,1,.38-2.84.67.67,0,0,1,1.13,0A6.38,6.38,0,0,1,55.76,37Z"/><path class="cls-317" d="M55.38,34.17H54.25c-.72-.51-.25-1.25-.37-1.88.28-.36.59-.31.92-.07l1,.06C55.64,32.91,56.1,33.66,55.38,34.17Z"/><path class="cls-325" d="M54.8,32.22l-.92.07-1,0,0-.93c.2-.41.57-.4.94-.38s.73,0,.94.36Z"/><path class="cls-206" d="M20.66,34.16a4.28,4.28,0,0,0-.95,1,1.2,1.2,0,0,1-.88.44.51.51,0,0,0-.51.46.41.41,0,0,0,.26.45.55.55,0,0,0,.67-.18c.13-.17.23-.38.47-.42.86-.07,1,.47.94,1.15-.05.14-.05.37-.15.43-1,.59-.79,1.53-.8,2.42a1.29,1.29,0,0,1-1.89,0c0-.75.19-1.56-.79-2-.26-.11-.15-.57-.16-.88a1.22,1.22,0,0,1-.41-.7c-.22-1-.23-1-1.34-.89l-.37,0a5.93,5.93,0,0,1-2.65-.09.86.86,0,0,1-.54-1.19.84.84,0,0,1,.55-.44,19.57,19.57,0,0,1,2.76.06c1.12.23,1.55-.6,2-1.35a.74.74,0,0,1,.91.21c.15.51-.37,1.27.54,1.49s1.33,0,1.37-1.12c.31-.38.65-.57,1.1-.2A.91.91,0,0,1,20.66,34.16Z"/><path class="cls-308" d="M15,37c0,.35,0,.69,0,1,0,.73-.06,1.47-.83,1.73a1.47,1.47,0,0,1-2-.87c-.6-.54-.45-1.18-.24-1.83a.74.74,0,0,1,.24-.26,3.39,3.39,0,0,1,2.74,0Z"/><path class="cls-420" d="M15,35.11c1.41-.65,1.91-.33,1.91,1.22V37H15A1.27,1.27,0,0,1,15,35.11Z"/><path class="cls-421" d="M12.13,37v1.9a7.78,7.78,0,0,1-.81.17c-.71.1-1.15-.14-1.1-.94,0-.38,0-.75,0-1.13A1.27,1.27,0,0,1,12.13,37Z"/><path class="cls-206" d="M12.11,40.84c.13.82-.36.91-1,.92s-.86-.37-.88-1c0-.8.38-.92,1-.93S12.2,40.18,12.11,40.84Z"/><path class="cls-206" d="M15,40.84c-.09-.66.11-1,.85-1s1.08.13,1.05.93c0,.63-.13,1-.89,1S14.86,41.65,15,40.84Z"/><path class="cls-309" d="M17.82,39.86h1.89c0,.25,0,.51,0,.75.07.74-.09,1.17-1,1.16s-.94-.51-.9-1.16C17.83,40.36,17.82,40.11,17.82,39.86Z"/><path class="cls-399" d="M12.11,43.63c.1.68-.16,1-.88,1s-1.05-.17-1-1,.18-1,.91-1S12.24,42.84,12.11,43.63Z"/><path class="cls-323" d="M15,44.59a7.85,7.85,0,0,1,0-.84c0-.38-.15-.9.41-1s1-.24,1.33.17a1.52,1.52,0,0,1,.08,1.35c-.09.34-.43.31-.71.32Z"/><path class="cls-420" d="M15,34.16a8.74,8.74,0,0,1-2.84-.2c-.13,0-.27-.11-.29-.22-.13-1.06-.79-1.13-1.63-.91H9.29a.89.89,0,0,0-.21-.59l.21-1.7h.93a10,10,0,0,0,1.93.5.87.87,0,0,1,.33.17c1,.86,1.47.84,2.44-.12a9.18,9.18,0,0,1,2-.36h.94c0,.66.53.56,1,.58v.38c.07.71-.86.41-1,.95h-.94c-.83,0-1.54.11-1.6,1.17C15.27,34,15.08,34,15,34.16Z"/><path class="cls-170" d="M12.13,37h-1.9a7.16,7.16,0,0,1,.38-2.83.67.67,0,0,1,1.13,0,1.21,1.21,0,0,0,.4.94,1.28,1.28,0,0,1,0,1.89Z"/><path class="cls-257" d="M11.74,34.17H10.61c-.62-.3-.29-.89-.39-1.34.17-.92.88-.51,1.37-.54s.52.44.53.82,0,.57,0,.85Z"/><path class="cls-422" d="M40.56,21.85l2.87,0v0a2.84,2.84,0,0,1,.13,3,3.68,3.68,0,0,1-3,.08,2.65,2.65,0,0,1-.32-2A1.1,1.1,0,0,1,40.56,21.85Z"/><path class="cls-423" d="M40.56,21.85v.91c-.7.5-.33,1.44-.81,2a.69.69,0,0,1-.29.16,4.15,4.15,0,0,1-2.76-.11A2,2,0,0,1,36.5,23a.9.9,0,0,1,.13-.28,1.65,1.65,0,0,1,1.1-.37,1.35,1.35,0,0,0,1-.49Z"/><path class="cls-424" d="M38.68,21.84c.09.67-.17,1-.88.94-.33,0-.68,0-1,0a.56.56,0,0,1,0-.89l1.17-.07Z"/><path class="cls-425" d="M40.58,24.66h2.84a.62.62,0,0,1,.94,0v.93H39.63a.6.6,0,0,1,0-.92h0A.63.63,0,0,1,40.58,24.66Z"/><path class="cls-368" d="M44.36,24.67h-.94c0-1,0-1.9,0-2.84.75-.11,1,.24,1,1S44.37,24.05,44.36,24.67Z"/><path class="cls-426" d="M35.83,18c0,.63.57.56.92.75l0,1.12-1.87,0,0-1.87Z"/><path class="cls-427" d="M36.77,21.87v.91a1,1,0,0,1-1,.35,1.28,1.28,0,0,1-1-.27.71.71,0,0,1,.11-1v-.07Z"/><path class="cls-428" d="M34.9,21.85l0,.95a1.54,1.54,0,0,1,0,2,.87.87,0,0,1-1.11,0A2.6,2.6,0,0,1,34,21.85Z"/><path class="cls-429" d="M34,21.85v2.81l-.09.14a.74.74,0,0,1-.92,0,.63.63,0,0,1-.2-.26,3.58,3.58,0,0,1-.1-1.81.88.88,0,0,1,.36-.9Z"/><path class="cls-430" d="M33,21.85l0,.94a.93.93,0,0,1-.93.33.93.93,0,0,1-.93-.34h0c0-.3,0-.6,0-.9Z"/><path class="cls-431" d="M52,21.81c0,1,0,1.93,0,2.89l-.93,0c0-.94,0-1.89.05-2.83Z"/><path class="cls-314" d="M20.66,34.16V32.83a.4.4,0,0,1,0-.56l1.85,0c0,.62,0,1.24,0,1.87Z"/><path class="cls-274" d="M20.67,32.27v.56l-.94.19C19.64,32.28,20.12,32.22,20.67,32.27Z"/><path class="cls-313" d="M12.12,26.57H15v.95a1.56,1.56,0,0,1,.22,1.83.71.71,0,0,1-.23.26,4.11,4.11,0,0,1-2.79,0,.63.63,0,0,1-.26-.25,1.55,1.55,0,0,1,.2-1.87Z"/><path class="cls-267" d="M16.87,30.74c0,.52-.37.58-.78.57H15a1.27,1.27,0,0,1,0-1.89h0a1.28,1.28,0,0,1,1.9,0Z"/><path class="cls-432" d="M16.87,29.41H15c0-.63,0-1.26,0-1.9C17.15,27.51,16.84,27.37,16.87,29.41Z"/><path class="cls-267" d="M12.12,31.3c-.37,0-.75,0-1.12,0-.54,0-.81-.2-.78-.76,0-.38,0-.76,0-1.14a1.28,1.28,0,0,1,1.9,0h0A1.28,1.28,0,0,1,12.12,31.3Z"/><path class="cls-308" d="M12.13,29.42h-1.9c0-2-.28-1.9,1.89-1.89C12.12,28.15,12.13,28.79,12.13,29.42Z"/><path class="cls-433" d="M43.43,41.73H40.58a1.24,1.24,0,0,1-.42-1.11c0-4.07,0-8.15,0-12.23a1.32,1.32,0,0,1,.29-1,2.72,2.72,0,0,1,3,.11Q43.43,34.63,43.43,41.73Z"/><path class="cls-434" d="M43.41,27.53l-2.81,0a.56.56,0,0,1,0-.91h2.85C43.42,26.92,43.42,27.22,43.41,27.53Z"/><path class="cls-435" d="M36.78,26.6h2.84a1.08,1.08,0,0,1,.44,1c0,3.56,0,7.12,0,10.69a1.23,1.23,0,0,1-.18.72c-.49.43-.88.2-1.16-.24a2.59,2.59,0,0,1-.45-1.41c0-.63,0-1.26-.07-1.88a1.65,1.65,0,0,0-.72-1.33,19.65,19.65,0,0,1,0-5.47c.09-.33.49-.67-.27-.82S36.4,27.31,36.78,26.6Z"/><path class="cls-436" d="M39.62,39.1V26.61h1l0,.91q0,7.11,0,14.22l-.93.08a.6.6,0,0,1-.26-.24A2.51,2.51,0,0,1,39.62,39.1Z"/><path class="cls-437" d="M36.78,26.6c-.07.68.21,1,.91.93.36,0,.92-.16.94.44s-.52.45-.89.49a1.52,1.52,0,0,1-1.78.26c-.46-.36-.7-.94-1.25-1.21a.72.72,0,0,1,.17-.91Z"/><path class="cls-438" d="M39.65,24.68l0,.92H35.82a.68.68,0,0,1,0-1,.72.72,0,0,1,1,.06Z"/><path class="cls-439" d="M31.09,28.45l0-1.85H33a.71.71,0,0,1,.2.88A8.37,8.37,0,0,0,32,28.66a.72.72,0,0,1-.89-.2Z"/><path class="cls-440" d="M33,27.47c0-.29,0-.59,0-.88h1.89c0,.3,0,.6,0,.9l-.08.14a.93.93,0,0,1-.86.23,1.2,1.2,0,0,1-.87-.15A.44.44,0,0,1,33,27.47Z"/><path class="cls-441" d="M35.85,24.7l0,.89H33.94a.6.6,0,0,1,0-.91v0h.92a.66.66,0,0,1,.8-.18A.41.41,0,0,1,35.85,24.7Z"/><path class="cls-442" d="M34,24.69c0,.3,0,.6,0,.91H33c-.28-.31-.33-.61,0-.91Z"/><path class="cls-443" d="M33,24.68c0,.3,0,.61,0,.91h-.94a.69.69,0,0,1-.21-.88.59.59,0,0,1,.23-.24.73.73,0,0,1,.91.19Z"/><path class="cls-444" d="M32,24.7l0,.89h-1c0-.31,0-.61,0-.91l.07,0C31.45,24.38,31.75,24.35,32,24.7Z"/><path class="cls-445" d="M33.94,43.67H33a1.33,1.33,0,0,1-1.89,0V43.6c0-.6,0-1.2,0-1.8l0-.08a.75.75,0,0,1,.85-.2c.46.81,1.22.78,2,.73a.79.79,0,0,0,.75-.58.64.64,0,0,1,.25-.18,1.92,1.92,0,0,1,1-.11,8.9,8.9,0,0,1,1.86,0c.64,0,1.32-.22,1.85.34a.44.44,0,0,0,0,.1,5.85,5.85,0,0,1-.38,1.8l-.59.07a1.66,1.66,0,0,1-1.39.4A18.24,18.24,0,0,1,35,44,1.12,1.12,0,0,1,33.94,43.67Z"/><path class="cls-446" d="M53.86,31.31l-.92,0-1,0c0-.3,0-.61.07-.91l1.86,0h0A.65.65,0,0,1,53.86,31.31Z"/><path class="cls-393" d="M32,41.79l-.92-.07q0-6.63,0-13.26H32l.16.1a1.46,1.46,0,0,1,.29,1.07q0,5.49,0,11a1.75,1.75,0,0,1-.18.92A.63.63,0,0,1,32,41.79Z"/><path class="cls-447" d="M32,45.56l-.9,0-.06-.9.07-.08a.56.56,0,0,1,.9.06Z"/><path class="cls-448" d="M32,24.7l-.88-.05c0-.62,0-1.25,0-1.87l.92,0a1.22,1.22,0,0,1,.06,1.84Z"/><path class="cls-449" d="M32,44.62l-.9-.06,0-.88H33l0,.95Z"/><path class="cls-450" d="M34.88,43.67h3.8c.13.78-.3,1-1,.94H35.86l-.9,0-.08,0A.61.61,0,0,1,34.88,43.67Z"/><path class="cls-451" d="M34.88,43.67v.92l-.91,0,0-.94Z"/><path class="cls-452" d="M53.86,31.31l0-1,1.87.06c.12.74-.27,1-.93.91Z"/><path class="cls-319" d="M19.72,35.86c0,.55.11,1.18-.79,1.15-.59,0-1.12,0-1.13-.83S18,35,18.87,35.1a7.82,7.82,0,0,0,.84,0C19.71,35.36,19.72,35.61,19.72,35.86Z"/><path class="cls-314" d="M12.12,37c0-.63,0-1.26,0-1.89H15c0,.63,0,1.26,0,1.89Z"/><path class="cls-316" d="M15,34.16a5.89,5.89,0,0,1,0-.84c0-.35-.15-.86.31-1s1.16-.38,1.58.28C16.85,34.37,17,34.14,15,34.16Z"/><path class="cls-453" d="M12.12,31.3V29.41H15V31.3c0,.5-.16.93-.78.95C13.34,32.29,12.49,32.32,12.12,31.3Z"/><path class="cls-454" d="M40.58,24.66h-.94c0-.3,0-.62,0-.92-.07-.71.2-1.07.94-1C40.57,23.39,40.57,24,40.58,24.66Z"/><path class="cls-455" d="M36.79,24.65l-.94.05,0-.07a1.19,1.19,0,0,1,0-1.83l.93,0Z"/><path class="cls-456" d="M35.86,22.8c0,.61,0,1.22,0,1.83l-.94,0,.06-1.85Z"/><path class="cls-457" d="M32.08,24.64,32,22.8H33l0,1.87Z"/><path class="cls-458" d="M37.73,41.73h-1.9a1.33,1.33,0,0,1-.42-1.2c0-3.63,0-7.26,0-10.89a1.45,1.45,0,0,1,.29-1.08l.16-.09h1.88v5.71a1.36,1.36,0,0,1,.39,1c.11,1.85,0,3.7,0,5.54A1.12,1.12,0,0,1,37.73,41.73Z"/><path class="cls-459" d="M37.73,41.73q0-3.78,0-7.57c.48,0,.63.31.75.7a9.63,9.63,0,0,1,.21,2.33,2,2,0,0,0,.92,1.91c0,.87,0,1.74,0,2.61Z"/><path class="cls-460" d="M34.93,27.5c.73-.08,1,.27.93,1h0a.73.73,0,0,1-1,.08.74.74,0,0,1,0-1Z"/><path class="cls-461" d="M32,28.46c-.08-.7.24-1,.94-1l0,.07a.7.7,0,0,1,.07,1,.72.72,0,0,1-1-.08Z"/><path class="cls-462" d="M33,28.48l0-.94h1a1.35,1.35,0,0,1,.43,1.2q0,6,0,11.94A1.73,1.73,0,0,1,34,41.83a.86.86,0,0,1-1.11,0,1.81,1.81,0,0,1-.37-1.33c0-3.58,0-7.17,0-10.75A1.49,1.49,0,0,1,33,28.48Z"/><path class="cls-463" d="M33.94,41.72q0-7.09,0-14.19h.92c0,.32,0,.64.05,1a1.17,1.17,0,0,1,.39.93q.07,5.7,0,11.42a1.06,1.06,0,0,1-.43.9v0C34.56,42,34.24,42.09,33.94,41.72Z"/><path class="cls-464" d="M34.88,41.73q0-6.61,0-13.25h.92q0,6.63,0,13.26Z"/><path class="cls-465" d="M33.94,41.72l1,.05c.09.67-.19,1-.89.94a5.79,5.79,0,0,0-1,0c-.67,0-1-.22-.94-.92l0-.08a.64.64,0,0,1,.93,0Z"/><path class="cls-466" d="M33,41.72h-.93q0-6.62,0-13.24H33Z"/></g></g></svg>