<svg xmlns="http://www.w3.org/2000/svg" viewBox="0 0 74 74"><defs><style>.cls-1{fill:#1e2223;}.cls-2{fill:#33292b;}.cls-3{fill:#36252a;}.cls-4{fill:#495357;}.cls-5{fill:#5d6469;}.cls-6{fill:#757a7c;}.cls-7{fill:#6f7276;}.cls-8{fill:#9fa1a4;}.cls-9{fill:#444a4e;}.cls-10{fill:#85898b;}.cls-11{fill:#494f52;}.cls-12{fill:#434445;}.cls-13{fill:#3d3f40;}.cls-14{fill:#51595d;}.cls-15{fill:#35383c;}.cls-16{fill:#2a3135;}.cls-17{fill:#5c6266;}.cls-18{fill:#565b5e;}.cls-19{fill:#242e33;}.cls-20{fill:#43423c;}.cls-21{fill:#2c3539;}.cls-22{fill:#3f474b;}.cls-23{fill:#5f6669;}.cls-24{fill:#66696b;}.cls-25{fill:#535a5d;}.cls-26{fill:#616668;}.cls-27{fill:#3b4448;}.cls-28{fill:#454c50;}.cls-29{fill:#2d373c;}.cls-30{fill:#626669;}.cls-31{fill:#707476;}.cls-32{fill:#656a6c;}.cls-33{fill:#555b5d;}.cls-34{fill:#383f44;}.cls-35{fill:#898b8c;}.cls-36{fill:#2b3338;}.cls-37{fill:#263136;}.cls-38{fill:#514c1d;}.cls-39{fill:#353c40;}.cls-40{fill:#6e7477;}.cls-41{fill:#242f35;}.cls-42{fill:#273136;}.cls-43{fill:#727476;}.cls-44{fill:#283238;}.cls-45{fill:#6d7072;}.cls-46{fill:#4b5053;}.cls-47{fill:#3e454a;}.cls-48{fill:#575d61;}.cls-49{fill:#364044;}.cls-50{fill:#2e353a;}.cls-51{fill:#313a3f;}.cls-52{fill:#474e51;}.cls-53{fill:#4a4f52;}.cls-54{fill:#252f34;}.cls-55{fill:#818688;}.cls-56{fill:#383f43;}.cls-57{fill:#52595c;}.cls-58{fill:#4c5458;}.cls-59{fill:#2d363b;}.cls-60{fill:#31393e;}.cls-61{fill:#495053;}.cls-62{fill:#293337;}.cls-63{fill:#6e7375;}.cls-64{fill:#283135;}.cls-65{fill:#474c4f;}.cls-66{fill:#3f4548;}.cls-67{fill:#2e3a40;}.cls-68{fill:#767a7d;}.cls-69{fill:#41484b;}.cls-70{fill:#4b5559;}.cls-71{fill:#454b4e;}.cls-72{fill:#454d52;}.cls-73{fill:#42494c;}.cls-74{fill:#354045;}.cls-75{fill:#3d4549;}.cls-76{fill:#333b41;}.cls-77{fill:#373d42;}.cls-78{fill:#434a50;}.cls-79{fill:#62676a;}.cls-80{fill:#6f7377;}.cls-81{fill:#575c5f;}.cls-82{fill:#54595b;}.cls-83{fill:#50565a;}.cls-84{fill:#353d42;}.cls-85{fill:#6a7074;}.cls-86{fill:#363d42;}.cls-87{fill:#76797b;}.cls-88{fill:#1a262d;}.cls-89{fill:#2e363c;}.cls-90{fill:#374045;}.cls-91{fill:#323b3f;}.cls-92{fill:#353e44;}.cls-93{fill:#51585b;}.cls-94{fill:#313b41;}.cls-95{fill:#3c4549;}.cls-96{fill:#32393e;}.cls-97{fill:#30393d;}.cls-98{fill:#818385;}.cls-99{fill:#3d434a;}.cls-100{fill:#717478;}.cls-101{fill:#696d6f;}.cls-102{fill:#5d6163;}.cls-103{fill:#a8abad;}.cls-104{fill:#889186;}.cls-105{fill:#454b43;}.cls-106{fill:#2e281a;}.cls-107{fill:#45494d;}.cls-108{fill:#342c2c;}.cls-109{fill:#444529;}.cls-110{fill:#8e7f11;}.cls-111{fill:#747577;}.cls-112{fill:#4d5155;}.cls-113{fill:#636769;}.cls-114{fill:#363425;}.cls-115{fill:#75787a;}.cls-116{fill:#a49e8c;}.cls-117{fill:#363c40;}.cls-118{fill:#444a42;}.cls-119{fill:#7b641c;}.cls-120{fill:#5e5a4a;}.cls-121{fill:#6b6e6b;}.cls-122{fill:#8a7e50;}.cls-123{fill:#8a7f53;}.cls-124{fill:#80681b;}.cls-125{fill:#4d4d4c;}.cls-126{fill:#40474b;}.cls-127{fill:#d7d7d7;}.cls-128{fill:#8b918b;}.cls-129{fill:#65614f;}.cls-130{fill:#78797b;}.cls-131{fill:#4c5357;}.cls-132{fill:#332e23;}.cls-133{fill:#1a1d1b;}.cls-134{fill:#364237;}.cls-135{fill:#465245;}.cls-136{fill:#422c12;}.cls-137{fill:#5f6760;}.cls-138{fill:#3c3b3b;}.cls-139{fill:#5d5e5d;}.cls-140{fill:#a6a8aa;}.cls-141{fill:#818880;}.cls-142{fill:#404942;}.cls-143{fill:#39433b;}.cls-144{fill:#5b635d;}.cls-145{fill:#565656;}.cls-146{fill:#363636;}.cls-147{fill:#444443;}.cls-148{fill:#686d71;}.cls-149{fill:#1a252c;}.cls-150{fill:#9fa2a3;}.cls-151{fill:#929698;}.cls-152{fill:#828788;}.cls-153{fill:#676d70;}.cls-154{fill:#a0a3a5;}.cls-155{fill:#6b7073;}.cls-156{fill:#5f686b;}.cls-157{fill:#485056;}.cls-158{fill:#203946;}.cls-159{fill:#878b8e;}.cls-160{fill:#50565b;}.cls-161{fill:#434a4e;}.cls-162{fill:#6d7174;}.cls-163{fill:#475155;}.cls-164{fill:#595f63;}.cls-165{fill:#889187;}.cls-166{fill:#c2c3c4;}.cls-167{fill:#8e9294;}.cls-168{fill:#a7a9aa;}.cls-169{fill:#dbdbdb;}.cls-170{fill:#b7b7b7;}.cls-171{fill:#3b3e41;}.cls-172{fill:#544835;}.cls-173{fill:#292e32;}.cls-174{fill:#676b6f;}.cls-175{fill:#5f4e27;}.cls-176{fill:#6c5b21;}.cls-177{fill:#685e24;}.cls-178{fill:#292f34;}.cls-179{fill:#54585a;}.cls-180{fill:#4b3728;}.cls-181{fill:#402c28;}.cls-182{fill:#7a7c7e;}.cls-183{fill:#5f5817;}.cls-184{fill:#515457;}.cls-185{fill:#53402d;}.cls-186{fill:#4d2f1d;}.cls-187{fill:#7d7129;}.cls-188{fill:#a0a1a1;}.cls-189{fill:#8a8b8c;}.cls-190{fill:#868889;}.cls-191{fill:#332d2a;}.cls-192{fill:#454646;}.cls-193{fill:#43494d;}.cls-194{fill:#492a0f;}.cls-195{fill:#6a692a;}.cls-196{fill:#9a9b9b;}.cls-197{fill:#7e8081;}.cls-198{fill:#474d50;}.cls-199{fill:#6a682a;}.cls-200{fill:#696421;}.cls-201{fill:#9d9e9e;}.cls-202{fill:#a8a8a8;}.cls-203{fill:#4d5255;}.cls-204{fill:#8d8c0f;}.cls-205{fill:#7f8182;}.cls-206{fill:#828485;}.cls-207{fill:#7b7d7e;}.cls-208{fill:#7b7c7d;}.cls-209{fill:#9ea0a2;}.cls-210{fill:#70757a;}.cls-211{fill:#575d62;}.cls-212{fill:#919292;}.cls-213{fill:#747778;}.cls-214{fill:#6a6e70;}.cls-215{fill:#767b7d;}.cls-216{fill:#a0a1a2;}.cls-217{fill:#6d7276;}.cls-218{fill:#c7c9ca;}.cls-219{fill:#868a8d;}.cls-220{fill:#919396;}.cls-221{fill:#818486;}.cls-222{fill:#656b6d;}.cls-223{fill:#9fa1a3;}.cls-224{fill:#717171;}.cls-225{fill:#696e72;}.cls-226{fill:#4c4f51;}.cls-227{fill:#626467;}.cls-228{fill:#8a8c8e;}.cls-229{fill:#4d5358;}.cls-230{fill:#222427;}.cls-231{fill:#a1a2a3;}.cls-232{fill:#999b9d;}.cls-233{fill:#c8cacb;}.cls-234{fill:#949596;}.cls-235{fill:#63696d;}.cls-236{fill:#868b8e;}.cls-237{fill:#555b5f;}.cls-238{fill:#7c7e7f;}.cls-239{fill:#616567;}.cls-240{fill:#6d7173;}.cls-241{fill:#939595;}.cls-242{fill:#82878a;}.cls-243{fill:#909090;}.cls-244{fill:#9f9f9f;}.cls-245{fill:#acacac;}.cls-246{fill:#7b7b7b;}.cls-247{fill:#868686;}.cls-248{fill:#d3d3d3;}.cls-249{fill:#f9f9f9;}.cls-250{fill:#e1e1e1;}.cls-251{fill:#f1f1f1;}.cls-252{fill:#364238;}.cls-253{fill:#212d24;}.cls-254{fill:#515c50;}.cls-255{fill:#28322a;}.cls-256{fill:#5c645e;}.cls-257{fill:#3b443d;}.cls-258{fill:#4c554e;}.cls-259{fill:#697169;}.cls-260{fill:#36371b;}.cls-261{fill:#2d342e;}.cls-262{fill:#8f7e53;}.cls-263{fill:#554606;}.cls-264{fill:#664f2b;}.cls-265{fill:#331b1e;}.cls-266{fill:#908772;}.cls-267{fill:#808481;}.cls-268{fill:#7a6845;}.cls-269{fill:#fcfcfb;}.cls-270{fill:#c0c6bf;}.cls-271{fill:#83744d;}.cls-272{fill:#8a6524;}.cls-273{fill:#675536;}.cls-274{fill:#b08400;}.cls-275{fill:#969181;}.cls-276{fill:#f2f1f0;}.cls-277{fill:#857c69;}.cls-278{fill:#bcaa85;}.cls-279{fill:#a98839;}.cls-280{fill:#704b1a;}.cls-281{fill:#967952;}.cls-282{fill:#a5864c;}.cls-283{fill:#d1ae49;}.cls-284{fill:#cbab50;}.cls-285{fill:#513b20;}.cls-286{fill:#7d7d7e;}.cls-287{fill:#6f6f70;}.cls-288{fill:#58595a;}.cls-289{fill:#6b6c6e;}.cls-290{fill:#725e31;}.cls-291{fill:#949440;}.cls-292{fill:#523336;}.cls-293{fill:#655719;}.cls-294{fill:#474d4f;}.cls-295{fill:#a3a5a6;}.cls-296{fill:#ced101;}.cls-297{fill:#515552;}.cls-298{fill:#fbfce3;}.cls-299{fill:#797a78;}.cls-300{fill:#edf155;}.cls-301{fill:#f6f994;}.cls-302{fill:#ebed47;}.cls-303{fill:#c9ca3f;}.cls-304{fill:#939393;}.cls-305{fill:gray;}.cls-306{fill:#515650;}.cls-307{fill:#ddb94d;}.cls-308{fill:#484847;}.cls-309{fill:#a4a5a5;}.cls-310{fill:#efda98;}.cls-311{fill:#e9d290;}.cls-312{fill:#616568;}.cls-313{fill:#717376;}.cls-314{fill:#f0dc9e;}.cls-315{fill:#a4aaa3;}.cls-316{fill:#7c8082;}.cls-317{fill:#a8aaac;}.cls-318{fill:#8e9193;}.cls-319{fill:#72777a;}.cls-320{fill:#4d3d3d;}.cls-321{fill:#62686c;}.cls-322{fill:#585d62;}.cls-323{fill:#3f464a;}.cls-324{fill:#323c42;}.cls-325{fill:#787d80;}.cls-326{fill:#495055;}.cls-327{fill:#919597;}.cls-328{fill:#72787b;}.cls-329{fill:#374247;}.cls-330{fill:#8e6822;}.cls-331{fill:#3d3a30;}.cls-332{fill:#aa8a4e;}.cls-333{fill:#9c7f4e;}.cls-334{fill:#b39f80;}.cls-335{fill:#7a5627;}.cls-336{fill:#525553;}.cls-337{fill:#263129;}.cls-338{fill:#2b3029;}.cls-339{fill:#838984;}.cls-340{fill:#d0d0d0;}.cls-341{fill:#4c514c;}.cls-342{fill:#98999b;}.cls-343{fill:#e7e7e7;}.cls-344{fill:#c9c9c9;}.cls-345{fill:#cfcfd0;}.cls-346{fill:#dedede;}.cls-347{fill:#abacad;}.cls-348{fill:#808486;}.cls-349{fill:#7e8284;}.cls-350{fill:#b6b6b6;}.cls-351{fill:#96989a;}.cls-352{fill:#a2a2a2;}.cls-353{fill:#92952a;}.cls-354{fill:#736231;}.cls-355{fill:#533e26;}.cls-356{fill:#b9bc2a;}.cls-357{fill:#d2d43b;}.cls-358{fill:#9c9b09;}.cls-359{fill:#958c24;}.cls-360{fill:#a7a746;}.cls-361{fill:#a2a525;}.cls-362{fill:#b3b430;}.cls-363{fill:#7f7a1b;}.cls-364{fill:#b6b045;}.cls-365{fill:#bab946;}.cls-366{fill:#56471a;}.cls-367{fill:#6a6c10;}.cls-368{fill:#3f3616;}.cls-369{fill:#89873a;}.cls-370{fill:#898839;}.cls-371{fill:#a1a602;}.cls-372{fill:#c4c939;}.cls-373{fill:#575757;}.cls-374{fill:#888;}.cls-375{fill:#e5e5e6;}.cls-376{fill:#c1c1c3;}.cls-377{fill:#b2b2b2;}.cls-378{fill:#dadada;}.cls-379{fill:#8a8a8a;}.cls-380{fill:#636363;}.cls-381{fill:#7f7f7f;}.cls-382{fill:#969696;}.cls-383{fill:#5a5a5a;}.cls-384{fill:#ededed;}.cls-385{fill:#5d5d5d;}.cls-386{fill:#e6e6e7;}.cls-387{fill:#bfbfc0;}.cls-388{fill:#7e7e7e;}.cls-389{fill:#cacbcb;}.cls-390{fill:#a8a9aa;}.cls-391{fill:#9d9d9d;}.cls-392{fill:#989898;}.cls-393{fill:#7a7a7a;}.cls-394{fill:#c5c5c6;}.cls-395{fill:#848484;}.cls-396{fill:#727272;}.cls-397{fill:#b8b8b9;}.cls-398{fill:#9c9c9c;}.cls-399{fill:#a5a5a5;}.cls-400{fill:#a6a6a7;}.cls-401{fill:#949494;}.cls-402{fill:#8d8d8d;}.cls-403{fill:#656565;}.cls-404{fill:#5f5f5f;}.cls-405{fill:#646464;}.cls-406{fill:#929292;}.cls-407{fill:#6d6d6d;}.cls-408{fill:#c1c1c1;}.cls-409{fill:#959595;}.cls-410{fill:#8e8e8e;}.cls-411{fill:#9e9e9e;}.cls-412{fill:#828282;}.cls-413{fill:#cecece;}.cls-414{fill:#c5c5c5;}.cls-415{fill:#999;}.cls-416{fill:#a4a4a4;}.cls-417{fill:#b3b3b3;}.cls-418{fill:#6a726a;}.cls-419{fill:#848c83;}.cls-420{fill:#6d776c;}.cls-421{fill:#949a95;}.cls-422{fill:#a3aa4c;}.cls-423{fill:#bcc000;}.cls-424{fill:#b4ba34;}.cls-425{fill:#8c9410;}.cls-426{fill:#9ca322;}.cls-427{fill:#98a034;}.cls-428{fill:#767c0e;}.cls-429{fill:#c5a24b;}.cls-430{fill:#d7b458;}.cls-431{fill:#cbb279;}.cls-432{fill:#d5c3a0;}.cls-433{fill:#c8cbc8;}.cls-434{fill:#cfbc94;}.cls-435{fill:#d9b85f;}.cls-436{fill:#c6a44f;}.cls-437{fill:#f9f8f6;}.cls-438{fill:#ead495;}.cls-439{fill:#8f8f8f;}.cls-440{fill:#e4e557;}.cls-441{fill:#f6f882;}.cls-442{fill:#f9fcc2;}.cls-443{fill:#edf288;}.cls-444{fill:#e9ed57;}.cls-445{fill:#d2d736;}.cls-446{fill:#e5e92b;}.cls-447{fill:#e8ec7f;}.cls-448{fill:#dfe341;}.cls-449{fill:#a6a6a6;}.cls-450{fill:#757575;}.cls-451{fill:#747474;}.cls-452{fill:#9b9b9b;}.cls-453{fill:#919191;}.cls-454{fill:#6e6e6e;}.cls-455{fill:#8b8c8b;}.cls-456{fill:#3b3216;}.cls-457{fill:#adadad;}.cls-458{fill:#8e9091;}.cls-459{fill:#ccc;}.cls-460{fill:#b2b3b4;}.cls-461{fill:#8a8e90;}.cls-462{fill:#9b9c9c;}.cls-463{fill:#7d7f81;}.cls-464{fill:#a5a7a8;}.cls-465{fill:#d5d6d6;}.cls-466{fill:#818587;}.cls-467{fill:#6d7275;}.cls-468{fill:#b99d5b;}.cls-469{fill:#e5e5e5;}.cls-470{fill:#929901;}.cls-471{fill:#e9ed9e;}.cls-472{fill:#dfe355;}.cls-473{fill:#d6db7b;}.cls-474{fill:#edf19f;}.cls-475{fill:#d6d777;}.cls-476{fill:#dee175;}.cls-477{fill:#f2f7a1;}.cls-478{fill:#92982a;}.cls-479{fill:#b1b400;}.cls-480{fill:#aeb316;}.cls-481{fill:#767676;}.cls-482{fill:#bebebe;}.cls-483{fill:#bfbfbf;}.cls-484{fill:#bcbcbc;}.cls-485{fill:#666;}.cls-486{fill:#949c27;}.cls-487{fill:#dbe16a;}.cls-488{fill:#ced449;}.cls-489{fill:#b98a03;}.cls-490{fill:#d6b654;}.cls-491{fill:#f8fadd;}.cls-492{fill:#eff3ac;}.cls-493{fill:#818181;}</style></defs><title>hesh</title><g id="레이어_2" data-name="레이어 2"><g id="레이어_1-2" data-name="레이어 1"><rect class="cls-1" width="74" height="74" rx="8.33" ry="8.33"/><path class="cls-2" d="M29.05,65.34a1.21,1.21,0,0,0-1.39.92c-1.41-.05-1.43-.07-1.42-1.85h1a1,1,0,0,1,1-.42,1.23,1.23,0,0,1,1,.34A.72.72,0,0,1,29.05,65.34Z"/><path class="cls-3" d="M33.76,69.33l.9-.23a.75.75,0,0,1,.91-.28.61.61,0,0,1,.29.28.74.74,0,0,1-.25.92c0,.32,0,.63,0,1C33.76,71,33.74,71,33.76,69.33Z"/><path class="cls-4" d="M56.23,55c-.74-.09-1.73.35-1.95-.89l.09-.19a1.17,1.17,0,0,1,1-.29,1.34,1.34,0,0,1,1,.36A.73.73,0,0,1,56.23,55Z"/><path class="cls-5" d="M58.09,56l-1,0,0-.87a.52.52,0,0,1,.23-.33.75.75,0,0,1,.94.22A.71.71,0,0,1,58.09,56Z"/><path class="cls-6" d="M56.23,55l0-.86.1-.21a.69.69,0,0,1,1,0,.71.71,0,0,1-.16,1s0,.07,0,.11Z"/><path class="cls-7" d="M52.49,53.14c-.67.1-1-.13-1-.85l.1-.21a.7.7,0,0,1,1,0A.73.73,0,0,1,52.49,53.14Z"/><path class="cls-8" d="M52.49,53.14l0-.89a.68.68,0,0,1,1-.31.74.74,0,0,1,.28,1,.59.59,0,0,1-.3.3Z"/><path class="cls-9" d="M54.28,54.14a.81.81,0,0,1-.88-.92v-.09a.77.77,0,0,1,1.06-.1.73.73,0,0,1-.08,1Z"/><path class="cls-10" d="M51.5,52.29l-.92,0,0,0a.7.7,0,0,1-.07-1.08.78.78,0,0,1,1,0,.65.65,0,0,1,0,1S51.52,52.24,51.5,52.29Z"/><path class="cls-11" d="M43.12,8.25c.75-.1,1.64.22,2.06-.8.1-.23.48-.15.75-.13.21.21.47.39.45.74-.12.61.49.74.73,1.12a.63.63,0,0,1-.13.7c-1,.51-.46,1.46-.62,2.21,0,.37-.23.6-.41.86l0,.86a.51.51,0,0,1-.21.31c-.61.3-1.1.26-1.32-.5-.08-.29-.38-.33-.6-.46a.58.58,0,0,1-.18-.3,1.18,1.18,0,0,1,0-1.22c-.17,1.09-1.15,1-2.14,1a3.71,3.71,0,0,1-1.41-.49.91.91,0,0,1-.25-.87,1.17,1.17,0,0,1,.11-.33c.27-.33,1-.31.77-1A1.18,1.18,0,0,1,40.9,9C41.51,8.41,42.54,9,43.12,8.25Z"/><path class="cls-12" d="M31.84,9.14c0-.71.47-.92,1.1-.91l1.74,0a.74.74,0,0,1,.32.83c-.08.59-.81.68-1,1.22-.43.14-.84.31-.76.9a1.87,1.87,0,0,1-.25.82c-.81.61-1.17,1.65-2.1,2.13a1.33,1.33,0,0,1-1,0c-.55-.48-.61-1.34-1.29-1.73A3.19,3.19,0,0,1,28.74,11a1.37,1.37,0,0,1,.92-.39c.58-.16,1.5.45,1.67-.71C31.39,9.54,31.66,9.37,31.84,9.14Z"/><path class="cls-13" d="M23.66,13.84l3.42-.05a.6.6,0,0,1,.32.1c.51.71,1.28.26,1.92.42a1.85,1.85,0,0,1,.93.32,1.38,1.38,0,0,1,.19,1,1.33,1.33,0,0,1-.17.83c-.42.38-.9.7-.75,1.43a.93.93,0,0,1-.44.85,1,1,0,0,1-1,.06c-.1,0-.26-.09-.26-.21-.06-1.13-.79-1.54-1.77-1.71a1,1,0,0,1-.18-.42c0-1-.62-1.28-1.51-1.29C23.17,15.16,23,14.84,23.66,13.84Z"/><path class="cls-14" d="M6.55,21.4c-1.42-.08-.72-1.18-.89-1.87L15,19.48a.75.75,0,0,1,.3.91.68.68,0,0,1-.29.29,2.25,2.25,0,0,1-1.05.18c-2,0-4,0-6,0-.39,0-.85-.12-1.08.38A.54.54,0,0,1,6.55,21.4Z"/><path class="cls-15" d="M46,13.81c1.08-.13,1.69,1,2.73,1,.59.74.37,1.19-.49,1.43-1.14-.09-.84,1-1.18,1.51a.78.78,0,0,1-.33.19,3.36,3.36,0,0,1-1.75.16c-.35,0-.69,0-1,0a1.48,1.48,0,0,1-1-.31.88.88,0,0,1-.21-.92c.49-.77,1.44-.9,2.09-1.48.27-.24.51-.4.54-.77s.3-.5.49-.73Z"/><path class="cls-16" d="M23.66,13.84c0,.7.43.89,1.06.93,1.78.13,1.77.15,1.51,1.87-.44.66-.89.61-1.37,0-.17-.21-.34-.47-.68-.45a4.27,4.27,0,0,1-2.83-.82c-.45-.15-1,0-1.21-.67.39-.93,1.2-.93,2-.91Z"/><path class="cls-17" d="M47.81,15.74a.84.84,0,0,0,.92-1h1.84a1.1,1.1,0,0,1,0,1.84c-.63,0-1,.26-.92.92-.63.73-1.32.27-2,.12C47.25,17,47.09,16.33,47.81,15.74Z"/><path class="cls-18" d="M53.63,13h-.92a3.56,3.56,0,0,0-1.2.87h-.9a1.08,1.08,0,0,1,0-1.83c.36-.06.78,0,.9-.52s.58-.4.93-.49l.16,0a1.1,1.1,0,0,0,1.16.47c.58,0,1.2-.1,1.66.4a.69.69,0,0,1-.18,1Z"/><path class="cls-19" d="M11.28,16.62c-1.8,0-1.95-.09-1.9-1.72,0-1.4.66-2.06,1.84-2,.59,0,.95.27,1,.88a.51.51,0,0,1-.13.29,2,2,0,0,1-.5.21c-.29,0-.65.05-.75.45s.28.57.56.75a.79.79,0,0,1,.17.31A.75.75,0,0,1,11.28,16.62Z"/><path class="cls-20" d="M37.5,8.25c.86.18,1-1.17,1.87-.93a1.26,1.26,0,0,1,.51.77c.32.69,1.2,1.15.86,2.1a1,1,0,0,1-.42.83h-.06a.7.7,0,0,1-.83.31c-.48-.26-.56-.95-1.17-1.07-.11-.61-.81-.69-1.08-1.17A.7.7,0,0,1,37.5,8.25Z"/><path class="cls-21" d="M15,10.1c-.92,0-1.27-.82-1.7-1.4a.87.87,0,0,1,.77-1.38c.72,0,1.74-.47,1.9.85C15.63,8.82,15.61,9.61,15,10.1Z"/><path class="cls-22" d="M27.08,13.79,27.17,11a1.05,1.05,0,0,1-.2-.27c-.26-.64-.5-1.4.13-1.82A1.42,1.42,0,0,1,29,9.17h0a.73.73,0,0,1,.17,1,1.35,1.35,0,0,0-.67,1.42,13.69,13.69,0,0,1,0,1.57c-.09,1-.35,1.17-1.35.67Z"/><path class="cls-23" d="M62.75,16.62c-1.25,0-2.49,0-3.74,0-.83,0-.93-.45-.95-1.11s.39-.83,1-.73a1.68,1.68,0,0,0,1.4.43,6.37,6.37,0,0,1,2.3.18.58.58,0,0,1,.29.29A.73.73,0,0,1,62.75,16.62Z"/><path class="cls-24" d="M24.38,11c.62,0,1,.22.88.95-.8.92-1.91.33-2.86.51a1.65,1.65,0,0,1-1.49-.26c-.22-.31-.51-.6-.39-1s.73-.86,1-1.36c.41-.19.7,0,1,.29h0a1.13,1.13,0,0,0,1.15.49C24,10.56,24.15,10.82,24.38,11Z"/><path class="cls-25" d="M68.41,19.92l-.07.5a1,1,0,0,1-1,.43,23.54,23.54,0,0,1-3.25.11,1.72,1.72,0,0,1-1.29-.37.8.8,0,0,1,.17-1.1l4.44,0C67.82,19.47,68.23,19.45,68.41,19.92Z"/><path class="cls-26" d="M13.84,14.74l2.08.06a.72.72,0,0,1,.2,1,1,1,0,0,1-.4.25,15.56,15.56,0,0,1-3.61.05,1.45,1.45,0,0,1-.84-.4h0c-.5-1-.37-1.21.8-1.37A3,3,0,0,1,13.84,14.74Z"/><path class="cls-27" d="M20.9,11.92l4.36,0c.09.7-.24,1-.92,1-.93,0-1.85,0-2.78,0a.87.87,0,0,1-1-.87A.23.23,0,0,1,20.9,11.92Z"/><path class="cls-28" d="M11.27,15.7l4.69,0c.33.31.24.61,0,.91l-4.65,0C11.28,16.31,11.27,16,11.27,15.7Z"/><path class="cls-29" d="M29,9.17c-1.81,0-1.81,0-1.86,1.86-1.18-.31-1-1.25-.89-2.08s.6-.73,1.12-.71C28.09,8.27,29,8,29,9.17Z"/><path class="cls-30" d="M63,19.49v.87c-.85,1.09-2,.46-3.07.54a1.22,1.22,0,0,1-1-.41,1,1,0,0,1,0-1.2,3.59,3.59,0,0,1,3.21.13Z"/><path class="cls-31" d="M15,10.1c.18-.71-.53-1.87,1-1.93l1.83.1a.67.67,0,0,1,.26.89.93.93,0,0,1-.75.44,1.7,1.7,0,0,0-1.37.74.72.72,0,0,1-.92-.25Z"/><path class="cls-32" d="M53.38,20.43l-.9-.08a1.07,1.07,0,0,1,0-1.81h1.85a.94.94,0,0,1,.46.85,1.82,1.82,0,0,1-.17,1,.78.78,0,0,1-.29.28A.82.82,0,0,1,53.38,20.43Z"/><path class="cls-33" d="M40.31,10.12c.16-.87-1.16-1-.94-1.92l.9-.88.94,0a1.13,1.13,0,0,1,0,1.86v.93C40.94,10.44,40.63,10.4,40.31,10.12Z"/><path class="cls-34" d="M58.05,8.18c0-.7.36-.93,1-.88a.81.81,0,0,1,.85,1c-.06.71.43,1.73-.9,1.83C58.41,9.61,58.39,8.82,58.05,8.18Z"/><path class="cls-35" d="M62.75,15.68,60,15.7c-.6,0-1-.24-.93-.89l.91-.07c.54-.54,1.23-.4,1.89-.42a1.57,1.57,0,0,1,1.09.33A.67.67,0,0,1,62.75,15.68Z"/><path class="cls-36" d="M62.08,19.42,59,19.49a.59.59,0,0,1-.81.05.68.68,0,0,1,.11-1h2.64A1,1,0,0,1,62.08,19.42Z"/><path class="cls-37" d="M15.05,20.35c0-.29-.05-.58-.08-.87l2.6,0c-.28.86-.48,1.78-1.63,1.87C15.69,21,15.16,20.84,15.05,20.35Z"/><path class="cls-38" d="M37.5,8.25v.84a.63.63,0,0,1-.23.34,4.4,4.4,0,0,1-1.73.19c-.37,0-.72,0-.87-.46,0-.29,0-.59,0-.88Z"/><path class="cls-39" d="M18.75,12H16.91a.87.87,0,0,1-1-.87.53.53,0,0,1,.21-.33,1.62,1.62,0,0,1,1-.2c.62,0,1.29-.17,1.83.34A.81.81,0,0,1,18.75,12Z"/><path class="cls-40" d="M20.14,14.74l1.4,0a1.23,1.23,0,0,1,.21,1.76.76.76,0,0,0-.19.12h-.95l0-.06a5.34,5.34,0,0,1-.93-.91C19.7,15.31,19.52,14.85,20.14,14.74Z"/><path class="cls-41" d="M15.93,16.65l0-.91h0a11,11,0,0,1,.88-.93c.7,0,1,.35.95,1s-.48.82-1,.83C16.48,16.66,16.21,16.65,15.93,16.65Z"/><path class="cls-42" d="M41.22,9.15c0-.62,0-1.24,0-1.86.89-.19,1,1.12,1.91,1C43,9.62,42,9.05,41.22,9.15Z"/><path class="cls-43" d="M62.75,15.68v-.92a.77.77,0,0,1-.11-1.11,1.49,1.49,0,0,1,2,.21v.9c-.28.34-.63.63-.9,1h0a.64.64,0,0,1-.93,0Z"/><path class="cls-44" d="M64.62,13.86l-1.83,0c-.23.2-.48.38-.81.2a.43.43,0,0,1-.2-.29c.19-1.17,1.11-.84,1.83-.88S64.65,13.15,64.62,13.86Z"/><path class="cls-45" d="M58.05,8.18c1.46.07.8,1.21,1,1.93h0a.85.85,0,0,1-.92.31c-.57-.26-.66-1-1.2-1.26a.69.69,0,0,1,.27-.9Z"/><path class="cls-29" d="M29.07,10l0-.87,2.8,0c0,.31,0,.63,0,.95-.44.6-1.1.39-1.68.46a1.33,1.33,0,0,1-.93-.19A.49.49,0,0,1,29.07,10Z"/><path class="cls-46" d="M18.75,12l0-.89a1.33,1.33,0,0,1,2.11,0l.06.87-.34.1Z"/><path class="cls-47" d="M58.3,18.54l0,.89c-.65.75-1.43.48-2.19.24a.74.74,0,0,1,.06-1.12Z"/><path class="cls-48" d="M45.9,12c.13-.79-.39-1.84.91-2.12.08.05.11.1.09.17s0,.1-.06.1l0,1.83A.6.6,0,0,1,45.9,12Z"/><path class="cls-49" d="M22.51,10.07l-1,0a.71.71,0,0,1-1,.1.72.72,0,0,1,.11-1C21.34,9.25,22.35,8.74,22.51,10.07Z"/><path class="cls-18" d="M20.6,9.18l0,.88c-.52.79-1.25.43-1.92.34a1,1,0,0,1-.29-1.07A.87.87,0,0,1,18.67,9a.81.81,0,0,1,1,.17Z"/><path class="cls-50" d="M50.62,12c0,.61,0,1.22,0,1.83-.6,0-.94-.21-1-.85S49.94,12,50.62,12Z"/><path class="cls-51" d="M55.25,12.88l0-.89.09-.19a1.07,1.07,0,0,1,1-.28c.38,0,.71,0,.83.47C57,13.27,56,12.82,55.25,12.88Z"/><path class="cls-52" d="M54.25,10.05c.19-1.2,1.16-.84,1.9-1a.51.51,0,0,1,.33.25.85.85,0,0,1-.15,1,2.07,2.07,0,0,1-1.8.05A.59.59,0,0,1,54.25,10.05Z"/><path class="cls-53" d="M57.16,12l-1,0A.81.81,0,0,1,56,10.89a1.71,1.71,0,0,1,1.84-.16.57.57,0,0,1,.28.35A.86.86,0,0,1,57.16,12Z"/><path class="cls-54" d="M48.71,7.29c.62,0,.93.27.92.91a.84.84,0,0,1-.93,1A1.16,1.16,0,0,1,48.71,7.29Z"/><path class="cls-25" d="M48.71,7.29c0,.62,0,1.24,0,1.86v0a.72.72,0,0,1-.89.31.68.68,0,0,1-.3-.26,1.89,1.89,0,0,1-.16-1,1,1,0,0,1,.42-.88Z"/><path class="cls-55" d="M47.76,7.31v.93a1.23,1.23,0,0,1-1.83,0V7.32Z"/><path class="cls-56" d="M52.45,11c.14-1.21,1.1-.82,1.8-.93l.13.08c.42,1,.32,1.18-.84,1.35a1.28,1.28,0,0,1-1.07-.39Z"/><path class="cls-57" d="M56.19,18.55l0,.87c-.61.75-1.24.63-1.89,0v-.91Z"/><path class="cls-58" d="M52.47,18.54v1.81c-1.13.13-.9-.74-1-1.36C51.63,18.45,52.06,18.53,52.47,18.54Z"/><path class="cls-44" d="M61.8,14.73H59.94c.12-1.28,1.15-.78,1.84-1l.07.08A.53.53,0,0,1,61.8,14.73Z"/><path class="cls-59" d="M50.56,16.63V14.79h.94C51.41,15.51,51.93,16.56,50.56,16.63Z"/><path class="cls-19" d="M13.84,14.74H12.23a.55.55,0,0,1-.05-.89l.05-.06C12.91,13.86,13.55,14,13.84,14.74Z"/><path class="cls-60" d="M51.51,13.82c0-.78.53-.94,1.2-.87-.08.31-.17.62-.25.93Z"/><path class="cls-61" d="M17.81,9.16l0-.89.94,0c.27.26.36.54.05.85l-.05.09a.57.57,0,0,1-.82.12Z"/><path class="cls-60" d="M45.9,12l.92,0A.81.81,0,0,1,46,13C45.94,12.62,45.92,12.29,45.9,12Z"/><path class="cls-62" d="M18.77,9.1c0-.29,0-.57-.05-.85a.8.8,0,0,1,1,.87Z"/><path class="cls-28" d="M16.84,14.8a.77.77,0,0,1-.88.93c0-.31,0-.62,0-.93Z"/><path class="cls-63" d="M40.27,7.32c0,.62-.27.92-.9.88V7.32Z"/><path class="cls-64" d="M24.38,11h-.92a.56.56,0,0,1,0-.89A.81.81,0,0,1,24.38,11Z"/><path class="cls-65" d="M23.42,10.1c0,.3,0,.59,0,.89-.68.08-1-.26-1-.91Z"/><path class="cls-66" d="M15,10.09l.92,0,.15.09A.53.53,0,0,1,16,11l-.06.1C15.27,11.05,14.93,10.76,15,10.09Z"/><path class="cls-67" d="M47.83,9.16l.86,0c.05.67-.26,1-.93.95C47.49,9.75,47.42,9.44,47.83,9.16Z"/><path class="cls-68" d="M47.83,9.16l-.07.92-.92,0,0-.27c0-.23-.05-.46-.07-.68A.5.5,0,0,1,47,8.89a.59.59,0,0,1,.77.26Z"/><path class="cls-69" d="M63.72,15.73c-.08-.67.23-1,.9-1C64.69,15.43,64.42,15.78,63.72,15.73Z"/><path class="cls-70" d="M19.71,15.7c.62,0,.94.28.93.91C19.92,16.72,19.59,16.44,19.71,15.7Z"/><path class="cls-71" d="M58.11,10.12l.91,0c.07.65-.23,1-.89,1L58,11C57.78,10.68,57.74,10.38,58.11,10.12Z"/><path class="cls-72" d="M62.78,15.77l.93,0c.06.72-.28,1-1,.9Z"/><path class="cls-73" d="M57.17,8.25l0,.89L57,9.3a.57.57,0,0,1-.81-.11l-.08-.1C56.16,8.41,56.53,8.17,57.17,8.25Z"/><path class="cls-74" d="M14.54,22.28a1,1,0,0,1-1.12.91l-4.85,0c-.61,0-1.05-.22-1.11-.9l.09-.2a1.25,1.25,0,0,1,1-.3h4.58C13.65,21.87,14.24,21.66,14.54,22.28Z"/><path class="cls-75" d="M23.39,23.17a2.6,2.6,0,0,1,1.83-2.84.51.51,0,0,1,.31.13c.16.52.85.49,1,1,.11.29.29.71,0,.87-.77.5-.75,1.39-1.15,2.07a1.2,1.2,0,0,1-1,.06A3.53,3.53,0,0,1,23.39,23.17Z"/><path class="cls-76" d="M19.68,25c.43-1.31,1.2-1.8,2.83-1.8a.72.72,0,0,1,.26.87c-.36.43-.93.65-1.14,1.21a1.54,1.54,0,0,1-.89.23,1.2,1.2,0,0,1-.88-.2A.47.47,0,0,1,19.68,25Z"/><path class="cls-77" d="M15.91,26c0-.63.38-.89,1-.89h1.87a.83.83,0,0,1,.2,1.06c-.26.38-.66.32-1,.33H16.79C16.4,26.48,16,26.44,15.91,26Z"/><path class="cls-78" d="M13.1,26.91c0-.29,0-.58.05-.87H15a.7.7,0,0,1,0,1.09C14.35,27.41,13.66,27.7,13.1,26.91Z"/><path class="cls-79" d="M15,26.9l0-.85.89-.08,1,.07a.7.7,0,0,1,.12,1,1.73,1.73,0,0,1-1.78.2A.56.56,0,0,1,15,26.9Z"/><path class="cls-80" d="M24.37,17.61l-1.86,0a.75.75,0,0,1-.12-1.11c1.52-.6,2.26-.28,2.17,1Z"/><path class="cls-81" d="M14.54,22.28l-1.45-.05a.76.76,0,0,1-.19-1c.22-.37.59-.35.95-.35a1.58,1.58,0,0,1,1,.19.46.46,0,0,1,.22.32C15,21.73,15,22.16,14.54,22.28Z"/><path class="cls-75" d="M25.22,20.33l0-1.78.13-.2a.82.82,0,0,1,1.1.1,2.18,2.18,0,0,1-.06,2,.72.72,0,0,1-1.1,0Z"/><path class="cls-82" d="M22.48,24.08l0-.86.88,0c.57,0,1,.26,1,.91a.49.49,0,0,1-.18.32,1.52,1.52,0,0,1-1.53,0A.52.52,0,0,1,22.48,24.08Z"/><path class="cls-83" d="M15.05,20.35a.81.81,0,0,1,.89,1l-.89.05L15,21.3a.57.57,0,0,1,0-.87Z"/><path class="cls-84" d="M7.46,22.31c-.57,0-.91-.3-.91-.91l0-.11a.77.77,0,0,1,.9-.24.61.61,0,0,1,.29.28.73.73,0,0,1-.23.9Z"/><path class="cls-34" d="M22.46,16.65l.05.92c-.64,0-1-.24-1-.9l0-.08C21.84,16.38,22.17,16.28,22.46,16.65Z"/><path class="cls-85" d="M18.71,26l.05-.89.92-.07v.11a.61.61,0,0,1,0,1A.63.63,0,0,1,18.71,26Z"/><path class="cls-86" d="M25.25,18.55a.8.8,0,0,1-.88-.94l0-.07a.8.8,0,0,1,1.07-.11.73.73,0,0,1,0,1.06Z"/><path class="cls-9" d="M50.59,22.24A5.71,5.71,0,0,1,53.4,25l-.06.18a.91.91,0,0,1-.87.33,1.72,1.72,0,0,1-.92-.16c-.37-.36-.65-.9-1.31-.75-.58-.1-1.25.11-1.73-.43a2,2,0,0,1,0-2c.27-.4.67-.36,1.07-.35A1.21,1.21,0,0,1,50.59,22.24Z"/><path class="cls-87" d="M54.33,19.46l1.89,0h2.1l.68.06v.88l-.06.17c-.39.45-.93.27-1.42.32s-.81-.11-1,.36a.58.58,0,0,1-.29.17l-.93-.08c-.26-.38-.84-.44-.93-1Z"/><path class="cls-88" d="M47.79,17.56h1.85c0,.49-.1,1-.77.83-1.1-.33-1,.41-1.08,1.06a1.56,1.56,0,0,1-.16.2c-.47.26-.93.22-1.15-.3a1.38,1.38,0,0,1,.38-1.75h0A.62.62,0,0,1,47.79,17.56Z"/><path class="cls-89" d="M54.33,25.08c1,0,2.16-.28,2.83.89l-.07.19a1,1,0,0,1-.92.31H55.11c-.37,0-.76,0-1-.35A.82.82,0,0,1,54.33,25.08Z"/><path class="cls-88" d="M50.59,22.24l-.9,0a2.41,2.41,0,0,0-.76-.46c-.65-.15-.86-.59-.5-1.21a.47.47,0,0,1,.3-.21A2.36,2.36,0,0,1,50.59,22.24Z"/><path class="cls-90" d="M66.54,23.22c-.2,1.24-1.16.85-1.92.91a.75.75,0,0,1-.19-1,1.17,1.17,0,0,1,.93-.41,1.55,1.55,0,0,1,1,.17A.52.52,0,0,1,66.54,23.22Z"/><path class="cls-91" d="M58,22.31c-.68-.17-1.7.35-1.82-.92v-.1A1.91,1.91,0,0,1,58.11,21a.85.85,0,0,1,.25,1A.57.57,0,0,1,58,22.31Z"/><path class="cls-92" d="M60,23.18c-.76,0-1.72.36-1.94-.87l.08-.07a.94.94,0,0,1,.86-.41A2,2,0,0,1,60,22a.63.63,0,0,1,.27.29A.74.74,0,0,1,60,23.18Z"/><path class="cls-93" d="M60,23.18l0-.89c.51-.74,1.21-.57,1.91-.38A.93.93,0,0,1,62.12,23a.67.67,0,0,1-.31.31Z"/><path class="cls-17" d="M64.65,23.29l0,.84-1.83,0a.7.7,0,0,1-.3-.88.68.68,0,0,1,.28-.3,2,2,0,0,1,1.67,0A.58.58,0,0,1,64.65,23.29Z"/><path class="cls-94" d="M67.49,22.31a.86.86,0,0,1-.95.91l-.09,0a.72.72,0,0,1,0-1.14.84.84,0,0,1,.88,0A.43.43,0,0,1,67.49,22.31Z"/><path class="cls-95" d="M62.75,23.24c0,.29,0,.57,0,.86-.62.08-1-.16-1-.83l0-.11C62.16,22.91,62.48,22.84,62.75,23.24Z"/><path class="cls-81" d="M54.35,20.33a.89.89,0,0,1,.93,1h-.92a.55.55,0,0,1,0-.88Z"/><path class="cls-96" d="M54.32,20.43c0,.3,0,.59,0,.88-.63,0-1-.24-1-.88Z"/><path class="cls-88" d="M47.79,19.44a.87.87,0,0,1,.94.94l0,0a.66.66,0,1,1-.94-.93Z"/><path class="cls-97" d="M68.36,21.3a.84.84,0,0,1-.87,1l-.08-.07a.76.76,0,0,1-.24-.9.63.63,0,0,1,.28-.28A.76.76,0,0,1,68.36,21.3Z"/><path class="cls-98" d="M68.36,21.3l-.92,0a.54.54,0,0,1,0-.88l.93,0Z"/><path class="cls-99" d="M58.06,26l0,.86-.09.2a.69.69,0,0,1-1,0,.66.66,0,0,1,.12-1l0-.1Z"/><path class="cls-100" d="M54.33,25.08l0,.89a.62.62,0,0,1-1,.14.61.61,0,0,1,0-1V25Z"/><path class="cls-101" d="M67.5,45.45l-.09,4a.75.75,0,0,1-1.06.15A1.38,1.38,0,0,1,66,48.47c0-1.55,0-3.1,0-4.65.09-1.26-.13-2.53.06-3.8a3.65,3.65,0,0,1,.25-.93.68.68,0,0,1,1.08,0Z"/><path class="cls-102" d="M67.41,39.14l-.88,0L66.32,39c-.55-1.26-.24-2.59-.27-3.89,0-.16-.14-.35,0-.51a2.31,2.31,0,0,1,.17-1,.63.63,0,0,1,.28-.3.71.71,0,0,1,.92.27L67.47,38Z"/><path class="cls-103" d="M5.59,38.9l.06-11a.74.74,0,0,1,.95-.26.87.87,0,0,1,.29.34A7.1,7.1,0,0,1,7,30.82c0,3.71,0,7.42,0,11.12,0,3.47,0,6.94,0,10.41a6,6,0,0,1-.14,2.56.92.92,0,0,1-.26.35.71.71,0,0,1-1-.24l-.08-8.4Z"/><path class="cls-104" d="M29.07,53.14h-.9c-.55-.22-.57-.77-.56-1.18.13-6.46-.08-12.92.08-19.38,0-.29.08-.55.11-.83a.73.73,0,0,1,.3-.35,1.09,1.09,0,0,1,1.13.08c.47.61.27,1.32.27,2,0,6.23,0,12.46,0,18.69A1,1,0,0,1,29.07,53.14Z"/><path class="cls-105" d="M28.05,31.65,28.11,47c0,2.06,0,4.12.06,6.18-1,.06-1-.64-1-1.33V41.06l0-9.45C27.49,31.36,27.78,31.3,28.05,31.65Z"/><path class="cls-106" d="M27.18,57.87v-1a1,1,0,0,1,.85-.43l1,0c.33,0,.66,0,1,0s.69,0,1,0c1.48,0,3,0,4.43,0,.65,0,1.31,0,2,0s1.2-.05,1.8,0c.36,0,.71,0,1.07,0a11.78,11.78,0,0,1,2.72,0,3.6,3.6,0,0,1,1.08.18.74.74,0,0,1,.36.27,1,1,0,0,1,0,1.08.84.84,0,0,1-.41.23,34,34,0,0,1-4.62.14c-.67,0-1.35,0-2,0-2.14,0-4.28,0-6.43,0-.93,0-1.87,0-2.8,0A1.06,1.06,0,0,1,27.18,57.87Z"/><path class="cls-107" d="M25.28,26.94a3.71,3.71,0,0,1-1.37,3.78A2.06,2.06,0,0,0,24,33.58c.75.77,1.6,1.5,1.27,2.76a.71.71,0,0,1-.84.27,22.64,22.64,0,0,1-2.07-2c-.2-.53-.75-.7-1.1-1.08-.2-.57-.34-1.12.35-1.49.24-.12.23-.38.26-.6a6.11,6.11,0,0,1,.26-1.65c.67-1,1.64-1.77,2-3a.77.77,0,0,1,.31-.21A.74.74,0,0,1,25.28,26.94Z"/><path class="cls-108" d="M25.29,24.16c0-.82-.12-1.67.79-2.19.13-.07.11-.41.16-.63l.06-.17c.4-.22.49-.66.73-1a1.37,1.37,0,0,1,.38-.15.72.72,0,0,1,.95.31,4.56,4.56,0,0,1,.21,1.91,1.85,1.85,0,0,1-.16,1.06,2,2,0,0,1-.91.4c-.27.1-.65,0-.74.43s.23.51.51.64a.59.59,0,0,1,.35.54c-.11.87.38,1.85-.49,2.59-.64,0-.88-.41-.9-1a.82.82,0,0,0-.86-.89l-.2-.07a.92.92,0,0,1-.3-.91A1,1,0,0,1,25.29,24.16Z"/><path class="cls-109" d="M27.22,29.79l0-1a1,1,0,0,1,.85-.43c.33,0,.65,0,1,0s.65,0,1,0,.66,0,1,0a3.26,3.26,0,0,1,1,.16.69.69,0,0,1,.33.28,1,1,0,0,1-.05,1.07.79.79,0,0,1-.4.22,21.69,21.69,0,0,1-3.69.12A1,1,0,0,1,27.22,29.79Z"/><path class="cls-110" d="M28.12,28.79h-.93l-.06-.9V25.1c-.27-.32-.43-.65-.17-1a1,1,0,0,1,1.07-.2.73.73,0,0,1,.34.31,5.72,5.72,0,0,1,.19,1.93C28.4,27,28.93,28,28.12,28.79Z"/><path class="cls-111" d="M24.39,42.9l-.05.87a.7.7,0,0,1-1.07.12c-.74-1.46-.44-3-.28-4.51.06-.66.63-.79,1.24-.56a.81.81,0,0,1,.38.33C24.83,40.41,25.16,41.69,24.39,42.9Z"/><path class="cls-112" d="M24.39,42.9l.05-3.75c.26-.36.54-.29.83,0,0,1,0,1.9,0,2.85A.8.8,0,0,1,24.39,42.9Z"/><path class="cls-113" d="M25.27,39.12l-.83,0-.12,0a1.66,1.66,0,0,1-.44-1.66,1.47,1.47,0,0,1,.2-.94.51.51,0,0,1,.31-.21l.88,0Z"/><path class="cls-114" d="M27.18,62.54v-1.9a1,1,0,0,1,.95-.41,1.41,1.41,0,0,1,1,.28.88.88,0,0,1,.21,1c-.18.51-.93.53-1,1.15a.79.79,0,0,1-.31.23A.75.75,0,0,1,27.18,62.54Z"/><path class="cls-115" d="M25.25,47.61l0,2.73a.69.69,0,0,1-1.06.11,2.84,2.84,0,0,1,0-3A.67.67,0,0,1,25.25,47.61Z"/><path class="cls-116" d="M28.15,54.14l2.76,0v0a.71.71,0,0,1,.2,1,1.3,1.3,0,0,1-1,.39c-.34,0-.69,0-1,0a2,2,0,0,1-1-.18.66.66,0,0,1-.27-.3A.72.72,0,0,1,28.15,54.14Z"/><path class="cls-117" d="M23.43,43.82l.91,0,.05,2.79a.51.51,0,0,1-.26.33.75.75,0,0,1-1-.33,3.36,3.36,0,0,1,.07-2.62Z"/><path class="cls-118" d="M27.18,62.54h.93a1.17,1.17,0,0,1,0,1.86h-.94C27.19,63.78,27.19,63.16,27.18,62.54Z"/><path class="cls-119" d="M28.13,56.9h-.94c0-.31,0-.61,0-.92a.66.66,0,0,1,1-.1A.69.69,0,0,1,28.13,56.9Z"/><path class="cls-120" d="M27.18,57.87l.95,0a.66.66,0,1,1-.93.92Z"/><path class="cls-121" d="M28.05,31.65l-.85,0v-.89a.67.67,0,0,1,1-.13.71.71,0,0,1-.05,1Z"/><path class="cls-122" d="M28.06,56l-.85,0v-.92c.28-.27.56-.33.85,0l.11,0c.21.22.36.46.18.77A.53.53,0,0,1,28.06,56Z"/><path class="cls-123" d="M27.2,58.81l.85-.05a.57.57,0,0,1,.31.18.82.82,0,0,1,0,.88A.77.77,0,0,1,28,60a.7.7,0,0,1-.83-.31Z"/><path class="cls-124" d="M27.21,59.73l.85,0c.39.27.33.57.07.89h-.94C27.19,60.34,27.2,60,27.21,59.73Z"/><path class="cls-125" d="M28.11,30.7l-.91,0c0-.31,0-.62,0-.93h.92a.57.57,0,0,1,.13.81Z"/><path class="cls-126" d="M25.25,47.61l-.9,0-.16-.11a.57.57,0,0,1,.15-.81l.05-.1C25,46.63,25.34,46.94,25.25,47.61Z"/><path class="cls-127" d="M29.07,53.14l0-.92a.66.66,0,0,1,1-.08.67.67,0,0,1-.13,1Z"/><path class="cls-128" d="M30,53.15v-.92l.13-.18a.72.72,0,0,1,1,.12.71.71,0,0,1-.19,1l0,0Z"/><path class="cls-129" d="M28.05,55l-.85,0c-.11-.74.25-1,.95-.92C28.12,54.44,28.09,54.73,28.05,55Z"/><path class="cls-130" d="M25.28,26.94l-.91,0a.66.66,0,1,1,.89-.94h.11Z"/><path class="cls-131" d="M24.37,50.37l.9,0c0,.31,0,.63,0,.94l-.87.08a.54.54,0,0,1-.3-.15.57.57,0,0,1,.09-.78Z"/><path class="cls-132" d="M42.38,62.51a1.13,1.13,0,0,0-1.29-.89c-.58.05-.78.4-.81.92a.73.73,0,0,1-1,.14,1.35,1.35,0,0,1-.35-1,1.18,1.18,0,0,1,1.29-1.44,8.44,8.44,0,0,1,1.88,0l1,0c.35,0,.69,0,1,0a1,1,0,0,1,.78.28c.77,1.09-.46,1.5-.77,2.22a1.28,1.28,0,0,1-1,.22A.7.7,0,0,1,42.38,62.51Z"/><path class="cls-133" d="M44,62.53c-.07-.73.66-1.14.71-1.82A.53.53,0,0,1,45,60.4a.77.77,0,0,1,.92.27A8.42,8.42,0,0,1,46,64.44a.94.94,0,0,1-1,.89.83.83,0,0,1-.94-.92s0-.1,0-.16a.9.9,0,0,0,0-1.56A.75.75,0,0,0,44,62.53Z"/><path class="cls-134" d="M36.58,64.37l-3.57,0a1.49,1.49,0,0,1-.17-2,6.55,6.55,0,0,1,3.54-.15.86.86,0,0,1,.38.27A1.52,1.52,0,0,1,36.58,64.37Z"/><path class="cls-135" d="M33,62.56v1.83h-2.1a1.41,1.41,0,0,1-.08-2C31.59,62.05,32.33,61.83,33,62.56Z"/><path class="cls-136" d="M44,54.12c.65.05,1.37-.22,1.86.46,0,.63,0,1.26,0,1.88.19.81-.27.91-.9.81a.89.89,0,0,1-.44-.82,1.7,1.7,0,0,0-.77-1.37A.73.73,0,0,1,44,54.12Z"/><path class="cls-137" d="M36.58,64.37l0-1.81c.16-.39.46-.43.82-.34a.79.79,0,0,1,.33.2,1,1,0,0,0,.88.63c.4,0,.83,0,1.08.44a.74.74,0,0,1-.33.9Z"/><path class="cls-106" d="M45.92,60.67H45c-.63-.52-.4-1.24-.45-1.89a1.56,1.56,0,0,1,.34-1.1c.5-.23.94-.32,1.06.41Z"/><path class="cls-138" d="M35.59,69.1h-.93c0-.61,0-1.21,0-1.82s.27-1,.94-1A2.23,2.23,0,0,1,35.59,69.1Z"/><path class="cls-139" d="M35.59,69.1V66.29h0a.6.6,0,0,1,.92,0v2.76a.57.57,0,0,1-.9,0Z"/><path class="cls-140" d="M47.74,48.73l.08-1.15a.74.74,0,0,1,1.13-.1,3.81,3.81,0,0,1,0,2.91.69.69,0,0,1-1.1,0Z"/><path class="cls-133" d="M45.91,58.09a1.68,1.68,0,0,0-1-.22.42.42,0,0,1-.67,0V57a.41.41,0,0,1,.67-.06.92.92,0,0,0,1-.44A1,1,0,0,1,45.91,58.09Z"/><path class="cls-141" d="M30.92,62.54V64.4l-.9.09a.57.57,0,0,1-.32-.27,1.89,1.89,0,0,1,.11-1.76.73.73,0,0,1,1-.1Z"/><path class="cls-142" d="M39.33,64.39v-.94c-.23-.22-.38-.46-.19-.78a.36.36,0,0,1,.3-.15l.85,0C40.17,63.26,40.72,64.32,39.33,64.39Z"/><path class="cls-143" d="M42.38,62.51l.73,0a1.19,1.19,0,0,1,0,1.84C41.68,64.23,42.17,63.32,42.38,62.51Z"/><path class="cls-144" d="M43.11,64.39V62.55l.92,0h0a1.18,1.18,0,0,1,0,1.88h0Z"/><path class="cls-145" d="M29.05,65.34l0-.85a.41.41,0,0,1,.16-.3c.32-.18.55,0,.78.19a.15.15,0,0,0,0,.11C30.07,65.2,29.67,65.4,29.05,65.34Z"/><path class="cls-146" d="M36.52,66.32l-.92,0c0-.33,0-.79.48-.77S36.48,66,36.52,66.32Z"/><path class="cls-147" d="M35.61,69.09h.9c.06.66-.24,1-.9.94Z"/><path class="cls-148" d="M47.81,50.34l.91,0,.17.09a.74.74,0,0,1,.08.91.67.67,0,0,1-.31.24.72.72,0,0,1-.86-.31h0a.5.5,0,0,1,0-.7Z"/><path class="cls-149" d="M47.74,50.6l0,.7-.94.24A1.5,1.5,0,0,1,47.74,50.6Z"/><path class="cls-150" d="M66.49,56H59a.74.74,0,0,1-.13-1.11c.91-.58,1.92-.17,2.89-.25a18.66,18.66,0,0,1,2.48,0,6.14,6.14,0,0,1,2.09.14.93.93,0,0,1,.36.26A.72.72,0,0,1,66.49,56Z"/><path class="cls-151" d="M67.4,52.25V55c-.26.27-.54.36-.84,0l-.09,0c-.58-.47-.4-1.13-.44-1.73a2.08,2.08,0,0,1,.17-1,.63.63,0,0,1,.28-.3A.72.72,0,0,1,67.4,52.25Z"/><path class="cls-152" d="M59,55.07l0,.87h-.94l0-.85.09-.18A.53.53,0,0,1,59,55.07Z"/><path class="cls-153" d="M66.57,55.08l.84,0c.14.76-.18,1.06-.92.92Z"/><path class="cls-154" d="M15.9,56H6.59a.54.54,0,0,1-.06-.86L6.59,55c.67-.79,1.56-.41,2.37-.44,2,0,4,0,6,0a1.52,1.52,0,0,1,1.1.33A.68.68,0,0,1,15.9,56Z"/><path class="cls-155" d="M6.53,55.1l.06.86c-.76.13-1.07-.17-.92-.94Z"/><path class="cls-156" d="M15.9,56l0-.9.12-.18a.7.7,0,0,1,1,.12.71.71,0,0,1-.2,1l-.46.05Z"/><path class="cls-157" d="M19.73,54.15c-.17,1.24-1.22.77-1.92,1a.63.63,0,0,1-.3-.28,1,1,0,0,1,.11-1c.27-.29.62-.22,1-.22a1.5,1.5,0,0,1,1,.19A.44.44,0,0,1,19.73,54.15Z"/><path class="cls-158" d="M16.85,56l0-.9.1-.16c.31-.24.57-.12.82.12v.1C17.79,55.75,17.44,56,16.85,56Z"/><path class="cls-159" d="M21.53,53.15l-.91.08-.2-.16c-.15-1.12.07-1.3,1.19-1A.69.69,0,0,1,21.53,53.15Z"/><path class="cls-160" d="M21.53,53.15l0-.9.05-.16a.52.52,0,0,1,.75-.09.47.47,0,0,1,.14.29C22.52,53,22.17,53.23,21.53,53.15Z"/><path class="cls-161" d="M20.62,53.23c0,.62-.3.9-.89.92l-.09-.07a.74.74,0,0,1-.23-.91.66.66,0,0,1,.28-.27.82.82,0,0,1,.93.22Z"/><path class="cls-162" d="M23.4,52.21l-.9.08,0-.11a.7.7,0,0,1-.21-.92.68.68,0,0,1,.32-.26.91.91,0,0,1,1,.22A.7.7,0,0,1,23.4,52.21Z"/><path class="cls-163" d="M23.4,52.21l0-.9.09-.16a.57.57,0,0,1,.81.12l.09.09C24.38,52,24,52.27,23.4,52.21Z"/><path class="cls-164" d="M50.57,51.33l0,.9H48.74c-.28-.27-.36-.56-.06-.86l.06-.12a1.26,1.26,0,0,1,1.73-.11Z"/><path class="cls-158" d="M48.68,51.36l.06.86c-.66,0-1-.27-.94-.93Z"/><path class="cls-165" d="M28.13,64.4l0-1.86h0a.72.72,0,0,1,1.07-.09,1.38,1.38,0,0,1-.13,1.92.11.11,0,0,1,0,.11Z"/><path class="cls-166" d="M54.3,53.2l-.91-.07v-.89c.65-1,1.6-.41,2.42-.41s.87.58.83,1.2a1,1,0,0,1-.44,1v.11l-.92-.09C54.93,53.82,54.67,53.46,54.3,53.2Z"/><path class="cls-167" d="M54.3,53.2c.67-.08,1,.2,1,.88h-.92Z"/><path class="cls-168" d="M57.16,55l0-.86a.62.62,0,0,1,1-.13.6.6,0,0,1,0,1l0,.12Z"/><path class="cls-169" d="M58.1,55c0-.72-.35-.91-1-.84l-.92-.08V53.2a3.42,3.42,0,0,1,3.73-.38,12.81,12.81,0,0,0,3.82.82.94.94,0,0,1,.83.31A.78.78,0,0,1,64.41,55l-5.4.06Z"/><path class="cls-170" d="M63.68,54.09c-.77,0-1.55,0-2.32,0-.31,0-.74.06-.9-.12-1.24-1.32-2.81-.67-4.25-.79-.52-1.59-1.81-.86-2.82-1h-.94l-.9-.09c0-.71-.38-.88-1-.83v0c-.26-.57-1.23-.34-1.29-1.13s-.63-1.91.87-2.13c1.23.58,2.64.8,3.65,1.86.66.71,1.07.67,1.67-.12.23-.3.35-.71.83-.73a2.29,2.29,0,0,1,1.61,0c.55,0,.65.44.75.87a.84.84,0,0,0,.79.72.79.79,0,0,0,.85-.77,1.05,1.05,0,0,1,.9-.91,2.3,2.3,0,0,1,1.22.06,1,1,0,0,1,.83.5c.77,1.34.85,1.34,2,.14.43-.46.83-.52,1.25,0l.09,2.57h-.09c-.16.15-.27.39-.53.41A3.41,3.41,0,0,0,63.68,54.09Z"/><path class="cls-171" d="M41.93,12c.76.29,1.1-.05,1.16-.79,0-.54.14-1,.82-1,.41,0,.82,0,1,.45A1.11,1.11,0,0,1,44.43,12a1,1,0,0,0-.42.67,2,2,0,0,0-.38.55c-.52,1.21-.51,1.22-1.73.77C41.58,13.33,41.18,12.65,41.93,12Z"/><path class="cls-172" d="M41.93,12l.26,1.88a.71.71,0,0,1,.09,1,.85.85,0,0,1-1,.14c-.26-.11-.32-.47-.55-.56-1.23-.47-.89-1.39-.7-2.27a.6.6,0,0,1,.34-.24Z"/><path class="cls-173" d="M42.16,14.77c0-.3,0-.61,0-.91.92.08,1-1.17,1.83-1.17,0,.08,0,.16.05.24a1.56,1.56,0,0,1,.23,1.91c-.23.41-.61.42-1,.4a1.32,1.32,0,0,1-1-.28Z"/><path class="cls-174" d="M44,14.78l0-1.85c.84-.17,1,1.05,1.82.91,0,.32,0,.63,0,.94A1.14,1.14,0,0,1,44,14.78Z"/><path class="cls-43" d="M40.31,10.12l.92,0c.31.08.79,0,.8.47s-.45.45-.79.47-.61,0-.92,0C40.32,10.72,40.32,10.42,40.31,10.12Z"/><path class="cls-48" d="M45.92,8.2l.89,0a.61.61,0,0,1,.06.93l-.13,0C46.1,9.16,45.88,8.78,45.92,8.2Z"/><path class="cls-175" d="M39.39,11h.87c0,.31.05.62.07.93l-.1.05c-.95.42-1.09.34-1.17-.71A.63.63,0,0,1,39.39,11Z"/><path class="cls-30" d="M27.18,13.85c.67,0,.93-.43.92-1.06s0-1.07,0-1.6c0-.7.25-1.09,1-1.15l0,.08a.6.6,0,0,1,0,.93l0,1.41a1.74,1.74,0,0,1,0,2.32C28.34,14.64,27.23,15.31,27.18,13.85Z"/><path class="cls-176" d="M30.92,13.82a2.81,2.81,0,0,1,1.83-1.9l.19.08a1,1,0,0,1,.3.92,1.5,1.5,0,0,1-.21.95c-.53.29-.82.84-1.28,1.21a.91.91,0,0,1-1-.22A.77.77,0,0,1,30.92,13.82Z"/><path class="cls-177" d="M34.67,9.16h1a.72.72,0,0,1,.25.87c-.36.42-.92.67-1.16,1.22a1,1,0,0,1-1,.06.65.65,0,0,1-.29-.28.77.77,0,0,1,.23-.94A.9.9,0,0,1,34.67,9.16Z"/><path class="cls-178" d="M29.05,14.78c0-.78,0-1.55,0-2.33.72.18.9.73.94,1.38.25.33.34.65,0,.95Z"/><path class="cls-179" d="M30,10.11l1.89,0c-.13,1.32-1.15.84-1.89.93A.59.59,0,0,1,30,10.11Z"/><path class="cls-180" d="M30,14.78c0-.32,0-.63,0-.95h.91l0,1a.69.69,0,0,1,.08,1,.71.71,0,0,1-1-.08Z"/><path class="cls-181" d="M33.7,10.1l0,.89c-.28.38-.57.29-.87,0C32.79,10.41,33.07,10.09,33.7,10.1Z"/><path class="cls-182" d="M30,10.11V11l-.92,0v-.93Z"/><path class="cls-183" d="M32.8,11l.87,0,.09.06a.71.71,0,0,1,.08,1,.68.68,0,0,1-1-.06l-.08-.09C32.77,11.62,32.79,11.32,32.8,11Z"/><path class="cls-184" d="M25.32,17.59l-1-.05c-.1-1.38-1.17-.75-1.87-.89l-.95-.06,0-1.8c.36,0,.7,0,.92.37.1.16.25.41.37.41a7.16,7.16,0,0,1,3.4,1.07c1.85,0,1.85,0,1.9,1.88.42,1,.35,1.12-.71,1.3-.43-.09-.69-.23-.66-.79,0-.35-.07-.89-.68-.9A1.43,1.43,0,0,1,25.32,17.59Z"/><path class="cls-185" d="M27.22,19.48c.66,0,.9-.37.91-1l.89,0,.19.09a1.15,1.15,0,0,1,.28,1,1.24,1.24,0,0,1-.38,1,.74.74,0,0,1-1-.17l-.93,0C26.85,20.06,26.84,19.76,27.22,19.48Z"/><path class="cls-186" d="M29,18.49c.1-.79-.28-1.79.93-2.08a.66.66,0,0,1,.32.32,2,2,0,0,1-.16,1.89.73.73,0,0,1-1.05-.07Z"/><path class="cls-187" d="M30,16.69,30,16.41c0-.22,0-.45,0-.67l.86-.05a.56.56,0,0,1,.33.23.71.71,0,0,1-.21.93A.68.68,0,0,1,30,16.69Z"/><path class="cls-188" d="M14,21.29l-.89.08c-.54.6-1.27.33-1.92.43-.91,0-1.82,0-2.73,0a1.16,1.16,0,0,1-1-.43l0,0a.55.55,0,0,1,0-.88H14A.52.52,0,0,1,14,21.29Z"/><path class="cls-189" d="M14,21.29v-.85H15v.87Z"/><path class="cls-190" d="M7.53,20.44l0,.88-.93,0C6.51,20.58,6.87,20.35,7.53,20.44Z"/><path class="cls-191" d="M44,17.59H45c.81.81,1.25,1.92,2.19,2.66.36.28.1.88.14,1.34a4,4,0,0,0,0,.85c.11,1-.38,1.29-1.25,1.23a2.38,2.38,0,0,1-1.15-.2c-.52-.37-.36-.91-.39-1.42s-.1-1.22-.78-1.51a2,2,0,0,1-.17-1.1C43.61,18.8,43.4,18.09,44,17.59Z"/><path class="cls-83" d="M46.84,21.34c.15-.83-.62-1.15-1-1.51A2.41,2.41,0,0,1,45,17.59h1.88c.2.68-.56,1.8.89,1.9a.82.82,0,0,0,.94.93c0,.39.08.75.54.9s.43.57.45.94l-1,0c-.65.64-1.13.44-1.39-.36C47.18,21.67,47,21.54,46.84,21.34Z"/><path class="cls-192" d="M44,14.78H45.9a2.74,2.74,0,0,1-2.79,1.87l-.2-.11a1.23,1.23,0,0,1,.18-1.73Z"/><path class="cls-193" d="M47.79,17.56l-.94,0c.1-.73-.4-1.77,1-1.86C47.8,16.35,47.8,17,47.79,17.56Z"/><path class="cls-194" d="M44,17.59l0,1.9a.71.71,0,0,1-1,.11,1.73,1.73,0,0,1-.19-1.78.54.54,0,0,1,.34-.25Z"/><path class="cls-195" d="M43.11,16.65l0,.92-.1,0a.67.67,0,0,1-1,.06.82.82,0,0,1,0-1.11.75.75,0,0,1,1.09.12Z"/><path class="cls-196" d="M58.11,10.12,58,11l-1.79.08a7.43,7.43,0,0,0-1,.88l0,0-1.86-.06a.53.53,0,0,1,0-.86c.66,0,1-.25,1-.94l1.78-.08a6.91,6.91,0,0,0,1-.89v0C57.84,9.08,58.14,9.44,58.11,10.12Z"/><path class="cls-197" d="M53.41,11.07c0,.29,0,.57,0,.86-.64.08-1-.17-1-.84Z"/><path class="cls-198" d="M12.18,13.85c0,.3,0,.59.05.89-.62,0-1,.29-1,.95-.8,0-1-.51-.94-1.17s.64-.66,1.15-.68C11.71,13.83,11.94,13.85,12.18,13.85Z"/><path class="cls-199" d="M38.46,10c.64,0,.89.4.93,1l-.11,0a.71.71,0,0,1-1,.19.67.67,0,0,1-.18-1A.59.59,0,0,1,38.46,10Z"/><path class="cls-200" d="M37.5,9.09c.58.06.94.33,1,.95l-.1.11a.66.66,0,1,1-.89-1A.2.2,0,0,1,37.5,9.09Z"/><path class="cls-201" d="M18.78,10.06h1.85l.89.06a.73.73,0,0,1-.68.93l-2.11,0L16.89,11c-.35-.27-.64-.6-1-.89h0c.06-1.45,1.2-.75,1.89-.95l0,0C18.14,9.45,18.4,9.82,18.78,10.06Z"/><path class="cls-202" d="M67.41,20.44l0,.88v0c-.33.3-.62.63-1,.91l0,0a1.05,1.05,0,0,1-.89.45l-1.07,0c-.59-.06-1.19.06-1.79,0a1.14,1.14,0,0,1-.95-.4l-1.87,0,0,0a2.82,2.82,0,0,0-1.12-.71.81.81,0,0,1-.16-.32c-.1-.37.1-.58.36-.78l0-.07h4Z"/><path class="cls-203" d="M61.8,14.73c0-.29,0-.58.05-.86h.94l0,.88Z"/><path class="cls-204" d="M37.47,9.2l0,.88c-.11.41-.42.49-.78.47a1.37,1.37,0,0,1-.93-.2.61.61,0,0,1-.19-.33c0-.28,0-.56,0-.85Z"/><path class="cls-205" d="M15.93,10.1a.8.8,0,0,1,1,.89H16Z"/><path class="cls-206" d="M18.78,10.06a.8.8,0,0,1-1-.89l.93,0Z"/><path class="cls-207" d="M55.26,12c0-.68.34-1,1-.88l-.06.88Z"/><path class="cls-208" d="M57.14,9.16c0,.66-.31,1-1,.89l.07-.86Z"/><path class="cls-209" d="M46.87,9.15l-.06-.93.94,0,0,.91Z"/><path class="cls-210" d="M13.1,26.91H15L15,27a.66.66,0,0,1,0,1.06,7.06,7.06,0,0,1-2.89.24c-1.33.05-2.65,0-4,.08a1.85,1.85,0,0,1-1.58-.47v-.11c-.32-.29-.25-.56,0-.83Z"/><path class="cls-211" d="M6.59,27l0,.83-.92.09C5.58,27.22,5.89,26.9,6.59,27Z"/><path class="cls-212" d="M8.41,21.35h2.87a.56.56,0,0,1,0,.87l-2.77,0A.58.58,0,0,1,8.41,21.35Z"/><path class="cls-213" d="M11.23,22.23c0-.29,0-.58,0-.87h1.87c0,.29,0,.57-.05.86Z"/><path class="cls-113" d="M8.41,21.35l.05.9-.92,0c0-.29,0-.59,0-.88Z"/><path class="cls-214" d="M25.29,24.16v.94a.7.7,0,0,1-1,.09.66.66,0,0,1,.08-1l0-.11Z"/><path class="cls-215" d="M25.32,20.42h.92l.15.1a.57.57,0,0,1-.16.82h0C25.57,21.4,25.23,21.12,25.32,20.42Z"/><path class="cls-216" d="M24.4,26.06l0,.9h0a1.84,1.84,0,0,1-1.74.51,16.83,16.83,0,0,1-1.74,0c-.68-.21-.81.58-1.29.74a1.2,1.2,0,0,1-.93,0c-.26-.55-.83-.81-1.17-1.29a.79.79,0,0,1,.32-.92l.89-.07c.65.09,1-.15,1-.85l.94,0a1.25,1.25,0,0,0,1.21.44c.78.11,1.59-.2,2.34.19A.51.51,0,0,1,24.4,26.06Z"/><path class="cls-217" d="M21.55,25c-.13-.75.37-.88.93-.94l0,.1a.73.73,0,0,1,.22,1,.65.65,0,0,1-.93.22A.63.63,0,0,1,21.55,25Z"/><path class="cls-218" d="M21.58,26c-.65.08-1-.18-.95-.86l.92-.09v.11A.53.53,0,0,1,21.58,26Z"/><path class="cls-219" d="M17.82,26.05l0,.87c-.16.37-.43.4-.77.26a.44.44,0,0,1-.19-.3l.06-.84Z"/><path class="cls-220" d="M15,27.87c0-.28,0-.57,0-.85l1.81-.14.06.11a.72.72,0,0,1,.27.87.62.62,0,0,1-.25.3,1.84,1.84,0,0,1-.95.18,1,1,0,0,1-.89-.29Z"/><path class="cls-221" d="M27.22,19.48c0,.3,0,.6,0,.9h0a.6.6,0,0,1-.92,0v0l0-1.86a.62.62,0,0,1,.05-.94C27.79,17.62,27,18.82,27.22,19.48Z"/><path class="cls-222" d="M26.26,17.61l-.05.94-.86-.06,0-.9Z"/><path class="cls-223" d="M22.47,25l0-.86h1.84l.05.85a2.12,2.12,0,0,1-.11.21C23.62,25.62,23,25.81,22.47,25Z"/><path class="cls-224" d="M67.41,28.81v.94c-.66.59-.33,1.4-.42,2.11s.11,1.2-.44,1.64h-.08a.77.77,0,0,1-.8.38.58.58,0,0,1-.35-.27c-.62-1.09-.62-1.09-1.54-.2a.77.77,0,0,1-1.07.16,3.78,3.78,0,0,1-.79-1.9c-.3-.87.41-1.41.67-2.11a.64.64,0,0,1,.88,0c.19.17.36.36.54.53-.18-.18-.37-.36-.54-.56a.74.74,0,0,1,.18-1,7.85,7.85,0,0,1,2.73-.16A1.09,1.09,0,0,1,67.41,28.81Z"/><path class="cls-225" d="M58.08,26.89l8.4.11a.7.7,0,0,1,.24,1,.89.89,0,0,1-.38.26,35,35,0,0,1-4.58.14c-1.26-.09-2.55.23-3.79-.27a.75.75,0,0,1,.11-1.1Z"/><path class="cls-226" d="M66.54,33.5l0-1.86a.57.57,0,0,1,.88,0c0,.64,0,1.28,0,1.92Z"/><path class="cls-227" d="M67.4,31.61l-.88,0c.1-.72-.4-1.72.88-1.89Z"/><path class="cls-228" d="M67.41,28.81h-.93a.56.56,0,0,1,0-.87.49.49,0,0,1,0-.11.6.6,0,0,1,.9.08Z"/><path class="cls-229" d="M67.42,27.91l-.9-.08,0-.83C67.17,26.92,67.48,27.23,67.42,27.91Z"/><path class="cls-230" d="M46.84,21.34c.36.05.79,0,.92.46s.52.48.9.51c0,.61,0,1.22.05,1.83l-.05.16c-.39.22-.51.62-.71,1a1.09,1.09,0,0,1-.35.15,2.74,2.74,0,0,1-1.72-.09A.77.77,0,0,1,45.6,25c-.17-.64-.29-1.28.3-1.79C47.21,23.09,46.72,22.06,46.84,21.34Z"/><path class="cls-231" d="M53.39,25.13c0,.69.33.94,1,.84l.89.08a.77.77,0,0,1,.33.87c-.16.6-1,.58-1.1,1.26a.88.88,0,0,1-.91.07,1,1,0,0,1-.34-.14,1,1,0,0,0-1.15-.64A2,2,0,0,1,50.37,27c-.39-.77-.28-1.3.66-1.45.52,0,1,.06,1.42-.44Z"/><path class="cls-232" d="M48.71,24.14h1.88a.82.82,0,0,1,.22,1c-.23.39-.61.38-1,.36a2.23,2.23,0,0,1-1.06-.16.72.72,0,0,1-.31-.29.75.75,0,0,1,.27-.94Z"/><path class="cls-217" d="M50.61,25l0-.9c.62,0,1,.2.93.88l-.09.18C51.1,25.41,50.82,25.42,50.61,25Z"/><path class="cls-233" d="M52.45,25.11c0,.69-.31.94-1,.87a.52.52,0,0,1,0-.85V25Z"/><path class="cls-234" d="M59,20.44l0,.9c-.3.37-.63.27-1,0l-1.85-.08c0-.65.37-.9,1-.89Z"/><path class="cls-235" d="M57.12,26.07l0,.83-.06.19a.72.72,0,0,1-.9.13.66.66,0,0,1-.27-.28.75.75,0,0,1,.26-.89Z"/><path class="cls-236" d="M56.18,26.05l0,.9a.53.53,0,0,1-.92,0l0-.87Z"/><path class="cls-237" d="M65.59,22.29l.92,0-.06.9h-.9A.57.57,0,0,1,65.59,22.29Z"/><path class="cls-238" d="M65.59,22.29c0,.3,0,.6,0,.89l-.9.11s0-.08,0-.12a.54.54,0,0,1,0-.87Z"/><path class="cls-239" d="M58.05,21.37l1,0h0a.57.57,0,0,1,0,.89h-.93Z"/><path class="cls-189" d="M59,22.24l0-.89c.65-.05,1,.26,1,.9Z"/><path class="cls-240" d="M61.81,22.31l.93,0c.27.27.36.55,0,.85l0,.1-.92-.08C61.83,22.88,61.82,22.59,61.81,22.31Z"/><path class="cls-241" d="M62.79,23.14c0-.29,0-.57,0-.85h1.93c0,.29,0,.58,0,.87Z"/><path class="cls-240" d="M66.49,22.25c0-.7.27-1,1-.91l0,.9Z"/><path class="cls-242" d="M58.08,27v.85c-.27.44-.62.42-1,.21a.65.65,0,0,1,.05-1s0-.08,0-.12Z"/><path class="cls-243" d="M66.53,39.12l-.07,4.71c-.42.51-.87.52-1.22,0-.45-.74-.83-.5-1.33,0a2.4,2.4,0,0,1-3.58-.4c-.57-.76-1.23-.85-1.66-.06-.62,1.14-1.5,1.1-2.53.86-.51-.22-.33-1.14-1.11-1.07-.77-.49-1.08.16-1.49.59a1.83,1.83,0,0,1-1.24.54A3.42,3.42,0,0,1,50.43,44c-.36-.27-.3-.67-.31-1a3,3,0,0,1,.12-1,8.31,8.31,0,0,0,2.13-3.15.63.63,0,0,1,.83.11l.8.81c-.24-.26-.5-.5-.75-.76a.68.68,0,0,1-.22-.79c.87-.54,1.84-1,1.74-2.29a10.26,10.26,0,0,1,.92-1.34,1.8,1.8,0,0,1,2.73,0,2.07,2.07,0,0,1,0,1.62c0,.1-.08.25-.17.28A2.37,2.37,0,0,0,56.7,39c.14,1.38.23,1.47,1.45,1.56a2.93,2.93,0,0,0,2.79-1.72,3,3,0,0,1,1.74-.18,2,2,0,0,1,.91.15c1,1.13,1,1.13,2.09,0a.71.71,0,0,1,.81.32Z"/><path class="cls-244" d="M56.2,43.82c.95,0,1.86.14,2-1.29.08-.83,1-.55,1.57-.58s1.06.09,1.09.76c0,.86.5,1.13,1.29,1.11s1.5-.08,1.57-1.11c0-.59.45-.77,1-.75a.8.8,0,0,1,.88.87c0,.59.26,1,.89,1,0,1.56,0,3.11,0,4.67-.92.47-1.26.33-1.41-.6a3.57,3.57,0,0,1,0-.8.86.86,0,0,0,0-.23c0-.51.11-1.35-.4-1.39s-.42.81-.56,1.29c-.37,1-.58,2-1.59,2.63H61.13c-1.24-.6-.77-1.61-.63-2.54a2,2,0,0,1,.13-.34.52.52,0,0,1,.26-.22c.34-.1.74-.21.73-.62s-.47-.53-.86-.59c-1-1-2-.44-3,.07-.89.09-1.73.87-2.67.19C54.81,44.33,55,44.13,56.2,43.82Z"/><path class="cls-245" d="M65.57,46.6c.13.72-.38,1.73.9,1.9,0,.31,0,.61.08.92l-.08.25c-.32,0-.69.12-.74.46-.18,1-.79,1.25-1.74,1.18s-1.18-.82-1.33-1.59a1.48,1.48,0,0,0-.14-.32,7.61,7.61,0,0,1,1.18-2.8A1.16,1.16,0,0,1,65.57,46.6Z"/><path class="cls-246" d="M58.1,34.69c-.88-.36-1.66-.49-2,.7-.16.47-.76.53-1,.9a.55.55,0,0,1-.77.17,1.22,1.22,0,0,1-.38-1,6.29,6.29,0,0,1,.87-3.74,2.82,2.82,0,0,0-1.63-3,.65.65,0,0,1,.28-.87l1,0c.56-.6,1.22-.44,1.89-.27.4.17.44.53.48.89s.23.85.8.85a1,1,0,0,1,.85.46c.21.53.4,1.06,0,1.57-.28.31-.59.59-.87.89.27-.27.54-.56.82-.83a2.58,2.58,0,0,1,2.37-.18,2.19,2.19,0,0,1,.33.12c.44.78.8,1.64,1.79,1.91l.91-.25c.68,0,1.39-.22,1.88.48h.9l0,.94c-.22.22-.4.49-.76.46-.76-.08-1.33.46-2,.61a1.79,1.79,0,0,1-.86,0c-.71-.12-1.34-.62-2.12-.42C59.83,35.1,58.9,35.32,58.1,34.69Z"/><path class="cls-247" d="M65.58,34.44h.91v4.69h-.92l-.18-.08a5.22,5.22,0,0,1-.66-2.76A3,3,0,0,1,65.58,34.44Z"/><path class="cls-248" d="M6.61,42l0-11.27a.7.7,0,0,1,1-.11,1.46,1.46,0,0,1,.37,1,13.7,13.7,0,0,1,0,2.79,11.8,11.8,0,0,1,0,1.88v1a12.83,12.83,0,0,1,0,1.86,11,11,0,0,1,0,1.9,1.46,1.46,0,0,1-.37,1A.68.68,0,0,1,6.61,42Z"/><path class="cls-249" d="M7.51,30.7l-.92,0V27.93L15,27.87l0,.07A.71.71,0,0,1,15.12,29c-.88.5-1.85.17-2.77.27s-1.74,0-2.62,0c-.46,0-.91,0-1.08.58-.33.26-.78.36-1,.77Z"/><path class="cls-250" d="M6.61,42h.87l.19.08c.52.53.33,1.19.36,1.81a15.33,15.33,0,0,1,0,2.71v1a11.31,11.31,0,0,1,0,1.84,9.64,9.64,0,0,1,0,1.86,3.77,3.77,0,0,1-.16,1,.67.67,0,0,1-1.22.16Z"/><path class="cls-251" d="M6.61,52.49h.86a1.91,1.91,0,0,1,1.76,1.67A.74.74,0,0,1,8.9,55H6.59Z"/><path class="cls-252" d="M36.58,53.13H32.76A1.28,1.28,0,0,1,32.33,52c0-6.38,0-12.77,0-19.15a3.21,3.21,0,0,1,.22-1.34c.31-.37.75-.27,1.15-.3,1,.11,2-.26,2.87.29.64.83.42,1.81.42,2.73-.05,5.94,0,11.88,0,17.82A1.33,1.33,0,0,1,36.58,53.13Z"/><path class="cls-253" d="M42.2,53.14h-2c-.84-.94-.42-2.1-.42-3.12,0-5.77,0-11.54,0-17.31,0-.44-.07-.92.31-1.28a2.18,2.18,0,0,1,2.13,0c.62.61.36,1.4.36,2.11,0,6.16,0,12.33,0,18.49A1.32,1.32,0,0,1,42.2,53.14Z"/><path class="cls-254" d="M32.81,31.68q0,10.73-.05,21.44l-1.86,0v-.93c0-.06.07-.13.11-.2.66-.76.33-1.68.35-2.53.08-5.58-.05-11.16.06-16.74a1.84,1.84,0,0,1,.35-1.28C32.18,31.27,32.54,31.25,32.81,31.68Z"/><path class="cls-255" d="M44,30.69a.85.85,0,0,1,.92,1q0,10.23,0,20.47c0,.66-.28,1-1,1-.89-1-.46-2.27-.44-3.34.09-5.92-.07-11.83,0-17.75C43.59,31.53,43.51,31,44,30.69Z"/><path class="cls-256" d="M44,30.69,44,53.14l-.84,0c-.75-.53-.47-1.3-.47-2-.06-6.41-.09-12.82,0-19.23a2.32,2.32,0,0,1,.27-1.32.79.79,0,0,1,1.1.12Z"/><path class="cls-257" d="M43.1,30.7q0,11.22,0,22.42l-.94,0q0-10.74-.07-21.49c-.25-.33-.36-.69,0-1A.63.63,0,0,1,43.1,30.7Z"/><path class="cls-258" d="M40.34,31.65l-.06,16.24c0,1.75,0,3.5-.05,5.25h-.91a1.11,1.11,0,0,1-.44-1,13.16,13.16,0,0,1-.12-2q0-8.61,0-17.21a4.89,4.89,0,0,1,.28-2.18.8.8,0,0,1,.34-.34C40.55,30.35,40.72,30.56,40.34,31.65Z"/><path class="cls-259" d="M36.58,53.13q0-10.73-.07-21.46l.12-.2c.86-.47,1.23,0,1.36.76a6.17,6.17,0,0,1,.06,1.05q0,8.67,0,17.33a11.1,11.1,0,0,1-.11,1.52,1.07,1.07,0,0,1-.46,1Z"/><path class="cls-260" d="M32.11,29.72l0-.84c.33-.76,1-.49,1.57-.55a22.43,22.43,0,0,1,2.84,0,16.58,16.58,0,0,1,2.73,0l1,0h1l1,0a6.2,6.2,0,0,1,1.72,0,1.34,1.34,0,0,1,.89.22.55.55,0,0,1,.18.32.82.82,0,0,1-.92.88c-.88.78-2,.39-3,.54a9.57,9.57,0,0,1-1.77-.07q-3,0-5.91,0C33,30.24,32.37,30.33,32.11,29.72Z"/><path class="cls-261" d="M39.37,29.76h4.69c0,.31,0,.62,0,.92H43.1c-.65,0-.94.33-1,.95H40.34c0-.59-.19-1-.89-1C39,30.38,39.12,30.08,39.37,29.76Z"/><path class="cls-262" d="M30.89,55c0-.29,0-.58,0-.87h6.56a.69.69,0,0,1,.13,1,1.48,1.48,0,0,1-1.09.35c-1,0-2,0-3,0a8.29,8.29,0,0,1-2.38-.17A.61.61,0,0,1,30.89,55Z"/><path class="cls-263" d="M45.93,28.59a1.78,1.78,0,0,1-1,.3l0-.1c-.77-1.23-.5-2.51-.19-3.8a.79.79,0,0,1,1.14.08l0,0a1.12,1.12,0,0,1,.41,1C46.28,27,46.64,27.86,45.93,28.59Z"/><path class="cls-264" d="M44,54.12l.06.86a.51.51,0,0,1-.22.33,1.69,1.69,0,0,1-1,.23,3.67,3.67,0,0,1-2.73-.38.68.68,0,0,1,.11-1Z"/><path class="cls-265" d="M45.93,28.59V26c.33-.29.64-.34.91.09,0,.75,0,1.51,0,2.26Z"/><path class="cls-266" d="M37.46,55v-.85h1.87a.7.7,0,0,1,.29.89.65.65,0,0,1-.28.29,2.15,2.15,0,0,1-1.67,0A.53.53,0,0,1,37.46,55Z"/><path class="cls-267" d="M37.48,53.14l0-.92a1.08,1.08,0,0,1,1.8,0l0,.92Z"/><path class="cls-268" d="M39.41,55l-.08-.85h.94l.06.85a.43.43,0,0,1-.2.29C39.8,55.41,39.53,55.39,39.41,55Z"/><path class="cls-269" d="M30,52.23h-.87q0-9-.05-18c0-.86,0-1.71,0-2.57a.8.8,0,1,1,1.07-1.19,1.65,1.65,0,0,1,.36,1.13c0,6.45,0,12.9,0,19.35a1.7,1.7,0,0,1-.43,1.3Z"/><path class="cls-270" d="M29.06,30.72l0,.94-.85,0-.05-.92h0C28.44,30.43,28.75,30.35,29.06,30.72Z"/><path class="cls-271" d="M30.89,57.89h6.57a.77.77,0,0,1,.2,1.07c-.3.37-.72.28-1.12.3h-2.9c-.93-.09-1.89.21-2.77-.28A.71.71,0,0,1,30.89,57.89Z"/><path class="cls-272" d="M40.33,55l2.74.06a1.09,1.09,0,0,1,0,1.81H40.25a1.15,1.15,0,0,1,0-1.81Z"/><path class="cls-273" d="M39.34,57.88H44a.73.73,0,0,1,.17,1,1.36,1.36,0,0,1-1,.38c-.36,0-.71,0-1.07,0a9.37,9.37,0,0,1-1.91,0,1.39,1.39,0,0,1-1-.38A.7.7,0,0,1,39.34,57.88Z"/><path class="cls-274" d="M35.66,56.87l-4.75,0a.72.72,0,0,1-.22-1,.69.69,0,0,1,.34-.27,10.47,10.47,0,0,1,2.56-.15c.71.12,1.47-.22,2.13.26A.76.76,0,0,1,35.66,56.87Z"/><path class="cls-275" d="M30.89,57.89l.06.85a.5.5,0,0,1-.18.31,1.24,1.24,0,0,1-.86.21c-.32,0-.63,0-.95,0a.91.91,0,0,1-.81-.44l-.1-.05c0-.29.06-.58.08-.87Z"/><path class="cls-276" d="M29,55.07H30a.92.92,0,0,1,.41.91.89.89,0,0,1-.4.9H29a.92.92,0,0,1-.41-.9A.94.94,0,0,1,29,55.07Z"/><path class="cls-277" d="M39.34,57.88l.06.85a.56.56,0,0,1-.25.35c-.63.23-1.27.53-1.69-.33v-.86Z"/><path class="cls-278" d="M39.34,56.88H37.43a.73.73,0,0,1-.17-1,.83.83,0,0,1,.35-.26,2.27,2.27,0,0,1,1.87.18A.7.7,0,0,1,39.34,56.88Z"/><path class="cls-279" d="M37.41,56.05c0,.28,0,.56,0,.84l-1.77,0c0-.3,0-.59-.07-.89.18-.44.55-.45.94-.42S37.28,55.59,37.41,56.05Z"/><path class="cls-280" d="M44.94,56.9l-.67.06L44,56.88a1.16,1.16,0,0,1,0-1.82L44.1,55C45.38,55.19,44.85,56.18,44.94,56.9Z"/><path class="cls-281" d="M44,55.06c0,.61,0,1.21,0,1.82h-.92c0-.6,0-1.21,0-1.81Z"/><path class="cls-282" d="M39.34,56.88l0-.92a.57.57,0,0,1,0-.88l.09-.08.87.06,0,1.81Z"/><path class="cls-283" d="M29,56c0,.29,0,.58,0,.87l-.91,0c0-.3-.05-.6-.07-.89l.09,0A.54.54,0,0,1,29,56Z"/><path class="cls-284" d="M30,56.88,30,56c.31-.29.61-.36.92,0,0,.3,0,.6,0,.89Z"/><path class="cls-285" d="M44,58.79v-.91l.25,0,.68,0c0,.31,0,.63,0,.94a.58.58,0,0,1-.82.14Z"/><path class="cls-224" d="M19.67,27.88c.06-.59.31-1,1-.87.91.9.91.9,1.83,0l1.9,0c0,1.64-.5,2.4-1.86,2.81-.55.58-1.48.89-1.4,1.93,0,.69-.14,1.42.43,2a.8.8,0,0,1-.09,1,1,1,0,0,1-.85.17,1.81,1.81,0,0,1-1.47-1.77,12.54,12.54,0,0,1,0-1.37,13.69,13.69,0,0,1,.08-2.86A1.15,1.15,0,0,1,19.67,27.88Z"/><path class="cls-286" d="M20.62,31.66c0-1.9,0-1.9,1.89-1.89,0,.61,0,1.22-.05,1.83C21.87,32.33,21.26,32.23,20.62,31.66Z"/><path class="cls-287" d="M22.54,34.38a2.7,2.7,0,0,1,1.85,1.92l-.09,0c-.56.62-1.23.45-1.9.24a1.75,1.75,0,0,1-.21-1.93A.67.67,0,0,1,22.54,34.38Z"/><path class="cls-288" d="M20.62,31.66l1.84-.06c.21.86-1,1-.89,1.88a.17.17,0,0,1-.26.05C20.25,33.21,20.75,32.32,20.62,31.66Z"/><path class="cls-289" d="M21.31,33.53l.26-.05a.87.87,0,0,1,1,.9l-.09.11c-.4.35-.78.45-1.13-.07Z"/><path class="cls-290" d="M28.1,20.4H29l.2.08a1.05,1.05,0,0,1,.3,1,1.26,1.26,0,0,1-.36,1,.71.71,0,0,1-1-.15Z"/><path class="cls-291" d="M28.13,22.28H29l.2.08a1.09,1.09,0,0,1,.3,1c0,.37.06.76-.3,1a.78.78,0,0,1-1-.18l-.1-.05a.68.68,0,0,1,0-1Z"/><path class="cls-292" d="M27.21,24.18l-.07.92c-.61,0-.91-.31-.89-.94s.31-.92.92-.92A.62.62,0,0,1,27.21,24.18Z"/><path class="cls-293" d="M27.21,24.18c0-.31,0-.63,0-.94l.9-.08c0,.32,0,.64,0,1Z"/><path class="cls-294" d="M26.23,20.39l.92,0c.05.67-.26,1-.92,1Z"/><path class="cls-295" d="M24.39,25l.89.06,0,.92-.86,0L24.32,26a.54.54,0,0,1,0-.84Z"/><path class="cls-296" d="M33.72,28.79l-1.64.09-.29-.09a.79.79,0,0,1-.27-.93c.85-.44.86-1.21.8-2,0-.57,0-1.14,0-1.71a3.11,3.11,0,0,1,.11-1c.94-.41.86-1.23.83-2s-.14-1.32.41-1.84a1,1,0,0,1,1.09,0c.54.38.45,1,.47,1.49,0,1.6,0,3.2,0,4.79A3.13,3.13,0,0,1,33.72,28.79Z"/><path class="cls-297" d="M39.37,29.76c0,.29.05.58.08.87l-.11.07c-.82.92-1.88.37-2.83.47h-2.8c-.65-.07-1.33.11-1.93-.3a.71.71,0,0,1,0-1.06l.3-.09Z"/><path class="cls-298" d="M29,24.13l.08-.9c1-.42,1.18-.29,1.32.66.09.7,0,1.39,0,2.08-.18.93.42,2-.49,2.81h-.91c-.82-.81-.34-1.84-.47-2.77C28.66,25.37,28.44,24.66,29,24.13Z"/><path class="cls-299" d="M31.81,29.81l.07.83-.07.2a1,1,0,0,1-.94.29,1,1,0,0,1-.9-.41H28.12c0-.31,0-.61,0-.92Z"/><path class="cls-300" d="M31.86,27.9c0,.3-.05.6-.07.89h-.93c-.7-.79-.34-1.7-.28-2.57a1,1,0,0,1,.23-.39,1,1,0,0,1,1.06-.06.79.79,0,0,1,.29.34A1.58,1.58,0,0,1,31.86,27.9Z"/><path class="cls-301" d="M30.92,26l-.06,2.77H30c0-.91,0-1.83,0-2.74C30.3,25.76,30.6,25.66,30.92,26Z"/><path class="cls-302" d="M29,26l0,2.78h-.93l0-2.76A.53.53,0,0,1,29,26Z"/><path class="cls-303" d="M29,26l-.86,0c0-.62,0-1.24,0-1.85l.85-.05Z"/><path class="cls-304" d="M24.32,37.28v1.83c-.71,0-.92.46-.91,1.09,0,1.21,0,2.41,0,3.62h0a1.2,1.2,0,0,1-.93.44,5.26,5.26,0,0,1-2.78-.22c-.1-.11-.26-.18-.31-.32-.37-.95-.92-.74-1.52-.23a2.82,2.82,0,0,1-2.19.81c-.58-.05-1.1-.11-1.33-.81-.33-1-1.42-.91-2.18-1.27a.57.57,0,0,1-.29-.28,1.28,1.28,0,0,1,0-1,.89.89,0,0,1,.67-.4,3,3,0,0,0,2.4-1.7,3.88,3.88,0,0,0,2.47-1.75c.19-.39,2-.51,2.33-.19a1.51,1.51,0,0,1,.17,1.9c-.28.29-.57.59-1,1,.42-.37.66-.65.93-.9.89-.49,1.92-.73,2.34-1.88C22.39,36.56,23.69,36.76,24.32,37.28Z"/><path class="cls-305" d="M19.68,39.13c0-.39,0-.77,0-1.16a.69.69,0,0,0-.67-.68c-.39,0-.91-.1-1,.33-.42,1.68-1.72,1.5-3,1.5l-.16,0a1.88,1.88,0,0,1-.27-.36c-.79-1.07-1.39-1-2,.15a2.65,2.65,0,0,1-.18.42.75.75,0,0,1-.31.18,2.21,2.21,0,0,1-1.48,0c-.76.12-.7-1-1.4-1a9.17,9.17,0,0,1-1.66-1.32v-.92c.88-.93.88-.93,0-1.86V31.66a.9.9,0,0,1,.91-.46c1-.2,1.46.28,1.38,1.27a1.69,1.69,0,0,0,.74,1.58c.2,1,.52,1.79,1.72,1.79.28,0,.57,0,.85,0H14c.29,0,.58,0,.87,0,1.11,0,1.51-.74,1.65-1.7a2.19,2.19,0,0,0,.81-1.83c0-.38,0-.79.44-1a1.55,1.55,0,0,1,1.88.28c.14,1-.4,2.24.95,2.85a11.47,11.47,0,0,0,1.89,1.86l1.78,0c0,.32,0,.63,0,.94-1-.09-1.88-.11-1.92,1.28,0,.46-.48.54-.88.55-.62,0-1.23,0-1.84,0Z"/><path class="cls-306" d="M29.05,62.55h-.93c-.06-.65.27-1,.89-1a.44.44,0,0,1,.29.16.57.57,0,0,1-.09.78Z"/><path class="cls-307" d="M28.13,60.65c0-.3,0-.59-.07-.89l.09,0a.74.74,0,0,1,1-.21.67.67,0,0,1,.22,1,.61.61,0,0,1-.33.26Z"/><path class="cls-308" d="M29,61.54v-.82l0-.09a.72.72,0,0,1,1-.14.88.88,0,0,1,.25,1,.73.73,0,0,1-.26.34.76.76,0,0,1-1-.19Z"/><path class="cls-309" d="M23.43,51.31H22.5c-.61-1.05-1.81-1.2-2.73-1.79-.25-.23-.47-.49-.85-.83.43.41.73.7,1,1,.34.71.51,1.44-.23,2a2.09,2.09,0,0,1-2.48-.6c-.51-.9-1.41-1-2.25-1.31a7.77,7.77,0,0,1-1.38-3.36,2.22,2.22,0,0,1,.5-.64c.39-.45.25-1.34,1-1.41a4.12,4.12,0,0,1,2.72.3,2.87,2.87,0,0,0,2.58,1.57c.09,0,.23-.09.3,0,.67,1.18,1.82.79,2.83.87.38,0,.57.23.79.46h0l0,2.79h0l-.94.94Z"/><path class="cls-310" d="M29,56l-.87,0c0-.3,0-.61,0-.91H29C29,55.38,29,55.69,29,56Z"/><path class="cls-311" d="M30.93,56H30l0-.93.91-.06.06.05a.63.63,0,0,1,0,.93Z"/><path class="cls-312" d="M22.56,43.83h.89v2.75l-.12.21c-1.41.59-2,.35-2.17-.83A4.18,4.18,0,0,1,22.56,43.83Z"/><path class="cls-313" d="M24.35,47.57l-.89,0a.53.53,0,0,1-.05-.86l0-.09.9.08C24.34,47,24.35,47.27,24.35,47.57Z"/><path class="cls-314" d="M29,59.75l-.87,0v-.9l.89,0C29.34,59.14,29.39,59.45,29,59.75Z"/><path class="cls-315" d="M30,52.25l0-20.59a.68.68,0,0,1,1.05-.11,4.11,4.11,0,0,1,.3,2.49c0,5.69.05,11.37,0,17.06A1.49,1.49,0,0,1,31,52.26l0,0Z"/><path class="cls-316" d="M23.42,51.3c0-.65.29-1,.94-.94l0,.91Z"/><path class="cls-317" d="M47.82,41V35.41a.69.69,0,0,1,1.06-.1c.57,1.23.21,2.55.31,3.82-.09.66.16,1.37-.27,2A.72.72,0,0,1,47.82,41Z"/><path class="cls-318" d="M47.81,28.79,47.72,26a.65.65,0,0,1,.05-.94h0a.56.56,0,0,1,.89,0l.1.07c.65.84.37,1.81.39,2.74a1.46,1.46,0,0,1-.36,1.07A.67.67,0,0,1,47.81,28.79Z"/><path class="cls-319" d="M48.66,45.69V43.83a.74.74,0,0,1,.16-1.28.79.79,0,0,1,1.05.26,4.11,4.11,0,0,1,0,2.79A.79.79,0,0,1,49,46,.63.63,0,0,1,48.66,45.69Z"/><path class="cls-320" d="M47.77,25.09l-.05.94-.87.07L45.94,26V25.1Z"/><path class="cls-237" d="M49.6,31.68c-1.29-.13-.76-1.19-1-1.88a.59.59,0,0,1,.26-.32.86.86,0,0,1,1,.16A2.06,2.06,0,0,1,50,31.42.62.62,0,0,1,49.6,31.68Z"/><path class="cls-321" d="M48.72,35.38l-.91,0v-.94a.7.7,0,0,1,1-.2.71.71,0,0,1,.13,1Z"/><path class="cls-322" d="M49.57,32.55l0-.87.1-.09a.73.73,0,0,1,1-.09,1.05,1.05,0,0,1,.15,1.09.86.86,0,0,1-1,.27A.62.62,0,0,1,49.57,32.55Z"/><path class="cls-323" d="M48.66,33.48c.05-.56.27-.95.91-.93l.13,0a.75.75,0,0,1,.16,1,.74.74,0,0,1-.93.24A.55.55,0,0,1,48.66,33.48Z"/><path class="cls-324" d="M48.71,34.44l-.91,0a.82.82,0,0,1,.86-1l.09.05a.57.57,0,0,1,.12.82Z"/><path class="cls-74" d="M47.8,46.65c0-.62.2-1,.86-1h.11a.8.8,0,0,1,.22.92.61.61,0,0,1-.28.29A.75.75,0,0,1,47.8,46.65Z"/><path class="cls-325" d="M47.8,46.65l.92,0a.54.54,0,0,1,0,.92l-.88,0Z"/><path class="cls-326" d="M47.81,28.79l.91,0,.16.1a.58.58,0,0,1-.13.82l-.11.06C48,29.8,47.74,29.42,47.81,28.79Z"/><path class="cls-327" d="M47.82,41l.88,0a.66.66,0,0,1,.15,1,.7.7,0,0,1-1-.12Z"/><path class="cls-328" d="M47.81,41.92l.88,0a.53.53,0,0,1,.07.88l-.09.09a.55.55,0,0,1-.87-.08Z"/><path class="cls-329" d="M47.8,42.84l.87.08v.91C48,43.82,47.75,43.47,47.8,42.84Z"/><path class="cls-330" d="M40.29,58.81h1.88a1.14,1.14,0,0,1,0,1.8H40.24A1.15,1.15,0,0,1,40.29,58.81Z"/><path class="cls-331" d="M37.44,62.47l-.89.09,0-.06a.85.85,0,0,1-.32-.91,2.42,2.42,0,0,1,.44-1.13,1.08,1.08,0,0,1,.75-.26c.59,0,1.21-.21,1.76.19a.53.53,0,0,1,.21.33l0,.9C38.87,62.27,38,62,37.44,62.47Z"/><path class="cls-332" d="M40.29,58.81c0,.6,0,1.21,0,1.81l-.89.1,0-.1a1.07,1.07,0,0,1,0-1.79l.06-.1Z"/><path class="cls-333" d="M42.18,60.62c0-.6,0-1.2,0-1.8h.92a1.13,1.13,0,0,1,0,1.82Z"/><path class="cls-334" d="M43.1,60.63c0-.61,0-1.21,0-1.82l.94,0h0a1.14,1.14,0,0,1,0,1.83Z"/><path class="cls-335" d="M44,60.63c0-.61,0-1.22,0-1.83H45c0,.62,0,1.24,0,1.86l-.22,0Z"/><path class="cls-336" d="M37.44,62.47c.18-1.29,1.19-.73,1.89-.85,0,.3.07.6.1.9l-.12,0a1.15,1.15,0,0,1-1.82,0A1.17,1.17,0,0,0,37.44,62.47Z"/><path class="cls-337" d="M44,64.41l0-1.88a.84.84,0,0,1,.91,1C45,64.12,44.63,64.4,44,64.41Z"/><path class="cls-338" d="M36.53,61.6c0,.3,0,.6,0,.9l-3.5.06-2.09,0h0a.78.78,0,0,1-.08-1.15c1.4-.5,2.84-.17,4.26-.22C35.64,61.15,36.17,61.06,36.53,61.6Z"/><path class="cls-339" d="M37.49,62.58l1.82,0v.89C38.63,63.33,37.56,64,37.49,62.58Z"/><path class="cls-340" d="M48.7,47.54l0-.92h0a.81.81,0,0,1,.91-.32c.53.31.76.93,1.28,1.25a.65.65,0,0,1-.36.9c-1.24.15-.82,1.14-.94,1.86-.28.4-.59.31-.91,0h0Z"/><path class="cls-269" d="M29.06,64.38V62.55h0c.24-.25.5-.38.82-.16l.11.16v1.83Z"/><path class="cls-341" d="M30.93,61.61v.93H30a.6.6,0,0,1,0-.91l.07-.11A.56.56,0,0,1,30.93,61.61Z"/><path class="cls-342" d="M48.71,50.37l.91,0a.88.88,0,0,1,1,1l-1.84-.07Z"/><path class="cls-343" d="M64.41,55v-.87c.73-1.44,1.14-1.62,2-1V55Z"/><path class="cls-344" d="M66.47,53.19c-.89-.13-1.12,1.18-2,1l-.74,0c.07-1.87.07-1.87,2.79-1.85Z"/><path class="cls-345" d="M18.71,54.09l-.88.07c-.23.16-.41.42-.73.41a1.22,1.22,0,0,0-1.17.47h0l-1,0a1.4,1.4,0,0,0-1.28-.47c-.45,0-.75-.11-.91-.54-.28-.88.14-1.22,1-1.29a9.14,9.14,0,0,0,4.07-.86,2.15,2.15,0,0,1,1.46,0c.85.22.9.68.39,1.31l0,0C19.35,53.47,19.08,53.83,18.71,54.09Z"/><path class="cls-346" d="M13.09,54.08c.69.2,1.77-.41,1.89.93H8.9v-.88a.53.53,0,0,1,.45-.36,3.8,3.8,0,0,1,1-.15,7,7,0,0,1,1.83,0A1,1,0,0,1,13.09,54.08Z"/><path class="cls-347" d="M15.93,55c0-.66.32-.95,1-.89a.59.59,0,0,1,0,.9v0Z"/><path class="cls-348" d="M18.71,54.09c-.05-.71.26-1,1-.9l-.05.89Z"/><path class="cls-349" d="M16.87,55.05l0-.9h.93l0,.87Z"/><path class="cls-350" d="M13.09,54.08h-.91c-.38-.32-.68-.72-1.08-1-1.43-1.12-1.66-2-1-3.87A2,2,0,0,1,11.92,49c.54,0,.78.37.84.91s.17,1.16.86,1.19.71-.58.83-1.06c.07-.3.14-.62.55-.63.57,0,1.15,0,1.72.05s1,.23,1,.78c.11.74.45,1.12,1.23,1s.66-.81.7-1.36c0-.16,0-.31,0-.46h.93c1.87,0,1.87,0,1.89,1.88h0c-.35.28-.64.61-1,.92h0c-.63,0-1,.2-.94.87l-.95,0c-.1-1.07-1-1.2-1.48-.73-1.08,1.06-2.32.64-3.51.74C14,53.22,13.2,53,13.09,54.08Z"/><path class="cls-351" d="M21.55,52.24c0-.66.32-1,1-.92l0,.86Z"/><path class="cls-245" d="M50.56,48.46v-.92c-.56-.75-.36-1.21.53-1.4,1.06.09.73-1.11,1.33-1.45s1.24-.25,1.58.55a2.13,2.13,0,0,0,1.5,1.13c.46.56.6,1.29,1,1.88s.06.85-.31,1.17a2.16,2.16,0,0,1-.81,1.48,1.22,1.22,0,0,1-2-.37,1.86,1.86,0,0,0-1.76-1.09A.92.92,0,0,1,50.56,48.46Z"/><path class="cls-245" d="M60.89,46.61a8.51,8.51,0,0,0,.24,2.8,3.86,3.86,0,0,0-.19.54c-.28,1.5-.68,1.77-2.18,1.47a.71.71,0,0,1-.64-.71c0-.43,0-.86,0-1.28a2.51,2.51,0,0,1-.2-3C58.91,46.05,59.94,45.7,60.89,46.61Z"/><path class="cls-352" d="M58.08,46.61v2.82H56.21c0-.64-.38-1-.72-1.48a2.21,2.21,0,0,1-.22-1.32c-.47-.47-.67-.94,0-1.4a6.71,6.71,0,0,1,2.58-.48C58.79,45.22,58.84,45.62,58.08,46.61Z"/><path class="cls-353" d="M38.43,11.05h.85c0,.6.27,1,.95.94-.34,1.18.85,1.79,1,2.78L41.2,15c-.54.24-.39,1.16-1.17,1.15-1.18.25-.91-.8-1.2-1.35s-.45-1.29-.76-1.91S37.57,11.5,38.43,11.05Z"/><path class="cls-354" d="M41.27,14.78h.9a.76.76,0,0,1,.1,1.09.92.92,0,0,1-1.14,0,.8.8,0,0,1,0-1.11Z"/><path class="cls-355" d="M42.12,15.74c0-.32,0-.65.05-1l.92,0v1.85l-.9,0C41.82,16.36,41.86,16.06,42.12,15.74Z"/><path class="cls-356" d="M31.79,14.77c0-.6.18-1.08.94-.95A.54.54,0,0,1,33,14a.75.75,0,0,1-.1.9.79.79,0,0,1-.9.14A.59.59,0,0,1,31.79,14.77Z"/><path class="cls-357" d="M32.73,13.82l.09-.9a.69.69,0,0,1,1.08-.06.77.77,0,0,1-.06,1,.64.64,0,0,1-1,0Z"/><path class="cls-358" d="M33.7,12.9l-.88,0c0-.31,0-.61,0-.91l.84,0,.17.06a.52.52,0,0,1,0,.81Z"/><path class="cls-359" d="M30.85,15.69l.09-.89.85,0h.12a.74.74,0,0,1,.07,1,.66.66,0,0,1-1-.08Z"/><path class="cls-360" d="M33.67,12l.09-.91.86-.05.2.1a.74.74,0,0,1,0,1,.71.71,0,0,1-1-.12Z"/><path class="cls-361" d="M34.62,11c0-.68.35-.95,1-1l0,.11a.63.63,0,0,1,.09.92.64.64,0,0,1-1,0Z"/><path class="cls-362" d="M29,20.39l.08-.9a.68.68,0,0,1,1.05-.11.84.84,0,0,1,.05,1.11.72.72,0,0,1-1.08-.09Z"/><path class="cls-363" d="M30,19.45l-.9,0c0-.32,0-.63,0-.95l.86,0,.17.05a.52.52,0,0,1,0,.8Z"/><path class="cls-364" d="M30,16.69l.86-.06.19.08a1.24,1.24,0,0,1,.3,1c0,.37.05.76-.32,1a.77.77,0,0,1-1-.22h-.1Z"/><path class="cls-365" d="M31,15.73l.84,0,.2.1a.69.69,0,0,1,0,1,.72.72,0,0,1-1-.13l-.08-.06Z"/><path class="cls-366" d="M44.05,20.37a.86.86,0,0,1,.9,1c0,.62,0,1.23,0,1.85a.78.78,0,0,1,.08,1.1,1,1,0,0,1-1.14.08c-.42-.26-.38-.68-.38-1.09,0-.66,0-1.31,0-2C43.57,20.92,43.58,20.53,44.05,20.37Z"/><path class="cls-367" d="M44.05,20.37l0,1a.79.79,0,0,1-1,.19,1.52,1.52,0,0,1-.18-1.86.64.64,0,0,1,.35-.25l.87,0C44,19.78,44,20.08,44.05,20.37Z"/><path class="cls-368" d="M44.94,24.18l.06-1,.9,0v1.86H45C44.62,24.8,44.66,24.49,44.94,24.18Z"/><path class="cls-369" d="M42.19,17.56l.85,0,.1,1.86-.11,0a.66.66,0,0,1-1,.1,1.59,1.59,0,0,1-.16-1.73A.61.61,0,0,1,42.19,17.56Z"/><path class="cls-370" d="M42.12,15.74c0,.3.05.59.07.88v.94l-.08.07c-.43.36-1,.33-1.16-.12a1.39,1.39,0,0,1,.28-1.81Z"/><path class="cls-371" d="M38.43,11.05A2.16,2.16,0,0,0,39,13c.45.39.26,1,.27,1.52a5.65,5.65,0,0,0,.17,4.49,1.85,1.85,0,0,1,0,2c-.41.28-.77,0-1.14-.11a6.58,6.58,0,0,1-1.22-1.74c-.06-2.49-1-4.85-1-7.33,0-.64-.11-1.3.46-1.78l1,0,.87.07Z"/><path class="cls-372" d="M36.52,10.11v1.81a1,1,0,0,1-1,.46c-.4,0-.77,0-.9-.47l0-.85a.84.84,0,0,0,.92-.93Z"/><path class="cls-373" d="M22.47,27c-.11.65.39,1.56-.72,1.8s-1.2-.19-1.11-1.78Z"/><path class="cls-374" d="M19.67,27.88v.88c-.41.68-1.07.6-1.72.55a2.46,2.46,0,0,1-1-.19.65.65,0,0,1-.3-.29.75.75,0,0,1,.27-.94h0a1.15,1.15,0,0,1,1.86,0Z"/><path class="cls-375" d="M24.32,25.13V26H21.58l0-.84.92-.09Z"/><path class="cls-376" d="M18.73,27.88l-1.86,0,0-.91.9-.07C18.41,26.93,18.83,27.15,18.73,27.88Z"/><path class="cls-377" d="M16.88,27.89l0,.92a.66.66,0,0,1-1,.16.72.72,0,0,1,.07-1Z"/><path class="cls-250" d="M15.9,27.92l0,.89a.54.54,0,0,1-.93,0l0-.85Z"/><path class="cls-378" d="M66.48,27.94v.87l-2.77.05a1.64,1.64,0,0,1-2,.16.73.73,0,0,1,.1-1.09Z"/><path class="cls-379" d="M65.56,33.51c-.64-.08-1.39.23-1.88-.48,0-.59-.1-1.31.84-1.36.57,0,1,.13,1,.8C65.56,32.81,65.56,33.16,65.56,33.51Z"/><path class="cls-380" d="M62.77,33.28c-1.63.49-1.85.29-1.88-1.65.45-.62.92-.5,1.39,0C62.94,32,62.7,32.7,62.77,33.28Z"/><path class="cls-381" d="M62.28,31.61l-1.39,0h0a1.36,1.36,0,0,1-.11-2c.69-.3,1.38-.61,2,.16C62.81,30.44,62.36,31,62.28,31.61Z"/><path class="cls-382" d="M62.77,29.78H60.88l-.18-.13a.74.74,0,0,1,.1-1,.75.75,0,0,1,1,.16l1.89.07,0,.89h0Z"/><path class="cls-383" d="M63.68,29.75c.23,0,.47,0,.7,0s.82-.09,1,.36c.11.26-.09.46-.34.5-.46.1-.94.17-1.23-.33a1.71,1.71,0,0,1-.14-.55Z"/><path class="cls-384" d="M61.82,28.79l-.94.08c-.84.76-1.85.29-2.78.42-.4,0-.83.07-1.14-.3a.74.74,0,0,1,.19-1.08l.94-.07,3.73.09Z"/><path class="cls-18" d="M48.69,25.06l-.89,0c-.07-.69.19-1.05.92-1Z"/><path class="cls-385" d="M53.39,27.9v.93l-.13.2a3.68,3.68,0,0,1-2.75,0c-.41-.23-.39-.62-.38-1a1.24,1.24,0,0,1,.28-1l.19-.1,1.84,0a11.63,11.63,0,0,1,1,.91Z"/><path class="cls-386" d="M51.53,25.13l0,.85c-.68,0-1,.27-.9,1l0,0c-.42.39-.91.42-1.18-.06a1.31,1.31,0,0,1,.28-1.77l.94-.07Z"/><path class="cls-387" d="M56.19,28l-1.85-.1c-.07-.7.33-.94.95-.95l.92,0,0,0A.6.6,0,0,1,56.19,28Z"/><path class="cls-388" d="M53.39,27.89a.8.8,0,0,1-1-.91C53.12,26.9,53.4,27.25,53.39,27.89Z"/><path class="cls-389" d="M49.67,25.11c.08.71-.41,1.72.9,1.83l0,.92a.87.87,0,0,1-.9.43.9.9,0,0,1-.91-.41l.06-2.75Z"/><path class="cls-390" d="M56.19,28V27l.94,0,0,.89,0,.89c-.32.39-.64.31-1,0Z"/><path class="cls-391" d="M52.45,39.14c0,1.84-.33,2.35-1.88,2.8-1,.41-1.15.29-1.32-.76-.1-.67,0-1.32-.07-2a18.67,18.67,0,0,1,.15-3.66.91.91,0,0,1,.28-.39,3.5,3.5,0,0,1,1.92-.24c.36,0,.74-.08,1.06.2a1.12,1.12,0,0,1,.23,1,1.06,1.06,0,0,1-.12.34,1.36,1.36,0,0,1-.49.29c-1.17.61-1.21,1.17-.14,1.89C52.28,38.75,52.45,38.87,52.45,39.14Z"/><path class="cls-392" d="M55.28,45.22v1.4c-.88,0-1.86.22-2-1.15,0-.41-.47-.46-.83-.49a.49.49,0,0,1-.28-.27.71.71,0,0,1,.27-.87,1.8,1.8,0,0,1,.94-.5c.76.11,1.19-.66,1.89-.71a1.07,1.07,0,0,1,.92,1.19C55.92,44.3,55.3,44.56,55.28,45.22Z"/><path class="cls-381" d="M52.45,39.14c-.75-.11-1.8.35-1.86-1.06-.08-1.59.07-1.76,1.83-1.74.32,0,.48.35.77.46.82.31.77.82.22,1.38l0,1h0Z"/><path class="cls-393" d="M56.2,39.14V38.2c0-1.85,0-1.86,1.89-1.88l.19.1a2.84,2.84,0,0,1,.08,2.7.62.62,0,0,1-.32.3A1.45,1.45,0,0,1,56.2,39.14Z"/><path class="cls-246" d="M62.74,39.1l-1.85,0L60.7,39a2.78,2.78,0,0,1-.07-2.72A.82.82,0,0,1,61,36a2.12,2.12,0,0,1,2.05.2A2.83,2.83,0,0,1,62.74,39.1Z"/><path class="cls-394" d="M52.43,44.79l0,.19c-.11.67.27,1.61-1,1.62-.4-.69-1.23-.23-1.74-.64a.5.5,0,0,1-.18-.27l0-2.81c.31-.35.61-.3.91,0l.08.9C51,44.54,52.07,44,52.43,44.79Z"/><path class="cls-395" d="M60.89,39.12c0,1.89,0,1.89-2.79,1.88-.78-.62-.63-1.25,0-1.88h0a2.08,2.08,0,0,1,2.83,0Z"/><path class="cls-396" d="M58.1,34.69a5.27,5.27,0,0,1,2.76,0c.79.54.59,1.09,0,1.64h0a2,2,0,0,1-2.81,0h0C58.09,35.77,58.1,35.23,58.1,34.69Z"/><path class="cls-397" d="M50.54,42.89h-.91l-.87-.05L48.69,42c0-.31,0-.62,0-.93l0-1.91a.59.59,0,0,1,.9,0c0,.62,0,1.24,0,1.86s.28,1,.91,1Z"/><path class="cls-352" d="M53.41,38.18c.13-.86-1-1-1-1.84l.11-.07a1.21,1.21,0,0,1,1.85,0l.64,0C55.54,37.93,55.31,38.19,53.41,38.18Z"/><path class="cls-247" d="M62.74,39.1l0-2.79c-.37-.4-.49-.79,0-1.17l.91,0c.61.13.74.64.87,1.14a3.61,3.61,0,0,1-.67,2.75l-.18.08Z"/><path class="cls-398" d="M58.08,39.12c0,.63,0,1.25,0,1.88-1.58.65-1.88.35-1.9-1.86Z"/><path class="cls-399" d="M55.28,42.63c-.22,1.32-.79,1.53-1.89.71.06-.52-.14-1.18.61-1.34C54.56,41.88,55.12,41.9,55.28,42.63Z"/><path class="cls-305" d="M53.39,39.13c.35,0,.7,0,1,0,.65,0,.84.44.81,1a.75.75,0,0,1-.8.8c-.58,0-1-.16-1-.81,0-.34,0-.69,0-1Z"/><path class="cls-305" d="M65.57,39.13c0,.27,0,.54,0,.81,0,.62-.21,1-.93,1s-.93-.42-.93-1v-.81h0a1.13,1.13,0,0,1,1.87,0Z"/><path class="cls-400" d="M52.43,44.79c-.7-.16-1.77.36-1.81-1l1.83.05C52.45,44.15,52.44,44.47,52.43,44.79Z"/><path class="cls-392" d="M58.08,46.61a4,4,0,0,0-.22-1.87,1.68,1.68,0,0,1,3,0,1.12,1.12,0,0,1,0,1.86h-2.8Z"/><path class="cls-401" d="M65.57,46.6H63.7c0-.53,0-1.07.08-1.6s.24-.86.77-.87a.9.9,0,0,1,.92.87A14.17,14.17,0,0,1,65.57,46.6Z"/><path class="cls-245" d="M60.88,46.62c0-.62,0-1.24,0-1.86h.8c.63,0,1,.22,1,.93s-.43.92-1.05.92Z"/><path class="cls-402" d="M55.27,31.66c0,.75.08,1.49-.67,2.08-.48.37-.21,1.08-.27,1.64a.77.77,0,0,1-1,.27,1.31,1.31,0,0,1-.44-.89.88.88,0,0,0-.6-1,.88.88,0,0,1-.19-.32,1.05,1.05,0,0,1,.11-.93c.61-.2.61-1,1.26-1.2A1.41,1.41,0,0,1,55.27,31.66Z"/><path class="cls-403" d="M60.88,29.77c0,.62,0,1.25,0,1.87H58.08V29.78a2.39,2.39,0,0,0,.13-.21,2.43,2.43,0,0,1,2.66.2Z"/><path class="cls-404" d="M55.27,31.66l-1.87,0a2.14,2.14,0,0,1,0-2.81h0c1.88,0,1.91,0,1.89,1.91C55.28,31.05,55.27,31.35,55.27,31.66Z"/><path class="cls-405" d="M58.07,31.63c0,.35,0,.7,0,1.05,0,.66-.45.83-1,.8a.76.76,0,0,1-.8-.81c0-.58.16-1,.82-1,.35,0,.69,0,1,0Z"/><path class="cls-406" d="M62.77,35.14v1.17H60.88c0-.55,0-1.09,0-1.64C61.59,34.45,62.35,34.07,62.77,35.14Z"/><path class="cls-407" d="M64.18,36.34c-.5-.26-.47-.73-.5-1.18.32-1.06,1.22-.61,1.9-.72-.09.65.24,1.41-.48,1.9A.61.61,0,0,1,64.18,36.34Z"/><path class="cls-408" d="M53.44,35.37h.89l.05.93-1.85,0-.09-.87C52.77,35,53.1,35.12,53.44,35.37Z"/><path class="cls-409" d="M56.2,28.83l1,0,.91.06a.59.59,0,0,1,0,.91h0C57.36,29.66,56.33,30.15,56.2,28.83Z"/><path class="cls-243" d="M64.18,36.34h.92a5.69,5.69,0,0,1,.47,2.79H63.7A7.42,7.42,0,0,1,64.18,36.34Z"/><path class="cls-410" d="M9.39,38.18c.69,0,.91.49,1.17,1,.69.44.36,1.13.43,1.73-.14,1,1,.51,1.2,1.06h0c.66.87.68,1.82,0,2.2a2,2,0,0,1-2.4-.61.9.9,0,0,0-.5-.44,5.82,5.82,0,0,1-1.8-1.17l0,0,.06-1c.57-.64,1.54-1,1.37-2.14C8.91,38.51,9,38.25,9.39,38.18Z"/><path class="cls-407" d="M7.54,34.45h.81c.66,0,1,.27,1,1s-.4.87-1,.87H7.55Z"/><path class="cls-305" d="M9.38,39.12C9.36,41,9.36,41,7.54,41V39.14A1.09,1.09,0,0,1,9.38,39.12Z"/><path class="cls-392" d="M9.38,39.12l-1.84,0V37.23c.71.13,1.73-.35,1.84,1C9.39,38.49,9.38,38.81,9.38,39.12Z"/><path class="cls-411" d="M8.44,31.63l-.89,0,0-1h0a.67.67,0,1,1,.93.92Z"/><path class="cls-412" d="M15,28.79l.93,0h.94l.05.08a3,3,0,0,1,.18,2.88,2,2,0,0,1-1.94.19c-.69-1.28-2.05-1.56-3.19-2.18a.7.7,0,0,1,.24-.92Z"/><path class="cls-391" d="M12.2,28.86l0,.9-.13.2a2.9,2.9,0,0,1-2.84,0,.74.74,0,0,1,.2-1.05Z"/><path class="cls-413" d="M8.43,30.69l-.92,0c-.07-.66.24-1,.88-1l.18.06a.55.55,0,0,1,0,.82Z"/><path class="cls-414" d="M9.41,28.87l0,.88a.53.53,0,0,1-.88.05l-.1-.07C8.42,29.08,8.71,28.74,9.41,28.87Z"/><path class="cls-415" d="M9.38,42.4c.35.1.71.22.83.59a1,1,0,0,0,1.36.76c.73-.18.58-.82.62-1.34,0-.16,0-.32,0-.47h1.74a1,1,0,0,1,1.07.83c.24,1,.78,1.28,1.75.84.35-.16.7-.34,1-.51a4.52,4.52,0,0,1,1.91.47l2.86.26c-.26.66.4,1.78-.95,1.88a1.89,1.89,0,0,1-2.52,0A6.63,6.63,0,0,0,17.8,45l-1.38-.21c-.78-.1-1.41,0-1.45,1,0,.74-.57.83-1.15.84a.64.64,0,0,1-.43.32c-.79.09-1.51.25-1.91-.82-.27-.75-1-.64-1.48.15-.64,1-1.47,1.11-2.46.33V43.82A6.48,6.48,0,0,1,9.38,42.4Z"/><path class="cls-416" d="M7.54,46.61c.91,0,1.71.1,2-1.17.17-.76,1.13-.66,1.82-.67s.82.38.84.91c0,.77.52,1,1.18,1,.13.14.32.35.24.48-.5.76-.63,1.74-1.42,2.31H10.32c-.46.43-.78.09-1.06-.23-.53-.6-1.16-1.09-1.71-1.67Z"/><path class="cls-417" d="M7.55,47.54c1-.07,1.85,0,2,1.28,0,.35.43.51.77.62,0,.58,0,1.16,0,1.74s.15.94.65,1c1.35.09,1.23,1,1.2,1.92H10.32C9.82,53.78,9.78,53,9,53c-.46-.3-1.15-.17-1.47-.75v-.93c.89-.92.89-.92,0-1.85Z"/><path class="cls-399" d="M9.38,42.4c.18,1.49-.82,1.46-1.83,1.42l0-1.9C8.16,42,8.91,41.7,9.38,42.4Z"/><path class="cls-416" d="M7.54,49.44h.82c.58,0,1,.21,1,.87s-.34,1-1,1H7.54Z"/><path class="cls-414" d="M7.54,52.22a4.42,4.42,0,0,1,1.84.25c.39.53.62,1.05,0,1.59l-.5.07c-.48-.55-1.22-.86-1.43-1.64C7.49,52.4,7.52,52.31,7.54,52.22Z"/><path class="cls-418" d="M33.7,30.74h2.89a.53.53,0,0,1,0,.82l-.09.1-2.8-.07A.55.55,0,0,1,33.7,30.74Z"/><path class="cls-419" d="M33.7,30.74v.86l-.9.08-.94,0-.17-.1a.57.57,0,0,1,.14-.85l0-.11Z"/><path class="cls-420" d="M31,52.26l0-20.62.1-.16c.31-.23.58-.11.83.12l0,.1q0,9.5,0,19C31.84,51.37,32,52.2,31,52.26Z"/><path class="cls-421" d="M36.6,31.57v-.82l2.75-.05q0,10.77,0,21.52H37.5q0-9.59,0-19.18C37.46,32.4,37.6,31.64,36.6,31.57Z"/><path class="cls-422" d="M41.23,15.7c.07.75-.34,1.72.88,1.93.16.69-.31,1.69.92,1.85l.09,1.82c.66.47.21,1.45.88,1.92l.06.91a5.36,5.36,0,0,1,0,4.66l-1.86,0c-.58-.29-.54-.89-.51-1.35.1-1.56,0-3.12,0-4.68a1.18,1.18,0,0,0-.7-1.36,1,1,0,0,1-.24-.83c0-1,.1-1.94-.92-2.51-.12-.83-.3-1.66.43-2.32,0-.55.26-.92.86-.94C41.16,15.09,41.2,15.4,41.23,15.7Z"/><path class="cls-423" d="M33.72,28.79c1.72-3,.66-6.22.93-9.34-.61-.49-.37-1.19-.45-1.82a5.31,5.31,0,0,1,.17-1.86.69.69,0,0,1,.31-.32,1.23,1.23,0,0,1,1.09,0c.4.3.37.75.39,1.17a16.32,16.32,0,0,1,0,2.21,4.18,4.18,0,0,0,.81,3c0,.15,0,.3,0,.45a36.45,36.45,0,0,1,.12,5.12,1.38,1.38,0,0,1-.58,1.31Z"/><path class="cls-424" d="M36.52,28.78l0-6.49c1-.93,1.5.22,2.21.55a15.19,15.19,0,0,0,.94,3.87,1.63,1.63,0,0,1-.36,2.06Z"/><path class="cls-425" d="M41.21,20.4l0,.69c.7.84.34,1.83.4,2.78.06,1.24,0,2.48,0,3.72a1.24,1.24,0,0,1-.47,1.18h-.93c-.59-.26-.49-.87-.5-1.28a9.21,9.21,0,0,0-.74-3.83,3.19,3.19,0,0,1,0-2.48c.55-.21.6-.95,1.2-1.1A.84.84,0,0,1,41.21,20.4Z"/><path class="cls-426" d="M39.35,21.11a4,4,0,0,0,.71,2.95c.5.58.19,1.5.22,2.27s0,1.63,0,2.44h-.94a4.5,4.5,0,0,0-.71-2.72c-.58-.85-.16-2-.24-3.08-.44-.78-.92-1.57,0-2.35l.93.24c.07.05.09.1.07.16S39.37,21.11,39.35,21.11Z"/><path class="cls-427" d="M41.22,28.77l0-7.68c.76.25.9.86.9,1.56q0,3.06,0,6.12Z"/><path class="cls-428" d="M44,28.79l0-4.66.88.05c0,.3,0,.6.05.9,0,1.23,0,2.47,0,3.71Z"/><path class="cls-429" d="M36.55,56l-1,0-2.11,0a.55.55,0,0,1,0-.87h3.06A.54.54,0,0,1,36.55,56Z"/><path class="cls-430" d="M33.48,55.08V56l-2.55,0c0-.31,0-.62,0-.93Z"/><path class="cls-431" d="M36.55,56c0-.29,0-.58,0-.87l.92-.1v.1a.55.55,0,0,1,0,.87l-.09.09Z"/><path class="cls-432" d="M37.5,56l0-.87h1.85c0,.29,0,.59,0,.88Z"/><path class="cls-433" d="M30.92,31.64l-.9,0c0-.31,0-.63-.05-.94l.92,0a.57.57,0,0,1,0,.9Z"/><path class="cls-434" d="M39.34,58.83c0,.59,0,1.19,0,1.79H37.49c-.32-.45-1-.46-1.25-1a.67.67,0,0,1,.33-.81l.89-.09Z"/><path class="cls-435" d="M31,58.74l2.76.09a.73.73,0,0,1,.13,1.09,3.85,3.85,0,0,1-3,0,.7.7,0,0,1,0-1.09Z"/><path class="cls-436" d="M33.71,59.69v-.86h2.86l0,.84a.61.61,0,0,1-.28.35C35.42,60.17,34.49,60.54,33.71,59.69Z"/><path class="cls-437" d="M29,59.75c0-.3,0-.61,0-.92H30c.24.21.49.41.45.78a1.32,1.32,0,0,1-.17.89.48.48,0,0,1-.31.19l-.89-.06Z"/><path class="cls-438" d="M30,59.75l0-.92h.92l0,.91-.1.15A.57.57,0,0,1,30,59.75Z"/><path class="cls-404" d="M17.84,28.86l1.83-.1c0,.95,0,1.9,0,2.85H17.81A2.12,2.12,0,0,1,17.84,28.86Z"/><path class="cls-439" d="M22.52,36.32c-1.91,0-1.91,0-1.89-1.86l.69,0,1.13.07C22.48,35.1,22.5,35.71,22.52,36.32Z"/><path class="cls-440" d="M29.09,20.4l.86,0c.41.18.43.51.33.88a.68.68,0,0,1-.27.31.71.71,0,0,1-.93-.23Z"/><path class="cls-441" d="M29.08,21.34l.88,0a.61.61,0,0,1,.11,1,.6.6,0,0,1-1,0H29Z"/><path class="cls-442" d="M29.1,22.26c.68,0,.91-.32.86-.94h0c.7-.55.4-1.34.47-2,0-.36.24-.55.42-.8l.07-.86a.69.69,0,0,1,.83-.35.62.62,0,0,1,.31.22c.34.69.26,1.59,1,2.07a2.63,2.63,0,0,1-.06,1.75A1.78,1.78,0,0,0,32.29,23a1.64,1.64,0,0,1-.19,1c-.43.28-.8.6-.74,1.17.05.39-.22.6-.44.83h0L30,26l0-1.85c0-.59-.24-1-.88-1Z"/><path class="cls-443" d="M31.81,23.85c0-.52.05-1.05.06-1.58a.87.87,0,0,1,.87-1l.21.11a1.34,1.34,0,0,1-.13,1.82l-.06.89a.61.61,0,0,1-.92.13A.36.36,0,0,1,31.81,23.85Z"/><path class="cls-444" d="M31.87,24.17l.89-.05V26a.55.55,0,0,1-.87.07L31.81,26C31.32,25.35,31.15,24.75,31.87,24.17Z"/><path class="cls-445" d="M34.63,17.56c0,.63,0,1.26,0,1.89h-.86l-.2-.07a1.1,1.1,0,0,1-.32-1c0-.38-.06-.77.31-1A.78.78,0,0,1,34.63,17.56Z"/><path class="cls-446" d="M31.9,26.06l.87-.07c-.07.75.42,1.76-.91,1.91Z"/><path class="cls-447" d="M32.74,21.3l.06-1.83.1-.16a.54.54,0,0,1,.79.15h.1l-.1,1.85a.52.52,0,0,1-.84.06Z"/><path class="cls-448" d="M32.85,21.37l.84-.06c-.07.74.46,1.75-.87,1.92Z"/><path class="cls-315" d="M30.92,31.64l0-.9h.95v.85Z"/><path class="cls-301" d="M31.87,24.17,31.81,26l-.89,0c.09-.8-.43-1.86.89-2.16Z"/><path class="cls-247" d="M15,39.12C15,41,15,41,12.2,41L12,40.9a1.18,1.18,0,0,1,.2-1.77h0a2,2,0,0,1,2.82,0Z"/><path class="cls-305" d="M19.68,39.12c0,.35,0,.7,0,1,0,.65-.44.85-1,.82a.76.76,0,0,1-.8-.8c0-.59.16-1,.81-1l1,0Z"/><path class="cls-449" d="M19.7,43.57c-.73.25-1.49.6-1.91-.47,0-.71.23-1.21,1.07-1.13C19.93,42.09,19.59,43,19.7,43.57Z"/><path class="cls-415" d="M12.19,41.94c-.51,0-1,0-1.52,0-.82,0-1-.33-.36-1a1.66,1.66,0,0,1,1.88,0h0C12.19,41.31,12.19,41.62,12.19,41.94Z"/><path class="cls-450" d="M17.84,28.86l0,2.76a3.25,3.25,0,0,1-.94,2.84A13.84,13.84,0,0,0,15,36.32l-.92,0c-.8-.56-.27-1.21-.14-1.84a2.56,2.56,0,0,1,.81-1.23c1-.1,1.54-.93,2.14-1.62,0-.91,0-1.81,0-2.72Z"/><path class="cls-451" d="M8.44,31.63v-.94l0,0c1.08-.78,1.84-.66,2.33.36.06,1.44.26,1.71,1.63,2.13.43.4,1,.71,1.08,1.35a1.53,1.53,0,0,1-.36,1.75l-.92,0a13.76,13.76,0,0,0-1.89-1.85,3.22,3.22,0,0,1-1-2C9.37,31.87,9,31.65,8.44,31.63Z"/><path class="cls-401" d="M15,39.13H12.18c0-.9-.2-1.94,1.3-1.9C14.83,37.27,15,37.37,15,39.13Z"/><path class="cls-452" d="M12.19,41c-.63.29-1.26.52-1.88,0,.08-.62.17-1.24.25-1.85l1.63,0Z"/><path class="cls-304" d="M10.32,34.47c1.84,0,1.84,0,1.89,1.85C10.33,36.31,10.33,36.31,10.32,34.47Z"/><path class="cls-453" d="M15,36.32c0-1.88,0-1.88,1.89-1.86C16.86,36.31,16.86,36.31,15,36.32Z"/><path class="cls-454" d="M18.7,34.47c.62,0,.95.25.95.89a.81.81,0,0,1-.93.93.8.8,0,0,1-.89-.85C17.81,34.83,18.05,34.47,18.7,34.47Z"/><path class="cls-396" d="M13.13,36.3V34.44a.66.66,0,0,1,1.17,0c-.08.61-.15,1.23-.23,1.85Z"/><path class="cls-455" d="M30,61.64v.91h-.92l0-.91Z"/><path class="cls-456" d="M30.93,61.61l-.9-.08c0-.28-.05-.56-.08-.84l.05-.06a1.13,1.13,0,0,1,1-.41,32.12,32.12,0,0,1,5.46.16.63.63,0,0,1,.31.33,1.57,1.57,0,0,1-.24.89Z"/><path class="cls-457" d="M12.19,49.43c-.32-1.23.51-2,1.18-2.79h.45A2.75,2.75,0,0,1,15,49.44,9.08,9.08,0,0,1,15,50.72c-.12.68-.43,1.4-1.19,1.37a1.62,1.62,0,0,1-1.53-1.37A9.22,9.22,0,0,1,12.19,49.43Z"/><path class="cls-458" d="M17.8,45a1.46,1.46,0,0,1,2,.31c.49.59,1.22.31,1.85.41.06,1.32,1.15.73,1.8,1,0,.29,0,.57.05.86l-1.64,0c-.19,0-.48.09-.57,0a4.57,4.57,0,0,0-2.92-1.08C17.59,46.37,17.87,45.53,17.8,45Z"/><path class="cls-350" d="M19.68,49.43c-.34,0-.69,0-1,0-.65,0-.85-.44-.82-1a.77.77,0,0,1,.8-.8c.59,0,1,.17,1,.82,0,.34,0,.69,0,1Z"/><path class="cls-459" d="M49.63,39.11h-.9c0-1.24,0-2.48,0-3.73h0c.32-.27.63-.36.95,0Z"/><path class="cls-460" d="M48.73,27.88l.94,0a.71.71,0,0,1,.09,1,.74.74,0,0,1-1-.12h0Z"/><path class="cls-461" d="M49.64,46.6l-.91,0,0-1h.92C49.93,46,50,46.31,49.64,46.6Z"/><path class="cls-462" d="M49.65,28.83c0-.31,0-.62,0-.92l.87-.05.09.94c.19.27.49.47.53.85a1.22,1.22,0,0,0,.4.64.92.92,0,0,1,0,1.6.77.77,0,0,1-1-.26l-.9,0-.09-1.79A.67.67,0,0,1,49.65,28.83Z"/><path class="cls-463" d="M49.65,28.83c0,.32,0,.65,0,1l-.86-.06c0-.3,0-.6,0-.91Z"/><path class="cls-464" d="M49.66,35.38h-.95v-.94h0a.73.73,0,0,1,1.05-.12.74.74,0,0,1-.12,1.06Z"/><path class="cls-465" d="M50.6,31.63l.9,0c.38.06.48.32.49.65a1.11,1.11,0,0,0,.49,1.17h0c.27.36.62.63.88,1,0,.31.06.61.08.91l-1,0-.89-.06c-.69-.46-1.76-.64-1.41-1.88a1.13,1.13,0,0,1,.41-.91Z"/><path class="cls-466" d="M50.55,32.55v.92a.57.57,0,0,1-.75.29.41.41,0,0,1-.21-.27l.1-.91Z"/><path class="cls-467" d="M49.63,34.42l-.91,0,0-.92.85,0,.11,0A.55.55,0,0,1,49.63,34.42Z"/><path class="cls-468" d="M36.77,60.71l-.29-.1a.56.56,0,0,1,0-.84l.13-.09a.81.81,0,0,1,.89,1Z"/><path class="cls-469" d="M49.64,46.6l0-.92c.71.11,1.74-.43,1.82.92a.86.86,0,0,0-1,.94C49.9,47.56,49.68,47.17,49.64,46.6Z"/><path class="cls-350" d="M9.4,54.06l0-1.59c.79.26.9.92.94,1.61Z"/><path class="cls-470" d="M39.35,21.11v-.25a3.15,3.15,0,0,0-.5-1.62,5.06,5.06,0,0,1,0-4.35c.06-.15.31-.22.46-.33,0,.62.18,1.15,1,1.16,0,.77,0,1.54,0,2.31a1.79,1.79,0,0,1,0,2.35A1.56,1.56,0,0,1,39.35,21.11Z"/><path class="cls-471" d="M32.85,13.85c.69.05.95-.29.85-.95h0c1-.48,1.2-.36,1.38.84-.08.67.19,1.42-.44,2h0c-.22.24-.45.45-.82.34-.66,0-.46-.8-.93-1a.51.51,0,0,1-.17-.3Z"/><path class="cls-472" d="M31.81,15.7l.1-.92h.83l.1,0a.74.74,0,0,1,.1,1,.67.67,0,0,1-1-.09Z"/><path class="cls-473" d="M34.72,13.88c0-.62-.31-1-1-1,0-.3,0-.6,0-.9l.9-.1.94.06a1.56,1.56,0,0,1,.23,2A.76.76,0,0,1,34.72,13.88Z"/><path class="cls-474" d="M30.9,19.44c-.09.74.4,1.75-.91,1.89,0-.32,0-.63,0-.95s0-.62,0-.93l0,0A.58.58,0,0,1,30.9,19.44Z"/><path class="cls-475" d="M30.9,19.44l-.9,0,0-.95.86,0Z"/><path class="cls-476" d="M31.84,17.52l-.89.11c0-.31,0-.63,0-.94l.86-.06A.51.51,0,0,1,31.84,17.52Z"/><path class="cls-477" d="M31.84,17.52v-.89l.09-.89.85-.05a1.35,1.35,0,0,1,.28,1.81c-.23.52-.75.46-1.19.15C31.85,17.61,31.85,17.57,31.84,17.52Z"/><path class="cls-478" d="M44,23.22c-1.29-.18-.81-1.18-.88-1.92l.88.07Z"/><path class="cls-479" d="M35.58,13.83l0-1.86.92-.05a10.71,10.71,0,0,0,.35,2.16,13.41,13.41,0,0,1,.61,5.14,3.81,3.81,0,0,1-1,2.81c-.9-1-.77-2.25-.89-3.43a28.45,28.45,0,0,1,0-2.92A1.19,1.19,0,0,1,35.58,13.83Z"/><path class="cls-480" d="M36.52,22c.06-1-.25-2.18,1-2.81.87.09.94.72.93,1.4s0,1.57,0,2.35a7.54,7.54,0,0,0-1.84-.68C36.55,22.2,36.53,22.12,36.52,22Z"/><path class="cls-305" d="M58.09,29.77v-.91h2.79v.9Z"/><path class="cls-481" d="M50.62,29.72c0-.31,0-.61,0-.92l2.77,0v2.81c0,.64-.31.94-.94.94l-.17-.07c-.08-.09-.21-.18-.21-.28A2.34,2.34,0,0,0,50.62,29.72Z"/><path class="cls-482" d="M49.63,34.42l.08-.88.85-.07c-.14.88,1.09,1,1,1.87l-1.9,0Z"/><path class="cls-439" d="M58.08,36.31h2.81c0,.94,0,1.88,0,2.81H58.07C58.07,38.19,58.07,37.25,58.08,36.31Z"/><path class="cls-483" d="M52.48,33.49c-.66,0-.95-.31-.94-1a.61.61,0,0,1,.92,0h0Z"/><path class="cls-484" d="M53.36,34.46c-.65,0-.92-.35-.88-1C53.18,33.45,53.45,33.79,53.36,34.46Z"/><path class="cls-485" d="M12.18,29.76h.92c1.88,0,1.89,0,1.89,1.89l-.12.2A2.57,2.57,0,0,1,12,31.71a1.4,1.4,0,0,1,.18-1.95Z"/><path class="cls-405" d="M16.87,31.61c0,1.89,0,1.89-1.85,1.88-.83-.62-.59-1.24,0-1.86h0Z"/><path class="cls-412" d="M12.18,29.76v1.88l-.11.19a1.17,1.17,0,0,1-1.76-.21c-.12-1.32-1.15-.79-1.86-.91l0-.91.88-.05Z"/><path class="cls-486" d="M40.29,20.38l0-2.35c1.16.46.86,1.48.89,2.37Z"/><path class="cls-487" d="M33.77,15.74l.89,0,0,1.85-.87,0C33.13,17,33,16.35,33.77,15.74Z"/><path class="cls-488" d="M35.58,13.83c0,.61,0,1.23,0,1.85l-.91,0c0-.61,0-1.22,0-1.84Z"/><path class="cls-489" d="M36.47,59.77c0,.28,0,.56,0,.84l-5.56,0a.56.56,0,0,1,0-.89h0l2.78-.05Z"/><path class="cls-490" d="M30.93,59.75c0,.29,0,.59,0,.89H30c0-.29,0-.59,0-.88Z"/><path class="cls-491" d="M33.77,15.74V17.6l-.08.9c-.26.35-.59.64-.86,1h0c-1.29-.1-.83-1.11-.94-1.82,1.18-.24.9-1.17.91-2l.07-.9C33.53,14.73,33.72,15.17,33.77,15.74Z"/><path class="cls-492" d="M32.82,19.48c-.06-.63.21-1,.86-1v1Z"/><path class="cls-493" d="M15,31.63c0,.62,0,1.24,0,1.86a1,1,0,0,1-.73,1H13.12a1.26,1.26,0,0,1-.95-.95,1.13,1.13,0,0,1,0-1.86H15Z"/><path class="cls-380" d="M12.19,31.63c0,.62,0,1.24,0,1.86-1.85,0-1.85,0-1.86-1.87Z"/><path class="cls-402" d="M52.46,32.57l-.92,0,0-.87c.22-.88-1.09-1.07-.88-2,1.82.09,1.82.09,1.84,1.93Z"/></g></g></svg>