<svg xmlns="http://www.w3.org/2000/svg" viewBox="0 0 74 74"><defs><style>.cls-1{fill:#1e2223;}.cls-2{fill:#222;}.cls-3{fill:#6a6e5c;}.cls-4{fill:#54534c;}.cls-5{fill:#3c3c3c;}.cls-6{fill:#4a4a4a;}.cls-7{fill:#3e3c37;}.cls-8{fill:#4d4c49;}.cls-9{fill:#292929;}.cls-10{fill:#7e7c73;}.cls-11{fill:#535353;}.cls-12{fill:#242424;}.cls-13{fill:#484745;}.cls-14{fill:#151515;}.cls-15{fill:#4d4d4d;}.cls-16{fill:#31322f;}.cls-17{fill:#6d6f5e;}.cls-18{fill:#4e5147;}.cls-19{fill:#464541;}.cls-20{fill:#646464;}.cls-21{fill:#343434;}.cls-22{fill:#2a2a29;}.cls-23{fill:#757364;}.cls-24{fill:#8d8b78;}.cls-25{fill:#8a8a8a;}.cls-26{fill:#1d1d1c;}.cls-27{fill:#888875;}.cls-28{fill:#1c1c1c;}.cls-29{fill:#848484;}.cls-30{fill:#2b2b2b;}.cls-31{fill:#2c2c2c;}.cls-32{fill:#4a4844;}.cls-33{fill:#6e6e6e;}.cls-34{fill:#454545;}.cls-35{fill:#5a5a5a;}.cls-36{fill:#565655;}.cls-37{fill:#1f1e1d;}.cls-38{fill:#5c5c5c;}.cls-39{fill:#494949;}.cls-40{fill:#b6b6b6;}.cls-41{fill:#979996;}.cls-42{fill:#585857;}.cls-43{fill:#424242;}.cls-44{fill:#2c2c29;}.cls-45{fill:#373735;}.cls-46{fill:#212121;}.cls-47{fill:#343433;}.cls-48{fill:#505050;}.cls-49{fill:#1b1b1b;}.cls-50{fill:#1a1a1a;}.cls-51{fill:#363636;}.cls-52{fill:#2d2d2d;}.cls-53{fill:#585858;}.cls-54{fill:#2a2a2a;}.cls-55{fill:#080808;}.cls-56{fill:#3d3d3d;}.cls-57{fill:#474742;}.cls-58{fill:#898d76;}.cls-59{fill:#c9c9c5;}.cls-60{fill:#84847a;}.cls-61{fill:#8d8c85;}.cls-62{fill:#959380;}.cls-63{fill:#8d9087;}.cls-64{fill:#2e2d2c;}.cls-65{fill:#a8a799;}.cls-66{fill:#4d4c48;}.cls-67{fill:#919380;}.cls-68{fill:#7d7a6a;}.cls-69{fill:#353533;}.cls-70{fill:#a2a093;}.cls-71{fill:#b2b0a2;}.cls-72{fill:#525049;}.cls-73{fill:#93907e;}.cls-74{fill:#333;}.cls-75{fill:#595959;}.cls-76{fill:#747474;}.cls-77{fill:#282828;}.cls-78{fill:#414141;}.cls-79{fill:#777673;}.cls-80{fill:#5e5d59;}.cls-81{fill:#b1b1b1;}.cls-82{fill:#53524f;}.cls-83{fill:#787877;}.cls-84{fill:#eaeaea;}.cls-85{fill:#bfbfbe;}.cls-86{fill:#5f645e;}.cls-87{fill:#202020;}.cls-88{fill:#525d50;}.cls-89{fill:#444;}.cls-90{fill:#3f3f3f;}.cls-91{fill:#2f2f2f;}.cls-92{fill:#b7b19a;}.cls-93{fill:#a3a193;}.cls-94{fill:#605d55;}.cls-95{fill:#393836;}.cls-96{fill:#b1b2b0;}.cls-97{fill:#d3d2c7;}.cls-98{fill:#494847;}.cls-99{fill:#717171;}.cls-100{fill:#9b9b9b;}.cls-101{fill:#999;}.cls-102{fill:#c3c3c3;}.cls-103{fill:#1d1d1d;}.cls-104{fill:#908f87;}.cls-105{fill:#aeab9c;}.cls-106{fill:#79776c;}.cls-107{fill:#949180;}.cls-108{fill:#191917;}.cls-109{fill:#141414;}.cls-110{fill:#2e2e2d;}.cls-111{fill:#555;}.cls-112{fill:#7c8076;}.cls-113{fill:#1c1c19;}.cls-114{fill:#566248;}.cls-115{fill:#585b4b;}.cls-116{fill:#999783;}.cls-117{fill:#4d5743;}.cls-118{fill:#888c73;}.cls-119{fill:#d2cfbb;}.cls-120{fill:#464646;}.cls-121{fill:#949494;}.cls-122{fill:#676767;}.cls-123{fill:#9c9985;}.cls-124{fill:#b0a990;}.cls-125{fill:#7d7867;}.cls-126{fill:#595850;}.cls-127{fill:#5d6250;}.cls-128{fill:#323232;}.cls-129{fill:#62655a;}.cls-130{fill:#474b3e;}.cls-131{fill:#929292;}.cls-132{fill:#757575;}.cls-133{fill:#717770;}.cls-134{fill:#a5a5a5;}.cls-135{fill:#d3d4d2;}.cls-136{fill:#929c90;}.cls-137{fill:#767f74;}.cls-138{fill:#858585;}.cls-139{fill:#787878;}.cls-140{fill:#5d5d5d;}.cls-141{fill:#71715e;}.cls-142{fill:#11110e;}.cls-143{fill:#979883;}.cls-144{fill:#55564d;}.cls-145{fill:#60625d;}.cls-146{fill:#151513;}.cls-147{fill:#989892;}.cls-148{fill:#393938;}.cls-149{fill:#58564d;}.cls-150{fill:#232322;}.cls-151{fill:#32312e;}.cls-152{fill:#484742;}.cls-153{fill:#b3b3a2;}.cls-154{fill:#6e755b;}.cls-155{fill:#cecec3;}.cls-156{fill:#9f9b88;}.cls-157{fill:#a5ab9a;}.cls-158{fill:#c0c3b7;}.cls-159{fill:#969696;}.cls-160{fill:#6c6c6c;}.cls-161{fill:#b9b6ac;}.cls-162{fill:#c5c4c4;}.cls-163{fill:#7f7f7f;}.cls-164{fill:#6f6f6f;}.cls-165{fill:#c0c0be;}.cls-166{fill:#6d6b5f;}.cls-167{fill:#8e8a7b;}.cls-168{fill:#626562;}.cls-169{fill:#c0baa6;}.cls-170{fill:#8a8673;}.cls-171{fill:#b9b096;}.cls-172{fill:#2e2d2a;}.cls-173{fill:#646157;}.cls-174{fill:#494743;}.cls-175{fill:#797665;}.cls-176{fill:#2b2b2a;}.cls-177{fill:#dbd9d3;}.cls-178{fill:#c0bba7;}.cls-179{fill:#2b2a28;}.cls-180{fill:#878d76;}.cls-181{fill:#a5a588;}.cls-182{fill:#59644b;}.cls-183{fill:#353535;}.cls-184{fill:#c0bca6;}.cls-185{fill:#787f6a;}.cls-186{fill:#1d1d19;}.cls-187{fill:#a5a5a4;}.cls-188{fill:#464e3a;}.cls-189{fill:#95998c;}.cls-190{fill:#909089;}.cls-191{fill:#383d30;}.cls-192{fill:#20201d;}.cls-193{fill:#9d9d9d;}.cls-194{fill:#595753;}.cls-195{fill:#bbbbb8;}.cls-196{fill:#393734;}.cls-197{fill:#7f7b6b;}.cls-198{fill:#262625;}.cls-199{fill:#747061;}.cls-200{fill:#474642;}.cls-201{fill:#7e7b6e;}.cls-202{fill:#cbc8c1;}.cls-203{fill:#b0b0b0;}.cls-204{fill:#e1dfd6;}.cls-205{fill:#616160;}.cls-206{fill:#e0dbc8;}.cls-207{fill:#d9d8d0;}.cls-208{fill:#4a4842;}.cls-209{fill:#403f3e;}.cls-210{fill:#060605;}.cls-211{fill:#716e60;}</style></defs><title>선회장치</title><g id="레이어_2" data-name="레이어 2"><g id="레이어_1-2" data-name="레이어 1"><rect class="cls-1" width="74" height="74" rx="8.33" ry="8.33"/><path class="cls-2" d="M62.86,47.22l.5,0a1.27,1.27,0,0,1,.55,1.1c-2.08,4.5-6.2,5.09-10.43,5.3a23.76,23.76,0,0,1-4.09-.48,14.33,14.33,0,0,1-3.23-1.61c-.89-.67-1.79-.12-2.69,0a1.84,1.84,0,0,1,0-1.79,2.25,2.25,0,0,1,1-1.08,1.59,1.59,0,0,1,.75,0c1.08.51,1.92,1.46,3.14,1.74a4.23,4.23,0,0,0,2.22.88,5.37,5.37,0,0,1,1.06.11,2.54,2.54,0,0,0,2.35,0,3.35,3.35,0,0,1,.69-.13,5.91,5.91,0,0,0,2-.51,2.6,2.6,0,0,0,1.63-1,2.57,2.57,0,0,1,1-.89c.56-.31,1.25-.19,1.8-.55a5.31,5.31,0,0,0,.71-.54,2.58,2.58,0,0,1,.76-.46Z"/><path class="cls-3" d="M11.11,40.07c.28-2-1.63-3.25-1.6-5.14l.26-.24a1.27,1.27,0,0,1,1,.37,1.34,1.34,0,0,0,1.43.66,12.22,12.22,0,0,1,1.48-.07c4.45-.08,4.45-.08,5.16,3.14A3.08,3.08,0,0,1,18.44,40c-.65,1.15-.46,2.69-1.69,3.57-1.44.27-1.65-2.07-3.21-1.51.32-1.78-1-1.29-1.94-1.43A1,1,0,0,1,11.11,40.07Z"/><path class="cls-4" d="M10.67,21.91a3.49,3.49,0,0,1,3.63-2.14c1.52,0,3,0,4.55,0,.75,0,1.26-.15,1-1.06a3,3,0,0,1-.18-2c.92-.81,1.54,0,2.26.39a2.55,2.55,0,0,1,.86,2.15c0,.54,0,1.11.41,1.54a2.44,2.44,0,0,0,1.22.23,2.08,2.08,0,0,1,1.52.81c.29.79.19,1.66.45,2.47A1.91,1.91,0,0,1,26,25.7a1.13,1.13,0,0,1-.71.22,16.64,16.64,0,0,0-5.82-3.84,5.17,5.17,0,0,0-3.84-.95,5,5,0,0,0-1.84.26C12.76,21.84,11.93,23.14,10.67,21.91Z"/><path class="cls-5" d="M58.54,20.85c1.74-.79,2.59.18,3.2,1.62a1.58,1.58,0,0,1,.61,1.8A2.29,2.29,0,0,1,62,25c-.83.69-1.18,1.84-2.19,2.37-1.73.29-3.41,1.07-5.22.52a1.89,1.89,0,0,1-.74-.54c-.59-1.51-.85-2.95,1-3.81,1.24-.45,2.11,1,3.34.65a3.83,3.83,0,0,0,1-.57,1.86,1.86,0,0,0,.31-.74,1.56,1.56,0,0,0-.2-.52C59,21.92,58.19,21.69,58.54,20.85Z"/><path class="cls-6" d="M54.72,27.33l5.41-.56c.37-.84.66-1.75,1.62-2.15h0c.76-.27,0-3.53,2.15-1.07l0,4.85a4.37,4.37,0,0,1-.63.79,2,2,0,0,1-.67.23,4,4,0,0,1-2.49-.32c-1.64-1-3.71.19-5.31-1A.65.65,0,0,1,54.72,27.33Z"/><path class="cls-7" d="M28.42,11.72c2.39,0,5-1.21,7,1.08.56.4,1.18.8.53,1.6-.91.37-1,.86,0,1a29.12,29.12,0,0,0,3.74.07.78.78,0,0,1-.07.74c-1.45,1.24-3.6,0-5,1.41a16.08,16.08,0,0,1-3,2.31,1.19,1.19,0,0,1-1.3-.61c-.28-1.29.6-2.12,1.24-3a7.76,7.76,0,0,0,1.08-1.41c.46-1.11,0-1.66-1.1-1.79-.94-.11-1.94.15-2.83-.37A.83.83,0,0,1,28.42,11.72Z"/><path class="cls-8" d="M33.81,17.11c1.71-1.8,3.95-.82,5.94-1.14l.3.2c2.08.9,2.65,2.56,2.37,4.66l.62.11a.91.91,0,0,1,0,.74,5,5,0,0,1-1.51,1.24,2.31,2.31,0,0,1-.78.16,2.25,2.25,0,0,1-.77-.2,1.68,1.68,0,0,1-.8-1.27A3.34,3.34,0,0,0,38.44,19c-.45-1.22-1.41-1.4-2.52-1.23A2,2,0,0,1,33.81,17.11Z"/><path class="cls-9" d="M45.09,60.1c-1.62,2.61-4.24,3.06-7,3.22a1.43,1.43,0,0,1-.46-1,2,2,0,0,1,.23-.71,2.11,2.11,0,0,1,.82-.69c.82-.43.7-1.39,1.13-2a1.82,1.82,0,0,1,1.43-.81,1.51,1.51,0,0,1,.56.16c.23.24.48.08.74,0a1,1,0,0,1,.6.13,2.06,2.06,0,0,1,.44.49c.19.62.75.76,1.26,1Z"/><path class="cls-10" d="M30.07,55.81c-.09-2.37.52-4.87-1.25-6.94l.32-.24a1.68,1.68,0,0,1,1.16.22,3.48,3.48,0,0,1,.81.86c.55,1.4,1.22,2.13,2.63.71a4.3,4.3,0,0,1,2.15-1,1.64,1.64,0,0,1,1.12.3,1.16,1.16,0,0,1,.28.73,1.87,1.87,0,0,1-.52,1.05c-1.24,1.5-2.32,3.17-4.29,3.85-.48.25-1.06.16-1.54.43A.81.81,0,0,1,30.07,55.81Z"/><path class="cls-11" d="M58.54,20.85c.51.79,2,.27,2.12,1.57-.73,1-2.1.79-2.95,1.57a7.62,7.62,0,0,1-1.91.13c-2.43.11-1.32,2-1.55,3.15-1,.26-1.12-.48-1.32-1.13-.18-1.15-.67-2.34.43-3.32.24-.27.51-.53.75-.8a2.88,2.88,0,0,1,.56-.43,3.92,3.92,0,0,0,1.41-.94c.57-.52,1.14-1,1.91-.33Z"/><path class="cls-12" d="M65,24.62a2.68,2.68,0,0,1,.54,2A177.2,177.2,0,0,1,65,44.48c0,.08,0,.2,0,.25-.37.39-.39,0-.49-.22-1.55-2.46-.53-5.16-.76-7.75a31.57,31.57,0,0,0,.63-3.36c.78-1.94.22-4,.4-5.95C64.79,26.51,64.46,25.53,65,24.62Z"/><path class="cls-13" d="M28.42,11.72l.52.53a1,1,0,0,1,.33.62,1.39,1.39,0,0,1-.5.92,5.75,5.75,0,0,0-1.68,1.08,2.61,2.61,0,0,0-1.23,1.5,2,2,0,0,1-1,1,1.54,1.54,0,0,1-.74,0c-.61-.35-.75-1-1-1.57A2.46,2.46,0,0,1,23,15a3.13,3.13,0,0,1,1.73-2.29c.66-.16.56-.54.25-1a.5.5,0,0,1,.19-.54C26.49,10,27.41,11.14,28.42,11.72Z"/><path class="cls-14" d="M44,49.88l-.54,1.6-.51.05c-.36.94.57,1.89,0,2.83a1.47,1.47,0,0,1-.52.53,1.17,1.17,0,0,1-.74,0c-.57-.34-.85-1-1.31-1.39a2.75,2.75,0,0,1-.33-3c.67-1.44-.14-3.36,1.43-4.51a1,1,0,0,1,1.08.32C42.81,47.55,42.65,49,44,49.88Z"/><path class="cls-15" d="M62.83,46.13l0,1.09,0,0a1,1,0,0,1-1.4-.14c-.89-1.78-.42-3.68-.46-5.53-.08-3.3,0-6.6,0-9.91,0-1.3.14-2.56,1.86-2.7h0a1.51,1.51,0,0,1,.4.83c-.28,4.33-.06,8.67-.13,13a12.22,12.22,0,0,1-.23,2.9Z"/><path class="cls-16" d="M26.27,45.58c-1.26-.31-2.93.83-3.76-1a1.48,1.48,0,0,1,.67-1.23,7.57,7.57,0,0,0,2.05-2,1.87,1.87,0,0,1,.64-.4,1.46,1.46,0,0,1,1.13.22,2.71,2.71,0,0,1,.57,2.23,3.91,3.91,0,0,1-.14.76C27.12,44.68,26.94,45.32,26.27,45.58Z"/><path class="cls-17" d="M9.51,34.93a5,5,0,0,1-1-3.87A2.19,2.19,0,0,0,9,30.44a35.74,35.74,0,0,0,.12-3.87c.11-1.12.57-1.84,1.85-1.62,1.06.84,0,1.74.07,2.6a26.29,26.29,0,0,0,0,2.66,2.21,2.21,0,0,0,.91,2.19,1.22,1.22,0,0,1,.13.68c-.16.62-.72.83-1.19,1.12s-.78.33-1.13.57Z"/><path class="cls-18" d="M23.59,44l-1.08.56a6,6,0,0,1-7.18-1.16,2.62,2.62,0,0,0-2.3-.95l-.31-.11c0-.4.18-.62.61-.52,1.53-.31,2.26.9,3.23,1.67,1.94-.57,4,.46,5.92-.57a1.65,1.65,0,0,1,1.13.36A.5.5,0,0,1,23.59,44Z"/><path class="cls-19" d="M25.19,11.17v.53a1.9,1.9,0,0,1-.88,1.17c-.92.52-2,.77-2.61,1.77a3.12,3.12,0,0,1-.34.59,12.84,12.84,0,0,1-1.54,1.31c0,.72,0,1.45,0,2.18C17.91,14.42,21,11.18,25.19,11.17Z"/><path class="cls-20" d="M54.25,16.48A6.89,6.89,0,0,1,58,19.8a11.26,11.26,0,0,1-3.17.24,1.44,1.44,0,0,1-.51-.5,3.69,3.69,0,0,1-.29-.64c-.29-1-1.15-1-2-1A2.7,2.7,0,0,1,51,17.65a1.91,1.91,0,0,1-.53-.53l1-.62A2.47,2.47,0,0,1,54.25,16.48Z"/><path class="cls-21" d="M64.45,36.43c0,2.69,0,5.39,0,8.08l-1.08,1.07c-1.21-1.65-.07-3.43-.24-5.14-.14-1.49,0-3,0-4.51.12-1.13-.3-2.39.84-3.25h.48c.35.34.28.78.29,1.21C64.6,34.74,64.94,35.63,64.45,36.43Z"/><path class="cls-22" d="M44,19.61c1.37-.57-.28-2.91,1.8-2.89.93,0,.91,1,.86,1.66C46.54,20.24,45.15,19.58,44,19.61Z"/><path class="cls-23" d="M28.82,48.87l-.92-.61c-.5-1.29-1-2.58-.61-4,.61-1.15-.21-2.84,1.37-3.62a1.17,1.17,0,0,1,1,.79c.14.56.44,1.07.55,1.63.24,1.43-.64,2.73-.44,4.15a2,2,0,0,1-.6,1.53Z"/><path class="cls-24" d="M9.09,31l-.54,0c-.09-2.81-.48-5.68,1.52-8.1,1.32-.26,1.14.85,1.43,1.55l-.06.35-.24.27a1.75,1.75,0,0,0-1.63,1.69C8.94,28.17,9.75,29.68,9.09,31Z"/><path class="cls-25" d="M42.91,21.37c0-.14.08-.29.13-.43l2.62-.65c.5.5.5,1.3,1,1.78a2.45,2.45,0,0,1,.57,1.33c0,.8-.05,1.57-.87,2C43.7,25.39,43.35,23.35,42.91,21.37Z"/><path class="cls-26" d="M39.75,16a2.7,2.7,0,0,0,0-.49c-.29-1-1.28-1.69-1.33-2.94,1.4-.39,2.07.71,2.94,1.33a1.18,1.18,0,0,1,0,1.63L40.19,16q-.19.47-.45,0Z"/><path class="cls-7" d="M39.74,16l.45,0a2.2,2.2,0,0,0,.43.27c2.49.81,3.12,2.33,1.8,4.61A8.43,8.43,0,0,0,39.74,16Z"/><path class="cls-15" d="M63.87,35.91a53,53,0,0,1-.51,9.67l-.53.55,0,0c-.51-1.15-.16-2.36-.23-3.53.49-1.88.12-3.8.27-5.7a1.72,1.72,0,0,1,.26-.82A.54.54,0,0,1,63.87,35.91Z"/><path class="cls-27" d="M11.13,24.63c-.84-.25-.53-1.22-1.06-1.67l.6-1.05c1.35.31,1.7-1.21,2.73-1.48.38.31.82.57.92,1.11a1.5,1.5,0,0,1-.25,1.07,2.94,2.94,0,0,1-1.21.81C12.25,23.78,11.93,24.55,11.13,24.63Z"/><path class="cls-28" d="M64.46,33.76c0-.36,0-.72,0-1.07.38-2.68-.72-5.46.56-8.07v9.14Q64.72,34.28,64.46,33.76Z"/><path class="cls-29" d="M50.5,17.12l.53.06c.84,1.51-1,1.66-1.3,2.6-.45.89-.78,1.91-2,2a1.13,1.13,0,0,1-.65-.37.8.8,0,0,1,.23-1C48,18.89,48.74,17.53,50.5,17.12Z"/><path class="cls-30" d="M38.09,62.23v1.09c-1.07,0-2.14,0-3.21,0-.66,0-1-.37-.53-1C35.6,61,36.84,60.84,38.09,62.23Z"/><path class="cls-2" d="M30,59l2.07,1.11c.16.09.23.19.21.31s-.07.19-.11.19c0,.75,0,1.6-1.16.81A7.87,7.87,0,0,1,29,59,.71.71,0,0,1,30,59Z"/><path class="cls-31" d="M45.08,52.57c1.55,1.64,1.56,5.54,0,7.53h0c-.94-2.05.24-4.27-.52-6.34A1.93,1.93,0,0,1,45.08,52.57Z"/><path class="cls-32" d="M27.9,44v4.28l-.57-1.07c-.67-1-1.17-2-.52-3.22h0c.57-.81.06-1.76.37-2.61a.65.65,0,0,1,.72-.09A3.25,3.25,0,0,1,27.9,44Z"/><path class="cls-33" d="M54.67,19.72A3.44,3.44,0,0,1,58,19.8c0,.17,0,.35,0,.52-.77,0-1.1.68-1.61,1.08a5.38,5.38,0,0,1-1.83-.1,1.3,1.3,0,0,1-.55-.49C53.89,20.24,54,19.78,54.67,19.72Z"/><path class="cls-34" d="M38.09,62.23H34.36v-.54a2.49,2.49,0,0,0,.42-.56c.24-.68.37-1.43,1.13-1.78a1.52,1.52,0,0,1,1.38.39,4.19,4.19,0,0,1,.79,1.63c0,.12,0,.24.05.36S38.11,62.06,38.09,62.23Z"/><path class="cls-15" d="M63.87,35.91h-.51c-1.11-2.07-.25-4.31-.54-6.45v-.53l1-.53.06,4.28Z"/><path class="cls-35" d="M47.28,20.36l-.12,1.05c0,.63-.51.86-1,1.09C45,23,44.43,22.76,45,21.4a8.92,8.92,0,0,1,.65-1.11Z"/><path class="cls-36" d="M34.9,61.69h-.54c.19-2.22-1.55-.5-2.17-1.06a4.42,4.42,0,0,0-.1-.5c0-.21.11-.43.16-.65a1.93,1.93,0,0,1,3-.46,1.35,1.35,0,0,1,.35.64A13.15,13.15,0,0,1,34.9,61.69Z"/><path class="cls-37" d="M41.32,15.5V13.87l2.47,2.32A1.68,1.68,0,0,1,41.32,15.5Z"/><path class="cls-38" d="M13,42.42c-1.53.33-2.14,3.37-4.43,1.52.16-.17.33-.33.5-.49.8-.33,1-1.36,1.87-1.62a1.56,1.56,0,0,1,1.77.45Z"/><path class="cls-39" d="M63.9,23.55c-1.46-1.14-1.12,1.34-2.15,1.07,0-.72,0-1.43,0-2.15C63,21.72,63.55,22.45,63.9,23.55Z"/><path class="cls-3" d="M9.27,43.83l-.67.11c-.48-2.14.29-3.48,2.51-3.87.08.11.17.21.25.31a1.26,1.26,0,0,1-.32,1C10,41.87,10.05,43.14,9.27,43.83Z"/><path class="cls-40" d="M30.07,55.81l.49-.56c1.1-.14,1.46.54,1.63,1.44a1.59,1.59,0,0,1-.84,1.37.6.6,0,0,1-.74-.17A3.2,3.2,0,0,1,30.07,55.81Z"/><path class="cls-41" d="M35.42,59.55a5.61,5.61,0,0,0-3.17-.07,1.14,1.14,0,0,0-.14-.43.68.68,0,0,1,.06-.79,2.53,2.53,0,0,1,2-.56,2.93,2.93,0,0,1,1.61.33,1.08,1.08,0,0,1,.41.68C36.16,59.2,35.79,59.38,35.42,59.55Z"/><path class="cls-42" d="M45.08,52.57l0,1.11c.46.87.14,1.8.23,2.7A.83.83,0,0,1,45,57a1,1,0,0,1-.73-.2,2.09,2.09,0,0,1-.5-1.43c.05-.75-.28-1.48-.18-2.23a1.61,1.61,0,0,1,.44-.6Z"/><path class="cls-43" d="M54.25,16.48l-2.72,0C52.43,15.47,53.33,14.84,54.25,16.48Z"/><path class="cls-44" d="M44,52.57c0,.17,0,.33,0,.5-.49.58-.21,1.94-1.61,1.63.08-1.08-.34-2.25.58-3.17Z"/><path class="cls-31" d="M46.16,51.5a6.24,6.24,0,0,1,3.23,1.61A3.58,3.58,0,0,1,46.16,51.5Z"/><path class="cls-45" d="M26.81,44c.18,1.08.35,2.15.52,3.22a1.82,1.82,0,0,1-1.06-1.61A1.93,1.93,0,0,1,26.81,44Z"/><path class="cls-46" d="M30,59H29l.24-1.53C30,57.74,29.9,58.43,30,59Z"/><path class="cls-47" d="M35.94,14.4l-.53-1.6c.54.08,1.12.18,1.29.77S36.39,14.31,35.94,14.4Z"/><path class="cls-48" d="M32.13,58.55a2.75,2.75,0,0,1,0,.5c-.78,0-1.46-.19-1.5-1.16h.53C31.72,57.73,32,58,32.13,58.55Z"/><path class="cls-49" d="M29.24,54.65a1.06,1.06,0,0,1,0-1.46A1.06,1.06,0,0,1,29.24,54.65Z"/><path class="cls-50" d="M63.91,48.29l-.55-1.1C64.7,47,64.33,47.62,63.91,48.29Z"/><path class="cls-51" d="M56.91,51.5a3.71,3.71,0,0,1-2.19.49c-.31-.86.26-1.4.71-2a4.29,4.29,0,0,0,.67-2.56c0-3.94-.08-7.88,0-11.82,0-1.83-1.71-3.23-1-5.13,1.86-.82,3.63-2.06,5.84-1.22.83.7.47,1.66.47,2.51,0,4.82,0,9.64,0,14.45-.15.85.44,1.4.81,2l-.54.54c-.67.46-1.14.12-1.57-.39-.69-3.62-.14-7.28-.31-10.92a17.27,17.27,0,0,0-.29-3.92c-.28,4.13-.26,8.27-.24,12.4a10.72,10.72,0,0,1-.55,3.94C58.6,51,57.46,50.88,56.91,51.5Z"/><path class="cls-52" d="M58.52,50.42c0-5.43,0-10.86,0-16.29a4.43,4.43,0,0,1,2.16-4.23V48.27c-1.47-.26-.75-1.42-.77-2.14-.07-4.37,0-8.75,0-13.13-.27,0-.31,0-.31,0a92.77,92.77,0,0,1,.05,16.33l-.54,1.07A.3.3,0,0,1,58.52,50.42Z"/><path class="cls-53" d="M55.83,50.94,54.72,52a4.26,4.26,0,0,0-.5.06,3.48,3.48,0,0,1-2.67,0l-1-.08a.58.58,0,0,1,.06-.81,2.18,2.18,0,0,1,1.26-.5c1.69-.09,2.2-1,2.16-2.64-.08-4.36,0-8.73,0-13.09a7,7,0,0,0-.77-2.76c-.42-1-.71-2.35,1.3-1.63A8.53,8.53,0,0,1,56.41,37c-.14,3.62,0,7.26,0,10.89A4.93,4.93,0,0,1,55.83,50.94Z"/><path class="cls-54" d="M59.6,49.35V32.55h.54c0,4,0,8.08,0,12.12,0,1.21-.36,2.51.52,3.61l1.08.54C61.15,49.47,60.35,49.32,59.6,49.35Z"/><path class="cls-55" d="M44,49.88c-2.83.13-2.3-1.51-1.67-3.19a1.92,1.92,0,0,1,1.55.59,2,2,0,0,1,.65,1.53Z"/><path class="cls-31" d="M48.27,51a3.54,3.54,0,0,1-3.22-2.16l.27-.23a2.5,2.5,0,0,1,1.74.22A3,3,0,0,1,48.42,50a1.23,1.23,0,0,1,.08.71Z"/><path class="cls-56" d="M62.29,48.27a1.11,1.11,0,0,1-1.07-1.08c.17-.35.35-.35.53,0h1.08Z"/><path class="cls-31" d="M50.45,51.5a4.4,4.4,0,0,0,0,.51,2.17,2.17,0,0,1-2.23-1l.07-.09C49.27,50.3,50,50.4,50.45,51.5Z"/><path class="cls-54" d="M58.52,50.42h.54a3.24,3.24,0,0,1-2.15,1.08A1.82,1.82,0,0,1,58.52,50.42Z"/><path class="cls-31" d="M51.55,52.09l2.67,0A2,2,0,0,1,51.55,52.09Z"/><path class="cls-31" d="M44.54,48.81l-1.07-1.07a.39.39,0,0,1-.19-.4c0-.15.06-.23.11-.23.92-.35,1.46.13,1.87.87a1.05,1.05,0,0,1-.07.74l-.14.13Z"/><path class="cls-57" d="M18.15,39.21c.06-3.71-2.58-2.8-4.72-2.76-.4-.27-.85-.5-.74-1.11.42-.76,1.27-1,1.83-1.64a1.62,1.62,0,0,1,.64-.25h.35a2.44,2.44,0,0,1,.63.25c.58.43,1.29.3,1.94.43.9.13,1.51.84,2.34,1.14a5.73,5.73,0,0,1,2.71,5.25,2.48,2.48,0,0,1-.62,1.09,1.23,1.23,0,0,1-1.13.33,1.71,1.71,0,0,1-.52-.55,8.5,8.5,0,0,0-.78-2.24c-.79-.55-.78.56-1.28.61S18.09,39.71,18.15,39.21Z"/><path class="cls-58" d="M22.55,43.52c-2,1.32-4,.94-6-.06a10.58,10.58,0,0,1,1.1-3.81c.65.48,1,1.26,1.6,1.76a4.92,4.92,0,0,1,.37.56c.77,1.13,2.26-.12,3.05.92A.57.57,0,0,1,22.55,43.52Z"/><path class="cls-59" d="M10.74,40.82l.62-.44c1.37-.5,2.69-1.38,4.41-.58-.53,1.15-1.83,1.17-2.44,2l-.59.49-2.05.08A1,1,0,0,1,10.74,40.82Z"/><path class="cls-60" d="M10.14,33.75a2,2,0,0,1,1.61-.53A1.31,1.31,0,0,1,13,34.74c-.53.49-.76,1.2-1.27,1.71-1.27.73-1.07-.73-1.61-1.08A1.81,1.81,0,0,0,10.14,33.75Z"/><path class="cls-61" d="M18.73,41.83a2.11,2.11,0,0,1-1.07-2.18l.49-.44.6.46a1.46,1.46,0,0,1,1.35,2C19.71,42.23,19.22,42,18.73,41.83Z"/><path class="cls-62" d="M10.14,33.75c1.52.53.8,1.08,0,1.62l-.47-.6Z"/><path class="cls-63" d="M11.76,36.45c0-.75.08-1.44,1-1.61a.37.37,0,0,1,.23.46c.15.38.3.76.44,1.15Z"/><path class="cls-64" d="M25.79,25.58l-.08-1.5c-.4-2.48,1.27-3.45,3.16-4,1.61-.46,1.87.84,1.93,2.07.08,1.47-.79,2.93-.08,4.41a8.63,8.63,0,0,1,.11,1.76,3.46,3.46,0,0,1-.39,2c-2.05-.77-.86,1.71-1.93,1.92a1,1,0,0,1-.75,0c-1-.82-.4-2.24-1.12-3.17a8.92,8.92,0,0,1-.92-2A2.6,2.6,0,0,1,25.79,25.58Z"/><path class="cls-65" d="M20,21.33c2.2.9,4.35,1.84,5.27,4.3a.92.92,0,0,1,.13,1.06c-1.32.7-1.14-1.07-2-1.19a1.9,1.9,0,0,1-.34-.41c-.3.2-.44-.18-.09-.11s-.1,0,.14.23.87.64,1,1.24a1.62,1.62,0,0,1-.33,1.49c-.5.33-1.16.39-1.44-.07-1.25-2-3.45-3.26-4.49-5.45a1.64,1.64,0,0,1,.16-.84C18.57,20.88,19.26,21.08,20,21.33Z"/><path class="cls-66" d="M30,26.79c-.84-1.13-.44-2.32-.19-3.52.17-.83.62-1.92-.26-2.38-.47-.24-1.46.31-2.12.68a3.66,3.66,0,0,0-1.74,2.51c-1.42-.74-.58-1.49,0-2.24-.32-1.15.36-1.87,1.13-2.55,1.21-.17,2.42-1,3.65-.06l1.05.57.29.27a1.29,1.29,0,0,1,0,.8,9,9,0,0,0-.4,3.34C31.33,25.29,31.22,26.32,30,26.79Z"/><path class="cls-67" d="M25.15,26.77l.09-1.14.55-.05c.17.4.35.79.52,1.18,1,3.1,1.81,6.22.87,9.5a.88.88,0,0,1-.86.33c-.8-.49-.8-1.31-.84-2.1,0-1.05,0-2.1-.08-3.14C25.28,29.82,24.2,28.35,25.15,26.77Z"/><path class="cls-68" d="M26.85,19.88c-.38.66-.77,1.31-1.16,2l-1.57-.43c-1-.26-1.19-1-1.19-1.9a8.9,8.9,0,0,1,.62-1.89,1.51,1.51,0,0,1,.59-.5,3.93,3.93,0,0,1,.48-.06c.86.63,1.32,1.7,2.35,2.15A.61.61,0,0,1,26.85,19.88Z"/><path class="cls-69" d="M24.14,17.12a2.07,2.07,0,0,1-.06.5,4,4,0,0,0-.76,2.08c-.3.56.68,1.71-.8,1.72A1,1,0,0,1,22,19.78c.71-1.35-.53-3.49,1.7-4.22C24.14,16,24.08,16.57,24.14,17.12Z"/><path class="cls-70" d="M20,21.33a2.39,2.39,0,0,0-1.78.63,2.88,2.88,0,0,1-2.3,0,1.77,1.77,0,0,1-.58-.54,1,1,0,0,1,.22-1.1A5.32,5.32,0,0,1,20,21.33Z"/><path class="cls-13" d="M23.67,15.56C23.1,17,22.53,18.37,22,19.78c0-.74.15-1.52-.46-2.12a1.29,1.29,0,0,1-.21-1.28,2.09,2.09,0,0,1,.35-.59,2,2,0,0,1,1.21-.61,1.19,1.19,0,0,1,.63.21Z"/><path class="cls-71" d="M21.9,16.52l-.39,1.14-1.68-1.12c.06-.73-.22-1.66,1-1.68C21.75,15.05,21.57,16,21.9,16.52Z"/><path class="cls-72" d="M22.52,21.42c.66-.6.51-1.41.55-2.16a.34.34,0,0,1,.55,0c.17.72.33,1.43.5,2.15C23.59,22.87,23.05,21.74,22.52,21.42Z"/><path class="cls-73" d="M15.53,20.35v1a1.11,1.11,0,0,1-1.59,0l-.54-1Z"/><path class="cls-74" d="M57.37,23.56c.62-1.75,2.17-.84,3.29-1.14V23c-.25.31-1.06.35-.53,1.05-.33.82-.91.9-1.63.56C57.62,24.8,57.29,24.4,57.37,23.56Z"/><path class="cls-75" d="M57.37,23.56l1.13,1.07c-1.45,2.69-1.73-.69-2.7-.51A1.75,1.75,0,0,1,57.37,23.56Z"/><path class="cls-76" d="M53.7,25.69c0,.59,0,1.19.55,1.58a2,2,0,0,0,.47.06c0,.16.05.32.07.48a.68.68,0,0,1-.08.76,1.82,1.82,0,0,1-1.5.52,1.61,1.61,0,0,1-1.32-.81,1.68,1.68,0,0,1,0-1.17,3.08,3.08,0,0,1,.81-1.29A.82.82,0,0,1,53.7,25.69Z"/><path class="cls-77" d="M60.13,24.07c-.57-.14-1.25-.07-1.58-1.05h2.11C60.49,23.37,60.31,23.72,60.13,24.07Z"/><path class="cls-39" d="M61.75,24.62l-1.62,2.15C60.12,25.64,60.44,24.76,61.75,24.62Z"/><path class="cls-78" d="M61.75,47.2h-.53c0-5,0-10,0-15,0-1,.22-2-.55-2.79l-.18-.27.2-.25c.72.06,1.44-.77,2.15,0-1.26.71-1.07,1.93-1.07,3.07C61.74,37.06,61.75,42.13,61.75,47.2Z"/><path class="cls-20" d="M54.77,28.37c0-.18,0-.37,0-.56,1.91.63,4.28-1.14,5.88,1.11h0a10.82,10.82,0,0,0-3,1.27c-.62-.1-1-.6-1.53-.86a2.93,2.93,0,0,1-1.21-.63C54.87,28.58,54.82,28.48,54.77,28.37Z"/><path class="cls-79" d="M33.81,17.11c1.93.11,4.34-1.41,5.41,1.59a4.88,4.88,0,0,1-.59.52c-2.29-.36-4.49.44-6.75.51a1.53,1.53,0,0,1-.36.07C31.77,18.47,33.19,18.13,33.81,17.11Z"/><path class="cls-80" d="M29,12.81l0-.56a11.76,11.76,0,0,1,3.37.12c1.53.5,2.72,1.46,1,3.15A10.53,10.53,0,0,1,31.78,15a7.75,7.75,0,0,1-1.24-1.05C30,13.59,29.34,13.41,29,12.81Z"/><path class="cls-79" d="M26.85,19.88l-.05-.67c-.11-1.17.84-1.14,1.55-1.37,1.12-.27,1.81-1.32,2.92-1.63a1.57,1.57,0,0,1,.74.13l.25.29c-.6.86-1.19,1.73-1.79,2.6Z"/><path class="cls-79" d="M32.17,14.42a1.16,1.16,0,0,1,1.13,1.1l-1,1.11-.16-.16A1.51,1.51,0,0,1,32.17,14.42Z"/><path class="cls-81" d="M42.91,21.37c1.56,1,1.64,3.36,3.71,3.84l.41-.07a5,5,0,0,1,4.12,2.39,2.59,2.59,0,0,0,.23.76c.73,1.06,1.34,2.2.33,3.34s-2.21.8-3.36.14a1.44,1.44,0,0,1-.74-.93c0-2-.91-2.74-3.55-2.63a2.05,2.05,0,0,1-1.43-.42c-.8-.94-2.19-1.29-2.61-2.61a1.34,1.34,0,0,1,.39-1c.64-.4,1.17-.86.86-1.74A2.44,2.44,0,0,1,42.91,21.37Z"/><path class="cls-82" d="M39.71,21.41l.57,1.07c.47.9-.25,1.44-.63,2.09a3.72,3.72,0,0,1-2,1.86c-1.35.51-2.69.88-3.87-.35a1.3,1.3,0,0,1-.28-.77,2.1,2.1,0,0,1,1.11-1.55c.69-.44,1.63-.21,2.26-.83a4,4,0,0,1,.79-.64C38.35,22,38.7,20.93,39.71,21.41Z"/><path class="cls-83" d="M39.71,21.41c-.6.47-.82,1.35-1.68,1.54-1-1.29.44-2.46.18-3.72a2.58,2.58,0,0,1,.46-.53h.55C40.07,19.48,40.77,20.29,39.71,21.41Z"/><path class="cls-84" d="M41.27,22.42c.46.28,1.49-.14,1.33.85s-.91,1.24-1.77,1.32a1.39,1.39,0,0,1,0-2.05A.93.93,0,0,1,41.27,22.42Z"/><path class="cls-85" d="M40.81,22.54c0,.68,0,1.37,0,2.05l-.6.42a.52.52,0,0,1-.59.28c-.44-.29-.73-.64-.5-1.2l1.14-1.61Z"/><path class="cls-86" d="M42.38,54.7c.59-.49.49-1.67,1.61-1.63a3.76,3.76,0,0,1,.52,2.24c-.52.48-.35,1,0,1.49l.16.12c0,1.15-.48,1.76-1.69,1.63a4.41,4.41,0,0,0-.52,0,.42.42,0,0,1-.63,0l.08-.13a5.37,5.37,0,0,0-.57-.5c-1.64-.57-3.35-.17-5-.33a1.79,1.79,0,0,1-1.48-.71,1,1,0,0,1,.51-1.11c1.2-.55,2.53-.1,3.75-.49s2.29,0,3.32-.64Z"/><path class="cls-87" d="M45,56.82c0-1,.06-2.09.08-3.14,1,2.15.49,4.28,0,6.41-1.27.75-2.37,1.16-2.14-1.07A13.25,13.25,0,0,0,45,56.82Z"/><path class="cls-88" d="M41.86,58v.52L40.27,59c-.43.39-.22,1.3-1.08,1.32A1.41,1.41,0,0,1,38,59.5a1.54,1.54,0,0,1,.81-1.67C39.82,57.55,40.9,56.43,41.86,58Z"/><path class="cls-89" d="M39.19,60.07l1.08-1c-.17,1,.49,2.27-1.09,2.66A1.11,1.11,0,0,1,39.19,60.07Z"/><path class="cls-90" d="M39.19,60.07c0,.54,0,1.08,0,1.62l-1,0L38,61.65a1.52,1.52,0,0,1-.2-1.82l.31-.24Z"/><path class="cls-74" d="M45,56.82a2.78,2.78,0,0,1-2.1,2.2c0-.15,0-.31,0-.47l1.69-1.63Z"/><path class="cls-91" d="M41.78,58.61l.63,0c-.17.58.29,1.7-.66,1.56C41,60,41.66,59.15,41.78,58.61Z"/><path class="cls-92" d="M29.15,48.72,29,47.21c.66-1,.79-2.57,2.57-2.13,1.47.36,1.42,1.63,1.53,2.78a1.23,1.23,0,0,1-.37.69c-.77.65-1.89.18-2.68.79Z"/><path class="cls-93" d="M36,49.87c-.64.43-1.33.82-1.93,1.31-2.48,2-2.48,2-3.45-1.17a3,3,0,0,0,.25-.25,2.55,2.55,0,0,1,1.26.47.77.77,0,0,0,.47-.22c.2-.39.27-.81.48-1.18a1.27,1.27,0,0,1,.61-.38,3.42,3.42,0,0,1,1.45.26A1.43,1.43,0,0,1,36,49.87Z"/><path class="cls-94" d="M32.16,55.27c0-.25,0-.71.12-.74,1.88-.64,2.49-2.73,4.15-3.61,1.36,1.51.9,2.74-.59,3.81-.84.35-1.83.17-2.63.7a1.55,1.55,0,0,1-.74.06Z"/><path class="cls-94" d="M36,49.87l-1.08-.53c-.74-1.29-1.58-2.56-1.12-4.18a1.92,1.92,0,0,1,.58-.52,1.88,1.88,0,0,1,1.17-.1,2.05,2.05,0,0,1,.66.4c.81,1.31.36,2.94,1,4.29a1,1,0,0,1-.23.69Z"/><path class="cls-95" d="M34.85,54.25c2-.42,1.6-2,1.58-3.33.2-.16.4-.32.61-.47a1.22,1.22,0,0,1,1.29.6,2,2,0,0,1,.18.76,5,5,0,0,1-1.11,3A1.88,1.88,0,0,1,35,55,.6.6,0,0,1,34.85,54.25Z"/><path class="cls-96" d="M31.66,56.92a1.86,1.86,0,0,0-1.1-1.67c.57-2.45,1.06.53,1.6,0h0c.74.36,1.12.85.65,1.68A1,1,0,0,1,31.66,56.92Z"/><path class="cls-97" d="M30,49.34c-.51-2.76,1.45-.52,2.06-1,.42,1.46-.75,1.28-1.53,1.49l0,.2C30.4,49.79,30.22,49.56,30,49.34Z"/><path class="cls-98" d="M38.1,51,37,50.45c0-.18,0-.36,0-.53s0-.37,0-.55l.27-.26a1.17,1.17,0,0,1,1.06.11c.54.5.69,1,.12,1.6Z"/><path class="cls-99" d="M53.7,25.69l-.59.6c-1.64-.08-2.29-1.46-3.22-2.47a1,1,0,0,1,.16-1.16,2.66,2.66,0,0,1,1.69-.44c.9,0,1.87-.14,2.49.8C53.07,23.71,53.56,24.73,53.7,25.69Z"/><path class="cls-100" d="M54.23,23l-2.63-.08a1.18,1.18,0,0,1-.42-1.41A1.53,1.53,0,0,1,51.7,21a1.79,1.79,0,0,1,1.83.08c0,.76.69,1,1.17,1.41Z"/><path class="cls-101" d="M54.71,20.84c.62,0,1.46-.68,1.67.56-.32.65-.75,1-1.5.64a.74.74,0,0,1-.42-.54A1.06,1.06,0,0,1,54.71,20.84Z"/><path class="cls-102" d="M54.76,21.35l.12.69a1.2,1.2,0,0,1-.18.4c-.6-.09-1.49.11-1-1A.74.74,0,0,1,54.76,21.35Z"/><path class="cls-103" d="M64.46,33.76H65c-.06.91.23,1.89-.52,2.67C64.45,35.54,64.46,34.65,64.46,33.76Z"/><path class="cls-104" d="M23.49,15.39a1.42,1.42,0,0,1-.46.06,9.29,9.29,0,0,0-1.53-.63,2.34,2.34,0,0,1-.55-.38c.39-1.64,1.88-1.77,3.12-2.24,1.08-.33,1.58-.07,1.13,1.13A3.23,3.23,0,0,0,23.49,15.39Z"/><path class="cls-105" d="M29,18.69c-.74.08-1.55-.15-2.15.52-2.81,1.4-1.84-1-2.18-2.15l.59-1a.53.53,0,0,1,.64-.12,2.16,2.16,0,0,1,.47.53c.34.89,1.17.93,1.93,1.09C28.71,17.78,29.16,18,29,18.69Z"/><path class="cls-106" d="M25.2,13.33c0-.71-.52-1-1.13-1.13l1.13-.5c.49.19,1.4-.39,1.44.43C26.66,12.73,26,13.26,25.2,13.33Z"/><path class="cls-107" d="M29,12.81c.77,0,1.57-.16,2.19.48-.06.13-.12.25-.17.37a1.76,1.76,0,0,1-2.53.42.5.5,0,0,1,0-.71Z"/><path class="cls-106" d="M25.7,16a4,4,0,0,1-.49,0,1.91,1.91,0,0,1,1.46-1.76l.29.11a1,1,0,0,1,.13.6,1.52,1.52,0,0,1-.49.79A1.25,1.25,0,0,1,25.7,16Z"/><path class="cls-106" d="M28.44,13.37c0,.16,0,.33,0,.5-.28.75-.74,1.06-1.51.64l-.24-.24A1.49,1.49,0,0,1,28.44,13.37Z"/><path class="cls-108" d="M34.87,54.73c.76,0,1.56.13,2.16-.53,1.25-.55.46-1.9,1.06-2.71a4.64,4.64,0,0,0,0-.53l0,0a2.67,2.67,0,0,1,1.52-.83,1.71,1.71,0,0,1,1.14.8c-.51.89-.51,1.65.53,2.15-.24,2.2-2.23,2-3.64,2.61-.69.28-1.55,0-2.3.29s-1.43.07-1.74-.8C33.8,54.43,34.22,54.28,34.87,54.73Z"/><path class="cls-109" d="M35.4,55.82c2-.91,4.21-1.24,5.92-2.71a1.82,1.82,0,0,1,.54,1.58c-.38,1-1.51,1-2.15,1.63l-4.27,0c-.21-.09-.28-.19-.22-.3S35.33,55.82,35.4,55.82Z"/><path class="cls-87" d="M40.79,51l-1.08-.52c0-.12,0-.24,0-.35.59-1.94-1-2.64-2.07-3.63-.55-1.41.4-2,1.42-2.51a2.6,2.6,0,0,1,1.27,0c.89.46,1.92.82,1.56,2.18C40.75,47.56,41.84,49.5,40.79,51Z"/><path class="cls-110" d="M41.87,46.12l-1.63-1.6c-2.31-1.91-2.49-3.29-.79-5.82,1.69-.33,1.57,1,1.56,1.92a4.69,4.69,0,0,0,1.8,3.86c.57.78,1.48,1.48.7,2.62l0,.64-1.13-1.05Z"/><path class="cls-44" d="M39.71,56.32c.43-.91,1.39-1.14,2.15-1.63h.51A3.06,3.06,0,0,1,39.71,56.32Z"/><path class="cls-111" d="M62.82,29.46c1.11,2.07.28,4.31.54,6.45v.53c-.73,1.92.19,4-.53,5.92,0,1.24,0,2.48,0,3.73-1-1.66-.54-3.49-.48-5.22C62.46,37.07,61.68,33.22,62.82,29.46Z"/><path class="cls-112" d="M26.33,36.48l.41-.06a1.4,1.4,0,0,1,.78,1,6.52,6.52,0,0,1,.05,1.71c0,1.24-1.08,1.55-1.81,2.18a.57.57,0,0,0-.09.36,1.13,1.13,0,0,1-1.44.93,1.17,1.17,0,0,1-.45-.6,2.29,2.29,0,0,1,.57-1.73c.2-.7.77-1.21,1-1.9S25.48,36.83,26.33,36.48Z"/><path class="cls-32" d="M25.76,41.3l1.09-2.19c.51-.49,1-1,1.78-.46.78,1.45-.36,2-1.26,2.63l0,0c-.17.34-.35.34-.53,0Z"/><path class="cls-45" d="M24.17,42.46l1.5-.8c0,1.36-1.26,1.65-2.08,2.31,0-.19,0-.39,0-.59C23.37,42.81,23.64,42.55,24.17,42.46Z"/><path class="cls-45" d="M26.8,41.32a4.7,4.7,0,0,1,.53,0c0,.92.24,1.9-.52,2.67C26.81,43.09,26.8,42.2,26.8,41.32Z"/><path class="cls-113" d="M13,35.3a1.05,1.05,0,0,0-.23-.46c-.33-.54-.67-1.08-1-1.62l0-.54a1.9,1.9,0,0,1-.55-2,1.93,1.93,0,0,1,.83-.95,1.78,1.78,0,0,1,.82-.14c1.5.27,1.72,1.54,2.12,2.69a2.31,2.31,0,0,1-.08,1.51C15.07,35.35,14.07,35.38,13,35.3Z"/><path class="cls-114" d="M12.42,30.07l-.58.5a1.06,1.06,0,0,1-1.2.09c-.57-1.05.15-2.29-.47-3.33-.05-.92.73-1.44,1-2.2l0,0c1-.13,1,.62,1.19,1.27A5.74,5.74,0,0,0,12.42,30.07Z"/><path class="cls-115" d="M10.69,30.53l1.15,0c0,.7-.05,1.41-.07,2.11-1.58,0-1.69-1-1.6-2.16C10.35,30.17,10.52,30.18,10.69,30.53Z"/><path class="cls-116" d="M9.09,31c.15-1.41-.43-2.9.48-4.21C9.45,28.22,10.07,29.72,9.09,31Z"/><path class="cls-117" d="M10.69,30.53h-.52V27.33C11,28.29,10.57,29.46,10.69,30.53Z"/><path class="cls-118" d="M24.17,42.46c-.2.31-.41.61-.62.92l-1,.14c0-.2,0-.4,0-.61a11.69,11.69,0,0,1-.42-1.57l.31-.66c.78-.29-.09-1.69,1.14-1.68a1.5,1.5,0,0,1,.56.53c.49.74-.22,1.5,0,2.25Z"/><path class="cls-119" d="M21,14.44a2,2,0,0,0,.49,0c1.32.17.88.93.57,1.65a1.67,1.67,0,0,1-.11.44,2.09,2.09,0,0,1-1.06-1.66A1,1,0,0,1,21,14.44Z"/><path class="cls-120" d="M54.67,19.72l-.58,1.05c-.71.82-1.81,0-2.58.59l0,0a.69.69,0,0,1-.76.13,1.56,1.56,0,0,1-.7-2.1,1.28,1.28,0,0,1,.57-.51,2.05,2.05,0,0,1,.74-.07,4.56,4.56,0,0,0,2.43-.07,1.18,1.18,0,0,1,.92.53C54.72,19.45,54.7,19.59,54.67,19.72Z"/><path class="cls-99" d="M52,17.12a5,5,0,0,1,3,.53c.81.44.12.77-.23,1.08-1,.21-2,.66-3-.11A1.31,1.31,0,0,1,52,17.12Z"/><path class="cls-121" d="M52,17.12,52,18.64c-.15.51-.72.27-1,.57a1.8,1.8,0,0,1-.41.14,1.54,1.54,0,0,1-1.06.3,1.76,1.76,0,0,1-.63-.41c.32-1.1,2-.83,2.16-2.06Z"/><path class="cls-122" d="M51,19.21l1-.57a3.84,3.84,0,0,1,2.81.09l0,.58-1.06-.06a1.85,1.85,0,0,1-2.14,0Z"/><path class="cls-123" d="M33.81,48.8h-.53c-.5.17-.67,0-.58-.52-1.1-3.19-1.1-3.19-3.72-1.07-.25-1.5.45-2.87.55-4.32a1.24,1.24,0,0,1,1.14,0,.6.6,0,0,0,.69-.26c.21-.9-.14-2,.9-2.57a1.1,1.1,0,0,1,.75.16c.71,1.56,2.13,2.91,1.35,4.87l0,0c-.5.38-1.05.73-.63,1.51A2,2,0,0,1,33.81,48.8Z"/><path class="cls-124" d="M30.62,43.91l-1.09-1-.52-1a4.47,4.47,0,0,0,.25-2c.06-1,.18-2.13,1.46-2s1.94,1,1.46,2.41C31.54,41.4,33.81,43,31.64,44,31.34,42.9,31,43.15,30.62,43.91Z"/><path class="cls-125" d="M32.18,40.22c-.48-.67-.49-2-1.63-1.78-.85.14-.38,1.24-.67,1.84s-.58,1.09-.87,1.63c0-.4-.05-.8-.07-1.2-.65-.7.17-1.77-.62-2.44a1.52,1.52,0,0,1-.25-.74,1.93,1.93,0,0,1,.75-1.39,2.12,2.12,0,0,1,.77-.29c1.44-.09,2.19.95,3.05,1.83a3.37,3.37,0,0,1,.5,1.93,1.16,1.16,0,0,1-.45.66Z"/><path class="cls-126" d="M28.56,38c.63.84.33,1.81.38,2.72-.93.91-.06,2.38-1,3.27-.08-.92.22-1.91-.53-2.7.49-.84,1.2-1.59,1.06-2.68A.38.38,0,0,1,28.56,38Z"/><path class="cls-127" d="M11.75,26.77a1.89,1.89,0,0,0-.52-1.61c0-.17-.07-.35-.1-.53.22-.79.41-1.6,1.24-2a2.3,2.3,0,0,1,1.12,2.53c-.32.75-.35,1.65-1.07,2.21C12,27.44,11.59,27.4,11.75,26.77Z"/><path class="cls-128" d="M46.62,25.21c0-.58-.73-1.17,0-1.73.29-.38.57-.78,1.14-.74a1.32,1.32,0,0,1,.85,2c-.41.9-1.17.83-1.93.38Z"/><path class="cls-33" d="M47.31,23.11c-.21.13-.43.25-.65.37-.16-.32-.33-.65-.49-1l1-1.09h.19a1.39,1.39,0,0,1,.31,1A4.27,4.27,0,0,1,47.31,23.11Z"/><path class="cls-15" d="M62.83,42.36c.23-2-.53-4,.53-5.92C63.13,38.41,63.89,40.46,62.83,42.36Z"/><path class="cls-129" d="M14.91,33.82l-.5-1.09c-.55-.76.19-1.9-.76-2.54-.75-.73-1.79-1.34-1.11-2.66a.77.77,0,0,1,.54-.45c.85,0,1.41,1.28,2.43.56,1.89-1.07,1.48-2.28.21-3.53a6.1,6.1,0,0,0-1.64-1.22.8.8,0,0,1-.2-.64l.06-.83,1.59,0a2.72,2.72,0,0,0,.49.05,11.16,11.16,0,0,1,1.57.9c1.69,1.68,3.78,3,4.65,5.41-.7,1-.42,2.24-.84,3.31a9,9,0,0,0-1,1.85,2.7,2.7,0,0,1-.45.56,4.46,4.46,0,0,1-2.64,1.1c-.62,0-1.27.25-1.81-.27a2.63,2.63,0,0,1,0-.49A4.88,4.88,0,0,0,16,33c-.21.25-.32.56-.55.79Z"/><path class="cls-130" d="M12.87,25.07c-.16-.81-.33-1.63-.5-2.44l1.51-.38,0,.25a1.33,1.33,0,0,1,.34.64c-.08.74-.05,1.52-.71,2.06A.56.56,0,0,1,12.87,25.07Z"/><path class="cls-131" d="M47.24,22.43c0-.34.07-.69.11-1,1.11-.29,1.32-1.22,1.52-2.16h.51a2.76,2.76,0,0,1,.56,2.09,1.9,1.9,0,0,1-1,1.4A1.85,1.85,0,0,1,47.24,22.43Z"/><path class="cls-132" d="M51.51,21.36c.74-.74,1.71-.44,2.58-.59l.63.07a4.38,4.38,0,0,0,0,.51l-1.07,0Z"/><path class="cls-133" d="M39.16,58.47c-.34.37-.69.74-1,1.12h0c-.32.27-.48.87-1.09.51l-1-.48a.4.4,0,0,1-.69,0l.06-.06.52-.58c.79-.4.42-1.82,1.64-1.83C38.36,57.28,39.72,56.73,39.16,58.47Z"/><path class="cls-75" d="M37,60.09l1.09-.51c0,.69-.07,1.38-.1,2.07C37.05,61.53,37,60.81,37,60.09Z"/><path class="cls-33" d="M35.36,59.61h.69c-.31.74-.41,1.59-1.15,2.08C35.05,61,35.2,60.3,35.36,59.61Z"/><path class="cls-134" d="M10.74,40.82l-.05,1.54c.14,1.08-.27,1.64-1.42,1.47A2.52,2.52,0,0,1,10.74,40.82Z"/><path class="cls-135" d="M31.66,56.92l1.14-.12a1.14,1.14,0,0,1,.69-.2,1.53,1.53,0,0,1,1.13.87.83.83,0,0,1-.34,1l-2.15.13-1-.66Z"/><path class="cls-136" d="M34.31,57.44c-.41-.07-.81-.16-1-.59a1,1,0,0,1,.92-.41,1.44,1.44,0,0,1,.61.35l1.48.15c.28.1.61.11.71.46,1.41,1.76-.11,1.48-1.09,1.57v-.5C35.48,58,34.74,58,34.31,57.44Z"/><path class="cls-96" d="M34.31,57.44c.66.15,1.55,0,1.63,1l-1.66,0Z"/><path class="cls-137" d="M44.46,56.8c-.67-.52-1.53-1,0-1.49C44.49,55.81,44.48,56.3,44.46,56.8Z"/><path class="cls-48" d="M55.83,50.94c0-4.35,0-8.7,0-13,0-2.58,0-5.1-1.62-7.28a.72.72,0,0,1,.92-.26l.22.27c2.86,5.36,1,11.15,1.49,16.73C57,48.6,57.35,50.09,55.83,50.94Z"/><path class="cls-48" d="M57.44,30a4.54,4.54,0,0,1,3.22-1.06c0,.18,0,.35,0,.53-1.8.21-3.34,1.56-5.27,1.18l-.15-.16a.68.68,0,0,1,.11-.71,1.56,1.56,0,0,1,1.09-.35A2,2,0,0,1,57.44,30Z"/><path class="cls-138" d="M55.34,30.05a1.91,1.91,0,0,1-.11.41l-1,.15c-.22.12-.62.33-.61.34,2.23,4.66.7,9.61,1.13,14.4.08,1-.07,2,0,2.94.24,2.42-.72,3.54-3.21,3.17a1.1,1.1,0,0,1-.23-.87,9.12,9.12,0,0,0,.69-3.9c-.07-4.62.12-9.25-.12-13.87-.08-1.57-.17-3.24,1.24-4.44h1.62C55.4,28.78,55.9,29.23,55.34,30.05Z"/><path class="cls-33" d="M51.52,51a2.61,2.61,0,0,0,0,.48l-1.12,0-2.11-.58a3.16,3.16,0,0,1-.16-.43,1.38,1.38,0,0,1,.65-.61A2,2,0,0,1,51.52,51Z"/><path class="cls-33" d="M45.19,48.72l-.09-.47c-3.23-3-2.42-7-2.37-10.77,0-1.24,1.1-1.73,2.1-2.16,1.22-.75,2.42.31,3.64,0a1.82,1.82,0,0,1,.75.4,1.62,1.62,0,0,1,.43,1.57c-3.06,1.71-2.27,4.67-2.46,7.37-.11,1.6.84,3.36-.56,4.81Z"/><path class="cls-139" d="M46.63,49.52c-.79-3.33-.38-6.72-.46-10.09,0-.94,0-1.9,1.42-1.52.87.22,1.26-.51,1.8-.92.06.06.17.13.17.2-.18,4.38.32,8.81-.63,13.16l-.75.14C47.66,50.17,47.14,49.85,46.63,49.52Z"/><path class="cls-140" d="M45.63,35.37c-2.27,2-3.06,8-1.47,11,.33.62.63,1.26.94,1.9L43.51,47.1c-.37-.68-.75-1.35-1.13-2a10.83,10.83,0,0,1-1.16-2,35.3,35.3,0,0,1,.1-8.47c1.54-1.81,2.78-.41,4.07.37Z"/><path class="cls-141" d="M19.81,33.24l0-.58a1.43,1.43,0,0,1,1-.12,1.15,1.15,0,0,0,.78-.28,4.22,4.22,0,0,1,.46-.38c.51-.47.6-1.2,1.05-1.71a1.46,1.46,0,0,1,.65-.39,1.59,1.59,0,0,1,1.12.43,1.9,1.9,0,0,1,.43.72,6.23,6.23,0,0,1,0,2.58,9,9,0,0,0-.39,3.05c0,1.07-.14,2.09-1.35,2.53L22.4,40.68a5.85,5.85,0,0,0-2.54-4.8A1.85,1.85,0,0,1,19.81,33.24Z"/><path class="cls-142" d="M20,41.76l-1.25-2.09c0-.26,0-.52.05-.78.08-.72-.43-1.84.54-2s1.45.74,1.58,1.69c.52.83.07,1.78.33,2.64a1.41,1.41,0,0,0,.12.49c0,.6-.34.81-.86.87A.67.67,0,0,1,20,41.76Z"/><path class="cls-143" d="M20.44,42.22l.93-.54.72-.34c.59.4,1.17.81.42,1.57-1.27,0-2.79,1.63-3.75-.55C19.3,42,19.89,42.47,20.44,42.22Z"/><path class="cls-144" d="M19.81,33.24a5.25,5.25,0,0,1,.05,2.64l-2.2-1.06c-.34-.2-.33-.36,0-.51C18.51,34.15,18.59,32.59,19.81,33.24Z"/><path class="cls-145" d="M17.7,34.31c0,.17,0,.34,0,.51-.77.1-1.65.62-2.12-.53Z"/><path class="cls-146" d="M21.25,41.19a4.69,4.69,0,0,1-.33-2.64A2.74,2.74,0,0,1,21.25,41.19Z"/><path class="cls-147" d="M20.44,42.22c-.5.75-1.09.42-1.68.14,0-.18,0-.35,0-.53.4-.41.84-.1,1.27-.07Z"/><path class="cls-148" d="M33.86,25.78a5.93,5.93,0,0,0,3.77-.1,1.92,1.92,0,0,1,.39.51,1.65,1.65,0,0,1,.06.63,1.64,1.64,0,0,1-.26.55,1.61,1.61,0,0,1-.48.34,4,4,0,0,1-.51.25,1.18,1.18,0,0,0-.52.71c-.27,4-.39,4.21-3.34,5.13a3.56,3.56,0,0,1-1.6-.45c-.94-.71-1.79-1.45-1.34-2.81l0-2.18c1-.4,1.12,1,1.88,1.09C33.18,28.49,32.46,26.58,33.86,25.78Z"/><path class="cls-149" d="M33.86,25.78c-.16,1-.26,2.1-.49,3.13-.16.71.15,1.82-.93,1.95s-1.47-.76-1.85-1.6a9.2,9.2,0,0,0-.53-.9c0-.52,0-1.05,0-1.57a12.36,12.36,0,0,0,.56-4.1c0-.91-.25-2,1-2.38a1,1,0,0,1,.4.55,5.82,5.82,0,0,0,.16,2.35,3.76,3.76,0,0,1,.1.66v.33a4.15,4.15,0,0,0,.25,1.56,2.2,2.2,0,0,1,0,.58c.06.33-.34,0,0,.17s.16-.23.27-.34c.16-.57.2-1.25,1.09-1Z"/><path class="cls-150" d="M30,30.54l1.62,2.14c-.13,1.48-1.13.9-1.92.81s-1.48-.3-1.31-1.34a6.17,6.17,0,0,1,.72-3.21Z"/><path class="cls-4" d="M26.84,37.54c0-.38-.07-.75-.1-1.12a34.75,34.75,0,0,0-.43-9.66l1,1.65a64.22,64.22,0,0,1,.79,7.32C28,36.54,28,37.48,26.84,37.54Z"/><path class="cls-151" d="M28.42,32.15a1.89,1.89,0,0,0,1.61.53.91.91,0,0,1,.24.7c-.41,1-.41,2.26-1.27,3.12l-.52,1.13C27.63,37,28,36,27.64,35.19c.08-1-.3-2.07.26-3Z"/><path class="cls-152" d="M27.9,32.14v3.24c.2.54-.07.64-.52.56,0-2.51,0-5-.05-7.53C28.32,29.53,27.72,30.9,27.9,32.14Z"/><path class="cls-153" d="M25.15,26.77l1.13,4.29c-.62.84,0,1.89-.45,2.76a.72.72,0,0,1-.77-.08c-.44-1,.27-2.2-.42-3.19h0c-.3-.77-1.28-1.09-1.34-2a1.11,1.11,0,0,1,.27-.64l0-1.65a.72.72,0,0,1,0-1.09C24.61,25.21,24.6,26.27,25.15,26.77Z"/><path class="cls-154" d="M23.56,27.89a3.85,3.85,0,0,0,.08.47,1.69,1.69,0,0,1,.09,1.53l-.24.17c-1.34-.21-1.93-.92-1.5-2.28-1.32-2.05-3.22-3.56-4.86-5.31a.72.72,0,0,1,1.08,0C20.48,23.8,21.69,26.17,23.56,27.89Z"/><path class="cls-155" d="M23.6,25.15v1.09C22.5,25.58,22.05,24.41,21,23A4.48,4.48,0,0,1,23.6,25.15Z"/><path class="cls-73" d="M18.21,22.47H17.13l-1.11-1a3.47,3.47,0,0,1,2.17.53C18.2,22.13,18.21,22.3,18.21,22.47Z"/><path class="cls-156" d="M31.8,24.06a2.23,2.23,0,0,1-.22-.47,3.66,3.66,0,0,1,.06-2.74c0-.18,0-.36,0-.54s.19-.38.28-.58a7.09,7.09,0,0,1,6.79-1c0,.18,0,.36,0,.54a6.17,6.17,0,0,1-.5.53c-1.45.73-3.25.37-4.61,1.42-.7.73-.15,1.82-.75,2.58A.93.93,0,0,1,31.8,24.06Z"/><path class="cls-157" d="M25.21,33.76h.52a.92.92,0,0,1,.51.48l.09,2.23c0,.88,0,1.76-.07,2.63-2.45.59-1.79-1.19-1.85-2.43C24.85,35.76,24.32,34.56,25.21,33.76Z"/><path class="cls-158" d="M26.24,34.25l-.51-.48c.07-.93-.23-1.93.55-2.71C26.26,32.12,26.25,33.19,26.24,34.25Z"/><path class="cls-13" d="M23.62,19.26h-.55c0-.78.09-1.46,1-1.64A2,2,0,0,1,23.62,19.26Z"/><path class="cls-71" d="M22,16.08a2,2,0,0,0-.57-1.65c.33-.41.75-.86,1.26-.59.66.33.23,1.06.33,1.61Z"/><path class="cls-159" d="M48.93,50.35c-1-4.49-1.17-9,.46-13.36l-.48-1.08a2.7,2.7,0,0,0-1-1.45,4.72,4.72,0,0,0-.92-.54,1.7,1.7,0,0,1-1-1.81c.49-1,1.59-.55,2.29-1,1,0,2,1.08,2.91,0s-.23-1.74-.54-2.59a5.81,5.81,0,0,1-.18-1.27c.77-.48,1.28-.22,1.61.56l1.06.55c-1.15,3.12.31,6.22.07,9.35-.27,3.54-.07,7.11-.06,10.67,0,1.22-.09,2.36-1.64,2.58Z"/><path class="cls-75" d="M52.09,27.83l-1.61-.56c-1.3-.62-2.78-.93-3.76-2.13.6-.05,1.27,0,1.47-.77a.91.91,0,0,0-.88-1.26c0-.23-.05-.45-.07-.68l1.59,0c.61-.21.9.11,1.07.65l.57.52c-.08,1.69,1.66,2.34,2.12,3.73Z"/><path class="cls-6" d="M52.59,27.29c-1.46-.82-4.37-.81-2.12-3.73a5.6,5.6,0,0,1,2.64,2.73C52.93,26.62,52.76,27,52.59,27.29Z"/><path class="cls-76" d="M55.34,30.05l-.57-1.68,1.59,0a1.1,1.1,0,0,1,0,1.59Z"/><path class="cls-160" d="M56.37,30c0-.53,0-1.06,0-1.59,1,.1,1.09.78,1.08,1.56Z"/><path class="cls-107" d="M32.17,14.42a2.31,2.31,0,0,1-.07,2l-.26,0h-.25c-1-.85-1.45-1.79-.62-3l.18-.2Z"/><path class="cls-161" d="M31,13.49c.2,1,.41,2,.62,3A6.56,6.56,0,0,1,29,18.69l-1.08-.54-.21-.24a1.13,1.13,0,0,1,.16-.62c.18-.26.44-.44.62-.68a.7.7,0,0,0,0-.76c-.52-.32-1.25-.28-1.59-.91a2.17,2.17,0,0,1,.08-.43l1.51-.64Z"/><path class="cls-162" d="M44,27.75c.23-.95.81-1,1.57-.62.93.49,1.86.95,2.76,1.48.62.38,1.9.33,1.67,1.31s-1.49.45-2.27.62c-1,.81-1.68-.05-2.43-.5C44.69,29.4,43.92,28.83,44,27.75Z"/><path class="cls-163" d="M45.63,29.44l2.14,1.1.52.55c-.25,1.28-1.29,1-2.14,1.07-.77.59-1.64-.08-2.42.22s-.67,1.3-1.42,1.56a1,1,0,0,1-.74-.2,1.64,1.64,0,0,1-.41-.71,4.92,4.92,0,0,1,.26-2.91C42.64,28.73,44.16,29.22,45.63,29.44Z"/><path class="cls-164" d="M45.63,29.44c-1,1.51-2.54.07-3.74.58l-.18-.31a5.37,5.37,0,0,1,.95-2.27l.31-.18,1.07.49A4.17,4.17,0,0,1,45.63,29.44Z"/><path class="cls-164" d="M39.74,25.08a1.61,1.61,0,0,0,.49-.07A8.3,8.3,0,0,1,43,27.26l-.11.13a1.67,1.67,0,0,1-.72.38,3.18,3.18,0,0,1-2.71-1.57A1.07,1.07,0,0,1,39.74,25.08Z"/><path class="cls-165" d="M32.73,23.54c-.42-.9-.8-1.79,0-2.7l.33.1c.55.36,1,.91,1.79.73a3.24,3.24,0,0,0,.89-.1,1.19,1.19,0,0,0,.56-.61,3.12,3.12,0,0,1,.42-.81c.36-.44.94-.52,1.38-.83l.57-.08c.94,1.42-.38,2.48-.6,3.71l-.49.58c-.76.6-1.65.24-2.47.34a2.2,2.2,0,0,1-2.07,0Z"/><path class="cls-166" d="M39.74,25.08l0,1.16a2.5,2.5,0,0,1,.16,3.7c-1.24.49-1.32-.49-1.44-1.24s0-1.79-.79-2.44c0-.19,0-.39,0-.58l1.51-1.59Z"/><path class="cls-167" d="M31.8,24.06l.93-.52h0c.56.76,1.35.14,2,.33l.21.29-1.14,1c-.55.37-.54,1-.59,1.52-.66.46-1,.35-1.06-.51a2.74,2.74,0,0,0,.07-.5c-.32-.49-.83-.91-.67-1.61Z"/><path class="cls-167" d="M34.85,23.52h2.69c-.65,1.1-1.65.75-2.6.63L34.81,24c-.17-.12-.22-.24-.15-.35S34.79,23.52,34.85,23.52Z"/><path class="cls-168" d="M37,57.4l-.71-.46c1.84.4,4-1.19,5.54,1-1.08-.8-1.86,0-2.7.51C38.89,57.23,37.9,57.44,37,57.4Z"/><path class="cls-95" d="M34.84,56.79l-.21,0h-.21c-.67-.33-1.48-.55-1.26-1.59a.56.56,0,0,1,.68,0l1.56.59c0,.16,0,.31,0,.47Z"/><path class="cls-169" d="M32.7,48.28l.57.52c-.42.54,1.39,1.1,0,1.62-.49.28-.89.85-1.58.51l-1.11-1.11c.5-.52,1.3-.71,1.53-1.5Z"/><path class="cls-170" d="M33.81,48.8c.17-1.26-2.72-2.92.5-3.77-.42,1.51,1.07,2.78.57,4.31Z"/><path class="cls-171" d="M31.67,50.93l1.58-.51c-.43.54-.58,1.35-1.44,1.44C31.8,51.86,31.72,51.25,31.67,50.93Z"/><path class="cls-10" d="M33.2,55.29l1.22,1.51-1.11.05-.51-.05-.63-1.52.61-.07C33,55.07,33.09,55.11,33.2,55.29Z"/><path class="cls-172" d="M33.2,55.29a1.16,1.16,0,0,1-.42-.08c.2-1.39,1.25-.92,2.07-1,0,.16,0,.32,0,.48l-1,.5Z"/><path class="cls-173" d="M32.74,39.65l-.56-1.59c-.56-1.31-1.89-1.65-2.92-2.38,0-1.16.5-1.89,1.76-1.89a2.66,2.66,0,0,1,2.18,1.27c1.25,2.75,2.26,5.6,3.27,8.45A1.48,1.48,0,0,1,35.93,45h-.54A10.92,10.92,0,0,1,32.74,39.65Z"/><path class="cls-174" d="M35.93,45V43.45l.36-.25a1.34,1.34,0,0,1,.86.08,6.74,6.74,0,0,1-.06,6l-.09.09C35.24,48.27,36,46.57,35.93,45Z"/><path class="cls-175" d="M32.74,39.65c.88,1.79,1.77,3.59,2.65,5.39l-1,0c-.46-1.63-1.67-3-1.67-4.79C32.71,40.06,32.72,39.85,32.74,39.65Z"/><path class="cls-176" d="M38.09,51.49c-.11,1,.46,2.26-1.06,2.71C37.39,53.3,37.74,52.4,38.09,51.49Z"/><path class="cls-110" d="M37.09,49.28c-.65-1.91,1.09-4.05-.59-5.85a8.21,8.21,0,0,1-1.29-5.82c1.9-.69,2.81.64,3,2,.22,1.66.85,3.22,1,4.89-.38.52-1.17.77-1.07,1.61.61.92,1.11,1.86.35,3l-.35.28Z"/><path class="cls-44" d="M39.71,50.44,38.13,51a1.68,1.68,0,0,0,0-1.64h0c1.12-.52,1.63-.13,1.58,1.07Z"/><path class="cls-29" d="M49.9,23l-1.07-.65.58-1c.52-.63,1.06-.15,1.6,0a1.87,1.87,0,0,1,.53,0l.06,1.54Z"/><path class="cls-177" d="M30,14.88A4.9,4.9,0,0,1,29,17.61a.65.65,0,0,0-1.07,0l0,.12c-1.17.39-2,.13-2.12-1.24A1.54,1.54,0,0,0,25.7,16l.55-.54C27.57,15.66,28.68,14.51,30,14.88Z"/><path class="cls-178" d="M25.79,16.51a2.77,2.77,0,0,0,2.12,1.24c0,.13,0,.27,0,.4C26.94,17.91,24.56,19.5,25.79,16.51Z"/><path class="cls-178" d="M30,14.88c-1.27.08-2.35,1.42-3.77.57l.58-.51C27.9,15.17,28.94,14,30,14.88Z"/><path class="cls-179" d="M39.17,44.51a7,7,0,0,1-1.54-3.63,3.91,3.91,0,0,0-2.26-3.34c-.85.44-1.3-.16-1.77-.69s-.43-1.07-.94-1.41l-1.55-1.15c-.25-.46-1.38,0-1.08-1v-.56c.54.22,1.08.66,1.62,0l1.07.55c1.89.11,3.38,1.17,4.94,2.05a3.52,3.52,0,0,1,.9.67c.52.7,1.25,1.28,1.21,2.27l-.06.37c-.42,2-.89,4.07.53,5.93Z"/><path class="cls-176" d="M39.7,50.41a1.81,1.81,0,0,0-1.58-1.07c0-1.08,0-2.15,0-3.22C41.3,47.3,41.58,48.05,39.7,50.41Z"/><path class="cls-48" d="M41.86,43.43c.17.55.35,1.09.52,1.64a4,4,0,0,1-2.15-4.22,2.56,2.56,0,0,0-.52-2.26l0,0a6.63,6.63,0,0,0-2.11-3.14,1.31,1.31,0,0,1-.09-1.86c3.62-2.32,3.79-2.22,4.05,2.22C41.74,38.33,41.25,40.9,41.86,43.43Z"/><path class="cls-180" d="M24.68,36.47c.05,1.17-.14,2.48,1.58,2.64-.38.56-1.05.92-1.12,1.68-1,.26-1.12-.63-1.55-1.12l0-.58c1-1.86.07-4.06,1.07-5.91A4.36,4.36,0,0,1,24.68,36.47Z"/><path class="cls-64" d="M27.38,35.94l.52-.56c.66.63.48,1.48.58,2.25a1.45,1.45,0,0,0,.08.36c0,.21-.09.41-.13.61l-1.58.51c0-.52,0-1,0-1.57A2.34,2.34,0,0,0,27.38,35.94Z"/><path class="cls-181" d="M23.59,39.67l1.55,1.12-1,1C23.41,41.21,23.62,40.41,23.59,39.67Z"/><path class="cls-182" d="M12.82,27.36c-.13,1.09.6,1.81,1.1,2.63a.94.94,0,0,1-1.19.05l-.15,0h-.16c-1.77-.79-1.38-2-.67-3.3l.56.53A.3.3,0,0,1,12.82,27.36Z"/><path class="cls-114" d="M12.73,30,13.92,30c.75.81.46,1.8.49,2.74C13.92,31.79,13.8,30.61,12.73,30Z"/><path class="cls-132" d="M51,21.35c-.52.52-1.07,0-1.6,0l0-2.16,1.18.11A2.51,2.51,0,0,0,51,21.35Z"/><path class="cls-183" d="M51.54,19.27l2.14,0C53,19.58,52.27,21.21,51.54,19.27Z"/><path class="cls-184" d="M30.62,43.91v-3c.67,1.32,1.58,1.87,1,3Z"/><path class="cls-152" d="M30,33.24l1.08,1a1.61,1.61,0,0,0-1.59,1.63c.34.21.33.38-.05.51L29,36.5C29,35.3,28.65,34,30,33.24Z"/><path class="cls-175" d="M29.47,36.43a2.94,2.94,0,0,1,.05-.51,2.34,2.34,0,0,1,2.66,2.14C31.23,37.6,30.67,36.47,29.47,36.43Z"/><path class="cls-185" d="M12.82,27.36a2.16,2.16,0,0,0-.51-.06,2.57,2.57,0,0,1,.56-2.23,2.42,2.42,0,0,0,.46.13,1.27,1.27,0,0,1,.52,1.5,1.2,1.2,0,0,1-.53.64Z"/><path class="cls-186" d="M22,27.78a5.75,5.75,0,0,1,1.5,2.28c-.17,1,1,2.6-1.26,2.59-1,0-1.67-.41-1.31-1.6C21.06,29.89,19.6,28.2,22,27.78Z"/><path class="cls-187" d="M15.48,33.79a2.58,2.58,0,0,0-.08-.26c-.42-1.1-1-2.32.67-2.82.93-.27,1.52.46,1.63,1.34.22,1.71-.92,1.86-2.2,1.75Z"/><path class="cls-188" d="M16.11,23.49c1.42.51,1.62,1.69,1.5,3a2.07,2.07,0,0,1-2.23,2,.59.59,0,0,1-.52-.75,3,3,0,0,1,.36-.63,2.27,2.27,0,0,0,.46-2.33,2.18,2.18,0,0,1,0-.72A1,1,0,0,1,16.11,23.49Z"/><path class="cls-189" d="M15.09,27.77l.29.71c-1.61,1.3-1.7-.16-2.06-1.14,0-.21,0-.43.07-.65a1.16,1.16,0,0,1,1.09-.2A1.09,1.09,0,0,1,15.09,27.77Z"/><path class="cls-190" d="M20.92,31.05c.44.53.88,1.06,1.31,1.6a1.72,1.72,0,0,0-.44.09,3.79,3.79,0,0,1-.81.93l-1.14-1C19.79,31.85,19.93,31.16,20.92,31.05Z"/><path class="cls-191" d="M16.11,23.49l-.05.59c-.8.49-1.33,0-1.87-.5a2.31,2.31,0,0,1-.31-.63l0-.45C14.81,22.46,15.78,22.27,16.11,23.49Z"/><path class="cls-192" d="M13.88,23l.56.05c.67,1.27,1.4,2.54,0,3.8l-1-.11-.06-1.49C13.43,24.43,13.23,23.59,13.88,23Z"/><path class="cls-193" d="M47.76,33.23l.57.56a1.39,1.39,0,0,1-.09,2.07c-1.09,1-1.78-.11-2.61-.49h0c-.65-.48-1.91-.32-1.73-1.66C45,32.35,46.61,34.47,47.76,33.23Z"/><path class="cls-139" d="M48.24,35.86l.09-2.07c1.37.39,1.24,1.18.58,2.12Z"/><path class="cls-194" d="M41.86,43.43c-1-1.28-.51-2.77-.51-4.16a21.1,21.1,0,0,0-.88-6.81c-1,.46-1.09,3.2-2.91,1.3-1.68-1.61-1.86-3.94-.5-6.4l.48-.07c1.23.7.6,2,.93,2.94,0,0,.23,0,.24,0A1.4,1.4,0,0,1,39.2,30c.89-1.16.38-2.52.51-3.78,1.15-.23,1.7.9,2.65,1.13,1.19,1.31-.75,1.75-.76,2.72s-.3,2.13.26,3.13c0,.17,0,.33,0,.5.32.21.31.39,0,.55Q41.86,38.86,41.86,43.43Z"/><path class="cls-33" d="M41.88,34.27l0-.55.61-.08a1.2,1.2,0,0,1,.59-.28.82.82,0,0,1,.8.47l1.72,1.54C44.2,35.6,43.29,34.08,41.88,34.27Z"/><path class="cls-67" d="M24.68,36.47c0-1.1,0-2.2-.05-3.29,0-.88,0-1.75,0-2.63.94.94.4,2.14.57,3.21C25.12,34.68,25.4,35.67,24.68,36.47Z"/><path class="cls-67" d="M23.73,29.89l-.09-1.53a3.49,3.49,0,0,1,1,2.19Z"/><path class="cls-195" d="M21,33.67a.89.89,0,0,1,.81-.93C22.11,33.56,22,34,21,33.67Z"/><path class="cls-64" d="M37.56,35.91a11.62,11.62,0,0,1-4.84-2.68c2-.67,3-2,2.7-4.2a2,2,0,0,1,.52-1.73c1.23,1.85.07,4,.73,5.94C36.89,34.15,37.68,34.88,37.56,35.91Z"/><path class="cls-196" d="M37.56,35.91c-.36-.72-1.06-1.27-1.08-2.15a19.72,19.72,0,0,1,0-7l.59.58c.16,2.13-.47,4.33.5,6.4.18.54.36,1.07.55,1.6a.74.74,0,0,1,0,1.09Z"/><path class="cls-197" d="M39.2,30l-.05,1a.83.83,0,0,1-1.17,0c-.42-1.41.16-2.9-.35-4.3a1.51,1.51,0,0,1,0-.52c.81-.18,1.57-.31,1.54.94C39.16,28.14,39.19,29.08,39.2,30Z"/><path class="cls-198" d="M36.47,26.78c0,2.33,0,4.65,0,7-1.1-2.08-.27-4.32-.54-6.46Z"/><path class="cls-166" d="M37.63,26.78c.85,1.35.31,2.85.48,4.27a.37.37,0,0,1,.12.4q-.07.18-.15.18c-.94-1.35-.3-2.9-.54-4.34A2.28,2.28,0,0,1,37.63,26.78Z"/><path class="cls-199" d="M32.15,26.21l1.06.51c0,.89-.35,1.7-1.28,1.76-.71,0-1-.75-1.06-1.36C30.74,26.13,31.56,26.29,32.15,26.21Z"/><path class="cls-200" d="M31.55,24.1c.29.51,1.2.76.67,1.61C31.24,25.49,30.9,25,31.55,24.1Z"/><path class="cls-201" d="M31.64,20.85l-.06,2.74A1.94,1.94,0,0,1,31.64,20.85Z"/><path class="cls-202" d="M38.06,19.32l-1,1c-.51.53-.92,1.18-1.74,1.27a2.49,2.49,0,0,1-2.46-.67l-.13-.08C34.07,18.89,36.22,19.65,38.06,19.32Z"/><path class="cls-203" d="M43.91,33.83,43,33.62a3.72,3.72,0,0,1,0-3.08c1.29.11,2.08,1.21,3.21,1.62a1.83,1.83,0,0,0,1.61,1.07c0,.88-.14,1.6-1.34,1.23C45.6,34.2,44.75,34,43.91,33.83Z"/><path class="cls-204" d="M27.88,17.63c.09-.45-.12-1.17.53-1.18s.46.72.54,1.16Z"/><path class="cls-164" d="M41.86,33.22c-.85-1-.43-2.13-.52-3.21.16-.27.33-.29.52,0l0,0C41.88,31.09,41.87,32.16,41.86,33.22Z"/><path class="cls-134" d="M42.94,30.54c0,1,0,2.06,0,3.08l-.22,0h-.22C42.53,32.59,42.06,31.48,42.94,30.54Z"/><path class="cls-205" d="M41.86,30l-.52,0c.09-1,1.27-1.53,1-2.64a2.79,2.79,0,0,1,.5,0C43.59,28.67,42.69,29.32,41.86,30Z"/><path class="cls-206" d="M32.82,20.92l2.6,0c.63.8.06,1.19-.54,1.58C33.4,23,33,22.13,32.82,20.92Z"/><path class="cls-207" d="M34.88,22.46l.54-1.58,1.6-.56c0,.36,0,.72,0,1.07-.07.65-.7.73-1.08,1.06Z"/><path class="cls-156" d="M34.85,23.52a2.07,2.07,0,0,1,0,.5c-.73,0-1.72,1.1-2.08-.48Z"/><path class="cls-202" d="M35.93,22.45,37,21.39C37.74,22.85,36.45,22.26,35.93,22.45Z"/><path class="cls-208" d="M32.66,35.44a1.64,1.64,0,0,1,1.14,1c1.42,2.11,2.56,4.31,2.15,7l0,0C34.28,41,33.65,38.15,32.66,35.44Z"/><path class="cls-152" d="M36,43.43c-.18-2.49-1.53-4.63-2.15-7,.53.36,1.05.73,1.57,1.1.49,1.94,1.24,3.83,1.13,5.89Z"/><path class="cls-209" d="M38.1,36.45c0-.36,0-.72,0-1.09a3,3,0,0,1,1.63,3.2Z"/><path class="cls-210" d="M14.43,26.8c0-1.26,0-2.53,0-3.8l1.62,1.08,0,.05c.25,1.26,1,2.6-.53,3.59a1.75,1.75,0,0,0-.4.05Z"/><path class="cls-192" d="M15.49,27.72c.82-1.1.57-2.36.53-3.6C16.6,25.44,18,26.87,15.49,27.72Z"/><path class="cls-211" d="M38.08,31.63l0-.58h1c0,.59.27,1.47-.39,1.67S38.22,32.07,38.08,31.63Z"/></g></g></svg>