<svg xmlns="http://www.w3.org/2000/svg" viewBox="0 0 74 74"><defs><style>.cls-1{fill:#1e2223;}.cls-2{fill:#21251c;}.cls-3{fill:#494e3d;}.cls-4{fill:#424839;}.cls-5{fill:#3d4335;}.cls-6{fill:#353b31;}.cls-7{fill:#2d3026;}.cls-8{fill:#4b5241;}.cls-9{fill:#383e32;}.cls-10{fill:#4e5644;}.cls-11{fill:#444a3d;}.cls-12{fill:#4d5546;}.cls-13{fill:#656d66;}.cls-14{fill:#3d4336;}.cls-15{fill:#3a4135;}.cls-16{fill:#51584a;}.cls-17{fill:#5d644f;}.cls-18{fill:#2b342e;}.cls-19{fill:#818a84;}.cls-20{fill:#6e7867;}.cls-21{fill:#788171;}.cls-22{fill:#303a3b;}.cls-23{fill:#3b4746;}.cls-24{fill:#636c65;}.cls-25{fill:#444e4b;}.cls-26{fill:#59625d;}.cls-27{fill:#4e5854;}.cls-28{fill:#2e393e;}.cls-29{fill:#525d59;}.cls-30{fill:#4d5a56;}.cls-31{fill:#4e5957;}.cls-32{fill:#3f4b4a;}.cls-33{fill:#2c3639;}.cls-34{fill:#545e52;}.cls-35{fill:#6b746c;}.cls-36{fill:#667068;}.cls-37{fill:#3e4333;}.cls-38{fill:#5a6149;}.cls-39{fill:#292f26;}.cls-40{fill:#4f5c5c;}.cls-41{fill:#8c9792;}.cls-42{fill:#161b1a;}.cls-43{fill:#4a5343;}.cls-44{fill:#7e8779;}.cls-45{fill:#939a84;}.cls-46{fill:#687361;}.cls-47{fill:#465853;}.cls-48{fill:#5a6154;}.cls-49{fill:#6e7c7a;}.cls-50{fill:#5e6b5f;}.cls-51{fill:#5d6d6a;}.cls-52{fill:#32454b;}.cls-53{fill:#889074;}.cls-54{fill:#6e766a;}.cls-55{fill:#384749;}.cls-56{fill:#4a503e;}.cls-57{fill:#3e4b45;}.cls-58{fill:#354448;}.cls-59{fill:#889188;}.cls-60{fill:#444f50;}.cls-61{fill:#4f5c54;}.cls-62{fill:#455353;}.cls-63{fill:#7b857a;}.cls-64{fill:#334146;}.cls-65{fill:#363e38;}.cls-66{fill:#616a53;}.cls-67{fill:#747e7b;}.cls-68{fill:#414c51;}.cls-69{fill:#5d6b63;}.cls-70{fill:#3e4d55;}.cls-71{fill:#434f45;}.cls-72{fill:#3d4c4a;}.cls-73{fill:#172833;}.cls-74{fill:#4d5441;}.cls-75{fill:#2e3227;}.cls-76{fill:#384035;}.cls-77{fill:#2c3632;}.cls-78{fill:#60674f;}.cls-79{fill:#2c3127;}.cls-80{fill:#161813;}.cls-81{fill:#0c0c0a;}.cls-82{fill:#1d2017;}.cls-83{fill:#383c2e;}.cls-84{fill:#303327;}.cls-85{fill:#252b24;}.cls-86{fill:#565c46;}.cls-87{fill:#36392b;}.cls-88{fill:#20231a;}.cls-89{fill:#10110e;}.cls-90{fill:#6f775c;}.cls-91{fill:#32372a;}.cls-92{fill:#626950;}.cls-93{fill:#a2ab8c;}.cls-94{fill:#2d3126;}.cls-95{fill:#b9c0a7;}.cls-96{fill:#858c72;}.cls-97{fill:#525844;}.cls-98{fill:#181a15;}.cls-99{fill:#131410;}.cls-100{fill:#23261d;}.cls-101{fill:#646b53;}.cls-102{fill:#71795d;}.cls-103{fill:#2b2e23;}.cls-104{fill:#8b927b;}.cls-105{fill:#656c55;}.cls-106{fill:#565c4c;}.cls-107{fill:#899074;}.cls-108{fill:#575d48;}.cls-109{fill:#171913;}.cls-110{fill:#797f67;}.cls-111{fill:#b0b79e;}.cls-112{fill:#788162;}.cls-113{fill:#292c21;}.cls-114{fill:#1a1c15;}.cls-115{fill:#a2aa91;}.cls-116{fill:#414535;}.cls-117{fill:#747f62;}.cls-118{fill:#919783;}.cls-119{fill:#32352a;}.cls-120{fill:#6d745a;}.cls-121{fill:#6b725a;}.cls-122{fill:#6e7559;}.cls-123{fill:#848e6f;}.cls-124{fill:#808675;}.cls-125{fill:#636b51;}.cls-126{fill:#8b9380;}.cls-127{fill:#666b5b;}.cls-128{fill:#6d766e;}.cls-129{fill:#7b8279;}.cls-130{fill:#9a9e90;}.cls-131{fill:#a3ab96;}.cls-132{fill:#848a7f;}.cls-133{fill:#767d73;}.cls-134{fill:#68706a;}.cls-135{fill:#9da493;}.cls-136{fill:#858c80;}.cls-137{fill:#909588;}.cls-138{fill:#b0b5a9;}.cls-139{fill:#a7ad9f;}.cls-140{fill:#939c92;}.cls-141{fill:#868e84;}.cls-142{fill:#c0c5b8;}.cls-143{fill:#b2b6ad;}.cls-144{fill:#4d513d;}.cls-145{fill:#24271d;}.cls-146{fill:#323527;}.cls-147{fill:#1a1d15;}.cls-148{fill:#7b8464;}.cls-149{fill:#6d7558;}.cls-150{fill:#949d7c;}.cls-151{fill:#858e6d;}.cls-152{fill:#444938;}.cls-153{fill:#404433;}.cls-154{fill:#2f3328;}.cls-155{fill:#494a48;}.cls-156{fill:#b0b5a8;}.cls-157{fill:#80867b;}.cls-158{fill:#7c8179;}.cls-159{fill:#b2b7a5;}.cls-160{fill:#1a1d16;}.cls-161{fill:#383b2e;}.cls-162{fill:#3b4c4f;}.cls-163{fill:#626d62;}.cls-164{fill:#5e665e;}.cls-165{fill:#535953;}.cls-166{fill:#c9cdca;}.cls-167{fill:#b1b4b3;}.cls-168{fill:#6b7878;}.cls-169{fill:#11120f;}.cls-170{fill:#23271f;}.cls-171{fill:#2f3226;}.cls-172{fill:#484c3f;}.cls-173{fill:#606650;}.cls-174{fill:#484d3c;}.cls-175{fill:#7b8269;}.cls-176{fill:#949995;}.cls-177{fill:#7f867e;}.cls-178{fill:#67746d;}.cls-179{fill:#7f857e;}.cls-180{fill:#737669;}.cls-181{fill:#aeb7ad;}.cls-182{fill:#5c6a66;}.cls-183{fill:#989f93;}.cls-184{fill:#c5cbb7;}.cls-185{fill:#99a188;}.cls-186{fill:#68715a;}.cls-187{fill:#828a7d;}.cls-188{fill:#ced1ca;}.cls-189{fill:#cbcfc8;}.cls-190{fill:#8a9289;}.cls-191{fill:#848d84;}.cls-192{fill:#c2c7bc;}.cls-193{fill:#1b1d16;}.cls-194{fill:#282d25;}.cls-195{fill:#757d80;}.cls-196{fill:#adb4b4;}.cls-197{fill:#3b3f2f;}.cls-198{fill:#fefefe;}.cls-199{fill:#b1bbae;}.cls-200{fill:#a3abaa;}.cls-201{fill:#909a7c;}.cls-202{fill:#6e765c;}.cls-203{fill:#37433d;}.cls-204{fill:#22251b;}.cls-205{fill:#262b22;}.cls-206{fill:#26291f;}.cls-207{fill:#0c0d0a;}.cls-208{fill:#21241a;}.cls-209{fill:#2d3025;}.cls-210{fill:#6c6d67;}.cls-211{fill:#40453b;}.cls-212{fill:#54594e;}.cls-213{fill:#191a15;}.cls-214{fill:#24281d;}.cls-215{fill:#414435;}.cls-216{fill:#32362a;}.cls-217{fill:#a8ae98;}.cls-218{fill:#7b8366;}.cls-219{fill:#424638;}.cls-220{fill:#798067;}.cls-221{fill:#181914;}.cls-222{fill:#868a79;}.cls-223{fill:#656959;}.cls-224{fill:#464a39;}.cls-225{fill:#919487;}.cls-226{fill:#4e5340;}.cls-227{fill:#858d74;}.cls-228{fill:#798165;}.cls-229{fill:#d5d9cb;}.cls-230{fill:#afb69d;}.cls-231{fill:#424737;}.cls-232{fill:#24271e;}.cls-233{fill:#34382a;}.cls-234{fill:#acb399;}.cls-235{fill:#434938;}.cls-236{fill:#cdd2c1;}.cls-237{fill:#686f55;}.cls-238{fill:#7f866f;}.cls-239{fill:#36392c;}.cls-240{fill:#787d6d;}.cls-241{fill:#8b9474;}.cls-242{fill:#9fa68c;}.cls-243{fill:#b3bba1;}.cls-244{fill:#818972;}.cls-245{fill:#282c21;}.cls-246{fill:#767d67;}.cls-247{fill:#cfd3c4;}.cls-248{fill:#454b39;}.cls-249{fill:#151712;}.cls-250{fill:#cbcfbe;}.cls-251{fill:#11130f;}.cls-252{fill:#979e84;}.cls-253{fill:#a1ab8a;}.cls-254{fill:#6a7158;}.cls-255{fill:#4e5341;}.cls-256{fill:#b9bdac;}.cls-257{fill:#e6e9e1;}.cls-258{fill:#c4c9b9;}.cls-259{fill:#b7bdab;}.cls-260{fill:#bcc1b4;}.cls-261{fill:#c4c9bd;}.cls-262{fill:#c2c7ba;}.cls-263{fill:#ccd0c0;}.cls-264{fill:#c4cbbf;}.cls-265{fill:#0a0a08;}.cls-266{fill:#373a2c;}.cls-267{fill:#2a2d21;}.cls-268{fill:#363a2c;}.cls-269{fill:#8c9672;}.cls-270{fill:#515841;}.cls-271{fill:#636a4f;}.cls-272{fill:#2c3025;}.cls-273{fill:#4e553f;}.cls-274{fill:#515541;}.cls-275{fill:#60664f;}.cls-276{fill:#181b16;}.cls-277{fill:#606259;}.cls-278{fill:#7f8478;}.cls-279{fill:#5b614a;}.cls-280{fill:#889392;}.cls-281{fill:#b9beb4;}.cls-282{fill:#b4bbad;}.cls-283{fill:#ced4bd;}.cls-284{fill:#b5bdb6;}.cls-285{fill:#e6e9dd;}.cls-286{fill:#dbdfd4;}.cls-287{fill:#bfc7bc;}.cls-288{fill:#e8eade;}.cls-289{fill:#eceee4;}.cls-290{fill:#e7eae2;}.cls-291{fill:#979f83;}.cls-292{fill:#676f54;}.cls-293{fill:#bfc5b7;}.cls-294{fill:#0d0e0b;}.cls-295{fill:#475048;}.cls-296{fill:#323628;}.cls-297{fill:#484e3e;}.cls-298{fill:#8e969b;}.cls-299{fill:#e6eae8;}.cls-300{fill:#b8bbbc;}.cls-301{fill:#b1b8b8;}.cls-302{fill:#d7dbcd;}.cls-303{fill:#d9dcdb;}.cls-304{fill:#d3d8d0;}.cls-305{fill:#b3b8b6;}.cls-306{fill:#acb3b5;}.cls-307{fill:#dfe0dc;}.cls-308{fill:#a6b19d;}.cls-309{fill:#e2e3e0;}.cls-310{fill:#afb7a9;}.cls-311{fill:#e1e4d5;}.cls-312{fill:#b8beb8;}.cls-313{fill:#acb1af;}.cls-314{fill:#e6e7e4;}.cls-315{fill:#a7aa9c;}.cls-316{fill:#e0e3d8;}.cls-317{fill:#e6e9e2;}.cls-318{fill:#eaede4;}.cls-319{fill:#303427;}.cls-320{fill:#383b2d;}.cls-321{fill:#3d4031;}.cls-322{fill:#565a46;}.cls-323{fill:#151817;}.cls-324{fill:#484d3a;}.cls-325{fill:#424636;}.cls-326{fill:#383c2c;}.cls-327{fill:#636b52;}.cls-328{fill:#565a4f;}.cls-329{fill:#697571;}.cls-330{fill:#464a3a;}.cls-331{fill:#73766d;}.cls-332{fill:#676e53;}.cls-333{fill:#3c4030;}.cls-334{fill:#61684f;}.cls-335{fill:#4e543f;}.cls-336{fill:#5b624a;}.cls-337{fill:#545b44;}.cls-338{fill:#525742;}.cls-339{fill:#5c645c;}.cls-340{fill:#777c6f;}.cls-341{fill:#20231b;}.cls-342{fill:#5f6352;}.cls-343{fill:#10110d;}.cls-344{fill:#1e2119;}.cls-345{fill:#737a5d;}.cls-346{fill:#1b1d17;}.cls-347{fill:#616850;}.cls-348{fill:#c2c5bb;}.cls-349{fill:#9fa68f;}.cls-350{fill:#8e9380;}.cls-351{fill:#141511;}.cls-352{fill:#7a7f6f;}.cls-353{fill:#b1b8a0;}.cls-354{fill:#858d6f;}.cls-355{fill:#5f664f;}.cls-356{fill:#70775c;}.cls-357{fill:#596049;}.cls-358{fill:#8c9773;}.cls-359{fill:#abb29b;}.cls-360{fill:#848c72;}.cls-361{fill:#666d56;}.cls-362{fill:#b7bea4;}.cls-363{fill:#adb59b;}.cls-364{fill:#fafbf9;}.cls-365{fill:#b8bfaa;}.cls-366{fill:#b5bca3;}.cls-367{fill:#a3a98f;}.cls-368{fill:#9da688;}.cls-369{fill:#aeb59c;}.cls-370{fill:#d0d3c5;}.cls-371{fill:#a8af98;}.cls-372{fill:#c1c8b0;}.cls-373{fill:#bdc4ad;}.cls-374{fill:#c5cbb5;}.cls-375{fill:#a8b096;}.cls-376{fill:#757d62;}.cls-377{fill:#45493b;}.cls-378{fill:#585f48;}.cls-379{fill:#303429;}.cls-380{fill:#54594c;}.cls-381{fill:#4f5449;}.cls-382{fill:#2f322d;}.cls-383{fill:#c6cdb8;}.cls-384{fill:#bfc6b0;}.cls-385{fill:#bbc2ae;}.cls-386{fill:#b5bba5;}.cls-387{fill:#23251b;}.cls-388{fill:#5a624f;}.cls-389{fill:#21292e;}.cls-390{fill:#6e765f;}.cls-391{fill:#9ca2a0;}.cls-392{fill:#7c836a;}.cls-393{fill:#aab1a2;}.cls-394{fill:#989d9b;}.cls-395{fill:#111717;}.cls-396{fill:#5c6a6c;}.cls-397{fill:#47555b;}.cls-398{fill:#55646a;}.cls-399{fill:#505d64;}.cls-400{fill:#b5bca6;}.cls-401{fill:#a1a597;}.cls-402{fill:#464c3b;}.cls-403{fill:#5a6148;}.cls-404{fill:#565d45;}.cls-405{fill:#6b7258;}.cls-406{fill:#666d53;}.cls-407{fill:#61684e;}.cls-408{fill:#4b4f3c;}.cls-409{fill:#525941;}.cls-410{fill:#454b37;}.cls-411{fill:#70775b;}.cls-412{fill:#3b3f31;}.cls-413{fill:#6d7559;}.cls-414{fill:#899274;}.cls-415{fill:#949c80;}.cls-416{fill:#8a907c;}.cls-417{fill:#6a7257;}.cls-418{fill:#5e644b;}.cls-419{fill:#24281e;}.cls-420{fill:#f0f1ed;}.cls-421{fill:#dce0d5;}.cls-422{fill:#7a8267;}.cls-423{fill:#767d61;}.cls-424{fill:#858e6e;}.cls-425{fill:#7f876b;}.cls-426{fill:#464c39;}.cls-427{fill:#5c6050;}.cls-428{fill:#2b2f23;}.cls-429{fill:#5e6252;}.cls-430{fill:#25281e;}.cls-431{fill:#313429;}.cls-432{fill:#262920;}.cls-433{fill:#6e755e;}.cls-434{fill:#373b2e;}.cls-435{fill:#313427;}.cls-436{fill:#505441;}.cls-437{fill:#25281f;}.cls-438{fill:#505443;}.cls-439{fill:#2b2e25;}.cls-440{fill:#474d39;}.cls-441{fill:#35392a;}.cls-442{fill:#2f3327;}.cls-443{fill:#414534;}.cls-444{fill:#2c2f24;}.cls-445{fill:#808475;}.cls-446{fill:#2a2d22;}.cls-447{fill:#5a604e;}.cls-448{fill:#2e3224;}.cls-449{fill:#4d5140;}.cls-450{fill:#858e6f;}.cls-451{fill:#9ea886;}.cls-452{fill:#4f543f;}.cls-453{fill:#8a9176;}.cls-454{fill:#868f6d;}.cls-455{fill:#798166;}.cls-456{fill:#838a6f;}.cls-457{fill:#7d8468;}.cls-458{fill:#6b7257;}.cls-459{fill:#727a60;}.cls-460{fill:#656c52;}.cls-461{fill:#787f66;}.cls-462{fill:#979e82;}.cls-463{fill:#8b9475;}.cls-464{fill:#91987d;}.cls-465{fill:#8e957a;}.cls-466{fill:#899076;}.cls-467{fill:#858b70;}.cls-468{fill:#565d44;}.cls-469{fill:#8d9474;}.cls-470{fill:#879070;}.cls-471{fill:#80886b;}.cls-472{fill:#9ba285;}.cls-473{fill:#939c7f;}.cls-474{fill:#8f977a;}.cls-475{fill:#9fa78a;}.cls-476{fill:#adb499;}.cls-477{fill:#b7bea5;}.cls-478{fill:#899372;}.cls-479{fill:#a0a88c;}.cls-480{fill:#9fa78c;}.cls-481{fill:#4d533e;}.cls-482{fill:#a3aa92;}.cls-483{fill:#939a83;}.cls-484{fill:#4f5540;}.cls-485{fill:#4a503d;}.cls-486{fill:#bfc5b0;}.cls-487{fill:#666c59;}.cls-488{fill:#5a5e4d;}.cls-489{fill:#c4c8b8;}.cls-490{fill:#8c9479;}.cls-491{fill:#555c45;}.cls-492{fill:#8e9483;}.cls-493{fill:#848777;}.cls-494{fill:#62694f;}.cls-495{fill:#6e7461;}.cls-496{fill:#5c644a;}.cls-497{fill:#535843;}.cls-498{fill:#949b81;}.cls-499{fill:#8a9278;}.cls-500{fill:#a6ad92;}.cls-501{fill:#b1b89b;}.cls-502{fill:#abb295;}</style></defs><title>런처</title><g id="레이어_2" data-name="레이어 2"><g id="레이어_1-2" data-name="레이어 1"><rect class="cls-1" width="74" height="74" rx="8.33" ry="8.33"/><path class="cls-2" d="M55.43,29.56c-.86,1.18-2.07,2.06-2.79,3.39a18.64,18.64,0,0,0-.58,2.15c-.71.51-1,1.4-1.84,1.82-.17.09-.14.36-.13.55a1.13,1.13,0,0,1-1,1.31,3.33,3.33,0,0,0-1.39.67,1.12,1.12,0,0,1-1.26.24.57.57,0,0,1-.26-.2.8.8,0,0,1,.07-.91,11.79,11.79,0,0,1,1.58-1.41c.33-.25.7-.59.52-1.06s-.58-.15-.88-.18-.57-.11-.86-.14a.63.63,0,0,1-.39-.19.84.84,0,0,1,.25-1.21c1-.77,1.73-1.73,2.74-2.45.17-.12.17-.34.25-.52,1.59-1.63,3.23-3.23,4.84-4.85.24-.1.5-.13.67-.37.73-1,1.81-1.56,2.53-2.55.58-.79,2.16-.73,3.07,0a3.13,3.13,0,0,1-1,1.43A35.87,35.87,0,0,0,55.43,29.56Z"/><path class="cls-3" d="M42.55,12.58l0,.77c.54.38.38,1,.39,1.47,0,.28,0,.56,0,.84s0,.53,0,.79,0,.49,0,.73c.24.93.9.49,1.39.36.26-.06.47-.33.79-.32,1,.37,1,.52.84,1.58-.18.5-.82.55-1,1a.85.85,0,0,1-.77.08c-.38-.15-.43-.74-1-.66s-1,.13-1.06.85a.68.68,0,0,1-.44.6.83.83,0,0,1-.78-.08c-.33-.58-1.35-.77-1-1.74a1.13,1.13,0,0,1,.52-.56,2.06,2.06,0,0,0,.91-1.94,4.91,4.91,0,0,1,0-1.38c0-.25,0-.49,0-.74,0-.51-.35-.54-.74-.53a2.11,2.11,0,0,1-1.24-.2.58.58,0,0,1-.19-.25.68.68,0,0,1,.23-.73h0A3,3,0,0,1,42.55,12.58Z"/><path class="cls-4" d="M51.1,11c1-.31,1.73.41,2.54.79a.92.92,0,0,1,.37.78,5.79,5.79,0,0,1,0,1.61,1.06,1.06,0,0,1-.31.86.84.84,0,0,1-.9.06c-.5-.39-.36-.94-.38-1.45s-.16-.72-.68-.7-.89,0-.86.63a.9.9,0,0,1-.3.71.84.84,0,0,1-.78.11.59.59,0,0,1-.3-.21c-.16-.26-.32-.51-.68-.37s-.32.38-.33.65,0,.44,0,.67a.92.92,0,0,1-.35.74.81.81,0,0,1-.87,0c-.49-.39-.35-.94-.35-1.46.15-.58-.51-.71-.64-1.13-.14-.84.29-1.14,1-1.12a8.64,8.64,0,0,1,.88,0c.68.07,1.36.12,1.81-.6C50.25,11.23,50.81,11.34,51.1,11Z"/><path class="cls-5" d="M60.78,17.3c1.39,0,2.17.52,2.33,1.6-.37.51-.92.36-1.42.36a1.8,1.8,0,0,1-.8-.09.72.72,0,0,1-.26-.14c-.19-.23-.26-.61-.68-.52s-.33.39-.34.67a10.78,10.78,0,0,1,0,2.2c-.05.75-.41,1.06-1.16.81a.94.94,0,0,1-.38-.83,7,7,0,0,1,0-1.58,5.25,5.25,0,0,0-.06-.79c0-.43-.32-.47-.68-.52a2.05,2.05,0,0,1-1.54-1.53.76.76,0,0,1,.12-.46c0-.05.09-.13.14-.13a6.23,6.23,0,0,1,2.58.07.86.86,0,0,0,1,.49A1.25,1.25,0,0,1,60.78,17.3Z"/><path class="cls-6" d="M53.65,12.55c0-.25,0-.51,0-.77a2.23,2.23,0,0,0,1.81-.6c.91-1,3.43,0,3.75,1.36a1.77,1.77,0,0,1-.75,1.05,2.59,2.59,0,0,1-.66.18,1.31,1.31,0,0,0-1.48,1.09c0,.13-.17.2-.28.27a.85.85,0,0,1-.83-.06,1,1,0,0,1-.34-.72C55,13.36,54.22,13,53.65,12.55Z"/><path class="cls-7" d="M58.4,22.05c.6.06.82-.27.82-.82a1.15,1.15,0,0,1,1.56-.15.84.84,0,0,1,.29.76c-.29.56.43.62.5,1v.38a.43.43,0,0,1-.2.4h-.79a3.26,3.26,0,0,1-1.55,0,1.09,1.09,0,0,0-1.33.37c-.7,1-1.81,1.6-2.53,2.58-.18.25-.45.23-.72.25a.59.59,0,0,1-.25-.69.51.51,0,0,1,.14-.26,1.06,1.06,0,0,0,.72-.83,23.53,23.53,0,0,1,3.22-2.93Z"/><path class="cls-8" d="M35.46,13.36c.69,0,1.43-.2,1.8.67,0,.08.36.05.54.07a3.81,3.81,0,0,0,.69-.7.55.55,0,0,1,.92-.05h0a1,1,0,0,1,.37.82c0,.56.19,1.13-.2,1.64a.89.89,0,0,1-.84.18,1.93,1.93,0,0,0-1.8-.68,1.2,1.2,0,0,1-.77-.22c-.21-.18-.31-.44-.57-.61C35.12,14.19,35.09,13.78,35.46,13.36Z"/><path class="cls-9" d="M35.46,13.36c0,.33,0,.63.39.78s.38.46.4.78l-.09.15a2.92,2.92,0,0,1-2.19.14c-.56-.14-.45-.82-.88-1.07-.05-.6.26-.81.82-.8S35,13.35,35.46,13.36Z"/><path class="cls-10" d="M58.35,13.38c0-.58.26-.88.85-.84,1.18.06.64,1,.8,1.58a3.11,3.11,0,0,1-.93,1.05.83.83,0,0,1-.85-.18A1.21,1.21,0,0,1,58.35,13.38Z"/><path class="cls-11" d="M33.09,14.14c.58,0,.81.25.79.8a1.19,1.19,0,0,1,.18,1.6.82.82,0,0,1-.85.22c-.41-.59-1.18-.57-1.68-1,0-.51.15-.81.7-.81S33.1,14.73,33.09,14.14Z"/><path class="cls-12" d="M18.78,29.94c.1-.77.87-1,1.25-1.58l.37,0,.16.1a2.67,2.67,0,0,1,0,2.34.81.81,0,0,1-.8.26c-.52,0-.49-.64-.87-.83A.44.44,0,0,1,18.78,29.94Z"/><path class="cls-13" d="M59.15,14.89c0-.59.32-.79.85-.77s.79.17.77.73,0,1.1,0,1.64a.63.63,0,0,1-.7.22.9.9,0,0,1-.46-.9.72.72,0,0,0-.31-.68A.55.55,0,0,1,59.15,14.89Z"/><path class="cls-14" d="M44,12.54c.63.18,1.61-.44,1.78.79a1.71,1.71,0,0,1-.79,1.05.92.92,0,0,1-.76,0,4.81,4.81,0,0,1-.83-1C43.36,12.92,43.42,12.55,44,12.54Z"/><path class="cls-15" d="M61.57,22.85c-.26,0-.52,0-.78,0s-.67,0-.71-.34.4-.4.7-.45a1.09,1.09,0,0,1,1.38-.27.75.75,0,0,1,.26.21.41.41,0,0,1-.07.46C62.23,22.84,61.88,22.82,61.57,22.85Z"/><path class="cls-16" d="M60,16.49h.78c0,.27,0,.54,0,.81-.49,0-1,0-1.47,0s-.94-.18-1-.81l.11-.15A1.06,1.06,0,0,1,60,16.49Z"/><path class="cls-17" d="M43.35,13.33c.53,0,.86.18.82.77l0,.13c-.4.2-.44.72-.84.92a.62.62,0,0,1-.69-.2l0-1.6Z"/><path class="cls-18" d="M39.41,13.35c-.33,0-.65,0-.8.4s-.48.36-.81.35c.22-.85.62-1.51,1.62-1.54C39.42,12.82,39.41,13.09,39.41,13.35Z"/><path class="cls-19" d="M63.11,19.68v1.55a.63.63,0,0,1-.79.18.71.71,0,0,1-.23-.28,1.44,1.44,0,0,1,.18-1.55A.61.61,0,0,1,63.11,19.68Z"/><path class="cls-20" d="M63.11,19.68h-.77a.61.61,0,0,1-.85.06.65.65,0,0,1,0-.86l1.59,0Z"/><path class="cls-21" d="M31.53,15.74c.59.13,1.52-.48,1.6.74l-.08.15a1.19,1.19,0,0,1-1.39.12.57.57,0,0,1-.2-.26Z"/><path class="cls-22" d="M27.52,20.41c0-.52.24-.77.76-.75l.14.07a.62.62,0,0,1,0,.77.61.61,0,0,1-.75.15A.39.39,0,0,1,27.52,20.41Z"/><path class="cls-23" d="M26.7,21.24a.74.74,0,0,1,.82-.83l0,.08a.6.6,0,0,1,.12.76.64.64,0,0,1-.75.22A.51.51,0,0,1,26.7,21.24Z"/><path class="cls-24" d="M30.66,17.26c0-.58.24-.82.8-.77l.09,0a.59.59,0,0,1-.67,1A.43.43,0,0,1,30.66,17.26Z"/><path class="cls-25" d="M28.28,19.66c0-.5.21-.85.79-.81a.42.42,0,0,1,.24.21.6.6,0,0,1-.18.74.58.58,0,0,1-.76-.11Z"/><path class="cls-26" d="M29.86,18.05c0-.55.22-.84.8-.79l.08.06a.59.59,0,0,1-.66,1A.43.43,0,0,1,29.86,18.05Z"/><path class="cls-27" d="M29.07,18.85c0-.51.21-.85.79-.8l.09.06a.59.59,0,0,1,0,.82.56.56,0,0,1-.81,0Z"/><path class="cls-28" d="M23.6,24.43c-.06-.59.2-.85.79-.79a.56.56,0,1,1-.79.79Z"/><path class="cls-29" d="M24.33,24.38l.06-.74.72,0a.42.42,0,0,1,.25.18.61.61,0,0,1-.83.84A.47.47,0,0,1,24.33,24.38Z"/><path class="cls-30" d="M22.74,26c0-.54.24-.83.8-.8a.39.39,0,0,1,.24.19.64.64,0,0,1-.1.74.65.65,0,0,1-.74.11A.47.47,0,0,1,22.74,26Z"/><path class="cls-31" d="M23.6,24.43l.73-.05.07.06a.58.58,0,0,1,0,.82.57.57,0,0,1-.81,0l-.08-.07Z"/><path class="cls-32" d="M21.93,26.77c0-.5.24-.84.81-.8l.09.05a.59.59,0,0,1,0,.82.58.58,0,0,1-.82,0Z"/><path class="cls-33" d="M26,22.06c-.06-.54.17-.83.73-.82l.08,0a.59.59,0,0,1,0,.83A.6.6,0,0,1,26,22.06Z"/><path class="cls-34" d="M63.13,22l-.77,0,0-.07a.46.46,0,0,1,0-.71l.75-.07Z"/><path class="cls-35" d="M26,22.06l.75,0,.14.08a.61.61,0,0,1-.73.95.49.49,0,0,1-.21-.24Z"/><path class="cls-36" d="M25.11,23.6c0-.55.21-.86.81-.8l.07.07a.56.56,0,1,1-.79.78Z"/><path class="cls-37" d="M55.23,57.25c-.83.86-1.64,1.75-2.51,2.57-.38.38-.94.16-1.42.2a1.21,1.21,0,0,1-1.3.34c-.42-.22-.6-.7-1.07-.92s-.39-.93.1-1.31c.73-.57.73-.57-.15-1-1.05-.46-1.21-.73-1.09-1.87s.8-1.11,1.5-1.24a4.34,4.34,0,0,0,1.65-.58c.44-.29.66-.67.35-1.17a16.88,16.88,0,0,0-1.86-2.68.75.75,0,0,1,.2-.79.63.63,0,0,1,.84.08c.75-.14,1,.6,1.35,1,.84.76,1.59,1.63,2.45,2.38.19.17.15.42.17.65a1.59,1.59,0,0,1-.08,2.28A3.89,3.89,0,0,0,53.07,57c0,.26-.4.33-.54.56.68-.3,1.44-.44,1.67-1.37a.64.64,0,0,1,1-.22C55.79,56.32,55.64,56.8,55.23,57.25Z"/><path class="cls-38" d="M44.55,62.39h-.38a1,1,0,0,1-1.1.33,3,3,0,0,0-1.42-.94c-.1-.44-.6-.6-.73-1A1,1,0,0,1,41,60a.63.63,0,0,1,.38-.25c1.3.19,2.31-.63,3.46-1,.34-.11.21-.33.09-.55a1.7,1.7,0,0,0-1.78-.95,11.2,11.2,0,0,1-1.64,0,.78.78,0,0,1-.66-.28.83.83,0,0,1,0-.91c.67-.58,1.47-.38,2.23-.36.66.21.75-.49,1.14-.71a6.3,6.3,0,0,1,2.25-.06,1.52,1.52,0,0,1,.84.13,1,1,0,0,1,.38.76,2.59,2.59,0,0,0,.66,1.78c.58.64.18,1.59-.84,2-.76.33-1.39,1-2.34.88-.16,0-.25.19-.3.35a2,2,0,0,0,0,.92A.74.74,0,0,1,44.55,62.39Z"/><path class="cls-39" d="M55.23,57.25c0-.19,0-.39,0-.59s-.06-.48-.36-.5-.41.22-.39.46c0,.74-.27,1.1-1,1.05-.29,0-.46.18-.6.43-.28.46-.75.37-1.15.29s-.48-.38-.17-.65c.69-.57,1.42-1.11,1.43-2.14a.27.27,0,0,1,.18-.21c1.38-.33,1.36-1.4,1.32-2.48,1,0,1.06,1,1.4,1.54A2.18,2.18,0,0,1,55.23,57.25Z"/><path class="cls-40" d="M29.92,63.17c-.68,0-1.37.18-1.81-.61-.08-.15-.48-.15-.74-.15-.92,0-1.84,0-2.76,0s-1.46-.74-1.81-1.54a.77.77,0,0,1,.07-.16c.42-.41.93-.29,1.43-.21,1,1.19,1,.79,1.72.09a.9.9,0,0,1,.77,0,1.22,1.22,0,0,0,1.24.6,1.65,1.65,0,0,1,1.15.14,3.31,3.31,0,0,0,.92,1A.66.66,0,0,1,29.92,63.17Z"/><path class="cls-41" d="M37.82,63.16h-7.1a.62.62,0,0,1-.13-.8c.55-.59,1.27-.33,1.91-.34a1.31,1.31,0,0,0,1.32-.59,1.38,1.38,0,0,1,.84-.2,4.11,4.11,0,0,1,1.6.11c.3.31.51.66,1.06.71S38.22,62.53,37.82,63.16Z"/><path class="cls-42" d="M50.47,48.93l-.77,0a.39.39,0,0,1-.39.09c-.38-.28-.27-.63-.14-1a.87.87,0,0,0-.45-1.28.91.91,0,0,1-.11-.3c-.2-1,.57-1.3,1.13-1.78.79-.09,1.62-.41,2.32.27,0,.27,0,.54,0,.8.16.73-.55,1-.89,1.27A2,2,0,0,0,50.47,48.93Z"/><path class="cls-43" d="M44.55,62.39v-.78c.31-.64.91-.37,1.4-.39s1,0,1.2-.6c.47-.36,1.06-.46,1.53-.81a.88.88,0,0,1,1.22.2h1.38c0,.59-.29.9-.84.78a2.07,2.07,0,0,0-2.14,1,1.57,1.57,0,0,1-1.51.62Z"/><path class="cls-44" d="M37.82,63.16A.7.7,0,0,0,37,62.4c-.52,0-.79-.23-.77-.76.25-.56.76-.41,1.2-.43s.72,0,1.08,0c.54,0,1.08,0,1.62,0a1.19,1.19,0,0,1,.84.19c.65,1-.28,1.27-.79,1.74Z"/><path class="cls-45" d="M22.8,60.85,22,60.79a8.4,8.4,0,0,1-.8-.78h0A1.18,1.18,0,0,1,21,58.48a.73.73,0,0,1,.79-.33.91.91,0,0,1,.31.12c.23.36.51.66,1,.56.73.08,1.51-.21,2.19.29a.8.8,0,0,1,.1.85c-.32.5-.83.44-1.31.44a1.52,1.52,0,0,0-1.28.35Z"/><path class="cls-46" d="M40.19,63.15c-.09-.68.71-.92.79-1.52a.5.5,0,0,1,.78-.05c.57,0,1.07.13,1.2.8-.17.6-1,.28-1.18.8Z"/><path class="cls-47" d="M41.78,63.18c0-.9.63-.77,1.18-.8l1.21,0c0,.58-.29.8-.85.78Z"/><path class="cls-48" d="M21.24,58.46l0,1.56-1.53,0a.43.43,0,0,1-.24-.18.65.65,0,0,1,.06-.74c.48-.16.51-.8,1-1A.62.62,0,0,1,21.24,58.46Z"/><path class="cls-49" d="M30.71,62.39v.76l-.8,0,0-.73.06-.13a.49.49,0,0,1,.67,0Z"/><path class="cls-50" d="M21.22,60c.58-.06.83.22.8.78C21.41,60.89,21.15,60.62,21.22,60Z"/><path class="cls-51" d="M19.62,60.8h-.8a.59.59,0,0,1,0-.82.57.57,0,0,1,.82,0l.08,0Z"/><path class="cls-52" d="M14.08,60.6l0-.6a.58.58,0,0,1,.82,0,.57.57,0,0,1,0,.82l-.6,0Z"/><path class="cls-53" d="M13.29,37.06l0-.74a.6.6,0,0,1,.86-.08c.53.74.24,1.58.28,2.39a1.45,1.45,0,0,1-.23.91.93.93,0,0,1-.89.25,1,1,0,0,1-.84-.34h0a.88.88,0,0,1-.34-.75,1.32,1.32,0,0,1,.06-.81C12.5,37.51,13.06,37.49,13.29,37.06Z"/><path class="cls-54" d="M12.51,37.87v.8a.67.67,0,0,1-.72.2c-.41-.23-.47-.75-.83-1V36.3a.92.92,0,0,1,1.54,0l0,.74A.6.6,0,0,1,12.51,37.87Z"/><path class="cls-55" d="M12.48,36.31H10.94c-.06-.57.2-.81.78-.81S12.55,35.74,12.48,36.31Z"/><path class="cls-56" d="M12.51,37.87c0-.27,0-.55,0-.82h.76C13.38,37.66,13.12,37.94,12.51,37.87Z"/><path class="cls-57" d="M14.1,36.3l-.77,0c-.08-.55.13-.86.72-.85l.13.06a.51.51,0,0,1,0,.68Z"/><path class="cls-58" d="M11,37.84c.55,0,.83.22.82.78a.43.43,0,0,1-.19.21.6.6,0,0,1-.65-.18h0C10.94,38.38,10.94,38.11,11,37.84Z"/><path class="cls-59" d="M16.42,33.88l.06-.74a.59.59,0,0,1,.81-.1.66.66,0,0,1,.14.82.64.64,0,0,1-.77.26A.51.51,0,0,1,16.42,33.88Z"/><path class="cls-60" d="M17.26,33.12l-.78,0c-.07-.56.16-.85.73-.83l.14.06a.5.5,0,0,1,0,.67Z"/><path class="cls-61" d="M17.27,31.55l.76,0a.55.55,0,0,1,.09.82.56.56,0,0,1-.83,0l-.08,0Z"/><path class="cls-62" d="M14.05,35.47a.73.73,0,0,1,.81-.82l.14.11a.6.6,0,0,1-.07.81.58.58,0,0,1-.8,0Z"/><path class="cls-63" d="M15.69,33.92l.73,0,.09.06a.62.62,0,0,1,.07.8.69.69,0,0,1-.81.18.68.68,0,0,1-.26-.22A.65.65,0,0,1,15.69,33.92Z"/><path class="cls-64" d="M15.69,33.92l0,.74a.48.48,0,0,1-.75.08l0-.09C14.86,34.09,15.14,33.86,15.69,33.92Z"/><path class="cls-65" d="M13.29,43.35a1.65,1.65,0,0,0,0-2.31,6.53,6.53,0,0,1,1.47-1,.8.8,0,0,1,1.08.14A2.83,2.83,0,0,1,16,42.48c-.13.54-.81.58-1,1.07a1.09,1.09,0,0,1-.76.21,1.13,1.13,0,0,1-.76-.15A.44.44,0,0,1,13.29,43.35Z"/><path class="cls-66" d="M15.65,40.23c-.22,0-.54-.06-.62.14-.35.87-1.08.65-1.73.67l0-.77a.56.56,0,0,1,0-.79l.82,0a1.17,1.17,0,0,1,1.55-.17.62.62,0,0,1,.14.84Z"/><path class="cls-67" d="M11.67,45.75l.07-.74a.59.59,0,0,1,.81-.1.69.69,0,0,1,.14.83.62.62,0,0,1-.78.25A.51.51,0,0,1,11.67,45.75Z"/><path class="cls-68" d="M12.51,45l-.77,0c-.07-.55.16-.84.73-.85a.34.34,0,0,1,.22.13.51.51,0,0,1-.06.63Z"/><path class="cls-69" d="M11,46.58,10.89,46c.21-.26.51-.21.78-.24l.09,0a.58.58,0,0,1,0,.82A.57.57,0,0,1,11,46.58Z"/><path class="cls-70" d="M12.47,44.16c0-.55.32-.77.82-.81l0,.08a.56.56,0,1,1-.79.79Z"/><path class="cls-71" d="M13.28,39.48c0,.26,0,.53,0,.79-.56,0-.82-.26-.76-.82Z"/><path class="cls-72" d="M11.77,38.62l.73.05v.78a1.06,1.06,0,0,1-.81-.2.43.43,0,0,1,0-.57Z"/><path class="cls-73" d="M11.69,38.68c0,.19,0,.38,0,.57-.36-.07-.67-.2-.77-.6Z"/><path class="cls-74" d="M49.72,45c-.06.3,0,.64-.44.75s-.38.46-.4.77a2,2,0,0,1-2.38.17c-.42-.63-.21-1.05.46-1.31,1.06,0,.63-.93.95-1.39a1.8,1.8,0,0,0,.54-1.28,1.36,1.36,0,0,1,.3-1.07.9.9,0,0,0,.56-.73c.1-.71.55-.9,1.21-.67.58.44.28,1.07.36,1.63.06.38-.21.88.38,1.07a1.53,1.53,0,0,1,.69.23.48.48,0,0,1,.17.23l-.07.76c-.29.47-.75.44-1.21.42A1.09,1.09,0,0,0,49.72,45Z"/><path class="cls-75" d="M49.11,38.46c.26-.14.59-.31.54-.63-.2-1.34,1.1-1.73,1.63-2.61.17-.28.49-.27.78-.12,0,.66,0,1.32,0,2-.89.28-1.18,1.17-1.79,1.75-.19.17-.16.41-.2.63-.14.85-.48,1-1.36.77C48.26,39.51,48.56,39,49.11,38.46Z"/><path class="cls-76" d="M48.91,40.24a1.08,1.08,0,0,0,.81-1.06,2.39,2.39,0,0,1,2.35-2.1c0,.27,0,.54,0,.81a6.69,6.69,0,0,0-1.36,2.39.44.44,0,0,1-.23.15c-.44,0-.76.15-.76.66s-.27.76-.78.74A.94.94,0,0,1,48.91,40.24Z"/><path class="cls-77" d="M52.08,38.45a1,1,0,0,1,.77,1.1c0,1,0,2,0,3.06,0,.51-.18.82-.74.8l-.1,0a1.25,1.25,0,0,1-.35-1.07c0-1,0-1.9,0-2.85C51.67,39.08,51.64,38.67,52.08,38.45Z"/><path class="cls-78" d="M52.08,38.45l0,1c-.4.24-.32.87-.83,1a.68.68,0,0,1-.71-.23c0-1.4.48-2.17,1.55-2.36Z"/><path class="cls-79" d="M49.72,45c-.06-.59.23-.82.79-.81l1.54,0c0,.27,0,.54,0,.81Z"/><path class="cls-80" d="M46.53,38.66l-.21.78c0,.06,0,.15,0,.18a16.6,16.6,0,0,0-3.49,3.85,2.37,2.37,0,0,0-1.58,1.17c-.38.67-1.23.88-1.72,1.49a16.47,16.47,0,0,1-3.06,0c-.49-.64-.39-1.12.31-1.43a6.46,6.46,0,0,1,.76-.18.32.32,0,0,0,.28-.24.29.29,0,0,0-.31-.32c-.7-.06-1.41-.32-2.06.24a1.6,1.6,0,0,1-1.82.09c-1.16-.46-2.4-1.15-3.62,0a1.1,1.1,0,0,1-1.38.17c-.62-.49-1.44-.47-2-.93-.36-.27-.74-.24-.93.12s.27.49.52.63a3,3,0,0,0,1.91.34,6.65,6.65,0,0,1,3,.59c.35.13.7.26.5.76a6.24,6.24,0,0,1-3.73,1.15,2.34,2.34,0,0,0-2.39,1.54c-.51,1.1-1.17,1.41-2,1.08a6.6,6.6,0,0,1-.17-2.3V45.78a8.88,8.88,0,0,1,.12-2.24A2.36,2.36,0,0,0,24,40.91a1.63,1.63,0,0,1,.91-2,5,5,0,0,1,2.74-1,1.82,1.82,0,0,0,1.44-.76c1.21-1.43,2.7-2.61,3.86-4.09a1,1,0,0,1,.66-.41,1.34,1.34,0,0,0,.81-.29c.34-.32.72-.53,1.12-.12a1,1,0,0,1,0,1.26,9.14,9.14,0,0,1-1.76,2.3,1,1,0,0,0-.4.86,4.54,4.54,0,0,0,1.18-.15,1.27,1.27,0,0,0,1.26-.6c1.06-1.2,2.34-2.16,3.47-3.29.26-.26.55-.4.87-.13a.68.68,0,0,1,.17,1,4.62,4.62,0,0,1-.89,1,3.25,3.25,0,0,0-.79,1.7c.45.23.59-.21.88-.22a2,2,0,0,1,.6-.09,1.53,1.53,0,0,0,1.31-.53A2.22,2.22,0,0,1,42,35c.46-.31.94-.54,1.44-.14A1.22,1.22,0,0,1,44,36.33a1.09,1.09,0,0,1-.89.55c-1.55.13-2.81,1.09-4.29,1.41-.19,0-.44.09-.42.33s.3.3.53.32a1.09,1.09,0,0,0,.75-.19c1.2-.85,2.5-.63,3.79-.33a2.6,2.6,0,0,0,1.72-.05C45.62,38.17,46.17,38.06,46.53,38.66Z"/><path class="cls-81" d="M46.53,38.66a2.39,2.39,0,0,0-1.61.34,1.12,1.12,0,0,1-1.12,0c-1.4-.46-2.78-.75-4.11.24a1.68,1.68,0,0,1-1.34.12,1.11,1.11,0,0,1-1-.88c0-.55.53-.54.93-.66a11.7,11.7,0,0,0,2.24-.71,9.77,9.77,0,0,1,3.2-.87c.34-.49.85-.38,1.34-.4s1.19.18,1.63-.38a2.43,2.43,0,0,0,1.68-.36c.24-.21.6-.16.56.18-.09.68.17,1.48-.56,2S47.39,38.53,46.53,38.66Z"/><path class="cls-82" d="M46.73,35.5c0,.58-.37.79-.91.78H43.76c-.1-.27-.2-.55-.32-.81-.2-.45-.44-.51-.92-.26-.75.39-1.31,1.25-2.33,1.07a.67.67,0,0,1,.09-1.1,22,22,0,0,0,4.29-4.28,1.26,1.26,0,0,1,1.09-.54,3.81,3.81,0,0,0,1.85-1.53c.34-.4.73-.74,1.05-1.14a.81.81,0,0,1,.94-.34.68.68,0,0,1,.49.85,1.52,1.52,0,0,1-.09.28c-.23.29-.6.48-.68.89a.72.72,0,0,1-.18.21c-.68.22-.62,1-1.14,1.39-.77,1.11-1.09,2.5-2.22,3.37-.35.26-.36.55.1.73a1.83,1.83,0,0,1,.54.42Z"/><path class="cls-83" d="M48.9,29.36c0-.06,0-.12,0-.18a1.9,1.9,0,0,0,.79-.8h0c.46-.43.56-1.36,1.52-1.08a1.1,1.1,0,0,0,1.37-.38,9.36,9.36,0,0,1,.92-.86c.28-.24.6-.39.93-.06v.8c-.27,1-1.27,1.49-1.88,2.27a26,26,0,0,1-2.11,2.09,1.1,1.1,0,0,1-.75.38L49,32.2c-.29.25-.57.47-.95.24a.82.82,0,0,1-.34-1,2.8,2.8,0,0,1,.23-.63C48.49,30.48,48.45,29.76,48.9,29.36Z"/><path class="cls-84" d="M48.11,30.75a1.4,1.4,0,0,0,0,.29c.08.39-.36.89.14,1.15s.56-.4.88-.55a2.61,2.61,0,0,1,.57-.1c-.28,1.09-1.37,1.54-1.93,2.4-.4.61-1.38.65-1.45,1.55a5.8,5.8,0,0,1-.59,0c-.41,0-1,.18-1.17-.28s.31-.84.59-1.15c.59-.65,1.38-1.08,1.49-2.14,0-.42.7-.78,1.08-1.17A.26.26,0,0,1,48.11,30.75Z"/><path class="cls-85" d="M46.53,39.45c0,.47-.28.65-.58.93a3.2,3.2,0,0,0-1,3,5.61,5.61,0,0,1-1.7,1.11.81.81,0,0,1-1.13-.27c-.33-.51.1-.77.44-1,.82-1.69,1.85-3.17,3.76-3.77Z"/><path class="cls-86" d="M40.19,18.9c-.17.75,1,.79.82,1.54l0,.13c-.43.19-.44.78-.9.94a.78.78,0,0,1-.76-.15.86.86,0,0,1-.26-.52c0-.66-.44-.77-1-.79s-1.4.23-2-.34a2.6,2.6,0,0,1-.2-1.6,1.29,1.29,0,0,1,.27-.89.76.76,0,0,1,1.28.58c0,.28,0,.61.39.67s.49-.25.63-.49a1,1,0,0,1,.25-.16,1.13,1.13,0,0,1,.75,0A1.65,1.65,0,0,1,40.19,18.9Z"/><path class="cls-83" d="M41.78,20.46c.07-1.3.44-1.64,1.63-1.59.53,0,.78.23.76.76a.65.65,0,0,1,0,.13,1.09,1.09,0,0,1-.46.33.89.89,0,0,0-.37,1.49,1.57,1.57,0,0,1,.34.57c0,1.24-.87,1.92-1.94,1.58a1.11,1.11,0,0,1-.29-.85,12.51,12.51,0,0,1,0-1.62A1,1,0,0,1,41.78,20.46Z"/><path class="cls-83" d="M40.19,18.9c-.6,0-.82-.3-.81-.85a1.2,1.2,0,0,1-.13-1.63,1.29,1.29,0,0,1,.91-.29c.57,0,1.17-.19,1.61.36C41.79,18.19,41.5,18.62,40.19,18.9Z"/><path class="cls-87" d="M45.75,18.87c0-.61,0-1.26-.81-1.37-.38-.19-.39-.54-.37-.9a1.67,1.67,0,0,1,.15-.85.69.69,0,0,1,.24-.24,1,1,0,0,1,.84,0,2.92,2.92,0,0,1,1,1.13c.08.79.35,1.6-.18,2.34A.65.65,0,0,1,45.75,18.87Z"/><path class="cls-88" d="M40.2,16.51h-.76a.48.48,0,0,1-.06-.75l0-1.61a1.82,1.82,0,0,1,2.35,0v.78A5.59,5.59,0,0,0,40.2,16.51Z"/><path class="cls-89" d="M40.2,16.51c0-1.58,0-1.58,1.56-1.58,0,.52,0,1,0,1.56Z"/><path class="cls-90" d="M44.92,16.49c0,.34,0,.67,0,1-.32,1-1.17.5-1.79.57s-.62-.34-.58-.77c.42-.53,1.27-.33,1.6-1A.66.66,0,0,1,44.92,16.49Z"/><path class="cls-91" d="M41.76,14.15H39.41c0-.27,0-.53,0-.8.52,0,1,0,1.56,0S41.82,13.55,41.76,14.15Z"/><path class="cls-92" d="M45.75,18.87h.78a.76.76,0,0,1,.34.78,1.2,1.2,0,0,1-.19.85.79.79,0,0,1-.78.23c-.55-.07-.51-.71-.9-.94l0-.13C44.9,19.09,45.19,18.85,45.75,18.87Z"/><path class="cls-93" d="M44.2,16.53c-.09,1.21-1,.65-1.63.77l0-.8a.72.72,0,0,1,.67-.33,1.15,1.15,0,0,1,.75.12A.43.43,0,0,1,44.2,16.53Z"/><path class="cls-94" d="M44.17,19.63l.78,0h0a.64.64,0,0,1,0,.9c-.93.15-1.06,0-.81-.87Z"/><path class="cls-86" d="M41.78,20.46l0,.82a.56.56,0,1,1-.77-.81l0,0Z"/><path class="cls-95" d="M43.38,16.49H42.6v-.76a.56.56,0,0,1,.81-.07A.57.57,0,0,1,43.38,16.49Z"/><path class="cls-96" d="M43.37,15.72l-.77,0V15l.72-.07a.4.4,0,0,1,.22.14.5.5,0,0,1-.06.63Z"/><path class="cls-97" d="M47.33,15.72H48a.49.49,0,0,1,.26.1.91.91,0,0,1,.2.64c.39.61.55.6,1-.07a.61.61,0,0,1,.24-.15,1,1,0,0,1,.73,0,5,5,0,0,1,1.1,1c.22.29.48.27.76.3a.9.9,0,0,1,.73,1.22,1,1,0,0,1-.9.46.45.45,0,0,0-.49.48,5.58,5.58,0,0,0,0,.7,1.17,1.17,0,0,0,.89,1.24.76.76,0,0,1,.55.52c.06.74-.35,1-1,1s-1.77.38-2-.91c0-.68,0-1.36,0-2a1.13,1.13,0,0,0-.57-1.14c-.29-.92-1.07-.59-1.7-.67C46.6,18.25,47,17.3,47,16.54,47,16.21,47,15.9,47.33,15.72Z"/><path class="cls-98" d="M50.46,14.14l0-.79a1.75,1.75,0,0,1,2.32,0l.06,1.57a.64.64,0,0,1,.08.84,1,1,0,0,1-.82.3c-1,.26-1.24-.69-1.81-1.12A.69.69,0,0,1,50.46,14.14Z"/><path class="cls-99" d="M47.33,15.72l0,.75a.5.5,0,0,1-.75.08c-.55,0-.88-.21-.84-.81-.47-.59-.6-1.24,0-1.76a1,1,0,0,1,1.57.17Z"/><path class="cls-100" d="M47.28,14.15c-1.51,0-1.51,0-1.57,1.59l-.71,0c-.66-.49-.55-1-.09-1.55,0-.53.22-.88.82-.84h.79C47.08,13.33,47.38,13.56,47.28,14.15Z"/><path class="cls-101" d="M53.65,12.55c1.62,0,1.62,0,1.57,1.6a1.18,1.18,0,0,1-1.56,0Z"/><path class="cls-102" d="M48.14,14.94a2.43,2.43,0,0,1,.09-1.34c.2-.36.63-.27,1-.26.51,0,.47.45.54.79l0,.13a1.44,1.44,0,0,0-.62.75.6.6,0,0,1-.25.16A.65.65,0,0,1,48.14,14.94Z"/><path class="cls-103" d="M52.82,13.37l-2.32,0c-.08-.95.61-.8,1.17-.79S52.92,12.41,52.82,13.37Z"/><path class="cls-104" d="M48.14,14.94l.76,0a.53.53,0,0,1,0,.79.51.51,0,0,1-.78,0H48Z"/><path class="cls-105" d="M52.81,15.71l.07-.77.71,0,.15.07a.63.63,0,0,1,0,.77.65.65,0,0,1-.75.18A.51.51,0,0,1,52.81,15.71Z"/><path class="cls-106" d="M50.46,14.14l.07.78-.09.13a.65.65,0,0,1-.75.07.61.61,0,0,1-.21-.24.67.67,0,0,1,.18-.74h.8Z"/><path class="cls-107" d="M53.66,14.14h.79a.59.59,0,0,1,0,.82.54.54,0,0,1-.8,0h-.11Z"/><path class="cls-108" d="M55.28,14.93H56a.68.68,0,0,1,.34.75.92.92,0,0,1-.27.8,1.63,1.63,0,0,0,1.51,1.57c.56.08.85.25.79.84-.28.57-1.18.14-1.37.86a.59.59,0,0,1-.24.17.87.87,0,0,1-.74-.06c-.29-.66-.85-1.16-1.11-1.85a2,2,0,0,1-.06-.73c0-.26,0-.52,0-.78,0-.47-.13-1,.17-1.41A.48.48,0,0,1,55.28,14.93Z"/><path class="cls-109" d="M60.77,21.25l-1.55,0c0-.78,0-1.56,0-2.34a.92.92,0,0,1,1.54,0h0c.55.36.4.92.39,1.44a1,1,0,0,1-.22.81Z"/><path class="cls-110" d="M56.08,19.7h.75a5.72,5.72,0,0,0,1.55,1.55l0,.81h0c-1.1.81-2.36.57-2.74-.52,0-.29,0-.59,0-.89s0-.55.16-.78A.46.46,0,0,1,56.08,19.7Z"/><path class="cls-111" d="M58.38,21.24a2.51,2.51,0,0,0-.39,0c-1,.2-1.32-.24-1.16-1.17a2.54,2.54,0,0,0,0-.39h0a.92.92,0,0,1,1.54,0Z"/><path class="cls-84" d="M56.07,16.49V15.7a2.52,2.52,0,0,1,2.38-.17.88.88,0,0,1,.19.24.72.72,0,0,1-.21.73h-.07A1.58,1.58,0,0,1,56.07,16.49Z"/><path class="cls-112" d="M58.37,19.69H56.83c0-1.26,1-.68,1.54-.79Z"/><path class="cls-113" d="M60.74,18.9H59.2c-.05-.53.16-.8.72-.8S60.8,18.29,60.74,18.9Z"/><path class="cls-113" d="M60.79,20.48c0-.52,0-1.05,0-1.57l.77,0c0,.27,0,.54.07.81a.62.62,0,0,1,0,.84A.6.6,0,0,1,60.79,20.48Z"/><path class="cls-114" d="M58.35,15.72c-.76,0-1.53.48-2.29,0L56,14.94c.11-1.59-.42-1.69,2.35-1.56,0,.52,0,1,.07,1.56A.49.49,0,0,1,58.35,15.72Z"/><path class="cls-115" d="M54.43,14.89c0-.25,0-.5,0-.75h.77l.06.78h-.09a.49.49,0,0,1-.6.18A.42.42,0,0,1,54.43,14.89Z"/><path class="cls-116" d="M56,21.24c0,.56.23.86.83.83s1,0,1.57,0c.17.7-.49.9-.83,1.18-.78.66-1.18,1.77-2.32,2l-.8.79h0c-1,.4-1.5,1.32-2.26,2s-.86.32-.91-.39c-.38-.39-.28-.75,0-1.14a10.82,10.82,0,0,1,1.29-1.33A11.21,11.21,0,0,0,55,21.27a.61.61,0,0,1,.24-.21A.63.63,0,0,1,56,21.24Z"/><path class="cls-117" d="M62.36,21.3l0,.71-1.56,0v-.77a.83.83,0,0,1,.77-.33.9.9,0,0,1,.79.27Z"/><path class="cls-83" d="M54.44,26a.7.7,0,0,1,.8-.79C55.27,25.77,55,26,54.44,26Z"/><path class="cls-118" d="M39.38,15.75l.06.75-.06,1.55-.77,0a.6.6,0,0,1-.36-.6c.11-.52-.34-.65-.61-.91a.86.86,0,0,1-.1-.32c.09-.72.46-.91,1.11-.56Z"/><path class="cls-119" d="M37,17.29l-.72,0-.16-.07c-.45-.44-.28-1-.25-1.51a.9.9,0,0,1,.34-.77l0-.05H37c.57.42.4,1,.38,1.57A.8.8,0,0,1,37,17.29Z"/><path class="cls-120" d="M37.07,16.53c0-.53,0-1.07,0-1.61.58.18,1.55-.49,1.63.76-.54,0-.89.17-.84.78C37.59,16.76,37.34,16.74,37.07,16.53Z"/><path class="cls-100" d="M36.22,15v.76a2.82,2.82,0,0,0-1.39,1.64.58.58,0,0,1-.26.18.73.73,0,0,1-.79-.2.61.61,0,0,1,.07-.82l0-1.59Z"/><path class="cls-121" d="M58.35,15.72l.07-.78.73,0,.06,0c.22.89.1,1-.77.78Z"/><path class="cls-122" d="M33.85,16.53l.07.77-.12.13a.59.59,0,0,1-.76-.91l.09,0Z"/><path class="cls-123" d="M18,32.29v-.76h0a8.57,8.57,0,0,0,.77-.82l.06-.75c.58-.07.78.24.78.76.53.33.15,1.32,1,1.41a.6.6,0,0,1,.2.27.9.9,0,0,1-.13.84,1.71,1.71,0,0,1-1.65.19c-.53-.07-.51-.72-.94-.9A.53.53,0,0,1,18,32.29Z"/><path class="cls-124" d="M20.43,28.41l.75-.08.15.07a.9.9,0,0,1,.24.77c0,.27,0,.55,0,.82a1.16,1.16,0,0,1-.22.81.62.62,0,0,1-.8.07l-.11-.13Z"/><path class="cls-125" d="M20.43,32.31c-1.3,0-.63-1-.77-1.58h.77A1,1,0,0,1,20.43,32.31Z"/><path class="cls-126" d="M58.44,15.72c.58.06.77-.26.77-.78,1.27,0,.61,1,.75,1.55H58.42Z"/><path class="cls-127" d="M44.91,14.17,45,15.72h-.08a.66.66,0,0,1-.74.2.73.73,0,0,1-.24-.22,1.12,1.12,0,0,1-.12-.8.77.77,0,0,1,.31-.72l0-.08Z"/><path class="cls-128" d="M21.18,28.33c0-.54.22-.81.78-.77l.14.06a.62.62,0,0,1,.1.74.6.6,0,0,1-.23.22.64.64,0,0,1-.74-.17Z"/><path class="cls-129" d="M22,26.81l.72,0,.15.07a.62.62,0,0,1,.09.73.58.58,0,0,1-.23.21.6.6,0,0,1-.72-.17L22,27.56Z"/><path class="cls-96" d="M44.13,14.18v.76a.53.53,0,0,1-.75,0l-.07-.07C43.34,14.36,43.54,14.05,44.13,14.18Z"/><path class="cls-130" d="M62.34,21.21l-.78,0a.59.59,0,0,1,0-.8l.06-.76h.75Z"/><path class="cls-131" d="M33,16.52l.07.76-.07.15a1.14,1.14,0,0,1-1.39.1.55.55,0,0,1-.19-.26l.09-.74Z"/><path class="cls-132" d="M28.37,19.69l.72-.05.14.06a.63.63,0,0,1,.13.7.69.69,0,0,1-.18.24.65.65,0,0,1-.71,0,.58.58,0,0,1-.18-.23Z"/><path class="cls-133" d="M27.49,21.22l.07-.73.73,0,.08,0a.64.64,0,0,1,.2.69.61.61,0,0,1-.18.24.65.65,0,0,1-.72,0A.43.43,0,0,1,27.49,21.22Z"/><path class="cls-134" d="M26.72,22l.06-.74.71-.05.08.06a.63.63,0,0,1,.17.73.69.69,0,0,1-.22.23.64.64,0,0,1-.74-.16Z"/><path class="cls-135" d="M30.67,18.07l.07-.75.72-.05.08.06c.36.68.14,1-.61,1A.52.52,0,0,1,30.67,18.07Z"/><path class="cls-136" d="M29.16,18.9l.71,0,.14.06a.62.62,0,0,1,.1.74.52.52,0,0,1-.23.21.6.6,0,0,1-.72-.17l-.07-.06Z"/><path class="cls-137" d="M29.87,18.86l.08-.75.72,0,.08.05a.59.59,0,0,1,0,.82.57.57,0,0,1-.81,0Z"/><path class="cls-138" d="M25.2,23.65l.73,0,.14.1c.27.68,0,1-.69.92a.45.45,0,0,1-.24-.23Z"/><path class="cls-139" d="M24.34,25.19l.06-.75.74-.05.07.06c.36.68.14,1-.61,1A.56.56,0,0,1,24.34,25.19Z"/><path class="cls-140" d="M23.62,25.24l.72,0,.09,0a.65.65,0,0,1,.1.78.62.62,0,0,1-.76.19.49.49,0,0,1-.22-.23Z"/><path class="cls-141" d="M22.75,26.77l.08-.75.72,0,.08,0a.65.65,0,0,1,.16.73.63.63,0,0,1-.23.23.6.6,0,0,1-.72-.16Z"/><path class="cls-142" d="M26.78,22.08l.75,0c.35.74.28.87-.54,1a.51.51,0,0,1-.27-.21Z"/><path class="cls-143" d="M25.93,23.6l.06-.73.73-.05.08,0c.19.89.08,1-.8.81Z"/><path class="cls-144" d="M49.91,60a2.2,2.2,0,0,0-1.49.53,1.84,1.84,0,0,1-1.1.27,2.44,2.44,0,0,1-2.76,0c0-.31.1-.72.41-.69,1,.12,1.47-.77,2.29-.93a1.55,1.55,0,0,0,.83-.66c.24-.32.22-.69-.18-.79-.77-.19-.75-.65-.63-1.26a6.6,6.6,0,0,0,0-1.18.53.53,0,0,1,.8,0,1.25,1.25,0,0,0,1.16,1.52,1.53,1.53,0,0,1,.81.36.91.91,0,0,1,.35.87c-.08.38-.4.37-.7.4s-.64,0-.73.34.24.42.48.52S49.87,59.7,49.91,60Z"/><path class="cls-145" d="M49.29,48.93l.41,0v.78a17.61,17.61,0,0,1,1.06,1.72,1.26,1.26,0,0,1-.87,1.84,4.09,4.09,0,0,1-1,.07A1.87,1.87,0,0,0,47,54.54a1.82,1.82,0,0,1-.51.71l-2.34,0a.73.73,0,0,1-.78.17.88.88,0,0,1-.34-1.19,1,1,0,0,1,1-.62,4,4,0,0,1,.69,0c.5.06.8-.08.84-.66a1.5,1.5,0,0,1,1.25-1.42c1.31-.33,1.52-.63,1.67-2C48.6,49.12,48.7,48.72,49.29,48.93Z"/><path class="cls-146" d="M46.52,55.25c0-1.75.62-2.33,2.35-2.35.55,0,1.17.13,1.49-.5s0-1-.44-1.45-.21-.8-.22-1.22c.35,0,.66.12.75.5a4.27,4.27,0,0,0,1.11,1.6c.66.79.6,1.49-.27,2a4.54,4.54,0,0,1-1.83.67c-.51.06-1.17,0-1.35.75h-.8Z"/><path class="cls-147" d="M48.89,49.73c0,1.53-.33,2-1.79,2.31-.85.17-1.28.45-.91,1.37.22.56-.15.79-.63.84a3.66,3.66,0,0,1-.87-.08c-1.15-.19-1.29-.08-1.32,1.11a.51.51,0,0,1,0,.76L41,56.09,40.84,56c-.47-.44-1.23-.69-1-1.57a1.17,1.17,0,0,0-1.21-1.06,13.33,13.33,0,0,0-1.56-.1,1,1,0,0,1-1-.46.86.86,0,0,1,.12-.87,1.34,1.34,0,0,1,1-.3c1.66,0,3.33-.09,5,0,.42,0,.56.43.86.61a1.6,1.6,0,0,0,2.31-.89,4.73,4.73,0,0,1,3-2A.84.84,0,0,1,48.89,49.73Z"/><path class="cls-148" d="M41,56.09l0,.76c-.35.74-1,.21-1.43.4.56.1,1.27-.19,1.91.18a1.32,1.32,0,0,0,1.05.62.82.82,0,0,1,.93.8c0,.58-.39.78-.91.77a1.35,1.35,0,0,0-1,.4h-.39c-.67.66-1.46.38-2.22.3-.15-.08-.32-.2-.31-.36,0-1.07-.69-1.16-1.46-1.05a4.77,4.77,0,0,1-3.51-1.23.86.86,0,0,1-.07-.75.77.77,0,0,1,.42-.37c1.19-.64,1.27-1.23.29-2.16,0-.73-.37-1.58.76-1.8a1.65,1.65,0,0,1,.32.06c.37.16.35.75.84.78a.46.46,0,0,1,.21.18c.08.4.39.56.74.67a10.57,10.57,0,0,0,.82.82c.11.53.47.62.93.54.71,0,1.46-.21,2,.41Z"/><path class="cls-149" d="M41.58,60a.86.86,0,0,1,.94-.8c.24,0,.61,0,.62-.31s-.35-.42-.64-.47c-.5-.08-1-.19-1.11-.79a.5.5,0,0,1,.16-.22c.54-.38,1.34.1,1.79-.55.46,0,1.11-.33,1.32,0,.42.62.87,1.21,1.3,1.81.26.36-.09.53-.42.54a2.58,2.58,0,0,0-1.85.64C43.18,60.3,42.3,60,41.58,60Z"/><path class="cls-149" d="M38.81,60h2.38c0,.26,0,.52,0,.78-.2.42-.59.4-1,.4H38.56c-1.31,0-2.62,0-3.93,0a1,1,0,0,1-.89-.36c-.24-.56-.07-1.06.5-1.15a13.15,13.15,0,0,1,4.2,0C38.61,59.72,38.71,59.88,38.81,60Z"/><path class="cls-150" d="M41.58,57.64h-3c-.29,0-.66,0-.62-.44s.36-.33.62-.33c.82,0,1.63,0,2.45,0l.57,0A.52.52,0,0,1,41.58,57.64Z"/><path class="cls-112" d="M44.56,60.8h2.76c.06.53-.16.8-.71.79h-2c-.24,0-.53-.07-.53-.4S44.32,60.85,44.56,60.8Z"/><path class="cls-151" d="M41.58,57.64v-.76h1.77c0,.53-.18.78-.71.77Z"/><path class="cls-152" d="M40.19,60.83l1,0c.5,0,.63.34.58.78l-.78.05-.79-.05A.51.51,0,0,1,40.19,60.83Z"/><path class="cls-153" d="M43.34,56l0-.76.81,0C44.19,55.88,43.9,56.11,43.34,56Z"/><path class="cls-154" d="M26.75,60.83l-.79,0-.13-.06c-.37-.32-.27-.77-.26-1.17s-.15-.73-.65-.73c-.72-.05-1.43,0-2.15-.05a1,1,0,0,1-.78-.34l0,0c-.41-.6-1.19-.21-1.68-.61a.59.59,0,0,1-.17-.27.83.83,0,0,1,.11-.79c.28-.22.58-.4.55-.84s.17-1,.76-1,.8.41.85.94c0,.13.12.23.2.33a4.88,4.88,0,0,0,2.87,1.1,1.15,1.15,0,0,1,1.26,1.23c0,.77.68,1.49.13,2.28Z"/><path class="cls-155" d="M29.12,61.6H27.58c-.55,0-.86-.18-.83-.77v-.07a3.42,3.42,0,0,1,3.11-.16.71.71,0,0,1,.3.83.63.63,0,0,1-.21.3A.64.64,0,0,1,29.12,61.6Z"/><path class="cls-156" d="M22.79,60.76c0-.55.26-.76.78-.74h1.56a.56.56,0,0,1,.1.84.68.68,0,0,1-.88,0Z"/><path class="cls-157" d="M24.35,60.85l.83,0a.56.56,0,0,1,.79,0v0c.05.56-.2.8-.78.8S24.33,61.43,24.35,60.85Z"/><path class="cls-158" d="M29.12,61.6l.78,0a.52.52,0,0,1,0,.79l0,.07C29.34,62.43,29,62.19,29.12,61.6Z"/><path class="cls-159" d="M33.86,61.62c0,.53-.19.78-.73.77H30.71a.88.88,0,0,1-.33-.77,1.16,1.16,0,0,1,.16-.83.87.87,0,0,1,1.24,0,2.41,2.41,0,0,0,1.26.49.86.86,0,0,1,.75.24A1,1,0,0,1,33.86,61.62Z"/><path class="cls-160" d="M34.68,60.86l3.93,0a.49.49,0,0,1,0,.73l-2.37.07-1.56-.08A.44.44,0,0,1,34.68,60.86Z"/><path class="cls-161" d="M34.68,60.86v.7l-.82.06,0,0a.5.5,0,0,1-.13-.67l.12-.1Z"/><path class="cls-162" d="M11.67,52.13c-.59,0-.76-.34-.8-.84l.08,0a.57.57,0,0,1,1,.59A.47.47,0,0,1,11.67,52.13Z"/><path class="cls-163" d="M14.05,54.5l-.74,0,0-.74a1,1,0,0,1,.08-.14.63.63,0,0,1,.77,0,.62.62,0,0,1,.17.74A.42.42,0,0,1,14.05,54.5Z"/><path class="cls-164" d="M13.27,53.72a.69.69,0,0,1-.82-.78.46.46,0,0,1,.17-.24.67.67,0,0,1,.72,0,.65.65,0,0,1,.19.24.64.64,0,0,1-.2.7Z"/><path class="cls-165" d="M12.45,52.94c-.57,0-.76-.32-.78-.81l.08,0a.62.62,0,0,1,.73-.17.58.58,0,0,1,.22.22.63.63,0,0,1-.16.74Z"/><path class="cls-166" d="M18,60.78H15.7a.61.61,0,0,1,0-.88,2.37,2.37,0,0,1,2.45,0A.65.65,0,0,1,18,60.78Z"/><path class="cls-167" d="M18,60.78l0-.74a.44.44,0,0,1,.81,0l-.05.74Z"/><path class="cls-168" d="M15.68,60l0,.77h-.8L14.84,60l.07-.13a.52.52,0,0,1,.68,0Z"/><path class="cls-169" d="M48.89,49.73c-1,.1-1.75.79-2.67,1.11-.24.08-.33.38-.42.63-.55,1.65-2.18,2-3.43.64.13-.39.47-.4.79-.45s.7-.07.71-.51-.3-.55-.61-.68a4.31,4.31,0,0,0-1.32-.31.87.87,0,0,1-.74-.41c-.36-1.42-.27-1.31.9-2A7.68,7.68,0,0,1,46.47,47a6.63,6.63,0,0,0,2.43-.2c.25-.07.5-.15.75-.21s.4-.13.53.08a.37.37,0,0,1-.07.45c-.51.51-.47,1.26-.82,1.84C48.9,49.07,48.91,49.4,48.89,49.73Z"/><path class="cls-170" d="M48.9,46.77c0,.45-.32.59-.72.59H46.53a.54.54,0,0,1,0-.77l0-.06h2.33Z"/><path class="cls-171" d="M38.61,61.57v-.73h1.58v.75Z"/><path class="cls-172" d="M26,60.79l-.79,0L25.13,60l0-.77a.59.59,0,0,1,0-.81c.59-.05.82.24.81.8S26,60.28,26,60.79Z"/><path class="cls-173" d="M25.15,58.45v.81l-2.33-.06a.49.49,0,0,1,0-.74Z"/><path class="cls-174" d="M20.44,57.64c.57.16,1.52-.44,1.57.78l-.77,0-.8,0A.48.48,0,0,1,20.44,57.64Z"/><path class="cls-175" d="M22.78,58.46c0,.24,0,.49,0,.74-.56.07-.86-.15-.83-.74Z"/><path class="cls-176" d="M11,50.51V47.37a.61.61,0,0,1,.86-.06,3.33,3.33,0,0,1,.28,2.38,1.21,1.21,0,0,1-.28.88A.6.6,0,0,1,11,50.51Z"/><path class="cls-177" d="M11.71,47.35l-.75,0v-.79h.72l.13,0a.49.49,0,0,1,0,.66Z"/><path class="cls-178" d="M11,50.51l.75,0,.12.06a.48.48,0,0,1,.06.61.38.38,0,0,1-.22.13H11Z"/><path class="cls-179" d="M14.07,59.24l0-4.74.09,0a.61.61,0,0,1,.8-.11.58.58,0,0,1,.21.28,16,16,0,0,1,0,4.43.78.78,0,0,1-.21.29.62.62,0,0,1-.82-.14Z"/><path class="cls-180" d="M20.44,57.64v.78c0,.52-.18.85-.76.81l-.17-.09a1.18,1.18,0,0,1,0-1.59.66.66,0,0,1,.88.1Z"/><path class="cls-181" d="M19.6,60l-.73,0L18.79,60a.58.58,0,0,1,0-.81.56.56,0,0,1,.81.06h.09Z"/><path class="cls-182" d="M14.13,59.21l.71,0a.49.49,0,0,1,.08.77l-.08,0-.73,0C14.12,59.74,14.12,59.47,14.13,59.21Z"/><path class="cls-183" d="M30.7,61.59v.79h-.78l0-.79h0A.58.58,0,0,1,30.7,61.59Z"/><path class="cls-184" d="M14.1,38.64V36.3h0a.67.67,0,0,1,.78-.16c.6.45.25,1.44,1,1.8a.77.77,0,0,1-.18.87A1.14,1.14,0,0,1,14.1,38.64Z"/><path class="cls-185" d="M14.1,38.64h1.54l.13.07a.49.49,0,0,1,0,.66l-.12.08H14.1Z"/><path class="cls-186" d="M18.82,30.72c.07.58-.18.86-.77.82C18,31,18.25,30.7,18.82,30.72Z"/><path class="cls-187" d="M14.89,36.3H14.1l0-.77.72-.05.13.06a.52.52,0,0,1,0,.68Z"/><path class="cls-188" d="M17.23,33.89l0-.77h0a.64.64,0,0,1,.76-.18.69.69,0,0,1,.24.24c.15.66-.06,1-.78.93A.54.54,0,0,1,17.23,33.89Z"/><path class="cls-189" d="M16.43,34.68l.08-.74.72,0,.06,0c.37.67.16,1-.6,1A.5.5,0,0,1,16.43,34.68Z"/><path class="cls-190" d="M18,33.08l-.78,0,0-.77.74-.06,0,.08A.45.45,0,0,1,18,33.08Z"/><path class="cls-191" d="M14.9,34.74l.75-.08,0,.08a.62.62,0,0,1,.17.72.69.69,0,0,1-.22.23.62.62,0,0,1-.73-.17l-.07-.05Z"/><path class="cls-192" d="M15.67,35.49l0-.75.73-.06.08,0C16.7,35.63,16.54,35.77,15.67,35.49Z"/><path class="cls-193" d="M15.67,42.61c0-.79,0-1.59,0-2.38h0a1.38,1.38,0,0,0,.57-.82.69.69,0,0,1,.19-.19c.52,0,.52-.63.91-.79a.79.79,0,0,1,.73.07.74.74,0,0,1,.18,1.06c-.74.84-.36,1.56.09,2.31.21.86-.39,1.1-1,1.34C16.79,43,16.07,43.24,15.67,42.61Z"/><path class="cls-194" d="M15.67,42.61a2.2,2.2,0,0,1,1.59.4.42.42,0,0,1,.08.43c-.27.28-.55.54-.49,1a.74.74,0,0,1-.35.76.9.9,0,0,1-.77,0,.78.78,0,0,1-.45-.81.87.87,0,0,0-.35-.86l-.06-.14C14.85,42.87,15.09,42.57,15.67,42.61Z"/><path class="cls-195" d="M14.07,43.43h.8a.64.64,0,0,1,.08.86.67.67,0,0,1-.88,0A.6.6,0,0,1,14.07,43.43Z"/><path class="cls-196" d="M14.07,43.43l.07.76-.06.12a.53.53,0,0,1-.65.08.4.4,0,0,1-.16-.22l.05-.74Z"/><path class="cls-197" d="M16.47,39.45c.05.59-.23.85-.81.77,0-.26,0-.52,0-.78h0A.54.54,0,0,1,16.47,39.45Z"/><path class="cls-198" d="M18.84,59.23l-.05.74-.73.07-2.38,0h0a.89.89,0,0,1-.35-.76c-.08-1.21,0-2.42,0-3.63a1.31,1.31,0,0,0-.38-1.16l0,0a1,1,0,0,1-.35-.6c0-.45-.17-.67-.62-.63a.94.94,0,0,1-.6-.36h0a9.69,9.69,0,0,1-.78-.79l0,0c-.18-.2-.38-.39-.35-.69s0-.5,0-.74a1.12,1.12,0,0,0-.37-1l0-2.37,0,0a1.14,1.14,0,0,0,.4-1c0-.27.18-.44.34-.63l0-.77h0a.93.93,0,0,1,.82-.34,1.19,1.19,0,0,1,.88.2c.52,1,.14,2,.26,3-.12.53.19.82.58,1.08a1.18,1.18,0,0,1,.19.66c0,.43.14.64.59.6a1.24,1.24,0,0,1,.65.17c.66.8.81.81,1.39.1a1.76,1.76,0,0,0,.84-.84c.47-.12.59-.6.91-.88.49-.24.34-.7.39-1.11.12-.91-.3-1.87.27-2.73a.87.87,0,0,1,.81-.12c.44.22.53.81,1,.94a1.16,1.16,0,0,1,.23.71c-.1.5.28.66.6.87a1.48,1.48,0,0,1,.12.29,6.11,6.11,0,0,1,0,2.09c-.15.41-.86.39-.74,1a1.38,1.38,0,0,1-.17.69c-.27.3-.75.4-.84.87-.33.21-.68.4-.81.82-.3.19-.65.34-.56.8a1.57,1.57,0,0,1-.17.73.61.61,0,0,1-.24.21c-.42.2-.36.58-.36.94,0,.82,0,1.65,0,2.47A1.17,1.17,0,0,1,18.84,59.23Z"/><path class="cls-199" d="M12.49,45.76v.79a.47.47,0,0,1-.73,0h-.09l.09-.77Z"/><path class="cls-200" d="M13.28,45l-.75,0v-.78l.74,0,.08.06A.52.52,0,0,1,13.28,45Z"/><path class="cls-201" d="M51.26,40.23c0-.51.18-.86.78-.76,0,1.31,0,2.61,0,3.92l-.71,0A3,3,0,0,1,51.26,40.23Z"/><path class="cls-202" d="M51.26,40.23c0,1.05,0,2.09.05,3.13-.6.1-.84-.18-.83-.77s0-1.44,0-2.16a1.16,1.16,0,0,1,0-.18Z"/><path class="cls-203" d="M47.3,45.76c.17-.57-.41-1.53.82-1.56C48,44.78,48.56,45.75,47.3,45.76Z"/><path class="cls-204" d="M41.78,23.62a1.9,1.9,0,0,0,1.57-1.56.62.62,0,0,1,.79-.19,1.17,1.17,0,0,1,.33,1.52c-.56.87-.64,2-1.55,2.68a5.27,5.27,0,0,0-2.31,2.76,3.78,3.78,0,0,1-1.16,1.43,11.4,11.4,0,0,0-2.67,3.32c.81-.81,1.65-1.61,2.41-2.5s1.66-1.47,2.45-2.27c1.16-1.19,2.37-2.34,3.47-3.58a7.11,7.11,0,0,0,1.41-1.8c.37-.19.53-.59.84-.83a1.51,1.51,0,0,1,.81-.12c1,.13,1.56,1,1,1.86A3.68,3.68,0,0,1,47,26.27a.82.82,0,0,0-1.24.4c-.51.86-1.54,1.19-2.2,1.94-2.48,2.81-5.46,5.1-8,7.82a3.61,3.61,0,0,1-.86.65,1.4,1.4,0,0,0-1,.35.57.57,0,0,1-.73,0,.68.68,0,0,1-.18-.8,3.63,3.63,0,0,1,1.31-1.79c.58-.42.72-1.06,1.15-1.53a.58.58,0,0,0,.08-.81c-.3-.29-.52.06-.76.2l-.67.4c-.35-.4-.37-.77.12-1a.65.65,0,0,0,.33-.56,1,1,0,0,1,.3-.8c1.79-1.81,3.45-3.74,5.24-5.55.29-.3.81-.33.94-.81.26-.25.67-.31.85-.67Z"/><path class="cls-205" d="M43.56,45.78c.53,0,1,.16,1.19.78a.46.46,0,0,1-.33.33,11.84,11.84,0,0,0-3.75,1.54,2.76,2.76,0,0,1-2.2,0,.57.57,0,0,1-.27-.6c.27-.85-.27-.82-.82-.79a2.91,2.91,0,0,1-.59,0,1.61,1.61,0,0,0-1.85.69c-1,.08-2.11,0-3.17,0-.58.09-1.31-.29-1.64.55-.31.25-.74.39-.91.81-.51.1-.56.66-.9.93a3.31,3.31,0,0,1-1.71.08,1.85,1.85,0,0,0-1.2.18c-.8.46-.88,1-.23,1.6a.9.9,0,0,1,.26.4.8.8,0,0,1-.74,1c-.52.07-1.08.13-1.42-.41a1.34,1.34,0,0,0-.51-.57.77.77,0,0,1-.26-.78,1,1,0,0,1,.11-.29c.32-.23.7-.41.6-.92a.56.56,0,0,1,.41-.58A2.56,2.56,0,0,0,25,48.35a2.66,2.66,0,0,1,2.79-1.78c.85,0,1.74.23,2.42-.65.26-.33.88-.1,1.33-.15a.78.78,0,0,1,.54-.38,16.94,16.94,0,0,1,3.63,0,1.09,1.09,0,0,1,.57.37H39.6A4.2,4.2,0,0,1,43.56,45.78Z"/><path class="cls-206" d="M34.66,31.54c.11.71-1,.83-.79,1.58-.65.1-.82.71-1.19,1.1-1.14,1.19-2.38,2.26-3.41,3.55a1.83,1.83,0,0,1-1.66.69,4.3,4.3,0,0,0-2.85,1.17c-.55.37-.4,1-.18,1.52a1.68,1.68,0,0,1-.94,2.26l-.17-.09a.93.93,0,0,1-.28-.71c0-1.9,0-3.8,0-5.7a1.9,1.9,0,0,1,.14-.57c.45-.76,1.09-.55,1.74-.32a1.48,1.48,0,0,0,1.57.66c.4,0,.52-.2.51-.55a1.38,1.38,0,0,1,.17-.66c.28-.29.74-.4.84-.86a1.78,1.78,0,0,0,.83-.84c.43-.13.61-.52.86-.84a2,2,0,0,1,.68-.24c1.13-.11,1.94-1,3.05-1.22C34,31.4,34.32,31.19,34.66,31.54Z"/><path class="cls-207" d="M36.24,45.76H31.5c-1.17-.2-2.19-.92-3.51-.69-1.1.19-2.15-.46-3.21-.78-.42-.12-.43-.46-.07-.74s.75-.53,1.12-.79.76-.47,1,.19c.11.33.4.41.71.44.16,0,.4,0,.48.07,1,1.14,1.75.44,2.54-.27.12-.1.35-.27.41-.23.88.56,2.06.12,2.83.78.55.46.95.46,1.36,0,.93-1,2-.31,2.95-.24.36,0,.51.49.48.88s-.41.53-.79.55C37.14,45,36.48,45,36.24,45.76Z"/><path class="cls-208" d="M34.66,37.08c1-1,1.9-2,2.89-3,1.37-1.32,2.59-2.79,4-4.07,1.15-1,2-2.42,3.4-3.18a1.8,1.8,0,0,0,.74-1c.11-.28.22-.59.61-.52s.39.4.42.7c.5,1.39.06,2.24-1.51,2.92-.21.06-.52,0-.59.28-.46,1.56-1.89,2.39-2.7,3.69a8.28,8.28,0,0,1-1.86,2.27c-.37.29,0,.88-.46,1.12-.12.66-.53.95-1.14.71s-.34-.78-.18-1.24a6.94,6.94,0,0,1,1.56-2.12c.22-.25.5-.59.15-.85s-.43.25-.65.41a41.66,41.66,0,0,0-4,3.68A1,1,0,0,1,34.66,37.08Z"/><path class="cls-209" d="M39.61,36.28a1.67,1.67,0,0,1,.48-1.88C41.57,33,42.48,31.11,44,29.7c.35-.33.3-1,1-1.13A4.62,4.62,0,0,1,46,29.87a.8.8,0,0,1-.27.88c-.79,0-1,.73-1.37,1.14a19.27,19.27,0,0,1-3.91,3.69c-.27.16-.24.44-.27.7Z"/><path class="cls-206" d="M38.62,41.88c-.18-.64.53-.85.82-1.27a2.41,2.41,0,0,1,2.64-1.15c.59.13.77.37.32.84-.73.75-1.47,1.49-2.23,2.22a1,1,0,0,1-1.18.19C38.67,42.57,38.63,42.26,38.62,41.88Z"/><path class="cls-210" d="M23.63,49.73l-.07.78a.61.61,0,0,1-.73.2.51.51,0,0,1-.23-.23.68.68,0,0,1,.16-.76l0-2.37a.49.49,0,0,1,.74,0Z"/><path class="cls-211" d="M23.64,43.41l-.1,2.39a.63.63,0,0,1-.77.15.64.64,0,0,1-.23-.26,3.49,3.49,0,0,1-.12-1.54,1.08,1.08,0,0,1,.29-.82.6.6,0,0,1,.83.06Z"/><path class="cls-212" d="M22.79,45.79h.75c0,.52,0,1.05,0,1.57l-.74,0,0,0a1,1,0,0,1-.29-.81C22.45,46.26,22.47,46,22.79,45.79Z"/><path class="cls-213" d="M38.41,48.14c1.6.29,2.87-.56,4.13-1.31.73-.43,1.48-.15,2.21-.27l1.77,0c0,.25,0,.51,0,.77a8.09,8.09,0,0,0-4.74,1c-.33.16-.52.27-.33.64a.8.8,0,0,1-.07.75c-.23.49-.7.48-1.11.45a6.6,6.6,0,0,0-4.66,1.35,1.91,1.91,0,0,1-1.87,0,.68.68,0,0,1,.14-1.09,13.25,13.25,0,0,0,1.5-1.77,1.65,1.65,0,0,1,.79-.19.83.83,0,0,0,.49-.27A1,1,0,0,1,38.41,48.14Z"/><path class="cls-214" d="M45.74,30.75v-1c.08-.52.52-.81.83-1.18a34.57,34.57,0,0,1,4-4.36,1.46,1.46,0,0,0,.48-.72c.26-.34.78-.27,1-.66.56,0,.83-.23.77-.8l0-.14a.85.85,0,0,0,.36-.83.81.81,0,0,1,.38-.82c1-.4,1.16.49,1.58,1,0,1.66-1.06,2.77-2,4-.63.82-1.74,1.23-2,2.37-.32,0-.64,0-.78.4s-.47.39-.79.4c0-.28,0-.64-.36-.71s-.39.27-.57.44c-.77.79-1.56,1.57-2.33,2.35A1,1,0,0,1,45.74,30.75Z"/><path class="cls-214" d="M48.11,30.75h-.39c.37-.48.27-1.36,1.18-1.39C48.84,29.94,49.17,30.74,48.11,30.75Z"/><path class="cls-214" d="M49.7,28.38c0,.56-.23.83-.79.8A1.31,1.31,0,0,1,49.7,28.38Z"/><path class="cls-215" d="M33.92,17.3l.72,0c.41.49,1.2.19,1.58.74l0,1.57-.07.13a.8.8,0,0,1-.73.17c-.57-.25-1.32.4-1.82-.33a1.56,1.56,0,0,1-.14-.8c0-.52-.14-1.08.33-1.51Z"/><path class="cls-216" d="M36.25,19.64l1.48,0c1.61,0,1.61,0,1.73,1.57a1.71,1.71,0,0,1-.11.14.69.69,0,0,1-.83,0c-.38-.78-1.16-.46-1.75-.6s-1-.42-.54-1.08Z"/><path class="cls-217" d="M37.07,16.53l.74-.07,0,.09c.27.24.52.49.77.74v.8a1,1,0,0,1-1.56,0L37,17.29Z"/><path class="cls-218" d="M37.06,18.07l1.56,0c0,.67-.35.8-.92.79S37,18.58,37.06,18.07Z"/><path class="cls-113" d="M36.22,18.07c-.59-.11-1.49.44-1.58-.74l0,0a1,1,0,0,1,1.54,0l.08,0C36.27,17.57,36.24,17.82,36.22,18.07Z"/><path class="cls-219" d="M39.46,21.24l.7,0,.15.07a.86.86,0,0,1,.23.78,1,1,0,0,1-.24.81.76.76,0,0,1-.86.11.65.65,0,0,1-.26-.26,1.19,1.19,0,0,1,.2-1.52Z"/><path class="cls-220" d="M41,20.47l0,.74-.08.13a.51.51,0,0,1-.7-.09l-.07,0C40.18,20.74,40.37,20.39,41,20.47Z"/><path class="cls-221" d="M44.17,22.06h-.82c-1.26-.08-.67-1-.75-1.64s.43-.77,1-.75l.59,0c0,.55.23.81.78.78.61.49.51,1,.16,1.62A.67.67,0,0,1,44.17,22.06Z"/><path class="cls-222" d="M41,21.21l.75.07c0,.51,0,1,0,1.55a.64.64,0,0,1-.84.1.89.89,0,0,1-.27-.83.9.9,0,0,1,.31-.8A.36.36,0,0,0,41,21.21Z"/><path class="cls-223" d="M41,22.84h.77v.79h0a.59.59,0,0,1-1,.05.62.62,0,0,1,0-.74Z"/><path class="cls-224" d="M46.55,16.55l.75-.08c.18.59-.42,1.57.82,1.63a.89.89,0,0,1,.35.75,6.47,6.47,0,0,1,0,.88,1,1,0,0,1-.24.83.82.82,0,0,1-.82.15c-.47-.21-.49-.8-.9-1.06v-.77Z"/><path class="cls-225" d="M44.17,15.7l.75,0v.77l-.72,0-.08,0A.52.52,0,0,1,44.17,15.7Z"/><path class="cls-226" d="M44.92,22c0-.52,0-1,0-1.55l0-.81c.59,0,.81.28.8.83a.77.77,0,0,1,.33.68c0,.25,0,.49.06.74,0,.8.81.36,1.09.73a.47.47,0,0,1,.11.25c0,.42-.12.74-.62.75a1.28,1.28,0,0,1-.92.32.93.93,0,0,1-1.11-.41A1.25,1.25,0,0,1,44.92,22Z"/><path class="cls-227" d="M45.77,21.28c0-.27,0-.53,0-.79l.75-.07.14.13C46.71,21.43,46.61,21.52,45.77,21.28Z"/><path class="cls-228" d="M46.53,19.65c.55,0,.86.18.83.77a.44.44,0,0,1-.16.22.55.55,0,0,1-.65-.13l0-.09C46.52,20.16,46.52,19.91,46.53,19.65Z"/><path class="cls-229" d="M44.17,15.7c0,.26,0,.53-.05.79h-.74c0-.26,0-.51,0-.77h0a.56.56,0,0,1,.79,0Z"/><path class="cls-230" d="M44.15,15.72h-.79l0-.76h.75C44.14,15.2,44.15,15.46,44.15,15.72Z"/><path class="cls-231" d="M55.23,17.3v.78a.94.94,0,0,1-.72.41c-.4,0-.45.27-.47.58a.89.89,0,0,1-.26.72.83.83,0,0,1-.82.12.59.59,0,0,1-.14-1c.11-.61-.27-.84-.76-1a1.53,1.53,0,0,1,0-2.16l.73,0h.1c.14.19.33.35.32.62,0,.51.3.59.71.56S54.9,16.84,55.23,17.3Z"/><path class="cls-232" d="M48.14,19.69l0-.81a1,1,0,0,1,1.59,0c.6,0,.8.3.79.86,0,.76,0,1.51,0,2.27a.6.6,0,0,1-.71.24.51.51,0,0,1-.24-.17.91.91,0,0,1-.18-.45A2.06,2.06,0,0,0,48.14,19.69Z"/><path class="cls-233" d="M52.08,15.74c0,.72,0,1.44,0,2.16a1.62,1.62,0,0,1-1.59-1.4,1,1,0,0,1,0-1.57h.1c.28,0,.59,0,.71.35S51.73,15.71,52.08,15.74Z"/><path class="cls-234" d="M52.85,22h-.1c-1.55,0-1.55,0-1.45-1.55.37-.26.4-.8.83-1a.63.63,0,0,1,.7.23h0a1.78,1.78,0,0,1,0,2.34Z"/><path class="cls-235" d="M49.69,22.07l.76-.06c.06,1.23,1,.7,1.63.83,0,.55-.24.83-.79.8-.53.5-1.14.83-1.7.17A1.15,1.15,0,0,1,49.69,22.07Z"/><path class="cls-236" d="M48.15,15.72c.62.08.83-.22.75-.8l0,0a.49.49,0,0,1,.75,0l0,0a1,1,0,0,1,0,1.59h0a1,1,0,0,1-1.57,0Z"/><path class="cls-237" d="M52.83,19.69l-.73,0a.6.6,0,0,1-.8,0c0-1.27,1-.68,1.53-.8Z"/><path class="cls-238" d="M48.13,16.49l1.57,0c.06.68-.34.8-.91.79S48.06,17,48.13,16.49Z"/><path class="cls-239" d="M49.7,18.88H48.11c0-.26,0-.52,0-.78C48.71,18.23,49.65,17.65,49.7,18.88Z"/><path class="cls-240" d="M49.7,16.51V14.92h.74c0,.53,0,1.05,0,1.57Z"/><path class="cls-241" d="M51.3,19.7h.8c0,.55-.26.79-.8.77Z"/><path class="cls-242" d="M49.67,14.94h-.75c-.08-.57.13-.87.74-.8Z"/><path class="cls-243" d="M53.7,14.93l.73,0,0,.09a1.12,1.12,0,0,1,.09,1.6.72.72,0,0,1-.92,0,.64.64,0,0,1,0-.89Z"/><path class="cls-244" d="M53.62,15.7l0,.78-.09.13a.51.51,0,0,1-.69-.12l0-.77Z"/><path class="cls-245" d="M53.66,18.89c0-1.28,1-.63,1.58-.81,1,.15.72,1,.84,1.62l-.06,0a.7.7,0,0,1-1,.12C54.61,19.44,54,19.34,53.66,18.89Z"/><path class="cls-246" d="M53.66,16.48h.79a.54.54,0,0,1,.78,0v.8l-1.56,0a.47.47,0,0,1,0-.72Z"/><path class="cls-247" d="M55.23,16.5h-.78c0-.5,0-1,0-1.51l.73-.06Z"/><path class="cls-248" d="M61.53,20.45l0,.8-.78,0c0-.26,0-.53,0-.79Z"/><path class="cls-249" d="M53.66,18.89c.64,0,1.36-.21,1.74.61.1.21.4.16.62.17l0,.78a8.29,8.29,0,0,1-.77.8h0c-.76.21-.81-1-1.55-.78a.51.51,0,0,1-.07-.76Z"/><path class="cls-245" d="M55.22,21.25c0-.54.21-.83.77-.8v.79Z"/><path class="cls-250" d="M38.61,17.29c-.56.06-.83-.17-.77-.74C38.47,16.41,38.7,16.68,38.61,17.29Z"/><path class="cls-251" d="M36.21,17.28H34.67c0-1.58,0-1.58,1.55-1.55C36.22,16.25,36.22,16.77,36.21,17.28Z"/><path class="cls-252" d="M33.82,17.3l0,1.57a.63.63,0,0,1-.88.05,1.12,1.12,0,0,1,0-1.59l.09,0Z"/><path class="cls-253" d="M18.89,33.11l1.75,0A1,1,0,0,1,22.06,33a.84.84,0,0,1,.18.88A8.36,8.36,0,0,0,21.18,35a3.31,3.31,0,0,1-2.36-.12,1.26,1.26,0,0,1-.22-1.55A.58.58,0,0,1,18.89,33.11Z"/><path class="cls-254" d="M22,33.13l-1.34,0c0-.24,0-.49,0-.74.23-.55.71-.39,1.13-.42s.73-.14.68-.65a.81.81,0,0,1,.4-.73.79.79,0,0,1,.9.15,5.14,5.14,0,0,1,.21,2.88c0,.43-.43.63-.88.61C22.38,34.14,22.44,33.38,22,33.13Z"/><path class="cls-255" d="M22,32.33l-1.41,0-.17,0V30.73l.81,0,.12.07a1.49,1.49,0,0,0,.75.6.61.61,0,0,1,.15.26A.7.7,0,0,1,22,32.33Z"/><path class="cls-256" d="M18,33.08l0-.71c.64-.16.79.23.82.74l-.1,0a.5.5,0,0,1-.73,0Z"/><path class="cls-257" d="M26,23.67c.56,0,.79-.29.8-.81.58,0,.78-.3.73-.83h0c.28-.25.54-.52.8-.79h0c.28-.24.54-.51.8-.78h0c.27-.26.54-.52.79-.8h0a.86.86,0,0,1,.72-.35,1.36,1.36,0,0,1,.82.12.65.65,0,0,1,.25.22.83.83,0,0,1,0,.78c-.24.33-.74.44-.84.91-.33.21-.68.4-.81.82a1.34,1.34,0,0,0-.79.79,1.39,1.39,0,0,0-.8.81c-.32.17-.63.34-.55.79a1.24,1.24,0,0,1-.17.67c-.27.29-.74.4-.83.86-.33.22-.69.4-.81.82a1.36,1.36,0,0,0-.79.8,1.36,1.36,0,0,0-.8.79,1.53,1.53,0,0,0-.81.81c-.49.1-.49.68-.87.88-.57.19-1.14.35-1.57-.26l0-.75a8.18,8.18,0,0,1,.75-.81h0c.28-.24.54-.51.8-.78h0c.27-.26.54-.52.79-.79h0c.25-.27.54-.51.77-.81l.07-.74c.59.06.78-.27.78-.79C25.77,24.48,26,24.2,26,23.67Z"/><path class="cls-258" d="M21.27,29.93l1.52,0a.56.56,0,0,1,0,.82l0,.74a.47.47,0,0,1-.74,0l0,0c-.27-.27-.54-.52-.79-.81l0,0Z"/><path class="cls-258" d="M22,28.37c0,.53-.15.86-.75.81l0-.77Z"/><path class="cls-259" d="M22.79,27.58c.07.6-.21.85-.8.78l.05-.75Z"/><path class="cls-260" d="M23.58,26.79c.07.59-.2.84-.79.79l.05-.76Z"/><path class="cls-229" d="M33,17.33l.07,1.56L33,19c-.39.17-.42.66-.79.86a.61.61,0,0,1-.71-.2l-.09,0a2.16,2.16,0,0,0-.66-.58.41.41,0,0,1-.1-.22l.07-.74c.58.05.79-.27.79-.79Z"/><path class="cls-261" d="M29.91,19.66c.05.58-.2.86-.79.8l0-.76Z"/><path class="cls-262" d="M29.12,20.46c.06.59-.22.84-.8.78l.05-.75Z"/><path class="cls-250" d="M28.33,21.25c.05.58-.23.83-.8.79l0-.76Z"/><path class="cls-263" d="M30.71,19.67h-.8c0-.26,0-.51,0-.76l.73-.05.08.05A.55.55,0,0,1,30.71,19.67Z"/><path class="cls-264" d="M24.36,26c.06.57-.17.87-.77.81l0-.77Z"/><path class="cls-265" d="M33.67,51.32c1.12.33,2-.36,2.77-.89a5.6,5.6,0,0,1,3.47-.69h1.48a4.57,4.57,0,0,1,2.13.3c.59.28,1.12.66,1,1.41s-.81.63-1.35.66c-.26,0-.52,0-.79,0H36.23a.93.93,0,0,1-.79.35,9.87,9.87,0,0,1-1.63,0,1,1,0,0,1-.86-.35C32.82,51.3,32.92,51.19,33.67,51.32Z"/><path class="cls-266" d="M37.8,55.3c-.6.05-.77-.3-.77-.82a.65.65,0,0,1-.12-.82c.18-.21.47-.38.67-.26.82.5,1.87.44,2.61,1.09,0,.32,0,.64.41.78s.38.47.39.79l-2.36,0C38.33,55.82,38.11,55.5,37.8,55.3Z"/><path class="cls-267" d="M40.19,54.49c-.92,0-1.89.16-2.61-.7-.09-.11-.37-.06-.56-.09a.53.53,0,0,1-.77,0h0a.54.54,0,0,1-.17-.64.37.37,0,0,1,.22-.16c.78,0,1.55,0,2.33,0C39.81,52.94,40.15,53.29,40.19,54.49Z"/><path class="cls-268" d="M35.43,52.14l.8,0,.06.77-.07,0a.55.55,0,0,1-.78,0v0A.53.53,0,0,1,35.43,52.14Z"/><path class="cls-269" d="M33.09,61.59c-.66,0-1.38.2-1.78-.62,0-.1-.35-.08-.54-.12a.56.56,0,0,1-.28-.2,1.53,1.53,0,0,1,0-1.47,1.76,1.76,0,0,1,1.35-.35c.37,0,.8.1,1-.37s.74-.36.93-.77l.13,0a1.66,1.66,0,0,1,1.35.44c.53.53,1.23.29,1.87.34.26,0,.52,0,.78,0,1.6,0,1.71.19.93,1.57-1.37,0-2.73,0-4.09,0-.55,0-.88.18-.85.78h0C33.6,61.06,33.35,61.33,33.09,61.59Z"/><path class="cls-270" d="M35.43,52.14l0,.76c-1.22.05-.65,1-.77,1.57.15.88.06,1-.87.9a.94.94,0,0,1-.32-.88c.11-.8-.35-1.68.39-2.37Z"/><path class="cls-271" d="M33.89,55.28a.74.74,0,0,0,.79-.81c.68,0,.81.39.78,1s0,1.22-.79,1.39a4,4,0,0,1-.78,0c-.58-.34-.42-.83-.26-1.32A.65.65,0,0,1,33.89,55.28Z"/><path class="cls-272" d="M33.84,55.46c0,.47,0,.94,0,1.4v.79l0,0a.75.75,0,0,1-.74.31.85.85,0,0,1-.65-.17c-.4-.86.23-1.51.45-2.24A.63.63,0,0,1,33.84,55.46Z"/><path class="cls-273" d="M37.8,55.3c.56-.08.85.15.83.73C38.05,56.14,37.77,55.89,37.8,55.3Z"/><path class="cls-274" d="M36.25,53.68l.77,0c0,.26,0,.52,0,.78C36.47,54.51,36.17,54.28,36.25,53.68Z"/><path class="cls-275" d="M35.44,52.92h.78c0,.26,0,.52,0,.78C35.68,53.73,35.41,53.48,35.44,52.92Z"/><path class="cls-276" d="M26.75,51.32a8.88,8.88,0,0,0-.56,2.2.87.87,0,0,1-1,.95A2.17,2.17,0,0,0,22.68,56c-.08.19-.31.32-.47.48-.07-.22-.14-.43-.2-.65s0-.67-.41-.61-.37.4-.38.69c0,.52,0,1-.76.94-.78-.58-.35-1.37-.38-2.08,0-.1.08-.2.11-.3.32-.28.75-.45.89-.9a1.24,1.24,0,0,0,.75-.75c.28-.22.65-.32.84-.65l.13,0a.86.86,0,0,1,.86.5c.24.41.69.31,1.07.25s.43-.41.44-.74l0-.14c.67-.63-.34-.89-.32-1.38a2.84,2.84,0,0,1,.24-.85,2,2,0,0,1,1.22,0C26.9,50.16,26.64,50.78,26.75,51.32Z"/><path class="cls-277" d="M20.42,54.48c0,.78,0,1.57,0,2.36,0,.27,0,.54-.05.81h-.74a3.05,3.05,0,0,1-.05-3.17l0,0A.52.52,0,0,1,20.42,54.48Z"/><path class="cls-278" d="M30.7,61.59h-.8V60.8h0a.54.54,0,0,1,.77,0l.1.06C30.75,61.1,30.72,61.34,30.7,61.59Z"/><path class="cls-279" d="M33.09,61.59c-.1-.63.21-.84.79-.77v.76Z"/><path class="cls-280" d="M12.49,51.33v.79l-.75,0c0-.26-.05-.51-.08-.76l.09,0A.48.48,0,0,1,12.49,51.33Z"/><path class="cls-281" d="M14.87,53.71v.78l-.73,0-.08-.74.1-.13A.52.52,0,0,1,14.87,53.71Z"/><path class="cls-282" d="M13.3,52.9h.78a.53.53,0,0,1,.06.75l-.08.06-.73-.06Z"/><path class="cls-283" d="M12.53,52.1c.58-.06.85.2.78.79h-.77Z"/><path class="cls-284" d="M15.66,59.25V60l-.75,0-.08-.77h.09A.47.47,0,0,1,15.66,59.25Z"/><path class="cls-285" d="M11.76,49.72c.58,0,.8.27.73.82a.5.5,0,0,1-.75,0l0,0Z"/><path class="cls-286" d="M11.76,46.57l.73,0c.07.56-.14.87-.74.83Z"/><path class="cls-287" d="M11.74,50.51l.75,0v.79l-.73,0Z"/><path class="cls-288" d="M15.66,59.25l-.73,0,0-4.76c.61,0,.78.3.78.86C15.66,56.63,15.66,57.94,15.66,59.25Z"/><path class="cls-289" d="M19.62,54.47l.05,3.17-.08,1.58h-.75c0-1.3,0-2.6,0-3.91C18.83,54.77,19,54.44,19.62,54.47Z"/><path class="cls-290" d="M18.06,33.18l.73,0,.06,1.58-.05.12a1.79,1.79,0,0,0-.61.8,1.3,1.3,0,0,0-.79.78,1.31,1.31,0,0,0-.78.78c-.29.2-.64.31-.81.64l-.13.05c-1.3,0-.6-1-.79-1.58h0c.25-.28.53-.52.78-.8h0c.57.07.82-.22.84-.76.54,0,.77-.28.78-.79C17.78,33.93,18.1,33.73,18.06,33.18Z"/><path class="cls-291" d="M15.64,38.63l0-.75h0a.62.62,0,0,1,.79-.13.67.67,0,0,1,.23.78.83.83,0,0,1-.21.28.62.62,0,0,1-.78-.12Z"/><path class="cls-292" d="M15.71,38.69l.76,0a.55.55,0,0,1,0,.8h-.81Z"/><path class="cls-293" d="M15.67,35.49c.05.56-.18.86-.78.8l0-.77Z"/><path class="cls-294" d="M18.05,41.83a1.37,1.37,0,0,1-.47-2.16,1.31,1.31,0,0,0,.48-1l.06-.16c.85-1.11.87-1.12,1.75-.66A5.14,5.14,0,0,1,20,40.1c-.15.44-.89.48-.74,1.12a.82.82,0,0,1-.35.75A.69.69,0,0,1,18.05,41.83Z"/><path class="cls-295" d="M18.05,41.83l.78,0a4.34,4.34,0,0,0,2.48.44,1.22,1.22,0,0,1,.78.24,1,1,0,0,1,.27.78,2,2,0,0,1-.09.84.76.76,0,0,1-.2.27.91.91,0,0,1-.77.09.68.68,0,0,1-.26-.15c-.57-.73-.77-.7-1.11.13a.77.77,0,0,1-.28.36.94.94,0,0,1-.77,0,5.63,5.63,0,0,0-1.59-1.32l-.05-.13,0-.38C17.43,42.55,18.25,42.54,18.05,41.83Z"/><path class="cls-296" d="M16.48,39.46v-.8h0a.54.54,0,0,1,.65-.19.55.55,0,0,1,.18.22C17.3,39.25,17,39.51,16.48,39.46Z"/><path class="cls-296" d="M18.06,38.68l-.76,0-.05-.05a.61.61,0,0,1,0-.86.67.67,0,0,1,.88,0,.64.64,0,0,1-.05.88Z"/><path class="cls-297" d="M16.48,45.71V45c.13-.59-.45-1.53.77-1.6l.06,0c.37.78,1.16,1.12,1.77,1.66a.78.78,0,0,1-.2.84C18,46.28,17.2,46.5,16.48,45.71Z"/><path class="cls-298" d="M14.85,44.21l0,3.95a.48.48,0,0,1-.74,0L14.06,45a.58.58,0,0,1,0-.79l.09,0Z"/><path class="cls-299" d="M14.05,44.21V45l-.78,0c0-.25.05-.5.07-.75Z"/><path class="cls-300" d="M19.6,44.6l.07-.39a.57.57,0,0,1,.83-.05.65.65,0,0,1-.05.85c0,1-.05,2.07,0,3.11,0,.56-.22.84-.77.88a.53.53,0,0,1-.26-.21c-.18-.26-.11-.56-.14-.85,0-.75,0-1.51,0-2.27A1.2,1.2,0,0,1,19.6,44.6Z"/><path class="cls-301" d="M18.09,50.56c0,.7-.41.74-.95.77s-.74-.25-.71-.75a.44.44,0,0,1,.16-.26,1.23,1.23,0,0,1,1.33,0A.49.49,0,0,1,18.09,50.56Z"/><path class="cls-302" d="M22.77,46.58v.8c-.6,0-.82-.25-.74-.82A.51.51,0,0,1,22.77,46.58Z"/><path class="cls-303" d="M20.45,45v-.79c.25-.28.51-.22.78,0h0a.56.56,0,0,1,.17.66.46.46,0,0,1-.21.18Z"/><path class="cls-304" d="M19.65,49c0,.53-.2.79-.74.76a.36.36,0,0,1-.24-.16.55.55,0,0,1,.17-.66h0a.54.54,0,0,1,.76-.05A.3.3,0,0,0,19.65,49Z"/><path class="cls-305" d="M15.66,49l.05.75-.1.13a.53.53,0,0,1-.72-.12L14.84,49a.43.43,0,0,1,.18-.22A.52.52,0,0,1,15.66,49Z"/><path class="cls-306" d="M14.13,48.14l.74,0,0,0a.55.55,0,0,1,0,.77l-.07.08C14.24,49,14,48.74,14.13,48.14Z"/><path class="cls-307" d="M21.94,45.78c-.57.07-.75-.26-.76-.75l.06-.07a.62.62,0,0,1,.77-.12.59.59,0,0,1,.18.74A.41.41,0,0,1,21.94,45.78Z"/><path class="cls-308" d="M22.77,46.58l-.75,0c0-.26-.05-.52-.08-.78H22a.49.49,0,0,1,.74,0h0Z"/><path class="cls-309" d="M21.17,52.08c0-.49.2-.83.77-.77a.39.39,0,0,1,.24.12.62.62,0,0,1,0,.67.65.65,0,0,1-.19.21.68.68,0,0,1-.7,0A.42.42,0,0,1,21.17,52.08Z"/><path class="cls-310" d="M21.94,51.31l.08-.77a.48.48,0,0,1,.73,0h.09a.61.61,0,0,1,0,.81l0,0a.5.5,0,0,1-.75,0h-.1Z"/><path class="cls-311" d="M22.75,50.53H22c-.07-.56.15-.85.74-.82Z"/><path class="cls-312" d="M18.91,49.76c0,.53-.23.86-.82.8L18,50.49a.52.52,0,0,1,0-.75h0a.54.54,0,0,1,.77,0Z"/><path class="cls-313" d="M15.71,49.71l.74,0a.5.5,0,0,1,0,.74l-.06.08-.74-.06a.51.51,0,0,1-.06-.75Z"/><path class="cls-314" d="M15.63,49.77l.06.75c-.59,0-.85-.21-.8-.8Z"/><path class="cls-315" d="M20.42,54.48h-.77v-.78a.57.57,0,0,1,.82-.06.59.59,0,0,1,0,.83Z"/><path class="cls-316" d="M20.42,53.69l-.77,0c-.09-.58.2-.83.75-.86l.13.07a.52.52,0,0,1,0,.69Z"/><path class="cls-317" d="M14.14,53.66l-.06-.75c.58-.06.85.21.79.8Z"/><path class="cls-318" d="M20.4,52.85a.67.67,0,0,1,.77-.77l.07.05a.57.57,0,1,1-.8.8Z"/><path class="cls-171" d="M34.66,31.54l-4,1.57a.67.67,0,0,1-.21-.69c.13-.39.8-.44.64-1a1.23,1.23,0,0,1,.17-.68c.27-.3.74-.4.83-.87.33-.21.69-.4.81-.81a1.36,1.36,0,0,0,.79-.8,1.36,1.36,0,0,0,.8-.79,1.36,1.36,0,0,0,.79-.8,1.58,1.58,0,0,0,.82-.81c.47-.11.6-.56.88-.86.45-.2.42-.59.42-1s-.06-1,.4-1.43c.56-.2,1.09-.28,1.52.25l.08,0c.4.54.55,1.34,1.44,1.38a.41.41,0,0,1,.13.24c0,.8-.77,1.06-1.2,1.53-1.67,1.81-3.39,3.58-5.08,5.36C34.68,31.39,34.68,31.47,34.66,31.54Z"/><path class="cls-319" d="M45.94,23.65h.79c-.19.81-.91,1.26-1.4,1.81A60.32,60.32,0,0,1,41,30.11c-1.48,1.33-2.65,3-4.31,4.13-.28.19-.57.64-.92.28s.18-.52.32-.79A19.41,19.41,0,0,1,40,29c.46-.46.35-1.41,1-1.84S41.76,26,42.57,26c.44.25.29.65.25.93A16.6,16.6,0,0,1,45.94,23.65Z"/><path class="cls-268" d="M49.69,22.07c0,1.67,0,1.67,1.6,1.57,0,.82-.62,1.18-1.11,1.63a51.45,51.45,0,0,0-3.56,4,1.13,1.13,0,0,1-.88.52c-1.35.33-.57-.76-.8-1.19A3.16,3.16,0,0,0,46.73,26a6.13,6.13,0,0,0,2.07-2c.32-.43.23-1.19-.69-1.19a.65.65,0,0,1,0-.89,1.14,1.14,0,0,1,1.62.07Z"/><path class="cls-320" d="M45.94,23.65c0,.74-.64,1-1,1.5-.73.94-1.59,1.78-2.41,2.65-.15.17-.37.36-.59.18s-.12-.51,0-.71c.3-.38.68-.72.59-1.28a9.68,9.68,0,0,1,1.11-2.23,4.51,4.51,0,0,0,.49-1.7l.75,0C45,22.72,44.62,23.73,45.94,23.65Z"/><path class="cls-321" d="M41,23.66l.77,0c.06.58-.24.82-.78.83l0-.07A.46.46,0,0,1,41,23.66Z"/><path class="cls-322" d="M48.17,22l-.06.82-.76.06-.06-.1a.59.59,0,0,1-.2-.67.53.53,0,0,1,.17-.25.72.72,0,0,1,.71-.06A.55.55,0,0,1,48.17,22Z"/><path class="cls-323" d="M26.75,51.32c-1-.31-.34-1-.4-1.59h2a.65.65,0,0,1,.76-.18,1.31,1.31,0,0,0,1.22.6.63.63,0,0,1,.57.31A5.47,5.47,0,0,1,31.29,52c.24,1,0,1.74-.62,1.95-.93.3-1.16-.49-1.54-1,0-1.58,0-1.58-1.6-1.58Z"/><path class="cls-83" d="M38.41,48.14c-.6,0-1.22-.08-1.55.64-.1.21-.41.14-.63.13a6,6,0,0,1-1.18-1.56.78.78,0,0,1,.86-.76c1,0,2,0,3,0,.23,0,.5,0,.57.29s-.15.41-.38.47A.92.92,0,0,0,38.41,48.14Z"/><path class="cls-324" d="M35.05,47.35c1,0,1.13.78,1.18,1.56l-.77.06a.75.75,0,0,1-.79.17,1.49,1.49,0,0,0-1.41-.61,3.13,3.13,0,0,1-1.71-.14.66.66,0,0,1-.23-.24.65.65,0,0,1,.19-.77Z"/><path class="cls-226" d="M29.11,48.9c0-.56.28-.77.8-.75.52-.44,1-.57,1.57,0l0,.06a.63.63,0,0,1,.09.84,2.6,2.6,0,0,1-2.27.17A.53.53,0,0,1,29.11,48.9Z"/><path class="cls-325" d="M25.13,49.75l.05,1c.24.47.47.93,0,1.39h0c-.87,0-.84-.55-.78-1.13A1.94,1.94,0,0,1,25.13,49.75Z"/><path class="cls-326" d="M31.48,48.12l-1.57,0c.18-1,.95-.76,1.6-.77Z"/><path class="cls-327" d="M29.12,49.78l-.77-.05c-.11-.61.2-.84.76-.83l0,.1a.5.5,0,0,1,.18.6A.49.49,0,0,1,29.12,49.78Z"/><path class="cls-328" d="M22.81,51.33l0-.81h.72C23.66,51.11,23.42,51.39,22.81,51.33Z"/><path class="cls-329" d="M22,51.32h.75v.8h0a.53.53,0,0,1-.77,0Z"/><path class="cls-330" d="M22.79,33.91c.6,0,.82-.26.8-.83,0-.79,0-1.57,0-2.36l.13-.12a.68.68,0,0,1,.85.12A3.63,3.63,0,0,1,24.78,33c0,.27,0,.54,0,.8,0,.6-.2,1.29.56,1.64a.65.65,0,0,1,0,.73.4.4,0,0,1-.26.16H23.58a.65.65,0,0,1-.86.07,1.15,1.15,0,0,1-.3-.88C22.47,34.94,22.16,34.31,22.79,33.91Z"/><path class="cls-331" d="M22.86,36.26l.72,0q0,3.54,0,7.1l-.71,0-.16-.08a1,1,0,0,1-.25-.83c0-.77,0-1.54,0-2.31.09-1.25-.2-2.52.17-3.75A.61.61,0,0,1,22.86,36.26Z"/><path class="cls-332" d="M26.72,37.06c-.61-.1-1.55.47-1.63-.76l.1,0A1.14,1.14,0,0,1,26.64,36a.67.67,0,0,1,.27.23A.64.64,0,0,1,26.72,37.06Z"/><path class="cls-333" d="M26.72,37.06l.06-.75a.49.49,0,0,1,.75,0C27.58,36.85,27.32,37.13,26.72,37.06Z"/><path class="cls-334" d="M27.53,36.27l-.75,0-.08-.06a.59.59,0,0,1,.67-1,.51.51,0,0,1,.22.24Z"/><path class="cls-335" d="M30.74,32.35c0,.25,0,.51,0,.76l-.73,0-.14-.07a.61.61,0,0,1,.7-1A.49.49,0,0,1,30.74,32.35Z"/><path class="cls-336" d="M28.38,34.74c0,.53-.23.83-.79.79l-.08-.06a.62.62,0,0,1-.11-.77.64.64,0,0,1,.76-.2A.47.47,0,0,1,28.38,34.74Z"/><path class="cls-337" d="M29.17,34c0,.53-.24.81-.79.79l-.08-.06a.61.61,0,0,1-.1-.77.62.62,0,0,1,.75-.2A.47.47,0,0,1,29.17,34Z"/><path class="cls-338" d="M30,33.15c0,.53-.25.82-.79.8l-.08-.06a.58.58,0,0,1,0-.82.56.56,0,0,1,.81,0Z"/><path class="cls-339" d="M22.78,45.79l-.74,0L22,45a.59.59,0,0,1,0-.82h0a.57.57,0,0,1,.79,0Z"/><path class="cls-340" d="M22.78,44.18H22l0-.8a.51.51,0,0,1,.74,0l.07.07C22.81,43.69,22.79,43.93,22.78,44.18Z"/><path class="cls-341" d="M34.65,48.92l.81,0c-.17,1.11-1.14,1.6-1.79,2.35-.51,0-.6.36-.59.77a1.25,1.25,0,0,1,.4,1.15,1.32,1.32,0,0,0,.36,1.25c0,.26,0,.53,0,.79l0,.18-.76.21c-.35-1.07-1.15-1.25-2.16-1.21-1.21,0-1.65-.39-1.79-1.56a3.77,3.77,0,0,1,.58.36c.27.23.53.56.92.28a.94.94,0,0,0,.29-1.07,6.23,6.23,0,0,1-.22-1.92.52.52,0,0,1,.59-.41c1.22.18,1.8-.77,2.58-1.39A.69.69,0,0,1,34.65,48.92Z"/><path class="cls-342" d="M53.6,19.7l.07.76c0,.28,0,.57,0,.86,0,.61-.27.8-.83.71V19.69Z"/><path class="cls-343" d="M24.41,33.1l-.05-2.36.05-.12a1.81,1.81,0,0,0,.62-.8,1.29,1.29,0,0,0,.79-.79,1.35,1.35,0,0,0,.8-.8c.32-.16.63-.34.54-.79a1.19,1.19,0,0,1,.17-.66c.27-.3.74-.41.84-.87.32-.21.68-.4.8-.82a1.38,1.38,0,0,0,.8-.79,1.38,1.38,0,0,0,.79-.8,1.37,1.37,0,0,0,.79-.79,1.34,1.34,0,0,0,.79-.79,1.31,1.31,0,0,0,.79-.79c.28-.19.65-.31.57-.76a.72.72,0,0,1,.25-.63l.13-.06c.29,0,.6,0,.76-.3s.2-.52.54-.39.24.42.28.67a1.21,1.21,0,0,1,.29,1.43c0,.5-.78.55-.69,1.12a1.31,1.31,0,0,1-.27.73,1.16,1.16,0,0,1-.71.27.73.73,0,0,0-.85.53c-.3.2-.65.35-.56.81a1.25,1.25,0,0,1-.17.68c-.27.29-.74.4-.84.87a1.64,1.64,0,0,0-.82.82c-.31.18-.63.35-.55.8a1.28,1.28,0,0,1-.16.67c-.27.3-.75.4-.84.87-.33.21-.68.4-.81.81a1.46,1.46,0,0,0-.8.8,1.6,1.6,0,0,0-.81.81.73.73,0,0,0-.53.86,1,1,0,0,1-.31.73,1.19,1.19,0,0,1-.84.18A.85.85,0,0,1,24.41,33.1Z"/><path class="cls-344" d="M35.44,21.24c0-.53,0-1.06,0-1.58l.77.05c0,.87.61.74,1.16.76s1.25-.16,1.24.78c-.36.61-.94.39-1.46.38S35.88,22,35.44,21.24Z"/><path class="cls-345" d="M33.09,18.89l.77,0,0,.81h0a.62.62,0,0,1-.85,0,.6.6,0,0,1,0-.84Z"/><path class="cls-346" d="M37,21.25h2.34l0,1.56-1.55.05a.66.66,0,0,1-.86.07,1,1,0,0,1-.25-.88A.84.84,0,0,1,37,21.25Z"/><path class="cls-347" d="M41,23.66c0,.24,0,.48,0,.72-1.65.09-1.65.09-1.54-1.54h.75l.13.05a8.55,8.55,0,0,0,.65.7Z"/><path class="cls-348" d="M41,22.06l0,.78h0a.51.51,0,0,1-.76,0l0,0,0-.78A.48.48,0,0,1,41,22.06Z"/><path class="cls-349" d="M41,22.06h-.74v-.81l.74.05Z"/><path class="cls-350" d="M40.23,22.81l.76,0,0,.75C40.34,23.68,40.13,23.39,40.23,22.81Z"/><path class="cls-351" d="M49.69,22H48.17l-.06,0a1,1,0,0,1,0-1.57c0-.27,0-.53,0-.79,1.57,0,1.57,0,1.56,1.54C49.7,21.49,49.69,21.75,49.69,22Z"/><path class="cls-352" d="M48.09,20.48l0,1.57h-.78c-.6-.5-.52-1,0-1.54l.08-.09Z"/><path class="cls-353" d="M47.28,20.51l0,1.54h0a1,1,0,0,1-1.56,0v-.75c.54,0,.82-.21.78-.77Z"/><path class="cls-354" d="M45.76,22l1.56,0,0,.74C46.75,22.6,45.68,23.47,45.76,22Z"/><path class="cls-355" d="M53.63,16.55c0,.24,0,.48,0,.72-.61.09-.86-.19-.79-.78Z"/><path class="cls-356" d="M19.61,40.23V37.88c-.45-.36-.37-.87-.36-1.35.16-.57-.4-.74-.62-1.11a.69.69,0,0,1,.21-.72h0l2.36,0a.67.67,0,0,1,.84-.1.76.76,0,0,1,.21.82c-.16.49-.79.56-1,1.05-.12.1-.36.15-.37.3-.1,1.29-.42,2.62.27,3.84.24.42.44.8.18,1.27a.77.77,0,0,1-.29.22c-1.35.28-1.66.11-1.8-1A1.08,1.08,0,0,1,19.61,40.23Z"/><path class="cls-357" d="M22,35.47l0-.78a.57.57,0,0,1,0-.79c0-.26,0-.52,0-.77.56-.05.86.19.81.78v1.6A.49.49,0,0,1,22,35.47Z"/><path class="cls-358" d="M22,33.9c0,.26,0,.52,0,.79h-.78C21.18,34.16,21.41,33.87,22,33.9Z"/><path class="cls-359" d="M22.81,30.77l0-.82a.71.71,0,0,1,.78-.82l.15.08a.91.91,0,0,1,.2.79.8.8,0,0,1-.35.73h0Z"/><path class="cls-360" d="M22,31.52h.74c.08.58-.17.86-.76.82Z"/><path class="cls-361" d="M21.22,30.73c.64-.09.9.18.79.81C21.43,31.58,21.17,31.31,21.22,30.73Z"/><path class="cls-362" d="M30.66,21.22c0-.53.23-.83.79-.78l.14.08a.62.62,0,0,1,0,.77.64.64,0,0,1-.76.17A.54.54,0,0,1,30.66,21.22Z"/><path class="cls-363" d="M31.53,19.68l.72,0,.15.1a.61.61,0,0,1-.07.8.58.58,0,0,1-.79-.06l-.09,0Z"/><path class="cls-364" d="M30.71,19.67c0-.25,0-.51.05-.76.56-.06.82.17.68.75Z"/><path class="cls-365" d="M23.57,29.13c-.05-.56.23-.8.77-.79l.14.1a.58.58,0,0,1-.87.78Z"/><path class="cls-366" d="M24.34,28.34c0-.53.22-.82.79-.79l.14.1a.61.61,0,0,1-.06.81.59.59,0,0,1-.8-.06Z"/><path class="cls-367" d="M26.7,26c0-.56.21-.85.79-.79a.42.42,0,0,1,.24.14.68.68,0,0,1,0,.69.8.8,0,0,1-.2.21.7.7,0,0,1-.71,0A.49.49,0,0,1,26.7,26Z"/><path class="cls-368" d="M27.49,25.17l.06-.74a.63.63,0,0,1,.79-.13.66.66,0,0,1,.22.78.69.69,0,0,1-.2.28.62.62,0,0,1-.78-.12Z"/><path class="cls-369" d="M25.13,27.55c0-.52.2-.85.78-.79a.4.4,0,0,1,.24.2.61.61,0,0,1-.18.75.6.6,0,0,1-.77-.1Z"/><path class="cls-370" d="M28.33,24.42h-.78c-.06-.55.18-.83.75-.82l.13.06a.5.5,0,0,1,0,.67Z"/><path class="cls-371" d="M25.91,26.76c0-.55.21-.85.79-.8l.09.07a.61.61,0,0,1,.16.72.57.57,0,0,1-.23.23.62.62,0,0,1-.73-.16Z"/><path class="cls-372" d="M29.09,22.81c0-.53.23-.82.78-.8l.15.09a.6.6,0,0,1-.72.94A.47.47,0,0,1,29.09,22.81Z"/><path class="cls-373" d="M29.87,22c0-.52.24-.81.79-.79l.08.06a.58.58,0,0,1,0,.82.56.56,0,0,1-.81,0Z"/><path class="cls-374" d="M28.3,23.61c0-.52.24-.82.79-.8l.06.05a.58.58,0,0,1,0,.82.56.56,0,0,1-.81,0Z"/><path class="cls-375" d="M33.08,18.88v.79l-.09.12a.51.51,0,0,1-.67-.09l-.07-.05C32.26,19.1,32.5,18.81,33.08,18.88Z"/><path class="cls-272" d="M33.84,54.49a.65.65,0,0,1-.76-.76c0-.55,0-1.09,0-1.64l.8,0C33.87,52.91,33.85,53.7,33.84,54.49Z"/><path class="cls-376" d="M33.08,58.49c0,.55-.27.74-.78.74s-1,0-1.55,0a.63.63,0,0,1-.19-.85c.72-.61,1.52-.36,2.31-.19A.56.56,0,0,1,33.08,58.49Z"/><path class="cls-377" d="M30.74,58.46c0,.26,0,.52,0,.78,0,.52-.05,1-.08,1.55H29.9c0-.72,0-1.44,0-2.16S30.39,58.2,30.74,58.46Z"/><path class="cls-378" d="M33.07,57.64h.78c.12.62-.2.84-.77.86,0,0,0-.07,0-.1A.51.51,0,0,1,33.07,57.64Z"/><path class="cls-379" d="M33.07,57.64v.75l-2.33.07a1.15,1.15,0,0,0-.83.17c-.34-.61-.07-.92.55-1s1.35,0,2,0Z"/><path class="cls-205" d="M25.18,52.11V50.72c.38.28.76.59.66,1.11C25.78,52.16,25.43,52.08,25.18,52.11Z"/><path class="cls-380" d="M20.42,54.48v-.79h0a.55.55,0,0,1,.65-.18.46.46,0,0,1,.18.21C21.26,54.29,21,54.56,20.42,54.48Z"/><path class="cls-381" d="M22.07,52.91c0,.53-.25.85-.82.81l-.07-.06a.52.52,0,0,1,0-.75h0a.58.58,0,0,1,.66-.2A.51.51,0,0,1,22.07,52.91Z"/><path class="cls-382" d="M22,52.12h.77c.05.52-.16.82-.72.8a.29.29,0,0,0-.1,0,.57.57,0,0,1,0-.78Z"/><path class="cls-383" d="M16.46,37.86l-.78,0c-.06-.57.2-.83.76-.82l.12.06a.49.49,0,0,1,0,.66Z"/><path class="cls-384" d="M16.44,37.06c0-.51.21-.84.78-.81l.14.07a.63.63,0,0,1,.1.74.8.8,0,0,1-.23.22.63.63,0,0,1-.73-.18Z"/><path class="cls-385" d="M17.22,36.25c0-.52.22-.82.78-.79l.15.1a.61.61,0,0,1-.06.81.59.59,0,0,1-.8-.06Z"/><path class="cls-386" d="M18.83,34.7l0,.8-.1.12a.52.52,0,0,1-.67-.1L18,35.46C18,34.91,18.25,34.62,18.83,34.7Z"/><path class="cls-347" d="M17.3,37.9c0,.25,0,.5-.05.75l-.78,0v-.81h0a.54.54,0,0,1,.65-.18A.46.46,0,0,1,17.3,37.9Z"/><path class="cls-387" d="M19.61,36.31v1.57c-.33,0-.63,0-.77.39s-.46.38-.78.4v-.81a.66.66,0,0,1-.25-.68.51.51,0,0,1,.14-.26,1.18,1.18,0,0,0,.72-.71.59.59,0,0,1,.95.1Z"/><path class="cls-388" d="M19.62,41c0,1.16.93.71,1.53.82.33.23.26.5.06.77-.52,0-1,0-1.55,0s-.84-.24-.83-.81l0-.74A.51.51,0,0,1,19.62,41Z"/><path class="cls-100" d="M19.62,41l-.76,0c-.07-.56.17-.85.75-.83Z"/><path class="cls-389" d="M19.6,44.6v3.53a.49.49,0,0,1-.74,0l-.06,0a1.79,1.79,0,0,1,.05-2.33V45a.24.24,0,0,1,0-.37Z"/><path class="cls-390" d="M18.87,44.61l0,.37c-1.64,0-1.64,0-1.53-1.54C18.77,43.37,18.77,43.37,18.87,44.61Z"/><path class="cls-391" d="M21.22,44.19l-.78,0h-.77c-.12-.58.08-.82.7-.82S21.33,43.5,21.22,44.19Z"/><path class="cls-392" d="M21.21,42.61l-.06-.77.08,0a.64.64,0,0,1,.77-.14.59.59,0,0,1,.2.74.47.47,0,0,1-.25.21Z"/><path class="cls-393" d="M22.76,43.37l-.74,0L22,42.62h.11a.45.45,0,0,1,.69,0Z"/><path class="cls-394" d="M22,44.19,22,45l-.74,0c0-.26,0-.51,0-.77Z"/><path class="cls-336" d="M18.06,37.08v.78l-.75,0-.07-.06a.54.54,0,0,1,0-.77h0A.53.53,0,0,1,18.06,37.08Z"/><path class="cls-395" d="M18.84,45.78c0,.78,0,1.56-.05,2.33-1.29.06-2.19-.88-2.31-2.4Z"/><path class="cls-396" d="M16.49,50.5l0-.74,1.6,0,0,.75Z"/><path class="cls-397" d="M18.81,49.72H18c-.05-.58.21-.86.8-.79Z"/><path class="cls-398" d="M18.85,48.16l.74,0,0,.77-.76.05Z"/><path class="cls-399" d="M14.91,48.91v-.77l.76,0c0,.27,0,.54,0,.8Z"/><path class="cls-400" d="M22,52.1l0,.78-.76,0,0-.77Z"/><path class="cls-401" d="M21.22,52.91l0,.75-.76,0c0-.25,0-.51,0-.76Z"/><path class="cls-402" d="M37.06,22.82l.74.05c0,.52,0,1.05,0,1.57s-.25.78-.77.79l-.17-.1C36.56,24.33,36.34,23.54,37.06,22.82Z"/><path class="cls-403" d="M34.7,27.61c0,.53-.24.82-.79.79l-.14-.08a.6.6,0,0,1,.72-.94A.47.47,0,0,1,34.7,27.61Z"/><path class="cls-404" d="M35.49,26.83a.68.68,0,0,1-.79.78l-.07-.05a.59.59,0,0,1,.64-1A.43.43,0,0,1,35.49,26.83Z"/><path class="cls-405" d="M32.34,30c0,.55-.23.83-.79.79a.4.4,0,0,1-.25-.19.66.66,0,0,1,.1-.74.64.64,0,0,1,.75-.1A.5.5,0,0,1,32.34,30Z"/><path class="cls-406" d="M33.13,29.21c0,.53-.23.82-.79.79l-.09-.07a.62.62,0,0,1-.1-.77.64.64,0,0,1,.76-.2A.54.54,0,0,1,33.13,29.21Z"/><path class="cls-407" d="M33.91,28.4c0,.52-.21.84-.78.81l-.08-.07a.58.58,0,0,1,0-.82.56.56,0,0,1,.81,0Z"/><path class="cls-408" d="M37.06,25.23c0,.52-.23.81-.78.79l-.14-.1a.59.59,0,0,1,.06-.79.57.57,0,0,1,.79,0Z"/><path class="cls-409" d="M36.28,26c0,.52-.24.82-.79.8l-.07-.05a.59.59,0,0,1,0-.82.56.56,0,0,1,.81,0Z"/><path class="cls-410" d="M31.49,31.53c.05.55-.19.83-.75.82l-.07,0a.57.57,0,1,1,.82-.78Z"/><path class="cls-411" d="M31.49,31.53l-.75,0-.14-.1a.6.6,0,0,1,.06-.8.59.59,0,0,1,.8.06l.09.07Z"/><path class="cls-412" d="M33.88,49A2,2,0,0,1,32,50.52l-1.28,0c-.56-.19-1.5.42-1.58-.77,0,0,0-.06,0-.09.65-.64,1.49-.2,2.23-.4.33,0,.48-.27.7-.46A1.32,1.32,0,0,1,33.88,49Z"/><path class="cls-413" d="M33.88,49c-.66,0-1.37-.21-1.76.62-.09.2-.42.12-.64.11a.52.52,0,0,1,0-.75c0-.26,0-.52,0-.77l2.42,0c.54,0,.78.24.72.77Z"/><path class="cls-414" d="M31.5,49l0,.75H29.13V49Z"/><path class="cls-415" d="M26.78,35.51c0,.24-.05.49-.08.74l-1.51,0-.08-.78a.51.51,0,0,1,.21-.25,1.17,1.17,0,0,1,1.38.11Z"/><path class="cls-416" d="M22,35.47l.76,0,.08.75-.1,0a.72.72,0,0,1-.66.32,1,1,0,0,1-.73-.12.47.47,0,0,1-.17-.25C21.17,35.67,21.5,35.47,22,35.47Z"/><path class="cls-417" d="M25.11,35.5c-1.24-.08-.54-1-.73-1.61a.68.68,0,0,1,.76-.18.56.56,0,0,1,.24.22,1.3,1.3,0,0,1,.14.82.94.94,0,0,1-.31.75Z"/><path class="cls-418" d="M23.57,30.73l0-.75a.58.58,0,0,1,.83-.06.61.61,0,0,1-.05.83h-.81Z"/><path class="cls-419" d="M25.16,33.87l-.78,0,0-.79.77,0A.49.49,0,0,1,25.16,33.87Z"/><path class="cls-420" d="M22,36.31h.73v3.93a.6.6,0,0,1-.85.08.88.88,0,0,1-.22-.52,17.88,17.88,0,0,1-.08-2.64A.93.93,0,0,1,22,36.31Z"/><path class="cls-421" d="M22,40.23h.73v2.35l-.69,0L22,41.83C21.52,41.29,21.37,40.75,22,40.23Z"/><path class="cls-414" d="M27.58,34.73c0,.25,0,.49-.07.74l-.73,0-.09,0c-.33-.68-.13-1,.63-1A.51.51,0,0,1,27.58,34.73Z"/><path class="cls-422" d="M29.88,33.1l-.72,0L29,33.06a.62.62,0,0,1,0-.76.65.65,0,0,1,.75-.18.49.49,0,0,1,.21.24Z"/><path class="cls-423" d="M30.74,31.56c0,.25,0,.5-.07.75l-.72,0-.07-.06a.57.57,0,0,1,0-.81.56.56,0,0,1,.81,0Z"/><path class="cls-424" d="M28.37,33.94c0,.25-.05.49-.07.74l-.72,0-.07,0c-.37-.68-.16-1,.6-1A.51.51,0,0,1,28.37,33.94Z"/><path class="cls-425" d="M29.16,33.15c0,.24,0,.49-.07.74l-.72,0-.07,0c-.21-.88-.1-1,.78-.8Z"/><path class="cls-216" d="M37,21.25l0,.83a.9.9,0,0,1-.75.32,3.93,3.93,0,0,1-.84,0,.87.87,0,0,1-.74-.33c-.06-.57.19-.85.76-.83S36.51,21,37,21.25Z"/><path class="cls-206" d="M33.87,20.46c.05.55-.2.83-.76.82L33,21.2a.62.62,0,0,1-.07-.74.61.61,0,0,1,.24-.21A.66.66,0,0,1,33.87,20.46Z"/><path class="cls-426" d="M33.87,20.46h-.79a.53.53,0,0,1,0-.79h.8Z"/><path class="cls-427" d="M29.08,29.14c0-.55.19-.87.79-.81a.43.43,0,0,1,.24.18.67.67,0,0,1-.09.75.64.64,0,0,1-.74.11A.41.41,0,0,1,29.08,29.14Z"/><path class="cls-428" d="M26.78,28.39c0,.53-.23.82-.78.8l-.14-.06a.61.61,0,0,1-.14-.69.55.55,0,0,1,.18-.24.67.67,0,0,1,.71,0A.48.48,0,0,1,26.78,28.39Z"/><path class="cls-429" d="M29.87,28.33l.05-.73a.6.6,0,0,1,.85-.06.68.68,0,0,1,0,.88.59.59,0,0,1-.85,0Z"/><path class="cls-430" d="M27.54,27.58c0,.54-.2.82-.76.81l-.05,0a.57.57,0,0,1,.06-1A.66.66,0,0,1,27.54,27.58Z"/><path class="cls-431" d="M26.72,31.51c0-.51.22-.81.77-.8a.47.47,0,0,1,.24.13.68.68,0,0,1,0,.69.76.76,0,0,1-.19.21.68.68,0,0,1-.7,0A.44.44,0,0,1,26.72,31.51Z"/><path class="cls-432" d="M33.05,23.6q0-.84.84-.75a.64.64,0,0,1,.13.76.62.62,0,0,1-.75.22A.49.49,0,0,1,33.05,23.6Z"/><path class="cls-433" d="M33.82,23.6l.07-.75.73,0,.14.08a.62.62,0,0,1,0,.77.65.65,0,0,1-.75.18A.51.51,0,0,1,33.82,23.6Z"/><path class="cls-434" d="M27.49,30.71c0-.5.23-.81.79-.77l.14.06a.61.61,0,0,1,.11.73.56.56,0,0,1-.24.22.62.62,0,0,1-.72-.18Z"/><path class="cls-435" d="M24.38,30.75V30l.07-.12a.51.51,0,0,1,.62-.06.42.42,0,0,1,.15.22C25.21,30.54,24.94,30.81,24.38,30.75Z"/><path class="cls-436" d="M28.28,29.94c0-.52.2-.87.8-.8l.08.05a.63.63,0,0,1,.16.73.58.58,0,0,1-.22.22.6.6,0,0,1-.73-.17Z"/><path class="cls-171" d="M26,29.19c0,.53-.25.81-.79.8l-.07,0A.66.66,0,0,1,25,29.2.61.61,0,0,1,25.2,29a.62.62,0,0,1,.74.17Z"/><path class="cls-437" d="M32.3,24.44c-.07-.56.19-.83.75-.84l.05,0a.58.58,0,0,1,0,.82A.6.6,0,0,1,32.3,24.44Z"/><path class="cls-325" d="M31.45,26c0-.5.21-.84.79-.8l.14.06a.6.6,0,0,1,.15.69.64.64,0,0,1-.18.25.67.67,0,0,1-.72,0A.38.38,0,0,1,31.45,26Z"/><path class="cls-333" d="M29.17,25.25c0,.52-.23.82-.78.79a.44.44,0,0,1-.23-.17.54.54,0,0,1,.17-.66h0A.56.56,0,0,1,29,25,.39.39,0,0,1,29.17,25.25Z"/><path class="cls-438" d="M32.3,24.44l.73-.05.15.1a.6.6,0,0,1-.06.8.59.59,0,0,1-.8-.06l-.08-.05Z"/><path class="cls-326" d="M30,24.46a.69.69,0,0,1-.79.79l-.07-.06a.63.63,0,0,1-.21-.69.74.74,0,0,1,.17-.25.67.67,0,0,1,.73,0A.46.46,0,0,1,30,24.46Z"/><path class="cls-439" d="M30.71,27.58l-.79,0c-.06-.55.18-.84.74-.84l.14.06a.52.52,0,0,1,0,.68Z"/><path class="cls-440" d="M27.54,27.58h-.79a.53.53,0,0,1,0-.79h0a.56.56,0,0,1,.66-.18.45.45,0,0,1,.19.22Z"/><path class="cls-441" d="M30.75,23.66a.7.7,0,0,1-.79.8l-.07-.06a.64.64,0,0,1-.21-.69.74.74,0,0,1,.17-.25.67.67,0,0,1,.72,0A.43.43,0,0,1,30.75,23.66Z"/><path class="cls-442" d="M30.66,26.76c0-.51.25-.8.79-.78l.08,0a.63.63,0,0,1,.16.73.49.49,0,0,1-.22.23.63.63,0,0,1-.74-.17Z"/><path class="cls-443" d="M28.39,26c0,.52-.24.82-.79.79l-.09-.06a.54.54,0,0,1,0-.77h0a.53.53,0,0,1,.76,0Z"/><path class="cls-444" d="M32.32,22.07c0,.53-.24.81-.78.8l-.14-.06a.61.61,0,0,1-.14-.7.69.69,0,0,1,.18-.24.65.65,0,0,1,.71,0A.48.48,0,0,1,32.32,22.07Z"/><path class="cls-445" d="M34.68,22.07h.78a.59.59,0,0,1,.07.82.57.57,0,0,1-.82,0l-.09-.05Z"/><path class="cls-446" d="M33.11,21.28a.69.69,0,0,1-.79.79l0-.05a.63.63,0,0,1-.18-.73.72.72,0,0,1,.23-.23.63.63,0,0,1,.74.18Z"/><path class="cls-447" d="M25.9,33.09l.07-.75a.63.63,0,0,1,.69-.24.68.68,0,0,1,.26.18A.79.79,0,0,1,27,33a.58.58,0,0,1-.19.25.67.67,0,0,1-.73,0A.43.43,0,0,1,25.9,33.09Z"/><path class="cls-448" d="M31.54,22.87c0,.52-.25.8-.79.79l-.07-.05a.64.64,0,0,1-.17-.74.61.61,0,0,1,.23-.22.62.62,0,0,1,.74.17Z"/><path class="cls-94" d="M26.71,32.31l-.74,0c-.06-.55.19-.83.75-.83l.06,0A.48.48,0,0,1,26.71,32.31Z"/><path class="cls-449" d="M25.16,33.87l0-.74.72,0,.1,0a.65.65,0,0,1,.16.74.63.63,0,0,1-.23.23.66.66,0,0,1-.75-.15Z"/><path class="cls-450" d="M36.23,22.08H37l.05.74c0,.78-.05,1.57-.07,2.35l-.73.07-.15-.08a1,1,0,0,1-.24-.8,7,7,0,0,1,0-1.52A.86.86,0,0,1,36.23,22.08Z"/><path class="cls-451" d="M22,40.23,22,41.83l-.75,0c0-.13,0-.3-.07-.38-1.39-1.36-.51-3.07-.71-4.61-.06-.5.39-.52.75-.57l0,.08c.54.36.32.93.38,1.42.09.71-.27,1.49.37,2.11Z"/><path class="cls-452" d="M19.61,36.31l-.76,0a.53.53,0,0,1,0-.8h0C19.42,35.47,19.71,35.7,19.61,36.31Z"/><path class="cls-453" d="M24.37,30l-.77,0c0-.26,0-.51,0-.76l.73-.08.13.09a.55.55,0,0,1-.09.73Z"/><path class="cls-425" d="M31.54,20.49l.71,0,.13.09a.54.54,0,0,1-.09.72h0a.53.53,0,0,1-.63.19.43.43,0,0,1-.19-.21Z"/><path class="cls-454" d="M30.67,22l.07-.74.72-.05.07.05a.53.53,0,0,1,0,.76h0a.54.54,0,0,1-.64.19A.46.46,0,0,1,30.67,22Z"/><path class="cls-455" d="M33.08,19.67v.79h0a.51.51,0,0,1-.74,0l-.08,0c0-.25,0-.5.07-.74Z"/><path class="cls-456" d="M24.41,28.4l.72,0,.13.09a.55.55,0,0,1-.09.72h0a.51.51,0,0,1-.74,0l-.08-.05C24.36,28.89,24.39,28.65,24.41,28.4Z"/><path class="cls-457" d="M25.2,27.61l.73-.05.13.09a.54.54,0,0,1-.1.72h0a.51.51,0,0,1-.74,0l-.08,0C25.16,28.1,25.18,27.86,25.2,27.61Z"/><path class="cls-458" d="M28.3,26l-.76,0c0-.25,0-.51,0-.76l.75,0Z"/><path class="cls-459" d="M27.54,26l0,.77-.76,0c0-.25,0-.51,0-.76Z"/><path class="cls-460" d="M29.12,24.42c0,.25,0,.51,0,.77l-.77,0v-.79h0A.53.53,0,0,1,29.12,24.42Z"/><path class="cls-461" d="M26.75,26.79v.79h0a.52.52,0,0,1-.75,0l-.07-.05.06-.74Z"/><path class="cls-462" d="M29.12,24.42h-.79c0-.26,0-.52,0-.77l.72,0,.13.09a.55.55,0,0,1-.1.73Z"/><path class="cls-463" d="M30,22.07l.72-.05.07.05a.55.55,0,0,1,0,.77h0a.53.53,0,0,1-.64.19.46.46,0,0,1-.18-.21Z"/><path class="cls-464" d="M29.09,23.6l.06-.74.73-.05.07.05a.55.55,0,0,1,0,.77h0a.52.52,0,0,1-.75,0Z"/><path class="cls-465" d="M17.25,37.07c0,.26,0,.52,0,.77l-.76,0,0-.77Z"/><path class="cls-466" d="M18.06,37.08h-.8l0-.77.72-.05.14.09a.58.58,0,0,1-.09.74Z"/><path class="cls-467" d="M18.83,35.49l0,.8h0a.53.53,0,0,1-.75,0L18,36.26c0-.25,0-.5.07-.74Z"/><path class="cls-468" d="M18.09,36.31l.75,0c.07.58-.18.87-.78.8Z"/><path class="cls-469" d="M33.83,28.35l-.71,0L33,28.3c-.27-.68,0-1,.69-.91a.49.49,0,0,1,.25.22Z"/><path class="cls-470" d="M34.7,26.82c0,.24-.05.49-.07.74l-.73.05-.07-.06a.62.62,0,0,1-.1-.77.63.63,0,0,1,.75-.19A.49.49,0,0,1,34.7,26.82Z"/><path class="cls-471" d="M35.49,26c0,.24-.05.49-.07.74l-.72.05-.08-.05a.64.64,0,0,1-.1-.77.62.62,0,0,1,.75-.2A.49.49,0,0,1,35.49,26Z"/><path class="cls-472" d="M31.46,30.72l-.72.05-.14-.1c-.27-.68,0-1,.69-.91a.43.43,0,0,1,.24.22Z"/><path class="cls-473" d="M32.32,29.19c0,.25,0,.49-.07.74l-.72.05-.07-.05q-.54-1,.6-1A.47.47,0,0,1,32.32,29.19Z"/><path class="cls-474" d="M33.12,28.4c0,.25,0,.49-.07.74l-.73.05-.08-.06c-.19-.88-.08-1,.8-.79Z"/><path class="cls-218" d="M36.21,26l-.72.05L35.42,26a.57.57,0,1,1,.79-.81l0,.08Z"/><path class="cls-475" d="M30.67,31.51l-.73,0-.13-.12c-.09-.86,0-1,.86-.72l.07.05C30.72,31,30.69,31.27,30.67,31.51Z"/><path class="cls-476" d="M29.08,33.09c-.57,0-.78.28-.78.8-.55,0-.79.26-.79.79-.55,0-.79.27-.82.79l-1.48,0,0-.77a10,10,0,0,1,.77-.82h0c.26-.26.53-.52.78-.8h0a1,1,0,0,0,.44-1c0-.27.18-.44.34-.62h0a.7.7,0,0,1,.68-.25c.51.1.46.72.87.92l0,.13Z"/><path class="cls-477" d="M22,39.86c-.53,0-.77-.26-.76-.79,0-.91,0-1.82,0-2.74l.8,0Z"/><path class="cls-478" d="M26,33.91c.06.56-.2.83-.77.82,0-.26,0-.51,0-.77Z"/><path class="cls-479" d="M29.94,31.56l-.06.74-.73,0-.08,0c-.18-.9-.07-1,.81-.8Z"/><path class="cls-480" d="M36.23,22.08v.77a.51.51,0,0,1-.79,0l0-.74Z"/><path class="cls-481" d="M32.33,20.49l.74,0c0,.26,0,.52,0,.78h-.77Z"/><path class="cls-482" d="M30,28.4l.73,0c.37.73.3.87-.52,1a.54.54,0,0,1-.28-.21Z"/><path class="cls-483" d="M29.13,30l0-.77.72,0,.08,0C30.16,30.08,30,30.23,29.13,30Z"/><path class="cls-484" d="M25.21,28.4l.74,0c0,.26,0,.52,0,.78h-.77Z"/><path class="cls-485" d="M26,27.61l.75,0c0,.26,0,.52,0,.78H26Z"/><path class="cls-486" d="M29.13,30c.59.08.81-.25.83-.78.59,0,.78-.3.72-.83l0-.77h0c.25-.28.53-.53.78-.8h0c.24-.28.52-.53.77-.8h0a.73.73,0,0,1,.69-.25c.51.1.46.72.87.92l0,.13-.07.75c-.57,0-.8.26-.79.79-.55,0-.8.25-.8.79-.56,0-.78.28-.78.8-.55,0-.79.27-.79.79-.54,0-.79.26-.79.79-.55,0-.79.28-.81.8-.59.06-.76-.29-.75-.79a.55.55,0,0,1,0-.78h0c.25-.27.52-.53.78-.8Z"/><path class="cls-457" d="M28.33,30.74c0,.26,0,.52,0,.78l-.77,0c0-.26,0-.51,0-.77Z"/><path class="cls-487" d="M27.53,31.53v.77a.47.47,0,0,1-.73.05l-.08,0c0-.25.05-.5.07-.75Z"/><path class="cls-488" d="M33,24.39c0-.25,0-.49.07-.74l.72,0,.09,0a.59.59,0,0,1,0,.82.57.57,0,0,1-.82,0Z"/><path class="cls-489" d="M35.44,22.81l.79,0c0,.52,0,1,0,1.55a.65.65,0,0,1-.68.26c-.47-.06-.41-.63-.77-.81a.48.48,0,0,1-.14-.24l.08-.75Z"/><path class="cls-400" d="M33.83,24.4l.08-.75.72,0,.09,0c.33.67.14,1-.63,1A.51.51,0,0,1,33.83,24.4Z"/><path class="cls-490" d="M29.12,30c.08.6-.19.86-.78.8l0-.78Z"/><path class="cls-491" d="M24.42,29.19l.74,0c0,.26,0,.52,0,.78l-.76,0Z"/><path class="cls-492" d="M33.07,26l-.78,0,0-.77.72,0,.13.09A.47.47,0,0,1,33.07,26Z"/><path class="cls-493" d="M32.28,26c.08.59-.17.87-.77.8l0-.78Z"/><path class="cls-242" d="M33.11,24.44l.72,0,.08,0c.2.89.09,1-.79.8l-.08,0Z"/><path class="cls-494" d="M29.16,23.65l.75,0c0,.26,0,.52,0,.78l-.77,0Z"/><path class="cls-495" d="M31.49,26.79c.11.62-.17.87-.78.8l0-.78Z"/><path class="cls-496" d="M29.92,23.63l0-.77.75,0c0,.26,0,.52,0,.78Z"/><path class="cls-497" d="M30.71,22.84l0-.77.75,0c0,.26,0,.52,0,.78Z"/><path class="cls-270" d="M31.49,22c0-.25,0-.5,0-.76l.75,0c0,.26,0,.52,0,.77Z"/><path class="cls-498" d="M26.79,32.35l.73-.05c.06.57-.18.86-.77.82Z"/><path class="cls-499" d="M26.74,33.11c.06.58-.19.85-.78.8l0-.77Z"/><path class="cls-500" d="M35.47,24.44l.75,0c0,.25,0,.5,0,.76l-.72.08-.14-.1A.48.48,0,0,1,35.47,24.44Z"/><path class="cls-501" d="M34.7,26c0,.24-.05.49-.08.74l-.72,0-.09,0c-.33-.67-.13-1,.63-1A.53.53,0,0,1,34.7,26Z"/><path class="cls-502" d="M35.49,25.24c0,.24-.05.49-.07.73L34.7,26,34.62,26c-.2-.88-.09-1,.79-.79Z"/><path class="cls-229" d="M35.41,25.18c-.56,0-.79.27-.79.79-.56,0-.78.3-.81.8-.59.06-.75-.29-.74-.79l0-.75c.6.06.77-.3.79-.8.55,0,.77-.28.81-.78.6-.07.76.28.75.79Z"/></g></g></svg>