<svg xmlns="http://www.w3.org/2000/svg" viewBox="0 0 74 74"><defs><style>.cls-1{fill:#1e2223;}.cls-2{fill:#1c1f21;}.cls-3{fill:#2b1b14;}.cls-4{fill:#322722;}.cls-5{fill:#322721;}.cls-6{fill:#483226;}.cls-7{fill:#2f221c;}.cls-8{fill:#463024;}.cls-9{fill:#3e2a20;}.cls-10{fill:#312925;}.cls-11{fill:#282726;}.cls-12{fill:#212526;}.cls-13{fill:#5d5c5c;}.cls-14{fill:#4d4e4f;}.cls-15{fill:#3e4042;}.cls-16{fill:#626362;}.cls-17{fill:#2a3237;}.cls-18{fill:#3d4246;}.cls-19{fill:#101d24;}.cls-20{fill:#343536;}.cls-21{fill:#2e383d;}.cls-22{fill:#31373b;}.cls-23{fill:#202528;}.cls-24{fill:#151515;}.cls-25{fill:#211d1b;}.cls-26{fill:#282d2f;}.cls-27{fill:#454443;}.cls-28{fill:#5a5a59;}.cls-29{fill:#252628;}.cls-30{fill:#3d2b22;}.cls-31{fill:#181f23;}.cls-32{fill:#583d2e;}.cls-33{fill:#3e3f40;}.cls-34{fill:#282727;}.cls-35{fill:#1a1a1a;}.cls-36{fill:#272727;}.cls-37{fill:#504c4a;}.cls-38{fill:#494441;}.cls-39{fill:#23282a;}.cls-40{fill:#333334;}.cls-41{fill:#303436;}.cls-42{fill:#595757;}.cls-43{fill:#353839;}.cls-44{fill:#4c4946;}.cls-45{fill:#343638;}.cls-46{fill:#585858;}.cls-47{fill:#363230;}.cls-48{fill:#292e31;}.cls-49{fill:#474849;}.cls-50{fill:#2b3033;}.cls-51{fill:#505254;}.cls-52{fill:#2b3032;}.cls-53{fill:#423c37;}.cls-54{fill:#4d4844;}.cls-55{fill:#2f2e2e;}.cls-56{fill:#5b544f;}.cls-57{fill:#343434;}.cls-58{fill:#757372;}.cls-59{fill:#393838;}.cls-60{fill:#443f3e;}.cls-61{fill:#454341;}.cls-62{fill:#494542;}.cls-63{fill:#242424;}.cls-64{fill:#393939;}.cls-65{fill:#747270;}.cls-66{fill:#8f8f8f;}.cls-67{fill:#555;}.cls-68{fill:#787879;}.cls-69{fill:#050505;}.cls-70{fill:#535252;}.cls-71{fill:#242221;}.cls-72{fill:#252a2d;}.cls-73{fill:#1f2020;}.cls-74{fill:#3b3d3e;}.cls-75{fill:#333434;}.cls-76{fill:#413c39;}.cls-77{fill:#6b5f56;}.cls-78{fill:#444547;}.cls-79{fill:#363a3b;}.cls-80{fill:#3c3835;}.cls-81{fill:#2c2726;}.cls-82{fill:#1b1919;}.cls-83{fill:#5c564f;}.cls-84{fill:#797168;}.cls-85{fill:#272524;}.cls-86{fill:#242526;}.cls-87{fill:#323334;}.cls-88{fill:#3b3e3f;}.cls-89{fill:#666869;}.cls-90{fill:#3a4449;}.cls-91{fill:#100f0f;}.cls-92{fill:#333435;}.cls-93{fill:#1d1d1d;}.cls-94{fill:#313030;}.cls-95{fill:#3b3a3a;}.cls-96{fill:#070606;}.cls-97{fill:#121b20;}.cls-98{fill:#373737;}.cls-99{fill:#323232;}.cls-100{fill:#302f2f;}.cls-101{fill:#525150;}.cls-102{fill:#535251;}.cls-103{fill:#464646;}.cls-104{fill:#5f554f;}.cls-105{fill:#534236;}.cls-106{fill:#6e5445;}.cls-107{fill:#362e28;}.cls-108{fill:#3d3c3b;}.cls-109{fill:#6d625a;}.cls-110{fill:#5e5954;}.cls-111{fill:#484642;}.cls-112{fill:#777676;}.cls-113{fill:#787573;}.cls-114{fill:#988f8b;}.cls-115{fill:#846c5d;}.cls-116{fill:#9d9b9b;}.cls-117{fill:#444;}.cls-118{fill:#3a3a3a;}.cls-119{fill:#5a5a5a;}.cls-120{fill:#5f5d5c;}.cls-121{fill:#8e8c8a;}.cls-122{fill:#706b68;}.cls-123{fill:#676766;}.cls-124{fill:#1f1f1f;}.cls-125{fill:#545353;}.cls-126{fill:#464545;}.cls-127{fill:#40403f;}.cls-128{fill:#444241;}.cls-129{fill:#958d82;}.cls-130{fill:#64605a;}.cls-131{fill:#4c4b47;}.cls-132{fill:#2b2b2b;}.cls-133{fill:#85827f;}.cls-134{fill:#aaa9a9;}.cls-135{fill:#908e8c;}.cls-136{fill:#7a7978;}.cls-137{fill:#646464;}.cls-138{fill:#584d44;}.cls-139{fill:#6e6458;}.cls-140{fill:#5b5049;}.cls-141{fill:#b5afab;}.cls-142{fill:#8c8581;}.cls-143{fill:#81736a;}.cls-144{fill:#9e9389;}.cls-145{fill:#9c9489;}.cls-146{fill:#5a5654;}.cls-147{fill:#727171;}.cls-148{fill:#1a1c1d;}.cls-149{fill:#666;}.cls-150{fill:#4c4c4c;}.cls-151{fill:#4a4b4b;}.cls-152{fill:#3b3b3c;}.cls-153{fill:#282728;}.cls-154{fill:#313131;}.cls-155{fill:#7c7b7b;}.cls-156{fill:#a0a0a0;}.cls-157{fill:#606060;}.cls-158{fill:#919090;}.cls-159{fill:#505051;}.cls-160{fill:#575654;}.cls-161{fill:#252525;}.cls-162{fill:#1c1b1b;}.cls-163{fill:#484848;}.cls-164{fill:#636363;}.cls-165{fill:#4e4d4d;}.cls-166{fill:#747373;}.cls-167{fill:#7e7772;}.cls-168{fill:#8f8a88;}.cls-169{fill:#7a7a79;}.cls-170{fill:#5c5a59;}.cls-171{fill:#717070;}.cls-172{fill:#717171;}.cls-173{fill:#1e1d1c;}.cls-174{fill:#989085;}.cls-175{fill:#7f786f;}.cls-176{fill:#45403d;}.cls-177{fill:#a09991;}.cls-178{fill:#6e6b67;}.cls-179{fill:#b8b1ac;}.cls-180{fill:#cac5bf;}.cls-181{fill:#b5aba2;}.cls-182{fill:#9e9c99;}.cls-183{fill:#797a79;}.cls-184{fill:#3d3d3d;}.cls-185{fill:#5b5b5b;}.cls-186{fill:#bfb7b0;}.cls-187{fill:#80786f;}.cls-188{fill:#a49b93;}.cls-189{fill:#bdb8b4;}.cls-190{fill:#dad6d3;}.cls-191{fill:#7e7e7e;}.cls-192{fill:#8a8a8a;}.cls-193{fill:#333537;}.cls-194{fill:#2f2f2f;}.cls-195{fill:#5f5d5a;}.cls-196{fill:#848484;}.cls-197{fill:#79746d;}.cls-198{fill:#464542;}.cls-199{fill:#8a8988;}.cls-200{fill:#686868;}.cls-201{fill:#99938d;}.cls-202{fill:#7f7f7e;}.cls-203{fill:#a29f9e;}.cls-204{fill:#dddad8;}</style></defs><title>정찰_1</title><g id="레이어_2" data-name="레이어 2"><g id="레이어_1-2" data-name="레이어 1"><rect class="cls-1" width="74" height="74" rx="8.33" ry="8.33"/><path class="cls-2" d="M18.38,23.46s0-.06,0-.09c.7-1,1.93-1.53,2.15-2.86,0-.09.28-.13.43-.19a1.79,1.79,0,0,1,.54,1c.22.74.78.9,1.45.43a5.35,5.35,0,0,0,1.49-1.94c.37-.17.68-.45,1-.6s.91-.49,1,.31a3.82,3.82,0,0,0,0,1.58c.44.73,1.34.86,1.9,1.45a1.39,1.39,0,0,1-.81,1.79c-.36.19-.81.34-.78.89-.59.56-1.29.28-2,.25-1.85-.11-3.71-.48-5.57,0-.36.09-.79.17-1-.29A2.1,2.1,0,0,1,18.38,23.46Z"/><path class="cls-3" d="M33.29,20.28a1.23,1.23,0,0,1,1.21-.5,1.45,1.45,0,0,0,1.35-.85c.31-.55-.11-.92-.4-1.31a2.73,2.73,0,0,0-.39-.44c-.52-.5-.27-.72.29-.84,2.06-.43,3.41.76,3.27,2.89a2.42,2.42,0,0,0,.07,1.07c.05.12.22.26.15.34-.65.69-.61,1.68-1.07,2.44a1.47,1.47,0,0,1-.75.05c-.73-.88-1.74-.77-2.72-.78-.26-.16-.61,0-.84-.24A3.8,3.8,0,0,1,33.29,20.28Z"/><path class="cls-4" d="M18.38,23.46a3.62,3.62,0,0,1,.19,1.6c0,.16,0,.34-.17.41a8.5,8.5,0,0,0-3.15,2.71c-.19.22-.33.5-.68.48-.61.17-.78.78-1.18,1.16s-.65.57-1.08.38a1,1,0,0,1-.56-1,2.53,2.53,0,0,1,.45-1.79A9.47,9.47,0,0,1,15,24.28c.23-.53.93-.13,1.19-.6l.4-.2Z"/><path class="cls-5" d="M33.29,20.28c.49.44.41,1,.42,1.59s-.4.48-.7.49a7,7,0,0,0-3.17.67c-.28.15-.65,0-1,0s-.51-.22-.75-.37c-1.46-.07-1.52-.13-1.56-1.59a7.43,7.43,0,0,0,3.62-.66C31.05,20,32.24,20.33,33.29,20.28Z"/><path class="cls-6" d="M26.55,19.54c-.76,0-1.13,1-2,.78a1.92,1.92,0,0,1-.66.43.78.78,0,0,1-.8-.26c-.26-.38-.07-.72.23-1a1.47,1.47,0,0,0,.77-.4,6.27,6.27,0,0,1,4.58-2,.93.93,0,0,0,1-.74c.25-.29.53-.49.92-.27a1.16,1.16,0,0,1,.19,1,2.63,2.63,0,0,1-1.43,1.31,1,1,0,0,0-.5.35C27.93,18.43,27.36,19.32,26.55,19.54Z"/><path class="cls-7" d="M46.46,27.27l-.41,1a.32.32,0,0,1-.36.34,2.3,2.3,0,0,1-.74.07,2.22,2.22,0,0,0-1.2-1,1.4,1.4,0,0,1-.83-.91,2.83,2.83,0,0,1,0-1.5c0-.58.32-.71.82-.65-.26-.67-1.55-1-.46-1.89.86.16,1.49.9,2.38,1,0,.61,0,1.21.81,1.39A3.32,3.32,0,0,1,46.46,27.27Z"/><path class="cls-8" d="M43.26,22.7c.05.67.65.95,1,1.39.21.26.49.44.56.79s.06.54-.19.71-.44,0-.61-.15a1.3,1.3,0,0,0-.78-.35c-.41.47-.79.57-1.26.05a5,5,0,0,0-1.78-1.22,1.81,1.81,0,0,1-1.28-1.37c0-.92.13-1.07,1-1.1,1.09-.05,1.73.82,2.6,1.2Z"/><path class="cls-9" d="M23.36,19.49c.1.74.66.79,1.23.83-.32,1.09-.8,2.07-2,2.32S21,22.48,21,21.31c0-.33,0-.66,0-1C21.85,20.21,22.44,19.38,23.36,19.49Z"/><path class="cls-10" d="M42.5,22.65a2.69,2.69,0,0,1-1.64-.48c-.66-.37-1.33-.5-1.58.51-.59.64-1.06.63-1.6,0a1.81,1.81,0,0,1,1-2.37c.83.93,2.24.6,3.12,1.44A1.87,1.87,0,0,1,42.5,22.65Z"/><path class="cls-11" d="M30.53,16.33h-.8a1.72,1.72,0,0,1,2.44-.54c1.35.76,1.42,1.07.08,1.71-1.05.51-2,1.35-3.34,1.19a2.31,2.31,0,0,1,1.61-1.57C30.89,16.85,30.91,16.59,30.53,16.33Z"/><path class="cls-12" d="M25.75,58.5c-.08-.18-.13-.48-.25-.51-1.25-.29-2-1.31-3.06-1.94A10.06,10.06,0,0,1,18.54,52c-.07-.14-.1-.34-.21-.43-1.59-1.28-2.26-3.3-3.77-4.64a10.8,10.8,0,0,1-2.65-3.54,4.63,4.63,0,0,1-.17-3.63c.4-1.19,1.19-2.23,1.27-3.52.25-.21.32-.53.5-.77a.67.67,0,0,1,.93-.13c1,.16.34,1,.62,1.47a2.08,2.08,0,0,1,0,1.35,2.44,2.44,0,0,0,.42,2.34,12.26,12.26,0,0,1,1.29,2.21,4.07,4.07,0,0,0,1.43,1.62,5.76,5.76,0,0,1,2.28,2.51c.39.5,0,.8-.33,1a.63.63,0,0,1-.95-.17c-.84-1.56-2.4-2.46-3.44-3.82-.51-.66-.87-1.41-1.34-2.09-.14-.21-.3-.51-.62-.35s-.24.44-.2.71a2.64,2.64,0,0,0,.9,1.39,7.4,7.4,0,0,1,1.64,2.18c.49,1.09,1.57,1.77,2.38,2.64a13.08,13.08,0,0,1,1.59,2.09c.88,1.39,1.72,3,3.55,3.39.29.37-.2,1.08.55,1.24.28.29.34.8.86.85.18.43.45.72,1,.59a.45.45,0,0,1,.23.22.73.73,0,0,0,.91.55,4.7,4.7,0,0,1,1.35,0,.76.76,0,0,0,1-.64,2.21,2.21,0,0,1,.76-.13.69.69,0,0,0,.87-.57c.48-.09.66-.5.89-.85a1.64,1.64,0,0,1,.69-.21c.48.06.58-.21.53-.61s0-.84.56-1c.2-.06.29-.37.39-.6,1,0,.59-.88.79-1.37a.29.29,0,0,1,.15-.24c.91-.1.36-.91.64-1.31a.5.5,0,0,1,.11-.26.74.74,0,0,0,.73-.81c.32-.17.81-.14.87-.66.55-.08.61-.67,1-.94.42-.09.36-.42.4-.73s-.12-.68.24-.9a.56.56,0,0,0,.58-.69c-.11-.77,0-1.54,0-2.31.06-.24,0-.49,0-.73.25-.39.5-.4.92-.12A19.93,19.93,0,0,1,43,43.2c.07.06.19,0,.29.06.43.07.38.71.86.73.1.54.65.63.94,1,.1.29.26.38.6.39s.7.08.64.57c-.33,1.17-1.11,1.4-2.3.66a1.37,1.37,0,0,1-.29-.07c-.57-.26-1-.95-1.76-.62a3.2,3.2,0,0,0-1.71,1.84,8.29,8.29,0,0,1-2,2.62,1.89,1.89,0,0,0-.6,1h0c-.1.09-.28.2-.27.28.13,1-.63,1.64-1.05,2.42a2.45,2.45,0,0,0-1.6,2c-.13.32-.46.37-.71.54-.93-.1-1.3.67-1.83,1.18-.25.24-.68,0-.9.32l0,.36Z"/><path class="cls-13" d="M53.64,32.19c.6.15,1.47-.26,1.59.82.73,1.1.54,1.7-.68,2.14-.18.07-.23.23-.33.35-.24.52-.79.38-1.19.57a4.54,4.54,0,0,0-1.7,1.23,3.17,3.17,0,0,1-.81.12,1.29,1.29,0,0,0-1.31.87,1.18,1.18,0,0,1-1.28.7c-.2-.75-.82-1.29-1-2a2,2,0,0,1,0-.85c.4-.59.81-1.17,1.65-1.09.54.1.73-.16.69-.65a5.16,5.16,0,0,1,1-.9A4.07,4.07,0,0,0,51.9,31.9a3.33,3.33,0,0,1,.89,0C53.15,31.77,53.38,32,53.64,32.19Z"/><path class="cls-14" d="M52.83,32.22l-.79,0c-.48.59-1.18.38-1.79.49a2.12,2.12,0,0,1-1.84-.33,5.24,5.24,0,0,0-1.29-.66.81.81,0,0,1-.3-.13c-.09-.85-.94-.42-1.32-.77-.17-.64-.65-.63-1.16-.57-1-.08-.66-.83-.72-1.4.17-1.13.37-1.22,1.47-.65l.55,0a5.94,5.94,0,0,0,.83.76c.65.06,1.3,0,1.8.6.31.37.87.24,1.32.28.27.36.81.36,1,.76s.62.38,1,.4.9-.07,1.2.39h0C53.12,31.69,53.15,32,52.83,32.22Z"/><path class="cls-15" d="M53.78,35.39c.07-.25.16-.56.43-.62,1-.23,1-1,1-1.76.63.1.8.55.77,1.08,0,.75.12,1.31,1,1.4.37,0,.54.35.61.69-.11.47-.45.36-.8.38a8.29,8.29,0,0,1-2.28,0C53.81,36.48,53.85,35.9,53.78,35.39Z"/><path class="cls-16" d="M54.43,36.25l3.19-.07.76,0a.64.64,0,0,1,.25.89c-.69.6-1.53.16-2.29.33-.46-.09-.82,0-1,.54a.93.93,0,0,1-.34.13,1,1,0,0,1-.9-.15A1.68,1.68,0,0,1,54,37C54.05,36.71,53.88,36.29,54.43,36.25Z"/><path class="cls-17" d="M52.81,31.44l-1.49,0a.85.85,0,0,1-.9-.76c-.18-.21-.32-.42,0-.62a2.1,2.1,0,0,0,1.41.62A.86.86,0,0,1,52.81,31.44Z"/><path class="cls-18" d="M58.41,37l0-.74,1.6,0,.78.62c.07,0,.1.06.1.11s0,.08,0,.08h-.11a.72.72,0,0,1-.74.38c-.3,0-.6,0-.9,0S58.41,37.47,58.41,37Z"/><path class="cls-19" d="M46.46,27.27c0-.74,0-1.47,0-2.2A1.86,1.86,0,0,1,46.46,27.27Z"/><path class="cls-20" d="M52.83,32.22l0-.77a.81.81,0,0,1,.84.74Z"/><path class="cls-21" d="M50.43,30v.62a.85.85,0,0,1-.83-.77Z"/><path class="cls-22" d="M46.47,29a.75.75,0,0,1-.83-.76l.41,0A1.11,1.11,0,0,1,46.47,29Z"/><path class="cls-12" d="M33.92,56.34l.6-.41c.44-.8,1.17-1.38,1.58-2.2.58-.76.56-1.93,1.59-2.39a2.71,2.71,0,0,1-.7,2.52,17.19,17.19,0,0,1-3,3.35,2.14,2.14,0,0,1-1,.5C32.64,56.81,33.37,56.64,33.92,56.34Z"/><path class="cls-12" d="M33.92,56.34l-1,1.37h-.41c-.14.08-.28.18-.41,0C32.51,57,32.77,56.07,33.92,56.34Z"/><path class="cls-12" d="M32.1,57.7l.41,0a1.7,1.7,0,0,1-1.18.39A1,1,0,0,1,32.1,57.7Z"/><path class="cls-23" d="M56.79,49.74c-1.89,0-3.82.31-5.55-.81A5.15,5.15,0,0,0,47,47.74.78.78,0,0,1,46,47c-.07-.72.47-.81.92-.84s.67,0,1,0a.52.52,0,0,0,.56-.29.9.9,0,0,1,.26-.32.64.64,0,0,0,.52-.67c-.13-1.35,0-2.7-.07-4.05a2.9,2.9,0,0,1,.25-1.56,1,1,0,0,1,.83-.18c.39,0,.66.17.61.58a2.11,2.11,0,0,0,1.5,2.56c.08.46-.09.93,0,1.4a2,2,0,0,0-.78,2.06c0,.33.07.53.41.6a.33.33,0,0,1,.27.14c-.06.55.45.63.73.89,0,.64.88.29,1,.85.29.73.9.31,1.38.39s1.22-.16,1.71.34C57.3,49.27,57.06,49.51,56.79,49.74Z"/><path class="cls-12" d="M56.79,49.74V49c-.28-.28-.15-.58,0-.88.36-.21.51-.59.76-.9a1.21,1.21,0,0,1,.71-.21c.54.16.65-.3.88-.59a6.24,6.24,0,0,0,1.49-2.51c.94-.28,1.21-.75,1.35-1.75S61.85,40,62,39a1.35,1.35,0,0,1,.33-.77c1.15.8,1,2,1,3.18,0,.42-.24.85-.21,1.26a3.94,3.94,0,0,1-1.12,3,1,1,0,0,0-.31,1.15,4.21,4.21,0,0,0-1.18,1.4c-.2.27-.31.61-.62.79-.64,0-1.39-.13-1.58.79H56.79Z"/><path class="cls-12" d="M48.81,45.75c-.11.83-.75.78-1.35.83-.28,0-.71,0-.73.35s.46.38.76.41c1.13.09,2.34-.24,3.26.76a1.55,1.55,0,0,1,.49.83,32.17,32.17,0,0,0-5.13-1c-.75-.14-1.73-.33-2.06-1.31.74-.06,1.59.15,2-.78A2.42,2.42,0,0,1,48.81,45.75Z"/><path class="cls-12" d="M60,49a.82.82,0,0,1,.62-.79C60.68,48.67,60.4,48.87,60,49Z"/><path class="cls-24" d="M14.38,35.62c-.48.16-.84.57-1.37.6,0-.48-.39-.73-.69-1a2.42,2.42,0,0,1-.91-1.36A2.48,2.48,0,0,0,11,32.62c-.28-1,0-1.58,1-1.66a6.47,6.47,0,0,1,1.76-.12,2.15,2.15,0,0,0,1.26-.47c.92-.58,1.7-.35,2.34.67,0,.65-.06,1.3,0,2-.62.41-.85,1.18-1.56,1.46a1.29,1.29,0,0,0-.66.83c-.09.23-.09.54-.47.52A1.07,1.07,0,0,1,14.38,35.62Z"/><path class="cls-25" d="M13.81,31.24a7.19,7.19,0,0,1-2,.41c-.51-.06-.62.57-.81,1a4.33,4.33,0,0,1,1.18-5.17c.1.69-.32,1.66.33,2s1-.64,1.53-1a4.27,4.27,0,0,1,.53-.24c.34,0,.5.19.42.48A4,4,0,0,1,13.81,31.24Z"/><path class="cls-19" d="M16.19,23.68c-.2.58-.7.59-1.19.6C14.88,23.06,15.73,23.75,16.19,23.68Z"/><path class="cls-26" d="M62.37,38.21c0,1.35,0,2.7,0,4a1.88,1.88,0,0,1-1.51,1.92c-.26.12-.4.39-.75.43-1.1.11-1.4-.24-1.26-1.65a2.06,2.06,0,0,0,0-.26,1.49,1.49,0,0,1,.2-1,.9.9,0,0,1,.85-.28c.42-.09.6.45,1,.38s.35-.48.34-.66c0-.68,0-1.36-.06-2,0-.39-.2-1,.47-1.14Z"/><path class="cls-27" d="M61.6,38c0,1.39,0,2.77,0,4.15,0,.36.14,1-.39,1s-.32-.61-.43-.95A1.32,1.32,0,0,1,60.38,41c-.1.27.22.8-.44.81l-.72,0-.2-.08c-.38-.73-.14-1.51-.23-2.27s.11-1.28,1-1.27c.35,0,.6-.4,1-.39Z"/><path class="cls-28" d="M60.8,37.79a.87.87,0,0,1-.81.81.9.9,0,0,0-.82.81.56.56,0,0,1-.89.15c-.14-.14-.2-.44-.31-.46-1-.18-.76-.83-.62-1.46a2.45,2.45,0,0,1,1.53-.23A1,1,0,0,0,60,37l.76,0Z"/><path class="cls-29" d="M29.93,25.84a1,1,0,0,0-1.12-.75l-2.26,0a1.45,1.45,0,0,1,.82-1.15,1.36,1.36,0,0,0,.74-1.2H29A.92.92,0,0,0,30,23a3.44,3.44,0,0,1,1.43,0A4.62,4.62,0,0,0,33,25c.08.14,0,.36.3.37.86,0,1,.55.79,1.28a1.58,1.58,0,0,1-1.1,1.1,4,4,0,0,1-1.19,0,1.1,1.1,0,0,1-.51-.13c-.23-.18-.24-.46-.31-.71a2.44,2.44,0,0,0,0-.27c0-.12,0-.26-.1-.34C30.51,26.2,30,26.45,29.93,25.84Z"/><path class="cls-30" d="M36.88,22.68,35,24.14a3.27,3.27,0,0,1-2.5.95C31,25,31,25,31.34,23.49a.36.36,0,0,1,.37-.46c1-.05,1.82-.78,2.8-.94l.93-.32C36.74,21.27,36.82,21.32,36.88,22.68Z"/><path class="cls-31" d="M34.51,22.09c-.66,1.36-1.87,1.49-3.17,1.4-.48,0-1,0-1.44,0A.84.84,0,0,1,29,22.7a9.3,9.3,0,0,1,4.76-.83Z"/><path class="cls-32" d="M30.53,16.33c.47.05,1.29-.25,1.29.38s-.82.33-1.3.4Z"/><path class="cls-33" d="M41.69,26.64l1.58,0a3.78,3.78,0,0,1,1.82,1.55c-.54.05-1,.24-1.06.86a1.15,1.15,0,0,1-.51.38,3.38,3.38,0,0,1-3-1.33,2.4,2.4,0,0,1-.12-.88c0-.32,0-.68.35-.86S41.43,26.39,41.69,26.64Z"/><path class="cls-24" d="M20.16,47a24.7,24.7,0,0,1-5.65-7.08c-.5-1.06.17-1.92.29-2.87a5.53,5.53,0,0,1,2.06-1.78.52.52,0,0,1,.71,0c1.22,1.29,2.79,2.2,4,3.53a17.41,17.41,0,0,0,2.17,1.74,2.29,2.29,0,0,1,.85,2c-.27,1.17-1.36,1.73-2,2.65-.4.58-.63,1.33-1.38,1.64C20.87,47,20.55,47.32,20.16,47Z"/><path class="cls-34" d="M20.16,47A4.51,4.51,0,0,0,22,45.19a14,14,0,0,1,2.2-2.6c.19-.44.47-.66,1-.48.61.56,1.28,1.11.87,2.09-.62.28-.62.87-.76,1.39a1.16,1.16,0,0,1-.76,0c-.86-.26-1.35.12-1.48,1.12,0,.22.1.49,0,.67-.72.91-.63,2-.79,3.07a2,2,0,0,0,1.44,2.24c.1,0,.1.15.16.24-.14.38.22,1-.41,1.2a8,8,0,0,1-4.09-3.94c-.51-1.07-1.6-1.74-2.41-2.61a7.08,7.08,0,0,1-1.55-2.15c-.32-.8-1.11-1.29-1.71-1.9-.83-.85-.62-1.85-.45-2.8.11-.59.83-.65,1.25-.12a8.91,8.91,0,0,1,.8,1.37,12,12,0,0,0,3,3.57A4.5,4.5,0,0,1,19.4,47C19.61,47.41,19.9,47.48,20.16,47Z"/><path class="cls-35" d="M43.23,43.58a3.11,3.11,0,0,1-1.82-.91A10.27,10.27,0,0,0,40.09,42l-1.16-2.18c-.08-.41,0-.83,0-1.24-.4-.92.57-1.11.89-1.65s.5-1.11,1.36-1.07c1.28,0,1.38,0,1.81,1.22,0,.41.39.26.61.27,1.19.07,1.4.44,1,1.57a.71.71,0,0,0-.06.46,2.28,2.28,0,0,1-.14.82c-.32.32-.87.51-.66,1.13s0,1.1,0,1.64C43.67,43.3,43.58,43.51,43.23,43.58Z"/><path class="cls-36" d="M25,42.39l-.8.2a2.94,2.94,0,0,0-1.38-2.39c-.84-.69-1.72-1.33-2.56-2a18.21,18.21,0,0,1-1.95-1.78c-1-1-1.22-1-2.32-.13A3.1,3.1,0,0,1,14.8,37a2.58,2.58,0,0,1-.42-1.4l.21,0c.68,0,1-.61,1.54-.92a2.07,2.07,0,0,1,1.15-.44,2.7,2.7,0,0,1,.56.14c.29.28.34.81.86.85.19.34.33.74.86.59.91-.07,1.28.66,1.73,1.24.17.21.25.48.55.56,1.06.82,1.78,2.09,3.22,2.4.1.6.71.59,1.06.88.11.22,0,.44,0,.66C26,42.16,25.48,42.31,25,42.39Z"/><path class="cls-37" d="M32.89,55.3l-.74.07a.31.31,0,0,1-.29-.17,2.77,2.77,0,0,1-.13-1.4,1.16,1.16,0,0,1,1.07-1.3c.42,0,.36-.3.39-.55a2.68,2.68,0,0,1,.35-1.51c.63-.15.55-.74.6-1.16s-.06-.63.17-.9c.72-.56,1.22.21,1.82.31a.44.44,0,0,1,.24.26.64.64,0,0,1-.27.8h0a.94.94,0,0,0-.38.82.85.85,0,0,1-.42.76h0c-.6.38-.18,1.24-.77,1.62,0,.68-.91.84-.84,1.55A3.53,3.53,0,0,1,32.89,55.3Z"/><path class="cls-38" d="M48.81,45.75,46,45.8c-.52-.07-1.14,0-1.22-.77a.36.36,0,0,1,.19-.32c.48-.43,1.19.12,1.66-.37a1.82,1.82,0,0,0,.86-2,4.08,4.08,0,0,1,.89-2.92c.36-.49.79-.83,1.35-.25a.44.44,0,0,1-.11.31L49.6,41c-.68.89-.22,1.93-.37,2.9-.1.64.25,1.38-.42,1.9Z"/><path class="cls-39" d="M39.26,38.8a1.65,1.65,0,0,0,.9,1.6c1,.55.92.94-.07,1.59,0,.2,0,.41,0,.62a.63.63,0,0,1-.83.24c-.36-.08-.3-.4-.3-.63a1,1,0,0,0-.73-1.09,3.1,3.1,0,0,1-.1-1c-.08-.23,0-.45,0-.69a.83.83,0,0,1,.33-.83A.59.59,0,0,1,39.26,38.8Z"/><path class="cls-40" d="M23.34,54.15V52.91c-.62-.43-.4-1.06-.37-1.64.06-.26-.06-.57.22-.77a1.27,1.27,0,0,1,1,0,.5.5,0,0,1,.22.36,11.68,11.68,0,0,1,0,4.25.39.39,0,0,1-.29.21C23.46,55.22,23.36,54.72,23.34,54.15Z"/><path class="cls-41" d="M29.75,57a.88.88,0,0,1-.33.58A3.61,3.61,0,0,1,25.93,57c.06-.37.33-.42.64-.42.81,0,1.62,0,2.44,0C29.31,56.57,29.72,56.43,29.75,57Z"/><path class="cls-42" d="M43.23,43.58,43.29,41a.62.62,0,0,1,.91-.27,4.42,4.42,0,0,1,.26,2.44,1.5,1.5,0,0,1-.14.86.33.33,0,0,1-.28.17C43.62,44.2,43.26,44.09,43.23,43.58Z"/><path class="cls-43" d="M39.3,42.57l.75,0c0,.73,0,1.45,0,2.18a.9.9,0,0,1-.75,1c-.61-.31-.5-1-.8-1.48l.06-.44C39,43.53,38.67,42.79,39.3,42.57Z"/><path class="cls-44" d="M39.27,44.18c0,.54,0,1.08,0,1.62s.17,1.42-.81,1.6l-.18-.06a2.8,2.8,0,0,1,0-2.81C38.57,44.14,38.85,44,39.27,44.18Z"/><path class="cls-12" d="M36.1,53.73a2.37,2.37,0,0,1-1.58,2.2C34.31,54.67,35.35,54.3,36.1,53.73Z"/><path class="cls-45" d="M35.29,51.33c0-.65-.14-1.4.8-1.58C36,50.39,36.25,51.16,35.29,51.33Z"/><path class="cls-37" d="M37.74,48.18a.83.83,0,0,1-.83.78c-.26.3-.53.34-.8,0l0,0a.7.7,0,0,1-.29-.82c.15-.34.45-.39.79-.41a1.94,1.94,0,0,1,.86.16A.54.54,0,0,1,37.74,48.18Z"/><path class="cls-46" d="M29.75,57l-.83-.05a.57.57,0,0,1,0-1,1.93,1.93,0,0,1,1.72,0,.55.55,0,0,1-.12.93Z"/><path class="cls-45" d="M34.52,53c0-.65-.19-1.42.77-1.62C35.29,52,35.44,52.73,34.52,53Z"/><path class="cls-47" d="M36.11,49h.8a.81.81,0,0,1-.81.79Z"/><path class="cls-48" d="M24.91,56.15a.86.86,0,0,1-.77-.8l.06-.09a.73.73,0,0,1,.91-.18.66.66,0,0,1,.1.87A.31.31,0,0,1,24.91,56.15Z"/><path class="cls-49" d="M32.15,55.37c0,.56-.33.76-.82.8a.33.33,0,0,1-.28-.23.68.68,0,0,1,.14-.87.7.7,0,0,1,.89.2A.61.61,0,0,1,32.15,55.37Z"/><path class="cls-50" d="M25.76,56.91a.86.86,0,0,1-.85-.76l.08-.06a.56.56,0,0,1,.9-.08A.57.57,0,0,1,25.76,56.91Z"/><path class="cls-51" d="M25.76,56.91l0-.76.06-.19a.66.66,0,0,1,.91,0,.57.57,0,0,1-.11.88l-.65.07Z"/><path class="cls-50" d="M30.49,56.89l0-.78a1,1,0,0,1,.05-.16c.29-.27.51-.1.72.12a.69.69,0,0,1,0,.1A.76.76,0,0,1,30.49,56.89Z"/><path class="cls-52" d="M32.89,55.3a.79.79,0,0,1,.79-.8A.75.75,0,0,1,32.89,55.3Z"/><path class="cls-53" d="M38.5,47.4a.71.71,0,0,1-.76.78l-.12,0c-.27-.29-.41-.63-.12-.95s.67-.17,1,.09Z"/><path class="cls-54" d="M44.82,45c-.52,0-.8-.26-.78-.8l0-.11c.31-.28.67-.46,1-.1s.07.65-.19.91A.61.61,0,0,0,44.82,45Z"/><path class="cls-55" d="M44.06,39.41c.16-1.29.16-1.29-1.6-1.8-.23-.28-.15-.53,0-.8.63-.84,1.21-1.72,1.9-2.53a1.26,1.26,0,0,1,.51-.07,9.69,9.69,0,0,1,1.32,0c.22-.06.56.14.61-.27s-.23-.51-.51-.54-.83,0-1-.51a1.1,1.1,0,0,1,0-.78c0-.32.4-.14.51-.35.53.32.79-.19,1.16-.35a2.36,2.36,0,0,1,2,.6,1.4,1.4,0,0,0,.95.23c.9.62,1,.84.42,1.58a.85.85,0,0,1-.79.79c-.28.25-.52.54-.82.77-.7,0-.89.85-1.56.83a.94.94,0,0,0-.41,1c.11.52-.09.91-.59,1-.33,0-.27.29-.41.43-.5.17-.68.67-1.05,1A.59.59,0,0,1,44.06,39.41Z"/><path class="cls-56" d="M49.59,39.18a3,3,0,0,0-1.53,2.47,15.89,15.89,0,0,0,0,2.07c0,.86-.3,1.32-1.21,1.23a.67.67,0,0,0-.24-.16,1.66,1.66,0,0,1-1.33-2.17q0-.43,0-.87c-.08-.23.08-.45,0-.68.33-.35,1-.44,1-1.07a2.25,2.25,0,0,1,.31-.16c.45-.11.3-.53.31-.77s0-.72.34-.85.6.12.82.38c.9-.38,1.31-1.51,2.42-1.58.46.44.57.89-.09,1.21C49.92,38.44,50.18,39.14,49.59,39.18Z"/><path class="cls-57" d="M54.43,36.25l0,.74c-.69.75-.23,1.69-.39,2.53,0,.31.08.68-.26.91a1.33,1.33,0,0,1-1,0c-.71-.32-.34-.94-.4-1.43s.22-1-.62-.85a1.21,1.21,0,0,1-.84-.29c-.15-.39.05-.66.31-.92a2.34,2.34,0,0,1,2.57-1.6A1,1,0,0,1,54.43,36.25Z"/><path class="cls-58" d="M48,38.6a.86.86,0,0,0-.76.77.88.88,0,0,1-.83.81c-.43-.1-.45-.48-.43-.78s0-.47-.31-.55a.32.32,0,0,1-.09-.26c0-.34,0-.73.51-.83s.3-.44.36-.71c.23-.34.49-.37.76,0C48.38,37.09,48,37.93,48,38.6Z"/><path class="cls-59" d="M51.21,37l0,.83c.64.8.47,1.12-.8,1.58l-.77.05a2.68,2.68,0,0,0-.07-.27c-.18-.91.73-1.37.85-2.16Z"/><path class="cls-60" d="M50.43,33.84A5.43,5.43,0,0,0,50,32.26l2,0A2.18,2.18,0,0,1,50.43,33.84Z"/><path class="cls-61" d="M47.23,37l-.76,0a.76.76,0,0,1,.79-.82Z"/><path class="cls-62" d="M48.82,35.4a.79.79,0,0,1,.82-.77A.78.78,0,0,1,48.82,35.4Z"/><path class="cls-63" d="M47.05,31.43c-.18.76-.79.8-1.4.81-.11.09,0,0-.08.06-1.26.35-1.2,1.33-1.12,2.33a4.53,4.53,0,0,1-1.39,2.22,2.11,2.11,0,0,0-.6.76.91.91,0,0,1-.11-.16c-.25-.4-.09-1.08-.82-1.17s-1.09.44-1.45.93c-.79.35-1.12.2-1.26-.54a11,11,0,0,1,0-1.62c0-.34.32-.65.76-.75a.79.79,0,0,1,1,.51c.56.13,1.15.58,1.58-.23a.36.36,0,0,1,.22-.23c.88-.23.52-1.19.38-1.33-.38-.4-.6-1.09-1.32-1.08-.3,0-.6,0-.83-.25-.32-1.14-.61-1.44-1.76-1.48-.87,0-1.44-.64-2.18-.91-.28-.1-.28-.57,0-.89a.33.33,0,0,1,.31-.15,1.35,1.35,0,0,0,.86-.85,1.48,1.48,0,0,1,.87-.74,1.78,1.78,0,0,0,1.51,1.1c.3,0,.48.29.69.48a2.37,2.37,0,0,1,1.74.53,2,2,0,0,0,1.41.3.9.9,0,0,0,.81.78,2.49,2.49,0,0,1,.62.75.79.79,0,0,0,.73.42,1,1,0,0,1,.86.4Z"/><path class="cls-55" d="M47.05,31.43c-.73.05-1.42,0-1.81-.77.13-.2.29-.17.45-.05C46.29,30.64,46.9,30.66,47.05,31.43Z"/><path class="cls-64" d="M45.69,30.61l-.45.05a1.09,1.09,0,0,1-.4-.8A.83.83,0,0,1,45.69,30.61Z"/><path class="cls-65" d="M57.61,37.84c-.06.68.8.87.82,1.51a.38.38,0,0,1-.13.3A.42.42,0,0,0,58,40c-.08.88-.63.65-1.15.51-.46-.62-.92-1-1.41,0,0,.09-.24.06-.37.08a1.32,1.32,0,0,1-.89-.17,1.73,1.73,0,0,1-.15-1c.16-.52-.28-1.19.4-1.57l.77,0c.5.39.92.69,1.36-.17A.59.59,0,0,1,57.61,37.84Z"/><path class="cls-66" d="M57.61,37.84a1.36,1.36,0,0,0-.93.44c-.68.55-1.17.37-1.5-.49h0c.31-.21.52-.54.83-.75L58.41,37l.76.07c.33.25.33.5,0,.73Z"/><path class="cls-67" d="M54.41,37.82l0,1.54c-.21.33-.45.38-.72.06,0-.5,0-1,0-1.48s.18-.89.76-.95Z"/><path class="cls-65" d="M56,37a.79.79,0,0,1-.83.75A.78.78,0,0,1,56,37Z"/><path class="cls-68" d="M59.16,37.77V37H60A.67.67,0,0,1,59.16,37.77Z"/><path class="cls-69" d="M50.43,39.4c-.06-.69.86-.88.8-1.58l.79,0c.57,0,.38.69.77.85l.05,1.58a.85.85,0,0,1,.35.78c-.07.49-1,.18-.84.94-.05.18-.15.28-.34.26-1.38.66-1.57.54-1.59-1C50.42,40.6,50.42,40,50.43,39.4Z"/><path class="cls-70" d="M52,42.19l.05-.37c.17-.34.54-.52.73-.85l.05-.76.75,0c.81.62.28,1.45.34,2.19,0,.52-.91.52-.71,1.17,0,.48,0,1,0,1.45,0,.31,0,.61,0,.91a1,1,0,0,1-.34.87.52.52,0,0,1-.82-.22l0,0a2.94,2.94,0,0,1,0-3Z"/><path class="cls-71" d="M48.81,45.75l0-3.62c0-.55.09-1.05.76-1.18,0,1.22,0,2.44,0,3.67C49.64,45.19,49.51,45.68,48.81,45.75Z"/><path class="cls-72" d="M57,48.19l-.22.76H54.66c-.54,0-1-.16-1.07-.76.07-.54.51-.35.81-.43a10.1,10.1,0,0,1,2.33.12A.42.42,0,0,1,57,48.19Z"/><path class="cls-73" d="M52,43.57l0,3A1.76,1.76,0,0,1,52,43.57Z"/><path class="cls-74" d="M54.41,48.15l-.82,0a.91.91,0,0,1-.81-.81,1.21,1.21,0,0,0,0-.18,1.13,1.13,0,0,1,.88-.23,1,1,0,0,1,.88.33C54.84,47.65,54.7,47.92,54.41,48.15Z"/><path class="cls-75" d="M52.05,46.54h.8l.15.07c.24.29.09.52-.12.73l-.1.05A.72.72,0,0,1,52.05,46.54Z"/><path class="cls-76" d="M59.16,42.56c.08,1.53.1,1.55,1.68,1.62A2.36,2.36,0,0,1,59.2,46.6L59,46.55c-.12-1-.92-1.19-1.71-1.4,0-.27-.17-.53,0-.81a1.58,1.58,0,0,1,.09-.31c.46-.16.74-.43.6-1,0-.3-.06-.63.34-.75A.68.68,0,0,1,59.16,42.56Z"/><path class="cls-77" d="M58.38,47.35l-.77.08a.35.35,0,0,1-.26-.1c-.11-.51-.54-.31-.85-.37s-.59.09-.76-.24a4.85,4.85,0,0,1-.13-.93,1.32,1.32,0,0,1,.23-.92.86.86,0,0,1,.92-.17.59.59,0,0,1,.31.25.5.5,0,0,0,.57.41c.9-.07,1.22.36,1.13,1.21C58.85,46.94,58.6,47.14,58.38,47.35Z"/><path class="cls-78" d="M57,48.19l-.25-.08a.59.59,0,0,1-.23-.78.45.45,0,0,1,.25-.24.72.72,0,0,1,.81.23.43.43,0,0,0,0,.11A.67.67,0,0,1,57,48.19Z"/><path class="cls-79" d="M58.38,47.35l0-.77c.23-.32.47-.35.75-.06l0,.08A.77.77,0,0,1,58.38,47.35Z"/><path class="cls-80" d="M17.79,34.69l-.62,0c-.73-.34-.79-.79-.2-1.64a8.66,8.66,0,0,0,0-2c0-.19,0-.39,0-.59.08-1.22.25-1.39,1.49-1.4l1.27,0a1.76,1.76,0,0,0,.86.43c1.34.26,1.78.94,1.37,2.18a1.4,1.4,0,0,1-.88.14h-.34c-.31-.41-.52-.82-1.23-.79-1.09,0-1.08-.06-1.28,1-.14.82.15,1.68-.18,2.48A.27.27,0,0,1,17.79,34.69Z"/><path class="cls-81" d="M17,33a4.8,4.8,0,0,0,.2,1.64c-.53.37-1.08.73-1.59,1.13s-.76.39-1-.18c-.07-.93,0-1.71,1.21-1.9C16.23,33.63,16.46,33.05,17,33Z"/><path class="cls-82" d="M59.94,41.77c0-.58,0-1.17.06-1.76,0-.2.09-.41.32-.43s.41.19.41.43c0,.72,0,1.44,0,2.16A1.52,1.52,0,0,1,59.94,41.77Z"/><path class="cls-83" d="M59.16,42.56l-.73,0c-.59-.14-.49-.51-.32-.91.35-.22.7-.31,1,.08l.09,0Z"/><path class="cls-84" d="M59.13,41.77l-.71,0a1.67,1.67,0,0,1-.06-2.38l.07-.08.74.06C59.15,40.2,59.14,41,59.13,41.77Z"/><path class="cls-85" d="M21.79,31.4a2.45,2.45,0,0,0-1.31-1.49,1.44,1.44,0,0,1-.75-.84c2.18-.52,3.27,1,4.43,2.37-.4.68-1.07.29-1.62.39C22.21,31.83,21.83,31.91,21.79,31.4Z"/><path class="cls-86" d="M25,31.41A10.42,10.42,0,0,1,28.12,29c.45.15.69.58,1.07.82.35.63.14,1-.45,1.37s-1.32,1-2.23.87a1.35,1.35,0,0,0-.86-.23C25.35,31.9,25,31.91,25,31.41Z"/><path class="cls-87" d="M25,31.41c.56,0,1.15,0,1.6.43.4.19.41.46.15.78s-.54,1-.87,1.4a1.22,1.22,0,0,1-.81.21.41.41,0,0,1-.4-.45c0-.33-.23-.43-.51-.47a.31.31,0,0,1-.22-.21c-.21-.8-1-.3-1.43-.63a.53.53,0,0,1-.18-.28c-.14-.32,0-.53.25-.73l1.63,0Z"/><path class="cls-88" d="M28.94,29.85a.86.86,0,0,1-.82-.81c0-.48,0-1,0-1.44a.86.86,0,0,1,.79-.93,7.37,7.37,0,0,0,2,1.57c0,.56,0,1.09-.79,1.17-.38.05-.81-.07-1,.43Z"/><path class="cls-89" d="M30.51,28.24c-1.53,0-1.53,0-1.57-1.57h0a6,6,0,0,1,.81-.78l.18-.05,1.37,0c.35.25.34.52,0,.79h0a1,1,0,0,0-.41,1C30.86,28,30.93,28.29,30.51,28.24Z"/><path class="cls-90" d="M29.75,25.89a.72.72,0,0,1-.81.78A.71.71,0,0,1,29.75,25.89Z"/><path class="cls-91" d="M31.36,27.49h.33c.38.47.91.34,1.4.36s.94-.12,1,.57c0,.14.32.2.52.19a3.94,3.94,0,0,0,.77.08c.32.23.11.92.77.89a.31.31,0,0,1,.19.21c0,.5.43.52.74.68a1.12,1.12,0,0,1,.1.31,2.8,2.8,0,0,1-.05,1.41,1.57,1.57,0,0,1-1.85.38,2,2,0,0,0-1.61.1,7.42,7.42,0,0,1-2.57,1,1,1,0,0,0-.76.44A2.27,2.27,0,0,1,28,35a2.18,2.18,0,0,1-.8-.11,3.87,3.87,0,0,1-.27-1.35c-.07-.52.1-.91.63-1a2.31,2.31,0,0,0,2-1.82c.13-.39.42-.72.52-1.13.82-.43.87-1.26,1-2A.31.31,0,0,1,31.36,27.49Z"/><path class="cls-92" d="M34.52,29c-.68,0-.89-.85-1.58-.78-.33-.22-.36-.47-.06-.75a.89.89,0,0,1,.84-.83,6,6,0,0,0,2.61.92c.36,0,.5.38.62.69h-.1c-.3.58-.89.43-1.32.42A1.23,1.23,0,0,0,34.52,29Z"/><path class="cls-93" d="M32.88,27.48l.06.75c-.57,0-1.09-.06-1.25-.74Z"/><path class="cls-92" d="M30.59,27.48a.7.7,0,0,1,.74-.8l0,.81v0C31.09,27.73,30.83,27.85,30.59,27.48Z"/><path class="cls-92" d="M31.34,26.67l0-.79c.26,0,.59,0,.61.38S31.59,26.62,31.34,26.67Z"/><path class="cls-94" d="M40.88,28.25c-.33,0-.66,0-1,0-1.31,0-1.49-.27-1.21-1.58a2.26,2.26,0,0,0,1.52-.49c.63-.48,1.22-.42,1.49.46C40.75,26.84,40.9,27.59,40.88,28.25Z"/><path class="cls-95" d="M25,42.39a.93.93,0,0,1,.8-.8c.18-.14.29-.38.61-.31a7.34,7.34,0,0,0,2.56,0,2.86,2.86,0,0,1,2.71,1,4.14,4.14,0,0,0,1.64,1.19c.11.29-.06.54-.12.8-.22.34-.59.21-.9.28a6.47,6.47,0,0,1-1.32,0,2.47,2.47,0,0,1-1.14-.15,1.69,1.69,0,0,0-2.44-.33c-.22.13-.37.38-.66.4a1.14,1.14,0,0,1-.83-.09.32.32,0,0,1-.16-.28C25.71,43.45,24.82,43.13,25,42.39Z"/><path class="cls-96" d="M23.38,50.75l0,.59c-.49.64-.89.41-1.18-.17a1.77,1.77,0,0,0-.38-.63c0-1.38-.21-2.79.78-4,.23-.23.45-.49.66-.74.52-.61.9-.56,1.34.18.11.19.29.21.45.29a.39.39,0,0,1,.21.26,2.3,2.3,0,0,1,.12.86,11.17,11.17,0,0,1,0,1.42c0,.25-.15.43-.44.44a.46.46,0,0,0-.5.48.34.34,0,0,1-.17.25C23.78,50,23.69,50.51,23.38,50.75Z"/><path class="cls-97" d="M21.79,50.54c.6.11.95.71,1.56.8,0,.52,0,1,0,1.57C21.88,52.8,21.73,52.58,21.79,50.54Z"/><path class="cls-82" d="M25,46.56l-.1,0a4.06,4.06,0,0,0-2.29,0c.41-1.4,1-1.71,2.35-1.18C25.52,45.76,25.43,46.15,25,46.56Z"/><path class="cls-98" d="M25,46.56c0-.39,0-.78,0-1.17,0-.55.08-1.11.78-1.24l.07,0a2.51,2.51,0,0,1,.13,2.46.57.57,0,0,1-.94-.09Z"/><path class="cls-99" d="M40.88,35.41a2.33,2.33,0,0,0-.38-.08c-.38,0-.63-.87-1-.28a1.72,1.72,0,0,0,0,1.7,1,1,0,0,0,.62.46c-.19.57-.89.88-.81,1.59-.77.2-.76.83-.81,1.43-.2.16-.35.42-.68.28a1,1,0,0,1-.29-.11c-.05-.59-.52-.67-.94-.79A.79.79,0,0,0,35.6,39a.6.6,0,0,1-.57-.21,1.69,1.69,0,0,1,.68-2,13.74,13.74,0,0,0,3-3c.19-.3.5-.18.72-.31a5.11,5.11,0,0,1,.78,0c.78,0,1.16.33,1,1.15A1,1,0,0,1,40.88,35.41Z"/><path class="cls-100" d="M44.05,41l-.76.05a.75.75,0,0,1,.71-.84.33.33,0,0,1,.3.16C44.48,40.67,44.53,40.93,44.05,41Z"/><path class="cls-101" d="M44.06,39.41l.74,0a.39.39,0,0,1,.32.2.58.58,0,0,1-.13.87.65.65,0,0,1-.89-.25H44Z"/><path class="cls-102" d="M32.9,43.59a2.66,2.66,0,0,1-2-1.07A2.13,2.13,0,0,0,29,41.79a14.26,14.26,0,0,1-3.26-.2l0-.57a.76.76,0,0,1-.21-1c.21-.3.53-.26.84-.22.16.08.35,0,.51.18.68.76.69.75,1.1-.16a3.47,3.47,0,0,1,.79-.07c.66.24.65-.62,1.13-.69A6.28,6.28,0,0,1,31.44,39c1.05.08,2.09-.12,3.14,0a2.24,2.24,0,0,1,.37,1.7A3,3,0,0,1,32.9,43.59Z"/><path class="cls-95" d="M24.9,40.25c-1.65,0-2.42-1.18-3.14-2.41a1.21,1.21,0,0,1,0-.18c.48-.41,1-.18,1.54-.15a22.48,22.48,0,0,1,1.88,1.77.93.93,0,0,1,0,.83A.36.36,0,0,1,24.9,40.25Z"/><path class="cls-103" d="M21.76,37.84c-.69-.1-1-.7-1.47-1.11a1.66,1.66,0,0,0-.93-.51c-.29-.25-.42-.53-.16-.88a1.17,1.17,0,0,1,.91-.31,1.41,1.41,0,0,1,.94.21c.18.25.33.56.65.66.59.18.46.64.47,1.06a.73.73,0,0,1-.38.78Z"/><path class="cls-81" d="M19.35,35.45c0,.26,0,.51,0,.77a.87.87,0,0,1-.8-.77v-.16a.48.48,0,0,1,.67-.11A.28.28,0,0,1,19.35,35.45Z"/><path class="cls-81" d="M18.56,35.45a.88.88,0,0,1-.77-.76.34.34,0,0,0,0-.1c.29-.25.58-.53,1-.18a.76.76,0,0,1-.21,1Z"/><path class="cls-95" d="M25.72,40.21V41a.93.93,0,0,1-.82-.77l.06-.06C25.23,39.93,25.49,39.71,25.72,40.21Z"/><path class="cls-104" d="M32.9,43.59a1.78,1.78,0,0,1,.85-1.33A1.5,1.5,0,0,0,34.51,41c.35-.51.91-.52,1.44-.58s1.23.39,1.75-.21l.76,0,0,.76c.57.38.41,1,.42,1.53A3,3,0,0,0,39.28,44a1.41,1.41,0,0,1,0,.2c-1,.85-.74,2-.8,3.11a1.08,1.08,0,0,0-.85.86c-.64,0-1.34-.08-1.55.78a5.08,5.08,0,0,1-1.57-.38,1.86,1.86,0,0,1-1.11-.25,1.45,1.45,0,0,1,0-.8c.82-1,.78-1.47-.27-2.81-.14-.18-.28-.31-.26-.55Z"/><path class="cls-105" d="M33.66,52.11A.88.88,0,0,1,33,53a1.45,1.45,0,0,0-.86.75c-.43.57-1,.45-1.6.35-.35-.06-.45-.42-.39-.78a5.15,5.15,0,0,1,1-3c.28,0,.57-.18.86,0A23.11,23.11,0,0,0,33.66,52.11Z"/><path class="cls-106" d="M30.51,52.9c.18,1,.94.8,1.61.81,0,.52,0,1,0,1.56l-.74,0a5.15,5.15,0,0,0-2-.39c-.65,0-1-.3-.68-1,.26-.48.83-.69,1.07-1.19A.57.57,0,0,1,30.51,52.9Z"/><path class="cls-107" d="M33.66,52.11c-1.43,0-1.46,0-1.56-1.58,0-.05,0-.1,0-.15a.87.87,0,0,1,.73-.23,1.24,1.24,0,0,1,.76.14.28.28,0,0,1,.13.27Z"/><path class="cls-108" d="M33.72,48.14a1.08,1.08,0,0,1,.78.41c-.12.72.38,1.66-.74,2l-.09,0A2.06,2.06,0,0,1,33.72,48.14Z"/><path class="cls-109" d="M45.66,42.59c-.22,1.09.78,1.57,1.16,2.36l-1.93,0a.92.92,0,0,0-.82-.81v-.75c.12-.17.3-.27.38-.48C44.77,42.06,44.93,42,45.66,42.59Z"/><path class="cls-44" d="M39.28,44c-1.11-.78-.73-1.94-.79-3,1,.17.72,1,.81,1.58S39.29,43.51,39.28,44Z"/><path class="cls-110" d="M25,55.34l-.75-.08a38,38,0,0,1,0-4.27.57.57,0,0,1,1.09.15c0,.6.43.61.71.84a4,4,0,0,1,.09,1.61A2.44,2.44,0,0,1,25,55.34Z"/><path class="cls-111" d="M25.72,52.13c-.8,0-.79-1.06-1.51-1.14l-.1-.29c-.45-.33-.3-.65,0-1h0a.85.85,0,0,1,.86-.4c.33,0,.69-.14,1,.17a6.3,6.3,0,0,1,.14,1C26,51.09,26.44,51.77,25.72,52.13Z"/><path class="cls-97" d="M24.15,49.75c0,.32,0,.64,0,1l-.73,0C23.36,50.21,23.54,49.82,24.15,49.75Z"/><path class="cls-112" d="M26.58,56.88l0-.72a1.18,1.18,0,0,1,.07-.2,3,3,0,0,1,2.16-.09.37.37,0,0,1,.17.31l0,.72Z"/><path class="cls-113" d="M45.66,42.59c-.65,0-.94.77-1.59.78,0-.8,0-1.59,0-2.39l.05-.78.74,0c.58,0,.44.5.43.73a1,1,0,0,0,.37.87Z"/><path class="cls-114" d="M30.52,56.11l-1.58.07a.44.44,0,0,0,0-.1.65.65,0,0,1-.13-1,3.19,3.19,0,0,1,1.53-.16c.58,0,.64.48.21,1.15Z"/><path class="cls-115" d="M30.53,56.08c-.23-.92-1-.73-1.61-.73-.61.62-1.37.3-2.07.37a1.15,1.15,0,0,0-1.11.33l0,.1L25,56.09c0-.25,0-.5,0-.75.08-.64-.19-1.45.8-1.65a.87.87,0,0,1,.79-.35c.48,0,1-.08,1.45,0a1.43,1.43,0,0,1,.86.18.4.4,0,0,1,.14.31c.09.71.64.72,1.17.74s1,.1,1.18.76c0,.25,0,.51-.05.77Z"/><path class="cls-116" d="M25.74,56.05c0-.54.29-.76.81-.71.3.25.34.49,0,.73v.09Z"/><path class="cls-117" d="M45.67,33a8.87,8.87,0,0,1,1.46.22c.41.12.83.4.75.91s-.55.48-.94.52c-.17,0-.33,0-.5,0a.77.77,0,0,0-.51-.33c-.7-.15-.71-.61-.54-1.16A.29.29,0,0,1,45.67,33Z"/><path class="cls-118" d="M44.45,34.63a1.72,1.72,0,0,1-.22-2c.26-.58.9-.41,1.42-.44,0,.24,0,.48,0,.73l0,.07c-.64.34-.13,1.23-.76,1.56Z"/><path class="cls-119" d="M44.89,34.6c.06-.61-.32-1.44.76-1.56,0,.66.83.9.79,1.58Z"/><path class="cls-120" d="M44.8,39.38c0-.49.25-.81.8-.79l.1,0c.29.31.46.68.1,1s-.65.11-.9-.19Z"/><path class="cls-121" d="M44.9,39.43c.56,0,.75-.33.8-.82,1,.17.64,1,.73,1.57h0a6.29,6.29,0,0,0-.76,1l0,.57c-1-.16-.74-1-.8-1.6Z"/><path class="cls-122" d="M45.68,41.21c0-.55.11-1,.76-1A1,1,0,0,1,45.68,41.21Z"/><path class="cls-123" d="M53.6,42.49c0-.77,0-1.54,0-2.32l0-.75.72-.06c0,.28,0,.57,0,.85.55.4.33,1,.39,1.53a1.35,1.35,0,0,1-.21.92c-.25.21-.51.39-.84.16A.43.43,0,0,1,53.6,42.49Z"/><path class="cls-124" d="M52.79,38.63a.82.82,0,0,1-.77-.85c0-.25,0-.57.41-.55s.34.29.35.52S52.79,38.34,52.79,38.63Z"/><path class="cls-125" d="M40.86,34.63c-.18-.93-.91-.8-1.58-.8a1,1,0,0,1-.9.21c-.76-.89,0-1.41.49-2a2.11,2.11,0,0,0,1.24-.89c.34-.16.57.05.81.23l.74,0c.32.81,1.35,1.25,1.17,2.35a1.52,1.52,0,0,1-.35.84h0A1,1,0,0,1,40.86,34.63Z"/><path class="cls-126" d="M40.92,31.41l-.85,0-.17-.05c-.68-.66-1.54-.23-2.31-.35-.35.06-.49-.21-.69-.41h0c-.3-.23-.53-.53-.82-.77h0a5.57,5.57,0,0,0-.85-.76L34.52,29c.1-.68.61-.75,1.16-.75h1.17c.49,1,1.57,1.18,2.44,1.53A2.25,2.25,0,0,1,40.92,31.41Z"/><path class="cls-127" d="M42.48,34.64a2.22,2.22,0,0,0-.54-1.8c-.36-.37-.25-.91-.28-1.39a1.86,1.86,0,0,1,1.57,1.74C43.3,33.79,43.36,34.48,42.48,34.64Z"/><path class="cls-128" d="M40.86,34.63h1.62c-.17,1-1,.73-1.6.77C40.88,35.15,40.87,34.89,40.86,34.63Z"/><path class="cls-129" d="M54.39,42.53l0-.74c.2-.19.36-.45.69-.4.9.12,1.32-.39,1.54-1.16l.16,0c.67.06.89-.82,1.56-.76l.06,2.38v.79l-.06.75a10.09,10.09,0,0,1-.77.83h0c-.2.22-.39.44-.73.3a.66.66,0,0,1-.29-.17,4.35,4.35,0,0,1-.23-.78c0-.93-.76-.39-1.16-.54a1.16,1.16,0,0,1-.7-.17A.47.47,0,0,1,54.39,42.53Z"/><path class="cls-130" d="M55.2,40.2a1,1,0,0,1,1.09-.9c.58,0,.45.53.51.89v0c-.07.14-.24.16-.31.32-.43.92-.57,1-1.55.59C54.71,40.72,54.91,40.45,55.2,40.2Z"/><path class="cls-131" d="M55.2,40.2l0,.82c.32.27.27.52,0,.76h-.78V40.21Z"/><path class="cls-132" d="M52.79,41c0,.52-.18.83-.73.85A.69.69,0,0,1,52.79,41Z"/><path class="cls-133" d="M54.39,47.43l-.75-.09a2.77,2.77,0,0,1-.79-.81h0l0-.78a.84.84,0,0,1,.89-.36c1.06.16,1.24.51.92,1.77A.43.43,0,0,1,54.39,47.43Z"/><path class="cls-134" d="M52.84,45V43.4a.6.6,0,0,1,.77-.29.41.41,0,0,1,.26.24,2,2,0,0,1,0,1.62.46.46,0,0,1-.25.26A.59.59,0,0,1,52.84,45Z"/><path class="cls-135" d="M52.84,45l.72,0c.55.2.32.48.07.75h-.75Z"/><path class="cls-136" d="M53.59,43.34l-.75.06a.8.8,0,0,1,.76-.91s0,.08,0,.12C53.88,42.86,54.1,43.11,53.59,43.34Z"/><path class="cls-137" d="M56.79,47.36l0,.75-2.35,0,0-.72,0-.11A2,2,0,0,1,56.79,47.36Z"/><path class="cls-70" d="M52.85,46.53c.58,0,.78.29.79.81h-.76Z"/><path class="cls-138" d="M59.16,46.52l-.75.06a.9.9,0,0,0-.82-.8.8.8,0,0,1-.76-.74c.21-.56.49-.32.76-.07C59.07,45,59.15,45.11,59.16,46.52Z"/><path class="cls-139" d="M57.59,45l-.76.07,0-.08c-.26-.28-.49-.55.06-.76l.75,0Z"/><path class="cls-140" d="M57.6,44.18c-.06-.57.2-.84.77-.83A.78.78,0,0,1,57.6,44.18Z"/><path class="cls-141" d="M56.79,47.36l-2.37,0c-.07-.62.24-1.43-.79-1.57L53.56,45l.08,0a1.08,1.08,0,0,1,1.43-.29.64.64,0,0,1,.32.13,2.05,2.05,0,0,1,.21.77.89.89,0,0,0,.41,1l.75.07c.35.23.35.47,0,.72Z"/><path class="cls-142" d="M56.78,47.33l0-.72c.51,0,.82.17.83.71Z"/><path class="cls-143" d="M56,46.54c-.56.06-.89-.12-.79-.75.24-.34.5-.35.77,0Z"/><path class="cls-144" d="M56,45.76l-.77,0V45c.08-.39.31-.47.65-.31A.33.33,0,0,1,56,45Z"/><path class="cls-145" d="M56.84,44.2l-.06.76L56,45,56,45c-.28-.29-.49-.59-.13-1s.63-.13.9.14Z"/><path class="cls-146" d="M18.54,34.66l-.74-.07c0-1.15,0-2.3,0-3.45,0-.42-.06-.9.39-1.14a1,1,0,0,1,1.25.29c.41.43,1.27.33,1.35,1.15-.06.46-.5.55-.77.81-.49.46-.88.91-.38,1.61.23.32.09.65-.06,1a.77.77,0,0,1-.3.11C18.93,35.08,18.77,34.8,18.54,34.66Z"/><path class="cls-147" d="M19.39,34.62a2.45,2.45,0,0,0-.08-.29c-.26-.55-1-1-.57-1.71a2.62,2.62,0,0,1,2-1.18l.17,0a1,1,0,0,0,.85.36.85.85,0,0,1,.74.44l0,0c.17.19.46.32.32.67a1.38,1.38,0,0,1-.08.29,1,1,0,0,1-.69.22,1.66,1.66,0,0,0-1.76,1.43,1.58,1.58,0,0,1-.31.09C19.73,35,19.48,35,19.39,34.62Z"/><path class="cls-146" d="M22.54,32.26c-.65,0-1.39.13-1.59-.8l.84-.06.74.06C22.53,31.73,22.54,32,22.54,32.26Z"/><path class="cls-148" d="M30.53,29.65a18.35,18.35,0,0,0-.67,1.74,2,2,0,0,1-1.77,1.69c-.88.1-.69.88-.73,1.48,0,.41-.24.47-.57.41l-.31-.08c-.36-.21-.23-.8-.71-.92,0,0,0-.1,0-.15a2,2,0,0,1,.8-2c.94-.49,2-.82,2.39-2h0c.19-.18.34-.44.67-.4S30.26,29.4,30.53,29.65Z"/><path class="cls-149" d="M25,33.81h.78v0c.28.24.52.53.82.77h0c.18.24.45.43.37.79a1.33,1.33,0,0,1-.18.87,1,1,0,0,1-1.58-.09,4.06,4.06,0,0,0-1.63-1.08,2.18,2.18,0,0,1-1.3-1.21.78.78,0,0,1,.25-.84l.12,0a.93.93,0,0,1,1.52,0h0C24.44,33.27,24.66,33.59,25,33.81Z"/><path class="cls-150" d="M24.13,33.05l-1.52,0c0-.25,0-.51-.05-.77C23.21,32.26,24,32.07,24.13,33.05Z"/><path class="cls-151" d="M25,33.81a.75.75,0,0,1-.83-.76A.78.78,0,0,1,25,33.81Z"/><path class="cls-93" d="M30.53,29.65l-.8.2c-.29-.26-.36-.51,0-.75a.81.81,0,0,0,.76-.86l.08-.76.76,0A2.52,2.52,0,0,1,30.53,29.65Z"/><path class="cls-86" d="M29.75,29.1l0,.75h-.79A.77.77,0,0,1,29.75,29.1Z"/><path class="cls-148" d="M28.12,34.64a1.55,1.55,0,0,0,1.65-1,1,1,0,0,1,1-.61,4.22,4.22,0,0,0,2.85-1.18,1.12,1.12,0,0,1,1.6-.09,2,2,0,0,0,1.57.43.36.36,0,0,1,.3.15.9.9,0,0,1,.12.84,1.28,1.28,0,0,0-.94.91c-.35.07-.64.1-.59.64a1.19,1.19,0,0,1-.24.85,1,1,0,0,1-.34.14,3.62,3.62,0,0,0-1.84.71c-.6.45-1.5.16-2.26.17s-1.51.17-2-.69c-.07-.12-.56-.17-.86-.23a.51.51,0,0,1-.29-.23A.62.62,0,0,1,28.12,34.64Z"/><path class="cls-152" d="M28.12,34.64v.79c-.54.61-1.05.48-1.55,0v-.77l.8,0Z"/><path class="cls-63" d="M36.9,30.63h.81a1.1,1.1,0,0,1,.38,1,.78.78,0,0,1-.32.9c-.31.18-.62,0-.85-.28l-.09,0C36.85,31.69,36.88,31.16,36.9,30.63Z"/><path class="cls-153" d="M36.09,29.86a.75.75,0,0,1,.82.77A.78.78,0,0,1,36.09,29.86Z"/><path class="cls-154" d="M35.25,29.09a.78.78,0,0,1,.85.76A.78.78,0,0,1,35.25,29.09Z"/><path class="cls-155" d="M32.88,44.14a2.3,2.3,0,0,1,1.64,2.3c0,.53-.21.89-.8.92l-.17,0c-.44-.66-1.27-.14-1.77-.59-.16-.26-.06-.53,0-.79.13-.58-.37-1.3.37-1.75Z"/><path class="cls-156" d="M29.72,44.16l1.19.06c.92.56.15,1-.09,1.49a.53.53,0,0,1-.18.28,2.23,2.23,0,0,1-.77.19c-.76-.26-.47.69-.92.75A3.21,3.21,0,0,1,28,47c-.82.09-1.14-.32-1.07-1.1.07-.52-.22-1.23.7-1.3.64-.12,1.39.38,1.91-.35Z"/><path class="cls-157" d="M28.13,45a.72.72,0,0,0-.81.78.69.69,0,0,1-1,.2,1.52,1.52,0,0,1,.2-1.79c.13-.75.71-.82,1.29-.76s1.6-.32,1.9.76l0,.07C29.35,44.78,28.5,44.36,28.13,45Z"/><path class="cls-158" d="M30.51,45.74l.4-1.52,1.2,0a2.88,2.88,0,0,0,.34.68c.5.56.22.78-.35.9A1,1,0,0,1,30.51,45.74Z"/><path class="cls-159" d="M26.53,44.16l0,1.64c.28.25.48.52.24.91a.83.83,0,0,1-1,0,1.63,1.63,0,0,0-.11-.17c0-.8,0-1.6.05-2.4Z"/><path class="cls-160" d="M25.76,49.75H25c-.33-.26-.31-.53,0-.82L25,47.41c.17-.24.33-.49.69-.37a.55.55,0,0,1,.36.11c.75.75.74.75,1.18-.13a1.64,1.64,0,0,1,.85,0,.63.63,0,0,1,.3.21,2.63,2.63,0,0,1,.26,1.07.87.87,0,0,1-.69,1c-.21,0-.26.23-.32.4a.41.41,0,0,1-.25.23,2.3,2.3,0,0,1-.86.12C26.14,50.22,26,49.94,25.76,49.75Z"/><path class="cls-161" d="M24.91,48.93l0,.82h-.78A.73.73,0,0,1,24.91,48.93Z"/><path class="cls-162" d="M25.74,47.35l-.76.06c0-.29,0-.57,0-.85l.76,0,.05,0C26,46.84,26.25,47.11,25.74,47.35Z"/><path class="cls-163" d="M36.08,33.82a.82.82,0,0,1,.8-.8,2.76,2.76,0,0,1,1.59.8h.81a13.75,13.75,0,0,1-3.38,3.55,1.33,1.33,0,0,0-.58,1.19c-.46.55-1.06.58-1.22,0-.1-.36-.33-.39-.49-.58a1.11,1.11,0,0,1-.27-.92c.1-.7.34-1.23,1.19-1.22a1,1,0,0,0,.76-.43h0C35.94,35.07,35.49,34.18,36.08,33.82Z"/><path class="cls-164" d="M33.74,37.76c.68,0,.87.9,1.58.81.62.09,1.39-.08,1.58.83.26.26.52.54.8.78v0c-.19,1.09-1,.57-1.58.61-.66-.33-1-1-1.62-1.41l-3.21,0a.54.54,0,0,1-.18-.8c.41-.54,1-.3,1.55-.39.29,0,.61.08.79-.27A.32.32,0,0,1,33.74,37.76Z"/><path class="cls-165" d="M37.7,40.18a.76.76,0,0,1-.8-.78A.77.77,0,0,1,37.7,40.18Z"/><path class="cls-166" d="M24.92,39.43a2.52,2.52,0,0,1-1.59-1.59c-.15-.21-.43-.38-.29-.71a1.4,1.4,0,0,1,.09-.29,1.19,1.19,0,0,1,1.64.24c1,1,1.49,1,2.43-.21a.59.59,0,0,1,.34-.18c1-.27,1.18.7,1.7,1.15.14.59.21,1.15-.67,1.17-.27,0-.59-.09-.76.23s.13.45.29.63,0,.24.06.35c-.07.44-.28.72-.76.73a.81.81,0,0,1-.88-.74C26.18,39.56,25.3,40,24.92,39.43Z"/><path class="cls-167" d="M34.5,39.4c1.47,0,1.5.06,1.62,1.41a3.28,3.28,0,0,1-1.61.18Z"/><path class="cls-168" d="M28.16,40.22c-.47-.09-.79-.32-.77-.85s.32-.69.76-.75c.17.53,1,.14,1.09.82a.6.6,0,0,1-.32.74Z"/><path class="cls-169" d="M31.35,38.65l-.06.72-1.54.07a.43.43,0,0,1-.31-.27c-.2-.64-.07-.92.69-.9a4.35,4.35,0,0,1,1,.08A.34.34,0,0,1,31.35,38.65Z"/><path class="cls-170" d="M24.92,39.43c.65,0,1.43-.24,1.6.78h-.8l-.76,0C25,39.93,24.94,39.68,24.92,39.43Z"/><path class="cls-171" d="M28.92,40.18l0-.77c.21-.49.48-.3.76-.07a.31.31,0,0,0,.05.1A.75.75,0,0,1,28.92,40.18Z"/><path class="cls-119" d="M23.31,37.05l0,.79-1.54-.1c0-.25,0-.51,0-.76A.9.9,0,0,1,23.31,37.05Z"/><path class="cls-172" d="M23.31,37.05,21.8,37c0-.65-.89-.84-.86-1.53,0-.06,0-.12,0-.18a1.13,1.13,0,0,1,.9-.26c.86-.07,1.32.59,1.8,1.11.26.28,0,.64-.29.86Z"/><path class="cls-147" d="M20.94,35.45l-.75,0c-.33-.25-.35-.5,0-.77l.05,0c.26-.27.56-.48.89-.18s.23.67-.09,1Z"/><path class="cls-146" d="M20.16,34.64l0,.77-.84,0h0c-.25-.25-.36-.5,0-.77l.06-.06Z"/><path class="cls-103" d="M19.33,34.68c0,.26,0,.51,0,.77l-.77,0c0-.26,0-.52,0-.77Z"/><path class="cls-173" d="M33.72,48.14c0,.8,0,1.6,0,2.4H32.9A3.17,3.17,0,0,1,32.63,48c0-.31-.12-.66.23-.86s.61,0,.84.28h0Z"/><path class="cls-174" d="M27.34,49.75c-.25-.77.84-.74.82-1.38.16-.32.27-.65.77-.59s.5-.33.64-.63a2,2,0,0,1,.34-.12,2.25,2.25,0,0,1,1.51.13.79.79,0,0,1,.2.34c.06,1,.32,2.11-.26,3.1-.06.62.17,1.34-.69,1.66-.22.08-.13.42-.16.64l-.77.08h-.15c-.3-.64-.89-1.12-1.08-1.82-.09-.34-.39-.22-.6-.3C27.7,50.5,27.67,50.05,27.34,49.75Z"/><path class="cls-175" d="M31.36,50.6l-.06-3.21c.21-.5.58-.38.95-.24a3.88,3.88,0,0,1-.14,3.39h0Z"/><path class="cls-115" d="M29.74,53a.8.8,0,0,1-.75.82l-.08-.09c-.29-.27-.46-.6-.16-.94s.67-.16,1,.1C29.73,52.91,29.73,53,29.74,53Z"/><path class="cls-176" d="M32.11,50.54l0-3.14c-.2-.3-.5-.61,0-.87.57.2,1.6-.47,1.58.84-.58,0-.77.4-.77.93l0,2.24Z"/><path class="cls-177" d="M26.56,53.7h-.81l0-1.56.06-1.55c.21-.36.48-.47.84-.21a1.22,1.22,0,0,1,.32,1c0,.51,0,1,0,1.56A.82.82,0,0,1,26.56,53.7Z"/><path class="cls-178" d="M26.55,50.56l-.77,0c0-.28,0-.55,0-.83l.81,0c.23.21.41.43.15.73Z"/><path class="cls-179" d="M26.55,56.07v-.73h2.37v.73Z"/><path class="cls-180" d="M26.57,51.35l0-.79h0c.26-.27.52-.54.8-.79h0a.78.78,0,0,1,.83.77,2.85,2.85,0,0,1-.05,3.18H26.56c0-.26,0-.52,0-.78A1,1,0,0,0,26.57,51.35Z"/><path class="cls-181" d="M28.12,53.7c0-1.06,0-2.12.05-3.18a2.13,2.13,0,0,1,1.55,2.35c-.49.06-.82.28-.81.84Z"/><path class="cls-182" d="M53.59,43.34l0-.73.77-.08,0,.1c.38.27.33.62.17,1-.4.29-.69.07-1-.2Z"/><path class="cls-183" d="M38.47,33.82a1.43,1.43,0,0,0-.28.07c-1.23.6-1.23.6-1.31-.87l0-.76c.63.1.84-.23.81-.8.51-.61,1.12-.41,1.73-.23a.73.73,0,0,1-.15,1C39.37,32.93,38.47,33.14,38.47,33.82Z"/><path class="cls-184" d="M39.31,32.22v-.78c.26-.5.52-.25.78,0h0A.74.74,0,0,1,39.31,32.22Z"/><path class="cls-185" d="M40.08,31.44H39.3l-1.57,0,0-.82H39.1A.88.88,0,0,1,40.08,31.44Z"/><path class="cls-186" d="M56.74,44.14c-.51,0-.72.34-.77.81l-.74.08,0-.09c-.63-.44-.46-1-.25-1.57a.51.51,0,0,1,.3-.26c.54,0,1.12-.31,1.52.31Z"/><path class="cls-187" d="M55.19,41.78c0-.25,0-.51,0-.76.65,0,.88-.86,1.57-.81C56.69,41.47,56.49,41.66,55.19,41.78Z"/><path class="cls-188" d="M56.76,43.42l-1.52-.07c-.54-.2-.31-.47-.06-.74C55.84,42.62,56.58,42.47,56.76,43.42Z"/><path class="cls-189" d="M55.18,42.61l.06.74-.08.07c-.28.28-.56.46-.77-.06l0-.73Z"/><path class="cls-190" d="M54.39,43.36l.77.06,0,1.52-1.55,0V43.42Z"/><path class="cls-191" d="M21,35.38a.93.93,0,0,0-.8-.79c-.06-.22-.11-.45-.18-.67-.22-.72.13-1,.79-1l1.67.08.09.76a2.31,2.31,0,0,1-.81,1.6Z"/><path class="cls-152" d="M26.56,34.61a.7.7,0,0,1-.82-.77A.7.7,0,0,1,26.56,34.61Z"/><path class="cls-192" d="M21.77,35.41c0-.67-.33-1.5.81-1.6a9.92,9.92,0,0,1,3.06,1.87,1.26,1.26,0,0,0,.91.52h.14a2.15,2.15,0,0,0,.64.67V37c-.49,1.68-1.5,2-2.76.8C24.22,37.5,24,37,23.4,37,23.15,36.16,22.4,35.85,21.77,35.41Z"/><path class="cls-120" d="M28.94,37.81c-.65,0-.94-.8-1.61-.79h0c-.25-.27-.52-.54-.8-.79l0,0,0-.82,1.55,0h0c1.28,1.25,2.86,1.33,4.5,1.21.39,0,.86-.12,1.08.39l0,.74-.05.08c-.71.64-1.59.21-2.36.37a4.77,4.77,0,0,0-1.41,0A1,1,0,0,1,28.94,37.81Z"/><path class="cls-193" d="M33.71,37H30.13a2,2,0,0,1-2-1.59,3,3,0,0,1,1.76.5A3.3,3.3,0,0,0,33,36a4.49,4.49,0,0,1,2.26-.54.89.89,0,0,1-.72.84A1.4,1.4,0,0,0,33.71,37Z"/><path class="cls-194" d="M36.08,33.82c0,.64.22,1.43-.8,1.58C35.32,34.76,35.17,34,36.08,33.82Z"/><path class="cls-195" d="M32.12,46.53l0,.87H31.3c-.19-.1-.27-.31-.54-.39-.74-.22-.77-.52-.23-1.21l0,0,1.59,0Z"/><path class="cls-196" d="M28.09,47.36l-.74,0c-.29.28-.6.52-1,.15s-.07-.68.16-1l0-.75.76,0a.78.78,0,0,0,.84.83C28.41,46.86,28.65,47.14,28.09,47.36Z"/><path class="cls-197" d="M30.53,45.78c0,.67.83.92.77,1.6H29.74c-.36-.14-.41-.44-.4-.78s.16-.59.41-.8Z"/><path class="cls-158" d="M28.13,45c.19-1,1-.73,1.62-.74C29.5,45.13,28.77,45,28.13,45Z"/><path class="cls-198" d="M29.73,46.56v.81h0a1,1,0,0,1-1.61,0h0c0-.26.05-.52.07-.78l.76,0A.47.47,0,0,1,29.73,46.56Z"/><path class="cls-199" d="M29.73,46.56l-.81,0a.77.77,0,0,1,.83-.74C29.74,46.05,29.73,46.3,29.73,46.56Z"/><path class="cls-200" d="M26.52,46.55a.74.74,0,0,0,.83.83c-.08.42-.29.72-.76.73s-.75-.3-.85-.76l0-.79Z"/><path class="cls-197" d="M28.13,47.35l1.61,0c-.13,1-1,.74-1.58,1Z"/><path class="cls-201" d="M27.35,49.76c0,.58-.26.8-.8.79l0-.78Z"/><path class="cls-202" d="M31.31,37.82l2.38,0c0,.53-.38.72-.87.75l-1.47.06-.05-.07C31,38.32,31,38.07,31.31,37.82Z"/><path class="cls-203" d="M31.31,37.82v.76c-.6.12-1.41-.21-1.6.76l-.76.07a.8.8,0,0,1-.79-.79.86.86,0,0,0,.79-.81Z"/><path class="cls-204" d="M26.57,51.35c.46.06.73.28.73.77a.75.75,0,0,1-.72.8Z"/><path class="cls-166" d="M26.53,36.23a.76.76,0,0,1,.8.79A.8.8,0,0,1,26.53,36.23Z"/></g></g></svg>