<svg xmlns="http://www.w3.org/2000/svg" viewBox="0 0 74 74"><defs><style>.cls-1{fill:#1e2223;}.cls-2{fill:#cecece;}.cls-3{fill:#5c3f2b;}.cls-4{fill:#684a35;}.cls-5{fill:#6f5340;}.cls-6{fill:#a9a8a8;}.cls-7{fill:#afafaf;}.cls-8{fill:#786d64;}.cls-9{fill:#614736;}.cls-10{fill:#bfbfbf;}.cls-11{fill:#8c837d;}.cls-12{fill:#a5a5a5;}.cls-13{fill:#7f7e7e;}.cls-14{fill:#acacac;}.cls-15{fill:#b6b6b6;}.cls-16{fill:#4d392b;}.cls-17{fill:#573c28;}.cls-18{fill:#68503e;}.cls-19{fill:#563924;}.cls-20{fill:#6d4f3a;}.cls-21{fill:#5c4c3f;}.cls-22{fill:#6f5644;}.cls-23{fill:#66574b;}.cls-24{fill:#7e6d61;}.cls-25{fill:#634a37;}.cls-26{fill:#775f4c;}.cls-27{fill:#b3b3b3;}.cls-28{fill:#8b8b8b;}.cls-29{fill:#989898;}.cls-30{fill:#a7a7a7;}.cls-31{fill:#c7c7c7;}.cls-32{fill:#695340;}.cls-33{fill:#746254;}.cls-34{fill:#7a6d63;}.cls-35{fill:#624c3c;}.cls-36{fill:#68574b;}.cls-37{fill:#684833;}.cls-38{fill:#81634f;}.cls-39{fill:#786252;}.cls-40{fill:#715e4f;}.cls-41{fill:#574433;}.cls-42{fill:#635040;}.cls-43{fill:#5e4938;}.cls-44{fill:#816e61;}.cls-45{fill:#5a3821;}.cls-46{fill:#725e4f;}.cls-47{fill:#5f402b;}.cls-48{fill:#907867;}.cls-49{fill:#938175;}.cls-50{fill:#8c8c8c;}.cls-51{fill:#828282;}.cls-52{fill:#a38d7e;}.cls-53{fill:#857f7a;}.cls-54{fill:#a59488;}.cls-55{fill:#818181;}.cls-56{fill:#765f4f;}.cls-57{fill:#47392f;}.cls-58{fill:#4e321f;}.cls-59{fill:#503019;}.cls-60{fill:#8d8d8d;}.cls-61{fill:#b5b4b3;}.cls-62{fill:#524e4a;}.cls-63{fill:#756253;}.cls-64{fill:#534032;}.cls-65{fill:#585858;}.cls-66{fill:#20150d;}.cls-67{fill:#4c3019;}.cls-68{fill:#482f1b;}.cls-69{fill:#3c1f06;}.cls-70{fill:#452811;}.cls-71{fill:#53351e;}.cls-72{fill:#3e2208;}.cls-73{fill:#4d2f1a;}.cls-74{fill:#8f8985;}.cls-75{fill:#8f7a6d;}.cls-76{fill:#d4d4d4;}.cls-77{fill:#6f6964;}.cls-78{fill:#4f3d30;}.cls-79{fill:#5a3e2a;}.cls-80{fill:#b1b1b1;}.cls-81{fill:#735440;}.cls-82{fill:#896c55;}.cls-83{fill:#7d5c46;}.cls-84{fill:#8c6c56;}.cls-85{fill:#a1a18a;}.cls-86{fill:#958161;}.cls-87{fill:#746456;}.cls-88{fill:#6b5a4c;}.cls-89{fill:#939291;}.cls-90{fill:#9f9d97;}.cls-91{fill:#544b3e;}.cls-92{fill:#6c6057;}.cls-93{fill:#6c645e;}.cls-94{fill:#4e2f17;}.cls-95{fill:#472e1b;}.cls-96{fill:#442610;}.cls-97{fill:#593921;}.cls-98{fill:#4d3627;}.cls-99{fill:#4d2c16;}.cls-100{fill:#624834;}.cls-101{fill:#694f3c;}.cls-102{fill:#88705f;}.cls-103{fill:#8a7160;}.cls-104{fill:#502e13;}.cls-105{fill:#d3cecc;}.cls-106{fill:#a5a3a2;}.cls-107{fill:#4d2d15;}.cls-108{fill:#472811;}.cls-109{fill:#655a52;}.cls-110{fill:#867366;}.cls-111{fill:#816551;}.cls-112{fill:#614737;}.cls-113{fill:#6f4f39;}.cls-114{fill:#7e6350;}.cls-115{fill:#4f4f4f;}.cls-116{fill:#5c5c5c;}.cls-117{fill:#918074;}.cls-118{fill:#9a9897;}.cls-119{fill:#676361;}.cls-120{fill:#4f321c;}.cls-121{fill:#412814;}.cls-122{fill:#695444;}.cls-123{fill:#8c7463;}.cls-124{fill:#775843;}.cls-125{fill:#674934;}.cls-126{fill:#5a3d28;}.cls-127{fill:#65462f;}.cls-128{fill:#929292;}.cls-129{fill:#484746;}.cls-130{fill:#111;}.cls-131{fill:#26211d;}.cls-132{fill:#070200;}.cls-133{fill:#473528;}.cls-134{fill:#463427;}.cls-135{fill:#331803;}.cls-136{fill:#3c210b;}.cls-137{fill:#421d01;}.cls-138{fill:#523826;}.cls-139{fill:#62432d;}.cls-140{fill:#4c2d16;}.cls-141{fill:#371c08;}.cls-142{fill:#4a2e19;}.cls-143{fill:#5f3e27;}.cls-144{fill:#765d4d;}.cls-145{fill:#cbcaca;}.cls-146{fill:#b9b5b3;}.cls-147{fill:#615e5b;}.cls-148{fill:#b4b3b2;}.cls-149{fill:#bcbcbc;}.cls-150{fill:#a29f9d;}.cls-151{fill:#62412a;}.cls-152{fill:#785e4a;}.cls-153{fill:#866c59;}.cls-154{fill:#7e624f;}.cls-155{fill:#795844;}.cls-156{fill:#785d4b;}.cls-157{fill:#7b5c46;}.cls-158{fill:#7c5c46;}.cls-159{fill:#6a482f;}.cls-160{fill:#64452d;}.cls-161{fill:#807268;}.cls-162{fill:#cabfaf;}.cls-163{fill:#95918e;}.cls-164{fill:#a7a6a5;}.cls-165{fill:#6f5039;}.cls-166{fill:#4e2c10;}.cls-167{fill:#7d5e49;}.cls-168{fill:#62442d;}.cls-169{fill:#371c0a;}.cls-170{fill:#482e1b;}.cls-171{fill:#321805;}.cls-172{fill:#412513;}.cls-173{fill:#432711;}.cls-174{fill:#533725;}.cls-175{fill:#3b2315;}.cls-176{fill:#a8a8a8;}.cls-177{fill:#655245;}.cls-178{fill:#ccc7c4;}.cls-179{fill:#7a5e4a;}.cls-180{fill:#7f6350;}.cls-181{fill:#3c3c3c;}.cls-182{fill:#b7a394;}.cls-183{fill:#c0a695;}.cls-184{fill:#bdb0a7;}.cls-185{fill:#96867b;}.cls-186{fill:#c6b6ab;}.cls-187{fill:#381e07;}.cls-188{fill:#716d6a;}.cls-189{fill:#695f58;}.cls-190{fill:#26150a;}.cls-191{fill:#4b4743;}.cls-192{fill:#39210c;}.cls-193{fill:#36200e;}.cls-194{fill:#777;}.cls-195{fill:#707070;}.cls-196{fill:#848484;}.cls-197{fill:#4d3524;}.cls-198{fill:#5f412b;}.cls-199{fill:#60432f;}.cls-200{fill:#71503a;}.cls-201{fill:#502d12;}.cls-202{fill:#8b7261;}.cls-203{fill:#514a44;}.cls-204{fill:#70513c;}.cls-205{fill:#462303;}.cls-206{fill:#71513c;}.cls-207{fill:#553218;}.cls-208{fill:#523016;}.cls-209{fill:#795b47;}.cls-210{fill:#513014;}.cls-211{fill:#6c5442;}.cls-212{fill:#89705e;}.cls-213{fill:#866650;}.cls-214{fill:#7e5f49;}.cls-215{fill:#886955;}.cls-216{fill:#553217;}.cls-217{fill:#715744;}.cls-218{fill:#524337;}.cls-219{fill:#dcdcdc;}.cls-220{fill:#bfbdbc;}.cls-221{fill:#9a8f87;}.cls-222{fill:#e4d2c6;}.cls-223{fill:#957b67;}.cls-224{fill:#978477;}.cls-225{fill:#7f7f7f;}.cls-226{fill:#797979;}.cls-227{fill:#858484;}.cls-228{fill:#57514e;}.cls-229{fill:#7b7b7b;}.cls-230{fill:#3d342d;}.cls-231{fill:#927460;}.cls-232{fill:#5e4a3c;}.cls-233{fill:#5f4d40;}.cls-234{fill:#886c56;}.cls-235{fill:#67513f;}.cls-236{fill:#47280f;}.cls-237{fill:#5d4d42;}.cls-238{fill:#4c290d;}.cls-239{fill:#3e2007;}.cls-240{fill:#6c523d;}.cls-241{fill:#59402e;}.cls-242{fill:#472404;}.cls-243{fill:#775943;}.cls-244{fill:#75533c;}.cls-245{fill:#7b5d47;}.cls-246{fill:#8d6d59;}.cls-247{fill:#463126;}.cls-248{fill:#34261d;}.cls-249{fill:#866651;}.cls-250{fill:#81614c;}.cls-251{fill:#765941;}.cls-252{fill:#462203;}.cls-253{fill:#7c5d47;}.cls-254{fill:#523014;}.cls-255{fill:#ceb5a4;}.cls-256{fill:#5f5248;}.cls-257{fill:#ae9c8f;}.cls-258{fill:#79614f;}.cls-259{fill:#c5b3a7;}.cls-260{fill:#927a68;}.cls-261{fill:#daccc3;}.cls-262{fill:#a68b78;}.cls-263{fill:#614129;}.cls-264{fill:#aa8f7d;}.cls-265{fill:#604e40;}.cls-266{fill:#4e3017;}.cls-267{fill:#382e28;}.cls-268{fill:#3c2f24;}.cls-269{fill:#595552;}.cls-270{fill:#7c6553;}.cls-271{fill:#93725b;}.cls-272{fill:#322215;}.cls-273{fill:#8c6a52;}.cls-274{fill:#6c5f55;}.cls-275{fill:#281d16;}.cls-276{fill:#4f331c;}.cls-277{fill:#997e6a;}.cls-278{fill:#8b6c57;}.cls-279{fill:#a49080;}.cls-280{fill:#886853;}.cls-281{fill:#d8c6ba;}.cls-282{fill:#211e1b;}.cls-283{fill:#977c6a;}.cls-284{fill:#584739;}.cls-285{fill:#7c7978;}.cls-286{fill:#999593;}.cls-287{fill:#878380;}.cls-288{fill:#7e7975;}.cls-289{fill:#75533b;}.cls-290{fill:#ba9882;}</style></defs><title>도구_1</title><g id="레이어_2" data-name="레이어 2"><g id="레이어_1-2" data-name="레이어 1"><rect class="cls-1" width="74" height="74" rx="8.33" ry="8.33"/><path class="cls-2" d="M14.26,20.29a5.77,5.77,0,0,1,2.66-1.51,1.64,1.64,0,0,0,.72,1,1.07,1.07,0,0,1,.3.94c-.15.58-.61,1-.74,1.6s-.18,1.23-.85,1.52c-.39,0-.59-.33-.85-.55a3.22,3.22,0,0,0-1.83-.86c-.41.06-.76.36-1.2.31a.49.49,0,0,1-.29-.4C11.83,20.57,13.81,21.22,14.26,20.29Z"/><path class="cls-3" d="M59.43,29.05c1,1.41,3.08,1.6,3.91,3.26.11.22.35.37.46.59,1,2,0,7.45-1.64,9.1a.36.36,0,0,1-.47,0,1.23,1.23,0,0,1,.15-1c.33-.8.82-1.52,1.14-2.33.28-2.58.73-5.21-2.11-6.83a7.79,7.79,0,0,1-1.16-.73c-.53-.62-1.35-1.1-1.05-2.12A.61.61,0,0,1,59.43,29.05Z"/><path class="cls-4" d="M15.43,40.75c-1.14-1.07-2.23-2.21-3.44-3.19a2.87,2.87,0,0,1-1.13-2.46c-.72-1.8-.31-2.92,1.53-4.15a2.29,2.29,0,0,0,.37,0,.6.6,0,0,1,.75-.12c.55,1.39-1.32,1.54-1.33,2.64a10.69,10.69,0,0,0-.09,1.79A2.44,2.44,0,0,0,13,37.05c.62.52,1.19,1.1,1.8,1.63.45.38.86.8,1.32,1.17s.85.72.5,1.37C16.05,41.45,15.73,41.13,15.43,40.75Z"/><path class="cls-5" d="M61.66,41.91l.5.09c-1.49,2.13-3.91,3.07-5.95,4.46a14.78,14.78,0,0,1-3.93,2.36.35.35,0,0,1-.47,0,.75.75,0,0,1-.07-.51,2.06,2.06,0,0,1,.44-.66q2.55-1.74,5.17-3.39C58.76,43.43,60,42.2,61.66,41.91Z"/><path class="cls-6" d="M20.3,18.37c1.94-2.51,6.56-2.75,8.73-1.72,1.16.55,2,1.7,3.44,1.72,0,.09.05.18.08.27-1.33,1.33-2.14-.41-3.23-.54a4.76,4.76,0,0,1-1-.46,7.82,7.82,0,0,0-2.93-.25c-.51,0-1,0-1.55,0s-1,.49-1.46.78a3.1,3.1,0,0,1-.45.21,3.62,3.62,0,0,1-1.21.24A.7.7,0,0,1,20.3,18.37Z"/><path class="cls-5" d="M30.92,54.52l-7.1-5.92a1.17,1.17,0,0,1-.43-1c.34-.17.6,0,.88.16s.54.31.8.49.73.61,1.15.86c.14.08.27.18.4.27.39.32.73.67,1.09,1l.71.69a4.17,4.17,0,0,1,.37.36c.8,1.08,2.44,1.44,2.6,3.06A.34.34,0,0,1,30.92,54.52Z"/><path class="cls-5" d="M15.43,40.75l1.08.46a1.49,1.49,0,0,1,.72.1,2.26,2.26,0,0,1,.42.26c.52.42,1,.92,1.48,1.35a17.14,17.14,0,0,1,3.18,3.13.42.42,0,0,1-.15.47A19.79,19.79,0,0,1,15.43,40.75Z"/><path class="cls-3" d="M40.84,16.88a28.16,28.16,0,0,1,7.6,5.28l-.18.18c-.76.19-1.23-.43-1.83-.67a11.07,11.07,0,0,1-1.67-1.12,35.33,35.33,0,0,0-3.43-2.23c-.53-.42-1.49-.47-1.26-1.52A.59.59,0,0,1,40.84,16.88Z"/><path class="cls-7" d="M14.26,20.29c-.14,1.17-2.42.57-1.9,2.28a2.13,2.13,0,0,1,.49,1.37c.29,1.45,1.26,2.15,3.09,2.26l.47-.17a1.63,1.63,0,0,1,.72-.14l.21.14c-.49,1.12-2.75,1.57-3.9.77s-2-4.22-1.33-5.52C12.59,20.42,13.63,20.81,14.26,20.29Z"/><path class="cls-3" d="M59.43,29.05l-.79,0c-1.73.68-2.36-1.07-3.55-1.6-.91-.74-2.24-1-2.73-2.24a.86.86,0,0,1,.27-.77Z"/><path class="cls-5" d="M48.43,51.05l-6.81,4.21a.68.68,0,0,1-.25-.43,1.25,1.25,0,0,1,.14-.5,4,4,0,0,1,1.23-.92,6.74,6.74,0,0,0,1.83-1.31c.08-.14.18-.28.28-.42a2,2,0,0,1,.59-.48,5.53,5.53,0,0,1,1-.25c.57-.1,1-.63,1.63-.55a1,1,0,0,1,.46.21A.33.33,0,0,1,48.43,51.05Z"/><path class="cls-4" d="M13.53,31h-.77c.37-1.4,1.83-1.2,2.75-1.73a10.1,10.1,0,0,1,3.65-1.74.7.7,0,0,1,.78-.06c.23.83-.54.81-.92,1.12A12.42,12.42,0,0,0,16.56,30a3.13,3.13,0,0,1-.59.5,3.58,3.58,0,0,1-.94.41A2.27,2.27,0,0,1,13.53,31Z"/><path class="cls-3" d="M40.84,16.88l-.8,0a.8.8,0,0,1-.49.16,8.26,8.26,0,0,0-3.32.14,11.4,11.4,0,0,1-1.32.74,8.78,8.78,0,0,0-1.64.62.77.77,0,0,1-.73-.09l-.07-.1C34.52,15.91,39.39,15.26,40.84,16.88Z"/><path class="cls-5" d="M39,57.52c-3,1-5.44.39-6.55-1.79l.17-.21c1.12.08,1.88.93,2.86,1.29,1.31.7,2.55-.34,3.84-.16C39.62,57.11,39.21,57.29,39,57.52Z"/><path class="cls-7" d="M21.88,21.56c-.82,2.19-1.73,4.29-4.54,4.47L17.28,26c0-1.07,1.08-1.15,1.62-1.73a3.63,3.63,0,0,0,1.21-1.45c.35-.59.65-1.21,1.36-1.45A.35.35,0,0,1,21.88,21.56Z"/><path class="cls-3" d="M25.22,24.44c1.22-1.16,2.41-2.35,2.62-4.16l.27-.08c.61.24.71.82.9,1.35a1.54,1.54,0,0,1-1.08,2A6,6,0,0,0,27,24a7.11,7.11,0,0,1-.62.46C26,24.67,25.61,24.85,25.22,24.44Z"/><path class="cls-6" d="M27.84,20.28c-2.18-.48-4,.67-6,1.28l0-.15c-.17-.51.27-.75.47-1.1a2.67,2.67,0,0,1,1.2-1,2.08,2.08,0,0,1,.86,0c1.05.29,2.18-.05,3.22.35a.71.71,0,0,1,.44.73Z"/><path class="cls-8" d="M39.31,56.69c-1.35.55-2.66,1.5-4.19.47a1.07,1.07,0,0,1,.42-.34,5.77,5.77,0,0,1,1.31-.2c.77-.13,1.29-.73,1.95-1.06.71-.09,1.16-.66,1.76-.94a1,1,0,0,1,1,.19l.06.45-.4.34A2.71,2.71,0,0,1,39.31,56.69Z"/><path class="cls-3" d="M52.63,24.46l0,.8a1.13,1.13,0,0,1-1-.19,14.67,14.67,0,0,1-2.17-1.33c-.47-.37-1-.74-.67-1.49C50.36,22.42,51.35,23.68,52.63,24.46Z"/><path class="cls-4" d="M12.39,31a4.4,4.4,0,0,0-1.53,4.15c-.58-.35-1.47-.8-.89-1.52C10.7,32.66,10.43,30.73,12.39,31Z"/><path class="cls-9" d="M48.74,22.25c.52,1.51,2.19,1.61,3.15,2.58-.06.07-.12.13-.17.2a1.87,1.87,0,0,1-2.17-.35c-.31-.25-.65-.46-1-.68a1.07,1.07,0,0,1-.32-.35,1.45,1.45,0,0,1-.08-.92.72.72,0,0,1,.29-.35.17.17,0,0,0,0-.22A.86.86,0,0,0,48.74,22.25Z"/><path class="cls-4" d="M20,27.52l-.81,0a8.25,8.25,0,0,1,4.59-2.25.39.39,0,0,1,0,.45c-.44.39-1,.6-1.41,1C21.57,27.06,20.91,27.69,20,27.52Z"/><path class="cls-10" d="M20.3,18.37l.44.05c0,.83-.75.66-1.19.9l-.45.14-.69.15a7.45,7.45,0,0,0-1.1.29c-.64-.19-.68-.6-.39-1.12C18,18.18,19.18,18.56,20.3,18.37Z"/><path class="cls-3" d="M23.68,25.53a1.09,1.09,0,0,0,.07-.3l1.47-.79,1.22-.35c.37-.13.45.11.52.39a4.2,4.2,0,0,1-.37,1.81.59.59,0,0,1-.45.2,1,1,0,0,1-.39-.31c-.43-.83-1.16-.08-1.7-.32A.63.63,0,0,1,23.68,25.53Z"/><path class="cls-5" d="M39.31,56.69c.66-.32,1.12-1,1.91-1.09,0,1.59-1.55,1.24-2.27,1.92Z"/><path class="cls-11" d="M22.16,46.52a2,2,0,0,0,0-.35.6.6,0,0,1,.49-.18,2.44,2.44,0,0,1,.76.33c.68.39,1.4.78.7,1.73l-.73-.43Z"/><path class="cls-5" d="M48.43,51.05a.71.71,0,0,1,.09-.28,1.43,1.43,0,0,1,1.69-1l.19.2C50.17,51.13,49.31,51.12,48.43,51.05Z"/><path class="cls-5" d="M51.8,48.76l.48.06A2.12,2.12,0,0,1,50.4,50l-.11-.13A1.3,1.3,0,0,1,51.8,48.76Z"/><path class="cls-5" d="M30.92,54.52l.45-.05c.36-.2.61,0,.87.21a.9.9,0,0,1,.32.87c-.05.06-.11.11-.16.18C31.58,55.73,31.26,55.11,30.92,54.52Z"/><path class="cls-12" d="M15.76,23a.78.78,0,0,1,.43.69,2.76,2.76,0,0,1,.36,2.74h0c-1.56.69-2.48-.36-3.48-1.24a.63.63,0,0,1,.25-.46,1.36,1.36,0,0,1,1.06-.11c.88.24.89-.3.83-.91a2.28,2.28,0,0,1,0-.26,1.11,1.11,0,0,1,.12-.5A.33.33,0,0,1,15.76,23Z"/><path class="cls-7" d="M16.55,26.38a7.92,7.92,0,0,1-.36-2.74c.61-.32.16-1.13.69-1.48l.2.15a2,2,0,0,0,2.11,2.16L17.28,26Z"/><path class="cls-7" d="M13.13,24.84c.94.94,1.93,1.81,3.42,1.54-2.63,1-4.21-.47-4.19-3.81a2.19,2.19,0,0,0,.36,0c.62.58.48,1.32.45,2C13.16,24.66,13.14,24.75,13.13,24.84Z"/><path class="cls-13" d="M15.76,23h-.37c-1.05.18-1.47,1-1.85,1.85l-.41,0h0a2.83,2.83,0,0,1,.41-3A3.81,3.81,0,0,1,15.76,23Z"/><path class="cls-14" d="M17.31,19.9a1.09,1.09,0,0,1,1.14-.74c.48.35,1.15.59.91,1.41a.65.65,0,0,1-.4.3,2.67,2.67,0,0,1-1.25-.21Z"/><path class="cls-7" d="M17.71,20.66a1,1,0,0,1,1.11,0c.15,1.05-.87,1.1-1.38,1.58a.53.53,0,0,1-.49,0l-.07-.07C16.77,21.45,17.31,21.09,17.71,20.66Z"/><path class="cls-12" d="M13.54,21.86a5.88,5.88,0,0,0-.41,3c-.71-.67-.26-1.54-.41-2.31C12.91,22.21,13.11,21.9,13.54,21.86Z"/><path class="cls-15" d="M16,20.43a.73.73,0,0,1-.76.57c-.28,0-.48-.19-.42-.47a.6.6,0,0,1,.69-.49C15.67,20.08,15.83,20.31,16,20.43Z"/><path class="cls-16" d="M61,31.47c1.61.18,2.13,1.56,2.41,2.72a8.16,8.16,0,0,1-.1,4.74l-.22-.19a3.29,3.29,0,0,1-.31-1.66c0-.53,0-1,0-1.57A3.19,3.19,0,0,0,62,33.82a4.46,4.46,0,0,0-.76-.86,1.51,1.51,0,0,1-.49-.83A.7.7,0,0,1,61,31.47Z"/><path class="cls-17" d="M61.66,41.91l-4.07,2.71a.39.39,0,0,1-.47.05,1.27,1.27,0,0,1,.25-1.21,1.79,1.79,0,0,1,.36-.31c.46-.19.63-.67,1-1a1.51,1.51,0,0,1,.45-.2c1-.06,1.56-1,2.49-1.25A.32.32,0,0,1,62,41C62.14,41.38,61.75,41.59,61.66,41.91Z"/><path class="cls-18" d="M55.3,27.12c1.15.59,1.91,1.83,3.34,1.95.19.77,1.18,1,1.3,1.81-.46.36-.86.11-1.27-.11-.6-.77-1.61-.92-2.34-1.49-.34-.38-.8-.61-1.17-1a1,1,0,0,1,0-1Z"/><path class="cls-19" d="M58.7,30.55l1.24.33a1.26,1.26,0,0,1,1,.59v.61a1.54,1.54,0,0,1-1.43.37A1.66,1.66,0,0,1,59,32.2C58.57,31.71,58.25,31.2,58.7,30.55Z"/><path class="cls-16" d="M62,41a.43.43,0,0,0-.29-.18,1.72,1.72,0,0,1,.63-2.09.87.87,0,0,1,.84.13l.11.1C62.93,39.66,62.79,40.52,62,41Z"/><path class="cls-4" d="M13.53,31A1.85,1.85,0,0,1,15,30.58c.66,1.15,2.19,1.17,2.91,2.25.13.67.87,1.56-.58,1.68a2.66,2.66,0,0,0-2.76-.62,3.4,3.4,0,0,1-3-.68C11.9,32.16,13,31.81,13.53,31Z"/><path class="cls-20" d="M11.61,33.21c1.35,0,2.69.43,4.08,0a1.15,1.15,0,0,1,1.61,1.08c-.33.23-.64,0-.95,0-.82-.3-1.44.35-2.16.48-.95-.08-1.51,1.24-2.58.72Z"/><path class="cls-21" d="M14.63,38.91c-.82-.27-1.25-1-1.9-1.53-.45-.89.2-1.19.81-1.52a1.82,1.82,0,0,1,1.13-.11,1.43,1.43,0,0,1,.7.89,4,4,0,0,1,.11,1.15,1.89,1.89,0,0,1-.34,1.11A.34.34,0,0,1,14.63,38.91Z"/><path class="cls-22" d="M13.89,36.24a1.1,1.1,0,0,0-1.16,1.14c-.47-.58-1.36-.9-1.12-1.9.93-.27,1.51-1.36,2.65-1.13A3.19,3.19,0,0,1,13.89,36.24Z"/><path class="cls-23" d="M14.63,38.91l.41,0c1-.32,1.33.17,1.25,1.1a.29.29,0,0,1-.5.07A2.81,2.81,0,0,1,14.63,38.91Z"/><path class="cls-24" d="M15.79,40l.39,0a.62.62,0,0,1,.57-.11,1,1,0,0,1,.19,1.58l-.43-.28C16.65,40.59,16,40.45,15.79,40Z"/><path class="cls-25" d="M57.18,44.54l.41.08L52.27,48c-.37.15-.52-.08-.64-.37a1,1,0,0,1,.18-.82c.74-.5,1.71-.67,2.29-1.45C55,44.67,55.83,43.65,57.18,44.54Z"/><path class="cls-5" d="M51.8,48.76l-1.51,1.09-1.78.92-.13-.18c0-1,.82-1.21,1.39-1.69a6.21,6.21,0,0,1,.89-.54c.42-.16.84-.36,1.23.06A1,1,0,0,1,51.8,48.76Z"/><path class="cls-26" d="M51.89,48.42l-1.2.27a.65.65,0,0,1,0-.75,1,1,0,0,1,1.22-.3l.41.4Z"/><path class="cls-6" d="M28,20.35l-.49-.45c-.71-.41-1.51,0-2.24-.25a.58.58,0,0,1-.15-.53,1.64,1.64,0,0,1,1.43-.8,5.67,5.67,0,0,1,2.16.25c.51.18.37-.29.45-.53a.79.79,0,0,1,.28-.39c1.1,0,1.69,1.86,3.06.82l.67-.13c0,.09.08.17.13.26a1,1,0,0,1-.43.7,4.23,4.23,0,0,1-1.55.4c-.6.22-1.13.59-1.73.81a3.77,3.77,0,0,0-.6.66.93.93,0,0,1-.36.26Z"/><path class="cls-27" d="M22.21,18a2.86,2.86,0,0,1,1.17-1.09c.63.76,1.26.43,1.89,0,1.13.15,2.34-.42,3.41.37-.27.95-1.07,1.11-1.88,1.27a2.57,2.57,0,0,1-.55.06,9,9,0,0,1-2.88.26A1.27,1.27,0,0,1,22.21,18Z"/><path class="cls-28" d="M22.21,18l1.14.44c.55.47,1.56-.22,1.9.76l0,.31c-.34.37-.73.23-1.12.14l-.64-.05c-.89.16-1.76.62-2.67.11-.37-1,.79-1,1.07-1.62Z"/><path class="cls-29" d="M21.86,18.06c0,.82-.76,1-1.16,1.46a1.19,1.19,0,0,1-1.52-.38c.38-.55,1.21-.13,1.56-.72Z"/><path class="cls-30" d="M25.27,16.88c-.63.87-1.26,1.91-1.89,0Z"/><path class="cls-31" d="M26.8,18.39l1.88-1.14a.89.89,0,0,0,.8.4c0,.12,0,.23-.05.35C28.69,19,27.72,18.56,26.8,18.39Z"/><path class="cls-5" d="M26.39,49.58a1.4,1.4,0,0,1-.34-.08,5.64,5.64,0,0,0-1.37-1.59A1.63,1.63,0,0,1,25.51,46a1.82,1.82,0,0,1,2.08.52,6.11,6.11,0,0,1,.56.58c.39.66,1.11,1.06,1.43,1.78a.86.86,0,0,1-.79.87A6.45,6.45,0,0,0,26.39,49.58Z"/><path class="cls-32" d="M26.39,49.58c.75-1.29,1.53-.47,2.3,0s1.9.81,1.71,2.13A.65.65,0,0,1,30,52c-.68.13-1.12-.43-1.7-.58v0c-.28-.21-.29-.72-.78-.69A2.28,2.28,0,0,1,26.39,49.58Z"/><path class="cls-5" d="M28.33,51.43c.66-.47,1,.17,1.48.4a5.29,5.29,0,0,1,2.51,2.6.78.78,0,0,1-.23.47l-.72-.43C30.36,53.46,29.34,52.45,28.33,51.43Z"/><path class="cls-33" d="M25.65,46.13c-.34.59-.91,1.09-.75,1.88a.34.34,0,0,1,0,.48c-.3-.06-.61-.1-.75-.44.3-1-.68-1.07-1.13-1.53a2.37,2.37,0,0,1,.22-1.41.71.71,0,0,1,.4-.23.77.77,0,0,1,.4.23c.15.17.29.35.45.51C24.8,45.92,25.34,45.75,25.65,46.13Z"/><path class="cls-34" d="M24.87,48.49l0-.48c.92.08,1.18.67,1.15,1.49C25.45,49.41,25.17,48.94,24.87,48.49Z"/><path class="cls-5" d="M27.55,50.69c0-.22,0-.59.36-.46.49.2.37.73.42,1.15Z"/><path class="cls-5" d="M22.62,46.12l-.45.05A15.27,15.27,0,0,1,18.91,43l.14-.22c.75-.51,1,.35,1.54.51-.07-1.08.88-.82,1.43-1.09a1.4,1.4,0,0,1,.5-.06,1.23,1.23,0,0,1,1,.72,1.49,1.49,0,0,1-.06.51,4.2,4.2,0,0,1-.77,1.88C22.62,45.54,22.77,45.84,22.62,46.12Z"/><path class="cls-35" d="M16.94,41.49c0-.52.13-1.08-.4-1.44-.22-.71.32-.93.77-1.2a1.25,1.25,0,0,1,.51-.09c.62.21.88.77,1.22,1.26.16.58.89.71,1.05,1.3a1.41,1.41,0,0,1-1.21,1.23c-.75.06-.77-1.12-1.59-.93Z"/><path class="cls-24" d="M17.29,41.62c0-.39.11-.81.6-.37a9.69,9.69,0,0,1,.9,1.11c.25.13.23.35.17.58l-.05.07A2.66,2.66,0,0,1,17.29,41.62Z"/><path class="cls-36" d="M41.66,17.89c1,.94,2.46,1.31,3.37,2.41a.29.29,0,0,1,.1.3c0,.11-.06.16-.09.16-1.17.47-1.75-.51-2.51-1a3.64,3.64,0,0,1-.92-.47,1,1,0,0,1-.27-1A.73.73,0,0,1,41.66,17.89Z"/><path class="cls-37" d="M48.46,22.38a2,2,0,0,0-.08.26,1.5,1.5,0,0,1-1.76.12.91.91,0,0,1-.26-1.12l.21-.24Z"/><path class="cls-38" d="M39.7,16.87l.34,0c.28.77,1.15.54,1.62,1l-.11.19a1.42,1.42,0,0,1-1.35.22,1.9,1.9,0,0,1-1-.6.87.87,0,0,1,0-.83A.3.3,0,0,1,39.7,16.87Z"/><path class="cls-37" d="M45,20.76l0-.46,1.54,1.11-.08.1c-.14.22-.27.45-.58.46C45.31,21.79,44.61,21.68,45,20.76Z"/><path class="cls-9" d="M51.89,24.83l.72.43,2.69,1.86-.12.08A1.74,1.74,0,0,1,53,27.08c-.39-.4-.91-.67-1.29-1.1a.92.92,0,0,1,.1-1.06Z"/><path class="cls-26" d="M50,49.19l-1.61,1.4c-.79-.1-1.11.81-1.83.85-.44-.42-.82-.45-1.12.16l-.31.24a.75.75,0,0,1-.69.17.52.52,0,0,1-.29-.31c.11-.69-.46-.14-.63-.34a1,1,0,0,1-.44-.26.61.61,0,0,1,.08-.49,8.85,8.85,0,0,1,1.54-1,3.16,3.16,0,0,1,2-.34,1.27,1.27,0,0,0,1.35.06C48.69,49.05,49.29,48.53,50,49.19Z"/><path class="cls-39" d="M44.27,51.44v.38c.09.42.48.24.73.37-.35,1.06-1.39,1.15-2.19,1.56a1.23,1.23,0,0,1-1.25-.28c-.43-.38.5-1.18-.43-1.4.4-.86.92-1.48,2-1h.39C43.7,51.32,44.09,51.17,44.27,51.44Z"/><path class="cls-40" d="M41.6,53.34l1.21.41-1.18.75a1.15,1.15,0,0,1-.86-.34.69.69,0,0,1,0-.47A.93.93,0,0,1,41.6,53.34Z"/><path class="cls-41" d="M40.85,54.1a.83.83,0,0,1,.78.4,2.82,2.82,0,0,1-.07.31l-1.09.08c-.25,0-.47-.06-.39-.36A.55.55,0,0,1,40.85,54.1Z"/><path class="cls-42" d="M45.43,51.6c0-.37,0-.78.48-.84s.59.3.64.68Z"/><path class="cls-43" d="M45,52.19c-.39.13-.78.63-1.15.24s.18-.46.42-.61l.85,0Z"/><path class="cls-44" d="M20,27.52l2.29-1.11a.54.54,0,0,1,.74-.12c.26.72-.28.85-.76,1.05a2.66,2.66,0,0,1,2.71.49.65.65,0,0,1,0,.53,2,2,0,0,1-1.28.39,1.73,1.73,0,0,0-1.53.54,1,1,0,0,1-.66.3,1,1,0,0,1-.73-.61c-.41-.54-1.07-.18-1.57-.41a1,1,0,0,1-.39-.33Z"/><path class="cls-45" d="M17.67,32.83c-.75-.91-2.94-.12-2.65-2.25l.77-.36c.71.21,1-.6,1.62-.66a.91.91,0,0,1,.77.24,1.17,1.17,0,0,1,.16.55C18.13,31.18,18.38,32.13,17.67,32.83Z"/><path class="cls-46" d="M18.76,28.24l.51.1c-.06,1.21-.89,1.3-1.81,1.26-.42.09-.76.66-1.26.2C16.78,28.83,17.94,28.82,18.76,28.24Z"/><path class="cls-47" d="M16.2,29.8l1.13-.32c.11.08.14.15.1.21s-.09.1-.13.1c-.37.61-.78,1.09-1.51.43Z"/><path class="cls-48" d="M39.7,16.87l-.44.09a2.29,2.29,0,0,1-1.54.4c-.26,0-.51,0-.77.07s-.73.52-1.17.14a.65.65,0,0,1,.11-.72A4.19,4.19,0,0,1,39.7,16.87Z"/><path class="cls-6" d="M33.21,18.34a1.46,1.46,0,0,1,1.57-.68.59.59,0,0,1,.15.51.94.94,0,0,1-.88.57,1,1,0,0,1-.76-.3Z"/><path class="cls-49" d="M34.83,18.05l0-.39,1.11-.81c0,.26,0,.52,0,.78C35.69,18.13,35.36,18.37,34.83,18.05Z"/><path class="cls-5" d="M32.09,54.9l.08-.4a8.14,8.14,0,0,1,.79-.56c.54-.17.9.22,1.31.44a2,2,0,0,1,.57.4,1,1,0,0,0,1,.66c1,.28,2.1-.7,3.08.18-.35.89-1.17,1.15-1.94,1.49-.46-.47-.94-.32-1.42,0l-.48.1-2.56-1.61C32.4,55.33,32.25,55.11,32.09,54.9Z"/><path class="cls-50" d="M17,22.23a2.06,2.06,0,0,1,.32-.07,1.16,1.16,0,0,1,.38.35c.5,1.1,1.14,1.07,1.88.24a1.57,1.57,0,0,1,.44-.28c.28,0,.52.08.35.46,0,.82-.53,1.19-1.13,1.54C16.9,24.94,16.9,24.94,17,22.23Z"/><path class="cls-51" d="M20.32,22.93,20,22.57c-.17-1.59.83-2,2.14-2.19a1.08,1.08,0,0,1,.51.29l-.76.74C21.15,21.72,20.85,22.44,20.32,22.93Z"/><path class="cls-52" d="M28.7,21.05l.38-.75a1.67,1.67,0,0,1,1.66.11,6.12,6.12,0,0,0,0,3.47c-.3.62-.86.63-1.43.63-.85-.25-1.87,0-2.53-.82l.76-.37C29.16,23.19,29.22,22.27,28.7,21.05Z"/><path class="cls-53" d="M26.79,23.69c.73.33,1.58-.08,2.28.4.17.16.43.24.49.51-.09.48-.45.66-.87.78a10.46,10.46,0,0,1-1.25,0c-.36-.19-.86-.27-.66-.88l-.34-.39Z"/><path class="cls-54" d="M28.7,21.05c1,2,.95,2.14-1.15,2.27.73-.42,1.43-.85,1.12-1.89Z"/><path class="cls-55" d="M22.61,20.67l-.43,0c-.78-.56-1.39-.25-1.9.38a5.11,5.11,0,0,1-1.7,1.4,1.43,1.43,0,0,1-1.27.17l0-.44c.07-.95,1.38-.62,1.54-1.48l.35,0c.61-.49-.31-1,0-1.51h0l1.52.38c.92.23,1.85-.62,2.76.05Z"/><path class="cls-27" d="M24.1,19.62l1.12-.14c.77.2,1.65-.26,2.33.42C26.4,19.77,25.21,20.19,24.1,19.62Z"/><path class="cls-56" d="M39,55.62c-1.15-.31-2.29,1-3.43,0l.14-.19a3.42,3.42,0,0,0,1.22-1.11,7,7,0,0,1,1.19-.92,2.1,2.1,0,0,1,2-.32,1.44,1.44,0,0,1,.79.65v.37c-.25.2-.83.25-.38.79C40.1,55.4,39.82,56.12,39,55.62Z"/><path class="cls-57" d="M35.6,57.06c.5-.66,1-1.26,1.42,0Z"/><path class="cls-3" d="M53,26.75a4.57,4.57,0,0,0,2.18.45c0,.35.07.71.1,1.07.35.31.85.38,1.14.76.69.61,2.19,0,2.28,1.52l.37,1.51a.59.59,0,0,1-.5.09c-1.07-.6-2-1.45-3-2.11A3.9,3.9,0,0,0,53.67,29c-1.09-.48-1.88-1.45-3-1.83a2.34,2.34,0,0,1-.44-.24,8,8,0,0,0-1.6-1.11,16.44,16.44,0,0,1-2.68-1.86c-.84-.85-2.1-1.25-2.62-2.45a1,1,0,0,1,.14-.5c.54-.34.92,0,1.29.3s.79.79,1.43.54l.33-.32c0,.35,0,.7,0,1.06.6.45,1.46.44,1.91,1.14h0c.35.19.62.62,1.12.4a2.59,2.59,0,0,0,2.24.81L51.86,26C52.21,26.3,52.71,26.37,53,26.75Z"/><path class="cls-58" d="M48.45,23.71a2.34,2.34,0,0,1-1.91-1.14l1.84.07C48.4,23,48.42,23.36,48.45,23.71Z"/><path class="cls-59" d="M49.56,24.11c-.79,1-.78-.17-1.12-.4Z"/><path class="cls-3" d="M23,26.4h-.76c.22-.7.82-.8,1.42-.88l.13.14a.66.66,0,0,1,.09.51C23.68,26.54,23.4,26.68,23,26.4Z"/><path class="cls-60" d="M19.19,19.15c.17.51.72,1,0,1.51.09-.66-.54-1-.72-1.5Z"/><path class="cls-61" d="M26.78,24.48l.81.7c.22.11.44.23.67.32.62.22,1.22.48,1,1.29s-.88.79-1.51.82a2,2,0,0,1-1.24-.29.63.63,0,0,1-.13-.9C26.53,25.78,26.15,25,26.78,24.48Z"/><path class="cls-62" d="M24.85,28.34l.06-.45A6,6,0,0,1,25.57,26,.35.35,0,0,1,26,26a.63.63,0,0,1,0,.3c.26.38,0,1,.59,1.23a2.19,2.19,0,0,1,.41.26c.4.39,1,.6,1,1.32a1.16,1.16,0,0,1-.85.88,1.83,1.83,0,0,1-1-.28C25.68,29.34,24.82,29.29,24.85,28.34Z"/><path class="cls-63" d="M26,26h-.34c-.62.26-1.24.62-1.88,0a.73.73,0,0,1,0-.36C24.49,26.2,25.6,23.8,26,26Z"/><path class="cls-63" d="M26.78,27.89c-1.06-.16-.7-1-.71-1.59l.31.12,0,.71C26.64,27.33,27,27.47,26.78,27.89Z"/><path class="cls-64" d="M22.62,46.12l-.72-.74a2.4,2.4,0,0,1,1.27-.51l.21.11c0,.54.16,1.13-.39,1.54C22.86,46.39,22.74,46.25,22.62,46.12Z"/><path class="cls-65" d="M13.54,24.8c-.27-1.51.09-2.38,1.85-1.85l0,.4a2.72,2.72,0,0,0-.24.24,1.75,1.75,0,0,0,.24-.23c.86.53.47,1.24.07,1.7C14.79,25.82,14.24,24.47,13.54,24.8Z"/><path class="cls-66" d="M59.47,32.08H61l.39.74a1.63,1.63,0,0,0-.17.2c-1.14.34-2.46.31-3.12,1.58-.75.49-1.4.58-1.77-.45.07-.4.38-.61.65-.86A3.71,3.71,0,0,1,59.47,32.08Z"/><path class="cls-66" d="M61.37,32.82a.72.72,0,0,1,.76.77,1.4,1.4,0,0,1,.22,1.35.64.64,0,0,1-.43.34A4,4,0,0,1,60.55,35a4.1,4.1,0,0,1-1.5-.61c.05-1.54,1.59-.92,2.26-1.56Z"/><path class="cls-67" d="M61.72,35.1h.42a.74.74,0,0,1,1.06,0l0,1.91c-.2.32-.4.63-.85.35-.25-1-1.88-1.07-1.71-2.39A1.25,1.25,0,0,1,61.72,35.1Z"/><path class="cls-68" d="M62.5,37.39l.73-.37c0,.6,0,1.21,0,1.81l-.7.07c-.25-.2-.68-.06-.84-.43A1,1,0,0,1,62.5,37.39Z"/><path class="cls-68" d="M63.2,35.11H62.14c0-.51,0-1,0-1.51C62.78,33.88,63,34.51,63.2,35.11Z"/><path class="cls-69" d="M61.74,38.52a.76.76,0,0,1,.74.38c-.26.63-.52,1.26-.77,1.9-.83.59-1.31,1.78-2.63,1.52-.45-.38-1-.16-1.5-.26s-1.3,0-1.62-.71c.58-.81,1.84-.56,2.49-1.58-1.25-.33-1.38,1.32-2.38,1.13-.53-.64-.24-1.34-.14-2a15,15,0,0,1,1.68-1.61.82.82,0,0,1,1,.22C59.4,38.72,60.52,38.73,61.74,38.52Z"/><path class="cls-70" d="M57.94,41.57a1.14,1.14,0,0,1,1.14.75h-.36c-.32.32-.39.82-.77,1.11l-.39,0a6.83,6.83,0,0,0-4.14,1.47,1.06,1.06,0,0,1-1.53,0c.06-1.19,1-1.32,1.5-1.56a5.09,5.09,0,0,1-2.86-.06.59.59,0,0,1-.31-.45c.08-.41.41-.58.74-.74.72-.23,1.48.13,2.2-.16l.48-.13a2.65,2.65,0,0,1,1-.08A7.33,7.33,0,0,0,57.94,41.57Z"/><path class="cls-71" d="M51.86,45c.86.14,1.36-.46,1.94-.92,1.13-.89,2.35-1.42,3.76-.59-.12.36-.25.72-.38,1.07-1.31-.35-2,.91-3,1.21a4.12,4.12,0,0,1-2.06-.13.64.64,0,0,1-.32-.4Z"/><path class="cls-72" d="M58,43.44a1.1,1.1,0,0,1,.77-1.11C58.7,42.86,58.74,43.43,58,43.44Z"/><path class="cls-73" d="M56.42,29a1.16,1.16,0,0,1-1.14-.76C55.82,28.29,56.4,28.25,56.42,29Z"/><path class="cls-16" d="M59.47,32.08l-2.3,1.51c-.29.27-.65.17-1,.18a.5.5,0,0,1-.26-.42.73.73,0,0,1,.3-.41,2.46,2.46,0,0,1,.45-.25c.67-.21,1.1-1.2,2-.64h.39Z"/><path class="cls-74" d="M17.67,32.83c.11-.89-.13-1.83.43-2.64.33-.09.48.11.61.37.25.92-.34,1.87.09,2.79a4,4,0,0,0,1,1.73,1.34,1.34,0,0,1,.27.44A.76.76,0,0,1,20,36a2,2,0,0,1-1.38.73,10.46,10.46,0,0,0-3.65-2c.27-.84,1-.76,1.61-.74l.76.35C18.37,34.06,17.47,33.3,17.67,32.83Z"/><path class="cls-75" d="M16.54,34l-1.54.7a2.11,2.11,0,0,1,0,.71.7.7,0,0,1-.44.52l-.66.34c-.19-.7-.5-1.41.37-1.89C15,34.2,15.61,33.1,16.54,34Z"/><path class="cls-76" d="M14.55,35.9l.12-.77c2.29-1,2.86.95,3.86,2.19a.73.73,0,0,1-.44.74,3,3,0,0,1-1.81.08c-.83-.17-.79-1-1.26-1.52Z"/><path class="cls-77" d="M15,36.62c.89-.08.57,1,1.11,1.2s1.18.07,1.76.16a.42.42,0,0,1,.31.36c0,.31-.25.44-.52.52v0c-1.32.6-2-.19-2.66-1.15Z"/><path class="cls-78" d="M15,37.76c.84.5,1.56,1.24,2.66,1.15l-1.14,1.14h-.18l-.18,0A1.17,1.17,0,0,0,15,38.87C15,38.5,15,38.13,15,37.76Z"/><path class="cls-79" d="M51.86,45.36c.76.13,1.62-.31,2.28.39-.34,1.21-1.3,1.2-2.28,1.13l-.23,0c-.58-.12-1.32.23-1.71-.53A1.7,1.7,0,0,1,51.86,45.36Z"/><path class="cls-79" d="M51.86,47.64,50.73,48c-.32-1.07.08-1.43,1.13-1.15h0Z"/><path class="cls-25" d="M51.86,46.88A1.07,1.07,0,0,0,50.73,48c0,.22,0,.44,0,.66l-.7.5c-.8-.21-1.31.39-1.92.71a.66.66,0,0,1-.25-.62,4,4,0,0,0,.07-1.38,1.24,1.24,0,0,1,.48-.81,7.59,7.59,0,0,1,1.35-.57l.24,0C50.54,46.9,51.44,45.72,51.86,46.88Z"/><path class="cls-48" d="M30.59,23.71c-1.45-1.14-.56-2.28,0-3.41.17-.36.1-.81.39-1.13l1.87-.07a2.56,2.56,0,0,0,.11.24c-1.23,2.08-1.22,2.07,1.24,3.11.43.18,1.25.13.87,1-.82.49-1.86.32-2.66.89C31.67,24.55,31,24.53,30.59,23.71Z"/><path class="cls-27" d="M26.8,18.39A4.34,4.34,0,0,0,29.43,18l.66,1.42c-1.23,0-2.14-1-3.3-.65-.12-.08-.17-.17-.12-.25s.08-.12.12-.12Z"/><path class="cls-80" d="M26.79,18.4v.37a2.62,2.62,0,0,0-1.54.4l-1.9-.76Z"/><path class="cls-54" d="M31,19.17c0,.41,0,.85-.39,1.13s-1,0-1.52,0C29.62,19.76,30.57,19.92,31,19.17Z"/><path class="cls-49" d="M33.29,18.44l.73,0a.55.55,0,0,1,0,.73.88.88,0,0,1-.73.29,1.07,1.07,0,0,1-.47-.25V19.1Z"/><path class="cls-81" d="M30.22,51.82c.18-1.23-1.34-1.31-1.53-2.28a1.3,1.3,0,0,0,.76-.76c.68-.25,1.08.29,1.6.53.34.24.66.53,1,.74A4,4,0,0,1,34.28,52c.1,1.53-.69,1.85-2,1.45a1.26,1.26,0,0,1-.61-.48,1,1,0,0,0-.86-.71A1.1,1.1,0,0,1,30.22,51.82Z"/><path class="cls-82" d="M27.93,47.27l-.38-.39c-.09-1-1-1.39-1.38-2.16a2,2,0,0,1,.16-1.29,4,4,0,0,1,.23-.46c.27-.32.43-.81,1-.62A1.3,1.3,0,0,1,28,43a4,4,0,0,1,.11.5c.32,1.43,2.06,1.74,2.46,3.11.2.64.53,1.45-.29,1.77C29.19,48.8,28.62,47.82,27.93,47.27Z"/><path class="cls-83" d="M27.93,47.27c.18,0,.4,0,.52.16.5.48,1.1,1,1.74.62s-.15-1,0-1.55c1.15-.17,1.36.83,1.86,1.47.26.8,1.37,1.53.21,2.45-.45-.27-.83-.64-1.31-.88-.66.06-1-.54-1.52-.76A2.4,2.4,0,0,1,27.93,47.27Z"/><path class="cls-84" d="M26.41,44.6c.5.7,2,.9,1.14,2.28-.59-.34-1.1-.92-1.9-.75-.5-.18-1.3.91-1.53-.37A2.58,2.58,0,0,1,26.41,44.6Z"/><path class="cls-5" d="M30.22,51.82H31c.23.28.57.45.76.76l.38.38c.21.41,1,.44.76,1.14,0,.59-.25.64-.7.4l-2.36-2.67Z"/><path class="cls-85" d="M26.75,43.1a1.6,1.6,0,0,0,0,.31c-.95.67-1.21,2.42-2.94,1.89a2,2,0,0,0-.06-.32.87.87,0,0,1-.21-1,.58.58,0,0,1,.36-.31c.79,0,.59-.41.27-.81s-1.08-.49-1.27-1.13c.2-.53.65-.58,1.12-.63a2.56,2.56,0,0,1,.82.13A3.12,3.12,0,0,1,26.75,43.1Z"/><path class="cls-86" d="M23.81,45.3c1.52.21,1.7-1.67,2.94-1.89-.11.4-.23.79-.34,1.19a5.25,5.25,0,0,1-2.29,1.16C24,45.61,23.91,45.46,23.81,45.3Z"/><path class="cls-87" d="M23.75,43.84V45h-.37l0,0a2.3,2.3,0,0,1,0-1.87l.07-.07C24,43.11,24,43.4,23.75,43.84Z"/><path class="cls-88" d="M19,42.94c-.05-.19-.11-.39-.17-.58A2.57,2.57,0,0,0,20,41.18c-.16-.34.06-.46.32-.56a2.33,2.33,0,0,1,1.42.6c.33.28.71.54.56,1.07,0,1.08-1.14.05-1.39.78.09.1.17.28.31.34.43.19.88.44.46.93s-.62-.1-.91-.29C20.15,43.66,19.92,42.73,19,42.94Z"/><path class="cls-89" d="M22.26,42.29l-.78-.75c0-1,.68-1.08,1.44-1,.52.21,1.24.2,1.22,1.05-.41,0-.87-.07-1.14.38.09.34,0,.51-.37.38A2.31,2.31,0,0,1,22.26,42.29Z"/><path class="cls-90" d="M22.63,42.32l.37-.38a1.36,1.36,0,0,1,1.51.74.86.86,0,0,1-.41,1.17h-.35l-.36-.77Z"/><path class="cls-91" d="M23.32,43.14c0,.62,0,1.24,0,1.86l-1.44.38C22.72,44.85,22.5,43.66,23.32,43.14Z"/><path class="cls-92" d="M20.36,40.8l-.4.38C19.42,41,18.56,41,18.82,40c-.14-.33.07-.45.32-.54a1,1,0,0,1,.69.27C20.1,40.06,20.52,40.28,20.36,40.8Z"/><path class="cls-93" d="M19.22,39.66l-.4.37c-.61-.16-.7-.83-1.14-1.17l.39-.34c.26-.14.45,0,.65.14C19,39,19.39,39.16,19.22,39.66Z"/><path class="cls-94" d="M46.16,21.83c-.08.85-.57.44-.92.26-.6-.3-.93-1.06-1.73-1a1.2,1.2,0,0,1-1.29-1,1.16,1.16,0,0,1,.51-.84A4.09,4.09,0,0,0,45,20.76C45.09,21.44,45.7,21.55,46.16,21.83Z"/><path class="cls-95" d="M40.11,18l1.44.1.06,1.06-.22.17a1.69,1.69,0,0,1-1.49-.46C39.81,18.53,39.12,18.07,40.11,18Z"/><path class="cls-96" d="M42.73,19.22a.69.69,0,0,1-.36.69c-.62.11-.88-.13-.76-.75h0Z"/><path class="cls-97" d="M40.11,18c-.43.26-.07.52,0,.78a.92.92,0,0,1-.51.32,1,1,0,0,1-1.09-1.51.66.66,0,0,1,.84.06Z"/><path class="cls-98" d="M39.33,17.64h-.76c-.76.38-1.13.13-1.11-.71l1.8,0C39.28,17.18,39.31,17.41,39.33,17.64Z"/><path class="cls-99" d="M53,26.75A1.16,1.16,0,0,1,51.86,26C52.4,26,53,26,53,26.75Z"/><path class="cls-100" d="M40.11,53.36l-.45-.07a.77.77,0,0,1-.14-.71c.15-.57.92-.91.61-1.65a2.08,2.08,0,0,0-.48-.5c-1.23-.6-2-2-3.41-2.24a7.59,7.59,0,0,1-2.06-2.09,1,1,0,0,1,.11-.78c.88-.61,1.51,0,2.16.46q2.32,1.68,4.78,3.13c.46-.23.44-1.06,1.17-.94a1.13,1.13,0,0,1,.27.41,2.25,2.25,0,0,1,0,1,1,1,0,0,0,.35,1.1l.12.23,0,.35a3.82,3.82,0,0,0-1.91,1.13C41.16,52.88,41,53.46,40.11,53.36Z"/><path class="cls-101" d="M46.93,49.54l-2.28.38a.49.49,0,0,1-.1-.45A1.23,1.23,0,0,1,45,49a2.86,2.86,0,0,1,.69-.2,2.53,2.53,0,0,1,1.19,0,.61.61,0,0,1,.16.65Z"/><path class="cls-100" d="M44.65,49.6v.32a1.39,1.39,0,0,1-1.5.78l0,0a.44.44,0,0,1-.12-.3c0-.11,0-.17,0-.17a1.66,1.66,0,0,1,.95-.85A.63.63,0,0,1,44.65,49.6Z"/><path class="cls-101" d="M48.07,49.17v.73c-.49.22-1,.65-1.14-.36h0C47.21,49.13,47.51,48.75,48.07,49.17Z"/><path class="cls-102" d="M44.27,51.44a.76.76,0,0,1-.76-.38l.74,0c.2,0,.52-.28.57.1S44.5,51.4,44.27,51.44Z"/><path class="cls-103" d="M40.11,53.36l1.1-1.17,1.7-.13c-.27.76-1.43.38-1.31,1.28a.81.81,0,0,1-.75.39C40.55,53.71,40.26,53.67,40.11,53.36Z"/><path class="cls-104" d="M23.81,26c.63.16,1.24-.44,1.88,0-.18.67.43,1.66-.78,1.9l-3.17-.47c.4-.44,1.11-.41,1.28-1Z"/><path class="cls-105" d="M21.86,29c.05-1.19,1-.51,1.51-.72a15.52,15.52,0,0,1,2.41,1.21c.07.84-.1,1.53-1.07,1.72-.59,0-1-.45-1.51-.64A1.94,1.94,0,0,1,21.86,29Z"/><path class="cls-106" d="M25.6,29.43a2.52,2.52,0,0,1-2.23-1.15l1.48.06c.32.67,1.16.52,1.59,1,.37.82,1.37,1.34,1.14,2.45-.14.68-.27,1.37-1.16,1.46C25.53,32.13,25.87,30.71,25.6,29.43Z"/><path class="cls-107" d="M17.3,29.79a1.55,1.55,0,0,1,0-.31,2.25,2.25,0,0,0,1.94-1.14c.57.3,1.4-.91,1.8.32-.31.52-.54,1.12-1.16,1.38a2.35,2.35,0,0,1-.52.14,1.82,1.82,0,0,1-1.28-.36Z"/><path class="cls-108" d="M20,29.77a2.44,2.44,0,0,1,1.11-1.11l.36.79a1.11,1.11,0,0,1,.58.81.88.88,0,0,1-.58.79C20.62,31,20.26,30.41,20,29.77Z"/><path class="cls-109" d="M21.84,30.2l-.41-.75.43-.45c.45.46.8,1.05,1.51,1.17a.34.34,0,0,1-.05.51A1,1,0,0,1,21.84,30.2Z"/><path class="cls-110" d="M18.11,29.82h1.42A7.2,7.2,0,0,1,22.07,32a1,1,0,0,1-.11.51.8.8,0,0,1-.72.18c-.39-.14-.68-.46-1-.62a1.91,1.91,0,0,1-.4-.28,5.15,5.15,0,0,0-1.07-1,1.24,1.24,0,0,1-.29-.39l-.33-.21A1.53,1.53,0,0,1,18.11,29.82Z"/><path class="cls-111" d="M34,19.14c0-.25,0-.49,0-.73l.81-.36,1.08-.42.81-.7a1.85,1.85,0,0,1,.37.69c.68,1.84,2.4,2.53,3.85,3.52a8.5,8.5,0,0,1,1.72,1.25,58.06,58.06,0,0,0,5.7,4.32c2,1.46,3.81,3.28,6,4.53.7.39,1.54.95,1.32,2.06a2.37,2.37,0,0,1-1.57.57,18.26,18.26,0,0,1-8.45-5.08c.13-.45.62-.34.9-.59A8.35,8.35,0,0,0,44,26.41c-1.27-.6-2.17-1.71-3.37-2.4-2.14-1.6-4.38-3.06-6.53-4.65Z"/><path class="cls-112" d="M36.67,17.62c0-.23,0-.46,0-.69h.74a1.09,1.09,0,0,0,1.11.71v.76c-.42.29-.81.07-1.21-.05S36.88,17.88,36.67,17.62Z"/><path class="cls-5" d="M32.87,54.1c-.24-.39-.82-.55-.76-1.14,1.08.36,2,.46,1.9-1.14-.46-.86.21-1.09.77-1.38s1.23,0,1.45.74c.19,1.09-.65,1.72-1.12,2.52A6,6,0,0,1,34,54.85C33.62,54.62,33.46,54,32.87,54.1Z"/><path class="cls-113" d="M34.77,53.72c-.06-1,1.19-1.3,1.15-2.27.35-.35,0-1,.44-1.27a1,1,0,0,1,1.08,0c.29.61-.1,1.09-.38,1.53a7.52,7.52,0,0,0-1.2,3.42,2.15,2.15,0,0,1-.33.46h0c-.32.07-.68.52-1,.08-.11-.17.12-.55.2-.84A.84.84,0,0,1,34.77,53.72Z"/><path class="cls-114" d="M34.77,53.72v1.14H34A1.16,1.16,0,0,1,34.77,53.72Z"/><path class="cls-115" d="M18.42,22.17a14.87,14.87,0,0,0,1.7-1.67c.59-.73,1.47-1.26,2.06.15A2.54,2.54,0,0,0,20,22.57a2.09,2.09,0,0,1-.08.36.34.34,0,0,1-.42.11,1.72,1.72,0,0,1-1.12-.43A.38.38,0,0,1,18.42,22.17Z"/><path class="cls-116" d="M18.42,22.17v.39c.2.63.84,0,1.11.37a2,2,0,0,0,.35,0c-1.51,1.57-1.71,1.55-2.58-.33Z"/><path class="cls-117" d="M30.59,23.71a3.07,3.07,0,0,0,1.9.38l.09.23a1.42,1.42,0,0,1-1.25,1.05c-.49,0-.84-.4-1.31-.5a1.29,1.29,0,0,1-.56-.39l-.39-.39C29.6,24,30.19,24.27,30.59,23.71Z"/><path class="cls-118" d="M26.78,27.89l-.37-.76a1.2,1.2,0,0,0,.19,0c.79-.19,1.94.51,2.33-.49s-1.31-.56-1.34-1.46a1.15,1.15,0,0,1,1.12,0c.9.07,1.68.79,2.65.52a1,1,0,0,1,.46.22c.31.7-.18,1.09-.59,1.51-.23.2-.55.25-.79.45-.28.58-.07,1.27-.44,1.83a.74.74,0,0,1-.7.26,1.13,1.13,0,0,1-.45-.26A4.11,4.11,0,0,0,26.8,27.9Z"/><path class="cls-119" d="M31.36,26c-1.23.91-1.86-.19-2.65-.77l.75-.74h.73c.52.24.65.93,1.24,1.09A.33.33,0,0,1,31.36,26Z"/><path class="cls-120" d="M35.53,55.24c-.36-2,1-3.41,1.92-4.93a1.16,1.16,0,0,1,.83-.42,4.73,4.73,0,0,1,1.81.41l.38.41a.33.33,0,0,1,0,.5c-.66.44-1.45.27-2.17.44C36.94,52.3,37,53,38.2,53.72l-1.15.76C36.6,54.84,36.28,55.48,35.53,55.24Z"/><path class="cls-121" d="M38.2,53.72c-.58-.12-1.52.34-1.66-.34-.21-1,.7-1.61,1.28-2.31.31.61.41,1.48,1.45,1.2a.9.9,0,0,1,.43.31c0,.24,0,.47,0,.71Z"/><path class="cls-122" d="M35.53,55.24c.53-.21.86-.82,1.52-.76-.06,1-.7,1.17-1.52,1.14Z"/><path class="cls-123" d="M37.81,55c.62-.53.93-.62,1.28-.53a.54.54,0,0,1,0,.28C38.8,54.77,38.52,54.81,37.81,55Z"/><path class="cls-124" d="M42.37,22.57l-1.52-1.14c-.35-.26-.74-.5-.52-1.05.68-.52,1.09.18,1.63.35a2.87,2.87,0,0,1,.43.28,32.44,32.44,0,0,0,3.78,2.7l2.66,1.9c.52.35,1,.81,1.51,1.14h0c2,1.29,4.06,2.52,6,3.91,1,.73,1.25,1.52.45,2.54h-.38c-3.06-2.77-6.53-5-9.77-7.58C45.26,24.53,43.85,23.51,42.37,22.57Z"/><path class="cls-125" d="M56.79,33.2a2,2,0,0,0-.89-2.33c-1.85-1.37-4-2.35-5.56-4.12,1.51,0,2.29,1.25,3.42,1.9a6.91,6.91,0,0,1,1.9,1.14,6.72,6.72,0,0,1,3,2.26C57.81,32,57.5,33,56.79,33.2Z"/><path class="cls-126" d="M39.7,18.78h.39l1.52.39a1.28,1.28,0,0,0,.76.75l1.14,1.15v.38A1.82,1.82,0,0,1,42,21.05h0C41.43,20.09,39.63,20.37,39.7,18.78Z"/><path class="cls-37" d="M42,21.05a2.5,2.5,0,0,1,1.52.39l2.66,2.27A11.44,11.44,0,0,1,42,21.05Z"/><path class="cls-127" d="M55.66,29.79a3.47,3.47,0,0,1-1.9-1.14A1.82,1.82,0,0,1,55.66,29.79Z"/><path class="cls-37" d="M50.34,26.75a1.79,1.79,0,0,1-1.51-1.14A1.79,1.79,0,0,1,50.34,26.75Z"/><path class="cls-128" d="M26.41,33.2c1.63-1.26.12-2.55,0-3.83l.69.44a1.68,1.68,0,0,1,1.37,1.55,6.62,6.62,0,0,1-1.06,2.74c-.44.6-1.33,1-.82,2a2.44,2.44,0,0,1-2,.12c-1.07-.4-1.25-1-.19-1.69C25.18,34.23,25.41,33.14,26.41,33.2Z"/><path class="cls-129" d="M28.33,31.3l-1.2-1.49L28,29c.91-.54.79.45,1.13.76l.08,0a1.54,1.54,0,0,1,.27.72,1.35,1.35,0,0,1-.2.74.79.79,0,0,1-.43.27A.67.67,0,0,1,28.33,31.3Z"/><path class="cls-63" d="M29.08,29.78c-.4-.23-.56-.8-1.13-.76L26.8,27.9C27.75,28.29,29.12,28.18,29.08,29.78Z"/><path class="cls-130" d="M15.37,23.36c-.08.41.24,1.14-.67.92-.27-.06-.73-.18-.62-.53.21-.64.85-.27,1.29-.4Z"/><path class="cls-131" d="M59.07,34.33c.52.08,1.11-.15,1.53.37a1.13,1.13,0,0,1-.64.41c-.77.14-1.67,0-2.14.85a2.36,2.36,0,0,1-1,.79.75.75,0,0,1-.67-.33c-.19-.7-.92-.91-1.34-1.41a1.29,1.29,0,0,1,1.62-1c.34.81.9.74,1.52.36A.82.82,0,0,1,59.07,34.33Z"/><path class="cls-132" d="M59.07,34.33H58c.52-1.87,2-1.54,3.36-1.48C60.9,33.88,59.59,33.5,59.07,34.33Z"/><path class="cls-133" d="M56.43,34,54.89,35.1a1.2,1.2,0,0,1-.36.35c-.54.17-1,.8-1.65.35a.93.93,0,0,1-.07-.52A4.13,4.13,0,0,1,56,33.59h1.13A.79.79,0,0,1,56.43,34Z"/><path class="cls-68" d="M59.83,34.73l.77,0c.4,0,.86-.05,1.12.4H60.6a.54.54,0,0,1-.45.18C59.89,35.2,59.71,35.05,59.83,34.73Z"/><path class="cls-134" d="M60.22,35.11h.38c.62.77,2.16.77,1.9,2.28-.26.37-.51.75-.76,1.13-1.24,1-2.31,1.1-3.12-.51a1.16,1.16,0,0,0-1.06-.63H57.3c-.32-.14-.66-.27-.51-.74l.75-.77a6.33,6.33,0,0,1,1.35,1c.18.17.34.35.5.52.46.46.87.27,1.21-.13s.15-.53-.22-.65a1,1,0,0,1-.64-.32A1.06,1.06,0,0,1,60.22,35.11Z"/><path class="cls-135" d="M56,40.81c.6-.23.77-.8,1-1.29s.6-.73,1.06-.54a1.83,1.83,0,0,1,1,.81c.25.59-.49.57-.76.85-.65.68-1.49.54-2.3.55A.3.3,0,0,1,56,40.81Z"/><path class="cls-136" d="M56,40.81v.38c.53.63,1.26.28,1.9.38-1.12.26-2.14,1.49-3.42.38-.26-1.21.56-2.06,1-3a.44.44,0,0,1,.51,0C56.57,39.54,56.1,40.17,56,40.81Z"/><path class="cls-137" d="M56,38.91h-.37a1.31,1.31,0,0,1-.94-.74,1,1,0,0,1,0-.75,1.24,1.24,0,0,1,.38-.34c.89-.49,1.65,0,2.43.3h0A1.6,1.6,0,0,1,56,38.91Z"/><path class="cls-138" d="M53,35.5c0,.13,0,.25,0,.37a.87.87,0,0,1-.41.61c-.14.09-.29.17-.44.25-.74.29-1.27,1-2.14,1,.76.25,1.49.49,2.24.66,2.91.67,3.24,1.54,1.51,3.94h-.38c-.44-2.13-2.25-2.43-3.9-2.94-.78-.76-2-.73-2.76-1.57a3.28,3.28,0,0,1-.53-.64,2.49,2.49,0,0,1-.35-.78A1.46,1.46,0,0,1,46.13,35c2,.46,4,1.15,6.08.2A.92.92,0,0,1,53,35.5Z"/><path class="cls-139" d="M49.58,38.91c.35.48.89.36,1.37.4,1.83.19,2.83,1,2.43,3-.75.64-1.51.12-2.27,0-.32.27-.73.15-1.09.25a4.74,4.74,0,0,1-1.91-.49.61.61,0,0,1-.14-.51,1.17,1.17,0,0,1,.69-.41c.22-.15.88.07.48-.6a1.38,1.38,0,0,1-.25-.46C48.89,39.57,48.68,38.92,49.58,38.91Z"/><path class="cls-140" d="M53.76,42.33c1.13-2.75,1.12-2.72-2-3.53a31.34,31.34,0,0,1-3-1.13c.37-.47.82-.2,1.2-.28,1,.23,1.93,0,2.88.23a2.78,2.78,0,0,1,2,.53l.77.76c0,1.17-.74,2-1.15,3Z"/><path class="cls-141" d="M50.34,43.09h3.45c-.42.94-1.36,1.24-1.93,1.89h0l-.31.21c-.81.59-1.95,1.48-2.57.48C48.51,44.94,49.18,43.6,50.34,43.09Z"/><path class="cls-142" d="M50.34,43.09c-.64.69-.27,1.89-1.48,2.27,1.37.93,2.06-.34,3-.37v.37L50,46.5h0a2,2,0,0,1-1.89.5,1,1,0,0,1-.33-.49,1.91,1.91,0,0,1,.07-1.18c.36-.66.71-1.33,1.06-2s.7-1.1,1.47-.63Z"/><path class="cls-143" d="M50.34,42.71c-1.66.11-1,2.25-2.28,2.65a.82.82,0,0,1-.22-.48,4.61,4.61,0,0,1,.41-1.59c.37-.67.74-1.36,1.71-1h1.15A.87.87,0,0,1,50.34,42.71Z"/><path class="cls-38" d="M42.37,22.57c1.6.07,2.47,1.38,3.61,2.2,3.21,2.32,6.36,4.7,9.54,7.06a1.68,1.68,0,0,1,.89,1.36,2,2,0,0,1-.35,0c-.14.15-.27.16-.4,0-1.87-2.33-4.65-3.53-6.83-5.5S44.24,24.63,42.37,22.57Z"/><path class="cls-144" d="M55.66,33.2l.4,0c0,.12,0,.24,0,.37-.84.91-2.3.83-3,1.91l-.75,0-.17-.21c-.13-.63.22-1,.72-1.23s.95-.15,1.33-.49A2.62,2.62,0,0,1,55.66,33.2Z"/><path class="cls-80" d="M20.33,31.7a.67.67,0,0,1,.78.7,5.13,5.13,0,0,1,1.45,4.4A2.26,2.26,0,0,1,20.8,37c-.52-.2-1-.45-.87-1.12a2.29,2.29,0,0,0,0-.37C19.83,34.22,19.46,32.89,20.33,31.7Z"/><path class="cls-145" d="M20.33,31.7c-.17,1.26.43,2.61-.4,3.82l-.33-.06a4.36,4.36,0,0,0-1.15-1.88c-.86-1,0-2.12,0-3.18l.39.15A7.6,7.6,0,0,0,20,31.66.7.7,0,0,1,20.33,31.7Z"/><path class="cls-146" d="M18.42,37.4c-.62-.49-1.3-.82-1.6-1.72s-1.41-.4-2.15-.55l.33-.46c1.78-.33,2.84.71,3.78,2,.4.15.62.38.39.83A.59.59,0,0,1,18.42,37.4Z"/><path class="cls-147" d="M19.12,37.39c-.12-.24-.23-.49-.34-.74a1.15,1.15,0,0,1,1.15-.76l.74.78a.44.44,0,0,1,.21.42,3,3,0,0,1-.45,1.46.71.71,0,0,1-.51.1C19.41,38.39,19,38.05,19.12,37.39Z"/><path class="cls-148" d="M18.45,33.58c1.22.11,1.11,1,1.15,1.88A3.26,3.26,0,0,1,18.45,33.58Z"/><path class="cls-149" d="M19.12,37.39l.89,1c-.08,1-.08,1-1.56.46l-.38-.38a1.26,1.26,0,0,0-.05-.33c-.12-.09-.15-.19-.11-.27s.09-.14.13-.14l.38-.38Z"/><path class="cls-150" d="M18,37.78c0,.14,0,.28,0,.41-.62-.16-1.34.17-1.89-.37Z"/><path class="cls-151" d="M48,46.49l0,.4c.14.12.35.16.39.38l-.39.74a.73.73,0,0,1-.46.59,1,1,0,0,1-.74-.12A2.09,2.09,0,0,0,45.14,47c-.15,0-.3,0-.45,0-.52,0-.76.45-1.12.7a.64.64,0,0,1-.45,0,1.65,1.65,0,0,1-.42-.56,1.38,1.38,0,0,0-.49-.47c-.86-.26-2,0-2.34-1.24A1,1,0,0,1,40,45a1.12,1.12,0,0,1,1.24,0c.22.06.48.25.67,0s-.08-.3-.21-.42a3.32,3.32,0,0,1-1.12-.88A4.64,4.64,0,0,1,40,42.57a.58.58,0,0,1,.25-.44c1.64-.29,2.39,1.06,3.44,1.85A2.89,2.89,0,0,0,46,45.46c.51.18.81.73,1.4.76A.86.86,0,0,1,48,46.49Z"/><path class="cls-152" d="M47.68,48.4l.38-.39c.48.38.5.77,0,1.16l-1.15.37v-.76C47.11,48.52,47.49,48.65,47.68,48.4Z"/><path class="cls-79" d="M48.45,47.27l-.39-.38L50,46.5C49.68,47.19,49.1,47.29,48.45,47.27Z"/><path class="cls-153" d="M54.14,33.59c0,.77-.59.76-1.14.75-.2-.15-.47-.15-.68-.29a4.51,4.51,0,0,0-1.8-.81c-1.05-.47-2.15-1.24-2.83.47a.68.68,0,0,1-.91-.29c-.2-.58.09-1.21-.2-1.77-.15-.78-.79-1.09-1.36-1.48-2.4-1.65-5.1-2.82-7.43-4.57a3.47,3.47,0,0,0-1.61-1.07,2.48,2.48,0,0,1-.48-.17c-.37-.24-.78-.47-.55-1-.33-.51-.9-.35-1.36-.49-2.63-.81-2.88-1.78-.92-3.66h.39c-.13,1.37-.12,1.35,1.63,2.45,1,.64,2.13,1.11,3.12,1.78a42.67,42.67,0,0,0,5.62,3.47,5.42,5.42,0,0,1,2.16,1.78A33,33,0,0,0,54.14,33.59Z"/><path class="cls-117" d="M35.15,23.33l.76.76a.34.34,0,0,1,.1.3c0,.11,0,.16-.08.16-.94.44-1.76-.64-2.7-.2a.87.87,0,0,1-.72-.23l0,0C33.11,22.91,34.23,23.46,35.15,23.33Z"/><path class="cls-154" d="M37.81,23.71a41,41,0,0,0-3.74-2c-1.41-.58-1.76-1.29-.81-2.52l.74,0v0a7.14,7.14,0,0,0,3.24,2.75c.76.36,1.79.69,1.64,1.92A1.1,1.1,0,0,1,37.81,23.71Z"/><path class="cls-155" d="M34.77,50.68c-.24.39-.82.55-.76,1.14L31.73,50.3a.23.23,0,0,1,.38,0c1-.95-.59-1.47-.38-2.28-.06-.73.41-.45.67-.31a5.07,5.07,0,0,1,1.79,1.86,4,4,0,0,1,.54.86C34.75,50.52,34.76,50.6,34.77,50.68Z"/><path class="cls-156" d="M31.73,52.58a.69.69,0,0,1-.76-.76C31.36,51.94,32,51.77,31.73,52.58Z"/><path class="cls-157" d="M32.11,50.3h-.38L31,49.54C31.52,49.54,32.07,49.53,32.11,50.3Z"/><path class="cls-158" d="M40.09,45.37c.49,1.3,2,.3,2.65,1.13-.4.61-1.37.29-1.69,1a1.51,1.51,0,0,0,.11.89c.21.35.26.76.44,1.12-.46.56-.74.15-1-.19C39.1,47.68,36.91,47,35.3,45.5c-.19-.17-.6-.1-.91-.14a9.52,9.52,0,0,0-5.14-1.66,2.24,2.24,0,0,1-1.71-.63v-.74l.21-.21A2.35,2.35,0,0,1,29.43,42c3-.07,5.22,1.63,7.42,3.34.84.36,1.7,1.76,2.5,0A.57.57,0,0,1,40.09,45.37Z"/><path class="cls-159" d="M34,49.92c-.81-.58-1-1.93-2.28-1.9-.55-.46-.77-1.26-1.52-1.52-.78-1.1-2.52-1.36-2.66-3,.78-.49,1,.31,1.47.61A9.08,9.08,0,0,1,30.8,45.5a17.8,17.8,0,0,0,2.53,2.14,4.26,4.26,0,0,1,.38.35c.94,1.43,2.51.91,3.81,1.24.44.23.85.46.67,1.07H36A3.16,3.16,0,0,1,34,49.92Z"/><path class="cls-160" d="M28.7,44.6c-.5-.25-.32-1.2-1.15-1.14,0-.13,0-.26,0-.39,2.38.48,5.2-.38,6.85,2.29v.75a.54.54,0,0,1-.46.12,14.77,14.77,0,0,0-1.73-1C31.1,44.68,30.08,43.68,28.7,44.6Z"/><path class="cls-86" d="M26.75,43.1c-.83-.26-1.16-1.12-1.87-1.52a1,1,0,0,1,.5-.34c.91,0,1.88-.13,2.18,1.09h0Z"/><path class="cls-161" d="M25.28,41.56l-.4,0-.74,0L23,40.81c-.6-.52-1.5-.51-2-1.16a.78.78,0,0,1,0-.77c.53-.4,1-.16,1.53.07a7.31,7.31,0,0,1,.65.43,15.62,15.62,0,0,1,2.17,1.72A.39.39,0,0,1,25.28,41.56Z"/><path class="cls-162" d="M24.1,43.85l.41-1.17c.91.43.59,1.17.2,1.62S24.22,44.13,24.1,43.85Z"/><path class="cls-163" d="M21.18,39.62A1.88,1.88,0,0,1,23,40.81a1.33,1.33,0,0,0-1.5.73l-1.12-.74c-.25-.26-.49-.52-.74-.77A1.68,1.68,0,0,1,21.18,39.62Z"/><path class="cls-164" d="M21.18,39.62c-.4.58-1,.39-1.56.41l-.4-.37c-.25-.26-.51-.51-.77-.76.49-.27,1.35.74,1.56-.46a.82.82,0,0,0,.35,0,.6.6,0,0,1,.72.5Z"/><path class="cls-165" d="M39.7,18.78c.44,1.08,1.86,1.18,2.28,2.28-.65,0-1-.55-1.52-.76a3.21,3.21,0,0,1-3-2.29l1.14.38C38.84,18.82,39.28,18.76,39.7,18.78Z"/><path class="cls-166" d="M28.7,44.6c.56-1.73,1.73-.54,2.61-.48.41,0,.79.56,1.18.86s1,.8,1.52,1.14h.38C35,46.73,36,47,36.31,48c.33.32.82.29,1.17.53.57.4.43.68-.21.79a4.17,4.17,0,0,1-4-1.32h0a14.13,14.13,0,0,0-2.66-2.28C29.89,45.47,29.57,44.59,28.7,44.6Z"/><path class="cls-167" d="M41.6,49.54a1.16,1.16,0,0,1-.75-1.14c.36-.49-.07-.59-.38-.75.18-1.53,1.37-1,2.27-1.15l.38.37c-.34.32-.28.91-.76,1.15Z"/><path class="cls-168" d="M37.43,49.16c0-.71-1.1-.42-1.12-1.14,1.9-.3,2.41,1.7,3.78,2.28h-1.9a1.34,1.34,0,0,0-.77-.76c-.12-.09-.16-.17-.12-.26S37.38,49.16,37.43,49.16Z"/><path class="cls-169" d="M39.7,52.58h-.37c-.6-1.24.63-1.1,1.14-1.51v-.35C41.29,51.78,40.33,52.11,39.7,52.58Z"/><path class="cls-170" d="M43.13,47.64h.37a.86.86,0,0,1,.29.89,1.46,1.46,0,0,1-.2.46,1.48,1.48,0,0,1-1,.65l-.23-.11,0-1.11C42.61,48.15,42.68,47.71,43.13,47.64Z"/><path class="cls-139" d="M43.13,47.64l-.75.78c0-.13,0-.27,0-.4a1.22,1.22,0,0,1,.76-1.15C43.12,47.13,43.12,47.38,43.13,47.64Z"/><path class="cls-170" d="M43.14,50.31l0,.36c-.82,0-1.5-.09-.76-1.14l0,0C42.64,49.78,43,49.91,43.14,50.31Z"/><path class="cls-171" d="M44.65,46.51H45c.3.7,1.94.29,1.4,1.68-.42.38-1.05.49-1.37,1l-.4.4-.77-.07c-.34-.14-.55-.34-.37-.75h0C44,48.1,43.91,47.09,44.65,46.51Z"/><path class="cls-172" d="M45.05,49.2A1,1,0,0,1,46.17,48a.57.57,0,0,1,.21.41c0,.38-.36.52-.6.72Z"/><path class="cls-25" d="M45.78,49.16l.39-.74a.48.48,0,0,1,.74,0h.77a.77.77,0,0,1-.75.38Z"/><path class="cls-173" d="M43.51,48.78l.37.75a1.32,1.32,0,0,1-.74.78.7.7,0,0,1-.77-.76Z"/><path class="cls-80" d="M26.41,33.2c-.54.48-.77,1.26-1.52,1.53-.41.24-.82.33-1.17-.12.16-.8,1.23-.81,1.4-1.6.17-.42.25-.8-.42-.78a.77.77,0,0,1-.19-1.29c.94-.08.75-1,1.09-1.51A5.81,5.81,0,0,1,26.41,33.2Z"/><path class="cls-106" d="M24.51,30.94v.78a.75.75,0,0,1-.82.1c-.42-.34-.69-.71-.33-1.25l0-.4C24,30.07,24.1,30.73,24.51,30.94Z"/><path class="cls-174" d="M21.88,32.05l-2.35-2.23.43-.05c.8,0,.84,1,1.52,1.15.87-.07,1.25.34,1.17,1.19A.55.55,0,0,1,21.88,32.05Z"/><path class="cls-175" d="M22.62,32.06a2.52,2.52,0,0,0-1.14-1.14l.36-.72,1.51.37.51,1C23.76,32.58,23.43,33,22.62,32.06Z"/><path class="cls-176" d="M23.75,34.35c.28.44.73.36,1.14.38-.28.21-.81.45-.79.64,0,.57.6.47,1,.49.56,0,1.12,0,1.68,0,.07,1.82-1.38,1-2.22,1.28-.69,0-1.42.07-2-.54-1.1-1.19-.66-2.93-1.5-4.22l.7.1a.83.83,0,0,1,.63.28,3.93,3.93,0,0,0,1,1,1.32,1.32,0,0,1,.29.37A1.57,1.57,0,0,1,23.75,34.35Z"/><path class="cls-177" d="M22.21,32.88c-.13-.13-.26-.26-.4-.38,0-.15.05-.3.07-.45h.74c.62.38,1,.11,1.24-.46l.64.12.38.36c.21.57-.29.69-.59.94a1.92,1.92,0,0,1-.46.21A1.45,1.45,0,0,1,22.21,32.88Z"/><path class="cls-178" d="M20,31.66a1,1,0,0,1-1.22-1.11C19.56,30.55,19.89,31,20,31.66Z"/><path class="cls-179" d="M39,23.71c-1.05-1.34-2.81-1.58-4.05-2.65a2,2,0,0,1-.89-1.9c2.63,1,4.64,2.91,6.84,4.55.15.65-.25.87-.77,1C39.52,24.59,38.88,24.55,39,23.71Z"/><path class="cls-180" d="M39,23.71l1.14.76a7,7,0,0,1,2.5,1.12c.51.35,1,.77,1.68.4a8.72,8.72,0,0,1,3.24,2.51c-.54.67-1.19-.07-1.72.15-2.67-1.63-5.6-2.84-8-4.94Z"/><path class="cls-154" d="M44.27,26c-.22,1.21-1,.51-1.41.3a30.69,30.69,0,0,1-2.77-1.82,1.32,1.32,0,0,0,.76-.76Z"/><path class="cls-38" d="M37.43,18c.66,1.23,1.88,1.72,3,2.29l.39,1.13c-1.76-.87-3.57-1.67-4.18-3.81Z"/><path class="cls-155" d="M36.29,50.3c0,.42.06.87-.37,1.15-.05-.76-.59-.78-1.15-.77h0c.29-1,.94-.53,1.52-.38Z"/><path class="cls-181" d="M19.54,22.93c-.3-.34-1.34,1.54-1.11-.37C18.83,22.59,19.28,22.49,19.54,22.93Z"/><path class="cls-182" d="M32.51,24.12l.74,0a.58.58,0,0,1,.11.46,3.67,3.67,0,0,1-1.19,1.56.39.39,0,0,1-.44-.12h-.37c0-.12,0-.24,0-.36s-.15-.19-.1-.28.09-.12.13-.12Z"/><path class="cls-48" d="M31.35,25.23l0,.4c-.71-.05-.84-.68-1.13-1.15C30.79,24.4,31,25,31.35,25.23Z"/><path class="cls-183" d="M31.73,26h.36c.43-.47,2-.08,1.16-1.52v-.38c1.06-1.08,1.74.41,2.65.4a.6.6,0,0,1,.44.82,8.53,8.53,0,0,1-2.22,1.79c-.65.24-1.3.46-2,.67a1.63,1.63,0,0,1-.79,0,.84.84,0,0,1-.42-.32C30.94,26.83,31.8,26.66,31.73,26Z"/><path class="cls-184" d="M29.81,29.8c.18-.87-.35-1.86.41-2.64.29.62,1.1.82,1.29,1.53A2.42,2.42,0,0,1,31.24,30a1,1,0,0,1-.42.38C30.34,30.44,29.82,30.57,29.81,29.8Z"/><path class="cls-185" d="M29.81,29.8c.29.45.74.34,1.15.35a.63.63,0,0,1,.15.56c-.77.94-1.39.49-2-.22,0-.25,0-.49,0-.74Z"/><path class="cls-186" d="M31.34,28.65a1.79,1.79,0,0,1-1.12-1.49l.73.31.48.06a1.12,1.12,0,0,1,.2.46A.77.77,0,0,1,31.34,28.65Z"/><path class="cls-187" d="M40.47,51.06c-.37.51-1.21.67-1.14,1.51-1.41.41-1.74-.27-1.51-1.5Z"/><path class="cls-50" d="M24.51,36.64c.75-.29,1.89.61,2.28-.76.06-.52-1.52-.28-.61-1,1.18-1,1.38-2.4,2.15-3.54l.32.07a2,2,0,0,1,.61,1.72c-.09,1.15-2,1.85-.8,3.32a3.62,3.62,0,0,1,.82,1.32,1.51,1.51,0,0,1,0,.52.9.9,0,0,1-.82.59,2.33,2.33,0,0,1-.53-.06,4.2,4.2,0,0,1-.95-.47c-.85-1-1.79-.75-2.75-.21-.85.08-1.61,0-1.7-1.09C23.13,36.56,23.91,37.09,24.51,36.64Z"/><path class="cls-188" d="M29.06,33.2a3.33,3.33,0,0,1-.41-1.83l.41-.05.26.08c.63.5.57,1.22.6,1.91A2.46,2.46,0,0,0,31,35.56c.74.75,1.66,1.32,2.36,2.13a1.23,1.23,0,0,1,.09.54.88.88,0,0,1-.28.47,5,5,0,0,1-1.89.54,1.33,1.33,0,0,1-.79-.23c-.67-.78-.62-1.92-1.32-2.69a3.78,3.78,0,0,1-.49-1.06A2.81,2.81,0,0,1,29.06,33.2Z"/><path class="cls-189" d="M29.14,30.49c.61,0,1.19.86,1.84.08.23-.31.43-.73.9-.3a1.11,1.11,0,0,1,.07.89.9.9,0,0,1-.44.44,2.56,2.56,0,0,1-2.45-.29h0C29.09,31,29.11,30.76,29.14,30.49Z"/><path class="cls-190" d="M52.25,36.26l.36,0a5.57,5.57,0,0,0,1.91-1.12l.37,0c1-.2,1.39.26,1.52,1.15-.24.72-.93.85-1.51,1.13h0a2,2,0,0,1-1.84.52C52.4,37.55,52,37.08,52.25,36.26Z"/><path class="cls-191" d="M58.72,37c-.51-.25-1.13-.4-1.18-1.14.21-1.5,1.37-1.07,2.29-1.13l.39.38-.36,1a.28.28,0,0,1-.3.27C58.74,35.85,59.12,36.93,58.72,37Z"/><path class="cls-192" d="M54.9,37.38l1.51-1.13.38.38.77.75Z"/><path class="cls-193" d="M54.52,35.12a1.81,1.81,0,0,1-1.91,1.12l.39-.37C53.53,35.67,53.86,35.05,54.52,35.12Z"/><path class="cls-194" d="M60.59,36.19c.53-.28.94,0,.86.48A2,2,0,0,1,60,38.24c-.71.23-.84-.3-.92-.83a.56.56,0,0,1,.17-.89C59.79,36.83,60.29,36.93,60.59,36.19Z"/><path class="cls-195" d="M59.43,36.62l-.36.79c-.12-.13-.23-.27-.35-.41s-.06-.49-.06-.74-.61-.88.11-1,.67.51.7,1c.1.1.13.2.08.29S59.47,36.62,59.43,36.62Z"/><path class="cls-196" d="M59.43,36.62l0-.42.39-.11.73.1a1.64,1.64,0,0,1-.53,1.28Z"/><path class="cls-192" d="M53,37.76l1.89-.37v.76H52.62C52.54,37.81,52.64,37.65,53,37.76Z"/><path class="cls-197" d="M46.16,35.14v1.49a6.1,6.1,0,0,1-1.76.27,1.54,1.54,0,0,1-.52-.09,1.35,1.35,0,0,1-.54-.57,1.23,1.23,0,0,1,0-.78,7.53,7.53,0,0,1,1.1-1.41c.66-.54,1.1-.17,1.5.37A1.16,1.16,0,0,1,46.16,35.14Z"/><path class="cls-144" d="M46.16,35.14l-.38-.41c-.15-.38.1-.49.39-.58.89,0,1.44,1,2.39.78,1.23.12,2.54-.31,3.65.53l0,.06A5.37,5.37,0,0,1,46.16,35.14Z"/><path class="cls-198" d="M49.58,38.91c-.55.4-.33,1-.38,1.51-.45.22-.79-.09-1.17-.23a3.66,3.66,0,0,1-.46-.18,2.13,2.13,0,0,1-.42-.23,1.89,1.89,0,0,1-.54-.79,2.38,2.38,0,0,1-.2-1.15c.08-.25.33-.31.51-.45C47.52,38.4,48.94,38,49.58,38.91Z"/><path class="cls-193" d="M53,37.76l-.39.39A5.76,5.76,0,0,1,50,37.39c1,.06,1.29-1.21,2.28-1.13C52.5,36.76,52.75,37.26,53,37.76Z"/><path class="cls-19" d="M46.54,37.77l.38,1.14c-1.41-.15-2.49-.68-2.66-2.28a1.56,1.56,0,0,1,1.9,0l.38.38C46.28,37.26,46.39,37.51,46.54,37.77Z"/><path class="cls-199" d="M46.54,37.77c-.19-.1-.53-.17-.56-.3-.09-.41.29-.41.56-.46l.38.38Z"/><path class="cls-143" d="M48.07,41.57c0,.12,0,.25,0,.37-.88,1.39-1.74.41-2.6,0a6.79,6.79,0,0,0-1.7-1.15,3.22,3.22,0,0,1-1.24-1c-.2-.32-.4-.63-.12-1,1.18-.56,1.78.49,2.61.92a10.83,10.83,0,0,0,1.38,1l.42.21C47.23,41.17,47.75,41.15,48.07,41.57Z"/><path class="cls-200" d="M45.41,41.56c.89.06,1.62,1.3,2.65.38.64.1,1.37-.25,1.9.38-.84-.06-1,.76-1.5,1.16l-.22-.07-.42-.17c-.94-.19-2-.13-2.52-1.21A.61.61,0,0,1,45.41,41.56Z"/><path class="cls-201" d="M48.07,41.57c-.53-.06-1.13.17-1.53-.38.58-.44,1.28-.75,1.52-1.52l1.14.75h.38c.25.71-.52.74-.76,1.13Z"/><path class="cls-143" d="M48.82,41.56c0-.58.53-.74.76-1.13.39,0,.81.19.66.66C50,41.82,49.32,41.48,48.82,41.56Z"/><path class="cls-25" d="M48,46.49H47.3a1,1,0,0,1-.35-.69,1.41,1.41,0,0,1,.18-.78.85.85,0,0,1,.45-.26.67.67,0,0,1,.48.21v.38Z"/><path class="cls-200" d="M48.06,45h-.38c-.45-.86-.37-1.45.76-1.52l0,0A2.67,2.67,0,0,1,48.06,45Z"/><path class="cls-202" d="M52.21,35.46l-4.14,0a6.3,6.3,0,0,0-.65-.62c-.9-.64-.53-1,.26-1.27.36-2.08.44-2.11,2.2-1.07a4.67,4.67,0,0,0,.84.31c.57.49,1.32.67,1.9,1.14l.38.37A1.25,1.25,0,0,0,52.21,35.46Z"/><path class="cls-128" d="M24.51,36.64c-.54.62-1.29.26-1.94.4a1.23,1.23,0,0,1-1.08.35,1,1,0,0,1-.73-.43,1.4,1.4,0,0,0-.09-.29l1.94-.05Z"/><path class="cls-203" d="M20.76,37l.71.08c1,.32,1.79,1.22,3,.92a.72.72,0,0,1,.5.12.55.55,0,0,1,0,.5c-.6.6-1.42.2-2.08.47a.9.9,0,0,1-.27.28l-1.51-.41-.72-.5C20.38,37.9,20.18,37.32,20.76,37Z"/><path class="cls-204" d="M43.51,44.23c-1.21-.51-1.92-1.93-3.42-1.91-1.2-.44-2.15-1.37-3.36-1.79a.7.7,0,0,1-.16-.5,1.13,1.13,0,0,1,.55-.57c1-.36,1.6.39,2.31.86a6.05,6.05,0,0,0,2.06,1.21,3.11,3.11,0,0,1,.92.48,5.35,5.35,0,0,1,.55.51,2.24,2.24,0,0,1,.76,1.27A.76.76,0,0,1,43.51,44.23Z"/><path class="cls-205" d="M40.83,43.47l1.15.76c.19.43-.06.67-.39.87a15.76,15.76,0,0,0-2-.56c-.8-.46-1.65-.87-1.94-1.87a1.09,1.09,0,0,1,.59-.92,1,1,0,0,1,1.27.26C39.63,42.77,40.5,42.87,40.83,43.47Z"/><path class="cls-206" d="M43.51,44.23v-.39c1.35-.74,2,.23,2.78,1.06a.8.8,0,0,1-.13.85C45,45.78,43.75,45.84,43.51,44.23Z"/><path class="cls-168" d="M37.81,42.7l1.89,1.54a.93.93,0,0,1,.39.74v.39h-.76l-.24,0a7.93,7.93,0,0,1-1.2-.89c-.56-.49-1.44-.75-1.28-1.77a.91.91,0,0,1,.74-.23A1,1,0,0,1,37.81,42.7Z"/><path class="cls-207" d="M39.33,42.32c-.28-.43-.73-.36-1.14-.37-.77.21-1-.45-1.46-.83a.83.83,0,0,1-.18-.48,2.53,2.53,0,0,1,.13-.22,3.88,3.88,0,0,1,3.41,1.9v.38C39.66,42.94,39.54,42.54,39.33,42.32Z"/><path class="cls-173" d="M44.65,46.51a2.42,2.42,0,0,1-1.14,2.27c0-.38,0-.76,0-1.14A1.06,1.06,0,0,1,44.65,46.51Z"/><path class="cls-173" d="M46.91,48.39l-.74,0V48c.41-1.11-1.48-.48-1.15-1.52C46,46.84,47.25,46.8,46.91,48.39Z"/><path class="cls-208" d="M41.61,45c.12-.25.24-.5.37-.75.65.06.93.41.59,1s-.83.72-1.35.15C41.25,45.14,41.45,45.08,41.61,45Z"/><path class="cls-209" d="M46.16,45.75V45a.64.64,0,0,1,.45-.19c.57.06.4.66.68.93v.77C46.52,46.87,46.5,46.07,46.16,45.75Z"/><path class="cls-210" d="M41.61,45l-.39.39L40.09,45a.81.81,0,0,1-.39-.75A5.52,5.52,0,0,1,41.61,45Z"/><path class="cls-208" d="M39.33,42.32l.77.38a.68.68,0,0,1,.73.77C40.37,43,39.38,43.29,39.33,42.32Z"/><path class="cls-123" d="M37.81,25.23c2.78,1.65,5.55,3.31,8.34,4.93a1.51,1.51,0,0,1,.78,1.55c.1.76-.32,1-1,.91-.39-.17-.37-.55-.46-.88-1.44-1.42-1.73-1.38-3.06.35a4,4,0,0,1-.24.46,3.16,3.16,0,0,1-1,1.15.53.53,0,0,1-.47-.18c.3-1.74-.84-2.5-2.14-3.16a3,3,0,0,1-1.62-1.45c.17-.66-.28-.83-.77-.95-.92-1.15.41-1.11.82-1.56.34-.25.42-.67.63-1Z"/><path class="cls-211" d="M45.73,32.4a1,1,0,0,0,1.2-.69c.7.51.15,1,0,1.51a2.41,2.41,0,0,1-.78,1.13l-.37.38c-.41,0-.46-1.14-1.15-.41a.27.27,0,0,1-.42.09c-.34-.56,0-.94.33-1.34a2.83,2.83,0,0,1,.32-.37A.88.88,0,0,1,45.73,32.4Z"/><path class="cls-212" d="M46.15,34.35a1.15,1.15,0,0,1,.78-1.13.79.79,0,0,0,.75.37c-1.1.88.75,1.16.39,1.89C47.18,35.53,46.87,34.6,46.15,34.35Z"/><path class="cls-212" d="M52.62,34a2.38,2.38,0,0,1-1.9-1.14A2.32,2.32,0,0,1,52.62,34Z"/><path class="cls-123" d="M36.29,24.09a1.8,1.8,0,0,1,1.52,1.14h0a.74.74,0,0,1-.76.18C36.64,25.05,36.14,24.76,36.29,24.09Z"/><path class="cls-48" d="M36.29,24.09l.76,1.14a.64.64,0,0,1-.43.51.53.53,0,0,1-.43-.13.3.3,0,0,1,.09-.39c-.12-.25-.25-.49-.38-.73s0-.27,0-.4Z"/><path class="cls-113" d="M36.29,50.3c-.53.05-1.12-.17-1.52.38a1.3,1.3,0,0,1-.76-.76C34.77,50,35.62,49.62,36.29,50.3Z"/><path class="cls-213" d="M36.67,45.74a13.36,13.36,0,0,1-2.68-2c-1.26-1.51-3.2-.47-4.54-1.46a1,1,0,0,1,.42-.33c1.45.06,2.26-.45,2.16-2.07a1.06,1.06,0,0,1,1.27-1.22.62.62,0,0,1,.44.25.7.7,0,0,1-.23.69.68.68,0,0,1-.46.14,2.3,2.3,0,0,1,.44.23,2.88,2.88,0,0,1,.61.82c1.16,1,2.23,2.16,3.42,3.15a1.81,1.81,0,0,1,.87,1.36C38,46.25,37.33,46,36.67,45.74Z"/><path class="cls-82" d="M29.84,42.32H27.56a3.69,3.69,0,0,0-2.28-.77c0-.12,0-.24,0-.36.79-.74,1.71-.48,2.59-.29a2.38,2.38,0,0,0,1.94,0,1.6,1.6,0,0,1,.51-.2.6.6,0,0,1,.46.27C31.15,41.86,30.41,42,29.84,42.32Z"/><path class="cls-214" d="M36.67,45.74c.6-.07,1.39.26,1.52-.76l.23-.1a3.3,3.3,0,0,1,.91.48h0c-.24.47.55,1.15-.22,1.47a1.23,1.23,0,0,1-1.37-.38A5.38,5.38,0,0,0,36.67,45.74Z"/><path class="cls-215" d="M40.47,47.65l1-.48a6.89,6.89,0,0,1,.15.89c0,.63-.39.47-.75.34A.78.78,0,0,1,40.47,47.65Z"/><path class="cls-216" d="M37.43,49.16c0,.13,0,.25,0,.38-1.57,0-3.28.37-4.17-1.52C34.56,48.69,35.83,49.52,37.43,49.16Z"/><path class="cls-216" d="M30.59,45.74A4,4,0,0,1,33.25,48C32.29,47.34,31.18,46.85,30.59,45.74Z"/><path class="cls-216" d="M34,46.12A1.79,1.79,0,0,1,32.49,45,1.82,1.82,0,0,1,34,46.12Z"/><path class="cls-217" d="M30.22,41.19a1.76,1.76,0,0,1-2.2.25,6.39,6.39,0,0,0-2.75-.24c-1-.13-1.51-1-2.3-1.51,2.23-1.56,4.12-.37,6,.72A3.58,3.58,0,0,1,30.22,41.19Z"/><path class="cls-218" d="M29.07,40.82c-.24,0-.59,0-.72-.09-1.57-1.56-3.46-1.34-5.38-1l-.38-.36c0-.14,0-.28,0-.43.68-.36,1.41-.09,2.11-.18a2.92,2.92,0,0,1,1.7-.21,2,2,0,0,0,1.53,0,1.5,1.5,0,0,0,.29.06c.56.37,1.2.67,1.18,1.49A1,1,0,0,1,29.07,40.82Z"/><path class="cls-219" d="M24.11,32.8l.77-.72c.3,0,1-1.44.85.22,0,.3-.05.6-.08.9a1.25,1.25,0,0,1-1.46.15A.4.4,0,0,1,24.11,32.8Z"/><path class="cls-220" d="M24.16,33.17l1.49,0a1.8,1.8,0,0,1-1.9,1.15h0A.92.92,0,0,1,24.16,33.17Z"/><path class="cls-221" d="M22.21,32.88c.53,0,1.05.3,1.57,0,.32.54,0,.83-.41,1.08A1.09,1.09,0,0,1,22.21,32.88Z"/><path class="cls-80" d="M23.37,34c.14-.36.28-.72.41-1.08a1.23,1.23,0,0,1,.33-.08c0,.12,0,.25.05.37-.13.39-.27.79-.41,1.18Z"/><path class="cls-222" d="M33.25,24.47l1.66.76c-1.22.14-1.7,1.35-2.82.76C32.46,25.48,32.56,24.75,33.25,24.47Z"/><path class="cls-223" d="M36.28,25.22v.41c0,1.09-1,1.46-1.51,2.15l-.35.36c-.8.55-1.25,1.58-2.35,1.72-.52-.44-.25-1.09-.43-1.62l-.24-.42a2.83,2.83,0,0,1,0-.29l.68,0c.63-.26,1.38-.22,1.9-.75C34.9,26.43,35.23,25.29,36.28,25.22Z"/><path class="cls-182" d="M34,26.76c-.38.88-1.16.76-1.9.75A3.67,3.67,0,0,1,34,26.76Z"/><path class="cls-224" d="M31.77,27.88c.57.55.26,1.25.33,1.89a.45.45,0,0,1-.37.4l-.75.4c0-.14,0-.28,0-.42s0-.24,0-.36C31.55,29.28,31.42,28.48,31.77,27.88Z"/><path class="cls-182" d="M31.77,27.88c-.06.72.09,1.53-.8,1.91.13-.38.25-.76.37-1.14s.05-.55.07-.83A2.25,2.25,0,0,0,31.77,27.88Z"/><path class="cls-225" d="M29.06,33.2v2.29a1.06,1.06,0,0,1-.76,1.14c-1-.36-1.21-1.07-.57-1.85C28.17,34.25,28.35,33.49,29.06,33.2Z"/><path class="cls-226" d="M29.45,36.25c1.21.52.85,1.73,1.15,2.65-.89.51-1.14-.26-1.52-.76,0-.12,0-.25,0-.37C28.75,37.15,28.71,36.6,29.45,36.25Z"/><path class="cls-227" d="M29.08,38.14l1.52.76h.75a.36.36,0,0,1,.09.3c0,.11,0,.16-.06.16-.57.26-1.25.32-1.62.92a.57.57,0,0,1-.63-.33l-.89-1.4C28.57,38.52,28.9,38.48,29.08,38.14Z"/><path class="cls-228" d="M24.9,38.15l-.4,0c-.13-.09-.17-.18-.14-.28s.07-.15.11-.15c1.12-1.2,2-.7,2.73.43a.93.93,0,0,1-.42.31C26.1,38.66,25.57,38,24.9,38.15Z"/><path class="cls-229" d="M29.45,36.25a2.52,2.52,0,0,0-.38,1.52l-.76-1.14.76-1.14A.79.79,0,0,1,29.45,36.25Z"/><path class="cls-147" d="M24.47,37.7l0,.43a3.33,3.33,0,0,1-3-1.09h1.1C23,37.81,23.73,37.79,24.47,37.7Z"/><path class="cls-230" d="M26.79,38.18l.41,0c.29,0,.62,0,.75.37-.16.77-.5,1-1.16.41A.49.49,0,0,1,26.79,38.18Z"/><path class="cls-231" d="M31.35,39.29v-.38a3.11,3.11,0,0,1,1.89-.39c.4-.28.68-.2.85.26a.31.31,0,0,1-.44.15c-2.19.45-.94,2.15-1.27,3.39H29.84c.4-.42.9-.8.75-1.51C31.61,40.69,31.49,40,31.35,39.29Z"/><path class="cls-232" d="M29.06,31.31l2.6,0c.18,1-.92.69-1.2,1.2-.5,1.26.49,2,1,2.9a.88.88,0,0,1,0,.53.32.32,0,0,1-.47,0c-1.25-.24-1.44-1.21-1.49-2.23A4.38,4.38,0,0,0,29.06,31.31Z"/><path class="cls-233" d="M31,35.88l.43,0a1.38,1.38,0,0,1,1.26.2,2.84,2.84,0,0,0,3.1.44.59.59,0,0,1,.41.39A1,1,0,0,1,35.78,38a2.39,2.39,0,0,1-2.53-.23A4.65,4.65,0,0,1,31,35.88Z"/><path class="cls-234" d="M34,38.91a.81.81,0,0,0-.77-.39c0-.13,0-.25,0-.38A7.41,7.41,0,0,1,35.73,38a.8.8,0,0,1,.59.21.67.67,0,0,1-.14.89A1.72,1.72,0,0,1,34,38.91Z"/><path class="cls-235" d="M35.91,38.14H33.25v-.37h2.64A.25.25,0,0,1,36,38C36,38.1,35.93,38.14,35.91,38.14Z"/><path class="cls-236" d="M29.84,32.07c.39-.76,1.44,0,1.82-.8,0-.11.05-.23.07-.35.37-.52.68-1.1,1.35-1.31A9.4,9.4,0,0,1,39.9,34a1,1,0,0,1-.56.64,3.79,3.79,0,0,1-3.85-.88c-1.1-.47-2-2-3.44-.66a1,1,0,0,1-.4.62C30.37,33.91,30.37,32.7,29.84,32.07Z"/><path class="cls-237" d="M32.9,29.78a2.68,2.68,0,0,1-1.17,1.14v-.75l.37-.4a10.51,10.51,0,0,1,2.19-2l.21.14a.91.91,0,0,1,0,.49A1.86,1.86,0,0,1,32.9,29.78Z"/><path class="cls-238" d="M48.06,39.67c.71,1.72-.48,1.54-1.52,1.52h0c-.52-.36-1-.81-1.52-1.14-1,0-1.48-1.43-2.65-1.14-1.37-.62-1.47-1-.56-1.81a1.37,1.37,0,0,1,.53.08c.84.72,1.21.13,1.55-.55h.37c.59,1.11,1.71,1.59,2.66,2.28l.4.74c-.08.1-.11.27,0,.28s.28-.14.4-.26Z"/><path class="cls-239" d="M43.89,36.63c-.15.48.71,1.11-.11,1.43-.55.21-1.28.27-1.41-.66a3.12,3.12,0,0,1,.93-1l.21-.1Z"/><path class="cls-240" d="M43.52,35.49c0,.26,0,.51,0,.76h0c-.35.34-.51,1-1.22.79a1.18,1.18,0,0,1-.17-.52c.17-.76.39-1.48,1.37-1.5.11.1.16.2.13.3S43.56,35.49,43.52,35.49Z"/><path class="cls-241" d="M43.52,35.49l0-.39c-.21-.38,0-.61.27-.83a.43.43,0,0,1,.45,0h.41A2.16,2.16,0,0,1,43.52,35.49Z"/><path class="cls-242" d="M47.68,39.67c-.08.42,0,1-.7.87-.29-.06-.64-.36-.5-.67s.55-.15.84-.22Z"/><path class="cls-243" d="M42.35,36.6V37c0,.23-.25.26-.38.39-1,.8.25,1,.39,1.53l.39.74a1.7,1.7,0,0,1-.19.19,1.11,1.11,0,0,1-.78.07,2.51,2.51,0,0,1-1.51-2.06,1.19,1.19,0,0,1,.06-.53,2.16,2.16,0,0,1,1.28-.91A.79.79,0,0,1,42.35,36.6Z"/><path class="cls-244" d="M45.41,41.56V42c.15.33-.06.42-.32.49a2.46,2.46,0,0,1-1.32-1.1,1.07,1.07,0,0,1-.12-.49.65.65,0,0,1,.24-.42A1.82,1.82,0,0,1,45.41,41.56Z"/><path class="cls-201" d="M45,40.05a1.77,1.77,0,0,1,1.52,1.14A1.82,1.82,0,0,1,45,40.05Z"/><path class="cls-243" d="M43.89,40.43v.39c-1.07.3-1.45-.07-1.14-1.14l0,0Z"/><path class="cls-209" d="M45,42.32l.38-.37c.78,1,2.13.45,3,1.14a2.54,2.54,0,0,1-1,.42,5.54,5.54,0,0,1-.56.05,4,4,0,0,1-1.14-.15C45.27,43.19,44.85,42.94,45,42.32Z"/><path class="cls-245" d="M47.29,43.09h1.15v.37c-.68.29-.78.87-.76,1.52h-.37A1.34,1.34,0,0,1,47.29,43.09Z"/><path class="cls-246" d="M47.29,43.09c0,.63,0,1.27,0,1.9,0,.25,0,.49,0,.74L46.55,45a1.14,1.14,0,0,1,.38-1.89Z"/><path class="cls-247" d="M26.79,38.18v.73h-1.9c-.13-.09-.18-.17-.13-.25s.09-.12.13-.12,0-.25,0-.38C25.54,37.21,26.16,38.46,26.79,38.18Z"/><path class="cls-248" d="M24.89,38.53v.37H22.61C23.26,38.11,24.14,38.7,24.89,38.53Z"/><path class="cls-249" d="M42.74,39.68a1.1,1.1,0,0,0,1.14,1.14c0,.12,0,.24,0,.37.17.41.73.8.17,1.26s-1.15.18-1.7-.12l-.75-.39c-.22-.31-1-.07-.8-.81A1.47,1.47,0,0,0,42,39.67Z"/><path class="cls-245" d="M46.93,43.09A3,3,0,0,0,46.55,45h-.39c-.93-.28-1.51-1.37-2.65-1.15-.26-.38-.51-.76-.77-1.13,1.09-.47,2,.67,3,.38Z"/><path class="cls-250" d="M45.78,43.09c-1.16,1.1-2-.3-3-.38l-.38-.38c.69-.14,2,.53,1.53-1.14A2.36,2.36,0,0,1,45,42.32,1.3,1.3,0,0,0,45.78,43.09Z"/><path class="cls-251" d="M40.85,41.18l.76.76c-1.32.13-1.94-1-2.88-1.6-.54-.33-1-.75-1.68-.67l0-.28c.4-.58,1-.51,1.51-.36C39.36,39.68,40.43,40.08,40.85,41.18Z"/><path class="cls-251" d="M34,38.91h2.28l.22.05c.3.14.38.45.54.7h0l-.38.38c-.37.21-.7,0-1-.08-.64-.33-1.47,0-2-.68,0-.12,0-.24,0-.36Z"/><path class="cls-207" d="M35.91,39.67l.76.38c0,.12,0,.24,0,.37h0c-.86.49-1.41.28-1.6-.72A.56.56,0,0,1,35.91,39.67Z"/><path class="cls-252" d="M36.67,40.8c.81,0,.85,1,1.52,1.15l-.38.75h-.37c-.85-.35-1.89-.48-2-1.7C35.78,40.48,36.21,40.53,36.67,40.8Z"/><path class="cls-214" d="M38.19,45c-1.31-1-2.59-2.1-3.92-3.11a1.32,1.32,0,0,1-.63-1.08c1.53-.19,2.22,1,3,1.91.27.74,1,1,1.52,1.52a.52.52,0,0,1,0,.76Z"/><path class="cls-207" d="M36.67,42.7a14.07,14.07,0,0,0-3-1.91L33.26,40c1.32-.74,1.78.24,2.28,1.14l1.9,1.51Z"/><path class="cls-253" d="M38.19,45v-.76a2.43,2.43,0,0,1,1.14,1.14Z"/><path class="cls-254" d="M35.54,41.18c-.77-.36-1.23-1.34-2.28-1.14a1.3,1.3,0,0,1-.14-.26s.09-.08.13-.11a2.18,2.18,0,0,1,1.9,0,1.35,1.35,0,0,0,1.51.76c0,.12,0,.25,0,.37C36.26,40.82,35.81,40.73,35.54,41.18Z"/><path class="cls-255" d="M45.73,32.4l-.66.46a12.57,12.57,0,0,0-3.71,2.29c-.66-.47-.53-1-.18-1.61a1.22,1.22,0,0,1,.88-1.08,2.15,2.15,0,0,1,1.11-.68c.47-.19,1.53.3,1.08-1,.91-.32,1.26.57,1.88.86Z"/><path class="cls-256" d="M37,28.67a6.11,6.11,0,0,0,2.64,1.74c1.52.71,1.93,1.65,1.17,3.13a.36.36,0,0,1-.47,0,1.82,1.82,0,0,1-.26-.45c-.31-1.69-2-1.74-3-2.61-.3-.29-.55-.61-.82-.92a1,1,0,0,1-.19-.45c0-.08,0-.16,0-.24a.73.73,0,0,1,.28-.39A.59.59,0,0,1,37,28.67Z"/><path class="cls-257" d="M40.5,33.62a1.16,1.16,0,0,0,.32-.08,1.09,1.09,0,0,0,.36,0c.11.52-.15,1.15.41,1.55l.18.2c.19,1.17-.69,1.48-1.48,1.87a1,1,0,0,1-.67-.34,1.85,1.85,0,0,1-.23-.44,5.11,5.11,0,0,1-.25-1,1,1,0,0,1,.11-.46c.27-.38.8-.52.91-1A.85.85,0,0,1,40.5,33.62Z"/><path class="cls-258" d="M34.37,27.49l1.92-1.86.37,0c1.28-.29,1,.46.77,1.15-.26.5-1.62-.09-1.12,1.14a.47.47,0,0,1,0,.71v.07C35.39,28.7,35,27.91,34.37,27.49Z"/><path class="cls-259" d="M46.13,31.69l-1.89-.75c-.82-.3-.5.78-1,.85a1.71,1.71,0,0,1-1.14.29C43.07,29.67,44.35,29.54,46.13,31.69Z"/><path class="cls-260" d="M36.3,28.6c0-.23,0-.47,0-.71.45-.21.95-.55,1.28.11s-.23.58-.58.67Z"/><path class="cls-153" d="M37.43,26.75c0-.56,0-1.1-.77-1.15l.39-.37h.76C37.76,25.76,38,26.35,37.43,26.75Z"/><path class="cls-261" d="M42.08,32.08l1.05-.39c.09.09.13.17.1.25s-.07.13-.1.13c-.25.43-.68.36-1.07.39C42.07,32.33,42.08,32.2,42.08,32.08Z"/><path class="cls-257" d="M41.59,35.09c.47-1.83,1.76-2.36,3.48-2.23a3.2,3.2,0,0,1-.07.33,12.75,12.75,0,0,0-2.28,1.72,1.28,1.28,0,0,1-.65.39.62.62,0,0,1-.46-.19Z"/><path class="cls-262" d="M42.36,34.73A3.76,3.76,0,0,1,45,33.19c-.16.45-.81.55-.78,1.13l-.29.06C43.42,34.55,43,35,42.36,34.73Z"/><path class="cls-263" d="M35.15,39.67h-1.9l.38-.38c.76.12,1.61-.32,2.28.38Z"/><path class="cls-264" d="M31.35,39.29c1.35.31.55,1.07.3,1.64-.41.9-.71,0-1.06-.12l-.31-.05c-.39-.08-.61-.27-.45-.7C30.07,39.27,30.67,39.21,31.35,39.29Z"/><path class="cls-265" d="M29.83,40.06l.45.7-.06.43c-.42,0-.87.06-1.15-.37l.06-.86Z"/><path class="cls-237" d="M34.37,27.49c1-.17,1.39.6,1.92,1.18v.39c-.7.45-1.09-.07-1.52-.46-.16-.2-.18-.47-.34-.67l-.13-.13A1.57,1.57,0,0,0,34.37,27.49Z"/><path class="cls-266" d="M29.84,32.07c.84.22.91,1.4,1.85,1.51a.91.91,0,0,1,.41.55,2.1,2.1,0,0,1,.12.7.81.81,0,0,1-.87.66C29.88,34.78,29.71,33.49,29.84,32.07Z"/><path class="cls-267" d="M31.35,35.49l.75-.71.19-.18a.65.65,0,0,1,.83.44,1.23,1.23,0,0,1,0,.78.83.83,0,0,1-.61.46l-1.09-.43Z"/><path class="cls-268" d="M32.47,36.28l.43-.43c1.14-.62,2.13-.71,2.65.78C34.34,38.08,33.4,37.25,32.47,36.28Z"/><path class="cls-269" d="M35.55,36.63a3,3,0,0,0-2.65-.78c0-.26,0-.52,0-.78a2.61,2.61,0,0,1,3.1.69.79.79,0,0,1-.11.87Z"/><path class="cls-270" d="M35.91,36.63v-.76c-.22-.34-.52-.64-.48-1.09a.69.69,0,0,1,.64-.28,1.27,1.27,0,0,1,.45.19c.31.36.93.42,1,1a5.8,5.8,0,0,0-1,2.27l-.2.17h-.37c0-.12,0-.25,0-.38C35.9,37.39,35.91,37,35.91,36.63Z"/><path class="cls-271" d="M36.29,38.91c0-.26,0-.51,0-.77h0l.17-.16.22-.08c.46-.07.9-.42,1.4-.13,1.13.9,1.13.9.2,1.31-.66-.1-1.36.25-2-.18Z"/><path class="cls-272" d="M40.5,33.62a2.81,2.81,0,0,1-.08.31.45.45,0,0,1-.7.08,15.12,15.12,0,0,0-6.82-4.23l1.49-1.51A7.51,7.51,0,0,0,37.82,31a5.37,5.37,0,0,1,2.61,2.23Z"/><path class="cls-235" d="M36.29,34.73h-.75a1,1,0,0,1-.63-.36c-.33-.41-.6-.89-1.18-1a6.5,6.5,0,0,0-1.08,0,1.21,1.21,0,0,1-.61-.24l-.31-.31c.1-1.25,1.05-.7,1.59-.63a3.9,3.9,0,0,1,2.16,1C35.75,33.73,36.47,34,36.29,34.73Z"/><path class="cls-266" d="M36.29,34.73l-.81-1.5a4.61,4.61,0,0,0,3.9,1.14c0,.68-.55.69-1,.81-.68-.19-1.53.37-2.08-.45Z"/><path class="cls-273" d="M38.18,34.73c.43,0,.88,0,1.2-.36l.34-.36.7-.08c.11.82-.61.89-1.08,1.19a.89.89,0,0,1-1.09.12A.36.36,0,0,1,38.18,34.73Z"/><path class="cls-274" d="M31.73,32.83h.39a1.66,1.66,0,0,1,.3,1.16,1.1,1.1,0,0,1-.24.42.33.33,0,0,1-.43-.08l-.06-.75C31.7,33.33,31.72,33.08,31.73,32.83Z"/><path class="cls-275" d="M37.81,31.31c-1.38-.75-3.37-.8-3.42-3l0-.34.37.31c.25.72.88.94,1.52,1.16a.67.67,0,0,1,.76.72C37.09,30.65,38,30.64,37.81,31.31Z"/><path class="cls-276" d="M42,37.38l.38-.39,1.15-.73a1.09,1.09,0,0,1-1.14,1.14Z"/><path class="cls-277" d="M42.36,34.73a2.35,2.35,0,0,1,1.57-.35l-.43.72c-.69.26-.8,1-1.15,1.5l-.73,0c-.17-.58.21-1,.38-1.53Z"/><path class="cls-278" d="M38.57,38.91c.16-.67-1.06-.4-.77-1.15-.54-.65-.27-1.24.14-1.81a.7.7,0,0,1,.47-.21c.35,0,.45.66.93.38a.3.3,0,0,1,.36.13,1,1,0,0,1,0,.34c.27.37.17,1,.75,1.17.52.62.58,1.6,1.51,1.91l.52,1.51H40.85c-.78-.61-1.8-.92-2.29-1.89-.13-.08-.17-.17-.13-.26S38.52,38.91,38.57,38.91Z"/><path class="cls-279" d="M42,35.12c-.13.51-.25,1-.38,1.53l-1.14.76c-.35.09-.5,0-.4-.4a2.1,2.1,0,0,0,1.53-1.9Z"/><path class="cls-271" d="M40.08,37l.4.4v.35c-.09.38-.26.82-.59.22a3.67,3.67,0,0,1-.16-1.39Z"/><path class="cls-280" d="M38.57,38.91v.38c-.52,0-1.11-.17-1.51.37l-.76-.75Z"/><path class="cls-281" d="M43.13,32.07v-.38c.28-.38.25-1.23,1.11-.75C45.09,32.52,43.78,32,43.13,32.07Z"/><path class="cls-282" d="M37.81,31.31c-.25-.4-.84-.58-.74-1.19.82.43,1.62.91,2.48,1.27a1.38,1.38,0,0,1,.88,1.8C39.55,32.57,38.68,31.94,37.81,31.31Z"/><path class="cls-272" d="M36.31,29.4c-.84.05-1.5-.14-1.53-1.16.52.24.84.84,1.5.82Z"/><path class="cls-283" d="M38.19,35.87c-.13.63-.26,1.26-.38,1.89-.4.07-.47,1.13-1.13.37a1,1,0,0,1,.24-.29c-.32-.1,0,.3-.24.3h-.39c0-1.07-.19-2.17,1.11-2.68,0-.64.34-.6.77-.38l1.17,0c0,.12,0,.24,0,.36C39.06,35.94,38.5,35.53,38.19,35.87Z"/><path class="cls-271" d="M38.19,35.87c.27-.45.72-.37,1.14-.39a.85.85,0,0,1,.37.77h-.33a.87.87,0,0,1-.78-.36Z"/><path class="cls-284" d="M31.75,34.33l.34,0c.09.06.13.13.11.21s-.05.11-.07.11l0,.11Z"/><path class="cls-285" d="M32.13,34.67c0-.11,0-.21,0-.32h.07a1.77,1.77,0,0,1,.41-.31,2.83,2.83,0,0,1,1.5,0c.38.06.72.26,1.11.32l.36.4.37,1.15-3-.8C32.75,34.75,32.43,34.72,32.13,34.67Z"/><path class="cls-235" d="M38.17,35.09l-.77.38c-.56,0-1.07,0-1.11-.74.63.41,1.26-.14,1.89,0C38.18,34.85,38.18,35,38.17,35.09Z"/><path class="cls-286" d="M34.39,34.35l-1.87,0a.93.93,0,0,1,0-1.18l1.14-.33C33.92,33.32,35,33.44,34.39,34.35Z"/><path class="cls-287" d="M34.39,34.35c-.25-.51-.5-1-.76-1.53a1.72,1.72,0,0,1,1.55,1.5C34.93,34.69,34.67,34.77,34.39,34.35Z"/><path class="cls-288" d="M32.49,33.15l0,1.18-.36,0c0-.5,0-1,0-1.52Z"/><path class="cls-289" d="M38.59,35.88a.81.81,0,0,1,.78.36c-.08.33.06,1-.39.9C38.28,37,38.67,36.33,38.59,35.88Z"/><path class="cls-290" d="M36.68,38.14c.11-.57-.29-1.26.44-1.8.48.81.05,1.31-.44,1.79Z"/></g></g></svg>