<svg xmlns="http://www.w3.org/2000/svg" viewBox="0 0 74 74"><defs><style>.cls-1{fill:#1e2223;}.cls-2{fill:#4b5257;}.cls-3{fill:#2e3840;}.cls-4{fill:#49525a;}.cls-5{fill:#4b545b;}.cls-6{fill:#586067;}.cls-7{fill:#36414a;}.cls-8{fill:#3d464d;}.cls-9{fill:#2f393f;}.cls-10{fill:#3a424a;}.cls-11{fill:#798185;}.cls-12{fill:#444f57;}.cls-13{fill:#47565f;}.cls-14{fill:#2b383f;}.cls-15{fill:#3b464e;}.cls-16{fill:#2a3942;}.cls-17{fill:#31424c;}.cls-18{fill:#424c54;}.cls-19{fill:#38434b;}.cls-20{fill:#2a373f;}.cls-21{fill:#374a53;}.cls-22{fill:#515d64;}.cls-23{fill:#2d3a43;}.cls-24{fill:#415159;}.cls-25{fill:#80888d;}.cls-26{fill:#323d45;}.cls-27{fill:#445661;}.cls-28{fill:#495358;}.cls-29{fill:#404c53;}.cls-30{fill:#4b5860;}.cls-31{fill:#3c474f;}.cls-32{fill:#50585d;}.cls-33{fill:#414c55;}.cls-34{fill:#656c71;}.cls-35{fill:#44505a;}.cls-36{fill:#666d70;}.cls-37{fill:#42525a;}.cls-38{fill:#5c6368;}.cls-39{fill:#545d64;}.cls-40{fill:#777d81;}.cls-41{fill:#6d7378;}.cls-42{fill:#717a7f;}.cls-43{fill:#3b464d;}.cls-44{fill:#50575d;}.cls-45{fill:#b5b9bb;}.cls-46{fill:#a7abae;}.cls-47{fill:#788187;}.cls-48{fill:#8d9397;}.cls-49{fill:#767c81;}.cls-50{fill:#636b72;}.cls-51{fill:#7f868b;}.cls-52{fill:#6b7379;}.cls-53{fill:#8f969a;}.cls-54{fill:#60686e;}.cls-55{fill:#6f747a;}.cls-56{fill:#c6c9cb;}.cls-57{fill:#757e84;}.cls-58{fill:#3d454b;}.cls-59{fill:#303a41;}.cls-60{fill:#697176;}.cls-61{fill:#70787d;}.cls-62{fill:#555d63;}.cls-63{fill:#575e63;}.cls-64{fill:#80888c;}.cls-65{fill:#8f989c;}.cls-66{fill:#353e47;}.cls-67{fill:#57606b;}.cls-68{fill:#676f74;}.cls-69{fill:#2a3439;}.cls-70{fill:#574e3e;}.cls-71{fill:#6e593c;}.cls-72{fill:#98764a;}.cls-73{fill:#3c464d;}.cls-74{fill:#263139;}.cls-75{fill:#39454f;}.cls-76{fill:#3b4750;}.cls-77{fill:#4e5962;}.cls-78{fill:#4b565f;}.cls-79{fill:#26323a;}.cls-80{fill:#47535c;}.cls-81{fill:#3c464e;}.cls-82{fill:#454a4d;}.cls-83{fill:#576167;}.cls-84{fill:#656b6e;}.cls-85{fill:#545a53;}.cls-86{fill:#667075;}.cls-87{fill:#a4aaae;}.cls-88{fill:#656b6f;}.cls-89{fill:#575d60;}.cls-90{fill:#677077;}.cls-91{fill:#424b52;}.cls-92{fill:#586066;}.cls-93{fill:#4f575d;}.cls-94{fill:#4f575b;}.cls-95{fill:#444e53;}.cls-96{fill:#838a8e;}.cls-97{fill:#525c62;}.cls-98{fill:#596369;}.cls-99{fill:#5c666c;}.cls-100{fill:#b7bcbf;}.cls-101{fill:#a2a8aa;}.cls-102{fill:#6f757a;}.cls-103{fill:#656d73;}.cls-104{fill:#aeb1b5;}.cls-105{fill:#818990;}.cls-106{fill:#8a8f92;}.cls-107{fill:#92969a;}.cls-108{fill:#b5b8ba;}.cls-109{fill:#7d8385;}.cls-110{fill:#83898d;}.cls-111{fill:#9ea3a7;}.cls-112{fill:#646e76;}.cls-113{fill:#71787c;}.cls-114{fill:#8e9498;}.cls-115{fill:#dcddde;}.cls-116{fill:#c3c7c8;}.cls-117{fill:#747d83;}.cls-118{fill:#606a71;}.cls-119{fill:#a6a8ac;}.cls-120{fill:#9da1a5;}.cls-121{fill:#8c9197;}.cls-122{fill:#a9afb2;}.cls-123{fill:#868d92;}.cls-124{fill:#9c9fa0;}.cls-125{fill:#acb1b4;}.cls-126{fill:#828a8e;}.cls-127{fill:#adb3b5;}.cls-128{fill:#979fa3;}.cls-129{fill:#a3a8ac;}.cls-130{fill:#4d5459;}.cls-131{fill:#93999c;}.cls-132{fill:#5e6469;}.cls-133{fill:#747a7e;}.cls-134{fill:#565e64;}.cls-135{fill:#576066;}.cls-136{fill:#7a8187;}.cls-137{fill:#3a444c;}.cls-138{fill:#cdd2d3;}.cls-139{fill:#9ba1a5;}.cls-140{fill:#bcc1c3;}.cls-141{fill:#787f84;}.cls-142{fill:#19252d;}.cls-143{fill:#434e57;}.cls-144{fill:#535b61;}.cls-145{fill:#6a7177;}.cls-146{fill:#8e6e33;}.cls-147{fill:#414d55;}.cls-148{fill:#5a6469;}.cls-149{fill:#3f4239;}.cls-150{fill:#b0912c;}.cls-151{fill:#6c7478;}.cls-152{fill:#5c646a;}.cls-153{fill:#767e82;}.cls-154{fill:#434e58;}.cls-155{fill:#556068;}.cls-156{fill:#616c75;}.cls-157{fill:#afb4b6;}.cls-158{fill:#747b80;}.cls-159{fill:#565f65;}.cls-160{fill:#6b7378;}.cls-161{fill:#798084;}.cls-162{fill:#848a8f;}.cls-163{fill:#899195;}.cls-164{fill:#c4c9cb;}.cls-165{fill:#4b545a;}.cls-166{fill:#636b70;}.cls-167{fill:#6a7279;}.cls-168{fill:#737a7e;}.cls-169{fill:#6a7176;}.cls-170{fill:#81888d;}.cls-171{fill:#7b8388;}.cls-172{fill:#9fa6a9;}.cls-173{fill:#81868b;}.cls-174{fill:#91979d;}.cls-175{fill:#8b9297;}.cls-176{fill:#969ca1;}.cls-177{fill:#a9aeb3;}.cls-178{fill:#dcdee0;}.cls-179{fill:#bfc4c6;}.cls-180{fill:#9ba0a4;}.cls-181{fill:#a0a5a9;}.cls-182{fill:#a0a6a9;}.cls-183{fill:#c1c6c8;}.cls-184{fill:#c1c5c8;}.cls-185{fill:#9f9a92;}.cls-186{fill:#adb1b4;}.cls-187{fill:#a8adb1;}.cls-188{fill:#909599;}.cls-189{fill:#9ca2a6;}.cls-190{fill:#a59582;}.cls-191{fill:#d5d6d9;}.cls-192{fill:#5f676c;}.cls-193{fill:#bec0c4;}.cls-194{fill:#999fa3;}.cls-195{fill:#92989b;}.cls-196{fill:#9ea3a6;}.cls-197{fill:#666e73;}.cls-198{fill:#81878c;}.cls-199{fill:#a2a7aa;}.cls-200{fill:#364048;}.cls-201{fill:#6f7a7e;}.cls-202{fill:#677175;}.cls-203{fill:#545f64;}.cls-204{fill:#5e6a74;}.cls-205{fill:#868e92;}.cls-206{fill:#7a8387;}.cls-207{fill:#a1a8aa;}.cls-208{fill:#899093;}.cls-209{fill:#737a81;}.cls-210{fill:#a9aeb1;}.cls-211{fill:#c2c6ca;}.cls-212{fill:#757c81;}.cls-213{fill:#959b9e;}.cls-214{fill:#70787c;}.cls-215{fill:#abb1b4;}.cls-216{fill:#515d67;}.cls-217{fill:#4d555b;}.cls-218{fill:#404e59;}.cls-219{fill:#59646c;}.cls-220{fill:#606b73;}.cls-221{fill:#7f878c;}</style></defs><title>거리측정기</title><g id="레이어_2" data-name="레이어 2"><g id="레이어_1-2" data-name="레이어 1"><rect class="cls-1" width="74" height="74" rx="8.33" ry="8.33"/><path class="cls-2" d="M50.41,14.33l0,6c-.31,1.48-1.4,1.6-2.62,1.49-.24,0-.57,0-.67.26s.16.39.32.53c.83.74.17,1.32-.22,1.92-.72,1.1-2.18,1.81-3,1.49a.59.59,0,0,1-.31-.29,2,2,0,0,1-.16-1,1.39,1.39,0,0,1,.32-1c.88-.43.51-1.23.55-1.89,0-.84,0-1.69.1-2.53a14.67,14.67,0,0,1,2.49-.76A2.52,2.52,0,0,0,49,15.82a2.31,2.31,0,0,1,.17-1.59.34.34,0,0,1,.3-.17Z"/><path class="cls-3" d="M44.11,7.88c1.71,0,2.16.29,2.75,1.94a4.51,4.51,0,0,0,1.48,1.76,2.69,2.69,0,0,1,1.16,2.48.59.59,0,0,0,0,.13c-.9.78-1.87.37-2.83.19-.41-.55-.25-1.2-.34-1.8s-.24-.75-.84-.68a.76.76,0,0,1-.93-.71c-.07-.55-1-.69-.83-1.44S43.34,8.37,44.11,7.88Z"/><path class="cls-4" d="M27.15,23.12l-.83-.1c-.82-.53-.45-1.36-.47-2.05-.06-2.06-.07-4.12,0-6.19a1.93,1.93,0,0,1,.4-1.33l.83-.24a.45.45,0,0,1,.36.26,38.48,38.48,0,0,1,.25,3.87,32.17,32.17,0,0,0-.07,4.5,2.22,2.22,0,0,1-.18,1.05A.36.36,0,0,1,27.15,23.12Z"/><path class="cls-5" d="M44.11,7.88a3.3,3.3,0,0,0,.4.77c.56.59.33.88-.35,1a.84.84,0,0,1-1,.29,2.55,2.55,0,0,0-2.41-.78c-.23,0-.44-.06-.51-.32a.72.72,0,0,1,.28-1Z"/><path class="cls-6" d="M40.55,7.9l0,.83c-.34.71-1,.41-1.51.42A6.85,6.85,0,0,1,36,8.94c-.32-.38-.34-.74.11-1Z"/><path class="cls-7" d="M28,11.38c.14-.69.65-.82,1.24-.84l3.2-.08a.38.38,0,0,1,.34.23.75.75,0,0,1-.26,1,3.28,3.28,0,0,1-1.78.24,10.66,10.66,0,0,1-2.52-.17A.39.39,0,0,1,28,11.38Z"/><path class="cls-8" d="M33.35,9.63c.27-.93,1-.91,1.78-1a.41.41,0,0,1,.35.18.85.85,0,0,1-.11.94,1.34,1.34,0,0,1-.92.29,2,2,0,0,1-.93-.15A.34.34,0,0,1,33.35,9.63Z"/><path class="cls-9" d="M32.47,10.46a.93.93,0,0,1,.88-.83l.12,0a.67.67,0,0,1,.07,1,.64.64,0,0,1-1-.14Z"/><path class="cls-10" d="M36.12,7.89l0,.86a1.33,1.33,0,0,0-.05.19c-.35.31-.59.09-.83-.17l-.08-.09A.86.86,0,0,1,36.12,7.89Z"/><path class="cls-11" d="M27.1,13.21l.07-.86a.65.65,0,0,1,.94-.27,1,1,0,0,1,.27.36c.15.37.25.74-.12,1.05-.4.13-.78.17-1.05-.26Z"/><path class="cls-12" d="M28,12.3l-.84,0c-.05-.62.26-.92.86-1l0,.11C28.39,11.79,28.6,12.08,28,12.3Z"/><path class="cls-13" d="M24.54,40.9c0-2.07,0-4.15,0-6.22l.85-.09a.52.52,0,0,1,.33.28,24.52,24.52,0,0,1-.08,6.29C25.13,41.53,24.81,41.3,24.54,40.9Z"/><path class="cls-14" d="M28.05,30.19c.07-1.4-.3-2.87.73-4.14.21-.26.1-.78.14-1.18l.06-.21a.73.73,0,0,1,1,0c.5.64.07,1.3,0,2a9.49,9.49,0,0,0-.57,2.8,1.14,1.14,0,0,1-.51,1C28.56,30.66,28.29,30.48,28.05,30.19Z"/><path class="cls-15" d="M28.05,30.19l.82-.05a.42.42,0,0,1,.32.09,1.33,1.33,0,0,1,.21.82c-.21.69.74.55.76,1.07A.86.86,0,0,1,30,33a1.46,1.46,0,0,1-1,.28,6,6,0,0,1-1.74-.15.36.36,0,0,1-.19-.33C27.42,32,28.35,31.3,28.05,30.19Z"/><path class="cls-16" d="M28.92,24.87c-1.66-.12-1.71-.18-1.77-1.75a.5.5,0,0,0,0-.12.83.83,0,0,1,1-.25,2.42,2.42,0,0,0,.8.86c.51.28.4.81-.05,1.19Z"/><path class="cls-17" d="M25.35,34.59c.07-1.57.12-1.62,1.75-1.75l.09.06a.66.66,0,0,1,.25.86A5.37,5.37,0,0,0,26.25,35a.67.67,0,0,1-.87-.24Z"/><path class="cls-18" d="M24.54,40.9h.86a1.07,1.07,0,0,1,1-.45,29.15,29.15,0,0,1,3.74-.07,1.06,1.06,0,0,1,.92.28,2.55,2.55,0,0,1,.09,1c-.08,1.08-.87.61-1.36.67.65.35.22.93.19,1.45-.46.22-.65.7-1,1-.58.38-1.2.14-1.8.14l-.88,0c-.92,0-1.89.32-2.7-.43a2.48,2.48,0,0,1,.61-2C24.58,42.05,24.5,41.44,24.54,40.9Z"/><path class="cls-19" d="M26.46,44.53l.7,0a3.68,3.68,0,0,0,1.32,1,1.56,1.56,0,0,1,.91,1.9A12.37,12.37,0,0,0,29.34,49c0,.55.72.51.82,1a1.18,1.18,0,0,1,.07.94c-.34.36-.83.26-1.23.32s-.6.15-.73.5c-.64.15-.7,1-1.3,1.14-.39.13-.72.17-.73-.39-.8-1.09-.81-1.09.41-1.87.53-.34.48-.87.48-1.38s-.14-1-.71-1.11-.86-.23-1-.72a1.42,1.42,0,0,0,.51-1.53A1.15,1.15,0,0,1,26.46,44.53Z"/><path class="cls-20" d="M26.46,44.53c-.09.65-.16,1.3-.25,1.95a1.14,1.14,0,0,1-.83.92c.23-1,.38-1.93-1.12-2-.46,0-.59-.49-.68-.89Z"/><path class="cls-21" d="M23.6,54.36c0-.53,0-1.06,0-1.6a4.08,4.08,0,0,1,1.8-.21.82.82,0,0,1,.31,1c-.12.5-.57.72-.89,1S24,54.73,23.6,54.36Z"/><path class="cls-22" d="M25.36,53.4l0-.85.86-.07.86,0a.4.4,0,0,1,.35.24c.19.39.22.74-.23,1C26.56,53.82,25.82,54.41,25.36,53.4Z"/><path class="cls-23" d="M44.12,25.72a8.24,8.24,0,0,0,2.38-1.35c.58-.37.83-.91-.07-1.43s-.55-1.3-.4-2a.37.37,0,0,1,.62-.22c1.17.95,2.24.67,3.29-.21a1.17,1.17,0,0,1,.42-.15c.07,1.24,0,2.28-1.41,3-1.2.58-1.38,2-1.26,3.32-.4.28-.4.57,0,.85a1.56,1.56,0,0,0,.89,2.2c1.17.58,1.14,1.61.14,2.51a2.76,2.76,0,0,0-1,2.34c.07,1.23.05,2.45.08,3.68l-.08,0a.9.9,0,0,1-.86.42c-1.19-.07-1.42-.34-1.48-1.76a1.65,1.65,0,0,0-.94-1.62c-.86-.39-1.44-.09-1.56.84a4.37,4.37,0,0,1-.21,1.3c-.29.62-.66,1.15-1.47.72A9.14,9.14,0,0,1,41,35.77c0-.31,0-.61,0-.91s.17-.67-.42-.63c-.36,0-.42-.32-.39-.63.41-1.41,1.55-1.7,2.57-.67a1.58,1.58,0,0,0,2.38-.21c.13-.46.66-.4.92-.69s.86-.51.78-1-.67-.45-1.08-.55-.61-.66-.73-1.12c0-.3-.08-.59-.07-.89s-.1-.5-.59-.49c-.93,0-1.87-.11-2.8,0-.84-.19-.67-.73-.45-1.29.16-.38.55-.38.86-.5.64-.15,1.44.36,1.94-.43Z"/><path class="cls-24" d="M47.69,27.5c-.27-.05-.64,0-.64-.43s.36-.37.64-.42Z"/><path class="cls-25" d="M25.36,53.4l1.75.06c.56-.06.63.67,1.14.7,0,.53.56.56.83.85.06.37.06.68.64.64s.61-.11.67-.52c0-.19.13-.33.33-.32a1.39,1.39,0,0,1,1,.21c.27,1.16.89,1.79,2.17,1.59a.73.73,0,0,1,.71.44,13.06,13.06,0,0,1,.08,3.64,1.32,1.32,0,0,0-.86,1.48c.07.68,0,1.36,0,2,.08.4-.22.6-.43.84h0a4.08,4.08,0,0,1-4.2-.19c-.35-.34-.89-.29-1.18-.69h-.66l-1.09-.09c-.55-.53-.88-1.09-.32-1.82A1,1,0,0,1,27,62c.16,0,.31,0,.46.06.28.7.79.79,1.51.75s1.34,0,2,0,1.13-.09,1-1.05a15.07,15.07,0,0,1,0-2.51c0-.32,0-.73-.55-.7a1.91,1.91,0,0,1-.88-.37,1.71,1.71,0,0,0-1.88-.74,2.16,2.16,0,0,1-1.07,0c-.37-.26-.18-1.11-1.08-.88-.42.11-.87,0-1,.56a.36.36,0,0,1-.28.21c-.4.09-.46.34-.44.72,0,.68,0,1.37,0,2.06a1.17,1.17,0,0,0,.7,1.27c.06.15.11.3.16.44.12.42-.06.9-.38.91-.6,0-1.33.34-1.79-.38v-8C24.48,54.57,24.54,53.3,25.36,53.4Z"/><path class="cls-26" d="M37.94,62.33c-1.07.25-1.7,1.27-2.73,1.61-.79-.5-.31-1.24-.35-1.89a1.12,1.12,0,0,1,.18-.42c1-.41.6-1.35.63-2a20.54,20.54,0,0,0,0-2.6,1.84,1.84,0,0,1,.19-1c.55-.25.78-.86,1.28-1.17a1.1,1.1,0,0,1,1.05.16c.38,1.35,0,2.74.16,4.1a17.14,17.14,0,0,1,0,2.15A1.07,1.07,0,0,1,37.94,62.33Z"/><path class="cls-27" d="M28,64.18a2.89,2.89,0,0,1,2,.55c1,.68,2.22.27,3.35.33a.88.88,0,0,1-.42.74C31.52,66.64,28.7,65.73,28,64.18Z"/><path class="cls-28" d="M37.94,62.33l0-.9a.88.88,0,0,1,.79-.4c.3,0,.61,0,.92,0a1.62,1.62,0,0,1,.86.19.39.39,0,0,1,.12.32.91.91,0,0,1-.92.88Z"/><path class="cls-29" d="M35.19,61.91c0,.68,0,1.35,0,2l-.84.23A.41.41,0,0,1,34,64a2.69,2.69,0,0,1,.12-2.3C34.54,61.53,34.94,61.42,35.19,61.91Z"/><path class="cls-30" d="M33.42,65.05l0-.87c.25-.34.51-.43.81-.05l.12,0A.93.93,0,0,1,33.42,65.05Z"/><path class="cls-31" d="M49.54,40a3.06,3.06,0,0,1,.38,3.85,3.2,3.2,0,0,0-.45,1.46,1,1,0,0,1-.87,1c-.86-.77-.26-1.72-.31-2.59C49.34,43,49,42,49.05,41a1.35,1.35,0,0,1,.17-.88A.36.36,0,0,1,49.54,40Z"/><path class="cls-32" d="M48.64,43.65l0,2.64c0,.28,0,.56-.05.85l-.84.06-.22-.15c-.65-1.11-.14-2.29-.15-3.43,0-.38.54-.59,1-.33A.47.47,0,0,1,48.64,43.65Z"/><path class="cls-33" d="M48.58,39.15a.92.92,0,0,1,1,.85l-.09.06a.64.64,0,0,1-1,.1A.65.65,0,0,1,48.58,39.15Z"/><path class="cls-34" d="M48.58,39.15l.05.82a.37.37,0,0,1-.17.33c-.33.22-.62.07-.91-.1s-.35-.57-.14-.92a.35.35,0,0,1,.31-.21Z"/><path class="cls-35" d="M46.83,38.26h.86l0,.81,0,.11a.68.68,0,0,1-1,.08C46.34,38.87,46.44,38.54,46.83,38.26Z"/><path class="cls-36" d="M27.18,62.34c-1.19.13-.94,1-.89,1.76l-.92.05,0,0c-.35-.23-.58-.6-.94-.83-.59,0-.9-.33-.84-.94.72,0,1.59.21,1.77-.89a1.12,1.12,0,0,1,1-.49c.37,0,.76-.09,1,.37S27.47,62.06,27.18,62.34Z"/><path class="cls-37" d="M24.45,63.3a.82.82,0,0,1,.94.83A.89.89,0,0,1,24.45,63.3Z"/><path class="cls-38" d="M49.46,15.88c.06,2.25-.77,3.21-3.09,3.53-.44.06-.88.06-1.32.08-.8-.44-.34-1.21-.47-1.82s0-1.21,0-1.82a1.62,1.62,0,0,1,.19-1.06,1.63,1.63,0,0,1,1-.15c.71-.12.44,1,1.13.91.45,0,.26.87.88.66a.35.35,0,0,0,.36-.19C48.5,15.07,49,15.38,49.46,15.88Z"/><path class="cls-39" d="M42.34,26.62l-.88.06-.19,0c-.36-.6-.26-1.49-1.14-1.75,0-.22,0-.45,0-.67a9.44,9.44,0,0,1,.2-3.92,1,1,0,0,1,1.16-.2c.59.49.3,1.17.37,1.77s-.42,1.55.63,1.92c.19.32.26.75.84.59.32-.09.54.24.76.46,0,.29,0,.59,0,.88l0,0C43.72,26.41,42.75,25.94,42.34,26.62Z"/><path class="cls-40" d="M45,17.68c0,.6,0,1.21,0,1.81,0,1.14,0,2.28,0,3.42,0,.59-.17,1-.82,1.11a.41.41,0,0,1-.35-.19,12.19,12.19,0,0,1-.44-1.57,23.26,23.26,0,0,0,.17-3.54c0-.46-.09-1,.38-1.32A.82.82,0,0,1,45,17.68Z"/><path class="cls-41" d="M49.46,15.88c-.73,0-1,.91-1.76.91-.1-.11-.3-.2-.3-.3,0-.72-.51-1.08-1-1.48.07-.32-.13-.8.41-.91l2.67.09Z"/><path class="cls-42" d="M44.13,24.84c-.7-.06-1.57.24-1.8-.84a.4.4,0,0,1,.2-.34,1.3,1.3,0,0,1,1.58.26l.09.1Z"/><path class="cls-43" d="M43.29,9.66l.87,0A2.56,2.56,0,0,0,46,11.45a1,1,0,0,1,.83.89,1,1,0,0,1-1,.43A6.35,6.35,0,0,1,44,12.64c-.36-.71-.14-1.69-1-2.17C42.82,10.1,42.68,9.72,43.29,9.66Z"/><path class="cls-44" d="M45.86,12.38l.94,0c0,.59,0,1.17,0,1.76l0,.94c.29.31.52.61-.07.86A1,1,0,0,1,45.9,15a.88.88,0,0,1-.42-.82c0-.32,0-.64,0-.95A.87.87,0,0,1,45.86,12.38Z"/><path class="cls-45" d="M27.21,13.23l.83,0c.81.41.41,1.15.43,1.74,0,.74.11,1.35.86,1.68.06.93,0,1.88.06,2.83-.09.67.14,1.38-.23,2-1.44.18-1.36.13-1.52-1.35-.1-1,.29-2-.45-2.89Z"/><path class="cls-46" d="M27.19,17.24c.95.35.83,1.18.86,1.94s-.12,1.66.85,2.07c.66.19.4.62.27,1a1.31,1.31,0,0,1-2-.15Z"/><path class="cls-47" d="M27.2,22.12l1.73,0a.79.79,0,0,1,1.19-.08c.15.46.24,1-.18,1.28A1.59,1.59,0,0,1,28,23.09L27.17,23Z"/><path class="cls-48" d="M36.09,8.75l4.48,0,.42.06a1.66,1.66,0,0,0,.78.4c1,.18,1.12.34.8,1.4a1.57,1.57,0,0,1-2,.31,7.42,7.42,0,0,0-3.55-.71c-.45,0-1,.16-1.26-.43a.73.73,0,0,1,.3-1Z"/><path class="cls-49" d="M42.33,10.55a1,1,0,0,0-.62-.91A1.06,1.06,0,0,1,41,8.79c.85.07,1.93-.47,2.3.87v.87l0,.19a.58.58,0,0,1-.86,0Z"/><path class="cls-50" d="M30.7,11.48l1.73-.09a.43.43,0,0,1,.36.18,1.17,1.17,0,0,1,.08.95c-1,.2-.73,1.12-.92,1.77-.82.38-.87,1.08-.77,1.85,0,1.41,0,2.82-.08,4.23,0,.13-.11.16-.17.24a1.36,1.36,0,0,1-1.21,0c-.39-.28-.32-.7-.33-1.1-.06-1.52,0-3,0-4.55a6.3,6.3,0,0,1,.09-1.56,1.4,1.4,0,0,1,.1-.35c.35-.19.83-.27.69-.85A.86.86,0,0,1,30.7,11.48Z"/><path class="cls-51" d="M30.7,11.48v.87a.92.92,0,0,1-.92.42c-.58,0-1.22.19-1.67-.39L28,12.3l.07-.81Z"/><path class="cls-52" d="M32.53,10.56l.85-.06a.46.46,0,0,1,.34.26c0,1.05-.3,1.2-1.17.7l-.12-.07C32.46,11.11,32.49,10.84,32.53,10.56Z"/><path class="cls-53" d="M34.33,9.67l.86-.09a.82.82,0,0,1,.34.35c.09,1.05-.2,1.23-1.29.81A.63.63,0,0,1,34.33,9.67Z"/><path class="cls-54" d="M34.33,9.67l0,.86,0,.19c-.33.31-.58.13-.81-.13l-.06-.09.09-.83Z"/><path class="cls-55" d="M36.1,8.77l0,.86c-.24.58-.55.31-.87.08a.62.62,0,0,1,0-.13l0-.81Z"/><path class="cls-56" d="M28.11,12.38l1.71,0c.38.29.37.58,0,.89h0c-.66.51-.42,1.22-.44,1.87s.36,1.31-.48,1.69a1.21,1.21,0,0,1-.84-1.27l0-2.3Z"/><path class="cls-57" d="M26.28,40.88l-.88,0c0-2.06,0-4.13,0-6.19l.84-.07a.37.37,0,0,1,.33.19c.27.54.08,1.13.18,1.7a24.13,24.13,0,0,1,.08,3.18A1.28,1.28,0,0,1,26.28,40.88Z"/><path class="cls-58" d="M28.87,30.14,29,27.8a1.13,1.13,0,0,1,.65-1.18c.91-.69,1.3-.56,1.62.52a3.56,3.56,0,0,0,.15,1.12c0,.72.55.57,1,.62.74.09,1.55-.42,2.22.25a1.92,1.92,0,0,1,0,1.06c-.37.5-1.11.64-1.27,1.33a3.33,3.33,0,0,1-1.66,0c-.61,0-.34-1.17-1.16-.9-.55-.08-1.2.15-1.6-.45Z"/><path class="cls-59" d="M30.73,27.5c-.05-.7-.52-.88-1.12-.88.08-.57.15-1.13.23-1.69a.44.44,0,0,1,.19-.37,1,1,0,0,1,1.25.29c1.31,1.35,1.33,1.35,3.09,1.38.42,0,.89-.2,1.14.35.08.36.27.73,0,1.08s-.7.37-1,.63S33.75,28,33.33,28C32.48,27.78,31.47,28.32,30.73,27.5Z"/><path class="cls-33" d="M29.86,20.39h.84c.59.06.4.53.47.86,0,.58,0,1.16,0,1.74.3,1.15-.66,1.39-1.33,1.84v.11L29,24.8c0-.73-.91-1-.94-1.71.66-.19,1.72.38,1.76-.95C29.39,21.54,29.1,20.94,29.86,20.39Z"/><path class="cls-40" d="M29,30.21h1.76a.74.74,0,0,1,.28,1c-.29.33-.68.26-1.06.26a1,1,0,0,1-1-.45Z"/><path class="cls-60" d="M29.85,32.88,29.78,32a.6.6,0,0,1,.3-.33c.23,0,.47-.05.71-.05,1.23,0,1.42.19,1.1,1.32-.61.61-1.26.41-1.93.15A2.12,2.12,0,0,1,29.85,32.88Z"/><path class="cls-61" d="M27.13,33.72l.06-.82h1.73a.73.73,0,0,1,.31,1c-.56.67-1.21.42-1.86.18A.46.46,0,0,1,27.13,33.72Z"/><path class="cls-62" d="M29,33.74l0-.84.93,0v0c.36.33.47.69.1,1.08S29.17,34.36,29,33.74Z"/><path class="cls-63" d="M29,31.07l.88,0c.33.27.38.56,0,.87l-.12,0A.86.86,0,0,1,29,31.07Z"/><path class="cls-64" d="M26.22,34.64c0-.65.29-.93.91-.92l.06.1c.3.3.59.61.23,1-.4.17-.79.25-1.1-.17Z"/><path class="cls-65" d="M26.28,40.88V36.45a1,1,0,0,1,1-.43c.85,0,1.71,0,2.58,0a2.47,2.47,0,0,1,1.08.07c.28,1.16,1.28.75,2,.86s1,.77,1.58,1.08.26,1.1.11,1.68A6.16,6.16,0,0,1,33.21,42a.65.65,0,0,1-.53.22,3.7,3.7,0,0,1-.94-.08,1,1,0,0,1-.33-.12A1.83,1.83,0,0,0,30.7,41Z"/><path class="cls-66" d="M29.63,43.57a1.07,1.07,0,0,0-.86-.88c-.21-.06-.44-.16-.43-.42s.31-.39.56-.41c.61,0,1.23,0,1.85-.06.29-.37.59-.33.89,0v0a1.46,1.46,0,0,0,1,.59.39.39,0,0,1,.22.2.68.68,0,0,0,.7.71.42.42,0,0,1,.21.24c0,.58.51.56.83.77a1.48,1.48,0,0,1,.1.36c.12.79-.44.93-1,1.06-.24,0-.58-.13-.71.14-.52,1.1-1.52.82-2.41.9a.44.44,0,0,1-.2-.31c-.06-.32,0-.57-.57-.57a.83.83,0,0,1-.85-1.19.94.94,0,0,1,1.22-.63C29.87,44,29.55,44,29.63,43.57Z"/><path class="cls-20" d="M29.16,44.52a1.34,1.34,0,0,0,.88.87,1,1,0,0,1,.7.88,5.16,5.16,0,0,0-.34,2.13,2.64,2.64,0,0,1-.29,1.35.34.34,0,0,1-.3.12c-1.32-.55-1.52-1-1.06-2.27a1.07,1.07,0,0,0-.49-1.41,2.09,2.09,0,0,1-1.1-1.69l1.8,0C29.05,44.4,29.11,44.42,29.16,44.52Z"/><path class="cls-67" d="M29.16,44.52l-.2,0a1,1,0,0,1,.67-.91c.61.18,1.76-.32,1.71.62-.05.77-1.13.19-1.74.31A2.13,2.13,0,0,1,29.16,44.52Z"/><path class="cls-68" d="M31.64,41.79h-.89L30.7,41C31.31,40.91,31.64,41.17,31.64,41.79Z"/><path class="cls-69" d="M29.84,50.74l0-.87.05,0c.59-.73,1.28-.46,2-.23a1.67,1.67,0,0,1,.23,1.13,1.93,1.93,0,0,1-.19,1.13,2.82,2.82,0,0,1-1.18.23c-.39,0-.82.12-1.12-.26A.84.84,0,0,1,29.84,50.74Z"/><path class="cls-70" d="M29.84,50.74l0,.86c-.39.8-1,.45-1.61.35a.44.44,0,0,1-.23-.34C28.28,50.58,29.11,50.77,29.84,50.74Z"/><path class="cls-71" d="M27.1,52.5a1,1,0,0,1,.93-.89l0,.09a.61.61,0,0,1,.12,1,.66.66,0,0,1-1-.12Z"/><path class="cls-72" d="M27.18,52.57l.83-.06a.36.36,0,0,1,.32.14,1.42,1.42,0,0,1,0,1.57.32.32,0,0,1-.3.17,1,1,0,0,1-.93-.93C27.14,53.16,27.16,52.87,27.18,52.57Z"/><path class="cls-73" d="M35.2,27.5v-.85c.39-.82,1.14-.29,1.71-.45.29,0,.59,0,.88,0,.93-.08,1.86.09,2.81-.08a1.11,1.11,0,0,1,.86.48v.1a1,1,0,0,0,.68.86c.71.72,1.62.3,2.43.44.31.05.84-.16.91.44l0,.86c0,.2-.05.41-.25.44-1.83.35-3.56,1.34-5.52.86C39.15,29.3,38,29.06,36.81,29a2.28,2.28,0,0,1-1.63-.77C34.89,27.92,35,27.74,35.2,27.5Z"/><path class="cls-74" d="M39.86,30.16a4.13,4.13,0,0,0,2.86-.61c.77-.53,1.82-.19,2.74-.27a1.21,1.21,0,0,1,.68.91c.41,1.1.24,1.37-.94,1.44-.63,0-1.26,0-1.89,0-1.57.09-3.14-.05-4.7-.08-.86.09-1.72-.07-2.58,0-.59,0-1.19,0-1.78,0-.41-.06-1,.25-1-.5a1.19,1.19,0,0,1,1.11-.86,1.42,1.42,0,0,1,1-.5,32.51,32.51,0,0,1,3.42,0A2.38,2.38,0,0,1,39.86,30.16Z"/><path class="cls-75" d="M46.83,38.26l0,.87c0,.06,0,.12-.05.19a1.08,1.08,0,0,1-.91.26c-1,.09-1.31-.31-1.28-1.34,0-.46.54-1.34-.47-1.58-.49.08-.34.46-.37.77-.08.92,0,1.84-.08,2.75,0,.38,0,.76-.41,1a2.32,2.32,0,0,1-1.22.18,1.41,1.41,0,0,1-1-1.87c.15-.49-.34-1.24.49-1.49a2.18,2.18,0,0,0,.85-1.61A1.64,1.64,0,0,1,44,34.71c1.1,0,1.4.81,1.59,1.66S45.79,38,46.83,38.26Z"/><path class="cls-76" d="M38.75,31.12h4.52a3,3,0,0,0,2,1.23.41.41,0,0,1,.41.53,2.14,2.14,0,0,1-3.11.46c-.86-.53-1.52-.52-2,.41s-1.19.28-1.8.42A3,3,0,0,1,38.75,31.12Z"/><path class="cls-77" d="M45.7,32.89l-.77,0c-1.54,0-1.66-.14-1.66-1.74,1-.16,2.23.34,2.87-.94h.44c.6.06,1.48-.26,1.68.42s-.61,1-1,1.44A2.16,2.16,0,0,1,45.7,32.89Z"/><path class="cls-78" d="M41.48,38c0,.59,0,1.17,0,1.76a1,1,0,0,0,.91,1.17.84.84,0,0,1,.32,1c-.34.31-.86.35-.87,1.11a1.12,1.12,0,0,1-1.53.78,1.06,1.06,0,0,1-.27-.91c0-2.17-.1-4.33.07-6.49a1.67,1.67,0,0,1,.36-1.07c.41-.31.72-.18,1,.21Z"/><path class="cls-79" d="M38.73,33.73l1.82,0c.25,0,.5,0,.75.06s.57,0,.62.34-.28.38-.48.52a.93.93,0,0,1-.92.42l-1.91,0a15.17,15.17,0,0,1-2.61,0,.6.6,0,0,1-.61-.33,1.37,1.37,0,0,1,0-1.17c.43-.41,1-.28,1.49-.3S38.23,33.05,38.73,33.73Z"/><path class="cls-80" d="M45.48,28.42l-2.1,0c-.6,0-1.09-.19-1.24-.86,1,0,1.9,0,2.85,0C45.49,27.6,46,27.72,45.48,28.42Z"/><path class="cls-81" d="M42.34,26.62c.24-1,1.07-.85,1.8-.87C43.91,26.8,43.06,26.58,42.34,26.62Z"/><path class="cls-75" d="M40.53,34.69h.91c0,.3,0,.6,0,.91l-.87,0-.19-.05C40.06,35.16,40.28,34.92,40.53,34.69Z"/><path class="cls-82" d="M27.18,62.34c-.21-1.1-1.09-.81-1.8-.87h0c-.67-.56-.44-1.34-.43-2s-.26-1.71.39-2.44h0a2,2,0,0,1,2.51,0l1.07.07c.48.57,1.3.39,1.84.82l.84.06c.8.63.45,1.56.49,2.32.14,2.51-.12,2.79-2.58,2.66-.67,0-1.59.26-2.14-.53Z"/><path class="cls-36" d="M27.38,62.36c1,0,1.92,0,2.87,0S31.67,62,31.63,61s0-2.06,0-3.1A.91.91,0,0,1,32.49,59c0,1,0,2.07,0,3.1a1.09,1.09,0,0,1-1.24,1.21c-1,0-1.92,0-2.88-.06A.93.93,0,0,1,27.38,62.36Z"/><path class="cls-83" d="M35.19,61.91l-.85,0c-.81-.43-.42-.92-.06-1.4l0-3.53.07-.2c.32-.3.64-.2,1,0a.89.89,0,0,1,.18.41c.09,1.58.4,3.19-.35,4.72Z"/><path class="cls-84" d="M25.34,57l0,4.48c-1.1-.15-1-1-.87-1.72C24.65,58.8,23.83,57.51,25.34,57Z"/><path class="cls-85" d="M28.73,55.22a.77.77,0,0,1-.69-.83l.05-.08c.4-.6,1-.52,1.61-.47.33,0,.66,0,1,0a2.21,2.21,0,0,1,.95.15.43.43,0,0,1,.28.25c.1.32.18.63-.11.89l-.19.05-.85,0A1.51,1.51,0,0,1,28.73,55.22Z"/><path class="cls-86" d="M34.28,60.55l.06,1.4-.09,2.18-.81.05c0-.84,0-1.68,0-2.51A1,1,0,0,1,34.28,60.55Z"/><path class="cls-87" d="M34.31,57h-.76c-1.72,0-1.85-.1-1.93-1.82h0c.25-.24.47-.51.87-.37a7.43,7.43,0,0,1,2.1,1.29.66.66,0,0,1-.28.87Z"/><path class="cls-88" d="M27.86,57l-2.51,0a.84.84,0,0,1,.93-.85C27,56.1,27.6,56.17,27.86,57Z"/><path class="cls-89" d="M30.77,57.85c-1,.52-1.54.15-1.84-.82C29.64,57.09,30.57,56.65,30.77,57.85Z"/><path class="cls-90" d="M28.73,55.22l2,0a.89.89,0,0,1-1,.82A1,1,0,0,1,28.73,55.22Z"/><path class="cls-91" d="M47.71,47.2c0,2.5,0,5,0,7.52,0,.64,0,1.29-.87,1.43-.73-.18-.5-.83-.48-1.23,0-.8-.06-1.6,0-2.41a.92.92,0,0,0-.72-1.12,2.26,2.26,0,0,1-.24-1.56c.09-1.09-.4-1.39-1.34-1.34-.58-.11-1.1-.29-1.21-1a7.39,7.39,0,0,1,0-3.85.57.57,0,0,1,.28-.33,2.28,2.28,0,0,1,1.72,0c.56.3.56.81.53,1.34A1.26,1.26,0,0,0,46.18,46a8.58,8.58,0,0,1,1.49,1.06S47.7,47.16,47.71,47.2Z"/><path class="cls-92" d="M45,57.9c-1.13.42-1.75,1.45-2.63,2.18a2.38,2.38,0,0,1-.92.53c-.08,0-.15-.11-.23-.15-.52-1-.21-2-.24-3,0-1.19,0-2.4.06-3.6a8.4,8.4,0,0,0,1.83-2.53c.38-.62.82-.91,1.52-.54a8.4,8.4,0,0,1,.24,2.64,8.83,8.83,0,0,0,.72,3.52A.82.82,0,0,1,45,57.9Z"/><path class="cls-93" d="M46,51a1.69,1.69,0,0,1,.84,1.67c0,1.17,0,2.35.05,3.52a.92.92,0,0,1-.9.9l-.2-.06c-.62-.86-.3-1.84-.37-2.77a8.17,8.17,0,0,1,.11-1.31C45.7,52.28,45.07,51.43,46,51Z"/><path class="cls-94" d="M41.47,60.61a.84.84,0,0,1-.87.92l-.07-.09a.7.7,0,0,1-.28-.86.48.48,0,0,1,.27-.29.73.73,0,0,1,.9.2A.61.61,0,0,0,41.47,60.61Z"/><path class="cls-95" d="M45,57.9,45,57c.22-.56.52-.35.83-.09l.07.12A.84.84,0,0,1,45,57.9Z"/><path class="cls-96" d="M38.8,61.44h-.89l-.08-6.17A.73.73,0,0,1,38,54c1-.14,1.5.35,1.32,1.67s.14,2.45,0,3.65C39.16,60.06,39.43,60.86,38.8,61.44Z"/><path class="cls-29" d="M35.19,61.92l.05-4.86c.23-.61.54-.35.84-.07,0,1.1,0,2.2,0,3.29A1.59,1.59,0,0,1,35.19,61.92Z"/><path class="cls-97" d="M37,55.29a.86.86,0,0,1-.86.86.39.39,0,0,1-.33-.17c-.22-.34-.07-.63.1-.92s.59-.34.92-.11A.38.38,0,0,1,37,55.29Z"/><path class="cls-98" d="M36.08,57l-.84.07L35.17,57a.65.65,0,0,1-.12-1,.63.63,0,0,1,1,.12l.1.06C36.13,56.43,36.1,56.71,36.08,57Z"/><path class="cls-99" d="M37.86,54.35l0,.91-.82,0a.37.37,0,0,0,0-.11.73.73,0,0,1-.26-1,.59.59,0,0,1,.93-.18A.39.39,0,0,1,37.86,54.35Z"/><path class="cls-100" d="M38.8,61.44c0-1.94,0-3.89,0-5.83,0-.63-.08-1.2-.89-1.26l0,0c-.68-.58-.36-1.32-.39-2a15.93,15.93,0,0,1,.08-3.09,1.42,1.42,0,0,0,.82-1.7c-.1-.85.33-1.3.91-1.36.8-.07.81.79.81,1.31,0,2.26,0,4.53,0,6.79,0,2.08.11,4.17,0,6.25a.91.91,0,0,1-.44.94Z"/><path class="cls-101" d="M39.66,61.44v-.85c.28-.3.56-.56.86,0v.87Z"/><path class="cls-32" d="M49.47,40.9c0,.65,0,1.3,0,2,0,.45-.38.67-.79.79l-.08-.07c-.64-.44-.36-1.1-.4-1.68a2.56,2.56,0,0,1,.14-1,.43.43,0,0,1,.28-.28A.7.7,0,0,1,49.47,40.9Z"/><path class="cls-102" d="M49.47,40.9l-.86,0c-.55-.27-.34-.56,0-.87l.05-.09.82.09Z"/><path class="cls-103" d="M48.59,41.8l0,1.77a1.07,1.07,0,0,0-.83,1.12l-.06,2.39c-1.72.12-2.56-.6-2.66-2.29,0-.37,0-.74,0-1.1a.42.42,0,0,1,.1-.33.75.75,0,0,1,.81-.06,2.26,2.26,0,0,1,.26.2c.12.08,0,.32.22.34v-.45a1.48,1.48,0,0,1,.23-.79c.62-.11.71-.79,1.16-1.08A.64.64,0,0,1,48.59,41.8Z"/><path class="cls-104" d="M48.58,40.06l0,.87h0a.61.61,0,0,1-.92.23.72.72,0,0,1-.27-.93.4.4,0,0,1,.31-.25Z"/><path class="cls-105" d="M46.81,39.13l.89,0v.9a.68.68,0,0,1-1,.08.61.61,0,0,1,.17-1Z"/><path class="cls-106" d="M45,17.68l-.84,0c-1-.52-.57-1.26-.32-2a.84.84,0,0,1,1.15.16Z"/><path class="cls-107" d="M46.78,15.9l.07-.86c1.22.13.75,1.07.85,1.75C47,16.88,46.8,16.48,46.78,15.9Z"/><path class="cls-108" d="M45,15.88l-.84,0c-.88-.48-.38-1.29-.35-1.9,0-.33.73-.39,1.18-.16s.43.75.08,1.16Z"/><path class="cls-109" d="M45.07,15l0-.91a1.05,1.05,0,0,1,0-.19c.35-.31.59-.09.82.17V15Z"/><path class="cls-110" d="M40.5,24.41l0,.44c.27.25.54.5.35.93a.9.9,0,0,1-.92.41c-.74-.09-1.48.08-2.22,0-.37,0-.77,0-1-.37a2.78,2.78,0,0,0-2.6-1.28c-.3,0-.59,0-.88,0s-1,0-1.16-.46a1,1,0,0,1,.36-1.22c1.37-.45,2.79-.06,4.17-.21a.85.85,0,0,0,1-.64c.64-.05.65-.79,1.14-1a1.38,1.38,0,0,1,1,0c.56.39.24,1,.25,1.44A3.39,3.39,0,0,0,40.5,24.41Z"/><path class="cls-111" d="M41.49,22.15l-.07-1.77c-.48-.41-.38-1-.37-1.51a16.4,16.4,0,0,1,.14-4c.36-.45.76-.25,1.16-.08a1.39,1.39,0,0,1,.46,1.07c.17,1.83.08,3.67.08,5.51,0,.38,0,.82-.36,1.09A.77.77,0,0,1,41.49,22.15Z"/><path class="cls-112" d="M41.51,15l-.09,5.36h-.81a.36.36,0,0,1-.32-.14,1.54,1.54,0,0,1-.18-.89c0-.54,0-1.08,0-1.62,0-.33,0-.67,0-1s0-.72,0-1.07-.09-.81.43-1S41.35,14.39,41.51,15Z"/><path class="cls-113" d="M37.65,25.74l1.85,0a1,1,0,0,0,1-.87c1.06.18.87,1,.9,1.73l-3.79,0C37.29,26.32,37.29,26,37.65,25.74Z"/><path class="cls-49" d="M40.5,24.41c-.88-.37-.93-1.16-1-2,0-.4.06-.81.09-1.21a.7.7,0,0,1-.28-.88.43.43,0,0,1,.28-.28.65.65,0,0,1,.87.27l.1,0C40.57,21.72,40.54,23.07,40.5,24.41Z"/><path class="cls-114" d="M41.49,22.15l.83,0c.58,0,.47.44.47.79a.9.9,0,0,1-.43.94l0,.1C41.09,23.82,41.54,22.87,41.49,22.15Z"/><path class="cls-115" d="M42.39,23l-.07-.86.06-6.24a1.35,1.35,0,0,0,.41-1.27c.07-.37-.06-.74,0-1.1s.28-.79.83-.74,1.12-.12,1.64.18a.83.83,0,0,1-.2,1.13h0c-1.09.22-.88,1.06-.87,1.81V17.7l-.07,4.68C43.47,23.73,43.26,23.81,42.39,23Z"/><path class="cls-116" d="M42.39,23a2.37,2.37,0,0,0,1.71-.65v1.54l-1.75,0Z"/><path class="cls-117" d="M45,13.25c-.66.15-1.75-.61-1.79.85a7.84,7.84,0,0,0-.7.91H40.59a.68.68,0,0,1-.24-1.26c.51-.19.42-.48.49-.79.08-.79.45-1.24,1.3-1.12.37,0,.74,0,1.1,0a1.19,1.19,0,0,1,.94.41l1.68.09,0,.87C45.6,13.63,45.3,13.55,45,13.25Z"/><path class="cls-118" d="M44.18,12.29l-1,0a1.22,1.22,0,0,1,0-1.78l.1,0C44.44,10.69,44.05,11.62,44.18,12.29Z"/><path class="cls-119" d="M45,13.25h.89v.85l-.86,0Z"/><path class="cls-120" d="M28.91,16.78l.07-2c.25-.36.52-.41.81,0a40.77,40.77,0,0,1,0,4.69c-.26.37-.54.39-.83,0Z"/><path class="cls-121" d="M29,19.5l.83,0,.06.93-.07,1.75h-.86l0-.89C28.93,20.66,29,20.08,29,19.5Z"/><path class="cls-122" d="M42.3,12.29a1,1,0,0,0-.88.94,1.14,1.14,0,0,1-1,.48A2,2,0,0,0,38.3,15.5a1.11,1.11,0,0,1-.26.59,3.12,3.12,0,0,1-2.07.33c-1.53,0-3.09.37-4.57-.35a1.77,1.77,0,0,1-.15-.42c-.29-1.12.63-1,1.23-1.17a1.65,1.65,0,0,1,.66,0c.62,0,1.23-.06,1.84-.05.86,0,.82-.42.38-.94s-.81-.93-1.57-.74a.63.63,0,0,1-.46-1.17c.44-.24.59-.76,1-1.06h0a.85.85,0,0,0,.91-.82l.87-.08h2.34a3.46,3.46,0,0,1,2.52.66,2,2,0,0,0,1.4.25h0A1.06,1.06,0,0,1,42.3,12.29Z"/><path class="cls-123" d="M42.3,12.29l0-1.75h.85l0,1.78Z"/><path class="cls-124" d="M33.4,15c-.71.06-1.58-.19-1.8.88-.24.56-.53.37-.82.05,0-.73-.21-1.56.83-1.82.73-.39.22-1.38.87-1.81l.07-.83a.8.8,0,0,0,.89-.87l.86-.05a1.42,1.42,0,0,1-.13.53c-.6.74-.58,1.12.47,1.38A1.82,1.82,0,0,1,36,14c.07.58-.29.87-.85,1C34.58,14.2,34,14.26,33.4,15Z"/><path class="cls-125" d="M30.78,15.92l.82-.05,0,.07c.88.91.48,2.07.59,3.13-.26.77.17,1.69-.51,2.38-.4.3-.72.18-1-.21l-.05-.86Z"/><path class="cls-126" d="M32.48,12.29c0,.72.29,1.63-.87,1.81C31.66,13.38,31.38,12.51,32.48,12.29Z"/><path class="cls-127" d="M29.79,14.77l-.81,0c0-.69-.1-1.42.85-1.59Z"/><path class="cls-128" d="M29.85,13.23l0-.89h.88C30.81,13,30.43,13.22,29.85,13.23Z"/><path class="cls-129" d="M27.19,36.41l-.92,0c0-.59,0-1.17.05-1.75l.82-.05c.6,0,.42.48.46.82A.93.93,0,0,1,27.19,36.41Z"/><path class="cls-130" d="M39.86,30.16l-5.55,0c0-.28,0-.57,0-.86a1.45,1.45,0,0,0-.25-.95c-.23-.39,0-.61.26-.84l.9,0c.49.91,1.37.92,2.23.92A2.36,2.36,0,0,1,39.86,30.16Z"/><path class="cls-131" d="M33.2,31.05l1.09.07c.5.75,1.5.17,2.06.78,0,.14.11.28.15.42.22,1-.53,1.06-1.08,1a12.69,12.69,0,0,1-1.85,0c-.37,0-.74.05-1.11,0s-.8.13-.82-.48c-.19-1.07-1-.83-1.74-.89l0-.87.9,0c.29-.36.59-.31.89,0Z"/><path class="cls-132" d="M34.3,27.54c.25.6,1.52,1.2,0,1.79l-2.45-.06c-.58,0-1-.24-1.05-.89.33-.62,1-.45,1.45-.44a1.41,1.41,0,0,0,1.16-.39Z"/><path class="cls-133" d="M33.4,27.55c-.07.74-.58.86-1.18.86l-1.43,0-.06-.88Z"/><path class="cls-134" d="M31.64,31.05l-.89,0,0-.85A.86.86,0,0,1,31.64,31.05Z"/><path class="cls-135" d="M37,26.63l-1.79,0a8.77,8.77,0,0,0-.88,0,3.87,3.87,0,0,1-3.71-1.4c-.15-.2-.5-.26-.76-.39,0-.76.93-1.05.94-1.82a.6.6,0,0,1,.88-.2c.08.07.2.13.22.24.34,1.92,1.85,2,3.33,2.12a2.16,2.16,0,0,1,1.89.73C37.37,26.25,37.19,26.41,37,26.63Z"/><path class="cls-136" d="M31.61,23.1l-.83-.1,0-1.76.86,0,.17,0a1,1,0,0,1,.29.81,1.58,1.58,0,0,1-.16.85A.33.33,0,0,1,31.61,23.1Z"/><path class="cls-137" d="M31.64,32.85l.85.07a1.39,1.39,0,0,0,1.25.41c.5.13,1,0,1.55.08.3.08.3.23.37.4v.82c0,.29-.23.38-.49.41a13.63,13.63,0,0,1-1.81.08c-.59,0-1.18,0-1.78,0s-.11-1-.89-.86a1.32,1.32,0,0,1-.75-.17.45.45,0,0,1-.1-.29v-.9Z"/><path class="cls-138" d="M27.21,35.52l-.07-.87.05-.83L29,33.74l.89,0,0,0c.28.46.91.44,1.21.87.06.51.49.47.8.46.62,0,1.24,0,1.86,0,.34.14.87-.06.94.52.18.9-.1,1.25-1.09,1.2s-2,.33-2.85-.36l-.85,0A1.49,1.49,0,0,0,28.5,36C28,36,27.49,36.09,27.21,35.52Z"/><path class="cls-139" d="M33,41.78c.25-.49.48-1,.76-1.47.76-1.36.65-1.8-.69-2.56-.19-.11-.36-.25-.54-.37a2.52,2.52,0,0,1,2.78-.19c.66.93.31,2,.32,3a16.71,16.71,0,0,1-.17,4.52c-.47.45-.81.14-1.14-.19l0,0a4.64,4.64,0,0,1-.88-.89l0,0c-.16-.21-.47-.33-.44-.67S33,42.16,33,41.78Z"/><path class="cls-140" d="M35.2,37.35l-2.69,0c-.7-.11-1.59.17-1.82-.9l2.4,0c.59,0,1.09-.15,1.2-.84s.5-.42.86-.35a.61.61,0,0,1,.33.3c.1.57.33,1.15-.08,1.7Z"/><path class="cls-100" d="M27.21,35.52l1.64.08a1,1,0,0,1,1,.85l-2.65,0C27.2,36.11,27.2,35.81,27.21,35.52Z"/><path class="cls-141" d="M33,41.78a1,1,0,0,1,.42.94c-.3.36-.59.34-.88,0h0c-.35-.28-.38-.57,0-.87Z"/><path class="cls-97" d="M32.5,41.83l0,.87a.84.84,0,0,1-.89-.89Z"/><path class="cls-142" d="M31.57,49.84H29.86c0-.8,0-1.6,0-2.4a1,1,0,0,1,.89-1.17l.19,0c.79.37,1.33.89,1.13,1.86C31.9,48.73,32.48,49.51,31.57,49.84Z"/><path class="cls-143" d="M34.3,44.51l.88-.06c.27-.22.54-.42.92-.22.18.61,1,.5,1.21,1.1a1.3,1.3,0,0,1-.09,1,.79.79,0,0,1-.4.24,6.33,6.33,0,0,1-3.73-.2c-.25-.46-.24-.82.34-1A1.83,1.83,0,0,0,34.3,44.51Z"/><path class="cls-20" d="M33.43,45.4l0,.93a.61.61,0,0,1,.23.84,4.45,4.45,0,0,0-1.16,1.17.64.64,0,0,1-.86-.21,6.28,6.28,0,0,0-.74-1.82,1.67,1.67,0,0,0,1.49-.93C32.74,44.81,33.11,44.73,33.43,45.4Z"/><path class="cls-144" d="M32.52,42.7l.88,0v.88A.85.85,0,0,1,32.52,42.7Z"/><path class="cls-145" d="M33.44,43.58c.62,0,.9.29.88.89C33.66,44.54,33.38,44.23,33.44,43.58Z"/><path class="cls-146" d="M30.68,54.3l-.86,0a16.52,16.52,0,0,0-1.76-1.69l0-.08.06-.81,1.8-.1.81.07A1.91,1.91,0,0,1,30.68,54.3Z"/><path class="cls-147" d="M31.62,51.65v-.9c.27-.35.58-.49,1-.2a1.33,1.33,0,0,1,.36,1,17,17,0,0,1,0,1.75,4,4,0,0,1-.16,1,.46.46,0,0,1-.29.27.73.73,0,0,1-.9-.28.54.54,0,0,0-.05-.11A2.12,2.12,0,0,1,31.62,51.65Z"/><path class="cls-148" d="M32.42,50.76h-.79l-.06-.91.1-1.71.82-.09.2,0A1.25,1.25,0,0,1,33,49a2.23,2.23,0,0,1-.2,1.66A.42.42,0,0,1,32.42,50.76Z"/><path class="cls-149" d="M31.62,51.65c0,.86,0,1.72,0,2.58l-.9.07V51.67Z"/><path class="cls-150" d="M28.06,52.59c1.67-.09,1.76,0,1.76,1.69l-1.73,0Z"/><path class="cls-151" d="M37,26.63a1.07,1.07,0,0,0-1.13-.87l-1.56,0c-1.86,0-2.57-.73-2.68-2.62,0,0,0-.07,0-.11.24-.23.49-.43.82-.12,0,.06,0,.12,0,.19a1,1,0,0,0,1.1.87c.44,0,.88.05,1.32,0,1,0,2,0,2.24,1.35,0,.16.32.28.48.42v.88Z"/><path class="cls-152" d="M38.73,33.73H37c-.25-.25-.61-.47-.45-.9s-.26-.59-.43-.86h0c-.34-.28-.39-.57,0-.87h2.67A1.86,1.86,0,0,1,38.73,33.73Z"/><path class="cls-153" d="M36.08,31.12V32c-.73,0-1.56.18-1.8-.87Z"/><path class="cls-154" d="M44.15,35.78c.84.35.86,1.1.87,1.85s0,1.36.92,1.52c.21.22.47.43.29.79s-1,.59-1,1.23a2.64,2.64,0,0,1-.4.12.88.88,0,0,1-1-.44,25.46,25.46,0,0,1-.09-4.62A.47.47,0,0,1,44.15,35.78Z"/><path class="cls-155" d="M44.15,35.78v5a.46.46,0,0,1-.07.32.55.55,0,0,1-.77,0,.46.46,0,0,1-.08-.32c0-1.4,0-2.8,0-4.2C43.27,36.09,43.35,35.54,44.15,35.78Z"/><path class="cls-51" d="M42.3,41.8l.07-.87.86-.09a.45.45,0,0,1,0,.11c.63.45.38,1.12.44,1.72.08.42-.18.67-.45.92l0,0c-.33.29-.66.6-1.11.19s-.16-1-.16-1.48A.76.76,0,0,1,42.3,41.8Z"/><path class="cls-156" d="M45.89,40c0-.27,0-.54,0-.81h.89l0,.85,0,.18a.54.54,0,0,1-.78.09A.42.42,0,0,1,45.89,40Z"/><path class="cls-157" d="M40.53,60.57l-.86,0c0-4,0-7.91,0-11.87a6.57,6.57,0,0,0,0-.77c0-.39.06-1-.42-1s-.41.6-.45,1a1.59,1.59,0,0,1-.88,1.54c-.51-.14-.34-.52-.39-.89a9.58,9.58,0,0,1,0-1.93c0-.13.08-.26.11-.38.42-.29.9-.55.73-1.19,0-2.15,0-4.3,0-6.46a3.66,3.66,0,0,1,.3-2.36c.67-.15,1.36-.43,1.93.25l.08,7.13a1.19,1.19,0,0,1,.5,1.16c0,2.49-.17,5-.09,7.45-.09,2.54.1,5.08-.08,7.62,0,.4-.3.49-.35.77Z"/><path class="cls-92" d="M40.6,52.08V43.59c.79-.38.66-1.63,1.7-1.79.1.72-.21,1.65,1,1.82V47.4c.12.3.18.6-.21.73-1,.31-1,1.08-1,1.89,0,.63,0,1.26,0,1.89,0,.31,0,.71-.47.74S40.82,52.4,40.6,52.08Z"/><path class="cls-139" d="M40.52,36.46H38.83c-.65-.07-.44-.5-.37-.87a.61.61,0,0,1,.32-.33c.62-.09,1.27-.34,1.76.31l0,0Z"/><path class="cls-158" d="M36.09,32c.22,0,.44,0,.65,0,.73.08,1.33.23.52,1.08a2.33,2.33,0,0,0-.29.68l-1.31.07-2.23-.08c-.37-.25-.39-.52,0-.82l1.64,0A1,1,0,0,0,36.09,32Z"/><path class="cls-159" d="M36.08,34.68l2.71,0c.37.29.32.58,0,.86h0c-.55.22-.28,1-.85,1.21a1.6,1.6,0,0,1-.92,0c-.66,0-.34-1-1-1a.62.62,0,0,1-.21-.31C35.61,35.12,35.85,34.9,36.08,34.68Z"/><path class="cls-160" d="M38.77,35.56l0-.86h1.74v.89Z"/><path class="cls-161" d="M36.08,34.68l0,.87c-.3.58-.6.3-.91,0v0c-.33-.27-.4-.55,0-.84l.48-.08Z"/><path class="cls-162" d="M35.24,56.15l-.07.83-.86,0V56a.57.57,0,0,1,.78-.11A.36.36,0,0,1,35.24,56.15Z"/><path class="cls-163" d="M31.63,54.34l.88,0c.48.3.49.6,0,.88l-.87,0Z"/><path class="cls-164" d="M32.49,55.2l0-.88h0a1.13,1.13,0,0,1,1-.43c.39,0,.78,0,1.16,0,.59,0,1,.16,1,.84,0,.13,0,.26-.09.39-.19.59-1,.43-1.22,1h0C33.58,56.08,32.68,56.33,32.49,55.2Z"/><path class="cls-165" d="M41.44,52.33c0-1,0-2,0-3,0-1.87,0-1.87,1.79-1.94l.92.69a1,1,0,0,1,.42,1c-.21.61.36,1.42-.48,1.87-.62.29-.82.93-1.18,1.44a3.3,3.3,0,0,1-1.46,1.47C40.74,53.37,41,52.85,41.44,52.33Z"/><path class="cls-166" d="M44.17,49c0-.3,0-.6,0-.9,1.61,0,1.73.15,1.77,1.77,0,.36,0,.73,0,1.1l-.06,2c-.85.57-1,.46-1.23-.48-.14-.77,0-1.53-.1-2.29C44.51,49.77,44.57,49.32,44.17,49Z"/><path class="cls-167" d="M43.23,43.59v-.91a.93.93,0,0,0,.45-.85,1,1,0,0,1,.44-.89.36.36,0,0,1,0-.11l.86.08a2.37,2.37,0,0,1,.06,2.64l-.09.14Z"/><path class="cls-168" d="M44.17,49c1,.21.78,1.07.86,1.76s-.29,1.83.86,2.25c0,1.31,0,2.62,0,3.93L45,57c-.77-.1-.91-.64-.92-1.29,0-1.59,0-3.18,0-4.77C44.13,50.3,44.15,49.65,44.17,49Z"/><path class="cls-169" d="M41.44,52.33c0,.51,0,1,0,1.54,0,2.21,0,4.41,0,6.62l-.84.1,0-8.51Z"/><path class="cls-170" d="M36.05,56.09l-.81.06-.08-.07c-.36-.31-.29-.59,0-.86h0c.21-.23.4-.49.77-.29a.32.32,0,0,1,.15.31Z"/><path class="cls-171" d="M37,54.35l0,.83-.83.07-.08-.06c-.32-.32-.56-.72-.15-1.07A.64.64,0,0,1,37,54.35Z"/><path class="cls-172" d="M37,54.35c-.6,0-.86.3-1,.84l-.84,0c-.14-1.21-1.12-.8-1.82-.93a.7.7,0,0,1-.27-.95c.66-.71,1.51-.23,2.26-.35.46-.07,1,.06,1.06-.65.23-1.41,0-2.83.07-4.25,0-.66-.2-1.34.48-1.81h0c.3-.29.61-.56.9,0,0,1,0,2.09,0,3.13,0,1.64,0,3.27,0,4.91Z"/><path class="cls-173" d="M47.72,40.93h.87v.88l-.82,0a.42.42,0,0,1-.32-.11.54.54,0,0,1,.1-.77Z"/><path class="cls-174" d="M45.07,43.55,45,40.91h0a.9.9,0,0,1,1.15-.23c.46.57.19,1.22.2,1.83a1.73,1.73,0,0,1-.16,1,.38.38,0,0,1-.34.18Z"/><path class="cls-175" d="M46.8,43.59c-.07.54.29,1.47-.41,1.5s-.39-.91-.52-1.42l.08-.12C46.25,43.21,46.53,43.26,46.8,43.59Z"/><path class="cls-176" d="M47.77,41.83c-.06.53-.25.94-.89.9a.51.51,0,0,1-.37-.27.7.7,0,0,1,.19-.92c.38-.27.7-.07,1,.26Z"/><path class="cls-177" d="M46.8,43.59l-.85,0v-.86c.27-.33.54-.36.81,0l.12,0Z"/><path class="cls-178" d="M46.8,40l.9.07,0,.85h0c-.31.36-.67.61-1.08.19s-.14-.76.21-1Z"/><path class="cls-179" d="M37,23l-4.45,0,0,0a.66.66,0,0,1-.21-1,1.15,1.15,0,0,1,.46-.22,12.17,12.17,0,0,1,4.42.11A.81.81,0,0,1,37,23Z"/><path class="cls-180" d="M39.64,20.35v.89l-.82.05a.5.5,0,0,1-.36-.29.71.71,0,0,1,.22-.93C39.08,19.81,39.4,20,39.64,20.35Z"/><path class="cls-181" d="M38.82,21.29a1,1,0,0,1-.89.91.43.43,0,0,1-.35-.24c-.22-.36-.31-.7.12-1a.81.81,0,0,1,1,.27Z"/><path class="cls-182" d="M37,23l0-.87c.25-.54.54-.35.84-.05l.1.09A.89.89,0,0,1,37,23Z"/><path class="cls-183" d="M43.21,15a.89.89,0,0,1-.83.95l0-.91h0C42.63,14.67,42.91,14.62,43.21,15Z"/><path class="cls-184" d="M38.73,21.24l-.84,0c-1-.08-1.86.57-2.86.46a2,2,0,0,1-1.42-.55,13.72,13.72,0,0,1-2-2.14V15.94c1.61-.17,3.26.22,4.87-.37.37-.13.91.2,1.37.31l.19.06c.29.53.79.35,1.24.39s.94,0,1.2.48v.87c-.63.54-.36,1.28-.42,1.95,0,.36-.24.53-.45.73h0A.86.86,0,0,0,38.73,21.24Z"/><path class="cls-185" d="M37.89,15.88c0-2.7,0-2.7,2.65-2.67l.88,0c.12.78-1,1-.83,1.79l-.06.89a2.15,2.15,0,0,1-2.64,0Z"/><path class="cls-186" d="M37.89,15.89l2.64,0v.9l-1.55,0C38.38,16.76,38,16.53,37.89,15.89Z"/><path class="cls-187" d="M39.66,19.47c0-.73-.17-1.55.87-1.79l0,1.77C40.24,19.86,40,19.81,39.66,19.47Z"/><path class="cls-188" d="M39.66,19.47l.85,0v.9h-.85Z"/><path class="cls-189" d="M43.21,15l-.86,0a.8.8,0,0,1,.86-.92Z"/><path class="cls-190" d="M33.4,15c0-.19,0-.37,0-.55,0-.59.12-1.15.87-1.15s.88.54.89,1.14c0,.18,0,.36,0,.55Z"/><path class="cls-191" d="M31.65,19.05A6.42,6.42,0,0,1,34,20.63a1.55,1.55,0,0,0,2.24.09c.76-.61,1.22-.4,1.64.56l-.06.83-.84.05-4.44,0c-.49-.09-.56-.63-.93-.87v0Z"/><path class="cls-192" d="M33.39,32.91l0,.82a.78.78,0,0,1-.94-.81Z"/><path class="cls-193" d="M31.62,21.26a1,1,0,0,1,.93.87l-.07.06c-.3.35-.58.3-.83-.05Z"/><path class="cls-194" d="M31.65,22.14l.83.05c0,.28,0,.56.05.84l-.88,0Z"/><path class="cls-122" d="M33.43,35.53c-.61,0-1.22,0-1.83,0a.91.91,0,0,1-.89-.8.34.34,0,0,1,.14-.31c.35-.21.56,0,.8.22l1.75.09C33.78,35,33.77,35.25,33.43,35.53Z"/><path class="cls-195" d="M33.43,35.53l0-.82h1.78l0,.84-.91.05Z"/><path class="cls-196" d="M30.71,34.71c-.57,0-.91-.29-.89-.91h.88c.35.25.43.52.06.82Z"/><path class="cls-197" d="M30.76,34.62l-.06-.82c.59,0,.93.2.95.82Z"/><path class="cls-198" d="M36.08,44.49l-.9,0,0-7.1h0c.28-.34.59-.51,1-.19a3.14,3.14,0,0,1,.35,2.48c-.06,1.41,0,2.82,0,4.24,0,.24-.23.32-.2.51Z"/><path class="cls-199" d="M36.09,37.34H35.2V35.57l.91,0h0a1.32,1.32,0,0,1,.18,1.71Z"/><path class="cls-200" d="M36.12,39.57l0-2.23v0c.43-.16.26-1,.91-.88h.84c.85.53.4,1.35.43,2,.09,2.08.08,4.16,0,6.24,0,.29-.24.44-.22.68a.63.63,0,0,1-1,0,1,1,0,0,1-.94-.92h0c.67-.5.44-1.21.41-1.86C36.44,41.59,36.87,40.51,36.12,39.57Z"/><path class="cls-201" d="M37,46.29l0,1.8a.83.83,0,0,0-.4.54c0,.92-.61.75-1.16.68s-.53-.72-.85-1a2.9,2.9,0,0,0-1.08-.82.43.43,0,0,1-.1-.29l.1-.83Z"/><path class="cls-202" d="M37,45.41l.82,0,.2.05c.34.36.12.62-.17.85v0H37Z"/><path class="cls-203" d="M32.49,48c0-.55.29-.87.87-.88l.13,0c.26.33.56.64.18,1.08a.84.84,0,0,1-1.11-.16Z"/><path class="cls-204" d="M36.94,52.53c.05.69-.35.89-1,.89l-2.55,0c-.3.3-.6.36-.89,0V51.62a.62.62,0,0,1,.87-.25,1.24,1.24,0,0,0,1.52.63,5.43,5.43,0,0,1,1.2.08A.84.84,0,0,1,36.94,52.53Z"/><path class="cls-205" d="M32.54,53.45l.89,0c0,.28,0,.55,0,.83l-.88,0Z"/><path class="cls-206" d="M33.4,51.63h-.85l-.13-.86h.12a.87.87,0,0,1,1-.4.94.94,0,0,1,.2,1A.45.45,0,0,1,33.4,51.63Z"/><path class="cls-207" d="M33.43,50.78l-.89,0V49c.24-.34.59-.6.85-.93l.09-.85c1.67,0,1.67,0,1.72,1.77v.16a.75.75,0,0,0-.45.91,2.7,2.7,0,0,1-.19.84.53.53,0,0,1-.31.19C33.88,51.23,33.66,51,33.43,50.78Z"/><path class="cls-208" d="M33.4,48.05a.9.9,0,0,1-.85.93v-.86Z"/><path class="cls-209" d="M45.89,40.9H45c0-.61.3-.89.87-.95l.06.11C46.25,40.37,46.46,40.67,45.89,40.9Z"/><path class="cls-210" d="M44.13,40.94c-.1.68.43,1.67-.89,1.74V41Z"/><path class="cls-211" d="M45.89,40.9l.06-.83h.88a.85.85,0,0,0,.87.86l0,.88c-.6,0-.84.36-.9.9H46Z"/><path class="cls-212" d="M37.84,45.37c0-3,0-5.93,0-8.89.07-.55.33-.9.93-.91l0,.9c0,3-.06,5.93-.08,8.9-.25.34-.52.43-.82,0Z"/><path class="cls-213" d="M37.93,45.41l.82,0a.83.83,0,0,1-.88.9Z"/><path class="cls-214" d="M37,36.48c0,.59-.3.9-.91.88V35.55C36.71,35.57,37,35.93,37,36.48Z"/><path class="cls-215" d="M35.2,55.22l0,.86-.85,0A.88.88,0,0,1,35.2,55.22Z"/><path class="cls-216" d="M36.94,52.53l-.87,0A1.35,1.35,0,0,1,35.58,51c.1-.53-.07-.77-.54-.88a.75.75,0,0,1-.17-.33c-.16-.38.08-.6.32-.83l0,0c.77.08,1-.89,1.74-.88Z"/><path class="cls-217" d="M36.12,39.57a1,1,0,0,1,.81,1c0,1,0,2.08,0,3.12a.83.83,0,0,1-.86.84Z"/><path class="cls-218" d="M35.27,49.87c.77.14.82.73.82,1.33,0,.44,0,.88,0,1.31H34.44a.94.94,0,0,1-1-.89h0c.3-.29.6-.59.89-.9h0C34.71,50.55,34.74,49.93,35.27,49.87Z"/><path class="cls-219" d="M34.3,50.74a.87.87,0,0,1-.89.9l0-.86Z"/><path class="cls-220" d="M35.27,49.87a1,1,0,0,1-1,.87l0-.86c.26-.36.54-.4.83,0Z"/><path class="cls-221" d="M35.16,49.85l-.83,0a.81.81,0,0,1,.86-.93Z"/></g></g></svg>