<svg xmlns="http://www.w3.org/2000/svg" viewBox="0 0 74 74"><defs><style>.cls-1{fill:#1e2223;}.cls-2{fill:#475651;}.cls-3{fill:#787f6c;}.cls-4{fill:#c57a47;}.cls-5{fill:#9fa586;}.cls-6{fill:#4e5044;}.cls-7{fill:#9e9971;}.cls-8{fill:#bf8d54;}.cls-9{fill:#576056;}.cls-10{fill:#7d8b85;}.cls-11{fill:#464f48;}.cls-12{fill:#9d7e54;}.cls-13{fill:#c7be8d;}.cls-14{fill:#344040;}.cls-15{fill:#5c6458;}.cls-16{fill:#bec29b;}.cls-17{fill:#aea983;}.cls-18{fill:#6b7c7a;}.cls-19{fill:#5f685b;}.cls-20{fill:#334544;}.cls-21{fill:#596766;}.cls-22{fill:#303b3c;}.cls-23{fill:#2e3c3c;}.cls-24{fill:#424d49;}.cls-25{fill:#9a9f82;}.cls-26{fill:#666e5e;}.cls-27{fill:#38484d;}.cls-28{fill:#3f4a47;}.cls-29{fill:#2f3939;}.cls-30{fill:#595c4c;}.cls-31{fill:#a09b74;}.cls-32{fill:#2f3a3c;}.cls-33{fill:#60695b;}.cls-34{fill:#adb28f;}.cls-35{fill:#867355;}.cls-36{fill:#324141;}.cls-37{fill:#545b4f;}.cls-38{fill:#323e3d;}.cls-39{fill:#283437;}.cls-40{fill:#646d5e;}.cls-41{fill:#575f56;}.cls-42{fill:#75715c;}.cls-43{fill:#54584a;}.cls-44{fill:#5c6356;}.cls-45{fill:#a5aa89;}.cls-46{fill:#8d8d6f;}.cls-47{fill:#49544d;}.cls-48{fill:#425c5f;}.cls-49{fill:#212425;}.cls-50{fill:#1e2527;}.cls-51{fill:#4a5046;}.cls-52{fill:#6c6a62;}.cls-53{fill:#436c71;}.cls-54{fill:#624631;}.cls-55{fill:#6e7a6c;}.cls-56{fill:#748a8e;}.cls-57{fill:#776044;}.cls-58{fill:#484940;}.cls-59{fill:#72705a;}.cls-60{fill:#929779;}.cls-61{fill:#47554f;}.cls-62{fill:#687667;}.cls-63{fill:#3d4e4f;}.cls-64{fill:#28363c;}.cls-65{fill:#334241;}.cls-66{fill:#535747;}.cls-67{fill:#7a816a;}.cls-68{fill:#6b6d57;}.cls-69{fill:#6f735f;}.cls-70{fill:#a8ac8b;}.cls-71{fill:#a0a686;}.cls-72{fill:#8c8f75;}.cls-73{fill:#989d7f;}.cls-74{fill:#4c554a;}.cls-75{fill:#474f46;}.cls-76{fill:#3d4740;}.cls-77{fill:#3b423a;}.cls-78{fill:#949574;}.cls-79{fill:#4e5a52;}.cls-80{fill:#404a4a;}.cls-81{fill:#3b4948;}.cls-82{fill:#78705c;}.cls-83{fill:#5f6049;}.cls-84{fill:#967348;}.cls-85{fill:#636756;}.cls-86{fill:#90835e;}.cls-87{fill:#ab7143;}.cls-88{fill:#303e40;}.cls-89{fill:#565344;}.cls-90{fill:#474c47;}.cls-91{fill:#3e4942;}.cls-92{fill:#756147;}.cls-93{fill:#8e9497;}.cls-94{fill:#7f8488;}.cls-95{fill:#989c9e;}.cls-96{fill:#dadddf;}.cls-97{fill:#8e8559;}.cls-98{fill:#636855;}.cls-99{fill:#959d81;}.cls-100{fill:#354141;}.cls-101{fill:#464e46;}.cls-102{fill:#465553;}.cls-103{fill:#7f8487;}.cls-104{fill:#69705c;}.cls-105{fill:#36444d;}.cls-106{fill:#d2d6d8;}.cls-107{fill:#a4a8aa;}.cls-108{fill:#babec0;}.cls-109{fill:#3d2c24;}.cls-110{fill:#606963;}.cls-111{fill:#7d908c;}.cls-112{fill:#64543f;}.cls-113{fill:#d56837;}.cls-114{fill:#b1b290;}.cls-115{fill:#d09d72;}.cls-116{fill:#ed7800;}.cls-117{fill:#cdc69b;}.cls-118{fill:#cc8f5a;}.cls-119{fill:#e77870;}.cls-120{fill:#b37e6d;}.cls-121{fill:#9e6741;}.cls-122{fill:#ef631c;}.cls-123{fill:#acad88;}.cls-124{fill:#c9b577;}.cls-125{fill:#d3aa63;}.cls-126{fill:#858b73;}.cls-127{fill:#9faba4;}.cls-128{fill:#ea550c;}.cls-129{fill:#c27b49;}.cls-130{fill:#f15900;}.cls-131{fill:#ed7c3f;}.cls-132{fill:#e2ac79;}.cls-133{fill:#d2d2a5;}.cls-134{fill:#ea7e45;}.cls-135{fill:#db9464;}.cls-136{fill:#e0a366;}.cls-137{fill:#c7c69d;}.cls-138{fill:#e4ac7b;}.cls-139{fill:#e07b44;}.cls-140{fill:#b94d1f;}.cls-141{fill:#d49a69;}.cls-142{fill:#324f52;}.cls-143{fill:#465d5d;}.cls-144{fill:#3b585b;}.cls-145{fill:#43452e;}.cls-146{fill:#332424;}.cls-147{fill:#622320;}.cls-148{fill:#483f32;}.cls-149{fill:#73898c;}.cls-150{fill:#aac0c2;}.cls-151{fill:#5e7e82;}.cls-152{fill:#426c6f;}.cls-153{fill:#527a7d;}.cls-154{fill:#709395;}.cls-155{fill:#474c45;}.cls-156{fill:#282e30;}.cls-157{fill:#a3473b;}.cls-158{fill:#c1786b;}.cls-159{fill:#a73826;}.cls-160{fill:#cac6bf;}.cls-161{fill:#6d8486;}.cls-162{fill:#3c3333;}.cls-163{fill:#986c71;}.cls-164{fill:#5c7175;}.cls-165{fill:#7f252e;}.cls-166{fill:#7f4609;}.cls-167{fill:#6f584c;}.cls-168{fill:#aa5200;}.cls-169{fill:#c6d2d3;}.cls-170{fill:#a07c6f;}.cls-171{fill:#975836;}.cls-172{fill:#af9065;}.cls-173{fill:#baba8e;}.cls-174{fill:#deb47c;}.cls-175{fill:#858972;}.cls-176{fill:#a49d71;}.cls-177{fill:#dab577;}.cls-178{fill:#c4a466;}.cls-179{fill:#9d8455;}.cls-180{fill:#d1bf8f;}.cls-181{fill:#d4c093;}.cls-182{fill:#d6c497;}.cls-183{fill:#a59c6e;}.cls-184{fill:#a29061;}.cls-185{fill:#846c42;}.cls-186{fill:#b15f2a;}.cls-187{fill:#c78647;}.cls-188{fill:#bdb17c;}.cls-189{fill:#d4a072;}.cls-190{fill:#cc5f22;}.cls-191{fill:#e74600;}.cls-192{fill:#e1bb73;}.cls-193{fill:#957858;}.cls-194{fill:#b38554;}.cls-195{fill:#df8d52;}.cls-196{fill:#e57f38;}.cls-197{fill:#707476;}.cls-198{fill:#a0a4a5;}.cls-199{fill:#4e5153;}.cls-200{fill:#4f5254;}.cls-201{fill:#6a6e70;}.cls-202{fill:#bfc3c4;}.cls-203{fill:#a7a9ab;}.cls-204{fill:#988f87;}.cls-205{fill:#575553;}.cls-206{fill:#83837d;}.cls-207{fill:#4b5048;}.cls-208{fill:#6e6e6b;}.cls-209{fill:#7a8084;}.cls-210{fill:#525c61;}.cls-211{fill:#909496;}.cls-212{fill:#c4c8ca;}.cls-213{fill:#e1bd78;}.cls-214{fill:#ec8d42;}.cls-215{fill:#c3a35c;}.cls-216{fill:#806b50;}.cls-217{fill:#6f7375;}.cls-218{fill:#7b7f81;}.cls-219{fill:#4e5254;}.cls-220{fill:#b8bcbd;}.cls-221{fill:#4c5052;}.cls-222{fill:#bcc0c1;}.cls-223{fill:#a9abad;}.cls-224{fill:#bec0c2;}.cls-225{fill:#bfc1c3;}.cls-226{fill:#a0a2a4;}.cls-227{fill:#a2a4a6;}.cls-228{fill:#565b4d;}.cls-229{fill:#808385;}.cls-230{fill:#626668;}.cls-231{fill:#798079;}.cls-232{fill:#c0201d;}.cls-233{fill:#ce0000;}.cls-234{fill:#db3435;}.cls-235{fill:#903013;}.cls-236{fill:#f15100;}.cls-237{fill:#e99c00;}.cls-238{fill:#d93e00;}.cls-239{fill:#ed5100;}.cls-240{fill:#ee3e00;}.cls-241{fill:#50342a;}.cls-242{fill:#872505;}.cls-243{fill:#f00200;}.cls-244{fill:#f05000;}.cls-245{fill:#e9a057;}.cls-246{fill:#ee7a32;}.cls-247{fill:#ee3200;}.cls-248{fill:#a93b00;}.cls-249{fill:#ed7f00;}.cls-250{fill:#f13c00;}.cls-251{fill:#eb9d66;}.cls-252{fill:#ee7823;}.cls-253{fill:#ec7e48;}.cls-254{fill:#f05918;}.cls-255{fill:#ee834f;}.cls-256{fill:#637c7d;}.cls-257{fill:#595550;}.cls-258{fill:#6a7466;}.cls-259{fill:#473022;}.cls-260{fill:#7a480b;}.cls-261{fill:#6e3611;}.cls-262{fill:#c25342;}.cls-263{fill:#6f625b;}.cls-264{fill:#a15910;}.cls-265{fill:#8da1a4;}.cls-266{fill:#a0b5b7;}.cls-267{fill:#cb4d38;}.cls-268{fill:#c28a8a;}.cls-269{fill:#df9e94;}.cls-270{fill:#ada8a0;}.cls-271{fill:#969797;}.cls-272{fill:#928d7b;}.cls-273{fill:#426467;}.cls-274{fill:#ea8676;}.cls-275{fill:#e0bfc0;}.cls-276{fill:#829497;}.cls-277{fill:#a1abad;}.cls-278{fill:#e29590;}.cls-279{fill:#773818;}.cls-280{fill:#4e4138;}.cls-281{fill:#6d442e;}.cls-282{fill:#857b73;}.cls-283{fill:#bdb2aa;}.cls-284{fill:#eb9249;}.cls-285{fill:#f05d00;}.cls-286{fill:#e36218;}.cls-287{fill:#e56f2b;}.cls-288{fill:#eb8a57;}.cls-289{fill:#e09656;}.cls-290{fill:#d38336;}.cls-291{fill:#ed6f1c;}.cls-292{fill:#ea984c;}.cls-293{fill:#ed5b00;}.cls-294{fill:#b74600;}.cls-295{fill:#e18335;}.cls-296{fill:#9d6a35;}.cls-297{fill:#8d9193;}.cls-298{fill:#6f5b44;}.cls-299{fill:#9b6d3c;}.cls-300{fill:#a9854a;}.cls-301{fill:#f33b00;}.cls-302{fill:#ed721c;}.cls-303{fill:#7e8284;}.cls-304{fill:#8b8c88;}.cls-305{fill:#75787a;}.cls-306{fill:#7f8385;}.cls-307{fill:#502114;}.cls-308{fill:#f03600;}.cls-309{fill:#8d6500;}.cls-310{fill:#ad7100;}.cls-311{fill:#ce5b00;}.cls-312{fill:#80340b;}.cls-313{fill:#777a72;}.cls-314{fill:#915334;}.cls-315{fill:#da6100;}.cls-316{fill:#ef5d00;}.cls-317{fill:#d43800;}.cls-318{fill:#94551c;}.cls-319{fill:#b04f00;}.cls-320{fill:#635c43;}.cls-321{fill:#655221;}.cls-322{fill:#e79b00;}.cls-323{fill:#f23e00;}.cls-324{fill:#7a7771;}.cls-325{fill:#778e8f;}.cls-326{fill:#5a6853;}.cls-327{fill:#7f8670;}.cls-328{fill:#5c5c47;}.cls-329{fill:#484d34;}.cls-330{fill:#5b5a47;}.cls-331{fill:#74540d;}.cls-332{fill:#7b5844;}.cls-333{fill:#897456;}.cls-334{fill:#a56b2e;}.cls-335{fill:#b3bab0;}.cls-336{fill:#9bb3b5;}.cls-337{fill:#e1dbcc;}.cls-338{fill:#726358;}.cls-339{fill:#477273;}.cls-340{fill:#5e8788;}.cls-341{fill:#ad3600;}.cls-342{fill:#4f352c;}.cls-343{fill:#f31300;}.cls-344{fill:#f32f00;}.cls-345{fill:#ee1800;}.cls-346{fill:#d16f00;}.cls-347{fill:#735c45;}.cls-348{fill:#9e4516;}.cls-349{fill:#c95505;}.cls-350{fill:#d04600;}.cls-351{fill:#ef5c00;}.cls-352{fill:#ef6500;}.cls-353{fill:#b5b0a9;}.cls-354{fill:#5e6456;}.cls-355{fill:#7b5e1d;}.cls-356{fill:#612304;}.cls-357{fill:#573e0b;}.cls-358{fill:#af0900;}.cls-359{fill:#403f27;}.cls-360{fill:#9ba28e;}.cls-361{fill:#938660;}.cls-362{fill:#b48800;}.cls-363{fill:#6d3f0c;}.cls-364{fill:#697a63;}.cls-365{fill:#b38800;}.cls-366{fill:#ed6500;}.cls-367{fill:#ef6600;}.cls-368{fill:#637268;}.cls-369{fill:#688383;}.cls-370{fill:#7a8d78;}.cls-371{fill:#6a7057;}.cls-372{fill:#758a72;}.cls-373{fill:#5f6951;}.cls-374{fill:#628269;}.cls-375{fill:#767e69;}.cls-376{fill:#69614e;}.cls-377{fill:#767d64;}.cls-378{fill:#4f3f27;}.cls-379{fill:#933200;}.cls-380{fill:#7c8981;}.cls-381{fill:#96947d;}.cls-382{fill:#8fa18e;}.cls-383{fill:#806934;}.cls-384{fill:#e47b00;}.cls-385{fill:#ee6c00;}.cls-386{fill:#e99f00;}.cls-387{fill:#594717;}.cls-388{fill:#8d6e24;}.cls-389{fill:#a88642;}.cls-390{fill:#9b7403;}.cls-391{fill:#b3994d;}.cls-392{fill:#d3b85a;}.cls-393{fill:#a5852c;}.cls-394{fill:#7c6301;}.cls-395{fill:#908a5b;}.cls-396{fill:#747d64;}.cls-397{fill:#86967d;}.cls-398{fill:#99ae96;}.cls-399{fill:#c5ceb6;}.cls-400{fill:#a2a891;}.cls-401{fill:#b08725;}.cls-402{fill:#665b2e;}.cls-403{fill:#c09000;}.cls-404{fill:#d6b13e;}.cls-405{fill:#e8cd78;}.cls-406{fill:#a4a48b;}</style></defs><title>shrapnel</title><g id="레이어_2" data-name="레이어 2"><g id="레이어_1-2" data-name="레이어 1"><rect class="cls-1" width="74" height="74" rx="8.33" ry="8.33"/><path class="cls-2" d="M39,5.48c.22,1.35,1.64,2.16,1.64,3.66,0,.29.66.25,1,.31a1,1,0,0,1,.12,1.4,1.72,1.72,0,0,1-1.4.48,2.09,2.09,0,0,1-1.43-.21,2,2,0,0,1-.58-1.73,1.84,1.84,0,0,0-.95-1.84,1.8,1.8,0,0,1-.15-1.92,1.08,1.08,0,0,1,.39-.43A1.07,1.07,0,0,1,39,5.48Z"/><path class="cls-3" d="M65.27,14.73l0,1.19c-.6,1-1.58.67-2.45.72a12.72,12.72,0,0,1-1.51-.07,1.28,1.28,0,0,1-1.1-.44,1.06,1.06,0,0,1,.2-1.41Z"/><path class="cls-4" d="M51.13,15.93l3.64.11a1,1,0,0,1,0,1.48,5,5,0,0,1-4.41,0,1.08,1.08,0,0,1,.1-1.51Z"/><path class="cls-5" d="M49.52,5.46l-.07,2.59a1,1,0,0,1-1.1.46.91.91,0,0,1-.44-.24c-.17-.82-1.28-.81-1.46-1.62a1.15,1.15,0,0,1,.43-1.17h0a1.47,1.47,0,0,1,1.34-.54A1.22,1.22,0,0,1,49.52,5.46Z"/><path class="cls-6" d="M31.16,10.67l1.2,0a1.62,1.62,0,0,1,1.37-.52,1.73,1.73,0,0,1,1.46.43,1.29,1.29,0,0,1,.07,1.5,1.68,1.68,0,0,1-1.38.57c-.49,0-1,0-1.47,0A2.12,2.12,0,0,1,31,12.33a1.1,1.1,0,0,1-.29-1.3A.82.82,0,0,1,31.16,10.67Z"/><path class="cls-7" d="M25.76,13.34l0-2.62.23-.23a1.11,1.11,0,0,1,1.46.26,4.7,4.7,0,0,1-.09,4.09,1.29,1.29,0,0,1-1.56,0A1.1,1.1,0,0,1,25.76,13.34Z"/><path class="cls-8" d="M50.49,16v1.22c-1,1.23-2.3.65-3.51.51a1.14,1.14,0,0,1-.47-1.37.93.93,0,0,1,.39-.46Z"/><path class="cls-9" d="M24.54,9.37l0-2.58a1.09,1.09,0,0,1,1.43-.17,1.78,1.78,0,0,1,.47,1.46A1.61,1.61,0,0,1,26,9.56,1.07,1.07,0,0,1,24.54,9.37Z"/><path class="cls-10" d="M35.06,10.81l-1.33-.09a1,1,0,0,1-.07-1.33l.11-1.26a1.07,1.07,0,0,1,1.38-.25,2.18,2.18,0,0,1,.32,2.51A1,1,0,0,1,35.06,10.81Z"/><path class="cls-11" d="M56.05,15.93c0-.42,0-.84,0-1.26l2.66.05a1.11,1.11,0,0,1,.05,1.54C57.79,16.82,56.85,17,56.05,15.93Z"/><path class="cls-12" d="M47,13.36l-.06,2.58,0,.16a1.18,1.18,0,0,1-1.49.06,2.46,2.46,0,0,1-.17-2.68A1.08,1.08,0,0,1,46.5,13,1,1,0,0,1,47,13.36Z"/><path class="cls-13" d="M20.59,13.3l1.26.11A1,1,0,0,1,22,14.79a1.66,1.66,0,0,1-1.4.48,2.12,2.12,0,0,1-1.45-.33,1.23,1.23,0,0,1-.32-1.4,1.14,1.14,0,0,1,.38-.46A1.17,1.17,0,0,1,20.59,13.3Z"/><path class="cls-14" d="M25.84,6.81l-1.33,0c-.07-.84.22-1.34,1.16-1.33s1.49.22,1.5,1.23a.56.56,0,0,1-.26.37A.88.88,0,0,1,25.84,6.81Z"/><path class="cls-15" d="M49.52,5.46,48.15,5.4a.84.84,0,0,1,.05-1.24c.42,0,.85-.06,1.27,0s1.2-.13,1.22.66S50,5.4,49.52,5.46Z"/><path class="cls-16" d="M10,9.36l1.26.1a1.06,1.06,0,0,1,.21,1.41,1.46,1.46,0,0,1-1.44.42,1.63,1.63,0,0,1-1.39-.54h0A1.14,1.14,0,0,1,8.37,9.5a1.07,1.07,0,0,1,.38-.41A1.14,1.14,0,0,1,10,9.36Z"/><path class="cls-17" d="M48.24,9.45l-.11,1.26a1.07,1.07,0,0,1-1.49.12,2.36,2.36,0,0,1,0-2.78,1,1,0,0,1,1.49,0l.11.07A1,1,0,0,1,48.24,9.45Z"/><path class="cls-18" d="M35,5.46c.08-2.09,1.67-1.09,2.67-1.29a.92.92,0,0,1,.11,1.3H37.6a1.67,1.67,0,0,1-2.28.42A.89.89,0,0,1,35,5.46Z"/><path class="cls-19" d="M58.7,15.94l0-1.22h1.64l0,1.22a.86.86,0,0,1-.4.4A.93.93,0,0,1,58.7,15.94Z"/><path class="cls-20" d="M37.73,5.47l-.11-1.3c1-.09,1.44.31,1.33,1.31Z"/><path class="cls-21" d="M35,8.08l-1.23.05,0-1.32A1,1,0,0,1,35,6.47a.92.92,0,0,1,.39.39A.93.93,0,0,1,35,8.08Z"/><path class="cls-9" d="M44.21,8c-.11-1,.44-1.3,1.3-1.33a.9.9,0,0,1,.39.25,1.15,1.15,0,0,1,0,1.15,1,1,0,0,1-.33.36,1.11,1.11,0,0,1-1.15,0A.71.71,0,0,1,44.21,8Z"/><path class="cls-22" d="M10,9.36H8.7a.84.84,0,0,1,0-1.25C9.59,8,10.08,8.4,10,9.36Z"/><path class="cls-23" d="M48.2,4.16,48.15,5.4l-1.28.07C46.81,4.52,47.25,4.08,48.2,4.16Z"/><path class="cls-24" d="M46.88,5.48l-.05,1.27a.81.81,0,0,1-1.24.09,1.09,1.09,0,0,0-.08-.15C45.49,5.75,46,5.37,46.88,5.48Z"/><path class="cls-25" d="M7.38,9.45c-1,.12-1.49-.27-1.29-1.32H7.37A.85.85,0,0,1,7.38,9.45Z"/><path class="cls-26" d="M7.38,9.45V8.14l1.31,0c0,.42,0,.83,0,1.25l.05.11a1,1,0,0,1-1.38-.06Z"/><path class="cls-27" d="M35,6.78l-1.2,0c-.13-.92.21-1.42,1.2-1.35h.16C35.41,5.94,35.47,6.39,35,6.78Z"/><path class="cls-28" d="M27.17,6.69c.86,0,1.35.41,1.33,1.32a.71.71,0,0,1-.35.41,1,1,0,0,1-1.26-.29,1,1,0,0,1,.2-1.3Z"/><path class="cls-29" d="M25.76,13.34l0,1.31a1,1,0,0,1-1.38.13,1,1,0,0,1,.07-1.4Z"/><path class="cls-30" d="M24.47,13.38l.05,1.25a.94.94,0,0,1-1.38.16,1,1,0,0,1,0-1.39Z"/><path class="cls-31" d="M23.15,13.4l0,1.22-.11.21a.79.79,0,0,1-1.07,0,1.37,1.37,0,0,1-.13-.2l0-1.25Z"/><path class="cls-32" d="M16.57,10.75c.9-.08,1.41.25,1.34,1.22l-.16.24a1,1,0,0,1-1.34-.11A1,1,0,0,1,16.57,10.75Z"/><path class="cls-33" d="M16.57,10.75,16.63,12a.94.94,0,0,1-1.38.17,1,1,0,0,1,0-1.39Z"/><path class="cls-34" d="M15.26,10.77l0,1.23a1.76,1.76,0,0,0-.14.23,1.05,1.05,0,0,1-1.28,0A1.08,1.08,0,0,1,13.59,11a.9.9,0,0,1,.37-.38Z"/><path class="cls-35" d="M41.56,10.68l.06-1.23,1.26-.11.23.15a1.05,1.05,0,0,1,0,1.28,1,1,0,0,1-1.24.3A.8.8,0,0,1,41.56,10.68Z"/><path class="cls-36" d="M33.66,9.39l.07,1.33-1.37,0C32.34,9.81,32.74,9.34,33.66,9.39Z"/><path class="cls-37" d="M29.83,9.33c.92,0,1.32.46,1.33,1.34l-.13.09a1,1,0,0,1-1.28.19,1,1,0,0,1-.33-1.26A.76.76,0,0,1,29.83,9.33Z"/><path class="cls-38" d="M24.54,9.37l1.23.06a.88.88,0,0,1,.11,1.31l-.14,0C24.74,10.8,24.43,10.27,24.54,9.37Z"/><path class="cls-39" d="M12.62,9.43c.89-.07,1.41.26,1.34,1.23l0,.14a1.11,1.11,0,0,1-1.43,0A1,1,0,0,1,12.62,9.43Z"/><path class="cls-40" d="M12.62,9.43l.06,1.25a.81.81,0,0,1-1.3,0L11.3,9.46Z"/><path class="cls-41" d="M48.24,9.45V8.13l1.22-.08C49.62,9,49.27,9.53,48.24,9.45Z"/><path class="cls-42" d="M42.88,9.34c-.15-1,.44-1.33,1.33-1.32l.06.14a.94.94,0,0,1,0,1.35,1,1,0,0,1-1.36,0Z"/><path class="cls-43" d="M48.15,12c.12.91-.15,1.47-1.2,1.34h-.16a1.05,1.05,0,0,1,0-1.4A1,1,0,0,1,48.15,12Z"/><path class="cls-44" d="M20.59,13.3H19.24a.81.81,0,0,1,0-1.22C20.16,11.92,20.68,12.26,20.59,13.3Z"/><path class="cls-45" d="M19.2,12.08c0,.41,0,.82,0,1.23v.13a1.05,1.05,0,0,1-1.39,0,.94.94,0,0,1,.08-1.36l0-.14Z"/><path class="cls-46" d="M48.15,12l-1.22,0-.22-.15a.81.81,0,0,1,.21-1.2h1.21Z"/><path class="cls-47" d="M28.5,8c.84,0,1.37.39,1.33,1.32a.76.76,0,0,0-.11.14,1,1,0,0,1-1.39,0,1,1,0,0,1,.08-1.38Z"/><path class="cls-48" d="M45.53,62.07v6.52c-1.75,1.22-3.59.82-5.43.26a11.66,11.66,0,0,1,0-7C41.91,61.2,43.75,60.87,45.53,62.07Z"/><path class="cls-49" d="M40.24,68.55l5.28,0a2.42,2.42,0,0,1,1.36.36c0,.32,0,.63-.05,1l-19.64,0,0-1.22h0A1.51,1.51,0,0,1,28.4,68,9.54,9.54,0,0,1,31,68l1.38,0c.46,0,.91,0,1.37,0s.92,0,1.38,0,1,0,1.44,0C37.76,68.17,39.15,67.45,40.24,68.55Z"/><path class="cls-50" d="M45.53,62.07H40.28a.43.43,0,0,1-.53-.11,1.09,1.09,0,0,1,0-1.38,1.22,1.22,0,0,1,.5-.3,7.78,7.78,0,0,1,2.63-.22,10.52,10.52,0,0,1,2.63.07,1.54,1.54,0,0,1,1.31.57,2,2,0,0,1-.3,1.36Z"/><path class="cls-51" d="M56.1,39.71l0,2.56c-1.24-1-3.24-.74-4-2.53l.16-.28C53.59,38.87,54.89,38.53,56.1,39.71Z"/><path class="cls-52" d="M52.11,39.74l-1.3-.05,0,0a1,1,0,0,1-.09-1.4,1.1,1.1,0,0,1,1.45,0,.94.94,0,0,1,0,1.4Z"/><path class="cls-53" d="M28.48,68.59l-1.35,0,.05-5.32a1,1,0,0,1,1.49,0C29.43,65.1,29.67,66.87,28.48,68.59Z"/><path class="cls-54" d="M27.09,38.4c-1-.14-1.32.37-1.29,1.26l-1.28.07-.27-.18a2.25,2.25,0,0,1,0-2.7,2.22,2.22,0,0,1,1.54-.4,1.76,1.76,0,0,1,1.49.5A1,1,0,0,1,27.09,38.4Z"/><path class="cls-55" d="M13.91,44.93c0-.89.37-1.43,1.34-1.36a1.17,1.17,0,0,1,.57,1.31,1.49,1.49,0,0,1-.56,1.35C14.2,46.43,13.88,45.86,13.91,44.93Z"/><path class="cls-56" d="M28.37,63.36l-1.19,0c0-.1-.06-.2-.1-.3.08-.37,0-.8.38-1a.92.92,0,0,1,1-.14A.91.91,0,0,1,28.77,63,.75.75,0,0,1,28.37,63.36Z"/><path class="cls-57" d="M23.16,41l-1.25.08-.24-.16a1.08,1.08,0,0,1,0-1.35A1.19,1.19,0,0,1,23,39.29a1.13,1.13,0,0,1,.43.38A1.08,1.08,0,0,1,23.16,41Z"/><path class="cls-58" d="M23.16,41l.07-1.25a.84.84,0,0,1,1.27-.09l0,.1C24.56,40.68,24.07,41.05,23.16,41Z"/><path class="cls-59" d="M21.91,41.05c.1,1-.48,1.31-1.35,1.34a2.11,2.11,0,0,0-.23-.19,1,1,0,0,1,.13-1.38,1,1,0,0,1,1.37.14Z"/><path class="cls-60" d="M19.19,43.59l-1.25.1-.23-.17a1.1,1.1,0,0,1,0-1.35,1.23,1.23,0,0,1,1.37-.25,1,1,0,0,1,.42.39A1,1,0,0,1,19.19,43.59Z"/><path class="cls-61" d="M19.19,43.59l.08-1.23a.83.83,0,0,1,1.27-.12l0,.15C20.6,43.35,20.08,43.68,19.19,43.59Z"/><path class="cls-62" d="M17.94,43.69c.12,1-.49,1.29-1.33,1.32l-.23-.19a1.07,1.07,0,0,1,.14-1.38,1.09,1.09,0,0,1,1.39.09Z"/><path class="cls-63" d="M15.26,46.23l0-1.29a1,1,0,0,1,1.31-.07V45C16.65,46,16.14,46.31,15.26,46.23Z"/><path class="cls-64" d="M14,17.29c-2.13-.08-2.56-.51-2.64-2.64a1.1,1.1,0,0,1,1.25-.3A12.78,12.78,0,0,0,14.3,16,1.11,1.11,0,0,1,14,17.29Z"/><path class="cls-65" d="M14,29.11l-1.35,0c0-.1,0-.21,0-.31a1.44,1.44,0,0,1,0-2.3l1.21,0a.68.68,0,0,1,.43.25A1.67,1.67,0,0,1,14.56,28,1.28,1.28,0,0,1,14,29.11Z"/><path class="cls-66" d="M17.83,22.53l.05-2.47a.7.7,0,0,1,.38-.43c1.27-.24,1.6.47,1.57,1.55a2.07,2.07,0,0,1-.29,1.41,1.12,1.12,0,0,1-1.31.34A.91.91,0,0,1,17.83,22.53Z"/><path class="cls-67" d="M14,17.29l-.07-1.24c.05-.08.09-.16.14-.23a1,1,0,0,1,1.29-.05A1.06,1.06,0,0,1,15.63,17a.73.73,0,0,1-.4.35Z"/><path class="cls-68" d="M17.88,20.06c-.87,0-1.43-.38-1.34-1.36a.82.82,0,0,1,.41-.39c1.28-.07,1.61.46,1,1.58A1.22,1.22,0,0,1,17.88,20.06Z"/><path class="cls-69" d="M16.54,18.7c-.91,0-1.4-.35-1.31-1.32a.71.71,0,0,0,.1-.14,1,1,0,0,1,1.37,0,1,1,0,0,1,0,1.36Z"/><path class="cls-70" d="M8.68,10.75l1.33,0a.87.87,0,0,1,.33,1.06.73.73,0,0,1-.36.31C9,12.22,8.52,11.77,8.68,10.75Z"/><path class="cls-71" d="M7.37,9.42l1.38.06-.07,1.28C7.62,10.92,7.22,10.43,7.37,9.42Z"/><path class="cls-72" d="M12.61,14.73l-1.25-.08-.06-1.23.09-.23A1.06,1.06,0,0,1,12.56,13a1.08,1.08,0,0,1,.4.3,1.15,1.15,0,0,1,0,1.2A.72.72,0,0,1,12.61,14.73Z"/><path class="cls-73" d="M11.3,13.42c-1,.09-1.47-.29-1.32-1.32a.67.67,0,0,1,.09-.14c1.47-.32,1.65-.14,1.32,1.32Z"/><path class="cls-74" d="M13.87,26.49c.06-.84.42-1.39,1.35-1.38a.74.74,0,0,1,.4.36,1,1,0,0,1-.31,1.26A1,1,0,0,1,14,26.54Z"/><path class="cls-75" d="M15.22,25.11c0-.89.49-1.28,1.33-1.3l.24.17a1,1,0,0,1-.11,1.36,1,1,0,0,1-1.35-.1A.69.69,0,0,1,15.22,25.11Z"/><path class="cls-76" d="M16.55,23.81c0-.84.4-1.31,1.28-1.28l.16.07a.95.95,0,1,1-1.35,1.33Z"/><path class="cls-77" d="M53.45,22.69v2.46l-.19.24a1,1,0,0,1-1.4-.16,2.49,2.49,0,0,1-.07-2.59,1,1,0,0,1,1.3-.38A.7.7,0,0,1,53.45,22.69Z"/><path class="cls-78" d="M60,27.74l2.58.13a1,1,0,0,1,.15,1.43,2.59,2.59,0,0,1-2.69.28,1.19,1.19,0,0,1-.44-1.39A1,1,0,0,1,60,27.74Z"/><path class="cls-79" d="M62.62,29.11V27.87L64,27.81c-.26,1,.78,2.6-1.35,2.61A.93.93,0,0,1,62.62,29.11Z"/><path class="cls-80" d="M62.69,16l2.54-.07c.09,2-1.57,1.14-2.49,1.47a.61.61,0,0,1-.38-.3A.88.88,0,0,1,62.69,16Z"/><path class="cls-81" d="M62.74,17.39c-.06.89-.5,1.33-1.42,1.21a.94.94,0,1,1,1.31-1.33Z"/><path class="cls-82" d="M61.34,17.36c0,.41,0,.83,0,1.24l-1.27.13a.79.79,0,0,1-.38-.26,1.2,1.2,0,0,1,0-1.15A1,1,0,0,1,60,17a1.09,1.09,0,0,1,1.14,0A.68.68,0,0,1,61.34,17.36Z"/><path class="cls-83" d="M54.74,25.25c.91-.14,1.47.13,1.33,1.18l-.15.24a1,1,0,0,1-1.31-.1A1,1,0,0,1,54.74,25.25Z"/><path class="cls-84" d="M54.74,25.25l0,1.19-.16.24a1,1,0,0,1-1.32-.1.94.94,0,0,1,.18-1.3v-.13Z"/><path class="cls-85" d="M58.68,26.56c.93-.15,1.48.14,1.36,1.18l0,.17a1,1,0,0,1-1.39,0A1,1,0,0,1,58.68,26.56Z"/><path class="cls-86" d="M58.68,26.56l0,1.2-.16.24a1,1,0,0,1-1.34-.11,1,1,0,0,1,.18-1.33Z"/><path class="cls-87" d="M57.39,26.56v1.22A.92.92,0,0,1,56,28a.9.9,0,0,1,.05-1.35.32.32,0,0,0,0-.17Z"/><path class="cls-88" d="M58.73,20c0,.94-.47,1.3-1.36,1.21A1,1,0,0,1,57.15,20a1,1,0,0,1,1.23-.34A.69.69,0,0,1,58.73,20Z"/><path class="cls-89" d="M57.4,20l0,1.21-1.25.11a.73.73,0,0,1-.39-.32,1.08,1.08,0,0,1,.16-1.23,1,1,0,0,1,1.21-.17A.68.68,0,0,1,57.4,20Z"/><path class="cls-90" d="M60.05,18.73c.09,1-.53,1.22-1.32,1.29l0-.14a1,1,0,0,1-.29-1.21.93.93,0,0,1,.38-.38,1.09,1.09,0,0,1,1.24.27A.53.53,0,0,0,60.05,18.73Z"/><path class="cls-91" d="M56.12,21.34c0,.94-.49,1.31-1.38,1.2a1,1,0,0,1-.07-1.37,1,1,0,0,1,1.38,0Z"/><path class="cls-92" d="M54.77,21.32l0,1.22-1.29.15a.55.55,0,0,1,0-.18.93.93,0,0,1,1-1.58A.78.78,0,0,1,54.77,21.32Z"/><path class="cls-93" d="M4.81,33.12c-.19-.94.08-1.39,1.16-1.36,3,.07,6,0,9,.07.71.81,1.66.6,2.56.61s1.67-.19,2.12.77a1.34,1.34,0,0,1-.25,1.38,3.36,3.36,0,0,1-2.58.49,11.08,11.08,0,0,1-2.51-.15,1.63,1.63,0,0,1-.47-.2c-1-1.3-1.28-1.31-2.24-.07a1.33,1.33,0,0,1-.46.23,3.18,3.18,0,0,1-2.31-.06C8.21,34.49,8,33.5,7,33.76,6.23,33.73,5.37,33.94,4.81,33.12Z"/><path class="cls-94" d="M16.58,39.71c-3.47,0-6.95-.06-10.43,0-1,0-1.58-.25-1.34-1.37a1.7,1.7,0,0,1,1.42-.57c3.49-.12,7,0,10.45,0a1.74,1.74,0,0,1,1.36.41,1.25,1.25,0,0,1,.05,1.56A1.08,1.08,0,0,1,16.58,39.71Z"/><path class="cls-95" d="M19.27,33.12a18.34,18.34,0,0,1-2.22.11c-.93,0-2,0-2.09-1.4l.32-.1c.65-.77,1.54-.6,2.38-.6H19c1,.23,1.06-.88,1.68-1.18A3.39,3.39,0,0,1,22,29.85c1.14,0,1.72.5,1.56,1.69-.43.74-1.3,1.1-1.62,1.93a1.79,1.79,0,0,1-1.41.2A1.49,1.49,0,0,1,19.27,33.12Z"/><path class="cls-96" d="M6,38.32H4.81v-5.2H7.37a1.08,1.08,0,0,1,.41,1.13c-.21.65-1.3.77-1,1.7,0,.42,0,.84-.06,1.25A1.32,1.32,0,0,1,6,38.32Z"/><path class="cls-97" d="M17.91,29.2l-1.28-.11a1,1,0,0,1-.2-1.4,1.49,1.49,0,0,1,1.42-.47,2,2,0,0,1,1.48.3,1.32,1.32,0,0,1,.3,1.42,1.07,1.07,0,0,1-.37.47A1.12,1.12,0,0,1,17.91,29.2Z"/><path class="cls-98" d="M16.59,27.88l0,1.21-2.61,0c0-.44,0-.88,0-1.32a1.5,1.5,0,0,1,1.33-.48A1.1,1.1,0,0,1,16.59,27.88Z"/><path class="cls-99" d="M16.6,44.87l-1.31.07,0-1.37.06-1.24a1,1,0,0,1,1.4-.12,1,1,0,0,1-.1,1.41Z"/><path class="cls-100" d="M17.89,31.72H15.28c.21-1.76,1.62-1.12,2.61-1.3l.2.15A.82.82,0,0,1,17.89,31.72Z"/><path class="cls-101" d="M16.58,39.71l1.35-.06.21.13a1.05,1.05,0,0,1,.17,1.16,1,1,0,0,1-.33.38,1.12,1.12,0,0,1-1.18,0,.77.77,0,0,1-.25-.41Z"/><path class="cls-102" d="M16.58,42.26l-1.27.07c-.14-.95.35-1.36,1.24-1.42l.09.12A.8.8,0,0,1,16.58,42.26Z"/><path class="cls-100" d="M17.91,29.2l1.33,0a.91.91,0,0,1,.31,1.19.93.93,0,0,1-.38.38,1.05,1.05,0,0,1-1.23-.31l-.05-.05C17.89,30,17.9,29.61,17.91,29.2Z"/><path class="cls-93" d="M58.72,31.73c3.1,0,6.21.07,9.31,0,1.08,0,1.35.42,1.16,1.36-.57.81-1.42.61-2.22.64-1-.25-1.19.75-1.82,1.08a3,3,0,0,1-2.3,0c-1.66-1.47-1.25-1.6-3,0a7.83,7.83,0,0,1-2.55.21c-2.49.1-2.75,0-2.93-1.74.29-1,1.33-1.19,1.83-1.94A2.09,2.09,0,0,1,58.72,31.73Z"/><path class="cls-103" d="M52.14,39.6l0-1.19c.6-1.13,1.66-.57,2.53-.71H65.26a25.46,25.46,0,0,1,2.62.06,1.48,1.48,0,0,1,1.3.57c.24,1.14-.36,1.36-1.36,1.35-3.91,0-7.82,0-11.72,0Z"/><path class="cls-104" d="M62.62,29.11c0,.43,0,.87,0,1.31l-3.9.09a2,2,0,0,1-2.76.15,1.31,1.31,0,0,1-.11-1.57c.78-.84,1.78-.57,2.74-.54a1.63,1.63,0,0,1,1.4.57Z"/><path class="cls-105" d="M56.08,30.49l2.65,0c0,.4,0,.81,0,1.22l-2.65.08-.2-.17A.81.81,0,0,1,56.08,30.49Z"/><path class="cls-106" d="M66.63,33.15l2.56,0v1.27a1.45,1.45,0,0,1-1.33.57,1.43,1.43,0,0,1-1.42-.4A1,1,0,0,1,66.63,33.15Z"/><path class="cls-107" d="M67.87,34.48l1.32-.09,0,2.66a1,1,0,0,1-1.22.33,1,1,0,0,1-.4-.37,2.05,2.05,0,0,1-.21-1.33A1.35,1.35,0,0,1,67.87,34.48Z"/><path class="cls-108" d="M68,37.09l1.17,0v1.28H68C67.59,37.89,67.51,37.48,68,37.09Z"/><path class="cls-109" d="M35,12l.06-1.19,0-.1a1.5,1.5,0,0,1,1.25-.58,6.83,6.83,0,0,1,1.43,0,1.5,1.5,0,0,1,1.26.56l1.29.06a1.05,1.05,0,0,1,.19,1.4c-.71.76-1.65.5-2.52.54-.46,0-.92,0-1.37,0a2.08,2.08,0,0,1-1.27-.26A.74.74,0,0,1,35,12Z"/><path class="cls-110" d="M39,10.69l-1.33,0a2.3,2.3,0,0,1-.21-3.06l.27-.15c.91,0,1.29.41,1.28,1.28C39,9.39,39,10,39,10.69Z"/><path class="cls-111" d="M35,6.78l.16-1.32H37.6l.09,2-.09,0a1.12,1.12,0,0,1-1.14.49c-.7-.08-.94-.69-1.34-1.11Z"/><path class="cls-112" d="M40.28,12l0-1.27,1.31-.07.11.06a1.07,1.07,0,0,1,.14,1.35,1,1,0,0,1-1.34.16Z"/><path class="cls-113" d="M58.7,15.94,60,16a.89.89,0,0,1,0,1.28l0,0c-.45.44-.89.88-1.33,1.33l0,0a1.19,1.19,0,0,1-1.17.41,1.1,1.1,0,0,1-.44-.23c-.31-1.22-1.74-.54-2.3-1.34l-.07-.23c0-.41,0-.81,0-1.22l1.28-.11Z"/><path class="cls-114" d="M62.63,17.27l-1.29.09,0-.14a.78.78,0,0,1,0-1.18l1.35,0Z"/><path class="cls-115" d="M61.34,16c0,.4,0,.79,0,1.18l-1.34.1V16l.32-.1Z"/><path class="cls-116" d="M46.85,17.25h7.91l0,.12c.68,1.05.24,1.64-.85,1.87a8.18,8.18,0,0,1-1.79.18,21.15,21.15,0,0,0-4.21,0,4,4,0,0,1-2.36-.45,1.18,1.18,0,0,1-.42-1.37,1.12,1.12,0,0,1,.34-.49A1.08,1.08,0,0,1,46.85,17.25Z"/><path class="cls-117" d="M45.59,6.84l1.24-.09c.91,0,1.47.26,1.29,1.31l-1.28.09a.87.87,0,0,1-1.31-.07Z"/><path class="cls-118" d="M29.75,10.69l1.28.07c0,.41,0,.82.08,1.23l-.15.23a1,1,0,0,1-1.32,0,1,1,0,0,1-.11-1.32Z"/><path class="cls-119" d="M33.73,12.1,35,12l0,.09a1,1,0,0,1,0,1.41,1.11,1.11,0,0,1-1.45,0A1,1,0,0,1,33.73,12.1Z"/><path class="cls-120" d="M33.73,12.1v1.21a.92.92,0,0,1-1.36.16.94.94,0,0,1,0-1.38Z"/><path class="cls-121" d="M32.41,12.09v1.22l-.18.24a1,1,0,0,1-1.34-.15A1.09,1.09,0,0,1,31,12l.12,0Z"/><path class="cls-122" d="M27.07,14.66l.06-3.9.19-.23a1.06,1.06,0,0,1,1.39.14,2.19,2.19,0,0,1,.37,1.47c-.07,1.35.45,2.76-.43,4a1.25,1.25,0,0,1-1.54,0A1.08,1.08,0,0,1,27.07,14.66Z"/><path class="cls-123" d="M28.41,8.14l.06,1.24c-.08.79-1.07.73-1.3,1.38h0l-1.25,0-.11-1.31.08-1.31a1,1,0,0,1,1.33-.06Z"/><path class="cls-124" d="M27.07,14.66,27.16,16c-.05.08-.1.16-.14.24a1.53,1.53,0,0,1-1.28.37,13.06,13.06,0,0,1-1.4,0A1.42,1.42,0,0,1,23,16.14a1,1,0,0,1,.21-1.38v-.14h1.33l1.26,0Z"/><path class="cls-125" d="M46.85,17.25l-1.24.05a.79.79,0,0,1,0-1.3l1.25.1Z"/><path class="cls-126" d="M27.18,8.06l-1.33.06c0-.44,0-.87,0-1.31l1.25,0Z"/><path class="cls-127" d="M35.12,6.79c.52,0,1,0,1.23.65a2.18,2.18,0,0,1,0,3.24l-1.3,0c0-.88,0-1.76,0-2.63Z"/><path class="cls-128" d="M45.59,16c0,.43,0,.86,0,1.3l-.11.05a1,1,0,0,1-1.45,0,4.77,4.77,0,0,1-.2-3.93,1.09,1.09,0,0,1,1.32-.5,1,1,0,0,1,.46.38Z"/><path class="cls-129" d="M46.93,12.05l-.14,1.32-1.16,0-.13,0A1.07,1.07,0,0,1,45.42,12,.94.94,0,0,1,46.8,12Z"/><path class="cls-130" d="M23.2,15.93l1.28.1a1,1,0,0,1,.29,1.26,1.28,1.28,0,0,1-1.18.65c-.83-.06-1.2.5-1.65,1a2.13,2.13,0,0,1-1.31.29c-1.51.37-2.13-.86-3-1.65a1.82,1.82,0,0,1-.19-1c.15-.82,1.06-1,1.41-1.65a.94.94,0,0,1,.38-.27l1.3.11a1.84,1.84,0,0,0,1.63.66C22.61,15.36,22.89,15.68,23.2,15.93Z"/><path class="cls-131" d="M21.9,16c-1,.15-1.4-.28-1.37-1.23l1.35-.06,0,0A.84.84,0,0,1,21.9,16Z"/><path class="cls-132" d="M17.89,13.3l1.35.14c0,.39,0,.78,0,1.17l0,.13a1.12,1.12,0,0,1-1.38.14,1,1,0,0,1-.2-1.37Z"/><path class="cls-133" d="M11.39,13.28c.06-.94-.48-1.28-1.32-1.32L10,10.73l1.37,0,1.3,0L14,10.8,14,12c-.18.7-.83,1-1.31,1.37Z"/><path class="cls-134" d="M46.8,12l-1.2,0c-1.14-.63-.59-1.67-.65-2.57a1.66,1.66,0,0,1,.6-1.39h0l1.31.07c0,.85,0,1.7.08,2.55Z"/><path class="cls-135" d="M45.55,8.09V9.43a.85.85,0,0,1-1,.26.57.57,0,0,1-.26-.36l0-1.17Z"/><path class="cls-136" d="M21.9,16l-.06-1.25,1.36.06v1.17Z"/><path class="cls-137" d="M17.93,12.11c0,.4,0,.79,0,1.19l0,.09a1.52,1.52,0,0,1-1.34.52,1.62,1.62,0,0,1-1.41-.41,1,1,0,0,1,.13-1.38V12h1.33Z"/><path class="cls-138" d="M15.3,12.12l0,1.22c0,.08-.08.17-.13.25a1.47,1.47,0,0,1-1.3.34,1.45,1.45,0,0,1-1.21-.56h0C12.56,12.43,13,12,14,12Z"/><path class="cls-139" d="M43,9.47l1.29-.14v.12c.63,1.1.33,1.64-1,1.59a.82.82,0,0,1-.41-.39Z"/><path class="cls-140" d="M41.6,12c0-.43,0-.86.07-1.28l1.22-.09.09.09a1,1,0,0,1,0,1.43A1,1,0,0,1,41.6,12Z"/><path class="cls-141" d="M27.17,10.76c-.17-1,.35-1.41,1.3-1.38l1.25.09,0,1.22,0,.05a.9.9,0,0,1-1.26.06Z"/><path class="cls-142" d="M45.53,47.23c0,2.35,0,4.69,0,7,0,1.08-.25,1.83-1.66,1.34a8.1,8.1,0,0,0-2.27-.14c-.66-.33-.66-.94-.66-1.54,0-2.78,0-5.55,0-8.32a2.48,2.48,0,0,1,.74-1.9c1.25-.55,1.69-.37,1.94.81a2,2,0,0,1,.05.64C43.48,46.58,43.86,47.48,45.53,47.23Z"/><path class="cls-143" d="M45.53,47.23c-.4.44-.8.87-1.19,1.31-.26.28-.53.6-1,.46s-.44-.57-.45-1c0-1,0-1.94,0-2.91,0-.59,0-1.22-.65-1.52-.7.45-1.41.77-2.19.17a1.83,1.83,0,0,1-.14-2.21A3,3,0,0,1,42.49,41c.69.07,1.13-.13,1.09-1,0-.64,0-1.28,0-1.92,0-1.12.5-1.74,1.72-1.43a.86.86,0,0,1,.32.36Z"/><path class="cls-144" d="M40.31,43.63h1.95a5.27,5.27,0,0,0-.67,2.83c0,3,0,6,0,9,0,.42,0,.85,0,1.27a1,1,0,0,1-1.38.24,1.46,1.46,0,0,1-.37-.51c-.41-2.33-.11-4.69-.18-7,0-1.42,0-2.85,0-4.27C39.64,44.56,39.64,43.94,40.31,43.63Z"/><path class="cls-145" d="M46.83,37.07l-1.21,0-.13,0c-.21-.24-.53-.47-.54-.78,0-2-.45-4,.41-5.87a1.34,1.34,0,0,1,1.57-.16c.94.73.47,1.78.6,2.7a12.21,12.21,0,0,1-.25,3.81A.89.89,0,0,1,46.83,37.07Z"/><path class="cls-146" d="M40.29,56.83l1.28-.09c1.31,0,2.61.06,3.91,0,1,0,1.44.36,1.36,1.35a1.55,1.55,0,0,1-1.26.57,9.66,9.66,0,0,1-2.52.06l-1.37,0a2.48,2.48,0,0,1-1.34-.25,1,1,0,0,1-.39-.4A1,1,0,0,1,40.29,56.83Z"/><path class="cls-147" d="M45.52,58.13h1.32v2.56l-1.33,0A1.56,1.56,0,0,1,45.52,58.13Z"/><path class="cls-148" d="M49.4,38.4l-2.53-.06c0-.42,0-.84,0-1.27l.09-.09a1.47,1.47,0,0,1,1.27-.5,1.94,1.94,0,0,1,1.37.27,1.08,1.08,0,0,1,.27,1.3A.75.75,0,0,1,49.4,38.4Z"/><path class="cls-149" d="M40,62l.31.09c0,2.16,0,4.33,0,6.49l-3.89,0a1.07,1.07,0,0,1-.26-1.31,3.48,3.48,0,0,0,2.15-3.85,1.77,1.77,0,0,1,.66-1.57A1,1,0,0,1,40,62Z"/><path class="cls-150" d="M28.48,68.59l-.11-5.23h.15c.86-1,1.78-.78,2.72-.15.68,1.81,1,3.61-.18,5.36Z"/><path class="cls-151" d="M36.36,67.28v1.29H35A5.24,5.24,0,0,1,35,63.17c1.52-.28,2,0,2.08,1.38C37.11,65.52,37.23,66.53,36.36,67.28Z"/><path class="cls-152" d="M35,63.37l0,5.19H33.7c-1.1-1.72-.82-3.5-.18-5.29A1.06,1.06,0,0,1,35,63.37Z"/><path class="cls-153" d="M33.72,63.39l0,5.17H32.38c-1.09-1.73-.85-3.5-.16-5.29A1,1,0,0,1,33.72,63.39Z"/><path class="cls-154" d="M32.4,63.42c0,1.72,0,3.43,0,5.15H31.06c0-1.74,0-3.48,0-5.22,0-.07.07-.13.1-.19a.82.82,0,0,1,1-.1A.6.6,0,0,1,32.4,63.42Z"/><path class="cls-155" d="M50.84,38.33c0,.44,0,.88,0,1.32-1,.14-1.37-.35-1.43-1.25l.11-.06a.92.92,0,0,1,1.16-.2Z"/><path class="cls-156" d="M40,62l-1,.1a2.18,2.18,0,0,1-2,.69c-1.45-.11-2.9,0-4.34-.06H31c-.88-.06-1.86.27-2.56-.61l-1-.1v-1.2a1.06,1.06,0,0,1,1-.59,14.54,14.54,0,0,1,2.72-.12H36.4c1.18.26,2.58-.62,3.56.69Z"/><path class="cls-157" d="M45.52,58.13c0,.84,0,1.69,0,2.53H42.94a1.51,1.51,0,0,1,0-2.53Z"/><path class="cls-158" d="M40,60.76l-3.64-.09a1.05,1.05,0,0,1-.25-1.28c.74-1,2.37-.35,2.92-1.64a1.19,1.19,0,0,1,1.3.29v.09a1.33,1.33,0,0,1,.5,1.27,1.31,1.31,0,0,1-.53,1.27C40.16,60.69,40.06,60.73,40,60.76Z"/><path class="cls-159" d="M40.26,60.67l.07-1.23a13,13,0,0,1,1.26-1.31h1.33c0,.84,0,1.69,0,2.53Z"/><path class="cls-160" d="M54.75,38.34l-2.63.07-1.28-.08h0c-.88-.68-.75-1.58-.55-2.5.64-.56,1.18-1.23,1.81-1.81a1.54,1.54,0,0,1,1.4.06,1.27,1.27,0,0,1,.59,1.16,1.26,1.26,0,0,0,.85,1.52,1,1,0,0,1,.25.43A1.12,1.12,0,0,1,54.75,38.34Z"/><path class="cls-161" d="M27.09,38.4V37.05l.23-.23a1.08,1.08,0,0,1,1.45.3A3.12,3.12,0,0,1,29.1,39c0,4.81,0,9.62,0,14.43a2.85,2.85,0,0,1-.43,2,1,1,0,0,1-1.49,0Z"/><path class="cls-162" d="M40.29,58,39,58.13c-.7.86-1.68.56-2.57.62H31.06c-.87,0-1.74,0-2.61-.06a1.51,1.51,0,0,1-1.29-.57V56.76a1.46,1.46,0,0,1,1.24-.58,13.29,13.29,0,0,1,1.41,0h6.57c1.29.17,2.7-.46,3.88.54l0,.17Z"/><path class="cls-163" d="M27.16,58.12l1.31,0a1,1,0,0,1,.3,1.2,1,1,0,0,1-.37.38,1,1,0,0,1-1.22-.31Z"/><path class="cls-164" d="M28.48,56.74l-1.32,0c0-.44,0-.88,0-1.31l1.24,0,.2.15A.84.84,0,0,1,28.48,56.74Z"/><path class="cls-165" d="M27.18,59.41l1.2,0c.48.39.42.81.07,1.25l-1,.1A1.57,1.57,0,0,1,27.18,59.41Z"/><path class="cls-166" d="M27.09,37.05,25.8,37c-.86-.67-.52-2.12-1.7-2.59a1.41,1.41,0,0,1,0-1.35c.65-.42,1.07-1.14,1.83-1.41a1.49,1.49,0,0,1,1.49.35c.42,1.7.8,3.4-.27,5Z"/><path class="cls-167" d="M24.5,39.63l-1.27.09-.11-.1c-.84-.65-.55-1.57-.58-2.42a2.66,2.66,0,0,1,.28-1.44,1.13,1.13,0,0,1,.44-.4,1.19,1.19,0,0,1,1.41.26A1.06,1.06,0,0,1,24.51,37Z"/><path class="cls-168" d="M24.51,37l-.06-1.26a.88.88,0,0,1,.08-1.32c2.07.06,1,1.64,1.27,2.58Z"/><path class="cls-169" d="M28.47,62.08h2.59a.87.87,0,0,1,0,1.27H28.52Z"/><path class="cls-170" d="M23.15,37.05l0,2.57-1.25.08a1.12,1.12,0,0,1-1.41.15,1.26,1.26,0,0,1-.34-1.37c.36-.81,1.32-1,1.75-1.75A1.1,1.1,0,0,1,23.15,37.05Z"/><path class="cls-171" d="M20.53,39.63l1.34.06c0,.43,0,.85,0,1.27L20.54,41a1.1,1.1,0,0,1-1.3.26,1.05,1.05,0,0,1-.38-.43,1.16,1.16,0,0,1,.29-1.37A1.07,1.07,0,0,1,20.53,39.63Z"/><path class="cls-172" d="M19.21,41h1.33v1.22l-1.27.12-.08-.12A.81.81,0,0,1,19.21,41Z"/><path class="cls-173" d="M16.58,42.26,16.64,41h1.29a.89.89,0,0,1,0,1.29l0,1.23-1.3.08Z"/><path class="cls-174" d="M17.93,42.31V41l0-.07a1,1,0,0,1,1.35,0l0,.05c0,.4,0,.81,0,1.22Z"/><path class="cls-175" d="M13.93,16.05c-.93.05-1.41-.35-1.32-1.32l.1-.12a1,1,0,0,1,1.36,0A.94.94,0,0,1,14,15.92Z"/><path class="cls-176" d="M15.32,27.79H14V26.54l1.22-.07.22.15A.87.87,0,0,1,15.32,27.79Z"/><path class="cls-177" d="M18,17.29c.45.14,1.15-.18,1.24.61s.78.67,1.3.75A1.43,1.43,0,0,1,21.09,20a1.6,1.6,0,0,1-.4,1.41,1,1,0,0,1-1.38-.14c0-.94-.39-1.42-1.36-1.34.13-1-.35-1.38-1.29-1.32,0-.42-.06-.83-.08-1.25l.17-.2A.94.94,0,0,1,18,17.29Z"/><path class="cls-178" d="M19.31,21.23l1.15,0a.65.65,0,0,1,.41.28,1,1,0,0,1-.11,1.2,1,1,0,0,1-1.19.2.71.71,0,0,1-.31-.39Z"/><path class="cls-179" d="M17.88,23.85c0-.41.07-.83.11-1.25l1.27-.1.06,0a1.17,1.17,0,0,1,.19,1.32,1,1,0,0,1-1.24.38A.84.84,0,0,1,17.88,23.85Z"/><path class="cls-180" d="M16.58,17.32l-1.25-.08L15.28,16l.13-.22a1,1,0,0,1,1.22-.1,1,1,0,0,1,.34.41,1.07,1.07,0,0,1-.34,1.19Z"/><path class="cls-181" d="M14,15.92,14,14.68l.15-.22a1,1,0,0,1,1.22-.08.94.94,0,0,1,.33.41A1.08,1.08,0,0,1,15.3,16l0,0Z"/><path class="cls-182" d="M14,14.68l-1.25-.07c0-.42-.05-.83-.07-1.24H14a.92.92,0,0,1,0,1.3Z"/><path class="cls-183" d="M15.33,25.24l1.24-.08.23.18a1,1,0,0,1-.1,1.35,1,1,0,0,1-1.35-.11l-.11-.11Z"/><path class="cls-184" d="M16.64,23.93l1.24-.08L18,24A.94.94,0,0,1,18,25.3a1,1,0,0,1-1.37,0l-.07-.11C16.59,24.75,16.62,24.34,16.64,23.93Z"/><path class="cls-185" d="M52.14,22.65l0,2.5-.18.23a1,1,0,0,1-1.39-.14,2.49,2.49,0,0,1-.09-2.58,1,1,0,0,1,1.28-.42A.8.8,0,0,1,52.14,22.65Z"/><path class="cls-186" d="M53.46,25.28v1.19a.87.87,0,0,1-1.3.12.85.85,0,0,1-.06-1.3v-.14Z"/><path class="cls-187" d="M53.45,21.31v1.2l-1.3.14v-.16a.92.92,0,0,1,1-1.57A.76.76,0,0,1,53.45,21.31Z"/><path class="cls-188" d="M60,29.12l-1.31,0a.79.79,0,0,1,0-1.19v-.15l1.31.15Z"/><path class="cls-189" d="M58.71,18.63c-.09-1,.35-1.42,1.33-1.33l0,1.26Z"/><path class="cls-190" d="M56.09,26.6v1.21l-.18.22a1,1,0,0,1-1.3-.14.94.94,0,0,1,.15-1.3v-.15Z"/><path class="cls-191" d="M54.76,26.59v1.2l-.14.26c-.75.71-1.67.35-2.52.41a2.2,2.2,0,0,1-1.41-.4,1.74,1.74,0,0,1-.47-1.37,1.69,1.69,0,0,1,.35-1.37l.25-.15,1.3.12c-.07,1,.46,1.3,1.36,1.18Z"/><path class="cls-192" d="M58.7,27.91c0,.39,0,.79,0,1.19l-2.61.1-.2-.17a.88.88,0,0,1,.21-1.16v-.06l1.3,0Z"/><path class="cls-193" d="M57.42,18.7l1.32-.05-.06,1.23L57.4,20v-.15A.74.74,0,0,1,57.42,18.7Z"/><path class="cls-194" d="M56.05,21.2l-1.28.12v-.15a.94.94,0,0,1-.17-1.3,1,1,0,0,1,1.32-.12l.18.23Z"/><path class="cls-195" d="M57.42,18.7l0,1.17-1.3.11v-.12a.83.83,0,0,1,0-1.28.88.88,0,0,1,1.29,0Z"/><path class="cls-196" d="M54.78,20l0,1.19-1.31.14v-.12a.84.84,0,0,1,0-1.25A.87.87,0,0,1,54.78,20Z"/><path class="cls-197" d="M16.59,34.43l2.58-.06.25.1A2.11,2.11,0,0,1,20.09,36a1.39,1.39,0,0,1-.43,1.36,1.73,1.73,0,0,1-.57.22,67.77,67.77,0,0,1-11.66-.07,1.33,1.33,0,0,1-.49-1.41,1.61,1.61,0,0,1,.27-.52,1.88,1.88,0,0,1,1.28-.43c1-.14,2.07.31,2.85-.65V34.3a1.82,1.82,0,0,1,2.64,0v.15A1.62,1.62,0,0,0,16.59,34.43Z"/><path class="cls-198" d="M14,34.33l-2.64,0c0-.91.48-1.21,1.33-1.21S14,33.43,14,34.33Z"/><path class="cls-199" d="M11.34,34.45c-.06,2.1-1.69,1-2.61,1.28a.86.86,0,0,1-.21-1.15l.19-.17Z"/><path class="cls-200" d="M16.59,34.43c.09.87-.26,1.3-1.18,1.3s-1.49-.21-1.43-1.25Z"/><path class="cls-201" d="M19.27,33.12l1.31,0c.37,1.45.17,1.65-1.29,1.28l-.12-.07C19.2,34,19.24,33.53,19.27,33.12Z"/><path class="cls-202" d="M7.34,34.37l0-1.24c1-.16,1.42.31,1.34,1.28h0a.92.92,0,0,1-1.07.3A.71.71,0,0,1,7.34,34.37Z"/><path class="cls-203" d="M7.42,37l11.83.07a1,1,0,0,1,.08,1.38,1,1,0,0,1-1.41-.1L6,38.32,6.12,37A.93.93,0,0,1,7.42,37Z"/><path class="cls-204" d="M17.92,38.37l1.33,0a.85.85,0,0,1,1.31.08l0,1.22-1.28.08a1,1,0,0,1-1.34,0l0-.06C17.92,39.22,17.92,38.8,17.92,38.37Z"/><path class="cls-205" d="M19.29,34.44c.87,0,1.32-.39,1.29-1.28l1.25-.1A1.14,1.14,0,0,1,23,32.88a1.66,1.66,0,0,1,.15,2.79l-.07.11a2.62,2.62,0,0,1-3.54,0A1.57,1.57,0,0,1,19.29,34.44Z"/><path class="cls-206" d="M23.16,31.68c.08-1-.5-1.27-1.34-1.26a1,1,0,0,1,0-1.48,2.53,2.53,0,0,1,2.78-.09,1.49,1.49,0,0,1,.53,1.45,2.31,2.31,0,0,1-.25,1.5,1.12,1.12,0,0,1-1.35.31A.8.8,0,0,1,23.16,31.68Z"/><path class="cls-207" d="M21.85,29.15l0,1.27-1.24.09a.92.92,0,0,1-1.33,0V29.09a1.44,1.44,0,0,1,1.21-.52,1.44,1.44,0,0,1,1.27.34Z"/><path class="cls-208" d="M22.89,33.13l-1.06-.07c-.06-.94.46-1.33,1.33-1.38a.84.84,0,0,1,.05.17C23.58,32.39,23.69,32.87,22.89,33.13Z"/><path class="cls-209" d="M19.25,30.47l1.33,0c0,.95-.46,1.34-1.38,1.23a.85.85,0,0,1,.06-1.25Z"/><path class="cls-210" d="M19.26,30.49l-.06,1.25-1.31,0c0-.42,0-.83.05-1.24Z"/><path class="cls-211" d="M7.42,37H6.12c0-.42,0-.84,0-1.26a.84.84,0,0,1,1.28,0Z"/><path class="cls-212" d="M7.39,35.72l-1.28,0c-.11-.92.31-1.38,1.23-1.39l.1.08a.88.88,0,0,1-.05,1.27Z"/><path class="cls-213" d="M15.35,26.58l1.25-.09A1,1,0,0,1,18,26.42a.94.94,0,0,1-.07,1.37l-1.32.09-1.27-.09Z"/><path class="cls-214" d="M17.91,27.79l-.08-1.23a.91.91,0,0,1,.36-.44,2.37,2.37,0,0,1,2.52.12,1.38,1.38,0,0,1,.23,1.43,1.07,1.07,0,0,1-.39.45,1.17,1.17,0,0,1-1.37-.24Z"/><path class="cls-215" d="M19.18,27.88h1.36a.77.77,0,0,1,0,1.21h-1.3Z"/><path class="cls-216" d="M17.91,39.71h1.34V41L17.9,41C17.91,40.53,17.91,40.12,17.91,39.71Z"/><path class="cls-217" d="M53.49,35.69l-.07-1.24c-.33-.49-.44-1,0-1.42a.92.92,0,0,1,1.3.06c0,2.09,1.67,1.07,2.64,1.34A1.43,1.43,0,0,1,58,35.68a2.13,2.13,0,0,1-.25,1.42,1.14,1.14,0,0,1-.47.37,2,2,0,0,1-2.49-.42l0,0A9.53,9.53,0,0,1,53.49,35.69Z"/><path class="cls-218" d="M54.77,33.09c-1-.07-1.37.45-1.35,1.36l-1.29-.06a1.17,1.17,0,0,1-.58-1.21c-.54-1.63,1.18-1.95,1.72-3a1.36,1.36,0,0,1,2.19.77,1.8,1.8,0,0,0,.64.7l0,.12C56.14,32.75,55.66,33.13,54.77,33.09Z"/><path class="cls-219" d="M57.39,35.73c0-.43,0-.86,0-1.3l2.62,0,.22.22A1.06,1.06,0,0,1,60,36,1.92,1.92,0,0,1,57.39,35.73Z"/><path class="cls-220" d="M60,34.4c-.07-.87.26-1.32,1.2-1.32s1.49.27,1.41,1.3l-.16.27A1.7,1.7,0,0,1,60,34.43Z"/><path class="cls-221" d="M62.64,34.38l2.66,0,.22.17a1.07,1.07,0,0,1,0,1.31,1.31,1.31,0,0,1-.5.31,2.35,2.35,0,0,1-2.53-.36,1.1,1.1,0,0,1,.18-1.42Z"/><path class="cls-222" d="M66.63,33.15v1.2c-.42.5-.87.41-1.34.06h0C65.21,33.41,65.63,33,66.63,33.15Z"/><path class="cls-223" d="M54.76,37.05l2.65,0a.81.81,0,0,1,0,1.23l-2.67,0Z"/><path class="cls-224" d="M57.42,38.31V37.08l0-.06a1.9,1.9,0,0,1,2.68-.18A1,1,0,0,1,60,38.31Z"/><path class="cls-225" d="M65.25,38.32H62.68a1,1,0,0,1-.18-1.39,2.3,2.3,0,0,1,2.55-.33,1.14,1.14,0,0,1,.47.37A1,1,0,0,1,65.25,38.32Z"/><path class="cls-226" d="M65.25,38.32l0-1.25c.85-1,1.72-.87,2.61-.06l.12.08c0,.41,0,.82,0,1.23Z"/><path class="cls-227" d="M62.66,37.11c0,.4,0,.81,0,1.21H60l0-1.18.1-.25a1.75,1.75,0,0,1,2.25-.21A.84.84,0,0,1,62.66,37.11Z"/><path class="cls-228" d="M56.1,31.69c-.55,0-1.1.1-1.34-.57s-.79-.61-1.34-.59c-1.27.62-1.76.13-1.67-1.19a1.23,1.23,0,0,1,.35-.5,4.42,4.42,0,0,1,2.66-.3,1.63,1.63,0,0,1,1.34.57l0,.09v1.29Z"/><path class="cls-229" d="M65.28,34.41l1.34-.06,1.25.13v1.28a1.59,1.59,0,0,1-2.6,0Z"/><path class="cls-230" d="M65.27,35.72l2.6,0c0,.42,0,.83,0,1.25l-2.61.06,0,0a.93.93,0,0,1,0-1.32Z"/><path class="cls-231" d="M36.32,10.68l0-3.24,1.25,0,0,3.25Z"/><path class="cls-232" d="M37.67,12.09,40.28,12l0,.09a1.06,1.06,0,0,1,.12,1.49,2.39,2.39,0,0,1-2.81,0A1.08,1.08,0,0,1,37.67,12.09Z"/><path class="cls-233" d="M37.67,12.09v1.22a1,1,0,0,1-1.39.18.94.94,0,0,1,.07-1.39Z"/><path class="cls-234" d="M36.35,12.1v1.21c-.22.45-.59.48-1,.35a.76.76,0,0,1-.31-.35c0-.41,0-.81,0-1.22Z"/><path class="cls-235" d="M40.27,13.3V12.11L41.6,12h1.27a1,1,0,0,1,.34,1.34,1.14,1.14,0,0,1-.46.41C41.85,14,40.92,14.39,40.27,13.3Z"/><path class="cls-236" d="M54.78,20c-.93-.13-1.41.24-1.34,1.21l-1.28.1a1.67,1.67,0,0,1-1.37.54,1.6,1.6,0,0,1-1.44-.34c-.52-1.59-.18-2.12,1.41-2.19.49,0,1,.06,1.37-.35a2.66,2.66,0,0,1,1.54-.33c.84,0,1.12-.49,1.11-1.24.94.24,2.55-.95,2.58,1.22-.87,0-1.43.25-1.27,1.26Z"/><path class="cls-237" d="M52.13,19c0,.95-.73,1-1.39,1-.89,0-1.31.4-1.31,1.28-.6,1.12-1.65.58-2.52.69a2.64,2.64,0,0,1-1.5-.35,1.43,1.43,0,0,1-.47-1.39,1.71,1.71,0,0,1,.39-1.39l.26-.13C47.77,18.76,50,18.33,52.13,19Z"/><path class="cls-238" d="M44.31,17.31l1.19,0,.09,1.28-.05,0a1.05,1.05,0,0,1-1.27.23,1,1,0,0,1-.35-1.22A.71.71,0,0,1,44.31,17.31Z"/><path class="cls-239" d="M28.47,10.8l1.26-.06L29.79,12l-.14.21a.85.85,0,0,1-1.16-.12Z"/><path class="cls-240" d="M31,12l.15,1.29-.22.23c-1.43.12-1.62-.1-1.2-1.45l.07-.12Z"/><path class="cls-241" d="M32.42,13.31H35l0,.12a1,1,0,0,1,0,1.45,2.22,2.22,0,0,1-2.73,0,1,1,0,0,1,0-1.46Z"/><path class="cls-242" d="M32.4,13.43l0,1.22-.19.22a1,1,0,0,1-1.32-.14A1,1,0,0,1,31,13.4l.11-.07Z"/><path class="cls-243" d="M31,13.4l.08,1.27-.08.21a1.31,1.31,0,0,0-.62,1.38c0,.44,0,.87,0,1.31a1.78,1.78,0,0,1-.53,1.31,2.6,2.6,0,0,1-2.65.09,1.25,1.25,0,0,1-.56-1.28,1.55,1.55,0,0,1,.18-.51c.49-.44,1.21-.59,1.56-1.22,0-1.29.07-2.59.1-3.88l1.23,0C29.69,13,30.16,13.41,31,13.4Z"/><path class="cls-244" d="M28.39,16c.17,1-.27,1.44-1.26,1.35a.91.91,0,0,1,0-1.34l.06,0Z"/><path class="cls-245" d="M27.1,16l0,1.34v0a1,1,0,0,1-1.4.13A1,1,0,0,1,25.79,16Z"/><path class="cls-246" d="M25.79,16l.06,1.24a.8.8,0,0,1-1.16.23l-.18-.2,0-1.27Z"/><path class="cls-247" d="M43,13.31,42.87,12c0-.43.07-.86.11-1.29.93.06,1.37-.36,1.28-1.29l1.28,0,.06,2.62c0,.44-.07.88-.1,1.32H44.22C43.79,13.7,43.38,13.77,43,13.31Z"/><path class="cls-248" d="M43,13.31l1.23.06.09,3.94h-.12a1.08,1.08,0,0,1-1.4.2,1.43,1.43,0,0,1-.5-1.37,10.14,10.14,0,0,1,0-1.46,1.55,1.55,0,0,1,.5-1.29Z"/><path class="cls-249" d="M21.87,18.63c.07-2.06,1.67-1.07,2.64-1.33h0a1.5,1.5,0,0,1,.56,1.29A1.86,1.86,0,0,1,24.8,20c-1.58,1.32-2-.28-2.81-1.08Z"/><path class="cls-250" d="M18,14.63l1.3.11A1.35,1.35,0,0,1,18,16.31,1.12,1.12,0,0,1,16.61,16h0a1.07,1.07,0,0,1-.33-1.24,1,1,0,0,1,.38-.39A1.14,1.14,0,0,1,18,14.63Z"/><path class="cls-251" d="M16.61,16c.46,0,1-.15,1.36.32v1H16.63C16.62,16.85,16.62,16.42,16.61,16Z"/><path class="cls-252" d="M20.59,19.91l-.09-1.26,1.37,0h0A1,1,0,0,1,22,20,1,1,0,0,1,20.59,19.91Z"/><path class="cls-253" d="M18,14.63l-1.34.06a.85.85,0,0,1,0-1.28l1.34,0Z"/><path class="cls-254" d="M16.58,13.41l0,1.28v0a1,1,0,0,1-1.34,0h0a.84.84,0,0,1,0-1.25l-.05-.08Z"/><path class="cls-255" d="M15.33,13.42l0,1.25H14v-1.3Z"/><path class="cls-256" d="M40.26,56.66l-3.9.06a1,1,0,0,1-.16-1.39,3.7,3.7,0,0,0,2-3.57c.17-3.32-.13-6.65.2-10a1.93,1.93,0,0,1,.26-1.1c.58-.53,1.1-.28,1.61.12a.7.7,0,0,1,0,.84c0,.66,0,1.32,0,2Q40.28,50.14,40.26,56.66Z"/><path class="cls-257" d="M40.33,41.65,40.27,41c-.22-.24-.56-.45-.56-.78,0-2.68-.66-5.38.16-8.05a1.39,1.39,0,0,1,2.16,0c.37.34.83.52,1.2.84s.32,1,.35,1.54c.2,2-.09,4,0,5.95a1.17,1.17,0,0,1-.64,1.19Z"/><path class="cls-258" d="M42.92,41.63l0-7.24a2,2,0,0,0,.64-1.86,3,3,0,0,1,.47-2.26,1.08,1.08,0,0,1,1.32,0l.18.22c0,2.18,0,4.37-.07,6.55-.88,0-1.26.46-1.25,1.34a23.84,23.84,0,0,1-.06,2.93C44.08,42.26,43.64,42.6,42.92,41.63Z"/><path class="cls-259" d="M46.85,30.47H45.56l0,0c-.35-.73-1.4-.58-1.7-1.37a1.44,1.44,0,0,1,.08-1.28c.75-.41,1-1.34,1.72-1.74a1.39,1.39,0,0,1,1.43.28,2.12,2.12,0,0,1,.44,1.48C47.4,28.76,47.93,29.81,46.85,30.47Z"/><path class="cls-260" d="M48.19,37H46.92c0-1.29,0-2.59,0-3.88a1.33,1.33,0,0,1,1.2-.58,2.16,2.16,0,0,1,1.37.2,1,1,0,0,1,.39.4,1.42,1.42,0,0,1,0,1.33C48.68,34.86,49.09,36.36,48.19,37Z"/><path class="cls-261" d="M48.2,33.08l-1.3,0c0-.88,0-1.75,0-2.63s0-1.78,0-2.68a1.08,1.08,0,0,1,1.42-.12,1.83,1.83,0,0,1,.49,1.41,20.13,20.13,0,0,1,0,2.69A1.53,1.53,0,0,1,48.2,33.08Z"/><path class="cls-262" d="M41.59,58.13c.1.94-.37,1.33-1.26,1.31,0-.44,0-.88,0-1.31Z"/><path class="cls-263" d="M49.47,34.42l0-1.32A1.05,1.05,0,0,1,51,33a2,2,0,0,1-.13,2.74l0,2.59H49.51l-.09-1.29A1.72,1.72,0,0,1,49.47,34.42Z"/><path class="cls-264" d="M49.47,34.42c0,.88,0,1.75,0,2.63L48.19,37C48.43,36,47.46,34.48,49.47,34.42Z"/><path class="cls-265" d="M32.38,62.09l6.58,0c0,.91,0,1.83,0,2.74,0,2.53,0,2.53-2.61,2.47,0-.86,0-1.73,0-2.59S36,63.25,35,63.37l-1.3,0-1.32,0,0-.13A.8.8,0,0,1,32.38,62.09Z"/><path class="cls-266" d="M32.38,62.09v1.2l-1.3.07,0-1.27Z"/><path class="cls-267" d="M36.32,59.44v1.23h-5.2a1,1,0,0,1-.36-1.24,1,1,0,0,1,.39-.4,2.63,2.63,0,0,1,1.38-.26c1.22.14,2.52-.42,3.66.41Z"/><path class="cls-268" d="M31.1,59.43c0,.41,0,.83,0,1.24H28.45c0-.42-.05-.83-.07-1.25l.14,0A1.56,1.56,0,0,1,31.1,59.43Z"/><path class="cls-269" d="M36.35,58.15l2.61,0c0,2.14-1.73.93-2.64,1.31v0A.86.86,0,0,1,36.35,58.15Z"/><path class="cls-270" d="M50.87,35.75l-.08-2.65a.89.89,0,0,1,1.33,0v1.28C52.21,35.31,51.8,35.77,50.87,35.75Z"/><path class="cls-271" d="M53.49,35.69c.94,0,1.34.43,1.29,1.33C53.78,37.13,53.35,36.69,53.49,35.69Z"/><path class="cls-169" d="M28.42,55.47l0-18.42.22-.24a1.18,1.18,0,0,1,1.49.18c.7,2.06.16,4.19.33,6.28,0,3.36,0,6.72,0,10.09a3.77,3.77,0,0,1-.18,1.76,1.43,1.43,0,0,1-.34.51,1,1,0,0,1-1.41-.19Z"/><path class="cls-272" d="M27.18,37l-.11-4.94a1.25,1.25,0,0,1,0-1.8,1.24,1.24,0,0,1,1.57.05A8.76,8.76,0,0,1,28.5,37H27.18Z"/><path class="cls-273" d="M36.36,55.45v1.27l-5.3,0a1.1,1.1,0,0,1-.31-1.27,1,1,0,0,1,.39-.4,2.71,2.71,0,0,1,1.4-.27c1.24-.05,2.52-.43,3.67.39Z"/><path class="cls-274" d="M36.35,58.15c0,.42,0,.84,0,1.26l-3.94,0a.82.82,0,0,1,0-1.22Z"/><path class="cls-275" d="M31.1,59.43l-2.58,0c0-.42,0-.84-.05-1.25h2.6a.86.86,0,0,1,0,1.26Z"/><path class="cls-276" d="M31.08,55.46c0,.43,0,.86,0,1.3l-1.31,0a.89.89,0,0,1,0-1.27h0A.9.9,0,0,1,31.08,55.46Z"/><path class="cls-277" d="M29.76,55.46c0,.42,0,.85,0,1.27H28.48v-1.3Z"/><path class="cls-278" d="M31.09,59.41c0-.42,0-.84,0-1.26h1.32v1.22Z"/><path class="cls-279" d="M27.17,30.49l-.1,1.61-1.24,0c-.72-.36-.66-1-.66-1.66,0-.94-.22-1.93.48-2.76a1.28,1.28,0,0,1,1.53-.09,1.58,1.58,0,0,1,.51,1.46A1.72,1.72,0,0,1,27.17,30.49Z"/><path class="cls-280" d="M22.89,33.13a1.94,1.94,0,0,0,.32-1.28l1.27-.11a.93.93,0,0,1,0,1.37c0,.44,0,.88,0,1.32s-.06.88-.08,1.32l-1.26-.07A6.67,6.67,0,0,0,22.89,33.13Z"/><path class="cls-281" d="M24.52,33.11c0-.46,0-.91,0-1.37l.09-1.27a.85.85,0,0,1,1.24,0c0,.57,0,1.13,0,1.7C25.79,33,25.19,33.09,24.52,33.11Z"/><path class="cls-282" d="M19.58,35.75l3.54,0,0,1.27H21.84c-.78.76-1.55.94-2.28-.07Z"/><path class="cls-283" d="M19.56,37l2.28.07c.18,1-.39,1.34-1.28,1.36l-1.31-.08V37.09Z"/><path class="cls-284" d="M20.59,19.91l1.24.05A.91.91,0,0,1,22,21.31a.94.94,0,0,1-1.37,0l-.14-.05C20.5,20.78,20.54,20.35,20.59,19.91Z"/><path class="cls-285" d="M20.6,21.26l1.21,0,.24.14a1,1,0,0,1,.05,1.28,1.06,1.06,0,0,1-1.26.26.78.78,0,0,1-.35-.39Z"/><path class="cls-286" d="M19.18,23.86c.05-.44.09-.88.14-1.32h1.17l.14,0a1.08,1.08,0,0,1,.18,1.29,1,1,0,0,1-1.24.37A.89.89,0,0,1,19.18,23.86Z"/><path class="cls-287" d="M17.84,25.2c0-.42.07-.84.11-1.25l1.23-.09.13.07c.57,1.11.23,1.65-1,1.63A.94.94,0,0,1,17.84,25.2Z"/><path class="cls-288" d="M15.28,14.68h1.34V16H15.3C15.29,15.55,15.29,15.11,15.28,14.68Z"/><path class="cls-289" d="M17.83,26.56l-1.23-.07,0-1.22,1.2-.07.14,0a.88.88,0,0,1,0,1.25Z"/><path class="cls-290" d="M50.81,22.64v2.53l0,.11c-1.75.48-2.25-.24-1.71-2.5a1,1,0,0,1,1.3-.54A.8.8,0,0,1,50.81,22.64Z"/><path class="cls-291" d="M50.83,21.26l1.33,0c0,.4,0,.8,0,1.2l-1.33.15v-.13A.84.84,0,0,1,50.83,21.26Z"/><path class="cls-292" d="M56.1,29.11H54.77a.87.87,0,0,1,0-1.26v-.05l1.34.08Z"/><path class="cls-293" d="M49.53,22.6c.16,1-.7,2.51,1.26,2.68l0,1.19a2,2,0,0,1-2.76.34,2.25,2.25,0,0,1-.51-1.56c0-1-.26-2,.5-2.83A1.07,1.07,0,0,1,49.53,22.6Z"/><path class="cls-294" d="M48.19,26.5l2.63,0c0,.43,0,.86,0,1.29l-.12.26a1.44,1.44,0,0,1-1.31.38,1.5,1.5,0,0,1-1.25-.53l-1.26-.08c0-.42-.08-.83-.11-1.25l.17-.22A1,1,0,0,1,48.19,26.5Z"/><path class="cls-295" d="M54.76,27.84V29.1H52.13a.79.79,0,0,1,0-1.21Z"/><path class="cls-296" d="M52.14,27.89v1.34a1.09,1.09,0,0,1-1.41.05.94.94,0,0,1,.08-1.38l0-.14Z"/><path class="cls-297" d="M7.39,35.72c0-.42,0-.85.05-1.27l1.28,0c0,.43,0,.87,0,1.31Z"/><path class="cls-298" d="M24.48,29.16H21.87a1.12,1.12,0,0,1-.34-1.27,1,1,0,0,1,.38-.42,2.52,2.52,0,0,1,1.43-.25,1.56,1.56,0,0,1,1.36.54A1,1,0,0,1,24.48,29.16Z"/><path class="cls-299" d="M24.48,29.16V27.91c0-.07.05-.14.08-.22a.81.81,0,0,1,1.05-.15.63.63,0,0,1,.23.38l0,2.5-1.24,0Z"/><path class="cls-300" d="M21.86,27.89v1.27l-1.34-.06c0-.41,0-.81,0-1.21l0-.09A.84.84,0,0,1,21.86,27.89Z"/><path class="cls-301" d="M18,26.47V25.22c.95.08,1.31-.43,1.33-1.29l1.25-.05.22.09c.29.62,1.06.69,1.43,1.23a1.3,1.3,0,0,1,0,1.28,1.12,1.12,0,0,1-.4.38,1.21,1.21,0,0,1-1.31-.28Z"/><path class="cls-302" d="M20.51,26.58l1.36-.06a.87.87,0,0,1,0,1.29l0,.08-1.3-.09C20.55,27.4,20.53,27,20.51,26.58Z"/><path class="cls-303" d="M60,37.13,57.38,37V35.73H60l.18.16A.8.8,0,0,1,60,37Z"/><path class="cls-304" d="M50.82,29.11l1.32.12c-.18,1,.46,1.26,1.28,1.3.3,1.23-1.65,1.33-1.3,2.58H49.48A1.2,1.2,0,0,1,49,32a2.12,2.12,0,0,1,.11-.45c.32-.4.08-.75-.11-1.11a1.54,1.54,0,0,1,.1-1.26,1.12,1.12,0,0,1,.4-.38A1.16,1.16,0,0,1,50.82,29.11Z"/><path class="cls-305" d="M62.66,34.41v1.32l-.17.26A1.72,1.72,0,0,1,60,35.73h0c0-.43,0-.86,0-1.3Z"/><path class="cls-306" d="M65.29,35.71V37l-2.64.08V37a.81.81,0,0,1,0-1.23h0Z"/><path class="cls-230" d="M62.67,35.73l0,1.23H60c0-.41,0-.83,0-1.24Z"/><path class="cls-307" d="M42.82,13.39l0,1.24a1.48,1.48,0,0,1-1.33.63c-1.66.16-3.33,0-5,.1a1.66,1.66,0,0,1-1.34-.44L35,14.65c0-.41,0-.81,0-1.22l1.29-.12h3.93Z"/><path class="cls-308" d="M49.53,22.6l-1.33,0a1,1,0,0,1-1.38.1.92.92,0,0,1,.08-1.35l2.53-.12,1.4.06c0,.41,0,.83,0,1.25Z"/><path class="cls-309" d="M45.49,20l.11,1.3a1,1,0,0,1,0,1.45,1.18,1.18,0,0,1-1.52,0,2.25,2.25,0,0,1,0-2.77A1,1,0,0,1,45.49,20Z"/><path class="cls-310" d="M45.49,20l-1.22-.05-.2-.09a.79.79,0,0,1-.13-1,.61.61,0,0,1,.37-.21l1.23,0C45.52,19.09,45.5,19.52,45.49,20Z"/><path class="cls-311" d="M45.51,22.51l.09-1.25,1.3.06c0,.41,0,.81,0,1.22l-.09.2a.82.82,0,0,1-1,.13A.64.64,0,0,1,45.51,22.51Z"/><path class="cls-312" d="M43,17.27l1.22,0,.12,1.3-.13,0A.93.93,0,1,1,43,17.27Z"/><path class="cls-313" d="M32.43,14.65H35l0,.07c1.24,1.23.79,2.58.31,4a1.3,1.3,0,0,1-1.44.35,1.27,1.27,0,0,1-.79-1.29c.06-.84-.52-1.22-1-1.71a1.11,1.11,0,0,1,.29-1.32Z"/><path class="cls-314" d="M32.39,14.7V16l-.14.22a1,1,0,0,1-1.22.1,1.12,1.12,0,0,1-.34-.41,1.1,1.1,0,0,1,.35-1.2h.06Z"/><path class="cls-315" d="M27.19,18.57l2.49.09.25.15a1,1,0,0,1-.09,1.35,1.94,1.94,0,0,1-1.4.37c-1.07,0-1.83-.24-1.64-1.53A.82.82,0,0,1,27.19,18.57Z"/><path class="cls-316" d="M24.5,18.6V17.29l1.35,0,1.28,0,.06,1.28-.1.12A1.62,1.62,0,0,1,24.5,18.6Z"/><path class="cls-317" d="M31.05,14.68,31,16a.8.8,0,0,1-1.21,0C29.68,15.06,30.08,14.61,31.05,14.68Z"/><path class="cls-318" d="M29.68,18.66l.13-1.34a1,1,0,0,1,1.31-.2,1.09,1.09,0,0,1,0,1.77,1.06,1.06,0,0,1-1.3-.26Z"/><path class="cls-319" d="M31.06,17.29l-1.25,0c0-.44,0-.87,0-1.31L31,16h.13a.88.88,0,0,1,.12,1.14Z"/><path class="cls-320" d="M43,17.27l0,1.33a2.11,2.11,0,0,1-.19.23,1.07,1.07,0,0,1-1.37-.09,2.47,2.47,0,0,1-.21-2.54,1,1,0,0,1,1.7-.18Z"/><path class="cls-321" d="M42.87,16l-1.24,0a.83.83,0,0,1-.07-1.27l1.29-.08C42.86,15.09,42.86,15.55,42.87,16Z"/><path class="cls-322" d="M24.5,18.6l2.59.09c0,.89.51,1.25,1.35,1.27a1.89,1.89,0,0,1,.33,2.56,1.24,1.24,0,0,1-1.28.52c-.86-.08-.8-1.3-1.67-1.36a1.12,1.12,0,0,1-.36-.29,2.47,2.47,0,0,0-.88-1.27l-.06-.21Z"/><path class="cls-323" d="M21.81,21.24c0-.43,0-.85,0-1.28s0-.88,0-1.32c.54,0,1.07,0,1.31.67s.81.59,1.34.6l0,0a1.15,1.15,0,0,1,.13,1.52,1.88,1.88,0,0,1-2.69-.18Z"/><path class="cls-324" d="M40.29,32.11c0,3,0,5.91,0,8.87L39,40.66a.9.9,0,0,1-.66-1c0-.8-.53-.81-1.11-.73A1.83,1.83,0,0,1,36,38.42,12.7,12.7,0,0,1,35.87,32a1.23,1.23,0,0,1,1.38-.87,1.57,1.57,0,0,0,1.54-.92,1.31,1.31,0,0,1,1.41-.12,1.1,1.1,0,0,1,.43.4A1.27,1.27,0,0,1,40.29,32.11Z"/><path class="cls-325" d="M37.65,38.38c.55-.89,1-.8,1.25.17A12.3,12.3,0,0,1,39,40.66V52.9c0,2.57,0,2.57-2.62,2.55l0,0c-1.17-1.27-.71-2.77-.57-4.22A3.7,3.7,0,0,0,37,47.81c-.11-2.5,0-5,0-7.52C37,39.57,37,38.86,37.65,38.38Z"/><path class="cls-326" d="M40.29,32.11V30.45c.72-1,1.63-.72,2.55-.37a1.24,1.24,0,0,1,.44.44c.32.93.66,1.87-.4,2.58C41.82,33.31,41.32,32,40.29,32.11Z"/><path class="cls-327" d="M42.89,33.1l0-2.61a.8.8,0,0,1,1.29,0c0,.87,0,1.75,0,2.62s-.37,1.34-1.28,1.28Z"/><path class="cls-328" d="M44.22,30.49H42.93l0-.11c-.32-1.48-.13-1.66,1.38-1.27q1.43,0,1.26,1.38Z"/><path class="cls-329" d="M44.26,29.11c-.87,0-1.4.33-1.38,1.28l-2.58.06,0,0a1.82,1.82,0,0,0-1.72-.68c-1.56,0-3.13,0-4.69,0-.63,0-1.27.05-1.71-.53a1.36,1.36,0,0,1,.07-1.55C33,27,34,27.23,35,27.17a7.57,7.57,0,0,0,1.9-.07,15.07,15.07,0,0,1,3.29,0,14.16,14.16,0,0,1,2.52.15c.45,0,.91-.13,1.31.19a.72.72,0,0,1,.28.44Z"/><path class="cls-330" d="M45.58,26.55c.09,1-.45,1.34-1.33,1.38l0-.13a1.9,1.9,0,0,1-.39-2.47,1.14,1.14,0,0,1,.42-.45,1.2,1.2,0,0,1,1.45.24A1.11,1.11,0,0,1,45.58,26.55Z"/><path class="cls-331" d="M45.58,26.55l-.08-1.34.13-.22a1.09,1.09,0,0,1,1.25-.12A1,1,0,0,1,47,26.51l-.17,0Z"/><path class="cls-332" d="M49.41,31.79c0,.44.05.88.07,1.32l-1.28,0,0-1.33A.76.76,0,0,1,49.41,31.79Z"/><path class="cls-333" d="M49.41,31.79l-1.18,0c0-.86,0-1.72,0-2.59a.85.85,0,0,1,1.3,0v1.33a.92.92,0,0,1,0,1.28Z"/><path class="cls-334" d="M49.52,29.16h-1.3l-.06-1.29h1.37a.89.89,0,0,1,0,1.27Z"/><path class="cls-335" d="M29.8,43.3,29.74,37c-.25-.28-.59-.51-.59-.93,0-1.86-.33-3.74.27-5.57a1.18,1.18,0,0,1,1.44-.46,1.31,1.31,0,0,1,.53.37A2.71,2.71,0,0,1,31.72,32c0,3.25,0,6.49,0,9.74a2,2,0,0,1-.42,1.67A1.09,1.09,0,0,1,29.8,43.3Z"/><path class="cls-336" d="M29.8,43.3l1.25,0a1.15,1.15,0,0,1,.43.47c.51,1.66.19,3.37.24,5.05s0,3.28,0,4.92a2.15,2.15,0,0,1-.62,1.79l0,0H29.76Q29.78,49.37,29.8,43.3Z"/><path class="cls-337" d="M29.75,30.49c0,2.18,0,4.36,0,6.54H28.5l-.05-6.58.16-.2A.8.8,0,0,1,29.75,30.49Z"/><path class="cls-338" d="M27.17,30.49V29.16a1,1,0,0,1,1.22-.32,1,1,0,0,1,.39.38,1.1,1.1,0,0,1-.32,1.25h0Z"/><path class="cls-339" d="M36.35,51.19l0,4.28H32.39a2.08,2.08,0,0,1-.66-1.9c0-3.25,0-6.51,0-9.76a3,3,0,0,1,.2-1.53c1.06-.66,1.48-1.94,2.55-2.62.84-.53,1.58-.71,2.3.13.43,3.36.13,6.73.16,10.09C37,50.38,36.55,50.75,36.35,51.19Z"/><path class="cls-340" d="M32.39,43.6V55.46l-1.27,0,0-11.86A.84.84,0,0,1,32.39,43.6Z"/><path class="cls-341" d="M27.12,27.83l-1.28.09-.05-.09a1.06,1.06,0,0,1-.12-1.42,1.15,1.15,0,0,1,1.44-.16,1,1,0,0,1,.23,1.38Z"/><path class="cls-342" d="M28.41,29.09l-1.25.07c0-.44,0-.89,0-1.33l0,0a1,1,0,0,1,1.38-.07A.9.9,0,0,1,28.41,29.09Z"/><path class="cls-343" d="M21.94,21.28l2.59-.07a.88.88,0,0,1,1.27.06h0a1.07,1.07,0,0,1,.13,1.44c-.8.74-1.77.48-2.7.47-.55,0-1.06-.06-1.36-.61Z"/><path class="cls-344" d="M21.87,22.57l1.37.05a1.09,1.09,0,0,1,.12,1.43,1.5,1.5,0,0,1-1.45.4,1.59,1.59,0,0,1-1.36-.57h0c0-.43,0-.86.07-1.3Z"/><path class="cls-345" d="M46.88,22.54l1.32,0,0,2.6a.86.86,0,0,1-1.27,0l-.06,0a1.43,1.43,0,0,1-.49-1.3,1.4,1.4,0,0,1,.49-1.29Z"/><path class="cls-346" d="M46.9,25.2l1.27,0c0,.44,0,.89,0,1.33H47Z"/><path class="cls-347" d="M49.51,29.14c0-.42,0-.85,0-1.27l1.28,0c0,.4,0,.81,0,1.21Z"/><path class="cls-348" d="M24.48,27.91l-1.32-.12a1,1,0,0,1-.07-1.41,1.11,1.11,0,0,1,1.45,0,1,1,0,0,1,0,1.42Z"/><path class="cls-349" d="M23.21,26.55c0,.41,0,.83-.05,1.24l-1.27,0c0-.43,0-.86,0-1.29h0A.9.9,0,0,1,23.21,26.55Z"/><path class="cls-350" d="M24.53,27.79l0-1.22.16-.22a.8.8,0,0,1,1.17.21c0,.42,0,.85,0,1.27Z"/><path class="cls-351" d="M23.21,26.55l-1.35,0c0-.42,0-.85,0-1.27L22,25a2.07,2.07,0,0,1,2.65.05,1.07,1.07,0,0,1-.17,1.46v.1Z"/><path class="cls-352" d="M20.55,23.88l1.37.07a.78.78,0,0,1,0,1.17l-.08.12C20.93,25.24,20.46,24.82,20.55,23.88Z"/><path class="cls-353" d="M49.56,31.77l0-1.28c.52,0,1.21-.12,1.16.7C50.65,31.86,50,31.74,49.56,31.77Z"/><path class="cls-354" d="M41.56,14.71c0,.43,0,.85.07,1.27l-.09,0a1.37,1.37,0,0,1-1.2.7c-1.92-.22-3.09.84-4.07,2.27A1,1,0,0,1,35,18.58V14.72Z"/><path class="cls-355" d="M44.27,19.91l0,2.62-.16.23a1.08,1.08,0,0,1-1.35,0,1.8,1.8,0,0,1-.43-1.33A2.48,2.48,0,0,1,42.54,20a1,1,0,0,1,.4-.4,1.11,1.11,0,0,1,1.28.33Z"/><path class="cls-356" d="M44.24,22.53l1.27,0,.08.09a1,1,0,0,1,.16,1.33,1.14,1.14,0,0,1-1.34.33A1.1,1.1,0,0,1,44,23.9a1.06,1.06,0,0,1,.27-1.31Z"/><path class="cls-357" d="M44.22,19.94l-1.31,0a.88.88,0,0,1,0-1.28l.06,0,1.24,0C44.2,19.08,44.21,19.51,44.22,19.94Z"/><path class="cls-358" d="M45.53,23.89c0-.43,0-.86,0-1.29h1.26c0,.43,0,.87,0,1.31a.87.87,0,0,1-1.14.18Z"/><path class="cls-359" d="M42.88,18.62l0,1.28V20a2.11,2.11,0,0,1-1.76.59c-1.56,0-3.12,0-4.68,0-.92,0-1.85,0-2.77,0s-1.89.23-2.7-.45a1,1,0,0,1,0-1.43l.08-.11a1.59,1.59,0,0,1,2.56,0h2.67a4.81,4.81,0,0,1,5.22,0Z"/><path class="cls-360" d="M33.69,18.59H31.13c0-.44-.05-.87-.07-1.31l.06,0c.37-.49.85-.88,1.26-1.34l0,0C34.45,16,33.48,17.61,33.69,18.59Z"/><path class="cls-361" d="M32.38,16c.09.92-.31,1.39-1.26,1.34,0-.44,0-.89,0-1.33Z"/><path class="cls-362" d="M28.4,22.52c0-.85,0-1.71,0-2.56l1.28,0,.25.11a1.45,1.45,0,0,1,.37,1.27,1.91,1.91,0,0,1-.3,1.32,1.09,1.09,0,0,1-1.27.28A.84.84,0,0,1,28.4,22.52Z"/><path class="cls-363" d="M31.05,18.71l0,1.17-.13.21A.85.85,0,0,1,29.79,20l-.07,0c0-.44,0-.87.07-1.31Z"/><path class="cls-364" d="M41.58,18.59l-5.22,0c.27-2.2.65-2.56,2.73-2.58h2.45C41.56,16.86,41.57,17.73,41.58,18.59Z"/><path class="cls-365" d="M27.13,22.58l1.27-.06.1.11a1.46,1.46,0,0,1,.5,1.28,1.87,1.87,0,0,1-.33,1.41,1.3,1.3,0,0,1-1.4.28,1.17,1.17,0,0,1-.47-.38,2.18,2.18,0,0,1,.08-2.49Z"/><path class="cls-366" d="M25.76,22.49c0-.4,0-.81,0-1.22,1-.1,1.41.35,1.33,1.31h0a.9.9,0,0,1-1.08.29A.73.73,0,0,1,25.76,22.49Z"/><path class="cls-367" d="M25.8,21.27l-1.27-.06,0-1.27C25.46,19.86,25.9,20.31,25.8,21.27Z"/><path class="cls-368" d="M36.33,39.68c-1.29,0-1.9,1.08-2.56,1.92a1.52,1.52,0,0,1-1.31.7A1.25,1.25,0,0,1,31.75,41q0-4,0-8a2.13,2.13,0,0,1,.47-1.35c1.4-.7,2.79-1,4.12.14v6.57A.89.89,0,0,1,36.33,39.68Z"/><path class="cls-369" d="M36.33,39.68c0-.44,0-.89,0-1.33l1.3,0c0,3.56,0,7.13,0,10.69,0,1-.22,1.82-1.32,2.12Q36.35,45.43,36.33,39.68Z"/><path class="cls-370" d="M36.34,31.78l-3.89,0-.25-.19a1.14,1.14,0,0,1,.1-1.46c.53-.5,1.2-.32,1.83-.36h3.34c.6,0,1.19,0,1.49.67C38.88,32.51,37.31,31.53,36.34,31.78Z"/><path class="cls-371" d="M39,30.48l-4.91,0a.88.88,0,0,1,0-1.27c1.63,0,3.25,0,4.87,0,.92,0,1.46.32,1.39,1.32Z"/><path class="cls-372" d="M40.23,27.76l-3.22,0a2.82,2.82,0,0,0-2.09-.61c-.65,0-1.29,0-1.63-.72a2.65,2.65,0,0,1,.17-2.57.88.88,0,0,1,.81-.25c1.49,1.5,3.41.7,5.13.94C41.19,25.17,41.47,26.26,40.23,27.76Z"/><path class="cls-373" d="M40.23,27.76c-.15-1,.73-2.46-1.24-2.57a1.14,1.14,0,0,1-.12-1.53c1.81-.58,3.61-.92,5.34.24h0a.89.89,0,0,1,0,1.28l-.1,0c-1.14.52-.54,1.86-1.23,2.58Z"/><path class="cls-374" d="M33.71,26.51c1.21.14,2.72-.51,3.3,1.27l-4.59.13a2.11,2.11,0,0,1-.23-.19,1,1,0,0,1,.15-1.36A1,1,0,0,1,33.71,26.51Z"/><path class="cls-375" d="M42.93,27.81c0-.15-.08-.31-.1-.47-.13-.71-1.59-.84-.95-1.76.51-.73,1.5-.28,2.28-.35l.06,2.57Z"/><path class="cls-376" d="M28.41,29.09l0-1.22.12-.24a1.54,1.54,0,0,1,1.27-.42,8,8,0,0,1,1.38,0,1.47,1.47,0,0,1,1.22.55l.05.13v1.22a1.3,1.3,0,0,1-1.33.63c-.9,0-1.88.31-2.59-.56Z"/><path class="cls-377" d="M31,29.18l1.37-.05,1.61.05,0,1.27-1.66,0a.93.93,0,0,1-1.31,0v0A.87.87,0,0,1,31,29.18Z"/><path class="cls-378" d="M44.26,25.19c0-.43,0-.86,0-1.28l1.32,0h0a1,1,0,0,1,0,1.31l-.1,0Z"/><path class="cls-379" d="M45.6,25.19l0-1.31,1.26,0c0,.43,0,.85,0,1.28Z"/><path class="cls-380" d="M32.45,31.82c0,3.49,0,7,0,10.48,0,.44-.05.87-.07,1.3l-1.24,0c0-.12-.07-.24-.1-.36,0-3.83.05-7.65.07-11.47a.85.85,0,0,1,1.26,0Z"/><path class="cls-381" d="M31,29.18l.05,1.26-1.34,0-1.3,0c0-.43,0-.85,0-1.27Z"/><path class="cls-382" d="M32.38,31.77l-1.26,0c0-.44,0-.89,0-1.34h1.31C32.39,30.9,32.39,31.34,32.38,31.77Z"/><path class="cls-383" d="M27.18,25.24l1.21,0,.27.14a1.61,1.61,0,0,1-.2,2.43l-.08.1-1.24-.06c0-.43-.05-.87-.07-1.3A.84.84,0,0,1,27.18,25.24Z"/><path class="cls-384" d="M27.18,25.24c0,.43-.07.85-.11,1.27l-1.24,0-1.34-.09c0-.41,0-.82,0-1.23.85-1,1.71-.93,2.57,0Z"/><path class="cls-385" d="M23.17,23.87c0-.42,0-.84.07-1.25l2.52-.13.1.14c.43.64.38,1.28-.29,1.63A1.7,1.7,0,0,1,23.17,23.87Z"/><path class="cls-386" d="M23.17,23.87c1-.17,2.47.65,2.69-1.24l1.28-.06c0,.88-.06,1.76-.1,2.64l-2.57,0-2.55-.12V24Z"/><path class="cls-387" d="M44.21,23.9l-5.25,0a4.14,4.14,0,0,1-4.6,0h-.65a1.06,1.06,0,0,1-1.44,0,1.19,1.19,0,0,1-.06-1.49,1.81,1.81,0,0,1,1.44-.53c.91,0,1.83,0,2.74,0,1.71,0,3.43-.06,5.14.06a1.6,1.6,0,0,1,1.36.57l1.35.05Z"/><path class="cls-388" d="M36.35,20l6.57,0,0,1.26a1.67,1.67,0,0,1-1.39.58c-1.75-.09-3.55.51-5.24-.41A1,1,0,0,1,36.35,20Z"/><path class="cls-389" d="M41.58,21.29l1.32,0c0,.42,0,.85,0,1.27l-1.3,0A.81.81,0,0,1,41.58,21.29Z"/><path class="cls-390" d="M36.35,20l0,1.22-.16.28a2.05,2.05,0,0,1-2.62-.07A1,1,0,0,1,33.7,20Z"/><path class="cls-391" d="M33.7,20l.06,1.24-.12.24a1.43,1.43,0,0,1-1.22.39,2.13,2.13,0,0,1-1.31-.23,1,1,0,0,1-.37-.4A1.07,1.07,0,0,1,31.07,20v-.1Z"/><path class="cls-392" d="M29.75,22.52l0-1.24a.89.89,0,0,1,1.27-.11l0,.14a1,1,0,0,1,.26,1.25,1,1,0,0,1-1.23.35A.8.8,0,0,1,29.75,22.52Z"/><path class="cls-393" d="M31.06,21.17l-1.27.11V20l1.29,0C31.07,20.38,31.07,20.77,31.06,21.17Z"/><path class="cls-394" d="M28.48,23.89c0-.42,0-.84,0-1.26l1.25-.11.06.08a1,1,0,0,1,0,1.37A1,1,0,0,1,28.48,23.89Z"/><path class="cls-395" d="M28.48,23.89l1.28-.09.22.14a1.07,1.07,0,0,1,.12,1.24.88.88,0,0,1-.38.36,1,1,0,0,1-1.2-.31l-.13,0Z"/><path class="cls-396" d="M34.36,23.94H39l0,1.26c-1,0-1.92,0-2.89,0A1.48,1.48,0,0,1,34.36,23.94Z"/><path class="cls-397" d="M32.39,23.81l1.32.14v2.56l-1.21,0a.74.74,0,0,1-.42-.19,1.36,1.36,0,0,1-.27-1.12A1.54,1.54,0,0,1,32,24.09.8.8,0,0,1,32.39,23.81Z"/><path class="cls-398" d="M32.37,27.78H31.05c-.39-1.44-.19-1.64,1.26-1.29l.19,0C32.46,27,32.41,27.36,32.37,27.78Z"/><path class="cls-399" d="M32.31,26.49c-.94-.08-1.28.44-1.26,1.29H29.78a1.58,1.58,0,0,1,0-2.59h0a1.55,1.55,0,0,1,2.58.07Z"/><path class="cls-400" d="M29.76,25.2l0,2.59-1.32,0,.06-2.54Z"/><path class="cls-401" d="M41.58,21.29c0,.4,0,.81,0,1.21l-5.23,0a.83.83,0,0,1,0-1.24l0-.06Z"/><path class="cls-402" d="M29.76,23.8c0-.4,0-.8,0-1.2l1.28-.08a.88.88,0,0,1,1.05-.24.65.65,0,0,1,.26.37c0,.39,0,.77,0,1.16l0,.15a1.74,1.74,0,0,1-2.63,0Z"/><path class="cls-403" d="M36.35,21.28c0,.41,0,.83,0,1.24H33.7a.91.91,0,0,1-.06-1.27l.12,0Z"/><path class="cls-404" d="M33.64,21.26l.06,1.27-1.3.12v-.14a.83.83,0,0,1,0-1.23Z"/><path class="cls-405" d="M32.38,21.28c0,.41,0,.82,0,1.23H31.09c0-.41,0-.81,0-1.21Z"/><path class="cls-406" d="M29.78,23.94l2.63,0c0,.44,0,.87-.07,1.3l-2.58-.07Z"/></g></g></svg>