<svg xmlns="http://www.w3.org/2000/svg" viewBox="0 0 74 74"><defs><style>.cls-1{fill:#1e2223;}.cls-2{fill:#776f63;}.cls-3{fill:#383838;}.cls-4{fill:#797a7b;}.cls-5{fill:#6f6f6f;}.cls-6{fill:#898d8f;}.cls-7{fill:#636465;}.cls-8{fill:#4c4b45;}.cls-9{fill:#6f7477;}.cls-10{fill:#5c6266;}.cls-11{fill:#808588;}.cls-12{fill:#6d7376;}.cls-13{fill:#2c3133;}.cls-14{fill:#3c3c3b;}.cls-15{fill:#353535;}.cls-16{fill:#444;}.cls-17{fill:#3b3d3e;}.cls-18{fill:#2d3236;}.cls-19{fill:#575653;}.cls-20{fill:#393c3e;}.cls-21{fill:#454848;}.cls-22{fill:#7e7b77;}.cls-23{fill:#676259;}.cls-24{fill:#544f48;}.cls-25{fill:#645d50;}.cls-26{fill:#827a6a;}.cls-27{fill:#67615c;}.cls-28{fill:#676054;}.cls-29{fill:#7b7467;}.cls-30{fill:#64615c;}.cls-31{fill:#54504b;}.cls-32{fill:#52514a;}.cls-33{fill:#63686b;}.cls-34{fill:#494f53;}.cls-35{fill:#8c9193;}.cls-36{fill:#7e8385;}.cls-37{fill:#999c9e;}.cls-38{fill:#989a9c;}.cls-39{fill:#c0c1c2;}.cls-40{fill:#7b7e7f;}.cls-41{fill:#b7b7b7;}.cls-42{fill:#9f9f9f;}.cls-43{fill:#9a9c9c;}.cls-44{fill:#686e71;}.cls-45{fill:#a5a7a9;}.cls-46{fill:#84888a;}.cls-47{fill:#a6a6a5;}.cls-48{fill:#7a7e81;}.cls-49{fill:#9fa3a4;}.cls-50{fill:#b6b8b9;}.cls-51{fill:#bbbdbe;}.cls-52{fill:#7c8183;}.cls-53{fill:silver;}.cls-54{fill:#f8f8f8;}.cls-55{fill:#3f3e3d;}.cls-56{fill:#4d4c4a;}.cls-57{fill:#52504e;}.cls-58{fill:#424343;}.cls-59{fill:#363636;}.cls-60{fill:#323232;}.cls-61{fill:#41403f;}.cls-62{fill:#3c3c3c;}.cls-63{fill:#4a4a4a;}.cls-64{fill:#515050;}.cls-65{fill:#666;}.cls-66{fill:#414141;}.cls-67{fill:#2c3438;}.cls-68{fill:#444647;}.cls-69{fill:#a5a6a6;}.cls-70{fill:#909090;}.cls-71{fill:#91856f;}.cls-72{fill:#635f5a;}.cls-73{fill:#7a7264;}.cls-74{fill:#65615e;}.cls-75{fill:#6c665e;}.cls-76{fill:#a8a8a7;}.cls-77{fill:#b4b4b3;}.cls-78{fill:#a39f9d;}.cls-79{fill:#949390;}.cls-80{fill:#756d5d;}.cls-81{fill:#5e594f;}.cls-82{fill:#4a4842;}.cls-83{fill:#817f7d;}.cls-84{fill:#9b9d9e;}.cls-85{fill:#e9e9e9;}.cls-86{fill:#c1c3c3;}.cls-87{fill:#c9c9c9;}.cls-88{fill:#ddd;}.cls-89{fill:#a1a1a1;}.cls-90{fill:#c4c4c4;}.cls-91{fill:#828282;}.cls-92{fill:#919190;}.cls-93{fill:#babab9;}.cls-94{fill:#b2b3b3;}.cls-95{fill:#acacac;}.cls-96{fill:#8b8885;}.cls-97{fill:#d1d1d2;}.cls-98{fill:#d6d7d7;}.cls-99{fill:#7d7463;}.cls-100{fill:#393434;}.cls-101{fill:#63605b;}.cls-102{fill:#454545;}.cls-103{fill:#5f5e5e;}.cls-104{fill:#717171;}.cls-105{fill:#4d4b49;}.cls-106{fill:#929292;}.cls-107{fill:#897e6a;}.cls-108{fill:#b8af9f;}.cls-109{fill:#ada594;}.cls-110{fill:#b3a891;}.cls-111{fill:#a19885;}.cls-112{fill:#938e85;}.cls-113{fill:#908a83;}.cls-114{fill:#8a8783;}.cls-115{fill:#898785;}.cls-116{fill:#888786;}.cls-117{fill:#696255;}.cls-118{fill:#534f48;}.cls-119{fill:#57524a;}.cls-120{fill:#c1c1c1;}.cls-121{fill:#dfdfdf;}.cls-122{fill:#d1d1d1;}.cls-123{fill:#d1cabc;}</style></defs><title>연막탄_1</title><g id="레이어_2" data-name="레이어 2"><g id="레이어_1-2" data-name="레이어 1"><rect class="cls-1" width="74" height="74" rx="8.33" ry="8.33"/><path class="cls-2" d="M48.57,19l1.5.06c.22.19.5.35.38.72,0,.16,0,.34-.17.47s-.22.11-.21.11c.74.25.42.86.47,1.34-.31.9.55,1.25.86,1.86.2.24,0,.5,0,.75-.07.54,0,1.16-.71,1.37-.34.09-.21.51-.45.68s-.39.23-.59.34c-.71.06-1,.42-.88,1.14a3,3,0,0,1,0,.52c0,1.57-.79,2-2.31,1.33-.34-.37-.24-.83-.24-1.27,1-1.27.73-2.78.81-4.22a.3.3,0,0,0,.07-.1c.27-.35,1.09,0,1-.7s-.76-.43-1.08-.74A5.3,5.3,0,0,1,47,20.83c0-.35,0-.69,0-1a1.63,1.63,0,0,1,.32-1C47.81,18.56,48.18,18.87,48.57,19Z"/><path class="cls-3" d="M60.59,22.78v3.89c0,.6-.17,1.07-.86,1.16s-.56-.41-.54-.75a2.24,2.24,0,0,0-1.11-2c-1.23-.89-2.35-2-4-2.09-.31-.11-.68-.07-.87-.41a1.74,1.74,0,0,1,.17-1.12c.5-.4.91-.15,1.3.2h.63c1-.43,2.06-.85,3.08,0C59.44,21.45,59.82,22.5,60.59,22.78Z"/><path class="cls-3" d="M54.7,21.66l-1.12,0c-.21.23-.42.44-.78.3a.65.65,0,0,1-.31-.18,1.62,1.62,0,0,0-1.62-1.65.57.57,0,0,1-.2-.29.67.67,0,0,1,.28-.8C53.39,19,53.82,19.31,54.7,21.66Z"/><path class="cls-4" d="M34.46,16.4l3.6.06a.64.64,0,0,1,.22,1,.63.63,0,0,1-.39.21,13.29,13.29,0,0,1-2.6.11,1.57,1.57,0,0,1-1-.24c-.23-.27-.41-.55-.17-.92A.47.47,0,0,1,34.46,16.4Z"/><path class="cls-3" d="M58.41,21.67H55.33c.41-.88,1.43-.9,2.08-1.45.22-.18.47.12.57.35S58.27,21.3,58.41,21.67Z"/><path class="cls-4" d="M27.4,13,30,13c.54,0,.91.2.91.8a.51.51,0,0,1-.25.35A6.12,6.12,0,0,1,27.29,14,.6.6,0,0,1,27.4,13Z"/><path class="cls-5" d="M20.36,19.09c.62-.25,1.73.49,1.78-.9A.73.73,0,0,1,23.19,18a2,2,0,0,1-.06,2,3.41,3.41,0,0,1-2.83.07A.64.64,0,0,1,20.36,19.09Z"/><path class="cls-4" d="M48.57,19l-1,.08a2.66,2.66,0,0,1-2.59.13,1.21,1.21,0,0,1-.09-.2C45.38,17.8,47.51,17.8,48.57,19Z"/><path class="cls-4" d="M38.1,17.26c0-.27,0-.53,0-.8l.65,0c1.62,0,1.7.07,1.82,1.67a.47.47,0,0,1-.19.33,1,1,0,0,1-.91.06c-.2-.44-.43-.83-1-.82C38.13,17.69,38.15,17.45,38.1,17.26Z"/><path class="cls-6" d="M20.36,19.09l0,.8-.09.21a2.69,2.69,0,0,1-2.79,0,.77.77,0,0,1,.25-1Z"/><path class="cls-4" d="M42,19l1.09,0a.63.63,0,0,1,0,1,3.86,3.86,0,0,1-2.7,0,.83.83,0,0,1-.28-1,.67.67,0,0,1,.28-.34A1.44,1.44,0,0,1,42,19Z"/><path class="cls-4" d="M23.9,14.71c.11-1.11,1-.84,1.68-1a.42.42,0,0,1,.32.21c.21.35,0,.63-.18.9a1.4,1.4,0,0,1-.95.24A.92.92,0,0,1,23.9,14.71Z"/><path class="cls-4" d="M27.4,13l0,.83-.09.2a1.24,1.24,0,0,1-1.62-.15l-.07-.09C25.84,12.69,26.69,13,27.4,13Z"/><path class="cls-5" d="M23,18.17l-.82,0c.08-.68-.41-1.61.79-1.8a.43.43,0,0,1,.32.17,1.44,1.44,0,0,1,.18.91C23.41,17.8,23.45,18.16,23,18.17Z"/><path class="cls-4" d="M42,19l-1.5,0c-.49-.24-.35-.53-.07-.83l.08-.11C41.15,18.21,41.81,18.25,42,19Z"/><path class="cls-7" d="M44,19.09l.9-.05,0,.05a.6.6,0,0,1,.14,1,.82.82,0,0,1-1.07,0A.63.63,0,0,1,44,19.09Z"/><path class="cls-5" d="M14.28,21.72c0-.16,0-.32,0-.48a.94.94,0,0,1,.83-.45.45.45,0,0,1,.33.2c.22.37,0,.64-.21.9A.62.62,0,0,1,14.28,21.72Z"/><path class="cls-8" d="M51,19.07l0,.85c-.29.43-.57.41-.86,0l0-.83Z"/><path class="cls-5" d="M22.93,16.39a.75.75,0,0,1,.88-.86.39.39,0,0,1,.33.2c.21.37,0,.65-.21.91a.61.61,0,0,1-.9-.18Z"/><path class="cls-9" d="M17.76,19.09l0,.81c-.23.52-.58.43-1,.18a.63.63,0,0,1,.13-1Z"/><path class="cls-4" d="M33.47,14.71l.08.83a.41.41,0,0,1-.22.3c-.35.21-.63,0-.9-.17a1,1,0,0,1-.11-1,.51.51,0,0,1,.27-.29A.65.65,0,0,1,33.47,14.71Z"/><path class="cls-5" d="M16.9,19.07l0,.86,0,.16a.5.5,0,0,1-.74.07.36.36,0,0,1-.11-.3C16,19.27,16.34,19.05,16.9,19.07Z"/><path class="cls-4" d="M33.55,15.54c.59,0,.82.34.91.86l-.12.05a.63.63,0,0,1-1,.12.66.66,0,0,1,.08-1Z"/><path class="cls-5" d="M15.06,20.79a.86.86,0,0,1,.92-.93s0,.07,0,.11a.61.61,0,0,1,.11,1,.6.6,0,0,1-1-.11Z"/><path class="cls-10" d="M23.9,14.71h.87a.63.63,0,0,1,.11,1,.61.61,0,0,1-1-.09l-.1-.06Z"/><path class="cls-11" d="M44,19.09l0,.79,0,.17a.5.5,0,0,1-.74.12.45.45,0,0,1-.12-.31l0-.78Z"/><path class="cls-12" d="M30.88,13.75l.85.08a.64.64,0,0,1,.25.9.67.67,0,0,1-.34.26c-.35.12-.71.26-1-.11a.76.76,0,0,1,.22-1Z"/><path class="cls-4" d="M31.74,14.63v-.8h.87c.28.26.38.52,0,.8l0,.1C32.28,15,32,15.14,31.74,14.63Z"/><path class="cls-4" d="M32.63,14.62l0-.8a.8.8,0,0,1,.87.89Z"/><path class="cls-13" d="M20.59,61a1.66,1.66,0,0,0-.92-1,18.46,18.46,0,0,1-6.29-6c.22-.24.44-.45.8-.33.58.05.63.8,1.18.89.11.49.28.93.9.92.18.46.63.64,1,1,.07.31.15.7.52.64.91-.14,1.35.52,1.91,1a.87.87,0,0,0,1,.86,2.06,2.06,0,0,1,1.1.34,1.31,1.31,0,0,0,2-.51,1.17,1.17,0,0,1,1.32-.41,9.73,9.73,0,0,1,1.44.48c-.76,1.4-1.76,2.38-3.51,2.19a14.43,14.43,0,0,0-1.74,0Z"/><path class="cls-13" d="M63,38.31c.07,1.74-1.28,2.49-2.41,3.36-.4.31-.87.51-1.09,1-.47.14-.72.56-1.09.84a2.12,2.12,0,0,0-2.25,1.16c-.69,1.2-1.37,2.4-2,3.64a3.21,3.21,0,0,1-2.43,2,16.82,16.82,0,0,0-3,1.12c-1.73.65-2.57.23-3.7-1.2a52.56,52.56,0,0,1-3.82-5.67c0-.83.68-1.16,1.27-1.39s1.17.21,1.51.72a6.2,6.2,0,0,0,4.51,2.76,4.12,4.12,0,0,0,4.39-1.76A9.37,9.37,0,0,1,57.64,41a8.38,8.38,0,0,1,1.9-.47,2.91,2.91,0,0,0,2.54-2.39.51.51,0,0,1,.3-.24A.5.5,0,0,1,63,38.31Z"/><path class="cls-13" d="M41.57,44.41c.89.39,1.17,1.3,1.51,2.06.73,1.59,2.14,2.64,3,4.11.42.71,1.32.68,2.09.42a40,40,0,0,1,4.09-1.49,2,2,0,0,0,1.23-1.18c.71-1.35,1.42-2.69,2.1-4.06a1.77,1.77,0,0,1,2.78-.75,8.2,8.2,0,0,0-2.8,3.91,9.33,9.33,0,0,1-1.31,2.62,2.26,2.26,0,0,1-2.1,1.32,3.75,3.75,0,0,0-3.07,1.28,3.2,3.2,0,0,1-3.53.62A6.06,6.06,0,0,1,41.34,48a.89.89,0,0,0-.76-.92c-.77-.12-1-.64-1-1.32a.37.37,0,0,1-.17-.48c.58-.24.71-1,1.36-1.16C41.08,44.07,41.4,44,41.57,44.41Z"/><path class="cls-14" d="M39.6,45.28l0,.45c-.73.22-.81,1.3-1.71,1.3l-.88.88h0a5.12,5.12,0,0,1-.87.87h0c-.66.51-1,1.31-1.75,1.75h0l-.87.88h0a1.82,1.82,0,0,1-.88.87h0c-.6.51-1,1.21-1.54,1.74h-.21a1.84,1.84,0,0,1-.88.88l-.87.87c-.49.54-.85,1.17-1.32,1.73l-1.3.89a.58.58,0,0,1-.93.06.81.81,0,0,1-.14-1c.73-1.15,1.19-2.51,2.49-3.23a4.09,4.09,0,0,0,1-.95,12.37,12.37,0,0,1,2.92-2.9c.82-.47,1-1.57,1.79-2.17,1.4-1.11,2.46-2.55,3.78-3.73.1-.11.1.12,0,0s0,0-.07,0q-4.9,4.35-9.83,8.7c-.38.33-.78.74-1.31.2-.31-.56.08-.88.42-1.19,2-1.81,3.87-3.75,6-5.39A12.27,12.27,0,0,0,34.47,45c1.84-1.59,3.67-3.18,5.49-4.79L44.75,36a24.29,24.29,0,0,1,2.53-2.1,1,1,0,0,1,1.29-.07c.44.38.24.84-.08,1.23-1.31,1.6-2.74,3.1-4.16,4.61a49.88,49.88,0,0,0-3.79,3.49,9.33,9.33,0,0,1-1,1.3c-.27.22,0,.44.09.64Z"/><path class="cls-15" d="M26.49,53.15A18.48,18.48,0,0,0,30,50.24c2.46-2.11,4.83-4.32,7.39-6.3a4,4,0,0,1,1-.59,11,11,0,0,1-3.08,4.1c-.81.78-1.49,1.69-2.29,2.46-1.75,1.66-3.29,3.54-5.17,5.06a7.1,7.1,0,0,0-1.82,2.69c-.18.39.12.59.44.74,0,.15,0,.3,0,.44a2.14,2.14,0,0,1-1.17.12,1.19,1.19,0,0,0-1.47.61,1,1,0,0,1-.67.5,7.6,7.6,0,0,1-3.9-1.67c0-.64.51-.48.88-.49a2,2,0,0,1,.62.18c1.59.52,2,.18,1.73-1.47a3.29,3.29,0,0,1,0-1.29c.1-.47.32-.83.89-.82a2.42,2.42,0,0,0,2.48-1.16A.51.51,0,0,1,26.49,53.15Z"/><path class="cls-15" d="M34.36,50.53c.47-.69.71-1.62,1.75-1.75A2.2,2.2,0,0,1,34.36,50.53Z"/><path class="cls-15" d="M31.08,54c.4-.68.58-1.55,1.54-1.74A2.4,2.4,0,0,1,31.08,54Z"/><path class="cls-15" d="M27.8,57.51c.24-.73.49-1.45,1.32-1.73A2.3,2.3,0,0,1,27.8,57.51Z"/><path class="cls-15" d="M37,47.91a.86.86,0,0,1,.88-.88A.86.86,0,0,1,37,47.91Z"/><path class="cls-15" d="M33.49,51.41a.94.94,0,0,1,.87-.88A.85.85,0,0,1,33.49,51.41Z"/><path class="cls-15" d="M36.11,48.78a1.27,1.27,0,0,1,.87-.87A.83.83,0,0,1,36.11,48.78Z"/><path class="cls-15" d="M30,54.91a1.92,1.92,0,0,1,.88-.88A.86.86,0,0,1,30,54.91Z"/><path class="cls-15" d="M32.61,52.28a1.9,1.9,0,0,1,.88-.87A.85.85,0,0,1,32.61,52.28Z"/><path class="cls-16" d="M54.45,22.57a4.93,4.93,0,0,1,2.76,1.12c.27.17.5.43.78.57a2.87,2.87,0,0,1,1.74,3.57,2.44,2.44,0,0,0,1.71,1.74c.7.42.31,1.27.72,1.81a1.41,1.41,0,0,1,.55,1.67c-.7.6-1.12.12-1.56-.35-.28-.3-.45-.86-1-.67s-.46.69-.57,1.11a3,3,0,0,0,.12,2.13,1.09,1.09,0,0,0,1.2.74c.55-.1.75-.53.83-1a7.89,7.89,0,0,0,.06-1c0-.39.09-.74.6-.74.82.22.34,1.11.78,1.52v.88a2.16,2.16,0,0,0-.32.92c0,.83-.48,1.23-1.19,1.58a2.8,2.8,0,0,1-4.06-1.35,6.28,6.28,0,0,1-.65-3,6.66,6.66,0,0,0-.31-2.8,3.54,3.54,0,0,0-1.67-2c0-.41-.07-.82-.07-1.23,0-.71-.22-1.35-1.08-1.41s-.6-.65-.67-1.12c0-.2.09-.4.26-.41.83,0,.76-.64.67-1.13A1.09,1.09,0,0,1,54.45,22.57Z"/><path class="cls-17" d="M55.35,28.89c1.65.61,2.11,2,2.16,3.54a9.41,9.41,0,0,0,.57,4,2.65,2.65,0,0,0,2.24,1.67,2.11,2.11,0,0,0,2.14-1.54,2.14,2.14,0,0,1,.73-.93,6.72,6.72,0,0,1-.2,2.64h-.65a3.54,3.54,0,0,1-4.63.78,2.56,2.56,0,0,1-1.43-1.68,11.83,11.83,0,0,1-.63-3.63A8.89,8.89,0,0,0,55,31C54.82,30.3,54.49,29.48,55.35,28.89Z"/><path class="cls-17" d="M62.34,33.05a4.23,4.23,0,0,0-.44-1.75.29.29,0,0,1,.46,0,.92.92,0,0,1,.84,1c0,.82,0,1.64,0,2.46a3,3,0,0,1-.85-1.31C62.18,33.34,62.15,33.19,62.34,33.05Z"/><path class="cls-18" d="M62.36,31.28l-.46,0c-.56-.47-.42-1.13-.46-1.73C62.58,29.69,62.26,30.59,62.36,31.28Z"/><path class="cls-13" d="M13.35,32l-.83,0c0-1,0-2,0-3,0-.58.17-1.06.83-1.18a.36.36,0,0,1,.31.2,6.34,6.34,0,0,1,.23,2.77C13.82,31.19,14,31.77,13.35,32Z"/><path class="cls-4" d="M14.28,21.72l.82-.06.2.08a4.12,4.12,0,0,1,.28,2.57,1.45,1.45,0,0,1-.36,1,.58.58,0,0,1-.93-.22Z"/><path class="cls-5" d="M14.29,25.12l.85,0,.19.14a2.73,2.73,0,0,1,.1,1.76.88.88,0,0,1-1,.18.46.46,0,0,1-.24-.32Z"/><path class="cls-5" d="M13.34,27.75a.9.9,0,0,1,.87-.85l.08.05a.68.68,0,0,1,.25.85.49.49,0,0,1-.27.28.67.67,0,0,1-.86-.24Z"/><path class="cls-19" d="M13.35,45.26a.81.81,0,0,1,.88-.87c.33-.25.59-.58.9-.85h0c.93-.51,1.63-1.33,2.6-1.78h0a1.35,1.35,0,0,0,.63-1,.43.43,0,0,1,.24-.18c.83-.25.3-1,.61-1.5a.4.4,0,0,1,.23-.23c.62-.38.79-1.41,1.78-1.26.34,0,.67-.25,1,0,.52.36.42.76,0,1.15a13.13,13.13,0,0,0-2.36,3.33c-.6,1.16-1.88,1.74-2.86,2.58-.28.24-.61.4-.55.83-.32.82.21,1.18.78,1.51,0,.29,0,.57,0,.86a2.56,2.56,0,0,0,.24,1.35c.45.85.13,1.65-.84,1.71-1.19.07-1.16.73-1.12,1.55,0,.26,0,.52-.19.71a1,1,0,0,1-1.53-.69c-.14-.43-.42-.46-.75-.51-1-.22-1.11-1.05-1.07-1.81a1.23,1.23,0,0,0-.5-1.25.9.9,0,0,1-.18-1.3C12.13,46.91,12.48,45.86,13.35,45.26Z"/><path class="cls-20" d="M13.35,45.26c-.15.92-.86,1.53-1.3,2.3-.26.47-.43.82,0,1.22a1.77,1.77,0,0,1,.45,1.4,1.16,1.16,0,0,0,.86,1.23A1.25,1.25,0,0,1,13.67,53a.39.39,0,0,1-.31.22c-1.13-.64-2-1.41-1.75-2.9a1.28,1.28,0,0,0-.29-1,1.62,1.62,0,0,1,.09-2.49c.14-.12.13-.4.2-.6l0,0C12.34,46.12,12.62,45.23,13.35,45.26Z"/><path class="cls-21" d="M17.73,41.76c-.6,1-1.13,2.06-2.6,1.78,0-.29,0-.58,0-.87C16,42.48,16.65,41.44,17.73,41.76Z"/><path class="cls-21" d="M15.13,43.54c0,.64-.22,1-.9.85A.82.82,0,0,1,15.13,43.54Z"/><path class="cls-20" d="M14.26,54h-.88c0-.28,0-.57,0-.85l.06-.06a.6.6,0,0,1,1,0A.51.51,0,0,1,14.26,54Z"/><path class="cls-22" d="M47.47,20.79l0,1.77a1.07,1.07,0,0,1,0,1.74l0,3.15c0,.52,0,1-.65,1.23a3.07,3.07,0,0,1-1.13.83,4.35,4.35,0,0,0-2,1.45c-.43,0-.86-.06-1.29-.08a18.16,18.16,0,0,0-2.33-.09c-.88,0-1-.37-.77-1,.35-.83,1.07-.59,1.72-.65s1.37.34,1.82-.44c.22-.36.61-.35,1-.39s.58-.38.75-.71a2.81,2.81,0,0,0,1.62-2.48,8.61,8.61,0,0,1,0-.88,3.85,3.85,0,0,0-.6-2,1.11,1.11,0,0,1,.19-1.62A1.52,1.52,0,0,1,47.47,20.79Z"/><path class="cls-23" d="M46.61,29.55c1.65,0,1.72-.09,1.73-1.74,0-.92,0-1.82,1.32-1.75a29.84,29.84,0,0,1-.1,4c-.7.64-1.75.58-2.44,1.19a34.91,34.91,0,0,0-4.7,4.48.88.88,0,0,1-1.24.17,1,1,0,0,1,0-1.27c.94-1.32,2.31-2.25,3.2-3.62a6.43,6.43,0,0,0,2-1.43Z"/><path class="cls-24" d="M49.21,30c.15-1.31-.32-2.69.45-3.92l.42,0a1.46,1.46,0,0,1,1.67-.29.86.86,0,0,1,.33.23c.16.37.31.73,0,1.06-.75.48-1.64.85-1.45,2s-.65,1.8-1.32,2.51c-.26.27-.5.13-.74,0C47.78,30.57,49,30.51,49.21,30Z"/><path class="cls-25" d="M52.73,21.67l.85,0,0,.84a1.81,1.81,0,0,1,.31,1.88,1.19,1.19,0,0,1-1,.27c-.69-.27-1.18-.91-2-1-.94-.36-.92-1.16-.88-2,.5-.67.95-.55,1.42.05S51.94,22.25,52.73,21.67Z"/><path class="cls-26" d="M52.73,21.67c-.41,1-.92,1.13-1.68.46a1.49,1.49,0,0,0-.95-.43.93.93,0,0,0-.9-.9c-.27,0-.64-.06-.61-.45s.39-.37.67-.4.57,0,.86,0H51a4.61,4.61,0,0,1,1.76,1.72Z"/><path class="cls-27" d="M47.5,24.3c0-.58,0-1.16,0-1.74.56.05,1.21-.14,1.55.46A1.15,1.15,0,0,1,49,24.43C48.48,24.94,48,24.42,47.5,24.3Z"/><path class="cls-24" d="M51,23.66c.72-.14,1.55-.55,1.74.67a1.54,1.54,0,0,1,.2,1.89.77.77,0,0,1-1.07-.16l0,0c-.73-.37-.18-1.34-.83-1.75Z"/><path class="cls-4" d="M44.86,19.92l0-.83,2.72,0c0,.27,0,.54-.07.81-.43.56-1.06.41-1.63.44a1.07,1.07,0,0,1-.92-.26Z"/><path class="cls-28" d="M51,24.28c1.08.2.78,1.06.83,1.75H50.08C50.09,25.29,51,25,51,24.28Z"/><path class="cls-29" d="M43.76,30.42c.73-1.09,2-1.24,3.06-1.74l-.21.87h0c-.44.46-1,.7-1.49,1.16A.77.77,0,0,1,43.76,30.42Z"/><path class="cls-30" d="M45.7,20l1.77,0v.87H45.73l-.18-.06C45.27,20.42,45.45,20.18,45.7,20Z"/><path class="cls-31" d="M53.58,24.35l0-1.82.84,0a5.71,5.71,0,0,0,.22,1c.62,1.46.58,1.53-1.07,1.57C53.17,24.91,53.27,24.63,53.58,24.35Z"/><path class="cls-32" d="M52.74,21.65A2.28,2.28,0,0,1,51,19.93C52.57,19.93,52.74,20.09,52.74,21.65Z"/><path class="cls-33" d="M35.22,17.34h2.61a.71.71,0,0,1,.25,1c-.3.34-.71.21-1.08.26-.61-.06-1.26.12-1.84-.25A.63.63,0,0,1,35.22,17.34Z"/><path class="cls-34" d="M37.89,18.13l-.06-.79.27-.08c.64.08,1.41-.07,1.52.91C39,18.76,38.45,18.83,37.89,18.13Z"/><path class="cls-35" d="M33.53,16.42l.81,0,.08.82a.48.48,0,0,1-.26.33c-.93.15-1.06,0-1-.94A.48.48,0,0,1,33.53,16.42Z"/><path class="cls-36" d="M35.22,17.34l0,.79-.08.21a.83.83,0,0,1-1,0c-.33-.41-.08-.71.2-1l.11-.07Z"/><path class="cls-37" d="M30.85,13.87l0,.79c-.06.48-.45.5-.79.53a6.74,6.74,0,0,1-2.53-.14.93.93,0,0,1-.4-.22.69.69,0,0,1,.23-1l0,0Z"/><path class="cls-38" d="M20.39,19.89l2.52,0a.52.52,0,0,1,.36.21c.21.37.21.7-.2.94a4.57,4.57,0,0,1-1.91.18c-1.22-.09-1.39-.37-.81-1.26Z"/><path class="cls-39" d="M23,18.17l.07-.83a.6.6,0,0,1,1-.08,3.43,3.43,0,0,1,.19,2.23c-.07.6-.51,1.07-1.2.44h-.13Z"/><path class="cls-40" d="M37.89,18.13l1.73,0,.83,0,.07.83a.53.53,0,0,0-.12,0,3.64,3.64,0,0,1-3.49.15.64.64,0,0,1,.06-1Z"/><path class="cls-41" d="M20.35,20c0,.57.41.79.92.86.43.41.61.72,0,1.2-.82.63-.43,2.83.25,3.58,1.05,1.15,2.25.82,3.49.81.3,0,.6-.05.69-.21.51-.87,1.14-.73,1.84-.32a.9.9,0,0,1,.13,1c-.53.31-.78.92-1.31,1.23a41.07,41.07,0,0,1-5,.1,20.73,20.73,0,0,1-3.08-3.06,2.28,2.28,0,0,1-.2-1.57A1.75,1.75,0,0,0,17.42,22c.11-.69-.83-.61-.87-1.19a.71.71,0,0,1,.33-.83h0l.86,0Z"/><path class="cls-42" d="M37,19l3.38.07.1.83,0,.17a.84.84,0,0,1-.63.28c-.74.32-.93.76-.4,1.25a2.78,2.78,0,0,1,.73,3.13A1.69,1.69,0,0,0,40.25,26c0,.65-.18,1.29-.2,1.95,0,.34,0,.71-.3,1a1.29,1.29,0,0,1-1.07,0,.73.73,0,0,1-.39-.86c0-.52,0-1,0-1.57-.09-1-.38-1.25-1.34-1-.74.16-1.49.43-2.17-.17a1,1,0,0,1,.21-1,3.49,3.49,0,0,0,1.14-1.12c.64-.25.42-.82.47-1.28a10.28,10.28,0,0,1,.17-2.71A.39.39,0,0,1,37,19Z"/><path class="cls-43" d="M40.5,19.91l2.59-.05s0,.08,0,.11c.54.93.41,1.14-.65,1.22-.54,0-1.07-.09-1.61,0-.93-.1-.73-.62-.44-1.18Z"/><path class="cls-44" d="M27.38,13.83l0,.82c-.39.64-.93.59-1.52.33a.51.51,0,0,1-.22-.35l0-.78Z"/><path class="cls-45" d="M24.71,15.53l.06-.82.84-.08a.52.52,0,0,1,0,.11c.31.24.53.51.32.93a.91.91,0,0,1-1,.18A.44.44,0,0,1,24.71,15.53Z"/><path class="cls-46" d="M23.87,17.31l-.84,0v-.88l.79,0,.18,0a.49.49,0,0,1,0,.79Z"/><path class="cls-47" d="M44,19.88l.88,0,0,0a.64.64,0,0,1,.21,1,1,1,0,0,1-.4.23c-.37.1-.75.15-1-.24s0-.67.31-.9Z"/><path class="cls-48" d="M15.17,20.82l.79-.05a.44.44,0,0,1,.33.23c.18.35.23.67-.14.94a.75.75,0,0,1-1-.21l-.08-.07Z"/><path class="cls-49" d="M23.91,15.59l.8-.06.08.07a.66.66,0,0,1,.24.84.46.46,0,0,1-.26.27.62.62,0,0,1-.84-.25l-.11,0Z"/><path class="cls-50" d="M33.44,15.57l.09.85-.11,0a.67.67,0,0,1-.94.24c-.38-.24-.36-.57-.16-.92a.46.46,0,0,1,.32-.24Z"/><path class="cls-51" d="M31.74,14.63l.85.09,0,.81-.09.08c-.31.29-.65.5-1,.12s-.14-.72.19-1Z"/><path class="cls-52" d="M16.88,19.94l0,.85c-.25.44-.53.32-.82.05L16,20.77,16,20Z"/><path class="cls-53" d="M44,20c0,.57.38.78.87.85a.65.65,0,0,1,.32.91c-.21.45-.66.25-1,.36s-.77,0-1.15,0c-.55-.08-1.12.15-1.67-.08s-1.06-.52-.43-1.2c.76-.21,1.86.44,2.18-.87Z"/><path class="cls-54" d="M31.73,14.73c-.05.6.22.9.82.88l.06.82a5.23,5.23,0,0,1,1,1.91c.36.91-.76,2.08-1.83,1.82-1.66-.4-3.32-.72-5-1.09A1.92,1.92,0,0,1,25.64,17c.33-.8.37-1.9,1.59-2a.67.67,0,0,0,.36-.21l3.28-.07Z"/><path class="cls-55" d="M26.49,53.15c-.27.38-.57.75-.82,1.15a1.6,1.6,0,0,1-1.63.87c-1.07-.18-1.05.43-1,1.14a8,8,0,0,0,.19.85c.36,1.54-.33,2.2-1.89,1.76a6.3,6.3,0,0,0-2.09-.52c-.68-.24-1.12-.9-1.91-1-.36,0-.45-.43-.5-.76s.06-.37.29-.37c.95,0,1.07-.7,1.13-1.42,0-.52.53-.38.76-.6-.14-.78-1.52-1.17-.65-2.22,1-.55,2-.09,2.92,0,.27.31.42.8,1,.66.26.07.55-.08.81.07s.18,1,.91.84a1.23,1.23,0,0,0,1-.5c1.6-1.69,3.42-3.15,5.17-4.68A30.1,30.1,0,0,0,33.4,45.3c.35-.4.59-.51,1-.3a.36.36,0,0,1,.15.29c-1.19,1.79-3.1,2.84-4.56,4.34C28.86,50.82,27.35,51.66,26.49,53.15Z"/><path class="cls-56" d="M14.26,54a.9.9,0,0,0-.84-.91c0-.57,0-1.14,0-1.7a1,1,0,0,1,.89.81,1,1,0,0,0,.85.72c1.26.55,1.48.92,1.16,2a.53.53,0,0,1-.29.26.73.73,0,0,1-.88-.28A1,1,0,0,1,14.26,54Z"/><path class="cls-57" d="M18.63,54.9c0,1.68-.05,1.72-1.76,1.76a.9.9,0,0,1-.88-.87.52.52,0,0,1,0-.86l.05,0c.51-.8,1.31-.25,2-.41C18.3,54.44,18.59,54.48,18.63,54.9Z"/><path class="cls-58" d="M16,54.93c0,.29,0,.57,0,.86a.86.86,0,0,1-.88-.88Z"/><path class="cls-59" d="M53.58,24.35c0,.28,0,.55,0,.82s.07.65.36.75c1.48.53,1.42,1.75,1.39,3a4.93,4.93,0,0,0,.53,2.74,3.43,3.43,0,0,1,.33,1.81,10.34,10.34,0,0,0,.61,3.74,3.29,3.29,0,0,0,4.44,1.57,2,2,0,0,1,1.08-.45c0,.07,0,.14,0,.21a3.76,3.76,0,0,1-4.35,2,2.37,2.37,0,0,0-2.36,1,19.59,19.59,0,0,1-3.41,3.64A5.76,5.76,0,0,1,45.35,45a11.3,11.3,0,0,0-3-2.23,1.57,1.57,0,0,1,.51-1.14.81.81,0,0,1,.52-.15,2,2,0,0,1,1.95,1c1.3,1.66,3.56,2.45,5.32,1.43a6.5,6.5,0,0,0,2.74-3c.57-1.27-.11-3-1.51-4-.17-.13-.39-.25-.58-.38-1.41-1-1.45-1.26-.34-2.54a20.68,20.68,0,0,0,1.45-1.93c.67-.19.72-.67.59-1.24a4.5,4.5,0,0,1,.13-1.37c.47-.27,1-.5.9-1.18,0-.51-.2-.87-.81-.81A1.37,1.37,0,0,1,52.4,27c-.23-.42.05-.67.29-.94l0-1.71Z"/><path class="cls-60" d="M42.66,42.66c.8-.36,1.29-.14,1.79.63,1.79,2.74,6.16,3.12,8.24.74A40.07,40.07,0,0,0,55.31,41a2.41,2.41,0,0,1,2.54-1.08,1.66,1.66,0,0,1,.22,0,4,4,0,0,0,4.26-1.4A3.47,3.47,0,0,1,59.69,41a9.56,9.56,0,0,0-6.2,4.06c-2,3-6.77,3-9.07.17-.21-.26-.42-.51-.62-.77-.9-1.1-1.27-1.11-2.23-.05h-.88s-.07,0-.08-.07A1.86,1.86,0,0,1,42.66,42.66Z"/><path class="cls-14" d="M42.66,42.66a4,4,0,0,0-2,1.74c-.23.46-.48.89-1.09.88h0c-.33-.26-.42-.63-.11-.9.87-.77,1.36-1.91,2.46-2.47.4-.21.72-.6,1.16-.11Z"/><path class="cls-61" d="M53.6,29.54v1.54c-.33.78-1.18,1.07-1.61,1.77a26.27,26.27,0,0,0-1.75,2.3c-.59,1.25-.72,1,.68,1.73a3.42,3.42,0,0,1,1.24,5.49A3.65,3.65,0,0,1,48.56,44a3.79,3.79,0,0,1-3.34-2.09c-.29-.64-.7-1-1.43-.51a1.31,1.31,0,0,1-.41.13c-.37.1-.82.41-1.11,0s.19-.67.41-1A4.37,4.37,0,0,1,44,39.16c1.42-1.2,2.45-2.76,3.78-4,.19-.18.49-.46.23-.75s-.54-.06-.8.07a9.17,9.17,0,0,0-1.7,1.35Q40.24,40.45,35,45.08a2.32,2.32,0,0,1-.38.21h-.22c-.48-.43-.09-.68.2-1,1.28-1.23,2.62-2.41,4-3.54,1.15-1,2.15-2,3.29-3,2.43-2.06,4.51-4.53,7.32-6.15A4.3,4.3,0,0,0,50.48,30a5.39,5.39,0,0,1,1.36-1.71.75.75,0,0,0,.31-.71c0-.3.05-.74.58-.63h.86A2.22,2.22,0,0,1,53.6,29.54Z"/><path class="cls-62" d="M44,39.16c-.39.53-.79,1.05-1.16,1.59-.13.17-.28.38-.06.58s.34,0,.51,0c1.56-.53,1.56-.53,2.57.85a3.78,3.78,0,0,0,4.78,1c1.91-1.21,2.52-3.08,1.6-4.73a4.45,4.45,0,0,0-2-1.5c-1-.59-1.06-1.34-.16-2.15a2.41,2.41,0,0,0,1.39,1.81A4.55,4.55,0,0,1,53,38.09a3,3,0,0,1-.05,3.81,10.24,10.24,0,0,1-1.29,1.35,4.17,4.17,0,0,1-6.31-.75c-.44-.57-.86-1.26-1.77-.71H43.1a6.41,6.41,0,0,0-3.51,3.48c-.31,0-.71,0-.83-.33s.22-.5.41-.71c1.26-1.43,2.53-2.85,3.79-4.29A2.37,2.37,0,0,1,44,39.16Z"/><path class="cls-63" d="M62.34,33.05v.43c0,.58,0,1.16,0,1.75a1.35,1.35,0,0,1-1.1,1.43,1.59,1.59,0,0,1-1.88-.74,5.67,5.67,0,0,1,.27-4.83c.45-.54.84-.24,1.17.14C61.31,31.83,61.63,32.6,62.34,33.05Z"/><path class="cls-64" d="M22.12,37.85l-.87.22c-.57-.78-.9-1.79-2.05-2-.15,0-.14-.49-.11-.78.05-.59-.2-1-.86-.9s-1.51,0-2.27-.1a2,2,0,0,1-.84-.35.88.88,0,0,1-.88-.85.78.78,0,0,1-.31-.87c.41-.9,1-.56,1.6-.23a3.11,3.11,0,0,0,2,.48,1.29,1.29,0,0,0,1.16-.69,1.53,1.53,0,0,1,1.87-.9,2.46,2.46,0,0,1,.93.16c.25.58.67.68,1.28.71,2.11.12,4.21-.06,6.32,0,.24.05.32.22.39.45.32,1.13.95,1.44,2,.94A9.19,9.19,0,0,0,33.07,32c.51-.4,1.07-.64,1.6,0A1.18,1.18,0,0,1,34,33.48c-.75.47-1.52,1-2.27,1.45a4.43,4.43,0,0,1-3.4.53c-2.18-.8-3.39.44-4.62,1.74A1.61,1.61,0,0,1,22.12,37.85Z"/><path class="cls-65" d="M20.38,31.27c-.63,0-1,.3-1,1a.69.69,0,0,1-.79.72c-1.3,0-2.7.47-3.83-.66-.11-.11-.34-.09-.52-.13a.5.5,0,0,1-.84-.06c0-.06,0-.12,0-.18l.06-1.34a1.13,1.13,0,0,1,1.51-.37,7.72,7.72,0,0,0,1,.38c1.16.29,1.4.08,1.19-1.06.12-.51.08-1.16.69-1.31a1.2,1.2,0,0,1,1.42.57c.06.11.24.15.38.19a1.57,1.57,0,0,1,1.17,1.33A.92.92,0,0,1,20.38,31.27Z"/><path class="cls-66" d="M18.6,34c.64,0,.86.42.91,1s.36.87,1,1c1.32.17,1.31.19.93,1.46-.07.24-.1.49-.15.73-.69.19-.95,1.08-1.75,1.1C18,38,17.7,36.82,18.62,35.23l0-.42C18.32,34.53,18.26,34.24,18.6,34Z"/><path class="cls-13" d="M18.62,35.23a5.71,5.71,0,0,0,.88,3.94h0c-.7.36-.19,1.36-.89,1.72h0a.51.51,0,0,1-.87,0c0-1.43,0-2.87-.08-4.3C17.62,35.85,18.05,35.52,18.62,35.23Z"/><path class="cls-67" d="M18.6,34v.86l-2.46,0a.9.9,0,0,1-1-.86Z"/><path class="cls-68" d="M13.39,32.15l.84.06c0,.28,0,.57,0,.86A.79.79,0,0,1,13.39,32.15Z"/><path class="cls-21" d="M17.74,40.91h.87a.81.81,0,0,1-.89.86C17.73,41.48,17.74,41.19,17.74,40.91Z"/><path class="cls-5" d="M17.74,30c0,1.72-.1,1.77-1.72,1.3a7.12,7.12,0,0,0-2.61-.65V27.84l.85,0A19.5,19.5,0,0,0,17.74,30Z"/><path class="cls-69" d="M15.18,21.73l.8-.07c.59-.07,1.18-.84,1.76,0,1.38.1,1.39.1,1,1.44-.47,1.64.66,2.55,1.62,3.52.36.35.87.56.9,1.16s-.45.44-.8.44a1.31,1.31,0,0,1-1.08-.35,6.85,6.85,0,0,0-2.27-1.3c-.39-.17-.63-.33-.65-.84,0-.79-1-.86-1.3-1.47Z"/><path class="cls-70" d="M15.17,24.27a16.45,16.45,0,0,1,4.33,3.31.36.36,0,0,1,0,.41,6.08,6.08,0,0,1-3.3.25c-.67-.09-.51-.76-.59-1.26s.17-1.32-.41-1.82l0,0Z"/><path class="cls-4" d="M15.16,25.16c.74,0,.82.53.85,1.12.09,1.44.17,1.5,1.61,1.52.61,0,1.23,0,1.84.05a.65.65,0,0,1,.39.82,1.06,1.06,0,0,1-.35.88,2.73,2.73,0,0,1-.61-.2c-1-.64-1-.65-1.15.63a3,3,0,0,1-3.48-2.17l0,0a6.57,6.57,0,0,0,.86-.89Z"/><path class="cls-5" d="M15.1,26.9a.76.76,0,0,1-.86.89c0-.28,0-.56,0-.84Z"/><path class="cls-71" d="M16.89,47.9l0-.85c-.62-1-.51-1.16.64-1.28a13.13,13.13,0,0,0,1.77-.2c.21,0,.46-.16.64,0,.68.48,1.16,0,1.64-.33a52,52,0,0,0,4.21-3.79,13,13,0,0,1,5.82-3.62,10.48,10.48,0,0,1,1.91-.65c.44,0,.92-.1,1.2.32a1.16,1.16,0,0,1-.14,1.32,10.47,10.47,0,0,1-2.3,2.35c-2.72,2.52-5.34,5.14-8.22,7.49-.43.35-.62.93-1,1.33a1.19,1.19,0,0,1-.85,0c-.62,0-.36-.93-1-1a2.11,2.11,0,0,0-1-1A1.34,1.34,0,0,0,18,47.9a1,1,0,0,1-.42.32C17.27,48.36,17,48.31,16.89,47.9Z"/><path class="cls-72" d="M22.12,37.85c1.29-1.18,2.28-2.72,4-3.36.35-.13.68-.31,1-.1,2.25,1.29,4.17.39,6-.9.48-.33,1.15-.55,1.18-1.31.33-1.16.82-1.62,1.77-1.2.68.38.43,1,.11,1.3a19.71,19.71,0,0,1-4.39,3.59.59.59,0,0,1-.29.13c-1.71-.07-3.12,1.15-4.83,1.11a3.11,3.11,0,0,0-2.81,1.6,19.72,19.72,0,0,1-5.55,6.09c-.35.24-.19.8-.66.88s-1.3.4-1.73-.41c.46-1.1,1.54-1.6,2.37-2.33a4.47,4.47,0,0,0,1.4-1.87C20.2,39.75,21.48,39,22.12,37.85Z"/><path class="cls-73" d="M16,45.27h1.75c2.37-1.58,4.15-3.77,6.1-5.8a8.4,8.4,0,0,1,4.4-2.6,13.3,13.3,0,0,0,8-4.77,2.71,2.71,0,0,0,.24-.35c.56-1.1.66-1.15,1.82-.76.37.71.11,1.15-.52,1.6s-1.39.85-1.37,1.82c0,.25-.24.43-.41.61a13.84,13.84,0,0,1-5.45,3.07,11.75,11.75,0,0,0-4.88,3.19,40.64,40.64,0,0,1-3.58,3.36,7.65,7.65,0,0,1-2.39,1.5H18c-.62,0-1.05.22-1.13.89-.58,0-.84-.49-1.2-.83C15,45.61,15.37,45.4,16,45.27Z"/><path class="cls-56" d="M16.89,47.9h1a1.7,1.7,0,0,0,.91.67,1.23,1.23,0,0,0,.87.87,1.28,1.28,0,0,0,.88.88c.18.37.32.77.83.8a.51.51,0,0,1,.19.26.8.8,0,0,1-.07.79.38.38,0,0,1-.3.13c-.87.64-1.71.24-2.56,0-.37.34-.74.17-1.07-.05-.59-.41-1.1-.61-1.34.34,0,.09-.17.11-.27.14-.37.06-.57-.21-.82-.39-.07-1,0-1.73,1.24-1.88.66-.09.92-.54.62-1.19A1.44,1.44,0,0,1,16.89,47.9Z"/><path class="cls-74" d="M15.13,52.32l.87,0a.85.85,0,0,1,1.39,0c.9.82,1.1,1.47.64,2.37a1.65,1.65,0,0,1-.22.24c-.14.65-.35,1.13-1,.4A1.3,1.3,0,0,0,16,54.9c0-.77-1.07-1.09-.88-2C15.12,52.73,15.13,52.53,15.13,52.32Z"/><path class="cls-66" d="M18.61,40.89c.08-.69-.21-1.56.89-1.72C19.43,39.86,19.75,40.75,18.61,40.89Z"/><path class="cls-75" d="M38.08,31.31a1.68,1.68,0,0,0-1.4.71,18.4,18.4,0,0,1-3.21,3.09,10.34,10.34,0,0,1-3.3,1.51,11.34,11.34,0,0,0-6.24,3.56,46.66,46.66,0,0,1-4.15,4.17,2.85,2.85,0,0,1-2,.93,1.46,1.46,0,0,1,.62-1,19.16,19.16,0,0,0,4.95-5.73A4.26,4.26,0,0,1,27.1,36.5,11.66,11.66,0,0,0,35.86,32a2.47,2.47,0,0,0,.24-.71.83.83,0,0,1-.1-1.39,2.9,2.9,0,0,0,.68-1.21.47.47,0,0,1,.23-.27c.71-.42,1.22-.05,1.69.44a2.47,2.47,0,0,1,1,.55c0,.05,0,.11,0,.16.06.63.46.85,1,.86l2,0c.29.53,0,.88-.36,1.24a12.76,12.76,0,0,1-3.21.11A1.26,1.26,0,0,1,38.08,31.31Z"/><path class="cls-76" d="M43.12,21.7l.83,0a4.92,4.92,0,0,1,2.63,2.58v.87a30.78,30.78,0,0,0-1.72,2.65c-.17,1.06-1,.83-1.73.93a.41.41,0,0,1-.28-.11c-.26-.36-.09-.65.13-1a1.42,1.42,0,0,0-.05-2c-.66-.67-1.3-.34-1.94.07-.44.29-.9.71-1.39.06,0-.51,0-1,.11-1.52a3.25,3.25,0,0,0-.64-2.66c-.84-1.1-.6-1.57.77-1.7.49.3.21.9.52,1.31A1.77,1.77,0,0,0,43.12,21.7Z"/><path class="cls-2" d="M42.22,31.29l.42-.84,1.12,0A1.14,1.14,0,0,0,45,30.17a2.56,2.56,0,0,1,1.57-.61,2.41,2.41,0,0,1-1.76,1.74,5.73,5.73,0,0,1-1.4,1.15,4.82,4.82,0,0,0-1.74,1.62c-.2.33-.48,1.08-1.21.67a.65.65,0,0,1,0-1,1.55,1.55,0,0,0,.38-1.27C41.09,31.81,42.14,32.1,42.22,31.29Z"/><path class="cls-77" d="M46.58,24.3A5,5,0,0,1,44,21.71c.53-.05.88-.28.89-.87l0-.08a.52.52,0,0,1,.86,0h0A4.56,4.56,0,0,1,46.58,24.3Z"/><path class="cls-78" d="M39.6,28.69l0-.92a.83.83,0,0,1,1.32-.15c.63.53,1.6.34,2.15,1a1.17,1.17,0,0,1,0,.11c-.06.66-.52.8-1.07.8H39.59l0,0A.5.5,0,0,1,39.6,28.69Z"/><path class="cls-79" d="M44.87,27.82c0-1.59.38-2.21,1.72-2.65C46.59,26.69,46.13,27.39,44.87,27.82Z"/><path class="cls-80" d="M40.7,34.57a10.88,10.88,0,0,1,4.15-3.27,2,2,0,0,1-1,1.12,6.06,6.06,0,0,0-2.55,3.25,1.13,1.13,0,0,1-.77,1.2,1.07,1.07,0,0,0-.71.26A50.36,50.36,0,0,1,34.5,42c-.84.75-1.52,1.64-2.36,2.39-.5.44-.94.7-1.53.21-.37-.55,0-.92.38-1.23,2.44-2,4.65-4.18,7-6.31a11.63,11.63,0,0,0,2.11-2.31A.43.43,0,0,1,40.7,34.57Z"/><path class="cls-81" d="M40.48,36.54a2.27,2.27,0,0,1,.87-.87,1.54,1.54,0,0,0,1-.59c1.13-1.17,2.35-2.24,3.57-3.31A8.56,8.56,0,0,1,49.21,30c-.21.44-.43.88-.65,1.31a.78.78,0,0,1,0,.16,4.28,4.28,0,0,0-2.22,1.82.44.44,0,0,1-.29.11c-.6-.11-.77.35-1,.76-1.43,1.2-2.69,2.58-4.12,3.79-.16.14-.12.42-.28.59a.91.91,0,0,1-.33.1.89.89,0,0,1-.87-.19c-.45-.6,0-1,.36-1.34C40,36.9,40.27,36.75,40.48,36.54Z"/><path class="cls-82" d="M52.73,26.92a12,12,0,0,1-4.36,5.64,46.71,46.71,0,0,0-5.91,5.15c-2.11,2-4.39,3.82-6.53,5.79a5.58,5.58,0,0,0-1.57,1.78c-1.17.51-1.88,1.57-2.8,2.37-2,1.77-4,3.58-6,5.39a5.88,5.88,0,0,0-.83,1.13c-.14.21-.2.52-.52.46s-.32-.36-.38-.6c-.22-.21-.47-.41-.32-.77a.71.71,0,0,1,.15-.33c.55-.07.56-.63.84-.94.24-.07.51-.05.7-.26,1.48-1.65,3.35-2.88,4.91-4.43,1.08-1.07,2.27-2,3.3-3.15a4.37,4.37,0,0,0,1.19-1,28.06,28.06,0,0,0,4.76-4.07c.29-.33.8-.42,1.08-.8h0c1.54-1.46,3.17-2.83,4.58-4.41.22-.37.6-.55.89-.83h0c1-.46,1.65-1.3,2.61-1.76h0a2.29,2.29,0,0,0,1.55-2.63,6.78,6.78,0,0,0,1.52-1.73c.07-.29.15-.58.22-.87l.84,0C52.7,26.33,52.71,26.63,52.73,26.92Z"/><path class="cls-61" d="M51.63,26.93c.24,1.32,0,1.61-1.52,1.73C50.1,27,50.16,27,51.63,26.93Z"/><path class="cls-83" d="M45.73,20.81l-.86,0,0-.82.86,0Z"/><path class="cls-84" d="M37,18.2c0,.27,0,.54.05.81l-.08.1a.94.94,0,0,1-.91.37,1.28,1.28,0,0,1-1-.33.6.6,0,0,1,.17-.93v-.09Z"/><path class="cls-85" d="M27.59,14.73c-.12.45-.49.7-.78,1a1.78,1.78,0,0,0-.56,1.87,1.62,1.62,0,0,0,1.49,1.07,15.59,15.59,0,0,1,3.81.86,1.11,1.11,0,0,0,1.29-.33A1,1,0,0,0,32.93,18a3,3,0,0,1-.32-1.58l.81,0c0,.59.18,1,.89.89l.06.83a1,1,0,0,1,.42.88A8.35,8.35,0,0,1,34.67,21a2.51,2.51,0,0,1-2.21,1.14c-.2,0-.47.05-.65-.2-.67-.92-1.75-.75-2.67-.91a2.18,2.18,0,0,0-2.39,1.56A5.93,5.93,0,0,1,25,25c-.8.61-2,.33-2.34-1.18-.11-.52,0-1.07-.1-1.6a1.84,1.84,0,0,1,.17-.55.55.55,0,0,1,.27-.27,4.35,4.35,0,0,0,1.36-3.73c0-.14,0-.28,0-.43,0-.37.22-.55.44-.77h0c.28-.3.59-.58.85-.9l0-.8,1.72-.09Z"/><path class="cls-86" d="M34.37,19.05v-.88l.86,0,0,.8a.33.33,0,0,1-.16.3C34.76,19.51,34.57,19.26,34.37,19.05Z"/><path class="cls-87" d="M27.34,26a1.91,1.91,0,0,0-1.05.21,4.21,4.21,0,0,1-5.12-.18,1.83,1.83,0,0,1-.8-1.44,5.11,5.11,0,0,1,.9-3.77l1.7-.08c.48.29.31.6,0,.91h0c-.47.46-1.07.85-1.22,1.55a2,2,0,0,0,1.06,2.28,2.93,2.93,0,0,0,2.46-.31.57.57,0,0,1,.17-.28,2.3,2.3,0,0,0,1-.58c.36-.19.7-.55,1.16-.22.21.26.12.58.18.88s.06.61-.16.87A.35.35,0,0,1,27.34,26Z"/><path class="cls-88" d="M23,21.68l0-.91.07-.84c.73-.09.81-.63.82-1.2s0-.95,0-1.42h0c.28-.35.57-.32.86,0a6.12,6.12,0,0,1-.91,3.8A1,1,0,0,1,23,21.68Z"/><path class="cls-89" d="M20.36,27.81l.91,0,5.18,0a.42.42,0,0,1,.33.23.92.92,0,0,1-.18,1c-.22.15-.46.07-.68.1-1.62,0-3.24.07-4.86,0C20.16,29,20,28.68,20.36,27.81Z"/><path class="cls-90" d="M17.74,21.67A1.12,1.12,0,0,0,17,22c-.63.78-.86.36-1-.33l.05-.82.82-.05A.85.85,0,0,1,17.74,21.67Z"/><path class="cls-89" d="M26.45,27.76a.91.91,0,0,1,.89-.86l.21.12a.68.68,0,0,1-.14,1c-.37.3-.64.07-.9-.19Z"/><path class="cls-89" d="M27.34,26.9V26l0,0a.64.64,0,0,1,1.08,0c.16.36.36.74,0,1.08s-.72.11-1-.17Z"/><path class="cls-91" d="M26.06,28.68l.42,0c1.1-.95,2.34-1.73,3.37-2.77a1.37,1.37,0,0,1,1-.27c2.08,0,4.16.06,6.24-.07.79-.05,1.23.2,1.18,1.11a1.21,1.21,0,0,0,.45,1.15l0,.82a.32.32,0,0,1,0,.51l-1.66-.5a.94.94,0,0,1-.67-.68c-.07-.33-.13-.52-.62-.57a8.81,8.81,0,0,0-7,2.13,5.54,5.54,0,0,1-3.69,1.37c-1.17,0-2.34,0-3.51,0a1.29,1.29,0,0,1-1.21-.46,1.13,1.13,0,0,0-.88-.86v-.87c.17-.17.46-.32.57-.16.55.85,1.39.58,2.12.58.95,0,1.91,0,2.86,0A1.25,1.25,0,0,0,26.06,28.68Z"/><path class="cls-92" d="M38.72,27.81a.89.89,0,0,1-.85-.84c-.09-.74-.59-.92-1.24-.92l-5.54,0a1.79,1.79,0,0,0-1.24.56,7.07,7.07,0,0,1-3.37,2l0-.84A.9.9,0,0,0,27.4,27a.89.89,0,0,0,.86-.89,1.21,1.21,0,0,1,0-.18c1-.21,1.62-1.28,2.74-1.15a27.13,27.13,0,0,1,3.12.07,1.42,1.42,0,0,1,.83.35,2.73,2.73,0,0,0,1.84-.5c.92-.65,1.71-.26,1.83.87C38.75,26.28,38.71,27.05,38.72,27.81Z"/><path class="cls-93" d="M43.09,28.64a4.37,4.37,0,0,1-3.47-.87c0-.64,0-1.29,0-1.93a11.35,11.35,0,0,0,1.13-.64c1.19-.85,1.88-.84,2.85.09a2.4,2.4,0,0,1-.13,2.81C43.33,28.27,43.21,28.46,43.09,28.64Z"/><path class="cls-77" d="M43.12,21.7c-.21,1-1,1-1.79.95a2.2,2.2,0,0,1-1.59-1.83,8.08,8.08,0,0,1,.11-.86l.56,0a1.17,1.17,0,0,0,.52.86C41.32,22,42.34,21.56,43.12,21.7Z"/><path class="cls-94" d="M36.09,19.09l.85,0c0,1.05,0,2.11,0,3.16,0,.6-.17,1.08-.86,1.19l-.21-.13A6,6,0,0,1,36.09,19.09Z"/><path class="cls-95" d="M35,25.16H30.87a.68.68,0,0,1-.15-1A9.34,9.34,0,0,1,35,24a.5.5,0,0,1,.29.33Z"/><path class="cls-96" d="M38.72,29.14l0-.51.85.06c0,.28,0,.57,0,.85A.86.86,0,0,1,38.72,29.14Z"/><path class="cls-95" d="M36.12,23.46a.87.87,0,0,1-.87.86l0-.06c-.3-.31-.53-.65-.14-1s.72-.12,1,.16Z"/><path class="cls-97" d="M25.6,15.54a.81.81,0,0,1-.85.9l0-.84Z"/><path class="cls-98" d="M24.75,17.31h-.86l0-.86.82,0Z"/><path class="cls-99" d="M40.7,34.57a17.26,17.26,0,0,1-3.58,3.76c-1.89,1.79-3.85,3.51-5.79,5.25a1.34,1.34,0,0,0-.46.83c.45.52,0,.92-.28,1.17-1.44,1.21-2.87,2.43-4.22,3.74l-1.9,1.87c-.21.2-.16.53-.16.81a1.2,1.2,0,0,1-.44,1.15h0a.57.57,0,0,1-.92,0l-.82,0c-.24-.21-.47-.42-.34-.79-.09-.54.79-.47.66-1a8,8,0,0,0,.11-.84.61.61,0,0,1,.24-.6c1.4-1.26,2.77-2.56,4.16-3.82,3.35-3,6.63-6.17,9.91-9.29a6.17,6.17,0,0,0,2.26-3.25,3.17,3.17,0,0,1,1.49-1.17c.36-.14.78-.36,1,.26Z"/><path class="cls-100" d="M17.81,54.85c-.12-1.49-.67-2.27-1.81-2.57.14-1.1.87-1,1.57-.71a4.79,4.79,0,0,1,1.06.71c.11.73.76,1.09,1.17,1.62.17.23.43.39.49.69a.84.84,0,0,1-.17.9c-.32.24-.52-.06-.72-.26a1.28,1.28,0,0,0-.77-.33Z"/><path class="cls-56" d="M22.1,52.31l0,.84a.88.88,0,0,1-.94-.83l.08-.07C21.57,52,21.85,51.85,22.1,52.31Z"/><path class="cls-101" d="M23,53.18l.92,0V54A.82.82,0,0,1,23,53.18Z"/><path class="cls-14" d="M43.54,41.79c.7-.56,1.26-.38,1.75.3a4.94,4.94,0,0,0,1.53,1.38c3,1.66,5-.06,6.12-2.6.61-1.42-.1-2.88-1.69-4-.74-.51-1.47-1-1.15-2.09l1.74-2.18c.23-.29.47-.54.88-.44a10.39,10.39,0,0,1-1.59,2.19c-.52.66-.62,1.23.21,1.7a6.93,6.93,0,0,1,1.9,1.76c1.09,1.29,1.3,2.07.4,3.45-1.14,1.71-2.35,3.48-4.82,3.36a5,5,0,0,1-3.67-1.88A2.08,2.08,0,0,0,43.54,41.79Z"/><path class="cls-3" d="M53.6,29.54c0-.87,0-1.74,0-2.62.77.08.88.62.88,1.25S54.46,29.45,53.6,29.54Z"/><path class="cls-62" d="M52.72,32.17l-.88.44a5.35,5.35,0,0,1,1.75-1.53A1,1,0,0,1,52.72,32.17Z"/><path class="cls-102" d="M48.93,42.63a2.53,2.53,0,0,1-2.83-2.49c0-1,1.38-2.2,2.65-2.24A2.33,2.33,0,0,1,51.38,40,2.4,2.4,0,0,1,48.93,42.63Z"/><path class="cls-103" d="M37,27.81c0,.27.05.55.07.83l-.13.06c-1.19.83-2.6,1.32-3.72,2.26-.9.74-2.08.92-3,1.56a.66.66,0,0,1-1.05-.35,55.17,55.17,0,0,1-6.3,0c-.66-.05-1.34,0-1.58-.85.06-.52.51-.44.81-.44.74,0,1.47,0,2.21,0a10.79,10.79,0,0,0,6-1.82,8.82,8.82,0,0,0,.82-.53,6.67,6.67,0,0,1,5-1.19A1.16,1.16,0,0,1,37,27.81Z"/><path class="cls-104" d="M37,27.81h-.11c-2.56-.41-4.62.68-6.69,2a7.55,7.55,0,0,1-4.47,1.47c-1.49-.06-3,0-4.48,0l-.85-.05v-.86c1.05,0,2.11-.05,3.16,0a6.88,6.88,0,0,0,5.15-1.76c2.22-1.91,4.81-1.91,7.47-1.73A.83.83,0,0,1,37,27.81Z"/><path class="cls-105" d="M29.11,32.17A22,22,0,0,0,33.49,30c1-.73,2-1.52,3.44-1.26.4,1.08-.61,1.71-.83,2.58-.74,0-1,.91-1.73.9s-1.38.76-2,1.16a3.66,3.66,0,0,1-2.16.57C28.84,33.84,28.6,33.45,29.11,32.17Z"/><path class="cls-106" d="M26.06,28.68a.87.87,0,0,1-.95.84c-1.34,0-2.68,0-4,0-.69,0-1-.71-1.61-.84l0-.83a2.51,2.51,0,0,0,0-.27l.86.23c.1.76.65.86,1.27.86Z"/><path class="cls-107" d="M39.61,33.91c-.27,1.57-1.52,2.47-2.54,3.44-3.7,3.54-7.5,7-11.27,10.47A8.94,8.94,0,0,1,23,49.89c-.07,0-.1-.08-.09-.13s0-.09,0-.09c.42-1.56,1.78-2.36,2.87-3.31q4-3.48,7.71-7.22c.32-.31.81-.72.51-1.2s-.87-.18-1.3,0a14.84,14.84,0,0,0-6.52,3.79c-1.28,1.3-2.69,2.46-4,3.74a2.39,2.39,0,0,1-2.56.73c2.53-2.36,5-4.78,7.6-7a10.16,10.16,0,0,1,3.82-1.77,8.9,8.9,0,0,0,4.1-2.55,30.94,30.94,0,0,1,2.6-2.26,1.29,1.29,0,0,1,1.64-.13C40.16,32.87,39.78,33.39,39.61,33.91Z"/><path class="cls-108" d="M23,50.56l0,.82a1.05,1.05,0,0,1-1.72,0h0a.92.92,0,0,1-.43-.86c.05-.53-.16-1.09.14-1.6a.41.41,0,0,1,.32-.22.86.86,0,0,1,.87.91C22.38,50,22.74,50.2,23,50.56Z"/><path class="cls-109" d="M17.73,47.91c.05-.68.48-.91,1.09-.89s1.42-.13,1.59.83a.44.44,0,0,1-.22.34c-.51.33-1.07.12-1.61.15-.38.06-.61-.19-.83-.43Z"/><path class="cls-110" d="M20.41,47.85a.85.85,0,0,1,.87.87l-.05.1c-.33.3-.69.54-1.07.11s-.1-.71.19-1Z"/><path class="cls-111" d="M23,50.56a.81.81,0,0,1-.8-.93l.83,0a1.42,1.42,0,0,0,.05.22C23,50.11,23,50.33,23,50.56Z"/><path class="cls-29" d="M39.61,33.91c-.3-1.22-.87-1.48-1.91-.86a21.49,21.49,0,0,1-2.47,1.74,10.55,10.55,0,0,1,2.16-2.41,2.06,2.06,0,0,0,.69-1.07l4.14,0c.68.15.83.42.18.84-.27.17-.55.32-.83.48A3,3,0,0,0,39.61,33.91Z"/><path class="cls-112" d="M21.25,51.4l1.72,0c.06.63-.3.89-.87.93l-.83-.06Z"/><path class="cls-113" d="M17.75,47.91h.9c.21.22.43.43.23.77a.41.41,0,0,1-.31.16C17.92,48.86,17.69,48.51,17.75,47.91Z"/><path class="cls-114" d="M19.44,49.71a.74.74,0,0,1-.87-.87l.09-.1c.28-.28.58-.53,1-.22a.63.63,0,0,1,.14.9A.54.54,0,0,1,19.44,49.71Z"/><path class="cls-115" d="M20.33,50.57c-.58,0-.92-.24-.89-.86l.1-.1c.24-.27.54-.48.88-.29a.65.65,0,0,1,.25,1A.52.52,0,0,1,20.33,50.57Z"/><path class="cls-116" d="M21.25,50.55v.85c-.61.06-.93-.21-.92-.83l.08-.08C20.71,50.16,21,50.25,21.25,50.55Z"/><path class="cls-117" d="M23.87,53.15c-.48-2.07.89-3.2,2.23-4.33s2.51-2.08,3.75-3.14a3.84,3.84,0,0,0,1-1.27c1.27-.32,1.91-1.48,2.84-2.24a62,62,0,0,0,5.8-5.2,1.43,1.43,0,0,1,1-.43c0,.74-.9,1-.88,1.75,0,.05,0,.1,0,.15A16.43,16.43,0,0,0,37.11,41a.54.54,0,0,1-.15.29A3.9,3.9,0,0,0,34.55,43c-.55,0-.66.41-.75.84A19.41,19.41,0,0,1,31,46.5c-2.09,1.94-4.27,3.78-6.29,5.78A.87.87,0,0,1,23.87,53.15Z"/><path class="cls-118" d="M40.48,38.29A3.55,3.55,0,0,1,39,40.1a49.07,49.07,0,0,1-4.19,3.44l-.13-.1c-.09-.34.18-.58.24-.88a8.08,8.08,0,0,1,1.85-1.65h0c1-.78,1.89-1.75,2.84-2.62h.88Z"/><path class="cls-118" d="M45.29,33.92c-1.45,1.62-2.79,3.37-4.81,4.37a1.8,1.8,0,0,1,.77-1.13l3.6-3.24C45,33.78,45.15,33.76,45.29,33.92Z"/><path class="cls-118" d="M48.56,31.29A3.8,3.8,0,0,1,46,33.05C46.65,32.21,47.31,31.31,48.56,31.29Z"/><path class="cls-24" d="M45.29,33.92h-.44a1.21,1.21,0,0,1,1.1-.87A1.69,1.69,0,0,1,45.29,33.92Z"/><path class="cls-119" d="M24.75,52.28c0-.73.6-1.06,1-1.47,2.27-2.18,4.33-4.59,7-6.35a1.86,1.86,0,0,0,.74-.92c.24-.22.48-.44.83-.22.4.7-.26.81-.62,1.09-2.26,3-5.54,4.82-8.09,7.48A1.3,1.3,0,0,1,24.75,52.28Z"/><path class="cls-118" d="M33.7,44.41l.66-.88.08-.11a.29.29,0,0,1,.36.11h0A1.38,1.38,0,0,1,33.7,44.41Z"/><path class="cls-120" d="M36.09,23.39a1,1,0,0,0-.89.87l-4.34,0a.34.34,0,0,1-.3.12c-.6-.41-1.53,0-2.09.91a.62.62,0,0,1-.31.16c-.36.14-.58-.07-.79-.3V24.3c-.24-.15-.41-.41-.23-.63a14.57,14.57,0,0,1,1.12-1.24,1.66,1.66,0,0,1,1.37-.27c.42,0,.86,0,1.3,0a2.88,2.88,0,0,0,2.85.79,2,2,0,0,0,1-2.33c0-.54-.14-1.12.35-1.54l.1-.09.82.07Z"/><path class="cls-121" d="M23,22.12c0,.43,0,.87,0,1.31a1.32,1.32,0,0,0,.76,1.34c.62.26,1.08-.14,1.43-.54a6.77,6.77,0,0,0,1.09-1.62c1.36-3,2.75-2.78,4.82-1.6a3,3,0,0,0,3.23,0l.21.09c.42,1.11,0,1.72-1.11,1.85-.59.07-1.18,0-1.76,0a2.93,2.93,0,0,0-3.86-.31c-.62.14-1.1.37-.87,1.15,0,.18-.11.29-.2.42a3.49,3.49,0,0,0-1.13,1h0a2.68,2.68,0,0,1-2.81.2,1.78,1.78,0,0,1-1.1-2C21.82,22.62,22.13,22.08,23,22.12Z"/><path class="cls-88" d="M23,22.12A1.48,1.48,0,0,0,22.24,24,1.69,1.69,0,0,0,24,25.17h1.61a2.25,2.25,0,0,1-2.88.73,2.28,2.28,0,0,1-1.48-2.31A2,2,0,0,1,23,21.68Z"/><path class="cls-121" d="M35.17,19.11l.06,1.69c-.23.27-.47.52-.86.23l0,0,0-2Z"/><path class="cls-122" d="M26.49,24.08v-.43a15.52,15.52,0,0,0,.88-1.53c1.05-.76,2.22-.46,3.36-.37.45,0,.66.4.81.79-.22.32-.46.15-.69,0-1.52-.14-2.82.16-3.48,1.74l-.88.44C26.2,24.52,26.3,24.3,26.49,24.08Z"/><path class="cls-88" d="M26.49,24.08v.66a1,1,0,0,1-.87.44A1.07,1.07,0,0,1,26.49,24.08Z"/><path class="cls-95" d="M27.37,25.19h.87c.48.29.27.59,0,.89h0l-.88,0Z"/><path class="cls-89" d="M28.26,26.07c0-.3,0-.59,0-.89h0c.36-.58,1.19-.48,1.58-1.11.19-.31.59,0,.82.23h.21c0,.29,0,.58,0,.87C29.91,25.21,29.33,26.34,28.26,26.07Z"/><path class="cls-123" d="M21.25,50.55l-.84-.06c0-.59-.25-.91-.87-.88,0-.62-.27-.9-.88-.87v-.83l1.7,0a.86.86,0,0,0,.88.89Z"/><path class="cls-81" d="M39.6,38.29a5,5,0,0,1-2.84,2.62A6,6,0,0,1,39.6,38.29Z"/><path class="cls-81" d="M36.76,40.91l-1.53,1.75c-.23.2-.46.45-.8.17l-.07-.17A4.84,4.84,0,0,1,36.76,40.91Z"/><path class="cls-81" d="M34.36,43.53h-.87a1.07,1.07,0,0,1,.87-.88h0a.51.51,0,0,1,0,.86Z"/><path class="cls-119" d="M34.36,43.53c0-.28,0-.57,0-.86h.86l-.43.87Z"/><path class="cls-122" d="M30.85,22.56l.69,0c.44,0,.87,0,1.31,0,1.33,0,1.44-.13,1.52-1.52l.86-.23c0,1.39-.48,2.28-1.38,2.55A2.71,2.71,0,0,1,30.85,22.56Z"/><path class="cls-95" d="M30.65,24.3c-.79.32-1.41,1.1-2.4.88.1-1,1-1.21,1.64-1.56C30.35,23.38,30.54,23.89,30.65,24.3Z"/><path class="cls-88" d="M27.37,22.12a1.34,1.34,0,0,1-.88,1.53A1.75,1.75,0,0,1,27.37,22.12Z"/></g></g></svg>