<svg xmlns="http://www.w3.org/2000/svg" viewBox="0 0 74 74"><defs><style>.cls-1{fill:#1e2223;}.cls-2{fill:#767877;}.cls-3{fill:#2b3032;}.cls-4{fill:#888c8e;}.cls-5{fill:#868b8d;}.cls-6{fill:#4d5256;}.cls-7{fill:#464d52;}.cls-8{fill:#364045;}.cls-9{fill:#293338;}.cls-10{fill:#4e565a;}.cls-11{fill:#464c4f;}.cls-12{fill:#696f71;}.cls-13{fill:#474e51;}.cls-14{fill:#333d41;}.cls-15{fill:#939596;}.cls-16{fill:#24282b;}.cls-17{fill:#34424c;}.cls-18{fill:#85898b;}.cls-19{fill:#626d75;}.cls-20{fill:#a4a7a9;}.cls-21{fill:#47545d;}.cls-22{fill:#33393e;}.cls-23{fill:#3f494f;}.cls-24{fill:#59646a;}.cls-25{fill:#304049;}.cls-26{fill:#687074;}.cls-27{fill:#3a454d;}.cls-28{fill:#333f47;}.cls-29{fill:#4f575c;}.cls-30{fill:#303b43;}.cls-31{fill:#3f4b54;}.cls-32{fill:#656d71;}.cls-33{fill:#747a7e;}.cls-34{fill:#5b6367;}.cls-35{fill:#3c464c;}.cls-36{fill:#4f575b;}.cls-37{fill:#3f474c;}.cls-38{fill:#656c6f;}.cls-39{fill:#757b7d;}.cls-40{fill:#384248;}.cls-41{fill:#52595c;}.cls-42{fill:#5a5f62;}.cls-43{fill:#52595d;}.cls-44{fill:#61686b;}.cls-45{fill:#555b5f;}.cls-46{fill:#949698;}.cls-47{fill:#3c474e;}.cls-48{fill:#47535a;}.cls-49{fill:#3e4950;}.cls-50{fill:#4f595f;}.cls-51{fill:#37424a;}.cls-52{fill:#3e4a52;}.cls-53{fill:#232f36;}.cls-54{fill:#313c43;}.cls-55{fill:#565d61;}.cls-56{fill:#364046;}.cls-57{fill:#5f666b;}.cls-58{fill:#373f45;}.cls-59{fill:#30383e;}.cls-60{fill:#353f44;}.cls-61{fill:#686869;}.cls-62{fill:#909394;}.cls-63{fill:#243132;}.cls-64{fill:#808688;}.cls-65{fill:#4d5e66;}.cls-66{fill:#495962;}.cls-67{fill:#9fa5a8;}.cls-68{fill:#5e696f;}.cls-69{fill:#636c71;}.cls-70{fill:#3d4f5a;}.cls-71{fill:#54636b;}.cls-72{fill:#495860;}.cls-73{fill:#5a666d;}.cls-74{fill:#505d64;}.cls-75{fill:#152530;}.cls-76{fill:#899194;}.cls-77{fill:#616c73;}.cls-78{fill:#454e55;}.cls-79{fill:#435059;}.cls-80{fill:#58646c;}.cls-81{fill:#5f666a;}.cls-82{fill:#273741;}.cls-83{fill:#4a555c;}.cls-84{fill:#515c63;}.cls-85{fill:#606b70;}.cls-86{fill:#32434c;}.cls-87{fill:#798084;}.cls-88{fill:#556065;}.cls-89{fill:#3f4c55;}.cls-90{fill:#3b4851;}.cls-91{fill:#38434c;}.cls-92{fill:#626a70;}.cls-93{fill:#1f2122;}.cls-94{fill:#2f4138;}.cls-95{fill:#545c55;}.cls-96{fill:#848982;}.cls-97{fill:#afb3b4;}.cls-98{fill:#90999d;}.cls-99{fill:#35424b;}.cls-100{fill:#536066;}.cls-101{fill:#415059;}.cls-102{fill:#6e797e;}.cls-103{fill:#424d54;}.cls-104{fill:#5c676c;}.cls-105{fill:#545e63;}.cls-106{fill:#727d83;}.cls-107{fill:#3d4b55;}.cls-108{fill:#8d969b;}.cls-109{fill:#6b757b;}.cls-110{fill:#203a46;}.cls-111{fill:#959b9e;}.cls-112{fill:#80868b;}.cls-113{fill:#3a4a55;}.cls-114{fill:#313e46;}.cls-115{fill:#4b5861;}.cls-116{fill:#63696c;}.cls-117{fill:#2c3439;}.cls-118{fill:#616669;}.cls-119{fill:#e1e1e1;}.cls-120{fill:#3e3f3f;}.cls-121{fill:#aaabab;}.cls-122{fill:#555959;}.cls-123{fill:#cdd2d2;}.cls-124{fill:#a3a5a5;}.cls-125{fill:#b8b9bb;}.cls-126{fill:#999d9e;}.cls-127{fill:#c8c9c9;}.cls-128{fill:#abacad;}.cls-129{fill:#666a6b;}.cls-130{fill:#7b7f7f;}.cls-131{fill:#73787b;}.cls-132{fill:#707070;}.cls-133{fill:#5c5c5d;}.cls-134{fill:#b9b9b9;}.cls-135{fill:#3d3e3d;}.cls-136{fill:#4d4e4d;}.cls-137{fill:#6c726b;}.cls-138{fill:#8e8e8d;}.cls-139{fill:#616960;}.cls-140{fill:#9ea2a5;}.cls-141{fill:#bec1c3;}.cls-142{fill:#c1c3c4;}.cls-143{fill:#9ca1a4;}.cls-144{fill:#878c8f;}.cls-145{fill:gray;}.cls-146{fill:#a9aaaa;}.cls-147{fill:#9e9e9e;}.cls-148{fill:#dfdfdf;}.cls-149{fill:#c0c2c3;}.cls-150{fill:#bebfc0;}.cls-151{fill:#808488;}.cls-152{fill:#a7a9aa;}.cls-153{fill:#a0a4a6;}.cls-154{fill:#71777a;}.cls-155{fill:#63696d;}.cls-156{fill:#bfc0c1;}.cls-157{fill:#96989a;}.cls-158{fill:#9a9c9e;}.cls-159{fill:#c3c5c5;}.cls-160{fill:#808486;}.cls-161{fill:#b6b8b9;}.cls-162{fill:#bdbfc0;}.cls-163{fill:#bfc0c0;}.cls-164{fill:#9ca0a1;}.cls-165{fill:#babbbc;}.cls-166{fill:#7a7a7a;}.cls-167{fill:#b0b1b1;}.cls-168{fill:#72777a;}.cls-169{fill:#d5d5d5;}.cls-170{fill:#abadae;}.cls-171{fill:#797e81;}.cls-172{fill:#b1b1b2;}.cls-173{fill:#93989b;}.cls-174{fill:#898e91;}.cls-175{fill:#a4a7a8;}.cls-176{fill:#575d60;}.cls-177{fill:#cecfcf;}.cls-178{fill:#787c7f;}.cls-179{fill:#686e72;}.cls-180{fill:#7b7f81;}.cls-181{fill:#c4c5c6;}.cls-182{fill:#838587;}.cls-183{fill:#989c9e;}.cls-184{fill:#3c3b3a;}.cls-185{fill:#828282;}.cls-186{fill:#737373;}.cls-187{fill:#777;}.cls-188{fill:#9fa1a3;}.cls-189{fill:#9e9e9f;}.cls-190{fill:#686868;}.cls-191{fill:#a8abac;}.cls-192{fill:#797979;}.cls-193{fill:#b6b7b8;}.cls-194{fill:#49584e;}.cls-195{fill:#344639;}.cls-196{fill:#6b767c;}.cls-197{fill:#797f81;}.cls-198{fill:#b8b9b9;}.cls-199{fill:#1e2022;}.cls-200{fill:#7e858b;}.cls-201{fill:#e4e4e4;}.cls-202{fill:#cdcecf;}.cls-203{fill:#bec0c1;}.cls-204{fill:#c9cacb;}.cls-205{fill:#7f8487;}.cls-206{fill:#acaeaf;}.cls-207{fill:#c2c3c3;}.cls-208{fill:#999b9c;}.cls-209{fill:#94999c;}.cls-210{fill:#9ca0a2;}.cls-211{fill:#c6c7c8;}.cls-212{fill:#a7abad;}.cls-213{fill:#a9abad;}.cls-214{fill:#43565e;}.cls-215{fill:#202b30;}.cls-216{fill:#6b7980;}.cls-217{fill:#747d82;}.cls-218{fill:#536166;}.cls-219{fill:#5f696d;}.cls-220{fill:#3d4d55;}.cls-221{fill:#5c686e;}.cls-222{fill:#53626a;}.cls-223{fill:#43525b;}.cls-224{fill:#4b575f;}.cls-225{fill:#58646b;}.cls-226{fill:#27382b;}.cls-227{fill:#39423b;}.cls-228{fill:#697267;}.cls-229{fill:#465444;}.cls-230{fill:#697866;}.cls-231{fill:#5a625b;}.cls-232{fill:#bbc6ba;}.cls-233{fill:#d7ddd5;}.cls-234{fill:#cacaca;}.cls-235{fill:#b7b9ba;}.cls-236{fill:#878d91;}.cls-237{fill:#babcbd;}.cls-238{fill:#999ea1;}.cls-239{fill:#757d81;}.cls-240{fill:#a9adaf;}.cls-241{fill:#cccdce;}.cls-242{fill:#bcbebf;}.cls-243{fill:#8e9497;}.cls-244{fill:#b5b7b7;}.cls-245{fill:#8d9293;}.cls-246{fill:#b1b2b3;}.cls-247{fill:#7e827f;}.cls-248{fill:#adadad;}.cls-249{fill:#c9c9c9;}.cls-250{fill:#b7b7b7;}.cls-251{fill:#c5c5c5;}.cls-252{fill:#bdbdbd;}.cls-253{fill:#bbb;}.cls-254{fill:#c6c6c6;}.cls-255{fill:#cdcdcd;}.cls-256{fill:#afafae;}.cls-257{fill:#596361;}.cls-258{fill:#7e7f7f;}.cls-259{fill:#4d5755;}.cls-260{fill:#819192;}.cls-261{fill:#585d5c;}.cls-262{fill:#e3e3e3;}.cls-263{fill:#b8b8b9;}.cls-264{fill:#cccccd;}.cls-265{fill:#7f7f7f;}.cls-266{fill:#2a322c;}.cls-267{fill:#eeefef;}.cls-268{fill:#566f53;}.cls-269{fill:#d6dada;}.cls-270{fill:#c2c8c9;}.cls-271{fill:#acb6b6;}.cls-272{fill:#70866c;}.cls-273{fill:#5e675c;}.cls-274{fill:#8e8e8e;}.cls-275{fill:#6d736c;}.cls-276{fill:#363836;}.cls-277{fill:#1a1b1a;}.cls-278{fill:#fdfdfd;}.cls-279{fill:#99aa96;}.cls-280{fill:#c1cebe;}.cls-281{fill:#6c746a;}.cls-282{fill:#b8b8b8;}.cls-283{fill:#29392d;}.cls-284{fill:#a2a2a2;}.cls-285{fill:#2f302e;}.cls-286{fill:#929292;}.cls-287{fill:#cad3c8;}.cls-288{fill:#5d605d;}.cls-289{fill:#adb7aa;}.cls-290{fill:#899187;}.cls-291{fill:#abb5a9;}.cls-292{fill:#9f9f9f;}.cls-293{fill:#c1c1c1;}.cls-294{fill:#a4a4a4;}.cls-295{fill:#c8c8c8;}.cls-296{fill:#b3b3b3;}.cls-297{fill:#979797;}.cls-298{fill:#a3a3a3;}.cls-299{fill:#494747;}.cls-300{fill:#989898;}.cls-301{fill:#bfbfbf;}.cls-302{fill:#a4a6a8;}.cls-303{fill:#212823;}.cls-304{fill:#b6b6b6;}.cls-305{fill:#9b9b9b;}.cls-306{fill:#1a1a1a;}.cls-307{fill:#27221d;}.cls-308{fill:#a0a0a0;}.cls-309{fill:#dadada;}.cls-310{fill:#474545;}.cls-311{fill:#8d8d8d;}.cls-312{fill:#515f5f;}.cls-313{fill:#57655b;}.cls-314{fill:#283029;}.cls-315{fill:#4a2f10;}.cls-316{fill:#464e4f;}.cls-317{fill:#747474;}.cls-318{fill:#979798;}.cls-319{fill:#8f8f8f;}.cls-320{fill:#36453a;}.cls-321{fill:#313832;}.cls-322{fill:#424c4b;}.cls-323{fill:#cbcbcb;}.cls-324{fill:#b1b1b1;}.cls-325{fill:#cacbcb;}.cls-326{fill:#b5b5b5;}.cls-327{fill:#8a8a8a;}.cls-328{fill:#bcbcbd;}.cls-329{fill:#7f8589;}.cls-330{fill:#8d8e8e;}.cls-331{fill:#a0a2a3;}.cls-332{fill:#bfc1c2;}.cls-333{fill:#9ea3a5;}.cls-334{fill:#7d8385;}.cls-335{fill:#b3b4b4;}.cls-336{fill:#919394;}.cls-337{fill:#929597;}.cls-338{fill:#aeafb0;}.cls-339{fill:#3e573e;}.cls-340{fill:#445348;}.cls-341{fill:#364939;}.cls-342{fill:#8a9c88;}.cls-343{fill:#5b7359;}.cls-344{fill:#ebeee9;}.cls-345{fill:#a3ada1;}.cls-346{fill:#a0aa9e;}.cls-347{fill:#6b6c6b;}.cls-348{fill:#ced3d2;}.cls-349{fill:#abb5af;}.cls-350{fill:#899a9b;}.cls-351{fill:#6a7c7c;}.cls-352{fill:#a1aeae;}.cls-353{fill:#3a3d3d;}.cls-354{fill:#d0d0d0;}.cls-355{fill:#385039;}.cls-356{fill:#273b2d;}.cls-357{fill:#3e5043;}.cls-358{fill:#708384;}.cls-359{fill:#4f5e53;}.cls-360{fill:#96a5a5;}.cls-361{fill:#819494;}.cls-362{fill:#434b46;}.cls-363{fill:#a9b6ab;}.cls-364{fill:#899786;}.cls-365{fill:#ccd5cd;}.cls-366{fill:#a7b4a5;}.cls-367{fill:#4c634a;}.cls-368{fill:#687d65;}.cls-369{fill:#849681;}.cls-370{fill:#92a095;}.cls-371{fill:#7f8e88;}.cls-372{fill:#e3e8e2;}.cls-373{fill:#3d563d;}.cls-374{fill:#495a4c;}.cls-375{fill:#637c5f;}.cls-376{fill:#4d684b;}.cls-377{fill:#e2e4e4;}.cls-378{fill:#ccd0d1;}.cls-379{fill:#b7bfc0;}.cls-380{fill:#898989;}.cls-381{fill:#a4afaf;}.cls-382{fill:#909f9f;}.cls-383{fill:#85714f;}.cls-384{fill:#674b1d;}.cls-385{fill:#6a6a6a;}.cls-386{fill:#4b5049;}.cls-387{fill:#787e76;}.cls-388{fill:#9a9a9a;}.cls-389{fill:#616b5f;}.cls-390{fill:#3b4e3d;}.cls-391{fill:#2f3e33;}.cls-392{fill:#5a655d;}.cls-393{fill:#313f35;}.cls-394{fill:#5b6f58;}.cls-395{fill:#c7c7c7;}.cls-396{fill:#bebebe;}.cls-397{fill:#a9a9a8;}.cls-398{fill:#6a7168;}.cls-399{fill:#525251;}.cls-400{fill:#b1beae;}.cls-401{fill:#96a393;}.cls-402{fill:#7d847c;}.cls-403{fill:#aeaeae;}.cls-404{fill:#a9a9a9;}.cls-405{fill:#a8a8a8;}.cls-406{fill:#aaa;}.cls-407{fill:#6e6d6d;}.cls-408{fill:#414642;}.cls-409{fill:#49584d;}.cls-410{fill:#2e4033;}.cls-411{fill:#36473b;}.cls-412{fill:#58665c;}.cls-413{fill:#6e8283;}.cls-414{fill:#7c8f8f;}.cls-415{fill:#888;}.cls-416{fill:#667467;}.cls-417{fill:#896228;}.cls-418{fill:#91620f;}.cls-419{fill:#7d8a7b;}.cls-420{fill:#754c0e;}.cls-421{fill:#7f5219;}.cls-422{fill:#7d5f37;}.cls-423{fill:#a7813d;}.cls-424{fill:#b5b5b3;}.cls-425{fill:#a99167;}.cls-426{fill:#a07937;}.cls-427{fill:#c8c8c7;}.cls-428{fill:#b9975f;}.cls-429{fill:#936729;}.cls-430{fill:#7a8181;}.cls-431{fill:#646e6e;}.cls-432{fill:#919494;}.cls-433{fill:#a68356;}.cls-434{fill:#af8242;}.cls-435{fill:#c9af82;}.cls-436{fill:#e1cca8;}.cls-437{fill:#d2c2a5;}.cls-438{fill:#d8d8d8;}.cls-439{fill:#878787;}.cls-440{fill:#5f6c63;}.cls-441{fill:#6a776e;}.cls-442{fill:#4e4e4d;}.cls-443{fill:#242a25;}.cls-444{fill:#4d5c52;}.cls-445{fill:#676666;}.cls-446{fill:#5e5f5e;}.cls-447{fill:#5a6d68;}.cls-448{fill:#a5a5a5;}.cls-449{fill:#9d9d9d;}.cls-450{fill:#949494;}.cls-451{fill:#757575;}.cls-452{fill:#506152;}.cls-453{fill:#272827;}.cls-454{fill:#838383;}.cls-455{fill:#bdbfbe;}.cls-456{fill:#323232;}.cls-457{fill:#4c4d4c;}.cls-458{fill:#666d6d;}.cls-459{fill:#505858;}.cls-460{fill:#6e7272;}.cls-461{fill:#9c9c9c;}.cls-462{fill:#3d4f43;}.cls-463{fill:#61736e;}.cls-464{fill:#899a87;}.cls-465{fill:#51554f;}.cls-466{fill:#8a9588;}.cls-467{fill:#848484;}.cls-468{fill:#f7f8f8;}.cls-469{fill:#eec680;}.cls-470{fill:#7e7e7e;}.cls-471{fill:#5d5c5c;}.cls-472{fill:#cb9641;}.cls-473{fill:#e1b05f;}.cls-474{fill:#a56a13;}.cls-475{fill:#fefdfc;}.cls-476{fill:#a4a9aa;}.cls-477{fill:#858f8f;}</style></defs><title>smoke</title><g id="레이어_2" data-name="레이어 2"><g id="레이어_1-2" data-name="레이어 1"><rect class="cls-1" width="74" height="74" rx="8.33" ry="8.33"/><path class="cls-2" d="M35.11,6.48H36a.94.94,0,0,1,.42.82,5.14,5.14,0,0,1,0,1,8.36,8.36,0,0,1,0,1,1.31,1.31,0,0,1-.34,1,1.73,1.73,0,0,1-1.88,0A.92.92,0,0,1,34,9.27a2.26,2.26,0,0,0,.78-2A.87.87,0,0,1,35.11,6.48Z"/><path class="cls-3" d="M36.07,8.19V7.35a10.17,10.17,0,0,1,.84-.9c.68-.08,1,.23.92.9a.71.71,0,0,1,0,1A1.17,1.17,0,0,1,36.07,8.19Z"/><path class="cls-4" d="M35.11,6.48v.88a1.12,1.12,0,0,1-.93.37c-.62,0-1.26.19-1.8-.29a.69.69,0,0,1,.07-1Z"/><path class="cls-5" d="M28.85,7.36l1.78-.09.15.15a.8.8,0,0,1-.12,1,1.52,1.52,0,0,1-1.86-.08A.7.7,0,0,1,28.85,7.36Z"/><path class="cls-6" d="M37.82,8.22V7.35H39.6a.74.74,0,0,1,.12,1,1.35,1.35,0,0,1-1.79.08Z"/><path class="cls-7" d="M42.3,9.14l0,.87a.65.65,0,0,1-.87.19.7.7,0,0,1-.27-.87.59.59,0,0,1,.27-.27Z"/><path class="cls-8" d="M40.54,8.18c.58,0,1,.23.91.88a.54.54,0,0,0-.05.11.7.7,0,0,1-.87.11.69.69,0,0,1-.24-.84A.57.57,0,0,1,40.54,8.18Z"/><path class="cls-9" d="M39.64,8.21c0-.29,0-.57,0-.86.63-.08,1,.18.94.83l0,.09A.57.57,0,0,1,39.64,8.21Z"/><path class="cls-10" d="M28.85,7.36l0,.88s0,.08-.07.13a.6.6,0,0,1-.71.06.47.47,0,0,1-.16-.25l.05-.83Z"/><path class="cls-11" d="M36.9,6.45c.09.64-.21.93-.84.9,0-.29,0-.58-.07-.88Z"/><path class="cls-12" d="M32.44,6.47l0,.85-.13.15a.67.67,0,0,1-.89-.12.68.68,0,0,1,.14-.89Z"/><path class="cls-13" d="M31.54,6.46l0,.84a.59.59,0,0,1-.88.09.24.24,0,0,1,0-.12C30.54,6.56,30.9,6.35,31.54,6.46Z"/><path class="cls-14" d="M49.48,11l.48,0,.45,0,0,.84a.53.53,0,0,1-.24.27A.66.66,0,0,1,49.48,11Z"/><path class="cls-15" d="M26.12,29.85l-1.76-.08c-.35-.24-.61-.59-.94-.85h0a1,1,0,0,1-.36-.92,1.14,1.14,0,0,1,.25-1c.21-.18.54-.34.71-.2.93.81,2.23.54,3.23,1.14a1.73,1.73,0,0,1-.09,1.9A.8.8,0,0,1,26.12,29.85Z"/><path class="cls-16" d="M27,36.1c-.11-1.8.33-3.64-.45-5.37.41-.55.89-.48,1.41-.2a1.11,1.11,0,0,1,.36,1,16.63,16.63,0,0,1,0,1.87c0,.89,0,1.78,0,2.68a1.25,1.25,0,0,1-.32,1,.79.79,0,0,1-1,0A.69.69,0,0,1,27,36.1Z"/><path class="cls-17" d="M14,37c.19-.69.7-.87,1.35-.87,1.48,0,3,0,4.43,0a.46.46,0,0,1,.29.24.74.74,0,0,1-.2.88,1.36,1.36,0,0,1-.94.23,17,17,0,0,1-1.75,0c-.59,0-1.17,0-1.76,0a2.67,2.67,0,0,1-1-.12A.56.56,0,0,1,14,37Z"/><path class="cls-18" d="M20.76,27.08l-.06-2.63a.91.91,0,0,1-.21-.9,3.29,3.29,0,0,1,1.22-1.21,1,1,0,0,1,1,.19,2.28,2.28,0,0,1,.16,2,1.61,1.61,0,0,0-.79,1.68,1,1,0,0,1-.41,1A.71.71,0,0,1,20.76,27.08Z"/><path class="cls-19" d="M20.76,35.23l3.57,0a.74.74,0,0,1,.09,1c-.8.65-1.71.4-2.59.35a2.33,2.33,0,0,1-1-.16.65.65,0,0,1-.09-1.14Z"/><path class="cls-20" d="M12.68,37.93l.84-.06a.67.67,0,0,1,1.18.25c-.2,1.2-.8,1.43-2.08.8A.69.69,0,0,1,12.68,37.93Z"/><path class="cls-21" d="M24.35,36.07l0-.86c.7.11,1.72-.46,1.85.86l-.08.16a.91.91,0,0,1-.83.24,1,1,0,0,1-.84-.23A1.3,1.3,0,0,1,24.35,36.07Z"/><path class="cls-22" d="M27.9,30.71H26.58c-.45-.13-.45-.5-.46-.87l.88-.08a.76.76,0,0,1,1,0A.66.66,0,0,1,27.9,30.71Z"/><path class="cls-23" d="M27,36.1l0,.84a.44.44,0,0,1-.17.27.75.75,0,0,1-.8,0,.58.58,0,0,1-.21-.26.71.71,0,0,1,.2-.79l.09-.06Z"/><path class="cls-24" d="M12.68,37.93l0,.87-.1.14a.71.71,0,0,1-.83,0,.67.67,0,0,1-.22-.28.7.7,0,0,1,.26-.79Z"/><path class="cls-25" d="M11.77,37.91l-.06.84c-.26.33-.54.29-.84.07l0-.7A1.23,1.23,0,0,1,11.77,37.91Z"/><path class="cls-26" d="M14.41,37.85l-.89,0c.06-.35-.11-.82.46-.91l.49.07A.52.52,0,0,1,14.41,37.85Z"/><path class="cls-27" d="M22.56,28.89c-.67.1-1-.22-1-.85,0-.05,0-.1.08-.16a.74.74,0,0,1,.84-.08.62.62,0,0,1,.24.27A.72.72,0,0,1,22.56,28.89Z"/><path class="cls-28" d="M20.76,27.08l.87,0,.14.1a.6.6,0,0,1-.1.77L21.6,28C21,28,20.67,27.73,20.76,27.08Z"/><path class="cls-29" d="M20.71,23.54v.91c-.69.08-.89-.34-.93-.92A.49.49,0,0,1,20,23.3.54.54,0,0,1,20.71,23.54Z"/><path class="cls-30" d="M18.92,23.29v-.63L19,22.5a.67.67,0,0,1,.9.09.69.69,0,0,1-.07.91l-.1,0A1.18,1.18,0,0,1,18.92,23.29Z"/><path class="cls-31" d="M20.76,35.23l0,.82c-.26.34-.56.3-.87.07l-.1-.06C19.82,35.45,20.08,35.08,20.76,35.23Z"/><path class="cls-32" d="M23.42,28.92c.66-.09,1,.18.94.85C23.65,29.92,23.35,29.63,23.42,28.92Z"/><path class="cls-33" d="M22.56,28.89l0-.88a.63.63,0,0,1,.9,0v.92Z"/><path class="cls-34" d="M18.06,20.8V18.14a.71.71,0,0,1,1-.05,2.76,2.76,0,0,1,0,2.75A.71.71,0,0,1,18.06,20.8Z"/><path class="cls-35" d="M18.06,20.8l.86,0,.16.08a1,1,0,0,1,.22.86.85.85,0,0,1-.33.8l0,.09C17.58,22.53,18.16,21.51,18.06,20.8Z"/><path class="cls-36" d="M22.5,12.65c.07-1.36,1.17-.62,1.78-.86a.51.51,0,0,1,.28.24.81.81,0,0,1-.17.9,1.48,1.48,0,0,1-1.67,0A.6.6,0,0,1,22.5,12.65Z"/><path class="cls-37" d="M18.88,17.17c.25-.61-.44-1.69.89-1.76a.51.51,0,0,1,.3.17,1.58,1.58,0,0,1,.07,1.52.86.86,0,0,1-.21.29.81.81,0,0,1-.85.06A.52.52,0,0,1,18.88,17.17Z"/><path class="cls-38" d="M19.77,15.41c0-.63.24-1,.92-.91l.16.08a.69.69,0,0,1,.1.82.75.75,0,0,1-.26.24.68.68,0,0,1-.8-.2Z"/><path class="cls-39" d="M20.69,14.5c-.05-.66.25-1,.92-.93l.15.09a.73.73,0,0,1,.1.83.69.69,0,0,1-.26.25.68.68,0,0,1-.81-.19Z"/><path class="cls-40" d="M18.94,18.12l-.87,0c-.11-.64.16-1,.81-1l.09.07a.6.6,0,0,1,.11.77Z"/><path class="cls-41" d="M25.19,10.88c0-.6.22-1,.87-.9a.4.4,0,0,1,.27.14.75.75,0,0,1,0,.78.83.83,0,0,1-.22.24.75.75,0,0,1-.78,0A.44.44,0,0,1,25.19,10.88Z"/><path class="cls-42" d="M26.06,10c0-.63.27-1,.92-.91a.5.5,0,0,1,.27.18.76.76,0,0,1,0,.81.71.71,0,0,1-.27.21.72.72,0,0,1-.79-.21Z"/><path class="cls-43" d="M27,9.07c-.05-.67.32-.89.91-.89l.07.09a.69.69,0,0,1,.18.82.75.75,0,0,1-.25.25.71.71,0,0,1-.83-.18Z"/><path class="cls-44" d="M21.61,13.57c-.07-.66.25-.94.89-.92a.75.75,0,0,1,.07.12.67.67,0,0,1,0,.93.7.7,0,0,1-.95,0Z"/><path class="cls-45" d="M24.28,11.79c0-.63.28-.94.91-.91l.08.08a.71.71,0,0,1,.17.82.6.6,0,0,1-.25.25.69.69,0,0,1-.82-.17Z"/><path class="cls-46" d="M54,29.78c-.67-.07-1,.21-.89.89a.69.69,0,0,1-.76.3.73.73,0,0,1-.3-.16c-.13-.55-.85-.58-1-1.12,0-1.52,1.93-3.09,3.13-2.63a1.41,1.41,0,0,1,.27,1C54.42,28.66,54.63,29.33,54,29.78Z"/><path class="cls-47" d="M58.48,19.94c0,.89,0,1.78.05,2.67-.21.66.42,1.72-.9,1.84l-.18-.09a1.23,1.23,0,0,1-.28-.94,9.51,9.51,0,0,1,0-2.61,1.21,1.21,0,0,1,.33-1A.7.7,0,0,1,58.48,19.94Z"/><path class="cls-48" d="M55.84,26.27c-.17.66.37,1.68-.9,1.8L54.77,28a1,1,0,0,1-.25-.89,1.15,1.15,0,0,1,.19-.93.76.76,0,0,1,.88-.17A.49.49,0,0,1,55.84,26.27Z"/><path class="cls-49" d="M54,29.78l.08-1.72a.54.54,0,0,1,.83-.09l.06.1C54.75,28.71,55.38,29.82,54,29.78Z"/><path class="cls-50" d="M56.75,25.33a.81.81,0,0,1-.91.94l-.07-.09a.72.72,0,0,1-.22-.76.67.67,0,0,1,.19-.28.73.73,0,0,1,.8-.06A.47.47,0,0,1,56.75,25.33Z"/><path class="cls-51" d="M57.63,24.45c0,.6-.26.91-.88.88l-.09,0a.73.73,0,0,1-.18-.82.63.63,0,0,1,.25-.26.7.7,0,0,1,.83.16Z"/><path class="cls-52" d="M52.2,30.75l.88-.08c.12.71-.24,1-.88,1v-.1A.51.51,0,0,1,52.2,30.75Z"/><path class="cls-53" d="M58.48,19.94l-.89,0-.14-.05c-.2-.39-.64-.5-.93-.78a.75.75,0,0,1,0-.79.5.5,0,0,1,.27-.18C58.52,18.12,58.52,18.12,58.48,19.94Z"/><path class="cls-54" d="M53.14,15.38c.64.21,1.7-.42,1.8.89l-.08.17a1,1,0,0,1-.88.26,1.11,1.11,0,0,1-.92-.18.78.78,0,0,1-.19-.89A.55.55,0,0,1,53.14,15.38Z"/><path class="cls-55" d="M52.19,13.64l.07.88-.13.15a.71.71,0,0,1-.94-.13.76.76,0,0,1,.05-1A.68.68,0,0,1,52.19,13.64Z"/><path class="cls-56" d="M52.19,13.64l-.88,0-.13-.07a.59.59,0,0,1-.07-.72.38.38,0,0,1,.25-.15C52,12.68,52.29,13,52.19,13.64Z"/><path class="cls-57" d="M55.81,17.15c.68,0,1,.33.95,1l-.06,0h-.05a.67.67,0,0,1-.75.23.67.67,0,0,1-.28-.19.79.79,0,0,1-.06-.81A.64.64,0,0,1,55.81,17.15Z"/><path class="cls-58" d="M54.94,16.27c.57,0,.94.23.87.88a.52.52,0,0,0,0,.11.74.74,0,0,1-.83.18.63.63,0,0,1-.26-.25.7.7,0,0,1,.17-.83Z"/><path class="cls-59" d="M52.26,14.52c.64-.06.87.28.88.86l-.06.07a.67.67,0,0,1-.94,0,.71.71,0,0,1,0-1Z"/><path class="cls-60" d="M50.45,11.77a.81.81,0,0,1,.91.91l-.08.07a.64.64,0,1,1-.9-.9Z"/><path class="cls-61" d="M46.83,63l-.89,0L45.76,63a2.74,2.74,0,0,1,.79-3.61,1.42,1.42,0,0,1,1.56,0c1.3.7,1.3.69,2-.68a1,1,0,0,1,.3-.32c1-.29,2-.53,2.86.42a.8.8,0,0,0,.61.19c1.25,0,1.42.24,1.45,1.52a1,1,0,0,1-1.18,1.22c-.35,0-.7,0-1,0-1.14,0-2.27,0-3.4,0-.29,0-.58,0-.88,0-.53.19-1.4-.45-1.58.64A.86.86,0,0,1,46.83,63Z"/><path class="cls-62" d="M63.93,59.5c-.09.35.12.85-.52.9s-.35.53-.44.84a.69.69,0,0,1-.75.3.73.73,0,0,1-.3-.16c-.13-.54-.81-.57-1-1.07a1.14,1.14,0,0,1,0-.85,7.42,7.42,0,0,1,1-1.13c.55-.17.56-.6.57-1.07s-.16-1.13.37-1.55c.82-.31,1.35,0,1.39.83,0,.53.37.77.65,1.09a.77.77,0,0,1-.19.93h0C64.52,58.89,64.16,59.14,63.93,59.5Z"/><path class="cls-62" d="M53.12,61.28H54c.27.45,1,.4,1.13,1a.72.72,0,0,1-.27.8l-.85.05c-.34.25-.59.61-.94.85H52.2a1.12,1.12,0,0,0-1.79,0h-.9c-1.19-1.11-1.19-1.41,0-2.1a9.58,9.58,0,0,1,2.45-.11A1.38,1.38,0,0,0,53.12,61.28Z"/><path class="cls-63" d="M45.91,66.66H45c-.58-.27-.49-.8-.45-1.27a1.53,1.53,0,0,0-.73-1.61A1.56,1.56,0,0,1,43.7,63a2.37,2.37,0,0,1,.24-1.77c1-.41,1.38-.24,1.5.75a1.29,1.29,0,0,0,.5,1h0Z"/><path class="cls-64" d="M49.51,62.16c-.41.29-.85.55-.18,1.06.15.12.13.47.18.72h-.87c-.36-.24-.6-.6-1-.84L46.83,63v-.86c.4-.68,1.36-.19,1.76-.85l.92,0A.61.61,0,0,1,49.51,62.16Z"/><path class="cls-65" d="M64.77,58.56l0-.91A2.48,2.48,0,0,1,64.63,55a.76.76,0,0,1,1-.11.42.42,0,0,1,.09.58v.67c0,.52,0,1,0,1.55S65.46,58.64,64.77,58.56Z"/><path class="cls-66" d="M60.31,62.23c0,1.12-.82.82-1.42.83s-1.35.19-1.3-.83a1.54,1.54,0,0,1,.08-.19,2.62,2.62,0,0,1,2.42-.13A.64.64,0,0,1,60.31,62.23Z"/><path class="cls-67" d="M50.41,64c0-.6.2-.89.82-.89s1,.17,1,.87Z"/><path class="cls-68" d="M62.07,62.15l-1.76.08,0-.1a.7.7,0,0,1,0-1,1.31,1.31,0,0,1,1.82.1v.1A.53.53,0,0,1,62.07,62.15Z"/><path class="cls-69" d="M57.59,62.23H55.84a.57.57,0,0,1-.27-.28.75.75,0,0,1,.27-.91,1.58,1.58,0,0,1,1.8.11.67.67,0,0,1,0,1Z"/><path class="cls-70" d="M62.07,62.15l0-.82.88-.09C63.05,61.92,62.76,62.24,62.07,62.15Z"/><path class="cls-71" d="M54.87,63l0-.86a.57.57,0,0,1,.85-.07l.08.12C55.86,62.92,55.51,63.15,54.87,63Z"/><path class="cls-72" d="M47.69,63.1c.67-.12,1,.16,1,.84C48,64.05,47.66,63.77,47.69,63.1Z"/><path class="cls-73" d="M53.08,63.94c0-.68.26-1,.94-.85C54.06,63.77,53.76,64.06,53.08,63.94Z"/><path class="cls-74" d="M63.93,59.5c-.1-.66.11-1,.84-.94C64.88,59.21,64.6,59.53,63.93,59.5Z"/><path class="cls-75" d="M50.18,32.54c.11.9-.15,1.42-1.19,1.32s-1.31.51-1.51,1.3a.58.58,0,0,1-.81.07,2.93,2.93,0,0,1,0-2.8c.87-.64,1.84-.34,2.78-.29C49.74,32.18,50,32.23,50.18,32.54Z"/><path class="cls-76" d="M63,41.49v1.79a.76.76,0,0,1,.13.91.68.68,0,0,1-.33.25.88.88,0,0,1-1-.25A4.6,4.6,0,0,1,62,40.57a.69.69,0,0,1,1,.06Z"/><path class="cls-77" d="M52.23,35.23h3.56a.71.71,0,0,1,.09,1,1.16,1.16,0,0,1-1,.33,6.6,6.6,0,0,1-1.83,0,1.19,1.19,0,0,1-1-.32A.7.7,0,0,1,52.23,35.23Z"/><path class="cls-78" d="M49.54,36.05h1.72a.51.51,0,0,1,.27.27.79.79,0,0,1-.22.91,1.74,1.74,0,0,1-1.75,0,.74.74,0,0,1-.28-.89A.57.57,0,0,1,49.54,36.05Z"/><path class="cls-79" d="M55.81,36.07c0-.28,0-.57,0-.85.69.11,1.71-.5,1.83.84a1.22,1.22,0,0,1-.07.17,1.58,1.58,0,0,1-1.66,0Z"/><path class="cls-80" d="M46.81,35.21l.67-.05,1.11.07a.72.72,0,0,1,.19.89.74.74,0,0,1-.31.27,1.56,1.56,0,0,1-1.76-.22A.69.69,0,0,1,46.81,35.21Z"/><path class="cls-81" d="M52.2,30.75v.8l-.87.08a.79.79,0,0,1-.84.21.71.71,0,0,1-.29-.25.91.91,0,0,1,0-.94.92.92,0,0,1,.31-.24,1.41,1.41,0,0,1,1.66.24Z"/><path class="cls-82" d="M58.48,36.11a1.32,1.32,0,0,1,1.6.86.7.7,0,0,1-.69.37,1,1,0,0,1-1-.26A.73.73,0,0,1,58.48,36.11Z"/><path class="cls-83" d="M58.48,36.11l0,.83-.11.17a.7.7,0,0,1-.91-.06.68.68,0,0,1,.09-.91l0-.08Z"/><path class="cls-84" d="M63,40.63l-.87,0L62,40.52a.6.6,0,0,1-.05-.72.4.4,0,0,1,.26-.14C62.87,39.62,63.07,40,63,40.63Z"/><path class="cls-85" d="M62.08,38.81c0,.28.06.57.08.85l-.11.06a.7.7,0,0,1-.79.2.67.67,0,0,1-.27-.23.87.87,0,0,1,0-.88.92.92,0,0,1,.28-.24A.72.72,0,0,1,62.08,38.81Z"/><path class="cls-86" d="M62.08,38.81l-.83,0a.55.55,0,0,1-.09-.86C61.84,37.84,62.15,38.13,62.08,38.81Z"/><path class="cls-87" d="M61.16,37.92l.09.86-.1,0a.71.71,0,0,1-.75.23.66.66,0,0,1-.27-.19.75.75,0,0,1-.07-.8.47.47,0,0,1,.25-.21Z"/><path class="cls-88" d="M59.37,37l.71-.05c.26.24.19.57.23.88l0,.1a.69.69,0,0,1-.94,0A.67.67,0,0,1,59.37,37Z"/><path class="cls-89" d="M52.23,35.23l0,.87-.1.13a.59.59,0,0,1-.77-.1l-.07-.08C51.27,35.4,51.58,35.12,52.23,35.23Z"/><path class="cls-90" d="M48.62,36l0-.81c.65-.11.95.18.95.82l-.06.09C49.16,36.37,48.87,36.39,48.62,36Z"/><path class="cls-91" d="M50.46,31.64h.87c0,.66-.3.94-.95.85C50.16,32.18,50.12,31.89,50.46,31.64Z"/><path class="cls-92" d="M50.46,31.64c0,.28-.05.56-.08.84l-.2.06-.69-.08a.64.64,0,0,1,0-.91.66.66,0,0,1,.93,0Z"/><path class="cls-93" d="M44.14,63.76c.68.13.87.61.87,1.23s0,1.12,0,1.68-.32.9-1,.9H30.15c-.36,0-.81,0-1-.4s.26-.44.55-.5c.45-.59,1.09-.42,1.68-.43.33,0,.66,0,1,0s.64,0,1,0c1.28,0,2.55,0,3.82,0a3.06,3.06,0,0,0,2-.49c.73-.55,1.4,0,2,.46.6-.09,1.37.42,1.76-.48a.77.77,0,0,1,.22-.22c.45-.11.51-.45.5-.85S43.7,63.9,44.14,63.76Z"/><path class="cls-94" d="M27.93,64.19v-2a2.44,2.44,0,0,1-.14-2.78.92.92,0,0,1,1.09,0c.64.65.34,1.47.39,2.23a11.53,11.53,0,0,1,0,1.44c0,.45,0,.92-.45,1.17Z"/><path class="cls-95" d="M28.81,64.2l.05-1.15a.75.75,0,0,1,1-.11c.58.56.33,1.25.29,1.9a2,2,0,0,1-.15.73.57.57,0,0,1-.3.21C28.41,65.78,29,64.79,28.81,64.2Z"/><path class="cls-96" d="M31.52,66.63l-1.78,0c0-.3,0-.59-.08-.88l.11,0a1.3,1.3,0,0,1,1.79-.12A.7.7,0,0,1,31.52,66.63Z"/><path class="cls-97" d="M9.92,41.49l.06-.86a.71.71,0,0,1,1,0,4.49,4.49,0,0,1,.25,3.12c-.09.65-.62.88-1.27.63a1.07,1.07,0,0,1-.44-1C9.54,42.7,9.32,42,9.92,41.49Z"/><path class="cls-98" d="M7.29,49.57V46.9a.69.69,0,0,1,1-.07c.57.62.28,1.35.26,2a1,1,0,0,1-.26.79A.68.68,0,0,1,7.29,49.57Z"/><path class="cls-99" d="M9.92,41.49v1.79a.59.59,0,0,1-.86,0C9.24,42.64,8.51,41.55,9.92,41.49Z"/><path class="cls-100" d="M8.1,45.07c0-.6.24-1,.89-.94a.46.46,0,0,1,.27.15.78.78,0,0,1,0,.78.83.83,0,0,1-.22.24.78.78,0,0,1-.78,0A.58.58,0,0,1,8.1,45.07Z"/><path class="cls-101" d="M7.28,46c-.1-.64.16-1,.82-.94l.1,0a.68.68,0,0,1,0,.93A.66.66,0,0,1,7.28,46Z"/><path class="cls-102" d="M7.28,46l.82,0,.15.07a.56.56,0,0,1,0,.75l-.14.09-.85,0Z"/><path class="cls-103" d="M10.86,40.61l-.88,0c-.09-.61.11-1,.8-1l.16.06a.58.58,0,0,1,.06.77Z"/><path class="cls-104" d="M10.87,38.82l.84-.07.07.08a.69.69,0,0,1,.18.81.63.63,0,0,1-.25.26.69.69,0,0,1-.82-.19l-.11,0Z"/><path class="cls-105" d="M9.05,43.29h.86l0,.9-.1.13a.57.57,0,0,1-.76-.09L9,44.13Z"/><path class="cls-106" d="M7.29,49.57l.84,0a.62.62,0,0,1,.08.92.66.66,0,0,1-.94-.06Z"/><path class="cls-107" d="M7.27,50.46h.9l.12.08a.59.59,0,0,1,.07.69.38.38,0,0,1-.24.16l-.86,0C7.26,51.07,7.27,50.77,7.27,50.46Z"/><path class="cls-108" d="M66.55,48.71v3.56a.7.7,0,0,1-1,.06c-.63-.84-.36-1.78-.31-2.7a1.29,1.29,0,0,1,.31-1A.68.68,0,0,1,66.55,48.71Z"/><path class="cls-109" d="M65.66,46l.09,1.71a.62.62,0,0,1-.25.28.83.83,0,0,1-.91-.18,1.69,1.69,0,0,1-.09-1.72.86.86,0,0,1,.27-.3A.69.69,0,0,1,65.66,46Z"/><path class="cls-110" d="M65.72,55.43,65.66,55a.64.64,0,1,1,.92-.89C67.05,55,66.41,55.23,65.72,55.43Z"/><path class="cls-111" d="M63.88,44.21l.06.85-.09.15a.73.73,0,0,1-.83.1.75.75,0,0,1-.24-.26.68.68,0,0,1,.18-.81l.06-.09A.59.59,0,0,1,63.88,44.21Z"/><path class="cls-112" d="M63.94,45.06l.83,0a.61.61,0,0,1,.07.87l-.1.05a.66.66,0,0,1-.93,0,.7.7,0,0,1,0-1Z"/><path class="cls-113" d="M64.84,46l-.07-.87c.69-.07,1,.24.89.93Z"/><path class="cls-114" d="M63.88,44.21,63,44.15v-.87C63.7,43.24,63.94,43.59,63.88,44.21Z"/><path class="cls-106" d="M65.7,52.29l.86,0v.89a.67.67,0,0,1-.88.14.66.66,0,0,1-.14-.88Z"/><path class="cls-115" d="M65.7,53.19l.87,0v.91l-.84,0L65.59,54a.56.56,0,0,1,0-.74Z"/><path class="cls-77" d="M66.55,48.71l-.86,0-.13-.1a.58.58,0,0,1,.09-.77l.1-.07C66.45,47.71,66.68,48.06,66.55,48.71Z"/><path class="cls-116" d="M49.48,11l.05.82-.09.16a.69.69,0,0,1-.86,0,.74.74,0,0,1-.22-.84.63.63,0,0,1,.25-.26Z"/><path class="cls-117" d="M47.69,10.05c.61-.07,1,.15.92.82V11a.7.7,0,0,1-1,0A.66.66,0,0,1,47.69,10.05Z"/><path class="cls-118" d="M47.69,10.05l0,.83L47.6,11a.65.65,0,0,1-.88-.08.64.64,0,0,1,.09-.89V10Z"/><path class="cls-119" d="M22.52,13.61l.05-.84,1.74-.07c.34-.25.61-.59.93-.87h0c.28-.31.61-.59.88-.91h0c.29-.31.6-.6.89-.91h0c.31-.28.59-.6.91-.88l0,0c.32-.28.6-.6.92-.87h0l1.79,0c.49-.61,1.18-.4,1.81-.43s1.32-.16,1.88.34a.78.78,0,0,1-.07,1l0,.89,0,.14c-.43.23-.4.86-.89,1.05a1.52,1.52,0,0,1-.79.12c-.8.21-1.8-.38-2.43.58-.32.29-.91.25-1,.84a.7.7,0,0,1-.2.22c-.47.08-.61.46-.78.82s-.81.39-.94.88a1.85,1.85,0,0,0-.94.93c-.47.47-1.42-.06-1.69.81-.38.25-.8.45-.94.93a1.83,1.83,0,0,0-.93.93c-.81.25-.46,1-.73,1.55a.83.83,0,0,1-.17.27c-.55.11-.6.77-1.06,1A1,1,0,0,1,19.8,21a.76.76,0,0,1-.25-.31,7,7,0,0,1-.11-2.59,1.1,1.1,0,0,1,.38-.91l0,0c.68-.42.19-1.4.89-1.81h0q.46-.43.9-.9h0C21.94,14.22,22.25,13.93,22.52,13.61Z"/><path class="cls-120" d="M34.22,10,36,10a1,1,0,0,1,.84-.37,5.14,5.14,0,0,1,1,0c.33,0,.65,0,1,0a1.07,1.07,0,0,1,1,.39.93.93,0,0,1-.06,1.06c-.74.56-1.59.23-2.38.3a12,12,0,0,1-1.34,0c-.34,0-.67,0-1,0-.88-.1-1.06-.4-.77-1.35Z"/><path class="cls-121" d="M34.24,9.14l0-.89a.64.64,0,0,1,0-.9h.89C35,8,35.65,9.09,34.24,9.14Z"/><path class="cls-122" d="M36.07,8.19l1.75,0,0,.06a.69.69,0,0,1,.17.84.68.68,0,0,1-.26.27,1.46,1.46,0,0,1-.92.12A.94.94,0,0,1,36,9.13Z"/><path class="cls-123" d="M36,9.13l.88,0a.56.56,0,0,1,0,.85H36Z"/><path class="cls-124" d="M41.44,10h.88l.9.07a.69.69,0,0,1,.15.86.64.64,0,0,1-.43.32,1.18,1.18,0,0,0-1.18,1.16.66.66,0,0,1-.38.5.9.9,0,0,1-1-.11A2.34,2.34,0,0,1,40.1,11a1.27,1.27,0,0,1,.33-1A.79.79,0,0,1,41.44,10Z"/><path class="cls-125" d="M43.21,10.9v-.82H45.9a.72.72,0,0,1,.09,1,2.46,2.46,0,0,1-2.67,0Z"/><path class="cls-126" d="M45.92,10.92l0-.85h.91l0,.81-.11.16A.56.56,0,0,1,45.92,10.92Z"/><path class="cls-127" d="M34.21,7.35c0,.3,0,.6,0,.9L32.4,8.2a.58.58,0,0,1,0-.85l0,0Z"/><path class="cls-128" d="M32.44,7.35c0,.28,0,.56,0,.85l-1.78,0V7.39l.88-.09Z"/><path class="cls-129" d="M37.81,9.14c0-.29,0-.57,0-.86l1.79-.07.86.06c0,.27,0,.54,0,.81l0,.14c-.2.27-.54.41-.68.73a.52.52,0,0,1-.27.1L38.74,10C38.45,9.69,38,9.53,37.81,9.14Z"/><path class="cls-130" d="M41.44,10l-.92,0-.13-.1a.55.55,0,0,1,.11-.75l0-.1.86.09Z"/><path class="cls-126" d="M28.84,8.25c.1.72-.23,1-.92.87l0-.85Z"/><path class="cls-131" d="M50.38,11.85l0,.83-.07.15a.71.71,0,0,1-.83.11.75.75,0,0,1-.24-.26.69.69,0,0,1,.19-.81l.05-.1Z"/><path class="cls-132" d="M22.5,24.66l0-2c-.46-.48-.58-1,0-1.43s1,.07,1.37.54a3.66,3.66,0,0,1,.87,3.11,1,1,0,0,0,.5,1.14c.3.37.56.77,1.14.7a.79.79,0,0,1,.81.46A.7.7,0,0,1,27,28l-1,0c-.7,0-1.49.19-1.88-.73-.09-.23-.46-.15-.72-.15a.73.73,0,0,1-1,0A2.09,2.09,0,0,1,22.5,24.66Z"/><path class="cls-133" d="M27,28l0-.9a.73.73,0,0,1,1-.07,2.41,2.41,0,0,1-.17,2.76L27,29.77C27,29.19,27,28.61,27,28Z"/><path class="cls-134" d="M22.54,27.11l.88,0c0,.29,0,.58,0,.86l-.9,0h0a.61.61,0,0,1-.13-.79Z"/><path class="cls-135" d="M28,33.44V31.58a.76.76,0,0,1,.78-.22c.43.13.46.86,1.07.72a4.69,4.69,0,0,1,.75,0c.63.14.64-.6,1.06-.76a1.7,1.7,0,0,1,.89-.09.93.93,0,0,1,.74.21,1.13,1.13,0,0,0,1.19.62c.85,0,1.71,0,2.56,0s1.23.44,1.12,1.44c-.31.39-.74.34-1.17.33a12.4,12.4,0,0,1-2.28,0c-1,.15-2.06-.06-3.09,0a12,12,0,0,1-2.68-.08A1.19,1.19,0,0,1,28,33.44Z"/><path class="cls-136" d="M27.07,36.94l.87.06.16.09a1.23,1.23,0,0,1,.31.8c.21.69.79.39,1.22.46.71.11,1.52-.3,2.09.43a.94.94,0,0,1,0,1,1.07,1.07,0,0,1-.91.37c-.32,0-.63,0-1,0l-.86,0c-.51,0-.58.34-.57.75a1.05,1.05,0,0,1-.47,1,.91.91,0,0,1-.93-.06.9.9,0,0,1-.23-.32,2.46,2.46,0,0,1-.15-1,8.85,8.85,0,0,1,0-2.62A1.09,1.09,0,0,1,27,37Z"/><path class="cls-137" d="M28.78,31.65,28,31.58c0-.29,0-.58-.05-.87s0-.59,0-.89c0-.9,0-1.81,0-2.72a1.11,1.11,0,0,1-.39-.92A1.26,1.26,0,0,1,27.8,25a1.81,1.81,0,0,1,2,.2.92.92,0,0,1,.19.95,2,2,0,0,0-.72,2,11.06,11.06,0,0,1-.18,3.25A.59.59,0,0,1,28.78,31.65Z"/><path class="cls-138" d="M28,33.44h.91A2.22,2.22,0,0,1,29,36.12a.69.69,0,0,1-1,0Z"/><path class="cls-139" d="M28,36.08l.86,0,.15.13a.68.68,0,0,1-.14.9.72.72,0,0,1-.91-.14h0Z"/><path class="cls-140" d="M17.13,37H19a.73.73,0,0,1,.05,1,1.53,1.53,0,0,1-1.9,0A.72.72,0,0,1,17.13,37Z"/><path class="cls-141" d="M17.13,37l0,.85a1.26,1.26,0,0,1-1.84.18.74.74,0,0,1,0-1Z"/><path class="cls-142" d="M18.93,37.88,19,37l.88-.08.15.15C20,38.14,19.88,38.23,18.93,37.88Z"/><path class="cls-143" d="M15.36,37l0,.86a.57.57,0,0,1-.86,0l-.07-.09.06-.82Z"/><path class="cls-144" d="M19.86,36.12l.87-.07,0,.1a.64.64,0,0,1,.05.93.74.74,0,0,1-1,0,.25.25,0,0,1,0-.12Z"/><path class="cls-145" d="M25.22,26.22c-.68,0-1-.34-.87-1,.3-1.38-.43-2.44-1-3.56-.09-.18-.2-.32-.41-.32s-.36.23-.38.46,0,.52,0,.78h-.86a2.07,2.07,0,0,1,0-2.69h0c.46-.25.42-.89.89-1.13,1.24-.4,1.59.73,2.15,1.36a18.06,18.06,0,0,1,1.6,2.56,1.51,1.51,0,0,1-.12,2.11c-.42.38-.36,1-.76,1.34Z"/><path class="cls-146" d="M21.64,19.92l0,2.69c0,.67-.3,1-1,.93l-.84,0-.08-.88a.88.88,0,0,0,.05-.15c.7-.34.24-1.29.88-1.66C20.71,20.18,21,19.82,21.64,19.92Z"/><path class="cls-147" d="M22.5,24.66l0,2.45h0a.68.68,0,0,1-.93,0h0c0-.55,0-1.09,0-1.64S21.89,24.59,22.5,24.66Z"/><path class="cls-148" d="M19.84,37.07l.88-.09c.33-.26.59-.59.93-.84l2.7-.07,0,.06c.11.09.3.19.31.3.1,1,.87,1,1.63,1.09a.82.82,0,0,1,.73.4v2.66a1.46,1.46,0,0,1-2.08.21A5.59,5.59,0,0,0,22.76,40a.93.93,0,0,1-.31-.13,1.46,1.46,0,0,0-2.31-.24.79.79,0,0,1-.19.25c-.47.09-.67.45-.86.83a.61.61,0,0,1-.28.16,7.27,7.27,0,0,1-2.23.13c-.44,0-.83,0-1,.52a1.1,1.1,0,0,1-1,.38c-.35,0-.66,0-.78.44a.72.72,0,0,1-.19.24.72.72,0,0,0-.56.93,2.07,2.07,0,0,1-.15,1.32A27.15,27.15,0,0,0,11.08,47l-1,1a1.34,1.34,0,0,0-.69.62c-.29.4-.69.66-1.19.25l0-2,0,0a1.26,1.26,0,0,0,.49-1.11A1,1,0,0,1,9,45.08l0,0c.27-.32.59-.6.88-.92h0c.68.07.93-.25.91-.91,0-.88,0-1.77,0-2.66h0c.3-.31.6-.6.9-.9h0c.3-.31.6-.61.91-.9h0c.67-.14,1.7.45,1.82-.86l.86,0h3.59C19.53,37.94,19.91,37.76,19.84,37.07Z"/><path class="cls-149" d="M21.65,36.14c0,.66-.29.92-.93.84l0-.83Z"/><path class="cls-150" d="M26.14,37.89c-1.81,0-1.81,0-1.82-1.76h.89c.35.24.6.59.94.85l0,0A.62.62,0,0,1,26.14,37.89Z"/><path class="cls-151" d="M26.15,37c-.67.11-1-.16-.94-.85h.88Z"/><path class="cls-152" d="M26.14,37.89V37L27,37l0,.89Z"/><path class="cls-153" d="M12.66,38.8c.07.68-.23,1-.91.9l0-.87Z"/><path class="cls-154" d="M21.62,27.13l.93,0c0,.3,0,.6,0,.9l-.87,0C21.65,27.7,21.64,27.41,21.62,27.13Z"/><path class="cls-155" d="M19,22.57v-.88a.7.7,0,0,1,1,0,.74.74,0,0,1,0,1h-.11Z"/><path class="cls-156" d="M19.83,18.11v2.72a.58.58,0,0,1-.86,0l0,0,0-2.71,0,0A.58.58,0,0,1,19.83,18.11Z"/><path class="cls-157" d="M19,20.81l.86,0h0a.61.61,0,0,1,0,.92l-.85,0Z"/><path class="cls-158" d="M25.24,11.83c.1.73-.22,1-.93.87l.06-.84Z"/><path class="cls-159" d="M20.74,15.42c-.18.66.53,1.76-.89,1.81l0-1.79Z"/><path class="cls-160" d="M19.83,18.11l-.86,0v-.9l.85,0Z"/><path class="cls-161" d="M21.63,14.52c.08.67-.21,1-.9.9l.06-.87Z"/><path class="cls-162" d="M22.52,13.61c.09.67-.21,1-.88.91l0-.85Z"/><path class="cls-163" d="M27,10c.08.68-.23,1-.89.91l0-.87Z"/><path class="cls-164" d="M26.12,10.92c.1.68-.15,1-.88.91l0-.87Z"/><path class="cls-165" d="M27.94,9.14c.06.67-.24,1-.91.88l0-.86Z"/><path class="cls-166" d="M54,27.11c-.84-.24-1,.62-1.39,1s-1.35.78-1.32,1.69c-.08.52-.68.53-.89.93h0a1.23,1.23,0,0,1-1,.4c-.93,0-1.89.26-2.77-.26A1.74,1.74,0,0,1,46.54,29c.37-.61,1-.55,1.58-.54s1,0,1.21-.55c1-.36,1.66-.89,1.54-2.1-.09-.76.87-.84,1.1-1.43.36-.31.89-.52.71-1.16.39-1.41,1.19-2,2.35-1.62.44,1.16.72,2.31-.29,3.35a1.22,1.22,0,0,0-.29.91A1.45,1.45,0,0,1,54.17,27Z"/><path class="cls-167" d="M50.4,30.72c-.08-.67.25-.95.89-.93s1,.18.91.86Z"/><path class="cls-168" d="M54.88,28l-.83.09c0-.32,0-.63,0-.95h0a.6.6,0,0,1,.87,0Z"/><path class="cls-169" d="M57.56,20.83v2.65a.9.9,0,0,1-.83.39c-1.11-.05-1.31-.25-1.39-1.28,0-.52.25-1.16-.46-1.47-.43-.29-.71-.73-1.1-1a.75.75,0,0,0-.88-.59,1.26,1.26,0,0,1-1.1-.33,1.09,1.09,0,0,1-.22-1c.27-.51.75-.49,1.22-.48s.8-.05,1-.5a.66.66,0,0,1,.29-.2.77.77,0,0,1,.83.25v0a10.79,10.79,0,0,1,.9.89h0a1,1,0,0,1,.46.84c0,.41.22.6.54.74A6.73,6.73,0,0,0,57.56,20.83Z"/><path class="cls-170" d="M57.56,20.83c-.64.06-.91-.26-.89-.87l.1-.15a.59.59,0,0,1,.81.13v0Z"/><path class="cls-171" d="M56.72,23.54l.84-.06v.89l-.85.06A.58.58,0,0,1,56.72,23.54Z"/><path class="cls-172" d="M56.72,23.54v.89h0c-.3.29-.61.59-.89.9h0a7.75,7.75,0,0,0-.87.94l-.06.83-.87,0c0-.6,0-1.19,0-1.78,0-.22,0-.57.11-.64,1.33-.72.59-2,.77-3a.65.65,0,0,1,0-.95c1.06,0,.84.79.87,1.41S55.67,23.61,56.72,23.54Z"/><path class="cls-173" d="M54.93,26.25c-.08-.66.18-1,.87-.94l0,.87Z"/><path class="cls-174" d="M55.81,25.32c-.09-.68.24-.95.89-.9l0,.87Z"/><path class="cls-175" d="M56.67,20c-1.27-.14-.77-1.13-.88-1.83h.86l.08.87a.63.63,0,0,1,0,.88Z"/><path class="cls-176" d="M56.73,19.88V19c.68-.05,1,.28.85.94Z"/><path class="cls-177" d="M53.12,16.28l.86.07a.58.58,0,0,1,0,.86l0,.08a2.19,2.19,0,0,1-2.09.3.89.89,0,0,1-.7-1.26,1,1,0,0,1,1-.38A1.22,1.22,0,0,1,53.12,16.28Z"/><path class="cls-178" d="M54,17.21l0-.86h.89l0,.86Z"/><path class="cls-179" d="M53.12,16.28h-.89A.53.53,0,0,1,52,15.6a.52.52,0,0,1,.24-.2l.83,0C53.09,15.73,53.11,16,53.12,16.28Z"/><path class="cls-180" d="M52.16,14.53l.09.87-.1,0a.65.65,0,0,1-.84.15.68.68,0,0,1-.22-.83.45.45,0,0,1,.26-.23Z"/><path class="cls-181" d="M51.31,13.62l0,.91h-.1c-1,.27-1.1.16-.94-.88a.66.66,0,0,1,1,0Z"/><path class="cls-182" d="M51.29,13.64l-.88,0-.13-.1a.56.56,0,0,1,.1-.75l0-.09.85.07Z"/><path class="cls-183" d="M55.79,18.13c-.65.06-1-.18-.9-.89l.9,0Z"/><path class="cls-184" d="M45.94,63c-.69.09-1-.24-.93-.89s-.23-.92-.85-.88L44,61.18a3.26,3.26,0,0,1-.21-2.47.9.9,0,0,1,1.06-.43c.64.12.67-.28.65-.73a8.22,8.22,0,0,1,0-.86c0-.78,0-1.56,0-2.34.16-.64-.55-.76-.73-1.21a1.08,1.08,0,0,1,.06-.88c.86-.48.67-1.3.66-2.07-.05-1.86,0-3.71,0-5.57a1,1,0,0,1,.26-.71.91.91,0,0,1,1.06-.13.75.75,0,0,1,.28.33A4,4,0,0,1,47.26,46a21.16,21.16,0,0,1,0,3.56,26.29,26.29,0,0,1,0,3.55c.1.69-.06,1.37,0,2.06a14.79,14.79,0,0,1,0,2.49c0,.61.19,1.29-.41,1.77,0,.19,0,.47-.11.53C45.51,60.76,46,62,45.94,63Z"/><path class="cls-185" d="M46.85,59.45V57.67c.62-.66,1.19.22,1.75,0s.49-1.17,1.22-1.34a3,3,0,0,1,.78-.1c1.49.1,3,0,4.48,0,1.73.06,1.73.06,2.33-1.42a1,1,0,0,1,.91-.25,1.12,1.12,0,0,1,.35.12,3.76,3.76,0,0,1,.63.63A1.08,1.08,0,0,1,59,57.18c-.31.21-.71.33-.83.7-.39,1.2-1.35,1.34-2.34,1.16s-2.2.1-3.21-.76a1.68,1.68,0,0,0-2.23.3c-.13.58.32,1.41-.44,1.68a1.7,1.7,0,0,1-2.11-.47C47.62,59.46,47.22,59.47,46.85,59.45Z"/><path class="cls-186" d="M50.42,58.58c.2-1,1.89-1.34,2.71-.53a.81.81,0,0,0,1,.25c.74-.24,1.44.41,2.26.3.64-.09,1.18-.08,1.22-.93a.88.88,0,0,1,.74-.76c1.12-.24,1-.77.43-1.47-.11-.14-.2-.31-.31-.47a1.66,1.66,0,0,1,1.35-.69,1.11,1.11,0,0,1,1.31,1.58c-.34,1-.59,2.2-1.81,2.67a.21.21,0,0,0-.11.3c.58.4,1.53-.21,2,.66l0,.86a.89.89,0,0,1-.89.42,26.23,26.23,0,0,1-2.66,0,13.86,13.86,0,0,1-1.82,0,1.07,1.07,0,0,1-.91-.4c0-.76-.2-1.24-1.11-1-.15,0-.43,0-.51-.09C52.51,58.3,51.42,58.62,50.42,58.58Z"/><path class="cls-187" d="M49.51,62.16c0-.29,0-.59,0-.88h3.62c0,.67-.32.91-1,.89C51.28,62.14,50.4,62.16,49.51,62.16Z"/><path class="cls-188" d="M54.9,60.37h.9a.65.65,0,0,1,0,.91c0,.27,0,.55,0,.82l-.85.07c-.64,0-1-.22-.9-.9C54.63,61.31,55,61,54.9,60.37Z"/><path class="cls-189" d="M48.58,61.31c0,1.41-1.12.66-1.76.85C46.78,60.58,48,61.55,48.58,61.31Z"/><path class="cls-190" d="M61.21,59.49l-2.44,0c-.3,0-.65,0-.77-.33s.21-.51.45-.67a2.64,2.64,0,0,1,.74-.49c1.38-.39,1.12-1.77,1.58-2.69.2-.4-.19-.76-.74-.56A3.62,3.62,0,0,1,58.5,55h0a2.2,2.2,0,0,1-.26-2.49c.28-.76,1.07-.67,1.74-.64a4.27,4.27,0,0,1,2.18.25c.73.88.24,1.91.38,2.86s0,1.63,0,2.44a1.42,1.42,0,0,1-.45,1.2C62.14,59.22,61.87,59.54,61.21,59.49Z"/><path class="cls-191" d="M64.85,55c0,.89-.07,1.78-.11,2.67-.62.06-.88-.25-.84-.84s-.21-1-.89-1a.73.73,0,0,1-.35-.83.94.94,0,0,1,.15-.54c.69-.67,1.24-.09,1.82.21A.56.56,0,0,1,64.85,55Z"/><path class="cls-192" d="M63,55c0,.29,0,.57,0,.86,0,.59,0,1.18,0,1.77s-.23,1-.9,1c0-1.21,0-2.42,0-3.63A.57.57,0,0,1,63,55Z"/><path class="cls-193" d="M60.33,60.41l.85-.06c.61,0,1,.17.91.88l-1.8,0-.12-.11A.53.53,0,0,1,60.33,60.41Z"/><path class="cls-194" d="M44.16,61.27l-.06,1.78a1.4,1.4,0,0,0-.44,1.31,1.44,1.44,0,0,1-.44,1.41h0a1.41,1.41,0,0,1-1.92.14,2.19,2.19,0,0,1-.18-2.18,1.67,1.67,0,0,0,.76-1.68c-.06-.85,0-1.7,0-2.54s.33-1.35,1.28-1.16c.59.29.52.84.52,1.36s-.1,1.14.43,1.56Z"/><path class="cls-195" d="M43.22,65.77c0-.59,0-1.17,0-1.76s.22-1,.88-1c0,.24,0,.47,0,.71,0,.4,0,.8,0,1.2C44.13,65.59,43.78,65.79,43.22,65.77Z"/><path class="cls-196" d="M65.74,54.09c0,.29,0,.58-.08.87l-.81,0h-.09a.74.74,0,0,1-.19-.83.63.63,0,0,1,.25-.26.66.66,0,0,1,.82.18Z"/><path class="cls-197" d="M57.61,62.12v-.85l.11-.18a2.48,2.48,0,0,1,2.62.13l0,.05c0,.29,0,.57,0,.86Z"/><path class="cls-198" d="M55.8,61.29v-.91l1.77,0a.5.5,0,0,1,0,.81l0,.05Z"/><path class="cls-199" d="M46.81,35.21v.89l-.11.15a.77.77,0,0,1-.85,0,.75.75,0,0,1-.23-.27A1.74,1.74,0,0,1,45.47,35a1.52,1.52,0,0,0-.7-1.58A1.52,1.52,0,0,1,45,31.56a.8.8,0,0,1,.69-.22c.6.08.59.77,1,1l.06.15Z"/><path class="cls-200" d="M49.51,31.64l0,.82-2.68,0,0,0a.72.72,0,0,1-.13-.95,2.8,2.8,0,0,1,2.56-.21A.66.66,0,0,1,49.51,31.64Z"/><path class="cls-201" d="M63.91,46l.83,0,.08,1.74c.17.22.38.41.37.72a1.32,1.32,0,0,0,.45,1.12l.06,2.69,0,0a1.32,1.32,0,0,0-.48,1.11c0,.32-.19.51-.37.72l0,0c-.92.36-1.23.15-1.33-.81-.06-.54.27-1.21-.43-1.58a.69.69,0,0,1-.25-.23,2.89,2.89,0,0,1-.21-1.59.87.87,0,0,0-.53-1,2.33,2.33,0,0,0-1-1c-.13-.55-.75-.66-1-1.09a6.79,6.79,0,0,1-.16-2.29.88.88,0,0,0-.61-1.09c-.11-.54-.71-.57-1-.94-.41-.81-.91-.69-1.47-.15a3,3,0,0,1-3.33.09,2.77,2.77,0,0,0-1.14-.62.78.78,0,0,1-.28-.16c-.64-.87-.8-.86-1.68.16a1.81,1.81,0,0,1-.89.13,1.26,1.26,0,0,0-.53.16c-.86.43-1.55.09-1.64-.86a16.13,16.13,0,0,1,0-2.78c.08-.94.6-1.17,2-1,.59,0,1.18,0,1.77,0A.78.78,0,0,0,52,37c.34-.34.84-.44,1.15-.82h1.77a1.23,1.23,0,0,0,1,.45,1.42,1.42,0,0,1,.76.12.76.76,0,0,1,.25.18c.24.84,1.06.4,1.54.72a.64.64,0,0,1,.25.18.78.78,0,0,0,.91.62,1,1,0,0,1,.69.38l0,0a10.81,10.81,0,0,1,.9.89l0,0c.27.33.6.59.86.93h0l0,3.54a6.46,6.46,0,0,0,.88.93h0C63.29,45.39,63.59,45.7,63.91,46Z"/><path class="cls-202" d="M63,45.08c-.69.07-1-.26-.88-.93l.84.09Z"/><path class="cls-177" d="M55.81,37c-.63.07-1-.19-.92-.85l.92-.07,0,0A.61.61,0,0,1,55.81,37Z"/><path class="cls-203" d="M53.12,36.14c.06.65-.29.9-.89.91l-.15-.12a.6.6,0,0,1,.14-.81l0,0Z"/><path class="cls-204" d="M52.23,37.05a.75.75,0,0,1-.87.85c-.62,0-1.24,0-1.85,0a.63.63,0,0,1-.14-.82L49.5,37h1.78a.65.65,0,0,1,.9,0Z"/><path class="cls-144" d="M52.18,37h-.9c0-.28,0-.56,0-.84h.89Z"/><path class="cls-205" d="M48.62,36l.86.1,0,.82,0,.11a.77.77,0,0,1-1,0,.65.65,0,0,1,0-.94Z"/><path class="cls-197" d="M57.57,36.14l0,.83c-.29.33-.6.27-.92,0l0,0a.59.59,0,0,1,0-.86Z"/><path class="cls-206" d="M56.68,36.12l0,.86h-.9c0-.29,0-.58,0-.87Z"/><path class="cls-207" d="M48.59,36.15l0,.84a1.32,1.32,0,0,1-1.86.15.78.78,0,0,1,0-1h0Z"/><path class="cls-208" d="M49.48,30.74l.94,0c0,.29,0,.58,0,.87l-.87.06,0-.1A.53.53,0,0,1,49.48,30.74Z"/><path class="cls-209" d="M59.37,37l0,.84-.1.14a.61.61,0,0,1-.81-.1h0a.58.58,0,0,1,0-.85v-.11Z"/><path class="cls-202" d="M58.49,37.05v.85c-.65-.18-1.75.52-1.8-.89l.92,0Z"/><path class="cls-210" d="M62.07,40.61c-.73.1-1-.26-.86-.93l.84,0Z"/><path class="cls-211" d="M61.18,39.7c-.64,0-1-.23-.9-.89h.87Z"/><path class="cls-212" d="M60.3,38.79h-.89a.55.55,0,0,1,0-.83l0-.09.87.09Z"/><path class="cls-213" d="M10,54.06l-.06-.86a1.14,1.14,0,0,1-.36-.89,6.54,6.54,0,0,1,0-1,1.1,1.1,0,0,1,.27-.93c1-.3,1.35-.16,1.47.75a1.37,1.37,0,0,0,.69,1,2.48,2.48,0,0,1,.21,1.75,2.14,2.14,0,0,1-.17,1,.7.7,0,0,1-.26.28.75.75,0,0,1-.89-.2h0A9.56,9.56,0,0,1,10,54.06Z"/><path class="cls-214" d="M26.15,57.75c0,.73-.42.83-1,.83-1.44,0-2.89,0-4.34,0a.53.53,0,0,1-.28-.25.81.81,0,0,1,.2-.92,2.78,2.78,0,0,1,1.75-.21c.31,0,.63,0,1,0a13.3,13.3,0,0,1,1.67,0,1.42,1.42,0,0,1,.88.18A.55.55,0,0,1,26.15,57.75Z"/><path class="cls-215" d="M28,59.44l0,2.73c-.68,0-.91-.3-.9-.94,0-1.19,0-2.37,0-3.55l.14-.15a.75.75,0,0,1,1,.16A1.28,1.28,0,0,1,28,59.44Z"/><path class="cls-216" d="M19.82,59.45c-.88,0-1.77,0-2.65,0-.65,0-1-.25-1-.87a.58.58,0,0,1,.23-.28,1.61,1.61,0,0,1,.89-.16,6.42,6.42,0,0,1,2.43.13.73.73,0,0,1,.29.26A.74.74,0,0,1,19.82,59.45Z"/><path class="cls-217" d="M12.63,55.91l-.86-.07a.54.54,0,0,1,0-.82v-.1a1.38,1.38,0,0,1,1.87-.07.84.84,0,0,1,.05,1.06A.76.76,0,0,1,12.63,55.91Z"/><path class="cls-218" d="M16.17,58.6c-.66-.14-1.66.4-1.75-.88a1.42,1.42,0,0,0,.08-.18,1.1,1.1,0,0,1,.94-.25,1,1,0,0,1,.93.31.77.77,0,0,1-.07,1Z"/><path class="cls-219" d="M27,57.68l-.88.07,0-.11a.67.67,0,0,1,0-1,.77.77,0,0,1,1,0,.71.71,0,0,1-.06,1Z"/><path class="cls-220" d="M12.63,55.91h.9a.5.5,0,0,1,.21.69.4.4,0,0,1-.25.19C12.87,56.83,12.6,56.51,12.63,55.91Z"/><path class="cls-221" d="M14.42,57.72c-.66,0-.92-.33-.93-.94l.11,0c1-.25,1.11-.12.88.87Z"/><path class="cls-222" d="M11.75,55c0,.28,0,.55,0,.82-.68.11-1-.16-.91-.87Z"/><path class="cls-66" d="M19.82,59.45l0-.83a.55.55,0,0,1,.86-.06l.08,0C20.77,59.24,20.49,59.57,19.82,59.45Z"/><path class="cls-223" d="M9,52.31c-.64,0-.89-.31-.89-.91l.07,0a.7.7,0,0,1,.75-.23.77.77,0,0,1,.28.19.73.73,0,0,1,0,.8A.55.55,0,0,1,9,52.31Z"/><path class="cls-224" d="M9.92,52.31v.89c-.65,0-.89-.3-.9-.89l.07-.05A.56.56,0,0,1,9.92,52.31Z"/><path class="cls-225" d="M10,54.06c.65-.05,1,.21.89.91C10.15,55.07,9.88,54.74,10,54.06Z"/><path class="cls-226" d="M41.43,63.76v2a.63.63,0,0,1,0,.89,1.07,1.07,0,0,1-.84-.2,1.14,1.14,0,0,0-1.76,0,1.72,1.72,0,0,1-1.17.25H33.32a.75.75,0,0,1-.08-1c.49-.48,1.14-.39,1.74-.46,1.3.22,2.59.54,3.7-.64a2.23,2.23,0,0,0,.47-1.95c0-.73,0-1.46,0-2.2a1.35,1.35,0,0,1,.32-1.12c1.77-.82,2.42-.42,2.35,1.55C41.81,61.83,42.24,62.89,41.43,63.76Z"/><path class="cls-227" d="M41.43,66.65v-.89h1.79C43.19,67.22,42.08,66.47,41.43,66.65Z"/><path class="cls-228" d="M31.52,66.63l0-.85.12-.15a.63.63,0,1,1,.75,1Z"/><path class="cls-229" d="M32.41,66.64l0-.87.07-.13a.59.59,0,0,1,.7-.08.46.46,0,0,1,.17.24l0,.86Z"/><path class="cls-230" d="M29.69,63.08l-.83,0-.09-3.55a2.09,2.09,0,0,0,.14-.17.8.8,0,0,1,1,.1c.48.72.18,1.53.25,2.31C30.15,62.23,30.29,62.79,29.69,63.08Z"/><path class="cls-231" d="M28,59.44V57.68l.15-.15a.72.72,0,0,1,.94.17,1.33,1.33,0,0,1-.17,1.75l-.1,0Z"/><path class="cls-232" d="M31.54,65.78l-1.77,0v-.68c.55-.45.4-1.08.41-1.66s0-1.27,0-1.91c.14-1-.39-2.13.41-3.06.93-.34,1.29.1,1.34,1,.07,1.71,0,3.42,0,5.14a1.34,1.34,0,0,1-.45,1.2Z"/><path class="cls-233" d="M30.6,61.7c0,.82,0,1.64,0,2.46,0,.57-.23.92-.85.92l-.08-2,.08-1.37A.56.56,0,0,1,30.6,61.7Z"/><path class="cls-234" d="M10,50.47l0,.91a.63.63,0,0,1-.89,0h0c-.29-.3-.61-.59-.88-.91h0l0-.87.06-.71A.91.91,0,0,0,9,48.28c.13-.47.49-.49.87-.51.39.18.44.54.45.91C10.4,49.31,10.59,50,10,50.47Z"/><path class="cls-235" d="M10,44.18c.08.67-.22,1-.88.92v-.88Z"/><path class="cls-236" d="M9,45.08V46a.55.55,0,0,1-.83,0l-.1,0,.09-.86Z"/><path class="cls-237" d="M8.2,46,9,46c.1.67-.18,1-.86.94Z"/><path class="cls-238" d="M11.75,39.7c.08.67-.18,1-.9.9l0-.89Z"/><path class="cls-239" d="M8.17,50.47c.72-.12,1,.24.88.91l-.86,0C8.18,51.06,8.17,50.77,8.17,50.47Z"/><path class="cls-177" d="M65.64,49.6c-.66,0-.91-.3-.83-.93a.59.59,0,0,1,.86,0l0,0Z"/><path class="cls-240" d="M65.67,48.7l-.86,0c0-.31,0-.61,0-.91l.83.05C65.66,48.1,65.67,48.4,65.67,48.7Z"/><path class="cls-241" d="M63.91,46c-.67.07-1-.23-.91-.9l.84,0Z"/><path class="cls-242" d="M64.81,53.19c-.1-.65.18-1,.85-.93l0,.93,0,0A.6.6,0,0,1,64.81,53.19Z"/><path class="cls-243" d="M64.81,53.19l.87,0c0,.3,0,.6,0,.9l-.83,0Z"/><path class="cls-244" d="M49.48,11.87l0,.84c-.84.39-1,.31-1.14-.62a.56.56,0,0,1,.24-.31Z"/><path class="cls-245" d="M47.71,10.88l.9.09v.81l0,.1a.72.72,0,0,1-1,0,.63.63,0,0,1,.06-.92Z"/><path class="cls-246" d="M47.71,11l0,.81a.6.6,0,0,1-.89.08.58.58,0,0,1-.06-.88l0-.12Z"/><path class="cls-247" d="M34.22,10c0,1.42,1.14.73,1.8.91a.75.75,0,0,1,.18.86c-.5.62-1.42.57-1.92,1.2a1.77,1.77,0,0,1-.94.13,1.28,1.28,0,0,1-1-.19.92.92,0,0,1-.28-.89,1,1,0,0,1,.15-.32c.34-.27.81-.4,1-.83C33.22,10.2,33.55,9.93,34.22,10Z"/><path class="cls-248" d="M27,14.52c0-.61.26-1,.91-.92a12.61,12.61,0,0,0,.92-.87h0a1.07,1.07,0,0,1,.92-.36,1.14,1.14,0,0,1,1,.27.87.87,0,0,1-.49,1.42c-.65.22-1,.87-1.75.92a1.67,1.67,0,0,1-1.37-.28Z"/><path class="cls-249" d="M30.62,12.72l-.9,0a.63.63,0,0,1,0-.89c0-.67.32-.9,1-.88s1.17,0,1.76,0a.62.62,0,0,1,0,.88l0,0a1,1,0,0,1-.72.38,1,1,0,0,0-.95.45Z"/><path class="cls-250" d="M22.57,19c0,.61-.26,1-.94.87.1-.7-.42-1.71.88-1.83l.15.11A.67.67,0,0,1,22.57,19Z"/><path class="cls-177" d="M19.81,21.74l0-.92h.88c-.18.64.57,1.72-.82,1.81Z"/><path class="cls-251" d="M24.31,16.28c.07-1.31,1.12-.72,1.76-.91a.53.53,0,0,1,.28.27c-.1,1.13-.48,1.33-1.8,1A.7.7,0,0,1,24.31,16.28Z"/><path class="cls-251" d="M26.07,15.37c0-.6.3-.91.93-.85l.11,0c.17,1,.05,1.16-1,.9Z"/><path class="cls-252" d="M22.51,18.08c0-.63.28-.91.89-.89l.16.14c.09,1,0,1.09-1,.85Z"/><path class="cls-253" d="M23.4,17.19c0-.63.29-.92.91-.91l.06.1c.23,1,.11,1.1-.88.89Z"/><path class="cls-254" d="M28.83,12.73c.06.68-.26.95-.92.87C27.88,13,28.18,12.65,28.83,12.73Z"/><path class="cls-255" d="M29.72,11.81v.89l-.89,0C28.77,12.07,29.08,11.78,29.72,11.81Z"/><path class="cls-256" d="M32.42,11.81v-.88l.85,0C33.38,11.56,33.15,11.93,32.42,11.81Z"/><path class="cls-257" d="M36,11.79l0-.86h3.6a.58.58,0,0,1,.86,0l.06,1.74a1.09,1.09,0,0,1-.08.15.8.8,0,0,1-1.17-.17.84.84,0,0,0-.72-.39,6.05,6.05,0,0,1-1.59,0,1.08,1.08,0,0,1-.86-.27Z"/><path class="cls-258" d="M40.48,11l-.86,0-.06-.88.1,0a.6.6,0,0,1,.87,0h0Z"/><path class="cls-259" d="M37.81,9.14c.65-.08.95.22.93.86h-1a.61.61,0,0,1,0-.87Z"/><path class="cls-260" d="M37.81,9.14c0,.29,0,.58,0,.87H36.9V9.15Z"/><path class="cls-234" d="M41.42,12.72a3.37,3.37,0,0,0,0-.55c-.17-1,.28-1.36,1.24-1.24a2.57,2.57,0,0,0,.55,0l0,.07c.7,1-.36,1.36-.78,1.95a.86.86,0,0,1-.91-.05Z"/><path class="cls-261" d="M40.54,12.69l.88,0h0a.69.69,0,0,1,0,1,.76.76,0,0,1-1,0,.73.73,0,0,1,.06-1Z"/><path class="cls-262" d="M42.29,12.75c0-.41.05-.8.54-1s.37-.49.4-.82l2.69-.05.86.08c-.05.7.32.9.95.8l.87.08c-.06.69.29.92.92.83v0c.3.29.59.6.9.89h0c-.06.62.16,1,.84.9l.08.88a.64.64,0,0,1,0,.89c0,.68.42.88,1,.92l1.64.08c.07.57-.19.83-.76.82H51.75a.85.85,0,0,1-.82.28,9.46,9.46,0,0,0-1.56-1,1.05,1.05,0,0,1-.31-.89c0-.47-.21-.67-.66-.67-.77-.07-1-.74-1.47-1.22-.17-.55-.62-.53-1.08-.54-.81,0-1.62.13-2.44,0a1.62,1.62,0,0,1-1.21-.42A.73.73,0,0,1,42.29,12.75Z"/><path class="cls-263" d="M40.53,10l-.87,0c-.14-.7.13-1,.84-.83Z"/><path class="cls-264" d="M50.41,13.62c-.66.07-1-.24-.9-.89l.87,0Z"/><path class="cls-265" d="M27.9,26.19l0,.91-.88,0c-.66-.2-1.77.5-1.83-.91l0,0A2,2,0,0,1,27.9,26.19Z"/><path class="cls-266" d="M45.24,31.61,45,33.34l-.09.19c-1.09.72-2.27.28-3.42.3-.33,0-.67,0-1,0a5.13,5.13,0,0,1-1.79-.07.74.74,0,0,1-.66-.4,1.1,1.1,0,0,0-1.24-.86c-.92,0-1.84,0-2.76,0-.63,0-1-.2-.95-.89a.74.74,0,0,1,.29-.29,9,9,0,0,1,3.5-.18,13.39,13.39,0,0,1,2.61,0c.32,0,.65,0,1,0a7.22,7.22,0,0,1,.93,0,1.46,1.46,0,0,1,.87.15c.95,1.12,1.22.86,1.82,0C44.51,31.27,45,30.84,45.24,31.61Z"/><path class="cls-267" d="M28.83,36.1l0-2.67h2.67c.72.43,1.76.66,1.2,1.9a1.1,1.1,0,0,1-1,.29c-.54-.06-.77.19-.7.72a1.19,1.19,0,0,1-.34.8.93.93,0,0,1-.88.12c-.5-.25-.54-.88-1-1.19Z"/><path class="cls-268" d="M33.32,31.6l-.22,0-.7-.06c-.71-.62-.32-1.44-.42-2.18A24.52,24.52,0,0,1,32,26.67a1.07,1.07,0,0,1,.3-.8.88.88,0,0,1,1.06,0,1.87,1.87,0,0,1,.35.57,28,28,0,0,1,.07,4.1A1.29,1.29,0,0,1,33.32,31.6Z"/><path class="cls-269" d="M32.63,35.16c-.06-.77-.89-1-1.1-1.72h3.14c.6.54,1,1.13.48,2a2.48,2.48,0,0,1-1.83.17A.75.75,0,0,1,32.63,35.16Z"/><path class="cls-270" d="M35.11,35.15c-.12-.58-.51-1.08-.44-1.71h2.24a1.32,1.32,0,0,1,.18,1.85,1.43,1.43,0,0,1-1.68.17A.69.69,0,0,1,35.11,35.15Z"/><path class="cls-271" d="M36.91,35.17V33.44l1.14-.07.66.07a1.31,1.31,0,0,1,.12,1.91C38.14,35.76,37.48,35.87,36.91,35.17Z"/><path class="cls-272" d="M32.4,29.34v2.22l-.85.1-.19-.12a2.06,2.06,0,0,1,0-2.26A.74.74,0,0,1,32.4,29.34Z"/><path class="cls-273" d="M31.55,31.66c0,.68-.31.91-.94.82a.64.64,0,1,1,.89-.93A1.17,1.17,0,0,0,31.55,31.66Z"/><path class="cls-274" d="M30.65,31.66l0,.82h-.86a.69.69,0,0,1-.27-.75.75.75,0,0,1,.18-.28.73.73,0,0,1,.8-.06A.52.52,0,0,1,30.65,31.66Z"/><path class="cls-275" d="M29.72,31.67l0,.81c-.68.13-1-.18-1-.83l.08-.07C29.17,31.35,29.47,31.32,29.72,31.67Z"/><path class="cls-276" d="M27,57.67l0-.91c-.63-.5-.37-1.21-.43-1.84,0-3.75-.19-7.5,0-11.25a4.86,4.86,0,0,1,.08-1.26.74.74,0,0,1,.39-.68h.84c.57.27.48.79.48,1.26v5.24c0,.4-.14.91.55.91a7,7,0,0,1,.79,0,6.77,6.77,0,0,1,.78,0c.46.07.68-.2.83-.57a.84.84,0,0,1,.29-.2,2.08,2.08,0,0,1,.89-.11c.32,0,.65,0,1,0a20.1,20.1,0,0,1,3.47,0c.92,0,1.87-.26,2.73.3.65.72.34,1.39-.11,2a1,1,0,0,1-.79.3c-.61.14-1.24-.05-1.85.07a14,14,0,0,1-1.83,0,21.14,21.14,0,0,1-2.64,0c-1.1,0-2.19,0-3.28,0s-.67.9-.83,1.45a8.07,8.07,0,0,1,0,.85c0,.3,0,.61,0,.91,0,.57,0,1.13,0,1.7a7.79,7.79,0,0,1,0,1,1,1,0,0,1-.4.87H27Z"/><path class="cls-277" d="M31.5,38.82c-.89,0-1.77,0-2.66,0-.68,0-1-.23-.89-.9.63-.78,1.5-.42,2.27-.44a1.5,1.5,0,0,0,1.48-.7,1.38,1.38,0,0,1,.79-.18c2.35-.09,4.7,0,7,0,.88,0,1.76,0,2.65,0,.55,0,1.11,0,1.67,0,.65.2.83-.46,1.24-.69a.77.77,0,0,1,.82.24h0a4.09,4.09,0,0,1,.21,3.61.74.74,0,0,1-1.1,0,2,2,0,0,0-1.73-.5H32.83A1.58,1.58,0,0,1,31.5,38.82Z"/><path class="cls-278" d="M29.74,39.72h.87a1.11,1.11,0,0,1,.47,1q0,3.63,0,7.24a1.46,1.46,0,0,1-.23.73.89.89,0,0,1-1.05.25.86.86,0,0,1-.32-.31,2.45,2.45,0,0,1-.19-1.31V41C29.28,40.53,29.27,40,29.74,39.72Z"/><path class="cls-279" d="M30.6,48.65c0-3,0-6,0-8.93l.92,0,.18.13A1.62,1.62,0,0,1,32,41c0,2.12,0,4.25,0,6.38a1.47,1.47,0,0,1-.45,1.32h0a.64.64,0,0,1-.73.19A.49.49,0,0,1,30.6,48.65Z"/><path class="cls-280" d="M29.74,39.72v9a.71.71,0,0,1-1,.16.83.83,0,0,1-.26-.35A39.79,39.79,0,0,1,28.39,43c0-.71,0-1.42,0-2.12a1.24,1.24,0,0,1,.48-1.18Z"/><path class="cls-281" d="M28.86,39.72l0,9a.57.57,0,0,1-.88,0c0-2.31,0-4.62-.05-6.93,0-.37.05-.74,0-1.11C27.88,39.93,28.2,39.66,28.86,39.72Z"/><path class="cls-282" d="M22.52,39.72c1,0,2-.31,2.85.73.23.29,1.07.1,1.62.13v.9c-.12.14-.24.37-.41.37a2.21,2.21,0,0,0-2.2,1.62C23.3,43.61,23,43.38,23,42.3c0-.6.14-1.27-.56-1.64A.72.72,0,0,1,22.52,39.72Z"/><path class="cls-283" d="M31.5,38.82l7,0a.78.78,0,0,1,.1,1c-.47.51-1.08.31-1.64.34a20.69,20.69,0,0,1-3.52,0,8.61,8.61,0,0,1-1,0,1.1,1.1,0,0,1-.9-.39v0Z"/><path class="cls-284" d="M24.33,43.3c0-2.23-.09-1.75,2.66-1.82l.07.25-.07.65c-1.14.56-1.35,1.65-1.55,2.75a.86.86,0,0,1-.3.23,1,1,0,0,1-.95-.17,1.12,1.12,0,0,1-.23-1A1.06,1.06,0,0,1,24.33,43.3Z"/><path class="cls-285" d="M31.76,37c0,.68-.34.88-1,.87-.95,0-1.9,0-2.85,0,0-.31,0-.62,0-.92l.93,0a.65.65,0,0,1,.89,0h.85a.82.82,0,0,1,.9-.2A.53.53,0,0,1,31.76,37Z"/><path class="cls-286" d="M27.9,26.19H25.25c.06-.72-.31-1.56.77-1.94.46-.17.17-.67,0-1a23.72,23.72,0,0,0-2.57-3.88,1.07,1.07,0,0,0-.86-.36c0-.29,0-.58,0-.86.6,0,.93-.28.91-.91a.75.75,0,0,0,.88-.89c.64-.23,1.72.4,1.78-.94.67.08.92-.3,1-.9,1.35.37,2.15-.93,3.33-1.11.24,0,.18-.45.18-.71h0a.79.79,0,0,1,.87-.21.68.68,0,0,1,.28.25A1.69,1.69,0,0,1,31.34,15a.76.76,0,0,0-.24.58c0,.58,0,1.15-.06,1.73A1,1,0,0,1,30,18.43c-.36,0-.56-.31-.82-.52a1.09,1.09,0,0,0-1.43-.07c-.43.41-1,.66-1.4,1.05-.9.82-.91,1,.08,1.73a20.36,20.36,0,0,0,1.79,2.05,1.71,1.71,0,0,1,.15.92c.06.54.12,1.09-.4,1.49Z"/><path class="cls-287" d="M29.7,26.2v-.9l.07-.15c.69-.51.33-1.28.46-1.93a1,1,0,0,1,.48-.8c.89-.2,1.25.23,1.26,1,0,1,0,2.07,0,3.1,0,.51.13,1.05-.25,1.5a1.08,1.08,0,0,1-1,.27,1.93,1.93,0,0,1-1.19-.52A1.21,1.21,0,0,1,29.7,26.2Z"/><path class="cls-288" d="M28,25.08V23.54c.42-.32.49-.93,1-1.18a.91.91,0,0,1,.93.18,1.51,1.51,0,0,1,.27,1c0,.63.18,1.3-.39,1.8l-.06,0A4.33,4.33,0,0,1,28,25.08Z"/><path class="cls-289" d="M29.72,31.67l-.86-.09V28a.7.7,0,0,1,1,0,3.69,3.69,0,0,1-.12,3.56Z"/><path class="cls-290" d="M29.71,28l-.85,0c.12-.69-.55-1.73.84-1.84l.06,1.59A.14.14,0,0,1,29.71,28Z"/><path class="cls-291" d="M29.75,37h-.89v-.89C29.5,36,29.84,36.27,29.75,37Z"/><path class="cls-292" d="M22.52,39.72v.86l-.06.15c-.48.66-.93,1.35-1.92,1.25-.31,0-.36.34-.5.55a1.1,1.1,0,0,1-.28.2.61.61,0,0,0-.26.21c-.23.52,0,1.25-.71,1.54a3.39,3.39,0,0,1-2.39,0,.79.79,0,0,0-1.31,0c-.8,1.11-1.32,1.25-2.46.65a.32.32,0,0,1,0-.36l0-1.54c.28-.32.6-.6.88-.91h0A1.34,1.34,0,0,1,15,42a1,1,0,0,0,1.14-.65c.47-.4,1-.24,1.57-.25s.95,0,1.24-.48l0,0c.32-.29.61-.6.91-.9l0,0a2.24,2.24,0,0,1,2.72,0Z"/><path class="cls-293" d="M12.62,44.84a.87.87,0,0,1,.05.22c1.38.77,1.74,2.39,2.84,3.41a1.58,1.58,0,0,1,.11,1.89c-.43.84-1.28.53-2,.55a1.78,1.78,0,0,1-.94-.17.65.65,0,0,1-.27-.25c-.08-.16-.21-.34-.18-.51a2.89,2.89,0,0,0-1.41-3.13A3.06,3.06,0,0,1,12.62,44.84Z"/><path class="cls-294" d="M10.82,46.85a6.78,6.78,0,0,0,.78,0c.74-.05,1.08.26,1.05,1s0,1.7,0,2.54c-.44.48-1,.36-1.17-.11-.29-.8-1-1.14-1.52-1.65l-.06-.93C9.89,47.14,10.16,46.8,10.82,46.85Z"/><path class="cls-295" d="M18.91,40.57c.09.68-.22,1-.88.93s-1.18,0-1.77,0a.63.63,0,0,1-.94,0c0-.67.34-.89,1-.88C17.16,40.61,18,40.58,18.91,40.57Z"/><path class="cls-234" d="M22.54,39.69l-2.72,0c0-1.19.91-.81,1.54-.87S22.61,38.79,22.54,39.69Z"/><path class="cls-296" d="M15.32,41.47l.94,0c0,.66-.32.9-1,.88s-1.16,0-1.75,0C13.56,41,14.69,41.69,15.32,41.47Z"/><path class="cls-134" d="M19.84,39.69c.05.66-.24,1-.91.9C18.87,39.92,19.17,39.62,19.84,39.69Z"/><path class="cls-254" d="M13.54,42.39c.08.66-.22,1-.88.91C12.58,42.64,12.88,42.34,13.54,42.39Z"/><path class="cls-297" d="M52.23,24.42c0,.15,0,.37-.07.43-.92.63-.79,1.58-.91,2.51-.14,1.08-1.12.49-1.71.67L49.4,28c.11-1.65-1.08-2.19-2.31-2.69-.13-.8.34-1.18,1-1.31a2.63,2.63,0,0,0,1.25-.67,1.24,1.24,0,0,1,.89-.09,1,1,0,0,1,.31.15c.23.85,1.19.41,1.61.91Z"/><path class="cls-298" d="M54.92,20.79l0,.95a2.19,2.19,0,0,0-1.79,1.77.73.73,0,0,1-1,.08A2.88,2.88,0,0,1,53,19.84a.8.8,0,0,1,1,.06C54.63,19.88,55,20.15,54.92,20.79Z"/><path class="cls-299" d="M46.84,31.59v.89c-.65.08-1-.2-.94-.86a2.49,2.49,0,0,1-.23-2.68.76.76,0,0,1,1-.19c.06.05.11.11.16.16l0,1.82A.61.61,0,0,1,46.84,31.59Z"/><path class="cls-300" d="M49.54,28c0,.67-.34.91-1,.88s-1.17,0-1.76,0h0a.78.78,0,0,1,0-1,2.27,2.27,0,0,1,2.73.11Z"/><path class="cls-198" d="M46.84,31.59v-.86h2.64c0,.27,0,.53,0,.8Z"/><path class="cls-274" d="M52.19,23.5h.91c.06.64-.22,1-.87.91l-.06,0a.63.63,0,0,1-.11-.79Z"/><path class="cls-301" d="M54,19.9c-.48,0-.7.2-1,.67a4.15,4.15,0,0,0-.86,2.93h0a1.11,1.11,0,0,1-1.78,0h0a2,2,0,0,0-1-.68.76.76,0,0,1-.2-.24,3.67,3.67,0,0,1-.52-1.67.37.37,0,0,0-.25-.45c-.91-.12-1.2-1-1.9-1.41a1,1,0,0,1-.15-.79A3.94,3.94,0,0,1,46.63,16c-1.05.16-1.17,1.17-1.86,1.5a1.66,1.66,0,0,1-.73.07,1.13,1.13,0,0,1-.95-.28.91.91,0,0,1-.09-1c.53-.51,1-1.12,1.49-1.63a2,2,0,0,1,2.78-.19c.55.16.59,1.05,1.34.92.62.45.44,1.12.44,1.73,0,1.24.14,1.39,1.4,1.4A2,2,0,0,1,52,19c.4,0,.8,0,1.2,0C53.82,19,54,19.33,54,19.9Z"/><path class="cls-234" d="M52,19c-3.38.07-3.38.07-3.38-3.58,1.42,0,.71,1.13.91,1.78s.91.58,1.34.91h.89Z"/><path class="cls-302" d="M51.33,16.29V15.4l.82,0c0,.29.06.57.08.85Z"/><path class="cls-303" d="M38.5,39.67c0-.29,0-.58,0-.87,1.12,0,2.24,0,3.36,0a5.51,5.51,0,0,1,4,.9c.07,0,.17.06.19.12A5.25,5.25,0,0,1,45.93,44l0,6.53a1.18,1.18,0,0,1-.93.4,16.76,16.76,0,0,1-3.47,0,3.94,3.94,0,0,1-1,0c-.44,0-.86,0-1.08-.47l.21-1.76a1,1,0,0,1,.11-.17c.78-.55,1.66-.28,2.51-.27.31,0,.63,0,.94,0a5.37,5.37,0,0,0,.89-.09c.41-.08.5-.36.5-.74V41c0-.41-.08-.73-.57-.76s-1.11,0-1.66-.08h-1a8.92,8.92,0,0,1-1.79,0C39.15,40.15,38.73,40.14,38.5,39.67Z"/><path class="cls-304" d="M46.84,49.58V46c1.08-.9,2.27-.53,3.44-.3a3.87,3.87,0,0,0,2.58,1.86,4.58,4.58,0,0,1,2.22,1.13.94.94,0,0,1,0,1A12.29,12.29,0,0,1,48.31,51C47.39,50.87,47.32,50.05,46.84,49.58Z"/><path class="cls-305" d="M57.61,55c0,1.81,0,1.81-1.86,1.81s-3.43,0-5.15,0c-.72,0-1.15.19-1.1,1,0,.35,0,.71-.48.76s-1,.22-1.22-.26a1,1,0,0,0-1-.6V55.21c.22-.3.4-.66.83-.67.88,0,1.73-.33,2.62-.34a2.07,2.07,0,0,1,1.23.71,1.32,1.32,0,0,0,2,.18,1.17,1.17,0,0,1,1.52-.24c.69.49,1.06.42,1.23-.44a.84.84,0,0,1,.49-.58.85.85,0,0,1,.91.18A.71.71,0,0,1,57.61,55Z"/><path class="cls-298" d="M46.84,49.58c.19,0,.45,0,.54.1,1.3,1.57,3.13,1,4.51.6a11.69,11.69,0,0,1,3-.71c.56.27.44.78.44,1.25,0,.2,0,.4,0,.6a1.17,1.17,0,0,1-.25.9.71.71,0,0,1-1,0c-.6-.65-1.35-.45-2.07-.49s-1.11.08-1.13.86a.85.85,0,0,1-.53.78c-1.19.22-2.38.6-3.47-.3Z"/><path class="cls-306" d="M27.93,57.68v-.89a1,1,0,0,1,.83-.41,5.87,5.87,0,0,1,.94,0,7.22,7.22,0,0,1,.93,0c.31,0,.62,0,.94,0s.65,0,1,0c1.16,0,2.32,0,3.48,0h6.2c.6,0,1.2,0,1.8,0a6.56,6.56,0,0,1,1,0,1,1,0,0,1,.88.39v.91c-.46.61-1.12.42-1.73.44h-1a22.33,22.33,0,0,1-3.47,0h-1a26.33,26.33,0,0,1-4.35,0c-.61,0-1.22.05-1.82,0s-1.19,0-1.78,0a6.43,6.43,0,0,1-1,0,1,1,0,0,1-.87-.37Z"/><path class="cls-307" d="M27.94,54.09v-.92a1.15,1.15,0,0,1,.93-.39c1-.1,1.93,0,2.9,0s1.8,0,2.69,0c1,0,2.1,0,3.14,0s2,0,3,0h3.23a1.32,1.32,0,0,1,1.2.42c.65,0,1,.24.93.94a1,1,0,0,1-.86.38,5.14,5.14,0,0,1-1,0c-.33,0-.66,0-1,0-1.14,0-2.29,0-3.43,0H33.43c-.6,0-1.2,0-1.8,0-.32,0-.64,0-1,0s-.63,0-.94,0a5.87,5.87,0,0,1-.94,0A1,1,0,0,1,27.94,54.09Z"/><path class="cls-308" d="M50.39,46l-3.54,0V44.17c.49-.47.59-1.43,1.58-1.29.57.12.72-.34,1-.68a1,1,0,0,1,.33-.15A2.29,2.29,0,0,1,51,42c.63.13,1,.71.63,1.15C51,44,51,45,50.55,45.88Z"/><path class="cls-309" d="M48.58,43.27c-.34,0-.75,0-.87.45s-.5.43-.86.45a1.18,1.18,0,0,0-.07-.2,1.35,1.35,0,0,1-.42-1.11c0-1.6,0-3.21,0-4.81,0-.42,0-.83.48-1l1.79,0,.89.08v.83c-1.8-.14-1.8-.14-1.8,1.72,0,.3,0,.59,0,.89,0,1.37.17,1.47,1.37,1a1.59,1.59,0,0,1,.44,0,.62.62,0,0,1,0,.89h0A8.58,8.58,0,0,1,48.58,43.27Z"/><path class="cls-310" d="M46.84,37l-.06,7h-.85c0-1.43,0-2.85,0-4.27,0-1.2,0-2.4,0-3.59h.9Z"/><path class="cls-311" d="M46.84,53.17l3.55,0a.78.78,0,0,1,0,1.32c-1.1.65-2.4.28-3.55.69Z"/><path class="cls-312" d="M45,53.15H40.51a.72.72,0,0,1-.17-.89.78.78,0,0,1,.29-.25c.68-.4,1.4,0,2.1-.16a3.65,3.65,0,0,1,2.09.16.62.62,0,0,1,.24.29Z"/><path class="cls-313" d="M43.24,57.71h.84a.58.58,0,0,1,.07.86l-.06,2.71c-.61,0-.87-.34-.87-.92s0-1.19,0-1.79A.56.56,0,0,1,43.24,57.71Z"/><path class="cls-314" d="M44.15,58.56c0-.29,0-.57-.07-.86l1.83,0c0,.22,0,.44,0,.66s.12.8-.28,1-.54-.31-.76-.56S44.4,58.59,44.15,58.56Z"/><path class="cls-315" d="M45,54.11l.93,0v2.68l-.94,0A2.18,2.18,0,0,1,45,54.11Z"/><path class="cls-316" d="M45,50.52l.93,0c-.19.65.53,1.72-.85,1.8l-.08,0A1.1,1.1,0,0,1,45,50.52Z"/><path class="cls-317" d="M54.93,51.36l0-.43c.73-.64.18-1.7.78-2.38a8,8,0,0,0,1.68-1,1.5,1.5,0,0,1,1.87,0,1.3,1.3,0,0,1,.42,1.69c-.38,1.18-.15,1.49,1.13,1.6a2.89,2.89,0,0,1,1.29.28.78.78,0,0,1,.25.29.68.68,0,0,1-.26.86c-.74,0-1.48,0-2.22,0-1-.07-1.44.36-1.35,1.37,0,.44,0,.89,0,1.33h-.89l0-.88c-.15-.2-.37-.35-.42-.63a1.81,1.81,0,0,0-1.62-1.66A1,1,0,0,1,54.93,51.36Z"/><path class="cls-318" d="M57.56,61.22c0-.27,0-.54,0-.81h2.75c0,.27,0,.54,0,.81Z"/><path class="cls-319" d="M62.06,52.29l0-.92a.58.58,0,0,1,.87,0l0,0a2.91,2.91,0,0,1,0,3.12c0,.16-.05.33-.07.5l-.85,0C62.09,54.07,62.08,53.18,62.06,52.29Z"/><path class="cls-295" d="M63,54.5l0-3.12c1.09,0,.85.76.9,1.39s-.16,1.36.87,1.3V55C64.1,55.13,63.67,54.43,63,54.5Z"/><path class="cls-320" d="M43.24,57.71l0,.85c-.69,0-.91.33-.9,1,0,1.08,0,2.17,0,3.25,0,.63-.2,1-.89,1,0-.9,0-1.8,0-2.69,0-1.78,0-1.78-1.78-1.58-.71-.59-.58-1.19,0-1.8Z"/><path class="cls-321" d="M45.93,28.88c0,.91,0,1.83,0,2.74H44.17L44,31.52c-.62-.7-.33-1.56-.39-2.35a10.1,10.1,0,0,1,0-1.23,16.55,16.55,0,0,0,.06-2.54c0-.46-.3-.64-.59-.85a.93.93,0,0,1-.17-.72,1.21,1.21,0,0,1,.1-.36c.53-.23.67-.88,1.2-1.12a.9.9,0,0,1,.94.19c.44.52.3,1.14.31,1.74,0,.77,0,1.53,0,2.3A1.47,1.47,0,0,0,46.09,28,.75.75,0,0,1,45.93,28.88Z"/><path class="cls-322" d="M45.92,36.11l-.89,0L44.86,36a1.16,1.16,0,0,1-.27-.93c0-.6-.2-1.23.41-1.67l0-.1c.63,0,.94.31.9,1S45.91,35.51,45.92,36.11Z"/><path class="cls-323" d="M54.89,48.68c-.8,0-1.65.18-2.17-.71-.08-.13-.4-.15-.62-.17-1.67-.18-1.67-.18-1.71-1.83h0a8.4,8.4,0,0,1,1.71-2c.38-.41.52-.75.12-1.24s-.53-.83,0-1.25a1.68,1.68,0,0,1,1,.27c1.29.92,2.16.89,3.54-.07a1.07,1.07,0,0,1,1.72.68.68.68,0,0,1-.78.46c-.5,0-.68.31-.9.63a.73.73,0,0,1-.29.15,2.73,2.73,0,0,1-.93.12c1,1,.66,2.1.44,3.21-.6.4-.65,1.14-1,1.68Z"/><path class="cls-304" d="M52.21,41.49a1,1,0,0,0,.54,1A1,1,0,0,1,52.88,44,7.21,7.21,0,0,1,50.39,46c0-.56,0-1.12,0-1.68s0-.9.59-1c.26-.07.49-.25.39-.56s-.41-.28-.66-.29H49.5c0-.3,0-.59,0-.89l.87,0a1.16,1.16,0,0,1,1.82,0Z"/><path class="cls-304" d="M56.69,43.28c0-1.44,1.18-.68,1.83-.91.63,0,.92.29.92.9l-.09.17a1.14,1.14,0,0,1-.89.26,5,5,0,0,1-1,0A.79.79,0,0,1,56.69,43.28Z"/><path class="cls-324" d="M63,51.4l-.87,0h0a2.2,2.2,0,0,1-.29-2.49.72.72,0,0,1,.32-.25c.58,0,.88.27.85.88S63,50.77,63,51.4Z"/><path class="cls-298" d="M60.26,44.22l.09,2.64-.16.16c-.75.26-1.16-.08-1.24-.8a2.62,2.62,0,0,1,.3-2A.7.7,0,0,1,60.26,44.22Z"/><path class="cls-323" d="M52.21,41.49H50.39c0-.69.33-.9,1-.89S52.24,40.9,52.21,41.49Z"/><path class="cls-296" d="M60.35,46.86c.64,0,.91.26.89.88l-.14.16c-1,.1-1.09,0-.87-1Z"/><path class="cls-325" d="M59.38,38l0,.83c-.67.08-1-.22-.91-.88Z"/><path class="cls-293" d="M60.26,44.22l-.87,0-.13-.1a.6.6,0,0,1,.09-.78l.09,0C60.11,43.24,60.37,43.57,60.26,44.22Z"/><path class="cls-326" d="M61.24,47.74c.62,0,.94.26.89.9l-.09.11c-1,.18-1.11.07-.9-.92Z"/><path class="cls-265" d="M11.75,54.06l0-1.74c-.44-.77-.16-1.19.66-1.33.32,0,.65-.09,1,.06a1,1,0,0,1,.32.15c.16.44.6.64.85,1a.75.75,0,0,0,.75.55.31.31,0,0,1,.21.06c1.46,1.44,3.3.6,5,.82.47.06,1-.11,1.38.25a1.14,1.14,0,0,1,.37,1A1.92,1.92,0,0,1,21.75,56a1,1,0,0,1-.89.17c-1.51-1-1.54-1-2.87.38a1.51,1.51,0,0,1-.92.56,1.92,1.92,0,0,1-.86.06,1.46,1.46,0,0,1-.87-.16c-.62-.59-.58-1.57-1.29-2.16a1.16,1.16,0,0,0-.76-.33C12.73,54.53,12.14,54.62,11.75,54.06Z"/><path class="cls-327" d="M12.66,51.38c-.69-.07-.95.3-.93.94-.58,0-.9-.27-.87-.88s-.22-1-.89-1V48.7c.95-.06,1.94-.22,1.84,1.29,0,.5.48.46.85.48h0A.66.66,0,0,1,12.66,51.38Z"/><path class="cls-328" d="M11.75,54.06l1.75.06a.53.53,0,0,1,.05.84l-1.81,0Z"/><path class="cls-329" d="M9.06,51.38H10l0,.93-.84-.05C9.08,52,9.07,51.67,9.06,51.38Z"/><path class="cls-330" d="M21.63,55.87a1.26,1.26,0,0,1,.24-.9,1.2,1.2,0,0,1,1.79-.12,1.6,1.6,0,0,0,2.22,0A.76.76,0,0,1,27,55l0,1.76-.87,0a1,1,0,0,1-.73.38c-.65.16-1.42-.18-1.95.48h-.94A4.45,4.45,0,0,1,21.63,55.87Z"/><path class="cls-331" d="M21.63,55.87c1.4,0,.75,1.09.89,1.76l-1.73.09a.85.85,0,0,1-.87.19.81.81,0,0,1-.28-.24c-.36-1.05.35-1.43,1.12-1.76Z"/><path class="cls-332" d="M23.46,57.64c0-1.49,1.14-.63,1.76-.85a.57.57,0,0,1,0,.85Z"/><path class="cls-333" d="M25.22,57.64v-.85h.92c0,.28,0,.57,0,.86Z"/><path class="cls-334" d="M19.83,57.68l1,0c0,.28-.05.56-.07.84l-.86.06-.05-.1A.55.55,0,0,1,19.83,57.68Z"/><path class="cls-335" d="M19.83,57.68l0,.84-2.64,0a.73.73,0,0,1-.06-1,2.24,2.24,0,0,1,2.73.16Z"/><path class="cls-336" d="M17.14,57.67l0,.88H16.3l-.06-.86a.65.65,0,0,1,0-.91h.9A.61.61,0,0,1,17.14,57.67Z"/><path class="cls-337" d="M13.55,55c0-.28,0-.56-.05-.84,1.24.15,1.85,1,1.85,2.64a.62.62,0,0,1,0,.88h-.88c0-.6-.23-.94-.88-.87,0-.28,0-.57-.07-.86Z"/><path class="cls-338" d="M15.36,57.64v-.88l.88,0c0,.31,0,.61,0,.91Z"/><path class="cls-339" d="M35.12,65.76l-1.75,0-.06,0c-.17-.19-.4-.37-.4-.65a50.89,50.89,0,0,1,0-5.24,1,1,0,0,1,.25-.49,3.07,3.07,0,0,1,2.87-.14c.79,1.14.4,2.42.42,3.65-.05.6,0,1,.83.78a.89.89,0,0,1,1,.22c.25.85-.22,1.19-1,1.44S35.81,65.28,35.12,65.76Z"/><path class="cls-340" d="M38.27,64a11.82,11.82,0,0,0-1.18.13c-.69.15-1.05-.1-1.06-.81a1.3,1.3,0,0,1,.85-.45c1-.08,1.39-.7,1.33-1.67-.05-.62.07-1.25.07-1.88s-.14-1.17.42-1.59h.91l0,1.8,0,3.35a3.13,3.13,0,0,0-.49.83C39,64,38.69,64.26,38.27,64Z"/><path class="cls-341" d="M38.27,64c.57-.23.55-1.16,1.34-1.13,0,.9.15,1.79-.79,2.46a1.81,1.81,0,0,1-1.15.46H35.12c.42-.9,1.39-.47,2.05-.81A1.91,1.91,0,0,0,38.27,64Z"/><path class="cls-342" d="M31.53,65.77V59.48a.74.74,0,0,1,1,0,1.6,1.6,0,0,1,.31,1.14c0,1.33,0,2.65,0,4a1.39,1.39,0,0,1-.44,1.19h-.91Z"/><path class="cls-343" d="M32.44,65.77l0-6.31.08-.13a.6.6,0,0,1,.7-.06.38.38,0,0,1,.15.24l0,6.25Z"/><path class="cls-344" d="M30.6,61.7h-.83l-.08-2.21a.78.78,0,0,1-.1-.94.7.7,0,0,1,.93-.15.93.93,0,0,0,.14.14Z"/><path class="cls-345" d="M29.75,58.59l-.06.91-.82,0,0-1.75h.89A.62.62,0,0,1,29.75,58.59Z"/><path class="cls-346" d="M32.41,59.46l-.87,0c0-.63-.2-1-.88-.93h0a.59.59,0,0,1,0-.86h1.79a1.07,1.07,0,0,1,0,1.76Z"/><path class="cls-347" d="M30.67,15.45c0-.25-.11-.62.11-.72.9-.42.73-1.22.78-2,.26-.34.55-.29.86-.06h.93a.76.76,0,0,1,.21.79c-.15.44-.89.52-.7,1.16,0,.3,0,.58,0,.87a1.21,1.21,0,0,1-.28.88,1,1,0,0,1-.9.18C31.05,16.46,31.12,15.74,30.67,15.45Z"/><path class="cls-348" d="M34.21,12.71c0-1.44,1.19-.67,1.83-.92l0,0a1.39,1.39,0,0,1,.14,1.92,1.64,1.64,0,0,1-2,0A.8.8,0,0,1,34.21,12.71Z"/><path class="cls-349" d="M34.21,12.71l0,.88a.53.53,0,0,1-.78.15l-.11-.14c0-.29,0-.58,0-.87Z"/><path class="cls-300" d="M32.42,12.72l-.86.06,0-.08a.59.59,0,0,1,0-.86h.9C32.43,12.13,32.42,12.43,32.42,12.72Z"/><path class="cls-248" d="M31.54,11.84l0,.86-.89,0C30.56,12,30.88,11.76,31.54,11.84Z"/><path class="cls-350" d="M36.92,11.83l1.77,0c.69.58.55,1.23.15,1.9a1.71,1.71,0,0,1-2,0A1.39,1.39,0,0,1,36.92,11.83Z"/><path class="cls-351" d="M38.7,13.59c0-.58,0-1.16,0-1.73.38,0,.76,0,.92.42s.53.46.91.44l0,.86A1,1,0,0,1,38.7,13.59Z"/><path class="cls-352" d="M36.92,11.83V13.6a.52.52,0,0,1-.45.26.51.51,0,0,1-.45-.27V11.83Z"/><path class="cls-284" d="M42.29,12.75l.09.87a.71.71,0,0,1-.1.14.6.6,0,0,1-.77,0l-.1-.14v-.9Z"/><path class="cls-353" d="M36.48,13.66l.43-.06h3.58l.92.05h0a.76.76,0,0,1,.07,1c-.85.62-1.83.24-2.75.34-.78-.09-1.61.25-2.33-.3A.71.71,0,0,1,36.48,13.66Z"/><path class="cls-354" d="M47.27,14.51a3.19,3.19,0,0,0-3.2,1.34,1.06,1.06,0,0,1-.84.46l-.15-.07a.87.87,0,0,1-.27-.76c.1-.59-.59-.61-.74-1a.78.78,0,0,1,.19-.82.25.25,0,0,0,.12,0c1.25,0,2.51,0,3.76,0C46.77,13.62,47.25,13.77,47.27,14.51Z"/><path class="cls-169" d="M50.86,18.12c-.64,0-1.43.17-1.34-.91A1.26,1.26,0,0,1,50.86,18.12Z"/><path class="cls-355" d="M33.32,31.6l0-5.15a7.29,7.29,0,0,0,.43-2.74c0-1.75,0-3.5,0-5.25a1.75,1.75,0,0,1,.35-1.36,1,1,0,0,1,1-.11c.34.16.42.58.83.72a1.41,1.41,0,0,1,1,1.58c-.43,2.86.75,4.95,3,6.63A2.72,2.72,0,0,1,41,28.61c-.15,1,.43,2.1-.46,3h-.88c-.57-.41-.52-1-.51-1.62A2.79,2.79,0,0,0,38.42,28c-.17-.2-.36-.4-.66-.27s-.28.33-.3.55c-.05.67,0,1.34,0,2a1.5,1.5,0,0,1-.51,1.29Z"/><path class="cls-356" d="M40.5,31.59a7,7,0,0,1,0-1.45c.51-2.55-.9-4.2-2.72-5.54a3.16,3.16,0,0,1-1.33-2.76c0-.56,0-1.12,0-1.68,0-.89.14-1.82-1.06-2.15-.33-.09-.27-.49-.29-.78.63-.83,1.53-.46,2.28-.41a5.75,5.75,0,0,0,2.3,0,1,1,0,0,1,1,.35A11.74,11.74,0,0,1,41,21.52c0,.74,0,1.5,0,2.24a1.39,1.39,0,0,0,.7,1.5,1.51,1.51,0,0,1,.16.81c.09,1.48,0,2.95,0,4.43a1.28,1.28,0,0,1-.42,1.09Z"/><path class="cls-357" d="M36.92,31.6c0-1.23,0-2.45,0-3.68,0-.38,0-.77.44-.94a1,1,0,0,1,1.2.34,3.45,3.45,0,0,1,1.06,2.82,14,14,0,0,0,0,1.45Z"/><path class="cls-358" d="M45,33.44v1.74a3.46,3.46,0,0,0-.71,1.06.66.66,0,0,1-.29.17,1.55,1.55,0,0,1-1.25,0,4.92,4.92,0,0,1-.94-1.09c-.07-.64-1.12-1.08-.39-1.9Z"/><path class="cls-359" d="M41.45,31.59l0-5.61a.76.76,0,0,1,1-.08c.51.48.31,1.12.33,1.69a10.18,10.18,0,0,1-.16,3.77.72.72,0,0,1-.31.29Z"/><path class="cls-360" d="M38.7,35.17V33.44h1.8a1.31,1.31,0,0,1,.18,1.84,1.14,1.14,0,0,1-1,.3C39.27,35.58,38.9,35.56,38.7,35.17Z"/><path class="cls-361" d="M40.5,35.17V33.44h.9c-.06.7.76,1,.67,1.76A.91.91,0,0,1,40.5,35.17Z"/><path class="cls-362" d="M44.17,31.61a.83.83,0,0,1-1,.9c-.61,0-.9-.25-.88-.86l0-.09a1.12,1.12,0,0,1,1.77,0Z"/><path class="cls-363" d="M32.63,35.16l.71.08a.7.7,0,0,1,.12.92.92.92,0,0,1-.9.34,1.87,1.87,0,0,1-1-.14.87.87,0,0,1-.27-.27.71.71,0,0,1,.23-.86Z"/><path class="cls-364" d="M31.5,37h-.9l0-.84a.63.63,0,0,1,.88-.07l0,.1A.53.53,0,0,1,31.5,37Z"/><path class="cls-365" d="M31.52,36.05l-.88.07c-.06-.67.21-1,.92-.89C31.54,35.5,31.53,35.78,31.52,36.05Z"/><path class="cls-366" d="M31.55,26.68c0-1.07,0-2.14,0-3.2,0-.6-.23-.91-.86-.85l-.17-.08a1,1,0,0,1-.25-.87,1.18,1.18,0,0,1,.12-.9c1-.29.49-1.4,1.07-1.91a1.26,1.26,0,0,1,.38-.15c.75,0,1,.44,1,1.13,0,.93,0,1.85,0,2.78,0,.73,0,1.45,0,2.18A1.36,1.36,0,0,1,32.45,26l-.05.65A.57.57,0,0,1,31.55,26.68Z"/><path class="cls-367" d="M34.21,17.25c0,2.33,0,4.66,0,7a2.69,2.69,0,0,1-.85,2.21c0-.16,0-.32,0-.49-.63-.51-.38-1.23-.42-1.87,0-.49,0-1,0-1.45,0-1.5-.05-3,0-4.48a1.41,1.41,0,0,1,.32-1A.69.69,0,0,1,34.21,17.25Z"/><path class="cls-368" d="M33.28,22.58c0,1.13,0,2.26,0,3.38l-.85,0V22.64A.55.55,0,0,1,33.28,22.58Z"/><path class="cls-369" d="M31.55,26.68l.85,0v2.7l-.84,0c-.56-.44-.43-.91-.06-1.4Z"/><path class="cls-370" d="M33.32,36.07c0-.28,0-.56,0-.83l1.77-.09.25.09a.73.73,0,0,1,0,1C34.65,36.62,33.94,36.82,33.32,36.07Z"/><path class="cls-371" d="M35.34,36.06c0-.28,0-.55,0-.82l1.55-.07H38.7l.93,0a.73.73,0,0,1,.12,1,.81.81,0,0,1-.34.24,14.79,14.79,0,0,1-3.39.12A.7.7,0,0,1,35.34,36.06Z"/><path class="cls-366" d="M31.5,28l.06,1.4-.06,2.17-.85.11,0-.1a3.5,3.5,0,0,1,0-3.54Z"/><path class="cls-372" d="M30.64,28l0,3.54-.88,0c0-1.2,0-2.39,0-3.58,0-.07,0-.14,0-.21A1.14,1.14,0,0,1,30.64,28Z"/><path class="cls-373" d="M33.31,39.72h3.62a1.47,1.47,0,0,1,.5,1.3q0,3.18,0,6.36a1.5,1.5,0,0,1-.51,1.3h-3.6a1.46,1.46,0,0,1-.45-1.31q0-3.18,0-6.34A1.42,1.42,0,0,1,33.31,39.72Z"/><path class="cls-374" d="M36.92,48.68q0-4.47,0-9l1.57,0,1.11,0a1.49,1.49,0,0,1,.51,1.3c0,2.13,0,4.25,0,6.38a1.49,1.49,0,0,1-.5,1.3h-2.7Z"/><path class="cls-186" d="M27,55a1,1,0,0,0-.72.2,1.86,1.86,0,0,1-2.92,0c-.44-.42-1-.19-1.47-.27-.08-.29-.15-.59-.23-.88a.61.61,0,0,1,.58-.36,10.39,10.39,0,0,1,2.23-.1c.81,0,1.14-.36,1.26-1.2.23-1.62-.63-2.68-1.66-3.69A2.29,2.29,0,0,1,24,47.09a1.3,1.3,0,0,1,.14-.32c.87-.22.45-1.3,1.1-1.68h0a1.49,1.49,0,0,0,.47-1c.11-.77.51-1.13,1.29-.64Z"/><path class="cls-375" d="M31.52,39.71h.89a1.28,1.28,0,0,1,.47,1.19q0,3.29,0,6.58a1.34,1.34,0,0,1-.46,1.19h-.89C31.53,45.7,31.52,42.7,31.52,39.71Z"/><path class="cls-376" d="M32.42,48.68c0-3,0-6,0-9h.9c0,3,0,6,0,9Z"/><path class="cls-377" d="M28.85,50.51h3.57a2.59,2.59,0,0,0,1,.49c.62.29,1,.76.54,1.51a3.24,3.24,0,0,1-2.13.1,1,1,0,0,1-.36-.13,1.32,1.32,0,0,0-1.37-.67,1.42,1.42,0,0,1-1.4-.41A.73.73,0,0,1,28.85,50.51Z"/><path class="cls-378" d="M34,52.24c-.21-.4-.41-.81-.94-.86s-.63-.41-.63-.86h2.7c.59.53,1.7.81.91,2a1.79,1.79,0,0,1-1.58.1A.59.59,0,0,1,34,52.24Z"/><path class="cls-379" d="M36,52.24c.13-.79-1-.93-.89-1.72h1.8c1.29.79,1.34.89.94,1.93a1.1,1.1,0,0,1-.37.16C36.93,52.74,36.37,52.89,36,52.24Z"/><path class="cls-380" d="M27,43.5c-.52,0-.87.18-.86.76s-.31.87-.9.84c0-.3,0-.59,0-.89,0-1.64,0-1.66,1.75-1.83Z"/><path class="cls-381" d="M37.81,52.25c.09-.77-.78-1.06-.89-1.73h1.79c.53.57,1.36,1,.61,2C38.75,52.81,38.22,52.86,37.81,52.25Z"/><path class="cls-382" d="M39.38,52.25c-.13-.61-.81-1-.67-1.73l.69-.08,1.11.08a1.06,1.06,0,0,1,0,1.75l0,0C40.13,52.6,39.74,52.69,39.38,52.25Z"/><path class="cls-383" d="M27.94,54.09l.9,0a.9.9,0,0,1,.37.8,1.4,1.4,0,0,1-.13.92.7.7,0,0,1-.28.26.75.75,0,0,1-.86-.23Z"/><path class="cls-319" d="M28.85,50.51v.88a.73.73,0,0,1,.18.84.63.63,0,0,1-.26.25.68.68,0,0,1-.82-.22C28.17,51.64,27.26,50.43,28.85,50.51Z"/><path class="cls-384" d="M27.94,55.86l.83,0c.34.25.31.54.08.85l-.91,0Z"/><path class="cls-385" d="M28,52.26l.8.05c.36.25.31.54.09.85h-.92Z"/><path class="cls-386" d="M28,48.66l.88,0h0a.65.65,0,0,1,0,.9C28.18,49.64,27.87,49.35,28,48.66Z"/><path class="cls-387" d="M28.86,49.57l0-.9h.9l0,0a.59.59,0,0,1,0,.86Z"/><path class="cls-388" d="M29.74,49.55l0-.86.88,0,.07.08a.56.56,0,0,1-.06.83Z"/><path class="cls-389" d="M30.61,49.56l.06-.83.87,0C31.62,49.41,31.27,49.66,30.61,49.56Z"/><path class="cls-390" d="M35.34,36.06l4.29.06a.58.58,0,0,1,0,.87H32.42a.58.58,0,0,1,0-.85l.88-.07Z"/><path class="cls-391" d="M39.61,37l0-.87,0,0A2.5,2.5,0,0,1,42.35,36a.76.76,0,0,1,0,1Z"/><path class="cls-392" d="M42.33,37l0-.86c.15-.19.32-.15.5-.05l1.34,0a.59.59,0,0,1,0,.88Z"/><path class="cls-393" d="M44.1,37l0-.88h0A.64.64,0,0,1,45,36l0,.11C45.07,36.81,44.73,37.06,44.1,37Z"/><path class="cls-394" d="M32.44,36.14l0,.85-.66,0L31.5,37l0-.81Z"/><path class="cls-395" d="M24.33,43.3v.88a1.39,1.39,0,0,0-.44,1.28A2.05,2.05,0,0,1,23.55,47a3.72,3.72,0,0,1-4.69-1.46c-.15-.27-.34-.64-.16-.83.67-.66.52-1.68,1.14-2.34h0c.17-.15.31-.41.52-.39,1.11.1,1.68-.59,2.17-1.42h0c1.08,0,.89.76.91,1.41S23.32,43.34,24.33,43.3Z"/><path class="cls-282" d="M23.41,46.86c0-.58,0-1.16,0-1.74s.22-1,.88-.94c0,.31,0,.62,0,.93a1.11,1.11,0,0,1,0,1.77h0a.57.57,0,0,1-.7.22A.43.43,0,0,1,23.41,46.86Z"/><path class="cls-311" d="M24.33,46.88l0-1.77.88,0C25.06,45.75,25.77,46.86,24.33,46.88Z"/><path class="cls-396" d="M27.94,22.62a2.2,2.2,0,0,1-1.8-1.81c-.73-1.28-.6-1.69.76-2.25a1.25,1.25,0,0,0,.48-.27A1.08,1.08,0,0,1,28.77,18c.52.27.52.77.51,1.27a18.58,18.58,0,0,1-.05,2.11c0,.12-.09.23-.13.35-.22.42-.82.41-1,.87Z"/><path class="cls-397" d="M28.81,21.68c0-.92,0-1.85,0-2.78,0-.25,0-.54-.29-.66s-.46.07-.63.29-.33.41-.49.41c-1.47-.07-1.28.95-1.27,1.87-1.12-.55-1.24-1.16-.34-2s1.49-1.91,3-1.64c.63.11,1,.26.95.93a1.16,1.16,0,0,1,.4.95c0,.92.32,1.88-.32,2.73A.71.71,0,0,1,28.81,21.68Z"/><path class="cls-398" d="M29.76,19l0-.9c.64,0,.93-.29.91-.91a1.13,1.13,0,0,1,.94-.4c.61,0,1.3-.31,1.73.43v.88c-.4.69-1.39.2-1.8.89h0a.93.93,0,0,1-.88.35A1,1,0,0,1,29.76,19Z"/><path class="cls-399" d="M31.54,17.21h-.9l0-1.77c.69-.09.87.32.86.89A.61.61,0,0,1,31.54,17.21Z"/><path class="cls-192" d="M28.85,22.66c0,.63-.28.9-.89.88,0-.31,0-.61,0-.92h0a.61.61,0,0,1,.72-.2A.41.41,0,0,1,28.85,22.66Z"/><path class="cls-400" d="M29.76,25.33v-1.8a.57.57,0,0,1,.85,0C30.45,24.17,31.15,25.24,29.76,25.33Z"/><path class="cls-401" d="M30.62,23.51l-.85,0c0-.3,0-.61-.05-.91a.56.56,0,0,1,.86,0l.09,0C30.66,22.92,30.64,23.21,30.62,23.51Z"/><path class="cls-402" d="M30.58,22.6l-.86,0-.87,0,0-.08a.62.62,0,0,1,0-.88v0l.92,0a.58.58,0,0,1,.85,0Z"/><path class="cls-282" d="M19.84,42.39c0,.76.18,1.57-.7,2.07-.28.17,0,.51.09.8.63,1.52,2.07,1.34,3.29,1.61a3.8,3.8,0,0,0,.89,0l0,0a.77.77,0,0,1,.19.84c-.31.52-.85.5-1.36.56-.29,0-.63,0-.77.31s.2.51.41.69l.4.38c1.19,1.17,1.21,1.36.26,2.82a3.82,3.82,0,0,1-2.19.2,1,1,0,0,1-1-1.13c0-.71-.06-1.41-.1-2.11-.05-.9-.3-1-1.13-.8a1.8,1.8,0,0,0-1.51,2,.94.94,0,0,1-.84,1c-.79.09-1.61.37-2.29-.33h0a.67.67,0,0,1,0-.91h.12c.56-.13,1.36.35,1.64-.49a1.78,1.78,0,0,0-1-2.1,1.11,1.11,0,0,1-.7-1.11.72.72,0,0,0-.45-.8c-.44-.17-.44-.55-.42-.93,1.06.41,1.67-.47,2.45-.87a.25.25,0,0,1,.28-.06.86.86,0,0,1,.18,1.12c-.57,1.09.23,1.13.92,1.36.13-.88-1-1.46-.39-2.35l.14-.08c.48,0,1,0,1.45,0,.79,0,1.33-.14,1.25-1.09C18.91,42.49,19.33,42.36,19.84,42.39Z"/><path class="cls-282" d="M22.53,40.58c-.14,1.44-.72,1.83-2.69,1.81,0-.25,0-.71.2-.69C21.08,41.75,21.59,40.69,22.53,40.58Z"/><path class="cls-403" d="M15.35,44.2h-.23c.21-.31.17-.89.74-.81s.35.49.39.8v0A.63.63,0,0,1,15.35,44.2Z"/><path class="cls-284" d="M13.53,50.49v.91l-.87,0v-.91Z"/><path class="cls-311" d="M49.5,23.52c0,.68-.29.92-.93.9s-1.17.17-1.31.89.28,1.49-.48,2a.93.93,0,0,1-1-.12c-.59-.85-.19-1.82-.3-2.72a3.54,3.54,0,0,1,.22-1.85c.58-.76,1.4-.28,2.11-.42s1.24-.21,1.69.41h0A.61.61,0,0,1,49.5,23.52Z"/><path class="cls-404" d="M46.77,27.14c.18-.6-.29-1.38.49-1.83.94.06,1.93-.27,2.54,1,.39.8-.59,1.09-.31,1.7H46.83A.56.56,0,0,1,46.77,27.14Z"/><path class="cls-405" d="M50.4,23.53l1.78,0c0,.3,0,.6,0,.9C51.51,24.24,50.44,24.93,50.4,23.53Z"/><path class="cls-406" d="M49.5,23.52c0-.29,0-.59,0-.89.68-.08,1,.23.91.89Z"/><path class="cls-407" d="M46.77,27.14l.06.86,0,.92-.87,0c0-.28,0-.57,0-.85a.63.63,0,0,1,0-.94Z"/><path class="cls-305" d="M47.71,22.61c-.6.38-1.2-.07-1.8,0l-.14-.06c-.55-.34,0-1.29-.81-1.48a.93.93,0,0,1-.21-.23c-.35-.49.11-1.34-.73-1.61a.69.69,0,0,1-.2-.28,1.68,1.68,0,0,1-.08-.89.93.93,0,0,1,.36-.81l.69,0a3.12,3.12,0,0,1,2,.91l0,.87c.17.19.39.35.42.63a4.19,4.19,0,0,0,.61,2.06A.73.73,0,0,1,47.71,22.61Z"/><path class="cls-406" d="M47.71,22.61c0-.14,0-.36-.08-.42-1.16-.84-.77-2.07-.81-3.18.61-.1.83.69,1.11.7,1.42,0,1.51.85,1.42,1.95,0,.28.16.63.14,1Z"/><path class="cls-408" d="M43.23,16.31v.89a1.1,1.1,0,0,1,.37.73,1.18,1.18,0,0,0,.5,1.09l0,0a.84.84,0,0,1,.19.89c-.47.32-.68.89-1.18,1.19-.34.11-.81.1-.91-.17-.41-1.19-1.68-2.13-1.12-3.61.25-.54.92-.65,1.19-1.17a.74.74,0,0,1,.87.21Z"/><path class="cls-326" d="M46.8,18.14c-.79-.05-1.73.24-2-.91.47-1.38,1.23-2,2.27-1.8.41.08.87.41.44.67C46.6,16.64,46.87,17.42,46.8,18.14Z"/><path class="cls-327" d="M43.24,18.09V17.2l.86.05v.9A.59.59,0,0,1,43.24,18.09Z"/><path class="cls-283" d="M39.62,48.68q0-4.49,0-9h1.81a1.34,1.34,0,0,1,.45,1.21c0,1.12,0,2.24,0,3.36a3.39,3.39,0,0,0,.66,2.62,1.23,1.23,0,0,1-.22,1.8Z"/><path class="cls-409" d="M44.11,48.68h-.9a1.21,1.21,0,0,1-.45-1,1.51,1.51,0,0,0-.22-.84c-1.21-2-.73-4.07-.37-6.15,1-.29,1.42-.07,1.48.92a12.05,12.05,0,0,1,0,1.9,2,2,0,0,0,.79,1.94C44.52,46.57,44.93,47.69,44.11,48.68Z"/><path class="cls-410" d="M44.11,48.68l0-3.16a2.27,2.27,0,0,1-.43-1.36c0-1.13,0-2.25,0-3.37a1.27,1.27,0,0,1,.46-1.09c.7-.06.91.3.91.95q0,3.54,0,7.08C45,48.37,44.81,48.74,44.11,48.68Z"/><path class="cls-411" d="M42.33,40.81c0,1.38,0,2.76,0,4.14a2.15,2.15,0,0,0,.62,1.92c.53.44.21,1.2.27,1.82h-.9a2.81,2.81,0,0,0-.69-2.47c-.28-.25-.2-.7-.2-1.06V39.7h.91A.73.73,0,0,1,42.33,40.81Z"/><path class="cls-412" d="M42.33,40.81v-1.1h1.78c0,1.94,0,3.88,0,5.82a1.09,1.09,0,0,1-.88-1.31c0-.81,0-1.63,0-2.44C43.23,41.14,43,40.78,42.33,40.81Z"/><path class="cls-413" d="M45,50.52v1.75l-2.23,0c-.27-.27-.67-.32-1-.53s-.74-.66-.37-1.21Z"/><path class="cls-414" d="M41.41,50.51c.1.85,1.26.88,1.34,1.74l-2.24,0V50.52Z"/><path class="cls-415" d="M55.82,48.71c-.14.81.37,1.89-.92,2.22l0-1.36c0-.3,0-.6,0-.89h0a.58.58,0,0,1,.7-.21A.43.43,0,0,1,55.82,48.71Z"/><path class="cls-406" d="M50.4,54.52c0-.44,0-.88,0-1.32.12-.59-.29-1.49.48-1.68a3.65,3.65,0,0,1,3.11.22,2,2,0,0,0,.94.53c.63-.5,1-.14,1.5.3s.77.9.28,1.51c-.14.72.35,2.2-1,1.68a3.18,3.18,0,0,0-2.57.08C51.89,56.27,51.12,55.36,50.4,54.52Z"/><path class="cls-415" d="M56.7,54.08a2.31,2.31,0,0,0-1.78-1.81c0-.31,0-.61,0-.91,2.12-.13,2.71.47,2.65,2.73Z"/><path class="cls-416" d="M38.7,57.7l0,1.77a2.07,2.07,0,0,1-2.71,0l-2.67,0,0-.07a.75.75,0,0,1,.27-1.28,2.58,2.58,0,0,0,.63-.45Z"/><path class="cls-417" d="M39.6,56.74H36a.73.73,0,0,1-.08-1c.86-.59,1.81-.22,2.72-.28a1.3,1.3,0,0,1,1,.31A.67.67,0,0,1,39.6,56.74Z"/><path class="cls-418" d="M36,55.91v.83H32.43a.73.73,0,0,1-.08-1,1.2,1.2,0,0,1,1-.31C34.25,55.59,35.26,55,36,55.91Z"/><path class="cls-419" d="M34.21,57.71c0,.34,0,.7-.39.84s-.49.51-.51.89l-.88,0,0-1.76Z"/><path class="cls-420" d="M39.6,56.74l0-.85a1,1,0,0,1,.1-.17,3,3,0,0,1,2.45-.14.93.93,0,0,1,.31.25.72.72,0,0,1-.15.9Z"/><path class="cls-421" d="M45,54.11c0,.87,0,1.74,0,2.62h-.85a1,1,0,0,1-.4-.9c0-.6-.23-1.24.37-1.71Z"/><path class="cls-422" d="M44.11,55.88c0,.28,0,.56,0,.85H42.33c0-.28,0-.56,0-.84.19-.37.52-.39.88-.36A1,1,0,0,1,44.11,55.88Z"/><path class="cls-423" d="M28.85,56.75c0-.28-.05-.57-.08-.85l.09,0a.65.65,0,0,1,.93,0,.64.64,0,0,1-.06.92Z"/><path class="cls-424" d="M29.73,56.74l0-.83a1.09,1.09,0,0,0,.08-.15.72.72,0,0,1,.84-.09.78.78,0,0,1,.24.27.7.7,0,0,1-.23.8Z"/><path class="cls-425" d="M30.62,56.74l0-.81a.6.6,0,0,1,.91-.12.64.64,0,0,1,0,.93Z"/><path class="cls-426" d="M31.52,56.74V55.9l.11-.14a.55.55,0,0,1,.81.16c0,.28,0,.55,0,.83Z"/><path class="cls-427" d="M30.62,57.7c0,.29,0,.57,0,.86l-.89,0c0-.29,0-.59,0-.88Z"/><path class="cls-428" d="M33.32,54.11l5.39,0a.68.68,0,0,1,0,1c-1.19.59-2.47.19-3.71.28a2.15,2.15,0,0,1-1.71-.28A.71.71,0,0,1,33.32,54.11Z"/><path class="cls-429" d="M43.21,55.88h-.89l0,0c-.32-.46-.8-.45-1.29-.45s-1.13.1-1.55-.41a.72.72,0,0,1,.15-.89h3.61A1.07,1.07,0,0,1,43.21,55.88Z"/><path class="cls-430" d="M36,52.24l1.6.07a.57.57,0,0,1,0,.84H34.44a.54.54,0,0,1,0-.82Z"/><path class="cls-298" d="M28.85,53.16l-.09-.85.1-.05a2.19,2.19,0,0,1,2.65,0l.25.09a.54.54,0,0,1,0,.82Z"/><path class="cls-431" d="M37.59,53.15l0-.84.2-.06h1.57l1.15.06c0,.27,0,.55,0,.83Z"/><path class="cls-432" d="M31.75,53.15v-.82L34,52.24l.47.08,0,.82Z"/><path class="cls-433" d="M43.21,55.88c0-.58,0-1.17,0-1.75h.87c0,.59,0,1.17,0,1.76Z"/><path class="cls-434" d="M39.61,54.12l0,.86a.65.65,0,0,1,0,.9h0l-.92,0a.62.62,0,0,1,0-.87c0-.28,0-.57,0-.85Z"/><path class="cls-435" d="M33.32,54.11V55l-.11.19a1.39,1.39,0,0,1-1.78-.07.71.71,0,0,1,.09-1Z"/><path class="cls-436" d="M31.53,54.11l0,.88a.63.63,0,0,1,0,.88v0l-.88,0,0-.09a1,1,0,0,1-.32-.87.88.88,0,0,1,.36-.85Z"/><path class="cls-437" d="M28.87,55l0-.87h.89a.62.62,0,1,1-.86.87Z"/><path class="cls-438" d="M29.69,55c0-.29,0-.59,0-.88h.91l0,.87a.6.6,0,0,1-.7.21A.5.5,0,0,1,29.69,55Z"/><path class="cls-304" d="M48.58,43.27c0-.65.27-1,.92-.89C49.56,43.07,49.25,43.36,48.58,43.27Z"/><path class="cls-439" d="M61.14,47.83a.79.79,0,0,0,.9.92l.06,2.63c-1.06-.16-2.23.42-3.13-.68-.41-.51-.53-.81,0-1.3s.71-.95.2-1.37a1.21,1.21,0,0,0-1.72.08,1.87,1.87,0,0,1-1.59.6l0,0a.77.77,0,0,1,.2-1.28,1.14,1.14,0,0,0,.46-.56.82.82,0,0,1,.25-.24c.71-.31.39-1,.45-1.46s-.22-1.35.48-1.82h.86a7.48,7.48,0,0,1,.9.88h0c0,.62,0,1.24,0,1.85s.25.88.84.87C60.24,47.51,60.5,47.86,61.14,47.83Z"/><path class="cls-440" d="M41.38,17.27c0,.65-.07,1.31.71,1.69.34.17.22.67.22,1a.74.74,0,0,0,.86.86,2.08,2.08,0,0,1,.09,2.65l-.07.25A1.51,1.51,0,0,0,42.76,25c0,.41,0,.84-.45,1h-.88l0-.66c-.59-.47-.4-1.14-.43-1.76s.18-1.35-.43-1.87l0-4.44A.49.49,0,0,1,41.38,17.27Z"/><path class="cls-441" d="M42.31,26c.19-.78-.49-1.91.88-2.24,0,.21,0,.43,0,.65.52.4.44,1,.43,1.52a2.46,2.46,0,0,0,.42,1.88c0,1.27,0,2.53,0,3.8l-1.77,0C42.32,29.7,42.32,27.85,42.31,26Z"/><path class="cls-442" d="M45.94,27.09c0,.31,0,.62,0,.94-.68,0-.9-.35-.88-1,0-.89,0-1.77,0-2.66a.58.58,0,0,1,.85,0Z"/><path class="cls-443" d="M43.26,23.5l-.09-2.65c0-.59.19-1,.92-.92.38.19.41.54.42.9,0,.63.23,1.29-.39,1.77C44.14,23.18,43.94,23.57,43.26,23.5Z"/><path class="cls-444" d="M44.08,27.8a1,1,0,0,1-.87-1.19c0-.74,0-1.47,0-2.21.68,0,.9.34.88,1C44.07,26.18,44.09,27,44.08,27.8Z"/><path class="cls-445" d="M45.89,24.43l-.85,0c0-.58,0-1.16-.08-1.74l.11-.15a.64.64,0,0,1,.84.11h0C45.9,23.22,45.9,23.82,45.89,24.43Z"/><path class="cls-446" d="M44.12,22.6l0-1.8a.58.58,0,0,1,.85,0l0,0a1.15,1.15,0,0,1,0,1.77l-.11.07Z"/><path class="cls-447" d="M45,36l-.88.06c-.06-.65.24-.94.88-.92Z"/><path class="cls-134" d="M55.78,46.86c0-.44,0-.89,0-1.34,0-.79-.05-1.44-1.1-1.35-.3,0-.65-.06-.6-.47s.4-.39.69-.4h1.68a3,3,0,0,1,.21,3.57h0A.58.58,0,0,1,55.78,46.86Z"/><path class="cls-298" d="M56.69,46.87a17,17,0,0,0-.21-3.57l.21,0,.93,0c0,.88,0,1.77,0,2.65C57.61,46.61,57.36,46.94,56.69,46.87Z"/><path class="cls-448" d="M55.78,46.86h.9c0,.38,0,.76-.43.9s-.44.53-.47.9l-.87,0C55,48,54.43,47,55.78,46.86Z"/><path class="cls-449" d="M59.38,44.2c-.63,0-.93-.25-.9-.88h.87Z"/><path class="cls-450" d="M15.8,51.38c.48-.12.42-.53.45-.89a2.07,2.07,0,0,1,2.38-.33c.72.23.8.91.76,1.58s.32,1,1,1,1.43-.26,2,.34a.76.76,0,0,1-.11,1l-.67,0H18.53c-.56,0-1.08,0-1.45.57-.27.43-.73.34-.77-.16A1.32,1.32,0,0,0,15,53.21a1,1,0,0,1-.83-.92C14.48,51.53,15.5,52.09,15.8,51.38Z"/><path class="cls-451" d="M17.14,57.67c0-.29,0-.59,0-.89.77-.73,1.24-1.87,2.6-1.82.68,0,1.06.22,1,.95,0,.37,0,.75-.49.87s-.42.54-.43.91Z"/><path class="cls-294" d="M15.8,51.38c0,1.27-1,.78-1.59.91s-.69-.42-.67-.9Z"/><path class="cls-452" d="M36,59.48h2.71V61c0,2.08-.58,2.56-2.69,2.27C36,62,36,60.75,36,59.48Z"/><path class="cls-453" d="M41.38,17.27l-.82,0c-1.82.72-3.63-.23-5.44,0l-.91,0h-.9l-1.77,0v-.87l.92,0c.43-.56,1-.41,1.62-.42s1.25,0,1.87,0,1.25,0,1.87,0,1.25,0,1.87,0c.87.17,1.88-.44,2.62.46C42.39,17.05,42,17.26,41.38,17.27Z"/><path class="cls-454" d="M32.44,15.44v-.91a1.11,1.11,0,0,1,.94-.4c1,0,2-.39,2.89.3a.89.89,0,0,1,.12,1,.81.81,0,0,1-.35.25C34.82,15.83,33.58,16.25,32.44,15.44Z"/><path class="cls-455" d="M32.44,15.44l3.56,0a.55.55,0,0,1,0,.83H32.45Z"/><path class="cls-456" d="M33.31,14.5l-.88,0c-.14-.74.25-1,.91-.93v0A.61.61,0,0,1,33.31,14.5Z"/><path class="cls-457" d="M33.31,14.5l0-.88.9,0H36l.47.07v.82a.19.19,0,0,1-.26.09Z"/><path class="cls-458" d="M42.3,16.34l-2.7-.05a.74.74,0,0,1-.18-.86.92.92,0,0,1,.93-.45,1.13,1.13,0,0,0,1-.47l0-.89.84,0,.08.86c.25.35.6.6.85.95v.89Z"/><path class="cls-459" d="M41.4,14.51c0,1.51-1.16.68-1.8.92a.7.7,0,0,1-1,.07.68.68,0,0,1,.05-.95Z"/><path class="cls-460" d="M38.7,14.55l0,.85c-.2.38-.55.42-.93.43-.56,0-1.19.24-1.55-.45l0-.81.26-.09Z"/><path class="cls-461" d="M43.19,15.45c-.68,0-1-.28-.85-.95C43,14.45,43.3,14.77,43.19,15.45Z"/><path class="cls-462" d="M40.54,21.69c.68,0,.89.36.87,1,0,.89,0,1.77,0,2.65-.65,0-.89-.4-.88-1C40.54,23.44,40.54,22.56,40.54,21.69Z"/><path class="cls-463" d="M42.78,36.08l-.5.05-2.68-.06,0-.85.87,0,1.58,0C42.55,35.3,42.57,35.77,42.78,36.08Z"/><path class="cls-464" d="M31.52,19c0-1.48,1.15-.7,1.8-.89,0,1.48,0,3,0,4.45l-.83.06c0-.89,0-1.79,0-2.68C32.45,19.31,32.2,19,31.52,19Z"/><path class="cls-465" d="M30.58,21.68l-.85,0,0-2.69h.87a1.16,1.16,0,0,1,0,1.81Z"/><path class="cls-466" d="M30.66,20.83l0-1.81h.89C31.36,19.68,32.06,20.75,30.66,20.83Z"/><path class="cls-467" d="M22.31,54.07v-.88a.68.68,0,0,1,.18-.26,2.2,2.2,0,0,1,1.07-.2c.46,0,1.05.15,1.17-.51S25,51,24.17,50.63A1,1,0,0,1,24,50.3c-.13-.59-.31-1.19.34-1.62,1.37.59,2.38,3.25,1.65,4.51a1.66,1.66,0,0,1-1.45.88Z"/><path class="cls-450" d="M24.34,48.68v1.79c-.76.48-1.2.15-1.33-.62a2.14,2.14,0,0,1,.4-2.08c0-.29,0-.58,0-.87l.87,0C24.33,47.48,24.33,48.08,24.34,48.68Z"/><path class="cls-468" d="M31.51,52.24l-2.65,0v-.87c.6,0,1.19,0,1.79,0S31.57,51.6,31.51,52.24Z"/><path class="cls-469" d="M28.87,55h.88a.6.6,0,0,1,0,.86l-.08.07-.83-.06C28.86,55.56,28.87,55.27,28.87,55Z"/><path class="cls-461" d="M28.82,21.7c0,.3,0,.59,0,.88l-.88,0C27.86,22,28.16,21.65,28.82,21.7Z"/><path class="cls-404" d="M22.53,53.17l-.21,0-2.55,0a.72.72,0,0,1-.82-.69c-.34-2-.35-2-2.48-2h-.22a2.68,2.68,0,0,1,2.82-2.69c.59,0,.77.32.77.85,0,.78.05,1.56,0,2.34-.09,1.06.37,1.41,1.37,1.3a11.81,11.81,0,0,1,1.33,0l.14.11A.59.59,0,0,1,22.53,53.17Z"/><path class="cls-405" d="M23.41,47.77c0,.59,0,1.18,0,1.77s.23,1,.91.93h0a1.28,1.28,0,1,1-1.79,1.81l0,0c.6-1.41-.17-2.16-1.33-2.7-.6-.28-.46-.79-.41-1.25s.46-.52.85-.53Z"/><path class="cls-293" d="M15.35,44.2l.89,0a1.61,1.61,0,0,0,.42,1.11A2.4,2.4,0,0,1,17.14,47c0,.26,0,.54-.31.66s-.42-.14-.6-.34a3.63,3.63,0,0,1-.88-3Z"/><path class="cls-470" d="M45,20.83l-.85,0-.06-.87,0-.93C45.53,19.09,44.85,20.15,45,20.83Z"/><path class="cls-311" d="M45.07,22.58c0-.59,0-1.18,0-1.77,1.41.05.72,1.14.89,1.8Z"/><path class="cls-471" d="M43.24,18.09l.86.06c0,.29,0,.58,0,.87C43.44,19.06,43.14,18.76,43.24,18.09Z"/><path class="cls-396" d="M52.75,52.28c.68,0,1.31,0,1.25.94,0,.56-1.11,1.81-1.58,1.71-.88-.18-1-1-1.11-1.69C51.2,52.09,52.07,52.3,52.75,52.28Z"/><path class="cls-472" d="M38.7,55v.87L36,55.91l-2.71-.07a.6.6,0,0,1,0-.87h0Z"/><path class="cls-473" d="M33.31,55v.87l-.87.08-.91-.05c0-.29,0-.58,0-.88Z"/><path class="cls-474" d="M39.62,55.88l0-.9c.58,0,1.17,0,1.75,0s1,.23.9.89Z"/><path class="cls-475" d="M29.77,55.84c0-.28,0-.57,0-.86h.86c0,.29,0,.57,0,.85Z"/><path class="cls-476" d="M36.26,15.38l1.54.07a.55.55,0,0,1,0,.84H36c0-.28,0-.55,0-.83Z"/><path class="cls-477" d="M37.81,16.29c0-.28,0-.56,0-.84l.94,0,.86,0v.86Z"/><path class="cls-297" d="M22.55,52.29c1.77,0,1.77,0,1.79-1.81,1.45.07.76,1.17.87,1.86s-.41.86-1,.84H22.53C22.54,52.88,22.54,52.58,22.55,52.29Z"/></g></g></svg>