<svg xmlns="http://www.w3.org/2000/svg" viewBox="0 0 74 74"><defs><style>.cls-1{fill:#1e2223;}.cls-2{fill:#d3d5a6;}.cls-3{fill:#15242e;}.cls-4{fill:#d8cb8d;}.cls-5{fill:#606752;}.cls-6{fill:#dbd5a0;}.cls-7{fill:#3e463f;}.cls-8{fill:#222d2d;}.cls-9{fill:#94997b;}.cls-10{fill:#b0b48e;}.cls-11{fill:#858a6f;}.cls-12{fill:#969b7d;}.cls-13{fill:#d9ad76;}.cls-14{fill:#b6ae7e;}.cls-15{fill:#d5d5a4;}.cls-16{fill:#313d3a;}.cls-17{fill:#414944;}.cls-18{fill:#424d47;}.cls-19{fill:#8e5e41;}.cls-20{fill:#636958;}.cls-21{fill:#cdb688;}.cls-22{fill:#817f60;}.cls-23{fill:#6c7261;}.cls-24{fill:#484e45;}.cls-25{fill:#484a39;}.cls-26{fill:#949a7c;}.cls-27{fill:#495046;}.cls-28{fill:#2c3632;}.cls-29{fill:#2b3434;}.cls-30{fill:#41473f;}.cls-31{fill:#c2c69c;}.cls-32{fill:#585d4f;}.cls-33{fill:#99795a;}.cls-34{fill:#a9ad8b;}.cls-35{fill:#b7bb96;}.cls-36{fill:#4a534a;}.cls-37{fill:#adaf8d;}.cls-38{fill:#51584c;}.cls-39{fill:#353f3c;}.cls-40{fill:#313a36;}.cls-41{fill:#80866e;}.cls-42{fill:#81856e;}.cls-43{fill:#9b9061;}.cls-44{fill:#36382a;}.cls-45{fill:#2e3832;}.cls-46{fill:#f7f7f7;}.cls-47{fill:#a5a7a9;}.cls-48{fill:#8d9294;}.cls-49{fill:#4f565c;}.cls-50{fill:#6d7377;}.cls-51{fill:#8a7042;}.cls-52{fill:#414337;}.cls-53{fill:#6c6144;}.cls-54{fill:#676a51;}.cls-55{fill:#343a3b;}.cls-56{fill:#3a4146;}.cls-57{fill:#6d7274;}.cls-58{fill:#40433a;}.cls-59{fill:#42473f;}.cls-60{fill:#5f593f;}.cls-61{fill:#40463e;}.cls-62{fill:#646a5e;}.cls-63{fill:#656b5b;}.cls-64{fill:#424a44;}.cls-65{fill:#4e564b;}.cls-66{fill:#4e574e;}.cls-67{fill:#4b5050;}.cls-68{fill:#4f5447;}.cls-69{fill:#989898;}.cls-70{fill:#bcbcbc;}.cls-71{fill:#aeb1b2;}.cls-72{fill:#ebebeb;}.cls-73{fill:#afb1b3;}.cls-74{fill:#f2eaab;}.cls-75{fill:#939679;}.cls-76{fill:#626958;}.cls-77{fill:#fe5100;}.cls-78{fill:#f8bc65;}.cls-79{fill:#fecc81;}.cls-80{fill:#fe8d39;}.cls-81{fill:#a6a87c;}.cls-82{fill:#c8cb9f;}.cls-83{fill:#c6b785;}.cls-84{fill:#fe8f39;}.cls-85{fill:#fbdc8d;}.cls-86{fill:#beb787;}.cls-87{fill:#e2c287;}.cls-88{fill:#f8d79e;}.cls-89{fill:#f1f2bc;}.cls-90{fill:#a39d72;}.cls-91{fill:#edd89e;}.cls-92{fill:#fc6711;}.cls-93{fill:#fe2f00;}.cls-94{fill:#fe6900;}.cls-95{fill:#fe813b;}.cls-96{fill:#f5d18b;}.cls-97{fill:#f3f2bb;}.cls-98{fill:#b7b893;}.cls-99{fill:#febb7f;}.cls-100{fill:#fe6009;}.cls-101{fill:#cacda0;}.cls-102{fill:#656245;}.cls-103{fill:#a19d7a;}.cls-104{fill:#fed89e;}.cls-105{fill:#e5dba7;}.cls-106{fill:#293430;}.cls-107{fill:#4b4c3a;}.cls-108{fill:#9b9d9e;}.cls-109{fill:#50575b;}.cls-110{fill:#444b4e;}.cls-111{fill:#29332f;}.cls-112{fill:#504f37;}.cls-113{fill:#9a9c9d;}.cls-114{fill:#4f575d;}.cls-115{fill:#23221b;}.cls-116{fill:#4b4938;}.cls-117{fill:#4a4838;}.cls-118{fill:#45432e;}.cls-119{fill:#585642;}.cls-120{fill:#7d7d62;}.cls-121{fill:#57543a;}.cls-122{fill:#9fa37a;}.cls-123{fill:#6a6b54;}.cls-124{fill:#85886d;}.cls-125{fill:#a0a586;}.cls-126{fill:#54523f;}.cls-127{fill:#65654f;}.cls-128{fill:#7f8267;}.cls-129{fill:#9ca183;}.cls-130{fill:#a3a3a3;}.cls-131{fill:#aeaeae;}.cls-132{fill:#8d8d8d;}.cls-133{fill:#bababa;}.cls-134{fill:#ccc;}.cls-135{fill:#a5a5a5;}.cls-136{fill:#e2e2e2;}.cls-137{fill:#d3d3d3;}.cls-138{fill:#a4a7a9;}.cls-139{fill:#94989a;}.cls-140{fill:#797f82;}.cls-141{fill:#afafaf;}.cls-142{fill:#e6e6e6;}.cls-143{fill:#d0d0d0;}.cls-144{fill:#e9ac4c;}.cls-145{fill:#fe8b2a;}.cls-146{fill:#cca352;}.cls-147{fill:#fcb764;}.cls-148{fill:#bfa76d;}.cls-149{fill:#c89f56;}.cls-150{fill:#ca6721;}.cls-151{fill:#a2958f;}.cls-152{fill:#7b7871;}.cls-153{fill:#9d9f9f;}.cls-154{fill:#c0c1c1;}.cls-155{fill:#837b72;}.cls-156{fill:#b4a46c;}.cls-157{fill:#9e9e7a;}.cls-158{fill:#b9ac76;}.cls-159{fill:#8d887a;}.cls-160{fill:#a4a5a4;}.cls-161{fill:#80857f;}.cls-162{fill:#8b7f61;}.cls-163{fill:#b9b17f;}.cls-164{fill:#bbbcbc;}.cls-165{fill:#818181;}.cls-166{fill:#dbdbdb;}.cls-167{fill:#bfbfbf;}.cls-168{fill:#828282;}.cls-169{fill:#9d9d9d;}.cls-170{fill:#fc0100;}.cls-171{fill:#fe3500;}.cls-172{fill:#7c7a65;}.cls-173{fill:#c6662e;}.cls-174{fill:#fb3400;}.cls-175{fill:#feae63;}.cls-176{fill:#fde499;}.cls-177{fill:#feb067;}.cls-178{fill:#febd77;}.cls-179{fill:#fe8534;}.cls-180{fill:#fe9e57;}.cls-181{fill:#ae693b;}.cls-182{fill:#983700;}.cls-183{fill:#e24400;}.cls-184{fill:#fb0300;}.cls-185{fill:#fe5500;}.cls-186{fill:#fea24e;}.cls-187{fill:#fe8e49;}.cls-188{fill:#3d3927;}.cls-189{fill:#3c4246;}.cls-190{fill:#474c4f;}.cls-191{fill:#252d2c;}.cls-192{fill:#48442c;}.cls-193{fill:#575351;}.cls-194{fill:#6c6e70;}.cls-195{fill:#403e30;}.cls-196{fill:#394044;}.cls-197{fill:#777b5a;}.cls-198{fill:#5c5d43;}.cls-199{fill:#686547;}.cls-200{fill:#9a9b9c;}.cls-201{fill:#888a8c;}.cls-202{fill:#343d3c;}.cls-203{fill:#5a6064;}.cls-204{fill:#676c6f;}.cls-205{fill:#80754e;}.cls-206{fill:#4f585b;}.cls-207{fill:#3e484b;}.cls-208{fill:#4d5659;}.cls-209{fill:#454b50;}.cls-210{fill:#3f3f2e;}.cls-211{fill:#8a8e90;}.cls-212{fill:#525037;}.cls-213{fill:#3d3b2c;}.cls-214{fill:#7b7b61;}.cls-215{fill:#6a694d;}.cls-216{fill:#575541;}.cls-217{fill:#979798;}.cls-218{fill:#c5c5c5;}.cls-219{fill:#d2d2d2;}.cls-220{fill:#dfdfdf;}.cls-221{fill:#9b9c9d;}.cls-222{fill:#fe9b25;}.cls-223{fill:#fe9425;}.cls-224{fill:#fe8921;}.cls-225{fill:#fe3f00;}.cls-226{fill:#88675a;}.cls-227{fill:#dfe0e1;}.cls-228{fill:#aaabac;}.cls-229{fill:#9b9b9b;}.cls-230{fill:#f8c973;}.cls-231{fill:#fbc674;}.cls-232{fill:#fbc679;}.cls-233{fill:#c9c9c9;}.cls-234{fill:#a29690;}.cls-235{fill:#d36423;}.cls-236{fill:#939394;}.cls-237{fill:#9e9e9e;}.cls-238{fill:#b0b0b0;}.cls-239{fill:#c6c6c6;}.cls-240{fill:#b2b4b5;}.cls-241{fill:#767676;}.cls-242{fill:#a62e05;}.cls-243{fill:#fd7a00;}.cls-244{fill:#8d4826;}.cls-245{fill:#8e2000;}.cls-246{fill:#fe4b00;}.cls-247{fill:#b70300;}.cls-248{fill:#cb1b00;}.cls-249{fill:#8a8878;}.cls-250{fill:#993e09;}.cls-251{fill:#fe7112;}.cls-252{fill:#fe9848;}.cls-253{fill:#fe933f;}.cls-254{fill:#fe4300;}.cls-255{fill:#6a2f0e;}.cls-256{fill:#bb2500;}.cls-257{fill:#fe2c00;}.cls-258{fill:#8d2e05;}.cls-259{fill:#971200;}.cls-260{fill:#f82e00;}.cls-261{fill:#fe3a00;}.cls-262{fill:#c30000;}.cls-263{fill:#fe5c00;}.cls-264{fill:#fe2600;}.cls-265{fill:#767563;}.cls-266{fill:#878762;}.cls-267{fill:#ad711d;}.cls-268{fill:#794f24;}.cls-269{fill:#777a59;}.cls-270{fill:#705325;}.cls-271{fill:#c5641b;}.cls-272{fill:#cad29e;}.cls-273{fill:#b5bb8c;}.cls-274{fill:#8b8c67;}.cls-275{fill:#a0a478;}.cls-276{fill:#8f906b;}.cls-277{fill:#636767;}.cls-278{fill:#bda45d;}.cls-279{fill:#4e4d3d;}.cls-280{fill:#fccc61;}.cls-281{fill:#c3a150;}.cls-282{fill:#646244;}.cls-283{fill:#676445;}.cls-284{fill:#60351c;}.cls-285{fill:#822d0a;}.cls-286{fill:#8a612a;}.cls-287{fill:#767756;}.cls-288{fill:#fe7c17;}.cls-289{fill:#feb457;}.cls-290{fill:#fe7b18;}.cls-291{fill:#fe7b19;}.cls-292{fill:#aaabae;}.cls-293{fill:#e3e4e5;}.cls-294{fill:#896459;}.cls-295{fill:#fe3000;}.cls-296{fill:#674224;}.cls-297{fill:#949571;}.cls-298{fill:#854112;}.cls-299{fill:#c87b0d;}.cls-300{fill:#b3ba8d;}.cls-301{fill:#7c5f41;}.cls-302{fill:#f97202;}.cls-303{fill:#fe9c31;}.cls-304{fill:#fe0000;}.cls-305{fill:#a7ab7e;}.cls-306{fill:#dae6af;}.cls-307{fill:#c9d19e;}.cls-308{fill:#dae6ae;}.cls-309{fill:#a6aa7d;}.cls-310{fill:#a28c6b;}.cls-311{fill:#e4a654;}.cls-312{fill:#fd9027;}.cls-313{fill:#fe7400;}.cls-314{fill:#cd6a2e;}</style></defs><title>ssm</title><g id="레이어_2" data-name="레이어 2"><g id="레이어_1-2" data-name="레이어 1"><rect class="cls-1" width="74" height="74" rx="8.33" ry="8.33"/><path class="cls-2" d="M16.48,13.49h5a1,1,0,0,1,.09,1.4,2.88,2.88,0,0,1-2.33.43,6.11,6.11,0,0,1-1.48,0,1.82,1.82,0,0,1-1.42-.41A1,1,0,0,1,16.48,13.49Z"/><path class="cls-3" d="M59.6,15.79c.74.16,1.57.37,1.41,1.31s-1.14.71-1.82.69a22.89,22.89,0,0,1-2.31-.32,1.06,1.06,0,0,1-.12-1.33A1.57,1.57,0,0,1,58,15.63,3.36,3.36,0,0,1,59.6,15.79Z"/><path class="cls-4" d="M21.52,14.75V13.49l4.37-.11.21.2A1.15,1.15,0,0,1,26,14.92a1.87,1.87,0,0,1-1.33.37,5.24,5.24,0,0,1-1.37,0,2.7,2.7,0,0,1-1.35-.16A.84.84,0,0,1,21.52,14.75Z"/><path class="cls-5" d="M34,5.25l4,.12a1,1,0,0,1,.08,1.39,3.1,3.1,0,0,1-2.59.46,2.53,2.53,0,0,1-1.4-.28,1.16,1.16,0,0,1-.43-1.25A.81.81,0,0,1,34,5.25Z"/><path class="cls-6" d="M28.61,8l1.29.11a1,1,0,0,1,.16,1.36,1.67,1.67,0,0,1-1.38.45,5.64,5.64,0,0,1-1.48,0,1.74,1.74,0,0,1-1.4-.47,1.22,1.22,0,0,1,0-1.45,1.66,1.66,0,0,1,1.43-.44A1.81,1.81,0,0,1,28.61,8Z"/><path class="cls-7" d="M50.13,10.7l0,2.67-.2.23a1.06,1.06,0,0,1-1.36-.27,2.31,2.31,0,0,1,.12-2.63A1,1,0,0,1,50.13,10.7Z"/><path class="cls-8" d="M31.31,5.38c-.13-1,.2-1.42,1.26-1.4S34.1,4.16,34,5.25V5.4a1.69,1.69,0,0,1-1.34.44A1.58,1.58,0,0,1,31.31,5.38Z"/><path class="cls-9" d="M40.75,4a14.63,14.63,0,0,0,1.48,0c1.11-.14,1.32.43,1.13,1.36a1.56,1.56,0,0,1-1.34.5,1.64,1.64,0,0,1-1.38-.45A1,1,0,0,1,40.75,4Z"/><path class="cls-10" d="M51.51,4l1.32,0a1,1,0,0,1,.05,1.34l-.05,1.26a1,1,0,0,1-1.37.12A1.66,1.66,0,0,1,51,5.38,1.52,1.52,0,0,1,51.54,4Z"/><path class="cls-11" d="M31.31,5.38h1.35a1.56,1.56,0,0,1,.47,1.29,1.86,1.86,0,0,1-.36,1.37,1.09,1.09,0,0,1-1.33.18L31.25,8Z"/><path class="cls-12" d="M27.29,8,25.92,8A.92.92,0,0,1,24.6,8c-.2-.94,0-1.48,1.14-1.33a14.23,14.23,0,0,0,1.46,0A.86.86,0,0,1,27.29,8Z"/><path class="cls-13" d="M43.45,8h1.32l.2.21a1.13,1.13,0,0,1-.17,1.36,2,2,0,0,1-1.43.34A1.66,1.66,0,0,1,42,9.41,1.19,1.19,0,0,1,42,8,1.15,1.15,0,0,1,43.45,8Z"/><path class="cls-14" d="M26,9.39h1.23a2,2,0,0,1,.2,2.69,1,1,0,0,1-1.46,0l-.11-1.32a1,1,0,0,1-.21-1.08A.61.61,0,0,1,26,9.39Z"/><path class="cls-15" d="M50.15,13.37l2.69.12A1,1,0,0,1,53,14.86a1.72,1.72,0,0,1-1.42.42,1.81,1.81,0,0,1-1.43-.41,1,1,0,0,1,.07-1.37Z"/><path class="cls-16" d="M20.53,17.46l-.37.05-2.34,0a1.07,1.07,0,0,1-.26-1.23,1,1,0,0,1,.38-.4,2.58,2.58,0,0,1,1.37-.21,1.59,1.59,0,0,1,1.34.46A1.09,1.09,0,0,1,20.53,17.46Z"/><path class="cls-17" d="M16.48,14.73l1.28.1a.83.83,0,0,1,.08,1.26l-.07.12a1,1,0,0,1-1.31,0l-1.32-.06a1,1,0,0,1-.07-1.38A1.06,1.06,0,0,1,16.48,14.73Z"/><path class="cls-18" d="M56.92,16.22c0,.42,0,.83,0,1.25l-2,.05-.7-.07A1.07,1.07,0,0,1,54,16.12a1.56,1.56,0,0,1,1.26-.49,2.67,2.67,0,0,1,1.31.19A.67.67,0,0,1,56.92,16.22Z"/><path class="cls-3" d="M15.12,14.77c0,.45,0,.9,0,1.34-.94.05-1.78,0-1.37-1.34A1,1,0,0,1,15,14.58Z"/><path class="cls-19" d="M43.45,8,42.11,8a1,1,0,0,1-.31-1.18.94.94,0,0,1,.35-.39,1,1,0,0,1,1.22.22Z"/><path class="cls-20" d="M44.77,8c-.19-1.13.38-1.43,1.37-1.25a1,1,0,0,1,0,1.39,1.13,1.13,0,0,1-1.42,0A.1.1,0,0,1,44.77,8Z"/><path class="cls-21" d="M46.14,8V6.73l1.32-.11.19.18a1.11,1.11,0,0,1,0,1.2,1,1,0,0,1-1.15.31A.68.68,0,0,1,46.14,8Z"/><path class="cls-22" d="M29.93,9.34l0-1.25L31.25,8l.12.07a1,1,0,0,1-.07,1.4A1,1,0,0,1,29.93,9.34Z"/><path class="cls-23" d="M24.6,8l1.32,0L26,9.39h-.16a.82.82,0,0,1-1.24-.05Z"/><path class="cls-24" d="M51.52,6.72l1.31-.06c.14,1-.13,1.54-1.23,1.39L51.38,8a.9.9,0,0,1,0-1.1Z"/><path class="cls-25" d="M38,6.7V5.37l1.33-.12.21.18a1.11,1.11,0,0,1-.07,1.29,1.08,1.08,0,0,1-1.27.18Z"/><path class="cls-26" d="M52.88,5.4l-.05-1.34,1.33,0C54.4,5.08,53.93,5.51,52.88,5.4Z"/><path class="cls-27" d="M51.54,4l0,1.29a.87.87,0,0,1-1,.28.66.66,0,0,1-.3-.34C50,4.18,50.56,3.87,51.54,4Z"/><path class="cls-3" d="M16.46,16.17l1.31,0c0,.42,0,.84.05,1.26C16.82,17.6,16.34,17.2,16.46,16.17Z"/><path class="cls-28" d="M40.75,4l0,1.32c-.05.06-.11.12-.16.19a.94.94,0,0,1-1.15-.14l-.06-.14C39.26,4.21,39.8,3.88,40.75,4Z"/><path class="cls-29" d="M59.6,15.79c-.38.45-.9.31-1.38.33A1,1,0,0,1,58,15.06a.67.67,0,0,1,.33-.31C59,14.74,59.67,14.81,59.6,15.79Z"/><path class="cls-30" d="M27.29,8,27.2,6.72c1-.18,1.52.2,1.41,1.26Z"/><path class="cls-31" d="M48.85,5.38l1.31-.11v.15a.94.94,0,0,1,0,1.37,1.14,1.14,0,0,1-1.44,0A1,1,0,0,1,48.85,5.38Z"/><path class="cls-32" d="M48.85,5.38l-.07,1.28a.94.94,0,0,1-1.34.12l0-.16C47.29,5.51,47.86,5.22,48.85,5.38Z"/><path class="cls-33" d="M43.37,6.69l-1.29,0a.89.89,0,0,1,0-1.31l1.31,0Z"/><path class="cls-34" d="M16.48,14.73l-1.36,0h0a.86.86,0,0,1,0-1.29l1.33,0Z"/><path class="cls-35" d="M52.87,14.75l0-1.26h1.33a1,1,0,0,1,.09,1.39A1,1,0,0,1,52.87,14.75Z"/><path class="cls-36" d="M15.15,13.47l0,1.29H13.77C13.62,13.68,14.11,13.28,15.15,13.47Z"/><path class="cls-37" d="M50.13,10.7l-1.27.08-.21-.15a1.05,1.05,0,0,1,0-1.22,1.1,1.1,0,0,1,1.17-.32.82.82,0,0,1,.39.32Z"/><path class="cls-38" d="M55.51,13.48l1.36,0a1,1,0,0,1,.3,1.12.89.89,0,0,1-.3.39,1.31,1.31,0,0,1-1.23,0,.89.89,0,0,1-.35-.37A1,1,0,0,1,55.51,13.48Z"/><path class="cls-39" d="M56.92,14.7c0-.41,0-.83-.05-1.24,1.05-.2,1.46.3,1.43,1.29l-.1.05A.81.81,0,0,1,56.92,14.7Z"/><path class="cls-40" d="M24.58,9.35l1.24.05,0,1.35C24.78,10.86,24.41,10.34,24.58,9.35Z"/><path class="cls-41" d="M51.6,8.05c0,.93-.27,1.56-1.37,1.36a.33.33,0,0,1-.17,0,1.14,1.14,0,0,1-.16-1.2.81.81,0,0,1,.35-.36A1,1,0,0,1,51.43,8Z"/><path class="cls-42" d="M55.51,13.48l0,1.29a.85.85,0,0,1-1.33,0l0-1.27Z"/><path class="cls-43" d="M26,12.07l1.26,0a1,1,0,0,1,.13,1.41,1.16,1.16,0,0,1-1.46,0,.14.14,0,0,1,0-.17C25.91,12.94,25.93,12.51,26,12.07Z"/><path class="cls-44" d="M48.8,68.68H45.27c-.81,0-1.69-.21-2,1-.14.5-.76.36-1.19.37-3.14,0-6.28,0-9.42,0-.28,0-.71.06-.81-.09-1.52-2.3-3.85-.84-5.76-1.26a1,1,0,0,0-.17,0,1.11,1.11,0,0,1-.19-1.32,2.18,2.18,0,0,1,1.68-.6,6.38,6.38,0,0,0,6-6.26c0-.56.11-1.11.11-1.67a1.51,1.51,0,0,1,.41-1.07,2,2,0,0,1,1.44-.37,3.37,3.37,0,0,1,2.65.38.82.82,0,0,1,.17.82c-2.26,1.1-2.45,3.07-2.23,5.24a3.73,3.73,0,0,1-.26,2c-.22.64-1.2.73-1.15,1.58.8,1,1,1,2.26-.27a1.67,1.67,0,0,1,1.68.41c1.13.77,1.5.55,1.64-.83s-.24-2.68.37-4c.7-.69,1.34-.25,2,.14A8.23,8.23,0,0,1,44,64.31a8.38,8.38,0,0,0,4.58,2.89A1,1,0,0,1,48.8,68.68Z"/><path class="cls-45" d="M48.8,68.68a2.32,2.32,0,0,0-.33-1.33l-.06-.26a11.18,11.18,0,0,1-.14-2.65,8.25,8.25,0,0,1,0-2.53,8.22,8.22,0,0,1,0-2.62,6.81,6.81,0,0,1,.07-2.66,1.1,1.1,0,0,1,.47-.75c1.54-.05,1.33,1.07,1.35,2,0,3.14,0,6.28,0,9.42C50.18,68.35,49.83,68.81,48.8,68.68Z"/><path class="cls-45" d="M25.9,67.34v1.34c-1,.13-1.38-.33-1.37-1.35,0-3.14,0-6.28,0-9.42a1.73,1.73,0,0,1,1.35-2,1.12,1.12,0,0,1,.47.76,12.06,12.06,0,0,1,.08,3.93,8.67,8.67,0,0,1,0,2.69,7.9,7.9,0,0,1,0,2.7A1.73,1.73,0,0,1,25.9,67.34Z"/><path class="cls-46" d="M4.28,34.66l.1-5a2.09,2.09,0,0,1,2.51-.31,1.16,1.16,0,0,1,.49,1.23,1.32,1.32,0,0,1-.19.46c-.48.42-1.18.72-1,1.58a8.55,8.55,0,0,1,0,1.24,8.06,8.06,0,0,1,0,2.5,6.39,6.39,0,0,1,0,1.45,14.52,14.52,0,0,1,0,3.84,6.66,6.66,0,0,1,0,1.48,8.49,8.49,0,0,1,0,2.71,1.71,1.71,0,0,1-.49,1.46,1.24,1.24,0,0,1-1.54-.13,10.84,10.84,0,0,1,.11-7.43Z"/><path class="cls-47" d="M4.37,48.46V47.1H5.65a9.15,9.15,0,0,1,6.73-.17,1,1,0,0,1,0,1.5Z"/><path class="cls-48" d="M12.41,48.42l0-1.27a4.12,4.12,0,0,1,3.67-.43,1.39,1.39,0,0,1,.49.34,1,1,0,0,1-.16,1.35Z"/><path class="cls-49" d="M20.53,47.17c-.06.53.11,1.18-.7,1.32l-2,0a1,1,0,0,1,0-1.47A2,2,0,0,1,20.53,47.17Z"/><path class="cls-50" d="M17.81,47.21c0,.41,0,.82,0,1.24l-1.36,0,0-1.25a.82.82,0,0,1,1.05-.3A.61.61,0,0,1,17.81,47.21Z"/><path class="cls-51" d="M24.48,20.15l0-1.3a1.11,1.11,0,0,1-.09-1.34,1.17,1.17,0,0,1,1.33-.3,1,1,0,0,1,.43.37,2.75,2.75,0,0,1,0,2.47,1.11,1.11,0,0,1-1.23.42A.8.8,0,0,1,24.48,20.15Z"/><path class="cls-52" d="M24.51,17.53c0,.44,0,.88,0,1.32-.91-.38-2.61.86-2.66-1.29l.12-.23a1.62,1.62,0,0,1,1.2-.34,1.77,1.77,0,0,1,1.22.32A1.59,1.59,0,0,0,24.51,17.53Z"/><path class="cls-53" d="M21.83,22.84c-.12-1,.36-1.42,1.33-1.38l.23.16a2,2,0,0,1,.3,1.37,1.57,1.57,0,0,1-.49,1.34,1.12,1.12,0,0,1-1.41-.08A1.06,1.06,0,0,1,21.83,22.84Z"/><path class="cls-54" d="M20.53,17.46l0-1.27a.93.93,0,0,1,1.17-.34.83.83,0,0,1,.4.34,1,1,0,0,1-.19,1.22l0,.15Z"/><path class="cls-55" d="M17.81,26.82c-.14-1,.36-1.36,1.29-1.29l.21.15a1,1,0,0,1-1.17,1.5A.72.72,0,0,1,17.81,26.82Z"/><path class="cls-56" d="M15.11,28.2c0-.42,0-.85,0-1.28l1.37,0a1,1,0,0,1,0,1.4A1,1,0,0,1,15.11,28.2Z"/><path class="cls-57" d="M16.46,28.19c0-.42,0-.83,0-1.25l1.31-.12V27a1,1,0,0,1,.2,1.21,1,1,0,0,1-1.18.35A.7.7,0,0,1,16.46,28.19Z"/><path class="cls-58" d="M21.83,22.84v1.35l-.15.19a1,1,0,0,1-.9.11.81.81,0,0,1-.33-.33C20.39,23.18,20.85,22.75,21.83,22.84Z"/><path class="cls-59" d="M19.1,25.53c-.05-1,.38-1.44,1.36-1.37l.08.1a1,1,0,0,1,.21,1.18.81.81,0,0,1-.35.36,1,1,0,0,1-1.19-.21Z"/><path class="cls-60" d="M23.16,21.46c-.07-.95.32-1.43,1.32-1.31l.15.05a1,1,0,0,1,0,1.37,1,1,0,0,1-1.36,0Z"/><path class="cls-61" d="M52.86,17.55c-.06.51.08,1.12-.68,1.26s-.65.73-.63,1.26a.69.69,0,0,1-.39.38A1.1,1.1,0,0,1,49.9,20a2.57,2.57,0,0,1,0-2.52A1.6,1.6,0,0,1,51.2,17a2.85,2.85,0,0,1,1.32.18A.76.76,0,0,1,52.86,17.55Z"/><path class="cls-62" d="M55.57,24.16c.94,0,1.48.34,1.36,1.37a1.09,1.09,0,0,1,0,1.4,1.13,1.13,0,0,1-1.39.13,2.29,2.29,0,0,1-.41-2.48A.88.88,0,0,1,55.57,24.16Z"/><path class="cls-63" d="M54.21,16.19l0,1.26-1.32.09,0-.14a1,1,0,0,1,0-1.4A1,1,0,0,1,54.21,16.19Z"/><path class="cls-64" d="M56.91,26.88c0-.45,0-.9,0-1.35q1.45-.15,1.35,1.32l-.13.2a.93.93,0,0,1-1.1,0Z"/><path class="cls-65" d="M52.91,21.46c.94-.05,1.43.36,1.34,1.35L54.1,23a1,1,0,0,1-1.54-1.2A.72.72,0,0,1,52.91,21.46Z"/><path class="cls-66" d="M54.25,22.81c1-.06,1.44.35,1.32,1.35l-.06.14a1.09,1.09,0,0,1-1.4,0,1,1,0,0,1,0-1.4Z"/><path class="cls-67" d="M59.56,26.93l0,1.27a.93.93,0,0,1-1,.38,1.07,1.07,0,0,1-.49-.29A1,1,0,0,1,58.2,27l.07-.11Z"/><path class="cls-68" d="M51.55,20.07c.92,0,1.43.41,1.36,1.39l-.11.1a1,1,0,0,1-1.35,0,1,1,0,0,1,0-1.36Z"/><path class="cls-69" d="M70.43,39.38l-.11.33c-.73.23-1.19-.23-1.6-.68a1.26,1.26,0,0,0-2-.13,2.43,2.43,0,0,1-3.49,0,1.19,1.19,0,0,0-1.78,0,2.53,2.53,0,0,1-3.64,0c-.7-.63-1.26-.43-1.92.09a2.41,2.41,0,0,1-3.23.11,2.27,2.27,0,0,1-.32-1.41c-.13-1.35-.38-2.7.37-4a1.28,1.28,0,0,1,1.38-.27c.53.22.79.76,1.17,1.13,1,1,1.81,1.5,3.09.31a2,2,0,0,1,2.63.06c1,.94,1.74.77,2.72,0a2,2,0,0,1,2.65,0,4.44,4.44,0,0,0,2.75,1,1.46,1.46,0,0,1,1.24.49Z"/><path class="cls-70" d="M70.32,36.33H69a3.62,3.62,0,0,1-.21-4,1,1,0,0,1,1.48,0l.11,2.38Z"/><path class="cls-71" d="M58.57,28.31l1-.11c3.13,0,6.27.08,9.4,0,1.06,0,1.6.23,1.32,1.38-.58.45-.8,1.23-1.44,1.64a2.49,2.49,0,0,1-.8.21,23.2,23.2,0,0,1-6.91-.14,13.77,13.77,0,0,0-2-1.43C58.54,29.61,58,29.11,58.57,28.31Z"/><path class="cls-72" d="M69,31c-.08-1,.21-1.57,1.33-1.35v2.66H69.06A.86.86,0,0,1,69,31Z"/><path class="cls-73" d="M15.11,28.2h1.35v.15A1.58,1.58,0,0,1,17,29.72a1.64,1.64,0,0,1-.48,1.42c-2.48.86-5,.43-7.53.32a2.13,2.13,0,0,1-.49-.21C7.89,30.79,7.65,30,7,29.63H4.38c-.28-1.15.26-1.41,1.33-1.39C8.84,28.28,12,28.22,15.11,28.2Z"/><path class="cls-74" d="M21.85,16.12l-1.36.07-1.3-.11a.88.88,0,0,1,0-1.3l2.37,0,.35,0A.92.92,0,0,1,21.85,16.12Z"/><path class="cls-75" d="M19.15,14.78l0,1.3H17.84c0-.42-.05-.84-.08-1.26Z"/><path class="cls-76" d="M56.92,14.7l1.28.1c0,.44,0,.88,0,1.32l-1.3.1-.05-.15a.85.85,0,0,1,0-1.24Z"/><path class="cls-77" d="M24.58,14.82l1.3-.09a1.14,1.14,0,0,1,1.43-.07,1.66,1.66,0,0,1,.43,1.44,1.74,1.74,0,0,1-.44,1.45,1.11,1.11,0,0,1-1.43-.06h0c-.43-.58-1.14-.87-1.56-1.47A1,1,0,0,1,24.58,14.82Z"/><path class="cls-78" d="M27.25,14.83l-1.37-.1V13.55l1.35-.13a1.1,1.1,0,0,1,1.45-.07,1.2,1.2,0,0,1,0,1.48A1.09,1.09,0,0,1,27.25,14.83Z"/><path class="cls-79" d="M21.85,16.12c0-.44,0-.89,0-1.34l1.36,0A1.09,1.09,0,0,1,23.44,16a1,1,0,0,1-.38.37,1.17,1.17,0,0,1-1.24-.21Z"/><path class="cls-80" d="M23.21,16.12c0-.44,0-.88,0-1.32l1.35,0,0,1.26a1.84,1.84,0,0,0-.17.22A.92.92,0,0,1,23.21,16.12Z"/><path class="cls-81" d="M35.31,6.75l2.7,0h0a2.08,2.08,0,0,1,.13,2.73,2.31,2.31,0,0,1-2.76.16,1.6,1.6,0,0,1-.55-1.43A1.63,1.63,0,0,1,35.31,6.75Z"/><path class="cls-82" d="M32.68,6.71l0-1.32H34L34,6.66c-.06.07-.11.14-.17.2A.93.93,0,0,1,32.68,6.71Z"/><path class="cls-83" d="M35.31,6.75V8.06a1,1,0,0,1-1.38,0,1,1,0,0,1,0-1.39L34,6.66Z"/><path class="cls-84" d="M28.56,14.71V13.4a3.14,3.14,0,0,1,.09-4l1.29-.08h1.35l.2.19a1.21,1.21,0,0,1,0,1.28A2.49,2.49,0,0,0,30.5,13a3.11,3.11,0,0,1-.29,1.64,1,1,0,0,1-.4.36A1,1,0,0,1,28.56,14.71Z"/><path class="cls-85" d="M28.64,9.42l-.09,4-1.32,0c0-.44,0-.88,0-1.32V9.4Z"/><path class="cls-86" d="M48.86,10.78l0,2.61-.17.21a1.06,1.06,0,0,1-1.27-.12,1.69,1.69,0,0,1-.4-1.25,2.54,2.54,0,0,1,.18-1.31.9.9,0,0,1,.36-.39,1,1,0,0,1,1.22.15Z"/><path class="cls-87" d="M50.18,13.5l0,1.24c-.06.07-.13.14-.19.22a1,1,0,0,1-1.3-.17,1,1,0,0,1,.09-1.29v-.11Z"/><path class="cls-88" d="M42.05,5.36l0,1.31-.06,0a1,1,0,0,1-1.37,0,1,1,0,0,1,.07-1.39h0Z"/><path class="cls-89" d="M50.15,6.71V5.42l1.35-.09,0,1.39v0a1,1,0,0,1-1.18.19Z"/><path class="cls-90" d="M31.28,9.34l.09-1.26L32.61,8l.21.19a1,1,0,0,1-.21,1.3,1.08,1.08,0,0,1-1.33-.06Z"/><path class="cls-91" d="M33.91,6.72,34,8c-.05.07-.11.13-.16.19A.83.83,0,0,1,32.7,8h-.09c0-.44,0-.88.07-1.32Z"/><path class="cls-92" d="M40.75,6.67l1.27,0L42.11,8c0,.44,0,.87,0,1.3l-.18.22a1.07,1.07,0,0,1-1.29-.12,1.72,1.72,0,0,1-.4-1.3,1.9,1.9,0,0,1,.3-1.31Z"/><path class="cls-93" d="M43.44,9.45l1.3-.11a1.15,1.15,0,0,1,1.33-.14,1.16,1.16,0,0,1,.33,1.32,1,1,0,0,1-.35.45,2.28,2.28,0,0,1-1.4.26,1.61,1.61,0,0,1-1.36-.43A1,1,0,0,1,43.44,9.45Z"/><path class="cls-94" d="M43.44,9.45l0,1.28a.94.94,0,1,1-1.36-1.3l.05-.09Z"/><path class="cls-95" d="M46.11,9.37l-1.37,0c0-.4,0-.81,0-1.21L46.14,8l0,.09A.9.9,0,0,1,46.11,9.37Z"/><path class="cls-96" d="M51.46,17.42l-1.27.08a1.12,1.12,0,0,1-1.36.1,1.14,1.14,0,0,1-.28-1.27c.37-.67,1.15-.91,1.57-1.52l.08-.07,1.3,0A1.62,1.62,0,0,1,52,16.11,1.46,1.46,0,0,1,51.46,17.42Z"/><path class="cls-97" d="M51.51,16.15c0-.46,0-.91,0-1.37l1.37,0h1.35l1.33,0,0,0a.83.83,0,0,1,0,1.26l-1.31.12H52.88A1,1,0,0,1,51.51,16.15Z"/><path class="cls-98" d="M55.52,16.07V14.81l1.34,0c0,.41,0,.82,0,1.24Z"/><path class="cls-99" d="M47.44,6.78l1.34-.12,1.37,0v0a1,1,0,0,1,0,1.37V8a1.55,1.55,0,0,1-1.23.49,1.9,1.9,0,0,1-1.31-.3L47.47,8Z"/><path class="cls-100" d="M46.11,9.37c0-.43,0-.87,0-1.31L47.47,8l0,.05A1.59,1.59,0,0,1,48,9.4a1.58,1.58,0,0,1-.51,1.34v0a.89.89,0,0,1-1.32.06Z"/><path class="cls-101" d="M50.17,8.06c0-.45,0-.91,0-1.37h1.36c0,.44,0,.89-.08,1.33Z"/><path class="cls-102" d="M38,9.37,38,6.7h1.33l.21.16a1.82,1.82,0,0,1,.3,1.24,1.93,1.93,0,0,1-.3,1.26,1.15,1.15,0,0,1-1.2.34A.79.79,0,0,1,38,9.37Z"/><path class="cls-103" d="M40.72,5.34l0,1.33,0,.1a.89.89,0,0,1-1.27-.1l-.08,0c0-.43,0-.86,0-1.3Z"/><path class="cls-104" d="M47.44,10.74l.05-1.32a.87.87,0,0,1,1.15-.22l.18.19-.09,1.29Z"/><path class="cls-105" d="M48.8,8h1.37c0,.44-.07.89-.11,1.33l-1.24,0h0A1,1,0,0,1,48.8,8Z"/><path class="cls-106" d="M31.28,40.39c0-2.72,0-5.43,0-8.15a7.7,7.7,0,0,0-.36-2.61,1.24,1.24,0,0,1,1.79-.08c.72.86.52,1.88.47,2.87.22,7.06.06,14.13.09,21.19a2.54,2.54,0,0,1-.47,1.58,1.06,1.06,0,0,1-1.54,0V42.41A1.39,1.39,0,0,1,31.28,40.39Z"/><path class="cls-107" d="M31.28,55.19h1.39a1,1,0,0,1,1.42,0A1.16,1.16,0,0,1,34,56.72c-1.73.88-3.55.43-5.34.39-1,.08-1.94.25-2.74-.52l0-.71c.15-.77.75-.67,1.29-.67C28.55,55.19,29.91,55.2,31.28,55.19Z"/><path class="cls-108" d="M20.53,47.17l-2.72,0V47c-.63-.95-.14-1.52.74-1.75a4,4,0,0,1,3.25.31,1,1,0,0,1,0,1.48Z"/><path class="cls-109" d="M21.8,47.08l.05-1.3a1.46,1.46,0,0,0,.16-.19,1.07,1.07,0,0,1,.92-.1.75.75,0,0,1,.34.32C23.3,46.84,22.83,47.28,21.8,47.08Z"/><path class="cls-110" d="M24.6,44.46l-.06,1.31-1.27,0-.12-.07a1.07,1.07,0,0,1-.25-1.08,1.16,1.16,0,0,1,.26-.39,1.27,1.27,0,0,1,1.12-.12A.69.69,0,0,1,24.6,44.46Z"/><path class="cls-111" d="M43.42,31V55.19a1.07,1.07,0,0,1-1.49.08,1.55,1.55,0,0,1-.31-.58,3.71,3.71,0,0,1-.23-1.48q0-9.87,0-19.76a6.78,6.78,0,0,1,.1-1,4.1,4.1,0,0,1,.41-2.85,1.15,1.15,0,0,1,1.5-.1A1,1,0,0,1,43.42,31Z"/><path class="cls-112" d="M42.07,55.2h1.35l4.1,0c.54,0,1.15-.1,1.29.67l0,.71c-.8.76-1.76.6-2.71.52-1.37.07-2.78.4-4.06-.42A1.08,1.08,0,0,1,42.07,55.2Z"/><path class="cls-113" d="M54.17,47.17l-1.32,0,0,0a1,1,0,0,1,0-1.44,3.91,3.91,0,0,1,3-.42c.87.12,1.46.56,1.3,1.57a1,1,0,0,1-.34.53A2.26,2.26,0,0,1,54.17,47.17Z"/><path class="cls-114" d="M54.17,47.17l2.71,0a.81.81,0,0,1,0,1.23l-1.36.09C54.61,48.56,54.05,48.21,54.17,47.17Z"/><path class="cls-115" d="M34,67.32c-.12-1,.36-1.45,1.36-1.34,2-.58,2.14-2.13,2.06-3.88,0-1.19-.3-2.46.6-3.51l0-.66.18-.23a2.46,2.46,0,0,1,2.51,0,1.4,1.4,0,0,1,.37.47c.31,1.51.63,3-.37,4.42,0,1.57,0,3.15,0,4.72,0,.54.11,1.25-.69,1.3s-1.59.43-1.92-.5-.8-.81-1.44-.79A1.86,1.86,0,0,1,34,67.32Z"/><path class="cls-116" d="M25.9,67.34l0-1.37A3,3,0,0,0,28.31,63c1.28-1.25,2.64-2.41,3.9-3.68.47-.46,1-.94,1.76-.43.63,3.36-.83,5.61-3.47,7.6C28.93,67.69,27.42,67.09,25.9,67.34Z"/><path class="cls-117" d="M40.73,62.61l0-4.68a1,1,0,0,1,1.22-.3c1.54,1.44,3.1,2.86,4.51,4.44a3.78,3.78,0,0,1,.21,2.05,1.41,1.41,0,0,0,.88,1.46,1.51,1.51,0,0,1,.95,1.75v0c-1.84.36-2.93-.87-4.12-1.93S42.42,62.92,40.73,62.61Z"/><path class="cls-118" d="M38,58.59c0,1.57,0,3.13,0,4.7,0,2.88.43,2.72-2.68,2.69,0-1.34,0-2.67,0-4C35.33,59.33,35.33,59.33,38,58.59Z"/><path class="cls-119" d="M34,58.91c-1.35.22-1.88,1.48-2.8,2.25S29.74,62.75,28.61,63a1.37,1.37,0,0,1-.53-1.12c-.16-1.4-.45-2.82.49-4.09a5.64,5.64,0,0,1,5.43.17Z"/><path class="cls-120" d="M34,57.93l-5.34,0-.22-.15a1,1,0,0,1,.13-1.22l5.4,0a1.09,1.09,0,0,1,1.41-.1,1,1,0,0,1,0,1.39Z"/><path class="cls-121" d="M34,67.32l2.69,0c.13,1-.24,1.37-1.26,1.37S33.84,68.43,34,67.32Z"/><path class="cls-122" d="M35.36,57.84V56.6a2,2,0,0,1,2.39-.39,1.13,1.13,0,0,1,.45.36,1.08,1.08,0,0,1-.2,1.32l0,0Z"/><path class="cls-123" d="M46.12,64.29l0-2.33a1.12,1.12,0,0,1-.15-1.34c1.67-1.13,2,.66,2.83,1.31l0,2.7C47.79,65.39,46.93,65.05,46.12,64.29Z"/><path class="cls-124" d="M48.77,61.93c-.55,0-1.16.13-1.32-.65s-.78-.64-1.32-.7a2.13,2.13,0,0,1-.38-2.41,1.27,1.27,0,0,1,.33-.43c1.56-.69,1.88.83,2.68,1.5Z"/><path class="cls-125" d="M48.76,59.24c-.55,0-1.15.11-1.3-.67s-.78-.63-1.3-.68a.83.83,0,0,1,0-1.3h2.64C48.77,57.48,48.76,58.36,48.76,59.24Z"/><path class="cls-126" d="M46.12,64.29l2.67.34c-.08.9.32,1.86-.32,2.7-.29-.51-.43-1.26-1.13-1.27C46,66.05,46.07,65.19,46.12,64.29Z"/><path class="cls-127" d="M28.57,61.92c0,.35,0,.7,0,1,0,.12,0,.23,0,.34C28.5,66,29.16,66,25.92,66c0-.9,0-1.8,0-2.7C26.74,62.69,27,61,28.57,61.92Z"/><path class="cls-128" d="M28.57,61.92c-.52.07-1.16-.08-1.32.69s-.76.67-1.31.66c0-.9,0-1.8,0-2.69.66-.48.57-1.26.79-1.92.31-.92.83-1.43,1.83-.76l.08.05Z"/><path class="cls-129" d="M28.58,57.9c-1-.08-1.45.32-1.34,1.33S27,60.73,26,60.58c0-1.33,0-2.66,0-4h2.65C28.58,57,28.58,57.46,28.58,57.9Z"/><path class="cls-130" d="M5.74,41.72v-4a2.14,2.14,0,0,1,3,.17,1.27,1.27,0,0,0,1.91,0A2.37,2.37,0,0,1,14,37.74a1.42,1.42,0,0,0,2.17,0,2.26,2.26,0,0,1,3.07-.11c.9.73,1.6.91,2.45,0A1.2,1.2,0,0,1,23,37.4a1.06,1.06,0,0,1,.43.29,3.24,3.24,0,0,1,.4,2,2.36,2.36,0,0,0,1,2.15,1.11,1.11,0,0,1-1.51,1.54,3.2,3.2,0,0,1-.85-.79c-1-1-1.88-2.09-3.45-.61a2,2,0,0,1-2.78-.25,1.41,1.41,0,0,0-2.18,0,2.4,2.4,0,0,1-3.35-.1,1.25,1.25,0,0,0-1.91,0A2.11,2.11,0,0,1,5.74,41.72Z"/><path class="cls-131" d="M5.74,41.72c1.08-.08,2.25.41,3-1.08.24-.5,1.6-.65,2.3.3a1.58,1.58,0,0,0,2.74.08,1.72,1.72,0,0,1,2.65-.08,1.58,1.58,0,0,0,2.74.08,1.57,1.57,0,0,1,2.67.09c.42.7,1.76.76,1.38,2a1,1,0,0,1,0,1.35v0a1.61,1.61,0,0,1-1.28.51,3.68,3.68,0,0,1-3.31-.76,1.09,1.09,0,0,0-1.64,0,2.53,2.53,0,0,1-3.64.07,1.29,1.29,0,0,0-1.92.05,2.43,2.43,0,0,1-3.49-.08c-.64-.6-1.65-.43-2.19-1.16Z"/><path class="cls-69" d="M23.2,37.69c-.54,0-1,0-1.38.64a1.56,1.56,0,0,1-2.65.05,1.64,1.64,0,0,0-2.7,0,1.62,1.62,0,0,1-2.69.06,1.57,1.57,0,0,0-2.73.08c-.7,1-2.07.8-2.31.31-.73-1.48-1.91-1-3-1.11,0-.45,0-.9,0-1.34.88-.69,2-1,2.9-1.61A2.11,2.11,0,0,1,11.3,35a1.41,1.41,0,0,0,2.18,0,2.42,2.42,0,0,1,3.37,0,1.29,1.29,0,0,0,1.66.25C20.87,34,21,34.06,23.08,36a1.19,1.19,0,0,1,.36.41A1.07,1.07,0,0,1,23.2,37.69Z"/><path class="cls-132" d="M23.19,36.35c-.54,0-1,0-1.37-.66a1.57,1.57,0,0,0-2.66,0,1.64,1.64,0,0,1-2.69,0,1.63,1.63,0,0,0-2.69,0A1.58,1.58,0,0,1,11,35.54c-.7-.93-2.06-.79-2.31-.29-.74,1.5-1.91,1-3,1.09,0-.89,0-1.78,0-2.67.79-.93,1.84-.59,2.82-.56A4.58,4.58,0,0,0,11,32.22a2.26,2.26,0,0,1,3.06.15,1.32,1.32,0,0,0,2,0,2,2,0,0,1,2.31-.51c1.45.95,3.08,1.1,4.66,1.5.16,0,.26.2.37.33A2.1,2.1,0,0,1,23.19,36.35Z"/><path class="cls-133" d="M5.74,43.07c1.08.11,2.26-.39,3,1.11.25.49,1.61.64,2.31-.3a1.58,1.58,0,0,1,2.74-.1,1.6,1.6,0,0,0,2.68-.05c.71-1.06,2.09-.93,2.38-.36.77,1.51,2,.92,3,1.06a1,1,0,0,1,0,1.35h0c-.94,0-1.88,0-2.82,0s-1.32.36-1.22,1.27l-1.35.12V47a2,2,0,0,0-2-.54c-2.54.55-5-.42-7.56-.16a1.39,1.39,0,0,1-1.17-.55Z"/><path class="cls-134" d="M5.73,45.76c1.74,0,3.47,0,5.21,0,.44,0,1-.15,1.28.22.52.65.87.48,1.51.08,1.31-.8,2.44-.34,2.73.93l-4,.14-6.79-.06C5.68,46.65,5.7,46.2,5.73,45.76Z"/><path class="cls-135" d="M8.34,33.64l-2.59,0,0-1.31A11.64,11.64,0,0,1,7,31h0a.92.92,0,0,1,1.31-.06l.05.11A1.8,1.8,0,0,1,8.34,33.64Z"/><path class="cls-136" d="M7,31c.14,1-.28,1.49-1.32,1.4C5.53,31.3,6,30.83,7,31Z"/><path class="cls-137" d="M8.36,30.91,7.05,31c0-.44,0-.89,0-1.34C8,29.49,8.54,29.81,8.36,30.91Z"/><path class="cls-138" d="M70.32,47.1v1.36l-8-.05A1,1,0,0,1,62.22,47a2,2,0,0,1,1.46-.4,15.15,15.15,0,0,1,4,0C68.6,46.49,69.55,46.33,70.32,47.1Z"/><path class="cls-139" d="M62.27,47.15l0,1.26H59.6a1,1,0,0,1,0-1.46A2,2,0,0,1,62.27,47.15Z"/><path class="cls-140" d="M59.56,47.18l0,1.24H56.92c0-.41,0-.82,0-1.23l0-.16a1.78,1.78,0,0,1,1.37-.4A1.27,1.27,0,0,1,59.56,47.18Z"/><path class="cls-141" d="M70.31,40.39v4a1.12,1.12,0,0,1-1.3.19c-.67-.92-1.37-1.16-2.35-.32a2.38,2.38,0,0,1-3.36,0,1.34,1.34,0,0,0-2.05,0,2.38,2.38,0,0,1-3.36,0c-.58-.5-1.14-.78-1.76-.18a3.79,3.79,0,0,1-3.31.81,4.77,4.77,0,0,1-1.36,0,1.59,1.59,0,0,1-1.3-.53h0a1.07,1.07,0,0,1-.29-1.19,1.1,1.1,0,0,1,.29-.42c1.19-.51.46-2,1.39-2.68a2.06,2.06,0,0,1,1.26-.26,3.68,3.68,0,0,1,3.29.78,1.08,1.08,0,0,0,1.64,0,2.48,2.48,0,0,1,3.61-.07,1.27,1.27,0,0,0,1.91-.05,2.42,2.42,0,0,1,3.36,0c.72.58,1.32.73,2,0A1.09,1.09,0,0,1,70.31,40.39Z"/><path class="cls-130" d="M70.31,40.39c-.56,0-1,0-1.34.69a1.64,1.64,0,0,1-2.61.11q-1.35-1.72-2.8.05a1.79,1.79,0,0,1-2.58,0c-.92-1.16-1.84-1.14-2.81,0-.7.86-2,.78-2.32.22-.75-1.53-2-.92-3-1.07a.93.93,0,0,1,0-1.35c1.07-.12,2.25.45,3-1.06.27-.56,1.61-.64,2.32.23,1,1.16,1.89,1.18,2.79,0a1.74,1.74,0,0,1,2.65.09,1.59,1.59,0,0,0,2.74-.06c.63-.83,2.19-.86,2.59.05a4,4,0,0,0,1.37,1.4Z"/><path class="cls-142" d="M70.32,47.1l-2.62,0a1,1,0,0,1-.21-1.26,1.11,1.11,0,0,1,.43-.37,2.17,2.17,0,0,1,2.4.35Z"/><path class="cls-143" d="M70.32,45.78H67.69a.91.91,0,0,1-.09-1.3A1,1,0,0,1,69,44.41l1.29,0Z"/><path class="cls-144" d="M25.87,17.49l1.41,0,.21.2a2.43,2.43,0,0,1-.08,2.51,1.11,1.11,0,0,1-1.35.22l-.2-.21Z"/><path class="cls-145" d="M24.61,16.08c1-.08,1.41.42,1.29,1.4l-1.39.05,0-.07a.92.92,0,0,1-.06-1.3Z"/><path class="cls-146" d="M24.51,21.49l.12-1.29,1.23,0,.09,0A1.05,1.05,0,0,1,26,21.5a1,1,0,0,1-1.31.2Z"/><path class="cls-147" d="M24.5,16.16l.06,1.3-1.34,0a.91.91,0,0,1,0-1.3h0Z"/><path class="cls-148" d="M23.18,16.12l0,1.3H21.87c0-.41,0-.82-.05-1.23Z"/><path class="cls-149" d="M23.25,21.58l1.26-.09.08.06a1,1,0,0,1,0,1.37,1,1,0,0,1-1.35-.06Z"/><path class="cls-150" d="M23.25,22.86l1.26,0,.21.17a1.07,1.07,0,0,1-.08,1.26,1,1,0,0,1-1.25.16l-.18-.2Z"/><path class="cls-151" d="M21.84,24.19l1.37,0h0a1,1,0,0,1,.17,1.29,1.15,1.15,0,0,1-1.29.35.9.9,0,0,1-.42-.35,1,1,0,0,1,.21-1.27Z"/><path class="cls-152" d="M19.21,25.59l1.29,0c.66,1.09.32,1.62-.92,1.63a.77.77,0,0,1-.44-.35Z"/><path class="cls-153" d="M17.78,28.23l0-1.25,1.33-.14,0,.15a.87.87,0,0,1-.05,1.32A.91.91,0,0,1,17.78,28.23Z"/><path class="cls-154" d="M17.78,28.23c1,.17,1.49-.19,1.39-1.24,1,0,1.52-.36,1.33-1.43h0a1,1,0,0,1,1.34-.08v.15a1.49,1.49,0,0,1,.5,1.27,2.08,2.08,0,0,1-.3,1.33,20.24,20.24,0,0,0-1.67,1.67,4.13,4.13,0,0,1-2.55.22,1.71,1.71,0,0,1-1.37-.51V28.34Z"/><path class="cls-155" d="M21.85,25.48l-1.34.08,0-1.3,1.32,0Z"/><path class="cls-156" d="M48.81,17.48l1.38,0v2.6c-.06.08-.12.15-.17.23a1.09,1.09,0,0,1-1.35-.15,2.29,2.29,0,0,1-.1-2.51Z"/><path class="cls-157" d="M51.51,16.15l1.37,0c0,.41,0,.81-.05,1.22l-1.37,0C51.48,17,51.49,16.57,51.51,16.15Z"/><path class="cls-158" d="M51.47,20.21l.07,1.26-.18.22a1.06,1.06,0,0,1-1.31-.16,1,1,0,0,1,.06-1.3l.09-.13Z"/><path class="cls-159" d="M54.22,24.2l1.29.1c0,.84,0,1.68.05,2.52a1.76,1.76,0,0,0-.14.23c-1.58.63-1.86-1-2.78-1.58a1.23,1.23,0,0,1,.16-1.38A1.12,1.12,0,0,1,54.22,24.2Z"/><path class="cls-160" d="M55.56,26.82l1.35.06,0,0a1.06,1.06,0,0,1,.1,1.42,1.2,1.2,0,0,1-1.47.05,1,1,0,0,1,0-1.42Z"/><path class="cls-161" d="M56.92,28.23l0-1.31,1.32,0c0,.42,0,.84.07,1.26A.86.86,0,0,1,56.92,28.23Z"/><path class="cls-162" d="M54.22,24.2l-1.38,0a1,1,0,0,1-1.29.14,1.13,1.13,0,0,1-.33-1.28.92.92,0,0,1,.35-.43,1.11,1.11,0,0,1,1.28.21l1.3.05C54.17,23.34,54.2,23.77,54.22,24.2Z"/><path class="cls-163" d="M52.85,22.86l-1.33,0a.82.82,0,0,1-.07-1.24l.09-.11,1.26.09Z"/><path class="cls-164" d="M56.92,28.23h1.35l.3.09c0,.84.52,1.11,1.18,1.29S61,30,60.92,30.89a2,2,0,0,1-2.41.43c-.69-.26-.84-1.37-1.83-1.18a4.33,4.33,0,0,1-1.39,0c-1.16-.14-1.75-.65-1.2-1.88a1.06,1.06,0,0,1,1.46,0Z"/><path class="cls-132" d="M69,31c0,.43.05.87.07,1.3,0,1.36,0,2.71,0,4.07-1.06-.15-2.27.5-3-1.06-.28-.56-1.62-.65-2.33.22-1,1.17-1.87,1.19-2.81,0a1.8,1.8,0,0,0-2.59,0c-.94,1.17-1.91,1.18-2.8,0-.44-.6-1.65-.67-1.3-1.84,1.72-2.26,2.31-2.4,4.69-1a1.23,1.23,0,0,0,1.65-.2,2.44,2.44,0,0,1,3.49,0c.69.57,1.3.64,1.9,0s1.82-.63,2.42-1.46Z"/><path class="cls-165" d="M68.34,31c0,.75-.06,1.37-1,1.33-.5,0-.75.23-1,.68a1.58,1.58,0,0,1-2.67,0,1.63,1.63,0,0,0-2.69,0,1.63,1.63,0,0,1-2.7,0,1.55,1.55,0,0,0-2.65.06c-.37.67-.86.6-1.39.65l-1.32,0-.21-.16a1.9,1.9,0,0,1-.3-1.29,1.77,1.77,0,0,1,.3-1.26c.82-.76,2.13-.42,2.9-1.28h1.3c.52.37.9.89,1.41,1.27l2.65,0Z"/><path class="cls-166" d="M52.87,33.63l-.07,4a1,1,0,0,1-1.19.27,1,1,0,0,1-.39-.36A2.6,2.6,0,0,1,51,36.25a4.91,4.91,0,0,1,0-1.38,1.6,1.6,0,0,1,.44-1.35,1,1,0,0,1,1.37.15Z"/><path class="cls-167" d="M51.5,37.69l1.3,0L52.86,39c0,.45,0,.9,0,1.35l-1.31,0A1.81,1.81,0,0,1,51.5,37.69Z"/><path class="cls-168" d="M17.84,29.64l2.64-.06a1.19,1.19,0,0,1,1.31-.2c.62.54,1.17,1.16,1.74,1.76a2.08,2.08,0,0,1-.38,2.52H20.46a1.28,1.28,0,0,1-1.35-.71,1.63,1.63,0,0,0-2.61-.08c-.89,1.14-1.8,1.1-2.81-.08-.71-.84-2.06-.77-2.33-.18-.74,1.6-2,.85-3,1,0-.87.05-1.75.07-2.62l8-.09C16.94,30.53,17.33,30,17.84,29.64Z"/><path class="cls-169" d="M17.84,29.64c.08,1-.37,1.46-1.39,1.29,0-.44,0-.88,0-1.32Z"/><path class="cls-170" d="M27.28,17.44V16.17c.65-.92,2.08-.35,2.66-1.41h0c.63-.41.66-1.08.82-1.72.27-1.07.84-1.69,2-1a1.8,1.8,0,0,1,.39,1.39,7.38,7.38,0,0,1,0,2.65,2.52,2.52,0,0,1-.26,1.38c-1.15.7-1,1.86-1.07,3a3.17,3.17,0,0,1-.45,2.54,3.16,3.16,0,0,1-2.62.46c-.91,0-1.78-.12-1.87-1.32a1.41,1.41,0,0,1,.12-.49c.42-.51,1.11-.76,1.36-1.44a1.62,1.62,0,0,1,.32-.32c.94-1,.86-1.47-.35-1.86a1.5,1.5,0,0,1-1.11-.48Z"/><path class="cls-171" d="M29.93,14.76c.07,2.28-1.72,1-2.66,1.41,0-.45,0-.89,0-1.34l1.31-.12Z"/><path class="cls-172" d="M35.4,9.37H38l.14,0a1.12,1.12,0,0,1,0,1.43,2.51,2.51,0,0,1-2.6.22A1.08,1.08,0,0,1,35,9.79.74.74,0,0,1,35.4,9.37Z"/><path class="cls-173" d="M34,8l1.33,0c0,.44,0,.88.08,1.31l-.11.06A.95.95,0,1,1,34,8.07Z"/><path class="cls-174" d="M32.64,12.09c-1-.12-1.46.25-1.35,1.27s-.25,1.58-1.37,1.41a23.26,23.26,0,0,0,0-2.64c-.12-1.11.34-1.52,1.38-1.45a1.72,1.72,0,0,1,1.37-.44,1.67,1.67,0,0,1,1.42.42,1.19,1.19,0,0,1-.05,1.46A1,1,0,0,1,32.64,12.09Z"/><path class="cls-175" d="M32.6,10.7l-1.29,0,0-1.22,1.31-.08.21.16A.86.86,0,0,1,32.6,10.7Z"/><path class="cls-176" d="M47.43,12.09v1.29l-.16.21a1,1,0,0,1-1.23-.09,1.19,1.19,0,0,1-.2-1.26.9.9,0,0,1,.36-.39A1,1,0,0,1,47.43,12.09Z"/><path class="cls-177" d="M48.8,13.5v1.2c-.06.07-.11.15-.17.23a1,1,0,0,1-1.33-.14,1.06,1.06,0,0,1,.14-1.34v-.07Z"/><path class="cls-178" d="M47.43,12.09H46.12a.92.92,0,0,1,0-1.35v0l1.32-.06C47.44,11.16,47.43,11.63,47.43,12.09Z"/><path class="cls-179" d="M50.12,14.81c.23,1.07-.33,1.42-1.28,1.4L48.63,16a.93.93,0,0,1,.16-1.19l0-.15Z"/><path class="cls-180" d="M34,8.07l0,1.32-.17.19a.94.94,0,0,1-1.17-.17l-.07,0c0-.46.08-.91.11-1.36Z"/><path class="cls-181" d="M39.43,6.67l1.27.1c0,.43,0,.85,0,1.28a.88.88,0,0,1-1.27,0Z"/><path class="cls-182" d="M39.41,8.05h1.27c0,.45.08.89.11,1.34l-.15.18a1,1,0,0,1-1.14,0l-.15-.18Z"/><path class="cls-183" d="M42.05,9.43l0,1.31c-.07.06-.13.13-.2.2a1.08,1.08,0,0,1-1.32-.2,1.13,1.13,0,0,1,.08-1.35h.15Z"/><path class="cls-184" d="M42.08,10.74h2.68a1.09,1.09,0,0,1,.29,1.17,1.31,1.31,0,0,1-.26.4c-1,.95-1,1.42.09,2a2,2,0,0,1,1.22.3,1.25,1.25,0,0,1,.35.41,2.92,2.92,0,0,1-.08,2.37c-1.22,1.11-1.48,1.49,0,3a1.21,1.21,0,0,1-.29,1.32,2.33,2.33,0,0,1-2.67,0,3,3,0,0,1-.53-2.57c0-1.13.06-2.31-1.06-3.07a4.15,4.15,0,0,1-.28-2.6,2.82,2.82,0,0,1,.54-2.62Z"/><path class="cls-185" d="M44.78,12.1l0-1.36h1.36v1.35l0,0A.9.9,0,0,1,44.78,12.1Z"/><path class="cls-186" d="M48.84,16.21l0,1.27h0a1,1,0,0,1-1.45,0c-.24-1.55-.09-1.69,1.42-1.39Z"/><path class="cls-187" d="M48.8,8c0,.45,0,.9,0,1.35l-1.3,0c0-.45,0-.9-.05-1.36Z"/><path class="cls-188" d="M38,10.75c.05-.45.09-.89.13-1.34l1.25,0h0c.76.75.4,2.16,1.56,2.69a2.1,2.1,0,0,1,.27,1.36,1.84,1.84,0,0,1-.38,1.43,1.84,1.84,0,0,1-1.46.4,1.81,1.81,0,0,1-1.46-.44,3.33,3.33,0,0,1-.41-2.68A1.82,1.82,0,0,1,38,10.75Z"/><path class="cls-189" d="M24.5,43.06V41.74a4,4,0,0,1-.3-3.66.9.9,0,0,1,.43-.39c.92-.1,1.31.28,1.27,1.23,0,1.43,0,2.87,0,4.3,0,1-.46,1.26-1.3,1.24l-.1-.07A1,1,0,0,1,24.5,43.06Z"/><path class="cls-190" d="M23.15,33.66l0-2.7c-.57-1.09-.28-1.66,1-1.66a.86.86,0,0,1,.46.34l-.09,6.72a.89.89,0,0,1-1.3,0l0,0C23.18,35.45,23.16,34.56,23.15,33.66Z"/><path class="cls-191" d="M29.94,29.6c-.85,0-1.38-.31-1.34-1.22S28.1,27,27.24,26.9a1.07,1.07,0,0,1,0-1.46,2.3,2.3,0,0,1,2.75,0,3.12,3.12,0,0,1,.48,2.73A1.78,1.78,0,0,1,29.94,29.6Z"/><path class="cls-192" d="M29.94,29.6l0-1.37a1.59,1.59,0,0,1,1.31-.47,2,2,0,0,1,1.38.32,1.09,1.09,0,0,1,.16,1.34l-.21.19-1.66,0Z"/><path class="cls-193" d="M25.91,26.92l-.05,1.31a1,1,0,0,1-1.35.12,2.47,2.47,0,0,1-.3-2.56,1.26,1.26,0,0,1,.41-.45,1.21,1.21,0,0,1,1.41.19A1.1,1.1,0,0,1,25.91,26.92Z"/><path class="cls-194" d="M23.23,36.32l1.3,0c0,.44.07.88.1,1.33h-.16a.87.87,0,0,1-1.27,0h0Z"/><path class="cls-195" d="M25.91,26.92v-1.3c.25-.44.63-.43,1-.32a.63.63,0,0,1,.31.35c0,.42,0,.84,0,1.25Z"/><path class="cls-196" d="M24.55,28.25l1.31,0c.18,1-.21,1.48-1.24,1.41l-.12-.06a1,1,0,0,1-.14-1.16Z"/><path class="cls-197" d="M34,55.27l-1.29-.07V32.32a1,1,0,0,1,1.49,0,2.7,2.7,0,0,1,.48,1.74c0,6.41.08,12.83,0,19.24-.15.49,0,1-.23,1.49A1,1,0,0,1,34,55.27Z"/><path class="cls-198" d="M34,32.29l-1.3,0c0-.9-.05-1.81-.07-2.71l.1,0A1,1,0,0,1,34,29.5a1.56,1.56,0,0,1,.47,1.29,2,2,0,0,1-.29,1.33Z"/><path class="cls-199" d="M38,56.55l-2.66.05L34,56.55c0-.43,0-.86,0-1.28l.06-.14a2.9,2.9,0,0,1,2.44-.44,3.12,3.12,0,0,1,1.38.2,1,1,0,0,1,.4.38A1,1,0,0,1,38,56.55Z"/><path class="cls-200" d="M21.86,45.78c0-.45,0-.9,0-1.35h1.36l-.06,1.31Z"/><path class="cls-201" d="M24.5,43.06v1.33l-1.28.06V43.1Z"/><path class="cls-202" d="M50,31c-.54,0-1.06,0-1.27.72-.29,1-1.17.57-1.82.6-.9,0-.82-.68-.86-1.27.25-.58,1-.87.86-1.67a1.69,1.69,0,0,1,.38-1.16,1.27,1.27,0,0,1,1.2-.24c.68.24.83,1.08,1.49,1.34a1.44,1.44,0,0,1,.33.32,1.26,1.26,0,0,1,.06,1.12A.55.55,0,0,1,50,31Z"/><path class="cls-203" d="M48.84,43.06V37.72a1,1,0,0,1,1.47,0,6.13,6.13,0,0,1-.09,5.35h-.16A.81.81,0,0,1,48.84,43.06Z"/><path class="cls-204" d="M51.56,33.66,51.44,35a.84.84,0,0,1-1.25,0L50,31h.17a1,1,0,0,1,1.38-.1A1.71,1.71,0,0,1,52,32.27,1.81,1.81,0,0,1,51.56,33.66Z"/><path class="cls-205" d="M47.41,29.57c.29,1.15-.32,1.47-1.32,1.43l-1.3-.07a1,1,0,0,1-.12-1.36,2.27,2.27,0,0,1,2.74,0Z"/><path class="cls-206" d="M52.85,45.78l0,1.31c-1,.21-1.48-.23-1.44-1.25l.12-.21a1,1,0,0,1,1.13,0C52.75,45.65,52.8,45.72,52.85,45.78Z"/><path class="cls-207" d="M50.13,37.68l-1.28,0c-.16-1,.12-1.52,1.21-1.37l.22.09a.93.93,0,0,1,0,1.1Z"/><path class="cls-208" d="M50.17,44.41l1.3,0a.88.88,0,0,1,.08,1.28l-.11.11C50.44,45.87,50,45.43,50.17,44.41Z"/><path class="cls-209" d="M48.84,43.06h1.23l.1,1.35C49.11,44.56,48.65,44.13,48.84,43.06Z"/><path class="cls-210" d="M44.74,29.63c0,.44,0,.87,0,1.3l-1.37,0,0-1.27.1-.21a.92.92,0,0,1,1.11,0Z"/><path class="cls-211" d="M50.19,35l1.25,0,0,1.35a.84.84,0,0,1-1.25,0h-.16C50.11,35.9,50.15,35.46,50.19,35Z"/><path class="cls-112" d="M42.05,32.31V54.87a3,3,0,0,1-4,.35l-.12,0a1.17,1.17,0,0,1,0-1.51c.86-.47.73-1.3.73-2.08,0-5.61,0-11.22,0-16.83a3.79,3.79,0,0,1,.54-2.58A2.09,2.09,0,0,1,42.05,32.31Z"/><path class="cls-212" d="M39.35,14.8l1.33,0A1.31,1.31,0,0,1,41.23,16a11.65,11.65,0,0,1,.09,2.13,2.79,2.79,0,0,0,1,2.62,1.92,1.92,0,0,1,.22.81,12.77,12.77,0,0,1,.06,3.6c.11,1-.37,2.09.75,2.78a1.39,1.39,0,0,1,.31.41,1.11,1.11,0,0,1-.24,1.2l0,.12-1.31-.08a2.15,2.15,0,0,1-2.84.09,2.1,2.1,0,0,1-.5-1.39c0-4-.17-8,.09-12A2,2,0,0,1,39.35,14.8Z"/><path class="cls-210" d="M39.36,29.59l2.72,0c0,.9,0,1.8,0,2.7H39.37a1.06,1.06,0,0,1-1.45,0,2.22,2.22,0,0,1,0-2.72A1,1,0,0,1,39.36,29.59Z"/><path class="cls-213" d="M38.1,55.22a15.06,15.06,0,0,0,4-.35c0,.11,0,.22,0,.33l0,1.32c-.32.52-.85.54-1.38.55A2.78,2.78,0,0,1,38,56.55h0Z"/><path class="cls-214" d="M40.74,56.61l1.31-.09,4.09.07c0,.43,0,.86,0,1.3l-.1,0a3.29,3.29,0,0,1-4,0H40.7l0,0A.87.87,0,0,1,40.74,56.61Z"/><path class="cls-133" d="M69,44.41c-1-.08-1.51.32-1.34,1.38h0c-1.18,1-2.53.63-3.84.54-1.27.1-2.54.07-3.8.09a2.12,2.12,0,0,0-1.8.64l-1.34,0c.08-.91-.31-1.31-1.25-1.26s-1.87,0-2.81,0h0a1,1,0,0,1,0-1.35c1.06-.13,2.26.45,3-1.07.27-.55,1.61-.65,2.32.23,1,1.17,1.87,1.18,2.8,0a1.8,1.8,0,0,1,2.59,0c.95,1.17,1.93,1.22,2.78,0,.57-.8,1.3-.5,2-.47C69.14,43.16,69,43.87,69,44.41Z"/><path class="cls-215" d="M40.74,56.61c0,.42,0,.85,0,1.28H38l0-1.34Z"/><path class="cls-216" d="M42.06,57.93h4c0,.88.05,1.76.08,2.64,0,.46,0,.92,0,1.38A10.08,10.08,0,0,1,42.06,57.93Z"/><path class="cls-217" d="M23.2,37.69h1.27l0,4c-1,0-1.33-.53-1.3-1.44S23.2,38.56,23.2,37.69Z"/><path class="cls-218" d="M58.25,47.06c-.1-.91.26-1.33,1.22-1.29,1.39,0,2.78,0,4.16,0a.94.94,0,0,1,0,1.33l-1.37,0-2.71,0Z"/><path class="cls-219" d="M63.64,47.11c0-.45,0-.89,0-1.33h4.06c0,.43,0,.85,0,1.27Z"/><path class="cls-220" d="M50.23,43.08l-.1-5.4.07,0a.89.89,0,0,1,1.31,0h0l0,2.71C51.11,41.3,52.46,43.06,50.23,43.08Z"/><path class="cls-221" d="M52.85,44.43v1.35l-1.3-.05c0-.42-.06-.85-.08-1.28Z"/><path class="cls-222" d="M27.23,17.49h1.34a1.82,1.82,0,0,1,0,2.66h0a.91.91,0,0,1-1.19.18c-.06-.07-.12-.13-.17-.2Z"/><path class="cls-223" d="M25.87,21.47c0-.43.05-.86.08-1.29l1.27,0,.06.07a.91.91,0,0,1,0,1.3h0a1,1,0,0,1-1.22.16Z"/><path class="cls-224" d="M24.51,22.82c0-.42,0-.85.08-1.27l1.28-.08.06.09c.34,1.5.16,1.68-1.34,1.34Z"/><path class="cls-225" d="M24.59,22.9c1,.08,1.45-.34,1.34-1.34l1.32,0c-.17,1.08.38,1.44,1.37,1.38a1.06,1.06,0,0,1,.09,1.39,1.72,1.72,0,0,1-1.39.43,3.89,3.89,0,0,1-2.58-.28c-.07-.07-.13-.15-.19-.22Z"/><path class="cls-226" d="M23.21,25.55c0-.44,0-.89,0-1.34h1.36a1,1,0,0,1,.05,1.36l-.05,0a1,1,0,0,1-1.18.13C23.32,25.68,23.26,25.62,23.21,25.55Z"/><path class="cls-227" d="M21.85,26.92V25.63l1.36-.08,0,0C23.59,27.1,23.39,27.3,21.85,26.92Z"/><path class="cls-228" d="M21.85,26.92c1,.12,1.51-.29,1.34-1.35l1.36,0v2.64l0,0a1.9,1.9,0,0,1-2.49.23l-.18-.24Z"/><path class="cls-229" d="M21.85,29.61l-1.37,0c-.14-1,.4-1.42,1.36-1.37l0,.11A.86.86,0,0,1,21.85,29.61Z"/><path class="cls-230" d="M47.43,17.44l1.38,0c0,.89,0,1.78,0,2.68l-.15.19A1,1,0,0,1,47.17,20a2.56,2.56,0,0,1-.2-1.22,1.88,1.88,0,0,1,.27-1.2Z"/><path class="cls-231" d="M50.11,20.23l.06,1.28-.2.2a1,1,0,0,1-1.18-1.53l0,0Z"/><path class="cls-232" d="M51.45,21.58c0,.42,0,.83.07,1.24l0,.08a1,1,0,1,1-1.35-1.37l0,0Z"/><path class="cls-233" d="M55.55,28.26H54.18c-.8.72-2,.69-2.78,1.49a.85.85,0,0,1-1.21-.18l0,0a2.17,2.17,0,0,1-.25-2.56A1.61,1.61,0,0,1,51,26.41c.6,0,1.17,0,1.46-.67a.94.94,0,0,1,.34-.26c.47.18,1.24-.15,1.33.67s.83.68,1.36.82C55.54,27.4,55.54,27.83,55.55,28.26Z"/><path class="cls-234" d="M51.5,24.22h1.34v1.41a1.11,1.11,0,0,1-1.14.22,1,1,0,0,1-.39-.3,1.1,1.1,0,0,1,0-1.17Z"/><path class="cls-235" d="M50.2,22.82l1.29.08c0,.44,0,.88,0,1.32v0a1,1,0,0,1-1.24.21,1,1,0,0,1-.4-1.19A.74.74,0,0,1,50.2,22.82Z"/><path class="cls-236" d="M50.19,29.58c.33,0,.91,0,1-.13.55-1.66,1.9-1.13,3-1.18-.13,1.05.4,1.43,1.38,1.37-.26,1.78-1.65,1.21-2.72,1.31a1,1,0,0,1-1.35,0H50.21C50.2,30.49,50.19,30,50.19,29.58Z"/><path class="cls-237" d="M58.27,30.92c-1,.19-1.48-.25-1.41-1.27C57.89,29.44,58.35,29.89,58.27,30.92Z"/><path class="cls-238" d="M51.49,31h1.35l0,1.37a.88.88,0,0,1-1.26,0Z"/><path class="cls-239" d="M51.55,32.32h1.26v1.35H51.56C51.55,33.21,51.55,32.76,51.55,32.32Z"/><path class="cls-240" d="M51.51,37.7l-1.31,0c0-.46,0-.92,0-1.38l1.25,0C51.48,36.78,51.49,37.24,51.51,37.7Z"/><path class="cls-241" d="M21.85,29.61l0-1.29,2.63-.1c0,.46,0,.91,0,1.36-1.05-.12-1.39.43-1.33,1.38C22.15,31.08,21.74,30.6,21.85,29.61Z"/><path class="cls-242" d="M32.67,16.15V13.46a1,1,0,0,1,1.38-.14,1.69,1.69,0,0,1,.42,1.42,1.82,1.82,0,0,1-.41,1.44A1,1,0,0,1,32.67,16.15Z"/><path class="cls-243" d="M28.58,24.16c0-.42,0-.84,0-1.26l2.6-.08.23.18a1.12,1.12,0,0,1-.13,1.37,1.93,1.93,0,0,1-1.42.34A1.32,1.32,0,0,1,28.58,24.16Z"/><path class="cls-244" d="M32.67,16.15h1.24l.26.18A2.18,2.18,0,0,1,34,19a1.22,1.22,0,0,1-1.48,0,1.15,1.15,0,0,1,0-1.48Z"/><path class="cls-245" d="M31.22,22.82l.1-2.63a1,1,0,0,1,1.39-.13,1.73,1.73,0,0,1,.43,1.44,1.88,1.88,0,0,1-.4,1.46,1.08,1.08,0,0,1-1.43-.08Z"/><path class="cls-246" d="M28.58,20.16c0-.89,0-1.78,0-2.66.95-.15,1.41.15,1.4,1.22S29.71,20.32,28.58,20.16Z"/><path class="cls-247" d="M32.59,20.15l-1.28,0c.28-1-.93-2.66,1.28-2.75l.09,1.4A.87.87,0,0,1,32.59,20.15Z"/><path class="cls-248" d="M34,13.42l-1.28,0,0-1.37,1.26,0,.22.14A.85.85,0,0,1,34,13.42Z"/><path class="cls-246" d="M27.24,21.51c0-.43,0-.86,0-1.3l1.3-.05C28.73,21.21,28.28,21.66,27.24,21.51Z"/><path class="cls-249" d="M38,10.75v1.32c-.81.72-1.14,2.38-2.81,1.4a1.86,1.86,0,0,1-.34-1.39,1.36,1.36,0,0,1,.54-1.34Z"/><path class="cls-250" d="M35.37,10.74l-.09,1.34a.84.84,0,0,1-1.24,0l-.14,0,0-1.35a1,1,0,0,1,0-1.33h0l1.29,0C35.31,9.87,35.34,10.3,35.37,10.74Z"/><path class="cls-251" d="M34,9.39c0,.44,0,.88,0,1.33l-1.33,0,.06-1.29Z"/><path class="cls-252" d="M44.78,12.1l1.31,0,.06,1.3L46,13.6a1.06,1.06,0,0,1-1.36-.16,1.1,1.1,0,0,1,.15-1.36Z"/><path class="cls-253" d="M47.45,13.45l0,1.28a.91.91,0,0,1-1.37,0h0a.87.87,0,0,1-.06-1.27l.09-.13Z"/><path class="cls-254" d="M46.11,14.78l1.37,0,1.31.12c0,.4,0,.8,0,1.21-1,0-1.51.33-1.35,1.38l0,0a1,1,0,0,1-1.11.29A.78.78,0,0,1,46,17.4Z"/><path class="cls-255" d="M40.68,12.11c-2.2-.07-1-1.74-1.29-2.71h1.25c0,.44.07.89.11,1.33A.94.94,0,0,1,40.68,12.11Z"/><path class="cls-256" d="M40.68,12.11c0-.46,0-.93.07-1.39l1.32.08,0,2.66a.87.87,0,0,1-1.27-.05Z"/><path class="cls-257" d="M44.76,12.08l0,1.32a1,1,0,0,1,0,1.36c-1.1.16-1.38-.39-1.39-1.41S43.81,12,44.76,12.08Z"/><path class="cls-258" d="M40.76,13.41l1.27.05c0,.88.07,1.77.1,2.66l-.18.2a1,1,0,0,1-1.21-.2l-.06-1.35C40.71,14.32,40.73,13.86,40.76,13.41Z"/><path class="cls-259" d="M42.1,21.5l-.05-.64c-.38-.68-.67-1.36-.11-2.09a1,1,0,0,1,1.45.08l.1,2.67-.18.19A.94.94,0,0,1,42.1,21.5Z"/><path class="cls-260" d="M43.49,21.52h2.62l.2.21a1.07,1.07,0,0,1-.23,1.3,2.09,2.09,0,0,1-1.4.34,1.66,1.66,0,0,1-1.39-.44,1.12,1.12,0,0,1,.09-1.41Z"/><path class="cls-261" d="M46.1,20.21c-1,0-1.35-.38-1.36-1.38S45,17.37,46,17.4l.11.09a1.56,1.56,0,0,1,.47,1.24A1.89,1.89,0,0,1,46.31,20Z"/><path class="cls-262" d="M43.39,18.85l-1.28-.05A1.86,1.86,0,0,1,42,16.13h.15C44.38,16.19,43.06,17.9,43.39,18.85Z"/><path class="cls-263" d="M44.78,14.76c0-.45,0-.91,0-1.36l1.27.1.06,1.27Z"/><path class="cls-264" d="M46.11,21.52c0-.44,0-.87,0-1.31l0-.1a1,1,0,0,1,1.33.06h0a1.09,1.09,0,0,1,.25,1.23.9.9,0,0,1-.37.38,1.1,1.1,0,0,1-1.24-.25Z"/><path class="cls-265" d="M35.37,13.42c.54,0,1.16.12,1.31-.66s.77-.64,1.3-.69c0,.88.05,1.77.07,2.65,0,.08-.09.15-.13.22a1.8,1.8,0,0,1-1.23.33A2.37,2.37,0,0,1,35.41,15a1,1,0,0,1-.35-.4A1,1,0,0,1,35.37,13.42Z"/><path class="cls-266" d="M39.35,14.8l0,1.33a1.08,1.08,0,0,1-1.41.11,1,1,0,0,1,0-1.4l0-.12Z"/><path class="cls-267" d="M31.26,28.23H30c0-.89-.05-1.78-.08-2.66l.21-.21a1.13,1.13,0,0,1,1.35.16,1.89,1.89,0,0,1,.34,1.4A1.49,1.49,0,0,1,31.26,28.23Z"/><path class="cls-268" d="M28.58,24.16l1.33.08A1,1,0,0,1,30,25.56h-.15l-2.63.08,0-.14a.83.83,0,0,1,.05-1.25Z"/><path class="cls-269" d="M32.59,22.85l.09-1.31a1,1,0,0,1,1.44-.06c.91,2.54.59,5.12.24,7.71a1.06,1.06,0,0,1-.45.44l-1.21,0-.09-1.33a1.89,1.89,0,0,1-.5-1.45C32,25.45,31.66,24.07,32.59,22.85Z"/><path class="cls-270" d="M32.59,26.89c0,.46,0,.91,0,1.37l-1.35,0,.06-1.32A.87.87,0,0,1,32.59,26.89Z"/><path class="cls-271" d="M27.28,24.26l-.05,1.25-1.33.11-1.3-.05c0-.46,0-.91-.05-1.36Z"/><path class="cls-272" d="M34.05,53.84Q34,43.07,34,32.29l0,0a1.07,1.07,0,0,1,1.52,0A3.51,3.51,0,0,1,36,34.59q0,8.46,0,16.94a3.7,3.7,0,0,1-.43,2.26A1,1,0,0,1,34.05,53.84Z"/><path class="cls-273" d="M34.05,53.84h1.29a1,1,0,0,1,1.39,0,1,1,0,0,1-.07,1.38L34,55.13Z"/><path class="cls-274" d="M34,31c0-.45-.08-.9-.13-1.35l.13-.06a1.49,1.49,0,0,1,1.23-.45,2.2,2.2,0,0,1,1.35.25,1.1,1.1,0,0,1,.35.45,1.21,1.21,0,0,1-.36,1.36A2.09,2.09,0,0,1,34,31Z"/><path class="cls-275" d="M34,31l2.63,0a1,1,0,0,1,.07,1.38,1,1,0,0,1-1.39,0l-1.34,0Z"/><path class="cls-276" d="M36.66,55.19V53.85l.15-.18a1.1,1.1,0,0,1,.92-.11.81.81,0,0,1,.36.3L38,55.2Z"/><path class="cls-277" d="M50.16,26.91l0,2.7c-1,.15-1.41-.38-1.35-1.35A1.06,1.06,0,0,1,48.66,27,1,1,0,0,1,50,26.71Z"/><path class="cls-278" d="M47.41,29.57H46.08a1.94,1.94,0,0,1-.24-2.41,1.06,1.06,0,0,1,1.55-.37,1,1,0,0,1,.11,1.49Z"/><path class="cls-279" d="M47.5,28.27l0-1.35.14-.18a1,1,0,0,1,.88-.09.62.62,0,0,1,.29.33c0,.43,0,.86,0,1.28Z"/><path class="cls-280" d="M47.47,26.92c-2.31-.1-1,1.74-1.39,2.64l-1.34.07,0,0c-.45-.44-.91-.87-1.32-1.35l-.06,0a1.17,1.17,0,0,1-.24-1.21c.32-.61,1.28-.8,1.11-1.72a1.7,1.7,0,0,1,.39-1.24A1.78,1.78,0,0,1,46,23.72,2.34,2.34,0,0,1,47.4,24a1.34,1.34,0,0,1,.39.43,2.27,2.27,0,0,1-.32,2.5Z"/><path class="cls-281" d="M43.45,28.24c1-.13,1.43.36,1.32,1.35l-1.33,0Z"/><path class="cls-282" d="M38.12,32.27l1.25,0q0,10,0,20c0,.92,0,1.75-1.28,1.59H38a2.65,2.65,0,0,1-.6-1.87q0-8.91,0-17.81a3.14,3.14,0,0,1,.28-1.47A1.07,1.07,0,0,1,38.12,32.27Z"/><path class="cls-283" d="M38.09,16.17l1.29,0q0,6.74,0,13.46l-1.27,0-.27-.2a3.19,3.19,0,0,1-.46-2.09q0-4.44,0-8.88C37.37,17.63,37.28,16.75,38.09,16.17Z"/><path class="cls-284" d="M42,16.13c.05.89.09,1.78.13,2.67l-.06,2.06a1.68,1.68,0,0,1-1.35-2.09,23.4,23.4,0,0,0,0-2.65Z"/><path class="cls-285" d="M43.38,21.52l.09,1.35a2.13,2.13,0,0,1,.08,2.69,1,1,0,0,1-1.45,0V21.5Z"/><path class="cls-286" d="M42.1,25.57l1.26,0,.21.16a1,1,0,0,1-.1,1.24l-.08,1.32C41.13,28.25,42.41,26.53,42.1,25.57Z"/><path class="cls-287" d="M36.69,32.29c0-.45,0-.89,0-1.33s0-.85,0-1.28A.79.79,0,0,1,38,29.57l.14.06,0,2.64-.14,0a.9.9,0,0,1-1.13.15Z"/><path class="cls-288" d="M47.47,20.17l-1.33-.06V18.79a.9.9,0,0,1,1.3.06Z"/><path class="cls-289" d="M47.44,18.85l-1.3-.06c0-.43,0-.86,0-1.3l1.32,0C47.44,17.92,47.44,18.39,47.44,18.85Z"/><path class="cls-290" d="M47.5,21.49l0-1.33,1.33,0,.06,1.29-.16.21A.86.86,0,0,1,47.5,21.49Z"/><path class="cls-291" d="M50.14,21.53l.06,1.29-.09.11c-1.5.3-1.67.13-1.35-1.36l.09-.1Z"/><path class="cls-292" d="M51.47,26.91H50.16l-.09.05a1.16,1.16,0,0,1,0-1.43,1,1,0,0,1,1.4,0l.06.14A.86.86,0,0,1,51.47,26.91Z"/><path class="cls-293" d="M51.47,26.91l.06-1.28h1.32C53,26.69,52.44,27,51.47,26.91Z"/><path class="cls-294" d="M51.47,25.49l-1.29.11L50,25.47a1,1,0,0,1,0-1.11l.18-.15H51.5Z"/><path class="cls-295" d="M48.76,21.57c-.08,1,.4,1.4,1.35,1.36,0,.43,0,.85,0,1.28h0a1.64,1.64,0,0,1-1.34.49,1.66,1.66,0,0,1-1.36-.45l0-.07A1.56,1.56,0,0,1,47,22.88a1.66,1.66,0,0,1,.46-1.34l.08-.05Z"/><path class="cls-296" d="M35.37,13.42,35.3,14.7a.83.83,0,0,1-1.29.11L34,13.42,34,12.09h1.24Z"/><path class="cls-297" d="M34,14.81l1.29-.11a.47.47,0,0,1,.06.15,1,1,0,0,1,0,1.36,1,1,0,0,1-1.35-.09l-.15,0C33.94,15.69,34,15.25,34,14.81Z"/><path class="cls-298" d="M32.59,26.89l-1.27,0c0-.46,0-.91-.07-1.36a1,1,0,0,1,0-1.36c0-.43.05-.87.07-1.31l1.28,0Z"/><path class="cls-299" d="M31.24,24.19c0,.46,0,.91,0,1.36H30l-.12-1.32Z"/><path class="cls-300" d="M34.06,16.12h1.25c1.1,1.54.84,3.14.19,4.75a1.25,1.25,0,0,1-1.57.11,1.57,1.57,0,0,1,0-2.16Z"/><path class="cls-301" d="M33.93,18.81l.1,2.05a.45.45,0,0,1-.09.65l-1.26,0-.09-1.39.09-1.31Z"/><path class="cls-302" d="M43.36,25.55c0-.89.07-1.78.11-2.68l1.32,0a1,1,0,0,1,0,1.34l-.08,1.29a.83.83,0,0,1-1.24,0Z"/><path class="cls-303" d="M44.8,24.25c0-.45,0-.9,0-1.34l1.33-.06.19.17a1,1,0,0,1-.18,1.17Z"/><path class="cls-304" d="M47.42,21.54l0,1.33a1,1,0,0,1-1.37,0l0,0c0-.45,0-.89,0-1.33Z"/><path class="cls-305" d="M38,29.57l-1.26.11,0-.14a2.42,2.42,0,0,1-.64-2c0-3.57,0-7.14,0-10.71a2.6,2.6,0,0,1,.63-2l1.36,0,.09,1.33Q38,22.88,38,29.57Z"/><path class="cls-306" d="M36.64,14.82q0,7.37,0,14.72l-1.32,0a1.83,1.83,0,0,1-.63-1.33c-.08-2-.08-4,0-6.05a2.09,2.09,0,0,1,.61-1.35V16.11c0-.42,0-.84,0-1.26Z"/><path class="cls-307" d="M35.31,20.83l0,8.73H34c0-2.69-.07-5.37-.1-8.06l.09-.65Z"/><path class="cls-308" d="M35.35,32.34l1.34-.05h0a2.79,2.79,0,0,1,.66,2.18q0,8.61,0,17.23a2.81,2.81,0,0,1-.65,2.17l0,0H35.34Q35.34,43.1,35.35,32.34Z"/><path class="cls-309" d="M36.69,53.87q0-10.78,0-21.58l1.3,0q0,10.77,0,21.55Z"/><path class="cls-310" d="M50.18,25.6c0,.45-.07.9-.11,1.36l-1.29,0v-.12a1,1,0,0,1-.05-1.39,1.09,1.09,0,0,1,1.42,0Z"/><path class="cls-311" d="M48.83,25.56c0,.43,0,.87,0,1.3l-1.31,0c0-.88,0-1.76,0-2.64H48.8A.91.91,0,0,1,48.83,25.56Z"/><path class="cls-312" d="M43.48,25.57l1.24,0c.2,1-.19,1.5-1.25,1.41C43.47,26.49,43.48,26,43.48,25.57Z"/><path class="cls-313" d="M46.09,22.89l1.37,0c0,.44,0,.88,0,1.32H46.13C46.12,23.76,46.11,23.32,46.09,22.89Z"/><path class="cls-314" d="M48.83,25.56l0-1.29,1.36-.05c0,.42,0,.85,0,1.28Z"/></g></g></svg>