<svg xmlns="http://www.w3.org/2000/svg" viewBox="0 0 74 74"><defs><style>.cls-1{fill:#1e2223;}.cls-2{fill:#737373;}.cls-3{fill:#323232;}.cls-4{fill:#6c6d6d;}.cls-5{fill:#242628;}.cls-6{fill:#4f4f4f;}.cls-7{fill:#535454;}.cls-8{fill:#7e7e7e;}.cls-9{fill:#363637;}.cls-10{fill:#34383b;}.cls-11{fill:#484b4d;}.cls-12{fill:#383d40;}.cls-13{fill:#3b3e40;}.cls-14{fill:#6b6c6c;}.cls-15{fill:#383b3d;}.cls-16{fill:#5b5c5d;}.cls-17{fill:#55604b;}.cls-18{fill:#373b3d;}.cls-19{fill:#343a3c;}.cls-20{fill:#565757;}.cls-21{fill:#36383a;}.cls-22{fill:#5c5d5e;}.cls-23{fill:#37393a;}.cls-24{fill:#383a3c;}.cls-25{fill:#545556;}.cls-26{fill:#475447;}.cls-27{fill:#162631;}.cls-28{fill:#3c3d3f;}.cls-29{fill:#353638;}.cls-30{fill:#424b50;}.cls-31{fill:#454e53;}.cls-32{fill:#4e593e;}.cls-33{fill:#60676c;}.cls-34{fill:#65714f;}.cls-35{fill:#505b61;}.cls-36{fill:#4a5459;}.cls-37{fill:#545d61;}.cls-38{fill:#222a24;}.cls-39{fill:#38454c;}.cls-40{fill:#38464d;}.cls-41{fill:#374439;}.cls-42{fill:#465343;}.cls-43{fill:#425247;}.cls-44{fill:#49545a;}.cls-45{fill:#404a4f;}.cls-46{fill:#7b8961;}.cls-47{fill:#3c454c;}.cls-48{fill:#37402d;}.cls-49{fill:#122028;}.cls-50{fill:#34413a;}.cls-51{fill:#64714d;}.cls-52{fill:#2a373f;}.cls-53{fill:#3c4633;}.cls-54{fill:#313a3f;}.cls-55{fill:#3d4833;}.cls-56{fill:#323c2c;}.cls-57{fill:#2c3632;}.cls-58{fill:#3a444b;}.cls-59{fill:#666d70;}.cls-60{fill:#203845;}.cls-61{fill:#4c5358;}.cls-62{fill:#333e46;}.cls-63{fill:#1d1e1e;}.cls-64{fill:#0c0e10;}.cls-65{fill:#525455;}.cls-66{fill:#646464;}.cls-67{fill:gray;}.cls-68{fill:#3e3e3e;}.cls-69{fill:#5f5f5f;}.cls-70{fill:#5d5c5c;}.cls-71{fill:#616161;}.cls-72{fill:#505050;}.cls-73{fill:#606060;}.cls-74{fill:#3f3f3f;}.cls-75{fill:#545454;}.cls-76{fill:#292929;}.cls-77{fill:#5a5e52;}.cls-78{fill:#3f403e;}.cls-79{fill:#484848;}.cls-80{fill:#7d7d7d;}.cls-81{fill:#232323;}.cls-82{fill:#3b4131;}.cls-83{fill:#323231;}.cls-84{fill:#494b47;}.cls-85{fill:#4a4a4a;}.cls-86{fill:#7a7a7a;}.cls-87{fill:#949494;}.cls-88{fill:#6e6e6e;}.cls-89{fill:#555656;}.cls-90{fill:#919191;}.cls-91{fill:#727272;}.cls-92{fill:#919e73;}.cls-93{fill:#6d6d6d;}.cls-94{fill:#243238;}.cls-95{fill:#253239;}.cls-96{fill:#646a6d;}.cls-97{fill:#4c5558;}.cls-98{fill:#65696a;}.cls-99{fill:#6b7466;}.cls-100{fill:#616d4d;}.cls-101{fill:#96a577;}.cls-102{fill:#7b8960;}.cls-103{fill:#3f4b50;}.cls-104{fill:#6f7a57;}.cls-105{fill:#839268;}.cls-106{fill:#9aa97a;}.cls-107{fill:#818e65;}.cls-108{fill:#808881;}.cls-109{fill:#5d6948;}.cls-110{fill:#525c61;}.cls-111{fill:#656b6e;}.cls-112{fill:#495054;}.cls-113{fill:#24291c;}.cls-114{fill:#505b47;}.cls-115{fill:#4e583f;}.cls-116{fill:#696e71;}.cls-117{fill:#67706f;}.cls-118{fill:#333e40;}.cls-119{fill:#727a79;}.cls-120{fill:#485256;}.cls-121{fill:#282829;}.cls-122{fill:#363636;}.cls-123{fill:#3e3f3c;}.cls-124{fill:#3b3f33;}.cls-125{fill:#414534;}.cls-126{fill:#3a3e40;}.cls-127{fill:#4b4b4b;}.cls-128{fill:#3d3d3e;}.cls-129{fill:#393939;}.cls-130{fill:#787878;}.cls-131{fill:#9c9c9c;}.cls-132{fill:#706f6f;}.cls-133{fill:#3c3c3c;}.cls-134{fill:#5c5c5c;}.cls-135{fill:#373737;}.cls-136{fill:#595958;}.cls-137{fill:#5c5d5c;}.cls-138{fill:#626360;}.cls-139{fill:#5b5b5b;}.cls-140{fill:#3b3b3b;}.cls-141{fill:#757f61;}.cls-142{fill:#77855e;}.cls-143{fill:#73766f;}.cls-144{fill:#272727;}.cls-145{fill:#7a8067;}.cls-146{fill:#909e72;}.cls-147{fill:#606a4d;}.cls-148{fill:#1b2016;}.cls-149{fill:#606b4e;}.cls-150{fill:#88946d;}.cls-151{fill:#5c634f;}.cls-152{fill:#212220;}.cls-153{fill:#767f63;}.cls-154{fill:#545a47;}.cls-155{fill:#5b624b;}.cls-156{fill:#474b40;}.cls-157{fill:#5a604f;}.cls-158{fill:#515745;}.cls-159{fill:#808b66;}.cls-160{fill:#5f6753;}.cls-161{fill:#797979;}.cls-162{fill:#414141;}.cls-163{fill:#adbf8c;}.cls-164{fill:#373f2c;}.cls-165{fill:#4f575b;}.cls-166{fill:#4f5c47;}.cls-167{fill:#84926b;}.cls-168{fill:#657051;}.cls-169{fill:#36413f;}.cls-170{fill:#566556;}.cls-171{fill:#495648;}.cls-172{fill:#4c543f;}.cls-173{fill:#67735c;}.cls-174{fill:#3f494d;}.cls-175{fill:#5e674a;}.cls-176{fill:#343c2b;}.cls-177{fill:#4c563f;}.cls-178{fill:#454f3f;}.cls-179{fill:#606c52;}.cls-180{fill:#374643;}.cls-181{fill:#3f4e48;}.cls-182{fill:#455249;}.cls-183{fill:#5a6364;}.cls-184{fill:#787f6d;}.cls-185{fill:#56615d;}.cls-186{fill:#8e9c84;}.cls-187{fill:#7b8378;}.cls-188{fill:#92a077;}.cls-189{fill:#475038;}.cls-190{fill:#afc08b;}.cls-191{fill:#7b8864;}.cls-192{fill:#6e7957;}.cls-193{fill:#4f5940;}.cls-194{fill:#5a6460;}.cls-195{fill:#8e9877;}.cls-196{fill:#859368;}.cls-197{fill:#71726e;}.cls-198{fill:#c5d69a;}.cls-199{fill:#8b976d;}.cls-200{fill:#8e9c70;}.cls-201{fill:#a7b783;}.cls-202{fill:#5a6348;}.cls-203{fill:#7a8373;}.cls-204{fill:#838a7d;}.cls-205{fill:#414c51;}.cls-206{fill:#424c33;}.cls-207{fill:#6c765b;}.cls-208{fill:#626c4e;}.cls-209{fill:#8d987d;}.cls-210{fill:#8e9b72;}.cls-211{fill:#4b5445;}.cls-212{fill:#6a745f;}.cls-213{fill:#9ba296;}.cls-214{fill:#616160;}.cls-215{fill:#313131;}.cls-216{fill:#747373;}.cls-217{fill:#72736e;}.cls-218{fill:#788063;}.cls-219{fill:#585c50;}.cls-220{fill:#7d8373;}.cls-221{fill:#7f8573;}.cls-222{fill:#8f9b76;}.cls-223{fill:#9fae7d;}.cls-224{fill:#5f6c4a;}.cls-225{fill:#9caa7c;}.cls-226{fill:#5e684a;}.cls-227{fill:#6e7d56;}.cls-228{fill:#6b7753;}.cls-229{fill:#7e8b64;}.cls-230{fill:#b0c28b;}.cls-231{fill:#555f45;}.cls-232{fill:#4d553c;}.cls-233{fill:#505d45;}.cls-234{fill:#38402e;}.cls-235{fill:#9ead7f;}.cls-236{fill:#9ba87e;}.cls-237{fill:#7e8671;}.cls-238{fill:#9caa7d;}.cls-239{fill:#84906c;}.cls-240{fill:#5a6545;}.cls-241{fill:#4b5741;}.cls-242{fill:#8a986c;}.cls-243{fill:#7f8b63;}.cls-244{fill:#485139;}.cls-245{fill:#262c1f;}.cls-246{fill:#3f4631;}.cls-247{fill:#575f60;}.cls-248{fill:#7b8862;}.cls-249{fill:#424b33;}.cls-250{fill:#303626;}.cls-251{fill:#99a87a;}.cls-252{fill:#5f6f5b;}.cls-253{fill:#3f4a49;}.cls-254{fill:#717d5a;}.cls-255{fill:#909b7e;}.cls-256{fill:#5c6751;}.cls-257{fill:#676f5d;}.cls-258{fill:#3c443a;}.cls-259{fill:#a5b685;}.cls-260{fill:#788763;}.cls-261{fill:#6f7b6b;}.cls-262{fill:#5d6466;}.cls-263{fill:#404a4e;}.cls-264{fill:#7d8a63;}.cls-265{fill:#6c7a66;}.cls-266{fill:#2b3122;}.cls-267{fill:#243231;}.cls-268{fill:#8c9b70;}.cls-269{fill:#596544;}.cls-270{fill:#616f58;}.cls-271{fill:#828977;}.cls-272{fill:#999f8f;}.cls-273{fill:#9ca795;}.cls-274{fill:#5a6547;}.cls-275{fill:#586344;}.cls-276{fill:#727c60;}.cls-277{fill:#a2b086;}.cls-278{fill:#cfe1a2;}.cls-279{fill:#8d9b6e;}.cls-280{fill:#464c3b;}.cls-281{fill:#697154;}.cls-282{fill:#485338;}.cls-283{fill:#77835f;}.cls-284{fill:#a9ba85;}.cls-285{fill:#697750;}.cls-286{fill:#66735c;}.cls-287{fill:#6b7752;}.cls-288{fill:#aabb87;}.cls-289{fill:#566049;}.cls-290{fill:#5f694a;}.cls-291{fill:#596447;}.cls-292{fill:#a4b389;}.cls-293{fill:#798662;}.cls-294{fill:#768560;}.cls-295{fill:#717969;}.cls-296{fill:#778170;}.cls-297{fill:#87917e;}.cls-298{fill:#818c7e;}.cls-299{fill:#4a5556;}.cls-300{fill:#222f2f;}.cls-301{fill:#4b563c;}.cls-302{fill:#3d4c47;}.cls-303{fill:#374235;}</style></defs><title>서스펜션2</title><g id="레이어_2" data-name="레이어 2"><g id="레이어_1-2" data-name="레이어 1"><rect class="cls-1" width="74" height="74" rx="8.33" ry="8.33"/><path class="cls-2" d="M15.6,20.83h5.68c.8,1,.83,1.74.11,2.14a1.43,1.43,0,0,1-.82.2,2.42,2.42,0,0,1-1.07-.11.85.85,0,0,1-.37-.18c-.11-.34-.21-.63-.71-.63-.69,0-.39.63-.65.88a2.63,2.63,0,0,1-.55.22c-.47.08-.91-.19-1.37-.17s-.81,0-.86.51a.37.37,0,0,1-.2.28.62.62,0,0,0-.65.57c-.08.62.45.62.78.83a1.78,1.78,0,0,1,.1.38,1.58,1.58,0,0,1-.12,1,1.54,1.54,0,0,1-2.05-.45c-.66-.81-1.62-1.45-1.53-2.69-.1-.44.22-.67.46-.94l0,0a1,1,0,0,1,1-.47,1.16,1.16,0,0,0,.92-.48l0,0c.22-.18.36-.48.71-.47A1.22,1.22,0,0,0,15.6,20.83Z"/><path class="cls-3" d="M46.09,15.07l.89,0c.86.39.43,1.16.52,1.78.09.18,0,.35,0,.55.27,3,.09,3.19-3.33,3.82a2.13,2.13,0,0,1-1.3-.4c-.17-.3,0-.63-.12-.93a1.94,1.94,0,0,0-1-1.72.87.87,0,0,1-.44-.95c.1-.51.51-.57.88-.61a7.56,7.56,0,0,1,1.71-.15c1,.06,1.47-.6,1.88-1.36A.46.46,0,0,1,46.09,15.07Z"/><path class="cls-4" d="M27,20.79l.09-1.85a1.34,1.34,0,0,1,.74-.62c.45-.09.84-.49,1.35-.31a8.4,8.4,0,0,0,2.1.27A2.82,2.82,0,0,1,34,19.81a1.1,1.1,0,0,1-.12,1.05c-1.14.91-2.13.59-3.06-.35a6.42,6.42,0,0,0-1,0c-.88.19-.34.9-.48,1.36s.25.93-.38,1.15c-.55-.08-.87.41-1.34.56s-.76.2-1.11-.11A3.41,3.41,0,0,1,27,20.79Z"/><path class="cls-5" d="M27,20.79,27,23.4c.72.61.34,1.45.45,2.18a1.86,1.86,0,0,1-.19,1c-.24.64-.76.47-1.23.44a1.18,1.18,0,0,1-.51-1.2,1,1,0,0,0-.64-1c-.37-.82-1.38-.87-1.87-1.59s-.57-1.06.19-1.46a4.53,4.53,0,0,1,.92.15c.92.37,1.77.67,2.14-.7C26.35,21,26.74,20.92,27,20.79Z"/><path class="cls-6" d="M23.24,21.73c.06.88.87,1.26,1.32,1.87a2.75,2.75,0,0,1,.58,1,1.94,1.94,0,0,1-.05.2.87.87,0,0,1-.71.3c-.83-.2-1.24.21-1.53.87A3.17,3.17,0,0,1,22,26a3.49,3.49,0,0,0-1.75-2c-.69-.3-.34-.91.13-1.32,1.11-.23.92-1.1.92-1.88l1,0c.33.3.64.62.95,1Z"/><path class="cls-7" d="M35.62,11.33a50.53,50.53,0,0,1,5.64,0,.61.61,0,0,1,.28,1,.84.84,0,0,1-.43.26c-1.87.06-3.74.44-5.59-.14C35.18,12,35.12,11.66,35.62,11.33Z"/><path class="cls-8" d="M30.87,14.16l.88-.05c.36-.27.64-.63,1-.92l0,0a1.24,1.24,0,0,1,1-.44,3.32,3.32,0,0,1,1.16.22c.32.37.17.75,0,1.13-1,.49-.7,1.52-1,2.29a1.35,1.35,0,0,1-1.63-.12c-.54-.39-1.14-.7-1.68-1.08C30.32,14.72,30.47,14.41,30.87,14.16Z"/><path class="cls-9" d="M44.19,13.15a3,3,0,0,1,1.9,1.92l-.12.08a1.41,1.41,0,0,1-1.92.27c-.74-.46-.48-1.24-.24-1.92A.63.63,0,0,1,44.19,13.15Z"/><path class="cls-10" d="M11.78,22.7v.92c-.24.28-.47.59-.91.5a.93.93,0,0,1-.94-.43C10.1,22.53,11,22.72,11.78,22.7Z"/><path class="cls-11" d="M13.7,21.77c-.23,1.12-1.12.93-1.9.95C12,21.47,12.92,21.8,13.7,21.77Z"/><path class="cls-12" d="M35.62,11.33l0,.87,0,.19a1,1,0,0,1-.86.31,1.68,1.68,0,0,1-.91-.18.34.34,0,0,1-.14-.32C33.94,11.09,34.82,11.31,35.62,11.33Z"/><path class="cls-13" d="M41.34,12.17c0-.27-.05-.55-.08-.83.79,0,1.69-.26,2,.86a.42.42,0,0,1-.25.35C42.36,12.81,41.76,12.91,41.34,12.17Z"/><path class="cls-14" d="M8.9,25.54c0-.67.32-1,1-.95l.21.09a1.58,1.58,0,0,1,.26,1.12c-.19,1.27-.29,1.34-1.46.93A.74.74,0,0,1,8.9,25.54Z"/><path class="cls-15" d="M6.91,28.42,7,26.54A.7.7,0,0,1,8,26.19a.54.54,0,0,1,.32.29,3.1,3.1,0,0,1,.16,1.09,1.36,1.36,0,0,1-.38,1.06.64.64,0,0,1-1-.19Z"/><path class="cls-16" d="M28.87,18.39l-.92.49c-.4-.32-.35-.64,0-1,0-.62.27-1,.93-1a.42.42,0,0,1,.37.24C29.4,17.66,29.78,18.22,28.87,18.39Z"/><path class="cls-17" d="M48,25.53l.93,0a.5.5,0,0,1,.36.3A1,1,0,0,1,49,27c-.43.06-.88.18-1.26-.16A.94.94,0,0,1,48,25.56Z"/><path class="cls-18" d="M30.87,14.16l0,.94,0,.18a.63.63,0,0,1-.85.09.4.4,0,0,1-.13-.34A1,1,0,0,1,30.87,14.16Z"/><path class="cls-19" d="M28.93,16.05a1,1,0,0,1,.89-1l.08.08a.75.75,0,0,1,.29.95.49.49,0,0,1-.31.3A.77.77,0,0,1,28.93,16.05Z"/><path class="cls-20" d="M28.93,16.05l.93,0c.56.29.42.74.27,1.19-.48.45-.84.15-1.18-.19l-.08-.1Z"/><path class="cls-18" d="M27.94,17.92v1l-.89.06A.89.89,0,0,1,27.94,17.92Z"/><path class="cls-20" d="M32.74,13.19a.85.85,0,0,1-1,.92C31.72,13.42,32,13.1,32.74,13.19Z"/><path class="cls-21" d="M14.62,21.74h-.94a.9.9,0,0,1,1-.93C15,21.14,15,21.45,14.62,21.74Z"/><path class="cls-22" d="M14.62,21.74l0-.92h.94A.94.94,0,0,1,14.62,21.74Z"/><path class="cls-23" d="M43.25,12.2a1,1,0,0,1,.94,1l-.07.06c-.3.36-.71.56-1.08.25s-.28-.82.1-1.19Z"/><path class="cls-24" d="M23.2,21.76a1,1,0,0,1-.95-1A.88.88,0,0,1,23.2,21.76Z"/><path class="cls-25" d="M9.92,23.69l.93,0c.33.32.57.7.21,1.12s-.79.23-1.16-.07a.31.31,0,0,1,0-.13Z"/><path class="cls-26" d="M49.39,24.57l.52.08c.31.32.59.66.19,1.09s-.8.2-1.16-.13l0-.1C48.94,25.14,49,24.74,49.39,24.57Z"/><path class="cls-27" d="M7.91,26.47,7,26.54a1,1,0,0,1,1-1C8.3,25.9,8.56,26.22,7.91,26.47Z"/><path class="cls-28" d="M7.91,26.47,8,25.58l.91,0v1l-.05.2c-.35.34-.61.14-.85-.16Z"/><path class="cls-29" d="M33.66,13.15h-.95a1,1,0,0,1,.93-1l.1.06C34.09,12.59,34,12.88,33.66,13.15Z"/><path class="cls-30" d="M66.12,45.34a1.59,1.59,0,0,0-1,1.89,1.25,1.25,0,0,0-.41.23c-1.17,1.59-3.12,2.14-4.55,3.42a5.11,5.11,0,0,1-3.66,1.37c-2.52-.1-5.05,0-7.58,0l-.19,0a.74.74,0,0,1-.12-.9c.69-.65,1.88-.89,1.79-2.18a.55.55,0,0,1,.15-.5c.6-.22,1.05.11,1.54.39a6.5,6.5,0,0,0,5.89.18c1.83-.69,3-2.1,4.36-3.38a3.86,3.86,0,0,0,1.25-2.48,2.48,2.48,0,0,1,2.63-2.22c.39.13.76.31,1.13.45s-.09.44.13.6C66.54,43,66.54,44.26,66.12,45.34Z"/><path class="cls-31" d="M48.91,52.22c.31,2.87-1.39,4.72-3.17,6.62-.87.93-2.26.92-3,2a2.77,2.77,0,0,1-2,.42c-.63,0-1-.3-.88-1,.07-.52.22-1,.86-1.08a2.59,2.59,0,0,0,1.31-.77,4.78,4.78,0,0,1,2-1.28,1,1,0,0,0,.57-.41c.76-1.46,2.11-2.53,2.74-4.07.42-1,.69-1.11,1.58-.4Z"/><path class="cls-32" d="M23.21,47.46l-.05-.91c0-.37.24-.46.54-.49.91-.11.94-.73.92-1.47s0-1.43,0-2.15c0-1,.52-1.25,1.38-1.17a3.84,3.84,0,0,1,1.17.15c.35.19.35.62.6.89-.07.75.59,1.11.93,1.63a2.16,2.16,0,0,1,.34,1.91c-1,.84-.46,2-.58,3s-.54,1.21-1.37.53l-.1,0a1,1,0,0,1-.52-1.07c.13-.88,0-1.76.06-2.54-.35.61.65,1.69-.61,2.14C25,47.9,24,48.22,23.21,47.46Z"/><path class="cls-33" d="M27.06,55V50.34a1.5,1.5,0,0,1,1.77-.48c.74.19.66.9.66,1.48,0,.35,0,.7-.08,1-.05.63,0,1.28.8,1.5a6.53,6.53,0,0,1-.15,4.34c-.48.31-.83.05-1.15-.28h0c-.7-.46-.2-1.48-.9-1.94h0A4.79,4.79,0,0,1,27.06,55Z"/><path class="cls-34" d="M26.09,41.73a1.05,1.05,0,0,0-1,1.23c0,.51,0,1,0,1.53,0,1.86-.12,2-2,2.06l-.87-.08c-.31-.21-.59-.44-.49-.88s.32-.34.57-.43A2,2,0,0,0,23.6,42.8c-.07-.42-.07-.42-.83-.58a1.29,1.29,0,0,1-.46-.52,2.36,2.36,0,0,1-.24-.4c-.69-1.29-.38-1.83,1.08-1.92a4.62,4.62,0,0,1,1.11,0c.29.56.63,1.06,1.41.85C26.63,40.64,26.7,40.86,26.09,41.73Z"/><path class="cls-35" d="M29.82,54.16c-1.07-.29-.87-1.17-.89-1.92,0-1.76-.16-1.88-1.87-1.9,0-.33,0-.66,0-1a1.1,1.1,0,0,0,.94-1,1,1,0,0,1,.92-.42,2,2,0,0,1,2.23,1.36,6,6,0,0,1-.71,4.34C30.31,53.91,30.2,54.19,29.82,54.16Z"/><path class="cls-36" d="M38.69,62.7H34.87c-.22-.25-.56-.37-.77-.62s-.69-.63-.49-1.16a1,1,0,0,1,1.07-.61c1.68-.1,3.38-.36,5,.26C40.32,61.74,39.53,62.23,38.69,62.7Z"/><path class="cls-37" d="M28.91,58h1c.43-.55.83-.56,1.5-.24a9.37,9.37,0,0,1,2.55,2,2.6,2.6,0,0,1,.16.47,2,2,0,0,1-3.23.55c-.07-.93-1-1.14-1.46-1.81A2.2,2.2,0,0,1,28.91,58Z"/><path class="cls-38" d="M26,47.43c0-1,.07-1.9.12-2.84,0-.27.06-.61.42-.61s.41.35.42.61c0,1.58,0,3.16,0,4.73-1-.14-2.25.61-2.81-.89,0-.65.54-.48.81-.51C25.43,47.87,25.79,47.87,26,47.43Z"/><path class="cls-39" d="M38.69,62.7a4.52,4.52,0,0,0,.71-1.91c-.36-.33-.64-.76-.23-1.15a.68.68,0,0,1,1.19.22c.37,1.39,1.54.79,2.39,1a1.46,1.46,0,0,1-1.27.9C40.46,61.81,39.84,63,38.69,62.7Z"/><path class="cls-40" d="M30.86,60.75l1.64,0a1,1,0,0,0,1.22-1,.68.68,0,0,1,1.1-.2c.46.41.21.81-.17,1.15s-.69.53-.27,1a2.13,2.13,0,0,1,.49.94c-1.19-.28-2.17-1.15-3.48-1.13C31,61.58,30.92,61.11,30.86,60.75Z"/><path class="cls-41" d="M26,47.43c-.13,1.19-1.07.91-1.81,1a1,1,0,0,1-1-1Z"/><path class="cls-42" d="M20.38,43.65l-.08-1.91a.71.71,0,0,1,.08-1.2c1.14-.35,1.19-.19,1.34,1.05a7.31,7.31,0,0,1-.1,1.82.48.48,0,0,1-.36.29Z"/><path class="cls-43" d="M22.31,45.52c0,.32,0,.63,0,.95-.76-.06-.95-.58-1-1.23s0-1-.07-1.54l.08-.09a.9.9,0,0,1,1.13-.25c.22.15.24.43.37.64C23.12,44.67,22.67,45.08,22.31,45.52Z"/><path class="cls-44" d="M28,56c1.17.24.86,1.17.9,1.94C27.66,57.75,28.07,56.77,28,56Z"/><path class="cls-45" d="M27.06,55A.93.93,0,0,1,28,56,.9.9,0,0,1,27.06,55Z"/><path class="cls-46" d="M48.94,25.61c.61,0,1-.31,1-1l.9-.08c.36-.27.63-.63,1-.9v0c.91-.82,2-.52,3-.37.71,1,.16,1.6-.68,2.1a2.18,2.18,0,0,1-.2.37C53,25.84,52.66,27,51.72,27c-.54.64-1.12,1.19-2.07.79,0-.59-.79-.77-.78-1.38Z"/><path class="cls-47" d="M52.68,30.3A1.19,1.19,0,0,1,54,29.38H60.3a2.65,2.65,0,0,1,2,.94,1.8,1.8,0,0,1-.08.21,1.58,1.58,0,0,1-1.08.27c-2.39.11-4.79,0-7.19,0a1.83,1.83,0,0,1-1-.16A.4.4,0,0,1,52.68,30.3Z"/><path class="cls-48" d="M51.81,28.45c-.06.75-1,1.05-1,1.85,0,.07,0,.15-.08.22-.58.44-1.23.18-1.86.19a1.83,1.83,0,0,1-1.34-1.33,1.31,1.31,0,0,1,.2-1.1,1.72,1.72,0,0,1,1.11-.34,6.59,6.59,0,0,1,2.65.15A.43.43,0,0,1,51.81,28.45Z"/><path class="cls-49" d="M52.5,22.67a3.33,3.33,0,0,1,3.14-1c.72.35.43.7-.07,1A2.65,2.65,0,0,1,52.5,22.67Z"/><path class="cls-50" d="M52.5,22.67l3.07,0c0,.32,0,.64,0,1-.32.39-.64.36-1,0H51.8A1,1,0,0,1,52.5,22.67Z"/><path class="cls-51" d="M54.62,23.68h1l0,1.85c-.6.61-1.21.76-1.85.07C53.66,24.79,54.67,24.49,54.62,23.68Z"/><path class="cls-52" d="M62.27,30.32c1.74.06,1.83.14,1.9,1.83a.43.43,0,0,1-.2.37,1.13,1.13,0,0,1-1,0c.09-.8-1-.61-1.07-1.26a.87.87,0,0,1,.26-1Z"/><path class="cls-53" d="M54.68,26.54c-.25,1.07-1.15.9-1.91,1a.4.4,0,0,1-.36-.22.78.78,0,0,1,.23-1,2.12,2.12,0,0,1,1.11-.26C54.11,26.12,54.61,25.91,54.68,26.54Z"/><path class="cls-54" d="M50.86,30.3h1.82l.13.05c.33.38.59.77,0,1.18a2.76,2.76,0,0,1-2.11-.05.7.7,0,0,1,0-1.12Z"/><path class="cls-55" d="M54.68,26.54l-1,0c-.37-.32-.39-.63,0-.92h0l1.85-.07A.89.89,0,0,1,54.68,26.54Z"/><path class="cls-56" d="M52.77,27.53a1,1,0,0,1-1,.91l-.11-.09c-.33-.33-.53-.69-.14-1.08s.8-.18,1.15.15Z"/><path class="cls-57" d="M51.8,23.67c.08.75-.27,1-1,.9A1,1,0,0,1,51.8,23.67Z"/><path class="cls-58" d="M65.09,32.23v1c-.3.42-.66.61-1.13.26-.22-.45-.26-.86.19-1.19l0-.12Z"/><path class="cls-59" d="M64.17,33.17l.91,0h0a4.85,4.85,0,0,1,.94,1l0,1.86c-.36,1-1.08.42-1.68.4a1.66,1.66,0,0,1-.38-.11c-.27-.4-.43-1-1.12-.76-1.23-.09-2.52.45-3.68-.34A1.38,1.38,0,0,1,59,34a2.56,2.56,0,0,1,1.67-.49,5.13,5.13,0,0,0,2-.56A1.1,1.1,0,0,1,64.17,33.17Z"/><path class="cls-60" d="M66.12,45.34c-.38-1.37.38-2.46.88-3.61-.26-.25-.5-.5-.22-.89a.82.82,0,0,1,1.16.16A8.45,8.45,0,0,1,66.12,45.34Z"/><path class="cls-30" d="M67.94,41l-.91,0c-.69-.16-.43-.75-.46-1.15a7.85,7.85,0,0,1,.13-2.69.46.46,0,0,1,.37-.25c.67.13.86.61.87,1.22Z"/><path class="cls-61" d="M64.18,36h1.9a.89.89,0,0,1,1,.93L67,37c-.62.22-.16,1.22-.95,1.31-1.21.36-1.75-.41-2.22-1.3C63.74,36.62,63.63,36.19,64.18,36Z"/><path class="cls-62" d="M66,34.17c-.63,0-1-.32-.94-1A.93.93,0,0,1,66,34.17Z"/><path class="cls-63" d="M20.35,40.8c0,.31,0,.63-.05.94-.7,0-1,.8-1.63.93a1.63,1.63,0,0,0-1.29-.46,26.19,26.19,0,0,1-3.43,0,1.21,1.21,0,0,0-1.19.46c-.7-.18-1.16-.91-2-.88-.31.33-.62.49-.92,0h0C9.28,41.07,9,40.07,8,39.84H8c-.33-.29-.58-.61-.36-1.09.85-.65,1.59,0,2.37.23a1.83,1.83,0,0,1,.85.44c.13.93.72,1,1.48.83s.78-.8.74-1.37c-.07-1.17.27-1.61,1.37-1.49.41,0,.82,0,1.22.07a18.49,18.49,0,0,1,2.58.09,1.52,1.52,0,0,1,.38.11,1.73,1.73,0,0,1,.32,1.2c0,.34.1.6.5.63a.34.34,0,0,1,.3.17,1,1,0,0,0,.62,1C20.34,40.68,20.35,40.74,20.35,40.8Z"/><path class="cls-64" d="M12.76,42.65c.12-.76.69-.87,1.32-.89,1.15,0,2.29-.06,3.44-.12a1,1,0,0,1,1.15,1Z"/><path class="cls-27" d="M8,39.84a1.92,1.92,0,0,1,1.91,1.9C8.94,41.41,8.64,40.44,8,39.84Z"/><path class="cls-65" d="M6.1,35.06l0-5.69.92,0c.65,0,.47.54.51.91,0,.69,0,1.38,0,2.07a10.05,10.05,0,0,1-.23,3A.79.79,0,0,1,6.1,35.06Z"/><path class="cls-66" d="M7,30.35l0-1,.06-.89h.89l.2,0c.19.57,1.16.27,1.17,1a5.18,5.18,0,0,1,.1,1.84c.05.79-.08,1.43-1.1,1.32a3.45,3.45,0,0,0-.42-.14c-.45-.28-.41-.82-.41-1.2A1.17,1.17,0,0,0,7,30.35Z"/><path class="cls-67" d="M9.9,24.72a1,1,0,0,0,.95-1l.92-.05c.84,1.08,1.17,2.67,2.88,2.88.37-.56,1-.48,1.49-.45.73.05,1,.57.72,1.31a1.18,1.18,0,0,1-1.1.58,21.72,21.72,0,0,1-3.95,0,8.67,8.67,0,0,1-1.89-2.37Z"/><path class="cls-68" d="M17,22.72l.44,0a1.29,1.29,0,0,1,1.93,0h0a1.67,1.67,0,0,1,.31,2c-.57.61-1.37.25-2,.49-.17.1-.36,0-.53.18a1.7,1.7,0,0,1-2.54.22l0,0a1.22,1.22,0,0,1,0-1.9l0,0C15.28,23,16.31,23.24,17,22.72Z"/><path class="cls-69" d="M14.61,25.6c1.2.38,1.89-.76,2.89-1,.35.62,1.07.53,1.55.54s.47.18.66.36a1.49,1.49,0,0,1,0,1.08c-.91.68-1.77,1.5-3.07,1.14a.49.49,0,0,1-.15-.36c-.22-1.14-1.16-.76-1.87-.88C14.64,26.2,14.62,25.9,14.61,25.6Z"/><path class="cls-70" d="M19.38,24.59l0-1.89h1a1.11,1.11,0,0,0,.92.94c1.22.38,1.31.66.71,1.89-.58.84-1.38.4-2.11.37C19.64,25.51,19.26,25.14,19.38,24.59Z"/><path class="cls-71" d="M17,22.72a2.21,2.21,0,0,1-2.41.92C15,22.26,16.16,22.83,17,22.72Z"/><path class="cls-72" d="M14.65,23.67l0,1.9a.88.88,0,0,1-.93-1C13.7,24,14.05,23.7,14.65,23.67Z"/><path class="cls-73" d="M19.41,22.69H17.48a.93.93,0,0,1,1-.86A.9.9,0,0,1,19.41,22.69Z"/><path class="cls-74" d="M33.69,20.8l0-.91c-.06-.52.36-.45.65-.52.69.21.84-.41,1.16-.75.76-.26.62-1.18,1.25-1.61.47-.32.93-.71,1.44-.54.67.22.74-.52,1.21-.54,1.35-.74,2.82-.47,4.24-.43a.78.78,0,0,1,.86.52c.2.52-.16.67-.37.95L43.7,17c-1.72.2-1.73.21-.86,1.73a2.52,2.52,0,0,1,.34,1.12.66.66,0,0,1-1,.24,1.42,1.42,0,0,0-1.7-.71,6.63,6.63,0,0,1-1.78,0,.89.89,0,0,0-1,.54l-2,2a1.09,1.09,0,0,1-1,.17c-.71-.05-.7-.72-1-1.14Z"/><path class="cls-75" d="M44.17,17A1.09,1.09,0,0,0,43,16.05a7.55,7.55,0,0,0-3.58.47c-1.32.3-1.75-.05-1.6-1.28.16-.85.87-1.19,1.53-1.49a1.07,1.07,0,0,0,.71-.88c.19-.22.47-.13.72-.17a.19.19,0,0,0,.11-.07c.17-.08.25-.26.39-.37l.07-.09,1.8.1a1,1,0,0,0,1,.94C44.26,15,44.3,15,46,15.15,46.06,16.93,46,17,44.17,17Z"/><path class="cls-76" d="M47,17a1.05,1.05,0,0,1,.9,1.19c0,1.18,0,2.35,0,3.53a1.42,1.42,0,0,1-.32,1A2.84,2.84,0,0,0,47,25.54c-.34.8-.95.6-1.34.19a1.29,1.29,0,0,0-.84-.44c-.38-.15-.87-.15-1-.65-.1-1.3-.53-2.63.35-3.84l.11,0C47.12,19.93,47.14,19.89,47,17Z"/><path class="cls-77" d="M42.28,19.82l.9.05c0,.23,0,.46,0,.69a4.16,4.16,0,0,1,.25,3.33,1.3,1.3,0,0,1-1.2.05c-.37-.29-.57-.74-1.09-.91s-.41-.75-.37-1.2A2.67,2.67,0,0,0,42,20,.36.36,0,0,1,42.28,19.82Z"/><path class="cls-78" d="M43.14,23.7c0-1.05.06-2.1.08-3.14l1,.24v3.77a.65.65,0,0,1-1.11.29C42.57,24.48,42.8,24.06,43.14,23.7Z"/><path class="cls-79" d="M28.89,22.69c0-.58,0-1.17.05-1.75s.25-1,.94-1.09a1.13,1.13,0,0,1,.47,1.09c0,.15.17-.08,0,0-.13-.48.15-.79.46-1.08.66-.08.91.53,1.37.79a2.69,2.69,0,0,0,1.49.17l.09.06a2.59,2.59,0,0,1,0,2.66c-.45.72-.28,1.64-.77,2.35a5.22,5.22,0,0,1-1.93.08,2.7,2.7,0,0,1-.4-.14,19.41,19.41,0,0,0-1.85-1.89.65.65,0,0,1-.22-.34C28.41,23.19,28.63,22.93,28.89,22.69Z"/><path class="cls-80" d="M34.62,19.83l-.89.06a5.34,5.34,0,0,0-3.82-1.05,1.25,1.25,0,0,1-1-.45c0-.45.05-.91.08-1.36l.88,0c1.59-1.1,3.7-.71,4.26,1.1.1.32.49.52.77.74A.65.65,0,0,1,34.62,19.83Z"/><path class="cls-69" d="M28.89,22.69l0,.9a2.26,2.26,0,0,0-.42,1.5c0,.32,0,.73-.36.85a.84.84,0,0,1-1-.4V23.4A6.39,6.39,0,0,1,28.89,22.69Z"/><path class="cls-81" d="M30.83,19.84c0,.67,0,1.34,0,2,0,.27-.11.59-.48.55s-.35-.3-.36-.54c0-.67-.05-1.33-.06-2Z"/><path class="cls-82" d="M45.1,24.62c.83-.08,1.1,1,1.93.92l.93,0c0,.3,0,.59,0,.88,0,.45-.26.54-.62.55-.8-.32-.85.6-1.34.81a2.65,2.65,0,0,1-1,.13,1.36,1.36,0,0,1-1-.35,1.52,1.52,0,0,1-.27-1.07C44.58,26.19,44.53,25.18,45.1,24.62Z"/><path class="cls-83" d="M26.11,26.51l.87-.24c1.16-.38,1.27-.32,1.47.73-.05.77-.48,1.54-.05,2.32a1.68,1.68,0,0,1-.06.89.93.93,0,0,1-.13.35c-.77,0-.75.69-1,1.16a1.49,1.49,0,0,1-.91,0c-.44-.05-.84,0-.89.56a.36.36,0,0,1-.25.24c-.66,0-.5.57-.54,1s.07.77-.4.92a1.15,1.15,0,0,1-1.16-.13c-.55-.84-.28-1.8-.39-2.7,0-.36,0-.71,0-1.07.38-.93-.88-.59-.93-1.19a5,5,0,0,1-.06-1.09,2.89,2.89,0,0,1,.43-2.08,16.73,16.73,0,0,1,3.09-.1C25.65,26.1,25.83,26.35,26.11,26.51Z"/><path class="cls-84" d="M28,27.41c0-.66-.55-.89-1-1.14,0-.25.05-.49.07-.73a.91.91,0,0,0,.9-.9,1,1,0,0,1,.91-1.05l.06.07c.1.12,0-.06.08.08a2.93,2.93,0,0,0,1.76,1.75l.07.08c.24.23.52.44.33.83s-1.15.53-.81,1.35a1.38,1.38,0,0,1-.4.9,1.15,1.15,0,0,1-1,.16C28.21,28.64,28.08,28,28,27.41Z"/><path class="cls-85" d="M26.11,26.51H22.26c-1,.83-2.26.82-2.89,0l0-.92c.14-.2.29-.19.45,0h2.9A1.16,1.16,0,0,1,24,25.05a1.08,1.08,0,0,0,1.06-.4l.1-.06C26.37,24.78,25.94,25.8,26.11,26.51Z"/><path class="cls-70" d="M25,24.65c-.31,1.44-1.47.72-2.28.89C23.13,24.26,24.19,24.72,25,24.65Z"/><path class="cls-86" d="M41.3,13.18l-1,0c-.8.79-1.79.51-2.73.52-.43,0-.85-.08-1.27-.07-1.29-.23-1.43-.49-.75-1.42l0,0,5.7.06,0,.92Z"/><path class="cls-87" d="M34.63,18.89a1.19,1.19,0,0,1-.93-.44c-1-1.39-2.34-1.59-3.87-1.46l0-1,0,0c.3-.34.63-.64.94-1l0,0c1.16-.33,1.88.67,2.85.93a.66.66,0,0,1,1-.23c.35.17.3.73.93.76s.58.72.47,1.25c-.1.74-1.11.38-1.27,1.05Z"/><path class="cls-88" d="M35.59,12.23a1.06,1.06,0,0,0,1,1,.78.78,0,0,1,.28,1.07,2,2,0,0,1-2,.15.47.47,0,0,1-.24-.38l.05-.9c-.37-.31-.38-.62,0-.92Z"/><path class="cls-88" d="M34.55,16.06l-.86,0c0-.77-.23-1.68.89-2l.07.08a1.18,1.18,0,0,1,.28,1.7A.43.43,0,0,1,34.55,16.06Z"/><path class="cls-89" d="M34.65,12.25l0,.92-1,0c0-.3.05-.59.08-.89Z"/><path class="cls-90" d="M9.92,25.59a2.63,2.63,0,0,1,1.88,1.85.45.45,0,0,1-.56.54c-.69-.12-1,.3-1.38.73-.66.17-1.34.4-1.85-.32l-.07,0,0-.95c.28-.35.63-.64.93-1h0A1.08,1.08,0,0,0,9.92,25.59Z"/><path class="cls-91" d="M8.92,26.51c0,.62-.35.9-.93,1l0-.94Z"/><path class="cls-92" d="M47,26.53l.9-.09h.93a1.12,1.12,0,0,1,1,1c0,.7-.76.53-1,1l-.93.07-.18,0c-.12-.62-1-.52-1.11-1.1C46.48,26.92,46.8,26.75,47,26.53Z"/><path class="cls-93" d="M30.82,15.08a.85.85,0,0,1-.94,1l0-.94Z"/><path class="cls-94" d="M34.65,60.77a1,1,0,0,0-.93-1h0a6.4,6.4,0,0,1-1.52-5.33c.07-.41.15-.73.71-.77.35,0,.47-.5.7-.77a1.15,1.15,0,0,1,1.08-.12.49.49,0,0,1,.35.24,7.31,7.31,0,0,1,.12,1.67c0,.47.08.62.49.66s.59.26.92.29a.41.41,0,0,1,.29.22c.2.86.87.44,1.37.56.9.22.66-.62,1-.89a2,2,0,0,1,1,0c.32,0,.64,0,1,0,1-.16,1-1.11,1.35-1.74.45-.89,1-1.74,1.35-2.68.31-.11.74-.06.74-.58a.64.64,0,0,0-.49-.66c-.48-.21-.5-.69-.5-1.14s.17-.93.21-1.38c.28-.44.68-.39,1.09-.29a4.87,4.87,0,0,1,2.6,2.51A.73.73,0,0,0,48,50a.39.39,0,0,1,.3.17,1,1,0,0,0,.62,1c0,.06,0,.11,0,.17,0,.32,0,.65,0,1A1.06,1.06,0,0,0,48,53a9.8,9.8,0,0,1-3,4.32c-1.35,1-2.63,2.56-4.62,2.54a1,1,0,0,0-1,.93Z"/><path class="cls-95" d="M64.17,37c.8,0,1,1,1.84,1,1.06.66.35,1.69.48,2.54,0,.27.14.86-.45,1a3,3,0,0,0-1.87,2.65,2.46,2.46,0,0,1-.79,1.65,15.48,15.48,0,0,1-5.26,4.28,3,3,0,0,1-1,.21c-.75,0-1.51,0-2.26,0-1.57.13-3,0-4-1.5-.74-.34-.44-1-.46-1.55a6.46,6.46,0,0,1,.19-2.93,3.15,3.15,0,0,1,2-.13c.64,0,.61.53.61,1s-.08.83.42,1,.53,1,1.2,1.12a1.44,1.44,0,0,0,2.46,0,2.07,2.07,0,0,1,.81-.23.71.71,0,0,0,.79-.89c-.11-.85.43-1,1.11-1.09.51,0,.89-.1.75-.77a1.14,1.14,0,0,1,.19-.91,4.55,4.55,0,0,0,.82-2.51c0-.74-.22-1.46-.17-2.21a3.73,3.73,0,0,0-1-1.46c-.6-.74-.43-1.22.52-1.49s1.92-.33,2.5.77C63.78,36.69,64,36.81,64.17,37Z"/><path class="cls-96" d="M50.81,49.38c0,1.77,0,1.82-1.88,1.88h0c-.32-.31-.63-.64-1-1l0,0c-.57-.41-.55-.86-.24-1.45.53-1,.24-1.59-.9-1.68a4.55,4.55,0,0,1-2.19-1c0-.21.09-.37.13-.56.28-.45,1.09-.58.85-1.36.21-.51.61-.9.83-1.41a.93.93,0,0,1,1-.69,1.2,1.2,0,0,1,1.08.8c.38.81.57,1.78,1.59,2.12A9.23,9.23,0,0,1,50.37,48,1.9,1.9,0,0,0,50.81,49.38Z"/><path class="cls-97" d="M50.81,49.38A1.24,1.24,0,0,1,49.9,48c0-.9,0-1.8-.07-2.7-.75-1-.57-2,.31-2.21.31-.09.47.21.73.14a.83.83,0,0,1,0,1.32c0,1.41,0,2.83,0,4.24Z"/><path class="cls-98" d="M66,41.5,66,38c.1-.54.33-1,.95-1,0,1.35.05,2.69.07,4l0,.68Z"/><path class="cls-99" d="M29,48.36H28c.11-1-.57-2.09.63-2.8a1.65,1.65,0,0,0,.56-1c.27-1.48.29-1.47,1.72-1.43a12.85,12.85,0,0,1,2.77.15c.53.63,1.63.88,1.33,2s-1.07.57-1.59.66c.8.17.87.38.42,1.65a4.07,4.07,0,0,1-3.15.23A1.46,1.46,0,0,0,29,48.36Z"/><path class="cls-100" d="M30.83,43.65a1,1,0,0,0-.95.89,1.08,1.08,0,0,1-1.21,1A10,10,0,0,0,27,42.69a1.15,1.15,0,0,0,.47-1.23c-.07-.31-.1-.93.44-1.12a3.75,3.75,0,0,1,2,.22c.37.2.37.73,1,.79.43,0,.44.78.4,1.28A1.2,1.2,0,0,1,30.83,43.65Z"/><path class="cls-101" d="M24.13,39.87l-.87-.06a.73.73,0,0,1-.36-1c.19-.47.6-.41,1-.41.83,0,1.73.2,2.24-.75a1.37,1.37,0,0,1,1.14.07,1.74,1.74,0,0,1,.22,1.12,14.54,14.54,0,0,1,0,2c-.11.35.14.89-.49,1l-.92-.05a1,1,0,0,0-1-1C24.76,40.51,24.51,40.12,24.13,39.87Z"/><path class="cls-102" d="M27,41.78l0-1c.33-.3.66-.55.89.09a1.87,1.87,0,0,0,.08.34c.79,1.5.79,1.5-1,1.5Z"/><path class="cls-103" d="M33.72,53.24c-.3.9-1.19,1.55-1,2.67a4,4,0,0,0,.57,2,2.86,2.86,0,0,1,.41,1.92c-1-.48-1.94-.94-2.88-1.47a2.39,2.39,0,0,0-.94-.41l-.06-3.78A3.4,3.4,0,0,1,30.51,52c.56-.73.24-1.69.33-2.55,0-.62.47-.51.86-.51.74.18.39.86.56,1.3a1.75,1.75,0,0,1,0,.79c-.26,1.14.12,1.77,1.29,1.92A.42.42,0,0,1,33.72,53.24Z"/><path class="cls-104" d="M23.2,38.9l.06.91c-1.47.27-.51,1.22-.52,1.89-.22.65.4,1.52-.52,2l-.88-.07c0-.59-.06-1.18-.08-1.77a1,1,0,0,0-.91-1h0c-.29-.34-.65-.62-.92-1h0a1.05,1.05,0,0,1-.51-.9,1,1,0,0,0-.48-1h0c-.24-.58-1-.35-1.3-.79.17-.79-.93-.5-.95-1.13a3.4,3.4,0,0,1-.1-1.1c-.06-.24.07-.47,0-.74-.33-1.16.72-1.77,1.27-2.42s1.22-1.43,2.28-.8a3.06,3.06,0,0,1,.26,1.08,2.6,2.6,0,0,1-.13,1c0,.53-1,.35-.81,1-.15.75.67.43.89.78a1.74,1.74,0,0,1,.05.88c0,.42-.06.85.55.88a.45.45,0,0,1,.24.23c0,.59.44.63.9.57C22.69,37.28,23,38,23.2,38.9Z"/><path class="cls-105" d="M22.31,45.52l0-1.4a1.61,1.61,0,0,0,.44-1.21,1.23,1.23,0,0,1,.48-1.13c.92.37,1.21,1.26.95,2.77C24,45.71,23.07,45.49,22.31,45.52Z"/><path class="cls-106" d="M23.19,41.78c0,.89.2,1.87-.92,2.34l-.05-.44c.18-.66-.28-1.48.52-2Z"/><path class="cls-107" d="M24.13,39.87a1,1,0,0,1,1,.9A.93.93,0,0,1,24.13,39.87Z"/><path class="cls-108" d="M31.75,49.42l-.91,0c-.85.06-1.07-1-1.87-1,.05-.6-.23-1.33.49-1.69s1.09.1,1.59.45c.8.57,1.76.25,2.65.31l.2.1c.67.4,1.4.77,1.31,1.76,0,.13.06.27.1.4,0,.83-1.17,1-1.12,1.87-.13.33.05.81-.45,1-1.41.25-1.66-.05-1.54-1.91C32.23,50.13,32.21,49.7,31.75,49.42Z"/><path class="cls-109" d="M48.89,28.39a1,1,0,0,1,1-1c.81.07,1.14-.91,1.93-.9.33-.19.67-.43,1,0l-.06.88a1,1,0,0,0-1,.93Z"/><path class="cls-51" d="M52.77,26.54l-1,0a2.63,2.63,0,0,1,1.93-.93l0,.92Z"/><path class="cls-110" d="M64.17,33.17c-1.43,1.14-3.11,1-4.77.95-.69.07-.46-.8-.95-.93a1.12,1.12,0,0,0-1.07-.51c.69-.1,1.13.43,1.51,1.08,0,1.1-1,.85-1.56.9a13.24,13.24,0,0,1-2.58-.15c-.66,0-.76-.88-1.36-1,.11-.78-.74-.83-1-1.34s.06-.65.33-.88c0-.31.05-.61.08-.92l.91,0c.62.66,1.44.37,2.17.41,1.76.09,3.52-.06,5.28.11a1,1,0,0,1,.37.14c.1.46.33.82.85.75s.58.24.84.43l.91.05Z"/><path class="cls-111" d="M61.31,31.27c-.68,0-1.36.28-2,.28a43.67,43.67,0,0,1-5.22-.49c-.28,0-.36-.4-.41-.68l7.52,0C61.61,30.64,61.88,30.93,61.31,31.27Z"/><path class="cls-112" d="M61.31,31.27c0-.3-.05-.6-.07-.91l.92,0c0,.31.07.61.11.91-.3.65-.64.35-1,0Z"/><path class="cls-113" d="M47.94,29.33a1,1,0,0,1,1,1,.7.7,0,0,1,.13,1.09,1.6,1.6,0,0,1-1.21.31c-.91.05-1.41-.32-1.31-1.3a1.73,1.73,0,0,1,.29-1.21A.7.7,0,0,1,47.94,29.33Z"/><path class="cls-114" d="M48.9,31.21l0-.87,1.83,0c0,.29,0,.57.07.85a.45.45,0,0,1-.15.35,1.38,1.38,0,0,1-1.64,0A.4.4,0,0,1,48.9,31.21Z"/><path class="cls-115" d="M47.94,29.33l-.88.06a.44.44,0,0,1-.37-.25.66.66,0,0,1,.18-1,.9.9,0,0,1,1.1.23v.11Z"/><path class="cls-116" d="M61.3,31.27l1,0c.68,0,1,.29,1,1C62.46,32.17,61.53,32.43,61.3,31.27Z"/><path class="cls-117" d="M52.73,31.27l0,.91a.55.55,0,0,1-.29.37c-.31.25-.7.09-1,.14s-.78.05-1-.35a.85.85,0,0,1,.34-1l0-.09Z"/><path class="cls-118" d="M64.17,37c-.61,0-1-.5-1.45-.74a1.17,1.17,0,0,0-1.34.09c-.47.46.18.64.38.9A1.58,1.58,0,0,1,62,38.89c-.7,1-1.65.53-2.54.45A3.89,3.89,0,0,1,59,38a6.45,6.45,0,0,1,.19-2.76l.22-.11,3.78.05c.38.24.65.62,1,.89h0C64.17,36.34,64.17,36.66,64.17,37Z"/><path class="cls-119" d="M54.64,34.13c.89,0,1.78,0,2.68,0a1,1,0,0,0,1.13-.93h0a1,1,0,0,1,.95.94c0,.32,0,.64,0,1l0,.05c-.25.17-.43.48-.79.44-.57-.12-.78.22-.89.7a1,1,0,0,1-.37.13,2.29,2.29,0,0,1-.94,0c-.27-.5-.5-1-1.22-.84-.35-.07-.73,0-1-.41C54.23,34.76,54.05,34.28,54.64,34.13Z"/><path class="cls-120" d="M64.17,36a1,1,0,0,1-1-.89A.88.88,0,0,1,64.17,36Z"/><path class="cls-121" d="M15.63,37.9c-1.22,0-2.19.17-2.32,1.69a1.29,1.29,0,0,1-1.2,1.14,1.54,1.54,0,0,1-1.76-.88c0-.12,0-.31,0-.34,1.1-.49.83-1.45.81-2.33,0-1.11,0-2.22,0-3.33,0-.65,1.43-1.89,2-1.78a.92.92,0,0,1,.87,1.08,13.86,13.86,0,0,0,.07,1.92c0,.32.09.45.34.56a1.36,1.36,0,0,1,.37.21c-.06.75,1,.51,1,1.16A.75.75,0,0,1,15.63,37.9Z"/><path class="cls-122" d="M11.75,37.68a3.63,3.63,0,0,0,.15.67c.63,1.46.64,1.46-1,1.49h-.58l-.48-.24a1.61,1.61,0,0,1-.32-1.76C10.23,37,11,37.34,11.75,37.68Z"/><path class="cls-123" d="M15.63,37.9l0-.91c.63-.82,1.28-.56,1.92,0a.93.93,0,0,1,.91,1Z"/><path class="cls-121" d="M9.87,37.94v1.67A8.11,8.11,0,0,0,8,38.88c0-.33,0-.66,0-1C8.62,37.45,9.27,37,9.87,37.94Z"/><path class="cls-124" d="M18.42,38c1.29.11.91,1.11,1,1.86C18.31,39.62,18.42,38.77,18.42,38Z"/><path class="cls-125" d="M19.42,39.82c.65,0,1,.32.92,1A.86.86,0,0,1,19.42,39.82Z"/><path class="cls-126" d="M6.1,35.06l.9,0c.59.06.52.39.32.77a.39.39,0,0,1-.36.21l-.9,0Z"/><path class="cls-127" d="M9.87,37.94,8,37.89,7.92,37a1.23,1.23,0,0,0,0-.19c.57-.19.4-.83.72-1.17.82,0,.82-.44.57-1A1.6,1.6,0,0,0,8,33.56c-.28,0-.43-.15-.43-.45s0-.75.49-.84a1,1,0,0,0,.94-1c.46-.76,1.21-.3,1.82-.43a3.84,3.84,0,0,1,.83,0h.32a5.87,5.87,0,0,1,.84,0c.13,0,.25,0,.37,0a3.42,3.42,0,0,1,1,0c.79,0,1,.56,1,1.28-.09.92,0,1.85,0,2.77a1.45,1.45,0,0,1-.4,1.13c-1.09-.11-.92-1-1-1.69-.06-.54.19-1.44-.57-1.45s-1.28.64-1.29,1.54c0,1.09,0,2.19-.06,3.29A5.19,5.19,0,0,1,9.87,37.94Z"/><path class="cls-128" d="M7.92,37a1,1,0,0,1-1-.93l.1-.09c.3-.35.7-.55,1.08-.23s.27.82-.08,1.2Z"/><path class="cls-71" d="M8.06,37a1,1,0,0,0-1-1L7,35.1c0-1,0-1.91,0-2.87.31-.37.62-.41.94,0l.06.07c0,.31,0,.62,0,.94a11.75,11.75,0,0,1,1.07,1.35A.92.92,0,0,1,8.94,36,1,1,0,0,1,8.06,37Z"/><path class="cls-67" d="M8,32.2l-.94,0,0-1.88C8.25,30.52,7.9,31.46,8,32.2Z"/><path class="cls-129" d="M10.85,31.25c-.15.68-.41,1-1.08.4A3.65,3.65,0,0,0,9,31.26l0-1.83c.1-.7.53-.45.91-.32.36.29.53.73,1,1S11.31,30.86,10.85,31.25Z"/><path class="cls-130" d="M9.85,29.44H9a1,1,0,0,1-1-1H9.89l.18,0a.66.66,0,0,1,.1.85A.34.34,0,0,1,9.85,29.44Z"/><path class="cls-131" d="M9.89,28.4c.26-1.06,1.15-.89,1.91-1l3.77,0c.25.25.57.46.48.89s-.24.43-.51.45-.52.25-.56.59a.35.35,0,0,1-.18.29c-.61,0-.75.43-.8.92-.39.28-1,.15-1.25.69l0,0c-.32.38-.63.39-.93,0l0,0c-.34-.7-1-1.11-1.43-1.78a1.27,1.27,0,0,0-.46-1.09Z"/><path class="cls-72" d="M15.52,28.38l.05-.92.95-.08,0,.13a1.29,1.29,0,0,0,1.15.38c.35,0,.78-.06.86.47a1.36,1.36,0,0,1-.11,1.13c-.57.41-1.33.52-1.79,1.16-.24.33-.65.11-1,0a1,1,0,0,1-.56-1.18A1.39,1.39,0,0,1,15.52,28.38Z"/><path class="cls-132" d="M19.86,25.54l-.45,0c-.74-.1-1.71.25-1.91-.95l1.88,0A1.73,1.73,0,0,1,19.86,25.54Z"/><path class="cls-133" d="M18.23,28.45c-.68-.09-1.52.09-1.68-.94.94-.35,1.65-1.31,2.82-1l2.89,0,0,1.94A4.47,4.47,0,0,1,18.23,28.45Z"/><path class="cls-134" d="M36.54,14.15c0-.31,0-.61,0-.92l.94,0a2.22,2.22,0,0,1,.68,1.89,1.46,1.46,0,0,0,1.21,1.42c-1.51.42-2.48,1.67-3.78,2.43a.4.4,0,0,1-.34-.17c-.21-.38,0-.62.27-.86.22-.93-1.13-1-1-1.86l.15,0C35.32,15.41,36,14.8,36.54,14.15Z"/><path class="cls-135" d="M32.7,25.6c0-1.17-.12-2.36.78-3.37.27-.31.21-.91.3-1.37a2.86,2.86,0,0,1,.89.94c.77.82.34,1.84.43,2.76,0,.24.13.59-.13.83a6.14,6.14,0,0,0-1.22,1.53,1.45,1.45,0,0,1-1.14-.23A.68.68,0,0,1,32.7,25.6Z"/><path class="cls-136" d="M37.48,19.83a1,1,0,0,1,1.06-.9c.86,0,1.71,0,2.57,0a1.08,1.08,0,0,1,1.17.92l-.08.08c-.74.84-1.76.34-2.63.45a3.29,3.29,0,0,1-1.84-.18A.46.46,0,0,1,37.48,19.83Z"/><path class="cls-137" d="M34.57,25.51c0-1.23.07-2.47.1-3.71l.9-.06.23.1a6.84,6.84,0,0,1,.07,3.7.79.79,0,0,1-1,.34A.46.46,0,0,1,34.57,25.51Z"/><path class="cls-138" d="M35.57,21.74a2.78,2.78,0,0,1,1.91-1.91l.05.1A1,1,0,0,1,38,21c.1.92-.29,1.35-1.23,1.25a1.08,1.08,0,0,1-1.07-.42Z"/><path class="cls-139" d="M34.62,19.83v-.94h0c.29-.36.59-.43.91,0l.08.1A.94.94,0,0,1,34.62,19.83Z"/><path class="cls-140" d="M38.2,15.1c-.92-.38-.65-1.19-.68-1.89h2.82A2.38,2.38,0,0,1,38.2,15.1Z"/><path class="cls-140" d="M41.3,13.18c.29.08.65.05.72.45a.23.23,0,0,1-.28.27c-.4-.07-.39-.42-.44-.72Z"/><path class="cls-141" d="M45.1,24.62c0,.78.29,1.72-.93,1.9a6,6,0,0,1-1.38-.31c-.85-.12-1.22-.57-1-1.44a1.63,1.63,0,0,1,.19-1,.35.35,0,0,1,.33-.17l.86.07c0,.68.33,1,1,.87Z"/><path class="cls-142" d="M41.35,21.79c0,.77.9,1.09.93,1.84l-.08.07a1.25,1.25,0,0,1-.79.42c-.65.07-1.44-.14-1.73.83,0,.17-.63.27-1,.06a1.87,1.87,0,0,1-.4-.13c-.15-.66-.75-.82-1.22-1.1a2.1,2.1,0,0,1,2.05-2.48c.72,0,.78-.61,1.14-.9C41.8,20.44,42,20.67,41.35,21.79Z"/><path class="cls-143" d="M41.35,21.79a1.08,1.08,0,0,0-1-1,2.37,2.37,0,0,1-2.84,0l0-.89a31.64,31.64,0,0,1,4.67,0C42.2,20.66,42.45,21.53,41.35,21.79Z"/><path class="cls-144" d="M30.76,25.49c-1.77,0-1.89-.07-1.84-1.83C30,23.8,30.44,24.59,30.76,25.49Z"/><path class="cls-145" d="M32.7,25.6l.07.87a.41.41,0,0,1-.24.36,1.73,1.73,0,0,1-1.61,0,.45.45,0,0,1-.14-.36l0-.85Z"/><path class="cls-146" d="M42.2,24.58a1.15,1.15,0,0,0,1,1,1,1,0,0,1,1,1v1.11c.12.2.44.21.46.5,0,.13,0,.26,0,.39,0,.34,0,.67,0,1,.07.63-.08,1.2-.76,1.36-.39.09-.31.48-.57.59a1.77,1.77,0,0,1-1.12.23c-.34-1-1.2-.94-2-1.05a.85.85,0,0,1-.08-1.38c.91-.59.66-1,0-1.41-.13-.09-.14-.28-.16-.43a7,7,0,0,1-.12-1.21,2.56,2.56,0,0,1,0-.47c0-.58-.07-1.36.54-1.52S41.69,23.88,42.2,24.58Z"/><path class="cls-147" d="M47,26.53l0,.93,0,.18a.6.6,0,0,1-.83.11.38.38,0,0,1-.13-.33A.89.89,0,0,1,47,26.53Z"/><path class="cls-148" d="M44.16,27.46h1a.79.79,0,0,1,.3,1,.45.45,0,0,1-.3.3.75.75,0,0,1-1-.31h0a.57.57,0,0,1,0-1Z"/><path class="cls-149" d="M45.11,28.42v-1l.9,0,.07.07c.35.35.62.73.16,1.16S45.43,28.81,45.11,28.42Z"/><path class="cls-150" d="M26.08,31.29l.9-.06c.38-.25.65-.62,1-.9h0a.68.68,0,0,1,1-.29c.18.66,1.1.52,1.29,1.17s.41,1.41-.7,1.54c-.09,0-.19.32-.22.52-.6.84-1.58,1.27-2.23,2.07a1,1,0,0,1-1,0,1.15,1.15,0,0,1-.45-1c0-.39-.1-.84-.64-.91a.65.65,0,0,1-.22-.34c-.17-.41.08-.64.36-.86h0A12.28,12.28,0,0,1,26.08,31.29Z"/><path class="cls-138" d="M18.23,28.45h4c0,.3,0,.6.05.89.27.34.6.62.85,1v.94c-.56.78-1.29.5-2,.33-.18-1.23-.78-2-2.15-1.81a1.74,1.74,0,0,1-.56-.1.4.4,0,0,1-.25-.36Z"/><path class="cls-151" d="M21.33,31.26h1.81c.05.95.1,1.89.14,2.83a.44.44,0,0,1-.28.36c-.84.43-1.25-.1-1.25-.78s-.38-.88-1-.94-1.05,0-1.37-.52l0-.9c0-.62.53-.44.88-.5S21,31,21.33,31.26Z"/><path class="cls-152" d="M28,27.41a1,1,0,0,1,.94,1,.71.71,0,0,1,.13,1.09A.7.7,0,0,1,28,29.39c-.57-.08-.94-.35-.93-1S27.46,27.53,28,27.41Z"/><path class="cls-153" d="M24.11,34.1l.08-.9c.28-.39.57-.43.88,0l.12,0a1.65,1.65,0,0,1,0,2.06,1,1,0,0,1-1.27.09A1,1,0,0,1,24.11,34.1Z"/><path class="cls-151" d="M23.13,30.32a.94.94,0,0,1-.85-1A.84.84,0,0,1,23.13,30.32Z"/><path class="cls-154" d="M28,29.39l.86-.05a.42.42,0,0,1,.34.12.59.59,0,0,1-.09.83l-.18,0H28Z"/><path class="cls-155" d="M28,30.33c0,.67-.34,1-1,.9C27,30.58,27.38,30.33,28,30.33Z"/><path class="cls-156" d="M26.08,31.29c0,.67-.25,1-1,1A.94.94,0,0,1,26.08,31.29Z"/><path class="cls-157" d="M25.07,33.17l-.88,0c0-.67.31-1,.94-1Z"/><path class="cls-158" d="M24.11,34.1l0,.95c-.23.69-.71.4-1.14.29-.44-.47-.18-.84.18-1.19l.11-.06Z"/><path class="cls-51" d="M28.9,33.17c0-.81,1.07-1,1-1.88a3.53,3.53,0,0,0,.45-2c-.06-.27-.12-.46-.38-.54a.42.42,0,0,1-.13-.32l.07-.95a1,1,0,0,1,.9-.45c1-.29,1.38.57,1.92,1.11A4.27,4.27,0,0,0,34,29.33c.08.34.39.59.39,1,.58.58.78,1.62,2,1.43a.67.67,0,0,1,.72.6c0,.44.18,1-.46,1.19a7.07,7.07,0,0,1-2.75,0c-.11,0-.24,0-.33-.08-1.31-1.08-1.77-1.09-2.8,0C30.07,33.52,29.35,34.07,28.9,33.17Z"/><path class="cls-159" d="M30.85,27.44h-1c-.14-.71.26-1,.88-1a.24.24,0,0,0,.06.11C31.2,26.83,31.22,27.13,30.85,27.44Z"/><path class="cls-160" d="M28.85,29.34l.1-.91.88,0,.09.06c.36.33.54.69.21,1.14a.83.83,0,0,1-1.16-.2Z"/><path class="cls-161" d="M35.55,18.85l-.91,0a.93.93,0,0,1,.92-1C35.56,18.23,35.55,18.54,35.55,18.85Z"/><path class="cls-162" d="M36.54,14.15C36.51,16,36.47,16,34.7,16c0-.63,0-1.25-.05-1.87Z"/><path class="cls-163" d="M48,28.35l-1,.08c-.61-.32-.3-.65,0-1h0A.91.91,0,0,1,48,28.35Z"/><path class="cls-164" d="M44.14,47.7a2.61,2.61,0,0,0,.53,1.73,1.21,1.21,0,0,1-.45,2.08c-.72-.08-1.35,0-1.43.91,0,.45-.4.4-.72.41a3.7,3.7,0,0,1-1.9-.45,1.5,1.5,0,0,1-.28-1.12c.08-.27.32-.34.54-.43.62-.27.37-.72,0-.89-.68-.34-.6-.91-.55-1.45s.8-.66,1.11-.6c.72.14.62-.57,1-.73C42.82,47,43.66,46.62,44.14,47.7Z"/><path class="cls-165" d="M45.12,46a5.58,5.58,0,0,0,2.18.48,1.61,1.61,0,0,1,1.3,2.67A2.3,2.3,0,0,0,48,50.3a5.69,5.69,0,0,1-2.9-2.82C44.67,47,44.22,46.49,45.12,46Z"/><path class="cls-166" d="M42.22,52.48c0-.27,0-.55,0-.82,0-.61.11-1.21.9-1.27s1,.51,1.06,1.12c-.42,1.86-1,3.63-2.94,4.47-.65-.46-.39-1.15-.46-1.76A3.5,3.5,0,0,1,41,53.15C41.16,52.53,42,53,42.22,52.48Z"/><path class="cls-167" d="M40.33,56l-.89.08a2.73,2.73,0,0,1-2.91,0v0a1.61,1.61,0,0,1,.09-2.45c.22-.19.16-.39.27-.57.18-.46,0-1.13.76-1.24.6.22,1.15.41,1.19,1.2,0,.48.46.54.86.53s.84.09,1,.6C40.81,54.77,41,55.46,40.33,56Z"/><path class="cls-168" d="M37.5,53.18c-.24,1-1.3,1.67-1,2.84l-.92,0c-.63-.28-.58-.93-.55-1.38a1.41,1.41,0,0,0-.43-1.2l0-.21c-.68-.45-.2-1.46-.9-1.91-.13-.81.83-1,1-1.68.65-.24.86.29,1,.69A23.58,23.58,0,0,0,37.5,53.18Z"/><path class="cls-169" d="M45.12,46c0,.48,0,1,0,1.45l-.94.22a3.74,3.74,0,0,0-1.88,0c-.58-.26-.86-.88-1.43-1.15a1.5,1.5,0,0,1,.24-1.07,3.37,3.37,0,0,1,2.78-.41,2.46,2.46,0,0,1,1,.18.35.35,0,0,1,.2.33Z"/><path class="cls-170" d="M36.53,56l2.91,0c-.11,1-.9.93-1.6.93S36.56,56.91,36.53,56Z"/><path class="cls-171" d="M34.64,53.41c1.43.44.78,1.67,1,2.58C34.09,55.59,34.78,54.34,34.64,53.41Z"/><path class="cls-172" d="M33.71,51.29c1.17.23.89,1.14.9,1.91l-.89,0a.76.76,0,0,1-.08-.11c-.41-.31-.3-.63,0-1Z"/><path class="cls-173" d="M40.33,56V54.18c.27-.67.62-.38,1-.08,0,.63,0,1.25,0,1.88Z"/><path class="cls-174" d="M48,50.32a.87.87,0,0,1,1,1A.93.93,0,0,1,48,50.32Z"/><path class="cls-175" d="M59.4,37.93l.2.91c-.37.92-1.19.36-1.79.55A2.59,2.59,0,0,0,56,41.62c0,.11,0,.21,0,.32a1.86,1.86,0,0,1,0,.78c.12.45-.1.9,0,1.38s-.16,1-.55.95c-1.07-.15-1.32.46-1.51,1.26a.46.46,0,0,1-.34.26c-1.15-.26-.84-1.21-.93-2-.68-.38-.49-1.07-.52-1.64s0-.82-.52-.9a.47.47,0,0,1-.25-.32c-.17-1-.32-1.91.67-2.74a21,21,0,0,0,1.75-1.88,1.79,1.79,0,0,1,1.54-.61c.7-.1,1.51.23,2.06-.5h0a.88.88,0,0,1,1-.3c.61.18.4.69.43,1.08A1.35,1.35,0,0,0,59.4,37.93Z"/><path class="cls-176" d="M57.53,38.92l2.07-.08,2.43,0a4.1,4.1,0,0,1,.22,1.9A3,3,0,0,0,60.91,43c0,.4,0,.9-.56,1s-1.1.19-1.45-.41a7.91,7.91,0,0,1,0-1.82c.09-.9-.13-1.49-1.21-1.56C56.88,40.19,56.84,39.7,57.53,38.92Z"/><path class="cls-177" d="M59.4,43.67c.8-.16,1.11-.74.83-1.39-.59-1.37.21-1.46,1.19-1.48h.83c.39,1.59-.5,2.86-1.06,4.2a.91.91,0,0,1-.85.53c-.24-.6-1.27-.19-1.33-1C58.92,44.12,58.81,43.73,59.4,43.67Z"/><path class="cls-178" d="M51.82,41.8c.8.07.88.65.9,1.27s0,1,0,1.53H50.82c0-.31,0-.63,0-.94A2.29,2.29,0,0,1,51.82,41.8Z"/><path class="cls-179" d="M59.35,44.57a1,1,0,0,1,1,1,1,1,0,0,0-1,1,1,1,0,0,1-1,.42c-.2-.66-1-.8-1.21-1.38a1.12,1.12,0,0,1,.23-1.12C58.06,44,58.74,43.86,59.35,44.57Z"/><path class="cls-180" d="M57.51,47.51a1.59,1.59,0,0,1-2.9,0,.42.42,0,0,1,.19-.36,4.43,4.43,0,0,1,2.5,0A.39.39,0,0,1,57.51,47.51Z"/><path class="cls-181" d="M58.41,46.48l1,0c-.19,1.14-1.12.91-1.87,1l0-.1c-.44-.32-.39-.73-.18-1.16C57.74,45.92,58.09,46.12,58.41,46.48Z"/><path class="cls-182" d="M54.61,47.53a1,1,0,0,1-1-1s0-.1,0-.15a.83.83,0,0,1,1-.23.5.5,0,0,1,.29.3.69.69,0,0,1-.3.92A.56.56,0,0,1,54.61,47.53Z"/><path class="cls-183" d="M51.82,41.8c-.08.76.08,1.64-1,1.85s-.91,1-1,1.69a2.47,2.47,0,0,1-1.93-1.85c-.17-.73-.55-.67-.94-.11s-.61.83-.91,1.24c-.87.51-1.18.44-1.27-.51a23.4,23.4,0,0,1-.08-5c.1-.81.66-.73,1.2-.72a.54.54,0,0,1,.55.49c.18,1,1.06,1.31,1.9,1.52s.82-.49.94-1c.24-1.12,1-1.35,1.9-.61a6.42,6.42,0,0,1,.11,1.8,1.25,1.25,0,0,0,.42,1.19Z"/><path class="cls-184" d="M46.05,38.92a1.7,1.7,0,0,0-.64,2.61c.33.49.52.75.05,1.3-.65.76-.41,1.31.59,1.79a1,1,0,0,1-1,1h0c-.27-.61-1.08-.38-1.42-.89a5.06,5.06,0,0,1,0-1.86c.06-.36-.16-.68-.18-1-.18-.92-1-.44-1.42-.53-.7-.12-1.46.13-2.11-.35-.14-.7-.19-1.36.7-1.61.32-.09.26-.43.38-.64a1.22,1.22,0,0,1,1-.22c.77.1,1.64.46,1.78-.83,0-.13.26-.14.42-.16,1.08-1.46,2.58-1.11,4-1a.54.54,0,0,1,.17.43,2.57,2.57,0,0,1,0,1.2c-.09.38-.46.52-.69.79A.92.92,0,0,1,46.05,38.92Z"/><path class="cls-185" d="M33.7,47.43c-.11-.87-.91-1.23-1.37-1.84-.14-.19-.37-.36-.17-.6s.44-.13.62,0a2.64,2.64,0,0,0,1.88.52c.34-.31.67-.64,1.15-.24a1.65,1.65,0,0,1-.56,2.15c-.58.5-1,.62-1.57,0Z"/><path class="cls-186" d="M35.56,45.58l-.9,0c.06-.84-1.09-1-1-1.83-.25-.38-.63-.73-.21-1.22a2.54,2.54,0,0,1,1.31-.17c.31.82,1.23,1,1.77,1.62a1.26,1.26,0,0,1,.11,1.85C36.19,46.07,35.86,45.91,35.56,45.58Z"/><path class="cls-187" d="M33.69,42.65c0,.35,0,.7-.07,1.05l-2.79-.05.06-1a1,1,0,0,1,.51-.47c.79.25,1-.51,1.46-.8.38-.06.77-.25,1.1.14A.81.81,0,0,1,33.69,42.65Z"/><path class="cls-188" d="M32.73,41.74c-.17,1.17-1.09.88-1.84.94.15-.91-1.26-1-1.05-1.9,0-.07.05-.14.08-.2a2,2,0,0,1,1.68-.14c.65.09.49,1,1.11,1.12A1.1,1.1,0,0,1,32.73,41.74Z"/><path class="cls-189" d="M27.93,40.85,27,40.76V38.91a.65.65,0,0,1,1-.28,1.39,1.39,0,0,0,1.28.75,1,1,0,0,1,.85.43.68.68,0,0,1-.25,1l0,0Z"/><path class="cls-190" d="M23.2,38.9c-.37-.06-.8,0-.94-.48s-.57-.44-.93-.51a7.11,7.11,0,0,1-1-.93h0c-.28-.25-.51-.52-.36-.94.19-.64,1.1-.52,1.25-1.19.64-.34,1.19-.38,1.55.4.11.24.39.2.61.25s.87,0,1.06.48c.17,1,.51,2-.28,2.91Z"/><path class="cls-191" d="M28,38.88l-.92,0,0-1c-.26-.25-.5-.5-.33-.91a.64.64,0,0,1,.25-.33c.73-.19,1.6-.15,1.87-1.11a3.78,3.78,0,0,1,2,0c.73.15,1.28.7,2,.89.33.08.24.44.32.69.06,1.09-.29,1.32-1.83,1.15-.13,0-.2,0-.29,0-.58,0-1.16.05-1.74,0s-.9-.08-1.14.42Z"/><path class="cls-192" d="M24.18,38.89V36c.07-.59.45-.45.81-.34A1.28,1.28,0,0,1,25.64,37c0,.33,0,.51.31.63a.44.44,0,0,1,.12.34C26,39.39,24.85,38.68,24.18,38.89Z"/><path class="cls-193" d="M27,37v.95l-.94.06v-.11c-.36-.33-.63-.72-.18-1.13S26.72,36.54,27,37Z"/><path class="cls-194" d="M33.63,52.18c0,.32,0,.64,0,1-.4,0-.79,0-1.18,0-.6-.05-1-.33-.82-1a10.62,10.62,0,0,0,.11-2.7c.86,0,1,.6,1,1.26S32.71,52.05,33.63,52.18Z"/><path class="cls-195" d="M20.34,31.23l-.92.08A4.5,4.5,0,0,0,16.52,35c-.25.33-.52.6-1,.43s-.41-.64-.4-.91a8.3,8.3,0,0,1,.09-2.11,1.32,1.32,0,0,1,.21-.43c.74-.25.88-1.05,1.39-1.53a2.23,2.23,0,0,1,1.81-.62c.41.11.82-.07,1.23,0C20.84,30,21,30.37,20.34,31.23Z"/><path class="cls-196" d="M23.2,36c-.88.21-1.11-1-1.93-.9l-.17,0c-.56-1.25-.56-1.25-1.63-1.65a.5.5,0,0,1-.1-.33l0-.9H21a1.1,1.1,0,0,1,1.24,1,1,1,0,0,0,.89.95l0,.94A.53.53,0,0,1,23.2,36Z"/><path class="cls-197" d="M15.61,32.24c0,.6,0,1.19,0,1.78s.25,1,.91,1l0,1a1.11,1.11,0,0,1-1.87,0h0l0-3.73C15,31.87,15.29,31.64,15.61,32.24Z"/><path class="cls-127" d="M14.68,36l1.87,0a1,1,0,0,1,1,.95l-1.92,0A1,1,0,0,1,14.68,36Z"/><path class="cls-198" d="M21.27,35.13a1,1,0,0,1-.95.93c-.32.39-.63.33-.92,0l0-.89c-.23-.29-.48-.57-.29-1a.54.54,0,0,1,.31-.32c.7-.15,1.42-.35,1.47.79a1.94,1.94,0,0,0,.42.5Z"/><path class="cls-199" d="M19.4,36l.92,0,0,.92A.92.92,0,0,1,19.4,36Z"/><path class="cls-200" d="M20.36,37a.92.92,0,0,1,1,.93A.87.87,0,0,1,20.36,37Z"/><path class="cls-200" d="M18.46,34.14a1,1,0,0,1,.91-1l0,.1c.41.31.34.62,0,.93h0C19.09,34.5,18.78,34.54,18.46,34.14Z"/><path class="cls-201" d="M18.46,34.14h.95c0,.33,0,.66-.05,1C18.68,35.14,18.37,34.83,18.46,34.14Z"/><path class="cls-202" d="M41.32,45.59v.91c.67,1,.57,1.26-.6,1.41A.89.89,0,0,0,39.85,49c0,.61-.26.83-.79.87s-.87-.06-1,.48.49.47.72.71a1,1,0,0,1,.14.32c0,.69,0,1.35-1,.9a1.32,1.32,0,0,0-.45.94A3.44,3.44,0,0,1,35.27,51c-.23-.45-.4-.93-.6-1.39a1.34,1.34,0,0,1,0-.2c.55-.73.65-1.79,1.58-2.23a2,2,0,0,0,1.16-.9,4.47,4.47,0,0,0,1.28-.76,2.21,2.21,0,0,1,1.6-.44,1.64,1.64,0,0,1,.9.18A.39.39,0,0,1,41.32,45.59Z"/><path class="cls-203" d="M37.51,46.55a6.89,6.89,0,0,1-2.85,2.86c0-.81-.94-1.15-1-1.94a2.55,2.55,0,0,0,1.88-1.89l1,0,.17,0c.22.24.35.57.71.66A.5.5,0,0,1,37.51,46.55Z"/><path class="cls-204" d="M51.72,41.74c-.8-.08-.88-.65-.88-1.28s0-1,0-1.53c-.07-.74.54-1.35.43-2.11-.06-.3.12-.55.18-.82a1.39,1.39,0,0,0,.77-1.61,2.51,2.51,0,0,1,.25-1.45.93.93,0,0,1,.35-.13c.41-.17.61.14.85.35a1.08,1.08,0,0,1,1,1v1c.3.5,1,.48,1.28,1,.2.39-.1.61-.3.86C53.83,38.18,52,39.28,51.72,41.74Z"/><path class="cls-205" d="M58.45,33.18c-.67,0-1.34,0-2,0-.24,0-.5-.11-.53-.38s.28-.45.55-.47c.81,0,1.72-.27,2,.9Z"/><path class="cls-117" d="M53.69,33.16h-.92c-.63-.24-.39-.56-.09-.89l.09-.09A1,1,0,0,1,53.69,33.16Z"/><path class="cls-206" d="M47,30.3a1,1,0,0,0,1,1c.58.77.57.76-.22,1.43a.77.77,0,0,0-.31.54c-.47.35-1.12.47-1.31,1.13a2.8,2.8,0,0,1-.41.13c-.66.18-1.35,0-2,.14a.9.9,0,0,1-.94-1,6.31,6.31,0,0,0,0-1.15,1.93,1.93,0,0,0,.12-.41c.25-.43.72-.38,1.1-.4s.71-.17.73-.64c.19-.5,1.1-.22,1.06-1a.73.73,0,0,1,.35-.18C46.53,29.8,46.75,30.07,47,30.3Z"/><path class="cls-207" d="M47,33.16c0-.8,1.07-1,1-1.85l.9-.1a.56.56,0,0,0,0,.12,1.54,1.54,0,0,1-.1,2.42.78.78,0,0,0-.23.47c-.45,1.55-1.1,1.79-2.77,1.15-.2-.46-.24-.89.24-1.21h0C46.35,33.78,46.72,33.52,47,33.16Z"/><path class="cls-208" d="M47,30.3l-.92,0c-.45-.3-.61-.7-.25-1.14s.79-.22,1.12.15l.12.05Z"/><path class="cls-209" d="M46.05,35.07a1.68,1.68,0,0,0,2.09-1.37c.24-.78.92-1.44.8-2.37l1.87,0c.25,1,1.11.9,1.87,1l.09.89-.11,0c-.74.83-1.94.67-2.76,1.32-.24.18-.56.24-.47.64a2.07,2.07,0,0,1-.16.82,1,1,0,0,1-.11.31c-.42.12-.79.34-1.21.44a8.84,8.84,0,0,0-3.76,1.2,1.46,1.46,0,0,1-.13-2.15c.32-.28.75-.48.82-1C45.36,34.49,45.72,34.71,46.05,35.07Z"/><path class="cls-210" d="M46.94,29.34c-.65,0-.89.38-.87,1h0a.84.84,0,0,1-1.05.33c-.38-.22-.38-.71-.36-1.13a1.19,1.19,0,0,1,.45-1.11h0a.86.86,0,0,0,1-.93l.91,0v1Z"/><path class="cls-211" d="M59.4,37.93c-1.17-.2-.91-1.15-1-1.92-.35-.33-.31-.63.09-.88h.93C59.41,36.07,59.4,37,59.4,37.93Z"/><path class="cls-212" d="M55.62,37l0-.93,0-.21c.36-.37.62-.1.89.14h.92C57.32,37.22,56.35,36.88,55.62,37Z"/><path class="cls-213" d="M55.6,36.07a1,1,0,0,1-1-1l.9,0c.44.28.41.59.07.94Z"/><path class="cls-204" d="M55.61,36.06c0-.32,0-.63-.07-.94a1,1,0,0,1,1,.88Z"/><path class="cls-212" d="M58.48,35.13c0,.29-.06.59-.08.88h-.94A.94.94,0,0,1,58.48,35.13Z"/><path class="cls-214" d="M15.61,32.24l-.92,0c-.22-1.17-1.16-.9-1.94-1a.91.91,0,0,1,.92-1,10.54,10.54,0,0,0,.95-.94h0c.29-.34.59-.43.91,0l.29,1a1.45,1.45,0,0,1-.22,1.92Z"/><path class="cls-215" d="M8.94,36C8.77,35,7.56,34.4,8,33.21c.76,0,1.67-.23,1.84.88C10,34.88,10.1,35.78,8.94,36Z"/><path class="cls-66" d="M10.84,29.34a1.63,1.63,0,0,1,.94,1.93l-.93,0c.15-.87-1.11-1-1-1.81,0-.05,0-.1,0-.16A.58.58,0,0,1,10.84,29.34Z"/><path class="cls-216" d="M11.8,31.25l.93,0c-.05.33,0,.78-.48.77S11.84,31.59,11.8,31.25Z"/><path class="cls-90" d="M10.84,29.34l-.95-.06V28.4A1,1,0,0,1,10.84,29.34Z"/><path class="cls-67" d="M15.54,29.32l-.91,0c0-.6.26-1,.89-1Z"/><path class="cls-67" d="M14.62,29.36a.85.85,0,0,1-.95.94A.93.93,0,0,1,14.62,29.36Z"/><path class="cls-217" d="M15.61,32.24a4.63,4.63,0,0,1,.22-1.92c.77-.36,1.35-1.17,2.34-1l.29.06c.36.32.37.62-.05.89-.85.14-1.28.86-1.83,1.39A1.72,1.72,0,0,1,15.61,32.24Z"/><path class="cls-218" d="M32.77,26.47h.87c.31-.24.63-.45,1-.24a.68.68,0,0,1,.29.36,1.35,1.35,0,0,1-.11,1.16,1.86,1.86,0,0,1-1.18.19,3.55,3.55,0,0,1-1.24-.24c-.36-.46-.1-.8.23-1.12Z"/><path class="cls-219" d="M34.58,26.49l-.94,0a1,1,0,0,1,.93-.95l.1.08C35,25.92,35.24,26.25,34.58,26.49Z"/><path class="cls-220" d="M35.68,21.82l.89,0c.83,1.2.44,2.5.3,3.79-.23.54-.59.59-1,.3a.48.48,0,0,1-.27-.38Z"/><path class="cls-221" d="M34.58,26.49l.09-.9.88-.08.08.1c.36.3.55.71.23,1.07s-.82.27-1.17-.13Z"/><path class="cls-222" d="M36.53,25.55c0-1.25,0-2.5,0-3.75a1.14,1.14,0,0,0,.93-1h2.84c-.07.6-.48.79-1,1a2.35,2.35,0,0,0-1.81,1.9,7.24,7.24,0,0,0,.9.85.66.66,0,0,1,0,.14c.63.47,1.22,1,.86,1.88-.26.43-.47.9-.75,1.3-.36.07-.74,0-1.09,0A5.13,5.13,0,0,1,36.53,25.55Z"/><path class="cls-223" d="M38.94,26.48c-.17-.6-.33-1.2-.5-1.8a4.39,4.39,0,0,1,3.76-1v.88c-1.77.08-1.82.13-1.85,1.93C39.86,27,39.38,27.32,38.94,26.48Z"/><path class="cls-224" d="M38.43,24.54c-.69.13-.94-.21-.9-.85A.84.84,0,0,1,38.43,24.54Z"/><path class="cls-225" d="M32.67,26.57l.06.91c.25.22.51.43.31.82a.35.35,0,0,1-.32.18c-.88.12-.93-1.26-1.87-1v-.91Z"/><path class="cls-226" d="M37.48,27.43h1a1.29,1.29,0,0,1,1.94,0c1,.3,1.3,1.18.53,1.83a1.24,1.24,0,0,0-.53,1.07,1,1,0,0,1,.23,1.22,2.87,2.87,0,0,1-2.26.16c-.33-.27-.29-.65-.36-1a1.78,1.78,0,0,1,.44-1.25,2.75,2.75,0,0,1-1.6.4c-1-.08-.68-.94-.8-1.48a2.23,2.23,0,0,1,.24-1.12C36.75,26.78,37.12,27.09,37.48,27.43Z"/><path class="cls-227" d="M42.23,31.24l1,0,.21,0c.36.39.1.66-.18.92h0c-.7.5-.43,1.22-.41,1.87s.21,1.06-.46,1.32c-1.26.44-2.15-.56-3.19-.9-.33-.11-.31-.8-.15-1.25,0-.22,0-.52.31-.58a3.13,3.13,0,0,0,1.93-1.85A1.08,1.08,0,0,1,42.23,31.24Z"/><path class="cls-228" d="M45.08,29.35a.93.93,0,0,0,1,1,.87.87,0,0,1-.94,1,1.23,1.23,0,0,1-1.84,0l-.1-.07c0-.8,1-1.08,1-1.9C44.47,29,44.77,29,45.08,29.35Z"/><path class="cls-229" d="M40.37,27.43H38.43a1.3,1.3,0,0,1,.51-1l1.41,0Z"/><path class="cls-230" d="M42.23,31.24l-.9.08c-.35.26-.71.6-1-.05l.07-.94C41.11,30.38,42,30.05,42.23,31.24Z"/><path class="cls-231" d="M44.14,27.45v1c-.38-.05-.89.06-.85-.54S43.81,27.51,44.14,27.45Z"/><path class="cls-232" d="M45.08,29.35h-.91c0-.32,0-.63,0-.94h1Z"/><path class="cls-233" d="M28.9,33.17l1.83,0a.46.46,0,0,1,.39.21c.4.63.11,1.08-.46,1.33-1.09.49-2.12,1.28-3.43.72a.42.42,0,0,1-.22-.34A2.71,2.71,0,0,1,28.9,33.17Z"/><path class="cls-234" d="M27,37a.94.94,0,0,0-1,.9c-1.59,0-.67-1.2-.93-1.84v-.16a3.89,3.89,0,0,0,.77-.8h.17l.94,0,0,.11a.82.82,0,0,1,.45.9c.1.42-.24.65-.43.94Z"/><path class="cls-235" d="M29.84,29.34l.08-.89c.88-.07.94.54.93,1.16s.18,1.59-1,1.68a1,1,0,0,1-1-1h0A10.66,10.66,0,0,0,29.84,29.34Z"/><path class="cls-236" d="M25.12,35.09c0-.63,0-1.26.07-1.9,1.13.24.78,1.17.88,1.9h0c-.26.25-.52.51-.9.19Z"/><path class="cls-237" d="M18.41,30.27c0-.3,0-.59.05-.89l.94,0c1.73,0,1.87.16,1.93,1.9l-1,0C20.1,30.11,19.15,30.38,18.41,30.27Z"/><path class="cls-238" d="M23.2,36v-.94l.92,0,1,0h0a.54.54,0,0,1,0,1H23.2Z"/><path class="cls-239" d="M29.84,29.34a.91.91,0,0,1-.92,1l0-.93Z"/><path class="cls-200" d="M36.56,27.48c0,.76-.42,1.76.89,1.93.61,0,.51.43.51.81a2.76,2.76,0,0,1-.17,1.1.68.68,0,0,1-.36.29c-.94.25-1.85.38-2.54-.55-.3-.41-1-.2-1.19-.83l-.05-.85v-.15c.63-.49-.11-.42-.24-.6a1.35,1.35,0,0,1-.11-.34c-.17-.4.17-.57.36-.81l1,0C35.49,26.81,36,26.82,36.56,27.48Z"/><path class="cls-240" d="M33.7,30.23a2.65,2.65,0,0,1,2.1.78c.38.44,1.1.27,1.68.28.36.1.58.43,1,.54.73.21.44.86.39,1.38a1.93,1.93,0,0,1-1.44,1.33,1.63,1.63,0,0,1-1.18-.22c-.35-.49,0-.8.29-1.11-.06-.58-.41-.84-1-1A2.4,2.4,0,0,1,33.7,30.23Z"/><path class="cls-241" d="M30.73,33.14c.21-.85.86-.93,1.57-.91s1.26.19,1.41,1a.66.66,0,0,1,.17,1,.94.94,0,0,1-1.06.22c-.39-.85-1.47-.63-2-1.28Z"/><path class="cls-242" d="M33.62,34.12l.09-.91h2.81l.07.9c.27.33.53.67.26,1.13a1.49,1.49,0,0,1-1.12.25,2.58,2.58,0,0,0-2-1.05A.34.34,0,0,1,33.62,34.12Z"/><path class="cls-243" d="M33.65,29.38a.94.94,0,0,1-.93-.9l0-.11c.34-.37.66-.31.95.06h0c.37.27.43.58.09.92Z"/><path class="cls-244" d="M38.4,51.23c-.54-.08-.86-.35-.84-.93a.9.9,0,0,1,.77-.9c.11,0,.28,0,.32-.1.71-1.12,1.94-1.73,2.68-2.8.69.1.91.57.93,1.19-.94.67-2.09,1.19-1,2.7.26.37-.31.8-.83.9A16.48,16.48,0,0,0,38.4,51.23Z"/><path class="cls-168" d="M38.4,51.23a1,1,0,0,1,1-.88c.63,0,.88.38,1,.94l-.06.92a1.1,1.1,0,0,1,0,.18c-.72.34-.12,1.38-.88,1.71-1.29,0-.92-1.29-1.48-1.86A1.38,1.38,0,0,0,38.4,51.23Z"/><path class="cls-245" d="M42.22,52.48c-.06.55-.48.63-.91.71-.35.31-.71.65-1.18.19s-.09-.82.19-1.18h0Z"/><path class="cls-246" d="M40.32,52.2a.94.94,0,0,0,1,1v.91l-1,.08-.9-.08C39.53,53.37,39,52.33,40.32,52.2Z"/><path class="cls-247" d="M44.11,42.65l0,1.94c.35.31.41.63,0,.94l-2.85.06-.08-.09c-.29-.53-.82-.37-1.28-.42-.24-.06-.58,0-.65-.36a1.82,1.82,0,0,1-.05-1.06,3.69,3.69,0,0,1,2.32-1.38C42.41,42.44,43.35,41.93,44.11,42.65Z"/><path class="cls-96" d="M44.17,45.53v-.94a1.15,1.15,0,0,1,.94,1Z"/><path class="cls-248" d="M54.65,46.48l-.95-.06c0-.9.06-1.65,1.2-1.93.88-.22.65-1.12.67-1.8-.38-.32-.36-.64,0-.94v0a1,1,0,0,1,1.06-.48c.74,0,1.35.08,1.27,1.05a2.62,2.62,0,0,0-.11.4c-1,.69-1,.94-.34,1.68l0,.18v.93c-.26,1-1.24.12-1.67.65C55.3,45.73,55,46.31,54.65,46.48Z"/><path class="cls-177" d="M56.54,41.75l-.95,0c0-1.69.5-2.42,1.94-2.85,0,.42.22.79.66.85,1.24.18,1.28,1,1.21,2-.26.21-.47.52-.88.36-.18,0-.44,0-.51-.19C57.62,41,57.11,41.16,56.54,41.75Z"/><path class="cls-249" d="M55.6,41.75l0,.94c-.3,0-.67,0-.69-.42S55.28,41.81,55.6,41.75Z"/><path class="cls-250" d="M58.47,41.78h.93v1.9c0,.3,0,.6,0,.9l-1.85,0v0a1.18,1.18,0,0,1,0-1.88h0C58,42.54,57.79,41.71,58.47,41.78Z"/><path class="cls-251" d="M54.65,46.48c.1-.82.7-.92,1.35-.93l1.51,0c.59,0,1,.3.9.95l-.9.07a2.64,2.64,0,0,1-2.88,0Z"/><path class="cls-252" d="M54.63,46.51l2.88,0c0,.29,0,.57,0,.86H54.65Z"/><path class="cls-253" d="M51.72,37c-.08.73.47,1.74-.86,1.92-.85,0-1,.65-1,1.33,0,.5,0,1.08-.53,1.33a1.21,1.21,0,0,1-1.47-.43.91.91,0,0,0-.49-.3c-1.26-.1-1.37-1-1.33-1.94.82,0,1.07-1,1.87-1,1-.27,1.57-1.59,2.89-1.37A1.16,1.16,0,0,1,51.72,37Z"/><path class="cls-254" d="M45.15,35.13c-.24,1-1.36,1.62-1,2.8,0,.27,0,.54,0,.8,0,.6-.26,1.07-.92,1.16s-.89-.44-1-1a1.13,1.13,0,0,0-1-.43,1.08,1.08,0,0,1-1.2-.69c-.18-1.11-.1-1.19,1.06-1.27.87.07,1.53,0,1.91-1.07A1.21,1.21,0,0,1,45.15,35.13Z"/><path class="cls-255" d="M41.34,38.94c0,.79-1,1.07-1,1.87A.92.92,0,0,1,40.63,42c-.32.41-.77.23-1.18.25A5.08,5.08,0,0,1,38.23,42c-.3-.29-.21-.69-.26-1.05a2.92,2.92,0,0,1,.13-1c.19-.55,1.07-.54,1-1.28a.81.81,0,0,1,.37-.15,3.51,3.51,0,0,1,1-.11C40.88,38.48,41.31,38.38,41.34,38.94Z"/><path class="cls-256" d="M51.72,37a2.76,2.76,0,0,0-2.09.61c-.47.43-1.13.27-1.71.29,0-.3,0-.61,0-.91.3-.33.63-.65,1-1h0c.46-.66,1.14-.47,1.77-.49a1.36,1.36,0,0,1,1,.27l.06.21Z"/><path class="cls-257" d="M40.31,41.71c0-.3,0-.6.07-.9h2.5c.66,0,1.16.24,1.23,1-.88.75-1.94.28-2.9.43C40.83,42.19,40.34,42.36,40.31,41.71Z"/><path class="cls-258" d="M41.33,41.77l2.78,0v.85l-2.57.11C40.52,42.63,40.88,42.21,41.33,41.77Z"/><path class="cls-259" d="M41.34,38.94l-1-.06c-.25-.26-.48-.52-.18-.89l.2-.08c.74.13,1.79-.38,1.91,1Z"/><path class="cls-260" d="M48.92,36a1,1,0,0,1-1,1c0-.09,0-.18,0-.27A1,1,0,0,1,48.92,36Z"/><path class="cls-261" d="M39.59,43.7l.07.88A4,4,0,0,1,37.48,46a.83.83,0,0,1-.94-.38h0c-.12-.81-.8-1.23-1.28-1.77a2,2,0,0,1-.63-1.08c0-.6.47-.47.83-.51s.74,0,1.11,0a4.51,4.51,0,0,1,1.75.14C38.63,42.92,39.41,43,39.59,43.7Z"/><path class="cls-262" d="M35.55,42.7h-.91l-1-.06,0-.89a3,3,0,0,1,1.17-1.32c.42-.14.81-.18,1,.29C36.1,41.44,36.24,42.14,35.55,42.7Z"/><path class="cls-263" d="M34.7,40.82a1.06,1.06,0,0,1-1,.94l-.94,0h0c-.38-.27-.52-.59-.23-1a1.57,1.57,0,0,1,1.91-.25A.5.5,0,0,1,34.7,40.82Z"/><path class="cls-264" d="M29.87,40.8v-1l.12-.22a2.14,2.14,0,0,1,1.36-.24c.69.08,1,.39.76,1.12a.51.51,0,0,1-.4.32Z"/><path class="cls-265" d="M32.73,40.8c0,.31,0,.62,0,.93a1,1,0,0,1-1-.91l.11,0c.24-.31.5-.49.86-.17Z"/><path class="cls-266" d="M28.94,38l1.84,0a.67.67,0,0,1,.4.88c-.13.72-1.08.37-1.31,1h0c-.77-.06-1.76.31-1.92-1h0C28.3,38.6,28.57,38.23,28.94,38Z"/><path class="cls-267" d="M30.83,33.18c.77,0,1.69-.23,1.89.94v.17a1.07,1.07,0,0,0-.55,1.12,2,2,0,0,1-1.35.61l-1.87.06a1.33,1.33,0,0,1-1.9,0c0-.31,0-.61,0-.92A5.32,5.32,0,0,0,30.83,33.18Z"/><path class="cls-268" d="M30.81,36c-.07-.7.28-1,1-1,.29-.2.53-.52.95-.42s.74,0,1.11,0c.53.07,1.12-.13,1.57.35.54,1,.48,1.23-.59,1.49-.52.13-.71.54-.95.93A.92.92,0,0,1,32.77,37C32,36.91,31,37.21,30.81,36Z"/><path class="cls-269" d="M32.77,37l.89,0a1.78,1.78,0,0,1,1.92-.32.52.52,0,0,1,.32.31,1.6,1.6,0,0,1,0,1.12,5.19,5.19,0,0,1-3.45,1.33c-.58-.17-1.35.27-1.72-.54l0-.89C31.53,37.86,32.52,38.19,32.77,37Z"/><path class="cls-270" d="M27,36.09h1.9c-.26,1.07-1.14.87-1.89.93Z"/><path class="cls-244" d="M28.94,38a.93.93,0,0,1-1,.91C27.94,38.2,28.26,37.9,28.94,38Z"/><path class="cls-201" d="M19.41,34.14v-.93c1.73-.07,1.84,0,1.86,1.9C20.43,35.21,20.19,34.15,19.41,34.14Z"/><path class="cls-271" d="M37.49,45.57c.28-1.31,1.36-.85,2.17-1l.67.05c.39.3.41.6,0,.89-1,.2-1.64,1.32-2.81,1l0-.09C37.06,46.15,37.14,45.86,37.49,45.57Z"/><path class="cls-261" d="M40.32,45.52c0-.3,0-.6,0-.89.55,0,.89.29.91.87Z"/><path class="cls-272" d="M37.49,45.57l0,.89c-.6,0-.88-.31-.92-.89Z"/><path class="cls-273" d="M48.93,35.11a2.41,2.41,0,0,1,2.44-1.93c.43,0,.86,0,1.29,0a1.93,1.93,0,0,1,.11.34c.08.5,1,.7.62,1.25A2.53,2.53,0,0,1,51.77,36h0a1.18,1.18,0,0,0-1.22-.47C50,35.5,49.35,35.68,48.93,35.11Z"/><path class="cls-274" d="M45.15,35.13a1.72,1.72,0,0,0-1.95,1.12c-.37.91-1.22.64-1.93.69-.63-.78-.59-1.27.26-1.43.37-.07.48-.3.72-.43,0-.55,0-1.09,0-1.63s.2-1.15,1-1.22c0,1.78.15,1.9,1.94,1.92h.93l0,.91Z"/><path class="cls-275" d="M43.28,31.33l1.84,0c-.25,1.09-1.13.91-1.91.94Z"/><path class="cls-274" d="M47,33.16a.94.94,0,0,1-.91,1A1,1,0,0,1,47,33.16Z"/><path class="cls-276" d="M48.93,35.11h1.86c.41.28.42.57.05.89l-1.91,0Z"/><path class="cls-277" d="M36.56,27.48l-1.94,0c0-.3.05-.61.07-.91a.94.94,0,0,0,.94-.94l.9-.06c1.14.2.9,1.11.95,1.88Z"/><path class="cls-278" d="M33.69,28.43l-.95-.06v-.89h.93Z"/><path class="cls-279" d="M38.47,33.16c0-.39-.11-.76-.55-.91s-.42-.58-.44-1h0a.56.56,0,0,1,1,0l1.85,0,1,.05c-.1,1.75-.11,1.77-2,1.9C39,33.52,38.73,33.75,38.47,33.16Z"/><path class="cls-280" d="M37.52,30.3l-.07-.89a1.65,1.65,0,0,1,2.19-.88c.29.13.49.33.25.63-.39.51-.65,1.21-1.47,1.22C38.09,30.72,37.79,30.69,37.52,30.3Z"/><path class="cls-281" d="M37.52,30.3l.9.08,0,.86-1,0C37.49,31,37.51,30.63,37.52,30.3Z"/><path class="cls-282" d="M38.47,33.16l.89.06c0,.28.08.66.35.7,1,.14,1.59,1,2.54,1.16,0,.8-.94,1.08-1,1.86-.58.07-1,.32-.94,1h0a9.48,9.48,0,0,1-.94,1h0a.73.73,0,0,1-.91.37c-.66,0-.54-.67-.52-1,0-.49-.14-.61-.54-.65s-.62-.23-1-.16-.58-.25-.8-.48l-.16,0c-.56-.82,0-1.14.64-1.42.46-.07,1,0,.91-.78,0-.32.31-.43.46-.65A1,1,0,0,1,38.47,33.16Z"/><path class="cls-283" d="M25.12,36l0-1,1,0C26.12,35.79,25.81,36.11,25.12,36Z"/><path class="cls-284" d="M33.76,29.34l-.09-.92a.48.48,0,0,1,.12,0c.53.1,1.47-.27,1.45.48S34.29,29.21,33.76,29.34Z"/><path class="cls-285" d="M37.5,34.12c0,.78.22,1.7-1,1.88-.42-.31-.36-.62,0-.93l.06-1Z"/><path class="cls-286" d="M33.65,35.08l-.95,0c-.41-.31-.32-.62,0-.93h.91l.12,0C34.09,34.49,34,34.8,33.65,35.08Z"/><path class="cls-287" d="M36.53,35.07V36a1.32,1.32,0,0,0-1,1H33.66a1,1,0,0,1,.77-.93,1.16,1.16,0,0,0,.94-.94c.05-.11.11-.13.2,0Z"/><path class="cls-288" d="M35.57,35.07l-.2,0-1.72,0,.09-.94C34.47,34.21,35.41,33.87,35.57,35.07Z"/><path class="cls-289" d="M39.59,43.7c-.63-.05-1.09-.29-1.16-1,0-.06,0-.11,0-.17a12,12,0,0,0,1-.77l.88-.06,1,.06.21,1C41.24,43.79,40.34,43.6,39.59,43.7Z"/><path class="cls-290" d="M58.47,41.78a.84.84,0,0,1-1,.91.94.94,0,0,0-.94-.94.93.93,0,0,1,1-.89C58.15,40.88,58.38,41.27,58.47,41.78Z"/><path class="cls-291" d="M57.49,42.7l0,1.88a.94.94,0,0,1,0-1.88Z"/><path class="cls-292" d="M38.43,42.71H36.54c-.66-.63-.55-1.21.25-1.49.38-.14.32-.51.6-.63.42-.32.76-.17,1,.21l0,1c.38.32.35.63,0,.92Z"/><path class="cls-293" d="M38.44,42.69c0-.31,0-.61,0-.92h1A.89.89,0,0,1,38.44,42.69Z"/><path class="cls-294" d="M39.39,38.88c0-.64.27-1,.94-1l0,1Z"/><path class="cls-295" d="M38.45,38.89h.93a1,1,0,0,1-.9,1,.38.38,0,0,1-.35-.23C38,39.31,37.86,39,38.45,38.89Z"/><path class="cls-296" d="M38.44,40.8l-.93,0-.2-.05a.82.82,0,0,1-.14-1,.47.47,0,0,1,.3-.28.75.75,0,0,1,.94.27l.07.11C38.47,40.2,38.46,40.5,38.44,40.8Z"/><path class="cls-297" d="M50.84,36c0-.29,0-.59-.05-.89a.9.9,0,0,1,1,.91Z"/><path class="cls-298" d="M37.51,40.84c0,.78-1.14,1-1,1.87h-1l.09-1.86c.56-.77,1.17-.61,1.81-.11Z"/><path class="cls-299" d="M37.45,40.73l-1.81.11-.94,0-.12,0c-.59-.91-.37-1.44.67-1.48.78,0,1.65-.24,2.24.56Z"/><path class="cls-300" d="M37.49,39.85l-1.74,0a1.05,1.05,0,0,0-1.17.9l-1.85,0h0c-.58-.64-.7-1.27,0-1.88,1-.18,1.62-1.3,2.77-1,.42-.21.64-.65,1-.87l.89,0a2.19,2.19,0,0,1,0,2.8Z"/><path class="cls-301" d="M32.76,38.91c0,.63,0,1.25,0,1.88l-.9,0c-.21-1.23-1.18-.86-1.95-.92,0-.57.26-1,.88-1Z"/><path class="cls-302" d="M32.71,34.11V35h-.94A1,1,0,0,1,32.71,34.11Z"/><path class="cls-303" d="M36.58,37a1,1,0,0,1-1,.87l.12-.91Z"/><path class="cls-303" d="M37.49,39.81c0-.93,0-1.87,0-2.8,1.2.17.89,1.13,1,1.88,0,.3,0,.6,0,.91Z"/></g></g></svg>