<svg xmlns="http://www.w3.org/2000/svg" viewBox="0 0 74 74"><defs><style>.cls-1{fill:#1e2223;}.cls-2{fill:#686853;}.cls-3{fill:#4b493f;}.cls-4{fill:#4c463b;}.cls-5{fill:#353933;}.cls-6{fill:#858168;}.cls-7{fill:#525343;}.cls-8{fill:#807f63;}.cls-9{fill:#070808;}.cls-10{fill:#181d1f;}.cls-11{fill:#08090a;}.cls-12{fill:#0a0909;}.cls-13{fill:#13181b;}.cls-14{fill:#16171a;}.cls-15{fill:#0d1717;}.cls-16{fill:#14232b;}.cls-17{fill:#14232a;}.cls-18{fill:#182b35;}.cls-19{fill:#192a35;}.cls-20{fill:#192a34;}.cls-21{fill:#132128;}.cls-22{fill:#172329;}.cls-23{fill:#14242c;}.cls-24{fill:#61513e;}.cls-25{fill:#45392b;}.cls-26{fill:#847351;}.cls-27{fill:#1c1d1b;}.cls-28{fill:#493e32;}.cls-29{fill:#413e36;}.cls-30{fill:#333635;}.cls-31{fill:#353737;}.cls-32{fill:#3a3730;}.cls-33{fill:#685d45;}.cls-34{fill:#927e59;}.cls-35{fill:#393831;}.cls-36{fill:#857653;}.cls-37{fill:#77684b;}.cls-38{fill:#888065;}.cls-39{fill:#70664c;}.cls-40{fill:#887d5f;}.cls-41{fill:#615442;}.cls-42{fill:#4b4539;}.cls-43{fill:#80785f;}.cls-44{fill:#423f37;}.cls-45{fill:#473f33;}.cls-46{fill:#6a5d4b;}.cls-47{fill:#685642;}.cls-48{fill:#4f4136;}.cls-49{fill:#131413;}.cls-50{fill:#4e4534;}.cls-51{fill:#493e2d;}.cls-52{fill:#635a42;}.cls-53{fill:#3b403a;}.cls-54{fill:#7c7c68;}.cls-55{fill:#716d58;}.cls-56{fill:#5a594d;}.cls-57{fill:#383c39;}.cls-58{fill:#575b51;}.cls-59{fill:#423d36;}.cls-60{fill:#727863;}.cls-61{fill:#4b4839;}.cls-62{fill:#55594f;}.cls-63{fill:#0c0b0b;}.cls-64{fill:#373d3d;}.cls-65{fill:#3e3d39;}.cls-66{fill:#171715;}.cls-67{fill:#172228;}.cls-68{fill:#131c20;}.cls-69{fill:#5c5442;}.cls-70{fill:#3f3d37;}.cls-71{fill:#403e37;}.cls-72{fill:#1d303a;}.cls-73{fill:#223a47;}.cls-74{fill:#544e44;}.cls-75{fill:#574e45;}.cls-76{fill:#73634e;}.cls-77{fill:#a48f61;}.cls-78{fill:#232a2b;}.cls-79{fill:#3d3a37;}.cls-80{fill:#5e5c4d;}.cls-81{fill:#504637;}.cls-82{fill:#4d453a;}.cls-83{fill:#706148;}.cls-84{fill:#3e3a36;}.cls-85{fill:#b89f6e;}.cls-86{fill:#c5c398;}.cls-87{fill:#c7c797;}.cls-88{fill:#27241d;}.cls-89{fill:#2a221e;}.cls-90{fill:#494134;}.cls-91{fill:#4f453b;}.cls-92{fill:#574c3d;}.cls-93{fill:#332e2a;}.cls-94{fill:#837255;}.cls-95{fill:#645c50;}.cls-96{fill:#282320;}.cls-97{fill:#201c1a;}.cls-98{fill:#2f2320;}.cls-99{fill:#4c4034;}.cls-100{fill:#1e1312;}.cls-101{fill:#312b20;}.cls-102{fill:#322c21;}.cls-103{fill:#4b3b33;}.cls-104{fill:#988156;}.cls-105{fill:#79684c;}.cls-106{fill:#978867;}.cls-107{fill:#74614a;}.cls-108{fill:#908060;}.cls-109{fill:#88744e;}.cls-110{fill:#897458;}.cls-111{fill:#908166;}.cls-112{fill:#756c50;}.cls-113{fill:#ac9463;}.cls-114{fill:#bba06e;}.cls-115{fill:#9b855e;}.cls-116{fill:#695a42;}.cls-117{fill:#21160d;}.cls-118{fill:#9d855b;}.cls-119{fill:#ab9d7c;}.cls-120{fill:#b29b6d;}.cls-121{fill:#b7ad86;}.cls-122{fill:#e3e5b3;}.cls-123{fill:#cab48b;}.cls-124{fill:#5d4e3d;}.cls-125{fill:#aa9165;}.cls-126{fill:#8b7754;}.cls-127{fill:#88785c;}.cls-128{fill:#a9956c;}.cls-129{fill:#827052;}.cls-130{fill:#85755a;}.cls-131{fill:#675844;}.cls-132{fill:#231a10;}.cls-133{fill:#928160;}.cls-134{fill:#2f2621;}.cls-135{fill:#5c5245;}.cls-136{fill:#675f45;}.cls-137{fill:#73634b;}.cls-138{fill:#090808;}.cls-139{fill:#342d22;}.cls-140{fill:#49433d;}.cls-141{fill:#393225;}.cls-142{fill:#8a795a;}.cls-143{fill:#191411;}.cls-144{fill:#434037;}.cls-145{fill:#645346;}.cls-146{fill:#4f3f36;}.cls-147{fill:#6b5d4a;}.cls-148{fill:#37322b;}.cls-149{fill:#352c21;}.cls-150{fill:#4c4032;}.cls-151{fill:#40312a;}.cls-152{fill:#6d5945;}.cls-153{fill:#88775a;}.cls-154{fill:#313231;}.cls-155{fill:#7e6c4e;}.cls-156{fill:#5b4f3d;}.cls-157{fill:#82704f;}.cls-158{fill:#887852;}.cls-159{fill:#30261e;}.cls-160{fill:#4a3e2e;}.cls-161{fill:#d1be94;}.cls-162{fill:#dbcba7;}.cls-163{fill:#d1bd94;}.cls-164{fill:#443d34;}.cls-165{fill:#a6997e;}.cls-166{fill:#7d6b5a;}.cls-167{fill:#7c725b;}.cls-168{fill:#7d7760;}.cls-169{fill:#837765;}.cls-170{fill:#4b443b;}.cls-171{fill:#595348;}.cls-172{fill:#d6c194;}.cls-173{fill:#ae9c74;}.cls-174{fill:#3a342d;}.cls-175{fill:#867763;}.cls-176{fill:#877e66;}.cls-177{fill:#867d65;}.cls-178{fill:#7c6c57;}.cls-179{fill:#847a61;}.cls-180{fill:#4a4238;}.cls-181{fill:#585044;}.cls-182{fill:#453830;}.cls-183{fill:#54463b;}.cls-184{fill:#655547;}.cls-185{fill:#776859;}.cls-186{fill:#807154;}.cls-187{fill:#b89b67;}.cls-188{fill:#54483a;}.cls-189{fill:#564837;}.cls-190{fill:#5b4c38;}.cls-191{fill:#665640;}.cls-192{fill:#a39167;}.cls-193{fill:#baa674;}.cls-194{fill:#d9c196;}.cls-195{fill:#b5a27c;}.cls-196{fill:#534436;}.cls-197{fill:#978868;}.cls-198{fill:#8d7955;}.cls-199{fill:#978058;}.cls-200{fill:#6b5b42;}.cls-201{fill:#dbbf84;}.cls-202{fill:#46382e;}.cls-203{fill:#504132;}.cls-204{fill:#7d745d;}.cls-205{fill:#4f4232;}.cls-206{fill:#6a604a;}.cls-207{fill:#6d5943;}.cls-208{fill:#383226;}.cls-209{fill:#695e47;}.cls-210{fill:#897958;}.cls-211{fill:#6f6247;}.cls-212{fill:#6c634d;}.cls-213{fill:#948261;}.cls-214{fill:#8e7f63;}.cls-215{fill:#40332d;}.cls-216{fill:#918163;}.cls-217{fill:#817358;}.cls-218{fill:#82795d;}.cls-219{fill:#786e55;}.cls-220{fill:#80755b;}.cls-221{fill:#3b3327;}.cls-222{fill:#493b30;}.cls-223{fill:#40302b;}.cls-224{fill:#7e6d5b;}.cls-225{fill:#4c4432;}.cls-226{fill:#c0b195;}.cls-227{fill:#1c1811;}.cls-228{fill:#312824;}.cls-229{fill:#1c1515;}.cls-230{fill:#322b23;}.cls-231{fill:#41362a;}.cls-232{fill:#1b1717;}.cls-233{fill:#4f4131;}.cls-234{fill:#322c29;}.cls-235{fill:#ceb27a;}.cls-236{fill:#ad9667;}.cls-237{fill:#ae9469;}.cls-238{fill:#7d6c4c;}.cls-239{fill:#857057;}.cls-240{fill:#504336;}.cls-241{fill:#75634c;}.cls-242{fill:#9c8a6b;}.cls-243{fill:#27211b;}.cls-244{fill:#332820;}.cls-245{fill:#aa966c;}.cls-246{fill:#5c4e34;}.cls-247{fill:#61553e;}.cls-248{fill:#a28e65;}.cls-249{fill:#75674b;}.cls-250{fill:#7d6f4f;}.cls-251{fill:#817353;}.cls-252{fill:#8f7456;}.cls-253{fill:#c1aa7a;}.cls-254{fill:#94896e;}.cls-255{fill:#705e45;}.cls-256{fill:#a79b7b;}.cls-257{fill:#ada07d;}.cls-258{fill:#af9e7c;}.cls-259{fill:#b9a884;}.cls-260{fill:#716146;}.cls-261{fill:#bfaa82;}.cls-262{fill:#a3997d;}.cls-263{fill:#40352a;}.cls-264{fill:#c1b18d;}.cls-265{fill:#90805f;}.cls-266{fill:#66523f;}.cls-267{fill:#d2c4a1;}.cls-268{fill:#b4a386;}.cls-269{fill:#a09170;}.cls-270{fill:#b2a384;}.cls-271{fill:#9e9072;}.cls-272{fill:#ac9b7b;}.cls-273{fill:#685c4e;}.cls-274{fill:#a99d7f;}.cls-275{fill:#b5aa89;}.cls-276{fill:#6a5a4d;}.cls-277{fill:#b6a281;}.cls-278{fill:#b1a085;}.cls-279{fill:#0f100d;}.cls-280{fill:#ae976b;}.cls-281{fill:#2a261d;}.cls-282{fill:#68593f;}.cls-283{fill:#3e352a;}.cls-284{fill:#968763;}.cls-285{fill:#b19a64;}.cls-286{fill:#685e44;}.cls-287{fill:#534b35;}.cls-288{fill:#5e573f;}.cls-289{fill:#62573f;}.cls-290{fill:#61573e;}.cls-291{fill:#464232;}.cls-292{fill:#846e51;}.cls-293{fill:#9e8a68;}.cls-294{fill:#bda674;}.cls-295{fill:#817153;}.cls-296{fill:#baa370;}.cls-297{fill:#d3b87e;}.cls-298{fill:#7b6b4d;}.cls-299{fill:#c7af7c;}.cls-300{fill:#867959;}.cls-301{fill:#71644c;}.cls-302{fill:#bea36f;}.cls-303{fill:#64503d;}.cls-304{fill:#6f5e4c;}.cls-305{fill:#7b6952;}.cls-306{fill:#494534;}.cls-307{fill:#4a4234;}.cls-308{fill:#403e2e;}.cls-309{fill:#b4a28a;}.cls-310{fill:#554a41;}.cls-311{fill:#54493f;}.cls-312{fill:#70634a;}.cls-313{fill:#403328;}.cls-314{fill:#362f24;}.cls-315{fill:#362e24;}.cls-316{fill:#807459;}.cls-317{fill:#655d47;}.cls-318{fill:#695c45;}.cls-319{fill:#6d5d47;}.cls-320{fill:#786951;}.cls-321{fill:#746452;}.cls-322{fill:#796c56;}.cls-323{fill:#6d5d49;}.cls-324{fill:#66584b;}.cls-325{fill:#3b3025;}.cls-326{fill:#8a745b;}.cls-327{fill:#937b55;}.cls-328{fill:#6d5a44;}.cls-329{fill:#352f22;}.cls-330{fill:#1e1914;}.cls-331{fill:#463b29;}.cls-332{fill:#443c35;}.cls-333{fill:#382823;}.cls-334{fill:#4f3f32;}.cls-335{fill:#625236;}.cls-336{fill:#927d59;}.cls-337{fill:#e8ca8e;}.cls-338{fill:#e5c790;}.cls-339{fill:#837153;}.cls-340{fill:#9b8d66;}.cls-341{fill:#615143;}.cls-342{fill:#7a6d55;}.cls-343{fill:#514a3c;}.cls-344{fill:#544539;}.cls-345{fill:#857c64;}.cls-346{fill:#655240;}.cls-347{fill:#837a62;}.cls-348{fill:#847b60;}.cls-349{fill:#8b8167;}.cls-350{fill:#5d5543;}.cls-351{fill:#7b6d5b;}.cls-352{fill:#675441;}.cls-353{fill:#5d4b3d;}.cls-354{fill:#5d4c3a;}.cls-355{fill:#ac9a76;}.cls-356{fill:#b4a585;}.cls-357{fill:#ab9b80;}.cls-358{fill:#b6ab8a;}.cls-359{fill:#2d2822;}.cls-360{fill:#6d5e45;}.cls-361{fill:#c1a974;}.cls-362{fill:#443a2a;}.cls-363{fill:#837452;}.cls-364{fill:#887854;}.cls-365{fill:#403128;}.cls-366{fill:#62523d;}.cls-367{fill:#575148;}.cls-368{fill:#7b6c59;}.cls-369{fill:#342a20;}.cls-370{fill:#856b55;}.cls-371{fill:#55483a;}.cls-372{fill:#957e63;}.cls-373{fill:#483e33;}.cls-374{fill:#b29e79;}.cls-375{fill:#716457;}.cls-376{fill:#7a6e5d;}.cls-377{fill:#938062;}.cls-378{fill:#887454;}.cls-379{fill:#413d3c;}.cls-380{fill:#644b3b;}.cls-381{fill:#463d2a;}.cls-382{fill:#695c40;}.cls-383{fill:#6b5240;}.cls-384{fill:#988966;}.cls-385{fill:#7a6c5b;}.cls-386{fill:#43352c;}</style></defs><title>전차</title><g id="레이어_2" data-name="레이어 2"><g id="레이어_1-2" data-name="레이어 1"><rect class="cls-1" width="74" height="74" rx="8.33" ry="8.33"/><path class="cls-2" d="M59.9,12.76A6,6,0,0,1,57,15.6a.69.69,0,0,1,0-1c.16-1.09,1-1.54,1.89-1.88A.7.7,0,0,1,59.9,12.76Z"/><path class="cls-3" d="M59.9,12.76l-1,0c.32-1.25,1.25-1.86,2.88-1.88h0c0,.39,0,.8-.45,1s-.44.58-.49.95Z"/><path class="cls-4" d="M61.76,10.85c0-1.7.3-2.15,1.35-1.89.37.09.67.47.42.62-.63.37-.82,1.38-1.78,1.27Z"/><path class="cls-5" d="M55.08,15.54c0-.68.36-.92,1-.88a.77.77,0,0,1,.17.94.71.71,0,0,1-.9.24A.57.57,0,0,1,55.08,15.54Z"/><path class="cls-6" d="M56.05,15.61v-.95l.93-.05v1l0,0a.66.66,0,0,1-.84.13Z"/><path class="cls-7" d="M54.13,16.49c-.09-.73.37-.9.95-.95l0,.1a.74.74,0,0,1,.18.93.69.69,0,0,1-.91.22A.51.51,0,0,1,54.13,16.49Z"/><path class="cls-8" d="M53.15,17.46c0-.29,0-.59.05-.89l.93-.08a.5.5,0,0,1,0,.12.74.74,0,0,1,.29.82.81.81,0,0,1-.21.3.82.82,0,0,1-.88,0A.57.57,0,0,1,53.15,17.46Z"/><path class="cls-9" d="M58,45.13c0,.95-.89,1.29-1.42,1.83a33.13,33.13,0,0,1-3.2,3.18c-.14.11-.11.44-.16.67-.3.34-.62.65-1,1h0c-.3.33-.62.65-.95.95h0c-.3.33-.63.65-1,1l0,0c-1.06.4-1.24.26-1.36-1,0-.3,0-.59,0-.89a1.82,1.82,0,0,1,.15-1c.78-.29.89-1.53,2-1.39,1-.23,1.29-1.17,2-1.7.25-.11.6-.19.58-.52-.05-1.35.83-2,1.84-2.59.31-.17.37-.62.76-.72a1.77,1.77,0,0,1,1.86.23A.82.82,0,0,1,58,45.13Z"/><path class="cls-10" d="M65.56,30.83c.63,0,1,.31.94,1-.1,1.08.19,2.12-.65,3.22a5.3,5.3,0,0,0-1.23,2.51c0,.64-.29,1-1,.94a.72.72,0,0,1-.46-.76c0-.94-.27-1.9.42-2.77.35-.44-.3-.82-.32-1.28a3.65,3.65,0,0,1-.11-1,4.27,4.27,0,0,1,0-1.13,1,1,0,0,1,1.3-1A1.27,1.27,0,0,1,65.56,30.83Z"/><path class="cls-11" d="M63.66,37.53v.92c.2.9-1.19,1-1,1.89-.28.35-.63.64-.92,1h0a12.18,12.18,0,0,0-.94,1l0,0a.73.73,0,0,1-1.19-.14,1.82,1.82,0,0,1,0-1.74,2,2,0,0,0,.76-1.84,3,3,0,0,1,.33-2.13,1.07,1.07,0,0,1,1-.21A6.72,6.72,0,0,1,63.66,37.53Z"/><path class="cls-12" d="M44.63,59.4a.85.85,0,0,1-1,1,.82.82,0,0,1-1,.17c-.75-1.3-.66-1.7.71-3,.93-.43.54-1.57,1.17-2.15a2,2,0,0,1,1-.22c.36,0,.71,0,1.07,0a1.25,1.25,0,0,1,1,.37.77.77,0,0,1-.14,1v0l-.95,1h0c-.32.32-.64.63-1,1h0C45.26,58.76,44.94,59.07,44.63,59.4Z"/><path class="cls-13" d="M47.47,56.52v-1a.79.79,0,0,1-.31-.82.87.87,0,0,1,.18-.31.9.9,0,0,0,.6-1,2.32,2.32,0,0,1,.3-.92.73.73,0,0,1,1.11-.06c0,.63.07,1.23.95,1.18A5.22,5.22,0,0,1,47.47,56.52Z"/><path class="cls-14" d="M42.71,60.34h1a2.36,2.36,0,0,1-1.91,1.89c-.6.12-.93.34-.94,1a.85.85,0,0,1-1.09.14,1.79,1.79,0,0,1-.18-1.91c.57-.71,1.5-.87,2.2-1.4A1,1,0,0,1,42.71,60.34Z"/><path class="cls-15" d="M59.84,42a1.63,1.63,0,0,0,1,.25A5.32,5.32,0,0,1,58,45.13c0-.33,0-.65,0-1-.9-1.25.38-1.67.9-2.38A.88.88,0,0,1,59.84,42Z"/><path class="cls-16" d="M46.53,57.49c0-.67.28-1,.95-1C47.51,57.2,47.19,57.52,46.53,57.49Z"/><path class="cls-17" d="M45.58,58.45c0-.67.28-1,1-1C46.56,58.15,46.24,58.47,45.58,58.45Z"/><path class="cls-18" d="M50.33,53.68c0-.67.28-1,1-1C51.32,53.39,51,53.71,50.33,53.68Z"/><path class="cls-19" d="M51.28,52.72c0-.67.28-1,.95-.95C52.27,52.44,52,52.76,51.28,52.72Z"/><path class="cls-20" d="M52.23,51.77c0-.67.29-1,1-1C53.22,51.49,52.91,51.81,52.23,51.77Z"/><path class="cls-21" d="M44.63,59.4c0-.67.28-1,.95-.95C45.61,59.11,45.29,59.43,44.63,59.4Z"/><path class="cls-22" d="M60.82,42.28c0-.69.26-1,.94-1C61.8,42,61.48,42.29,60.82,42.28Z"/><path class="cls-23" d="M61.77,41.32c-.05-.67.25-1,.92-1C62.76,41,62.44,41.34,61.77,41.32Z"/><path class="cls-24" d="M37.93,20.35c0-.66.29-1,1-1,.78-.72,1.73-.37,2.62-.43a.83.83,0,0,1,.61.47c.37.67.81.62,1.28.11a.58.58,0,0,1,.29-.17l.92.07a1,1,0,0,1,.47.69c0,.38,0,.76.52.82l.29,0a3.77,3.77,0,0,0,.58,0l.35,0a.86.86,0,0,1,.91.37A4.79,4.79,0,0,1,48,23.21a1.54,1.54,0,0,1-.2,1.05c-1.29.67-1.61.38-2.82-.2a13.49,13.49,0,0,0-3.24-1.45c-.34-.51-.7-.95-1.42-.85A13.2,13.2,0,0,1,37.93,20.35Z"/><path class="cls-25" d="M26.54,26.07h1a1.11,1.11,0,0,1,1-.39,1.28,1.28,0,0,1,1,.29.92.92,0,0,1,.16,1c-.13.33-.48.38-.73.56a.79.79,0,0,0-.37.91c.41,1.74.27,1.91-1.51,1.91-.38,0-.78-.19-.83-.54C26.05,28.54,25.7,27.25,26.54,26.07Z"/><path class="cls-26" d="M37.93,20.35c.79,0,1.66-.2,2.16.76.08.16.49.2.75.21a.84.84,0,0,1,.93.95.79.79,0,0,1-.84.46,3,3,0,0,1-3-.82,3.07,3.07,0,0,1-.92-.33.7.7,0,0,1-.26-.3.74.74,0,0,1,.31-.88Z"/><path class="cls-27" d="M26.54,26.07c0,.93,0,1.86,0,2.79,0,.64.2,1.06.92,1A.78.78,0,0,1,27.55,31a1.71,1.71,0,0,1-2.05,0,.83.83,0,0,1,.07-1.12c0-.93,0-1.86,0-2.79C25.58,26.44,25.85,26.07,26.54,26.07Z"/><path class="cls-28" d="M27.5,25.14c-.33-.05-.75,0-.84-.43s.34-.44.54-.65c.36-.36.55-.95,1.23-.86l.19.08a1.35,1.35,0,0,0,1,.43c1.13.14,1.29.48.85,1.58a1.48,1.48,0,0,1-1,.3c-.35,0-.7,0-1.05,0A1.08,1.08,0,0,1,27.5,25.14Z"/><path class="cls-29" d="M41.78,19.43l-2.9,0c.51-1.7,1.9-.76,2.88-.89.68-.08,1.78-.49,1.92.87v.1A1.22,1.22,0,0,1,41.78,19.43Z"/><path class="cls-30" d="M30.32,22.23c0-.69.42-.93,1.06-.91s1.23,0,1.84,0a.81.81,0,0,1,.14,1.05c-.52.57-1.22.24-1.83.34a1.53,1.53,0,0,1-1-.18A.62.62,0,0,1,30.32,22.23Z"/><path class="cls-31" d="M49.39,19.44c.07-1.45,1.18-.82,1.91-1a.82.82,0,0,1,.13,1.05,1,1,0,0,1-1,.32A1.2,1.2,0,0,1,49.39,19.44Z"/><path class="cls-32" d="M47.5,21.34l-.93-.05a.58.58,0,0,1-.08-.9l2,0a.73.73,0,0,1,0,1A.71.71,0,0,1,47.5,21.34Z"/><path class="cls-33" d="M33.17,22.23c0-.3,0-.6,0-.89h1.91a.8.8,0,0,1,.1,1.07c-.45.47-1,.32-1.52.2A.71.71,0,0,1,33.17,22.23Z"/><path class="cls-34" d="M35.08,22.24c0-.29,0-.59.05-.89l.9-.07a.71.71,0,0,1,1,0l0,.09c.32.47.29.94-.21,1.19A1.23,1.23,0,0,1,35.08,22.24Z"/><path class="cls-35" d="M28.43,23.2c.1-1.35,1.19-.78,1.89-1l0,.07a.72.72,0,0,1-.08,1.14,1.36,1.36,0,0,1-1.81-.15Z"/><path class="cls-36" d="M22.69,32.71c0-.3,0-.61,0-.91l.92-.05.17.14a.73.73,0,0,1-.15,1A.7.7,0,0,1,22.69,32.71Z"/><path class="cls-37" d="M23.66,31.75c-.08-.73.33-1,1-1l.17.14a.72.72,0,0,1-1.09.93Z"/><path class="cls-38" d="M52.17,18.44c0-.7.28-1,1-1l.08.1a.75.75,0,0,1,.26.83.73.73,0,0,1-.22.3.87.87,0,0,1-.88,0A.57.57,0,0,1,52.17,18.44Z"/><path class="cls-39" d="M27.5,25.14l1,0a.61.61,0,0,1,0,.89h-1Z"/><path class="cls-40" d="M48.4,21.27l.05-.9.89-.06a.61.61,0,0,1,.3.23.74.74,0,0,1-1,1A.53.53,0,0,1,48.4,21.27Z"/><path class="cls-41" d="M46.49,20.39c0,.3,0,.6.08.9l-.07.06a.65.65,0,0,1-.93,0h0a.67.67,0,0,1-.24-.78.56.56,0,0,1,.25-.23Z"/><path class="cls-42" d="M37,21.28H36c0-.71.36-1,1-.88C37,20.7,37,21,37,21.28Z"/><path class="cls-43" d="M49.39,19.44h1a.7.7,0,0,1,.07,1,.72.72,0,0,1-1,0l-.08-.1Z"/><path class="cls-44" d="M44.62,20.36c0-.31,0-.61,0-.92.65-.07,1,.19,1,.87l0,.11A.69.69,0,0,1,44.62,20.36Z"/><path class="cls-45" d="M25.57,29.89l0,.91a.63.63,0,0,1-1,.08v-.1C24.6,30.12,24.94,29.85,25.57,29.89Z"/><path class="cls-46" d="M51.27,19.38l0-.91.87,0,.12,0a.79.79,0,0,1,.18.93.74.74,0,0,1-.31.27A.69.69,0,0,1,51.27,19.38Z"/><path class="cls-47" d="M61.78,27l.91,0a.77.77,0,0,1,.29.88.71.71,0,0,1-.25.29,1.6,1.6,0,0,1-.91.22,5.26,5.26,0,0,0-.89.06c-.58-.06-.61.67-1.08.76a2.37,2.37,0,0,1-.91.13c-1.19.29-1.85-.95-2.92-1-.35-.36-.5-1-1.22-.86a1.43,1.43,0,0,1-.91-.44,1.15,1.15,0,0,1,0-1.08c.81-1.37,2-1.83,3.13-.86h0c.44.72,1.48.23,1.92.94h0c.37.6,1,.5,1.53.49A1.71,1.71,0,0,1,61.78,27Z"/><path class="cls-48" d="M57,25.13c-1.2-.4-1.88.72-2.86,1a.92.92,0,0,1-1,.27c-.51-.3-.87-.78-1.57-.83s-.79-.74-.76-1.35-.16-1.25.28-1.8l.17-.12,1,0c.16.17.4.3.43.54.1.79.59.93,1.27.87a1.25,1.25,0,0,1,1.17.47C55.79,24.35,56.91,23.73,57,25.13Z"/><path class="cls-49" d="M55.1,24.16l-.94,0c-1.89,0-1.89,0-1.93-1.9C53.13,23,54.6,22.83,55.1,24.16Z"/><path class="cls-50" d="M61.78,27c-.62,0-1.24,0-1.86,0s-1-.24-1-.94c.64,0,1.27,0,1.9,0A.85.85,0,0,1,61.78,27Z"/><path class="cls-51" d="M58.91,26.07c-.73-.13-1.81.45-1.92-.94C57.72,25.26,58.81,24.66,58.91,26.07Z"/><path class="cls-52" d="M63.68,27.93l1.85.08a.75.75,0,0,1,.11,1c-1.42.67-2,.47-2.23-.76A.72.72,0,0,1,63.68,27.93Z"/><path class="cls-53" d="M65.55,29c0-.31,0-.62,0-.94.61,0,1,.2,1,.85s-.2,1-.9,1.06l-.16-.1A.64.64,0,0,1,65.55,29Z"/><path class="cls-54" d="M55.09,16.57v-.93l.95,0h0a.71.71,0,0,1,0,1c0,.67-.29,1-1,1L55,17.43A.65.65,0,0,1,55.09,16.57Z"/><path class="cls-55" d="M51.35,21.35l-.09.91h0a.74.74,0,0,1-1,.1c-.47-.83-.28-1.29.73-1.27A.65.65,0,0,1,51.35,21.35Z"/><path class="cls-56" d="M52.31,20.38c0,.6-.28,1-1,1l-.1-.06a.78.78,0,0,1-.16-.95.76.76,0,0,1,.93-.25A.74.74,0,0,1,52.31,20.38Z"/><path class="cls-57" d="M53.2,19.49a.77.77,0,0,1-.89.89l-.11,0a.66.66,0,0,1,0-.94v0a.61.61,0,0,1,.77-.22A.46.46,0,0,1,53.2,19.49Z"/><path class="cls-58" d="M54.16,18.52c.06.7-.37.91-1,1l0-.11a.62.62,0,0,1,0-.91h0a.61.61,0,0,1,.77-.23A.48.48,0,0,1,54.16,18.52Z"/><path class="cls-59" d="M65.56,30.83h-1c-.28-1.08-.13-1.22.94-.95l.07.05C65.6,30.23,65.58,30.53,65.56,30.83Z"/><path class="cls-60" d="M55.12,17.55c.07.71-.3,1-1,1l0-.1a.63.63,0,0,1,0-.92v0a.63.63,0,0,1,.91-.06Z"/><path class="cls-61" d="M62.71,27.93c0-.29,0-.58,0-.87.66-.08,1,.19,1,.87a.56.56,0,0,1,0,.12A.61.61,0,0,1,62.71,27.93Z"/><path class="cls-62" d="M56.07,16.58l0-1,1,0C57.06,16.3,56.73,16.6,56.07,16.58Z"/><path class="cls-63" d="M39.88,63.22c0,.3,0,.61,0,.91h0c-.39.79-1.47.23-1.9,1H35.12a1,1,0,0,1-.45-.88,2.27,2.27,0,0,1,0-1c.29-.42,1-.54.86-1.27a1,1,0,0,1,.35-.89,1.35,1.35,0,0,1,1-.16c.57.54,1.09,1.24,1.86.17.22-.31.71-.23,1,.08,0,0,0,.1.07.16Z"/><path class="cls-64" d="M31.3,64.16l0-.93.1-.19a1.75,1.75,0,0,1,1.83-.16,2.16,2.16,0,0,1,1,1.27,1,1,0,0,1-.32.95c-.71,0-1.44.11-1.86-.7C31.92,64.14,31.57,64.18,31.3,64.16Z"/><path class="cls-65" d="M33.92,65.1v-.91a.72.72,0,0,1,1.16-.06c0,.32,0,.64,0,1Z"/><path class="cls-66" d="M21.81,57.45l0-.91a1.92,1.92,0,0,1-.42-.75c.05-.66-.71-.63-.92-1.07-.14-.8.28-1.17,1-1.32.31-.06.62-.07.94-.11,1.35-.19,1.74.18,1.72,1.6,1.2-.49,1.79-.29,2,.69.26,1.28.26,1.28,1.42.62a1.33,1.33,0,0,1,1.43.24,2.16,2.16,0,0,0,1.64.54c1.82,0,1.85.06,2,1.23a1,1,0,0,1-1,.7,1.06,1.06,0,0,0-1,.63,1.27,1.27,0,0,1-.36.2c-.56.17-1.11.27-1.54-.29l-.21-.06c-.41-.58-1.1-.65-1.68-.93H25.6a2.27,2.27,0,0,1-2.87,0h0A7.27,7.27,0,0,1,21.81,57.45Z"/><path class="cls-67" d="M19.88,55.6c-.62,0-1.24,0-1.85,0s-1-.25-1-.94c.15-.31.47-.39.74-.53,1,0,2-.39,2.84.49.67,0,1.25.1,1.2,1a.68.68,0,0,1-1,0Z"/><path class="cls-68" d="M17.74,54.62l-.74,0c-.27,0-.62,0-.75-.27-.42-.85-1.15-.7-1.85-.67l-.23,0a.81.81,0,0,1-.17-1,2.32,2.32,0,0,1,2.73-.17A1.92,1.92,0,0,1,17.74,54.62Z"/><path class="cls-69" d="M9.47,51.76l-.06-.94c.22-.41.62-.43,1-.44,1,.07,2-.3,2.88.36a.89.89,0,0,1,0,1.15,1.48,1.48,0,0,1-2-.08Z"/><path class="cls-70" d="M28.66,59.45l1.67-.06a.77.77,0,0,1,.21,1.21c-.38.51-.57,1.12-1,1.59l-.17.08c-.92,0-.95-.63-.94-1.31A3.7,3.7,0,0,1,28.66,59.45Z"/><path class="cls-71" d="M11.28,51.81l1.9,0a.7.7,0,0,1,.13,1,.76.76,0,0,1-1.05,0A.84.84,0,0,1,11.28,51.81Z"/><path class="cls-64" d="M31.27,63.23c-.71-.16-1.78.39-1.89-1l.05-.07A1.33,1.33,0,0,1,31.14,62a.76.76,0,0,1,.2,1.21Z"/><path class="cls-72" d="M21.81,57.45a.83.83,0,0,1,.93,1h-1Z"/><path class="cls-73" d="M20.83,55.59h1c0,.32,0,.63,0,.95A1.16,1.16,0,0,1,20.83,55.59Z"/><path class="cls-74" d="M10.32,41.53a3.64,3.64,0,0,0,1.1-.81c.94-1.18,2.39-1.61,3.68-2.28a9.3,9.3,0,0,1,2.4,1.78,2.18,2.18,0,0,0,1.5.58c1.1,0,1.45.56,1.36,1.56a3.72,3.72,0,0,1-.16,1.81,4,4,0,0,1-1.33,1.29,12.35,12.35,0,0,1-2.72.14,5.87,5.87,0,0,1-1.87,0c-.5-.2-.55-1.05-1.3-.89a1.16,1.16,0,0,1-.89-.29,2.23,2.23,0,0,1-.32-.87c0-1.06-1-.63-1.47-1a.78.78,0,0,1-.21-.3A.62.62,0,0,1,10.32,41.53Z"/><path class="cls-75" d="M17,37.5c-.22-.91,1.18-1,1-1.89a.77.77,0,0,1,.77-.5,1,1,0,0,0,.86-.48,1.36,1.36,0,0,1,1.27-.45h1a1.5,1.5,0,0,1,1,.3c.32,1.37,1.23,2.54,1.32,4A3.83,3.83,0,0,1,24,40.25c-.2.66-.74,1.15-.93,1.81a.89.89,0,0,1-1.19.52.9.9,0,0,1-.34-.2,2.19,2.19,0,0,0-2.24-1.56c-.66,0-2.54-1.85-2.65-2.48A.9.9,0,0,1,17,37.5Z"/><path class="cls-76" d="M17,37.5c.26,1,2.09,2.78,2.9,2.84,1.84.14,1.84.14,1.86,1.93a1.17,1.17,0,0,1-1.91,0c0-1-.71-1-1.39-1a4.74,4.74,0,0,1-3.38-2.86h0c.36-.27.63-.65,1-.9Z"/><path class="cls-77" d="M22.74,34.66l-.93,0a1,1,0,0,1-.39-.93,1,1,0,0,1,.38-.93l.89,0,1,0,.16.11a.76.76,0,0,1,.11.87c-.28.39-.86.4-1.06.87Z"/><path class="cls-78" d="M9.64,45.08a4,4,0,0,1,0-2.84.44.44,0,0,1,.67,0h.09a1.21,1.21,0,0,1,.4,1c0,.65.2,1.34-.34,1.89A.58.58,0,0,1,9.64,45.08Z"/><path class="cls-79" d="M21.8,32.75l0,.92a.61.61,0,0,1-.76.25.54.54,0,0,1-.22-.25l0-.93Z"/><path class="cls-80" d="M8.48,47.05l0-1L9.38,46l.17.14a.73.73,0,0,1-.07,1A.75.75,0,0,1,8.48,47.05Z"/><path class="cls-81" d="M9.64,45.08l.71,0,.16.14a.72.72,0,0,1-.11,1,.76.76,0,0,1-1-.11l0-.1A1.53,1.53,0,0,1,9.64,45.08Z"/><path class="cls-82" d="M16.1,37.53c0,.66-.33,1-1,.9C15.08,37.74,15.42,37.45,16.1,37.53Z"/><path class="cls-83" d="M10.37,50.81h-1l-.89,0A2.33,2.33,0,0,1,8.38,48h.1a.78.78,0,0,1,.93-.21c.69.54.26,1.71,1.17,2.12A.77.77,0,0,1,10.37,50.81Z"/><path class="cls-84" d="M8.38,48c0,.94.09,1.89.14,2.83-.78.08-1.07-.35-1-1S7.13,48.08,8.38,48Z"/><path class="cls-85" d="M9.42,48l-.94,0v-.91l.9-.06a.8.8,0,0,1,1.06-.06.82.82,0,0,1,0,1.07A.73.73,0,0,1,9.42,48Z"/><path class="cls-86" d="M55.05,17.46l-.91.06v-.91l.94,0Z"/><path class="cls-87" d="M54.15,17.5l0,.92-.93.06,0-.92Z"/><path class="cls-88" d="M56.05,44.14c.14.9-.78,1.11-1.16,1.66s-.78.82-.76,1.49-.39.71-.88.71c-1.2,0-1.35,1.15-1.92,1.83-.38,0-.8,0-1,.49s-.53.52-.94.53c-.71-.34-.46-1-.51-1.55,0-.4.06-.79,0-1.19a3.09,3.09,0,0,1,.08-1c.74-.73,1.47-1.48,2.26-2.18a1.5,1.5,0,0,1,.9-.23c.65,0,1.27,0,1.69-.66.26-.42.78-.29,1.2-.28A1.08,1.08,0,0,1,56,44Z"/><path class="cls-89" d="M49.35,52.48l-.93.26a6.11,6.11,0,0,0-2.83,2.83l-1,0a8.94,8.94,0,0,1-1.27-1,1,1,0,0,1,0-.9c.27-.46.94-.55,1.07-1.14a2.67,2.67,0,0,0,1.08-1.08c.63-.43.87-1.5,2-1.17,1.19-.31,1.34.79,1.86,1.38Z"/><path class="cls-90" d="M58.91,42c0,.48.05,1-.6,1.23-.42.13-.33.55-.36.89h-1.9v0a1,1,0,0,1-.28-1.06c.2-.5.53-.94.72-1.46A1.59,1.59,0,0,1,58.67,41,.67.67,0,0,1,58.91,42Z"/><path class="cls-91" d="M49.34,51.74c-.35,0-.71,0-.87-.41s-.61-.51-1-.54a.76.76,0,0,1-.28-.82.87.87,0,0,1,.18-.31c.57-.2.64-.66.62-1.17.23-.8.68-1,1.41-.55,0,1,0,1.94.05,2.91C49.39,51.15,49.37,51.44,49.34,51.74Z"/><path class="cls-92" d="M51.33,49.83c-.06-.86-.2-1.72.82-2.22.22-.1.26-.6.67-.49s.37.55.43.88A2.33,2.33,0,0,1,51.33,49.83Z"/><path class="cls-93" d="M63.66,37.53c-.71-.19-1.83.46-1.93-1a1.18,1.18,0,0,1-.4-.93,1.53,1.53,0,0,1,.17-1,9.6,9.6,0,0,0,1.25-1.22.8.8,0,0,1,.92.24c.89.26,1.33,1.14.7,1.65C63.58,36,63.69,36.74,63.66,37.53Z"/><path class="cls-94" d="M62.71,27.93l.93.12c.14,1.36,1.23.7,1.91.9,0,.31,0,.61,0,.92-.67,0-1,.28-.94.95-1.59,0-.65,1.27-1,1.91a.8.8,0,0,1-1,.17,1,1,0,0,1-.37-1c0-.36,0-.72,0-1.07A6.58,6.58,0,0,1,62.27,29,1,1,0,0,1,62.7,28Z"/><path class="cls-95" d="M62.76,32.74h.88l0,1-.9.08a.46.46,0,0,1-.28-.23A.57.57,0,0,1,62.76,32.74Z"/><path class="cls-96" d="M58.91,42c-.1-.68-.6-.72-1.15-.71s-.76.47-.77,1a.82.82,0,0,1-1,.92,1.07,1.07,0,0,1-.94.43,1.3,1.3,0,0,1-1-.17,1,1,0,0,1-.27-1,1.11,1.11,0,0,1,.13-.36c.27-.29.8-.32.86-.83a.73.73,0,0,1,.2-.26,1,1,0,0,0,.77-.75.66.66,0,0,1,.23-.24,1.09,1.09,0,0,0,.79-.79,1,1,0,0,1,.29-.2,2,2,0,0,1,.9-.14c1.1-.3,1.34.69,1.85,1.26l.07.17c0,.55,0,1.09,0,1.64Z"/><path class="cls-97" d="M60.85,36.6c0,.9,0,1.8,0,2.7,0,.64-.21,1.07-.93,1.07l-.06,0c-.82-.81-.35-1.82-.43-2.74a1.7,1.7,0,0,1,.23-1,.78.78,0,0,1,1-.27A.61.61,0,0,1,60.85,36.6Z"/><path class="cls-97" d="M61.76,35.58l0,1-.88,0-.06-.07a.7.7,0,0,1,0-1A.73.73,0,0,1,61.76,35.58Z"/><path class="cls-98" d="M42.71,60.34l-.93,0c-.74-.28-1.6-.26-2.19-.92a1.08,1.08,0,0,1,0-1,13.09,13.09,0,0,0,1.3-1.28,3.37,3.37,0,0,1,2.66.1,2.14,2.14,0,0,0,.13.19C43.49,58.49,42.32,59.15,42.71,60.34Z"/><path class="cls-99" d="M45.59,55.57c0-2.1.71-2.85,2.83-2.83,0,.3,0,.61,0,.92a7,7,0,0,1-.93,1h0a8.52,8.52,0,0,1-1,.94Z"/><path class="cls-100" d="M43.71,54.64c.68,0,.93.34.92,1,0,.79.08,1.62-.94,1.89l-.09,0c-.57-.54-.35-1.24-.37-1.89C43.23,55.19,43.29,54.82,43.71,54.64Z"/><path class="cls-101" d="M46.51,55.56a.82.82,0,0,1,1-.94v.94Z"/><path class="cls-102" d="M47.47,54.62a.83.83,0,0,1,.93-1Q48.49,54.68,47.47,54.62Z"/><path class="cls-103" d="M39.84,59.39c.72.18,1.88-.53,1.94,1-.11,1.37-1.2.82-1.93,1v0c-.28-.52-1.11-.38-1.27-1a.9.9,0,0,1,.24-1A.76.76,0,0,1,39.84,59.39Z"/><path class="cls-104" d="M40.8,22.29l1,0a7.71,7.71,0,0,1,2.12.63c1.15.46,2.14,1.62,3.59,1.3.46,0,.74.57,1.26.44a1.82,1.82,0,0,1,.9.38c.28.31.21.68.23,1,.1,1.08.16,2.12-.91,2.86a1.45,1.45,0,0,1-1.4.36c-.66-1.22-2-.6-2.91-1a.69.69,0,0,1-.29-.27,1.21,1.21,0,0,1-.08-.93c.59-1.3.32-1.88-1.09-2.35-.26-.08-.51-.17-.76-.27a8.63,8.63,0,0,0-1.21-.7C40.5,23.44,40.26,23,40.8,22.29Z"/><path class="cls-105" d="M41.78,19.43l1.89,0c0,.88-.6,1-1.22,1C41.67,20.55,41.82,19.91,41.78,19.43Z"/><path class="cls-106" d="M47.5,21.34l.9-.07.07.11a1.31,1.31,0,0,1,.09,1.9.77.77,0,0,1-1.07-.07Z"/><path class="cls-107" d="M47.49,23.21l1,0,.18.14a1.28,1.28,0,0,1-.21,1.8c-.68.06-1-.28-1-.93Z"/><path class="cls-108" d="M45.57,21.31l.93,0c0,.35.1.79-.41.82S45.61,21.68,45.57,21.31Z"/><path class="cls-109" d="M44.62,20.36l1,.06v.9C44.89,21.37,44.57,21,44.62,20.36Z"/><path class="cls-110" d="M27.48,30.8v-.91c.29-.08.68,0,.82-.33s-.21-.5-.47-.67c-.49-.33-.3-.85-.26-1.3s.51-.52.89-.55.63,0,.94,0l.18.09a1,1,0,0,1,.28.87c0,.32,0,.63,0,.94a3.47,3.47,0,0,0,.09.91c.3.7,1.3,1.24.51,2.19-.62.31-1.36.3-1.87.94-.32.39-.87.2-1.27-.14a1.36,1.36,0,0,1-.25-1A1.17,1.17,0,0,1,27.48,30.8Z"/><path class="cls-111" d="M28.46,26.05v-.89l.93,0a.63.63,0,0,1,.14.83l-.14.12Z"/><path class="cls-112" d="M29.39,27v-1h0a.76.76,0,0,1,1.05,0,.8.8,0,0,1,0,1.07A.78.78,0,0,1,29.38,27Z"/><path class="cls-113" d="M40.8,22.29c0,.51.2.91.79.92s.94.43,1.13,1a3.79,3.79,0,0,1-.24,3,1.27,1.27,0,0,1-1.5.22c-1-.66-1.68-1.76-3-1.91-.53-.06-.56-1-1.15-1.22a1,1,0,0,1,.33-1.53c.48-.32.3-1.06.84-1.34.26,0,.62-.09.75.16C39.17,22.46,40,22.22,40.8,22.29Z"/><path class="cls-114" d="M38,21.36c.45,1.19-.74,1.8-1,2.76l-.09.17a.74.74,0,0,1-.9.1c-.45-.84-1.31-.66-2-.81a.69.69,0,0,1-.26-1.26l1.38-.08c.74-.09,1.77.46,2-.87Z"/><path class="cls-115" d="M27.48,30.8l0,1a1,1,0,0,1-.87.41,2.77,2.77,0,0,1-1.75-.19.59.59,0,0,1-.21-.33l0-.84,1-.08Z"/><path class="cls-116" d="M33.7,23.18l.45.05a.85.85,0,0,1,.25,1c-.34.66-1,.49-1.5.47s-1.14,0-1.48.61a.77.77,0,0,1-1,0l-.12-.16a.81.81,0,0,0-.91-1c-.58,0-1-.2-1-.89.7-.2,1.78.32,1.89-1h1a1.27,1.27,0,0,0,1.18.43A1.46,1.46,0,0,1,33.7,23.18Z"/><path class="cls-117" d="M30.35,26.09h-1c0-.31,0-.63,0-.95h.95a.65.65,0,0,1,.15.84Z"/><path class="cls-118" d="M33.7,23.18l-1.49,0c-.63,0-.94-.27-.88-.91l1.84-.08.53.09Z"/><path class="cls-119" d="M52.25,19.41l0,.94-.91,0c-.34.25-.66.31-1,0l0-.88.92-.07Z"/><path class="cls-120" d="M23.71,31.85l.91-.13,0,.11a.68.68,0,0,1,0,1,.73.73,0,0,1-1-.08h0Z"/><path class="cls-121" d="M53.21,18.47l0,.91-.93.05c0-.32,0-.64,0-.95Z"/><path class="cls-122" d="M50.32,20.33l1,0,0,.92c-.77-.1-1,.29-.91,1l-.14.16a.71.71,0,0,1-1-.15.81.81,0,0,1,.14-1l.06-.89Z"/><path class="cls-123" d="M49.36,21.3l0,1a.76.76,0,0,1,.23.9.69.69,0,0,1-.28.28.79.79,0,0,1-.91-.22l0-.06V21.38Z"/><path class="cls-124" d="M62.71,28.94v1.92c-.31.66-1.31.18-1.57.93a.85.85,0,0,1-.21.25c-.37.13-.7.28-.77.73A.91.91,0,0,1,60,33a.89.89,0,0,0-.75.72A.81.81,0,0,1,59,34a.9.9,0,0,0-.75.72.66.66,0,0,1-.21.23.9.9,0,0,0-.74.72.58.58,0,0,1-.21.23c-.48.08-.67.45-.86.83-.36.23-.78.39-.86.89a.8.8,0,0,1-.26.22c-.58,0-.58.73-1,.94a1.94,1.94,0,0,1-1,.16,1.21,1.21,0,0,1-1-.27,1,1,0,0,1-.18-1,8.24,8.24,0,0,1,3.12-3l.16-.16-.14.14-.25.24a1.59,1.59,0,0,1-1.76-.07,1.66,1.66,0,0,1-.32-1,2.49,2.49,0,0,1,.09-1A4.93,4.93,0,0,0,54,31.53a3,3,0,0,1,.88-.23.8.8,0,0,0,.92-.56.75.75,0,0,1,.26-.21c.59-.35,1.22,0,1.84-.1.79-.08,1.53-.08,1.64-1.13,0-.13.2-.23.31-.34,0-.63.26-1,.93-1a1.36,1.36,0,0,0,1.2.51C62.31,28.49,62.5,28.74,62.71,28.94Z"/><path class="cls-125" d="M54.15,27l.91,0c.39.24.63.63,1,.88.79.09,1.72-.19,2.16.86,0,.12.42.1.65.14.35,1,.2,1.28-.77,1.41a6.75,6.75,0,0,1-1.74,0,4.89,4.89,0,0,0-1.62.06,2.17,2.17,0,0,1-1.86-.46.94.94,0,0,1,0-.88c.2-.47.94-.6.79-1.28A.7.7,0,0,1,54.15,27Z"/><path class="cls-126" d="M56.07,29.87l1.9,0c.64,0,1-.29.92-.95h1c.07,1,.08,2-1.41,2a.54.54,0,0,0-.37.25c-.41.69-.77.7-1.16,0-.18-.32-.54-.27-.84-.35A.58.58,0,0,1,56.07,29.87Z"/><path class="cls-127" d="M54.15,27l0,1a.76.76,0,0,1-1,.08A1.27,1.27,0,0,1,52.77,27a.94.94,0,0,1,.42-1l.94,0C54.13,26.4,54.14,26.72,54.15,27Z"/><path class="cls-128" d="M62.71,28.94l-.93,0a.6.6,0,0,1,0-.91l.92,0Z"/><path class="cls-129" d="M61.78,28v.91c-.69.08-1-.27-1-.93Z"/><path class="cls-130" d="M56.08,28c-.66.07-1-.21-1-.88C55.72,27,56.07,27.27,56.08,28Z"/><path class="cls-131" d="M53.19,26.06l0,1A.8.8,0,0,1,51.84,27a1,1,0,0,0-.81-.36c-.6,0-1.23,0-1.62-.61l0-.88a.87.87,0,0,1-.08-1.12,1.4,1.4,0,0,1,2,.1c0,.69.34,1,1,1S53.21,25.44,53.19,26.06Z"/><path class="cls-132" d="M51.28,24.15H49.39a.62.62,0,0,1,0-.93l0,0c.34-.3.64-.63,1-.94h0l.95,0Z"/><path class="cls-133" d="M35.07,64.13l-1.16.06c-.65,0-.75-.43-.74-.95a.88.88,0,0,1,.13-1.46,1,1,0,0,0,.33-.7c.06-.35.07-.71.39-.95a1.87,1.87,0,0,1,1.09-.22,1.3,1.3,0,0,1,1.06.35.83.83,0,0,1-.08,1.07l-.07.9c-.26.37-.64.63-.89,1Z"/><path class="cls-134" d="M38.89,60.33c.68,0,1,.3,1,1a1.23,1.23,0,0,0-1,.57c-.64.74-1.51.46-1.83-.54.16-.56.69-.82,1-1.24A.76.76,0,0,1,38.89,60.33Z"/><path class="cls-135" d="M38,60.42c0,.73-.42.88-1,.91h-.9v-1l.09-.18a1.32,1.32,0,0,1,1.61-.08A.54.54,0,0,1,38,60.42Z"/><path class="cls-136" d="M35.13,63.24c-.05-.65.18-1,.89-1C36.17,63,35.87,63.3,35.13,63.24Z"/><path class="cls-137" d="M34.12,61.26c.25.93-1.14,1.08-.95,2l-1.83-.08c-.13-1.32-1.2-.78-1.91-1,0-.81-.22-1.66.75-2.15.13-.06.1-.43.15-.66v0a1.5,1.5,0,0,1,1.72-.32A6,6,0,0,1,34.12,61.26Z"/><path class="cls-138" d="M14.15,52.74l-.92,0c0-.32,0-.64-.05-.95s0-.64,0-1l.07-.16c.7-.59.34-1.4.45-2.12.3-1.21,1.25-1.08,2.16-1.05A5.61,5.61,0,0,0,18,47.17c.53,0,1,.34,1.49.37s.83.48.88,1c-.05,1.06.87.81,1.43,1a.69.69,0,0,1,.24.24,3.38,3.38,0,0,1,.25.82c.19.73.52.88,1,.23.16-.23.29-.46.59-.54.84.06,1.9-.4,2.17,1,0,.9.76,1.68.37,2.65-.06.16.32.29.48.47a3.25,3.25,0,0,0,.67.81.83.83,0,0,1-.07,1.26c-.25.86-1.92,1.39-2.52.78-.35-.34-.07-.55.19-.75a.83.83,0,0,0,.23-1.24c-.42-.52-.74.1-1.09.26a1.67,1.67,0,0,0-.54.45c-.24.26-.45.65-.84.27s-.17-.66,0-1,.36-.42.49-.66c.23-.45.1-.89-.41-.83-.86.09-1.86-.13-2.47.79H17.74C16.94,53.25,15.9,52.32,14.15,52.74Z"/><path class="cls-139" d="M34.12,61.26a2.5,2.5,0,0,1-1.92-1.82,2.83,2.83,0,0,1,0-.29,2.6,2.6,0,0,0,0-.56v-.14c-.07-1.45-1.22-.79-1.93-1a1.43,1.43,0,0,1-.23-1.86,1,1,0,0,1,1.44-.25,4.77,4.77,0,0,0,2.7.76c.83,0,1.1.63,1.26,1.32a5.65,5.65,0,0,1,0,1.88c-.28.55-1.06.49-1.33,1.07Z"/><path class="cls-140" d="M30.33,55.6c0,.62,0,1.24,0,1.86-.77,0-1.63.31-2.08-.71-.07-.16-.48-.17-.73-.24-.05-.37,0-.81-.49-.94s-.43-.56-.52-.92a.74.74,0,0,1,0-1.13,1,1,0,0,1,1.28,0c.24.18.44.43.68.62s.37,1.08,1.12,1A.7.7,0,0,1,30.33,55.6Z"/><path class="cls-141" d="M32.2,59.44l-1.87-.07c.1-1.43,1.22-.73,1.92-.92h0a.64.64,0,0,1,0,.92Z"/><path class="cls-142" d="M10.37,50.81l-.07-1,.12-.17a1.22,1.22,0,0,1,.94-.26c.34,0,.69,0,1,0a1.22,1.22,0,0,1,1,.39.81.81,0,0,1-.15,1l0,0Z"/><path class="cls-143" d="M16.09,48c-.71.18-1.83-.45-1.92,1a.8.8,0,0,1-.91.27.72.72,0,0,1-.3-.25,1.2,1.2,0,0,1-.13-.91c.08-.78-.24-1.33-1-1.39-1-.07-.84-1.13-1.44-1.5h0c0-.64,0-1.29,0-1.93a.83.83,0,0,1,.87-.27c.53.26.53,1,1,1.23l.89.06a10.71,10.71,0,0,1,1,.89l1.83,0c.34.45,1.06.33,1.31.91C17.86,47.31,16.59,47.38,16.09,48Z"/><path class="cls-144" d="M17,46.09a.85.85,0,0,1-1-.94l2.9,0a3.34,3.34,0,0,1,1.28,1.08,1.06,1.06,0,0,1-.17,1c-.6.52-1.22.14-1.83,0C17.42,47.25,17.53,46.34,17,46.09Z"/><path class="cls-145" d="M19.8,46.07c-.67,0-.9-.34-.89-.94s.29-1,1-1c.51-.66,1.22-.49,1.9-.46a1.57,1.57,0,0,1,1.08.34A1,1,0,0,1,23,45.12a.89.89,0,0,1-.88.47c-.67.1-1.41-.27-2,.35A.56.56,0,0,1,19.8,46.07Z"/><path class="cls-146" d="M21.79,44.16H19.88c0-.63,0-1.26,0-1.89h1.9A1.17,1.17,0,0,1,21.79,44.16Z"/><path class="cls-147" d="M11.29,43.25l-.93-.06c0-.31,0-.62,0-.93.71.15,1.83-.45,1.85,1A.71.71,0,0,1,11.29,43.25Z"/><path class="cls-148" d="M14.18,45.1a.81.81,0,0,1-1-.89C13.84,44.13,14.19,44.41,14.18,45.1Z"/><path class="cls-149" d="M11.29,43.25h1l0,.9C11.64,44.19,11.28,43.92,11.29,43.25Z"/><path class="cls-150" d="M23.69,38.46c0-.16,0-.39-.08-.46-1.15-.89-.86-2.15-.87-3.34l0,0a1,1,0,0,1,.79-.34c.75.21.61-.7,1.07-.87a1.21,1.21,0,0,1,.86-.06.94.94,0,0,1,.32.15c.21.4.42.81.91,1a2,2,0,0,0,1,1c.21.41.48.72,1,.64a1.39,1.39,0,0,1,.87.18c.14.62.87.71,1.12,1.25a1.11,1.11,0,0,1-.07,1c-.71.51-.91,1.72-2.13,1.53a5.35,5.35,0,0,1-1.87-.25C25.87,38.76,24.57,39.07,23.69,38.46Z"/><path class="cls-151" d="M23.69,38.46c.19,0,.38-.06.57-.11.43-.1.54-1.09,1-.63s1.34.76,1.25,1.68a.79.79,0,0,1,0,1.11c-1,.37-2,.66-2.87-.16Z"/><path class="cls-152" d="M23.7,40.35l2.83,0a.75.75,0,0,1,.26.94.73.73,0,0,1-.74.44,1.6,1.6,0,0,0-1.41.75c-.87.43-1.54.3-1.9-.69C22.72,41.1,22.64,40.35,23.7,40.35Z"/><path class="cls-153" d="M22.74,41.81a2.45,2.45,0,0,0,1.84.4.61.61,0,0,1,.3.23.78.78,0,0,1,0,.9c-.65.41-1.47.41-2.11.84l-.94,0c0-.63,0-1.27,0-1.9C22.16,42.26,22.57,42.28,22.74,41.81Z"/><path class="cls-154" d="M18.9,35.56a2.45,2.45,0,0,1,1.88-1.89l.08,0a.67.67,0,0,1,0,.94C20,34.42,19.81,35.81,18.9,35.56Z"/><path class="cls-155" d="M20.84,34.65c0-.31,0-.63,0-.94l.9,0c0,.31,0,.63,0,.94Z"/><path class="cls-156" d="M24.64,33.66c0,.35,0,.7,0,1s0,.78-.49.77-.42-.47-.45-.8a.73.73,0,0,1,0-1l0-.94h1l.14.11A.61.61,0,0,1,24.64,33.66Z"/><path class="cls-157" d="M23.66,33.68l0,1-1-.05C22.68,34,23,33.68,23.66,33.68Z"/><path class="cls-158" d="M10.32,47l-.94,0c0-.29,0-.59,0-.88l.91,0A.58.58,0,0,1,10.32,47Z"/><path class="cls-159" d="M10.32,47v-.95l0-1c1,.66,2.23.87,3.15,1.75.77.75.41.91-.31,1.1a1,1,0,0,1-.85.44,8,8,0,0,1-1,0,1.05,1.05,0,0,1-.91-.28L10.36,48Z"/><path class="cls-160" d="M9.42,48l.94,0v0a1.2,1.2,0,0,1,0,1.92l-.06,0C8.86,49.78,9.6,48.67,9.42,48Z"/><path class="cls-161" d="M52.21,45.1l-.91,0-.16-.06a1.8,1.8,0,0,0-.94-.69,1,1,0,0,1-.2-.3,2,2,0,0,1-.13-.91,1.91,1.91,0,0,1,.09-.92c.24-.41.93-.33,1-.92a.89.89,0,0,1,.21-.26c.37-.14.7-.31.77-.76a.69.69,0,0,1,.22-.23,1.05,1.05,0,0,0,.78-.78.73.73,0,0,1,.26-.2,2.46,2.46,0,0,1,.8-.19c.49,0,.62-.3.63-.71s.28-.49.48-.69h0a1,1,0,0,1,.86-.45,1.81,1.81,0,0,1,1,.15.89.89,0,0,1,.3.28,1.76,1.76,0,0,1,.16,1,1.08,1.08,0,0,1-.43.9h0c-.3.33-.63.63-.94,1h0c-.32.31-.64.63-.95,1h0l-1,.95h0a1.15,1.15,0,0,0-.47,1.18C53.9,44.62,52.69,44.54,52.21,45.1Z"/><path class="cls-162" d="M49.37,47.94c-.71-.06-1.06.23-1,1-.28.35-.62.65-.93,1h0c-1,.32-1.35.14-1.39-.76a4.49,4.49,0,0,1,.13-1.89c.37-.55.95-.89,1.35-1.42a1.76,1.76,0,0,1,1.94.17.85.85,0,0,1-.09,1.09Z"/><path class="cls-163" d="M49.4,47.05l0-1c-.64-.49-.52-1.11-.3-1.75a.71.71,0,0,1,1.26-.11h0l1,1,0,0c0,.41.17.88-.6,1C50.21,46.17,50.29,47.33,49.4,47.05Z"/><path class="cls-164" d="M52.21,45.1c0-.44-.11-1,.65-1,.52,0,.21-.59.35-.88a.6.6,0,0,1,.9,0h1a.68.68,0,0,1,0,.95c-.22.06-.58,0-.65.17C53.93,45.31,53.06,45.13,52.21,45.1Z"/><path class="cls-9" d="M55.1,44.16c0-.31,0-.63,0-.95H56l0,.95Z"/><path class="cls-165" d="M46.57,47.07c0,.63,0,1.26,0,1.89s.31.92.94.9l0,.93c-.38.08-.91-.15-.94.56s-.61.32-.91.47l-.19-.11c-.66-.84-.22-1.79-.3-2.69,0-.35,0-.7,0-1.05a1.78,1.78,0,0,1,.24-1,.8.8,0,0,1,1-.2A.61.61,0,0,1,46.57,47.07Z"/><path class="cls-166" d="M43.71,54.64l-.08.9a.72.72,0,0,1-1,.16,1.23,1.23,0,0,1-.37-1,1.41,1.41,0,0,1,.2-1,.76.76,0,0,1,1-.23.59.59,0,0,1,.27.31Z"/><path class="cls-167" d="M44.66,52.77c.05.69-.28,1-.95,1l-.07-.09c-.46-.81-.21-1.19.71-1.15A.65.65,0,0,1,44.66,52.77Z"/><path class="cls-168" d="M45.59,51.82c.11.73-.27,1-.93,1l-.08-.09c-.23-1.06-.11-1.19,1-1A.28.28,0,0,1,45.59,51.82Z"/><path class="cls-169" d="M47.48,49.87c-.12-.73.22-1,.93-1C48.52,49.62,48.18,49.92,47.48,49.87Z"/><path class="cls-170" d="M61.76,35.58l-.91.06-.17-.07a.77.77,0,0,1-.18-.86.7.7,0,0,1,.22-.29.81.81,0,0,1,.87,0,.48.48,0,0,1,.19.3Z"/><path class="cls-171" d="M62.77,33.77c0,.67-.42.88-1,.94l-.05-.1a.71.71,0,0,1-.06-1,.73.73,0,0,1,1,0A.47.47,0,0,0,62.77,33.77Z"/><path class="cls-172" d="M62.68,33.65l-.9.06a12.27,12.27,0,0,0-1,.94h0a1.65,1.65,0,0,0-.67,1,.73.73,0,0,1-.21.22.89.89,0,0,0-.74.73.76.76,0,0,1-.24.23c-.62,0-.62.8-1.14,1a.79.79,0,0,1-.83-.31h0a1.36,1.36,0,0,1,0-1.9h0a12,12,0,0,1,.93-1h0c.31-.32.62-.64.95-.95h0c.31-.32.62-.65,1-1h0c.3-.33.64-.63.94-1l0,0a1.14,1.14,0,0,1,1.88,0l.06.95C62.73,33.05,62.7,33.35,62.68,33.65Z"/><path class="cls-173" d="M62.7,31.8H60.82c0-1.61,1.22-.72,1.89-.94Z"/><path class="cls-174" d="M59.84,37.48c0,1,0,1.91,0,2.86-.89.19-1-1.15-1.9-1a.8.8,0,0,1-.29-.83.87.87,0,0,1,.18-.31,1.38,1.38,0,0,0,.87-.86.72.72,0,0,1,.31-.2A.8.8,0,0,1,59.84,37.48Z"/><path class="cls-175" d="M54.11,43.21l-.9,0c-.12-.74.2-1,.93-1Z"/><path class="cls-176" d="M54.14,42.26c-.08-.72.24-1,1-.95C55.2,42.05,54.87,42.36,54.14,42.26Z"/><path class="cls-177" d="M55.1,41.31c-.09-.72.22-1,.95-1C56.17,41.12,55.82,41.4,55.1,41.31Z"/><path class="cls-178" d="M57.94,38.44c0,.32,0,.63,0,1l-.92,0,0-.94A.61.61,0,0,1,57.94,38.44Z"/><path class="cls-179" d="M56.05,40.36c-.09-.72.2-1.06.94-1C57.1,40.14,56.8,40.47,56.05,40.36Z"/><path class="cls-180" d="M60.85,35.64l-.06.89-.87,0a.43.43,0,0,1-.27-.2.63.63,0,0,1,.21-.78h0a.65.65,0,0,1,.92,0Z"/><path class="cls-181" d="M59.84,37.48l-.94,0a.64.64,0,0,1,0-1h0a.61.61,0,0,1,.9,0l.11,0C59.89,36.88,59.86,37.18,59.84,37.48Z"/><path class="cls-182" d="M42.7,55.57l.93,0,0,1.93-2.71,0a.55.55,0,0,1-.31-.16.81.81,0,0,1,0-.85.85.85,0,0,1,.25-.25,2,2,0,0,1,.82-.18.92.92,0,0,0,.94-.45Z"/><path class="cls-183" d="M40.89,57.51c-.08.57-.3,1-1,1a.47.47,0,0,1-.3-.18.79.79,0,0,1,0-.87.73.73,0,0,1,.3-.22.76.76,0,0,1,.85.27Z"/><path class="cls-184" d="M39.84,59.39l-.87,0-.18-.08a.74.74,0,0,1-.12-.89.7.7,0,0,1,.28-.26.75.75,0,0,1,.88.24l.1,0Z"/><path class="cls-185" d="M38.89,60.33l-.9.09a.37.37,0,0,1-.05-.11.75.75,0,0,1-.23-.88.81.81,0,0,1,.27-.28.76.76,0,0,1,.89.22l.1,0C38.94,59.72,38.91,60,38.89,60.33Z"/><path class="cls-186" d="M49.41,26.05l1.86,0c.63.48.51,1.17.52,1.82a11.66,11.66,0,0,1-.08,1.87c-.18.51-1.06.57-.87,1.32a1.11,1.11,0,0,1-.33.9,2,2,0,0,1-1,.26c-.32,0-.64,0-1,0-.61-.13-.76.48-1.14.72a1,1,0,0,1-.88,0c-.72-.49-.48-1.24-.52-1.82.35.86-1,1-.92,1.79a2.9,2.9,0,0,1-.3.87,1,1,0,0,1-.88.3c-.7-.16-.86.53-1.28.82a1,1,0,0,1-.91-.1c-.55-.58-.68-1.42-1.25-2A3.28,3.28,0,0,0,39.67,31c-.57-.48-.37-1.28-.18-1.91s.69-.7,1.27-.54c.23-.14.29.73.59.09a1.33,1.33,0,0,1,.3-.91,2.78,2.78,0,0,1,2-.21,1.2,1.2,0,0,1,1,.45l0,0c.36.54.94.51,1.46.51s1-.05,1.35.44C48.79,28.66,49.37,27.82,49.41,26.05Z"/><path class="cls-187" d="M43.7,28l-2,.07c-1,.28-1.14.16-1.06-.86l.16-.15c.95.1,1.45-.25,1.47-1.29a6.86,6.86,0,0,1,.41-1.57,2.51,2.51,0,0,1,2.44.95,1.47,1.47,0,0,1,.38,1.27c-.06.57-.5.62-.95.65C44.29,27.36,44,27.66,43.7,28Z"/><path class="cls-188" d="M47.43,28.92c-.58,0-1.15,0-1.73,0s-1.1-.23-1.08-1c.66,0,1.31,0,2,0S47.5,28.29,47.43,28.92Z"/><path class="cls-189" d="M49.39,23.23v1.94l-1,0V23.25Z"/><path class="cls-190" d="M43.7,28c-.13-.72.14-1.05.89-.93,0,.32,0,.63,0,.94Z"/><path class="cls-191" d="M30.38,31.75c0-.39-.09-.76-.53-.92s-.45-.57-.45-1a1.06,1.06,0,0,1,.87-.43,5.19,5.19,0,0,1,1,0,1.88,1.88,0,0,0,1.94-.86c1-.11,2-.39,2.89.22a1,1,0,0,1,.18,1.08.9.9,0,0,1-.88.51c-.71-.19-.92.52-1.38.79s-1.07.24-1.48.78S31.05,32.38,30.38,31.75Z"/><path class="cls-192" d="M30.38,31.75c.75,0,1.51.22,2.09-.64.32-.49,1.12-.15,1.68-.3l.17.12a.81.81,0,0,1,0,1c-.72.4-.89,1.64-2.06,1.32a4,4,0,0,1-1.33,0c-.78-.18-1.16.26-1.6.71A2.28,2.28,0,0,1,27.5,34a.8.8,0,0,1-.27-1,.55.55,0,0,1,.3-.3c.22-.05.59,0,.65-.14C28.64,31.57,29.56,31.82,30.38,31.75Z"/><path class="cls-193" d="M26.52,31.82h.94c0,.3,0,.6.07.91h-.09C26.39,33,26.24,32.88,26.52,31.82Z"/><path class="cls-194" d="M30.33,29.87H29.4l0-.92a.75.75,0,0,1,.88-.25.69.69,0,0,1,.28.28A.75.75,0,0,1,30.33,29.87Z"/><path class="cls-195" d="M30.36,28.92l-.94,0,0-1a.7.7,0,0,1,1.2.07A.7.7,0,0,1,30.36,28.92Z"/><path class="cls-196" d="M30.35,28l-1,0c0-.31,0-.61,0-.92l.93,0A.58.58,0,0,1,30.35,28Z"/><path class="cls-197" d="M30.35,28c0-.31,0-.62,0-.93s0-.65,0-1l0,0a1,1,0,0,1,1-.29,2.63,2.63,0,0,1,1.29,1.36,1.12,1.12,0,0,1-.25,1.08,1.57,1.57,0,0,1-2-.23Z"/><path class="cls-198" d="M37,24.12c1.13.77,2.53,1.06,3.53,2.07a1.3,1.3,0,0,1,.32.85h-.1a.9.9,0,0,1-.85.41,3.55,3.55,0,0,1-.92,0,1.88,1.88,0,0,0-1.36,0c-.83-.08-1.12-.59-1.07-1.36s-.21-1.39.47-1.89Z"/><path class="cls-199" d="M34.19,24.13l0-.9c.71.13,1.78-.47,1.91.9,0,.07-.07.14-.11.2C35.3,24.81,34.7,24.88,34.19,24.13Z"/><path class="cls-200" d="M37,24.21v1.88a.75.75,0,0,1-1.22-.15,1.2,1.2,0,0,1,.27-1.69s0-.08,0-.12Z"/><path class="cls-201" d="M26.52,31.82c0,.61.28,1,.92.93,0,.31,0,.63.08.94a.87.87,0,0,1-.95.4,1.12,1.12,0,0,1-1-.39l0,0c-.35-.29-.64-.63-1-.93h0v-.91Z"/><path class="cls-202" d="M36.05,24.25c.12.71-.39,1.75,1,1.84,0,.66.29,1,1,.9a.66.66,0,0,1,.92,0l.93.06c1,1.17-.4,1.47-.78,2.13a1.58,1.58,0,0,1-1,.13c-.56-.39-1-1.48-1.87-.45l-.16.06-2.88,0a2.24,2.24,0,0,1-2.8-.05h0l0-.94,1.89,0c.26-.17.46-.43.81-.45a.55.55,0,0,0,.58-.5c0-.42-.31-.5-.61-.59-.43-.55-1.14-.69-1.64-1.13l-.05-.14c-.06-.73.33-1,1-1s1.25,0,1.88,0Z"/><path class="cls-203" d="M31.3,26.07h-1c0-.31,0-.62,0-.93h1A.64.64,0,0,1,31.3,26.07Z"/><path class="cls-204" d="M50.34,22.27c.11.76-.23,1.06-1,.94l0-.92Z"/><path class="cls-205" d="M50.36,42.29l-.06.89a5,5,0,0,1-.94,1l0,0a.79.79,0,0,1-1,.15,1.17,1.17,0,0,1-.4-1c-.27-1.24.57-2.1,1.1-3.06.26-.48,1-.54,1.08-1.16a1.93,1.93,0,0,1,.79-.38c.39,0,.67-.31,1-.43a.39.39,0,0,1,.28.13h1a.69.69,0,0,1,0,1l0,0c-.3.33-.64.63-.93,1h0a6.1,6.1,0,0,0-.95.95h0A6.16,6.16,0,0,0,50.36,42.29Z"/><path class="cls-206" d="M55.09,34.64a5.34,5.34,0,0,1-2.85,2.87l-.18-.12a1.42,1.42,0,0,1-.28-1,3.7,3.7,0,0,1,0-.94c.06-.89.44-1.08,1.39-.78l1.94,0Z"/><path class="cls-207" d="M56.07,29.87c0,.31,0,.62,0,.93l0,.1c-.32.28-.62.59-.93.89h-.93a3.27,3.27,0,0,1-1.28-1.08.72.72,0,0,1,.35-.87c.71-.11,1.41.26,2.05-.62S56,29.4,56.07,29.87Z"/><path class="cls-208" d="M53.16,34.62c-1.38.11-.72,1.23-.95,1.91a.76.76,0,0,1-1.08.06,5,5,0,0,1-.3-3.41.92.92,0,0,1,1.11-.79c.84,0,.72,1,1.25,1.34Z"/><path class="cls-209" d="M51.28,39.4h-.93a1.05,1.05,0,0,1-1.5.22,1,1,0,0,1-.25-1.06.78.78,0,0,1,.42-.45,1.28,1.28,0,0,0,1.16-.81,1.19,1.19,0,0,1,.36-.17c.61-.15,1.21-.25,1.67.34l0,0c0,.31,0,.63,0,1l-.23,0C51.61,38.66,51.57,39.12,51.28,39.4Z"/><path class="cls-210" d="M53.21,30.85c.7-.07,1,.28.95.95s-.28,1-1,.92a.88.88,0,0,1-.39-.94A.85.85,0,0,1,53.21,30.85Z"/><path class="cls-211" d="M53.15,31.75l0,1v1c-.73,0-1-.36-1-1a.73.73,0,0,1,0-1A.71.71,0,0,1,53.15,31.75Z"/><path class="cls-212" d="M55.1,34.65c0-.24,0-.47,0-.7,0-.4-.14-.9.43-1.07a.35.35,0,0,1,.43.29c.1.49.22,1-.31,1.35a1.44,1.44,0,0,1-.56.12Z"/><path class="cls-213" d="M59.86,32.75c.08.71-.25,1-1,1C58.84,33,59.16,32.68,59.86,32.75Z"/><path class="cls-214" d="M60.8,31.78c.11.73-.22,1-.94,1C59.81,32.07,60.09,31.72,60.8,31.78Z"/><path class="cls-215" d="M55.09,31.79c0-.63.19-1,.93-.89C56.08,31.57,55.71,31.81,55.09,31.79Z"/><path class="cls-216" d="M58,34.65c.08.7-.23,1-.93,1C57,34.92,57.25,34.59,58,34.65Z"/><path class="cls-213" d="M58.91,33.7c.07.71-.25,1-.95.95C57.89,34,58.21,33.63,58.91,33.7Z"/><path class="cls-217" d="M57,35.6l0,.93a.52.52,0,0,1-1,0C56,35.86,56.35,35.56,57,35.6Z"/><path class="cls-218" d="M56,37.48l-.92,0c-.08-.68.26-1,.91-1l.06.07A.6.6,0,0,1,56,37.48Z"/><path class="cls-219" d="M55.11,37.51l0,.92a.52.52,0,0,1-1,0A.81.81,0,0,1,55.11,37.51Z"/><path class="cls-220" d="M53.21,39.42v-1l.91,0,.05.08a.59.59,0,0,1-.05.89Z"/><path class="cls-221" d="M53.15,31.75l-.9.05c-1-1.17-.66-2.86.6-3.11a.73.73,0,0,1,.39.28v.88l0,1Z"/><path class="cls-222" d="M53.23,28l.89.05c.14.72-.18,1-.88,1l-.1-.07a.61.61,0,0,1-.17-.75A.46.46,0,0,1,53.23,28Z"/><path class="cls-223" d="M51.33,28l-.06-1.93c.38,0,.79,0,.95.47s.54.49.93.52c0,.29.05.59.08.89l-.09.06A1.12,1.12,0,0,1,51.33,28Z"/><path class="cls-224" d="M35.06,59.37l.07-1.85a.71.71,0,0,1,1-.16,1.25,1.25,0,0,1,.39,1,9.6,9.6,0,0,1,0,1.07,1.11,1.11,0,0,1-.45.93h0l-1,0A.71.71,0,0,1,35.06,59.37Z"/><path class="cls-225" d="M35.06,59.37c0,.32,0,.64,0,1l-.91.05C34.12,59.73,34.39,59.37,35.06,59.37Z"/><path class="cls-226" d="M36.05,60.36l.05-1a1.13,1.13,0,0,1,1.86,0l0,.91Z"/><path class="cls-227" d="M30.33,55.6l-.9-.05a12.31,12.31,0,0,1-1-.9c-.33-.06-.72,0-.88-.4s-.27-.59-.66-.47-.32.55-.39.87c-.61,0-1.08-.24-.68-.95s-.37-1.26-.23-1.93a1.08,1.08,0,0,1,.85-.44c.33,0,.65,0,1,0a2.24,2.24,0,0,1,.92.13,1,1,0,0,1,.31.18,1.12,1.12,0,0,0,1,.83c.46.59,1.2.61,1.81.92.25.39.38.92,1,.79a1.67,1.67,0,0,1,.83.27c.22.56.93.65,1.16,1.21a.81.81,0,0,1-.35.89C32.69,56.88,31.52,56.19,30.33,55.6Z"/><path class="cls-228" d="M26.58,51.74l-1,0c-.08-1.43-1.16-.83-1.9-.93a1.16,1.16,0,0,1-1.89,0l0-.93a8.15,8.15,0,0,1,.93-1c.56-.18,1.08-.58,1.73-.32l.33.06a2.48,2.48,0,0,0,1.08-.1,1.1,1.1,0,0,1,.92.42A3.36,3.36,0,0,1,26.58,51.74Z"/><path class="cls-229" d="M22.74,49.15c-.07.58-.46.73-1,.73h0c-.46-.65-1.44-.26-1.88-.94,0-1.28-1.26-1-1.91-1.44A.37.37,0,0,1,18,47h1.92a.87.87,0,0,1,.85-.31c.57.13.81.68,1.25,1a2,2,0,0,0,.82,1.19A.33.33,0,0,1,22.74,49.15Z"/><path class="cls-230" d="M18,47c0,.17,0,.35,0,.52-.49.77-1.26.35-1.9.44-.25-.89,1.15-1,.91-1.86C17.65,46,18,46.32,18,47Z"/><path class="cls-231" d="M13.24,48.91h.93c-.14.73.52,1.85-.95,1.92l-.05-1A.62.62,0,0,1,13.24,48.91Z"/><path class="cls-232" d="M21.8,50.81l1.89,0c0,.69-.37.95-1,.93S21.76,51.42,21.8,50.81Z"/><path class="cls-228" d="M19.9,49c.8,0,1.62-.11,1.88.94C21.12,49.65,19.94,50.43,19.9,49Z"/><path class="cls-233" d="M34.11,56.53v-.9c.08-.53.7-.67.83-1.17.54-.16.75-.67,1.11-1a.87.87,0,0,1,.72-.07,3.75,3.75,0,0,1,1.48,1.2,1.3,1.3,0,0,1,0,.93c-.22.5-.94.53-1,1.14-.31.29-.8.38-1,.81l-.15.06-.94,0C34.85,57.13,34.62,56.68,34.11,56.53Z"/><path class="cls-66" d="M32.29,59.36l0-.92c.34,0,.81,0,.84.45S32.64,59.34,32.29,59.36Z"/><path class="cls-234" d="M28.43,54.65a.81.81,0,0,1,1,.9C28.74,55.64,28.43,55.32,28.43,54.65Z"/><path class="cls-235" d="M11.32,48h.91a1.3,1.3,0,0,1,0,1.85h-.92A1.11,1.11,0,0,1,11.32,48Z"/><path class="cls-236" d="M11.32,48v1.85l-1,0V48Z"/><path class="cls-237" d="M12.24,49.85l0-1a.64.64,0,0,1,.92,0l0,0-.07,1Z"/><path class="cls-238" d="M13.2,48.93l-.92,0c0-.3,0-.6,0-.9l1,0C13.19,48.3,13.2,48.61,13.2,48.93Z"/><path class="cls-239" d="M20.83,47.06,19.89,47l-.09-.93h.11a.7.7,0,0,1,1,0A.73.73,0,0,1,20.83,47.06Z"/><path class="cls-240" d="M20.83,47.06l0-1c.05-.54.66-.59.87-1h1a3.13,3.13,0,0,0,.61-1,.93.93,0,0,1,1.23-.3.76.76,0,0,1,.3.23,2.34,2.34,0,0,1,.27.86c0,.72.58.78,1.09.73a2,2,0,0,1,1.35.17c.23.49.73.68,1.12,1,.07.63.9.64,1,1.23a1,1,0,0,1-.14,1,1.9,1.9,0,0,1-1.78.29l-.36-.13c-.34-.28-.48-.86-1.09-.73a5.51,5.51,0,0,1-1.57-.15.87.87,0,0,1-.31-.14c-.66-.94-.92-1-1.53-.08a.77.77,0,0,1-.31.19.89.89,0,0,1-.88-.26C21.1,48,20.73,47.76,20.83,47.06Z"/><path class="cls-241" d="M24.66,44.14c-.41,0-.81,0-1,.5s-.55.5-1,.48v-.94c.06-1.43,1.15-.83,1.88-1A.6.6,0,0,1,24.66,44.14Z"/><path class="cls-242" d="M21.74,45.12c.12.7-.17,1-.87,1l-1,0C19.85,44.46,21.1,45.38,21.74,45.12Z"/><path class="cls-243" d="M26.58,41.27l0-.9v-1c.64.08,1.33-.14,1.93.25s1.46,0,2.12.42a2.63,2.63,0,0,0,1.7.66,2.84,2.84,0,0,1,2.55.85c.34.4,1,.17,1.46.21a1,1,0,0,1,1,.48c.23.8,0,1.35-.9,1.38a15.67,15.67,0,0,1-3.87-.09c-.81-1-1.91-.87-3-.83a2.15,2.15,0,0,1-.94-.13,1,1,0,0,1-.32-.18.9.9,0,0,0-.95-.64A.68.68,0,0,1,26.58,41.27Z"/><path class="cls-244" d="M30.34,38.46v-1a.86.86,0,0,1,.91-.46,4.33,4.33,0,0,1,1.89.18.84.84,0,0,1,.31.31c.13,1.17-.92,1.93-2.2,1.58a2.38,2.38,0,0,1-.8-.47Z"/><path class="cls-245" d="M29.38,36.6l-.9-.09a.74.74,0,0,1-.28-.9.78.78,0,0,1,.28-.29,3.94,3.94,0,0,1,1.77-.19,2.1,2.1,0,0,1,1,.17.7.7,0,0,1,.3.29,1,1,0,0,1,0,1,.93.93,0,0,1-.33.26A1.59,1.59,0,0,1,29.38,36.6Z"/><path class="cls-246" d="M30.34,40.37c-.63-.2-1.61.47-1.87-.72.87,0,.88-1.37,1.87-1.19h0C30.94,39.09,31.1,39.73,30.34,40.37Z"/><path class="cls-247" d="M29.38,36.6h1.9a.56.56,0,0,1,0,.87l-1,0C29.72,37.53,29.36,37.27,29.38,36.6Z"/><path class="cls-248" d="M24.63,32.75c.67-.06,1,.21,1,.93l-1,0Z"/><path class="cls-249" d="M28.43,35.64l.05.87c-.68.11-1-.2-1-.87l.11-.16A.57.57,0,0,1,28.43,35.64Z"/><path class="cls-250" d="M27.46,35.64c-.62,0-1-.31-.95-1l.14-.18c1.06-.08,1.16,0,.87,1.05Z"/><path class="cls-251" d="M25.58,33.7h.93a.6.6,0,0,1,.06.9l-.06.08C25.86,34.67,25.52,34.37,25.58,33.7Z"/><path class="cls-252" d="M26.58,41.27l.89.06a.8.8,0,0,1,.11,1.1,2.42,2.42,0,0,1-2.91-.14l-.09-.08C24.75,40.85,25.86,41.48,26.58,41.27Z"/><path class="cls-253" d="M24.67,42.29l2.83,0a.62.62,0,0,1,.91,0l0,0c.81,1.07.67,1.81-.44,2.36a1.46,1.46,0,0,0-1.43.8,1,1,0,0,1-.94,0c-.47-.33-.49-1-1-1.32h0c0-.3,0-.61-.05-.92Z"/><path class="cls-254" d="M49.36,44.14c-.08-.71.23-1,.94-1,0,.33,0,.66,0,1Z"/><path class="cls-255" d="M50.36,42.29c-.06-.68.25-1,1-1C51.42,42.07,51.09,42.38,50.36,42.29Z"/><path class="cls-256" d="M51.28,45.11c-.7.07-1-.29-1-1C51,44.14,51.36,44.4,51.28,45.11Z"/><path class="cls-257" d="M56,37.48c0-.29,0-.59,0-.89l.9-.06c0,.33,0,.65,0,1Z"/><path class="cls-258" d="M57.94,38.44l-.92,0,0-1,.89,0a.41.41,0,0,1,.28.2.67.67,0,0,1-.21.8Z"/><path class="cls-259" d="M54.12,39.39l.05-.89.91-.07Q55.16,39.46,54.12,39.39Z"/><path class="cls-124" d="M52.25,40.37c0-.67.25-1,.93-1C53.29,40.12,53,40.46,52.25,40.37Z"/><path class="cls-260" d="M51.31,41.33c-.06-.69.26-1,.95-.95C52.37,41.12,52,41.43,51.31,41.33Z"/><path class="cls-261" d="M48.43,44.16h1V46l-1.83.06a.54.54,0,0,1-.3-.15.78.78,0,0,1-.07-.82.73.73,0,0,1,.2-.26,1.62,1.62,0,0,0,.9-.64Z"/><path class="cls-262" d="M47.55,46.09c0,.63-.32,1-1,1L46.48,47a.72.72,0,0,1,0-1,.69.69,0,0,1,1,.07Z"/><path class="cls-263" d="M46.54,46.09l-.06.89-.89.05a1.68,1.68,0,0,0-.67,1,.77.77,0,0,1-.22.22c-.48.07-.65.45-.84.82-.35.22-.75.41-.66.93a2.14,2.14,0,0,1-.19.83.82.82,0,0,1-.23.26,2.26,2.26,0,0,1-.81.21c-.39,0-.68.13-.66.6a2.27,2.27,0,0,1-.17.78A1,1,0,0,1,41,53c-.36.15-.72.3-.78.75a.69.69,0,0,1-.23.25c-.62,0-.63.79-1.13,1a.78.78,0,0,1-.83-.29c-.69.06-1-.36-1.2-.93a1,1,0,0,1,0-1.09c.92-.39.49-1.44,1-2,.24-.25.56-.22.86-.26,1-.81,2.64-.78,2.88-2.44a2.35,2.35,0,0,0,1-1c.58-.15.72-.74,1.11-1.08A5,5,0,0,0,44.86,44a2.28,2.28,0,0,1,3.57-.83v1h0c-.33.31-.65.62-.95,1h0A10.87,10.87,0,0,0,46.54,46.09Z"/><path class="cls-264" d="M45.56,51.69c-.6.05-1,.29-1,1-.65,0-1,.29-.94,1l-.88.08c-.71.31-1.42.87-2.15,0a.86.86,0,0,1,.2-1h0a3.13,3.13,0,0,0,.79-1.11c.39-.24.85-.38,1.11-.79h0a1.74,1.74,0,0,0,.68-1,.69.69,0,0,1,.23-.22c.46-.08.63-.43.8-.8a.92.92,0,0,1,.32-.18.82.82,0,0,1,.84.31Z"/><path class="cls-265" d="M45.58,48.91h-1a.65.65,0,0,1,0-.94h0a.65.65,0,0,1,.92,0Z"/><path class="cls-266" d="M45.55,47.94l-.92,0c0-.68.28-1,1-.94Z"/><path class="cls-267" d="M40.79,53.67c.66.12,1.32-.34,2,0l-.07.9a4.1,4.1,0,0,0-.75,1.14c-.39.24-.85.37-1.11.8h0a8.52,8.52,0,0,0-1,.94h0c-.33.3-.64.62-.95,1h0c-.32.31-.65.62-.94,1h0l-1.86,0v-.92a2.29,2.29,0,0,0,.62-1,.8.8,0,0,1,.22-.23.87.87,0,0,0,.73-.71.77.77,0,0,1,.21-.23.93.93,0,0,0,.75-.74.72.72,0,0,1,.23-.23c.46-.12.56-.47.56-.88s.26-.51.46-.72h0A.62.62,0,0,1,40.79,53.67Z"/><path class="cls-268" d="M41.73,55.56c0-.61.3-1,1-.94v1h0a.64.64,0,0,1-.77.23A.59.59,0,0,1,41.73,55.56Z"/><path class="cls-269" d="M60.78,35.56l-.92,0c-.06-.7.25-1,1-.94Z"/><path class="cls-270" d="M60.81,34.65c0-.69.3-1,1-.94l-.05.9Z"/><path class="cls-271" d="M59.81,36.53l-.9,0c-.07-.7.25-1,1-1Z"/><path class="cls-272" d="M58.91,36.55v1h0a.63.63,0,0,1-.91,0l-.1-.08A.84.84,0,0,1,58.91,36.55Z"/><path class="cls-273" d="M58,37.53l.91,0c.06.68-.25,1-.94,1Z"/><path class="cls-274" d="M39.88,57.5c-.05-.69.25-1,1-.94l-.05.91Z"/><path class="cls-275" d="M40.83,56.56c-.06-.66.26-1,.9-1l.07.06a.6.6,0,0,1-.06.9Z"/><path class="cls-276" d="M41.74,56.52l.06-.9.92,0C42.78,56.3,42.41,56.57,41.74,56.52Z"/><path class="cls-277" d="M38.92,58.45c-.06-.69.28-1,.95-1l0,.92Z"/><path class="cls-278" d="M38,59.41c-.07-.69.25-1,.94-1l-.05.92Z"/><path class="cls-279" d="M51.33,28h1.81v.88c-.61,0-.91.32-.88,1s0,1.3,0,1.95l-.06.91c-.66,0-.9.34-.9,1,0,1,0,1.9,0,2.84-.06.56-.71.57-.93,1h0c-.22.22-.42.46-.77.46-.75-.17-.81.66-1.29.9a2.66,2.66,0,0,1-1.65-.12A2.24,2.24,0,0,1,46,36.86a25.39,25.39,0,0,1,.09-3,1.34,1.34,0,0,1,.29-1l.18-.12,1,0,.14,0a.91.91,0,0,0,.28-.34,2.56,2.56,0,0,1,.55-.54h.9c.33.29.65.37.94,0l.07-.9c.24-.39.65-.63.87-1Z"/><path class="cls-280" d="M40.8,32.71c1.41.09.87,1.16,1,1.91l-.11.2c-.82.57-1.76.17-2.63.3h-.87c-1.52,0-1.5,0-1.59,1.51,0,.39,0,.87-.42,1.12a2.12,2.12,0,0,1-1,.23c-.68,0-1.37.15-1.91-.44l0-.06a.8.8,0,0,1-.32-.81c0-.61,1-.46.87-1.21-.26-1.07,1-1.26,1.21-2a1.85,1.85,0,0,1,1.12-.31c.91.52,1.29-.4,1.89-.71a2.85,2.85,0,0,1,1-.14C39.63,32.23,40.3,32.11,40.8,32.71Z"/><path class="cls-281" d="M46.5,36.76a3.74,3.74,0,0,0,.29,1.65c-.26.57-.92.76-1.21,1.31a1,1,0,0,1-.94-.06,17.93,17.93,0,0,0-2.36-2.08,1.84,1.84,0,0,1-1-2.07,1,1,0,0,1,.45-.84l0-.05h.94a1.14,1.14,0,0,1,.86-.41,1.39,1.39,0,0,1,1.73,1C45.53,35.81,46.24,36.12,46.5,36.76Z"/><path class="cls-282" d="M40.8,32.71H39a.86.86,0,0,1-.52-.81c0-.51-.3-.65-.62-.84a.81.81,0,0,1-.18-.31c-.19-.65-.05-1.14.65-1.34a1.58,1.58,0,0,0,.63-.48.89.89,0,0,1,.53-1c.41-.16.4-.54.39-.9l.91,0c-.05.71.28,1.06,1,1v.84c-.3.35-.61.28-.93.05-.73-.05-1,.33-1,1,0,.49.15.85.71.88,1.16.06,1.61.34.42,1.23C40.85,32.16,40.86,32.48,40.8,32.71Z"/><path class="cls-283" d="M46.5,36.76c-.84-.31-1.74-.52-1.93-1.63-.08-.48-.55-.47-.94-.52a.59.59,0,0,1,.07-.88l.92,0a1.18,1.18,0,0,1,1.88,0Z"/><path class="cls-284" d="M44.63,32.79c0-1,1.13-1.56,1.22-2.64,0-.39.94-.41,1.34-.07s-.06.62-.33.88c-.53.5-.29,1.17-.34,1.77l0,0A1.23,1.23,0,0,1,44.63,32.79Z"/><path class="cls-285" d="M40.82,28.94l.93-.05c.33.13.88,0,.8.6-.06.38-.46.34-.76.37C41.1,29.94,40.77,29.63,40.82,28.94Z"/><path class="cls-286" d="M44.63,32.79l1.91,0c0,.31,0,.61,0,.92l-1.88,0Z"/><path class="cls-287" d="M50.3,31.77c0,.36.16.88-.43.91s-.43-.52-.51-.87Z"/><path class="cls-288" d="M48.46,31.81l-.05.91a.7.7,0,0,1-1,.08l0-.09C47.43,32,47.81,31.76,48.46,31.81Z"/><path class="cls-289" d="M43.57,32.29a.37.37,0,1,1-.74-.09.34.34,0,0,1,.41-.3A.35.35,0,0,1,43.57,32.29Z"/><path class="cls-290" d="M43.7,33.73c0,.29,0,.58-.07.88H42.7C42.71,34,43,33.64,43.7,33.73Z"/><path class="cls-291" d="M51.24,29.85c.1.67-.13,1.06-.87,1C50.26,30.19,50.52,29.83,51.24,29.85Z"/><path class="cls-292" d="M38.91,28.92c.22.91-1.16,1-.95,1.92a.67.67,0,0,1-.82.32.76.76,0,0,1-.32-.17c-.09-.49-.73-.61-.78-1.14l0-.91h0a1.25,1.25,0,0,1,1.94,0Z"/><path class="cls-293" d="M30.38,28.91l2.8.05c.08.57-.09.91-.74.91s-1.4,0-2.11,0Z"/><path class="cls-294" d="M36,29.85c.63,0,1.09.19,1,.95a1.36,1.36,0,0,1-2,.23.79.79,0,0,1,.08-1.12Z"/><path class="cls-295" d="M35.14,29.91l0,.92a.63.63,0,0,1-.92.08l0-.1Q34.15,29.81,35.14,29.91Z"/><path class="cls-296" d="M35.12,33.71c.16.87-1,1-1,1.85a2.25,2.25,0,0,1-2.82.06l-.09,0a.78.78,0,0,1-.2-.9c.81-.39.54-1.47,1.24-1.93.89.2,1-1.16,1.85-1C34.89,32.21,34.86,33,35.12,33.71Z"/><path class="cls-297" d="M35.12,33.71c-1.42-.09-.83-1.2-1-1.93l0-.87.92-.08,1.95,0h0c.84,1.28.66,2-.76,2.87Z"/><path class="cls-298" d="M32.29,32.74c-.17.72.42,1.83-1,1.94l-.15,0c-.24-.24-.46-.55-.88-.48a1.21,1.21,0,0,1-.76-.18.67.67,0,0,1-.19-.25c0-.71.4-1,1.11-1S31.68,32.74,32.29,32.74Z"/><path class="cls-299" d="M26.57,34.61l-.06-.9,1,0,1.82,0,.07,0a.85.85,0,0,1,.3.87c-.15.66-.95.51-1.26,1l0,.1-.91-.08C27.56,34.89,27.23,34.58,26.57,34.61Z"/><path class="cls-300" d="M31.3,26.07v-.94c.67.26,1.86-.62,1.94.9.28,1.11.11,1.3-1,1C31.61,27.07,31.27,26.76,31.3,26.07Z"/><path class="cls-301" d="M32.28,27c.73.06.94-.38,1-1,.8,0,.95.54.91,1.21s-.59.72-1.1.73c-.28,0-.55,0-.83,0Z"/><path class="cls-302" d="M38.9,27,38,27c.05-.32-.07-.78.42-.81S38.9,26.63,38.9,27Z"/><path class="cls-303" d="M38,28.9l-1.94,0A.81.81,0,0,1,37,28C37.61,28,38,28.21,38,28.9Z"/><path class="cls-304" d="M48.43,43.2c-.47,0-1,0-1.42,0-.84,0-1.36.1-1.53,1.15a2.2,2.2,0,0,1-1.8,1.75L43.51,46a1,1,0,0,1-.3-.8c0-.46-.22-.6-.66-.6a1.15,1.15,0,0,1-1.31-1.3c-.15-.68-.51-.77-1-.28-.21.24-.35.51-.7.56-1.19-.3-1.33-.62-1-2.18a.82.82,0,0,1,.29-.35,7.56,7.56,0,0,1,2.76-.24c.53,0,1.06,0,1.59,0a3.62,3.62,0,0,0,1.39,0,1.37,1.37,0,0,1,1.38.42c.6.79.84.38,1-.31a1.53,1.53,0,0,1,.48-.91c.69-.16,1.39-.39,1.92.34C49.45,41.44,48.27,42.09,48.43,43.2Z"/><path class="cls-305" d="M47.46,41.28c-.22.9-1,1.39-1.53.81a1.54,1.54,0,0,0-2-.48c-.09,0-.3-.19-.46-.29a1.16,1.16,0,0,1-.07-1,.82.82,0,0,1,.21-.25,1.55,1.55,0,0,0,.89-.64l.15-.06h.94a3,3,0,0,1,3.32,0l1.47,0c0,.65-.28,1-1,1H47.47A.54.54,0,0,0,47.46,41.28Z"/><path class="cls-124" d="M51.28,39.4c0-.5.11-.92.74-.92A1.15,1.15,0,0,1,51.28,39.4Z"/><path class="cls-306" d="M50.33,37.5c-.06-.67.26-1,.93-1h1v.95Z"/><path class="cls-307" d="M48.88,39.38H45.56c0-.89.6-.93,1.23-1H48.4a.39.39,0,0,1,.54.09Z"/><path class="cls-281" d="M48.94,38.5l-.54-.09a.82.82,0,0,1,1-.89.65.65,0,0,1,0,.93Z"/><path class="cls-308" d="M49.38,38.45c0-.31,0-.62,0-.93l.93,0C50.38,38.18,50.07,38.5,49.38,38.45Z"/><path class="cls-309" d="M37,57.49c0,.65-.26,1-.92,1l0-1h0A.64.64,0,0,1,37,57.49Z"/><path class="cls-310" d="M29.39,48.94V48a2.49,2.49,0,0,1,3.35.15,1.72,1.72,0,0,0,.56.41c.49.21.84.65,1.39.8a1,1,0,0,1,.73,1.33,2.44,2.44,0,0,0-.93,2,.88.88,0,0,1-.17.28c-.32.18-.71.3-.64.8a1,1,0,0,1-.24.77.61.61,0,0,1-.3.15l-.86-.06c-.38-.25-.63-.65-1-.87-.71-.18-1.78.34-1.88-1-.29-.34-.63-.64-.93-1h0a.88.88,0,0,1-.34-.88A7.65,7.65,0,0,1,29.39,48.94Z"/><path class="cls-311" d="M26.58,51.74l0-2.84.12-.14a.65.65,0,0,1,.83.14l0,.06c.77.53.29,1.3.37,2a.82.82,0,0,1-.43.81Z"/><path class="cls-312" d="M35.14,54.7c0,.69-.4.93-1,.93s-1-.31-1-1l.12,0a1.19,1.19,0,0,1,1.65-.24A.64.64,0,0,1,35.14,54.7Z"/><path class="cls-313" d="M31.26,53.73c.67-.1,1,.2,1,.87C31.62,54.67,31.27,54.4,31.26,53.73Z"/><path class="cls-314" d="M28.45,51.77c.68,0,1,.29.93,1C28.72,52.76,28.4,52.44,28.45,51.77Z"/><path class="cls-315" d="M27.45,51.73l.05-.89a.58.58,0,0,1,.92,0l0,.92Z"/><path class="cls-240" d="M22.74,49.15l0-.21a.66.66,0,0,1,0-.92l.09-.09a1.17,1.17,0,0,1,1.87,0h0a.64.64,0,0,1,0,1Z"/><path class="cls-316" d="M24.61,48.94l0-1h1.88a.63.63,0,0,1,0,1v0l-.91.05a.73.73,0,0,1-1,0Z"/><path class="cls-317" d="M24.63,48.92l1,0c-.07.36,0,.89-.57.83S24.68,49.26,24.63,48.92Z"/><path class="cls-228" d="M22.68,48l0,.92a.81.81,0,0,1-1-.91Z"/><path class="cls-318" d="M37.05,52.74a2,2,0,0,1-.27,1h-.67l-.18-.09a.73.73,0,0,1,.85-1.16A.69.69,0,0,1,37.05,52.74Z"/><path class="cls-319" d="M37,56.49a.81.81,0,0,1,.93-.92l.16.1a.65.65,0,0,1-.11.87h0a.61.61,0,0,1-.76.22A.49.49,0,0,1,37,56.49Z"/><path class="cls-320" d="M36.11,53.7a.9.9,0,0,1-1,1l-.06-.1c-.27-1.06-.12-1.21.94-.94Z"/><path class="cls-321" d="M37,57.49h-.95c-.06-.68.28-1,.92-1l.06.09a.62.62,0,0,1,0,.9Z"/><path class="cls-322" d="M38,54.64l.88,0a.49.49,0,0,1,.26.21.64.64,0,0,1-.21.78h0a.62.62,0,0,1-.91,0l-.09,0C37.93,55.26,38,55,38,54.64Z"/><path class="cls-323" d="M33.18,49c-.15,0-.38,0-.44-.08-.88-1.23-2.16-.88-3.35-.87-.63,0-1-.32-1-1s.67-.73.88-1.19c.48-.27,1-.36,1.37.1.64.84,1.25.74,1.92.09a.73.73,0,0,1,.42-.18,2,2,0,0,1,1.48,1.36,2,2,0,0,1,0,.76A1.79,1.79,0,0,1,33.18,49Z"/><path class="cls-324" d="M28.42,50.85H27.5c-.43-.63.06-1.25,0-1.88l1.88,0C29.26,49.67,29.83,50.76,28.42,50.85Z"/><path class="cls-325" d="M25.61,45.1l.92,0a.81.81,0,0,1,.87-.26.87.87,0,0,1,.31.23.75.75,0,0,1-.06.91l-.16.11c-.19,0-.39,0-.58.09-.43.11-.53,1.12-1,.65s-1.33-.78-1.26-1.69A.7.7,0,0,1,25.61,45.1Z"/><path class="cls-326" d="M24.64,48l-1.87,0c.11-.6-.39-1.64.42-1.67A1.72,1.72,0,0,1,24.64,48Z"/><path class="cls-327" d="M29.39,46.07c0,.68-.31,1-1,1s-1-.27-.94-1h0a1.2,1.2,0,0,1,1.77-.2Z"/><path class="cls-328" d="M25.61,45.1l-1,0,0-1C25.36,44.07,25.67,44.4,25.61,45.1Z"/><path class="cls-329" d="M26.52,48.92c0-.32,0-.63,0-1,.65,0,1,.23,1,.93Z"/><path class="cls-330" d="M41.77,35.6a1.49,1.49,0,0,0,1,1.55,3.72,3.72,0,0,1,1.85,2.24l0,0c-.36.27-.62.64-1,.9h0c-.44.64-1.12.44-1.72.49-1,.19-2.14-.43-3,.47l0,.06c-.55.23-.4,1.06-1,1.21a.83.83,0,0,1-.87-.3h-1a.8.8,0,0,1-.24-.93c.88-.56.7-1.46.71-2.29s0-1.54,0-2.3c.06-1.4.24-1.63,1.58-1.63h.77C39.86,35.28,40.93,34.76,41.77,35.6Z"/><path class="cls-331" d="M36.07,41.32v.94a2.68,2.68,0,0,1-2.25-.69c-.55-.58-1.51-.21-2.28-.25s-1.2-.12-1.19-1c0-.64,0-1.28,0-1.92a7.46,7.46,0,0,0,2.06,0c.54-.15.79-.42.77-1l1.86,0c.91.63.41,1.57.54,2.38,0,.46,0,.93.44,1.22Z"/><path class="cls-332" d="M37,42.27l.93,0c.88,1.14.45,2.29-.94,2.43a22.09,22.09,0,0,1-3.9,0c-.78-.07-1.29-.39-1-1.31l.17-.18c1.22,0,2.45,0,3.67,0C36.61,43.21,37,43,37,42.27Z"/><path class="cls-333" d="M27.53,44.19c.66.08,1-.13.91-.88a7.22,7.22,0,0,1,0-1h1a1.07,1.07,0,0,1,.43.94,4,4,0,0,1-.17,1.89.84.84,0,0,1-.32.3,1.49,1.49,0,0,1-1.85-.29h0A.61.61,0,0,1,27.53,44.19Z"/><path class="cls-334" d="M29.41,43.23c0-.32,0-.64,0-1,.64,0,1.27,0,1.91,0a.84.84,0,0,1,1,.93l-.06,0a1,1,0,0,1-.89.41,5.79,5.79,0,0,1-1,0A1,1,0,0,1,29.41,43.23Z"/><path class="cls-335" d="M28.41,42.29l-.91,0,0-.91C28.2,41.24,28.51,41.57,28.41,42.29Z"/><path class="cls-336" d="M33.18,36.59l0,.89-1.88,0,0-.87,0-.1C32,36,32.6,35.79,33.18,36.59Z"/><path class="cls-337" d="M33.18,36.59l-1.86-.1,0-.87,2.82-.06c.34.11.91,0,.83.58s-.53.37-.86.4S33.5,36.57,33.18,36.59Z"/><path class="cls-338" d="M28.45,35.54c-.07-.71.36-.91,1-.91a.75.75,0,0,1,.9-.22.73.73,0,0,1,.27.28.78.78,0,0,1-.25.91Z"/><path class="cls-339" d="M30.34,35.6v-.94a.61.61,0,0,1,.93-.07l.06.09c0,.3-.05.59-.07.89Z"/><path class="cls-340" d="M27.53,44.19l0,.93-1,0C26.51,44.39,26.87,44.12,27.53,44.19Z"/><path class="cls-341" d="M47.49,45.13c0-.68.26-1,.95-1C48.54,44.9,48.22,45.22,47.49,45.13Z"/><path class="cls-341" d="M46.54,46.09q-.07-1,1-1l-.06.92Z"/><path class="cls-342" d="M33.18,49a.88.88,0,0,1,1-1,3,3,0,0,1,2.72-.27,1.1,1.1,0,0,1,.51.63,1.27,1.27,0,0,1,.19.13c.74.26,1,1,1.57,1.46a.81.81,0,0,1-.3.9l-.9.06a1.24,1.24,0,0,1-.95.42c-.63,0-1.29.23-1.84-.28l-.11-.19c.06-.63-.23-.94-.86-.93S33.19,49.63,33.18,49Z"/><path class="cls-343" d="M38.88,50.8l0-.9a.79.79,0,0,1,0-1.1c.51-.43,1.28-.42,1.71-1,.2-.28.63-.23,1,0a.49.49,0,0,1,.21.3c0,1,0,2-1.49,2C39.81,50,39.64,51,38.88,50.8Z"/><path class="cls-344" d="M37.05,50.83l.93,0c-.17.69.42,1.76-.93,1.88l-.1,0A1.16,1.16,0,0,1,37.05,50.83Z"/><path class="cls-345" d="M43.66,49.87c.09.72-.23,1-.95.94l0-.93A.63.63,0,0,1,43.66,49.87Z"/><path class="cls-346" d="M43.66,49.87h-.93c-.07-.65.24-1,.89-1a.56.56,0,0,1,.27.21.68.68,0,0,1-.2.8Z"/><path class="cls-347" d="M40.79,53.67l-.91,0c-.11-.72.2-1,.93-1Z"/><path class="cls-348" d="M41.82,51.81c0,.69-.32,1-1,.91l0-.92a.61.61,0,0,1,.76-.24A.54.54,0,0,1,41.82,51.81Z"/><path class="cls-349" d="M42.71,50.82c.09.67-.21,1-.89,1l-.1-.06a.63.63,0,0,1,.06-.91Z"/><path class="cls-350" d="M41.78,50.84l-.06.91-.88,0C40.78,51.11,41.09,50.79,41.78,50.84Z"/><path class="cls-351" d="M39.87,53.69l0,.92a.61.61,0,0,1-.9.06l-.09-.08C38.85,53.91,39.18,53.59,39.87,53.69Z"/><path class="cls-352" d="M44.63,48l0,.94,0,0a.65.65,0,0,1-.93,0l-.08-.07A.83.83,0,0,1,44.63,48Z"/><path class="cls-353" d="M42.75,47.05c0,.64-.34.93-1,1l0-.06a.81.81,0,0,1-.31-.83.71.71,0,0,1,1.08-.38A.5.5,0,0,1,42.75,47.05Z"/><path class="cls-354" d="M43.68,46.11c0,.64-.32.92-.93.94l0,0c-.27-1.08-.14-1.22,1-1Z"/><path class="cls-355" d="M43.7,49h.93a.8.8,0,0,1-.94,1Z"/><path class="cls-356" d="M38,55.61l.91,0c0,.67-.26,1-.95,1Z"/><path class="cls-357" d="M37,57.48l0-.9.91,0C38,57.23,37.69,57.54,37,57.48Z"/><path class="cls-358" d="M39,54.67l.9-.06c0,.67-.25,1-.94,1Z"/><path class="cls-359" d="M47.45,32.8l1-.08c0,.36.08.85-.48.85S47.51,33.12,47.45,32.8Z"/><path class="cls-360" d="M38.88,35.56c-.31,0-.62,0-.93,0-.73,0-1,.31-.94,1,0,.94,0,1.87,0,2.81a.79.79,0,0,1-1.1.1,1.43,1.43,0,0,1,.18-2c0-.07,0-.15,0-.23,0-2.76,0-2.76,2.86-2.6A.59.59,0,0,1,38.88,35.56Z"/><path class="cls-361" d="M36.28,33.68A4.32,4.32,0,0,0,37,30.81l.92,0h0a1.15,1.15,0,0,1,0,1.85C37.94,33.92,37,33.67,36.28,33.68Z"/><path class="cls-362" d="M38.88,35.56l0-.89h2.85v.93Z"/><path class="cls-363" d="M36.06,37.5l0,1.94a.7.7,0,0,1,0,1,.71.71,0,0,1-1-.1L35,37.56Z"/><path class="cls-364" d="M38,32.69l0-1.85c1.36.08.83,1.15,1,1.86Z"/><path class="cls-365" d="M31.26,34.59l-.93.07h0a.65.65,0,0,1,0-.94C31,33.63,31.36,33.9,31.26,34.59Z"/><path class="cls-366" d="M30.37,33.71l0,.94-.92,0c0-.31,0-.63,0-.94Z"/><path class="cls-367" d="M39.15,48.94c-.08.32-.17.64-.25,1-.39,0-.77-.08-.94-.51s-.55-.47-1-.47h0V48c-.45-.59-1.06-.47-1.68-.43-.4,0-.86.16-1.16-.27a2.21,2.21,0,0,1-1.24-1.18.8.8,0,0,1-.73.13c-.28-.57-1-.71-1.29-1.19-.08-.64-.24-1.3.37-1.8h.93c0,.71.42,1,1.09.94.91,0,1.82,0,2.74,0,1.7,0,1.84-.14,1.91-1.91,0-.66.29-1,1-.89.14.71-.49,1.8,1,1.83a1.17,1.17,0,0,1,1.89,0c.06.52.07,1.16.85.59.23-.17.31-.62.71-.45s.32.59.33.93,0,.55,0,.82A4,4,0,0,0,41.77,47h0A14.46,14.46,0,0,0,39.15,48.94Z"/><path class="cls-368" d="M41.77,47c0-1.9,0-1.9,1.9-1.91V46c-.61.05-1,.33-1,1Z"/><path class="cls-369" d="M38.91,41.3c0-.7.37-.95,1-.93H41.8a.59.59,0,0,1-.07.89Z"/><path class="cls-370" d="M41.77,43.23l-1.89,0c0-.63.27-.91.9-.92S41.79,42.55,41.77,43.23Z"/><path class="cls-371" d="M41.73,41.27c0-.3,0-.59.07-.89l1.86,0a1.6,1.6,0,0,1-.22,1Z"/><path class="cls-372" d="M47.46,41.28c-.34,0-.77.06-.81-.4s.46-.48.82-.52C47.47,40.67,47.46,41,47.46,41.28Z"/><path class="cls-373" d="M43.65,40.33c0-.7.32-1,1-.9C44.68,40.14,44.33,40.41,43.65,40.33Z"/><path class="cls-374" d="M36,53.66c-.67,0-1,.29-.94.94H33.26l0-.89a6.11,6.11,0,0,1,.92-1h0a1.07,1.07,0,0,1,1-.39.88.88,0,0,1,.94.39Z"/><path class="cls-375" d="M35.09,52.71l-.94,0a1.21,1.21,0,0,0-.22-.76c-.25-.25-.83-.31-.57-.83s.74-.27,1.14-.31c.19,0,.39,0,.58,0l.07,0A1.14,1.14,0,0,1,35.09,52.71Z"/><path class="cls-376" d="M34.16,52.74c.05.66-.24,1-.92,1C33.14,53,33.45,52.68,34.16,52.74Z"/><path class="cls-377" d="M35.09,52.71l.06-1.85,1.9,0c0,.63-.07,1.25-.1,1.88l-.9,0Z"/><path class="cls-378" d="M31.28,43.23l.07,1.91c.28.32.59.61.89.91l.69,0c-1,1.17-1.63,1.25-2.68.27a1.26,1.26,0,0,0-.86-.29h0a.7.7,0,0,1,0-1h0c.74-.41.22-1.48,1-1.88Z"/><path class="cls-379" d="M34.17,47.27c.61-.08,1.21-.19,1.82-.24A.83.83,0,0,1,37,48l-2.83,0C34.18,47.72,34.17,47.49,34.17,47.27Z"/><path class="cls-380" d="M29.38,45.11c0,.32,0,.64,0,1H27.5v-1Z"/><path class="cls-381" d="M36,40.33c0-.29,0-.59.07-.89l.89-.06c-.09.75.43,1.78-.91,1.94L36,41.25A.66.66,0,0,1,36,40.33Z"/><path class="cls-382" d="M36,40.33c0,.31,0,.62,0,.93-.71.09-.95-.27-.89-.92Z"/><path class="cls-383" d="M30.36,43.23c-.19.7.46,1.83-1,1.88,0-.63,0-1.25,0-1.88Z"/><path class="cls-384" d="M37,48.92c0,.37,0,.84-.54.84a.41.41,0,0,1-.3-.3c0-.58.48-.48.84-.54Z"/><path class="cls-385" d="M39.15,48.94A2,2,0,0,1,40.73,47a9,9,0,0,1,1,0V48c-.25.08-.65.09-.73.25C40.63,49.11,39.85,48.89,39.15,48.94Z"/><path class="cls-386" d="M32.24,46.05c-.69.08-1-.16-.89-.91C32,45.1,32.29,45.41,32.24,46.05Z"/></g></g></svg>