<svg xmlns="http://www.w3.org/2000/svg" viewBox="0 0 74 74"><defs><style>.cls-1{fill:#1e2223;}.cls-2{fill:#949494;}.cls-3{fill:#2a2c2d;}.cls-4{fill:#4a4a4a;}.cls-5{fill:#2e2f30;}.cls-6{fill:#7d7d7d;}.cls-7{fill:#4e4e4e;}.cls-8{fill:#434344;}.cls-9{fill:#757676;}.cls-10{fill:#2b2d2f;}.cls-11{fill:#494949;}.cls-12{fill:#28292b;}.cls-13{fill:#686868;}.cls-14{fill:#505050;}.cls-15{fill:#636464;}.cls-16{fill:#4b4b4b;}.cls-17{fill:#454647;}.cls-18{fill:#343637;}.cls-19{fill:#3c3d3e;}.cls-20{fill:#303435;}.cls-21{fill:#393a3b;}.cls-22{fill:#37393a;}.cls-23{fill:#2e3233;}.cls-24{fill:#2c2e30;}.cls-25{fill:#303132;}.cls-26{fill:#535353;}.cls-27{fill:#292b2c;}.cls-28{fill:#474748;}.cls-29{fill:#6a6b6b;}.cls-30{fill:#353637;}.cls-31{fill:#5c5d5d;}.cls-32{fill:#1f2528;}.cls-33{fill:#24282a;}.cls-34{fill:#5b5b5b;}.cls-35{fill:#404243;}.cls-36{fill:#414243;}.cls-37{fill:#333334;}.cls-38{fill:#7c7c7c;}.cls-39{fill:#282b2d;}.cls-40{fill:#2c3133;}.cls-41{fill:#47494a;}.cls-42{fill:#696969;}.cls-43{fill:#37393b;}.cls-44{fill:#3a3b3c;}.cls-45{fill:#656666;}.cls-46{fill:#666767;}.cls-47{fill:#494a4a;}.cls-48{fill:#3a3c3d;}.cls-49{fill:#a4a4a4;}.cls-50{fill:#757575;}.cls-51{fill:#898989;}.cls-52{fill:#838383;}.cls-53{fill:#3f3f3f;}.cls-54{fill:#3e3e3e;}.cls-55{fill:#656565;}.cls-56{fill:#666;}.cls-57{fill:gray;}.cls-58{fill:#818181;}.cls-59{fill:#6e6e6e;}.cls-60{fill:#5a5a5a;}.cls-61{fill:#4c4c4c;}.cls-62{fill:#8e8e8e;}.cls-63{fill:#959595;}.cls-64{fill:#8c8c8c;}.cls-65{fill:#6a6a6a;}.cls-66{fill:#646465;}.cls-67{fill:#373737;}.cls-68{fill:#434343;}.cls-69{fill:#424242;}.cls-70{fill:#3b3b3b;}.cls-71{fill:#343535;}.cls-72{fill:#333;}.cls-73{fill:#676767;}.cls-74{fill:#3c3c3c;}.cls-75{fill:#707070;}.cls-76{fill:#1f1f1f;}.cls-77{fill:#2a2a2a;}.cls-78{fill:#575757;}.cls-79{fill:#414141;}.cls-80{fill:#888;}.cls-81{fill:#565656;}.cls-82{fill:#474747;}.cls-83{fill:#363636;}.cls-84{fill:#646464;}.cls-85{fill:#747474;}.cls-86{fill:#c8c8c8;}.cls-87{fill:#c7c7c7;}.cls-88{fill:#ddd;}.cls-89{fill:#868686;}.cls-90{fill:#3e3f3f;}.cls-91{fill:#3d4346;}.cls-92{fill:#4d4d4d;}.cls-93{fill:#484848;}.cls-94{fill:#717171;}.cls-95{fill:#6d6d6d;}.cls-96{fill:#6b6b6b;}.cls-97{fill:#727272;}.cls-98{fill:#767676;}.cls-99{fill:#a5a5a5;}.cls-100{fill:#a7a7a7;}.cls-101{fill:#323232;}.cls-102{fill:#848484;}.cls-103{fill:#2b2b2b;}.cls-104{fill:#292929;}.cls-105{fill:#2e2e2e;}.cls-106{fill:#282828;}.cls-107{fill:#525252;}.cls-108{fill:#272727;}.cls-109{fill:#444a4e;}.cls-110{fill:#2b3338;}.cls-111{fill:#293a43;}.cls-112{fill:#535454;}.cls-113{fill:#6e6f6f;}.cls-114{fill:#454b4d;}.cls-115{fill:#303030;}.cls-116{fill:#2c2c2c;}.cls-117{fill:#acacac;}.cls-118{fill:#5e5e5e;}.cls-119{fill:#969696;}.cls-120{fill:#9f9f9f;}.cls-121{fill:#797979;}.cls-122{fill:#777;}.cls-123{fill:#6c6c6c;}.cls-124{fill:#5c6164;}.cls-125{fill:#444;}.cls-126{fill:#545454;}.cls-127{fill:#9b9b9b;}.cls-128{fill:#9e9e9e;}.cls-129{fill:#929292;}.cls-130{fill:#636a6e;}.cls-131{fill:#686c6f;}.cls-132{fill:#a3a3a3;}.cls-133{fill:#5c5c5c;}.cls-134{fill:#838384;}.cls-135{fill:#585858;}.cls-136{fill:#a0a0a0;}.cls-137{fill:#7f8182;}.cls-138{fill:#383838;}.cls-139{fill:#807f7f;}.cls-140{fill:#2d2d2d;}.cls-141{fill:#828384;}.cls-142{fill:#8b8e90;}.cls-143{fill:#4a5860;}.cls-144{fill:#4f4f4f;}.cls-145{fill:#464646;}.cls-146{fill:#233945;}.cls-147{fill:#80878b;}.cls-148{fill:#3f505a;}.cls-149{fill:#b6b6b6;}.cls-150{fill:#384952;}.cls-151{fill:#273c47;}.cls-152{fill:#595959;}.cls-153{fill:#4f5b62;}.cls-154{fill:#e1e1e1;}.cls-155{fill:#9d9d9d;}.cls-156{fill:#686f73;}.cls-157{fill:#828689;}.cls-158{fill:#6d787f;}.cls-159{fill:#9da1a2;}.cls-160{fill:#3c4d57;}.cls-161{fill:#676d6f;}.cls-162{fill:#6f6f6f;}</style></defs><title>tire</title><g id="레이어_2" data-name="레이어 2"><g id="레이어_1-2" data-name="레이어 1"><rect class="cls-1" width="74" height="74" rx="8.33" ry="8.33"/><path class="cls-2" d="M33.1,7l.93-.1a5.36,5.36,0,0,1,4.51-.26c.39,1,.92,1.94-.67,2.3-1.34-.16-1.73.35-1.46,1.72.18.93.18,2-1.24,2.32-.45.08-.38.89-1,1a1.35,1.35,0,0,1-1.26-.16c-.6-.53-.41-1.35-.75-2-.23-.24-.54-.21-.83-.28-1.05,0-1.73-.35-1.56-1.57A3.82,3.82,0,0,1,30,8.44a1.22,1.22,0,0,1,.24-.5,2.74,2.74,0,0,1,1.24-.36A1.71,1.71,0,0,0,33.1,7Z"/><path class="cls-3" d="M61.22,25.25a2.54,2.54,0,0,1,.61,1.64v7.27c0,.86-.31,1.47-1.26,1.55l-.29-.12c-.81-1.05-.49-2.27-.55-3.44s0-2.06,0-3.09a19.26,19.26,0,0,1,0-2.52c0-.55,0-1.2.82-1.33Z"/><path class="cls-4" d="M60.59,25.21l-.08,3.93c-.8,1.06-1.8.71-2.79.41-.89-.8-.49-1.83-.49-2.78a14.69,14.69,0,0,1,.09-1.48c.29-.78,1.59-.53,1.59-1.57a1.14,1.14,0,0,1,.47-.26c.53-.19.85.14,1.16.47Z"/><path class="cls-5" d="M38.3,7,34,6.88c1.12-2.32,3.23-.91,4.86-1.23.89-.17,1.9-.07,2.06,1.22-.14.74-.71.69-1.25.68A1.52,1.52,0,0,1,38.3,7Z"/><path class="cls-6" d="M46.19,8.19l1.23.09c.34.26.62.55.47,1-1.06.89-.77,2.52-1.86,3.38a1.11,1.11,0,0,1-1.54-.44,6.25,6.25,0,0,1,.08-4.18C45.16,7.47,45.68,7.76,46.19,8.19Z"/><path class="cls-7" d="M54,12.17a1.17,1.17,0,0,0,1.28,1.32,1,1,0,0,1,.47,1.22.93.93,0,0,1-.34.44,3.76,3.76,0,0,1-2.8,0,1.1,1.1,0,0,1-.37-.48,4.22,4.22,0,0,1,0-2.44.88.88,0,0,1,.4-.45A1,1,0,0,1,54,12.17Z"/><path class="cls-8" d="M56.61,14.78C56.48,16,58,16.26,58,17.39l-.17.28a2.4,2.4,0,0,1-2.61,0,1.85,1.85,0,0,1-.54-1.48,1.47,1.47,0,0,1,.58-1.4l.15-.06C55.83,14.24,56.23,14.39,56.61,14.78Z"/><path class="cls-9" d="M39.6,7,41,6.87,43.51,7a1,1,0,0,1,.43,1.29.86.86,0,0,1-.42.42,5.09,5.09,0,0,1-2.73.24,2.77,2.77,0,0,1-1.53-.48C38.83,7.82,39.12,7.38,39.6,7Z"/><path class="cls-10" d="M60.54,23.93l-1.27-.11c-.63-.17-.68-.66-.67-1.19a7,7,0,0,1,.22-2.36.65.65,0,0,1,.46-.33c1.12.18,1.27,1,1.26,1.91Z"/><path class="cls-11" d="M43.63,8.22,43.51,7c1,.1,2.43-.57,2.68,1.23l-1.31.09C44.45,8.61,44,8.85,43.63,8.22Z"/><path class="cls-12" d="M58,17.39c1.63.25,1.11,1.58,1.28,2.55l-.09.12a1.15,1.15,0,0,1-1.5.28c-.47-.41-.4-1-.4-1.5a1.55,1.55,0,0,1,.56-1.43Z"/><path class="cls-13" d="M18.64,17.34l.08-1.2a.92.92,0,0,1,1.37-.33,2.36,2.36,0,0,1,.39,2.64,1.11,1.11,0,0,1-.3.54,1.52,1.52,0,0,1-1.47.13.79.79,0,0,1-.43-.41A1.16,1.16,0,0,1,18.64,17.34Z"/><path class="cls-14" d="M51.44,10.81l1.22.07c.43.37.55.77.11,1.21l-.11.1a1.49,1.49,0,0,1-1.45.61c-.56,0-1.17.14-1.5-.52s-.47-1.13.06-1.67A1.26,1.26,0,0,1,51.44,10.81Z"/><path class="cls-15" d="M23.94,10.87l1.24-.11a.59.59,0,0,1,.44.28,1.28,1.28,0,0,1-.1,1.33,1.37,1.37,0,0,1-1.89-.12A1,1,0,0,1,23.94,10.87Z"/><path class="cls-16" d="M31.73,8.19H30.44c-.57-.44-.37-.84.06-1.23h1.3A.73.73,0,0,1,31.73,8.19Z"/><path class="cls-17" d="M18.64,17.34l0,1.29c-.36.65-.77.48-1.2.08h-.16C17.37,17.9,17.69,17.31,18.64,17.34Z"/><path class="cls-18" d="M23.94,10.87l0,1.28-.06.24a.79.79,0,0,1-1.1.13.77.77,0,0,1-.19-.44A1.19,1.19,0,0,1,23.94,10.87Z"/><path class="cls-19" d="M51.44,10.81l-1.31,0c-.63-.15-.68-.55-.46-1.06a.65.65,0,0,1,.44-.33A1.32,1.32,0,0,1,51.44,10.81Z"/><path class="cls-20" d="M52.77,12.09c0-.4-.07-.8-.11-1.21A1.15,1.15,0,0,1,54,12.17Z"/><path class="cls-21" d="M21.24,13.41a1.31,1.31,0,0,1,1.32-1.33l.09.13a1,1,0,0,1,.4,1.17,1,1,0,0,1-.3.43,1.24,1.24,0,0,1-1.26,0A.58.58,0,0,1,21.24,13.41Z"/><path class="cls-22" d="M19.91,14.74a1.32,1.32,0,0,1,1.33-1.33l.11.1a1,1,0,0,1,.4,1.18,1.1,1.1,0,0,1-.31.43,1.24,1.24,0,0,1-1.26.05A.55.55,0,0,1,19.91,14.74Z"/><path class="cls-23" d="M56.61,14.78l-1.2,0c0-.42-.09-.83-.13-1.25A1.16,1.16,0,0,1,56.61,14.78Z"/><path class="cls-24" d="M20,16.1l-1.29,0a1.21,1.21,0,0,1,1.19-1.4l.14.07c.35.34.6.7.21,1.18Z"/><path class="cls-25" d="M30.5,7,30.44,8.2l0,.06c-.31.29-.61.62-1.1.33a.68.68,0,0,1-.23-.44C29.18,7.28,29.68,6.94,30.5,7Z"/><path class="cls-26" d="M25.18,10.76c-.09-1,.51-1.26,1.33-1.31a.92.92,0,0,1,.48.47,1,1,0,0,1-.33,1.39c-.58.35-1,0-1.41-.39C25.23,10.87,25.2,10.82,25.18,10.76Z"/><path class="cls-27" d="M48.73,8.27a1.2,1.2,0,0,1,1.38,1.17l-.06.15a1,1,0,0,1-1.28.37.8.8,0,0,1-.41-.4A1,1,0,0,1,48.73,8.27Z"/><path class="cls-28" d="M48.73,8.27l.08,1.2c-.62.77-1.1.74-1.4-.26,0-.31,0-.62,0-.93Z"/><path class="cls-29" d="M31.73,8.19c0-.41.05-.81.07-1.22h1.3C33.11,7.91,32.63,8.28,31.73,8.19Z"/><path class="cls-30" d="M26.51,9.45c0-.88.55-1.21,1.37-1.18a1,1,0,0,1,.37,1.27.71.71,0,0,1-.39.41,1.06,1.06,0,0,1-1.3-.33A1.09,1.09,0,0,0,26.51,9.45Z"/><path class="cls-31" d="M27.83,9.52c0-.41,0-.83.05-1.25l1.26-.12V8.3a1,1,0,0,1,.18,1.57A1,1,0,0,1,27.83,9.52Z"/><path class="cls-32" d="M34.05,68.42c-1.63,0-3.26,0-4.89,0a10.39,10.39,0,0,1-4.7-.94c-1.87-.88-4.06-.27-6.11-.36S14.7,65.77,13,64.86a1.82,1.82,0,0,1-.84-1.68c.16-.68.7-.66,1.23-.66a4.34,4.34,0,0,1,1.48.07c.51,1.23,1.53,1.35,2.66,1.24a2.26,2.26,0,0,1,1.29.35c.62,1.36,1.86.85,2.89,1,6.77-.15,13.54-.09,20.31,0a9.42,9.42,0,0,1,3.13,0,2,2,0,0,0,2.23-.9,3.06,3.06,0,0,1,2.42-.29c2.35-.25,4.81.14,7-1.25a9.12,9.12,0,0,1,2.15-.15c1.33-.18,1.46-1.4,2-2.26.44-.39.12-1.3,1-1.43a1.11,1.11,0,0,1,1.28.46c0,.44,0,.88,0,1.32A6.57,6.57,0,0,1,56,67.11c-3,0-5.94-.33-8.79,1-1.22.58-2.68.24-4,.25C40.12,68.43,37.09,68.42,34.05,68.42Z"/><path class="cls-33" d="M59.26,42.24a5.81,5.81,0,0,1-.92,3.54c-1,1.41-.41,2.53,1.21,3a6.49,6.49,0,0,1,3.61,4.91c0,.54,0,1.08,0,1.62a1,1,0,0,1-1.23.42,1,1,0,0,1-.44-.32.94.94,0,0,0-1.14-.71c-1.28.15-1.9-.4-1.88-1.68a1.3,1.3,0,0,0-.74-1.29c-1-.66-2.07-1.17-3.09-1.79-.54-.32-1.21-.58-1.18-1.4a2.52,2.52,0,0,1,0-1.28,1.68,1.68,0,0,0,1.11-1.93c0-.2,0-.51.14-.61a10.59,10.59,0,0,0,3-3c.4-.6,1,.06,1.46.48Z"/><path class="cls-34" d="M61.89,59.29c-.1.5,0,1.07-.68,1.29a.72.72,0,0,1-.83.16,1.83,1.83,0,0,1-.49-1.37c0-.51,0-1,0-1.53s0-1.09,0-1.63c.32-1.68.63-1.82,2-.89h0a.86.86,0,0,1,0,1.36v1.21A.91.91,0,0,1,61.89,59.29Z"/><path class="cls-35" d="M61.89,59.29v-1.4a1.22,1.22,0,0,1,1.26,1.35Z"/><path class="cls-36" d="M61.88,56.68l0-1.36,1.29,0A1.21,1.21,0,0,1,61.88,56.68Z"/><path class="cls-37" d="M59.23,42.24c-1.19,1.49-3.08,2.4-3.79,4.26a1.36,1.36,0,0,1-1.44,1,2.37,2.37,0,0,0-3.39.43c-.72.72-1.57.21-2.23-.41-1-1.54.6-2.24,1.26-2.9A8.74,8.74,0,0,1,52,42.4a1,1,0,0,1,.71-.33c.64-.06.61-.61.59-1a.81.81,0,0,0-.76-.81c-.63-.07-1.35.06-1.81-.58-.55-1.74.73-2.8,1.48-4.06C54,34.39,56.08,35.29,58,35c.91-.07,1.84-.27,2.49.65l.09,0c-.1,1.56.27,3.2-1.09,4.51C59,40.68,59.27,41.55,59.23,42.24Z"/><path class="cls-38" d="M12.12,54l.07-.28A12.26,12.26,0,0,0,13,51.36a.72.72,0,0,1,.32-.37c1,.06.73-1.29,1.57-1.44a4.78,4.78,0,0,1,1.46-.11,5.92,5.92,0,0,0,1.68,0c3-.34,2.71.78,2.45,2.93,0,.15-.06.36-.2.42-1.37.64-2.18,1.45-1.31,3.1a.92.92,0,0,1-.74,1.2c-2.25.28-4.52.7-6.68-.5C11.64,55.71,11.33,54.72,12.12,54Z"/><path class="cls-39" d="M13.45,41.6l0-3.94c0-.33,0-.67.05-1a1,1,0,0,1,1.35-.34,1.58,1.58,0,0,1,.57,1.56,1.54,1.54,0,0,0,1.11,1.78c.44.51.15,1.13.25,1.69,1.15,1.57,1,3.75,2.44,5.2a2.09,2.09,0,0,1,.09.41c.11,2.52-.58,3-3,2.12l-.18-.29c.34-2.11-.92-3.66-1.9-5.28A3.63,3.63,0,0,1,13.45,41.6Z"/><path class="cls-40" d="M13.49,63.15l-1.34,0C10.39,63,11,61.57,10.82,60.55c0-.43,0-.87,0-1.3a1.09,1.09,0,0,1,1.44-.36c.58.27.46.86.61,1.33.15.3.07.66.48.91C14.3,61.69,14.33,62.43,13.49,63.15Z"/><path class="cls-41" d="M12.08,59.28l-1.24,0c0-1.24,0-2.48,0-3.71,0-.86.34-1.46,1.27-1.56,0,.89.05,1.78.08,2.67a2.15,2.15,0,0,1,.68,1.74C12.79,58.85,12.62,59.23,12.08,59.28Z"/><path class="cls-39" d="M16,50.05l-1.24.09c-.33.26-.63.61-1.11.32a.56.56,0,0,1-.23-.43c.52-1.12,1.59-1.14,2.6-1.25l0,0A.74.74,0,0,1,16,50.05Z"/><path class="cls-42" d="M13.46,51.42a2.66,2.66,0,0,1-1.27,2.28l0-2.23C12.58,51,13,50.79,13.46,51.42Z"/><path class="cls-43" d="M13.46,51.42l-1.29,0A1.29,1.29,0,0,1,13.46,50v.1a.74.74,0,0,1,0,1.25Z"/><path class="cls-34" d="M14.74,25.22,14.83,24a.92.92,0,0,1,1.29-.43,1,1,0,0,1,.4.48,21,21,0,0,1,.2,4.69,11.75,11.75,0,0,0,.08,1.67c.17,1.05.24,1.78,1.62.9a2.81,2.81,0,0,1,3.4.44c.08.16.16.32.25.48a5.16,5.16,0,0,1-.19,2.28,10,10,0,0,0-3.63,2.57,1.93,1.93,0,0,1-2.31.4c-.64-.33-1-1-1.64-1.31-.46-2.37-.07-4.77-.19-7.15a6.61,6.61,0,0,1,0-1.09C14.16,27,13.92,26,14.74,25.22Z"/><path class="cls-44" d="M14.71,27.83l.09,8.45a.29.29,0,0,1-.09.46l-1.24-.09c0-2.92,0-5.84,0-8.77A.73.73,0,0,1,14.71,27.83Z"/><path class="cls-45" d="M16,22.58l.1-1.23a1.06,1.06,0,0,1,1.61-.21,3.49,3.49,0,0,1,0,3A1,1,0,0,1,16.15,24L16,23.91A.85.85,0,0,1,16,22.58Z"/><path class="cls-10" d="M14.71,27.83l-1.23.05c0-1.08-.3-2.31,1.26-2.66Z"/><path class="cls-46" d="M17.42,18.71l1.2-.08.11.11c.42.4.76.81.4,1.43a1,1,0,0,1-1.43.29.78.78,0,0,1-.41-.48Z"/><path class="cls-47" d="M17.35,21.29l-1.24.06C16,20.5,16.36,20,17.29,20l.18,0C17.81,20.48,18,20.92,17.35,21.29Z"/><path class="cls-48" d="M16,22.58c0,.44,0,.89,0,1.33l-1.2.09A1.15,1.15,0,0,1,16,22.58Z"/><path class="cls-49" d="M27.83,9.52h1.29a.84.84,0,0,1,1.34,0,1.15,1.15,0,0,0,1.35,1.26.76.76,0,0,1,1.26,0v2.62l-.09.25a.93.93,0,0,1-1.2.15c-1-1.87-1.79-.51-2.65.1a4.67,4.67,0,0,1-1.39.15c-.53,0-1,0-1.58,0-1.68-.23-1.86-.61-.94-2h0a5.51,5.51,0,0,0,2.66-2.56Z"/><path class="cls-50" d="M34.35,13.39a1.57,1.57,0,0,1,.7-1.21,1.57,1.57,0,0,0,.35-2.3c-.84-1.48-.82-1.56.94-1.65.22,0,.43,0,.65,0a7.62,7.62,0,0,0,3.22,2.5,1.28,1.28,0,0,1,0,.82A1.47,1.47,0,0,1,39.16,13c-1.47.49-2.72,2-4.5.89A.7.7,0,0,1,34.35,13.39Z"/><path class="cls-51" d="M39.56,10.8c-2.47.06-2.48,0-2.57-2.56A1.21,1.21,0,0,0,38.3,7h1.3l0,1.25C40.45,9.12,40.56,10,39.56,10.8Z"/><path class="cls-13" d="M33.07,13.47l1.28-.08c0,.06,0,.12.08.19A1,1,0,0,1,34.65,15a1.19,1.19,0,0,1-1.71.16,1.11,1.11,0,0,1,.15-1.67Z"/><path class="cls-52" d="M30.46,9.55l-1.34,0,0-1.21,1.32,0Z"/><path class="cls-38" d="M33.07,10.85l-1.26,0c0-.43,0-1,.55-1S33,10.38,33.07,10.85Z"/><path class="cls-53" d="M60.48,35.69l-2.57,0c-1.34-1.23-.67-2.84-.81-4.3.54-.65-.14-1.76.83-2.25l2.58,0Z"/><path class="cls-25" d="M57.93,29.16l-.06,2.31c-.59.73-1.15.54-1.52-.18a5,5,0,0,0-2.42-2,3.27,3.27,0,0,1-2-2.55c0-.36-.28-.91-.9-.78s-.28.5-.34.78A2.62,2.62,0,0,1,50.53,28c-1.48,2.9-1.27,3.63,1.44,5,.19,1.83.06,2-1.72,2.25a4.41,4.41,0,0,0-2.11.73,2.69,2.69,0,0,1-2.89.25c-.69-1-.34-1.94-.06-2.92-.24-1-1.53-1.66-1-2.93a3.45,3.45,0,0,1,.07-1.28c1.48-.76,2.69-1.65,2.72-3.6,0-.84.83-1.52,1-2.44.13-.7.05-1.05-.64-1.21a.85.85,0,0,1-.47-.22c-.07-.85-1.15-.95-1.33-1.74a2,2,0,0,1,.41-1.36,2.89,2.89,0,0,1,2-.5c1.16.12,1.63,1.3,2.25,1.92a18.39,18.39,0,0,0,5.17,3.28c1.11.55,2.31,1,2,2.64,0,.22.35.51.57.75Z"/><path class="cls-54" d="M57.89,26.58a1.46,1.46,0,0,1-1.3-1,3.22,3.22,0,0,0-2.81-2.13A3.6,3.6,0,0,1,51.13,22c-.9-1.2-2.25-2-3-3.3.31-.82.93-.51,1.49-.41a22.39,22.39,0,0,0,4.16.57c1.12.12,1.58.91,1.89,1.86.2.58.31,1.25,1.16,1.18.44,0,.86.08,1.3.07s.8.32,1.12.62c0,.41,0,.81.05,1.22l0,.14c-.44.42-.87.85-1.3,1.28Z"/><path class="cls-55" d="M57.93,25.24c0-.91.38-1.34,1.3-1.28A1.14,1.14,0,0,1,57.93,25.24Z"/><path class="cls-7" d="M33.06,14.76a1.16,1.16,0,0,0,1.36-1.18c2,0,3.46-1.4,5.22-2,1.79-.25,3.57-.44,5.22.61l1.29,0c1.69,1,3.94.25,5.42,1.84.53,0,.77.51,1.13.81h0a2.19,2.19,0,0,1,.43,2.6c-.2.48-.62.51-1,.5h-.58c-.16,0-.37,0-.46-.13-2-2.73-4.9-2.23-7.67-2.27a14.85,14.85,0,0,1-1.87.14,2.67,2.67,0,0,0-2.88,1.1,19.64,19.64,0,0,0-5.69,2.17c-1.15.57-2.35,1-3.47,1.67-.3.17-.65.25-.85.59-.65,1.15-1.47,1-2.37.3a1.31,1.31,0,0,1-.16-1.27c.25-.73,1.37-.68,1.43-1.58.53-.41,1.23-.65,1.37-1.43a2.56,2.56,0,0,0,1.42-1.38c.88-.1.9-1.14,1.6-1.44A1,1,0,0,1,33.06,14.76Z"/><path class="cls-56" d="M51.41,14.75c-1.53-1.32-4-.71-5.26-2.62,0-1.14-.23-2.41,1.26-2.92a2.27,2.27,0,0,0,1.4.26l0,.08c1,.57.21,2,1.27,2.61l1.38,0A1.62,1.62,0,0,1,51.41,14.75Z"/><path class="cls-55" d="M44.86,12.15c-1.77,0-3.55.18-5.22-.61,0-.24-.06-.49-.08-.73l.06-2.57h1.32c1.27,1.3,1.27,1.3,2.54,0l.15,0,1.25.06C44.87,9.57,44.86,10.86,44.86,12.15Z"/><path class="cls-55" d="M52.72,17.38l0-2.61,1.36.05,1.23,1.24,0,1.34a2.29,2.29,0,0,0-.18.29C54.26,18.14,53.41,18.34,52.72,17.38Z"/><path class="cls-57" d="M51.41,14.75c0-.85,0-1.71,0-2.56h1.24c0,.86,0,1.73,0,2.59Z"/><path class="cls-58" d="M55.28,16.06a1.05,1.05,0,0,1-1.23-1.24l1.21,0Z"/><path class="cls-59" d="M57.85,17.41l0,1.26c-.12.27-.36.43-.49.74-.56,1.37-1,1.44-2.3.53a1.77,1.77,0,0,1,.23-2.55h2.52Z"/><path class="cls-52" d="M43.48,8.24c0,.43.05.85.05,1.28a1.29,1.29,0,1,1-2.57,0c0-.43,0-.86,0-1.29Z"/><path class="cls-60" d="M59.22,22.6h-1.3a1.4,1.4,0,0,1-.62-1.37c0-.54-.08-1.1.63-1.28l1.26.1Z"/><path class="cls-61" d="M57.93,20v1.37a1.18,1.18,0,0,1-1.27.49c-1-.18-1.25-1-1.35-1.83,1.22.26,1.43-1.46,2.58-1.32Z"/><path class="cls-62" d="M18.69,20c0-.42,0-.85,0-1.27L20,18.68l.21.21L20,18.68l0-2.58h0c.41-.45.87-.87,1.28-1.32h0a1.05,1.05,0,0,1,1.2-.45,1.09,1.09,0,0,1,.44.29,3.32,3.32,0,0,1,.42,2.31c-.2.84.2,1.14.88,1.32A3.28,3.28,0,0,0,25.61,20a1.31,1.31,0,0,1,0,1.3A8.86,8.86,0,0,0,23.88,23c-.87.54-2,0-2.84.62-.41.24-.6.74-1.09.9a1.28,1.28,0,0,1-1.87-1.22A4.75,4.75,0,0,1,18.69,20Z"/><path class="cls-57" d="M50,12.16c-.37,0-.74,0-1.11,0s-.9,0-1.13-.42.18-.75.48-1a1.77,1.77,0,0,0,.49-1.15l1.28,0,.08,1.24Z"/><path class="cls-63" d="M25.22,12.15a1.29,1.29,0,0,0,1.4,1.33c.83,1.38.74,1.59-1.08,2.43a2.7,2.7,0,0,1-2.85-1.1l-.13-.06a.79.79,0,0,1,.05-1.28h0c.43-.44.87-.87,1.31-1.31h1.3Z"/><path class="cls-64" d="M27.86,9.58c0,2.47-.13,2.56-2.66,2.56l.05-1.22c.82-.05,1.43-.31,1.31-1.3Z"/><path class="cls-65" d="M23.92,12.16c0,.91-.39,1.36-1.31,1.31l0-1.26Z"/><path class="cls-65" d="M22.61,13.47c0,.43,0,.85,0,1.28l-1.27,0c0-.42,0-.84.05-1.26Z"/><path class="cls-66" d="M21.29,14.77c0,.89-.36,1.36-1.28,1.32l0-1.28Z"/><path class="cls-7" d="M42.22,65.77H21.33a1,1,0,0,1-.39-1.39c1-1,2.2-.45,3.31-.51a2.22,2.22,0,0,0,2.15-1c.73-.44,1.56-.2,2.33-.31s1.84.06,2.76,0h1.75c.8.06,1.6,0,2.39,0a.93.93,0,0,1,.57.53c.52,1,1.08,1.07,1.61,0a.94.94,0,0,1,.55-.54,14,14,0,0,1,2.59.08,4.82,4.82,0,0,0,1.84,1.8C43,65.06,42.6,65.41,42.22,65.77Z"/><path class="cls-67" d="M56.62,63.18c-.06,1.22-.92,1.28-1.85,1.33-1.26.07-2.53-.29-3.68.82-.7.68-.9-.25-1-.84-1-.73-.71-1.73-.61-2.7A2.35,2.35,0,0,1,51.35,60a2.64,2.64,0,0,1,1.63.22c.47,1.37,1.76,1,2.72,1.11.55.09,1.13-.06,1.43.51S57,62.79,56.62,63.18Z"/><path class="cls-26" d="M56.62,63.18c-.08-1.4-1.14-1.3-2.09-1.33s-1.76,0-1.79-1.25c0-.61.41-.69.85-.71.19,0,.38.06.56,0s0,0-.15,0a.5.5,0,0,1-.28-.14c-.28-.3-.21-.72-.35-1.08,0-1,.34-1.35,1.38-1.29.58,0,1.21,0,1.81-.05a3,3,0,0,1,1.54.23A2.54,2.54,0,0,1,58.59,59a7.69,7.69,0,0,0,.19,1.42,1,1,0,0,0,.37.83c1.07.63.88,1.26,0,1.92Z"/><path class="cls-59" d="M13.49,63.15c-.07-.51-.06-1.07-.7-1.29s-.58-.79-.58-1.32a1.24,1.24,0,0,1,1.22-.62c1.58-.18,3.07-.11,4,1.51.58.3.85.92,1.44,1.25a1,1,0,0,1,.29,1.5.73.73,0,0,1-.44.37l-1.28-.1c-.63-1-2.05-.26-2.67-1.25Z"/><path class="cls-68" d="M42.22,65.77V64.44a1,1,0,0,1-.37-1.31.94.94,0,0,1,.46-.4,4.24,4.24,0,0,1,2.42,0c.56,1,1.75,1,2.64,1.49l.09.25c0,1-.61,1.31-1.49,1.3Z"/><path class="cls-69" d="M50.07,61.88c0,.87,0,1.74,0,2.61H47.47a1.47,1.47,0,0,1-.63-1.43,2.26,2.26,0,0,1,.47-1.58C48.28,61.27,49.27,61,50.07,61.88Z"/><path class="cls-70" d="M59.19,63.13c.16-1.15-1.47-1.43-1.26-2.6a1.67,1.67,0,0,1,2.58,0l.7.08C60.77,61.61,60.88,63.08,59.19,63.13Z"/><path class="cls-28" d="M14.74,63.2c1,.07,2.39-.48,2.67,1.25C16.36,64.37,15,65,14.74,63.2Z"/><path class="cls-71" d="M21.27,64.55l.06,1.21c-1-.11-2.36.51-2.64-1.21l0-.15C19.58,63.75,20.46,63.43,21.27,64.55Z"/><path class="cls-72" d="M48.75,47.46a2.86,2.86,0,0,0,2.5-.89,1.66,1.66,0,0,1,1.8-.81c.82.25.89,1,1,1.71v1.31a.58.58,0,0,1-.75.5s0,0,0,0l.07.08a1,1,0,0,1-.07,1c-.48.3-1,.39-1.3,1.09-.33.88-2.35,1.18-3.44.41a4,4,0,0,0-4.27-.23,4.4,4.4,0,0,1-4.07,0c-1.47-.82-1.72-2.36-.42-3.42.53-.43.48-1.23,1.19-1.44a3.61,3.61,0,0,1,1.93,0A5.37,5.37,0,0,0,47.41,48c.4-.15.74-.39,1.14-.53Z"/><path class="cls-68" d="M61.86,55.32c-.84,0-1.33.4-1.32,1.28-1,1.14-2.43.53-3.67.69A9.76,9.76,0,0,1,53,56.91c-.58-.26-1.14.12-1.7.27-1,.27-2.11.62-3-.43a2.75,2.75,0,0,1-.24-1.55c0-1.7.21-1.87,1.88-2,.8,0,1.6,0,2.39-.11.37-.1.69,0,1.07-.43,1.2-1.22,4.37-1.11,5.78,0A1.31,1.31,0,0,0,60.56,54,1.27,1.27,0,0,1,61.86,55.32Z"/><path class="cls-37" d="M59.22,52.73a8.61,8.61,0,0,1-1.61,0c-1.88-.42-3.37.57-5,1.25a3,3,0,0,1,0-3.85V48.79H54A24.4,24.4,0,0,1,58.1,51,2.28,2.28,0,0,1,59.22,52.73Z"/><path class="cls-73" d="M56.58,56.63l4,0c0,.47,0,.94,0,1.41a1.7,1.7,0,0,1-2.6-.06H56.65A.8.8,0,0,1,56.58,56.63Z"/><path class="cls-74" d="M57.93,58l2.6.06c0,.4,0,.79,0,1.19a1.64,1.64,0,0,1-2.61.1Z"/><path class="cls-75" d="M57.93,59.3l2.61-.1,0,1.3-2.58,0Z"/><path class="cls-76" d="M42.89,47.48h-2c-1.21.67-2.37,1.41-3.6,2a5.4,5.4,0,0,1-5.72-.39c-2.89-1.92-5.49-4.08-6.54-7.63-.67-2.3.19-4.41.6-6.56.21-1.14,1.15-1.29,2.41-.72a3.67,3.67,0,0,1,.54,2.33,35.72,35.72,0,0,0,2.33,4c.14.33-.05.79.42,1A4.55,4.55,0,0,1,34,44.19c0,.11.28.13.43.18a.76.76,0,0,1,.39.24c.12.48.28.93.91.92.79,0,.7-.66.84-1.15,1.2-1.57,1.25-2.39.2-4a2.32,2.32,0,0,1-.29-.9A6.78,6.78,0,0,1,36.36,38c.21-1.62.36-1.7,2.91-1.49a1.86,1.86,0,0,1,.55.22,3.88,3.88,0,0,1,.54,1.23c.1.37-.08,1,.52,1,.81,0,.47-.76.59-1.2.68-2.4,2.41-3.26,4-2,.92.06,1.71,0,2.07-1.13.28-.85.94-.43,1.51-.32,1,.2,2.16.44,2.3-1.17-1.23-1.63-1-3.36-.35-5.12a1.47,1.47,0,0,1,2.22,1c.6,2.37,1.25,4.84-.53,7.07A2.47,2.47,0,0,1,51.83,38a2.16,2.16,0,0,0-.46,1.63c.29.32.71.59.5,1.13a1.24,1.24,0,0,1-.19.48c-.51.25-1.14.38-1.18,1.12a.66.66,0,0,1-.33.33c-1.76.38-1.76.38-2.29-1.47-.25-.87-.6-1.71-1.73-1.58a2.13,2.13,0,0,0-1.9,2.32c0,.83.4.79.92.84a8.62,8.62,0,0,0,1.34.09c1.09-.08,1.68.33,1.53,1.5,0,.17-.11.35-.15.53-.35.57-1.33.52-1.35,1.41a.72.72,0,0,1-.38.31,5.18,5.18,0,0,0-1.87,1A.89.89,0,0,1,42.89,47.48Z"/><path class="cls-77" d="M52.7,36a21.63,21.63,0,0,0,0-6c-.18-.85-.36-1.58-1.27-1.88-1.08,0-.54-1.4-1.36-1.64.05-.76.08-1.52.15-2.27a.6.6,0,0,1,.5-.57c.33,0,.45.21.58.46a10.71,10.71,0,0,1,1.09,2,3.63,3.63,0,0,0,2.93,2.72,2,2,0,0,1,1.41,1.26,2.26,2.26,0,0,0,1.13,1.33c0,1.41,0,2.82,0,4.24C56.22,36.46,54.4,35.31,52.7,36Z"/><path class="cls-78" d="M52.72,42.91c-1.07,1.08-2.1,2.2-3.22,3.22a2,2,0,0,0-.75,1.33h0a1.44,1.44,0,0,1-.9.49c-.71.06-1.48.42-2.06-.3s0-1.07.31-1.52h0a11.58,11.58,0,0,0,1.33-1.29l0-.05A6.08,6.08,0,0,1,50,42.21l.05,0a8.13,8.13,0,0,0,1.27-1.35h0c.54-.44,1.17-.78,1.7-.14S53.1,42.22,52.72,42.91Z"/><path class="cls-79" d="M52.72,42.91c0-1-.06-1.95-1.39-2,0-.42,0-.84,0-1.27a5.16,5.16,0,0,0,1-.38c.38-.24.46-1,1.06-.8s.5,1,.53,1.59C54.05,41.19,54,42.34,52.72,42.91Z"/><path class="cls-53" d="M59,37.7a.38.38,0,0,1-.4.37.39.39,0,0,1-.41-.5.38.38,0,0,1,.47-.31A.39.39,0,0,1,59,37.7Z"/><path class="cls-80" d="M17.37,61.92c-1.32-.39-2.27-1.83-3.9-1.39-.27-.29-.9-.62-.6-1,.94-1.12-.33-1-.67-1.33V56.65c1.45,0,2.91,0,4.36,0,.53,0,1.16.05,1.41-.56s-.24-.91-.5-1.29a3.71,3.71,0,0,0-.67-.7c-.28-.26-.63-.48-.46-.93s.63-.54,1.07-.53c.86,0,1.73.06,2.59.1l.22,0a1.18,1.18,0,0,0,1.38.59,2.3,2.3,0,0,1,1.19.1c.39.58.55,1.49,1.6,1.17.81,0,1.61.1,2.42,0a20,20,0,0,1,5,.08,1.87,1.87,0,0,1,1,.45,1.84,1.84,0,0,1,0,1.57c-1.34,1.19-2.95.58-4.45.66-1.05.09-2.31-.48-3,.86a1.4,1.4,0,0,1-1.28.19,1.19,1.19,0,0,1-.48-.23,1.74,1.74,0,0,0-3.11,0c.17.27-.68.09-.22.5a1.61,1.61,0,0,1,.32,2c-.3.69-1,.49-1.61.53s-1-.12-1.22.51A.73.73,0,0,1,17.37,61.92Z"/><path class="cls-7" d="M16,50.05l.06-1.24c2.57-.05,2.57-.05,2.6-2.65l.14-.27c.89-.63,1.54-.41,1.89.6.44,1.25,1.61,2.25,1.24,3.76-.1.91.41,1.91-.36,2.75A1.13,1.13,0,0,1,20,52.68l0,0c0-2.63,0-2.63-2.68-2.61C16.89,50.1,16.47,50.07,16,50.05Z"/><path class="cls-81" d="M13.44,51.38l0-1.25H14.8C14.8,51.06,14.31,51.43,13.44,51.38Z"/><path class="cls-26" d="M16.05,37a2.22,2.22,0,0,0,2.13-1.19c.66-1.35,1.79-1.53,3.08-1.45,1.26.59.57,1.74.67,2.62s.15,2.1-1.48,2c-.36,0-.65.47-.7.94A4,4,0,0,1,17.61,42a1.1,1.1,0,0,1-1.5-.42L16,40A2.18,2.18,0,0,1,16.05,37Z"/><path class="cls-82" d="M16.11,41.57a3,3,0,0,0,2.62-2c.59-.85,1.53-.6,2.29-.56,1,0,1.28,1.46.58,2.3-.21.25-.57.35-.75.61-.69,1-1.88,1.67-1.47,3.19.1.37-.39.74-.69,1v0c-.3-.09-.84-.14-.87-.28C17.53,44.33,16,43.29,16.11,41.57Z"/><path class="cls-53" d="M16.05,37l0,3c-1.82-.52-1.09-2.08-1.31-3.25l.09-.46A1.71,1.71,0,0,1,16.05,37Z"/><path class="cls-38" d="M12.2,58.24A6,6,0,0,1,14.89,58c.33,0,.69.13.75.49s-.33.63-.7.68c-.82.11-1.47.37-1.47,1.35H12.21l-.13-1.26Z"/><path class="cls-83" d="M18.69,46.18c-.23-2.09.1-3.92,2-5.28.87-.63.37-1.1-.46-1.24a14.13,14.13,0,0,0-1.46-.07c0-.51.15-1.09.7-1.12,2.11-.1,1.9-1.57,1.86-3,0-.37,0-.74,0-1.12,0-.75,0-1.51,0-2.27,1-.83.34-2.23,1.07-3.16.15-.15.47-.19.52-.35.72-2.2,2.8-3.41,3.9-5.3a27.64,27.64,0,0,1,2-2.31,1.37,1.37,0,0,1,1.79-.21c.88.43.42,1.32.54,2a2.22,2.22,0,0,1-.42,1.37c-.52.35-.92.63-.82,1.47a1.46,1.46,0,0,1-1.56,1.76c-.47,0-1.06,0-1.1.64-.17,2.75-1.71,4.85-3,7.12a6.72,6.72,0,0,0,0,6.4c.66,1.45,1.83,2.67,1.95,4.36-.11.36-.27.75.13,1,1.23.76,1.17,1.85.82,3a1.19,1.19,0,0,1-.25.47c-1.18.32-1.58,1.92-3,1.85-1,.08-1.69-.18-1.79-1.36,0-.28-.37-.6-.64-.84C20.29,48.88,20.5,46.85,18.69,46.18Z"/><path class="cls-84" d="M21.21,31.76c-1.09,0-2.36-.28-2.6,1.42-.06.43-.55.49-.94.37-.75-.23-1.46-.59-1.53-1.47s-.05-1.95-.07-2.92c.32-.28.56-.71,1.09-.62,1.32-.14,1.19-1.19,1.08-2-.23-1.84-.3-1.83,1.52-1.94,1.17-.07,2.39-.34,3.29.75a1.76,1.76,0,0,1,.13,1.33c-1.31.54-1.29,1.65-1.23,2.78C21.79,30.24,22.35,31.27,21.21,31.76Z"/><path class="cls-85" d="M17.35,29.19l-1.28,0c0-1.73.06-3.47.08-5.2l1.19-.06C18.53,24.94,18.53,28,17.35,29.19Z"/><path class="cls-69" d="M21.21,31.76l.1-2.58c.3-.31.58-.65,1.07-.4a.56.56,0,0,1,.26.41c-.1,1.14.28,2.49-1.34,2.92Z"/><path class="cls-57" d="M17.35,29.19a34.6,34.6,0,0,0,0-5.29c0-.87,0-1.74,0-2.61L17.47,20h1.22a1.61,1.61,0,0,1,.2,1.52c-.22.71-.52,1.61.28,2s.87-.8,1.5-.93a6.3,6.3,0,0,0,1.38.61c1.24.38,1.3.52.84,1.86l-.27.14c-.92,0-1.84,0-2.75.06s-1.35.42-.51,1.21c.52.48.59.9,0,1.32a1.84,1.84,0,0,0-.7,1.4c-.07.41-.09,1-.67.94S17.45,29.6,17.35,29.19Z"/><path class="cls-86" d="M25.2,15.41c.38-.71,1.58-.82,1.42-1.93l1.25,0a2.69,2.69,0,0,0,1.42.86.67.67,0,0,1,.31.37,1.61,1.61,0,0,1,0,1.2,1.35,1.35,0,0,1-.2.44c-.48.23-1.11.3-1.13,1a.65.65,0,0,1-.28.35c-.56.12-1,.36-1,1a.8.8,0,0,1-.3.33,1.67,1.67,0,0,0-1.23.86l-.22,0c-.92.07-1.39-.34-1.38-1.27A1.32,1.32,0,0,1,24,16.52,8.33,8.33,0,0,0,25.2,15.41Z"/><path class="cls-87" d="M29.15,13.44c0-1,.6-1.25,1.45-1.27s1.22.49,1.19,1.32l-.07.22A2,2,0,0,0,30.77,15a1.15,1.15,0,0,1-.46.22c-.51.18-.83-.12-1.13-.45l-.1-.1C28.61,14.26,28.75,13.85,29.15,13.44Z"/><path class="cls-88" d="M29.15,13.44c0,.43,0,.85-.07,1.27-.84,0-1.19-.4-1.21-1.18Z"/><path class="cls-89" d="M33.06,14.76l-1.25.12a.6.6,0,0,1-.44-.26c-.25-.52.07-.83.42-1.12h1.3Z"/><path class="cls-69" d="M22.6,26.54l0-1.29,0,0c.63-.36.61-1.06.85-1.62.49-.29,1.31-.16,1.32-1a.69.69,0,0,1,.29-.34,1.81,1.81,0,0,0,1.26-.87l.22,0c1.08.07,1.5-1,2.32-1.38,2.36-1.17,4.68-2.42,7-3.61a5.59,5.59,0,0,1,2.41-.26,13.89,13.89,0,0,1,6.29-.53c1.51.15,3,.61,4.57.62a3.4,3.4,0,0,1,2.55,1.23h0a3.91,3.91,0,0,0,1.66.6c.66.18,1.44.46.61,1.38-2,0-4,.17-5.88-.66h-2l-.24-.07c-1.3-1.49-1.66.09-2.32.7a2,2,0,0,1-1.28-.2C41,17.65,39.52,17.62,38.39,19a2.25,2.25,0,0,1-1.24.31c-.42,0-.84,0-1.26,0-1-.19-.91.73-1.3,1.15-.37.23-.79,0-1.16.15-.88-.1-1,.45-1,1.14A1.7,1.7,0,0,1,31.79,23a1,1,0,0,1-1.3-.29c-.19-1.09-.6-1.64-1.49-.5-1.62,2.1-3.74,3.79-5.08,6.11a1.84,1.84,0,0,1-1.28.91l-.06-.05A1.66,1.66,0,0,1,22.6,26.54Z"/><path class="cls-34" d="M44.89,29.19l-.1,1.19c-.46,1.13-1.52.69-2.3.81s-1.73-.42-2.1.59a1.92,1.92,0,0,0,.83,2.52c.13.08.14.28.21.44a3,3,0,0,1,.22,1.41c0,.53-.08,1.07-.65,1.33s-1-.07-1.37-.48l0,0c-.33-.79-1.45-.43-1.78-1.23C37.16,35,36,34.39,36.35,33c0-.44.09-.87.06-1.31,1.29-.93,1.29-.93.09-2.57a1.61,1.61,0,0,1,.1-1.27,5.14,5.14,0,0,0,1.62-1.66A1.45,1.45,0,0,1,39.45,26c.89-.15.71,1.2,1.56,1.1a2.6,2.6,0,0,0,1.11,0c.57-.07.83-.47.47-.86s-.16-1-.22-1.46c.4-.9.4-2,1.12-2.72a2.79,2.79,0,0,1,1.46.14,7.83,7.83,0,0,1,1.71,3A2.36,2.36,0,0,1,46,28.11,6.89,6.89,0,0,0,44.89,29.19Z"/><path class="cls-90" d="M44.89,29.19a1.78,1.78,0,0,1,.55-1.31,1.64,1.64,0,0,0,0-2.67c-.79-.74-.55-1.7-.63-2.6-.23-.25-.52-.47-.45-.88a.92.92,0,0,1,1.49-.38,1.45,1.45,0,0,0,1.59,0c1.32.09,1.52,1.1,1.26,2-.58,1.92-1.12,3.91-2.65,5.39A1.91,1.91,0,0,1,44.89,29.19Z"/><path class="cls-68" d="M39.63,37c1.69-.21,1.18-1.53,1.27-2.54a1.84,1.84,0,0,1,.05-.25c1-.53,1.65-1.53,2.84-1.69a2.28,2.28,0,0,1,2.37.57c-.23.86-.46,1.72-.68,2.59a3.26,3.26,0,0,0-3.28,2.61,1.52,1.52,0,0,1-2.56,0Z"/><path class="cls-91" d="M50.08,26.56c1.09,0,1.28.78,1.35,1.64,0,1.62,0,3.24-.07,4.86-.87-.07-2.1.39-2.4-.75a5.64,5.64,0,0,1,.3-4.39C49.53,27.46,50,27.12,50.08,26.56Z"/><path class="cls-70" d="M46.16,33.09h-2.6c-1.18-.26-1.9.46-2.61,1.22l-.05.14c-1.74-.29-1.24-1.63-1.22-2.69s.83-1.27,1.7-1.3l3.41-.09C44.71,31.55,46.2,31.93,46.16,33.09Z"/><path class="cls-92" d="M47.45,21.33c-.54,2.33-1.66.4-2.53.34a.64.64,0,0,1-.47-.34,3,3,0,0,1-.24-1.51,2.18,2.18,0,0,1,.49-1.51c.64-.41,1.06,0,1.45.41h0c0,.42,0,.85,0,1.28.36.5,1.09.65,1.27,1.33Z"/><path class="cls-90" d="M47.45,21.32c-.61-.26-1.18-.58-1.27-1.33A1.2,1.2,0,0,1,47.45,21.32Z"/><path class="cls-93" d="M54,19.37c-.55-.9-1.88-.9-2.27-2h3.62c0,.86,0,1.73,0,2.6a4.62,4.62,0,0,0,1.34,1.34.79.79,0,0,1,0,1.29c-.63-.05-1.17-.28-1.3-.95A5.82,5.82,0,0,0,54,19.37Z"/><path class="cls-94" d="M56.63,22.62c0-.43,0-.86,0-1.3h1.28c0,.42,0,.85,0,1.28Z"/><path class="cls-93" d="M51.71,17.39A4.87,4.87,0,0,0,48.56,17a6,6,0,0,1-3.5-.41c-2.19-.9-4.51-.3-6.76-.48a1.4,1.4,0,0,1,1-.8c3.12-.25,6.25-1.23,9.36-.34A4.49,4.49,0,0,1,51.71,17.39Z"/><path class="cls-95" d="M29.21,17.46a1.26,1.26,0,0,1-1.3,1.31.61.61,0,0,1-.45-.25c-.28-.51.06-.82.37-1.14h0c.32-.31.62-.66,1.13-.37A.61.61,0,0,1,29.21,17.46Z"/><path class="cls-96" d="M27.91,18.77a1.25,1.25,0,0,1-1.3,1.28.56.56,0,0,1-.44-.24c-.3-.5,0-.81.33-1.14h0a.79.79,0,0,1,1.28,0Z"/><path class="cls-97" d="M25.16,21.28,25.23,20l0,0c.42-.4.84-.5,1.27,0l.13.08c0,.43,0,.85-.07,1.27h0c-.31.31-.6.66-1.11.39A.56.56,0,0,1,25.16,21.28Z"/><path class="cls-98" d="M31.81,14.88c0,.89-.5,1.23-1.3,1.3a.59.59,0,0,1-.44-.26c-.27-.51.05-.83.38-1.15h0a.81.81,0,0,1,1.29-.07A1.34,1.34,0,0,1,31.81,14.88Z"/><path class="cls-59" d="M30.51,16.18a1.24,1.24,0,0,1-1.3,1.28l-.11-.12a.76.76,0,0,1,0-1.25v0a.79.79,0,0,1,1.28,0Z"/><path class="cls-99" d="M25.2,15.41c.49,1.49-1.31,2.06-1.35,3.33-1.18-.11-1.25-1-1.23-1.86,0-.69.05-1.38.07-2.07A5.62,5.62,0,0,1,25.2,15.41Z"/><path class="cls-95" d="M23.94,24a1.21,1.21,0,0,1-1.34,1.27c0-1.36-1.58-1.51-1.93-2.59l3.24-.05.26.13C24.59,23.22,24.29,23.59,23.94,24Z"/><path class="cls-100" d="M20,18.68a6.38,6.38,0,0,1,.63.12.59.59,0,0,1,.48.57.41.41,0,0,1-.41.41c-.32,0-.48-.21-.57-.47a4.4,4.4,0,0,1-.13-.63Z"/><path class="cls-98" d="M23.91,22.59a1.23,1.23,0,0,1,1.25-1.31l.12.08a.78.78,0,0,1-.05,1.27h0a.79.79,0,0,1-1.27.09Z"/><path class="cls-98" d="M31.79,63.2l-3-.09a1,1,0,0,1-.23-1.49,1.29,1.29,0,0,1,.66-.28c4.21-.29,8.43,0,12.64-.11.17,0,.36.22.56.32a1,1,0,0,1-.24,1.54l.05.12a.81.81,0,0,1-1.3,0l-2.67,0a1.67,1.67,0,0,1-2.56,0H33A.76.76,0,0,1,31.79,63.2Z"/><path class="cls-38" d="M21.27,64.55l-2.6-.15c0-1.07-.91-1.63-1.3-2.48a1.34,1.34,0,0,0,.07-.18c.82-.74,1.77-.47,2.72-.36.68,1.63,2.11,1.08,3.31,1.09a7.22,7.22,0,0,1,2.73.29.68.68,0,0,1,.36.43c-.1.94-.68,1.27-1.56,1.28C23.76,64.48,22.52,64.52,21.27,64.55Z"/><path class="cls-101" d="M35.71,63.2l2.56,0c0,.91-.58,1.21-1.41,1.2S35.69,64,35.71,63.2Z"/><path class="cls-102" d="M26.56,63.19l-.42-.08a1.07,1.07,0,0,1-.2-1.49,1,1,0,0,1,.61-.25c.79,0,1.73-.55,2.25.57v1.17Z"/><path class="cls-103" d="M40.94,63.2h1.3c0,.41,0,.82,0,1.23C41.36,64.48,40.89,64.11,40.94,63.2Z"/><path class="cls-104" d="M31.79,63.2H33c0,.46,0,1.08-.63,1.07S31.81,63.67,31.79,63.2Z"/><path class="cls-105" d="M42.21,61.92l-13-.11A.9.9,0,0,1,29,60.33c1.61-.83,3.38-.42,5.05-.44,3.12,0,6.25,0,9.38,0,.88-.06,1.75,0,2.63,0a7.52,7.52,0,0,0,3.63-1.06,1.38,1.38,0,0,1,2.08.34,1.1,1.1,0,0,1-.39,1.39,1.91,1.91,0,0,0-1.33,1.34l-2.65,0c-.74.81-1.73.47-2.62.58C43.91,62.43,43,62.68,42.21,61.92Z"/><path class="cls-106" d="M51.4,60.54V59.26c.87-1.27,1.75-.76,2.64,0,.79.17,2.19-.37,2.2.66s-1.4.52-2.19.67a8,8,0,0,1-1.3,0Z"/><path class="cls-67" d="M54,59.23l-2.64,0c-1.67.81-3.32,1.74-5.3,1.25-.67-.75-2.19-.77-2-2.28.19-1.06,1.63-.85,1.87-1.86a2.28,2.28,0,0,1,2.77.26,3.32,3.32,0,0,0,2.66-.86,1.64,1.64,0,0,1,2.35,0,3.32,3.32,0,0,0,2.81.84c0,.44,0,.87.07,1.31C55.66,58.13,54.21,57.39,54,59.23Z"/><path class="cls-56" d="M42.21,61.92h2.6c.41.3.68.64.3,1.15l-.24.12-2.68-.11C42.2,62.7,42.21,62.31,42.21,61.92Z"/><path class="cls-105" d="M47.46,63.19c0,.43,0,.87,0,1.3-1-.18-2.41.5-2.6-1.29l0,0A1.64,1.64,0,0,1,47.46,63.19Z"/><path class="cls-107" d="M47.46,63.19l-2.62,0,0-1.24h2.61C47.43,62.35,47.45,62.77,47.46,63.19Z"/><path class="cls-108" d="M25.23,45.84c-1.78-2.69-3.05-5.53-2.62-8.88a3.74,3.74,0,0,1,.46-1.88,18.36,18.36,0,0,0,3.58-7.69c.14-.64.7-.77,1.26-.83a2.5,2.5,0,0,1,.52,2.58,2.39,2.39,0,0,0,.15,1.42,1.81,1.81,0,0,1,0,1.15,14.85,14.85,0,0,1-.19,1.75,2.47,2.47,0,0,1-.19.72.64.64,0,0,1-.43.2c-1,.17-1.41.82-1.56,1.8-.88,5.91.72,9.28,6,12.33a4.64,4.64,0,0,0,5.37-.11,4.77,4.77,0,0,1,3.36-.91,7.87,7.87,0,0,1-.47.86c-.44.62-1,1.22-.5,2a2.21,2.21,0,0,0,2.31.86,9.57,9.57,0,0,0,2-.6c1.64-.67,3.21-1,4.7.36a1.52,1.52,0,0,0,1.83.17c.85-.49-.06-1.15.07-1.77l1.79.7a16,16,0,0,1,0,3.85L50.1,54a1.21,1.21,0,0,0-1.33,1.27C48,56.23,47,55.86,46,56c-2.28,0-4.56,0-6.85,0-.11-.06-.26,0-.31-.07C37.1,54.21,35,54.26,32.8,54.67a1.4,1.4,0,0,1-1.86-1.32c-.29-1.74-1.57-2.9-2.93-3.9-.21-.15-.67-.21-.67-.45C27.31,47.48,25.87,46.93,25.23,45.84Z"/><path class="cls-54" d="M46.11,46.13c.1,1.29,1,1.33,2,1.35.55.61.06.94-.35,1.3H44.88a1.87,1.87,0,0,1-2-1.29A3.24,3.24,0,0,1,46.11,46.13Z"/><path class="cls-37" d="M52.71,48.81c-.58-.14-1.06-.16-1-.75a.41.41,0,0,1,.3-.3C52.65,47.77,52.59,48.34,52.71,48.81Z"/><path class="cls-37" d="M47.77,48.78l.35-1.3.64,0A1.21,1.21,0,0,1,47.77,48.78Z"/><path class="cls-81" d="M46.13,55.38l2.64-.07c0,.44,0,.88,0,1.32-.86.36-1.74-.08-2.6.09l-.26-.13C45.52,56.1,45.73,55.72,46.13,55.38Z"/><path class="cls-109" d="M37.07,39.59c.49.08,1,.18,1.11.75a9.77,9.77,0,0,1,0,3.81c-.13.55-.66.64-1.13.76a1.69,1.69,0,0,1-2.62,0h0a1.24,1.24,0,0,1-.54-1.59c.57-1.18-.12-1.39-1-1.52-.65-.09-1.47.06-1.57-1a3.62,3.62,0,0,1,.13-2.59c.53-.81,1.28-.56,2-.47a17,17,0,0,1,2,.09,1.5,1.5,0,0,1,.5.18C36.27,38.54,36.39,39.27,37.07,39.59Z"/><path class="cls-110" d="M50,42.21a3.27,3.27,0,0,1-2.58,2.59,1.23,1.23,0,0,0-1.3-1.28c-.41-.54-.82-.58-1.24,0-1.72-.12-1.35-1.42-1.32-2.43a3.16,3.16,0,0,1,2.6-2.69,2.51,2.51,0,0,1,2.54,2.28C48.89,41.45,49,42.16,50,42.21Z"/><path class="cls-111" d="M31.76,40.92c.81,0,1.63,0,2.44,0a1.37,1.37,0,0,1,1,2.39,2.63,2.63,0,0,0-.86,1.52,7.06,7.06,0,0,1-4-3.86C30.84,40.32,31.29,40.51,31.76,40.92Z"/><path class="cls-112" d="M31.76,40.92,30.43,41c-.25-.09-.71-.13-.73-.27-.31-1.39-1.7-2.27-1.78-3.75.65-.91,1.53-.71,2.41-.49s1.29,1,1.42,1.85Z"/><path class="cls-113" d="M30.44,37l-2.52,0-.15-2.6.15,0a2.13,2.13,0,0,1,2.8-.12C31.16,35.24,31.68,36.21,30.44,37Z"/><path class="cls-67" d="M38.33,35.65A1.22,1.22,0,0,1,39.59,37c-1,.15-2.43-.48-2.63,1.31a.78.78,0,0,1-1.28,0h0a1.52,1.52,0,0,1-.59-1.43,1.82,1.82,0,0,1,.56-1.51A2.13,2.13,0,0,1,38.33,35.65Z"/><path class="cls-114" d="M44.89,43.5c.16-.81-.54-2.29.69-2.26s.41,1.47.55,2.28Z"/><path class="cls-115" d="M39.64,38.29H42.2c0,.83-.4,1.3-1.28,1.3S39.67,39.12,39.64,38.29Z"/><path class="cls-111" d="M34.39,44.86l2.62,0a1.16,1.16,0,0,1-1.34,1.21A1.14,1.14,0,0,1,34.39,44.86Z"/><path class="cls-68" d="M47.45,44.85a1.16,1.16,0,0,1-1.33,1.29C46.11,45.24,46.59,44.84,47.45,44.85Z"/><path class="cls-79" d="M51.33,40.88a1.15,1.15,0,0,1-1.27,1.35A1.16,1.16,0,0,1,51.33,40.88Z"/><path class="cls-69" d="M35.68,38.35H37c0,.42.07.84.11,1.25A1.22,1.22,0,0,1,35.68,38.35Z"/><path class="cls-116" d="M25.23,45.84c1.21.31,1.78,1.33,2.5,2.2a9.78,9.78,0,0,0,4.18,3.45c.7.25,1,.64.36,1.29-.24.24-.44.57-.14.84s.69,0,.94-.26.58-.61.8-.45c1.55,1.13,3.9.51,5.09,2.36-.27.89-1,.76-1.7.81-.94.06-1.89-.1-2.83-.11a2.51,2.51,0,0,1-2-.59l-5.86-.11c-.78-.7-1.82-1-2.57-1.79s-.81-1.13-.06-1.75,1.37-1.68,2.62-1.64c.18.17.33.37.56.57-.2-.23-.4-.38-.57-.56,0-1.07.1-2.14-.91-2.91C25.21,46.88,25.25,46.32,25.23,45.84Z"/><path class="cls-117" d="M20,61.91l-2.51-.17c0-1.05.86-1.1,1.61-1.24.33-.06.65-.19.66-.6s-.25-.43-.51-.55c-.52-.26-1.62.07-1.45-.86S19,58,19.61,57.9h.33a3.44,3.44,0,0,1,4,.06l0,0c1.05,1.09.6,2.44.57,3.7a.91.91,0,0,1-.88.82C22.38,62.41,21.06,62.86,20,61.91Z"/><path class="cls-118" d="M27.87,56.68l4.53-.07c.51-.68,1.26-.59,2-.61,1.37-.06,2.68,0,3.06,1.69-.09,1-1.38,1.14-1.59,2.06a4.73,4.73,0,0,1-1.4.1,1,1,0,0,1-.5-.36c-.75-1.18-1-1.17-1.76,0a.73.73,0,0,1-.48.35c-.87.07-1.74,0-2.6,0-.55-.1-1.18.12-1.59-.47C27.19,58.45,26.87,57.48,27.87,56.68Z"/><path class="cls-119" d="M20,61.91c4.07-.09,4,.46,4-4l1.33,0,.24.11c.21.9,1.19,1.43,1.17,2.44-.13.49-.8.8-.49,1.45,0,.4,0,.8,0,1.21l-4.5.08C20.74,63.2,20.05,63,20,61.91Z"/><path class="cls-69" d="M23.92,51.73c.3,1,1.22,1.47,1.85,2.18a2.39,2.39,0,0,1,.78,1.36H24c-.56-.29-.9-.84-1.41-1.2L21.34,54c-.45-.39-.52-.8-.07-1.23l.06-2.68C22.57,50,22.77,51.61,23.92,51.73Z"/><path class="cls-95" d="M27.87,56.68l0,2.57c-.65,1.12-1.29.55-1.78-.1-.29-.38-.48-.86-.8-1.24h0C25.5,56.14,26.85,56.77,27.87,56.68Z"/><path class="cls-120" d="M23.91,58l-4-.06c.19-1.35,1.22-1.25,2.18-1.26S23.85,56.78,23.91,58Z"/><path class="cls-121" d="M34.37,56.62h-2c0-.41,0-.82,0-1.23h2A.73.73,0,0,1,34.37,56.62Z"/><path class="cls-122" d="M22.59,54.07c.94-.15,1.41.26,1.41,1.2A1.18,1.18,0,0,1,22.59,54.07Z"/><path class="cls-123" d="M21.27,52.75,21.34,54c-.89,0-1.35-.39-1.31-1.3Z"/><path class="cls-124" d="M27.9,30.79c0-1.41,0-2.82,0-4.23.92.05,1.25-.47,1.25-1.29A1.2,1.2,0,0,1,30.4,23.9l.27.07a1.46,1.46,0,0,1,.44,1.25c0,.46,0,.93,0,1.39a4.72,4.72,0,0,1-.17,1.4.8.8,0,0,1-.25.53c-.67.19-.85.65-.93,1.31C29.61,31.13,29.17,31.32,27.9,30.79Z"/><path class="cls-125" d="M21.21,44.81c-.43-.05-1-.11-.93-.63a2.23,2.23,0,0,1,1.58-1.64c.61-.16.69.53.69,1C22.54,44.43,22,44.8,21.21,44.81Z"/><path class="cls-95" d="M30.49,22.67l1.2-.05.31.13a1.17,1.17,0,0,1,0,1.52c-.59.44-1,.17-1.44-.3l-.13-.07Z"/><path class="cls-126" d="M22.6,26.54c0,.87,0,1.73,0,2.6l-1.27,0C21.41,28.14,20.89,26.79,22.6,26.54Z"/><path class="cls-2" d="M27.8,18.65l-1.28,0c-.11-1,.4-1.34,1.31-1.3Z"/><path class="cls-127" d="M26.48,20l-1.27,0c0-.88.35-1.39,1.29-1.32Z"/><path class="cls-128" d="M30.42,16l-1.28,0c0-.42,0-.84,0-1.26l1.27,0Z"/><path class="cls-129" d="M29.15,16.09c0,.42,0,.83,0,1.25l-1.27.05C27.76,16.43,28.21,16,29.15,16.09Z"/><path class="cls-120" d="M31.74,14.7l-1.29.07c0-.93.45-1.31,1.34-1.27Z"/><path class="cls-130" d="M44.82,18.73V20a.72.72,0,0,0,0,1.27l.1.37c0,.31-.06.63-.1.94H43.55c-.4.43-.82.8-1.45.4a3.44,3.44,0,0,1-.55-2.75,1.89,1.89,0,0,1,.4-1.43l.27-.13,1.34-.07C44,18.26,44.44,18.1,44.82,18.73Z"/><path class="cls-131" d="M37,18.75l1.34,0,.29.17c.67.77.27,1.7.35,2.56a2,2,0,0,1-.56,1.48,3,3,0,0,1-2.59.13c-.94-.82-1.12-1.65,0-2.47.24-.17.27-.44.37-.67A2.12,2.12,0,0,1,37,18.75Z"/><path class="cls-132" d="M37,20.06c0,.46,0,1-.53,1.18-.72.23-.69.81-.74,1.38l-.07.24a1,1,0,0,1-1.17.22A1,1,0,0,1,34,22.8a1.48,1.48,0,0,0-1.2-1.17,1,1,0,0,1-.23-.47c-.18-.55.17-.84.55-1.11L34.37,20a1.4,1.4,0,0,1,1.32-.58A1.22,1.22,0,0,1,37,20.06Z"/><path class="cls-96" d="M38.31,18.71c0-1.53,1.19-1.27,2.13-1.3s1.81,0,1.78,1.3l0,0a3.21,3.21,0,0,1-4,0Z"/><path class="cls-25" d="M44.82,18.73l-1.26-.09a1.12,1.12,0,0,1,1.23-1.2,1.21,1.21,0,0,1,1.36,1.28Z"/><path class="cls-133" d="M35.65,20H34.37a1.16,1.16,0,0,1,1.37-1.23C36.19,19.2,36.09,19.6,35.65,20Z"/><path class="cls-134" d="M35.65,20l.09-1.22H37c0,.44,0,.87,0,1.31Z"/><path class="cls-135" d="M33.15,20.05,33,21.27c-.37.65-.79.47-1.23.09A1.17,1.17,0,0,1,33.15,20.05Z"/><path class="cls-26" d="M25.23,22.63c0-.42,0-.85.05-1.27l1.25-.05A1.2,1.2,0,0,1,25.23,22.63Z"/><path class="cls-136" d="M31.8,21.36,33,21.27l.11.11a1.07,1.07,0,0,1,.16,1.52c-.59.47-1,.24-1.46-.28h-.15Z"/><path class="cls-34" d="M24,22.71l1.27-.09A1.2,1.2,0,0,1,23.94,24C23.94,23.54,24,23.13,24,22.71Z"/><path class="cls-107" d="M42.87,25.29c.26,1,1.47,2.2-.66,2.55-.44-.59-.87-.54-1.29,0a1.22,1.22,0,0,1-1.31-1.32,1,1,0,0,1,0-1.58C40.7,24.67,41.89,24,42.87,25.29Z"/><path class="cls-137" d="M42.87,25.29l-3.18,0a.62.62,0,0,1-.46-.27,1.45,1.45,0,0,1,0-1.3c.67-.72,1.95-.29,2.47-1.3a.54.54,0,0,1,.51.14l1.36,0C43.37,23.52,43.92,24.61,42.87,25.29Z"/><path class="cls-4" d="M37,29.13c.79.08,1.29.44,1.3,1.31A1.23,1.23,0,0,1,37,31.81c-.8-.14-1.05-1-1.72-1.32a1.43,1.43,0,0,1-.05-1.32.84.84,0,0,1,.4-.41A1,1,0,0,1,37,29.13Z"/><path class="cls-14" d="M38.33,35.65l-2.58.11a.74.74,0,0,1-.5-.36c-.38-.94-.61-1.86.24-2.68a1.13,1.13,0,0,1,1.48.34C36.89,34.2,38.36,34.54,38.33,35.65Z"/><path class="cls-138" d="M37,33.06H35.73c-1.14-.54-.65-1.42-.47-2.24a.65.65,0,0,1,.47-.33c.87,0,1.24.51,1.3,1.32Z"/><path class="cls-139" d="M39.69,25.32l-.08,1.22-1.21.09a.89.89,0,0,1-.53-.42.93.93,0,0,1,.29-1.4c.59-.37,1,0,1.41.38Z"/><path class="cls-139" d="M38.4,26.63A1.31,1.31,0,0,1,37,27.94l-.31-.2c-.32-.49-.48-1,0-1.44s1.08-.24,1.54.22Z"/><path class="cls-138" d="M40.92,27.86c.06-.46,0-1.06.64-1.06s.6.59.65,1Z"/><path class="cls-50" d="M37,29.13l-1.24.06c-.59-.4-.75-.92-.27-1.47s1-.35,1.52.08l.06.14C37,28.33,37,28.73,37,29.13Z"/><path class="cls-140" d="M41,34.32c0-.33,0-.65,0-1,0-.77.19-1.42,1.11-1.52a1.23,1.23,0,0,1,1.51,1.27C43.3,34.81,42,34.3,41,34.32Z"/><path class="cls-141" d="M44.82,21.3c-.48-.05-1.1,0-1-.71s.6-.53,1-.56Z"/><path class="cls-7" d="M29.15,60.63l0,1.18-.39.13-2.19-.13c-.58-.4-.49-.88-.15-1.38.7-.78,1.54-.5,2.37-.3A.69.69,0,0,1,29.15,60.63Z"/><path class="cls-98" d="M26.6,60.62c0,.39,0,.79,0,1.19l-.43.09c-.41-.11-.83-.23-.78-.77s.43-.52.78-.61A.26.26,0,0,1,26.6,60.62Z"/><path class="cls-75" d="M29.08,59.32l2.7-.09a1.63,1.63,0,0,1,2.56,0h1.4c.69-.83,1.67-.49,2.53-.64a11.9,11.9,0,0,1,2.86,0c.88.21,1.86-.2,2.67.42a1,1,0,0,1-.31,1.5l-14.34.14a1.09,1.09,0,0,0,0-.18A.66.66,0,0,1,29.08,59.32Z"/><path class="cls-107" d="M43.49,60.49V59.3c0-.93.25-1.46,1.29-1,.07.95,1.54,1.07,1.3,2.2Z"/><path class="cls-68" d="M44.79,58.31l-1.29,1-2.58,0c-.92-1.26-.7-2,.75-2,1,0,1.2-.66,1.7-1.12,1-.12,2-.41,2.78.39v.15C46.15,57.63,45.42,57.93,44.79,58.31Z"/><path class="cls-42" d="M46.15,56.57l-2.57.11c-.26.28-.66.66-.9.61-1.67-.33-3,.59-4.37,1.14-.55.1-1.09.18-1.3-.54a2.89,2.89,0,0,0-2.64-1.27V55.37l4.59-.1,7.17.11Z"/><path class="cls-142" d="M30.48,34.42l-2.56,0,0-.64c.92-.62.35-2,1.25-2.59a8.94,8.94,0,0,1,2.53-.05c.51,0,1,0,1.52,0a2.94,2.94,0,0,1,1.51.37c.58,1.7.22,2.25-1.43,2.31-.85,0-1.8-.42-2.5.44Z"/><path class="cls-143" d="M31.74,31.76l-2.58,0a.79.79,0,0,1-1.29,0l0-1a1.58,1.58,0,0,0,1.26-1.44,1.26,1.26,0,0,1,1.24-1.19c1,.51,1,1.69,1.83,2.31A1.08,1.08,0,0,1,31.74,31.76Z"/><path class="cls-113" d="M27.87,31.78l1.29,0c-.06.89,0,1.85-1.27,2Z"/><path class="cls-69" d="M35.65,37c0,.45,0,.9,0,1.36H31.75A1.29,1.29,0,0,1,30.44,37c0-.86,0-1.72,0-2.58h0c1.43-1.11,2.57-1,3.3.42C33.5,36.35,35.06,36.25,35.65,37Z"/><path class="cls-144" d="M35.65,37c-1-.09-2.4.47-2.53-1.33a1.57,1.57,0,0,1,2.53,0l.1.09C35.72,36.17,35.69,36.58,35.65,37Z"/><path class="cls-83" d="M26.53,50.1c.38,0,.75,0,1.13,0s1,0,1.23.57-.23,1-.62,1.38a1.07,1.07,0,0,1-1.15.4c-.48-.18-.54-.64-.56-1.08s0-.86,0-1.29Z"/><path class="cls-80" d="M29.08,59.32l.06,1.13-2.54.17-.42-.1c-.37-.85-1.1-1.57-.92-2.61,1.17-.15,1.39,1.53,2.58,1.34Z"/><path class="cls-145" d="M34.34,59.2l-2.56,0c0-.78.34-1.24,1.16-1.24S34.31,58.3,34.34,59.2Z"/><path class="cls-53" d="M37,57.89l1.3,0c.6.45.42.89,0,1.33l-2.55,0C35.7,58.31,36.26,58,37,57.89Z"/><path class="cls-146" d="M31.8,30.51c-1.68-.06-1.25-1.38-1.4-2.35a2.86,2.86,0,0,0,.07-.28.94.94,0,0,1,1.27-.4,7.27,7.27,0,0,0,1.92,1.71,1.74,1.74,0,0,1-.4,1.48A1,1,0,0,1,31.8,30.51Z"/><path class="cls-127" d="M30.53,24l1.21,0c.41-.4.81-.81,1.45-.41A1.38,1.38,0,0,1,33.54,25a1.15,1.15,0,0,1-.31.53,2.36,2.36,0,0,1-1.47.33,1.28,1.28,0,0,1-1.26-.65Z"/><path class="cls-147" d="M30.5,25.22l1.32.08c.47.45.7.94.19,1.51a1.1,1.1,0,0,1-1.55-.27Z"/><path class="cls-148" d="M30.46,26.54h1.3c.58.19.65.57.41,1.07a.59.59,0,0,1-.44.28l-1.26,0C30.47,27.43,30.46,27,30.46,26.54Z"/><path class="cls-149" d="M33.11,24l-1.37,0,.1-1.31h1.25c.4-.41.8-.5,1.21,0l.15.07a1,1,0,0,1,.34,1.28.75.75,0,0,1-.4.4A1,1,0,0,1,33.11,24Z"/><path class="cls-150" d="M38.29,18.69h4l0,1.32a7,7,0,0,1-2.71,1.81c-.54.16-.88-.15-1.19-.52Z"/><path class="cls-151" d="M39.58,21.35c.22-1.77,1.59-1.24,2.64-1.34l0,2.58-.28.07c-.82.44-1.62.95-2.55.24A1.11,1.11,0,0,1,39.58,21.35Z"/><path class="cls-152" d="M35.68,22.62H38.3l.27.13c.42.43.27.91.15,1.4-.81.88-1.76,1.65-2.53,2.56s-1.52.39-2.3.49c-1.62-.3-1.76-.64-.82-2h0c.44-.43.89-.86,1.29-1.33h0a13.6,13.6,0,0,0,1.33-1.3Z"/><path class="cls-153" d="M39.58,21.35l.07,1.24c-.42.64-.87.47-1.33,0h0c0-.44,0-.88,0-1.32Z"/><path class="cls-154" d="M34.3,22.59l-1.21,0,0-1.24C34.08,21.25,34.53,21.6,34.3,22.59Z"/><path class="cls-94" d="M35.68,22.61a1.17,1.17,0,0,1-1.33,1.3l.1-1.25Z"/><path class="cls-155" d="M34.42,26.57c1.3-.06,1.73-1.31,2.54-2a3.23,3.23,0,0,1,1.34-.66c.44-.38.88-.58,1.28.05,0,.41,0,.82,0,1.23a1.25,1.25,0,0,0-1.29,1.33A1.23,1.23,0,0,0,37,27.8c-.86.06-1.33.48-1.25,1.39l0,0c-1.42.92-1.82.7-2-1.07A1.5,1.5,0,0,1,34.42,26.57Z"/><path class="cls-156" d="M39.58,24l-1.28-.05c0-.42,0-.85,0-1.28l1.33,0,2.26.07C41.52,23.79,40.6,24,39.58,24Z"/><path class="cls-157" d="M34.36,27.83c0,.86.43,1.35,1.34,1.34l0,1.32,0,0c-.32.31-.57.73-1.11.65a2,2,0,0,1-1.29-.24.6.6,0,0,1-.27-.43V29.18a1.16,1.16,0,0,1-.19-1.58C33.43,27.09,33.91,27.36,34.36,27.83Z"/><path class="cls-42" d="M34.44,30.47h1.24c0,.87,0,1.73,0,2.6s0,1.74-.08,2.61l-2.53,0c-.22-1.83-1.65-1-2.63-1.22.05-1.55,1.21-1.37,2.2-1.35s1.73-.08,1.67-1.31A.78.78,0,0,1,34.44,30.47Z"/><path class="cls-60" d="M38.29,59.24l0-1.33c.07-1,.69-1.26,1.55-1.26l3.72,0a1.32,1.32,0,0,1-1.4,1.25,1.15,1.15,0,0,0-1.26,1.32Z"/><path class="cls-158" d="M31.8,30.51,33,30.44l.15.06a.8.8,0,0,1-.1,1.28l-1.32,0Z"/><path class="cls-159" d="M33.06,31.78c0-.43.07-.85.1-1.28l1.28,0c0,.43-.06.87-.08,1.3Z"/><path class="cls-160" d="M33.1,27.86,33,29.18a1.23,1.23,0,0,1-1.29-1.28l.09-.11C32.27,27.38,32.7,27.26,33.1,27.86Z"/><path class="cls-161" d="M33.1,27.86l-1.28-.07-.06-1.24.06-1.25,1.25-.06a1.25,1.25,0,0,0,1.35,1.33l-.06,1.26Z"/><path class="cls-162" d="M34.36,23.91a1.18,1.18,0,0,1-1.29,1.33l0-1.28Z"/></g></g></svg>