<svg xmlns="http://www.w3.org/2000/svg" viewBox="0 0 74 74"><defs><style>.cls-1{fill:#1e2223;}.cls-2{fill:#292828;}.cls-3{fill:#2b2b2b;}.cls-4{fill:#525252;}.cls-5{fill:#3c3c3c;}.cls-6{fill:#474646;}.cls-7{fill:#3b3b3b;}.cls-8{fill:#2d2d2d;}.cls-9{fill:#494848;}.cls-10{fill:#515151;}.cls-11{fill:#5e5e5e;}.cls-12{fill:#282828;}.cls-13{fill:#424141;}.cls-14{fill:#575555;}.cls-15{fill:#6a6a6a;}.cls-16{fill:#6d6c6c;}.cls-17{fill:#2a2a2a;}.cls-18{fill:#2c2c2c;}.cls-19{fill:#686868;}.cls-20{fill:#4a4a4a;}.cls-21{fill:#242323;}.cls-22{fill:#393838;}.cls-23{fill:#4e4e4e;}.cls-24{fill:#343434;}.cls-25{fill:#2f2f2f;}.cls-26{fill:#424242;}.cls-27{fill:#5d5a5a;}.cls-28{fill:#333;}.cls-29{fill:#282727;}.cls-30{fill:#5f5d5d;}.cls-31{fill:#696969;}.cls-32{fill:#545454;}.cls-33{fill:#2a2929;}.cls-34{fill:#383838;}.cls-35{fill:#212020;}.cls-36{fill:#222;}.cls-37{fill:#212121;}.cls-38{fill:#343333;}.cls-39{fill:#1f1f1f;}.cls-40{fill:#232323;}.cls-41{fill:#474747;}.cls-42{fill:#4d4d4d;}.cls-43{fill:#505050;}.cls-44{fill:#575757;}.cls-45{fill:#6c6c6c;}.cls-46{fill:#797979;}.cls-47{fill:#545353;}.cls-48{fill:#4f4d4d;}.cls-49{fill:#4c4b4b;}.cls-50{fill:#6b6a6a;}.cls-51{fill:gray;}.cls-52{fill:#535252;}.cls-53{fill:#1c1c1c;}.cls-54{fill:#5e5d5d;}.cls-55{fill:#9a9797;}.cls-56{fill:#898484;}.cls-57{fill:#827e7e;}.cls-58{fill:#999393;}.cls-59{fill:#626262;}.cls-60{fill:#7b7b7b;}.cls-61{fill:#b2b2b2;}.cls-62{fill:#5b5b5b;}.cls-63{fill:#6f6b6b;}.cls-64{fill:#807e7e;}.cls-65{fill:#969494;}.cls-66{fill:#676565;}.cls-67{fill:#878787;}.cls-68{fill:#737373;}.cls-69{fill:#898989;}.cls-70{fill:#949494;}.cls-71{fill:#818181;}.cls-72{fill:#a8a5a5;}.cls-73{fill:#a4a1a1;}.cls-74{fill:#828282;}.cls-75{fill:#626060;}.cls-76{fill:#9f9f9f;}.cls-77{fill:#606060;}.cls-78{fill:#837e7e;}.cls-79{fill:#7d7878;}.cls-80{fill:#777272;}.cls-81{fill:#aaa9a9;}.cls-82{fill:#3e3d3d;}.cls-83{fill:#898888;}.cls-84{fill:#131212;}.cls-85{fill:#454545;}.cls-86{fill:#2d2c2c;}.cls-87{fill:#353434;}.cls-88{fill:#545252;}.cls-89{fill:#272727;}.cls-90{fill:#525050;}.cls-91{fill:#313131;}.cls-92{fill:#5b5959;}.cls-93{fill:#575656;}.cls-94{fill:#121212;}.cls-95{fill:#5e5c5c;}.cls-96{fill:#585656;}.cls-97{fill:#5a5858;}.cls-98{fill:#878181;}.cls-99{fill:#948e8e;}.cls-100{fill:#8e8888;}.cls-101{fill:#8d8787;}.cls-102{fill:#c1bcbc;}.cls-103{fill:#a29d9d;}.cls-104{fill:#a2a2a2;}.cls-105{fill:#bababa;}.cls-106{fill:#f0f0f0;}.cls-107{fill:#747070;}.cls-108{fill:#5c5a5a;}.cls-109{fill:#6a6666;}.cls-110{fill:#676464;}.cls-111{fill:#bebebe;}.cls-112{fill:#a1a1a1;}.cls-113{fill:#8d8d8d;}.cls-114{fill:#7a7777;}.cls-115{fill:#aaa;}.cls-116{fill:#717171;}.cls-117{fill:#4c4c4c;}.cls-118{fill:#999;}.cls-119{fill:#acacac;}.cls-120{fill:#a6a6a6;}.cls-121{fill:#b9b9b9;}.cls-122{fill:#b8b6b6;}.cls-123{fill:#8a8787;}.cls-124{fill:#b8b7b7;}.cls-125{fill:#858383;}.cls-126{fill:#c2bebe;}.cls-127{fill:#716d6d;}.cls-128{fill:#d1d1d1;}.cls-129{fill:#0e0e0e;}.cls-130{fill:#171717;}.cls-131{fill:#1a1a1a;}.cls-132{fill:#434242;}.cls-133{fill:#545151;}.cls-134{fill:#8f8989;}.cls-135{fill:#414141;}.cls-136{fill:#7a7a7a;}.cls-137{fill:#8b8b8b;}.cls-138{fill:#b3b3b3;}.cls-139{fill:#d2d2d2;}.cls-140{fill:#353535;}.cls-141{fill:#414040;}.cls-142{fill:#141414;}.cls-143{fill:#0b0b0b;}</style></defs><title>궤도_1</title><g id="레이어_2" data-name="레이어 2"><g id="레이어_1-2" data-name="레이어 1"><rect class="cls-1" width="74" height="74" rx="8.33" ry="8.33"/><path class="cls-2" d="M60.36,28.7l5.54,4.42a1.44,1.44,0,0,1,.44,1.06A8.71,8.71,0,0,1,60,43.06a2.37,2.37,0,0,1-2.4.35.85.85,0,0,1-.48-.37.73.73,0,0,1,.43-.71,8.5,8.5,0,0,1,2.33-.28c.57-.07.2-.42.3-.18s0,.19-.08.18A7,7,0,0,1,58,42a.65.65,0,0,1-.09-.54,1.26,1.26,0,0,1,1-.55,2.46,2.46,0,0,0,1.94-.77c1.2-.93,2.95-1.62,1.51-3.65-.15-.2-.15,0-.05-.17,1.17-2.16-.31-3.45-1.52-4.85a.63.63,0,0,1,0-.74c-.46-1.34-1.92-1-2.79-1.59.36-.63,1-.58,1.55-.55A7.94,7.94,0,0,0,60.36,28.7Z"/><path class="cls-3" d="M21.25,47.45l-.78-.78c.24-.6.84-.7,1.32-1a1.49,1.49,0,0,1,1.1,0,1.18,1.18,0,0,1,.38.39c.2.46.25,1,.82,1.23a1.84,1.84,0,0,1,.43.3c1.7,1.16,2.93,2.93,4.87,3.78,1,.52,2.25-.18,3.12.76a.5.5,0,0,1-.08.56,13,13,0,0,1-3,.07c1.14-.07,2.3.39,3.4-.37,1.51.72,3.22.67,4.77,1.25A2.36,2.36,0,0,1,34,55a6.39,6.39,0,0,0-4.46-1.21,2.3,2.3,0,0,1-1.95-.72c-1.39-1.28-2.9-2.44-4.36-3.65A14,14,0,0,0,21.25,47.45Z"/><path class="cls-4" d="M36.81,22.31a1.33,1.33,0,0,0,.2,0c1.16-.34,2.11,1.42,3.31.36,1-.84.16-2.21.89-3.14a1.16,1.16,0,0,1,.75-.32,1.36,1.36,0,0,1,.95.5.87.87,0,0,1,.11.72,5.76,5.76,0,0,1-.55.64s0,.13,0,.1c.31-.28.46-.72.93-.76,1.34.17,1.19,1.21,1.27,2.12-.44.94.15,1.64.54,2.39,1.69,3.24,1.5,3.56-2.07,3.57-1.4-.37-3-.23-3.91-1.75.38-.65,1-.66,1.66-.66.48-.3,1.57.29,1.46-.81-.08-.91-1-.69-1.6-.72a6.54,6.54,0,0,0-1,0C38.2,24.51,36.84,24.28,36.81,22.31Z"/><path class="cls-5" d="M42,19.53h-.79c1.12-1.27,3.53-1.89,5-.83,3.07,2.25,6.43,4.2,8.7,7.4,1.26,1.76,1,2.27-1.31,2.6-.72-.35-.57-1.3-1.19-1.73-1.59-2-2.92-4.26-5-5.89A3.53,3.53,0,0,0,45.15,20,13.92,13.92,0,0,0,42,19.53Z"/><path class="cls-6" d="M54.77,30.69a4.07,4.07,0,0,1,3.19-.8c1.46.82,2,2.36,2.7,3.7L61.94,36c.35.8,2,1,1.13,2.34-.59,1-1.21,1.95-2.62,1.53l-.18-.2a1.1,1.1,0,0,1-.11-.5.8.8,0,0,0-.18-.65,4.32,4.32,0,0,1-.83-.93c-.18-.42-.32-.84-.51-1.25a42,42,0,0,0-2-4c-.24-.57-.78-.63-1.32-.68s-1-.27-1-.9C54.42,30.54,54.58,30.52,54.77,30.69Z"/><path class="cls-7" d="M60.43,39.49c1.22.37,1.81-.36,2.28-1.3.6-1.23-.72-1.3-1.16-1.91-.59-1.79-1-3.68-2.35-5.13a.86.86,0,0,1,0-1.25c.53.26.94.78,1.59.79a15,15,0,0,0,1.75,1.89c1.19.9,2.21,1.7.42,3-.21.15-.42.48-.21.69,2.52,2.44-.29,3.07-1.43,4.27l-.13.14a1.48,1.48,0,0,1-1,.25.74.74,0,0,1-.37-.37A.88.88,0,0,1,60.43,39.49Z"/><path class="cls-8" d="M46.38,49c.34-.4.7-.79,1-1.21S48,47,48.46,47.5a1,1,0,0,1,.08,1.27c-.88,1.34-5.42,3.19-6.87,2.6s-1.55-1.8-.9-3.11a15.54,15.54,0,0,1,2.36.3,2,2,0,0,0,1.62.26.7.7,0,0,1,.43.21l0,0C45.6,49.42,46,49.63,46.38,49Z"/><path class="cls-9" d="M45.18,49l-.38,0c-.54.83-1.07.31-1.6,0-.88-.06-1.86.2-2.42-.79a5,5,0,0,0-.48-1c-.27-.35-.7-.72-1.15-.31s-.06.77.19,1c1.17,1.23.68,2.37-.12,3.51.31.65,0,1-.57,1.31a.64.64,0,0,1-.48-.22,1.36,1.36,0,0,1-.22-.78c0-.84.84-1.5.59-2.41-.2-.51-.77-.7-1-1.18-.47-1-.41-1.85.6-2.34,1.31-.63,2.68-1.61,4,0a1.65,1.65,0,0,1,.46.73c0,1.36,1.26,1.13,2,1.55a.94.94,0,0,1,.6.55C45.2,48.78,45.19,48.91,45.18,49Z"/><path class="cls-10" d="M18.06,45.84c-.67-1.64-1-3.55-3.18-4a5,5,0,0,1-1.6-1.21h0a3.21,3.21,0,0,1-1.21-1.19h0c-.82-.73-2.5.66-2.89-1.16,1.25-1.16,2.66-.5,3.67.1,2.3,1.38,4.65,2.81,6,5.32a5.73,5.73,0,0,0,.67,1.12c.43.34.83.12,1.26,0s1-.09,1.12.64C20.78,46.73,19.6,46.83,18.06,45.84Z"/><path class="cls-11" d="M41.2,26.7h-2l-.24,0c-.51-.24-.94.12-1.4.22a.9.9,0,0,1-.51-.15c-.87-1-.42-2.54-1.61-3.35a1.27,1.27,0,0,1-.38-1,.87.87,0,0,1,.56-.6l1.19.54A3.22,3.22,0,0,0,40,23.91C40.75,24.69,41.78,25.35,41.2,26.7Z"/><path class="cls-12" d="M54,46.26c-3.66,1.58-3.66,1.58-5.68-1.94,1.52.12,2.57,1.61,4.09,1.14C54,45.41,54,45.41,54,46.26Z"/><path class="cls-13" d="M59.16,29.9c.15.35.22.84.49,1,2,1.34,2.07,3.29,1.9,5.36A40.87,40.87,0,0,1,58,29.89Z"/><path class="cls-14" d="M55.16,43.46c-1.4.79-2.66,1.21-4.2,0a5.36,5.36,0,0,0-4.17-.78.73.73,0,0,1-.13-.54c1.28-1.66,1.9-1.74,3.86-.55l.5.23a4.1,4.1,0,0,1,.68.47c1.18,1.2,2.12-.49,3.22-.27a.92.92,0,0,1,.46.34A.93.93,0,0,1,55.16,43.46Z"/><path class="cls-5" d="M35.62,21.77l-.28.49-.27-.05c-2-1.93-2-1.93-4.19-.29a7.83,7.83,0,0,0-1.67,2.65c-.49.38-.71,1.2-1.57.94.08-2.72,3-6,5.31-6A2.35,2.35,0,0,1,35.62,21.77Z"/><path class="cls-15" d="M16.85,30.68a3.34,3.34,0,0,1,3.84-1.44,10.58,10.58,0,0,0,4.52-.16.34.34,0,0,1,.52.06,1.09,1.09,0,0,1-.39,1.11,4.18,4.18,0,0,1-4.76.28,5,5,0,0,0-3.18.75,1,1,0,0,1-.55-.1A.37.37,0,0,1,16.85,30.68Z"/><path class="cls-16" d="M44.39,48.65a5.4,5.4,0,0,0-1.45-.49c-.5,0-1.11.81-1.5,0s.71-.95,1-1.49a.92.92,0,0,1,.75-.29,2.18,2.18,0,0,1,.78.26c1.08.37,1.54-.33,1.93-1.13a1.64,1.64,0,0,1,.23-.48.94.94,0,0,1,.69-.37c.63.58.37,1.34.39,2A3.81,3.81,0,0,1,44.39,48.65Z"/><path class="cls-17" d="M54,46.26c-.16-1-1.3-.07-1.59-.8,1.16-.51,2.49-.74,3.18-2-.3-.37-.19-.66.17-.91a3.67,3.67,0,0,1,1.43.51h0a.54.54,0,0,1,0,.79C56.46,45.14,55.16,45.62,54,46.26Z"/><path class="cls-18" d="M38.4,52.66l.82-1.21c1,.34,1,1.14.39,1.65a11.66,11.66,0,0,1-4.23,2.67A1,1,0,0,1,34,55c1.58.76,2.53-.38,3.59-1.2C37.33,53.08,37.74,52.78,38.4,52.66Z"/><path class="cls-19" d="M25.65,29.1l-.44,0c-.12-1.82.51-3.13,2.43-3.57l1.18-1.23a1,1,0,0,1,.31.48,3.46,3.46,0,0,1-.59,1.89c-.48.71-.1,1.66-.63,2.36-.73.52-.94-.15-1.26-.54a.84.84,0,0,1-.17,0s-.17,0-.17.07A1.61,1.61,0,0,1,25.65,29.1Z"/><path class="cls-20" d="M8.52,33.92c.75-1.39,3.56-2.45,5-1.79a4.08,4.08,0,0,0,2.06.53l.16.26a.71.71,0,0,1-.3.5c-1.9.53-3.93-.33-5.79.56A1.42,1.42,0,0,1,8.52,33.92Z"/><path class="cls-21" d="M60,29.1H58c-.27,0-.53,0-.79,0-.44,0-1.05.39-1.28-.11-.37-.81.68-1,.94-1.55s.78-.58,1.13.05a1.4,1.4,0,0,0,1.21.82C59.59,28.35,60.13,28.39,60,29.1Z"/><path class="cls-22" d="M56,42.65c-.14.27-.27.54-.4.81h-.4l0-1.18A8.67,8.67,0,0,1,54,40.73a1.63,1.63,0,0,1-.13-.58,1.16,1.16,0,0,1,.74-1.24,1.27,1.27,0,0,1,.9.25C56.56,40.2,57.38,41.28,56,42.65Z"/><path class="cls-23" d="M8.48,37.88c-.14-1.21-1.86-2.4,0-3.61a12.26,12.26,0,0,1,1.61,1.45c.27.49,0,.88-.21,1.29A2.48,2.48,0,0,1,9,38,.48.48,0,0,1,8.48,37.88Z"/><path class="cls-24" d="M18.06,45.84c1.34.39,2.79,1.28,3.59-.78a1,1,0,0,1-.26-.88.63.63,0,0,1,.44-.44.7.7,0,0,1,.55.31,2,2,0,0,1-.33,2.2l-1.58.42C19.64,46.46,18.5,47.16,18.06,45.84Z"/><path class="cls-25" d="M57.17,43.86v-.79H60C59.33,44.4,58.28,44.24,57.17,43.86Z"/><path class="cls-26" d="M54.77,30.69h-.4c-1.49-.19-1.87-1.21-1.88-2.51a3.21,3.21,0,0,1,0-1.07l.12-.24.21-.17c1.13.32.69,1.27.8,2Z"/><path class="cls-27" d="M46.8,44.62l-.46.47c-.45.31-.79.11-1.09-.25a1.53,1.53,0,0,1-.21-.6,2.06,2.06,0,0,1,.62-2,1,1,0,0,1,.89-.12l.24.21v.39C45.66,43.33,46.57,44,46.8,44.62Z"/><path class="cls-28" d="M8.48,37.88h.4a.43.43,0,0,1,.4.39c.56,1.27,2,.42,2.79,1.2C10.8,39.1,8.75,40.5,8.48,37.88Z"/><path class="cls-29" d="M60,29.1c-.56-.67-2.15-.05-2-1.6.74.53,1.91.17,2.4,1.2Z"/><path class="cls-25" d="M21.25,47.45a2.44,2.44,0,0,1,2,2A3.16,3.16,0,0,1,21.25,47.45Z"/><path class="cls-30" d="M44.39,48.65l2.8-2a2.43,2.43,0,0,1-2,2Z"/><path class="cls-31" d="M10.05,35.9a1.39,1.39,0,0,1-1.59-1.63,2,2,0,0,1,.06-.35l.82-.34a.85.85,0,0,1,.31.78,1,1,0,0,0,.18.56,1.15,1.15,0,0,1,.35.79C10.14,35.78,10.09,35.84,10.05,35.9Z"/><path class="cls-32" d="M16.85,30.68l0,.42c.21.95.3,1.82-1.13,1.63l-.14-.07C15.78,31.85,15.79,30.94,16.85,30.68Z"/><path class="cls-33" d="M46.38,49c.34.09.69.29.25.57-.63.41-1.21.3-1.43-.55Z"/><path class="cls-28" d="M13.28,40.65a2.23,2.23,0,0,1,1.6,1.21C14,41.88,13.36,41.65,13.28,40.65Z"/><path class="cls-28" d="M12.07,39.47l1.21,1.19A1.19,1.19,0,0,1,12.07,39.47Z"/><path class="cls-34" d="M55.12,39.46,54.76,39c.08-1.26,1-1.68,1.84-1.16,1.2.77,2.77,1.22,3.35,2.77v0c.24.78-.62.44-.8.78H58C56.63,41.35,56.36,39.72,55.12,39.46Z"/><path class="cls-35" d="M55.12,39.46c1.46-.06,2.1,1,2.84,2v.4c.26.47-.17.58-.4.8l-.4.4c-.73.86-.93.12-1.2-.41C56.13,41.47,56.19,40.32,55.12,39.46Z"/><path class="cls-36" d="M64.5,38.47A3.08,3.08,0,0,0,63.36,36C64.81,36.42,64.81,36.42,64.5,38.47Z"/><path class="cls-37" d="M57.56,42.66l.4-.8h2.61v.24Z"/><path class="cls-38" d="M59.16,41.46l.8-.78,1.19,0A2.39,2.39,0,0,1,59.16,41.46Z"/><path class="cls-39" d="M62.22,41.25,61.91,41a1.67,1.67,0,0,1,.43-.28c.16,0,.44,0,.34.27S62.38,41.16,62.22,41.25Z"/><path class="cls-28" d="M38.4,52.66l-.79,1.17c-1.7,0-3.45.24-4.8-1.18-.13.16-.26.16-.39,0v-.4c-1.15-.53-2.44.13-3.59-.4a29.41,29.41,0,0,1-4.77-4,1.17,1.17,0,0,1,1.08-.49c1.58.43,2.54,1.83,4,2.48A25.68,25.68,0,0,1,36,52.24c.7.42,1.69-.45,2.43.29Z"/><path class="cls-26" d="M25.24,47.85H24.05a4.27,4.27,0,0,1-1.2-1.59c0-.13,0-.26,0-.38a1.29,1.29,0,0,1-.26-1.4.62.62,0,0,1,.45-.32c.85.21.92,1.09,1.38,1.64.24.37.54.7.82,1.05A.86.86,0,0,1,25.24,47.85Z"/><path class="cls-25" d="M22.85,44.26c0,.54,0,1.07,0,1.61l-.78.38c0-.78,0-1.56,0-2.34a.3.3,0,0,1-.09-.3c0-.09.08-.14.11-.14C22.72,43.36,22.84,43.76,22.85,44.26Z"/><path class="cls-40" d="M32.42,52.64h.39c-1.22.75-2.51.25-3.78,0Z"/><path class="cls-18" d="M28.83,51.84c1.19.16,2.46-.36,3.59.4C31.22,52.09,30,52.6,28.83,51.84Z"/><path class="cls-25" d="M22.85,46.25a2.12,2.12,0,0,1,1.2,1.59C22.87,47.9,22.82,47.11,22.85,46.25Z"/><path class="cls-7" d="M37.26,26.74a2.07,2.07,0,0,0,.35,0c.53-.88,1.06-.58,1.6,0h0l4,1.19c1.41.3,2.82.67,4.08-.44a2,2,0,0,1,.8-.19,3.21,3.21,0,0,0,.52-.11c.52-.18.89-.68,1.48-.71a1.18,1.18,0,0,1,.55.17,1.08,1.08,0,0,1,.36,1.3c-.55.8-1.62.71-2.27,1.34-.36.61,0,1.21,0,1.81,0,.31-.15.6-.08.9.24.19.56.21.8.39a1,1,0,0,1,.29.46c-.16.87-1,.81-1.56,1.16a2.66,2.66,0,0,1-1.73.21c-.71-.95-1.94-.35-2.78-.91a.61.61,0,0,1-.17-.48c.09-.27.41-.29.57-.49-.25.22-.46.13-.65-.07a1,1,0,0,1-.07-1c.13-.26.46-.42.41-.78a1.62,1.62,0,0,0-1.5-1.22c-1-.22-1.77-.84-2.76-1-1,.26-.81,1.07-.86,1.77s.15,1.49-.63,2a.68.68,0,0,1-.58-.16c-.74-1.45-.24-3-.39-4.51A.9.9,0,0,1,37.26,26.74Z"/><path class="cls-41" d="M50.38,26.7H50a3.59,3.59,0,0,0-1.2,1.19h-.4c-1.25-2.26-3-4.21-4-6.63-.33-.84-1.14-.83-1.62-1.34l-.8-.39c1.12-.79,2.4-.26,3.59-.41a22.51,22.51,0,0,1,4.55,5.09C50.59,25,51.22,25.78,50.38,26.7Z"/><path class="cls-42" d="M42.8,19.92c.38.08.94,0,1.11.26,1.76,2.41,4.07,4.51,4.47,7.71h-.79C45.46,26.81,45,24.55,44,22.71c-.07-.86.3-2-1.2-2h0Z"/><path class="cls-43" d="M44,22.71c1.61,1.45,2.36,3.48,3.59,5.19-1.47,1.61-2.93.34-4.4,0,2.85,0,2.8,0,1.53-2.64C44.35,24.49,43.1,23.87,44,22.71Z"/><path class="cls-44" d="M41.2,26.7c-.32-1-1.29-1.65-1.2-2.79.87.13,1.78-.79,2.61.07a2.43,2.43,0,0,1,.83,2.3C43.05,27.44,41.94,26.44,41.2,26.7Z"/><path class="cls-45" d="M42,20.33l.8.39h0c.14.49,1,.93.14,1.49-.49.3-1.09.72-1.36-.28C42.32,21.55,41.53,20.78,42,20.33Z"/><path class="cls-46" d="M42,20.33c-.32.48,1.44,1.51-.42,1.6C41.59,21.36,41.47,20.76,42,20.33Z"/><path class="cls-26" d="M50.38,26.7c-.66-2.51-2.35-4.39-3.94-6.31-.33-.41-.8-.68-.85-1.27a17.43,17.43,0,0,1,7.19,7.58h0c-.34.29-.53.61-.27,1.06a1.28,1.28,0,0,1,.19.74c-.11.51.11,1.12-.44,1.51a1,1,0,0,1-.76.15,1.19,1.19,0,0,1-.42-.28,1.5,1.5,0,0,1-.21-.68,2.16,2.16,0,0,0-.1-.44c-.11-.29-.23-.57,0-.85Z"/><path class="cls-47" d="M51.17,29.89H52c1.89-.51,2.18,1.3,3,2.21a15.43,15.43,0,0,1,1.83,2.81,1.34,1.34,0,0,0,1.43.8,1.61,1.61,0,0,1,1,.56,1.35,1.35,0,0,1,.41,1.17c-.23.25-.59.27-.81.5.24.83,1.09,1,1.59,1.53l.08,0L60,40.65c-1-.53-2.2-.84-2.82-1.63-1-1.25-1.59-.68-2.37,0a1.44,1.44,0,0,0-.4,1.23.43.43,0,0,1-.57,0,1.79,1.79,0,0,1-.34-1.48,4.88,4.88,0,0,1,.77-1.61c.2-.26.46-.57.23-.89-1.21-1.72-1.72-3.88-3.39-5.32a.91.91,0,0,1-.07-.82Z"/><path class="cls-48" d="M58,36.27c-.82.41-1.2-.14-1.56-.71a28.14,28.14,0,0,1-2.26-3.87A2.85,2.85,0,0,0,52,29.89a2.69,2.69,0,0,0,.39-1.56c.14-.41.38-.6.82-.43-.53,1.32.58,2,1.19,2.79a1.4,1.4,0,0,0,1.2.4c1.25,1.05,1.74,2.58,2.53,3.92A1,1,0,0,1,58,36.27Z"/><path class="cls-49" d="M58,36.27c-.25-2-2.24-3.16-2.4-5.18.52,0,1.13,0,1.38.53.73,1.55,1.79,2.95,2.21,4.65Z"/><path class="cls-50" d="M60.35,39.47c-2.08-.1-2.81-.83-2.38-2.39a26.48,26.48,0,0,0,2.48,1.51.44.44,0,0,1-.07.5Z"/><path class="cls-51" d="M60.32,38.65c-1.28.23-2-.46-2.35-1.57.67-.51,1.07.23,1.6.36l.86.79A.31.31,0,0,1,60.32,38.65Z"/><path class="cls-52" d="M60.32,38.65c0-.14.08-.28.11-.42.41-.16,1-.49,1.14.09.17.85-.67.67-1.19.77Z"/><path class="cls-53" d="M44.24,50.27a1.76,1.76,0,0,1-2.28.35c-.09,0-.13-.43-.06-.5C42.63,49.51,43.24,50.23,44.24,50.27Z"/><path class="cls-28" d="M43.2,49.05c.53.06,1.06.32,1.6,0C44.25,50.38,43.72,49.73,43.2,49.05Z"/><path class="cls-54" d="M38.39,52.53a4.78,4.78,0,0,1-5.68-1.26c-.47-.5-.94-.26-1.44-.23-.91,0-1.87.19-2.47-.77a1,1,0,0,1,.67-.55A9,9,0,0,0,32.54,49c.84-.47,1.48,0,2.12.44s.92,1.35,1.84,1.47c.56.41,1.41.21,1.87.85Z"/><path class="cls-55" d="M45.57,44.67l.77.42a2.58,2.58,0,0,1,0,.39c.17.54-.24.62-.59.74a5.5,5.5,0,0,0-2.59.43l-.78,0c-.14-.12-.28-.24-.43-.35-.59-.41-.94-.91-.54-1.65a1.34,1.34,0,0,1,.79-.5,8.44,8.44,0,0,1,1.51-.05C44.37,44.22,45.08,44.11,45.57,44.67Z"/><path class="cls-56" d="M41.61,44.66c.13.54.25,1.08.38,1.62a2.84,2.84,0,0,0-3.11-.19c-1.24.55-1.17,1.18-.82,2.13a.72.72,0,0,1-.94.05c-.93-1.3-.61-2.33.68-3.15a8.28,8.28,0,0,1,1.62-1,3.52,3.52,0,0,1,1.21-.06,1.47,1.47,0,0,1,.82.32A2.13,2.13,0,0,0,41.61,44.66Z"/><path class="cls-57" d="M38.37,51.8c-.67-.06-1.47.65-2-.33.29-.63,1.06-.84,1.3-1.52a2.85,2.85,0,0,1,.49-.65A1.49,1.49,0,0,1,39.23,49C39.76,50.2,38.7,50.89,38.37,51.8Z"/><path class="cls-58" d="M39.23,49l-.74.46a2.3,2.3,0,0,1-.51-.1c-.37-.22-.79-.39-.86-.9l.1-.24.84,0A1.61,1.61,0,0,1,39.23,49Z"/><path class="cls-15" d="M9.28,38.27l-.4-.39a1.39,1.39,0,0,1,.38-1.21c.58-.22,1.15-.46,1.75-.63a2.13,2.13,0,0,1,1.45.79c1.26,1.63,3.06,2.59,4.72,3.73a25.9,25.9,0,0,1,2,2.08c.54.84.67,1.59-.72,1.62C16.21,41,13.38,38.67,9.28,38.27Z"/><path class="cls-45" d="M18.44,44.26c.88-.47.61-.86.06-1.5s-1.74-.88-1.67-2.06l.25-.16a1.18,1.18,0,0,1,.84.16c1.58.74,2.44,2.3,3.8,3.28a.61.61,0,0,1,0,.3c-1,.24-1.52,1.7-2.85,1.19A1.4,1.4,0,0,1,18.44,44.26Z"/><path class="cls-59" d="M18.85,45.47c1-.14,1.56-1.59,2.85-1.19,0,.26,0,.52-.05.78C20.74,45.33,20,46.45,18.85,45.47Z"/><path class="cls-60" d="M37.26,26.74l0,.43,0,.33A32.05,32.05,0,0,1,37,32.4c-.41,1.93-1.26,2.35-3.26,1.61a1.36,1.36,0,0,1-.3-.52c-.06-.72.58-.86,1-1.2a2.36,2.36,0,0,0,.28-.42,1.77,1.77,0,0,1,.28-.43,3.07,3.07,0,0,0,.27-.46c.06-2.47.65-4.93.17-7.41a.6.6,0,0,1,.29-.5c.67-.31,1,0,1.06.64C37,24.72,37.1,25.73,37.26,26.74Z"/><path class="cls-61" d="M35.57,31.86l-.34.06c-.47-.26-.55-.73-.68-1.18-.72-3-.61-6.07-.72-9.11,1-.84,1.06.2,1.42.66l.09,0,.37.81c0,.14-.05.28-.07.42.21.16.53.36.48.59C35.58,26.65,36.11,29.29,35.57,31.86Z"/><path class="cls-62" d="M39.21,26.7c-.53-.05-1.07-.31-1.6,0,.1-.6.31-1.16,1-1.07C39.23,25.72,39.17,26.27,39.21,26.7Z"/><path class="cls-63" d="M50.38,42.26c-1.2-1.32-2.4-1-3.59,0v0a1,1,0,0,1-.09-1.36c.35-.4.82-.74.33-1.35a8.93,8.93,0,0,1-.92-1.76c-.63-1.29-1-2.83-3-2.05-.23.09-.46-.21-.61-.44a1.48,1.48,0,0,1,.6-2,15,15,0,0,1,2.51,0,2,2,0,0,1,.59.67c.32.42.9.27,1.28.58a13,13,0,0,1,1.88,3.36,1.72,1.72,0,0,0,2,1.38,1.83,1.83,0,0,1,.82.33,1.22,1.22,0,0,1,.43,1.32C51.93,41.49,50.71,41.15,50.38,42.26Z"/><path class="cls-64" d="M54.78,42.27c-1.14.61-2.14,2.49-3.57.37.47-.63,1.4-.59,1.82-1.28a1.59,1.59,0,0,1,.5-.26C54.32,41.09,54.91,41.29,54.78,42.27Z"/><path class="cls-65" d="M53.17,41.87c-.18,1.43-1.24.66-2,.77l-.49-.31C50.94,40.64,51.18,40.59,53.17,41.87Z"/><path class="cls-64" d="M53.17,41.87c-.81.15-2-1.56-2.45.46l-.34-.07c.16-.59-.57-1.35.24-1.8s1.18.37,1.76.6a.62.62,0,0,1,.78-.1.37.37,0,0,1,.11.33c0,.11-.06.17-.09.17Z"/><path class="cls-66" d="M53.18,41.46c0-.13,0-.26,0-.38a.94.94,0,0,1,1.27-.45c1,.21.69,1,.76,1.65h-.41A1.54,1.54,0,0,0,53.18,41.46Z"/><path class="cls-67" d="M35.25,22.29c-.43-.25-.64-.87-1.3-.71a1.15,1.15,0,0,1-1,0,1.25,1.25,0,0,0-1.1.33c-.39.17-.7.51-1.15.57a.73.73,0,0,1-.46-.23.73.73,0,0,1,.15-.75Q34.25,18.25,35.25,22.29Z"/><path class="cls-68" d="M30.43,21.52l0,.81c.37.57-.11,1-.25,1.49a2.16,2.16,0,0,1-.24.48,2,2,0,0,1-.61.53.56.56,0,0,1-.5-.1l0-.45A4.24,4.24,0,0,1,30.43,21.52Z"/><path class="cls-69" d="M20.45,29.9a5.52,5.52,0,0,0,4.78,0,1.06,1.06,0,0,1,.82-.24c2,1.55,2.9,3.92,4.36,5.87a2.63,2.63,0,0,0,1.07,1.19,2.48,2.48,0,0,1,.55.66,1.29,1.29,0,0,1,0,1.39,1.1,1.1,0,0,1-.82.23c-1.05-.77-2-.36-3,.2-.67-.26-.7-.86-.75-1.45-.68-2.11-2.12-3.75-3.39-5.5-.54-.73-1.31-.44-2-.44C21,31.57,19.93,31.4,20.45,29.9Z"/><path class="cls-70" d="M20.45,29.9c.17,1.22,1.09,1.19,2,1.2,1.91,1.69,3.5,3.58,3.81,6.25-.26.78-1.27.62-1.64,1.28a7.49,7.49,0,0,1-.67.82c-.4.38-.67.92-1.27,1a.86.86,0,0,1-.92-.52.64.64,0,0,1-.08-.39c1.55-3.49-1-5.51-2.77-7.83a7.46,7.46,0,0,0-.81-.1,1.3,1.3,0,0,1-.76-.32l-.15-.24A3.43,3.43,0,0,1,20.45,29.9Z"/><path class="cls-68" d="M15.75,32.73c.83-.23.74-1.1,1.13-1.63h.45a1.61,1.61,0,0,1,.4.9,1.41,1.41,0,0,1-1.18,1.44,1,1,0,0,1-.9-.35A1.4,1.4,0,0,1,15.75,32.73Z"/><path class="cls-71" d="M26,29.89h-.81l.42-.79c.07-.63-.16-1.41.79-1.61A1.66,1.66,0,0,1,26,29.89Z"/><path class="cls-72" d="M43.2,46.65c.28-1.83,1.41-1.09,2.4-.8-.28,1.06-.79,1.74-2,1.21Z"/><path class="cls-73" d="M43.58,47.06a3.19,3.19,0,0,0,2-1.21l.78-.37c.69,1.49-1,1.27-1.45,1.94S43.91,47.68,43.58,47.06Z"/><path class="cls-71" d="M26,29.89c.13-.8.27-1.6.4-2.4h.41c.46.58-.16,1.53.66,2,.63.28.85,1,1.36,1.36A10.93,10.93,0,0,1,31,35a1.27,1.27,0,0,1-1,.88A49.91,49.91,0,0,1,26,29.89Z"/><path class="cls-71" d="M28.85,24.73l.37,0a1.22,1.22,0,0,1,.48,1.17,5.79,5.79,0,0,0-.37,2.27c.11.64.06,1.33-.79,1.55-1.36-1-.6-2.22-.51-3.39Z"/><path class="cls-68" d="M28,26.3c.29,1.06-.66,2.43.79,3.2a1,1,0,0,1,.38.51c0,.57,0,1.11-.77,1.08l-1.19-1.22c-.23-.44.12-.6.39-.78C27.74,28.15,27.36,27.15,28,26.3Z"/><path class="cls-68" d="M27.63,29.09l-.39.78c-.65-.71-.31-1.59-.39-2.39C27.67,27.74,26.94,28.76,27.63,29.09Z"/><path class="cls-74" d="M15.65,33.08h.82c-.34,1.44-1.53,1.2-2.5,1.17a6.11,6.11,0,0,0-2.88.26c-.61,0-1.2.54-1.85.12,0-.35.07-.7.1-1.06C11.35,32.26,13.54,33.15,15.65,33.08Z"/><path class="cls-75" d="M54.43,40.63l-1.27.45-.78,0c-.13-.4-.27-.79-.4-1.19a27.48,27.48,0,0,1-2.44-3.51c-.35-.57-.59-1.18-1.4-1.12a1.83,1.83,0,0,1-1-.55,1.46,1.46,0,0,1-1.21-.4c.8-.34,1.77-.24,2.43-.94a9.4,9.4,0,0,0,1.49-.22,1.29,1.29,0,0,1,.58.12,20.82,20.82,0,0,1,3.49,7h.39C54.38,40.39,54.4,40.51,54.43,40.63Z"/><path class="cls-31" d="M10.88,36.26c-.31,1-1.1.21-1.62.41l.79-.77.06-.07C10.55,35.65,10.9,35.62,10.88,36.26Z"/><path class="cls-76" d="M10.47,33.88c1.13-.74,2.39-.27,3.58-.37.82-.06,1.7.21,2.42-.42a1.49,1.49,0,0,0,.81-1.2c.35-.18.51-.54.77-.79h.8a44.61,44.61,0,0,0,3.29,6.37c.58.85-.63,1.58-.1,2.4l.86.36c0,.09.07.17.1.26a.92.92,0,0,1-.19.52,3.38,3.38,0,0,1-1,.62c-1,.49-.63.94,0,1.38a1.06,1.06,0,0,1,.29.46l-.09.44a.67.67,0,0,0-.34.07c-2.13.13-2.54-2.18-4.09-2.89a2.17,2.17,0,0,0,0-.25c.06-.93-.69-1.33-1.23-1.87a38.67,38.67,0,0,0-5.85-4.84Z"/><path class="cls-48" d="M52,27.91c-.34-.09-.69-.25-.53-.64.25-.58.83-.54,1.35-.57a2.67,2.67,0,0,1,0,.4C52.61,27.48,52.46,27.89,52,27.91Z"/><path class="cls-77" d="M52,27.91l.82-.81.41.8-.82.43Z"/><path class="cls-78" d="M45.57,44.67c-.52,0-1,.54-1.58,0-1.32-.48-1.64-1.75-2.28-2.8s-.89-2.68-2.55-3l-.85,0a2.93,2.93,0,0,1-.88-.13,1.22,1.22,0,0,1-.77-1.19c1.24-1.15,3-.3,4.29-1a1.81,1.81,0,0,1,1.15.31c1.13,2.14,2.92,4,3,6.63,0,.33.29.57.52.81Z"/><path class="cls-79" d="M45.6,44.26c-.29-.13-.82-.24-.83-.4-.25-2.55-2.69-4.19-2.77-6.78.3-.84.82-1.19,1.66-.71,1.25.71,2.69,4.39,2.34,5.91A3.25,3.25,0,0,0,45.6,44.26Z"/><path class="cls-80" d="M46,42.28a18.43,18.43,0,0,0-2.06-4.65c-.56-1.1-1.13-1-1.94-.55H40.79c.15-1.26,1.2-1.19,2.06-1.4a2.28,2.28,0,0,1,3,1.66c.39,1.26,1.85,2.16,1.29,3.74a1.34,1.34,0,0,0-.4,1.17Z"/><path class="cls-74" d="M10.88,36.26l-.77-.43-.85-.72a1.49,1.49,0,0,1,.78-.39,2.79,2.79,0,0,1,2.32,1.19A1.22,1.22,0,0,1,12.58,37a.36.36,0,0,1-.51.06Z"/><path class="cls-76" d="M10.07,35.09l-.81,0a2.22,2.22,0,0,1-.14-.32s.08-.1.12-.15l1.23-.76,0,0C10.89,34.49,10.59,34.83,10.07,35.09Z"/><path class="cls-45" d="M29.67,50.21l-.87.06c-1.42-.47-2.32-1.69-3.56-2.42-.13-.26-.27-.52-.41-.78a.79.79,0,0,1,.47-.28,2.15,2.15,0,0,1,1.5.64,12.15,12.15,0,0,0,1.64,1.32,3.19,3.19,0,0,1,.42.3C29.22,49.38,29.85,49.51,29.67,50.21Z"/><path class="cls-81" d="M26.52,47.81,25.28,47c-.48-.16-.79-.57-1.23-.78-1-.35-.73-1.24-.82-2l.19-.23a1.47,1.47,0,0,1,1.12-.2c.37.14.84.19,1.09.45a2.43,2.43,0,0,0,3.05.57.59.59,0,0,1,.3.38c.05.1-.25.15-.1.26s-.13.06.08-.12a2.2,2.2,0,0,1,1.59-.15,2.92,2.92,0,0,1,1.22,1,1.9,1.9,0,0,1-1.36,1.88,1.33,1.33,0,0,1-.19.05l.12,0c.92-.15,1.83-.3,1.88,1.06a.57.57,0,0,1-.42.35c-.85.11-1.71-.1-2.57,0a.84.84,0,0,1-.79-.17h0C28.07,48.58,27.09,48.43,26.52,47.81Z"/><path class="cls-82" d="M22.85,44.26l-.7-.79h-.1l-.1,0a.94.94,0,0,1,.35-1.07,1.64,1.64,0,0,1,.82-.3,5.75,5.75,0,0,1,.83,0c.82.23,1-.94,1.8-.82,1.41,1.12.49,2-.34,2.81-.67.33-1.45-.43-2.1.21l-.08-.06Z"/><path class="cls-83" d="M24.05,46.22c.77-.31.87.44,1.23.78l-.45.07Z"/><path class="cls-84" d="M43.61,32.27l.35.14-.35.3c-1,.72-2,1.67-3.49,1.2-.82-.6-2.3-.75-1.69-2.38A2.23,2.23,0,0,1,39,30.26c.75-.38,1.12.46,1.74.52.8.18,1.66-.54,2.43.15C43.57,31.31,43.2,31.9,43.61,32.27Z"/><path class="cls-37" d="M38.81,31.49c-.66,1.31,1.18,1.08,1.2,2l-.2.2a1.2,1.2,0,0,1-.56.11C38,33.71,37,33.46,38,31.89c0-.93.05-1.86,0-2.78-.08-1.2.4-1.74,1.6-1.6a.91.91,0,0,1,.13.58C39.37,29.21,39.13,30.36,38.81,31.49Z"/><path class="cls-12" d="M49.17,32.68H47.58c-.3-.82,1.28-.69.81-1.6-.44-.75-1.09-1.46-.4-2.39a2.05,2.05,0,0,1,1,.68,1.35,1.35,0,0,0,.42.2,1.42,1.42,0,0,1,.91.41C51.22,31.43,50,32,49.17,32.68Z"/><path class="cls-18" d="M43.61,32.27c-.41-.28-.41-.73-.46-1.16a1.54,1.54,0,0,0-.4-.36A1.12,1.12,0,0,1,42,30a1.16,1.16,0,0,1,.42-1.31c1.48-.21,1.77.81,2,1.91-.09.44-.58.27-.79.51Z"/><path class="cls-85" d="M37.29,27.17c.67,1.54.16,3.16.34,4.73A2.33,2.33,0,0,1,37.57,34c-.87.17-1.18-.36-1-1,.63-1.93.17-3.94.59-5.87Z"/><path class="cls-86" d="M40,33.46c1.31.28,2.33-.84,3.6-.75,0,.12,0,.24,0,.37-.25.24-.61.35-.79.68-.43.59.13,1.8-1.16,1.88-.7-.58-1.61-1-1.63-2.09Z"/><path class="cls-87" d="M49.17,32.68c0-1,1.4-1.61.8-2.79.16-.89.66-.73,1.21-.39,0,.13,0,.26,0,.39l0,0c-.51.56.18,1.14,0,1.7-.26.75-.64,1.33-1.58,1.07Z"/><path class="cls-88" d="M49.59,32.69c1.34-.46.92-1.93,1.6-2.78,0,.27,0,.53,0,.79a2.08,2.08,0,0,1,.5.83c.18,1.3-.61,1.75-1.7,1.95l-1.59,0c-.15.18-.28.17-.41,0Z"/><path class="cls-89" d="M42.4,28.7v1.59c-1.69.31-1.94-1.29-2.78-2.11a2.62,2.62,0,0,1,0-.28c0-.13,0-.26,0-.39Z"/><path class="cls-53" d="M48.77,30.3,48,28.7a7,7,0,0,1,2.79-.79c.26.26.52.53.79.79C50.61,29.2,49.33,29.12,48.77,30.3Z"/><path class="cls-90" d="M42.77,33.47l.82-.39c1,.19,2.37-1.23,2.81.8a.52.52,0,0,1-.79,0c-.72-.65-1.58-.3-2.39-.35C43.05,33.68,42.91,33.66,42.77,33.47Z"/><path class="cls-91" d="M37.62,33.87c0-.65,0-1.31,0-2H38c-.45,1.54,1,1.09,1.61,1.57a1.2,1.2,0,0,1-.88.82A1.06,1.06,0,0,1,37.62,33.87Z"/><path class="cls-92" d="M45.61,33.87h.79l1.58-.4.41,0c-.56,1-1.53.74-2.41.79Z"/><path class="cls-93" d="M43.58,31.12c.14-.35.46-.43.79-.51.29.3,1,.56.47,1S44,31.33,43.58,31.12Z"/><path class="cls-87" d="M48.39,31.09c.72,1-.58,1-.81,1.6-.59-.12-.55-.37-.15-.71S48.07,31.39,48.39,31.09Z"/><path class="cls-26" d="M48.78,27.89A1.21,1.21,0,0,1,50,26.7,2.66,2.66,0,0,1,48.78,27.89Z"/><path class="cls-94" d="M48.77,30.3c-.09-2.32,1.53-1.65,2.8-1.6a1.28,1.28,0,0,1,0,.39,5.9,5.9,0,0,0-2.79,1.22Z"/><path class="cls-53" d="M48.78,30.31a2.6,2.6,0,0,1,2.79-1.22l-.39.41a1.46,1.46,0,0,0-1.21.39C49.59,30.06,49.44,30.9,48.78,30.31Z"/><path class="cls-95" d="M54,40.27a27.21,27.21,0,0,1-3.59-6.78,1.19,1.19,0,0,1,1.76.11c1.2,1.46,2.3,3,1.83,5.07Z"/><path class="cls-96" d="M51.19,31.5c0-.27,0-.54,0-.8A2.09,2.09,0,0,1,52.82,32c.75,1.33,1.5,2.66,2.28,4,.37.64.73,1.21-.33,1.51C52.89,35.89,52.21,33.59,51.19,31.5Z"/><path class="cls-97" d="M51.19,31.5c1.67,1.7,2.2,4.09,3.58,6L54,38.67c-.81-2-.88-4.5-3.59-5.18H50C50.58,32.94,51.32,32.49,51.19,31.5Z"/><path class="cls-58" d="M31.61,49.44H32a.55.55,0,0,1,.68-.15l.16.19a4.63,4.63,0,0,1-3.2.72l-1.23-.77h.82A3.28,3.28,0,0,1,31.61,49.44Z"/><path class="cls-58" d="M38.41,50.25c-.15,1.27-1.13,1.18-2,1.22-1.17.12-1.5-.84-2-1.57l.17-.21c.59-.28,1,.11,1.51.33C36.8,50.52,37.67,49.7,38.41,50.25Z"/><path class="cls-58" d="M34.37,49.9c-.54,0-.83-.87-1.5-.41l-.08-.08c-.52-.91-.21-1.39.78-1.52a1.25,1.25,0,0,1,.59.22,1.37,1.37,0,0,1,.28,1.71Z"/><path class="cls-98" d="M39.21,38.28c1.38-.15,1.77,1,2.29,1.87.9,1.47,1.67,3,2.49,4.52l-1.59,0a20.63,20.63,0,0,1-2.95-4.55C39.14,39.55,38.79,39,39.21,38.28Z"/><path class="cls-56" d="M39.21,38.28c.84,2.23,2.65,4,3.19,6.37h-.8c-1.48-1.12-2.12-2.84-3.14-4.3a1.92,1.92,0,0,1-.22-.51c-.12-.54-.35-1.09.17-1.57Z"/><path class="cls-58" d="M29.63,48.25c-.06,0-.16,0-.18,0a1.23,1.23,0,0,1-.09-.29c1.13,0,1.57-1,2.26-1.66a7.53,7.53,0,0,0-1.2-1.38c-.41-.4-.78-1.14-1.36-.18a.88.88,0,0,1-.24.38c-.9.08-1.21.69-1.21,1.63-1.26-.75-1.92-2-3.21-2.38.3-.47,1.08-.09,1.3-.72.86-.93.61-2,.29-3,.91-.83,1.88-1.23,3-.45.81,1.24,1.72,1.44,2.76.26a1.87,1.87,0,0,1,.48-.26c1,.08,1.55-.78,2.31-1.21a1.15,1.15,0,0,1,1.08.4c1.21,1.9,3,3.54,2.77,6.11-1.35.52-1.26,1.66-1.19,2.78v0a2,2,0,0,1-3.19,0h0c-.8-.89-1.38.36-2.1.23S30.36,48.67,29.63,48.25Z"/><path class="cls-99" d="M38.41,45.46c-1.37-2.1-2-4.64-4-6.38l-.22-.24a1,1,0,0,1,.2-1.19,1.61,1.61,0,0,1,2.37.61c1.36,1.94,3,3.78,2.82,6.4Z"/><path class="cls-100" d="M39.6,44.66Q38.29,42,37,39.35a2.32,2.32,0,0,0-2.53-1.47.71.71,0,0,1,0-1c1-.55,1.82-.6,2.4.55l.79.82c.64.35.75,1.09,1.2,1.59h0c.39,1.71,2.17,2.84,2,4.78Z"/><path class="cls-101" d="M40.8,44.65c-.56-1.64-1.82-3-2-4.78a21.27,21.27,0,0,1,2.79,4.79Z"/><path class="cls-102" d="M38.41,50.25a2.25,2.25,0,0,1-2.82.4c-.09-1.83.33-2.07,2.82-1.61,0,.15.05.29.08.44S38.44,50,38.41,50.25Z"/><path class="cls-103" d="M38.41,49c-1.17.14-2.58-.17-2.82,1.61-.36-.3-.61-.77-1.15-.83A2.57,2.57,0,0,1,34,48.25h3.19Z"/><path class="cls-45" d="M12.07,37.09l.41,0a5.57,5.57,0,0,1,4.38,3.6l0,0A8.72,8.72,0,0,1,12.07,37.09Z"/><path class="cls-76" d="M16.86,40.67l-4.38-3.6L12,36.29c.72-.64,1.29-.18,1.87.24a20.33,20.33,0,0,1,2.77,2.38c.38.69,1.87.84,1,2.12l-.06.06Z"/><path class="cls-11" d="M37.62,33.87h1.19a1.24,1.24,0,0,1,1.71.73,1,1,0,0,1-.63.57c-.26.31-.8-.44-1,.26a1.1,1.1,0,0,1,.07.47c-.37,1.29-1.19.81-2,.52s-1.09-1-1.82-1.14c-1-.81-2.18.81-3.1-.34a1.5,1.5,0,0,1-.16-.62c.19-1,.69-1.41,1.67-.86,1.71.87,2.45.26,2.92-1.53.42-1.62-.18-3.32.65-4.84a18.76,18.76,0,0,1-.28,5.23C36.73,33,36.72,33.67,37.62,33.87Z"/><path class="cls-104" d="M28.86,29.85c0-.12,0-.23,0-.35.08-1.21-.66-2.5.38-3.61a.47.47,0,0,1,.53-.06c.93,1.1.16,2.88,1.54,3.8A4.35,4.35,0,0,0,32.86,31c.63.67,1.69.57,2.31,1.27l0,.42c-.62.43-1.39,0-2,.37a3.75,3.75,0,0,1-.58,0A2.75,2.75,0,0,1,31,32.42c-.27-.23-.59-.42-.86-.66a16.29,16.29,0,0,1-1-1.5Z"/><path class="cls-70" d="M35.57,31.86q0-4.18.07-8.37c.32.11.72.29.68.63C36,26.69,36.38,29.33,35.57,31.86Z"/><path class="cls-105" d="M35.17,32.26a3.22,3.22,0,0,1-2.74-.78.64.64,0,0,1-.18-.7.71.71,0,0,1,.39-.31,5.33,5.33,0,0,1,1.43.22c.37,0,.74-.23,1.12,0,0,.42,0,.84,0,1.27C35.22,32,35.19,32.15,35.17,32.26Z"/><path class="cls-45" d="M32.43,32.66l.39,0c.19.27.62.1.79.41,0,.13,0,.25,0,.37-.82,0-1.24.37-1.2,1.21-.69.14-.92-.32-1-.84A1.06,1.06,0,0,1,32.43,32.66Z"/><path class="cls-70" d="M33.61,33.1l-.79-.41h2.39C34.78,33.21,34.17,33.05,33.61,33.1Z"/><path class="cls-106" d="M35.19,30.65c-.38.29-.24,1.3-1.16.83A7.49,7.49,0,0,1,32.9,21.23l.29-.16.76.51C35.47,24.46,34.51,27.67,35.19,30.65Z"/><path class="cls-107" d="M47.19,41.07l-1.92-3.68a2.3,2.3,0,0,0-2.49-1.52.26.26,0,0,1,0-.39c2.33-1.22,2.42-1.17,3.62,1.48.43.94,1,1.84,1.46,2.75S48.32,41.08,47.19,41.07Z"/><path class="cls-108" d="M42.81,35.48l0,.39c-.46.74-1.37.72-2,1.2a5.62,5.62,0,0,1-4,.39,3.26,3.26,0,0,0-2.37-.32.39.39,0,0,1-.51-.11.78.78,0,0,1,.4-.74,13.7,13.7,0,0,1,2.86-.41c.53,0,1.07.84,1.6,0l.24,0a8.24,8.24,0,0,0,1.4-.17,3.56,3.56,0,0,1,1.16-.22c1-.31.56-1.46,1.17-2l.45.05A3.28,3.28,0,0,0,42.81,35.48Z"/><path class="cls-109" d="M47.19,34.69h1.2a8.6,8.6,0,0,1,2.79,5.19,2,2,0,0,1-2.31-1.41C48.35,37.19,47.75,35.94,47.19,34.69Z"/><path class="cls-110" d="M51.18,39.87l-2.79-5.19c.26-.26.69-.35.83,0,.77,1.82,2.58,3.1,2.76,5.23Z"/><path class="cls-111" d="M30.83,30.29c-1.44-1.18-1.19-2.82-1.19-4.39a2,2,0,0,1,0-2h0a8.15,8.15,0,0,0,1.17-1.62.9.9,0,0,1,.77-.84.4.4,0,0,1,.56.07c.5,1.11-.55,1.92-.59,3-.07,1.65-.2,3.23.81,4.69a1.2,1.2,0,0,1,0,1.47v0A2.62,2.62,0,0,1,30.83,30.29Z"/><path class="cls-112" d="M30.83,22.31c0,.84-.23,1.48-1.17,1.62-.05-.69.5-1.08.79-1.6Z"/><path class="cls-112" d="M32,21.51l-.42,0c.43-.55.87-1,1.59-.4l.08.13C32.91,21.52,32.59,22,32,21.51Z"/><path class="cls-112" d="M29.66,23.93c0,.66,0,1.32,0,2H29.2c0-.39,0-.79,0-1.19C29.37,24.45,29.51,24.19,29.66,23.93Z"/><path class="cls-113" d="M26,37.44c-.88-2.29-2.78-4-3.59-6.34a2.49,2.49,0,0,1,2.88,1.48c.83,1.68,2.49,2.9,2.71,4.92C27.35,38,26.67,38.17,26,37.44Z"/><path class="cls-114" d="M26,37.44l2,.06c0,.54-.08,1.13.45,1.53a1.39,1.39,0,0,1,1.81-.24c.74,1.11-.14,1.53-.86,2a.64.64,0,0,1-.59-.15c-1.06-.78-1.91-.1-2.78.4a.77.77,0,0,1-.79.16.91.91,0,0,1-.3-.47,1.33,1.33,0,0,1,.07-.56,3.5,3.5,0,0,1,1-.89c.18-.13.45-.23.37-.49s-.28-.11-.44-.06a1.66,1.66,0,0,1-.49.11c-.54.07-1.09.16-1.36-.5C24.42,37.36,25.28,37.52,26,37.44Z"/><path class="cls-46" d="M32.43,32.66c-.44.67-.93,1.34,0,2l0,.43a.56.56,0,0,1,0,.49,1.64,1.64,0,0,1-.56.49c-.34.25-.32.74-.65,1A1.21,1.21,0,0,1,30,35.89a.88.88,0,0,1,.8-.82,1.71,1.71,0,0,0-.45-1.58c-.82-1.17-.4-1.61.87-1.63Z"/><path class="cls-115" d="M30.43,39.05H28.48c.61-1.51,1.22-1.6,2.73-.38A.68.68,0,0,1,30.43,39.05Z"/><path class="cls-116" d="M30.43,39.05l.78-.39.77,0c.05.08.1.16.14.24a1.62,1.62,0,0,1-.82,1.38c-.57.27-1,.83-1.62,1a.87.87,0,0,1-.52-.14.31.31,0,0,1,.06-.46Z"/><path class="cls-20" d="M32,38.68l-.38-1.14a1,1,0,0,1-.14-.77c.3-.36.64-.22,1-.11s1.12-.06,1.4.58a1.57,1.57,0,0,1,0,1.34,1.15,1.15,0,0,1-1.76.06Z"/><path class="cls-117" d="M31.65,36.62c0,.31,0,.62,0,.92l-.38-.46c-.25-.63-1.23-1.49.47-1.53A.72.72,0,0,1,31.65,36.62Z"/><path class="cls-118" d="M22,39.87a7.49,7.49,0,0,0-1.74-4,5.91,5.91,0,0,1-1.45-4.76c1-.11,1.41.63,1.8,1.3.78,1.3,1.41,2.69,2.24,4C23.91,37.9,22.38,38.72,22,39.87Z"/><path class="cls-119" d="M18.05,31.1c-.07.53.68,1.11-.06,1.57,0,0-.46-.5-.71-.78,0-.26,0-.53,0-.8Z"/><path class="cls-43" d="M22.9,40.23a1.14,1.14,0,0,1,.72-1.18l.25.16a1.18,1.18,0,0,1,.28.53,1.36,1.36,0,0,1-.4,1.36c-.8.24-.62-.54-.89-.85Z"/><path class="cls-43" d="M24.11,38.36c.53.27,1-.06,1.51-.12-.07,1.49-.85,1.48-1.9.91l-.1-.1Z"/><path class="cls-71" d="M31.24,31.86c-.34.42-1.37.57-.45,1.44a1.15,1.15,0,0,1,0,1.77l-2.39-4a1.58,1.58,0,0,0,.43-1.24l.37,0a11,11,0,0,0,1.23,1.58Z"/><path class="cls-120" d="M16.46,39.08c-1.41-1-2.65-2.34-4.42-2.79l-2-1.2.42-1.19a2.78,2.78,0,0,1,2.56,1.15c1.2,1.27,2.78,2.17,3.81,3.62A.44.44,0,0,1,16.46,39.08Z"/><path class="cls-121" d="M22.44,42.65l-.49.83c-.94,0-1.92-.46-1.73-1.4.23-1.2,1.61-1.06,2.57-1.33a.58.58,0,0,1,.24.71C22.88,41.88,22,41.92,22.44,42.65Z"/><path class="cls-120" d="M16.46,39.08l.4-.41a10.15,10.15,0,0,1,1.56,1.43c.64.9-.11.91-.73.93C17.89,40,16.56,39.93,16.46,39.08Z"/><path class="cls-76" d="M22.78,41.52c0-.26,0-.52,0-.77s.05-.34.07-.5c.25.29.49.59.73.89a.69.69,0,0,1,.7.32,1,1,0,0,1-.06,1l-.22.15-.8,0C22.92,42.29,22.55,42,22.78,41.52Z"/><path class="cls-101" d="M38.81,39.87c-.68-.32-.88-1-1.2-1.59h.8C38.54,38.81,38.67,39.34,38.81,39.87Z"/><path class="cls-58" d="M26.52,47.81c.84.31,1.78.5,1.92,1.63C27.8,48.9,26.89,48.67,26.52,47.81Z"/><path class="cls-103" d="M29.63,48.25c1.1-.06,2.23.2,3.24-.53.56-.4,1-.14,1.15.53a1,1,0,0,0-1.23,1.16l-.76,0C31.71,48.09,30.23,49.05,29.63,48.25Z"/><path class="cls-122" d="M30.83,44.67c.6.36,1.24.7.79,1.58-.6,0-1.1-.12-1.21-.82a.53.53,0,0,1-.05-.72A.37.37,0,0,1,30.83,44.67Z"/><path class="cls-123" d="M30.5,44.72l-.09.71a1.26,1.26,0,0,1-1.57,0h0c0-.13,0-.25,0-.38v-.4l.18-.21a1.31,1.31,0,0,1,1.34,0Z"/><path class="cls-124" d="M28.84,45.45c-.08.69.88.69.93,1.59-1-.26-1.7-.43-.93-1.59Z"/><path class="cls-125" d="M26,43.84c-.43.53-1.06.39-1.62.48H23.31c.52-.69,1.29-.31,1.93-.45A.54.54,0,0,1,26,43.84Z"/><path class="cls-126" d="M31.61,49.44H29.26A1.82,1.82,0,0,1,31.61,49.44Z"/><path class="cls-127" d="M26,43.84l-.78,0c.11-.81,1.62-1.59.05-2.44l-.15-.13a.2.2,0,0,1,.21-.24h.71C28,42,26,42.91,26,43.84Z"/><path class="cls-128" d="M22.78,41.52l.43,1.07-.77.06c-.23-.79-1.3.66-1.23-.39C21.26,41.56,22.2,41.67,22.78,41.52Z"/><path class="cls-129" d="M25.29,41.42c.08.94.3,2-1.28,1.22h0c.52-.3.21-1.47,1.26-1.23Z"/><path class="cls-130" d="M40.41,31.49c-.77,0-.76-.84-1.2-1.2-.26-.64-.47-1.29.3-1.76a1.78,1.78,0,0,1,1.4,2.06A1.91,1.91,0,0,1,40.41,31.49Z"/><path class="cls-131" d="M39.61,28.7c-.49.44-.38,1-.4,1.59a1.4,1.4,0,0,1-.4,1.2c.33-1.18-.77-2.68.8-3.59h0A.55.55,0,0,1,39.61,28.7Z"/><path class="cls-131" d="M40.41,31.49v-.8c.93-.64,1.85-.16,2.78,0l0,.41Z"/><path class="cls-132" d="M41.6,35.46l-.78.83c-.34-.42-.91,0-1.27-.34-.25-.79.59-.83.85-1.27a2.34,2.34,0,0,0-1.59-.8l.81-.42.39.09C40.63,34.11,41.54,34.43,41.6,35.46Z"/><path class="cls-37" d="M43.18,30.7H40.4a4.16,4.16,0,0,0-.79-2v-.8c1.24.43,1.82,1.64,2.79,2.39Z"/><path class="cls-133" d="M32.11,38.64c.5,0,1-.27,1.49,0,.61.75.17,1.21-.45,1.62a7.51,7.51,0,0,0-.76.36,2.33,2.33,0,0,0-.36.08l-.24.13H31.5c-.47-.16-.87-.38-.68-1Z"/><path class="cls-123" d="M30.83,44.67l-.33,0-.12-.09c-.51-.13-1-.34-1.52,0l0,0c-.45-.1-1.4-.08-.5-.77S30.4,43.1,30.83,44.67Z"/><path class="cls-134" d="M31.63,40.67l.4.06c-.22,1.16-1.1,1.13-2,1.14s-1.23-.38-1.2-1.21l.38,0c0,.13,0,.26,0,.39C30.1,41.33,30.8,40.62,31.63,40.67Z"/><path class="cls-100" d="M32.39,40.65l.41-.4c.72-.14.79-1.18,1.61-1.18h0C34.46,40.51,33.56,40.75,32.39,40.65Z"/><path class="cls-114" d="M34.41,39.07c-.5.45-.75,1.23-1.61,1.18.28-.52.82-.91.8-1.58s0-1,.07-1.55A.19.19,0,0,1,34,37l.47.1c0,.25,0,.5,0,.74Z"/><path class="cls-135" d="M37.2,35.88c-.76.89-1.79.79-2.79.79a.51.51,0,0,1-.12-.32c0-.11,0-.17,0-.17.26-.45.66-.8.9-1.27a1.36,1.36,0,0,1,.43-.29Z"/><path class="cls-135" d="M32.42,35.42a1.55,1.55,0,0,1,0-.31c1-.31,2-1.43,3.21-.49l-.12.14c-.83.81-1.64,1.67-2.95.92C32.53,35.59,32.48,35.5,32.42,35.42Z"/><path class="cls-136" d="M38.8,35.46a2.29,2.29,0,0,1-1.91-.77h2.7C39.76,35.39,39.29,35.43,38.8,35.46Z"/><path class="cls-108" d="M38.8,35.46l.79-.77h.81c.48.91-.6.75-.81,1.18a.49.49,0,0,1-.74,0l-.05,0Z"/><path class="cls-137" d="M30.46,31.48c-.75-.27-1.31-.68-1.23-1.58A2.14,2.14,0,0,1,30.46,31.48Z"/><path class="cls-138" d="M30.83,30.29l1.59.41c0,.26,0,.52,0,.78Z"/><path class="cls-139" d="M32,21.51l1.25-.31c-2,3.6-1.45,7,.76,10.28l-1.6-.8c0-.2,0-.47-.06-.59C29.93,27.32,31.08,24.41,32,21.51Z"/><path class="cls-21" d="M34.46,36.33c0,.11,0,.23-.05.34L34,37a.84.84,0,0,0-.31.08c-.55,0-.9,1.05-1.6.32.32-.75.71-1.42,1.64-1.5A.83.83,0,0,1,34.46,36.33Z"/><path class="cls-140" d="M38.85,35.91l.74,0a1.52,1.52,0,0,1,1.23.43C40.13,36.35,39.33,36.94,38.85,35.91Z"/><path class="cls-86" d="M24,41.49l-.41-.35c0-.55.05-1.1.07-1.65a1.67,1.67,0,0,1,1.92.06c.26.24-.09.57-.29.8a.89.89,0,0,1-.08.32C24.87,41,24.79,41.78,24,41.49Z"/><path class="cls-141" d="M25.29,40.35c.12-1.54-1.06-.63-1.63-.86a1,1,0,0,1,.06-.34c.73-.1,1.55,0,1.9-.91h0c1.21.08,1.28.72.81,1.64Z"/><path class="cls-43" d="M26.44,39.87a1.57,1.57,0,0,0-.81-1.64c.59-.47,1.38-.61,1.76,0C27.9,39.06,27,39.47,26.44,39.87Z"/><path class="cls-22" d="M24,41.49l1.21-.82c.05.13.1.26.14.38s-.05.24-.07.37c-.5.33-.59,1.08-1.26,1.23Z"/><path class="cls-142" d="M33.64,36.29l-1.57,1.15-.42-.82c0-.35,0-.71,0-1.07l.73-.13a.41.41,0,0,0,0,.22C32.8,35.91,33.37,35.81,33.64,36.29Z"/><path class="cls-114" d="M31.63,40.67a1.51,1.51,0,0,1-2.4.4h.41a1.83,1.83,0,0,1,2-.47Z"/><path class="cls-54" d="M31.62,40.59l-2,.47a2.66,2.66,0,0,1,1.18-1.19Z"/><path class="cls-68" d="M28.86,44.64c.5-.5,1-1,1.52,0C29.87,45,29.37,44.7,28.86,44.64Z"/><path class="cls-143" d="M33.64,36.29c-.52,0-1,0-1.22-.66,1.15.1,2-1,3.12-.87.33,1,.17,1.66-1.08,1.57Z"/></g></g></svg>