<svg xmlns="http://www.w3.org/2000/svg" viewBox="0 0 74 74"><defs><style>.cls-1{fill:#1e2223;}.cls-2{fill:#6c6c6c;}.cls-3{fill:#1a1a1a;}.cls-4{fill:#535353;}.cls-5{fill:#373737;}.cls-6{fill:#6e6e6e;}.cls-7{fill:#5f5f5f;}.cls-8{fill:#282828;}.cls-9{fill:#191919;}.cls-10{fill:#636362;}.cls-11{fill:#171717;}.cls-12{fill:#484848;}.cls-13{fill:#5c5c5c;}.cls-14{fill:#1b1b1b;}.cls-15{fill:#626060;}.cls-16{fill:#a6a6a6;}.cls-17{fill:#898888;}.cls-18{fill:#3e3e3e;}.cls-19{fill:#676767;}.cls-20{fill:#626262;}.cls-21{fill:#656565;}.cls-22{fill:#202020;}.cls-23{fill:#963d20;}.cls-24{fill:#262626;}.cls-25{fill:#c25d40;}.cls-26{fill:#161616;}.cls-27{fill:#242424;}.cls-28{fill:#0f0f0f;}.cls-29{fill:#909090;}.cls-30{fill:#181818;}.cls-31{fill:#6f6f6f;}.cls-32{fill:#222;}.cls-33{fill:#1f1f1f;}.cls-34{fill:#5b5a5a;}.cls-35{fill:#737373;}.cls-36{fill:#272727;}.cls-37{fill:#414141;}.cls-38{fill:#707070;}.cls-39{fill:#505050;}.cls-40{fill:#3a3a3a;}.cls-41{fill:#888;}.cls-42{fill:#4c4b48;}.cls-43{fill:#9b9b9b;}.cls-44{fill:#252424;}.cls-45{fill:#333232;}.cls-46{fill:#0a0a0a;}.cls-47{fill:#151515;}.cls-48{fill:#0d0d0d;}.cls-49{fill:#212121;}.cls-50{fill:#666;}.cls-51{fill:#232323;}.cls-52{fill:#333;}.cls-53{fill:#313030;}.cls-54{fill:#343434;}.cls-55{fill:#525252;}.cls-56{fill:#131313;}.cls-57{fill:#292828;}.cls-58{fill:#616161;}.cls-59{fill:#4e4e4e;}.cls-60{fill:#868584;}.cls-61{fill:#7c7b7b;}.cls-62{fill:#8e8e8e;}.cls-63{fill:#474747;}.cls-64{fill:#b3b3b3;}.cls-65{fill:#d8d8d8;}.cls-66{fill:#c1c1c1;}.cls-67{fill:#393939;}.cls-68{fill:#555;}.cls-69{fill:#979797;}.cls-70{fill:#3d3d3d;}.cls-71{fill:#70706f;}.cls-72{fill:#3c3b3a;}.cls-73{fill:#686868;}.cls-74{fill:#727272;}.cls-75{fill:#313131;}.cls-76{fill:#1e1e1e;}.cls-77{fill:#200f0b;}.cls-78{fill:#c5c5c5;}.cls-79{fill:#c4c3c3;}.cls-80{fill:#212020;}.cls-81{fill:#c2c2c2;}.cls-82{fill:#b5b5b5;}.cls-83{fill:#c3c3c3;}.cls-84{fill:#a8a8a8;}.cls-85{fill:#8f8f8f;}.cls-86{fill:#d5d5d5;}.cls-87{fill:#7c7c7c;}.cls-88{fill:#949494;}.cls-89{fill:#959595;}.cls-90{fill:#93736b;}.cls-91{fill:#1a1919;}.cls-92{fill:#b6b6b6;}.cls-93{fill:#6d6766;}.cls-94{fill:#787878;}.cls-95{fill:#848380;}.cls-96{fill:#272625;}.cls-97{fill:#939393;}.cls-98{fill:#51504d;}.cls-99{fill:#5b5b59;}.cls-100{fill:#cbcabe;}.cls-101{fill:#aba9a1;}.cls-102{fill:#403e3e;}.cls-103{fill:#4e4c4c;}.cls-104{fill:#323232;}.cls-105{fill:#343333;}.cls-106{fill:#2f2e2e;}.cls-107{fill:#7b7b7b;}.cls-108{fill:#545454;}.cls-109{fill:#424242;}.cls-110{fill:#6a6a6a;}.cls-111{fill:#7d7d7d;}.cls-112{fill:#101010;}.cls-113{fill:#8a887f;}.cls-114{fill:#767674;}.cls-115{fill:#454544;}.cls-116{fill:#3b3a38;}.cls-117{fill:#abaaa7;}.cls-118{fill:#9c9b9a;}.cls-119{fill:#636161;}.cls-120{fill:#a1a1a1;}.cls-121{fill:#c8c8c8;}.cls-122{fill:#b8b7b7;}.cls-123{fill:#2c2c2c;}.cls-124{fill:#ccc;}.cls-125{fill:#a5a5a5;}.cls-126{fill:#565656;}.cls-127{fill:#454545;}.cls-128{fill:#5d5d5d;}.cls-129{fill:#4f4f4f;}.cls-130{fill:#a2a2a2;}.cls-131{fill:#7a7a7a;}.cls-132{fill:#afafaf;}.cls-133{fill:#868686;}.cls-134{fill:#2e2e2e;}.cls-135{fill:#ababab;}.cls-136{fill:#d9d9d9;}.cls-137{fill:#9f9f9f;}.cls-138{fill:#2a2a2a;}.cls-139{fill:#3c3c3c;}.cls-140{fill:#434242;}.cls-141{fill:#e0dfdc;}.cls-142{fill:#545353;}.cls-143{fill:#848484;}.cls-144{fill:#a9a9a9;}.cls-145{fill:#6b6b6b;}.cls-146{fill:#a2a0a0;}.cls-147{fill:#928d8d;}.cls-148{fill:#474646;}.cls-149{fill:#b0afab;}.cls-150{fill:#3e3d3d;}.cls-151{fill:#535252;}.cls-152{fill:#717070;}.cls-153{fill:#767676;}.cls-154{fill:#777;}.cls-155{fill:#9c9a9a;}.cls-156{fill:#b7b7b7;}.cls-157{fill:#272626;}.cls-158{fill:#e6e6e6;}.cls-159{fill:#7e7d7d;}.cls-160{fill:#b4b4b4;}.cls-161{fill:#adadad;}.cls-162{fill:#b5b4b4;}.cls-163{fill:#c6c6c6;}.cls-164{fill:#d6d6d6;}.cls-165{fill:#bbb;}.cls-166{fill:#7d7b7b;}.cls-167{fill:#494848;}.cls-168{fill:#9d9d9d;}.cls-169{fill:#5c5b5b;}</style></defs><title>변속기_1</title><g id="레이어_2" data-name="레이어 2"><g id="레이어_1-2" data-name="레이어 1"><rect class="cls-1" width="74" height="74" rx="8.33" ry="8.33"/><path class="cls-2" d="M50.64,38.66c3.47-1.55,6.62-.88,9.56,1.34a1.33,1.33,0,0,1,1.12.6,2.45,2.45,0,0,1,0,3.13c-.85,1.05-1.9,1-3.07.63a13.06,13.06,0,0,0-4.13-.47A2.12,2.12,0,0,1,53,43.54c-.8-1.73.82-1.87,1.66-2.55.62-.5,2.21-1,.14-1.76a5.94,5.94,0,0,0-2.16.39C51.8,39.66,51,39.59,50.64,38.66Z"/><path class="cls-3" d="M41.76,54.19,36,50a1.72,1.72,0,0,0-1.78-.79c-1.09,0-1.53-.64-1.6-1.64a5.87,5.87,0,0,1,.75-2.83,1.51,1.51,0,0,1,2.16-.48,2.44,2.44,0,0,1,.83,1.22A6.1,6.1,0,0,0,36.8,47c.37.57,1.11.71,1.47,1.27.19.24.3.64.77.4a2.3,2.3,0,0,1,.57-.21c.81.09,1.55-.34,2.35-.27a1.09,1.09,0,0,1,.74,1.12,4.75,4.75,0,0,0,.08,3.38A1.82,1.82,0,0,1,41.76,54.19Z"/><path class="cls-4" d="M27.54,43.23l-2.18,2c-.87-.66-2.32-.05-2.92-1.31a1.73,1.73,0,0,1,.27-1.41c.24-.39.65-.65.89-1.05a3.56,3.56,0,0,1,.43-.53c.75-.74.84-1.85,1.43-2.69a2.18,2.18,0,0,1,.85-.68,2.51,2.51,0,0,1,.72-.16c1.07.09,2.22-.5,3.2.36a1.43,1.43,0,0,1-.06,1.44c-1,1-.81,2.56-1.63,3.66A1,1,0,0,1,27.54,43.23Z"/><path class="cls-5" d="M60.73,55.75l-1.06,1.11a33.86,33.86,0,0,1-6.37,2.58c-.95.08-1.9,0-2.85.05A3.33,3.33,0,0,1,48.52,59a2.81,2.81,0,0,1-1.66-1,1,1,0,0,1,.1-.77,1.78,1.78,0,0,1,1-.55c1.6.22,3.11.13,4.21-1.31,1-.49,2.2-.29,3.19-.87a1.75,1.75,0,0,1,1.08.17C57.61,56.05,59.46,54.79,60.73,55.75Z"/><path class="cls-4" d="M48.68,32.65a3.27,3.27,0,0,0,1.21,2.48c1.39,1,1,2.11.29,3.28a1.86,1.86,0,0,1-1.61,1.5,1.73,1.73,0,0,1-1.13-.24A1.23,1.23,0,0,1,47,38c.4-.55.25-.86-.4-1.08a1.92,1.92,0,0,1-1.39-1.65c-.1-1.46,0-2.77,1.74-3.27A1.6,1.6,0,0,1,48.68,32.65Z"/><path class="cls-6" d="M11.05,39c-2.57-2.39-2.81-4.26-.53-6.56,1.34-1.34,1.14-3,1.54-4.58s.71-2.85,2-3.78c.22-.28.39-.26.52.08A2.88,2.88,0,0,1,14.37,26a6.2,6.2,0,0,0-.76,1.89,4.62,4.62,0,0,0-.07,1,2.39,2.39,0,0,0,.8,1.73c.65,1.2.07,1.86-1,2.3-2.78,1.67-2.78,1.67-1.65,4.87a1.44,1.44,0,0,1,0,1.25A.61.61,0,0,1,11.05,39Z"/><path class="cls-7" d="M28.54,15.15c.86-1.28,2.32-1.57,3.12-.58,1.2,1.49,2.89,1.42,4.29,2.15a.48.48,0,0,1,.18.39c0,.15,0,.22-.07.22a3,3,0,0,0-.94,1.45A2.88,2.88,0,0,1,32,19.88a2.09,2.09,0,0,1-1.3-1.64c-.1-.63-.71-.79-1.08-1.17a1,1,0,0,1-.22-.63C30.34,15.18,28.39,15.89,28.54,15.15Z"/><path class="cls-8" d="M31.2,50a7.08,7.08,0,0,1-2.69-2.46c-.53-.93-.85-1.83.56-2.28A4.36,4.36,0,0,1,33,47.34C33.35,48.87,32.11,49.32,31.2,50Z"/><path class="cls-9" d="M62.32,40c2.38,2.54,3,5.61,2.64,9a.48.48,0,0,1-.66,0A5.75,5.75,0,0,1,64.4,46c-.63,1.3.38,2.68-.73,3.63-1.45-.53-.87-1.9-1.21-2.89-.55-1.86-.32-3.87-1.08-5.69C61.43,40.42,61.5,39.86,62.32,40Z"/><path class="cls-10" d="M60.73,55.75c-1.64.47-3.3,1.21-4.7-.51.75-.19.88-.55.7-1.88.76-1,1.76-.1,2.61-.35a2.5,2.5,0,0,0,1.4-.79,1.59,1.59,0,0,1,.65-.32,1.23,1.23,0,0,1,1.17,1.22c0,.37.09.75-.25,1Z"/><path class="cls-11" d="M53.3,58.93a9.74,9.74,0,0,1,6.37-2.07C58.55,59,56.59,59.67,54.41,60,54.16,59.54,53.53,59.43,53.3,58.93Z"/><path class="cls-12" d="M46,28.87c1.36,1.2,3.62.39,4.74,2.12a2.12,2.12,0,0,1-2.61.37A3.76,3.76,0,0,0,45.6,31a2.58,2.58,0,0,1-.78-.07,3.24,3.24,0,0,1-1.89-1.81c-.38-.69-1.73-.86-1.17-2.08,1.46-1.13,2.81-.79,4.1.3A1.08,1.08,0,0,1,46,28.87Z"/><path class="cls-13" d="M11.05,39l.64-.11c1-1.23.92-3.45,3.23-3.46.79.5,1.88.57,2.3,1.61.24,1.18-.94,1.41-1.41,2.11a6.28,6.28,0,0,0-.27.59c-.23.4-.47.77-1,.65l-.21.11c-.77-.68-1.88.17-2.62-.6Z"/><path class="cls-14" d="M46,28.87l-.54-1c-.88-1.06-2.33-1.91-1.31-3.65.45-.59,1.26-.57,1.81-1a1.7,1.7,0,0,1,.63-.18C46.39,25,48.16,27.11,46,28.87Z"/><path class="cls-15" d="M24.33,22a3.25,3.25,0,0,1,.43-2.15l.31.08c.47.28.77.74,1.24,1s.79.76,1.24,1.08a2.48,2.48,0,0,1,.83,1.52c-.23,1.09,1,2,.33,3.15a1.09,1.09,0,0,1-.66.32,2.72,2.72,0,0,1-1.57-1C26.17,24.51,24,24.34,24,22.61A1.3,1.3,0,0,1,24.33,22Z"/><path class="cls-16" d="M48.59,39.44l1.59-1,.46.25c.67.53,1.43.16,2.15.21.86-.26,1.15.25,1.3,1a1.58,1.58,0,0,1-.35.68c-1,.63-1.85,1.41-3.1,1.34-.77-.43-1.74-.51-2.27-1.34A1,1,0,0,1,48.59,39.44Z"/><path class="cls-17" d="M24.33,22l-.09.67a1.72,1.72,0,0,1-1.47.62c-1.94-.66-3.78-.15-5.61.49-.89.32-1.74.89-2.74.41l-.36-.09C16.92,20.61,20.42,20.29,24.33,22Z"/><path class="cls-18" d="M32.78,47.39a10.38,10.38,0,0,1-3.71-2.14V44.7c-.51-.81-.08-1.18.66-1.4,1.2.23,2.48,1.44,3.56-.25a.82.82,0,0,1,.71.11c.38.49.18,1,0,1.46l-.68,2.75C33.15,47.7,33,47.7,32.78,47.39Z"/><path class="cls-19" d="M24.76,19.83c1.22-1.28,2.77-2.31,3.39-4.11.8-.17,1.08.4,1.38,1l.17.12a2.92,2.92,0,0,1,.37.61,6.92,6.92,0,0,1,0,2.13,1.53,1.53,0,0,1-.41.59c-.9.64-1.79-.34-2.69,0a4.25,4.25,0,0,1-1,.24,1.24,1.24,0,0,1-.94-.3Z"/><path class="cls-20" d="M35.88,17.41c0-.23,0-.46.07-.69a5.54,5.54,0,0,1,5.27,2.14l-.06.37a1.55,1.55,0,0,1-1.4,1.1,3.23,3.23,0,0,1-1.95-.84c-.55-.59-1.35-.84-1.89-1.43A.71.71,0,0,1,35.88,17.41Z"/><path class="cls-11" d="M52.29,33.64a7.18,7.18,0,0,0,4.37,3l-.14.66H52.86c-.58-.36-.54-1.16-1.1-1.54l0,0C51.41,34.9,50.79,34,52.29,33.64Z"/><path class="cls-21" d="M45.4,30.3c2-1.11,3.45,1.19,5.32.69,1,1.4-1,.88-1,1.6h0l-1,.06-1.62-.06a2.12,2.12,0,0,1-.47-.38c-.27-.35-.62-.6-.91-.92A1.53,1.53,0,0,1,45.4,30.3Z"/><path class="cls-22" d="M47.07,57.32v.55a1.62,1.62,0,0,1,.14.87L47,59c-1.53-.31-2.33-1.5-3.16-2.66-.06-.61-.1-1.21.5-1.62,1.15-.24,1.8.56,2.51,1.23A1.3,1.3,0,0,1,47.07,57.32Z"/><path class="cls-7" d="M22.75,43.66l2.61,1.55H22.22L19,44.32a1.07,1.07,0,0,1-.2-1.08,1.21,1.21,0,0,1,.6-.47,3.34,3.34,0,0,1,1.18.06C21.41,42.9,22.23,42.88,22.75,43.66Z"/><path class="cls-23" d="M46,20.51c1.37.55,1,1.52.59,2.48l-.06.12a2.45,2.45,0,0,1-1.71.77,1.37,1.37,0,0,1-1.11-.18,1.46,1.46,0,0,1-.32-1.1C43.61,21.11,45.22,21.35,46,20.51Z"/><path class="cls-24" d="M30.1,43.65a1.09,1.09,0,0,0-1,1.05,1.49,1.49,0,0,1-1.53-1.47l.52-.55c.53-.58.47-1.66,1.52-1.82a1.93,1.93,0,0,1,1,2.21A1.15,1.15,0,0,1,30.1,43.65Z"/><path class="cls-25" d="M46,20.51c0,1.4-1.54,1.31-2.16,2.12a1.26,1.26,0,0,1-.65.24,1.08,1.08,0,0,1-.61-.31,1.19,1.19,0,0,1,0-1.34l.28-.22A4,4,0,0,1,46,20.51Z"/><path class="cls-26" d="M53.3,58.93c.37.37,2.2-.77,1.11,1.09H50.19a.69.69,0,0,1,0-1Z"/><path class="cls-27" d="M32.78,47.39l.54,0c-.38,2.13,2.47,1,2.63,2.61-1.59-1.06-3.17,0-4.75,0C31.3,48.86,32.82,48.6,32.78,47.39Z"/><path class="cls-28" d="M44.41,54.72a2,2,0,0,1-.55,1.59h0c-.34-.7-1.24-.87-1.57-1.59l-.53-.54.52-1.56c.23-.5.57-.78,1.15-.53.78.56.64,1.5.94,2.26C44.38,54.48,44.4,54.6,44.41,54.72Z"/><path class="cls-9" d="M24.23,46.3a3,3,0,0,1-3.43-.09A3.63,3.63,0,0,1,24.23,46.3Z"/><path class="cls-29" d="M29.53,16.68c-.75.1-.94-.62-1.38-1l.39-.57h2.55C31,16.23,29.9,16.07,29.53,16.68Z"/><path class="cls-30" d="M52.29,33.64c-.63.59-.49,1.36-.51,2.09-.36-.34-.71-.69-1.06-1a3.06,3.06,0,0,1-.47-2.06A2.82,2.82,0,0,1,52.29,33.64Z"/><path class="cls-31" d="M14.52,40.39l.32-1c1.89-.65,2.11.63,2.28,2a1.08,1.08,0,0,1-1.05.52,1.77,1.77,0,0,1-.72-.37A1.58,1.58,0,0,1,14.52,40.39Z"/><path class="cls-32" d="M62.32,40,61.79,41c-.59.34-.76-.28-1.12-.48L60.2,40C60.89,38.21,61.6,39,62.32,40Z"/><path class="cls-33" d="M50.2,59v1A5.4,5.4,0,0,1,47,59v0c.37-.64,1.1-.19,1.57-.51Z"/><path class="cls-4" d="M19,44.14a6.13,6.13,0,0,1,3.21,1.08c-1.11.22-2.12-.3-3.17-.49a.27.27,0,0,1-.47-.06c0-.15,0-.31-.07-.46A.33.33,0,0,1,19,44.14Z"/><path class="cls-34" d="M62.31,54.15v-1c-.46-1-.61-1.9.36-2.68a.88.88,0,0,1,.82,0c.62,1.08-.17,1.84-.62,2.68Z"/><path class="cls-20" d="M41.22,18.86c.61.66,1.46,1.13,1.6,2.14v0a2.32,2.32,0,0,1-.64.34c-.61,0-1.24.1-1.7-.45-.42-.87.38-1.33.66-2Z"/><path class="cls-35" d="M19,44.14a4,4,0,0,0-.5.07l-1-.61a.81.81,0,0,1,0-1.18c.75-.28,1.45-.43,1.58.7Z"/><path class="cls-32" d="M64.45,48.94H65c0,1,.09,2.06-1,2.62-.33-.22-.27-.57-.29-.89-.15-.51.2-.83.46-1.18A.93.93,0,0,1,64.45,48.94Z"/><path class="cls-36" d="M51.76,35.76c.94.1,1.05.8,1.1,1.54C51.89,37.21,51.79,36.51,51.76,35.76Z"/><path class="cls-37" d="M63.87,50.54l.06,1a1.87,1.87,0,0,1-1.06,1.6c.15-.87.31-1.73.47-2.6A.33.33,0,0,1,63.87,50.54Z"/><path class="cls-38" d="M17.48,42.59v1l-.6-.41c-.31-.56-1.37-.67-1-1.64h1a.83.83,0,0,1,.7.49A.54.54,0,0,1,17.48,42.59Z"/><path class="cls-36" d="M50.25,32.63l.47,2.06a3.09,3.09,0,0,1-1-2.1h0Z"/><path class="cls-22" d="M42.29,54.73c.68.38,1.47.64,1.57,1.59C43.16,56,42.37,55.7,42.29,54.73Z"/><path class="cls-32" d="M18.58,44.67a3.78,3.78,0,0,1,.47.06c-.08.41-.17.83-.72.78-.13,0-.33-.16-.35-.28C17.88,44.75,18.3,44.77,18.58,44.67Z"/><path class="cls-39" d="M15.9,41.55c.32.55.65,1.09,1,1.64a1.74,1.74,0,0,1-1.53-1.62Z"/><path class="cls-40" d="M11.69,39.9c.89.13,1.87-.18,2.62.6C13.41,40.41,12.41,40.76,11.69,39.9Z"/><path class="cls-37" d="M60.67,40.55l1.12.48a10.49,10.49,0,0,1,1.6,5.27c-1,1,.22,2.28-.5,3.3a1.3,1.3,0,0,1-.7.11c-1.31-.6-2.36-1.76-3.92-1.82a36.76,36.76,0,0,1-4.21-2.11c-1.09-.68-1.76-1.61-.18-2.58,1.39,0,2.79-.06,4.17.08.85.09,1.58,1.2,2.58.19S60.88,41.52,60.67,40.55Z"/><path class="cls-41" d="M53.36,40l.51,0c.39-.5.51-1.18,1.06-1.56.93,0,1.88.14,2.16,1.08s-.78,1.43-1.36,2c-.8.8-2.18.67-2.9,1.66a2,2,0,0,1-.74,1.47c-.35.28-.74.51-1.08.81A3.37,3.37,0,0,0,49.78,47c-.16.32-.39.59-.56.9a7.18,7.18,0,0,1-.67.87A25.85,25.85,0,0,1,46.35,52c-.71,1.06-1.81,1.68-2.43-.26a17.55,17.55,0,0,1,1.76-4.19,2.58,2.58,0,0,1,.54-1C48.76,44.56,50.87,42.07,53.36,40Z"/><path class="cls-42" d="M51.75,44.13l1.08-1,1.05.06c-.51.91-.39,1.53.68,2,1.4.58,2.73,1.31,4.09,2-.3.88-1,.88-1.78.88a5.35,5.35,0,0,1-1.55-.57,16.09,16.09,0,0,0-3.15-1.6C51.55,45.4,51.24,44.86,51.75,44.13Z"/><path class="cls-43" d="M54.93,38.39c0,.77-.11,1.45-1.06,1.56l-1.08-1.08A2.91,2.91,0,0,1,54.93,38.39Z"/><path class="cls-44" d="M38.06,48.41A2,2,0,0,1,36,47.34a5.15,5.15,0,0,1,3.89-1.43c1,.37,1.15,1.5,1.83,2.16,0,.12.06.23.08.35-.54.83-1.15,1.4-2.11.51a1.39,1.39,0,0,0-1.24-.49Z"/><path class="cls-45" d="M40.13,46.33c-1.42.2-2.63,1.3-4.18,1a1.57,1.57,0,0,1,0-1.57.44.44,0,0,1-.17-.42c0-.15.07-.22.11-.22a1.61,1.61,0,0,1,.71-.17c1.32.63,2.4-1.33,3.75-.34a1.27,1.27,0,0,1,.1,1.45Z"/><path class="cls-44" d="M42.27,49.47l-.52-1v0a1.63,1.63,0,0,1,0-1.69,1.69,1.69,0,0,1,.52-.51,1,1,0,0,1,.73,0,4,4,0,0,1,1,1.61,3.6,3.6,0,0,1,.12.8c-.07,1.09.34,2.31-.84,3.11C41.79,51.46,41.63,50.64,42.27,49.47Z"/><path class="cls-46" d="M34,44.62l-.21-1.48a1.1,1.1,0,0,1-.1-1.29c.86-.87,1.62-.83,2.28.24.24,1,.35,1.9-.57,2.61A1.45,1.45,0,0,0,34,44.62Z"/><path class="cls-26" d="M39.11,48.93c-.08.64.73,1.34-.08,1.91a.84.84,0,0,1-.73-.07c-1.11-.66-.23-1.56-.24-2.36h0C38.64,48.1,39.17,47.94,39.11,48.93Z"/><path class="cls-47" d="M42.27,49.47a2,2,0,0,0,1.08,2.1l.11.32-.2.28-1,.46C41.64,51.58,40.47,50.53,42.27,49.47Z"/><path class="cls-48" d="M34.51,48.27a.57.57,0,0,1-.49-.75.64.64,0,0,1,.53-.3,1.06,1.06,0,0,1,.42.59C35.05,48.13,34.81,48.26,34.51,48.27Z"/><path class="cls-49" d="M35.4,44.7l0-2.62a.83.83,0,0,1,.83.23A2.15,2.15,0,0,1,36,45.23l0,.54C35.75,45.41,35.58,45.05,35.4,44.7Z"/><path class="cls-49" d="M39.11,48.93l-1.06-.53c.28-.39.51-.93,1.11-.73s.42.8.48,1.26Z"/><path class="cls-50" d="M30.12,37.84c-1.05-.68-2.09,2-3.15,0a2.44,2.44,0,0,1-.61-2.61c.54-1.27,1.5-.41,2.27-.45.39-.21.34-.64.46-1,.66-1.11-.58-2.48.49-3.52a1.27,1.27,0,0,1,1.21,0,1.73,1.73,0,0,1,.51.71,5.45,5.45,0,0,1,.15,1.34C31.14,34.22,32.35,36.45,30.12,37.84Z"/><path class="cls-51" d="M25.93,38.39a3.79,3.79,0,0,1-1.57,3.18,1.4,1.4,0,0,1-1.15-.76c-.65-1.11.08-2,.37-3a4,4,0,0,1,.67-1.68,1.56,1.56,0,0,1,.75-.28C26.77,36.15,26.5,37.22,25.93,38.39Z"/><path class="cls-52" d="M25.93,38.39c0-1,.05-2.18-1.53-2.1-.65-.74-.21-1.63-.32-2.44.07-1-.14-2.14,1.17-2.58C27,31.47,26.83,32.82,27,34a5.27,5.27,0,0,1-.25.86c-.18,1,.28,2-.3,3Z"/><path class="cls-53" d="M30.12,37.84c.74-1.86.55-3.82.6-5.76,2.31,1.08.83,3.15,1.23,4.73a12.27,12.27,0,0,1-.6,2.07,1.81,1.81,0,0,1-.47.69,1.21,1.21,0,0,1-1.18.07.52.52,0,0,1-.17-.7Z"/><path class="cls-54" d="M24.24,42l-1,.62a2.76,2.76,0,0,1-2.69.63A1.54,1.54,0,0,1,20.63,41a1.86,1.86,0,0,1,.7-.39,2.22,2.22,0,0,1,.77,0A10,10,0,0,1,24.24,42Z"/><path class="cls-55" d="M29.53,38.94l.09.5a1,1,0,0,1,0,1.53l-1.52,1.71C28.48,41.41,28.22,39.86,29.53,38.94Z"/><path class="cls-56" d="M24.24,42c-.64-.36-2.12,1-2-1a1.13,1.13,0,0,1,1.54-.59l.57,1.12A3,3,0,0,1,24.24,42Z"/><path class="cls-55" d="M20.64,43.13l2.63-.51-.52,1-2.63,0C19.94,43.11,20.17,43,20.64,43.13Z"/><path class="cls-55" d="M26.43,37.85l0-3.16a.3.3,0,0,1,.51,0v3.15Z"/><path class="cls-57" d="M55.42,54.86c-.66,1.59-2.08.68-3.14,1-2.33.76-2.64-1.43-3.7-2.52-.13-1.29-1-2.74.77-3.62,1.34-.2,1.92,1,2.91,1.53.51.65.07,1.23-.15,1.83a1.56,1.56,0,0,0,.1.57,1.33,1.33,0,0,0,1.15.36,2.83,2.83,0,0,1,1.69.32A1,1,0,0,1,55.42,54.86Z"/><path class="cls-58" d="M49.67,50c-1.46.84-.31,2.11-.52,3.15C50.48,56,50.48,56,48.07,57.36l-1,0-.61-1c1.25-1.9,1.13-4,1-6.14.42-.72.19-1.61.62-2.32l.55-.53a.81.81,0,0,1,1,.26A3.08,3.08,0,0,1,50.14,49,1.3,1.3,0,0,1,49.67,50Z"/><path class="cls-59" d="M48.07,57.36a3.79,3.79,0,0,0,1.08-4.22c1.18.73,1.66,2.28,3.13,2.67C51.68,58.52,49.85,57.88,48.07,57.36Z"/><path class="cls-60" d="M57.07,53.14c-.22.89.44,1.36,1,1.91-.66.44-1.34.16-2,.19l-.61-.38.07-.16a.74.74,0,0,1-.26-.61,5.44,5.44,0,0,0,.5-1.68,2,2,0,0,1,.3-1.07,1.35,1.35,0,0,1,.64-.44,1.09,1.09,0,0,1,.87.76A1.32,1.32,0,0,1,57.07,53.14Z"/><path class="cls-11" d="M48.6,58.44A1.81,1.81,0,0,1,47,59c-.14-.36-.4-.73,0-1.08Z"/><path class="cls-61" d="M46,35.73c.84,1,2.21.17,3.27,1.05-.2.85-1,1.19-1.67,1.6-1-.68-1.75.53-2.68.46a2.46,2.46,0,0,1-.76-.12c-2.56-1.43-.91-3.13-.32-4.77a1.6,1.6,0,0,1,.58-.49,1,1,0,0,1,.71.13c.45.45.29,1.09.47,1.63A2.2,2.2,0,0,0,46,35.73Z"/><path class="cls-62" d="M44.92,38.39c.88-.64,1.74-1.89,2.63,0-.47.28-.17.63-.09,1l-.22.29a1.27,1.27,0,0,1-1.06,0C45.7,39.3,45.15,39,44.92,38.39Z"/><path class="cls-63" d="M48.59,39.44l.1,1.09a1.19,1.19,0,0,1-.63,1.39,1.52,1.52,0,0,1-1.56-.19c-.66-1.23.49-1.64,1-2.32l-.08-.06Z"/><path class="cls-64" d="M46,35.73l-.5.05c-.5-.65-.15-1.43-.32-2.13a1.45,1.45,0,0,1,.09-1.3c.6-.63,1.22-.92,2-.2a3.17,3.17,0,0,0-.12.44C45.62,33.26,46,34.58,46,35.73Z"/><path class="cls-65" d="M14.42,24.17c2.52-1.88,5.19-3,8.33-1.61.38,1.91-1.62,2-2.34,3.08-.64.36-1.42.31-2,.75s-1.23.73-1.85,1.09c-1.3.39-2,2.5-3.82,1.41l.06-1.06a7.35,7.35,0,0,0,1-2.18A2.1,2.1,0,0,1,14.42,24.17Z"/><path class="cls-16" d="M14.82,35.73c-1.13,1-1.1,3.08-3.13,3.16-3-3.13-2.77-4.74,1-6.84,1.33.24,1.89,1.26,2.36,2.36a1.39,1.39,0,0,1,0,1.06Z"/><path class="cls-41" d="M14.9,34.72c-1.48-.28-1-2.15-2.17-2.67.39-.11,1-.11,1.14-.35.27-.53-.34-.63-.69-.8a1.45,1.45,0,0,1,1.15-1.55,1.9,1.9,0,0,1,1.87.6,2.65,2.65,0,0,1,.33.65c.08.32.1.65.16,1a1.16,1.16,0,0,0,.76.47,1.56,1.56,0,0,1,.85.59A1.32,1.32,0,0,1,18,34.3c-.87.47-1.87,0-2.75.38Z"/><path class="cls-66" d="M14.29,29.89l-1.11,1c-.72-.54-.62-1.27-.47-2,1.6-.06,2.11-2,3.68-2.14C17.36,29,17.19,29.27,14.29,29.89Z"/><path class="cls-66" d="M13.74,25.65a2,2,0,0,1-1,2.18A3,3,0,0,1,13.74,25.65Z"/><path class="cls-67" d="M31.72,19.33c1.07-.31,2.25-.26,3.16-1a.8.8,0,0,1,.64-.2A8.12,8.12,0,0,1,37,19c.52.65,1.34.89,1.94,1.44a6,6,0,0,1,2.29,1.76,2.75,2.75,0,0,1,.53,1.05,2.18,2.18,0,0,1-.16,1.21,1.73,1.73,0,0,1-1.31.92c-2.79.41-4.18-2.21-6.43-3a3.5,3.5,0,0,1-2.59-1.79C31,20.13,30.72,19.46,31.72,19.33Z"/><path class="cls-68" d="M31.72,19.33c0,1.73,1.24,2,2.6,2.18a.46.46,0,0,1,.07.7c-1.88,1.3-3-.35-4.41-1.07a1.23,1.23,0,0,1-.45-1.09l.1-.7c.15-.74.17-1.55,1.06-1.86a1,1,0,0,1,1,.32A1.44,1.44,0,0,0,31.72,19.33Z"/><path class="cls-69" d="M35.44,18.32l-.56,0c-.12-.67-1.73-.37-1.08-1.27.5-.69,1.43-.06,2.08.39,0,.15,0,.29,0,.44C36,18.28,35.91,18.48,35.44,18.32Z"/><path class="cls-37" d="M31.73,17.81h-1a1.2,1.2,0,0,1-1.08-.55,1.31,1.31,0,0,1,.09-.47C30.41,17.08,31.83,15.91,31.73,17.81Z"/><path class="cls-52" d="M62.84,49.49c.25-1.05-1.1-2.38.55-3.19.14,1.05-.34,2.21.53,3.14.21-.34.38-.32.52.06l-.57,1-.53,0-.46-.07A.66.66,0,0,1,62.84,49.49Z"/><path class="cls-28" d="M64.44,49.5a4.35,4.35,0,0,1-.52-.06V45.55l.53,0v3.41C64.44,49.13,64.44,49.32,64.44,49.5Z"/><path class="cls-70" d="M57.07,53.14V51.62a2.69,2.69,0,0,1,2.43-2.32,1.84,1.84,0,0,1,2.3,1.52,1.71,1.71,0,0,1-.51,1.28,2.89,2.89,0,0,0,0,.5,3.89,3.89,0,0,1-1.59,1.6A2.6,2.6,0,0,1,57.07,53.14Z"/><path class="cls-71" d="M61.3,52.1,61.36,51c.53-.43.23-1.39,1-1.64a3.6,3.6,0,0,1,.44.12c0,.33,0,.67,0,1l-.57,2.63Z"/><path class="cls-34" d="M59.67,54.2a4,4,0,0,1,1.59-1.6A1.55,1.55,0,0,1,59.67,54.2Z"/><path class="cls-72" d="M44,23.58l.8,0c.16.09.22.19.19.31s-.06.18-.11.18c-1.06,1.44.13,2.52.58,3.72a5.62,5.62,0,0,0-3.69-.53,1.23,1.23,0,0,1-.36-.61,2.78,2.78,0,0,1,.89-1.93C42.81,24.32,43.2,23.67,44,23.58Z"/><path class="cls-73" d="M41.67,26.71l.08.59c.51.69,1.62.26,2,1.09a1.91,1.91,0,0,1-1.1,1.09,2,2,0,0,1-1.57-.24,2.09,2.09,0,0,1-.86-1.76,1.14,1.14,0,0,1,.66-.92A1,1,0,0,1,41.67,26.71Z"/><path class="cls-74" d="M42.86,28.87l.94-.48A2.27,2.27,0,0,0,45,30.31a1.44,1.44,0,0,1-1.14,1.12,1.6,1.6,0,0,1-1.22-.3,1.71,1.71,0,0,1-.41-1.19A1.82,1.82,0,0,1,42.86,28.87Z"/><path class="cls-64" d="M43.83,30.93,45,30.31a.45.45,0,0,0,.42,0l.61.6C45.31,32.52,44.58,32.47,43.83,30.93Z"/><path class="cls-39" d="M17.45,42.1l-.53-.55c-.84-.56-.88-1.9-2.08-2.11l.06-.62c.74-.58,1.63-.39,2.47-.5,1,.27,1.95.57,2.19,1.77a1.75,1.75,0,0,1-1.7,2Z"/><path class="cls-75" d="M17,37.34c-.53-.79-2-.29-2.15-1.61h0a3.41,3.41,0,0,1,2-1.14c.89.21,2-.2,2.58.85.33,1.43-.21,2.22-1.71,2.31A1.38,1.38,0,0,1,17,37.34Z"/><path class="cls-76" d="M17,37.34l.53,0c.42.61,1.64.22,1.67,1.33-.49.69-1.09.55-1.72.24l-2.55-.12C15,37.43,16.49,38.13,17,37.34Z"/><path class="cls-77" d="M44.86,24.11a1.61,1.61,0,0,0-.07-.49,2.23,2.23,0,0,1,1.72-.51C46.26,23.93,46.14,25,44.86,24.11Z"/><path class="cls-78" d="M20.09,25.18c.52-1.24,2-1.47,2.66-2.62l1.49.09c.88,1,2.43,1.43,2.81,2.94.21.84-.37.91-1,1-1.33-.58-2.63-1.21-4.19-.68A1.51,1.51,0,0,1,20.09,25.18Z"/><path class="cls-79" d="M28.07,23.57,27,22.43c-.24-1.19.46-1.67,1.46-1.93.65,0,1.17.44,1.79.56a12,12,0,0,1,2.1,1.37c0,1.8-1.8,1.07-2.52,1.85a1.44,1.44,0,0,1-1.63-.38C28.16,23.79,28.11,23.68,28.07,23.57Z"/><path class="cls-80" d="M28.54,26.79c.12-.84-.49-1.36-.88-2s-.4-1.05.41-1.25h0c.58.86,1.84.9,2.31,1.9s1.47,2.21-.58,2.72a1.49,1.49,0,0,1-1.21-1C28.57,27.07,28.55,26.93,28.54,26.79Z"/><path class="cls-81" d="M28.55,21,27,22.43c-.59.06-.82-.46-1.19-.75a1.18,1.18,0,0,1,0-1.91l.55-.46C27.51,19.33,28.44,19.61,28.55,21Z"/><path class="cls-82" d="M28,26.82l.53,0h0c.49.78,1.23,1.45,1.25,2.47a1.62,1.62,0,0,1-.2.78c-1.33,1.58-1.75,1.41-3.08-1.27a1.91,1.91,0,0,1,0-.79A1.79,1.79,0,0,1,28,26.82Z"/><path class="cls-83" d="M28,26.82a1.05,1.05,0,0,1-1,1,1.35,1.35,0,0,1-1.2-1.23c.05-.11.09-.23.14-.34l1.12-.65A1.68,1.68,0,0,1,28,26.82Z"/><path class="cls-84" d="M25.83,19.77c0,.63,0,1.27,0,1.91a1.19,1.19,0,0,1-.77-1.62Z"/><path class="cls-85" d="M53.36,40c-1.77,2.74-3.73,5.3-6.75,6.81l-.28-.27a2.18,2.18,0,0,1,.48-2.15,6.67,6.67,0,0,0,2.45-2.71c.43-.38.87-.57,1.39-.18Z"/><path class="cls-86" d="M50.65,41.5l-1,.51a.92.92,0,0,1-1,.34,1.08,1.08,0,0,1-.68-.88l.77-.94C49.48,40.6,50.48,40.2,50.65,41.5Z"/><path class="cls-67" d="M33.84,42.08c0,.35,0,.7-.05,1.06l-.44,0L33,42.9c-.74-1.09-.37-2.44-.89-3.59.52-1.8-.07-3.59-.08-5.39.28-1.52,1-2.17,2.47-1.2a2.16,2.16,0,0,1,.56,1.55,4.28,4.28,0,0,0,.18,3.6c0,1.15-.71,2.11-.86,3.22A4.76,4.76,0,0,1,33.84,42.08Z"/><path class="cls-87" d="M30.1,43.65a1.27,1.27,0,0,0,.13-.46,1.18,1.18,0,0,1,.53-.92,1.88,1.88,0,0,1,2.57.81l0,0c-.06.89.54,2.18-.76,2.44S30.6,44.74,30.1,43.65Z"/><path class="cls-84" d="M28.55,21l-2.17-1.66c1.36-1.08,2.07.59,3.15.74l.6.48a.64.64,0,0,1,0,1Z"/><path class="cls-5" d="M29.61,17.27l1.08.55-1.06,1.53A1.84,1.84,0,0,1,29.61,17.27Z"/><path class="cls-88" d="M38.61,20.94c-.72-.48-1.59-.77-2.07-1.58.28-.83.92-.71,1.55-.57l1.59,1.09C40,20.92,39.83,21.46,38.61,20.94Z"/><path class="cls-31" d="M38.61,20.94a1.08,1.08,0,0,0,1.07-1.06L41.14,19c-.15.66-.3,1.32-.44,2a1.14,1.14,0,0,1,0,1.66Z"/><path class="cls-89" d="M38.09,18.79l-1.55.57a1.88,1.88,0,0,1-1.1-1l.48-.47A1.93,1.93,0,0,1,38.09,18.79Z"/><path class="cls-66" d="M43.83,30.93a1.33,1.33,0,0,0,2.18,0c.4.41,1.89-.21,1.17,1.25a2.53,2.53,0,0,0-1.71.45c-.49.16-.72.63-1.11.9l0,.24c-.8.25-1.29-.18-1.69-.79s-.52-1.29.11-1.88Z"/><path class="cls-20" d="M48.06,50.48c.29,2.18,1.46,4.6-1.6,5.86a4,4,0,0,1-2.05-1.62l0,0a1.25,1.25,0,0,1-.7-1.57c1.78.11,3-.5,3.48-2.38C47.24,50.49,47.68,50.35,48.06,50.48Z"/><path class="cls-39" d="M20.64,43.13l-.52.51-.54-.5a1.83,1.83,0,0,1-.44-1c0-.61.48-1.13.43-1.77,0-.88-.4-1.71-.33-2.6a1.11,1.11,0,0,1,.83-.76,1.35,1.35,0,0,1,.78.21,2,2,0,0,1,.58,1.06A4.4,4.4,0,0,1,21.18,41,3.36,3.36,0,0,0,20.64,43.13Z"/><path class="cls-68" d="M19.58,42.09v1l-.51,0a1.9,1.9,0,0,0-1.59-.53,3.91,3.91,0,0,0,0-.49l.11-.1C18.25,41.77,18.93,41.46,19.58,42.09Z"/><path class="cls-90" d="M44,23.58a2.08,2.08,0,0,1-1.15,1.57,1.17,1.17,0,0,1-.42-.58,2.16,2.16,0,0,1,.85-1.92l.56,0C43.87,22.94,43.92,23.26,44,23.58Z"/><path class="cls-91" d="M30.76,42.79l-.53.4c-.22-.74-.43-1.48-.65-2.22,0-.51,0-1,0-1.53l1,0a3.67,3.67,0,0,1,1.92,1.15,1.78,1.78,0,0,1,.08,1.14C32.33,42.6,31.26,42.19,30.76,42.79Z"/><path class="cls-92" d="M43.26,22.65a2.26,2.26,0,0,1-.52,1.93c-.14.45-.45.78-.91.58s-.36-.69-.35-1.11c.07-.86.06-1.79,1.37-1.53Z"/><path class="cls-93" d="M42.85,22.52a2.45,2.45,0,0,0-1.23,1.53c-.07.31-.2.35-.4.09l0-.95c-.21-1,0-1.84,1.08-2.22l.56.07Z"/><path class="cls-47" d="M43.87,53.15l.52,1.59c-1.49-.37-.91-1.64-1.13-2.57l.13-.1C44.28,52.1,44.2,52.57,43.87,53.15Z"/><path class="cls-94" d="M42.26,21l-1.08,2.22-.51-.58,0-1.66C41.22,20.78,41.75,20.3,42.26,21Z"/><path class="cls-95" d="M62.4,49.37c-.11.7-.07,1.49-1,1.64-1.8-2.42-3-.36-4.28.61l-.5-.58c-.5-.78.07-1.3.44-1.86s-.37-.84-.54-1.27a.54.54,0,0,1,.13-.61l2-.15C60.2,47.39,61.7,47.7,62.4,49.37Z"/><path class="cls-96" d="M54.82,44.23c2.57-1.28,3.9.21,5.32,2.11C57.83,46.53,56.62,44.67,54.82,44.23Z"/><path class="cls-87" d="M43.87,53.15l-.48-1.08a.78.78,0,0,0,0-.5c0-1.21,0-2.42.07-3.63a.53.53,0,0,1,.74.06c1,1.14.17,2.39.21,3.59.26.88.67,1,1.18.21.86-1.29,1.69-2.61,2.52-3.92,0,.87,0,1.73,0,2.6a5,5,0,0,0-.44.94C46.88,54.56,46.4,54.78,43.87,53.15Z"/><path class="cls-97" d="M44.37,51.59c-.88-1.17-.29-2.57-.61-3.83-.42-.65-.4-1.21.35-1.6,1,.2,1.53,1.18,2.36,1.67A13.89,13.89,0,0,1,44.37,51.59Z"/><path class="cls-98" d="M49.13,47.87l-.51-.52.43-.56a21.79,21.79,0,0,0,1.67-2.06l1-.6a1.3,1.3,0,0,0,1.17,1.17c.14,1.22-1,1.42-1.63,2a8.64,8.64,0,0,1-.85.6A1.16,1.16,0,0,1,49.13,47.87Z"/><path class="cls-81" d="M46.47,47.83c-1.73.84-2.14-.09-2.13-1.59a.44.44,0,0,1,.13-.58,3.24,3.24,0,0,1,1.94,1.18l.2,0C46.56,47.15,46.52,47.49,46.47,47.83Z"/><path class="cls-99" d="M50.72,44.73a2.45,2.45,0,0,1-1.67,2.06A3,3,0,0,1,50.72,44.73Z"/><path class="cls-100" d="M56.61,47.3a.94.94,0,0,0,0,.5c0,.12-.09.23-.12.34-.64.74-1.19,1.57-2.26,1.75a2.77,2.77,0,0,1-2.56-1.74c.28-2,.91-2.28,3.87-1.36C56,46.82,56.38,46.84,56.61,47.3Z"/><path class="cls-101" d="M55.52,46.79c-1,.55-2.74-.79-3.29,1.15a1.13,1.13,0,0,1-1.16.26.87.87,0,0,1-.41-1.37l2.26-1.53C53.85,45.69,55,45.64,55.52,46.79Z"/><path class="cls-45" d="M42.24,46.79c-.16.54-.33,1.07-.5,1.61-1.54.08-1.61-1-1.61-2.07l0,0C41,45.86,41.61,46.42,42.24,46.79Z"/><path class="cls-102" d="M40.13,44.74c-.77,0-1.18.62-1.71,1.07-.85.72-1.58.6-2-.55l.21-.3c1-.41,1.39-1.77,2.67-1.81a1.31,1.31,0,0,1,1,.5A.94.94,0,0,1,40.13,44.74Z"/><path class="cls-103" d="M40.13,44.74l0-1.07c1.74-.2,1,1.87,2.12,2.29,0,.11,0,.22.08.33s-.07.34-.11.5c-.89.68-1.49.17-2.06-.51C40.17,45.77,40.15,45.25,40.13,44.74Z"/><path class="cls-102" d="M36,45.23l0-3.16.37-.09a1.43,1.43,0,0,1,.61.45,2.59,2.59,0,0,1,.24,1.89,1.74,1.74,0,0,1-.68.92l0,0Z"/><path class="cls-104" d="M44.48,45.78a.59.59,0,0,0-.14.46,1.85,1.85,0,0,0-.58,1.52l-.34.18a1.59,1.59,0,0,1-.24-.2c-.31-.44.22-1.13-.43-1.47l-.4,0h-.2a1.87,1.87,0,0,1-.44-1.43,3.66,3.66,0,0,1,.65-1.4,1.78,1.78,0,0,1,1-.57c1.09,0,1.49.84,1.84,1.7A1.14,1.14,0,0,1,44.48,45.78Z"/><path class="cls-48" d="M42.75,46.27l.26-.44c.68.58.12,1.27.17,1.91C43,47.25,42.89,46.76,42.75,46.27Z"/><path class="cls-9" d="M33.84,42.08V41c.49-.7.89-1.75,2-1.14s.83,1.41.16,2.2l0,0h-.52C34.89,41.43,34.36,41.86,33.84,42.08Z"/><path class="cls-88" d="M27,28.38a17.42,17.42,0,0,0,1.29,1.85c.61.67.79,0,1-.43a.53.53,0,0,1,.55.56c-.25,1.28,1.09,2.6-.1,3.85l-.33.18a1.26,1.26,0,0,1-.67-.28,16.16,16.16,0,0,0-4.87-4.33,1.56,1.56,0,0,1-.27-1.84C24.8,27,26,27,27,28.38Z"/><path class="cls-105" d="M29.76,30.36l-.55-.56a1.55,1.55,0,0,1,.08-.36c.16-.53-.15-1.14.32-1.61,1.82-.69,0-1.44,0-2.17a1.1,1.1,0,0,1,1.05-.29,2,2,0,0,1,.94.65,2.74,2.74,0,0,1,.33.69c.32,1,1.34,1.93.46,3.13-.54.41-1.25.41-1.84.71Z"/><path class="cls-31" d="M27,34.7h-.51l.09-.58c.88-1.41,1.71-1.06,2.54.06h0a1.55,1.55,0,0,1,0,2.09A2.71,2.71,0,0,1,27,34.7Z"/><path class="cls-106" d="M31.19,37.32c-.2-1.74.47-3.56-.47-5.24,0-.36,0-.72,0-1.08a.83.83,0,0,1,.91,0C32.73,33.22,32.55,36.22,31.19,37.32Z"/><path class="cls-30" d="M31.19,31h-.52a2.36,2.36,0,0,1-.08-.45c0-1.74.82-1.16,1.66-.61l.22.28a1.16,1.16,0,0,1-.07.69A.75.75,0,0,1,31.19,31Z"/><path class="cls-107" d="M29.09,36.26c0-.69,0-1.39,0-2.09l.59,0C30,35,30.56,35.93,29.09,36.26Z"/><path class="cls-108" d="M21.18,41a4.63,4.63,0,0,1-.52-2.68,3,3,0,0,1,2.56-2,1.48,1.48,0,0,1,1,.43c.1.37.54.7.14,1.13-1,1-1.52,2.32-2.72,3.1A4.07,4.07,0,0,1,21.18,41Z"/><path class="cls-109" d="M21.67,41a5.16,5.16,0,0,1,2.72-3.1c.05.91-1.29,1.5-.6,2.56L22.25,41Z"/><path class="cls-110" d="M24.25,36.76l-1,.05c-1.37.43-1.6-.25-1.1-1.29A5,5,0,0,1,23.61,34a1,1,0,0,1,1.16.21c.24.76-.19,1.4-.37,2.08C24.35,36.45,24.31,36.61,24.25,36.76Z"/><path class="cls-111" d="M29.08,34.17a3.16,3.16,0,0,0-2.54-.06l-1.11-2.67c-.61-.15-1.22-.3-1.44-1a1,1,0,0,1,.34-1C26.11,30.8,28.86,31.22,29.08,34.17Z"/><path class="cls-68" d="M24.37,30.38c.35.36.7.71,1.06,1.06-.83.78-.46,1.84-.66,2.77l-1-.05a.47.47,0,0,1-.64,0A1.28,1.28,0,0,1,23,33.5a3.35,3.35,0,0,0,.36-1.75C23.28,31.07,23.3,30.29,24.37,30.38Z"/><path class="cls-14" d="M31.19,31l1.07-.54c.88-.46,1.46.1,2.07.6a1.36,1.36,0,0,1,.26.71.83.83,0,0,1-.45.57c-1.86-.32-1.66,1-1.63,2.11s.43,2.06.21,3.12a2.38,2.38,0,0,1-1.27,1.52.81.81,0,0,1-.76-.17,1.91,1.91,0,0,1,.5-1.6A8.38,8.38,0,0,0,31.19,31Z"/><path class="cls-112" d="M30.69,38.92h.5a1.31,1.31,0,0,1,1.26,1,.76.76,0,0,1-.22.61c-1.22.68-1.58.08-1.58-1.07C30.66,39.25,30.67,39.09,30.69,38.92Z"/><path class="cls-113" d="M51.25,47.87l1,.07,2.24,1.5a1.3,1.3,0,0,1,.81.76,2,2,0,0,1-1.34,2.16,1.58,1.58,0,0,1-1.68-.77c-1.44.39-1.84-.9-2.59-1.6V49a1.27,1.27,0,0,1,.38-.54C50.44,48.2,50.93,48.21,51.25,47.87Z"/><path class="cls-114" d="M52.26,51.59l1.64.5c.55-.3,1,0,1.37.31a1.5,1.5,0,0,1,.22,1.78v.52l-2.05,0-.56-.37c-.54-.41-1.16-.69-1.67-1.13C50.6,52.07,52.06,52.23,52.26,51.59Z"/><path class="cls-48" d="M53.28,54.28a3.29,3.29,0,0,0,.16.44c-1.17.54-2,.38-2.16-1.08C52.17,53.18,52.74,53.68,53.28,54.28Z"/><path class="cls-115" d="M53.28,54.28l-2-.64c0-.14-.05-.28-.07-.42C52.07,53.24,53.14,52.86,53.28,54.28Z"/><path class="cls-116" d="M50.13,48.84l-.45.12c-.18-.36-.37-.72-.55-1.09l1-.47A.89.89,0,0,1,50.13,48.84Z"/><path class="cls-117" d="M54.91,52.65l-1-.56,1-2.07a.64.64,0,0,1,.61-.23c.86.27.57,1.16.93,1.71v1.09A1.08,1.08,0,0,1,54.91,52.65Z"/><path class="cls-118" d="M54.91,52.65l1.55-.06c.07.77,0,1.46-1,1.59Z"/><path class="cls-100" d="M56.46,51.5l-1-1.54a1.34,1.34,0,0,1,1.87-.73c.08.09.16.19.25.28L56.58,51A3.45,3.45,0,0,0,56.46,51.5Z"/><path class="cls-119" d="M43.25,32.63l1.15,1.11c.21,1.56-2.14,3.13,0,4.68l-.23.34a1.45,1.45,0,0,1-2.2-.18,2,2,0,0,1-.33-.73c.27-1.75.76-3.46.94-5.22A.43.43,0,0,1,43.25,32.63Z"/><path class="cls-120" d="M44.92,38.39c.79,0,1.44.16,1.59,1.07.24.62-.12.95-.6,1.21a1.35,1.35,0,0,1-.77,0,1.89,1.89,0,0,1-1-1.55,1.09,1.09,0,0,1,.3-.69l0,0Z"/><path class="cls-121" d="M44.36,33.5c.15-.56-.08-1.61,1.11-.9,0,.32-.06.65-.08,1s-.3.43-.56.11A1.35,1.35,0,0,1,44.36,33.5Z"/><path class="cls-122" d="M44.83,33.68l.56-.11.06,2.21C44.28,35.37,45.09,34.37,44.83,33.68Z"/><path class="cls-123" d="M45.52,40.54l1-1.08,1-.05c.07.92-.76,1.46-1,2.28.32,1-.39,1.8-.76,2.65a1.24,1.24,0,0,1-1,.37L43.4,43.13A2.14,2.14,0,0,1,45.52,40.54Z"/><path class="cls-124" d="M45.38,44.16c-.1-1.06.62-1.73,1.19-2.47l1.35-.22.7.67c.56,1.32-.37,1.69-1.31,2.06C46.66,44.39,46,44.86,45.38,44.16Z"/><path class="cls-125" d="M14.29,29.89c1.36-.6,2.46-1.38,2.1-3.14L18,25.67a6.53,6.53,0,0,1,4.05.24.9.9,0,0,1,.41.69,1.55,1.55,0,0,1-.32.76c-.63.61-.71,1.59-1.37,2.16-1.05.92-2.13,1.65-3.1-.11a2,2,0,0,1,0-.6.29.29,0,0,0-.05-.31,1.71,1.71,0,0,0-.21.71,2,2,0,0,1-.94,1.43.52.52,0,0,1-.61-.28C15.46,29.85,14.85,30,14.29,29.89Z"/><path class="cls-66" d="M22.22,26.25,18,25.67a2.8,2.8,0,0,1,2.1-.49,12,12,0,0,0,3.26-.38,2,2,0,0,1,2.58,1.44h0C24.69,27,23.45,27.3,22.22,26.25Z"/><path class="cls-126" d="M17,35.22l-2.13.52c0-.34.05-.68.07-1h-.06a1.58,1.58,0,0,1,2-.28A.55.55,0,0,1,17,35.22Z"/><path class="cls-127" d="M17,35.22v-.45a.53.53,0,0,1,.6-.55c.61-.42.45-1,.42-1.63a1.81,1.81,0,0,1-.37-.73,1.19,1.19,0,0,1,1.27-1.32A1.69,1.69,0,0,1,20,31a2.46,2.46,0,0,1,.63,1.85,2.57,2.57,0,0,1-.39,1.06c-.35.46-.54,1.09-1.19,1.29C18.35,35.63,17.65,35.29,17,35.22Z"/><path class="cls-92" d="M17.56,34.22l-.6.55-2.12,0C15.45,33,16.49,33.57,17.56,34.22Z"/><path class="cls-128" d="M19,31A1.08,1.08,0,0,0,18,32.06c-1,.31-1.51-.48-2.08-1.08l0-.62a1.46,1.46,0,0,0,.51,0C17.44,29.91,18.44,29.6,19,31Z"/><path class="cls-129" d="M17,32.58c-.51.63-1.22.79-1.71.21s.26-.63.66-.73C16.51,31.71,17,31.61,17,32.58Z"/><path class="cls-38" d="M17,32.58l-1-.52c0-.36,0-.72,0-1.08.86.05,1.4.69,2.08,1.08,0,.18,0,.35,0,.53Z"/><path class="cls-70" d="M34.35,22.05l0-.54c2.07,1,3.44,3.21,6,3.23a1.25,1.25,0,0,1-1.08,1.4c-1,.15-1.65-.6-2.49-.86-1-.69-2.21-1.23-2.64-2.55A1,1,0,0,1,34.35,22.05Z"/><path class="cls-29" d="M39.1,25.67l1.23-.93.89-.6a2.59,2.59,0,0,0,.4-.09c.13.68.44,1,1.12.53l.09.57-1.16,1.56-.53-.05c-.56-.3-1.17.23-1.73-.1C39.09,26.34,38.86,26.08,39.1,25.67Z"/><path class="cls-130" d="M34.35,22.05a.69.69,0,0,1,.1.37c.11,1.08-.6,1.1-1.36,1.07a1.46,1.46,0,0,1-.87-.88l-2.09-1.09v-1C31.56,21,32.64,22.38,34.35,22.05Z"/><path class="cls-66" d="M42.86,28.87l-.09,1c-.61.51-.31,1.56-1.15,1.93-1.24.19-1.8-.41-1.84-1.6a1.48,1.48,0,0,1,1.45-1.28Z"/><path class="cls-131" d="M41.23,28.94l-1,1.14-.36-.1a1.62,1.62,0,0,1-.74-1.63,1.59,1.59,0,0,1,.84-1.19.83.83,0,0,1,.72.07Z"/><path class="cls-132" d="M40.65,27.23l-.48.08a.81.81,0,0,1-.74-.51.48.48,0,0,1,.25-.52c.57-.19,1.26-.85,1.46.38Z"/><path class="cls-133" d="M41.65,31.4c0-.75.29-1.34,1.12-1.51,0,.39,0,.79,0,1.18s.29,1,.43,1.56l-.47,0a.66.66,0,0,1-.61.17,1.18,1.18,0,0,1-.65-.73A1.06,1.06,0,0,1,41.65,31.4Z"/><path class="cls-134" d="M19.53,37.83c.16.88.78,1.67.55,2.64a.59.59,0,0,1-1,0c-.11-1-1.14-1-1.66-1.52.58-.06,1.18,0,1.6-.57C18.91,37.92,19.12,37.79,19.53,37.83Z"/><path class="cls-18" d="M19.11,40.46h1a1.81,1.81,0,0,1-.5,1.62l-2-.08Z"/><path class="cls-56" d="M19.53,37.83l-.48.54c-.75,0-1.42-.08-1.55-1,1.25-.2,1.62-1,1.55-2.16.09-.56,0-1.18.54-1.58,2.1,1,1.37,2.3.49,3.67Z"/><path class="cls-78" d="M32.22,22.61l.58.47c.19.39,0,.67-.27.92-.6.45-1.34.34-2,.51a1.53,1.53,0,0,1-.67-.15l-.22-.26C29.42,21.73,31.67,23.65,32.22,22.61Z"/><path class="cls-15" d="M30.61,25.76l-1-.09c-.34-.85-1.63-1-1.58-2.1l1.56.53-.05.08C30.17,24.55,31.16,24.65,30.61,25.76Z"/><path class="cls-15" d="M29.61,27.83c0,.55.15,1.15-.32,1.61l-.75-2.65C29.13,26.89,29.34,27.39,29.61,27.83Z"/><path class="cls-135" d="M22.22,26.25c1.23.06,2.46-.92,3.7,0,.39.5,1,.84,1.07,1.56,0,.19,0,.38,0,.57l-3.24-.45a1.06,1.06,0,0,1-.71.21c-.64-.26-1.18-.57-.77-1.4C22.23,26.58,22.23,26.41,22.22,26.25Z"/><path class="cls-136" d="M45.38,44.16l1.71-.49a.89.89,0,0,1,0,1.07,3.77,3.77,0,0,1-.7,2.1c-1.12.5-1.47-.38-1.93-1.06l.35-1.07Z"/><path class="cls-137" d="M47.11,44.74c0-.36,0-.71,0-1.07a1.58,1.58,0,0,0,1.53-1.53l1-.13A2.54,2.54,0,0,1,47.11,44.74Z"/><path class="cls-123" d="M36,42.09c.11-2-.63-2.28-2.13-1.06a4.1,4.1,0,0,1,1-3.17,1.09,1.09,0,0,1,.67-.32,1.41,1.41,0,0,1,.71.27,3,3,0,0,1,.57,1,3,3,0,0,1,0,3l-.33.23Z"/><path class="cls-138" d="M32.23,40.48c0-.17,0-.34,0-.51a1.7,1.7,0,0,1,0-2.11l0-3.71c.17-.33.34-.33.5,0,.35,1.76.76,3.51,0,5.28.19.79.9,1.72-.55,2.09Z"/><path class="cls-20" d="M35.87,37.93a2.07,2.07,0,0,1-.43-.1c-1.43-.66-1.61-1.78-1.13-3.13l0-1.65a.86.86,0,0,1,0-1l.17-.55a1,1,0,0,1,1,.56,7.53,7.53,0,0,1,.3,2.22c.1.77.94,1.07,1.12,1.79A1.52,1.52,0,0,1,35.87,37.93Z"/><path class="cls-139" d="M32.24,41.54c.66-.57.51-1.36.55-2.09.89,1.1.36,2.42.54,3.63-.8-.59-1.73-.06-2.57-.29C30.92,42,31.89,42.13,32.24,41.54Z"/><path class="cls-140" d="M34.31,34.7a4.21,4.21,0,0,0,1.13,3.13l-.55,0C33.19,37.09,33.77,35.89,34.31,34.7Z"/><path class="cls-106" d="M34.3,32l0,1c-1.23-.61-1.51,0-1.5,1.11l-.5,0C32.06,32.6,32.74,31.89,34.3,32Z"/><path class="cls-58" d="M23.39,34.2l.42,0a1.8,1.8,0,0,1-.92,1.69c-.74.51-.13.79.39,1l-2.63,1.55,0-1.06c-.46-.75-.16-1.58-.23-2.37.33-.79.05-2,1.33-2.14a1.26,1.26,0,0,1,.67.23C22.81,33.33,22.63,34.17,23.39,34.2Z"/><path class="cls-5" d="M20.68,34.65l-.06,2.65h-.54c-.09-1.24.41-2.55-.49-3.67l.41-.49C21.53,33.06,20.75,34,20.68,34.65Z"/><path class="cls-100" d="M56.59,47.8l2.75.31c-.18,1.21-1,1.19-1.71,1.4l-.16-.15c-.42-.4-1.16-.58-1-1.4Z"/><path class="cls-99" d="M50.13,48.84c0-.48,0-1,0-1.44l.53-.57.58,1C51.14,48.5,50.82,48.89,50.13,48.84Z"/><path class="cls-141" d="M56.47,48c.42.4,1.07.65,1,1.4l-2,.6-.58.06-.45-.58C54.77,48.46,55.11,47.52,56.47,48Z"/><path class="cls-20" d="M42.36,44.85l-.21,1.43c-1.66-.1-1.17-1.86-2-2.61l-1,0a1.05,1.05,0,0,1-.35-.63,1.5,1.5,0,0,1,.2-.72,2.48,2.48,0,0,1,1.25-.89C42.79,41.4,41.84,43.58,42.36,44.85Z"/><path class="cls-103" d="M39.08,43.14c0,.17,0,.33,0,.5-.9.49-.81,2.64-2.64,1.6,0-.35,0-.7,0-1.05C37.2,43.48,37.68,42.15,39.08,43.14Z"/><path class="cls-142" d="M39.08,43.14l-2.61,1c0-.7,0-1.4,0-2.1h0a1.74,1.74,0,0,1,.56-.4,2.28,2.28,0,0,1,1.36.2,1.25,1.25,0,0,1,.7.74C39.1,42.8,39.09,43,39.08,43.14Z"/><path class="cls-143" d="M38.15,42.44,37,42.07c-.64-1.56-.07-2.49,1.51-2.89,1.08-.07,2-.65,3.14-.68.62.23,1.18.56,1.78.82a1.64,1.64,0,0,1,.07,1.79,3.23,3.23,0,0,0-.74,2.52l-.42,1.22c-1.37-.41-.23-2.79-2.17-2.76A1.61,1.61,0,0,0,38.15,42.44Z"/><path class="cls-144" d="M42.78,43.63c-.78-.87-1.37-1.75,0-2.65.91.09,1.46-1.4,2.54-.56l.24.12L43.4,43.13Z"/><path class="cls-145" d="M22.24,33.54v-.45c-.51-1.38.54-2.71.12-4.09a1.59,1.59,0,0,1,.95-1,1.39,1.39,0,0,1,.41,0c.2.5.41,1,.62,1.49,0,.32,0,.64,0,1-1.05.85,1,2.75-1.08,3.25A.65.65,0,0,1,22.24,33.54Z"/><path class="cls-146" d="M30.61,25.76c-.35-.52-.69-1.05-1-1.58l.64-.11c.71-.08,1.53.37,2.07-.46l.51-.53a1.83,1.83,0,0,0,1.65-.66L37,24.58a.53.53,0,0,1,.17.39c0,.15,0,.23-.06.23-.57.65-1.43.1-2,.5a.61.61,0,0,0-.2.44c.1.4.45.59.69.89.39.49.81,1,.22,1.6-2.36.8-3.29-1.21-4.65-2.37Z"/><path class="cls-147" d="M31.16,26.26c2-.13,2.75,2.37,4.76,2.11a.7.7,0,0,1,.67-.22,1.44,1.44,0,0,1,.79.78,1.82,1.82,0,0,1,0,1.13A13.45,13.45,0,0,1,36,31.81a1,1,0,0,1-1,.28l-.5-.61-.15.07c-.51-.46-1.15-.8-1.43-1.49-.09-1.34-1-2.28-1.68-3.32A2.61,2.61,0,0,1,31.16,26.26Z"/><path class="cls-148" d="M31.21,26.74A4,4,0,0,1,33.29,30a.73.73,0,0,1-1,0v0C32.46,28.7,31.27,27.9,31.21,26.74Z"/><path class="cls-106" d="M32.24,30h1c.34.53.69,1.06,1,1.6-.88,0-1.37-.75-2.06-1.09C32.25,30.29,32.24,30.12,32.24,30Z"/><path class="cls-40" d="M22.24,33.54l1.05.09c0,.19.07.38.1.57-.12.37-.21.94-.72.74A.87.87,0,0,1,22.24,33.54Z"/><path class="cls-91" d="M32.25,37.86c0,.7,0,1.4,0,2.11l-1.05-1.06Z"/><path class="cls-149" d="M52.17,50.08c.41.13.78.23.66.65,0,.11-.46.2-.66.14s-.33-.31-.49-.48Z"/><path class="cls-150" d="M39.1,39.88c-1.39.06-2.21.67-2.08,2.19h-.54a6.39,6.39,0,0,0-.52-3.2c.36-.33.57-.79,1-1.05,1.57-.15,1.86-1.44,2.33-2.59.4-.48,1-.47,1.54-.69.87-.43.5-1.78,1.53-2.1a.94.94,0,0,1,.43.16c1.07,1.86,0,3.52-.52,5.23C41.28,38.63,40.44,39.64,39.1,39.88Z"/><path class="cls-151" d="M39.1,39.88c1.08-.65,1.81-1.82,3.16-2,0,.18,0,.36,0,.55s-.33.37-.54.51C40.94,39.44,40.23,40.21,39.1,39.88Z"/><path class="cls-152" d="M41.74,38.9l.54-.51c.7.42,1.41,0,2.12,0,0,.19,0,.38,0,.57,0,.83-.48.83-1.07.5Z"/><path class="cls-83" d="M43.37,39.46l1.07-.5.84,1.46c-.88,0-1.43,1.55-2.54.56Z"/><path class="cls-89" d="M19,31c-.72-.89-1.75-.48-2.64-.63L17,28.86A.71.71,0,0,1,18,29c.9,1.88,1.62.55,2.26-.18s.19-1.84,1.4-2c.49.72,1.11,1.39.84,2.38-.1,2.59-.56,3-2.95,2.36Z"/><path class="cls-94" d="M18,29,17,28.86c-.09-.91-.16-1.81,1-2.08.63.59,2,1,.53,2.11A4.13,4.13,0,0,0,18,29Z"/><path class="cls-89" d="M18.53,28.89c.6-.9-.16-1.46-.53-2.11C19.22,27.22,20.58,27.62,18.53,28.89Z"/><path class="cls-153" d="M22.27,28.88l-.57-2.1.53,0L23.3,28l-.54.93C22.6,29.14,22.43,29.15,22.27,28.88Z"/><path class="cls-154" d="M22.27,28.88h.49a3.4,3.4,0,0,1-.53,4.2c-1,0-1,1.08-1.55,1.56-.1-.56-.07-1.18-.67-1.51l-.42-1.62A2.41,2.41,0,0,0,22.27,28.88Z"/><path class="cls-89" d="M37,25.23l.09-.65,2.06,1.09c.19.2.38.41.58.61a2.42,2.42,0,0,0-.07.47,1,1,0,0,1-.58.84C37.56,27.49,37.06,26.53,37,25.23Z"/><path class="cls-155" d="M41.65,31.4l.08.62v.38a2.26,2.26,0,0,1-1.22,2.2,1.82,1.82,0,0,1-2-.64c-.72-1.27.71-2.14.61-3.31.2-.47.44-.9,1.07-.82l0,.25A1.32,1.32,0,0,0,41.65,31.4Z"/><path class="cls-6" d="M40.14,29.83,39.61,31a1.07,1.07,0,0,1-.6.34,2.32,2.32,0,0,1-1.35-.42,1.16,1.16,0,0,1-.36-.6A4.22,4.22,0,0,1,39,28.17a.66.66,0,0,1,.64.18Z"/><path class="cls-156" d="M39.64,28.35a2.66,2.66,0,0,0-.49.1.89.89,0,0,1-.34-.58,1,1,0,0,1,.28-.61l.52-.51.56.56C40,27.66,39.81,28,39.64,28.35Z"/><path class="cls-157" d="M42.35,32.45c-.17,1.17.28,2.55-1.13,3.28a1.2,1.2,0,0,1-.35-1.06c.52-.75.29-1.79,1-2.49L41.73,32Z"/><path class="cls-158" d="M32.29,23.61c-.21,2.31-1.3.66-2.07.46C30.8,23.43,31.57,23.62,32.29,23.61Z"/><path class="cls-159" d="M37.05,38.41a1.16,1.16,0,0,1-1.09.47l-.09-1c.2-.73.41-1.47.61-2.21a.57.57,0,0,1,.06-.75,1.69,1.69,0,0,1,.74-.38,1.76,1.76,0,0,1,2,1.17C39.83,37.73,38.33,38,37.05,38.41Z"/><path class="cls-160" d="M35,32.09l.51-.57a.89.89,0,0,1,1.11-.12,1.88,1.88,0,0,1,.17,2.29,2.32,2.32,0,0,1-.4.7,1.15,1.15,0,0,1-1.46.28Z"/><path class="cls-111" d="M34.9,34.67l1.05-.5a1,1,0,0,1,.52,1.12c0,.14,0,.28,0,.43C35.3,36.34,34.78,36,34.9,34.67Z"/><path class="cls-161" d="M38.15,42.44c0-.64,0-1.25.79-1.36s1.09.35,1.25,1l-1.09.53Z"/><path class="cls-162" d="M39.09,27.26l0,.57c-.62.52-1,1.62-2.11,1.05l-.54-.49c-.19-1.6-1.72-2.13-2.6-3.17,1-.93,2.06-.51,3.09,0Z"/><path class="cls-163" d="M33.86,25.22c1.71.37,3.75.47,2.6,3.17l-.54,0-1.06-1c0-.83-.88-1-1.1-1.66A3,3,0,0,1,33.86,25.22Z"/><path class="cls-164" d="M33.76,25.67c.81.26,1.94.31,1.1,1.66C34.41,26.83,33.08,26.91,33.76,25.67Z"/><path class="cls-165" d="M37,28.88c.71-.35,1.24-1,2.11-1.05,0,.21,0,.41,0,.62,0,1.14-1.16,1.35-1.75,2-.4,0-.65-.13-.46-.59Z"/><path class="cls-162" d="M36.94,29.87l.46.59a.45.45,0,0,0,.28,0,.82.82,0,0,1,0,.67c-.3.41-.66.67-1.19.41l-1.05,0A2.17,2.17,0,0,1,36.94,29.87Z"/><path class="cls-55" d="M37.05,38.41c.82-.76,2.38-.95,2-2.62a.45.45,0,0,1-.15-.39c0-.14.05-.22.08-.22a.51.51,0,0,1,.61.08C39.85,37.2,39.42,38.59,37.05,38.41Z"/><path class="cls-22" d="M39.6,35.26l-.46-.08c0-1.19.89-.58,1.4-.75a.74.74,0,0,1,.67.31c0,.33,0,.66,0,1Z"/><path class="cls-166" d="M39.1,31h.51c1.5,1.57-.72,1.64-1,2.49l-.23.29a.76.76,0,0,1-.64-.29A1.74,1.74,0,0,1,37.61,32,1.79,1.79,0,0,1,39.1,31Z"/><path class="cls-119" d="M40.67,34.66c-.53.13-1.14,0-1.53.52,0,.2,0,.4-.08.61A3.22,3.22,0,0,0,37,35.21c-.29-1.35,1.11-.94,1.58-1.5l0-.23a2.23,2.23,0,0,0,2.1.69c.13.12.17.23.12.34S40.72,34.66,40.67,34.66Z"/><path class="cls-150" d="M40.67,34.66a2,2,0,0,0,0-.49,2.57,2.57,0,0,1,1.12-2c-.1.88.14,1.84-.61,2.56Z"/><path class="cls-167" d="M39.1,31l-1,1.09c-.92,0-.91-.46-.56-1.1l.16-.52C38.19,30.54,38.74,30.5,39.1,31Z"/><path class="cls-108" d="M38.58,33.71c-.08,1-1.14.91-1.58,1.5l-.53.08L36,34.17l.16-.52a1.41,1.41,0,0,1,2-.06A3.45,3.45,0,0,1,38.58,33.71Z"/><path class="cls-168" d="M38,36.73l-.58.33c-.07-.14-.24-.36-.2-.42a2.53,2.53,0,0,1,.53-.44Z"/><path class="cls-169" d="M38.12,33.59l-2,.06.42-2.11,1-.56.56,1.1C38.09,32.58,38.11,33.09,38.12,33.59Z"/></g></g></svg>