<svg xmlns="http://www.w3.org/2000/svg" viewBox="0 0 115 45.66"><defs><style>.cls-1{fill:#2b2b2b;}.cls-2{fill:#141414;}</style></defs><title>test4</title><g id="레이어_2" data-name="레이어 2"><g id="레이어_1-2" data-name="레이어 1"><rect class="cls-1" width="115" height="45.66"/><path class="cls-2" d="M92.91,41.75H46.15A11.69,11.69,0,0,1,44,40.91c-.38-.16-.76-.32-1.13-.51-.1,0-.21-.08-.24-.2a.59.59,0,0,1,.41-.4h.1c.49.12.49.12.8-.3A1,1,0,0,1,44.6,39c0-.18-.27-.28-.2-.5s.14-.1.17-.19-.2,0-.29-.09a.65.65,0,0,1-.31-.51c-.07-.26-.14-.52-.22-.79-.39.15-.54.6-.93.71s-.41-.26-.68-.31c0,.21.25.29.23.48s-.06.13-.12.14c-.57.17-.6.69-.74,1.14a1,1,0,0,0,.19.43c.06.1.08.2-.08.23a1,1,0,0,1-.49-.18,28,28,0,0,1-3.91-2.15,4,4,0,0,1-1.47-1.81,4.1,4.1,0,0,1-.28-1.8.43.43,0,0,0-.4-.53A3.65,3.65,0,0,1,34,32.74a.92.92,0,0,1-.31-.83c0-.7,0-1.4,0-2.1a6.44,6.44,0,0,0,0-.76A.91.91,0,0,1,34.34,28a19,19,0,0,1,2-.56c.8-.21,1.62-.35,2.44-.52.56-.11,1.13-.1,1.69-.19a1.91,1.91,0,0,0,1.31-.78c.24-.31.34-.32.63-.06a2.58,2.58,0,0,0,.41.33c.11.05.24.11.33,0a.27.27,0,0,0-.08-.38l-.1-.08a.71.71,0,0,1-.31-.91c.11-.39.08-.45-.29-.58-.53-.2-1.09-.22-1.63-.37-.33-.09-.65-.2-1-.32-.08,0-.23-.06-.21-.17s.17-.11.28-.1a6.74,6.74,0,0,1,1.6.3l.86.24c.24.08.47.09.56-.25s.25-.29.45-.35.27-.11.28-.27A.62.62,0,0,1,44,22.4c.2-.07.32-.17.32-.39s.15-.34.38-.35.55,0,.82,0c.42,0,.55-.15.57-.55s0-.57.56-.56a4.87,4.87,0,0,0,1-.09.52.52,0,0,1,.54.18.73.73,0,0,0,.58.24,24.86,24.86,0,0,0,3,0c.17,0,.37,0,.39.22,0,.4.34.47.61.51a3,3,0,0,0,1.24,0c.29-.09.59,0,.89-.11-.19-.3-.49-.24-.76-.22-.52,0-.53,0-.7-.44a.43.43,0,0,0-.47-.29.76.76,0,0,1-.74-.31c-.12-.18-.38-.15-.58-.15H44.51a.8.8,0,0,1-.79-.35,1,1,0,0,0-.32-.27.43.43,0,0,1-.15-.18c-.1-.21,0-.33.2-.36a1.61,1.61,0,0,1,.49,0c.12,0,.24.06.36-.08-.22-.06-.43-.07-.63-.11-.38-.07-.45-.15-.43-.55a1.74,1.74,0,0,0,0-.47.46.46,0,0,0-.19.43,2.71,2.71,0,0,1,0,.29c0,.12,0,.26-.16.3s-.19-.07-.26-.16l-.5-.61c0-.05-.09-.12-.16-.06s0,.12,0,.17c.28.35.57.69.85,1.05.08.11.25.22,0,.37a4.71,4.71,0,0,1-1.3,0c-.19-.1-.11-.19,0-.29s.32-.08.44-.2a.56.56,0,0,0-.7.17c-.09.1-.14.23-.26.3a1.16,1.16,0,0,1-.49.06H34.48a1.21,1.21,0,0,1-1-.39A.58.58,0,0,0,33,19H15.14a1.93,1.93,0,0,0-1,.26,9.41,9.41,0,0,0-1.29.78.7.7,0,0,1-1-.07,1.15,1.15,0,0,0-1.26-.29,1.45,1.45,0,0,1-.94-.06.62.62,0,0,1-.39-.32v-1s0,0,0,0,0,0,0,0V17.09c.16-.48.18-.49.7-.5s.79,0,1.19,0a1.08,1.08,0,0,0,.8-.3c.4-.37.57-.36,1,0a5.85,5.85,0,0,0,.48.34,1.61,1.61,0,0,0,1,.31c4.6,0,9.21,0,13.81,0,1,0,2,0,2.95.1.56,0,1.12,0,1.68,0a.66.66,0,0,0,.61-.31.45.45,0,0,1,.39-.21h.4c3,0,5.94,0,8.91,0a1,1,0,0,0,.9-.35c.14-.19.36-.18.57-.18,1.52,0,3,0,4.54,0,.67,0,1.34-.08,2-.08.31,0,.62,0,.92.05a.51.51,0,0,0,.59-.18c.09-.13.25-.1.4-.08a.44.44,0,0,0,.48-.18.58.58,0,0,1,.57-.19c.22,0,.4,0,.47-.3s.22-.26.41-.29a3.37,3.37,0,0,1,.55,0c.32,0,.61,0,.76-.35.07-.15.26-.19.42-.23a6,6,0,0,1,.84-.11c.73-.11,1.45-.27,2.17-.4.21,0,.43,0,.65-.05a1.63,1.63,0,0,0,1.09-.54c.31-.33.4-.32.73,0,.11.1.22.22.34.31a.62.62,0,0,0,.52.12c.85-.15,1.71-.26,2.57-.35S67.4,13,68.25,13a4.46,4.46,0,0,0,.86-.2.37.37,0,0,0,.27-.33c.07-.47.15-.54.64-.64.72-.14,1-.44,1-1.18a1.22,1.22,0,0,0,0-.33.28.28,0,0,1,.24-.41.63.63,0,0,0,.47-.37,2.64,2.64,0,0,1,.61-.68.37.37,0,0,1,.62,0,3.41,3.41,0,0,0,.5.57c.14.09.24.14.38,0a1.59,1.59,0,0,1,1.6-.17.74.74,0,0,1,.29.46c0,.16.1.22.28.18A18.37,18.37,0,0,1,80,9.7a1,1,0,0,1,1,.86c0,.13,0,.26.18.33a.58.58,0,0,1,.3.58.85.85,0,0,0,.42.83,1.12,1.12,0,0,1,.43.53c.07.18.19.23.39.23,2.22,0,4.45,0,6.67,0,.41,0,.46.06.54.46a3.89,3.89,0,0,1,0,.59c0,1.42,0,2.83,0,4.24,0,.43.08.85.07,1.28a3.34,3.34,0,0,1-.11.78.59.59,0,0,1-.62.53c-1.2,0-2.41,0-3.61,0a.27.27,0,0,1-.19-.21.53.53,0,0,0-.11-.24c0-.07-.08-.21-.21-.14s0,.16,0,.23.13.23,0,.36a.38.38,0,0,0-.06.46,1.15,1.15,0,0,1,.1.58c0,.13,0,.27.19.29s.35,0,.39-.15c.09-.39.37-.43.69-.46a5.8,5.8,0,0,1,1.25,0,10.27,10.27,0,0,0,1.24,0,.89.89,0,0,1,.77.36,1,1,0,0,0,1.25.23.2.2,0,0,0,.12-.21c0-.27.16-.31.37-.31.77,0,1.55,0,2.33-.07a8.92,8.92,0,0,1,2.19.05.2.2,0,0,0,.21-.07c.13-.18.29-.13.42,0a1.22,1.22,0,0,0,1.13.29,4.28,4.28,0,0,1,2,.1.39.39,0,0,0,.51-.24.63.63,0,0,1,.76-.42,6.35,6.35,0,0,0,1.57.1,3.44,3.44,0,0,1,.78.08.74.74,0,0,1,.59.47c.1.3.33.23.54.24a.43.43,0,0,0,.49-.3,3.35,3.35,0,0,0,.2-1c0-.34.08-.42.42-.41a5.69,5.69,0,0,1,1.79.11.41.41,0,0,1,.34.45,16,16,0,0,1-.11,2.59c-.16,1-.35,2-.53,2.94,0,.14,0,.27.08.36a1.76,1.76,0,0,1,.67,1.27v2c-.17,1.17-1.06,1.57-2,1.87-.21.06-.44.07-.65.13a.42.42,0,0,0-.35.58c0,.16.1.31.15.47a5,5,0,0,1,.19,2.21,4.16,4.16,0,0,1-1.46,2.82,3.73,3.73,0,0,1-1.32.48c-1.16.39-2.33.75-3.5,1.11l-2.63.83-2.6.82A5.08,5.08,0,0,1,92.91,41.75ZM98.34,38a1.76,1.76,0,0,1-.62.39.31.31,0,0,1-.46-.24,1.54,1.54,0,0,1,0-.74.59.59,0,0,0-.57-.69c-.13,0-.2,0-.2.19a4.06,4.06,0,0,1-.78,2.45c-.07.11-.24.22,0,.4s.15.28.23.42.1,0,.15,0a1.71,1.71,0,0,1,.44-.13c.18,0,.26-.14.16-.32a1.56,1.56,0,0,1-.16-.92c0-.12,0-.26.11-.31a.43.43,0,0,1,.42.08,2,2,0,0,1,.46.62c.13.28.27.58.67.29h.09c.45-.07.52-.17.39-.6a1.25,1.25,0,0,1,0-1C98.5,37.82,98.42,38,98.34,38ZM52.53,41.21a1.85,1.85,0,0,1,.07-.74.15.15,0,0,0-.08-.16,3.15,3.15,0,0,1-.76-.6c-.14-.14-.23,0-.32,0s-.22.13-.1.27a1.91,1.91,0,0,1,.36,1.07c0,.29.14.37.41.32S52.5,41.53,52.53,41.21Zm5.5,0a3.68,3.68,0,0,1,.09-.87c0-.08-.07-.15-.13-.2a2.31,2.31,0,0,1-.33-.28c-.1-.15-.15-.12-.29,0a.57.57,0,0,0-.24.82,1,1,0,0,1,.06.39c0,.27.07.45.41.36C57.74,41.36,58,41.51,58,41.21ZM89.22,41a1.35,1.35,0,0,1,.18-.81c.15-.23-.12-.32-.21-.44s-.19,0-.27.12-.12.13-.19.19a.8.8,0,0,0-.38,1c.08.25.08.45.43.35C89.15,41.54,89.22,41.29,89.22,41ZM65.35,41a.91.91,0,0,1,0-.33c0-.12,0-.17-.1-.22a3.57,3.57,0,0,1-.94-.69.12.12,0,0,0-.2,0c0,.06-.06.1,0,.16a1.49,1.49,0,0,1,.4,1.13c0,.31.11.43.42.34C65.32,41.5,65.4,41.31,65.35,41Zm11,0a1.71,1.71,0,0,1,.2-.91c.07-.1,0-.17-.1-.23a.16.16,0,0,0-.24,0,2.37,2.37,0,0,1-.59.55c-.34.25,0,.55-.07.81s.23.08.34.1C76.23,41.49,76.35,41.36,76.37,41.05Zm-31.72-.69c-.08.12,0,.22.15.25s.41.29.68.22c0,0,0,0,0,0a3.57,3.57,0,0,0,.35-.63c0-.07-.25-.22-.39-.33s0,0,0-.05l-.6-.58A1.83,1.83,0,0,1,44.65,40.36Zm5.72.1a1.78,1.78,0,0,0-.44.21s-.12,0-.13.11q-.07.63.54.63h.14c.15,0,.2-.07.21-.22s.08-.61.12-1A2.67,2.67,0,0,1,50.37,40.46Zm12.53.22c-.4.11-.17.38-.18.57s.23.13.35.16.13,0,.2,0,.23-.07.24-.25.06-.55.11-.92A3.17,3.17,0,0,1,62.9,40.68Zm18.27.08a.25.25,0,0,0-.14.35c0,.1,0,.28.14.29a1.14,1.14,0,0,0,.61,0c.14-.08.06-.28.08-.43s.06-.4.11-.69A3.32,3.32,0,0,1,81.17,40.76Zm-12.72-.07c-.38,0-.24.28-.25.48s.14.25.32.24h.26c.15,0,.22,0,.24-.19s0-.5.08-.76C68.84,40.47,68.67,40.67,68.45,40.69Zm36.16-5.52c.09,0,.15,0,.14-.12a1.75,1.75,0,0,0-.09-.78,1.14,1.14,0,0,1-.83.58.5.5,0,0,0-.39.57A3.19,3.19,0,0,1,104.61,35.17Zm-.78,1.61c-.15.09-.42-.09-.45.14s.19.29.29.43l.11.16a2.88,2.88,0,0,0,.55-.79c.09-.14.22-.34.13-.49s-.32-.06-.49-.06C104.08,36.57,104,36.66,103.83,36.78ZM70.71,41.4c.09,0,.19,0,.16-.16s.09-.26-.07-.35a3.12,3.12,0,0,1-.72-.48.12.12,0,0,0-.15,0c-.07,0,0,.08,0,.13a5.4,5.4,0,0,1,.11.58c0,.24.09.39.35.3A1.6,1.6,0,0,0,70.71,41.4Zm-14.48-.68c0-.12,0-.1-.09-.1-.4,0-.77.23-.79.43s.12.41.37.36C56.29,41.4,56.12,41.47,56.23,40.72Zm34,.21c.05.48,0,.48.52.48h.1c.12,0,.2,0,.17-.16s.12-.3-.1-.35-.47-.24-.76-.32A3.08,3.08,0,0,1,90.21,40.93ZM77.38,41c-.06.37.11.46.43.41H78c.09,0,.21,0,.19-.14s.08-.33-.11-.36-.46-.24-.75-.28A1.09,1.09,0,0,1,77.38,41Zm6,.4c.13,0,.29.06.34-.13a.3.3,0,0,0-.25-.36c-.22-.07-.38-.24-.6-.31C82.81,41.3,82.88,41.41,83.36,41.4Zm-29.58-.58c-.09,0-.24-.15-.25,0s-.16.45.11.54a1,1,0,0,0,.62,0c.12,0,0-.26.08-.38a.25.25,0,0,0,0-.1A2.45,2.45,0,0,1,53.78,40.82Zm13.4.24c0-.32-.27-.1-.39-.16s-.12,0-.16,0c-.36-.16-.3.09-.29.29s.27.21.43.22C67.08,41.48,67.2,41.36,67.18,41.06Zm35.57-3.43a1.19,1.19,0,0,1,0-.93c-.32.2-.52.35-.37.71a1.81,1.81,0,0,1,.07.77C102.89,38.07,102.89,38.07,102.75,37.63ZM48.53,41.41c.29,0,.32-.11.32-.34s-.19-.16-.31-.17a5,5,0,0,0-.55,0C48.07,41.41,48.07,41.39,48.53,41.41Zm11.07,0c.09,0,.23.05.23-.14s0-.24-.18-.28a3.76,3.76,0,0,1-.6-.19C59,41.51,58.94,41.39,59.6,41.41ZM47,41.17a.69.69,0,0,1,0-.29c.1-.24-.13-.23-.22-.27s-.19.07-.2.2a.67.67,0,0,1-.07.24c-.12.27-.08.34.26.36C47,41.46,47,41.37,47,41.17Zm53.84-2.49c.08-.07-.12-.29-.16-.46a.86.86,0,0,1,0-.16c0-.05,0-.12-.07-.12s-.13,0-.12.11c0,.33-.26.55-.33.88A2.25,2.25,0,0,0,100.84,38.68ZM61.25,41.41h.2c.15,0,.23,0,.22-.2s-.15-.12-.23-.11-.28,0-.42,0-.14,0-.14.12,0,.13.14.14Zm18.55,0a.16.16,0,0,0,.2-.18c0-.17-.12-.14-.23-.1a1.25,1.25,0,0,1-.19,0c-.14,0-.39-.07-.38.12s.26.1.38.13Zm7.44,0c.14,0,.11-.18.1-.27s-.13,0-.19,0a2,2,0,0,0-.68.26A2.08,2.08,0,0,0,87.24,41.4Zm5.39-.25h-.4c-.09,0-.19,0-.18.12s.12.14.22.12a1.76,1.76,0,0,1,.5-.13C92.84,41.1,92.73,41.13,92.63,41.15Zm-18.2.23c.11,0,.1-.17,0-.27a2.23,2.23,0,0,1-.79.2A1,1,0,0,0,74.43,41.38Zm20.4-.79s.13,0,.06-.13-.07-.14-.16,0-.28.1-.38.27A.6.6,0,0,0,94.83,40.59Zm-1.73.53a.59.59,0,0,0-.47,0c.07,0,.14,0,.14.12A2,2,0,0,1,93.1,41.12Zm-21,.19a.37.37,0,0,0-.29,0C72,41.39,72,41.42,72.12,41.31ZM42.86,39.49c0-.24.19-.26.38-.25V38.8a.73.73,0,0,0-.38-.41c-.31.1-.43.38-.59.62s-.16.33-.39.31a1.47,1.47,0,0,0,.45.54l.26,0C42.69,39.73,42.84,39.66,42.86,39.49Z"/><rect class="cls-2" x="38.88" y="17.05" width="8.86" height="2.47"/></g></g></svg>