<svg xmlns="http://www.w3.org/2000/svg" viewBox="0 0 300 119.12"><defs><style>.cls-1{fill:#3d2d18;}.cls-2{fill:#19150e;}</style></defs><title>자산 6lk</title><g id="레이어_2" data-name="레이어 2"><g id="레이어_1-2" data-name="레이어 1"><rect class="cls-1" width="300" height="119.12"/><rect class="cls-2" x="137.01" y="49.31" width="1.36" height="0.8"/><rect class="cls-2" x="139.17" y="49.31" width="1.6" height="0.72"/><polygon class="cls-2" points="159.01 29.4 152.93 29.4 152.29 30.04 149.89 30.04 149.89 30.68 150.85 30.68 152.21 31.4 155.25 31.4 155.25 30.44 157.65 30.44 157.65 31.4 160.69 31.4 160.69 30.76 159.01 29.4"/><rect class="cls-2" x="231.79" y="21.4" width="0.48" height="25.19"/><path class="cls-2" d="M231.39,45.55h1.28s.56-.4.56,3.76h-2.4C230.75,49.31,230.83,45.55,231.39,45.55Z"/><path class="cls-2" d="M88.94,36.76l52.39-.24s1.76.08,2-.8,1.52-1,1.52-1h3.36s3-3.44,3.76-3.52,12.15,0,12.15,0,1.36.32,1.44-3.36c0,0,.24-1.36,2.64,1.2L181,27.56v1.76l4.64.16s1-1.2,2.08-1V24.2l1-.72V22.2h18.79v1.28l1,.32v4.64l3.12,1s6.88,10.16,9.84,20.55h6.08v-.72l.8-.72,20.15-.16v-3h12.24s1,.24,1,3.28h3.44V50h6.08s1-2.64,5.2-1.84V50s-3-.16-3.44,1v2.8l2.8,1.6-7.28,14.4h-4.64a4.32,4.32,0,0,1-2.56,2.8v5H89.66V70.51s3.28-8.24,7.76-9a93.77,93.77,0,0,1,11.68-.72s2.72-2.64,3.44-3.12v-2a3.14,3.14,0,0,1-1.6-2.4h-.32v-1a3.7,3.7,0,0,1,5-.88h3.76s.32-.56,2.16.4c0,0,1.91-2.24,3.91-2.16V47h.64v-1.2h1.84v-.32h.64v.24h2.08l.8-.8H136v2.88h-4.64l-.56-.56h-.56v1.12h3.36v1.44H142v-1.2l.48-.48h.64l.4.4v1.28h3.68v-1.6h1.52l.4.4h.8v1.28H157v-1h-.64V46.67h-.72v1.2s-4.48.08-7-3.36h-2.72a3.85,3.85,0,0,0-2.4-1.35v-1a7.33,7.33,0,0,1-1.6-.32l-52.95-.64v-4.4Z"/><path class="cls-2" d="M275.46,48.51v1.36a2.23,2.23,0,0,1-1.44.48,1.8,1.8,0,0,0-1.76,1.28,2.16,2.16,0,0,0,.8,2.4c1.68,1.36,1.76,1.44.8,3.36-1.92,3.76-3.44,7.68-5.68,11.28-.64,1-1.36,1.68-2.56,1.44-2.08-.4-3.36.8-4.56,2.16a2.93,2.93,0,0,0-.32,2.16c.64,3.59-1.84,4.23-4.88,4a1.08,1.08,0,0,0,.64,1.2c1.28.64,1.12,1.36.24,2.16-1,1-1.28,1.84-.32,3,.72.8.24,1.6-.64,1.76-1.52.32-2.08,1-1.76,2.56.16.88-.4,1.36-1.12,1.2-1.36-.24-2.16-.08-2.24,1.52,0,.72-.72,1-1.44.8-1.12-.24-1.76,0-1.84,1.2-.08,1-.8,1.12-1.6,1-1.12-.24-1.84,0-2.08,1.28a1,1,0,0,1-1.36.88c-1.2-.24-1.92.16-2.08,1.52a.91.91,0,0,1-1.28.72c-1.51-.72-2.31.16-2.95,1.28h-1.36c-1-.64-2-.16-3,0H123.73c-1.35-.64-2.79-.24-4.23-.16-.64,0-.8-.56-1.2-.8-.72-.48-1.44-.88-2.32-.24-1,.8-1.6.24-1.84-.72-.32-1.44-1-1.76-2.32-1.12-.8.4-1.36.16-1.6-.64-.4-1.44-1.12-2-2.56-1.28-.88.4-1.36-.16-1.44-1-.16-1.28-.72-1.68-1.92-1.12-1,.48-1.68.16-1.68-1-.08-1.44-.88-1.76-2-1.52s-1.6-.08-1.68-1.2-.64-1.6-1.76-1.44c-1.28.16-1.84-.32-1.6-1.6s-.32-1.84-1.52-1.92S92.38,84.1,92.94,83a1.77,1.77,0,0,0-.72-2.32c-1.76-1.36-1.84-1.28-.56-3-2.24-.08-2.8-.56-2.56-3,.16-1.2,0-2.32.08-3.52a8.2,8.2,0,0,1,1.12-3c1.2-1.52,1.76-3.36,3.2-4.72a8.4,8.4,0,0,1,5.2-2.48,54.83,54.83,0,0,1,8.88-1c1.84.08,2.88-1.44,4-2.56.48-.56.24-1.36-.32-2-1-1.12-1.52-2.4-.72-3.68a3.42,3.42,0,0,1,3.92-1.28c2.24.72,4.48.16,6.72.4,1,.16,3.35-1.92,3.67-3,.8-2.56,1.2-2.8,3.84-2.8,1.92,0,3.68-.8,5.68-.56,1.12.16,1.76.48,1.84,1.68S135.73,48,134.45,48a15.9,15.9,0,0,0-2.72-.08c.24.08.8-.16,1.12.08,2.4,1.6,5.2.16,7.76.88.24.08.08.16.16,0,1.36-1.6,2.56-.64,3.84.16.64.4,1.52,0,2.24-.24.08-.24.8.24.4-.4s.08-.64.48-.8a1.71,1.71,0,0,1,1.44.32c1.36,1.44,3,1.12,4.72,1.2,1.28.08,2-.32,1.44-1.76a5.12,5.12,0,0,1-5.28-1,9.08,9.08,0,0,0-4.8-2.16,2.49,2.49,0,0,1-1.68-.72c-1.6-1.68-3.68-1.6-5.76-1.76h-.16c-11.2,0-22.31-.64-33.51-.32-4.48.08-9-.32-13.44-.4-1.84,0-2-.16-2-2,0-2.64,0-2.56,2.72-2.72,11-.4,22.16-.16,33.19-.4l15.84-.24c.56,0,1.2.08,1.6-.32,1.52-1.52,3.52-1.6,5.44-1.84a3.91,3.91,0,0,0,2-1.36,4,4,0,0,1,2.16-1.44c.4-.08.8.08,1-.16-.88-.08-1.76.64-2.8.24-.48-.8-.08-1.12.64-1.36a18.85,18.85,0,0,1,7.28-.72,3.67,3.67,0,0,1,1.76.88,4.53,4.53,0,0,0,3.19.88,1.88,1.88,0,0,0,1.84-1.6c.32-1.84.88-2.16,2.48-1.28a4,4,0,0,0,2.72.4c3-.4,6.08-.48,9-.72.56-.08,1.2-.24,1.6.32,1,1.44,2.4,1.2,3.84,1,1.84-.16,2.24-.72,2.24-2.56.08-3.44,1.84-5.44,5.36-5a12.59,12.59,0,0,0,4.88-.16,5.12,5.12,0,0,1,2.47.16,9.77,9.77,0,0,0,4.56.08c2.88-.64,3.92,1,4.56,3.84a.88.88,0,0,1,0,.64c-.16,1.68.48,2.72,2.16,3l1,.48a80.1,80.1,0,0,1,5.6,10.32c1.28,2.64,2.32,5.43,3.36,8.23.4,1.12,1.12,1.36,2.24,1.6,2.64.48,4.72-1.2,7-1.76.88-.24.56-1.52,1-2.16.4-.32.8-.16,1.2-.24a.72.72,0,0,1,.56.8c-.08,1.52.8,1.68,2,1.6,3.6-.32,7.27.16,10.95.08,1.12,0,1.84-.16,1.84-1.52,0-1.12.8-1.52,1.76-1.52,3.12-.16,6.32-.08,9.44,0,.64,0,1.44,0,1.52,1-.08,1.12-.32,2.4,1.52,2.32a9.26,9.26,0,0,1,3.52,1,5.78,5.78,0,0,0,5.76-.48A3.83,3.83,0,0,1,275.46,48.51ZM123.73,100.82c-.4-.56-1-.48-1.59-.64-1-.4-1.84.56-2.8.4v.32C120.78,100.82,122.3,100.82,123.73,100.82Zm110.94,0c-1-1.36-2-.4-3,0Zm-126-9.36a1.56,1.56,0,0,1-.08.64c-.08.4-.08.8.48,1,.72.24.88-.4,1.12-.8.64-1.28,1.52-1,2.24-.24.48.48-.08,1.12-.16,1.76,0,.48-.16,1,.56,1.2s.8-.16,1-.48c.56-.56.88-1.12.32-1.92a7.7,7.7,0,0,1-1-3c-.16-.8.24-1.84-.4-2.4a1.94,1.94,0,0,0-2.32.16c-.08.08-.32-.08-.48-.08-1.6-.56-2.16-.32-2.88,1.28a.78.78,0,0,1-1,.48c-.64-.24-.88-.08-1,.56-.08.4-.48.8.08,1.2s1-.16,1.44-.4C108.3,89.46,108.46,89.54,108.7,91.46Zm9-37.43c.4-.32.8-1.76-.88-1.6a19.52,19.52,0,0,1-2.08-.08c1.6,1.92-1,2.48-1.12,4A9.4,9.4,0,0,0,117.74,54Zm113.57-8.64V21.08h-.48V43.15a22.6,22.6,0,0,1-.16,2.32C231,45.63,231.23,45.87,231.31,45.39Zm12.95,46.39c.24.24.48.72,1,.4a.78.78,0,0,0,.32-.72,2.9,2.9,0,0,0-3-2.48c-1.2.08-.56,1.28-1,2C243,89.94,243.46,91.14,244.26,91.78ZM101.42,84.34c.56.24,1.36.64,1.52-.08a1.33,1.33,0,0,0-1.12-1.6A7,7,0,0,1,99,81.3C99.58,83.62,99.66,83.7,101.42,84.34ZM98,77c-.48,0-1.12,0-.88.64.4.79-.08,2.31.72,2.31,1.12,0,.32-1.44.72-2.15S98.54,76.91,98,77ZM207.39,97c-.56.08-1.2.32-1.12,1.2.08.56.32.88,1,.88.88,0,.72-.64.88-1.12C208.11,97.38,207.87,96.9,207.39,97Zm-73.9,2a.57.57,0,0,0,.72-.48c.24-1.36-1-1.2-1.84-2.08C132.77,97.62,132.37,98.66,133.49,99ZM104.38,88a1.61,1.61,0,0,0-1.44,1.36c-.08.4.4.64.8.64,1,.16.8-.88,1.12-1.28C104.86,88.34,104.86,87.94,104.38,88ZM241,94.26c.32.32.64.32.88,0,.72-1-.24-1.52-.56-2.32C241.14,92.74,240,93.38,241,94.26ZM108.38,90c-.72-.48-1.2,0-1.44.72-.16.48-.64,1,.24,1.28.72.32,1-.08,1.2-.64C108.78,91,108.94,90.42,108.38,90Zm.16,2.08c.4-1,1.12-1.92-.32-2.64-1.12-.64-1.28.48-1.68,1l.32.32c.4-.16.56-1,1.2-.64s.08.88.16,1.28A2.84,2.84,0,0,1,108.54,92.1Zm3.36.8c.16-.48,0-.88-.48-.88-.8,0-1,.8-1.2,1.36s.4.64.88.88C111.82,94.18,111.66,93.46,111.9,92.9Zm19.67,4.16c-.64,0-.8.72-.8,1.28s.08.8.56.8,1-.24.8-1C132,97.78,132.21,97,131.57,97.06Zm44.63,2c.48,0,.88-.16.8-.72s0-1.36-.56-1.44-.88.56-.88,1.36C175.64,98.5,175.32,99.14,176.2,99.06Zm-28.71,0a.76.76,0,0,0,1.12-.4c.24-.88-.32-1.44-1.36-1.84C147.49,97.62,146.53,98.42,147.49,99.06Zm95.17-7.76c-.24-.08-.64.16-.56.4.16.64.32,1.36,1,1.6.4.16.72-.32,1-.72C243.86,91.94,243.3,91.62,242.66,91.3ZM192.6,99.06c.48.08,1-.08,1-.64s-.08-1.2-.8-1.28-.56.56-.72,1C192.2,98.42,191.88,99.06,192.6,99.06Zm-76.94-3.92c0-.48-.32-1-.8-.88s-.72.64-.8,1.12.48.64.88.72C115.58,96.1,115.74,95.62,115.66,95.14Zm29.43,3.28A.63.63,0,0,0,146,99c.88-.32.64-1.12.64-1.92C146,97.54,145,97.46,145.09,98.42ZM246.74,91.3c.32-.08.88-.4.64-1-.4-.8-1-.72-1.92-.48C245.94,90.34,245.78,91.38,246.74,91.3Zm14.32-42.79c-.88-.64-.72-2.08-1.68-2.72C259.14,47.15,259.06,48.43,261.06,48.51ZM177.4,97.86c.16.48.16,1.12,1,1.12.48,0,.72-.24.72-.64,0-.72-.56-.8-1-1C177.64,97.38,177.16,97.46,177.4,97.86Zm-15.28-.64c-.48,0-.56.48-.4.88s0,1,.64,1,.56-.64.64-1A.86.86,0,0,0,162.12,97.22Zm84.06-9.68c1.6.48,2-1.2,3-1.52C248.18,86.42,247,86.5,246.18,87.54Zm-23,9.92c-.48-.08-.48.32-.48.64s.08.88.56.88.64-.4.72-.8A.93.93,0,0,0,223.15,97.46ZM154.77,30.68c-.08,0-.08.24,0,.24.64.64,1.36-.08,2,.08.08,0,.16-.08.72-.24A3.23,3.23,0,0,0,154.77,30.68ZM99.5,86.58c-.16.08-.16.4,0,.56.56.72,1.2.4,1.92-.08C100.78,86.82,100.22,86.26,99.5,86.58ZM211.07,29.64c.24-1.2,1.76-.48,2.24-1.6-1.12.32-2.16.32-3,1.28C210.59,29.4,210.83,29.56,211.07,29.64Zm29.11,64.62a1.51,1.51,0,0,0-.88,1,.38.38,0,0,0,.48.48c.4-.16.8-.4.88-.8C240.58,94.5,240.42,94.18,240.18,94.26ZM147.81,49.79c.08,0,.16-.24.16-.4.08-.56-.16-.8-.72-.8-.08,0-.24-.24-.32-.32-.8.32-.16.64,0,1C147.41,49.23,147.33,50,147.81,49.79Zm5.52-19.43c-1,.4-2.24,0-3.28.56.08,0,.24.08.32.08h1A2.2,2.2,0,0,0,153.33,30.36Zm55.1,68.22c.08.48.4.64.88.56.24,0,.64-.08.56-.4-.16-.48-.64-.56-1-.72A.4.4,0,0,0,208.43,98.58Zm-18.23.16c0,.24.32.32.48.32.8,0,.88-.48.72-1.52C191,98.18,190.2,97.94,190.2,98.74Zm-29-.4c0-.16-.08-.48-.4-.4s-1,.24-1,.72c-.08.32.24.48.72.4C160.77,99.06,161.25,99,161.17,98.34Zm-32.4.4c0,.08.32.32.48.32q1.08,0,.72-1.2C129.57,98.18,128.85,98,128.77,98.74ZM116.3,95.86c-.08,0-.24.24-.24.4.16.8.88.56,1.36.8C117.18,96.42,116.94,95.94,116.3,95.86Zm47.26,2.4a.5.5,0,0,0,0,.48c.32.64.8.4,1.44,0C164.36,98.5,164,97.94,163.56,98.26Zm58.55.32c.08-.08-.08-.4-.16-.4a1.67,1.67,0,0,0-1.36.8C221.31,99.22,221.87,99.22,222.11,98.58ZM95.9,83c-.48-.88-.72-1.52-1.44-1.92C94.78,81.7,94.62,82.58,95.9,83Zm-2.16-5.75A3.27,3.27,0,0,0,94,79.62,2.54,2.54,0,0,0,93.74,77.23Z"/></g></g></svg>