<svg xmlns="http://www.w3.org/2000/svg" viewBox="0 0 125 49.64"><defs><style>.cls-1{fill:#3d2d18;}.cls-2{fill:#19150e;}</style></defs><title>test3</title><g id="레이어_2" data-name="레이어 2"><g id="레이어_1-2" data-name="레이어 1"><rect class="cls-1" width="125" height="49.64"/><path class="cls-2" d="M99.75,42.79H48.92a12.07,12.07,0,0,1-2.34-.91c-.41-.17-.83-.35-1.23-.56-.1,0-.22-.08-.26-.22a.69.69,0,0,1,.45-.43h.1c.54.14.54.14.88-.32a1.14,1.14,0,0,1,.71-.53c0-.19-.29-.3-.21-.53s.15-.12.18-.22S47,39,46.89,39a.73.73,0,0,1-.34-.56c-.07-.28-.15-.56-.23-.85-.43.16-.59.64-1,.77s-.44-.29-.74-.34c0,.23.27.31.25.52a.21.21,0,0,1-.13.16c-.62.18-.66.74-.81,1.23a1.33,1.33,0,0,0,.21.47c.07.11.09.21-.08.25a1,1,0,0,1-.53-.2,30.35,30.35,0,0,1-4.26-2.33,4.27,4.27,0,0,1-1.59-2,4.52,4.52,0,0,1-.31-2,.47.47,0,0,0-.43-.58A3.49,3.49,0,0,1,35.72,33c-.32-.19-.33-.56-.34-.9,0-.76,0-1.52,0-2.28a5.62,5.62,0,0,0,0-.82,1,1,0,0,1,.74-1.19c.69-.26,1.41-.42,2.12-.61.88-.23,1.77-.38,2.65-.56.61-.12,1.23-.12,1.84-.21a2.08,2.08,0,0,0,1.43-.84c.26-.34.36-.35.69-.07a2.56,2.56,0,0,0,.44.36c.12.06.26.12.35,0a.29.29,0,0,0-.08-.41l-.11-.08a.77.77,0,0,1-.33-1c.12-.42.08-.49-.32-.63a18.09,18.09,0,0,0-1.77-.4c-.36-.1-.71-.22-1.06-.35-.09,0-.24-.06-.22-.18s.18-.13.29-.12a7.43,7.43,0,0,1,1.75.34c.31.09.62.16.93.26s.51.09.61-.28.28-.31.49-.38.29-.12.31-.3a.65.65,0,0,1,.51-.57c.22-.07.36-.18.35-.43s.17-.37.42-.37h.89c.46,0,.6-.17.62-.61s0-.61.61-.6a5.77,5.77,0,0,0,1.1-.1.57.57,0,0,1,.58.19.78.78,0,0,0,.63.26,25.18,25.18,0,0,0,3.25,0c.18,0,.4,0,.42.24,0,.44.38.51.67.55a3.23,3.23,0,0,0,1.35,0c.32-.1.64,0,1-.12-.2-.33-.52-.26-.82-.24-.57,0-.58,0-.77-.48a.48.48,0,0,0-.5-.32.81.81,0,0,1-.81-.32c-.13-.2-.41-.17-.63-.18-.68,0-1.36,0-2,0-1.91,0-3.83,0-5.75,0a.85.85,0,0,1-.86-.37,1.27,1.27,0,0,0-.35-.3.49.49,0,0,1-.16-.19c-.11-.23,0-.36.22-.4a1.91,1.91,0,0,1,.53,0,.34.34,0,0,0,.39-.09c-.24-.06-.46-.07-.68-.11-.42-.08-.49-.17-.47-.6a2.14,2.14,0,0,0,0-.52.53.53,0,0,0-.21.47c0,.1,0,.21,0,.32s0,.28-.16.32-.22-.08-.29-.17-.36-.45-.54-.66-.11-.13-.18-.07,0,.13,0,.18c.3.39.62.76.92,1.14.1.12.28.25.05.41a5.63,5.63,0,0,1-1.42,0c-.21-.11-.12-.21,0-.32s.34-.09.48-.22a.64.64,0,0,0-.77.2c-.09.1-.15.24-.28.32a1.33,1.33,0,0,1-.52.06c-2.23,0-4.46,0-6.68,0a1.28,1.28,0,0,1-1.09-.43.63.63,0,0,0-.54-.21h-.32q-9.54,0-19.07,0a2.15,2.15,0,0,0-1.08.28,9.5,9.5,0,0,0-1.4.85.77.77,0,0,1-1.05-.07,1.24,1.24,0,0,0-1.37-.32,1.59,1.59,0,0,1-1-.06.7.7,0,0,1-.43-.36V17.27s0,0,0-.05a0,0,0,0,0,0,0V16c.17-.52.19-.53.76-.53h1.29a1.14,1.14,0,0,0,.87-.33c.44-.39.62-.39,1.09,0a5,5,0,0,0,.52.38,1.74,1.74,0,0,0,1.07.33c5,0,10,0,15,0,1.07,0,2.14,0,3.21.1.6.05,1.21,0,1.82,0a.66.66,0,0,0,.66-.34.49.49,0,0,1,.43-.22c.14,0,.28,0,.43,0,3.23,0,6.45,0,9.68,0a1.1,1.1,0,0,0,1-.38.7.7,0,0,1,.62-.2c1.64,0,3.29,0,4.93,0,.73,0,1.45-.08,2.18-.08a6.57,6.57,0,0,1,1,0,.56.56,0,0,0,.64-.19c.11-.15.28-.12.43-.09a.47.47,0,0,0,.53-.2c.14-.21.39-.21.62-.21s.44,0,.51-.32a.47.47,0,0,1,.44-.31,4.14,4.14,0,0,1,.61,0c.34,0,.66,0,.82-.38.07-.17.28-.21.45-.26a7.43,7.43,0,0,1,.92-.11c.79-.12,1.57-.3,2.36-.44.23,0,.47,0,.71-.06a1.75,1.75,0,0,0,1.18-.59c.34-.35.44-.34.79,0a3.92,3.92,0,0,0,.37.34.64.64,0,0,0,.57.13c.92-.16,1.85-.27,2.79-.37s1.85-.14,2.77-.21a4.42,4.42,0,0,0,.94-.22.39.39,0,0,0,.29-.36c.08-.51.16-.58.7-.69.78-.15,1-.48,1-1.29a1,1,0,0,0,0-.35.32.32,0,0,1,.27-.45.72.72,0,0,0,.51-.4A2.78,2.78,0,0,1,77.32,7c.25-.23.45-.21.67.06a3.47,3.47,0,0,0,.54.61c.15.1.26.16.42,0a1.75,1.75,0,0,1,1.74-.19A.88.88,0,0,1,81,8c0,.16.11.23.3.19A20.35,20.35,0,0,1,85.71,8a1.06,1.06,0,0,1,1.11.93c0,.14.06.28.2.36a.63.63,0,0,1,.32.63.92.92,0,0,0,.46.9,1.22,1.22,0,0,1,.47.58.39.39,0,0,0,.42.25c2.42,0,4.84,0,7.25,0,.45,0,.51.06.58.5a3.39,3.39,0,0,1,0,.64c0,1.54,0,3.07,0,4.61,0,.46.09.92.08,1.39a4.05,4.05,0,0,1-.12.85.64.64,0,0,1-.67.57c-1.31,0-2.62.05-3.93,0a.28.28,0,0,1-.2-.23.88.88,0,0,0-.12-.26c-.06-.07-.1-.23-.23-.15s0,.17,0,.25.14.25,0,.39a.42.42,0,0,0-.06.5,1.33,1.33,0,0,1,.11.63c0,.14,0,.3.2.32s.38,0,.43-.17c.1-.42.4-.46.75-.5a6.09,6.09,0,0,1,1.35,0,10.29,10.29,0,0,0,1.36,0,1,1,0,0,1,.83.4,1.11,1.11,0,0,0,1.36.25.24.24,0,0,0,.13-.24c0-.28.18-.33.4-.33.84,0,1.69,0,2.53-.07a9,9,0,0,1,2.38.05.22.22,0,0,0,.23-.07c.15-.2.32-.15.46,0a1.36,1.36,0,0,0,1.22.31,4.77,4.77,0,0,1,2.19.1.4.4,0,0,0,.55-.25.69.69,0,0,1,.83-.46,7,7,0,0,0,1.71.11,3.46,3.46,0,0,1,.85.09.8.8,0,0,1,.64.51c.11.32.36.25.59.26a.47.47,0,0,0,.53-.33,3.91,3.91,0,0,0,.22-1.08c0-.37.08-.45.45-.44a6.09,6.09,0,0,1,1.95.12.47.47,0,0,1,.37.49,17.57,17.57,0,0,1-.12,2.81c-.17,1.07-.38,2.14-.58,3.2,0,.15,0,.29.09.39a1.94,1.94,0,0,1,.73,1.38v2.14c-.19,1.28-1.15,1.71-2.21,2-.23.07-.47.08-.7.14a.46.46,0,0,0-.39.63,3.81,3.81,0,0,0,.17.51,5.49,5.49,0,0,1,.2,2.41,4.48,4.48,0,0,1-1.59,3.06,4.1,4.1,0,0,1-1.43.53l-3.81,1.21-2.86.89-2.82.9A6.18,6.18,0,0,1,99.75,42.79Zm5.89-4a1.7,1.7,0,0,1-.66.42.34.34,0,0,1-.51-.26,1.71,1.71,0,0,1,0-.81.63.63,0,0,0-.62-.74c-.14,0-.22,0-.21.21a4.53,4.53,0,0,1-.85,2.66c-.08.11-.26.24,0,.43s.16.3.25.45.11,0,.17,0a1.81,1.81,0,0,1,.47-.13c.19,0,.28-.16.17-.36a1.72,1.72,0,0,1-.17-1c0-.12-.05-.27.12-.32a.45.45,0,0,1,.46.08,2.35,2.35,0,0,1,.5.67c.14.3.3.64.72.32,0,0,.07,0,.11,0,.48-.08.56-.18.42-.65a1.36,1.36,0,0,1,0-1.15C105.82,38.52,105.74,38.67,105.64,38.75ZM55.85,42.21a2.22,2.22,0,0,1,.08-.81.14.14,0,0,0-.09-.17,3.73,3.73,0,0,1-.82-.65c-.15-.16-.25,0-.35,0s-.24.14-.11.29a2.08,2.08,0,0,1,.4,1.16c0,.32.15.41.44.35S55.83,42.55,55.85,42.21Zm6,0a4.32,4.32,0,0,1,.1-1c0-.09-.08-.16-.14-.22a2.17,2.17,0,0,1-.36-.31c-.11-.16-.16-.12-.31,0a.63.63,0,0,0-.26.9,1.16,1.16,0,0,1,.06.42c0,.3.08.49.44.39C61.52,42.37,61.77,42.53,61.83,42.21ZM95.74,42a1.52,1.52,0,0,1,.19-.88c.16-.25-.12-.34-.22-.47s-.22,0-.3.13-.13.14-.2.2A.86.86,0,0,0,94.79,42c.09.27.09.48.47.38C95.66,42.56,95.73,42.29,95.74,42ZM69.8,42a.83.83,0,0,1,0-.35c0-.13,0-.18-.1-.24a4.25,4.25,0,0,1-1-.75.12.12,0,0,0-.21,0c0,.06-.07.11,0,.18A1.67,1.67,0,0,1,68.91,42c0,.34.12.47.45.37C69.76,42.52,69.84,42.31,69.8,42Zm12,.06A1.91,1.91,0,0,1,82,41c.09-.11,0-.18-.1-.25a.18.18,0,0,0-.26,0,2.89,2.89,0,0,1-.65.61c-.37.26,0,.59-.08.88s.26.08.38.1C81.62,42.51,81.75,42.37,81.77,42Zm-34.48-.75c-.09.13,0,.24.16.28s.45.31.75.23a0,0,0,0,1,0,0,2.93,2.93,0,0,0,.38-.69c0-.07-.27-.23-.42-.35s0,0,0-.06L47.48,40A2,2,0,0,1,47.29,41.28Zm6.22.11a1.93,1.93,0,0,0-.48.23s-.13,0-.14.11c0,.46.14.69.59.69h.14c.17,0,.22-.07.23-.23,0-.34.09-.67.14-1A4.44,4.44,0,0,1,53.51,41.39Zm13.62.23c-.44.13-.19.42-.19.63s.24.14.38.17.14,0,.21,0,.26-.07.27-.27.06-.6.11-1A3,3,0,0,1,67.13,41.62Zm19.85.1c-.19.08-.19.22-.14.38s0,.3.15.31a1.23,1.23,0,0,0,.66,0c.15-.09.06-.31.09-.47s.06-.44.11-.75A3.44,3.44,0,0,1,87,41.72Zm-13.82-.08c-.42,0-.26.3-.27.52s.15.27.34.26a2.81,2.81,0,0,1,.29,0c.16,0,.24,0,.26-.21s0-.54.08-.82C73.59,41.4,73.4,41.62,73.16,41.64Zm39.3-6c.1,0,.16,0,.15-.13a1.72,1.72,0,0,0-.09-.84,1.24,1.24,0,0,1-.9.62.55.55,0,0,0-.43.63A3.2,3.2,0,0,1,112.46,35.64Zm-.84,1.75c-.17.1-.46-.1-.49.16s.2.31.32.46l.11.18a3.33,3.33,0,0,0,.6-.86c.1-.16.24-.38.14-.53s-.34-.07-.53-.08C111.89,37.16,111.85,37.26,111.62,37.39Zm-36,5c.09,0,.2,0,.17-.17s.09-.28-.08-.38a3.66,3.66,0,0,1-.78-.52.13.13,0,0,0-.16,0c-.07,0,0,.09,0,.15a6.18,6.18,0,0,1,.12.62c0,.26.1.43.38.34A1.84,1.84,0,0,0,75.62,42.41Zm-15.75-.74c0-.13,0-.11-.09-.1-.43,0-.83.25-.86.47s.14.44.4.38C60,42.42,59.76,42.49,59.87,41.67Zm36.94.23c0,.52,0,.52.57.52h.1c.13,0,.23,0,.19-.17s.13-.33-.1-.38-.52-.27-.84-.35A2.16,2.16,0,0,1,96.81,41.9ZM82.87,42c-.07.4.12.49.47.44a1,1,0,0,1,.17,0c.11,0,.24,0,.22-.15s.08-.36-.13-.39-.49-.26-.8-.31A1.35,1.35,0,0,1,82.87,42Zm6.49.44c.14,0,.32.06.38-.15s-.12-.35-.27-.4-.42-.26-.65-.33C88.77,42.3,88.84,42.42,89.36,42.42Zm-32.15-.64c-.09,0-.26-.16-.27,0s-.17.5.13.59a1.06,1.06,0,0,0,.66,0c.13,0,0-.28.1-.42s0,0,0-.11A2.47,2.47,0,0,1,57.21,41.78ZM71.78,42c0-.35-.29-.11-.43-.18s-.12,0-.17,0c-.38-.17-.32.1-.31.31s.29.23.47.24S71.8,42.37,71.78,42Zm38.66-3.72a1.35,1.35,0,0,1,0-1c-.34.21-.56.38-.41.76a1.82,1.82,0,0,1,.09.84C110.59,38.79,110.59,38.79,110.44,38.32ZM51.51,42.43c.31,0,.34-.12.35-.38s-.21-.17-.34-.18a3.85,3.85,0,0,0-.59,0C51,42.42,51,42.4,51.51,42.43Zm12,0c.1,0,.25.06.25-.15s0-.26-.19-.3a4.56,4.56,0,0,1-.66-.21C62.92,42.53,62.83,42.41,63.54,42.42Zm-13.69-.26a.69.69,0,0,1,0-.32c.1-.25-.14-.24-.24-.28s-.21.07-.22.21a.7.7,0,0,1-.08.27c-.13.28-.08.36.28.38C49.8,42.48,49.88,42.38,49.85,42.16Zm58.52-2.71c.09-.07-.14-.31-.18-.49s0-.12,0-.18,0-.13-.07-.13a.11.11,0,0,0-.14.12c0,.36-.27.6-.35,1A2.48,2.48,0,0,0,108.37,39.45Zm-43,3a1.47,1.47,0,0,1,.21,0c.16,0,.25,0,.24-.21s-.16-.13-.25-.13-.31.05-.46.06-.15,0-.15.13.06.15.16.15Zm20.16,0a.17.17,0,0,0,.22-.19c0-.18-.13-.15-.25-.11a1.52,1.52,0,0,1-.21,0c-.16,0-.42-.07-.41.13s.28.11.41.14A1.91,1.91,0,0,1,85.5,42.42Zm8.09,0c.15,0,.11-.19.1-.3s-.14,0-.2,0a2.2,2.2,0,0,0-.74.29A2.47,2.47,0,0,0,93.59,42.41Zm5.85-.27H99c-.1,0-.21,0-.2.14s.13.15.25.12a2,2,0,0,1,.54-.14C99.67,42.09,99.55,42.11,99.44,42.14Zm-19.78.25c.12,0,.11-.18,0-.29a2.31,2.31,0,0,1-.86.21A1.08,1.08,0,0,0,79.66,42.39Zm22.18-.86s.13-.05.06-.14-.08-.15-.18,0-.3.12-.41.29A.65.65,0,0,0,101.84,41.53Zm-1.88.58a.62.62,0,0,0-.52,0c.07,0,.16,0,.16.13A1.46,1.46,0,0,1,100,42.11Zm-22.81.21a.34.34,0,0,0-.31,0C77,42.4,77.07,42.43,77.15,42.32Zm-31.81-2c0-.26.21-.29.41-.28v-.48a.79.79,0,0,0-.42-.44c-.33.11-.46.41-.64.67s-.17.36-.42.34a1.56,1.56,0,0,0,.49.59l.29,0C45.16,40.6,45.32,40.52,45.34,40.34Z"/><rect class="cls-2" x="41.02" y="15.94" width="9.63" height="2.68"/></g></g></svg>