<svg xmlns="http://www.w3.org/2000/svg" viewBox="0 0 115 45.66"><defs><style>.cls-1{fill:#344256;}.cls-2{fill:#1e2d3f;}</style></defs><title>자산 11</title><g id="레이어_2" data-name="레이어 2"><g id="레이어_1-2" data-name="레이어 1"><rect class="cls-1" width="115" height="45.66"/><path class="cls-2" d="M19.42,12.5C20.49,11.56,26.5,6.55,30,4.1s1.18.48,1.18.48-5.36,4.64-6.73,5.73S21,12.74,21,12.74c3.15.09,3.72.67,3.72.67,4.93,3.05,14.05,9.89,14.05,9.89a4.25,4.25,0,0,1,2.36-.48c1.17.17,4.1,3.57,4.1,3.57L79,23.28s7.55-1.19,8.36.67-4.07,3.36-4.07,3.36c-10.86,2.79-28.24,5.38-28.24,5.38,5.12.05,5.74.43,5.74.43s1.6.51.23.86-8.26.22-8.26.22v1.68a5.2,5.2,0,0,1-.2,1.28c-.19.62-1.65.51-1.65.51l-.44.29v.6c.26,0,.33.43.33.43v.44s.18-.07.18.18-.2.23-.2.23L50.7,40s-.11.35-.37.35-.48-.27-.49-.86a.81.81,0,0,1,.49-.77v-.14h-.07V38h-.14l0-.31a50.88,50.88,0,0,1-6.47-.87l-.35.93c.71,1,.35,3.2.35,3.2l-1.3.86c-.39,3-2.55,2.06-2.55,2.06A4.32,4.32,0,0,1,38,40.18c-.12-2.71,1.43-3.34,1.43-3.34h1.32a1.86,1.86,0,0,1,1-.22v-.44l-1.43,0a15.18,15.18,0,0,1-6.38.14c-4-.62-4.64-2.15-4.64-2.15L21.14,33l-1.67,3.83a3,3,0,0,1,1.05,3.44c-.62,2.47-2.41,2.22-2.41,2.22a2.91,2.91,0,0,1-1.66-.68,3.3,3.3,0,0,1-.65-2.17l-.4-.31c.59-3.29,2.34-2.83,2.34-2.83.07-.33.29-.3.29-.3l1.39-3.5a126.87,126.87,0,0,1-13-2.34C2.5,29.22,3,28.87,3,28.87l19.9-.62c-4.11-3.61-5.35-5.72-5.35-5.72,0,1.86-2.37,9-3.47,9.83s-1.24,0-1.24,0-.23.57.34-5.58S16,17.39,16,17.39a5.4,5.4,0,0,1-2-3.28,11.74,11.74,0,0,1-4.54-3.17c-1-.92-.79-1.57-.79-1.57a1,1,0,0,1,.2-.46c.16-.14.67-.07.67-.07,4.14,1.34,5.5,3.24,5.5,3.24A6.94,6.94,0,0,1,19.42,12.5ZM39.37,23.78c1.71-.74,1.57-.93,1.57-.93a3.54,3.54,0,0,0-2.15.49Zm3,2.11c.26.21.17-.06.17-.06a4.82,4.82,0,0,0-.82-2.53s-.5-.45-.65-.25a10.32,10.32,0,0,1-1.48.86C40.45,24.39,42.13,25.69,42.39,25.89Zm-.45-2.59a4.74,4.74,0,0,1,1,2.67.58.58,0,0,0,.19.34c.16.14.29.28.29.28h1S44.47,25.07,41.94,23.3Zm2.16,2a11.24,11.24,0,0,1,.49,1.16H45A5.56,5.56,0,0,0,44.1,25.29Z"/></g></g></svg>