<svg xmlns="http://www.w3.org/2000/svg" viewBox="0 0 300 119.12"><defs><style>.cls-1{fill:#3d2d18;}.cls-2{fill:#19150e;}</style></defs><title>자산 12lk</title><g id="레이어_2" data-name="레이어 2"><g id="레이어_1-2" data-name="레이어 1"><rect class="cls-1" width="300" height="119.12"/><path class="cls-2" d="M282.37,83.05v1.21a5.6,5.6,0,0,0-1.47,4.48,1.7,1.7,0,0,1-1.38,2.07c-.69.17-1.38.43-1.38,1.21a1.89,1.89,0,0,1-2.24,2c-.17,0-.35,0-.35.09-1.81,2.07-4.91,1.64-6.9,3.36-.08.09-.26.26-.34.26-2.59-.86-4.57,1.12-7,1.47s-4.57,1.29-6.9,2.07c-1.12.34-2,1.29-3.36.69a1.16,1.16,0,0,0-.78,0c-3.28,1.12-6.73.69-10.09.69H138a54.05,54.05,0,0,0-7.42.08c-2.5.26-4.66-1-7.07-1.2-.52,0-.86-.61-1.21-1a2.91,2.91,0,0,0-2.93-1.38,1.52,1.52,0,0,1-1.73-.86c-.17-.26-.26-.52-.43-.6-2.41-.87-4.48-2.25-6.81-3.2-.78-.34-1.64-.34-2.25-1.12a3.32,3.32,0,0,0-3.45-1.46,1.36,1.36,0,0,1-1.63-.87,3,3,0,0,0-2.94-1.72,1.6,1.6,0,0,1-1.72-1.38A3.79,3.79,0,0,0,96.06,85c-.17-.08-.43-.17-.43-.34-.52-2.42-2-4.66-1.81-7.25a9.48,9.48,0,0,0,0-3.79,1.67,1.67,0,0,1,.86-2.33c.95-.35.69-1.12.86-1.81.61-1.3-.17-3.19,1.73-3.8,0-.34,0-.43-.18-.52-2.24-1.72-2.15-2.41.44-3.62a6.13,6.13,0,0,1,.94-.34c5.18-3.54,10.79-3,16.56-2.42,2.25.26,4.49-.17,6.82.26,2.5.26,5,.69,7.42-.43,0-.52,1.72-.52.51-1.47s-1.72.69-2.67.69a2.07,2.07,0,0,1-2.41-1.12,7.3,7.3,0,0,1-.18-3.36c.35-2,1.56-2.59,3.28-1.73a18.24,18.24,0,0,0,3,1c3.45.52,5.69-1.12,7.59-3.71.52-.43,1-.95,1.47-1.38.25-.17-.09,0,.17-.17,4.4-2.76,4.48-3.63,1.21-7.94-1-.69-1.9.09-2.85.09-7.16.26-14.4.69-21.48-.09-8.71-1-17.51-.34-26.22-.69-1.9-.08-3.79.35-5.61.35-1.55,0-2.32-.43-2.24-2.25.17-3.36.69-4,4.06-3.1,2.41.69,4.91.34,7.33.34,4.91-.26,9.92-.08,14.83-.26,8.89-.34,17.77-.34,26.66-.34h3.88a2.89,2.89,0,0,0,2.67-1.38c1.9-2.67,4.74-3.8,7.94-4.23,4.22-.6,8.45-1.12,12.76-1.72a2.25,2.25,0,0,0,2.16-2.16c.26-1.64.69-3,2.59-3.53,1.63-.44.17-1.3-.18-1.9a1.14,1.14,0,0,1,.43-1.55c.44-.35,1.13-.26,1.56-.69h1.2c.87.34,1.38.86,1.13,1.72-.52,2,.77,3.8.69,5.69,0,.35.34.87.77.69.69-.26,1.64.09,2-.51.94-1.3,2.24-2,3.36-1,2.42,2,5.18,1.21,7.85,1.12a5.79,5.79,0,0,1,2.41.17c2.33.87,4.75.35,7.16.44a5.54,5.54,0,0,1,4.4,1.55c.78.86,1.9.86,2.93,1.29a2.62,2.62,0,0,1,1.82,2.16c0,1-.95,1.38-1.73,1.64-1,.34-1,.95-.69,1.72a3.24,3.24,0,0,0,1.73,1.81,34.05,34.05,0,0,0,3.62,1.73c3.79,1,4.48,4.4,5.86,7.33.35.78.18,1.64-.86,1.73-1.64.08-3.28.51-5-.18,1.55,1,3.1-.08,4.66.35.6.52,1,1.64,2,1.46,1.21.26,1.12-1.38,2.16-1.46,2.41-.09,4.83.6,7.24.69,4.4.69,8.71,1.21,13,1.9,1.29.25,2.41.43,3,1.89.35,1,1.64,1,2.59,1.21,3.8.78,7.85.52,11.65,1.12,4.74.78,9.31,2.42,13.88,3.8.87.26,1.21,1,1.73,1.64A4,4,0,0,0,273,59.16c.87-.52,1.73-1,2.77-.43.51.34.86-.09,1.29-.35,1.55-.6,2.33-.26,2.24,1.29-.17,3.11,1,5.87,1.73,8.72a3.26,3.26,0,0,1-.43,2.41.88.88,0,0,1-.35.43,6.39,6.39,0,0,1-.6.86,4.83,4.83,0,0,1-.78.69c-.17.18-.34.35-.43.35-1.21.52-.43.78.17,1,.35.35.86.69,1.21,1,.26.17.34.34.6.43.52.35,1.21.43,1.47,1.12A8.07,8.07,0,0,0,282.37,83.05Zm-164.32,4.4c-1,.08-2.41.26-2.41,1.9,0,1-.52,1.12-1.12.34-.35-.34-.61-1-1.12-.34-1.3,1.55-1,3,.77,4.05,1.38.95,1.3-.52,1.9-1s.6-1.38,1.55-1,.18,1.12.09,1.72-1.12,1.55.09,2c1,.35,2.24,1.9,3.19-.17.26-.52.6-1.64,1.64-1s-.09,1.29-.09,1.89a.47.47,0,0,1-.17.35c-.26.6-.35,1.21.43,1.47s1.46,1.38,2.24.77a1.73,1.73,0,0,0,.86-2.15c-1.38-3.2-.6-6.13,2.16-9C124.26,87.45,121.25,87.28,118.05,87.45Zm140.34,1.9a8,8,0,0,1-6.13.17c-.77-.17-1.63-.43-1,1a7.11,7.11,0,0,1,.17,5.17c-1.21,3.54-1,3.71,2.42,3.11a3.39,3.39,0,0,0,.17-2.42c-.17-.52-.17-1,.52-1.21s.86.35,1,.78c.34,2.07,1.46,2.16,3.1,1.29a1.37,1.37,0,0,1,.6-.08.91.91,0,0,0,.09-1.21c0-.78-.69-2,.35-2.33,1.2-.34,1,1,1.29,1.73a1.2,1.2,0,0,0,1.81.86c.69-.34,1.9-.09,1.73-1.64-.26-1.21-.35-2.24-1.56-3a7.15,7.15,0,0,1-2.93-2.84C259.16,88.57,258.91,89.09,258.39,89.35Zm-68.4,9a2.32,2.32,0,0,0,.17-2.76,4.91,4.91,0,0,1-.34-2.76c-.18-1.73,1-2.94,1.46-4.49h-5.86a8.49,8.49,0,0,1,.77,9c-.94,2,.18,3.28,2.33,3.19.35,0,.69.09,1,.09C190.33,100.13,189.39,99,190,98.32Zm48.73,2.07a2.21,2.21,0,0,0,0-2.42c-.43-.6-.77-1.21-1.12-1.81-.78-1.29-1.55-.86-2.33,0-.86,1,.17,2,.09,2.93,0,1.21.34,2,2.24,1.55C237.6,100.56,238.38,101.16,238.72,100.39Zm-31.91-3.2c-.17-.94-.61-1.72-1.73-1.72-.69,0-2.58,2.85-2.58,3.79,0,1.38.77,1.73,1.81,1.56S207,98.57,206.81,97.19ZM173.43,98a1.81,1.81,0,0,0-1.64-2.41c-1.73.08-2,1.72-2.24,3.1-.18,1.21.08,2.5,1.89,2.07C174.2,101.25,173.17,98.92,173.43,98Zm47.18-3.62a11.29,11.29,0,0,1-1.55,3.45,2.34,2.34,0,0,0,0,2.59c.6,1,1.81.26,2.76.17s.6-1.21.6-1.81c0-1.64-1.38-2.85-1.55-4.4C220.78,94.18,220.7,94.18,220.61,94.35Zm-78.23,3.1c.08-.08,0-.17-.18-.34-.25-.86-.43-1.64-1.55-1.73-1.29-.17-1.21,1-1.72,1.56A17.46,17.46,0,0,1,137.29,99c-.78.95-.61,1.55.69,1.72,1.55.17,2.76,0,2.59-2-.09-1,.6-1.38,1.55-1Zm13.54-3.1a7.72,7.72,0,0,1-2.42,4.31c-.6.43-.34,1-.17,1.73s.78.34,1.12.43c1.56.08,2.25-.35,2.5-2.07a6.05,6.05,0,0,0-.51-3.54C156.26,95,156.7,94.18,155.92,94.35Zm.69-2.85c.43-1,.95-2,1.47-3.1h-3.54c.52,1.2,1,2.41,1.47,3.53C156.26,92.11,156.44,91.85,156.61,91.5Zm106.78-2.84c-.09.6.6,1,1.21.94a1.15,1.15,0,0,1,1,.44c.26.43.78.77,1.12.43a1.54,1.54,0,0,0,.18-1.73,6.76,6.76,0,0,0-1.81-1.29C264.43,88,263.48,88,263.39,88.66ZM274.26,88c-.95-.69-2.93,0-3.11,1a1.68,1.68,0,0,0,.18,1.29c.17.35.77.09.86-.08.6-1,2.07-.78,2.67-1.9C274.69,88.31,274.52,88.14,274.26,88ZM145.83,100.21c-1.64-.69-2.59-1.89-3.8-3.1v.34C142.38,101.16,142.46,101.33,145.83,100.21ZM262.27,81.5c-1.29.17-1,1.46-1.47,2.33-.17.34.18.94.61.77.86-.34,1.81-.6,1.72-1.72C263.05,82.19,263.05,81.5,262.27,81.5ZM221,91.93c.35-1,.87-2.07,1.3-3.1H219.4c.35,1.12.78,2.07,1.12,3.1C220.7,92.11,220.78,92.11,221,91.93Zm56.07-10a.53.53,0,0,0-.17-.86c-.26-.09-.61.08-1,.17A1.49,1.49,0,0,0,275,83c.08,1.12,1,1.12,1.89,1.47C277.19,83.48,276.24,82.7,277,81.93ZM265.81,94c1.29,2.59,2.41,0,3.62-.08-1.12-.52-2.42-.18-3.54-.78A1,1,0,0,0,265.81,94Zm-71,6.39a8.18,8.18,0,0,1-3.36-2.33C191.63,101,191.63,101,194.82,100.39Zm53.48-8.63a.88.88,0,0,0-.78,1.12c.09.61.17,1.38.86,1.38s.52-1,.61-1.55C248.81,92.45,249.16,91.67,248.3,91.76ZM208,98.83c0,2.16,0,2.16,3.62,1.64C209.91,100.13,209.05,99.26,208,98.83Zm-15-4.4c.77.09.86-.69.86-1.29s-.17-1.12-.78-1.21-.51.78-.69,1.12C192.58,93.57,192.4,94.35,193,94.43Zm-33.47-.08c.26.34.61,0,.78-.26a1.52,1.52,0,0,0-.78-2.33A2.36,2.36,0,0,0,159.54,94.35Zm-31.31.08c.26.35.61,0,.78-.25.43-1,.43-1.73-.69-2.33A2.19,2.19,0,0,0,128.23,94.43Zm-1.12,4.49c-.09,0-.34.69-.17.86.6.86,1.38,1,3,.61C128.49,99.87,128.06,98.92,127.11,98.92Zm56.58-7c-.69,0-.77.61-.69,1.21s-.08,1.21.69,1.21.52-.78.61-1.21S184.56,91.93,183.69,91.93Zm47.18,8.63c1.73.26,3.11.52,2.5-1.73C232.51,99.44,231.82,100,230.87,100.56Zm-6.47-6.21c.69-.09.61-.78.61-1.3s-.09-1.2-.69-1.12-.52.78-.61,1.3C223.8,93.74,223.63,94.43,224.4,94.35Zm-7.15-2.5c-.69,0-.87.51-.78,1.12s0,1.38.86,1.29c.69-.08.35-.86.43-1.29C217.68,92.45,217.94,91.85,217.25,91.85Zm-64.78,0c-.6,0-.69.6-.69,1.2s.09,1.21.69,1.21c.78,0,.43-.77.6-1.29C153,92.54,153.33,91.76,152.47,91.85Zm-3-2.42c0,.86.6,1,1.29,1.21.35.09.95-.26.87-.6-.18-.87-1-1-1.64-1.21C149.54,88.74,149.45,89.09,149.45,89.43Zm64.69,0c.09.86.69,1,1.29,1.12.35.09.95-.26.87-.6-.18-.78-1-1-1.64-1.21A.6.6,0,0,0,214.14,89.43Zm-53,11a25.94,25.94,0,0,1-2.5-1.72C158.94,101,159,101.08,161.18,100.47ZM162.3,89c-.6.17-1.38.35-1.55,1-.17.51.52.69,1,.6a1.06,1.06,0,0,0,1-1.21C162.73,89.17,162.73,88.83,162.3,89Zm33.81.78c0-.35.09-.87-.51-.69s-1.3.34-1.56,1c-.08.43.43.43.87.69C195.42,90.55,196,90.47,196.11,89.78Zm30,5.86a.64.64,0,0,0-.69.69c.17.61.78.78,1.38,1,.43.17.52-.17.52-.52A1.93,1.93,0,0,0,226.13,95.64Zm-45.46-6.12c-.08.77.52,1,1,1.21.34.17.95-.18.95-.44,0-.77-.86-.86-1.3-1.12C181,89.09,180.76,89.09,180.67,89.52Zm65.64-.35c-.34,0-.95-.08-.95.43,0,.69.69.87,1.13,1a1,1,0,0,0,1-.6A1.3,1.3,0,0,0,246.31,89.17ZM278.83,72.7a4.74,4.74,0,0,0-2.24,2.41c.69-.86,1.21-.51,1.72,0,.26-.34-.26-.94.26-1.29S279,73.13,278.83,72.7ZM225.35,90c-.26.43.35.69.69.69a1.14,1.14,0,0,0,1.38-1c0-.34,0-.69-.51-.6A1.92,1.92,0,0,0,225.35,90Zm-58.65,6.3c.09-.18-.26-.61-.34-.61-1,0-1.3.61-1.82,1.73C165.67,97.28,166.44,97.19,166.7,96.25Zm10.18,0c-.09.86.77.86,1.29,1.12.26.17.52.08.52-.26.09-.78-.6-1-1.12-1.38A.67.67,0,0,0,176.88,96.25ZM131,89.09a1.69,1.69,0,0,0-1.55,1c-.17.35.34.61.86.61a1.06,1.06,0,0,0,1.12-.78C131.42,89.35,131.42,89.09,131,89.09Zm24.93,5.26c.26.26.43.52.69.77V91.5a2.81,2.81,0,0,1-.69.35Zm5.61,1.29c-.35-.08-.69.35-.69.61.17.86,1,.94,1.89,1.2C162.65,96.42,162.3,95.9,161.53,95.64ZM196,96.85a1.28,1.28,0,0,0-1.12-1.12c-.35-.09-.87.34-.69.69.25.6.86.77,1.55,1C195.94,97.45,196,97.11,196,96.85Zm-60.64-.43c.09-.35-.17-.86-.43-.69a1.85,1.85,0,0,0-1.47,1.72C134.36,97.45,135.13,97.28,135.39,96.42Zm62.88.34c-.17.43.09.69.43.61.52-.18,1.21-.35,1.29-1,.09-.34-.08-.6-.51-.77C199.05,95.9,198.53,96.07,198.27,96.76Zm-15.61-.34c.08-.17-.43-.78-.43-.78a2,2,0,0,0-1.38,1.81A1.67,1.67,0,0,0,182.66,96.42Zm48.56-.26c0-.17-.35-.6-.43-.52a2,2,0,0,0-1.47,1.81C230.36,97.19,231.13,97.19,231.22,96.16ZM198.1,89.09c-.18.17-.09.69.08,1,.69.77,1-.09,1.9-.35C199.22,89.17,198.79,88.57,198.1,89.09Zm14.06.86c.26-.26.34-.69.17-.86-.69-.52-1.12.26-1.9.6C211,90.12,211.55,90.81,212.16,90ZM242,95.56c-.26-.09-.6.34-.52.69a1.52,1.52,0,0,0,1.9.86A1.85,1.85,0,0,0,242,95.56Zm-111.78.25a.56.56,0,0,0-.69.52c0,.86.86.86,1.38,1,.34.17.34-.18.43-.61A1.65,1.65,0,0,0,130.22,95.81Zm15.87-.17c-.18,0-.52.35-.44.52a1.78,1.78,0,0,0,1.9,1C147.38,96.16,147,95.73,146.09,95.64Zm64.86,0a.54.54,0,0,0-.6.61c.17.69.77.86,1.29,1,.34.09.52-.09.43-.6A1.4,1.4,0,0,0,211,95.64Zm36.31.52c.09-.17-.34-.6-.34-.6-.87.08-1.3.6-1.56,1.72C246.4,97.19,247,96.85,247.26,96.16Zm-31.14,0c.09-.17-.34-.6-.34-.52-.86.09-1.12.69-1.55,1.55C215.26,97.28,215.87,96.94,216.12,96.16Zm-82.71-6.9c-.18.09-.18.6,0,.78.6.77,1.12.17,2-.35C134.61,89.43,134.1,88.66,133.41,89.26Zm18,6.81c.09-.17-.34-.51-.34-.51-.86.08-1.12.69-1.55,1.63C150.66,97.19,151.26,96.94,151.43,96.07Zm13.89,4.66c2,.09,2,.09,2.42-1C167.13,100.39,166.1,100,165.32,100.73ZM243.21,90c.26-.18.34-.52,0-.69a1.21,1.21,0,0,0-1.73.34C242.09,90,242.52,90.73,243.21,90Zm-64.52,0a.88.88,0,0,0,.09-.78c-.69-.6-1.13,0-2.07.52C177.65,90.12,178.09,90.9,178.69,90Zm-31.48-1c-.43.08-1,.26-1,.69s.43.51,1,.51.6-.43.69-.86C147.72,89.09,147.38,89.09,147.21,89.09Zm28.2,10.69a.45.45,0,0,0-.17.69c.52.61,1,.43,1.72.09A1.35,1.35,0,0,0,175.41,99.78Zm3.63-4.4c-.09.09,0,.26,0,.43a1.47,1.47,0,0,0,1.55-.17C180,95.12,179.55,95,179,95.38Zm37.86,5c.09-.09,0-.35-.09-.35-.86-.34-1.38.35-2.07.61C215.52,100.64,216.3,101.25,216.9,100.39ZM165.23,89.17c-.34-.17-.43,0-.51.35s.08.77.6.77a.91.91,0,0,0,.78-.43C165.92,89.43,165.49,89.35,165.23,89.17ZM190,98.32c-.43.69-.26,1.63-.52,2.41C191.28,100.21,189.47,99,190,98.32Zm-79.87-8c0,.18.17.44.26.44.6-.09.86-.52,1-1C110.46,89.43,110.12,89.6,110.12,90.29Zm114.72,9.84c-.09,0-.26.43-.18.43a2,2,0,0,0,1.73.17C225.87,100.21,225.44,99.87,224.84,100.13Zm29.06-3.8c-.26.78.35,1.64-.17,2.42C255.89,98.06,253.73,97.11,253.9,96.33ZM132.11,95.21c-.26.09-.51.17-.51.43s.34.35.6.35.52-.09.52-.43S132.46,95.12,132.11,95.21ZM108.57,90a.55.55,0,0,0-.61-.61c-.34,0-.69.09-.6.52s.43.43.77.52S108.57,90.47,108.57,90Zm119.8,5.43c0-.17-.26-.35-.34-.35-.26,0-.61.09-.61.26-.08.35.26.35.52.43S228.37,95.9,228.37,95.47Zm1.38-5.26c.43,0,.43-.35.43-.69s-.34-.43-.51-.43c-.35,0-.35.34-.35.51S229.41,90.21,229.75,90.21Zm-9.14,4.14H221c0-.78.09-1.64.09-2.42a.69.69,0,0,1-.43-.08Zm-124-13.89a2,2,0,0,0,.6,1.3C97.18,80.29,97.09,80.12,96.58,80.46Zm102.55,20.1c-.08.09,0,.17.17.17.44,0,.95.35,1.21-.26.09-.08,0-.34-.08-.34-.52-.35-.87.17-1.21.34C199.22,100.39,199.22,100.47,199.13,100.56ZM95.89,74.6c-.09.34-.35.86.34.6.35-.17.26-.69,0-1.21C96,74.34,95.89,74.51,95.89,74.6Zm101.69,26c.6.34,1.12.09,1.72.17v-.34C198.7,100.47,198.1,100.21,197.58,100.56Zm62.45-4a6,6,0,0,0-.95-.6c0,.34-.09.77-.09,1.2C259.42,96.94,259.68,96.76,260,96.59Zm5.09-3.79c-.18.43.34.77.69,1.12,0-.26.08-.52.08-.78C265.72,92.88,265.2,92.62,265.12,92.8ZM182.23,94l-.26-.17c-.35.17-.43.43-.26,1.38C182,94.61,182.14,94.26,182.23,94ZM95.63,69.77c-.61.43-.35,1-.35,1.64C96.15,71.06,95.63,70.37,95.63,69.77ZM245,95.3c-.43-.09-.86-.26-1.21.17C244.24,95.56,244.67,95.73,245,95.3Z"/></g></g></svg>