<svg xmlns="http://www.w3.org/2000/svg" viewBox="0 0 1110.82 566.93"><defs><style>.cls-1,.cls-2{fill:#fff;}.cls-2{font-size:59.54px;font-family:LucidaGrande, Lucida Grande;}</style></defs><title>gaijin</title><g id="레이어_2" data-name="레이어 2"><g id="레이어_1-2" data-name="레이어 1"><path class="cls-1" d="M72.68,523.06l.91-1.19,7.57.17c-.06.34-.1.68-.14,1Z"/><path class="cls-1" d="M1050.31,334c-11.44,13.58-22.29,26.13-32.72,39-3.28,4.07-6.39,6.21-11.91,5.41a109.63,109.63,0,0,0-18.4-.67c-4.64.12-5.32-1.84-4.59-5.81,3.54-19.28,7-38.59,10.38-57.9q1.54-8.77,2.86-17.6c.61-4.21.69-8.32-3.18-11.39-1.56-1.23-1.63-3.1-1.25-4.93a12.88,12.88,0,0,1,.74-2.25c2.14-5.41,2.17-12.53,7.83-15.37a40.7,40.7,0,0,1,27.77-3.59c5.74,1.33,8.73,5.78,10,11.43,2,8.84,1.48,17.82.74,26.67-.51,6.13,1.33,5.95,6,4.3,14.11-5,28.61-7.93,43.7-7.28a47.18,47.18,0,0,1,11.16,1.45c5.73,1.64,9,5.33,10,11.26,1.89,11.51-.06,22.94-.72,34.38-.71,12.27-2,24.51-1.82,36.82,0,2.59.08,4.82,2.42,6.89,2.55,2.26,1.76,5-1.35,6.58-9.52,5-19.36,9.11-30,10.83-6.88,1.1-12.71-2.66-16.15-10.46-4-9.15-5.34-19-7.08-28.76C1053.05,353.9,1051.89,344.67,1050.31,334Z"/><path class="cls-1" d="M768.36,268.7c-1.12,25.08-3.73,53.49-9.18,81.59-1.5,7.71.39,9.28,8.39,9.55,4,.13,5.59,4.61,7.76,7.48,1.71,2.25-1.28,3.35-2.53,4.56-7.26,7.06-14.61,14-22,20.93a21,21,0,0,0-5.18,7.81c-6,15.08-10.8,30.62-17.83,45.28-2.84,5.9-5.92,11.69-10.43,16.54-2.16,2.33-4.48,4.61-7.9,4.9-4.17.34-7.7-.55-7.88-5.67-.52-14.85-1.39-29.71-1.21-44.55.11-9.31,6.31-16.48,11.36-23.8a19.79,19.79,0,0,0,3.39-9.25c2.3-18.73,3-37.55,4-56.36.26-4.74-1.2-6.63-5.89-5.81-5.59,1-7.19-1.28-6.58-6.84a259.18,259.18,0,0,1,11.08-51.63,8.58,8.58,0,0,1,4.94-5.53c5.58-2.52,11.09-5.23,16.63-7.86,3-1.42,6.31-2.35,6.55-6.67.12-2.07,2.25-2.46,4-3,4.51-1.49,9.06-2.87,13.42-4.72,3.82-1.61,5.12-.35,5.12,3.39C768.35,247.75,768.36,256.48,768.36,268.7Z"/><path class="cls-1" d="M836.23,342.27c-1.55-7.92.72-14,4.89-20.08,14-20.31,30.38-37.63,54-46.68,3.31-1.27,7.28-5,10.32-1.79,4.12,4.37,9.23,8.69,7.37,16.42a466.3,466.3,0,0,0-8.72,49.1q-3,23-5.53,46c-.81,7.16-8.17,11.74-14.73,8.87-2.18-.95-4.24-2.33-6.5-2.88-12.32-3-18.07-11.85-21.2-23.17-.21-.76-.48-1.5-.73-2.26-3.68-11.25-3.67-11.35-15.4-12.07-2.79-.18-4-.94-3.77-3.81S836.23,344.4,836.23,342.27Z"/><path class="cls-1" d="M559.75,341.2c-1.7-8.16,2.13-14.35,6.55-20.77,13.9-20.2,30.66-36.82,54.14-45.49,2.95-1.09,6.48-4.37,9.17-1,3.27,4.1,8.51,7.41,7.18,14.16-4.77,24.3-9,48.7-11.86,73.31-1,8.26-1.82,16.54-2.79,24.81-.72,6.11-8.2,10.48-13.77,8.1-2.18-.93-4.28-2.2-6.56-2.76-12.48-3.05-18.47-12-21.76-23.5-.54-1.89-1.71-3.71-1.84-5.61-.53-7.3-4.45-9.88-11.33-8.74-5.8.95-7.86-1.54-7-7.18A26.66,26.66,0,0,0,559.75,341.2Z"/><path class="cls-1" d="M632.86,207.4c2-.33,2.92.15,3.42,1.48.27.74.63,1.45,1,2.16,7.06,14.54,7.09,14.58-4.93,25.3-8.73,7.79-17.66,15.36-26.3,23.25-2.54,2.33-4.32,2.33-7.06.41-5.83-4.09-11.82-8-18-11.61-2.78-1.63-2.43-2.75-.63-4.78,6.72-7.56,13.29-15.24,20-22.83,5.14-5.82,12.51-7.36,19.4-9.69C624.25,209.57,628.9,208.5,632.86,207.4Z"/><path class="cls-1" d="M854.1,246.42c8-9.15,15.44-18.16,23.46-26.62,5.37-5.66,13.16-7,20.32-9.23,13.35-4.11,13.15-3.93,19.26,8.3,2.49,5,2.24,8-2.33,11.76-11.31,9.34-22.1,19.3-33,29.13-2.29,2.07-4,2.19-6.57.4C868.43,255.46,861.37,251.11,854.1,246.42Z"/><path class="cls-1" d="M760.32,151.44a2.05,2.05,0,0,1,2.64,1.35c.23.55.56,1.05.8,1.59,2.29,5,6.89,10.41,6.19,15-.64,4.17-6.9,7.59-10.88,11.13-8.72,7.78-17.61,15.35-26.3,23.16-2.28,2-3.94,2.3-6.58.47-5.68-3.94-11.61-7.55-17.55-11.1-2.66-1.6-3.78-2.63-1.07-5.55,6.87-7.39,13.32-15.18,20-22.75a16.45,16.45,0,0,1,4-3.46C740.68,156.13,750.81,154.07,760.32,151.44Z"/><path class="cls-1" d="M710.76,479.5c2.42-.36,3,.86,3,3.08.11,2.82-1.58,2.55-3.43,2.65-2.07.1-2.72-.69-2.74-2.73C707.62,480.18,708.44,479.16,710.76,479.5Z"/><path class="cls-1" d="M350.3,0c15.47,9,19.06,23.53,9.31,39.08a13.81,13.81,0,0,0-1.78,10.7c5.3,27.82,11,55.58,14.42,83.74a393.19,393.19,0,0,1,2.37,58.21c-.28,10.46-4.83,19.93-8.56,29.51-9.05,23.26-17.72,46.6-22,71.37-7.78,45-.67,87.5,20.26,127.85,4.22,8.12,6.62,16.57,5.52,25.7-.89,7.39-3.54,9.41-10.93,9.61-33.33.89-66.66.71-100,.22a105.44,105.44,0,0,0-56.53,15.22c-18,10.68-35.11,23-54.12,32.11A196.17,196.17,0,0,1,81.16,522c-2.18.81-4.44.26-6.67.37-2.51-1.5-1.2-3.52-.48-5.19,4.55-10.62,7.31-21.77,10-32.94a60.46,60.46,0,0,1,5.78-15.56c2-3.51,1.46-5.73-2.36-7.49a140.74,140.74,0,0,1-36.73-24.92A154.46,154.46,0,0,1,14.1,384.93,171,171,0,0,1,0,326.47v-2.39c1.24-2.51.32-5.2.61-7.8C.27,310.15,1.33,304,0,297.87v-7.15A156.74,156.74,0,0,1,12.25,239c15.51-37.18,40.83-65.84,75.48-86.23a172.35,172.35,0,0,1,89.12-24.3,194.45,194.45,0,0,1,61.43,10.22,43.74,43.74,0,0,0,8,2.29c7.12,1,10.12-2.27,9.92-9.35-.82-30.54-7.68-60.17-13.11-90-1.47-8.1-2.44-16.13.27-24.11,5.55-16.39,13.8-19,28.21-16.06C281.91,3.51,288.2,17,285.17,29c-1.6,6.34-3.95,12.44-4.84,19-1.41,10.58.67,20.53,4.2,30.32,2.36,6.54,5.17,12.9,8,19.25a271,271,0,0,1,17,49.49c1,4.32,2.5,8.35,5.8,11.52,2.47,2.36,4.46,2.19,6.11-.89a51.38,51.38,0,0,0,3.06-6.45c8.42-22.59,10-46,8.11-69.78-1.34-17.08-4.9-33.76-9.23-50.3a28.73,28.73,0,0,1-.63-11.23c1.51-11.23,7-17.23,18-19.9ZM0,316.93c.27.47.6.52,1,.16-.22-6.41,1.49-12.92-1-19.22Zm0,7.15c2.42-2,.8-4.64,1-7a3.66,3.66,0,0,1-1-.16Zm195.49,29.38c3.23-3.6,3.19-6.85.9-11.08-3.85-7.12-6.8-14.73-10.53-21.93-1.64-3.18-.87-4.38,2.12-5.64,9.85-4.13,19.57-8.56,29.41-12.7A81.91,81.91,0,0,1,239,295.84c9.08-1.12,14.86,2.86,17.22,11.57,1.7,6.3,3.72,12.52,5.41,18.82,1.9,7.07,4.13,14.11,3.83,21.57-.29,7.19-3.21,10.62-10.31,11.33-9.34.93-18.29,3.38-27.16,6.23-22.27,7.13-43.66,16.55-65.51,24.77-11.9,4.48-11.5,4.46-13.71-7.67-2.9-15.9-3.22-32.37-10.67-47.33-3.43-6.89-6.25-14.21-5.81-22.19.15-2.89-1.92-3.44-3.71-3.75-10.9-1.9-13.3-10-14.16-19.16-.44-4.75-.52-9.67-2.85-13.87-1.66-3-.86-4.54,1.38-6.47a129.44,129.44,0,0,1,25-17.12c19.25-10,40.33-15.11,60.38-23a7.51,7.51,0,0,1,4.06-.32c5.68.86,11.38,1.64,17.07,2.46,23.35,3.36,46.71,6.67,70,10.13,3.85.57,5.67-.06,6.07-4.48A224.71,224.71,0,0,1,298.89,215c.86-4.46.21-7.36-4.9-7.45-11.38-.19-17.77-5.48-18.09-17.26-.11-4.11-2.88-4.88-6.38-5-13.47-.56-26.93-1.39-40.41-1.86-7.32-.26-14.65-1.9-22-.72a308.85,308.85,0,0,0-43.91,10.37c-31.27,9.89-61.55,22-87.93,42C63,244.5,53.23,254.8,55.47,272.74c1.07,8.64,2,16.24,8.23,22.6a61.16,61.16,0,0,1,14.08,23.85c8.16,24.39,16.28,48.81,24.76,73.09,4.57,13.09,10,25.87,18.13,37.26,4.49,6.27,10.22,9.38,18.17,9.25a106.42,106.42,0,0,0,25.83-3.52c22.26-5.94,43-15.84,64.57-23.73,20.37-7.45,40.71-14.14,63.11-10.22,9.83,1.72,14.5-3.38,15.22-13.59.86-12.11-2-23.69-5.46-35.06-6.53-21.58-13.72-42.95-20.21-64.54-1.17-3.89-2.66-6.27-6.5-7.29-4.44-1.18-6.79-4.06-7.35-8.72-.74-6.17-4.66-9-10.64-10.19-11-2.13-20.93,1.06-30.48,5.51-11.29,5.27-22.21,11.32-33.29,17.05-2.14,1.11-4.39,2.39-6.73,1-12.26-7.17-20.38-2.25-26.56,8.82a19.84,19.84,0,0,1-2.95,3.73,3.12,3.12,0,0,0-.57,3.71c6.63,18.12,13.17,36.27,19.9,54.88l7.75-6.24c1.72,3.68,3.37,7.19,5.25,11.18C191.86,358.55,193.42,355.77,195.49,353.46Z"/><path class="cls-1" d="M453.7,344c-19,12.53-37.27,24.73-55.7,36.68-12,7.79-17.09,4.87-18.08-9.65-1.79-26,7.87-48.48,20.8-70a260.81,260.81,0,0,1,18.4-26.29c2.47-3.16,5.91-5.86,5.13-10.76-.29-1.84,1.61-3.06,3-4.21,4.07-3.48,8.42-6.69,12.16-10.48,2.86-2.91,5.24-3.26,7.87-.3,3.14,3.55,6.5,3.86,10.24,1.15,4.49-3.27,8.3-2.19,12.11,1.4,9.74,9.2,17.62,19.82,24.47,31.27a5.37,5.37,0,0,1,.26,5c-8.6,24.32-8.4,49.42-6.42,74.64a219,219,0,0,0,4,26.43c1.3,6.37.53,6.92-5.9,5.15-4.39-1.2-8.71-2.71-13.15-3.65-6-1.28-9.11-4.94-10.46-10.72C459.63,367.86,456.68,356.15,453.7,344Zm-55.3,4.12a10,10,0,0,0,2.67-.63c13.93-9.11,27.82-18.28,41.77-27.36,1.9-1.24,2.1-2.62,1.36-4.5-4-10.11-8-20.23-12.08-30.67C413.86,302.39,405.56,324.7,398.4,348.09Z"/><text class="cls-2" transform="translate(241.51 523.06)"><tspan xml:space="preserve">e  n  t  e  r  t  a  i  n  m  e  n  t</tspan></text></g></g></svg>