<svg xmlns="http://www.w3.org/2000/svg" viewBox="0 0 365.99 567.84"><defs><style>.cls-1{fill:#fefefe;}.cls-2{fill:none;stroke:#000b12;stroke-miterlimit:10;stroke-width:3px;}</style></defs><title>mac</title><g id="레이어_2" data-name="레이어 2"><g id="레이어_1-2" data-name="레이어 1"><path class="cls-1" d="M130.27,437.8c-12,39.61-26.44,77.8-40.18,116.25-2,5.58-2.61,11.18-11.42,11.2S69.31,559.57,67.49,554c-11.78-36.28-25.3-72-35-109-.33-1.28-.3-3.42-3.35-3.5q-2.72,47.08-5.42,94.16c-.37,6.5-1.65,13.06-1.08,19.47,1,11.31-5.7,11-13.56,10.63-4.62-.21-6.16-1.31-5.79-6.35,3.5-47,6.7-94.12,10-141.19.25-3.61-.08-8.43,5.45-6.91,7.56,2.08,18.18-6.53,22.59,7.07,12.25,37.82,27.37,74.7,36.81,113.44.16.64.9,1.13,2,2.46C86.69,514.9,92.91,496,99.48,477.17c6.82-19.54,14.29-38.86,20.87-58.47C125,404.81,136,412.4,144,411.51c8.38-.93,4.55,7.19,4.82,10.95,3.18,44.62,5.88,89.28,8.73,133.93.31,4.82,1.86,10.44-6.37,9.23-5.42-.81-12.83,3.7-13.22-8-1.24-37-3.65-73.93-5.68-110.88C132.11,444,133.12,441,130.27,437.8Z"/><path class="cls-1" d="M336.19,567.54c-33.32,0-54.39-21.08-55-55.08-.62-33.4,21.33-58.34,52.88-59.92,7.31-.36,14.76-.82,21.83,1.4,4.83,1.51,11.94.83,9.68,10.31-2,8.46-5.51,7.89-12.59,5.85-19-5.47-34.68.18-44.21,14.4s-9.4,38.17.42,52c9.32,13.14,25.05,18,43.74,13.35,5.21-1.31,10.13-5.44,12.38,4.22s-4,9.72-9.76,11.31A65.79,65.79,0,0,1,336.19,567.54Z"/><path class="cls-1" d="M242.91,552.88c-9.52,10.28-20.12,15.23-33.09,15-15.43-.33-27.24-7.68-31.61-20.32-4.86-14-.15-30.64,11.48-39.61,12.86-9.93,28.18-12.66,43.7-12.81,9.2-.09,8.87-4.43,7.55-10.53-2.13-9.83-8.27-15.71-18.25-17a49.8,49.8,0,0,0-26.26,3.6c-3.43,1.45-7.24,6.39-9.85-1.89-1.82-5.78-1.8-8.79,4.17-11.28a70.75,70.75,0,0,1,44.18-3.92c14.69,3.43,23.13,13.8,25.23,28.16,3.83,26.23-.64,52.86,2.83,79.17.47,3.57-1.73,4.45-4.3,4-4.73-.93-10.9,3.34-14-3.33C243.59,559.69,243.63,556.86,242.91,552.88Zm-5.28-43.42c-12.14-1.33-24.61.38-34.43,8.95-7.68,6.69-8.38,15.82-4.64,24.58,3.94,9.23,12.38,11.08,21.54,9.6,13.76-2.23,21.56-12.92,21.65-30.08C239.54,518.88,245.82,510.36,237.63,509.46Z"/><path class="cls-1" d="M340.62,305.51H12a12,12,0,0,1-12-12V20.72a12,12,0,0,1,12-12H340.62a12,12,0,0,1,12,12V293.51A12,12,0,0,1,340.62,305.51Zm-237.21-197V84.69A2.69,2.69,0,0,0,100.73,82H97.9a2.7,2.7,0,0,0-2.69,2.69v23.84a2.7,2.7,0,0,0,2.69,2.69h2.83A2.69,2.69,0,0,0,103.41,108.53Zm147.48,0V84.69A2.69,2.69,0,0,0,248.21,82h-2.83a2.7,2.7,0,0,0-2.69,2.69v23.84a2.7,2.7,0,0,0,2.69,2.69h2.83A2.69,2.69,0,0,0,250.89,108.53Z"/><path class="cls-2" d="M67.3,234.69s137.58,49.78,225.38-3.35"/><path class="cls-2" d="M207.46,313.77s-21.71-61.66-6.27-114.6c0,0-37.67-9.13-54.77-6.77,0,0,7.19-108.69,70.78-191.49"/></g></g></svg>