<svg xmlns="http://www.w3.org/2000/svg" viewBox="0 0 699.86 566.93"><defs><style>.cls-1{fill:#fefefe;}</style></defs><title>oculus</title><g id="레이어_2" data-name="레이어 2"><g id="레이어_1-2" data-name="레이어 1"><path class="cls-1" d="M553.17,553.13c-15.66,12.16-31.59,15.88-48.88,12.24-22.93-4.83-36.22-20.07-38-46.17-1.5-22.11-.63-44.38-.93-66.58,0-3.27,1-4.81,4.36-4.38a6,6,0,0,0,.85,0C492.94,447,492.76,447,493,469.57c.16,15.91-1.21,31.89,1.39,47.73,2.63,16,12.52,24.43,28,24,15.27-.45,26.21-10.49,26.87-26.41.82-19.61.64-39.28.45-58.91,0-5.59.87-7.94,7.28-7.9,20.69.13,20.69-.16,20.69,20.83,0,28.47-.36,57,.23,85.41.18,8.56-2.52,11.25-10.5,9.91a15.93,15.93,0,0,0-5.11,0C554.94,565.4,551.42,562.69,553.17,553.13Z"/><path class="cls-1" d="M350.25,553c-11.36,8.83-21.77,13-33.49,13.46-30.88,1.17-50.21-15.58-53.33-46.28-2.25-22.16-.66-44.4-1.26-66.6-.11-4,1.18-5.23,5.27-5.46,22.35-1.24,22.24-1.36,22.44,20.66.13,14.81-.48,29.63,1,44.41,1.77,18.19,11.1,28,27,28.1,16.88.14,27.52-9.62,28.53-28.29,1-19.32.71-38.72.62-58.08,0-5,.92-6.81,6.46-6.85,21.33-.14,21.33-.38,21.33,21,0,29.35-.15,58.69.14,88,.06,5.71-1.63,7.81-7.19,7.11a33.17,33.17,0,0,0-6.83,0C353.94,564.79,347.62,564.77,350.25,553Z"/><path class="cls-1" d="M650.37,566.5c-16.93,1-31.78-4.72-45.49-14.21-3.36-2.33-4.71-4.18-1.43-7.85,4-4.44,6.44-11.43,11.23-13.58,4.52-2,9.3,4.64,14.42,6.68,11.09,4.42,22.29,6.88,34.12,3.52,5.53-1.58,10.18-4.59,10.69-10.77.54-6.4-4.13-9.57-9.28-11.91-7.06-3.21-14.82-3.91-22.19-6-5.17-1.51-10.49-2.79-15.38-5-23.5-10.48-27-38.78-6.91-54.78,18.82-15,51.16-12.41,70.75.93.7.47,1.89,1.19,1.83,1.68-.76,6.8-6.56,10.67-9.61,16.16-2,3.61-4.29,2.41-7.06,1-9.59-4.85-19.62-7.63-30.48-5.36-5.89,1.22-11.5,3.62-12,10.3s5.13,9.1,10.44,10.66c9,2.65,18.26,4.44,27.15,7.39,18.46,6.13,28.46,18,28.65,33.06.24,19.79-15.75,36.07-37.53,38C658.37,566.81,654.36,566.5,650.37,566.5Z"/><path class="cls-1" d="M202.27,566.84c-29.56,0-50.31-14-58.65-38.68-8.86-26.18-1.33-55.11,18.39-70.62,20.13-15.83,51.32-17,73-3,4.45,2.86,5.58,5.14,1.43,8.92a26.35,26.35,0,0,0-2.68,3.31c-3,3.78-5.33,8.75-9.22,11.05-4.37,2.57-8.51-2.63-13-3.81-16-4.2-31.83.84-39.26,13.07-8,13.09-6,32.16,4.41,42.84s28.85,13.37,42.49,4.43c6.28-4.13,9.76-3.63,13.71,1.9a27.61,27.61,0,0,0,3,3.08c10.92,11.24,10.85,11.74-3.23,19.79C222.76,564.73,212.16,567.47,202.27,566.84Z"/><path class="cls-1" d="M407.28,474c0-27.31.15-54.62-.13-81.92-.06-5.5,1.33-7.1,7-7.07,20.72.09,20.73-.14,20.73,20.52,0,50.06-.12,100.13.14,150.2,0,6.47-1.33,8.72-8.29,8.58-19.42-.4-19.42-.06-19.42-19.47Z"/><path class="cls-1" d="M349.87,308c-32.77,0-65.56.48-98.32-.11-43.27-.79-82-14.37-112.45-45.95C96,217.26,82.73,164,102.42,105.18S165.16,12.59,226.24,2A117.47,117.47,0,0,1,245.78.31C315,.19,384.3-.37,453.54.4,525.17,1.2,585,50,601.66,119.63c20.12,84.17-37.39,170.66-122.89,185.26-26.07,4.45-52.28,2.93-78.45,3.27-16.81.22-33.63,0-50.45,0Zm.33-205.1c-34.73,0-69.49-.72-104.2.24a50.61,50.61,0,0,0-48.75,46.35c-1.95,25.16,14.37,47.46,39.47,53.62a91.87,91.87,0,0,0,22,2.21c52.11,0,104.22.25,156.33.07,14.49-.06,29,.86,43.48-1.42,38.41-6,56.86-49.83,33.68-80.37-10.08-13.28-23.87-20.43-40.39-20.66-33.87-.46-67.76-.14-101.65-.14Z"/><path class="cls-1" d="M58.9,566.57C24.3,566.45-.19,541,0,505.28c.19-34.45,25.72-60.14,59.66-60s60.31,27,60,61.22C119.42,541.09,93.53,566.69,58.9,566.57Zm33.52-60.79c-.18-19.16-14-33.16-32.81-33.21s-32.73,13.82-33.07,33C26.2,525,40.1,539.41,59.37,539.46S92.6,525.34,92.42,505.78Z"/></g></g></svg>