<svg xmlns="http://www.w3.org/2000/svg" viewBox="0 0 1373.09 283.46"><defs><style>.cls-1,.cls-2,.cls-3{fill:#fff;}.cls-2{font-size:24.72px;}.cls-2,.cls-3{font-family:NanumGothic, Nanum Gothic;}.cls-3{font-size:37.64px;}</style></defs><title>ps4</title><g id="레이어_2" data-name="레이어 2"><g id="레이어_1-2" data-name="레이어 1"><path class="cls-1" d="M138,131.29c0-40.15.38-80.32-.24-120.46C137.58,0,140.35-1.53,150.36,1.16c33,8.84,66.55,15.86,97.2,31.46,39.27,20,55.49,73.75,34.83,112.77-10,18.82-37.13,25.89-55.68,15.12-6-3.45-4.45-8.24-4.48-12.86-.15-23.79-.06-47.59-.08-71.39a109.34,109.34,0,0,0-.26-11.88c-1-8.76-3-18.25-14.06-17.24-10,.91-8.7,10.51-8.72,17.76Q199,166,199,267.17c0,17.7-.12,18-17.42,11.78-14.29-5.14-34.39-4.11-41.52-16.26-6.54-11.12-2-28.84-2.08-43.65C137.88,189.79,138,160.54,138,131.29Z"/><path class="cls-1" d="M1277.39,139.85c0,17.35.57,34.72-.23,52-.45,9.83,2.38,13.81,12.43,12.54,5.36-.68,10.93.31,16.32-.24,8.43-.85,9.65,3.44,9.75,10.58.09,7.34-2.76,9.68-9.61,9.26-5.43-.34-10.93.4-16.34-.08-8.17-.71-13.81.53-12.32,10.81,1,7-3.48,8.16-9.22,8-6.43-.21-12.89-.26-19.32,0s-11.21-1.29-10.19-8.8c1.53-11.32-5.86-10.06-13-10q-84,.07-168,0c-4.46,0-8.93.17-13.38-.06-7.18-.36-16.4,1.61-18.45-8.06-1.88-8.91,6.33-12.48,12.59-16.35q27.12-16.8,54.33-33.44,72.74-44.62,145.49-89.2c5-3.09,10.12-6.39,15.6-8.53,13.43-5.26,22.79.62,23.24,15.11.58,18.81.14,37.65.14,56.48Zm-205.13,62.62c3.72,1.12,5,1.82,6.18,1.82,50.1,0,100.21-.34,150.31.07,9.45.08,10.46-4.19,10.4-11.63-.22-26.79-.46-53.58,0-80.36.21-11.88-3.26-11-11.53-5.7-25.07,15.93-50.56,31.2-75.86,46.77C1125.88,169.38,1100,185.37,1072.26,202.47Z"/><path class="cls-1" d="M605.23,66.47c32.22,0,64.43-.23,96.65,0,30.53.27,48.76,17,50,45.28,1.25,28.69-16.44,47.44-47.17,49.86-4.44.35-8.92.27-13.38.27-43.61,0-87.22,0-130.83,0-22,0-29.2,7.08-29.78,29.25-.37,13.87-.44,27.76,0,41.63.24,7.88-2.69,10.24-10.44,9.93-33.38-1.32-27.94,6.18-28.29-27.72-.11-10.89-.32-21.86.73-32.67,2.43-25.14,19.28-40.45,44.49-40.55,48.57-.2,97.14,0,145.7-.06,20.86,0,30.14-8.61,30.23-27.75s-9.21-28-29.9-28q-88.46,0-176.93,0c-7.11,0-14.95,2.41-14.66-10.18.27-11.55,7.35-9.38,14-9.39Q555.42,66.44,605.23,66.47Z"/><path class="cls-1" d="M809.67,242.63c-18.85,0-37.72-.58-56.53.26-9.16.41-10.68-3.3-11-11.07-.41-9.11,4.66-9.12,11.26-9.08,31.24.17,62.49.13,93.74.06,20.32-.05,28-7,28.51-27.45.58-25.28.24-50.58.28-75.88C876,83.91,891.66,67,927,66.26s70.43,0,105.64-.46c8.5-.12,9.56,3.44,9.84,10.59.3,8-2.44,10-10.16,9.86-29.26-.44-58.53-.21-87.79-.18-22.06,0-29.31,6.82-29.69,29.32-.43,24.8.07,49.6-.11,74.4-.26,36.14-16.85,52.61-53,52.82C844.38,242.71,827,242.63,809.67,242.63Z"/><path class="cls-1" d="M279.11,174.65A178,178,0,0,1,351.33,189c8.76,3.68,18,8.08,18.55,19.07.55,10.54-8.21,15.47-16.09,19.42-22.59,11.33-47.05,17.9-70.65,26.68-21.29,7.92-42.95,14.89-64.14,23.06-7.28,2.8-9.19,2.21-9.64-5.92-1.45-26.17-1.68-26,22.46-34.33,24.72-8.58,49.32-17.54,73.92-26.45,4-1.45,9.8-2.44,8.7-8.19-.89-4.62-6.39-3.77-10.11-4.44-12.61-2.3-24.61.87-36.35,4.89-16.36,5.6-32.57,11.61-48.86,17.4-2.63.94-6.69,4.13-7.9,1.26-3.9-9.29-.82-19.39-1.68-29.12-.54-6.08,3.79-7.26,8.17-8.56C237.75,177.82,258.11,174.09,279.11,174.65Z"/><path class="cls-1" d="M125.87,160.41c.64,1.57,1.27,2.46,1.34,3.39,2.38,30.21,2.38,30.23-25.83,40.52-12.54,4.57-25.15,8.92-37.64,13.62-3.06,1.15-7.25,2.3-6.85,6.67.43,4.54,4.87,4.18,8,4.9,17.47,3.91,33.37-2.37,48.81-8.82,10.93-4.56,13.69-3.39,14.25,9.25.67,15-3.87,20.45-19,21.44-30.67,2-60.26-1.5-89-12.11C10.46,235.76.9,230.49.05,219.43s9-15.82,17.52-19.78C49,185,82.52,176,114.73,163.4,118.32,162,122.21,161.37,125.87,160.41Z"/><text class="cls-2" transform="translate(1335.67 247.95)">TM</text><text class="cls-3" transform="translate(332.21 275.94)">®</text></g></g></svg>