<svg xmlns="http://www.w3.org/2000/svg" viewBox="0 0 1175.72 283.46"><defs><style>.cls-1{fill:#fff;}</style></defs><title>steam</title><g id="레이어_2" data-name="레이어 2"><g id="레이어_1-2" data-name="레이어 1"><path class="cls-1" d="M1056.11,75.11v2.51c0,15.75-.06,31.51.07,47.26,0,2.46-.7,3-3,2.86-4.81-.19-9.63-.12-14.44,0-1.55,0-2.12-.32-2.12-2q.08-43.95,0-87.91c0-1.52.47-1.93,1.95-1.91,5.14.08,10.29.12,15.42,0,1.71,0,2.4.6,3,2.05q10,22.41,20.08,44.75c.36.81.75,1.61,1.25,2.67,3.4-6.72,6.7-13.24,10-19.76,4.67-9.22,9.37-18.42,13.95-27.68a3.13,3.13,0,0,1,3.36-2c4.16.13,8.32.1,12.48,0,1.53,0,1.92.47,1.92,2q-.06,44,0,87.91c0,1.47-.36,2-1.91,2-4-.11-8-.16-12,0-2.18.09-2.88-.44-2.86-2.76.11-15.76.06-31.51.06-47.26V75.29c-1,.12-1.05.89-1.33,1.39-5.71,10.14-11.44,20.28-17,30.48a3.16,3.16,0,0,1-3.42,1.93c-2.91-.21-6.42,1-8.58-.47s-2.71-4.85-4-7.41q-5.77-12-11.53-24A4,4,0,0,0,1056.11,75.11Z"/><path class="cls-1" d="M842.26,81.87c0-14.53,0-29.06,0-43.59,0-2,.59-2.41,2.47-2.4q28.16.1,56.32,0c2,0,2.43.63,2.37,2.47-.13,3.83-.13,7.68,0,11.51,0,1.65-.48,2-2.06,2-12.24-.07-24.49.06-36.73-.11-2.6,0-3,.76-3,3.1.17,5.55.12,11.1,0,16.65,0,1.65.48,2,2,2,10.69-.07,21.38,0,32.08-.08,1.73,0,2.18.44,2.12,2.15-.13,3.91-.13,7.84,0,11.75.06,1.69-.53,2-2.06,2-10.61-.06-21.22,0-31.84-.07-1.74,0-2.4.3-2.35,2.24.13,6,.14,12.08,0,18.12-.05,2,.61,2.23,2.35,2.22,12.32-.07,24.65,0,37-.08,1.88,0,2.53.4,2.44,2.38-.17,3.83-.12,7.67,0,11.51,0,1.52-.27,2.11-2,2.1q-28.53-.09-57.06,0c-1.85,0-2.1-.67-2.09-2.26C842.28,110.93,842.26,96.4,842.26,81.87Z"/><path class="cls-1" d="M692,128.45c-8.42-.14-15.28-.86-21.81-3.49a24.91,24.91,0,0,1-10.23-7.31c-.8-1-.91-1.6.1-2.59,3-2.89,5.87-5.9,8.73-8.92.87-.92,1.43-1.21,2.56-.26,8.62,7.26,18.66,7.91,29.09,5.73,5.37-1.11,8.2-4.65,8.43-9.42.27-5.37-2.15-9-7.45-11-4.8-1.78-9.94-1.65-14.92-2.47a46.88,46.88,0,0,1-9.68-2.44C668.42,83,663.37,77,662.13,68c-1.31-9.46.45-18,7.52-25,4.68-4.57,10.56-6.75,16.91-7.48,12.59-1.44,24.36.57,34.58,8.74,1.3,1,1.62,1.59.26,2.87-2.84,2.7-5.55,5.53-8.2,8.41-1.09,1.18-1.8,1.29-3.19.33a28.06,28.06,0,0,0-22.8-4.47c-5.38,1.2-8.42,4.61-8.78,9.46-.44,5.83,2.79,9.91,9,11,5.21,1,10.48,1.6,15.7,2.48,17.46,2.91,27.33,20.8,20.3,36.89-3.77,8.62-11,13-19.64,15.48A40.51,40.51,0,0,1,692,128.45Z"/><path class="cls-1" d="M792.23,89.64c0,11.91,0,23.83,0,35.74,0,1.78-.36,2.4-2.27,2.35-5-.14-10-.15-14.93,0-1.92.06-2.26-.57-2.25-2.34.06-23.58,0-47.17.1-70.75,0-2.46-.69-2.92-3-2.86-6.69.15-13.38,0-20.07.09-1.58,0-2.11-.37-2.06-2,.12-4,.1-8,0-12,0-1.44.29-2,1.87-2q31.45.07,62.92,0c1.49,0,2,.37,1.93,1.91-.11,3.91-.13,7.84,0,11.75.06,1.79-.36,2.38-2.26,2.33-5.79-.13-11.59.08-17.38-.11-2.36-.08-2.75.73-2.73,2.86C792.28,66.3,792.23,78,792.23,89.64Z"/><path class="cls-1" d="M1164.49,48.7c1.73-4,3.34-7.63,4.88-11.29,1.17-2.78,3.54-1.29,5.32-1.38,1.63-.09.84,1.61.86,2.47.07,6.12-.06,12.23.09,18.34,0,2.17-.45,2.83-2.74,2.86s-3-.69-2.89-3a54.34,54.34,0,0,0-.39-10.3c-1.45,2.38-3,4.74-4.32,7.18a2.52,2.52,0,0,1-2.56,1.33c-1.37,0-1.29-1-1.55-1.77a42.65,42.65,0,0,0-2.26-6.09c0,3.56-.08,7.13,0,10.68,0,1.51-.37,2.1-1.9,1.89a10.68,10.68,0,0,0-2.19,0c-1,.08-1.49-.22-1.49-1.34q.06-10.51,0-21c0-1.13.53-1.28,1.5-1.33,3.92-.21,3.92-.25,5.51,3.41C1161.71,42.35,1163,45.38,1164.49,48.7Z"/><path class="cls-1" d="M1142.29,35.92c2.28,0,4.57.09,6.84,0,2-.11,1.4,1.3,1.45,2.3s.34,2-1.46,2c-4,0-4,.14-4,4.23,0,4.32-.07,8.65,0,13,0,1.64-.33,2.31-2.13,2.23-4.28-.18-3.49.41-3.53-3.46,0-4.73-.08-9.46,0-14.19,0-1.52-.39-2.1-1.89-1.85a7.1,7.1,0,0,1-1.22,0,2.46,2.46,0,0,1-2.38-3.71c.34-.75.94-.5,1.46-.51C1137.72,35.9,1140,35.92,1142.29,35.92Z"/><path class="cls-1" d="M931.14,127.68l9.07-25Q951.87,70.6,963.48,38.5c.72-2,1.59-2.81,3.79-2.64a71.91,71.91,0,0,0,9.05,0,2.43,2.43,0,0,1,2.78,2q11.76,32.57,23.61,65.1c2.77,7.64,5.51,15.29,8.36,22.9.61,1.62.25,1.9-1.35,1.87-5.22-.08-10.44-.09-15.66,0a2.11,2.11,0,0,1-2.41-1.75c-1.37-4.25-2.92-8.45-4.3-12.7a2.12,2.12,0,0,0-2.4-1.75q-13.58.11-27.16,0a2,2,0,0,0-2.23,1.63c-1.38,4.33-2.95,8.61-4.39,12.93a2,2,0,0,1-2.24,1.63C943.14,127.64,937.34,127.68,931.14,127.68Zm41.43-64Q967.34,79.33,962.1,95c-.46,1.37.53,1.22,1.35,1.22,6.19,0,12.39,0,18.58,0,1.49,0,1.81-.33,1.32-1.81-3.47-10.23-6.86-20.49-10.27-30.73Z"/><path class="cls-1" d="M542.8.42C570.53,2.66,592.74,15,608.33,37.94c32.34,47.61,8,111.66-48,127.56a80.24,80.24,0,0,1-21.23,3.14A6.52,6.52,0,0,0,535,170q-38.47,28.2-77,56.31a4.64,4.64,0,0,0-2.12,3.51c-3.57,27.92-27.8,51-55.87,53.43-26.7,2.28-51.1-11.42-61.76-34.68a52.09,52.09,0,0,1-3.77-11.32A3.87,3.87,0,0,0,331.8,234q-92.22-36.78-184.38-73.74-25.14-10.06-50.29-20.13a4,4,0,0,0-3.86.17c-36.27,20.45-83-.65-91.81-41.4C1,96.61,1,94.23,0,92.09V79.84C.38,75.15.8,70.45,2.41,66c8.66-24.08,25.42-39.12,50.71-43.33C73.77,19.2,92,25.31,107.22,39.91a62.24,62.24,0,0,1,17,28.45,6,6,0,0,0,4.08,4.35c20.8,8.2,41.52,16.64,62.26,25q34.2,13.76,68.37,27.54c23.69,9.58,47.41,19.06,71.08,28.68,9.68,3.93,19.4,7.75,29.08,11.69a5.81,5.81,0,0,0,5.11-.09c10.76-5.12,22-8.25,34.06-7.41a3.45,3.45,0,0,0,3.43-1.71q17.82-25.49,35.69-50.93c4.68-6.69,9.32-13.4,14.08-20A7.69,7.69,0,0,0,453,80.91c.45-19.83,7.69-37,20.5-52,12.2-14.21,27.59-23.22,45.78-27.53A52.11,52.11,0,0,1,531.63.25C535.36.36,539.08,0,542.8.42Zm0,0a.56.56,0,0,1-.07-.42H531a.52.52,0,0,1-.07.42ZM595.07,84c-.2-31.83-26-56.26-59.24-56-30,.2-54.84,25.87-54.7,56.58.14,31.25,25.3,56.71,55.85,56.5C569.81,140.79,595.27,115.79,595.07,84ZM70,129.31c-5-2-10-4-14.94-6A36.84,36.84,0,0,1,75.28,52.81c7,1.35,13.29,4.78,19.93,7.18,2.79,1,5.52,2.16,8.6,3.38C92.71,42.2,66.14,33.26,44.15,43a46.36,46.36,0,0,0-24.73,58c8.32,23.22,32.35,34.16,52.63,29.44C71.6,129.6,70.7,129.59,70,129.31ZM413.46,263c22.24-9.78,32.2-37,22.16-60.48-9.14-21.37-31-31.09-51.05-26l16.91,6.75a45.11,45.11,0,0,1,9.48,5c14.56,10.32,20.67,40.1,3.54,56.27-9,8.53-19.33,13.05-31.79,10.58-7.51-1.49-14.52-4.71-21.43-8-2.33-1.1-4.64-2.22-7.5-3.59C363.08,263.58,391.53,272.64,413.46,263ZM492.28,83.42c-.11,25.57,19.32,45.77,44.15,45.89,25.5.12,47.34-20.55,47.47-44.94s-21.35-45.18-47-45.3A44.4,44.4,0,0,0,492.28,83.42Z"/></g></g></svg>