<svg xmlns="http://www.w3.org/2000/svg" viewBox="0 0 585.3 566.93"><defs><style>.cls-1{fill:#fff;}</style></defs><title>vive</title><g id="레이어_2" data-name="레이어 2"><g id="레이어_1-2" data-name="레이어 1"><path class="cls-1" d="M478.22,502.31c0-13.63-.13-27.27,0-40.9.22-17.31,6.56-23.5,23.58-23.5,21.26,0,42.54.66,63.75-.29,10.07-.45,14.55,4.51,18.07,12.14,3.33,7.23,1.86,11.44-7.15,11.34-20-.2-40.15.82-60.13-.4-14-.86-11.65,7.4-12.1,15.83-.51,9.4.58,15.25,12.52,14.13s24.07.3,36.05-.42c10.22-.61,9.23,5.59,9.61,12.29.41,7.44-1.44,11.17-9.82,10.82-12.41-.53-24.87.22-37.28-.25-8.11-.31-12.23,2-11,10.82a33.93,33.93,0,0,1,0,9.6c-1.2,7.88,2.9,9.47,9.64,9.4,19.24-.2,38.49-.25,57.73.09,4.87.08,13.21-3.5,13.14,5.4,0,7.85-3.64,17.35-12.83,17.68-26.82,1-53.77,1.34-80.54-.24-10.45-.62-12.83-12.05-13.17-21.44C477.83,530.39,478.21,516.34,478.22,502.31Z"/><path class="cls-1" d="M70.58,533.63c12.83-24.21,24.4-46,36-67.84,3-5.65,6.22-11.2,8.82-17,3.34-7.52,7.25-14,16.89-10.15,7.1,2.82,10.62,15.94,6.69,23.31-17.14,32.11-34.71,64-51.2,96.45-4.4,8.64-10.52,8.15-17.75,8.17-6.9,0-12.72.27-16.84-7.77-16.8-32.75-34.49-65-51.76-97.55-3.59-6.75.15-19.9,6.91-22.51s11.6-.71,15.31,6.65C36.4,470.71,50,495.67,63.29,520.76,65.15,524.27,67.2,527.67,70.58,533.63Z"/><path class="cls-1" d="M352.74,531.66q17-32.14,34.07-64.38c3.18-6,6.33-12,9.38-18.13,3.72-7.44,7.53-15.14,17.87-10,7.34,3.62,9.78,15.66,5.3,24.18-10.25,19.5-20.65,38.91-31,58.35-6.4,12-13.15,23.85-19.1,36.09-3.27,6.71-7.6,9.64-15.06,8.85s-15.11,1.88-20.18-8.18c-16.58-32.86-34.25-65.19-51.85-97.53-5.53-10.16.74-16.93,7.06-21.46,7.4-5.3,12.63.18,16.44,7.63,12.94,25.31,26.37,50.36,39.69,75.47C347,525.59,347.8,529.35,352.74,531.66Z"/><path class="cls-1" d="M224.58,501.79c0,18-.49,36,.18,54,.38,10.11-4.88,11-12.65,10.79s-15.44,1.3-15.28-10.85c.42-32.41,0-64.83.22-97.24C197.14,446,204.9,438,215,437.77c7.5-.2,9.79,3,9.69,10C224.41,465.77,224.58,483.78,224.58,501.79Z"/><path class="cls-1" d="M293.7,396.18c-55.73,0-111.46-.13-167.19.09-14.62.05-25.34-5.62-32.82-18.22-8.58-14.46-17.56-28.7-26.41-43-7.94-12.82-7.88-25.5-.21-38.54Q148,158.79,228.78,20.93C236.82,7.19,248.07.14,264.09.31,281.33.5,298.6.72,315.82,0,332-.59,343.27,5.78,351.53,19.58,382.79,71.83,414.39,123.86,445.87,176c24,39.75,47.91,79.58,72.14,119.2,7.47,12.21,7.75,24,.54,36.14C509.77,346.13,501,361,492.16,375.73c-7.1,11.81-17,18.55-31.42,18.51-55.68-.18-111.36-.07-167-.07Zm77.55-71.44c31.38-9.79,47.14-37.92,38.91-69.63C396.89,204,370.07,161,330.33,126.28c-23.38-20.42-56.9-20.71-79.27-.44C211.41,161.75,184.34,205.4,172.67,258c-6.76,30.48,9.8,58,40,67.12,25.11,7.62,50.76,11.38,79.42,11.63A274.61,274.61,0,0,0,371.25,324.74Z"/></g></g></svg>