<svg xmlns="http://www.w3.org/2000/svg" viewBox="0 0 1297.82 283.46"><defs><style>.cls-1{fill:#fff;}</style></defs><title>windows</title><g id="레이어_2" data-name="레이어 2"><g id="레이어_1-2" data-name="레이어 1"><path class="cls-1" d="M206.7,135.29c-24.75,0-49.51,0-74.27.06-2.56,0-3.28-.65-3.27-3.25q.14-53.82,0-107.64c0-2.59.66-3.47,3.34-3.83,29.35-4,58.68-8.1,88-12.15C241,5.65,261.54,2.9,282,.06c1.6-.22,2.26.12,2.09,1.77-.05.54,0,1.09,0,1.63q0,64.14.06,128.26c0,2.8-.54,3.66-3.53,3.65C256,135.23,231.35,135.29,206.7,135.29Z"/><path class="cls-1" d="M206.61,149.66c24.77,0,49.53,0,74.3,0,2.52,0,3.27.6,3.27,3.22q-.14,63.82,0,127.64c0,2.54-.43,3.29-3.19,2.9q-34.77-5-69.58-9.7-39.66-5.43-79.34-10.71c-2.16-.29-2.89-1.06-2.89-3.28q.11-53.52,0-107c0-2.54.78-3.05,3.16-3C157.08,149.69,181.85,149.66,206.61,149.66Z"/><path class="cls-1" d="M531.45,198.92c3.07-16.25,7.56-32,11.34-47.85,6.58-27.64,13.4-55.22,20-82.87.59-2.48,1.59-3,3.92-3,7.2.14,14.41.18,21.6,0,2.89-.07,3.11.75,2.4,3.31q-16.32,59.18-32.49,118.4c-3.54,12.91-7.17,25.8-10.6,38.74-.56,2.09-1.35,2.79-3.5,2.76-8.51-.12-17-.09-25.53,0-1.63,0-2.5-.32-3-2.08q-15.63-58-31.32-116c-.94-3.51-1.13-7.22-1.66-10.79-5.18,25.84-13.31,50.86-19.92,76.26-4.33,16.64-9.06,33.18-13.51,49.79-.57,2.15-1.39,2.91-3.71,2.87q-12.76-.25-25.53,0c-2.3,0-3.1-.7-3.71-2.9q-21.9-78.65-44-157.24c-.66-2.34-.56-3.16,2.24-3.09,7.85.2,15.71.18,23.57,0,2.44-.06,3.33.76,3.89,3q13.05,53.11,26.24,106.2c2.06,8.34,4.36,16.63,4.76,25.57,1.43-1.91,1.08-4,1.52-5.83,4.76-19.91,10.81-39.47,16.22-59.2,6.1-22.25,12.49-44.43,18.63-66.67.62-2.26,1.37-3.19,3.87-3.13,7.52.19,15.05.12,22.58,0,1.68,0,2.5.41,2.93,2.12q15.6,61.23,31.24,122.45C530.68,192.76,531,195.87,531.45,198.92Z"/><path class="cls-1" d="M58.27,135.29c-18.32,0-36.63,0-54.95.05-2.44,0-3.32-.45-3.31-3.16Q.18,87,0,41.9c0-2.35.65-3.17,3-3.48Q56.08,31.26,109.14,24c7.34-1,7.34-1,7.34,6.48,0,33.69,0,67.38.09,101.07,0,3.27-1,3.87-4,3.85C94.47,135.21,76.37,135.29,58.27,135.29Z"/><path class="cls-1" d="M58.48,149.66c18.32,0,36.65.05,55-.06,2.45,0,3.1.64,3.09,3.1q-.12,52.35,0,104.7c0,2.75-.84,3.26-3.35,2.91q-46.28-6.5-92.55-12.87c-5.72-.79-11.44-1.53-17.17-2.18C1.14,245,0,244.41,0,241.57q.2-44.32,0-88.67c0-2.89,1-3.31,3.51-3.29C21.83,149.71,40.16,149.66,58.48,149.66Z"/><path class="cls-1" d="M1124.54,139.41c-2.16,11.21-5.74,21.51-8.72,32-5.14,18-10.46,35.95-15.57,54-.65,2.28-1.51,3.14-4,3.07-6.87-.18-13.75-.2-20.61,0-2.66.08-3.77-.72-4.52-3.28q-13.34-45.93-26.88-91.8c-1.87-6.37-3.7-12.75-5.66-19.09-.59-1.93-.18-2.48,1.83-2.46q11.29.12,22.58,0c1.55,0,2.37.39,2.77,2q10.56,42.45,21.24,84.88c.57,2.27.06,4.72,1,6.93,7.6-30.6,16.9-60.59,25.06-90.9.55-2.07,1.34-3,3.73-2.94,6.54.21,13.09.12,19.63,0,1.72,0,2.43.5,2.86,2.24q10.42,42.66,21,85.27c.54,2.17,0,4.55,1.08,6.38q11.18-45.69,22.35-91.54c.43-1.78,1.19-2.41,3.1-2.37,6.65.14,13.3.12,20,0,2.08,0,2.67.4,2,2.57q-16.58,55.86-33,111.78c-.49,1.68-1.18,2.26-2.91,2.24-7.74-.08-15.49-.06-23.23,0-1.51,0-2.35-.32-2.78-2q-10.45-39.45-21-78.88C1125.34,145,1125.07,142.41,1124.54,139.41Z"/><path class="cls-1" d="M684.73,130.41c5-6.57,10.17-12.59,17.47-16.3,12.14-6.17,24.71-6.82,37.31-1.83,11,4.35,16.83,13.37,19.93,24.37A78.74,78.74,0,0,1,762,158c0,22.37,0,44.73.06,67.09,0,2.44-.44,3.42-3.17,3.33-6.75-.21-13.53-.22-20.28,0-2.77.09-3.17-.95-3.16-3.36.08-20.07,0-40.14,0-60.22,0-5.56-.11-11.1-1.45-16.56-4.45-18.17-24.4-24.44-38.54-12.05a30.35,30.35,0,0,0-10.65,23.38q-.27,32.57,0,65.12c0,3.13-1,3.77-3.83,3.68-6.65-.19-13.31-.14-20,0-2.19,0-3-.46-3-2.85q.12-55.47,0-110.93c0-2.4.81-2.88,3-2.84,6.87.12,13.75.14,20.62,0,2.38-.06,3.24.5,3.14,3C684.59,120,684.73,125.2,684.73,130.41Z"/><path class="cls-1" d="M1291.58,137c-5.88-3.52-11.45-6.16-17.61-7.28-6.93-1.25-13.84-1.63-20.73.27a22.38,22.38,0,0,0-5.4,2.29c-8.52,5-8.86,15.39-.66,20.94a45.26,45.26,0,0,0,11,5c9.31,3.15,18.47,6.74,26.48,12.52,18.75,13.54,17.26,40.49-2.67,52.22a58.37,58.37,0,0,1-24.76,7.65c-13.14,1.16-26.12.26-38.66-4.36-2.52-.92-3.77-2.05-3.64-5.07.3-6.71.1-13.45.1-20.77a63.6,63.6,0,0,0,14.07,7.7,52.6,52.6,0,0,0,31.81,1.76c7.47-1.89,11-6.77,10.53-13.65-.34-5-3.59-8-7.45-10.51-4.81-3.08-10.31-4.61-15.6-6.62a111.74,111.74,0,0,1-20-9.61c-17-10.69-19.11-38.44.84-51.25,12.7-8.16,26.77-10,41.41-8.83a78.4,78.4,0,0,1,18.23,3.59c1.93.63,2.82,1.44,2.77,3.63C1291.48,123.21,1291.58,129.76,1291.58,137Z"/><path class="cls-1" d="M630.59,170.37c0,18.31-.05,36.62,0,54.93,0,2.39-.53,3.17-3,3.1-6.53-.18-13.08-.2-19.61,0-2.89.1-3.8-.58-3.79-3.67.13-31.28.08-62.56.08-93.84,0-5.45.08-10.9,0-16.34-.05-2.08.47-2.83,2.69-2.79,7,.14,14,.16,20.92,0,2.46,0,2.8.92,2.79,3C630.56,133.31,630.59,151.84,630.59,170.37Z"/><path class="cls-1" d="M617.74,57.43c9,0,16,6.7,15.9,15.17-.1,8.16-7.27,14.8-16,14.83s-15.77-6.51-15.8-14.9C601.78,64,608.71,57.4,617.74,57.43Z"/><path class="cls-1" d="M866.78,209.19c-4.25,5.78-8.7,11.06-14.6,15C830,239.05,798,230.81,786.71,206.05c-11.08-24.38-10.3-49.37,2.82-73,12.63-22.7,37.07-27.39,56.07-22A33.14,33.14,0,0,1,864,124.46c.74,1.05,1.46,2.11,2.78,4V124.2c0-21.6.07-43.2-.08-64.8,0-3,.86-3.63,3.65-3.53,6.11.21,12.22,0,18.33.07,5.09,0,4.4-.61,4.4,4.26q0,75.45,0,150.88c0,4.91-.09,9.82,0,14.73.05,2-.53,2.61-2.57,2.58q-10.62-.18-21.27,0c-2,0-2.62-.53-2.57-2.56C866.87,220.28,866.78,214.73,866.78,209.19Zm-.27-55.46c-2.65-13.24-12.32-22.11-25.41-23.47s-24.46,5.35-29.93,17.64c-4.27,9.59-5.11,19.72-4.22,30.06.72,8.41,3.15,16.15,8.58,22.84,10.78,13.3,36.72,13.75,47.22-6.61C867,186,867.24,177.27,867,168.4,866.87,163.51,867.47,158.57,866.51,153.73Z"/><path class="cls-1" d="M970.57,231.08c-16.85,0-32.88-5.61-44.9-20.32-7.11-8.7-10.8-18.83-12-29.91-1.29-12.28-.7-24.46,3.89-36.06,8.35-21.12,24.63-32,46.64-34.95a75,75,0,0,1,30.47,1.81c16,4.46,27.34,14.39,33.25,29.82,7.06,18.4,7.4,37.22-.12,55.53-8,19.46-23.25,30.12-43.91,33.31A96.53,96.53,0,0,1,970.57,231.08ZM1003.68,153c-3.93-13.77-13.31-21.56-27.38-22.7s-25.8,5.39-31.67,17.9c-4.64,9.88-5.19,20.33-3.93,31,2,16.67,13.21,32.61,36.19,30.85,10.29-.78,18.29-5.27,23.43-14.37,4.43-7.83,5.54-16.41,5.47-25.88A57.82,57.82,0,0,0,1003.68,153Z"/></g></g></svg>