<svg xmlns="http://www.w3.org/2000/svg" viewBox="0 0 1629.76 283.46"><defs><style>.cls-1{fill:#fff;}</style></defs><title>xbox</title><g id="레이어_2" data-name="레이어 2"><g id="레이어_1-2" data-name="레이어 1"><path class="cls-1" d="M130.05,283.46c-19.9-.21-48.31-9.91-74.24-28.44-12.08-8.63-14.43-18.59-9.35-31.29,6.39-15.94,16.17-29.88,26.88-43.15a457.18,457.18,0,0,1,60-61.13c5.31-4.51,9.15-6.1,15.3-.77,30.91,26.75,59.83,55.27,80.7,90.77,16,27.15,13.06,36.79-13.82,53.25C193.42,276.22,168,283.39,130.05,283.46Z"/><path class="cls-1" d="M29.43,228.54c-41-57.92-38.3-127.79,2.62-177.83,9.79-12,18.86-13.18,30.81-5.29,1.37.9,2.84,1.64,4.23,2.51,12.14,7.66,27,15.63,31.8,27.64C104.1,88.5,86.64,97.13,79.78,108,66.34,129.29,52,150,41.35,172.9,33.77,189.26,26.83,205.75,29.43,228.54Z"/><path class="cls-1" d="M254.07,226.16c1.52-23.65-6.62-41.57-15.41-59.2a437.08,437.08,0,0,0-52.94-81.12c-4.83-5.93-5.46-9.27.75-14.53,12.58-10.65,24.45-22.1,39.75-29,7.89-3.57,13.87-2.92,20.44,3.89C291.12,92.24,295.78,173.19,254.07,226.16Z"/><path class="cls-1" d="M1145.55,227.76q-.39-80-.72-160c0-3.44-1.76-8.46,4.16-8.93s12-1.77,16.4,4.47c7.9,11.22,16.14,22.2,24.29,33.26,24,32.61,48.08,65.2,74.8,101.44V102.71c0-10.45-.16-20.91.07-31.36.12-5.9-3-13.16,8.57-13.2,10.57,0,11,4.72,11,12.9-.28,47.87,0,95.75-.33,143.62,0,4.67,4.15,12.3-4,13.78-7.18,1.31-14.76,2.11-20.5-6.1-15.12-21.6-31.16-42.55-46.81-63.78q-22-29.82-44-59.68c-9,1.73-4.38,8.81-4.44,13.13-.43,33.39-.21,66.78-.25,100.17C1163.77,230,1163.72,230,1145.55,227.76Z"/><path class="cls-1" d="M1304.54,143.27c0-24.2.34-48.42-.18-72.61-.18-8.66,1.25-12.59,11.31-12.39,32.44.64,64.91.2,97.37.28,5.07,0,11-2,11.15,7.34.17,8.88-4,9.56-11,9.49-25.86-.27-51.73.29-77.57-.32-9.26-.21-12.68,2.3-11.78,11.79,1.37,14.64-5.92,33.58,2.79,42.88,8,8.57,27,2,41.17,2.41,13.19.39,26.4.2,39.61,0,6-.07,10.53,0,10.59,8.43,0,8.13-3.89,8.64-10.16,8.58-24.21-.21-48.42.22-72.62-.26-8.3-.16-11.92,1.7-11.43,10.84a394,394,0,0,1,0,41.24c-.43,8.6,2.07,11.28,10.9,11.09,26.39-.59,52.81-.23,79.22-.2,5.94,0,12-1.33,12,8.63,0,10.17-6.37,8.34-12.08,8.35-32.45.08-64.92-.46-97.36.32-11,.27-12.41-3.84-12.16-13.32C1305,191.7,1304.54,167.48,1304.54,143.27Z"/><path class="cls-1" d="M480.74,60.14c-16.74,22.78-32.59,45.76-50,67.43-7.79,9.68-6.5,15.61.5,24.63,18.78,24.18,36.43,49.23,55.2,74.85-13.95,4.68-22.92,1.41-30.86-10.4-13.75-20.46-29-39.89-44.79-61.28-15.29,20.74-30.58,39.93-44,60.33-7.86,11.93-16.81,16-31.83,11.65,19.44-26.49,38.08-52.64,57.65-78.08,5.74-7.46,5.62-12-.08-19.34-17.5-22.49-34.07-45.69-51.78-69.68,13.32-3.62,22.68-2.27,30.63,10,11.9,18.29,25.66,35.37,39.4,54,13.31-18,26.47-34.22,37.82-51.63C456.45,60.41,465.46,55.07,480.74,60.14Z"/><path class="cls-1" d="M857.28,124.27c13.06-17.72,26.12-33.9,37.39-51.25,7.87-12.12,16.89-18,32.82-13.15-17.17,23.31-33.77,46.74-51.41,69.36-6.1,7.82-6.16,12.78-.11,20.65,19.28,25.05,37.63,50.83,57,77.21-13.93,4-22.81,1.64-30.54-9.92-13.94-20.85-29.51-40.61-45.11-61.78l-45,60.84c-10.36,14-10.35,14.05-30.71,10.84C800,202,817.42,177,836.23,153c7.56-9.65,9-15.84.53-26.16-17.24-21.06-32.59-43.67-49.29-66.41,14.42-4.77,23.37-1,31.11,10.71C830.31,88.92,843.61,105.67,857.28,124.27Z"/><path class="cls-1" d="M1629.76,227.44c-13.55,3.1-22.25,1.67-30.53-9.9-37.59-52.54-76.32-104.26-115.3-157.17,13.56-4.17,22.37-1.61,30.71,10C1552.23,122.74,1590.77,174.43,1629.76,227.44Z"/><path class="cls-1" d="M214.85,21.81c-19.75-2.37-35.57,1.32-49.32,8.9-16.7,9.22-30.82,10.34-47.84.28a74.29,74.29,0,0,0-48-9.54C103.65-7.1,173.88-7.32,214.85,21.81Z"/><path class="cls-1" d="M1477.54,227.82l53-71.82c12.61,8.19,12.89,16.46,3,27.43a198.49,198.49,0,0,0-24.13,32.93C1502,229,1492.09,230.77,1477.54,227.82Z"/><path class="cls-1" d="M1577.2,123.55c-11.68-7.73-13.85-15.62-3.78-26.27a129.89,129.89,0,0,0,18.5-25.1c7.31-13,17.25-16.66,32.12-12.17Z"/><path class="cls-1" d="M602.25,138.62c21.44,13.72,29.31,31.91,22.42,55.31-6.13,20.82-23.48,33-50.78,34.33-22.46,1.1-45,.18-67.52.79-8.46.23-9.84-3.31-9.64-10.74.49-18.11-.71-36.3.46-54.35.82-12.49-2.89-17.09-15.36-15.26-5.89.87-12,.15-19,.15,4.84-11.53,10.65-19.62,24.24-17.16,8.08,1.47,10.26-2.46,10-10.24-.53-17.56.22-35.16-.35-52.72-.24-7.75,1.61-10.62,9.89-10.39,22,.61,43.95-.23,65.9.53,20.4.7,37.91,7.64,45.61,28.67C625.48,107.72,621.35,125.21,602.25,138.62Zm-15.36,69.13c14.05-5.2,21.14-15.13,20.61-30.21s-9.57-22.55-23.06-26.17c-13-3.48-26.24-2.47-39.42-2.51-29.2-.07-29.2,0-29.2,29.09,0,33,0,33,33.47,33C561.89,210.62,574.64,212.28,586.89,207.75Zm-6-77.83c13.68-4.16,21.5-12.82,21.12-27.45-.37-14.24-8.86-21.42-22.11-24.51-13.58-3.17-27.28-1.55-40.91-1.73-23.13-.31-23.13-.09-23.13,23.36,0,32.16,0,32.16,34.75,32.16C559.06,130.87,570.07,133.2,580.85,129.92Z"/><path class="cls-1" d="M1127.43,145.94c-1.44,58.53-43.38,95-97.91,85.12-43-7.79-70.88-51.46-64.13-100.46C971.32,87.53,998,59,1035.74,55.26,1090.23,49.9,1128.86,88.1,1127.43,145.94Zm-100.26,65.42c33.64,11,66.27-6.83,77.12-42.21,12.59-41.06-5.87-83.62-40.73-93.88-42.43-12.49-79.49,19.64-79.3,68.74C984.38,177.06,1000.71,202.68,1027.17,211.36Z"/><path class="cls-1" d="M716.38,54.69c48-.2,81.53,35.87,81.88,88.13.36,52.8-33.78,90.27-82,89.93-47.85-.33-80.75-36.66-80.74-89.18S668.33,54.89,716.38,54.69Zm18,20.61c-33.31-9.93-65,7.88-75.75,42.52-12.45,40.24,5,82.14,38.93,93.49,42.55,14.24,81.26-18.17,81.13-67.94C778.61,109.83,761.36,83.34,734.38,75.3Z"/></g></g></svg>