<svg xmlns="http://www.w3.org/2000/svg" viewBox="0 0 300 119.12"><defs><style>.cls-1{fill:#3d2d18;}.cls-2{fill:#19150e;}</style></defs><title>자산 4lk</title><g id="레이어_2" data-name="레이어 2"><g id="레이어_1-2" data-name="레이어 1"><rect class="cls-1" width="300" height="119.12"/><path class="cls-2" d="M196.12,34.55h25.62a1.31,1.31,0,0,1,1.3,1,24.19,24.19,0,0,1,.34,2.68c.18,1.47.43,3,.61,4.59.17,1.21.34,2.34.52,3.55s.34,2.51.52,3.72c.08.26-.09.34-.26.34h-23a2.25,2.25,0,0,1-1.3-.34,47.23,47.23,0,0,0-7.88-3,6.84,6.84,0,0,0-3.72.17,44.59,44.59,0,0,0-6,2.34c-.43.17-.87.43-1.39.61a2.79,2.79,0,0,1-1.21.25H152.41c-.6,0-.78-.17-1-.69a8.13,8.13,0,0,1-.86-4.5A8.64,8.64,0,0,1,154.06,39a10.4,10.4,0,0,1,4.07-1.64c1.81-.43,3.63-.78,5.36-1.21,2.17-.52,4.24-1,6.41-1.47a1.39,1.39,0,0,1,.6-.09Z"/><path class="cls-2" d="M269.86,69.17h-86c-.61,0-.61,0-.61-.61V66.23c0-.35-.17-.44-.51-.44H179.5a1.22,1.22,0,0,1-.52-.17,1.29,1.29,0,0,0-1.12,0,1.94,1.94,0,0,1-.69.17H153.45c-.26,0-.52.09-.6-.17-.09-.09-.18,0-.26,0-.61-.09-1,.26-1.56.26h-2.6a19.11,19.11,0,0,0,2-1.3c.44-.26,1-.6,1.39-.86.26-.18.43-.18.6,0s.44.17.7.17A4.6,4.6,0,0,0,156,62.42a1.82,1.82,0,0,0,.43-1.13.53.53,0,0,1,.26-.52c1-.69,2.17-1.29,3.21-2a1.16,1.16,0,0,1,.52-.08h33.75c.35,0,.43.08.35.43a1.4,1.4,0,0,0,0,.86c.08.26.26.44.51.35s.52-.17.44-.52c-.09-.6.26-.6.69-.6h11.42c.44,0,.61.08.52.51,0,.26.09.61.44.61s.43-.17.6-.52A1.5,1.5,0,0,0,209,59c-.09-.26,0-.35.25-.35h.26c.35,0,.87-.17,1,.09s.09.69.09,1,.17.61.52.61.52-.26.52-.61c0-.51.17-.51.6-.51h11.43c.43,0,.6.08.6.51s.18.61.52.61a.46.46,0,0,0,.52-.52c0-.26.09-.52-.08-.78s0-.34.26-.34h10.64c.35,0,.43.08.43.43v4.93c0,.44.09.52.52.52h5.54c.61,0,.61,0,.61.61a11.08,11.08,0,0,1,.08,1.73V67c.26.43.7.17,1,.17.18.08.35,0,.35-.26-.09-.69.26-1.39.17-2.08a.23.23,0,0,1,.26-.26h10.65c.43,0,.6.09.52.52-.09.61.26,1.21.17,1.91v.08c.35.35.69.09,1,.17.17,0,.26-.17.26-.34,0-.61.08-1.21.08-1.82,0-.26.09-.43.35-.43h5.89a.48.48,0,0,1,.43.17,56.86,56.86,0,0,1,4.76,4.42C269.6,69,269.68,69,269.86,69.17Z"/><path class="cls-2" d="M205.47,72.28h66a1,1,0,0,1,.95.44c.87,1,1.82,1.9,2.77,2.77,1.22,1.12,2.34,2.33,3.55,3.46.18.17.26.34,0,.6s-.26.18-.43,0A9.22,9.22,0,0,0,276,77.82c-.17-.08-.17-.17-.26-.34a1.22,1.22,0,0,0-1.3-.52c-.6.17-1-.18-1.55-.18a14.24,14.24,0,0,0-2.69-.08,1.71,1.71,0,0,1-.69-.17.92.92,0,0,0-1.21.08.64.64,0,0,1-.52.17h-3.29a1.22,1.22,0,0,1-.52-.17,1.18,1.18,0,0,0-1.3,0,.62.62,0,0,1-.51.17h-3.38a2.11,2.11,0,0,1-.61-.17,1.16,1.16,0,0,0-1.29,0,.86.86,0,0,1-.61.17h-3.12a.82.82,0,0,1-.6-.17,1.18,1.18,0,0,0-1.3,0,.64.64,0,0,1-.52.17h-3.46a1.18,1.18,0,0,1-.52-.17,1.18,1.18,0,0,0-1.3,0,.63.63,0,0,1-.52.17h-3.29a1.22,1.22,0,0,1-.52-.17,1.16,1.16,0,0,0-1.29,0,.66.66,0,0,1-.52.17h-3.46a.63.63,0,0,1-.52-.17,1.07,1.07,0,0,0-1.39,0,.86.86,0,0,1-.43.17h-3.38c-.17,0-.34,0-.43-.17a1.06,1.06,0,0,0-1.38,0c-.18.09-.26.17-.44.17h-3.46a.64.64,0,0,1-.52-.17,1,1,0,0,0-1.3,0,.63.63,0,0,1-.52.17h-3.2a1.18,1.18,0,0,1-.6-.17,1.18,1.18,0,0,0-1.3,0,.84.84,0,0,1-.61.17h-2.68a2.42,2.42,0,0,1-1.3-.25.91.91,0,0,0-1.12.08.57.57,0,0,1-.52.17h-3.38a1.18,1.18,0,0,1-.52-.17,1.18,1.18,0,0,0-1.3,0,.63.63,0,0,1-.52.17h-3.37a.64.64,0,0,1-.52-.17,1.06,1.06,0,0,0-1.38,0c-.18.09-.26.17-.44.17H196a.63.63,0,0,1-.52-.17,1.07,1.07,0,0,0-1.39,0,.86.86,0,0,1-.43.17h-3.46c-.17,0-.35,0-.43-.17a1.07,1.07,0,0,0-1.39,0,.86.86,0,0,1-.43.17h-3.38a.66.66,0,0,1-.52-.17.94.94,0,0,0-1.29,0,.66.66,0,0,1-.52.17H178.9a2,2,0,0,1-.61-.17,1.18,1.18,0,0,0-1.47.09.75.75,0,0,1-.43.09h-3.2a.61.61,0,0,1-.52-.18,1.05,1.05,0,0,0-1.3,0,.91.91,0,0,1-.69.18H168a2.36,2.36,0,0,1-1.3-.26.89.89,0,0,0-1,.08.73.73,0,0,1-.61.18h-3.2a.61.61,0,0,1-.52-.18,1.07,1.07,0,0,0-1.39,0c-.17.09-.26.18-.43.18h-3.46a.63.63,0,0,1-.43-.18,1,1,0,0,0-1.3,0,.63.63,0,0,1-.52.18h-3.38c-.17,0-.34,0-.43-.18a1.06,1.06,0,0,0-1.38,0,.63.63,0,0,1-.52.18h-3.38a.63.63,0,0,1-.52-.18,1,1,0,0,0-1.38.09.66.66,0,0,1-.52.17h-3.2c-.18,0-.35,0-.44-.17a1.09,1.09,0,0,0-1.55,0c-.18.09-.26.17-.44.17h-3.29a1.06,1.06,0,0,1-.69-.34c-.17-.18.09-.26.17-.35l4.16-2.6c.52-.34,1-.6,1.64-1,.18-.17.44-.08.7-.08h44.22C190.93,72.28,198.2,72.28,205.47,72.28Z"/><path class="cls-2" d="M137.7,47.88c-1.38,0-2.77.08-4.07,0-4.06-.17-8.13,0-12.2-.09-3.72-.09-7.44,0-11.16-.09-4.25-.17-8.4,0-12.64-.08-3.72-.09-7.53,0-11.25-.09-4.07-.17-8,0-12.12-.09-3.89-.17-7.79,0-11.68-.08-.52,0-1.13-.09-1.65-.09-.26,0-.26-.08-.26-.34V44.5c0-.34.18-.34.44-.34,2,0,4.06.08,6,0,3.9-.18,7.71,0,11.6-.09,3.64-.09,7.27,0,11-.09,4.24-.17,8.57,0,12.81-.08,3.9-.09,7.71,0,11.6-.09s7.88,0,11.86-.09c3.63-.08,7.27,0,10.9-.08,1.82-.09,3.64-.09,5.54-.09.35,0,.52.09.52.43v3.46c0,.44-.17.52-.52.52-1.64-.08-3.2-.08-4.76-.08Z"/><path class="cls-2" d="M199.93,71h72a4.3,4.3,0,0,1,2.07.52c2.25,1.38,4.59,2.68,6.93,4,.52.34,1.12.6,1.64,1,.26.17.43.26.09.52-.87.78-1.65,1.64-2.6,2.51-.17.17-.26.17-.43,0l-.09-.09c-2.34-2.34-4.76-4.67-7.1-7a.92.92,0,0,0-.77-.34H139.17a2.43,2.43,0,0,0-.78.17c-2.07,1.3-4.06,2.51-6.14,3.72a3.69,3.69,0,0,1-2.51.69,8.07,8.07,0,0,0-1.39,0c-.52,0-1,.09-1.47-.34a.94.94,0,0,0-1.21.17,2.67,2.67,0,0,1-.86.43,7.83,7.83,0,0,0-3.29,1.91c-.18.17-.26.26-.52.26a1.17,1.17,0,0,0-1,1,1.49,1.49,0,0,1-.26.87,4.44,4.44,0,0,0-.61,1.47.4.4,0,0,1-.43.26c-1.3-.35-2.69-.69-4-1-.18-.09-.18-.17-.18-.26a12.06,12.06,0,0,1,.78-2.17,13.68,13.68,0,0,1,3.55-4.93,12.89,12.89,0,0,1,6.75-3.2,15.6,15.6,0,0,1,2.77-.17Z"/><path class="cls-2" d="M152.07,50.73h72.18c.78,0,.86,0,.95.78a2.56,2.56,0,0,1-.61,2.34,2.32,2.32,0,0,1-1.47.52H158.3a8,8,0,0,1-4.42-1.47,8.34,8.34,0,0,1-1.73-1.73C152.15,51,152.07,50.91,152.07,50.73Z"/><path class="cls-2" d="M201.83,77.82a11.64,11.64,0,1,1-11.68,11.25A11.6,11.6,0,0,1,201.83,77.82Z"/><path class="cls-2" d="M136.92,89.42a11.55,11.55,0,0,1,11.6-11.6,11.64,11.64,0,1,1-11.6,11.6Z"/><path class="cls-2" d="M174.48,77.82c6.23-.17,11.6,5.28,11.6,11.6a11.64,11.64,0,1,1-11.6-11.6Z"/><path class="cls-2" d="M214.81,89.42a11.6,11.6,0,1,1,11.34,11.68A11.63,11.63,0,0,1,214.81,89.42Z"/><path class="cls-2" d="M250.38,77.82A11.6,11.6,0,1,1,238.7,89.16,11.75,11.75,0,0,1,250.38,77.82Z"/><path class="cls-2" d="M185.91,54.63H213.6c.18,0,.61-.17.61.17s-.35.17-.61.17a28,28,0,0,0-3.72.18,4.51,4.51,0,0,0-3.55,2.68c-.08.26-.34.17-.52.17-3.29,0-6.66-.08-9.95,0-11.94.18-24,0-35.92.09-.69,0-.6,0-.69-.69a2.75,2.75,0,0,0-1.38-2.51c-.09-.09-.18-.09-.18-.17s.18-.09.26-.09h28Z"/><path class="cls-2" d="M250.73,54.2h5.45c.35,0,.52.08.52.52v7.87c0,.43-.26.87-.17,1.3a.18.18,0,0,1-.17.17H245.62c-.43,0-.51-.17-.51-.52-.35-2.94-.09-5.88-.18-8.82,0-.44.09-.52.52-.52Z"/><path class="cls-2" d="M165.4,69.17H148.52c-.78,0-.78,0-.78-.78V66.92c0-.26.09-.35.35-.35h3.11c.26,0,.35.09.35.35,0,.6.34,1,.26,1.73,0,.26.34.17.52.17s.43,0,.34-.17c-.17-.61.35-1.13.26-1.73a.23.23,0,0,1,.26-.26h23.89c.43,0,.61.09.61.6s.25,1,.25,1.48c0,.26.35.17.52.17s.35,0,.26-.26c-.17-.61.44-1.13.26-1.82,0-.17.18-.17.26-.17h3.21c.26,0,.34.09.34.34v1.91c0,.26-.08.34-.34.34h-.35C176.65,69.17,171,69.17,165.4,69.17Z"/><path class="cls-2" d="M197.33,29.88h9.26c.43,0,.52.08.52.52v3.54c0,.35-.09.44-.43.44H188c-.51,0-.43-.26-.43-.61s0-.6.43-.52h2.17a.94.94,0,0,0,.69-.17c.17-.17.43-.35.26-.69a.66.66,0,0,0-.69-.52h-2.34c-.43,0-.52-.18-.52-.52v-1c0-.35.09-.44.52-.44C191.1,29.88,194.22,29.88,197.33,29.88Z"/><path class="cls-2" d="M151.55,77.82h2.33a.45.45,0,0,1,.35.18,1.07,1.07,0,0,0,1.39,0c.34-.26.52-.18.6.17a21.47,21.47,0,0,0,.69,2.25c.18.43.35.78,1,.78s.69-.35.86-.78c.26-.78.43-1.47.69-2.25.09-.35.26-.43.61-.26a1.16,1.16,0,0,0,1.47,0,1.06,1.06,0,0,1,.52-.09h2.77a1.92,1.92,0,0,1,1.21.26.91.91,0,0,0,1-.08c.35-.26.52-.26.69.17.44,1.21.44,1.12-.69,2A11.19,11.19,0,0,0,162.89,87a10.28,10.28,0,0,0-.26,2.33,10.71,10.71,0,0,0,.34,2.86c.09.35,0,.43-.26.43h-2.25c-.26,0-.43,0-.26-.34a10.82,10.82,0,0,0,.35-2.86,11.92,11.92,0,0,0-.87-4.59,11.53,11.53,0,0,0-7.79-6.92C151.72,77.91,151.55,78,151.55,77.82Z"/><path class="cls-2" d="M186.17,87.34a12.36,12.36,0,0,0-1.82-4.41,10.76,10.76,0,0,0-2.25-2.6c-.35-.26-.61-.52-.35-1s.26-.86.44-1.3a.37.37,0,0,1,.6-.26,1,1,0,0,0,1.39,0,1.16,1.16,0,0,1,.52-.08h2.68a2.47,2.47,0,0,1,1.38.26c.35.26.7.08,1-.18s.52-.17.61.26a23,23,0,0,0,.69,2.34.91.91,0,0,0,.78.69.78.78,0,0,0,.86-.69c.26-.78.52-1.56.7-2.34.08-.34.26-.43.6-.17a1.05,1.05,0,0,0,1.39,0,.86.86,0,0,1,.43-.17h2.77c0,.17-.09.17-.17.17a11.07,11.07,0,0,0-5.11,3,11.87,11.87,0,0,0-3.12,5.45.46.46,0,0,1-.51.43h-3C186.34,86.82,186.08,86.91,186.17,87.34Z"/><path class="cls-2" d="M264.49,59.13v4.5c0,.35-.08.52-.43.52h-5.54c-.26,0-.43-.09-.43-.43-.18-2.95,0-6-.09-8.92,0-.43.09-.52.52-.52h5.54c.35,0,.52.09.52.44C264.49,56.19,264.49,57.66,264.49,59.13Z"/><path class="cls-2" d="M237,59.13v-4.5c0-.35.09-.43.52-.43H243c.34,0,.52.08.52.43v8a5.48,5.48,0,0,0-.09,1.21.23.23,0,0,1-.26.26h-5.8c-.34,0-.26-.17-.26-.43A39,39,0,0,1,237,59.13Z"/><path class="cls-2" d="M205.12,77.91c.26-.17.43,0,.61.09.43.26.86.34,1.21-.09.17-.17.26-.17.52-.17h3.37a.63.63,0,0,1,.52.17,1,1,0,0,0,1.3,0c.35-.26.52-.17.61.17a23,23,0,0,1,.69,2.34.92.92,0,0,0,1.73,0,23,23,0,0,1,.69-2.34c.17-.52.26-.52.69-.17a1,1,0,0,0,1.22,0,.72.72,0,0,1,.6-.17h3.29c.17,0,.43-.09.61.26-.35.17-.7.26-1,.43a12.76,12.76,0,0,0-4.33,3.12,11.77,11.77,0,0,0-2.51,4.84,11.58,11.58,0,0,0-.26,4.24c.09.61.17,1.13.26,1.73.09.18,0,.35-.17.26h-1c-.35,0-.35-.08-.26-.34a9.24,9.24,0,0,0,.35-3,12.53,12.53,0,0,0-2.43-7.1,11.66,11.66,0,0,0-5.8-4.15c-.26,0-.34,0-.43-.09Z"/><path class="cls-2" d="M209.36,70.64H146.87c-.08,0-.34.09-.34-.17s.17-.26.34-.26H272.11a.23.23,0,0,1,.26.26c0,.17-.18.17-.26.17H209.36Z"/><path class="cls-2" d="M129.65,77.82H131a.65.65,0,0,1,.43.18,1,1,0,0,0,1.21,0c.35-.26.52-.18.69.17.26.78.52,1.56.7,2.34a.77.77,0,0,0,.86.6,1,1,0,0,0,.87-.6,23,23,0,0,0,.69-2.34c.17-.43.26-.52.69-.17a1,1,0,0,0,1.21,0,.63.63,0,0,1,.52-.18h3.38a.63.63,0,0,1,.52.18A1,1,0,0,0,144,78l.17-.18c.17-.08.35-.08.43.09s-.08.17-.17.26a14.65,14.65,0,0,0-2.34,1.12,11.42,11.42,0,0,0-3.89,4,12.32,12.32,0,0,0-1.64,7,7.53,7.53,0,0,0,.34,1.9c.09.26.09.43-.26.43a2,2,0,0,1-1.21-.6c-.78-.52-1.47-1-2.16-1.56-.18-.17-.35-.26-.09-.52A7,7,0,0,0,135,85.18a7.51,7.51,0,0,0-2.43-5.71l-1.29-1A8,8,0,0,1,129.65,77.82Z"/><path class="cls-2" d="M209.1,70H148.17c-.17,0-.34.08-.34-.18s.17-.26.34-.26h122c.18,0,.26.18.26.35s-.17.17-.26.17h-.34C249.52,70,229.35,70,209.1,70Z"/><path class="cls-2" d="M127.4,92.54a7.36,7.36,0,1,1,7.44-7.36A7.39,7.39,0,0,1,127.4,92.54Z"/><path class="cls-2" d="M229.79,77.91c.08-.17.26-.09.43-.09H233a1.93,1.93,0,0,1,1.21.26c.35.26.69.09,1-.08s.52-.18.6.26c.26.78.44,1.47.7,2.25.17.43.34.69.86.69a.83.83,0,0,0,.87-.61,18.07,18.07,0,0,0,.69-2.33c.17-.61.17-.61.69-.26a1.18,1.18,0,0,0,1.3,0,.72.72,0,0,1,.61-.18h.34c1.39.09,2.77-.34,4.07.44A13.25,13.25,0,0,0,238.61,87a8.63,8.63,0,0,0-.26,2.07,14,14,0,0,0,.35,3.21c.09.34.09.52-.35.43h-.17c-.43.09-.52-.17-.43-.52a11.5,11.5,0,0,0-2-9.87,12.37,12.37,0,0,0-5.63-4.15S230,78.17,229.79,77.91Z"/><path class="cls-2" d="M147.31,61.9h3.55c.26,0,.34.09.43.34a2.94,2.94,0,0,0,.34.78c.18.26.18.44-.17.61-1.12.69-2.25,1.38-3.46,2.08s-2.34,1.38-3.55,2.16a3.45,3.45,0,0,1-.95.17,24.49,24.49,0,0,1-2.42.61c-.26.09-.26,0-.26-.26.52-1.82,1-3.55,1.47-5.37a1.59,1.59,0,0,1,1.56-1.21C145,61.9,146.18,61.9,147.31,61.9Z"/><path class="cls-2" d="M253.5,77.82h3A.63.63,0,0,1,257,78a1,1,0,0,0,1.21,0c.35-.26.52-.18.7.17a17.76,17.76,0,0,1,.69,2.34.91.91,0,0,0,.86.69c.52,0,.7-.35.87-.69.26-.78.43-1.47.69-2.25.18-.44.26-.52.69-.18s.87.35,1.22,0a.63.63,0,0,1,.52-.17h3.28c.18,0,.44,0,.52.26a12.64,12.64,0,0,0-1.55.87,9.1,9.1,0,0,0-3.55,4.32,8.3,8.3,0,0,0-.61,3.2,8.6,8.6,0,0,0,2.08,5.72.41.41,0,0,1,.17.26c-.08.17-.17.17-.34.17h-2.34c-.35,0-.17-.26-.17-.43a10,10,0,0,0,.34-3.21,12,12,0,0,0-2.85-7.35,12.75,12.75,0,0,0-3.81-2.94A15.2,15.2,0,0,0,253.5,77.82Z"/><path class="cls-2" d="M264.84,60.34a3.78,3.78,0,0,1,.69-2.94,5.57,5.57,0,0,1,10,2.34,5.47,5.47,0,0,1-1.38,4.5,6,6,0,0,1-3,1.73,5.7,5.7,0,0,1-4.42-1,5,5,0,0,1-1.38-1.65C264.67,62.42,264.84,61.47,264.84,60.34Z"/><path class="cls-2" d="M181.84,50.39c1-.52,2.08-1,3.12-1.47,1.47-.61,2.94-1.13,4.5-1.65a5.9,5.9,0,0,1,3.46.09,58.13,58.13,0,0,1,6.4,2.51c.26.17.61.17,1,.43C199.84,50.47,184.09,50.47,181.84,50.39Z"/><path class="cls-2" d="M222.69,55.93H209.36c-.6,0-.6,0-.6.6V58c0,.18,0,.35-.26.26a4.89,4.89,0,0,0-1.56-.17c-.43,0-.43-.17-.26-.43a4.6,4.6,0,0,1,2.68-2.08,6.41,6.41,0,0,1,2.25-.26H214c7.35-.09,14.71-.09,22.07-.09.17,0,.52-.17.52.26s-.09.52-.44.52C231.69,55.93,227.19,55.93,222.69,55.93Z"/><path class="cls-2" d="M267.69,66.57a7.67,7.67,0,0,1,2.43-.17.88.88,0,0,1,.69.35c.17.17.26.08.43,0a1.83,1.83,0,0,1,1-.78c.17-.09.26-.09.43.08l3,3c.17.17.17.26,0,.52-.52.51-1,1-1.47,1.47a.41.41,0,0,1-.52.08c-.26-.17-.52-.43-.87-.34-.17,0-.17-.09-.17-.26A.75.75,0,0,0,272,70a2.12,2.12,0,0,1-1.82-.78C269.43,68.3,268.56,67.44,267.69,66.57Z"/><path class="cls-2" d="M262.76,86.91c0-.17,0-.35.17-.35a.51.51,0,0,1,.52.26c.35.7,1.22.87,1.56.26s.78-.52,1.3-.52h2.08c.26,0,.34,0,.43.35a2.5,2.5,0,0,0,.95,1.65c.17.08.17.17.09.34-.43.78-.95,1.56-1.39,2.42a.58.58,0,0,1-.6.35.76.76,0,0,0-.87.52.93.93,0,0,0,.09,1,.52.52,0,0,1,0,.6c-.17.18-.26,0-.43-.08a8.23,8.23,0,0,1-3.81-6.32A3,3,0,0,0,262.76,86.91Z"/><path class="cls-2" d="M267,86.39h-.95c-.43,0-.78.09-.95-.52-.09-.34-.52-.43-.87-.43a1,1,0,0,0-.78.69c-.08.35-.26.26-.52.26s-.17-.26-.17-.43a8.58,8.58,0,0,1,2-5,8.67,8.67,0,0,1,1.91-1.65c.08-.08.26-.25.34,0s.26.26.09.52a.93.93,0,0,0-.09,1,.82.82,0,0,0,.95.44.47.47,0,0,1,.52.34c.44.69.78,1.47,1.21,2.17.18.25.26.43-.08.69a2.19,2.19,0,0,0-.87,1.56c-.08.34-.17.34-.43.34Z"/><path class="cls-2" d="M271.42,77.82a7.35,7.35,0,0,1,3.89,1c.09.08.35.08.17.26s-.08.34-.34.25a.94.94,0,0,0-1,.52.91.91,0,0,0,.09,1.13c.08.09.17.17,0,.35-.52.77-1,1.64-1.48,2.51-.17.25-.26.25-.52.17a2.2,2.2,0,0,0-1.81,0c-.26.08-.35.08-.52-.17-.43-.78-.87-1.56-1.39-2.34a.54.54,0,0,1,0-.61.89.89,0,0,0,.09-1,.88.88,0,0,0-.95-.52c-.35.09-.44-.08-.52-.34s.17-.26.26-.35A12,12,0,0,1,271.42,77.82Z"/><path class="cls-2" d="M212.3,30.74a10.25,10.25,0,0,1,4,.78,4.22,4.22,0,0,1,1.55,1.21c.18.18.44.52.18.61a.8.8,0,0,1-.87,0,1.73,1.73,0,0,0-1.9-.26c-1.73.69-3.47.17-5.2.34-.08,0-.17,0-.17-.08a2.43,2.43,0,0,0-2.16-.35c-.18,0-.26.09-.35-.17-.09-.78,0-.87.69-1.21A10,10,0,0,1,212.3,30.74Z"/><path class="cls-2" d="M147.22,43.81h1.9c.26,0,.35,0,.26.35a9.83,9.83,0,0,0-.08,3.2c.08.26,0,.34-.26.34h-3.9c-.26,0-.34-.08-.34-.34v-3.2c0-.26.08-.35.34-.35Z"/><path class="cls-2" d="M197.33,29.62h-9.26c-.17,0-.35.08-.43-.09s.08-.26.26-.43a.94.94,0,0,1,.69-.26h17.48a1.11,1.11,0,0,1,.87.34c.08.09.17.18.08.26s-.17.09-.25.09h-.26C203.39,29.62,200.36,29.62,197.33,29.62Z"/><path class="cls-2" d="M152.76,61.12V59c0-.34.17-.43.43-.34a4.36,4.36,0,0,1,2.6,1.47,1.73,1.73,0,0,1,.09,1.82,4.43,4.43,0,0,1-2.77,1.64c-.26.09-.35-.09-.35-.35Z"/><path class="cls-2" d="M143.07,45.71V43.29a1.66,1.66,0,0,1,1.21-1.47c.17,0,.26-.09.26.17s.08.61-.18.95a.6.6,0,0,0,0,.87.62.62,0,0,1,.18.52v3.12a1.18,1.18,0,0,1-.18.6.6.6,0,0,0,0,.87c.35.26.18.6.18.86s-.18.18-.35.09a1.61,1.61,0,0,1-1.12-1.56Z"/><path class="cls-2" d="M154.32,38.36a9,9,0,0,0,0,15.06c-1.82-.09-4.59-4-4.76-6.41a8.42,8.42,0,0,1,1.9-6.4A5.66,5.66,0,0,1,154.32,38.36Z"/><path class="cls-2" d="M178.72,34.38h-8.13c-.17,0-.35.08-.43-.09s.17-.26.26-.35a1.14,1.14,0,0,1,.51-.08h15.84c.18,0,.44-.09.44.26s-.26.26-.44.26Z"/><path class="cls-2" d="M244.67,58.61v4c0,.43-.17.43-.52.43s-.43-.08-.43-.43v-8c0-.35.17-.43.43-.43s.52,0,.44.43C244.59,55.93,244.67,57.31,244.67,58.61Z"/><path class="cls-2" d="M257.74,58.7v4c0,.34-.17.43-.52.43s-.43-.09-.43-.43v-8c0-.35.17-.44.43-.44s.52.09.52.44Z"/><path class="cls-2" d="M271.5,84.05a2.41,2.41,0,0,1,2.34,2.43,2.44,2.44,0,0,1-2.51,2.42A2.37,2.37,0,0,1,269,86.39,2.49,2.49,0,0,1,271.5,84.05Z"/><path class="cls-2" d="M214.55,34.38h-6.66c-.17,0-.52.08-.52-.26s.26-.26.43-.26h13a.83.83,0,0,1,.77.34c.09.18.09.18-.08.26h-.35C218.88,34.38,216.72,34.38,214.55,34.38Z"/><path class="cls-2" d="M201.83,58.35h6c.78,0,1.22.52,1,1.39,0,.17-.08.17-.26.25s-.17-.08-.26-.17a.32.32,0,0,0-.08-.17c-.09-.69-.09-.69-.78-.69H196c-.78,0-.78,0-.86.78,0,.17,0,.25-.18.25a.22.22,0,0,1-.25-.25c-.09-.87.17-1.3,1.12-1.3C197.85,58.35,199.84,58.35,201.83,58.35Z"/><path class="cls-2" d="M218,58.35h6a1,1,0,0,1,1,1.39c-.09.08-.18.17-.26.17s-.18-.09-.18-.26.09-.52-.17-.69-.61-.09-.95-.09H212.13c-.69,0-.69,0-.69.69,0,.17,0,.43-.26.43s-.26-.26-.26-.34c0-.61.17-1.21,1-1.21C214,58.35,216,58.35,218,58.35Z"/><path class="cls-2" d="M165.4,66.31H153.54c-.17,0-.43.09-.52-.08s.35-.18.52-.18h23.8c.17,0,.35-.08.35.18s-.26.17-.35.17C173.36,66.31,169.38,66.31,165.4,66.31Z"/><path class="cls-2" d="M186.77,87.17c-.26.35-.43.69,0,1a.52.52,0,0,0,.7,0c.25-.26.25-.6-.09-1h2.25a2.17,2.17,0,0,0-1.73,2.34,2.5,2.5,0,0,0,1.73,2.25h-2c-.26,0-.09-.26,0-.35.17-.34,0-.6-.35-.69s-.6.09-.69.35a.31.31,0,0,0,.17.43c.09.08.18.17,0,.17s-.17,0-.26-.09V87.43C186.51,87.34,186.43,87.08,186.77,87.17Z"/><path class="cls-2" d="M138,68.91A7.46,7.46,0,0,1,140.38,64l.09-.09c.17-.09.35-.26.52-.17s0,.34,0,.52a8.74,8.74,0,0,1-.78,2.07,17.08,17.08,0,0,1-1.47,2.77.09.09,0,0,1-.09.09c-.17.17-.34.52-.6.43S138,69.17,138,68.91Z"/><path class="cls-2" d="M147.39,66.31v3.38a.23.23,0,0,1-.26.26.86.86,0,0,0-1,.69H146c-.09-.09,0-.17,0-.26a1.14,1.14,0,0,0-1.13-1.64c-.17,0-.34.17-.43-.09s-.17-.52.17-.69A20.47,20.47,0,0,0,147.39,66.31Z"/><path class="cls-2" d="M162.89,101.1h-1.13c-.26,0-.26-.08-.26-.34.26-.78.52-1.65.78-2.42a.59.59,0,0,1,.61-.44.64.64,0,0,1,.6.44c.26.86.52,1.64.78,2.5.09.26-.09.26-.17.26Z"/><path class="cls-2" d="M263.45,96.26v-.78a.59.59,0,0,1,.35-.61.55.55,0,0,1,.69.18c.52.69,1,1.47,1.65,2.16.08.17.08.17-.09.26-.78.26-1.47.52-2.25.78-.26.09-.26,0-.26-.17C263.63,97.38,263.37,96.86,263.45,96.26Z"/><path class="cls-2" d="M185.56,101.1h-1.12c-.18,0-.26-.08-.18-.26.26-.86.52-1.64.78-2.5.09-.18.17-.35.43-.35a.69.69,0,0,1,.61.26,15.27,15.27,0,0,1,.87,2.6c.08.17-.18.25-.26.25Z"/><path class="cls-2" d="M214.81,77.82h1.13c.17,0,.26.09.17.26-.26.78-.52,1.65-.78,2.43a.57.57,0,0,1-.6.43.58.58,0,0,1-.61-.43c-.26-.78-.52-1.65-.78-2.43-.08-.26,0-.34.26-.34A7.13,7.13,0,0,0,214.81,77.82Z"/><path class="cls-2" d="M260.42,77.82h1.13c.17,0,.26.09.17.26a23,23,0,0,0-.69,2.34.65.65,0,0,1-.61.52c-.34,0-.51-.26-.6-.61a21.47,21.47,0,0,0-.69-2.25c-.09-.26,0-.34.26-.34A4.48,4.48,0,0,0,260.42,77.82Z"/><path class="cls-2" d="M134.93,77.82h1.13c.17,0,.26.09.17.26-.26.78-.52,1.65-.78,2.43a.55.55,0,0,1-.52.43.63.63,0,0,1-.6-.43c-.26-.78-.52-1.65-.78-2.43-.09-.26.08-.26.26-.26Z"/><path class="cls-2" d="M157.78,77.82h1c.34,0,.34.09.26.44-.26.69-.44,1.47-.69,2.25a.62.62,0,0,1-1.22,0,23,23,0,0,1-.69-2.34c-.09-.17,0-.26.17-.26A4.47,4.47,0,0,1,157.78,77.82Z"/><path class="cls-2" d="M192.05,77.82h1c.17,0,.26.09.17.26a23,23,0,0,0-.69,2.34.74.74,0,0,1-.6.52.64.64,0,0,1-.61-.52c-.26-.78-.43-1.56-.69-2.34-.09-.26,0-.34.26-.34A5.72,5.72,0,0,0,192.05,77.82Z"/><path class="cls-2" d="M237.58,77.82h1c.26,0,.35.09.26.35-.26.78-.43,1.47-.69,2.34a.73.73,0,0,1-.6.52.65.65,0,0,1-.61-.52c-.26-.78-.43-1.47-.69-2.34-.09-.26,0-.35.26-.35Z"/><path class="cls-2" d="M131.56,92.71c-.09.69-.26,1.56-.35,2.34,0,.26-.17.17-.35.17-.69-.35-1.29-.61-2-1-.17-.09-.17-.18-.08-.26a7,7,0,0,1,2-1.91C131.3,91.76,131.56,91.93,131.56,92.71Z"/><path class="cls-2" d="M139.78,68.82a.42.42,0,0,1,.26.09c.43.35.78.17,1.21,0a20.93,20.93,0,0,0,2.51-.69.39.39,0,0,1,.52.17c.08.26-.09.43-.35.52-1,.26-1.82.52-2.68.69a1.32,1.32,0,0,0-.87.52.83.83,0,0,1-1.12.35.89.89,0,0,1-.52-1A1.1,1.1,0,0,1,139.78,68.82Z"/><path class="cls-2" d="M242.68,101.1h-1.12c-.18,0-.26-.08-.18-.26.26-.77.52-1.64.78-2.42.09-.17.09-.26.35-.09a3.61,3.61,0,0,1,1.56,2.6c.08.17,0,.26-.18.26A5.85,5.85,0,0,0,242.68,101.1Z"/><path class="cls-2" d="M277.13,71.42V72c.08.44-.18.44-.52.44a7.21,7.21,0,0,1-2.17-.95c-.17-.09-.25-.18-.08-.35a.65.65,0,0,0,.34-.35,1.43,1.43,0,0,1,2-.6c.25.17.43.17.34.52A1.61,1.61,0,0,1,277.13,71.42Z"/><path class="cls-2" d="M150.25,41.73c-.43,1-.26,1-1.21,1h-3.81c-.35,0-.43-.18-.43-.44s0-.52.43-.52Z"/><path class="cls-2" d="M157.43,37.23c-.17,0-.26,0-.26-.17s.09-.35.35-.43c.69-.18,1.38-.26,2-.44,1.73-.34,3.38-.77,5.11-1.12.17,0,.34-.09.52-.09s.17.18.26.26-.18.18-.26.18l-7.62,1.81Z"/><path class="cls-2" d="M136.92,67.44c1,0,1,0,.78,1a1.7,1.7,0,0,0,0,1c0,.26-.09.43-.35.35h-1.29a.23.23,0,0,1-.26-.26V67.87a.4.4,0,0,1,.43-.43Z"/><path class="cls-2" d="M147.48,49.78h-2.25c-.35,0-.43-.08-.43-.43s.08-.43.43-.43h4.15a.66.66,0,0,1,.61.69c0,.17-.17.17-.26.17Z"/><path class="cls-2" d="M141,70.55c.95-.26,1.9-.52,2.77-.78a1,1,0,0,0,.6-.43.87.87,0,0,1,1.13-.43,1,1,0,0,1,.52,1c-.09.6-.69.86-1.39.6-.17-.08-.26-.17-.43-.08A10.17,10.17,0,0,1,141,70.55Z"/><path class="cls-2" d="M208.5,101.1h-1.13c-.26,0-.35-.08-.26-.34.17-.43.26-.87.78-1.13.35-.17.61-.43,1-.6.18-.09.26-.18.35.08a13.83,13.83,0,0,0,.6,1.82c.09.17-.08.26-.17.26A4.75,4.75,0,0,0,208.5,101.1Z"/><path class="cls-2" d="M219.83,101.1h-1c-.26,0-.44-.08-.26-.34a15.15,15.15,0,0,0,.43-1.47c.08-.26.17-.35.43-.18a9.14,9.14,0,0,0,1.21.78c.44.26.44.7.61,1.13.09.17-.09.17-.17.17A5.57,5.57,0,0,0,219.83,101.1Z"/><path class="cls-2" d="M147.22,42.77h2.16c.18,0,.44-.08.44.17s-.09.61-.44.52h-4.24c-.26,0-.6,0-.6-.34s.34-.43.6-.43A16.66,16.66,0,0,0,147.22,42.77Z"/><path class="cls-2" d="M180.8,33.51h-1.21c-.17,0-.43.17-.52-.17a.69.69,0,0,1,.26-.78.31.31,0,0,1,.26-.09,13.16,13.16,0,0,1,2.51,0c.26,0,.43.18.52.52s0,.61-.43.61A6.82,6.82,0,0,0,180.8,33.51Z"/><path class="cls-2" d="M174.83,33.51h-1.47c-.35,0-.43-.17-.35-.43a.76.76,0,0,1,.78-.61h2.08a.87.87,0,0,1,.6.35.51.51,0,0,1,.09.6c-.09.18-.26.09-.43.09Z"/><path class="cls-2" d="M147.05,48.66h-2.17c-.26,0-.52-.09-.52-.26s.18-.44.52-.44h4.33c.43,0,.35.35.43.61s-.17.17-.34.17A21.15,21.15,0,0,0,147.05,48.66Z"/><path class="cls-2" d="M152.5,61.12v2a.16.16,0,1,1-.26.17,1.5,1.5,0,0,1-.61-1.21,3.28,3.28,0,0,1,.52-2.94c.09-.09.18-.26.35-.17s.09.26.09.34A11.23,11.23,0,0,0,152.5,61.12Z"/><path class="cls-2" d="M184.52,31V29.79c0-.43.26-.35.52-.35s.61-.08.61.35v2.6c0,.17-.09.34-.26.26H185c-.26,0-.44-.09-.44-.35Z"/><path class="cls-2" d="M181.93,78c-.18.6-.35,1.12-.52,1.64-.09.17-.18.09-.26,0a8.21,8.21,0,0,0-1.47-.86c-.09-.09-.18-.09-.26-.18-.26-.6-.26-.69.43-.69h1.82C181.75,77.82,181.93,77.74,181.93,78Z"/><path class="cls-2" d="M186.17,91.5c0,.52.26.52.6.52h2.95c.43,0,.51.17.6.52,0,.17,0,.26-.17.26h-4c-.26,0-.26-.18-.26-.35A9.65,9.65,0,0,1,186.17,91.5Z"/><path class="cls-2" d="M185.13,16.63v2.95c.08,2.77.08,5.45.08,8.22,0,.35.09.78.09,1.12,0,.18,0,.35-.26.35s-.26-.17-.17-.35c0-1.12,0-2.25.09-3.28.08-.87,0-1.74,0-2.6,0-2.08.08-4.16.08-6.23a.31.31,0,0,1,.09-.18Z"/><path class="cls-2" d="M189,33h-1.38c-.26,0-.43-.08-.43-.43a.4.4,0,0,1,.43-.43h2.77c.26,0,.43.08.43.34a.41.41,0,0,1-.43.44A7.65,7.65,0,0,1,189,33Z"/><path class="cls-2" d="M139.26,68.56c.43-.86.86-1.64,1.21-2.51a.45.45,0,0,1,.61-.17c.26.09.08.26.08.43a20.8,20.8,0,0,1-.6,2.25c-.09.18-.09.35-.35.18S139.69,68.56,139.26,68.56Z"/><path class="cls-2" d="M141.68,99.37c0,.18,0,.35-.26.18-.69-.26-1.47-.52-2.16-.78-.17-.09-.26-.18-.09-.26h0c.69-1,.69-1,1.47-.17.26.17.52.43.78.6A.47.47,0,0,1,141.68,99.37Z"/><path class="cls-2" d="M190.06,87.43a2.13,2.13,0,0,0-.17,3.89c-.61.26-1.73-.86-1.73-1.64A1.92,1.92,0,0,1,190.06,87.43Z"/><path class="cls-2" d="M169.2,77.82h1.13a.31.31,0,0,1,.26.09c0,.17,0,.17-.17.26-.7.35-1.39.61-2,1-.08.09-.17,0-.17-.08V79c-.52-1.13-.52-1.13.78-1.13Z"/><path class="cls-2" d="M268.39,66.14c-.61.17-1.13.26-1.56-.17-.61-.61-1.21-1-1.82-1.56a.75.75,0,0,1-.17-.61,2.31,2.31,0,0,1,.08-.69A6.35,6.35,0,0,0,268.39,66.14Z"/><path class="cls-2" d="M231.17,101.1h-1c-.08,0-.26.09-.26-.08s.09-.18.18-.26a8,8,0,0,0,2-.87c.08,0,.17-.08.17,0a2.47,2.47,0,0,1,.26,1.13c0,.08-.17.08-.26.08Z"/><path class="cls-2" d="M197.07,101.1h-1.21c-.26-.34.09-.6.17-.95a.22.22,0,0,1,.35-.17,16.68,16.68,0,0,0,1.9.86.19.19,0,0,1,.18.18c0,.08-.18.08-.26.08Z"/><path class="cls-2" d="M190,87.86a.84.84,0,0,1-.08.78,1.6,1.6,0,0,0,0,1.65c0,.08.08.08.08.17a.53.53,0,0,1,0,.52c-.17.09-.25-.17-.34-.26a1.86,1.86,0,0,1,.09-2.77A.34.34,0,0,1,190,87.86Z"/><path class="cls-2" d="M185.13,33.51h-1.39c-.08,0-.26.09-.34-.09s.08-.17.17-.25.26-.18.43-.18h2.34a.65.65,0,0,1,.35.09c.17.09.26.17.17.34s-.17.18-.26.18A7.59,7.59,0,0,0,185.13,33.51Z"/><path class="cls-2" d="M265.1,86.48a.94.94,0,0,1-.69.78,1,1,0,0,1-.7-.7.77.77,0,0,1,.78-.77A.67.67,0,0,1,265.1,86.48Z"/><path class="cls-2" d="M275.05,79.64a.82.82,0,0,1,.69.78c0,.35-.43.78-.78.69a.83.83,0,0,1-.69-.78A.66.66,0,0,1,275.05,79.64Z"/><path class="cls-2" d="M224.51,56.19h2.59c.18,0,.35-.09.35.17s-.17.17-.26.17h-5.28c-.09,0-.26.09-.26-.17s.17-.17.35-.17Z"/><path class="cls-2" d="M230.65,56.45h-2.51c-.17,0-.34.08-.34-.18s.17-.17.34-.17h5.2c.17,0,.34-.09.34.17s-.17.18-.34.18Z"/><path class="cls-2" d="M218.19,57.05h-2.6c-.08,0-.34.09-.34-.17s.17-.17.26-.17h5.28c.08,0,.26-.09.26.17s-.18.17-.35.17Z"/><path class="cls-2" d="M224.42,57.05h-2.51c-.17,0-.35.09-.35-.17s.18-.17.35-.17H227c.17,0,.34-.09.34.17s-.26.17-.34.17Z"/><path class="cls-2" d="M230.65,57.57h-2.51c-.17,0-.34.09-.34-.17s.17-.17.34-.17h5.2c.17,0,.34-.09.34.17s-.17.17-.34.17Z"/><path class="cls-2" d="M267.87,81c-.44,0-.61-.18-.61-.7a.68.68,0,0,1,.69-.69.61.61,0,0,1,.61.69C268.56,80.77,268.39,81,267.87,81Z"/><path class="cls-2" d="M151.81,66.66v-.17c0-.61.08-.7.78-.61.17,0,.17.17.17.26v1.12a.41.41,0,0,1-.52.44c-.35,0-.43-.18-.43-.52Z"/><path class="cls-2" d="M275.66,92.71a.67.67,0,0,1-.7.61.75.75,0,0,1-.69-.7.62.62,0,0,1,.61-.69A1,1,0,0,1,275.66,92.71Z"/><path class="cls-2" d="M243.81,64.41v-.78c0-.26.08-.35.34-.35s.35.09.35.35v1.64a.32.32,0,0,1-.35.35c-.26,0-.34-.09-.34-.35Z"/><path class="cls-2" d="M257,64.41v-.69c0-.26,0-.44.35-.44a.32.32,0,0,1,.34.35v1.56c0,.17,0,.34-.34.34s-.35-.17-.35-.43Z"/><path class="cls-2" d="M178.81,66.66v.6a.41.41,0,0,1-.43.44.42.42,0,0,1-.44-.44v-1c0-.26,0-.34.35-.43.52,0,.52.17.43.52C178.81,66.4,178.81,66.57,178.81,66.66Z"/><path class="cls-2" d="M203.74,39.14H210a1,1,0,0,1,1.12,1.12v.52a.55.55,0,0,1-.43.52c-.26.09-.43-.17-.52-.35s0-.6-.17-.69a2.59,2.59,0,0,0-.78-.08H198.11c-.35,0-.61,0-.61.52,0,.34-.17.6-.51.6s-.52-.26-.52-.6v-.52a1,1,0,0,1,1-1Z"/><path class="cls-2" d="M185.65,59.65h6c1,0,1.47.52,1.38,1.47,0,.35-.17.61-.52.61s-.51-.26-.43-.61-.08-.52-.52-.52H179.94c-.44,0-.61.09-.52.52,0,.26,0,.61-.44.61s-.52-.26-.52-.61c-.08-1,.44-1.47,1.39-1.47Z"/><path class="cls-2" d="M169.2,59.65h5.89a1.34,1.34,0,0,1,1.47,1.64c-.09.26-.17.52-.52.52a.5.5,0,0,1-.52-.52c.09-.6-.17-.6-.69-.6H163.41c-.44,0-.61.08-.61.6,0,.26,0,.52-.35.61s-.52-.17-.6-.43c-.18-1.13.34-1.65,1.3-1.65C165.14,59.65,167.21,59.65,169.2,59.65Z"/><path class="cls-2" d="M165.22,65c-.6-.17-.95-.51-1.47-.69a1.29,1.29,0,0,0-.6-.17H160c-.35,0-.52.09-.43.43v.35c0,.26-.09.26-.35.26a2,2,0,0,1-1.73-1.73A2.1,2.1,0,0,1,159,61.29c.43-.08.61,0,.61.44s.17.6.6.51a22.83,22.83,0,0,1,2.34,0,3,3,0,0,0,2.08-.6c.17-.09.26-.26.43-.17s.09.26.09.43C165.22,63,165.22,64.06,165.22,65Z"/><path class="cls-2" d="M201.83,80.94a8.55,8.55,0,0,1,8.57,8.65,8.65,8.65,0,0,1-8.65,8.49,8.51,8.51,0,0,1-8.4-9A8.37,8.37,0,0,1,201.83,80.94Z"/><path class="cls-2" d="M148.61,80.94a8.53,8.53,0,1,1-.26,17,8.53,8.53,0,1,1,.26-17Z"/><path class="cls-2" d="M183,89.51A8.39,8.39,0,0,1,174.22,98,8.53,8.53,0,1,1,183,89.51Z"/><path class="cls-2" d="M226.41,80.94a8.42,8.42,0,0,1,8.48,8.65,8.57,8.57,0,1,1-17.13-.43C218,84.75,221.74,80.77,226.41,80.94Z"/><path class="cls-2" d="M250.38,80.94a8.54,8.54,0,0,1,8.49,8.65,8.57,8.57,0,1,1-8.49-8.65Z"/><path class="cls-2" d="M133.55,85.18a6.14,6.14,0,0,1-6.49,6.14,6.28,6.28,0,0,1-5.8-6.4,6.15,6.15,0,0,1,12.29.26Z"/><path class="cls-2" d="M265.79,60.69a4.34,4.34,0,0,1,3.64-4.42,4.29,4.29,0,0,1,4.67,2.95c.09.26,0,.34-.17.51s-.7.44-.61.78.43.52.61.7a.72.72,0,0,1,.17.6A4.21,4.21,0,0,1,268,64.06,3.83,3.83,0,0,1,265.79,60.69Z"/><path class="cls-2" d="M266.05,87.86a1.55,1.55,0,0,1,1.64,1.65A1.63,1.63,0,0,1,266,91.24a1.69,1.69,0,1,1,.09-3.38Z"/><path class="cls-2" d="M267.78,83.45a1.56,1.56,0,0,1-1.73,1.64,1.73,1.73,0,0,1,0-3.46A1.71,1.71,0,0,1,267.78,83.45Z"/><path class="cls-2" d="M273.15,80.25A1.74,1.74,0,0,1,271.42,82a1.76,1.76,0,0,1-1.74-1.82,1.79,1.79,0,0,1,1.74-1.73A1.81,1.81,0,0,1,273.15,80.25Z"/><path class="cls-2" d="M273.23,86.48a1.82,1.82,0,1,1-3.63.08,1.72,1.72,0,0,1,1.82-1.81A1.65,1.65,0,0,1,273.23,86.48Z"/><path class="cls-2" d="M203.74,39.48h6.14a1,1,0,0,1,1,1.3c-.08.17-.17.26-.34.26s-.18-.17-.18-.35v-.25c.09-.35-.17-.52-.52-.52H197.68c-.44,0-.52.17-.52.52v.43a.18.18,0,0,1-.35,0,2.28,2.28,0,0,1,0-1,.71.71,0,0,1,.69-.35Z"/><path class="cls-2" d="M185.65,59.91h6c.86,0,1.12.6,1,1.38a.23.23,0,0,1-.26.26c-.17,0-.17-.17-.17-.34-.09-.78-.09-.78-.87-.78H179.68c-.7,0-.7,0-.7.6,0,.18.09.44-.17.44s-.26-.18-.26-.44c-.09-1,.43-1.21,1.13-1.21C181.67,59.91,183.66,59.91,185.65,59.91Z"/><path class="cls-2" d="M176.21,60.86v.26c0,.17-.08.43-.26.43s-.17-.26-.17-.43c0-.61,0-.61-.69-.61H163.23c-.43,0-.6.18-.6.61,0,.17,0,.52-.26.52s-.26-.26-.26-.52c0-.78.26-1,1-1h12C176,59.91,176.21,60.25,176.21,60.86Z"/><path class="cls-2" d="M161.5,63.89h-1.56c-.26,0-.34-.09-.34-.35-.09-.86-.09-.86.86-.86H163c.35,0,.44.08.44.43,0,.87.08.78-.78.78Z"/><path class="cls-2" d="M159.42,63.37v1.38c0,.26-.08.35-.34.26a1.64,1.64,0,0,1-1.21-1.38,1.74,1.74,0,0,1,1.12-1.9c.35-.09.52-.09.52.34A6.32,6.32,0,0,0,159.42,63.37Z"/><path class="cls-2" d="M165,64.67a6.68,6.68,0,0,1-1-.61c-.17-.08-.17-.17-.17-.34v-.61a.58.58,0,0,1,.43-.69c.87-.43.87-.52.87.52v1.64C165,64.58,165,64.58,165,64.67Z"/><path class="cls-2" d="M207.54,95.39c0,.18-.08.18-.17.18a10,10,0,0,1-2.86,1.73c-.34.17-.51.08-.6-.26-.43-1.82-.95-3.55-1.47-5.28-.09-.18,0-.26.17-.35s.43-.43.78-.09c1,1.13,2.25,2.25,3.29,3.29l.6.61C207.46,95.22,207.46,95.31,207.54,95.39Z"/><path class="cls-2" d="M204,88.73c-.35,0-.35-.35-.52-.52s0-.26.17-.35L207.54,84a.33.33,0,0,1,.52,0,8.84,8.84,0,0,1,1.65,2.94c.08.35-.09.35-.26.43-1.56.44-3.12.87-4.68,1.22A2.37,2.37,0,0,0,204,88.73Z"/><path class="cls-2" d="M200.19,88c0,.26-.44.69-.69.61-1.74-.44-3.55-1-5.28-1.39-.35-.09-.35-.17-.26-.43A7.85,7.85,0,0,1,195.51,84c.18-.17.35-.35.61-.09l3.81,3.81C200,87.86,200.1,88,200.19,88Z"/><path class="cls-2" d="M201.05,91.76c-.34,1.12-.6,2.42-1,3.63a12.49,12.49,0,0,0-.43,1.73c-.09.26-.17.35-.43.26a8.28,8.28,0,0,1-3-1.81c-.18-.18-.09-.26,0-.35l4.06-4.07c.18-.17.26-.08.44,0S201.14,91.32,201.05,91.76Z"/><path class="cls-2" d="M201.83,97.73a10.32,10.32,0,0,1-1.64-.17c-.35-.09-.35-.18-.26-.44.34-1.38.69-2.68,1.12-4.06.09-.44.26-.78.35-1.22s.26-.34.52-.34a.47.47,0,0,1,.52.34c.26,1.13.6,2.17.86,3.29.18.61.26,1.21.52,1.91.09.34,0,.52-.34.6C202.87,97.64,202.35,97.73,201.83,97.73Z"/><path class="cls-2" d="M199.67,90.11c.26.09.26.35.34.52s0,.18-.08.26L195.86,95c-.09.09-.17.17-.35,0A8,8,0,0,1,193.78,92c-.08-.26-.08-.44.26-.52L199,90.2A1.61,1.61,0,0,0,199.67,90.11Z"/><path class="cls-2" d="M203.22,87.78a.64.64,0,0,1-.61-.78c.43-1.73.95-3.38,1.39-5.11.08-.34.26-.43.6-.34a11,11,0,0,1,2.77,1.64c.17.17.17.26,0,.52l-3.81,3.81C203.39,87.69,203.3,87.78,203.22,87.78Z"/><path class="cls-2" d="M193.52,89.42a7.59,7.59,0,0,1,.09-1.47c.09-.26.09-.52.52-.35,1.73.52,3.37,1,5.11,1.39.17.08.51,0,.43.26s.17.6-.35.78c-1.73.43-3.55,1-5.28,1.38-.34.09-.34-.17-.43-.34A10.71,10.71,0,0,1,193.52,89.42Z"/><path class="cls-2" d="M201.14,87.34c0,.26-.35.26-.52.44s-.26,0-.43-.09L197.5,85c-.43-.44-.77-.78-1.21-1.21-.17-.18-.26-.26,0-.52a9.78,9.78,0,0,1,3-1.74c.26-.08.26.18.35.26.43,1.56.86,3.12,1.21,4.68C201,86.74,201.05,87,201.14,87.34Z"/><path class="cls-2" d="M210.05,89.42a8.52,8.52,0,0,1-.08,1.47c-.09.35-.18.52-.61.43-1.73-.51-3.46-.95-5.19-1.38-.17-.09-.35-.09-.26-.26s-.26-.61.17-.69c1.82-.44,3.64-.95,5.45-1.47.35-.09.35.17.35.34A3.22,3.22,0,0,1,210.05,89.42Z"/><path class="cls-2" d="M207.8,95.13c-.08-.08-.17-.08-.17-.17-1.3-1.3-2.6-2.68-4-4-.35-.26,0-.43.09-.69s.17-.26.43-.18c1.82.52,3.63,1,5.45,1.47.17.09.26.09.17.26A7.9,7.9,0,0,1,208,95C207.89,95.13,207.8,95.13,207.8,95.13Z"/><path class="cls-2" d="M201.83,87.34c-.26.09-.43,0-.52-.34-.43-1.73-.86-3.46-1.38-5.2-.09-.34,0-.43.34-.51a9.08,9.08,0,0,1,3.12,0c.35.08.43.17.35.51-.52,1.74-1,3.47-1.39,5.2C202.18,87.34,202.09,87.34,201.83,87.34Z"/><path class="cls-2" d="M201.83,87.6a1.78,1.78,0,0,1,1.82,1.82,1.75,1.75,0,0,1-1.9,1.82,1.8,1.8,0,0,1-1.82-1.91A1.83,1.83,0,0,1,201.83,87.6Z"/><path class="cls-2" d="M142.63,83.71c.09.09.18.09.18.17,1.3,1.3,2.59,2.6,4,3.9.34.26-.09.43-.09.69s-.17.26-.43.17c-1.82-.52-3.64-1-5.37-1.47-.17-.09-.26-.09-.17-.35a8.13,8.13,0,0,1,1.73-3A.25.25,0,0,0,142.63,83.71Z"/><path class="cls-2" d="M154.4,95.13l-.17-.17-3.89-3.89c-.35-.35.08-.52.08-.78s.18-.18.35-.18c1.73.52,3.46,1,5.19,1.39.43.08.52.26.35.69a7.68,7.68,0,0,1-1.65,2.68C154.66,95.05,154.58,95.13,154.4,95.13Z"/><path class="cls-2" d="M149.21,87.34c.26-1.12.61-2.16.87-3.2.17-.69.43-1.47.6-2.25.09-.26.18-.34.52-.26a8.48,8.48,0,0,1,2.94,1.73c.18.18.18.26,0,.44-1.38,1.29-2.68,2.68-4,4-.08.08-.17.26-.34.08C149.64,87.52,149.21,87.6,149.21,87.34Z"/><path class="cls-2" d="M150.68,88.73c-.34,0-.34-.35-.52-.52s0-.26.09-.35l4-4c.17-.17.26-.17.43,0a10.2,10.2,0,0,1,1.73,2.94c.09.18.09.35-.17.44-1.82.43-3.63.95-5.36,1.47C150.77,88.64,150.77,88.64,150.68,88.73Z"/><path class="cls-2" d="M146.44,90.11c.26,0,.26.35.43.52s0,.26-.17.44q-1.56,1.55-3.11,3.11l-.78.78c-.18.17-.26.17-.44,0a9.62,9.62,0,0,1-1.64-2.86c-.09-.26-.09-.43.17-.43,1.73-.43,3.55-1,5.28-1.38C146.18,90.2,146.27,90.2,146.44,90.11Z"/><path class="cls-2" d="M156.83,89.42a5.07,5.07,0,0,1-.18,1.64c-.08.26-.17.35-.43.26-1.73-.51-3.55-.95-5.28-1.47-.34-.08-.34-.26-.34-.52s0-.43.34-.52c1-.26,2.17-.6,3.29-.86a19.4,19.4,0,0,0,2.16-.61c.18-.08.26-.08.35.18A16.72,16.72,0,0,1,156.83,89.42Z"/><path class="cls-2" d="M148.52,97.73a6.61,6.61,0,0,1-1.82-.17c-.17,0-.26-.09-.17-.26.52-1.73.95-3.55,1.38-5.28.09-.26.18-.52.61-.52s.43.26.52.52c.43,1.73,1,3.46,1.38,5.19.09.26,0,.35-.26.35A5.14,5.14,0,0,1,148.52,97.73Z"/><path class="cls-2" d="M146.44,89.42c.09.26-.08.43-.34.52-1.74.43-3.47.87-5.2,1.38-.34.09-.43,0-.52-.34a10.1,10.1,0,0,1,0-3.2c.09-.26.18-.35.44-.26,1.73.52,3.54,1,5.28,1.38C146.44,89,146.44,89.16,146.44,89.42Z"/><path class="cls-2" d="M147.13,91.07a.68.68,0,0,1,.61.77c-.43,1.73-1,3.38-1.38,5.11-.09.35-.26.35-.61.26a7.63,7.63,0,0,1-2.68-1.56c-.26-.17-.26-.34,0-.6l3.8-3.81C147,91.15,147.05,91.07,147.13,91.07Z"/><path class="cls-2" d="M147.83,87.26c0,.34-.26.34-.44.43s-.26,0-.43-.09l-3.2-3.2-.43-.43c-.52-.52-.52-.52,0-1A8.9,8.9,0,0,1,146,81.54c.17-.08.35-.08.35.18.43,1.82.95,3.55,1.47,5.36Z"/><path class="cls-2" d="M148.61,81a10.07,10.07,0,0,0,1.55.17c.26,0,.35.17.26.43-.52,1.73-.95,3.55-1.38,5.28-.09.35-.26.35-.52.35a.48.48,0,0,1-.52-.35c-.35-1.3-.69-2.6-1-3.89a9.13,9.13,0,0,1-.35-1.39c-.08-.26,0-.34.26-.34C147.39,81.2,148,81.11,148.61,81Z"/><path class="cls-2" d="M150,91.07a2.34,2.34,0,0,1,.17.17l3.9,3.89a.33.33,0,0,1,0,.52,8,8,0,0,1-2.86,1.65c-.26.08-.34,0-.43-.18-.52-1.81-1-3.63-1.47-5.36C149.21,91.5,149.64,91.15,150,91.07Z"/><path class="cls-2" d="M148.52,87.6a1.91,1.91,0,0,1,1.82,1.91,1.88,1.88,0,0,1-1.82,1.81,1.86,1.86,0,0,1,0-3.72Z"/><path class="cls-2" d="M175.09,87.26c.17-.78.43-1.56.6-2.34.26-1,.61-2.08.78-3.12.09-.17.09-.34.35-.26a9,9,0,0,1,2.94,1.65c.26.17.26.35,0,.6-1.3,1.3-2.59,2.51-3.81,3.81-.08.09-.17.26-.43.09C175.44,87.52,175.09,87.6,175.09,87.26Z"/><path class="cls-2" d="M173.7,91.5c-.34,1.21-.6,2.33-.95,3.46a18.68,18.68,0,0,1-.6,2.08c-.09.26-.18.26-.44.17a7.54,7.54,0,0,1-2.85-1.73.32.32,0,0,1,0-.52c1.3-1.3,2.59-2.6,3.81-3.81.08-.09.17-.34.43-.17C173.27,91.32,173.7,91.24,173.7,91.5Z"/><path class="cls-2" d="M173.7,87.34c-.08.26-.43.26-.6.52s-.17-.08-.26-.17l-4-4c-.18-.17-.18-.26,0-.43a11.67,11.67,0,0,1,2.85-1.73c.26-.09.44-.18.52.17.44,1.82,1,3.63,1.47,5.36Z"/><path class="cls-2" d="M176.91,97.3a.45.45,0,0,1-.35-.18c-.52-1.81-.95-3.63-1.47-5.36-.17-.44.35-.44.52-.61s.26,0,.34.09l3.9,3.89c.17.18.26.26.09.44a7.71,7.71,0,0,1-3,1.73Z"/><path class="cls-2" d="M166.09,89.42a5.66,5.66,0,0,1,.17-1.73c0-.17.09-.26.26-.17,1.82.52,3.64,1,5.45,1.47.35.08.26.34.35.6s-.09.35-.35.44c-1.73.43-3.55,1-5.28,1.38-.26.09-.34,0-.43-.26A12.32,12.32,0,0,1,166.09,89.42Z"/><path class="cls-2" d="M174.4,97.73a5.17,5.17,0,0,1-1.65-.17c-.26-.09-.26-.18-.17-.35.52-1.82.95-3.63,1.47-5.37.09-.34.35-.26.52-.26s.43.09.43.35c.26,1,.61,2.16.87,3.29a19.33,19.33,0,0,0,.6,2.16c.09.18,0,.26-.17.35A13.32,13.32,0,0,0,174.4,97.73Z"/><path class="cls-2" d="M182.79,89.42a13.06,13.06,0,0,0-.17,1.64c0,.26-.17.35-.43.26-1.74-.51-3.55-.95-5.28-1.47-.35-.08-.26-.26-.26-.52a.47.47,0,0,1,.34-.52c.95-.26,1.91-.51,2.77-.77s1.56-.44,2.43-.61c.34-.09.52,0,.52.35A5.2,5.2,0,0,0,182.79,89.42Z"/><path class="cls-2" d="M176.65,90.2l3,.78c.77.17,1.55.43,2.33.6.35.09.44.18.26.61A9.76,9.76,0,0,1,180.63,95c-.18.17-.26.17-.43,0l-4-4c-.17-.17-.26-.26-.08-.43S176.3,90.11,176.65,90.2Z"/><path class="cls-2" d="M168.42,83.71c.18,0,.18.09.26.17l3.9,3.9a.33.33,0,0,1,0,.52c-.17.17-.17.43-.52.26-1.73-.52-3.55-1-5.28-1.48-.26-.08-.35-.17-.26-.43a10.91,10.91,0,0,1,1.65-2.94A.15.15,0,0,0,168.42,83.71Z"/><path class="cls-2" d="M176.65,88.73c-.35.09-.26-.26-.44-.43s-.08-.26,0-.44c1.39-1.3,2.69-2.68,4-4,.17-.17.17-.08.34,0A8,8,0,0,1,182.36,87c.09.17,0,.17-.17.26-1.82.43-3.64.95-5.54,1.47Z"/><path class="cls-2" d="M174.4,81a12.51,12.51,0,0,0,1.73.17c.26,0,.26.26.17.43-.35,1.21-.69,2.51-1,3.72a8.9,8.9,0,0,0-.34,1.47c-.09.35-.26.35-.61.35s-.35-.09-.43-.35c-.44-1.73-.87-3.46-1.39-5.19-.08-.34,0-.43.35-.52A4.82,4.82,0,0,0,174.4,81Z"/><path class="cls-2" d="M172.75,90.72c0,.17-.08.17-.17.26l-3.9,3.89c-.17.18-.26.18-.51,0A7.9,7.9,0,0,1,166.52,92c-.09-.26,0-.35.26-.44,1.73-.43,3.46-1,5.19-1.38A.69.69,0,0,1,172.75,90.72Z"/><path class="cls-2" d="M172.58,89.42c-.17-1,1-1.82,1.82-1.82a2,2,0,0,1,1.81,1.91,1.9,1.9,0,0,1-1.9,1.81A1.82,1.82,0,0,1,172.58,89.42Z"/><path class="cls-2" d="M228.49,90.11l1.9.52c1.13.35,2.34.61,3.55,1,.35.09.43.18.26.61A8.21,8.21,0,0,1,232.56,95c-.18.17-.26.17-.52,0l-3.9-3.89c-.08-.09-.26-.18-.17-.35C228.23,90.55,228.23,90.2,228.49,90.11Z"/><path class="cls-2" d="M224.77,88a.7.7,0,0,1-.78.61c-1.73-.44-3.55-1-5.28-1.39-.17-.09-.26-.09-.17-.35a7.76,7.76,0,0,1,1.73-2.94.33.33,0,0,1,.52,0l3.89,3.9A.31.31,0,0,0,224.77,88Z"/><path class="cls-2" d="M228.57,88.73c-.34,0-.25-.35-.51-.52s0-.26.08-.35c1.3-1.3,2.69-2.68,4-4a.33.33,0,0,1,.52,0,9.44,9.44,0,0,1,1.65,2.86c.08.17.17.34-.18.43-1.81.52-3.63,1-5.54,1.56Z"/><path class="cls-2" d="M232.12,83.45c-.08.09-.08.17-.17.17-1.3,1.3-2.68,2.69-4,4-.09.09-.17.26-.35.09s-.6-.09-.52-.61c.35-1.21.7-2.51,1-3.72.18-.52.26-1,.43-1.56.09-.25.18-.34.44-.25A7.76,7.76,0,0,1,232,83.28.18.18,0,0,1,232.12,83.45Z"/><path class="cls-2" d="M224.77,90.81l-.18.17c-1.29,1.3-2.68,2.68-4,4-.17.17-.26.17-.43,0a11.19,11.19,0,0,1-1.64-2.77c-.18-.52-.18-.52.34-.69,1.65-.43,3.29-.87,4.93-1.39C224.25,90.11,224.77,90.46,224.77,90.81Z"/><path class="cls-2" d="M226.41,97.73a6.65,6.65,0,0,1-1.82-.17c-.17,0-.26-.09-.17-.26.52-1.82,1-3.64,1.47-5.37.09-.35.26-.35.61-.35s.43.18.52.44c.43,1.73.86,3.46,1.38,5.19.09.35,0,.43-.34.52Z"/><path class="cls-2" d="M234.72,89.42a5.08,5.08,0,0,1-.17,1.64c-.09.26-.18.35-.44.26-1.73-.51-3.46-.95-5.28-1.38-.34-.09-.34-.35-.34-.61s.17-.34.43-.43c1.73-.43,3.46-1,5.19-1.38.35-.09.52,0,.61.34A9,9,0,0,0,234.72,89.42Z"/><path class="cls-2" d="M225,91.07a.63.63,0,0,1,.6.77c-.43,1.65-.86,3.29-1.3,4.94-.17.6-.17.6-.77.34a7.85,7.85,0,0,1-2.6-1.55c-.17-.18-.26-.26-.09-.52l4-4C224.85,91.15,224.94,91.07,225,91.07Z"/><path class="cls-2" d="M224.25,89.42c.08.26-.09.43-.35.52-1.73.43-3.46.87-5.19,1.38-.35.09-.43,0-.52-.34a10.1,10.1,0,0,1,0-3.2c.09-.26.17-.44.52-.35,1.73.52,3.55.95,5.28,1.39C224.33,89,224.33,89.16,224.25,89.42Z"/><path class="cls-2" d="M225.72,87.26c0,.17-.17.26-.35.34s-.26.18-.52,0c-1.29-1.38-2.68-2.68-4-4-.17-.17-.08-.17,0-.34A8,8,0,0,1,224,81.46c.17-.09.17,0,.26.17.52,1.82.95,3.64,1.47,5.45Z"/><path class="cls-2" d="M226.5,81a10.34,10.34,0,0,0,1.56.17c.26,0,.34.17.26.43-.52,1.73-1,3.55-1.39,5.28-.09.35-.35.26-.52.26a.48.48,0,0,1-.52-.35c-.34-1.47-.78-2.85-1.12-4.32l-.26-1a.22.22,0,0,1,.17-.35A6.55,6.55,0,0,0,226.5,81Z"/><path class="cls-2" d="M228.83,97.3a.28.28,0,0,1-.26-.26c-.51-1.82-.95-3.64-1.47-5.37-.08-.26,0-.35.18-.35s.34-.43.6-.08l4,4c.18.17.18.26,0,.35a7.14,7.14,0,0,1-3,1.73Z"/><path class="cls-2" d="M224.59,89.33a1.87,1.87,0,0,1,3.73.09,1.92,1.92,0,0,1-1.91,1.82A1.8,1.8,0,0,1,224.59,89.33Z"/><path class="cls-2" d="M251.86,91.07c.08.08.17.08.17.17l3.89,3.89c.18.18.26.26,0,.52a11.35,11.35,0,0,1-2.77,1.65c-.34.17-.51.08-.6-.26-.43-1.73-1-3.38-1.39-5.11A.79.79,0,0,1,251.86,91.07Z"/><path class="cls-2" d="M252.55,88.73c-.26,0-.26-.26-.35-.43a.43.43,0,0,1,0-.44c1.3-1.38,2.6-2.68,3.9-4,.17-.17.26-.17.43,0A8.11,8.11,0,0,1,258.35,87c.08.17,0,.17-.18.26-1.81.52-3.63.95-5.54,1.47Z"/><path class="cls-2" d="M249.69,91.5c-.17.6-.26,1.12-.43,1.73-.35,1.21-.69,2.42-.95,3.63-.09.35-.26.52-.61.35a8.21,8.21,0,0,1-2.77-1.64c-.17-.18-.26-.26,0-.52l3.9-3.9c.08-.09.17-.26.34-.17C249.26,91.24,249.61,91.24,249.69,91.5Z"/><path class="cls-2" d="M248.74,88c0,.26-.52.69-.69.6-1.73-.43-3.46-1-5.28-1.38-.35-.09-.35-.18-.26-.44A9.57,9.57,0,0,1,244.15,84c.18-.26.35-.26.61,0l3.89,3.89A.31.31,0,0,1,248.74,88Z"/><path class="cls-2" d="M249.69,87.26c-.08.26-.34.26-.52.43s-.26,0-.43-.09L246.14,85l-1.29-1.3c-.18-.17-.18-.26,0-.43a8.15,8.15,0,0,1,3-1.74c.26-.08.35.09.35.26.35,1.3.69,2.69,1,4C249.43,86.31,249.52,86.74,249.69,87.26Z"/><path class="cls-2" d="M250.38,97.73a4.52,4.52,0,0,1-1.55-.09c-.35-.08-.44-.17-.35-.6.35-1.39.78-2.77,1.13-4.16l.26-1c.08-.34.17-.34.51-.34s.44,0,.52.34c.44,1.73.87,3.47,1.39,5.2.09.34,0,.52-.35.6C251.42,97.64,250.9,97.73,250.38,97.73Z"/><path class="cls-2" d="M242.08,89.42a5.69,5.69,0,0,1,.17-1.73c.09-.17.09-.26.35-.17,1.81.52,3.63,1,5.36,1.47.09,0,.43,0,.26.26s.26.6-.26.78c-1.82.43-3.55,1-5.28,1.38-.43.09-.43-.17-.43-.34A5.75,5.75,0,0,1,242.08,89.42Z"/><path class="cls-2" d="M251.16,87.17c.26-1,.61-2.16.87-3.29.17-.69.43-1.47.61-2.25.08-.17.17-.26.34-.17a8.7,8.7,0,0,1,3,1.73c.17.17.17.26,0,.52l-3.89,3.89a.51.51,0,0,1-.61.09C251.34,87.52,251.08,87.43,251.16,87.17Z"/><path class="cls-2" d="M258.69,89.51a8.52,8.52,0,0,1-.08,1.47c-.09.26-.18.43-.52.34-1.73-.51-3.46-.95-5.2-1.38-.25-.09-.25-.26-.25-.43s-.09-.44.25-.52c1.82-.52,3.64-.95,5.46-1.47.34-.09.26.17.34.34Z"/><path class="cls-2" d="M244.5,95.13c-.17,0-.26-.17-.35-.17a8.45,8.45,0,0,1-1.64-2.86c-.17-.34.09-.34.35-.43,1.64-.43,3.2-.86,4.84-1.3.09,0,.17-.08.26-.08s.43-.26.61.08.34.44,0,.78c-1.3,1.21-2.51,2.42-3.72,3.64Z"/><path class="cls-2" d="M258.35,91.84a6.53,6.53,0,0,1-1,2.08,12.34,12.34,0,0,0-.87,1.13c-.17.17-.26.17-.35,0L252.12,91c-.09-.09-.26-.17-.09-.26s.09-.61.52-.52c1.82.52,3.63,1,5.45,1.47C258.17,91.67,258.43,91.67,258.35,91.84Z"/><path class="cls-2" d="M250.38,81a12.81,12.81,0,0,0,1.74.17c.26,0,.26.26.17.43-.35,1.3-.69,2.68-1,4-.09.35-.17.78-.26,1.13s-.17.52-.52.43-.52-.09-.6-.43c-.35-1.47-.78-2.86-1.13-4.33-.09-.26-.17-.61-.26-.86a.36.36,0,0,1,.26-.52A3.63,3.63,0,0,0,250.38,81Z"/><path class="cls-2" d="M250.47,87.6a1.78,1.78,0,0,1,1.82,1.82,1.8,1.8,0,0,1-1.91,1.82,1.77,1.77,0,0,1-1.81-1.82A1.8,1.8,0,0,1,250.47,87.6Z"/><path class="cls-2" d="M129.22,85.18a1.84,1.84,0,0,1-1.82,1.9,2,2,0,0,1-1.9-1.81,2,2,0,0,1,1.9-1.91A1.9,1.9,0,0,1,129.22,85.18Z"/><path class="cls-2" d="M128.09,82.84c.18-.78.44-1.64.7-2.51s.26-1,1.12-.52a5.79,5.79,0,0,1,1.3.87c.17.17.17.26,0,.43-.78.69-1.47,1.47-2.25,2.25-.09.09-.17.26-.35.09S128.09,83.36,128.09,82.84Z"/><path class="cls-2" d="M121.52,85.18a5.38,5.38,0,0,1,.08-1.13c.09-.17.09-.25.26-.17,1,.26,2.17.61,3.2.87.35.08.18.26.18.43s.08.43-.18.52c-1,.26-2.16.52-3.2.86-.26.09-.26,0-.34-.17Z"/><path class="cls-2" d="M125.24,84.49c-1.13-.26-2.17-.61-3.29-.87-.17-.08-.17-.17-.17-.34a6.36,6.36,0,0,1,1.12-2c.09-.18.17-.18.35,0,.78.77,1.56,1.55,2.33,2.33.09.09.18.18.09.35S125.58,84.49,125.24,84.49Z"/><path class="cls-2" d="M133.29,85.18a4.93,4.93,0,0,0-.18,1.13c-.08.17-.08.25-.34.17-1-.26-2.17-.61-3.2-.87-.09,0-.18,0-.18-.17a1.38,1.38,0,0,0,0-.61c0-.26.26-.17.43-.26,1-.26,1.91-.52,3-.77.26-.09.26.08.34.17C133.29,84.4,133.11,84.83,133.29,85.18Z"/><path class="cls-2" d="M129.48,84.49c-.26-.09-.17-.35-.35-.52a.17.17,0,0,1,0-.26l2.34-2.34c.17-.17.26-.08.43.09a4.34,4.34,0,0,1,1,2c.09.17,0,.17-.17.26-1,.17-2.08.52-3.29.78Z"/><path class="cls-2" d="M127.49,91.07a6.32,6.32,0,0,1-1.3-.09c-.17-.09-.17-.09-.17-.26.26-1,.6-2.08.86-3.2.09-.18.09-.35.26-.18s.61-.26.69.26c.18,1,.52,2,.78,3,.09.26.09.35-.26.44A2.76,2.76,0,0,0,127.49,91.07Z"/><path class="cls-2" d="M126,83.54c-.09,0-.09-.09-.18-.18-.78-.78-1.47-1.56-2.33-2.33-.18-.18-.18-.26,0-.44a6,6,0,0,1,1.9-1c.17-.08.26-.08.35.18.26,1,.52,2,.78,3A.59.59,0,0,1,126,83.54Z"/><path class="cls-2" d="M127.4,83.1c-.34.09-.43-.08-.52-.43a14.2,14.2,0,0,0-.78-2.77c-.08-.35,0-.52.35-.61a8.27,8.27,0,0,1,2,0c.17,0,.26.09.17.26-.26,1-.6,2.17-.86,3.21C127.75,83.19,127.57,83.1,127.4,83.1Z"/><path class="cls-2" d="M126,86.82a.69.69,0,0,1,.6.78c-.26,1-.52,1.91-.78,3-.08.26-.17.26-.34.17a6.25,6.25,0,0,1-1.91-1.13c-.17-.08-.17-.17-.08-.34l2.42-2.43Z"/><path class="cls-2" d="M129.65,86c1,.26,2.17.52,3.2.86.18.09.18.18.09.26a5.07,5.07,0,0,1-1,1.91c-.17.17-.26.17-.52,0l-2.16-2.17c-.09-.08-.35-.17-.17-.34S129.22,85.87,129.65,86Z"/><path class="cls-2" d="M125.76,86.56a.19.19,0,0,1-.18.18c-.69.78-1.47,1.47-2.25,2.25a.33.33,0,0,1-.52,0,6.33,6.33,0,0,1-1-1.82c-.18-.35,0-.43.26-.52.95-.17,1.81-.52,2.77-.69.17-.09.34-.17.43-.09A1.43,1.43,0,0,1,125.76,86.56Z"/><path class="cls-2" d="M128.09,87.34c0-.26.35-.26.61-.52s.26.09.35.18a27,27,0,0,1,2.16,2.25c.17.17.17.34,0,.43a5.92,5.92,0,0,1-1.9,1c-.18,0-.26.09-.35-.09-.26-1-.61-2.07-.87-3.2Z"/><path class="cls-2" d="M270,64.58a4,4,0,0,1-3.63-5.71,3.78,3.78,0,0,1,3.8-2.34,3.93,3.93,0,0,1,3.47,2.34.59.59,0,0,1-.18.86c-.78.7-.78.78,0,1.48a.69.69,0,0,1,.18.95A3.88,3.88,0,0,1,270,64.58Z"/><path class="cls-2" d="M264.58,89.51A1.45,1.45,0,0,1,266.05,88a1.38,1.38,0,0,1,1.47,1.55.74.74,0,0,1-.26.52l-.43.44c-.61.69-.95.6-1.47.34A1.42,1.42,0,0,1,264.58,89.51Z"/><path class="cls-2" d="M266.14,84.83a1.32,1.32,0,0,1-1.47-1.47,1.46,1.46,0,0,1,1.47-1.47,1.57,1.57,0,0,1,1.55,1.47C267.61,84.05,266.83,84.92,266.14,84.83Z"/><path class="cls-2" d="M148.26,102.75c-1-1-2.34-.61-3.55-1-.26-.09-.52-.09-.78-.17a.76.76,0,0,0-.6.08,1,1,0,0,1-1.39-.34.47.47,0,0,0-.43-.26c-1.13-.35-2.25-.69-3.38-1.13a.58.58,0,0,0-.52,0,1,1,0,0,1-1.21-.43.88.88,0,0,0-.43-.35,24.37,24.37,0,0,1-3.12-1.47.42.42,0,0,0-.43,0,1,1,0,0,1-1.3-.6.56.56,0,0,0-.43-.44c-1-.43-2-.86-3-1.38a1.39,1.39,0,0,0-.6-.09.87.87,0,0,1-1-.52.75.75,0,0,0-.44-.43,21.91,21.91,0,0,1-3-1.82c-.17-.08-.25-.17-.43-.08a1.25,1.25,0,0,1-1.3-1.13.65.65,0,0,0-.17-.43,8.13,8.13,0,0,1-1.9-3.64.78.78,0,0,0-.26-.52,1,1,0,0,1-.18-1.21,3.54,3.54,0,0,0,.44-1.55c.17-.7.17-.7-.52-.87-1.21-.35-2.51-.61-3.72-1-.18-.09-.26-.09-.18-.35a15,15,0,0,1,6-8.65,14,14,0,0,1,7.53-2.25h11.08c-.17-.26-.34-.35-.43-.61s-.17-.17-.35-.17h-2.51c-.26,0-.34-.09-.34-.35s.17-.69-.09-.95-.61-.09-.95-.09h-1.39c-.34,0-.43-.08-.43-.43s.09-.43.43-.43h2.08c.17,0,.35,0,.43-.26s.35-.44.7-.44h1.55a.41.41,0,0,0,.44-.25A7,7,0,0,1,139.78,64a2,2,0,0,1,.86-.61c.26-.09.44-.09.44.35a6.21,6.21,0,0,1-.44,1.73c.52.17.7-.09.78-.52.18-.61.35-1.3.52-1.91a1.74,1.74,0,0,1,1.91-1.47h6.75c.34,0,.43-.08.43-.43a3.39,3.39,0,0,1,.35-1.82,1.54,1.54,0,0,1,1.9-.95,4.25,4.25,0,0,1,2.77,1.9c.09.18.17.18.34.09,1-.61,2-1.21,3-1.9,0,0,0-.09-.08-.09-.52.09-.61-.17-.61-.61a5.08,5.08,0,0,0-.43-1.9,1.64,1.64,0,0,0-.78-.78c-.17-.09-.43-.17-.35-.43s-.17-.17-.26-.17a8.57,8.57,0,0,1-6.57-4.25.57.57,0,0,0-.52-.17h-4.94a1.93,1.93,0,0,1-2.16-1.64c-.09-.26-.17-.26-.43-.26-3.72,0-7.45-.09-11.17-.09-15.32-.17-30.55-.26-45.78-.34-8.4-.09-16.79-.18-25.1-.18V43.9h5.45l39-.26,35.83-.26h1.64a.39.39,0,0,0,.43-.26,1.92,1.92,0,0,1,2.08-1.56H150a.82.82,0,0,0,.61-.26,8.27,8.27,0,0,1,5.79-3.72c.26-.09.52,0,.44-.43s.26-.52.6-.61c1.65-.35,3.38-.78,5-1.12.78-.18,1.47-.35,2.25-.52.44-.09.7,0,.87.43.09.17.17.17.34.17l3.47-.78c.17-.08.34-.08.52-.34a1,1,0,0,1,1-.61h1.48c.17,0,.34,0,.34-.26,0-.78.35-1,1-1h1.9c.78,0,1,.35,1,1a.23.23,0,0,0,.26.26h1.39a.23.23,0,0,0,.26-.26c.08-.86.34-1,1.21-1.12h1.82a1,1,0,0,1,1.12,1c0,.09-.08.26.09.26s.08-.17.17-.26a.92.92,0,0,1,.78-.6c.26,0,.35-.09.35-.35V29.79c0-.17-.09-.35.17-.43s.09-.26.09-.35c.08-3.46.08-6.84.17-10.3v-2c0-.26,0-.34.35-.34s.26.17.26.34c.08,4.07.17,8.05.17,12.12,0,.17-.17.52.26.6.08,0,.08.18.08.35v2.6c0,.34,0,.52.44.43a.82.82,0,0,1,.6.17,1,1,0,0,1,.26-.86c.18-.09.09-.18.09-.35V30.31c0-1.13.35-1.56,1.47-1.56h17.14c1,0,1.47.43,1.47,1.47v1.65a7.31,7.31,0,0,1,2.59-1,10.53,10.53,0,0,1,6.32.52,3.2,3.2,0,0,1,2.17,2.16c.08.17.17.09.26.09h2.07a1.18,1.18,0,0,1,1.13.6c.08.18.17.18.26.18a1.36,1.36,0,0,1,1.12,1.29c.26,1.82.52,3.64.78,5.54l.78,5.72c.26,1.73.52,3.54.69,5.28A2.15,2.15,0,0,1,223,54.63h-8.57a.18.18,0,0,0-.17.17c0,.09,0,.17.08.17h11.52c.43,0,.51-.08.51-.51V53.07a1,1,0,0,1,1.13-1h12.38c.69,0,1,.43,1.12,1.13,0,.86,0,.86.87.86h7.53a.47.47,0,0,0,.52-.26.8.8,0,0,1,1.38,0c.17.26.26.26.52.26h12.38c.34,0,.52.09.52.52v3.64c.17,0,.17-.18.17-.18a5.8,5.8,0,0,1,10.9,3.21,5.25,5.25,0,0,1-2.68,4.32c-.43.26-.35.35-.09.61l2.77,2.77c.35.26.44.52-.08.78a3.46,3.46,0,0,0,1.21.43c.26.09.34.17.34.43v1.91c0,.34-.08.52-.43.43h-.26c2.34,1.3,4.5,2.6,6.58,3.81-.61.69-1.21,1.3-1.9,2a13.2,13.2,0,0,0-1.13,1.12c-.26.26-.43.26-.69,0-.09-.17-.18-.43-.52-.17s-.09.78.35,1a1.22,1.22,0,0,1,1,1.47c0,.09.08.26.08.35a10.76,10.76,0,0,1,1,4,.63.63,0,0,0,.17.43,1.34,1.34,0,0,1-.09,1.39.78.78,0,0,0-.26.6,11.09,11.09,0,0,1-1.56,3.47.72.72,0,0,0-.17.6,1.11,1.11,0,0,1-1,1,1.87,1.87,0,0,0-.61.26,7.94,7.94,0,0,1-3.46,1.9.68.68,0,0,0-.34.35,1,1,0,0,1-1.3.35.72.72,0,0,0-.61,0c-1,.34-2,.69-2.94,1a1.72,1.72,0,0,0-.52.34,1,1,0,0,1-1.21.43.81.81,0,0,0-.61,0l-2.85,1a1.36,1.36,0,0,0-.87.52.78.78,0,0,1-1,.26.78.78,0,0,0-.6,0c-1,.35-2.08.61-3.12,1a2,2,0,0,0-.52.35,1.06,1.06,0,0,1-1.56.35.43.43,0,0,0-.34-.18,13.27,13.27,0,0,1-3.2.18,2,2,0,0,0-1.3.6h-.61a3.68,3.68,0,0,0-2.51-.43,4.21,4.21,0,0,0-2.51.43h-.6c-.18-.08-.44-.08-.61-.26a.75.75,0,0,0-.61-.17,13.21,13.21,0,0,1-2.59.09,7.07,7.07,0,0,0-1.39.34h-.6a8.56,8.56,0,0,0-5.11,0h-.61a5,5,0,0,0-2.94-.26c-.17,0-.43.09-.6,0a3.48,3.48,0,0,0-1.65.26h-.6a4.06,4.06,0,0,0-1.39-.26h-2.34a3.49,3.49,0,0,0-1.29.26h-.61a4,4,0,0,0-1.38-.26h-2.34a3.7,3.7,0,0,0-1.39.26h-.6a4,4,0,0,0-1.39-.26h-2.25a3.61,3.61,0,0,0-1.38.26h-.61a3.5,3.5,0,0,0-1.3-.26h-2.42a3.61,3.61,0,0,0-1.38.26h-.61a10.2,10.2,0,0,0-3.2-.26,4.86,4.86,0,0,0-1.91.26h-.6a13.33,13.33,0,0,0-5.19,0h-.61a6.43,6.43,0,0,0-2.25-.34h-1.13a3.35,3.35,0,0,0-1.81.34h-.61a3.94,3.94,0,0,0-2-.34h-1.3a3.44,3.44,0,0,0-1.81.34h-.61a8.27,8.27,0,0,0-5,0h-.61a8.53,8.53,0,0,0-5.1,0h-.61a3.46,3.46,0,0,0-1.82-.34h-1.21a4,4,0,0,0-2,.34h-.6c-1.39-.6-2.86-.26-4.33-.26-.35,0-.61.26-.95.26h-.61a8.56,8.56,0,0,0-5.11,0h-.6a4,4,0,0,0-1.39-.26h-2a3.84,3.84,0,0,0-1.73.26C148.69,102.75,148.43,102.75,148.26,102.75Zm30-1.65h3.38a.83.83,0,0,0,.43-.08,1,1,0,0,1,1.47,0c.26.17.43.17.52-.18a22.23,22.23,0,0,1,.69-2.25c.18-.6.43-.86.87-.86s.69.26.95.86c.26.78.43,1.48.69,2.25.09.35.26.44.61.18a.94.94,0,0,1,1.12-.18,2.36,2.36,0,0,0,1.3.26H193c.18,0,.26.09.44-.08a1.09,1.09,0,0,1,1.55,0c.26.17.44.17.52-.18s.09-.51.18-.77,0-.44-.18-.61a11.37,11.37,0,0,1-4.84-6.14.48.48,0,0,0-.52-.35H186.6c-.52,0-.87.09-.95.6,0,.18-.18.35-.18.52a11.77,11.77,0,0,1-7.53,6.67C177.86,101.1,178,101.1,178.29,101.1Zm-15.14-7.78c-.09-.26-.18-.26-.44-.26H160.2a.47.47,0,0,0-.52.34,11.89,11.89,0,0,1-6.4,7c-.17.09-.35,0-.26.26s0,.35.17.43.26,0,.44-.17a1.06,1.06,0,0,1,1.38,0,.86.86,0,0,0,.43.17h3.38a.48.48,0,0,0,.43-.17,1.19,1.19,0,0,1,1.47,0c.26.17.43.17.61-.17a21.47,21.47,0,0,1,.69-2.25c.17-.61.43-.87.87-.87s.69.26,1,.87.43,1.47.69,2.25c.17.43.17.43.61.17a1.06,1.06,0,0,1,1.38,0,.86.86,0,0,0,.43.17h3.38a.52.52,0,0,0,.52-.26A12.29,12.29,0,0,1,163.15,93.32ZM213.52,93c-.26,0-.35.09-.44.35a11.73,11.73,0,0,1-3.37,5c-.18.17-.26.25-.18.51.18.61.35,1.22.52,1.74s.18.51.7.26a.91.91,0,0,1,1.12-.09A1.81,1.81,0,0,0,213,101h2.85a.63.63,0,0,0,.52-.17,1.05,1.05,0,0,1,1.39,0c.34.25.43.17.6-.18.18-.6.35-1.12.52-1.64a.54.54,0,0,0-.17-.61,10.74,10.74,0,0,1-3.2-4.59c-.35-.77-.35-.77-1.22-.77A2.8,2.8,0,0,0,213.52,93Zm28.3,4.67a11.31,11.31,0,0,1-2.43-3.89c-.26-.69-.26-.69-1-.78-.34,0-.51.09-.69.52A12,12,0,0,1,233.51,99c-.87.69-.87.6-.61,1.73.18.34.26.43.61.17a1.06,1.06,0,0,1,1.38,0c.18.09.26.17.44.17h3.37a.83.83,0,0,0,.43-.08c.52-.43.87-.43,1.48,0,.25.17.43.17.51-.18.18-.77.44-1.55.7-2.33.08-.17.17-.43.26-.61Zm27.61-2.51a8.46,8.46,0,0,1-4.16-2.25c-.09-.08-.17-.34-.35-.17a.82.82,0,0,1-.6.17h-2.16a.47.47,0,0,0-.52.35,11.88,11.88,0,0,1-5.8,6.66c-.09.09-.35.09-.26.26s.08.44.26.52.26-.08.43-.17a1.11,1.11,0,0,1,1.21-.35.75.75,0,0,0,.43.09c1-.35,2.17-.78,3.29-1.13.18-.08.26-.08.35-.17a1,1,0,0,1,1.38-.52c.35.09.44,0,.44-.34a20.34,20.34,0,0,1-.09-2.34c0-.69.17-.95.61-1.13s.78,0,1.21.52L266.4,97c.26.43.34.35.6,0a1.07,1.07,0,0,1,1.3-.43c.17,0,.26.08.43.08,1-.34,2.17-.77,3.29-1.12A11.84,11.84,0,0,1,269.43,95.13Zm-138,0c-.09.44,0,.52.43.44a1.1,1.1,0,0,1,1.21.51.86.86,0,0,0,.44.35c1,.43,2,.87,3,1.3.08.09.17.09.34.09a1.09,1.09,0,0,1,1.39.6c.17.26.34.26.52,0s.43-.6.6-.86.09-.26,0-.44a10.88,10.88,0,0,1-2.25-3.89.4.4,0,0,0-.43-.26,1.37,1.37,0,0,1-1.13-.35L133,90.81a.45.45,0,0,0-.7.08,4.74,4.74,0,0,1-.69.61c-.26.17-.43.26-.08.52.17.08.17.34.17.6C131.73,93.4,131.56,94.27,131.47,95.13ZM227.88,53c-.26,0-.43.09-.34.35v1.21c0,.35.08.43.43.43H236c.6,0,.6,0,.6-.6,0-.26.09-.35.35-.35h2.68c.35,0,.52,0,.52-.52S240,53,239.65,53H227.88Zm16.36,47.78c.09.34.26.43.61.17a.92.92,0,0,1,1.12-.17c.52.43,1.13.26,1.73.26a12.21,12.21,0,0,1-3.89-1.73A10.2,10.2,0,0,1,244.24,100.76Zm-117.53-7.7c.69-.09,1,0,1.3.69a.33.33,0,0,0,.52.17c.43-.43.86-1,1.38-1.47a8.24,8.24,0,0,1-4.07.26A1.65,1.65,0,0,0,126.71,93.06Zm141.16-1.22a.77.77,0,0,0-.7.78.84.84,0,0,0,.78.7.75.75,0,0,0,.7-.7C268.56,92.19,268.3,91.84,267.87,91.84Zm9.95-5.36a.75.75,0,0,0,.69.69.63.63,0,0,0,.69-.69c0-.43-.17-.61-.77-.61C278.08,85.79,277.82,86.05,277.82,86.48Zm-72.09,14.19c.43,0,.6.52.86.35s.26-.61.35-.87l-.09-.08A6.67,6.67,0,0,1,205.73,100.67Zm15.58-.52c.17,1,.17,1,1.12.44A8.82,8.82,0,0,1,221.31,100.15Zm-79.37-.78c-.09,0-.09.26,0,.35s.35.09.61-.09C142.29,99.55,142.2,99.37,141.94,99.37ZM276.7,81.89c-.44,0-.61.43-1,.69a1.07,1.07,0,0,0-.43,1.22,1.56,1.56,0,0,0,1,1,.56.56,0,0,0,.35-.08,8.53,8.53,0,0,1,1.21-.78c.17-.17.34-.26.26-.52A1.36,1.36,0,0,0,276.7,81.89Zm.08,6.23a1.47,1.47,0,1,0,0,2.94,1.45,1.45,0,0,0,1.47-1.47A1.37,1.37,0,0,0,276.78,88.12Zm-6.84,4.5a1.54,1.54,0,0,0,1.48,1.56,1.52,1.52,0,0,0,1.47-1.47,1.46,1.46,0,0,0-1.47-1.47A1.39,1.39,0,0,0,269.94,92.62Z"/><path class="cls-2" d="M123.51,86.56c.6,0,.86.26.86.78a.86.86,0,0,1-.86.87.9.9,0,0,1-1-.87A1,1,0,0,1,123.51,86.56Z"/><path class="cls-2" d="M130.43,89.07a.87.87,0,0,1-.86.87.85.85,0,0,1-.78-.87.81.81,0,0,1,.86-.86C130.08,88.12,130.43,88.56,130.43,89.07Z"/></g></g></svg>