<svg xmlns="http://www.w3.org/2000/svg" viewBox="0 0 300 119.12"><defs><style>.cls-1{fill:#2b2b2b;}.cls-2{fill:#141311;}</style></defs><title>자산 5lk</title><g id="레이어_2" data-name="레이어 2"><g id="레이어_1-2" data-name="레이어 1"><rect class="cls-1" width="300" height="119.12"/><rect class="cls-2" x="137.01" y="51.16" width="1.36" height="0.8"/><rect class="cls-2" x="139.17" y="51.16" width="1.6" height="0.72"/><polygon class="cls-2" points="159.01 31.25 152.93 31.25 152.29 31.89 149.89 31.89 149.89 32.53 150.85 32.53 152.21 33.25 155.25 33.25 155.25 32.29 157.65 32.29 157.65 33.25 160.69 33.25 160.69 32.61 159.01 31.25"/><rect class="cls-2" x="231.79" y="23.25" width="0.48" height="25.19"/><path class="cls-2" d="M231.39,47.4h1.28s.56-.4.56,3.76h-2.4C230.75,51.16,230.83,47.4,231.39,47.4Z"/><path class="cls-2" d="M88.94,38.61l52.39-.24s1.76.08,2-.8,1.52-1,1.52-1h3.36s3-3.44,3.76-3.52,12.15,0,12.15,0,1.36.32,1.44-3.36c0,0,.24-1.36,2.64,1.2L181,29.41v1.76l4.64.16s1-1.2,2.08-1V26.05l1-.72V24.05h18.79v1.28l1,.32v4.64l3.12,1s6.88,10.16,9.84,20.55h6.08v-.72l.8-.72,20.15-.16v-3h12.24s1,.24,1,3.28h3.44v1.36h6.08s1-2.64,5.2-1.84v1.84s-3-.16-3.44,1v2.8l2.8,1.6-7.28,14.4h-4.64a4.32,4.32,0,0,1-2.56,2.8v5H89.66V72.36s3.28-8.24,7.76-9a93.77,93.77,0,0,1,11.68-.72s2.72-2.64,3.44-3.12v-2a3.14,3.14,0,0,1-1.6-2.4h-.32v-1a3.7,3.7,0,0,1,5-.88h3.76s.32-.56,2.16.4c0,0,1.91-2.24,3.91-2.16V48.84h.64v-1.2h1.84v-.32h.64v.24h2.08l.8-.8H136v2.88h-4.64l-.56-.56h-.56V50.2h3.36v1.44H142v-1.2l.48-.48h.64l.4.4v1.28h3.68V50h1.52l.4.4h.8v1.28H157v-1h-.64V48.52h-.72v1.2s-4.48.08-7-3.36h-2.72a3.9,3.9,0,0,0-2.4-1.35V44a7.33,7.33,0,0,1-1.6-.32L88.94,43v-4.4Z"/><path class="cls-2" d="M275.46,50.36v1.36a2.23,2.23,0,0,1-1.44.48,1.8,1.8,0,0,0-1.76,1.28,2.16,2.16,0,0,0,.8,2.4c1.68,1.36,1.76,1.44.8,3.36-1.92,3.76-3.44,7.68-5.68,11.28-.64,1-1.36,1.68-2.56,1.44-2.08-.4-3.36.8-4.56,2.16a2.93,2.93,0,0,0-.32,2.16c.64,3.6-1.84,4.23-4.88,4a1.08,1.08,0,0,0,.64,1.2c1.28.64,1.12,1.36.24,2.16-1,1-1.28,1.84-.32,3,.72.8.24,1.6-.64,1.76-1.52.32-2.08,1-1.76,2.56.16.88-.4,1.36-1.12,1.2-1.36-.24-2.16-.08-2.24,1.52,0,.72-.72,1-1.44.8-1.12-.24-1.76,0-1.84,1.2-.08,1-.8,1.12-1.6,1-1.12-.24-1.84,0-2.08,1.28a1,1,0,0,1-1.36.88c-1.2-.24-1.92.16-2.08,1.52a.91.91,0,0,1-1.28.72c-1.51-.72-2.31.16-2.95,1.28h-1.36c-1-.64-2-.16-3,0H123.73c-1.35-.64-2.79-.24-4.23-.16-.64,0-.8-.56-1.2-.8-.72-.48-1.44-.88-2.32-.24-1,.8-1.6.24-1.84-.72-.32-1.44-1-1.76-2.32-1.12-.8.4-1.36.16-1.6-.64-.4-1.44-1.12-2-2.56-1.28-.88.4-1.36-.16-1.44-1-.16-1.28-.72-1.68-1.92-1.12-1,.48-1.68.16-1.68-1-.08-1.44-.88-1.76-2-1.52s-1.6-.08-1.68-1.2-.64-1.6-1.76-1.44c-1.28.16-1.84-.32-1.6-1.6s-.32-1.84-1.52-1.92-1.68-.56-1.12-1.68a1.77,1.77,0,0,0-.72-2.32c-1.76-1.36-1.84-1.28-.56-3-2.24-.08-2.8-.56-2.56-3,.16-1.2,0-2.32.08-3.52a8.2,8.2,0,0,1,1.12-3c1.2-1.52,1.76-3.36,3.2-4.72a8.4,8.4,0,0,1,5.2-2.48,54.83,54.83,0,0,1,8.88-1c1.84.08,2.88-1.44,4-2.56.48-.56.24-1.36-.32-2-1-1.12-1.52-2.4-.72-3.68a3.42,3.42,0,0,1,3.92-1.28c2.24.72,4.48.16,6.72.4,1,.16,3.35-1.92,3.67-3,.8-2.56,1.2-2.8,3.84-2.8,1.92,0,3.68-.8,5.68-.56,1.12.16,1.76.48,1.84,1.68s-.48,1.92-1.76,1.92a15.9,15.9,0,0,0-2.72-.08c.24.08.8-.16,1.12.08,2.4,1.6,5.2.16,7.76.88.24.08.08.16.16,0,1.36-1.6,2.56-.64,3.84.16.64.4,1.52,0,2.24-.24.08-.24.8.24.4-.4s.08-.64.48-.8a1.71,1.71,0,0,1,1.44.32c1.36,1.44,3,1.12,4.72,1.2,1.28.08,2-.32,1.44-1.76a5.12,5.12,0,0,1-5.28-1,9.08,9.08,0,0,0-4.8-2.16,2.49,2.49,0,0,1-1.68-.72c-1.6-1.68-3.68-1.6-5.76-1.76h-.16c-11.2,0-22.31-.64-33.51-.32-4.48.08-9-.32-13.44-.4-1.84,0-2-.16-2-2,0-2.64,0-2.56,2.72-2.72,11-.4,22.16-.16,33.19-.4l15.84-.24c.56,0,1.2.08,1.6-.32,1.52-1.52,3.52-1.6,5.44-1.84a3.91,3.91,0,0,0,2-1.36,4,4,0,0,1,2.16-1.44c.4-.08.8.08,1-.16-.88-.08-1.76.64-2.8.24-.48-.8-.08-1.12.64-1.36a18.85,18.85,0,0,1,7.28-.72,3.67,3.67,0,0,1,1.76.88,4.53,4.53,0,0,0,3.19.88,1.88,1.88,0,0,0,1.84-1.6c.32-1.84.88-2.16,2.48-1.28a4,4,0,0,0,2.72.4c3-.4,6.08-.48,9-.72.56-.08,1.2-.24,1.6.32,1,1.44,2.4,1.2,3.84,1,1.84-.16,2.24-.72,2.24-2.56.08-3.44,1.84-5.44,5.36-5a12.59,12.59,0,0,0,4.88-.16,5.12,5.12,0,0,1,2.47.16,9.77,9.77,0,0,0,4.56.08c2.88-.64,3.92,1,4.56,3.84a.88.88,0,0,1,0,.64c-.16,1.68.48,2.72,2.16,3l1,.48a80.1,80.1,0,0,1,5.6,10.32c1.28,2.64,2.32,5.43,3.36,8.23.4,1.12,1.12,1.36,2.24,1.6,2.64.48,4.72-1.2,7-1.76.88-.24.56-1.52,1-2.16.4-.32.8-.16,1.2-.24a.72.72,0,0,1,.56.8c-.08,1.52.8,1.68,2,1.6,3.6-.32,7.27.16,10.95.08,1.12,0,1.84-.16,1.84-1.52,0-1.12.8-1.52,1.76-1.52,3.12-.16,6.32-.08,9.44,0,.64,0,1.44,0,1.52,1-.08,1.12-.32,2.4,1.52,2.32a9.26,9.26,0,0,1,3.52,1,5.78,5.78,0,0,0,5.76-.48A3.83,3.83,0,0,1,275.46,50.36ZM123.73,102.67c-.4-.56-1-.48-1.59-.64-1-.4-1.84.56-2.8.4v.32C120.78,102.67,122.3,102.67,123.73,102.67Zm110.94,0c-1-1.36-2-.4-3,0Zm-126-9.36a1.56,1.56,0,0,1-.08.64c-.08.4-.08.8.48,1,.72.24.88-.4,1.12-.8.64-1.28,1.52-1,2.24-.24.48.48-.08,1.12-.16,1.76,0,.48-.16,1,.56,1.2s.8-.16,1-.48c.56-.56.88-1.12.32-1.92a7.7,7.7,0,0,1-1-3c-.16-.8.24-1.84-.4-2.4a1.94,1.94,0,0,0-2.32.16c-.08.08-.32-.08-.48-.08-1.6-.56-2.16-.32-2.88,1.28a.78.78,0,0,1-1,.48c-.64-.24-.88-.08-1,.56-.08.4-.48.8.08,1.2s1-.16,1.44-.4C108.3,91.31,108.46,91.39,108.7,93.31Zm9-37.43c.4-.32.8-1.76-.88-1.6a19.52,19.52,0,0,1-2.08-.08c1.6,1.92-1,2.48-1.12,4A9.4,9.4,0,0,0,117.74,55.88Zm113.57-8.64V22.93h-.48V45a22.6,22.6,0,0,1-.16,2.32C231,47.48,231.23,47.72,231.31,47.24Zm12.95,46.39c.24.24.48.72,1,.4a.78.78,0,0,0,.32-.72,2.9,2.9,0,0,0-3-2.48c-1.2.08-.56,1.28-1,2C243,91.79,243.46,93,244.26,93.63ZM101.42,86.19c.56.24,1.36.64,1.52-.08a1.33,1.33,0,0,0-1.12-1.6A7,7,0,0,1,99,83.15C99.58,85.47,99.66,85.55,101.42,86.19ZM98,78.84c-.48,0-1.12,0-.88.64.4.79-.08,2.31.72,2.31,1.12,0,.32-1.44.72-2.15S98.54,78.76,98,78.84Zm109.41,20c-.56.08-1.2.32-1.12,1.2.08.56.32.88,1,.88.88,0,.72-.64.88-1.12C208.11,99.23,207.87,98.75,207.39,98.83Zm-73.9,2a.57.57,0,0,0,.72-.48c.24-1.36-1-1.2-1.84-2.08C132.77,99.47,132.37,100.51,133.49,100.83Zm-29.11-11a1.61,1.61,0,0,0-1.44,1.36c-.08.4.4.64.8.64,1,.16.8-.88,1.12-1.28C104.86,90.19,104.86,89.79,104.38,89.87ZM241,96.11c.32.32.64.32.88,0,.72-1-.24-1.52-.56-2.32C241.14,94.59,240,95.23,241,96.11Zm-132.6-4.24c-.72-.48-1.2,0-1.44.72-.16.48-.64,1,.24,1.28.72.32,1-.08,1.2-.64C108.78,92.83,108.94,92.27,108.38,91.87Zm.16,2.08c.4-1,1.12-1.92-.32-2.64-1.12-.64-1.28.48-1.68,1l.32.32c.4-.16.56-1,1.2-.64s.08.88.16,1.28A2.84,2.84,0,0,1,108.54,94Zm3.36.8c.16-.48,0-.88-.48-.88-.8,0-1,.8-1.2,1.36s.4.64.88.88C111.82,96,111.66,95.31,111.9,94.75Zm19.67,4.16c-.64,0-.8.72-.8,1.28s.08.8.56.8,1-.24.8-1C132,99.63,132.21,98.83,131.57,98.91Zm44.63,2c.48,0,.88-.16.8-.72s0-1.36-.56-1.44-.88.56-.88,1.36C175.64,100.35,175.32,101,176.2,100.91Zm-28.71,0a.76.76,0,0,0,1.12-.4c.24-.88-.32-1.44-1.36-1.84C147.49,99.47,146.53,100.27,147.49,100.91Zm95.17-7.76c-.24-.08-.64.16-.56.4.16.64.32,1.36,1,1.6.4.16.72-.32,1-.72C243.86,93.79,243.3,93.47,242.66,93.15Zm-50.06,7.76c.48.08,1-.08,1-.64s-.08-1.2-.8-1.28-.56.56-.72,1C192.2,100.27,191.88,100.91,192.6,100.91ZM115.66,97c0-.48-.32-1-.8-.88s-.72.64-.8,1.12.48.64.88.72C115.58,98,115.74,97.47,115.66,97Zm29.43,3.28a.63.63,0,0,0,.88.56c.88-.32.64-1.12.64-1.92C146,99.39,145,99.31,145.09,100.27Zm101.65-7.12c.32-.08.88-.4.64-1-.4-.8-1-.72-1.92-.48C245.94,92.19,245.78,93.23,246.74,93.15Zm14.32-42.79c-.88-.64-.72-2.08-1.68-2.72C259.14,49,259.06,50.28,261.06,50.36ZM177.4,99.71c.16.48.16,1.12,1,1.12.48,0,.72-.24.72-.64,0-.72-.56-.8-1-1C177.64,99.23,177.16,99.31,177.4,99.71Zm-15.28-.64c-.48,0-.56.48-.4.88s0,1,.64,1,.56-.64.64-1A.86.86,0,0,0,162.12,99.07Zm84.06-9.68c1.6.48,2-1.2,3-1.52C248.18,88.27,247,88.35,246.18,89.39Zm-23,9.92c-.48-.08-.48.32-.48.64s.08.88.56.88.64-.4.72-.8A.93.93,0,0,0,223.15,99.31ZM154.77,32.53c-.08,0-.08.24,0,.24.64.64,1.36-.08,2,.08.08,0,.16-.08.72-.24A3.23,3.23,0,0,0,154.77,32.53ZM99.5,88.43c-.16.08-.16.4,0,.56.56.72,1.2.4,1.92-.08C100.78,88.67,100.22,88.11,99.5,88.43ZM211.07,31.49c.24-1.2,1.76-.48,2.24-1.6-1.12.32-2.16.32-3,1.28C210.59,31.25,210.83,31.41,211.07,31.49Zm29.11,64.62a1.51,1.51,0,0,0-.88,1,.38.38,0,0,0,.48.48c.4-.16.8-.4.88-.8C240.58,96.35,240.42,96,240.18,96.11ZM147.81,51.64c.08,0,.16-.24.16-.4.08-.56-.16-.8-.72-.8-.08,0-.24-.24-.32-.32-.8.32-.16.64,0,1C147.41,51.08,147.33,51.8,147.81,51.64Zm5.52-19.43c-1,.4-2.24,0-3.28.56.08,0,.24.08.32.08h1A2.2,2.2,0,0,0,153.33,32.21Zm55.1,68.22c.08.48.4.64.88.56.24,0,.64-.08.56-.4-.16-.48-.64-.56-1-.72A.4.4,0,0,0,208.43,100.43Zm-18.23.16c0,.24.32.32.48.32.8,0,.88-.48.72-1.52C191,100,190.2,99.79,190.2,100.59Zm-29-.4c0-.16-.08-.48-.4-.4s-1,.24-1,.72c-.08.32.24.48.72.4C160.77,100.91,161.25,100.83,161.17,100.19Zm-32.4.4c0,.08.32.32.48.32q1.08,0,.72-1.2C129.57,100,128.85,99.87,128.77,100.59ZM116.3,97.71c-.08,0-.24.24-.24.4.16.8.88.56,1.36.8C117.18,98.27,116.94,97.79,116.3,97.71Zm47.26,2.4a.5.5,0,0,0,0,.48c.32.64.8.4,1.44,0C164.36,100.35,164,99.79,163.56,100.11Zm58.55.32c.08-.08-.08-.4-.16-.4a1.67,1.67,0,0,0-1.36.8C221.31,101.07,221.87,101.07,222.11,100.43ZM95.9,84.83c-.48-.88-.72-1.52-1.44-1.92C94.78,83.55,94.62,84.43,95.9,84.83Zm-2.16-5.75A3.27,3.27,0,0,0,94,81.47,2.54,2.54,0,0,0,93.74,79.08Z"/></g></g></svg>