<svg xmlns="http://www.w3.org/2000/svg" viewBox="0 0 115 45.66"><defs><style>.cls-1{fill:#3d2d18;}.cls-2{fill:#19150e;}</style></defs><title>자산 292lk</title><g id="레이어_2" data-name="레이어 2"><g id="레이어_1-2" data-name="레이어 1"><rect class="cls-1" width="115" height="45.66"/><path class="cls-2" d="M18.76,14.78l2.9,1,9.68-1.1a1.15,1.15,0,0,1,.93,1.12c0,1-1.35,1.33-1.35,1.33L27,18.05a72.55,72.55,0,0,1,7.71,4.42,10.76,10.76,0,0,1,2.85-.2c4.13.7,5.14,4.89,5.14,4.89a4.36,4.36,0,0,0,1.4,2l2.29-.25a.64.64,0,0,1,.81-.11l1.12-.1a.71.71,0,0,1,.9-.14l1-.1a1.44,1.44,0,0,1,1.12-.13s31.77-3.92,34.12-4.11,3,.63,3,.63c1,.22,0,.71,0,.71a7.22,7.22,0,0,1-.95,2.39,1.11,1.11,0,0,1-1.08.77L54.62,34.18s3.63.2,5.38.18,1.69.4,1.91.77-.12.35-.12.35l-9.16.35s0,.54-.1,1.94-3.41.55-3.41.55l.15.42L48,38.56l0,.33h-.34a2.13,2.13,0,0,1,.57.84v1a.56.56,0,0,1-.7.52s-.55-.07-.57-1,.57-1,.57-1l-.65-.65h-.47l.1,2.19-1.37-1.57a8.44,8.44,0,0,1,0,3s-.64,2.69-2.74,1.89-1.56-4.65-1.56-4.65c-4.2.08-5.95-1.67-6.5-2.39s.1-.89.1-.89l1.79-.05-.3-.28c-6.09-.7-15.47-2.2-15.47-2.2L19.83,35l.31.29v.13h-.38l.16.22-.4.15L19,36.92l0,1.16c1.43,3-.64,4.44-.64,4.44S15.64,43.67,15,41.38a3.8,3.8,0,0,1,.54-3.56l2.61-4.55s1.32.33-7.09-.9S2.17,29.7,2.17,29.7l21.44.43c-6.53-4.77-6.89-7.46-6.89-7.46l-.12-.06s-.87,5.27-1.35,9.74-1.41,3.29-1.41,3.29S13.62,34.06,15,28,16,21.13,16,21.13a26.26,26.26,0,0,1-2.28-2.22L6.49,20.08s-1.26.18-1.37-.3,1-1.09,1-1.09c.35-.26,6.72-1.11,6.72-1.11a3,3,0,0,1-.22-2.15c.59-1.59,3.72-1.24,3.72-1.24s1-4.61,1.94-9.06,2.06-3.61,2.06-3.61c1.24.58-.87,13.28-.87,13.28Zm17.17,8.15A1.79,1.79,0,0,1,37,24.18c.34,1,.95,1.2.95,1.2V23.77a4.64,4.64,0,0,0-.62-1.32C37.1,22.25,35.93,22.93,35.93,22.93Zm1.75-.64a4.67,4.67,0,0,1,1,2.46l4,2.31S41.52,23.08,37.68,22.29Zm-2.9.16.82.48a5.62,5.62,0,0,1,1.72-.64A12.91,12.91,0,0,0,34.78,22.45Z"/></g></g></svg>