<svg xmlns="http://www.w3.org/2000/svg" viewBox="0 0 384.13 216.1"><defs><style>.cls-1{fill:#fefefe;}.cls-2{fill:#1e0094;}.cls-3{fill:#ff001a;}</style></defs><title>자산 4</title><g id="레이어_2" data-name="레이어 2"><g id="레이어_1-2" data-name="레이어 1"><path class="cls-1" d="M256.28,216.05H127.84c-1.36-1.34-1.07-3-1.07-4.53,0-13.48,0-27,0-40.44q0-82.83,0-165.65c0-1.82-.49-3.76,1.06-5.38H256.28c1.36,1.35,1.07,3,1.08,4.54q0,20.49,0,41,0,82.56,0,165.1C257.35,212.5,257.83,214.43,256.28,216.05Z"/><path class="cls-2" d="M127.84.05c.06.84.16,1.67.16,2.5q0,105.51,0,211c0,.83-.1,1.66-.16,2.49H.06Q.06,109.31,0,2.57C0,.47.56,0,3,0Q65.44.12,127.84.05Z"/><path class="cls-3" d="M256.28,216.05c0-.83-.14-1.66-.14-2.49q0-105.51,0-211c0-.83.09-1.66.14-2.5q62.54,0,125.05,0c2.09,0,2.81.15,2.8,2.21q-.12,105.82,0,211.67c0,2.05-.71,2.21-2.8,2.21Q318.81,216,256.28,216.05Z"/></g></g></svg>