<svg xmlns="http://www.w3.org/2000/svg" viewBox="0 0 384 216"><defs><style>.cls-1{fill:#fe0000;}.cls-2{fill:#fefefe;}.cls-3{fill:#010101;}.cls-4{fill:#fdfdfd;}</style></defs><title>자산 8</title><g id="레이어_2" data-name="레이어 2"><g id="레이어_1-2" data-name="레이어 1"><rect class="cls-1" width="384" height="216"/><path class="cls-2" d="M0,90,.09,126.1H81.56S93.82,162.48,126.78,170V215.9h40.27V168.32s28.27-3.29,44.86-40H384V89H211.79s-12.61-33.43-46-43.1V.11L125.9.14V45.88S88.74,60.36,81.56,88.27Z"/><path d="M384,118.81c-.76,0-1.52-.11-2.28-.11H212.67c-2.45,0-2.47,0-2.12-2.17a52.65,52.65,0,0,0-.12-17.71c-.27-1.52.2-1.72,1.66-1.72q27.43.06,54.88,0H381.91c.7,0,1.39.08,2.09.12Z"/><path d="M163.62,215.9c-.05-.53-.13-1.06-.13-1.6q0-22.83,0-45.65c0-1.23.27-1.81,1.69-2.24q32.76-10.16,43.32-41c.45-1.3,1.17-1.28,2.23-1.28H381.89c.7,0,1.41,0,2.11,0v5.39c-1,.76-2.19.54-3.32.54H216.79c-3.18,0-3.15,0-4.33,2.69q-11.67,26.5-40,37.46c-2.9,1.12-2.91,1.09-2.91,4q0,19.32,0,38.64c0,1,.2,2.06-.58,2.93Z"/><path d="M384,91.48c-.7,0-1.4.12-2.09.12q-85.41,0-170.8.05c-1.82,0-2.43-.53-3-2.09-7.2-20-21.6-33.31-43-39.95-1.24-.38-1.69-.79-1.68-2.06q.08-22.92,0-45.83c0-1.21.24-1.63,1.63-1.61C169,.17,169,.11,169,3.68c0,13.24,0,26.48,0,39.72,0,1.27.38,1.8,1.68,2.28,20,7.27,34,20.27,41.78,39.05.61,1.48,1.38,1.75,2.89,1.75q84.35-.06,168.69,0Z"/><path d="M134.44,215.9c0-.65.12-1.3.13-2,0-14.61,0-29.21,0-43.81,0-1.54.39-1.93,2-1.68a66.37,66.37,0,0,0,19.85-.09c.85-.12,1.26-.14,1.26.87q-.09,23.25-.1,46.49a.49.49,0,0,1-.06.17Z"/><path d="M122.92,215.9c0-14.44,0-28.87,0-43.31a1.89,1.89,0,0,0-1.55-2.17c-20.16-7.3-34.22-20.4-42-39.3a2.17,2.17,0,0,0-2.45-1.55c-24.94,0-49.89,0-74.83.07-1.62,0-2.17-.27-2.09-1.91.16-3.57,0-3.57,3.92-3.57q38.57,0,77.14,0c1.43,0,2,.33,2.47,1.69q10.75,30.7,43.6,40.75c.87.27,1.62.31,1.61,1.53q-.09,23.9-.07,47.8Z"/><path d="M40.75,97.12q19.57,0,39.15,0c1.37,0,1.85.14,1.59,1.62a53,53,0,0,0,0,18.42c.22,1.3-.18,1.59-1.53,1.59q-39.15-.06-78.29,0c-1.23,0-1.62-.26-1.61-1.48q.1-9.34,0-18.69c0-1.19.34-1.46,1.58-1.46Q21.19,97.15,40.75,97.12Z"/><path d="M84.14,107.93C84.21,76,112,50,146.09,50.13s61.81,26.16,61.68,58.07S179.91,166,145.91,165.92,84.08,139.86,84.14,107.93Z"/><path d="M157.61,23.92c0,7.43,0,14.85,0,22.28,0,1.39-.3,1.67-1.78,1.44a65.18,65.18,0,0,0-19.67,0c-1.21.18-1.65,0-1.65-1.3q.08-22.37,0-44.74c0-1.24.43-1.46,1.63-1.45,6.65.05,13.3.07,20,0,1.36,0,1.52.45,1.51,1.53C157.59,9.07,157.61,16.49,157.61,23.92Z"/><path d="M41.52,91.6c-13.24,0-26.48,0-39.73,0C.36,91.64,0,91.33,0,90c.09-3.53,0-3.53,3.75-3.53q36.46,0,72.93,0c1.45,0,2.18-.29,2.75-1.68C87.22,66,101.27,52.93,121.36,45.63c1.23-.45,1.6-.93,1.59-2.14,0-13.84,0-27.68-.07-41.52,0-1.44.28-1.92,1.93-1.87,3.91.13,3.91,0,3.91,3.76,0,14.5,0,29,0,43.5,0,1.29-.39,1.77-1.74,2.18q-32.67,10-43.46,40.64a1.81,1.81,0,0,1-2.11,1.44Q61.47,91.58,41.52,91.6Z"/><path class="cls-2" d="M57.35,31.54c6.06-.88,11.22-3.69,16.75-5.83V54.05c-5.49-2.12-10.64-4.93-16.74-5.84a29.28,29.28,0,0,0,2.37,7.6c1,2.25,2.11,4.49,3.24,6.69.55,1.07.62,1.54-.95,1.53q-13.64-.09-27.26,0c-1.47,0-1.4-.42-.9-1.42,2.17-4.39,4.52-8.72,5.52-13.53,0-.22.08-.43.16-.85-6.09.88-11.25,3.69-16.78,5.84V25.71c5.49,2.13,10.66,4.91,16.76,5.85a35.08,35.08,0,0,0-3.14-9.27c-.85-1.8-1.71-3.6-2.62-5.38-.35-.7-.44-1.1.61-1.1h29.2C61.25,21.07,58.28,25.85,57.35,31.54Z"/><path class="cls-2" d="M146,162.64c-32.09.06-58.32-24.44-58.37-54.55s26.06-54.61,58.23-54.68S204.2,77.84,204.26,108,178.18,162.57,146,162.64Z"/><path class="cls-3" d="M71.75,50.73a63.69,63.69,0,0,0-14-4.71c-3.46-.64-3.46-.69-2.78,2.57A51.89,51.89,0,0,0,60,61.7H36.86c2.59-5.15,4.86-10.3,5.49-16.12-6.19.58-11.69,2.69-17.24,5.16V29.08c1.19.48,2.35.93,3.48,1.42a56.3,56.3,0,0,0,12,3.52c1.92.36,1.79-.35,1.54-1.62a47.51,47.51,0,0,0-4.26-12.23c-.33-.64-.62-1.29-1-2.09H60c-2.59,5.14-4.86,10.29-5.48,16.09C60.71,33.6,66.2,31.48,71.75,29Z"/><path class="cls-4" d="M201.23,109.82c0-.7-.67-1-1.11-1.39-10-9.41-20.07-18.78-30.05-28.22-1.08-1-1.61-1-2.64,0-6.7,6.34-13.49,12.59-20.19,18.92-.94.88-1.43,1.13-2.51.07-4-3.87-8.09-7.65-12.23-11.39-1-.88-1.11-1.33-.05-2.31,7.38-6.8,14.68-13.67,22-20.54.46-.44,1.25-.72,1.12-1.55a2,2,0,0,1,1.13,1.16,5,5,0,0,1-1.54,1.8L135.22,85.06c-1.67,1.56-1.67,1.57-.07,3.07,3.11,2.92,6.27,5.81,9.33,8.78,1.1,1.07,1.83,1.06,3,0,6.37-6,12.81-12,19.23-18,2.1-2,2.18-2,4.24,0Q186,92.92,201,107a4.44,4.44,0,0,1,1.39,1.69A2,2,0,0,1,201.23,109.82Z"/><path class="cls-4" d="M147.87,56.25c-.74,0-1.05.64-1.49,1q-15.06,14.09-30.12,28.15c-1.08,1-1,1.5,0,2.47,6.76,6.27,13.44,12.63,20.2,18.91.94.88,1.21,1.33.08,2.35-4.14,3.74-8.17,7.58-12.16,11.45-1,.92-1.42,1-2.47,0-7.26-6.91-14.6-13.74-21.94-20.58-.46-.43-.76-1.18-1.64-1A1.92,1.92,0,0,1,99.58,98a5.32,5.32,0,0,1,1.93,1.44l19.93,18.66c1.67,1.56,1.67,1.56,3.28.06,3.12-2.91,6.2-5.87,9.37-8.74,1.14-1,1.13-1.71,0-2.76-6.46-6-12.85-12-19.27-18-2.1-2-2.1-2,0-4l30-28.06a5.2,5.2,0,0,1,1.94-1.42A2.06,2.06,0,0,1,147.87,56.25Z"/><path class="cls-4" d="M57.7,60.4H39.18a72.2,72.2,0,0,0,3.28-8.25,57.54,57.54,0,0,0,1.45-6.85c.21-1.34-.36-1.34-1.43-1.19a53.16,53.16,0,0,0-14.13,3.76c-.51.22-1.05.4-1.72.66V31.41c.65-.24,1.16.26,1.69.48a55.25,55.25,0,0,0,14.13,3.77c1.32.18,1.6-.1,1.44-1.35a44.9,44.9,0,0,0-4-13.25c-.24-.52-.71-1-.58-1.7H57.68a78.07,78.07,0,0,0-3.22,8.08A61.44,61.44,0,0,0,53,34.29c-.25,1.48.33,1.51,1.61,1.34a55.3,55.3,0,0,0,14.47-3.94c.34-.15.69-.28,1.19-.48V48.35c-.66.24-1.16-.26-1.69-.48A54.92,54.92,0,0,0,54.41,44.1c-1.32-.18-1.6.09-1.43,1.35a44.26,44.26,0,0,0,4,13.24C57.19,59.22,57.41,59.76,57.7,60.4Z"/><path d="M69.12,33.07c0,4.31,0,8.38,0,12.44,0,1.13-.33,1.13-1.31.74a56.24,56.24,0,0,0-14.61-3.48c-1.8-.2-1.85.42-1.7,1.67a45.72,45.72,0,0,0,4.2,14.64H41.2A46.66,46.66,0,0,0,44.79,48c.22-1.24.35-2.49.56-3.73s0-1.64-1.55-1.48a53.5,53.5,0,0,0-14.61,3.45c-1.18.47-1.5.37-1.48-.91.08-4,0-8,0-12.24A70.51,70.51,0,0,0,36,35.72c2.49.56,5,.88,7.54,1.26,1.87.28,2-.38,1.8-1.75A47.84,47.84,0,0,0,41.8,22.05l-.62-1.41H55.63a50.44,50.44,0,0,0-3.11,9.13c-.38,1.94-.66,3.9-1,5.84-.19,1.11,0,1.54,1.46,1.4a55.77,55.77,0,0,0,15-3.54C68.23,33.36,68.53,33.27,69.12,33.07Z"/><path d="M118.71,117.68c-5.18,0-10.36,0-15.53,0-1.12,0-1.39-.24-1.37-1.28.06-5.57.09-11.14,0-16.7,0-1.24.43-1.31,1.52-1.31,10.17,0,20.34,0,30.51.07,1.78,0,2.07-.48,2-2-.08-9.53,0-19-.07-28.58,0-1.17.34-1.35,1.48-1.34,5.88,0,11.76.06,17.64,0,1.14,0,1.5.16,1.49,1.34-.07,9.65,0,19.29-.08,28.94,0,1.37.38,1.65,1.79,1.64,10.18-.06,20.35,0,30.52-.07,1.46,0,1.79.37,1.77,1.7-.09,5.33-.07,10.66,0,16,0,1.19-.2,1.64-1.64,1.63-10.23-.07-20.46,0-30.69-.08-1.5,0-1.74.4-1.73,1.69.06,9.52,0,19.05.07,28.57,0,1.4-.4,1.67-1.8,1.65-5.57-.08-11.13-.1-16.7,0-1.64,0-2.15-.25-2.13-1.92.11-9.4,0-18.81.08-28.21,0-1.31-.14-1.85-1.82-1.8C129,117.77,123.83,117.67,118.71,117.68Z"/><path d="M116.81,121.28c4.61,0,9.21,0,13.82,0,1.14,0,1.41.25,1.41,1.27,0,8.57-.07,17.14,0,25.7,0,1.66-1,1.29-2,1.29s-2,.37-2-1.3c.09-7.24,0-14.5.07-21.74,0-1.23-.21-1.62-1.64-1.61-7.74.08-15.48,0-23.22.08-2.53,0-1.18-1.53-1.45-2.43-.4-1.33.53-1.24,1.52-1.24C107.85,121.3,112.33,121.28,116.81,121.28Z"/><path d="M132,80.78c0,4.2,0,8.39,0,12.59,0,1.21-.37,1.5-1.63,1.49q-13.62-.08-27.25,0c-1.39,0-1.52-.58-1.31-1.5s-.9-2.22,1.32-2.2c7.74.08,15.49,0,23.23.07,1.46,0,1.78-.35,1.76-1.68-.07-7.13.06-14.26-.09-21.39-.05-2.09,1.25-1.45,2.39-1.63,1.64-.26,1.57.61,1.56,1.66C132,72.39,132,76.59,132,80.78Z"/><path d="M175.23,94.83c-4.47,0-8.94,0-13.42,0-1.17,0-1.62-.15-1.61-1.43q.12-12.75,0-25.49c0-1.29.42-1.57,1.61-1.38,1,.17,2.4-.68,2.35,1.44-.14,7.12,0,14.25-.09,21.37,0,1.4.23,1.9,1.91,1.88,7.53-.1,15.08,0,22.61-.09,1.61,0,1.9.48,1.85,1.84s-.06,1.93-1.79,1.88C184.18,94.74,179.71,94.83,175.23,94.83Z"/><path class="cls-3" d="M160.24,135.19c0-4.19,0-8.38,0-12.57,0-1.11.26-1.38,1.47-1.37,9.08,0,18.16.07,27.24,0,1.45,0,1.64.5,1.46,1.54-.14.89.72,2.18-1.43,2.15-7.74-.1-15.48,0-23.22-.07-1.36,0-1.67.31-1.66,1.57.07,7.18,0,14.37.09,21.56,0,1.82-1,1.46-2.12,1.54-1.32.1-1.9-.1-1.85-1.58C160.33,143.7,160.24,139.45,160.24,135.19Z"/><rect x="247.33" y="97.12" width="54.79" height="8.04"/><rect x="284.63" y="124.15" width="54.79" height="5.1"/></g></g></svg>