<?xml version="1.0" encoding="utf-8"?>
<!-- Generator: Adobe Illustrator 22.0.1, SVG Export Plug-In . SVG Version: 6.00 Build 0)  -->
<svg version="1.1" id="레이어_1" xmlns="http://www.w3.org/2000/svg" xmlns:xlink="http://www.w3.org/1999/xlink" x="0px"
	 y="0px" viewBox="0 0 384 216" style="enable-background:new 0 0 384 216;" xml:space="preserve">
<style type="text/css">
	.st0{fill:#009145;}
	.st1{fill:#CC2B37;}
	.st2{fill:#4B61D0;}
	.st3{fill:#FEFEFE;}
	.st4{fill:#D1232C;}
</style>
<title>자산 9</title>
<path class="st0" d="M128,216c-42.3,0-84.5,0-126.8,0c-0.9,0-1.2-0.1-1.2-1C0,143.7,0,72.3,0,1c0-0.9,0.3-1,1.2-1
	C43.5,0,85.7,0,128,0c0.4,0.3,0.6,0.7,0.6,1.1c0,0.6,0,1.1,0,1.7v210.3c0,0.6,0,1.1,0,1.7C128.6,215.3,128.4,215.7,128,216z"/>
<path class="st1" d="M256,0c42.3,0,84.6,0,126.9,0c1,0,1.2,0.2,1.2,1c0,71.3,0,142.7,0,214.1c0,0.8-0.2,1-1.2,1
	c-42.3,0-84.6,0-126.9,0c-0.4-0.3-0.6-0.7-0.6-1.1c0-0.6,0-1.1,0-1.7V2.9c0-0.6,0-1.1,0-1.7C255.4,0.7,255.6,0.3,256,0z"/>
<path class="st2" d="M192,162.9c-0.9-2.3-3-3.9-5.4-4.4c-1.1-0.2-2.3-0.3-3.4-0.3c-9,0-18.1,0.1-27.1,0s-16.4-5.2-18.7-12.4
	c-0.5-1.8-0.7-3.8-0.7-5.7c0-24.5,0-49.1,0-73.6c0-4.9-1.2-9.3-5.1-13.1c0,0,0-0.1,0-0.3h121c0.1,0.2,0,0.3-0.1,0.4
	c-3.1,2.8-4.9,6.8-5,10.9c0,0.6,0,1.2,0,1.7c0,24.7,0,49.4,0,74.1c0.2,4.2-1.3,8.3-4.1,11.4c-4,4.4-9.5,6.4-16,6.5
	c-8.8,0.1-17.6,0-26.4,0c-1.1,0-2.3,0.1-3.4,0.3C195.1,158.9,193,160.5,192,162.9z"/>
<path class="st3" d="M185.2,63.8h13.7c0.7,0.4,0.6,1.1,0.6,1.7c0,2.7,0,5.4,0,8.1v23c0,0.4,0,0.9,0,1.3c0,0.8,0.5,1.3,1.5,1.3h1.7
	c9.8,0,19.6,0,29.4,0c0.8,0,1.7-0.2,2.4,0.5c0.1,3.8,0.1,7.7,0,11.5c-0.7,0.4-1.5,0.6-2.3,0.5c-6.4,0-12.7,0-19.1,0H203
	c-3.4,0-3.4,0-3.4,2.8v25.9c0,1.7,0,3.5,0,5.2c0.1,0.6-0.2,1.1-0.6,1.5c-2.4,0.2-4.7,1.2-6.5,2.8c-0.1,0.2-0.4,0.2-0.6,0.1
	c0,0-0.1-0.1-0.1-0.1c-1.8-1.7-4.1-2.6-6.5-2.8c-0.6-0.4-0.6-1-0.6-1.6c0-2.4,0-4.8,0-7.2v-23.6c0-0.4,0-0.9,0-1.3
	c0-1.4-0.3-1.6-2-1.6h-1.7c-9.6,0-19.3,0-28.9,0c-0.8,0.2-1.7,0-2.4-0.5c-0.1-3.8-0.1-7.7,0-11.5c0.7-0.6,1.6-0.5,2.4-0.5
	c8.4,0,16.7,0,25.1,0h5.4c1.9,0,2.1-0.2,2.1-1.8c0-10.2,0-20.4,0-30.5c0-0.6,0-1.2,0-1.8C184.6,64.4,184.8,64,185.2,63.8z"/>
<path class="st4" d="M185.2,63.8c0,11.5,0,23.1,0,34.7c0,0.9-0.2,1.2-1.4,1.2c-11.4,0-22.9,0-34.3,0c0-0.4-0.1-0.7-0.1-1.1
	c0-11.2,0-22.4,0-33.6c0-1,0.3-1.3,1.5-1.3c11,0,22.1,0,33.1,0C184.4,63.7,184.8,63.7,185.2,63.8z"/>
<path class="st4" d="M234.5,99.6c-11.4,0-22.9,0-34.3,0c-1.2,0-1.4-0.3-1.4-1.2c0-11.6,0-23.1,0-34.7h10.5c8,0,15.9,0,23.9,0
	c0.8,0,1.3,0,1.3,0.9c0,11.5,0,22.9,0,34.4C234.6,99.2,234.6,99.4,234.5,99.6z"/>
<path class="st4" d="M149.5,111.1c11.4,0,22.8,0,34.2,0c1.3,0,1.5,0.3,1.5,1.3c0,11.5,0,23,0,34.5c-9,0-18,0.1-27,0
	c-5.2,0-8.2-2.5-8.6-6.9c-0.1-0.8-0.1-1.6-0.1-2.4v-25.3C149.5,111.9,149.5,111.5,149.5,111.1z"/>
<path class="st4" d="M198.9,146.9c0-11.5,0-23,0-34.6c0-1.2,0.4-1.3,1.6-1.3c11.4,0,22.7,0,34,0c0,1.7,0.1,3.3,0.1,5v21.7
	c0,1.2-0.1,2.3-0.3,3.4c-0.8,3.6-3.6,5.6-7.9,5.7c-4.6,0.1-9.2,0-13.8,0L198.9,146.9z"/>
</svg>
