<svg xmlns="http://www.w3.org/2000/svg" viewBox="0 0 384.07 216.07"><defs><style>.cls-1{fill:#3c3b6e;}.cls-2{fill:#b12234;}.cls-3{fill:#fefefe;}.cls-4{fill:#fcfcfd;}.cls-5{fill:#fdfdfd;}.cls-6{fill:#fdfdfe;}</style></defs><title>자산 6</title><g id="레이어_2" data-name="레이어 2"><g id="레이어_1-2" data-name="레이어 1"><path class="cls-1" d="M.31,116.64q0-57.45,0-114.91C.28.49.56.3,1.64.3q76.14.06,152.27,0a2.43,2.43,0,0,1,.7,2.09c0,4.83.12,9.67-.07,14.5q.22,8.31,0,16.63.22,8.31,0,16.62.22,8.3,0,16.61.22,8.31,0,16.62.22,8.31,0,16.64c.18,4.91.08,9.83.07,14.74a3.56,3.56,0,0,1-.51,2,2,2,0,0,1-1.58.54c-.72,0-1.45,0-2.17,0q-73.18,0-146.36,0C2.74,117.39,1.36,117.83.31,116.64Z" transform="translate(-0.28 -0.3)"/><path class="cls-2" d="M384.31,199.72c0,5.2,0,10.41,0,15.62,0,.83-.17,1.15-.95,1a2.44,2.44,0,0,0-.47,0q-190.6,0-381.2,0c-1.17,0-1.45-.27-1.43-1.52.08-5,0-10.08,0-15.12A1.94,1.94,0,0,1,2,199c.88,0,1.76,0,2.64,0H380c.88,0,1.76,0,2.64,0A1.93,1.93,0,0,1,384.31,199.72Z" transform="translate(-0.28 -0.3)"/><path class="cls-3" d="M384.31,199.72H.31V183.1A2,2,0,0,1,2,182.36c.88,0,1.76,0,2.64,0H380c.88,0,1.76,0,2.64,0a2,2,0,0,1,1.66.74Z" transform="translate(-0.28 -0.3)"/><path class="cls-2" d="M384.31,183.1H.31V166.49A1.94,1.94,0,0,1,2,165.75c.88,0,1.76,0,2.64,0H380c.88,0,1.76,0,2.64,0a1.93,1.93,0,0,1,1.66.74Z" transform="translate(-0.28 -0.3)"/><path class="cls-3" d="M384.31,166.49H.31V149.87A2,2,0,0,1,2,149.13c.88,0,1.76,0,2.64,0H380c.88,0,1.76,0,2.64,0a2,2,0,0,1,1.66.74Z" transform="translate(-0.28 -0.3)"/><path class="cls-2" d="M384.31,149.87H.31V133.26A1.92,1.92,0,0,1,2,132.52c.88,0,1.76,0,2.64,0H380c.88,0,1.76,0,2.64,0a1.91,1.91,0,0,1,1.66.74Z" transform="translate(-0.28 -0.3)"/><path class="cls-3" d="M384.31,133.26H.31V116.64H152.05c.62,0,1.24,0,1.86-.06a2,2,0,0,1,1.53-.67c.73,0,1.45,0,2.18,0q111.42,0,222.86,0c.78,0,1.55,0,2.33,0a1.83,1.83,0,0,1,1.5.73Z" transform="translate(-0.28 -0.3)"/><path class="cls-2" d="M154,17q0-8.31-.05-16.62,114.5,0,229,0c1.17,0,1.45.28,1.43,1.53-.07,5,0,10.08,0,15.12a2,2,0,0,1-1.66.74c-.77,0-1.55,0-2.33,0H157.94c-.83,0-1.66,0-2.48,0A1.76,1.76,0,0,1,154,17Z" transform="translate(-0.28 -0.3)"/><path class="cls-2" d="M154,83.41V66.79a1.87,1.87,0,0,1,1.65-.74c.83,0,1.66,0,2.49,0H380.17c.83,0,1.66,0,2.48,0a2,2,0,0,1,1.66.74V83.41a2,2,0,0,1-1.66.74c-.77,0-1.55,0-2.33,0H157.94c-.83,0-1.66,0-2.48,0A1.76,1.76,0,0,1,154,83.41Z" transform="translate(-0.28 -0.3)"/><path class="cls-3" d="M384.31,66.79H154V50.18a1.83,1.83,0,0,1,1.65-.74c.83,0,1.66,0,2.49,0H380.17c.83,0,1.66,0,2.48,0a1.93,1.93,0,0,1,1.66.74Z" transform="translate(-0.28 -0.3)"/><path class="cls-3" d="M154,17H384.31V33.56a1.93,1.93,0,0,1-1.66.74c-.77,0-1.55,0-2.33,0H157.94c-.83,0-1.66,0-2.49-.05a1.76,1.76,0,0,1-1.49-.73Z" transform="translate(-0.28 -0.3)"/><path class="cls-3" d="M154,83.41H384.31V100a1.91,1.91,0,0,1-1.66.74c-.77,0-1.55,0-2.33,0H157.94c-.83,0-1.66,0-2.49,0A1.71,1.71,0,0,1,154,100Z" transform="translate(-0.28 -0.3)"/><path class="cls-2" d="M154,100H384.31v16.62H155.93c-.68,0-1.35,0-2-.06Q153.94,108.3,154,100Z" transform="translate(-0.28 -0.3)"/><path class="cls-2" d="M154,33.56H384.31V50.18H154Z" transform="translate(-0.28 -0.3)"/><path class="cls-4" d="M20.93,112c-1.47-.66-2.36-2.4-3.59-2.25s-2.22,1.44-3.56,2.4a30.57,30.57,0,0,1,.94-3.15,1.51,1.51,0,0,0-.68-2.17,26.18,26.18,0,0,1-2.26-1.76,6.11,6.11,0,0,1,2.87-.2,1.45,1.45,0,0,0,1.75-1.35c.2-.93.54-1.83.87-2.91a6.78,6.78,0,0,1,1,2.76c.27,1.21.84,1.62,1.95,1.49a5.75,5.75,0,0,1,2.62.31,24.85,24.85,0,0,1-2.26,1.75,1.44,1.44,0,0,0-.61,2C20.33,109.84,20.57,110.8,20.93,112Z" transform="translate(-0.28 -0.3)"/><path class="cls-4" d="M116.19,111.89c.39-1.35,1.21-2.76,1-4s-2-1.67-3-2.89a6.78,6.78,0,0,1,2.78-.14c1,.07,1.51-.33,1.74-1.36s.52-1.77.86-2.89a8.4,8.4,0,0,1,1.09,3c.24,1,.71,1.34,1.65,1.26a6.82,6.82,0,0,1,2.85.31c-.72.56-1.4,1.19-2.17,1.69a1.52,1.52,0,0,0-.67,2.16,7.54,7.54,0,0,1,.73,2.84c-.1,0-.17,0-.19,0-2.18-2.41-4.32-2.42-6.43.1C116.44,112,116.29,111.9,116.19,111.89Z" transform="translate(-0.28 -0.3)"/><path class="cls-5" d="M38,112a2.79,2.79,0,0,1-.58-.3c-1.81-1.91-3.66-2.72-5.64-.24-.23.29-.57.15-.89.14.46-1.35,1.46-2.77,1-3.9S30,106,28.88,105a6.68,6.68,0,0,1,2.85-.17c1,.06,1.51-.33,1.73-1.38s.56-1.89.86-2.85c.1.11.23.17.24.26.56,3.09,1.86,5.07,5.49,3.67l-.12.6c-.79.62-1.56,1.29-2.4,1.84a1.28,1.28,0,0,0-.53,1.77C37.37,109.77,37.63,110.83,38,112Z" transform="translate(-0.28 -0.3)"/><path class="cls-5" d="M48,111.65c.44-1.42,1.45-2.83,1-4S47,106,45.66,104.82c1.3,0,2.21-.07,3.11,0s1.52-.27,1.73-1.35.57-1.88,1-3.15a29,29,0,0,1,1,3.12c.22,1.06.7,1.48,1.71,1.38a6.75,6.75,0,0,1,2.81.3c-.81.64-1.6,1.31-2.44,1.9a1.18,1.18,0,0,0-.49,1.64c.4,1,.64,2.08,1.06,3.52-1-.79-1.85-1.32-2.55-2a1.33,1.33,0,0,0-2.12,0A3.9,3.9,0,0,1,48,111.65Z" transform="translate(-0.28 -0.3)"/><path class="cls-5" d="M62.76,104.91l1-.09c3.34-.11,3.34-.11,4.51-3.58a7.68,7.68,0,0,1,.35-.78,25.23,25.23,0,0,1,.89,2.9,1.55,1.55,0,0,0,2,1.48,25,25,0,0,1,2.62,0c-.28.73-.82,1-1.23,1.28-2,1.59-2,1.58-1.28,4,.13.46.46.89.21,1.4-.22.15-.39.06-.57-.07-2.71-1.92-2.71-1.92-5.35.08-.2.16-.42.29-.9.61.38-1.24.6-2.24,1-3.17a1.51,1.51,0,0,0-.68-2.15C64.46,106.34,63.78,105.71,62.76,104.91Z" transform="translate(-0.28 -0.3)"/><path class="cls-5" d="M89.05,111.69c-1.62-.36-2.33-2.25-3.57-2s-2.14,1.45-3.47,2.43c.4-1.36.65-2.45,1-3.48a1.18,1.18,0,0,0-.49-1.64c-.84-.59-1.63-1.25-2.65-2,1.62-.4,3.21.39,4.19-.45s.74-2.68,1.53-3.87c.47,1.31.63,3,1.48,3.84s2.56,0,4.16.51A27,27,0,0,1,89,106.74a1.66,1.66,0,0,0-.72,2.43A23,23,0,0,1,89.05,111.69Z" transform="translate(-0.28 -0.3)"/><path class="cls-4" d="M97.1,104.64c3.48,1.11,5.13-.47,5.31-4,.33.25.42.28.45.35.51,1.24.39,3.07,1.46,3.66s2.48.12,3.94.37c-3.23,1.49-3.85,3.76-2,6.8a2.6,2.6,0,0,1-.47,0c-1.17-.57-2-2.22-3.22-2s-2.15,1.41-3.34,2.27a8.14,8.14,0,0,1,.77-3,1.54,1.54,0,0,0-.68-2.16,25.38,25.38,0,0,1-2.11-1.64Z" transform="translate(-0.28 -0.3)"/><path class="cls-4" d="M137,100.49c.14,3.79,1.9,5.21,5.34,4.16l-.12.49a19.49,19.49,0,0,1-2.18,1.71,1.5,1.5,0,0,0-.65,2.16,14.94,14.94,0,0,1,.78,3.09c-2.34-3-4.62-2.79-6.88-.22.35-1.36,1.13-2.79.93-4s-2.06-1.63-2.89-2.75c.25-.37.59-.25.88-.26,3.12-.09,3.12-.09,4.14-3.26.08-.26.16-.52.25-.78Z" transform="translate(-0.28 -0.3)"/><path class="cls-5" d="M72.15,34.7c-2.52-2.5-4.75-3.49-7,.32L65,34.39a16.09,16.09,0,0,1,.75-2.53,1.88,1.88,0,0,0-.88-2.78c-.66-.41-1.24-1-2.26-1.77,1.44,0,2.44-.06,3.44,0,.81.06,1.2-.25,1.41-1.1.25-1.06.64-2.08,1-3.3.71,3.26,1.85,5.61,5.69,4.1l-.13.59c-.8.63-1.58,1.31-2.42,1.88a1.25,1.25,0,0,0-.54,1.76C71.52,32.25,71.75,33.32,72.15,34.7Z" transform="translate(-0.28 -0.3)"/><path class="cls-5" d="M28.61,27.39c3.83,1,5.21-.92,5.69-4.14,0,0,.06,0,.09-.06s.11.06.12.1c.57,3.12,1.89,5.14,5.55,3.75l-.11.59c-.8.62-1.56,1.3-2.4,1.86A1.26,1.26,0,0,0,37,31.24c.38,1,.64,2.06,1.06,3.48a30.16,30.16,0,0,1-2.58-2c-.78-.75-1.37-.66-2.11,0s-1.48,1.16-2.23,1.75c-.08-.16-.14-.22-.12-.26C32.19,31.37,32.5,28.81,28.61,27.39Z" transform="translate(-0.28 -0.3)"/><path class="cls-5" d="M80.2,27.31c.91,0,1.82-.07,2.72,0s1.5-.26,1.71-1.35a29.66,29.66,0,0,1,1-3.1,13.22,13.22,0,0,1,.76,2.34c.2,1.85,1.17,2.35,2.75,2.1a20.6,20.6,0,0,1,2.41,0,18,18,0,0,1-1.82,1.43c-1.55.83-2,1.94-1.16,3.68a2.71,2.71,0,0,1,.37,1.92c-.07,0-.18.09-.23,0-1-.81-2-2.36-3.25-2.14S83.3,33.71,82,34.71c.39-1.28.63-2.28,1-3.23a1.53,1.53,0,0,0-.67-2.16,25.09,25.09,0,0,1-2.2-1.68Z" transform="translate(-0.28 -0.3)"/><path class="cls-5" d="M51.42,23c.16.29.25.37.26.47.44,3.23,2,4.8,5.45,3.53a5.68,5.68,0,0,1-2.34,2.31,1.55,1.55,0,0,0-.68,2.15,6,6,0,0,1,.64,2.74,3,3,0,0,1-.51-.19c-1-.6-1.8-2-2.81-1.86s-1.86,1.28-2.79,2c-.17.13-.36.21-.72.42a31.38,31.38,0,0,1,.93-3.1,1.5,1.5,0,0,0-.68-2.15c-.78-.49-1.46-1.14-2.56-2,1.37,0,2.28-.07,3.18,0s1.51-.27,1.72-1.35A29.54,29.54,0,0,1,51.42,23Z" transform="translate(-0.28 -0.3)"/><path class="cls-5" d="M37.37,85.2c3.46,1.15,5.18-.29,5.3-3.7.56-.19.51.13.56.29,1.15,3.56,1.14,3.56,4.62,3.64.19,0,.38,0,1,.06-1.05.83-1.79,1.49-2.6,2a1.44,1.44,0,0,0-.62,2,27.91,27.91,0,0,1,.83,2.82c-.18,0-.31.1-.35.07-2.16-2.45-4.29-2.63-6.48.58a7.86,7.86,0,0,1,.72-3.37,1.56,1.56,0,0,0-.63-2.18c-.79-.49-1.5-1.14-2.24-1.71Z" transform="translate(-0.28 -0.3)"/><path class="cls-5" d="M99.38,34.67c-.11-.31-.15-.37-.14-.42.14-1.42,1.37-2.84.87-4.05s-1.9-1.75-3.27-2.89c1.34,0,2.29-.08,3.23,0s1.38-.35,1.6-1.28.56-1.87.79-2.61c.29-.25.37-.23.39-.06.42,3.23,1.88,4.95,5.41,3.68l-.1.59c-.72.56-1.4,1.18-2.16,1.67a1.49,1.49,0,0,0-.69,2.16,23,23,0,0,1,.82,2.82c-.19.06-.32.13-.34.1C103.61,31.66,101.45,31.86,99.38,34.67Z" transform="translate(-0.28 -0.3)"/><path class="cls-5" d="M5.32,92.77c.41-1.67,1.29-3.25,1-4.45s-1.91-1.77-3-2.69c1.45-.45,3.12.41,4-.41s1-2.55,1.59-4.15a30.33,30.33,0,0,1,1,3c.21,1.09.72,1.43,1.72,1.34s1.82,0,2.76,0c0,.22,0,.39-.07.41-2.93,1.46-3.69,3.64-2,6.78a25.38,25.38,0,0,1-2.31-1.79,1.29,1.29,0,0,0-2.1,0C7.1,91.5,6.3,92,5.32,92.77Z" transform="translate(-0.28 -0.3)"/><path class="cls-5" d="M29.23,92.73c-3-2.76-3-2.76-6.09-.52a3.37,3.37,0,0,1-.89.42c1.91-3.19,1.29-5.53-2-7,3.18.16,5.52-.46,5.38-4.69l.41.34a27.59,27.59,0,0,1,.86,2.81,1.39,1.39,0,0,0,1.74,1.32c.9-.09,1.82,0,2.76,0-.05.23-.05.38-.1.41-2.46,1.34-3.64,3.16-2.05,6.06C29.31,92.07,29.23,92.33,29.23,92.73Z" transform="translate(-0.28 -0.3)"/><path class="cls-5" d="M100,85.73c-3.45,1.39-4.09,3.72-2.21,6.9-2.31-2.07-4.42-3.06-6.65-.31-.06.08-.29,0-.38,0s-.16-.12-.1-.26c1.47-3.48,1.47-3.47-1.34-5.79-.23-.19-.57-.29-.6-.69.08,0,.17-.16.23-.15,3.14.65,4.88-.66,5-4.42A5.63,5.63,0,0,1,95,83.83c.28,1.35.91,1.79,2.15,1.62a17.74,17.74,0,0,1,2.42,0Z" transform="translate(-0.28 -0.3)"/><path class="cls-5" d="M111.14,81.09c.57,1.59.72,3.42,1.62,4.1s2.54.14,3.91.14c-.07.34-.07.5-.12.53-2.94,1.46-3.64,3.65-1.62,6.7a2.75,2.75,0,0,1-.55-.07c-1.16-.67-2.06-2.33-3.31-2.15s-2.13,1.45-3.3,2.34a9.34,9.34,0,0,1,.8-3.14,1.45,1.45,0,0,0-.62-2c-.79-.51-1.5-1.16-2.67-2.08,1.36,0,2.3-.07,3.21,0s1.51-.27,1.72-1.35A29.42,29.42,0,0,1,111.14,81.09Z" transform="translate(-0.28 -0.3)"/><path class="cls-5" d="M125.3,27.13c-1,1.57-2.82,1.87-3.06,3.22-.21,1.2.57,2.59.93,3.95-.19,0-.31,0-.35,0-2.18-2.44-4.32-2.58-6.32.38-.14-.37-.21-.47-.2-.56.2-1.35,1.37-2.74.87-3.91s-1.89-1.74-3.25-2.89a17.45,17.45,0,0,1,2.45,0c1.46.21,2.3-.29,2.56-1.93a4.37,4.37,0,0,1,.73-2.07c.12,0,.2,0,.2.06C120.37,26.54,121.72,28.44,125.3,27.13Z" transform="translate(-0.28 -0.3)"/><path class="cls-5" d="M131.22,27.08c3.48,1.17,5.12-.37,5.31-4.23A8.74,8.74,0,0,1,137.74,26c.24,1.05.72,1.44,1.73,1.33a25.74,25.74,0,0,1,2.8,0,5.55,5.55,0,0,1-2.21,2,1.57,1.57,0,0,0-.64,2.18c.36.89.57,1.86.87,2.85-.22,0-.34,0-.39,0-2.06-2.21-4.14-2.82-6.35.38a5.6,5.6,0,0,1,.54-3.09c.38-1.05.3-1.74-.67-2.32a21.62,21.62,0,0,1-2.11-1.63Z" transform="translate(-0.28 -0.3)"/><path class="cls-5" d="M124.51,92.41c2.11-3.21,1.2-5.33-1.88-6.55.21-.26.26-.39.33-.4,1.3-.23,2.93.6,3.85-.41s.93-2.5,1.38-3.85c.12.17.22.24.23.32.47,3.25,2,4.93,5.45,3.65l-.05.52a27.17,27.17,0,0,1-2.27,1.77,1.49,1.49,0,0,0-.66,2.15c.37.9.58,1.88,1,3.13a9.33,9.33,0,0,1-1.62-1.19c-1.3-1.46-2.52-1.53-3.87-.06A2.31,2.31,0,0,1,124.51,92.41Z" transform="translate(-0.28 -0.3)"/><path class="cls-5" d="M151.07,85.52c-2.77,1.62-4.09,3.5-2.44,6.53.06.12,0,.32,0,.56a3.27,3.27,0,0,1-.36-.23c-2.7-2.44-2.7-2.44-5.56-.28-.24.18-.5.34-.89.61.41-1.59,1.3-3.17,1-4.37s-1.91-1.78-3.09-2.77c1.53-.37,3.23.49,4.16-.44s1-2.56,1.48-4c.54,1.55.67,3.36,1.57,4.08S149.41,85.43,151.07,85.52Z" transform="translate(-0.28 -0.3)"/><path class="cls-5" d="M56.41,92.81a31,31,0,0,1,1-3.17,1.55,1.55,0,0,0-.65-2.19c-.77-.51-1.48-1.12-2.26-1.72.22-.17.29-.27.36-.28,1.28-.15,2.87.55,3.76-.31s.88-2.4,1.32-3.82A6.75,6.75,0,0,1,61,84.19c.25,1,.67,1.35,1.62,1.26a29.3,29.3,0,0,1,3,0A3.69,3.69,0,0,1,63.93,87c-1.53.81-1.73,1.94-1,3.48a14.77,14.77,0,0,1,.63,2c-.22,0-.33.08-.38,0-1.07-.82-2-2.34-3.28-2.19S57.78,91.78,56.41,92.81Z" transform="translate(-0.28 -0.3)"/><path class="cls-5" d="M20.93,34.54c-1.31-.92-2.41-2.26-3.56-2.31s-2.11,1.31-3.29,2.14a4.39,4.39,0,0,1,.5-2.36c.53-1.3.45-2.27-.88-3a12.47,12.47,0,0,1-1.85-1.45c.25-.16.32-.25.41-.26,1.26-.19,2.83.58,3.71-.4s.86-2.43,1.28-3.78a5.83,5.83,0,0,1,1.05,2.73c.29,1.05.68,1.61,1.8,1.45a25.92,25.92,0,0,1,3.12,0c-1.14.91-1.89,1.6-2.72,2.16a1.33,1.33,0,0,0-.57,1.78C20.29,32.26,20.57,33.31,20.93,34.54Z" transform="translate(-0.28 -0.3)"/><path class="cls-5" d="M73.74,92.55a6.84,6.84,0,0,1,.67-2.89,1.55,1.55,0,0,0-.63-2.19c-.78-.52-1.5-1.16-2.62-2a13.15,13.15,0,0,1,2.32,0c1.82.39,2.64-.52,2.92-2.32a16.52,16.52,0,0,1,.54-1.85A5.28,5.28,0,0,1,78,84c.28,1.18.84,1.59,1.94,1.46a6.18,6.18,0,0,1,2.68.29,28.13,28.13,0,0,1-2.32,1.79,1.46,1.46,0,0,0-.59,2c.33.91.58,1.87.87,2.83-.17,0-.27.09-.32.06-1.07-.76-2.13-2.11-3.2-2.13S74.94,91.69,73.74,92.55Z" transform="translate(-0.28 -0.3)"/><path class="cls-5" d="M82.9,8.36c-3.69,1.17-3.71,3.6-2.38,6.51,0,0,0,.11,0,.18s-.17.08-.21,0c-1-.78-1.9-1.95-3-2.25s-1.9,1.24-2.92,1.83c-.27.16-.51.39-.84.16,1.49-3.65,1.49-3.65-2-6.7A7.82,7.82,0,0,1,74.42,8c.9,0,1.44-.19,1.64-1.23s.55-1.89.88-3A6.2,6.2,0,0,1,78,6.63c.26,1,.67,1.48,1.7,1.35a25.21,25.21,0,0,1,2.75,0Z" transform="translate(-0.28 -0.3)"/><path class="cls-5" d="M128.2,3.55c.58,1.62.72,3.44,1.62,4.16s2.54.26,3.87.33c0,.14,0,.27-.08.32-1,1-2.7,1.36-2.88,2.75-.16,1.22.65,2.59,1,4-.18,0-.3,0-.34-.09-2.21-2.48-4.38-2.68-6.41.3-.16-.26-.26-.35-.24-.39,1.36-2.91,1.37-5.34-2.54-6.58A5.22,5.22,0,0,1,125.11,8c1.43.23,2.06-.43,2.31-1.84C127.57,5.35,127.89,4.59,128.2,3.55Z" transform="translate(-0.28 -0.3)"/><path class="cls-5" d="M5.33,15.22c.43-1.6,1.34-3.14,1-4.28S4.43,9.11,3.39,8.22c.06-.08.13-.22.18-.22,3.14.6,5-.68,5.36-4.22a22.84,22.84,0,0,1,.9,2.88C10,7.77,10.57,8.07,11.56,8s1.81,0,2.77,0c-.08.24-.09.38-.15.41-2.66,1.39-3.68,3.4-1.89,6.18-.39.42-.54.21-.7.11-1-.61-1.78-2-2.79-1.86S6.93,14.06,6,14.75C5.83,14.88,5.65,15,5.33,15.22Z" transform="translate(-0.28 -0.3)"/><path class="cls-6" d="M114.78,15.25c-1.39-1-2.49-2.41-3.6-2.42S109,14.24,107.9,15c-.12-.19-.23-.29-.21-.34.42-1.29,1.4-2.73,1-3.86s-1.89-1.75-3-2.68A2.52,2.52,0,0,1,107.43,8c1.9.35,2.85-.5,3.11-2.47a12.79,12.79,0,0,1,.64-2,30.36,30.36,0,0,1,1,3.14c.21,1.08.7,1.45,1.7,1.34s1.83,0,2.77,0c-.06.23,0,.35-.11.41-.93,1-2.68,1.37-2.87,2.73S114.31,13.68,114.78,15.25Z" transform="translate(-0.28 -0.3)"/><path class="cls-6" d="M72.12,73.34c-1.37-1-2.48-2.37-3.59-2.37s-2.2,1.4-3.65,2.45c.43-1.36.66-2.34,1-3.25a1.41,1.41,0,0,0-.6-2c-.79-.51-1.5-1.15-2.63-2,1.4,0,2.4,0,3.39,0,.82.06,1.2-.26,1.4-1.1.26-1.06.64-2.08,1.07-3.46a30.45,30.45,0,0,1,.88,3c.24,1.35.93,1.79,2.16,1.61a22.65,22.65,0,0,1,2.8,0,19.55,19.55,0,0,1-2.2,1.72c-1.26.7-1.45,1.62-.85,2.93A20.54,20.54,0,0,1,72.12,73.34Z" transform="translate(-0.28 -0.3)"/><path class="cls-6" d="M136.76,61.53c.47,1.52.84,2.53,1.09,3.58a1.12,1.12,0,0,0,1.32,1c1-.06,2,0,3.48,0-1.12.88-1.81,1.53-2.59,2a1.5,1.5,0,0,0-.64,2.16c.37,1,.6,2,.91,3-.25,0-.35,0-.41-.07-2.86-2.61-2.85-2.61-5.8-.48-.24.18-.46.49-.82.34,0-.07-.12-.17-.1-.22,1.5-3.51,1.5-3.51-2.16-6.76,1.23,0,2.18-.07,3.11,0s1.41-.28,1.62-1.26S136.33,63,136.76,61.53Z" transform="translate(-0.28 -0.3)"/><path class="cls-6" d="M11.81,65.86c3.58,1.25,5.09-.48,5.32-4.22a9,9,0,0,1,1.23,3.2c.25.92.63,1.4,1.6,1.29a23.59,23.59,0,0,1,2.79,0c0,.18,0,.34,0,.36-3.07,1.48-3.51,3.83-2,6.84-1-.8-2-2-3.14-2.29S15.54,72.35,14.43,73c-.19.11-.35.22-.56.09s-.1-.11,0-.24c.51-1.26,1.44-2.71,1-3.86s-1.87-1.74-2.87-2.58Z" transform="translate(-0.28 -0.3)"/><path class="cls-6" d="M148.61,14.87c-.16,0-.3,0-.36-.06-1.74-1.73-3.51-2.84-5.48-.31-.2.26-.57.18-.86,0,1.14-3.55,1.14-3.55-1.68-5.92-.15-.12-.28-.26-.69-.64,1.36,0,2.37,0,3.37,0,.76.06,1.12-.26,1.31-1,.28-1.05.63-2.08,1.06-3.52.44,1.35.83,2.32,1.05,3.32s.6,1.28,1.5,1.2,1.93,0,2.92,0c0,.2,0,.32-.07.38-.93.95-2.53,1.35-2.9,2.6S148.65,13.44,148.61,14.87Z" transform="translate(-0.28 -0.3)"/><path class="cls-6" d="M90.55,15c.43-1.57,1.5-3,1-4.22s-1.9-1.74-2.91-2.59c.07-.08.14-.23.19-.22,3.12.59,5-.59,5-4.47.33.41.49.53.51.67.37,3.35,2,4.66,5.33,3.53l0,.49a20.87,20.87,0,0,1-2,1.55,1.8,1.8,0,0,0-.83,2.65c.26.63,1,1.56.28,2.08s-1.19-.49-1.65-.94c-1-1-1.78-.86-2.75,0A4.8,4.8,0,0,1,90.55,15Z" transform="translate(-0.28 -0.3)"/><path class="cls-5" d="M54.48,7.74c3.43,1.17,5.09-.35,5.29-4.09l.38.28c.32,1,.71,2,1,3a1.09,1.09,0,0,0,1.3,1c1-.06,2,0,3.07,0a1.74,1.74,0,0,1-.12.42c-.92.95-2.62,1.33-2.83,2.61s.58,2.59.94,3.92c-.17,0-.23,0-.26,0-2.14-2.11-4.28-3-6.48.7a7,7,0,0,1,.65-3.48A1.56,1.56,0,0,0,56.72,10c-.77-.5-1.47-1.13-2.2-1.7Z" transform="translate(-0.28 -0.3)"/><path class="cls-5" d="M48.11,73.22C48.05,73.09,48,73,48,73c.28-1.39,1.39-2.85.93-4.06S47,67.22,46,66.38c.1-.11.17-.25.22-.24,3.17.62,5-.73,5-4.56a5,5,0,0,1,.43.61c.55,1.24.41,3.11,1.42,3.71s2.5.13,3.76.13c.14.61-.25.71-.47.84-1.95,1.13-3.22,2.5-1.73,5a.87.87,0,0,1,0,.77c-.26.34-.6.07-.78-.15-1.77-2.19-3.38-1.41-5,.24A4.36,4.36,0,0,1,48.11,73.22Z" transform="translate(-0.28 -0.3)"/><path class="cls-6" d="M48.54,7.86c-1,1.42-2.73,1.79-3.09,3.12s.84,2.51.83,3.92c-.12,0-.18,0-.22,0-1.84-1.74-3.71-2.87-5.77-.31-.09.11-.39,0-.57.06s-.15-.21-.14-.27c.28-1.25,1.4-2.54.77-3.68s-1.89-1.62-2.88-2.41c.1-.12.15-.24.22-.26,1.3-.23,2.92.58,3.84-.4s.9-2.48,1.39-4C43.64,6.94,44.87,9.14,48.54,7.86Z" transform="translate(-0.28 -0.3)"/><path class="cls-6" d="M99,73.42c.43-1.41.68-2.4,1-3.34a1.35,1.35,0,0,0-.58-1.9,29.54,29.54,0,0,1-2.4-1.85,6.16,6.16,0,0,1,2.89-.2c1,.08,1.48-.34,1.7-1.36s.56-1.85.87-2.83c.18.13.3.17.31.23.42,3.24,1.88,5,5.41,3.68l-.12.52a12.15,12.15,0,0,1-1.76,1.4c-1.37.71-1.5,1.71-.92,3.08a3.63,3.63,0,0,1,.47,2.23c-1.28-.56-2.14-2.29-3.38-2.12S100.45,72.37,99,73.42Z" transform="translate(-0.28 -0.3)"/><path class="cls-6" d="M30.84,73c1.47-3.73,1.47-3.73-1.91-6.64a7.17,7.17,0,0,1,3-.19c.79,0,1.23-.2,1.42-1.1s.63-2.06,1-3.11c.13.12.25.18.27.27.53,3.13,1.88,5,5.13,3.75.2.61-.09.71-.29.84C37.59,68,36,69.21,37.57,71.86a.85.85,0,0,1,0,.76c-.26.34-.59.06-.78-.16-1.79-2.2-3.4-1.38-5,.28C31.57,72.94,31.33,73.26,30.84,73Z" transform="translate(-0.28 -0.3)"/><path class="cls-6" d="M29.21,14.92a1.77,1.77,0,0,1-.42-.15c-1.7-1.75-3.44-2.74-5.36-.32-.22.28-.56.22-.87.1-.14-.05-.09-.11,0-.25.3-1.23,1.43-2.5.77-3.65S21.4,9,20.41,8.25c.11-.12.19-.26.24-.25,3.16.65,4.91-.75,5-4.45.31.35.4.41.41.49C26.5,7.34,28,9,31.49,7.71l0,.51C30.71,8.8,30,9.45,29.22,10a1.52,1.52,0,0,0-.68,2.16A6.5,6.5,0,0,1,29.21,14.92Z" transform="translate(-0.28 -0.3)"/><path class="cls-6" d="M114.18,65.86c3.51,1.24,5.08-.42,5.29-3.93.31.21.46.25.46.31.36,3.36,2,4.74,5.28,3.72-.12.4-.13.54-.18.56-2.8,1.4-3.57,3.49-1.61,6.53l-.44.08a26.79,26.79,0,0,1-2.26-1.71,1.24,1.24,0,0,0-2,0c-.69.65-1.49,1.16-2.38,1.85a8.78,8.78,0,0,1,.76-3.13,1.46,1.46,0,0,0-.65-2,27.74,27.74,0,0,1-2.21-1.71Z" transform="translate(-0.28 -0.3)"/><path class="cls-6" d="M82.19,72.69c.29-1.33,1.38-2.7.84-3.85s-1.88-1.63-3.26-2.74c1.38,0,2.38-.06,3.36,0,.82.07,1.21-.26,1.41-1.08.27-1.06.63-2.08,1-3.12.16.07.22.08.22.11.53,3.17,1.84,5.22,5.31,3.88,0,.35,0,.49,0,.54-.94.93-2.52,1.36-2.9,2.61s.86,2.51.82,4c-.2-.08-.38-.1-.47-.2-1.74-1.81-3.5-2.51-5.38-.21a.67.67,0,0,1-.43.14A1.7,1.7,0,0,1,82.19,72.69Z" transform="translate(-0.28 -0.3)"/><path class="cls-5" d="M54.47,46.81c1.52-.09,3.12.3,4-.38s1-2.43,1.49-3.89a8.24,8.24,0,0,1,1,2.91c.25,1,.68,1.37,1.64,1.28s1.82,0,3.22,0a29.89,29.89,0,0,1-2.55,2,1.54,1.54,0,0,0-.64,2.17,7,7,0,0,1,.68,3.34c-2.25-3.49-4.42-2.73-6.59-.44,0,0-.19,0-.28-.07.39-1.34,1.24-2.75,1.05-4S55.51,48.07,54.47,46.81Z" transform="translate(-0.28 -0.3)"/><path class="cls-5" d="M37,47c2-.62,3.6.35,4.52-.68s.92-2.48,1.4-4c.58,1.56.75,3.32,1.64,4s2.46.28,4.16.38c-.95.74-1.59,1.33-2.31,1.78A1.7,1.7,0,0,0,45.64,51a5.32,5.32,0,0,1,.58,3c-2.22-3-4.41-3-6.47,0-.16-.35-.25-.47-.23-.52C40.87,50.65,40.78,48.3,37,47Z" transform="translate(-0.28 -0.3)"/><path class="cls-6" d="M73.59,54c.35-1.7,1.34-3.17.93-4.37S72.68,47.87,71.69,47c.28-.47.67-.28,1-.29,3-.06,3-.06,3.91-3.12.1-.31.22-.61.36-1a3.89,3.89,0,0,1,.94,2.36c.27,1.52,1,2,2.37,1.79a4.53,4.53,0,0,1,2.27.28,24.34,24.34,0,0,1-2.28,1.8,1.36,1.36,0,0,0-.61,1.89c.36,1,.62,2,.93,3-.21,0-.34,0-.38,0C78,51.09,75.79,51.3,73.59,54Z" transform="translate(-0.28 -0.3)"/><path class="cls-6" d="M29.47,54A27.2,27.2,0,0,1,27,52.1a1.32,1.32,0,0,0-2.13,0c-.69.65-1.49,1.17-2.31,1.81a3.21,3.21,0,0,1,.42-2c.91-1.82.46-3.06-1.24-3.93a7.59,7.59,0,0,1-1.19-1c.15-.16.23-.29.28-.28,3.21.71,4.71-1,4.93-4.66.89,1.74.7,3.63,1.75,4.33s2.48.28,3.94.37a7.71,7.71,0,0,1-2.18,1.88,1.54,1.54,0,0,0-.69,2.17A28,28,0,0,1,29.47,54Z" transform="translate(-0.28 -0.3)"/><path class="cls-6" d="M99.78,46.71c-1.14,1.35-2.92,1.72-3.17,3s.6,2.6,1,3.91c0,0,0,.1-.06.15-1.12-.77-2.23-2.14-3.35-2.14s-2.22,1.36-3.4,2.18a6.74,6.74,0,0,1,.72-2.89,1.61,1.61,0,0,0-.75-2.29c-.7-.44-1.33-1-2.16-1.66a5,5,0,0,1,2.78-.23c1.11.11,1.59-.37,1.84-1.45.2-.9.52-1.78.83-2.78a6.61,6.61,0,0,1,1.08,2.88c.26,1.07.74,1.43,1.73,1.34S98.58,46.71,99.78,46.71Z" transform="translate(-0.28 -0.3)"/><path class="cls-6" d="M105.82,47.05c.12-.38.36-.31.54-.33,1.12-.12,2.53.49,3.3-.29s.84-2.18,1.23-3.32l.29-.84a25.61,25.61,0,0,1,1,3.12c.22,1.1.74,1.43,1.73,1.34a6.27,6.27,0,0,1,2.72.31,19.09,19.09,0,0,1-2.15,1.7c-.94.55-1,1.21-.64,2.16s.58,1.86.88,2.83c-.19,0-.32,0-.36,0-1.88-1.91-3.79-3-5.91-.33-.11.15-.47.08-.75.11.4-1.39,1.41-2.8,1-3.91S106.79,47.86,105.82,47.05Z" transform="translate(-0.28 -0.3)"/><path class="cls-5" d="M122.43,47.15c1.76-.82,3.43.24,4.3-.74s1-2.59,1.54-4.15a27.91,27.91,0,0,1,.91,3,1.54,1.54,0,0,0,2,1.47,5.54,5.54,0,0,1,2.57.32,23.68,23.68,0,0,1-2.05,1.57,1.69,1.69,0,0,0-.74,2.43,4.09,4.09,0,0,1,.54,2.39c-.18,0-.38,0-.45,0-1.93-2.24-3.8-2-5.64.12a1.73,1.73,0,0,1-.52.3c0-.18-.08-.31,0-.38C126.19,50.62,126,48.33,122.43,47.15Z" transform="translate(-0.28 -0.3)"/><path class="cls-5" d="M148.75,53.59a4.09,4.09,0,0,1-2.14-1.33c-1-1-1.74-.84-2.65.06a22,22,0,0,1-2,1.61c0-1.59,1.19-2.93.92-4.2S140.79,48.1,140,47c.06-.11.08-.2.1-.2,3,.43,5-.57,4.94-4.43a2.73,2.73,0,0,1,.85,1.6,10.38,10.38,0,0,1,.43,1.41A1.38,1.38,0,0,0,148,46.73a6.48,6.48,0,0,1,2.76.31,25.18,25.18,0,0,1-2,1.57A1.66,1.66,0,0,0,148,51,19.12,19.12,0,0,1,148.75,53.59Z" transform="translate(-0.28 -0.3)"/><path class="cls-5" d="M5.45,53.93c0-1.6,1.2-2.93.93-4.22S4.31,48.11,3.5,47c.12-.33.35-.26.54-.28,1.12-.12,2.52.5,3.28-.28s.83-2.2,1.21-3.34c.07-.2.18-.39.29-.64.08.11.17.18.18.26.44,3.2,1.86,5,5.53,3.73a4.56,4.56,0,0,1-1.87,1.86,2.14,2.14,0,0,0-1,3.19c.26.53.81,1.43.32,1.81s-1.18-.43-1.61-.87c-1.06-1-2-1.15-3,0A15,15,0,0,1,5.45,53.93Z" transform="translate(-0.28 -0.3)"/></g></g></svg>