<svg id="레이어_1" data-name="레이어 1" xmlns="http://www.w3.org/2000/svg" xmlns:xlink="http://www.w3.org/1999/xlink" viewBox="0 0 292.4 767.85"><defs><style>.cls-1{fill:none;}.cls-2{fill:#252e35;}.cls-3{clip-path:url(#clip-path);}.cls-4{fill:#131c21;}.cls-5{isolation:isolate;font-size:60px;fill:#fff;font-family:Jost-Light, Jost*;}</style><clipPath id="clip-path"><rect class="cls-1" width="292.4" height="767.85"/></clipPath></defs><title>britainair</title><rect class="cls-2" width="292.4" height="767.85"/><g class="cls-3"><path class="cls-4" d="M34.24,582.87c11.28-35.31,10.09-59,10.09-59s-.3-6.23-1.78-8.9c-1.48-2.37-1.19-6.23-1.19-6.23-15.42-13.05-15.72-32.64-15.72-32.64s-13.35-2.37-34.42-18.39-7.42-19.58-7.42-19.58C6.65,432.73,35.73,466,35.73,466c6.23-5.35,38-.6,38-.6a104.69,104.69,0,0,0,12.76-12.16c13.06-21.37,66.17-49,66.17-49,24.92-16,18.1.89,18.1.89C147.88,447,94.18,470.42,94.18,470.42a47.71,47.71,0,0,1,19.28,7.12l40.35,24.92c4.75,0,7.13,4.75,7.13,4.75l35,23.14c8.3-3.56,19-2.67,19-2.67,15.42,1.78,27.29,22.55,27.29,22.55,11,8.31,21.37,17.5,21.37,17.5l8-.59C266,564.17,252,552,252,552l-7.41-5c-4.75-5.35,2.07-3.27,2.07-3.27l39.46,21.66s378.9-61.71,373-30.26-292.84,86-292.84,86c50.43,5.94,43.61,8.9,43.61,8.9-2.67,6.83-66.76,3.86-66.76,3.86-.59,22.55-9.2,24-9.2,24l-8-.59,1.49,6.53c0-1.78,2.37-1.78,2.37-1.78,3.26,1.18,3.26,6.52,3.26,6.52s.3,6.83-3.56,6.83a4,4,0,0,1-4.15-3.56l-1.48-1.19v-6.53l-2.38-7.71c-47.77-3.86-112.74-19.88-112.74-19.88l-14.54.3-.6,7.71h-1.18v3.26c11.86,1.19,14.83,10.39,14.83,10.39a69.23,69.23,0,0,1,0,28.19s-3.86,15.13-17.8,13.05-16-19.88-16-19.88c-6.23-.29-6.23-3.86-6.23-3.86V662.09c2.07-16.32,10.68-17.51,10.68-17.51a6.39,6.39,0,0,0,4.75-7.42H167.17a5.85,5.85,0,0,0-1.19,2.67c-27.59,2.08-64.68-4.45-64.68-4.45l-6.23,13.35c7.71,13.06,0,30.27,0,30.27l-6.53-.3C81.12,701,63.62,692.65,63.62,692.65S50,684,53.83,664.76s19.28-17.51,19.28-17.51c1.78-2.37,8-3.56,8-3.56A9.16,9.16,0,0,1,88,639.24l2.37-8.9a5.67,5.67,0,0,1-3.26-6.53l-49.26-9.2S36,634.2,30.09,633.9,28,613.13,28,613.13l-10.09-1.78C7,614,5.76,609,5.76,609s-16-4.45-70.91-14.84-46.29-16-46.29-16c5.64-2.37,86.05.59,86.05.59l-22.85-9.49c-3.56-2.38.59-3.27.59-3.27L.12,581.38Zm11.57-19.29s-4.15,19.58-2.37,19.58c1.48.3,15.43,0,15.43,0A48.12,48.12,0,0,1,45.81,563.58ZM203.66,534.8c8-5,6.83-6.53,6.83-6.53-5.05-.89-13.65,2.38-13.65,2.38Zm5.34-.59s-1.78,2.07,1.49,4.15,10.38,7.42,10.38,7.42,3,1.48,1.78-2.08c-1.19-3.86-4.75-9.79-4.75-9.79s-2.67-4.45-5.34-2.37S209,534.21,209,534.21Zm7.72-5.64s5.34,3.86,9.79,18.69c0,0,7.41,6.23,16.32,12.17C242.83,559.43,238.08,535.69,216.72,528.57Z"/></g><text class="cls-5" transform="translate(70.99 185.72)">Britain</text></svg>