<svg id="레이어_1" data-name="레이어 1" xmlns="http://www.w3.org/2000/svg" xmlns:xlink="http://www.w3.org/1999/xlink" viewBox="0 0 292.4 767.85"><defs><style>.cls-1{fill:none;}.cls-2{fill:#344256;}.cls-3{clip-path:url(#clip-path);}.cls-4{fill:#1e2d3f;}.cls-5{isolation:isolate;font-size:60px;fill:#fff;font-family:Jost-Light, Jost*;}.cls-6{letter-spacing:-0.02em;}</style><clipPath id="clip-path"><rect class="cls-1" width="292.4" height="767.85"/></clipPath></defs><title>franceair</title><rect class="cls-2" width="292.4" height="767.85"/><g class="cls-3"><path class="cls-4" d="M57.92,434.93c9-7.94,59.41-49.83,88.71-70.64,29.29-20.53,9.85,4.11,9.85,4.11s-44.9,38.88-56.67,48.19c-11.5,9.31-29,20.26-29,20.26,26.56.82,31.21,5.75,31.21,5.75,41.34,25.74,118,83,118,83s9.86-5.48,19.72-4.11,34.5,30.12,34.5,30.12l284.19-26s63.52-9.86,70.1,5.75c6.84,15.6-34.23,28.2-34.23,28.2-91.17,23.55-237.1,45.18-237.1,45.18,43,.54,48.18,3.55,48.18,3.55s13.42,4.11,1.92,7.12S338,617.28,338,617.28v14.24a59.5,59.5,0,0,1-1.64,10.67c-1.65,5.21-14,4.39-14,4.39L318.84,649V654c2.19.27,2.74,3.56,2.74,3.56v3.83s1.37-.55,1.37,1.37c0,2.19-1.64,1.92-1.64,1.92l-.55,1.37s-.82,3-3,3-4.11-2.19-4.11-7.12a6.51,6.51,0,0,1,4.11-6.3v-1.09h-.55v-5.21h-1.09l-.28-2.46a417.16,417.16,0,0,1-54.21-7.39l-3,7.94c6,8.21,3,26.83,3,26.83l-11,7.12c-3.29,25.19-21.36,17.25-21.36,17.25s-13.41-7.94-14.51-30.67,12-27.93,12-27.93h11.23c3-2.19,8.48-1.91,8.48-1.91V634l-12-.55s-20,6.3-53.67,1.1S142,616.46,142,616.46l-68.72-9.58-14,32.3s14,8.22,8.76,29-20.26,18.61-20.26,18.61-8.22-.27-14-5.75c-6-5.47-5.48-18.07-5.48-18.07l-3.29-2.73c4.93-27.66,19.72-23.82,19.72-23.82.54-2.74,2.46-2.47,2.46-2.47L59,604.69S-16.83,594.83-50,585c-33.12-9.58-29.29-12.59-29.29-12.59L88,567.18C53.54,536.78,43.13,519,43.13,519c0,15.6-20,75.84-29,82.41-9.31,6.84-10.4,0-10.4,0s-1.92,4.65,2.74-46.82C11.1,502.83,30.54,476,30.54,476c-16.15-14.78-16.7-27.38-16.7-27.38-18.89-6-29.57-18.89-38.06-26.56s-6.57-13.14-6.57-13.14.55-2.74,1.64-3.83c1.37-1.37,5.48-.55,5.48-.55C11.1,415.77,22.6,431.65,22.6,431.65,39.3,426.17,57.92,434.93,57.92,434.93Zm167.56,94.74c14.24-6.3,13.14-7.67,13.14-7.67a30.08,30.08,0,0,0-18.07,4.11Zm25.46,17.79c2.19,1.65,1.37-.55,1.37-.55-1.09-14-6.84-21.08-6.84-21.08s-4.11-3.83-5.48-2.19C238.9,525.29,227.4,531,227.4,531,234.52,534.87,248.48,545.82,250.94,547.46Zm-3.83-21.9A38.9,38.9,0,0,1,255.32,548a4.94,4.94,0,0,0,1.65,2.74l2.46,2.46h8.76C267.92,553.21,268.19,540.62,247.11,525.56Zm18.07,16.7s3.56,7.67,4.11,9.86h3S271.48,549.65,265.18,542.26Z"/></g><text class="cls-5" transform="translate(63.94 185.72)"><tspan class="cls-6">F</tspan><tspan x="27.6" y="0">rance</tspan></text></svg>