<svg id="레이어_1" data-name="레이어 1" xmlns="http://www.w3.org/2000/svg" xmlns:xlink="http://www.w3.org/1999/xlink" viewBox="0 0 292.4 767.85"><defs><style>.cls-1{fill:none;}.cls-2{fill:#2b2b2b;}.cls-3{clip-path:url(#clip-path);}.cls-4{fill:#141311;}.cls-5{isolation:isolate;font-size:60px;fill:#fff;font-family:Jost-Light, Jost*;}.cls-6{letter-spacing:0em;}</style><clipPath id="clip-path"><rect class="cls-1" width="292.4" height="767.85"/></clipPath></defs><title>ermanyair</title><rect class="cls-2" width="292.4" height="767.85"/><g class="cls-3"><path class="cls-4" d="M51.5,444.86s14.31-84.46,15.12-86.08,4-3.24,4-3.24c15.92,3,7.83,96.06,7.56,100.65S65,466.72,65,466.72c50.73,17,76.9,32.38,84.19,34.81s18.08,7,18.08,7l26.17,15.38,1.08-1.35,22.13-1.34c3.78,1.07,32.92,23.2,33.19,23.74S258.21,556,258.21,556l18.62,17,3.24-.54s255.27-30.77,274.7-31,64,.27,73.67,10.53S559.9,584.1,559.9,584.1l-214,37.78v17c1.89,1.08,1.62,1.89,1.62,1.89-.54,5.12-11.34,5.66-11.34,5.66h-11.6v4.05c5.67.81,5.13,8.91,5.13,8.91s.27,8.63-4.86,7.55c-5.4-1.08-2.7-14.84-2.7-14.84v-5.4c-13,3.24-81.76-7.55-81.76-7.55l-6.48,20.78,5.13-21.32-32.11-4.05-.27,4.59s13-1.08,18.35,22.13-2.16,33.46-2.16,33.46-5.4,8.9-17.54,4.32c-11.88-4.59-15.92-32.66-15.92-32.66s-8.91-8.36-4.86-18.89,9.44-5.12,9.44-5.12v-7.56h-7a26.08,26.08,0,0,1,7,5.13c-11.06-5.13-75.55-14.57-75.55-14.57l-18.35,23.2c6.47,17-5.4,30.5-5.4,30.5l-5.4-2.43s.27.81-5.39,9.17C78,694.2,62,691.23,62,691.23c-17.27-9.45-8.64-33.73-8.64-33.73s2.43-8.64,12.69-16.46c10-7.83,19.69-.81,19.69-.81a7.68,7.68,0,0,1,5.4.81l14-21.86C58.52,613-41,592.47-41,592.47s-43.72-11.34-37.78-15.39S-61,573.85-61,573.85c1.89-2.16,24.28-20.51,33.73-25.64s45.06-31.3,45.06-31.3c-10.25-14.3-5.66-32.38-5.66-32.38,7-21,37.51-20,37.51-20C49.89,458.62,51.5,444.86,51.5,444.86ZM-51.31,574.66,86,583l-2.69-7.29s-41.83-31.57-43.72-38.58c0,0-14.57-9.72-17.54-14C22.36,523.38-47.8,573.58-51.31,574.66Zm258.79-42.91,6.2-9.18-18.89,1.62V525Zm23.2,21.59-6.74-23.75L222.32,528h-4.86l-3.78,7.29Zm-4.58-23.75,7,23.48,20,14.57L247.41,545Zm25.36,22.13,5.94,5.66v-2.69l-6.75-8.64Zm2.7,14.84h1.89l.81-7.56-5.13-4.85Z"/></g><text class="cls-5" transform="translate(33.88 185.72)">Germa<tspan class="cls-6" x="168.6" y="0">n</tspan><tspan x="198.6" y="0">y</tspan></text></svg>