<svg id="레이어_1" data-name="레이어 1" xmlns="http://www.w3.org/2000/svg" xmlns:xlink="http://www.w3.org/1999/xlink" viewBox="0 0 292.4 767.85"><defs><style>.cls-1{fill:none;}.cls-2{fill:#263324;}.cls-3{clip-path:url(#clip-path);}.cls-4{fill:#121e11;}.cls-5{isolation:isolate;font-size:60px;fill:#fff;font-family:Jost-Light, Jost*;}</style><clipPath id="clip-path"><rect class="cls-1" width="292.4" height="767.85"/></clipPath></defs><title>italyair</title><rect class="cls-2" width="292.4" height="767.85"/><g class="cls-3"><path class="cls-4" d="M57.37,380.25C68.64,350.56,69.46,375,69.46,375c5.78,37.66-14.57,89.9-14.57,89.9a64.94,64.94,0,0,1,10.45,4.12c9.35-1.38,23.09,1.37,23.09,1.37,51.14,12.38,116.29,57.46,116.29,57.46,6.05-7.42,15.4-3.85,15.4-3.85,14.57,6.88,38.21,35.74,38.21,35.74l4.4,1.1S485.13,540,550.29,534.2s74.77,6.6,74.77,6.6c24.2,19.52-63.78,32.17-63.78,32.17L300.12,607.33,313,620.53c10.72,0,73.12,3.85,69,8.79S321.29,634,321.29,634l5.22,8.25-6.32,1.09v1.1l-3.3,3h-.83l1.93-3.85c-3-2.2-4.4,0-4.4,0v5c3.85.27,3.57,5.77,3.57,5.77a1.33,1.33,0,0,1,0,2.2s.28,8-3.85,6.87-4.12-8-4.12-8c-1.93-1.65-1.1-3.3-1.1-3.3v-2.2c-6.6,0-7.15-6.32-7.15-6.32a267.58,267.58,0,0,1-36.84-5.77l-1.65,23.36-.82,1.93v11.54l-9.35,2.2c-3.3,12.65-10.44,13.48-10.44,13.48h-9.63s-10.72-5.5-11-24.2c-.55-18.69,9.62-25,9.62-25l-32.17-.83-11.54-5.22-6.88-6.05V616.4l-23.36-3s.27-.55,0,5.5-4.4,2.2-4.4,2.2l-9.07-9.35-62.13-6.87-15.4,11-1.65,6c-1.65,6.32-2.47,5.77-2.47,5.77a55.9,55.9,0,0,0-2.2,7.43c-.83,3.85,3,5.5,3,5.5,3.3,2.47.55,6.59.55,6.59a17.7,17.7,0,0,1,.83,5.23l-.28,9.07s-1.37,17.32-17.32,17.59c-16.22.28-16.77-16.22-16.77-16.22L23,659.29s2.75-16.22,10.73-20.07A47.16,47.16,0,0,0,47.2,629.05L56,605.41c-1.37-.55-3.85-3.58-3.85-3.58-51.4-2.2-82.19-7.7-82.19-7.7-65.16-12.64-47-18.41-47-18.41l110.79-1.93L21.9,568.84c-4.94-4.4,2.48-3.3,2.48-3.3l23.09,8.53h25c-8.52-3.3-11.82-7.7-11.82-7.7-5.78-8.52,3.3-15.12,3.3-15.12-1.1-1.65-4.4-3.85-4.4-3.85-20.07-12.1-19-14-19-14V522.93c-8.8-6-17.32-15.67-17.32-15.67C6.51,517.71-26.21,541.9-45.45,556.75s-.55-2.2-.55-2.2l63.23-55c-7.15-9.34-5-22.26-5-22.26,4.4-15.4,26.39-14.3,26.39-14.3C40.05,442.93,45.82,409.94,57.37,380.25ZM70,603.21l-2.47,8.24,9.9-7.42Zm141.58-71.48,7.15-7.15a11.88,11.88,0,0,0-12.64,3.85Zm20.62,15.94c-5.22-25.29-11.82-21.44-11.82-21.44l-6,6.32Zm1.65.55,2.75,3.3c-.27-1.92,2.2-3,2.2-3l-4.4-11.82L228.64,532C229.74,532.83,233.86,548.22,233.86,548.22Zm2.2-10.17,4.13,10.72s1.92-.82,5.77,3.58l-2.2-6.05Z"/></g><text class="cls-5" transform="translate(99.76 185.72)">Italy</text></svg>