<svg id="레이어_1" data-name="레이어 1" xmlns="http://www.w3.org/2000/svg" xmlns:xlink="http://www.w3.org/1999/xlink" viewBox="0 0 292.4 767.85"><defs><style>.cls-1{fill:none;}.cls-2{fill:#513131;}.cls-3{clip-path:url(#clip-path);}.cls-4{fill:#211314;}.cls-5{isolation:isolate;font-size:60px;fill:#fff;font-family:Jost-Light, Jost*;}</style><clipPath id="clip-path"><rect class="cls-1" width="292.4" height="767.85"/></clipPath></defs><title>japanair</title><rect class="cls-2" width="292.4" height="767.85"/><g class="cls-3"><path class="cls-4" d="M42.3,538.64c-9.4-10.28-6.46-33.19-6.46-33.19-12.33-10-10-22.61-10-22.61l-.88-.59c-17.92-9.69-25.55-16.44-35.54-23.2-9.69-6.75-4.11-12.33-4.11-12.33,18.79-2.64,54.92,26.14,54.92,26.14a65.42,65.42,0,0,1,12.92.88c13.51-17,38.47-14.39,38.47-14.39s18.8-15.27,44.64-33.48,26.14-11.75,26.14-11.75c6.16,10-45.23,54-45.23,54l19.68,12.33a38.2,38.2,0,0,1,11.74,9.69l10.58,2.65c14.39-7.05,26.13-3.82,26.13-3.82,40.53,21.73,58.15,58.15,58.15,58.15s343.61-45.52,374.15-49.34,30.54,17.33,30.54,17.33c3.53,30-22.91,33.48-22.91,33.48l-318,62,1.18,4.41c5.28,1.76,20.55,1.76,20.55,1.76s65.79,1.47,94.86,6.75,0,7.35,0,7.35l-86.93,2.64s0,11.45,2.06,14.39a9,9,0,0,1,1.47,5.28h-6.46l-3.53-2.34h-.88v2.64h-.88l.29,6.17a3.62,3.62,0,0,1,1.47.29s-3.23-3.52.29.29a5.19,5.19,0,0,1,0,7.35,5,5,0,0,1-3.52-.3c-1.76-.88-2.06-6.46-2.06-6.46l-5.58-10c-17.91-1.18-56.09-10.58-56.09-10.58l-.59,8.52c8.52,20.56,0,39.65,0,39.65l-5-.88C256.39,696.64,247,699,247,699s-19.09,5.87-22.32-21.73c-3.23-27.32,18.79-43.17,18.79-43.17-25-10.87-90.16-19.39-90.16-19.39L43.18,598c-3.81,20.85-6.75,27.32-6.75,27.32s-2.94,5.87-5.87,5,.88-25.26.88-25.26l-7,31.43c3.52,4.4,1.47,11.45,1.47,11.45C34.37,658.46,29.09,672,29.09,672s-8.23,19.38-22.91,14.68S-7.33,670.21-7.33,670.21c-6.46-2.64-7.64-7.05-7.64-7.05C-14.08,642.6,5.89,640,5.89,640c1.17-8.52,4.11-9.4,4.11-9.4L20.57,595c-135.09-21.15-136.85-36.42-136.85-36.42l153.59,1.18C38.48,555.67,42.3,538.64,42.3,538.64Zm7.64,22.91c0,.58,17.91,0,17.91,0C60.51,558,51.7,550.39,51.7,550.39,50.53,559.49,49.94,561,49.94,561.55ZM166.82,494c.3-.59,11.75-4.7,11.75-4.7-9.1-.29-17.33,4.11-17.62,4.11Zm18.5,7.93,2.35-7.93-6.16-4.11s4.4-.29-.3,0c-5,.29-10.28,6.75-10.28,6.75Zm1.47,1.76.3,7.34L195,517.2l-2.94-17.62A9.09,9.09,0,0,0,186.79,503.69Zm6.46-5.28L196.78,519l12.33,8.23-5-20Zm17.92,29.66,10.28,7-3.23-16.74-12.05-10Zm-20-29.37v-1.76l-1.76-1.47s-1.47,3.82-1.47,4.11Zm28.19,20,4.41,17.62,16.44,10.87h2.35S230.26,526.6,219.39,518.67Z"/></g><text class="cls-5" transform="translate(83.35 185.72)">Japan</text></svg>