<svg id="레이어_1" data-name="레이어 1" xmlns="http://www.w3.org/2000/svg" xmlns:xlink="http://www.w3.org/1999/xlink" viewBox="0 0 292.4 767.85"><defs><style>.cls-1{fill:none;}.cls-2{fill:#272d38;}.cls-3{clip-path:url(#clip-path);}.cls-4{fill:#141a23;}.cls-5{isolation:isolate;font-size:60px;fill:#fff;font-family:Jost-Light, Jost*;}</style><clipPath id="clip-path"><rect class="cls-1" width="292.4" height="767.85"/></clipPath></defs><title>usaair</title><rect class="cls-2" width="292.4" height="767.85"/><g class="cls-3"><path class="cls-4" d="M56.36,462,80,470l79-8.87s7.53,1.34,7.53,9.14-11,10.75-11,10.75l-32,7.52c42.47,21.78,62.9,36,62.9,36,8.87-2.41,23.12-1.61,23.12-1.61,34.41,5.92,42.47,40,42.47,40,5.38,12.64,11.56,16.13,11.56,16.13l18.55-1.88c2.68-3.23,6.72-.81,6.72-.81l9.14-.8a5.49,5.49,0,0,1,7.25-1.08l7.8-.8c3.76-2.69,9.14-1.08,9.14-1.08s259.67-32,278.75-33.6c19.35-1.61,24.73,4.84,24.73,4.84,8.06,1.88,0,5.64,0,5.64.54,4.3-4.57,12.64-7.79,19.63s-8.88,6.18-8.88,6.18L349.09,620.3s29.57,1.61,43.81,1.34,13.71,3.23,15.6,6.19-.54,3.22-.54,3.22l-74.73,3s-.27,4.57-.81,15.86-27.95,4.57-27.95,4.57l1.34,3.49-10.75-1.34-.27,2.69h-3a16.66,16.66,0,0,1,4.57,7v8.06c-.53,5.38-5.64,4.3-5.64,4.3s-4.57-.54-4.57-7.8,4.57-8.6,4.57-8.6l-5.38-5.37h-3.76l.81,18L271.14,662c2.68,7.53,0,24.2,0,24.2s-5.38,22-22.32,15.32-12.9-37.9-12.9-37.9c-34.4.53-48.65-13.71-52.95-19.63s.8-7.25.8-7.25l14.52-.54L195.87,634c-49.73-5.65-126.34-18-126.34-18L65,627.29l2.42,2.42v1.07h-3l1.35,1.88-3.23,1.08-4,9.41v9.41c11.56,24.73-5.38,36.28-5.38,36.28s-22.31,9.41-27.41-9.4c-5.38-18.55,4.3-29,4.3-29l21.23-37.1S62,616-6.81,605.78-79.39,584-79.39,584l175.26,3.5c-53.22-39-56.18-61-56.18-61L38.62,526s-7,43-11,79.57S16,632.4,16,632.4s-1.88-12.91,9.14-62.64,8.87-55.91,8.87-55.91c-4.57-3-18.55-18-18.55-18l-59.4,9.68s-10.22,1.34-11.29-2.42c-.81-4,8.6-8.87,8.6-8.87,3-2.15,54.83-9.14,54.83-9.14a25,25,0,0,1-1.88-17.47c4.84-12.9,30.38-10.22,30.38-10.22s8.33-37.63,15.86-74.19c7.52-36.29,16.93-29.57,16.93-29.57,10.22,4.84-7,108.6-7,108.6Zm140.32,66.67s6.18,1.61,8.87,10.21,7.79,9.68,7.79,9.68V535.36s-3-9.14-5.1-10.76C206.35,523,196.68,528.64,196.68,528.64Zm14.24-5.11s4.84,4.57,7.8,20.16L251,562.51C251.24,562.51,242.37,530,210.92,523.53Zm-23.65,1.07,6.72,3.77a45.72,45.72,0,0,1,14-5.11C205.82,522.19,187.27,524.6,187.27,524.6Z"/></g><text class="cls-5" transform="translate(93.22 185.72)">USA</text></svg>