<svg id="레이어_1" data-name="레이어 1" xmlns="http://www.w3.org/2000/svg" xmlns:xlink="http://www.w3.org/1999/xlink" viewBox="0 0 292.4 767.85"><defs><style>.cls-1{fill:none;}.cls-2{fill:#352525;}.cls-3{clip-path:url(#clip-path);}.cls-4{fill:#211314;}.cls-5{isolation:isolate;font-size:60px;fill:#fff;font-family:Jost-Light, Jost*;}</style><clipPath id="clip-path"><rect class="cls-1" width="292.4" height="767.85"/></clipPath></defs><title>ussrair</title><rect class="cls-2" width="292.4" height="767.85"/><g class="cls-3"><path class="cls-4" d="M72,427.61c5.74-4.38,38.8-28.15,38.8-28.15C155.56,368,143,372.69,167.58,356.84c24.86-16.12,10.11,3.55,10.11,3.55S154.74,382,129.6,396.18a197.51,197.51,0,0,0-42.35,33.89c16.39,3,37.16,14.2,37.16,14.2l53.82,33.06c9.84.28,31.15,20.5,31.15,20.5,7.65-4.92,20.77-.55,20.77-.55s15.57,12.3,24.59,18.85,26.5,28.42,26.5,28.42h1.64S536.17,524.6,604.2,517.23s52.74,19.67,52.74,19.67-5.2,7.65-38.8,21.58-230.06,48.37-230.06,48.37,65.84,3.27,59.29,10.92-76,4.65-76,4.65c-.27,26.78-10.66,26.78-10.66,26.78v1.64L352,652.2c-.27-6.56-3.83-4.92-3.83-4.92v3.28h-.82v1.1c2.19,0,2.46,5.19,2.46,5.19v8.47s.28,3.28-4.91,3.28-5.2-3-5.2-3v-3.28h-.54V660.4l.27-.27v-1.92h-.55v-2.46h-.54V652.2l-4.92,1.09a11.52,11.52,0,0,1,1.64-6.28,45.19,45.19,0,0,1-10.93-1.09c-.27,16.66-2.73,35.24-2.73,35.24l-9.57,2.19c-9,35.52-29,17.49-29,17.49s-7.1-7.65-9-21.86,2.73-29.51,2.73-29.51,9,.27-20.77-1.09-40.71-26.23-40.71-26.23l-10.93-.82v2.18l-3.55-3.28-43.72-5.73c-.27,2.73-1.36,10.93-1.36,10.93L143,612.31l-58.75-8.47L72.49,609.3h-3l-7.38,35c10.11,15.3-.82,32.51-.82,32.51S55.55,688.54,40,687.45c-15.3-1.09-18.58-18.31-18.58-18.31l-6.83-1.36c-1.37-4.1,1.09-14.21,1.09-14.21s8.47-15,15-16.4c6.56-1.09,9.56-7.1,9.56-7.1L54.73,599.2c-57.92-11.48-65-13.67-65-13.67C-68.77,570.23-45.81,567-45.81,567l146.72-8.74c-38-32.51-46.18-48.63-46.18-48.63C36.7,622.15,12.93,617,12.93,617s-5.74,0,1.64-54.1,22.68-81.15,22.68-81.15c-21.59-17.22-24-38.53-24-38.53a111.55,111.55,0,0,1-27.87-20.76c-13.93-13.94-1.91-19.95-1.91-19.95C-4.83,398.64,22.77,426,22.77,426,39.43,416.13,72,427.61,72,427.61ZM215.39,502.2c3.56-4.1,11.21-4.37,11.21-4.37-9.84-2.74-16.94,1.09-16.94,1.09Zm25.69,16.94s-4.37-17.49-10.11-18.58-12,3-12,3S223.32,504.11,241.08,519.14Zm4.37,1.91,18.31,12.3c-3.56-14.21-27-29.51-27-29.51C240.26,507.66,245.45,521.05,245.45,521.05Zm16.12,3s3.83,10.38,10.11,14.75a75.14,75.14,0,0,1,7.38,5.47S267.85,529.52,261.57,524.06ZM71.4,602.2s-1.09,3.83-.82,5.19,9.29-3.82,9.29-3.82A42.72,42.72,0,0,0,71.4,602.2Z"/></g><text class="cls-5" transform="translate(80.89 185.72)">USSR</text></svg>