<svg xmlns="http://www.w3.org/2000/svg" viewBox="0 0 115 45.66"><defs><style>.cls-1{fill:#3d2d18;}.cls-2{fill:#19150e;}</style></defs><title>icon2</title><g id="레이어_2" data-name="레이어 2"><g id="레이어_1-2" data-name="레이어 1"><rect class="cls-1" width="115" height="45.66"/><path class="cls-2" d="M72.7,6.36a1.74,1.74,0,0,1-1,0,.75.75,0,0,1,.16-.45c-.13-.17-.31-.08-.46-.08-1.31,0-2.63.05-3.94,0-.82.07-1.64,0-2.47,0a.7.7,0,0,1-.53,0c0-.21,0-.33.29-.32.54,0,1.08,0,1.62,0a2.23,2.23,0,0,1,.63,0c.93,0,1.86,0,2.79,0h.5a4.54,4.54,0,0,0,1.56,0c.27-.08.55,0,.81-.07a21.31,21.31,0,0,1,2.52-.16c.44-.06,1,.25,1.24-.45.11-.12.27,0,.4-.08l.23.17c0,.1.14.06.21.06,1.51,0,3,0,4.54,0,.09,0,.2,0,.27-.07.42-.33.83-.45,1.26,0a.53.53,0,0,0,.56.09c.38-.15.39.07.49.33.15.41-.15.75-.1,1.14,0,.06-.41,0-.64,0l-.28,0c-.75-.09-1.49,0-2.23,0a.14.14,0,0,0-.14.11c-.09.28-.34.49-.35.8a.15.15,0,0,1-.19.12.26.26,0,0,1-.17-.22c0-.72-.6-.65-1.06-.67a.71.71,0,0,0-.8.83c.08.38.15.68-.41.62,0,0-.14.09-.17.15a.53.53,0,0,1-.44.32,4.52,4.52,0,0,1,0,2,2.46,2.46,0,0,1,0-.87c0,.2-.11.55,0,.87-.13.14-.34,0-.49.14a3.11,3.11,0,0,1,.83.43,1.24,1.24,0,0,0,1,.05c.17-.05.07-.35,0-.53s0-.26,0-.39c0-.34.18-.64.17-1,0-.07,0-.28.22-.13s-.07.44.13.61c.06.37.21.75,0,1.12l0,0c0-.06,0,0,0,0s-.07.27.09.34.6,0,.89,0,.37.1.4.37c.21,2,.13,4.06.15,6.1a.59.59,0,0,1-.49.68.85.85,0,0,1-.35.08h-.24a1.59,1.59,0,0,1,.38,0,.41.41,0,0,1,.11.07.39.39,0,0,1,.16.39c-.06.38.17.47.46.45a4.7,4.7,0,0,1,1.23.19c.66.12,1.34.07,2,.24.35.08.59-.05.56-.49,0-.21-.1-.45.06-.66a2.27,2.27,0,0,1,0,.9s0,0,0,0,0,.05,0,0a2.72,2.72,0,0,0,0-.57.3.3,0,0,1,.25-.35c.64.09,1.27.16,1.9.26.85.13.86.14.87,1,0,.22,0,.42.29.41a8,8,0,0,1,2.12.28c1.37.27,2.77.36,4.16.55s2.85.28,4.26.56a.07.07,0,0,1-.11,0s.06,0,.09,0,.19,0,.28,0a1,1,0,0,0,.75-.24.87.87,0,0,1,1.14,0,4,4,0,0,1,.41.46c.07-.54.34-.73.82-.64s.84.11,1.26.17c0,.06-.1,0-.15.07.11,0,.23,0,.33,0,.22.11.07.31.12.47s0,.31.16.3.32.19.39.37c.5,1.32,1,2.64,1.49,4,.16.46.28.89.87,1,.13,0,.25.16.37.24s-.08.15-.14.21c-.22.05-.45-.06-.66.09-.54.39-1.09.75-1.65,1.13l.16.17c.29.32.85.45.77,1.06,0,.08.12.22.26.27A1.07,1.07,0,0,1,106,32c-.09.18,0,.32.12.44s.25.09.19.24c-.16.46.18,1.07-.44,1.4a.31.31,0,0,0-.06.4c.11.14.1.24,0,.34-.31.33-.33.91-.92,1-.09,0-.25.21-.23.29.06.36-.22.41-.42.5s-.58.49-1,.29c-.07,0-.29.07-.29.21s-.16.25-.29.28c-.4.12-.71.54-1.2.33-.06,0-.23.06-.25.13-.08.32-.38.35-.6.44s-.54.38-.95.23-.25.36-.44.42c-.43.13-.76.61-1.3.37a.25.25,0,0,0-.3.19c0,.21-.17.23-.3.27-.4.13-.74.47-1.22.35-.07,0-.19.06-.26.13a1.5,1.5,0,0,1-1.53.56.39.39,0,0,0-.33.09c-.46.49-1,.22-1.52.19a3.41,3.41,0,0,1,.92,0c-.21,0-.57-.09-.92,0a.66.66,0,0,0-.73-.09A2.11,2.11,0,0,1,90.2,41a5.33,5.33,0,0,1,.92-.06,3.52,3.52,0,0,1-1,0,1.06,1.06,0,0,0-.43,0A2.06,2.06,0,0,1,88,41a.78.78,0,0,0-.51,0A1.74,1.74,0,0,1,86,41a.42.42,0,0,0-.53.09,8.19,8.19,0,0,0-1.31,0A.41.41,0,0,0,83.6,41a1.57,1.57,0,0,1-1.46,0,.69.69,0,0,0-.58,0,13.16,13.16,0,0,1-1.4-.09c-.14,0-.32-.06-.42,0a2,2,0,0,1-1.46.09c.2-.11.41,0,.52,0-.1,0-.33-.08-.51,0a.6.6,0,0,0-.56-.1,3.42,3.42,0,0,1-1,0s0,0,0,0-.06,0,0,0a5.38,5.38,0,0,1,1,.06A2,2,0,0,1,76.2,41a.32.32,0,0,0-.37,0,1.54,1.54,0,0,1-1.43,0,.65.65,0,0,0-.64,0A4.9,4.9,0,0,0,72.68,41a4.36,4.36,0,0,1,1.08.06c-.51.05-1,.26-1.51-.12a.33.33,0,0,0-.29,0,1.64,1.64,0,0,1-1.58,0c-.08,0-.23-.07-.29,0-.37.3-.81.14-1.22.2a.44.44,0,0,1-.5-.27.14.14,0,0,0-.24,0l-.22.21a8.06,8.06,0,0,0-1.3,0,.46.46,0,0,0-.53-.11,1.57,1.57,0,0,1-1.58,0A.31.31,0,0,0,64,41a3.42,3.42,0,0,0-.78-.06c.26.05.52,0,.78.06-.05.13-.16.07-.25.08A3.83,3.83,0,0,1,62.18,41,6.75,6.75,0,0,1,61,41a8.78,8.78,0,0,1,1.13,0A1.89,1.89,0,0,1,60.62,41a.32.32,0,0,0-.44.09H58.79A.4.4,0,0,0,58.3,41a1.92,1.92,0,0,1-1.47.06c.32-.12.68,0,.92,0a4.52,4.52,0,0,1-1,0c-.13,0-.3-.05-.38,0a2,2,0,0,1-1.5.09,2.45,2.45,0,0,1,.83,0c-.17,0-.51-.1-.83,0-.16-.18-.37-.14-.57-.1A4.39,4.39,0,0,1,53,41a.45.45,0,0,0-.5,0,1.92,1.92,0,0,1-1.54,0,.46.46,0,0,0-.34,0,1.74,1.74,0,0,1-1.67,0c-.1-.06-.3-.07-.37.05s-.24.15-.37.14c-.41-.06-.84.11-1.23-.19-.22-.17-.39.19-.62.16-.42-.07-.87.08-1.29-.17a.38.38,0,0,0-.48.13c-.17,0-.33-.12-.5,0-.38,0-.82.1-1-.42a.3.3,0,0,0-.25-.12,1.6,1.6,0,0,1-1.29-.87c-.09-.11-.18-.23-.29-.25a1.68,1.68,0,0,1-1.29-1c-.05-.11-.2-.24-.32-.15s-.29,0-.38-.1c-.26-.32-.84-.35-.81-.93,0,0-.09-.1-.15-.11A1.72,1.72,0,0,1,36.91,36c0-.08-.11-.1-.21-.1a1.14,1.14,0,0,1-1-1.1c0-.15-.07-.27-.17-.23-.3.09-.28-.18-.41-.29-.52-.45-.25-1.12-.5-1.67a1.16,1.16,0,0,1,.26-1.44s.08-.14.06-.16c-.34-.39.1-.58.23-.82s.29-.61.76-.53c.24,0,.41-.18.19-.47s-.55-.74-.82-1.11c-.07-.09-.24-.21,0-.32s.55-.52.93-.69a9.61,9.61,0,0,1,4.2-.69c.6,0,1.28.28,1.64-.5a.12.12,0,0,1,.08-.05c.56-.06.91-.51,1.36-.76.12-.07.37-.1.28-.33s-.28-.14-.43-.14c-1.14,0-2.28,0-3.41-.05-.22,0-.32-.06-.31-.31s.14-.24.31-.24h.6a12.13,12.13,0,0,0,2,0A3,3,0,0,0,43.64,24c0-.32.16-.62.5-.66s.25-.19.21-.4c-.11-.69,0-.9.57-1.09-.37,0-.28-.28-.29-.47s0-.25.15-.18.49-.08.63.19a.25.25,0,0,1,0,.19c-.16.51-.16.51.15,1,.16-.7-.19-1.59.75-2,.54-.23.91.05,1.25.44.08-.16,0-.33.12-.45s0,.14.09.19c0-.34.32-.08.39-.26s0-.61.25-.78a2.67,2.67,0,0,1,1.73-.57,2.45,2.45,0,0,0,.72,0c.86-.19,1-.34,1.05-1.22a2,2,0,0,1,0-.24c.13,0,.16.08.19.18s-.07.45.1.56.29-.21.48-.24a.73.73,0,0,0,.31-.14.17.17,0,0,1,.19-.06c0,.17.16.2.31.2s.32,0,.49,0a3.67,3.67,0,0,0,1.6-.32.55.55,0,0,1,.54-.12c.28.08.12.31.14.49a1.72,1.72,0,0,0,.6-1c-.05-.16-.14-.21-.33-.12-.64.33-.68.3-1-.37-.06-.13,0-.31-.25-.32a17.28,17.28,0,0,1-2.57-.23,21.1,21.1,0,0,0-3.65-.1l-30.23-.38c-.2,0-.44-.08-.44.28,0,.13-.13.2-.26.12s-.38,0-.57-.08a4.49,4.49,0,0,0-1.92.31,3.48,3.48,0,0,0-.79,0,1.21,1.21,0,0,1-1.08-.5c0-.39,0-.79,0-1.18a.87.87,0,0,1,.79-.59,3.66,3.66,0,0,0,1.19,0,1.41,1.41,0,0,1,.82.27,1.11,1.11,0,0,0,.76,0c.31-.08.67.11,1-.15,0,0,.12,0,.12,0,.05.52.46.3.71.3H28.1a1.31,1.31,0,0,0,.59.05H52.54c.1,0,.24.08.38-.14a.41.41,0,0,1-.43.14H37.79c-.14,0-.3,0-.42-.06l.19,0c5.62-.18,11.25.26,16.87-.32a2.74,2.74,0,0,1,.64,0c.31,0,.45-.09.58-.38a3.18,3.18,0,0,1,1.9-1.69c.31-.12.74-.18.81.23s.27.35.51.32.56.19.73-.07a2.2,2.2,0,0,1,.58-.56.89.89,0,0,0,.32-.69c0-.87.1-1.74.15-2.61,0-.29.08-.54.43-.55s.44.23.49.51c.1.57.19,1.14.3,1.71,0,.1,0,.31.2.22.64-.24,1.46-.14,1.82-.94.2-.1.45.07.63-.12h0a.38.38,0,0,0,.2-.46.22.22,0,0,1,.1-.09.74.74,0,0,1,.73.09.11.11,0,0,1,0,.13c-.09.08-.23,0-.32.13s0,.08.09.12a.28.28,0,0,0,.13,0c.53,0,.89-.6,1.47-.41,0,0,0,0,0,0s.08,0,.1,0-.06.26.08.33.15-.06.21-.12a1.88,1.88,0,0,1,0-.58l0-.07.08,0c.06.22,0,.58.15.64a4.61,4.61,0,0,0,1.12.05c.21,0,.21-.17.27-.3a.31.31,0,0,1,.3-.22.25.25,0,0,1,.26.24c0,.29.24.3.47.29s.44-.06.63,0c.34,0,.37-.13.38-.37a.09.09,0,0,1,.12,0,.21.21,0,0,1,0,.13c.35-.27.76-.07,1.13-.13,0-.05.08-.1.16-.08s-.11.41.33.43c1,.06,1.9,0,2.85.05a.66.66,0,0,0,.76-.65,13.59,13.59,0,0,1,.17-1.7c0-.27-.27-.35-.22-.61C76.41,6,76.1,6,75.74,6a8.61,8.61,0,0,1-1,0h-.3A10.15,10.15,0,0,1,73,6C72.81,6.07,72.84,6.28,72.7,6.36Zm-8,2.8c.27,0,.55-.09.79.09s.32-.12.4-.29,0-.56.46-.41c.06,0,.13-.1.11-.19s-.07-.16-.08-.15c-.33.1-.31-.21-.42-.35a1.29,1.29,0,0,0-1.48-.4c-.2.18-.46,0-.66.12V9.16A.89.89,0,0,0,64.73,9.16ZM28.1,14.61c.13.15.31.09.47.09q12,0,24,0a.62.62,0,0,0,.37-.09H38l-.64,0c-1.2,0-2.4,0-3.6,0ZM72.75,6.3a2.11,2.11,0,0,0-1.06.08H71.5a2.5,2.5,0,0,1-.34.31h0c-.15.12-.16.22,0,.27.62,0,1.24.06,1.86,0,.22,0,.51,0,.4-.38l-.55-.13A.3.3,0,0,0,72.75,6.3ZM77,4.79c-.28.15,0,.11,0,.11h4.53c.15,0,.33.06.45-.12ZM71.85,5.93c0-.12,0-.16-.17-.16-1.41,0-2.82,0-4.23,0,1.24.13,2.48,0,3.72.09C71.39,5.89,71.62,5.92,71.85,5.93ZM65.92,9c-.15.07-.21.26-.4.29a.06.06,0,0,1-.07,0c-.12.12-.38-.09-.44.18l.12.12c.36,0,.74.22,1-.29.12-.22.52,0,.78-.1H67c-.13-.25-.35-.1-.53-.13S66.08,9.13,65.92,9Zm.44-3.47h3c.13,0,.27,0,.37-.09A32.54,32.54,0,0,0,66.36,5.49ZM73.48,6.6c0,.19-.08.26-.3.26a12.27,12.27,0,0,0-2,0c0,.11,0,.15.14.15a20.18,20.18,0,0,0,2.06,0C73.76,7,73.68,6.8,73.48,6.6ZM40.48,24c.16.17.37.1.55.1.72,0,1.44,0,2.16,0,.16,0,.34.06.45-.11C42.59,24,41.53,23.92,40.48,24ZM72.35,9.08l.08-.1C72,8.73,71.49,8.9,71,8.9c0,0,0,.1,0,.16h.1A4.23,4.23,0,0,0,72.35,9.08ZM60.18,41a2.07,2.07,0,0,0-1.39,0A2.62,2.62,0,0,0,60.18,41ZM54.35,41A3.87,3.87,0,0,0,53,41,1.8,1.8,0,0,0,54.35,41Zm19-34H71.62c-.15,0-.33,0-.45-.1v-.2c-.13,0-.25,0-.22.17s.22.22.39.22h1.81A.83.83,0,0,0,73.37,7ZM85.44,41.07a1.58,1.58,0,0,0-1.31,0A3.21,3.21,0,0,0,85.44,41.07Zm-17.53,0a1.52,1.52,0,0,0-1.3,0A3.35,3.35,0,0,0,67.91,41.07ZM83.35,6.38a15.36,15.36,0,0,0-2-.12.26.26,0,0,0-.34.18ZM67.29,7.68,67.2,6.53h-.13a7.56,7.56,0,0,0,.12,1.57C67.33,8,67.2,7.81,67.29,7.68ZM81.56,41a3.87,3.87,0,0,0-1.4-.09c.06.25.26.15.4.14A3.33,3.33,0,0,0,81.56,41ZM13.85,15.89a1.6,1.6,0,0,0,0-1.18A2,2,0,0,0,13.85,15.89ZM70.28,5.41a2.54,2.54,0,0,0,1.59,0V5.32ZM64.5,9.63c.18-.06.46-.07.23-.38a1.79,1.79,0,0,0-.86,0c.13.16.32.06.48.06S64.57,9.47,64.5,9.63ZM62.18,41H60.87V41h1.26ZM84.64,18.48v1.1c.19-.44-.07-.85.29-1.11C84.83,18.44,84.73,18.38,84.64,18.48Zm-70-4.36a1.68,1.68,0,0,0,1.19,0A3.18,3.18,0,0,0,14.63,14.12Zm1.09,2.26a.75.75,0,0,0-.79,0A1.13,1.13,0,0,0,15.72,16.38ZM56.83,41h1.06V41H56.8ZM47.69,20.6l0,.45c.08-.25.16-.46.48-.44a.06.06,0,0,0,0,0s0,0,0,0C48,20.55,47.83,20.44,47.69,20.6ZM77.73,41H76.62V41h1.06ZM67.29,7.68c-.12.12-.05.29-.1.43l0,.65c0,.05,0,.05.08,0h0a.94.94,0,0,0,0-.55ZM90.2,41h1V41h-1ZM52,17.68l.1.21a.6.6,0,0,0,.51-.28c0-.12-.16-.06-.22-.12S52,17.48,52,17.68Zm1.17.41.1-.11c-.05-.18.09-.41-.19-.49a.17.17,0,0,0-.14.14C52.93,17.81,52.89,18,53.14,18.09Zm-.22-.49.13-.11c-.23-.18-.46,0-.69,0l.24.11A.24.24,0,0,0,52.92,17.6ZM16.64,14.39a.66.66,0,0,0,.76,0ZM63.87,9.26h.86V9.16h-.88ZM44.54,41.06a.33.33,0,0,0-.5,0C44.21,41.05,44.37,41.18,44.54,41.06ZM63.85,7.58l.68,0s0,0,0,0a.05.05,0,0,0,0,0C64.28,7.49,64,7.3,63.85,7.58Zm8.9-1.28.18.17c.11-.14-.15-.32,0-.46C72.69,6,72.76,6.15,72.75,6.3Zm-.89-1s0,0,0,.06c.26,0,.53.1.78-.07A1.26,1.26,0,0,0,71.86,5.32Zm7,5.13a.26.26,0,0,0,0-.39A.29.29,0,0,0,78.81,10.45ZM53.55,18.18a.36.36,0,0,0,.49,0C53.87,18,53.71,18.16,53.55,18.18ZM76.41,4.7c.13,0,.29,0,.4-.08C76.65,4.55,76.49,4.43,76.41,4.7ZM74.73,6c-.1-.12-.2-.12-.3,0A.21.21,0,0,0,74.73,6Zm-3.57.7c.15-.07.36-.06.34-.31C71.34,6.43,71.18,6.48,71.16,6.69ZM67.31,8.77h-.08a1.39,1.39,0,0,0,.06.64Zm11.89.17c0,.2-.12.45.13.61C79.24,9.35,79.34,9.12,79.2,8.94Zm-15.31.8c.21,0,.46.13.63-.12C64.31,9.66,64.07,9.52,63.89,9.74Zm4.48,31.12c.11-.15-.05-.12-.09-.11s-.23-.09-.15.11A.23.23,0,0,0,68.37,40.86ZM79.3,10.67s-.08-.15-.08-.1-.11.36.11.46Zm27.45,17a.23.23,0,0,0-.14.21l0,0h0c.11,0,.24.08.23-.12Zm.16.11c0,.1-.14.1-.23.12.12.08.27.16.39.06S107,27.81,106.91,27.77ZM65,5.8h-.53C64.63,6,64.81,5.86,65,5.8ZM98.53,21.52s-.11,0-.12.05,0,.06.08.06a.3.3,0,0,0,.3-.08Zm4.64-.19-.29.06c.21.06.35.09.47,0Zm-23.09-3h.1l.1-.17h-.39C79.84,18.37,80,18.28,80.08,18.35ZM67.33,8.22l0,.55h.08A1,1,0,0,0,67.33,8.22ZM79.46,40c.17-.18.15-.43.21-.65s.1-.22.26-.23.19.09.23.2,0,.5.25.67a3.93,3.93,0,0,0,1.09-.09c-2-1.57-2.28-2.41-1.54-4.43H76A3.33,3.33,0,0,1,74.45,40c.35,0,.7,0,1,0s.17-.27.24-.42,0-.48.32-.45.23.28.25.45.12.44.47.45c.53,0,1,0,1-.68a.19.19,0,0,1,.22-.2c.16,0,.22.06.26.22s0,.46.2.65A1.93,1.93,0,0,0,79.46,40ZM57.3,37.58a2,2,0,0,1-.38,1.05c-.16.25-.34.46-.13.79.1.17,0,.53.17.58A3.26,3.26,0,0,0,58,40c.24,0,.12-.31.19-.46s0-.39.25-.4.28.23.31.41,0,.55.44.46.91.25,1-.48c0-.15,0-.39.26-.39s.19.24.27.38,0,.47.22.49A3.55,3.55,0,0,0,62,40c.11,0,.1-.29-.07-.45-1.43-1.31-1.65-2.22-1-4H57c0,.33.29.62.27,1A9.91,9.91,0,0,0,57.3,37.58Zm43.46-1.46a4.52,4.52,0,0,1-1.61-1.28c-.34.74-1,.68-1.56.66-.83,0-1.67,0-2.58,0a3.23,3.23,0,0,1,.08,3,.12.12,0,0,0,.17,0c.34-.06.38.26.52.44s.28.27.51.12a2,2,0,0,1,.44-.21c.26-.09.32-.25.22-.5a.74.74,0,0,1,0-.33.33.33,0,0,1,.19-.32c.14-.06.19.07.27.15s.24.51.43.49a2.4,2.4,0,0,0,.9-.36c.25-.14,0-.34,0-.52s-.21-.36.08-.51.34.14.41.27c.17.36.35.4.71.23s.86-.4.6-1c-.1-.22.08-.28.26-.3ZM67.78,40c.07-.22.15-.43.2-.66s.09-.22.26-.22.22.09.25.24-.06.55.18.61a2.55,2.55,0,0,0,1,0c.25,0,.15-.37.23-.55s0-.31.24-.31.17.18.24.3,0,.53.24.58a2,2,0,0,0,1,0c.26-.1.08-.33-.12-.46a2.8,2.8,0,0,1-1.23-1.84c-.09-.52-.2-.78-.82-.68a1,1,0,0,1-.84-.42.27.27,0,0,0-.37,0,1.27,1.27,0,0,1-1,.37c-.4,0-.65.1-.72.58A2.9,2.9,0,0,1,65,39.75c-.11.06-.26.06-.33.23a3.15,3.15,0,0,0,1,.07c.31,0,.18-.29.27-.44s0-.43.26-.45.29.26.29.42c0,.43.31.42.6.46A.75.75,0,0,0,67.78,40Zm22.32-.89a3.43,3.43,0,0,1-.77-1.79c0-.36-.34-.36-.49-.33a.83.83,0,0,1-.63-.13,1.12,1.12,0,0,0-1.23,0,1.36,1.36,0,0,1-.76.17c-.3,0-.52.1-.56.51a2.84,2.84,0,0,1-1.29,2c-.12.08-.29.12-.24.33s.23.13.37.14.23,0,.34,0c.44.08.63-.09.65-.53,0-.15,0-.39.27-.37s.19.26.24.41-.06.57.36.48,1,.33,1.06-.46c0-.14,0-.34.19-.41s.23.14.31.26,0,.55.24.59a4.22,4.22,0,0,0,1.23,0c.19,0,.17-.29.18-.46,0-.33.15-.49.5-.38Zm-42.21.9c.38.13.56-.08.61-.51,0-.15,0-.4.25-.39s.19.23.24.38,0,.46.21.5a3.57,3.57,0,0,0,1.08,0c.16,0,.08-.29.15-.44s0-.38.27-.39.22.22.29.37,0,.46.24.49a2,2,0,0,0,1,0,.46.46,0,0,0,.06-.69,3.13,3.13,0,0,1-1-2c0-.35-.36-.3-.48-.27a.79.79,0,0,1-.67-.15c-.52-.4-1-.09-1.46,0,0,0-.05.06-.07.06-.88-.15-1,.49-1.09,1.08a1.65,1.65,0,0,1-.31.62.7.7,0,0,0-.14.76C47.25,40,47.22,40,47.89,40.05Zm-6.22-3.46A2.85,2.85,0,0,1,42,35.54a2.88,2.88,0,0,0-2,.27c-.11,0-.11.15-.11.25,0,.28,0,.46-.34.17-.13-.12-.17.05-.19.11s-.3.29-.07.47.41.33.63.47.31-.16.47-.22.2-.4.47-.19,0,.34,0,.52-.27.32-.07.48a2.47,2.47,0,0,0,.89.59c.11,0,.27-.14.17-.36a1.12,1.12,0,0,1-.13-.62A3.32,3.32,0,0,0,41.67,36.59Zm5.62-15.13a.63.63,0,0,0-.79-.41c-.37.09-.4.4-.37.71s-.12.59.12.85c0,.08.09.08.13,0l0,0c.76-.07.76-.07.86-.78A.24.24,0,0,0,47.29,21.46ZM63.47,39a2.93,2.93,0,0,0,.43,0c.18-.05.52,0,.48-.27s-.14-.64-.58-.6-.62-.07-.84.32-.14.49.25.52Zm9.84,0a1.79,1.79,0,0,0,.24,0c.18-.06.47,0,.52-.24s-.42-.63-.63-.61-.59-.14-.79.23-.19.57.31.62a2,2,0,0,0,.35,0Zm20.81-2.22c-.21.13-.56,0-.67.42s-.17.71.22,1c.13.08.23.12.34,0A1.7,1.7,0,0,0,94.35,37C94.33,36.83,94.27,36.78,94.12,36.82Zm-32.51.55a3.37,3.37,0,0,0,.15.49c.09.18.14.54.42.4s.6-.29.4-.75c-.12-.3-.18-.54-.55-.64S61.57,36.93,61.61,37.37Zm-5.28-.21c0-.12.07-.34-.14-.35a1,1,0,0,0-.68.24.81.81,0,0,0,.11,1.14c.17.14.29.13.4,0A1.61,1.61,0,0,0,56.33,37.16Zm24.35,0a1.13,1.13,0,0,0,.14.63c.1.19.15.58.47.41s.56-.33.35-.78c-.13-.28-.19-.5-.53-.6S80.62,36.85,80.68,37.2Zm-5.38,0c0-.14,0-.34-.12-.35a.87.87,0,0,0-.72.23.81.81,0,0,0,.1,1.11c.2.19.34.14.46-.07A1.94,1.94,0,0,0,75.3,37.19Zm-32.65,0a1.23,1.23,0,0,0,.16.67c.1.18.15.54.45.37s.58-.29.36-.72c-.12-.25-.09-.56-.48-.65S42.55,36.8,42.65,37.2Zm2,1c-.16,0-.37-.12-.48.1s-.36.34-.29.55.37.14.57.19a.49.49,0,0,0,.24,0c.26-.06.65.12.74-.28S45.09,38.17,44.64,38.17Zm38,0c-.17,0-.37-.12-.49.1s-.35.35-.29.55.38.14.58.19a.49.49,0,0,0,.24,0c.26-.06.65.12.74-.28S83.12,38.17,82.67,38.17Zm9.64,0c-.16,0-.34-.09-.47.07s-.3.35-.26.56.32.17.5.21a.71.71,0,0,0,.29,0c.27-.07.65.11.77-.26S92.7,38.17,92.31,38.17Zm-38,0c-.15,0-.35-.11-.49.08s-.3.35-.24.57.33.16.51.19a.76.76,0,0,0,.3,0c.26-.07.64.11.74-.28S54.67,38.17,54.29,38.17ZM15.11,15.78c.27-.15.57-.3.43-.7a.57.57,0,0,0-.66-.38.55.55,0,0,0-.52.45c-.07.37.22.5.48.64A.18.18,0,0,0,15.11,15.78ZM43.84,35.49h-.35a.64.64,0,0,0-.52.4c-.08.16.06.25.19.28s.45.36.69,0a.47.47,0,0,1,.15-.13c.18-.11.43-.18.31-.46S44,35.58,43.84,35.49Zm38,0h-.33c-.27,0-.41.2-.52.4s.06.25.18.28.45.36.7,0a.47.47,0,0,1,.14-.14c.18-.1.44-.18.32-.46S82,35.55,81.85,35.49Zm-27.2.32c.07.23.43.35.67.5s.55-.05.67-.28-.14-.41-.31-.49a2.23,2.23,0,0,0-.93,0C54.63,35.5,54.64,35.6,54.65,35.81Zm38.51-.32c-.12.09-.46-.18-.48.16s.43.51.69.66A.55.55,0,0,0,94,36c.09-.25-.18-.43-.42-.51A1.55,1.55,0,0,0,93.16,35.49ZM52.92,17.6H52.6c-.18.1-.45,0-.53.29s0,.39,0,.59.22.19.38.21c0-.43.51-.35.7-.6C53,18,53.07,17.72,52.92,17.6ZM73.61,35.79a1.52,1.52,0,0,0,.69.55.64.64,0,0,0,.64-.28c.14-.27-.15-.45-.33-.51a3.14,3.14,0,0,0-.87,0C73.59,35.5,73.62,35.63,73.61,35.79ZM62.78,35.5h-.32a.61.61,0,0,0-.53.43c-.06.12.06.22.17.25s.45.36.7,0a.62.62,0,0,1,.14-.14c.17-.11.43-.18.33-.46S62.93,35.56,62.78,35.5Zm32.48,3-.17,0a3.77,3.77,0,0,1-.82,1c-.12.09-.17.18-.07.33s.21.09.33,0a1.69,1.69,0,0,1,.31-.13c.34-.09.46-.26.34-.61C95.11,38.87,95,38.64,95.26,38.48ZM52.37,37.36a1.08,1.08,0,0,0,.17.59c.1.16.14.48.41.39a.65.65,0,0,0,.4-.57c0-.27-.25-.35-.5-.37Zm38,0a1,1,0,0,0,.17.55c.1.16.14.48.4.39a.65.65,0,0,0,.4-.57c0-.27-.25-.36-.49-.37S90.56,37.31,90.4,37.4Zm-44.8.38c.13.23.25.6.48.56s.41-.49.52-.81-.06-.18-.19-.17C46.09,37.41,45.74,37.37,45.6,37.78Zm26-.41c-.13,0-.29-.06-.24.15s.16.75.51.83.46-.33.46-.55C72.29,37.36,71.85,37.45,71.58,37.37Zm-6.28,0c-.29.06-.7,0-.71.42,0,.21.21.6.46.55s.42-.49.5-.82S65.4,37.41,65.3,37.38Zm19.09,0c-.33.05-.73,0-.72.43,0,.22.22.6.46.54s.42-.5.49-.84S84.45,37.42,84.39,37.37Zm16.38-1.26c.55.69.55.69,1.34.33a.57.57,0,0,0,.24-.21,14,14,0,0,1-1.59-.11Zm-10.7,3.07c.22,1-.11.93,1.49.82a4.29,4.29,0,0,1-1.46-.85ZM23.53,14.73H18.62v0h4.91ZM64.84,5.67h4.53v0H64.84ZM15.9,15.21c0,.2.08.38.3.37s.29-.2.28-.39-.08-.34-.28-.34S15.91,15,15.9,15.21ZM56.21,39.5l-1,.47C56.05,40.19,56.23,40.11,56.21,39.5Zm-9.72,0a4.15,4.15,0,0,1-1,.46C46.27,40.22,46.49,40.12,46.49,39.49ZM66.91,9.18l-.67,0c-.06,0-.18,0-.18,0-.13.57-.61.29-.93.4.24.18.87.15,1-.08s.42-.23.65-.17S66.88,9.38,66.91,9.18Zm-11.5,7.13H53.46v.05h1.93ZM72.35,9.08l-1.28,0v.39a.7.7,0,0,1,.63-.29c.26,0,.49,0,.54.34A.53.53,0,0,0,72.35,9.08ZM91.69,35.75c0,.08,0,.24.18.23a.28.28,0,0,0,.26-.29c0-.14-.07-.2-.21-.2S91.68,35.55,91.69,35.75Zm-37.59,0c0-.17-.1-.22-.25-.22s-.19.13-.19.27,0,.24.17.23A.27.27,0,0,0,54.1,35.7ZM72.8,36c.16-.05.26-.13.25-.31s-.1-.18-.23-.18-.18.13-.18.26S72.65,36,72.8,36Zm-9-.37c0,.26.12.37.28.37s.14-.15.14-.26,0-.25-.22-.23S63.83,35.56,63.84,35.62ZM45.14,36c.14,0,.17-.11.17-.23s0-.26-.19-.26-.22,0-.23.18A.3.3,0,0,0,45.14,36Zm37.78-.28a.27.27,0,0,0,.27.28c.12,0,.15-.14.15-.26s0-.24-.22-.23S82.92,35.56,82.92,35.7ZM80.08,18.35l-.19-.16a1.31,1.31,0,0,0-.71.09C79.51,18.43,79.8,18.31,80.08,18.35ZM57.3,37.58a1.93,1.93,0,0,0,0-1.09A1.42,1.42,0,0,0,57.3,37.58Zm28.77-2.07a4.9,4.9,0,0,0-.5,0c-.08,0-.26-.09-.22.12a.17.17,0,0,0,.26.13C85.74,35.68,85.9,35.7,86.07,35.51ZM51,35.6c.21,0,.47.44.63-.09C51.43,35.5,51.22,35.44,51,35.6ZM38.29,36c.23.36.39.15.59-.09l-.36,0C38.4,35.84,38.28,35.8,38.29,36ZM70,35.57c.18.09.35.28.56.11a.26.26,0,0,0,0-.16A.81.81,0,0,0,70,35.57Zm7.43-25.21V9.19c0,.39-.29.79,0,1.17ZM73.76,41.05c-.39-.24-.8,0-1.19-.13v.13Zm15.33-5.49c.18.11.34.3.55.1,0,0,0-.11,0-.12A.64.64,0,0,0,89.09,35.56Zm3.36,5.49h1.17c-.39,0-.79-.22-1.17,0ZM67.78,40h-.64l-.42.05v0H67.8s0,0,0,0A.08.08,0,0,0,67.78,40Zm11.68,0h-1c.33.23.7.08,1.06.08a.23.23,0,0,0,0,0ZM41.67,36.59a1.58,1.58,0,0,0,0,.89A.94.94,0,0,0,41.67,36.59Zm5.59-1.12c.29.39.49.22.75.08C47.76,35.42,47.56,35.51,47.26,35.47Zm7.66,5.58H56c-.36-.06-.72-.21-1.07,0Zm12-5.5c-.18,0-.37-.13-.54,0a.16.16,0,0,0,0,.12C66.59,35.79,66.74,35.69,66.89,35.55ZM47.29,21.46v.35l.05.51a2.17,2.17,0,0,0,0-.88s0,0-.05,0ZM49.43,41h.83A1.31,1.31,0,0,0,49.43,41Zm-3-18.41h-.13c.18.14.26.15.81.05ZM64,41c-.28-.19-.58-.06-.88,0ZM99.93,21.63l.57.12C100.32,21.45,100.12,21.52,99.93,21.63ZM78.28,41.05,79,41c-.23,0-.47-.16-.68,0ZM15.11,15.78h-.27l-.1.07a.62.62,0,0,0,.48,0ZM83.88,5.32c.08-.11.19-.2.08-.3a.19.19,0,0,0-.18,0C83.63,5.17,83.85,5.22,83.88,5.32ZM53,39.89a.43.43,0,0,0,.53.11C53.34,40,53.21,39.82,53,39.89Zm-8.31.93h.46v0h-.47ZM65,9.45c.08-.22.32-.06.44-.18C65.32,9.36,65,9.05,65,9.45ZM93.65,39.89l-.58.1A.46.46,0,0,0,93.65,39.89Zm-5.73-.46c0-.24,0-.36-.31-.26C87.74,39.21,87.71,39.46,87.92,39.43Zm0-2.89a.69.69,0,0,0-.49,0A.68.68,0,0,0,87.87,36.54Zm-4-30.33c.07,0,.12,0,.1-.11A.29.29,0,0,0,84,5.93c-.08,0-.1,0-.11.09S83.81,6.18,83.92,6.21ZM38.29,36c.05-.1.14-.1.23-.12-.13,0-.26-.18-.38,0S38.22,36,38.29,36Zm30,.61h.37C68.54,36.36,68.42,36.5,68.3,36.61Z"/><rect class="cls-2" x="74.59" y="11.94" width="9.18" height="6.15" rx="0.98" ry="0.98"/></g></g></svg>