<svg xmlns="http://www.w3.org/2000/svg" viewBox="0 0 115 45.66"><defs><style>.cls-1{fill:#3d2d18;}.cls-2{fill:#19150e;}</style></defs><title>자산 296lk</title><g id="레이어_2" data-name="레이어 2"><g id="레이어_1-2" data-name="레이어 1"><rect class="cls-1" width="115" height="45.66"/><path class="cls-2" d="M19.09,11.16C19.73,10.68,23.5,8,23.5,8,28.59,4.41,27.16,5,30,3.13s1.14.4,1.14.4a34.69,34.69,0,0,1-5.45,4.08,22.36,22.36,0,0,0-4.83,3.86,17.32,17.32,0,0,1,4.22,1.63l6.11,3.78c1.11,0,3.54,2.33,3.54,2.33a3.36,3.36,0,0,1,2.37-.05s1.76,1.39,2.78,2.13a25.08,25.08,0,0,1,3,3.22h.18s28.81-2.26,36.54-3.1,6,2.24,6,2.24-.59.86-4.4,2.45S55,31.6,55,31.6s7.5.37,6.74,1.23-8.64.54-8.64.54c0,3-1.23,3-1.23,3v.2l-1,.15c0-.74-.43-.56-.43-.56v.38h-.05v.13c.24,0,.26.58.26.58v.95s0,.37-.57.37-.59-.33-.59-.33v-.42h0v-.21l0,0V37.4h-.07v-.27H49.4v-.42l-.56.12a1.44,1.44,0,0,1,.18-.71A4.59,4.59,0,0,1,47.76,36c0,1.89-.3,4-.3,4l-1.1.26c-1,4-3.29,2-3.29,2a4.83,4.83,0,0,1-1-2.5,8.94,8.94,0,0,1,.32-3.35s1,0-2.36-.12a5.42,5.42,0,0,1-4.63-3l-1.24-.08v.24l-.4-.36-5-.66c0,.32-.16,1.24-.16,1.24l-1.41-1.48-6.68-1-1.32.63h-.35l-.84,4a3.61,3.61,0,0,1-.11,3.68,2.43,2.43,0,0,1-2.41,1.22c-1.75-.13-2.12-2.09-2.12-2.09l-.77-.16a4.28,4.28,0,0,1,.13-1.62s1-1.72,1.7-1.85a1.66,1.66,0,0,0,1.09-.8l1.64-3.52c-6.6-1.3-7.4-1.56-7.4-1.56-6.65-1.75-4-2.12-4-2.12l16.69-1c-4.32-3.69-5.26-5.54-5.26-5.54-2,12.79-4.75,12.22-4.75,12.22s-.65,0,.18-6.16,2.57-9.25,2.57-9.25a7.21,7.21,0,0,1-2.74-4.37,13.2,13.2,0,0,1-3.19-2.36C7.64,9,9,8.29,9,8.29,10.33,7.85,13.47,11,13.47,11,15.39,9.85,19.09,11.16,19.09,11.16Zm16.33,8.49a2,2,0,0,1,1.27-.51,2.76,2.76,0,0,0-1.92.12Zm2.91,1.92s-.5-2-1.14-2.11a2.23,2.23,0,0,0-1.36.33S36.3,19.87,38.33,21.57Zm.49.24,2.09,1.39c-.39-1.61-3.08-3.35-3.08-3.35A9,9,0,0,1,38.82,21.81Zm1.85.33a4,4,0,0,0,1.15,1.68c.72.5.85.61.85.61A21.71,21.71,0,0,0,40.67,22.14ZM19.05,31a2.11,2.11,0,0,0-.1.58c0,.15,1.05-.44,1.05-.44A5.83,5.83,0,0,0,19.05,31Z"/></g></g></svg>