<svg xmlns="http://www.w3.org/2000/svg" viewBox="0 0 115 45.66"><defs><style>.cls-1{fill:#3d2d18;}.cls-2{fill:#19150e;}</style></defs><title>자산 291lk</title><g id="레이어_2" data-name="레이어 2"><g id="레이어_1-2" data-name="레이어 1"><rect class="cls-1" width="115" height="45.66"/><path class="cls-2" d="M18.18,12.48S19.92,2.15,20,2s.49-.39.49-.39c2,.36.95,11.76.93,12.31s-1.63,1.3-1.63,1.3a103.58,103.58,0,0,1,10.32,4.25c.89.3,2.2.86,2.2.86l3.21,1.87.14-.16,2.7-.18a42.91,42.91,0,0,1,4.05,2.91c0,.07,1,1.34,1,1.34l2.29,2.09.41-.06s31.24-3.76,33.61-3.8,7.83,0,9,1.29-8.39,3.93-8.39,3.93L54.22,34.14v2.07c.24.11.18.23.18.23,0,.63-1.39.7-1.39.7H51.57l0,.49c.69.11.63,1.08.63,1.08s0,1.07-.61.93-.32-1.82-.32-1.82v-.65c-1.6.41-10-.91-10-.91l-.77,2.53.63-2.61-3.94-.5,0,.55s1.58-.12,2.25,2.71-.26,4.1-.26,4.1a1.71,1.71,0,0,1-2.14.53c-1.46-.56-1.94-4-1.94-4a2.27,2.27,0,0,1-.6-2.32c.51-1.3,1.17-.63,1.17-.63v-.9h-.85a2.87,2.87,0,0,1,.85.62c-1.34-.61-9.24-1.77-9.24-1.77l-2.25,2.83a3.87,3.87,0,0,1-.67,3.72l-.65-.3s0,.09-.67,1.12-2.67.65-2.67.65c-2.1-1.16-1.07-4.14-1.07-4.14a4.54,4.54,0,0,1,1.55-2,2,2,0,0,1,2.4-.11.92.92,0,0,1,.66.11l1.72-2.68c-5.72-.75-17.9-3.28-17.9-3.28s-5.35-1.4-4.63-1.88a4.53,4.53,0,0,1,2.2-.39,30.47,30.47,0,0,1,4.13-3.15c1.16-.65,5.5-3.82,5.5-3.82a5.26,5.26,0,0,1-.71-4C14.22,14.7,18,14.83,18,14.83,18,14.18,18.18,12.48,18.18,12.48ZM5.61,28.38l16.81,1-.34-.88s-5.12-3.86-5.34-4.7a12.44,12.44,0,0,1-2.13-1.73S6,28.25,5.61,28.38Zm31.63-5.26L38,22l-2.31.19v.1Zm2.84,2.63-.84-2.91-.19-.19h-.58l-.48.9Zm-.55-2.88.85,2.88,2.45,1.77-.69-2.77Zm3.1,2.7.71.71v-.34l-.82-1.07ZM43,27.38h.24l.1-.92-.61-.6Z"/></g></g></svg>