<svg xmlns="http://www.w3.org/2000/svg" viewBox="0 0 384.39 216.02"><defs><style>.cls-1{fill:#ec0001;}.cls-2{fill:#fefefe;}.cls-3{fill:#00247d;}</style></defs><title>자산 5</title><g id="레이어_2" data-name="레이어 2"><g id="레이어_1-2" data-name="레이어 1"><path class="cls-1" d="M173,0h38.4c1.75,1.72,1.38,4.06,1.39,6.25q0,35.14,0,70.29c0,1.37.05,2.74,0,4.09-.11,3,1.23,4.27,3.83,4.17,1.32,0,2.64,0,4,0q78.52,0,157,0c2.24,0,4.69-.7,6.55,1.56v43.2c-1.43,1.86-3.38,1.56-5.23,1.56-15.87,0-31.74,0-47.61,0H220.94c-1.1,0-2.2,0-3.3,0-4.36.07-4.78.51-4.82,5.29,0,4.46,0,8.92,0,13.38q0,29.94,0,59.88c0,2.19.36,4.54-1.39,6.26H173c-1.76-1.72-1.39-4.07-1.39-6.26q-.06-35.15,0-70.29c0-1.36-.06-2.73,0-4.09.11-3-1.24-4.27-3.83-4.17-1.32.05-2.65,0-4,0q-78.51,0-157,0c-2.24,0-4.7.71-6.55-1.55V86.41c1.42-1.87,3.38-1.56,5.23-1.57,15.86,0,31.73,0,47.6,0H163.45c1.1,0,2.2,0,3.31,0,4.35-.08,4.77-.52,4.82-5.29,0-4.46,0-8.93,0-13.39q0-29.94,0-59.88C171.61,4.07,171.24,1.73,173,0Z"/><path class="cls-2" d="M211.4,216c0-27.55,0-55.11-.07-82.66,0-3.12.69-3.82,3.42-3.82q84.72.15,169.45.08v14.15c-1.16,1.45-2.71,1.5-4.27,1.5q-37.71,0-75.42,0,37.64,21.15,75.31,42.35a10.23,10.23,0,0,1,4.38,3.81v8.19c-2,1.53-3.61-.11-5.19-1q-20.42-11.46-40.84-22.94-25.14-14.15-50.28-28.3a15.68,15.68,0,0,0-8.23-2.23c-6.06.12-12.13.07-18.54,0,15.94,9.08,31.67,17.86,47.38,26.69q35.49,20,71,40c1.63.92,4,1.23,4.06,4.19h-43c-4.35-1.06-8.24-3.34-12.18-5.56Q279.2,182.78,230,155.15c-4.73-2.66-4.74-2.64-4.74,3.17q0,25.88,0,51.75c0,2.09.27,4.28-1.31,5.94Z"/><path class="cls-2" d="M173,0c0,27.55-.05,55.1.07,82.65,0,3.12-.69,3.83-3.43,3.82Q84.92,86.33.2,86.41V72.26c1.16-1.45,2.7-1.51,4.27-1.51q37.71,0,75.42,0Q42.24,49.59,4.57,28.4A10.33,10.33,0,0,1,.2,24.59v-8.2c2-1.52,3.61.11,5.19,1q19.55,11,39.09,22c17.37,9.79,34.75,19.51,52.1,29.34a15.74,15.74,0,0,0,8.25,2.17c6.28-.1,12.57-.08,18.51,0C91.09,52.7,58.5,34.4,25.93,16.05,18.63,11.94,11.28,7.92,4,3.71,2.66,2.91.75,2.49.86,0h43c4.35,1.05,8.25,3.34,12.19,5.55q49.13,27.69,98.28,55.31c4.72,2.65,4.73,2.64,4.73-3.17q0-25.87,0-51.76c0-2.08-.27-4.28,1.31-5.93Z"/><path class="cls-2" d="M.2,129.61q84.56,0,169.11-.08c3,0,3.78.78,3.76,4.2-.13,27.42-.07,54.85-.07,82.28H160.42c-1.58-1.66-1.31-3.85-1.31-5.94q0-25.5,0-51c0-1-.05-2,0-3,.18-3-1-3.13-3-1.92-.67.41-1.38.77-2.07,1.15q-50.61,28.5-101.22,57a50.85,50.85,0,0,1-9,3.69H29.33c-.33-1.62.84-2.13,1.7-2.81a20.14,20.14,0,0,1,2.63-1.58Q91.85,178.92,150,146.19a17.07,17.07,0,0,1,2-1.07c-5.31.16-11.07.2-16.82,0a21.85,21.85,0,0,0-11.74,3.11q-55.33,31.17-110.71,62.3C8.88,212.69,5.14,215.09.86,216c-1.47-.06-.61-1.31-.62-1.86-.07-7.58,0-15.15,0-22.72a9.13,9.13,0,0,1,3.19-3.14l76.51-43c-24.94,0-50,0-75.1,0-1.66,0-3.34.07-4.6-1.5Z"/><path class="cls-2" d="M384.2,86.41q-84.55,0-169.12.08c-3,0-3.78-.79-3.76-4.2.14-27.43.08-54.85.08-82.28H224c1.58,1.65,1.31,3.85,1.31,5.93q0,25.51,0,51c0,1,.06,2,0,3-.19,3,1,3.14,3,1.93.68-.42,1.39-.77,2.08-1.16Q281,32.2,331.56,3.7A50.76,50.76,0,0,1,340.5,0h14.57c.32,1.61-.84,2.14-1.71,2.8a29,29,0,0,1-3.51,2.09Q292.3,37.22,234.76,69.62a21.82,21.82,0,0,1-2.44,1.31c5.59-.25,11.65-.17,17.71-.05a19.3,19.3,0,0,0,10.14-2.64Q317.38,36,374.63,3.77A46.2,46.2,0,0,1,383.54,0c1.46.06.6,1.3.61,1.86.07,7.57.05,15.14.05,22.72a9.21,9.21,0,0,1-3.2,3.13q-38.29,21.57-76.5,43c24.94,0,50,0,75.1,0,1.66,0,3.34-.06,4.6,1.51Z"/><path class="cls-3" d="M224,216q.08-23.25.16-46.48c0-6.2,0-12.4,0-18.53.9-.86,1.54,0,2.14.32Q282.67,183,339,214.73c.54.3,1.31.39,1.48,1.28Z"/><path class="cls-3" d="M43.89,216c.5-1.11,1.57-1.25,2.41-1.73q55.46-31.22,110.92-62.4c.85-.48,1.73-.9,3-1.57v4q0,28.83,0,57.66c0,1.36.1,2.72.16,4.08Z"/><path class="cls-3" d="M340.5,0c-.45,1.16-1.54,1.28-2.37,1.75Q282.66,33,227.16,64.18c-.85.48-1.62,1.27-3,1.11V61.37q0-28.65,0-57.29c0-1.36-.1-2.71-.15-4.07Z"/><path class="cls-3" d="M160.42,0q-.09,23.24-.16,46.48c0,6.2,0,12.4,0,18.54-.91.79-1.54,0-2.15-.38Q101.73,33,45.4,1.27C44.86,1,44.1.88,43.89,0Z"/><path class="cls-1" d="M383.54,0c-.62,1.16-1.78,1.37-2.73,1.91Q320.15,36.06,259.47,70.2a14,14,0,0,1-7.26,1.91c-7.72-.1-15.44,0-23.39,0,.59-1.71,2-1.87,3.07-2.46Q291.78,35.88,351.69,2.2c1.16-.65,2.25-1.46,3.38-2.19Z"/><path class="cls-1" d="M.86,216c.64-1.13,1.79-1.35,2.74-1.89Q64.27,180,124.94,145.83a13.9,13.9,0,0,1,7.27-1.92c7.76.1,15.52,0,23.55,0-1,1.71-2.36,2-3.48,2.62Q92.52,180.23,32.74,213.83c-1.17.66-2.28,1.45-3.41,2.18Z"/><path class="cls-3" d="M.2,24.59c.85-.27,1.47.38,2.14.76q40,22.44,79.92,44.95c.62.35,1.51.47,1.83,1.77H3.82c-1.21,0-2.42.11-3.62.18Z"/><path class="cls-3" d="M384.2,72.26c-4.3-.07-8.6-.18-12.89-.18q-35.4,0-70.8,0c-.08-1.13.72-1.18,1.27-1.49q40.44-22.77,80.88-45.51a6.72,6.72,0,0,1,1.54-.48Z"/><path class="cls-3" d="M.2,143.76c4.29.06,8.58.17,12.87.18H84c-.16,1.39-1.12,1.42-1.73,1.76q-39.95,22.51-79.92,45c-.67.37-1.29,1-2.14.76Z"/><path class="cls-3" d="M384.2,191.43c-.73.22-1.25-.32-1.83-.65q-40.17-22.56-80.31-45.15c-.58-.32-1.11-.73-2.55-1.68h81.06c1.21,0,2.42-.12,3.63-.18Z"/><path class="cls-1" d="M.86,0C6.05,3.73,11.72,6.46,17.2,9.55q53.15,30,106.35,59.81a10.76,10.76,0,0,1,3.39,2.71c-5.84,0-11.7-.32-17.53.08-6.59.46-12.37-1.4-18.26-4.78C62,50.68,32.74,34.38,3.51,18,2.44,17.36,1.3,16.91.2,16.39c0-5,0-9.93,0-14.89C.24,1-.45-.11.86,0Z"/><path class="cls-1" d="M383.54,216c-.83-1.27-2.18-1.59-3.33-2.23q-59.77-33.66-119.56-67.3c-1-.58-2.29-.82-3.2-2.45,9.11,0,18-.07,26.82.07,1.22,0,2.46,1,3.63,1.65l92.7,52.12c1.16.65,2.4,1.17,3.6,1.75,0,5,0,9.93,0,14.9C384.16,215,384.84,216.12,383.54,216Z"/></g></g></svg>