<svg xmlns="http://www.w3.org/2000/svg" viewBox="0 0 124.7 70.57"><defs><style>.cls-1{fill:#2b2b2b;}.cls-2{fill:#141311;}.cls-3{font-size:20px;fill:#fff;font-family:Jost-Light, Jost*;}.cls-4{letter-spacing:0em;}</style></defs><title>자산 2</title><g id="레이어_2" data-name="레이어 2"><g id="레이어_1-2" data-name="레이어 1"><rect class="cls-1" width="124.7" height="70.57"/><path class="cls-2" d="M27,22.15S29.27,8.81,29.39,8.57A1.89,1.89,0,0,1,30,8.06c2.53.47,1.23,15.18,1.2,15.9s-2.1,1.68-2.1,1.68a130.37,130.37,0,0,1,13.32,5.49c1.16.39,2.84,1.11,2.84,1.11l4.15,2.42.19-.22,3.48-.23A55.94,55.94,0,0,1,58.33,38c.06.1,1.33,1.73,1.33,1.73l3,2.7.53-.08s40.35-4.85,43.41-4.91,10.11.06,11.66,1.67-10.84,5.08-10.84,5.08l-33.81,6V52.8c.31.15.23.3.23.3-.07.81-1.8.9-1.8.9H70.16v.64c.9.14.82,1.39.82,1.39s.05,1.38-.79,1.21-.42-2.35-.42-2.35v-.85c-2.06.53-12.92-1.18-12.92-1.18l-1,3.27.81-3.36-5.08-.65,0,.71s2-.15,2.91,3.5-.34,5.29-.34,5.29a2.19,2.19,0,0,1-2.75.68c-1.89-.71-2.51-5.17-2.51-5.17a2.93,2.93,0,0,1-.77-3c.65-1.67,1.51-.8,1.51-.8V52.16h-1.1a3.87,3.87,0,0,1,1.1.81c-1.74-.8-12-2.29-12-2.29l-2.9,3.65a5,5,0,0,1-.87,4.81l-.84-.38s.06.11-.86,1.43-3.45.85-3.45.85c-2.71-1.5-1.37-5.35-1.37-5.35a5.76,5.76,0,0,1,2-2.6,2.6,2.6,0,0,1,3.1-.13,1.24,1.24,0,0,1,.86.13l2.22-3.46c-7.39-1-23.12-4.24-23.12-4.24s-6.91-1.81-6-2.43a5.79,5.79,0,0,1,2.83-.5,42,42,0,0,1,5.34-4.07c1.5-.83,7.1-4.93,7.1-4.93a6.8,6.8,0,0,1-.91-5.11c1.11-3.32,5.92-3.15,5.92-3.15C26.74,24.35,27,22.15,27,22.15ZM10.78,42.68,32.5,44l-.44-1.14s-6.61-5-6.89-6.08a16.47,16.47,0,0,1-2.76-2.22S11.31,42.52,10.78,42.68Zm40.86-6.79,1-1.46-3,.24v.13Zm3.67,3.41-1.09-3.77L54,35.29h-.75l-.61,1.16Zm-.71-3.73,1.1,3.73,3.17,2.28L58,38Zm4,3.49.93.91v-.44l-1.06-1.37Zm.45,2.34h.31l.13-1.19-.8-.78Z"/><text class="cls-3" transform="translate(24.91 40.39)">Germa<tspan class="cls-4" x="56.2" y="0">n</tspan><tspan x="66.2" y="0">y</tspan></text></g></g></svg>