<svg xmlns="http://www.w3.org/2000/svg" viewBox="0 0 384 216"><defs><style>.cls-1{fill:#e51938;}.cls-2{fill:#fcb931;}.cls-3{fill:#fcb932;}.cls-4{fill:#fab92d;}.cls-5{fill:#e11d30;}</style></defs><title>자산 7</title><g id="레이어_2" data-name="레이어 2"><g id="레이어_1-2" data-name="레이어 1"><rect class="cls-1" width="384" height="216"/><path class="cls-2" d="M36.26,98.39a56,56,0,0,1-5.19,6.3,10.08,10.08,0,0,1-5,2.92,3.47,3.47,0,0,1-3.77-1.52,3.11,3.11,0,0,1,0-3.89A34,34,0,0,1,39.8,89.9c.83-.27,1.22.33,1.74.72,5,3.74,10.3,4.25,16,1.71,1.23-.55,1.37-1,.37-2q-8.3-8.5-16.43-17.16c-.92-1-1.46-.91-2.33,0-1.23,1.24-2.59,2.35-3.85,3.56-.61.58-1,.67-1.63,0C32.32,75.07,31,73.54,29.55,72c-.58-.62-.57-1,0-1.67,2.87-3,5.69-6.09,8.52-9.14a1.67,1.67,0,0,1,1.31-.7L50.49,61c.14,0,.27.12.59.28-1.58,1.64-3,3.27-4.64,4.77-1,.94-.9,1.51.05,2.46q8.35,8.34,16.58,16.81c.84.85,1.17.78,1.44-.36,3-12.77-.16-23.7-9.8-32.68-.64-.59-1.31-1.15-2.11-1.85a2.13,2.13,0,0,1,1.95.34A31.27,31.27,0,0,1,70.46,90.55a2.24,2.24,0,0,0,.64,3c2.86,2.51,5.62,5.13,8.4,7.73,1.92,1.8,2.1,3.89.54,5.54s-3.74,1.52-5.67-.39c-2.64-2.6-5.31-5.17-7.93-7.78-.64-.65-1.07-.79-1.91-.17a21.61,21.61,0,0,1-24.76.86l-1.92-1.23C37.2,97.49,36.77,98.18,36.26,98.39Z"/><path class="cls-3" d="M60.73,31.67c-.27.24-.54.48-.82.7-2.88,2.19-2.5,1.08-1.41,4.68.8,2.63,1.68,5.24,2.55,7.93-1,0-1.48-.72-2.08-1.15-2.08-1.51-4.19-3-6.22-4.56a1.68,1.68,0,0,0-2.42,0c-2.08,1.6-4.22,3.11-6.36,4.64A4.19,4.19,0,0,1,42,45c.75-2.35,1.46-4.58,2.19-6.79,1.32-4.05,1.34-4.05-2.11-6.59-1.88-1.39-3.79-2.74-5.7-4.12.39-.64.91-.41,1.32-.42,2.83,0,5.66-.05,8.49,0a1.78,1.78,0,0,0,2.1-1.47c.75-2.62,1.65-5.2,2.51-7.78a3,3,0,0,1,.85-1.67c.9,2.77,1.74,5.44,2.64,8.08,1.13,3.31.37,2.76,3.88,2.81,2.76,0,5.53,0,8.29,0l.17.37-4.05,2.85c-.9-.31-2.07-.08-2.43-1.39-.07-.24-.42,0-.64.05-.83.05-1.38.78-2.16,1a2.91,2.91,0,0,1-.66,0c-.79-.15-1.56-1-2.37-.05-1.07.23-1.6-.3-1.91-1.27a15.17,15.17,0,0,0-1.08-2.8c-.23,3.58-2,4.94-5.31,4.15l2.31,6.62c1.31-.18,2-1.91,3.54-1.46s2.42,1.55,3.48,2.27A23.3,23.3,0,0,1,54.29,34a1.61,1.61,0,0,1,.57-1.8,9.08,9.08,0,0,1,2.93-1.94c.66.07,1.19.58,2,.33C60.32,30.4,61,30.82,60.73,31.67Z"/><path class="cls-4" d="M60.73,31.67c-.93-.64-2-.34-3-.54-.55-.55-.18-1.25-.32-1.87,1.22-1.27,2.79-.67,4.64-1-.59.38-1,.52-1,.62,0,.38.45.34.7.47s1.53-.22.87,1Z"/><path class="cls-5" d="M37.45,99.12c-1,.72-.68,2.34-2.09,3.08C35.84,100.82,36,99.54,37.45,99.12Z"/><path class="cls-5" d="M36.26,98.39c.39-.93.87-1.31,1.59-.26C37.31,98.18,36.83,98.58,36.26,98.39Z"/><path class="cls-1" d="M57.36,29.26l2,.19c-.32.94-1.23,1.05-1.65,1.68-3,1.77-3,1.77-1.94,5,.28.87.53,1.74.87,2.84a16.46,16.46,0,0,1-3.7-2.48,1.79,1.79,0,0,0-2.69,0,28.23,28.23,0,0,1-2.48,1.82c-.29.2-.63.44-1,.14s0-.57.09-.84c.36-1.13.71-2.25,1.11-3.36a1.31,1.31,0,0,0-.56-1.71c-1.26-.87-2.48-1.79-3.71-2.69l.06-.45c1.44,0,2.87-.07,4.3,0a1.67,1.67,0,0,0,2-1.43,17.88,17.88,0,0,1,1.6-4.38c.53,1.62,1,3,1.45,4.39.2.59.22,1.41,1.2,1.32a2.53,2.53,0,0,1,2.47,0Z"/><path class="cls-4" d="M56.75,29.25H54.28c-.08-.24-.47-.68.07-.65C55.17,28.64,56.13,28.39,56.75,29.25Z"/></g></g></svg>