<svg xmlns="http://www.w3.org/2000/svg" viewBox="0 0 115 45.66"><defs><style>.cls-1{fill:#263324;}.cls-2{fill:#121e11;}</style></defs><title>자산 13</title><g id="레이어_2" data-name="레이어 2"><g id="레이어_1-2" data-name="레이어 1"><rect class="cls-1" width="115" height="45.66"/><path class="cls-2" d="M20.67,5.09c1.36-3.57,1.46-.62,1.46-.62.68,4.53-1.75,10.82-1.75,10.82a8.11,8.11,0,0,1,1.27.49,10.28,10.28,0,0,1,2.78.15c6.16,1.48,14,6.9,14,6.9a1.7,1.7,0,0,1,1.87-.46c1.74.82,4.6,4.31,4.6,4.31l.52.14S72.17,24.3,80,23.6s9,.79,9,.79c2.92,2.35-7.67,3.88-7.67,3.88L49.91,32.39,51.47,34c1.28,0,8.8.46,8.32,1s-7.3.58-7.3.58l.62,1-.75.14v.12l-.41.35h-.1l.22-.47c-.36-.26-.53,0-.53,0v.57c.46,0,.44.7.44.7a.17.17,0,0,1,0,.28s0,1-.48.83-.5-1-.5-1a.39.39,0,0,1-.14-.41v-.27a.83.83,0,0,1-.87-.75A28.29,28.29,0,0,1,45.58,36l-.2,2.8-.11.22v1.4l-1.12.26c-.4,1.52-1.27,1.64-1.27,1.64H41.74s-1.28-.65-1.34-2.9,1.15-3,1.15-3l-3.88-.09-1.4-.63L35.44,35V33.45l-2.8-.36s0-.05,0,.66-.54.28-.54.28L31,32.91l-7.46-.82L21.69,33.4l-.2.72c-.2.77-.3.68-.3.68s-.15.44-.28.91a.59.59,0,0,0,.35.67c.4.29.08.81.08.81a1.57,1.57,0,0,1,.08.62l0,1.08S21.25,41,19.31,41a2,2,0,0,1-2-2l-.79-.44s.32-2,1.29-2.43a5.88,5.88,0,0,0,1.63-1.23l1.05-2.84c-.16-.06-.46-.45-.46-.45a82.16,82.16,0,0,1-9.89-.92c-7.82-1.52-5.64-2.2-5.64-2.2l13.32-.24-1.43-.61c-.6-.53.29-.41.29-.41l2.79,1h3A3.23,3.23,0,0,1,21,27.36a1.33,1.33,0,0,1,.4-1.81,2.12,2.12,0,0,0-.53-.48c-2.42-1.46-2.28-1.69-2.28-1.69V22.11a13.54,13.54,0,0,1-2.08-1.89c-2,1.27-5.93,4.16-8.27,6s-.08-.26-.08-.26l7.6-6.62a4,4,0,0,1-.58-2.69c.53-1.86,3.18-1.72,3.18-1.72A40,40,0,0,1,20.67,5.09ZM22.2,31.9l-.3,1L23.11,32Zm17.05-8.59.85-.87a1.39,1.39,0,0,0-1.52.47Zm2.47,1.91c-.64-3-1.41-2.57-1.41-2.57l-.73.77Zm.19,0,.34.39c0-.25.27-.35.27-.35L42,23.88l-.71-.57A16.28,16.28,0,0,1,41.91,25.26Zm.28-1.2.5,1.27s.23-.08.69.42L43.12,25Z"/></g></g></svg>