<svg xmlns="http://www.w3.org/2000/svg" viewBox="0 0 115 45.66"><defs><style>.cls-1{fill:#3d2d18;}.cls-2{fill:#19150e;}</style></defs><title>자산 294lk</title><g id="레이어_2" data-name="레이어 2"><g id="레이어_1-2" data-name="레이어 1"><rect class="cls-1" width="115" height="45.66"/><path class="cls-2" d="M20.7,24.51c-1.08-1.17-.75-3.76-.75-3.76a2.86,2.86,0,0,1-1.15-2.56l-.11-.08a33.34,33.34,0,0,1-4-2.64c-1.11-.76-.46-1.38-.46-1.38C16.34,13.8,20.46,17,20.46,17a8,8,0,0,1,1.46.11c1.54-1.95,4.37-1.62,4.37-1.62s2.15-1.73,5.08-3.79,2.95-1.33,2.95-1.33c.69,1.15-5.13,6.11-5.13,6.11l2.23,1.42a4.64,4.64,0,0,1,1.34,1.12l1.21.3a4.48,4.48,0,0,1,3-.42,16.72,16.72,0,0,1,6.61,6.59s39-5.16,42.45-5.6,3.47,2,3.47,2a3.19,3.19,0,0,1-2.61,3.81l-36.08,7,.15.5a13.14,13.14,0,0,0,2.34.21A104.07,104.07,0,0,1,64,34.23c3.3.6,0,.83,0,.83l-9.88.31A5.3,5.3,0,0,0,54.37,37a.87.87,0,0,1,.15.61h-.74l-.4-.28h-.12v.31h-.11l0,.71a.51.51,0,0,1,.18,0s-.37-.4,0,0a.6.6,0,0,1,0,.85.56.56,0,0,1-.4,0c-.2-.1-.23-.72-.23-.72l-.64-1.15a53.57,53.57,0,0,1-6.36-1.2l-.07,1a6.2,6.2,0,0,1,0,4.5l-.55-.08a1.78,1.78,0,0,1-1.24,1.3s-2.15.65-2.53-2.46a5.5,5.5,0,0,1,2.13-4.9c-2.85-1.23-10.24-2.2-10.24-2.2L20.81,31.36A13.4,13.4,0,0,1,20,34.45s-.32.65-.65.56.1-2.87.1-2.87l-.82,3.56A1.64,1.64,0,0,1,18.82,37a3,3,0,0,1,.35,2.73s-.92,2.2-2.58,1.66A1.92,1.92,0,0,1,15,39.53a1.31,1.31,0,0,1-.86-.8,2.79,2.79,0,0,1,2.38-2.64c.12-1,.47-1.07.47-1.07l1.19-4C2.9,28.57,2.68,26.86,2.68,26.86L20.11,27C20.26,26.42,20.7,24.51,20.7,24.51Zm.87,2.58c0,.06,2,0,2,0a11.11,11.11,0,0,1-1.84-1.27C21.62,26.86,21.57,27,21.57,27.09Zm13.26-7.65a11.36,11.36,0,0,1,1.32-.53,4.84,4.84,0,0,0-2,.46Zm2.1.89.26-.89L36.48,19s.51,0,0,0-1.16.75-1.16.75Zm.16.19,0,.82.91.72-.33-2A1.09,1.09,0,0,0,37.09,20.52Zm.76-.59.42,2.32,1.38.94-.58-2.25Zm2,3.38L41,24.1l-.36-1.9L39.3,21.06ZM37.6,20v-.21l-.19-.18-.17.47Zm3.19,2.28.5,2,1.86,1.23h.28A13.7,13.7,0,0,0,40.79,22.25Z"/></g></g></svg>