<svg xmlns="http://www.w3.org/2000/svg" viewBox="0 0 243.44 230.39"><defs><style>.cls-1{fill:#b7a069;}</style></defs><title>gold</title><g id="레이어_2" data-name="레이어 2"><g id="레이어_1-2" data-name="레이어 1"><polygon class="cls-1" points="99.55 64.77 78.25 54.77 55.21 32.17 34.34 21.3 12.17 32.6 0 64.77 11.74 120.41 22.61 153.02 38.25 208.66 55.21 187.36 66.94 154.76 87.81 132.15 99.55 142.15 99.55 154.32 89.55 164.75 77.81 186.49 77.81 196.49 111.72 230.4 131.72 230.4 166.06 197.36 166.06 186.92 152.4 165.19 143.02 155.19 143.89 142.15 154.76 131.28 176.49 153.89 188.23 175.19 204.31 208.66 220.83 153.89 231.26 122.28 243.44 65.21 231.26 32.6 211.27 21.3 187.79 33.47 166.49 54.77 144.32 65.21 143.89 21.3 132.59 0 100.42 0 77.38 14.78 100.42 31.3 99.55 64.77"/></g></g></svg>