<svg xmlns="http://www.w3.org/2000/svg" viewBox="0 0 219.16 230.97"><defs><style>.cls-1{fill:#979797;}</style></defs><title>silver</title><g id="레이어_2" data-name="레이어 2"><g id="레이어_1-2" data-name="레이어 1"><path class="cls-1" d="M0,99,11.11,88.22,33.34,77.1,43.41,66.34,54.53,55.22,76.41,33.34l23-11.11,10.39-10.77L143.1,0h10.07l33.69,15.28L165,27.09l21.88,5.56,21.88,11.81,10.42,10.76V66.34l-32-11.12L198,66.69,208.74,77.8,219.16,99l-3.82,22.57-11.46-11.11-5.56,11.11-4.52,76.76L181.65,154.9l-5.91,10.42-10.42,33L132,231l-10.77-20.49,11.12-33.69-33,33-22.6,10.07L55.22,231H43.76l11.12-21.54,22.57-32.64,21.91-5.56-21.91-5.91L55.22,176.44,45.15,186.86,33,176.09V154.56l54.52-10.08L66.69,130.59l-11.47.7L39.59,143.1,11.11,131.63,0,109.41ZM54.61,77V88H77L87.61,77.4V66h-22Zm88-21.8V66h10.8V88H165L175.71,77.3V66L165,55.25Z"/></g></g></svg>